<svg id="Layer_1" xmlns="http://www.w3.org/2000/svg" viewBox="0 0 1940 500"><style>.st0{fill:#b7d7e8}.st1{fill:#00abe6}</style><path class="st0" d="M97.68 164.08v49.24c0 7.98-4.3 12.49-11.86 12.49-7.46 0-11.76-4.51-11.76-12.49v-7.04h5.98v5.88c0 5.88 1.68 8.19 5.67 8.19s5.77-2.31 5.77-8.19v-19.95h-.21c-1.78 2.73-4.41 4.1-7.98 4.1-5.98 0-9.45-4.1-9.45-11.13v-21.1c0-8.19 4.3-12.81 11.86-12.81 7.57 0 11.98 4.62 11.98 12.81zm-17.64.84v19.63c0 4.3 1.57 6.3 4.83 6.3 4.09 0 6.61-3.36 6.61-9.03v-16.9c0-5.88-1.68-8.19-5.77-8.19s-5.67 2.31-5.67 8.19zM119.1 212.69v-48.3c0-8.4 4.51-13.12 12.18-13.12 7.66 0 12.18 4.73 12.18 13.12v48.3c0 8.4-4.51 13.12-12.18 13.12-7.66.01-12.18-4.72-12.18-13.12zm18.06-1.05v-46.2c0-6.09-1.68-8.5-5.88-8.5-4.3 0-5.88 2.42-5.88 8.5v46.2c0 6.09 1.58 8.5 5.88 8.5 4.2.01 5.88-2.41 5.88-8.5zM151.44 213.11v-60.79h6.3v59.64c0 5.88 1.47 8.19 5.67 8.19s5.67-2.31 5.67-8.19v-59.64h6.09v60.79c0 8.08-4.41 12.7-11.86 12.7s-11.87-4.61-11.87-12.7zM189.87 157.78h-8.82v-5.46h23.94v5.46h-8.82v66.99h-6.3v-66.99zM224.31 212.69v-48.3c0-8.4 4.52-13.12 12.18-13.12s12.18 4.73 12.18 13.12v48.3c0 8.4-4.51 13.12-12.18 13.12s-12.18-4.72-12.18-13.12zm18.06-1.05v-46.2c0-6.09-1.68-8.5-5.88-8.5-4.31 0-5.88 2.42-5.88 8.5v46.2c0 6.09 1.57 8.5 5.88 8.5 4.2.01 5.88-2.41 5.88-8.5zM256.86 152.32h20.79v5.46h-14.49v26.35h12.6v5.46h-12.6v35.17h-6.3v-72.44zM304.11 159.46l-9.24 5.67v-5.88l11.55-7.14h3.88v72.66h-6.19v-65.31zM318.49 213.01v-48.93c0-8.19 4.3-12.81 11.86-12.81s11.86 4.62 11.86 12.81v48.93c0 8.19-4.3 12.81-11.86 12.81s-11.86-4.62-11.86-12.81zm17.53-.84v-47.25c0-5.88-1.57-8.19-5.67-8.19s-5.67 2.31-5.67 8.19v47.25c0 5.88 1.57 8.19 5.67 8.19s5.67-2.31 5.67-8.19z"/><path class="st1" d="M364.06 152.32h11.97c8.4 0 12.39 4.31 12.39 13.12v11.34c0 8.82-3.99 13.12-12.39 13.12h-5.67v34.86h-6.3v-72.44zm11.23 32.13c5.25 0 6.82-2 6.82-8.71v-9.24c0-6.72-1.58-8.71-6.82-8.71h-4.94v26.67h4.94zM398.81 152.32h8.29l9.13 72.45h-6.4l-2.1-17.95h-9.87l-2.1 17.95h-6.09l9.14-72.45zm8.3 49.03l-4.2-39.06h-.21l-4.2 39.06h8.61zM425.17 157.78h-8.82v-5.46h23.94v5.46h-8.82v66.99h-6.3v-66.99zM446.37 152.32h6.3v72.45h-6.3v-72.45zM461.28 152.32h20.79v5.46h-14.49v25.3h12.6v5.46h-12.6v30.76h14.49v5.46h-20.79v-72.44zM488.58 152.32h8.19l11.44 53.02h.21v-53.02h5.67v72.45h-6.82l-12.81-59.74h-.21v59.74h-5.67v-72.45zM529.01 157.78h-8.82v-5.46h23.94v5.46h-8.82v66.99h-6.3v-66.99zM549.06 212.9v-12.7h6.09v11.55c0 5.98 1.68 8.4 5.88 8.4 4.3 0 5.98-2.42 5.98-8.4v-10.92c0-4.94-1.36-7.35-4.93-9.66l-5.56-3.57c-5.35-3.46-7.45-7.45-7.45-14.49v-9.34c0-7.98 4.3-12.49 11.76-12.49s11.76 4.51 11.76 12.49v9.34h-6.09v-8.29c0-5.67-1.57-7.87-5.56-7.87-3.99 0-5.56 2.2-5.56 7.87v7.87c0 4.94 1.36 7.35 4.93 9.66l5.56 3.57c5.35 3.46 7.45 7.46 7.45 14.49v12.49c0 8.29-4.51 12.91-12.18 12.91-7.67.01-12.08-4.61-12.08-12.91zM594.21 152.32h11.65c8.4 0 12.39 4.31 12.39 13.12v9.24c0 5.88-1.89 9.45-5.67 11.13v.21c3.78 1.68 5.67 5.25 5.67 11.23v27.51h-6.3v-27.09c0-6.72-1.89-8.71-7.88-8.71h-3.57v35.8h-6.3v-72.44zm10.92 31.18c5.25 0 6.82-2 6.82-8.71v-8.29c0-6.72-1.58-8.71-6.82-8.71h-4.62v25.72h4.62zM626.34 152.32h20.79v5.46h-14.49v25.3h12.6v5.46h-12.6v30.76h14.49v5.46h-20.79v-72.44zM653.64 152.32h11.97c8.4 0 12.39 4.31 12.39 13.12v11.34c0 8.82-3.99 13.12-12.39 13.12h-5.67v34.86h-6.3v-72.44zm11.23 32.13c5.25 0 6.82-2 6.82-8.71v-9.24c0-6.72-1.58-8.71-6.82-8.71h-4.94v26.67h4.94zM684.4 212.69v-48.3c0-8.4 4.52-13.12 12.18-13.12s12.18 4.73 12.18 13.12v48.3c0 8.4-4.51 13.12-12.18 13.12s-12.18-4.72-12.18-13.12zm18.06-1.05v-46.2c0-6.09-1.68-8.5-5.88-8.5-4.31 0-5.88 2.42-5.88 8.5v46.2c0 6.09 1.57 8.5 5.88 8.5 4.2.01 5.88-2.41 5.88-8.5zM716.95 152.32h11.65c8.4 0 12.39 4.31 12.39 13.12v9.24c0 5.88-1.89 9.45-5.67 11.13v.21c3.78 1.68 5.67 5.25 5.67 11.23v27.51h-6.3v-27.09c0-6.72-1.89-8.71-7.88-8.71h-3.57v35.8h-6.3v-72.44zm10.92 31.18c5.25 0 6.82-2 6.82-8.71v-8.29c0-6.72-1.58-8.71-6.82-8.71h-4.62v25.72h4.62zM755.28 157.78h-8.82v-5.46h23.94v5.46h-8.82v66.99h-6.3v-66.99zM776.49 152.32h20.79v5.46h-14.49v25.3h12.6v5.46h-12.6v30.76h14.49v5.46h-20.79v-72.44zM803.79 152.32h11.97c8.4 0 12.39 4.31 12.39 13.12v46.2c0 8.82-3.99 13.12-12.39 13.12h-11.97v-72.44zm11.23 66.99c5.25 0 6.82-1.99 6.82-8.71v-44.1c0-6.72-1.58-8.71-6.82-8.71h-4.94v61.53h4.94zM74.9 247.32h11.65c8.4 0 12.39 4.31 12.39 13.12v8.71c0 5.88-1.78 9.45-5.46 11.13v.21c3.99 1.68 5.88 5.25 5.88 11.34v14.8c0 8.82-3.99 13.12-12.39 13.12H74.9v-72.43zm10.92 30.76c5.25 0 6.82-2 6.82-8.61v-7.98c0-6.72-1.58-8.71-6.82-8.71H81.2v25.3h4.62zm.42 36.23c5.25 0 6.82-2 6.82-8.71v-13.33c0-6.72-1.58-8.71-6.82-8.71H81.2v30.76h5.04zM107.03 247.32h20.79v5.46h-14.49v25.3h12.6v5.46h-12.6v30.76h14.49v5.46h-20.79v-72.44zM134.33 247.32h6.3v72.45h-6.3v-72.45zM149.24 247.32h8.19l11.44 53.02h.21v-53.02h5.67v72.45h-6.82l-12.81-59.74h-.21v59.74h-5.67v-72.45zM182.94 309.48v-50.19c0-8.29 4.51-13.02 12.07-13.02 7.66 0 11.97 4.73 11.97 13.02v7.98H201v-6.83c0-6.09-1.68-8.5-5.88-8.5-4.3 0-5.88 2.42-5.88 8.5v48.3c0 4.3 1.58 6.4 5.04 6.4 4.3 0 6.72-3.25 6.72-9.13v-20.79h-5.88v-5.46h12.18v40h-5.35v-5.14h-.31c-1.68 3.99-4.73 6.19-9.03 6.19-6.1.01-9.67-4.3-9.67-11.33zM233.44 257.92h2.52v8.61h-7.14v-7.56l4.62-11.66h3.67l-3.67 10.61zm12.39 0h2.52v8.61h-7.14v-7.56l4.62-11.66h3.67l-3.67 10.61zM255.7 307.9v-12.7h6.09v11.55c0 5.98 1.68 8.4 5.88 8.4 4.31 0 5.98-2.42 5.98-8.4v-10.92c0-4.94-1.36-7.35-4.93-9.66l-5.56-3.57c-5.35-3.46-7.45-7.45-7.45-14.49v-9.35c0-7.98 4.3-12.49 11.76-12.49s11.76 4.51 11.76 12.49v9.35h-6.09v-8.29c0-5.67-1.57-7.88-5.56-7.88-3.99 0-5.56 2.21-5.56 7.88v7.87c0 4.93 1.36 7.35 4.93 9.66l5.56 3.57c5.35 3.46 7.45 7.46 7.45 14.49v12.49c0 8.29-4.51 12.91-12.18 12.91-7.67.01-12.08-4.61-12.08-12.91zM293.92 247.32h8.29l9.13 72.45h-6.4l-2.1-17.95h-9.87l-2.1 17.95h-6.09l9.14-72.45zm8.3 49.03l-4.2-39.06h-.21l-4.2 39.06h8.61zM320.28 252.78h-8.82v-5.46h23.94v5.46h-8.82v66.99h-6.3v-66.99zM341.49 247.32h6.3v72.45h-6.3v-72.45zM355.24 307.9v-12.7h6.09v11.55c0 5.98 1.68 8.4 5.88 8.4 4.3 0 5.98-2.42 5.98-8.4v-10.92c0-4.94-1.36-7.35-4.93-9.66l-5.56-3.57c-5.35-3.46-7.45-7.45-7.45-14.49v-9.35c0-7.98 4.3-12.49 11.76-12.49s11.76 4.51 11.76 12.49v9.35h-6.09v-8.29c0-5.67-1.57-7.88-5.56-7.88-3.99 0-5.56 2.21-5.56 7.88v7.87c0 4.93 1.36 7.35 4.93 9.66l5.56 3.57c5.35 3.46 7.45 7.46 7.45 14.49v12.49c0 8.29-4.51 12.91-12.18 12.91-7.67.01-12.08-4.61-12.08-12.91zM386.74 247.32h20.79v5.46h-14.49v26.35h12.6v5.46h-12.6v35.17h-6.3v-72.44zM413.62 247.32h6.3v72.45h-6.3v-72.45zM428.53 247.32h20.79v5.46h-14.49v25.3h12.6v5.46h-12.6v30.76h14.49v5.46h-20.79v-72.44zM455.83 247.32h11.97c8.4 0 12.39 4.31 12.39 13.12v46.2c0 8.82-3.99 13.12-12.39 13.12h-11.97v-72.44zm11.23 66.99c5.25 0 6.82-2 6.82-8.71v-44.1c0-6.72-1.58-8.71-6.82-8.71h-4.94v61.53h4.94zM490.69 255.93h-2.52v-8.61h7.14v7.56l-4.62 11.65h-3.67l3.67-10.6zm12.39 0h-2.52v-8.61h7.14v7.56l-4.62 11.65h-3.67l3.67-10.6zM529.54 307.69v-48.3c0-8.4 4.51-13.12 12.18-13.12 7.66 0 12.18 4.73 12.18 13.12v48.3c0 8.4-4.51 13.12-12.18 13.12-7.67.01-12.18-4.72-12.18-13.12zm18.05-1.05v-46.2c0-6.09-1.68-8.5-5.88-8.5-4.3 0-5.88 2.42-5.88 8.5v46.2c0 6.09 1.58 8.5 5.88 8.5 4.2.01 5.88-2.41 5.88-8.5zM562.08 247.32h11.65c8.4 0 12.39 4.31 12.39 13.12v9.24c0 5.88-1.89 9.45-5.67 11.13v.21c3.78 1.68 5.67 5.25 5.67 11.23v27.51h-6.3v-27.09c0-6.72-1.89-8.71-7.88-8.71h-3.57v35.8h-6.3v-72.44zM573 278.5c5.25 0 6.82-2 6.82-8.71v-8.29c0-6.72-1.58-8.71-6.82-8.71h-4.62v25.72H573zM612.48 257.92H615v8.61h-7.14v-7.56l4.62-11.66h3.67l-3.67 10.61zm12.39 0h2.52v8.61h-7.14v-7.56l4.62-11.66h3.67l-3.67 10.61zM634.64 247.32h6.4l6.61 60.9h.21l6.61-60.9h5.98l-8.71 72.45h-8.4l-8.7-72.45zM666.77 247.32h20.79v5.46h-14.49v25.3h12.6v5.46h-12.6v30.76h14.49v5.46h-20.79v-72.44zM694.07 247.32h11.65c8.4 0 12.39 4.31 12.39 13.12v9.24c0 5.88-1.89 9.45-5.67 11.13v.21c3.78 1.68 5.67 5.25 5.67 11.23v27.51h-6.3v-27.09c0-6.72-1.89-8.71-7.88-8.71h-3.57v35.8h-6.3v-72.44zm10.92 31.18c5.25 0 6.82-2 6.82-8.71v-8.29c0-6.72-1.58-8.71-6.82-8.71h-4.62v25.72h4.62zM732.5 285.96l-10.18-38.64h6.51l6.93 28.66h.21l6.93-28.66h6.09l-10.18 38.64v33.81h-6.3v-33.81zM767.46 307.9v-12.7h6.09v11.55c0 5.98 1.68 8.4 5.88 8.4 4.31 0 5.98-2.42 5.98-8.4v-10.92c0-4.94-1.36-7.35-4.93-9.66l-5.56-3.57c-5.35-3.46-7.45-7.45-7.45-14.49v-9.35c0-7.98 4.3-12.49 11.76-12.49s11.76 4.51 11.76 12.49v9.35h-6.09v-8.29c0-5.67-1.57-7.88-5.56-7.88-3.99 0-5.56 2.21-5.56 7.88v7.87c0 4.93 1.36 7.35 4.93 9.66l5.56 3.57c5.35 3.46 7.45 7.46 7.45 14.49v12.49c0 8.29-4.51 12.91-12.18 12.91-7.67.01-12.08-4.61-12.08-12.91zM805.68 247.32h8.29l9.13 72.45h-6.4l-2.1-17.95h-9.87l-2.1 17.95h-6.09l9.14-72.45zm8.29 49.03l-4.2-39.06h-.21l-4.2 39.06h8.61zM832.03 252.78h-8.82v-5.46h23.94v5.46h-8.82v66.99h-6.3v-66.99zM853.24 247.32h6.3v72.45h-6.3v-72.45zM867 307.9v-12.7h6.09v11.55c0 5.98 1.68 8.4 5.88 8.4 4.3 0 5.98-2.42 5.98-8.4v-10.92c0-4.94-1.36-7.35-4.93-9.66l-5.56-3.57c-5.35-3.46-7.45-7.45-7.45-14.49v-9.35c0-7.98 4.3-12.49 11.76-12.49s11.76 4.51 11.76 12.49v9.35h-6.09v-8.29c0-5.67-1.57-7.88-5.56-7.88-3.99 0-5.56 2.21-5.56 7.88v7.87c0 4.93 1.36 7.35 4.93 9.66l5.56 3.57c5.35 3.46 7.45 7.46 7.45 14.49v12.49c0 8.29-4.51 12.91-12.18 12.91-7.67.01-12.08-4.61-12.08-12.91zM898.5 247.32h20.79v5.46H904.8v26.35h12.6v5.46h-12.6v35.17h-6.3v-72.44zM925.38 247.32h6.3v72.45h-6.3v-72.45zM940.29 247.32h20.79v5.46h-14.49v25.3h12.6v5.46h-12.6v30.76h14.49v5.46h-20.79v-72.44zM967.59 247.32h11.97c8.4 0 12.39 4.31 12.39 13.12v46.2c0 8.82-3.99 13.12-12.39 13.12h-11.97v-72.44zm11.23 66.99c5.25 0 6.82-2 6.82-8.71v-44.1c0-6.72-1.57-8.71-6.82-8.71h-4.94v61.53h4.94zM1002.44 255.93h-2.52v-8.61h7.14v7.56l-4.62 11.65h-3.67l3.67-10.6zm12.39 0h-2.52v-8.61h7.14v7.56l-4.62 11.65h-3.67l3.67-10.6zM72.59 342.32h6.4l5.46 58.69h.21l6.3-58.69h6.3l6.3 58.69h.21l5.46-58.69h5.88l-7.87 72.45H100l-5.88-54.07h-.22l-5.88 54.07h-7.56l-7.87-72.45zM121.41 342.32h6.3v72.45h-6.3v-72.45zM142.62 347.78h-8.82v-5.46h23.94v5.46h-8.82v66.99h-6.3v-66.99zM163.83 342.32h6.3v30.76h11.86v-30.76h6.3v72.45h-6.3v-36.22h-11.86v36.22h-6.3v-72.45zM216.85 347.78h-8.82v-5.46h23.94v5.46h-8.82v66.99h-6.3v-66.99zM238.06 342.32h6.3v30.76h11.86v-30.76h6.3v72.45h-6.3v-36.22h-11.86v36.22h-6.3v-72.45zM271.14 342.32h20.79v5.46h-14.49v25.3h12.6v5.46h-12.6v30.76h14.49v5.46h-20.79v-72.44zM298.44 342.32h6.3v72.45h-6.3v-72.45zM313.34 342.32H325c8.4 0 12.39 4.3 12.39 13.12v9.24c0 5.88-1.89 9.45-5.67 11.13v.21c3.78 1.68 5.67 5.25 5.67 11.23v27.51h-6.3v-27.09c0-6.72-1.89-8.71-7.88-8.71h-3.57v35.8h-6.3v-72.44zm10.92 31.18c5.25 0 6.82-1.99 6.82-8.71v-8.29c0-6.72-1.58-8.71-6.82-8.71h-4.62v25.72h4.62zM358.7 403.32v-49.56c0-7.98 4.2-12.49 11.76-12.49 7.66 0 11.86 4.51 11.86 12.49v11.87h-5.98v-10.81c0-5.67-1.68-7.88-5.67-7.88-4.1 0-5.67 2.21-5.67 7.88v47.46c0 5.67 1.57 7.87 5.67 7.87 3.99 0 5.67-2.21 5.67-7.87v-14.59h5.98v15.64c0 7.98-4.2 12.49-11.86 12.49-7.56 0-11.76-4.52-11.76-12.5zM389.36 402.69v-48.3c0-8.4 4.52-13.12 12.18-13.12s12.18 4.72 12.18 13.12v48.3c0 8.4-4.51 13.12-12.18 13.12s-12.18-4.72-12.18-13.12zm18.06-1.05v-46.2c0-6.09-1.68-8.5-5.88-8.5-4.31 0-5.88 2.42-5.88 8.5v46.2c0 6.09 1.57 8.5 5.88 8.5 4.2.01 5.88-2.41 5.88-8.5zM421.49 402.69v-48.3c0-8.4 4.52-13.12 12.18-13.12s12.18 4.72 12.18 13.12v48.3c0 8.4-4.51 13.12-12.18 13.12s-12.18-4.72-12.18-13.12zm18.06-1.05v-46.2c0-6.09-1.68-8.5-5.88-8.5-4.31 0-5.88 2.42-5.88 8.5v46.2c0 6.09 1.57 8.5 5.88 8.5 4.2.01 5.88-2.41 5.88-8.5zM454.04 342.32h6.3v66.99h13.44v5.46h-19.74v-72.45zM478.72 402.9v-12.7h6.09v11.55c0 5.98 1.68 8.4 5.88 8.4 4.31 0 5.98-2.42 5.98-8.4v-10.92c0-4.93-1.36-7.35-4.93-9.66l-5.56-3.57c-5.35-3.46-7.45-7.45-7.45-14.49v-9.34c0-7.98 4.3-12.49 11.76-12.49s11.76 4.51 11.76 12.49v9.34h-6.09v-8.29c0-5.67-1.57-7.88-5.56-7.88-3.99 0-5.56 2.21-5.56 7.88v7.87c0 4.93 1.36 7.35 4.93 9.66l5.56 3.57c5.35 3.46 7.45 7.46 7.45 14.49v12.5c0 8.29-4.51 12.91-12.18 12.91s-12.08-4.62-12.08-12.92zM509.79 403.32v-49.56c0-7.98 4.2-12.49 11.76-12.49 7.66 0 11.86 4.51 11.86 12.49v11.87h-5.98v-10.81c0-5.67-1.68-7.88-5.67-7.88-4.09 0-5.67 2.21-5.67 7.88v47.46c0 5.67 1.58 7.87 5.67 7.87 3.99 0 5.67-2.21 5.67-7.87v-14.59h5.98v15.64c0 7.98-4.2 12.49-11.86 12.49-7.56 0-11.76-4.52-11.76-12.5zM540.66 403.11v-60.79h6.3v59.64c0 5.88 1.47 8.19 5.67 8.19s5.67-2.31 5.67-8.19v-59.64h6.09v60.79c0 8.08-4.41 12.7-11.86 12.7s-11.87-4.61-11.87-12.7zM572.79 342.32h6.3v66.99h13.44v5.46h-19.74v-72.45zM598.62 342.32h11.97c8.4 0 12.39 4.3 12.39 13.12v11.34c0 8.82-3.99 13.12-12.39 13.12h-5.67v34.86h-6.3v-72.44zm11.24 32.13c5.25 0 6.82-2 6.82-8.71v-9.24c0-6.72-1.58-8.71-6.82-8.71h-4.94v26.67h4.94zM636.11 347.78h-8.82v-5.46h23.94v5.46h-8.82v66.99h-6.3v-66.99zM657.31 342.32h6.3v72.45h-6.3v-72.45zM672.22 342.32h8.19l11.44 53.02h.21v-53.02h5.67v72.45h-6.82l-12.81-59.74h-.21v59.74h-5.67v-72.45zM705.93 404.48v-50.19c0-8.29 4.52-13.02 12.07-13.02 7.66 0 11.97 4.72 11.97 13.02v7.98h-5.98v-6.82c0-6.09-1.68-8.5-5.88-8.5-4.31 0-5.88 2.42-5.88 8.5v48.3c0 4.3 1.57 6.4 5.04 6.4 4.3 0 6.72-3.25 6.72-9.13v-20.79h-5.88v-5.46h12.18v40h-5.35v-5.14h-.31c-1.68 3.99-4.73 6.19-9.03 6.19-6.1 0-9.67-4.31-9.67-11.34zM736.06 368.84v-20.32c0-7.29 4.1-11.57 10.65-11.57s10.65 4.29 10.65 11.57v20.32c0 7.77-3.98 11.57-10.65 11.57s-10.65-3.79-10.65-11.57zm18.86-.73v-18.86c0-6.67-2.69-9.98-8.2-9.98s-8.2 3.31-8.2 9.98v18.86c0 6.92 2.45 9.98 8.2 9.98 5.75 0 8.2-3.06 8.2-9.98zm-12.43-21.43h4.16c2.94 0 4.29 1.53 4.29 4.53v3.43c0 1.96-.61 3.12-1.84 3.73v.12c1.22.61 1.84 1.78 1.84 3.79v8.39h-2.51v-8.33c0-2.08-.67-2.69-2.45-2.69H745v11.02h-2.51v-23.99zm3.86 10.84c1.59 0 2.08-.61 2.08-2.69v-3.31c0-2.08-.49-2.69-2.08-2.69H745v8.69h1.35zM783.82 347.78H775v-5.46h23.94v5.46h-8.82v66.99h-6.3v-66.99zM805.03 342.32h11.65c8.4 0 12.39 4.3 12.39 13.12v9.24c0 5.88-1.89 9.45-5.67 11.13v.21c3.78 1.68 5.67 5.25 5.67 11.23v27.51h-6.3v-27.09c0-6.72-1.89-8.71-7.88-8.71h-3.57v35.8h-6.3v-72.44zm10.92 31.18c5.25 0 6.82-1.99 6.82-8.71v-8.29c0-6.72-1.58-8.71-6.82-8.71h-4.62v25.72h4.62zM837.16 342.32h20.79v5.46h-14.49v25.3h12.6v5.46h-12.6v30.76h14.49v5.46h-20.79v-72.44zM871.49 342.32h8.29l9.13 72.45h-6.4l-2.1-17.95h-9.87l-2.1 17.95h-6.09l9.14-72.45zm8.3 49.03l-4.2-39.06h-.21l-4.2 39.06h8.61zM897.85 347.78h-8.82v-5.46h23.94v5.46h-8.82v66.99h-6.3v-66.99zM919.06 342.32h9.97l8.08 53.44h.21l8.08-53.44h10.39v72.45h-6.3v-64.78h-.21l-9.76 64.78h-4.93l-9.76-64.78h-.21v64.78h-5.56v-72.45zM964.42 342.32h20.79v5.46h-14.49v25.3h12.6v5.46h-12.6v30.76h14.49v5.46h-20.79v-72.44zM991.72 342.32h8.19l11.45 53.02h.21v-53.02h5.67v72.45h-6.82l-12.81-59.74h-.21v59.74h-5.67v-72.45zM1032.14 347.78h-8.82v-5.46h23.94v5.46h-8.82v66.99h-6.3v-66.99zM1047.05 406.16h7.03v8.61h-7.03v-8.61zM1060.05 347.6l-5.26 3.31-1.41-2.33 5.51-2.94-5.51-2.88 1.41-2.33 5.26 3.31-.31-6.18h2.75l-.31 6.18 5.27-3.31 1.41 2.33-5.51 2.94 5.51 2.88-1.41 2.33-5.27-3.31.31 6.18h-2.75l.31-6.18z"/></svg>