<svg id="Layer_1" xmlns="http://www.w3.org/2000/svg" viewBox="0 0 1940 500"><style>.st0{fill:#00a9e0}</style><path class="st0" d="M81.2 149.78h-8.82v-5.46h23.94v5.46H87.5v66.99h-6.3v-66.99zM105.56 144.32h8.29l9.13 72.45h-6.4l-2.1-17.95h-9.87l-2.1 17.95h-6.09l9.14-72.45zm8.29 49.03l-4.2-39.06h-.21l-4.2 39.06h8.61zM129.18 144.32h6.3v66.99h13.44v5.46h-19.74v-72.45zM174.96 216.77l-13.44-36.54h-.21v36.54h-6.3v-72.45h6.3v33.81h.21l13.12-33.81h6.4l-13.54 34.54 14.17 37.9h-6.71zM207.72 149.78h-8.82v-5.46h23.94v5.46h-8.82v66.99h-6.3v-66.99zM227.67 204.69v-48.3c0-8.4 4.52-13.12 12.18-13.12s12.18 4.73 12.18 13.12v48.3c0 8.4-4.51 13.12-12.18 13.12s-12.18-4.72-12.18-13.12zm18.06-1.05v-46.2c0-6.09-1.68-8.5-5.88-8.5-4.31 0-5.88 2.42-5.88 8.5v46.2c0 6.09 1.57 8.5 5.88 8.5 4.2.01 5.88-2.41 5.88-8.5zM281.43 182.96l-10.19-38.64h6.51l6.93 28.66h.21l6.93-28.66h6.09l-10.18 38.64v33.81h-6.3v-33.81zM301.9 204.69v-48.3c0-8.4 4.52-13.12 12.18-13.12s12.18 4.73 12.18 13.12v48.3c0 8.4-4.51 13.12-12.18 13.12s-12.18-4.72-12.18-13.12zm18.06-1.05v-46.2c0-6.09-1.68-8.5-5.88-8.5-4.31 0-5.88 2.42-5.88 8.5v46.2c0 6.09 1.57 8.5 5.88 8.5 4.2.01 5.88-2.41 5.88-8.5zM334.24 205.11v-60.79h6.3v59.64c0 5.88 1.47 8.19 5.67 8.19s5.67-2.31 5.67-8.19v-59.64h6.09v60.79c0 8.08-4.41 12.7-11.86 12.7s-11.87-4.61-11.87-12.7zM366.37 144.32h11.65c8.4 0 12.39 4.31 12.39 13.12v9.24c0 5.88-1.89 9.45-5.67 11.13v.21c3.78 1.68 5.67 5.25 5.67 11.23v27.51h-6.3v-27.09c0-6.72-1.89-8.71-7.88-8.71h-3.57v35.8h-6.3v-72.44zm10.92 31.18c5.25 0 6.82-2 6.82-8.71v-8.29c0-6.72-1.58-8.71-6.82-8.71h-4.62v25.72h4.62zM412.15 144.32h11.97c8.4 0 12.39 4.31 12.39 13.12v11.34c0 8.82-3.99 13.12-12.39 13.12h-5.67v34.86h-6.3v-72.44zm11.23 32.13c5.25 0 6.82-2 6.82-8.71v-9.24c0-6.72-1.58-8.71-6.82-8.71h-4.94v26.67h4.94zM443.33 144.32h11.65c8.4 0 12.39 4.31 12.39 13.12v9.24c0 5.88-1.89 9.45-5.67 11.13v.21c3.78 1.68 5.67 5.25 5.67 11.23v27.51h-6.3v-27.09c0-6.72-1.89-8.71-7.88-8.71h-3.57v35.8h-6.3v-72.44zm10.92 31.18c5.25 0 6.82-2 6.82-8.71v-8.29c0-6.72-1.58-8.71-6.82-8.71h-4.62v25.72h4.62zM475.04 204.69v-48.3c0-8.4 4.52-13.12 12.18-13.12s12.18 4.73 12.18 13.12v48.3c0 8.4-4.51 13.12-12.18 13.12s-12.18-4.72-12.18-13.12zm18.06-1.05v-46.2c0-6.09-1.68-8.5-5.88-8.5-4.31 0-5.88 2.42-5.88 8.5v46.2c0 6.09 1.57 8.5 5.88 8.5 4.2.01 5.88-2.41 5.88-8.5zM504.97 144.32h6.4l6.61 60.9h.21l6.61-60.9h5.98l-8.71 72.45h-8.4l-8.7-72.45zM537.1 144.32h6.3v72.45h-6.3v-72.45zM552.01 144.32h11.97c8.4 0 12.39 4.31 12.39 13.12v46.2c0 8.82-3.99 13.12-12.39 13.12h-11.97v-72.44zm11.23 66.99c5.25 0 6.82-1.99 6.82-8.71v-44.1c0-6.72-1.58-8.71-6.82-8.71h-4.94v61.53h4.94zM584.45 144.32h20.79v5.46h-14.49v25.3h12.6v5.46h-12.6v30.76h14.49v5.46h-20.79v-72.44zM611.75 144.32h11.65c8.4 0 12.39 4.31 12.39 13.12v9.24c0 5.88-1.89 9.45-5.67 11.13v.21c3.78 1.68 5.67 5.25 5.67 11.23v27.51h-6.3v-27.09c0-6.72-1.89-8.71-7.88-8.71h-3.57v35.8h-6.3v-72.44zm10.92 31.18c5.25 0 6.82-2 6.82-8.71v-8.29c0-6.72-1.58-8.71-6.82-8.71h-4.62v25.72h4.62zM664.25 144.32h8.29l9.13 72.45h-6.4l-2.1-17.95h-9.87l-2.1 17.95h-6.09l9.14-72.45zm8.29 49.03l-4.2-39.06h-.21l-4.2 39.06h8.61zM687.87 144.32h11.65c8.4 0 12.39 4.31 12.39 13.12v8.71c0 5.88-1.78 9.45-5.46 11.13v.21c3.99 1.68 5.88 5.25 5.88 11.34v14.8c0 8.82-3.99 13.12-12.39 13.12h-12.07v-72.43zm10.92 30.76c5.25 0 6.82-2 6.82-8.61v-7.98c0-6.72-1.58-8.71-6.82-8.71h-4.62v25.3h4.62zm.42 36.23c5.25 0 6.82-1.99 6.82-8.71v-13.33c0-6.72-1.58-8.71-6.82-8.71h-5.04v30.76h5.04zM719.58 204.69v-48.3c0-8.4 4.51-13.12 12.18-13.12 7.66 0 12.18 4.73 12.18 13.12v48.3c0 8.4-4.51 13.12-12.18 13.12-7.66.01-12.18-4.72-12.18-13.12zm18.06-1.05v-46.2c0-6.09-1.68-8.5-5.88-8.5-4.3 0-5.88 2.42-5.88 8.5v46.2c0 6.09 1.58 8.5 5.88 8.5 4.2.01 5.88-2.41 5.88-8.5zM751.92 205.11v-60.79h6.3v59.64c0 5.88 1.47 8.19 5.67 8.19s5.67-2.31 5.67-8.19v-59.64h6.09v60.79c0 8.08-4.41 12.7-11.86 12.7s-11.87-4.61-11.87-12.7zM790.35 149.78h-8.82v-5.46h23.94v5.46h-8.82v66.99h-6.3v-66.99zM81.62 239.32h8.29l9.13 72.45h-6.4l-2.1-17.95h-9.87l-2.1 17.95h-6.09l9.14-72.45zm8.29 49.03l-4.2-39.06h-.21l-4.2 39.06h8.61zM118.89 239.32h11.97c8.4 0 12.39 4.31 12.39 13.12v11.34c0 8.82-3.99 13.12-12.39 13.12h-5.67v34.86h-6.3v-72.44zm11.23 32.13c5.25 0 6.82-2 6.82-8.71v-9.24c0-6.72-1.58-8.71-6.82-8.71h-4.94v26.67h4.94zM150.07 239.32h20.79v5.46h-14.49v25.3h12.6v5.46h-12.6v30.76h14.49v5.46h-20.79v-72.44zM177.37 239.32h11.65c8.4 0 12.39 4.31 12.39 13.12v9.24c0 5.88-1.89 9.45-5.67 11.13v.21c3.78 1.68 5.67 5.25 5.67 11.23v27.51h-6.3v-27.09c0-6.72-1.89-8.71-7.88-8.71h-3.57v35.8h-6.3v-72.44zm10.92 31.18c5.25 0 6.82-2 6.82-8.71v-8.29c0-6.72-1.58-8.71-6.82-8.71h-4.62v25.72h4.62zM208.35 299.9v-12.7h6.09v11.55c0 5.98 1.68 8.4 5.88 8.4 4.3 0 5.98-2.42 5.98-8.4v-10.92c0-4.94-1.36-7.35-4.93-9.66l-5.56-3.57c-5.35-3.46-7.45-7.45-7.45-14.49v-9.35c0-7.98 4.3-12.49 11.76-12.49s11.76 4.51 11.76 12.49v9.35h-6.09v-8.29c0-5.67-1.57-7.88-5.56-7.88-3.99 0-5.56 2.2-5.56 7.88v7.87c0 4.93 1.36 7.35 4.93 9.66l5.56 3.57c5.35 3.46 7.45 7.46 7.45 14.49v12.49c0 8.29-4.51 12.91-12.18 12.91-7.67.01-12.08-4.61-12.08-12.91zM239.43 299.69v-48.3c0-8.4 4.52-13.12 12.18-13.12s12.18 4.73 12.18 13.12v48.3c0 8.4-4.51 13.12-12.18 13.12s-12.18-4.72-12.18-13.12zm18.06-1.05v-46.2c0-6.09-1.68-8.5-5.88-8.5-4.31 0-5.88 2.42-5.88 8.5v46.2c0 6.09 1.57 8.5 5.88 8.5 4.2.01 5.88-2.41 5.88-8.5zM271.98 239.32h8.19l11.44 53.02h.21v-53.02h5.67v72.45h-6.82l-12.81-59.74h-.21v59.74h-5.67v-72.45zM312.82 239.32h8.29l9.13 72.45h-6.4l-2.1-17.95h-9.87l-2.1 17.95h-6.09l9.14-72.45zm8.3 49.03l-4.2-39.06h-.21l-4.2 39.06h8.61zM336.45 239.32h6.3v66.99h13.44v5.46h-19.74v-72.45zM362.27 239.32h6.3v72.45h-6.3v-72.45zM374.87 306.83l17.11-62.05h-16.06v-5.46h22.68v4.94l-17.11 62.05h17.11v5.46h-23.73v-4.94zM405.01 239.32h20.79v5.46h-14.49v25.3h12.6v5.46h-12.6v30.76h14.49v5.46h-20.79v-72.44zM432.31 239.32h11.97c8.4 0 12.39 4.31 12.39 13.12v46.2c0 8.82-3.99 13.12-12.39 13.12h-11.97v-72.44zm11.23 66.99c5.25 0 6.82-2 6.82-8.71v-44.1c0-6.72-1.58-8.71-6.82-8.71h-4.94v61.53h4.94zM484.7 244.78h-8.82v-5.46h23.94v5.46H491v66.99h-6.3v-66.99zM505.91 239.32h11.65c8.4 0 12.39 4.31 12.39 13.12v9.24c0 5.88-1.89 9.45-5.67 11.13v.21c3.78 1.68 5.67 5.25 5.67 11.23v27.51h-6.3v-27.09c0-6.72-1.89-8.71-7.88-8.71h-3.57v35.8h-6.3v-72.44zm10.92 31.18c5.25 0 6.82-2 6.82-8.71v-8.29c0-6.72-1.58-8.71-6.82-8.71h-4.62v25.72h4.62zM538.04 239.32h20.79v5.46h-14.49v25.3h12.6v5.46h-12.6v30.76h14.49v5.46h-20.79v-72.44zM572.37 239.32h8.29l9.13 72.45h-6.4l-2.1-17.95h-9.87l-2.1 17.95h-6.09l9.14-72.45zm8.3 49.03l-4.2-39.06h-.21l-4.2 39.06h8.61zM598.73 244.78h-8.82v-5.46h23.94v5.46h-8.82v66.99h-6.3v-66.99zM619.94 239.32h9.97l8.08 53.44h.21l8.08-53.44h10.39v72.45h-6.3v-64.78h-.21l-9.76 64.78h-4.93l-9.76-64.78h-.21v64.78h-5.56v-72.45zM665.29 239.32h20.79v5.46h-14.49v25.3h12.6v5.46h-12.6v30.76h14.49v5.46h-20.79v-72.44zM692.59 239.32h8.19l11.44 53.02h.21v-53.02h5.67v72.45h-6.82l-12.81-59.74h-.21v59.74h-5.67v-72.45zM733.02 244.78h-8.82v-5.46h23.94v5.46h-8.82v66.99h-6.3v-66.99zM767.88 239.32h11.97c8.4 0 12.39 4.31 12.39 13.12v11.34c0 8.82-3.99 13.12-12.39 13.12h-5.67v34.86h-6.3v-72.44zm11.23 32.13c5.25 0 6.82-2 6.82-8.71v-9.24c0-6.72-1.58-8.71-6.82-8.71h-4.94v26.67h4.94zM799.06 239.32h6.3v66.99h13.44v5.46h-19.74v-72.45zM831.92 239.32h8.29l9.13 72.45h-6.4l-2.1-17.95h-9.87l-2.1 17.95h-6.09l9.14-72.45zm8.3 49.03l-4.2-39.06h-.21l-4.2 39.06h8.61zM855.55 239.32h8.19l11.44 53.02h.21v-53.02h5.67v72.45h-6.82l-12.81-59.74h-.21v59.74h-5.67v-72.45zM889.67 303.16h7.03v8.61h-7.03v-8.61z"/></svg>