<svg id="Layer_1" xmlns="http://www.w3.org/2000/svg" viewBox="0 0 970 250"><style>.st0{fill:#b7d7e8}.st1{fill:#00abe6}</style><path class="st0" d="M47.14 80.96v21.35c0 3.46-1.87 5.42-5.14 5.42-3.23 0-5.1-1.96-5.1-5.42v-3.05h2.59v2.55c0 2.55.73 3.55 2.46 3.55s2.5-1 2.5-3.55v-8.65h-.09c-.77 1.18-1.91 1.78-3.46 1.78-2.59 0-4.1-1.78-4.1-4.82v-9.15c0-3.55 1.87-5.55 5.14-5.55 3.29-.01 5.2 1.99 5.2 5.54zm-7.64.37v8.51c0 1.87.68 2.73 2.09 2.73 1.77 0 2.87-1.46 2.87-3.91v-7.33c0-2.55-.73-3.55-2.5-3.55-1.78 0-2.46 1-2.46 3.55zM56.43 102.04V81.1c0-3.64 1.96-5.69 5.28-5.69 3.32 0 5.28 2.05 5.28 5.69v20.94c0 3.64-1.96 5.69-5.28 5.69-3.32 0-5.28-2.05-5.28-5.69zm7.83-.46V81.55c0-2.64-.73-3.69-2.55-3.69-1.87 0-2.55 1.05-2.55 3.69v20.03c0 2.64.68 3.69 2.55 3.69 1.82 0 2.55-1.05 2.55-3.69zM70.45 102.22V75.86h2.73v25.85c0 2.55.64 3.55 2.46 3.55 1.82 0 2.46-1 2.46-3.55V75.86h2.64v26.35c0 3.5-1.91 5.51-5.14 5.51-3.24.01-5.15-2-5.15-5.5zM87.11 78.23h-3.82v-2.37h10.38v2.37h-3.82v29.04h-2.73V78.23zM102.03 102.04V81.1c0-3.64 1.96-5.69 5.28-5.69 3.32 0 5.28 2.05 5.28 5.69v20.94c0 3.64-1.96 5.69-5.28 5.69-3.32 0-5.28-2.05-5.28-5.69zm7.83-.46V81.55c0-2.64-.73-3.69-2.55-3.69-1.87 0-2.55 1.05-2.55 3.69v20.03c0 2.64.68 3.69 2.55 3.69 1.82 0 2.55-1.05 2.55-3.69zM116.14 75.86h9.01v2.37h-6.28v11.42h5.46v2.37h-5.46v15.25h-2.73V75.86zM136.62 78.96l-4.01 2.46v-2.55l5.01-3.09h1.68v31.5h-2.69V78.96zM142.86 102.17V80.96c0-3.55 1.87-5.55 5.14-5.55s5.14 2 5.14 5.55v21.21c0 3.55-1.87 5.55-5.14 5.55s-5.14-2-5.14-5.55zm7.6-.36V81.33c0-2.55-.68-3.55-2.46-3.55-1.78 0-2.46 1-2.46 3.55v20.48c0 2.55.68 3.55 2.46 3.55 1.78 0 2.46-1 2.46-3.55z"/><path class="st1" d="M162.61 75.86h5.19c3.64 0 5.37 1.87 5.37 5.69v4.92c0 3.82-1.73 5.69-5.37 5.69h-2.46v15.11h-2.73V75.86zm4.87 13.93c2.28 0 2.96-.86 2.96-3.78V82c0-2.91-.68-3.78-2.96-3.78h-2.14v11.56h2.14zM177.68 75.86h3.6l3.96 31.41h-2.78l-.91-7.78h-4.28l-.91 7.78h-2.64l3.96-31.41zm3.59 21.26l-1.82-16.93h-.09l-1.82 16.93h3.73zM189.1 78.23h-3.82v-2.37h10.38v2.37h-3.82v29.04h-2.73V78.23zM198.3 75.86h2.73v31.41h-2.73V75.86zM204.76 75.86h9.01v2.37h-6.28V89.2h5.46v2.37h-5.46v13.34h6.28v2.37h-9.01V75.86zM216.59 75.86h3.55l4.96 22.99h.09V75.86h2.46v31.41h-2.96l-5.55-25.9h-.09v25.9h-2.46V75.86zM234.12 78.23h-3.82v-2.37h10.38v2.37h-3.82v29.04h-2.73V78.23zM242.81 102.13v-5.51h2.64v5.01c0 2.59.73 3.64 2.55 3.64 1.87 0 2.59-1.05 2.59-3.64V96.9c0-2.14-.59-3.19-2.14-4.19l-2.41-1.55c-2.32-1.5-3.23-3.23-3.23-6.28v-4.05c0-3.46 1.87-5.42 5.1-5.42 3.23 0 5.1 1.96 5.1 5.42v4.05h-2.64v-3.6c0-2.46-.68-3.41-2.41-3.41s-2.41.96-2.41 3.41v3.41c0 2.14.59 3.19 2.14 4.19l2.41 1.55c2.32 1.5 3.23 3.23 3.23 6.28v5.42c0 3.6-1.96 5.6-5.28 5.6s-5.24-2.01-5.24-5.6zM262.38 75.86h5.05c3.64 0 5.37 1.87 5.37 5.69v4.01c0 2.55-.82 4.1-2.46 4.82v.09c1.64.73 2.46 2.28 2.46 4.87v11.93h-2.73V95.53c0-2.91-.82-3.78-3.41-3.78h-1.55v15.52h-2.73V75.86zm4.73 13.52c2.28 0 2.96-.86 2.96-3.78V82c0-2.91-.68-3.78-2.96-3.78h-2v11.15h2zM276.31 75.86h9.01v2.37h-6.28V89.2h5.46v2.37h-5.46v13.34h6.28v2.37h-9.01V75.86zM288.14 75.86h5.19c3.64 0 5.37 1.87 5.37 5.69v4.92c0 3.82-1.73 5.69-5.37 5.69h-2.46v15.11h-2.73V75.86zm4.87 13.93c2.28 0 2.96-.86 2.96-3.78V82c0-2.91-.68-3.78-2.96-3.78h-2.14v11.56h2.14zM301.48 102.04V81.1c0-3.64 1.96-5.69 5.28-5.69s5.28 2.05 5.28 5.69v20.94c0 3.64-1.96 5.69-5.28 5.69s-5.28-2.05-5.28-5.69zm7.83-.46V81.55c0-2.64-.73-3.69-2.55-3.69-1.87 0-2.55 1.05-2.55 3.69v20.03c0 2.64.68 3.69 2.55 3.69 1.82 0 2.55-1.05 2.55-3.69zM315.59 75.86h5.05c3.64 0 5.37 1.87 5.37 5.69v4.01c0 2.55-.82 4.1-2.46 4.82v.09c1.64.73 2.46 2.28 2.46 4.87v11.93h-2.73V95.53c0-2.91-.82-3.78-3.41-3.78h-1.55v15.52h-2.73V75.86zm4.73 13.52c2.28 0 2.96-.86 2.96-3.78V82c0-2.91-.68-3.78-2.96-3.78h-2v11.15h2zM332.2 78.23h-3.82v-2.37h10.38v2.37h-3.82v29.04h-2.73V78.23zM341.4 75.86h9.01v2.37h-6.28V89.2h5.46v2.37h-5.46v13.34h6.28v2.37h-9.01V75.86zM353.23 75.86h5.19c3.64 0 5.37 1.87 5.37 5.69v20.03c0 3.82-1.73 5.69-5.37 5.69h-5.19V75.86zm4.87 29.04c2.28 0 2.96-.87 2.96-3.78V82.01c0-2.91-.68-3.78-2.96-3.78h-2.14v26.67h2.14zM373.21 75.86h5.05c3.64 0 5.37 1.87 5.37 5.69v3.78c0 2.55-.77 4.1-2.37 4.82v.09c1.73.73 2.55 2.28 2.55 4.92v6.42c0 3.82-1.73 5.69-5.37 5.69h-5.23V75.86zm4.73 13.34c2.28 0 2.96-.86 2.96-3.73v-3.46c0-2.91-.68-3.78-2.96-3.78h-2V89.2h2zm.19 15.7c2.28 0 2.96-.87 2.96-3.78v-5.78c0-2.91-.68-3.78-2.96-3.78h-2.19v13.34h2.19zM387.14 75.86h9.01v2.37h-6.28V89.2h5.46v2.37h-5.46v13.34h6.28v2.37h-9.01V75.86zM398.97 75.86h2.73v31.41h-2.73V75.86zM405.44 75.86h3.55l4.96 22.99h.09V75.86h2.46v31.41h-2.96l-5.55-25.9h-.09v25.9h-2.46V75.86zM420.05 102.81V81.05c0-3.6 1.96-5.64 5.23-5.64 3.32 0 5.19 2.05 5.19 5.64v3.46h-2.59v-2.96c0-2.64-.73-3.69-2.55-3.69-1.87 0-2.55 1.05-2.55 3.69v20.94c0 1.87.68 2.78 2.19 2.78 1.87 0 2.91-1.41 2.91-3.96V92.3h-2.55v-2.37h5.28v17.34h-2.32v-2.23h-.14c-.73 1.73-2.05 2.69-3.91 2.69-2.65 0-4.19-1.87-4.19-4.92zM39.27 121.64h1.09v3.73h-3.1v-3.28l2-5.05h1.59l-1.58 4.6zm5.37 0h1.09v3.73h-3.1v-3.28l2-5.05h1.59l-1.58 4.6zM48.92 143.31v-5.51h2.64v5.01c0 2.59.73 3.64 2.55 3.64 1.87 0 2.59-1.05 2.59-3.64v-4.73c0-2.14-.59-3.19-2.14-4.19l-2.41-1.55c-2.32-1.5-3.23-3.23-3.23-6.28v-4.05c0-3.46 1.87-5.42 5.1-5.42 3.23 0 5.1 1.96 5.1 5.42v4.05h-2.64v-3.6c0-2.46-.68-3.41-2.41-3.41s-2.41.96-2.41 3.41v3.41c0 2.14.59 3.19 2.14 4.19l2.41 1.55c2.32 1.5 3.23 3.23 3.23 6.28v5.42c0 3.6-1.96 5.6-5.28 5.6s-5.24-2.01-5.24-5.6zM65.49 117.05h3.6l3.96 31.41h-2.78l-.91-7.78h-4.28l-.91 7.78h-2.64l3.96-31.41zm3.59 21.25l-1.82-16.93h-.09l-1.82 16.93h3.73zM76.91 119.41h-3.82v-2.37h10.38v2.37h-3.82v29.04h-2.73v-29.04zM86.1 117.05h2.73v31.41H86.1v-31.41zM92.07 143.31v-5.51h2.64v5.01c0 2.59.73 3.64 2.55 3.64 1.87 0 2.59-1.05 2.59-3.64v-4.73c0-2.14-.59-3.19-2.14-4.19l-2.41-1.55c-2.32-1.5-3.23-3.23-3.23-6.28v-4.05c0-3.46 1.87-5.42 5.1-5.42 3.23 0 5.1 1.96 5.1 5.42v4.05h-2.64v-3.6c0-2.46-.68-3.41-2.41-3.41s-2.41.96-2.41 3.41v3.41c0 2.14.59 3.19 2.14 4.19l2.41 1.55c2.32 1.5 3.23 3.23 3.23 6.28v5.42c0 3.6-1.96 5.6-5.28 5.6s-5.24-2.01-5.24-5.6zM105.72 117.05h9.01v2.37h-6.28v11.42h5.46v2.37h-5.46v15.25h-2.73v-31.41zM117.37 117.05h2.73v31.41h-2.73v-31.41zM123.84 117.05h9.01v2.37h-6.28v10.97h5.46v2.37h-5.46v13.34h6.28v2.37h-9.01v-31.42zM135.67 117.05h5.19c3.64 0 5.37 1.87 5.37 5.69v20.03c0 3.82-1.73 5.69-5.37 5.69h-5.19v-31.41zm4.87 29.03c2.28 0 2.96-.86 2.96-3.78v-19.12c0-2.91-.68-3.78-2.96-3.78h-2.14v26.67h2.14zM150.78 120.78h-1.09v-3.73h3.1v3.28l-2 5.05h-1.59l1.58-4.6zm5.37 0h-1.09v-3.73h3.09v3.28l-2 5.05h-1.59l1.59-4.6zM167.62 143.22v-20.94c0-3.64 1.96-5.69 5.28-5.69 3.32 0 5.28 2.05 5.28 5.69v20.94c0 3.64-1.96 5.69-5.28 5.69-3.32 0-5.28-2.05-5.28-5.69zm7.83-.46v-20.03c0-2.64-.73-3.69-2.55-3.69-1.87 0-2.55 1.05-2.55 3.69v20.03c0 2.64.68 3.69 2.55 3.69 1.82 0 2.55-1.05 2.55-3.69zM181.73 117.05h5.05c3.64 0 5.37 1.87 5.37 5.69v4.01c0 2.55-.82 4.1-2.46 4.83v.09c1.64.73 2.46 2.28 2.46 4.87v11.93h-2.73v-11.74c0-2.91-.82-3.78-3.41-3.78h-1.55v15.52h-2.73v-31.42zm4.73 13.51c2.28 0 2.96-.87 2.96-3.78v-3.6c0-2.91-.68-3.78-2.96-3.78h-2v11.15h2zM203.58 121.64h1.09v3.73h-3.1v-3.28l2-5.05h1.59l-1.58 4.6zm5.37 0h1.09v3.73h-3.1v-3.28l2-5.05h1.59l-1.58 4.6zM213.18 117.05h2.78l2.87 26.4h.09l2.87-26.4h2.59l-3.78 31.41h-3.64l-3.78-31.41zM227.11 117.05h9.01v2.37h-6.28v10.97h5.46v2.37h-5.46v13.34h6.28v2.37h-9.01v-31.42zM238.94 117.05H244c3.64 0 5.37 1.87 5.37 5.69v4.01c0 2.55-.82 4.1-2.46 4.83v.09c1.64.73 2.46 2.28 2.46 4.87v11.93h-2.73v-11.74c0-2.91-.82-3.78-3.41-3.78h-1.55v15.52h-2.73v-31.42zm4.74 13.51c2.28 0 2.96-.87 2.96-3.78v-3.6c0-2.91-.68-3.78-2.96-3.78h-2v11.15h2zM255.6 133.8l-4.42-16.75H254l3 12.43h.09l3-12.43h2.64l-4.42 16.75v14.66h-2.73V133.8zM270.76 143.31v-5.51h2.64v5.01c0 2.59.73 3.64 2.55 3.64 1.87 0 2.59-1.05 2.59-3.64v-4.73c0-2.14-.59-3.19-2.14-4.19l-2.41-1.55c-2.32-1.5-3.23-3.23-3.23-6.28v-4.05c0-3.46 1.87-5.42 5.1-5.42 3.23 0 5.1 1.96 5.1 5.42v4.05h-2.64v-3.6c0-2.46-.68-3.41-2.41-3.41s-2.41.96-2.41 3.41v3.41c0 2.14.59 3.19 2.14 4.19l2.41 1.55c2.32 1.5 3.23 3.23 3.23 6.28v5.42c0 3.6-1.96 5.6-5.28 5.6s-5.24-2.01-5.24-5.6zM287.33 117.05h3.6l3.96 31.41h-2.78l-.91-7.78h-4.28l-.91 7.78h-2.64l3.96-31.41zm3.59 21.25l-1.82-16.93h-.09l-1.82 16.93h3.73zM298.75 119.41h-3.82v-2.37h10.38v2.37h-3.82v29.04h-2.73v-29.04zM307.94 117.05h2.73v31.41h-2.73v-31.41zM313.91 143.31v-5.51h2.64v5.01c0 2.59.73 3.64 2.55 3.64 1.87 0 2.59-1.05 2.59-3.64v-4.73c0-2.14-.59-3.19-2.14-4.19l-2.41-1.55c-2.32-1.5-3.23-3.23-3.23-6.28v-4.05c0-3.46 1.87-5.42 5.1-5.42 3.23 0 5.1 1.96 5.1 5.42v4.05h-2.64v-3.6c0-2.46-.68-3.41-2.41-3.41s-2.41.96-2.41 3.41v3.41c0 2.14.59 3.19 2.14 4.19l2.41 1.55c2.32 1.5 3.23 3.23 3.23 6.28v5.42c0 3.6-1.96 5.6-5.28 5.6s-5.24-2.01-5.24-5.6zM327.56 117.05h9.01v2.37h-6.28v11.42h5.46v2.37h-5.46v15.25h-2.73v-31.41zM339.21 117.05h2.73v31.41h-2.73v-31.41zM345.67 117.05h9.01v2.37h-6.28v10.97h5.46v2.37h-5.46v13.34h6.28v2.37h-9.01v-31.42zM357.51 117.05h5.19c3.64 0 5.37 1.87 5.37 5.69v20.03c0 3.82-1.73 5.69-5.37 5.69h-5.19v-31.41zm4.87 29.03c2.28 0 2.96-.86 2.96-3.78v-19.12c0-2.91-.68-3.78-2.96-3.78h-2.14v26.67h2.14zM372.62 120.78h-1.09v-3.73h3.1v3.28l-2 5.05h-1.59l1.58-4.6zm5.37 0h-1.09v-3.73h3.09v3.28l-2 5.05h-1.59l1.59-4.6zM383.27 117.05h2.78l2.37 25.44h.09l2.73-25.44h2.73l2.73 25.44h.09l2.37-25.44h2.55l-3.41 31.41h-3.14l-2.55-23.44h-.09l-2.55 23.44h-3.28l-3.42-31.41zM404.43 117.05h2.73v31.41h-2.73v-31.41zM413.63 119.41h-3.82v-2.37h10.38v2.37h-3.82v29.04h-2.73v-29.04zM422.82 117.05h2.73v13.34h5.14v-13.34h2.73v31.41h-2.73v-15.7h-5.14v15.7h-2.73v-31.41zM40 160.59h-3.82v-2.37h10.38v2.37h-3.82v29.04H40v-29.04zM49.19 158.23h2.73v13.34h5.14v-13.34h2.73v31.41h-2.73v-15.7h-5.14v15.7h-2.73v-31.41zM63.53 158.23h9.01v2.37h-6.28v10.97h5.46v2.37h-5.46v13.34h6.28v2.37h-9.01v-31.42zM75.36 158.23h2.73v31.41h-2.73v-31.41zM81.83 158.23h5.05c3.64 0 5.37 1.87 5.37 5.69v4c0 2.55-.82 4.1-2.46 4.83v.09c1.64.73 2.46 2.28 2.46 4.87v11.93h-2.73V177.9c0-2.91-.82-3.78-3.41-3.78h-1.55v15.52h-2.73v-31.41zm4.73 13.52c2.28 0 2.96-.87 2.96-3.78v-3.6c0-2.91-.68-3.78-2.96-3.78h-2v11.15h2zM101.49 184.67v-21.48c0-3.46 1.82-5.42 5.1-5.42 3.32 0 5.14 1.96 5.14 5.42v5.14h-2.59v-4.69c0-2.46-.73-3.41-2.46-3.41-1.78 0-2.46.96-2.46 3.41v20.57c0 2.46.68 3.41 2.46 3.41 1.73 0 2.46-.96 2.46-3.41v-6.33h2.59v6.78c0 3.46-1.82 5.42-5.14 5.42-3.28.01-5.1-1.95-5.1-5.41zM114.78 184.4v-20.94c0-3.64 1.96-5.69 5.28-5.69s5.28 2.05 5.28 5.69v20.94c0 3.64-1.96 5.69-5.28 5.69s-5.28-2.05-5.28-5.69zm7.83-.46v-20.03c0-2.64-.73-3.69-2.55-3.69-1.87 0-2.55 1.05-2.55 3.69v20.03c0 2.64.68 3.69 2.55 3.69 1.82 0 2.55-1.05 2.55-3.69zM128.71 184.4v-20.94c0-3.64 1.96-5.69 5.28-5.69s5.28 2.05 5.28 5.69v20.94c0 3.64-1.96 5.69-5.28 5.69s-5.28-2.05-5.28-5.69zm7.83-.46v-20.03c0-2.64-.73-3.69-2.55-3.69-1.87 0-2.55 1.05-2.55 3.69v20.03c0 2.64.68 3.69 2.55 3.69 1.82 0 2.55-1.05 2.55-3.69zM142.82 158.23h2.73v29.04h5.83v2.37h-8.56v-31.41zM153.51 184.49v-5.51h2.64v5.01c0 2.59.73 3.64 2.55 3.64 1.87 0 2.59-1.05 2.59-3.64v-4.73c0-2.14-.59-3.19-2.14-4.19l-2.41-1.55c-2.32-1.5-3.23-3.23-3.23-6.28v-4.05c0-3.46 1.87-5.42 5.1-5.42 3.23 0 5.1 1.96 5.1 5.42v4.05h-2.64v-3.6c0-2.46-.68-3.41-2.41-3.41s-2.41.96-2.41 3.41v3.41c0 2.14.59 3.19 2.14 4.19l2.41 1.55c2.32 1.5 3.23 3.23 3.23 6.28v5.42c0 3.6-1.96 5.6-5.28 5.6s-5.24-2-5.24-5.6zM166.98 184.67v-21.48c0-3.46 1.82-5.42 5.1-5.42 3.32 0 5.14 1.96 5.14 5.42v5.14h-2.59v-4.69c0-2.46-.73-3.41-2.46-3.41-1.77 0-2.46.96-2.46 3.41v20.57c0 2.46.68 3.41 2.46 3.41 1.73 0 2.46-.96 2.46-3.41v-6.33h2.59v6.78c0 3.46-1.82 5.42-5.14 5.42-3.28.01-5.1-1.95-5.1-5.41zM180.37 184.58v-26.35h2.73v25.85c0 2.55.64 3.55 2.46 3.55 1.82 0 2.46-1 2.46-3.55v-25.85h2.64v26.35c0 3.5-1.91 5.51-5.14 5.51-3.24 0-5.15-2-5.15-5.51zM194.29 158.23h2.73v29.04h5.83v2.37h-8.56v-31.41zM205.49 158.23h5.19c3.64 0 5.37 1.87 5.37 5.69v4.92c0 3.82-1.73 5.69-5.37 5.69h-2.46v15.11h-2.73v-31.41zm4.87 13.93c2.28 0 2.96-.87 2.96-3.78v-4c0-2.91-.68-3.78-2.96-3.78h-2.14v11.56h2.14zM221.74 160.59h-3.82v-2.37h10.38v2.37h-3.82v29.04h-2.73v-29.04zM230.93 158.23h2.73v31.41h-2.73v-31.41zM237.4 158.23h3.55l4.96 22.99h.09v-22.99h2.46v31.41h-2.96l-5.55-25.9h-.09v25.9h-2.46v-31.41zM252.01 185.17v-21.76c0-3.6 1.96-5.64 5.23-5.64 3.32 0 5.19 2.05 5.19 5.64v3.46h-2.59v-2.96c0-2.64-.73-3.69-2.55-3.69-1.87 0-2.55 1.05-2.55 3.69v20.94c0 1.87.68 2.78 2.19 2.78 1.87 0 2.91-1.41 2.91-3.96v-9.01h-2.55v-2.37h5.28v17.34h-2.32v-2.23h-.14c-.73 1.73-2.05 2.69-3.91 2.69-2.65 0-4.19-1.87-4.19-4.92zM269.04 158.02c.82 0 1.63.21 2.41.63s1.4 1.03 1.83 1.82c.44.79.66 1.61.66 2.46 0 .85-.22 1.66-.65 2.44-.43.78-1.04 1.39-1.81 1.82s-1.59.65-2.44.65c-.85 0-1.66-.22-2.44-.65s-1.38-1.04-1.82-1.82-.65-1.59-.65-2.44c0-.85.22-1.67.66-2.46.44-.79 1.05-1.39 1.84-1.82.78-.42 1.59-.63 2.41-.63zm0 .82c-.69 0-1.36.18-2.01.53-.65.35-1.16.86-1.53 1.52s-.55 1.34-.55 2.05c0 .71.18 1.38.54 2.03.36.65.87 1.15 1.52 1.51.65.36 1.33.54 2.04.54s1.39-.18 2.04-.54c.65-.36 1.16-.87 1.52-1.51.36-.65.54-1.33.54-2.03 0-.71-.18-1.39-.55-2.05s-.88-1.16-1.53-1.52c-.67-.36-1.34-.53-2.03-.53zm-2.15 6.81v-5.28h1.81c.62 0 1.07.05 1.35.15.28.1.5.27.66.51.16.24.25.5.25.77 0 .39-.14.72-.41 1.01s-.64.45-1.1.48c.19.08.34.17.45.28.21.21.47.56.78 1.05l.64 1.03h-1.04l-.47-.83c-.37-.65-.67-1.06-.89-1.23-.16-.12-.38-.18-.68-.18h-.5v2.24h-.85zm.85-2.98h1.03c.49 0 .83-.07 1.01-.22.18-.15.27-.34.27-.58 0-.16-.04-.3-.13-.42a.839.839 0 0 0-.36-.28c-.15-.06-.44-.09-.86-.09h-.97v1.59zM284.44 160.59h-3.82v-2.37H291v2.37h-3.82v29.04h-2.73v-29.04zM293.63 158.23h5.05c3.64 0 5.37 1.87 5.37 5.69v4c0 2.55-.82 4.1-2.46 4.83v.09c1.64.73 2.46 2.28 2.46 4.87v11.93h-2.73V177.9c0-2.91-.82-3.78-3.41-3.78h-1.55v15.52h-2.73v-31.41zm4.74 13.52c2.28 0 2.96-.87 2.96-3.78v-3.6c0-2.91-.68-3.78-2.96-3.78h-2v11.15h2zM307.56 158.23h9.01v2.37h-6.28v10.97h5.46v2.37h-5.46v13.34h6.28v2.37h-9.01v-31.42zM322.45 158.23h3.6l3.96 31.41h-2.78l-.91-7.78h-4.28l-.91 7.78h-2.64l3.96-31.41zm3.59 21.25l-1.82-16.93h-.09l-1.82 16.93h3.73zM333.87 160.59h-3.82v-2.37h10.38v2.37h-3.82v29.04h-2.73v-29.04zM343.06 158.23h4.32l3.5 23.17h.09l3.5-23.17h4.51v31.41h-2.73v-28.08h-.09l-4.23 28.08h-2.14l-4.23-28.08h-.09v28.08h-2.41v-31.41zM362.73 158.23h9.01v2.37h-6.28v10.97h5.46v2.37h-5.46v13.34h6.28v2.37h-9.01v-31.42zM374.56 158.23h3.55l4.96 22.99h.09v-22.99h2.46v31.41h-2.96l-5.55-25.9h-.09v25.9h-2.46v-31.41zM392.08 160.59h-3.82v-2.37h10.38v2.37h-3.82v29.04h-2.73v-29.04zM398.55 185.9h3.05v3.73h-3.05v-3.73zM404.18 160.52l-2.28 1.43-.61-1.01 2.39-1.27-2.39-1.25.61-1.01 2.28 1.43-.13-2.68h1.19l-.13 2.68 2.28-1.43.61 1.01-2.39 1.27 2.39 1.25-.61 1.01-2.28-1.43.13 2.68h-1.19l.13-2.68z"/></svg>