<svg id="Layer_1" xmlns="http://www.w3.org/2000/svg" viewBox="0 0 1940 500"><style>.st0{fill:#00a9e0}</style><path class="st0" d="M84.23 449.57l1.84 2.53-1.64 1.19-1.84-2.53-.84-1.61-.84 1.61-1.81 2.53-1.64-1.19 1.84-2.53 1.27-1.29-1.79-.32-2.96-.94.6-1.91 2.98.97 1.62.79-.25-1.79-.02-3.13h2.06l-.02 3.13-.27 1.81 1.64-.82 2.98-.97.6 1.91-2.96.94-1.81.32 1.26 1.3zM103.43 445.96h-5.61v14.11h-2.66v-14.11h-5.61v-2.29h13.89v2.29zM117.06 452.03v8.05h-2.66v-7.21c0-2.46-1.14-3.28-2.66-3.28-1.64 0-3.38 1.07-3.38 3.92v6.56h-2.66v-18.01h2.66v7.58c.82-1.54 2.29-2.24 4.02-2.24 2.65 0 4.68 1.52 4.68 4.63zM131.97 454.86h-9.09c.3 2.19 1.59 3.35 3.6 3.35 1.64 0 2.73-.6 3.13-1.69l2.21.92c-.89 1.84-2.61 2.88-5.34 2.88-3.92 0-6.23-2.41-6.23-6.46s2.19-6.46 6.06-6.46c3.73 0 5.76 2.48 5.76 6.09 0 .47-.05 1.04-.1 1.37zm-9.07-2.04h6.68c-.25-2.09-1.42-3.3-3.28-3.3-1.96 0-3.13 1.16-3.4 3.3zM155.38 453.84c0 4.07-2.14 6.48-5.51 6.48-1.84 0-3.25-.89-4-2.26v7.23h-2.66v-17.64h2.33l.12 2.29c.72-1.51 2.24-2.53 4.22-2.53 3.39-.01 5.5 2.38 5.5 6.43zm-2.65.02c0-2.71-1.29-4.32-3.43-4.32-2.09 0-3.43 1.56-3.43 4.17v.3c0 2.58 1.34 4.15 3.43 4.15 2.13 0 3.43-1.59 3.43-4.3zM166.48 447.65l-.42 2.43c-.35-.2-.89-.32-1.57-.32-1.49 0-3.13 1.19-3.13 3.73v6.58h-2.66v-12.42h2.26l.25 2.21c.67-1.61 1.99-2.46 3.9-2.46.51 0 1.03.08 1.37.25zM168.42 443.9c0-1.04.65-1.64 1.79-1.64s1.76.6 1.76 1.64-.62 1.66-1.76 1.66-1.79-.61-1.79-1.66zm3.1 16.17h-2.66v-12.42h2.66v12.42zM195.1 452.03v8.05h-2.66v-7.63c0-2.04-1.09-2.86-2.56-2.86-1.74 0-3.23 1.32-3.23 3.73v6.76h-2.66v-7.63c0-2.04-1.09-2.86-2.56-2.86-1.49 0-3.23 1.09-3.23 3.88v6.61h-2.66v-12.42h2.36l.12 2.06c.87-1.56 2.41-2.31 4.02-2.31 1.76 0 3.43.79 4.17 2.48.82-1.69 2.63-2.48 4.3-2.48 2.4-.01 4.61 1.46 4.59 4.62zM210.64 458.24l-.17 1.79c-.4.17-.92.3-1.54.3-1.34 0-2.26-.5-2.53-1.86-.77 1.19-2.36 1.86-4.2 1.86-2.33 0-4.05-1.09-4.05-3.25 0-1.91 1.59-3.33 4.84-3.9l3.15-.57v-.65c0-1.49-.92-2.46-2.53-2.46-1.54 0-2.68.67-3.21 2.24l-2.06-1.09c.6-1.96 2.51-3.23 5.22-3.23 3.1 0 5.24 1.42 5.24 4.4v5.61c0 .62.25.92.92.92.33-.02.65-.04.92-.11zm-4.49-2.29v-1.49l-2.71.55c-1.69.32-2.53.89-2.53 1.89 0 .92.7 1.42 1.86 1.42 1.66-.01 3.38-.88 3.38-2.37zM220.8 447.65l-.42 2.43c-.35-.2-.89-.32-1.57-.32-1.49 0-3.13 1.19-3.13 3.73v6.58h-2.66v-12.42h2.26l.25 2.21c.67-1.61 1.99-2.46 3.9-2.46.5 0 1.02.08 1.37.25zM228.92 461.54c-1.09 2.88-2.36 3.88-4.6 3.88-1.29 0-2.19-.3-2.93-.99l.77-2.04c.57.7 1.27.89 2.04.89.92 0 1.62-.35 2.16-1.79l.55-1.34-1.29-3.08-3.88-9.42h2.98l2.73 7.8.72 2.33.84-2.56 2.58-7.58h2.76l-5.43 13.9zM255.62 453.86c0 4.05-2.31 6.46-6.19 6.46-3.88 0-6.19-2.41-6.19-6.46s2.31-6.46 6.19-6.46c3.88 0 6.19 2.41 6.19 6.46zm-9.69 0c0 2.81 1.27 4.37 3.5 4.37 2.24 0 3.53-1.57 3.53-4.37s-1.29-4.37-3.53-4.37c-2.23 0-3.5 1.57-3.5 4.37zM271.07 453.89c0 4.05-2.11 6.43-5.49 6.43-1.99 0-3.5-1.02-4.22-2.53l-.12 2.29h-2.33v-18.01h2.66v7.6c.75-1.37 2.16-2.26 4-2.26 3.36-.01 5.5 2.4 5.5 6.48zm-2.66-.03c0-2.71-1.29-4.3-3.43-4.3-2.09 0-3.43 1.56-3.43 4.15v.3c0 2.61 1.34 4.17 3.43 4.17 2.14.01 3.43-1.61 3.43-4.32zM277.05 461.17c0 3.18-1.99 4.25-4.07 4.25-1.12 0-2.06-.32-2.73-.82l.47-2.14c.45.37 1.12.7 1.91.7 1.07 0 1.76-.57 1.76-2.24v-13.26h2.66v13.51zm.45-17.27c0 .99-.7 1.66-1.76 1.66-1.09 0-1.79-.67-1.79-1.66 0-.99.7-1.64 1.79-1.64 1.06 0 1.76.65 1.76 1.64zM292.05 454.86h-9.09c.3 2.19 1.59 3.35 3.6 3.35 1.64 0 2.73-.6 3.13-1.69l2.21.92c-.89 1.84-2.61 2.88-5.34 2.88-3.92 0-6.23-2.41-6.23-6.46s2.19-6.46 6.06-6.46c3.73 0 5.76 2.48 5.76 6.09 0 .47-.05 1.04-.1 1.37zm-9.07-2.04h6.68c-.25-2.09-1.42-3.3-3.28-3.3-1.96 0-3.12 1.16-3.4 3.3zM306.21 450.88l-2.48.99c-.42-1.54-1.37-2.36-2.91-2.36-2.21 0-3.5 1.57-3.5 4.37 0 2.81 1.32 4.32 3.5 4.32 1.71 0 2.73-.87 3.05-2.41l2.43.82c-.7 2.26-2.56 3.7-5.44 3.7-3.92 0-6.23-2.41-6.23-6.46s2.31-6.46 6.19-6.46c3 .01 4.62 1.46 5.39 3.49zM317.33 459.25c-.79.67-1.96 1.07-3.3 1.07-2.14 0-3.78-.97-3.8-3.53v-7.05h-2.36v-2.09h2.36v-2.91l2.66-.74v3.65h4.35v2.09h-4.35v6.61c0 1.22.72 1.76 1.81 1.76.84 0 1.46-.3 2.01-.79l.62 1.93zM319.24 443.9c0-1.04.65-1.64 1.79-1.64s1.76.6 1.76 1.64-.62 1.66-1.76 1.66-1.79-.61-1.79-1.66zm3.11 16.17h-2.66v-12.42h2.66v12.42zM337.32 447.65l-4.94 12.42h-2.91l-4.97-12.42h2.93l3.5 10.26 3.6-10.26h2.79zM350.39 454.86h-9.09c.3 2.19 1.59 3.35 3.6 3.35 1.64 0 2.73-.6 3.13-1.69l2.21.92c-.89 1.84-2.61 2.88-5.34 2.88-3.92 0-6.23-2.41-6.23-6.46s2.19-6.46 6.06-6.46c3.73 0 5.76 2.48 5.76 6.09 0 .47-.05 1.04-.1 1.37zm-9.07-2.04H348c-.25-2.09-1.42-3.3-3.28-3.3-1.96 0-3.13 1.16-3.4 3.3zM379.97 447.65l-4.15 12.42h-2.91l-3.13-9.39-2.98 9.39h-2.91l-4.15-12.42h2.88l2.81 9.91 3.11-9.91h2.63l3.11 9.91 2.81-9.91h2.88zM394 458.24l-.17 1.79c-.4.17-.92.3-1.54.3-1.34 0-2.26-.5-2.53-1.86-.77 1.19-2.36 1.86-4.2 1.86-2.33 0-4.05-1.09-4.05-3.25 0-1.91 1.59-3.33 4.84-3.9l3.15-.57v-.65c0-1.49-.92-2.46-2.53-2.46-1.54 0-2.68.67-3.21 2.24l-2.06-1.09c.6-1.96 2.51-3.23 5.22-3.23 3.1 0 5.24 1.42 5.24 4.4v5.61c0 .62.25.92.92.92.32-.02.64-.04.92-.11zm-4.5-2.29v-1.49l-2.71.55c-1.69.32-2.53.89-2.53 1.89 0 .92.7 1.42 1.86 1.42 1.67-.01 3.38-.88 3.38-2.37zM395.34 457.71l1.79-1.54c.65 1.49 2.11 2.06 3.85 2.06 1.76 0 2.66-.65 2.66-1.49 0-.77-.72-1.22-2.88-1.64-3.7-.7-4.99-1.76-4.99-3.85 0-2.01 1.89-3.85 5.22-3.85 2.76 0 4.32.89 5.22 2.81l-1.89 1.39c-.62-1.49-1.69-2.11-3.3-2.11-1.54 0-2.58.75-2.58 1.52 0 .89.72 1.37 3.06 1.79 3.55.65 4.82 1.71 4.82 3.78 0 2.19-1.99 3.75-5.42 3.75-2.43-.01-4.52-.8-5.56-2.62zM424.99 459.25c-.79.67-1.96 1.07-3.3 1.07-2.14 0-3.78-.97-3.8-3.53v-7.05h-2.36v-2.09h2.36v-2.91l2.66-.74v3.65h4.35v2.09h-4.35v6.61c0 1.22.72 1.76 1.81 1.76.84 0 1.46-.3 2.01-.79l.62 1.93zM439 453.86c0 4.05-2.31 6.46-6.18 6.46-3.88 0-6.19-2.41-6.19-6.46s2.31-6.46 6.19-6.46c3.87 0 6.18 2.41 6.18 6.46zm-9.69 0c0 2.81 1.27 4.37 3.5 4.37 2.24 0 3.53-1.57 3.53-4.37s-1.29-4.37-3.53-4.37c-2.23 0-3.5 1.57-3.5 4.37zM461.23 454.86h-9.09c.3 2.19 1.59 3.35 3.6 3.35 1.64 0 2.73-.6 3.13-1.69l2.21.92c-.89 1.84-2.61 2.88-5.34 2.88-3.92 0-6.23-2.41-6.23-6.46s2.19-6.46 6.06-6.46c3.73 0 5.76 2.48 5.76 6.09 0 .47-.05 1.04-.1 1.37zm-9.07-2.04h6.68c-.25-2.09-1.42-3.3-3.28-3.3-1.96 0-3.13 1.16-3.4 3.3zM475.11 447.65l-4.94 12.42h-2.91l-4.97-12.42h2.93l3.5 10.26 3.6-10.26h2.79zM488.59 458.24l-.17 1.79c-.4.17-.92.3-1.54.3-1.34 0-2.26-.5-2.53-1.86-.77 1.19-2.36 1.86-4.2 1.86-2.33 0-4.05-1.09-4.05-3.25 0-1.91 1.59-3.33 4.84-3.9l3.15-.57v-.65c0-1.49-.92-2.46-2.53-2.46-1.54 0-2.68.67-3.21 2.24l-2.06-1.09c.6-1.96 2.51-3.23 5.22-3.23 3.11 0 5.24 1.42 5.24 4.4v5.61c0 .62.25.92.92.92.33-.02.65-.04.92-.11zm-4.49-2.29v-1.49l-2.71.55c-1.69.32-2.53.89-2.53 1.89 0 .92.7 1.42 1.86 1.42 1.66-.01 3.38-.88 3.38-2.37zM493.56 456.45c0 1.22.3 1.64 1.29 1.64.62 0 .99-.07 1.64-.32l-.3 2.14c-.55.27-1.34.42-2.06.42-2.21 0-3.23-1.09-3.23-3.5v-14.75h2.66v14.37zM509.85 447.65v12.42h-2.36l-.12-2.01c-.84 1.57-2.38 2.26-4.4 2.26-2.48 0-4.47-1.27-4.47-4.5v-8.17h2.66v7.48c0 2.31.99 3.01 2.56 3.01 1.89 0 3.48-1.14 3.48-3.78v-6.71h2.65zM525.5 458.24l-.17 1.79c-.4.17-.92.3-1.54.3-1.34 0-2.26-.5-2.53-1.86-.77 1.19-2.36 1.86-4.2 1.86-2.33 0-4.05-1.09-4.05-3.25 0-1.91 1.59-3.33 4.84-3.9l3.15-.57v-.65c0-1.49-.92-2.46-2.53-2.46-1.54 0-2.68.67-3.21 2.24l-2.06-1.09c.6-1.96 2.51-3.23 5.22-3.23 3.1 0 5.24 1.42 5.24 4.4v5.61c0 .62.25.92.92.92.32-.02.65-.04.92-.11zm-4.5-2.29v-1.49l-2.71.55c-1.69.32-2.53.89-2.53 1.89 0 .92.7 1.42 1.86 1.42 1.67-.01 3.38-.88 3.38-2.37zM535.43 459.25c-.79.67-1.96 1.07-3.3 1.07-2.14 0-3.78-.97-3.8-3.53v-7.05h-2.36v-2.09h2.36v-2.91l2.66-.74v3.65h4.35v2.09h-4.35v6.61c0 1.22.72 1.76 1.81 1.76.84 0 1.46-.3 2.01-.79l.62 1.93zM548.79 454.86h-9.09c.3 2.19 1.59 3.35 3.6 3.35 1.64 0 2.73-.6 3.13-1.69l2.21.92c-.89 1.84-2.61 2.88-5.34 2.88-3.92 0-6.23-2.41-6.23-6.46s2.19-6.46 6.06-6.46c3.73 0 5.76 2.48 5.76 6.09 0 .47-.05 1.04-.1 1.37zm-9.06-2.04h6.68c-.25-2.09-1.42-3.3-3.28-3.3-1.96 0-3.13 1.16-3.4 3.3zM571.69 453.86c0 4.05-2.31 6.46-6.18 6.46-3.88 0-6.19-2.41-6.19-6.46s2.31-6.46 6.19-6.46c3.87 0 6.18 2.41 6.18 6.46zm-9.69 0c0 2.81 1.27 4.37 3.5 4.37 2.24 0 3.53-1.57 3.53-4.37s-1.29-4.37-3.53-4.37c-2.23 0-3.5 1.57-3.5 4.37zM585.85 447.65l-4.94 12.42H578l-4.97-12.42h2.93l3.5 10.26 3.6-10.26h2.79zM598.91 454.86h-9.09c.3 2.19 1.59 3.35 3.6 3.35 1.64 0 2.73-.6 3.13-1.69l2.21.92c-.89 1.84-2.61 2.88-5.34 2.88-3.92 0-6.23-2.41-6.23-6.46s2.19-6.46 6.06-6.46c3.73 0 5.76 2.48 5.76 6.09 0 .47-.05 1.04-.1 1.37zm-9.07-2.04h6.68c-.25-2.09-1.42-3.3-3.28-3.3-1.95 0-3.12 1.16-3.4 3.3zM609.99 447.65l-.42 2.43c-.35-.2-.89-.32-1.57-.32-1.49 0-3.13 1.19-3.13 3.73v6.58h-2.66v-12.42h2.26l.25 2.21c.67-1.61 1.99-2.46 3.9-2.46.5 0 1.02.08 1.37.25zM623.75 458.24l-.17 1.79c-.4.17-.92.3-1.54.3-1.34 0-2.26-.5-2.53-1.86-.77 1.19-2.36 1.86-4.2 1.86-2.33 0-4.05-1.09-4.05-3.25 0-1.91 1.59-3.33 4.84-3.9l3.15-.57v-.65c0-1.49-.92-2.46-2.53-2.46-1.54 0-2.68.67-3.21 2.24l-2.06-1.09c.6-1.96 2.51-3.23 5.22-3.23 3.1 0 5.24 1.42 5.24 4.4v5.61c0 .62.25.92.92.92.32-.02.64-.04.92-.11zm-4.5-2.29v-1.49l-2.71.55c-1.69.32-2.53.89-2.53 1.89 0 .92.7 1.42 1.86 1.42 1.67-.01 3.38-.88 3.38-2.37zM628.71 456.45c0 1.22.3 1.64 1.29 1.64.62 0 .99-.07 1.64-.32l-.3 2.14c-.55.27-1.34.42-2.06.42-2.21 0-3.23-1.09-3.23-3.5v-14.75h2.66v14.37zM636.33 456.45c0 1.22.3 1.64 1.29 1.64.62 0 .99-.07 1.64-.32l-.3 2.14c-.55.27-1.34.42-2.06.42-2.21 0-3.23-1.09-3.23-3.5v-14.75h2.66v14.37zM660.78 453.84c0 4.07-2.14 6.48-5.51 6.48-1.84 0-3.25-.89-4-2.26v7.23h-2.66v-17.64h2.33l.12 2.29c.72-1.51 2.24-2.53 4.22-2.53 3.38-.01 5.5 2.38 5.5 6.43zm-2.66.02c0-2.71-1.29-4.32-3.43-4.32-2.09 0-3.43 1.56-3.43 4.17v.3c0 2.58 1.34 4.15 3.43 4.15 2.14 0 3.43-1.59 3.43-4.3zM675.73 458.24l-.17 1.79c-.4.17-.92.3-1.54.3-1.34 0-2.26-.5-2.53-1.86-.77 1.19-2.36 1.86-4.2 1.86-2.33 0-4.05-1.09-4.05-3.25 0-1.91 1.59-3.33 4.84-3.9l3.15-.57v-.65c0-1.49-.92-2.46-2.53-2.46-1.54 0-2.68.67-3.21 2.24l-2.06-1.09c.6-1.96 2.51-3.23 5.22-3.23 3.1 0 5.24 1.42 5.24 4.4v5.61c0 .62.25.92.92.92.32-.02.64-.04.92-.11zm-4.5-2.29v-1.49l-2.71.55c-1.69.32-2.53.89-2.53 1.89 0 .92.7 1.42 1.86 1.42 1.67-.01 3.38-.88 3.38-2.37zM685.66 459.25c-.79.67-1.96 1.07-3.3 1.07-2.14 0-3.78-.97-3.8-3.53v-7.05h-2.36v-2.09h2.36v-2.91l2.66-.74v3.65h4.35v2.09h-4.35v6.61c0 1.22.72 1.76 1.81 1.76.84 0 1.47-.3 2.01-.79l.62 1.93zM687.57 443.9c0-1.04.65-1.64 1.79-1.64s1.76.6 1.76 1.64-.62 1.66-1.76 1.66-1.79-.61-1.79-1.66zm3.1 16.17h-2.66v-12.42h2.66v12.42zM705.7 454.86h-9.09c.3 2.19 1.59 3.35 3.6 3.35 1.64 0 2.73-.6 3.13-1.69l2.21.92c-.89 1.84-2.61 2.88-5.34 2.88-3.92 0-6.23-2.41-6.23-6.46s2.19-6.46 6.06-6.46c3.73 0 5.76 2.48 5.76 6.09 0 .47-.05 1.04-.1 1.37zm-9.07-2.04h6.68c-.25-2.09-1.42-3.3-3.28-3.3-1.95 0-3.12 1.16-3.4 3.3zM720.35 452.03v8.05h-2.66v-7.21c0-2.46-1.14-3.28-2.66-3.28-1.64 0-3.38 1.04-3.38 3.9v6.58H709v-12.42h2.36l.12 2.09c.84-1.64 2.41-2.34 4.2-2.34 2.64 0 4.67 1.52 4.67 4.63zM732.15 459.25c-.79.67-1.96 1.07-3.3 1.07-2.14 0-3.78-.97-3.8-3.53v-7.05h-2.36v-2.09h2.36v-2.91l2.66-.74v3.65h4.35v2.09h-4.35v6.61c0 1.22.72 1.76 1.81 1.76.84 0 1.47-.3 2.01-.79l.62 1.93zM741.41 457.71l1.79-1.54c.65 1.49 2.11 2.06 3.85 2.06 1.76 0 2.66-.65 2.66-1.49 0-.77-.72-1.22-2.88-1.64-3.7-.7-4.99-1.76-4.99-3.85 0-2.01 1.89-3.85 5.22-3.85 2.76 0 4.32.89 5.22 2.81l-1.89 1.39c-.62-1.49-1.69-2.11-3.3-2.11-1.54 0-2.58.75-2.58 1.52 0 .89.72 1.37 3.06 1.79 3.55.65 4.82 1.71 4.82 3.78 0 2.19-1.99 3.75-5.42 3.75-2.43-.01-4.52-.8-5.56-2.62zM767.12 458.24l-.17 1.79c-.4.17-.92.3-1.54.3-1.34 0-2.26-.5-2.53-1.86-.77 1.19-2.36 1.86-4.2 1.86-2.33 0-4.05-1.09-4.05-3.25 0-1.91 1.59-3.33 4.84-3.9l3.15-.57v-.65c0-1.49-.92-2.46-2.53-2.46-1.54 0-2.68.67-3.21 2.24l-2.06-1.09c.6-1.96 2.51-3.23 5.22-3.23 3.1 0 5.24 1.42 5.24 4.4v5.61c0 .62.25.92.92.92.32-.02.65-.04.92-.11zm-4.5-2.29v-1.49l-2.71.55c-1.69.32-2.53.89-2.53 1.89 0 .92.7 1.42 1.86 1.42 1.67-.01 3.38-.88 3.38-2.37zM777.05 459.25c-.79.67-1.96 1.07-3.3 1.07-2.14 0-3.78-.97-3.8-3.53v-7.05h-2.36v-2.09h2.36v-2.91l2.66-.74v3.65h4.35v2.09h-4.35v6.61c0 1.22.72 1.76 1.81 1.76.84 0 1.46-.3 2.01-.79l.62 1.93zM778.96 443.9c0-1.04.65-1.64 1.79-1.64s1.76.6 1.76 1.64-.62 1.66-1.76 1.66-1.79-.61-1.79-1.66zm3.11 16.17h-2.66v-12.42h2.66v12.42zM785.05 457.71l1.79-1.54c.65 1.49 2.11 2.06 3.85 2.06 1.76 0 2.66-.65 2.66-1.49 0-.77-.72-1.22-2.88-1.64-3.7-.7-4.99-1.76-4.99-3.85 0-2.01 1.89-3.85 5.22-3.85 2.76 0 4.32.89 5.22 2.81l-1.89 1.39c-.62-1.49-1.69-2.11-3.3-2.11-1.54 0-2.58.75-2.58 1.52 0 .89.72 1.37 3.06 1.79 3.55.65 4.82 1.71 4.82 3.78 0 2.19-1.99 3.75-5.42 3.75-2.43-.01-4.52-.8-5.56-2.62zM802.63 447.65h4.02v2.09h-3.95v10.33h-2.66v-10.33h-2.33v-2.09h2.33v-1.79c0-2.51 1.59-3.97 4.35-3.97.99 0 1.86.22 2.33.6l-.5 1.94c-.37-.25-.82-.37-1.42-.37-1.39 0-2.19.6-2.19 2.01v1.58zM819.94 458.24l-.17 1.79c-.4.17-.92.3-1.54.3-1.34 0-2.26-.5-2.53-1.86-.77 1.19-2.36 1.86-4.2 1.86-2.33 0-4.05-1.09-4.05-3.25 0-1.91 1.59-3.33 4.84-3.9l3.15-.57v-.65c0-1.49-.92-2.46-2.53-2.46-1.54 0-2.68.67-3.21 2.24l-2.06-1.09c.6-1.96 2.51-3.23 5.22-3.23 3.11 0 5.24 1.42 5.24 4.4v5.61c0 .62.25.92.92.92.33-.02.65-.04.92-.11zm-4.49-2.29v-1.49l-2.71.55c-1.69.32-2.53.89-2.53 1.89 0 .92.7 1.42 1.86 1.42 1.66-.01 3.38-.88 3.38-2.37zM833.16 450.88l-2.48.99c-.42-1.54-1.37-2.36-2.91-2.36-2.21 0-3.5 1.57-3.5 4.37 0 2.81 1.32 4.32 3.5 4.32 1.71 0 2.73-.87 3.05-2.41l2.43.82c-.7 2.26-2.56 3.7-5.44 3.7-3.92 0-6.23-2.41-6.23-6.46s2.31-6.46 6.19-6.46c3 .01 4.62 1.46 5.39 3.49zM844.28 459.25c-.79.67-1.96 1.07-3.3 1.07-2.14 0-3.78-.97-3.8-3.53v-7.05h-2.36v-2.09h2.36v-2.91l2.66-.74v3.65h4.35v2.09h-4.35v6.61c0 1.22.72 1.76 1.81 1.76.84 0 1.47-.3 2.01-.79l.62 1.93zM846.19 443.9c0-1.04.65-1.64 1.79-1.64s1.76.6 1.76 1.64-.62 1.66-1.76 1.66-1.79-.61-1.79-1.66zm3.11 16.17h-2.66v-12.42h2.66v12.42zM864.97 453.86c0 4.05-2.31 6.46-6.18 6.46-3.88 0-6.19-2.41-6.19-6.46s2.31-6.46 6.19-6.46c3.87 0 6.18 2.41 6.18 6.46zm-9.69 0c0 2.81 1.27 4.37 3.5 4.37 2.24 0 3.53-1.57 3.53-4.37s-1.29-4.37-3.53-4.37c-2.23 0-3.5 1.57-3.5 4.37zM879.6 452.03v8.05h-2.66v-7.21c0-2.46-1.14-3.28-2.66-3.28-1.64 0-3.38 1.04-3.38 3.9v6.58h-2.66v-12.42h2.36l.12 2.09c.84-1.64 2.41-2.34 4.2-2.34 2.64 0 4.68 1.52 4.68 4.63zM903.09 453.86c0 4.05-2.31 6.46-6.18 6.46-3.88 0-6.19-2.41-6.19-6.46s2.31-6.46 6.19-6.46c3.87 0 6.18 2.41 6.18 6.46zm-9.69 0c0 2.81 1.27 4.37 3.5 4.37 2.24 0 3.53-1.57 3.53-4.37s-1.29-4.37-3.53-4.37c-2.23 0-3.5 1.57-3.5 4.37zM917.72 452.03v8.05h-2.66v-7.21c0-2.46-1.14-3.28-2.66-3.28-1.64 0-3.38 1.04-3.38 3.9v6.58h-2.66v-12.42h2.36l.12 2.09c.84-1.64 2.41-2.34 4.2-2.34 2.64 0 4.68 1.52 4.68 4.63zM941.21 458.24l-.17 1.79c-.4.17-.92.3-1.54.3-1.34 0-2.26-.5-2.53-1.86-.77 1.19-2.36 1.86-4.2 1.86-2.33 0-4.05-1.09-4.05-3.25 0-1.91 1.59-3.33 4.84-3.9l3.15-.57v-.65c0-1.49-.92-2.46-2.53-2.46-1.54 0-2.68.67-3.21 2.24l-2.06-1.09c.6-1.96 2.51-3.23 5.22-3.23 3.11 0 5.24 1.42 5.24 4.4v5.61c0 .62.25.92.92.92.33-.02.65-.04.92-.11zm-4.49-2.29v-1.49l-2.71.55c-1.69.32-2.53.89-2.53 1.89 0 .92.7 1.42 1.86 1.42 1.66-.01 3.38-.88 3.38-2.37zM954.2 446.06v1.59h4.02v2.09h-3.95v10.33h-2.66v-10.33h-2.33v-2.09h2.33v-1.79c0-2.51 1.59-3.97 4.35-3.97.99 0 1.86.22 2.34.6l-.5 1.94c-.37-.25-.82-.37-1.42-.37-1.38-.01-2.18.59-2.18 2zm9.51-2.16c0 1.04-.62 1.66-1.76 1.66s-1.79-.62-1.79-1.66.65-1.64 1.79-1.64 1.76.6 1.76 1.64zm-3.1 3.75h2.66v12.42h-2.66v-12.42zM978.24 447.65l-4.94 12.42h-2.91l-4.97-12.42h2.93l3.5 10.26 3.6-10.26h2.79zM991.3 454.86h-9.09c.3 2.19 1.59 3.35 3.6 3.35 1.64 0 2.73-.6 3.13-1.69l2.21.92c-.89 1.84-2.61 2.88-5.34 2.88-3.92 0-6.23-2.41-6.23-6.46s2.19-6.46 6.06-6.46c3.73 0 5.76 2.48 5.76 6.09 0 .47-.05 1.04-.1 1.37zm-9.06-2.04h6.68c-.25-2.09-1.42-3.3-3.28-3.3-1.96 0-3.13 1.16-3.4 3.3zM1014.72 453.84c0 4.07-2.14 6.48-5.51 6.48-1.84 0-3.25-.89-4-2.26v7.23h-2.66v-17.64h2.33l.12 2.29c.72-1.51 2.24-2.53 4.22-2.53 3.39-.01 5.5 2.38 5.5 6.43zm-2.65.02c0-2.71-1.29-4.32-3.43-4.32-2.09 0-3.43 1.56-3.43 4.17v.3c0 2.58 1.34 4.15 3.43 4.15 2.13 0 3.43-1.59 3.43-4.3zM1029.7 453.86c0 4.05-2.31 6.46-6.19 6.46-3.88 0-6.19-2.41-6.19-6.46s2.31-6.46 6.19-6.46c3.88 0 6.19 2.41 6.19 6.46zm-9.69 0c0 2.81 1.27 4.37 3.5 4.37 2.24 0 3.53-1.57 3.53-4.37s-1.29-4.37-3.53-4.37c-2.23 0-3.5 1.57-3.5 4.37zM1032.53 443.9c0-1.04.65-1.64 1.79-1.64s1.76.6 1.76 1.64-.62 1.66-1.76 1.66-1.79-.61-1.79-1.66zm3.1 16.17h-2.66v-12.42h2.66v12.42zM1051.01 452.03v8.05h-2.66v-7.21c0-2.46-1.14-3.28-2.66-3.28-1.64 0-3.38 1.04-3.38 3.9v6.58h-2.66v-12.42h2.36l.12 2.09c.84-1.64 2.41-2.34 4.2-2.34 2.64 0 4.68 1.52 4.68 4.63zM1062.8 459.25c-.79.67-1.96 1.07-3.3 1.07-2.14 0-3.78-.97-3.8-3.53v-7.05h-2.36v-2.09h2.36v-2.91l2.66-.74v3.65h4.35v2.09h-4.35v6.61c0 1.22.72 1.76 1.81 1.76.84 0 1.47-.3 2.01-.79l.62 1.93zM1072.06 457.71l1.79-1.54c.65 1.49 2.11 2.06 3.85 2.06 1.76 0 2.66-.65 2.66-1.49 0-.77-.72-1.22-2.88-1.64-3.7-.7-4.99-1.76-4.99-3.85 0-2.01 1.89-3.85 5.22-3.85 2.76 0 4.32.89 5.22 2.81l-1.89 1.39c-.62-1.49-1.69-2.11-3.3-2.11-1.54 0-2.58.75-2.58 1.52 0 .89.72 1.37 3.06 1.79 3.55.65 4.82 1.71 4.82 3.78 0 2.19-1.99 3.75-5.42 3.75-2.43-.01-4.51-.8-5.56-2.62zM1096.95 450.88l-2.48.99c-.42-1.54-1.37-2.36-2.91-2.36-2.21 0-3.5 1.57-3.5 4.37 0 2.81 1.32 4.32 3.5 4.32 1.71 0 2.73-.87 3.05-2.41l2.43.82c-.7 2.26-2.56 3.7-5.44 3.7-3.92 0-6.23-2.41-6.23-6.46s2.31-6.46 6.19-6.46c3.01.01 4.62 1.46 5.39 3.49zM1111.68 458.24l-.17 1.79c-.4.17-.92.3-1.54.3-1.34 0-2.26-.5-2.53-1.86-.77 1.19-2.36 1.86-4.2 1.86-2.33 0-4.05-1.09-4.05-3.25 0-1.91 1.59-3.33 4.84-3.9l3.15-.57v-.65c0-1.49-.92-2.46-2.53-2.46-1.54 0-2.68.67-3.21 2.24l-2.06-1.09c.6-1.96 2.51-3.23 5.22-3.23 3.11 0 5.24 1.42 5.24 4.4v5.61c0 .62.25.92.92.92.32-.02.65-.04.92-.11zm-4.5-2.29v-1.49l-2.71.55c-1.69.32-2.53.89-2.53 1.89 0 .92.7 1.42 1.86 1.42 1.67-.01 3.38-.88 3.38-2.37zM1116.65 456.45c0 1.22.3 1.64 1.29 1.64.62 0 .99-.07 1.64-.32l-.3 2.14c-.55.27-1.34.42-2.06.42-2.21 0-3.23-1.09-3.23-3.5v-14.75h2.66v14.37zM1132.69 454.86h-9.09c.3 2.19 1.59 3.35 3.6 3.35 1.64 0 2.73-.6 3.13-1.69l2.21.92c-.89 1.84-2.61 2.88-5.34 2.88-3.92 0-6.23-2.41-6.23-6.46s2.19-6.46 6.06-6.46c3.73 0 5.76 2.48 5.76 6.09 0 .47-.05 1.04-.1 1.37zm-9.07-2.04h6.68c-.25-2.09-1.42-3.3-3.28-3.3-1.96 0-3.12 1.16-3.4 3.3zM1139.19 458.51c0 1.09-.72 1.81-1.86 1.81s-1.89-.72-1.89-1.81.75-1.79 1.89-1.79 1.86.7 1.86 1.79zM1156.95 442.91c-3.13 2.86-4.3 5.76-4.3 10.26s1.17 7.38 4.3 10.23l-1.39 1.39c-3.6-2.91-5.46-6.83-5.46-11.62 0-4.82 1.86-8.74 5.46-11.65l1.39 1.39zM1170.09 452.03v8.05h-2.66v-7.21c0-2.46-1.14-3.28-2.66-3.28-1.64 0-3.38 1.04-3.38 3.9v6.58h-2.66v-12.42h2.36l.12 2.09c.84-1.64 2.41-2.34 4.2-2.34 2.64 0 4.68 1.52 4.68 4.63zM1185.34 450.98h-11.82v-2.19h11.82v2.19zm0 5.09h-11.82v-2.19h11.82v2.19zM1200.66 451.9c0 5.62-2.33 8.42-6.51 8.42-3 0-4.82-1.24-5.79-3.68l2.51-1.17c.47 1.54 1.14 2.56 3.28 2.56 3.03 0 4.07-2.48 4.07-6.46v-.27h-.1c-.5 2.09-2.53 2.81-4.37 2.81-3.18 0-5.44-2.06-5.44-5.29 0-3.33 2.24-5.39 5.86-5.39 4.21 0 6.49 3.3 6.49 8.47zm-9.68-3.05c0 1.86 1.17 3.01 3.21 3.01 1.91 0 3.2-1.22 3.2-3.01 0-1.86-1.29-3.08-3.2-3.08-2.05 0-3.21 1.14-3.21 3.08zM1215.14 454.73c0 3.6-2.36 5.59-5.84 5.59-3.03 0-4.84-1.24-5.94-3.6l2.48-1.37c.45 1.64 1.27 2.71 3.4 2.71 2.04 0 3.3-1.17 3.28-3.18-.03-2.04-1.14-3.16-3.18-3.16-1.44 0-2.63.42-3.33 1.42l-2.21-.15 1.02-9.32h9.51v2.29h-7.4l-.57 4.55-.05.35h.03c.75-.82 1.96-1.32 3.63-1.32 3.16 0 5.17 2.11 5.17 5.19zM1223.81 453.17c0 4.79-1.86 8.72-5.46 11.62l-1.39-1.39c3.13-2.86 4.3-5.74 4.3-10.23s-1.17-7.4-4.3-10.26l1.39-1.39c3.59 2.9 5.46 6.83 5.46 11.65z"/></svg>