<svg id="Layer_1" xmlns="http://www.w3.org/2000/svg" viewBox="0 0 970 250"><style>.st0{fill:#fff}</style><path class="st0" d="M40.5 204.09l.64.88-.57.42-.64-.88-.29-.56-.29.56-.63.88-.57-.42.64-.88.44-.45-.62-.11-1.03-.33.21-.67 1.04.34.56.28-.09-.62-.01-1.09h.72l-.01 1.09-.1.63.57-.29 1.04-.34.21.67-1.03.33-.63.11.44.45zM45.52 206.25h-2.41l-.55 1.5h-.95l2.16-5.72h1.11l2.16 5.72h-.98l-.54-1.5zm-.28-.75l-.66-1.84-.26-.82h-.03l-.24.81-.68 1.85h1.87zM47.48 206.93l.62-.54c.23.52.74.72 1.34.72.62 0 .93-.23.93-.52 0-.27-.25-.42-1.01-.57-1.29-.24-1.74-.62-1.74-1.34 0-.7.66-1.34 1.82-1.34.96 0 1.51.31 1.82.98l-.66.49c-.22-.52-.59-.74-1.15-.74-.54 0-.9.26-.9.53 0 .31.25.48 1.07.62 1.24.22 1.68.6 1.68 1.32 0 .76-.69 1.31-1.89 1.31-.84-.01-1.57-.29-1.93-.92zM54.79 206.93l.62-.54c.23.52.74.72 1.34.72.62 0 .93-.23.93-.52 0-.27-.25-.42-1.01-.57-1.29-.24-1.74-.62-1.74-1.34 0-.7.66-1.34 1.82-1.34.96 0 1.51.31 1.82.98l-.66.49c-.22-.52-.59-.74-1.15-.74-.54 0-.9.26-.9.53 0 .31.25.48 1.07.62 1.24.22 1.68.6 1.68 1.32 0 .76-.69 1.31-1.89 1.31-.83-.01-1.56-.29-1.93-.92zM63.66 204.95v2.81h-.93v-2.51c0-.86-.4-1.14-.93-1.14-.57 0-1.18.37-1.18 1.37v2.29h-.92v-6.28h.93v2.64c.29-.54.8-.78 1.4-.78.92-.02 1.63.51 1.63 1.6zM69.09 205.59c0 1.41-.81 2.25-2.16 2.25s-2.16-.84-2.16-2.25c0-1.41.81-2.25 2.16-2.25s2.16.83 2.16 2.25zm-3.38 0c0 .98.44 1.53 1.22 1.53s1.23-.55 1.23-1.53-.45-1.53-1.23-1.53-1.22.55-1.22 1.53zM76.69 203.42l-1.45 4.33h-1.01l-1.09-3.28-1.04 3.28h-1.01l-1.45-4.33h1.01l.98 3.46 1.08-3.46h.92l1.08 3.46.98-3.46h1zM81.57 204.95v2.81h-.93v-2.51c0-.86-.4-1.14-.93-1.14-.57 0-1.18.36-1.18 1.36v2.3h-.93v-4.33h.82l.04.73c.29-.57.84-.81 1.46-.81.94-.03 1.65.5 1.65 1.59zM85.55 202.11c0-.36.23-.57.62-.57.4 0 .62.21.62.57s-.22.58-.62.58c-.39 0-.62-.21-.62-.58zm1.09 5.64h-.93v-4.33h.93v4.33zM92 204.95v2.81h-.93v-2.51c0-.86-.4-1.14-.93-1.14-.57 0-1.18.36-1.18 1.36v2.3h-.93v-4.33h.82l.04.73c.29-.57.84-.81 1.46-.81.94-.03 1.65.5 1.65 1.59zM100.21 207.11l-.06.62c-.14.06-.32.1-.54.1-.47 0-.79-.17-.88-.65-.27.42-.82.65-1.46.65-.81 0-1.41-.38-1.41-1.14 0-.67.55-1.16 1.69-1.36l1.1-.2v-.23c0-.52-.32-.86-.88-.86-.54 0-.94.23-1.12.78l-.72-.38c.21-.69.88-1.13 1.82-1.13 1.08 0 1.83.49 1.83 1.53v1.96c0 .22.09.32.32.32.1.03.21.02.31-.01zm-1.57-.79v-.52l-.94.19c-.59.11-.88.31-.88.66 0 .32.24.49.65.49.57 0 1.17-.31 1.17-.82zM107.44 204.55l-.87.35c-.15-.54-.48-.82-1.01-.82-.77 0-1.22.55-1.22 1.53s.46 1.51 1.22 1.51c.6 0 .95-.3 1.07-.84l.85.29c-.24.79-.89 1.29-1.9 1.29-1.37 0-2.18-.84-2.18-2.25 0-1.41.81-2.25 2.16-2.25 1.04-.03 1.61.48 1.88 1.19zM109.41 206.49c0 .42.1.57.45.57.22 0 .35-.03.57-.11l-.1.75c-.19.1-.47.15-.72.15-.77 0-1.13-.38-1.13-1.22v-5.15h.93v5.01zM111.02 202.11c0-.36.23-.57.62-.57.4 0 .62.21.62.57s-.22.58-.62.58-.62-.21-.62-.58zm1.08 5.64h-.93v-4.33h.93v4.33zM117.47 204.95v2.81h-.93v-2.51c0-.86-.4-1.14-.93-1.14-.57 0-1.18.36-1.18 1.36v2.3h-.93v-4.33h.82l.04.73c.29-.57.84-.81 1.46-.81.94-.03 1.65.5 1.65 1.59zM118.67 202.11c0-.36.23-.57.62-.57.4 0 .62.21.62.57s-.22.58-.62.58c-.39 0-.62-.21-.62-.58zm1.09 5.64h-.93v-4.33h.93v4.33zM124.95 204.55l-.87.35c-.15-.54-.48-.82-1.01-.82-.77 0-1.22.55-1.22 1.53s.46 1.51 1.22 1.51c.6 0 .95-.3 1.07-.84l.85.29c-.24.79-.89 1.29-1.9 1.29-1.37 0-2.18-.84-2.18-2.25 0-1.41.81-2.25 2.16-2.25 1.05-.03 1.61.48 1.88 1.19zM130.09 207.11l-.06.62c-.14.06-.32.1-.54.1-.47 0-.79-.17-.88-.65-.27.42-.82.65-1.46.65-.81 0-1.41-.38-1.41-1.14 0-.67.55-1.16 1.69-1.36l1.1-.2v-.23c0-.52-.32-.86-.88-.86-.54 0-.94.23-1.12.78l-.72-.38c.21-.69.88-1.13 1.82-1.13 1.08 0 1.83.49 1.83 1.53v1.96c0 .22.09.32.32.32.1.03.22.02.31-.01zm-1.57-.79v-.52l-.94.19c-.59.11-.88.31-.88.66 0 .32.24.49.65.49.57 0 1.17-.31 1.17-.82zM131.83 206.49c0 .42.1.57.45.57.22 0 .35-.03.57-.11l-.1.75c-.19.1-.47.15-.72.15-.77 0-1.13-.38-1.13-1.22v-5.15h.93v5.01zM135.74 206.93l.62-.54c.23.52.74.72 1.34.72.62 0 .93-.23.93-.52 0-.27-.25-.42-1.01-.57-1.29-.24-1.74-.62-1.74-1.34 0-.7.66-1.34 1.82-1.34.96 0 1.51.31 1.82.98l-.66.49c-.22-.52-.59-.74-1.15-.74-.54 0-.9.26-.9.53 0 .31.25.48 1.07.62 1.24.22 1.68.6 1.68 1.32 0 .76-.69 1.31-1.89 1.31-.83-.01-1.56-.29-1.93-.92zM143.46 207.47c-.28.23-.68.37-1.15.37-.75 0-1.32-.34-1.33-1.23v-2.46h-.82v-.73h.82v-1.01l.93-.26v1.27h1.52v.73h-1.52v2.31c0 .42.25.62.63.62.29 0 .51-.1.7-.28l.22.67zM148.21 203.42v4.33h-.82l-.04-.7c-.29.55-.83.79-1.53.79-.87 0-1.56-.44-1.56-1.57v-2.85h.93v2.61c0 .81.35 1.05.89 1.05.66 0 1.21-.4 1.21-1.32v-2.34h.92zM153.62 201.47v6.28h-.81l-.05-.78c-.25.51-.78.87-1.46.87-1.18 0-1.92-.83-1.92-2.25s.75-2.26 1.92-2.26c.64 0 1.14.31 1.4.79v-2.65h.92zm-.93 4.17v-.1c0-.9-.47-1.45-1.2-1.45-.75 0-1.2.55-1.2 1.5s.45 1.51 1.2 1.51c.73 0 1.2-.55 1.2-1.46zM157.02 208.27c-.38 1-.82 1.35-1.6 1.35-.45 0-.76-.1-1.02-.35l.27-.71c.2.24.44.31.71.31.32 0 .56-.12.75-.62l.19-.47-.45-1.08-1.35-3.29h1.04l.95 2.72.25.82.29-.89.9-2.64h.96l-1.89 4.85zM166.11 205.93h-3.17c.1.76.55 1.17 1.26 1.17.57 0 .95-.21 1.09-.59l.77.32c-.31.64-.91 1.01-1.86 1.01-1.37 0-2.18-.84-2.18-2.25 0-1.41.76-2.25 2.11-2.25 1.3 0 2.01.87 2.01 2.12.01.16-.01.36-.03.47zm-3.16-.71h2.33c-.09-.73-.49-1.15-1.14-1.15-.69 0-1.1.41-1.19 1.15zM170.96 203.42l-1.72 4.33h-1.01l-1.73-4.33h1.02l1.22 3.58 1.26-3.58h.96zM175.67 207.11l-.06.62c-.14.06-.32.1-.54.1-.47 0-.79-.17-.88-.65-.27.42-.82.65-1.46.65-.81 0-1.41-.38-1.41-1.14 0-.67.55-1.16 1.69-1.36l1.1-.2v-.23c0-.52-.32-.86-.88-.86-.54 0-.94.23-1.12.78l-.72-.38c.21-.69.88-1.13 1.82-1.13 1.08 0 1.83.49 1.83 1.53v1.96c0 .22.09.32.32.32.1.03.21.02.31-.01zm-1.57-.79v-.52l-.94.19c-.59.11-.88.31-.88.66 0 .32.24.49.65.49.57 0 1.17-.31 1.17-.82zM177.4 206.49c0 .42.1.57.45.57.22 0 .35-.03.57-.11l-.1.75c-.19.1-.47.15-.72.15-.77 0-1.13-.38-1.13-1.22v-5.15h.93v5.01zM183.09 203.42v4.33h-.82l-.04-.7c-.29.55-.83.79-1.53.79-.87 0-1.56-.44-1.56-1.57v-2.85h.93v2.61c0 .81.35 1.05.89 1.05.66 0 1.21-.4 1.21-1.32v-2.34h.92zM188.55 207.11l-.06.62c-.14.06-.32.1-.54.1-.47 0-.79-.17-.88-.65-.27.42-.82.65-1.46.65-.81 0-1.41-.38-1.41-1.14 0-.67.55-1.16 1.69-1.36l1.1-.2v-.23c0-.52-.32-.86-.88-.86-.54 0-.94.23-1.12.78l-.72-.38c.21-.69.88-1.13 1.82-1.13 1.08 0 1.83.49 1.83 1.53v1.96c0 .22.09.32.32.32.1.03.22.02.31-.01zm-1.57-.79v-.52l-.94.19c-.59.11-.88.31-.88.66 0 .32.24.49.65.49.57 0 1.17-.31 1.17-.82zM192.02 207.47c-.28.23-.68.37-1.15.37-.75 0-1.32-.34-1.33-1.23v-2.46h-.82v-.73h.82v-1.01l.93-.26v1.27h1.52v.73h-1.52v2.31c0 .42.25.62.63.62.29 0 .51-.1.7-.28l.22.67zM192.69 202.11c0-.36.23-.57.62-.57.4 0 .62.21.62.57s-.22.58-.62.58-.62-.21-.62-.58zm1.08 5.64h-.93v-4.33h.93v4.33zM199.14 204.95v2.81h-.93v-2.51c0-.86-.4-1.14-.93-1.14-.57 0-1.18.36-1.18 1.36v2.3h-.93v-4.33h.83l.04.73c.29-.57.84-.81 1.46-.81.92-.03 1.64.5 1.64 1.59zM204.41 208.19c0 .9-.97 1.43-2.23 1.43-1.43 0-2.06-.47-2.06-1.11 0-.39.28-.7.77-.83-.34-.16-.61-.42-.61-.82 0-.45.27-.73.68-.87-.43-.25-.67-.67-.67-1.19 0-.88.75-1.46 1.88-1.46.33 0 .62.05.88.14.16-.62.56-.98 1.27-.96l.16.72c-.56-.02-.89.15-1.02.44.38.26.6.65.6 1.13 0 .88-.75 1.46-1.88 1.46-.27 0-.5-.03-.72-.08-.29.07-.42.22-.42.48 0 .27.21.42.54.42h1.45c.87-.01 1.38.4 1.38 1.1zm-.8.1c0-.28-.18-.44-.75-.44h-1.17c-.53 0-.78.17-.78.46 0 .38.44.62 1.36.62.88-.01 1.34-.3 1.34-.64zm-2.37-3.49c0 .49.4.82.93.82.54 0 .94-.33.94-.82 0-.49-.4-.82-.94-.82-.53 0-.93.33-.93.82zM212.1 205.59c0 1.41-.81 2.25-2.16 2.25s-2.16-.84-2.16-2.25c0-1.41.81-2.25 2.16-2.25s2.16.83 2.16 2.25zm-3.38 0c0 .98.44 1.53 1.22 1.53s1.23-.55 1.23-1.53-.45-1.53-1.23-1.53-1.22.55-1.22 1.53zM217.04 203.42l-1.72 4.33h-1.01l-1.73-4.33h1.02l1.22 3.58 1.26-3.58h.96zM221.6 205.93h-3.17c.1.76.55 1.17 1.26 1.17.57 0 .95-.21 1.09-.59l.77.32c-.31.64-.91 1.01-1.86 1.01-1.37 0-2.18-.84-2.18-2.25 0-1.41.76-2.25 2.12-2.25 1.3 0 2.01.87 2.01 2.12-.01.16-.02.36-.04.47zm-3.16-.71h2.33c-.09-.73-.49-1.15-1.14-1.15-.69 0-1.1.41-1.19 1.15zM225.47 203.42l-.15.85c-.12-.07-.31-.11-.55-.11-.52 0-1.09.42-1.09 1.3v2.3h-.93v-4.33h.79l.09.77c.23-.56.69-.86 1.36-.86.17-.01.35.02.48.08zM230.27 207.11l-.06.62c-.14.06-.32.1-.54.1-.47 0-.79-.17-.88-.65-.27.42-.82.65-1.46.65-.81 0-1.41-.38-1.41-1.14 0-.67.55-1.16 1.69-1.36l1.1-.2v-.23c0-.52-.32-.86-.88-.86-.54 0-.94.23-1.12.78l-.72-.38c.21-.69.88-1.13 1.82-1.13 1.08 0 1.83.49 1.83 1.53v1.96c0 .22.09.32.32.32.1.03.21.02.31-.01zm-1.57-.79v-.52l-.94.19c-.59.11-.88.31-.88.66 0 .32.24.49.65.49.57 0 1.17-.31 1.17-.82zM232 206.49c0 .42.1.57.45.57.22 0 .35-.03.57-.11l-.1.75c-.19.1-.47.15-.72.15-.77 0-1.13-.38-1.13-1.22v-5.15h.93v5.01zM234.67 206.49c0 .42.1.57.45.57.22 0 .35-.03.57-.11l-.1.75c-.19.1-.47.15-.72.15-.77 0-1.13-.38-1.13-1.22v-5.15h.93v5.01zM243.2 205.58c0 1.42-.75 2.26-1.92 2.26-.64 0-1.14-.31-1.4-.79v2.52h-.93v-6.15h.81l.04.8c.25-.53.78-.88 1.47-.88 1.19-.01 1.93.83 1.93 2.24zm-.93.01c0-.94-.45-1.51-1.2-1.51-.73 0-1.2.55-1.2 1.46v.1c0 .9.47 1.45 1.2 1.45.75 0 1.2-.56 1.2-1.5zM248.41 207.11l-.06.62c-.14.06-.32.1-.54.1-.47 0-.79-.17-.88-.65-.27.42-.82.65-1.46.65-.81 0-1.41-.38-1.41-1.14 0-.67.55-1.16 1.69-1.36l1.1-.2v-.23c0-.52-.32-.86-.88-.86-.54 0-.94.23-1.12.78l-.72-.38c.21-.69.88-1.13 1.82-1.13 1.08 0 1.83.49 1.83 1.53v1.96c0 .22.09.32.32.32.11.03.22.02.31-.01zm-1.56-.79v-.52l-.94.19c-.59.11-.88.31-.88.66 0 .32.24.49.65.49.57 0 1.17-.31 1.17-.82zM251.88 207.47c-.28.23-.68.37-1.15.37-.75 0-1.32-.34-1.33-1.23v-2.46h-.82v-.73h.82v-1.01l.93-.26v1.27h1.52v.73h-1.52v2.31c0 .42.25.62.63.62.29 0 .51-.1.7-.28l.22.67zM252.55 202.11c0-.36.23-.57.62-.57.4 0 .62.21.62.57s-.22.58-.62.58c-.39 0-.62-.21-.62-.58zm1.08 5.64h-.93v-4.33h.93v4.33zM258.88 205.93h-3.17c.1.76.55 1.17 1.26 1.17.57 0 .95-.21 1.09-.59l.77.32c-.31.64-.91 1.01-1.86 1.01-1.37 0-2.18-.84-2.18-2.25 0-1.41.76-2.25 2.12-2.25 1.3 0 2.01.87 2.01 2.12-.01.16-.02.36-.04.47zm-3.16-.71h2.33c-.09-.73-.49-1.15-1.14-1.15-.69 0-1.1.41-1.19 1.15zM263.99 204.95v2.81h-.93v-2.51c0-.86-.4-1.14-.93-1.14-.57 0-1.18.36-1.18 1.36v2.3h-.93v-4.33h.82l.04.73c.29-.57.84-.81 1.46-.81.94-.03 1.65.5 1.65 1.59zM268.11 207.47c-.28.23-.68.37-1.15.37-.75 0-1.32-.34-1.33-1.23v-2.46h-.82v-.73h.82v-1.01l.93-.26v1.27h1.52v.73h-1.52v2.31c0 .42.25.62.63.62.29 0 .51-.1.7-.28l.22.67zM271.35 206.93l.62-.54c.23.52.74.72 1.34.72.62 0 .93-.23.93-.52 0-.27-.25-.42-1.01-.57-1.29-.24-1.74-.62-1.74-1.34 0-.7.66-1.34 1.82-1.34.96 0 1.51.31 1.82.98l-.66.49c-.22-.52-.59-.74-1.15-.74-.54 0-.9.26-.9.53 0 .31.25.48 1.07.62 1.24.22 1.68.6 1.68 1.32 0 .76-.69 1.31-1.89 1.31-.84-.01-1.57-.29-1.93-.92zM280.32 207.11l-.06.62c-.14.06-.32.1-.54.1-.47 0-.79-.17-.88-.65-.27.42-.82.65-1.46.65-.81 0-1.41-.38-1.41-1.14 0-.67.55-1.16 1.69-1.36l1.1-.2v-.23c0-.52-.32-.86-.88-.86-.54 0-.94.23-1.12.78l-.72-.38c.21-.69.88-1.13 1.82-1.13 1.08 0 1.83.49 1.83 1.53v1.96c0 .22.09.32.32.32.1.03.21.02.31-.01zm-1.57-.79v-.52l-.94.19c-.59.11-.88.31-.88.66 0 .32.24.49.65.49.57 0 1.17-.31 1.17-.82zM283.79 207.47c-.28.23-.68.37-1.15.37-.75 0-1.32-.34-1.33-1.23v-2.46h-.82v-.73h.82v-1.01l.93-.26v1.27h1.52v.73h-1.52v2.31c0 .42.25.62.63.62.29 0 .51-.1.7-.28l.22.67zM284.46 202.11c0-.36.23-.57.62-.57.4 0 .62.21.62.57s-.22.58-.62.58-.62-.21-.62-.58zm1.08 5.64h-.93v-4.33h.93v4.33zM286.58 206.93l.62-.54c.23.52.74.72 1.34.72.62 0 .93-.23.93-.52 0-.27-.25-.42-1.01-.57-1.29-.24-1.74-.62-1.74-1.34 0-.7.66-1.34 1.82-1.34.96 0 1.51.31 1.82.98l-.66.49c-.22-.52-.59-.74-1.15-.74-.54 0-.9.26-.9.53 0 .31.25.48 1.07.62 1.24.22 1.68.6 1.68 1.32 0 .76-.69 1.31-1.89 1.31-.84-.01-1.57-.29-1.93-.92zM292.72 203.42h1.4v.73h-1.38v3.61h-.93v-3.61H291v-.73h.81v-.62c0-.88.55-1.39 1.52-1.39.35 0 .65.08.81.21l-.17.68c-.13-.09-.29-.13-.49-.13-.49 0-.76.21-.76.7v.55zM298.76 207.11l-.06.62c-.14.06-.32.1-.54.1-.47 0-.79-.17-.88-.65-.27.42-.82.65-1.46.65-.81 0-1.41-.38-1.41-1.14 0-.67.55-1.16 1.69-1.36l1.1-.2v-.23c0-.52-.32-.86-.88-.86-.54 0-.94.23-1.12.78l-.72-.38c.21-.69.88-1.13 1.82-1.13 1.08 0 1.83.49 1.83 1.53v1.96c0 .22.09.32.32.32.1.03.21.02.31-.01zm-1.57-.79v-.52l-.94.19c-.59.11-.88.31-.88.66 0 .32.24.49.65.49.57 0 1.17-.31 1.17-.82zM303.37 204.55l-.87.35c-.15-.54-.48-.82-1.01-.82-.77 0-1.22.55-1.22 1.53s.46 1.51 1.22 1.51c.6 0 .95-.3 1.07-.84l.85.29c-.24.79-.89 1.29-1.9 1.29-1.37 0-2.18-.84-2.18-2.25 0-1.41.81-2.25 2.16-2.25 1.05-.03 1.61.48 1.88 1.19zM307.26 207.47c-.28.23-.68.37-1.15.37-.75 0-1.32-.34-1.33-1.23v-2.46h-.82v-.73h.82v-1.01l.93-.26v1.27h1.52v.73h-1.52v2.31c0 .42.25.62.63.62.29 0 .51-.1.7-.28l.22.67zM307.92 202.11c0-.36.23-.57.62-.57.4 0 .62.21.62.57s-.22.58-.62.58c-.39 0-.62-.21-.62-.58zm1.09 5.64h-.93v-4.33h.93v4.33zM314.48 205.59c0 1.41-.81 2.25-2.16 2.25s-2.16-.84-2.16-2.25c0-1.41.81-2.25 2.16-2.25s2.16.83 2.16 2.25zm-3.38 0c0 .98.44 1.53 1.22 1.53s1.23-.55 1.23-1.53-.45-1.53-1.23-1.53-1.22.55-1.22 1.53zM319.58 204.95v2.81h-.93v-2.51c0-.86-.4-1.14-.93-1.14-.57 0-1.18.36-1.18 1.36v2.3h-.93v-4.33h.82l.04.73c.29-.57.84-.81 1.46-.81.94-.03 1.65.5 1.65 1.59zM330.12 203.42l-1.45 4.33h-1.01l-1.09-3.28-1.04 3.28h-1.01l-1.45-4.33h1.01l.98 3.46 1.08-3.46h.92l1.08 3.46.98-3.46h1zM330.88 202.11c0-.36.23-.57.62-.57.4 0 .62.21.62.57s-.22.58-.62.58c-.39 0-.62-.21-.62-.58zm1.08 5.64h-.93v-4.33h.93v4.33zM336.18 207.47c-.28.23-.68.37-1.15.37-.75 0-1.32-.34-1.33-1.23v-2.46h-.82v-.73h.82v-1.01l.93-.26v1.27h1.52v.73h-1.52v2.31c0 .42.25.62.63.62.29 0 .51-.1.7-.28l.22.67zM341 204.95v2.81h-.93v-2.51c0-.86-.4-1.14-.93-1.14-.57 0-1.18.37-1.18 1.37v2.29h-.93v-6.28h.93v2.64c.29-.54.8-.78 1.4-.78.93-.02 1.64.51 1.64 1.6zM40.36 217.81c-1.66 0-2.7-1.13-2.7-2.95 0-1.82 1.05-2.95 2.69-2.95 1.14 0 1.94.48 2.29 1.4l-.88.39c-.23-.68-.65-.99-1.36-.99-1.07 0-1.77.78-1.77 2.14 0 1.35.65 2.14 1.73 2.14.73 0 1.26-.36 1.47-1.09l.88.29c-.34 1.07-1.23 1.62-2.35 1.62zM47.81 215.56c0 1.41-.81 2.25-2.16 2.25s-2.16-.84-2.16-2.25c0-1.41.81-2.25 2.16-2.25s2.16.84 2.16 2.25zm-3.39 0c0 .98.44 1.53 1.22 1.53s1.23-.55 1.23-1.53-.45-1.53-1.23-1.53c-.77 0-1.22.55-1.22 1.53zM53.02 215.56c0 1.41-.81 2.25-2.16 2.25s-2.16-.84-2.16-2.25c0-1.41.81-2.25 2.16-2.25s2.16.84 2.16 2.25zm-3.38 0c0 .98.44 1.53 1.22 1.53s1.23-.55 1.23-1.53-.45-1.53-1.23-1.53-1.22.55-1.22 1.53zM55.06 216.46c0 .42.1.57.45.57.22 0 .35-.03.57-.11l-.1.75c-.19.1-.47.15-.72.15-.77 0-1.13-.38-1.13-1.22v-5.15h.93v5.01zM61.19 213.08l-.7.63c-.32-.68-.76-.99-1.58-.99s-1.26.36-1.26.85c0 .46.36.7 1.46.9 1.53.27 2.1.75 2.1 1.66 0 1.02-.93 1.67-2.28 1.67-1.25 0-2.02-.45-2.46-1.16l.65-.65c.37.69.94 1 1.8 1 .81 0 1.32-.29 1.32-.81 0-.41-.35-.64-1.42-.84-1.57-.29-2.15-.77-2.15-1.68 0-.97.83-1.75 2.23-1.75 1.06.01 1.79.39 2.29 1.17zM66.13 214.52l-.87.35c-.15-.54-.48-.82-1.01-.82-.77 0-1.22.55-1.22 1.53s.46 1.51 1.22 1.51c.6 0 .95-.3 1.07-.84l.85.29c-.24.79-.89 1.29-1.9 1.29-1.37 0-2.18-.84-2.18-2.25 0-1.41.81-2.25 2.16-2.25 1.05-.03 1.61.48 1.88 1.19zM71.14 213.39v4.33h-.82l-.04-.7c-.29.55-.83.79-1.53.79-.87 0-1.56-.44-1.56-1.57v-2.85h.93V216c0 .81.35 1.05.89 1.05.66 0 1.21-.4 1.21-1.32v-2.34h.92zM73.43 216.46c0 .42.1.57.45.57.22 0 .35-.03.57-.11l-.1.75c-.19.1-.47.15-.72.15-.77 0-1.13-.38-1.13-1.22v-5.15h.93v5.01zM79.44 215.55c0 1.42-.75 2.26-1.92 2.26-.64 0-1.14-.31-1.4-.79v2.52h-.93v-6.15H76l.04.8c.25-.53.78-.88 1.47-.88 1.2-.01 1.93.83 1.93 2.24zm-.93.01c0-.94-.45-1.51-1.2-1.51-.73 0-1.2.55-1.2 1.46v.1c0 .9.47 1.45 1.2 1.45.75 0 1.2-.56 1.2-1.5zM83.35 217.44c-.28.23-.68.37-1.15.37-.75 0-1.32-.34-1.33-1.23v-2.46h-.82v-.73h.82v-1.01l.93-.26v1.27h1.52v.73H81.8v2.31c0 .42.25.62.63.62.29 0 .51-.1.7-.28l.22.67zM84.02 212.08c0-.36.23-.57.62-.57.4 0 .62.21.62.57s-.22.58-.62.58c-.39 0-.62-.21-.62-.58zm1.08 5.64h-.93v-4.33h.93v4.33zM90.47 214.92v2.81h-.93v-2.51c0-.86-.4-1.14-.93-1.14-.57 0-1.18.36-1.18 1.36v2.3h-.93v-4.33h.82l.04.73c.29-.57.84-.81 1.46-.81.94-.03 1.65.5 1.65 1.59zM95.74 218.16c0 .9-.97 1.43-2.23 1.43-1.43 0-2.06-.47-2.06-1.11 0-.39.28-.7.77-.83-.34-.16-.61-.42-.61-.82 0-.45.27-.73.68-.87-.43-.25-.67-.67-.67-1.19 0-.88.75-1.46 1.88-1.46.33 0 .62.05.88.14.16-.62.56-.98 1.27-.96l.16.72c-.56-.02-.89.15-1.02.44.38.26.6.65.6 1.13 0 .88-.75 1.46-1.88 1.46-.27 0-.5-.03-.72-.08-.29.07-.42.22-.42.48 0 .27.21.42.54.42h1.45c.87-.01 1.38.4 1.38 1.1zm-.8.1c0-.28-.18-.44-.75-.44h-1.17c-.53 0-.78.17-.78.46 0 .38.44.62 1.36.62.88-.01 1.34-.3 1.34-.64zm-2.36-3.49c0 .49.4.82.93.82.54 0 .94-.33.94-.82 0-.49-.4-.82-.94-.82-.53 0-.93.33-.93.82zM99.64 213.17c0 1.04-.68 1.72-1.73 1.72-1.05 0-1.73-.68-1.73-1.72s.68-1.72 1.73-1.72c1.05 0 1.73.68 1.73 1.72zm-.39 0c0-.82-.53-1.36-1.34-1.36-.82 0-1.35.54-1.35 1.36s.53 1.36 1.35 1.36c.82 0 1.34-.54 1.34-1.36zm-.96.23l.48.7h-.45l-.41-.66h-.28v.66h-.39v-1.86h.8c.4 0 .69.24.69.6 0 .29-.17.49-.44.56zm-.67-.24H98c.22 0 .34-.1.34-.3s-.12-.3-.34-.3h-.37v.6zM107.48 215.56c0 1.41-.81 2.25-2.16 2.25s-2.16-.84-2.16-2.25c0-1.41.81-2.25 2.16-2.25s2.16.84 2.16 2.25zm-3.38 0c0 .98.44 1.53 1.22 1.53s1.23-.55 1.23-1.53-.45-1.53-1.23-1.53-1.22.55-1.22 1.53zM112.59 214.92v2.81h-.93v-2.51c0-.86-.4-1.14-.93-1.14-.57 0-1.18.36-1.18 1.36v2.3h-.93v-4.33h.82l.04.73c.29-.57.84-.81 1.46-.81.94-.03 1.65.5 1.65 1.59zM120.79 217.08l-.06.62c-.14.06-.32.1-.54.1-.47 0-.79-.17-.88-.65-.27.42-.82.65-1.46.65-.81 0-1.41-.38-1.41-1.14 0-.67.55-1.16 1.69-1.36l1.1-.2v-.23c0-.52-.32-.86-.88-.86-.54 0-.94.23-1.12.78l-.72-.38c.21-.69.88-1.13 1.82-1.13 1.08 0 1.83.49 1.83 1.53v1.96c0 .22.09.32.32.32.1.03.21.02.31-.01zm-1.57-.79v-.52l-.94.19c-.59.11-.88.31-.88.66 0 .32.24.49.65.49.57 0 1.17-.3 1.17-.82zM125.32 212.84v.55h1.4v.73h-1.38v3.61h-.93v-3.61h-.81v-.73h.81v-.62c0-.88.55-1.39 1.52-1.39.35 0 .65.08.81.21l-.17.68c-.13-.09-.29-.13-.49-.13-.48-.01-.76.2-.76.7zm3.32-.76c0 .36-.22.58-.62.58s-.62-.22-.62-.58.23-.57.62-.57c.4 0 .62.21.62.57zm-1.08 1.31h.93v4.33h-.93v-4.33zM133.71 213.39l-1.72 4.33h-1.01l-1.73-4.33h1.02l1.22 3.58 1.26-3.58h.96zM138.27 215.9h-3.17c.1.76.55 1.17 1.26 1.17.57 0 .95-.21 1.09-.59l.77.32c-.31.64-.91 1.01-1.86 1.01-1.37 0-2.18-.84-2.18-2.25 0-1.41.76-2.25 2.11-2.25 1.3 0 2.01.87 2.01 2.12.01.16-.01.36-.03.47zm-3.16-.71h2.33c-.09-.73-.49-1.15-1.14-1.15-.69 0-1.09.41-1.19 1.15zM146.45 215.55c0 1.42-.75 2.26-1.92 2.26-.64 0-1.14-.31-1.4-.79v2.52h-.93v-6.15h.81l.04.8c.25-.53.78-.88 1.47-.88 1.19-.01 1.93.83 1.93 2.24zm-.93.01c0-.94-.45-1.51-1.2-1.51-.73 0-1.2.55-1.2 1.46v.1c0 .9.47 1.45 1.2 1.45.75 0 1.2-.56 1.2-1.5zM151.68 215.56c0 1.41-.81 2.25-2.16 2.25s-2.16-.84-2.16-2.25c0-1.41.81-2.25 2.16-2.25s2.16.84 2.16 2.25zm-3.38 0c0 .98.44 1.53 1.22 1.53s1.23-.55 1.23-1.53-.45-1.53-1.23-1.53-1.22.55-1.22 1.53zM152.67 212.08c0-.36.23-.57.62-.57.4 0 .62.21.62.57s-.22.58-.62.58-.62-.21-.62-.58zm1.08 5.64h-.93v-4.33h.93v4.33zM159.12 214.92v2.81h-.93v-2.51c0-.86-.4-1.14-.93-1.14-.57 0-1.18.36-1.18 1.36v2.3h-.93v-4.33h.82l.04.73c.29-.57.84-.81 1.46-.81.94-.03 1.65.5 1.65 1.59zM163.23 217.44c-.28.23-.68.37-1.15.37-.75 0-1.32-.34-1.33-1.23v-2.46h-.82v-.73h.82v-1.01l.93-.26v1.27h1.52v.73h-1.52v2.31c0 .42.25.62.63.62.29 0 .51-.1.7-.28l.22.67zM166.47 216.9l.62-.54c.23.52.74.72 1.34.72.62 0 .93-.23.93-.52 0-.27-.25-.42-1.01-.57-1.29-.24-1.74-.62-1.74-1.34 0-.7.66-1.34 1.82-1.34.96 0 1.51.31 1.82.98l-.66.49c-.22-.52-.59-.74-1.15-.74-.54 0-.9.26-.9.53 0 .31.25.48 1.07.62 1.24.22 1.68.6 1.68 1.32 0 .76-.69 1.31-1.89 1.31-.84-.01-1.57-.29-1.93-.92zM175.16 214.52l-.87.35c-.15-.54-.48-.82-1.01-.82-.77 0-1.22.55-1.22 1.53s.46 1.51 1.22 1.51c.6 0 .95-.3 1.07-.84l.85.29c-.24.79-.89 1.29-1.9 1.29-1.37 0-2.18-.84-2.18-2.25 0-1.41.81-2.25 2.16-2.25 1.04-.03 1.61.48 1.88 1.19zM180.3 217.08l-.06.62c-.14.06-.32.1-.54.1-.47 0-.79-.17-.88-.65-.27.42-.82.65-1.46.65-.81 0-1.41-.38-1.41-1.14 0-.67.55-1.16 1.69-1.36l1.1-.2v-.23c0-.52-.32-.86-.88-.86-.54 0-.94.23-1.12.78l-.72-.38c.21-.69.88-1.13 1.82-1.13 1.08 0 1.83.49 1.83 1.53v1.96c0 .22.09.32.32.32.1.03.21.02.31-.01zm-1.57-.79v-.52l-.94.19c-.59.11-.88.31-.88.66 0 .32.24.49.65.49.57 0 1.17-.3 1.17-.82zM182.03 216.46c0 .42.1.57.45.57.22 0 .35-.03.57-.11l-.1.75c-.19.1-.47.15-.72.15-.77 0-1.13-.38-1.13-1.22v-5.15h.93v5.01zM187.63 215.9h-3.17c.1.76.55 1.17 1.26 1.17.57 0 .95-.21 1.09-.59l.77.32c-.31.64-.91 1.01-1.86 1.01-1.37 0-2.18-.84-2.18-2.25 0-1.41.76-2.25 2.12-2.25 1.3 0 2.01.87 2.01 2.12 0 .16-.02.36-.04.47zm-3.16-.71h2.33c-.09-.73-.49-1.15-1.14-1.15-.69 0-1.1.41-1.19 1.15zM193.78 211.74c-1.09 1-1.5 2.01-1.5 3.58 0 1.57.41 2.57 1.5 3.57l-.49.49c-1.26-1.01-1.91-2.38-1.91-4.06 0-1.68.65-3.05 1.91-4.07l.49.49zM198.36 214.92v2.81h-.93v-2.51c0-.86-.4-1.14-.93-1.14-.57 0-1.18.36-1.18 1.36v2.3h-.93v-4.33h.82l.04.73c.29-.57.84-.81 1.46-.81.94-.03 1.65.5 1.65 1.59zM203.69 214.55h-4.13v-.76h4.13v.76zm0 1.78h-4.13v-.76h4.13v.76zM207.01 212v5.72h-.91v-4.23c0-.14.01-.29.02-.46-.4.38-.93.68-1.45.79l-.17-.81c.46-.06 1.43-.58 1.73-1.01h.78zM208.3 214.86c0-1.92.75-2.95 2.2-2.95 1.45 0 2.21 1.02 2.21 2.95 0 1.92-.76 2.95-2.21 2.95s-2.2-1.02-2.2-2.95zm3.47 0c0-1.44-.43-2.16-1.27-2.16s-1.26.72-1.26 2.16.42 2.16 1.26 2.16 1.27-.72 1.27-2.16zM217.93 213.14l-.81.39c-.16-.5-.49-.81-1.11-.81-.84 0-1.41.94-1.41 2.2v.16h.03c.19-.67.88-.96 1.51-.96 1.14 0 1.91.71 1.91 1.83 0 1.14-.78 1.86-2.04 1.86-1.46 0-2.26-1.17-2.26-2.95 0-1.95 1-2.95 2.31-2.95.92.01 1.53.35 1.87 1.23zm-3.04 2.8c0 .65.44 1.07 1.12 1.07.71 0 1.12-.4 1.12-1.07 0-.65-.41-1.05-1.12-1.05-.68 0-1.12.43-1.12 1.05zM220.91 215.32c0 1.67-.65 3.04-1.91 4.06l-.49-.49c1.09-1 1.5-2 1.5-3.57 0-1.57-.41-2.58-1.5-3.58l.49-.49c1.26 1.01 1.91 2.38 1.91 4.07zM223.25 217.18c0 .38-.25.63-.65.63s-.66-.25-.66-.63.26-.62.66-.62c.39-.01.65.24.65.62z"/></svg>