<svg id="Layer_1" xmlns="http://www.w3.org/2000/svg" viewBox="0 0 1940 500"><style>.st0{fill:#fff}</style><path class="st0" d="M125.36 98.02c0 .96-.77 1.72-1.75 1.72s-1.76-.76-1.76-1.72.78-1.7 1.77-1.7c.97-.01 1.74.74 1.74 1.7zm-3.07 0c0 .76.57 1.36 1.33 1.36.74.01 1.3-.6 1.3-1.35 0-.76-.56-1.37-1.32-1.37-.74 0-1.31.61-1.31 1.36zm1.05.88h-.39v-1.7c.15-.02.37-.05.65-.05.32 0 .47.05.58.13.1.07.18.2.18.36 0 .21-.16.34-.35.41v.02c.17.05.25.19.3.42.05.26.09.35.13.42h-.42c-.05-.06-.08-.21-.14-.42-.03-.18-.13-.26-.35-.26h-.19v.67zm.01-.95h.19c.22 0 .4-.07.4-.25 0-.16-.11-.26-.36-.26-.1 0-.18.01-.22.02v.49zM150.87 92.09c-8.49 0-12.57-6.19-12.57-12.13 0-6.86 4.94-12.37 12.71-12.37 2.64 0 5.37.81 7.53 2.64l-2.4 3.35c-1.48-1.15-3.07-1.58-4.99-1.58-4.12 0-7.19 2.88-7.19 7.82 0 4.51 2.83 8.1 7.34 8.1 1.92 0 3.6-.58 5.09-1.87l2.2 3.36c-2.11 1.81-4.99 2.68-7.72 2.68M171.64 92.09c-7.1 0-12.33-5.36-12.33-12.37 0-7.19 5.71-12.13 12.33-12.13s12.37 4.89 12.37 12.08c.01 7.05-5.22 12.42-12.37 12.42m6.67-12.38c0-4.32-2.11-8.05-6.67-8.05-4.46 0-6.67 3.74-6.67 8 0 4.41 2.06 8.35 6.67 8.35 4.6 0 6.67-3.89 6.67-8.35v.05zM198.41 92.09c-7.1 0-12.33-5.36-12.33-12.37 0-7.19 5.71-12.13 12.33-12.13s12.37 4.89 12.37 12.08c0 7.05-5.23 12.42-12.37 12.42m6.66-12.38c0-4.32-2.11-8.05-6.67-8.05-4.46 0-6.67 3.74-6.67 8 0 4.41 2.06 8.35 6.67 8.35 4.6 0 6.67-3.89 6.67-8.35v.05zM213.56 91.52V57.17l5.33 2.93v31.42zM231.16 92.23c-6 0-8.88-2.88-8.88-2.88l2.4-3.12s2.73 1.82 6.33 1.82c1.73 0 3.17-1.2 3.17-2.4s-.53-2.21-2.11-3.02c-1.58-.82-3.36-1.68-4.75-2.35-1.39-.68-4.46-2.74-4.46-6.77 0-4.08 4.12-6.33 8.34-6.33 4.03 0 7.1 2.64 7.1 2.64L236.25 73s-2.3-1.63-4.84-1.63-3.07 1.63-3.07 2.3c0 .67.24 1.73 1.87 2.59 1.63.86 3.31 1.78 5.71 3.12s3.74 3.64 3.74 6.23c-.01 2.6-2.5 6.62-8.5 6.62M254.04 92.09c-8.49 0-12.57-6.19-12.57-12.13 0-6.86 4.94-12.37 12.71-12.37 2.64 0 5.37.81 7.53 2.64l-2.4 3.35c-1.49-1.15-3.07-1.58-4.99-1.58-4.12 0-7.19 2.88-7.19 7.82 0 4.51 2.83 8.1 7.34 8.1 1.92 0 3.6-.58 5.08-1.87l2.21 3.36c-2.11 1.81-4.98 2.68-7.72 2.68M280.28 88.78s-2.69 3.31-7.77 3.31c-6 0-8.92-4.36-8.92-8.78v-15.2h5.32v14.97c0 2.59 2.02 4.74 5.13 4.74 2.74 0 5.42-3.26 5.42-3.26V68.11h5.32v23.36l-4.5-2.69zM289.54 91.52V57.17l5.32 2.93v31.42zM312.47 92.09c-4.7 0-7.39-2.63-7.39-2.63v11.65h-5.37V67.63l5.37 2.82s2.88-2.92 7.67-2.92c5.04 0 11.32 3.88 11.32 12.56 0 8.69-6.18 12-11.6 12m-.34-20.43c-4.56 0-7.19 4.27-7.19 4.27v8.82s3.02 3.41 7.39 3.41c5.09 0 6.19-6.1 6.19-8.21-.01-2.1-.49-8.29-6.39-8.29M338.08 92.14h-3.36c-4.23 0-5.66-4.08-5.66-6.76V71.61h-4.22v-3.5h4.22V57.79h5.27v10.32h5.42v3.5h-5.37v12.47c0 1.39-.24 3.6 2.11 3.6h3.84l-2.25 4.46zM346.61 64.07c-1.91 0-3.5-1.58-3.5-3.5s1.59-3.5 3.5-3.5c1.92 0 3.5 1.58 3.5 3.5.01 1.92-1.58 3.5-3.5 3.5m-2.63 4.04h5.23v23.41h-5.23V68.11zM370.31 91.52V76.55c0-2.59-2.02-4.74-5.13-4.74-2.74 0-5.81 3.26-5.81 3.26v16.45h-5.32V68.16l4.51 2.69s3.07-3.31 8.15-3.31c6 0 8.92 4.36 8.92 8.77v15.21h-5.32zM391.9 102.4c-.82 0-7.06-.09-7.06-.09l.09-4.27h5.24c5.08 0 7.96-2.74 7.96-6.48v-2.11s-2.78 2.65-7.48 2.65c-5.42 0-11.61-3.32-11.61-12s6.28-12.56 11.32-12.56c4.8 0 7.67 2.92 7.67 2.92l5.37-2.68v23.26c.01 6.28-4.17 11.36-11.5 11.36m6.28-26.47s-2.64-4.27-7.2-4.27c-5.9 0-6.38 6.18-6.38 8.29 0 2.11 1.1 8.21 6.19 8.21 4.37 0 7.39-3.41 7.39-3.41v-8.82zM90.63 109.27v-15.3l3.01-3.01 8.67 8.67v2.91zM84.4 80.86l-9.81 9.81 12 4.52 14.32-14.33zM89.23 67.19H76.6l4.05 11.68h20.26zM102.32 60.95l-9.75-9.75-4.56 11.94 14.31 14.32zM131.83 92.54H117.4l-11.67-11.68h20.24zM120.04 64.56l13.1 3.41-10.9 10.91h-16.51zM104.32 57.21l11.67-6.93v15.5l-11.67 11.68zM119.18 97.16l-3.75 12.76-20.37-20.38 8.25-8.25zM411.36 69.7c0 1.38-1.12 2.48-2.53 2.48-1.42 0-2.54-1.1-2.54-2.48 0-1.39 1.13-2.47 2.56-2.47 1.4-.01 2.51 1.08 2.51 2.47zm-4.44 0c0 1.09.83 1.97 1.93 1.97 1.07.01 1.88-.88 1.88-1.96 0-1.09-.81-1.99-1.91-1.99-1.07 0-1.9.9-1.9 1.98zm1.52 1.27h-.57V68.5c.22-.03.54-.07.94-.07.47 0 .68.07.85.2.15.11.26.29.26.53 0 .3-.23.49-.51.59v.03c.24.08.36.27.44.6.08.38.13.52.18.6h-.6c-.07-.08-.12-.3-.2-.6-.04-.25-.19-.38-.51-.38h-.27v.97zm.01-1.38h.27c.32 0 .57-.1.57-.36 0-.22-.16-.38-.53-.38-.15 0-.26.02-.32.03v.71z"/></svg>