<?xml version="1.0" encoding="utf-8"?>
<!-- Generator: Adobe Illustrator 25.2.1, SVG Export Plug-In . SVG Version: 6.00 Build 0)  -->
<svg version="1.1" id="Layer_1" xmlns="http://www.w3.org/2000/svg" xmlns:xlink="http://www.w3.org/1999/xlink" x="0px" y="0px"
	 viewBox="0 0 970 250" style="enable-background:new 0 0 970 250;" xml:space="preserve">
<style type="text/css">
	.st0{fill:#EAF5FB;}
</style>
<g>
	<path class="st0" d="M27.83,116.98v-6.3h3.02v5.73c0,2.97,0.83,4.17,2.92,4.17c2.13,0,2.97-1.2,2.97-4.17v-5.42
		c0-2.45-0.68-3.65-2.45-4.79l-2.76-1.77c-2.66-1.72-3.7-3.7-3.7-7.19v-4.63c0-3.96,2.14-6.2,5.83-6.2c3.7,0,5.83,2.24,5.83,6.2
		v4.63h-3.02v-4.11c0-2.81-0.78-3.91-2.76-3.91s-2.76,1.09-2.76,3.91v3.91c0,2.45,0.68,3.65,2.45,4.79l2.76,1.77
		c2.66,1.72,3.7,3.7,3.7,7.19v6.2c0,4.11-2.24,6.41-6.04,6.41S27.83,121.09,27.83,116.98z"/>
	<path class="st0" d="M48.77,89.64h-4.37v-2.71h11.87v2.71h-4.37v33.23h-3.12V89.64z"/>
	<path class="st0" d="M61.63,86.93h5.78c4.17,0,6.15,2.14,6.15,6.51v4.58c0,2.92-0.94,4.69-2.81,5.52v0.1
		c1.87,0.83,2.81,2.6,2.81,5.57v13.64h-3.12v-13.44c0-3.33-0.94-4.32-3.91-4.32h-1.77v17.76h-3.12V86.93z M67.05,102.4
		c2.6,0,3.39-0.99,3.39-4.32v-4.11c0-3.33-0.78-4.32-3.39-4.32h-2.29v12.76H67.05z"/>
	<path class="st0" d="M79.92,86.93h10.31v2.71h-7.19v12.55h6.25v2.71h-6.25v15.26h7.19v2.71H79.92V86.93z"/>
	<path class="st0" d="M95.8,86.93h4.06l5.68,26.3h0.1v-26.3h2.81v35.93h-3.38l-6.35-29.63h-0.1v29.63H95.8V86.93z"/>
	<path class="st0" d="M114.86,117.76V92.87c0-4.11,2.24-6.46,5.99-6.46c3.8,0,5.94,2.34,5.94,6.46v3.96h-2.97v-3.39
		c0-3.02-0.83-4.22-2.92-4.22c-2.14,0-2.92,1.2-2.92,4.22v23.96c0,2.14,0.78,3.18,2.5,3.18c2.14,0,3.33-1.61,3.33-4.53v-10.31h-2.92
		v-2.71h6.04v19.84h-2.66v-2.55h-0.16c-0.83,1.98-2.34,3.07-4.48,3.07C116.63,123.39,114.86,121.25,114.86,117.76z"/>
	<path class="st0" d="M136.22,89.64h-4.37v-2.71h11.87v2.71h-4.37v33.23h-3.12V89.64z"/>
	<path class="st0" d="M149.08,86.93h3.12v15.26h5.88V86.93h3.12v35.93h-3.12V104.9h-5.88v17.97h-3.12V86.93z"/>
	<path class="st0" d="M167.83,86.93h10.31v2.71h-7.19v12.55h6.25v2.71h-6.25v15.26h7.19v2.71h-10.31V86.93z"/>
	<path class="st0" d="M183.72,86.93h4.06l5.68,26.3h0.1v-26.3h2.81v35.93h-3.38l-6.35-29.63h-0.1v29.63h-2.81V86.93z"/>
	<path class="st0" d="M204.19,122.87h-1.25v-4.27h3.54v3.75l-2.29,5.78h-1.82L204.19,122.87z"/>
	<path class="st0" d="M225.33,89.64h-4.37v-2.71h11.87v2.71h-4.37v33.23h-3.12V89.64z"/>
	<path class="st0" d="M237.57,116.88V92.92c0-4.17,2.24-6.51,6.04-6.51s6.04,2.34,6.04,6.51v23.96c0,4.17-2.24,6.51-6.04,6.51
		S237.57,121.04,237.57,116.88z M246.53,116.36V93.44c0-3.02-0.83-4.22-2.92-4.22c-2.13,0-2.92,1.2-2.92,4.22v22.91
		c0,3.02,0.78,4.22,2.92,4.22C245.69,120.57,246.53,119.38,246.53,116.36z"/>
	<path class="st0" d="M256.06,86.93h4.06l5.68,26.3h0.1v-26.3h2.81v35.93h-3.38l-6.35-29.63h-0.1v29.63h-2.81V86.93z"/>
	<path class="st0" d="M275.33,86.93h10.31v2.71h-7.19v12.55h6.25v2.71h-6.25v15.26h7.19v2.71h-10.31V86.93z"/>
	<path class="st0" d="M292.93,122.87h-1.25v-4.27h3.54v3.75l-2.29,5.78h-1.82L292.93,122.87z"/>
	<path class="st0" d="M33.82,137.71h4.11l4.53,35.93h-3.18l-1.04-8.91h-4.9l-1.04,8.91h-3.02L33.82,137.71z M37.94,162.03
		l-2.08-19.37h-0.1l-2.08,19.37H37.94z"/>
	<path class="st0" d="M47.88,137.71h4.06l5.68,26.3h0.1v-26.3h2.81v35.93h-3.38l-6.35-29.63h-0.1v29.63h-2.81V137.71z"/>
	<path class="st0" d="M67.15,137.71h5.94c4.17,0,6.15,2.13,6.15,6.51v22.91c0,4.38-1.98,6.51-6.15,6.51h-5.94V137.71z M72.73,170.94
		c2.6,0,3.39-0.99,3.39-4.32v-21.87c0-3.33-0.78-4.32-3.39-4.32h-2.45v30.52H72.73z"/>
	<path class="st0" d="M94.71,137.71h10.31v2.71h-7.19v13.07h6.25v2.71h-6.25v17.45h-3.12V137.71z"/>
	<path class="st0" d="M110.38,137.71h3.12v35.93h-3.12V137.71z"/>
	<path class="st0" d="M120.12,137.71h5.78c4.17,0,6.15,2.13,6.15,6.51v4.58c0,2.92-0.94,4.69-2.81,5.52v0.1
		c1.87,0.83,2.81,2.6,2.81,5.57v13.64h-3.12v-13.44c0-3.33-0.94-4.32-3.91-4.32h-1.77v17.76h-3.12V137.71z M125.54,153.18
		c2.6,0,3.39-0.99,3.39-4.32v-4.11c0-3.33-0.78-4.32-3.39-4.32h-2.29v12.76H125.54z"/>
	<path class="st0" d="M138.4,137.71h4.95l4.01,26.51h0.1l4.01-26.51h5.16v35.93h-3.12v-32.13h-0.1l-4.84,32.13h-2.45l-4.84-32.13
		h-0.1v32.13h-2.76V137.71z"/>
	<path class="st0" d="M172.36,137.71h4.95l4.01,26.51h0.1l4.01-26.51h5.16v35.93h-3.12v-32.13h-0.1l-4.84,32.13h-2.45l-4.84-32.13
		h-0.1v32.13h-2.76V137.71z"/>
	<path class="st0" d="M197.1,167.87v-30.15h3.12v29.58c0,2.92,0.73,4.06,2.81,4.06c2.08,0,2.81-1.15,2.81-4.06v-29.58h3.02v30.15
		c0,4.01-2.19,6.3-5.88,6.3C199.29,174.17,197.1,171.88,197.1,167.87z"/>
	<path class="st0" d="M214.81,167.76v-6.3h3.02v5.73c0,2.97,0.83,4.17,2.92,4.17c2.14,0,2.97-1.2,2.97-4.17v-5.42
		c0-2.45-0.68-3.65-2.45-4.79l-2.76-1.77c-2.66-1.72-3.7-3.7-3.7-7.19v-4.64c0-3.96,2.14-6.2,5.83-6.2c3.7,0,5.83,2.24,5.83,6.2
		v4.64h-3.02v-4.11c0-2.81-0.78-3.91-2.76-3.91s-2.76,1.09-2.76,3.91v3.91c0,2.45,0.68,3.65,2.45,4.79l2.76,1.77
		c2.66,1.72,3.7,3.7,3.7,7.19v6.2c0,4.11-2.24,6.41-6.04,6.41S214.81,171.88,214.81,167.76z"/>
	<path class="st0" d="M232.57,167.97v-24.58c0-3.96,2.08-6.2,5.83-6.2c3.8,0,5.88,2.24,5.88,6.2v5.88h-2.97v-5.36
		c0-2.81-0.83-3.91-2.81-3.91c-2.03,0-2.81,1.09-2.81,3.91v23.54c0,2.81,0.78,3.91,2.81,3.91c1.98,0,2.81-1.09,2.81-3.91v-7.24h2.97
		v7.76c0,3.96-2.08,6.2-5.88,6.2C234.65,174.17,232.57,171.93,232.57,167.97z"/>
	<path class="st0" d="M250.33,137.71h3.12v33.23h6.67v2.71h-9.79V137.71z"/>
	<path class="st0" d="M265.48,137.71h10.31v2.71h-7.19v12.55h6.25v2.71h-6.25v15.26h7.19v2.71h-10.31V137.71z"/>
	<path class="st0" d="M280.9,167.76v-6.3h3.02v5.73c0,2.97,0.83,4.17,2.92,4.17c2.13,0,2.97-1.2,2.97-4.17v-5.42
		c0-2.45-0.68-3.65-2.45-4.79l-2.76-1.77c-2.66-1.72-3.7-3.7-3.7-7.19v-4.64c0-3.96,2.14-6.2,5.83-6.2c3.7,0,5.83,2.24,5.83,6.2
		v4.64h-3.02v-4.11c0-2.81-0.78-3.91-2.76-3.91s-2.76,1.09-2.76,3.91v3.91c0,2.45,0.68,3.65,2.45,4.79l2.76,1.77
		c2.66,1.72,3.7,3.7,3.7,7.19v6.2c0,4.11-2.24,6.41-6.04,6.41S280.9,171.88,280.9,167.76z"/>
	<path class="st0" d="M298.87,169.38h3.49v4.27h-3.49V169.38z"/>
</g>
</svg>
