<?xml version="1.0" encoding="utf-8"?>
<!-- Generator: Adobe Illustrator 25.2.1, SVG Export Plug-In . SVG Version: 6.00 Build 0)  -->
<svg version="1.1" id="Layer_1" xmlns="http://www.w3.org/2000/svg" xmlns:xlink="http://www.w3.org/1999/xlink" x="0px" y="0px"
	 viewBox="0 0 970 250" style="enable-background:new 0 0 970 250;" xml:space="preserve">
<style type="text/css">
	.st0{fill:#00A9E0;}
	.st1{fill:#FFFFFF;}
</style>
<rect x="28.13" y="200.35" class="st0" width="157.75" height="35.56"/>
<g>
	<path class="st1" d="M44.77,224.69v-12.02h2.92v9.49h4.65v2.53H44.77z"/>
	<path class="st1" d="M55.23,224.69v-12.02h8.08v2.46h-5.28v2.26h4.99v2.33h-4.99v2.5h5.59v2.48H55.23z"/>
	<path class="st1" d="M75.23,224.69l-0.93-2.36h-4.65l-0.88,2.36H65.6l5.04-12.02h2.82l4.99,12.02H75.23z M72,215.88L70.47,220h3.02
		L72,215.88z"/>
	<path class="st1" d="M87.42,224.69l-2.6-4.77h-0.99v4.77h-2.85v-12.02h4.59c2.31,0,4.6,0.88,4.6,3.63c0,1.61-0.95,2.77-2.5,3.24
		l3.14,5.15H87.42z M85.37,215.01h-1.55v2.8h1.38c0.93,0,2.11-0.24,2.11-1.46C87.3,215.23,86.23,215.01,85.37,215.01z"/>
	<path class="st1" d="M101.42,224.69l-4.84-7.86h-0.05l0.07,7.86h-2.82v-12.02h3.31l4.82,7.85h0.05l-0.07-7.85h2.82v12.02H101.42z"
		/>
	<path class="st1" d="M125.4,224.69l0.07-8.51h-0.05l-3.12,8.51h-2.04l-3.04-8.51h-0.05l0.07,8.51h-2.73v-12.02h4.13l2.73,7.71h0.07
		l2.62-7.71h4.19v12.02H125.4z"/>
	<path class="st1" d="M138.23,225.01c-3.75,0-6.54-2.58-6.54-6.38c0-3.86,2.79-6.28,6.54-6.28c3.77,0,6.56,2.43,6.56,6.28
		C144.78,222.43,142,225.01,138.23,225.01z M138.23,214.96c-2.04,0-3.43,1.56-3.43,3.67c0,2.17,1.41,3.74,3.43,3.74
		s3.45-1.56,3.45-3.74C141.68,216.52,140.27,214.96,138.23,214.96z"/>
	<path class="st1" d="M154.67,224.69l-2.6-4.77h-0.99v4.77h-2.85v-12.02h4.59c2.31,0,4.6,0.88,4.6,3.63c0,1.61-0.95,2.77-2.5,3.24
		l3.14,5.15H154.67z M152.62,215.01h-1.55v2.8h1.38c0.93,0,2.11-0.24,2.11-1.46C154.55,215.23,153.48,215.01,152.62,215.01z"/>
	<path class="st1" d="M161.03,224.69v-12.02h8.08v2.46h-5.28v2.26h4.99v2.33h-4.99v2.5h5.59v2.48H161.03z"/>
</g>
</svg>
