<?xml version="1.0" encoding="utf-8"?>
<!-- Generator: Adobe Illustrator 25.2.1, SVG Export Plug-In . SVG Version: 6.00 Build 0)  -->
<svg version="1.1" id="Layer_1" xmlns="http://www.w3.org/2000/svg" xmlns:xlink="http://www.w3.org/1999/xlink" x="0px" y="0px"
	 viewBox="0 0 970 250" style="enable-background:new 0 0 970 250;" xml:space="preserve">
<style type="text/css">
	.st0{fill:#FFFFFF;}
</style>
<g>
	<path class="st0" d="M654.98,208.53h-1.19v-8.51h1.19V208.53z"/>
	<path class="st0" d="M659.67,208.53h-1.23l-2.32-5.7h1.25l1.67,4.48h0.02l1.68-4.48h1.2L659.67,208.53z"/>
	<path class="st0" d="M666.59,204.84c0-0.42-0.13-0.74-0.38-0.94c-0.26-0.2-0.6-0.31-1.02-0.31c-0.32,0-0.62,0.06-0.91,0.19
		s-0.52,0.28-0.71,0.47l-0.6-0.72c0.28-0.26,0.62-0.47,1.03-0.62c0.4-0.15,0.84-0.23,1.3-0.23c0.41,0,0.76,0.06,1.06,0.17
		c0.3,0.12,0.55,0.27,0.74,0.47s0.34,0.44,0.43,0.71c0.1,0.27,0.14,0.57,0.14,0.88v2.49c0,0.19,0.01,0.39,0.02,0.61
		c0.01,0.21,0.03,0.39,0.07,0.52h-1.02c-0.06-0.27-0.1-0.54-0.1-0.82h-0.04c-0.21,0.3-0.47,0.54-0.79,0.71
		c-0.32,0.17-0.69,0.25-1.12,0.25c-0.22,0-0.46-0.03-0.7-0.09c-0.24-0.06-0.47-0.16-0.67-0.29c-0.2-0.14-0.37-0.32-0.5-0.54
		c-0.13-0.22-0.2-0.5-0.2-0.83c0-0.43,0.12-0.78,0.35-1.03c0.23-0.25,0.54-0.45,0.91-0.58c0.38-0.13,0.8-0.22,1.27-0.26
		s0.95-0.06,1.43-0.06V204.84z M666.32,205.81c-0.28,0-0.57,0.01-0.87,0.04c-0.3,0.02-0.57,0.07-0.82,0.14s-0.45,0.18-0.61,0.33
		c-0.16,0.14-0.24,0.34-0.24,0.58c0,0.17,0.03,0.31,0.1,0.42s0.16,0.2,0.27,0.28s0.24,0.12,0.37,0.15c0.14,0.03,0.28,0.04,0.42,0.04
		c0.53,0,0.94-0.16,1.22-0.47c0.29-0.32,0.43-0.71,0.43-1.2v-0.3H666.32z"/>
	<path class="st0" d="M670.58,202.83c0.02,0.14,0.03,0.31,0.04,0.49s0.01,0.33,0.01,0.45h0.04c0.07-0.15,0.17-0.29,0.29-0.43
		c0.12-0.13,0.27-0.25,0.43-0.35c0.16-0.1,0.34-0.18,0.53-0.23c0.19-0.06,0.39-0.08,0.6-0.08c0.37,0,0.69,0.06,0.95,0.19
		c0.26,0.12,0.48,0.29,0.66,0.5c0.18,0.21,0.31,0.45,0.39,0.73c0.08,0.28,0.13,0.58,0.13,0.9v3.53h-1.13v-3.16
		c0-0.23-0.02-0.45-0.05-0.66c-0.04-0.21-0.1-0.39-0.2-0.55c-0.1-0.16-0.23-0.29-0.4-0.38c-0.17-0.1-0.38-0.14-0.65-0.14
		c-0.45,0-0.82,0.17-1.1,0.51c-0.29,0.34-0.43,0.79-0.43,1.36v3.03h-1.13v-4.47c0-0.15,0-0.35-0.01-0.59
		c-0.01-0.24-0.02-0.45-0.04-0.64H670.58z"/>
	<path class="st0" d="M679.98,202.83l1.29,4.35h0.02l1.36-4.35h1.19l1.38,4.35h0.02l1.29-4.35h1.19l-1.89,5.7h-1.18l-1.41-4.28
		h-0.02l-1.39,4.28h-1.18l-1.9-5.7H679.98z"/>
	<path class="st0" d="M692.4,204.84c0-0.42-0.13-0.74-0.38-0.94c-0.26-0.2-0.6-0.31-1.02-0.31c-0.32,0-0.62,0.06-0.91,0.19
		s-0.52,0.28-0.71,0.47l-0.6-0.72c0.28-0.26,0.62-0.47,1.03-0.62c0.4-0.15,0.84-0.23,1.3-0.23c0.41,0,0.76,0.06,1.06,0.17
		c0.3,0.12,0.55,0.27,0.74,0.47s0.34,0.44,0.43,0.71c0.1,0.27,0.14,0.57,0.14,0.88v2.49c0,0.19,0.01,0.39,0.02,0.61
		c0.01,0.21,0.03,0.39,0.07,0.52h-1.02c-0.06-0.27-0.1-0.54-0.1-0.82h-0.04c-0.21,0.3-0.47,0.54-0.79,0.71
		c-0.32,0.17-0.69,0.25-1.12,0.25c-0.22,0-0.46-0.03-0.7-0.09c-0.24-0.06-0.47-0.16-0.67-0.29c-0.2-0.14-0.37-0.32-0.5-0.54
		c-0.13-0.22-0.2-0.5-0.2-0.83c0-0.43,0.12-0.78,0.35-1.03c0.23-0.25,0.54-0.45,0.91-0.58c0.38-0.13,0.8-0.22,1.27-0.26
		s0.95-0.06,1.43-0.06V204.84z M692.12,205.81c-0.28,0-0.57,0.01-0.87,0.04c-0.3,0.02-0.57,0.07-0.82,0.14s-0.45,0.18-0.61,0.33
		c-0.16,0.14-0.24,0.34-0.24,0.58c0,0.17,0.03,0.31,0.1,0.42s0.16,0.2,0.27,0.28s0.24,0.12,0.37,0.15c0.14,0.03,0.28,0.04,0.42,0.04
		c0.53,0,0.94-0.16,1.22-0.47c0.29-0.32,0.43-0.71,0.43-1.2v-0.3H692.12z"/>
	<path class="st0" d="M698.44,204.27c-0.13-0.21-0.31-0.38-0.54-0.51c-0.23-0.13-0.49-0.2-0.78-0.2c-0.13,0-0.26,0.01-0.38,0.04
		c-0.13,0.03-0.24,0.07-0.34,0.13c-0.1,0.06-0.18,0.14-0.24,0.23c-0.06,0.09-0.09,0.21-0.09,0.34c0,0.24,0.11,0.42,0.32,0.54
		c0.22,0.12,0.54,0.22,0.97,0.32c0.27,0.06,0.52,0.14,0.76,0.23s0.43,0.2,0.61,0.33c0.17,0.13,0.31,0.29,0.4,0.47
		c0.1,0.18,0.14,0.4,0.14,0.65c0,0.34-0.06,0.62-0.19,0.85c-0.13,0.23-0.3,0.42-0.51,0.57c-0.21,0.15-0.46,0.25-0.73,0.32
		c-0.27,0.06-0.55,0.1-0.84,0.1c-0.43,0-0.86-0.08-1.27-0.25c-0.41-0.17-0.75-0.42-1.03-0.77l0.81-0.69
		c0.15,0.22,0.36,0.41,0.63,0.57c0.27,0.15,0.56,0.23,0.88,0.23c0.14,0,0.28-0.01,0.42-0.04c0.13-0.03,0.25-0.07,0.36-0.14
		s0.19-0.15,0.26-0.25c0.06-0.1,0.1-0.24,0.1-0.4c0-0.26-0.13-0.46-0.38-0.59c-0.25-0.13-0.62-0.25-1.11-0.36
		c-0.19-0.05-0.39-0.11-0.58-0.17s-0.38-0.16-0.54-0.28s-0.29-0.27-0.39-0.45c-0.1-0.18-0.15-0.4-0.15-0.67
		c0-0.3,0.06-0.57,0.19-0.79c0.12-0.22,0.29-0.4,0.49-0.54c0.2-0.14,0.43-0.24,0.68-0.31c0.26-0.07,0.52-0.1,0.79-0.1
		c0.41,0,0.8,0.08,1.18,0.24c0.38,0.16,0.67,0.39,0.88,0.7L698.44,204.27z"/>
	<path class="st0" d="M706.49,203.76h-1.51v2.96c0,0.34,0.06,0.59,0.19,0.74c0.13,0.15,0.33,0.22,0.61,0.22
		c0.1,0,0.22-0.01,0.34-0.03c0.12-0.02,0.23-0.05,0.32-0.1l0.04,0.92c-0.14,0.05-0.29,0.09-0.45,0.11
		c-0.16,0.03-0.33,0.04-0.51,0.04c-0.54,0-0.95-0.15-1.23-0.44c-0.29-0.3-0.43-0.74-0.43-1.33v-3.09h-1.09v-0.92h1.09v-1.63h1.12
		v1.63h1.51V203.76z"/>
	<path class="st0" d="M707.65,203.47c-0.01-0.24-0.02-0.45-0.04-0.64h1.07c0.02,0.14,0.03,0.31,0.04,0.5
		c0.01,0.19,0.01,0.34,0.01,0.46h0.04c0.16-0.34,0.39-0.61,0.7-0.81c0.31-0.2,0.66-0.31,1.04-0.31c0.18,0,0.32,0.02,0.44,0.05
		l-0.05,1.05c-0.16-0.04-0.33-0.06-0.52-0.06c-0.27,0-0.51,0.05-0.71,0.15c-0.2,0.1-0.37,0.23-0.5,0.4
		c-0.13,0.17-0.23,0.36-0.29,0.58s-0.1,0.45-0.1,0.69v2.99h-1.13v-4.47C707.66,203.9,707.66,203.71,707.65,203.47z"/>
	<path class="st0" d="M717.12,205.63c0,0.06,0,0.13,0,0.19s0,0.13-0.01,0.19h-4.53c0.01,0.24,0.06,0.46,0.16,0.67
		c0.1,0.21,0.23,0.39,0.4,0.55c0.17,0.16,0.36,0.28,0.58,0.36c0.22,0.09,0.46,0.13,0.7,0.13c0.38,0,0.72-0.08,1-0.25
		c0.28-0.17,0.5-0.37,0.66-0.61l0.79,0.64c-0.3,0.4-0.66,0.7-1.08,0.89c-0.41,0.19-0.87,0.29-1.38,0.29c-0.43,0-0.83-0.07-1.2-0.22
		c-0.37-0.14-0.68-0.35-0.95-0.61s-0.47-0.58-0.62-0.94s-0.23-0.78-0.23-1.23c0-0.44,0.07-0.85,0.22-1.22
		c0.15-0.37,0.36-0.69,0.62-0.96c0.26-0.26,0.58-0.47,0.94-0.62c0.36-0.15,0.75-0.22,1.17-0.22c0.42,0,0.8,0.07,1.14,0.2
		c0.34,0.14,0.63,0.33,0.87,0.59c0.24,0.26,0.42,0.57,0.55,0.93C717.05,204.76,717.12,205.17,717.12,205.63z M715.96,205.17
		c-0.01-0.22-0.05-0.43-0.11-0.63c-0.07-0.2-0.17-0.37-0.3-0.51c-0.13-0.14-0.3-0.26-0.49-0.34c-0.2-0.08-0.43-0.13-0.69-0.13
		c-0.24,0-0.47,0.04-0.68,0.13c-0.21,0.08-0.4,0.2-0.55,0.34c-0.16,0.14-0.28,0.31-0.38,0.51c-0.1,0.2-0.16,0.41-0.17,0.63H715.96z"
		/>
	<path class="st0" d="M722.15,204.84c0-0.42-0.13-0.74-0.38-0.94c-0.26-0.2-0.6-0.31-1.02-0.31c-0.32,0-0.62,0.06-0.91,0.19
		s-0.52,0.28-0.71,0.47l-0.6-0.72c0.28-0.26,0.62-0.47,1.03-0.62c0.4-0.15,0.84-0.23,1.3-0.23c0.41,0,0.76,0.06,1.06,0.17
		c0.3,0.12,0.55,0.27,0.74,0.47s0.34,0.44,0.43,0.71c0.1,0.27,0.14,0.57,0.14,0.88v2.49c0,0.19,0.01,0.39,0.02,0.61
		c0.01,0.21,0.03,0.39,0.07,0.52h-1.02c-0.06-0.27-0.1-0.54-0.1-0.82h-0.04c-0.21,0.3-0.47,0.54-0.79,0.71
		c-0.32,0.17-0.69,0.25-1.12,0.25c-0.22,0-0.46-0.03-0.7-0.09c-0.24-0.06-0.47-0.16-0.67-0.29c-0.2-0.14-0.37-0.32-0.5-0.54
		c-0.13-0.22-0.2-0.5-0.2-0.83c0-0.43,0.12-0.78,0.35-1.03c0.23-0.25,0.54-0.45,0.91-0.58c0.38-0.13,0.8-0.22,1.27-0.26
		s0.95-0.06,1.43-0.06V204.84z M721.88,205.81c-0.28,0-0.57,0.01-0.87,0.04c-0.3,0.02-0.57,0.07-0.82,0.14s-0.45,0.18-0.61,0.33
		c-0.16,0.14-0.24,0.34-0.24,0.58c0,0.17,0.03,0.31,0.1,0.42s0.16,0.2,0.27,0.28s0.24,0.12,0.37,0.15c0.14,0.03,0.28,0.04,0.42,0.04
		c0.53,0,0.94-0.16,1.22-0.47c0.29-0.32,0.43-0.71,0.43-1.2v-0.3H721.88z"/>
	<path class="st0" d="M727.79,203.76h-1.51v2.96c0,0.34,0.06,0.59,0.19,0.74c0.13,0.15,0.33,0.22,0.61,0.22
		c0.1,0,0.22-0.01,0.34-0.03c0.12-0.02,0.23-0.05,0.32-0.1l0.04,0.92c-0.14,0.05-0.29,0.09-0.45,0.11
		c-0.16,0.03-0.33,0.04-0.51,0.04c-0.54,0-0.95-0.15-1.23-0.44c-0.29-0.3-0.43-0.74-0.43-1.33v-3.09h-1.09v-0.92h1.09v-1.63h1.12
		v1.63h1.51V203.76z"/>
	<path class="st0" d="M734.28,205.63c0,0.06,0,0.13,0,0.19s0,0.13-0.01,0.19h-4.53c0.01,0.24,0.06,0.46,0.16,0.67
		c0.1,0.21,0.23,0.39,0.4,0.55c0.17,0.16,0.36,0.28,0.58,0.36c0.22,0.09,0.46,0.13,0.7,0.13c0.38,0,0.72-0.08,1-0.25
		c0.28-0.17,0.5-0.37,0.66-0.61l0.79,0.64c-0.3,0.4-0.66,0.7-1.08,0.89c-0.41,0.19-0.87,0.29-1.38,0.29c-0.43,0-0.83-0.07-1.2-0.22
		c-0.37-0.14-0.68-0.35-0.95-0.61s-0.47-0.58-0.62-0.94s-0.23-0.78-0.23-1.23c0-0.44,0.07-0.85,0.22-1.22
		c0.15-0.37,0.36-0.69,0.62-0.96c0.26-0.26,0.58-0.47,0.94-0.62c0.36-0.15,0.75-0.22,1.17-0.22c0.42,0,0.8,0.07,1.14,0.2
		c0.34,0.14,0.63,0.33,0.87,0.59c0.24,0.26,0.42,0.57,0.55,0.93C734.22,204.76,734.28,205.17,734.28,205.63z M733.13,205.17
		c-0.01-0.22-0.05-0.43-0.11-0.63c-0.07-0.2-0.17-0.37-0.3-0.51c-0.13-0.14-0.3-0.26-0.49-0.34c-0.2-0.08-0.43-0.13-0.69-0.13
		c-0.24,0-0.47,0.04-0.68,0.13c-0.21,0.08-0.4,0.2-0.55,0.34c-0.16,0.14-0.28,0.31-0.38,0.51c-0.1,0.2-0.16,0.41-0.17,0.63H733.13z"
		/>
	<path class="st0" d="M740.39,207.63c-0.22,0.34-0.51,0.61-0.88,0.79c-0.37,0.18-0.76,0.27-1.17,0.27c-0.44,0-0.84-0.08-1.19-0.23
		s-0.65-0.37-0.9-0.64s-0.44-0.59-0.58-0.96c-0.14-0.37-0.2-0.76-0.2-1.18s0.07-0.81,0.2-1.17c0.14-0.36,0.33-0.68,0.58-0.96
		c0.25-0.27,0.55-0.49,0.91-0.64c0.35-0.15,0.74-0.23,1.17-0.23c0.46,0,0.87,0.1,1.21,0.29s0.62,0.43,0.82,0.71h0.02v-4.24h1.13
		v9.09h-1.09v-0.9H740.39z M736.64,205.67c0,0.26,0.04,0.52,0.12,0.77c0.08,0.25,0.2,0.47,0.36,0.66c0.16,0.19,0.36,0.35,0.59,0.46
		s0.5,0.17,0.82,0.17c0.29,0,0.55-0.06,0.79-0.17s0.44-0.26,0.61-0.45s0.3-0.41,0.39-0.65c0.09-0.25,0.14-0.51,0.14-0.78
		c0-0.27-0.05-0.53-0.14-0.78c-0.09-0.25-0.22-0.47-0.39-0.66s-0.37-0.34-0.61-0.46c-0.24-0.11-0.5-0.17-0.79-0.17
		c-0.31,0-0.58,0.06-0.82,0.17c-0.23,0.11-0.43,0.26-0.59,0.46s-0.28,0.41-0.36,0.66C736.68,205.15,736.64,205.41,736.64,205.67z"/>
	<path class="st0" d="M746.9,202.83l1.29,4.35h0.02l1.36-4.35h1.19l1.38,4.35h0.02l1.29-4.35h1.19l-1.89,5.7h-1.18l-1.41-4.28h-0.02
		l-1.39,4.28h-1.18l-1.9-5.7H746.9z"/>
	<path class="st0" d="M757.09,200.78c0,0.21-0.07,0.38-0.22,0.52c-0.15,0.14-0.32,0.21-0.53,0.21c-0.21,0-0.38-0.07-0.52-0.21
		c-0.14-0.14-0.21-0.31-0.21-0.51c0-0.21,0.07-0.38,0.21-0.52c0.14-0.14,0.32-0.21,0.52-0.21c0.21,0,0.38,0.07,0.53,0.21
		C757.02,200.39,757.09,200.57,757.09,200.78z M756.91,208.53h-1.13v-5.7h1.13V208.53z"/>
	<path class="st0" d="M761.67,203.76h-1.51v2.96c0,0.34,0.06,0.59,0.19,0.74c0.13,0.15,0.33,0.22,0.61,0.22
		c0.1,0,0.22-0.01,0.34-0.03c0.12-0.02,0.23-0.05,0.32-0.1l0.04,0.92c-0.14,0.05-0.29,0.09-0.45,0.11
		c-0.16,0.03-0.33,0.04-0.51,0.04c-0.54,0-0.95-0.15-1.23-0.44c-0.29-0.3-0.43-0.74-0.43-1.33v-3.09h-1.09v-0.92h1.09v-1.63h1.12
		v1.63h1.51V203.76z"/>
	<path class="st0" d="M764.01,203.7c0.14-0.28,0.37-0.52,0.7-0.72c0.33-0.2,0.7-0.3,1.11-0.3c0.37,0,0.68,0.06,0.95,0.19
		c0.26,0.12,0.48,0.29,0.66,0.5c0.18,0.21,0.31,0.45,0.39,0.73s0.13,0.58,0.13,0.9v3.53h-1.13v-3.16c0-0.23-0.02-0.45-0.05-0.66
		s-0.1-0.39-0.2-0.55c-0.1-0.16-0.23-0.29-0.39-0.39s-0.38-0.14-0.64-0.14c-0.45,0-0.82,0.17-1.11,0.51
		c-0.29,0.34-0.43,0.8-0.43,1.37v3.02h-1.13v-9.09h1.13v4.25H764.01z"/>
	<path class="st0" d="M621.72,220.73c-0.34,0.46-0.77,0.83-1.31,1.11c-0.54,0.28-1.18,0.43-1.93,0.43c-0.65,0-1.25-0.11-1.8-0.33
		c-0.55-0.22-1.02-0.53-1.42-0.93c-0.4-0.4-0.71-0.87-0.93-1.42s-0.34-1.15-0.34-1.81c0-0.67,0.11-1.27,0.34-1.82
		s0.54-1.02,0.95-1.41c0.41-0.39,0.88-0.69,1.44-0.91c0.55-0.22,1.15-0.33,1.8-0.33c0.29,0,0.58,0.03,0.88,0.08
		c0.3,0.06,0.58,0.14,0.85,0.25s0.52,0.25,0.75,0.41c0.22,0.17,0.42,0.35,0.58,0.57l-0.94,0.72c-0.21-0.29-0.5-0.53-0.88-0.71
		c-0.38-0.19-0.79-0.28-1.23-0.28c-0.5,0-0.94,0.09-1.34,0.27c-0.4,0.18-0.74,0.43-1.02,0.74s-0.5,0.67-0.65,1.09
		c-0.15,0.41-0.23,0.85-0.23,1.32c0,0.48,0.07,0.93,0.22,1.35c0.15,0.42,0.36,0.78,0.64,1.09s0.61,0.55,1.01,0.73
		c0.4,0.18,0.84,0.26,1.33,0.26c0.48,0,0.92-0.1,1.31-0.29c0.39-0.19,0.72-0.47,0.97-0.84L621.72,220.73z"/>
	<path class="st0" d="M628.5,219.19c0,0.44-0.08,0.85-0.23,1.21s-0.37,0.69-0.65,0.96c-0.28,0.27-0.6,0.48-0.98,0.62
		c-0.38,0.15-0.78,0.22-1.21,0.22s-0.84-0.07-1.21-0.22c-0.38-0.15-0.7-0.36-0.97-0.62c-0.27-0.27-0.49-0.59-0.64-0.96
		s-0.23-0.77-0.23-1.21s0.08-0.84,0.23-1.21c0.16-0.36,0.37-0.68,0.64-0.94s0.6-0.47,0.97-0.62c0.38-0.15,0.78-0.22,1.21-0.22
		s0.84,0.07,1.21,0.22c0.38,0.15,0.7,0.35,0.98,0.62s0.49,0.58,0.65,0.94C628.42,218.34,628.5,218.75,628.5,219.19z M627.32,219.19
		c0-0.27-0.04-0.53-0.13-0.78c-0.08-0.25-0.21-0.47-0.37-0.65s-0.36-0.34-0.6-0.45c-0.24-0.11-0.51-0.17-0.81-0.17
		c-0.3,0-0.58,0.06-0.81,0.17c-0.24,0.11-0.44,0.26-0.6,0.45s-0.28,0.41-0.37,0.65c-0.08,0.25-0.13,0.51-0.13,0.78
		s0.04,0.53,0.13,0.78c0.08,0.25,0.21,0.47,0.37,0.66c0.16,0.19,0.36,0.34,0.6,0.46s0.51,0.17,0.81,0.17c0.31,0,0.58-0.06,0.81-0.17
		c0.24-0.11,0.44-0.26,0.6-0.46c0.16-0.19,0.28-0.41,0.37-0.66C627.28,219.72,627.32,219.46,627.32,219.19z"/>
	<path class="st0" d="M635.83,219.19c0,0.44-0.08,0.85-0.23,1.21s-0.37,0.69-0.65,0.96c-0.28,0.27-0.6,0.48-0.98,0.62
		c-0.38,0.15-0.78,0.22-1.21,0.22s-0.84-0.07-1.21-0.22c-0.38-0.15-0.7-0.36-0.97-0.62c-0.27-0.27-0.49-0.59-0.64-0.96
		s-0.23-0.77-0.23-1.21s0.08-0.84,0.23-1.21c0.16-0.36,0.37-0.68,0.64-0.94s0.6-0.47,0.97-0.62c0.38-0.15,0.78-0.22,1.21-0.22
		s0.84,0.07,1.21,0.22c0.38,0.15,0.7,0.35,0.98,0.62s0.49,0.58,0.65,0.94C635.75,218.34,635.83,218.75,635.83,219.19z
		 M634.65,219.19c0-0.27-0.04-0.53-0.13-0.78c-0.08-0.25-0.21-0.47-0.37-0.65s-0.36-0.34-0.6-0.45c-0.24-0.11-0.51-0.17-0.81-0.17
		c-0.3,0-0.58,0.06-0.81,0.17c-0.24,0.11-0.44,0.26-0.6,0.45s-0.28,0.41-0.37,0.65c-0.08,0.25-0.13,0.51-0.13,0.78
		s0.04,0.53,0.13,0.78c0.08,0.25,0.21,0.47,0.37,0.66c0.16,0.19,0.36,0.34,0.6,0.46s0.51,0.17,0.81,0.17c0.31,0,0.58-0.06,0.81-0.17
		c0.24-0.11,0.44-0.26,0.6-0.46c0.16-0.19,0.28-0.41,0.37-0.66C634.61,219.72,634.65,219.46,634.65,219.19z"/>
	<path class="st0" d="M638.54,222.05h-1.13v-9.09h1.13V222.05z"/>
	<path class="st0" d="M643.55,222.05h-1.19v-7.46h-2.73v-1.04h6.65v1.04h-2.73V222.05z"/>
	<path class="st0" d="M651.97,219.19c0,0.44-0.08,0.85-0.23,1.21s-0.37,0.69-0.65,0.96c-0.28,0.27-0.6,0.48-0.98,0.62
		c-0.38,0.15-0.78,0.22-1.21,0.22s-0.84-0.07-1.21-0.22c-0.38-0.15-0.7-0.36-0.97-0.62c-0.27-0.27-0.49-0.59-0.64-0.96
		s-0.23-0.77-0.23-1.21s0.08-0.84,0.23-1.21c0.16-0.36,0.37-0.68,0.64-0.94s0.6-0.47,0.97-0.62c0.38-0.15,0.78-0.22,1.21-0.22
		s0.84,0.07,1.21,0.22c0.38,0.15,0.7,0.35,0.98,0.62s0.49,0.58,0.65,0.94C651.89,218.34,651.97,218.75,651.97,219.19z
		 M650.79,219.19c0-0.27-0.04-0.53-0.13-0.78c-0.08-0.25-0.21-0.47-0.37-0.65s-0.36-0.34-0.6-0.45c-0.24-0.11-0.51-0.17-0.81-0.17
		c-0.3,0-0.58,0.06-0.81,0.17c-0.24,0.11-0.44,0.26-0.6,0.45s-0.28,0.41-0.37,0.65c-0.08,0.25-0.13,0.51-0.13,0.78
		s0.04,0.53,0.13,0.78c0.08,0.25,0.21,0.47,0.37,0.66c0.16,0.19,0.36,0.34,0.6,0.46s0.51,0.17,0.81,0.17c0.31,0,0.58-0.06,0.81-0.17
		c0.24-0.11,0.44-0.26,0.6-0.46c0.16-0.19,0.28-0.41,0.37-0.66C650.75,219.72,650.79,219.46,650.79,219.19z"/>
	<path class="st0" d="M654.55,216.35c0.02,0.14,0.03,0.31,0.04,0.49s0.01,0.33,0.01,0.45h0.04c0.07-0.15,0.17-0.29,0.29-0.43
		c0.12-0.13,0.27-0.25,0.43-0.35c0.16-0.1,0.34-0.18,0.53-0.23c0.19-0.06,0.39-0.08,0.6-0.08c0.37,0,0.69,0.06,0.95,0.19
		c0.26,0.12,0.48,0.29,0.66,0.5c0.18,0.21,0.31,0.45,0.39,0.73c0.08,0.28,0.13,0.58,0.13,0.9v3.53h-1.13v-3.16
		c0-0.23-0.02-0.45-0.05-0.66c-0.04-0.21-0.1-0.39-0.2-0.55c-0.1-0.16-0.23-0.29-0.4-0.38c-0.17-0.1-0.38-0.14-0.65-0.14
		c-0.45,0-0.82,0.17-1.1,0.51c-0.29,0.34-0.43,0.79-0.43,1.36v3.03h-1.13v-4.47c0-0.15,0-0.35-0.01-0.59
		c-0.01-0.24-0.02-0.45-0.04-0.64H654.55z"/>
	<path class="st0" d="M665.85,219.15c0,0.06,0,0.13,0,0.19s0,0.13-0.01,0.19h-4.53c0.01,0.24,0.06,0.46,0.16,0.67
		c0.1,0.21,0.23,0.39,0.4,0.55c0.17,0.16,0.36,0.28,0.58,0.36c0.22,0.09,0.46,0.13,0.7,0.13c0.38,0,0.72-0.08,1-0.25
		c0.28-0.17,0.5-0.37,0.66-0.61l0.79,0.64c-0.3,0.4-0.66,0.7-1.08,0.89c-0.41,0.19-0.87,0.29-1.38,0.29c-0.43,0-0.83-0.07-1.2-0.22
		c-0.37-0.14-0.68-0.35-0.95-0.61s-0.47-0.58-0.62-0.94s-0.23-0.78-0.23-1.23c0-0.44,0.07-0.85,0.22-1.22
		c0.15-0.37,0.36-0.69,0.62-0.96c0.26-0.26,0.58-0.47,0.94-0.62c0.36-0.15,0.75-0.22,1.17-0.22c0.42,0,0.8,0.07,1.14,0.2
		c0.34,0.14,0.63,0.33,0.87,0.59c0.24,0.26,0.42,0.57,0.55,0.93C665.78,218.28,665.85,218.69,665.85,219.15z M664.69,218.69
		c-0.01-0.22-0.05-0.43-0.11-0.63c-0.07-0.2-0.17-0.37-0.3-0.51c-0.13-0.14-0.3-0.26-0.49-0.34c-0.2-0.08-0.43-0.13-0.69-0.13
		c-0.24,0-0.47,0.04-0.68,0.13c-0.21,0.08-0.4,0.2-0.55,0.34c-0.16,0.14-0.28,0.31-0.38,0.51c-0.1,0.2-0.16,0.41-0.17,0.63H664.69z"
		/>
	<path class="st0" d="M667.3,216.12c0-0.38,0.07-0.73,0.22-1.06c0.14-0.33,0.34-0.62,0.59-0.87c0.25-0.25,0.54-0.44,0.87-0.58
		c0.33-0.14,0.69-0.22,1.06-0.22s0.73,0.07,1.06,0.22c0.33,0.14,0.62,0.34,0.87,0.58c0.25,0.24,0.45,0.53,0.59,0.87
		c0.14,0.33,0.22,0.69,0.22,1.06c0,0.38-0.07,0.73-0.22,1.06c-0.14,0.33-0.34,0.62-0.59,0.86c-0.25,0.24-0.54,0.44-0.87,0.58
		c-0.33,0.14-0.69,0.21-1.06,0.21s-0.73-0.07-1.06-0.21c-0.33-0.14-0.62-0.33-0.87-0.58c-0.25-0.24-0.45-0.53-0.59-0.86
		C667.37,216.85,667.3,216.5,667.3,216.12z M667.73,216.12c0,0.31,0.06,0.61,0.18,0.89c0.12,0.28,0.28,0.53,0.49,0.74
		c0.21,0.21,0.45,0.38,0.73,0.5s0.58,0.18,0.9,0.18s0.62-0.06,0.9-0.18s0.52-0.29,0.73-0.5c0.21-0.21,0.37-0.46,0.49-0.74
		c0.12-0.28,0.18-0.58,0.18-0.89c0-0.32-0.06-0.62-0.18-0.9s-0.28-0.53-0.49-0.73c-0.21-0.21-0.45-0.37-0.73-0.49
		c-0.28-0.12-0.58-0.18-0.9-0.18s-0.62,0.06-0.9,0.18c-0.28,0.12-0.52,0.29-0.73,0.49c-0.21,0.21-0.37,0.45-0.49,0.73
		S667.73,215.8,667.73,216.12z M670.7,217.62l-0.66-1.19h-0.43v1.19h-0.73v-3.08h1.32c0.14,0,0.28,0.02,0.42,0.05
		c0.14,0.03,0.26,0.08,0.37,0.16s0.2,0.17,0.27,0.29c0.07,0.12,0.1,0.28,0.1,0.46c0,0.21-0.06,0.38-0.17,0.52
		c-0.12,0.14-0.26,0.24-0.44,0.3l0.82,1.3H670.7z M670.17,215.91c0.11,0,0.21-0.04,0.31-0.11c0.09-0.07,0.14-0.17,0.14-0.29
		c0-0.13-0.05-0.22-0.16-0.28c-0.1-0.06-0.2-0.08-0.29-0.08h-0.56v0.76H670.17z"/>
	<path class="st0" d="M683.39,219.19c0,0.44-0.08,0.85-0.23,1.21s-0.37,0.69-0.65,0.96c-0.28,0.27-0.6,0.48-0.98,0.62
		c-0.38,0.15-0.78,0.22-1.21,0.22s-0.84-0.07-1.21-0.22c-0.38-0.15-0.7-0.36-0.97-0.62c-0.27-0.27-0.49-0.59-0.64-0.96
		s-0.23-0.77-0.23-1.21s0.08-0.84,0.23-1.21c0.16-0.36,0.37-0.68,0.64-0.94s0.6-0.47,0.97-0.62c0.38-0.15,0.78-0.22,1.21-0.22
		s0.84,0.07,1.21,0.22c0.38,0.15,0.7,0.35,0.98,0.62s0.49,0.58,0.65,0.94C683.32,218.34,683.39,218.75,683.39,219.19z
		 M682.22,219.19c0-0.27-0.04-0.53-0.13-0.78c-0.08-0.25-0.21-0.47-0.37-0.65s-0.36-0.34-0.6-0.45c-0.24-0.11-0.51-0.17-0.81-0.17
		c-0.3,0-0.58,0.06-0.81,0.17c-0.24,0.11-0.44,0.26-0.6,0.45s-0.28,0.41-0.37,0.65c-0.08,0.25-0.13,0.51-0.13,0.78
		s0.04,0.53,0.13,0.78c0.08,0.25,0.21,0.47,0.37,0.66c0.16,0.19,0.36,0.34,0.6,0.46s0.51,0.17,0.81,0.17c0.31,0,0.58-0.06,0.81-0.17
		c0.24-0.11,0.44-0.26,0.6-0.46c0.16-0.19,0.28-0.41,0.37-0.66C682.17,219.72,682.22,219.46,682.22,219.19z"/>
	<path class="st0" d="M685.98,216.35c0.02,0.14,0.03,0.31,0.04,0.49s0.01,0.33,0.01,0.45h0.04c0.07-0.15,0.17-0.29,0.29-0.43
		c0.12-0.13,0.27-0.25,0.43-0.35c0.16-0.1,0.34-0.18,0.53-0.23c0.19-0.06,0.39-0.08,0.6-0.08c0.37,0,0.69,0.06,0.95,0.19
		c0.26,0.12,0.48,0.29,0.66,0.5c0.18,0.21,0.31,0.45,0.39,0.73c0.08,0.28,0.13,0.58,0.13,0.9v3.53h-1.13v-3.16
		c0-0.23-0.02-0.45-0.05-0.66c-0.04-0.21-0.1-0.39-0.2-0.55c-0.1-0.16-0.23-0.29-0.4-0.38c-0.17-0.1-0.38-0.14-0.65-0.14
		c-0.45,0-0.82,0.17-1.1,0.51c-0.29,0.34-0.43,0.79-0.43,1.36v3.03h-1.13v-4.47c0-0.15,0-0.35-0.01-0.59
		c-0.01-0.24-0.02-0.45-0.04-0.64H685.98z"/>
	<path class="st0" d="M696.13,217.22c0.14-0.28,0.37-0.52,0.7-0.72c0.33-0.2,0.7-0.3,1.11-0.3c0.37,0,0.68,0.06,0.95,0.19
		c0.26,0.12,0.48,0.29,0.66,0.5c0.18,0.21,0.31,0.45,0.39,0.73s0.13,0.58,0.13,0.9v3.53h-1.13v-3.16c0-0.23-0.02-0.45-0.05-0.66
		s-0.1-0.39-0.2-0.55c-0.1-0.16-0.23-0.29-0.39-0.39s-0.38-0.14-0.64-0.14c-0.45,0-0.82,0.17-1.11,0.51
		c-0.29,0.34-0.43,0.8-0.43,1.37v3.02h-1.13v-9.09h1.13v4.25H696.13z"/>
	<path class="st0" d="M703.3,214.3c0,0.21-0.07,0.38-0.22,0.52c-0.15,0.14-0.32,0.21-0.53,0.21c-0.21,0-0.38-0.07-0.52-0.21
		c-0.14-0.14-0.21-0.31-0.21-0.51c0-0.21,0.07-0.38,0.21-0.52c0.14-0.14,0.32-0.21,0.52-0.21c0.21,0,0.38,0.07,0.53,0.21
		C703.22,213.91,703.3,214.09,703.3,214.3z M703.12,222.05h-1.13v-5.7h1.13V222.05z"/>
	<path class="st0" d="M708.16,217.79c-0.13-0.21-0.31-0.38-0.54-0.51c-0.23-0.13-0.49-0.2-0.78-0.2c-0.13,0-0.26,0.01-0.38,0.04
		c-0.13,0.03-0.24,0.07-0.34,0.13c-0.1,0.06-0.18,0.14-0.24,0.23c-0.06,0.09-0.09,0.21-0.09,0.34c0,0.24,0.11,0.42,0.32,0.54
		c0.22,0.12,0.54,0.22,0.97,0.32c0.27,0.06,0.52,0.14,0.76,0.23s0.43,0.2,0.61,0.33c0.17,0.13,0.31,0.29,0.4,0.47
		c0.1,0.18,0.14,0.4,0.14,0.65c0,0.34-0.06,0.62-0.19,0.85c-0.13,0.23-0.3,0.42-0.51,0.57c-0.21,0.15-0.46,0.25-0.73,0.32
		c-0.27,0.06-0.55,0.1-0.84,0.1c-0.43,0-0.86-0.08-1.27-0.25c-0.41-0.17-0.75-0.42-1.03-0.77l0.81-0.69
		c0.15,0.22,0.36,0.41,0.63,0.57c0.27,0.15,0.56,0.23,0.88,0.23c0.14,0,0.28-0.01,0.42-0.04c0.13-0.03,0.25-0.07,0.36-0.14
		s0.19-0.15,0.26-0.25c0.06-0.1,0.1-0.24,0.1-0.4c0-0.26-0.13-0.46-0.38-0.59c-0.25-0.13-0.62-0.25-1.11-0.36
		c-0.19-0.05-0.39-0.11-0.58-0.17s-0.38-0.16-0.54-0.28s-0.29-0.27-0.39-0.45c-0.1-0.18-0.15-0.4-0.15-0.67
		c0-0.3,0.06-0.57,0.19-0.79c0.12-0.22,0.29-0.4,0.49-0.54c0.2-0.14,0.43-0.24,0.68-0.31c0.26-0.07,0.52-0.1,0.79-0.1
		c0.41,0,0.8,0.08,1.18,0.24c0.38,0.16,0.67,0.39,0.88,0.7L708.16,217.79z"/>
	<path class="st0" d="M716.97,218.36c0-0.42-0.13-0.74-0.38-0.94c-0.26-0.2-0.6-0.31-1.02-0.31c-0.32,0-0.62,0.06-0.91,0.19
		s-0.52,0.28-0.71,0.47l-0.6-0.72c0.28-0.26,0.62-0.47,1.03-0.62c0.4-0.15,0.84-0.23,1.3-0.23c0.41,0,0.76,0.06,1.06,0.17
		c0.3,0.12,0.55,0.27,0.74,0.47s0.34,0.44,0.43,0.71c0.1,0.27,0.14,0.57,0.14,0.88v2.49c0,0.19,0.01,0.39,0.02,0.61
		c0.01,0.21,0.03,0.39,0.07,0.52h-1.02c-0.06-0.27-0.1-0.54-0.1-0.82h-0.04c-0.21,0.3-0.47,0.54-0.79,0.71
		c-0.32,0.17-0.69,0.25-1.12,0.25c-0.22,0-0.46-0.03-0.7-0.09c-0.24-0.06-0.47-0.16-0.67-0.29c-0.2-0.14-0.37-0.32-0.5-0.54
		c-0.13-0.22-0.2-0.5-0.2-0.83c0-0.43,0.12-0.78,0.35-1.03c0.23-0.25,0.54-0.45,0.91-0.58c0.38-0.13,0.8-0.22,1.27-0.26
		s0.95-0.06,1.43-0.06V218.36z M716.7,219.33c-0.28,0-0.57,0.01-0.87,0.04c-0.3,0.02-0.57,0.07-0.82,0.14s-0.45,0.18-0.61,0.33
		c-0.16,0.14-0.24,0.34-0.24,0.58c0,0.17,0.03,0.31,0.1,0.42s0.16,0.2,0.27,0.28s0.24,0.12,0.37,0.15c0.14,0.03,0.28,0.04,0.42,0.04
		c0.53,0,0.94-0.16,1.22-0.47c0.29-0.32,0.43-0.71,0.43-1.2v-0.3H716.7z"/>
	<path class="st0" d="M721.06,221.15v0.9h-1.09v-9.09h1.13v4.24h0.04c0.19-0.28,0.46-0.52,0.8-0.71s0.75-0.29,1.22-0.29
		c0.42,0,0.81,0.08,1.16,0.23c0.35,0.15,0.65,0.37,0.9,0.64s0.45,0.59,0.58,0.96c0.14,0.37,0.2,0.75,0.2,1.17s-0.07,0.81-0.2,1.18
		c-0.14,0.37-0.33,0.69-0.58,0.96c-0.25,0.27-0.55,0.49-0.9,0.64s-0.75,0.23-1.19,0.23c-0.41,0-0.79-0.09-1.16-0.27
		c-0.37-0.18-0.66-0.44-0.89-0.79H721.06z M724.84,219.19c0-0.26-0.04-0.52-0.12-0.77c-0.08-0.25-0.2-0.47-0.36-0.66
		s-0.36-0.34-0.59-0.46c-0.24-0.11-0.51-0.17-0.82-0.17c-0.29,0-0.55,0.06-0.79,0.17c-0.24,0.11-0.44,0.26-0.61,0.46
		s-0.3,0.41-0.39,0.66c-0.09,0.25-0.14,0.51-0.14,0.78c0,0.27,0.05,0.53,0.14,0.78c0.09,0.25,0.22,0.47,0.39,0.65
		s0.37,0.34,0.61,0.45s0.5,0.17,0.79,0.17c0.31,0,0.59-0.06,0.82-0.17c0.24-0.12,0.43-0.27,0.59-0.46c0.16-0.19,0.28-0.41,0.36-0.66
		C724.8,219.71,724.84,219.46,724.84,219.19z"/>
	<path class="st0" d="M732.13,221.15c-0.22,0.34-0.51,0.61-0.88,0.79c-0.37,0.18-0.76,0.27-1.17,0.27c-0.44,0-0.84-0.08-1.19-0.23
		s-0.65-0.37-0.9-0.64s-0.44-0.59-0.58-0.96c-0.14-0.37-0.2-0.76-0.2-1.18s0.07-0.81,0.2-1.17c0.14-0.36,0.33-0.68,0.58-0.96
		c0.25-0.27,0.55-0.49,0.91-0.64c0.35-0.15,0.74-0.23,1.17-0.23c0.46,0,0.87,0.1,1.21,0.29s0.62,0.43,0.82,0.71h0.02v-4.24h1.13
		v9.09h-1.09v-0.9H732.13z M728.38,219.19c0,0.26,0.04,0.52,0.12,0.77c0.08,0.25,0.2,0.47,0.36,0.66c0.16,0.19,0.36,0.35,0.59,0.46
		s0.5,0.17,0.82,0.17c0.29,0,0.55-0.06,0.79-0.17s0.44-0.26,0.61-0.45s0.3-0.41,0.39-0.65c0.09-0.25,0.14-0.51,0.14-0.78
		c0-0.27-0.05-0.53-0.14-0.78c-0.09-0.25-0.22-0.47-0.39-0.66s-0.37-0.34-0.61-0.46c-0.24-0.11-0.5-0.17-0.79-0.17
		c-0.31,0-0.58,0.06-0.82,0.17c-0.23,0.11-0.43,0.26-0.59,0.46s-0.28,0.41-0.36,0.66C728.42,218.67,728.38,218.93,728.38,219.19z"/>
	<path class="st0" d="M740.99,219.19c0,0.44-0.08,0.85-0.23,1.21s-0.37,0.69-0.65,0.96c-0.28,0.27-0.6,0.48-0.98,0.62
		c-0.38,0.15-0.78,0.22-1.21,0.22s-0.84-0.07-1.21-0.22c-0.38-0.15-0.7-0.36-0.97-0.62c-0.27-0.27-0.49-0.59-0.64-0.96
		s-0.23-0.77-0.23-1.21s0.08-0.84,0.23-1.21c0.16-0.36,0.37-0.68,0.64-0.94s0.6-0.47,0.97-0.62c0.38-0.15,0.78-0.22,1.21-0.22
		s0.84,0.07,1.21,0.22c0.38,0.15,0.7,0.35,0.98,0.62s0.49,0.58,0.65,0.94C740.91,218.34,740.99,218.75,740.99,219.19z
		 M739.81,219.19c0-0.27-0.04-0.53-0.13-0.78c-0.08-0.25-0.21-0.47-0.37-0.65s-0.36-0.34-0.6-0.45c-0.24-0.11-0.51-0.17-0.81-0.17
		c-0.3,0-0.58,0.06-0.81,0.17c-0.24,0.11-0.44,0.26-0.6,0.45s-0.28,0.41-0.37,0.65c-0.08,0.25-0.13,0.51-0.13,0.78
		s0.04,0.53,0.13,0.78c0.08,0.25,0.21,0.47,0.37,0.66c0.16,0.19,0.36,0.34,0.6,0.46s0.51,0.17,0.81,0.17c0.31,0,0.58-0.06,0.81-0.17
		c0.24-0.11,0.44-0.26,0.6-0.46c0.16-0.19,0.28-0.41,0.37-0.66C739.77,219.72,739.81,219.46,739.81,219.19z"/>
	<path class="st0" d="M744.34,216.51c0.32-0.21,0.69-0.32,1.12-0.32c0.38,0,0.73,0.09,1.04,0.26c0.31,0.18,0.55,0.47,0.73,0.88
		c0.19-0.37,0.46-0.65,0.8-0.85s0.72-0.29,1.13-0.29c0.37,0,0.68,0.06,0.95,0.19c0.26,0.12,0.48,0.29,0.66,0.5
		c0.18,0.21,0.31,0.45,0.39,0.73s0.13,0.58,0.13,0.9v3.53h-1.13v-3.16c0-0.23-0.02-0.45-0.06-0.66c-0.04-0.21-0.11-0.39-0.2-0.55
		c-0.1-0.16-0.22-0.29-0.38-0.38c-0.16-0.1-0.37-0.14-0.61-0.14c-0.26,0-0.48,0.05-0.66,0.16s-0.33,0.25-0.45,0.42
		c-0.12,0.17-0.2,0.37-0.25,0.58c-0.05,0.22-0.08,0.44-0.08,0.66v3.08h-1.13v-3.39c0-0.22-0.02-0.43-0.06-0.61s-0.11-0.34-0.2-0.47
		c-0.1-0.13-0.22-0.24-0.37-0.31s-0.34-0.11-0.56-0.11c-0.42,0-0.76,0.17-1.04,0.51s-0.41,0.79-0.41,1.36v3.03h-1.13v-4.47
		c0-0.15,0-0.35-0.01-0.59c-0.01-0.24-0.02-0.45-0.04-0.64h1.07c0.02,0.14,0.03,0.31,0.04,0.49s0.01,0.33,0.01,0.45h0.04
		C743.8,216.98,744.03,216.73,744.34,216.51z"/>
	<path class="st0" d="M758.53,219.15c0,0.06,0,0.13,0,0.19s0,0.13-0.01,0.19h-4.53c0.01,0.24,0.06,0.46,0.16,0.67
		c0.1,0.21,0.23,0.39,0.4,0.55c0.17,0.16,0.36,0.28,0.58,0.36c0.22,0.09,0.46,0.13,0.7,0.13c0.38,0,0.72-0.08,1-0.25
		c0.28-0.17,0.5-0.37,0.66-0.61l0.79,0.64c-0.3,0.4-0.66,0.7-1.08,0.89c-0.41,0.19-0.87,0.29-1.38,0.29c-0.43,0-0.83-0.07-1.2-0.22
		c-0.37-0.14-0.68-0.35-0.95-0.61s-0.47-0.58-0.62-0.94s-0.23-0.78-0.23-1.23c0-0.44,0.07-0.85,0.22-1.22
		c0.15-0.37,0.36-0.69,0.62-0.96c0.26-0.26,0.58-0.47,0.94-0.62c0.36-0.15,0.75-0.22,1.17-0.22c0.42,0,0.8,0.07,1.14,0.2
		c0.34,0.14,0.63,0.33,0.87,0.59c0.24,0.26,0.42,0.57,0.55,0.93C758.47,218.28,758.53,218.69,758.53,219.15z M757.38,218.69
		c-0.01-0.22-0.05-0.43-0.11-0.63c-0.07-0.2-0.17-0.37-0.3-0.51c-0.13-0.14-0.3-0.26-0.49-0.34c-0.2-0.08-0.43-0.13-0.69-0.13
		c-0.24,0-0.47,0.04-0.68,0.13c-0.21,0.08-0.4,0.2-0.55,0.34c-0.16,0.14-0.28,0.31-0.38,0.51c-0.1,0.2-0.16,0.41-0.17,0.63H757.38z"
		/>
	<path class="st0" d="M761.12,216.35c0.02,0.14,0.03,0.31,0.04,0.49s0.01,0.33,0.01,0.45h0.04c0.07-0.15,0.17-0.29,0.29-0.43
		c0.12-0.13,0.27-0.25,0.43-0.35c0.16-0.1,0.34-0.18,0.53-0.23c0.19-0.06,0.39-0.08,0.6-0.08c0.37,0,0.69,0.06,0.95,0.19
		c0.26,0.12,0.48,0.29,0.66,0.5c0.18,0.21,0.31,0.45,0.39,0.73c0.08,0.28,0.13,0.58,0.13,0.9v3.53h-1.13v-3.16
		c0-0.23-0.02-0.45-0.05-0.66c-0.04-0.21-0.1-0.39-0.2-0.55c-0.1-0.16-0.23-0.29-0.4-0.38c-0.17-0.1-0.38-0.14-0.65-0.14
		c-0.45,0-0.82,0.17-1.1,0.51c-0.29,0.34-0.43,0.79-0.43,1.36v3.03h-1.13v-4.47c0-0.15,0-0.35-0.01-0.59
		c-0.01-0.24-0.02-0.45-0.04-0.64H761.12z"/>
	<path class="st0" d="M768.48,221.33c0,0.21-0.08,0.39-0.23,0.55c-0.15,0.16-0.34,0.24-0.58,0.24c-0.22,0-0.42-0.08-0.57-0.23
		s-0.23-0.34-0.23-0.55c0-0.22,0.08-0.4,0.23-0.56s0.34-0.23,0.58-0.23s0.42,0.08,0.58,0.23
		C768.41,220.93,768.48,221.11,768.48,221.33z"/>
	<path class="st0" d="M677.69,235.57h-1.19v-8.51h2.73c0.41,0,0.8,0.04,1.17,0.13c0.37,0.08,0.69,0.22,0.97,0.4
		c0.28,0.18,0.5,0.43,0.66,0.73s0.24,0.67,0.24,1.1c0,0.62-0.19,1.13-0.58,1.51c-0.38,0.38-0.88,0.63-1.49,0.73l2.38,3.91h-1.44
		l-2.16-3.79h-1.27V235.57z M677.69,230.79h1.37c0.28,0,0.54-0.02,0.78-0.07s0.45-0.13,0.63-0.23c0.18-0.11,0.32-0.25,0.43-0.42
		c0.1-0.17,0.16-0.39,0.16-0.64s-0.05-0.47-0.16-0.64c-0.1-0.17-0.24-0.31-0.42-0.42s-0.38-0.18-0.61-0.22
		c-0.23-0.04-0.48-0.07-0.73-0.07h-1.45V230.79z"/>
	<path class="st0" d="M688.99,232.67c0,0.06,0,0.13,0,0.19s0,0.13-0.01,0.19h-4.53c0.01,0.24,0.06,0.46,0.16,0.67
		c0.1,0.21,0.23,0.39,0.4,0.55c0.17,0.16,0.36,0.28,0.58,0.36c0.22,0.09,0.46,0.13,0.7,0.13c0.38,0,0.72-0.08,1-0.25
		c0.28-0.17,0.5-0.37,0.66-0.61l0.79,0.64c-0.3,0.4-0.66,0.7-1.08,0.89c-0.41,0.19-0.87,0.29-1.38,0.29c-0.43,0-0.83-0.07-1.2-0.22
		c-0.37-0.14-0.68-0.35-0.95-0.61s-0.47-0.58-0.62-0.94s-0.23-0.78-0.23-1.23c0-0.44,0.07-0.85,0.22-1.22
		c0.15-0.37,0.36-0.69,0.62-0.96c0.26-0.26,0.58-0.47,0.94-0.62c0.36-0.15,0.75-0.22,1.17-0.22c0.42,0,0.8,0.07,1.14,0.2
		c0.34,0.14,0.63,0.33,0.87,0.59c0.24,0.26,0.42,0.57,0.55,0.93C688.93,231.8,688.99,232.21,688.99,232.67z M687.84,232.21
		c-0.01-0.22-0.05-0.43-0.11-0.63c-0.07-0.2-0.17-0.37-0.3-0.51c-0.13-0.14-0.3-0.26-0.49-0.34c-0.2-0.08-0.43-0.13-0.69-0.13
		c-0.24,0-0.47,0.04-0.68,0.13c-0.21,0.08-0.4,0.2-0.55,0.34c-0.16,0.14-0.28,0.31-0.38,0.51c-0.1,0.2-0.16,0.41-0.17,0.63H687.84z"
		/>
	<path class="st0" d="M693.63,231.31c-0.13-0.21-0.31-0.38-0.54-0.51c-0.23-0.13-0.49-0.2-0.78-0.2c-0.13,0-0.26,0.01-0.38,0.04
		c-0.13,0.03-0.24,0.07-0.34,0.13c-0.1,0.06-0.18,0.14-0.24,0.23c-0.06,0.09-0.09,0.21-0.09,0.34c0,0.24,0.11,0.42,0.32,0.54
		c0.22,0.12,0.54,0.22,0.97,0.32c0.27,0.06,0.52,0.14,0.76,0.23s0.43,0.2,0.61,0.33c0.17,0.13,0.31,0.29,0.4,0.47
		c0.1,0.18,0.14,0.4,0.14,0.65c0,0.34-0.06,0.62-0.19,0.85c-0.13,0.23-0.3,0.42-0.51,0.57c-0.21,0.15-0.46,0.25-0.73,0.32
		c-0.27,0.06-0.55,0.1-0.84,0.1c-0.43,0-0.86-0.08-1.27-0.25c-0.41-0.17-0.75-0.42-1.03-0.77l0.81-0.69
		c0.15,0.22,0.36,0.41,0.63,0.57c0.27,0.15,0.56,0.23,0.88,0.23c0.14,0,0.28-0.01,0.42-0.04c0.13-0.03,0.25-0.07,0.36-0.14
		s0.19-0.15,0.26-0.25c0.06-0.1,0.1-0.24,0.1-0.4c0-0.26-0.13-0.46-0.38-0.59c-0.25-0.13-0.62-0.25-1.11-0.36
		c-0.19-0.05-0.39-0.11-0.58-0.17s-0.38-0.16-0.54-0.28s-0.29-0.27-0.39-0.45c-0.1-0.18-0.15-0.4-0.15-0.67
		c0-0.3,0.06-0.57,0.19-0.79c0.12-0.22,0.29-0.4,0.49-0.54c0.2-0.14,0.43-0.24,0.68-0.31c0.26-0.07,0.52-0.1,0.79-0.1
		c0.41,0,0.8,0.08,1.18,0.24c0.38,0.16,0.67,0.39,0.88,0.7L693.63,231.31z"/>
	<path class="st0" d="M699.91,235.57c-0.02-0.14-0.03-0.31-0.04-0.49c-0.01-0.18-0.01-0.33-0.01-0.45h-0.02
		c-0.14,0.3-0.39,0.56-0.73,0.78s-0.72,0.32-1.14,0.32c-0.37,0-0.69-0.06-0.96-0.18c-0.27-0.12-0.49-0.29-0.66-0.5
		c-0.17-0.21-0.3-0.46-0.38-0.74s-0.13-0.58-0.13-0.9v-3.53h1.13v3.15c0,0.23,0.02,0.46,0.05,0.67s0.1,0.4,0.2,0.56
		c0.1,0.16,0.23,0.29,0.4,0.38c0.17,0.1,0.38,0.14,0.65,0.14c0.46,0,0.83-0.17,1.11-0.51s0.42-0.79,0.42-1.36v-3.03h1.13v4.47
		c0,0.15,0,0.35,0.01,0.59c0.01,0.24,0.02,0.45,0.04,0.64H699.91z"/>
	<path class="st0" d="M704.04,235.57h-1.13v-9.09h1.13V235.57z"/>
	<path class="st0" d="M708.8,230.8h-1.51v2.96c0,0.34,0.06,0.59,0.19,0.74c0.13,0.15,0.33,0.22,0.61,0.22c0.1,0,0.22-0.01,0.34-0.03
		c0.12-0.02,0.23-0.05,0.32-0.1l0.04,0.92c-0.14,0.05-0.29,0.09-0.45,0.11c-0.16,0.03-0.33,0.04-0.51,0.04
		c-0.54,0-0.95-0.15-1.23-0.44c-0.29-0.3-0.43-0.74-0.43-1.33v-3.09h-1.09v-0.92h1.09v-1.63h1.12v1.63h1.51V230.8z"/>
	<path class="st0" d="M713.04,231.31c-0.13-0.21-0.31-0.38-0.54-0.51c-0.23-0.13-0.49-0.2-0.78-0.2c-0.13,0-0.26,0.01-0.38,0.04
		c-0.13,0.03-0.24,0.07-0.34,0.13c-0.1,0.06-0.18,0.14-0.24,0.23c-0.06,0.09-0.09,0.21-0.09,0.34c0,0.24,0.11,0.42,0.32,0.54
		c0.22,0.12,0.54,0.22,0.97,0.32c0.27,0.06,0.52,0.14,0.76,0.23s0.43,0.2,0.61,0.33c0.17,0.13,0.31,0.29,0.4,0.47
		c0.1,0.18,0.14,0.4,0.14,0.65c0,0.34-0.06,0.62-0.19,0.85c-0.13,0.23-0.3,0.42-0.51,0.57c-0.21,0.15-0.46,0.25-0.73,0.32
		c-0.27,0.06-0.55,0.1-0.84,0.1c-0.43,0-0.86-0.08-1.27-0.25c-0.41-0.17-0.75-0.42-1.03-0.77l0.81-0.69
		c0.15,0.22,0.36,0.41,0.63,0.57c0.27,0.15,0.56,0.23,0.88,0.23c0.14,0,0.28-0.01,0.42-0.04c0.13-0.03,0.25-0.07,0.36-0.14
		s0.19-0.15,0.26-0.25c0.06-0.1,0.1-0.24,0.1-0.4c0-0.26-0.13-0.46-0.38-0.59c-0.25-0.13-0.62-0.25-1.11-0.36
		c-0.19-0.05-0.39-0.11-0.58-0.17s-0.38-0.16-0.54-0.28s-0.29-0.27-0.39-0.45c-0.1-0.18-0.15-0.4-0.15-0.67
		c0-0.3,0.06-0.57,0.19-0.79c0.12-0.22,0.29-0.4,0.49-0.54c0.2-0.14,0.43-0.24,0.68-0.31c0.26-0.07,0.52-0.1,0.79-0.1
		c0.41,0,0.8,0.08,1.18,0.24c0.38,0.16,0.67,0.39,0.88,0.7L713.04,231.31z"/>
	<path class="st0" d="M720.1,230.03c0.32-0.21,0.69-0.32,1.12-0.32c0.38,0,0.73,0.09,1.04,0.26c0.31,0.18,0.55,0.47,0.73,0.88
		c0.19-0.37,0.46-0.65,0.8-0.85s0.72-0.29,1.13-0.29c0.37,0,0.68,0.06,0.95,0.19c0.26,0.12,0.48,0.29,0.66,0.5
		c0.18,0.21,0.31,0.45,0.39,0.73s0.13,0.58,0.13,0.9v3.53h-1.13v-3.16c0-0.23-0.02-0.45-0.06-0.66c-0.04-0.21-0.11-0.39-0.2-0.55
		c-0.1-0.16-0.22-0.29-0.38-0.38c-0.16-0.1-0.37-0.14-0.61-0.14c-0.26,0-0.48,0.05-0.66,0.16s-0.33,0.25-0.45,0.42
		c-0.12,0.17-0.2,0.37-0.25,0.58c-0.05,0.22-0.08,0.44-0.08,0.66v3.08h-1.13v-3.39c0-0.22-0.02-0.43-0.06-0.61s-0.11-0.34-0.2-0.47
		c-0.1-0.13-0.22-0.24-0.37-0.31s-0.34-0.11-0.56-0.11c-0.42,0-0.76,0.17-1.04,0.51s-0.41,0.79-0.41,1.36v3.03h-1.13v-4.47
		c0-0.15,0-0.35-0.01-0.59c-0.01-0.24-0.02-0.45-0.04-0.64h1.07c0.02,0.14,0.03,0.31,0.04,0.49s0.01,0.33,0.01,0.45h0.04
		C719.56,230.5,719.79,230.25,720.1,230.03z"/>
	<path class="st0" d="M732.51,231.88c0-0.42-0.13-0.74-0.38-0.94c-0.26-0.2-0.6-0.31-1.02-0.31c-0.32,0-0.62,0.06-0.91,0.19
		s-0.52,0.28-0.71,0.47l-0.6-0.72c0.28-0.26,0.62-0.47,1.03-0.62c0.4-0.15,0.84-0.23,1.3-0.23c0.41,0,0.76,0.06,1.06,0.17
		c0.3,0.12,0.55,0.27,0.74,0.47s0.34,0.44,0.43,0.71c0.1,0.27,0.14,0.57,0.14,0.88v2.49c0,0.19,0.01,0.39,0.02,0.61
		c0.01,0.21,0.03,0.39,0.07,0.52h-1.02c-0.06-0.27-0.1-0.54-0.1-0.82h-0.04c-0.21,0.3-0.47,0.54-0.79,0.71
		c-0.32,0.17-0.69,0.25-1.12,0.25c-0.22,0-0.46-0.03-0.7-0.09c-0.24-0.06-0.47-0.16-0.67-0.29c-0.2-0.14-0.37-0.32-0.5-0.54
		c-0.13-0.22-0.2-0.5-0.2-0.83c0-0.43,0.12-0.78,0.35-1.03c0.23-0.25,0.54-0.45,0.91-0.58c0.38-0.13,0.8-0.22,1.27-0.26
		s0.95-0.06,1.43-0.06V231.88z M732.24,232.85c-0.28,0-0.57,0.01-0.87,0.04c-0.3,0.02-0.57,0.07-0.82,0.14s-0.45,0.18-0.61,0.33
		c-0.16,0.14-0.24,0.34-0.24,0.58c0,0.17,0.03,0.31,0.1,0.42s0.16,0.2,0.27,0.28s0.24,0.12,0.37,0.15c0.14,0.03,0.28,0.04,0.42,0.04
		c0.53,0,0.94-0.16,1.22-0.47c0.29-0.32,0.43-0.71,0.43-1.2v-0.3H732.24z"/>
	<path class="st0" d="M737.64,234.34h0.02l1.57-4.47h1.2l-2.76,7.04c-0.1,0.24-0.2,0.46-0.31,0.64c-0.11,0.19-0.24,0.35-0.4,0.48
		s-0.33,0.23-0.54,0.31s-0.45,0.11-0.73,0.11c-0.12,0-0.24-0.01-0.37-0.02s-0.25-0.03-0.38-0.07l0.11-1c0.19,0.06,0.38,0.1,0.57,0.1
		c0.3,0,0.52-0.08,0.66-0.25c0.14-0.16,0.28-0.4,0.4-0.7l0.36-0.95l-2.44-5.7h1.26L737.64,234.34z"/>
	<path class="st0" d="M747.22,235.57H746l-2.32-5.7h1.25l1.67,4.48h0.02l1.68-4.48h1.2L747.22,235.57z"/>
	<path class="st0" d="M754.15,231.88c0-0.42-0.13-0.74-0.38-0.94c-0.26-0.2-0.6-0.31-1.02-0.31c-0.32,0-0.62,0.06-0.91,0.19
		s-0.52,0.28-0.71,0.47l-0.6-0.72c0.28-0.26,0.62-0.47,1.03-0.62c0.4-0.15,0.84-0.23,1.3-0.23c0.41,0,0.76,0.06,1.06,0.17
		c0.3,0.12,0.55,0.27,0.74,0.47s0.34,0.44,0.43,0.71c0.1,0.27,0.14,0.57,0.14,0.88v2.49c0,0.19,0.01,0.39,0.02,0.61
		c0.01,0.21,0.03,0.39,0.07,0.52h-1.02c-0.06-0.27-0.1-0.54-0.1-0.82h-0.04c-0.21,0.3-0.47,0.54-0.79,0.71
		c-0.32,0.17-0.69,0.25-1.12,0.25c-0.22,0-0.46-0.03-0.7-0.09c-0.24-0.06-0.47-0.16-0.67-0.29c-0.2-0.14-0.37-0.32-0.5-0.54
		c-0.13-0.22-0.2-0.5-0.2-0.83c0-0.43,0.12-0.78,0.35-1.03c0.23-0.25,0.54-0.45,0.91-0.58c0.38-0.13,0.8-0.22,1.27-0.26
		s0.95-0.06,1.43-0.06V231.88z M753.87,232.85c-0.28,0-0.57,0.01-0.87,0.04c-0.3,0.02-0.57,0.07-0.82,0.14s-0.45,0.18-0.61,0.33
		c-0.16,0.14-0.24,0.34-0.24,0.58c0,0.17,0.03,0.31,0.1,0.42s0.16,0.2,0.27,0.28s0.24,0.12,0.37,0.15c0.14,0.03,0.28,0.04,0.42,0.04
		c0.53,0,0.94-0.16,1.22-0.47c0.29-0.32,0.43-0.71,0.43-1.2v-0.3H753.87z"/>
	<path class="st0" d="M757.1,230.51c-0.01-0.24-0.02-0.45-0.04-0.64h1.07c0.02,0.14,0.03,0.31,0.04,0.5
		c0.01,0.19,0.01,0.34,0.01,0.46h0.04c0.16-0.34,0.39-0.61,0.7-0.81c0.31-0.2,0.66-0.31,1.04-0.31c0.18,0,0.32,0.02,0.44,0.05
		l-0.05,1.05c-0.16-0.04-0.33-0.06-0.52-0.06c-0.27,0-0.51,0.05-0.71,0.15c-0.2,0.1-0.37,0.23-0.5,0.4
		c-0.13,0.17-0.23,0.36-0.29,0.58s-0.1,0.45-0.1,0.69v2.99h-1.13v-4.47C757.11,230.95,757.11,230.75,757.1,230.51z"/>
	<path class="st0" d="M763.63,234.34h0.02l1.57-4.47h1.2l-2.76,7.04c-0.1,0.24-0.2,0.46-0.31,0.64c-0.11,0.19-0.24,0.35-0.4,0.48
		s-0.33,0.23-0.54,0.31s-0.45,0.11-0.73,0.11c-0.12,0-0.24-0.01-0.37-0.02s-0.25-0.03-0.38-0.07l0.11-1c0.19,0.06,0.38,0.1,0.57,0.1
		c0.3,0,0.52-0.08,0.66-0.25c0.14-0.16,0.28-0.4,0.4-0.7l0.36-0.95l-2.44-5.7h1.26L763.63,234.34z"/>
	<path class="st0" d="M768.48,234.85c0,0.21-0.08,0.39-0.23,0.55c-0.15,0.16-0.34,0.24-0.58,0.24c-0.22,0-0.42-0.08-0.57-0.23
		s-0.23-0.34-0.23-0.55c0-0.22,0.08-0.4,0.23-0.56s0.34-0.23,0.58-0.23s0.42,0.08,0.58,0.23
		C768.41,234.45,768.48,234.63,768.48,234.85z"/>
</g>
</svg>
