<?xml version="1.0" encoding="utf-8"?>
<!-- Generator: Adobe Illustrator 25.2.1, SVG Export Plug-In . SVG Version: 6.00 Build 0)  -->
<svg version="1.1" id="Layer_1" xmlns="http://www.w3.org/2000/svg" xmlns:xlink="http://www.w3.org/1999/xlink" x="0px" y="0px"
	 viewBox="0 0 970 250" style="enable-background:new 0 0 970 250;" xml:space="preserve">
<style type="text/css">
	.st0{fill:#FFFFFF;}
</style>
<g>
	<g>
		<g>
			<g>
				<path class="st0" d="M67.63,59.56c-2.67,0-3.96-1.94-3.96-3.8c0-2.15,1.56-3.88,4-3.88c0.83,0,1.69,0.26,2.37,0.83l-0.76,1.05
					c-0.47-0.36-0.97-0.5-1.57-0.5c-1.3,0-2.27,0.9-2.27,2.45c0,1.41,0.89,2.54,2.31,2.54c0.6,0,1.13-0.18,1.6-0.59l0.69,1.05
					C69.4,59.29,68.49,59.56,67.63,59.56"/>
				<path class="st0" d="M74.18,59.56c-2.24,0-3.88-1.68-3.88-3.88c0-2.25,1.8-3.8,3.88-3.8c2.09,0,3.9,1.53,3.9,3.79
					C78.08,57.87,76.43,59.56,74.18,59.56 M76.28,55.68c0-1.35-0.67-2.52-2.1-2.52c-1.41,0-2.1,1.17-2.1,2.51
					c0,1.38,0.65,2.61,2.1,2.61c1.45,0,2.1-1.22,2.1-2.61V55.68z"/>
				<path class="st0" d="M82.61,59.56c-2.24,0-3.88-1.68-3.88-3.88c0-2.25,1.8-3.8,3.88-3.8c2.09,0,3.9,1.53,3.9,3.79
					C86.51,57.87,84.86,59.56,82.61,59.56 M84.71,55.68c0-1.35-0.66-2.52-2.1-2.52c-1.41,0-2.1,1.17-2.1,2.51
					c0,1.38,0.65,2.61,2.1,2.61c1.45,0,2.1-1.22,2.1-2.61V55.68z"/>
				<polygon class="st0" points="87.38,59.38 87.38,48.62 89.06,49.54 89.06,59.38 				"/>
				<path class="st0" d="M92.93,59.6c-1.89,0-2.8-0.9-2.8-0.9l0.76-0.98c0,0,0.86,0.57,1.99,0.57c0.54,0,1-0.38,1-0.75
					s-0.17-0.69-0.66-0.95c-0.5-0.26-1.06-0.53-1.5-0.74c-0.44-0.21-1.41-0.86-1.41-2.12c0-1.28,1.3-1.98,2.63-1.98
					c1.27,0,2.24,0.83,2.24,0.83l-0.65,0.99c0,0-0.73-0.51-1.53-0.51c-0.8,0-0.97,0.51-0.97,0.72c0,0.21,0.08,0.54,0.59,0.81
					c0.51,0.27,1.04,0.56,1.8,0.98c0.76,0.42,1.18,1.14,1.18,1.95S94.82,59.6,92.93,59.6"/>
				<path class="st0" d="M100.14,59.56c-2.67,0-3.96-1.94-3.96-3.8c0-2.15,1.56-3.88,4-3.88c0.83,0,1.69,0.26,2.37,0.83l-0.76,1.05
					c-0.47-0.36-0.97-0.5-1.57-0.5c-1.3,0-2.27,0.9-2.27,2.45c0,1.41,0.89,2.54,2.31,2.54c0.6,0,1.13-0.18,1.6-0.59l0.69,1.05
					C101.91,59.29,101,59.56,100.14,59.56"/>
				<path class="st0" d="M108.4,58.52c0,0-0.85,1.04-2.45,1.04c-1.89,0-2.81-1.37-2.81-2.75v-4.76h1.68v4.69
					c0,0.81,0.63,1.49,1.62,1.49c0.86,0,1.71-1.02,1.71-1.02v-5.15h1.68v7.32L108.4,58.52z"/>
				<polygon class="st0" points="111.32,59.38 111.32,48.62 113,49.54 113,59.38 				"/>
				<path class="st0" d="M118.54,59.56c-1.48,0-2.33-0.83-2.33-0.83v3.65h-1.69V51.89l1.69,0.89c0,0,0.91-0.92,2.42-0.92
					c1.59,0,3.57,1.22,3.57,3.94C122.2,58.52,120.25,59.56,118.54,59.56 M118.44,53.16c-1.44,0-2.27,1.34-2.27,1.34v2.76
					c0,0,0.95,1.07,2.33,1.07c1.6,0,1.95-1.91,1.95-2.57C120.45,55.09,120.3,53.16,118.44,53.16"/>
				<path class="st0" d="M126.61,59.57h-1.06c-1.33,0-1.78-1.28-1.78-2.12v-4.31h-1.33v-1.1h1.33v-3.23h1.66v3.23h1.71v1.1h-1.69
					v3.91c0,0.44-0.08,1.13,0.66,1.13h1.21L126.61,59.57z"/>
				<path class="st0" d="M129.3,50.78c-0.6,0-1.1-0.5-1.1-1.1c0-0.6,0.5-1.1,1.1-1.1c0.6,0,1.1,0.5,1.1,1.1
					C130.41,50.29,129.91,50.78,129.3,50.78 M128.47,52.04h1.65v7.33h-1.65V52.04z"/>
				<path class="st0" d="M136.77,59.38v-4.69c0-0.81-0.63-1.49-1.62-1.49c-0.86,0-1.83,1.02-1.83,1.02v5.15h-1.68v-7.32l1.42,0.84
					c0,0,0.97-1.04,2.57-1.04c1.89,0,2.81,1.37,2.81,2.75v4.76H136.77z"/>
				<path class="st0" d="M143.57,62.79c-0.26,0-2.22-0.03-2.22-0.03l0.03-1.34h1.65c1.6,0,2.51-0.86,2.51-2.03v-0.66
					c0,0-0.88,0.83-2.36,0.83c-1.71,0-3.66-1.04-3.66-3.76c0-2.72,1.98-3.94,3.57-3.94c1.51,0,2.42,0.92,2.42,0.92l1.69-0.84v7.29
					C147.2,61.19,145.88,62.79,143.57,62.79 M145.55,54.49c0,0-0.83-1.34-2.27-1.34c-1.86,0-2.01,1.94-2.01,2.6
					c0,0.66,0.35,2.57,1.95,2.57c1.38,0,2.33-1.07,2.33-1.07V54.49z"/>
				<polygon class="st0" points="46.69,56.04 43.6,59.11 47.38,60.52 51.89,56.04 				"/>
				<polygon class="st0" points="52.34,49.8 49.27,46.75 47.83,50.49 52.34,54.97 				"/>
				<polygon class="st0" points="57.92,50.93 62.05,52 58.61,55.42 53.41,55.42 				"/>
				<polygon class="st0" points="57.65,61.14 56.47,65.14 50.05,58.76 52.65,56.17 				"/>
				<g>
					<path class="st0" d="M149.7,52.54c0,0.43-0.35,0.78-0.8,0.78c-0.45,0-0.8-0.34-0.8-0.78c0-0.43,0.36-0.77,0.81-0.77
						C149.35,51.77,149.7,52.11,149.7,52.54z M148.3,52.54c0,0.34,0.26,0.62,0.61,0.62c0.34,0,0.59-0.27,0.59-0.61
						c0-0.34-0.26-0.62-0.6-0.62C148.56,51.92,148.3,52.2,148.3,52.54z M148.78,52.94h-0.18v-0.77c0.07-0.01,0.17-0.02,0.3-0.02
						c0.15,0,0.21,0.02,0.27,0.06c0.05,0.03,0.08,0.09,0.08,0.17c0,0.09-0.07,0.16-0.16,0.18v0.01c0.08,0.02,0.11,0.09,0.14,0.19
						c0.02,0.12,0.04,0.16,0.06,0.19h-0.19c-0.02-0.03-0.04-0.09-0.06-0.19c-0.01-0.08-0.06-0.12-0.16-0.12h-0.09V52.94z
						 M148.79,52.51h0.09c0.1,0,0.18-0.03,0.18-0.11c0-0.07-0.05-0.12-0.17-0.12c-0.05,0-0.08,0-0.1,0.01V52.51z"/>
				</g>
			</g>
			<g>
				<polygon class="st0" points="48.65,64.94 48.65,60.14 49.6,59.2 52.33,61.92 52.33,62.83 				"/>
				<polygon class="st0" points="48.21,51.76 44.24,51.76 45.51,55.41 51.89,55.41 				"/>
				<polygon class="st0" points="61.63,59.7 57.09,59.7 53.41,56.04 59.79,56.04 				"/>
				<polygon class="st0" points="52.97,48.63 56.64,46.46 56.64,51.32 52.97,54.97 				"/>
				<g>
					<path class="st0" d="M59.44,61.4c0,0.3-0.24,0.54-0.55,0.54c-0.31,0-0.56-0.24-0.56-0.54c0-0.3,0.25-0.54,0.56-0.54
						C59.19,60.87,59.44,61.1,59.44,61.4z M58.47,61.4c0,0.24,0.18,0.43,0.42,0.43c0.23,0,0.41-0.19,0.41-0.42
						c0-0.24-0.18-0.43-0.42-0.43C58.65,60.97,58.47,61.17,58.47,61.4z M58.8,61.68h-0.12v-0.54c0.05-0.01,0.12-0.02,0.21-0.02
						c0.1,0,0.15,0.02,0.18,0.04c0.03,0.02,0.06,0.06,0.06,0.11c0,0.07-0.05,0.11-0.11,0.13v0.01c0.05,0.02,0.08,0.06,0.1,0.13
						c0.02,0.08,0.03,0.11,0.04,0.13h-0.13c-0.02-0.02-0.03-0.07-0.04-0.13c-0.01-0.06-0.04-0.08-0.11-0.08H58.8V61.68z M58.8,61.38
						h0.06c0.07,0,0.13-0.02,0.13-0.08c0-0.05-0.04-0.08-0.11-0.08c-0.03,0-0.06,0-0.07,0.01V61.38z"/>
				</g>
			</g>
		</g>
	</g>
	<g>
		<path class="st0" d="M29.31,52.26h0.66v3.66h0.02c0.11-0.16,0.23-0.3,0.38-0.41c0.15-0.11,0.3-0.21,0.46-0.28
			c0.16-0.07,0.33-0.13,0.5-0.16c0.17-0.03,0.33-0.05,0.49-0.05c0.37,0,0.71,0.06,1.01,0.18c0.31,0.12,0.57,0.3,0.79,0.52
			c0.22,0.22,0.39,0.48,0.52,0.78c0.12,0.3,0.19,0.63,0.19,0.98s-0.06,0.68-0.19,0.98c-0.12,0.3-0.3,0.56-0.52,0.78
			c-0.22,0.22-0.48,0.39-0.79,0.51c-0.31,0.12-0.64,0.19-1.01,0.19c-0.15,0-0.32-0.02-0.49-0.05c-0.17-0.03-0.34-0.09-0.5-0.16
			c-0.16-0.07-0.32-0.17-0.46-0.28c-0.15-0.11-0.28-0.25-0.38-0.41h-0.02v0.78h-0.66V52.26z M33.6,57.48c0-0.26-0.04-0.5-0.13-0.73
			c-0.08-0.23-0.2-0.42-0.36-0.59c-0.15-0.17-0.34-0.3-0.56-0.39c-0.22-0.1-0.46-0.15-0.74-0.15s-0.53,0.05-0.75,0.15
			c-0.23,0.1-0.43,0.23-0.59,0.39c-0.17,0.17-0.3,0.36-0.39,0.59c-0.09,0.23-0.14,0.47-0.14,0.73c0,0.26,0.05,0.5,0.14,0.73
			c0.09,0.23,0.22,0.42,0.39,0.59c0.17,0.17,0.37,0.3,0.59,0.4c0.23,0.1,0.48,0.14,0.75,0.14s0.52-0.05,0.74-0.14
			c0.22-0.1,0.4-0.23,0.56-0.4c0.15-0.17,0.27-0.36,0.36-0.59C33.56,57.98,33.6,57.74,33.6,57.48z"/>
		<path class="st0" d="M37.2,59.01l1.44-3.87h0.8l-2.35,5.9c-0.14,0.36-0.32,0.65-0.54,0.86c-0.22,0.21-0.53,0.32-0.94,0.32
			c-0.1,0-0.2,0-0.31-0.01c-0.1-0.01-0.21-0.03-0.31-0.06l0.07-0.64c0.14,0.07,0.31,0.11,0.5,0.11c0.23,0,0.42-0.07,0.55-0.22
			c0.13-0.15,0.25-0.35,0.35-0.62l0.34-0.9l-1.93-4.74h0.84L37.2,59.01z"/>
	</g>
	<g>
		<path class="st0" d="M42.41,37.72c-1.44,1.25-3.23,1.88-5.36,1.88c-2.78,0-4.96-0.9-6.56-2.7c-1.44-1.62-2.17-3.58-2.17-5.87
			c0-2.45,0.81-4.51,2.43-6.18c1.62-1.67,3.77-2.5,6.43-2.5c2.04,0,3.78,0.62,5.2,1.86l-1.67,2.33c-0.96-0.72-2.11-1.08-3.46-1.08
			c-1.47,0-2.66,0.49-3.58,1.48c-0.92,0.99-1.38,2.33-1.38,4.01c0,1.64,0.46,3,1.38,4.08c0.92,1.08,2.15,1.62,3.68,1.62
			c1.33,0,2.52-0.43,3.57-1.29L42.41,37.72z"/>
		<path class="st0" d="M59.74,30.86c0,2.5-0.82,4.58-2.45,6.25c-1.63,1.66-3.68,2.5-6.15,2.5c-2.47,0-4.51-0.83-6.13-2.5
			c-1.62-1.67-2.43-3.75-2.43-6.25c0-2.45,0.86-4.5,2.57-6.14c1.64-1.58,3.64-2.36,6-2.36c2.35,0,4.37,0.79,6.03,2.36
			C58.88,26.36,59.74,28.4,59.74,30.86z M55.77,30.86c0-1.6-0.38-2.91-1.13-3.95c-0.84-1.12-2.01-1.69-3.5-1.69
			c-1.49,0-2.64,0.56-3.46,1.69c-0.76,1.03-1.13,2.35-1.13,3.95c0,1.69,0.37,3.06,1.1,4.11c0.82,1.17,1.99,1.75,3.5,1.75
			c1.51,0,2.69-0.58,3.53-1.75C55.4,33.92,55.77,32.54,55.77,30.86z"/>
		<path class="st0" d="M78.16,30.86c0,2.5-0.82,4.58-2.45,6.25c-1.63,1.66-3.68,2.5-6.15,2.5c-2.47,0-4.51-0.83-6.13-2.5
			C61.81,35.44,61,33.36,61,30.86c0-2.45,0.86-4.5,2.57-6.14c1.64-1.58,3.64-2.36,6-2.36c2.35,0,4.37,0.79,6.03,2.36
			C77.3,26.36,78.16,28.4,78.16,30.86z M74.2,30.86c0-1.6-0.38-2.91-1.13-3.95c-0.84-1.12-2.01-1.69-3.5-1.69
			c-1.49,0-2.64,0.56-3.46,1.69c-0.76,1.03-1.13,2.35-1.13,3.95c0,1.69,0.37,3.06,1.1,4.11c0.82,1.17,1.99,1.75,3.5,1.75
			c1.51,0,2.69-0.58,3.53-1.75C73.83,33.92,74.2,32.54,74.2,30.86z"/>
		<path class="st0" d="M83.82,39.23h-3.7V15.01l3.7,2.06V39.23z"/>
		<g>
			<g>
				<path class="st0" d="M112.08,30.86c0,2.5-0.82,4.58-2.45,6.25c-1.63,1.66-3.68,2.5-6.15,2.5c-2.47,0-4.51-0.83-6.13-2.5
					c-1.62-1.67-2.43-3.75-2.43-6.25c0-2.45,0.86-4.5,2.57-6.14c1.64-1.58,3.64-2.36,6-2.36c2.35,0,4.37,0.79,6.03,2.36
					C111.22,26.36,112.08,28.4,112.08,30.86z M108.11,30.86c0-1.6-0.38-2.91-1.13-3.95c-0.84-1.12-2.01-1.69-3.5-1.69
					s-2.64,0.56-3.46,1.69c-0.76,1.03-1.13,2.35-1.13,3.95c0,1.69,0.37,3.06,1.1,4.11c0.82,1.17,1.99,1.75,3.5,1.75
					c1.51,0,2.69-0.58,3.53-1.75C107.75,33.92,108.11,32.54,108.11,30.86z"/>
				<path class="st0" d="M128.9,39.23h-3.7V28.7c0-0.95-0.33-1.74-0.98-2.38c-0.65-0.64-1.52-0.96-2.58-0.96
					c-1.18,0-2.52,0.76-4.03,2.29v11.57h-3.7V22.76l3.13,1.89c1.6-1.56,3.49-2.33,5.66-2.33c1.95,0,3.51,0.64,4.66,1.93
					c1.02,1.15,1.53,2.57,1.53,4.26V39.23z"/>
				<path class="st0" d="M146.96,31.75h-11.83c0.44,3.36,2.02,5.04,4.73,5.04c1.67,0,3.03-0.47,4.1-1.42l1.47,2.4
					c-1.42,1.31-3.31,1.96-5.66,1.96c-3.27,0-5.65-1.23-7.16-3.69c-0.93-1.51-1.4-3.07-1.4-4.67c0-1.96,0.38-3.66,1.13-5.11
					c1.35-2.64,3.77-3.96,7.23-3.96c3.42,0,5.67,1.57,6.76,4.7C146.79,28.35,147,29.93,146.96,31.75z M143.23,29.32
					c-0.13-2.91-1.38-4.36-3.73-4.36c-2.6,0-4.03,1.45-4.3,4.36H143.23z"/>
				<path class="st0" d="M91.82,36.52c-0.71,0-1.16-0.3-1.33-0.91c-0.09-0.25-0.13-0.79-0.13-1.62v-6.87h2.57v-2.47h-2.57v-3.93
					l-3.7-2.06V34.9c0,1.17,0.29,2.2,0.87,3.08c0.71,1.13,1.73,1.69,3.06,1.69h2.33l1.57-3.15H91.82z"/>
			</g>
		</g>
		<g>
			<path class="st0" d="M151.2,24.08c0,0.97-0.79,1.75-1.79,1.75c-1,0-1.8-0.77-1.8-1.75c0-0.98,0.8-1.74,1.81-1.74
				C150.41,22.34,151.2,23.1,151.2,24.08z M148.06,24.08c0,0.77,0.59,1.39,1.37,1.39c0.76,0.01,1.33-0.62,1.33-1.38
				c0-0.77-0.58-1.4-1.35-1.4C148.64,22.69,148.06,23.32,148.06,24.08z M149.13,24.98h-0.4v-1.74c0.16-0.02,0.38-0.05,0.67-0.05
				c0.33,0,0.48,0.05,0.6,0.14c0.11,0.07,0.18,0.2,0.18,0.37c0,0.21-0.16,0.35-0.36,0.41v0.02c0.17,0.05,0.26,0.19,0.31,0.42
				c0.05,0.26,0.1,0.36,0.13,0.42h-0.43c-0.05-0.06-0.09-0.21-0.14-0.42c-0.03-0.18-0.14-0.27-0.36-0.27h-0.19V24.98z M149.15,24.01
				h0.19c0.22,0,0.41-0.07,0.41-0.25c0-0.16-0.12-0.26-0.37-0.26c-0.11,0-0.18,0.01-0.22,0.02V24.01z"/>
		</g>
	</g>
</g>
</svg>
