<svg id="Layer_1" xmlns="http://www.w3.org/2000/svg" viewBox="0 0 970 250"><style>.st0{fill:#00a9e0}</style><path class="st0" d="M40.8 74.8h-4.41v-2.73h11.96v2.73h-4.41v33.47H40.8V74.8zM52.97 72.07h4.14l4.56 36.2h-3.2l-1.05-8.97H52.5l-1.05 8.97H48.4l4.57-36.2zm4.14 24.5l-2.1-19.52h-.1l-2.1 19.52h4.3zM64.77 72.07h3.15v33.47h6.71v2.73h-9.86v-36.2zM87.64 108.27l-6.71-18.26h-.1v18.26h-3.15v-36.2h3.15v16.89h.1l6.56-16.89h3.2l-6.77 17.26L91 108.27h-3.36zM104.01 74.8H99.6v-2.73h11.96v2.73h-4.41v33.47H104V74.8zM113.98 102.24V78.11c0-4.2 2.26-6.56 6.09-6.56s6.09 2.36 6.09 6.56v24.13c0 4.2-2.26 6.56-6.09 6.56s-6.09-2.37-6.09-6.56zm9.02-.53V78.63c0-3.04-.84-4.25-2.94-4.25-2.15 0-2.94 1.21-2.94 4.25v23.08c0 3.04.79 4.25 2.94 4.25 2.1 0 2.94-1.2 2.94-4.25zM140.84 91.38l-5.09-19.31H139l3.46 14.32h.1l3.46-14.32h3.04l-5.09 19.31v16.89h-3.15V91.38zM151.07 102.24V78.11c0-4.2 2.26-6.56 6.09-6.56s6.09 2.36 6.09 6.56v24.13c0 4.2-2.26 6.56-6.09 6.56s-6.09-2.37-6.09-6.56zm9.02-.53V78.63c0-3.04-.84-4.25-2.94-4.25-2.15 0-2.94 1.21-2.94 4.25v23.08c0 3.04.79 4.25 2.94 4.25 2.1 0 2.94-1.2 2.94-4.25zM167.22 102.45V72.07h3.15v29.8c0 2.94.73 4.09 2.83 4.09s2.83-1.15 2.83-4.09v-29.8h3.04v30.37c0 4.04-2.2 6.35-5.93 6.35-3.71 0-5.92-2.3-5.92-6.34zM183.28 72.07h5.82c4.2 0 6.19 2.15 6.19 6.56v4.62c0 2.94-.94 4.72-2.83 5.56v.11c1.89.84 2.83 2.62 2.83 5.61v13.74h-3.15V94.74c0-3.36-.94-4.35-3.93-4.35h-1.78v17.89h-3.15V72.07zm5.45 15.58c2.62 0 3.41-1 3.41-4.35v-4.14c0-3.36-.79-4.35-3.41-4.35h-2.31v12.85h2.31zM206.15 72.07h5.98c4.2 0 6.19 2.15 6.19 6.56v5.67c0 4.41-1.99 6.56-6.19 6.56h-2.83v17.42h-3.15V72.07zm5.61 16.06c2.62 0 3.41-1 3.41-4.35v-4.62c0-3.36-.79-4.35-3.41-4.35h-2.47v13.33h2.47zM221.73 72.07h5.82c4.2 0 6.19 2.15 6.19 6.56v4.62c0 2.94-.94 4.72-2.83 5.56v.11c1.89.84 2.83 2.62 2.83 5.61v13.74h-3.15V94.74c0-3.36-.94-4.35-3.93-4.35h-1.78v17.89h-3.15V72.07zm5.45 15.58c2.62 0 3.41-1 3.41-4.35v-4.14c0-3.36-.79-4.35-3.41-4.35h-2.31v12.85h2.31zM237.57 102.24V78.11c0-4.2 2.26-6.56 6.09-6.56s6.09 2.36 6.09 6.56v24.13c0 4.2-2.26 6.56-6.09 6.56s-6.09-2.37-6.09-6.56zm9.02-.53V78.63c0-3.04-.84-4.25-2.94-4.25-2.15 0-2.94 1.21-2.94 4.25v23.08c0 3.04.79 4.25 2.94 4.25 2.1 0 2.94-1.2 2.94-4.25zM252.52 72.07h3.2l3.31 30.43h.1l3.31-30.43h2.99l-4.35 36.2h-4.2l-4.36-36.2zM268.58 72.07h3.15v36.2h-3.15v-36.2zM276.02 72.07H282c4.2 0 6.19 2.15 6.19 6.56v23.08c0 4.41-1.99 6.56-6.19 6.56h-5.98v-36.2zm5.62 33.47c2.62 0 3.41-1 3.41-4.35V79.16c0-3.36-.79-4.35-3.41-4.35h-2.47v30.74h2.47zM292.23 72.07h10.39v2.73h-7.24v12.64h6.3v2.73h-6.3v15.37h7.24v2.73h-10.39v-36.2zM305.87 72.07h5.82c4.2 0 6.19 2.15 6.19 6.56v4.62c0 2.94-.94 4.72-2.83 5.56v.11c1.89.84 2.83 2.62 2.83 5.61v13.74h-3.15V94.74c0-3.36-.94-4.35-3.93-4.35h-1.78v17.89h-3.15V72.07zm5.46 15.58c2.62 0 3.41-1 3.41-4.35v-4.14c0-3.36-.79-4.35-3.41-4.35h-2.31v12.85h2.31zM332.1 72.07h4.14l4.56 36.2h-3.2l-1.05-8.97h-4.93l-1.05 8.97h-3.04l4.57-36.2zm4.15 24.5l-2.1-19.52h-.1l-2.1 19.52h4.3zM343.91 72.07h5.82c4.2 0 6.19 2.15 6.19 6.56v4.35c0 2.94-.89 4.72-2.73 5.56v.1c1.99.84 2.94 2.62 2.94 5.67v7.4c0 4.41-1.99 6.56-6.19 6.56h-6.03v-36.2zm5.45 15.37c2.62 0 3.41-1 3.41-4.3v-3.99c0-3.36-.79-4.35-3.41-4.35h-2.31v12.64h2.31zm.21 18.1c2.62 0 3.41-1 3.41-4.35v-6.66c0-3.36-.79-4.35-3.41-4.35h-2.52v15.37h2.52zM359.75 102.24V78.11c0-4.2 2.26-6.56 6.09-6.56s6.09 2.36 6.09 6.56v24.13c0 4.2-2.26 6.56-6.09 6.56s-6.09-2.37-6.09-6.56zm9.02-.53V78.63c0-3.04-.84-4.25-2.94-4.25-2.15 0-2.94 1.21-2.94 4.25v23.08c0 3.04.79 4.25 2.94 4.25 2.1 0 2.94-1.2 2.94-4.25zM375.91 102.45V72.07h3.15v29.8c0 2.94.73 4.09 2.83 4.09s2.83-1.15 2.83-4.09v-29.8h3.04v30.37c0 4.04-2.2 6.35-5.93 6.35-3.72 0-5.92-2.3-5.92-6.34zM395.11 74.8h-4.41v-2.73h11.96v2.73h-4.41v33.47h-3.15V74.8zM41.01 119.54h4.14l4.56 36.2h-3.2l-1.05-8.97h-4.93l-1.05 8.97h-3.04l4.57-36.2zm4.14 24.5l-2.1-19.52h-.1l-2.1 19.52h4.3zM59.63 119.54h5.98c4.2 0 6.19 2.15 6.19 6.56v5.67c0 4.41-1.99 6.56-6.19 6.56h-2.83v17.42h-3.15v-36.21zm5.61 16.05c2.62 0 3.41-1 3.41-4.35v-4.62c0-3.36-.79-4.35-3.41-4.35h-2.47v13.33h2.47zM75.21 119.54H85.6v2.73h-7.24v12.64h6.3v2.73h-6.3v15.37h7.24v2.73H75.21v-36.2zM88.85 119.54h5.82c4.2 0 6.19 2.15 6.19 6.56v4.62c0 2.94-.94 4.72-2.83 5.56v.11c1.89.84 2.83 2.62 2.83 5.61v13.74h-3.15V142.2c0-3.36-.94-4.35-3.93-4.35H92v17.89h-3.15v-36.2zm5.46 15.58c2.62 0 3.41-1 3.41-4.35v-4.14c0-3.36-.79-4.35-3.41-4.35H92v12.85h2.31zM104.33 149.81v-6.35h3.04v5.77c0 2.99.84 4.2 2.94 4.2 2.15 0 2.99-1.21 2.99-4.2v-5.46c0-2.47-.68-3.67-2.47-4.83l-2.78-1.78c-2.68-1.73-3.72-3.72-3.72-7.24v-4.67c0-3.99 2.15-6.24 5.88-6.24s5.88 2.26 5.88 6.24v4.67h-3.04v-4.14c0-2.83-.79-3.93-2.78-3.93-1.99 0-2.78 1.1-2.78 3.93v3.93c0 2.46.68 3.67 2.47 4.83l2.78 1.78c2.68 1.73 3.72 3.72 3.72 7.24v6.24c0 4.14-2.26 6.45-6.09 6.45-3.84.01-6.04-2.3-6.04-6.44zM119.85 149.7v-24.13c0-4.2 2.26-6.56 6.09-6.56s6.09 2.36 6.09 6.56v24.13c0 4.2-2.26 6.56-6.09 6.56s-6.09-2.36-6.09-6.56zm9.03-.52V126.1c0-3.04-.84-4.25-2.94-4.25-2.15 0-2.94 1.21-2.94 4.25v23.08c0 3.04.79 4.25 2.94 4.25 2.1 0 2.94-1.21 2.94-4.25zM136.12 119.54h4.09l5.72 26.49h.1v-26.49h2.83v36.2h-3.41l-6.4-29.85h-.1v29.85h-2.83v-36.2zM156.52 119.54h4.14l4.56 36.2h-3.2l-1.05-8.97h-4.93l-1.05 8.97h-3.04l4.57-36.2zm4.15 24.5l-2.1-19.52h-.1l-2.1 19.52h4.3zM168.33 119.54h3.15v33.47h6.71v2.73h-9.86v-36.2zM181.23 119.54h3.15v36.2h-3.15v-36.2zM187.52 153.27l8.55-31h-8.03v-2.73h11.33V122l-8.55 31h8.55v2.73h-11.86v-2.46zM202.58 119.54h10.39v2.73h-7.24v12.64h6.3v2.73h-6.3v15.37h7.24v2.73h-10.39v-36.2zM216.22 119.54h5.98c4.2 0 6.19 2.15 6.19 6.56v23.08c0 4.41-1.99 6.56-6.19 6.56h-5.98v-36.2zm5.61 33.47c2.62 0 3.41-1 3.41-4.35v-22.03c0-3.36-.79-4.35-3.41-4.35h-2.47v30.74h2.47zM242.4 122.26h-4.41v-2.73h11.96v2.73h-4.41v33.47h-3.15v-33.47zM252.99 119.54h5.82c4.2 0 6.19 2.15 6.19 6.56v4.62c0 2.94-.94 4.72-2.83 5.56v.11c1.89.84 2.83 2.62 2.83 5.61v13.74h-3.15V142.2c0-3.36-.94-4.35-3.93-4.35h-1.78v17.89h-3.15v-36.2zm5.46 15.58c2.62 0 3.41-1 3.41-4.35v-4.14c0-3.36-.79-4.35-3.41-4.35h-2.31v12.85h2.31zM269.05 119.54h10.39v2.73h-7.24v12.64h6.3v2.73h-6.3v15.37h7.24v2.73h-10.39v-36.2zM286.2 119.54h4.14l4.56 36.2h-3.2l-1.05-8.97h-4.93l-1.05 8.97h-3.04l4.57-36.2zm4.14 24.5l-2.1-19.52h-.1l-2.1 19.52h4.3zM299.37 122.26h-4.41v-2.73h11.96v2.73h-4.41v33.47h-3.15v-33.47zM309.96 119.54h4.98l4.04 26.7h.1l4.04-26.7h5.19v36.2h-3.15v-32.37h-.1l-4.88 32.37h-2.47l-4.88-32.37h-.1v32.37h-2.78v-36.2zM332.62 119.54h10.39v2.73h-7.24v12.64h6.3v2.73h-6.3v15.37h7.24v2.73h-10.39v-36.2zM346.26 119.54h4.09l5.72 26.49h.1v-26.49H359v36.2h-3.41l-6.4-29.85h-.1v29.85h-2.83v-36.2zM366.46 122.26h-4.41v-2.73h11.96v2.73h-4.41v33.47h-3.15v-33.47zM383.88 119.54h5.98c4.2 0 6.19 2.15 6.19 6.56v5.67c0 4.41-1.99 6.56-6.19 6.56h-2.83v17.42h-3.15v-36.21zm5.61 16.05c2.62 0 3.41-1 3.41-4.35v-4.62c0-3.36-.79-4.35-3.41-4.35h-2.47v13.33h2.47zM399.46 119.54h3.15v33.47h6.71v2.73h-9.86v-36.2zM415.88 119.54h4.14l4.56 36.2h-3.2l-1.05-8.97h-4.93l-1.05 8.97h-3.04l4.57-36.2zm4.14 24.5l-2.1-19.52h-.1l-2.1 19.52h4.3zM427.68 119.54h4.09l5.72 26.49h.1v-26.49h2.83v36.2h-3.41l-6.4-29.85h-.1v29.85h-2.83v-36.2zM444.73 151.43h3.51v4.3h-3.51v-4.3z"/></svg>