<svg id="Layer_1" xmlns="http://www.w3.org/2000/svg" viewBox="0 0 1940 500"><style>.st0{fill:#eaf5fb}.st1{fill:#002457}</style><path class="st0" d="M72.92 357.98h477.96v90H72.92z"/><path class="st1" d="M134.66 394.16v6h11.67v5.71h-11.67v10.89h-7.38v-28.31h22v5.7h-14.62zM160.91 416.77h-7.38v-28.31h7.38v28.31zM192.69 416.77h-8.19l-8.79-15.31-2.14-4.29h-.04l.17 5.32v14.28h-6.52v-28.31h8.19l8.79 15.31 2.14 4.29h.04l-.17-5.32v-14.28h6.52v28.31zM224.69 402.61c0 9.05-4.85 14.15-13.73 14.15h-12.01v-28.31h12.01c8.89.01 13.73 5.11 13.73 14.16zm-7.55 0c0-5.66-2.1-8.58-6.91-8.58h-3.9v17.16h3.9c4.81 0 6.91-2.92 6.91-8.58zM257.3 410.38h-9.78l-1.97 6.39h-7.42l9.95-28.31h8.83l9.91 28.31h-7.59l-1.93-6.39zm-1.55-5.02l-2.06-6.78-1.24-4.46h-.09l-1.16 4.42-2.1 6.82h6.65zM305.38 397.85c0 5.79-3.9 9.09-10.94 9.09h-5.62v9.82h-7.38v-28.31h13c7.04.01 10.94 3.31 10.94 9.4zm-7.42-.09c0-2.49-1.42-3.73-4.67-3.73h-4.46v7.51h4.46c3.26 0 4.67-1.25 4.67-3.78zM321.77 406.43h-4.42v10.34h-7.25v-28.31h13.51c6.82 0 10.68 3.17 10.68 9.01 0 4.12-1.93 6.91-5.49 8.19l7.16 11.11h-8.15l-6.04-10.34zm-4.42-5.23h5.02c3.13 0 4.5-1.07 4.5-3.6 0-2.49-1.37-3.56-4.5-3.56h-5.02v7.16zM365.91 402.61c0 9.14-5.23 14.58-13.85 14.58s-13.9-5.45-13.9-14.58c0-9.14 5.28-14.58 13.9-14.58s13.85 5.44 13.85 14.58zm-20.2 0c0 5.79 2.23 8.79 6.35 8.79 4.08 0 6.31-3 6.31-8.79 0-5.79-2.23-8.79-6.31-8.79-4.12 0-6.35 3-6.35 8.79zM386.07 416.77h-8.66l-10.08-28.31h7.76l5.19 17.11 1.54 5.58 1.5-5.49 5.28-17.2h7.51l-10.04 28.31zM406.88 416.77h-7.38v-28.31h7.38v28.31zM438.87 402.61c0 9.05-4.85 14.15-13.73 14.15h-12.01v-28.31h12.01c8.89.01 13.73 5.11 13.73 14.16zm-7.54 0c0-5.66-2.1-8.58-6.91-8.58h-3.9v17.16h3.9c4.8 0 6.91-2.92 6.91-8.58zM466.54 411.06v5.71h-22.6v-28.31h22.05v5.7h-14.67v5.75h11.67v5.36h-11.67v5.79h15.22zM482.67 406.43h-4.42v10.34H471v-28.31h13.51c6.82 0 10.68 3.17 10.68 9.01 0 4.12-1.93 6.91-5.49 8.19l7.16 11.11h-8.15l-6.04-10.34zm-4.42-5.23h5.02c3.13 0 4.5-1.07 4.5-3.6 0-2.49-1.37-3.56-4.5-3.56h-5.02v7.16z"/></svg>