<svg id="Layer_1" xmlns="http://www.w3.org/2000/svg" viewBox="0 0 970 250"><style>.st0{fill:#eaf5fb}</style><path class="st0" d="M27.83 116.98v-6.3h3.02v5.73c0 2.97.83 4.17 2.92 4.17 2.13 0 2.97-1.2 2.97-4.17v-5.42c0-2.45-.68-3.65-2.45-4.79l-2.76-1.77c-2.66-1.72-3.7-3.7-3.7-7.19v-4.63c0-3.96 2.14-6.2 5.83-6.2 3.7 0 5.83 2.24 5.83 6.2v4.63h-3.02v-4.11c0-2.81-.78-3.91-2.76-3.91s-2.76 1.09-2.76 3.91v3.91c0 2.45.68 3.65 2.45 4.79l2.76 1.77c2.66 1.72 3.7 3.7 3.7 7.19v6.2c0 4.11-2.24 6.41-6.04 6.41s-5.99-2.31-5.99-6.42zM48.77 89.64H44.4v-2.71h11.87v2.71H51.9v33.23h-3.12V89.64zM61.63 86.93h5.78c4.17 0 6.15 2.14 6.15 6.51v4.58c0 2.92-.94 4.69-2.81 5.52v.1c1.87.83 2.81 2.6 2.81 5.57v13.64h-3.12v-13.44c0-3.33-.94-4.32-3.91-4.32h-1.77v17.76h-3.12V86.93zm5.42 15.47c2.6 0 3.39-.99 3.39-4.32v-4.11c0-3.33-.78-4.32-3.39-4.32h-2.29v12.76h2.29zM79.92 86.93h10.31v2.71h-7.19v12.55h6.25v2.71h-6.25v15.26h7.19v2.71H79.92V86.93zM95.8 86.93h4.06l5.68 26.3h.1v-26.3h2.81v35.93h-3.38l-6.35-29.63h-.1v29.63H95.8V86.93zM114.86 117.76V92.87c0-4.11 2.24-6.46 5.99-6.46 3.8 0 5.94 2.34 5.94 6.46v3.96h-2.97v-3.39c0-3.02-.83-4.22-2.92-4.22-2.14 0-2.92 1.2-2.92 4.22v23.96c0 2.14.78 3.18 2.5 3.18 2.14 0 3.33-1.61 3.33-4.53v-10.31h-2.92v-2.71h6.04v19.84h-2.66v-2.55h-.16c-.83 1.98-2.34 3.07-4.48 3.07-3 0-4.77-2.14-4.77-5.63zM136.22 89.64h-4.37v-2.71h11.87v2.71h-4.37v33.23h-3.12V89.64zM149.08 86.93h3.12v15.26h5.88V86.93h3.12v35.93h-3.12V104.9h-5.88v17.97h-3.12V86.93zM167.83 86.93h10.31v2.71h-7.19v12.55h6.25v2.71h-6.25v15.26h7.19v2.71h-10.31V86.93zM183.72 86.93h4.06l5.68 26.3h.1v-26.3h2.81v35.93h-3.38l-6.35-29.63h-.1v29.63h-2.81V86.93zM204.19 122.87h-1.25v-4.27h3.54v3.75l-2.29 5.78h-1.82l1.82-5.26zM225.33 89.64h-4.37v-2.71h11.87v2.71h-4.37v33.23h-3.12V89.64zM237.57 116.88V92.92c0-4.17 2.24-6.51 6.04-6.51s6.04 2.34 6.04 6.51v23.96c0 4.17-2.24 6.51-6.04 6.51s-6.04-2.35-6.04-6.51zm8.96-.52V93.44c0-3.02-.83-4.22-2.92-4.22-2.13 0-2.92 1.2-2.92 4.22v22.91c0 3.02.78 4.22 2.92 4.22 2.08 0 2.92-1.19 2.92-4.21zM256.06 86.93h4.06l5.68 26.3h.1v-26.3h2.81v35.93h-3.38l-6.35-29.63h-.1v29.63h-2.81V86.93zM275.33 86.93h10.31v2.71h-7.19v12.55h6.25v2.71h-6.25v15.26h7.19v2.71h-10.31V86.93zM292.93 122.87h-1.25v-4.27h3.54v3.75l-2.29 5.78h-1.82l1.82-5.26zM33.82 137.71h4.11l4.53 35.93h-3.18l-1.04-8.91h-4.9l-1.04 8.91h-3.02l4.54-35.93zm4.12 24.32l-2.08-19.37h-.1l-2.08 19.37h4.26zM47.88 137.71h4.06l5.68 26.3h.1v-26.3h2.81v35.93h-3.38l-6.35-29.63h-.1v29.63h-2.81v-35.93zM67.15 137.71h5.94c4.17 0 6.15 2.13 6.15 6.51v22.91c0 4.38-1.98 6.51-6.15 6.51h-5.94v-35.93zm5.58 33.23c2.6 0 3.39-.99 3.39-4.32v-21.87c0-3.33-.78-4.32-3.39-4.32h-2.45v30.52h2.45zM94.71 137.71h10.31v2.71h-7.19v13.07h6.25v2.71h-6.25v17.45h-3.12v-35.94zM110.38 137.71h3.12v35.93h-3.12v-35.93zM120.12 137.71h5.78c4.17 0 6.15 2.13 6.15 6.51v4.58c0 2.92-.94 4.69-2.81 5.52v.1c1.87.83 2.81 2.6 2.81 5.57v13.64h-3.12v-13.44c0-3.33-.94-4.32-3.91-4.32h-1.77v17.76h-3.12v-35.92zm5.42 15.47c2.6 0 3.39-.99 3.39-4.32v-4.11c0-3.33-.78-4.32-3.39-4.32h-2.29v12.76h2.29zM138.4 137.71h4.95l4.01 26.51h.1l4.01-26.51h5.16v35.93h-3.12v-32.13h-.1l-4.84 32.13h-2.45l-4.84-32.13h-.1v32.13h-2.76v-35.93zM172.36 137.71h4.95l4.01 26.51h.1l4.01-26.51h5.16v35.93h-3.12v-32.13h-.1l-4.84 32.13h-2.45l-4.84-32.13h-.1v32.13h-2.76v-35.93zM197.1 167.87v-30.15h3.12v29.58c0 2.92.73 4.06 2.81 4.06s2.81-1.15 2.81-4.06v-29.58h3.02v30.15c0 4.01-2.19 6.3-5.88 6.3s-5.88-2.29-5.88-6.3zM214.81 167.76v-6.3h3.02v5.73c0 2.97.83 4.17 2.92 4.17 2.14 0 2.97-1.2 2.97-4.17v-5.42c0-2.45-.68-3.65-2.45-4.79l-2.76-1.77c-2.66-1.72-3.7-3.7-3.7-7.19v-4.64c0-3.96 2.14-6.2 5.83-6.2 3.7 0 5.83 2.24 5.83 6.2v4.64h-3.02v-4.11c0-2.81-.78-3.91-2.76-3.91s-2.76 1.09-2.76 3.91v3.91c0 2.45.68 3.65 2.45 4.79l2.76 1.77c2.66 1.72 3.7 3.7 3.7 7.19v6.2c0 4.11-2.24 6.41-6.04 6.41s-5.99-2.3-5.99-6.42zM232.57 167.97v-24.58c0-3.96 2.08-6.2 5.83-6.2 3.8 0 5.88 2.24 5.88 6.2v5.88h-2.97v-5.36c0-2.81-.83-3.91-2.81-3.91-2.03 0-2.81 1.09-2.81 3.91v23.54c0 2.81.78 3.91 2.81 3.91 1.98 0 2.81-1.09 2.81-3.91v-7.24h2.97v7.76c0 3.96-2.08 6.2-5.88 6.2-3.75 0-5.83-2.24-5.83-6.2zM250.33 137.71h3.12v33.23h6.67v2.71h-9.79v-35.94zM265.48 137.71h10.31v2.71h-7.19v12.55h6.25v2.71h-6.25v15.26h7.19v2.71h-10.31v-35.94zM280.9 167.76v-6.3h3.02v5.73c0 2.97.83 4.17 2.92 4.17 2.13 0 2.97-1.2 2.97-4.17v-5.42c0-2.45-.68-3.65-2.45-4.79l-2.76-1.77c-2.66-1.72-3.7-3.7-3.7-7.19v-4.64c0-3.96 2.14-6.2 5.83-6.2 3.7 0 5.83 2.24 5.83 6.2v4.64h-3.02v-4.11c0-2.81-.78-3.91-2.76-3.91s-2.76 1.09-2.76 3.91v3.91c0 2.45.68 3.65 2.45 4.79l2.76 1.77c2.66 1.72 3.7 3.7 3.7 7.19v6.2c0 4.11-2.24 6.41-6.04 6.41s-5.99-2.3-5.99-6.42zM298.87 169.38h3.49v4.27h-3.49v-4.27z"/></svg>