<svg id="Layer_1" xmlns="http://www.w3.org/2000/svg" viewBox="0 0 970 250"><style>.st0{fill:#fff}</style><path class="st0" d="M654.98 208.53h-1.19v-8.51h1.19v8.51zM659.67 208.53h-1.23l-2.32-5.7h1.25l1.67 4.48h.02l1.68-4.48h1.2l-2.27 5.7zM666.59 204.84c0-.42-.13-.74-.38-.94-.26-.2-.6-.31-1.02-.31-.32 0-.62.06-.91.19s-.52.28-.71.47l-.6-.72c.28-.26.62-.47 1.03-.62.4-.15.84-.23 1.3-.23.41 0 .76.06 1.06.17.3.12.55.27.74.47s.34.44.43.71c.1.27.14.57.14.88v2.49c0 .19.01.39.02.61.01.21.03.39.07.52h-1.02c-.06-.27-.1-.54-.1-.82h-.04c-.21.3-.47.54-.79.71-.32.17-.69.25-1.12.25-.22 0-.46-.03-.7-.09-.24-.06-.47-.16-.67-.29-.2-.14-.37-.32-.5-.54-.13-.22-.2-.5-.2-.83 0-.43.12-.78.35-1.03.23-.25.54-.45.91-.58.38-.13.8-.22 1.27-.26s.95-.06 1.43-.06v-.15zm-.27.97c-.28 0-.57.01-.87.04-.3.02-.57.07-.82.14s-.45.18-.61.33c-.16.14-.24.34-.24.58 0 .17.03.31.1.42s.16.2.27.28.24.12.37.15c.14.03.28.04.42.04.53 0 .94-.16 1.22-.47.29-.32.43-.71.43-1.2v-.3h-.27zM670.58 202.83c.02.14.03.31.04.49s.01.33.01.45h.04c.07-.15.17-.29.29-.43.12-.13.27-.25.43-.35.16-.1.34-.18.53-.23.19-.06.39-.08.6-.08.37 0 .69.06.95.19a1.926 1.926 0 0 1 1.05 1.23c.08.28.13.58.13.9v3.53h-1.13v-3.16c0-.23-.02-.45-.05-.66-.04-.21-.1-.39-.2-.55-.1-.16-.23-.29-.4-.38-.17-.1-.38-.14-.65-.14-.45 0-.82.17-1.1.51-.29.34-.43.79-.43 1.36v3.03h-1.13v-4.47c0-.15 0-.35-.01-.59s-.02-.45-.04-.64h1.07zM679.98 202.83l1.29 4.35h.02l1.36-4.35h1.19l1.38 4.35h.02l1.29-4.35h1.19l-1.89 5.7h-1.18l-1.41-4.28h-.02l-1.39 4.28h-1.18l-1.9-5.7h1.23zM692.4 204.84c0-.42-.13-.74-.38-.94-.26-.2-.6-.31-1.02-.31-.32 0-.62.06-.91.19s-.52.28-.71.47l-.6-.72c.28-.26.62-.47 1.03-.62.4-.15.84-.23 1.3-.23.41 0 .76.06 1.06.17.3.12.55.27.74.47s.34.44.43.71c.1.27.14.57.14.88v2.49c0 .19.01.39.02.61.01.21.03.39.07.52h-1.02c-.06-.27-.1-.54-.1-.82h-.04c-.21.3-.47.54-.79.71-.32.17-.69.25-1.12.25-.22 0-.46-.03-.7-.09-.24-.06-.47-.16-.67-.29-.2-.14-.37-.32-.5-.54-.13-.22-.2-.5-.2-.83 0-.43.12-.78.35-1.03.23-.25.54-.45.91-.58.38-.13.8-.22 1.27-.26s.95-.06 1.43-.06v-.15zm-.28.97c-.28 0-.57.01-.87.04-.3.02-.57.07-.82.14s-.45.18-.61.33c-.16.14-.24.34-.24.58 0 .17.03.31.1.42s.16.2.27.28.24.12.37.15c.14.03.28.04.42.04.53 0 .94-.16 1.22-.47.29-.32.43-.71.43-1.2v-.3h-.27zM698.44 204.27c-.13-.21-.31-.38-.54-.51-.23-.13-.49-.2-.78-.2-.13 0-.26.01-.38.04-.13.03-.24.07-.34.13-.1.06-.18.14-.24.23s-.09.21-.09.34c0 .24.11.42.32.54.22.12.54.22.97.32.27.06.52.14.76.23s.43.2.61.33c.17.13.31.29.4.47.1.18.14.4.14.65 0 .34-.06.62-.19.85-.13.23-.3.42-.51.57-.21.15-.46.25-.73.32-.27.06-.55.1-.84.1-.43 0-.86-.08-1.27-.25-.41-.17-.75-.42-1.03-.77l.81-.69c.15.22.36.41.63.57.27.15.56.23.88.23.14 0 .28-.01.42-.04.13-.03.25-.07.36-.14s.19-.15.26-.25c.06-.1.1-.24.1-.4 0-.26-.13-.46-.38-.59-.25-.13-.62-.25-1.11-.36-.19-.05-.39-.11-.58-.17s-.38-.16-.54-.28-.29-.27-.39-.45c-.1-.18-.15-.4-.15-.67 0-.3.06-.57.19-.79.12-.22.29-.4.49-.54s.43-.24.68-.31c.26-.07.52-.1.79-.1a3 3 0 0 1 1.18.24c.38.16.67.39.88.7l-.78.65zM706.49 203.76h-1.51v2.96c0 .34.06.59.19.74.13.15.33.22.61.22.1 0 .22-.01.34-.03.12-.02.23-.05.32-.1l.04.92c-.14.05-.29.09-.45.11-.16.03-.33.04-.51.04-.54 0-.95-.15-1.23-.44-.29-.3-.43-.74-.43-1.33v-3.09h-1.09v-.92h1.09v-1.63h1.12v1.63h1.51v.92zM707.65 203.47c-.01-.24-.02-.45-.04-.64h1.07a8.218 8.218 0 0 1 .05.96h.04c.16-.34.39-.61.7-.81.31-.2.66-.31 1.04-.31.18 0 .32.02.44.05l-.05 1.05a2.12 2.12 0 0 0-.52-.06c-.27 0-.51.05-.71.15-.2.1-.37.23-.5.4s-.23.36-.29.58-.1.45-.1.69v2.99h-1.13v-4.47c.01-.15.01-.34 0-.58zM717.12 205.63v.19c0 .06 0 .13-.01.19h-4.53c.01.24.06.46.16.67.1.21.23.39.4.55.17.16.36.28.58.36.22.09.46.13.7.13.38 0 .72-.08 1-.25.28-.17.5-.37.66-.61l.79.64c-.3.4-.66.7-1.08.89-.41.19-.87.29-1.38.29-.43 0-.83-.07-1.2-.22-.37-.14-.68-.35-.95-.61s-.47-.58-.62-.94-.23-.78-.23-1.23c0-.44.07-.85.22-1.22s.36-.69.62-.96c.26-.26.58-.47.94-.62.36-.15.75-.22 1.17-.22.42 0 .8.07 1.14.2.34.14.63.33.87.59.24.26.42.57.55.93.13.38.2.79.2 1.25zm-1.16-.46c-.01-.22-.05-.43-.11-.63-.07-.2-.17-.37-.3-.51-.13-.14-.3-.26-.49-.34-.2-.08-.43-.13-.69-.13-.24 0-.47.04-.68.13a1.702 1.702 0 0 0-.93.85c-.1.2-.16.41-.17.63h3.37zM722.15 204.84c0-.42-.13-.74-.38-.94-.26-.2-.6-.31-1.02-.31-.32 0-.62.06-.91.19s-.52.28-.71.47l-.6-.72c.28-.26.62-.47 1.03-.62.4-.15.84-.23 1.3-.23.41 0 .76.06 1.06.17.3.12.55.27.74.47s.34.44.43.71c.1.27.14.57.14.88v2.49c0 .19.01.39.02.61.01.21.03.39.07.52h-1.02c-.06-.27-.1-.54-.1-.82h-.04c-.21.3-.47.54-.79.71-.32.17-.69.25-1.12.25-.22 0-.46-.03-.7-.09-.24-.06-.47-.16-.67-.29-.2-.14-.37-.32-.5-.54-.13-.22-.2-.5-.2-.83 0-.43.12-.78.35-1.03.23-.25.54-.45.91-.58.38-.13.8-.22 1.27-.26s.95-.06 1.43-.06v-.15zm-.27.97c-.28 0-.57.01-.87.04-.3.02-.57.07-.82.14s-.45.18-.61.33c-.16.14-.24.34-.24.58 0 .17.03.31.1.42s.16.2.27.28.24.12.37.15c.14.03.28.04.42.04.53 0 .94-.16 1.22-.47.29-.32.43-.71.43-1.2v-.3h-.27zM727.79 203.76h-1.51v2.96c0 .34.06.59.19.74.13.15.33.22.61.22.1 0 .22-.01.34-.03.12-.02.23-.05.32-.1l.04.92c-.14.05-.29.09-.45.11-.16.03-.33.04-.51.04-.54 0-.95-.15-1.23-.44-.29-.3-.43-.74-.43-1.33v-3.09h-1.09v-.92h1.09v-1.63h1.12v1.63h1.51v.92zM734.28 205.63v.19c0 .06 0 .13-.01.19h-4.53c.01.24.06.46.16.67.1.21.23.39.4.55.17.16.36.28.58.36.22.09.46.13.7.13.38 0 .72-.08 1-.25.28-.17.5-.37.66-.61l.79.64c-.3.4-.66.7-1.08.89-.41.19-.87.29-1.38.29-.43 0-.83-.07-1.2-.22-.37-.14-.68-.35-.95-.61s-.47-.58-.62-.94-.23-.78-.23-1.23c0-.44.07-.85.22-1.22s.36-.69.62-.96c.26-.26.58-.47.94-.62.36-.15.75-.22 1.17-.22.42 0 .8.07 1.14.2.34.14.63.33.87.59.24.26.42.57.55.93.14.38.2.79.2 1.25zm-1.15-.46c-.01-.22-.05-.43-.11-.63-.07-.2-.17-.37-.3-.51-.13-.14-.3-.26-.49-.34-.2-.08-.43-.13-.69-.13-.24 0-.47.04-.68.13a1.702 1.702 0 0 0-.93.85c-.1.2-.16.41-.17.63h3.37zM740.39 207.63c-.22.34-.51.61-.88.79-.37.18-.76.27-1.17.27-.44 0-.84-.08-1.19-.23s-.65-.37-.9-.64-.44-.59-.58-.96c-.14-.37-.2-.76-.2-1.18s.07-.81.2-1.17c.14-.36.33-.68.58-.96.25-.27.55-.49.91-.64.35-.15.74-.23 1.17-.23a2.461 2.461 0 0 1 2.03 1h.02v-4.24h1.13v9.09h-1.09v-.9h-.03zm-3.75-1.96c0 .26.04.52.12.77.08.25.2.47.36.66.16.19.36.35.59.46s.5.17.82.17a1.865 1.865 0 0 0 1.4-.62c.17-.19.3-.41.39-.65.09-.25.14-.51.14-.78s-.05-.53-.14-.78c-.09-.25-.22-.47-.39-.66s-.37-.34-.61-.46c-.24-.11-.5-.17-.79-.17-.31 0-.58.06-.82.17-.23.11-.43.26-.59.46s-.28.41-.36.66c-.08.25-.12.51-.12.77zM746.9 202.83l1.29 4.35h.02l1.36-4.35h1.19l1.38 4.35h.02l1.29-4.35h1.19l-1.89 5.7h-1.18l-1.41-4.28h-.02l-1.39 4.28h-1.18l-1.9-5.7h1.23zM757.09 200.78c0 .21-.07.38-.22.52a.74.74 0 0 1-.53.21c-.21 0-.38-.07-.52-.21a.694.694 0 0 1-.21-.51.717.717 0 0 1 .73-.73c.21 0 .38.07.53.21.15.12.22.3.22.51zm-.18 7.75h-1.13v-5.7h1.13v5.7zM761.67 203.76h-1.51v2.96c0 .34.06.59.19.74.13.15.33.22.61.22.1 0 .22-.01.34-.03.12-.02.23-.05.32-.1l.04.92c-.14.05-.29.09-.45.11-.16.03-.33.04-.51.04-.54 0-.95-.15-1.23-.44-.29-.3-.43-.74-.43-1.33v-3.09h-1.09v-.92h1.09v-1.63h1.12v1.63h1.51v.92zM764.01 203.7c.14-.28.37-.52.7-.72.33-.2.7-.3 1.11-.3.37 0 .68.06.95.19a1.926 1.926 0 0 1 1.05 1.23c.08.28.13.58.13.9v3.53h-1.13v-3.16c0-.23-.02-.45-.05-.66s-.1-.39-.2-.55c-.1-.16-.23-.29-.39-.39s-.38-.14-.64-.14c-.45 0-.82.17-1.11.51-.29.34-.43.8-.43 1.37v3.02h-1.13v-9.09H764v4.25h.01zM621.72 220.73c-.34.46-.77.83-1.31 1.11-.54.28-1.18.43-1.93.43-.65 0-1.25-.11-1.8-.33a4.17 4.17 0 0 1-2.35-2.35 4.82 4.82 0 0 1-.34-1.81c0-.67.11-1.27.34-1.82s.54-1.02.95-1.41c.41-.39.88-.69 1.44-.91.55-.22 1.15-.33 1.8-.33.29 0 .58.03.88.08.3.06.58.14.85.25s.52.25.75.41c.22.17.42.35.58.57l-.94.72c-.21-.29-.5-.53-.88-.71-.38-.19-.79-.28-1.23-.28-.5 0-.94.09-1.34.27-.4.18-.74.43-1.02.74s-.5.67-.65 1.09c-.15.41-.23.85-.23 1.32 0 .48.07.93.22 1.35.15.42.36.78.64 1.09s.61.55 1.01.73c.4.18.84.26 1.33.26.48 0 .92-.1 1.31-.29.39-.19.72-.47.97-.84l.95.66zM628.5 219.19c0 .44-.08.85-.23 1.21s-.37.69-.65.96-.6.48-.98.62c-.38.15-.78.22-1.21.22s-.84-.07-1.21-.22c-.38-.15-.7-.36-.97-.62-.27-.27-.49-.59-.64-.96s-.23-.77-.23-1.21.08-.84.23-1.21c.16-.36.37-.68.64-.94s.6-.47.97-.62c.38-.15.78-.22 1.21-.22s.84.07 1.21.22c.38.15.7.35.98.62s.49.58.65.94c.15.36.23.77.23 1.21zm-1.18 0c0-.27-.04-.53-.13-.78-.08-.25-.21-.47-.37-.65s-.36-.34-.6-.45c-.24-.11-.51-.17-.81-.17-.3 0-.58.06-.81.17-.24.11-.44.26-.6.45s-.28.41-.37.65c-.08.25-.13.51-.13.78s.04.53.13.78c.08.25.21.47.37.66a1.782 1.782 0 0 0 1.41.63c.31 0 .58-.06.81-.17.24-.11.44-.26.6-.46.16-.19.28-.41.37-.66.09-.25.13-.51.13-.78zM635.83 219.19c0 .44-.08.85-.23 1.21s-.37.69-.65.96-.6.48-.98.62c-.38.15-.78.22-1.21.22s-.84-.07-1.21-.22c-.38-.15-.7-.36-.97-.62-.27-.27-.49-.59-.64-.96s-.23-.77-.23-1.21.08-.84.23-1.21c.16-.36.37-.68.64-.94s.6-.47.97-.62c.38-.15.78-.22 1.21-.22s.84.07 1.21.22c.38.15.7.35.98.62s.49.58.65.94c.15.36.23.77.23 1.21zm-1.18 0c0-.27-.04-.53-.13-.78-.08-.25-.21-.47-.37-.65s-.36-.34-.6-.45c-.24-.11-.51-.17-.81-.17-.3 0-.58.06-.81.17-.24.11-.44.26-.6.45s-.28.41-.37.65c-.08.25-.13.51-.13.78s.04.53.13.78c.08.25.21.47.37.66a1.782 1.782 0 0 0 1.41.63c.31 0 .58-.06.81-.17.24-.11.44-.26.6-.46.16-.19.28-.41.37-.66.09-.25.13-.51.13-.78zM638.54 222.05h-1.13v-9.09h1.13v9.09zM643.55 222.05h-1.19v-7.46h-2.73v-1.04h6.65v1.04h-2.73v7.46zM651.97 219.19c0 .44-.08.85-.23 1.21s-.37.69-.65.96-.6.48-.98.62c-.38.15-.78.22-1.21.22s-.84-.07-1.21-.22c-.38-.15-.7-.36-.97-.62-.27-.27-.49-.59-.64-.96s-.23-.77-.23-1.21.08-.84.23-1.21c.16-.36.37-.68.64-.94s.6-.47.97-.62c.38-.15.78-.22 1.21-.22s.84.07 1.21.22c.38.15.7.35.98.62s.49.58.65.94c.15.36.23.77.23 1.21zm-1.18 0c0-.27-.04-.53-.13-.78-.08-.25-.21-.47-.37-.65s-.36-.34-.6-.45c-.24-.11-.51-.17-.81-.17-.3 0-.58.06-.81.17-.24.11-.44.26-.6.45s-.28.41-.37.65c-.08.25-.13.51-.13.78s.04.53.13.78c.08.25.21.47.37.66a1.782 1.782 0 0 0 1.41.63c.31 0 .58-.06.81-.17.24-.11.44-.26.6-.46.16-.19.28-.41.37-.66.09-.25.13-.51.13-.78zM654.55 216.35c.02.14.03.31.04.49s.01.33.01.45h.04c.07-.15.17-.29.29-.43.12-.13.27-.25.43-.35.16-.1.34-.18.53-.23.19-.06.39-.08.6-.08.37 0 .69.06.95.19a1.926 1.926 0 0 1 1.05 1.23c.08.28.13.58.13.9v3.53h-1.13v-3.16c0-.23-.02-.45-.05-.66-.04-.21-.1-.39-.2-.55-.1-.16-.23-.29-.4-.38-.17-.1-.38-.14-.65-.14-.45 0-.82.17-1.1.51-.29.34-.43.79-.43 1.36v3.03h-1.13v-4.47c0-.15 0-.35-.01-.59s-.02-.45-.04-.64h1.07zM665.85 219.15v.19c0 .06 0 .13-.01.19h-4.53c.01.24.06.46.16.67.1.21.23.39.4.55.17.16.36.28.58.36.22.09.46.13.7.13.38 0 .72-.08 1-.25.28-.17.5-.37.66-.61l.79.64c-.3.4-.66.7-1.08.89-.41.19-.87.29-1.38.29-.43 0-.83-.07-1.2-.22-.37-.14-.68-.35-.95-.61s-.47-.58-.62-.94-.23-.78-.23-1.23c0-.44.07-.85.22-1.22s.36-.69.62-.96c.26-.26.58-.47.94-.62.36-.15.75-.22 1.17-.22.42 0 .8.07 1.14.2.34.14.63.33.87.59.24.26.42.57.55.93.13.38.2.79.2 1.25zm-1.16-.46c-.01-.22-.05-.43-.11-.63-.07-.2-.17-.37-.3-.51-.13-.14-.3-.26-.49-.34-.2-.08-.43-.13-.69-.13-.24 0-.47.04-.68.13a1.702 1.702 0 0 0-.93.85c-.1.2-.16.41-.17.63h3.37zM667.3 216.12c0-.38.07-.73.22-1.06a2.735 2.735 0 0 1 1.46-1.45c.33-.14.69-.22 1.06-.22s.73.07 1.06.22c.33.14.62.34.87.58.25.24.45.53.59.87.14.33.22.69.22 1.06 0 .38-.07.73-.22 1.06-.14.33-.34.62-.59.86-.25.24-.54.44-.87.58-.33.14-.69.21-1.06.21s-.73-.07-1.06-.21c-.33-.14-.62-.33-.87-.58-.25-.24-.45-.53-.59-.86-.15-.33-.22-.68-.22-1.06zm.43 0c0 .31.06.61.18.89a2.33 2.33 0 0 0 1.22 1.24c.28.12.58.18.9.18s.62-.06.9-.18a2.314 2.314 0 0 0 1.22-1.24c.12-.28.18-.58.18-.89 0-.32-.06-.62-.18-.9s-.28-.53-.49-.73a2.287 2.287 0 0 0-1.63-.67c-.32 0-.62.06-.9.18s-.52.29-.73.49a2.287 2.287 0 0 0-.67 1.63zm2.97 1.5l-.66-1.19h-.43v1.19h-.73v-3.08h1.32c.14 0 .28.02.42.05.14.03.26.08.37.16s.2.17.27.29c.07.12.1.28.1.46 0 .21-.06.38-.17.52-.12.14-.26.24-.44.3l.82 1.3h-.87zm-.53-1.71c.11 0 .21-.04.31-.11.09-.07.14-.17.14-.29 0-.13-.05-.22-.16-.28-.1-.06-.2-.08-.29-.08h-.56v.76h.56zM683.39 219.19c0 .44-.08.85-.23 1.21s-.37.69-.65.96-.6.48-.98.62c-.38.15-.78.22-1.21.22s-.84-.07-1.21-.22c-.38-.15-.7-.36-.97-.62-.27-.27-.49-.59-.64-.96s-.23-.77-.23-1.21.08-.84.23-1.21c.16-.36.37-.68.64-.94s.6-.47.97-.62c.38-.15.78-.22 1.21-.22s.84.07 1.21.22c.38.15.7.35.98.62s.49.58.65.94c.16.36.23.77.23 1.21zm-1.17 0c0-.27-.04-.53-.13-.78-.08-.25-.21-.47-.37-.65s-.36-.34-.6-.45c-.24-.11-.51-.17-.81-.17-.3 0-.58.06-.81.17-.24.11-.44.26-.6.45s-.28.41-.37.65c-.08.25-.13.51-.13.78s.04.53.13.78c.08.25.21.47.37.66a1.782 1.782 0 0 0 1.41.63c.31 0 .58-.06.81-.17.24-.11.44-.26.6-.46.16-.19.28-.41.37-.66.08-.25.13-.51.13-.78zM685.98 216.35c.02.14.03.31.04.49s.01.33.01.45h.04c.07-.15.17-.29.29-.43.12-.13.27-.25.43-.35.16-.1.34-.18.53-.23.19-.06.39-.08.6-.08.37 0 .69.06.95.19a1.926 1.926 0 0 1 1.05 1.23c.08.28.13.58.13.9v3.53h-1.13v-3.16c0-.23-.02-.45-.05-.66-.04-.21-.1-.39-.2-.55-.1-.16-.23-.29-.4-.38-.17-.1-.38-.14-.65-.14-.45 0-.82.17-1.1.51-.29.34-.43.79-.43 1.36v3.03h-1.13v-4.47c0-.15 0-.35-.01-.59s-.02-.45-.04-.64h1.07zM696.13 217.22c.14-.28.37-.52.7-.72.33-.2.7-.3 1.11-.3.37 0 .68.06.95.19a1.926 1.926 0 0 1 1.05 1.23c.08.28.13.58.13.9v3.53h-1.13v-3.16c0-.23-.02-.45-.05-.66s-.1-.39-.2-.55c-.1-.16-.23-.29-.39-.39s-.38-.14-.64-.14c-.45 0-.82.17-1.11.51-.29.34-.43.8-.43 1.37v3.02h-1.13v-9.09h1.13v4.25h.01zM703.3 214.3c0 .21-.07.38-.22.52a.74.74 0 0 1-.53.21c-.21 0-.38-.07-.52-.21a.694.694 0 0 1-.21-.51.717.717 0 0 1 .73-.73c.21 0 .38.07.53.21.14.12.22.3.22.51zm-.18 7.75h-1.13v-5.7h1.13v5.7zM708.16 217.79c-.13-.21-.31-.38-.54-.51-.23-.13-.49-.2-.78-.2-.13 0-.26.01-.38.04-.13.03-.24.07-.34.13-.1.06-.18.14-.24.23s-.09.21-.09.34c0 .24.11.42.32.54.22.12.54.22.97.32.27.06.52.14.76.23s.43.2.61.33c.17.13.31.29.4.47.1.18.14.4.14.65 0 .34-.06.62-.19.85-.13.23-.3.42-.51.57-.21.15-.46.25-.73.32-.27.06-.55.1-.84.1-.43 0-.86-.08-1.27-.25-.41-.17-.75-.42-1.03-.77l.81-.69c.15.22.36.41.63.57.27.15.56.23.88.23.14 0 .28-.01.42-.04.13-.03.25-.07.36-.14s.19-.15.26-.25c.06-.1.1-.24.1-.4 0-.26-.13-.46-.38-.59-.25-.13-.62-.25-1.11-.36-.19-.05-.39-.11-.58-.17s-.38-.16-.54-.28-.29-.27-.39-.45c-.1-.18-.15-.4-.15-.67 0-.3.06-.57.19-.79.12-.22.29-.4.49-.54s.43-.24.68-.31c.26-.07.52-.1.79-.1a3 3 0 0 1 1.18.24c.38.16.67.39.88.7l-.78.65zM716.97 218.36c0-.42-.13-.74-.38-.94-.26-.2-.6-.31-1.02-.31-.32 0-.62.06-.91.19s-.52.28-.71.47l-.6-.72c.28-.26.62-.47 1.03-.62.4-.15.84-.23 1.3-.23.41 0 .76.06 1.06.17.3.12.55.27.74.47s.34.44.43.71c.1.27.14.57.14.88v2.49c0 .19.01.39.02.61.01.21.03.39.07.52h-1.02c-.06-.27-.1-.54-.1-.82h-.04c-.21.3-.47.54-.79.71-.32.17-.69.25-1.12.25-.22 0-.46-.03-.7-.09-.24-.06-.47-.16-.67-.29-.2-.14-.37-.32-.5-.54-.13-.22-.2-.5-.2-.83 0-.43.12-.78.35-1.03.23-.25.54-.45.91-.58.38-.13.8-.22 1.27-.26s.95-.06 1.43-.06v-.15zm-.27.97c-.28 0-.57.01-.87.04-.3.02-.57.07-.82.14s-.45.18-.61.33c-.16.14-.24.34-.24.58 0 .17.03.31.1.42s.16.2.27.28.24.12.37.15c.14.03.28.04.42.04.53 0 .94-.16 1.22-.47.29-.32.43-.71.43-1.2v-.3h-.27zM721.06 221.15v.9h-1.09v-9.09h1.13v4.24h.04c.19-.28.46-.52.8-.71s.75-.29 1.22-.29c.42 0 .81.08 1.16.23a2.744 2.744 0 0 1 1.48 1.6c.14.37.2.75.2 1.17s-.07.81-.2 1.18c-.14.37-.33.69-.58.96-.25.27-.55.49-.9.64s-.75.23-1.19.23c-.41 0-.79-.09-1.16-.27-.37-.18-.66-.44-.89-.79h-.02zm3.78-1.96c0-.26-.04-.52-.12-.77-.08-.25-.2-.47-.36-.66s-.36-.34-.59-.46c-.24-.11-.51-.17-.82-.17-.29 0-.55.06-.79.17-.24.11-.44.26-.61.46s-.3.41-.39.66c-.09.25-.14.51-.14.78s.05.53.14.78c.09.25.22.47.39.65s.37.34.61.45.5.17.79.17c.31 0 .59-.06.82-.17.24-.12.43-.27.59-.46.16-.19.28-.41.36-.66.08-.25.12-.5.12-.77zM732.13 221.15c-.22.34-.51.61-.88.79-.37.18-.76.27-1.17.27-.44 0-.84-.08-1.19-.23s-.65-.37-.9-.64-.44-.59-.58-.96c-.14-.37-.2-.76-.2-1.18s.07-.81.2-1.17c.14-.36.33-.68.58-.96.25-.27.55-.49.91-.64.35-.15.74-.23 1.17-.23a2.461 2.461 0 0 1 2.03 1h.02v-4.24h1.13v9.09h-1.09v-.9h-.03zm-3.75-1.96c0 .26.04.52.12.77.08.25.2.47.36.66.16.19.36.35.59.46s.5.17.82.17a1.865 1.865 0 0 0 1.4-.62c.17-.19.3-.41.39-.65.09-.25.14-.51.14-.78s-.05-.53-.14-.78c-.09-.25-.22-.47-.39-.66s-.37-.34-.61-.46c-.24-.11-.5-.17-.79-.17-.31 0-.58.06-.82.17-.23.11-.43.26-.59.46s-.28.41-.36.66c-.08.25-.12.51-.12.77zM740.99 219.19c0 .44-.08.85-.23 1.21s-.37.69-.65.96-.6.48-.98.62c-.38.15-.78.22-1.21.22s-.84-.07-1.21-.22c-.38-.15-.7-.36-.97-.62-.27-.27-.49-.59-.64-.96s-.23-.77-.23-1.21.08-.84.23-1.21c.16-.36.37-.68.64-.94s.6-.47.97-.62c.38-.15.78-.22 1.21-.22s.84.07 1.21.22c.38.15.7.35.98.62s.49.58.65.94c.15.36.23.77.23 1.21zm-1.18 0c0-.27-.04-.53-.13-.78-.08-.25-.21-.47-.37-.65s-.36-.34-.6-.45c-.24-.11-.51-.17-.81-.17-.3 0-.58.06-.81.17-.24.11-.44.26-.6.45s-.28.41-.37.65c-.08.25-.13.51-.13.78s.04.53.13.78c.08.25.21.47.37.66a1.782 1.782 0 0 0 1.41.63c.31 0 .58-.06.81-.17.24-.11.44-.26.6-.46.16-.19.28-.41.37-.66.09-.25.13-.51.13-.78zM744.34 216.51c.32-.21.69-.32 1.12-.32.38 0 .73.09 1.04.26.31.18.55.47.73.88.19-.37.46-.65.8-.85s.72-.29 1.13-.29c.37 0 .68.06.95.19a1.926 1.926 0 0 1 1.05 1.23c.08.28.13.58.13.9v3.53h-1.13v-3.16c0-.23-.02-.45-.06-.66-.04-.21-.11-.39-.2-.55-.1-.16-.22-.29-.38-.38-.16-.1-.37-.14-.61-.14-.26 0-.48.05-.66.16s-.33.25-.45.42c-.12.17-.2.37-.25.58-.05.22-.08.44-.08.66v3.08h-1.13v-3.39c0-.22-.02-.43-.06-.61s-.11-.34-.2-.47c-.1-.13-.22-.24-.37-.31s-.34-.11-.56-.11c-.42 0-.76.17-1.04.51s-.41.79-.41 1.36v3.03h-1.13v-4.47c0-.15 0-.35-.01-.59s-.02-.45-.04-.64h1.07c.02.14.03.31.04.49s.01.33.01.45h.04c.12-.32.35-.57.66-.79zM758.53 219.15v.19c0 .06 0 .13-.01.19h-4.53c.01.24.06.46.16.67.1.21.23.39.4.55.17.16.36.28.58.36.22.09.46.13.7.13.38 0 .72-.08 1-.25.28-.17.5-.37.66-.61l.79.64c-.3.4-.66.7-1.08.89-.41.19-.87.29-1.38.29-.43 0-.83-.07-1.2-.22-.37-.14-.68-.35-.95-.61s-.47-.58-.62-.94-.23-.78-.23-1.23c0-.44.07-.85.22-1.22s.36-.69.62-.96c.26-.26.58-.47.94-.62.36-.15.75-.22 1.17-.22.42 0 .8.07 1.14.2.34.14.63.33.87.59.24.26.42.57.55.93.14.38.2.79.2 1.25zm-1.15-.46c-.01-.22-.05-.43-.11-.63-.07-.2-.17-.37-.3-.51-.13-.14-.3-.26-.49-.34-.2-.08-.43-.13-.69-.13-.24 0-.47.04-.68.13a1.702 1.702 0 0 0-.93.85c-.1.2-.16.41-.17.63h3.37zM761.12 216.35c.02.14.03.31.04.49s.01.33.01.45h.04c.07-.15.17-.29.29-.43.12-.13.27-.25.43-.35.16-.1.34-.18.53-.23.19-.06.39-.08.6-.08.37 0 .69.06.95.19a1.926 1.926 0 0 1 1.05 1.23c.08.28.13.58.13.9v3.53h-1.13v-3.16c0-.23-.02-.45-.05-.66-.04-.21-.1-.39-.2-.55-.1-.16-.23-.29-.4-.38-.17-.1-.38-.14-.65-.14-.45 0-.82.17-1.1.51-.29.34-.43.79-.43 1.36v3.03h-1.13v-4.47c0-.15 0-.35-.01-.59s-.02-.45-.04-.64h1.07zM768.48 221.33c0 .21-.08.39-.23.55-.15.16-.34.24-.58.24-.22 0-.42-.08-.57-.23s-.23-.34-.23-.55c0-.22.08-.4.23-.56s.34-.23.58-.23.42.08.58.23c.15.15.22.33.22.55zM677.69 235.57h-1.19v-8.51h2.73c.41 0 .8.04 1.17.13.37.08.69.22.97.4.28.18.5.43.66.73s.24.67.24 1.1c0 .62-.19 1.13-.58 1.51-.38.38-.88.63-1.49.73l2.38 3.91h-1.44l-2.16-3.79h-1.27v3.79zm0-4.78h1.37c.28 0 .54-.02.78-.07s.45-.13.63-.23c.18-.11.32-.25.43-.42.1-.17.16-.39.16-.64s-.05-.47-.16-.64c-.1-.17-.24-.31-.42-.42s-.38-.18-.61-.22c-.23-.04-.48-.07-.73-.07h-1.45v2.71zM688.99 232.67v.19c0 .06 0 .13-.01.19h-4.53c.01.24.06.46.16.67.1.21.23.39.4.55.17.16.36.28.58.36.22.09.46.13.7.13.38 0 .72-.08 1-.25.28-.17.5-.37.66-.61l.79.64c-.3.4-.66.7-1.08.89-.41.19-.87.29-1.38.29-.43 0-.83-.07-1.2-.22-.37-.14-.68-.35-.95-.61s-.47-.58-.62-.94-.23-.78-.23-1.23c0-.44.07-.85.22-1.22s.36-.69.62-.96c.26-.26.58-.47.94-.62.36-.15.75-.22 1.17-.22.42 0 .8.07 1.14.2.34.14.63.33.87.59.24.26.42.57.55.93.14.38.2.79.2 1.25zm-1.15-.46c-.01-.22-.05-.43-.11-.63-.07-.2-.17-.37-.3-.51-.13-.14-.3-.26-.49-.34-.2-.08-.43-.13-.69-.13-.24 0-.47.04-.68.13a1.702 1.702 0 0 0-.93.85c-.1.2-.16.41-.17.63h3.37zM693.63 231.31c-.13-.21-.31-.38-.54-.51-.23-.13-.49-.2-.78-.2-.13 0-.26.01-.38.04-.13.03-.24.07-.34.13-.1.06-.18.14-.24.23s-.09.21-.09.34c0 .24.11.42.32.54.22.12.54.22.97.32.27.06.52.14.76.23s.43.2.61.33c.17.13.31.29.4.47.1.18.14.4.14.65 0 .34-.06.62-.19.85-.13.23-.3.42-.51.57-.21.15-.46.25-.73.32-.27.06-.55.1-.84.1-.43 0-.86-.08-1.27-.25-.41-.17-.75-.42-1.03-.77l.81-.69c.15.22.36.41.63.57.27.15.56.23.88.23.14 0 .28-.01.42-.04.13-.03.25-.07.36-.14s.19-.15.26-.25c.06-.1.1-.24.1-.4 0-.26-.13-.46-.38-.59-.25-.13-.62-.25-1.11-.36-.19-.05-.39-.11-.58-.17s-.38-.16-.54-.28-.29-.27-.39-.45c-.1-.18-.15-.4-.15-.67 0-.3.06-.57.19-.79.12-.22.29-.4.49-.54s.43-.24.68-.31c.26-.07.52-.1.79-.1a3 3 0 0 1 1.18.24c.38.16.67.39.88.7l-.78.65zM699.91 235.57c-.02-.14-.03-.31-.04-.49-.01-.18-.01-.33-.01-.45h-.02c-.14.3-.39.56-.73.78s-.72.32-1.14.32c-.37 0-.69-.06-.96-.18s-.49-.29-.66-.5c-.17-.21-.3-.46-.38-.74s-.13-.58-.13-.9v-3.53h1.13v3.15c0 .23.02.46.05.67s.1.4.2.56c.1.16.23.29.4.38.17.1.38.14.65.14.46 0 .83-.17 1.11-.51s.42-.79.42-1.36v-3.03h1.13v4.47a13.52 13.52 0 0 0 .05 1.23h-1.07zM704.04 235.57h-1.13v-9.09h1.13v9.09zM708.8 230.8h-1.51v2.96c0 .34.06.59.19.74.13.15.33.22.61.22.1 0 .22-.01.34-.03.12-.02.23-.05.32-.1l.04.92c-.14.05-.29.09-.45.11-.16.03-.33.04-.51.04-.54 0-.95-.15-1.23-.44-.29-.3-.43-.74-.43-1.33v-3.09h-1.09v-.92h1.09v-1.63h1.12v1.63h1.51v.92zM713.04 231.31c-.13-.21-.31-.38-.54-.51-.23-.13-.49-.2-.78-.2-.13 0-.26.01-.38.04-.13.03-.24.07-.34.13-.1.06-.18.14-.24.23s-.09.21-.09.34c0 .24.11.42.32.54.22.12.54.22.97.32.27.06.52.14.76.23s.43.2.61.33c.17.13.31.29.4.47.1.18.14.4.14.65 0 .34-.06.62-.19.85-.13.23-.3.42-.51.57-.21.15-.46.25-.73.32-.27.06-.55.1-.84.1-.43 0-.86-.08-1.27-.25-.41-.17-.75-.42-1.03-.77l.81-.69c.15.22.36.41.63.57.27.15.56.23.88.23.14 0 .28-.01.42-.04.13-.03.25-.07.36-.14s.19-.15.26-.25c.06-.1.1-.24.1-.4 0-.26-.13-.46-.38-.59-.25-.13-.62-.25-1.11-.36-.19-.05-.39-.11-.58-.17s-.38-.16-.54-.28-.29-.27-.39-.45c-.1-.18-.15-.4-.15-.67 0-.3.06-.57.19-.79.12-.22.29-.4.49-.54s.43-.24.68-.31c.26-.07.52-.1.79-.1a3 3 0 0 1 1.18.24c.38.16.67.39.88.7l-.78.65zM720.1 230.03c.32-.21.69-.32 1.12-.32.38 0 .73.09 1.04.26.31.18.55.47.73.88.19-.37.46-.65.8-.85s.72-.29 1.13-.29c.37 0 .68.06.95.19a1.926 1.926 0 0 1 1.05 1.23c.08.28.13.58.13.9v3.53h-1.13v-3.16c0-.23-.02-.45-.06-.66-.04-.21-.11-.39-.2-.55-.1-.16-.22-.29-.38-.38-.16-.1-.37-.14-.61-.14-.26 0-.48.05-.66.16s-.33.25-.45.42c-.12.17-.2.37-.25.58-.05.22-.08.44-.08.66v3.08h-1.13v-3.39c0-.22-.02-.43-.06-.61s-.11-.34-.2-.47c-.1-.13-.22-.24-.37-.31s-.34-.11-.56-.11c-.42 0-.76.17-1.04.51s-.41.79-.41 1.36v3.03h-1.13v-4.47c0-.15 0-.35-.01-.59s-.02-.45-.04-.64h1.07c.02.14.03.31.04.49s.01.33.01.45h.04c.12-.32.35-.57.66-.79zM732.51 231.88c0-.42-.13-.74-.38-.94-.26-.2-.6-.31-1.02-.31-.32 0-.62.06-.91.19s-.52.28-.71.47l-.6-.72c.28-.26.62-.47 1.03-.62.4-.15.84-.23 1.3-.23.41 0 .76.06 1.06.17.3.12.55.27.74.47s.34.44.43.71c.1.27.14.57.14.88v2.49c0 .19.01.39.02.61.01.21.03.39.07.52h-1.02c-.06-.27-.1-.54-.1-.82h-.04c-.21.3-.47.54-.79.71-.32.17-.69.25-1.12.25-.22 0-.46-.03-.7-.09-.24-.06-.47-.16-.67-.29-.2-.14-.37-.32-.5-.54-.13-.22-.2-.5-.2-.83 0-.43.12-.78.35-1.03.23-.25.54-.45.91-.58.38-.13.8-.22 1.27-.26s.95-.06 1.43-.06v-.15zm-.27.97c-.28 0-.57.01-.87.04-.3.02-.57.07-.82.14s-.45.18-.61.33c-.16.14-.24.34-.24.58 0 .17.03.31.1.42s.16.2.27.28.24.12.37.15c.14.03.28.04.42.04.53 0 .94-.16 1.22-.47.29-.32.43-.71.43-1.2v-.3h-.27zM737.64 234.34h.02l1.57-4.47h1.2l-2.76 7.04c-.1.24-.2.46-.31.64-.11.19-.24.35-.4.48s-.33.23-.54.31-.45.11-.73.11c-.12 0-.24-.01-.37-.02s-.25-.03-.38-.07l.11-1c.19.06.38.1.57.1.3 0 .52-.08.66-.25.14-.16.28-.4.4-.7l.36-.95-2.44-5.7h1.26l1.78 4.48zM747.22 235.57H746l-2.32-5.7h1.25l1.67 4.48h.02l1.68-4.48h1.2l-2.28 5.7zM754.15 231.88c0-.42-.13-.74-.38-.94-.26-.2-.6-.31-1.02-.31-.32 0-.62.06-.91.19s-.52.28-.71.47l-.6-.72c.28-.26.62-.47 1.03-.62.4-.15.84-.23 1.3-.23.41 0 .76.06 1.06.17.3.12.55.27.74.47s.34.44.43.71c.1.27.14.57.14.88v2.49c0 .19.01.39.02.61.01.21.03.39.07.52h-1.02c-.06-.27-.1-.54-.1-.82h-.04c-.21.3-.47.54-.79.71-.32.17-.69.25-1.12.25-.22 0-.46-.03-.7-.09-.24-.06-.47-.16-.67-.29-.2-.14-.37-.32-.5-.54-.13-.22-.2-.5-.2-.83 0-.43.12-.78.35-1.03.23-.25.54-.45.91-.58.38-.13.8-.22 1.27-.26s.95-.06 1.43-.06v-.15zm-.28.97c-.28 0-.57.01-.87.04-.3.02-.57.07-.82.14s-.45.18-.61.33c-.16.14-.24.34-.24.58 0 .17.03.31.1.42s.16.2.27.28.24.12.37.15c.14.03.28.04.42.04.53 0 .94-.16 1.22-.47.29-.32.43-.71.43-1.2v-.3h-.27zM757.1 230.51c-.01-.24-.02-.45-.04-.64h1.07a8.218 8.218 0 0 1 .05.96h.04c.16-.34.39-.61.7-.81.31-.2.66-.31 1.04-.31.18 0 .32.02.44.05l-.05 1.05a2.12 2.12 0 0 0-.52-.06c-.27 0-.51.05-.71.15-.2.1-.37.23-.5.4s-.23.36-.29.58-.1.45-.1.69v2.99h-1.13v-4.47c.01-.14.01-.34 0-.58zM763.63 234.34h.02l1.57-4.47h1.2l-2.76 7.04c-.1.24-.2.46-.31.64-.11.19-.24.35-.4.48s-.33.23-.54.31-.45.11-.73.11c-.12 0-.24-.01-.37-.02s-.25-.03-.38-.07l.11-1c.19.06.38.1.57.1.3 0 .52-.08.66-.25.14-.16.28-.4.4-.7l.36-.95-2.44-5.7h1.26l1.78 4.48zM768.48 234.85c0 .21-.08.39-.23.55-.15.16-.34.24-.58.24-.22 0-.42-.08-.57-.23s-.23-.34-.23-.55c0-.22.08-.4.23-.56s.34-.23.58-.23.42.08.58.23c.15.15.22.33.22.55z"/></svg>