<svg id="Layer_1" xmlns="http://www.w3.org/2000/svg" viewBox="0 0 970 250"><style>.st0{fill:#fff}</style><path class="st0" d="M67.63 59.56c-2.67 0-3.96-1.94-3.96-3.8 0-2.15 1.56-3.88 4-3.88.83 0 1.69.26 2.37.83l-.76 1.05c-.47-.36-.97-.5-1.57-.5-1.3 0-2.27.9-2.27 2.45 0 1.41.89 2.54 2.31 2.54.6 0 1.13-.18 1.6-.59l.69 1.05c-.64.58-1.55.85-2.41.85M74.18 59.56c-2.24 0-3.88-1.68-3.88-3.88 0-2.25 1.8-3.8 3.88-3.8 2.09 0 3.9 1.53 3.9 3.79 0 2.2-1.65 3.89-3.9 3.89m2.1-3.88c0-1.35-.67-2.52-2.1-2.52-1.41 0-2.1 1.17-2.1 2.51 0 1.38.65 2.61 2.1 2.61 1.45 0 2.1-1.22 2.1-2.61v.01zM82.61 59.56c-2.24 0-3.88-1.68-3.88-3.88 0-2.25 1.8-3.8 3.88-3.8 2.09 0 3.9 1.53 3.9 3.79 0 2.2-1.65 3.89-3.9 3.89m2.1-3.88c0-1.35-.66-2.52-2.1-2.52-1.41 0-2.1 1.17-2.1 2.51 0 1.38.65 2.61 2.1 2.61 1.45 0 2.1-1.22 2.1-2.61v.01zM87.38 59.38V48.62l1.68.92v9.84zM92.93 59.6c-1.89 0-2.8-.9-2.8-.9l.76-.98s.86.57 1.99.57c.54 0 1-.38 1-.75s-.17-.69-.66-.95c-.5-.26-1.06-.53-1.5-.74-.44-.21-1.41-.86-1.41-2.12 0-1.28 1.3-1.98 2.63-1.98 1.27 0 2.24.83 2.24.83l-.65.99s-.73-.51-1.53-.51-.97.51-.97.72c0 .21.08.54.59.81s1.04.56 1.8.98c.76.42 1.18 1.14 1.18 1.95s-.78 2.08-2.67 2.08M100.14 59.56c-2.67 0-3.96-1.94-3.96-3.8 0-2.15 1.56-3.88 4-3.88.83 0 1.69.26 2.37.83l-.76 1.05c-.47-.36-.97-.5-1.57-.5-1.3 0-2.27.9-2.27 2.45 0 1.41.89 2.54 2.31 2.54.6 0 1.13-.18 1.6-.59l.69 1.05c-.64.58-1.55.85-2.41.85M108.4 58.52s-.85 1.04-2.45 1.04c-1.89 0-2.81-1.37-2.81-2.75v-4.76h1.68v4.69c0 .81.63 1.49 1.62 1.49.86 0 1.71-1.02 1.71-1.02v-5.15h1.68v7.32l-1.43-.86zM111.32 59.38V48.62l1.68.92v9.84zM118.54 59.56c-1.48 0-2.33-.83-2.33-.83v3.65h-1.69V51.89l1.69.89s.91-.92 2.42-.92c1.59 0 3.57 1.22 3.57 3.94 0 2.72-1.95 3.76-3.66 3.76m-.1-6.4c-1.44 0-2.27 1.34-2.27 1.34v2.76s.95 1.07 2.33 1.07c1.6 0 1.95-1.91 1.95-2.57 0-.67-.15-2.6-2.01-2.6M126.61 59.57h-1.06c-1.33 0-1.78-1.28-1.78-2.12v-4.31h-1.33v-1.1h1.33v-3.23h1.66v3.23h1.71v1.1h-1.69v3.91c0 .44-.08 1.13.66 1.13h1.21l-.71 1.39zM129.3 50.78c-.6 0-1.1-.5-1.1-1.1 0-.6.5-1.1 1.1-1.1.6 0 1.1.5 1.1 1.1.01.61-.49 1.1-1.1 1.1m-.83 1.26h1.65v7.33h-1.65v-7.33zM136.77 59.38v-4.69c0-.81-.63-1.49-1.62-1.49-.86 0-1.83 1.02-1.83 1.02v5.15h-1.68v-7.32l1.42.84s.97-1.04 2.57-1.04c1.89 0 2.81 1.37 2.81 2.75v4.76h-1.67zM143.57 62.79c-.26 0-2.22-.03-2.22-.03l.03-1.34h1.65c1.6 0 2.51-.86 2.51-2.03v-.66s-.88.83-2.36.83c-1.71 0-3.66-1.04-3.66-3.76 0-2.72 1.98-3.94 3.57-3.94 1.51 0 2.42.92 2.42.92l1.69-.84v7.29c0 1.96-1.32 3.56-3.63 3.56m1.98-8.3s-.83-1.34-2.27-1.34c-1.86 0-2.01 1.94-2.01 2.6 0 .66.35 2.57 1.95 2.57 1.38 0 2.33-1.07 2.33-1.07v-2.76zM46.69 56.04l-3.09 3.07 3.78 1.41 4.51-4.48zM52.34 49.8l-3.07-3.05-1.44 3.74 4.51 4.48zM57.92 50.93L62.05 52l-3.44 3.42h-5.2zM57.65 61.14l-1.18 4-6.42-6.38 2.6-2.59zM149.7 52.54c0 .43-.35.78-.8.78a.78.78 0 0 1-.8-.78c0-.43.36-.77.81-.77.44 0 .79.34.79.77zm-1.4 0c0 .34.26.62.61.62.34 0 .59-.27.59-.61 0-.34-.26-.62-.6-.62-.34-.01-.6.27-.6.61zm.48.4h-.18v-.77c.07-.01.17-.02.3-.02.15 0 .21.02.27.06.05.03.08.09.08.17 0 .09-.07.16-.16.18v.01c.08.02.11.09.14.19.02.12.04.16.06.19h-.19a.593.593 0 0 1-.06-.19c-.01-.08-.06-.12-.16-.12h-.09v.3zm.01-.43h.09c.1 0 .18-.03.18-.11 0-.07-.05-.12-.17-.12-.05 0-.08 0-.1.01v.22z"/><g><path class="st0" d="M48.65 64.94v-4.8l.95-.94 2.73 2.72v.91zM48.21 51.76h-3.97l1.27 3.65h6.38zM61.63 59.7h-4.54l-3.68-3.66h6.38zM52.97 48.63l3.67-2.17v4.86l-3.67 3.65zM59.44 61.4c0 .3-.24.54-.55.54-.31 0-.56-.24-.56-.54 0-.3.25-.54.56-.54.3.01.55.24.55.54zm-.97 0c0 .24.18.43.42.43.23 0 .41-.19.41-.42 0-.24-.18-.43-.42-.43-.23-.01-.41.19-.41.42zm.33.28h-.12v-.54c.05-.01.12-.02.21-.02.1 0 .15.02.18.04s.06.06.06.11c0 .07-.05.11-.11.13v.01c.05.02.08.06.1.13.02.08.03.11.04.13h-.13c-.02-.02-.03-.07-.04-.13-.01-.06-.04-.08-.11-.08h-.08v.22zm0-.3h.06c.07 0 .13-.02.13-.08 0-.05-.04-.08-.11-.08-.03 0-.06 0-.07.01v.15z"/></g><g><path class="st0" d="M29.31 52.26h.66v3.66h.02c.11-.16.23-.3.38-.41a2.24 2.24 0 0 1 .96-.44 2.711 2.711 0 0 1 1.5.13c.31.12.57.3.79.52.22.22.39.48.52.78.12.3.19.63.19.98s-.06.68-.19.98a2.32 2.32 0 0 1-1.31 1.29c-.31.12-.64.19-1.01.19-.15 0-.32-.02-.49-.05a2.24 2.24 0 0 1-.96-.44c-.15-.11-.28-.25-.38-.41h-.02v.78h-.66v-7.56zm4.29 5.22c0-.26-.04-.5-.13-.73-.08-.23-.2-.42-.36-.59-.15-.17-.34-.3-.56-.39-.22-.1-.46-.15-.74-.15s-.53.05-.75.15c-.23.1-.43.23-.59.39-.17.17-.3.36-.39.59a1.976 1.976 0 0 0 0 1.46c.09.23.22.42.39.59.17.17.37.3.59.4.23.1.48.14.75.14s.52-.05.74-.14c.22-.1.4-.23.56-.4a1.945 1.945 0 0 0 .49-1.32zM37.2 59.01l1.44-3.87h.8l-2.35 5.9c-.14.36-.32.65-.54.86-.22.21-.53.32-.94.32-.1 0-.2 0-.31-.01-.1-.01-.21-.03-.31-.06l.07-.64c.14.07.31.11.5.11.23 0 .42-.07.55-.22.13-.15.25-.35.35-.62l.34-.9-1.93-4.74h.84l1.49 3.87z"/></g><g><path class="st0" d="M42.41 37.72c-1.44 1.25-3.23 1.88-5.36 1.88-2.78 0-4.96-.9-6.56-2.7-1.44-1.62-2.17-3.58-2.17-5.87 0-2.45.81-4.51 2.43-6.18s3.77-2.5 6.43-2.5c2.04 0 3.78.62 5.2 1.86l-1.67 2.33c-.96-.72-2.11-1.08-3.46-1.08-1.47 0-2.66.49-3.58 1.48-.92.99-1.38 2.33-1.38 4.01 0 1.64.46 3 1.38 4.08.92 1.08 2.15 1.62 3.68 1.62 1.33 0 2.52-.43 3.57-1.29l1.49 2.36zM59.74 30.86c0 2.5-.82 4.58-2.45 6.25-1.63 1.66-3.68 2.5-6.15 2.5s-4.51-.83-6.13-2.5-2.43-3.75-2.43-6.25c0-2.45.86-4.5 2.57-6.14 1.64-1.58 3.64-2.36 6-2.36 2.35 0 4.37.79 6.03 2.36 1.7 1.64 2.56 3.68 2.56 6.14zm-3.97 0c0-1.6-.38-2.91-1.13-3.95-.84-1.12-2.01-1.69-3.5-1.69-1.49 0-2.64.56-3.46 1.69-.76 1.03-1.13 2.35-1.13 3.95 0 1.69.37 3.06 1.1 4.11.82 1.17 1.99 1.75 3.5 1.75s2.69-.58 3.53-1.75c.72-1.05 1.09-2.43 1.09-4.11zM78.16 30.86c0 2.5-.82 4.58-2.45 6.25-1.63 1.66-3.68 2.5-6.15 2.5s-4.51-.83-6.13-2.5S61 33.36 61 30.86c0-2.45.86-4.5 2.57-6.14 1.64-1.58 3.64-2.36 6-2.36 2.35 0 4.37.79 6.03 2.36 1.7 1.64 2.56 3.68 2.56 6.14zm-3.96 0c0-1.6-.38-2.91-1.13-3.95-.84-1.12-2.01-1.69-3.5-1.69-1.49 0-2.64.56-3.46 1.69-.76 1.03-1.13 2.35-1.13 3.95 0 1.69.37 3.06 1.1 4.11.82 1.17 1.99 1.75 3.5 1.75s2.69-.58 3.53-1.75c.72-1.05 1.09-2.43 1.09-4.11zM83.82 39.23h-3.7V15.01l3.7 2.06v22.16zM112.08 30.86c0 2.5-.82 4.58-2.45 6.25-1.63 1.66-3.68 2.5-6.15 2.5s-4.51-.83-6.13-2.5-2.43-3.75-2.43-6.25c0-2.45.86-4.5 2.57-6.14 1.64-1.58 3.64-2.36 6-2.36 2.35 0 4.37.79 6.03 2.36 1.7 1.64 2.56 3.68 2.56 6.14zm-3.97 0c0-1.6-.38-2.91-1.13-3.95-.84-1.12-2.01-1.69-3.5-1.69s-2.64.56-3.46 1.69c-.76 1.03-1.13 2.35-1.13 3.95 0 1.69.37 3.06 1.1 4.11.82 1.17 1.99 1.75 3.5 1.75s2.69-.58 3.53-1.75c.73-1.05 1.09-2.43 1.09-4.11zM128.9 39.23h-3.7V28.7c0-.95-.33-1.74-.98-2.38-.65-.64-1.52-.96-2.58-.96-1.18 0-2.52.76-4.03 2.29v11.57h-3.7V22.76l3.13 1.89c1.6-1.56 3.49-2.33 5.66-2.33 1.95 0 3.51.64 4.66 1.93 1.02 1.15 1.53 2.57 1.53 4.26v10.72zM146.96 31.75h-11.83c.44 3.36 2.02 5.04 4.73 5.04 1.67 0 3.03-.47 4.1-1.42l1.47 2.4c-1.42 1.31-3.31 1.96-5.66 1.96-3.27 0-5.65-1.23-7.16-3.69-.93-1.51-1.4-3.07-1.4-4.67 0-1.96.38-3.66 1.13-5.11 1.35-2.64 3.77-3.96 7.23-3.96 3.42 0 5.67 1.57 6.76 4.7.46 1.35.67 2.93.63 4.75zm-3.73-2.43c-.13-2.91-1.38-4.36-3.73-4.36-2.6 0-4.03 1.45-4.3 4.36h8.03zM91.82 36.52c-.71 0-1.16-.3-1.33-.91-.09-.25-.13-.79-.13-1.62v-6.87h2.57v-2.47h-2.57v-3.93l-3.7-2.06V34.9c0 1.17.29 2.2.87 3.08.71 1.13 1.73 1.69 3.06 1.69h2.33l1.57-3.15h-2.67z"/><g><path class="st0" d="M151.2 24.08c0 .97-.79 1.75-1.79 1.75s-1.8-.77-1.8-1.75.8-1.74 1.81-1.74c.99 0 1.78.76 1.78 1.74zm-3.14 0c0 .77.59 1.39 1.37 1.39.76.01 1.33-.62 1.33-1.38 0-.77-.58-1.4-1.35-1.4-.77 0-1.35.63-1.35 1.39zm1.07.9h-.4v-1.74c.16-.02.38-.05.67-.05.33 0 .48.05.6.14.11.07.18.2.18.37 0 .21-.16.35-.36.41v.02c.17.05.26.19.31.42.05.26.1.36.13.42h-.43c-.05-.06-.09-.21-.14-.42-.03-.18-.14-.27-.36-.27h-.19v.7zm.02-.97h.19c.22 0 .41-.07.41-.25 0-.16-.12-.26-.37-.26-.11 0-.18.01-.22.02v.49z"/></g></g></svg>