<?xml version="1.0" encoding="utf-8"?>
<!-- Generator: Adobe Illustrator 25.4.1, SVG Export Plug-In . SVG Version: 6.00 Build 0)  -->
<svg version="1.1" id="Layer_1" xmlns="http://www.w3.org/2000/svg" xmlns:xlink="http://www.w3.org/1999/xlink" x="0px" y="0px"
	 viewBox="0 0 600 500" style="enable-background:new 0 0 600 500;" xml:space="preserve">
<style type="text/css">
	.st0{fill:#BDD6E6;}
	.st1{fill:#00ABE6;}
</style>
<g>
	<path class="st0" d="M139.26,88.17v33.77c0,5.47-2.95,8.57-8.14,8.57c-5.11,0-8.06-3.1-8.06-8.57v-4.82h4.1v4.03
		c0,4.03,1.15,5.62,3.89,5.62c2.74,0,3.96-1.58,3.96-5.62v-13.68h-0.14c-1.22,1.87-3.02,2.81-5.47,2.81c-4.1,0-6.48-2.81-6.48-7.63
		V88.17c0-5.62,2.95-8.78,8.14-8.78C136.23,79.38,139.26,82.55,139.26,88.17z M127.16,88.74v13.46c0,2.95,1.08,4.32,3.31,4.32
		c2.81,0,4.54-2.3,4.54-6.19V88.74c0-4.03-1.15-5.62-3.96-5.62C128.24,83.13,127.16,84.71,127.16,88.74z"/>
	<path class="st0" d="M155.24,121.51V88.38c0-5.76,3.1-9,8.35-9c5.26,0,8.35,3.24,8.35,9v33.12c0,5.76-3.1,9-8.35,9
		C158.34,130.51,155.24,127.27,155.24,121.51z M167.63,120.79V89.1c0-4.18-1.15-5.83-4.03-5.83c-2.95,0-4.03,1.66-4.03,5.83v31.68
		c0,4.18,1.08,5.83,4.03,5.83C166.47,126.62,167.63,124.96,167.63,120.79z"/>
	<path class="st0" d="M178.06,121.79V80.1h4.32V121c0,4.03,1.01,5.62,3.89,5.62c2.88,0,3.89-1.58,3.89-5.62V80.1h4.18v41.69
		c0,5.54-3.02,8.71-8.14,8.71C181.09,130.51,178.06,127.34,178.06,121.79z"/>
	<path class="st0" d="M205.06,83.85h-6.05V80.1h16.42v3.74h-6.05v45.94h-4.32V83.85z"/>
	<path class="st0" d="M229.97,121.51V88.38c0-5.76,3.1-9,8.35-9c5.26,0,8.35,3.24,8.35,9v33.12c0,5.76-3.1,9-8.35,9
		C233.07,130.51,229.97,127.27,229.97,121.51z M242.36,120.79V89.1c0-4.18-1.15-5.83-4.03-5.83c-2.95,0-4.03,1.66-4.03,5.83v31.68
		c0,4.18,1.08,5.83,4.03,5.83C241.21,126.62,242.36,124.96,242.36,120.79z"/>
	<path class="st0" d="M252.94,80.1h14.26v3.74h-9.94v18.07h8.64v3.74h-8.64v24.12h-4.32V80.1z"/>
	<path class="st0" d="M286.64,85l-6.34,3.89v-4.03l7.92-4.9h2.66v49.83h-4.25V85z"/>
	<path class="st0" d="M297.15,121.72V88.17c0-5.62,2.95-8.78,8.14-8.78s8.14,3.17,8.14,8.78v33.56c0,5.62-2.95,8.78-8.14,8.78
		S297.15,127.34,297.15,121.72z M309.17,121.15v-32.4c0-4.03-1.08-5.62-3.89-5.62c-2.81,0-3.89,1.58-3.89,5.62v32.4
		c0,4.03,1.08,5.62,3.89,5.62C308.09,126.76,309.17,125.18,309.17,121.15z"/>
	<path class="st1" d="M329.69,80.1h8.21c5.76,0,8.5,2.95,8.5,9v7.78c0,6.05-2.74,9-8.5,9h-3.89v23.91h-4.32V80.1z M337.4,102.14
		c3.6,0,4.68-1.37,4.68-5.98v-6.34c0-4.61-1.08-5.98-4.68-5.98h-3.38v18.29H337.4z"/>
	<path class="st1" d="M354.17,80.1h5.69l6.26,49.68h-4.39l-1.44-12.31h-6.77l-1.44,12.31h-4.18L354.17,80.1z M359.86,113.73
		l-2.88-26.79h-0.14l-2.88,26.79H359.86z"/>
	<path class="st1" d="M372.89,83.85h-6.05V80.1h16.42v3.74h-6.05v45.94h-4.32V83.85z"/>
	<path class="st1" d="M388.08,80.1h4.32v49.68h-4.32V80.1z"/>
	<path class="st1" d="M398.95,80.1h14.26v3.74h-9.94v17.35h8.64v3.74h-8.64v21.1h9.94v3.74h-14.26V80.1z"/>
	<path class="st1" d="M418.32,80.1h5.62l7.85,36.36h0.14V80.1h3.89v49.68h-4.68l-8.79-40.97h-0.14v40.97h-3.89V80.1z"/>
	<path class="st1" d="M446.69,83.85h-6.05V80.1h16.42v3.74h-6.05v45.94h-4.32V83.85z"/>
	<path class="st1" d="M461.09,121.65v-8.71h4.18v7.92c0,4.1,1.15,5.76,4.03,5.76c2.95,0,4.1-1.66,4.1-5.76v-7.49
		c0-3.38-0.94-5.04-3.38-6.62l-3.82-2.45c-3.67-2.38-5.11-5.11-5.11-9.94v-6.41c0-5.47,2.95-8.57,8.06-8.57s8.07,3.1,8.07,8.57v6.41
		h-4.18v-5.69c0-3.89-1.08-5.4-3.82-5.4s-3.82,1.51-3.82,5.4v5.4c0,3.38,0.94,5.04,3.38,6.62l3.82,2.45
		c3.67,2.38,5.11,5.11,5.11,9.94v8.57c0,5.69-3.1,8.86-8.35,8.86C464.11,130.51,461.09,127.34,461.09,121.65z"/>
	<path class="st1" d="M113.08,142.1h7.99c5.76,0,8.5,2.95,8.5,9v6.34c0,4.03-1.3,6.48-3.89,7.63v0.14c2.59,1.15,3.89,3.6,3.89,7.7
		v18.87h-4.32v-18.58c0-4.61-1.3-5.98-5.4-5.98h-2.45v24.55h-4.32V142.1z M120.57,163.49c3.6,0,4.68-1.37,4.68-5.98v-5.69
		c0-4.61-1.08-5.98-4.68-5.98h-3.17v17.64H120.57z"/>
	<path class="st1" d="M135.76,142.1h14.26v3.74h-9.94v17.35h8.64v3.74h-8.64v21.1h9.94v3.74h-14.26V142.1z"/>
	<path class="st1" d="M155.13,142.1h8.21c5.76,0,8.5,2.95,8.5,9v7.78c0,6.05-2.74,9-8.5,9h-3.89v23.91h-4.32V142.1z M162.84,164.14
		c3.6,0,4.68-1.37,4.68-5.98v-6.34c0-4.61-1.08-5.98-4.68-5.98h-3.38v18.29H162.84z"/>
	<path class="st1" d="M176.88,183.51v-33.12c0-5.76,3.1-9,8.35-9c5.26,0,8.35,3.24,8.35,9v33.12c0,5.76-3.1,9-8.35,9
		C179.97,192.51,176.88,189.27,176.88,183.51z M189.26,182.79V151.1c0-4.18-1.15-5.83-4.03-5.83c-2.95,0-4.03,1.66-4.03,5.83v31.68
		c0,4.18,1.08,5.83,4.03,5.83C188.11,188.62,189.26,186.96,189.26,182.79z"/>
	<path class="st1" d="M199.84,142.1h7.99c5.76,0,8.5,2.95,8.5,9v6.34c0,4.03-1.3,6.48-3.89,7.63v0.14c2.59,1.15,3.89,3.6,3.89,7.7
		v18.87h-4.32v-18.58c0-4.61-1.3-5.98-5.4-5.98h-2.45v24.55h-4.32V142.1z M207.33,163.49c3.6,0,4.68-1.37,4.68-5.98v-5.69
		c0-4.61-1.08-5.98-4.68-5.98h-3.17v17.64H207.33z"/>
	<path class="st1" d="M226.77,145.85h-6.05v-3.74h16.42v3.74h-6.05v45.94h-4.32V145.85z"/>
	<path class="st1" d="M241.96,142.1h14.26v3.74h-9.94v17.35h8.64v3.74h-8.64v21.1h9.94v3.74h-14.26V142.1z"/>
	<path class="st1" d="M261.33,142.1h8.21c5.76,0,8.5,2.95,8.5,9v31.68c0,6.05-2.74,9-8.5,9h-8.21V142.1z M269.04,188.04
		c3.6,0,4.68-1.37,4.68-5.98v-30.24c0-4.61-1.08-5.98-4.68-5.98h-3.38v42.2H269.04z"/>
	<path class="st1" d="M294.23,142.1h5.62l7.85,36.36h0.14V142.1h3.89v49.68h-4.68l-8.79-40.97h-0.14v40.97h-3.89V142.1z"/>
	<path class="st1" d="M317.99,183.51v-33.12c0-5.76,3.1-9,8.35-9c5.26,0,8.35,3.24,8.35,9v33.12c0,5.76-3.1,9-8.35,9
		C321.09,192.51,317.99,189.27,317.99,183.51z M330.38,182.79V151.1c0-4.18-1.15-5.83-4.03-5.83c-2.95,0-4.03,1.66-4.03,5.83v31.68
		c0,4.18,1.08,5.83,4.03,5.83C329.23,188.62,330.38,186.96,330.38,182.79z"/>
	<path class="st1" d="M344.71,145.85h-6.05v-3.74h16.42v3.74h-6.05v45.94h-4.32V145.85z"/>
	<path class="st1" d="M359.9,142.1h4.32v49.68h-4.32V142.1z"/>
	<path class="st1" d="M370.48,183.94v-33.99c0-5.47,2.88-8.57,8.06-8.57c5.26,0,8.14,3.1,8.14,8.57v8.14h-4.1v-7.42
		c0-3.89-1.15-5.4-3.89-5.4c-2.81,0-3.89,1.51-3.89,5.4v32.55c0,3.89,1.08,5.4,3.89,5.4c2.74,0,3.89-1.51,3.89-5.4v-10.01h4.1v10.73
		c0,5.47-2.88,8.57-8.14,8.57C373.36,192.51,370.48,189.41,370.48,183.94z"/>
	<path class="st1" d="M392.44,142.1h14.26v3.74h-9.94v17.35h8.64v3.74h-8.64v21.1h9.94v3.74h-14.26V142.1z"/>
	<path class="st1" d="M416.63,142.1h5.69l6.26,49.68h-4.39l-1.44-12.31h-6.77l-1.44,12.31h-4.18L416.63,142.1z M422.32,175.73
		l-2.88-26.79h-0.14l-2.88,26.79H422.32z"/>
	<path class="st1" d="M433.48,142.1h7.99c5.76,0,8.5,2.95,8.5,9v5.98c0,4.03-1.22,6.48-3.74,7.63v0.14c2.74,1.15,4.03,3.6,4.03,7.78
		v10.15c0,6.05-2.74,9-8.5,9h-8.28V142.1z M440.97,163.2c3.6,0,4.68-1.37,4.68-5.9v-5.47c0-4.61-1.08-5.98-4.68-5.98h-3.17v17.35
		H440.97z M441.25,188.04c3.6,0,4.68-1.37,4.68-5.98v-9.15c0-4.61-1.08-5.98-4.68-5.98h-3.46v21.1H441.25z"/>
	<path class="st1" d="M456.16,142.1h4.32v45.94h9.22v3.74h-13.54V142.1z"/>
	<path class="st1" d="M474.52,142.1h14.26v3.74h-9.94v17.35h8.64v3.74h-8.64v21.1h9.94v3.74h-14.26V142.1z"/>
	<path class="st1" d="M168.73,204.1h14.26v3.74h-9.94v18.07h8.64v3.74h-8.64v24.12h-4.32V204.1z"/>
	<path class="st1" d="M190.9,204.1h5.69l6.26,49.68h-4.39l-1.44-12.31h-6.77l-1.44,12.31h-4.18L190.9,204.1z M196.59,237.73
		l-2.88-26.79h-0.14l-2.88,26.79H196.59z"/>
	<path class="st1" d="M209.62,207.85h-6.05v-3.74h16.42v3.74h-6.05v45.94h-4.32V207.85z"/>
	<path class="st1" d="M234.82,204.1h7.99c5.76,0,8.5,2.95,8.5,9v6.34c0,4.03-1.3,6.48-3.89,7.63v0.14c2.59,1.15,3.89,3.6,3.89,7.7
		v18.87h-4.32v-18.58c0-4.61-1.3-5.98-5.4-5.98h-2.45v24.55h-4.32V204.1z M242.31,225.49c3.6,0,4.68-1.37,4.68-5.98v-5.69
		c0-4.61-1.08-5.98-4.68-5.98h-3.17v17.64H242.31z"/>
	<path class="st1" d="M257.5,204.1h14.26v3.74h-9.94v17.35h8.64v3.74h-8.64v21.1h9.94v3.74H257.5V204.1z"/>
	<path class="st1" d="M276.87,204.1h8.21c5.76,0,8.5,2.95,8.5,9v31.68c0,6.05-2.74,9-8.5,9h-8.21V204.1z M284.57,250.04
		c3.6,0,4.68-1.37,4.68-5.98v-30.24c0-4.61-1.08-5.98-4.68-5.98h-3.38v42.2H284.57z"/>
	<path class="st1" d="M299.62,245.79V204.1h4.32V245c0,4.03,1.01,5.62,3.89,5.62c2.88,0,3.89-1.58,3.89-5.62v-40.9h4.18v41.69
		c0,5.54-3.02,8.71-8.14,8.71S299.62,251.34,299.62,245.79z"/>
	<path class="st1" d="M322.01,245.94v-33.99c0-5.47,2.88-8.57,8.06-8.57c5.26,0,8.14,3.1,8.14,8.57v8.14h-4.1v-7.42
		c0-3.89-1.15-5.4-3.89-5.4c-2.81,0-3.89,1.51-3.89,5.4v32.55c0,3.89,1.08,5.4,3.89,5.4c2.74,0,3.89-1.51,3.89-5.4v-10.01h4.1v10.73
		c0,5.47-2.88,8.57-8.14,8.57C324.89,254.51,322.01,251.41,322.01,245.94z"/>
	<path class="st1" d="M348.29,207.85h-6.05v-3.74h16.42v3.74h-6.05v45.94h-4.32V207.85z"/>
	<path class="st1" d="M363.48,204.1h4.32v49.68h-4.32V204.1z"/>
	<path class="st1" d="M374.06,245.51v-33.12c0-5.76,3.1-9,8.35-9c5.26,0,8.35,3.24,8.35,9v33.12c0,5.76-3.1,9-8.35,9
		C377.16,254.51,374.06,251.27,374.06,245.51z M386.45,244.79V213.1c0-4.18-1.15-5.83-4.03-5.83c-2.95,0-4.03,1.66-4.03,5.83v31.68
		c0,4.18,1.08,5.83,4.03,5.83C385.3,250.62,386.45,248.96,386.45,244.79z"/>
	<path class="st1" d="M397.03,204.1h5.62l7.85,36.36h0.14V204.1h3.89v49.68h-4.68l-8.79-40.97h-0.14v40.97h-3.89V204.1z"/>
	<path class="st1" d="M421.08,247.88h4.82v5.9h-4.82V247.88z"/>
	<path class="st1" d="M427.76,207.73l-3.61,2.27l-0.96-1.6l3.78-2.02l-3.78-1.97l0.96-1.6l3.61,2.27l-0.21-4.24h1.89l-0.21,4.24
		l3.61-2.27l0.97,1.6l-3.78,2.01l3.78,1.97l-0.97,1.6l-3.61-2.27l0.21,4.24h-1.89L427.76,207.73z"/>
</g>
</svg>
