<?xml version="1.0" encoding="utf-8"?>
<!-- Generator: Adobe Illustrator 25.4.1, SVG Export Plug-In . SVG Version: 6.00 Build 0)  -->
<svg version="1.1" id="Layer_1" xmlns="http://www.w3.org/2000/svg" xmlns:xlink="http://www.w3.org/1999/xlink" x="0px" y="0px"
	 viewBox="0 0 300 250" style="enable-background:new 0 0 300 250;" xml:space="preserve">
<style type="text/css">
	.st0{fill:#BDD6E6;}
	.st1{fill:#FFFFFF;}
</style>
<g>
	<path class="st0" d="M74.06,142.02l0.49,0.68l-0.44,0.32l-0.49-0.68l-0.23-0.43l-0.23,0.43l-0.49,0.68l-0.44-0.32l0.49-0.68
		l0.34-0.35l-0.48-0.09l-0.79-0.25l0.16-0.51l0.8,0.26l0.43,0.21l-0.07-0.48l-0.01-0.84h0.55l-0.01,0.84l-0.07,0.49l0.44-0.22
		l0.8-0.26l0.16,0.51l-0.79,0.25l-0.49,0.09L74.06,142.02z"/>
	<path class="st0" d="M79.11,141.05h-1.51v3.79h-0.71v-3.79h-1.51v-0.61h3.73V141.05z"/>
	<path class="st0" d="M82.68,142.68v2.16h-0.71v-1.93c0-0.66-0.31-0.88-0.71-0.88c-0.44,0-0.91,0.29-0.91,1.05v1.76h-0.71V140h0.71
		v2.03c0.22-0.41,0.61-0.6,1.08-0.6C82.13,141.44,82.68,141.84,82.68,142.68z"/>
	<path class="st0" d="M86.58,143.44h-2.44c0.08,0.59,0.43,0.9,0.97,0.9c0.44,0,0.73-0.16,0.84-0.45l0.59,0.25
		c-0.24,0.49-0.7,0.77-1.43,0.77c-1.05,0-1.67-0.65-1.67-1.73s0.59-1.73,1.63-1.73c1,0,1.55,0.67,1.55,1.63
		C86.6,143.2,86.59,143.35,86.58,143.44z M84.14,142.89h1.79c-0.07-0.56-0.38-0.89-0.88-0.89C84.53,142,84.22,142.32,84.14,142.89z"
		/>
	<path class="st0" d="M92.67,143.16c0,1.09-0.57,1.74-1.48,1.74c-0.49,0-0.87-0.24-1.07-0.61v1.94H89.4v-4.73h0.63l0.03,0.61
		c0.19-0.41,0.6-0.68,1.13-0.68C92.1,141.44,92.67,142.08,92.67,143.16z M91.95,143.17c0-0.73-0.35-1.16-0.92-1.16
		c-0.56,0-0.92,0.42-0.92,1.12v0.08c0,0.69,0.36,1.11,0.92,1.11C91.61,144.32,91.95,143.9,91.95,143.17z"/>
	<path class="st0" d="M95.55,141.5l-0.11,0.65c-0.09-0.05-0.24-0.09-0.42-0.09c-0.4,0-0.84,0.32-0.84,1v1.77h-0.71v-3.33h0.61
		l0.07,0.59c0.18-0.43,0.53-0.66,1.05-0.66C95.31,141.44,95.45,141.46,95.55,141.5z"/>
	<path class="st0" d="M95.97,140.5c0-0.28,0.17-0.44,0.48-0.44s0.47,0.16,0.47,0.44s-0.17,0.45-0.47,0.45S95.97,140.78,95.97,140.5z
		 M96.8,144.84h-0.71v-3.33h0.71V144.84z"/>
	<path class="st0" d="M103.03,142.68v2.16h-0.71v-2.05c0-0.55-0.29-0.77-0.69-0.77c-0.47,0-0.87,0.35-0.87,1v1.81h-0.71v-2.05
		c0-0.55-0.29-0.77-0.69-0.77c-0.4,0-0.87,0.29-0.87,1.04v1.77h-0.71v-3.33h0.63l0.03,0.55c0.23-0.42,0.65-0.62,1.08-0.62
		c0.47,0,0.92,0.21,1.12,0.67c0.22-0.45,0.71-0.67,1.15-0.67C102.44,141.44,103.04,141.83,103.03,142.68z"/>
	<path class="st0" d="M107.11,144.34l-0.05,0.48c-0.11,0.05-0.25,0.08-0.41,0.08c-0.36,0-0.61-0.13-0.68-0.5
		c-0.21,0.32-0.63,0.5-1.13,0.5c-0.63,0-1.09-0.29-1.09-0.87c0-0.51,0.43-0.89,1.3-1.05l0.85-0.15v-0.17c0-0.4-0.25-0.66-0.68-0.66
		c-0.41,0-0.72,0.18-0.86,0.6l-0.55-0.29c0.16-0.53,0.67-0.87,1.4-0.87c0.83,0,1.41,0.38,1.41,1.18v1.51c0,0.17,0.07,0.25,0.25,0.25
		C106.95,144.37,107.03,144.36,107.11,144.34z M105.9,143.73v-0.4l-0.73,0.15c-0.45,0.09-0.68,0.24-0.68,0.51
		c0,0.25,0.19,0.38,0.5,0.38C105.44,144.36,105.9,144.13,105.9,143.73z"/>
	<path class="st0" d="M109.73,141.5l-0.11,0.65c-0.09-0.05-0.24-0.09-0.42-0.09c-0.4,0-0.84,0.32-0.84,1v1.77h-0.71v-3.33h0.61
		l0.07,0.59c0.18-0.43,0.53-0.66,1.05-0.66C109.5,141.44,109.64,141.46,109.73,141.5z"/>
	<path class="st0" d="M111.82,145.23c-0.29,0.77-0.63,1.04-1.23,1.04c-0.35,0-0.59-0.08-0.79-0.27l0.21-0.55
		c0.15,0.19,0.34,0.24,0.55,0.24c0.25,0,0.43-0.09,0.58-0.48l0.15-0.36l-0.35-0.83l-1.04-2.53h0.8l0.73,2.09l0.19,0.63l0.23-0.69
		l0.69-2.03h0.74L111.82,145.23z"/>
	<path class="st0" d="M118.78,143.17c0,1.09-0.62,1.73-1.66,1.73c-1.04,0-1.66-0.65-1.66-1.73s0.62-1.73,1.66-1.73
		C118.16,141.44,118.78,142.08,118.78,143.17z M116.18,143.17c0,0.75,0.34,1.17,0.94,1.17s0.95-0.42,0.95-1.17s-0.35-1.17-0.95-1.17
		S116.18,142.42,116.18,143.17z"/>
	<path class="st0" d="M122.83,143.18c0,1.09-0.57,1.73-1.47,1.73c-0.53,0-0.94-0.27-1.13-0.68l-0.03,0.61h-0.63V140h0.71v2.04
		c0.2-0.37,0.58-0.61,1.07-0.61C122.26,141.44,122.83,142.08,122.83,143.18z M122.12,143.17c0-0.73-0.35-1.15-0.92-1.15
		c-0.56,0-0.92,0.42-0.92,1.11v0.08c0,0.7,0.36,1.12,0.92,1.12C121.77,144.33,122.12,143.9,122.12,143.17z"/>
	<path class="st0" d="M124.34,145.13c0,0.85-0.53,1.14-1.09,1.14c-0.3,0-0.55-0.09-0.73-0.22l0.13-0.57c0.12,0.1,0.3,0.19,0.51,0.19
		c0.29,0,0.47-0.15,0.47-0.6v-3.56h0.71V145.13z M124.46,140.5c0,0.27-0.19,0.45-0.47,0.45c-0.29,0-0.48-0.18-0.48-0.45
		s0.19-0.44,0.48-0.44C124.27,140.05,124.46,140.23,124.46,140.5z"/>
	<path class="st0" d="M128.27,143.44h-2.44c0.08,0.59,0.43,0.9,0.97,0.9c0.44,0,0.73-0.16,0.84-0.45l0.59,0.25
		c-0.24,0.49-0.7,0.77-1.43,0.77c-1.05,0-1.67-0.65-1.67-1.73s0.59-1.73,1.63-1.73c1,0,1.55,0.67,1.55,1.63
		C128.3,143.2,128.28,143.35,128.27,143.44z M125.84,142.89h1.79c-0.07-0.56-0.38-0.89-0.88-0.89
		C126.22,142,125.91,142.32,125.84,142.89z"/>
	<path class="st0" d="M131.97,142.37l-0.67,0.27c-0.11-0.41-0.37-0.63-0.78-0.63c-0.59,0-0.94,0.42-0.94,1.17
		c0,0.75,0.35,1.16,0.94,1.16c0.46,0,0.73-0.23,0.82-0.65l0.65,0.22c-0.19,0.61-0.69,0.99-1.46,0.99c-1.05,0-1.67-0.65-1.67-1.73
		s0.62-1.73,1.66-1.73C131.33,141.44,131.76,141.82,131.97,142.37z"/>
	<path class="st0" d="M134.86,144.62c-0.21,0.18-0.53,0.29-0.89,0.29c-0.57,0-1.01-0.26-1.02-0.95v-1.89h-0.63v-0.56h0.63v-0.78
		l0.71-0.2v0.98h1.17v0.56h-1.17v1.77c0,0.33,0.19,0.47,0.49,0.47c0.23,0,0.39-0.08,0.54-0.21L134.86,144.62z"/>
	<path class="st0" d="M135.27,140.5c0-0.28,0.17-0.44,0.48-0.44s0.47,0.16,0.47,0.44s-0.17,0.45-0.47,0.45
		S135.27,140.78,135.27,140.5z M136.11,144.84h-0.71v-3.33h0.71V144.84z"/>
	<path class="st0" d="M140.03,141.5l-1.33,3.33h-0.78l-1.33-3.33h0.79l0.94,2.75l0.97-2.75H140.03z"/>
	<path class="st0" d="M143.44,143.44H141c0.08,0.59,0.43,0.9,0.97,0.9c0.44,0,0.73-0.16,0.84-0.45l0.59,0.25
		c-0.24,0.49-0.7,0.77-1.43,0.77c-1.05,0-1.67-0.65-1.67-1.73s0.59-1.73,1.63-1.73c1,0,1.55,0.67,1.55,1.63
		C143.46,143.2,143.45,143.35,143.44,143.44z M141,142.89h1.79c-0.07-0.56-0.38-0.89-0.88-0.89C141.39,142,141.08,142.32,141,142.89
		z"/>
	<path class="st0" d="M148.31,144.62c-0.21,0.18-0.53,0.29-0.89,0.29c-0.57,0-1.01-0.26-1.02-0.95v-1.89h-0.63v-0.56h0.63v-0.78
		l0.71-0.2v0.98h1.17v0.56h-1.17v1.77c0,0.33,0.19,0.47,0.49,0.47c0.23,0,0.39-0.08,0.54-0.21L148.31,144.62z"/>
	<path class="st0" d="M151.97,143.17c0,1.09-0.62,1.73-1.66,1.73s-1.66-0.65-1.66-1.73s0.62-1.73,1.66-1.73
		S151.97,142.08,151.97,143.17z M149.37,143.17c0,0.75,0.34,1.17,0.94,1.17s0.95-0.42,0.95-1.17s-0.35-1.17-0.95-1.17
		S149.37,142.42,149.37,143.17z"/>
	<path class="st0" d="M157.74,143.44h-2.44c0.08,0.59,0.43,0.9,0.97,0.9c0.44,0,0.73-0.16,0.84-0.45l0.59,0.25
		c-0.24,0.49-0.7,0.77-1.43,0.77c-1.05,0-1.67-0.65-1.67-1.73s0.59-1.73,1.63-1.73c1,0,1.55,0.67,1.55,1.63
		C157.77,143.2,157.76,143.35,157.74,143.44z M155.31,142.89h1.79c-0.07-0.56-0.38-0.89-0.88-0.89
		C155.69,142,155.38,142.32,155.31,142.89z"/>
	<path class="st0" d="M161.37,141.5l-1.33,3.33h-0.78l-1.33-3.33h0.79l0.94,2.75l0.97-2.75H161.37z"/>
	<path class="st0" d="M164.89,144.34l-0.05,0.48c-0.11,0.05-0.25,0.08-0.41,0.08c-0.36,0-0.61-0.13-0.68-0.5
		c-0.21,0.32-0.63,0.5-1.13,0.5c-0.63,0-1.09-0.29-1.09-0.87c0-0.51,0.43-0.89,1.3-1.05l0.85-0.15v-0.17c0-0.4-0.25-0.66-0.68-0.66
		c-0.41,0-0.72,0.18-0.86,0.6l-0.55-0.29c0.16-0.53,0.67-0.87,1.4-0.87c0.83,0,1.41,0.38,1.41,1.18v1.51c0,0.17,0.07,0.25,0.25,0.25
		C164.73,144.37,164.82,144.36,164.89,144.34z M163.68,143.73v-0.4l-0.73,0.15c-0.45,0.09-0.68,0.24-0.68,0.51
		c0,0.25,0.19,0.38,0.5,0.38C163.22,144.36,163.68,144.13,163.68,143.73z"/>
	<path class="st0" d="M166.13,143.86c0,0.33,0.08,0.44,0.35,0.44c0.17,0,0.27-0.02,0.44-0.09l-0.08,0.57
		c-0.15,0.07-0.36,0.11-0.55,0.11c-0.59,0-0.87-0.29-0.87-0.94V140h0.71V143.86z"/>
	<path class="st0" d="M170.4,141.5v3.33h-0.63l-0.03-0.54c-0.23,0.42-0.64,0.61-1.18,0.61c-0.67,0-1.2-0.34-1.2-1.21v-2.19h0.71
		v2.01c0,0.62,0.27,0.81,0.69,0.81c0.51,0,0.93-0.31,0.93-1.01v-1.8H170.4z"/>
	<path class="st0" d="M174.5,144.34l-0.05,0.48c-0.11,0.05-0.25,0.08-0.41,0.08c-0.36,0-0.61-0.13-0.68-0.5
		c-0.21,0.32-0.63,0.5-1.13,0.5c-0.63,0-1.09-0.29-1.09-0.87c0-0.51,0.43-0.89,1.3-1.05l0.85-0.15v-0.17c0-0.4-0.25-0.66-0.68-0.66
		c-0.41,0-0.72,0.18-0.86,0.6l-0.55-0.29c0.16-0.53,0.67-0.87,1.4-0.87c0.83,0,1.41,0.38,1.41,1.18v1.51c0,0.17,0.07,0.25,0.25,0.25
		C174.34,144.37,174.43,144.36,174.5,144.34z M173.3,143.73v-0.4l-0.73,0.15c-0.45,0.09-0.68,0.24-0.68,0.51
		c0,0.25,0.19,0.38,0.5,0.38C172.84,144.36,173.3,144.13,173.3,143.73z"/>
	<path class="st0" d="M177.07,144.62c-0.21,0.18-0.53,0.29-0.89,0.29c-0.57,0-1.01-0.26-1.02-0.95v-1.89h-0.63v-0.56h0.63v-0.78
		l0.71-0.2v0.98h1.17v0.56h-1.17v1.77c0,0.33,0.19,0.47,0.49,0.47c0.23,0,0.39-0.08,0.54-0.21L177.07,144.62z"/>
	<path class="st0" d="M180.56,143.44h-2.44c0.08,0.59,0.43,0.9,0.97,0.9c0.44,0,0.73-0.16,0.84-0.45l0.59,0.25
		c-0.24,0.49-0.7,0.77-1.43,0.77c-1.05,0-1.67-0.65-1.67-1.73s0.59-1.73,1.63-1.73c1,0,1.55,0.67,1.55,1.63
		C180.59,143.2,180.57,143.35,180.56,143.44z M178.13,142.89h1.79c-0.07-0.56-0.38-0.89-0.88-0.89
		C178.51,142,178.2,142.32,178.13,142.89z"/>
	<path class="st0" d="M186.51,143.17c0,1.09-0.62,1.73-1.66,1.73s-1.66-0.65-1.66-1.73s0.62-1.73,1.66-1.73
		S186.51,142.08,186.51,143.17z M183.91,143.17c0,0.75,0.34,1.17,0.94,1.17c0.6,0,0.95-0.42,0.95-1.17s-0.35-1.17-0.95-1.17
		C184.25,142,183.91,142.42,183.91,143.17z"/>
	<path class="st0" d="M190.21,141.5l-1.33,3.33h-0.78l-1.33-3.33h0.79l0.94,2.75l0.97-2.75H190.21z"/>
	<path class="st0" d="M193.62,143.44h-2.44c0.08,0.59,0.43,0.9,0.97,0.9c0.44,0,0.73-0.16,0.84-0.45l0.59,0.25
		c-0.24,0.49-0.7,0.77-1.43,0.77c-1.05,0-1.67-0.65-1.67-1.73s0.59-1.73,1.63-1.73c1,0,1.55,0.67,1.55,1.63
		C193.65,143.2,193.63,143.35,193.62,143.44z M191.19,142.89h1.79c-0.07-0.56-0.38-0.89-0.88-0.89
		C191.57,142,191.26,142.32,191.19,142.89z"/>
	<path class="st0" d="M196.49,141.5l-0.11,0.65c-0.09-0.05-0.24-0.09-0.42-0.09c-0.4,0-0.84,0.32-0.84,1v1.77h-0.71v-3.33h0.61
		l0.07,0.59c0.18-0.43,0.53-0.66,1.05-0.66C196.26,141.44,196.4,141.46,196.49,141.5z"/>
	<path class="st0" d="M200.09,144.34l-0.05,0.48c-0.11,0.05-0.25,0.08-0.41,0.08c-0.36,0-0.61-0.13-0.68-0.5
		c-0.21,0.32-0.63,0.5-1.13,0.5c-0.63,0-1.09-0.29-1.09-0.87c0-0.51,0.43-0.89,1.3-1.05l0.85-0.15v-0.17c0-0.4-0.25-0.66-0.68-0.66
		c-0.41,0-0.72,0.18-0.86,0.6l-0.55-0.29c0.16-0.53,0.67-0.87,1.4-0.87c0.83,0,1.41,0.38,1.41,1.18v1.51c0,0.17,0.07,0.25,0.25,0.25
		C199.93,144.37,200.02,144.36,200.09,144.34z M198.88,143.73v-0.4l-0.73,0.15c-0.45,0.09-0.68,0.24-0.68,0.51
		c0,0.25,0.19,0.38,0.5,0.38C198.42,144.36,198.88,144.13,198.88,143.73z"/>
	<path class="st0" d="M201.32,143.86c0,0.33,0.08,0.44,0.35,0.44c0.17,0,0.27-0.02,0.44-0.09l-0.08,0.57
		c-0.15,0.07-0.36,0.11-0.55,0.11c-0.59,0-0.87-0.29-0.87-0.94V140h0.71V143.86z"/>
	<path class="st0" d="M203.27,143.86c0,0.33,0.08,0.44,0.35,0.44c0.17,0,0.27-0.02,0.44-0.09l-0.08,0.57
		c-0.15,0.07-0.36,0.11-0.55,0.11c-0.59,0-0.87-0.29-0.87-0.94V140h0.71V143.86z"/>
	<path class="st0" d="M209.63,143.16c0,1.09-0.57,1.74-1.48,1.74c-0.49,0-0.87-0.24-1.07-0.61v1.94h-0.71v-4.73h0.63l0.03,0.61
		c0.19-0.41,0.6-0.68,1.13-0.68C209.07,141.44,209.63,142.08,209.63,143.16z M208.92,143.17c0-0.73-0.35-1.16-0.92-1.16
		c-0.56,0-0.92,0.42-0.92,1.12v0.08c0,0.69,0.36,1.11,0.92,1.11C208.57,144.32,208.92,143.9,208.92,143.17z"/>
	<path class="st0" d="M213.55,144.34l-0.05,0.48c-0.11,0.05-0.25,0.08-0.41,0.08c-0.36,0-0.61-0.13-0.68-0.5
		c-0.21,0.32-0.63,0.5-1.13,0.5c-0.63,0-1.09-0.29-1.09-0.87c0-0.51,0.43-0.89,1.3-1.05l0.85-0.15v-0.17c0-0.4-0.25-0.66-0.68-0.66
		c-0.41,0-0.72,0.18-0.86,0.6l-0.55-0.29c0.16-0.53,0.67-0.87,1.4-0.87c0.83,0,1.41,0.38,1.41,1.18v1.51c0,0.17,0.07,0.25,0.25,0.25
		C213.39,144.37,213.48,144.36,213.55,144.34z M212.34,143.73v-0.4l-0.73,0.15c-0.45,0.09-0.68,0.24-0.68,0.51
		c0,0.25,0.19,0.38,0.5,0.38C211.88,144.36,212.34,144.13,212.34,143.73z"/>
	<path class="st0" d="M216.12,144.62c-0.21,0.18-0.53,0.29-0.89,0.29c-0.57,0-1.01-0.26-1.02-0.95v-1.89h-0.63v-0.56h0.63v-0.78
		l0.71-0.2v0.98h1.17v0.56h-1.17v1.77c0,0.33,0.19,0.47,0.49,0.47c0.23,0,0.39-0.08,0.54-0.21L216.12,144.62z"/>
	<path class="st0" d="M216.53,140.5c0-0.28,0.17-0.44,0.48-0.44c0.31,0,0.47,0.16,0.47,0.44s-0.17,0.45-0.47,0.45
		C216.7,140.94,216.53,140.78,216.53,140.5z M217.36,144.84h-0.71v-3.33h0.71V144.84z"/>
	<path class="st0" d="M221.3,143.44h-2.44c0.08,0.59,0.43,0.9,0.97,0.9c0.44,0,0.73-0.16,0.84-0.45l0.59,0.25
		c-0.24,0.49-0.7,0.77-1.43,0.77c-1.05,0-1.67-0.65-1.67-1.73s0.59-1.73,1.63-1.73c1,0,1.55,0.67,1.55,1.63
		C221.33,143.2,221.31,143.35,221.3,143.44z M218.86,142.89h1.79c-0.07-0.56-0.38-0.89-0.88-0.89
		C219.25,142,218.94,142.32,218.86,142.89z"/>
	<path class="st0" d="M225.13,142.68v2.16h-0.71v-1.93c0-0.66-0.31-0.88-0.71-0.88c-0.44,0-0.91,0.28-0.91,1.05v1.77h-0.71v-3.33
		h0.63l0.03,0.56c0.23-0.44,0.65-0.63,1.13-0.63C224.59,141.44,225.13,141.84,225.13,142.68z"/>
	<path class="st0" d="M228.2,144.62c-0.21,0.18-0.53,0.29-0.89,0.29c-0.57,0-1.01-0.26-1.02-0.95v-1.89h-0.63v-0.56h0.63v-0.78
		l0.71-0.2v0.98h1.17v0.56h-1.17v1.77c0,0.33,0.19,0.47,0.49,0.47c0.23,0,0.39-0.08,0.54-0.21L228.2,144.62z"/>
	<path class="st0" d="M89.99,152.41l0.48-0.41c0.17,0.4,0.57,0.55,1.03,0.55c0.47,0,0.71-0.17,0.71-0.4c0-0.21-0.19-0.33-0.77-0.44
		c-0.99-0.19-1.34-0.47-1.34-1.03c0-0.54,0.51-1.03,1.4-1.03c0.74,0,1.16,0.24,1.4,0.75l-0.51,0.37c-0.17-0.4-0.45-0.57-0.89-0.57
		c-0.41,0-0.69,0.2-0.69,0.41c0,0.24,0.19,0.37,0.82,0.48c0.95,0.17,1.29,0.46,1.29,1.01c0,0.59-0.53,1.01-1.45,1.01
		C90.83,153.11,90.27,152.9,89.99,152.41z"/>
	<path class="st0" d="M96.79,152.55l-0.05,0.48c-0.11,0.05-0.25,0.08-0.41,0.08c-0.36,0-0.61-0.13-0.68-0.5
		c-0.21,0.32-0.63,0.5-1.13,0.5c-0.63,0-1.09-0.29-1.09-0.87c0-0.51,0.43-0.89,1.3-1.05l0.85-0.15v-0.17c0-0.4-0.25-0.66-0.68-0.66
		c-0.41,0-0.72,0.18-0.86,0.6l-0.55-0.29c0.16-0.53,0.67-0.87,1.4-0.87c0.83,0,1.41,0.38,1.41,1.18v1.51c0,0.17,0.07,0.25,0.25,0.25
		C96.63,152.58,96.72,152.57,96.79,152.55z M95.58,151.94v-0.4l-0.73,0.15c-0.45,0.09-0.68,0.24-0.68,0.51
		c0,0.25,0.19,0.38,0.5,0.38C95.12,152.57,95.58,152.34,95.58,151.94z"/>
	<path class="st0" d="M99.36,152.82c-0.21,0.18-0.53,0.29-0.89,0.29c-0.57,0-1.01-0.26-1.02-0.95v-1.89h-0.63v-0.56h0.63v-0.78
		l0.71-0.2v0.98h1.17v0.56h-1.17v1.77c0,0.33,0.19,0.47,0.49,0.47c0.23,0,0.39-0.08,0.54-0.21L99.36,152.82z"/>
	<path class="st0" d="M99.77,148.7c0-0.28,0.17-0.44,0.48-0.44s0.47,0.16,0.47,0.44s-0.17,0.45-0.47,0.45S99.77,148.98,99.77,148.7z
		 M100.61,153.04h-0.71v-3.33h0.71V153.04z"/>
	<path class="st0" d="M101.31,152.41l0.48-0.41c0.17,0.4,0.57,0.55,1.03,0.55c0.47,0,0.71-0.17,0.71-0.4c0-0.21-0.19-0.33-0.77-0.44
		c-0.99-0.19-1.34-0.47-1.34-1.03c0-0.54,0.51-1.03,1.4-1.03c0.74,0,1.16,0.24,1.4,0.75l-0.51,0.37c-0.17-0.4-0.45-0.57-0.89-0.57
		c-0.41,0-0.69,0.2-0.69,0.41c0,0.24,0.19,0.37,0.82,0.48c0.95,0.17,1.29,0.46,1.29,1.01c0,0.59-0.53,1.01-1.45,1.01
		C102.15,153.11,101.59,152.9,101.31,152.41z"/>
	<path class="st0" d="M105.93,149.71h1.08v0.56h-1.06v2.77h-0.71v-2.77h-0.63v-0.56h0.63v-0.48c0-0.67,0.43-1.07,1.17-1.07
		c0.27,0,0.5,0.06,0.63,0.16l-0.13,0.52c-0.1-0.07-0.22-0.1-0.38-0.1c-0.37,0-0.59,0.16-0.59,0.54V149.71z"/>
	<path class="st0" d="M110.48,152.55l-0.05,0.48c-0.11,0.05-0.25,0.08-0.41,0.08c-0.36,0-0.61-0.13-0.68-0.5
		c-0.21,0.32-0.63,0.5-1.13,0.5c-0.63,0-1.09-0.29-1.09-0.87c0-0.51,0.43-0.89,1.3-1.05l0.85-0.15v-0.17c0-0.4-0.25-0.66-0.68-0.66
		c-0.41,0-0.72,0.18-0.86,0.6l-0.55-0.29c0.16-0.53,0.67-0.87,1.4-0.87c0.83,0,1.41,0.38,1.41,1.18v1.51c0,0.17,0.07,0.25,0.25,0.25
		C110.32,152.58,110.4,152.57,110.48,152.55z M109.27,151.94v-0.4l-0.73,0.15c-0.45,0.09-0.68,0.24-0.68,0.51
		c0,0.25,0.19,0.38,0.5,0.38C108.81,152.57,109.27,152.34,109.27,151.94z"/>
	<path class="st0" d="M113.93,150.58l-0.67,0.27c-0.11-0.41-0.37-0.63-0.78-0.63c-0.59,0-0.94,0.42-0.94,1.17
		c0,0.75,0.35,1.16,0.94,1.16c0.46,0,0.73-0.23,0.82-0.65l0.65,0.22c-0.19,0.61-0.69,0.99-1.46,0.99c-1.05,0-1.67-0.65-1.67-1.73
		s0.62-1.73,1.66-1.73C113.29,149.64,113.72,150.03,113.93,150.58z"/>
	<path class="st0" d="M116.81,152.82c-0.21,0.18-0.53,0.29-0.89,0.29c-0.57,0-1.01-0.26-1.02-0.95v-1.89h-0.63v-0.56h0.63v-0.78
		l0.71-0.2v0.98h1.17v0.56h-1.17v1.77c0,0.33,0.19,0.47,0.49,0.47c0.23,0,0.39-0.08,0.54-0.21L116.81,152.82z"/>
	<path class="st0" d="M117.23,148.7c0-0.28,0.17-0.44,0.48-0.44s0.47,0.16,0.47,0.44s-0.17,0.45-0.47,0.45
		S117.23,148.98,117.23,148.7z M118.06,153.04h-0.71v-3.33h0.71V153.04z"/>
	<path class="st0" d="M122.17,151.38c0,1.09-0.62,1.73-1.66,1.73c-1.04,0-1.66-0.65-1.66-1.73s0.62-1.73,1.66-1.73
		C121.55,149.64,122.17,150.29,122.17,151.38z M119.57,151.38c0,0.75,0.34,1.17,0.94,1.17s0.95-0.42,0.95-1.17s-0.35-1.17-0.95-1.17
		S119.57,150.62,119.57,151.38z"/>
	<path class="st0" d="M126,150.88v2.16h-0.71v-1.93c0-0.66-0.31-0.88-0.71-0.88c-0.44,0-0.91,0.28-0.91,1.05v1.77h-0.71v-3.33h0.63
		l0.03,0.56c0.23-0.44,0.65-0.63,1.13-0.63C125.45,149.64,126,150.05,126,150.88z"/>
	<path class="st0" d="M133.9,149.71l-1.11,3.33h-0.78l-0.84-2.52l-0.8,2.52h-0.78l-1.11-3.33h0.77l0.75,2.66l0.83-2.66h0.71
		l0.83,2.66l0.75-2.66H133.9z"/>
	<path class="st0" d="M134.39,148.7c0-0.28,0.17-0.44,0.48-0.44s0.47,0.16,0.47,0.44s-0.17,0.45-0.47,0.45
		S134.39,148.98,134.39,148.7z M135.22,153.04h-0.71v-3.33h0.71V153.04z"/>
	<path class="st0" d="M138.36,152.82c-0.21,0.18-0.53,0.29-0.89,0.29c-0.57,0-1.01-0.26-1.02-0.95v-1.89h-0.63v-0.56h0.63v-0.78
		l0.71-0.2v0.98h1.17v0.56h-1.17v1.77c0,0.33,0.19,0.47,0.49,0.47c0.23,0,0.39-0.08,0.54-0.21L138.36,152.82z"/>
	<path class="st0" d="M141.97,150.88v2.16h-0.71v-1.93c0-0.66-0.31-0.88-0.71-0.88c-0.44,0-0.91,0.29-0.91,1.05v1.76h-0.71v-4.83
		h0.71v2.03c0.22-0.41,0.61-0.6,1.08-0.6C141.43,149.64,141.97,150.05,141.97,150.88z"/>
	<path class="st0" d="M146.88,153.11c-1.27,0-2.07-0.87-2.07-2.27s0.81-2.27,2.07-2.27c0.87,0,1.49,0.37,1.76,1.08l-0.67,0.3
		c-0.17-0.52-0.5-0.76-1.05-0.76c-0.82,0-1.36,0.6-1.36,1.65c0,1.04,0.5,1.65,1.33,1.65c0.56,0,0.97-0.28,1.13-0.84l0.68,0.23
		C148.43,152.68,147.74,153.11,146.88,153.11z"/>
	<path class="st0" d="M152.51,151.38c0,1.09-0.62,1.73-1.66,1.73c-1.04,0-1.66-0.65-1.66-1.73s0.62-1.73,1.66-1.73
		C151.89,149.64,152.51,150.29,152.51,151.38z M149.91,151.38c0,0.75,0.34,1.17,0.94,1.17c0.6,0,0.95-0.42,0.95-1.17
		s-0.35-1.17-0.95-1.17C150.25,150.2,149.91,150.62,149.91,151.38z"/>
	<path class="st0" d="M156.42,151.38c0,1.09-0.62,1.73-1.66,1.73s-1.66-0.65-1.66-1.73s0.62-1.73,1.66-1.73
		S156.42,150.29,156.42,151.38z M153.82,151.38c0,0.75,0.34,1.17,0.94,1.17c0.6,0,0.95-0.42,0.95-1.17s-0.35-1.17-0.95-1.17
		C154.16,150.2,153.82,150.62,153.82,151.38z"/>
	<path class="st0" d="M157.89,152.07c0,0.33,0.08,0.44,0.35,0.44c0.17,0,0.27-0.02,0.44-0.09L158.6,153
		c-0.15,0.07-0.36,0.11-0.55,0.11c-0.59,0-0.87-0.29-0.87-0.94v-3.96h0.71V152.07z"/>
	<path class="st0" d="M162.51,149.47l-0.54,0.49c-0.25-0.53-0.59-0.76-1.21-0.76s-0.97,0.28-0.97,0.65c0,0.35,0.27,0.54,1.13,0.69
		c1.18,0.21,1.61,0.57,1.61,1.28c0,0.79-0.71,1.29-1.75,1.29c-0.96,0-1.55-0.35-1.89-0.89l0.5-0.5c0.29,0.53,0.73,0.77,1.39,0.77
		c0.63,0,1.01-0.22,1.01-0.63c0-0.31-0.27-0.49-1.09-0.65c-1.21-0.23-1.65-0.59-1.65-1.29c0-0.75,0.64-1.35,1.71-1.35
		C161.56,148.58,162.12,148.87,162.51,149.47z"/>
	<path class="st0" d="M166.21,150.58l-0.67,0.27c-0.11-0.41-0.37-0.63-0.78-0.63c-0.59,0-0.94,0.42-0.94,1.17
		c0,0.75,0.35,1.16,0.94,1.16c0.46,0,0.73-0.23,0.82-0.65l0.65,0.22c-0.19,0.61-0.69,0.99-1.46,0.99c-1.05,0-1.67-0.65-1.67-1.73
		s0.62-1.73,1.66-1.73C165.57,149.64,166,150.03,166.21,150.58z"/>
	<path class="st0" d="M169.96,149.71v3.33h-0.63l-0.03-0.54c-0.23,0.42-0.64,0.61-1.18,0.61c-0.67,0-1.2-0.34-1.2-1.21v-2.19h0.71
		v2.01c0,0.62,0.27,0.81,0.69,0.81c0.51,0,0.93-0.31,0.93-1.01v-1.8H169.96z"/>
	<path class="st0" d="M171.63,152.07c0,0.33,0.08,0.44,0.35,0.44c0.17,0,0.27-0.02,0.44-0.09l-0.08,0.57
		c-0.15,0.07-0.36,0.11-0.55,0.11c-0.59,0-0.87-0.29-0.87-0.94v-3.96h0.71V152.07z"/>
	<path class="st0" d="M176.15,151.37c0,1.09-0.57,1.74-1.48,1.74c-0.49,0-0.87-0.24-1.07-0.61v1.94h-0.71v-4.73h0.63l0.03,0.61
		c0.19-0.41,0.6-0.68,1.13-0.68C175.58,149.64,176.15,150.28,176.15,151.37z M175.43,151.38c0-0.73-0.35-1.16-0.92-1.16
		c-0.56,0-0.92,0.42-0.92,1.12v0.08c0,0.69,0.36,1.11,0.92,1.11C175.09,152.53,175.43,152.1,175.43,151.38z"/>
	<path class="st0" d="M179.06,152.82c-0.21,0.18-0.53,0.29-0.89,0.29c-0.57,0-1.01-0.26-1.02-0.95v-1.89h-0.63v-0.56h0.63v-0.78
		l0.71-0.2v0.98h1.17v0.56h-1.17v1.77c0,0.33,0.19,0.47,0.49,0.47c0.23,0,0.39-0.08,0.54-0.21L179.06,152.82z"/>
	<path class="st0" d="M179.47,148.7c0-0.28,0.17-0.44,0.48-0.44c0.31,0,0.47,0.16,0.47,0.44s-0.17,0.45-0.47,0.45
		C179.64,149.15,179.47,148.98,179.47,148.7z M180.3,153.04h-0.71v-3.33h0.71V153.04z"/>
	<path class="st0" d="M184.33,150.88v2.16h-0.71v-1.93c0-0.66-0.31-0.88-0.71-0.88c-0.44,0-0.91,0.28-0.91,1.05v1.77h-0.71v-3.33
		h0.63l0.03,0.56c0.23-0.44,0.65-0.63,1.13-0.63C183.79,149.64,184.33,150.05,184.33,150.88z"/>
	<path class="st0" d="M188.29,153.38c0,0.69-0.75,1.1-1.71,1.1c-1.1,0-1.59-0.36-1.59-0.85c0-0.3,0.21-0.54,0.59-0.64
		c-0.26-0.12-0.47-0.33-0.47-0.63c0-0.35,0.21-0.56,0.52-0.67c-0.33-0.19-0.51-0.51-0.51-0.91c0-0.68,0.58-1.13,1.45-1.13
		c0.25,0,0.48,0.04,0.67,0.11c0.12-0.47,0.43-0.75,0.98-0.74l0.12,0.55c-0.43-0.01-0.69,0.11-0.79,0.34c0.29,0.2,0.46,0.5,0.46,0.87
		c0,0.68-0.57,1.13-1.45,1.13c-0.21,0-0.39-0.02-0.55-0.06c-0.23,0.05-0.32,0.17-0.32,0.37c0,0.21,0.16,0.32,0.41,0.32h1.11
		C187.89,152.52,188.29,152.84,188.29,153.38z M187.67,153.46c0-0.21-0.14-0.34-0.58-0.34h-0.9c-0.41,0-0.6,0.13-0.6,0.35
		c0,0.29,0.34,0.47,1.05,0.47C187.32,153.94,187.67,153.72,187.67,153.46z M185.85,150.77c0,0.38,0.31,0.63,0.71,0.63
		c0.41,0,0.72-0.25,0.72-0.63c0-0.37-0.31-0.63-0.72-0.63C186.16,150.14,185.85,150.4,185.85,150.77z"/>
	<path class="st0" d="M192.58,148.44c-0.84,0.77-1.15,1.55-1.15,2.75s0.31,1.98,1.15,2.75l-0.37,0.37
		c-0.97-0.78-1.47-1.83-1.47-3.12c0-1.29,0.5-2.35,1.47-3.13L192.58,148.44z"/>
	<path class="st0" d="M196.01,150.88v2.16h-0.71v-1.93c0-0.66-0.31-0.88-0.71-0.88c-0.44,0-0.91,0.28-0.91,1.05v1.77h-0.71v-3.33
		h0.63l0.03,0.56c0.23-0.44,0.65-0.63,1.13-0.63C195.46,149.64,196.01,150.05,196.01,150.88z"/>
	<path class="st0" d="M200.01,150.6h-3.17v-0.59h3.17V150.6z M200.01,151.97h-3.17v-0.59h3.17V151.97z"/>
	<path class="st0" d="M202.46,148.64v4.4h-0.7v-3.25c0-0.11,0.01-0.23,0.01-0.35c-0.31,0.29-0.71,0.52-1.11,0.61l-0.13-0.62
		c0.35-0.05,1.1-0.45,1.33-0.78H202.46z"/>
	<path class="st0" d="M203.36,150.84c0-1.48,0.58-2.27,1.69-2.27s1.7,0.79,1.7,2.27s-0.59,2.27-1.7,2.27
		S203.36,152.32,203.36,150.84z M206.02,150.84c0-1.11-0.33-1.66-0.97-1.66c-0.64,0-0.97,0.55-0.97,1.66c0,1.11,0.33,1.66,0.97,1.66
		C205.69,152.5,206.02,151.95,206.02,150.84z"/>
	<path class="st0" d="M210.67,149.52l-0.63,0.3c-0.12-0.39-0.38-0.62-0.85-0.62c-0.65,0-1.09,0.72-1.09,1.69v0.12h0.03
		c0.15-0.51,0.67-0.74,1.16-0.74c0.87,0,1.47,0.55,1.47,1.41c0,0.88-0.6,1.43-1.57,1.43c-1.13,0-1.74-0.9-1.74-2.27
		c0-1.5,0.77-2.27,1.78-2.27C209.93,148.58,210.41,148.84,210.67,149.52z M208.32,151.67c0,0.5,0.34,0.83,0.86,0.83
		c0.55,0,0.86-0.31,0.86-0.83c0-0.5-0.31-0.81-0.86-0.81C208.66,150.86,208.32,151.19,208.32,151.67z"/>
	<path class="st0" d="M212.85,151.19c0,1.29-0.5,2.34-1.47,3.12l-0.37-0.37c0.84-0.77,1.15-1.54,1.15-2.75s-0.31-1.99-1.15-2.75
		l0.37-0.37C212.35,148.84,212.85,149.9,212.85,151.19z"/>
	<path class="st1" d="M214.55,152.62c0,0.29-0.19,0.49-0.5,0.49c-0.31,0-0.51-0.19-0.51-0.49c0-0.29,0.2-0.48,0.51-0.48
		C214.36,152.14,214.55,152.33,214.55,152.62z"/>
</g>
</svg>
