<?xml version="1.0" encoding="utf-8"?>
<!-- Generator: Adobe Illustrator 25.4.1, SVG Export Plug-In . SVG Version: 6.00 Build 0)  -->
<svg version="1.1" id="Layer_1" xmlns="http://www.w3.org/2000/svg" xmlns:xlink="http://www.w3.org/1999/xlink" x="0px" y="0px"
	 viewBox="0 0 600 500" style="enable-background:new 0 0 600 500;" xml:space="preserve">
<style type="text/css">
	.st0{fill:#BDD6E6;}
	.st1{fill:#FFFFFF;}
</style>
<g>
	<path class="st0" d="M140.82,290.94l1.04,1.43l-0.92,0.67l-1.04-1.43l-0.48-0.91l-0.48,0.91l-1.02,1.43l-0.92-0.67l1.04-1.43
		l0.71-0.73l-1.01-0.18l-1.67-0.53l0.34-1.08l1.68,0.55l0.91,0.45l-0.14-1.01l-0.01-1.76h1.16l-0.01,1.76l-0.15,1.02l0.92-0.46
		l1.68-0.55l0.34,1.08l-1.67,0.53l-1.02,0.18L140.82,290.94z"/>
	<path class="st0" d="M151.44,288.91h-3.17v7.96h-1.5v-7.96h-3.17v-1.29h7.83V288.91z"/>
	<path class="st0" d="M158.91,292.33v4.54h-1.5v-4.06c0-1.39-0.64-1.85-1.5-1.85c-0.92,0-1.9,0.6-1.9,2.21v3.7h-1.5v-10.16h1.5v4.27
		c0.46-0.87,1.29-1.26,2.27-1.26C157.77,289.72,158.91,290.58,158.91,292.33z"/>
	<path class="st0" d="M167.1,293.93h-5.13c0.17,1.23,0.9,1.89,2.03,1.89c0.92,0,1.54-0.34,1.76-0.95l1.25,0.52
		c-0.5,1.04-1.47,1.62-3.01,1.62c-2.21,0-3.52-1.36-3.52-3.64s1.23-3.64,3.42-3.64c2.1,0,3.25,1.4,3.25,3.43
		C167.16,293.42,167.13,293.74,167.1,293.93z M161.99,292.78h3.77c-0.14-1.18-0.8-1.86-1.85-1.86
		C162.8,290.92,162.15,291.57,161.99,292.78z"/>
	<path class="st0" d="M179.89,293.35c0,2.3-1.2,3.66-3.11,3.66c-1.04,0-1.83-0.5-2.25-1.27v4.08h-1.5v-9.95h1.32l0.07,1.29
		c0.41-0.85,1.26-1.43,2.38-1.43C178.69,289.72,179.89,291.07,179.89,293.35z M178.39,293.37c0-1.53-0.73-2.44-1.93-2.44
		c-1.18,0-1.93,0.88-1.93,2.35v0.17c0,1.46,0.76,2.34,1.93,2.34C177.66,295.79,178.39,294.89,178.39,293.37z"/>
	<path class="st0" d="M185.93,289.86l-0.24,1.37c-0.2-0.11-0.5-0.18-0.88-0.18c-0.84,0-1.76,0.67-1.76,2.1v3.71h-1.5v-7h1.27
		l0.14,1.25c0.38-0.91,1.12-1.39,2.2-1.39C185.44,289.72,185.74,289.77,185.93,289.86z"/>
	<path class="st0" d="M186.81,287.75c0-0.59,0.36-0.92,1.01-0.92c0.64,0,0.99,0.34,0.99,0.92c0,0.59-0.35,0.94-0.99,0.94
		C187.18,288.69,186.81,288.34,186.81,287.75z M188.56,296.87h-1.5v-7h1.5V296.87z"/>
	<path class="st0" d="M201.64,292.33v4.54h-1.5v-4.3c0-1.15-0.62-1.61-1.44-1.61c-0.98,0-1.82,0.74-1.82,2.1v3.81h-1.5v-4.3
		c0-1.15-0.62-1.61-1.44-1.61c-0.84,0-1.82,0.62-1.82,2.19v3.73h-1.5v-7h1.33l0.07,1.16c0.49-0.88,1.36-1.3,2.27-1.3
		c0.99,0,1.93,0.45,2.35,1.4c0.46-0.95,1.48-1.4,2.42-1.4C200.41,289.72,201.66,290.55,201.64,292.33z"/>
	<path class="st0" d="M210.19,295.83l-0.1,1.01c-0.22,0.1-0.52,0.17-0.87,0.17c-0.76,0-1.27-0.28-1.43-1.05
		c-0.43,0.67-1.33,1.05-2.37,1.05c-1.32,0-2.28-0.62-2.28-1.83c0-1.08,0.9-1.88,2.73-2.2l1.78-0.32v-0.36
		c0-0.84-0.52-1.39-1.43-1.39c-0.87,0-1.51,0.38-1.81,1.26l-1.16-0.62c0.34-1.11,1.42-1.82,2.94-1.82c1.75,0,2.96,0.8,2.96,2.48
		v3.17c0,0.35,0.14,0.52,0.52,0.52C209.86,295.89,210.04,295.87,210.19,295.83z M207.66,294.54v-0.84l-1.53,0.31
		c-0.95,0.18-1.43,0.5-1.43,1.06c0,0.52,0.39,0.8,1.05,0.8C206.69,295.87,207.66,295.38,207.66,294.54z"/>
	<path class="st0" d="M215.71,289.86l-0.24,1.37c-0.2-0.11-0.5-0.18-0.88-0.18c-0.84,0-1.76,0.67-1.76,2.1v3.71h-1.5v-7h1.27
		l0.14,1.25c0.38-0.91,1.12-1.39,2.2-1.39C215.22,289.72,215.51,289.77,215.71,289.86z"/>
	<path class="st0" d="M220.08,297.69c-0.62,1.62-1.33,2.19-2.59,2.19c-0.73,0-1.23-0.17-1.65-0.56l0.43-1.15
		c0.32,0.39,0.71,0.5,1.15,0.5c0.52,0,0.91-0.2,1.22-1.01l0.31-0.76l-0.73-1.74l-2.19-5.31h1.68l1.54,4.4l0.41,1.32l0.48-1.44
		l1.46-4.27h1.55L220.08,297.69z"/>
	<path class="st0" d="M234.71,293.37c0,2.28-1.3,3.64-3.49,3.64c-2.19,0-3.49-1.36-3.49-3.64s1.3-3.64,3.49-3.64
		C233.41,289.72,234.71,291.08,234.71,293.37z M229.25,293.37c0,1.58,0.71,2.47,1.98,2.47s1.99-0.88,1.99-2.47s-0.73-2.46-1.99-2.46
		S229.25,291.78,229.25,293.37z"/>
	<path class="st0" d="M243.21,293.38c0,2.28-1.19,3.63-3.1,3.63c-1.12,0-1.98-0.57-2.38-1.43l-0.07,1.29h-1.32v-10.16h1.5V291
		c0.42-0.77,1.22-1.27,2.25-1.27C242,289.72,243.21,291.08,243.21,293.38z M241.71,293.37c0-1.53-0.73-2.42-1.93-2.42
		c-1.18,0-1.93,0.88-1.93,2.34v0.17c0,1.47,0.76,2.35,1.93,2.35C240.98,295.8,241.71,294.89,241.71,293.37z"/>
	<path class="st0" d="M246.37,297.48c0,1.79-1.12,2.4-2.3,2.4c-0.63,0-1.16-0.18-1.54-0.46l0.27-1.21c0.25,0.21,0.63,0.39,1.08,0.39
		c0.6,0,0.99-0.32,0.99-1.26v-7.48h1.5V297.48z M246.62,287.75c0,0.56-0.39,0.94-0.99,0.94c-0.62,0-1.01-0.38-1.01-0.94
		s0.39-0.92,1.01-0.92C246.23,286.83,246.62,287.19,246.62,287.75z"/>
	<path class="st0" d="M254.62,293.93h-5.13c0.17,1.23,0.9,1.89,2.03,1.89c0.92,0,1.54-0.34,1.76-0.95l1.25,0.52
		c-0.5,1.04-1.47,1.62-3.01,1.62c-2.21,0-3.52-1.36-3.52-3.64s1.23-3.64,3.42-3.64c2.1,0,3.25,1.4,3.25,3.43
		C254.67,293.42,254.65,293.74,254.62,293.93z M249.5,292.78h3.77c-0.14-1.18-0.8-1.86-1.85-1.86
		C250.32,290.92,249.66,291.57,249.5,292.78z"/>
	<path class="st0" d="M262.39,291.69l-1.4,0.56c-0.24-0.87-0.77-1.33-1.64-1.33c-1.25,0-1.98,0.88-1.98,2.46
		c0,1.58,0.74,2.44,1.98,2.44c0.97,0,1.54-0.49,1.72-1.36l1.37,0.46c-0.39,1.27-1.44,2.09-3.07,2.09c-2.21,0-3.52-1.36-3.52-3.64
		s1.3-3.64,3.49-3.64C261.04,289.72,261.95,290.54,262.39,291.69z"/>
	<path class="st0" d="M268.45,296.41c-0.45,0.38-1.11,0.6-1.86,0.6c-1.2,0-2.13-0.55-2.14-1.99v-3.98h-1.33v-1.18h1.33v-1.64
		l1.5-0.42v2.06h2.45v1.18h-2.45v3.73c0,0.69,0.41,1,1.02,1c0.48,0,0.83-0.17,1.13-0.45L268.45,296.41z"/>
	<path class="st0" d="M269.31,287.75c0-0.59,0.36-0.92,1.01-0.92c0.64,0,0.99,0.34,0.99,0.92c0,0.59-0.35,0.94-0.99,0.94
		C269.68,288.69,269.31,288.34,269.31,287.75z M271.06,296.87h-1.5v-7h1.5V296.87z"/>
	<path class="st0" d="M279.3,289.86l-2.79,7h-1.64l-2.8-7h1.65l1.98,5.79l2.03-5.79H279.3z"/>
	<path class="st0" d="M286.45,293.93h-5.13c0.17,1.23,0.9,1.89,2.03,1.89c0.92,0,1.54-0.34,1.76-0.95l1.25,0.52
		c-0.5,1.04-1.47,1.62-3.01,1.62c-2.21,0-3.52-1.36-3.52-3.64s1.23-3.64,3.42-3.64c2.1,0,3.25,1.4,3.25,3.43
		C286.51,293.42,286.48,293.74,286.45,293.93z M281.34,292.78h3.77c-0.14-1.18-0.8-1.86-1.85-1.86
		C282.15,290.92,281.49,291.57,281.34,292.78z"/>
	<path class="st0" d="M296.69,296.41c-0.45,0.38-1.11,0.6-1.86,0.6c-1.2,0-2.13-0.55-2.14-1.99v-3.98h-1.33v-1.18h1.33v-1.64
		l1.5-0.42v2.06h2.45v1.18h-2.45v3.73c0,0.69,0.41,1,1.02,1c0.48,0,0.83-0.17,1.13-0.45L296.69,296.41z"/>
	<path class="st0" d="M304.37,293.37c0,2.28-1.3,3.64-3.49,3.64c-2.19,0-3.49-1.36-3.49-3.64s1.3-3.64,3.49-3.64
		C303.07,289.72,304.37,291.08,304.37,293.37z M298.91,293.37c0,1.58,0.71,2.47,1.98,2.47s1.99-0.88,1.99-2.47s-0.73-2.46-1.99-2.46
		S298.91,291.78,298.91,293.37z"/>
	<path class="st0" d="M316.48,293.93h-5.13c0.17,1.23,0.9,1.89,2.03,1.89c0.92,0,1.54-0.34,1.76-0.95l1.25,0.52
		c-0.5,1.04-1.47,1.62-3.01,1.62c-2.21,0-3.52-1.36-3.52-3.64s1.23-3.64,3.42-3.64c2.1,0,3.25,1.4,3.25,3.43
		C316.54,293.42,316.51,293.74,316.48,293.93z M311.37,292.78h3.77c-0.14-1.18-0.8-1.86-1.85-1.86
		C312.18,290.92,311.52,291.57,311.37,292.78z"/>
	<path class="st0" d="M324.1,289.86l-2.79,7h-1.64l-2.8-7h1.65l1.98,5.79l2.03-5.79H324.1z"/>
	<path class="st0" d="M331.49,295.83l-0.1,1.01c-0.22,0.1-0.52,0.17-0.87,0.17c-0.76,0-1.27-0.28-1.43-1.05
		c-0.43,0.67-1.33,1.05-2.37,1.05c-1.32,0-2.28-0.62-2.28-1.83c0-1.08,0.9-1.88,2.73-2.2l1.78-0.32v-0.36
		c0-0.84-0.52-1.39-1.43-1.39c-0.87,0-1.51,0.38-1.81,1.26l-1.16-0.62c0.34-1.11,1.42-1.82,2.94-1.82c1.75,0,2.96,0.8,2.96,2.48
		v3.17c0,0.35,0.14,0.52,0.52,0.52C331.15,295.89,331.34,295.87,331.49,295.83z M328.96,294.54v-0.84l-1.53,0.31
		c-0.95,0.18-1.43,0.5-1.43,1.06c0,0.52,0.39,0.8,1.05,0.8C327.99,295.87,328.96,295.38,328.96,294.54z"/>
	<path class="st0" d="M334.08,294.82c0,0.69,0.17,0.92,0.73,0.92c0.35,0,0.56-0.04,0.92-0.18l-0.17,1.21
		c-0.31,0.15-0.76,0.24-1.16,0.24c-1.25,0-1.82-0.62-1.82-1.97v-8.32h1.5V294.82z"/>
	<path class="st0" d="M343.05,289.86v7h-1.33l-0.07-1.13c-0.48,0.88-1.34,1.27-2.48,1.27c-1.4,0-2.52-0.71-2.52-2.54v-4.61h1.5v4.22
		c0,1.3,0.56,1.69,1.44,1.69c1.06,0,1.96-0.64,1.96-2.13v-3.78H343.05z"/>
	<path class="st0" d="M351.66,295.83l-0.1,1.01c-0.22,0.1-0.52,0.17-0.87,0.17c-0.76,0-1.27-0.28-1.43-1.05
		c-0.43,0.67-1.33,1.05-2.37,1.05c-1.32,0-2.28-0.62-2.28-1.83c0-1.08,0.9-1.88,2.73-2.2l1.78-0.32v-0.36
		c0-0.84-0.52-1.39-1.43-1.39c-0.87,0-1.51,0.38-1.81,1.26l-1.16-0.62c0.34-1.11,1.42-1.82,2.94-1.82c1.75,0,2.96,0.8,2.96,2.48
		v3.17c0,0.35,0.14,0.52,0.52,0.52C351.33,295.89,351.51,295.87,351.66,295.83z M349.13,294.54v-0.84l-1.53,0.31
		c-0.95,0.18-1.43,0.5-1.43,1.06c0,0.52,0.39,0.8,1.05,0.8C348.16,295.87,349.13,295.38,349.13,294.54z"/>
	<path class="st0" d="M357.05,296.41c-0.45,0.38-1.11,0.6-1.86,0.6c-1.2,0-2.13-0.55-2.14-1.99v-3.98h-1.33v-1.18h1.33v-1.64
		l1.5-0.42v2.06H357v1.18h-2.45v3.73c0,0.69,0.41,1,1.02,1c0.48,0,0.83-0.17,1.13-0.45L357.05,296.41z"/>
	<path class="st0" d="M364.38,293.93h-5.13c0.17,1.23,0.9,1.89,2.03,1.89c0.92,0,1.54-0.34,1.76-0.95l1.25,0.52
		c-0.5,1.04-1.47,1.62-3.01,1.62c-2.21,0-3.52-1.36-3.52-3.64s1.23-3.64,3.42-3.64c2.1,0,3.25,1.4,3.25,3.43
		C364.43,293.42,364.4,293.74,364.38,293.93z M359.26,292.78h3.77c-0.14-1.18-0.8-1.86-1.85-1.86
		C360.08,290.92,359.42,291.57,359.26,292.78z"/>
	<path class="st0" d="M376.86,293.37c0,2.28-1.3,3.64-3.49,3.64s-3.49-1.36-3.49-3.64s1.3-3.64,3.49-3.64
		S376.86,291.08,376.86,293.37z M371.4,293.37c0,1.58,0.71,2.47,1.98,2.47s1.99-0.88,1.99-2.47s-0.73-2.46-1.99-2.46
		S371.4,291.78,371.4,293.37z"/>
	<path class="st0" d="M384.63,289.86l-2.79,7h-1.64l-2.8-7h1.65l1.98,5.79l2.03-5.79H384.63z"/>
	<path class="st0" d="M391.79,293.93h-5.13c0.17,1.23,0.9,1.89,2.03,1.89c0.92,0,1.54-0.34,1.76-0.95l1.25,0.52
		c-0.5,1.04-1.47,1.62-3.01,1.62c-2.21,0-3.52-1.36-3.52-3.64s1.23-3.64,3.42-3.64c2.1,0,3.25,1.4,3.25,3.43
		C391.84,293.42,391.82,293.74,391.79,293.93z M386.67,292.78h3.77c-0.14-1.18-0.8-1.86-1.85-1.86
		C387.49,290.92,386.83,291.57,386.67,292.78z"/>
	<path class="st0" d="M397.82,289.86l-0.24,1.37c-0.2-0.11-0.5-0.18-0.88-0.18c-0.84,0-1.76,0.67-1.76,2.1v3.71h-1.5v-7h1.28
		l0.14,1.25c0.38-0.91,1.12-1.39,2.2-1.39C397.33,289.72,397.62,289.77,397.82,289.86z"/>
	<path class="st0" d="M405.37,295.83l-0.1,1.01c-0.22,0.1-0.52,0.17-0.87,0.17c-0.76,0-1.27-0.28-1.43-1.05
		c-0.43,0.67-1.33,1.05-2.37,1.05c-1.32,0-2.28-0.62-2.28-1.83c0-1.08,0.9-1.88,2.73-2.2l1.78-0.32v-0.36
		c0-0.84-0.52-1.39-1.43-1.39c-0.87,0-1.51,0.38-1.81,1.26l-1.16-0.62c0.34-1.11,1.42-1.82,2.94-1.82c1.75,0,2.96,0.8,2.96,2.48
		v3.17c0,0.35,0.14,0.52,0.52,0.52C405.03,295.89,405.21,295.87,405.37,295.83z M402.83,294.54v-0.84l-1.53,0.31
		c-0.95,0.18-1.43,0.5-1.43,1.06c0,0.52,0.39,0.8,1.05,0.8C401.87,295.87,402.83,295.38,402.83,294.54z"/>
	<path class="st0" d="M407.95,294.82c0,0.69,0.17,0.92,0.73,0.92c0.35,0,0.56-0.04,0.92-0.18l-0.17,1.21
		c-0.31,0.15-0.76,0.24-1.16,0.24c-1.25,0-1.82-0.62-1.82-1.97v-8.32h1.5V294.82z"/>
	<path class="st0" d="M412.04,294.82c0,0.69,0.17,0.92,0.73,0.92c0.35,0,0.56-0.04,0.92-0.18l-0.17,1.21
		c-0.31,0.15-0.76,0.24-1.16,0.24c-1.25,0-1.82-0.62-1.82-1.97v-8.32h1.5V294.82z"/>
	<path class="st0" d="M425.4,293.35c0,2.3-1.21,3.66-3.11,3.66c-1.04,0-1.83-0.5-2.26-1.27v4.08h-1.5v-9.95h1.32l0.07,1.29
		c0.41-0.85,1.26-1.43,2.38-1.43C424.21,289.72,425.4,291.07,425.4,293.35z M423.9,293.37c0-1.53-0.73-2.44-1.93-2.44
		c-1.18,0-1.93,0.88-1.93,2.35v0.17c0,1.46,0.76,2.34,1.93,2.34C423.17,295.79,423.9,294.89,423.9,293.37z"/>
	<path class="st0" d="M433.62,295.83l-0.1,1.01c-0.22,0.1-0.52,0.17-0.87,0.17c-0.76,0-1.27-0.28-1.43-1.05
		c-0.43,0.67-1.33,1.05-2.37,1.05c-1.32,0-2.28-0.62-2.28-1.83c0-1.08,0.9-1.88,2.73-2.2l1.78-0.32v-0.36
		c0-0.84-0.52-1.39-1.43-1.39c-0.87,0-1.51,0.38-1.81,1.26l-1.16-0.62c0.34-1.11,1.41-1.82,2.94-1.82c1.75,0,2.96,0.8,2.96,2.48
		v3.17c0,0.35,0.14,0.52,0.52,0.52C433.28,295.89,433.46,295.87,433.62,295.83z M431.08,294.54v-0.84l-1.53,0.31
		c-0.95,0.18-1.43,0.5-1.43,1.06c0,0.52,0.39,0.8,1.05,0.8C430.12,295.87,431.08,295.38,431.08,294.54z"/>
	<path class="st0" d="M439.01,296.41c-0.45,0.38-1.11,0.6-1.86,0.6c-1.2,0-2.13-0.55-2.14-1.99v-3.98h-1.33v-1.18H435v-1.64
		l1.5-0.42v2.06h2.45v1.18h-2.45v3.73c0,0.69,0.41,1,1.02,1c0.48,0,0.83-0.17,1.13-0.45L439.01,296.41z"/>
	<path class="st0" d="M439.87,287.75c0-0.59,0.36-0.92,1.01-0.92s0.99,0.34,0.99,0.92c0,0.59-0.35,0.94-0.99,0.94
		S439.87,288.34,439.87,287.75z M441.62,296.87h-1.5v-7h1.5V296.87z"/>
	<path class="st0" d="M449.89,293.93h-5.13c0.17,1.23,0.9,1.89,2.03,1.89c0.92,0,1.54-0.34,1.76-0.95l1.25,0.52
		c-0.5,1.04-1.47,1.62-3.01,1.62c-2.21,0-3.52-1.36-3.52-3.64s1.23-3.64,3.42-3.64c2.1,0,3.25,1.4,3.25,3.43
		C449.94,293.42,449.92,293.74,449.89,293.93z M444.77,292.78h3.77c-0.14-1.18-0.8-1.86-1.85-1.86
		C445.59,290.92,444.93,291.57,444.77,292.78z"/>
	<path class="st0" d="M457.94,292.33v4.54h-1.5v-4.06c0-1.39-0.64-1.85-1.5-1.85c-0.92,0-1.91,0.59-1.91,2.2v3.71h-1.5v-7h1.33
		l0.07,1.18c0.48-0.92,1.36-1.32,2.37-1.32C456.79,289.72,457.94,290.58,457.94,292.33z"/>
	<path class="st0" d="M464.38,296.41c-0.45,0.38-1.11,0.6-1.86,0.6c-1.2,0-2.13-0.55-2.14-1.99v-3.98h-1.33v-1.18h1.33v-1.64
		l1.5-0.42v2.06h2.45v1.18h-2.45v3.73c0,0.69,0.41,1,1.02,1c0.48,0,0.83-0.17,1.13-0.45L464.38,296.41z"/>
	<path class="st0" d="M163.44,311.54l1.01-0.87c0.36,0.84,1.19,1.16,2.17,1.16c0.99,0,1.5-0.36,1.5-0.84c0-0.43-0.41-0.69-1.62-0.92
		c-2.09-0.39-2.82-0.99-2.82-2.17c0-1.13,1.06-2.17,2.94-2.17c1.56,0,2.44,0.5,2.94,1.58l-1.06,0.78c-0.35-0.84-0.95-1.19-1.86-1.19
		c-0.87,0-1.46,0.42-1.46,0.85c0,0.5,0.41,0.77,1.72,1.01c2,0.36,2.72,0.97,2.72,2.13c0,1.23-1.12,2.11-3.05,2.11
		C165.21,313.01,164.03,312.56,163.44,311.54z"/>
	<path class="st0" d="M177.73,311.83l-0.1,1.01c-0.22,0.1-0.52,0.17-0.87,0.17c-0.76,0-1.27-0.28-1.43-1.05
		c-0.43,0.67-1.33,1.05-2.37,1.05c-1.32,0-2.28-0.62-2.28-1.83c0-1.08,0.9-1.88,2.73-2.2l1.78-0.32v-0.36
		c0-0.84-0.52-1.39-1.43-1.39c-0.87,0-1.51,0.38-1.81,1.26l-1.16-0.62c0.34-1.11,1.42-1.82,2.94-1.82c1.75,0,2.96,0.8,2.96,2.48
		v3.17c0,0.35,0.14,0.52,0.52,0.52C177.39,311.89,177.57,311.87,177.73,311.83z M175.19,310.54v-0.84l-1.53,0.31
		c-0.95,0.18-1.43,0.5-1.43,1.06c0,0.52,0.39,0.8,1.05,0.8C174.22,311.87,175.19,311.38,175.19,310.54z"/>
	<path class="st0" d="M183.11,312.41c-0.45,0.38-1.11,0.6-1.86,0.6c-1.2,0-2.13-0.55-2.14-1.99v-3.98h-1.33v-1.18h1.33v-1.64
		l1.5-0.42v2.06h2.45v1.18h-2.45v3.73c0,0.69,0.41,1,1.02,1c0.48,0,0.83-0.17,1.13-0.45L183.11,312.41z"/>
	<path class="st0" d="M183.98,303.75c0-0.59,0.36-0.92,1.01-0.92c0.64,0,0.99,0.34,0.99,0.92c0,0.59-0.35,0.94-0.99,0.94
		C184.34,304.69,183.98,304.34,183.98,303.75z M185.73,312.87h-1.5v-7h1.5V312.87z"/>
	<path class="st0" d="M187.2,311.54l1.01-0.87c0.36,0.84,1.19,1.16,2.17,1.16c0.99,0,1.5-0.36,1.5-0.84c0-0.43-0.41-0.69-1.62-0.92
		c-2.09-0.39-2.82-0.99-2.82-2.17c0-1.13,1.06-2.17,2.94-2.17c1.56,0,2.44,0.5,2.94,1.58l-1.06,0.78c-0.35-0.84-0.95-1.19-1.86-1.19
		c-0.87,0-1.46,0.42-1.46,0.85c0,0.5,0.41,0.77,1.72,1.01c2,0.36,2.72,0.97,2.72,2.13c0,1.23-1.12,2.11-3.05,2.11
		C188.96,313.01,187.79,312.56,187.2,311.54z"/>
	<path class="st0" d="M196.9,305.86h2.27v1.18h-2.23v5.83h-1.5v-5.83h-1.32v-1.18h1.32v-1.01c0-1.41,0.9-2.24,2.45-2.24
		c0.56,0,1.05,0.13,1.32,0.34l-0.28,1.09c-0.21-0.14-0.46-0.21-0.8-0.21c-0.78,0-1.23,0.34-1.23,1.13V305.86z"/>
	<path class="st0" d="M206.45,311.83l-0.1,1.01c-0.22,0.1-0.52,0.17-0.87,0.17c-0.76,0-1.27-0.28-1.43-1.05
		c-0.43,0.67-1.33,1.05-2.37,1.05c-1.32,0-2.28-0.62-2.28-1.83c0-1.08,0.9-1.88,2.73-2.2l1.78-0.32v-0.36
		c0-0.84-0.52-1.39-1.43-1.39c-0.87,0-1.51,0.38-1.81,1.26l-1.16-0.62c0.34-1.11,1.42-1.82,2.94-1.82c1.75,0,2.96,0.8,2.96,2.48
		v3.17c0,0.35,0.14,0.52,0.52,0.52C206.12,311.89,206.3,311.87,206.45,311.83z M203.92,310.54v-0.84l-1.53,0.31
		c-0.95,0.18-1.43,0.5-1.43,1.06c0,0.52,0.39,0.8,1.05,0.8C202.95,311.87,203.92,311.38,203.92,310.54z"/>
	<path class="st0" d="M213.69,307.69l-1.4,0.56c-0.24-0.87-0.77-1.33-1.64-1.33c-1.25,0-1.98,0.88-1.98,2.46
		c0,1.58,0.74,2.44,1.98,2.44c0.97,0,1.54-0.49,1.72-1.36l1.37,0.46c-0.39,1.27-1.44,2.09-3.07,2.09c-2.21,0-3.52-1.36-3.52-3.64
		s1.3-3.64,3.49-3.64C212.35,305.72,213.26,306.54,213.69,307.69z"/>
	<path class="st0" d="M219.75,312.41c-0.45,0.38-1.11,0.6-1.86,0.6c-1.2,0-2.13-0.55-2.14-1.99v-3.98h-1.33v-1.18h1.33v-1.64
		l1.5-0.42v2.06h2.45v1.18h-2.45v3.73c0,0.69,0.41,1,1.02,1c0.48,0,0.83-0.17,1.13-0.45L219.75,312.41z"/>
	<path class="st0" d="M220.62,303.75c0-0.59,0.36-0.92,1.01-0.92c0.64,0,0.99,0.34,0.99,0.92c0,0.59-0.35,0.94-0.99,0.94
		C220.98,304.69,220.62,304.34,220.62,303.75z M222.37,312.87h-1.5v-7h1.5V312.87z"/>
	<path class="st0" d="M231,309.37c0,2.28-1.3,3.64-3.49,3.64c-2.19,0-3.49-1.36-3.49-3.64s1.3-3.64,3.49-3.64
		C229.69,305.72,231,307.08,231,309.37z M225.53,309.37c0,1.58,0.71,2.47,1.98,2.47s1.99-0.88,1.99-2.47s-0.73-2.46-1.99-2.46
		S225.53,307.78,225.53,309.37z"/>
	<path class="st0" d="M239.03,308.33v4.54h-1.5v-4.06c0-1.39-0.64-1.85-1.5-1.85c-0.92,0-1.9,0.59-1.9,2.2v3.71h-1.5v-7h1.33
		l0.07,1.18c0.48-0.92,1.36-1.32,2.37-1.32C237.88,305.72,239.03,306.58,239.03,308.33z"/>
	<path class="st0" d="M251.85,309.37c0,2.28-1.3,3.64-3.49,3.64c-2.19,0-3.49-1.36-3.49-3.64s1.3-3.64,3.49-3.64
		C250.55,305.72,251.85,307.08,251.85,309.37z M246.39,309.37c0,1.58,0.71,2.47,1.98,2.47s1.99-0.88,1.99-2.47s-0.73-2.46-1.99-2.46
		S246.39,307.78,246.39,309.37z"/>
	<path class="st0" d="M255.38,305.86h2.27v1.18h-2.23v5.83h-1.5v-5.83h-1.32v-1.18h1.32v-1.01c0-1.41,0.9-2.24,2.45-2.24
		c0.56,0,1.05,0.13,1.32,0.34l-0.28,1.09c-0.21-0.14-0.46-0.21-0.8-0.21c-0.78,0-1.23,0.34-1.23,1.13V305.86z"/>
	<path class="st0" d="M268.36,305.86l-2.79,7h-1.64l-2.8-7h1.65l1.98,5.79l2.03-5.79H268.36z"/>
	<path class="st0" d="M269.1,303.75c0-0.59,0.36-0.92,1.01-0.92c0.64,0,0.99,0.34,0.99,0.92c0,0.59-0.35,0.94-0.99,0.94
		C269.46,304.69,269.1,304.34,269.1,303.75z M270.85,312.87h-1.5v-7h1.5V312.87z"/>
	<path class="st0" d="M272.32,311.54l1.01-0.87c0.36,0.84,1.19,1.16,2.17,1.16c0.99,0,1.5-0.36,1.5-0.84c0-0.43-0.41-0.69-1.62-0.92
		c-2.09-0.39-2.82-0.99-2.82-2.17c0-1.13,1.06-2.17,2.94-2.17c1.56,0,2.44,0.5,2.94,1.58l-1.06,0.78c-0.35-0.84-0.95-1.19-1.86-1.19
		c-0.87,0-1.46,0.42-1.46,0.85c0,0.5,0.41,0.77,1.72,1.01c2,0.36,2.72,0.97,2.72,2.13c0,1.23-1.12,2.11-3.05,2.11
		C274.08,313.01,272.91,312.56,272.32,311.54z"/>
	<path class="st0" d="M279.78,303.75c0-0.59,0.36-0.92,1.01-0.92c0.64,0,0.99,0.34,0.99,0.92c0,0.59-0.35,0.94-0.99,0.94
		C280.15,304.69,279.78,304.34,279.78,303.75z M281.53,312.87h-1.5v-7h1.5V312.87z"/>
	<path class="st0" d="M290.45,309.38c0,2.28-1.19,3.63-3.1,3.63c-1.12,0-1.98-0.57-2.38-1.43l-0.07,1.29h-1.32v-10.16h1.5V307
		c0.42-0.77,1.22-1.27,2.25-1.27C289.25,305.72,290.45,307.08,290.45,309.38z M288.95,309.37c0-1.53-0.73-2.42-1.93-2.42
		c-1.18,0-1.93,0.88-1.93,2.34v0.17c0,1.47,0.76,2.35,1.93,2.35C288.23,311.8,288.95,310.89,288.95,309.37z"/>
	<path class="st0" d="M293.57,310.82c0,0.69,0.17,0.92,0.73,0.92c0.35,0,0.56-0.04,0.92-0.18l-0.17,1.21
		c-0.31,0.15-0.76,0.24-1.16,0.24c-1.25,0-1.82-0.62-1.82-1.97v-8.32h1.5V310.82z"/>
	<path class="st0" d="M302.41,309.93h-5.13c0.17,1.23,0.9,1.89,2.03,1.89c0.92,0,1.54-0.34,1.77-0.95l1.25,0.52
		c-0.5,1.04-1.47,1.62-3.01,1.62c-2.21,0-3.52-1.36-3.52-3.64s1.23-3.64,3.42-3.64c2.1,0,3.25,1.4,3.25,3.43
		C302.46,309.42,302.44,309.74,302.41,309.93z M297.3,308.78h3.77c-0.14-1.18-0.8-1.86-1.85-1.86
		C298.11,306.92,297.45,307.57,297.3,308.78z"/>
	<path class="st0" d="M310.09,305.86h2.27v1.18h-2.23v5.83h-1.5v-5.83h-1.32v-1.18h1.32v-1.01c0-1.41,0.9-2.24,2.45-2.24
		c0.56,0,1.05,0.13,1.32,0.34l-0.28,1.09c-0.21-0.14-0.46-0.21-0.8-0.21c-0.78,0-1.23,0.34-1.23,1.13V305.86z"/>
	<path class="st0" d="M319.64,311.83l-0.1,1.01c-0.22,0.1-0.52,0.17-0.87,0.17c-0.76,0-1.27-0.28-1.43-1.05
		c-0.43,0.67-1.33,1.05-2.37,1.05c-1.32,0-2.28-0.62-2.28-1.83c0-1.08,0.9-1.88,2.73-2.2l1.78-0.32v-0.36
		c0-0.84-0.52-1.39-1.43-1.39c-0.87,0-1.51,0.38-1.81,1.26l-1.16-0.62c0.34-1.11,1.42-1.82,2.94-1.82c1.75,0,2.96,0.8,2.96,2.48
		v3.17c0,0.35,0.14,0.52,0.52,0.52C319.31,311.89,319.49,311.87,319.64,311.83z M317.11,310.54v-0.84l-1.53,0.31
		c-0.95,0.18-1.43,0.5-1.43,1.06c0,0.52,0.39,0.8,1.05,0.8C316.14,311.87,317.11,311.38,317.11,310.54z"/>
	<path class="st0" d="M325.03,312.41c-0.45,0.38-1.11,0.6-1.86,0.6c-1.2,0-2.13-0.55-2.14-1.99v-3.98h-1.33v-1.18h1.33v-1.64
		l1.5-0.42v2.06h2.45v1.18h-2.45v3.73c0,0.69,0.41,1,1.02,1c0.48,0,0.83-0.17,1.13-0.45L325.03,312.41z"/>
	<path class="st0" d="M334.8,305.86l-0.24,1.37c-0.2-0.11-0.5-0.18-0.88-0.18c-0.84,0-1.76,0.67-1.76,2.1v3.71h-1.5v-7h1.27
		l0.14,1.25c0.38-0.91,1.12-1.39,2.2-1.39C334.31,305.72,334.61,305.77,334.8,305.86z"/>
	<path class="st0" d="M341.96,309.93h-5.13c0.17,1.23,0.9,1.89,2.03,1.89c0.92,0,1.54-0.34,1.76-0.95l1.25,0.52
		c-0.5,1.04-1.47,1.62-3.01,1.62c-2.21,0-3.52-1.36-3.52-3.64s1.23-3.64,3.42-3.64c2.1,0,3.25,1.4,3.25,3.43
		C342.01,309.42,341.99,309.74,341.96,309.93z M336.85,308.78h3.77c-0.14-1.18-0.8-1.86-1.85-1.86
		C337.66,306.92,337,307.57,336.85,308.78z"/>
	<path class="st0" d="M350.09,302.71v10.16h-1.32l-0.08-1.26c-0.41,0.83-1.26,1.4-2.37,1.4c-1.9,0-3.09-1.34-3.09-3.63
		c0-2.3,1.2-3.66,3.11-3.66c1.04,0,1.83,0.5,2.25,1.27v-4.29H350.09z M348.59,309.45v-0.17c0-1.46-0.76-2.34-1.93-2.34
		c-1.21,0-1.93,0.9-1.93,2.42c0,1.53,0.73,2.44,1.93,2.44C347.84,311.8,348.59,310.92,348.59,309.45z"/>
	<path class="st0" d="M358.48,305.86v7h-1.33l-0.07-1.13c-0.48,0.88-1.34,1.27-2.48,1.27c-1.4,0-2.52-0.71-2.52-2.54v-4.61h1.5v4.22
		c0,1.3,0.56,1.69,1.44,1.69c1.06,0,1.96-0.64,1.96-2.13v-3.78H358.48z"/>
	<path class="st0" d="M366.64,307.69l-1.4,0.56c-0.24-0.87-0.77-1.33-1.64-1.33c-1.25,0-1.97,0.88-1.97,2.46
		c0,1.58,0.74,2.44,1.97,2.44c0.97,0,1.54-0.49,1.72-1.36l1.37,0.46c-0.39,1.27-1.44,2.09-3.07,2.09c-2.21,0-3.52-1.36-3.52-3.64
		s1.3-3.64,3.49-3.64C365.3,305.72,366.21,306.54,366.64,307.69z"/>
	<path class="st0" d="M372.7,312.41c-0.45,0.38-1.11,0.6-1.86,0.6c-1.2,0-2.13-0.55-2.14-1.99v-3.98h-1.33v-1.18h1.33v-1.64
		l1.5-0.42v2.06h2.45v1.18h-2.45v3.73c0,0.69,0.41,1,1.02,1c0.48,0,0.83-0.17,1.13-0.45L372.7,312.41z"/>
	<path class="st0" d="M373.57,303.75c0-0.59,0.36-0.92,1.01-0.92c0.64,0,1,0.34,1,0.92c0,0.59-0.35,0.94-1,0.94
		C373.93,304.69,373.57,304.34,373.57,303.75z M375.32,312.87h-1.5v-7h1.5V312.87z"/>
	<path class="st0" d="M383.95,309.37c0,2.28-1.3,3.64-3.49,3.64s-3.49-1.36-3.49-3.64s1.3-3.64,3.49-3.64
		S383.95,307.08,383.95,309.37z M378.48,309.37c0,1.58,0.71,2.47,1.98,2.47s1.99-0.88,1.99-2.47s-0.73-2.46-1.99-2.46
		S378.48,307.78,378.48,309.37z"/>
	<path class="st0" d="M391.98,308.33v4.54h-1.5v-4.06c0-1.39-0.64-1.85-1.5-1.85c-0.92,0-1.9,0.59-1.9,2.2v3.71h-1.5v-7h1.33
		l0.07,1.18c0.48-0.92,1.36-1.32,2.37-1.32C390.83,305.72,391.98,306.58,391.98,308.33z"/>
	<path class="st0" d="M395.77,311.99c0,0.62-0.41,1.02-1.05,1.02s-1.06-0.41-1.06-1.02s0.42-1.01,1.06-1.01
		S395.77,311.37,395.77,311.99z"/>
	<path class="st0" d="M405.36,303.19c-1.76,1.61-2.42,3.25-2.42,5.79c0,2.54,0.66,4.16,2.42,5.77l-0.78,0.78
		c-2.03-1.64-3.08-3.85-3.08-6.56c0-2.72,1.05-4.93,3.08-6.57L405.36,303.19z"/>
	<path class="st0" d="M412.56,308.33v4.54h-1.5v-4.06c0-1.39-0.64-1.85-1.5-1.85c-0.92,0-1.91,0.59-1.91,2.2v3.71h-1.5v-7h1.33
		l0.07,1.18c0.48-0.92,1.36-1.32,2.37-1.32C411.41,305.72,412.56,306.58,412.56,308.33z"/>
	<path class="st0" d="M420.95,307.74h-6.67v-1.23h6.67V307.74z M420.95,310.61h-6.67v-1.23h6.67V310.61z"/>
	<path class="st0" d="M429.38,308.26c0,3.17-1.32,4.75-3.67,4.75c-1.7,0-2.72-0.7-3.26-2.07l1.41-0.66
		c0.27,0.87,0.64,1.44,1.85,1.44c1.71,0,2.3-1.4,2.3-3.64v-0.15h-0.06c-0.28,1.18-1.43,1.58-2.47,1.58c-1.79,0-3.07-1.16-3.07-2.98
		c0-1.88,1.26-3.04,3.31-3.04C428.09,303.48,429.38,305.35,429.38,308.26z M423.91,306.54c0,1.05,0.66,1.69,1.81,1.69
		c1.08,0,1.81-0.69,1.81-1.69c0-1.05-0.73-1.74-1.81-1.74C424.57,304.8,423.91,305.44,423.91,306.54z"/>
	<path class="st0" d="M437.65,305.46l-1.32,0.63c-0.25-0.81-0.8-1.3-1.79-1.3c-1.36,0-2.28,1.51-2.28,3.56v0.25h0.06
		c0.31-1.08,1.42-1.55,2.44-1.55c1.83,0,3.08,1.15,3.08,2.96c0,1.85-1.26,3.01-3.29,3.01c-2.37,0-3.66-1.89-3.66-4.76
		c0-3.15,1.61-4.76,3.74-4.76C436.11,303.48,437.1,304.04,437.65,305.46z M432.73,309.98c0,1.05,0.71,1.74,1.81,1.74
		c1.15,0,1.81-0.64,1.81-1.74c0-1.05-0.66-1.69-1.81-1.69C433.45,308.29,432.73,308.97,432.73,309.98z"/>
	<path class="st0" d="M442.24,308.97c0,2.7-1.05,4.92-3.08,6.56l-0.78-0.78c1.76-1.61,2.42-3.24,2.42-5.77
		c0-2.54-0.66-4.17-2.42-5.79l0.78-0.78C441.19,304.04,442.24,306.26,442.24,308.97z"/>
	<path class="st1" d="M445.81,311.99c0,0.62-0.41,1.02-1.05,1.02s-1.06-0.41-1.06-1.02s0.42-1.01,1.06-1.01
		S445.81,311.37,445.81,311.99z"/>
</g>
</svg>
