<?xml version="1.0" encoding="utf-8"?>
<!-- Generator: Adobe Illustrator 25.4.1, SVG Export Plug-In . SVG Version: 6.00 Build 0)  -->
<svg version="1.1" id="Layer_1" xmlns="http://www.w3.org/2000/svg" xmlns:xlink="http://www.w3.org/1999/xlink" x="0px" y="0px"
	 viewBox="0 0 600 500" style="enable-background:new 0 0 600 500;" xml:space="preserve">
<style type="text/css">
	.st0{fill:#FFFFFF;}
</style>
<g>
	<g>
		<g>
			<g>
				<g>
					<path class="st0" d="M-385.96,48.56c0,0.59-0.47,1.05-1.07,1.05c-0.6,0-1.08-0.47-1.08-1.05c0-0.59,0.48-1.05,1.08-1.05
						C-386.43,47.51-385.96,47.97-385.96,48.56z M-387.84,48.56c0,0.46,0.35,0.84,0.82,0.84c0.45,0.01,0.8-0.37,0.8-0.83
						c0-0.46-0.34-0.84-0.81-0.84C-387.49,47.72-387.84,48.1-387.84,48.56z M-387.19,49.1h-0.24v-1.05c0.09-0.01,0.23-0.03,0.4-0.03
						c0.2,0,0.29,0.03,0.36,0.08c0.06,0.04,0.11,0.12,0.11,0.22c0,0.13-0.1,0.21-0.22,0.25v0.01c0.1,0.03,0.15,0.11,0.18,0.25
						c0.03,0.16,0.06,0.22,0.08,0.25h-0.26c-0.03-0.04-0.05-0.13-0.08-0.25c-0.02-0.11-0.08-0.16-0.22-0.16h-0.11V49.1z
						 M-387.19,48.52h0.11c0.13,0,0.24-0.04,0.24-0.15c0-0.1-0.07-0.16-0.22-0.16c-0.06,0-0.11,0.01-0.13,0.01V48.52z"/>
				</g>
			</g>
		</g>
		<path class="st0" d="M-370.3,44.92c-5.21,0-7.71-3.8-7.71-7.44c0-4.21,3.03-7.59,7.8-7.59c1.62,0,3.3,0.5,4.62,1.62l-1.47,2.06
			c-0.91-0.71-1.88-0.97-3.06-0.97c-2.53,0-4.41,1.76-4.41,4.8c0,2.77,1.74,4.97,4.5,4.97c1.18,0,2.21-0.35,3.12-1.15l1.35,2.06
			C-366.86,44.39-368.63,44.92-370.3,44.92"/>
		<path class="st0" d="M-357.56,44.92c-4.36,0-7.56-3.29-7.56-7.59c0-4.41,3.5-7.44,7.56-7.44c4.06,0,7.59,3,7.59,7.41
			C-349.97,41.63-353.18,44.92-357.56,44.92 M-353.47,37.33c0-2.65-1.3-4.94-4.09-4.94c-2.74,0-4.09,2.29-4.09,4.91
			c0,2.71,1.27,5.12,4.09,5.12c2.82,0,4.09-2.39,4.09-5.12V37.33z"/>
		<path class="st0" d="M-341.14,44.92c-4.36,0-7.56-3.29-7.56-7.59c0-4.41,3.5-7.44,7.56-7.44c4.06,0,7.59,3,7.59,7.41
			C-333.55,41.63-336.76,44.92-341.14,44.92 M-337.05,37.33c0-2.65-1.29-4.94-4.09-4.94c-2.74,0-4.09,2.29-4.09,4.91
			c0,2.71,1.27,5.12,4.09,5.12c2.82,0,4.09-2.39,4.09-5.12V37.33z"/>
		<polygon class="st0" points="-331.84,44.57 -331.84,23.5 -328.58,25.3 -328.58,44.57 		"/>
		<path class="st0" d="M-321.04,45.01c-3.68,0-5.45-1.77-5.45-1.77l1.47-1.91c0,0,1.68,1.12,3.88,1.12c1.06,0,1.94-0.74,1.94-1.47
			c0-0.74-0.32-1.36-1.3-1.85c-0.97-0.5-2.06-1.03-2.91-1.44c-0.85-0.41-2.74-1.68-2.74-4.15c0-2.5,2.53-3.88,5.12-3.88
			c2.47,0,4.36,1.62,4.36,1.62l-1.27,1.94c0,0-1.41-1-2.97-1c-1.56,0-1.88,1-1.88,1.41c0,0.41,0.15,1.06,1.15,1.59
			c1,0.53,2.03,1.09,3.5,1.92c1.47,0.82,2.29,2.23,2.29,3.82C-315.83,42.54-317.36,45.01-321.04,45.01"/>
		<path class="st0" d="M-307,44.92c-5.21,0-7.71-3.8-7.71-7.44c0-4.21,3.03-7.59,7.8-7.59c1.62,0,3.3,0.5,4.62,1.62l-1.47,2.06
			c-0.91-0.71-1.88-0.97-3.06-0.97c-2.53,0-4.41,1.76-4.41,4.8c0,2.77,1.74,4.97,4.5,4.97c1.18,0,2.21-0.35,3.12-1.15l1.35,2.06
			C-303.56,44.39-305.33,44.92-307,44.92"/>
		<path class="st0" d="M-290.91,42.89c0,0-1.65,2.03-4.77,2.03c-3.68,0-5.47-2.68-5.47-5.38v-9.33h3.27v9.18
			c0,1.59,1.24,2.91,3.15,2.91c1.68,0,3.33-2,3.33-2V30.21h3.27v14.33L-290.91,42.89z"/>
		<polygon class="st0" points="-285.23,44.57 -285.23,23.5 -281.96,25.3 -281.96,44.57 		"/>
		<path class="st0" d="M-271.16,44.92c-2.88,0-4.53-1.62-4.53-1.62v7.15h-3.3V29.92l3.3,1.73c0,0,1.77-1.79,4.71-1.79
			c3.09,0,6.94,2.38,6.94,7.71C-264.04,42.89-267.84,44.92-271.16,44.92 M-271.37,32.39c-2.8,0-4.41,2.62-4.41,2.62v5.41
			c0,0,1.85,2.09,4.53,2.09c3.12,0,3.8-3.74,3.8-5.03C-267.45,36.18-267.75,32.39-271.37,32.39"/>
		<path class="st0" d="M-255.45,44.95h-2.06c-2.59,0-3.47-2.5-3.47-4.15v-8.45h-2.59v-2.15h2.59v-6.33h3.24v6.33h3.33v2.15h-3.3
			v7.65c0,0.85-0.15,2.21,1.3,2.21h2.36L-255.45,44.95z"/>
		<path class="st0" d="M-250.21,27.73c-1.17,0-2.15-0.97-2.15-2.15c0-1.18,0.97-2.15,2.15-2.15c1.18,0,2.15,0.97,2.15,2.15
			C-248.06,26.77-249.03,27.73-250.21,27.73 M-251.83,30.21h3.21v14.36h-3.21V30.21z"/>
		<path class="st0" d="M-235.67,44.57v-9.18c0-1.59-1.24-2.91-3.15-2.91c-1.68,0-3.56,2-3.56,2v10.1h-3.27V30.24l2.77,1.65
			c0,0,1.88-2.03,5-2.03c3.68,0,5.47,2.68,5.47,5.38v9.33H-235.67z"/>
		<path class="st0" d="M-222.43,51.25c-0.5,0-4.33-0.06-4.33-0.06l0.06-2.62h3.22c3.12,0,4.88-1.68,4.88-3.97v-1.3
			c0,0-1.71,1.62-4.59,1.62c-3.33,0-7.12-2.03-7.12-7.36c0-5.33,3.86-7.71,6.95-7.71c2.94,0,4.71,1.79,4.71,1.79l3.3-1.65v14.27
			C-215.37,48.13-217.93,51.25-222.43,51.25 M-218.57,35.01c0,0-1.62-2.62-4.41-2.62c-3.62,0-3.91,3.79-3.91,5.09
			c0,1.29,0.67,5.03,3.8,5.03c2.68,0,4.53-2.09,4.53-2.09V35.01z"/>
		<polygon class="st0" points="-407.26,55.46 -407.26,46.08 -405.42,44.23 -400.1,49.55 -400.1,51.33 		"/>
		<polygon class="st0" points="-411.09,38.04 -417.1,44.05 -409.74,46.82 -400.96,38.04 		"/>
		<polygon class="st0" points="-408.12,29.65 -415.87,29.65 -413.39,36.81 -400.96,36.81 		"/>
		<polygon class="st0" points="-400.09,25.82 -406.07,19.84 -408.87,27.16 -400.09,35.95 		"/>
		<polygon class="st0" points="-381.99,45.2 -390.84,45.2 -398,38.04 -385.58,38.04 		"/>
		<polygon class="st0" points="-389.22,28.03 -381.18,30.13 -387.87,36.82 -398,36.82 		"/>
		<polygon class="st0" points="-398.87,23.52 -391.71,19.27 -391.71,28.78 -398.87,35.95 		"/>
		<polygon class="st0" points="-389.75,48.03 -392.05,55.87 -404.55,43.36 -399.49,38.3 		"/>
		<g>
			<path class="st0" d="M-210.49,31.18c0,0.85-0.69,1.52-1.55,1.52c-0.87,0-1.56-0.67-1.56-1.52c0-0.85,0.69-1.52,1.57-1.52
				C-211.17,29.67-210.49,30.33-210.49,31.18z M-213.21,31.18c0,0.67,0.51,1.21,1.19,1.21c0.65,0.01,1.15-0.54,1.15-1.2
				c0-0.67-0.5-1.22-1.17-1.22C-212.7,29.97-213.21,30.52-213.21,31.18z M-212.28,31.97h-0.35v-1.52c0.14-0.02,0.33-0.05,0.58-0.05
				c0.29,0,0.42,0.05,0.52,0.12c0.09,0.07,0.16,0.18,0.16,0.32c0,0.19-0.14,0.3-0.31,0.36v0.02c0.15,0.05,0.22,0.17,0.27,0.37
				c0.05,0.23,0.08,0.32,0.11,0.37h-0.37c-0.05-0.05-0.07-0.19-0.12-0.37c-0.03-0.15-0.12-0.23-0.31-0.23h-0.17V31.97z
				 M-212.27,31.12h0.17c0.2,0,0.35-0.06,0.35-0.22c0-0.14-0.1-0.23-0.32-0.23c-0.09,0-0.16,0.01-0.2,0.02V31.12z"/>
		</g>
	</g>
</g>
<g>
	<g>
		<g>
			<g>
				<g>
					<path class="st0" d="M234.04,48.56c0,0.59-0.47,1.05-1.07,1.05c-0.6,0-1.08-0.47-1.08-1.05c0-0.59,0.48-1.05,1.08-1.05
						C233.57,47.51,234.04,47.97,234.04,48.56z M232.16,48.56c0,0.46,0.35,0.84,0.82,0.84c0.45,0.01,0.8-0.37,0.8-0.83
						c0-0.46-0.34-0.84-0.81-0.84C232.51,47.72,232.16,48.1,232.16,48.56z M232.81,49.1h-0.24v-1.05c0.09-0.01,0.23-0.03,0.4-0.03
						c0.2,0,0.29,0.03,0.36,0.08c0.06,0.04,0.11,0.12,0.11,0.22c0,0.13-0.1,0.21-0.22,0.25v0.01c0.1,0.03,0.15,0.11,0.18,0.25
						c0.03,0.16,0.06,0.22,0.08,0.25h-0.26c-0.03-0.04-0.05-0.13-0.08-0.25c-0.02-0.11-0.08-0.16-0.22-0.16h-0.11V49.1z
						 M232.81,48.52h0.11c0.13,0,0.24-0.04,0.24-0.15c0-0.1-0.07-0.16-0.22-0.16c-0.06,0-0.11,0.01-0.13,0.01V48.52z"/>
				</g>
			</g>
		</g>
		<path class="st0" d="M249.7,44.92c-5.21,0-7.71-3.8-7.71-7.44c0-4.21,3.03-7.59,7.8-7.59c1.62,0,3.3,0.5,4.62,1.62l-1.47,2.06
			c-0.91-0.71-1.88-0.97-3.06-0.97c-2.53,0-4.41,1.76-4.41,4.8c0,2.77,1.74,4.97,4.5,4.97c1.18,0,2.21-0.35,3.12-1.15l1.35,2.06
			C253.14,44.39,251.37,44.92,249.7,44.92"/>
		<path class="st0" d="M262.44,44.92c-4.36,0-7.56-3.29-7.56-7.59c0-4.41,3.5-7.44,7.56-7.44c4.06,0,7.59,3,7.59,7.41
			C270.03,41.63,266.82,44.92,262.44,44.92 M266.53,37.33c0-2.65-1.3-4.94-4.09-4.94c-2.74,0-4.09,2.29-4.09,4.91
			c0,2.71,1.27,5.12,4.09,5.12c2.82,0,4.09-2.39,4.09-5.12V37.33z"/>
		<path class="st0" d="M278.86,44.92c-4.36,0-7.56-3.29-7.56-7.59c0-4.41,3.5-7.44,7.56-7.44c4.06,0,7.59,3,7.59,7.41
			C286.45,41.63,283.24,44.92,278.86,44.92 M282.95,37.33c0-2.65-1.29-4.94-4.09-4.94c-2.74,0-4.09,2.29-4.09,4.91
			c0,2.71,1.27,5.12,4.09,5.12c2.82,0,4.09-2.39,4.09-5.12V37.33z"/>
		<polygon class="st0" points="288.16,44.57 288.16,23.5 291.42,25.3 291.42,44.57 		"/>
		<path class="st0" d="M298.96,45.01c-3.68,0-5.45-1.77-5.45-1.77l1.47-1.91c0,0,1.68,1.12,3.88,1.12c1.06,0,1.94-0.74,1.94-1.47
			c0-0.74-0.32-1.36-1.3-1.85c-0.97-0.5-2.06-1.03-2.91-1.44c-0.85-0.41-2.74-1.68-2.74-4.15c0-2.5,2.53-3.88,5.12-3.88
			c2.47,0,4.36,1.62,4.36,1.62l-1.27,1.94c0,0-1.41-1-2.97-1c-1.56,0-1.88,1-1.88,1.41c0,0.41,0.15,1.06,1.15,1.59
			c1,0.53,2.03,1.09,3.5,1.92c1.47,0.82,2.29,2.23,2.29,3.82C304.17,42.54,302.64,45.01,298.96,45.01"/>
		<path class="st0" d="M313,44.92c-5.21,0-7.71-3.8-7.71-7.44c0-4.21,3.03-7.59,7.8-7.59c1.62,0,3.3,0.5,4.62,1.62l-1.47,2.06
			c-0.91-0.71-1.88-0.97-3.06-0.97c-2.53,0-4.41,1.76-4.41,4.8c0,2.77,1.74,4.97,4.5,4.97c1.18,0,2.21-0.35,3.12-1.15l1.35,2.06
			C316.44,44.39,314.67,44.92,313,44.92"/>
		<path class="st0" d="M329.09,42.89c0,0-1.65,2.03-4.77,2.03c-3.68,0-5.47-2.68-5.47-5.38v-9.33h3.27v9.18
			c0,1.59,1.24,2.91,3.15,2.91c1.68,0,3.33-2,3.33-2V30.21h3.27v14.33L329.09,42.89z"/>
		<polygon class="st0" points="334.77,44.57 334.77,23.5 338.04,25.3 338.04,44.57 		"/>
		<path class="st0" d="M348.84,44.92c-2.88,0-4.53-1.62-4.53-1.62v7.15h-3.3V29.92l3.3,1.73c0,0,1.77-1.79,4.71-1.79
			c3.09,0,6.94,2.38,6.94,7.71C355.96,42.89,352.16,44.92,348.84,44.92 M348.63,32.39c-2.8,0-4.41,2.62-4.41,2.62v5.41
			c0,0,1.85,2.09,4.53,2.09c3.12,0,3.8-3.74,3.8-5.03C352.55,36.18,352.25,32.39,348.63,32.39"/>
		<path class="st0" d="M364.55,44.95h-2.06c-2.59,0-3.47-2.5-3.47-4.15v-8.45h-2.59v-2.15h2.59v-6.33h3.24v6.33h3.33v2.15h-3.3v7.65
			c0,0.85-0.15,2.21,1.3,2.21h2.36L364.55,44.95z"/>
		<path class="st0" d="M369.79,27.73c-1.17,0-2.15-0.97-2.15-2.15c0-1.18,0.97-2.15,2.15-2.15c1.18,0,2.15,0.97,2.15,2.15
			C371.94,26.77,370.97,27.73,369.79,27.73 M368.17,30.21h3.21v14.36h-3.21V30.21z"/>
		<path class="st0" d="M384.33,44.57v-9.18c0-1.59-1.24-2.91-3.15-2.91c-1.68,0-3.56,2-3.56,2v10.1h-3.27V30.24l2.77,1.65
			c0,0,1.88-2.03,5-2.03c3.68,0,5.47,2.68,5.47,5.38v9.33H384.33z"/>
		<path class="st0" d="M397.57,51.25c-0.5,0-4.33-0.06-4.33-0.06l0.06-2.62h3.22c3.12,0,4.88-1.68,4.88-3.97v-1.3
			c0,0-1.71,1.62-4.59,1.62c-3.33,0-7.12-2.03-7.12-7.36c0-5.33,3.86-7.71,6.95-7.71c2.94,0,4.71,1.79,4.71,1.79l3.3-1.65v14.27
			C404.63,48.13,402.07,51.25,397.57,51.25 M401.43,35.01c0,0-1.62-2.62-4.41-2.62c-3.62,0-3.91,3.79-3.91,5.09
			c0,1.29,0.67,5.03,3.8,5.03c2.68,0,4.53-2.09,4.53-2.09V35.01z"/>
		<polygon class="st0" points="212.74,55.46 212.74,46.08 214.58,44.23 219.9,49.55 219.9,51.33 		"/>
		<polygon class="st0" points="208.91,38.04 202.9,44.05 210.26,46.82 219.04,38.04 		"/>
		<polygon class="st0" points="211.88,29.65 204.13,29.65 206.61,36.81 219.04,36.81 		"/>
		<polygon class="st0" points="219.91,25.82 213.93,19.84 211.13,27.16 219.91,35.95 		"/>
		<polygon class="st0" points="238.01,45.2 229.16,45.2 222,38.04 234.42,38.04 		"/>
		<polygon class="st0" points="230.78,28.03 238.82,30.13 232.13,36.82 222,36.82 		"/>
		<polygon class="st0" points="221.13,23.52 228.29,19.27 228.29,28.78 221.13,35.95 		"/>
		<polygon class="st0" points="230.25,48.03 227.95,55.87 215.45,43.36 220.51,38.3 		"/>
		<g>
			<path class="st0" d="M409.51,31.18c0,0.85-0.69,1.52-1.55,1.52c-0.87,0-1.56-0.67-1.56-1.52c0-0.85,0.69-1.52,1.57-1.52
				C408.83,29.67,409.51,30.33,409.51,31.18z M406.79,31.18c0,0.67,0.51,1.21,1.19,1.21c0.65,0.01,1.15-0.54,1.15-1.2
				c0-0.67-0.5-1.22-1.17-1.22C407.3,29.97,406.79,30.52,406.79,31.18z M407.72,31.97h-0.35v-1.52c0.14-0.02,0.33-0.05,0.58-0.05
				c0.29,0,0.42,0.05,0.52,0.12c0.09,0.07,0.16,0.18,0.16,0.32c0,0.19-0.14,0.3-0.31,0.36v0.02c0.15,0.05,0.22,0.17,0.27,0.37
				c0.05,0.23,0.08,0.32,0.11,0.37h-0.37c-0.05-0.05-0.07-0.19-0.12-0.37c-0.03-0.15-0.12-0.23-0.31-0.23h-0.17V31.97z
				 M407.73,31.12h0.17c0.2,0,0.35-0.06,0.35-0.22c0-0.14-0.1-0.23-0.32-0.23c-0.09,0-0.16,0.01-0.2,0.02V31.12z"/>
		</g>
	</g>
</g>
</svg>
