<svg id="Layer_1" xmlns="http://www.w3.org/2000/svg" viewBox="0 0 500 281"><style>.st0{fill:#eaf5fb}</style><path class="st0" d="M21.8 95.79v-4.84h2.32v4.4c0 2.28.64 3.2 2.24 3.2 1.64 0 2.28-.92 2.28-3.2v-4.16c0-1.88-.52-2.8-1.88-3.68l-2.12-1.36c-2.04-1.32-2.84-2.84-2.84-5.53v-3.56c0-3.04 1.64-4.76 4.48-4.76s4.48 1.72 4.48 4.76v3.56h-2.32v-3.16c0-2.16-.6-3-2.12-3s-2.12.84-2.12 3v3c0 1.88.52 2.8 1.88 3.68l2.12 1.36c2.04 1.32 2.84 2.84 2.84 5.53v4.76c0 3.16-1.72 4.92-4.64 4.92s-4.6-1.76-4.6-4.92zM37.69 74.77h-3.36v-2.08h9.13v2.08H40.1v25.54h-2.4V74.77zM47.38 72.69h4.44c3.2 0 4.72 1.64 4.72 5v3.52c0 2.24-.72 3.6-2.16 4.24v.08c1.44.64 2.16 2 2.16 4.28v10.49h-2.4V89.98c0-2.56-.72-3.32-3-3.32h-1.36v13.65h-2.4V72.69zm4.16 11.89c2 0 2.6-.76 2.6-3.32V78.1c0-2.56-.6-3.32-2.6-3.32h-1.76v9.81h1.76zM61.23 72.69h7.93v2.08h-5.53v9.65h4.8v2.08h-4.8v11.73h5.53v2.08h-7.93V72.69zM73.25 72.69h3.12l4.36 20.22h.08V72.69h2.16v27.63h-2.6l-4.88-22.78h-.08v22.78h-2.16V72.69zM87.7 96.39V77.25c0-3.16 1.72-4.96 4.6-4.96 2.92 0 4.56 1.8 4.56 4.96v3.04h-2.28v-2.6c0-2.32-.64-3.24-2.24-3.24-1.64 0-2.24.92-2.24 3.24v18.42c0 1.64.6 2.44 1.92 2.44 1.64 0 2.56-1.24 2.56-3.48v-7.93h-2.24v-2.08h4.64v15.25h-2.04v-1.96h-.12c-.64 1.52-1.8 2.36-3.44 2.36-2.32 0-3.68-1.64-3.68-4.32zM103.91 74.77h-3.36v-2.08h9.13v2.08h-3.36v25.54h-2.4V74.77zM113.6 72.69h2.4v11.73h4.52V72.69h2.4v27.63h-2.4V86.5H116v13.81h-2.4V72.69zM127.82 72.69h7.93v2.08h-5.53v9.65h4.8v2.08h-4.8v11.73h5.53v2.08h-7.93V72.69zM139.83 72.69h3.12l4.36 20.22h.08V72.69h2.16v27.63h-2.6l-4.88-22.78h-.08v22.78h-2.16V72.69zM155.36 100.31h-.96v-3.28h2.72v2.88l-1.76 4.44h-1.4l1.4-4.04zM171.22 74.77h-3.36v-2.08h9.13v2.08h-3.36v25.54h-2.4V74.77zM180.43 95.71V77.29c0-3.2 1.72-5 4.64-5s4.64 1.8 4.64 5v18.42c0 3.2-1.72 5-4.64 5s-4.64-1.8-4.64-5zm6.88-.4V77.69c0-2.32-.64-3.24-2.24-3.24-1.64 0-2.24.92-2.24 3.24v17.62c0 2.32.6 3.24 2.24 3.24 1.6 0 2.24-.92 2.24-3.24zM194.44 72.69h3.12l4.36 20.22h.08V72.69h2.16v27.63h-2.6l-4.88-22.78h-.08v22.78h-2.16V72.69zM209.05 72.69h7.93v2.08h-5.53v9.65h4.8v2.08h-4.8v11.73h5.53v2.08h-7.93V72.69zM222.39 100.31h-.96v-3.28h2.72v2.88l-1.76 4.44h-1.4l1.4-4.04zM26.4 111.73h3.16l3.48 27.63H30.6l-.8-6.85h-3.76l-.8 6.85h-2.32l3.48-27.63zm3.16 18.69l-1.6-14.89h-.08l-1.6 14.89h3.28zM37.01 111.73h3.12l4.36 20.22h.08v-20.22h2.16v27.63h-2.6l-4.88-22.78h-.08v22.78h-2.16v-27.63zM51.62 111.73h4.56c3.2 0 4.72 1.64 4.72 5v17.62c0 3.36-1.52 5-4.72 5h-4.56v-27.62zm4.29 25.54c2 0 2.6-.76 2.6-3.32v-16.82c0-2.56-.6-3.32-2.6-3.32h-1.88v23.46h1.88zM72.4 111.73h7.93v2.08H74.8v10.05h4.8v2.08h-4.8v13.41h-2.4v-27.62zM84.26 111.73h2.4v27.63h-2.4v-27.63zM91.54 111.73h4.44c3.2 0 4.72 1.64 4.72 5v3.52c0 2.24-.72 3.6-2.16 4.24v.08c1.44.64 2.16 2 2.16 4.28v10.49h-2.4v-10.33c0-2.56-.72-3.32-3-3.32h-1.36v13.65h-2.4v-27.61zm4.17 11.89c2 0 2.6-.76 2.6-3.32v-3.16c0-2.56-.6-3.32-2.6-3.32h-1.76v9.81h1.76zM105.4 111.73h3.8l3.08 20.38h.08l3.08-20.38h3.96v27.63H117v-24.7h-.08l-3.72 24.7h-1.88l-3.72-24.7h-.08v24.7h-2.12v-27.63zM131.1 111.73h3.8l3.08 20.38h.08l3.08-20.38h3.96v27.63h-2.4v-24.7h-.08l-3.72 24.7h-1.88l-3.72-24.7h-.08v24.7h-2.12v-27.63zM149.92 134.91v-23.18h2.4v22.74c0 2.24.56 3.12 2.16 3.12s2.16-.88 2.16-3.12v-22.74h2.32v23.18c0 3.08-1.68 4.84-4.52 4.84s-4.52-1.76-4.52-4.84zM163.33 134.83v-4.84h2.32v4.4c0 2.28.64 3.2 2.24 3.2 1.64 0 2.28-.92 2.28-3.2v-4.16c0-1.88-.52-2.8-1.88-3.68l-2.12-1.36c-2.04-1.32-2.84-2.84-2.84-5.53v-3.56c0-3.04 1.64-4.76 4.48-4.76s4.48 1.72 4.48 4.76v3.56h-2.32v-3.16c0-2.16-.6-3-2.12-3s-2.12.84-2.12 3v3c0 1.88.52 2.8 1.88 3.68l2.12 1.36c2.04 1.32 2.84 2.84 2.84 5.53v4.76c0 3.16-1.72 4.92-4.64 4.92s-4.6-1.76-4.6-4.92zM176.78 134.99v-18.9c0-3.04 1.6-4.76 4.48-4.76 2.92 0 4.52 1.72 4.52 4.76v4.52h-2.28v-4.12c0-2.16-.64-3-2.16-3-1.56 0-2.16.84-2.16 3v18.1c0 2.16.6 3 2.16 3 1.52 0 2.16-.84 2.16-3v-5.57h2.28v5.97c0 3.04-1.6 4.76-4.52 4.76-2.88 0-4.48-1.72-4.48-4.76zM190.24 111.73h2.4v25.54h5.12v2.08h-7.53v-27.62zM201.69 111.73h7.93v2.08h-5.53v9.65h4.8v2.08h-4.8v11.73h5.53v2.08h-7.93v-27.62zM213.34 134.83v-4.84h2.32v4.4c0 2.28.64 3.2 2.24 3.2 1.64 0 2.28-.92 2.28-3.2v-4.16c0-1.88-.52-2.8-1.88-3.68l-2.12-1.36c-2.04-1.32-2.84-2.84-2.84-5.53v-3.56c0-3.04 1.64-4.76 4.48-4.76s4.48 1.72 4.48 4.76v3.56h-2.32v-3.16c0-2.16-.6-3-2.12-3s-2.12.84-2.12 3v3c0 1.88.52 2.8 1.88 3.68l2.12 1.36c2.04 1.32 2.84 2.84 2.84 5.53v4.76c0 3.16-1.72 4.92-4.64 4.92s-4.6-1.76-4.6-4.92zM226.95 136.07h2.68v3.28h-2.68v-3.28z"/></svg>