<svg id="Layer_1" xmlns="http://www.w3.org/2000/svg" viewBox="0 0 500 281"><style>.st0{fill:#fff}</style><path class="st0" d="M23.58 222.29h-.94v-6.73h.94v6.73zM27.29 222.29h-.97l-1.84-4.51h.99l1.32 3.55h.02l1.33-3.55h.95l-1.8 4.51zM32.77 219.37c0-.34-.1-.58-.3-.75-.2-.16-.47-.24-.81-.24-.25 0-.49.05-.72.15-.23.1-.41.22-.57.38l-.48-.57c.22-.21.49-.37.81-.49s.66-.18 1.03-.18c.32 0 .6.05.84.14s.43.22.58.38c.15.16.27.35.34.56.08.22.11.45.11.69v1.97c0 .15 0 .31.01.48.01.17.03.31.05.41h-.81a2.89 2.89 0 0 1-.08-.65h-.03c-.17.24-.37.43-.62.56-.25.13-.55.2-.89.2-.18 0-.36-.02-.56-.07s-.37-.12-.53-.23c-.16-.11-.29-.25-.39-.43s-.16-.4-.16-.66c0-.34.09-.61.28-.81.18-.2.42-.35.72-.46.3-.1.63-.17 1.01-.2.37-.03.75-.05 1.13-.05v-.13zm-.22.77c-.22 0-.45.01-.69.03-.24.02-.45.06-.65.11-.19.06-.35.14-.48.26-.13.11-.19.27-.19.46 0 .13.03.24.08.33s.12.16.21.22.19.1.29.12c.11.02.22.03.33.03.42 0 .74-.12.96-.38.23-.25.34-.57.34-.95v-.24h-.2zM35.92 217.78c.01.11.02.24.03.39s.01.26.01.36h.03c.06-.12.13-.23.23-.34s.21-.2.34-.28c.13-.08.27-.14.42-.19a1.854 1.854 0 0 1 1.23.08c.21.1.38.23.52.39.14.17.24.36.31.58s.1.46.1.71v2.8h-.89v-2.5c0-.18-.01-.36-.04-.52-.03-.16-.08-.31-.16-.44s-.18-.23-.31-.3-.3-.11-.51-.11c-.35 0-.65.13-.87.4s-.34.63-.34 1.08v2.4h-.89v-3.54c0-.12 0-.28-.01-.47-.01-.19-.02-.36-.03-.5h.83zM43.36 217.78l1.02 3.44h.02l1.07-3.44h.94l1.09 3.44h.02l1.02-3.44h.94l-1.49 4.51h-.93l-1.11-3.39h-.02l-1.1 3.39h-.93l-1.5-4.51h.96zM53.18 219.37c0-.34-.1-.58-.3-.75-.2-.16-.47-.24-.81-.24-.25 0-.49.05-.72.15-.23.1-.41.22-.57.38l-.48-.57c.22-.21.49-.37.81-.49s.66-.18 1.03-.18c.32 0 .6.05.84.14s.43.22.58.38c.15.16.27.35.34.56.08.22.11.45.11.69v1.97c0 .15 0 .31.01.48.01.17.03.31.05.41h-.77a2.89 2.89 0 0 1-.08-.65h-.03c-.17.24-.37.43-.62.56-.25.13-.55.2-.89.2-.18 0-.36-.02-.56-.07s-.37-.12-.53-.23c-.16-.11-.29-.25-.39-.43s-.16-.4-.16-.66c0-.34.09-.61.28-.81.18-.2.42-.35.72-.46.3-.1.63-.17 1.01-.2.37-.03.75-.05 1.13-.05v-.13zm-.22.77c-.22 0-.45.01-.69.03-.24.02-.45.06-.65.11-.19.06-.35.14-.48.26-.13.11-.19.27-.19.46 0 .13.03.24.08.33s.12.16.21.22.19.1.29.12c.11.02.22.03.33.03.42 0 .74-.12.96-.38.23-.25.34-.57.34-.95v-.24h-.2zM57.97 218.93c-.1-.17-.24-.3-.43-.4-.18-.1-.39-.16-.62-.16-.1 0-.2.01-.3.03-.1.02-.19.06-.27.1-.08.05-.14.11-.19.18-.05.07-.07.16-.07.27 0 .19.09.33.26.42.17.09.43.18.77.25.22.05.42.11.6.18.18.07.34.16.48.26a1.063 1.063 0 0 1 .43.89c0 .27-.05.49-.15.67s-.24.33-.4.45c-.17.12-.36.2-.58.25a2.663 2.663 0 0 1-1.67-.12c-.33-.13-.6-.34-.81-.61l.64-.54c.12.18.29.33.5.45.21.12.45.18.7.18.11 0 .22-.01.33-.03.1-.02.2-.06.29-.11.09-.05.15-.12.2-.2s.08-.19.08-.31c0-.21-.1-.37-.3-.47-.2-.1-.49-.2-.88-.29-.15-.04-.31-.08-.46-.14s-.3-.13-.42-.22a.99.99 0 0 1-.31-.36c-.08-.14-.12-.32-.12-.53 0-.24.05-.45.15-.62.1-.17.23-.32.39-.43.16-.11.34-.19.54-.25.2-.05.41-.08.63-.08.32 0 .64.06.94.19.3.13.53.31.7.55l-.65.55zM64.34 218.52h-1.2v2.34c0 .27.05.47.15.58.1.12.26.18.49.18.08 0 .17-.01.27-.03s.18-.04.26-.08l.03.73c-.11.04-.23.07-.36.09-.13.02-.26.03-.4.03-.42 0-.75-.12-.97-.35s-.34-.59-.34-1.06v-2.44h-.87v-.73h.87v-1.29h.88v1.29h1.2v.74zM65.25 218.29c-.01-.19-.02-.36-.03-.5h.85c.01.11.02.25.03.4.01.15.01.27.01.37h.03c.13-.27.31-.48.56-.64.24-.16.52-.24.82-.24.14 0 .26.01.35.04l-.04.83a1.77 1.77 0 0 0-.41-.05c-.22 0-.4.04-.56.12-.16.08-.29.19-.39.32-.1.13-.18.29-.23.46-.05.17-.08.36-.08.55v2.37h-.89v-3.54c-.01-.15-.01-.3-.02-.49zM72.74 220v.15c0 .05 0 .1-.01.15h-3.58c.01.19.05.37.13.53.08.17.19.31.32.43s.29.22.46.29.36.1.56.1c.3 0 .57-.07.79-.2.22-.13.4-.29.52-.49l.63.5c-.24.32-.52.55-.85.71-.33.15-.69.23-1.09.23-.34 0-.66-.06-.95-.17s-.54-.27-.75-.48c-.21-.21-.37-.46-.49-.75s-.18-.61-.18-.97c0-.35.06-.67.18-.96.12-.29.28-.55.49-.76a2.33 2.33 0 0 1 1.66-.67c.33 0 .63.05.9.16s.5.26.69.47c.19.2.33.45.43.74.09.3.14.63.14.99zm-.91-.36c-.01-.18-.04-.34-.09-.5s-.13-.29-.24-.4c-.1-.11-.23-.2-.39-.27s-.34-.1-.55-.1c-.19 0-.37.03-.54.1s-.31.16-.44.27-.23.25-.3.4c-.08.16-.13.32-.14.5h2.69zM76.73 219.37c0-.34-.1-.58-.3-.75-.2-.16-.47-.24-.81-.24-.25 0-.49.05-.72.15-.23.1-.41.22-.57.38l-.48-.57c.22-.21.49-.37.81-.49s.66-.18 1.03-.18c.32 0 .6.05.84.14s.43.22.58.38c.15.16.27.35.34.56.08.22.11.45.11.69v1.97c0 .15 0 .31.01.48.01.17.03.31.05.41h-.81a2.89 2.89 0 0 1-.08-.65h-.03c-.17.24-.37.43-.62.56-.25.13-.55.2-.89.2-.18 0-.36-.02-.56-.07s-.37-.12-.53-.23c-.16-.11-.29-.25-.39-.43s-.16-.4-.16-.66c0-.34.09-.61.28-.81.18-.2.42-.35.72-.46.3-.1.63-.17 1.01-.2.37-.03.75-.05 1.13-.05v-.13zm-.22.77c-.22 0-.45.01-.69.03-.24.02-.45.06-.65.11-.19.06-.35.14-.48.26-.13.11-.19.27-.19.46 0 .13.03.24.08.33s.12.16.21.22.19.1.29.12c.11.02.22.03.33.03.42 0 .74-.12.96-.38.23-.25.34-.57.34-.95v-.24h-.2zM81.19 218.52h-1.2v2.34c0 .27.05.47.15.58.1.12.26.18.49.18.08 0 .17-.01.27-.03s.18-.04.26-.08l.03.73c-.11.04-.23.07-.36.09-.13.02-.26.03-.4.03-.42 0-.75-.12-.97-.35s-.34-.59-.34-1.06v-2.44h-.87v-.73h.87v-1.29H80v1.29h1.2v.74zM86.32 220v.15c0 .05 0 .1-.01.15h-3.58c.01.19.05.37.13.53.08.17.19.31.32.43s.29.22.46.29.36.1.56.1c.3 0 .57-.07.79-.2.22-.13.4-.29.52-.49l.63.5c-.24.32-.52.55-.85.71-.33.15-.69.23-1.09.23-.34 0-.66-.06-.95-.17s-.54-.27-.75-.48c-.21-.21-.37-.46-.49-.75s-.18-.61-.18-.97c0-.35.06-.67.18-.96.12-.29.28-.55.49-.76a2.33 2.33 0 0 1 1.66-.67c.33 0 .63.05.9.16s.5.26.69.47c.19.2.33.45.43.74.09.3.14.63.14.99zm-.91-.36c-.01-.18-.04-.34-.09-.5s-.13-.29-.24-.4c-.1-.11-.23-.2-.39-.27s-.34-.1-.55-.1c-.19 0-.37.03-.54.1s-.31.16-.44.27-.23.25-.3.4c-.08.16-.13.32-.14.5h2.69zM91.15 221.58c-.17.27-.4.48-.7.62-.29.14-.6.21-.93.21-.35 0-.66-.06-.94-.19-.28-.12-.52-.29-.71-.51s-.35-.47-.46-.76c-.11-.29-.16-.6-.16-.93 0-.33.05-.64.16-.93.11-.29.26-.54.46-.76s.44-.38.72-.5.59-.18.92-.18c.37 0 .69.08.96.23.27.16.49.34.65.57h.02v-3.36h.89v7.19h-.87v-.71h-.01zm-2.96-1.55c0 .21.03.41.1.61.06.2.16.37.29.52.13.15.28.27.47.37.18.09.4.14.65.14.23 0 .44-.04.62-.13.19-.09.35-.21.48-.36s.24-.32.31-.52.11-.4.11-.62-.04-.42-.11-.62-.18-.37-.31-.52c-.13-.15-.29-.27-.48-.36s-.39-.13-.62-.13c-.25 0-.46.04-.65.13-.18.09-.34.21-.47.36-.13.15-.22.33-.29.52-.07.2-.1.41-.1.61zM96.31 217.78l1.02 3.44h.02l1.07-3.44h.94l1.09 3.44h.02l1.02-3.44h.94l-1.49 4.51h-.93l-1.11-3.39h-.02l-1.1 3.39h-.93l-1.5-4.51h.96zM104.37 216.16c0 .17-.06.3-.17.41-.12.11-.26.16-.42.16-.16 0-.3-.06-.42-.17a.566.566 0 0 1 0-.81.607.607 0 0 1 .84 0c.11.11.17.24.17.41zm-.14 6.13h-.89v-4.51h.89v4.51zM107.99 218.52h-1.2v2.34c0 .27.05.47.15.58.1.12.26.18.49.18.08 0 .17-.01.27-.03s.18-.04.26-.08l.03.73c-.11.04-.23.07-.36.09-.13.02-.26.03-.4.03-.42 0-.75-.12-.97-.35s-.34-.59-.34-1.06v-2.44h-.87v-.73h.87v-1.29h.88v1.29h1.2v.74zM109.85 218.47c.11-.22.29-.41.55-.57.26-.16.55-.24.87-.24.29 0 .54.05.75.15.21.1.38.23.52.39.14.17.24.36.31.58.07.22.1.46.1.71v2.8h-.89v-2.5c0-.18-.01-.36-.04-.52-.03-.17-.08-.31-.16-.44a.92.92 0 0 0-.31-.31c-.13-.08-.3-.11-.51-.11-.35 0-.65.13-.88.41-.23.27-.34.63-.34 1.08v2.39h-.89v-7.19h.89v3.37h.03zM122.67 221.25c-.27.36-.61.65-1.04.88-.42.22-.94.34-1.53.34-.51 0-.99-.09-1.42-.26-.43-.17-.81-.42-1.12-.73-.31-.31-.56-.69-.74-1.12a3.68 3.68 0 0 1-.27-1.43c0-.53.09-1.01.27-1.44s.43-.8.75-1.11c.32-.31.7-.55 1.14-.72.44-.17.91-.26 1.43-.26.23 0 .46.02.69.07.23.04.46.11.68.2s.41.2.59.33.33.28.46.45l-.74.57c-.16-.23-.4-.42-.7-.57-.3-.15-.63-.22-.97-.22-.39 0-.75.07-1.06.21-.31.14-.58.34-.8.58-.22.25-.39.53-.51.86s-.18.67-.18 1.04c0 .38.06.74.18 1.07.12.33.29.62.5.86.22.24.49.44.8.58.31.14.66.21 1.05.21.38 0 .73-.08 1.04-.23.31-.15.57-.37.77-.67l.73.51zM128.03 220.03c0 .35-.06.67-.19.96-.12.29-.29.54-.51.76a2.3 2.3 0 0 1-.77.49c-.3.12-.62.18-.96.18s-.66-.06-.96-.18c-.3-.12-.55-.28-.77-.49-.22-.21-.38-.46-.51-.76a2.49 2.49 0 0 1-.19-.96c0-.35.06-.67.19-.96.12-.29.29-.54.51-.75.22-.21.47-.37.77-.49.3-.12.62-.18.96-.18s.66.06.96.18a2.257 2.257 0 0 1 1.28 1.24c.13.29.19.61.19.96zm-.93 0c0-.21-.03-.42-.1-.62s-.16-.37-.29-.52c-.13-.15-.28-.27-.47-.36s-.4-.13-.64-.13-.46.04-.64.13-.34.21-.47.36c-.13.15-.22.32-.29.52-.07.2-.1.4-.1.62 0 .22.03.42.1.62s.16.37.29.52c.13.15.28.27.47.36.19.09.4.13.64.13s.46-.04.64-.13c.19-.09.34-.21.47-.36.13-.15.22-.33.29-.52.06-.2.1-.4.1-.62zM133.83 220.03c0 .35-.06.67-.19.96-.12.29-.29.54-.51.76a2.3 2.3 0 0 1-.77.49c-.3.12-.62.18-.96.18s-.66-.06-.96-.18c-.3-.12-.55-.28-.77-.49-.22-.21-.38-.46-.51-.76a2.49 2.49 0 0 1-.19-.96c0-.35.06-.67.19-.96.12-.29.29-.54.51-.75.22-.21.47-.37.77-.49.3-.12.62-.18.96-.18s.66.06.96.18a2.257 2.257 0 0 1 1.28 1.24c.13.29.19.61.19.96zm-.93 0c0-.21-.03-.42-.1-.62s-.16-.37-.29-.52c-.13-.15-.28-.27-.47-.36s-.4-.13-.64-.13-.46.04-.64.13-.34.21-.47.36c-.13.15-.22.32-.29.52-.07.2-.1.4-.1.62 0 .22.03.42.1.62s.16.37.29.52c.13.15.28.27.47.36.19.09.4.13.64.13s.46-.04.64-.13c.19-.09.34-.21.47-.36.13-.15.22-.33.29-.52.06-.2.1-.4.1-.62zM135.98 222.29h-.89v-7.19h.89v7.19zM139.94 222.29H139v-5.91h-2.16v-.83h5.26v.83h-2.16v5.91zM146.6 220.03c0 .35-.06.67-.19.96-.12.29-.29.54-.51.76a2.3 2.3 0 0 1-.77.49c-.3.12-.62.18-.96.18s-.66-.06-.96-.18c-.3-.12-.55-.28-.77-.49-.22-.21-.38-.46-.51-.76a2.49 2.49 0 0 1-.19-.96c0-.35.06-.67.19-.96.12-.29.29-.54.51-.75.22-.21.47-.37.77-.49.3-.12.62-.18.96-.18s.66.06.96.18a2.257 2.257 0 0 1 1.28 1.24c.13.29.19.61.19.96zm-.93 0c0-.21-.03-.42-.1-.62s-.16-.37-.29-.52c-.13-.15-.28-.27-.47-.36s-.4-.13-.64-.13-.46.04-.64.13-.34.21-.47.36c-.13.15-.22.32-.29.52-.07.2-.1.4-.1.62 0 .22.03.42.1.62s.16.37.29.52c.13.15.28.27.47.36.19.09.4.13.64.13s.46-.04.64-.13c.19-.09.34-.21.47-.36.13-.15.22-.33.29-.52.06-.2.1-.4.1-.62zM148.64 217.78c.01.11.02.24.03.39s.01.26.01.36h.03c.06-.12.13-.23.23-.34s.21-.2.34-.28c.13-.08.27-.14.42-.19a1.854 1.854 0 0 1 1.23.08c.21.1.38.23.52.39.14.17.24.36.31.58s.1.46.1.71v2.8h-.89v-2.5c0-.18-.01-.36-.04-.52-.03-.16-.08-.31-.16-.44s-.18-.23-.31-.3-.3-.11-.51-.11c-.35 0-.65.13-.87.4s-.34.63-.34 1.08v2.4h-.89v-3.54c0-.12 0-.28-.01-.47-.01-.19-.02-.36-.03-.5h.83zM157.58 220v.15c0 .05 0 .1-.01.15h-3.58c.01.19.05.37.13.53.08.17.19.31.32.43s.29.22.46.29.36.1.56.1c.3 0 .57-.07.79-.2.22-.13.4-.29.52-.49l.63.5c-.24.32-.52.55-.85.71-.33.15-.69.23-1.09.23-.34 0-.66-.06-.95-.17s-.54-.27-.75-.48c-.21-.21-.37-.46-.49-.75s-.18-.61-.18-.97c0-.35.06-.67.18-.96.12-.29.28-.55.49-.76a2.33 2.33 0 0 1 1.66-.67c.33 0 .63.05.9.16s.5.26.69.47c.19.2.33.45.43.74.09.3.14.63.14.99zm-.91-.36c-.01-.18-.04-.34-.09-.5s-.13-.29-.24-.4c-.1-.11-.23-.2-.39-.27s-.34-.1-.55-.1c-.19 0-.37.03-.54.1s-.31.16-.44.27-.23.25-.3.4c-.08.16-.13.32-.14.5h2.69zM158.35 217.6c0-.3.06-.58.17-.84.11-.26.27-.49.47-.68.2-.19.43-.35.69-.46s.54-.17.84-.17c.3 0 .58.06.84.17s.49.27.69.46c.2.19.35.42.47.68.11.26.17.54.17.84 0 .3-.06.58-.17.84-.11.26-.27.49-.47.68-.2.19-.43.34-.69.46s-.54.17-.84.17c-.3 0-.58-.05-.84-.17s-.49-.26-.69-.46c-.2-.19-.35-.42-.47-.68-.11-.26-.17-.54-.17-.84zm.34 0c0 .25.05.48.14.7.1.22.23.42.39.58.16.17.36.3.58.39a1.872 1.872 0 0 0 1.42 0c.22-.09.42-.23.58-.39s.29-.36.39-.58a1.86 1.86 0 0 0 0-1.41c-.1-.22-.23-.42-.39-.58s-.36-.29-.58-.39a1.872 1.872 0 0 0-1.42 0c-.22.09-.42.22-.58.39-.17.17-.29.36-.39.58-.09.22-.14.46-.14.71zm2.35 1.19l-.52-.94h-.34v.94h-.58v-2.43h1.05c.11 0 .22.01.33.04s.21.07.29.12c.09.06.16.13.21.23s.08.22.08.37c0 .17-.05.3-.14.41-.09.11-.21.19-.35.24l.65 1.03h-.68zm-.42-1.36c.09 0 .17-.03.24-.08.07-.06.11-.13.11-.23s-.04-.17-.12-.22-.16-.07-.23-.07h-.45v.6h.45zM27.16 230.04c0 .35-.06.67-.19.96-.12.29-.29.54-.51.76a2.3 2.3 0 0 1-.77.49c-.3.12-.62.18-.96.18s-.66-.06-.96-.18c-.3-.12-.55-.28-.77-.49-.22-.21-.38-.46-.51-.76a2.49 2.49 0 0 1-.19-.96c0-.35.06-.67.19-.96.12-.29.29-.54.51-.75.22-.21.47-.37.77-.49.3-.12.62-.18.96-.18s.66.06.96.18a2.257 2.257 0 0 1 1.28 1.24c.12.29.19.61.19.96zm-.94 0c0-.21-.03-.42-.1-.62s-.16-.37-.29-.52c-.13-.15-.28-.27-.47-.36s-.4-.13-.64-.13-.46.04-.64.13-.34.21-.47.36c-.13.15-.22.32-.29.52-.07.2-.1.4-.1.62 0 .22.03.42.1.62s.16.37.29.52c.13.15.28.27.47.36.19.09.4.13.64.13s.46-.04.64-.13c.19-.09.34-.21.47-.36.13-.15.22-.33.29-.52.07-.2.1-.4.1-.62zM29.2 227.79c.01.11.02.24.03.39s.01.26.01.36h.03c.06-.12.13-.23.23-.34s.21-.2.34-.28c.13-.08.27-.14.42-.19a1.854 1.854 0 0 1 1.23.08c.21.1.38.23.52.39.14.17.24.36.31.58s.1.46.1.71v2.8h-.89v-2.5c0-.18-.01-.36-.04-.52-.03-.16-.08-.31-.16-.44s-.18-.23-.31-.3-.3-.11-.51-.11c-.35 0-.65.13-.87.4s-.34.63-.34 1.08v2.4h-.89v-3.54c0-.12 0-.28-.01-.47-.01-.19-.02-.36-.03-.5h.83zM37.24 228.48c.11-.22.29-.41.55-.57.26-.16.55-.24.87-.24.29 0 .54.05.75.15.21.1.38.23.52.39.14.17.24.36.31.58.07.22.1.46.1.71v2.8h-.89v-2.5c0-.18-.01-.36-.04-.52-.03-.17-.08-.31-.16-.44a.92.92 0 0 0-.31-.31c-.13-.08-.3-.11-.51-.11-.35 0-.65.13-.88.41-.23.27-.34.63-.34 1.08v2.39h-.89v-7.19h.89v3.37h.03zM42.9 226.17c0 .17-.06.3-.17.41-.12.11-.26.16-.42.16-.16 0-.3-.06-.42-.17a.566.566 0 0 1 0-.81.607.607 0 0 1 .84 0c.11.11.17.24.17.41zm-.14 6.13h-.89v-4.51h.89v4.51zM46.75 228.94c-.1-.17-.24-.3-.43-.4-.18-.1-.39-.16-.62-.16-.1 0-.2.01-.3.03-.1.02-.19.06-.27.1-.08.05-.14.11-.19.18-.05.07-.07.16-.07.27 0 .19.09.33.26.42.17.09.43.18.77.25.22.05.42.11.6.18.18.07.34.16.48.26a1.063 1.063 0 0 1 .43.89c0 .27-.05.49-.15.67s-.24.33-.4.45c-.17.12-.36.2-.58.25a2.663 2.663 0 0 1-1.67-.12c-.33-.13-.6-.34-.81-.61l.64-.54c.12.18.29.33.5.45.21.12.45.18.7.18.11 0 .22-.01.33-.03.1-.02.2-.06.29-.11.09-.05.15-.12.2-.2s.08-.19.08-.31c0-.21-.1-.37-.3-.47-.2-.1-.49-.2-.88-.29-.15-.04-.31-.08-.46-.14s-.3-.13-.42-.22a.99.99 0 0 1-.31-.36c-.08-.14-.12-.32-.12-.53 0-.24.05-.45.15-.62.1-.17.23-.32.39-.43.16-.11.34-.19.54-.25.2-.05.41-.08.63-.08.32 0 .64.06.94.19.3.13.53.31.7.55l-.65.55zM53.72 229.38c0-.34-.1-.58-.3-.75-.2-.16-.47-.24-.81-.24-.25 0-.49.05-.72.15-.23.1-.41.22-.57.38l-.48-.57c.22-.21.49-.37.81-.49s.66-.18 1.03-.18c.32 0 .6.05.84.14s.43.22.58.38c.15.16.27.35.34.56.08.22.11.45.11.69v1.97c0 .15 0 .31.01.48.01.17.03.31.05.41h-.81a2.89 2.89 0 0 1-.08-.65h-.03c-.17.24-.37.43-.62.56-.25.13-.55.2-.89.2-.18 0-.36-.02-.56-.07s-.37-.12-.53-.23c-.16-.11-.29-.25-.39-.43s-.16-.4-.16-.66c0-.34.09-.61.28-.81.18-.2.42-.35.72-.46.3-.1.63-.17 1.01-.2.37-.03.75-.05 1.13-.05v-.13zm-.21.77c-.22 0-.45.01-.69.03-.24.02-.45.06-.65.11-.19.06-.35.14-.48.26-.13.11-.19.27-.19.46 0 .13.03.24.08.33s.12.16.21.22.19.1.29.12c.11.02.22.03.33.03.42 0 .74-.12.96-.38.23-.25.34-.57.34-.95v-.24h-.2zM56.96 231.59v.71h-.87v-7.19h.89v3.36h.03c.15-.22.36-.41.64-.57.27-.16.59-.23.97-.23.33 0 .64.06.92.18s.51.29.71.5.35.47.46.76c.11.29.16.6.16.93 0 .33-.05.64-.16.93-.11.29-.26.54-.46.76-.2.22-.43.38-.71.51-.28.12-.59.19-.94.19a2.1 2.1 0 0 1-.92-.21c-.29-.14-.52-.35-.7-.62h-.02zm2.99-1.55c0-.21-.03-.41-.1-.61-.06-.2-.16-.37-.29-.52s-.28-.27-.47-.36-.4-.13-.65-.13c-.23 0-.44.04-.62.13-.19.09-.35.21-.48.36s-.24.33-.31.52-.11.4-.11.62.04.42.11.62.18.37.31.52c.13.15.29.27.48.36.19.09.39.13.62.13.25 0 .46-.05.65-.14.19-.09.34-.21.47-.37.13-.15.22-.33.29-.52.07-.2.1-.4.1-.61zM65.72 231.59c-.17.27-.4.48-.7.62-.29.14-.6.21-.93.21-.35 0-.66-.06-.94-.19-.28-.12-.52-.29-.71-.51s-.35-.47-.46-.76c-.11-.29-.16-.6-.16-.93 0-.33.05-.64.16-.93.11-.29.26-.54.46-.76s.44-.38.72-.5.59-.18.92-.18c.37 0 .69.08.96.23.27.16.49.34.65.57h.02v-3.36h.89v7.19h-.87v-.71h-.01zm-2.97-1.55c0 .21.03.41.1.61.06.2.16.37.29.52.13.15.28.27.47.37.18.09.4.14.65.14.23 0 .44-.04.62-.13.19-.09.35-.21.48-.36s.24-.32.31-.52.11-.4.11-.62-.04-.42-.11-.62-.18-.37-.31-.52c-.13-.15-.29-.27-.48-.36s-.39-.13-.62-.13c-.25 0-.46.04-.65.13-.18.09-.34.21-.47.36-.13.15-.22.33-.29.52-.07.2-.1.4-.1.61zM72.72 230.04c0 .35-.06.67-.19.96-.12.29-.29.54-.51.76a2.3 2.3 0 0 1-.77.49c-.3.12-.62.18-.96.18s-.66-.06-.96-.18c-.3-.12-.55-.28-.77-.49-.22-.21-.38-.46-.51-.76a2.49 2.49 0 0 1-.19-.96c0-.35.06-.67.19-.96.12-.29.29-.54.51-.75.22-.21.47-.37.77-.49.3-.12.62-.18.96-.18s.66.06.96.18a2.257 2.257 0 0 1 1.28 1.24c.13.29.19.61.19.96zm-.93 0c0-.21-.03-.42-.1-.62s-.16-.37-.29-.52c-.13-.15-.28-.27-.47-.36s-.4-.13-.64-.13-.46.04-.64.13-.34.21-.47.36c-.13.15-.22.32-.29.52-.07.2-.1.4-.1.62 0 .22.03.42.1.62s.16.37.29.52c.13.15.28.27.47.36.19.09.4.13.64.13s.46-.04.64-.13c.19-.09.34-.21.47-.36.13-.15.22-.33.29-.52.07-.2.1-.4.1-.62zM75.38 227.92c.25-.17.55-.25.89-.25.3 0 .58.07.82.21s.44.37.58.69c.15-.29.36-.51.64-.67.27-.16.57-.23.89-.23.29 0 .54.05.75.15.21.1.38.23.52.39.14.17.24.36.31.58.07.22.1.46.1.71v2.8h-.89v-2.5c0-.18-.02-.36-.05-.52-.03-.16-.09-.31-.16-.44s-.18-.23-.3-.3c-.13-.08-.29-.11-.48-.11-.2 0-.38.04-.52.13-.15.08-.27.2-.36.33-.09.14-.16.29-.2.46-.04.17-.06.35-.06.52v2.43h-.89v-2.68c0-.18-.02-.34-.05-.49a1.09 1.09 0 0 0-.16-.38.877.877 0 0 0-.29-.25c-.12-.06-.27-.09-.45-.09-.33 0-.6.13-.82.4s-.33.63-.33 1.08v2.4h-.89v-3.54c0-.12 0-.28-.01-.47-.01-.19-.02-.36-.03-.5h.85c.01.11.02.24.03.39s.01.26.01.36h.03c.09-.24.27-.44.52-.61zM86.61 230.01v.15c0 .05 0 .1-.01.15h-3.58c.01.19.05.37.13.53.08.17.19.31.32.43s.29.22.46.29.36.1.56.1c.3 0 .57-.07.79-.2.22-.13.4-.29.52-.49l.63.5c-.24.32-.52.55-.85.71-.33.15-.69.23-1.09.23-.34 0-.66-.06-.95-.17s-.54-.27-.75-.48c-.21-.21-.37-.46-.49-.75s-.18-.61-.18-.97c0-.35.06-.67.18-.96.12-.29.28-.55.49-.76a2.33 2.33 0 0 1 1.66-.67c.33 0 .63.05.9.16s.5.26.69.47c.19.2.33.45.43.74.09.3.14.63.14.99zm-.92-.36c-.01-.18-.04-.34-.09-.5s-.13-.29-.24-.4c-.1-.11-.23-.2-.39-.27s-.34-.1-.55-.1c-.19 0-.37.03-.54.1s-.31.16-.44.27-.23.25-.3.4c-.08.16-.13.32-.14.5h2.69zM88.65 227.79c.01.11.02.24.03.39s.01.26.01.36h.03c.06-.12.13-.23.23-.34s.21-.2.34-.28c.13-.08.27-.14.42-.19a1.854 1.854 0 0 1 1.23.08c.21.1.38.23.52.39.14.17.24.36.31.58s.1.46.1.71v2.8h-.89v-2.5c0-.18-.01-.36-.04-.52-.03-.16-.08-.31-.16-.44s-.18-.23-.31-.3-.3-.11-.51-.11c-.35 0-.65.13-.87.4s-.34.63-.34 1.08v2.4h-.89v-3.54c0-.12 0-.28-.01-.47-.01-.19-.02-.36-.03-.5h.83zM94.48 231.73c0 .17-.06.31-.18.44a.59.59 0 0 1-.46.19.61.61 0 0 1-.45-.18.604.604 0 0 1-.01-.87c.12-.12.27-.19.46-.19.18 0 .34.06.46.18.12.11.18.26.18.43zM98.93 232.3h-.94v-6.73h2.16c.32 0 .63.03.92.1.29.07.55.17.77.32.22.15.39.34.52.58.13.24.19.53.19.87 0 .5-.15.89-.46 1.2-.3.3-.7.5-1.18.58l1.88 3.09h-1.14l-1.71-3h-1.01v2.99zm0-3.78h1.08c.22 0 .43-.02.62-.06.19-.04.36-.1.5-.19.14-.08.26-.2.34-.33.08-.14.12-.31.12-.51s-.04-.37-.12-.51a.872.872 0 0 0-.33-.33c-.14-.08-.3-.14-.48-.18-.18-.03-.38-.05-.58-.05h-1.15v2.16zM107.88 230.01v.15c0 .05 0 .1-.01.15h-3.58c.01.19.05.37.13.53.08.17.19.31.32.43s.29.22.46.29.36.1.56.1c.3 0 .57-.07.79-.2.22-.13.4-.29.52-.49l.63.5c-.24.32-.52.55-.85.71-.33.15-.69.23-1.09.23-.34 0-.66-.06-.95-.17s-.54-.27-.75-.48c-.21-.21-.37-.46-.49-.75s-.18-.61-.18-.97c0-.35.06-.67.18-.96.12-.29.28-.55.49-.76a2.33 2.33 0 0 1 1.66-.67c.33 0 .63.05.9.16s.5.26.69.47c.19.2.33.45.43.74.09.3.14.63.14.99zm-.91-.36c-.01-.18-.04-.34-.09-.5s-.13-.29-.24-.4c-.1-.11-.23-.2-.39-.27s-.34-.1-.55-.1c-.19 0-.37.03-.54.1s-.31.16-.44.27-.23.25-.3.4c-.08.16-.13.32-.14.5h2.69zM111.55 228.94c-.1-.17-.24-.3-.43-.4-.18-.1-.39-.16-.62-.16-.1 0-.2.01-.3.03-.1.02-.19.06-.27.1-.08.05-.14.11-.19.18-.05.07-.07.16-.07.27 0 .19.09.33.26.42.17.09.43.18.77.25.22.05.42.11.6.18.18.07.34.16.48.26a1.063 1.063 0 0 1 .43.89c0 .27-.05.49-.15.67s-.24.33-.4.45c-.17.12-.36.2-.58.25a2.663 2.663 0 0 1-1.67-.12c-.33-.13-.6-.34-.81-.61l.64-.54c.12.18.29.33.5.45.21.12.45.18.7.18.11 0 .22-.01.33-.03.1-.02.2-.06.29-.11.09-.05.15-.12.2-.2s.08-.19.08-.31c0-.21-.1-.37-.3-.47-.2-.1-.49-.2-.88-.29-.15-.04-.31-.08-.46-.14s-.3-.13-.42-.22a.99.99 0 0 1-.31-.36c-.08-.14-.12-.32-.12-.53 0-.24.05-.45.15-.62.1-.17.23-.32.39-.43.16-.11.34-.19.54-.25.2-.05.41-.08.63-.08.32 0 .64.06.94.19.3.13.53.31.7.55l-.65.55zM116.51 232.3c-.01-.11-.02-.24-.03-.38-.01-.14-.01-.26-.01-.36h-.02c-.11.24-.31.45-.58.61-.27.17-.57.25-.9.25-.29 0-.54-.05-.76-.14-.21-.1-.39-.23-.52-.4s-.24-.36-.3-.58c-.07-.22-.1-.46-.1-.71v-2.8h.89v2.49c0 .18.01.36.04.53.03.17.08.32.16.44s.18.23.31.3c.13.08.3.11.51.11.36 0 .65-.13.88-.4.22-.27.33-.63.33-1.08v-2.4h.89v3.54c0 .12 0 .28.01.47s.02.36.03.5h-.83zM119.78 232.3h-.89v-7.19h.89v7.19zM123.55 228.53h-1.2v2.34c0 .27.05.47.15.58.1.12.26.18.49.18.08 0 .17-.01.27-.03s.18-.04.26-.08l.03.73c-.11.04-.23.07-.36.09-.13.02-.26.03-.4.03-.42 0-.75-.12-.97-.35s-.34-.59-.34-1.06v-2.44h-.87v-.73h.87v-1.29h.88v1.29h1.2v.74zM126.91 228.94c-.1-.17-.24-.3-.43-.4-.18-.1-.39-.16-.62-.16-.1 0-.2.01-.3.03-.1.02-.19.06-.27.1-.08.05-.14.11-.19.18-.05.07-.07.16-.07.27 0 .19.09.33.26.42.17.09.43.18.77.25.22.05.42.11.6.18.18.07.34.16.48.26a1.063 1.063 0 0 1 .43.89c0 .27-.05.49-.15.67s-.24.33-.4.45c-.17.12-.36.2-.58.25a2.663 2.663 0 0 1-1.67-.12c-.33-.13-.6-.34-.81-.61l.64-.54c.12.18.29.33.5.45.21.12.45.18.7.18.11 0 .22-.01.33-.03.1-.02.2-.06.29-.11.09-.05.15-.12.2-.2s.08-.19.08-.31c0-.21-.1-.37-.3-.47-.2-.1-.49-.2-.88-.29-.15-.04-.31-.08-.46-.14s-.3-.13-.42-.22a.99.99 0 0 1-.31-.36c-.08-.14-.12-.32-.12-.53 0-.24.05-.45.15-.62.1-.17.23-.32.39-.43.16-.11.34-.19.54-.25.2-.05.41-.08.63-.08.32 0 .64.06.94.19.3.13.53.31.7.55l-.65.55zM132.49 227.92c.25-.17.55-.25.89-.25.3 0 .58.07.82.21s.44.37.58.69c.15-.29.36-.51.64-.67.27-.16.57-.23.89-.23.29 0 .54.05.75.15.21.1.38.23.52.39.14.17.24.36.31.58.07.22.1.46.1.71v2.8h-.89v-2.5c0-.18-.02-.36-.05-.52-.03-.16-.09-.31-.16-.44s-.18-.23-.3-.3c-.13-.08-.29-.11-.48-.11-.2 0-.38.04-.52.13-.15.08-.27.2-.36.33-.09.14-.16.29-.2.46-.04.17-.06.35-.06.52v2.43h-.89v-2.68c0-.18-.02-.34-.05-.49a1.09 1.09 0 0 0-.16-.38.877.877 0 0 0-.29-.25c-.12-.06-.27-.09-.45-.09-.33 0-.6.13-.82.4s-.33.63-.33 1.08v2.4h-.89v-3.54c0-.12 0-.28-.01-.47-.01-.19-.02-.36-.03-.5h.85c.01.11.02.24.03.39s.01.26.01.36h.03c.09-.24.27-.44.52-.61zM142.31 229.38c0-.34-.1-.58-.3-.75-.2-.16-.47-.24-.81-.24-.25 0-.49.05-.72.15-.23.1-.41.22-.57.38l-.48-.57c.22-.21.49-.37.81-.49s.66-.18 1.03-.18c.32 0 .6.05.84.14s.43.22.58.38c.15.16.27.35.34.56.08.22.11.45.11.69v1.97c0 .15 0 .31.01.48.01.17.03.31.05.41h-.81a2.89 2.89 0 0 1-.08-.65h-.03c-.17.24-.37.43-.62.56-.25.13-.55.2-.89.2-.18 0-.36-.02-.56-.07s-.37-.12-.53-.23c-.16-.11-.29-.25-.39-.43s-.16-.4-.16-.66c0-.34.09-.61.28-.81.18-.2.42-.35.72-.46.3-.1.63-.17 1.01-.2.37-.03.75-.05 1.13-.05v-.13zm-.22.77c-.22 0-.45.01-.69.03-.24.02-.45.06-.65.11-.19.06-.35.14-.48.26-.13.11-.19.27-.19.46 0 .13.03.24.08.33s.12.16.21.22.19.1.29.12c.11.02.22.03.33.03.42 0 .74-.12.96-.38.23-.25.34-.57.34-.95v-.24h-.2zM146.37 231.33h.02l1.25-3.54h.95l-2.19 5.57c-.08.19-.16.36-.25.51-.09.15-.19.28-.31.38-.12.1-.26.19-.42.24-.16.06-.35.09-.58.09-.09 0-.19 0-.29-.01-.1-.01-.2-.03-.3-.05l.09-.79c.15.05.3.08.45.08.23 0 .41-.07.52-.2.11-.13.22-.32.31-.56l.29-.75-1.93-4.51h1l1.39 3.54zM153.95 232.3h-.97l-1.84-4.51h.99l1.32 3.55h.02l1.33-3.55h.95l-1.8 4.51zM159.43 229.38c0-.34-.1-.58-.3-.75-.2-.16-.47-.24-.81-.24-.25 0-.49.05-.72.15-.23.1-.41.22-.57.38l-.48-.57c.22-.21.49-.37.81-.49s.66-.18 1.03-.18c.32 0 .6.05.84.14s.43.22.58.38c.15.16.27.35.34.56.08.22.11.45.11.69v1.97c0 .15 0 .31.01.48.01.17.03.31.05.41h-.81a2.89 2.89 0 0 1-.08-.65h-.03c-.17.24-.37.43-.62.56-.25.13-.55.2-.89.2-.18 0-.36-.02-.56-.07s-.37-.12-.53-.23c-.16-.11-.29-.25-.39-.43s-.16-.4-.16-.66c0-.34.09-.61.28-.81.18-.2.42-.35.72-.46.3-.1.63-.17 1.01-.2.37-.03.75-.05 1.13-.05v-.13zm-.22.77c-.22 0-.45.01-.69.03-.24.02-.45.06-.65.11-.19.06-.35.14-.48.26-.13.11-.19.27-.19.46 0 .13.03.24.08.33s.12.16.21.22.19.1.29.12c.11.02.22.03.33.03.42 0 .74-.12.96-.38.23-.25.34-.57.34-.95v-.24h-.2zM161.77 228.3c-.01-.19-.02-.36-.03-.5h.85c.01.11.02.25.03.4.01.15.01.27.01.37h.03c.13-.27.31-.48.56-.64.24-.16.52-.24.82-.24.14 0 .26.01.35.04l-.04.83a1.77 1.77 0 0 0-.41-.05c-.22 0-.4.04-.56.12-.16.08-.29.19-.39.32-.1.13-.18.29-.23.46-.05.17-.08.36-.08.55v2.37h-.89v-3.54c-.01-.15-.02-.3-.02-.49zM166.93 231.33h.02l1.25-3.54h.95l-2.19 5.57c-.08.19-.16.36-.25.51-.09.15-.19.28-.31.38-.12.1-.26.19-.42.24-.16.06-.35.09-.58.09-.09 0-.19 0-.29-.01-.1-.01-.2-.03-.3-.05l.09-.79c.15.05.3.08.45.08.23 0 .41-.07.52-.2.11-.13.22-.32.31-.56l.29-.75-1.93-4.51h1l1.39 3.54zM170.77 231.73c0 .17-.06.31-.18.44a.59.59 0 0 1-.46.19.61.61 0 0 1-.45-.18.604.604 0 0 1-.01-.87c.12-.12.27-.19.46-.19.18 0 .34.06.46.18.12.11.18.26.18.43z"/></svg>