<?xml version="1.0" encoding="utf-8"?>
<!-- Generator: Adobe Illustrator 25.4.1, SVG Export Plug-In . SVG Version: 6.00 Build 0)  -->
<svg version="1.1" id="Layer_1" xmlns="http://www.w3.org/2000/svg" xmlns:xlink="http://www.w3.org/1999/xlink" x="0px" y="0px"
	 viewBox="0 0 300 250" style="enable-background:new 0 0 300 250;" xml:space="preserve">
<style type="text/css">
	.st0{fill:#FFFFFF;}
</style>
<g>
	<path class="st0" d="M13.82,51.38h1.03c1.01,0,1.41-0.27,1.41-1.35V36.7h-0.58c-3.17,0-3.84,2.2-4.4,5.66h-0.31l0.29-5.99h11.92
		l0.25,5.99h-0.31c-0.54-3.46-1.23-5.66-4.4-5.66h-0.58v13.33c0,1.08,0.38,1.35,1.41,1.35h1.01v0.34h-6.73V51.38z"/>
	<path class="st0" d="M23.09,49.8c0-1.91,1.71-2.92,5.93-3.91v-0.65c0-2.15-0.85-2.9-2.2-2.9c-1.21,0-2.24,0.52-2.24,0.92
		c0,0.07,0.02,0.09,0.11,0.09c0.45,0,0.94,0.43,0.94,0.99c0,0.58-0.45,1.03-1.01,1.03c-0.58,0-1.01-0.43-1.01-1.08
		c0-1.17,1.23-2.27,3.64-2.27c1.8,0,3.37,0.65,3.37,3.3v4.6c0,0.94,0.27,1.23,0.58,1.23c0.54,0,0.76-0.56,0.79-1.8h0.31
		c-0.04,2.13-0.79,2.54-1.71,2.54c-0.88,0-1.68-0.49-1.57-2.11h-0.04c-0.43,1.17-1.77,2.15-3.34,2.15
		C24.19,51.96,23.09,51.24,23.09,49.8z M29.02,47.87v-1.62c-3.43,0.7-4.06,1.89-4.06,3.16c0,1.01,0.54,1.75,1.57,1.75
		C27.63,51.17,29.02,50.37,29.02,47.87z"/>
	<path class="st0" d="M32.84,51.4h0.09c1.01,0,1.23-0.27,1.23-1.35V38c0-1.08-0.22-1.35-1.23-1.35h-0.18v-0.31L35.75,36v14.05
		c0,1.08,0.22,1.35,1.21,1.35h0.18v0.31h-4.31V51.4z"/>
	<path class="st0" d="M38.04,51.4h0.11c0.99,0,1.21-0.25,1.21-1.26V37.93c0-1.03-0.22-1.28-1.21-1.28h-0.2v-0.31L40.96,36v11.78
		l3.39-3.64c0.45-0.47,0.58-0.7,0.58-0.99c0-0.34-0.4-0.54-1.15-0.58v-0.25h3.95v0.25c-1.3,0.13-1.62,0.45-2.45,1.28l-1.84,1.89
		c0-0.02,3.25,4.58,3.25,4.58c0.52,0.72,0.72,1.01,1.62,1.08v0.31h-4.17v-0.29c0.72-0.07,0.97-0.27,0.97-0.52
		c0-0.13-0.04-0.25-0.29-0.61l-2.42-3.48l-1.44,1.44v1.89c0,1.01,0.22,1.26,1.23,1.26h0.13v0.31h-4.29V51.4z"/>
	<path class="st0" d="M55.49,49.13v-6.46h-1.53V42.4c1.44-0.25,2.63-1.23,2.85-4.13h0.29v4.04h3.03v0.36H57.1v6.58
		c0,1.41,0.52,2.11,1.53,2.11c0.92,0,1.66-1.01,1.75-2.98h0.31c0,2.29-1.01,3.64-2.63,3.64C56.47,52,55.49,51.08,55.49,49.13z"/>
	<path class="st0" d="M61.61,47c0-2.92,2.29-5.01,4.4-5.01s4.38,2.04,4.38,4.96c0,2.85-2.27,5.1-4.38,5.1S61.61,49.85,61.61,47z
		 M68.51,47.02c0-2.6-0.67-4.71-2.49-4.71c-1.82,0-2.49,2.06-2.49,4.67c0,2.58,0.63,4.76,2.49,4.76
		C67.88,51.73,68.51,49.6,68.51,47.02z"/>
	<path class="st0" d="M76.68,54.7c0-0.7,0.47-1.19,1.14-1.19c0.54,0,0.92,0.47,0.92,0.94c0,0.4-0.16,0.63-0.31,0.79
		c-0.13,0.13-0.25,0.2-0.25,0.38c0,0.22,0.25,0.38,0.58,0.38c1.03,0,1.73-1.41,2.38-2.99l0.29-0.7l-3.37-8.17
		c-0.4-1.01-0.72-1.46-1.64-1.53v-0.29h4.51v0.29c-0.79,0.07-1.14,0.31-1.17,0.67c-0.02,0.34,0.09,0.72,0.27,1.19l2.22,5.88
		l2.02-5.3c0.2-0.52,0.43-1.14,0.43-1.57c0-0.58-0.38-0.81-1.23-0.88v-0.29h3.32v0.29c-0.99,0.07-1.23,0.61-1.59,1.53l-3.61,8.84
		c-1.12,2.76-1.98,3.39-3.03,3.39C77.33,56.38,76.68,55.62,76.68,54.7z"/>
	<path class="st0" d="M86.87,47c0-2.92,2.29-5.01,4.4-5.01s4.38,2.04,4.38,4.96c0,2.85-2.27,5.1-4.38,5.1S86.87,49.85,86.87,47z
		 M93.76,47.02c0-2.6-0.67-4.71-2.49-4.71c-1.82,0-2.49,2.06-2.49,4.67c0,2.58,0.63,4.76,2.49,4.76
		C93.13,51.73,93.76,49.6,93.76,47.02z"/>
	<path class="st0" d="M97.82,48.75V43.9c0-0.99-0.22-1.28-1.21-1.28h-0.2v-0.29l3.01-0.18v7c0,1.59,0.61,2.22,1.66,2.22
		c1.39,0,2.78-1.98,2.78-3.86v-3.59c0-1.03-0.22-1.3-1.21-1.3h-0.45v-0.29l3.28-0.18v7.86c0,1.01,0.25,1.3,1.23,1.3h0.16v0.29
		l-2.99,0.34l0.11-2.78h-0.04c-0.58,1.53-1.89,2.78-3.41,2.78C98.77,51.94,97.82,50.9,97.82,48.75z"/>
	<path class="st0" d="M107.61,51.4h0.16c0.99,0,1.21-0.25,1.21-1.26v-6.28c0-1.01-0.27-1.26-1.21-1.26h-0.16v-0.27l2.98-0.18
		l-0.16,3.79h0.04c0.7-2.45,1.82-3.91,3.3-3.91c1.14,0,1.8,0.67,1.8,1.46c0,0.88-0.49,1.32-1.12,1.32c-0.56,0-1.01-0.36-1.01-0.92
		c0-0.49,0.27-0.72,0.47-0.9c0.11-0.09,0.18-0.16,0.18-0.27c0-0.18-0.22-0.22-0.49-0.22c-1.62,0-2.99,3.19-2.99,4.96v2.67
		c0,1.01,0.22,1.26,1.21,1.26h0.52v0.31h-4.74V51.4z"/>
	<path class="st0" d="M121.21,55.98h0.27c0.99,0,1.21-0.25,1.21-1.28V43.9c0-1.03-0.22-1.28-1.21-1.28h-0.16v-0.29l2.92-0.18
		l-0.07,2.29h0.04c0.72-1.39,1.68-2.36,3.14-2.36c1.84,0,3.93,1.91,3.93,4.92c0,2.96-2.04,4.94-4.02,4.94
		c-1.53,0-2.47-1.06-3.08-2.42h-0.02c0,0,0.09,1.39,0.09,2.81v2.38c0,1.03,0.22,1.28,1.21,1.28H126v0.31h-4.78V55.98z M129.41,47.04
		c0-2.33-0.54-4.6-2.27-4.6c-1.1,0-2.9,1.3-2.9,4.58c0,2.31,1.23,4.56,2.85,4.56C128.82,51.58,129.41,49.47,129.41,47.04z"/>
	<path class="st0" d="M132.39,51.4h0.16c0.99,0,1.21-0.25,1.21-1.26v-6.28c0-1.01-0.27-1.26-1.21-1.26h-0.16v-0.27l2.98-0.18
		l-0.16,3.79h0.04c0.7-2.45,1.82-3.91,3.3-3.91c1.14,0,1.8,0.67,1.8,1.46c0,0.88-0.49,1.32-1.12,1.32c-0.56,0-1.01-0.36-1.01-0.92
		c0-0.49,0.27-0.72,0.47-0.9c0.11-0.09,0.18-0.16,0.18-0.27c0-0.18-0.22-0.22-0.49-0.22c-1.62,0-2.99,3.19-2.99,4.96v2.67
		c0,1.01,0.22,1.26,1.21,1.26h0.52v0.31h-4.74V51.4z"/>
	<path class="st0" d="M140.88,47c0-2.92,2.29-5.01,4.4-5.01s4.38,2.04,4.38,4.96c0,2.85-2.27,5.1-4.38,5.1S140.88,49.85,140.88,47z
		 M147.77,47.02c0-2.6-0.67-4.71-2.49-4.71c-1.82,0-2.49,2.06-2.49,4.67c0,2.58,0.63,4.76,2.49,4.76
		C147.14,51.73,147.77,49.6,147.77,47.02z"/>
	<path class="st0" d="M151.59,44.08c-0.43-1.01-0.7-1.39-1.62-1.46v-0.29h4.49v0.29c-0.9,0.07-1.14,0.29-1.17,0.65
		c-0.02,0.34,0.09,0.76,0.25,1.17l2.16,5.72l2-5.16c0.2-0.54,0.43-1.1,0.43-1.53c0-0.58-0.38-0.79-1.23-0.85v-0.29h3.23v0.29
		c-0.92,0.07-1.21,0.58-1.57,1.46l-3.32,8.08h-0.31L151.59,44.08z"/>
	<path class="st0" d="M160.61,51.4h0.18c0.99,0,1.21-0.25,1.21-1.26V43.9c0-1.03-0.22-1.28-1.21-1.28h-0.18v-0.29l2.99-0.18v7.99
		c0,1.01,0.22,1.26,1.21,1.26h0.18v0.31h-4.38V51.4z M161.35,38.56c0-0.67,0.56-1.23,1.23-1.23c0.67,0,1.24,0.56,1.24,1.23
		s-0.56,1.23-1.24,1.23C161.91,39.79,161.35,39.23,161.35,38.56z"/>
	<path class="st0" d="M166.09,47.02c0-2.78,1.77-4.94,3.95-4.94c1.35,0,2.4,0.94,3.1,2.31h0.07c-0.04-0.63-0.07-1.98-0.07-3.39
		v-3.05c0-1.03-0.25-1.28-1.23-1.28h-0.56v-0.31l3.39-0.34v14.01c0,1.01,0.2,1.3,1.19,1.3h0.18v0.31l-2.96,0.34l0.09-2.51h-0.07
		c-0.74,1.37-1.68,2.47-3.21,2.47C168.09,51.94,166.09,50.07,166.09,47.02z M173.14,47c0-3.34-1.86-4.58-2.83-4.58
		c-1.84,0-2.33,2.09-2.33,4.53c0,2.49,0.61,4.62,2.31,4.62C171.45,51.58,173.14,49.96,173.14,47z"/>
	<path class="st0" d="M177.04,47.07c0-3.03,2.11-5.07,4.35-5.07c1.79,0,3.86,1.39,3.86,4.29c0,0.07-0.02,0.56-0.04,0.67h-6.33
		c0,2.47,0.99,4.38,2.92,4.38c1.73,0,2.6-0.88,3.34-1.95l0.25,0.18c-0.83,1.39-2.13,2.49-4.08,2.49
		C178.73,52.05,177.04,50.14,177.04,47.07z M182.25,46.59c0.9,0,1.14-0.29,1.14-1.01c0-1.8-0.63-3.25-2.06-3.25
		c-1.57,0-2.38,1.68-2.45,4.26H182.25z"/>
	<path class="st0" d="M186.43,51.4h0.16c0.99,0,1.21-0.25,1.21-1.26v-6.28c0-1.01-0.27-1.26-1.21-1.26h-0.16v-0.27l2.99-0.18
		l-0.16,3.79h0.04c0.7-2.45,1.82-3.91,3.3-3.91c1.15,0,1.8,0.67,1.8,1.46c0,0.88-0.49,1.32-1.12,1.32c-0.56,0-1.01-0.36-1.01-0.92
		c0-0.49,0.27-0.72,0.47-0.9c0.11-0.09,0.18-0.16,0.18-0.27c0-0.18-0.22-0.22-0.49-0.22c-1.62,0-2.99,3.19-2.99,4.96v2.67
		c0,1.01,0.22,1.26,1.21,1.26h0.52v0.31h-4.74V51.4z"/>
	<path class="st0" d="M10.99,72.75c0-1.91,1.71-2.92,5.93-3.91V68.2c0-2.15-0.85-2.9-2.2-2.9c-1.21,0-2.24,0.52-2.24,0.92
		c0,0.07,0.02,0.09,0.11,0.09c0.45,0,0.94,0.43,0.94,0.99c0,0.58-0.45,1.03-1.01,1.03c-0.58,0-1.01-0.43-1.01-1.08
		c0-1.17,1.23-2.27,3.64-2.27c1.8,0,3.37,0.65,3.37,3.3v4.6c0,0.94,0.27,1.23,0.58,1.23c0.54,0,0.76-0.56,0.79-1.8h0.31
		c-0.04,2.13-0.79,2.54-1.71,2.54c-0.88,0-1.68-0.49-1.57-2.11h-0.04c-0.43,1.17-1.77,2.15-3.34,2.15
		C12.09,74.91,10.99,74.19,10.99,72.75z M16.92,70.82v-1.62c-3.43,0.7-4.06,1.89-4.06,3.16c0,1.01,0.54,1.75,1.57,1.75
		C15.53,74.12,16.92,73.31,16.92,70.82z"/>
	<path class="st0" d="M21.77,70.84v-9.97c0-1.03-0.22-1.28-1.21-1.28h-0.38v-0.31l3.17-0.34v4.87c0,1.73-0.07,3.52-0.07,3.52h0.04
		c0.85-1.48,1.73-2.31,3.19-2.31c1.95,0,3.86,2.11,3.86,4.89c0,3.1-2.06,4.96-3.93,4.96c-1.53,0-2.33-0.85-3.1-2.22H23.3l-1.53,2.4
		h-0.29C21.7,73.78,21.77,72.21,21.77,70.84z M28.48,69.97c0-2.47-0.58-4.58-2.24-4.58c-1.53,0-2.92,1.86-2.92,4.56
		c0,2.51,1.26,4.58,2.87,4.58C27.52,74.52,28.48,73.27,28.48,69.97z"/>
	<path class="st0" d="M31.71,69.95c0-2.92,2.29-5.01,4.4-5.01s4.38,2.04,4.38,4.96c0,2.85-2.27,5.1-4.38,5.1S31.71,72.8,31.71,69.95
		z M38.6,69.97c0-2.6-0.67-4.71-2.49-4.71c-1.82,0-2.49,2.06-2.49,4.67c0,2.58,0.63,4.76,2.49,4.76
		C37.98,74.68,38.6,72.55,38.6,69.97z"/>
	<path class="st0" d="M42.67,71.7v-4.85c0-0.99-0.22-1.28-1.21-1.28h-0.2v-0.29l3.01-0.18v7c0,1.59,0.61,2.22,1.66,2.22
		c1.39,0,2.78-1.98,2.78-3.86v-3.59c0-1.03-0.22-1.3-1.21-1.3h-0.45v-0.29l3.28-0.18v7.86c0,1.01,0.25,1.3,1.23,1.3h0.16v0.29
		l-2.98,0.34l0.11-2.78H48.8c-0.58,1.53-1.89,2.78-3.41,2.78C43.61,74.88,42.67,73.85,42.67,71.7z"/>
	<path class="st0" d="M53.67,72.08v-6.46h-1.53v-0.27c1.44-0.25,2.63-1.23,2.85-4.13h0.29v4.04h3.03v0.36h-3.03v6.58
		c0,1.41,0.52,2.11,1.53,2.11c0.92,0,1.66-1.01,1.75-2.99h0.31c0,2.29-1.01,3.64-2.63,3.64C54.66,74.95,53.67,74.03,53.67,72.08z"/>
	<path class="st0" d="M65.16,72.75c0-1.91,1.71-2.92,5.93-3.91V68.2c0-2.15-0.85-2.9-2.2-2.9c-1.21,0-2.24,0.52-2.24,0.92
		c0,0.07,0.02,0.09,0.11,0.09c0.45,0,0.94,0.43,0.94,0.99c0,0.58-0.45,1.03-1.01,1.03c-0.58,0-1.01-0.43-1.01-1.08
		c0-1.17,1.23-2.27,3.64-2.27c1.8,0,3.37,0.65,3.37,3.3v4.6c0,0.94,0.27,1.23,0.58,1.23c0.54,0,0.76-0.56,0.79-1.8h0.31
		c-0.04,2.13-0.79,2.54-1.71,2.54c-0.88,0-1.68-0.49-1.57-2.11h-0.04c-0.43,1.17-1.77,2.15-3.34,2.15
		C66.26,74.91,65.16,74.19,65.16,72.75z M71.09,70.82v-1.62c-3.43,0.7-4.06,1.89-4.06,3.16c0,1.01,0.54,1.75,1.57,1.75
		C69.7,74.12,71.09,73.31,71.09,70.82z"/>
	<path class="st0" d="M80.04,78.92h0.27c0.99,0,1.21-0.25,1.21-1.28v-10.8c0-1.03-0.22-1.28-1.21-1.28h-0.16v-0.29l2.92-0.18
		l-0.07,2.29h0.04c0.72-1.39,1.68-2.36,3.14-2.36c1.84,0,3.93,1.91,3.93,4.92c0,2.96-2.04,4.94-4.02,4.94
		c-1.53,0-2.47-1.06-3.08-2.42h-0.02c0,0,0.09,1.39,0.09,2.81v2.38c0,1.03,0.22,1.28,1.21,1.28h0.52v0.31h-4.78V78.92z M88.24,69.99
		c0-2.33-0.54-4.6-2.27-4.6c-1.1,0-2.9,1.3-2.9,4.58c0,2.31,1.23,4.56,2.85,4.56C87.65,74.52,88.24,72.42,88.24,69.99z"/>
	<path class="st0" d="M91.47,70.01c0-3.03,2.11-5.07,4.35-5.07c1.8,0,3.86,1.39,3.86,4.29c0,0.07-0.02,0.56-0.04,0.67h-6.33
		c0,2.47,0.99,4.38,2.92,4.38c1.73,0,2.6-0.88,3.34-1.95l0.25,0.18C98.99,73.9,97.69,75,95.74,75C93.15,75,91.47,73.09,91.47,70.01z
		 M96.68,69.54c0.9,0,1.14-0.29,1.14-1.01c0-1.8-0.63-3.25-2.06-3.25c-1.57,0-2.38,1.68-2.45,4.26H96.68z"/>
	<path class="st0" d="M100.85,74.35h0.16c0.99,0,1.21-0.25,1.21-1.26V66.8c0-1.01-0.27-1.26-1.21-1.26h-0.16v-0.27l2.98-0.18
		l-0.16,3.79h0.04c0.7-2.45,1.82-3.91,3.3-3.91c1.14,0,1.8,0.67,1.8,1.46c0,0.88-0.49,1.32-1.12,1.32c-0.56,0-1.01-0.36-1.01-0.92
		c0-0.49,0.27-0.72,0.47-0.9c0.11-0.09,0.18-0.16,0.18-0.27c0-0.18-0.22-0.22-0.49-0.22c-1.62,0-2.99,3.19-2.99,4.96v2.67
		c0,1.01,0.22,1.26,1.21,1.26h0.52v0.31h-4.74V74.35z"/>
	<path class="st0" d="M110.73,74.1c-0.34,0-0.63,0.27-0.81,0.76h-0.22v-3.82h0.2c0.38,2.2,2.18,3.52,3.95,3.52
		c1.32,0,2.27-0.76,2.27-1.82c0-1.01-0.7-1.39-2.96-2.04c-1.98-0.56-3.34-1.08-3.34-3.03c0-1.62,1.21-2.63,2.92-2.63
		c1.3,0,1.89,0.58,2.58,0.58c0.36,0,0.65-0.18,0.81-0.56h0.22v3.41h-0.2c-0.36-1.84-1.64-3.12-3.52-3.12
		c-1.03,0-1.86,0.67-1.86,1.66c0,1.05,0.88,1.39,2.76,1.89c2.45,0.65,3.55,1.35,3.55,3.12c0,1.8-1.37,2.85-3.3,2.85
		C112.37,74.88,111.27,74.1,110.73,74.1z"/>
	<path class="st0" d="M118.45,69.95c0-2.92,2.29-5.01,4.4-5.01s4.38,2.04,4.38,4.96c0,2.85-2.27,5.1-4.38,5.1
		S118.45,72.8,118.45,69.95z M125.34,69.97c0-2.6-0.67-4.71-2.49-4.71c-1.82,0-2.49,2.06-2.49,4.67c0,2.58,0.63,4.76,2.49,4.76
		C124.72,74.68,125.34,72.55,125.34,69.97z"/>
	<path class="st0" d="M128.33,74.35h0.16c0.99,0,1.21-0.25,1.21-1.26v-6.26c0-1.01-0.22-1.28-1.21-1.28h-0.16v-0.27l2.98-0.18
		l-0.11,2.76h0.04c0.61-1.82,2.02-2.78,3.48-2.78c1.82,0,2.65,1.12,2.65,3.34v4.67c0,1.01,0.22,1.26,1.23,1.26h0.04v0.31h-4.33
		v-0.31h0.22c1.01,0,1.23-0.25,1.23-1.26v-5.23c0-1.57-0.67-2.06-1.57-2.06c-1.64,0-2.87,1.64-2.87,3.64v3.66
		c0,1.01,0.22,1.26,1.21,1.26h0.22v0.31h-4.44V74.35z"/>
	<path class="st0" d="M139.53,72.75c0-1.91,1.71-2.92,5.93-3.91V68.2c0-2.15-0.85-2.9-2.2-2.9c-1.21,0-2.24,0.52-2.24,0.92
		c0,0.07,0.02,0.09,0.11,0.09c0.45,0,0.94,0.43,0.94,0.99c0,0.58-0.45,1.03-1.01,1.03c-0.58,0-1.01-0.43-1.01-1.08
		c0-1.17,1.23-2.27,3.64-2.27c1.8,0,3.37,0.65,3.37,3.3v4.6c0,0.94,0.27,1.23,0.58,1.23c0.54,0,0.76-0.56,0.79-1.8h0.31
		c-0.04,2.13-0.79,2.54-1.71,2.54c-0.88,0-1.68-0.49-1.57-2.11h-0.04c-0.43,1.17-1.77,2.15-3.34,2.15
		C140.63,74.91,139.53,74.19,139.53,72.75z M145.46,70.82v-1.62c-3.43,0.7-4.06,1.89-4.06,3.16c0,1.01,0.54,1.75,1.57,1.75
		C144.07,74.12,145.46,73.31,145.46,70.82z"/>
	<path class="st0" d="M149.28,74.35h0.09c1.01,0,1.23-0.27,1.23-1.35V60.95c0-1.08-0.22-1.35-1.23-1.35h-0.18v-0.31l3.01-0.34V73
		c0,1.08,0.22,1.35,1.21,1.35h0.18v0.31h-4.31V74.35z"/>
	<path class="st0" d="M154.44,74.35h0.18c0.99,0,1.21-0.25,1.21-1.26v-6.24c0-1.03-0.22-1.28-1.21-1.28h-0.18v-0.29l2.99-0.18v7.99
		c0,1.01,0.22,1.26,1.21,1.26h0.18v0.31h-4.38V74.35z M155.18,61.51c0-0.67,0.56-1.23,1.23-1.23c0.67,0,1.24,0.56,1.24,1.23
		s-0.56,1.23-1.24,1.23C155.74,62.74,155.18,62.18,155.18,61.51z"/>
	<path class="st0" d="M159.76,74.44l6.15-8.87h-2.02c-2.09,0-2.92,1.05-3.5,3.41h-0.22l0.25-3.7h7.36v0.18l-6.17,8.91h2.56
		c2.36,0,3.1-1.39,3.5-3.61h0.22l-0.25,3.91h-7.88V74.44z"/>
	<path class="st0" d="M169.19,70.01c0-3.03,2.11-5.07,4.35-5.07c1.79,0,3.86,1.39,3.86,4.29c0,0.07-0.02,0.56-0.04,0.67h-6.33
		c0,2.47,0.99,4.38,2.92,4.38c1.73,0,2.6-0.88,3.34-1.95l0.25,0.18c-0.83,1.39-2.13,2.49-4.08,2.49
		C170.87,75,169.19,73.09,169.19,70.01z M174.39,69.54c0.9,0,1.14-0.29,1.14-1.01c0-1.8-0.63-3.25-2.06-3.25
		c-1.57,0-2.38,1.68-2.45,4.26H174.39z"/>
	<path class="st0" d="M178.82,69.97c0-2.78,1.77-4.94,3.95-4.94c1.35,0,2.4,0.94,3.1,2.31h0.07c-0.04-0.63-0.07-1.98-0.07-3.39V60.9
		c0-1.03-0.25-1.28-1.23-1.28h-0.56v-0.31l3.39-0.34v14.01c0,1.01,0.2,1.3,1.19,1.3h0.18v0.31l-2.96,0.34l0.09-2.51h-0.07
		c-0.74,1.37-1.68,2.47-3.21,2.47C180.82,74.88,178.82,73.02,178.82,69.97z M185.87,69.95c0-3.34-1.86-4.58-2.83-4.58
		c-1.84,0-2.33,2.09-2.33,4.53c0,2.49,0.61,4.62,2.31,4.62C184.18,74.52,185.87,72.91,185.87,69.95z"/>
	<path class="st0" d="M12,95.03v-6.46h-1.53v-0.27c1.44-0.25,2.63-1.23,2.85-4.13h0.29v4.04h3.03v0.36h-3.03v6.58
		c0,1.41,0.52,2.11,1.53,2.11c0.92,0,1.66-1.01,1.75-2.99h0.31c0,2.29-1.01,3.64-2.63,3.64C12.99,97.9,12,96.98,12,95.03z"/>
	<path class="st0" d="M17.89,97.29h0.16c0.99,0,1.21-0.25,1.21-1.26v-6.28c0-1.01-0.27-1.26-1.21-1.26h-0.16v-0.27l2.98-0.18
		l-0.16,3.79h0.04c0.7-2.45,1.82-3.91,3.3-3.91c1.14,0,1.8,0.67,1.8,1.46c0,0.88-0.49,1.32-1.12,1.32c-0.56,0-1.01-0.36-1.01-0.92
		c0-0.49,0.27-0.72,0.47-0.9c0.11-0.09,0.18-0.16,0.18-0.27c0-0.18-0.22-0.22-0.49-0.22c-1.62,0-2.99,3.19-2.99,4.96v2.67
		c0,1.01,0.22,1.26,1.21,1.26h0.52v0.31h-4.74V97.29z"/>
	<path class="st0" d="M26.37,92.96c0-3.03,2.11-5.07,4.35-5.07c1.8,0,3.86,1.39,3.86,4.29c0,0.07-0.02,0.56-0.04,0.67h-6.33
		c0,2.47,0.99,4.38,2.92,4.38c1.73,0,2.6-0.88,3.34-1.95l0.25,0.18c-0.83,1.39-2.13,2.49-4.09,2.49
		C28.05,97.94,26.37,96.04,26.37,92.96z M31.58,92.49c0.9,0,1.14-0.29,1.14-1.01c0-1.8-0.63-3.25-2.06-3.25
		c-1.57,0-2.38,1.68-2.45,4.27H31.58z"/>
	<path class="st0" d="M35.96,95.7c0-1.91,1.71-2.92,5.93-3.91v-0.65c0-2.15-0.85-2.9-2.2-2.9c-1.21,0-2.24,0.52-2.24,0.92
		c0,0.07,0.02,0.09,0.11,0.09c0.45,0,0.94,0.43,0.94,0.99c0,0.58-0.45,1.03-1.01,1.03c-0.58,0-1.01-0.43-1.01-1.08
		c0-1.17,1.23-2.27,3.64-2.27c1.8,0,3.37,0.65,3.37,3.3v4.6c0,0.94,0.27,1.23,0.58,1.23c0.54,0,0.76-0.56,0.79-1.79h0.31
		c-0.04,2.13-0.79,2.54-1.71,2.54c-0.88,0-1.68-0.49-1.57-2.11h-0.04c-0.43,1.17-1.77,2.16-3.34,2.16
		C37.06,97.85,35.96,97.14,35.96,95.7z M41.88,93.77v-1.62c-3.43,0.7-4.06,1.88-4.06,3.17c0,1.01,0.54,1.75,1.57,1.75
		C40.49,97.07,41.88,96.26,41.88,93.77z"/>
	<path class="st0" d="M46.69,95.03v-6.46h-1.53v-0.27c1.44-0.25,2.63-1.23,2.85-4.13h0.29v4.04h3.03v0.36H48.3v6.58
		c0,1.41,0.52,2.11,1.53,2.11c0.92,0,1.66-1.01,1.75-2.99h0.31c0,2.29-1.01,3.64-2.63,3.64C47.67,97.9,46.69,96.98,46.69,95.03z"/>
	<path class="st0" d="M52.57,97.29h0.16c0.99,0,1.21-0.25,1.21-1.26v-6.26c0-1.01-0.22-1.28-1.21-1.28h-0.16v-0.27l2.98-0.18
		l-0.11,2.76h0.04c0.58-1.75,1.95-2.78,3.41-2.78c1.71,0,2.38,1.08,2.56,2.54c0.7-1.57,1.93-2.54,3.34-2.54
		c1.82,0,2.58,1.12,2.58,3.34v4.67c0,1.01,0.22,1.26,1.23,1.26h0.04v0.31h-4.33v-0.31h0.22c1.01,0,1.23-0.25,1.23-1.26v-5.23
		c0-1.57-0.61-2.07-1.5-2.07c-1.64,0-2.81,1.8-2.81,3.64v3.66c0,1.01,0.22,1.26,1.23,1.26h0.2v0.31h-4.49v-0.31h0.22
		c1.01,0,1.23-0.25,1.23-1.26v-5.23c0-1.57-0.61-2.07-1.5-2.07c-1.62,0-2.81,1.73-2.81,3.64v3.66c0,1.01,0.22,1.26,1.21,1.26h0.22
		v0.31h-4.44V97.29z"/>
	<path class="st0" d="M69.58,92.96c0-3.03,2.11-5.07,4.35-5.07c1.8,0,3.86,1.39,3.86,4.29c0,0.07-0.02,0.56-0.04,0.67h-6.33
		c0,2.47,0.99,4.38,2.92,4.38c1.73,0,2.6-0.88,3.34-1.95l0.25,0.18c-0.83,1.39-2.13,2.49-4.09,2.49
		C71.27,97.94,69.58,96.04,69.58,92.96z M74.79,92.49c0.9,0,1.14-0.29,1.14-1.01c0-1.8-0.63-3.25-2.06-3.25
		c-1.57,0-2.38,1.68-2.45,4.27H74.79z"/>
	<path class="st0" d="M78.97,97.29h0.16c0.99,0,1.21-0.25,1.21-1.26v-6.26c0-1.01-0.22-1.28-1.21-1.28h-0.16v-0.27l2.98-0.18
		l-0.11,2.76h0.04c0.61-1.82,2.02-2.78,3.48-2.78c1.82,0,2.65,1.12,2.65,3.34v4.67c0,1.01,0.22,1.26,1.23,1.26h0.04v0.31h-4.33
		v-0.31h0.22c1.01,0,1.23-0.25,1.23-1.26v-5.23c0-1.57-0.67-2.07-1.57-2.07c-1.64,0-2.87,1.64-2.87,3.64v3.66
		c0,1.01,0.22,1.26,1.21,1.26h0.22v0.31h-4.44V97.29z"/>
	<path class="st0" d="M91.18,95.03v-6.46h-1.53v-0.27c1.44-0.25,2.63-1.23,2.85-4.13h0.29v4.04h3.03v0.36H92.8v6.58
		c0,1.41,0.52,2.11,1.53,2.11c0.92,0,1.66-1.01,1.75-2.99h0.31c0,2.29-1.01,3.64-2.63,3.64C92.17,97.9,91.18,96.98,91.18,95.03z"/>
	<path class="st0" d="M102.2,101.87h0.27c0.99,0,1.21-0.25,1.21-1.28V89.8c0-1.03-0.22-1.28-1.21-1.28h-0.16v-0.29l2.92-0.18
		l-0.07,2.29h0.04c0.72-1.39,1.68-2.36,3.14-2.36c1.84,0,3.93,1.91,3.93,4.92c0,2.96-2.04,4.94-4.02,4.94
		c-1.53,0-2.47-1.05-3.08-2.42h-0.02c0,0,0.09,1.39,0.09,2.81v2.38c0,1.03,0.22,1.28,1.21,1.28h0.52v0.31h-4.78V101.87z
		 M110.39,92.94c0-2.33-0.54-4.6-2.27-4.6c-1.1,0-2.9,1.3-2.9,4.58c0,2.31,1.23,4.56,2.85,4.56
		C109.81,97.47,110.39,95.36,110.39,92.94z"/>
	<path class="st0" d="M113.38,97.29h0.09c1.01,0,1.23-0.27,1.23-1.35V83.89c0-1.08-0.22-1.35-1.23-1.35h-0.18v-0.31l3.01-0.34v14.05
		c0,1.08,0.22,1.35,1.21,1.35h0.18v0.31h-4.31V97.29z"/>
	<path class="st0" d="M118.7,95.7c0-1.91,1.71-2.92,5.93-3.91v-0.65c0-2.15-0.85-2.9-2.2-2.9c-1.21,0-2.24,0.52-2.24,0.92
		c0,0.07,0.02,0.09,0.11,0.09c0.45,0,0.94,0.43,0.94,0.99c0,0.58-0.45,1.03-1.01,1.03c-0.58,0-1.01-0.43-1.01-1.08
		c0-1.17,1.23-2.27,3.64-2.27c1.8,0,3.37,0.65,3.37,3.3v4.6c0,0.94,0.27,1.23,0.58,1.23c0.54,0,0.76-0.56,0.79-1.79h0.31
		c-0.04,2.13-0.79,2.54-1.71,2.54c-0.88,0-1.68-0.49-1.57-2.11h-0.04c-0.43,1.17-1.77,2.16-3.34,2.16
		C119.8,97.85,118.7,97.14,118.7,95.7z M124.63,93.77v-1.62c-3.43,0.7-4.06,1.88-4.06,3.17c0,1.01,0.54,1.75,1.57,1.75
		C123.23,97.07,124.63,96.26,124.63,93.77z"/>
	<path class="st0" d="M128.44,97.29h0.16c0.99,0,1.21-0.25,1.21-1.26v-6.26c0-1.01-0.22-1.28-1.21-1.28h-0.16v-0.27l2.98-0.18
		l-0.11,2.76h0.04c0.61-1.82,2.02-2.78,3.48-2.78c1.82,0,2.65,1.12,2.65,3.34v4.67c0,1.01,0.22,1.26,1.23,1.26h0.04v0.31h-4.33
		v-0.31h0.22c1.01,0,1.23-0.25,1.23-1.26v-5.23c0-1.57-0.67-2.07-1.57-2.07c-1.64,0-2.87,1.64-2.87,3.64v3.66
		c0,1.01,0.22,1.26,1.21,1.26h0.22v0.31h-4.44V97.29z"/>
	<path class="st0" d="M140.25,96.49c0-0.72,0.56-1.28,1.28-1.28s1.28,0.56,1.28,1.28c0,0.72-0.56,1.28-1.28,1.28
		S140.25,97.2,140.25,96.49z"/>
</g>
</svg>
