<?xml version="1.0" encoding="utf-8"?>
<!-- Generator: Adobe Illustrator 25.4.1, SVG Export Plug-In . SVG Version: 6.00 Build 0)  -->
<svg version="1.1" id="Layer_1" xmlns="http://www.w3.org/2000/svg" xmlns:xlink="http://www.w3.org/1999/xlink" x="0px" y="0px"
	 viewBox="0 0 300 250" style="enable-background:new 0 0 300 250;" xml:space="preserve">
<style type="text/css">
	.st0{fill:#FFFFFF;}
</style>
<g>
	<path class="st0" d="M12.85,50.69c0-0.74,0.45-1.35,1.17-1.35s1.17,0.52,1.17,1.21c0,0.47-0.22,0.76-0.56,1.01
		c-0.18,0.13-0.36,0.22-0.36,0.36c-0.02,0.47,0.79,0.7,1.41,0.7c3.05,0,3.75-3.52,3.64-7.63c-0.63,1.19-1.73,1.93-2.9,1.93
		c-2.36,0-3.95-1.59-3.95-4.38c0-2.87,2.02-4.76,4.33-4.76c2.81,0,4.49,2.63,4.49,6.89c0,4.67-2.36,8.28-5.59,8.28
		C13.84,52.96,12.85,51.75,12.85,50.69z M19.34,42.41c0-2.2-0.72-4.33-2.49-4.33c-1.75,0-2.38,2.2-2.38,4.4
		c0,2.4,0.61,4.06,2.27,4.06C18.26,46.54,19.34,44.61,19.34,42.41z"/>
	<path class="st0" d="M28.3,47.95c0-2.92,2.29-5.01,4.4-5.01s4.38,2.04,4.38,4.96c0,2.85-2.27,5.1-4.38,5.1S28.3,50.8,28.3,47.95z
		 M35.19,47.98c0-2.6-0.67-4.71-2.49-4.71c-1.82,0-2.49,2.06-2.49,4.67c0,2.58,0.63,4.76,2.49,4.76
		C34.56,52.69,35.19,50.56,35.19,47.98z"/>
	<path class="st0" d="M39.21,49.7v-4.85c0-0.99-0.22-1.28-1.21-1.28h-0.2v-0.29l3.01-0.18v7c0,1.59,0.61,2.22,1.66,2.22
		c1.39,0,2.78-1.98,2.78-3.86v-3.59c0-1.03-0.22-1.3-1.21-1.3h-0.45v-0.29l3.28-0.18v7.86c0,1.01,0.25,1.3,1.23,1.3h0.16v0.29
		l-2.98,0.34l0.11-2.78h-0.04c-0.58,1.53-1.89,2.78-3.41,2.78C40.15,52.89,39.21,51.86,39.21,49.7z"/>
	<path class="st0" d="M50.17,50.09v-6.46h-1.53v-0.27c1.44-0.25,2.63-1.23,2.85-4.13h0.29v4.04h3.03v0.36h-3.03v6.58
		c0,1.41,0.52,2.11,1.53,2.11c0.92,0,1.66-1.01,1.75-2.98h0.31c0,2.29-1.01,3.64-2.63,3.64C51.16,52.96,50.17,52.04,50.17,50.09z"/>
	<path class="st0" d="M61.62,47.95c0-2.92,2.29-5.01,4.4-5.01s4.38,2.04,4.38,4.96c0,2.85-2.27,5.1-4.38,5.1S61.62,50.8,61.62,47.95
		z M68.51,47.98c0-2.6-0.67-4.71-2.49-4.71c-1.82,0-2.49,2.06-2.49,4.67c0,2.58,0.63,4.76,2.49,4.76
		C67.88,52.69,68.51,50.56,68.51,47.98z"/>
	<path class="st0" d="M71.72,52.35h0.18c0.99,0,1.21-0.25,1.21-1.26v-7.47h-1.39v-0.34h1.39v-1.55c0-2.56,1.21-4.74,3.64-4.74
		c1.35,0,2.09,0.76,2.09,1.73c0,0.74-0.49,1.17-1.1,1.17s-0.99-0.38-0.99-0.97c0-0.38,0.18-0.65,0.36-0.83
		c0.13-0.13,0.25-0.25,0.25-0.38c0-0.22-0.31-0.45-0.74-0.45c-1.53,0-1.89,1.62-1.89,3.84v2.18h2.29v0.34h-2.29v7.47
		c0,1.01,0.22,1.26,1.21,1.26h0.43v0.31h-4.65V52.35z"/>
	<path class="st0" d="M83.6,52.33h0.83c0.97,0,1.35-0.27,1.35-1.28v-10.1c0-1.01-0.38-1.28-1.35-1.28H83.6v-0.34
		c2.45-0.18,3.32-0.85,3.7-1.64h0.27v13.35c0,1.01,0.36,1.28,1.32,1.28h0.65v0.34H83.6V52.33z"/>
	<path class="st0" d="M91.08,45.39c0-4.62,2.45-7.61,4.96-7.61c2.51,0,4.87,2.99,4.87,7.61c0,4.62-2.45,7.63-4.94,7.63
		C93.46,53.03,91.08,50.02,91.08,45.39z M98.82,45.39c0-4.83-0.99-7.29-2.85-7.29c-1.91,0-2.81,2.47-2.81,7.29s0.99,7.32,2.87,7.32
		S98.82,50.22,98.82,45.39z"/>
	<path class="st0" d="M107.38,56.93h0.27c0.99,0,1.21-0.25,1.21-1.28v-10.8c0-1.03-0.22-1.28-1.21-1.28h-0.16v-0.29l2.92-0.18
		l-0.07,2.29h0.04c0.72-1.39,1.68-2.36,3.14-2.36c1.84,0,3.93,1.91,3.93,4.92c0,2.96-2.04,4.94-4.02,4.94
		c-1.53,0-2.47-1.06-3.08-2.42h-0.02c0,0,0.09,1.39,0.09,2.81v2.38c0,1.03,0.22,1.28,1.21,1.28h0.52v0.31h-4.78V56.93z M115.57,48
		c0-2.33-0.54-4.6-2.27-4.6c-1.1,0-2.9,1.3-2.9,4.58c0,2.31,1.23,4.56,2.85,4.56C114.99,52.53,115.57,50.42,115.57,48z"/>
	<path class="st0" d="M118.72,50.76c0-1.91,1.71-2.92,5.93-3.91V46.2c0-2.15-0.85-2.9-2.2-2.9c-1.21,0-2.24,0.52-2.24,0.92
		c0,0.07,0.02,0.09,0.11,0.09c0.45,0,0.94,0.43,0.94,0.99c0,0.58-0.45,1.03-1.01,1.03c-0.58,0-1.01-0.43-1.01-1.08
		c0-1.17,1.23-2.27,3.64-2.27c1.8,0,3.37,0.65,3.37,3.3v4.6c0,0.94,0.27,1.23,0.58,1.23c0.54,0,0.76-0.56,0.79-1.8h0.31
		c-0.04,2.13-0.79,2.54-1.71,2.54c-0.88,0-1.68-0.49-1.57-2.11h-0.04c-0.43,1.17-1.77,2.15-3.34,2.15
		C119.82,52.91,118.72,52.2,118.72,50.76z M124.64,48.83v-1.62c-3.43,0.7-4.06,1.89-4.06,3.16c0,1.01,0.54,1.75,1.57,1.75
		C123.25,52.13,124.64,51.32,124.64,48.83z"/>
	<path class="st0" d="M129.4,50.09v-6.46h-1.53v-0.27c1.44-0.25,2.63-1.23,2.85-4.13h0.29v4.04h3.03v0.36h-3.03v6.58
		c0,1.41,0.52,2.11,1.53,2.11c0.92,0,1.66-1.01,1.75-2.98h0.31c0,2.29-1.01,3.64-2.63,3.64C130.39,52.96,129.4,52.04,129.4,50.09z"
		/>
	<path class="st0" d="M135.29,52.35h0.18c0.99,0,1.21-0.25,1.21-1.26v-6.24c0-1.03-0.22-1.28-1.21-1.28h-0.18v-0.29l2.98-0.18v7.99
		c0,1.01,0.22,1.26,1.21,1.26h0.18v0.31h-4.38V52.35z M136.03,39.51c0-0.67,0.56-1.23,1.23-1.23s1.23,0.56,1.23,1.23
		s-0.56,1.23-1.23,1.23S136.03,40.19,136.03,39.51z"/>
	<path class="st0" d="M140.72,48.02c0-3.03,2.11-5.07,4.35-5.07c1.79,0,3.86,1.39,3.86,4.29c0,0.07-0.02,0.56-0.04,0.67h-6.33
		c0,2.47,0.99,4.38,2.92,4.38c1.73,0,2.6-0.88,3.34-1.95l0.25,0.18c-0.83,1.39-2.13,2.49-4.08,2.49
		C142.4,53,140.72,51.1,140.72,48.02z M145.93,47.55c0.9,0,1.14-0.29,1.14-1.01c0-1.8-0.63-3.25-2.06-3.25
		c-1.57,0-2.38,1.68-2.45,4.26H145.93z"/>
	<path class="st0" d="M150.06,52.35h0.16c0.99,0,1.21-0.25,1.21-1.26v-6.26c0-1.01-0.22-1.28-1.21-1.28h-0.16v-0.27l2.99-0.18
		l-0.11,2.76h0.04c0.61-1.82,2.02-2.78,3.48-2.78c1.82,0,2.65,1.12,2.65,3.34v4.67c0,1.01,0.22,1.26,1.24,1.26h0.04v0.31h-4.33
		v-0.31h0.22c1.01,0,1.24-0.25,1.24-1.26v-5.23c0-1.57-0.67-2.06-1.57-2.06c-1.64,0-2.87,1.64-2.87,3.64v3.66
		c0,1.01,0.22,1.26,1.21,1.26h0.22v0.31h-4.44V52.35z"/>
	<path class="st0" d="M162.23,50.09v-6.46h-1.53v-0.27c1.44-0.25,2.63-1.23,2.85-4.13h0.29v4.04h3.03v0.36h-3.03v6.58
		c0,1.41,0.52,2.11,1.53,2.11c0.92,0,1.66-1.01,1.75-2.98h0.31c0,2.29-1.01,3.64-2.63,3.64C163.21,52.96,162.23,52.04,162.23,50.09z
		"/>
	<path class="st0" d="M169.7,52.11c-0.34,0-0.63,0.27-0.81,0.76h-0.22v-3.82h0.2c0.38,2.2,2.18,3.52,3.95,3.52
		c1.33,0,2.27-0.76,2.27-1.82c0-1.01-0.7-1.39-2.96-2.04c-1.98-0.56-3.34-1.08-3.34-3.03c0-1.62,1.21-2.63,2.92-2.63
		c1.3,0,1.89,0.58,2.58,0.58c0.36,0,0.65-0.18,0.81-0.56h0.22v3.41h-0.2c-0.36-1.84-1.64-3.12-3.52-3.12
		c-1.03,0-1.86,0.67-1.86,1.66c0,1.05,0.88,1.39,2.76,1.89c2.45,0.65,3.55,1.35,3.55,3.12c0,1.8-1.37,2.85-3.3,2.85
		C171.34,52.89,170.24,52.11,169.7,52.11z"/>
	<path class="st0" d="M12,75.3h0.16c0.99,0,1.21-0.25,1.21-1.26v-6.28c0-1.01-0.27-1.26-1.21-1.26H12v-0.27l2.98-0.18l-0.16,3.79
		h0.04c0.7-2.45,1.82-3.91,3.3-3.91c1.14,0,1.8,0.67,1.8,1.46c0,0.88-0.49,1.32-1.12,1.32c-0.56,0-1.01-0.36-1.01-0.92
		c0-0.49,0.27-0.72,0.47-0.9c0.11-0.09,0.18-0.16,0.18-0.27c0-0.18-0.22-0.22-0.49-0.22c-1.62,0-2.99,3.19-2.99,4.96v2.67
		c0,1.01,0.22,1.26,1.21,1.26h0.52v0.31H12V75.3z"/>
	<path class="st0" d="M20.44,70.97c0-3.03,2.11-5.07,4.35-5.07c1.8,0,3.86,1.39,3.86,4.29c0,0.07-0.02,0.56-0.04,0.67h-6.33
		c0,2.47,0.99,4.38,2.92,4.38c1.73,0,2.6-0.88,3.34-1.95l0.25,0.18c-0.83,1.39-2.13,2.49-4.09,2.49
		C22.12,75.96,20.44,74.05,20.44,70.97z M25.65,70.5c0.9,0,1.14-0.29,1.14-1.01c0-1.8-0.63-3.25-2.06-3.25
		c-1.57,0-2.38,1.68-2.45,4.26H25.65z"/>
	<path class="st0" d="M29.51,79.88h0.27c0.99,0,1.21-0.25,1.21-1.28v-10.8c0-1.03-0.22-1.28-1.21-1.28h-0.16v-0.29l2.92-0.18
		l-0.07,2.29h0.04c0.72-1.39,1.68-2.36,3.14-2.36c1.84,0,3.93,1.91,3.93,4.92c0,2.96-2.04,4.94-4.02,4.94
		c-1.53,0-2.47-1.06-3.08-2.42h-0.02c0,0,0.09,1.39,0.09,2.81v2.38c0,1.03,0.22,1.28,1.21,1.28h0.52v0.31h-4.78V79.88z M37.71,70.95
		c0-2.33-0.54-4.6-2.27-4.6c-1.1,0-2.9,1.3-2.9,4.58c0,2.31,1.23,4.56,2.85,4.56C37.12,75.48,37.71,73.37,37.71,70.95z"/>
	<path class="st0" d="M40.9,70.9c0-2.92,2.29-5.01,4.4-5.01s4.38,2.04,4.38,4.96c0,2.85-2.27,5.1-4.38,5.1S40.9,73.76,40.9,70.9z
		 M47.79,70.93c0-2.6-0.67-4.71-2.49-4.71c-1.82,0-2.49,2.06-2.49,4.67c0,2.58,0.63,4.76,2.49,4.76
		C47.16,75.64,47.79,73.51,47.79,70.93z"/>
	<path class="st0" d="M50.73,75.3h0.16c0.99,0,1.21-0.25,1.21-1.26v-6.28c0-1.01-0.27-1.26-1.21-1.26h-0.16v-0.27l2.98-0.18
		l-0.16,3.79h0.04c0.7-2.45,1.82-3.91,3.3-3.91c1.14,0,1.8,0.67,1.8,1.46c0,0.88-0.49,1.32-1.12,1.32c-0.56,0-1.01-0.36-1.01-0.92
		c0-0.49,0.27-0.72,0.47-0.9c0.11-0.09,0.18-0.16,0.18-0.27c0-0.18-0.22-0.22-0.49-0.22c-1.62,0-2.99,3.19-2.99,4.96v2.67
		c0,1.01,0.22,1.26,1.21,1.26h0.52v0.31h-4.74V75.3z"/>
	<path class="st0" d="M60.63,73.04v-6.46H59.1V66.3c1.44-0.25,2.63-1.23,2.85-4.13h0.29v4.04h3.03v0.36h-3.03v6.58
		c0,1.41,0.52,2.11,1.53,2.11c0.92,0,1.66-1.01,1.75-2.98h0.31c0,2.29-1.01,3.64-2.63,3.64C61.62,75.91,60.63,74.99,60.63,73.04z"/>
	<path class="st0" d="M66.72,70.97c0-3.03,2.11-5.07,4.35-5.07c1.8,0,3.86,1.39,3.86,4.29c0,0.07-0.02,0.56-0.04,0.67h-6.33
		c0,2.47,0.99,4.38,2.92,4.38c1.73,0,2.6-0.88,3.34-1.95l0.25,0.18c-0.83,1.39-2.13,2.49-4.09,2.49
		C68.4,75.96,66.72,74.05,66.72,70.97z M71.92,70.5c0.9,0,1.14-0.29,1.14-1.01c0-1.8-0.63-3.25-2.06-3.25
		c-1.57,0-2.38,1.68-2.45,4.26H71.92z"/>
	<path class="st0" d="M76.3,70.93c0-2.78,1.77-4.94,3.95-4.94c1.35,0,2.4,0.94,3.1,2.31h0.07c-0.04-0.63-0.07-1.98-0.07-3.39v-3.05
		c0-1.03-0.25-1.28-1.23-1.28h-0.56v-0.31l3.39-0.34v14.01c0,1.01,0.2,1.3,1.19,1.3h0.18v0.31l-2.96,0.34l0.09-2.51h-0.07
		c-0.74,1.37-1.68,2.47-3.21,2.47C78.3,75.84,76.3,73.98,76.3,70.93z M83.35,70.9c0-3.34-1.86-4.58-2.83-4.58
		c-1.84,0-2.33,2.09-2.33,4.53c0,2.49,0.61,4.62,2.31,4.62C81.67,75.48,83.35,73.87,83.35,70.9z"/>
	<path class="st0" d="M93.37,71.8v-9.97c0-1.03-0.22-1.28-1.21-1.28h-0.38v-0.31l3.17-0.34v4.87c0,1.73-0.07,3.52-0.07,3.52h0.04
		c0.85-1.48,1.73-2.31,3.19-2.31c1.95,0,3.86,2.11,3.86,4.89c0,3.1-2.06,4.96-3.93,4.96c-1.53,0-2.33-0.85-3.1-2.22h-0.04l-1.53,2.4
		h-0.29C93.3,74.74,93.37,73.17,93.37,71.8z M100.08,70.93c0-2.47-0.58-4.58-2.24-4.58c-1.53,0-2.92,1.86-2.92,4.56
		c0,2.51,1.26,4.58,2.87,4.58C99.11,75.48,100.08,74.23,100.08,70.93z"/>
	<path class="st0" d="M103.27,70.97c0-3.03,2.11-5.07,4.35-5.07c1.8,0,3.86,1.39,3.86,4.29c0,0.07-0.02,0.56-0.04,0.67h-6.33
		c0,2.47,0.99,4.38,2.92,4.38c1.73,0,2.6-0.88,3.34-1.95l0.25,0.18c-0.83,1.39-2.13,2.49-4.09,2.49
		C104.95,75.96,103.27,74.05,103.27,70.97z M108.48,70.5c0.9,0,1.14-0.29,1.14-1.01c0-1.8-0.63-3.25-2.06-3.25
		c-1.57,0-2.38,1.68-2.45,4.26H108.48z"/>
	<path class="st0" d="M112.65,75.3h0.18c0.99,0,1.21-0.25,1.21-1.26v-6.24c0-1.03-0.22-1.28-1.21-1.28h-0.18v-0.29l2.98-0.18v7.99
		c0,1.01,0.22,1.26,1.21,1.26h0.18v0.31h-4.38V75.3z M113.39,62.46c0-0.67,0.56-1.23,1.23-1.23s1.23,0.56,1.23,1.23
		s-0.56,1.23-1.23,1.23S113.39,63.14,113.39,62.46z"/>
	<path class="st0" d="M117.84,75.3H118c0.99,0,1.21-0.25,1.21-1.26v-6.26c0-1.01-0.22-1.28-1.21-1.28h-0.16v-0.27l2.98-0.18
		l-0.11,2.76h0.04c0.61-1.82,2.02-2.78,3.48-2.78c1.82,0,2.65,1.12,2.65,3.34v4.67c0,1.01,0.22,1.26,1.23,1.26h0.04v0.31h-4.33V75.3
		h0.22c1.01,0,1.23-0.25,1.23-1.26v-5.23c0-1.57-0.67-2.06-1.57-2.06c-1.64,0-2.87,1.64-2.87,3.64v3.66c0,1.01,0.22,1.26,1.21,1.26
		h0.22v0.31h-4.44V75.3z"/>
	<path class="st0" d="M128.62,78.04c0-1.26,1.3-2.33,3.64-2.36c-1.57-0.18-2.9-0.56-2.9-1.57c0-0.79,0.74-1.3,1.59-1.82
		c-0.94-0.61-1.66-1.71-1.66-2.9c0-2.06,1.71-3.5,3.82-3.5c1.14,0,2.06,0.34,2.87,1.19c0.31-0.52,0.83-1.19,1.59-1.19
		c0.67,0,1.19,0.43,1.19,1.1c0,0.47-0.34,0.9-0.83,0.9s-0.76-0.43-0.76-0.88c0-0.29-0.04-0.45-0.22-0.45
		c-0.22,0-0.47,0.27-0.72,0.74c0.45,0.67,0.67,1.37,0.67,2.09c0,2.04-1.71,3.52-3.79,3.52c-0.63,0-1.35-0.22-1.86-0.47
		c-0.47,0.29-0.81,0.61-0.81,1.08s0.67,0.81,2.99,0.83c2.04,0.02,4.58,0.4,4.58,2.76c0,1.91-2.15,3.12-4.92,3.12
		C130.64,80.24,128.62,79.52,128.62,78.04z M137.19,77.66c0-1.05-1.14-1.82-3.95-1.82c-2.58,0-3.3,1.19-3.3,2.18
		c0,1.44,1.82,1.91,3.28,1.91C135.46,79.93,137.19,78.92,137.19,77.66z M135.1,69.4c0-1.41-0.38-3.21-2-3.21c-1.64,0-2,1.8-2,3.21
		s0.36,3.21,2,3.21C134.72,72.61,135.1,70.81,135.1,69.4z"/>
	<path class="st0" d="M145.52,64.4c0-1.37,0.72-2.78,2.47-4.26l0.22,0.25c-1.68,1.39-2.22,2.78-2.22,3.41c0,0.63,0.4,0.18,0.96,0.18
		c0.72,0,1.17,0.58,1.17,1.19c0,0.67-0.45,1.17-1.19,1.17C146.2,66.33,145.52,65.74,145.52,64.4z M149.14,64.4
		c0-1.37,0.72-2.78,2.47-4.26l0.22,0.25c-1.68,1.39-2.22,2.78-2.22,3.41c0,0.63,0.4,0.18,0.97,0.18c0.72,0,1.17,0.58,1.17,1.19
		c0,0.67-0.45,1.17-1.19,1.17C149.81,66.33,149.14,65.74,149.14,64.4z"/>
	<path class="st0" d="M154.84,75.06c-0.34,0-0.63,0.27-0.81,0.76h-0.22V72h0.2c0.38,2.2,2.18,3.52,3.95,3.52
		c1.33,0,2.27-0.76,2.27-1.82c0-1.01-0.7-1.39-2.96-2.04c-1.98-0.56-3.34-1.08-3.34-3.03c0-1.62,1.21-2.63,2.92-2.63
		c1.3,0,1.89,0.58,2.58,0.58c0.36,0,0.65-0.18,0.81-0.56h0.22v3.41h-0.2c-0.36-1.84-1.64-3.12-3.52-3.12
		c-1.03,0-1.86,0.67-1.86,1.66c0,1.05,0.88,1.39,2.76,1.89c2.45,0.65,3.55,1.35,3.55,3.12c0,1.8-1.37,2.85-3.3,2.85
		C156.48,75.84,155.38,75.06,154.84,75.06z"/>
	<path class="st0" d="M162.48,73.71c0-1.91,1.71-2.92,5.93-3.91v-0.65c0-2.15-0.85-2.9-2.2-2.9c-1.21,0-2.24,0.52-2.24,0.92
		c0,0.07,0.02,0.09,0.11,0.09c0.45,0,0.94,0.43,0.94,0.99c0,0.58-0.45,1.03-1.01,1.03c-0.58,0-1.01-0.43-1.01-1.08
		c0-1.17,1.23-2.27,3.64-2.27c1.8,0,3.37,0.65,3.37,3.3v4.6c0,0.94,0.27,1.23,0.58,1.23c0.54,0,0.76-0.56,0.79-1.8h0.31
		c-0.04,2.13-0.79,2.54-1.71,2.54c-0.88,0-1.68-0.49-1.57-2.11h-0.04c-0.43,1.17-1.77,2.15-3.34,2.15
		C163.58,75.87,162.48,75.15,162.48,73.71z M168.4,71.78v-1.62c-3.43,0.7-4.06,1.89-4.06,3.16c0,1.01,0.54,1.75,1.57,1.75
		C167.01,75.08,168.4,74.27,168.4,71.78z"/>
	<path class="st0" d="M173.16,73.04v-6.46h-1.53V66.3c1.44-0.25,2.63-1.23,2.85-4.13h0.29v4.04h3.03v0.36h-3.03v6.58
		c0,1.41,0.52,2.11,1.53,2.11c0.92,0,1.66-1.01,1.75-2.98h0.31c0,2.29-1.01,3.64-2.63,3.64C174.15,75.91,173.16,74.99,173.16,73.04z
		"/>
	<path class="st0" d="M179.04,75.3h0.18c0.99,0,1.21-0.25,1.21-1.26v-6.24c0-1.03-0.22-1.28-1.21-1.28h-0.18v-0.29l2.99-0.18v7.99
		c0,1.01,0.22,1.26,1.21,1.26h0.18v0.31h-4.38V75.3z M179.79,62.46c0-0.67,0.56-1.23,1.23-1.23c0.67,0,1.24,0.56,1.24,1.23
		s-0.56,1.23-1.24,1.23C180.35,63.7,179.79,63.14,179.79,62.46z"/>
	<path class="st0" d="M185.87,75.06c-0.34,0-0.63,0.27-0.81,0.76h-0.22V72h0.2c0.38,2.2,2.18,3.52,3.95,3.52
		c1.33,0,2.27-0.76,2.27-1.82c0-1.01-0.7-1.39-2.96-2.04c-1.98-0.56-3.34-1.08-3.34-3.03c0-1.62,1.21-2.63,2.92-2.63
		c1.3,0,1.89,0.58,2.58,0.58c0.36,0,0.65-0.18,0.81-0.56h0.22v3.41h-0.2c-0.36-1.84-1.64-3.12-3.52-3.12
		c-1.03,0-1.86,0.67-1.86,1.66c0,1.05,0.88,1.39,2.76,1.89c2.45,0.65,3.55,1.35,3.55,3.12c0,1.8-1.37,2.85-3.3,2.85
		C187.51,75.84,186.41,75.06,185.87,75.06z"/>
	<path class="st0" d="M193.57,75.28h0.18c0.99,0,1.21-0.27,1.21-1.28v-7.43h-1.39v-0.34h1.39v-1.14c0-3.05,1.44-5.14,4.31-5.14
		c2,0,2.94,0.96,2.94,1.84c0,0.63-0.49,1.08-1.01,1.08c-0.56,0-1.03-0.31-1.03-0.92c0-0.38,0.18-0.63,0.36-0.79
		c0.11-0.09,0.2-0.18,0.2-0.27c0-0.29-0.56-0.63-1.55-0.63c-1.84,0-2.6,1.64-2.6,4.13v1.84h2.63l3.21-0.2V74
		c0,1.01,0.22,1.28,1.21,1.28h0.18v0.34h-4.4v-0.34h0.18c0.99,0,1.21-0.27,1.21-1.28v-6.13c0-1.06-0.22-1.3-1.21-1.3h-3.01V74
		c0,1.01,0.22,1.28,1.21,1.28h0.54v0.34h-4.76V75.28z"/>
	<path class="st0" d="M204.87,70.97c0-3.03,2.11-5.07,4.35-5.07c1.79,0,3.86,1.39,3.86,4.29c0,0.07-0.02,0.56-0.04,0.67h-6.33
		c0,2.47,0.99,4.38,2.92,4.38c1.73,0,2.6-0.88,3.34-1.95l0.25,0.18c-0.83,1.39-2.13,2.49-4.08,2.49
		C206.55,75.96,204.87,74.05,204.87,70.97z M210.07,70.5c0.9,0,1.14-0.29,1.14-1.01c0-1.8-0.63-3.25-2.06-3.25
		c-1.57,0-2.38,1.68-2.45,4.26H210.07z"/>
	<path class="st0" d="M214.45,70.93c0-2.78,1.77-4.94,3.95-4.94c1.35,0,2.4,0.94,3.1,2.31h0.07c-0.04-0.63-0.07-1.98-0.07-3.39
		v-3.05c0-1.03-0.25-1.28-1.23-1.28h-0.56v-0.31l3.39-0.34v14.01c0,1.01,0.2,1.3,1.19,1.3h0.18v0.31l-2.96,0.34l0.09-2.51h-0.07
		c-0.74,1.37-1.68,2.47-3.21,2.47C216.45,75.84,214.45,73.98,214.45,70.93z M221.5,70.9c0-3.34-1.86-4.58-2.83-4.58
		c-1.84,0-2.33,2.09-2.33,4.53c0,2.49,0.61,4.62,2.31,4.62C219.82,75.48,221.5,73.87,221.5,70.9z"/>
	<path class="st0" d="M226.13,66.06c1.68-1.39,2.22-2.78,2.22-3.41s-0.4-0.18-0.97-0.18c-0.72,0-1.17-0.58-1.17-1.19
		c0-0.67,0.45-1.17,1.19-1.17c0.74,0,1.41,0.58,1.41,1.93c0,1.37-0.72,2.78-2.47,4.26L226.13,66.06z M229.74,66.06
		c1.68-1.39,2.22-2.78,2.22-3.41s-0.4-0.18-0.96-0.18c-0.72,0-1.17-0.58-1.17-1.19c0-0.67,0.45-1.17,1.19-1.17
		c0.74,0,1.41,0.58,1.41,1.93c0,1.37-0.72,2.78-2.47,4.26L229.74,66.06z"/>
	<path class="st0" d="M12.25,93.86c0-2.92,2.29-5,4.4-5s4.38,2.04,4.38,4.96c0,2.85-2.27,5.1-4.38,5.1S12.25,96.71,12.25,93.86z
		 M19.14,93.88c0-2.6-0.67-4.71-2.49-4.71c-1.82,0-2.49,2.06-2.49,4.67c0,2.58,0.63,4.76,2.49,4.76
		C18.51,98.59,19.14,96.46,19.14,93.88z"/>
	<path class="st0" d="M22.08,98.26h0.16c0.99,0,1.21-0.25,1.21-1.26v-6.29c0-1.01-0.27-1.26-1.21-1.26h-0.16v-0.27l2.98-0.18
		l-0.16,3.79h0.04c0.7-2.45,1.82-3.91,3.3-3.91c1.14,0,1.8,0.67,1.8,1.46c0,0.88-0.49,1.32-1.12,1.32c-0.56,0-1.01-0.36-1.01-0.92
		c0-0.49,0.27-0.72,0.47-0.9c0.11-0.09,0.18-0.16,0.18-0.27c0-0.18-0.22-0.22-0.49-0.22c-1.62,0-2.99,3.19-2.99,4.96V97
		c0,1.01,0.22,1.26,1.21,1.26h0.52v0.31h-4.74V98.26z"/>
	<path class="st0" d="M36.74,87.35c0-1.37,0.72-2.78,2.47-4.26l0.22,0.25c-1.68,1.39-2.22,2.78-2.22,3.41c0,0.63,0.4,0.18,0.96,0.18
		c0.72,0,1.17,0.58,1.17,1.19c0,0.67-0.45,1.17-1.19,1.17S36.74,88.69,36.74,87.35z M40.35,87.35c0-1.37,0.72-2.78,2.47-4.26
		l0.22,0.25c-1.68,1.39-2.22,2.78-2.22,3.41c0,0.63,0.4,0.18,0.96,0.18c0.72,0,1.17,0.58,1.17,1.19c0,0.67-0.45,1.17-1.19,1.17
		S40.35,88.69,40.35,87.35z"/>
	<path class="st0" d="M46.08,90.94c-0.43-1.01-0.7-1.39-1.62-1.46v-0.29h4.49v0.29c-0.9,0.07-1.15,0.29-1.17,0.65
		c-0.02,0.34,0.09,0.76,0.25,1.17l2.15,5.72l2-5.16c0.2-0.54,0.43-1.1,0.43-1.53c0-0.58-0.38-0.79-1.23-0.85v-0.29h3.23v0.29
		c-0.92,0.07-1.21,0.58-1.57,1.46l-3.32,8.08H49.4L46.08,90.94z"/>
	<path class="st0" d="M54.79,93.92c0-3.03,2.11-5.07,4.35-5.07c1.8,0,3.86,1.39,3.86,4.29c0,0.07-0.02,0.56-0.04,0.67h-6.33
		c0,2.47,0.99,4.38,2.92,4.38c1.73,0,2.6-0.88,3.34-1.95l0.25,0.18c-0.83,1.39-2.13,2.49-4.09,2.49
		C56.48,98.91,54.79,97,54.79,93.92z M60,93.45c0.9,0,1.14-0.29,1.14-1.01c0-1.79-0.63-3.25-2.06-3.25c-1.57,0-2.38,1.68-2.45,4.27
		H60z"/>
	<path class="st0" d="M64.13,98.26h0.16c0.99,0,1.21-0.25,1.21-1.26v-6.29c0-1.01-0.27-1.26-1.21-1.26h-0.16v-0.27l2.98-0.18
		l-0.16,3.79h0.04c0.7-2.45,1.82-3.91,3.3-3.91c1.14,0,1.8,0.67,1.8,1.46c0,0.88-0.49,1.32-1.12,1.32c-0.56,0-1.01-0.36-1.01-0.92
		c0-0.49,0.27-0.72,0.47-0.9c0.11-0.09,0.18-0.16,0.18-0.27c0-0.18-0.22-0.22-0.49-0.22c-1.62,0-2.99,3.19-2.99,4.96V97
		c0,1.01,0.22,1.26,1.21,1.26h0.52v0.31h-4.74V98.26z"/>
	<path class="st0" d="M72.6,101.56c0-0.7,0.47-1.19,1.14-1.19c0.54,0,0.92,0.47,0.92,0.94c0,0.4-0.16,0.63-0.31,0.79
		c-0.13,0.13-0.25,0.2-0.25,0.38c0,0.22,0.25,0.38,0.58,0.38c1.03,0,1.73-1.41,2.38-2.99l0.29-0.7l-3.37-8.17
		c-0.4-1.01-0.72-1.46-1.64-1.53v-0.29h4.51v0.29c-0.79,0.07-1.14,0.31-1.17,0.67c-0.02,0.34,0.09,0.72,0.27,1.19l2.22,5.88
		l2.02-5.3c0.2-0.52,0.43-1.15,0.43-1.57c0-0.58-0.38-0.81-1.23-0.88v-0.29h3.32v0.29c-0.99,0.07-1.23,0.61-1.59,1.53l-3.61,8.84
		c-1.12,2.76-1.98,3.39-3.03,3.39C73.25,103.24,72.6,102.48,72.6,101.56z"/>
	<path class="st0" d="M90.06,98.01c-0.34,0-0.63,0.27-0.81,0.76h-0.22v-3.82h0.2c0.38,2.2,2.18,3.52,3.95,3.52
		c1.32,0,2.27-0.76,2.27-1.82c0-1.01-0.7-1.39-2.96-2.04c-1.98-0.56-3.34-1.08-3.34-3.03c0-1.62,1.21-2.63,2.92-2.63
		c1.3,0,1.89,0.58,2.58,0.58c0.36,0,0.65-0.18,0.81-0.56h0.22v3.41h-0.2c-0.36-1.84-1.64-3.12-3.52-3.12
		c-1.03,0-1.86,0.67-1.86,1.66c0,1.06,0.88,1.39,2.76,1.89c2.45,0.65,3.55,1.35,3.55,3.12c0,1.8-1.37,2.85-3.3,2.85
		C91.7,98.79,90.6,98.01,90.06,98.01z"/>
	<path class="st0" d="M97.7,96.66c0-1.91,1.71-2.92,5.93-3.91v-0.65c0-2.15-0.85-2.9-2.2-2.9c-1.21,0-2.24,0.52-2.24,0.92
		c0,0.07,0.02,0.09,0.11,0.09c0.45,0,0.94,0.43,0.94,0.99c0,0.58-0.45,1.03-1.01,1.03c-0.58,0-1.01-0.43-1.01-1.08
		c0-1.17,1.23-2.27,3.64-2.27c1.8,0,3.37,0.65,3.37,3.3v4.6c0,0.94,0.27,1.23,0.58,1.23c0.54,0,0.76-0.56,0.79-1.79h0.31
		c-0.04,2.13-0.79,2.54-1.71,2.54c-0.88,0-1.68-0.49-1.57-2.11h-0.04c-0.43,1.17-1.77,2.16-3.34,2.16
		C98.8,98.82,97.7,98.1,97.7,96.66z M103.62,94.73v-1.62c-3.43,0.7-4.06,1.88-4.06,3.17c0,1.01,0.54,1.75,1.57,1.75
		C102.23,98.03,103.62,97.22,103.62,94.73z"/>
	<path class="st0" d="M108.39,95.99v-6.46h-1.53v-0.27c1.44-0.25,2.63-1.23,2.85-4.13H110v4.04h3.03v0.36H110v6.58
		c0,1.41,0.52,2.11,1.53,2.11c0.92,0,1.66-1.01,1.75-2.99h0.31c0,2.29-1.01,3.64-2.63,3.64C109.37,98.86,108.39,97.94,108.39,95.99z
		"/>
	<path class="st0" d="M114.27,98.26h0.18c0.99,0,1.21-0.25,1.21-1.26v-6.24c0-1.03-0.22-1.28-1.21-1.28h-0.18v-0.29l2.98-0.18V97
		c0,1.01,0.22,1.26,1.21,1.26h0.18v0.31h-4.38V98.26z M115.01,85.42c0-0.67,0.56-1.23,1.23-1.23s1.23,0.56,1.23,1.23
		s-0.56,1.23-1.23,1.23S115.01,86.09,115.01,85.42z"/>
	<path class="st0" d="M121.09,98.01c-0.34,0-0.63,0.27-0.81,0.76h-0.22v-3.82h0.2c0.38,2.2,2.18,3.52,3.95,3.52
		c1.32,0,2.27-0.76,2.27-1.82c0-1.01-0.7-1.39-2.96-2.04c-1.98-0.56-3.34-1.08-3.34-3.03c0-1.62,1.21-2.63,2.92-2.63
		c1.3,0,1.89,0.58,2.58,0.58c0.36,0,0.65-0.18,0.81-0.56h0.22v3.41h-0.2c-0.36-1.84-1.64-3.12-3.52-3.12
		c-1.03,0-1.86,0.67-1.86,1.66c0,1.06,0.88,1.39,2.76,1.89c2.45,0.65,3.55,1.35,3.55,3.12c0,1.8-1.37,2.85-3.3,2.85
		C122.73,98.79,121.63,98.01,121.09,98.01z"/>
	<path class="st0" d="M128.8,98.23h0.18c0.99,0,1.21-0.27,1.21-1.28v-7.43h-1.39v-0.34h1.39v-1.14c0-3.05,1.44-5.14,4.31-5.14
		c2,0,2.94,0.96,2.94,1.84c0,0.63-0.49,1.08-1.01,1.08c-0.56,0-1.03-0.31-1.03-0.92c0-0.38,0.18-0.63,0.36-0.79
		c0.11-0.09,0.2-0.18,0.2-0.27c0-0.29-0.56-0.63-1.55-0.63c-1.84,0-2.6,1.64-2.6,4.13v1.84h2.63l3.21-0.2v7.97
		c0,1.01,0.22,1.28,1.21,1.28h0.18v0.34h-4.4v-0.34h0.18c0.99,0,1.21-0.27,1.21-1.28v-6.13c0-1.05-0.22-1.3-1.21-1.3h-3.01v7.43
		c0,1.01,0.22,1.28,1.21,1.28h0.54v0.34h-4.76V98.23z"/>
	<path class="st0" d="M140.09,93.92c0-3.03,2.11-5.07,4.35-5.07c1.79,0,3.86,1.39,3.86,4.29c0,0.07-0.02,0.56-0.04,0.67h-6.33
		c0,2.47,0.99,4.38,2.92,4.38c1.73,0,2.6-0.88,3.34-1.95l0.25,0.18c-0.83,1.39-2.13,2.49-4.08,2.49
		C141.77,98.91,140.09,97,140.09,93.92z M145.3,93.45c0.9,0,1.14-0.29,1.14-1.01c0-1.79-0.63-3.25-2.06-3.25
		c-1.57,0-2.38,1.68-2.45,4.27H145.3z"/>
	<path class="st0" d="M149.68,93.88c0-2.78,1.77-4.94,3.95-4.94c1.35,0,2.4,0.94,3.1,2.31h0.07c-0.04-0.63-0.07-1.98-0.07-3.39
		v-3.05c0-1.03-0.25-1.28-1.23-1.28h-0.56v-0.31l3.39-0.34v14.01c0,1.01,0.2,1.3,1.19,1.3h0.18v0.31l-2.96,0.34l0.09-2.51h-0.07
		c-0.74,1.37-1.68,2.47-3.21,2.47C151.67,98.79,149.68,96.93,149.68,93.88z M156.72,93.86c0-3.34-1.86-4.58-2.83-4.58
		c-1.84,0-2.33,2.09-2.33,4.53c0,2.49,0.61,4.62,2.31,4.62C155.04,98.44,156.72,96.82,156.72,93.86z"/>
	<path class="st0" d="M161.35,89.01c1.68-1.39,2.22-2.78,2.22-3.41s-0.4-0.18-0.97-0.18c-0.72,0-1.17-0.58-1.17-1.19
		c0-0.67,0.45-1.17,1.19-1.17c0.74,0,1.41,0.58,1.41,1.93c0,1.37-0.72,2.78-2.47,4.26L161.35,89.01z M164.97,89.01
		c1.68-1.39,2.22-2.78,2.22-3.41s-0.4-0.18-0.96-0.18c-0.72,0-1.17-0.58-1.17-1.19c0-0.67,0.45-1.17,1.19-1.17
		c0.74,0,1.41,0.58,1.41,1.93c0,1.37-0.72,2.78-2.47,4.26L164.97,89.01z"/>
	<path class="st0" d="M175.94,90.96c-0.38-0.96-0.74-1.41-1.64-1.48v-0.29h4.35v0.29c-0.79,0.07-1.12,0.29-1.14,0.65
		c-0.02,0.29,0.07,0.63,0.25,1.12l2.02,5.77l1.84-4.76l-0.52-1.57c-0.25-0.79-0.49-1.08-1.39-1.21v-0.29h4.15v0.29
		c-0.76,0.07-1.17,0.29-1.19,0.65c-0.02,0.29,0.09,0.63,0.25,1.14l1.77,5.66l1.77-5.07c0.2-0.58,0.36-1.1,0.36-1.53
		c0-0.58-0.4-0.79-1.23-0.85v-0.29h3.23v0.29c-0.9,0.07-1.19,0.61-1.53,1.48l-3.05,8.06h-0.31l-2.09-6.15l-2.54,6.15h-0.29
		L175.94,90.96z"/>
	<path class="st0" d="M189.28,98.26h0.18c0.99,0,1.21-0.25,1.21-1.26v-6.24c0-1.03-0.22-1.28-1.21-1.28h-0.18v-0.29l2.99-0.18V97
		c0,1.01,0.22,1.26,1.21,1.26h0.18v0.31h-4.38V98.26z M190.02,85.42c0-0.67,0.56-1.23,1.23-1.23c0.67,0,1.24,0.56,1.24,1.23
		s-0.56,1.23-1.24,1.23C190.58,86.65,190.02,86.09,190.02,85.42z"/>
	<path class="st0" d="M195.68,95.99v-6.46h-1.53v-0.27c1.44-0.25,2.63-1.23,2.85-4.13h0.29v4.04h3.03v0.36h-3.03v6.58
		c0,1.41,0.52,2.11,1.53,2.11c0.92,0,1.66-1.01,1.75-2.99h0.31c0,2.29-1.01,3.64-2.63,3.64C196.67,98.86,195.68,97.94,195.68,95.99z
		"/>
	<path class="st0" d="M201.34,98.26h0.16c0.92,0,1.21-0.22,1.21-1.26V84.81c0-1.03-0.22-1.3-1.21-1.3h-0.2v-0.31l2.99-0.34v5.95
		l-0.11,2.96h0.04c0.54-1.62,1.84-2.78,3.48-2.78c1.82,0,2.65,1.12,2.65,3.34V97c0,1.01,0.22,1.26,1.23,1.26h0.04v0.31h-4.33v-0.31
		h0.22c1.01,0,1.24-0.25,1.24-1.26v-5.23c0-1.57-0.67-2.07-1.57-2.07c-1.64,0-2.87,1.66-2.87,3.61V97c0,1.01,0.22,1.26,1.21,1.26
		h0.22v0.31h-4.4V98.26z"/>
	<path class="st0" d="M218.85,95.99v-6.46h-1.53v-0.27c1.44-0.25,2.63-1.23,2.85-4.13h0.29v4.04h3.03v0.36h-3.03v6.58
		c0,1.41,0.52,2.11,1.53,2.11c0.92,0,1.66-1.01,1.75-2.99h0.31c0,2.29-1.01,3.64-2.63,3.64C219.84,98.86,218.85,97.94,218.85,95.99z
		"/>
	<path class="st0" d="M224.51,98.26h0.16c0.92,0,1.21-0.22,1.21-1.26V84.81c0-1.03-0.22-1.3-1.21-1.3h-0.2v-0.31l2.99-0.34v5.95
		l-0.11,2.96h0.04c0.54-1.62,1.84-2.78,3.48-2.78c1.82,0,2.65,1.12,2.65,3.34V97c0,1.01,0.22,1.26,1.23,1.26h0.04v0.31h-4.33v-0.31
		h0.22c1.01,0,1.24-0.25,1.24-1.26v-5.23c0-1.57-0.67-2.07-1.57-2.07c-1.64,0-2.87,1.66-2.87,3.61V97c0,1.01,0.22,1.26,1.21,1.26
		h0.22v0.31h-4.4V98.26z"/>
	<path class="st0" d="M235.69,93.92c0-3.03,2.11-5.07,4.35-5.07c1.79,0,3.86,1.39,3.86,4.29c0,0.07-0.02,0.56-0.04,0.67h-6.33
		c0,2.47,0.99,4.38,2.92,4.38c1.73,0,2.6-0.88,3.34-1.95l0.25,0.18c-0.83,1.39-2.13,2.49-4.08,2.49
		C237.37,98.91,235.69,97,235.69,93.92z M240.9,93.45c0.9,0,1.14-0.29,1.14-1.01c0-1.79-0.63-3.25-2.06-3.25
		c-1.57,0-2.38,1.68-2.45,4.27H240.9z"/>
	<path class="st0" d="M245.08,98.26h0.18c0.99,0,1.21-0.25,1.21-1.26v-6.24c0-1.03-0.22-1.28-1.21-1.28h-0.18v-0.29l2.99-0.18V97
		c0,1.01,0.22,1.26,1.21,1.26h0.18v0.31h-4.38V98.26z M245.82,85.42c0-0.67,0.56-1.23,1.23-1.23c0.67,0,1.24,0.56,1.24,1.23
		s-0.56,1.23-1.24,1.23C246.38,86.65,245.82,86.09,245.82,85.42z"/>
	<path class="st0" d="M250.26,98.26h0.16c0.99,0,1.21-0.25,1.21-1.26v-6.29c0-1.01-0.27-1.26-1.21-1.26h-0.16v-0.27l2.99-0.18
		l-0.16,3.79h0.04c0.7-2.45,1.82-3.91,3.3-3.91c1.15,0,1.8,0.67,1.8,1.46c0,0.88-0.49,1.32-1.12,1.32c-0.56,0-1.01-0.36-1.01-0.92
		c0-0.49,0.27-0.72,0.47-0.9c0.11-0.09,0.18-0.16,0.18-0.27c0-0.18-0.22-0.22-0.49-0.22c-1.62,0-2.99,3.19-2.99,4.96V97
		c0,1.01,0.22,1.26,1.21,1.26H255v0.31h-4.74V98.26z"/>
	<path class="st0" d="M12.45,113.93c0-4.96,3.3-7.99,6.26-7.99c1.15,0,2.18,0.49,3.05,1.08c0.25,0.16,0.56,0.25,0.76,0.25
		c0.34,0,0.58-0.29,0.83-1.32h0.27l0.18,6.06h-0.34c-0.85-3.79-2.72-5.7-4.83-5.7c-2.74,0-4,3.12-4,7.54c0,4.26,1.44,7.59,4.29,7.59
		c2.51,0,4.17-2.24,4.69-5.52h0.45c-0.54,3.79-2.51,5.97-5.36,5.97C15.7,121.88,12.45,118.81,12.45,113.93z"/>
	<path class="st0" d="M25.63,116.81c0-2.92,2.29-5,4.4-5s4.38,2.04,4.38,4.96c0,2.85-2.27,5.1-4.38,5.1S25.63,119.66,25.63,116.81z
		 M32.52,116.83c0-2.6-0.67-4.71-2.49-4.71c-1.82,0-2.49,2.06-2.49,4.67c0,2.58,0.63,4.76,2.49,4.76
		C31.89,121.54,32.52,119.41,32.52,116.83z"/>
	<path class="st0" d="M35.71,116.81c0-2.92,2.29-5,4.4-5s4.38,2.04,4.38,4.96c0,2.85-2.27,5.1-4.38,5.1S35.71,119.66,35.71,116.81z
		 M42.6,116.83c0-2.6-0.67-4.71-2.49-4.71c-1.82,0-2.49,2.06-2.49,4.67c0,2.58,0.63,4.76,2.49,4.76
		C41.97,121.54,42.6,119.41,42.6,116.83z"/>
	<path class="st0" d="M45.54,121.21h0.09c1.01,0,1.23-0.27,1.23-1.35v-12.05c0-1.08-0.22-1.35-1.23-1.35h-0.18v-0.31l3.01-0.34
		v14.05c0,1.08,0.22,1.35,1.21,1.35h0.18v0.31h-4.31V121.21z"/>
	<path class="st0" d="M53.58,120.78c-0.43-0.22-0.72-0.4-1.08-0.4c-0.36,0-0.65,0.45-0.85,1.37h-0.29l-0.16-6.08h0.34
		c0.79,4.24,3.64,5.75,5.88,5.75c1.71,0,3.01-1.17,3.01-3.05c0-2.04-1.77-2.85-4.11-3.57c-2.38-0.74-4.98-1.44-4.98-4.69
		c0-2.36,1.8-4.15,4.08-4.15c1.26,0,2.2,0.36,3.12,1.01c0.29,0.2,0.52,0.38,0.9,0.38c0.36,0,0.61-0.36,0.9-1.37h0.29l0.16,6.04
		h-0.34c-0.88-4.22-3.12-5.72-4.98-5.72c-1.8,0-2.96,1.35-2.96,2.96c0,1.59,0.58,2.54,4.04,3.52c3.21,0.92,4.94,1.98,4.94,4.74
		c0,2.6-1.84,4.26-4.15,4.26C55.42,121.77,54.37,121.18,53.58,120.78z"/>
	<path class="st0" d="M63.06,116.88c0-2.76,2.22-5.07,4.85-5.07c1.75,0,3.03,1.21,3.03,2.51c0,0.76-0.49,1.23-1.12,1.23
		c-0.61,0-1.03-0.52-1.03-1.05c0-0.47,0.29-0.9,0.81-1.03c0.27-0.07,0.47,0.04,0.47-0.13c0-0.4-0.79-1.17-2.2-1.17
		c-2.02,0-2.85,1.91-2.85,4.6c0,2.47,0.99,4.33,3.03,4.33c1.35,0,2.24-0.72,2.92-1.62l0.22,0.16c-0.76,1.28-2.15,2.22-3.88,2.22
		C65.05,121.86,63.06,119.93,63.06,116.88z"/>
	<path class="st0" d="M73.11,118.56v-4.85c0-0.99-0.22-1.28-1.21-1.28h-0.2v-0.29l3.01-0.18v7c0,1.59,0.61,2.22,1.66,2.22
		c1.39,0,2.78-1.97,2.78-3.86v-3.59c0-1.03-0.22-1.3-1.21-1.3h-0.45v-0.29l3.28-0.18v7.86c0,1.01,0.25,1.3,1.23,1.3h0.16v0.29
		l-2.99,0.34l0.11-2.78h-0.04c-0.58,1.53-1.89,2.78-3.41,2.78C74.06,121.75,73.11,120.71,73.11,118.56z"/>
	<path class="st0" d="M82.86,121.21h0.09c1.01,0,1.23-0.27,1.23-1.35v-12.05c0-1.08-0.22-1.35-1.23-1.35h-0.18v-0.31l3.01-0.34
		v14.05c0,1.08,0.22,1.35,1.21,1.35h0.18v0.31h-4.31V121.21z"/>
	<path class="st0" d="M87.66,125.79h0.27c0.99,0,1.21-0.25,1.21-1.28v-10.8c0-1.03-0.22-1.28-1.21-1.28h-0.16v-0.29l2.92-0.18
		l-0.07,2.29h0.04c0.72-1.39,1.68-2.36,3.14-2.36c1.84,0,3.93,1.91,3.93,4.92c0,2.96-2.04,4.94-4.02,4.94
		c-1.53,0-2.47-1.05-3.08-2.42h-0.02c0,0,0.09,1.39,0.09,2.81v2.38c0,1.03,0.22,1.28,1.21,1.28h0.52v0.31h-4.78V125.79z
		 M95.86,116.85c0-2.33-0.54-4.6-2.27-4.6c-1.1,0-2.9,1.3-2.9,4.58c0,2.31,1.23,4.56,2.85,4.56
		C95.27,121.39,95.86,119.28,95.86,116.85z"/>
	<path class="st0" d="M100.01,118.94v-6.46h-1.53v-0.27c1.44-0.25,2.63-1.23,2.85-4.13h0.29v4.04h3.03v0.36h-3.03v6.58
		c0,1.41,0.52,2.11,1.53,2.11c0.92,0,1.66-1.01,1.75-2.99h0.31c0,2.29-1.01,3.64-2.63,3.64C101,121.81,100.01,120.89,100.01,118.94z
		"/>
	<path class="st0" d="M105.89,121.21h0.18c0.99,0,1.21-0.25,1.21-1.26v-6.24c0-1.03-0.22-1.28-1.21-1.28h-0.18v-0.29l2.98-0.18v7.99
		c0,1.01,0.22,1.26,1.21,1.26h0.18v0.31h-4.38V121.21z M106.63,108.37c0-0.67,0.56-1.23,1.23-1.23s1.23,0.56,1.23,1.23
		c0,0.67-0.56,1.23-1.23,1.23S106.63,109.04,106.63,108.37z"/>
	<path class="st0" d="M111.08,121.21h0.16c0.99,0,1.21-0.25,1.21-1.26v-6.26c0-1.01-0.22-1.28-1.21-1.28h-0.16v-0.27l2.98-0.18
		l-0.11,2.76H114c0.61-1.82,2.02-2.78,3.48-2.78c1.82,0,2.65,1.12,2.65,3.34v4.67c0,1.01,0.22,1.26,1.23,1.26h0.04v0.31h-4.33v-0.31
		h0.22c1.01,0,1.23-0.25,1.23-1.26v-5.23c0-1.57-0.67-2.07-1.57-2.07c-1.64,0-2.87,1.64-2.87,3.64v3.66c0,1.01,0.22,1.26,1.21,1.26
		h0.22v0.31h-4.44V121.21z"/>
	<path class="st0" d="M121.86,123.95c0-1.26,1.3-2.33,3.64-2.36c-1.57-0.18-2.9-0.56-2.9-1.57c0-0.79,0.74-1.3,1.59-1.82
		c-0.94-0.61-1.66-1.71-1.66-2.9c0-2.06,1.71-3.5,3.82-3.5c1.14,0,2.06,0.34,2.87,1.19c0.31-0.52,0.83-1.19,1.59-1.19
		c0.67,0,1.19,0.43,1.19,1.1c0,0.47-0.34,0.9-0.83,0.9s-0.76-0.43-0.76-0.88c0-0.29-0.04-0.45-0.22-0.45
		c-0.22,0-0.47,0.27-0.72,0.74c0.45,0.67,0.67,1.37,0.67,2.09c0,2.04-1.71,3.52-3.79,3.52c-0.63,0-1.35-0.22-1.86-0.47
		c-0.47,0.29-0.81,0.61-0.81,1.08c0,0.47,0.67,0.81,2.99,0.83c2.04,0.02,4.58,0.4,4.58,2.76c0,1.91-2.15,3.12-4.92,3.12
		C123.88,126.15,121.86,125.43,121.86,123.95z M130.43,123.56c0-1.06-1.14-1.82-3.95-1.82c-2.58,0-3.3,1.19-3.3,2.18
		c0,1.44,1.82,1.91,3.28,1.91C128.7,125.83,130.43,124.82,130.43,123.56z M128.34,115.3c0-1.41-0.38-3.21-2-3.21
		c-1.64,0-2,1.79-2,3.21s0.36,3.21,2,3.21C127.96,118.51,128.34,116.72,128.34,115.3z"/>
	<path class="st0" d="M132.77,107.92c0-1.35,1.06-2.4,2.41-2.4c1.35,0,2.41,1.05,2.41,2.4s-1.06,2.4-2.41,2.4
		C133.83,110.32,132.77,109.27,132.77,107.92z M137.36,107.92c0-1.24-0.94-2.2-2.19-2.2s-2.19,0.96-2.19,2.2
		c0,1.24,0.94,2.2,2.19,2.2S137.36,109.17,137.36,107.92z M135.61,108.51c-0.03-0.3-0.17-0.56-0.42-0.56h-0.33v0.98
		c0,0.14,0.05,0.17,0.21,0.17h0.24v0.13h-1.3v-0.13h0.14c0.16,0,0.22-0.03,0.22-0.17v-2.12c0-0.14-0.07-0.18-0.22-0.18h-0.14v-0.14
		h1.11c0.67,0,1.17,0.21,1.17,0.71c0,0.35-0.39,0.65-0.88,0.69c0.29,0.07,0.47,0.41,0.56,0.63c0.16,0.41,0.22,0.46,0.37,0.46
		c0.08,0,0.18-0.09,0.17-0.45h0.09c0.04,0.51-0.18,0.75-0.44,0.75S135.65,109.09,135.61,108.51z M135.23,107.81
		c0.37,0,0.52-0.22,0.52-0.6c0-0.37-0.18-0.58-0.5-0.58h-0.18c-0.16,0-0.21,0.04-0.21,0.18v1H135.23z"/>
	<path class="st0" d="M145.11,118.94v-6.46h-1.53v-0.27c1.44-0.25,2.63-1.23,2.85-4.13h0.29v4.04h3.03v0.36h-3.03v6.58
		c0,1.41,0.52,2.11,1.53,2.11c0.92,0,1.66-1.01,1.75-2.99h0.31c0,2.29-1.01,3.64-2.63,3.64
		C146.1,121.81,145.11,120.89,145.11,118.94z"/>
	<path class="st0" d="M150.95,121.21h0.16c0.99,0,1.21-0.25,1.21-1.26v-6.29c0-1.01-0.27-1.26-1.21-1.26h-0.16v-0.27l2.99-0.18
		l-0.16,3.79h0.04c0.7-2.45,1.82-3.91,3.3-3.91c1.15,0,1.8,0.67,1.8,1.46c0,0.88-0.49,1.32-1.12,1.32c-0.56,0-1.01-0.36-1.01-0.92
		c0-0.49,0.27-0.72,0.47-0.9c0.11-0.09,0.18-0.16,0.18-0.27c0-0.18-0.22-0.22-0.49-0.22c-1.62,0-2.99,3.19-2.99,4.96v2.67
		c0,1.01,0.22,1.26,1.21,1.26h0.52v0.31h-4.74V121.21z"/>
	<path class="st0" d="M159.39,116.88c0-3.03,2.11-5.07,4.35-5.07c1.79,0,3.86,1.39,3.86,4.29c0,0.07-0.02,0.56-0.04,0.67h-6.33
		c0,2.47,0.99,4.38,2.92,4.38c1.73,0,2.6-0.88,3.34-1.95l0.25,0.18c-0.83,1.39-2.13,2.49-4.08,2.49
		C161.07,121.86,159.39,119.95,159.39,116.88z M164.6,116.4c0.9,0,1.14-0.29,1.14-1.01c0-1.79-0.63-3.25-2.06-3.25
		c-1.57,0-2.38,1.68-2.45,4.26H164.6z"/>
	<path class="st0" d="M168.93,119.61c0-1.91,1.71-2.92,5.93-3.91v-0.65c0-2.15-0.85-2.89-2.2-2.89c-1.21,0-2.24,0.52-2.24,0.92
		c0,0.07,0.02,0.09,0.11,0.09c0.45,0,0.94,0.43,0.94,0.99c0,0.58-0.45,1.03-1.01,1.03c-0.58,0-1.01-0.43-1.01-1.08
		c0-1.17,1.23-2.27,3.64-2.27c1.8,0,3.37,0.65,3.37,3.3v4.6c0,0.94,0.27,1.23,0.58,1.23c0.54,0,0.76-0.56,0.79-1.79h0.31
		c-0.04,2.13-0.79,2.54-1.71,2.54c-0.88,0-1.68-0.49-1.57-2.11h-0.04c-0.43,1.17-1.77,2.16-3.34,2.16
		C170.03,121.77,168.93,121.05,168.93,119.61z M174.86,117.68v-1.62c-3.43,0.7-4.06,1.88-4.06,3.17c0,1.01,0.54,1.75,1.57,1.75
		C173.46,120.98,174.86,120.17,174.86,117.68z"/>
	<path class="st0" d="M179.62,118.94v-6.46h-1.53v-0.27c1.44-0.25,2.63-1.23,2.85-4.13h0.29v4.04h3.03v0.36h-3.03v6.58
		c0,1.41,0.52,2.11,1.53,2.11c0.92,0,1.66-1.01,1.75-2.99h0.31c0,2.29-1.01,3.64-2.63,3.64
		C180.6,121.81,179.62,120.89,179.62,118.94z"/>
	<path class="st0" d="M185.45,121.21h0.16c0.99,0,1.21-0.25,1.21-1.26v-6.26c0-1.01-0.22-1.28-1.21-1.28h-0.16v-0.27l2.99-0.18
		l-0.11,2.76h0.04c0.58-1.75,1.95-2.78,3.41-2.78c1.71,0,2.38,1.08,2.56,2.54c0.7-1.57,1.93-2.54,3.34-2.54
		c1.82,0,2.58,1.12,2.58,3.34v4.67c0,1.01,0.22,1.26,1.24,1.26h0.04v0.31h-4.33v-0.31h0.22c1.01,0,1.24-0.25,1.24-1.26v-5.23
		c0-1.57-0.61-2.07-1.5-2.07c-1.64,0-2.81,1.8-2.81,3.64v3.66c0,1.01,0.22,1.26,1.23,1.26h0.2v0.31h-4.49v-0.31h0.22
		c1.01,0,1.23-0.25,1.23-1.26v-5.23c0-1.57-0.61-2.07-1.5-2.07c-1.62,0-2.81,1.73-2.81,3.64v3.66c0,1.01,0.22,1.26,1.21,1.26h0.22
		v0.31h-4.44V121.21z"/>
	<path class="st0" d="M202.43,116.88c0-3.03,2.11-5.07,4.35-5.07c1.79,0,3.86,1.39,3.86,4.29c0,0.07-0.02,0.56-0.04,0.67h-6.33
		c0,2.47,0.99,4.38,2.92,4.38c1.73,0,2.6-0.88,3.34-1.95l0.25,0.18c-0.83,1.39-2.13,2.49-4.08,2.49
		C204.11,121.86,202.43,119.95,202.43,116.88z M207.63,116.4c0.9,0,1.14-0.29,1.14-1.01c0-1.79-0.63-3.25-2.06-3.25
		c-1.57,0-2.38,1.68-2.45,4.26H207.63z"/>
	<path class="st0" d="M211.77,121.21h0.16c0.99,0,1.21-0.25,1.21-1.26v-6.26c0-1.01-0.22-1.28-1.21-1.28h-0.16v-0.27l2.99-0.18
		l-0.11,2.76h0.04c0.61-1.82,2.02-2.78,3.48-2.78c1.82,0,2.65,1.12,2.65,3.34v4.67c0,1.01,0.22,1.26,1.23,1.26h0.04v0.31h-4.33
		v-0.31h0.22c1.01,0,1.24-0.25,1.24-1.26v-5.23c0-1.57-0.67-2.07-1.57-2.07c-1.64,0-2.87,1.64-2.87,3.64v3.66
		c0,1.01,0.22,1.26,1.21,1.26h0.22v0.31h-4.44V121.21z"/>
	<path class="st0" d="M223.94,118.94v-6.46h-1.53v-0.27c1.44-0.25,2.63-1.23,2.85-4.13h0.29v4.04h3.03v0.36h-3.03v6.58
		c0,1.41,0.52,2.11,1.53,2.11c0.92,0,1.66-1.01,1.75-2.99h0.31c0,2.29-1.01,3.64-2.63,3.64
		C224.92,121.81,223.94,120.89,223.94,118.94z"/>
	<path class="st0" d="M230.58,120.4c0-0.72,0.56-1.28,1.28-1.28c0.72,0,1.28,0.56,1.28,1.28c0,0.72-0.56,1.28-1.28,1.28
		C231.14,121.68,230.58,121.12,230.58,120.4z"/>
	<path class="st0" d="M231.69,109.31c0.22-0.29,0.8-0.83,1.15-1.32c-0.59-0.2-1.36-0.29-1.7-0.39c-0.35-0.11-0.51-0.28-0.47-0.39
		c0.04-0.13,0.26-0.18,0.62-0.05c0.34,0.13,1.02,0.5,1.61,0.68c0-0.62-0.16-1.38-0.16-1.74c0-0.35,0.1-0.56,0.24-0.56
		s0.24,0.21,0.24,0.56c0,0.37-0.16,1.13-0.16,1.74c0.59-0.18,1.27-0.56,1.61-0.68c0.33-0.12,0.59-0.09,0.62,0.05
		c0.03,0.12-0.12,0.29-0.47,0.39c-0.34,0.1-1.11,0.2-1.7,0.39c0.37,0.5,0.93,1.03,1.15,1.32c0.21,0.26,0.25,0.52,0.14,0.6
		c-0.09,0.07-0.31-0.03-0.52-0.33c-0.21-0.3-0.54-0.99-0.9-1.49c-0.37,0.5-0.69,1.19-0.9,1.49c-0.2,0.28-0.42,0.39-0.51,0.33
		C231.44,109.83,231.48,109.57,231.69,109.31z"/>
</g>
</svg>
