<?xml version="1.0" encoding="utf-8"?>
<!-- Generator: Adobe Illustrator 25.4.1, SVG Export Plug-In . SVG Version: 6.00 Build 0)  -->
<svg version="1.1" id="Layer_1" xmlns="http://www.w3.org/2000/svg" xmlns:xlink="http://www.w3.org/1999/xlink" x="0px" y="0px"
	 viewBox="0 0 300 250" style="enable-background:new 0 0 300 250;" xml:space="preserve">
<style type="text/css">
	.st0{fill:#EAF5FB;}
	.st1{fill:#002554;}
</style>
<rect x="11" y="117" class="st0" width="122.17" height="22"/>
<g>
	<path class="st1" d="M22.67,125.11v1.69h3.29v1.61h-3.29v3.07h-2.08v-7.99h6.21v1.61H22.67z"/>
	<path class="st1" d="M30.07,131.49h-2.08v-7.99h2.08V131.49z"/>
	<path class="st1" d="M39.04,131.49h-2.31l-2.48-4.32l-0.6-1.21h-0.01l0.05,1.5v4.03h-1.84v-7.99h2.31l2.48,4.32l0.6,1.21h0.01
		l-0.05-1.5v-4.03h1.84V131.49z"/>
	<path class="st1" d="M48.07,127.49c0,2.55-1.37,3.99-3.87,3.99h-3.39v-7.99h3.39C46.7,123.5,48.07,124.94,48.07,127.49z
		 M45.94,127.49c0-1.6-0.59-2.42-1.95-2.42h-1.1v4.84h1.1C45.34,129.91,45.94,129.09,45.94,127.49z"/>
	<path class="st1" d="M57.26,129.68H54.5l-0.56,1.8h-2.09l2.81-7.99h2.49l2.8,7.99h-2.14L57.26,129.68z M56.83,128.27l-0.58-1.91
		l-0.35-1.26h-0.02l-0.33,1.25l-0.59,1.92H56.83z"/>
	<path class="st1" d="M70.83,126.15c0,1.63-1.1,2.57-3.09,2.57h-1.59v2.77h-2.08v-7.99h3.67C69.73,123.5,70.83,124.43,70.83,126.15z
		 M68.74,126.12c0-0.7-0.4-1.05-1.32-1.05h-1.26v2.12h1.26C68.34,127.19,68.74,126.84,68.74,126.12z"/>
	<path class="st1" d="M75.45,128.57h-1.25v2.92h-2.04v-7.99h3.81c1.92,0,3.01,0.9,3.01,2.54c0,1.16-0.54,1.95-1.55,2.31l2.02,3.13
		h-2.3L75.45,128.57z M74.21,127.09h1.42c0.88,0,1.27-0.3,1.27-1.02c0-0.7-0.39-1-1.27-1h-1.42V127.09z"/>
	<path class="st1" d="M87.9,127.49c0,2.58-1.48,4.11-3.91,4.11s-3.92-1.54-3.92-4.11s1.49-4.11,3.92-4.11S87.9,124.92,87.9,127.49z
		 M82.2,127.49c0,1.63,0.63,2.48,1.79,2.48c1.15,0,1.78-0.85,1.78-2.48c0-1.63-0.63-2.48-1.78-2.48
		C82.83,125.01,82.2,125.86,82.2,127.49z"/>
	<path class="st1" d="M93.59,131.49h-2.44l-2.84-7.99h2.19l1.46,4.83l0.44,1.57l0.42-1.55l1.49-4.85h2.12L93.59,131.49z"/>
	<path class="st1" d="M99.46,131.49h-2.08v-7.99h2.08V131.49z"/>
	<path class="st1" d="M108.49,127.49c0,2.55-1.37,3.99-3.87,3.99h-3.39v-7.99h3.39C107.12,123.5,108.49,124.94,108.49,127.49z
		 M106.36,127.49c0-1.6-0.59-2.42-1.95-2.42h-1.1v4.84h1.1C105.76,129.91,106.36,129.09,106.36,127.49z"/>
	<path class="st1" d="M116.29,129.88v1.61h-6.38v-7.99h6.22v1.61H112v1.62h3.29v1.51H112v1.63H116.29z"/>
	<path class="st1" d="M120.84,128.57h-1.25v2.92h-2.04v-7.99h3.81c1.92,0,3.01,0.9,3.01,2.54c0,1.16-0.54,1.95-1.55,2.31l2.02,3.13
		h-2.3L120.84,128.57z M119.6,127.09h1.42c0.88,0,1.27-0.3,1.27-1.02c0-0.7-0.39-1-1.27-1h-1.42V127.09z"/>
</g>
</svg>
