<?xml version="1.0" encoding="utf-8"?>
<!-- Generator: Adobe Illustrator 25.4.1, SVG Export Plug-In . SVG Version: 6.00 Build 0)  -->
<svg version="1.1" id="Layer_1" xmlns="http://www.w3.org/2000/svg" xmlns:xlink="http://www.w3.org/1999/xlink" x="0px" y="0px"
	 viewBox="0 0 300 250" style="enable-background:new 0 0 300 250;" xml:space="preserve">
<style type="text/css">
	.st0{fill:#FFFFFF;}
</style>
<g>
	<path class="st0" d="M13.99,149.92h-1.87l-0.44,1.14h-0.52l1.6-4.12h0.59l1.6,4.12h-0.53L13.99,149.92z M13.81,149.45l-0.56-1.46
		l-0.19-0.57h-0.01l-0.18,0.56l-0.56,1.48H13.81z"/>
	<path class="st0" d="M16.17,150.22c0,0.32,0.08,0.42,0.34,0.42c0.17,0,0.27-0.02,0.46-0.09l-0.08,0.48
		c-0.13,0.06-0.3,0.09-0.46,0.09c-0.51,0-0.75-0.27-0.75-0.84v-3.78h0.5V150.22z"/>
	<path class="st0" d="M18.08,150.22c0,0.32,0.08,0.42,0.34,0.42c0.17,0,0.27-0.02,0.46-0.09l-0.08,0.48
		c-0.13,0.06-0.3,0.09-0.46,0.09c-0.51,0-0.75-0.27-0.75-0.84v-3.78h0.5V150.22z"/>
	<path class="st0" d="M22.17,149.69h-2.35c0.06,0.63,0.44,1,1.02,1c0.46,0,0.77-0.16,0.88-0.46l0.42,0.22
		c-0.24,0.42-0.62,0.68-1.3,0.68c-0.94,0-1.51-0.61-1.51-1.62c0-1.01,0.53-1.62,1.47-1.62c0.9,0,1.4,0.66,1.4,1.46
		C22.2,149.48,22.18,149.6,22.17,149.69z M19.83,149.24h1.89c-0.07-0.57-0.39-0.93-0.92-0.93C20.24,148.31,19.9,148.66,19.83,149.24
		z"/>
	<path class="st0" d="M24.96,151.06l-0.86-1.2l-0.89,1.2h-0.58l1.2-1.57l-1.12-1.55h0.62l0.82,1.15l0.81-1.15h0.59l-1.13,1.53
		l1.15,1.59H24.96z"/>
	<path class="st0" d="M29.09,150.67l-0.03,0.39c-0.09,0.03-0.22,0.06-0.37,0.06c-0.31,0-0.51-0.11-0.56-0.46
		c-0.2,0.29-0.61,0.46-1,0.46c-0.59,0-1.06-0.27-1.06-0.84c0-0.47,0.41-0.84,1.22-0.97l0.83-0.14V149c0-0.41-0.26-0.69-0.73-0.69
		c-0.41,0-0.72,0.2-0.89,0.59l-0.37-0.27c0.16-0.46,0.66-0.76,1.26-0.76c0.71,0,1.23,0.34,1.23,1.06v1.54
		c0,0.15,0.06,0.22,0.24,0.22C28.93,150.7,29.02,150.68,29.09,150.67z M28.11,150.01v-0.43l-0.7,0.13c-0.55,0.1-0.83,0.28-0.83,0.57
		c0,0.26,0.21,0.4,0.57,0.4C27.65,150.68,28.11,150.42,28.11,150.01z"/>
	<path class="st0" d="M36.2,147.94l-1.09,3.12h-0.5l-0.88-2.48l-0.83,2.48h-0.5l-1.09-3.12h0.56l0.79,2.54l0.85-2.54h0.5l0.85,2.54
		l0.79-2.54H36.2z"/>
	<path class="st0" d="M39.75,150.67l-0.03,0.39c-0.09,0.03-0.22,0.06-0.37,0.06c-0.31,0-0.51-0.11-0.56-0.46
		c-0.2,0.29-0.61,0.46-1,0.46c-0.59,0-1.06-0.27-1.06-0.84c0-0.47,0.41-0.84,1.22-0.97l0.83-0.14V149c0-0.41-0.26-0.69-0.73-0.69
		c-0.41,0-0.72,0.2-0.89,0.59l-0.37-0.27c0.16-0.46,0.66-0.76,1.26-0.76c0.71,0,1.23,0.34,1.23,1.06v1.54
		c0,0.15,0.06,0.22,0.24,0.22C39.58,150.7,39.67,150.68,39.75,150.67z M38.76,150.01v-0.43l-0.7,0.13c-0.55,0.1-0.83,0.28-0.83,0.57
		c0,0.26,0.21,0.4,0.57,0.4C38.3,150.68,38.76,150.42,38.76,150.01z"/>
	<path class="st0" d="M40.19,150.42l0.41-0.28c0.15,0.38,0.54,0.55,0.99,0.55c0.51,0,0.75-0.21,0.75-0.46
		c0-0.23-0.19-0.37-0.82-0.48c-0.89-0.16-1.21-0.41-1.21-0.93c0-0.5,0.47-0.94,1.23-0.94c0.67,0,1.06,0.24,1.24,0.75l-0.42,0.25
		c-0.14-0.41-0.42-0.56-0.81-0.56c-0.42,0-0.73,0.22-0.73,0.46c0,0.27,0.21,0.41,0.84,0.51c0.87,0.14,1.19,0.41,1.19,0.92
		c0,0.54-0.51,0.92-1.3,0.92C40.96,151.12,40.43,150.9,40.19,150.42z"/>
	<path class="st0" d="M47.68,150.84c-0.19,0.17-0.46,0.28-0.81,0.28c-0.46,0-0.86-0.23-0.87-0.84v-1.92h-0.62v-0.43H46v-0.75
		l0.5-0.14v0.89h1.15v0.43H46.5v1.83c0,0.31,0.19,0.46,0.47,0.46c0.23,0,0.39-0.09,0.53-0.23L47.68,150.84z"/>
	<path class="st0" d="M50.2,147.94l-0.1,0.49c-0.09-0.05-0.23-0.08-0.39-0.08c-0.37,0-0.82,0.33-0.82,1.03v1.68h-0.5v-3.12h0.41
		l0.07,0.51c0.17-0.38,0.51-0.57,1-0.57C49.96,147.88,50.1,147.89,50.2,147.94z"/>
	<path class="st0" d="M53.48,149.69h-2.35c0.06,0.63,0.44,1,1.02,1c0.46,0,0.77-0.16,0.88-0.46l0.42,0.22
		c-0.24,0.42-0.62,0.68-1.3,0.68c-0.94,0-1.51-0.61-1.51-1.62c0-1.01,0.53-1.62,1.47-1.62c0.9,0,1.4,0.66,1.4,1.46
		C53.5,149.48,53.49,149.6,53.48,149.69z M51.13,149.24h1.89c-0.07-0.57-0.39-0.93-0.92-0.93
		C51.55,148.31,51.21,148.66,51.13,149.24z"/>
	<path class="st0" d="M57.26,150.67l-0.03,0.39c-0.09,0.03-0.22,0.06-0.37,0.06c-0.31,0-0.51-0.11-0.56-0.46
		c-0.2,0.29-0.61,0.46-1,0.46c-0.59,0-1.06-0.27-1.06-0.84c0-0.47,0.41-0.84,1.22-0.97l0.83-0.14V149c0-0.41-0.26-0.69-0.73-0.69
		c-0.41,0-0.72,0.2-0.89,0.59l-0.37-0.27c0.16-0.46,0.66-0.76,1.26-0.76c0.71,0,1.23,0.34,1.23,1.06v1.54
		c0,0.15,0.06,0.22,0.24,0.22C57.09,150.7,57.19,150.68,57.26,150.67z M56.28,150.01v-0.43l-0.7,0.13c-0.55,0.1-0.83,0.28-0.83,0.57
		c0,0.26,0.21,0.4,0.57,0.4C55.81,150.68,56.28,150.42,56.28,150.01z"/>
	<path class="st0" d="M59.77,150.84c-0.19,0.17-0.46,0.28-0.81,0.28c-0.46,0-0.86-0.23-0.87-0.84v-1.92h-0.62v-0.43h0.62v-0.75
		l0.5-0.14v0.89h1.15v0.43H58.6v1.83c0,0.31,0.19,0.46,0.47,0.46c0.23,0,0.39-0.09,0.53-0.23L59.77,150.84z"/>
	<path class="st0" d="M63.13,149.69h-2.35c0.06,0.63,0.44,1,1.02,1c0.46,0,0.77-0.16,0.88-0.46l0.42,0.22
		c-0.24,0.42-0.62,0.68-1.3,0.68c-0.94,0-1.51-0.61-1.51-1.62c0-1.01,0.53-1.62,1.47-1.62c0.9,0,1.4,0.66,1.4,1.46
		C63.15,149.48,63.14,149.6,63.13,149.69z M60.78,149.24h1.89c-0.07-0.57-0.39-0.93-0.92-0.93
		C61.2,148.31,60.86,148.66,60.78,149.24z"/>
	<path class="st0" d="M66.88,146.5v4.56h-0.44l-0.03-0.54c-0.18,0.36-0.57,0.61-1.07,0.61c-0.87,0-1.42-0.61-1.42-1.62
		c0-1.02,0.56-1.62,1.42-1.62c0.47,0,0.84,0.22,1.04,0.55v-1.92H66.88z M66.38,149.54v-0.08c0-0.71-0.39-1.15-0.98-1.15
		c-0.61,0-0.98,0.46-0.98,1.19c0,0.72,0.37,1.19,0.98,1.19C65.99,150.68,66.38,150.24,66.38,149.54z"/>
	<path class="st0" d="M74.56,147.94l-1.09,3.12h-0.5l-0.88-2.48l-0.83,2.48h-0.5l-1.09-3.12h0.56l0.79,2.54l0.85-2.54h0.5l0.85,2.54
		l0.79-2.54H74.56z"/>
	<path class="st0" d="M75.25,146.96c0-0.22,0.15-0.38,0.37-0.38s0.37,0.15,0.37,0.38s-0.15,0.37-0.37,0.37
		S75.25,147.19,75.25,146.96z M75.87,151.06h-0.5v-3.12h0.5V151.06z"/>
	<path class="st0" d="M78.94,150.84c-0.19,0.17-0.46,0.28-0.81,0.28c-0.46,0-0.86-0.23-0.87-0.84v-1.92h-0.62v-0.43h0.62v-0.75
		l0.5-0.14v0.89h1.15v0.43h-1.15v1.83c0,0.31,0.19,0.46,0.47,0.46c0.23,0,0.39-0.09,0.53-0.23L78.94,150.84z"/>
	<path class="st0" d="M82.38,149.06v2h-0.5v-1.82c0-0.69-0.34-0.92-0.77-0.92c-0.46,0-0.97,0.29-0.97,1.09v1.65h-0.5v-4.56h0.5v1.9
		c0.22-0.37,0.59-0.53,1.02-0.53C81.83,147.88,82.38,148.26,82.38,149.06z"/>
	<path class="st0" d="M87.39,151.12c-1.17,0-1.91-0.82-1.91-2.12s0.75-2.12,1.9-2.12c0.8,0,1.34,0.34,1.6,0.96l-0.49,0.23
		c-0.18-0.47-0.52-0.72-1.07-0.72c-0.84,0-1.41,0.61-1.41,1.65c0,1.04,0.53,1.65,1.39,1.65c0.55,0,0.98-0.28,1.16-0.84l0.5,0.19
		C88.79,150.71,88.16,151.12,87.39,151.12z"/>
	<path class="st0" d="M92.75,149.5c0,1.01-0.57,1.62-1.51,1.62c-0.94,0-1.51-0.61-1.51-1.62c0-1.01,0.57-1.62,1.51-1.62
		C92.18,147.88,92.75,148.49,92.75,149.5z M90.22,149.5c0,0.74,0.38,1.19,1.01,1.19c0.63,0,1.01-0.45,1.01-1.19
		c0-0.74-0.38-1.19-1.01-1.19C90.61,148.31,90.22,148.76,90.22,149.5z"/>
	<path class="st0" d="M96.54,149.5c0,1.01-0.57,1.62-1.51,1.62c-0.94,0-1.51-0.61-1.51-1.62c0-1.01,0.57-1.62,1.51-1.62
		C95.97,147.88,96.54,148.49,96.54,149.5z M94.02,149.5c0,0.74,0.38,1.19,1.01,1.19c0.63,0,1.01-0.45,1.01-1.19
		c0-0.74-0.38-1.19-1.01-1.19C94.4,148.31,94.02,148.76,94.02,149.5z"/>
	<path class="st0" d="M97.98,150.22c0,0.32,0.08,0.42,0.34,0.42c0.17,0,0.27-0.02,0.46-0.09l-0.08,0.48
		c-0.13,0.06-0.3,0.09-0.46,0.09c-0.51,0-0.75-0.27-0.75-0.84v-3.78h0.5V150.22z"/>
	<path class="st0" d="M102.43,147.75L102,148.1c-0.25-0.54-0.55-0.75-1.15-0.75c-0.66,0-1.02,0.31-1.02,0.7
		c0,0.39,0.27,0.58,1.14,0.73c1.1,0.19,1.5,0.54,1.5,1.17c0,0.71-0.63,1.17-1.59,1.17c-0.87,0-1.45-0.38-1.74-0.89l0.43-0.35
		c0.22,0.47,0.64,0.77,1.32,0.77c0.64,0,1.06-0.24,1.06-0.68c0-0.36-0.27-0.56-1.14-0.71c-1.11-0.19-1.51-0.53-1.51-1.16
		c0-0.66,0.58-1.22,1.54-1.22C101.59,146.88,102.11,147.18,102.43,147.75z"/>
	<path class="st0" d="M106.03,148.71l-0.47,0.22c-0.13-0.4-0.4-0.62-0.83-0.62c-0.62,0-1,0.44-1,1.19c0,0.74,0.37,1.19,1,1.19
		c0.49,0,0.78-0.23,0.87-0.64l0.46,0.16c-0.21,0.57-0.66,0.92-1.32,0.92c-0.94,0-1.51-0.61-1.51-1.62c0-1.01,0.57-1.62,1.51-1.62
		C105.38,147.88,105.8,148.19,106.03,148.71z"/>
	<path class="st0" d="M109.64,147.94v3.12h-0.44l-0.03-0.47c-0.22,0.38-0.62,0.54-1.12,0.54c-0.62,0-1.15-0.32-1.15-1.14v-2.04h0.5
		v1.91c0,0.64,0.29,0.84,0.74,0.84c0.53,0,1-0.31,1-1.05v-1.7H109.64z"/>
	<path class="st0" d="M111.28,150.22c0,0.32,0.08,0.42,0.34,0.42c0.17,0,0.27-0.02,0.46-0.09l-0.08,0.48
		c-0.13,0.06-0.3,0.09-0.46,0.09c-0.51,0-0.75-0.27-0.75-0.84v-3.78h0.5V150.22z"/>
	<path class="st0" d="M115.67,149.5c0,1.02-0.56,1.62-1.42,1.62c-0.47,0-0.84-0.22-1.04-0.55v1.8h-0.5v-4.43h0.44l0.03,0.54
		c0.18-0.36,0.57-0.61,1.07-0.61C115.12,147.88,115.67,148.48,115.67,149.5z M115.17,149.5c0-0.72-0.37-1.19-0.98-1.19
		c-0.59,0-0.98,0.44-0.98,1.15v0.08c0,0.71,0.39,1.15,0.98,1.15C114.8,150.68,115.17,150.22,115.17,149.5z"/>
	<path class="st0" d="M118.5,150.84c-0.19,0.17-0.46,0.28-0.81,0.28c-0.46,0-0.86-0.23-0.87-0.84v-1.92h-0.62v-0.43h0.62v-0.75
		l0.5-0.14v0.89h1.15v0.43h-1.15v1.83c0,0.31,0.19,0.46,0.47,0.46c0.23,0,0.39-0.09,0.53-0.23L118.5,150.84z"/>
	<path class="st0" d="M119.08,146.96c0-0.22,0.15-0.38,0.37-0.38s0.37,0.15,0.37,0.38s-0.15,0.37-0.37,0.37
		S119.08,147.19,119.08,146.96z M119.7,151.06h-0.5v-3.12h0.5V151.06z"/>
	<path class="st0" d="M123.6,149.06v2h-0.5v-1.82c0-0.69-0.34-0.92-0.77-0.92c-0.46,0-0.97,0.29-0.97,1.09v1.66h-0.5v-3.12h0.44
		l0.03,0.49c0.22-0.39,0.62-0.55,1.05-0.55C123.05,147.88,123.6,148.26,123.6,149.06z"/>
	<path class="st0" d="M127.41,151.4c0,0.62-0.7,1-1.54,1c-0.99,0-1.44-0.36-1.44-0.82c0-0.29,0.21-0.51,0.55-0.6
		c-0.24-0.11-0.42-0.3-0.42-0.57c0-0.33,0.19-0.52,0.47-0.61c-0.3-0.19-0.46-0.49-0.46-0.85c0-0.62,0.53-1.05,1.28-1.05
		c0.24,0,0.45,0.04,0.64,0.12c0.12-0.43,0.41-0.64,0.88-0.64l0.11,0.44c-0.42,0-0.66,0.12-0.74,0.34c0.25,0.19,0.39,0.46,0.39,0.79
		c0,0.62-0.53,1.05-1.28,1.05c-0.18,0-0.34-0.02-0.48-0.06c-0.25,0.06-0.35,0.18-0.35,0.39c0,0.22,0.17,0.34,0.41,0.34h1.04
		C127.06,150.66,127.41,150.95,127.41,151.4z M126.95,151.46c0-0.22-0.15-0.37-0.62-0.37h-0.84c-0.39,0-0.6,0.15-0.6,0.39
		c0,0.31,0.34,0.51,1.03,0.51C126.59,151.98,126.95,151.73,126.95,151.46z M125.09,148.93c0,0.39,0.33,0.65,0.76,0.65
		s0.76-0.26,0.76-0.65s-0.33-0.65-0.76-0.65S125.09,148.54,125.09,148.93z"/>
	<path class="st0" d="M130.3,147.78c0,0.75-0.49,1.23-1.24,1.23s-1.24-0.49-1.24-1.23s0.49-1.24,1.24-1.24
		S130.3,147.03,130.3,147.78z M130.05,147.78c0-0.61-0.38-1-0.98-1c-0.6,0-0.98,0.39-0.98,1s0.38,1,0.98,1
		C129.66,148.78,130.05,148.39,130.05,147.78z M129.33,147.95l0.36,0.51h-0.28l-0.32-0.49h-0.25v0.49h-0.24v-1.34h0.55
		c0.3,0,0.51,0.16,0.51,0.43C129.65,147.75,129.53,147.9,129.33,147.95z M128.84,147.79h0.31c0.17,0,0.27-0.08,0.27-0.24
		s-0.09-0.24-0.27-0.24h-0.31V147.79z"/>
	<path class="st0" d="M14.41,155.74c0,1.01-0.57,1.62-1.51,1.62c-0.94,0-1.51-0.61-1.51-1.62c0-1.01,0.57-1.62,1.51-1.62
		C13.84,154.12,14.41,154.73,14.41,155.74z M11.89,155.74c0,0.74,0.38,1.19,1.01,1.19c0.63,0,1.01-0.45,1.01-1.19
		c0-0.74-0.38-1.19-1.01-1.19C12.27,154.55,11.89,155,11.89,155.74z"/>
	<path class="st0" d="M18.11,155.3v2h-0.5v-1.82c0-0.69-0.34-0.92-0.77-0.92c-0.46,0-0.97,0.29-0.97,1.09v1.66h-0.5v-3.12h0.44
		l0.03,0.49c0.22-0.39,0.62-0.55,1.05-0.55C17.56,154.12,18.11,154.5,18.11,155.3z"/>
	<path class="st0" d="M24.1,155.3v2h-0.5v-1.82c0-0.69-0.34-0.92-0.77-0.92c-0.46,0-0.97,0.29-0.97,1.09v1.65h-0.5v-4.56h0.5v1.9
		c0.22-0.37,0.59-0.53,1.02-0.53C23.55,154.12,24.1,154.5,24.1,155.3z"/>
	<path class="st0" d="M27.88,155.93h-2.35c0.06,0.63,0.44,1,1.02,1c0.46,0,0.77-0.16,0.88-0.46l0.42,0.22
		c-0.24,0.42-0.62,0.68-1.3,0.68c-0.94,0-1.51-0.61-1.51-1.62c0-1.01,0.53-1.62,1.47-1.62c0.9,0,1.4,0.66,1.4,1.46
		C27.91,155.72,27.9,155.84,27.88,155.93z M25.54,155.48h1.89c-0.07-0.57-0.39-0.93-0.92-0.93
		C25.95,154.55,25.61,154.9,25.54,155.48z"/>
	<path class="st0" d="M30.67,154.18l-0.1,0.49c-0.09-0.05-0.23-0.08-0.39-0.08c-0.37,0-0.82,0.33-0.82,1.03v1.68h-0.5v-3.12h0.41
		l0.07,0.51c0.17-0.38,0.51-0.57,1-0.57C30.44,154.12,30.58,154.13,30.67,154.18z"/>
	<path class="st0" d="M36.2,156.91l-0.03,0.39c-0.09,0.03-0.22,0.06-0.37,0.06c-0.31,0-0.51-0.11-0.56-0.46
		c-0.2,0.29-0.61,0.46-1,0.46c-0.59,0-1.06-0.27-1.06-0.84c0-0.47,0.41-0.84,1.22-0.97l0.83-0.14v-0.17c0-0.41-0.26-0.69-0.73-0.69
		c-0.41,0-0.72,0.2-0.89,0.59l-0.37-0.27c0.16-0.46,0.66-0.76,1.26-0.76c0.71,0,1.23,0.34,1.23,1.06v1.54
		c0,0.15,0.06,0.22,0.24,0.22C36.03,156.94,36.12,156.93,36.2,156.91z M35.21,156.25v-0.43l-0.7,0.13c-0.55,0.1-0.83,0.28-0.83,0.57
		c0,0.26,0.21,0.4,0.57,0.4C34.75,156.93,35.21,156.66,35.21,156.25z"/>
	<path class="st0" d="M39.88,155.74c0,1.02-0.56,1.62-1.42,1.62c-0.49,0-0.89-0.25-1.07-0.61l-0.03,0.54h-0.44v-4.56h0.5v1.92
		c0.19-0.32,0.57-0.55,1.04-0.55C39.32,154.12,39.88,154.72,39.88,155.74z M39.38,155.74c0-0.72-0.37-1.19-0.98-1.19
		c-0.59,0-0.98,0.44-0.98,1.15v0.08c0,0.71,0.39,1.15,0.98,1.15C39.01,156.93,39.38,156.46,39.38,155.74z"/>
	<path class="st0" d="M43.62,152.74v4.56h-0.44l-0.03-0.54c-0.18,0.36-0.57,0.61-1.07,0.61c-0.87,0-1.42-0.61-1.42-1.62
		c0-1.02,0.56-1.62,1.42-1.62c0.47,0,0.84,0.22,1.04,0.55v-1.92H43.62z M43.12,155.78v-0.08c0-0.71-0.39-1.15-0.98-1.15
		c-0.61,0-0.98,0.46-0.98,1.19c0,0.72,0.37,1.19,0.98,1.19C42.74,156.93,43.12,156.48,43.12,155.78z"/>
	<path class="st0" d="M47.61,155.74c0,1.01-0.57,1.62-1.51,1.62c-0.94,0-1.51-0.61-1.51-1.62c0-1.01,0.57-1.62,1.51-1.62
		C47.04,154.12,47.61,154.73,47.61,155.74z M45.09,155.74c0,0.74,0.38,1.19,1.01,1.19c0.63,0,1.01-0.45,1.01-1.19
		c0-0.74-0.38-1.19-1.01-1.19C45.47,154.55,45.09,155,45.09,155.74z"/>
	<path class="st0" d="M53.4,155.3v2h-0.5v-1.95c0-0.57-0.32-0.8-0.74-0.8c-0.49,0-0.92,0.37-0.92,1.04v1.71h-0.5v-1.95
		c0-0.57-0.32-0.8-0.74-0.8c-0.41,0-0.92,0.31-0.92,1.08v1.67h-0.5v-3.12h0.44l0.03,0.49c0.22-0.38,0.61-0.55,1-0.55
		c0.44,0,0.87,0.19,1.07,0.61c0.19-0.42,0.69-0.61,1.09-0.61C52.81,154.12,53.4,154.48,53.4,155.3z"/>
	<path class="st0" d="M57.18,155.93h-2.35c0.06,0.63,0.44,1,1.02,1c0.46,0,0.77-0.16,0.88-0.46l0.42,0.22
		c-0.24,0.42-0.62,0.68-1.3,0.68c-0.94,0-1.51-0.61-1.51-1.62c0-1.01,0.53-1.62,1.47-1.62c0.9,0,1.4,0.66,1.4,1.46
		C57.21,155.72,57.19,155.84,57.18,155.93z M54.83,155.48h1.89c-0.07-0.57-0.39-0.93-0.92-0.93
		C55.25,154.55,54.91,154.9,54.83,155.48z"/>
	<path class="st0" d="M60.89,155.3v2h-0.5v-1.82c0-0.69-0.34-0.92-0.77-0.92c-0.46,0-0.97,0.29-0.97,1.09v1.66h-0.5v-3.12h0.44
		l0.03,0.49c0.22-0.39,0.62-0.55,1.05-0.55C60.34,154.12,60.89,154.5,60.89,155.3z"/>
	<path class="st0" d="M62.67,156.96c0,0.24-0.16,0.41-0.41,0.41c-0.24,0-0.41-0.16-0.41-0.41c0-0.24,0.16-0.41,0.41-0.41
		C62.51,156.55,62.67,156.71,62.67,156.96z"/>
	<path class="st0" d="M67.39,155.59H66.4v1.71h-0.5v-4.12h1.56c0.84,0,1.39,0.46,1.39,1.21c0,0.59-0.35,1-0.91,1.15l1.16,1.77h-0.59
		L67.39,155.59z M66.4,155.12h1.05c0.59,0,0.87-0.24,0.87-0.74c0-0.49-0.29-0.74-0.87-0.74H66.4V155.12z"/>
	<path class="st0" d="M72.5,155.93h-2.35c0.06,0.63,0.44,1,1.02,1c0.46,0,0.77-0.16,0.88-0.46l0.42,0.22
		c-0.24,0.42-0.62,0.68-1.3,0.68c-0.94,0-1.51-0.61-1.51-1.62c0-1.01,0.53-1.62,1.47-1.62c0.9,0,1.4,0.66,1.4,1.46
		C72.53,155.72,72.52,155.84,72.5,155.93z M70.16,155.48h1.89c-0.07-0.57-0.39-0.93-0.92-0.93
		C70.57,154.55,70.23,154.9,70.16,155.48z"/>
	<path class="st0" d="M73.2,156.66l0.41-0.28c0.15,0.38,0.54,0.55,0.99,0.55c0.51,0,0.75-0.21,0.75-0.46c0-0.23-0.19-0.37-0.82-0.48
		c-0.89-0.16-1.21-0.41-1.21-0.93c0-0.5,0.47-0.94,1.23-0.94c0.67,0,1.06,0.24,1.24,0.75l-0.42,0.25c-0.14-0.41-0.42-0.56-0.81-0.56
		c-0.42,0-0.73,0.22-0.73,0.46c0,0.27,0.21,0.41,0.84,0.51c0.87,0.14,1.19,0.41,1.19,0.92c0,0.54-0.51,0.92-1.3,0.92
		C73.96,157.36,73.43,157.14,73.2,156.66z"/>
	<path class="st0" d="M79.47,154.18v3.12h-0.44L79,156.83c-0.22,0.38-0.62,0.54-1.12,0.54c-0.62,0-1.15-0.32-1.15-1.14v-2.04h0.5
		v1.91c0,0.64,0.29,0.84,0.74,0.84c0.53,0,1-0.31,1-1.05v-1.7H79.47z"/>
	<path class="st0" d="M81.1,156.46c0,0.32,0.08,0.42,0.34,0.42c0.17,0,0.27-0.02,0.46-0.09l-0.08,0.48
		c-0.13,0.06-0.3,0.09-0.46,0.09c-0.51,0-0.75-0.27-0.75-0.84v-3.78h0.5V156.46z"/>
	<path class="st0" d="M84.32,157.08c-0.19,0.17-0.46,0.28-0.81,0.28c-0.46,0-0.86-0.23-0.87-0.84v-1.92h-0.62v-0.43h0.62v-0.75
		l0.5-0.14v0.89h1.15v0.43h-1.15v1.83c0,0.31,0.19,0.46,0.47,0.46c0.23,0,0.39-0.09,0.53-0.23L84.32,157.08z"/>
	<path class="st0" d="M84.75,156.66l0.41-0.28c0.15,0.38,0.54,0.55,0.99,0.55c0.51,0,0.75-0.21,0.75-0.46
		c0-0.23-0.19-0.37-0.82-0.48c-0.89-0.16-1.21-0.41-1.21-0.93c0-0.5,0.47-0.94,1.23-0.94c0.67,0,1.06,0.24,1.24,0.75l-0.42,0.25
		c-0.14-0.41-0.42-0.56-0.81-0.56c-0.42,0-0.73,0.22-0.73,0.46c0,0.27,0.21,0.41,0.84,0.51c0.87,0.14,1.19,0.41,1.19,0.92
		c0,0.54-0.51,0.92-1.3,0.92C85.52,157.36,84.99,157.14,84.75,156.66z"/>
	<path class="st0" d="M95.27,155.3v2h-0.5v-1.95c0-0.57-0.32-0.8-0.74-0.8c-0.49,0-0.92,0.37-0.92,1.04v1.71h-0.5v-1.95
		c0-0.57-0.32-0.8-0.74-0.8c-0.41,0-0.92,0.31-0.92,1.08v1.67h-0.5v-3.12h0.44l0.03,0.49c0.22-0.38,0.61-0.55,1-0.55
		c0.44,0,0.87,0.19,1.07,0.61c0.19-0.42,0.69-0.61,1.09-0.61C94.67,154.12,95.27,154.48,95.27,155.3z"/>
	<path class="st0" d="M99.2,156.91l-0.03,0.39c-0.09,0.03-0.22,0.06-0.37,0.06c-0.31,0-0.51-0.11-0.56-0.46
		c-0.2,0.29-0.61,0.46-1,0.46c-0.59,0-1.06-0.27-1.06-0.84c0-0.47,0.41-0.84,1.22-0.97l0.83-0.14v-0.17c0-0.41-0.26-0.69-0.73-0.69
		c-0.41,0-0.72,0.2-0.89,0.59l-0.37-0.27c0.16-0.46,0.66-0.76,1.26-0.76c0.71,0,1.23,0.34,1.23,1.06v1.54
		c0,0.15,0.06,0.22,0.24,0.22C99.04,156.94,99.13,156.93,99.2,156.91z M98.22,156.25v-0.43l-0.7,0.13c-0.55,0.1-0.83,0.28-0.83,0.57
		c0,0.26,0.21,0.4,0.57,0.4C97.76,156.93,98.22,156.66,98.22,156.25z"/>
	<path class="st0" d="M100.93,157.82c-0.24,0.61-0.52,0.82-0.99,0.82c-0.31,0-0.51-0.08-0.69-0.26l0.17-0.42
		c0.14,0.2,0.33,0.25,0.51,0.25c0.22,0,0.41-0.09,0.57-0.51l0.16-0.41l-1.3-3.11h0.57l0.78,2.03l0.19,0.56l0.22-0.62l0.73-1.97h0.54
		L100.93,157.82z"/>
	<path class="st0" d="M107.49,154.18l-1.3,3.12h-0.5l-1.3-3.12h0.57l0.99,2.61l1.02-2.61H107.49z"/>
	<path class="st0" d="M110.88,156.91l-0.03,0.39c-0.09,0.03-0.22,0.06-0.37,0.06c-0.31,0-0.51-0.11-0.56-0.46
		c-0.2,0.29-0.61,0.46-1,0.46c-0.59,0-1.06-0.27-1.06-0.84c0-0.47,0.41-0.84,1.22-0.97l0.83-0.14v-0.17c0-0.41-0.26-0.69-0.73-0.69
		c-0.41,0-0.72,0.2-0.89,0.59l-0.37-0.27c0.16-0.46,0.66-0.76,1.26-0.76c0.71,0,1.23,0.34,1.23,1.06v1.54
		c0,0.15,0.06,0.22,0.24,0.22C110.71,156.94,110.8,156.93,110.88,156.91z M109.89,156.25v-0.43l-0.7,0.13
		c-0.55,0.1-0.83,0.28-0.83,0.57c0,0.26,0.21,0.4,0.57,0.4C109.43,156.93,109.89,156.66,109.89,156.25z"/>
	<path class="st0" d="M113.42,154.18l-0.1,0.49c-0.09-0.05-0.23-0.08-0.39-0.08c-0.37,0-0.82,0.33-0.82,1.03v1.68h-0.5v-3.12h0.41
		l0.07,0.51c0.17-0.38,0.51-0.57,1-0.57C113.18,154.12,113.32,154.13,113.42,154.18z"/>
	<path class="st0" d="M115.33,157.82c-0.24,0.61-0.52,0.82-0.99,0.82c-0.31,0-0.51-0.08-0.69-0.26l0.17-0.42
		c0.14,0.2,0.33,0.25,0.51,0.25c0.22,0,0.41-0.09,0.57-0.51l0.16-0.41l-1.3-3.11h0.57l0.78,2.03l0.19,0.56l0.22-0.62l0.73-1.97h0.54
		L115.33,157.82z"/>
	<path class="st0" d="M117.68,156.96c0,0.24-0.16,0.41-0.41,0.41c-0.24,0-0.41-0.16-0.41-0.41c0-0.24,0.16-0.41,0.41-0.41
		C117.52,156.55,117.68,156.71,117.68,156.96z"/>
</g>
</svg>
