<?xml version="1.0" encoding="utf-8"?>
<!-- Generator: Adobe Illustrator 25.4.1, SVG Export Plug-In . SVG Version: 6.00 Build 0)  -->
<svg version="1.1" id="Layer_1" xmlns="http://www.w3.org/2000/svg" xmlns:xlink="http://www.w3.org/1999/xlink" x="0px" y="0px"
	 viewBox="0 0 300 250" style="enable-background:new 0 0 300 250;" xml:space="preserve">
<style type="text/css">
	.st0{fill:#FFFFFF;}
</style>
<g>
	<path class="st0" d="M14.92,145.37l-0.36-0.81l-0.15-0.47l-0.34,0.43l-0.7,0.68l-0.41-0.42l0.7-0.68l0.44-0.33l-0.46-0.15
		l-0.8-0.38l0.29-0.53l0.8,0.38l0.42,0.28l0.04-0.53l0.19-0.89h0.63l-0.23,0.95l-0.19,0.51l0.51-0.18l0.93-0.18l0.04,0.59
		l-0.92,0.18l-0.54,0.04l0.26,0.42l0.37,0.8L14.92,145.37z"/>
	<path class="st0" d="M15.32,147.31l2.9-4.84h0.97l0.65,4.84h-0.76l-0.42-3.35l-0.09-0.75l-0.42,0.73l-1.97,3.37H15.32z M16.59,146
		l0.15-0.64h2.57L19.17,146H16.59z"/>
	<path class="st0" d="M22.22,147.39c-0.28,0-0.53-0.04-0.77-0.12c-0.23-0.08-0.43-0.2-0.6-0.36c-0.17-0.16-0.31-0.34-0.4-0.55
		l0.59-0.36c0.1,0.25,0.25,0.44,0.45,0.58c0.2,0.13,0.44,0.2,0.71,0.2c0.22,0,0.4-0.04,0.52-0.13s0.18-0.21,0.18-0.35
		c0-0.11-0.03-0.19-0.1-0.26c-0.07-0.07-0.17-0.12-0.31-0.16l-0.59-0.18c-0.32-0.09-0.56-0.22-0.71-0.39
		c-0.15-0.17-0.23-0.38-0.23-0.61c0-0.22,0.06-0.41,0.18-0.58c0.12-0.17,0.29-0.3,0.51-0.4c0.22-0.1,0.48-0.15,0.78-0.15
		c0.36,0,0.67,0.07,0.95,0.22c0.27,0.15,0.47,0.36,0.6,0.64l-0.56,0.38c-0.05-0.13-0.13-0.24-0.23-0.33s-0.21-0.17-0.34-0.22
		s-0.27-0.08-0.43-0.08c-0.24,0-0.42,0.04-0.53,0.12c-0.12,0.08-0.18,0.19-0.18,0.33c0,0.12,0.05,0.22,0.14,0.28s0.2,0.11,0.33,0.15
		l0.71,0.21c0.25,0.07,0.45,0.19,0.59,0.35c0.14,0.16,0.21,0.35,0.21,0.56c0,0.25-0.06,0.46-0.18,0.65s-0.29,0.32-0.51,0.42
		S22.5,147.39,22.22,147.39z"/>
	<path class="st0" d="M28.34,147.39c-0.28,0-0.53-0.04-0.77-0.12c-0.23-0.08-0.43-0.2-0.6-0.36c-0.17-0.16-0.31-0.34-0.4-0.55
		l0.59-0.36c0.1,0.25,0.25,0.44,0.45,0.58c0.2,0.13,0.44,0.2,0.71,0.2c0.22,0,0.4-0.04,0.52-0.13s0.18-0.21,0.18-0.35
		c0-0.11-0.03-0.19-0.1-0.26c-0.07-0.07-0.17-0.12-0.31-0.16l-0.59-0.18c-0.32-0.09-0.56-0.22-0.71-0.39
		c-0.15-0.17-0.23-0.38-0.23-0.61c0-0.22,0.06-0.41,0.18-0.58c0.12-0.17,0.29-0.3,0.51-0.4c0.22-0.1,0.48-0.15,0.78-0.15
		c0.36,0,0.67,0.07,0.95,0.22c0.27,0.15,0.47,0.36,0.6,0.64l-0.56,0.38c-0.05-0.13-0.13-0.24-0.23-0.33s-0.21-0.17-0.34-0.22
		s-0.27-0.08-0.43-0.08c-0.24,0-0.42,0.04-0.53,0.12c-0.12,0.08-0.18,0.19-0.18,0.33c0,0.12,0.05,0.22,0.14,0.28s0.2,0.11,0.33,0.15
		l0.71,0.21c0.25,0.07,0.45,0.19,0.59,0.35c0.14,0.16,0.21,0.35,0.21,0.56c0,0.25-0.06,0.46-0.18,0.65s-0.29,0.32-0.51,0.42
		S28.63,147.39,28.34,147.39z"/>
	<path class="st0" d="M30.42,147.31l1.23-5.31h0.78l-0.56,2.41l-0.12,0.09c0.06-0.2,0.16-0.36,0.3-0.5s0.3-0.24,0.48-0.32
		s0.38-0.11,0.6-0.11c0.26,0,0.49,0.06,0.68,0.18c0.19,0.12,0.33,0.29,0.41,0.51s0.09,0.49,0.02,0.8l-0.53,2.25h-0.78l0.51-2.2
		c0.06-0.28,0.04-0.5-0.08-0.66s-0.3-0.24-0.56-0.24c-0.2,0-0.37,0.04-0.52,0.13s-0.28,0.22-0.38,0.38
		c-0.1,0.17-0.19,0.38-0.25,0.63l-0.45,1.94H30.42z"/>
	<path class="st0" d="M36.72,147.38c-0.36,0-0.67-0.07-0.92-0.22c-0.25-0.15-0.45-0.34-0.58-0.6c-0.14-0.25-0.21-0.53-0.21-0.83
		c0-0.42,0.08-0.78,0.25-1.11s0.39-0.58,0.68-0.76c0.29-0.19,0.63-0.28,1.03-0.28c0.36,0,0.67,0.07,0.92,0.22
		c0.25,0.15,0.44,0.34,0.58,0.59c0.13,0.25,0.2,0.53,0.2,0.84c0,0.41-0.08,0.77-0.24,1.1c-0.16,0.32-0.38,0.58-0.68,0.77
		C37.45,147.29,37.11,147.38,36.72,147.38z M36.73,146.76c0.16,0,0.31-0.04,0.45-0.12c0.14-0.08,0.26-0.19,0.37-0.33
		c0.1-0.14,0.19-0.31,0.24-0.49c0.06-0.19,0.08-0.39,0.08-0.6c0-0.2-0.03-0.37-0.1-0.52s-0.17-0.27-0.31-0.36
		c-0.14-0.09-0.31-0.13-0.52-0.13c-0.16,0-0.31,0.04-0.45,0.12s-0.26,0.19-0.37,0.33c-0.1,0.14-0.18,0.3-0.24,0.49
		c-0.06,0.19-0.09,0.39-0.09,0.61c0,0.19,0.03,0.36,0.1,0.51c0.07,0.16,0.17,0.28,0.31,0.37C36.35,146.72,36.52,146.76,36.73,146.76
		z"/>
	<path class="st0" d="M39.6,147.31l-0.34-3.66h0.76l0.2,2.84l1.47-2.84h0.78l0.31,2.88l1.47-2.88h0.84l-1.99,3.66h-0.86l-0.33-2.71
		l-1.43,2.71H39.6z"/>
	<path class="st0" d="M44.96,147.31l0.85-3.66h0.69l-0.15,0.92l-0.07-0.05c0.1-0.31,0.28-0.55,0.54-0.71
		c0.26-0.16,0.54-0.24,0.86-0.24c0.27,0,0.51,0.06,0.7,0.18c0.19,0.12,0.33,0.29,0.4,0.51s0.08,0.49,0.01,0.81l-0.52,2.24h-0.78
		l0.51-2.2c0.06-0.28,0.04-0.5-0.08-0.66s-0.3-0.24-0.56-0.24c-0.2,0-0.37,0.04-0.52,0.13s-0.28,0.22-0.38,0.38
		c-0.1,0.17-0.19,0.38-0.25,0.63l-0.45,1.94H44.96z"/>
	<path class="st0" d="M53.36,143.65l-0.85,3.66h-0.78l0.85-3.66H53.36z M53.18,143.03c-0.15,0-0.26-0.04-0.35-0.12
		c-0.09-0.08-0.13-0.19-0.12-0.32c0-0.17,0.06-0.3,0.16-0.4c0.1-0.09,0.23-0.14,0.39-0.14c0.15,0,0.27,0.04,0.36,0.11
		c0.09,0.08,0.13,0.18,0.12,0.31c-0.01,0.18-0.07,0.32-0.17,0.41C53.46,142.99,53.34,143.03,53.18,143.03z"/>
	<path class="st0" d="M53.68,147.31l0.85-3.66h0.69l-0.15,0.92L55,144.52c0.1-0.31,0.28-0.55,0.54-0.71
		c0.26-0.16,0.54-0.24,0.86-0.24c0.27,0,0.51,0.06,0.7,0.18c0.19,0.12,0.33,0.29,0.4,0.51s0.08,0.49,0.01,0.81l-0.52,2.24H56.2
		l0.51-2.2c0.06-0.28,0.04-0.5-0.08-0.66s-0.3-0.24-0.56-0.24c-0.2,0-0.37,0.04-0.52,0.13s-0.28,0.22-0.38,0.38
		c-0.1,0.17-0.19,0.38-0.25,0.63l-0.45,1.94H53.68z"/>
	<path class="st0" d="M62.03,147.37c-0.27,0-0.51-0.06-0.72-0.19c-0.21-0.13-0.37-0.31-0.49-0.55c-0.12-0.23-0.18-0.51-0.18-0.83
		c0-0.3,0.05-0.58,0.14-0.85c0.09-0.27,0.22-0.51,0.38-0.71c0.16-0.21,0.36-0.37,0.59-0.49c0.23-0.12,0.48-0.18,0.74-0.18
		c0.2,0,0.38,0.03,0.55,0.1c0.16,0.07,0.3,0.17,0.41,0.3c0.11,0.13,0.19,0.29,0.23,0.48l0.19-0.81h0.78l-0.85,3.66h-0.7l0.12-0.68
		c-0.12,0.22-0.29,0.4-0.5,0.54C62.52,147.3,62.29,147.37,62.03,147.37z M62.3,146.75c0.16,0,0.3-0.04,0.44-0.12
		c0.14-0.08,0.26-0.2,0.37-0.34s0.19-0.32,0.25-0.51c0.06-0.19,0.09-0.39,0.09-0.6c0-0.2-0.04-0.37-0.11-0.51
		c-0.07-0.14-0.17-0.26-0.29-0.33s-0.27-0.12-0.44-0.12c-0.18,0-0.34,0.04-0.49,0.12c-0.14,0.08-0.27,0.2-0.37,0.34
		c-0.1,0.14-0.19,0.31-0.25,0.5c-0.06,0.19-0.09,0.38-0.09,0.59c0,0.21,0.03,0.39,0.1,0.54s0.17,0.26,0.3,0.34
		S62.11,146.75,62.3,146.75z"/>
	<path class="st0" d="M69.22,147.38c-0.35,0-0.65-0.07-0.9-0.22c-0.25-0.15-0.44-0.34-0.58-0.6s-0.2-0.53-0.2-0.84
		c0-0.42,0.08-0.78,0.25-1.1s0.39-0.57,0.69-0.76c0.3-0.19,0.64-0.28,1.04-0.28c0.29,0,0.55,0.05,0.77,0.15
		c0.22,0.1,0.4,0.24,0.54,0.42s0.22,0.39,0.25,0.62l-0.78,0.16c-0.01-0.21-0.08-0.38-0.21-0.52s-0.33-0.21-0.59-0.21
		c-0.17,0-0.33,0.04-0.47,0.12c-0.14,0.08-0.27,0.19-0.37,0.33c-0.1,0.14-0.19,0.3-0.24,0.49s-0.08,0.39-0.08,0.6
		c0,0.2,0.04,0.37,0.11,0.52c0.07,0.15,0.18,0.27,0.32,0.36c0.14,0.09,0.31,0.13,0.52,0.13c0.17,0,0.33-0.05,0.48-0.14
		c0.15-0.1,0.26-0.23,0.32-0.41l0.73,0.26c-0.13,0.29-0.34,0.52-0.62,0.68C69.91,147.3,69.59,147.38,69.22,147.38z"/>
	<path class="st0" d="M72.42,147.37c-0.37,0-0.62-0.11-0.77-0.32c-0.15-0.21-0.18-0.5-0.1-0.85l0.98-4.2h0.78l-0.98,4.21
		c-0.05,0.19-0.04,0.33,0.04,0.41c0.07,0.08,0.2,0.13,0.38,0.13c0.07,0,0.13,0,0.18-0.01s0.1-0.01,0.14-0.02l-0.17,0.57
		c-0.08,0.03-0.15,0.05-0.22,0.06C72.61,147.37,72.52,147.37,72.42,147.37z"/>
	<path class="st0" d="M75.23,143.65l-0.85,3.66H73.6l0.85-3.66H75.23z M75.05,143.03c-0.15,0-0.26-0.04-0.35-0.12
		c-0.09-0.08-0.13-0.19-0.12-0.32c0-0.17,0.06-0.3,0.16-0.4c0.1-0.09,0.23-0.14,0.39-0.14c0.15,0,0.27,0.04,0.36,0.11
		c0.09,0.08,0.13,0.18,0.12,0.31c-0.01,0.18-0.07,0.32-0.17,0.41C75.33,142.99,75.2,143.03,75.05,143.03z"/>
	<path class="st0" d="M75.55,147.31l0.85-3.66h0.69l-0.15,0.92l-0.07-0.05c0.1-0.31,0.28-0.55,0.54-0.71
		c0.26-0.16,0.54-0.24,0.86-0.24c0.27,0,0.51,0.06,0.7,0.18c0.19,0.12,0.33,0.29,0.4,0.51s0.08,0.49,0.01,0.81l-0.52,2.24h-0.78
		l0.51-2.2c0.06-0.28,0.04-0.5-0.08-0.66s-0.3-0.24-0.56-0.24c-0.2,0-0.37,0.04-0.52,0.13s-0.28,0.22-0.38,0.38
		c-0.1,0.17-0.19,0.38-0.25,0.63l-0.45,1.94H75.55z"/>
	<path class="st0" d="M81.61,143.65l-0.85,3.66h-0.78l0.85-3.66H81.61z M81.42,143.03c-0.15,0-0.26-0.04-0.35-0.12
		c-0.09-0.08-0.13-0.19-0.12-0.32c0-0.17,0.06-0.3,0.16-0.4c0.1-0.09,0.23-0.14,0.39-0.14c0.15,0,0.27,0.04,0.36,0.11
		c0.09,0.08,0.13,0.18,0.12,0.31c-0.01,0.18-0.07,0.32-0.17,0.41C81.71,142.99,81.58,143.03,81.42,143.03z"/>
	<path class="st0" d="M83.82,147.38c-0.35,0-0.65-0.07-0.9-0.22c-0.25-0.15-0.44-0.34-0.58-0.6s-0.2-0.53-0.2-0.84
		c0-0.42,0.08-0.78,0.25-1.1s0.39-0.57,0.69-0.76c0.3-0.19,0.64-0.28,1.04-0.28c0.29,0,0.55,0.05,0.77,0.15
		c0.22,0.1,0.4,0.24,0.54,0.42s0.22,0.39,0.25,0.62l-0.78,0.16c-0.01-0.21-0.08-0.38-0.21-0.52s-0.33-0.21-0.59-0.21
		c-0.17,0-0.33,0.04-0.47,0.12c-0.14,0.08-0.27,0.19-0.37,0.33c-0.1,0.14-0.19,0.3-0.24,0.49s-0.08,0.39-0.08,0.6
		c0,0.2,0.04,0.37,0.11,0.52c0.07,0.15,0.18,0.27,0.32,0.36c0.14,0.09,0.31,0.13,0.52,0.13c0.17,0,0.33-0.05,0.48-0.14
		c0.15-0.1,0.26-0.23,0.32-0.41l0.73,0.26c-0.13,0.29-0.34,0.52-0.62,0.68C84.51,147.3,84.19,147.38,83.82,147.38z"/>
	<path class="st0" d="M87.47,147.37c-0.27,0-0.51-0.06-0.72-0.19c-0.21-0.13-0.37-0.31-0.49-0.55c-0.12-0.23-0.18-0.51-0.18-0.83
		c0-0.3,0.05-0.58,0.14-0.85c0.09-0.27,0.22-0.51,0.38-0.71c0.16-0.21,0.36-0.37,0.59-0.49c0.23-0.12,0.48-0.18,0.74-0.18
		c0.2,0,0.38,0.03,0.55,0.1c0.16,0.07,0.3,0.17,0.41,0.3c0.11,0.13,0.19,0.29,0.23,0.48l0.19-0.81h0.78l-0.85,3.66h-0.7l0.12-0.68
		c-0.12,0.22-0.29,0.4-0.5,0.54C87.96,147.3,87.72,147.37,87.47,147.37z M87.74,146.75c0.16,0,0.3-0.04,0.44-0.12
		c0.14-0.08,0.26-0.2,0.37-0.34s0.19-0.32,0.25-0.51c0.06-0.19,0.09-0.39,0.09-0.6c0-0.2-0.04-0.37-0.11-0.51
		c-0.07-0.14-0.17-0.26-0.29-0.33s-0.27-0.12-0.44-0.12c-0.18,0-0.34,0.04-0.49,0.12c-0.14,0.08-0.27,0.2-0.37,0.34
		c-0.1,0.14-0.19,0.31-0.25,0.5c-0.06,0.19-0.09,0.38-0.09,0.59c0,0.21,0.03,0.39,0.1,0.54s0.17,0.26,0.3,0.34
		S87.55,146.75,87.74,146.75z"/>
	<path class="st0" d="M91.51,147.37c-0.37,0-0.62-0.11-0.77-0.32c-0.15-0.21-0.18-0.5-0.1-0.85l0.98-4.2h0.78l-0.98,4.21
		c-0.05,0.19-0.04,0.33,0.04,0.41c0.07,0.08,0.2,0.13,0.38,0.13c0.07,0,0.13,0,0.18-0.01s0.1-0.01,0.14-0.02L92,147.29
		c-0.08,0.03-0.15,0.05-0.22,0.06C91.7,147.37,91.62,147.37,91.51,147.37z"/>
	<path class="st0" d="M96.53,147.39c-0.28,0-0.53-0.04-0.77-0.12c-0.23-0.08-0.43-0.2-0.6-0.36c-0.17-0.16-0.31-0.34-0.4-0.55
		l0.59-0.36c0.1,0.25,0.25,0.44,0.45,0.58c0.2,0.13,0.44,0.2,0.71,0.2c0.22,0,0.4-0.04,0.52-0.13s0.18-0.21,0.18-0.35
		c0-0.11-0.03-0.19-0.1-0.26c-0.07-0.07-0.17-0.12-0.31-0.16l-0.59-0.18c-0.32-0.09-0.56-0.22-0.71-0.39
		c-0.15-0.17-0.23-0.38-0.23-0.61c0-0.22,0.06-0.41,0.18-0.58c0.12-0.17,0.29-0.3,0.51-0.4c0.22-0.1,0.48-0.15,0.78-0.15
		c0.36,0,0.67,0.07,0.95,0.22c0.27,0.15,0.47,0.36,0.6,0.64l-0.56,0.38c-0.05-0.13-0.13-0.24-0.23-0.33s-0.21-0.17-0.34-0.22
		s-0.27-0.08-0.43-0.08c-0.24,0-0.42,0.04-0.53,0.12c-0.12,0.08-0.18,0.19-0.18,0.33c0,0.12,0.05,0.22,0.14,0.28s0.2,0.11,0.33,0.15
		l0.71,0.21c0.25,0.07,0.45,0.19,0.59,0.35c0.14,0.16,0.21,0.35,0.21,0.56c0,0.25-0.06,0.46-0.18,0.65s-0.29,0.32-0.51,0.42
		S96.82,147.39,96.53,147.39z"/>
	<path class="st0" d="M98.84,144.26l0.14-0.62h2.6l-0.14,0.62H98.84z M100.18,147.37c-0.25,0-0.47-0.05-0.65-0.14
		c-0.18-0.1-0.3-0.24-0.38-0.42s-0.08-0.41-0.02-0.67l0.75-3.28l0.84-0.23l-0.83,3.52c-0.05,0.21-0.02,0.37,0.09,0.47
		c0.11,0.09,0.25,0.14,0.42,0.14c0.12,0,0.22-0.01,0.3-0.04s0.16-0.07,0.23-0.12l0.06,0.58c-0.13,0.08-0.26,0.13-0.39,0.16
		S100.34,147.37,100.18,147.37z"/>
	<path class="st0" d="M103.01,147.37c-0.26,0-0.49-0.06-0.69-0.18c-0.2-0.12-0.34-0.29-0.43-0.51s-0.09-0.49-0.02-0.8l0.52-2.24
		h0.78l-0.51,2.18c-0.07,0.29-0.04,0.52,0.08,0.67c0.12,0.15,0.31,0.23,0.56,0.23c0.2,0,0.37-0.04,0.52-0.13
		c0.15-0.08,0.27-0.21,0.38-0.38s0.18-0.38,0.23-0.63l0.45-1.94h0.78l-0.85,3.66h-0.7l0.15-0.92l0.07,0.06
		c-0.1,0.31-0.27,0.54-0.52,0.69C103.6,147.29,103.33,147.37,103.01,147.37z"/>
	<path class="st0" d="M107.59,147.37c-0.27,0-0.51-0.06-0.72-0.19c-0.21-0.13-0.37-0.31-0.49-0.55c-0.12-0.23-0.18-0.51-0.18-0.83
		c0-0.3,0.05-0.58,0.14-0.85c0.09-0.27,0.22-0.51,0.38-0.71c0.16-0.21,0.36-0.37,0.59-0.49c0.23-0.12,0.48-0.18,0.74-0.18
		c0.2,0,0.38,0.03,0.55,0.1c0.16,0.07,0.3,0.17,0.41,0.3c0.11,0.13,0.19,0.29,0.23,0.48l0.56-2.46h0.78l-1.22,5.31h-0.7l0.12-0.68
		c-0.12,0.22-0.29,0.4-0.5,0.54C108.07,147.3,107.84,147.37,107.59,147.37z M107.85,146.75c0.16,0,0.31-0.04,0.45-0.12
		s0.26-0.2,0.37-0.34c0.1-0.15,0.18-0.32,0.25-0.51c0.06-0.19,0.09-0.39,0.09-0.6c0-0.2-0.04-0.37-0.11-0.51
		c-0.07-0.14-0.17-0.26-0.29-0.33s-0.27-0.12-0.44-0.12c-0.18,0-0.34,0.04-0.49,0.12c-0.14,0.08-0.27,0.2-0.37,0.34
		c-0.1,0.14-0.19,0.31-0.25,0.5c-0.06,0.19-0.09,0.38-0.09,0.59c0,0.21,0.03,0.39,0.1,0.54s0.17,0.26,0.3,0.34
		S107.66,146.75,107.85,146.75z"/>
	<path class="st0" d="M110.53,148.89c-0.2,0-0.37-0.02-0.51-0.07c-0.15-0.04-0.27-0.11-0.36-0.18l0.27-0.61
		c0.17,0.15,0.36,0.23,0.58,0.23c0.15,0,0.28-0.04,0.39-0.12s0.23-0.2,0.33-0.37l0.29-0.46l-0.64-3.66h0.78l0.26,2.06l0.12,0.91
		l0.48-0.86l1.19-2.1h0.86l-2.65,4.26c-0.14,0.23-0.29,0.42-0.44,0.57c-0.15,0.14-0.3,0.25-0.47,0.32
		C110.88,148.86,110.71,148.89,110.53,148.89z"/>
	<path class="st0" d="M118.39,147.38c-0.35,0-0.64-0.07-0.89-0.22c-0.25-0.14-0.44-0.34-0.58-0.59c-0.14-0.25-0.21-0.53-0.21-0.84
		c0-0.39,0.08-0.75,0.23-1.07c0.16-0.33,0.38-0.58,0.68-0.78c0.3-0.2,0.66-0.29,1.08-0.29c0.31,0,0.58,0.06,0.81,0.19
		c0.22,0.13,0.4,0.3,0.51,0.53c0.12,0.23,0.18,0.49,0.18,0.8c0,0.1-0.01,0.2-0.02,0.3s-0.04,0.21-0.07,0.31h-2.95v-0.6h2.53
		l-0.29,0.21c0.02-0.06,0.03-0.12,0.04-0.17s0.01-0.11,0.01-0.16c0-0.16-0.03-0.3-0.09-0.42s-0.15-0.21-0.27-0.27
		s-0.26-0.09-0.42-0.09c-0.22,0-0.41,0.04-0.56,0.13c-0.15,0.09-0.28,0.21-0.37,0.37c-0.09,0.15-0.16,0.32-0.2,0.51
		s-0.06,0.37-0.06,0.55c0,0.21,0.04,0.38,0.12,0.53c0.08,0.15,0.19,0.27,0.34,0.35s0.31,0.12,0.51,0.12c0.23,0,0.42-0.05,0.56-0.15
		c0.14-0.1,0.26-0.22,0.35-0.37l0.63,0.34c-0.1,0.17-0.23,0.31-0.38,0.43c-0.16,0.12-0.34,0.21-0.54,0.27
		C118.86,147.35,118.64,147.38,118.39,147.38z"/>
	<path class="st0" d="M123.73,143.65h0.87l-2.25,3.66h-0.86l-0.59-3.66h0.78l0.4,3.27l-0.18-0.03L123.73,143.65z"/>
	<path class="st0" d="M126.07,147.37c-0.27,0-0.51-0.06-0.72-0.19c-0.21-0.13-0.37-0.31-0.49-0.55c-0.12-0.23-0.18-0.51-0.18-0.83
		c0-0.3,0.05-0.58,0.14-0.85c0.09-0.27,0.22-0.51,0.38-0.71c0.16-0.21,0.36-0.37,0.59-0.49c0.23-0.12,0.48-0.18,0.74-0.18
		c0.2,0,0.38,0.03,0.55,0.1c0.16,0.07,0.3,0.17,0.41,0.3c0.11,0.13,0.19,0.29,0.23,0.48l0.19-0.81h0.78l-0.85,3.66h-0.7l0.12-0.68
		c-0.12,0.22-0.29,0.4-0.5,0.54C126.55,147.3,126.32,147.37,126.07,147.37z M126.34,146.75c0.16,0,0.3-0.04,0.44-0.12
		c0.14-0.08,0.26-0.2,0.37-0.34s0.19-0.32,0.25-0.51c0.06-0.19,0.09-0.39,0.09-0.6c0-0.2-0.04-0.37-0.11-0.51
		c-0.07-0.14-0.17-0.26-0.29-0.33s-0.27-0.12-0.44-0.12c-0.18,0-0.34,0.04-0.49,0.12c-0.14,0.08-0.27,0.2-0.37,0.34
		c-0.1,0.14-0.19,0.31-0.25,0.5c-0.06,0.19-0.09,0.38-0.09,0.59c0,0.21,0.03,0.39,0.1,0.54s0.17,0.26,0.3,0.34
		S126.15,146.75,126.34,146.75z"/>
	<path class="st0" d="M130.11,147.37c-0.37,0-0.62-0.11-0.77-0.32c-0.15-0.21-0.18-0.5-0.1-0.85l0.98-4.2h0.78l-0.98,4.21
		c-0.05,0.19-0.04,0.33,0.04,0.41c0.07,0.08,0.2,0.13,0.38,0.13c0.07,0,0.13,0,0.18-0.01s0.1-0.01,0.14-0.02l-0.17,0.57
		c-0.08,0.03-0.15,0.05-0.22,0.06C130.3,147.37,130.22,147.37,130.11,147.37z"/>
	<path class="st0" d="M132.71,147.37c-0.26,0-0.49-0.06-0.69-0.18c-0.2-0.12-0.34-0.29-0.43-0.51s-0.09-0.49-0.02-0.8l0.52-2.24
		h0.78l-0.51,2.18c-0.07,0.29-0.04,0.52,0.08,0.67c0.12,0.15,0.31,0.23,0.56,0.23c0.2,0,0.37-0.04,0.52-0.13
		c0.15-0.08,0.27-0.21,0.38-0.38s0.18-0.38,0.23-0.63l0.45-1.94h0.78l-0.85,3.66h-0.7l0.15-0.92l0.07,0.06
		c-0.1,0.31-0.27,0.54-0.52,0.69C133.3,147.29,133.02,147.37,132.71,147.37z"/>
	<path class="st0" d="M137.28,147.37c-0.27,0-0.51-0.06-0.72-0.19c-0.21-0.13-0.37-0.31-0.49-0.55c-0.12-0.23-0.18-0.51-0.18-0.83
		c0-0.3,0.05-0.58,0.14-0.85c0.09-0.27,0.22-0.51,0.38-0.71c0.16-0.21,0.36-0.37,0.59-0.49c0.23-0.12,0.48-0.18,0.74-0.18
		c0.2,0,0.38,0.03,0.55,0.1c0.16,0.07,0.3,0.17,0.41,0.3c0.11,0.13,0.19,0.29,0.23,0.48l0.19-0.81h0.78l-0.85,3.66h-0.7l0.12-0.68
		c-0.12,0.22-0.29,0.4-0.5,0.54C137.77,147.3,137.53,147.37,137.28,147.37z M137.55,146.75c0.16,0,0.3-0.04,0.44-0.12
		c0.14-0.08,0.26-0.2,0.37-0.34s0.19-0.32,0.25-0.51c0.06-0.19,0.09-0.39,0.09-0.6c0-0.2-0.04-0.37-0.11-0.51
		c-0.07-0.14-0.17-0.26-0.29-0.33s-0.27-0.12-0.44-0.12c-0.18,0-0.34,0.04-0.49,0.12c-0.14,0.08-0.27,0.2-0.37,0.34
		c-0.1,0.14-0.19,0.31-0.25,0.5c-0.06,0.19-0.09,0.38-0.09,0.59c0,0.21,0.03,0.39,0.1,0.54s0.17,0.26,0.3,0.34
		S137.36,146.75,137.55,146.75z"/>
	<path class="st0" d="M140.5,144.26l0.14-0.62h2.6l-0.14,0.62H140.5z M141.84,147.37c-0.25,0-0.47-0.05-0.65-0.14
		c-0.18-0.1-0.3-0.24-0.38-0.42s-0.08-0.41-0.02-0.67l0.75-3.28l0.84-0.23l-0.83,3.52c-0.05,0.21-0.02,0.37,0.09,0.47
		c0.11,0.09,0.25,0.14,0.42,0.14c0.12,0,0.22-0.01,0.3-0.04s0.16-0.07,0.23-0.12l0.06,0.58c-0.13,0.08-0.26,0.13-0.39,0.16
		S141.99,147.37,141.84,147.37z"/>
	<path class="st0" d="M144.89,143.65l-0.85,3.66h-0.78l0.85-3.66H144.89z M144.7,143.03c-0.15,0-0.26-0.04-0.35-0.12
		c-0.09-0.08-0.13-0.19-0.12-0.32c0-0.17,0.06-0.3,0.16-0.4c0.1-0.09,0.23-0.14,0.39-0.14c0.15,0,0.27,0.04,0.36,0.11
		c0.09,0.08,0.13,0.18,0.12,0.31c-0.01,0.18-0.07,0.32-0.17,0.41C144.99,142.99,144.86,143.03,144.7,143.03z"/>
	<path class="st0" d="M145.21,147.31l0.85-3.66h0.69l-0.15,0.92l-0.07-0.05c0.1-0.31,0.28-0.55,0.54-0.71
		c0.26-0.16,0.54-0.24,0.86-0.24c0.27,0,0.51,0.06,0.7,0.18c0.19,0.12,0.33,0.29,0.4,0.51s0.08,0.49,0.01,0.81l-0.52,2.24h-0.78
		l0.51-2.2c0.06-0.28,0.04-0.5-0.08-0.66s-0.3-0.24-0.56-0.24c-0.2,0-0.37,0.04-0.52,0.13s-0.28,0.22-0.38,0.38
		c-0.1,0.17-0.19,0.38-0.25,0.63l-0.45,1.94H145.21z"/>
	<path class="st0" d="M151.02,148.89c-0.21,0-0.41-0.03-0.6-0.08c-0.19-0.06-0.36-0.14-0.5-0.24c-0.14-0.11-0.26-0.23-0.35-0.38
		c-0.09-0.15-0.15-0.32-0.17-0.51l0.78-0.19c0.04,0.25,0.13,0.45,0.26,0.6c0.13,0.14,0.35,0.22,0.66,0.22
		c0.17,0,0.32-0.03,0.47-0.09c0.15-0.06,0.28-0.17,0.39-0.32c0.11-0.15,0.2-0.36,0.26-0.63l0.21-0.93l0.09-0.06
		c-0.07,0.3-0.22,0.54-0.45,0.71c-0.23,0.18-0.5,0.26-0.81,0.26c-0.27,0-0.52-0.07-0.73-0.2s-0.38-0.31-0.51-0.55
		c-0.12-0.23-0.19-0.5-0.19-0.79c0-0.3,0.05-0.58,0.14-0.83c0.09-0.25,0.22-0.48,0.38-0.67c0.16-0.19,0.36-0.34,0.58-0.45
		c0.22-0.1,0.47-0.16,0.74-0.16c0.23,0,0.44,0.04,0.62,0.14c0.18,0.09,0.33,0.22,0.44,0.4c0.11,0.17,0.17,0.38,0.17,0.63l-0.12,0.09
		l0.27-1.19h0.78l-0.84,3.61c-0.09,0.4-0.22,0.71-0.41,0.95c-0.18,0.24-0.4,0.41-0.66,0.52
		C151.63,148.83,151.34,148.89,151.02,148.89z M151.5,146.6c0.21,0,0.4-0.06,0.56-0.19c0.16-0.13,0.29-0.3,0.39-0.52
		c0.1-0.22,0.15-0.46,0.15-0.73c0-0.2-0.04-0.36-0.1-0.5c-0.07-0.14-0.17-0.25-0.3-0.33s-0.28-0.12-0.45-0.12
		c-0.23,0-0.44,0.06-0.61,0.19c-0.17,0.12-0.31,0.29-0.41,0.51c-0.1,0.21-0.15,0.46-0.15,0.73c0,0.28,0.08,0.52,0.24,0.7
		C150.98,146.51,151.21,146.6,151.5,146.6z"/>
	<path class="st0" d="M158.39,147.38c-0.36,0-0.67-0.07-0.92-0.22c-0.25-0.15-0.45-0.34-0.58-0.6s-0.21-0.53-0.21-0.83
		c0-0.42,0.08-0.78,0.25-1.11s0.39-0.58,0.68-0.76c0.29-0.19,0.63-0.28,1.03-0.28c0.36,0,0.67,0.07,0.92,0.22s0.44,0.34,0.58,0.59
		s0.2,0.53,0.2,0.84c0,0.41-0.08,0.77-0.24,1.1c-0.16,0.32-0.38,0.58-0.68,0.77C159.12,147.29,158.78,147.38,158.39,147.38z
		 M158.4,146.76c0.16,0,0.31-0.04,0.45-0.12c0.14-0.08,0.26-0.19,0.37-0.33c0.11-0.14,0.19-0.31,0.24-0.49
		c0.06-0.19,0.08-0.39,0.08-0.6c0-0.2-0.03-0.37-0.1-0.52c-0.07-0.15-0.17-0.27-0.31-0.36c-0.14-0.09-0.31-0.13-0.52-0.13
		c-0.16,0-0.31,0.04-0.45,0.12c-0.14,0.08-0.26,0.19-0.37,0.33c-0.1,0.14-0.18,0.3-0.24,0.49c-0.06,0.19-0.09,0.39-0.09,0.61
		c0,0.19,0.03,0.36,0.1,0.51c0.07,0.16,0.17,0.28,0.31,0.37C158.02,146.72,158.19,146.76,158.4,146.76z"/>
	<path class="st0" d="M163.8,143.65h0.87l-2.25,3.66h-0.86l-0.59-3.66h0.78l0.4,3.27l-0.18-0.03L163.8,143.65z"/>
	<path class="st0" d="M166.44,147.38c-0.35,0-0.64-0.07-0.89-0.22c-0.25-0.14-0.44-0.34-0.58-0.59s-0.21-0.53-0.21-0.84
		c0-0.39,0.08-0.75,0.23-1.07c0.16-0.33,0.38-0.58,0.68-0.78c0.3-0.2,0.66-0.29,1.08-0.29c0.31,0,0.58,0.06,0.81,0.19
		c0.22,0.13,0.4,0.3,0.51,0.53c0.12,0.23,0.18,0.49,0.18,0.8c0,0.1-0.01,0.2-0.02,0.3c-0.01,0.1-0.04,0.21-0.07,0.31h-2.95v-0.6
		h2.53l-0.29,0.21c0.02-0.06,0.03-0.12,0.04-0.17s0.01-0.11,0.01-0.16c0-0.16-0.03-0.3-0.09-0.42s-0.15-0.21-0.27-0.27
		s-0.26-0.09-0.42-0.09c-0.22,0-0.41,0.04-0.56,0.13c-0.15,0.09-0.28,0.21-0.37,0.37c-0.09,0.15-0.16,0.32-0.2,0.51
		s-0.06,0.37-0.06,0.55c0,0.21,0.04,0.38,0.12,0.53c0.08,0.15,0.19,0.27,0.34,0.35c0.14,0.08,0.31,0.12,0.51,0.12
		c0.23,0,0.42-0.05,0.56-0.15c0.14-0.1,0.26-0.22,0.35-0.37l0.63,0.34c-0.1,0.17-0.23,0.31-0.38,0.43
		c-0.16,0.12-0.34,0.21-0.54,0.27C166.91,147.35,166.68,147.38,166.44,147.38z"/>
	<path class="st0" d="M168.78,147.31l0.85-3.66h0.66l-0.12,0.99l-0.08-0.07c0.08-0.21,0.18-0.38,0.32-0.53
		c0.13-0.15,0.29-0.26,0.46-0.34c0.18-0.08,0.36-0.12,0.55-0.12c0.08,0,0.15,0,0.21,0.01s0.11,0.03,0.16,0.05l-0.21,0.7
		c-0.05-0.02-0.1-0.04-0.17-0.06c-0.06-0.01-0.14-0.02-0.23-0.02c-0.18,0-0.34,0.04-0.5,0.12c-0.16,0.08-0.29,0.2-0.41,0.37
		c-0.12,0.17-0.21,0.38-0.27,0.65l-0.44,1.9H168.78z"/>
	<path class="st0" d="M173.18,147.37c-0.27,0-0.51-0.06-0.72-0.19c-0.21-0.13-0.37-0.31-0.49-0.55s-0.18-0.51-0.18-0.83
		c0-0.3,0.04-0.58,0.14-0.85c0.09-0.27,0.22-0.51,0.38-0.71c0.16-0.21,0.36-0.37,0.59-0.49c0.23-0.12,0.47-0.18,0.74-0.18
		c0.2,0,0.38,0.03,0.55,0.1c0.16,0.07,0.3,0.17,0.41,0.3c0.11,0.13,0.19,0.29,0.23,0.48l0.19-0.81h0.78l-0.85,3.66h-0.7l0.12-0.68
		c-0.12,0.22-0.29,0.4-0.5,0.54C173.67,147.3,173.44,147.37,173.18,147.37z M173.45,146.75c0.16,0,0.3-0.04,0.44-0.12
		c0.14-0.08,0.26-0.2,0.37-0.34c0.11-0.15,0.19-0.32,0.25-0.51c0.06-0.19,0.09-0.39,0.09-0.6c0-0.2-0.04-0.37-0.11-0.51
		c-0.07-0.14-0.17-0.26-0.29-0.33c-0.12-0.08-0.27-0.12-0.44-0.12c-0.18,0-0.34,0.04-0.49,0.12c-0.14,0.08-0.27,0.2-0.37,0.34
		c-0.11,0.14-0.19,0.31-0.25,0.5s-0.09,0.38-0.09,0.59c0,0.21,0.03,0.39,0.1,0.54s0.17,0.26,0.3,0.34S173.26,146.75,173.45,146.75z"
		/>
	<path class="st0" d="M177.23,147.37c-0.37,0-0.62-0.11-0.77-0.32s-0.18-0.5-0.1-0.85l0.97-4.2h0.78l-0.97,4.21
		c-0.05,0.19-0.04,0.33,0.04,0.41c0.07,0.08,0.2,0.13,0.38,0.13c0.07,0,0.13,0,0.18-0.01c0.05,0,0.1-0.01,0.14-0.02l-0.17,0.57
		c-0.08,0.03-0.15,0.05-0.22,0.06C177.42,147.37,177.33,147.37,177.23,147.37z"/>
	<path class="st0" d="M179.51,147.37c-0.37,0-0.62-0.11-0.77-0.32s-0.18-0.5-0.1-0.85l0.97-4.2h0.78l-0.97,4.21
		c-0.05,0.19-0.04,0.33,0.04,0.41c0.07,0.08,0.2,0.13,0.38,0.13c0.07,0,0.13,0,0.18-0.01c0.05,0,0.1-0.01,0.14-0.02l-0.17,0.57
		c-0.08,0.03-0.15,0.05-0.22,0.06C179.7,147.37,179.61,147.37,179.51,147.37z"/>
	<path class="st0" d="M182.47,148.85l1.2-5.2h0.7l-0.18,1l-0.09,0.05c0.06-0.23,0.16-0.43,0.29-0.6c0.13-0.17,0.3-0.29,0.5-0.38
		c0.2-0.09,0.41-0.13,0.63-0.13c0.25,0,0.47,0.06,0.67,0.18c0.2,0.12,0.35,0.3,0.47,0.53c0.11,0.23,0.17,0.51,0.17,0.84
		c0,0.31-0.05,0.6-0.14,0.87s-0.22,0.51-0.39,0.71s-0.36,0.37-0.58,0.48s-0.46,0.18-0.73,0.18c-0.23,0-0.44-0.04-0.62-0.13
		c-0.18-0.09-0.33-0.22-0.44-0.39c-0.11-0.17-0.17-0.38-0.18-0.62l0.12-0.12l-0.62,2.73H182.47z M184.89,146.76
		c0.16,0,0.31-0.04,0.46-0.12c0.14-0.08,0.27-0.19,0.37-0.34s0.19-0.31,0.25-0.5c0.06-0.19,0.09-0.39,0.09-0.6
		c0-0.21-0.04-0.39-0.11-0.53c-0.07-0.14-0.17-0.25-0.3-0.33s-0.28-0.11-0.45-0.11c-0.18,0-0.33,0.04-0.48,0.12s-0.27,0.2-0.37,0.34
		c-0.11,0.14-0.19,0.31-0.24,0.51c-0.06,0.2-0.08,0.4-0.08,0.62c0,0.28,0.07,0.51,0.22,0.68
		C184.39,146.67,184.61,146.76,184.89,146.76z"/>
	<path class="st0" d="M188.92,147.37c-0.27,0-0.51-0.06-0.72-0.19c-0.21-0.13-0.37-0.31-0.49-0.55s-0.18-0.51-0.18-0.83
		c0-0.3,0.04-0.58,0.14-0.85c0.09-0.27,0.22-0.51,0.38-0.71c0.16-0.21,0.36-0.37,0.59-0.49c0.23-0.12,0.47-0.18,0.74-0.18
		c0.2,0,0.38,0.03,0.55,0.1c0.16,0.07,0.3,0.17,0.41,0.3c0.11,0.13,0.19,0.29,0.23,0.48l0.19-0.81h0.78l-0.85,3.66H190l0.12-0.68
		c-0.12,0.22-0.29,0.4-0.5,0.54C189.41,147.3,189.18,147.37,188.92,147.37z M189.19,146.75c0.16,0,0.3-0.04,0.44-0.12
		c0.14-0.08,0.26-0.2,0.37-0.34c0.11-0.15,0.19-0.32,0.25-0.51c0.06-0.19,0.09-0.39,0.09-0.6c0-0.2-0.04-0.37-0.11-0.51
		c-0.07-0.14-0.17-0.26-0.29-0.33c-0.12-0.08-0.27-0.12-0.44-0.12c-0.18,0-0.34,0.04-0.49,0.12c-0.14,0.08-0.27,0.2-0.37,0.34
		c-0.11,0.14-0.19,0.31-0.25,0.5s-0.09,0.38-0.09,0.59c0,0.21,0.03,0.39,0.1,0.54s0.17,0.26,0.3,0.34S189,146.75,189.19,146.75z"/>
	<path class="st0" d="M192.14,144.26l0.14-0.62h2.6l-0.14,0.62H192.14z M193.48,147.37c-0.25,0-0.47-0.05-0.65-0.14
		c-0.18-0.1-0.3-0.24-0.38-0.42s-0.08-0.41-0.02-0.67l0.75-3.28l0.84-0.23l-0.83,3.52c-0.05,0.21-0.02,0.37,0.09,0.47
		c0.11,0.09,0.25,0.14,0.42,0.14c0.12,0,0.22-0.01,0.3-0.04c0.08-0.03,0.16-0.07,0.23-0.12l0.06,0.58
		c-0.13,0.08-0.26,0.13-0.39,0.16C193.78,147.36,193.63,147.37,193.48,147.37z"/>
	<path class="st0" d="M196.53,143.65l-0.85,3.66h-0.78l0.85-3.66H196.53z M196.35,143.03c-0.15,0-0.26-0.04-0.35-0.12
		s-0.13-0.19-0.12-0.32c0-0.17,0.06-0.3,0.16-0.4s0.23-0.14,0.39-0.14c0.15,0,0.27,0.04,0.35,0.11c0.09,0.08,0.13,0.18,0.12,0.31
		c-0.01,0.18-0.07,0.32-0.17,0.41S196.5,143.03,196.35,143.03z"/>
	<path class="st0" d="M198.73,147.38c-0.35,0-0.64-0.07-0.89-0.22c-0.25-0.14-0.44-0.34-0.58-0.59s-0.21-0.53-0.21-0.84
		c0-0.39,0.08-0.75,0.23-1.07c0.16-0.33,0.38-0.58,0.68-0.78c0.3-0.2,0.66-0.29,1.08-0.29c0.31,0,0.58,0.06,0.81,0.19
		c0.22,0.13,0.4,0.3,0.51,0.53c0.12,0.23,0.18,0.49,0.18,0.8c0,0.1-0.01,0.2-0.02,0.3c-0.01,0.1-0.04,0.21-0.07,0.31h-2.95v-0.6
		h2.53l-0.29,0.21c0.02-0.06,0.03-0.12,0.04-0.17s0.01-0.11,0.01-0.16c0-0.16-0.03-0.3-0.09-0.42s-0.15-0.21-0.27-0.27
		s-0.26-0.09-0.42-0.09c-0.22,0-0.41,0.04-0.56,0.13c-0.15,0.09-0.28,0.21-0.37,0.37c-0.09,0.15-0.16,0.32-0.2,0.51
		s-0.06,0.37-0.06,0.55c0,0.21,0.04,0.38,0.12,0.53c0.08,0.15,0.19,0.27,0.34,0.35c0.14,0.08,0.31,0.12,0.51,0.12
		c0.23,0,0.42-0.05,0.56-0.15c0.14-0.1,0.26-0.22,0.35-0.37l0.63,0.34c-0.1,0.17-0.23,0.31-0.38,0.43
		c-0.16,0.12-0.34,0.21-0.54,0.27C199.2,147.35,198.97,147.38,198.73,147.38z"/>
	<path class="st0" d="M201.07,147.31l0.85-3.66h0.69l-0.15,0.92l-0.07-0.05c0.1-0.31,0.28-0.55,0.54-0.71
		c0.26-0.16,0.54-0.24,0.86-0.24c0.27,0,0.51,0.06,0.7,0.18c0.19,0.12,0.32,0.29,0.4,0.51s0.08,0.49,0.01,0.81l-0.52,2.24h-0.78
		l0.51-2.2c0.06-0.28,0.04-0.5-0.08-0.66s-0.3-0.24-0.56-0.24c-0.2,0-0.37,0.04-0.52,0.13s-0.28,0.22-0.38,0.38
		c-0.1,0.17-0.19,0.38-0.25,0.63l-0.45,1.94H201.07z"/>
	<path class="st0" d="M205.71,144.26l0.14-0.62h2.6l-0.14,0.62H205.71z M207.05,147.37c-0.25,0-0.47-0.05-0.65-0.14
		c-0.18-0.1-0.3-0.24-0.38-0.42s-0.08-0.41-0.02-0.67l0.75-3.28l0.84-0.23l-0.83,3.52c-0.05,0.21-0.02,0.37,0.09,0.47
		c0.11,0.09,0.25,0.14,0.42,0.14c0.12,0,0.22-0.01,0.3-0.04c0.08-0.03,0.16-0.07,0.23-0.12l0.06,0.58
		c-0.13,0.08-0.26,0.13-0.39,0.16C207.34,147.36,207.2,147.37,207.05,147.37z"/>
	<path class="st0" d="M212.51,147.39c-0.28,0-0.53-0.04-0.77-0.12c-0.23-0.08-0.43-0.2-0.6-0.36s-0.3-0.34-0.4-0.55l0.59-0.36
		c0.1,0.25,0.25,0.44,0.45,0.58c0.2,0.13,0.44,0.2,0.71,0.2c0.22,0,0.4-0.04,0.52-0.13s0.18-0.21,0.18-0.35
		c0-0.11-0.03-0.19-0.1-0.26c-0.07-0.07-0.17-0.12-0.32-0.16l-0.59-0.18c-0.32-0.09-0.56-0.22-0.71-0.39
		c-0.15-0.17-0.23-0.38-0.23-0.61c0-0.22,0.06-0.41,0.18-0.58c0.12-0.17,0.29-0.3,0.51-0.4s0.48-0.15,0.78-0.15
		c0.36,0,0.67,0.07,0.95,0.22s0.47,0.36,0.6,0.64l-0.56,0.38c-0.05-0.13-0.13-0.24-0.23-0.33s-0.21-0.17-0.34-0.22
		c-0.13-0.05-0.27-0.08-0.43-0.08c-0.24,0-0.42,0.04-0.54,0.12c-0.12,0.08-0.18,0.19-0.18,0.33c0,0.12,0.05,0.22,0.14,0.28
		s0.2,0.11,0.33,0.15l0.71,0.21c0.25,0.07,0.45,0.19,0.59,0.35c0.14,0.16,0.21,0.35,0.21,0.56c0,0.25-0.06,0.46-0.18,0.65
		s-0.29,0.32-0.51,0.42S212.79,147.39,212.51,147.39z"/>
	<path class="st0" d="M216.1,147.37c-0.27,0-0.51-0.06-0.72-0.19c-0.21-0.13-0.37-0.31-0.49-0.55s-0.18-0.51-0.18-0.83
		c0-0.3,0.04-0.58,0.14-0.85c0.09-0.27,0.22-0.51,0.38-0.71c0.16-0.21,0.36-0.37,0.59-0.49c0.23-0.12,0.47-0.18,0.74-0.18
		c0.2,0,0.38,0.03,0.55,0.1c0.16,0.07,0.3,0.17,0.41,0.3c0.11,0.13,0.19,0.29,0.23,0.48l0.19-0.81h0.78l-0.85,3.66h-0.7l0.12-0.68
		c-0.12,0.22-0.29,0.4-0.5,0.54C216.59,147.3,216.35,147.37,216.1,147.37z M216.37,146.75c0.16,0,0.3-0.04,0.44-0.12
		c0.14-0.08,0.26-0.2,0.37-0.34c0.11-0.15,0.19-0.32,0.25-0.51c0.06-0.19,0.09-0.39,0.09-0.6c0-0.2-0.04-0.37-0.11-0.51
		c-0.07-0.14-0.17-0.26-0.29-0.33c-0.12-0.08-0.27-0.12-0.44-0.12c-0.18,0-0.34,0.04-0.49,0.12c-0.14,0.08-0.27,0.2-0.37,0.34
		c-0.11,0.14-0.19,0.31-0.25,0.5s-0.09,0.38-0.09,0.59c0,0.21,0.03,0.39,0.1,0.54s0.17,0.26,0.3,0.34S216.18,146.75,216.37,146.75z"
		/>
	<path class="st0" d="M219.31,144.26l0.14-0.62h2.6l-0.14,0.62H219.31z M220.66,147.37c-0.25,0-0.47-0.05-0.65-0.14
		c-0.18-0.1-0.3-0.24-0.38-0.42s-0.08-0.41-0.02-0.67l0.75-3.28l0.84-0.23l-0.83,3.52c-0.05,0.21-0.02,0.37,0.09,0.47
		c0.11,0.09,0.25,0.14,0.42,0.14c0.12,0,0.22-0.01,0.3-0.04c0.08-0.03,0.16-0.07,0.23-0.12l0.06,0.58
		c-0.13,0.08-0.26,0.13-0.39,0.16C220.95,147.36,220.81,147.37,220.66,147.37z"/>
	<path class="st0" d="M223.71,143.65l-0.85,3.66h-0.78l0.85-3.66H223.71z M223.52,143.03c-0.15,0-0.26-0.04-0.35-0.12
		s-0.13-0.19-0.12-0.32c0-0.17,0.06-0.3,0.16-0.4s0.23-0.14,0.39-0.14c0.15,0,0.27,0.04,0.35,0.11c0.09,0.08,0.13,0.18,0.12,0.31
		c-0.01,0.18-0.07,0.32-0.17,0.41S223.68,143.03,223.52,143.03z"/>
	<path class="st0" d="M225.72,147.39c-0.28,0-0.53-0.04-0.77-0.12c-0.23-0.08-0.43-0.2-0.6-0.36s-0.3-0.34-0.4-0.55l0.59-0.36
		c0.1,0.25,0.25,0.44,0.45,0.58c0.2,0.13,0.44,0.2,0.71,0.2c0.22,0,0.4-0.04,0.52-0.13s0.18-0.21,0.18-0.35
		c0-0.11-0.03-0.19-0.1-0.26c-0.07-0.07-0.17-0.12-0.32-0.16l-0.59-0.18c-0.32-0.09-0.56-0.22-0.71-0.39
		c-0.15-0.17-0.23-0.38-0.23-0.61c0-0.22,0.06-0.41,0.18-0.58c0.12-0.17,0.29-0.3,0.51-0.4s0.48-0.15,0.78-0.15
		c0.36,0,0.67,0.07,0.95,0.22s0.47,0.36,0.6,0.64l-0.56,0.38c-0.05-0.13-0.13-0.24-0.23-0.33s-0.21-0.17-0.34-0.22
		c-0.13-0.05-0.27-0.08-0.43-0.08c-0.24,0-0.42,0.04-0.54,0.12c-0.12,0.08-0.18,0.19-0.18,0.33c0,0.12,0.05,0.22,0.14,0.28
		s0.2,0.11,0.33,0.15l0.71,0.21c0.25,0.07,0.45,0.19,0.59,0.35c0.14,0.16,0.21,0.35,0.21,0.56c0,0.25-0.06,0.46-0.18,0.65
		s-0.29,0.32-0.51,0.42S226.01,147.39,225.72,147.39z"/>
	<path class="st0" d="M228.08,144.26l0.15-0.62h2.58l-0.15,0.62H228.08z M228.09,147.31l0.98-4.25c0.06-0.27,0.16-0.48,0.28-0.64
		c0.12-0.16,0.28-0.28,0.46-0.36c0.19-0.08,0.4-0.11,0.64-0.11c0.15,0,0.29,0.02,0.42,0.05c0.13,0.03,0.22,0.07,0.29,0.13
		l-0.22,0.57c-0.04-0.03-0.11-0.06-0.18-0.08s-0.17-0.04-0.26-0.04c-0.2,0-0.35,0.04-0.46,0.14s-0.19,0.25-0.23,0.48l-0.12,0.52
		l-0.03,0.2l-0.78,3.4H228.09z"/>
	<path class="st0" d="M232.27,147.37c-0.27,0-0.51-0.06-0.72-0.19c-0.21-0.13-0.37-0.31-0.49-0.55s-0.18-0.51-0.18-0.83
		c0-0.3,0.04-0.58,0.14-0.85c0.09-0.27,0.22-0.51,0.38-0.71c0.16-0.21,0.36-0.37,0.59-0.49c0.23-0.12,0.47-0.18,0.74-0.18
		c0.2,0,0.38,0.03,0.55,0.1c0.16,0.07,0.3,0.17,0.41,0.3c0.11,0.13,0.19,0.29,0.23,0.48l0.19-0.81h0.78l-0.85,3.66h-0.7l0.12-0.68
		c-0.12,0.22-0.29,0.4-0.5,0.54C232.75,147.3,232.52,147.37,232.27,147.37z M232.54,146.75c0.16,0,0.3-0.04,0.44-0.12
		c0.14-0.08,0.26-0.2,0.37-0.34c0.11-0.15,0.19-0.32,0.25-0.51c0.06-0.19,0.09-0.39,0.09-0.6c0-0.2-0.04-0.37-0.11-0.51
		c-0.07-0.14-0.17-0.26-0.29-0.33c-0.12-0.08-0.27-0.12-0.44-0.12c-0.18,0-0.34,0.04-0.49,0.12c-0.14,0.08-0.27,0.2-0.37,0.34
		c-0.11,0.14-0.19,0.31-0.25,0.5s-0.09,0.38-0.09,0.59c0,0.21,0.03,0.39,0.1,0.54s0.17,0.26,0.3,0.34S232.35,146.75,232.54,146.75z"
		/>
	<path class="st0" d="M237.1,147.38c-0.35,0-0.65-0.07-0.91-0.22c-0.25-0.15-0.44-0.34-0.58-0.6c-0.13-0.25-0.2-0.53-0.2-0.84
		c0-0.42,0.08-0.78,0.25-1.1c0.16-0.32,0.39-0.57,0.69-0.76c0.3-0.19,0.64-0.28,1.04-0.28c0.29,0,0.55,0.05,0.77,0.15
		c0.22,0.1,0.4,0.24,0.54,0.42s0.22,0.39,0.25,0.62l-0.78,0.16c-0.01-0.21-0.08-0.38-0.21-0.52c-0.13-0.14-0.33-0.21-0.59-0.21
		c-0.17,0-0.33,0.04-0.47,0.12c-0.14,0.08-0.26,0.19-0.37,0.33c-0.1,0.14-0.19,0.3-0.24,0.49c-0.06,0.19-0.08,0.39-0.08,0.6
		c0,0.2,0.04,0.37,0.11,0.52c0.07,0.15,0.18,0.27,0.32,0.36c0.14,0.09,0.31,0.13,0.52,0.13c0.17,0,0.33-0.05,0.48-0.14
		c0.15-0.1,0.26-0.23,0.32-0.41l0.73,0.26c-0.13,0.29-0.34,0.52-0.62,0.68C237.79,147.3,237.47,147.38,237.1,147.38z"/>
	<path class="st0" d="M239.46,144.26l0.14-0.62h2.6l-0.14,0.62H239.46z M240.8,147.37c-0.25,0-0.47-0.05-0.65-0.14
		c-0.18-0.1-0.3-0.24-0.38-0.42s-0.08-0.41-0.02-0.67l0.75-3.28l0.84-0.23l-0.83,3.52c-0.05,0.21-0.02,0.37,0.09,0.47
		c0.11,0.09,0.25,0.14,0.42,0.14c0.12,0,0.22-0.01,0.3-0.04c0.08-0.03,0.16-0.07,0.23-0.12l0.06,0.58
		c-0.13,0.08-0.26,0.13-0.39,0.16C241.1,147.36,240.96,147.37,240.8,147.37z"/>
	<path class="st0" d="M243.85,143.65l-0.85,3.66h-0.78l0.85-3.66H243.85z M243.67,143.03c-0.15,0-0.26-0.04-0.35-0.12
		s-0.13-0.19-0.12-0.32c0-0.17,0.06-0.3,0.16-0.4s0.23-0.14,0.39-0.14c0.15,0,0.27,0.04,0.35,0.11c0.09,0.08,0.13,0.18,0.12,0.31
		c-0.01,0.18-0.07,0.32-0.17,0.41S243.83,143.03,243.67,143.03z"/>
	<path class="st0" d="M246.08,147.38c-0.36,0-0.67-0.07-0.92-0.22c-0.25-0.15-0.45-0.34-0.58-0.6s-0.21-0.53-0.21-0.83
		c0-0.42,0.08-0.78,0.25-1.11s0.39-0.58,0.68-0.76c0.29-0.19,0.63-0.28,1.03-0.28c0.36,0,0.67,0.07,0.92,0.22s0.44,0.34,0.58,0.59
		s0.2,0.53,0.2,0.84c0,0.41-0.08,0.77-0.24,1.1c-0.16,0.32-0.38,0.58-0.68,0.77C246.81,147.29,246.47,147.38,246.08,147.38z
		 M246.09,146.76c0.16,0,0.31-0.04,0.45-0.12c0.14-0.08,0.26-0.19,0.37-0.33c0.11-0.14,0.19-0.31,0.24-0.49
		c0.06-0.19,0.08-0.39,0.08-0.6c0-0.2-0.03-0.37-0.1-0.52c-0.07-0.15-0.17-0.27-0.31-0.36c-0.14-0.09-0.31-0.13-0.52-0.13
		c-0.16,0-0.31,0.04-0.45,0.12c-0.14,0.08-0.26,0.19-0.37,0.33c-0.1,0.14-0.18,0.3-0.24,0.49c-0.06,0.19-0.09,0.39-0.09,0.61
		c0,0.19,0.03,0.36,0.1,0.51c0.07,0.16,0.17,0.28,0.31,0.37C245.71,146.72,245.88,146.76,246.09,146.76z"/>
	<path class="st0" d="M248.54,147.31l0.85-3.66h0.69l-0.15,0.92l-0.07-0.05c0.1-0.31,0.28-0.55,0.54-0.71
		c0.26-0.16,0.54-0.24,0.86-0.24c0.27,0,0.51,0.06,0.7,0.18c0.19,0.12,0.32,0.29,0.4,0.51s0.08,0.49,0.01,0.81l-0.52,2.24h-0.78
		l0.51-2.2c0.06-0.28,0.04-0.5-0.08-0.66s-0.3-0.24-0.56-0.24c-0.2,0-0.37,0.04-0.52,0.13s-0.28,0.22-0.38,0.38
		c-0.1,0.17-0.19,0.38-0.25,0.63l-0.45,1.94H248.54z"/>
	<path class="st0" d="M12.86,156.6l-0.34-3.66h0.76l0.2,2.84l1.47-2.84h0.78l0.31,2.88l1.47-2.88h0.84l-1.99,3.66h-0.86l-0.33-2.71
		l-1.43,2.71H12.86z"/>
	<path class="st0" d="M19.85,152.93L19,156.6h-0.78l0.85-3.66H19.85z M19.67,152.32c-0.15,0-0.26-0.04-0.35-0.12
		c-0.09-0.08-0.13-0.19-0.12-0.32c0-0.17,0.06-0.3,0.16-0.4c0.1-0.09,0.23-0.14,0.39-0.14c0.15,0,0.27,0.04,0.36,0.11
		c0.09,0.08,0.13,0.18,0.12,0.31c-0.01,0.18-0.07,0.32-0.17,0.41C19.95,152.27,19.82,152.32,19.67,152.32z"/>
	<path class="st0" d="M20.44,153.55l0.14-0.62h2.6l-0.14,0.62H20.44z M21.78,156.65c-0.25,0-0.47-0.05-0.65-0.14
		c-0.18-0.1-0.3-0.24-0.38-0.42s-0.08-0.41-0.02-0.67l0.75-3.28l0.84-0.23l-0.83,3.52c-0.05,0.21-0.02,0.37,0.09,0.47
		c0.11,0.09,0.25,0.14,0.42,0.14c0.12,0,0.22-0.01,0.3-0.04s0.16-0.07,0.23-0.12l0.06,0.58c-0.13,0.08-0.26,0.13-0.39,0.16
		S21.93,156.65,21.78,156.65z"/>
	<path class="st0" d="M23.22,156.6l1.23-5.31h0.78l-0.56,2.41l-0.12,0.09c0.06-0.2,0.16-0.36,0.3-0.5s0.3-0.24,0.48-0.32
		s0.38-0.11,0.6-0.11c0.26,0,0.49,0.06,0.68,0.18c0.19,0.12,0.33,0.29,0.41,0.51s0.09,0.49,0.02,0.8l-0.53,2.25h-0.78l0.51-2.2
		c0.06-0.28,0.04-0.5-0.08-0.66s-0.3-0.24-0.56-0.24c-0.2,0-0.37,0.04-0.52,0.13s-0.28,0.22-0.38,0.38
		c-0.1,0.17-0.19,0.38-0.25,0.63L24,156.6H23.22z"/>
	<path class="st0" d="M32.48,156.67c-0.39,0-0.74-0.08-1.06-0.24c-0.32-0.16-0.57-0.39-0.75-0.7c-0.19-0.31-0.28-0.69-0.28-1.14
		c0-0.38,0.05-0.74,0.16-1.08s0.27-0.65,0.48-0.93c0.22-0.27,0.48-0.49,0.8-0.65s0.68-0.24,1.09-0.24c0.32,0,0.61,0.05,0.86,0.16
		c0.25,0.11,0.46,0.26,0.63,0.47c0.17,0.21,0.3,0.47,0.37,0.79l-0.8,0.23c-0.06-0.34-0.19-0.59-0.37-0.74
		c-0.19-0.15-0.44-0.23-0.75-0.23c-0.27,0-0.51,0.06-0.72,0.19c-0.21,0.13-0.38,0.3-0.52,0.51c-0.14,0.21-0.24,0.44-0.32,0.7
		c-0.07,0.26-0.11,0.51-0.11,0.77c0,0.3,0.06,0.56,0.17,0.78s0.27,0.38,0.47,0.5c0.2,0.12,0.43,0.18,0.68,0.18
		c0.3,0,0.53-0.07,0.71-0.2c0.17-0.13,0.32-0.31,0.44-0.54l0.73,0.32c-0.2,0.33-0.45,0.6-0.76,0.79
		C33.33,156.57,32.94,156.67,32.48,156.67z"/>
	<path class="st0" d="M36.83,156.66c-0.36,0-0.67-0.07-0.92-0.22c-0.25-0.15-0.45-0.34-0.58-0.6c-0.14-0.25-0.21-0.53-0.21-0.83
		c0-0.42,0.08-0.78,0.25-1.11s0.39-0.58,0.68-0.76c0.29-0.19,0.63-0.28,1.03-0.28c0.36,0,0.67,0.07,0.92,0.22
		c0.25,0.15,0.44,0.34,0.58,0.59c0.13,0.25,0.2,0.53,0.2,0.84c0,0.41-0.08,0.77-0.24,1.1c-0.16,0.32-0.38,0.58-0.68,0.77
		C37.56,156.57,37.22,156.66,36.83,156.66z M36.84,156.05c0.16,0,0.31-0.04,0.45-0.12c0.14-0.08,0.26-0.19,0.37-0.33
		c0.1-0.14,0.19-0.31,0.24-0.49c0.06-0.19,0.08-0.39,0.08-0.6c0-0.2-0.03-0.37-0.1-0.52s-0.17-0.27-0.31-0.36
		c-0.14-0.09-0.31-0.13-0.52-0.13c-0.16,0-0.31,0.04-0.45,0.12s-0.26,0.19-0.37,0.33c-0.1,0.14-0.18,0.3-0.24,0.49
		c-0.06,0.19-0.09,0.39-0.09,0.61c0,0.19,0.03,0.36,0.1,0.51c0.07,0.16,0.17,0.28,0.31,0.37C36.46,156,36.63,156.05,36.84,156.05z"
		/>
	<path class="st0" d="M41.2,156.66c-0.36,0-0.67-0.07-0.92-0.22c-0.25-0.15-0.45-0.34-0.58-0.6c-0.14-0.25-0.21-0.53-0.21-0.83
		c0-0.42,0.08-0.78,0.25-1.11s0.39-0.58,0.68-0.76c0.29-0.19,0.63-0.28,1.03-0.28c0.36,0,0.67,0.07,0.92,0.22
		c0.25,0.15,0.44,0.34,0.58,0.59c0.13,0.25,0.2,0.53,0.2,0.84c0,0.41-0.08,0.77-0.24,1.1c-0.16,0.32-0.38,0.58-0.68,0.77
		C41.93,156.57,41.59,156.66,41.2,156.66z M41.21,156.05c0.16,0,0.31-0.04,0.45-0.12c0.14-0.08,0.26-0.19,0.37-0.33
		c0.1-0.14,0.19-0.31,0.24-0.49c0.06-0.19,0.08-0.39,0.08-0.6c0-0.2-0.03-0.37-0.1-0.52s-0.17-0.27-0.31-0.36
		c-0.14-0.09-0.31-0.13-0.52-0.13c-0.16,0-0.31,0.04-0.45,0.12s-0.26,0.19-0.37,0.33c-0.1,0.14-0.18,0.3-0.24,0.49
		c-0.06,0.19-0.09,0.39-0.09,0.61c0,0.19,0.03,0.36,0.1,0.51c0.07,0.16,0.17,0.28,0.31,0.37C40.83,156,41,156.05,41.21,156.05z"/>
	<path class="st0" d="M44.76,156.65c-0.37,0-0.62-0.11-0.77-0.32c-0.15-0.21-0.18-0.5-0.1-0.85l0.98-4.2h0.78l-0.98,4.21
		c-0.05,0.19-0.04,0.33,0.04,0.41c0.07,0.08,0.2,0.13,0.38,0.13c0.07,0,0.13,0,0.18-0.01s0.1-0.01,0.14-0.02l-0.17,0.57
		c-0.08,0.03-0.15,0.05-0.22,0.06C44.95,156.65,44.86,156.65,44.76,156.65z"/>
	<path class="st0" d="M48.23,156.66c-0.35,0-0.68-0.05-0.97-0.16c-0.3-0.1-0.55-0.26-0.77-0.46c-0.22-0.2-0.39-0.45-0.51-0.75
		l0.64-0.43c0.09,0.26,0.22,0.48,0.39,0.64c0.17,0.16,0.36,0.28,0.58,0.36c0.22,0.08,0.45,0.11,0.69,0.11
		c0.21,0,0.39-0.04,0.54-0.11c0.14-0.07,0.25-0.16,0.32-0.27c0.07-0.11,0.11-0.23,0.11-0.36c0-0.16-0.05-0.29-0.16-0.38
		c-0.1-0.09-0.26-0.17-0.46-0.22l-0.76-0.22c-0.24-0.07-0.45-0.17-0.63-0.29c-0.17-0.12-0.31-0.26-0.4-0.42s-0.14-0.35-0.14-0.55
		c0-0.28,0.08-0.54,0.23-0.76s0.36-0.4,0.63-0.53c0.27-0.13,0.59-0.19,0.96-0.19c0.48,0,0.89,0.09,1.21,0.29
		c0.33,0.19,0.57,0.48,0.74,0.86l-0.65,0.41c-0.07-0.23-0.18-0.41-0.32-0.54c-0.14-0.12-0.3-0.21-0.47-0.26
		c-0.17-0.05-0.36-0.07-0.55-0.07c-0.21,0-0.39,0.03-0.54,0.09c-0.14,0.06-0.25,0.15-0.32,0.25s-0.11,0.22-0.11,0.35
		c0,0.15,0.06,0.28,0.18,0.4s0.28,0.21,0.48,0.26l0.82,0.25c0.36,0.11,0.63,0.26,0.81,0.45c0.18,0.19,0.27,0.43,0.27,0.72
		c0,0.31-0.08,0.58-0.25,0.81c-0.16,0.23-0.38,0.4-0.66,0.53C48.87,156.6,48.57,156.66,48.23,156.66z"/>
	<path class="st0" d="M52.51,156.66c-0.35,0-0.65-0.07-0.9-0.22c-0.25-0.15-0.44-0.34-0.58-0.6s-0.2-0.53-0.2-0.84
		c0-0.42,0.08-0.78,0.25-1.1s0.39-0.57,0.69-0.76c0.3-0.19,0.64-0.28,1.04-0.28c0.29,0,0.55,0.05,0.77,0.15
		c0.22,0.1,0.4,0.24,0.54,0.42s0.22,0.39,0.25,0.62l-0.78,0.16c-0.01-0.21-0.08-0.38-0.21-0.52s-0.33-0.21-0.59-0.21
		c-0.17,0-0.33,0.04-0.47,0.12c-0.14,0.08-0.27,0.19-0.37,0.33c-0.1,0.14-0.19,0.3-0.24,0.49s-0.08,0.39-0.08,0.6
		c0,0.2,0.04,0.37,0.11,0.52c0.07,0.15,0.18,0.27,0.32,0.36c0.14,0.09,0.31,0.13,0.52,0.13c0.17,0,0.33-0.05,0.48-0.14
		c0.15-0.1,0.26-0.23,0.32-0.41l0.73,0.26c-0.13,0.29-0.34,0.52-0.62,0.68C53.2,156.58,52.88,156.66,52.51,156.66z"/>
	<path class="st0" d="M56,156.65c-0.26,0-0.49-0.06-0.69-0.18c-0.2-0.12-0.34-0.29-0.43-0.51s-0.09-0.49-0.02-0.8l0.52-2.24h0.78
		l-0.51,2.18c-0.07,0.29-0.04,0.52,0.08,0.67c0.12,0.15,0.31,0.23,0.56,0.23c0.2,0,0.37-0.04,0.52-0.13
		c0.15-0.08,0.27-0.21,0.38-0.38s0.18-0.38,0.23-0.63l0.45-1.94h0.78l-0.85,3.66h-0.7l0.15-0.92l0.07,0.06
		c-0.1,0.31-0.27,0.54-0.52,0.69C56.59,156.58,56.31,156.65,56,156.65z"/>
	<path class="st0" d="M60.1,156.65c-0.37,0-0.62-0.11-0.77-0.32c-0.15-0.21-0.18-0.5-0.1-0.85l0.98-4.2h0.78l-0.98,4.21
		c-0.05,0.19-0.04,0.33,0.04,0.41c0.07,0.08,0.2,0.13,0.38,0.13c0.07,0,0.13,0,0.18-0.01s0.1-0.01,0.14-0.02l-0.17,0.57
		c-0.08,0.03-0.15,0.05-0.22,0.06C60.29,156.65,60.2,156.65,60.1,156.65z"/>
	<path class="st0" d="M60.92,158.13l1.2-5.2h0.7l-0.18,1l-0.09,0.05c0.06-0.23,0.15-0.43,0.29-0.6c0.13-0.17,0.3-0.29,0.5-0.38
		s0.41-0.13,0.63-0.13c0.25,0,0.47,0.06,0.67,0.18s0.35,0.3,0.47,0.53c0.11,0.23,0.17,0.51,0.17,0.84c0,0.31-0.05,0.6-0.14,0.87
		s-0.22,0.51-0.39,0.71s-0.36,0.37-0.58,0.48s-0.47,0.18-0.73,0.18c-0.23,0-0.44-0.04-0.62-0.13c-0.18-0.09-0.33-0.22-0.44-0.39
		c-0.11-0.17-0.17-0.38-0.18-0.62l0.12-0.12l-0.62,2.73H60.92z M63.34,156.04c0.16,0,0.31-0.04,0.45-0.12
		c0.14-0.08,0.27-0.19,0.37-0.34s0.19-0.31,0.25-0.5c0.06-0.19,0.09-0.39,0.09-0.6c0-0.21-0.04-0.39-0.11-0.53
		c-0.07-0.14-0.17-0.25-0.3-0.33s-0.28-0.11-0.45-0.11c-0.18,0-0.33,0.04-0.48,0.12c-0.14,0.08-0.27,0.2-0.37,0.34
		c-0.11,0.14-0.19,0.31-0.24,0.51s-0.08,0.4-0.08,0.62c0,0.28,0.07,0.51,0.22,0.68C62.84,155.95,63.06,156.04,63.34,156.04z"/>
	<path class="st0" d="M65.94,153.55l0.14-0.62h2.6l-0.14,0.62H65.94z M67.28,156.65c-0.25,0-0.47-0.05-0.65-0.14
		c-0.18-0.1-0.3-0.24-0.38-0.42s-0.08-0.41-0.02-0.67l0.75-3.28l0.84-0.23L67,155.42c-0.05,0.21-0.02,0.37,0.09,0.47
		c0.11,0.09,0.25,0.14,0.42,0.14c0.12,0,0.22-0.01,0.3-0.04s0.16-0.07,0.23-0.12l0.06,0.58c-0.13,0.08-0.26,0.13-0.39,0.16
		S67.43,156.65,67.28,156.65z"/>
	<path class="st0" d="M70.33,152.93l-0.85,3.66h-0.78l0.85-3.66H70.33z M70.14,152.32c-0.15,0-0.26-0.04-0.35-0.12
		c-0.09-0.08-0.13-0.19-0.12-0.32c0-0.17,0.06-0.3,0.16-0.4c0.1-0.09,0.23-0.14,0.39-0.14c0.15,0,0.27,0.04,0.36,0.11
		c0.09,0.08,0.13,0.18,0.12,0.31c-0.01,0.18-0.07,0.32-0.17,0.41C70.43,152.27,70.3,152.32,70.14,152.32z"/>
	<path class="st0" d="M70.65,156.6l0.85-3.66h0.69l-0.15,0.92l-0.07-0.05c0.1-0.31,0.28-0.55,0.54-0.71
		c0.26-0.16,0.54-0.24,0.86-0.24c0.27,0,0.51,0.06,0.7,0.18c0.19,0.12,0.33,0.29,0.4,0.51s0.08,0.49,0.01,0.81l-0.52,2.24h-0.78
		l0.51-2.2c0.06-0.28,0.04-0.5-0.08-0.66s-0.3-0.24-0.56-0.24c-0.2,0-0.37,0.04-0.52,0.13s-0.28,0.22-0.38,0.38
		c-0.1,0.17-0.19,0.38-0.25,0.63l-0.45,1.94H70.65z"/>
	<path class="st0" d="M76.46,158.17c-0.21,0-0.41-0.03-0.6-0.08c-0.19-0.06-0.36-0.14-0.5-0.24c-0.14-0.11-0.26-0.23-0.35-0.38
		c-0.09-0.15-0.15-0.32-0.17-0.51l0.78-0.19c0.04,0.25,0.13,0.45,0.26,0.6c0.13,0.14,0.35,0.22,0.66,0.22
		c0.17,0,0.32-0.03,0.47-0.09c0.15-0.06,0.28-0.17,0.39-0.32s0.2-0.36,0.26-0.63l0.21-0.93l0.09-0.06c-0.07,0.3-0.23,0.54-0.45,0.71
		s-0.5,0.26-0.81,0.26c-0.27,0-0.52-0.07-0.73-0.2s-0.38-0.31-0.51-0.55c-0.12-0.23-0.19-0.5-0.19-0.79c0-0.3,0.05-0.58,0.14-0.83
		c0.09-0.25,0.22-0.48,0.38-0.67c0.16-0.19,0.36-0.34,0.58-0.45c0.22-0.1,0.47-0.16,0.74-0.16c0.23,0,0.43,0.04,0.62,0.14
		c0.18,0.09,0.33,0.22,0.44,0.4c0.11,0.17,0.17,0.38,0.17,0.63l-0.12,0.09l0.27-1.19h0.78l-0.84,3.61c-0.09,0.4-0.22,0.71-0.41,0.95
		c-0.18,0.24-0.4,0.41-0.66,0.52C77.07,158.12,76.78,158.17,76.46,158.17z M76.94,155.88c0.21,0,0.4-0.06,0.56-0.19
		c0.16-0.13,0.29-0.3,0.39-0.52c0.1-0.22,0.15-0.46,0.15-0.73c0-0.2-0.03-0.36-0.1-0.5c-0.07-0.14-0.17-0.25-0.3-0.33
		s-0.28-0.12-0.45-0.12c-0.23,0-0.44,0.06-0.61,0.19c-0.17,0.12-0.31,0.29-0.41,0.51c-0.1,0.21-0.15,0.46-0.15,0.73
		c0,0.28,0.08,0.52,0.24,0.7C76.42,155.79,76.65,155.88,76.94,155.88z"/>
	<path class="st0" d="M83.33,156.65c-0.26,0-0.49-0.06-0.69-0.18c-0.2-0.12-0.34-0.29-0.43-0.51s-0.09-0.49-0.02-0.8l0.52-2.24h0.78
		L83,155.11c-0.07,0.29-0.04,0.52,0.08,0.67c0.12,0.15,0.31,0.23,0.56,0.23c0.2,0,0.37-0.04,0.52-0.13
		c0.15-0.08,0.27-0.21,0.38-0.38s0.18-0.38,0.23-0.63l0.45-1.94h0.78l-0.85,3.66h-0.7l0.15-0.92l0.07,0.06
		c-0.1,0.31-0.27,0.54-0.52,0.69C83.93,156.58,83.65,156.65,83.33,156.65z"/>
	<path class="st0" d="M88.02,156.68c-0.28,0-0.53-0.04-0.77-0.12c-0.23-0.08-0.43-0.2-0.6-0.36c-0.17-0.16-0.31-0.34-0.4-0.55
		l0.59-0.36c0.1,0.25,0.25,0.44,0.45,0.58c0.2,0.13,0.44,0.2,0.71,0.2c0.22,0,0.4-0.04,0.52-0.13s0.18-0.21,0.18-0.35
		c0-0.11-0.03-0.19-0.1-0.26c-0.07-0.07-0.17-0.12-0.31-0.16l-0.59-0.18c-0.32-0.09-0.56-0.22-0.71-0.39
		c-0.15-0.17-0.23-0.38-0.23-0.61c0-0.22,0.06-0.41,0.18-0.58c0.12-0.17,0.29-0.3,0.51-0.4c0.22-0.1,0.48-0.15,0.78-0.15
		c0.36,0,0.67,0.07,0.95,0.22c0.27,0.15,0.47,0.36,0.6,0.64l-0.56,0.38c-0.05-0.13-0.13-0.24-0.23-0.33s-0.21-0.17-0.34-0.22
		s-0.27-0.08-0.43-0.08c-0.24,0-0.42,0.04-0.53,0.12c-0.12,0.08-0.18,0.19-0.18,0.33c0,0.12,0.05,0.22,0.14,0.28s0.2,0.11,0.33,0.15
		l0.71,0.21c0.25,0.07,0.45,0.19,0.59,0.35c0.14,0.16,0.21,0.35,0.21,0.56c0,0.25-0.06,0.46-0.18,0.65s-0.29,0.32-0.51,0.42
		S88.31,156.68,88.02,156.68z"/>
	<path class="st0" d="M91.74,152.93l-0.85,3.66h-0.78l0.85-3.66H91.74z M91.56,152.32c-0.15,0-0.26-0.04-0.35-0.12
		c-0.09-0.08-0.13-0.19-0.12-0.32c0-0.17,0.06-0.3,0.16-0.4c0.1-0.09,0.23-0.14,0.39-0.14c0.15,0,0.27,0.04,0.36,0.11
		c0.09,0.08,0.13,0.18,0.12,0.31c-0.01,0.18-0.07,0.32-0.17,0.41C91.84,152.27,91.71,152.32,91.56,152.32z"/>
	<path class="st0" d="M92.06,156.6l0.85-3.66h0.69l-0.15,0.92l-0.07-0.05c0.1-0.31,0.28-0.55,0.54-0.71
		c0.26-0.16,0.54-0.24,0.86-0.24c0.27,0,0.51,0.06,0.7,0.18c0.19,0.12,0.33,0.29,0.4,0.51s0.08,0.49,0.01,0.81l-0.52,2.24h-0.78
		l0.51-2.2c0.06-0.28,0.04-0.5-0.08-0.66s-0.3-0.24-0.56-0.24c-0.2,0-0.37,0.04-0.52,0.13s-0.28,0.22-0.38,0.38
		c-0.1,0.17-0.19,0.38-0.25,0.63l-0.45,1.94H92.06z"/>
	<path class="st0" d="M97.87,158.17c-0.21,0-0.41-0.03-0.6-0.08c-0.19-0.06-0.36-0.14-0.5-0.24c-0.14-0.11-0.26-0.23-0.35-0.38
		c-0.09-0.15-0.15-0.32-0.17-0.51l0.78-0.19c0.04,0.25,0.13,0.45,0.26,0.6c0.13,0.14,0.35,0.22,0.66,0.22
		c0.17,0,0.32-0.03,0.47-0.09c0.15-0.06,0.28-0.17,0.39-0.32s0.2-0.36,0.26-0.63l0.21-0.93l0.09-0.06c-0.07,0.3-0.23,0.54-0.45,0.71
		s-0.5,0.26-0.81,0.26c-0.27,0-0.52-0.07-0.73-0.2s-0.38-0.31-0.51-0.55c-0.12-0.23-0.19-0.5-0.19-0.79c0-0.3,0.05-0.58,0.14-0.83
		c0.09-0.25,0.22-0.48,0.38-0.67c0.16-0.19,0.36-0.34,0.58-0.45c0.22-0.1,0.47-0.16,0.74-0.16c0.23,0,0.43,0.04,0.62,0.14
		c0.18,0.09,0.33,0.22,0.44,0.4c0.11,0.17,0.17,0.38,0.17,0.63l-0.12,0.09l0.27-1.19h0.78l-0.84,3.61c-0.09,0.4-0.22,0.71-0.41,0.95
		c-0.18,0.24-0.4,0.41-0.66,0.52C98.49,158.12,98.2,158.17,97.87,158.17z M98.36,155.88c0.21,0,0.4-0.06,0.56-0.19
		c0.16-0.13,0.29-0.3,0.39-0.52c0.1-0.22,0.15-0.46,0.15-0.73c0-0.2-0.03-0.36-0.1-0.5c-0.07-0.14-0.17-0.25-0.3-0.33
		s-0.28-0.12-0.45-0.12c-0.23,0-0.44,0.06-0.61,0.19c-0.17,0.12-0.31,0.29-0.41,0.51c-0.1,0.21-0.15,0.46-0.15,0.73
		c0,0.28,0.08,0.52,0.24,0.7C97.84,155.79,98.06,155.88,98.36,155.88z"/>
	<path class="st0" d="M104.91,156.65c-0.27,0-0.51-0.06-0.72-0.19c-0.21-0.13-0.37-0.31-0.49-0.55c-0.12-0.23-0.18-0.51-0.18-0.83
		c0-0.3,0.05-0.58,0.14-0.85c0.09-0.27,0.22-0.51,0.38-0.71c0.16-0.21,0.36-0.37,0.59-0.49c0.23-0.12,0.48-0.18,0.74-0.18
		c0.2,0,0.38,0.03,0.55,0.1c0.16,0.07,0.3,0.17,0.41,0.3c0.11,0.13,0.19,0.29,0.23,0.48l0.19-0.81h0.78l-0.85,3.66h-0.7l0.12-0.68
		c-0.12,0.22-0.29,0.4-0.5,0.54C105.4,156.59,105.16,156.65,104.91,156.65z M105.18,156.03c0.16,0,0.3-0.04,0.44-0.12
		c0.14-0.08,0.26-0.2,0.37-0.34s0.19-0.32,0.25-0.51c0.06-0.19,0.09-0.39,0.09-0.6c0-0.2-0.04-0.37-0.11-0.51
		c-0.07-0.14-0.17-0.26-0.29-0.33s-0.27-0.12-0.44-0.12c-0.18,0-0.34,0.04-0.49,0.12c-0.14,0.08-0.27,0.2-0.37,0.34
		c-0.1,0.14-0.19,0.31-0.25,0.5c-0.06,0.19-0.09,0.38-0.09,0.59c0,0.21,0.03,0.39,0.1,0.54s0.17,0.26,0.3,0.34
		S104.99,156.03,105.18,156.03z"/>
	<path class="st0" d="M112.02,156.67c-0.3,0-0.57-0.06-0.81-0.17c-0.23-0.11-0.43-0.26-0.58-0.45s-0.25-0.4-0.29-0.62l0.78-0.23
		c0.02,0.14,0.06,0.27,0.12,0.39s0.16,0.22,0.29,0.3s0.31,0.12,0.53,0.12c0.22,0,0.4-0.05,0.54-0.15c0.14-0.1,0.25-0.24,0.32-0.4
		c0.07-0.17,0.1-0.34,0.1-0.53c0-0.2-0.04-0.35-0.12-0.48s-0.19-0.21-0.32-0.27c-0.13-0.06-0.28-0.09-0.44-0.09
		c-0.17,0-0.32,0.02-0.44,0.07c-0.12,0.05-0.25,0.12-0.36,0.22l-0.6-0.18l0.8-2.43h2.66l-0.16,0.67h-2.01l-0.45,1.35
		c0.11-0.1,0.24-0.17,0.39-0.22s0.32-0.07,0.5-0.07c0.25,0,0.48,0.05,0.68,0.15s0.36,0.25,0.48,0.45c0.12,0.2,0.18,0.44,0.18,0.73
		c0,0.36-0.07,0.68-0.22,0.96s-0.35,0.5-0.62,0.65S112.39,156.67,112.02,156.67z"/>
	<path class="st0" d="M117.47,154.3l-0.16,0.73h-2.5l0.17-0.73H117.47z"/>
	<path class="st0" d="M117.81,158.13l1.2-5.2h0.7l-0.18,1l-0.09,0.05c0.06-0.23,0.15-0.43,0.29-0.6c0.13-0.17,0.3-0.29,0.5-0.38
		s0.41-0.13,0.63-0.13c0.25,0,0.47,0.06,0.67,0.18s0.35,0.3,0.47,0.53c0.11,0.23,0.17,0.51,0.17,0.84c0,0.31-0.05,0.6-0.14,0.87
		s-0.22,0.51-0.39,0.71s-0.36,0.37-0.58,0.48s-0.47,0.18-0.73,0.18c-0.23,0-0.44-0.04-0.62-0.13c-0.18-0.09-0.33-0.22-0.44-0.39
		c-0.11-0.17-0.17-0.38-0.18-0.62l0.12-0.12l-0.62,2.73H117.81z M120.23,156.04c0.16,0,0.31-0.04,0.45-0.12
		c0.14-0.08,0.27-0.19,0.37-0.34s0.19-0.31,0.25-0.5c0.06-0.19,0.09-0.39,0.09-0.6c0-0.21-0.04-0.39-0.11-0.53
		c-0.07-0.14-0.17-0.25-0.3-0.33s-0.28-0.11-0.45-0.11c-0.18,0-0.33,0.04-0.48,0.12c-0.14,0.08-0.27,0.2-0.37,0.34
		c-0.11,0.14-0.19,0.31-0.24,0.51s-0.08,0.4-0.08,0.62c0,0.28,0.07,0.51,0.22,0.68C119.73,155.95,119.95,156.04,120.23,156.04z"/>
	<path class="st0" d="M124.59,156.66c-0.36,0-0.67-0.07-0.92-0.22c-0.25-0.15-0.45-0.34-0.58-0.6c-0.14-0.25-0.21-0.53-0.21-0.83
		c0-0.42,0.08-0.78,0.25-1.11s0.39-0.58,0.68-0.76c0.29-0.19,0.63-0.28,1.03-0.28c0.36,0,0.67,0.07,0.92,0.22
		c0.25,0.15,0.44,0.34,0.58,0.59c0.13,0.25,0.2,0.53,0.2,0.84c0,0.41-0.08,0.77-0.24,1.1c-0.16,0.32-0.38,0.58-0.68,0.77
		C125.33,156.57,124.98,156.66,124.59,156.66z M124.61,156.05c0.16,0,0.31-0.04,0.45-0.12c0.14-0.08,0.26-0.19,0.37-0.33
		c0.1-0.14,0.19-0.31,0.24-0.49c0.06-0.19,0.08-0.39,0.08-0.6c0-0.2-0.03-0.37-0.1-0.52s-0.17-0.27-0.31-0.36
		c-0.14-0.09-0.31-0.13-0.52-0.13c-0.16,0-0.31,0.04-0.45,0.12s-0.26,0.19-0.37,0.33c-0.1,0.14-0.18,0.3-0.24,0.49
		c-0.06,0.19-0.09,0.39-0.09,0.61c0,0.19,0.03,0.36,0.1,0.51c0.07,0.16,0.17,0.28,0.31,0.37C124.22,156,124.4,156.05,124.61,156.05z
		"/>
	<path class="st0" d="M128.69,152.93l-0.85,3.66h-0.78l0.85-3.66H128.69z M128.51,152.32c-0.15,0-0.26-0.04-0.35-0.12
		c-0.09-0.08-0.13-0.19-0.12-0.32c0-0.17,0.06-0.3,0.16-0.4c0.1-0.09,0.23-0.14,0.39-0.14c0.15,0,0.27,0.04,0.36,0.11
		c0.09,0.08,0.13,0.18,0.12,0.31c-0.01,0.18-0.07,0.32-0.17,0.41C128.79,152.27,128.66,152.32,128.51,152.32z"/>
	<path class="st0" d="M129.01,156.6l0.85-3.66h0.69l-0.15,0.92l-0.07-0.05c0.1-0.31,0.28-0.55,0.54-0.71
		c0.26-0.16,0.54-0.24,0.86-0.24c0.27,0,0.51,0.06,0.7,0.18c0.19,0.12,0.33,0.29,0.4,0.51s0.08,0.49,0.01,0.81l-0.52,2.24h-0.78
		l0.51-2.2c0.06-0.28,0.04-0.5-0.08-0.66s-0.3-0.24-0.56-0.24c-0.2,0-0.37,0.04-0.52,0.13s-0.28,0.22-0.38,0.38
		c-0.1,0.17-0.19,0.38-0.25,0.63l-0.45,1.94H129.01z"/>
	<path class="st0" d="M133.65,153.55l0.14-0.62h2.6l-0.14,0.62H133.65z M134.99,156.65c-0.25,0-0.47-0.05-0.65-0.14
		c-0.18-0.1-0.3-0.24-0.38-0.42s-0.08-0.41-0.02-0.67l0.75-3.28l0.84-0.23l-0.83,3.52c-0.05,0.21-0.02,0.37,0.09,0.47
		c0.11,0.09,0.25,0.14,0.42,0.14c0.12,0,0.22-0.01,0.3-0.04s0.16-0.07,0.23-0.12l0.06,0.58c-0.13,0.08-0.26,0.13-0.39,0.16
		S135.14,156.65,134.99,156.65z"/>
	<path class="st0" d="M140.45,156.68c-0.28,0-0.53-0.04-0.77-0.12c-0.23-0.08-0.43-0.2-0.6-0.36c-0.17-0.16-0.31-0.34-0.4-0.55
		l0.59-0.36c0.1,0.25,0.25,0.44,0.45,0.58c0.2,0.13,0.44,0.2,0.71,0.2c0.22,0,0.4-0.04,0.52-0.13s0.18-0.21,0.18-0.35
		c0-0.11-0.03-0.19-0.1-0.26c-0.07-0.07-0.17-0.12-0.31-0.16l-0.59-0.18c-0.32-0.09-0.56-0.22-0.71-0.39
		c-0.15-0.17-0.23-0.38-0.23-0.61c0-0.22,0.06-0.41,0.18-0.58c0.12-0.17,0.29-0.3,0.51-0.4c0.22-0.1,0.48-0.15,0.78-0.15
		c0.36,0,0.67,0.07,0.95,0.22c0.27,0.15,0.47,0.36,0.6,0.64l-0.56,0.38c-0.05-0.13-0.13-0.24-0.23-0.33s-0.21-0.17-0.34-0.22
		s-0.27-0.08-0.43-0.08c-0.24,0-0.42,0.04-0.53,0.12c-0.12,0.08-0.18,0.19-0.18,0.33c0,0.12,0.05,0.22,0.14,0.28s0.2,0.11,0.33,0.15
		l0.71,0.21c0.25,0.07,0.45,0.19,0.59,0.35c0.14,0.16,0.21,0.35,0.21,0.56c0,0.25-0.06,0.46-0.18,0.65s-0.29,0.32-0.51,0.42
		S140.74,156.68,140.45,156.68z"/>
	<path class="st0" d="M144.36,156.66c-0.35,0-0.65-0.07-0.9-0.22c-0.25-0.15-0.44-0.34-0.58-0.6s-0.2-0.53-0.2-0.84
		c0-0.42,0.08-0.78,0.25-1.1s0.39-0.57,0.69-0.76c0.3-0.19,0.64-0.28,1.04-0.28c0.29,0,0.55,0.05,0.77,0.15
		c0.22,0.1,0.4,0.24,0.54,0.42s0.22,0.39,0.25,0.62l-0.78,0.16c-0.01-0.21-0.08-0.38-0.21-0.52s-0.33-0.21-0.59-0.21
		c-0.17,0-0.33,0.04-0.47,0.12c-0.14,0.08-0.27,0.19-0.37,0.33c-0.1,0.14-0.19,0.3-0.24,0.49s-0.08,0.39-0.08,0.6
		c0,0.2,0.04,0.37,0.11,0.52c0.07,0.15,0.18,0.27,0.32,0.36c0.14,0.09,0.31,0.13,0.52,0.13c0.17,0,0.33-0.05,0.48-0.14
		c0.15-0.1,0.26-0.23,0.32-0.41l0.73,0.26c-0.13,0.29-0.34,0.52-0.62,0.68C145.05,156.58,144.72,156.66,144.36,156.66z"/>
	<path class="st0" d="M148.01,156.65c-0.27,0-0.51-0.06-0.72-0.19c-0.21-0.13-0.37-0.31-0.49-0.55c-0.12-0.23-0.18-0.51-0.18-0.83
		c0-0.3,0.05-0.58,0.14-0.85c0.09-0.27,0.22-0.51,0.38-0.71c0.16-0.21,0.36-0.37,0.59-0.49c0.23-0.12,0.48-0.18,0.74-0.18
		c0.2,0,0.38,0.03,0.55,0.1c0.16,0.07,0.3,0.17,0.41,0.3c0.11,0.13,0.19,0.29,0.23,0.48l0.19-0.81h0.78l-0.85,3.66h-0.7l0.12-0.68
		c-0.12,0.22-0.29,0.4-0.5,0.54C148.5,156.59,148.26,156.65,148.01,156.65z M148.28,156.03c0.16,0,0.3-0.04,0.44-0.12
		c0.14-0.08,0.26-0.2,0.37-0.34s0.19-0.32,0.25-0.51c0.06-0.19,0.09-0.39,0.09-0.6c0-0.2-0.04-0.37-0.11-0.51
		c-0.07-0.14-0.17-0.26-0.29-0.33s-0.27-0.12-0.44-0.12c-0.18,0-0.34,0.04-0.49,0.12c-0.14,0.08-0.27,0.2-0.37,0.34
		c-0.1,0.14-0.19,0.31-0.25,0.5c-0.06,0.19-0.09,0.38-0.09,0.59c0,0.21,0.03,0.39,0.1,0.54s0.17,0.26,0.3,0.34
		S148.09,156.03,148.28,156.03z"/>
	<path class="st0" d="M152.05,156.65c-0.37,0-0.62-0.11-0.77-0.32s-0.18-0.5-0.1-0.85l0.97-4.2h0.79l-0.97,4.21
		c-0.05,0.19-0.04,0.33,0.04,0.41c0.07,0.08,0.2,0.13,0.38,0.13c0.07,0,0.13,0,0.18-0.01c0.05,0,0.1-0.01,0.13-0.02l-0.17,0.57
		c-0.08,0.03-0.15,0.05-0.22,0.06C152.24,156.65,152.16,156.65,152.05,156.65z"/>
	<path class="st0" d="M155.05,156.66c-0.35,0-0.64-0.07-0.89-0.22c-0.25-0.14-0.44-0.34-0.58-0.59s-0.21-0.53-0.21-0.84
		c0-0.39,0.08-0.75,0.23-1.07c0.16-0.33,0.38-0.58,0.68-0.78c0.3-0.2,0.66-0.29,1.08-0.29c0.31,0,0.58,0.06,0.81,0.19
		c0.22,0.13,0.4,0.3,0.51,0.53c0.12,0.23,0.18,0.49,0.18,0.8c0,0.1-0.01,0.2-0.02,0.3c-0.01,0.1-0.04,0.21-0.07,0.31h-2.95v-0.6
		h2.53l-0.29,0.21c0.02-0.06,0.03-0.12,0.04-0.17s0.01-0.11,0.01-0.16c0-0.16-0.03-0.3-0.09-0.42s-0.15-0.21-0.27-0.27
		s-0.26-0.09-0.42-0.09c-0.22,0-0.41,0.04-0.56,0.13c-0.15,0.09-0.28,0.21-0.37,0.37c-0.09,0.15-0.16,0.32-0.2,0.51
		s-0.06,0.37-0.06,0.55c0,0.21,0.04,0.38,0.12,0.53c0.08,0.15,0.19,0.27,0.34,0.35c0.14,0.08,0.31,0.12,0.51,0.12
		c0.23,0,0.42-0.05,0.56-0.15c0.14-0.1,0.26-0.22,0.35-0.37l0.63,0.34c-0.1,0.17-0.23,0.31-0.38,0.43
		c-0.16,0.12-0.34,0.21-0.54,0.27C155.52,156.63,155.29,156.66,155.05,156.66z"/>
	<path class="st0" d="M160.87,157.99c-0.27-0.38-0.48-0.8-0.62-1.28c-0.14-0.48-0.22-0.96-0.22-1.46c0-0.42,0.06-0.83,0.17-1.23
		c0.11-0.4,0.27-0.78,0.47-1.14s0.46-0.69,0.76-0.98c0.3-0.29,0.64-0.55,1.02-0.77l0.3,0.43c-0.43,0.28-0.8,0.62-1.09,1.02
		c-0.3,0.4-0.52,0.83-0.67,1.3c-0.15,0.47-0.22,0.96-0.22,1.47c0,0.42,0.05,0.83,0.15,1.23s0.24,0.76,0.43,1.07L160.87,157.99z"/>
	<path class="st0" d="M162.14,156.6l0.85-3.66h0.69l-0.15,0.92l-0.07-0.05c0.1-0.31,0.28-0.55,0.54-0.71
		c0.26-0.16,0.54-0.24,0.86-0.24c0.27,0,0.51,0.06,0.7,0.18c0.19,0.12,0.32,0.29,0.4,0.51s0.08,0.49,0.01,0.81l-0.52,2.24h-0.78
		l0.51-2.2c0.06-0.28,0.04-0.5-0.08-0.66s-0.3-0.24-0.56-0.24c-0.2,0-0.37,0.04-0.52,0.13s-0.28,0.22-0.38,0.38
		c-0.1,0.17-0.19,0.38-0.25,0.63l-0.45,1.94H162.14z"/>
	<path class="st0" d="M170.36,154.77l-0.15,0.65h-3.49l0.15-0.65H170.36z M170.7,153.27l-0.15,0.64h-3.49l0.15-0.64H170.7z"/>
	<path class="st0" d="M171.77,156.6l0.74-3.21c0.04-0.15,0.08-0.29,0.11-0.41c0.03-0.12,0.07-0.24,0.11-0.36
		c-0.1,0.09-0.23,0.18-0.38,0.27c-0.16,0.09-0.33,0.16-0.5,0.22c-0.17,0.06-0.34,0.11-0.5,0.14l0.05-0.72
		c0.17-0.04,0.36-0.1,0.57-0.19c0.21-0.09,0.41-0.18,0.59-0.29c0.19-0.11,0.34-0.2,0.44-0.3h0.66l-1.12,4.84H171.77z"/>
	<path class="st0" d="M175.92,156.66c-0.35,0-0.65-0.08-0.91-0.24c-0.25-0.16-0.44-0.37-0.58-0.65c-0.13-0.28-0.2-0.61-0.2-0.98
		c0-0.17,0.01-0.33,0.03-0.5s0.05-0.33,0.08-0.49c0.07-0.29,0.16-0.57,0.28-0.82c0.12-0.26,0.27-0.48,0.45-0.68
		c0.18-0.2,0.39-0.35,0.63-0.45s0.51-0.16,0.81-0.16c0.34,0,0.62,0.08,0.86,0.23c0.24,0.15,0.42,0.37,0.55,0.65
		c0.13,0.28,0.19,0.6,0.19,0.97c0,0.17-0.01,0.33-0.03,0.49c-0.02,0.16-0.05,0.33-0.08,0.49c-0.07,0.29-0.16,0.57-0.28,0.83
		c-0.12,0.26-0.27,0.49-0.44,0.68c-0.17,0.2-0.37,0.35-0.6,0.46C176.46,156.61,176.2,156.66,175.92,156.66z M175.96,156
		c0.22,0,0.41-0.07,0.58-0.21s0.31-0.33,0.42-0.56c0.12-0.24,0.2-0.5,0.27-0.79c0.04-0.16,0.07-0.32,0.09-0.47
		c0.02-0.15,0.03-0.3,0.03-0.44c0-0.41-0.08-0.71-0.24-0.89c-0.16-0.19-0.38-0.28-0.65-0.28c-0.23,0-0.43,0.07-0.61,0.21
		c-0.18,0.14-0.32,0.33-0.44,0.56c-0.12,0.24-0.22,0.5-0.29,0.8c-0.03,0.16-0.06,0.31-0.08,0.46c-0.02,0.15-0.03,0.3-0.03,0.44
		c0,0.28,0.04,0.5,0.12,0.68c0.08,0.17,0.2,0.3,0.34,0.37C175.62,155.96,175.78,156,175.96,156z"/>
	<path class="st0" d="M180.65,156.67c-0.39,0-0.71-0.08-0.97-0.23s-0.46-0.38-0.59-0.66c-0.13-0.28-0.2-0.62-0.2-1
		c0-0.39,0.05-0.77,0.14-1.14c0.09-0.37,0.23-0.7,0.42-0.99s0.43-0.53,0.73-0.7c0.29-0.17,0.64-0.26,1.03-0.26
		c0.38,0,0.7,0.09,0.98,0.27s0.46,0.46,0.54,0.85l-0.73,0.26c-0.03-0.22-0.12-0.39-0.28-0.51c-0.16-0.12-0.35-0.18-0.56-0.18
		c-0.23,0-0.44,0.06-0.62,0.18s-0.33,0.27-0.45,0.46c-0.12,0.19-0.21,0.4-0.29,0.63c-0.07,0.23-0.12,0.47-0.15,0.71
		c0.09-0.25,0.25-0.44,0.5-0.57s0.51-0.2,0.79-0.2c0.43,0,0.77,0.12,1.02,0.37c0.25,0.25,0.38,0.57,0.38,0.97
		c0,0.33-0.07,0.63-0.21,0.9s-0.33,0.47-0.59,0.63C181.29,156.59,181,156.67,180.65,156.67z M180.66,156.01
		c0.2,0,0.37-0.05,0.5-0.14c0.13-0.09,0.24-0.21,0.3-0.36s0.1-0.32,0.1-0.5c0-0.23-0.08-0.43-0.23-0.58
		c-0.15-0.15-0.38-0.23-0.67-0.23c-0.2,0-0.37,0.04-0.51,0.14s-0.25,0.21-0.32,0.35c-0.07,0.14-0.11,0.3-0.11,0.47
		c0,0.14,0.02,0.26,0.07,0.36c0.05,0.11,0.11,0.2,0.2,0.27c0.08,0.08,0.18,0.13,0.3,0.17C180.4,155.99,180.52,156.01,180.66,156.01z
		"/>
	<path class="st0" d="M183.98,151.12c0.27,0.38,0.47,0.8,0.62,1.28c0.14,0.48,0.22,0.97,0.22,1.46c0,0.42-0.05,0.83-0.16,1.23
		c-0.11,0.4-0.27,0.78-0.47,1.14c-0.21,0.36-0.46,0.69-0.76,0.98c-0.3,0.29-0.64,0.55-1.02,0.77l-0.3-0.43
		c0.44-0.28,0.8-0.62,1.1-1.02c0.3-0.4,0.52-0.83,0.67-1.3c0.15-0.47,0.22-0.96,0.22-1.47c0-0.42-0.05-0.83-0.15-1.23
		s-0.24-0.76-0.42-1.07L183.98,151.12z"/>
	<path class="st0" d="M185.81,156.66c-0.15,0-0.27-0.04-0.36-0.12c-0.09-0.08-0.14-0.19-0.14-0.33c0-0.19,0.05-0.33,0.17-0.44
		c0.11-0.11,0.25-0.16,0.41-0.16c0.15,0,0.27,0.04,0.36,0.12c0.09,0.08,0.14,0.19,0.14,0.33c0,0.19-0.05,0.33-0.16,0.44
		S185.98,156.66,185.81,156.66z"/>
</g>
</svg>
