<?xml version="1.0" encoding="utf-8"?>
<!-- Generator: Adobe Illustrator 25.4.1, SVG Export Plug-In . SVG Version: 6.00 Build 0)  -->
<svg version="1.1" id="Layer_1" xmlns="http://www.w3.org/2000/svg" xmlns:xlink="http://www.w3.org/1999/xlink" x="0px" y="0px"
	 viewBox="0 0 300 250" style="enable-background:new 0 0 300 250;" xml:space="preserve">
<style type="text/css">
	.st0{fill:#FFFFFF;}
</style>
<g>
	<g>
		<g>
			<g>
				<g>
					<path class="st0" d="M26.02,24.18c0,0.26-0.21,0.47-0.48,0.47c-0.27,0-0.48-0.21-0.48-0.47c0-0.26,0.22-0.47,0.49-0.47
						C25.81,23.71,26.02,23.92,26.02,24.18z M25.17,24.18c0,0.21,0.16,0.38,0.37,0.38c0.2,0,0.36-0.17,0.36-0.37
						c0-0.21-0.15-0.38-0.36-0.38C25.33,23.81,25.17,23.98,25.17,24.18z M25.46,24.43h-0.11v-0.47c0.04-0.01,0.1-0.01,0.18-0.01
						c0.09,0,0.13,0.01,0.16,0.04c0.03,0.02,0.05,0.05,0.05,0.1c0,0.06-0.04,0.09-0.1,0.11v0.01c0.05,0.01,0.07,0.05,0.08,0.11
						c0.01,0.07,0.03,0.1,0.03,0.11h-0.11c-0.01-0.02-0.02-0.06-0.04-0.11c-0.01-0.05-0.04-0.07-0.1-0.07h-0.05V24.43z M25.47,24.16
						h0.05c0.06,0,0.11-0.02,0.11-0.07c0-0.04-0.03-0.07-0.1-0.07c-0.03,0-0.05,0-0.06,0.01V24.16z"/>
				</g>
			</g>
		</g>
		<path class="st0" d="M33.06,22.55c-2.34,0-3.47-1.71-3.47-3.35c0-1.89,1.36-3.42,3.51-3.42c0.73,0,1.48,0.22,2.08,0.73l-0.66,0.93
			C34.11,17.12,33.67,17,33.14,17c-1.14,0-1.99,0.79-1.99,2.16c0,1.24,0.78,2.24,2.03,2.24c0.53,0,0.99-0.16,1.4-0.52l0.61,0.93
			C34.61,22.31,33.82,22.55,33.06,22.55"/>
		<path class="st0" d="M38.8,22.55c-1.96,0-3.4-1.48-3.4-3.42c0-1.99,1.58-3.35,3.4-3.35c1.83,0,3.42,1.35,3.42,3.34
			C42.22,21.07,40.77,22.55,38.8,22.55 M40.64,19.13c0-1.19-0.58-2.22-1.84-2.22c-1.23,0-1.84,1.03-1.84,2.21
			c0,1.22,0.57,2.31,1.84,2.31c1.27,0,1.84-1.07,1.84-2.31V19.13z"/>
		<path class="st0" d="M46.19,22.55c-1.96,0-3.41-1.48-3.41-3.42c0-1.99,1.58-3.35,3.41-3.35c1.83,0,3.42,1.35,3.42,3.34
			C49.61,21.07,48.16,22.55,46.19,22.55 M48.03,19.13c0-1.19-0.58-2.22-1.84-2.22c-1.23,0-1.84,1.03-1.84,2.21
			c0,1.22,0.57,2.31,1.84,2.31c1.27,0,1.84-1.07,1.84-2.31V19.13z"/>
		<polygon class="st0" points="50.38,22.39 50.38,12.9 51.85,13.71 51.85,22.39 		"/>
		<path class="st0" d="M55.24,22.59c-1.66,0-2.45-0.8-2.45-0.8l0.66-0.86c0,0,0.75,0.5,1.75,0.5c0.48,0,0.88-0.33,0.88-0.66
			c0-0.33-0.15-0.61-0.58-0.83c-0.44-0.23-0.93-0.46-1.31-0.65c-0.38-0.19-1.23-0.76-1.23-1.87c0-1.13,1.14-1.75,2.3-1.75
			c1.11,0,1.96,0.73,1.96,0.73l-0.57,0.87c0,0-0.64-0.45-1.34-0.45c-0.7,0-0.85,0.45-0.85,0.64c0,0.18,0.07,0.48,0.52,0.71
			c0.45,0.24,0.91,0.49,1.58,0.86c0.66,0.37,1.03,1.01,1.03,1.72C57.58,21.47,56.89,22.59,55.24,22.59"/>
		<path class="st0" d="M61.56,22.55c-2.34,0-3.47-1.71-3.47-3.35c0-1.89,1.36-3.42,3.51-3.42c0.73,0,1.48,0.22,2.08,0.73l-0.66,0.93
			C62.6,17.12,62.17,17,61.64,17c-1.14,0-1.99,0.79-1.99,2.16c0,1.24,0.78,2.24,2.03,2.24c0.53,0,0.99-0.16,1.4-0.52l0.61,0.93
			C63.11,22.31,62.31,22.55,61.56,22.55"/>
		<path class="st0" d="M68.8,21.63c0,0-0.74,0.91-2.15,0.91c-1.66,0-2.46-1.2-2.46-2.42v-4.2h1.47v4.13c0,0.71,0.56,1.31,1.42,1.31
			c0.76,0,1.5-0.9,1.5-0.9v-4.54h1.47v6.45L68.8,21.63z"/>
		<polygon class="st0" points="71.36,22.39 71.36,12.9 72.83,13.71 72.83,22.39 		"/>
		<path class="st0" d="M77.69,22.55c-1.3,0-2.04-0.73-2.04-0.73v3.22h-1.48v-9.24l1.48,0.78c0,0,0.8-0.81,2.12-0.81
			c1.39,0,3.13,1.07,3.13,3.47C80.89,21.63,79.19,22.55,77.69,22.55 M77.6,16.91c-1.26,0-1.99,1.18-1.99,1.18v2.44
			c0,0,0.83,0.94,2.04,0.94c1.4,0,1.71-1.68,1.71-2.27C79.36,18.61,79.23,16.91,77.6,16.91"/>
		<path class="st0" d="M84.76,22.56h-0.93c-1.17,0-1.56-1.13-1.56-1.87v-3.8h-1.17v-0.97h1.17v-2.85h1.46v2.85h1.5v0.97h-1.48v3.44
			c0,0.38-0.07,0.99,0.58,0.99h1.06L84.76,22.56z"/>
		<path class="st0" d="M87.12,14.81c-0.53,0-0.97-0.44-0.97-0.97c0-0.53,0.44-0.97,0.97-0.97c0.53,0,0.97,0.43,0.97,0.97
			C88.09,14.37,87.65,14.81,87.12,14.81 M86.39,15.93h1.44v6.46h-1.44V15.93z"/>
		<path class="st0" d="M93.66,22.39v-4.13c0-0.71-0.56-1.31-1.42-1.31c-0.76,0-1.6,0.9-1.6,0.9v4.54h-1.47v-6.45l1.25,0.74
			c0,0,0.85-0.91,2.25-0.91c1.66,0,2.46,1.2,2.46,2.42v4.2H93.66z"/>
		<path class="st0" d="M99.62,25.39c-0.23,0-1.95-0.03-1.95-0.03l0.03-1.18h1.45c1.4,0,2.2-0.76,2.2-1.79v-0.58
			c0,0-0.77,0.73-2.07,0.73c-1.5,0-3.21-0.92-3.21-3.31c0-2.4,1.74-3.47,3.13-3.47c1.32,0,2.12,0.81,2.12,0.81l1.48-0.74v6.42
			C102.8,23.99,101.65,25.39,99.62,25.39 M101.36,18.08c0,0-0.73-1.18-1.99-1.18c-1.63,0-1.76,1.71-1.76,2.29
			c0,0.58,0.3,2.27,1.71,2.27c1.21,0,2.04-0.94,2.04-0.94V18.08z"/>
		<polygon class="st0" points="16.43,27.29 16.43,23.07 17.26,22.24 19.65,24.63 19.65,25.43 		"/>
		<polygon class="st0" points="14.71,19.45 12,22.16 15.31,23.4 19.27,19.45 		"/>
		<polygon class="st0" points="16.04,15.67 12.56,15.67 13.67,18.9 19.27,18.9 		"/>
		<polygon class="st0" points="19.66,13.95 16.96,11.26 15.7,14.55 19.66,18.51 		"/>
		<polygon class="st0" points="27.81,22.67 23.82,22.67 20.6,19.45 26.19,19.45 		"/>
		<polygon class="st0" points="24.55,14.95 28.17,15.89 25.16,18.9 20.6,18.9 		"/>
		<polygon class="st0" points="20.21,12.92 23.43,11 23.43,15.28 20.21,18.51 		"/>
		<polygon class="st0" points="24.31,23.95 23.28,27.47 17.65,21.84 19.93,19.57 		"/>
		<g>
			<path class="st0" d="M105,16.36c0,0.38-0.31,0.68-0.7,0.68c-0.39,0-0.7-0.3-0.7-0.68c0-0.38,0.31-0.68,0.71-0.68
				C104.69,15.68,105,15.98,105,16.36z M103.77,16.36c0,0.3,0.23,0.54,0.53,0.54c0.29,0,0.52-0.24,0.52-0.54
				c0-0.3-0.22-0.55-0.53-0.55C104,15.82,103.77,16.07,103.77,16.36z M104.19,16.72h-0.16v-0.68c0.06-0.01,0.15-0.02,0.26-0.02
				c0.13,0,0.19,0.02,0.23,0.05c0.04,0.03,0.07,0.08,0.07,0.15c0,0.08-0.06,0.14-0.14,0.16v0.01c0.07,0.02,0.1,0.08,0.12,0.17
				c0.02,0.1,0.04,0.14,0.05,0.17h-0.17c-0.02-0.02-0.03-0.08-0.05-0.17c-0.01-0.07-0.05-0.1-0.14-0.1h-0.08V16.72z M104.2,16.33
				h0.07c0.09,0,0.16-0.03,0.16-0.1c0-0.06-0.05-0.1-0.15-0.1c-0.04,0-0.07,0-0.09,0.01V16.33z"/>
		</g>
	</g>
</g>
</svg>
