<?xml version="1.0" encoding="utf-8"?>
<!-- Generator: Adobe Illustrator 25.2.1, SVG Export Plug-In . SVG Version: 6.00 Build 0)  -->
<svg version="1.1" id="Layer_1" xmlns="http://www.w3.org/2000/svg" xmlns:xlink="http://www.w3.org/1999/xlink" x="0px" y="0px"
	 viewBox="0 0 300 250" style="enable-background:new 0 0 300 250;" xml:space="preserve">
<style type="text/css">
	.st0{fill:#EAF5FB;}
</style>
<g>
	<path class="st0" d="M144.43,93.34v-3.27h1.57v2.97c0,1.54,0.43,2.16,1.51,2.16c1.11,0,1.54-0.62,1.54-2.16v-2.81
		c0-1.27-0.35-1.89-1.27-2.48l-1.43-0.92c-1.38-0.89-1.92-1.92-1.92-3.72v-2.4c0-2.05,1.11-3.21,3.02-3.21s3.02,1.16,3.02,3.21v2.4
		h-1.57v-2.13c0-1.46-0.4-2.02-1.43-2.02c-1.03,0-1.43,0.57-1.43,2.02V83c0,1.27,0.35,1.89,1.27,2.48l1.43,0.92
		c1.38,0.89,1.92,1.92,1.92,3.73v3.21c0,2.13-1.16,3.32-3.13,3.32C145.56,96.66,144.43,95.47,144.43,93.34z"/>
	<path class="st0" d="M155.14,79.17h-2.27v-1.4h6.15v1.4h-2.27v17.22h-1.62V79.17z"/>
	<path class="st0" d="M161.67,77.77h3c2.16,0,3.19,1.11,3.19,3.37v2.38c0,1.51-0.49,2.43-1.46,2.86v0.05
		c0.97,0.43,1.46,1.35,1.46,2.89v7.07h-1.62v-6.96c0-1.73-0.49-2.24-2.03-2.24h-0.92v9.2h-1.62V77.77z M164.48,85.78
		c1.35,0,1.75-0.51,1.75-2.24v-2.13c0-1.73-0.41-2.24-1.75-2.24h-1.19v6.61H164.48z"/>
	<path class="st0" d="M171.01,77.77h5.34v1.4h-3.72v6.5h3.24v1.4h-3.24v7.91h3.72v1.4h-5.34V77.77z"/>
	<path class="st0" d="M179.11,77.77h2.11l2.94,13.63h0.05V77.77h1.46v18.62h-1.75l-3.29-15.36h-0.05v15.36h-1.46V77.77z"/>
	<path class="st0" d="M188.85,93.74v-12.9c0-2.13,1.16-3.35,3.1-3.35c1.97,0,3.08,1.21,3.08,3.35v2.05h-1.54v-1.75
		c0-1.57-0.43-2.19-1.51-2.19c-1.11,0-1.51,0.62-1.51,2.19v12.42c0,1.11,0.41,1.65,1.3,1.65c1.11,0,1.73-0.84,1.73-2.35v-5.34h-1.51
		v-1.4h3.13v10.28h-1.38v-1.32h-0.08c-0.43,1.03-1.21,1.59-2.32,1.59C189.77,96.66,188.85,95.55,188.85,93.74z"/>
	<path class="st0" d="M199.79,79.17h-2.27v-1.4h6.15v1.4h-2.27v17.22h-1.62V79.17z"/>
	<path class="st0" d="M206.32,77.77h1.62v7.91h3.05v-7.91h1.62v18.62h-1.62v-9.31h-3.05v9.31h-1.62V77.77z"/>
	<path class="st0" d="M215.9,77.77h5.34v1.4h-3.72v6.5h3.24v1.4h-3.24v7.91h3.72v1.4h-5.34V77.77z"/>
	<path class="st0" d="M223.99,77.77h2.11l2.94,13.63h0.05V77.77h1.46v18.62h-1.75l-3.29-15.36h-0.05v15.36h-1.46V77.77z"/>
	<path class="st0" d="M234.47,96.39h-0.65v-2.21h1.83v1.94l-1.19,3h-0.94L234.47,96.39z"/>
	<path class="st0" d="M245.15,79.17h-2.27v-1.4h6.15v1.4h-2.27v17.22h-1.62V79.17z"/>
	<path class="st0" d="M251.36,93.29V80.87c0-2.16,1.16-3.37,3.13-3.37s3.13,1.21,3.13,3.37v12.42c0,2.16-1.16,3.37-3.13,3.37
		S251.36,95.45,251.36,93.29z M256,93.02V81.14c0-1.57-0.43-2.19-1.51-2.19c-1.11,0-1.51,0.62-1.51,2.19v11.88
		c0,1.57,0.41,2.19,1.51,2.19C255.57,95.2,256,94.58,256,93.02z"/>
	<path class="st0" d="M260.81,77.77h2.11l2.94,13.63h0.05V77.77h1.46v18.62h-1.75l-3.29-15.36h-0.05v15.36h-1.46V77.77z"/>
	<path class="st0" d="M270.66,77.77H276v1.4h-3.72v6.5h3.24v1.4h-3.24v7.91H276v1.4h-5.34V77.77z"/>
	<path class="st0" d="M279.65,96.39H279v-2.21h1.83v1.94l-1.19,3h-0.94L279.65,96.39z"/>
	<path class="st0" d="M146.45,103.75h2.13l2.35,18.62h-1.65l-0.54-4.62h-2.54l-0.54,4.62h-1.57L146.45,103.75z M148.59,116.36
		l-1.08-10.04h-0.05l-1.08,10.04H148.59z"/>
	<path class="st0" d="M153.47,103.75h2.11l2.94,13.63h0.05v-13.63h1.46v18.62h-1.75l-3.29-15.36h-0.05v15.36h-1.46V103.75z"/>
	<path class="st0" d="M163.19,103.75h3.08c2.16,0,3.19,1.11,3.19,3.37v11.88c0,2.27-1.03,3.37-3.19,3.37h-3.08V103.75z
		 M166.08,120.98c1.35,0,1.75-0.51,1.75-2.24V107.4c0-1.73-0.4-2.24-1.75-2.24h-1.27v15.82H166.08z"/>
	<path class="st0" d="M176.92,103.75h5.34v1.4h-3.72v6.77h3.24v1.4h-3.24v9.04h-1.62V103.75z"/>
	<path class="st0" d="M184.78,103.75h1.62v18.62h-1.62V103.75z"/>
	<path class="st0" d="M189.55,103.75h3c2.16,0,3.19,1.11,3.19,3.37v2.38c0,1.51-0.49,2.43-1.46,2.86v0.05
		c0.97,0.43,1.46,1.35,1.46,2.89v7.07h-1.62v-6.96c0-1.73-0.49-2.24-2.03-2.24h-0.92v9.2h-1.62V103.75z M192.36,111.77
		c1.35,0,1.75-0.51,1.75-2.24v-2.13c0-1.73-0.41-2.24-1.75-2.24h-1.19v6.61H192.36z"/>
	<path class="st0" d="M198.76,103.75h2.56l2.08,13.74h0.05l2.08-13.74h2.67v18.62h-1.62v-16.65h-0.05l-2.51,16.65h-1.27l-2.51-16.65
		h-0.05v16.65h-1.43V103.75z"/>
	<path class="st0" d="M215.82,103.75h2.56l2.08,13.74h0.05l2.08-13.74h2.67v18.62h-1.62v-16.65h-0.05l-2.51,16.65h-1.27l-2.51-16.65
		h-0.05v16.65h-1.43V103.75z"/>
	<path class="st0" d="M228.37,119.38v-15.63h1.62v15.33c0,1.51,0.38,2.11,1.46,2.11s1.46-0.59,1.46-2.11v-15.33h1.57v15.63
		c0,2.08-1.13,3.27-3.05,3.27C229.5,122.65,228.37,121.46,228.37,119.38z"/>
	<path class="st0" d="M237.27,119.33v-3.27h1.57v2.97c0,1.54,0.43,2.16,1.51,2.16c1.11,0,1.54-0.62,1.54-2.16v-2.81
		c0-1.27-0.35-1.89-1.27-2.48l-1.43-0.92c-1.38-0.89-1.92-1.92-1.92-3.72v-2.4c0-2.05,1.11-3.21,3.02-3.21
		c1.92,0,3.02,1.16,3.02,3.21v2.4h-1.57v-2.13c0-1.46-0.41-2.02-1.43-2.02c-1.03,0-1.43,0.57-1.43,2.02v2.02
		c0,1.27,0.35,1.89,1.27,2.48l1.43,0.92c1.38,0.89,1.92,1.92,1.92,3.73v3.21c0,2.13-1.16,3.32-3.13,3.32
		S237.27,121.46,237.27,119.33z"/>
	<path class="st0" d="M246.21,119.44V106.7c0-2.05,1.08-3.21,3.02-3.21c1.97,0,3.05,1.16,3.05,3.21v3.05h-1.54v-2.78
		c0-1.46-0.43-2.02-1.46-2.02c-1.05,0-1.46,0.57-1.46,2.02v12.2c0,1.46,0.41,2.02,1.46,2.02c1.03,0,1.46-0.57,1.46-2.02v-3.75h1.54
		v4.02c0,2.05-1.08,3.21-3.05,3.21C247.28,122.65,246.21,121.49,246.21,119.44z"/>
	<path class="st0" d="M255.14,103.75h1.62v17.22h3.46v1.4h-5.08V103.75z"/>
	<path class="st0" d="M262.72,103.75h5.34v1.4h-3.72v6.5h3.24v1.4h-3.24v7.91h3.72v1.4h-5.34V103.75z"/>
	<path class="st0" d="M270.44,119.33v-3.27h1.57v2.97c0,1.54,0.43,2.16,1.51,2.16c1.11,0,1.54-0.62,1.54-2.16v-2.81
		c0-1.27-0.35-1.89-1.27-2.48l-1.43-0.92c-1.38-0.89-1.92-1.92-1.92-3.72v-2.4c0-2.05,1.11-3.21,3.02-3.21
		c1.92,0,3.02,1.16,3.02,3.21v2.4h-1.57v-2.13c0-1.46-0.41-2.02-1.43-2.02c-1.03,0-1.43,0.57-1.43,2.02v2.02
		c0,1.27,0.35,1.89,1.27,2.48l1.43,0.92c1.38,0.89,1.92,1.92,1.92,3.73v3.21c0,2.13-1.16,3.32-3.13,3.32
		S270.44,121.46,270.44,119.33z"/>
	<path class="st0" d="M277.86,120.17h1.81v2.21h-1.81V120.17z"/>
</g>
</svg>
