<?xml version="1.0" encoding="utf-8"?>
<!-- Generator: Adobe Illustrator 25.2.1, SVG Export Plug-In . SVG Version: 6.00 Build 0)  -->
<svg version="1.1" id="Layer_1" xmlns="http://www.w3.org/2000/svg" xmlns:xlink="http://www.w3.org/1999/xlink" x="0px" y="0px"
	 viewBox="0 0 300 250" style="enable-background:new 0 0 300 250;" xml:space="preserve">
<style type="text/css">
	.st0{fill:#00A9E0;}
	.st1{fill:#FFFFFF;}
</style>
<rect x="180.41" y="137.77" class="st0" width="100.19" height="22.4"/>
<g>
	<path class="st1" d="M191.29,152.65v-7.89h1.92v6.23h3.05v1.66H191.29z"/>
	<path class="st1" d="M197.82,152.65v-7.89h5.3v1.62h-3.46v1.48h3.27v1.53h-3.27v1.64h3.66v1.63H197.82z"/>
	<path class="st1" d="M210.61,152.65l-0.61-1.55h-3.05l-0.58,1.55h-2.07l3.31-7.89h1.85l3.28,7.89H210.61z M208.49,146.87l-1,2.71
		h1.98L208.49,146.87z"/>
	<path class="st1" d="M218.27,152.65l-1.71-3.13h-0.65v3.13h-1.87v-7.89h3.01c1.52,0,3.02,0.58,3.02,2.38
		c0,1.06-0.62,1.82-1.64,2.13l2.06,3.38H218.27z M216.92,146.3h-1.01v1.84h0.9c0.61,0,1.38-0.16,1.38-0.96
		C218.2,146.45,217.49,146.3,216.92,146.3z"/>
	<path class="st1" d="M227.12,152.65l-3.17-5.16h-0.03l0.04,5.16h-1.85v-7.89h2.17l3.16,5.15h0.03l-0.04-5.15h1.85v7.89H227.12z"/>
	<path class="st1" d="M242.19,152.65l0.04-5.58h-0.03l-2.05,5.58h-1.34l-1.99-5.58h-0.03l0.04,5.58h-1.79v-7.89h2.71l1.79,5.06h0.04
		l1.72-5.06h2.75v7.89H242.19z"/>
	<path class="st1" d="M250.27,152.87c-2.46,0-4.29-1.69-4.29-4.19c0-2.53,1.83-4.12,4.29-4.12c2.47,0,4.3,1.59,4.3,4.12
		C254.57,151.17,252.75,152.87,250.27,152.87z M250.27,146.27c-1.34,0-2.25,1.03-2.25,2.41c0,1.43,0.92,2.45,2.25,2.45
		c1.33,0,2.26-1.02,2.26-2.45C252.54,147.3,251.61,146.27,250.27,146.27z"/>
	<path class="st1" d="M260.73,152.65l-1.71-3.13h-0.65v3.13h-1.87v-7.89h3.01c1.52,0,3.02,0.58,3.02,2.38
		c0,1.06-0.62,1.82-1.64,2.13l2.06,3.38H260.73z M259.38,146.3h-1.01v1.84h0.9c0.61,0,1.38-0.16,1.38-0.96
		C260.65,146.45,259.95,146.3,259.38,146.3z"/>
	<path class="st1" d="M264.57,152.65v-7.89h5.3v1.62h-3.46v1.48h3.27v1.53h-3.27v1.64h3.66v1.63H264.57z"/>
</g>
</svg>
