<?xml version="1.0" encoding="utf-8"?>
<!-- Generator: Adobe Illustrator 25.2.1, SVG Export Plug-In . SVG Version: 6.00 Build 0)  -->
<svg version="1.1" id="Layer_1" xmlns="http://www.w3.org/2000/svg" xmlns:xlink="http://www.w3.org/1999/xlink" x="0px" y="0px"
	 viewBox="0 0 300 250" style="enable-background:new 0 0 300 250;" xml:space="preserve">
<style type="text/css">
	.st0{fill:#FFFFFF;}
</style>
<g>
	<path class="st0" d="M169.68,192.06h-0.74v-5.31h0.74V192.06z"/>
	<path class="st0" d="M172.61,192.06h-0.76l-1.45-3.55h0.78l1.04,2.8h0.01l1.05-2.8h0.75L172.61,192.06z"/>
	<path class="st0" d="M176.93,189.76c0-0.26-0.08-0.46-0.24-0.59c-0.16-0.13-0.37-0.19-0.64-0.19c-0.2,0-0.39,0.04-0.57,0.12
		c-0.18,0.08-0.33,0.18-0.45,0.3l-0.38-0.45c0.17-0.17,0.39-0.29,0.64-0.39c0.25-0.09,0.52-0.14,0.81-0.14
		c0.25,0,0.48,0.04,0.66,0.11c0.19,0.07,0.34,0.17,0.46,0.3s0.21,0.27,0.27,0.44c0.06,0.17,0.09,0.35,0.09,0.55v1.55
		c0,0.12,0,0.25,0.01,0.38c0.01,0.13,0.02,0.24,0.04,0.33h-0.64c-0.04-0.17-0.06-0.34-0.06-0.51h-0.02
		c-0.13,0.19-0.29,0.34-0.49,0.44c-0.2,0.1-0.43,0.16-0.7,0.16c-0.14,0-0.29-0.02-0.44-0.06c-0.15-0.04-0.29-0.1-0.42-0.18
		c-0.12-0.08-0.23-0.2-0.31-0.34c-0.08-0.14-0.12-0.31-0.12-0.52c0-0.27,0.07-0.48,0.22-0.64c0.14-0.16,0.33-0.28,0.57-0.36
		c0.24-0.08,0.5-0.14,0.79-0.16c0.29-0.02,0.59-0.04,0.89-0.04V189.76z M176.75,190.37c-0.17,0-0.36,0.01-0.54,0.02
		s-0.36,0.04-0.51,0.09s-0.28,0.11-0.38,0.2c-0.1,0.09-0.15,0.21-0.15,0.36c0,0.1,0.02,0.19,0.06,0.26c0.04,0.07,0.1,0.13,0.17,0.17
		s0.15,0.08,0.23,0.09s0.17,0.03,0.26,0.03c0.33,0,0.58-0.1,0.76-0.3s0.27-0.45,0.27-0.75v-0.19H176.75z"/>
	<path class="st0" d="M179.42,188.51c0.01,0.09,0.02,0.19,0.02,0.3s0.01,0.21,0.01,0.28h0.02c0.04-0.09,0.11-0.18,0.18-0.27
		c0.08-0.08,0.17-0.15,0.27-0.22c0.1-0.06,0.21-0.11,0.33-0.15c0.12-0.04,0.24-0.05,0.37-0.05c0.23,0,0.43,0.04,0.59,0.12
		c0.17,0.08,0.3,0.18,0.41,0.31s0.19,0.28,0.24,0.46c0.05,0.17,0.08,0.36,0.08,0.56v2.2h-0.7v-1.97c0-0.14-0.01-0.28-0.03-0.41
		s-0.06-0.25-0.12-0.34c-0.06-0.1-0.14-0.18-0.25-0.24c-0.1-0.06-0.24-0.09-0.41-0.09c-0.28,0-0.51,0.11-0.69,0.32
		c-0.18,0.21-0.27,0.5-0.27,0.85v1.89h-0.7v-2.79c0-0.09,0-0.22-0.01-0.37s-0.01-0.28-0.02-0.4H179.42z"/>
	<path class="st0" d="M185.28,188.51l0.8,2.71h0.01l0.85-2.71h0.74l0.86,2.71h0.01l0.8-2.71h0.74l-1.18,3.55h-0.73l-0.88-2.67h-0.02
		l-0.87,2.67h-0.74l-1.18-3.55H185.28z"/>
	<path class="st0" d="M193.02,189.76c0-0.26-0.08-0.46-0.24-0.59c-0.16-0.13-0.37-0.19-0.64-0.19c-0.2,0-0.39,0.04-0.57,0.12
		c-0.18,0.08-0.33,0.18-0.45,0.3l-0.38-0.45c0.17-0.17,0.39-0.29,0.64-0.39c0.25-0.09,0.52-0.14,0.81-0.14
		c0.25,0,0.48,0.04,0.66,0.11c0.19,0.07,0.34,0.17,0.46,0.3s0.21,0.27,0.27,0.44c0.06,0.17,0.09,0.35,0.09,0.55v1.55
		c0,0.12,0,0.25,0.01,0.38c0.01,0.13,0.02,0.24,0.04,0.33h-0.64c-0.04-0.17-0.06-0.34-0.06-0.51h-0.02
		c-0.13,0.19-0.29,0.34-0.49,0.44c-0.2,0.1-0.43,0.16-0.7,0.16c-0.14,0-0.29-0.02-0.44-0.06c-0.15-0.04-0.29-0.1-0.42-0.18
		c-0.12-0.08-0.23-0.2-0.31-0.34c-0.08-0.14-0.12-0.31-0.12-0.52c0-0.27,0.07-0.48,0.22-0.64c0.14-0.16,0.33-0.28,0.57-0.36
		c0.24-0.08,0.5-0.14,0.79-0.16c0.29-0.02,0.59-0.04,0.89-0.04V189.76z M192.85,190.37c-0.17,0-0.36,0.01-0.54,0.02
		s-0.36,0.04-0.51,0.09s-0.28,0.11-0.38,0.2c-0.1,0.09-0.15,0.21-0.15,0.36c0,0.1,0.02,0.19,0.06,0.26c0.04,0.07,0.1,0.13,0.17,0.17
		s0.15,0.08,0.23,0.09s0.17,0.03,0.26,0.03c0.33,0,0.58-0.1,0.76-0.3s0.27-0.45,0.27-0.75v-0.19H192.85z"/>
	<path class="st0" d="M196.79,189.41c-0.08-0.13-0.19-0.24-0.34-0.32c-0.15-0.08-0.31-0.12-0.49-0.12c-0.08,0-0.16,0.01-0.24,0.03
		s-0.15,0.04-0.21,0.08c-0.06,0.04-0.11,0.08-0.15,0.14c-0.04,0.06-0.06,0.13-0.06,0.21c0,0.15,0.07,0.26,0.2,0.33
		c0.14,0.07,0.34,0.14,0.61,0.2c0.17,0.04,0.33,0.09,0.47,0.14c0.14,0.06,0.27,0.12,0.38,0.21c0.11,0.08,0.19,0.18,0.25,0.3
		c0.06,0.11,0.09,0.25,0.09,0.4c0,0.21-0.04,0.39-0.12,0.53c-0.08,0.15-0.19,0.26-0.32,0.36c-0.13,0.09-0.28,0.16-0.45,0.2
		s-0.34,0.06-0.52,0.06c-0.27,0-0.53-0.05-0.79-0.16c-0.26-0.11-0.47-0.27-0.64-0.48l0.5-0.43c0.09,0.14,0.23,0.26,0.39,0.35
		c0.17,0.1,0.35,0.14,0.55,0.14c0.09,0,0.18-0.01,0.26-0.03c0.08-0.02,0.16-0.05,0.22-0.09c0.07-0.04,0.12-0.09,0.16-0.16
		c0.04-0.06,0.06-0.15,0.06-0.25c0-0.17-0.08-0.29-0.24-0.37c-0.16-0.08-0.39-0.15-0.69-0.22c-0.12-0.03-0.24-0.07-0.36-0.11
		c-0.12-0.04-0.23-0.1-0.33-0.18c-0.1-0.07-0.18-0.17-0.24-0.28c-0.06-0.11-0.09-0.25-0.09-0.42c0-0.19,0.04-0.35,0.12-0.49
		c0.08-0.14,0.18-0.25,0.3-0.34c0.12-0.09,0.27-0.15,0.43-0.19c0.16-0.04,0.33-0.06,0.5-0.06c0.25,0,0.5,0.05,0.74,0.15
		s0.42,0.25,0.55,0.43L196.79,189.41z"/>
	<path class="st0" d="M201.82,189.09h-0.94v1.85c0,0.21,0.04,0.37,0.12,0.46c0.08,0.09,0.21,0.14,0.38,0.14
		c0.06,0,0.13-0.01,0.21-0.02s0.14-0.03,0.2-0.06l0.02,0.58c-0.08,0.03-0.18,0.05-0.28,0.07c-0.1,0.02-0.21,0.03-0.32,0.03
		c-0.33,0-0.59-0.09-0.77-0.28c-0.18-0.18-0.27-0.46-0.27-0.83v-1.93h-0.68v-0.58h0.68v-1.02h0.7v1.02h0.94V189.09z"/>
	<path class="st0" d="M202.54,188.91c0-0.15-0.01-0.28-0.02-0.4h0.67c0.01,0.09,0.02,0.19,0.02,0.31s0.01,0.21,0.01,0.29h0.02
		c0.1-0.21,0.25-0.38,0.44-0.51c0.19-0.13,0.41-0.19,0.65-0.19c0.11,0,0.2,0.01,0.28,0.03l-0.03,0.65c-0.1-0.03-0.21-0.04-0.32-0.04
		c-0.17,0-0.32,0.03-0.44,0.09c-0.12,0.06-0.23,0.15-0.31,0.25c-0.08,0.1-0.14,0.23-0.18,0.36s-0.06,0.28-0.06,0.43v1.87h-0.7v-2.79
		C202.54,189.18,202.54,189.06,202.54,188.91z"/>
	<path class="st0" d="M208.44,190.26c0,0.04,0,0.08,0,0.12s0,0.08-0.01,0.12h-2.83c0,0.15,0.04,0.29,0.1,0.42
		c0.06,0.13,0.15,0.25,0.25,0.34c0.1,0.1,0.23,0.17,0.36,0.23c0.14,0.05,0.28,0.08,0.44,0.08c0.24,0,0.45-0.05,0.62-0.16
		c0.17-0.1,0.31-0.23,0.41-0.38l0.49,0.4c-0.19,0.25-0.41,0.44-0.67,0.56s-0.54,0.18-0.86,0.18c-0.27,0-0.52-0.04-0.75-0.13
		c-0.23-0.09-0.43-0.22-0.59-0.38s-0.29-0.36-0.39-0.59c-0.1-0.23-0.14-0.48-0.14-0.76c0-0.27,0.05-0.53,0.14-0.76
		s0.22-0.43,0.39-0.6c0.17-0.17,0.36-0.29,0.59-0.39c0.23-0.09,0.47-0.14,0.73-0.14c0.26,0,0.5,0.04,0.71,0.13s0.39,0.21,0.54,0.37
		c0.15,0.16,0.26,0.35,0.34,0.58S208.44,189.97,208.44,190.26z M207.72,189.97c0-0.14-0.03-0.27-0.07-0.39
		c-0.04-0.12-0.11-0.23-0.19-0.32c-0.08-0.09-0.19-0.16-0.31-0.21s-0.27-0.08-0.43-0.08c-0.15,0-0.29,0.03-0.42,0.08
		s-0.25,0.12-0.34,0.21s-0.18,0.2-0.24,0.32c-0.06,0.12-0.1,0.25-0.11,0.39H207.72z"/>
	<path class="st0" d="M211.58,189.76c0-0.26-0.08-0.46-0.24-0.59c-0.16-0.13-0.37-0.19-0.64-0.19c-0.2,0-0.39,0.04-0.57,0.12
		c-0.18,0.08-0.33,0.18-0.45,0.3l-0.38-0.45c0.17-0.17,0.39-0.29,0.64-0.39c0.25-0.09,0.52-0.14,0.81-0.14
		c0.25,0,0.48,0.04,0.66,0.11c0.19,0.07,0.34,0.17,0.46,0.3s0.21,0.27,0.27,0.44c0.06,0.17,0.09,0.35,0.09,0.55v1.55
		c0,0.12,0,0.25,0.01,0.38c0.01,0.13,0.02,0.24,0.04,0.33h-0.64c-0.04-0.17-0.06-0.34-0.06-0.51h-0.02
		c-0.13,0.19-0.29,0.34-0.49,0.44c-0.2,0.1-0.43,0.16-0.7,0.16c-0.14,0-0.29-0.02-0.44-0.06c-0.15-0.04-0.29-0.1-0.42-0.18
		c-0.12-0.08-0.23-0.2-0.31-0.34c-0.08-0.14-0.12-0.31-0.12-0.52c0-0.27,0.07-0.48,0.22-0.64c0.14-0.16,0.33-0.28,0.57-0.36
		c0.24-0.08,0.5-0.14,0.79-0.16c0.29-0.02,0.59-0.04,0.89-0.04V189.76z M211.41,190.37c-0.17,0-0.36,0.01-0.54,0.02
		s-0.36,0.04-0.51,0.09s-0.28,0.11-0.38,0.2c-0.1,0.09-0.15,0.21-0.15,0.36c0,0.1,0.02,0.19,0.06,0.26c0.04,0.07,0.1,0.13,0.17,0.17
		s0.15,0.08,0.23,0.09s0.17,0.03,0.26,0.03c0.33,0,0.58-0.1,0.76-0.3s0.27-0.45,0.27-0.75v-0.19H211.41z"/>
	<path class="st0" d="M215.1,189.09h-0.94v1.85c0,0.21,0.04,0.37,0.12,0.46c0.08,0.09,0.21,0.14,0.38,0.14
		c0.06,0,0.13-0.01,0.21-0.02s0.14-0.03,0.2-0.06l0.02,0.58c-0.08,0.03-0.18,0.05-0.28,0.07c-0.1,0.02-0.21,0.03-0.32,0.03
		c-0.33,0-0.59-0.09-0.77-0.28c-0.18-0.18-0.27-0.46-0.27-0.83v-1.93h-0.68v-0.58h0.68v-1.02h0.7v1.02h0.94V189.09z"/>
	<path class="st0" d="M219.15,190.26c0,0.04,0,0.08,0,0.12s0,0.08-0.01,0.12h-2.83c0,0.15,0.04,0.29,0.1,0.42
		c0.06,0.13,0.15,0.25,0.25,0.34c0.1,0.1,0.23,0.17,0.36,0.23c0.14,0.05,0.28,0.08,0.44,0.08c0.24,0,0.45-0.05,0.62-0.16
		c0.17-0.1,0.31-0.23,0.41-0.38l0.49,0.4c-0.19,0.25-0.41,0.44-0.67,0.56s-0.54,0.18-0.86,0.18c-0.27,0-0.52-0.04-0.75-0.13
		c-0.23-0.09-0.43-0.22-0.59-0.38s-0.29-0.36-0.39-0.59c-0.1-0.23-0.14-0.48-0.14-0.76c0-0.27,0.05-0.53,0.14-0.76
		s0.22-0.43,0.39-0.6c0.17-0.17,0.36-0.29,0.59-0.39c0.23-0.09,0.47-0.14,0.73-0.14c0.26,0,0.5,0.04,0.71,0.13s0.39,0.21,0.54,0.37
		c0.15,0.16,0.26,0.35,0.34,0.58S219.15,189.97,219.15,190.26z M218.43,189.97c0-0.14-0.03-0.27-0.07-0.39
		c-0.04-0.12-0.11-0.23-0.19-0.32c-0.08-0.09-0.19-0.16-0.31-0.21s-0.27-0.08-0.43-0.08c-0.15,0-0.29,0.03-0.42,0.08
		s-0.25,0.12-0.34,0.21s-0.18,0.2-0.24,0.32c-0.06,0.12-0.1,0.25-0.11,0.39H218.43z"/>
	<path class="st0" d="M222.96,191.5c-0.13,0.21-0.32,0.38-0.55,0.49s-0.48,0.17-0.73,0.17c-0.28,0-0.52-0.05-0.74-0.15
		s-0.41-0.23-0.56-0.4s-0.27-0.37-0.36-0.6c-0.08-0.23-0.13-0.47-0.13-0.73s0.04-0.5,0.13-0.73c0.08-0.23,0.21-0.43,0.36-0.6
		s0.35-0.3,0.57-0.4c0.22-0.09,0.46-0.14,0.73-0.14c0.29,0,0.54,0.06,0.76,0.18c0.21,0.12,0.38,0.27,0.51,0.45h0.01v-2.65h0.71v5.67
		h-0.68v-0.56H222.96z M220.62,190.28c0,0.16,0.02,0.32,0.07,0.48s0.12,0.29,0.23,0.41c0.1,0.12,0.22,0.21,0.37,0.29
		c0.14,0.07,0.31,0.11,0.51,0.11c0.18,0,0.34-0.03,0.49-0.1c0.15-0.07,0.27-0.16,0.38-0.28c0.11-0.12,0.19-0.25,0.24-0.41
		s0.09-0.32,0.09-0.49c0-0.17-0.03-0.33-0.09-0.49s-0.14-0.29-0.24-0.41c-0.1-0.12-0.23-0.21-0.38-0.28
		c-0.15-0.07-0.31-0.1-0.49-0.1c-0.2,0-0.37,0.04-0.51,0.1c-0.15,0.07-0.27,0.16-0.37,0.28c-0.1,0.12-0.18,0.26-0.23,0.41
		S220.62,190.12,220.62,190.28z"/>
	<path class="st0" d="M227.02,188.51l0.8,2.71h0.01l0.85-2.71h0.74l0.86,2.71h0.01l0.8-2.71h0.74l-1.18,3.55h-0.73l-0.88-2.67h-0.02
		l-0.87,2.67h-0.74l-1.18-3.55H227.02z"/>
	<path class="st0" d="M233.38,187.23c0,0.13-0.05,0.24-0.14,0.32c-0.09,0.09-0.2,0.13-0.33,0.13c-0.13,0-0.24-0.04-0.33-0.13
		c-0.09-0.09-0.13-0.19-0.13-0.32c0-0.13,0.04-0.24,0.13-0.33c0.09-0.09,0.2-0.13,0.33-0.13c0.13,0,0.24,0.04,0.33,0.13
		C233.33,186.99,233.38,187.1,233.38,187.23z M233.27,192.06h-0.7v-3.55h0.7V192.06z"/>
	<path class="st0" d="M236.23,189.09h-0.94v1.85c0,0.21,0.04,0.37,0.12,0.46c0.08,0.09,0.21,0.14,0.38,0.14
		c0.06,0,0.13-0.01,0.21-0.02s0.14-0.03,0.2-0.06l0.02,0.58c-0.08,0.03-0.18,0.05-0.28,0.07c-0.1,0.02-0.21,0.03-0.32,0.03
		c-0.33,0-0.59-0.09-0.77-0.28c-0.18-0.18-0.27-0.46-0.27-0.83v-1.93h-0.68v-0.58h0.68v-1.02h0.7v1.02h0.94V189.09z"/>
	<path class="st0" d="M237.7,189.05c0.08-0.17,0.23-0.33,0.43-0.45c0.21-0.12,0.44-0.19,0.69-0.19c0.23,0,0.43,0.04,0.59,0.12
		c0.17,0.08,0.3,0.18,0.41,0.31c0.11,0.13,0.19,0.28,0.24,0.46s0.08,0.36,0.08,0.56v2.2h-0.71v-1.97c0-0.15-0.01-0.28-0.03-0.41
		c-0.02-0.13-0.06-0.25-0.12-0.35c-0.06-0.1-0.14-0.18-0.24-0.24c-0.1-0.06-0.24-0.09-0.4-0.09c-0.28,0-0.51,0.11-0.69,0.32
		s-0.27,0.5-0.27,0.85v1.89h-0.71v-5.67h0.71v2.65H237.7z"/>
	<path class="st0" d="M247.8,191.24c-0.21,0.28-0.48,0.52-0.82,0.69c-0.33,0.18-0.74,0.27-1.21,0.27c-0.4,0-0.78-0.07-1.12-0.21
		c-0.34-0.14-0.64-0.33-0.88-0.58c-0.25-0.25-0.44-0.54-0.58-0.88c-0.14-0.34-0.21-0.72-0.21-1.13c0-0.42,0.07-0.79,0.21-1.14
		c0.14-0.34,0.34-0.63,0.59-0.88c0.25-0.24,0.55-0.43,0.9-0.57c0.34-0.13,0.72-0.2,1.12-0.2c0.18,0,0.36,0.02,0.55,0.05
		c0.18,0.04,0.36,0.09,0.53,0.16c0.17,0.07,0.32,0.16,0.46,0.26c0.14,0.1,0.26,0.22,0.36,0.36l-0.58,0.45
		c-0.13-0.18-0.31-0.33-0.55-0.45s-0.49-0.18-0.77-0.18c-0.31,0-0.59,0.06-0.84,0.17s-0.46,0.27-0.63,0.46
		c-0.17,0.2-0.31,0.42-0.4,0.68s-0.14,0.53-0.14,0.82c0,0.3,0.05,0.58,0.14,0.84c0.09,0.26,0.22,0.49,0.4,0.68
		c0.17,0.19,0.38,0.34,0.63,0.45c0.25,0.11,0.52,0.17,0.83,0.17c0.3,0,0.57-0.06,0.82-0.18c0.25-0.12,0.45-0.29,0.61-0.52
		L247.8,191.24z"/>
	<path class="st0" d="M252.03,190.28c0,0.27-0.05,0.53-0.15,0.76c-0.1,0.23-0.23,0.43-0.4,0.6c-0.17,0.17-0.38,0.3-0.61,0.39
		c-0.24,0.09-0.49,0.14-0.76,0.14c-0.27,0-0.52-0.05-0.76-0.14c-0.24-0.09-0.44-0.22-0.61-0.39c-0.17-0.17-0.3-0.37-0.4-0.6
		c-0.1-0.23-0.15-0.48-0.15-0.76c0-0.28,0.05-0.53,0.15-0.75c0.1-0.23,0.23-0.42,0.4-0.59s0.37-0.29,0.61-0.39
		c0.24-0.09,0.49-0.14,0.76-0.14c0.27,0,0.52,0.05,0.76,0.14c0.23,0.09,0.44,0.22,0.61,0.39c0.17,0.17,0.31,0.36,0.4,0.59
		C251.98,189.75,252.03,190,252.03,190.28z M251.29,190.28c0-0.17-0.03-0.33-0.08-0.49c-0.05-0.15-0.13-0.29-0.23-0.41
		c-0.1-0.12-0.22-0.21-0.37-0.28c-0.15-0.07-0.32-0.1-0.51-0.1c-0.19,0-0.36,0.04-0.51,0.1c-0.15,0.07-0.27,0.16-0.37,0.28
		c-0.1,0.12-0.18,0.25-0.23,0.41s-0.08,0.32-0.08,0.49c0,0.17,0.03,0.33,0.08,0.49s0.13,0.29,0.23,0.41
		c0.1,0.12,0.22,0.21,0.37,0.28c0.15,0.07,0.32,0.1,0.51,0.1c0.19,0,0.36-0.03,0.51-0.1c0.15-0.07,0.27-0.16,0.37-0.28
		c0.1-0.12,0.18-0.26,0.23-0.41C251.27,190.62,251.29,190.45,251.29,190.28z"/>
	<path class="st0" d="M256.6,190.28c0,0.27-0.05,0.53-0.15,0.76c-0.1,0.23-0.23,0.43-0.4,0.6c-0.17,0.17-0.38,0.3-0.61,0.39
		c-0.24,0.09-0.49,0.14-0.76,0.14c-0.27,0-0.52-0.05-0.76-0.14c-0.24-0.09-0.44-0.22-0.61-0.39c-0.17-0.17-0.3-0.37-0.4-0.6
		c-0.1-0.23-0.15-0.48-0.15-0.76c0-0.28,0.05-0.53,0.15-0.75c0.1-0.23,0.23-0.42,0.4-0.59s0.37-0.29,0.61-0.39
		c0.24-0.09,0.49-0.14,0.76-0.14c0.27,0,0.52,0.05,0.76,0.14c0.23,0.09,0.44,0.22,0.61,0.39c0.17,0.17,0.31,0.36,0.4,0.59
		C256.55,189.75,256.6,190,256.6,190.28z M255.87,190.28c0-0.17-0.03-0.33-0.08-0.49c-0.05-0.15-0.13-0.29-0.23-0.41
		c-0.1-0.12-0.22-0.21-0.37-0.28c-0.15-0.07-0.32-0.1-0.51-0.1c-0.19,0-0.36,0.04-0.51,0.1c-0.15,0.07-0.27,0.16-0.37,0.28
		c-0.1,0.12-0.18,0.25-0.23,0.41s-0.08,0.32-0.08,0.49c0,0.17,0.03,0.33,0.08,0.49s0.13,0.29,0.23,0.41
		c0.1,0.12,0.22,0.21,0.37,0.28c0.15,0.07,0.32,0.1,0.51,0.1c0.19,0,0.36-0.03,0.51-0.1c0.15-0.07,0.27-0.16,0.37-0.28
		c0.1-0.12,0.18-0.26,0.23-0.41C255.84,190.62,255.87,190.45,255.87,190.28z"/>
	<path class="st0" d="M258.3,192.06h-0.71v-5.67h0.71V192.06z"/>
	<path class="st0" d="M261.42,192.06h-0.74v-4.66h-1.7v-0.65h4.15v0.65h-1.7V192.06z"/>
	<path class="st0" d="M266.67,190.28c0,0.27-0.05,0.53-0.15,0.76c-0.1,0.23-0.23,0.43-0.4,0.6c-0.17,0.17-0.38,0.3-0.61,0.39
		c-0.24,0.09-0.49,0.14-0.76,0.14c-0.27,0-0.52-0.05-0.76-0.14c-0.24-0.09-0.44-0.22-0.61-0.39c-0.17-0.17-0.3-0.37-0.4-0.6
		c-0.1-0.23-0.15-0.48-0.15-0.76c0-0.28,0.05-0.53,0.15-0.75c0.1-0.23,0.23-0.42,0.4-0.59s0.37-0.29,0.61-0.39
		c0.24-0.09,0.49-0.14,0.76-0.14c0.27,0,0.52,0.05,0.76,0.14c0.23,0.09,0.44,0.22,0.61,0.39c0.17,0.17,0.31,0.36,0.4,0.59
		C266.62,189.75,266.67,190,266.67,190.28z M265.94,190.28c0-0.17-0.03-0.33-0.08-0.49c-0.05-0.15-0.13-0.29-0.23-0.41
		c-0.1-0.12-0.22-0.21-0.37-0.28c-0.15-0.07-0.32-0.1-0.51-0.1c-0.19,0-0.36,0.04-0.51,0.1c-0.15,0.07-0.27,0.16-0.37,0.28
		c-0.1,0.12-0.18,0.25-0.23,0.41s-0.08,0.32-0.08,0.49c0,0.17,0.03,0.33,0.08,0.49s0.13,0.29,0.23,0.41
		c0.1,0.12,0.22,0.21,0.37,0.28c0.15,0.07,0.32,0.1,0.51,0.1c0.19,0,0.36-0.03,0.51-0.1c0.15-0.07,0.27-0.16,0.37-0.28
		c0.1-0.12,0.18-0.26,0.23-0.41C265.91,190.62,265.94,190.45,265.94,190.28z"/>
	<path class="st0" d="M268.28,188.51c0.01,0.09,0.02,0.19,0.02,0.3s0.01,0.21,0.01,0.28h0.02c0.04-0.09,0.11-0.18,0.18-0.27
		c0.08-0.08,0.17-0.15,0.27-0.22c0.1-0.06,0.21-0.11,0.33-0.15c0.12-0.04,0.24-0.05,0.37-0.05c0.23,0,0.43,0.04,0.59,0.12
		c0.17,0.08,0.3,0.18,0.41,0.31s0.19,0.28,0.24,0.46c0.05,0.17,0.08,0.36,0.08,0.56v2.2h-0.7v-1.97c0-0.14-0.01-0.28-0.03-0.41
		s-0.06-0.25-0.12-0.34c-0.06-0.1-0.14-0.18-0.25-0.24c-0.1-0.06-0.24-0.09-0.41-0.09c-0.28,0-0.51,0.11-0.69,0.32
		c-0.18,0.21-0.27,0.5-0.27,0.85v1.89h-0.7v-2.79c0-0.09,0-0.22-0.01-0.37s-0.01-0.28-0.02-0.4H268.28z"/>
	<path class="st0" d="M275.33,190.26c0,0.04,0,0.08,0,0.12s0,0.08-0.01,0.12h-2.83c0,0.15,0.04,0.29,0.1,0.42
		c0.06,0.13,0.15,0.25,0.25,0.34c0.1,0.1,0.23,0.17,0.36,0.23c0.14,0.05,0.28,0.08,0.44,0.08c0.24,0,0.45-0.05,0.62-0.16
		c0.17-0.1,0.31-0.23,0.41-0.38l0.49,0.4c-0.19,0.25-0.41,0.44-0.67,0.56s-0.54,0.18-0.86,0.18c-0.27,0-0.52-0.04-0.75-0.13
		c-0.23-0.09-0.43-0.22-0.59-0.38s-0.29-0.36-0.39-0.59c-0.1-0.23-0.14-0.48-0.14-0.76c0-0.27,0.05-0.53,0.14-0.76
		s0.22-0.43,0.39-0.6c0.17-0.17,0.36-0.29,0.59-0.39c0.23-0.09,0.47-0.14,0.73-0.14c0.26,0,0.5,0.04,0.71,0.13s0.39,0.21,0.54,0.37
		c0.15,0.16,0.26,0.35,0.34,0.58S275.33,189.97,275.33,190.26z M274.61,189.97c0-0.14-0.03-0.27-0.07-0.39
		c-0.04-0.12-0.11-0.23-0.19-0.32c-0.08-0.09-0.19-0.16-0.31-0.21s-0.27-0.08-0.43-0.08c-0.15,0-0.29,0.03-0.42,0.08
		s-0.25,0.12-0.34,0.21s-0.18,0.2-0.24,0.32c-0.06,0.12-0.1,0.25-0.11,0.39H274.61z"/>
	<path class="st0" d="M276.24,188.37c0-0.23,0.04-0.46,0.13-0.66s0.21-0.39,0.37-0.54s0.34-0.27,0.54-0.36
		c0.21-0.09,0.43-0.13,0.66-0.13s0.46,0.04,0.66,0.13c0.21,0.09,0.39,0.21,0.54,0.36s0.28,0.33,0.37,0.54s0.13,0.43,0.13,0.66
		c0,0.24-0.04,0.46-0.13,0.66s-0.21,0.38-0.37,0.54s-0.34,0.27-0.54,0.36c-0.21,0.09-0.43,0.13-0.66,0.13s-0.46-0.04-0.66-0.13
		c-0.21-0.09-0.39-0.21-0.54-0.36s-0.28-0.33-0.37-0.54S276.24,188.6,276.24,188.37z M276.51,188.37c0,0.2,0.04,0.38,0.11,0.55
		c0.08,0.18,0.18,0.33,0.31,0.46c0.13,0.13,0.28,0.24,0.46,0.31s0.36,0.11,0.56,0.11s0.39-0.04,0.56-0.11s0.33-0.18,0.46-0.31
		c0.13-0.13,0.23-0.29,0.31-0.46c0.08-0.17,0.11-0.36,0.11-0.55c0-0.2-0.04-0.39-0.11-0.56c-0.08-0.17-0.18-0.33-0.31-0.46
		s-0.28-0.23-0.46-0.31c-0.17-0.07-0.36-0.11-0.56-0.11s-0.39,0.04-0.56,0.11c-0.17,0.08-0.33,0.18-0.46,0.31s-0.23,0.28-0.31,0.46
		C276.55,187.98,276.51,188.17,276.51,188.37z M278.36,189.31l-0.41-0.74h-0.27v0.74h-0.46v-1.92h0.83c0.09,0,0.18,0.01,0.26,0.03
		c0.08,0.02,0.16,0.05,0.23,0.1c0.07,0.04,0.13,0.11,0.17,0.18c0.04,0.08,0.06,0.17,0.06,0.29c0,0.13-0.04,0.24-0.11,0.32
		s-0.16,0.15-0.27,0.19l0.51,0.81H278.36z M278.03,188.23c0.07,0,0.13-0.02,0.19-0.07s0.09-0.11,0.09-0.18
		c0-0.08-0.03-0.14-0.1-0.17c-0.07-0.04-0.12-0.05-0.18-0.05h-0.35v0.47H278.03z"/>
	<path class="st0" d="M166.72,199.03c0,0.27-0.05,0.53-0.15,0.76c-0.1,0.23-0.23,0.43-0.4,0.6c-0.17,0.17-0.38,0.3-0.61,0.39
		c-0.24,0.09-0.49,0.14-0.76,0.14c-0.27,0-0.52-0.05-0.76-0.14c-0.24-0.09-0.44-0.22-0.61-0.39c-0.17-0.17-0.3-0.37-0.4-0.6
		c-0.1-0.23-0.15-0.48-0.15-0.76c0-0.28,0.05-0.53,0.15-0.75c0.1-0.23,0.23-0.42,0.4-0.59s0.37-0.29,0.61-0.39
		c0.24-0.09,0.49-0.14,0.76-0.14c0.27,0,0.52,0.05,0.76,0.14c0.23,0.09,0.44,0.22,0.61,0.39c0.17,0.17,0.31,0.36,0.4,0.59
		C166.68,198.5,166.72,198.75,166.72,199.03z M165.99,199.03c0-0.17-0.03-0.33-0.08-0.49c-0.05-0.15-0.13-0.29-0.23-0.41
		c-0.1-0.12-0.22-0.21-0.37-0.28c-0.15-0.07-0.32-0.1-0.51-0.1c-0.19,0-0.36,0.04-0.51,0.1c-0.15,0.07-0.27,0.16-0.37,0.28
		c-0.1,0.12-0.18,0.25-0.23,0.41s-0.08,0.32-0.08,0.49c0,0.17,0.03,0.33,0.08,0.49s0.13,0.29,0.23,0.41
		c0.1,0.12,0.22,0.21,0.37,0.28c0.15,0.07,0.32,0.1,0.51,0.1c0.19,0,0.36-0.03,0.51-0.1c0.15-0.07,0.27-0.16,0.37-0.28
		c0.1-0.12,0.18-0.26,0.23-0.41C165.96,199.36,165.99,199.2,165.99,199.03z"/>
	<path class="st0" d="M168.34,197.26c0.01,0.09,0.02,0.19,0.02,0.3s0.01,0.21,0.01,0.28h0.02c0.04-0.09,0.11-0.18,0.18-0.27
		c0.08-0.08,0.17-0.15,0.27-0.22c0.1-0.06,0.21-0.11,0.33-0.15c0.12-0.04,0.24-0.05,0.37-0.05c0.23,0,0.43,0.04,0.59,0.12
		c0.17,0.08,0.3,0.18,0.41,0.31s0.19,0.28,0.24,0.46c0.05,0.17,0.08,0.36,0.08,0.56v2.2h-0.7v-1.97c0-0.14-0.01-0.28-0.03-0.41
		s-0.06-0.25-0.12-0.34c-0.06-0.1-0.14-0.18-0.25-0.24c-0.1-0.06-0.24-0.09-0.41-0.09c-0.28,0-0.51,0.11-0.69,0.32
		c-0.18,0.21-0.27,0.5-0.27,0.85v1.89h-0.7v-2.79c0-0.09,0-0.22-0.01-0.37s-0.01-0.28-0.02-0.4H168.34z"/>
	<path class="st0" d="M174.67,197.8c0.08-0.17,0.23-0.33,0.43-0.45c0.21-0.12,0.44-0.19,0.69-0.19c0.23,0,0.43,0.04,0.59,0.12
		c0.17,0.08,0.3,0.18,0.41,0.31c0.11,0.13,0.19,0.28,0.24,0.46s0.08,0.36,0.08,0.56v2.2h-0.71v-1.97c0-0.15-0.01-0.28-0.03-0.41
		c-0.02-0.13-0.06-0.25-0.12-0.35c-0.06-0.1-0.14-0.18-0.24-0.24c-0.1-0.06-0.24-0.09-0.4-0.09c-0.28,0-0.51,0.11-0.69,0.32
		s-0.27,0.5-0.27,0.85v1.89h-0.71v-5.67h0.71v2.65H174.67z"/>
	<path class="st0" d="M179.14,195.97c0,0.13-0.05,0.24-0.14,0.32c-0.09,0.09-0.2,0.13-0.33,0.13c-0.13,0-0.24-0.04-0.33-0.13
		c-0.09-0.09-0.13-0.19-0.13-0.32c0-0.13,0.04-0.24,0.13-0.33c0.09-0.09,0.2-0.13,0.33-0.13c0.13,0,0.24,0.04,0.33,0.13
		C179.09,195.74,179.14,195.84,179.14,195.97z M179.03,200.81h-0.7v-3.55h0.7V200.81z"/>
	<path class="st0" d="M182.17,198.16c-0.08-0.13-0.19-0.24-0.34-0.32c-0.15-0.08-0.31-0.12-0.49-0.12c-0.08,0-0.16,0.01-0.24,0.03
		s-0.15,0.04-0.21,0.08c-0.06,0.04-0.11,0.08-0.15,0.14c-0.04,0.06-0.06,0.13-0.06,0.21c0,0.15,0.07,0.26,0.2,0.33
		c0.14,0.07,0.34,0.14,0.61,0.2c0.17,0.04,0.33,0.09,0.47,0.14c0.14,0.06,0.27,0.12,0.38,0.21c0.11,0.08,0.19,0.18,0.25,0.3
		c0.06,0.11,0.09,0.25,0.09,0.4c0,0.21-0.04,0.39-0.12,0.53c-0.08,0.15-0.19,0.26-0.32,0.36c-0.13,0.09-0.28,0.16-0.45,0.2
		s-0.34,0.06-0.52,0.06c-0.27,0-0.53-0.05-0.79-0.16c-0.26-0.11-0.47-0.27-0.64-0.48l0.5-0.43c0.09,0.14,0.23,0.26,0.39,0.35
		c0.17,0.1,0.35,0.14,0.55,0.14c0.09,0,0.18-0.01,0.26-0.03c0.08-0.02,0.16-0.05,0.22-0.09c0.07-0.04,0.12-0.09,0.16-0.16
		c0.04-0.06,0.06-0.15,0.06-0.25c0-0.17-0.08-0.29-0.24-0.37c-0.16-0.08-0.39-0.15-0.69-0.22c-0.12-0.03-0.24-0.07-0.36-0.11
		c-0.12-0.04-0.23-0.1-0.33-0.18c-0.1-0.07-0.18-0.17-0.24-0.28c-0.06-0.11-0.09-0.25-0.09-0.42c0-0.19,0.04-0.35,0.12-0.49
		c0.08-0.14,0.18-0.25,0.3-0.34c0.12-0.09,0.27-0.15,0.43-0.19c0.16-0.04,0.33-0.06,0.5-0.06c0.25,0,0.5,0.05,0.74,0.15
		s0.42,0.25,0.55,0.43L182.17,198.16z"/>
	<path class="st0" d="M187.67,198.51c0-0.26-0.08-0.46-0.24-0.59c-0.16-0.13-0.37-0.19-0.64-0.19c-0.2,0-0.39,0.04-0.57,0.12
		c-0.18,0.08-0.33,0.18-0.45,0.3l-0.38-0.45c0.17-0.17,0.39-0.29,0.64-0.39c0.25-0.09,0.52-0.14,0.81-0.14
		c0.25,0,0.48,0.04,0.66,0.11c0.19,0.07,0.34,0.17,0.46,0.3s0.21,0.27,0.27,0.44c0.06,0.17,0.09,0.35,0.09,0.55v1.55
		c0,0.12,0,0.25,0.01,0.38c0.01,0.13,0.02,0.24,0.04,0.33h-0.64c-0.04-0.17-0.06-0.34-0.06-0.51h-0.02
		c-0.13,0.19-0.29,0.34-0.49,0.44c-0.2,0.1-0.43,0.16-0.7,0.16c-0.14,0-0.29-0.02-0.44-0.06c-0.15-0.04-0.29-0.1-0.42-0.18
		c-0.12-0.08-0.23-0.2-0.31-0.34c-0.08-0.14-0.12-0.31-0.12-0.52c0-0.27,0.07-0.48,0.22-0.64c0.14-0.16,0.33-0.28,0.57-0.36
		c0.24-0.08,0.5-0.14,0.79-0.16c0.29-0.02,0.59-0.04,0.89-0.04V198.51z M187.5,199.12c-0.17,0-0.36,0.01-0.54,0.02
		s-0.36,0.04-0.51,0.09s-0.28,0.11-0.38,0.2c-0.1,0.09-0.15,0.21-0.15,0.36c0,0.1,0.02,0.19,0.06,0.26c0.04,0.07,0.1,0.13,0.17,0.17
		s0.15,0.08,0.23,0.09s0.17,0.03,0.26,0.03c0.33,0,0.58-0.1,0.76-0.3s0.27-0.45,0.27-0.75v-0.19H187.5z"/>
	<path class="st0" d="M190.22,200.25v0.56h-0.68v-5.67h0.71v2.65h0.02c0.12-0.17,0.29-0.32,0.5-0.45c0.21-0.12,0.47-0.18,0.76-0.18
		c0.26,0,0.5,0.05,0.72,0.14s0.4,0.23,0.56,0.4c0.16,0.17,0.28,0.37,0.36,0.6c0.08,0.23,0.13,0.47,0.13,0.73s-0.04,0.5-0.13,0.73
		c-0.08,0.23-0.21,0.43-0.36,0.6s-0.34,0.3-0.56,0.4c-0.22,0.1-0.47,0.15-0.74,0.15c-0.25,0-0.5-0.06-0.73-0.17
		s-0.41-0.28-0.55-0.49H190.22z M192.58,199.03c0-0.17-0.03-0.32-0.08-0.48s-0.12-0.29-0.22-0.41c-0.1-0.12-0.22-0.21-0.37-0.28
		c-0.15-0.07-0.32-0.1-0.51-0.1c-0.18,0-0.34,0.04-0.49,0.1c-0.15,0.07-0.27,0.16-0.38,0.28c-0.11,0.12-0.19,0.26-0.24,0.41
		s-0.09,0.32-0.09,0.49c0,0.17,0.03,0.33,0.09,0.49s0.14,0.29,0.24,0.41c0.1,0.12,0.23,0.21,0.38,0.28c0.15,0.07,0.31,0.1,0.49,0.1
		c0.2,0,0.37-0.04,0.51-0.11s0.27-0.17,0.37-0.29c0.1-0.12,0.17-0.26,0.22-0.41S192.58,199.19,192.58,199.03z"/>
	<path class="st0" d="M197.12,200.25c-0.13,0.21-0.32,0.38-0.55,0.49s-0.48,0.17-0.73,0.17c-0.28,0-0.52-0.05-0.74-0.15
		s-0.41-0.23-0.56-0.4s-0.27-0.37-0.36-0.6c-0.08-0.23-0.13-0.47-0.13-0.73s0.04-0.5,0.13-0.73c0.08-0.23,0.21-0.43,0.36-0.6
		s0.35-0.3,0.57-0.4c0.22-0.09,0.46-0.14,0.73-0.14c0.29,0,0.54,0.06,0.76,0.18c0.21,0.12,0.38,0.27,0.51,0.45h0.01v-2.65h0.71v5.67
		h-0.68v-0.56H197.12z M194.78,199.03c0,0.16,0.02,0.32,0.07,0.48s0.12,0.29,0.23,0.41c0.1,0.12,0.22,0.21,0.37,0.29
		c0.14,0.07,0.31,0.11,0.51,0.11c0.18,0,0.34-0.03,0.49-0.1c0.15-0.07,0.27-0.16,0.38-0.28c0.11-0.12,0.19-0.25,0.24-0.41
		s0.09-0.32,0.09-0.49c0-0.17-0.03-0.33-0.09-0.49s-0.14-0.29-0.24-0.41c-0.1-0.12-0.23-0.21-0.38-0.28
		c-0.15-0.07-0.31-0.1-0.49-0.1c-0.2,0-0.37,0.04-0.51,0.1c-0.15,0.07-0.27,0.16-0.37,0.28c-0.1,0.12-0.18,0.26-0.23,0.41
		S194.78,198.87,194.78,199.03z"/>
	<path class="st0" d="M202.65,199.03c0,0.27-0.05,0.53-0.15,0.76c-0.1,0.23-0.23,0.43-0.4,0.6c-0.17,0.17-0.38,0.3-0.61,0.39
		c-0.24,0.09-0.49,0.14-0.76,0.14c-0.27,0-0.52-0.05-0.76-0.14c-0.24-0.09-0.44-0.22-0.61-0.39c-0.17-0.17-0.3-0.37-0.4-0.6
		c-0.1-0.23-0.15-0.48-0.15-0.76c0-0.28,0.05-0.53,0.15-0.75c0.1-0.23,0.23-0.42,0.4-0.59s0.37-0.29,0.61-0.39
		c0.24-0.09,0.49-0.14,0.76-0.14c0.27,0,0.52,0.05,0.76,0.14c0.23,0.09,0.44,0.22,0.61,0.39c0.17,0.17,0.31,0.36,0.4,0.59
		C202.6,198.5,202.65,198.75,202.65,199.03z M201.91,199.03c0-0.17-0.03-0.33-0.08-0.49c-0.05-0.15-0.13-0.29-0.23-0.41
		c-0.1-0.12-0.22-0.21-0.37-0.28c-0.15-0.07-0.32-0.1-0.51-0.1c-0.19,0-0.36,0.04-0.51,0.1c-0.15,0.07-0.27,0.16-0.37,0.28
		c-0.1,0.12-0.18,0.25-0.23,0.41s-0.08,0.32-0.08,0.49c0,0.17,0.03,0.33,0.08,0.49s0.13,0.29,0.23,0.41
		c0.1,0.12,0.22,0.21,0.37,0.28c0.15,0.07,0.32,0.1,0.51,0.1c0.19,0,0.36-0.03,0.51-0.1c0.15-0.07,0.27-0.16,0.37-0.28
		c0.1-0.12,0.18-0.26,0.23-0.41C201.89,199.36,201.91,199.2,201.91,199.03z"/>
	<path class="st0" d="M204.74,197.36c0.2-0.13,0.43-0.2,0.7-0.2c0.24,0,0.46,0.06,0.65,0.17c0.19,0.11,0.34,0.29,0.45,0.55
		c0.12-0.23,0.29-0.41,0.5-0.53c0.21-0.12,0.45-0.18,0.71-0.18c0.23,0,0.43,0.04,0.59,0.12c0.17,0.08,0.3,0.18,0.41,0.31
		c0.11,0.13,0.19,0.28,0.24,0.46s0.08,0.36,0.08,0.56v2.2h-0.71v-1.97c0-0.14-0.01-0.28-0.04-0.41c-0.03-0.13-0.07-0.25-0.13-0.34
		c-0.06-0.1-0.14-0.18-0.24-0.24c-0.1-0.06-0.23-0.09-0.38-0.09c-0.16,0-0.3,0.03-0.41,0.1c-0.12,0.07-0.21,0.16-0.28,0.26
		s-0.12,0.23-0.16,0.36c-0.03,0.14-0.05,0.27-0.05,0.41v1.92h-0.71v-2.11c0-0.14-0.01-0.27-0.04-0.38c-0.03-0.12-0.07-0.21-0.13-0.3
		c-0.06-0.08-0.14-0.15-0.23-0.19c-0.09-0.05-0.21-0.07-0.35-0.07c-0.26,0-0.48,0.11-0.65,0.32c-0.17,0.21-0.26,0.5-0.26,0.85v1.89
		h-0.7v-2.79c0-0.09,0-0.22-0.01-0.37s-0.01-0.28-0.02-0.4h0.67c0.01,0.09,0.02,0.19,0.02,0.3s0.01,0.21,0.01,0.28h0.02
		C204.4,197.65,204.55,197.49,204.74,197.36z"/>
	<path class="st0" d="M213.59,199c0,0.04,0,0.08,0,0.12s0,0.08-0.01,0.12h-2.83c0,0.15,0.04,0.29,0.1,0.42
		c0.06,0.13,0.15,0.25,0.25,0.34c0.1,0.1,0.23,0.17,0.36,0.23c0.14,0.05,0.28,0.08,0.44,0.08c0.24,0,0.45-0.05,0.62-0.16
		c0.17-0.1,0.31-0.23,0.41-0.38l0.49,0.4c-0.19,0.25-0.41,0.44-0.67,0.56s-0.54,0.18-0.86,0.18c-0.27,0-0.52-0.04-0.75-0.13
		c-0.23-0.09-0.43-0.22-0.59-0.38s-0.29-0.36-0.39-0.59c-0.1-0.23-0.14-0.48-0.14-0.76c0-0.27,0.05-0.53,0.14-0.76
		s0.22-0.43,0.39-0.6c0.17-0.17,0.36-0.29,0.59-0.39c0.23-0.09,0.47-0.14,0.73-0.14c0.26,0,0.5,0.04,0.71,0.13s0.39,0.21,0.54,0.37
		c0.15,0.16,0.26,0.35,0.34,0.58S213.59,198.72,213.59,199z M212.87,198.72c0-0.14-0.03-0.27-0.07-0.39
		c-0.04-0.12-0.11-0.23-0.19-0.32c-0.08-0.09-0.19-0.16-0.31-0.21s-0.27-0.08-0.43-0.08c-0.15,0-0.29,0.03-0.42,0.08
		s-0.25,0.12-0.34,0.21s-0.18,0.2-0.24,0.32c-0.06,0.12-0.1,0.25-0.11,0.39H212.87z"/>
	<path class="st0" d="M215.21,197.26c0.01,0.09,0.02,0.19,0.02,0.3s0.01,0.21,0.01,0.28h0.02c0.04-0.09,0.11-0.18,0.18-0.27
		c0.08-0.08,0.17-0.15,0.27-0.22c0.1-0.06,0.21-0.11,0.33-0.15c0.12-0.04,0.24-0.05,0.37-0.05c0.23,0,0.43,0.04,0.59,0.12
		c0.17,0.08,0.3,0.18,0.41,0.31s0.19,0.28,0.24,0.46c0.05,0.17,0.08,0.36,0.08,0.56v2.2h-0.7v-1.97c0-0.14-0.01-0.28-0.03-0.41
		s-0.06-0.25-0.12-0.34c-0.06-0.1-0.14-0.18-0.25-0.24c-0.1-0.06-0.24-0.09-0.41-0.09c-0.28,0-0.51,0.11-0.69,0.32
		c-0.18,0.21-0.27,0.5-0.27,0.85v1.89h-0.7v-2.79c0-0.09,0-0.22-0.01-0.37s-0.01-0.28-0.02-0.4H215.21z"/>
	<path class="st0" d="M219.8,200.36c0,0.13-0.05,0.25-0.14,0.35c-0.1,0.1-0.22,0.15-0.36,0.15c-0.14,0-0.26-0.05-0.36-0.15
		c-0.1-0.1-0.15-0.21-0.15-0.34c0-0.13,0.05-0.25,0.14-0.35c0.09-0.1,0.21-0.15,0.36-0.15s0.26,0.05,0.36,0.14
		C219.75,200.11,219.8,200.23,219.8,200.36z"/>
	<path class="st0" d="M223.31,200.81h-0.74v-5.31h1.7c0.25,0,0.5,0.03,0.73,0.08c0.23,0.05,0.43,0.14,0.6,0.25
		c0.17,0.12,0.31,0.27,0.41,0.45s0.15,0.42,0.15,0.69c0,0.39-0.12,0.71-0.36,0.95c-0.24,0.24-0.55,0.39-0.93,0.46l1.48,2.44h-0.9
		l-1.35-2.36h-0.79V200.81z M223.31,197.83h0.85c0.18,0,0.34-0.02,0.49-0.05c0.15-0.03,0.28-0.08,0.39-0.15
		c0.11-0.07,0.2-0.16,0.27-0.26c0.06-0.11,0.1-0.24,0.1-0.4c0-0.16-0.03-0.29-0.1-0.4c-0.07-0.11-0.15-0.19-0.26-0.26
		c-0.11-0.07-0.23-0.11-0.38-0.14c-0.14-0.03-0.3-0.04-0.46-0.04h-0.91V197.83z"/>
	<path class="st0" d="M230.37,199c0,0.04,0,0.08,0,0.12s0,0.08-0.01,0.12h-2.83c0,0.15,0.04,0.29,0.1,0.42
		c0.06,0.13,0.15,0.25,0.25,0.34c0.1,0.1,0.23,0.17,0.36,0.23c0.14,0.05,0.28,0.08,0.44,0.08c0.24,0,0.45-0.05,0.62-0.16
		c0.17-0.1,0.31-0.23,0.41-0.38l0.49,0.4c-0.19,0.25-0.41,0.44-0.67,0.56s-0.54,0.18-0.86,0.18c-0.27,0-0.52-0.04-0.75-0.13
		c-0.23-0.09-0.43-0.22-0.59-0.38s-0.29-0.36-0.39-0.59c-0.1-0.23-0.14-0.48-0.14-0.76c0-0.27,0.05-0.53,0.14-0.76
		s0.22-0.43,0.39-0.6c0.17-0.17,0.36-0.29,0.59-0.39c0.23-0.09,0.47-0.14,0.73-0.14c0.26,0,0.5,0.04,0.71,0.13s0.39,0.21,0.54,0.37
		c0.15,0.16,0.26,0.35,0.34,0.58S230.37,198.72,230.37,199z M229.65,198.72c0-0.14-0.03-0.27-0.07-0.39
		c-0.04-0.12-0.11-0.23-0.19-0.32c-0.08-0.09-0.19-0.16-0.31-0.21s-0.27-0.08-0.43-0.08c-0.15,0-0.29,0.03-0.42,0.08
		s-0.25,0.12-0.34,0.21s-0.18,0.2-0.24,0.32c-0.06,0.12-0.1,0.25-0.11,0.39H229.65z"/>
	<path class="st0" d="M233.26,198.16c-0.08-0.13-0.19-0.24-0.34-0.32c-0.15-0.08-0.31-0.12-0.49-0.12c-0.08,0-0.16,0.01-0.24,0.03
		s-0.15,0.04-0.21,0.08c-0.06,0.04-0.11,0.08-0.15,0.14c-0.04,0.06-0.06,0.13-0.06,0.21c0,0.15,0.07,0.26,0.2,0.33
		c0.14,0.07,0.34,0.14,0.61,0.2c0.17,0.04,0.33,0.09,0.47,0.14c0.14,0.06,0.27,0.12,0.38,0.21c0.11,0.08,0.19,0.18,0.25,0.3
		c0.06,0.11,0.09,0.25,0.09,0.4c0,0.21-0.04,0.39-0.12,0.53c-0.08,0.15-0.19,0.26-0.32,0.36c-0.13,0.09-0.28,0.16-0.45,0.2
		s-0.34,0.06-0.52,0.06c-0.27,0-0.53-0.05-0.79-0.16c-0.26-0.11-0.47-0.27-0.64-0.48l0.5-0.43c0.09,0.14,0.23,0.26,0.39,0.35
		c0.17,0.1,0.35,0.14,0.55,0.14c0.09,0,0.18-0.01,0.26-0.03c0.08-0.02,0.16-0.05,0.22-0.09c0.07-0.04,0.12-0.09,0.16-0.16
		c0.04-0.06,0.06-0.15,0.06-0.25c0-0.17-0.08-0.29-0.24-0.37c-0.16-0.08-0.39-0.15-0.69-0.22c-0.12-0.03-0.24-0.07-0.36-0.11
		c-0.12-0.04-0.23-0.1-0.33-0.18c-0.1-0.07-0.18-0.17-0.24-0.28c-0.06-0.11-0.09-0.25-0.09-0.42c0-0.19,0.04-0.35,0.12-0.49
		c0.08-0.14,0.18-0.25,0.3-0.34c0.12-0.09,0.27-0.15,0.43-0.19c0.16-0.04,0.33-0.06,0.5-0.06c0.25,0,0.5,0.05,0.74,0.15
		s0.42,0.25,0.55,0.43L233.26,198.16z"/>
	<path class="st0" d="M237.17,200.81c-0.01-0.09-0.02-0.19-0.02-0.3s-0.01-0.21-0.01-0.28h-0.01c-0.09,0.19-0.24,0.35-0.45,0.48
		c-0.21,0.13-0.45,0.2-0.71,0.2c-0.23,0-0.43-0.04-0.6-0.11c-0.17-0.08-0.31-0.18-0.41-0.31c-0.11-0.13-0.19-0.29-0.24-0.46
		c-0.05-0.17-0.08-0.36-0.08-0.56v-2.2h0.71v1.96c0,0.15,0.01,0.28,0.03,0.42c0.02,0.13,0.06,0.25,0.12,0.35
		c0.06,0.1,0.14,0.18,0.25,0.24c0.11,0.06,0.24,0.09,0.41,0.09c0.29,0,0.51-0.11,0.69-0.32c0.17-0.21,0.26-0.5,0.26-0.85v-1.89h0.71
		v2.79c0,0.09,0,0.22,0.01,0.37c0,0.15,0.01,0.28,0.02,0.4H237.17z"/>
	<path class="st0" d="M239.75,200.81h-0.71v-5.67h0.71V200.81z"/>
	<path class="st0" d="M242.72,197.83h-0.94v1.85c0,0.21,0.04,0.37,0.12,0.46c0.08,0.09,0.21,0.14,0.38,0.14
		c0.06,0,0.13-0.01,0.21-0.02s0.14-0.03,0.2-0.06l0.02,0.58c-0.08,0.03-0.18,0.05-0.28,0.07c-0.1,0.02-0.21,0.03-0.32,0.03
		c-0.33,0-0.59-0.09-0.77-0.28c-0.18-0.18-0.27-0.46-0.27-0.83v-1.93h-0.68v-0.58h0.68v-1.02h0.7v1.02h0.94V197.83z"/>
	<path class="st0" d="M245.37,198.16c-0.08-0.13-0.19-0.24-0.34-0.32c-0.15-0.08-0.31-0.12-0.49-0.12c-0.08,0-0.16,0.01-0.24,0.03
		s-0.15,0.04-0.21,0.08c-0.06,0.04-0.11,0.08-0.15,0.14c-0.04,0.06-0.06,0.13-0.06,0.21c0,0.15,0.07,0.26,0.2,0.33
		c0.14,0.07,0.34,0.14,0.61,0.2c0.17,0.04,0.33,0.09,0.47,0.14c0.14,0.06,0.27,0.12,0.38,0.21c0.11,0.08,0.19,0.18,0.25,0.3
		c0.06,0.11,0.09,0.25,0.09,0.4c0,0.21-0.04,0.39-0.12,0.53c-0.08,0.15-0.19,0.26-0.32,0.36c-0.13,0.09-0.28,0.16-0.45,0.2
		s-0.34,0.06-0.52,0.06c-0.27,0-0.53-0.05-0.79-0.16c-0.26-0.11-0.47-0.27-0.64-0.48l0.5-0.43c0.09,0.14,0.23,0.26,0.39,0.35
		c0.17,0.1,0.35,0.14,0.55,0.14c0.09,0,0.18-0.01,0.26-0.03c0.08-0.02,0.16-0.05,0.22-0.09c0.07-0.04,0.12-0.09,0.16-0.16
		c0.04-0.06,0.06-0.15,0.06-0.25c0-0.17-0.08-0.29-0.24-0.37c-0.16-0.08-0.39-0.15-0.69-0.22c-0.12-0.03-0.24-0.07-0.36-0.11
		c-0.12-0.04-0.23-0.1-0.33-0.18c-0.1-0.07-0.18-0.17-0.24-0.28c-0.06-0.11-0.09-0.25-0.09-0.42c0-0.19,0.04-0.35,0.12-0.49
		c0.08-0.14,0.18-0.25,0.3-0.34c0.12-0.09,0.27-0.15,0.43-0.19c0.16-0.04,0.33-0.06,0.5-0.06c0.25,0,0.5,0.05,0.74,0.15
		s0.42,0.25,0.55,0.43L245.37,198.16z"/>
	<path class="st0" d="M249.77,197.36c0.2-0.13,0.43-0.2,0.7-0.2c0.24,0,0.46,0.06,0.65,0.17c0.19,0.11,0.34,0.29,0.45,0.55
		c0.12-0.23,0.29-0.41,0.5-0.53c0.21-0.12,0.45-0.18,0.71-0.18c0.23,0,0.43,0.04,0.59,0.12c0.17,0.08,0.3,0.18,0.41,0.31
		c0.11,0.13,0.19,0.28,0.24,0.46s0.08,0.36,0.08,0.56v2.2h-0.71v-1.97c0-0.14-0.01-0.28-0.04-0.41c-0.03-0.13-0.07-0.25-0.13-0.34
		c-0.06-0.1-0.14-0.18-0.24-0.24c-0.1-0.06-0.23-0.09-0.38-0.09c-0.16,0-0.3,0.03-0.41,0.1c-0.12,0.07-0.21,0.16-0.28,0.26
		s-0.12,0.23-0.16,0.36c-0.03,0.14-0.05,0.27-0.05,0.41v1.92h-0.71v-2.11c0-0.14-0.01-0.27-0.04-0.38c-0.03-0.12-0.07-0.21-0.13-0.3
		c-0.06-0.08-0.14-0.15-0.23-0.19c-0.09-0.05-0.21-0.07-0.35-0.07c-0.26,0-0.48,0.11-0.65,0.32c-0.17,0.21-0.26,0.5-0.26,0.85v1.89
		h-0.7v-2.79c0-0.09,0-0.22-0.01-0.37s-0.01-0.28-0.02-0.4h0.67c0.01,0.09,0.02,0.19,0.02,0.3s0.01,0.21,0.01,0.28h0.02
		C249.43,197.65,249.57,197.49,249.77,197.36z"/>
	<path class="st0" d="M257.51,198.51c0-0.26-0.08-0.46-0.24-0.59c-0.16-0.13-0.37-0.19-0.64-0.19c-0.2,0-0.39,0.04-0.57,0.12
		c-0.18,0.08-0.33,0.18-0.45,0.3l-0.38-0.45c0.17-0.17,0.39-0.29,0.64-0.39c0.25-0.09,0.52-0.14,0.81-0.14
		c0.25,0,0.48,0.04,0.66,0.11c0.19,0.07,0.34,0.17,0.46,0.3s0.21,0.27,0.27,0.44c0.06,0.17,0.09,0.35,0.09,0.55v1.55
		c0,0.12,0,0.25,0.01,0.38c0.01,0.13,0.02,0.24,0.04,0.33h-0.64c-0.04-0.17-0.06-0.34-0.06-0.51h-0.02
		c-0.13,0.19-0.29,0.34-0.49,0.44c-0.2,0.1-0.43,0.16-0.7,0.16c-0.14,0-0.29-0.02-0.44-0.06c-0.15-0.04-0.29-0.1-0.42-0.18
		c-0.12-0.08-0.23-0.2-0.31-0.34c-0.08-0.14-0.12-0.31-0.12-0.52c0-0.27,0.07-0.48,0.22-0.64c0.14-0.16,0.33-0.28,0.57-0.36
		c0.24-0.08,0.5-0.14,0.79-0.16c0.29-0.02,0.59-0.04,0.89-0.04V198.51z M257.34,199.12c-0.17,0-0.36,0.01-0.54,0.02
		s-0.36,0.04-0.51,0.09s-0.28,0.11-0.38,0.2c-0.1,0.09-0.15,0.21-0.15,0.36c0,0.1,0.02,0.19,0.06,0.26c0.04,0.07,0.1,0.13,0.17,0.17
		s0.15,0.08,0.23,0.09s0.17,0.03,0.26,0.03c0.33,0,0.58-0.1,0.76-0.3s0.27-0.45,0.27-0.75v-0.19H257.34z"/>
	<path class="st0" d="M260.71,200.05h0.01l0.98-2.79h0.75l-1.72,4.39c-0.06,0.15-0.12,0.28-0.2,0.4c-0.07,0.12-0.15,0.22-0.25,0.3
		c-0.09,0.08-0.21,0.15-0.33,0.19c-0.13,0.04-0.28,0.07-0.45,0.07c-0.08,0-0.15,0-0.23-0.01c-0.08-0.01-0.16-0.02-0.24-0.04
		l0.07-0.62c0.12,0.04,0.24,0.06,0.35,0.06c0.18,0,0.32-0.05,0.41-0.15c0.09-0.1,0.17-0.25,0.25-0.44l0.23-0.59l-1.52-3.55h0.79
		L260.71,200.05z"/>
	<path class="st0" d="M266.69,200.81h-0.76l-1.45-3.55h0.78l1.04,2.8h0.01l1.05-2.8h0.75L266.69,200.81z"/>
	<path class="st0" d="M271,198.51c0-0.26-0.08-0.46-0.24-0.59c-0.16-0.13-0.37-0.19-0.64-0.19c-0.2,0-0.39,0.04-0.57,0.12
		c-0.18,0.08-0.33,0.18-0.45,0.3l-0.38-0.45c0.17-0.17,0.39-0.29,0.64-0.39c0.25-0.09,0.52-0.14,0.81-0.14
		c0.25,0,0.48,0.04,0.66,0.11c0.19,0.07,0.34,0.17,0.46,0.3s0.21,0.27,0.27,0.44c0.06,0.17,0.09,0.35,0.09,0.55v1.55
		c0,0.12,0,0.25,0.01,0.38c0.01,0.13,0.02,0.24,0.04,0.33h-0.64c-0.04-0.17-0.06-0.34-0.06-0.51h-0.02
		c-0.13,0.19-0.29,0.34-0.49,0.44c-0.2,0.1-0.43,0.16-0.7,0.16c-0.14,0-0.29-0.02-0.44-0.06c-0.15-0.04-0.29-0.1-0.42-0.18
		c-0.12-0.08-0.23-0.2-0.31-0.34c-0.08-0.14-0.12-0.31-0.12-0.52c0-0.27,0.07-0.48,0.22-0.64c0.14-0.16,0.33-0.28,0.57-0.36
		c0.24-0.08,0.5-0.14,0.79-0.16c0.29-0.02,0.59-0.04,0.89-0.04V198.51z M270.83,199.12c-0.17,0-0.36,0.01-0.54,0.02
		s-0.36,0.04-0.51,0.09s-0.28,0.11-0.38,0.2c-0.1,0.09-0.15,0.21-0.15,0.36c0,0.1,0.02,0.19,0.06,0.26c0.04,0.07,0.1,0.13,0.17,0.17
		s0.15,0.08,0.23,0.09s0.17,0.03,0.26,0.03c0.33,0,0.58-0.1,0.76-0.3s0.27-0.45,0.27-0.75v-0.19H270.83z"/>
	<path class="st0" d="M272.85,197.65c0-0.15-0.01-0.28-0.02-0.4h0.67c0.01,0.09,0.02,0.19,0.02,0.31s0.01,0.21,0.01,0.29h0.02
		c0.1-0.21,0.25-0.38,0.44-0.51c0.19-0.13,0.41-0.19,0.65-0.19c0.11,0,0.2,0.01,0.28,0.03l-0.03,0.65c-0.1-0.03-0.21-0.04-0.32-0.04
		c-0.17,0-0.32,0.03-0.44,0.09c-0.12,0.06-0.23,0.15-0.31,0.25c-0.08,0.1-0.14,0.23-0.18,0.36s-0.06,0.28-0.06,0.43v1.87h-0.7v-2.79
		C272.86,197.93,272.85,197.8,272.85,197.65z"/>
	<path class="st0" d="M276.92,200.05h0.01l0.98-2.79h0.75l-1.72,4.39c-0.06,0.15-0.12,0.28-0.2,0.4c-0.07,0.12-0.15,0.22-0.25,0.3
		c-0.09,0.08-0.21,0.15-0.33,0.19c-0.13,0.04-0.28,0.07-0.45,0.07c-0.08,0-0.15,0-0.23-0.01c-0.08-0.01-0.16-0.02-0.24-0.04
		l0.07-0.62c0.12,0.04,0.24,0.06,0.35,0.06c0.18,0,0.32-0.05,0.41-0.15c0.09-0.1,0.17-0.25,0.25-0.44l0.23-0.59l-1.52-3.55h0.79
		L276.92,200.05z"/>
	<path class="st0" d="M279.95,200.36c0,0.13-0.05,0.25-0.14,0.35c-0.1,0.1-0.22,0.15-0.36,0.15c-0.14,0-0.26-0.05-0.36-0.15
		c-0.1-0.1-0.15-0.21-0.15-0.34c0-0.13,0.05-0.25,0.14-0.35c0.09-0.1,0.21-0.15,0.36-0.15s0.26,0.05,0.36,0.14
		C279.9,200.11,279.95,200.23,279.95,200.36z"/>
</g>
</svg>
