<?xml version="1.0" encoding="utf-8"?>
<!-- Generator: Adobe Illustrator 25.2.1, SVG Export Plug-In . SVG Version: 6.00 Build 0)  -->
<svg version="1.1" id="Layer_1" xmlns="http://www.w3.org/2000/svg" xmlns:xlink="http://www.w3.org/1999/xlink" x="0px" y="0px"
	 viewBox="0 0 300 250" style="enable-background:new 0 0 300 250;" xml:space="preserve">
<style type="text/css">
	.st0{fill:#FFFFFF;}
</style>
<g>
	<g>
		<g>
			<g>
				<path class="st0" d="M227.81,47.71c-1.74,0-2.58-1.26-2.58-2.48c0-1.4,1.02-2.53,2.61-2.53c0.54,0,1.1,0.17,1.55,0.54
					l-0.49,0.69c-0.31-0.24-0.63-0.32-1.03-0.32c-0.85,0-1.48,0.59-1.48,1.6c0,0.92,0.58,1.66,1.51,1.66c0.39,0,0.74-0.12,1.04-0.38
					l0.45,0.69C228.96,47.53,228.37,47.71,227.81,47.71"/>
				<path class="st0" d="M232.08,47.71c-1.46,0-2.53-1.1-2.53-2.53c0-1.47,1.17-2.48,2.53-2.48c1.36,0,2.54,1,2.54,2.47
					C234.62,46.61,233.54,47.71,232.08,47.71 M233.45,45.18c0-0.88-0.43-1.65-1.37-1.65c-0.92,0-1.37,0.76-1.37,1.64
					c0,0.9,0.42,1.71,1.37,1.71C233.02,46.88,233.45,46.08,233.45,45.18L233.45,45.18z"/>
				<path class="st0" d="M237.58,47.71c-1.46,0-2.53-1.1-2.53-2.53c0-1.47,1.17-2.48,2.53-2.48c1.36,0,2.54,1,2.54,2.47
					C240.12,46.61,239.05,47.71,237.58,47.71 M238.95,45.18c0-0.88-0.43-1.65-1.37-1.65c-0.92,0-1.37,0.76-1.37,1.64
					c0,0.9,0.42,1.71,1.37,1.71C238.52,46.88,238.95,46.08,238.95,45.18L238.95,45.18z"/>
				<polygon class="st0" points="240.69,47.59 240.69,40.57 241.79,41.17 241.79,47.59 				"/>
				<path class="st0" d="M244.31,47.74c-1.23,0-1.82-0.59-1.82-0.59l0.49-0.64c0,0,0.56,0.37,1.3,0.37c0.35,0,0.65-0.25,0.65-0.49
					c0-0.24-0.11-0.45-0.43-0.62c-0.33-0.17-0.69-0.34-0.98-0.48c-0.29-0.14-0.92-0.56-0.92-1.38c0-0.83,0.85-1.29,1.72-1.29
					c0.83,0,1.46,0.54,1.46,0.54l-0.42,0.65c0,0-0.47-0.33-1-0.33s-0.63,0.33-0.63,0.47c0,0.14,0.05,0.35,0.38,0.53
					c0.34,0.18,0.68,0.36,1.17,0.64c0.49,0.27,0.77,0.74,0.77,1.27C246.06,46.92,245.54,47.74,244.31,47.74"/>
				<path class="st0" d="M249.01,47.71c-1.75,0-2.58-1.26-2.58-2.48c0-1.4,1.02-2.53,2.61-2.53c0.54,0,1.1,0.17,1.55,0.54
					l-0.49,0.69c-0.31-0.24-0.63-0.32-1.03-0.32c-0.85,0-1.48,0.59-1.48,1.6c0,0.92,0.58,1.66,1.51,1.66c0.39,0,0.74-0.12,1.05-0.38
					l0.45,0.69C250.17,47.53,249.57,47.71,249.01,47.71"/>
				<path class="st0" d="M254.41,47.03c0,0-0.55,0.68-1.6,0.68c-1.23,0-1.83-0.89-1.83-1.79v-3.11h1.09v3.06
					c0,0.53,0.41,0.97,1.05,0.97c0.56,0,1.11-0.67,1.11-0.67v-3.36h1.09v4.77L254.41,47.03z"/>
				<polygon class="st0" points="256.31,47.59 256.31,40.57 257.4,41.17 257.4,47.59 				"/>
				<path class="st0" d="M261.02,47.71c-0.97,0-1.52-0.54-1.52-0.54v2.38h-1.1v-6.84l1.1,0.58c0,0,0.59-0.6,1.58-0.6
					c1.04,0,2.33,0.79,2.33,2.57C263.41,47.03,262.13,47.71,261.02,47.71 M260.95,43.53c-0.94,0-1.48,0.87-1.48,0.87v1.8
					c0,0,0.62,0.7,1.52,0.7c1.04,0,1.27-1.24,1.27-1.68C262.26,44.8,262.16,43.53,260.95,43.53"/>
				<path class="st0" d="M266.29,47.72h-0.69c-0.87,0-1.16-0.83-1.16-1.38v-2.81h-0.87v-0.72h0.87V40.7h1.08v2.11h1.11v0.72h-1.1
					v2.55c0,0.28-0.05,0.73,0.43,0.73h0.79L266.29,47.72z"/>
				<path class="st0" d="M268.04,41.99c-0.39,0-0.72-0.32-0.72-0.72c0-0.39,0.33-0.72,0.72-0.72s0.72,0.32,0.72,0.72
					C268.76,41.66,268.43,41.99,268.04,41.99 M267.5,42.81h1.07v4.78h-1.07V42.81z"/>
				<path class="st0" d="M272.91,47.59v-3.06c0-0.53-0.41-0.97-1.05-0.97c-0.56,0-1.19,0.67-1.19,0.67v3.36h-1.09v-4.77l0.93,0.55
					c0,0,0.63-0.68,1.68-0.68c1.23,0,1.83,0.89,1.83,1.79v3.11H272.91z"/>
				<path class="st0" d="M277.35,49.82c-0.17,0-1.45-0.02-1.45-0.02l0.02-0.87h1.08c1.04,0,1.64-0.56,1.64-1.32v-0.43
					c0,0-0.57,0.54-1.54,0.54c-1.11,0-2.39-0.68-2.39-2.45c0-1.77,1.29-2.57,2.33-2.57c0.99,0,1.58,0.6,1.58,0.6l1.1-0.55v4.75
					C279.71,48.78,278.86,49.82,277.35,49.82 M278.64,44.41c0,0-0.54-0.87-1.48-0.87c-1.21,0-1.31,1.26-1.31,1.7
					c0,0.43,0.23,1.68,1.27,1.68c0.9,0,1.52-0.7,1.52-0.7V44.41z"/>
				<polygon class="st0" points="214.14,45.42 212.13,47.42 214.6,48.34 217.54,45.42 				"/>
				<polygon class="st0" points="217.83,41.35 215.82,39.35 214.89,41.79 217.83,44.72 				"/>
				<polygon class="st0" points="221.47,42.09 224.16,42.78 221.92,45.01 218.53,45.01 				"/>
				<polygon class="st0" points="221.29,48.75 220.52,51.35 216.33,47.19 218.03,45.5 				"/>
				<g>
					<path class="st0" d="M281.35,43.13c0,0.28-0.23,0.51-0.52,0.51c-0.29,0-0.52-0.22-0.52-0.51c0-0.28,0.23-0.5,0.53-0.5
						C281.12,42.63,281.35,42.85,281.35,43.13z M280.43,43.13c0,0.22,0.17,0.4,0.4,0.4c0.22,0,0.39-0.18,0.39-0.4
						c0-0.22-0.17-0.41-0.39-0.41C280.6,42.73,280.43,42.91,280.43,43.13z M280.75,43.4h-0.12v-0.5c0.05-0.01,0.11-0.02,0.19-0.02
						c0.1,0,0.14,0.02,0.17,0.04c0.03,0.02,0.05,0.06,0.05,0.11c0,0.06-0.05,0.1-0.11,0.12v0.01c0.05,0.02,0.07,0.06,0.09,0.12
						c0.02,0.08,0.03,0.1,0.04,0.12h-0.12c-0.02-0.02-0.02-0.06-0.04-0.12c-0.01-0.05-0.04-0.08-0.11-0.08h-0.06V43.4z
						 M280.75,43.11h0.06c0.07,0,0.12-0.02,0.12-0.07c0-0.05-0.03-0.08-0.11-0.08c-0.03,0-0.05,0-0.07,0.01V43.11z"/>
				</g>
			</g>
			<g>
				<polygon class="st0" points="215.43,51.22 215.43,48.09 216.04,47.48 217.82,49.25 217.82,49.85 				"/>
				<polygon class="st0" points="215.14,42.62 212.54,42.62 213.37,45.01 217.54,45.01 				"/>
				<polygon class="st0" points="223.89,47.8 220.93,47.8 218.53,45.42 222.69,45.42 				"/>
				<polygon class="st0" points="218.24,40.58 220.64,39.17 220.64,42.33 218.24,44.72 				"/>
				<g>
					<path class="st0" d="M222.46,48.91c0,0.2-0.16,0.35-0.36,0.35c-0.2,0-0.36-0.16-0.36-0.35c0-0.2,0.16-0.35,0.36-0.35
						C222.3,48.56,222.46,48.72,222.46,48.91z M221.83,48.91c0,0.16,0.12,0.28,0.27,0.28c0.15,0,0.27-0.12,0.27-0.28
						c0-0.16-0.12-0.28-0.27-0.28C221.94,48.63,221.83,48.76,221.83,48.91z M222.04,49.09h-0.08v-0.35c0.03,0,0.08-0.01,0.13-0.01
						c0.07,0,0.1,0.01,0.12,0.03c0.02,0.01,0.04,0.04,0.04,0.07c0,0.04-0.03,0.07-0.07,0.08v0c0.03,0.01,0.05,0.04,0.06,0.09
						c0.01,0.05,0.02,0.07,0.03,0.09h-0.09c-0.01-0.01-0.02-0.04-0.03-0.09c-0.01-0.04-0.03-0.05-0.07-0.05h-0.04V49.09z
						 M222.05,48.9h0.04c0.05,0,0.08-0.01,0.08-0.05c0-0.03-0.02-0.05-0.07-0.05c-0.02,0-0.04,0-0.04,0V48.9z"/>
				</g>
			</g>
		</g>
	</g>
	<g>
		<path class="st0" d="M202.8,42.95h0.43v2.39h0.01c0.07-0.1,0.15-0.19,0.25-0.27c0.1-0.07,0.2-0.13,0.3-0.18s0.21-0.08,0.32-0.1
			c0.11-0.02,0.22-0.03,0.32-0.03c0.24,0,0.46,0.04,0.66,0.12c0.2,0.08,0.37,0.19,0.52,0.34c0.14,0.14,0.26,0.31,0.34,0.51
			c0.08,0.2,0.12,0.41,0.12,0.64c0,0.23-0.04,0.44-0.12,0.64c-0.08,0.2-0.19,0.37-0.34,0.51c-0.14,0.14-0.32,0.26-0.52,0.34
			c-0.2,0.08-0.42,0.12-0.66,0.12c-0.1,0-0.21-0.01-0.32-0.03c-0.11-0.02-0.22-0.06-0.32-0.1c-0.1-0.05-0.21-0.11-0.3-0.18
			c-0.1-0.07-0.18-0.16-0.25-0.27h-0.01v0.51h-0.43V42.95z M205.6,46.36c0-0.17-0.03-0.33-0.08-0.48c-0.05-0.15-0.13-0.28-0.23-0.39
			c-0.1-0.11-0.22-0.19-0.36-0.26c-0.14-0.06-0.3-0.09-0.48-0.09c-0.18,0-0.34,0.03-0.49,0.09c-0.15,0.06-0.28,0.15-0.39,0.26
			c-0.11,0.11-0.19,0.24-0.26,0.39c-0.06,0.15-0.09,0.31-0.09,0.48c0,0.17,0.03,0.33,0.09,0.48c0.06,0.15,0.15,0.28,0.26,0.38
			c0.11,0.11,0.24,0.19,0.39,0.26c0.15,0.06,0.31,0.09,0.49,0.09c0.18,0,0.34-0.03,0.48-0.09c0.14-0.06,0.26-0.15,0.36-0.26
			c0.1-0.11,0.18-0.24,0.23-0.38C205.58,46.68,205.6,46.53,205.6,46.36z"/>
		<path class="st0" d="M207.95,47.35l0.94-2.53h0.53l-1.54,3.85c-0.09,0.23-0.21,0.42-0.35,0.56c-0.14,0.14-0.35,0.21-0.61,0.21
			c-0.07,0-0.13,0-0.2-0.01c-0.07,0-0.13-0.02-0.2-0.04l0.05-0.42c0.09,0.05,0.2,0.07,0.33,0.07c0.15,0,0.27-0.05,0.36-0.14
			c0.09-0.1,0.16-0.23,0.23-0.4l0.22-0.59l-1.26-3.09h0.55L207.95,47.35z"/>
	</g>
	<g>
		<path class="st0" d="M211.35,33.46c-0.94,0.82-2.11,1.23-3.5,1.23c-1.81,0-3.24-0.59-4.28-1.76c-0.94-1.06-1.41-2.33-1.41-3.83
			c0-1.6,0.53-2.94,1.59-4.03c1.06-1.09,2.46-1.63,4.2-1.63c1.33,0,2.46,0.41,3.39,1.21l-1.09,1.52c-0.62-0.47-1.38-0.71-2.26-0.71
			c-0.96,0-1.74,0.32-2.34,0.97c-0.6,0.65-0.9,1.52-0.9,2.62c0,1.07,0.3,1.96,0.9,2.66c0.6,0.7,1.4,1.06,2.4,1.06
			c0.87,0,1.64-0.28,2.33-0.84L211.35,33.46z"/>
		<path class="st0" d="M222.65,28.99c0,1.63-0.53,2.99-1.6,4.07c-1.07,1.09-2.4,1.63-4.01,1.63c-1.61,0-2.94-0.54-4-1.63
			c-1.06-1.09-1.59-2.44-1.59-4.07c0-1.6,0.56-2.94,1.67-4.01c1.07-1.03,2.38-1.54,3.91-1.54c1.54,0,2.85,0.51,3.93,1.54
			C222.1,26.05,222.65,27.39,222.65,28.99z M220.07,28.99c0-1.04-0.25-1.9-0.74-2.57c-0.55-0.73-1.31-1.1-2.28-1.1
			c-0.97,0-1.72,0.37-2.26,1.1c-0.49,0.67-0.74,1.53-0.74,2.57c0,1.1,0.24,1.99,0.72,2.68c0.54,0.76,1.3,1.14,2.28,1.14
			c0.99,0,1.75-0.38,2.3-1.14C219.83,30.98,220.07,30.09,220.07,28.99z"/>
		<path class="st0" d="M234.67,28.99c0,1.63-0.53,2.99-1.6,4.07c-1.07,1.09-2.4,1.63-4.01,1.63c-1.61,0-2.94-0.54-4-1.63
			c-1.06-1.09-1.59-2.44-1.59-4.07c0-1.6,0.56-2.94,1.67-4.01c1.07-1.03,2.38-1.54,3.91-1.54c1.54,0,2.85,0.51,3.93,1.54
			C234.12,26.05,234.67,27.39,234.67,28.99z M232.09,28.99c0-1.04-0.25-1.9-0.74-2.57c-0.55-0.73-1.31-1.1-2.28-1.1
			c-0.97,0-1.72,0.37-2.26,1.1c-0.49,0.67-0.74,1.53-0.74,2.57c0,1.1,0.24,1.99,0.72,2.68c0.54,0.76,1.3,1.14,2.28,1.14
			c0.99,0,1.75-0.38,2.3-1.14C231.85,30.98,232.09,30.09,232.09,28.99z"/>
		<path class="st0" d="M238.37,34.45h-2.41v-15.8l2.41,1.35V34.45z"/>
		<g>
			<g>
				<path class="st0" d="M256.8,28.99c0,1.63-0.53,2.99-1.6,4.07c-1.07,1.09-2.4,1.63-4.01,1.63c-1.61,0-2.94-0.54-4-1.63
					c-1.06-1.09-1.59-2.44-1.59-4.07c0-1.6,0.56-2.94,1.67-4.01c1.07-1.03,2.38-1.54,3.91-1.54c1.54,0,2.85,0.51,3.93,1.54
					C256.24,26.05,256.8,27.39,256.8,28.99z M254.22,28.99c0-1.04-0.25-1.9-0.74-2.57c-0.55-0.73-1.31-1.1-2.28-1.1
					c-0.97,0-1.72,0.37-2.26,1.1c-0.49,0.67-0.74,1.53-0.74,2.57c0,1.1,0.24,1.99,0.72,2.68c0.54,0.76,1.3,1.14,2.28,1.14
					c0.99,0,1.75-0.38,2.3-1.14C253.98,30.98,254.22,30.09,254.22,28.99z"/>
				<path class="st0" d="M267.78,34.45h-2.41v-6.87c0-0.62-0.21-1.13-0.64-1.55c-0.43-0.42-0.99-0.63-1.68-0.63
					c-0.77,0-1.64,0.5-2.63,1.5v7.55H258V23.7l2.04,1.24c1.04-1.02,2.27-1.52,3.69-1.52c1.28,0,2.29,0.42,3.04,1.26
					c0.67,0.75,1,1.68,1,2.78V34.45z"/>
				<path class="st0" d="M279.56,29.57h-7.72c0.29,2.19,1.32,3.29,3.09,3.29c1.09,0,1.98-0.31,2.67-0.93l0.96,1.57
					c-0.93,0.85-2.16,1.28-3.69,1.28c-2.13,0-3.69-0.8-4.67-2.4c-0.61-0.99-0.91-2-0.91-3.05c0-1.28,0.25-2.39,0.74-3.33
					c0.88-1.72,2.46-2.58,4.72-2.58c2.23,0,3.7,1.02,4.41,3.07C279.45,27.35,279.59,28.38,279.56,29.57z M277.12,27.98
					c-0.09-1.9-0.9-2.85-2.43-2.85c-1.7,0-2.63,0.95-2.8,2.85H277.12z"/>
				<path class="st0" d="M243.59,32.68c-0.46,0-0.75-0.2-0.87-0.6c-0.06-0.16-0.09-0.51-0.09-1.06v-4.48h1.68v-1.61h-1.68v-2.57
					l-2.41-1.35v10.6c0,0.77,0.19,1.43,0.56,2.01c0.46,0.74,1.13,1.1,2,1.1h1.52l1.02-2.05H243.59z"/>
			</g>
		</g>
		<g>
			<path class="st0" d="M282.33,24.57c0,0.64-0.52,1.14-1.17,1.14c-0.65,0-1.18-0.51-1.18-1.14c0-0.64,0.52-1.13,1.18-1.13
				C281.81,23.43,282.33,23.93,282.33,24.57z M280.28,24.57c0,0.5,0.38,0.91,0.89,0.91c0.49,0.01,0.87-0.4,0.87-0.9
				c0-0.5-0.38-0.91-0.88-0.91C280.66,23.66,280.28,24.07,280.28,24.57z M280.98,25.15h-0.26v-1.13c0.1-0.01,0.25-0.03,0.44-0.03
				c0.22,0,0.31,0.03,0.39,0.09c0.07,0.05,0.12,0.13,0.12,0.24c0,0.14-0.1,0.23-0.24,0.27v0.01c0.11,0.03,0.17,0.12,0.2,0.28
				c0.03,0.17,0.06,0.24,0.08,0.28h-0.28c-0.04-0.04-0.06-0.14-0.09-0.28c-0.02-0.12-0.09-0.17-0.24-0.17h-0.12V25.15z
				 M280.98,24.52h0.12c0.15,0,0.26-0.05,0.26-0.17c0-0.1-0.08-0.17-0.24-0.17c-0.07,0-0.12,0.01-0.15,0.01V24.52z"/>
		</g>
	</g>
</g>
</svg>
