<?xml version="1.0" encoding="utf-8"?>
<!-- Generator: Adobe Illustrator 25.4.1, SVG Export Plug-In . SVG Version: 6.00 Build 0)  -->
<svg version="1.1" id="Layer_1" xmlns="http://www.w3.org/2000/svg" xmlns:xlink="http://www.w3.org/1999/xlink" x="0px" y="0px"
	 viewBox="0 0 1940 500" style="enable-background:new 0 0 1940 500;" xml:space="preserve">
<style type="text/css">
	.st0{fill:#B7D7E8;}
	.st1{fill:#00ABE6;}
</style>
<g>
	<path class="st0" d="M97.68,164.08v49.24c0,7.98-4.3,12.49-11.86,12.49c-7.46,0-11.76-4.51-11.76-12.49v-7.04h5.98v5.88
		c0,5.88,1.68,8.19,5.67,8.19c3.99,0,5.77-2.31,5.77-8.19v-19.95h-0.21c-1.78,2.73-4.41,4.1-7.98,4.1c-5.98,0-9.45-4.1-9.45-11.13
		v-21.1c0-8.19,4.3-12.81,11.86-12.81C93.27,151.27,97.68,155.89,97.68,164.08z M80.04,164.92v19.63c0,4.3,1.57,6.3,4.83,6.3
		c4.09,0,6.61-3.36,6.61-9.03v-16.9c0-5.88-1.68-8.19-5.77-8.19C81.62,156.73,80.04,159.04,80.04,164.92z"/>
	<path class="st0" d="M119.1,212.69v-48.3c0-8.4,4.51-13.12,12.18-13.12c7.66,0,12.18,4.73,12.18,13.12v48.3
		c0,8.4-4.51,13.12-12.18,13.12C123.62,225.82,119.1,221.09,119.1,212.69z M137.16,211.64v-46.2c0-6.09-1.68-8.5-5.88-8.5
		c-4.3,0-5.88,2.42-5.88,8.5v46.2c0,6.09,1.58,8.5,5.88,8.5C135.48,220.15,137.16,217.73,137.16,211.64z"/>
	<path class="st0" d="M151.44,213.11v-60.79h6.3v59.64c0,5.88,1.47,8.19,5.67,8.19s5.67-2.31,5.67-8.19v-59.64h6.09v60.79
		c0,8.08-4.41,12.7-11.86,12.7S151.44,221.2,151.44,213.11z"/>
	<path class="st0" d="M189.87,157.78h-8.82v-5.46h23.94v5.46h-8.82v66.99h-6.3V157.78z"/>
	<path class="st0" d="M224.31,212.69v-48.3c0-8.4,4.52-13.12,12.18-13.12s12.18,4.73,12.18,13.12v48.3c0,8.4-4.51,13.12-12.18,13.12
		S224.31,221.09,224.31,212.69z M242.37,211.64v-46.2c0-6.09-1.68-8.5-5.88-8.5c-4.31,0-5.88,2.42-5.88,8.5v46.2
		c0,6.09,1.57,8.5,5.88,8.5C240.69,220.15,242.37,217.73,242.37,211.64z"/>
	<path class="st0" d="M256.86,152.32h20.79v5.46h-14.49v26.35h12.6v5.46h-12.6v35.17h-6.3V152.32z"/>
	<path class="st0" d="M304.11,159.46l-9.24,5.67v-5.88l11.55-7.14h3.88v72.66h-6.19V159.46z"/>
	<path class="st0" d="M318.49,213.01v-48.93c0-8.19,4.3-12.81,11.86-12.81c7.56,0,11.86,4.62,11.86,12.81v48.93
		c0,8.19-4.3,12.81-11.86,12.81C322.79,225.82,318.49,221.2,318.49,213.01z M336.02,212.17v-47.25c0-5.88-1.57-8.19-5.67-8.19
		c-4.1,0-5.67,2.31-5.67,8.19v47.25c0,5.88,1.57,8.19,5.67,8.19C334.45,220.36,336.02,218.05,336.02,212.17z"/>
	<path class="st1" d="M364.06,152.32h11.97c8.4,0,12.39,4.31,12.39,13.12v11.34c0,8.82-3.99,13.12-12.39,13.12h-5.67v34.86h-6.3
		V152.32z M375.29,184.45c5.25,0,6.82-2,6.82-8.71v-9.24c0-6.72-1.58-8.71-6.82-8.71h-4.94v26.67H375.29z"/>
	<path class="st1" d="M398.81,152.32h8.29l9.13,72.45h-6.4l-2.1-17.95h-9.87l-2.1,17.95h-6.09L398.81,152.32z M407.11,201.35
		l-4.2-39.06h-0.21l-4.2,39.06H407.11z"/>
	<path class="st1" d="M425.17,157.78h-8.82v-5.46h23.94v5.46h-8.82v66.99h-6.3V157.78z"/>
	<path class="st1" d="M446.37,152.32h6.3v72.45h-6.3V152.32z"/>
	<path class="st1" d="M461.28,152.32h20.79v5.46h-14.49v25.3h12.6v5.46h-12.6v30.76h14.49v5.46h-20.79V152.32z"/>
	<path class="st1" d="M488.58,152.32h8.19l11.44,53.02h0.21v-53.02h5.67v72.45h-6.82l-12.81-59.74h-0.21v59.74h-5.67V152.32z"/>
	<path class="st1" d="M529.01,157.78h-8.82v-5.46h23.94v5.46h-8.82v66.99h-6.3V157.78z"/>
	<path class="st1" d="M549.06,212.9v-12.7h6.09v11.55c0,5.98,1.68,8.4,5.88,8.4c4.3,0,5.98-2.42,5.98-8.4v-10.92
		c0-4.94-1.36-7.35-4.93-9.66l-5.56-3.57c-5.35-3.46-7.45-7.45-7.45-14.49v-9.34c0-7.98,4.3-12.49,11.76-12.49
		c7.46,0,11.76,4.51,11.76,12.49v9.34h-6.09v-8.29c0-5.67-1.57-7.87-5.56-7.87c-3.99,0-5.56,2.2-5.56,7.87v7.87
		c0,4.94,1.36,7.35,4.93,9.66l5.56,3.57c5.35,3.46,7.45,7.46,7.45,14.49v12.49c0,8.29-4.51,12.91-12.18,12.91
		C553.47,225.82,549.06,221.2,549.06,212.9z"/>
	<path class="st1" d="M594.21,152.32h11.65c8.4,0,12.39,4.31,12.39,13.12v9.24c0,5.88-1.89,9.45-5.67,11.13v0.21
		c3.78,1.68,5.67,5.25,5.67,11.23v27.51h-6.3v-27.09c0-6.72-1.89-8.71-7.88-8.71h-3.57v35.8h-6.3V152.32z M605.13,183.5
		c5.25,0,6.82-2,6.82-8.71v-8.29c0-6.72-1.58-8.71-6.82-8.71h-4.62v25.72H605.13z"/>
	<path class="st1" d="M626.34,152.32h20.79v5.46h-14.49v25.3h12.6v5.46h-12.6v30.76h14.49v5.46h-20.79V152.32z"/>
	<path class="st1" d="M653.64,152.32h11.97c8.4,0,12.39,4.31,12.39,13.12v11.34c0,8.82-3.99,13.12-12.39,13.12h-5.67v34.86h-6.3
		V152.32z M664.87,184.45c5.25,0,6.82-2,6.82-8.71v-9.24c0-6.72-1.58-8.71-6.82-8.71h-4.94v26.67H664.87z"/>
	<path class="st1" d="M684.4,212.69v-48.3c0-8.4,4.52-13.12,12.18-13.12s12.18,4.73,12.18,13.12v48.3c0,8.4-4.51,13.12-12.18,13.12
		S684.4,221.09,684.4,212.69z M702.46,211.64v-46.2c0-6.09-1.68-8.5-5.88-8.5c-4.31,0-5.88,2.42-5.88,8.5v46.2
		c0,6.09,1.57,8.5,5.88,8.5C700.78,220.15,702.46,217.73,702.46,211.64z"/>
	<path class="st1" d="M716.95,152.32h11.65c8.4,0,12.39,4.31,12.39,13.12v9.24c0,5.88-1.89,9.45-5.67,11.13v0.21
		c3.78,1.68,5.67,5.25,5.67,11.23v27.51h-6.3v-27.09c0-6.72-1.89-8.71-7.88-8.71h-3.57v35.8h-6.3V152.32z M727.87,183.5
		c5.25,0,6.82-2,6.82-8.71v-8.29c0-6.72-1.58-8.71-6.82-8.71h-4.62v25.72H727.87z"/>
	<path class="st1" d="M755.28,157.78h-8.82v-5.46h23.94v5.46h-8.82v66.99h-6.3V157.78z"/>
	<path class="st1" d="M776.49,152.32h20.79v5.46h-14.49v25.3h12.6v5.46h-12.6v30.76h14.49v5.46h-20.79V152.32z"/>
	<path class="st1" d="M803.79,152.32h11.97c8.4,0,12.39,4.31,12.39,13.12v46.2c0,8.82-3.99,13.12-12.39,13.12h-11.97V152.32z
		 M815.02,219.31c5.25,0,6.82-1.99,6.82-8.71v-44.1c0-6.72-1.58-8.71-6.82-8.71h-4.94v61.53H815.02z"/>
	<path class="st1" d="M74.9,247.32h11.65c8.4,0,12.39,4.31,12.39,13.12v8.71c0,5.88-1.78,9.45-5.46,11.13v0.21
		c3.99,1.68,5.88,5.25,5.88,11.34v14.8c0,8.82-3.99,13.12-12.39,13.12H74.9V247.32z M85.82,278.08c5.25,0,6.82-2,6.82-8.61v-7.98
		c0-6.72-1.58-8.71-6.82-8.71H81.2v25.3H85.82z M86.24,314.31c5.25,0,6.82-2,6.82-8.71v-13.33c0-6.72-1.58-8.71-6.82-8.71H81.2
		v30.76H86.24z"/>
	<path class="st1" d="M107.03,247.32h20.79v5.46h-14.49v25.3h12.6v5.46h-12.6v30.76h14.49v5.46h-20.79V247.32z"/>
	<path class="st1" d="M134.33,247.32h6.3v72.45h-6.3V247.32z"/>
	<path class="st1" d="M149.24,247.32h8.19l11.44,53.02h0.21v-53.02h5.67v72.45h-6.82l-12.81-59.74h-0.21v59.74h-5.67V247.32z"/>
	<path class="st1" d="M182.94,309.48v-50.19c0-8.29,4.51-13.02,12.07-13.02c7.66,0,11.97,4.73,11.97,13.02v7.98H201v-6.83
		c0-6.09-1.68-8.5-5.88-8.5c-4.3,0-5.88,2.42-5.88,8.5v48.3c0,4.3,1.58,6.4,5.04,6.4c4.3,0,6.72-3.25,6.72-9.13v-20.79h-5.88v-5.46
		h12.18v40h-5.35v-5.14h-0.31c-1.68,3.99-4.73,6.19-9.03,6.19C186.51,320.82,182.94,316.51,182.94,309.48z"/>
	<path class="st1" d="M233.44,257.92h2.52v8.61h-7.14v-7.56l4.62-11.66h3.67L233.44,257.92z M245.83,257.92h2.52v8.61h-7.14v-7.56
		l4.62-11.66h3.67L245.83,257.92z"/>
	<path class="st1" d="M255.7,307.9V295.2h6.09v11.55c0,5.98,1.68,8.4,5.88,8.4c4.31,0,5.98-2.42,5.98-8.4v-10.92
		c0-4.94-1.36-7.35-4.93-9.66l-5.56-3.57c-5.35-3.46-7.45-7.45-7.45-14.49v-9.35c0-7.98,4.3-12.49,11.76-12.49
		c7.46,0,11.76,4.51,11.76,12.49v9.35h-6.09v-8.29c0-5.67-1.57-7.88-5.56-7.88c-3.99,0-5.56,2.21-5.56,7.88v7.87
		c0,4.93,1.36,7.35,4.93,9.66l5.56,3.57c5.35,3.46,7.45,7.46,7.45,14.49v12.49c0,8.29-4.51,12.91-12.18,12.91
		C260.11,320.82,255.7,316.2,255.7,307.9z"/>
	<path class="st1" d="M293.92,247.32h8.29l9.13,72.45h-6.4l-2.1-17.95h-9.87l-2.1,17.95h-6.09L293.92,247.32z M302.22,296.35
		l-4.2-39.06h-0.21l-4.2,39.06H302.22z"/>
	<path class="st1" d="M320.28,252.78h-8.82v-5.46h23.94v5.46h-8.82v66.99h-6.3V252.78z"/>
	<path class="st1" d="M341.49,247.32h6.3v72.45h-6.3V247.32z"/>
	<path class="st1" d="M355.24,307.9V295.2h6.09v11.55c0,5.98,1.68,8.4,5.88,8.4c4.3,0,5.98-2.42,5.98-8.4v-10.92
		c0-4.94-1.36-7.35-4.93-9.66l-5.56-3.57c-5.35-3.46-7.45-7.45-7.45-14.49v-9.35c0-7.98,4.3-12.49,11.76-12.49
		c7.46,0,11.76,4.51,11.76,12.49v9.35h-6.09v-8.29c0-5.67-1.57-7.88-5.56-7.88c-3.99,0-5.56,2.21-5.56,7.88v7.87
		c0,4.93,1.36,7.35,4.93,9.66l5.56,3.57c5.35,3.46,7.45,7.46,7.45,14.49v12.49c0,8.29-4.51,12.91-12.18,12.91
		C359.65,320.82,355.24,316.2,355.24,307.9z"/>
	<path class="st1" d="M386.74,247.32h20.79v5.46h-14.49v26.35h12.6v5.46h-12.6v35.17h-6.3V247.32z"/>
	<path class="st1" d="M413.62,247.32h6.3v72.45h-6.3V247.32z"/>
	<path class="st1" d="M428.53,247.32h20.79v5.46h-14.49v25.3h12.6v5.46h-12.6v30.76h14.49v5.46h-20.79V247.32z"/>
	<path class="st1" d="M455.83,247.32h11.97c8.4,0,12.39,4.31,12.39,13.12v46.2c0,8.82-3.99,13.12-12.39,13.12h-11.97V247.32z
		 M467.06,314.31c5.25,0,6.82-2,6.82-8.71v-44.1c0-6.72-1.58-8.71-6.82-8.71h-4.94v61.53H467.06z"/>
	<path class="st1" d="M490.69,255.93h-2.52v-8.61h7.14v7.56l-4.62,11.65h-3.67L490.69,255.93z M503.08,255.93h-2.52v-8.61h7.14v7.56
		l-4.62,11.65h-3.67L503.08,255.93z"/>
	<path class="st1" d="M529.54,307.69v-48.3c0-8.4,4.51-13.12,12.18-13.12c7.66,0,12.18,4.73,12.18,13.12v48.3
		c0,8.4-4.51,13.12-12.18,13.12C534.05,320.82,529.54,316.09,529.54,307.69z M547.59,306.64v-46.2c0-6.09-1.68-8.5-5.88-8.5
		c-4.3,0-5.88,2.42-5.88,8.5v46.2c0,6.09,1.58,8.5,5.88,8.5C545.91,315.15,547.59,312.73,547.59,306.64z"/>
	<path class="st1" d="M562.08,247.32h11.65c8.4,0,12.39,4.31,12.39,13.12v9.24c0,5.88-1.89,9.45-5.67,11.13v0.21
		c3.78,1.68,5.67,5.25,5.67,11.23v27.51h-6.3v-27.09c0-6.72-1.89-8.71-7.88-8.71h-3.57v35.8h-6.3V247.32z M573,278.5
		c5.25,0,6.82-2,6.82-8.71v-8.29c0-6.72-1.58-8.71-6.82-8.71h-4.62v25.72H573z"/>
	<path class="st1" d="M612.48,257.92H615v8.61h-7.14v-7.56l4.62-11.66h3.67L612.48,257.92z M624.87,257.92h2.52v8.61h-7.14v-7.56
		l4.62-11.66h3.67L624.87,257.92z"/>
	<path class="st1" d="M634.64,247.32h6.4l6.61,60.9h0.21l6.61-60.9h5.98l-8.71,72.45h-8.4L634.64,247.32z"/>
	<path class="st1" d="M666.77,247.32h20.79v5.46h-14.49v25.3h12.6v5.46h-12.6v30.76h14.49v5.46h-20.79V247.32z"/>
	<path class="st1" d="M694.07,247.32h11.65c8.4,0,12.39,4.31,12.39,13.12v9.24c0,5.88-1.89,9.45-5.67,11.13v0.21
		c3.78,1.68,5.67,5.25,5.67,11.23v27.51h-6.3v-27.09c0-6.72-1.89-8.71-7.88-8.71h-3.57v35.8h-6.3V247.32z M704.99,278.5
		c5.25,0,6.82-2,6.82-8.71v-8.29c0-6.72-1.58-8.71-6.82-8.71h-4.62v25.72H704.99z"/>
	<path class="st1" d="M732.5,285.96l-10.18-38.64h6.51l6.93,28.66h0.21l6.93-28.66h6.09l-10.18,38.64v33.81h-6.3V285.96z"/>
	<path class="st1" d="M767.46,307.9V295.2h6.09v11.55c0,5.98,1.68,8.4,5.88,8.4c4.31,0,5.98-2.42,5.98-8.4v-10.92
		c0-4.94-1.36-7.35-4.93-9.66l-5.56-3.57c-5.35-3.46-7.45-7.45-7.45-14.49v-9.35c0-7.98,4.3-12.49,11.76-12.49
		c7.46,0,11.76,4.51,11.76,12.49v9.35h-6.09v-8.29c0-5.67-1.57-7.88-5.56-7.88c-3.99,0-5.56,2.21-5.56,7.88v7.87
		c0,4.93,1.36,7.35,4.93,9.66l5.56,3.57c5.35,3.46,7.45,7.46,7.45,14.49v12.49c0,8.29-4.51,12.91-12.18,12.91
		C771.87,320.82,767.46,316.2,767.46,307.9z"/>
	<path class="st1" d="M805.68,247.32h8.29l9.13,72.45h-6.4l-2.1-17.95h-9.87l-2.1,17.95h-6.09L805.68,247.32z M813.97,296.35
		l-4.2-39.06h-0.21l-4.2,39.06H813.97z"/>
	<path class="st1" d="M832.03,252.78h-8.82v-5.46h23.94v5.46h-8.82v66.99h-6.3V252.78z"/>
	<path class="st1" d="M853.24,247.32h6.3v72.45h-6.3V247.32z"/>
	<path class="st1" d="M867,307.9V295.2h6.09v11.55c0,5.98,1.68,8.4,5.88,8.4c4.3,0,5.98-2.42,5.98-8.4v-10.92
		c0-4.94-1.36-7.35-4.93-9.66l-5.56-3.57c-5.35-3.46-7.45-7.45-7.45-14.49v-9.35c0-7.98,4.3-12.49,11.76-12.49
		c7.46,0,11.76,4.51,11.76,12.49v9.35h-6.09v-8.29c0-5.67-1.57-7.88-5.56-7.88c-3.99,0-5.56,2.21-5.56,7.88v7.87
		c0,4.93,1.36,7.35,4.93,9.66l5.56,3.57c5.35,3.46,7.45,7.46,7.45,14.49v12.49c0,8.29-4.51,12.91-12.18,12.91
		C871.41,320.82,867,316.2,867,307.9z"/>
	<path class="st1" d="M898.5,247.32h20.79v5.46H904.8v26.35h12.6v5.46h-12.6v35.17h-6.3V247.32z"/>
	<path class="st1" d="M925.38,247.32h6.3v72.45h-6.3V247.32z"/>
	<path class="st1" d="M940.29,247.32h20.79v5.46h-14.49v25.3h12.6v5.46h-12.6v30.76h14.49v5.46h-20.79V247.32z"/>
	<path class="st1" d="M967.59,247.32h11.97c8.4,0,12.39,4.31,12.39,13.12v46.2c0,8.82-3.99,13.12-12.39,13.12h-11.97V247.32z
		 M978.82,314.31c5.25,0,6.82-2,6.82-8.71v-44.1c0-6.72-1.57-8.71-6.82-8.71h-4.94v61.53H978.82z"/>
	<path class="st1" d="M1002.44,255.93h-2.52v-8.61h7.14v7.56l-4.62,11.65h-3.67L1002.44,255.93z M1014.83,255.93h-2.52v-8.61h7.14
		v7.56l-4.62,11.65h-3.67L1014.83,255.93z"/>
	<path class="st1" d="M72.59,342.32h6.4l5.46,58.69h0.21l6.3-58.69h6.3l6.3,58.69h0.21l5.46-58.69h5.88l-7.87,72.45h-7.24
		l-5.88-54.07H93.9l-5.88,54.07h-7.56L72.59,342.32z"/>
	<path class="st1" d="M121.41,342.32h6.3v72.45h-6.3V342.32z"/>
	<path class="st1" d="M142.62,347.78h-8.82v-5.46h23.94v5.46h-8.82v66.99h-6.3V347.78z"/>
	<path class="st1" d="M163.83,342.32h6.3v30.76h11.86v-30.76h6.3v72.45h-6.3v-36.22h-11.86v36.22h-6.3V342.32z"/>
	<path class="st1" d="M216.85,347.78h-8.82v-5.46h23.94v5.46h-8.82v66.99h-6.3V347.78z"/>
	<path class="st1" d="M238.06,342.32h6.3v30.76h11.86v-30.76h6.3v72.45h-6.3v-36.22h-11.86v36.22h-6.3V342.32z"/>
	<path class="st1" d="M271.14,342.32h20.79v5.46h-14.49v25.3h12.6v5.46h-12.6v30.76h14.49v5.46h-20.79V342.32z"/>
	<path class="st1" d="M298.44,342.32h6.3v72.45h-6.3V342.32z"/>
	<path class="st1" d="M313.34,342.32H325c8.4,0,12.39,4.3,12.39,13.12v9.24c0,5.88-1.89,9.45-5.67,11.13v0.21
		c3.78,1.68,5.67,5.25,5.67,11.23v27.51h-6.3v-27.09c0-6.72-1.89-8.71-7.88-8.71h-3.57v35.8h-6.3V342.32z M324.26,373.5
		c5.25,0,6.82-1.99,6.82-8.71v-8.29c0-6.72-1.58-8.71-6.82-8.71h-4.62v25.72H324.26z"/>
	<path class="st1" d="M358.7,403.32v-49.56c0-7.98,4.2-12.49,11.76-12.49c7.66,0,11.86,4.51,11.86,12.49v11.87h-5.98v-10.81
		c0-5.67-1.68-7.88-5.67-7.88c-4.1,0-5.67,2.21-5.67,7.88v47.46c0,5.67,1.57,7.87,5.67,7.87c3.99,0,5.67-2.21,5.67-7.87v-14.59h5.98
		v15.64c0,7.98-4.2,12.49-11.86,12.49C362.9,415.82,358.7,411.3,358.7,403.32z"/>
	<path class="st1" d="M389.36,402.69v-48.3c0-8.4,4.52-13.12,12.18-13.12s12.18,4.72,12.18,13.12v48.3c0,8.4-4.51,13.12-12.18,13.12
		S389.36,411.09,389.36,402.69z M407.42,401.64v-46.2c0-6.09-1.68-8.5-5.88-8.5c-4.31,0-5.88,2.42-5.88,8.5v46.2
		c0,6.09,1.57,8.5,5.88,8.5C405.74,410.15,407.42,407.73,407.42,401.64z"/>
	<path class="st1" d="M421.49,402.69v-48.3c0-8.4,4.52-13.12,12.18-13.12s12.18,4.72,12.18,13.12v48.3c0,8.4-4.51,13.12-12.18,13.12
		S421.49,411.09,421.49,402.69z M439.55,401.64v-46.2c0-6.09-1.68-8.5-5.88-8.5c-4.31,0-5.88,2.42-5.88,8.5v46.2
		c0,6.09,1.57,8.5,5.88,8.5C437.87,410.15,439.55,407.73,439.55,401.64z"/>
	<path class="st1" d="M454.04,342.32h6.3v66.99h13.44v5.46h-19.74V342.32z"/>
	<path class="st1" d="M478.72,402.9V390.2h6.09v11.55c0,5.98,1.68,8.4,5.88,8.4c4.31,0,5.98-2.42,5.98-8.4v-10.92
		c0-4.93-1.36-7.35-4.93-9.66l-5.56-3.57c-5.35-3.46-7.45-7.45-7.45-14.49v-9.34c0-7.98,4.3-12.49,11.76-12.49
		c7.46,0,11.76,4.51,11.76,12.49v9.34h-6.09v-8.29c0-5.67-1.57-7.88-5.56-7.88c-3.99,0-5.56,2.21-5.56,7.88v7.87
		c0,4.93,1.36,7.35,4.93,9.66l5.56,3.57c5.35,3.46,7.45,7.46,7.45,14.49v12.5c0,8.29-4.51,12.91-12.18,12.91
		C483.13,415.82,478.72,411.2,478.72,402.9z"/>
	<path class="st1" d="M509.79,403.32v-49.56c0-7.98,4.2-12.49,11.76-12.49c7.66,0,11.86,4.51,11.86,12.49v11.87h-5.98v-10.81
		c0-5.67-1.68-7.88-5.67-7.88c-4.09,0-5.67,2.21-5.67,7.88v47.46c0,5.67,1.58,7.87,5.67,7.87c3.99,0,5.67-2.21,5.67-7.87v-14.59
		h5.98v15.64c0,7.98-4.2,12.49-11.86,12.49C513.99,415.82,509.79,411.3,509.79,403.32z"/>
	<path class="st1" d="M540.66,403.11v-60.79h6.3v59.64c0,5.88,1.47,8.19,5.67,8.19s5.67-2.31,5.67-8.19v-59.64h6.09v60.79
		c0,8.08-4.41,12.7-11.86,12.7S540.66,411.2,540.66,403.11z"/>
	<path class="st1" d="M572.79,342.32h6.3v66.99h13.44v5.46h-19.74V342.32z"/>
	<path class="st1" d="M598.62,342.32h11.97c8.4,0,12.39,4.3,12.39,13.12v11.34c0,8.82-3.99,13.12-12.39,13.12h-5.67v34.86h-6.3
		V342.32z M609.86,374.45c5.25,0,6.82-2,6.82-8.71v-9.24c0-6.72-1.58-8.71-6.82-8.71h-4.94v26.67H609.86z"/>
	<path class="st1" d="M636.11,347.78h-8.82v-5.46h23.94v5.46h-8.82v66.99h-6.3V347.78z"/>
	<path class="st1" d="M657.31,342.32h6.3v72.45h-6.3V342.32z"/>
	<path class="st1" d="M672.22,342.32h8.19l11.44,53.02h0.21v-53.02h5.67v72.45h-6.82l-12.81-59.74h-0.21v59.74h-5.67V342.32z"/>
	<path class="st1" d="M705.93,404.48v-50.19c0-8.29,4.52-13.02,12.07-13.02c7.66,0,11.97,4.72,11.97,13.02v7.98h-5.98v-6.82
		c0-6.09-1.68-8.5-5.88-8.5c-4.31,0-5.88,2.42-5.88,8.5v48.3c0,4.3,1.57,6.4,5.04,6.4c4.3,0,6.72-3.25,6.72-9.13v-20.79h-5.88v-5.46
		h12.18v40h-5.35v-5.14h-0.31c-1.68,3.99-4.73,6.19-9.03,6.19C709.5,415.82,705.93,411.51,705.93,404.48z"/>
	<path class="st1" d="M736.06,368.84v-20.32c0-7.29,4.1-11.57,10.65-11.57s10.65,4.29,10.65,11.57v20.32
		c0,7.77-3.98,11.57-10.65,11.57S736.06,376.62,736.06,368.84z M754.92,368.11v-18.86c0-6.67-2.69-9.98-8.2-9.98s-8.2,3.31-8.2,9.98
		v18.86c0,6.92,2.45,9.98,8.2,9.98C752.47,378.09,754.92,375.03,754.92,368.11z M742.49,346.68h4.16c2.94,0,4.29,1.53,4.29,4.53
		v3.43c0,1.96-0.61,3.12-1.84,3.73v0.12c1.22,0.61,1.84,1.78,1.84,3.79v8.39h-2.51v-8.33c0-2.08-0.67-2.69-2.45-2.69H745v11.02
		h-2.51V346.68z M746.35,357.52c1.59,0,2.08-0.61,2.08-2.69v-3.31c0-2.08-0.49-2.69-2.08-2.69H745v8.69H746.35z"/>
	<path class="st1" d="M783.82,347.78H775v-5.46h23.94v5.46h-8.82v66.99h-6.3V347.78z"/>
	<path class="st1" d="M805.03,342.32h11.65c8.4,0,12.39,4.3,12.39,13.12v9.24c0,5.88-1.89,9.45-5.67,11.13v0.21
		c3.78,1.68,5.67,5.25,5.67,11.23v27.51h-6.3v-27.09c0-6.72-1.89-8.71-7.88-8.71h-3.57v35.8h-6.3V342.32z M815.95,373.5
		c5.25,0,6.82-1.99,6.82-8.71v-8.29c0-6.72-1.58-8.71-6.82-8.71h-4.62v25.72H815.95z"/>
	<path class="st1" d="M837.16,342.32h20.79v5.46h-14.49v25.3h12.6v5.46h-12.6v30.76h14.49v5.46h-20.79V342.32z"/>
	<path class="st1" d="M871.49,342.32h8.29l9.13,72.45h-6.4l-2.1-17.95h-9.87l-2.1,17.95h-6.09L871.49,342.32z M879.79,391.35
		l-4.2-39.06h-0.21l-4.2,39.06H879.79z"/>
	<path class="st1" d="M897.85,347.78h-8.82v-5.46h23.94v5.46h-8.82v66.99h-6.3V347.78z"/>
	<path class="st1" d="M919.06,342.32h9.97l8.08,53.44h0.21l8.08-53.44h10.39v72.45h-6.3v-64.78h-0.21l-9.76,64.78h-4.93l-9.76-64.78
		h-0.21v64.78h-5.56V342.32z"/>
	<path class="st1" d="M964.42,342.32h20.79v5.46h-14.49v25.3h12.6v5.46h-12.6v30.76h14.49v5.46h-20.79V342.32z"/>
	<path class="st1" d="M991.72,342.32h8.19l11.45,53.02h0.21v-53.02h5.67v72.45h-6.82l-12.81-59.74h-0.21v59.74h-5.67V342.32z"/>
	<path class="st1" d="M1032.14,347.78h-8.82v-5.46h23.94v5.46h-8.82v66.99h-6.3V347.78z"/>
	<path class="st1" d="M1047.05,406.16h7.03v8.61h-7.03V406.16z"/>
	<path class="st1" d="M1060.05,347.6l-5.26,3.31l-1.41-2.33l5.51-2.94l-5.51-2.88l1.41-2.33l5.26,3.31l-0.31-6.18h2.75l-0.31,6.18
		l5.27-3.31l1.41,2.33l-5.51,2.94l5.51,2.88l-1.41,2.33l-5.27-3.31l0.31,6.18h-2.75L1060.05,347.6z"/>
</g>
</svg>
