<?xml version="1.0" encoding="utf-8"?>
<!-- Generator: Adobe Illustrator 25.4.1, SVG Export Plug-In . SVG Version: 6.00 Build 0)  -->
<svg version="1.1" id="Layer_1" xmlns="http://www.w3.org/2000/svg" xmlns:xlink="http://www.w3.org/1999/xlink" x="0px" y="0px"
	 viewBox="0 0 970 250" style="enable-background:new 0 0 970 250;" xml:space="preserve">
<style type="text/css">
	.st0{fill:#00A9E0;}
</style>
<g>
	<path class="st0" d="M40.8,74.8h-4.41v-2.73h11.96v2.73h-4.41v33.47H40.8V74.8z"/>
	<path class="st0" d="M52.97,72.07h4.14l4.56,36.2h-3.2l-1.05-8.97H52.5l-1.05,8.97H48.4L52.97,72.07z M57.11,96.57l-2.1-19.52h-0.1
		l-2.1,19.52H57.11z"/>
	<path class="st0" d="M64.77,72.07h3.15v33.47h6.71v2.73h-9.86V72.07z"/>
	<path class="st0" d="M87.64,108.27l-6.71-18.26h-0.1v18.26h-3.15v-36.2h3.15v16.89h0.1l6.56-16.89h3.2l-6.77,17.26L91,108.27H87.64
		z"/>
	<path class="st0" d="M104.01,74.8H99.6v-2.73h11.96v2.73h-4.41v33.47h-3.15V74.8z"/>
	<path class="st0" d="M113.98,102.24V78.11c0-4.2,2.26-6.56,6.09-6.56s6.09,2.36,6.09,6.56v24.13c0,4.2-2.26,6.56-6.09,6.56
		S113.98,106.43,113.98,102.24z M123,101.71V78.63c0-3.04-0.84-4.25-2.94-4.25c-2.15,0-2.94,1.21-2.94,4.25v23.08
		c0,3.04,0.79,4.25,2.94,4.25C122.16,105.96,123,104.76,123,101.71z"/>
	<path class="st0" d="M140.84,91.38l-5.09-19.31H139l3.46,14.32h0.1l3.46-14.32h3.04l-5.09,19.31v16.89h-3.15V91.38z"/>
	<path class="st0" d="M151.07,102.24V78.11c0-4.2,2.26-6.56,6.09-6.56s6.09,2.36,6.09,6.56v24.13c0,4.2-2.26,6.56-6.09,6.56
		S151.07,106.43,151.07,102.24z M160.09,101.71V78.63c0-3.04-0.84-4.25-2.94-4.25c-2.15,0-2.94,1.21-2.94,4.25v23.08
		c0,3.04,0.79,4.25,2.94,4.25C159.25,105.96,160.09,104.76,160.09,101.71z"/>
	<path class="st0" d="M167.22,102.45V72.07h3.15v29.8c0,2.94,0.73,4.09,2.83,4.09c2.1,0,2.83-1.15,2.83-4.09v-29.8h3.04v30.37
		c0,4.04-2.2,6.35-5.93,6.35C169.43,108.79,167.22,106.49,167.22,102.45z"/>
	<path class="st0" d="M183.28,72.07h5.82c4.2,0,6.19,2.15,6.19,6.56v4.62c0,2.94-0.94,4.72-2.83,5.56v0.11
		c1.89,0.84,2.83,2.62,2.83,5.61v13.74h-3.15V94.74c0-3.36-0.94-4.35-3.93-4.35h-1.78v17.89h-3.15V72.07z M188.73,87.65
		c2.62,0,3.41-1,3.41-4.35v-4.14c0-3.36-0.79-4.35-3.41-4.35h-2.31v12.85H188.73z"/>
	<path class="st0" d="M206.15,72.07h5.98c4.2,0,6.19,2.15,6.19,6.56v5.67c0,4.41-1.99,6.56-6.19,6.56h-2.83v17.42h-3.15V72.07z
		 M211.76,88.13c2.62,0,3.41-1,3.41-4.35v-4.62c0-3.36-0.79-4.35-3.41-4.35h-2.47v13.33H211.76z"/>
	<path class="st0" d="M221.73,72.07h5.82c4.2,0,6.19,2.15,6.19,6.56v4.62c0,2.94-0.94,4.72-2.83,5.56v0.11
		c1.89,0.84,2.83,2.62,2.83,5.61v13.74h-3.15V94.74c0-3.36-0.94-4.35-3.93-4.35h-1.78v17.89h-3.15V72.07z M227.18,87.65
		c2.62,0,3.41-1,3.41-4.35v-4.14c0-3.36-0.79-4.35-3.41-4.35h-2.31v12.85H227.18z"/>
	<path class="st0" d="M237.57,102.24V78.11c0-4.2,2.26-6.56,6.09-6.56s6.09,2.36,6.09,6.56v24.13c0,4.2-2.26,6.56-6.09,6.56
		S237.57,106.43,237.57,102.24z M246.59,101.71V78.63c0-3.04-0.84-4.25-2.94-4.25c-2.15,0-2.94,1.21-2.94,4.25v23.08
		c0,3.04,0.79,4.25,2.94,4.25C245.75,105.96,246.59,104.76,246.59,101.71z"/>
	<path class="st0" d="M252.52,72.07h3.2l3.31,30.43h0.1l3.31-30.43h2.99l-4.35,36.2h-4.2L252.52,72.07z"/>
	<path class="st0" d="M268.58,72.07h3.15v36.2h-3.15V72.07z"/>
	<path class="st0" d="M276.02,72.07h5.98c4.2,0,6.19,2.15,6.19,6.56v23.08c0,4.41-1.99,6.56-6.19,6.56h-5.98V72.07z M281.64,105.54
		c2.62,0,3.41-1,3.41-4.35V79.16c0-3.36-0.79-4.35-3.41-4.35h-2.47v30.74H281.64z"/>
	<path class="st0" d="M292.23,72.07h10.39v2.73h-7.24v12.64h6.3v2.73h-6.3v15.37h7.24v2.73h-10.39V72.07z"/>
	<path class="st0" d="M305.87,72.07h5.82c4.2,0,6.19,2.15,6.19,6.56v4.62c0,2.94-0.94,4.72-2.83,5.56v0.11
		c1.89,0.84,2.83,2.62,2.83,5.61v13.74h-3.15V94.74c0-3.36-0.94-4.35-3.93-4.35h-1.78v17.89h-3.15V72.07z M311.33,87.65
		c2.62,0,3.41-1,3.41-4.35v-4.14c0-3.36-0.79-4.35-3.41-4.35h-2.31v12.85H311.33z"/>
	<path class="st0" d="M332.1,72.07h4.14l4.56,36.2h-3.2l-1.05-8.97h-4.93l-1.05,8.97h-3.04L332.1,72.07z M336.25,96.57l-2.1-19.52
		h-0.1l-2.1,19.52H336.25z"/>
	<path class="st0" d="M343.91,72.07h5.82c4.2,0,6.19,2.15,6.19,6.56v4.35c0,2.94-0.89,4.72-2.73,5.56v0.1
		c1.99,0.84,2.94,2.62,2.94,5.67v7.4c0,4.41-1.99,6.56-6.19,6.56h-6.03V72.07z M349.36,87.44c2.62,0,3.41-1,3.41-4.3v-3.99
		c0-3.36-0.79-4.35-3.41-4.35h-2.31v12.64H349.36z M349.57,105.54c2.62,0,3.41-1,3.41-4.35v-6.66c0-3.36-0.79-4.35-3.41-4.35h-2.52
		v15.37H349.57z"/>
	<path class="st0" d="M359.75,102.24V78.11c0-4.2,2.26-6.56,6.09-6.56s6.09,2.36,6.09,6.56v24.13c0,4.2-2.26,6.56-6.09,6.56
		S359.75,106.43,359.75,102.24z M368.77,101.71V78.63c0-3.04-0.84-4.25-2.94-4.25c-2.15,0-2.94,1.21-2.94,4.25v23.08
		c0,3.04,0.79,4.25,2.94,4.25C367.93,105.96,368.77,104.76,368.77,101.71z"/>
	<path class="st0" d="M375.91,102.45V72.07h3.15v29.8c0,2.94,0.73,4.09,2.83,4.09c2.1,0,2.83-1.15,2.83-4.09v-29.8h3.04v30.37
		c0,4.04-2.2,6.35-5.93,6.35C378.11,108.79,375.91,106.49,375.91,102.45z"/>
	<path class="st0" d="M395.11,74.8h-4.41v-2.73h11.96v2.73h-4.41v33.47h-3.15V74.8z"/>
	<path class="st0" d="M41.01,119.54h4.14l4.56,36.2h-3.2l-1.05-8.97h-4.93l-1.05,8.97h-3.04L41.01,119.54z M45.15,144.04l-2.1-19.52
		h-0.1l-2.1,19.52H45.15z"/>
	<path class="st0" d="M59.63,119.54h5.98c4.2,0,6.19,2.15,6.19,6.56v5.67c0,4.41-1.99,6.56-6.19,6.56h-2.83v17.42h-3.15V119.54z
		 M65.24,135.59c2.62,0,3.41-1,3.41-4.35v-4.62c0-3.36-0.79-4.35-3.41-4.35h-2.47v13.33H65.24z"/>
	<path class="st0" d="M75.21,119.54H85.6v2.73h-7.24v12.64h6.3v2.73h-6.3v15.37h7.24v2.73H75.21V119.54z"/>
	<path class="st0" d="M88.85,119.54h5.82c4.2,0,6.19,2.15,6.19,6.56v4.62c0,2.94-0.94,4.72-2.83,5.56v0.11
		c1.89,0.84,2.83,2.62,2.83,5.61v13.74h-3.15V142.2c0-3.36-0.94-4.35-3.93-4.35H92v17.89h-3.15V119.54z M94.31,135.12
		c2.62,0,3.41-1,3.41-4.35v-4.14c0-3.36-0.79-4.35-3.41-4.35H92v12.85H94.31z"/>
	<path class="st0" d="M104.33,149.81v-6.35h3.04v5.77c0,2.99,0.84,4.2,2.94,4.2c2.15,0,2.99-1.21,2.99-4.2v-5.46
		c0-2.47-0.68-3.67-2.47-4.83l-2.78-1.78c-2.68-1.73-3.72-3.72-3.72-7.24v-4.67c0-3.99,2.15-6.24,5.88-6.24s5.88,2.26,5.88,6.24
		v4.67h-3.04v-4.14c0-2.83-0.79-3.93-2.78-3.93c-1.99,0-2.78,1.1-2.78,3.93v3.93c0,2.46,0.68,3.67,2.47,4.83l2.78,1.78
		c2.68,1.73,3.72,3.72,3.72,7.24v6.24c0,4.14-2.26,6.45-6.09,6.45C106.53,156.26,104.33,153.95,104.33,149.81z"/>
	<path class="st0" d="M119.85,149.7v-24.13c0-4.2,2.26-6.56,6.09-6.56s6.09,2.36,6.09,6.56v24.13c0,4.2-2.26,6.56-6.09,6.56
		S119.85,153.9,119.85,149.7z M128.88,149.18v-23.08c0-3.04-0.84-4.25-2.94-4.25c-2.15,0-2.94,1.21-2.94,4.25v23.08
		c0,3.04,0.79,4.25,2.94,4.25C128.04,153.43,128.88,152.22,128.88,149.18z"/>
	<path class="st0" d="M136.12,119.54h4.09l5.72,26.49h0.1v-26.49h2.83v36.2h-3.41l-6.4-29.85h-0.1v29.85h-2.83V119.54z"/>
	<path class="st0" d="M156.52,119.54h4.14l4.56,36.2h-3.2l-1.05-8.97h-4.93l-1.05,8.97h-3.04L156.52,119.54z M160.67,144.04
		l-2.1-19.52h-0.1l-2.1,19.52H160.67z"/>
	<path class="st0" d="M168.33,119.54h3.15v33.47h6.71v2.73h-9.86V119.54z"/>
	<path class="st0" d="M181.23,119.54h3.15v36.2h-3.15V119.54z"/>
	<path class="st0" d="M187.52,153.27l8.55-31h-8.03v-2.73h11.33V122l-8.55,31h8.55v2.73h-11.86V153.27z"/>
	<path class="st0" d="M202.58,119.54h10.39v2.73h-7.24v12.64h6.3v2.73h-6.3v15.37h7.24v2.73h-10.39V119.54z"/>
	<path class="st0" d="M216.22,119.54h5.98c4.2,0,6.19,2.15,6.19,6.56v23.08c0,4.41-1.99,6.56-6.19,6.56h-5.98V119.54z
		 M221.83,153.01c2.62,0,3.41-1,3.41-4.35v-22.03c0-3.36-0.79-4.35-3.41-4.35h-2.47v30.74H221.83z"/>
	<path class="st0" d="M242.4,122.26h-4.41v-2.73h11.96v2.73h-4.41v33.47h-3.15V122.26z"/>
	<path class="st0" d="M252.99,119.54h5.82c4.2,0,6.19,2.15,6.19,6.56v4.62c0,2.94-0.94,4.72-2.83,5.56v0.11
		c1.89,0.84,2.83,2.62,2.83,5.61v13.74h-3.15V142.2c0-3.36-0.94-4.35-3.93-4.35h-1.78v17.89h-3.15V119.54z M258.45,135.12
		c2.62,0,3.41-1,3.41-4.35v-4.14c0-3.36-0.79-4.35-3.41-4.35h-2.31v12.85H258.45z"/>
	<path class="st0" d="M269.05,119.54h10.39v2.73h-7.24v12.64h6.3v2.73h-6.3v15.37h7.24v2.73h-10.39V119.54z"/>
	<path class="st0" d="M286.2,119.54h4.14l4.56,36.2h-3.2l-1.05-8.97h-4.93l-1.05,8.97h-3.04L286.2,119.54z M290.34,144.04
		l-2.1-19.52h-0.1l-2.1,19.52H290.34z"/>
	<path class="st0" d="M299.37,122.26h-4.41v-2.73h11.96v2.73h-4.41v33.47h-3.15V122.26z"/>
	<path class="st0" d="M309.96,119.54h4.98l4.04,26.7h0.1l4.04-26.7h5.19v36.2h-3.15v-32.37h-0.1l-4.88,32.37h-2.47l-4.88-32.37h-0.1
		v32.37h-2.78V119.54z"/>
	<path class="st0" d="M332.62,119.54h10.39v2.73h-7.24v12.64h6.3v2.73h-6.3v15.37h7.24v2.73h-10.39V119.54z"/>
	<path class="st0" d="M346.26,119.54h4.09l5.72,26.49h0.1v-26.49h2.83v36.2h-3.41l-6.4-29.85h-0.1v29.85h-2.83V119.54z"/>
	<path class="st0" d="M366.46,122.26h-4.41v-2.73h11.96v2.73h-4.41v33.47h-3.15V122.26z"/>
	<path class="st0" d="M383.88,119.54h5.98c4.2,0,6.19,2.15,6.19,6.56v5.67c0,4.41-1.99,6.56-6.19,6.56h-2.83v17.42h-3.15V119.54z
		 M389.49,135.59c2.62,0,3.41-1,3.41-4.35v-4.62c0-3.36-0.79-4.35-3.41-4.35h-2.47v13.33H389.49z"/>
	<path class="st0" d="M399.46,119.54h3.15v33.47h6.71v2.73h-9.86V119.54z"/>
	<path class="st0" d="M415.88,119.54h4.14l4.56,36.2h-3.2l-1.05-8.97h-4.93l-1.05,8.97h-3.04L415.88,119.54z M420.02,144.04
		l-2.1-19.52h-0.1l-2.1,19.52H420.02z"/>
	<path class="st0" d="M427.68,119.54h4.09l5.72,26.49h0.1v-26.49h2.83v36.2h-3.41l-6.4-29.85h-0.1v29.85h-2.83V119.54z"/>
	<path class="st0" d="M444.73,151.43h3.51v4.3h-3.51V151.43z"/>
</g>
</svg>
