<?xml version="1.0" encoding="utf-8"?>
<!-- Generator: Adobe Illustrator 25.4.1, SVG Export Plug-In . SVG Version: 6.00 Build 0)  -->
<svg version="1.1" id="Layer_1" xmlns="http://www.w3.org/2000/svg" xmlns:xlink="http://www.w3.org/1999/xlink" x="0px" y="0px"
	 viewBox="0 0 1940 500" style="enable-background:new 0 0 1940 500;" xml:space="preserve">
<style type="text/css">
	.st0{fill:#EAF5FB;}
	.st1{fill:#002457;}
</style>
<rect x="72.92" y="357.98" class="st0" width="477.96" height="90"/>
<g>
	<path class="st1" d="M134.66,394.16v6h11.67v5.71h-11.67v10.89h-7.38v-28.31h22v5.7H134.66z"/>
	<path class="st1" d="M160.91,416.77h-7.38v-28.31h7.38V416.77z"/>
	<path class="st1" d="M192.69,416.77h-8.19l-8.79-15.31l-2.14-4.29h-0.04l0.17,5.32v14.28h-6.52v-28.31h8.19l8.79,15.31l2.14,4.29
		h0.04l-0.17-5.32v-14.28h6.52V416.77z"/>
	<path class="st1" d="M224.69,402.61c0,9.05-4.85,14.15-13.73,14.15h-12.01v-28.31h12.01C219.85,388.46,224.69,393.56,224.69,402.61
		z M217.14,402.61c0-5.66-2.1-8.58-6.91-8.58h-3.9v17.16h3.9C215.04,411.19,217.14,408.27,217.14,402.61z"/>
	<path class="st1" d="M257.3,410.38h-9.78l-1.97,6.39h-7.42l9.95-28.31h8.83l9.91,28.31h-7.59L257.3,410.38z M255.75,405.36
		l-2.06-6.78l-1.24-4.46h-0.09l-1.16,4.42l-2.1,6.82H255.75z"/>
	<path class="st1" d="M305.38,397.85c0,5.79-3.9,9.09-10.94,9.09h-5.62v9.82h-7.38v-28.31h13
		C301.48,388.46,305.38,391.76,305.38,397.85z M297.96,397.76c0-2.49-1.42-3.73-4.67-3.73h-4.46v7.51h4.46
		C296.55,401.54,297.96,400.29,297.96,397.76z"/>
	<path class="st1" d="M321.77,406.43h-4.42v10.34h-7.25v-28.31h13.51c6.82,0,10.68,3.17,10.68,9.01c0,4.12-1.93,6.91-5.49,8.19
		l7.16,11.11h-8.15L321.77,406.43z M317.35,401.2h5.02c3.13,0,4.5-1.07,4.5-3.6c0-2.49-1.37-3.56-4.5-3.56h-5.02V401.2z"/>
	<path class="st1" d="M365.91,402.61c0,9.14-5.23,14.58-13.85,14.58s-13.9-5.45-13.9-14.58c0-9.14,5.28-14.58,13.9-14.58
		S365.91,393.47,365.91,402.61z M345.71,402.61c0,5.79,2.23,8.79,6.35,8.79c4.08,0,6.31-3,6.31-8.79c0-5.79-2.23-8.79-6.31-8.79
		C347.94,393.82,345.71,396.82,345.71,402.61z"/>
	<path class="st1" d="M386.07,416.77h-8.66l-10.08-28.31h7.76l5.19,17.11l1.54,5.58l1.5-5.49l5.28-17.2h7.51L386.07,416.77z"/>
	<path class="st1" d="M406.88,416.77h-7.38v-28.31h7.38V416.77z"/>
	<path class="st1" d="M438.87,402.61c0,9.05-4.85,14.15-13.73,14.15h-12.01v-28.31h12.01C434.03,388.46,438.87,393.56,438.87,402.61
		z M431.33,402.61c0-5.66-2.1-8.58-6.91-8.58h-3.9v17.16h3.9C429.22,411.19,431.33,408.27,431.33,402.61z"/>
	<path class="st1" d="M466.54,411.06v5.71h-22.6v-28.31h22.05v5.7h-14.67v5.75h11.67v5.36h-11.67v5.79H466.54z"/>
	<path class="st1" d="M482.67,406.43h-4.42v10.34H471v-28.31h13.51c6.82,0,10.68,3.17,10.68,9.01c0,4.12-1.93,6.91-5.49,8.19
		l7.16,11.11h-8.15L482.67,406.43z M478.25,401.2h5.02c3.13,0,4.5-1.07,4.5-3.6c0-2.49-1.37-3.56-4.5-3.56h-5.02V401.2z"/>
</g>
</svg>
