<?xml version="1.0" encoding="utf-8"?>
<!-- Generator: Adobe Illustrator 25.4.1, SVG Export Plug-In . SVG Version: 6.00 Build 0)  -->
<svg version="1.1" id="Layer_1" xmlns="http://www.w3.org/2000/svg" xmlns:xlink="http://www.w3.org/1999/xlink" x="0px" y="0px"
	 viewBox="0 0 1940 500" style="enable-background:new 0 0 1940 500;" xml:space="preserve">
<style type="text/css">
	.st0{fill:#00A9E0;}
</style>
<g>
	<path class="st0" d="M84.23,449.57l1.84,2.53l-1.64,1.19l-1.84-2.53l-0.84-1.61l-0.84,1.61l-1.81,2.53l-1.64-1.19l1.84-2.53
		l1.27-1.29l-1.79-0.32l-2.96-0.94l0.6-1.91l2.98,0.97l1.62,0.79l-0.25-1.79l-0.02-3.13h2.06l-0.02,3.13l-0.27,1.81l1.64-0.82
		l2.98-0.97l0.6,1.91l-2.96,0.94l-1.81,0.32L84.23,449.57z"/>
	<path class="st0" d="M103.43,445.96h-5.61v14.11h-2.66v-14.11h-5.61v-2.29h13.89V445.96z"/>
	<path class="st0" d="M117.06,452.03v8.05h-2.66v-7.21c0-2.46-1.14-3.28-2.66-3.28c-1.64,0-3.38,1.07-3.38,3.92v6.56h-2.66v-18.01
		h2.66v7.58c0.82-1.54,2.29-2.24,4.02-2.24C115.03,447.4,117.06,448.92,117.06,452.03z"/>
	<path class="st0" d="M131.97,454.86h-9.09c0.3,2.19,1.59,3.35,3.6,3.35c1.64,0,2.73-0.6,3.13-1.69l2.21,0.92
		c-0.89,1.84-2.61,2.88-5.34,2.88c-3.92,0-6.23-2.41-6.23-6.46s2.19-6.46,6.06-6.46c3.73,0,5.76,2.48,5.76,6.09
		C132.07,453.96,132.02,454.53,131.97,454.86z M122.9,452.82h6.68c-0.25-2.09-1.42-3.3-3.28-3.3
		C124.34,449.52,123.17,450.68,122.9,452.82z"/>
	<path class="st0" d="M155.38,453.84c0,4.07-2.14,6.48-5.51,6.48c-1.84,0-3.25-0.89-4-2.26v7.23h-2.66v-17.64h2.33l0.12,2.29
		c0.72-1.51,2.24-2.53,4.22-2.53C153.27,447.4,155.38,449.79,155.38,453.84z M152.73,453.86c0-2.71-1.29-4.32-3.43-4.32
		c-2.09,0-3.43,1.56-3.43,4.17v0.3c0,2.58,1.34,4.15,3.43,4.15C151.43,458.16,152.73,456.57,152.73,453.86z"/>
	<path class="st0" d="M166.48,447.65l-0.42,2.43c-0.35-0.2-0.89-0.32-1.57-0.32c-1.49,0-3.13,1.19-3.13,3.73v6.58h-2.66v-12.42h2.26
		l0.25,2.21c0.67-1.61,1.99-2.46,3.9-2.46C165.62,447.4,166.14,447.48,166.48,447.65z"/>
	<path class="st0" d="M168.42,443.9c0-1.04,0.65-1.64,1.79-1.64s1.76,0.6,1.76,1.64s-0.62,1.66-1.76,1.66
		S168.42,444.95,168.42,443.9z M171.52,460.07h-2.66v-12.42h2.66V460.07z"/>
	<path class="st0" d="M195.1,452.03v8.05h-2.66v-7.63c0-2.04-1.09-2.86-2.56-2.86c-1.74,0-3.23,1.32-3.23,3.73v6.76h-2.66v-7.63
		c0-2.04-1.09-2.86-2.56-2.86c-1.49,0-3.23,1.09-3.23,3.88v6.61h-2.66v-12.42h2.36l0.12,2.06c0.87-1.56,2.41-2.31,4.02-2.31
		c1.76,0,3.43,0.79,4.17,2.48c0.82-1.69,2.63-2.48,4.3-2.48C192.91,447.4,195.12,448.87,195.1,452.03z"/>
	<path class="st0" d="M210.64,458.24l-0.17,1.79c-0.4,0.17-0.92,0.3-1.54,0.3c-1.34,0-2.26-0.5-2.53-1.86
		c-0.77,1.19-2.36,1.86-4.2,1.86c-2.33,0-4.05-1.09-4.05-3.25c0-1.91,1.59-3.33,4.84-3.9l3.15-0.57v-0.65
		c0-1.49-0.92-2.46-2.53-2.46c-1.54,0-2.68,0.67-3.21,2.24l-2.06-1.09c0.6-1.96,2.51-3.23,5.22-3.23c3.1,0,5.24,1.42,5.24,4.4v5.61
		c0,0.62,0.25,0.92,0.92,0.92C210.05,458.33,210.37,458.31,210.64,458.24z M206.15,455.95v-1.49l-2.71,0.55
		c-1.69,0.32-2.53,0.89-2.53,1.89c0,0.92,0.7,1.42,1.86,1.42C204.43,458.31,206.15,457.44,206.15,455.95z"/>
	<path class="st0" d="M220.8,447.65l-0.42,2.43c-0.35-0.2-0.89-0.32-1.57-0.32c-1.49,0-3.13,1.19-3.13,3.73v6.58h-2.66v-12.42h2.26
		l0.25,2.21c0.67-1.61,1.99-2.46,3.9-2.46C219.93,447.4,220.45,447.48,220.8,447.65z"/>
	<path class="st0" d="M228.92,461.54c-1.09,2.88-2.36,3.88-4.6,3.88c-1.29,0-2.19-0.3-2.93-0.99l0.77-2.04
		c0.57,0.7,1.27,0.89,2.04,0.89c0.92,0,1.62-0.35,2.16-1.79l0.55-1.34l-1.29-3.08l-3.88-9.42h2.98l2.73,7.8l0.72,2.33l0.84-2.56
		l2.58-7.58h2.76L228.92,461.54z"/>
	<path class="st0" d="M255.62,453.86c0,4.05-2.31,6.46-6.19,6.46c-3.88,0-6.19-2.41-6.19-6.46s2.31-6.46,6.19-6.46
		C253.31,447.4,255.62,449.81,255.62,453.86z M245.93,453.86c0,2.81,1.27,4.37,3.5,4.37c2.24,0,3.53-1.57,3.53-4.37
		s-1.29-4.37-3.53-4.37C247.2,449.49,245.93,451.06,245.93,453.86z"/>
	<path class="st0" d="M271.07,453.89c0,4.05-2.11,6.43-5.49,6.43c-1.99,0-3.5-1.02-4.22-2.53l-0.12,2.29h-2.33v-18.01h2.66v7.6
		c0.75-1.37,2.16-2.26,4-2.26C268.93,447.4,271.07,449.81,271.07,453.89z M268.41,453.86c0-2.71-1.29-4.3-3.43-4.3
		c-2.09,0-3.43,1.56-3.43,4.15v0.3c0,2.61,1.34,4.17,3.43,4.17C267.12,458.19,268.41,456.57,268.41,453.86z"/>
	<path class="st0" d="M277.05,461.17c0,3.18-1.99,4.25-4.07,4.25c-1.12,0-2.06-0.32-2.73-0.82l0.47-2.14
		c0.45,0.37,1.12,0.7,1.91,0.7c1.07,0,1.76-0.57,1.76-2.24v-13.26h2.66V461.17z M277.5,443.9c0,0.99-0.7,1.66-1.76,1.66
		c-1.09,0-1.79-0.67-1.79-1.66c0-0.99,0.7-1.64,1.79-1.64C276.8,442.26,277.5,442.91,277.5,443.9z"/>
	<path class="st0" d="M292.05,454.86h-9.09c0.3,2.19,1.59,3.35,3.6,3.35c1.64,0,2.73-0.6,3.13-1.69l2.21,0.92
		c-0.89,1.84-2.61,2.88-5.34,2.88c-3.92,0-6.23-2.41-6.23-6.46s2.19-6.46,6.06-6.46c3.73,0,5.76,2.48,5.76,6.09
		C292.15,453.96,292.1,454.53,292.05,454.86z M282.98,452.82h6.68c-0.25-2.09-1.42-3.3-3.28-3.3
		C284.42,449.52,283.26,450.68,282.98,452.82z"/>
	<path class="st0" d="M306.21,450.88l-2.48,0.99c-0.42-1.54-1.37-2.36-2.91-2.36c-2.21,0-3.5,1.57-3.5,4.37
		c0,2.81,1.32,4.32,3.5,4.32c1.71,0,2.73-0.87,3.05-2.41l2.43,0.82c-0.7,2.26-2.56,3.7-5.44,3.7c-3.92,0-6.23-2.41-6.23-6.46
		s2.31-6.46,6.19-6.46C303.82,447.4,305.44,448.85,306.21,450.88z"/>
	<path class="st0" d="M317.33,459.25c-0.79,0.67-1.96,1.07-3.3,1.07c-2.14,0-3.78-0.97-3.8-3.53v-7.05h-2.36v-2.09h2.36v-2.91
		l2.66-0.74v3.65h4.35v2.09h-4.35v6.61c0,1.22,0.72,1.76,1.81,1.76c0.84,0,1.46-0.3,2.01-0.79L317.33,459.25z"/>
	<path class="st0" d="M319.24,443.9c0-1.04,0.65-1.64,1.79-1.64s1.76,0.6,1.76,1.64s-0.62,1.66-1.76,1.66
		S319.24,444.95,319.24,443.9z M322.35,460.07h-2.66v-12.42h2.66V460.07z"/>
	<path class="st0" d="M337.32,447.65l-4.94,12.42h-2.91l-4.97-12.42h2.93l3.5,10.26l3.6-10.26H337.32z"/>
	<path class="st0" d="M350.39,454.86h-9.09c0.3,2.19,1.59,3.35,3.6,3.35c1.64,0,2.73-0.6,3.13-1.69l2.21,0.92
		c-0.89,1.84-2.61,2.88-5.34,2.88c-3.92,0-6.23-2.41-6.23-6.46s2.19-6.46,6.06-6.46c3.73,0,5.76,2.48,5.76,6.09
		C350.49,453.96,350.44,454.53,350.39,454.86z M341.32,452.82H348c-0.25-2.09-1.42-3.3-3.28-3.3
		C342.76,449.52,341.59,450.68,341.32,452.82z"/>
	<path class="st0" d="M379.97,447.65l-4.15,12.42h-2.91l-3.13-9.39l-2.98,9.39h-2.91l-4.15-12.42h2.88l2.81,9.91l3.11-9.91h2.63
		l3.11,9.91l2.81-9.91H379.97z"/>
	<path class="st0" d="M394,458.24l-0.17,1.79c-0.4,0.17-0.92,0.3-1.54,0.3c-1.34,0-2.26-0.5-2.53-1.86
		c-0.77,1.19-2.36,1.86-4.2,1.86c-2.33,0-4.05-1.09-4.05-3.25c0-1.91,1.59-3.33,4.84-3.9l3.15-0.57v-0.65
		c0-1.49-0.92-2.46-2.53-2.46c-1.54,0-2.68,0.67-3.21,2.24l-2.06-1.09c0.6-1.96,2.51-3.23,5.22-3.23c3.1,0,5.24,1.42,5.24,4.4v5.61
		c0,0.62,0.25,0.92,0.92,0.92C393.4,458.33,393.72,458.31,394,458.24z M389.5,455.95v-1.49l-2.71,0.55
		c-1.69,0.32-2.53,0.89-2.53,1.89c0,0.92,0.7,1.42,1.86,1.42C387.79,458.31,389.5,457.44,389.5,455.95z"/>
	<path class="st0" d="M395.34,457.71l1.79-1.54c0.65,1.49,2.11,2.06,3.85,2.06c1.76,0,2.66-0.65,2.66-1.49
		c0-0.77-0.72-1.22-2.88-1.64c-3.7-0.7-4.99-1.76-4.99-3.85c0-2.01,1.89-3.85,5.22-3.85c2.76,0,4.32,0.89,5.22,2.81l-1.89,1.39
		c-0.62-1.49-1.69-2.11-3.3-2.11c-1.54,0-2.58,0.75-2.58,1.52c0,0.89,0.72,1.37,3.06,1.79c3.55,0.65,4.82,1.71,4.82,3.78
		c0,2.19-1.99,3.75-5.42,3.75C398.47,460.32,396.38,459.53,395.34,457.71z"/>
	<path class="st0" d="M424.99,459.25c-0.79,0.67-1.96,1.07-3.3,1.07c-2.14,0-3.78-0.97-3.8-3.53v-7.05h-2.36v-2.09h2.36v-2.91
		l2.66-0.74v3.65h4.35v2.09h-4.35v6.61c0,1.22,0.72,1.76,1.81,1.76c0.84,0,1.46-0.3,2.01-0.79L424.99,459.25z"/>
	<path class="st0" d="M439,453.86c0,4.05-2.31,6.46-6.18,6.46c-3.88,0-6.19-2.41-6.19-6.46s2.31-6.46,6.19-6.46
		C436.69,447.4,439,449.81,439,453.86z M429.31,453.86c0,2.81,1.27,4.37,3.5,4.37c2.24,0,3.53-1.57,3.53-4.37s-1.29-4.37-3.53-4.37
		C430.58,449.49,429.31,451.06,429.31,453.86z"/>
	<path class="st0" d="M461.23,454.86h-9.09c0.3,2.19,1.59,3.35,3.6,3.35c1.64,0,2.73-0.6,3.13-1.69l2.21,0.92
		c-0.89,1.84-2.61,2.88-5.34,2.88c-3.92,0-6.23-2.41-6.23-6.46s2.19-6.46,6.06-6.46c3.73,0,5.76,2.48,5.76,6.09
		C461.33,453.96,461.28,454.53,461.23,454.86z M452.16,452.82h6.68c-0.25-2.09-1.42-3.3-3.28-3.3
		C453.6,449.52,452.43,450.68,452.16,452.82z"/>
	<path class="st0" d="M475.11,447.65l-4.94,12.42h-2.91l-4.97-12.42h2.93l3.5,10.26l3.6-10.26H475.11z"/>
	<path class="st0" d="M488.59,458.24l-0.17,1.79c-0.4,0.17-0.92,0.3-1.54,0.3c-1.34,0-2.26-0.5-2.53-1.86
		c-0.77,1.19-2.36,1.86-4.2,1.86c-2.33,0-4.05-1.09-4.05-3.25c0-1.91,1.59-3.33,4.84-3.9l3.15-0.57v-0.65
		c0-1.49-0.92-2.46-2.53-2.46c-1.54,0-2.68,0.67-3.21,2.24l-2.06-1.09c0.6-1.96,2.51-3.23,5.22-3.23c3.11,0,5.24,1.42,5.24,4.4v5.61
		c0,0.62,0.25,0.92,0.92,0.92C488,458.33,488.32,458.31,488.59,458.24z M484.1,455.95v-1.49l-2.71,0.55
		c-1.69,0.32-2.53,0.89-2.53,1.89c0,0.92,0.7,1.42,1.86,1.42C482.38,458.31,484.1,457.44,484.1,455.95z"/>
	<path class="st0" d="M493.56,456.45c0,1.22,0.3,1.64,1.29,1.64c0.62,0,0.99-0.07,1.64-0.32l-0.3,2.14
		c-0.55,0.27-1.34,0.42-2.06,0.42c-2.21,0-3.23-1.09-3.23-3.5v-14.75h2.66V456.45z"/>
	<path class="st0" d="M509.85,447.65v12.42h-2.36l-0.12-2.01c-0.84,1.57-2.38,2.26-4.4,2.26c-2.48,0-4.47-1.27-4.47-4.5v-8.17h2.66
		v7.48c0,2.31,0.99,3.01,2.56,3.01c1.89,0,3.48-1.14,3.48-3.78v-6.71H509.85z"/>
	<path class="st0" d="M525.5,458.24l-0.17,1.79c-0.4,0.17-0.92,0.3-1.54,0.3c-1.34,0-2.26-0.5-2.53-1.86
		c-0.77,1.19-2.36,1.86-4.2,1.86c-2.33,0-4.05-1.09-4.05-3.25c0-1.91,1.59-3.33,4.84-3.9l3.15-0.57v-0.65
		c0-1.49-0.92-2.46-2.53-2.46c-1.54,0-2.68,0.67-3.21,2.24l-2.06-1.09c0.6-1.96,2.51-3.23,5.22-3.23c3.1,0,5.24,1.42,5.24,4.4v5.61
		c0,0.62,0.25,0.92,0.92,0.92C524.9,458.33,525.23,458.31,525.5,458.24z M521,455.95v-1.49l-2.71,0.55
		c-1.69,0.32-2.53,0.89-2.53,1.89c0,0.92,0.7,1.42,1.86,1.42C519.29,458.31,521,457.44,521,455.95z"/>
	<path class="st0" d="M535.43,459.25c-0.79,0.67-1.96,1.07-3.3,1.07c-2.14,0-3.78-0.97-3.8-3.53v-7.05h-2.36v-2.09h2.36v-2.91
		l2.66-0.74v3.65h4.35v2.09h-4.35v6.61c0,1.22,0.72,1.76,1.81,1.76c0.84,0,1.46-0.3,2.01-0.79L535.43,459.25z"/>
	<path class="st0" d="M548.79,454.86h-9.09c0.3,2.19,1.59,3.35,3.6,3.35c1.64,0,2.73-0.6,3.13-1.69l2.21,0.92
		c-0.89,1.84-2.61,2.88-5.34,2.88c-3.92,0-6.23-2.41-6.23-6.46s2.19-6.46,6.06-6.46c3.73,0,5.76,2.48,5.76,6.09
		C548.89,453.96,548.84,454.53,548.79,454.86z M539.73,452.82h6.68c-0.25-2.09-1.42-3.3-3.28-3.3
		C541.17,449.52,540,450.68,539.73,452.82z"/>
	<path class="st0" d="M571.69,453.86c0,4.05-2.31,6.46-6.18,6.46c-3.88,0-6.19-2.41-6.19-6.46s2.31-6.46,6.19-6.46
		C569.38,447.4,571.69,449.81,571.69,453.86z M562,453.86c0,2.81,1.27,4.37,3.5,4.37c2.24,0,3.53-1.57,3.53-4.37
		s-1.29-4.37-3.53-4.37C563.27,449.49,562,451.06,562,453.86z"/>
	<path class="st0" d="M585.85,447.65l-4.94,12.42H578l-4.97-12.42h2.93l3.5,10.26l3.6-10.26H585.85z"/>
	<path class="st0" d="M598.91,454.86h-9.09c0.3,2.19,1.59,3.35,3.6,3.35c1.64,0,2.73-0.6,3.13-1.69l2.21,0.92
		c-0.89,1.84-2.61,2.88-5.34,2.88c-3.92,0-6.23-2.41-6.23-6.46s2.19-6.46,6.06-6.46c3.73,0,5.76,2.48,5.76,6.09
		C599.01,453.96,598.96,454.53,598.91,454.86z M589.84,452.82h6.68c-0.25-2.09-1.42-3.3-3.28-3.3
		C591.29,449.52,590.12,450.68,589.84,452.82z"/>
	<path class="st0" d="M609.99,447.65l-0.42,2.43c-0.35-0.2-0.89-0.32-1.57-0.32c-1.49,0-3.13,1.19-3.13,3.73v6.58h-2.66v-12.42h2.26
		l0.25,2.21c0.67-1.61,1.99-2.46,3.9-2.46C609.12,447.4,609.64,447.48,609.99,447.65z"/>
	<path class="st0" d="M623.75,458.24l-0.17,1.79c-0.4,0.17-0.92,0.3-1.54,0.3c-1.34,0-2.26-0.5-2.53-1.86
		c-0.77,1.19-2.36,1.86-4.2,1.86c-2.33,0-4.05-1.09-4.05-3.25c0-1.91,1.59-3.33,4.84-3.9l3.15-0.57v-0.65
		c0-1.49-0.92-2.46-2.53-2.46c-1.54,0-2.68,0.67-3.21,2.24l-2.06-1.09c0.6-1.96,2.51-3.23,5.22-3.23c3.1,0,5.24,1.42,5.24,4.4v5.61
		c0,0.62,0.25,0.92,0.92,0.92C623.15,458.33,623.47,458.31,623.75,458.24z M619.25,455.95v-1.49l-2.71,0.55
		c-1.69,0.32-2.53,0.89-2.53,1.89c0,0.92,0.7,1.42,1.86,1.42C617.54,458.31,619.25,457.44,619.25,455.95z"/>
	<path class="st0" d="M628.71,456.45c0,1.22,0.3,1.64,1.29,1.64c0.62,0,0.99-0.07,1.64-0.32l-0.3,2.14
		c-0.55,0.27-1.34,0.42-2.06,0.42c-2.21,0-3.23-1.09-3.23-3.5v-14.75h2.66V456.45z"/>
	<path class="st0" d="M636.33,456.45c0,1.22,0.3,1.64,1.29,1.64c0.62,0,0.99-0.07,1.64-0.32l-0.3,2.14
		c-0.55,0.27-1.34,0.42-2.06,0.42c-2.21,0-3.23-1.09-3.23-3.5v-14.75h2.66V456.45z"/>
	<path class="st0" d="M660.78,453.84c0,4.07-2.14,6.48-5.51,6.48c-1.84,0-3.25-0.89-4-2.26v7.23h-2.66v-17.64h2.33l0.12,2.29
		c0.72-1.51,2.24-2.53,4.22-2.53C658.66,447.4,660.78,449.79,660.78,453.84z M658.12,453.86c0-2.71-1.29-4.32-3.43-4.32
		c-2.09,0-3.43,1.56-3.43,4.17v0.3c0,2.58,1.34,4.15,3.43,4.15C656.83,458.16,658.12,456.57,658.12,453.86z"/>
	<path class="st0" d="M675.73,458.24l-0.17,1.79c-0.4,0.17-0.92,0.3-1.54,0.3c-1.34,0-2.26-0.5-2.53-1.86
		c-0.77,1.19-2.36,1.86-4.2,1.86c-2.33,0-4.05-1.09-4.05-3.25c0-1.91,1.59-3.33,4.84-3.9l3.15-0.57v-0.65
		c0-1.49-0.92-2.46-2.53-2.46c-1.54,0-2.68,0.67-3.21,2.24l-2.06-1.09c0.6-1.96,2.51-3.23,5.22-3.23c3.1,0,5.24,1.42,5.24,4.4v5.61
		c0,0.62,0.25,0.92,0.92,0.92C675.13,458.33,675.45,458.31,675.73,458.24z M671.23,455.95v-1.49l-2.71,0.55
		c-1.69,0.32-2.53,0.89-2.53,1.89c0,0.92,0.7,1.42,1.86,1.42C669.52,458.31,671.23,457.44,671.23,455.95z"/>
	<path class="st0" d="M685.66,459.25c-0.79,0.67-1.96,1.07-3.3,1.07c-2.14,0-3.78-0.97-3.8-3.53v-7.05h-2.36v-2.09h2.36v-2.91
		l2.66-0.74v3.65h4.35v2.09h-4.35v6.61c0,1.22,0.72,1.76,1.81,1.76c0.84,0,1.47-0.3,2.01-0.79L685.66,459.25z"/>
	<path class="st0" d="M687.57,443.9c0-1.04,0.65-1.64,1.79-1.64s1.76,0.6,1.76,1.64s-0.62,1.66-1.76,1.66
		S687.57,444.95,687.57,443.9z M690.67,460.07h-2.66v-12.42h2.66V460.07z"/>
	<path class="st0" d="M705.7,454.86h-9.09c0.3,2.19,1.59,3.35,3.6,3.35c1.64,0,2.73-0.6,3.13-1.69l2.21,0.92
		c-0.89,1.84-2.61,2.88-5.34,2.88c-3.92,0-6.23-2.41-6.23-6.46s2.19-6.46,6.06-6.46c3.73,0,5.76,2.48,5.76,6.09
		C705.8,453.96,705.75,454.53,705.7,454.86z M696.63,452.82h6.68c-0.25-2.09-1.42-3.3-3.28-3.3
		C698.08,449.52,696.91,450.68,696.63,452.82z"/>
	<path class="st0" d="M720.35,452.03v8.05h-2.66v-7.21c0-2.46-1.14-3.28-2.66-3.28c-1.64,0-3.38,1.04-3.38,3.9v6.58H709v-12.42h2.36
		l0.12,2.09c0.84-1.64,2.41-2.34,4.2-2.34C718.32,447.4,720.35,448.92,720.35,452.03z"/>
	<path class="st0" d="M732.15,459.25c-0.79,0.67-1.96,1.07-3.3,1.07c-2.14,0-3.78-0.97-3.8-3.53v-7.05h-2.36v-2.09h2.36v-2.91
		l2.66-0.74v3.65h4.35v2.09h-4.35v6.61c0,1.22,0.72,1.76,1.81,1.76c0.84,0,1.47-0.3,2.01-0.79L732.15,459.25z"/>
	<path class="st0" d="M741.41,457.71l1.79-1.54c0.65,1.49,2.11,2.06,3.85,2.06c1.76,0,2.66-0.65,2.66-1.49
		c0-0.77-0.72-1.22-2.88-1.64c-3.7-0.7-4.99-1.76-4.99-3.85c0-2.01,1.89-3.85,5.22-3.85c2.76,0,4.32,0.89,5.22,2.81l-1.89,1.39
		c-0.62-1.49-1.69-2.11-3.3-2.11c-1.54,0-2.58,0.75-2.58,1.52c0,0.89,0.72,1.37,3.06,1.79c3.55,0.65,4.82,1.71,4.82,3.78
		c0,2.19-1.99,3.75-5.42,3.75C744.54,460.32,742.45,459.53,741.41,457.71z"/>
	<path class="st0" d="M767.12,458.24l-0.17,1.79c-0.4,0.17-0.92,0.3-1.54,0.3c-1.34,0-2.26-0.5-2.53-1.86
		c-0.77,1.19-2.36,1.86-4.2,1.86c-2.33,0-4.05-1.09-4.05-3.25c0-1.91,1.59-3.33,4.84-3.9l3.15-0.57v-0.65
		c0-1.49-0.92-2.46-2.53-2.46c-1.54,0-2.68,0.67-3.21,2.24l-2.06-1.09c0.6-1.96,2.51-3.23,5.22-3.23c3.1,0,5.24,1.42,5.24,4.4v5.61
		c0,0.62,0.25,0.92,0.92,0.92C766.52,458.33,766.85,458.31,767.12,458.24z M762.62,455.95v-1.49l-2.71,0.55
		c-1.69,0.32-2.53,0.89-2.53,1.89c0,0.92,0.7,1.42,1.86,1.42C760.91,458.31,762.62,457.44,762.62,455.95z"/>
	<path class="st0" d="M777.05,459.25c-0.79,0.67-1.96,1.07-3.3,1.07c-2.14,0-3.78-0.97-3.8-3.53v-7.05h-2.36v-2.09h2.36v-2.91
		l2.66-0.74v3.65h4.35v2.09h-4.35v6.61c0,1.22,0.72,1.76,1.81,1.76c0.84,0,1.46-0.3,2.01-0.79L777.05,459.25z"/>
	<path class="st0" d="M778.96,443.9c0-1.04,0.65-1.64,1.79-1.64s1.76,0.6,1.76,1.64s-0.62,1.66-1.76,1.66
		S778.96,444.95,778.96,443.9z M782.07,460.07h-2.66v-12.42h2.66V460.07z"/>
	<path class="st0" d="M785.05,457.71l1.79-1.54c0.65,1.49,2.11,2.06,3.85,2.06c1.76,0,2.66-0.65,2.66-1.49
		c0-0.77-0.72-1.22-2.88-1.64c-3.7-0.7-4.99-1.76-4.99-3.85c0-2.01,1.89-3.85,5.22-3.85c2.76,0,4.32,0.89,5.22,2.81l-1.89,1.39
		c-0.62-1.49-1.69-2.11-3.3-2.11c-1.54,0-2.58,0.75-2.58,1.52c0,0.89,0.72,1.37,3.06,1.79c3.55,0.65,4.82,1.71,4.82,3.78
		c0,2.19-1.99,3.75-5.42,3.75C788.18,460.32,786.09,459.53,785.05,457.71z"/>
	<path class="st0" d="M802.63,447.65h4.02v2.09h-3.95v10.33h-2.66v-10.33h-2.33v-2.09h2.33v-1.79c0-2.51,1.59-3.97,4.35-3.97
		c0.99,0,1.86,0.22,2.33,0.6l-0.5,1.94c-0.37-0.25-0.82-0.37-1.42-0.37c-1.39,0-2.19,0.6-2.19,2.01V447.65z"/>
	<path class="st0" d="M819.94,458.24l-0.17,1.79c-0.4,0.17-0.92,0.3-1.54,0.3c-1.34,0-2.26-0.5-2.53-1.86
		c-0.77,1.19-2.36,1.86-4.2,1.86c-2.33,0-4.05-1.09-4.05-3.25c0-1.91,1.59-3.33,4.84-3.9l3.15-0.57v-0.65
		c0-1.49-0.92-2.46-2.53-2.46c-1.54,0-2.68,0.67-3.21,2.24l-2.06-1.09c0.6-1.96,2.51-3.23,5.22-3.23c3.11,0,5.24,1.42,5.24,4.4v5.61
		c0,0.62,0.25,0.92,0.92,0.92C819.35,458.33,819.67,458.31,819.94,458.24z M815.45,455.95v-1.49l-2.71,0.55
		c-1.69,0.32-2.53,0.89-2.53,1.89c0,0.92,0.7,1.42,1.86,1.42C813.73,458.31,815.45,457.44,815.45,455.95z"/>
	<path class="st0" d="M833.16,450.88l-2.48,0.99c-0.42-1.54-1.37-2.36-2.91-2.36c-2.21,0-3.5,1.57-3.5,4.37
		c0,2.81,1.32,4.32,3.5,4.32c1.71,0,2.73-0.87,3.05-2.41l2.43,0.82c-0.7,2.26-2.56,3.7-5.44,3.7c-3.92,0-6.23-2.41-6.23-6.46
		s2.31-6.46,6.19-6.46C830.77,447.4,832.39,448.85,833.16,450.88z"/>
	<path class="st0" d="M844.28,459.25c-0.79,0.67-1.96,1.07-3.3,1.07c-2.14,0-3.78-0.97-3.8-3.53v-7.05h-2.36v-2.09h2.36v-2.91
		l2.66-0.74v3.65h4.35v2.09h-4.35v6.61c0,1.22,0.72,1.76,1.81,1.76c0.84,0,1.47-0.3,2.01-0.79L844.28,459.25z"/>
	<path class="st0" d="M846.19,443.9c0-1.04,0.65-1.64,1.79-1.64s1.76,0.6,1.76,1.64s-0.62,1.66-1.76,1.66
		S846.19,444.95,846.19,443.9z M849.3,460.07h-2.66v-12.42h2.66V460.07z"/>
	<path class="st0" d="M864.97,453.86c0,4.05-2.31,6.46-6.18,6.46c-3.88,0-6.19-2.41-6.19-6.46s2.31-6.46,6.19-6.46
		C862.66,447.4,864.97,449.81,864.97,453.86z M855.28,453.86c0,2.81,1.27,4.37,3.5,4.37c2.24,0,3.53-1.57,3.53-4.37
		s-1.29-4.37-3.53-4.37C856.55,449.49,855.28,451.06,855.28,453.86z"/>
	<path class="st0" d="M879.6,452.03v8.05h-2.66v-7.21c0-2.46-1.14-3.28-2.66-3.28c-1.64,0-3.38,1.04-3.38,3.9v6.58h-2.66v-12.42
		h2.36l0.12,2.09c0.84-1.64,2.41-2.34,4.2-2.34C877.56,447.4,879.6,448.92,879.6,452.03z"/>
	<path class="st0" d="M903.09,453.86c0,4.05-2.31,6.46-6.18,6.46c-3.88,0-6.19-2.41-6.19-6.46s2.31-6.46,6.19-6.46
		C900.78,447.4,903.09,449.81,903.09,453.86z M893.4,453.86c0,2.81,1.27,4.37,3.5,4.37c2.24,0,3.53-1.57,3.53-4.37
		s-1.29-4.37-3.53-4.37C894.67,449.49,893.4,451.06,893.4,453.86z"/>
	<path class="st0" d="M917.72,452.03v8.05h-2.66v-7.21c0-2.46-1.14-3.28-2.66-3.28c-1.64,0-3.38,1.04-3.38,3.9v6.58h-2.66v-12.42
		h2.36l0.12,2.09c0.84-1.64,2.41-2.34,4.2-2.34C915.68,447.4,917.72,448.92,917.72,452.03z"/>
	<path class="st0" d="M941.21,458.24l-0.17,1.79c-0.4,0.17-0.92,0.3-1.54,0.3c-1.34,0-2.26-0.5-2.53-1.86
		c-0.77,1.19-2.36,1.86-4.2,1.86c-2.33,0-4.05-1.09-4.05-3.25c0-1.91,1.59-3.33,4.84-3.9l3.15-0.57v-0.65
		c0-1.49-0.92-2.46-2.53-2.46c-1.54,0-2.68,0.67-3.21,2.24l-2.06-1.09c0.6-1.96,2.51-3.23,5.22-3.23c3.11,0,5.24,1.42,5.24,4.4v5.61
		c0,0.62,0.25,0.92,0.92,0.92C940.62,458.33,940.94,458.31,941.21,458.24z M936.72,455.95v-1.49l-2.71,0.55
		c-1.69,0.32-2.53,0.89-2.53,1.89c0,0.92,0.7,1.42,1.86,1.42C935,458.31,936.72,457.44,936.72,455.95z"/>
	<path class="st0" d="M954.2,446.06v1.59h4.02v2.09h-3.95v10.33h-2.66v-10.33h-2.33v-2.09h2.33v-1.79c0-2.51,1.59-3.97,4.35-3.97
		c0.99,0,1.86,0.22,2.34,0.6l-0.5,1.94c-0.37-0.25-0.82-0.37-1.42-0.37C955,444.05,954.2,444.65,954.2,446.06z M963.71,443.9
		c0,1.04-0.62,1.66-1.76,1.66s-1.79-0.62-1.79-1.66s0.65-1.64,1.79-1.64S963.71,442.86,963.71,443.9z M960.61,447.65h2.66v12.42
		h-2.66V447.65z"/>
	<path class="st0" d="M978.24,447.65l-4.94,12.42h-2.91l-4.97-12.42h2.93l3.5,10.26l3.6-10.26H978.24z"/>
	<path class="st0" d="M991.3,454.86h-9.09c0.3,2.19,1.59,3.35,3.6,3.35c1.64,0,2.73-0.6,3.13-1.69l2.21,0.92
		c-0.89,1.84-2.61,2.88-5.34,2.88c-3.92,0-6.23-2.41-6.23-6.46s2.19-6.46,6.06-6.46c3.73,0,5.76,2.48,5.76,6.09
		C991.4,453.96,991.35,454.53,991.3,454.86z M982.24,452.82h6.68c-0.25-2.09-1.42-3.3-3.28-3.3
		C983.68,449.52,982.51,450.68,982.24,452.82z"/>
	<path class="st0" d="M1014.72,453.84c0,4.07-2.14,6.48-5.51,6.48c-1.84,0-3.25-0.89-4-2.26v7.23h-2.66v-17.64h2.33l0.12,2.29
		c0.72-1.51,2.24-2.53,4.22-2.53C1012.61,447.4,1014.72,449.79,1014.72,453.84z M1012.07,453.86c0-2.71-1.29-4.32-3.43-4.32
		c-2.09,0-3.43,1.56-3.43,4.17v0.3c0,2.58,1.34,4.15,3.43,4.15C1010.77,458.16,1012.07,456.57,1012.07,453.86z"/>
	<path class="st0" d="M1029.7,453.86c0,4.05-2.31,6.46-6.19,6.46c-3.88,0-6.19-2.41-6.19-6.46s2.31-6.46,6.19-6.46
		C1027.39,447.4,1029.7,449.81,1029.7,453.86z M1020.01,453.86c0,2.81,1.27,4.37,3.5,4.37c2.24,0,3.53-1.57,3.53-4.37
		s-1.29-4.37-3.53-4.37C1021.28,449.49,1020.01,451.06,1020.01,453.86z"/>
	<path class="st0" d="M1032.53,443.9c0-1.04,0.65-1.64,1.79-1.64s1.76,0.6,1.76,1.64s-0.62,1.66-1.76,1.66
		S1032.53,444.95,1032.53,443.9z M1035.63,460.07h-2.66v-12.42h2.66V460.07z"/>
	<path class="st0" d="M1051.01,452.03v8.05h-2.66v-7.21c0-2.46-1.14-3.28-2.66-3.28c-1.64,0-3.38,1.04-3.38,3.9v6.58h-2.66v-12.42
		h2.36l0.12,2.09c0.84-1.64,2.41-2.34,4.2-2.34C1048.97,447.4,1051.01,448.92,1051.01,452.03z"/>
	<path class="st0" d="M1062.8,459.25c-0.79,0.67-1.96,1.07-3.3,1.07c-2.14,0-3.78-0.97-3.8-3.53v-7.05h-2.36v-2.09h2.36v-2.91
		l2.66-0.74v3.65h4.35v2.09h-4.35v6.61c0,1.22,0.72,1.76,1.81,1.76c0.84,0,1.47-0.3,2.01-0.79L1062.8,459.25z"/>
	<path class="st0" d="M1072.06,457.71l1.79-1.54c0.65,1.49,2.11,2.06,3.85,2.06c1.76,0,2.66-0.65,2.66-1.49
		c0-0.77-0.72-1.22-2.88-1.64c-3.7-0.7-4.99-1.76-4.99-3.85c0-2.01,1.89-3.85,5.22-3.85c2.76,0,4.32,0.89,5.22,2.81l-1.89,1.39
		c-0.62-1.49-1.69-2.11-3.3-2.11c-1.54,0-2.58,0.75-2.58,1.52c0,0.89,0.72,1.37,3.06,1.79c3.55,0.65,4.82,1.71,4.82,3.78
		c0,2.19-1.99,3.75-5.42,3.75C1075.19,460.32,1073.11,459.53,1072.06,457.71z"/>
	<path class="st0" d="M1096.95,450.88l-2.48,0.99c-0.42-1.54-1.37-2.36-2.91-2.36c-2.21,0-3.5,1.57-3.5,4.37
		c0,2.81,1.32,4.32,3.5,4.32c1.71,0,2.73-0.87,3.05-2.41l2.43,0.82c-0.7,2.26-2.56,3.7-5.44,3.7c-3.92,0-6.23-2.41-6.23-6.46
		s2.31-6.46,6.19-6.46C1094.57,447.4,1096.18,448.85,1096.95,450.88z"/>
	<path class="st0" d="M1111.68,458.24l-0.17,1.79c-0.4,0.17-0.92,0.3-1.54,0.3c-1.34,0-2.26-0.5-2.53-1.86
		c-0.77,1.19-2.36,1.86-4.2,1.86c-2.33,0-4.05-1.09-4.05-3.25c0-1.91,1.59-3.33,4.84-3.9l3.15-0.57v-0.65
		c0-1.49-0.92-2.46-2.53-2.46c-1.54,0-2.68,0.67-3.21,2.24l-2.06-1.09c0.6-1.96,2.51-3.23,5.22-3.23c3.11,0,5.24,1.42,5.24,4.4v5.61
		c0,0.62,0.25,0.92,0.92,0.92C1111.08,458.33,1111.41,458.31,1111.68,458.24z M1107.18,455.95v-1.49l-2.71,0.55
		c-1.69,0.32-2.53,0.89-2.53,1.89c0,0.92,0.7,1.42,1.86,1.42C1105.47,458.31,1107.18,457.44,1107.18,455.95z"/>
	<path class="st0" d="M1116.65,456.45c0,1.22,0.3,1.64,1.29,1.64c0.62,0,0.99-0.07,1.64-0.32l-0.3,2.14
		c-0.55,0.27-1.34,0.42-2.06,0.42c-2.21,0-3.23-1.09-3.23-3.5v-14.75h2.66V456.45z"/>
	<path class="st0" d="M1132.69,454.86h-9.09c0.3,2.19,1.59,3.35,3.6,3.35c1.64,0,2.73-0.6,3.13-1.69l2.21,0.92
		c-0.89,1.84-2.61,2.88-5.34,2.88c-3.92,0-6.23-2.41-6.23-6.46s2.19-6.46,6.06-6.46c3.73,0,5.76,2.48,5.76,6.09
		C1132.79,453.96,1132.74,454.53,1132.69,454.86z M1123.62,452.82h6.68c-0.25-2.09-1.42-3.3-3.28-3.3
		C1125.06,449.52,1123.9,450.68,1123.62,452.82z"/>
	<path class="st0" d="M1139.19,458.51c0,1.09-0.72,1.81-1.86,1.81s-1.89-0.72-1.89-1.81s0.75-1.79,1.89-1.79
		S1139.19,457.42,1139.19,458.51z"/>
	<path class="st0" d="M1156.95,442.91c-3.13,2.86-4.3,5.76-4.3,10.26s1.17,7.38,4.3,10.23l-1.39,1.39
		c-3.6-2.91-5.46-6.83-5.46-11.62c0-4.82,1.86-8.74,5.46-11.65L1156.95,442.91z"/>
	<path class="st0" d="M1170.09,452.03v8.05h-2.66v-7.21c0-2.46-1.14-3.28-2.66-3.28c-1.64,0-3.38,1.04-3.38,3.9v6.58h-2.66v-12.42
		h2.36l0.12,2.09c0.84-1.64,2.41-2.34,4.2-2.34C1168.05,447.4,1170.09,448.92,1170.09,452.03z"/>
	<path class="st0" d="M1185.34,450.98h-11.82v-2.19h11.82V450.98z M1185.34,456.07h-11.82v-2.19h11.82V456.07z"/>
	<path class="st0" d="M1200.66,451.9c0,5.62-2.33,8.42-6.51,8.42c-3,0-4.82-1.24-5.79-3.68l2.51-1.17c0.47,1.54,1.14,2.56,3.28,2.56
		c3.03,0,4.07-2.48,4.07-6.46v-0.27h-0.1c-0.5,2.09-2.53,2.81-4.37,2.81c-3.18,0-5.44-2.06-5.44-5.29c0-3.33,2.24-5.39,5.86-5.39
		C1198.38,443.43,1200.66,446.73,1200.66,451.9z M1190.98,448.85c0,1.86,1.17,3.01,3.21,3.01c1.91,0,3.2-1.22,3.2-3.01
		c0-1.86-1.29-3.08-3.2-3.08C1192.14,445.77,1190.98,446.91,1190.98,448.85z"/>
	<path class="st0" d="M1215.14,454.73c0,3.6-2.36,5.59-5.84,5.59c-3.03,0-4.84-1.24-5.94-3.6l2.48-1.37
		c0.45,1.64,1.27,2.71,3.4,2.71c2.04,0,3.3-1.17,3.28-3.18c-0.03-2.04-1.14-3.16-3.18-3.16c-1.44,0-2.63,0.42-3.33,1.42l-2.21-0.15
		l1.02-9.32h9.51v2.29h-7.4l-0.57,4.55l-0.05,0.35h0.03c0.75-0.82,1.96-1.32,3.63-1.32
		C1213.13,449.54,1215.14,451.65,1215.14,454.73z"/>
	<path class="st0" d="M1223.81,453.17c0,4.79-1.86,8.72-5.46,11.62l-1.39-1.39c3.13-2.86,4.3-5.74,4.3-10.23s-1.17-7.4-4.3-10.26
		l1.39-1.39C1221.94,444.42,1223.81,448.35,1223.81,453.17z"/>
</g>
</svg>
