<?xml version="1.0" encoding="utf-8"?>
<!-- Generator: Adobe Illustrator 25.4.1, SVG Export Plug-In . SVG Version: 6.00 Build 0)  -->
<svg version="1.1" id="Layer_1" xmlns="http://www.w3.org/2000/svg" xmlns:xlink="http://www.w3.org/1999/xlink" x="0px" y="0px"
	 viewBox="0 0 160 600" style="enable-background:new 0 0 160 600;" xml:space="preserve">
<style type="text/css">
	.st0{fill:#B7D7E8;}
	.st1{fill:#00ABE6;}
</style>
<g>
	<path class="st0" d="M42.1,119.1v16.87c0,2.73-1.47,4.28-4.06,4.28c-2.55,0-4.03-1.55-4.03-4.28v-2.41h2.05v2.01
		c0,2.01,0.58,2.81,1.94,2.81c1.37,0,1.98-0.79,1.98-2.81v-6.83h-0.07c-0.61,0.94-1.51,1.4-2.73,1.4c-2.05,0-3.24-1.4-3.24-3.81
		v-7.23c0-2.81,1.47-4.39,4.06-4.39C40.59,114.71,42.1,116.3,42.1,119.1z M36.06,119.39v6.73c0,1.47,0.54,2.16,1.65,2.16
		c1.4,0,2.27-1.15,2.27-3.09v-5.79c0-2.01-0.58-2.81-1.98-2.81C36.6,116.58,36.06,117.38,36.06,119.39z"/>
	<path class="st0" d="M49.44,135.75v-16.54c0-2.88,1.55-4.5,4.17-4.5s4.17,1.62,4.17,4.5v16.54c0,2.88-1.55,4.5-4.17,4.5
		S49.44,138.63,49.44,135.75z M55.62,135.39v-15.82c0-2.09-0.58-2.91-2.01-2.91c-1.47,0-2.01,0.83-2.01,2.91v15.82
		c0,2.09,0.54,2.91,2.01,2.91C55.05,138.31,55.62,137.48,55.62,135.39z"/>
	<path class="st0" d="M60.51,135.9v-20.82h2.16v20.43c0,2.01,0.5,2.81,1.94,2.81c1.44,0,1.94-0.79,1.94-2.81v-20.43h2.09v20.82
		c0,2.77-1.51,4.35-4.06,4.35C62.02,140.25,60.51,138.67,60.51,135.9z"/>
	<path class="st0" d="M73.67,116.94h-3.02v-1.87h8.2v1.87h-3.02v22.95h-2.16V116.94z"/>
	<path class="st0" d="M85.47,135.75v-16.54c0-2.88,1.55-4.5,4.17-4.5c2.62,0,4.17,1.62,4.17,4.5v16.54c0,2.88-1.55,4.5-4.17,4.5
		C87.01,140.25,85.47,138.63,85.47,135.75z M91.65,135.39v-15.82c0-2.09-0.58-2.91-2.01-2.91c-1.47,0-2.01,0.83-2.01,2.91v15.82
		c0,2.09,0.54,2.91,2.01,2.91C91.08,138.31,91.65,137.48,91.65,135.39z"/>
	<path class="st0" d="M96.61,115.07h7.12v1.87h-4.96v9.03h4.32v1.87h-4.32v12.05h-2.16V115.07z"/>
	<path class="st0" d="M112.8,117.52l-3.17,1.94v-2.01l3.96-2.45h1.33v24.89h-2.12V117.52z"/>
	<path class="st0" d="M117.72,135.86V119.1c0-2.81,1.47-4.39,4.06-4.39c2.59,0,4.06,1.58,4.06,4.39v16.76
		c0,2.81-1.47,4.39-4.06,4.39C119.2,140.25,117.72,138.67,117.72,135.86z M123.73,135.57v-16.18c0-2.01-0.54-2.81-1.94-2.81
		c-1.4,0-1.94,0.79-1.94,2.81v16.18c0,2.01,0.54,2.81,1.94,2.81C123.19,138.38,123.73,137.59,123.73,135.57z"/>
	<path class="st1" d="M43.25,146.04h4.1c2.88,0,4.24,1.47,4.24,4.5v3.88c0,3.02-1.37,4.5-4.24,4.5h-1.94v11.94h-2.16V146.04z
		 M47.1,157.04c1.8,0,2.34-0.68,2.34-2.98v-3.17c0-2.3-0.54-2.99-2.34-2.99h-1.69v9.14H47.1z"/>
	<path class="st1" d="M56.23,146.04h2.84l3.13,24.82h-2.19l-0.72-6.15h-3.38l-0.72,6.15H53.1L56.23,146.04z M59.07,162.84
		l-1.44-13.38h-0.07l-1.44,13.38H59.07z"/>
	<path class="st1" d="M66.48,147.91h-3.02v-1.87h8.2v1.87h-3.02v22.95h-2.16V147.91z"/>
	<path class="st1" d="M73.74,146.04h2.16v24.82h-2.16V146.04z"/>
	<path class="st1" d="M78.85,146.04h7.12v1.87h-4.96v8.67h4.32v1.87h-4.32v10.54h4.96v1.87h-7.12V146.04z"/>
	<path class="st1" d="M88.2,146.04H91l3.92,18.16H95v-18.16h1.94v24.82H94.6l-4.39-20.46h-0.07v20.46H88.2V146.04z"/>
	<path class="st1" d="M102.04,147.91h-3.02v-1.87h8.2v1.87h-3.02v22.95h-2.16V147.91z"/>
	<path class="st1" d="M108.91,166.79v-4.35H111v3.96c0,2.05,0.58,2.88,2.01,2.88c1.47,0,2.05-0.83,2.05-2.88v-3.74
		c0-1.69-0.47-2.52-1.69-3.31l-1.91-1.22c-1.83-1.19-2.55-2.55-2.55-4.96v-3.2c0-2.73,1.47-4.28,4.03-4.28
		c2.55,0,4.03,1.55,4.03,4.28v3.2h-2.09v-2.84c0-1.94-0.54-2.7-1.91-2.7c-1.37,0-1.91,0.76-1.91,2.7v2.7c0,1.69,0.47,2.52,1.69,3.31
		l1.91,1.22c1.83,1.19,2.55,2.55,2.55,4.96v4.28c0,2.84-1.55,4.42-4.17,4.42C110.42,171.22,108.91,169.63,108.91,166.79z"/>
	<path class="st1" d="M40.01,177h3.99c2.88,0,4.24,1.47,4.24,4.5v3.17c0,2.01-0.65,3.24-1.94,3.81v0.07
		c1.29,0.58,1.94,1.8,1.94,3.85v9.42h-2.16v-9.28c0-2.3-0.65-2.99-2.7-2.99h-1.22v12.26h-2.16V177z M43.75,187.69
		c1.8,0,2.34-0.68,2.34-2.98v-2.84c0-2.3-0.54-2.99-2.34-2.99h-1.58v8.81H43.75z"/>
	<path class="st1" d="M51.02,177h7.12v1.87h-4.96v8.67h4.32v1.87h-4.32v10.54h4.96v1.87h-7.12V177z"/>
	<path class="st1" d="M60.37,177h4.1c2.88,0,4.24,1.47,4.24,4.5v3.88c0,3.02-1.37,4.5-4.24,4.5h-1.94v11.94h-2.16V177z
		 M64.21,188.01c1.8,0,2.34-0.68,2.34-2.98v-3.17c0-2.3-0.54-2.99-2.34-2.99h-1.69v9.14H64.21z"/>
	<path class="st1" d="M70.9,197.68v-16.54c0-2.88,1.55-4.5,4.17-4.5s4.17,1.62,4.17,4.5v16.54c0,2.88-1.55,4.5-4.17,4.5
		S70.9,200.56,70.9,197.68z M77.09,197.32V181.5c0-2.09-0.58-2.91-2.01-2.91c-1.47,0-2.01,0.83-2.01,2.91v15.82
		c0,2.09,0.54,2.91,2.01,2.91C76.51,200.24,77.09,199.41,77.09,197.32z"/>
	<path class="st1" d="M82.05,177h3.99c2.88,0,4.24,1.47,4.24,4.5v3.17c0,2.01-0.65,3.24-1.94,3.81v0.07
		c1.29,0.58,1.94,1.8,1.94,3.85v9.42h-2.16v-9.28c0-2.3-0.65-2.99-2.7-2.99h-1.22v12.26h-2.16V177z M85.79,187.69
		c1.8,0,2.34-0.68,2.34-2.98v-2.84c0-2.3-0.54-2.99-2.34-2.99h-1.58v8.81H85.79z"/>
	<path class="st1" d="M95.21,178.87h-3.02V177h8.2v1.87h-3.02v22.95h-2.16V178.87z"/>
	<path class="st1" d="M102.47,177h7.12v1.87h-4.96v8.67h4.32v1.87h-4.32v10.54h4.96v1.87h-7.12V177z"/>
	<path class="st1" d="M111.82,177h4.1c2.88,0,4.24,1.47,4.24,4.5v15.82c0,3.02-1.37,4.5-4.24,4.5h-4.1V177z M115.67,199.95
		c1.8,0,2.34-0.68,2.34-2.99v-15.1c0-2.3-0.54-2.99-2.34-2.99h-1.69v21.08H115.67z"/>
	<path class="st1" d="M33.15,207.97h2.81l3.92,18.16h0.07v-18.16h1.94v24.82h-2.34l-4.39-20.46h-0.07v20.46h-1.94V207.97z"/>
	<path class="st1" d="M44.69,228.65v-16.54c0-2.88,1.55-4.5,4.17-4.5s4.17,1.62,4.17,4.5v16.54c0,2.88-1.55,4.5-4.17,4.5
		S44.69,231.53,44.69,228.65z M50.87,228.29v-15.82c0-2.09-0.58-2.91-2.01-2.91c-1.47,0-2.01,0.83-2.01,2.91v15.82
		c0,2.09,0.54,2.91,2.01,2.91C50.3,231.2,50.87,230.38,50.87,228.29z"/>
	<path class="st1" d="M57.99,209.84h-3.02v-1.87h8.2v1.87h-3.02v22.95h-2.16V209.84z"/>
	<path class="st1" d="M65.26,207.97h2.16v24.82h-2.16V207.97z"/>
	<path class="st1" d="M70.22,228.87v-16.98c0-2.73,1.44-4.28,4.03-4.28c2.63,0,4.06,1.55,4.06,4.28v4.06h-2.05v-3.7
		c0-1.94-0.58-2.7-1.94-2.7c-1.4,0-1.94,0.76-1.94,2.7v16.26c0,1.94,0.54,2.7,1.94,2.7c1.37,0,1.94-0.76,1.94-2.7v-5h2.05v5.36
		c0,2.73-1.44,4.28-4.06,4.28C71.66,233.15,70.22,231.6,70.22,228.87z"/>
	<path class="st1" d="M80.86,207.97h7.12v1.87h-4.96v8.67h4.32v1.87h-4.32v10.54h4.96v1.87h-7.12V207.97z"/>
	<path class="st1" d="M92.51,207.97h2.84l3.13,24.82h-2.19l-0.72-6.15h-3.38l-0.72,6.15h-2.09L92.51,207.97z M95.36,224.77
		l-1.44-13.38h-0.07l-1.44,13.38H95.36z"/>
	<path class="st1" d="M100.6,207.97h3.99c2.88,0,4.24,1.47,4.24,4.5v2.99c0,2.01-0.61,3.24-1.87,3.81v0.07
		c1.37,0.58,2.01,1.8,2.01,3.88v5.07c0,3.02-1.37,4.5-4.24,4.5h-4.14V207.97z M104.34,218.51c1.8,0,2.34-0.68,2.34-2.95v-2.73
		c0-2.3-0.54-2.99-2.34-2.99h-1.58v8.67H104.34z M104.49,230.92c1.8,0,2.34-0.68,2.34-2.99v-4.57c0-2.3-0.54-2.98-2.34-2.98h-1.73
		v10.54H104.49z"/>
	<path class="st1" d="M111.61,207.97h2.16v22.95h4.6v1.87h-6.76V207.97z"/>
	<path class="st1" d="M120.45,207.97h7.12v1.87h-4.96v8.67h4.32v1.87h-4.32v10.54h4.96v1.87h-7.12V207.97z"/>
	<path class="st1" d="M13.81,238.93h7.12v1.87h-4.96v9.03h4.32v1.87h-4.32v12.05h-2.16V238.93z"/>
	<path class="st1" d="M25.32,238.93h2.84l3.13,24.82H29.1l-0.72-6.15H25l-0.72,6.15h-2.09L25.32,238.93z M28.16,255.73l-1.44-13.38
		h-0.07l-1.44,13.38H28.16z"/>
	<path class="st1" d="M35.57,240.8h-3.02v-1.87h8.2v1.87h-3.02v22.95h-2.16V240.8z"/>
	<path class="st1" d="M47.5,238.93h3.99c2.88,0,4.24,1.47,4.24,4.5v3.17c0,2.01-0.65,3.24-1.94,3.81v0.07
		c1.29,0.58,1.94,1.8,1.94,3.85v9.42h-2.16v-9.28c0-2.3-0.65-2.99-2.7-2.99h-1.22v12.26H47.5V238.93z M51.24,249.62
		c1.8,0,2.34-0.68,2.34-2.98v-2.84c0-2.3-0.54-2.99-2.34-2.99h-1.58v8.81H51.24z"/>
	<path class="st1" d="M58.51,238.93h7.12v1.87h-4.96v8.67h4.32v1.87h-4.32v10.54h4.96v1.87h-7.12V238.93z"/>
	<path class="st1" d="M67.86,238.93h4.1c2.88,0,4.24,1.47,4.24,4.5v15.82c0,3.02-1.37,4.5-4.24,4.5h-4.1V238.93z M71.7,261.88
		c1.8,0,2.34-0.68,2.34-2.99v-15.1c0-2.3-0.54-2.99-2.34-2.99h-1.69v21.08H71.7z"/>
	<path class="st1" d="M78.9,259.76v-20.82h2.16v20.43c0,2.01,0.5,2.81,1.94,2.81s1.94-0.79,1.94-2.81v-20.43h2.09v20.82
		c0,2.77-1.51,4.35-4.06,4.35S78.9,262.53,78.9,259.76z"/>
	<path class="st1" d="M89.76,259.83v-16.98c0-2.73,1.44-4.28,4.03-4.28c2.63,0,4.06,1.55,4.06,4.28v4.06H95.8v-3.7
		c0-1.94-0.58-2.7-1.94-2.7c-1.4,0-1.94,0.76-1.94,2.7v16.26c0,1.94,0.54,2.7,1.94,2.7c1.37,0,1.94-0.76,1.94-2.7v-5h2.05v5.36
		c0,2.73-1.44,4.28-4.06,4.28C91.19,264.11,89.76,262.56,89.76,259.83z"/>
	<path class="st1" d="M102.56,240.8h-3.02v-1.87h8.2v1.87h-3.02v22.95h-2.16V240.8z"/>
	<path class="st1" d="M109.82,238.93h2.16v24.82h-2.16V238.93z"/>
	<path class="st1" d="M114.78,259.61v-16.54c0-2.88,1.55-4.5,4.17-4.5c2.62,0,4.17,1.62,4.17,4.5v16.54c0,2.88-1.55,4.5-4.17,4.5
		C116.33,264.11,114.78,262.49,114.78,259.61z M120.97,259.25v-15.82c0-2.09-0.58-2.91-2.01-2.91c-1.47,0-2.01,0.83-2.01,2.91v15.82
		c0,2.09,0.54,2.91,2.01,2.91C120.39,262.17,120.97,261.34,120.97,259.25z"/>
	<path class="st1" d="M125.93,238.93h2.81l3.92,18.16h0.07v-18.16h1.94v24.82h-2.34l-4.39-20.46h-0.07v20.46h-1.94V238.93z"/>
	<path class="st1" d="M137.62,260.8h2.41v2.95h-2.41V260.8z"/>
	<path class="st1" d="M144.23,240.75l-1.8,1.13l-0.48-0.8l1.89-1.01l-1.89-0.99l0.48-0.8l1.8,1.13l-0.1-2.12h0.94l-0.11,2.12
		l1.8-1.13l0.48,0.8l-1.89,1.01l1.89,0.99l-0.48,0.8l-1.8-1.13l0.11,2.12h-0.94L144.23,240.75z"/>
</g>
</svg>
