<?xml version="1.0" encoding="utf-8"?>
<!-- Generator: Adobe Illustrator 25.4.1, SVG Export Plug-In . SVG Version: 6.00 Build 0)  -->
<svg version="1.1" id="Layer_1" xmlns="http://www.w3.org/2000/svg" xmlns:xlink="http://www.w3.org/1999/xlink" x="0px" y="0px"
	 viewBox="0 0 160 600" style="enable-background:new 0 0 160 600;" xml:space="preserve">
<style type="text/css">
	.st0{fill:#BDD6E6;}
	.st1{fill:#00A9E0;}
</style>
<g>
	<path class="st0" d="M23.54,254.57c0.31-0.31,0.85-0.77,1.47-1.01c1.01-0.31,1.86,0.31,1.7,1.39c-0.31,2.25-0.7,5.5-0.54,6.74
		c0.7-0.15,4.18-3.64,5.96-5.42c0.62-0.62,1.32-1.39,1.94-2.01c1.7,0.15,1.16,1.32,0.77,1.7c-1.01,1.08-1.39,1.47-2.4,2.55
		c-1.86,1.78-4.34,4.65-5.96,4.88c-0.93,0.15-1.63-0.31-1.94-1.24c-0.54-1.24-0.08-4.41,0.31-6.35c-0.62,0.54-2.55,2.4-3.56,3.56
		c-1.08,1.32-2.17,2.56-3.33,3.87c-0.62,0.54-0.85,0.62-1.24,0.39c-0.85-0.46-0.31-1.63,0.08-2.4c1.94-3.87,4.03-7.82,6.04-11.69
		c0.16-0.39,0.46-0.62,0.77-0.54c0.39,0.08,0.7,0.46,0.7,0.85c-1.08,2.63-2.17,4.88-3.41,7.28
		C21.92,256.12,22.77,255.27,23.54,254.57z"/>
	<path class="st0" d="M39.18,256.74c2.17-0.23,4.88-1.32,6.35-2.48c1.63,0.39,1.01,1.39,0.62,1.7c-0.93,0.7-2.01,1.32-3.1,1.7
		c-1.94,0.62-3.95,1.01-5.42,0.85c0.31,0.62,0.46,2.01,0.08,3.1c-0.7,1.94-2.01,3.33-4.18,3.56c-2.79,0.15-3.56-2.48-3.02-4.65
		c1.01-3.72,4.26-7.9,7.36-9.29c1.24-0.54,2.4-0.15,2.4,1.39c0,1.63-1.86,3.41-2.71,4.1C38.02,256.82,38.64,256.82,39.18,256.74z
		 M35.47,258.6c-1.01,0.77-1.94,1.55-3.02,2.17c-0.15,0.08-0.23,0.15-0.23,0.31c-0.16,0.46-0.23,1.01-0.16,1.55
		c0.16,0.93,0.7,1.24,1.47,1.08c1.55-0.39,2.32-1.63,2.63-3.1c0.15-0.85-0.08-1.47-0.46-2.09C35.54,258.52,35.54,258.52,35.47,258.6
		z M37.94,253.33c-1.47,1.01-2.71,2.32-3.64,3.87C35.85,255.89,37.01,254.73,37.94,253.33z"/>
	<path class="st0" d="M59.08,239.24c2.79,0,4.65,0.08,6.5,0.23c0.77,0.08,1.63,0.39,1.32,1.24c-0.46,0.93-1.16,0.46-1.86,0.46
		c-2.25-0.08-4.49-0.15-6.74-0.23c-0.31,0-0.46,0.08-0.7,0.39c-1.86,2.63-4.18,5.11-6.58,6.97c-0.23,0.15-0.46,0.39-0.62,0.7
		c-5.11,8.98-9.6,17.81-12.7,27.02c-0.15,0.31-0.15,0.62-0.15,1.01c0,0.39-0.15,0.62-0.46,0.77c-0.31,0.15-0.62,0.08-0.93-0.23
		c-0.46-0.62-0.31-1.32-0.15-1.94c3.02-9.29,7.35-17.58,11.69-25.32c2.09-3.64,3.87-6.5,5.57-9.37c-4.49,0-7.97,0.15-11.46,0.15
		c-0.7,0.15-2.17-0.39-1.47-1.39c0.46-0.62,2.01-0.15,2.56-0.15c3.87-0.08,7.51-0.31,11.23-0.31c0.23,0,0.39-0.08,0.62-0.31
		c1.01-1.47,2.94-5.03,4.72-5.11c1.08,0.08,1.32,0.77,1.16,1.55C60.32,236.61,59.7,238,59.08,239.24z M55.21,241.1
		c-0.23,0.39-0.46,0.77-0.85,1.63c0.46-0.54,0.93-1.24,1.39-1.7C55.36,240.95,55.36,240.95,55.21,241.1z M57.14,239.17
		c0.31-0.46,0.62-1.16,0.85-1.7c-0.54,0.62-0.93,1.16-1.32,1.7C56.91,239.24,56.99,239.17,57.14,239.17z"/>
	<path class="st0" d="M50.87,255.11c0.77-1.55,1.63-3.02,2.71-4.26c0.08-0.08,0.23-0.23,0.31-0.31c0.31-0.15,0.62-0.08,0.93,0.15
		c0.23,0.23,0.39,0.62,0.23,0.93c-0.08,0.08-0.15,0.23-0.23,0.31c-1.63,2.32-3.56,5.88-3.64,8.28c0,0.54,0.23,0.7,0.62,0.62
		c0.62-0.15,1.16-0.46,1.63-0.77c2.4-1.78,4.57-3.79,6.58-5.81c1.7,0.15,1.39,1.16,0.85,1.63c-2.17,2.01-4.1,4.03-6.35,5.65
		c-0.7,0.46-1.47,0.85-2.4,1.01c-1.32,0.16-2.4-0.7-2.56-2.01C49.32,258.6,50.18,256.74,50.87,255.11z M56.06,247.53
		c-0.46,0-0.85-0.39-0.93-0.77c0-0.46,0.39-0.85,0.93-0.85c0.39,0,0.7,0.31,0.77,0.7C56.91,247.14,56.53,247.53,56.06,247.53z"/>
	<path class="st0" d="M67.67,246.98c1.08-0.15,2.01,0.31,2.48,1.24c0.39,0.85,0.54,1.78,0.46,2.79c-0.15,0.39-0.31,0.77-0.85,0.77
		c-0.54-0.15-0.7-0.62-0.7-1.08c0-0.46-0.08-0.93-0.23-1.39c-0.23-0.62-0.54-0.77-1.08-0.54c-1.55,0.77-3.33,2.56-4.26,3.64
		c-1.86,2.25-4.57,6.12-4.41,8.83c0.23,2.4,3.41,1.24,4.8,0.54c1.78-0.85,3.41-1.94,5.03-3.1c2.01-1.39,5.96-4.41,5.96-4.41
		c1.63,0.39,0.85,1.47,0.7,1.63c-1.94,1.39-3.87,2.86-5.81,4.26c-2.79,2.09-7.59,5.03-10.14,4.1c-1.24-0.39-2.09-1.39-2.25-2.79
		c-0.23-2.71,1.39-5.57,3.02-7.82C61.79,251.55,65.35,247.45,67.67,246.98z"/>
	<path class="st0" d="M81.53,248.84c1.01,0,1.63,0.85,1.47,1.78c-0.93,2.79-3.64,4.88-6.04,5.96c-0.46,0.23-1.01,0.39-1.47,0.39
		c-0.23,0-0.31,0.08-0.39,0.23c-0.46,1.01-0.85,2.25-0.77,3.1c0.15,2.09,2.79,0.54,3.64,0c2.86-2.17,7.43-6.04,7.43-6.04
		c1.63,0.15,1.24,1.24,0.7,1.63c-2.48,2.09-4.88,4.34-7.35,5.96c-1.32,0.85-2.71,1.39-4.1,1.16c-1.08-0.23-1.86-1.24-2.01-2.48
		c-0.23-2.01,1.08-5.11,2.94-7.28C77.2,251.4,79.67,248.84,81.53,248.84z M76.5,255.04c1.86-1.08,3.48-2.4,4.57-4.26
		C79.91,251.09,76.66,254.11,76.5,255.04z"/>
	<path class="st0" d="M83.08,258.37c0.46-2.17,2.25-4.34,4.03-5.81c1.32-1.01,3.02-1.86,4.34-0.77c0.08,0.08,0.23,0.15,0.31,0.15
		c0.7,0.31,0.77,1.01,0.46,1.55c-0.77,1.78-1.55,3.56-2.17,5.34c-0.08,0.31-0.23,0.85-0.23,1.24c0,1.55,2.94-1.08,3.25-1.32
		c1.86-1.63,5.34-4.41,5.34-4.49c1.63,0.23,1.24,1.24,0.77,1.55c-1.7,1.47-3.41,2.86-5.03,4.26c-1.16,0.93-2.55,2.01-3.95,2.17
		c-1.39,0.15-2.01-0.93-2.09-1.86c-0.16-1.24,0.46-2.4,0.77-3.48c-1.55,1.55-3.25,3.1-4.26,3.17
		C83.54,260.15,82.85,259.37,83.08,258.37z M87.03,256.28c1.08-1.16,2.09-2.17,2.86-3.25c-0.54,0.08-1.01,0.39-1.32,0.62
		c-1.47,1.01-3.41,3.79-3.64,4.49C85.4,257.82,86.64,256.66,87.03,256.28z"/>
	<path class="st0" d="M104.29,251.24c1.24-1.01,2.63-1.94,4.03-2.17c1.63-0.31,3.02,0.7,3.25,2.4c0.15,2.01-0.39,3.48-1.01,4.8
		c2.63-0.39,5.11-1.01,7.43-2.01c1.47,0.39,1.24,1.39,0.31,1.78c-2.01,0.85-4.1,1.39-6.27,1.78c-0.77,0.08-1.62,0.31-2.4,0.39
		c-0.23,0.08-0.31,0.15-0.46,0.31c-0.54,0.7-1.08,1.32-1.7,1.94c-1.01,0.93-2.09,1.63-3.33,1.63c-1.39,0.08-2.32-1.16-2.09-2.48
		c0.16-0.85,0.7-1.39,1.47-1.78c1.47-0.62,2.94-0.85,4.49-1.08c0.23,0,0.31-0.08,0.39-0.23c0.7-1.24,1.32-2.56,1.47-4.03
		c0-1.01-0.08-1.7-0.85-1.7c-1.86-0.23-5.11,3.1-6.19,4.26c-2.48,2.63-4.57,5.5-6.43,8.59c-0.77,1.32-1.55,2.79-2.32,4.18
		c-0.23,0.54-0.62,0.93-1.32,0.54c-0.77-0.39-0.39-1.39-0.15-1.94c2.79-5.88,5.19-11.38,8.21-16.65c1.94-3.48,4.1-6.89,6.35-10.22
		c0.77-1.32,1.7-2.4,2.55-3.64c0.23-0.15,0.46-0.23,0.77-0.08c0.54,0.16,0.7,0.77,0.39,1.16c-1.08,1.7-1.94,3.1-2.94,4.57
		c-2.4,3.64-4.72,7.35-6.81,11.23c-0.46,0.93-1.01,2.09-1.47,3.33C100.27,255.19,102.67,252.56,104.29,251.24z M106.54,258.83
		c-0.85,0.08-2.79,0.39-2.79,1.47C104.45,260.46,106,259.68,106.54,258.83z"/>
	<path class="st0" d="M119.01,265.18c3.1-3.1,6.19-6.19,9.37-9.29c0.39-0.39,1.55-1.63,1.55-1.63c1.47,0.15,1.47,1.01,0.46,2.01
		c-1.32,1.32-2.94,3.02-4.34,4.34c-7.28,7.05-8.13,8.21-9.91,8.59c-1.01,0.23-1.94-0.31-2.25-1.47c-0.46-2.09,0.08-4.41,0.7-6.27
		c1.08-2.86,2.4-5.57,3.87-8.13c1.32-2.4,2.71-4.65,4.26-6.81c1.55-2.17,5.03-7.28,7.2-7.43c0.93-0.08,1.39,0.39,1.24,1.32
		c-0.85,3.41-5.03,7.74-7.9,10.61c-1.01,1.01-2.09,2.01-3.1,2.94c-0.08,0.08-0.16,0.15-0.23,0.23c-1.47,2.71-2.86,5.5-3.87,8.44
		c-0.54,1.63-0.85,3.79-0.39,4.88C116.3,267.42,118.15,266.03,119.01,265.18z M128.22,242.26c-1.16,1.32-2.25,2.56-3.1,4.03
		C125.74,245.82,128.14,242.73,128.22,242.26z"/>
	<path class="st0" d="M136.58,248.84c1.01,0,1.63,0.85,1.47,1.78c-0.93,2.79-3.64,4.88-6.04,5.96c-0.46,0.23-1.01,0.39-1.47,0.39
		c-0.23,0-0.31,0.08-0.39,0.23c-0.46,1.01-0.85,2.25-0.77,3.1c0.16,2.09,2.79,0.54,3.64,0c2.87-2.17,7.43-6.04,7.43-6.04
		c1.63,0.15,1.24,1.24,0.7,1.63c-2.48,2.09-4.88,4.34-7.36,5.96c-1.32,0.85-2.71,1.39-4.1,1.16c-1.08-0.23-1.86-1.24-2.01-2.48
		c-0.23-2.01,1.08-5.11,2.94-7.28C132.24,251.4,134.72,248.84,136.58,248.84z M131.55,255.04c1.86-1.08,3.48-2.4,4.57-4.26
		C134.95,251.09,131.7,254.11,131.55,255.04z"/>
</g>
<g>
	<path class="st1" d="M15.7,164.27h3.31l4.63,21.44h0.08v-21.44h2.29v29.3h-2.76l-5.18-24.16H18v24.16H15.7V164.27z"/>
	<path class="st1" d="M29.21,188.69v-19.53c0-3.4,1.83-5.31,4.93-5.31c3.1,0,4.93,1.91,4.93,5.31v19.53c0,3.4-1.83,5.31-4.93,5.31
		C31.03,194,29.21,192.08,29.21,188.69z M36.51,188.26v-18.68c0-2.46-0.68-3.44-2.38-3.44c-1.74,0-2.38,0.98-2.38,3.44v18.68
		c0,2.46,0.64,3.44,2.38,3.44C35.83,191.7,36.51,190.73,36.51,188.26z"/>
	<path class="st1" d="M42.24,164.27h3.31l4.63,21.44h0.08v-21.44h2.29v29.3H49.8l-5.18-24.16h-0.08v24.16h-2.29V164.27z"/>
	<path class="st1" d="M55.44,188.77v-5.14h2.46v4.67c0,2.42,0.68,3.4,2.38,3.4c1.74,0,2.42-0.98,2.42-3.4v-4.42
		c0-2-0.55-2.97-2-3.91l-2.25-1.44c-2.17-1.4-3.02-3.02-3.02-5.86v-3.78c0-3.23,1.74-5.05,4.76-5.05c3.01,0,4.76,1.83,4.76,5.05
		v3.78h-2.46v-3.35c0-2.29-0.64-3.19-2.25-3.19c-1.61,0-2.25,0.89-2.25,3.19v3.19c0,2,0.55,2.97,2,3.91l2.25,1.44
		c2.17,1.4,3.02,3.01,3.02,5.86v5.05c0,3.35-1.83,5.22-4.93,5.22C57.23,194,55.44,192.13,55.44,188.77z"/>
	<path class="st1" d="M67.97,188.86v-24.59h2.55v24.12c0,2.38,0.59,3.31,2.29,3.31s2.29-0.93,2.29-3.31v-24.12h2.46v24.59
		c0,3.27-1.78,5.14-4.8,5.14S67.97,192.13,67.97,188.86z"/>
	<path class="st1" d="M80.83,164.27h4.71c3.4,0,5.01,1.74,5.01,5.31v3.74c0,2.38-0.76,3.82-2.29,4.5v0.08
		c1.53,0.68,2.29,2.12,2.29,4.54v11.13h-2.55v-10.96c0-2.72-0.76-3.52-3.19-3.52h-1.44v14.48h-2.55V164.27z M85.25,176.88
		c2.12,0,2.76-0.81,2.76-3.52V170c0-2.72-0.64-3.52-2.76-3.52h-1.87v10.4H85.25z"/>
	<path class="st1" d="M93.53,189.41v-20.3c0-3.35,1.83-5.27,4.88-5.27c3.1,0,4.84,1.91,4.84,5.27v3.23h-2.42v-2.76
		c0-2.46-0.68-3.44-2.38-3.44c-1.74,0-2.38,0.98-2.38,3.44v19.53c0,1.74,0.64,2.59,2.04,2.59c1.74,0,2.72-1.32,2.72-3.69v-8.41
		h-2.38v-2.21h4.93v16.18h-2.17v-2.08h-0.13c-0.68,1.61-1.91,2.51-3.65,2.51C94.97,194,93.53,192.25,93.53,189.41z"/>
	<path class="st1" d="M106.44,164.27h2.55v29.3h-2.55V164.27z"/>
	<path class="st1" d="M112.17,188.94V168.9c0-3.23,1.7-5.05,4.76-5.05c3.1,0,4.8,1.83,4.8,5.05v4.8h-2.42v-4.37
		c0-2.29-0.68-3.19-2.29-3.19c-1.66,0-2.29,0.89-2.29,3.19v19.19c0,2.29,0.64,3.18,2.29,3.18c1.61,0,2.29-0.89,2.29-3.18v-5.9h2.42
		v6.33c0,3.23-1.7,5.05-4.8,5.05C113.87,194,112.17,192.17,112.17,188.94z"/>
	<path class="st1" d="M127.33,164.27h3.35l3.69,29.3h-2.59l-0.85-7.26h-3.99l-0.85,7.26h-2.46L127.33,164.27z M130.68,184.1
		l-1.7-15.8h-0.08l-1.7,15.8H130.68z"/>
	<path class="st1" d="M136.75,164.27h2.55v27.09h5.44v2.21h-7.98V164.27z"/>
	<path class="st1" d="M18.91,203.44h-3.57v-2.21h9.68v2.21h-3.57v27.09h-2.55V203.44z"/>
	<path class="st1" d="M27.36,201.23h4.71c3.4,0,5.01,1.74,5.01,5.31v3.74c0,2.38-0.76,3.82-2.29,4.5v0.08
		c1.53,0.68,2.29,2.12,2.29,4.54v11.13h-2.55v-10.96c0-2.72-0.76-3.52-3.18-3.52h-1.44v14.48h-2.55V201.23z M31.77,213.85
		c2.12,0,2.76-0.81,2.76-3.52v-3.35c0-2.72-0.64-3.52-2.76-3.52h-1.87v10.4H31.77z"/>
	<path class="st1" d="M40.22,201.23h8.41v2.21h-5.86v10.23h5.1v2.21h-5.1v12.44h5.86v2.21h-8.41V201.23z"/>
	<path class="st1" d="M53.85,201.23h3.35l3.69,29.3h-2.59l-0.85-7.26h-3.99l-0.85,7.26h-2.46L53.85,201.23z M57.21,221.07l-1.7-15.8
		h-0.08l-1.7,15.8H57.21z"/>
	<path class="st1" d="M65.83,203.44h-3.57v-2.21h9.68v2.21h-3.57v27.09h-2.55V203.44z"/>
	<path class="st1" d="M74.27,201.23h4.03l3.27,21.61h0.08l3.27-21.61h4.2v29.3h-2.55v-26.2H86.5l-3.95,26.2h-2l-3.95-26.2h-0.08
		v26.2h-2.25V201.23z"/>
	<path class="st1" d="M92.49,201.23h8.41v2.21h-5.86v10.23h5.1v2.21h-5.1v12.44h5.86v2.21h-8.41V201.23z"/>
	<path class="st1" d="M103.4,201.23h3.31l4.63,21.44h0.08v-21.44h2.29v29.3h-2.76l-5.18-24.16h-0.08v24.16h-2.29V201.23z"/>
	<path class="st1" d="M119.62,203.44h-3.57v-2.21h9.68v2.21h-3.57v27.09h-2.55V203.44z"/>
	<path class="st1" d="M127.6,225.74v-5.14h2.46v4.67c0,2.42,0.68,3.4,2.38,3.4c1.74,0,2.42-0.98,2.42-3.4v-4.42
		c0-2-0.55-2.97-2-3.91l-2.25-1.44c-2.17-1.4-3.01-3.02-3.01-5.86v-3.78c0-3.23,1.74-5.05,4.76-5.05c3.01,0,4.76,1.83,4.76,5.05
		v3.78h-2.46v-3.35c0-2.29-0.64-3.19-2.25-3.19c-1.61,0-2.25,0.89-2.25,3.19v3.19c0,2,0.55,2.97,2,3.91l2.25,1.44
		c2.17,1.4,3.01,3.01,3.01,5.86v5.05c0,3.35-1.83,5.22-4.93,5.22C129.38,230.96,127.6,229.09,127.6,225.74z"/>
	<path class="st1" d="M140.21,227.05h2.84v3.48h-2.84V227.05z"/>
	<path class="st1" d="M37.21,275.16h4.71c3.4,0,5.01,1.74,5.01,5.31v3.74c0,2.38-0.76,3.82-2.29,4.5v0.08
		c1.53,0.68,2.29,2.12,2.29,4.54v11.13h-2.55v-10.96c0-2.72-0.76-3.52-3.18-3.52h-1.44v14.48h-2.55V275.16z M41.62,287.78
		c2.12,0,2.76-0.81,2.76-3.52v-3.35c0-2.72-0.64-3.52-2.76-3.52h-1.87v10.4H41.62z"/>
	<path class="st1" d="M50.07,275.16h8.41v2.21h-5.86v10.23h5.1v2.21h-5.1v12.44h5.86v2.21h-8.41V275.16z"/>
	<path class="st1" d="M60.52,299.67v-5.14h2.46v4.67c0,2.42,0.68,3.4,2.38,3.4c1.74,0,2.42-0.98,2.42-3.4v-4.42
		c0-2-0.55-2.97-2-3.91l-2.25-1.44c-2.17-1.4-3.02-3.02-3.02-5.86v-3.78c0-3.23,1.74-5.05,4.76-5.05c3.01,0,4.76,1.83,4.76,5.05
		v3.78h-2.46v-3.35c0-2.29-0.64-3.19-2.25-3.19c-1.61,0-2.25,0.89-2.25,3.19v3.19c0,2,0.55,2.97,2,3.91l2.25,1.44
		c2.17,1.4,3.02,3.01,3.02,5.86v5.05c0,3.35-1.83,5.22-4.93,5.22C62.3,304.89,60.52,303.02,60.52,299.67z"/>
	<path class="st1" d="M73.04,299.75v-24.59h2.55v24.12c0,2.38,0.59,3.31,2.29,3.31s2.29-0.93,2.29-3.31v-24.12h2.46v24.59
		c0,3.27-1.78,5.14-4.8,5.14S73.04,303.02,73.04,299.75z"/>
	<path class="st1" d="M85.91,275.16h2.55v27.09h5.44v2.21h-7.98V275.16z"/>
	<path class="st1" d="M98.77,277.37h-3.57v-2.21h9.68v2.21h-3.57v27.09h-2.55V277.37z"/>
	<path class="st1" d="M106.75,299.67v-5.14h2.46v4.67c0,2.42,0.68,3.4,2.38,3.4c1.74,0,2.42-0.98,2.42-3.4v-4.42
		c0-2-0.55-2.97-2-3.91l-2.25-1.44c-2.17-1.4-3.01-3.02-3.01-5.86v-3.78c0-3.23,1.74-5.05,4.76-5.05c3.01,0,4.76,1.83,4.76,5.05
		v3.78h-2.46v-3.35c0-2.29-0.64-3.19-2.25-3.19c-1.61,0-2.25,0.89-2.25,3.19v3.19c0,2,0.55,2.97,2,3.91l2.25,1.44
		c2.17,1.4,3.01,3.01,3.01,5.86v5.05c0,3.35-1.83,5.22-4.93,5.22C108.54,304.89,106.75,303.02,106.75,299.67z"/>
	<path class="st1" d="M119.37,300.98h2.84v3.48h-2.84V300.98z"/>
</g>
</svg>
