<?xml version="1.0" encoding="utf-8"?>
<!-- Generator: Adobe Illustrator 25.4.1, SVG Export Plug-In . SVG Version: 6.00 Build 0)  -->
<svg version="1.1" id="Layer_1" xmlns="http://www.w3.org/2000/svg" xmlns:xlink="http://www.w3.org/1999/xlink" x="0px" y="0px"
	 viewBox="0 0 160 600" style="enable-background:new 0 0 160 600;" xml:space="preserve">
<style type="text/css">
	.st0{fill:#00A9E0;}
</style>
<g>
	<path class="st0" d="M56.19,117.49h-2.56v-1.58h6.95v1.58h-2.56v19.44h-1.83V117.49z"/>
	<path class="st0" d="M63.26,115.91h2.41l2.65,21.03h-1.86l-0.61-5.21h-2.86l-0.61,5.21h-1.77L63.26,115.91z M65.67,130.14
		l-1.22-11.34h-0.06l-1.22,11.34H65.67z"/>
	<path class="st0" d="M70.12,115.91h1.83v19.44h3.9v1.58h-5.73V115.91z"/>
	<path class="st0" d="M83.4,136.94l-3.9-10.6h-0.06v10.6h-1.83v-21.03h1.83v9.81h0.06l3.81-9.81h1.86l-3.93,10.02l4.11,11H83.4z"/>
	<path class="st0" d="M92.9,117.49h-2.56v-1.58h6.95v1.58h-2.56v19.44H92.9V117.49z"/>
	<path class="st0" d="M98.69,133.43v-14.02c0-2.44,1.31-3.81,3.53-3.81c2.22,0,3.54,1.37,3.54,3.81v14.02
		c0,2.44-1.31,3.81-3.54,3.81C100,137.24,98.69,135.87,98.69,133.43z M103.93,133.13v-13.41c0-1.77-0.49-2.47-1.71-2.47
		c-1.25,0-1.71,0.7-1.71,2.47v13.41c0,1.77,0.46,2.47,1.71,2.47C103.44,135.59,103.93,134.89,103.93,133.13z"/>
	<path class="st0" d="M29.76,154.09l-2.96-11.21h1.89l2.01,8.32h0.06l2.01-8.32h1.77l-2.96,11.21v9.81h-1.83V154.09z"/>
	<path class="st0" d="M35.7,160.4v-14.02c0-2.44,1.31-3.81,3.53-3.81s3.53,1.37,3.53,3.81v14.02c0,2.44-1.31,3.81-3.53,3.81
		S35.7,162.84,35.7,160.4z M40.95,160.1v-13.41c0-1.77-0.49-2.47-1.71-2.47c-1.25,0-1.71,0.7-1.71,2.47v13.41
		c0,1.77,0.46,2.47,1.71,2.47C40.46,162.56,40.95,161.86,40.95,160.1z"/>
	<path class="st0" d="M45.09,160.52v-17.64h1.83v17.31c0,1.71,0.43,2.38,1.65,2.38s1.65-0.67,1.65-2.38v-17.31h1.77v17.64
		c0,2.35-1.28,3.69-3.44,3.69S45.09,162.87,45.09,160.52z"/>
	<path class="st0" d="M54.41,142.88h3.38c2.44,0,3.6,1.25,3.6,3.81v2.68c0,1.71-0.55,2.74-1.65,3.23v0.06
		c1.1,0.49,1.65,1.52,1.65,3.26v7.98h-1.83v-7.86c0-1.95-0.55-2.53-2.29-2.53h-1.04v10.39h-1.83V142.88z M57.58,151.93
		c1.52,0,1.98-0.58,1.98-2.53v-2.41c0-1.95-0.46-2.53-1.98-2.53h-1.34v7.47H57.58z"/>
	<path class="st0" d="M67.69,142.88h3.47c2.44,0,3.6,1.25,3.6,3.81v3.29c0,2.56-1.16,3.81-3.6,3.81h-1.65v10.12h-1.83V142.88z
		 M70.95,152.2c1.52,0,1.98-0.58,1.98-2.53v-2.68c0-1.95-0.46-2.53-1.98-2.53h-1.43v7.74H70.95z"/>
	<path class="st0" d="M76.74,142.88h3.38c2.44,0,3.6,1.25,3.6,3.81v2.68c0,1.71-0.55,2.74-1.65,3.23v0.06
		c1.1,0.49,1.65,1.52,1.65,3.26v7.98h-1.83v-7.86c0-1.95-0.55-2.53-2.29-2.53h-1.04v10.39h-1.83V142.88z M79.91,151.93
		c1.52,0,1.98-0.58,1.98-2.53v-2.41c0-1.95-0.46-2.53-1.98-2.53h-1.34v7.47H79.91z"/>
	<path class="st0" d="M85.94,160.4v-14.02c0-2.44,1.31-3.81,3.53-3.81c2.22,0,3.54,1.37,3.54,3.81v14.02c0,2.44-1.31,3.81-3.54,3.81
		C87.25,164.21,85.94,162.84,85.94,160.4z M91.18,160.1v-13.41c0-1.77-0.49-2.47-1.71-2.47c-1.25,0-1.71,0.7-1.71,2.47v13.41
		c0,1.77,0.46,2.47,1.71,2.47C90.69,162.56,91.18,161.86,91.18,160.1z"/>
	<path class="st0" d="M94.62,142.88h1.86l1.92,17.67h0.06l1.92-17.67h1.74l-2.53,21.03h-2.44L94.62,142.88z"/>
	<path class="st0" d="M103.95,142.88h1.83v21.03h-1.83V142.88z"/>
	<path class="st0" d="M108.27,142.88h3.47c2.44,0,3.6,1.25,3.6,3.81v13.41c0,2.56-1.16,3.81-3.6,3.81h-3.47V142.88z M111.53,162.32
		c1.52,0,1.98-0.58,1.98-2.53v-12.8c0-1.95-0.46-2.53-1.98-2.53h-1.43v17.86H111.53z"/>
	<path class="st0" d="M117.69,142.88h6.03v1.58h-4.21v7.34h3.66v1.58h-3.66v8.93h4.21v1.58h-6.03V142.88z"/>
	<path class="st0" d="M125.61,142.88h3.38c2.44,0,3.6,1.25,3.6,3.81v2.68c0,1.71-0.55,2.74-1.65,3.23v0.06
		c1.1,0.49,1.65,1.52,1.65,3.26v7.98h-1.83v-7.86c0-1.95-0.55-2.53-2.29-2.53h-1.04v10.39h-1.83V142.88z M128.78,151.93
		c1.52,0,1.98-0.58,1.98-2.53v-2.41c0-1.95-0.46-2.53-1.98-2.53h-1.34v7.47H128.78z"/>
	<path class="st0" d="M54.47,169.85h2.41l2.65,21.03h-1.86l-0.61-5.21H54.2l-0.61,5.21h-1.77L54.47,169.85z M56.88,184.08
		l-1.22-11.34H55.6l-1.22,11.34H56.88z"/>
	<path class="st0" d="M61.33,169.85h3.38c2.44,0,3.6,1.25,3.6,3.81v2.53c0,1.71-0.52,2.74-1.58,3.23v0.06
		c1.16,0.49,1.71,1.52,1.71,3.29v4.3c0,2.56-1.16,3.81-3.6,3.81h-3.5V169.85z M64.5,178.78c1.52,0,1.98-0.58,1.98-2.5v-2.32
		c0-1.95-0.46-2.53-1.98-2.53h-1.34v7.34H64.5z M64.62,189.29c1.52,0,1.98-0.58,1.98-2.53v-3.87c0-1.95-0.46-2.53-1.98-2.53h-1.46
		v8.93H64.62z"/>
	<path class="st0" d="M70.53,187.37v-14.02c0-2.44,1.31-3.81,3.53-3.81s3.53,1.37,3.53,3.81v14.02c0,2.44-1.31,3.81-3.53,3.81
		S70.53,189.81,70.53,187.37z M75.77,187.07v-13.41c0-1.77-0.49-2.47-1.71-2.47c-1.25,0-1.71,0.7-1.71,2.47v13.41
		c0,1.77,0.46,2.47,1.71,2.47C75.28,189.53,75.77,188.83,75.77,187.07z"/>
	<path class="st0" d="M79.91,187.49v-17.64h1.83v17.31c0,1.71,0.43,2.38,1.65,2.38s1.65-0.67,1.65-2.38v-17.31h1.77v17.64
		c0,2.35-1.28,3.69-3.44,3.69C81.19,191.18,79.91,189.84,79.91,187.49z"/>
	<path class="st0" d="M91.06,171.43H88.5v-1.58h6.95v1.58h-2.56v19.44h-1.83V171.43z"/>
	<path class="st0" d="M103.12,169.85h2.41l2.65,21.03h-1.86l-0.61-5.21h-2.86l-0.61,5.21h-1.77L103.12,169.85z M105.53,184.08
		l-1.22-11.34h-0.06l-1.22,11.34H105.53z"/>
	<path class="st0" d="M31.07,196.82h3.47c2.44,0,3.6,1.25,3.6,3.81v3.29c0,2.56-1.16,3.81-3.6,3.81H32.9v10.12h-1.83V196.82z
		 M34.33,206.14c1.52,0,1.98-0.58,1.98-2.53v-2.68c0-1.95-0.46-2.53-1.98-2.53H32.9v7.74H34.33z"/>
	<path class="st0" d="M40.12,196.82h6.03v1.58h-4.21v7.34h3.66v1.58h-3.66v8.93h4.21v1.58h-6.03V196.82z"/>
	<path class="st0" d="M48.04,196.82h3.38c2.44,0,3.6,1.25,3.6,3.81v2.68c0,1.71-0.55,2.74-1.65,3.23v0.06
		c1.1,0.49,1.65,1.52,1.65,3.26v7.98h-1.83v-7.86c0-1.95-0.55-2.53-2.29-2.53h-1.04v10.39h-1.83V196.82z M51.21,205.87
		c1.52,0,1.98-0.58,1.98-2.53v-2.41c0-1.95-0.46-2.53-1.98-2.53h-1.34v7.47H51.21z"/>
	<path class="st0" d="M57.03,214.4v-3.69h1.77v3.35c0,1.74,0.49,2.44,1.71,2.44c1.25,0,1.74-0.7,1.74-2.44v-3.17
		c0-1.43-0.4-2.13-1.43-2.8l-1.62-1.04c-1.55-1.01-2.16-2.16-2.16-4.21v-2.71c0-2.32,1.25-3.63,3.41-3.63s3.41,1.31,3.41,3.63v2.71
		h-1.77v-2.41c0-1.65-0.46-2.29-1.62-2.29c-1.16,0-1.61,0.64-1.61,2.29v2.29c0,1.43,0.4,2.13,1.43,2.8l1.61,1.04
		c1.55,1.01,2.16,2.16,2.16,4.21v3.63c0,2.41-1.31,3.75-3.53,3.75S57.03,216.81,57.03,214.4z"/>
	<path class="st0" d="M66.05,214.34v-14.02c0-2.44,1.31-3.81,3.53-3.81s3.53,1.37,3.53,3.81v14.02c0,2.44-1.31,3.81-3.53,3.81
		S66.05,216.78,66.05,214.34z M71.29,214.04v-13.41c0-1.77-0.49-2.47-1.71-2.47c-1.25,0-1.71,0.7-1.71,2.47v13.41
		c0,1.77,0.46,2.47,1.71,2.47C70.8,216.5,71.29,215.8,71.29,214.04z"/>
	<path class="st0" d="M75.49,196.82h2.38l3.32,15.39h0.06v-15.39h1.65v21.03h-1.98L77.2,200.5h-0.06v17.34h-1.65V196.82z"/>
	<path class="st0" d="M87.34,196.82h2.41l2.65,21.03h-1.86l-0.61-5.21h-2.86l-0.61,5.21h-1.77L87.34,196.82z M89.75,211.05
		l-1.22-11.34h-0.06l-1.22,11.34H89.75z"/>
	<path class="st0" d="M94.2,196.82h1.83v19.44h3.9v1.58H94.2V196.82z"/>
	<path class="st0" d="M101.69,196.82h1.83v21.03h-1.83V196.82z"/>
	<path class="st0" d="M105.35,216.41l4.97-18.01h-4.66v-1.58h6.58v1.43l-4.97,18.01h4.97v1.58h-6.89V216.41z"/>
	<path class="st0" d="M114.09,196.82h6.03v1.58h-4.21v7.34h3.66v1.58h-3.66v8.93h4.21v1.58h-6.03V196.82z"/>
	<path class="st0" d="M122.01,196.82h3.47c2.44,0,3.6,1.25,3.6,3.81v13.41c0,2.56-1.16,3.81-3.6,3.81h-3.47V196.82z M125.27,216.26
		c1.52,0,1.98-0.58,1.98-2.53v-12.8c0-1.95-0.46-2.53-1.98-2.53h-1.43v17.86H125.27z"/>
	<path class="st0" d="M21.14,225.37h-2.56v-1.58h6.95v1.58h-2.56v19.44h-1.83V225.37z"/>
	<path class="st0" d="M27.3,223.79h3.38c2.44,0,3.6,1.25,3.6,3.81v2.68c0,1.71-0.55,2.74-1.65,3.23v0.06
		c1.1,0.49,1.65,1.52,1.65,3.26v7.98h-1.83v-7.86c0-1.95-0.55-2.53-2.29-2.53h-1.04v10.39H27.3V223.79z M30.47,232.84
		c1.52,0,1.98-0.58,1.98-2.53v-2.41c0-1.95-0.46-2.53-1.98-2.53h-1.34v7.47H30.47z"/>
	<path class="st0" d="M36.62,223.79h6.03v1.58h-4.21v7.34h3.66v1.58h-3.66v8.93h4.21v1.58h-6.03V223.79z"/>
	<path class="st0" d="M46.58,223.79h2.41l2.65,21.03h-1.86l-0.61-5.21h-2.86l-0.61,5.21h-1.77L46.58,223.79z M48.99,238.02
		l-1.22-11.34h-0.06l-1.22,11.34H48.99z"/>
	<path class="st0" d="M54.23,225.37h-2.56v-1.58h6.95v1.58h-2.56v19.44h-1.83V225.37z"/>
	<path class="st0" d="M60.38,223.79h2.89l2.35,15.51h0.06l2.35-15.51h3.02v21.03h-1.83v-18.8h-0.06l-2.83,18.8h-1.43l-2.83-18.8H62
		v18.8h-1.61V223.79z"/>
	<path class="st0" d="M73.54,223.79h6.03v1.58h-4.21v7.34h3.66v1.58h-3.66v8.93h4.21v1.58h-6.03V223.79z"/>
	<path class="st0" d="M81.46,223.79h2.38l3.32,15.39h0.06v-15.39h1.65v21.03h-1.98l-3.72-17.34h-0.06v17.34h-1.65V223.79z"/>
	<path class="st0" d="M93.19,225.37h-2.56v-1.58h6.95v1.58h-2.56v19.44h-1.83V225.37z"/>
	<path class="st0" d="M103.31,223.79h3.47c2.44,0,3.6,1.25,3.6,3.81v3.29c0,2.56-1.16,3.81-3.6,3.81h-1.65v10.12h-1.83V223.79z
		 M106.57,233.11c1.52,0,1.98-0.58,1.98-2.53v-2.68c0-1.95-0.46-2.53-1.98-2.53h-1.43v7.74H106.57z"/>
	<path class="st0" d="M112.36,223.79h1.83v19.44h3.9v1.58h-5.73V223.79z"/>
	<path class="st0" d="M121.89,223.79h2.41l2.65,21.03h-1.86l-0.61-5.21h-2.86l-0.61,5.21h-1.77L121.89,223.79z M124.3,238.02
		l-1.22-11.34h-0.06l-1.22,11.34H124.3z"/>
	<path class="st0" d="M128.75,223.79h2.38l3.32,15.39h0.06v-15.39h1.65v21.03h-1.98l-3.72-17.34h-0.06v17.34h-1.65V223.79z"/>
	<path class="st0" d="M138.65,242.31h2.04v2.5h-2.04V242.31z"/>
</g>
</svg>
