<?xml version="1.0" encoding="utf-8"?>
<!-- Generator: Adobe Illustrator 25.4.1, SVG Export Plug-In . SVG Version: 6.00 Build 0)  -->
<svg version="1.1" id="Layer_1" xmlns="http://www.w3.org/2000/svg" xmlns:xlink="http://www.w3.org/1999/xlink" x="0px" y="0px"
	 viewBox="0 0 160 600" style="enable-background:new 0 0 160 600;" xml:space="preserve">
<style type="text/css">
	.st0{fill:#EAF5FB;}
	.st1{fill:#002457;}
</style>
<rect x="15.24" y="268" class="st0" width="127.1" height="29.5"/>
<g>
	<path class="st1" d="M27.84,280.66v1.74h3.37v1.65h-3.37v3.15H25.7v-8.19h6.36v1.65H27.84z"/>
	<path class="st1" d="M35.43,287.2H33.3v-8.19h2.13V287.2z"/>
	<path class="st1" d="M44.62,287.2h-2.37l-2.54-4.43l-0.62-1.24h-0.01l0.05,1.54v4.13h-1.89v-8.19h2.37l2.54,4.43l0.62,1.24h0.01
		l-0.05-1.54v-4.13h1.89V287.2z"/>
	<path class="st1" d="M53.88,283.1c0,2.62-1.4,4.09-3.97,4.09h-3.47v-8.19h3.47C52.48,279.01,53.88,280.49,53.88,283.1z M51.7,283.1
		c0-1.64-0.61-2.48-2-2.48h-1.13v4.96h1.13C51.09,285.59,51.7,284.74,51.7,283.1z"/>
	<path class="st1" d="M63.31,285.35h-2.83l-0.57,1.85h-2.15l2.88-8.19h2.56l2.87,8.19h-2.2L63.31,285.35z M62.87,283.9l-0.6-1.96
		l-0.36-1.29h-0.02l-0.33,1.28l-0.61,1.97H62.87z"/>
	<path class="st1" d="M77.22,281.73c0,1.67-1.13,2.63-3.16,2.63h-1.62v2.84H70.3v-8.19h3.76C76.1,279.01,77.22,279.97,77.22,281.73z
		 M75.08,281.7c0-0.72-0.41-1.08-1.35-1.08h-1.29v2.17h1.29C74.67,282.79,75.08,282.43,75.08,281.7z"/>
	<path class="st1" d="M81.97,284.21h-1.28v2.99h-2.1v-8.19h3.91c1.97,0,3.09,0.92,3.09,2.6c0,1.19-0.56,2-1.59,2.37l2.07,3.21h-2.36
		L81.97,284.21z M80.69,282.7h1.45c0.91,0,1.3-0.31,1.3-1.04c0-0.72-0.4-1.03-1.3-1.03h-1.45V282.7z"/>
	<path class="st1" d="M94.73,283.1c0,2.64-1.51,4.22-4.01,4.22c-2.49,0-4.02-1.58-4.02-4.22c0-2.64,1.53-4.22,4.02-4.22
		C93.22,278.89,94.73,280.46,94.73,283.1z M88.89,283.1c0,1.67,0.65,2.54,1.84,2.54c1.18,0,1.82-0.87,1.82-2.54
		s-0.65-2.54-1.82-2.54C89.54,280.56,88.89,281.43,88.89,283.1z"/>
	<path class="st1" d="M100.57,287.2h-2.51l-2.92-8.19h2.25l1.5,4.95l0.45,1.61l0.43-1.59l1.53-4.97h2.17L100.57,287.2z"/>
	<path class="st1" d="M106.59,287.2h-2.13v-8.19h2.13V287.2z"/>
	<path class="st1" d="M115.84,283.1c0,2.62-1.4,4.09-3.97,4.09h-3.47v-8.19h3.47C114.44,279.01,115.84,280.49,115.84,283.1z
		 M113.66,283.1c0-1.64-0.61-2.48-2-2.48h-1.13v4.96h1.13C113.05,285.59,113.66,284.74,113.66,283.1z"/>
	<path class="st1" d="M123.85,285.55v1.65h-6.54v-8.19h6.38v1.65h-4.24v1.66h3.38v1.55h-3.38v1.67H123.85z"/>
	<path class="st1" d="M128.51,284.21h-1.28v2.99h-2.1v-8.19h3.91c1.97,0,3.09,0.92,3.09,2.6c0,1.19-0.56,2-1.59,2.37l2.07,3.21
		h-2.36L128.51,284.21z M127.24,282.7h1.45c0.91,0,1.3-0.31,1.3-1.04c0-0.72-0.4-1.03-1.3-1.03h-1.45V282.7z"/>
</g>
</svg>
