<?xml version="1.0" encoding="utf-8"?>
<!-- Generator: Adobe Illustrator 25.4.1, SVG Export Plug-In . SVG Version: 6.00 Build 0)  -->
<svg version="1.1" id="Layer_1" xmlns="http://www.w3.org/2000/svg" xmlns:xlink="http://www.w3.org/1999/xlink" x="0px" y="0px"
	 viewBox="0 0 160 600" style="enable-background:new 0 0 160 600;" xml:space="preserve">
<style type="text/css">
	.st0{fill:#BDD6E6;}
</style>
<g>
	<path class="st0" d="M38.92,281.1l0.51,0.71l-0.46,0.33l-0.51-0.71l-0.24-0.45l-0.24,0.45l-0.51,0.71l-0.46-0.33l0.51-0.71
		l0.35-0.36l-0.5-0.09l-0.83-0.26l0.17-0.53l0.83,0.27l0.45,0.22l-0.07-0.5l-0.01-0.88h0.58l-0.01,0.88l-0.08,0.51l0.46-0.23
		l0.83-0.27l0.17,0.53l-0.83,0.26l-0.51,0.09L38.92,281.1z"/>
	<path class="st0" d="M44.18,280.09h-1.57v3.94h-0.74v-3.94H40.3v-0.64h3.88V280.09z"/>
	<path class="st0" d="M47.89,281.78v2.25h-0.74v-2.01c0-0.69-0.32-0.92-0.74-0.92c-0.46,0-0.94,0.3-0.94,1.1v1.83h-0.74V279h0.74
		v2.12c0.23-0.43,0.64-0.62,1.12-0.62C47.32,280.49,47.89,280.92,47.89,281.78z"/>
	<path class="st0" d="M51.95,282.57h-2.54c0.08,0.61,0.44,0.94,1.01,0.94c0.46,0,0.76-0.17,0.87-0.47l0.62,0.26
		c-0.25,0.51-0.73,0.81-1.49,0.81c-1.1,0-1.74-0.67-1.74-1.81c0-1.13,0.61-1.81,1.69-1.81c1.04,0,1.61,0.69,1.61,1.7
		C51.98,282.32,51.96,282.48,51.95,282.57z M49.41,282h1.87c-0.07-0.58-0.4-0.92-0.92-0.92C49.82,281.08,49.49,281.41,49.41,282z"/>
	<path class="st0" d="M58.29,282.29c0,1.14-0.6,1.81-1.54,1.81c-0.51,0-0.91-0.25-1.12-0.63v2.02h-0.74v-4.93h0.65l0.03,0.64
		c0.2-0.42,0.62-0.71,1.18-0.71C57.7,280.49,58.29,281.16,58.29,282.29z M57.54,282.3c0-0.76-0.36-1.21-0.96-1.21
		c-0.58,0-0.96,0.44-0.96,1.17v0.08c0,0.72,0.37,1.16,0.96,1.16C57.18,283.5,57.54,283.05,57.54,282.3z"/>
	<path class="st0" d="M61.28,280.56l-0.12,0.68c-0.1-0.06-0.25-0.09-0.44-0.09c-0.42,0-0.87,0.33-0.87,1.04v1.84h-0.74v-3.47h0.63
		l0.07,0.62c0.19-0.45,0.56-0.69,1.09-0.69C61.04,280.49,61.19,280.51,61.28,280.56z"/>
	<path class="st0" d="M61.72,279.51c0-0.29,0.18-0.46,0.5-0.46s0.49,0.17,0.49,0.46c0,0.29-0.17,0.46-0.49,0.46
		S61.72,279.8,61.72,279.51z M62.59,284.03h-0.74v-3.47h0.74V284.03z"/>
	<path class="st0" d="M69.07,281.78v2.25h-0.74v-2.13c0-0.57-0.31-0.8-0.72-0.8c-0.49,0-0.9,0.37-0.9,1.04v1.89h-0.74v-2.13
		c0-0.57-0.31-0.8-0.72-0.8c-0.42,0-0.9,0.31-0.9,1.08v1.85h-0.74v-3.47h0.66l0.03,0.58c0.24-0.44,0.67-0.65,1.12-0.65
		c0.49,0,0.96,0.22,1.17,0.69c0.23-0.47,0.74-0.69,1.2-0.69C68.46,280.49,69.08,280.9,69.07,281.78z"/>
	<path class="st0" d="M73.31,283.52l-0.05,0.5c-0.11,0.05-0.26,0.08-0.43,0.08c-0.38,0-0.63-0.14-0.71-0.52
		c-0.21,0.33-0.66,0.52-1.17,0.52c-0.65,0-1.13-0.31-1.13-0.91c0-0.53,0.44-0.93,1.35-1.09l0.88-0.16v-0.18
		c0-0.42-0.26-0.69-0.71-0.69c-0.43,0-0.75,0.19-0.9,0.62l-0.58-0.31c0.17-0.55,0.7-0.9,1.46-0.9c0.87,0,1.47,0.4,1.47,1.23v1.57
		c0,0.17,0.07,0.26,0.26,0.26C73.15,283.55,73.24,283.54,73.31,283.52z M72.06,282.88v-0.42l-0.76,0.15
		c-0.47,0.09-0.71,0.25-0.71,0.53c0,0.26,0.19,0.4,0.52,0.4C71.58,283.54,72.06,283.3,72.06,282.88z"/>
	<path class="st0" d="M76.05,280.56l-0.12,0.68c-0.1-0.06-0.25-0.09-0.44-0.09c-0.42,0-0.87,0.33-0.87,1.04v1.84h-0.74v-3.47h0.63
		l0.07,0.62c0.19-0.45,0.56-0.69,1.09-0.69C75.81,280.49,75.95,280.51,76.05,280.56z"/>
	<path class="st0" d="M78.21,284.44c-0.31,0.81-0.66,1.08-1.28,1.08c-0.36,0-0.61-0.08-0.82-0.28l0.22-0.57
		c0.16,0.19,0.35,0.25,0.57,0.25c0.26,0,0.45-0.1,0.6-0.5l0.15-0.37l-0.36-0.86l-1.08-2.63h0.83l0.76,2.18l0.2,0.65l0.24-0.72
		l0.72-2.12h0.77L78.21,284.44z"/>
	<path class="st0" d="M85.47,282.3c0,1.13-0.65,1.81-1.73,1.81s-1.73-0.67-1.73-1.81c0-1.13,0.65-1.81,1.73-1.81
		S85.47,281.17,85.47,282.3z M82.76,282.3c0,0.78,0.35,1.22,0.98,1.22s0.99-0.44,0.99-1.22c0-0.78-0.36-1.22-0.99-1.22
		S82.76,281.51,82.76,282.3z"/>
	<path class="st0" d="M89.68,282.3c0,1.13-0.59,1.8-1.53,1.8c-0.56,0-0.98-0.28-1.18-0.71l-0.04,0.64h-0.65V279h0.74v2.12
		c0.21-0.38,0.6-0.63,1.12-0.63C89.08,280.49,89.68,281.17,89.68,282.3z M88.94,282.3c0-0.76-0.36-1.2-0.96-1.2
		c-0.58,0-0.96,0.44-0.96,1.16v0.08c0,0.73,0.38,1.17,0.96,1.17C88.58,283.5,88.94,283.05,88.94,282.3z"/>
	<path class="st0" d="M91.25,284.34c0,0.89-0.56,1.19-1.14,1.19c-0.31,0-0.58-0.09-0.76-0.23l0.13-0.6c0.12,0.1,0.31,0.19,0.53,0.19
		c0.3,0,0.49-0.16,0.49-0.62v-3.71h0.74V284.34z M91.37,279.51c0,0.28-0.19,0.46-0.49,0.46c-0.31,0-0.5-0.19-0.5-0.46
		c0-0.28,0.19-0.46,0.5-0.46C91.18,279.05,91.37,279.23,91.37,279.51z"/>
	<path class="st0" d="M95.34,282.57h-2.54c0.08,0.61,0.45,0.94,1.01,0.94c0.46,0,0.76-0.17,0.88-0.47l0.62,0.26
		c-0.25,0.51-0.73,0.81-1.49,0.81c-1.1,0-1.74-0.67-1.74-1.81c0-1.13,0.61-1.81,1.69-1.81c1.04,0,1.61,0.69,1.61,1.7
		C95.36,282.32,95.35,282.48,95.34,282.57z M92.8,282h1.87c-0.07-0.58-0.4-0.92-0.92-0.92C93.21,281.08,92.88,281.41,92.8,282z"/>
	<path class="st0" d="M99.19,281.46l-0.69,0.28c-0.12-0.43-0.38-0.66-0.81-0.66c-0.62,0-0.98,0.44-0.98,1.22
		c0,0.78,0.37,1.21,0.98,1.21c0.48,0,0.76-0.24,0.85-0.67l0.68,0.23c-0.19,0.63-0.71,1.03-1.52,1.03c-1.1,0-1.74-0.67-1.74-1.81
		c0-1.13,0.65-1.81,1.73-1.81C98.52,280.49,98.97,280.89,99.19,281.46z"/>
	<path class="st0" d="M102.2,283.8c-0.22,0.19-0.55,0.3-0.92,0.3c-0.6,0-1.06-0.27-1.06-0.99v-1.97h-0.66v-0.58h0.66v-0.81
		l0.74-0.21v1.02h1.21v0.58h-1.21v1.85c0,0.34,0.2,0.49,0.51,0.49c0.24,0,0.41-0.08,0.56-0.22L102.2,283.8z"/>
	<path class="st0" d="M102.62,279.51c0-0.29,0.18-0.46,0.5-0.46s0.49,0.17,0.49,0.46c0,0.29-0.17,0.46-0.49,0.46
		S102.62,279.8,102.62,279.51z M103.49,284.03h-0.74v-3.47h0.74V284.03z"/>
	<path class="st0" d="M107.57,280.56l-1.38,3.47h-0.81l-1.39-3.47h0.82l0.98,2.87l1.01-2.87H107.57z"/>
	<path class="st0" d="M111.12,282.57h-2.54c0.08,0.61,0.45,0.94,1.01,0.94c0.46,0,0.76-0.17,0.88-0.47l0.62,0.26
		c-0.25,0.51-0.73,0.81-1.49,0.81c-1.1,0-1.74-0.67-1.74-1.81c0-1.13,0.61-1.81,1.69-1.81c1.04,0,1.61,0.69,1.61,1.7
		C111.15,282.32,111.14,282.48,111.12,282.57z M108.59,282h1.87c-0.07-0.58-0.4-0.92-0.92-0.92
		C108.99,281.08,108.66,281.41,108.59,282z"/>
	<path class="st0" d="M116.2,283.8c-0.22,0.19-0.55,0.3-0.92,0.3c-0.6,0-1.06-0.27-1.06-0.99v-1.97h-0.66v-0.58h0.66v-0.81
		l0.74-0.21v1.02h1.21v0.58h-1.21v1.85c0,0.34,0.2,0.49,0.51,0.49c0.24,0,0.41-0.08,0.56-0.22L116.2,283.8z"/>
	<path class="st0" d="M120.01,282.3c0,1.13-0.65,1.81-1.73,1.81s-1.73-0.67-1.73-1.81c0-1.13,0.65-1.81,1.73-1.81
		S120.01,281.17,120.01,282.3z M117.3,282.3c0,0.78,0.35,1.22,0.98,1.22s0.99-0.44,0.99-1.22c0-0.78-0.36-1.22-0.99-1.22
		S117.3,281.51,117.3,282.3z"/>
	<path class="st0" d="M23.26,292h-2.54c0.08,0.61,0.44,0.94,1.01,0.94c0.46,0,0.76-0.17,0.87-0.47l0.62,0.26
		c-0.25,0.51-0.73,0.81-1.49,0.81c-1.1,0-1.74-0.67-1.74-1.81c0-1.13,0.61-1.81,1.69-1.81c1.04,0,1.61,0.69,1.61,1.7
		C23.29,291.75,23.28,291.9,23.26,292z M20.73,291.43h1.87c-0.07-0.58-0.4-0.92-0.92-0.92C21.13,290.5,20.8,290.83,20.73,291.43z"/>
	<path class="st0" d="M27.04,289.98l-1.38,3.47h-0.81l-1.39-3.47h0.82l0.98,2.87l1.01-2.87H27.04z"/>
	<path class="st0" d="M30.7,292.94l-0.05,0.5c-0.11,0.05-0.26,0.08-0.43,0.08c-0.38,0-0.63-0.14-0.71-0.52
		c-0.21,0.33-0.66,0.52-1.17,0.52c-0.65,0-1.13-0.31-1.13-0.91c0-0.53,0.44-0.93,1.35-1.09l0.88-0.16v-0.18
		c0-0.42-0.26-0.69-0.71-0.69c-0.43,0-0.75,0.19-0.9,0.62l-0.58-0.31c0.17-0.55,0.7-0.9,1.46-0.9c0.87,0,1.47,0.4,1.47,1.23v1.57
		c0,0.17,0.07,0.26,0.26,0.26C30.54,292.97,30.63,292.96,30.7,292.94z M29.45,292.3v-0.42l-0.76,0.15
		c-0.47,0.09-0.71,0.25-0.71,0.53c0,0.26,0.19,0.4,0.52,0.4C28.97,292.96,29.45,292.72,29.45,292.3z"/>
	<path class="st0" d="M31.99,292.44c0,0.34,0.08,0.46,0.36,0.46c0.17,0,0.28-0.02,0.46-0.09l-0.08,0.6
		c-0.15,0.08-0.38,0.12-0.58,0.12c-0.62,0-0.9-0.31-0.9-0.98v-4.12h0.74V292.44z"/>
	<path class="st0" d="M36.44,289.98v3.47h-0.66l-0.03-0.56c-0.24,0.44-0.67,0.63-1.23,0.63c-0.69,0-1.25-0.35-1.25-1.26v-2.28h0.74
		v2.09c0,0.65,0.28,0.84,0.71,0.84c0.53,0,0.97-0.32,0.97-1.06v-1.87H36.44z"/>
	<path class="st0" d="M40.71,292.94l-0.05,0.5c-0.11,0.05-0.26,0.08-0.43,0.08c-0.38,0-0.63-0.14-0.71-0.52
		c-0.21,0.33-0.66,0.52-1.17,0.52c-0.65,0-1.13-0.31-1.13-0.91c0-0.53,0.44-0.93,1.35-1.09l0.88-0.16v-0.18
		c0-0.42-0.26-0.69-0.71-0.69c-0.43,0-0.75,0.19-0.9,0.62l-0.58-0.31c0.17-0.55,0.7-0.9,1.46-0.9c0.87,0,1.47,0.4,1.47,1.23v1.57
		c0,0.17,0.07,0.26,0.26,0.26C40.54,292.97,40.63,292.96,40.71,292.94z M39.45,292.3v-0.42l-0.76,0.15
		c-0.47,0.09-0.71,0.25-0.71,0.53c0,0.26,0.19,0.4,0.52,0.4C38.97,292.96,39.45,292.72,39.45,292.3z"/>
	<path class="st0" d="M43.38,293.22c-0.22,0.19-0.55,0.3-0.92,0.3c-0.6,0-1.06-0.27-1.06-0.99v-1.97h-0.66v-0.58h0.66v-0.81
		l0.74-0.21v1.02h1.21v0.58h-1.21v1.85c0,0.34,0.2,0.49,0.51,0.49c0.24,0,0.41-0.08,0.56-0.22L43.38,293.22z"/>
	<path class="st0" d="M47.01,292h-2.54c0.08,0.61,0.44,0.94,1.01,0.94c0.46,0,0.76-0.17,0.87-0.47l0.62,0.26
		c-0.25,0.51-0.73,0.81-1.49,0.81c-1.1,0-1.74-0.67-1.74-1.81c0-1.13,0.61-1.81,1.69-1.81c1.04,0,1.61,0.69,1.61,1.7
		C47.04,291.75,47.02,291.9,47.01,292z M44.47,291.43h1.87c-0.07-0.58-0.4-0.92-0.92-0.92C44.88,290.5,44.55,290.83,44.47,291.43z"
		/>
	<path class="st0" d="M53.2,291.72c0,1.13-0.65,1.81-1.73,1.81s-1.73-0.67-1.73-1.81c0-1.13,0.65-1.81,1.73-1.81
		S53.2,290.59,53.2,291.72z M50.49,291.72c0,0.78,0.35,1.22,0.98,1.22c0.62,0,0.99-0.44,0.99-1.22c0-0.78-0.36-1.22-0.99-1.22
		C50.85,290.5,50.49,290.93,50.49,291.72z"/>
	<path class="st0" d="M57.05,289.98l-1.38,3.47h-0.81l-1.39-3.47h0.82l0.98,2.87l1.01-2.87H57.05z"/>
	<path class="st0" d="M60.6,292h-2.54c0.08,0.61,0.44,0.94,1.01,0.94c0.46,0,0.76-0.17,0.87-0.47l0.62,0.26
		c-0.25,0.51-0.73,0.81-1.49,0.81c-1.1,0-1.74-0.67-1.74-1.81c0-1.13,0.61-1.81,1.69-1.81c1.04,0,1.61,0.69,1.61,1.7
		C60.63,291.75,60.61,291.9,60.6,292z M58.06,291.43h1.87c-0.07-0.58-0.4-0.92-0.92-0.92C58.47,290.5,58.14,290.83,58.06,291.43z"/>
	<path class="st0" d="M63.59,289.98l-0.12,0.68c-0.1-0.06-0.25-0.09-0.44-0.09c-0.42,0-0.87,0.33-0.87,1.04v1.84h-0.74v-3.47h0.63
		l0.07,0.62c0.19-0.45,0.56-0.69,1.09-0.69C63.35,289.91,63.49,289.93,63.59,289.98z"/>
	<path class="st0" d="M67.33,292.94l-0.05,0.5c-0.11,0.05-0.26,0.08-0.43,0.08c-0.38,0-0.63-0.14-0.71-0.52
		c-0.21,0.33-0.66,0.52-1.17,0.52c-0.65,0-1.13-0.31-1.13-0.91c0-0.53,0.44-0.93,1.35-1.09l0.88-0.16v-0.18
		c0-0.42-0.26-0.69-0.71-0.69c-0.43,0-0.75,0.19-0.9,0.62l-0.58-0.31c0.17-0.55,0.7-0.9,1.46-0.9c0.87,0,1.47,0.4,1.47,1.23v1.57
		c0,0.17,0.07,0.26,0.26,0.26C67.17,292.97,67.26,292.96,67.33,292.94z M66.08,292.3v-0.42l-0.76,0.15
		c-0.47,0.09-0.71,0.25-0.71,0.53c0,0.26,0.19,0.4,0.52,0.4C65.6,292.96,66.08,292.72,66.08,292.3z"/>
	<path class="st0" d="M68.62,292.44c0,0.34,0.08,0.46,0.36,0.46c0.17,0,0.28-0.02,0.46-0.09l-0.08,0.6
		c-0.15,0.08-0.38,0.12-0.58,0.12c-0.62,0-0.9-0.31-0.9-0.98v-4.12h0.74V292.44z"/>
	<path class="st0" d="M70.64,292.44c0,0.34,0.08,0.46,0.36,0.46c0.17,0,0.28-0.02,0.46-0.09l-0.08,0.6
		c-0.15,0.08-0.38,0.12-0.58,0.12c-0.62,0-0.9-0.31-0.9-0.98v-4.12h0.74V292.44z"/>
	<path class="st0" d="M77.27,291.71c0,1.14-0.6,1.81-1.54,1.81c-0.51,0-0.91-0.25-1.12-0.63v2.02h-0.74v-4.93h0.65l0.03,0.64
		c0.2-0.42,0.62-0.71,1.18-0.71C76.68,289.91,77.27,290.58,77.27,291.71z M76.52,291.72c0-0.76-0.36-1.21-0.96-1.21
		c-0.58,0-0.96,0.44-0.96,1.17v0.08c0,0.72,0.37,1.16,0.96,1.16C76.16,292.92,76.52,292.47,76.52,291.72z"/>
	<path class="st0" d="M81.34,292.94l-0.05,0.5c-0.11,0.05-0.26,0.08-0.43,0.08c-0.38,0-0.63-0.14-0.71-0.52
		c-0.21,0.33-0.66,0.52-1.17,0.52c-0.65,0-1.13-0.31-1.13-0.91c0-0.53,0.44-0.93,1.35-1.09l0.88-0.16v-0.18
		c0-0.42-0.26-0.69-0.71-0.69c-0.43,0-0.75,0.19-0.9,0.62l-0.58-0.31c0.17-0.55,0.7-0.9,1.46-0.9c0.87,0,1.47,0.4,1.47,1.23v1.57
		c0,0.17,0.07,0.26,0.26,0.26C81.17,292.97,81.26,292.96,81.34,292.94z M80.08,292.3v-0.42l-0.76,0.15
		c-0.47,0.09-0.71,0.25-0.71,0.53c0,0.26,0.19,0.4,0.52,0.4C79.6,292.96,80.08,292.72,80.08,292.3z"/>
	<path class="st0" d="M84.01,293.22c-0.22,0.19-0.55,0.3-0.92,0.3c-0.6,0-1.06-0.27-1.06-0.99v-1.97h-0.66v-0.58h0.66v-0.81
		l0.74-0.21v1.02h1.21v0.58h-1.21v1.85c0,0.34,0.2,0.49,0.51,0.49c0.24,0,0.41-0.08,0.56-0.22L84.01,293.22z"/>
	<path class="st0" d="M84.44,288.93c0-0.29,0.18-0.46,0.5-0.46s0.49,0.17,0.49,0.46c0,0.29-0.17,0.46-0.49,0.46
		S84.44,289.23,84.44,288.93z M85.31,293.45h-0.74v-3.47h0.74V293.45z"/>
	<path class="st0" d="M89.41,292h-2.54c0.08,0.61,0.44,0.94,1.01,0.94c0.46,0,0.76-0.17,0.88-0.47l0.62,0.26
		c-0.25,0.51-0.73,0.81-1.49,0.81c-1.1,0-1.74-0.67-1.74-1.81c0-1.13,0.61-1.81,1.69-1.81c1.04,0,1.61,0.69,1.61,1.7
		C89.43,291.75,89.42,291.9,89.41,292z M86.87,291.43h1.87c-0.07-0.58-0.4-0.92-0.92-0.92C87.27,290.5,86.95,290.83,86.87,291.43z"
		/>
	<path class="st0" d="M93.4,291.2v2.25h-0.74v-2.01c0-0.69-0.32-0.92-0.74-0.92c-0.46,0-0.94,0.29-0.94,1.09v1.84h-0.74v-3.47h0.66
		l0.04,0.58c0.24-0.46,0.67-0.65,1.17-0.65C92.83,289.91,93.4,290.34,93.4,291.2z"/>
	<path class="st0" d="M96.59,293.22c-0.22,0.19-0.55,0.3-0.92,0.3c-0.6,0-1.06-0.27-1.06-0.99v-1.97h-0.66v-0.58h0.66v-0.81
		l0.74-0.21v1.02h1.21v0.58h-1.21v1.85c0,0.34,0.2,0.49,0.51,0.49c0.24,0,0.41-0.08,0.56-0.22L96.59,293.22z"/>
	<path class="st0" d="M98.97,292.79l0.5-0.43c0.18,0.42,0.59,0.58,1.08,0.58c0.49,0,0.74-0.18,0.74-0.42c0-0.22-0.2-0.34-0.81-0.46
		c-1.03-0.19-1.4-0.49-1.4-1.08c0-0.56,0.53-1.08,1.46-1.08c0.77,0,1.21,0.25,1.46,0.78l-0.53,0.39c-0.17-0.42-0.47-0.59-0.92-0.59
		c-0.43,0-0.72,0.21-0.72,0.42c0,0.25,0.2,0.38,0.85,0.5c0.99,0.18,1.35,0.48,1.35,1.06c0,0.61-0.56,1.05-1.51,1.05
		C99.85,293.52,99.26,293.3,98.97,292.79z"/>
	<path class="st0" d="M106.05,292.94l-0.05,0.5c-0.11,0.05-0.26,0.08-0.43,0.08c-0.38,0-0.63-0.14-0.71-0.52
		c-0.22,0.33-0.66,0.52-1.17,0.52c-0.65,0-1.13-0.31-1.13-0.91c0-0.53,0.44-0.93,1.35-1.09l0.88-0.16v-0.18
		c0-0.42-0.26-0.69-0.71-0.69c-0.43,0-0.75,0.19-0.9,0.62l-0.58-0.31c0.17-0.55,0.7-0.9,1.46-0.9c0.87,0,1.46,0.4,1.46,1.23v1.57
		c0,0.17,0.07,0.26,0.26,0.26C105.89,292.97,105.98,292.96,106.05,292.94z M104.8,292.3v-0.42l-0.76,0.15
		c-0.47,0.09-0.71,0.25-0.71,0.53c0,0.26,0.2,0.4,0.52,0.4C104.32,292.96,104.8,292.72,104.8,292.3z"/>
	<path class="st0" d="M108.72,293.22c-0.22,0.19-0.55,0.3-0.92,0.3c-0.6,0-1.06-0.27-1.06-0.99v-1.97h-0.66v-0.58h0.66v-0.81
		l0.74-0.21v1.02h1.21v0.58h-1.21v1.85c0,0.34,0.2,0.49,0.51,0.49c0.24,0,0.41-0.08,0.56-0.22L108.72,293.22z"/>
	<path class="st0" d="M109.15,288.93c0-0.29,0.18-0.46,0.5-0.46s0.49,0.17,0.49,0.46c0,0.29-0.17,0.46-0.49,0.46
		S109.15,289.23,109.15,288.93z M110.02,293.45h-0.74v-3.47h0.74V293.45z"/>
	<path class="st0" d="M110.75,292.79l0.5-0.43c0.18,0.42,0.59,0.58,1.08,0.58c0.49,0,0.74-0.18,0.74-0.42c0-0.22-0.2-0.34-0.81-0.46
		c-1.03-0.19-1.4-0.49-1.4-1.08c0-0.56,0.53-1.08,1.46-1.08c0.77,0,1.21,0.25,1.46,0.78l-0.53,0.39c-0.17-0.42-0.47-0.59-0.92-0.59
		c-0.43,0-0.72,0.21-0.72,0.42c0,0.25,0.2,0.38,0.85,0.5c0.99,0.18,1.35,0.48,1.35,1.06c0,0.61-0.56,1.05-1.51,1.05
		C111.62,293.52,111.04,293.3,110.75,292.79z"/>
	<path class="st0" d="M115.56,289.98h1.12v0.58h-1.1v2.89h-0.74v-2.89h-0.65v-0.58h0.65v-0.5c0-0.7,0.44-1.11,1.21-1.11
		c0.28,0,0.52,0.06,0.65,0.17l-0.14,0.54c-0.1-0.07-0.23-0.1-0.4-0.1c-0.39,0-0.61,0.17-0.61,0.56V289.98z"/>
	<path class="st0" d="M120.29,292.94l-0.05,0.5c-0.11,0.05-0.26,0.08-0.43,0.08c-0.38,0-0.63-0.14-0.71-0.52
		c-0.22,0.33-0.66,0.52-1.17,0.52c-0.65,0-1.13-0.31-1.13-0.91c0-0.53,0.44-0.93,1.35-1.09l0.88-0.16v-0.18
		c0-0.42-0.26-0.69-0.71-0.69c-0.43,0-0.75,0.19-0.9,0.62l-0.58-0.31c0.17-0.55,0.7-0.9,1.46-0.9c0.87,0,1.46,0.4,1.46,1.23v1.57
		c0,0.17,0.07,0.26,0.26,0.26C120.13,292.97,120.22,292.96,120.29,292.94z M119.04,292.3v-0.42l-0.76,0.15
		c-0.47,0.09-0.71,0.25-0.71,0.53c0,0.26,0.2,0.4,0.52,0.4C118.56,292.96,119.04,292.72,119.04,292.3z"/>
	<path class="st0" d="M123.88,290.88l-0.69,0.28c-0.12-0.43-0.38-0.66-0.81-0.66c-0.62,0-0.98,0.44-0.98,1.22
		c0,0.78,0.37,1.21,0.98,1.21c0.48,0,0.76-0.24,0.85-0.67l0.68,0.23c-0.19,0.63-0.71,1.03-1.52,1.03c-1.1,0-1.74-0.67-1.74-1.81
		c0-1.13,0.65-1.81,1.73-1.81C123.22,289.91,123.67,290.31,123.88,290.88z"/>
	<path class="st0" d="M126.89,293.22c-0.22,0.19-0.55,0.3-0.92,0.3c-0.6,0-1.06-0.27-1.06-0.99v-1.97h-0.66v-0.58h0.66v-0.81
		l0.74-0.21v1.02h1.21v0.58h-1.21v1.85c0,0.34,0.2,0.49,0.51,0.49c0.24,0,0.41-0.08,0.56-0.22L126.89,293.22z"/>
	<path class="st0" d="M127.32,288.93c0-0.29,0.18-0.46,0.5-0.46s0.49,0.17,0.49,0.46c0,0.29-0.17,0.46-0.49,0.46
		S127.32,289.23,127.32,288.93z M128.19,293.45h-0.74v-3.47h0.74V293.45z"/>
	<path class="st0" d="M132.46,291.72c0,1.13-0.65,1.81-1.73,1.81s-1.73-0.67-1.73-1.81c0-1.13,0.65-1.81,1.73-1.81
		S132.46,290.59,132.46,291.72z M129.75,291.72c0,0.78,0.35,1.22,0.98,1.22s0.99-0.44,0.99-1.22c0-0.78-0.36-1.22-0.99-1.22
		S129.75,290.93,129.75,291.72z"/>
	<path class="st0" d="M136.45,291.2v2.25h-0.74v-2.01c0-0.69-0.32-0.92-0.74-0.92c-0.46,0-0.94,0.29-0.94,1.09v1.84h-0.74v-3.47
		h0.66l0.04,0.58c0.24-0.46,0.67-0.65,1.17-0.65C135.88,289.91,136.45,290.34,136.45,291.2z"/>
	<path class="st0" d="M37.46,299.4l-1.16,3.47h-0.81l-0.87-2.62l-0.83,2.62h-0.81l-1.16-3.47h0.81l0.78,2.77l0.87-2.77H35l0.87,2.77
		l0.78-2.77H37.46z"/>
	<path class="st0" d="M37.97,298.35c0-0.29,0.18-0.46,0.5-0.46s0.49,0.17,0.49,0.46c0,0.29-0.17,0.46-0.49,0.46
		S37.97,298.65,37.97,298.35z M38.83,302.87h-0.74v-3.47h0.74V302.87z"/>
	<path class="st0" d="M42.1,302.64c-0.22,0.19-0.55,0.3-0.92,0.3c-0.6,0-1.06-0.27-1.06-0.99v-1.97h-0.66v-0.58h0.66v-0.81
		l0.74-0.21v1.02h1.21v0.58h-1.21v1.85c0,0.34,0.2,0.49,0.51,0.49c0.24,0,0.41-0.08,0.56-0.22L42.1,302.64z"/>
	<path class="st0" d="M45.86,300.62v2.25h-0.74v-2.01c0-0.69-0.32-0.92-0.74-0.92c-0.46,0-0.94,0.3-0.94,1.1v1.83h-0.74v-5.03h0.74
		v2.12c0.23-0.43,0.64-0.62,1.12-0.62C45.29,299.33,45.86,299.76,45.86,300.62z"/>
	<path class="st0" d="M50.97,302.94c-1.33,0-2.16-0.9-2.16-2.36s0.84-2.36,2.15-2.36c0.91,0,1.56,0.38,1.83,1.12l-0.7,0.31
		c-0.18-0.54-0.52-0.79-1.09-0.79c-0.85,0-1.42,0.62-1.42,1.71c0,1.08,0.52,1.71,1.39,1.71c0.58,0,1.01-0.29,1.18-0.88l0.71,0.24
		C52.58,302.5,51.86,302.94,50.97,302.94z"/>
	<path class="st0" d="M56.83,301.14c0,1.13-0.65,1.8-1.73,1.8s-1.73-0.67-1.73-1.8c0-1.13,0.65-1.81,1.73-1.81
		S56.83,300.01,56.83,301.14z M54.12,301.14c0,0.78,0.35,1.22,0.98,1.22c0.62,0,0.99-0.44,0.99-1.22c0-0.78-0.36-1.22-0.99-1.22
		C54.47,299.92,54.12,300.35,54.12,301.14z"/>
	<path class="st0" d="M60.9,301.14c0,1.13-0.65,1.8-1.73,1.8s-1.73-0.67-1.73-1.8c0-1.13,0.65-1.81,1.73-1.81
		S60.9,300.01,60.9,301.14z M58.19,301.14c0,0.78,0.35,1.22,0.98,1.22c0.62,0,0.99-0.44,0.99-1.22c0-0.78-0.36-1.22-0.99-1.22
		C58.54,299.92,58.19,300.35,58.19,301.14z"/>
	<path class="st0" d="M62.43,301.86c0,0.34,0.08,0.46,0.36,0.46c0.17,0,0.28-0.02,0.46-0.09l-0.08,0.6
		c-0.15,0.08-0.38,0.12-0.58,0.12c-0.62,0-0.9-0.31-0.9-0.98v-4.12h0.74V301.86z"/>
	<path class="st0" d="M67.23,299.15l-0.56,0.51c-0.26-0.55-0.61-0.79-1.26-0.79c-0.65,0-1.01,0.29-1.01,0.68
		c0,0.37,0.28,0.56,1.17,0.72c1.23,0.22,1.68,0.6,1.68,1.33c0,0.82-0.74,1.34-1.83,1.34c-1,0-1.62-0.36-1.97-0.93l0.52-0.52
		c0.3,0.56,0.76,0.81,1.44,0.81c0.65,0,1.06-0.23,1.06-0.65c0-0.33-0.28-0.51-1.14-0.67c-1.26-0.24-1.72-0.62-1.72-1.35
		c0-0.78,0.67-1.4,1.78-1.4C66.25,298.22,66.83,298.53,67.23,299.15z"/>
	<path class="st0" d="M71.08,300.3l-0.69,0.28c-0.12-0.43-0.38-0.66-0.81-0.66c-0.62,0-0.98,0.44-0.98,1.22
		c0,0.78,0.37,1.21,0.98,1.21c0.48,0,0.76-0.24,0.85-0.67l0.68,0.23c-0.19,0.63-0.72,1.03-1.52,1.03c-1.1,0-1.74-0.67-1.74-1.8
		c0-1.13,0.65-1.81,1.73-1.81C70.42,299.33,70.87,299.73,71.08,300.3z"/>
	<path class="st0" d="M74.99,299.4v3.47h-0.66l-0.03-0.56c-0.24,0.44-0.67,0.63-1.23,0.63c-0.69,0-1.25-0.35-1.25-1.26v-2.28h0.74
		v2.09c0,0.65,0.28,0.84,0.71,0.84c0.53,0,0.97-0.32,0.97-1.05v-1.87H74.99z"/>
	<path class="st0" d="M76.72,301.86c0,0.34,0.08,0.46,0.36,0.46c0.17,0,0.28-0.02,0.46-0.09l-0.08,0.6
		c-0.15,0.08-0.38,0.12-0.58,0.12c-0.62,0-0.9-0.31-0.9-0.98v-4.12h0.74V301.86z"/>
	<path class="st0" d="M81.43,301.13c0,1.14-0.6,1.81-1.54,1.81c-0.51,0-0.91-0.25-1.12-0.63v2.02h-0.74v-4.93h0.65l0.03,0.64
		c0.2-0.42,0.62-0.71,1.18-0.71C80.84,299.33,81.43,300,81.43,301.13z M80.68,301.14c0-0.76-0.36-1.21-0.96-1.21
		c-0.58,0-0.96,0.44-0.96,1.17v0.08c0,0.72,0.37,1.16,0.96,1.16C80.32,302.34,80.68,301.89,80.68,301.14z"/>
	<path class="st0" d="M84.45,302.64c-0.22,0.19-0.55,0.3-0.92,0.3c-0.6,0-1.06-0.27-1.06-0.99v-1.97h-0.66v-0.58h0.66v-0.81
		l0.74-0.21v1.02h1.21v0.58h-1.21v1.85c0,0.34,0.2,0.49,0.51,0.49c0.24,0,0.41-0.08,0.56-0.22L84.45,302.64z"/>
	<path class="st0" d="M84.88,298.35c0-0.29,0.18-0.46,0.5-0.46s0.49,0.17,0.49,0.46c0,0.29-0.17,0.46-0.49,0.46
		S84.88,298.65,84.88,298.35z M85.75,302.87h-0.74v-3.47h0.74V302.87z"/>
	<path class="st0" d="M89.94,300.62v2.25H89.2v-2.01c0-0.69-0.32-0.92-0.74-0.92c-0.46,0-0.94,0.29-0.94,1.09v1.84h-0.74v-3.47h0.66
		l0.04,0.58c0.24-0.46,0.67-0.65,1.17-0.65C89.37,299.33,89.94,299.76,89.94,300.62z"/>
	<path class="st0" d="M94.06,303.22c0,0.72-0.78,1.15-1.78,1.15c-1.15,0-1.65-0.38-1.65-0.89c0-0.31,0.22-0.56,0.62-0.67
		c-0.27-0.12-0.49-0.34-0.49-0.66c0-0.36,0.22-0.58,0.54-0.69c-0.35-0.2-0.54-0.53-0.54-0.95c0-0.71,0.6-1.17,1.51-1.17
		c0.26,0,0.5,0.04,0.7,0.11c0.12-0.49,0.45-0.78,1.02-0.77l0.12,0.58c-0.45-0.01-0.71,0.12-0.82,0.35c0.31,0.21,0.48,0.52,0.48,0.9
		c0,0.71-0.6,1.17-1.51,1.17c-0.21,0-0.4-0.02-0.58-0.06c-0.24,0.06-0.33,0.18-0.33,0.38c0,0.22,0.17,0.33,0.43,0.33h1.16
		C93.65,302.33,94.06,302.67,94.06,303.22z M93.42,303.3c0-0.22-0.15-0.35-0.6-0.35h-0.94c-0.42,0-0.62,0.14-0.62,0.37
		c0,0.31,0.35,0.49,1.09,0.49C93.05,303.81,93.42,303.57,93.42,303.3z M91.53,300.51c0,0.4,0.32,0.66,0.74,0.66
		c0.43,0,0.75-0.26,0.75-0.66c0-0.39-0.32-0.65-0.75-0.65C91.85,299.85,91.53,300.12,91.53,300.51z"/>
	<path class="st0" d="M97.08,299.23c0,0.83-0.55,1.38-1.39,1.38c-0.84,0-1.39-0.54-1.39-1.38s0.55-1.37,1.39-1.37
		C96.53,297.85,97.08,298.39,97.08,299.23z M96.76,299.23c0-0.66-0.42-1.09-1.08-1.09c-0.66,0-1.08,0.43-1.08,1.09
		s0.42,1.09,1.08,1.09C96.34,300.32,96.76,299.89,96.76,299.23z M96,299.41l0.38,0.56h-0.36l-0.33-0.53h-0.23v0.53h-0.31v-1.49h0.64
		c0.32,0,0.55,0.19,0.55,0.48C96.35,299.2,96.21,299.35,96,299.41z M95.46,299.22h0.3c0.17,0,0.27-0.08,0.27-0.24
		c0-0.17-0.1-0.24-0.27-0.24h-0.3V299.22z"/>
	<path class="st0" d="M101.71,298.08c-0.88,0.8-1.2,1.61-1.2,2.87s0.33,2.06,1.2,2.86l-0.39,0.39c-1.01-0.81-1.53-1.91-1.53-3.25
		c0-1.35,0.52-2.44,1.53-3.26L101.71,298.08z"/>
	<path class="st0" d="M105.28,300.62v2.25h-0.74v-2.01c0-0.69-0.32-0.92-0.74-0.92c-0.46,0-0.94,0.29-0.94,1.09v1.84h-0.74v-3.47
		h0.66l0.04,0.58c0.24-0.46,0.67-0.65,1.17-0.65C104.71,299.33,105.28,299.76,105.28,300.62z"/>
	<path class="st0" d="M109.44,300.33h-3.3v-0.61h3.3V300.33z M109.44,301.75h-3.3v-0.61h3.3V301.75z"/>
	<path class="st0" d="M111.99,298.29v4.58h-0.73v-3.39c0-0.11,0.01-0.24,0.01-0.37c-0.32,0.31-0.74,0.54-1.16,0.63l-0.14-0.65
		c0.37-0.05,1.15-0.46,1.39-0.81H111.99z"/>
	<path class="st0" d="M112.92,300.58c0-1.54,0.6-2.36,1.76-2.36c1.16,0,1.77,0.82,1.77,2.36c0,1.54-0.61,2.36-1.77,2.36
		C113.52,302.94,112.92,302.12,112.92,300.58z M115.7,300.58c0-1.15-0.35-1.73-1.01-1.73c-0.67,0-1.01,0.58-1.01,1.73
		s0.34,1.73,1.01,1.73C115.35,302.31,115.7,301.73,115.7,300.58z"/>
	<path class="st0" d="M120.53,299.2l-0.65,0.31c-0.12-0.4-0.4-0.65-0.89-0.65c-0.67,0-1.13,0.75-1.13,1.76v0.12h0.03
		c0.15-0.53,0.7-0.77,1.21-0.77c0.91,0,1.53,0.57,1.53,1.47c0,0.92-0.62,1.49-1.63,1.49c-1.17,0-1.81-0.94-1.81-2.36
		c0-1.56,0.8-2.36,1.85-2.36C119.77,298.22,120.26,298.5,120.53,299.2z M118.09,301.44c0,0.52,0.35,0.86,0.9,0.86
		c0.57,0,0.9-0.32,0.9-0.86c0-0.52-0.33-0.84-0.9-0.84C118.45,300.6,118.09,300.94,118.09,301.44z"/>
	<path class="st0" d="M122.81,300.94c0,1.34-0.52,2.44-1.53,3.25l-0.39-0.39c0.87-0.8,1.2-1.6,1.2-2.86s-0.33-2.07-1.2-2.87
		l0.39-0.39C122.29,298.5,122.81,299.6,122.81,300.94z"/>
	<path class="st0" d="M124.58,302.44c0,0.31-0.2,0.51-0.52,0.51s-0.53-0.2-0.53-0.51s0.21-0.5,0.53-0.5S124.58,302.13,124.58,302.44
		z"/>
</g>
</svg>
