<?xml version="1.0" encoding="utf-8"?>
<!-- Generator: Adobe Illustrator 25.4.1, SVG Export Plug-In . SVG Version: 6.00 Build 0)  -->
<svg version="1.1" id="Layer_1" xmlns="http://www.w3.org/2000/svg" xmlns:xlink="http://www.w3.org/1999/xlink" x="0px" y="0px"
	 viewBox="0 0 160 600" style="enable-background:new 0 0 160 600;" xml:space="preserve">
<style type="text/css">
	.st0{fill:#FFFFFF;}
</style>
<g>
	<g>
		<g>
			<g>
				<g>
					<path class="st0" d="M37.39,45.3c0,0.35-0.28,0.62-0.63,0.62c-0.35,0-0.64-0.28-0.64-0.62c0-0.35,0.28-0.62,0.64-0.62
						C37.11,44.68,37.39,44.95,37.39,45.3z M36.28,45.3c0,0.27,0.21,0.49,0.48,0.49c0.27,0,0.47-0.22,0.47-0.49
						c0-0.27-0.2-0.5-0.48-0.5C36.49,44.8,36.28,45.02,36.28,45.3z M36.66,45.62h-0.14V45c0.06-0.01,0.14-0.02,0.24-0.02
						c0.12,0,0.17,0.02,0.21,0.05c0.04,0.03,0.06,0.07,0.06,0.13c0,0.08-0.06,0.12-0.13,0.15v0.01c0.06,0.02,0.09,0.07,0.11,0.15
						c0.02,0.09,0.03,0.13,0.05,0.15H36.9c-0.02-0.02-0.03-0.08-0.05-0.15c-0.01-0.06-0.05-0.09-0.13-0.09h-0.07V45.62z
						 M36.66,45.27h0.07c0.08,0,0.14-0.03,0.14-0.09c0-0.06-0.04-0.09-0.13-0.09c-0.04,0-0.06,0-0.08,0.01V45.27z"/>
				</g>
			</g>
		</g>
		<path class="st0" d="M46.63,43.15c-3.08,0-4.55-2.24-4.55-4.39c0-2.48,1.79-4.48,4.6-4.48c0.96,0,1.95,0.29,2.73,0.96l-0.87,1.21
			c-0.54-0.42-1.11-0.57-1.81-0.57c-1.49,0-2.61,1.04-2.61,2.83c0,1.63,1.03,2.94,2.66,2.94c0.7,0,1.3-0.21,1.84-0.68l0.8,1.22
			C48.67,42.83,47.62,43.15,46.63,43.15"/>
		<path class="st0" d="M54.16,43.15c-2.57,0-4.47-1.94-4.47-4.48c0-2.61,2.07-4.4,4.47-4.4c2.4,0,4.48,1.77,4.48,4.38
			C58.64,41.2,56.75,43.15,54.16,43.15 M56.57,38.66c0-1.56-0.77-2.92-2.41-2.92c-1.62,0-2.42,1.35-2.42,2.9
			c0,1.6,0.75,3.03,2.42,3.03c1.67,0,2.41-1.41,2.41-3.03V38.66z"/>
		<path class="st0" d="M63.85,43.15c-2.57,0-4.47-1.94-4.47-4.48c0-2.61,2.07-4.4,4.47-4.4c2.4,0,4.48,1.77,4.48,4.38
			C68.34,41.2,66.44,43.15,63.85,43.15 M66.27,38.66c0-1.56-0.76-2.92-2.41-2.92c-1.62,0-2.42,1.35-2.42,2.9
			c0,1.6,0.75,3.03,2.42,3.03c1.67,0,2.41-1.41,2.41-3.03V38.66z"/>
		<polygon class="st0" points="69.34,42.94 69.34,30.5 71.27,31.56 71.27,42.94 		"/>
		<path class="st0" d="M75.72,43.2c-2.17,0-3.22-1.04-3.22-1.04l0.87-1.13c0,0,0.99,0.66,2.29,0.66c0.63,0,1.15-0.44,1.15-0.87
			c0-0.44-0.19-0.8-0.77-1.09c-0.57-0.3-1.22-0.61-1.72-0.85c-0.5-0.24-1.62-0.99-1.62-2.45c0-1.48,1.49-2.29,3.02-2.29
			c1.46,0,2.57,0.96,2.57,0.96l-0.75,1.15c0,0-0.83-0.59-1.76-0.59c-0.92,0-1.11,0.59-1.11,0.83c0,0.24,0.09,0.63,0.68,0.94
			c0.59,0.31,1.2,0.64,2.07,1.13c0.87,0.49,1.35,1.32,1.35,2.26C78.8,41.74,77.89,43.2,75.72,43.2"/>
		<path class="st0" d="M84.01,43.15c-3.08,0-4.55-2.24-4.55-4.39c0-2.48,1.79-4.48,4.61-4.48c0.96,0,1.95,0.29,2.73,0.96l-0.87,1.21
			c-0.54-0.42-1.11-0.57-1.81-0.57c-1.49,0-2.61,1.04-2.61,2.83c0,1.63,1.03,2.94,2.66,2.94c0.69,0,1.3-0.21,1.84-0.68l0.8,1.22
			C86.04,42.83,85,43.15,84.01,43.15"/>
		<path class="st0" d="M93.51,41.95c0,0-0.97,1.2-2.82,1.2c-2.17,0-3.23-1.58-3.23-3.18v-5.51h1.93v5.42c0,0.94,0.73,1.72,1.86,1.72
			c0.99,0,1.96-1.18,1.96-1.18v-5.96h1.93v8.46L93.51,41.95z"/>
		<polygon class="st0" points="96.87,42.94 96.87,30.5 98.8,31.56 98.8,42.94 		"/>
		<path class="st0" d="M105.17,43.15c-1.7,0-2.68-0.95-2.68-0.95v4.22h-1.95V34.29l1.95,1.02c0,0,1.04-1.06,2.78-1.06
			c1.82,0,4.1,1.41,4.1,4.55C109.38,41.95,107.14,43.15,105.17,43.15 M105.05,35.75c-1.65,0-2.61,1.55-2.61,1.55v3.2
			c0,0,1.09,1.23,2.68,1.23c1.84,0,2.24-2.21,2.24-2.97C107.36,37.99,107.19,35.75,105.05,35.75"/>
		<path class="st0" d="M114.45,43.17h-1.22c-1.53,0-2.05-1.48-2.05-2.45v-4.99h-1.53v-1.27h1.53v-3.74h1.91v3.74h1.96v1.27h-1.95
			v4.52c0,0.5-0.09,1.31,0.76,1.31h1.39L114.45,43.17z"/>
		<path class="st0" d="M117.54,33c-0.69,0-1.27-0.57-1.27-1.27c0-0.7,0.57-1.27,1.27-1.27c0.7,0,1.27,0.57,1.27,1.27
			C118.81,32.43,118.24,33,117.54,33 M116.59,34.46h1.9v8.48h-1.9V34.46z"/>
		<path class="st0" d="M126.13,42.94v-5.42c0-0.94-0.73-1.72-1.86-1.72c-0.99,0-2.1,1.18-2.1,1.18v5.96h-1.93v-8.46l1.63,0.97
			c0,0,1.11-1.2,2.95-1.2c2.17,0,3.23,1.58,3.23,3.18v5.51H126.13z"/>
		<path class="st0" d="M133.95,46.88c-0.3,0-2.56-0.03-2.56-0.03l0.03-1.55h1.9c1.84,0,2.88-0.99,2.88-2.35v-0.77
			c0,0-1.01,0.96-2.71,0.96c-1.96,0-4.21-1.2-4.21-4.35c0-3.14,2.28-4.55,4.1-4.55c1.74,0,2.78,1.06,2.78,1.06l1.95-0.97v8.43
			C138.12,45.04,136.61,46.88,133.95,46.88 M136.22,37.29c0,0-0.95-1.55-2.61-1.55c-2.14,0-2.31,2.24-2.31,3
			c0,0.76,0.4,2.97,2.24,2.97c1.58,0,2.68-1.23,2.68-1.23V37.29z"/>
		<polygon class="st0" points="24.81,49.37 24.81,43.83 25.9,42.74 29.04,45.88 29.04,46.93 		"/>
		<polygon class="st0" points="22.55,39.08 19,42.63 23.35,44.27 28.53,39.08 		"/>
		<polygon class="st0" points="24.3,34.13 19.73,34.13 21.19,38.36 28.53,38.36 		"/>
		<polygon class="st0" points="29.05,31.87 25.51,28.33 23.86,32.66 29.05,37.85 		"/>
		<polygon class="st0" points="39.73,43.31 34.51,43.31 30.28,39.08 37.61,39.08 		"/>
		<polygon class="st0" points="35.47,33.18 40.21,34.41 36.26,38.36 30.28,38.36 		"/>
		<polygon class="st0" points="29.77,30.51 34,28 34,33.62 29.77,37.85 		"/>
		<polygon class="st0" points="35.15,44.99 33.8,49.61 26.41,42.23 29.4,39.24 		"/>
		<g>
			<path class="st0" d="M141,35.04c0,0.5-0.4,0.9-0.92,0.9c-0.51,0-0.92-0.4-0.92-0.9c0-0.5,0.41-0.9,0.93-0.9
				C140.6,34.14,141,34.53,141,35.04z M139.39,35.04c0,0.4,0.3,0.71,0.7,0.71c0.39,0.01,0.68-0.32,0.68-0.71
				c0-0.4-0.29-0.72-0.69-0.72C139.69,34.32,139.39,34.64,139.39,35.04z M139.94,35.5h-0.21v-0.9c0.08-0.01,0.2-0.03,0.34-0.03
				c0.17,0,0.25,0.03,0.31,0.07c0.05,0.04,0.09,0.11,0.09,0.19c0,0.11-0.08,0.18-0.19,0.21v0.01c0.09,0.03,0.13,0.1,0.16,0.22
				c0.03,0.14,0.05,0.19,0.07,0.22h-0.22c-0.03-0.03-0.04-0.11-0.07-0.22c-0.02-0.09-0.07-0.14-0.19-0.14h-0.1V35.5z M139.95,35h0.1
				c0.12,0,0.21-0.04,0.21-0.13c0-0.08-0.06-0.14-0.19-0.14c-0.06,0-0.09,0.01-0.12,0.01V35z"/>
		</g>
	</g>
</g>
</svg>
