<svg id="Layer_1" xmlns="http://www.w3.org/2000/svg" viewBox="0 0 728 90"><style>.st0{fill:#eaf5fb}</style><path class="st0" d="M37.79 31.77v-4.16h2v3.79c0 1.96.55 2.75 1.93 2.75 1.41 0 1.96-.79 1.96-2.75v-3.58c0-1.62-.45-2.41-1.62-3.17l-1.82-1.17c-1.75-1.14-2.44-2.44-2.44-4.75v-3.06c0-2.62 1.41-4.09 3.85-4.09 2.44 0 3.85 1.48 3.85 4.09v3.06h-2v-2.72c0-1.86-.52-2.58-1.82-2.58s-1.82.72-1.82 2.58v2.58c0 1.62.45 2.41 1.62 3.17l1.82 1.17c1.75 1.14 2.44 2.44 2.44 4.75v4.09c0 2.72-1.48 4.23-3.99 4.23s-3.96-1.51-3.96-4.23zM51.28 13.71h-2.89v-1.79h7.85v1.79h-2.89v21.95h-2.06V13.71zM59.43 11.92h3.82c2.75 0 4.06 1.41 4.06 4.3v3.03c0 1.93-.62 3.1-1.86 3.65v.07c1.24.55 1.86 1.72 1.86 3.68v9.02h-2.06v-8.88c0-2.2-.62-2.86-2.58-2.86H61.5v11.73h-2.06V11.92zm3.58 10.22c1.72 0 2.24-.65 2.24-2.86v-2.72c0-2.2-.52-2.86-2.24-2.86H61.5v8.43h1.51zM71.16 11.92h6.81v1.79h-4.75V22h4.13v1.79h-4.13v10.08h4.75v1.79h-6.81V11.92zM81.31 11.92H84l3.75 17.38h.07V11.92h1.86v23.74h-2.24l-4.2-19.58h-.07v19.58h-1.86V11.92zM93.56 32.29V15.84c0-2.72 1.48-4.27 3.96-4.27 2.51 0 3.92 1.55 3.92 4.27v2.62h-1.96v-2.24c0-2-.55-2.79-1.93-2.79-1.41 0-1.93.79-1.93 2.79v15.83c0 1.41.52 2.1 1.65 2.1 1.41 0 2.2-1.07 2.2-2.99v-6.81h-1.93v-1.79h3.99v13.11h-1.75v-1.69h-.1c-.55 1.31-1.55 2.03-2.96 2.03-1.99 0-3.16-1.41-3.16-3.72zM107.32 13.71h-2.89v-1.79h7.85v1.79h-2.89v21.95h-2.06V13.71zM115.48 11.92h2.06V22h3.89V11.92h2.06v23.74h-2.06V23.79h-3.89v11.87h-2.06V11.92zM127.52 11.92h6.81v1.79h-4.75V22h4.13v1.79h-4.13v10.08h4.75v1.79h-6.81V11.92zM137.67 11.92h2.68l3.75 17.38h.07V11.92h1.86v23.74h-2.24l-4.2-19.58h-.07v19.58h-1.86V11.92zM150.85 35.66h-.83v-2.82h2.34v2.48l-1.51 3.82h-1.2l1.2-3.48zM164.13 13.71h-2.89v-1.79h7.85v1.79h-2.89v21.95h-2.06V13.71zM171.87 31.71V15.88c0-2.75 1.48-4.3 3.99-4.3s3.99 1.55 3.99 4.3v15.83c0 2.75-1.48 4.3-3.99 4.3s-3.99-1.55-3.99-4.3zm5.92-.35V16.22c0-2-.55-2.79-1.93-2.79-1.41 0-1.93.79-1.93 2.79v15.14c0 2 .52 2.79 1.93 2.79 1.38 0 1.93-.79 1.93-2.79zM183.74 11.92h2.68l3.75 17.38h.07V11.92h1.86v23.74h-2.24l-4.2-19.58h-.07v19.58h-1.86V11.92zM196.13 11.92h6.81v1.79h-4.75V22h4.13v1.79h-4.13v10.08h4.75v1.79h-6.81V11.92zM207.41 35.66h-.83v-2.82h2.34v2.48l-1.51 3.82h-1.2l1.2-3.48zM41.06 45.47h2.72l2.99 23.74h-2.1l-.69-5.88h-3.23l-.69 5.88h-2l3-23.74zm2.72 16.07l-1.38-12.8h-.07l-1.38 12.8h2.83zM50 45.47h2.68l3.75 17.38h.07V45.47h1.86v23.74h-2.24l-4.2-19.58h-.07v19.58H50V45.47zM62.39 45.47h3.92c2.75 0 4.06 1.41 4.06 4.3v15.14c0 2.89-1.31 4.3-4.06 4.3h-3.92V45.47zm3.68 21.95c1.72 0 2.24-.65 2.24-2.86V50.11c0-2.2-.52-2.86-2.24-2.86h-1.62v20.16h1.62zM79.9 45.47h6.81v1.79h-4.75v8.64h4.13v1.79h-4.13v11.53H79.9V45.47zM89.92 45.47h2.06v23.74h-2.06V45.47zM96 45.47h3.82c2.75 0 4.06 1.41 4.06 4.3v3.03c0 1.93-.62 3.1-1.86 3.65v.07c1.24.55 1.86 1.72 1.86 3.68v9.01h-2.06v-8.88c0-2.2-.62-2.86-2.58-2.86h-1.17V69.2H96V45.47zm3.58 10.22c1.72 0 2.24-.65 2.24-2.86v-2.72c0-2.2-.52-2.86-2.24-2.86h-1.51v8.43h1.51zM107.74 45.47h3.27l2.65 17.51h.07l2.65-17.51h3.41v23.74h-2.06V47.98h-.07l-3.2 21.23h-1.62l-3.2-21.23h-.07v21.23h-1.82V45.47zM129.48 45.47h3.27l2.65 17.51h.07l2.65-17.51h3.41v23.74h-2.06V47.98h-.07l-3.2 21.23h-1.62l-3.2-21.23h-.07v21.23h-1.82V45.47zM145.48 65.39V45.47h2.06v19.54c0 1.93.48 2.68 1.86 2.68 1.38 0 1.86-.76 1.86-2.68V45.47h2v19.92c0 2.65-1.44 4.16-3.89 4.16-2.44 0-3.89-1.51-3.89-4.16zM156.83 65.32v-4.16h2v3.79c0 1.96.55 2.75 1.93 2.75 1.41 0 1.96-.79 1.96-2.75v-3.58c0-1.62-.45-2.41-1.62-3.17l-1.82-1.17c-1.75-1.14-2.44-2.44-2.44-4.75v-3.06c0-2.62 1.41-4.09 3.85-4.09 2.44 0 3.85 1.48 3.85 4.09v3.06h-2v-2.72c0-1.86-.52-2.58-1.82-2.58s-1.82.72-1.82 2.58v2.58c0 1.62.45 2.41 1.62 3.17l1.82 1.17c1.75 1.13 2.44 2.44 2.44 4.75v4.09c0 2.72-1.48 4.23-3.99 4.23s-3.96-1.51-3.96-4.23zM168.22 65.46V49.22c0-2.62 1.38-4.09 3.85-4.09 2.51 0 3.89 1.48 3.89 4.09v3.89H174v-3.54c0-1.86-.55-2.58-1.86-2.58-1.34 0-1.86.72-1.86 2.58v15.55c0 1.86.52 2.58 1.86 2.58 1.31 0 1.86-.72 1.86-2.58v-4.78h1.96v5.13c0 2.62-1.38 4.09-3.89 4.09-2.47-.01-3.85-1.49-3.85-4.1zM179.61 45.47h2.06v21.95h4.4v1.79h-6.47V45.47zM189.28 45.47h6.81v1.79h-4.75v8.29h4.13v1.79h-4.13v10.08h4.75v1.79h-6.81V45.47zM199.12 65.32v-4.16h2v3.79c0 1.96.55 2.75 1.93 2.75 1.41 0 1.96-.79 1.96-2.75v-3.58c0-1.62-.45-2.41-1.62-3.17l-1.82-1.17c-1.75-1.14-2.44-2.44-2.44-4.75v-3.06c0-2.62 1.41-4.09 3.85-4.09 2.44 0 3.85 1.48 3.85 4.09v3.06h-2v-2.72c0-1.86-.52-2.58-1.82-2.58s-1.82.72-1.82 2.58v2.58c0 1.62.45 2.41 1.62 3.17l1.82 1.17c1.75 1.13 2.44 2.44 2.44 4.75v4.09c0 2.72-1.48 4.23-3.99 4.23s-3.96-1.51-3.96-4.23zM210.64 66.39h2.31v2.82h-2.31v-2.82z"/></svg>