<svg id="Layer_1" xmlns="http://www.w3.org/2000/svg" viewBox="0 0 728 90"><style>.st0{fill:#fff}</style><path class="st0" d="M19.23 39.13h6.16v1.62H21.1v7.5h3.73v1.62H21.1v9.12h4.29v1.62h-6.16V39.13zM28.57 39.13h1.87v19.85h3.98v1.62h-5.85V39.13zM37.46 39.13h1.87V60.6h-1.87V39.13zM43.13 39.13h2.96l2.4 15.84h.06l2.4-15.84h3.08V60.6h-1.87V41.4h-.06l-2.89 19.2h-1.46l-2.89-19.2h-.06v19.2h-1.65V39.13zM57.81 39.13h1.87V60.6h-1.87V39.13zM63.47 39.13h2.43l3.39 15.71h.06V39.13h1.68V60.6h-2.02l-3.8-17.7h-.06v17.7h-1.68V39.13zM76.82 39.13h2.46l2.71 21.47h-1.9l-.62-5.32h-2.92l-.62 5.32h-1.8l2.69-21.47zm2.46 14.53l-1.24-11.57h-.06l-1.24 11.57h2.54zM85.87 40.75h-2.61v-1.62h7.09v1.62h-2.61V60.6h-1.87V40.75zM93.4 39.13h6.16v1.62h-4.29v7.5H99v1.62h-3.73v9.12h4.29v1.62H93.4V39.13zM107.68 57.08v-3.76h1.8v3.42c0 1.77.5 2.49 1.74 2.49 1.28 0 1.77-.72 1.77-2.49V53.5c0-1.46-.4-2.18-1.46-2.86l-1.65-1.06c-1.59-1.03-2.21-2.21-2.21-4.29v-2.77c0-2.36 1.28-3.7 3.48-3.7s3.48 1.34 3.48 3.7v2.77h-1.8v-2.46c0-1.68-.47-2.33-1.65-2.33s-1.65.65-1.65 2.33v2.33c0 1.46.4 2.18 1.46 2.86l1.65 1.06c1.59 1.03 2.21 2.21 2.21 4.29v3.7c0 2.46-1.34 3.83-3.61 3.83-2.26.01-3.56-1.36-3.56-3.82zM120.03 40.75h-2.61v-1.62h7.09v1.62h-2.61V60.6h-1.87V40.75zM127.49 57.14V39.13h1.87V56.8c0 1.74.44 2.43 1.68 2.43s1.68-.68 1.68-2.43V39.13h1.8v18.01c0 2.4-1.31 3.76-3.52 3.76-2.2.01-3.51-1.36-3.51-3.76zM138.26 39.13h3.45c2.49 0 3.67 1.28 3.67 3.89v2.58c0 1.74-.53 2.8-1.62 3.3v.06c1.18.5 1.74 1.56 1.74 3.36v4.39c0 2.61-1.18 3.89-3.67 3.89h-3.58V39.13zm3.23 9.12c1.56 0 2.02-.59 2.02-2.55v-2.36c0-1.99-.47-2.58-2.02-2.58h-1.37v7.5h1.37zm.13 10.73c1.56 0 2.02-.59 2.02-2.58v-3.95c0-1.99-.47-2.58-2.02-2.58h-1.49v9.12h1.49zM149.02 39.13h3.45c2.49 0 3.67 1.28 3.67 3.89v2.58c0 1.74-.53 2.8-1.62 3.3v.06c1.18.5 1.74 1.56 1.74 3.36v4.39c0 2.61-1.18 3.89-3.67 3.89h-3.58V39.13zm3.24 9.12c1.56 0 2.02-.59 2.02-2.55v-2.36c0-1.99-.47-2.58-2.02-2.58h-1.37v7.5h1.37zm.12 10.73c1.56 0 2.02-.59 2.02-2.58v-3.95c0-1.99-.47-2.58-2.02-2.58h-1.49v9.12h1.49zM159.66 57.02V42.71c0-2.49 1.34-3.89 3.61-3.89s3.61 1.4 3.61 3.89v14.31c0 2.49-1.34 3.89-3.61 3.89s-3.61-1.4-3.61-3.89zm5.35-.31V43.02c0-1.8-.5-2.52-1.74-2.52-1.28 0-1.74.72-1.74 2.52v13.69c0 1.8.47 2.52 1.74 2.52 1.25 0 1.74-.72 1.74-2.52zM170.55 39.13H174c2.49 0 3.67 1.28 3.67 3.89v2.74c0 1.74-.56 2.8-1.68 3.3v.06c1.12.5 1.68 1.56 1.68 3.33v8.15h-1.87v-8.03c0-1.99-.56-2.58-2.33-2.58h-1.06V60.6h-1.87V39.13zm3.24 9.24c1.56 0 2.02-.59 2.02-2.58v-2.46c0-1.99-.47-2.58-2.02-2.58h-1.37v7.62h1.37zM181.32 39.13h2.43l3.39 15.71h.06V39.13h1.68V60.6h-2.02l-3.8-17.7H183v17.7h-1.68V39.13zM197.96 39.13h6.16v1.62h-4.29v7.81h3.73v1.62h-3.73V60.6h-1.87V39.13zM208.5 39.13h2.46l2.71 21.47h-1.9l-.62-5.32h-2.92l-.62 5.32h-1.8l2.69-21.47zm2.46 14.53l-1.24-11.57h-.06l-1.24 11.57h2.54zM217.56 40.75h-2.61v-1.62h7.09v1.62h-2.61V60.6h-1.87V40.75zM20.53 77.75h-1.11V66.8h1.11v10.95zM31.85 76.13h.03V66.8h1.11v10.95H31.6l-6.37-9.42h-.03v9.42h-1.11V66.8h1.39l6.37 9.33zM45.5 72.97l-.03-.03c-.32.25-1.01.4-1.56.4-1.9 0-3.34-1.38-3.34-3.37 0-2.04 1.5-3.45 3.56-3.45s3.56 1.41 3.56 3.45c0 1.13-.45 2.09-.99 2.97l-2.98 4.81h-1.28l3.06-4.78zm-1.37-5.5c-1.44 0-2.44 1.08-2.44 2.51 0 1.41.94 2.47 2.44 2.47s2.44-1.07 2.44-2.47c0-1.43-1-2.51-2.44-2.51zM54.85 77.75h-1.22l4.73-10.95h1.08l4.7 10.95H62.9l-1.21-2.88h-5.66l-1.18 2.88zm1.61-3.9h4.83l-2.41-5.81-2.42 5.81zM67.51 77.75H66.4V66.8h3.22c2.17 0 3.74.79 3.74 2.92 0 1.62-1.21 2.64-2.8 2.81l3.2 5.21H72.4l-3.03-5.12h-1.86v5.13zm0-6.08h1.93c1.78 0 2.8-.65 2.8-1.95 0-1.44-1.1-1.96-2.75-1.96h-1.98v3.91zM77.43 76.76h5.86v.99h-6.97V66.8h6.79v.99h-5.68v3.77h5.3v.97h-5.3v4.23zM86.04 77.75h-1.22l4.73-10.95h1.08l4.7 10.95H94.1l-1.21-2.88h-5.66l-1.19 2.88zm1.61-3.9h4.83l-2.41-5.81-2.42 5.81zM102.9 68.57c-.46-.67-1.22-1.1-2.26-1.1-1.08 0-2.34.65-2.34 2.06 0 1.39 1.16 1.75 2.38 2.15 1.55.51 3.25 1.01 3.25 3.2s-1.84 3.15-3.57 3.15c-1.33 0-2.66-.54-3.45-1.62l.96-.71c.48.77 1.36 1.38 2.51 1.38 1.13 0 2.43-.71 2.43-2.12 0-1.53-1.28-1.92-2.68-2.35-1.45-.45-2.94-1.08-2.94-3.06 0-2.12 1.89-3.02 3.5-3.02 1.47 0 2.57.62 3.09 1.33l-.88.71zM116.6 78.03c-3.26 0-5.71-2.43-5.71-5.75s2.44-5.75 5.71-5.75c3.26 0 5.71 2.43 5.71 5.75s-2.44 5.75-5.71 5.75zm0-10.53c-2.81 0-4.53 2.23-4.53 4.78s1.72 4.76 4.53 4.76c2.81 0 4.53-2.21 4.53-4.76s-1.71-4.78-4.53-4.78zM133.05 76.13h.03V66.8h1.11v10.95h-1.39l-6.37-9.42h-.03v9.42h-1.11V66.8h1.39l6.37 9.33zM145.4 77.75h-1.11v-9.96h-3.67v-.99h8.44v.99h-3.67v9.96zM151.36 66.8h1.11v4.75h5.97V66.8h1.11v10.95h-1.11v-5.18h-5.97v5.18h-1.11V66.8zM164.23 76.76h5.86v.99h-6.97V66.8h6.79v.99h-5.68v3.77h5.3v.97h-5.3v4.23zM177.44 66.8h3.26c1.67 0 3.53.6 3.53 2.8 0 1.14-.77 2.09-1.93 2.35v.03c1.42.15 2.47 1.14 2.47 2.74 0 1.83-1.56 3.03-4.08 3.03h-3.25V66.8zm1.11 4.8h2.24c1.07 0 2.32-.46 2.32-1.92 0-1.39-1.19-1.92-2.63-1.92h-1.93v3.84zm0 5.19h2.07c1.61 0 3.02-.6 3.02-2.13 0-1.44-1.04-2.15-2.81-2.15h-2.27v4.28zM193.04 78.03c-3.26 0-5.71-2.43-5.71-5.75s2.44-5.75 5.71-5.75c3.26 0 5.71 2.43 5.71 5.75s-2.45 5.75-5.71 5.75zm0-10.53c-2.81 0-4.53 2.23-4.53 4.78s1.72 4.76 4.53 4.76c2.81 0 4.53-2.21 4.53-4.76s-1.71-4.78-4.53-4.78zM201.72 66.8h3.63c2.74 0 5.75 1.83 5.75 5.47 0 3.65-3.02 5.47-5.75 5.47h-3.63V66.8zm1.11 9.96h2.21c3.29 0 4.89-2.23 4.89-4.48s-1.59-4.48-4.89-4.48h-2.21v8.96zM217.28 77.75h-1.11v-4.72l-4.1-6.23h1.39l3.29 5.3 3.32-5.3h1.3l-4.1 6.23v4.72zM222.83 77.84c-.49 0-.84-.4-.84-.83s.34-.84.84-.84.83.4.83.84-.33.83-.83.83z"/></svg>