<svg id="Layer_1" xmlns="http://www.w3.org/2000/svg" viewBox="0 0 728 90"><style>.st0{fill:#00a9e0}.st1{fill:#fff}</style><path class="st0" d="M458.99 53.32h94.52v21.31h-94.52z"/><path class="st1" d="M468.96 67.9v-7.2h1.75v5.69h2.79v1.52h-4.54zM475.23 67.9v-7.2h4.84v1.48h-3.17v1.35h2.99v1.39h-2.99v1.5h3.35v1.49h-5.02zM487.21 67.9l-.56-1.42h-2.79l-.53 1.42h-1.89l3.02-7.21h1.69l2.99 7.21h-1.93zm-1.93-5.28l-.92 2.47h1.81l-.89-2.47zM494.52 67.9l-1.56-2.86h-.59v2.86h-1.71v-7.2h2.75c1.38 0 2.76.53 2.76 2.18 0 .97-.57 1.66-1.5 1.94l1.88 3.08h-2.03zm-1.23-5.8h-.93v1.68h.82c.56 0 1.26-.14 1.26-.88.01-.67-.63-.8-1.15-.8zM502.91 67.9l-2.9-4.71h-.03l.04 4.71h-1.69v-7.2h1.98l2.89 4.7h.03l-.04-4.7h1.69v7.21h-1.97zM517.28 67.9l.04-5.1h-.03l-1.87 5.1h-1.22l-1.82-5.1h-.03l.04 5.1h-1.64v-7.2h2.47l1.64 4.62h.04l1.57-4.62h2.51v7.21h-1.7zM524.96 68.1c-2.25 0-3.92-1.55-3.92-3.83 0-2.31 1.67-3.77 3.92-3.77 2.26 0 3.93 1.46 3.93 3.77 0 2.28-1.67 3.83-3.93 3.83zm0-6.03c-1.22 0-2.06.94-2.06 2.2 0 1.3.84 2.24 2.06 2.24 1.21 0 2.07-.94 2.07-2.24 0-1.26-.84-2.2-2.07-2.2zM534.82 67.9l-1.56-2.86h-.59v2.86h-1.71v-7.2h2.75c1.38 0 2.76.53 2.76 2.18 0 .97-.57 1.66-1.5 1.94l1.88 3.08h-2.03zm-1.23-5.8h-.93v1.68h.82c.56 0 1.26-.14 1.26-.88.01-.67-.64-.8-1.15-.8zM538.62 67.9v-7.2h4.84v1.48h-3.17v1.35h2.99v1.39h-2.99v1.5h3.35v1.49h-5.02z"/></svg>