<svg id="Layer_1" xmlns="http://www.w3.org/2000/svg" viewBox="0 0 728 90"><style>.st0{fill:#fff}</style><path class="st0" d="M38.99 82.26h-.75l2.09-4.82h.61l2.07 4.82h-.76l-.49-1.18h-2.29l-.48 1.18zm.72-1.78h1.8l-.9-2.26-.9 2.26zM43.59 79.4c0-.14-.01-.26-.02-.36h.6c.01.08.02.18.02.28s.01.19.01.26h.02c.09-.19.22-.34.4-.46.17-.12.37-.17.59-.17.1 0 .18.01.25.03l-.03.59c-.09-.02-.19-.03-.29-.03-.15 0-.29.03-.4.08-.11.06-.21.13-.28.23-.07.1-.13.21-.17.33-.04.12-.05.25-.05.39v1.69h-.64v-2.53c0-.09 0-.2-.01-.33zM46.81 77.87c0 .12-.04.21-.12.29-.08.08-.18.12-.3.12a.407.407 0 0 1-.42-.41.407.407 0 0 1 .42-.42.407.407 0 0 1 .42.42zm-.1 4.39h-.64v-3.22h.64v3.22zM50.84 80.62v.11c0 .04 0 .07-.01.11h-2.56a.964.964 0 0 0 .32.69c.1.09.21.16.33.21.12.05.26.07.4.07a1.08 1.08 0 0 0 .93-.49l.45.36c-.17.23-.38.4-.61.5-.23.11-.49.16-.78.16-.25 0-.47-.04-.68-.12-.21-.08-.39-.2-.54-.34a1.58 1.58 0 0 1-.35-.53c-.09-.21-.13-.44-.13-.69 0-.25.04-.48.13-.69.08-.21.2-.39.35-.54.15-.15.33-.27.53-.35a1.764 1.764 0 0 1 1.3-.01c.19.08.36.19.49.33s.24.32.31.53c.08.2.12.43.12.69zm-.66-.26c0-.13-.03-.25-.06-.36a.925.925 0 0 0-.17-.29.697.697 0 0 0-.28-.19.937.937 0 0 0-.39-.07c-.14 0-.26.02-.38.07s-.22.11-.31.19-.16.18-.22.29-.09.23-.1.36h1.91zM52.37 82.26h-.64v-5.14h.64v5.14zM55.43 79.04l.73 2.46h.01l.77-2.46h.67l.78 2.46h.01l.73-2.46h.67l-1.07 3.22h-.67l-.8-2.42h-.01l-.79 2.42h-.67l-1.07-3.22h.71zM62.45 80.17c0-.24-.07-.42-.22-.53s-.34-.17-.58-.17c-.18 0-.35.04-.51.11s-.3.16-.4.27l-.34-.41c.16-.15.35-.27.58-.35.23-.09.47-.13.74-.13.23 0 .43.03.6.1s.31.16.42.27.19.25.24.4c.05.15.08.32.08.5v1.41c0 .11 0 .22.01.34s.02.22.04.3h-.58c-.04-.15-.05-.31-.05-.46h-.02c-.12.17-.27.31-.45.4-.18.1-.39.14-.64.14-.13 0-.26-.02-.4-.05-.14-.03-.26-.09-.38-.17a.932.932 0 0 1-.28-.31c-.08-.13-.11-.28-.11-.47 0-.25.07-.44.2-.58.13-.14.3-.25.52-.33.21-.08.45-.12.72-.15s.54-.03.81-.03v-.1zm-.15.55c-.16 0-.32.01-.49.02-.17.01-.32.04-.46.08s-.25.1-.34.18c-.09.08-.14.19-.14.33a.463.463 0 0 0 .21.4c.06.04.13.07.21.08.08.02.16.02.24.02.3 0 .53-.09.69-.27.16-.18.24-.4.24-.68v-.17h-.16zM65.87 79.85a.793.793 0 0 0-.31-.29.926.926 0 0 0-.44-.11c-.07 0-.15.01-.22.02-.07.02-.14.04-.19.07-.06.03-.1.08-.14.13-.03.05-.05.12-.05.19 0 .14.06.24.18.3.12.07.31.13.55.18.15.04.3.08.43.13s.25.11.34.19c.1.07.17.16.23.27.05.1.08.23.08.37 0 .19-.04.35-.11.48s-.17.24-.29.32c-.12.08-.26.14-.41.18-.15.04-.31.05-.48.05-.25 0-.48-.05-.72-.14-.23-.09-.43-.24-.58-.43l.46-.39c.09.13.21.23.36.32s.32.13.5.13c.08 0 .16-.01.23-.02s.14-.04.2-.08.11-.08.15-.14c.04-.06.05-.13.05-.22 0-.15-.07-.26-.21-.33-.14-.07-.35-.14-.63-.2-.11-.03-.22-.06-.33-.1a1.08 1.08 0 0 1-.3-.16.737.737 0 0 1-.31-.63c0-.17.04-.32.11-.45s.16-.23.28-.31c.11-.08.24-.14.39-.18a1.684 1.684 0 0 1 1.12.08c.22.09.38.22.5.39l-.44.38zM70.43 79.56h-.86v1.67c0 .19.04.33.11.42.07.08.19.12.35.12.06 0 .12-.01.19-.02s.13-.03.18-.06l.02.52c-.08.03-.16.05-.25.06-.09.02-.19.02-.29.02-.3 0-.54-.08-.7-.25-.16-.17-.24-.42-.24-.75v-1.75h-.62v-.52h.62v-.93h.63v.93h.86v.54zM71.08 79.4c0-.14-.01-.26-.02-.36h.6c.01.08.02.18.02.28s.01.19.01.26h.02c.09-.19.22-.34.4-.46.17-.12.37-.17.59-.17.1 0 .18.01.25.03l-.03.59c-.09-.02-.19-.03-.29-.03-.15 0-.29.03-.4.08-.11.06-.21.13-.28.23-.07.1-.13.21-.17.33-.04.12-.05.25-.05.39v1.69h-.64v-2.53c0-.09 0-.2-.01-.33zM76.44 80.62v.11c0 .04 0 .07-.01.11h-2.56a.964.964 0 0 0 .32.69c.1.09.21.16.33.21.12.05.26.07.4.07a1.08 1.08 0 0 0 .93-.49l.45.36c-.17.23-.38.4-.61.5-.23.11-.49.16-.78.16-.25 0-.47-.04-.68-.12-.21-.08-.39-.2-.54-.34a1.58 1.58 0 0 1-.35-.53c-.09-.21-.13-.44-.13-.69 0-.25.04-.48.13-.69.08-.21.2-.39.35-.54.15-.15.33-.27.53-.35a1.764 1.764 0 0 1 1.3-.01c.19.08.36.19.49.33s.24.32.31.53c.09.2.12.43.12.69zm-.65-.26c0-.13-.03-.25-.06-.36a.925.925 0 0 0-.17-.29.697.697 0 0 0-.28-.19.937.937 0 0 0-.39-.07c-.14 0-.26.02-.38.07s-.22.11-.31.19-.16.18-.22.29-.09.23-.1.36h1.91zM79.29 80.17c0-.24-.07-.42-.22-.53s-.34-.17-.58-.17c-.18 0-.35.04-.51.11s-.3.16-.4.27l-.34-.41c.16-.15.35-.27.58-.35.23-.09.47-.13.74-.13.23 0 .43.03.6.1s.31.16.42.27.19.25.24.4c.05.15.08.32.08.5v1.41c0 .11 0 .22.01.34s.02.22.04.3h-.58c-.04-.15-.05-.31-.05-.46h-.02c-.12.17-.27.31-.45.4-.18.1-.39.14-.64.14-.13 0-.26-.02-.4-.05-.14-.03-.26-.09-.38-.17a.932.932 0 0 1-.28-.31c-.08-.13-.11-.28-.11-.47 0-.25.07-.44.2-.58.13-.14.3-.25.52-.33.21-.08.45-.12.72-.15s.54-.03.81-.03v-.1zm-.15.55c-.16 0-.32.01-.49.02-.17.01-.32.04-.46.08s-.25.1-.34.18c-.09.08-.14.19-.14.33a.463.463 0 0 0 .21.4c.06.04.13.07.21.08.08.02.16.02.24.02.3 0 .53-.09.69-.27.16-.18.24-.4.24-.68v-.17h-.16zM82.48 79.56h-.86v1.67c0 .19.04.33.11.42.07.08.19.12.35.12.06 0 .12-.01.19-.02s.13-.03.18-.06l.02.52c-.08.03-.16.05-.25.06-.09.02-.19.02-.29.02-.3 0-.54-.08-.7-.25-.15-.15-.23-.4-.23-.73v-1.75h-.62v-.52H81v-.93h.63v.93h.86v.52zM86.16 80.62v.11c0 .04 0 .07-.01.11h-2.56a.964.964 0 0 0 .32.69c.1.09.21.16.33.21.12.05.26.07.4.07a1.08 1.08 0 0 0 .93-.49l.45.36c-.17.23-.38.4-.61.5-.23.11-.49.16-.78.16-.25 0-.47-.04-.68-.12-.21-.08-.39-.2-.54-.34a1.58 1.58 0 0 1-.35-.53c-.09-.21-.13-.44-.13-.69 0-.25.04-.48.13-.69.08-.21.2-.39.35-.54.15-.15.33-.27.53-.35a1.764 1.764 0 0 1 1.3-.01c.19.08.36.19.49.33s.24.32.31.53c.08.2.12.43.12.69zm-.66-.26c0-.13-.03-.25-.06-.36a.925.925 0 0 0-.17-.29.697.697 0 0 0-.28-.19.937.937 0 0 0-.39-.07c-.14 0-.26.02-.38.07s-.22.11-.31.19-.16.18-.22.29-.09.23-.1.36h1.91zM89.61 81.75c-.12.19-.29.34-.5.45-.21.1-.43.15-.66.15-.25 0-.47-.04-.67-.13-.2-.09-.37-.21-.51-.36s-.25-.33-.33-.54-.12-.43-.12-.67c0-.24.04-.46.12-.66.08-.21.19-.39.33-.54.14-.15.31-.27.51-.36.2-.09.42-.13.66-.13.26 0 .49.06.69.17.19.11.35.25.46.4h.01v-2.4h.64v5.14h-.62v-.51h-.01zm-2.12-1.11c0 .15.02.29.07.43s.11.26.2.37.2.2.33.26c.13.07.29.1.46.1.16 0 .31-.03.45-.09s.25-.15.34-.25c.1-.11.17-.23.22-.37.05-.14.08-.29.08-.44a1.252 1.252 0 0 0-.3-.81c-.1-.11-.21-.2-.34-.26-.13-.06-.28-.1-.45-.1-.18 0-.33.03-.46.1a.93.93 0 0 0-.33.26c-.09.11-.16.23-.2.37-.05.14-.07.29-.07.43zM93.3 79.04l.73 2.46h.01l.77-2.46h.67l.78 2.46h.01l.73-2.46h.67l-1.07 3.22h-.67l-.8-2.42h-.01l-.79 2.42h-.67l-1.07-3.22h.71zM99.07 77.87c0 .12-.04.21-.12.29-.08.08-.18.12-.3.12a.407.407 0 0 1-.42-.41.407.407 0 0 1 .42-.42.407.407 0 0 1 .42.42zm-.1 4.39h-.64v-3.22h.64v3.22zM101.66 79.56h-.86v1.67c0 .19.04.33.11.42.07.08.19.12.35.12.06 0 .12-.01.19-.02s.13-.03.18-.06l.02.52c-.08.03-.16.05-.25.06-.09.02-.19.02-.29.02-.3 0-.54-.08-.7-.25-.16-.17-.24-.42-.24-.75v-1.75h-.62v-.52h.62v-.93h.63v.93h.86v.54zM102.98 79.53c.08-.16.21-.29.39-.41s.39-.17.63-.17c.21 0 .39.04.54.11.15.07.27.16.37.28.1.12.17.26.22.42.05.16.07.33.07.51v2h-.64v-1.79c0-.13-.01-.26-.03-.38a.947.947 0 0 0-.11-.31.661.661 0 0 0-.22-.22.738.738 0 0 0-.36-.08c-.25 0-.46.1-.63.29s-.24.45-.24.77v1.71h-.64v-5.14h.64v2.41h.01zM112.15 81.51c-.19.26-.44.47-.74.63s-.67.24-1.1.24c-.37 0-.71-.06-1.02-.19-.31-.12-.58-.3-.8-.52-.22-.22-.4-.49-.53-.8a2.61 2.61 0 0 1-.19-1.02c0-.38.06-.72.19-1.03.13-.31.31-.58.54-.8.23-.22.5-.39.81-.51a2.803 2.803 0 0 1 2 .01c.15.06.29.14.42.23s.24.2.33.32l-.53.41c-.12-.16-.28-.3-.5-.41s-.45-.16-.7-.16c-.28 0-.53.05-.76.15-.22.1-.42.24-.57.42-.16.18-.28.38-.37.62-.09.23-.13.48-.13.74 0 .27.04.53.13.76.08.24.2.44.36.62s.35.31.57.41.48.15.75.15.52-.05.74-.16c.22-.11.41-.27.55-.48l.55.37zM115.99 80.64c0 .25-.04.48-.13.69-.09.21-.21.39-.37.54-.16.15-.34.27-.55.35-.21.08-.44.13-.69.13-.25 0-.47-.04-.69-.13a1.569 1.569 0 0 1-.91-.89c-.09-.21-.13-.44-.13-.69a1.65 1.65 0 0 1 .49-1.21c.15-.15.34-.27.55-.35.21-.08.44-.13.69-.13.24 0 .47.04.69.13.21.08.4.2.55.35.16.15.28.33.37.53.09.2.13.43.13.68zm-.67 0a1.226 1.226 0 0 0-.28-.81.862.862 0 0 0-.34-.25c-.13-.06-.29-.1-.46-.1-.17 0-.33.03-.46.1-.13.06-.25.15-.34.25a1.226 1.226 0 0 0-.28.81 1.226 1.226 0 0 0 .28.81.997.997 0 0 0 .8.35c.17 0 .33-.03.46-.09s.25-.15.34-.26a1.226 1.226 0 0 0 .28-.81zM120.14 80.64c0 .25-.04.48-.13.69-.09.21-.21.39-.37.54-.16.15-.34.27-.55.35-.21.08-.44.13-.69.13-.25 0-.47-.04-.69-.13a1.569 1.569 0 0 1-.91-.89c-.09-.21-.13-.44-.13-.69a1.65 1.65 0 0 1 .49-1.21c.15-.15.34-.27.55-.35.21-.08.44-.13.69-.13.24 0 .47.04.69.13.21.08.4.2.55.35.16.15.28.33.37.53.08.2.13.43.13.68zm-.67 0a1.226 1.226 0 0 0-.28-.81.862.862 0 0 0-.34-.25c-.13-.06-.29-.1-.46-.1-.17 0-.33.03-.46.1-.13.06-.25.15-.34.25a1.226 1.226 0 0 0-.28.81 1.226 1.226 0 0 0 .28.81.997.997 0 0 0 .8.35c.17 0 .33-.03.46-.09s.25-.15.34-.26a1.226 1.226 0 0 0 .28-.81zM121.68 82.26h-.64v-5.14h.64v5.14zM124.51 82.26h-.67v-4.22h-1.54v-.59h3.76v.59h-1.54v4.22zM129.27 80.64c0 .25-.04.48-.13.69-.09.21-.21.39-.37.54-.16.15-.34.27-.55.35-.21.08-.44.13-.69.13-.25 0-.47-.04-.69-.13a1.569 1.569 0 0 1-.91-.89c-.09-.21-.13-.44-.13-.69a1.65 1.65 0 0 1 .49-1.21c.15-.15.34-.27.55-.35.21-.08.44-.13.69-.13.24 0 .47.04.69.13.21.08.4.2.55.35.16.15.28.33.37.53.09.2.13.43.13.68zm-.66 0a1.226 1.226 0 0 0-.28-.81.862.862 0 0 0-.34-.25c-.13-.06-.29-.1-.46-.1-.17 0-.33.03-.46.1-.13.06-.25.15-.34.25a1.226 1.226 0 0 0-.28.81 1.226 1.226 0 0 0 .28.81.997.997 0 0 0 .8.35c.17 0 .33-.03.46-.09s.25-.15.34-.26c.09-.11.16-.23.21-.37.04-.13.07-.28.07-.44zM130.73 79.04c.01.08.02.17.02.28 0 .1.01.19.01.25h.02c.04-.09.1-.17.17-.24.07-.08.15-.14.24-.2s.19-.1.3-.13c.11-.03.22-.05.34-.05.21 0 .39.04.54.11.15.07.27.16.37.28.1.12.17.26.22.42.05.16.07.33.07.51v2h-.64v-1.79c0-.13-.01-.26-.03-.37a.947.947 0 0 0-.11-.31c-.05-.09-.13-.16-.22-.22s-.22-.08-.37-.08c-.25 0-.46.1-.62.29-.16.19-.24.45-.24.77v1.71h-.64v-2.53c0-.09 0-.2-.01-.33 0-.14-.01-.26-.02-.36h.6zM137.13 80.62v.11c0 .04 0 .07-.01.11h-2.56a.964.964 0 0 0 .32.69c.1.09.21.16.33.21.12.05.26.07.4.07a1.08 1.08 0 0 0 .93-.49l.45.36c-.17.23-.38.4-.61.5-.23.11-.49.16-.78.16-.25 0-.47-.04-.68-.12-.21-.08-.39-.2-.54-.34a1.58 1.58 0 0 1-.35-.53c-.09-.21-.13-.44-.13-.69 0-.25.04-.48.13-.69.08-.21.2-.39.35-.54.15-.15.33-.27.53-.35a1.764 1.764 0 0 1 1.3-.01c.19.08.36.19.49.33s.24.32.31.53c.08.2.12.43.12.69zm-.65-.26c0-.13-.03-.25-.06-.36a.925.925 0 0 0-.17-.29.697.697 0 0 0-.28-.19.937.937 0 0 0-.39-.07c-.14 0-.26.02-.38.07s-.22.11-.31.19-.16.18-.22.29-.09.23-.1.36h1.91zM137.68 78.91a1.53 1.53 0 0 1 .94-1.42c.19-.08.39-.12.6-.12a1.53 1.53 0 0 1 1.42.94c.08.19.12.39.12.6a1.53 1.53 0 0 1-.94 1.42c-.19.08-.39.12-.6.12a1.53 1.53 0 0 1-1.42-.94 1.53 1.53 0 0 1-.12-.6zm.24 0c0 .18.03.34.1.5.07.16.16.3.28.42.12.12.26.21.42.28s.33.1.51.1.35-.03.51-.1c.16-.07.3-.16.41-.28.12-.12.21-.26.28-.42.07-.16.1-.33.1-.5 0-.18-.03-.35-.1-.51-.07-.16-.16-.3-.28-.42-.12-.12-.26-.21-.41-.28-.16-.07-.33-.1-.51-.1s-.35.03-.51.1c-.16.07-.3.16-.42.28-.12.12-.21.26-.28.42-.06.16-.1.33-.1.51zm1.68.85l-.37-.67h-.25v.67h-.41v-1.74h.75c.08 0 .16.01.24.03.08.02.15.05.21.09a.498.498 0 0 1 .21.43c0 .12-.03.22-.1.29a.62.62 0 0 1-.25.17l.46.73h-.49zm-.29-.98c.06 0 .12-.02.17-.06.05-.04.08-.09.08-.16a.18.18 0 0 0-.09-.16.368.368 0 0 0-.16-.05h-.32v.43h.32zM146.79 80.64c0 .25-.04.48-.13.69-.09.21-.21.39-.37.54-.16.15-.34.27-.55.35-.21.08-.44.13-.69.13-.25 0-.47-.04-.69-.13a1.569 1.569 0 0 1-.91-.89c-.09-.21-.13-.44-.13-.69a1.65 1.65 0 0 1 .49-1.21c.15-.15.34-.27.55-.35.21-.08.44-.13.69-.13.24 0 .47.04.69.13.21.08.4.2.55.35.16.15.28.33.37.53.08.2.13.43.13.68zm-.67 0a1.226 1.226 0 0 0-.28-.81.862.862 0 0 0-.34-.25c-.13-.06-.29-.1-.46-.1-.17 0-.33.03-.46.1-.13.06-.25.15-.34.25a1.226 1.226 0 0 0-.28.81 1.226 1.226 0 0 0 .28.81.997.997 0 0 0 .8.35c.17 0 .33-.03.46-.09s.25-.15.34-.26a1.226 1.226 0 0 0 .28-.81zM148.25 79.04c.01.08.02.17.02.28 0 .1.01.19.01.25h.02c.04-.09.1-.17.17-.24.07-.08.15-.14.24-.2s.19-.1.3-.13c.11-.03.22-.05.34-.05.21 0 .39.04.54.11.15.07.27.16.37.28.1.12.17.26.22.42.05.16.07.33.07.51v2h-.64v-1.79c0-.13-.01-.26-.03-.37a.947.947 0 0 0-.11-.31c-.05-.09-.13-.16-.22-.22s-.22-.08-.37-.08c-.25 0-.46.1-.62.29-.16.19-.24.45-.24.77v1.71h-.64v-2.53c0-.09 0-.2-.01-.33 0-.14-.01-.26-.02-.36h.6zM154 79.53c.08-.16.21-.29.39-.41s.39-.17.63-.17c.21 0 .39.04.54.11.15.07.27.16.37.28.1.12.17.26.22.42.05.16.07.33.07.51v2h-.64v-1.79c0-.13-.01-.26-.03-.38a.947.947 0 0 0-.11-.31.661.661 0 0 0-.22-.22.738.738 0 0 0-.36-.08c-.25 0-.46.1-.63.29s-.24.45-.24.77v1.71h-.64v-5.14h.64v2.41h.01zM160.31 80.62v.11c0 .04 0 .07-.01.11h-2.56a.964.964 0 0 0 .32.69c.1.09.21.16.33.21.12.05.26.07.4.07a1.08 1.08 0 0 0 .93-.49l.45.36c-.17.23-.38.4-.61.5-.23.11-.49.16-.78.16-.25 0-.47-.04-.68-.12-.21-.08-.39-.2-.54-.34a1.58 1.58 0 0 1-.35-.53c-.09-.21-.13-.44-.13-.69 0-.25.04-.48.13-.69.08-.21.2-.39.35-.54.15-.15.33-.27.53-.35a1.764 1.764 0 0 1 1.3-.01c.19.08.36.19.49.33s.24.32.31.53c.09.2.12.43.12.69zm-.65-.26c0-.13-.03-.25-.06-.36a.925.925 0 0 0-.17-.29.697.697 0 0 0-.28-.19.937.937 0 0 0-.39-.07c-.14 0-.26.02-.38.07s-.22.11-.31.19-.16.18-.22.29-.09.23-.1.36h1.91zM161.19 79.4c0-.14-.01-.26-.02-.36h.6c.01.08.02.18.02.28s.01.19.01.26h.02c.09-.19.22-.34.4-.46.17-.12.37-.17.59-.17.1 0 .18.01.25.03l-.03.59c-.09-.02-.19-.03-.29-.03-.15 0-.29.03-.4.08-.11.06-.21.13-.28.23-.07.1-.13.21-.17.33-.04.12-.05.25-.05.39v1.69h-.64v-2.53c0-.09 0-.2-.01-.33zM167.37 80.17c0-.24-.07-.42-.22-.53s-.34-.17-.58-.17c-.18 0-.35.04-.51.11s-.3.16-.4.27l-.34-.41c.16-.15.35-.27.58-.35.23-.09.47-.13.74-.13.23 0 .43.03.6.1s.31.16.42.27.19.25.24.4c.05.15.08.32.08.5v1.41c0 .11 0 .22.01.34s.02.22.04.3h-.58c-.04-.15-.05-.31-.05-.46h-.02c-.12.17-.27.31-.45.4-.18.1-.39.14-.64.14-.13 0-.26-.02-.4-.05-.14-.03-.26-.09-.38-.17a.932.932 0 0 1-.28-.31c-.08-.13-.11-.28-.11-.47 0-.25.07-.44.2-.58.13-.14.3-.25.52-.33.21-.08.45-.12.72-.15s.54-.03.81-.03v-.1zm-.16.55c-.16 0-.32.01-.49.02-.17.01-.32.04-.46.08s-.25.1-.34.18c-.09.08-.14.19-.14.33a.463.463 0 0 0 .21.4c.06.04.13.07.21.08.08.02.16.02.24.02.3 0 .53-.09.69-.27.16-.18.24-.4.24-.68v-.17h-.16zM169.68 81.75v.51h-.62v-5.14h.64v2.4h.02c.11-.16.26-.29.45-.4.19-.11.43-.17.69-.17.24 0 .46.04.65.13.2.09.37.21.51.36s.25.33.33.54c.08.21.12.43.12.66 0 .24-.04.46-.12.67-.08.21-.19.39-.33.54-.14.15-.31.28-.51.36-.2.09-.42.13-.67.13-.23 0-.45-.05-.66-.15-.21-.1-.38-.25-.5-.45zm2.14-1.11c0-.15-.02-.29-.07-.43s-.11-.26-.2-.37c-.09-.11-.2-.2-.34-.26-.13-.06-.29-.1-.47-.1-.16 0-.31.03-.45.1-.13.06-.25.15-.34.26-.1.11-.17.23-.22.37-.05.14-.08.29-.08.44a1.252 1.252 0 0 0 .3.81c.09.11.21.19.34.25s.28.09.45.09c.18 0 .33-.03.47-.1s.25-.15.34-.26c.09-.11.16-.23.2-.37.05-.13.07-.28.07-.43zM175.95 81.75c-.12.19-.29.34-.5.45-.21.1-.43.15-.66.15-.25 0-.47-.04-.67-.13-.2-.09-.37-.21-.51-.36s-.25-.33-.33-.54-.12-.43-.12-.67c0-.24.04-.46.12-.66.08-.21.19-.39.33-.54.14-.15.31-.27.51-.36.2-.09.42-.13.66-.13.26 0 .49.06.69.17.19.11.35.25.46.4h.01v-2.4h.64v5.14h-.62v-.51h-.01zm-2.13-1.11c0 .15.02.29.07.43s.11.26.2.37.2.2.33.26c.13.07.29.1.46.1.16 0 .31-.03.45-.09s.25-.15.34-.25c.1-.11.17-.23.22-.37.05-.14.08-.29.08-.44a1.252 1.252 0 0 0-.3-.81c-.1-.11-.21-.2-.34-.26-.13-.06-.28-.1-.45-.1-.18 0-.33.03-.46.1a.93.93 0 0 0-.33.26c-.09.11-.16.23-.2.37-.04.14-.07.29-.07.43zM180.96 80.64c0 .25-.04.48-.13.69-.09.21-.21.39-.37.54-.16.15-.34.27-.55.35-.21.08-.44.13-.69.13-.25 0-.47-.04-.69-.13a1.569 1.569 0 0 1-.91-.89c-.09-.21-.13-.44-.13-.69a1.65 1.65 0 0 1 .49-1.21c.15-.15.34-.27.55-.35.21-.08.44-.13.69-.13.24 0 .47.04.69.13.21.08.4.2.55.35.16.15.28.33.37.53.08.2.13.43.13.68zm-.67 0a1.226 1.226 0 0 0-.28-.81.862.862 0 0 0-.34-.25c-.13-.06-.29-.1-.46-.1-.17 0-.33.03-.46.1-.13.06-.25.15-.34.25a1.226 1.226 0 0 0-.28.81 1.226 1.226 0 0 0 .28.81.997.997 0 0 0 .8.35c.17 0 .33-.03.46-.09s.25-.15.34-.26a1.226 1.226 0 0 0 .28-.81zM182.86 79.13c.18-.12.39-.18.64-.18.22 0 .41.05.59.15.17.1.31.27.41.5.11-.21.26-.37.46-.48s.41-.17.64-.17c.21 0 .39.04.54.11.15.07.27.16.37.28s.17.26.22.42c.05.16.07.33.07.51v2h-.64v-1.79c0-.13-.01-.26-.03-.37a.774.774 0 0 0-.12-.31.661.661 0 0 0-.22-.22.724.724 0 0 0-.35-.08.7.7 0 0 0-.62.33c-.07.1-.11.21-.14.33s-.04.25-.04.37v1.74H184v-1.92c0-.13-.01-.24-.03-.35a.66.66 0 0 0-.12-.27.531.531 0 0 0-.21-.18.762.762 0 0 0-.32-.06c-.24 0-.43.1-.59.29-.16.19-.23.45-.23.77v1.71h-.64v-2.53c0-.09 0-.2-.01-.33 0-.14-.01-.26-.02-.36h.6c.01.08.02.17.02.28 0 .1.01.19.01.25h.02c.07-.18.2-.32.38-.44zM190.89 80.62v.11c0 .04 0 .07-.01.11h-2.56a.964.964 0 0 0 .32.69c.1.09.21.16.33.21.12.05.26.07.4.07a1.08 1.08 0 0 0 .93-.49l.45.36c-.17.23-.38.4-.61.5-.23.11-.49.16-.78.16-.25 0-.47-.04-.68-.12-.21-.08-.39-.2-.54-.34a1.58 1.58 0 0 1-.35-.53c-.09-.21-.13-.44-.13-.69 0-.25.04-.48.13-.69.08-.21.2-.39.35-.54.15-.15.33-.27.53-.35a1.764 1.764 0 0 1 1.3-.01c.19.08.36.19.49.33s.24.32.31.53c.08.2.12.43.12.69zm-.65-.26c0-.13-.03-.25-.06-.36a.925.925 0 0 0-.17-.29.697.697 0 0 0-.28-.19.937.937 0 0 0-.39-.07c-.14 0-.26.02-.38.07s-.22.11-.31.19-.16.18-.22.29-.09.23-.1.36h1.91zM192.35 79.04c.01.08.02.17.02.28 0 .1.01.19.01.25h.02c.04-.09.1-.17.17-.24.07-.08.15-.14.24-.2s.19-.1.3-.13c.11-.03.22-.05.34-.05.21 0 .39.04.54.11.15.07.27.16.37.28.1.12.17.26.22.42.05.16.07.33.07.51v2h-.64v-1.79c0-.13-.01-.26-.03-.37a.947.947 0 0 0-.11-.31c-.05-.09-.13-.16-.22-.22s-.22-.08-.37-.08c-.25 0-.46.1-.62.29-.16.19-.24.45-.24.77v1.71h-.64v-2.53c0-.09 0-.2-.01-.33 0-.14-.01-.26-.02-.36h.6zM199.44 80.17c0-.24-.07-.42-.22-.53s-.34-.17-.58-.17c-.18 0-.35.04-.51.11s-.3.16-.4.27l-.34-.41c.16-.15.35-.27.58-.35.23-.09.47-.13.74-.13.23 0 .43.03.6.1s.31.16.42.27.19.25.24.4c.05.15.08.32.08.5v1.41c0 .11 0 .22.01.34s.02.22.04.3h-.58c-.04-.15-.05-.31-.05-.46h-.02c-.12.17-.27.31-.45.4-.18.1-.39.14-.64.14-.13 0-.26-.02-.4-.05-.14-.03-.26-.09-.38-.17a.932.932 0 0 1-.28-.31c-.08-.13-.11-.28-.11-.47 0-.25.07-.44.2-.58.13-.14.3-.25.52-.33.21-.08.45-.12.72-.15s.54-.03.81-.03v-.1zm-.16.55c-.16 0-.32.01-.49.02-.17.01-.32.04-.46.08s-.25.1-.34.18c-.09.08-.14.19-.14.33a.463.463 0 0 0 .21.4c.06.04.13.07.21.08.08.02.16.02.24.02.3 0 .53-.09.69-.27.16-.18.24-.4.24-.68v-.17h-.16zM201.7 79.04c.01.08.02.17.02.28 0 .1.01.19.01.25h.02c.04-.09.1-.17.17-.24.07-.08.15-.14.24-.2s.19-.1.3-.13c.11-.03.22-.05.34-.05.21 0 .39.04.54.11.15.07.27.16.37.28.1.12.17.26.22.42.05.16.07.33.07.51v2h-.64v-1.79c0-.13-.01-.26-.03-.37a.947.947 0 0 0-.11-.31c-.05-.09-.13-.16-.22-.22s-.22-.08-.37-.08c-.25 0-.46.1-.62.29-.16.19-.24.45-.24.77v1.71h-.64v-2.53c0-.09 0-.2-.01-.33 0-.14-.01-.26-.02-.36h.6zM207.65 81.75c-.12.19-.29.34-.5.45-.21.1-.43.15-.66.15-.25 0-.47-.04-.67-.13-.2-.09-.37-.21-.51-.36s-.25-.33-.33-.54-.12-.43-.12-.67c0-.24.04-.46.12-.66.08-.21.19-.39.33-.54.14-.15.31-.27.51-.36.2-.09.42-.13.66-.13.26 0 .49.06.69.17.19.11.35.25.46.4h.01v-2.4h.64v5.14h-.62v-.51h-.01zm-2.12-1.11c0 .15.02.29.07.43s.11.26.2.37.2.2.33.26c.13.07.29.1.46.1.16 0 .31-.03.45-.09s.25-.15.34-.25c.1-.11.17-.23.22-.37.05-.14.08-.29.08-.44a1.252 1.252 0 0 0-.3-.81c-.1-.11-.21-.2-.34-.26-.13-.06-.28-.1-.45-.1-.18 0-.33.03-.46.1a.93.93 0 0 0-.33.26c-.09.11-.16.23-.2.37-.05.14-.07.29-.07.43zM211.73 81.75v.51h-.62v-5.14h.64v2.4h.02c.11-.16.26-.29.45-.4.19-.11.43-.17.69-.17.24 0 .46.04.65.13.2.09.37.21.51.36s.25.33.33.54c.08.21.12.43.12.66 0 .24-.04.46-.12.67-.08.21-.19.39-.33.54-.14.15-.31.28-.51.36-.2.09-.42.13-.67.13-.23 0-.45-.05-.66-.15-.21-.1-.38-.25-.5-.45zm2.14-1.11c0-.15-.02-.29-.07-.43s-.11-.26-.2-.37c-.09-.11-.2-.2-.34-.26-.13-.06-.29-.1-.47-.1-.16 0-.31.03-.45.1-.13.06-.25.15-.34.26-.1.11-.17.23-.22.37-.05.14-.08.29-.08.44a1.252 1.252 0 0 0 .3.81c.09.11.21.19.34.25s.28.09.45.09c.18 0 .33-.03.47-.1s.25-.15.34-.26c.09-.11.16-.23.2-.37.05-.13.07-.28.07-.43zM217.69 82.26c-.01-.08-.02-.17-.02-.28 0-.1-.01-.19-.01-.25h-.01c-.08.17-.22.32-.41.44-.19.12-.41.18-.64.18-.21 0-.39-.03-.54-.1s-.28-.16-.37-.28c-.1-.12-.17-.26-.22-.42a1.7 1.7 0 0 1-.07-.51v-2h.64v1.78c0 .13.01.26.03.38.02.12.06.23.11.32s.13.16.22.22c.1.05.22.08.37.08.26 0 .47-.1.63-.29.16-.19.24-.45.24-.77v-1.71h.64v2.53c0 .09 0 .2.01.33 0 .14.01.26.02.36h-.62zM220.96 79.56h-.86v1.67c0 .19.04.33.11.42.07.08.19.12.35.12.06 0 .12-.01.19-.02s.13-.03.18-.06l.02.52c-.08.03-.16.05-.25.06-.09.02-.19.02-.29.02-.3 0-.54-.08-.7-.25-.16-.17-.24-.42-.24-.75v-1.75h-.62v-.52h.62v-.93h.63v.93h.86v.54zM223.09 79.56h-.86v1.67c0 .19.04.33.11.42.07.08.19.12.35.12.06 0 .12-.01.19-.02s.13-.03.18-.06l.02.52c-.08.03-.16.05-.25.06-.09.02-.19.02-.29.02-.3 0-.54-.08-.7-.25-.16-.17-.24-.42-.24-.75v-1.75h-.62v-.52h.62v-.93h.63v.93h.86v.54zM227.02 80.64c0 .25-.04.48-.13.69-.09.21-.21.39-.37.54-.16.15-.34.27-.55.35-.21.08-.44.13-.69.13-.25 0-.47-.04-.69-.13a1.569 1.569 0 0 1-.91-.89c-.09-.21-.13-.44-.13-.69a1.65 1.65 0 0 1 .49-1.21c.15-.15.34-.27.55-.35.21-.08.44-.13.69-.13.24 0 .47.04.69.13.21.08.4.2.55.35.16.15.28.33.37.53.08.2.13.43.13.68zm-.67 0a1.226 1.226 0 0 0-.28-.81.862.862 0 0 0-.34-.25c-.13-.06-.29-.1-.46-.1-.17 0-.33.03-.46.1-.13.06-.25.15-.34.25a1.226 1.226 0 0 0-.28.81 1.226 1.226 0 0 0 .28.81.997.997 0 0 0 .8.35c.17 0 .33-.03.46-.09s.25-.15.34-.26a1.226 1.226 0 0 0 .28-.81zM230.16 79.85a.812.812 0 0 0-.31-.26.956.956 0 0 0-.44-.11c-.17 0-.32.03-.45.1-.13.06-.24.15-.33.25a1.226 1.226 0 0 0-.28.81 1.226 1.226 0 0 0 .28.81c.09.11.2.19.33.25s.28.09.45.09c.16 0 .31-.03.45-.09s.24-.15.33-.26l.43.39c-.14.16-.31.28-.51.37-.2.09-.44.13-.69.13-.25 0-.48-.04-.69-.12-.21-.08-.39-.2-.55-.34-.15-.15-.28-.33-.36-.53-.09-.21-.13-.44-.13-.7 0-.25.04-.48.13-.69s.21-.39.36-.54c.15-.15.34-.27.55-.35a1.838 1.838 0 0 1 1.36.02c.22.09.4.22.53.39l-.46.38zM231.92 80.44h.02l1.35-1.4h.86l-1.51 1.46 1.64 1.76h-.88l-1.46-1.67h-.02v1.67h-.64v-5.14h.64v3.32zM236.55 79.85a.793.793 0 0 0-.31-.29.926.926 0 0 0-.44-.11c-.07 0-.15.01-.22.02-.07.02-.14.04-.19.07-.06.03-.1.08-.14.13-.03.05-.05.12-.05.19 0 .14.06.24.18.3.12.07.31.13.55.18.15.04.3.08.43.13s.25.11.34.19c.1.07.17.16.23.27.05.1.08.23.08.37 0 .19-.04.35-.11.48s-.17.24-.29.32c-.12.08-.26.14-.41.18-.15.04-.31.05-.48.05-.25 0-.48-.05-.72-.14-.23-.09-.43-.24-.58-.43l.46-.39c.09.13.21.23.36.32s.32.13.5.13c.08 0 .16-.01.23-.02s.14-.04.2-.08.11-.08.15-.14c.04-.06.05-.13.05-.22 0-.15-.07-.26-.21-.33-.14-.07-.35-.14-.63-.2-.11-.03-.22-.06-.33-.1a1.08 1.08 0 0 1-.3-.16.737.737 0 0 1-.31-.63c0-.17.04-.32.11-.45s.16-.23.28-.31c.11-.08.24-.14.39-.18a1.684 1.684 0 0 1 1.12.08c.22.09.38.22.5.39l-.44.38zM238.61 81.85c0 .12-.04.22-.13.31s-.2.14-.33.14-.23-.04-.32-.13-.13-.19-.13-.31.04-.23.13-.32a.43.43 0 0 1 .33-.13c.13 0 .24.04.33.13.08.08.12.19.12.31zM241.8 82.26h-.67v-4.82h1.54c.23 0 .45.02.66.07s.39.12.55.23c.16.1.28.24.37.41.09.17.14.38.14.62 0 .35-.11.64-.33.86-.22.22-.5.36-.84.41l1.35 2.21h-.82l-1.22-2.14h-.72v2.15zm0-2.71h.78c.16 0 .31-.01.44-.04.14-.03.26-.07.36-.13.1-.06.18-.14.24-.24.06-.1.09-.22.09-.36s-.03-.27-.09-.36a.633.633 0 0 0-.23-.23c-.1-.06-.21-.1-.34-.13-.13-.02-.27-.04-.41-.04h-.82v1.53zM248.2 80.62v.11c0 .04 0 .07-.01.11h-2.56a.964.964 0 0 0 .32.69c.1.09.21.16.33.21.12.05.26.07.4.07a1.08 1.08 0 0 0 .93-.49l.45.36c-.17.23-.38.4-.61.5-.23.11-.49.16-.78.16-.25 0-.47-.04-.68-.12-.21-.08-.39-.2-.54-.34a1.58 1.58 0 0 1-.35-.53c-.09-.21-.13-.44-.13-.69 0-.25.04-.48.13-.69.08-.21.2-.39.35-.54.15-.15.33-.27.53-.35a1.764 1.764 0 0 1 1.3-.01c.19.08.36.19.49.33s.24.32.31.53c.08.2.12.43.12.69zm-.65-.26c0-.13-.03-.25-.06-.36a.925.925 0 0 0-.17-.29.697.697 0 0 0-.28-.19.937.937 0 0 0-.39-.07c-.14 0-.26.02-.38.07s-.22.11-.31.19-.16.18-.22.29-.09.23-.1.36h1.91zM250.82 79.85a.793.793 0 0 0-.31-.29.926.926 0 0 0-.44-.11c-.07 0-.15.01-.22.02-.07.02-.14.04-.19.07-.06.03-.1.08-.14.13-.03.05-.05.12-.05.19 0 .14.06.24.18.3.12.07.31.13.55.18.15.04.3.08.43.13s.25.11.34.19c.1.07.17.16.23.27.05.1.08.23.08.37 0 .19-.04.35-.11.48s-.17.24-.29.32c-.12.08-.26.14-.41.18-.15.04-.31.05-.48.05-.25 0-.48-.05-.72-.14-.23-.09-.43-.24-.58-.43l.46-.39c.09.13.21.23.36.32s.32.13.5.13c.08 0 .16-.01.23-.02s.14-.04.2-.08.11-.08.15-.14c.04-.06.05-.13.05-.22 0-.15-.07-.26-.21-.33-.14-.07-.35-.14-.63-.2-.11-.03-.22-.06-.33-.1a1.08 1.08 0 0 1-.3-.16.737.737 0 0 1-.31-.63c0-.17.04-.32.11-.45s.16-.23.28-.31c.11-.08.24-.14.39-.18a1.684 1.684 0 0 1 1.12.08c.22.09.38.22.5.39l-.44.38zM254.37 82.26c-.01-.08-.02-.17-.02-.28 0-.1-.01-.19-.01-.25h-.01c-.08.17-.22.32-.41.44-.19.12-.41.18-.64.18-.21 0-.39-.03-.54-.1s-.28-.16-.37-.28c-.1-.12-.17-.26-.22-.42a1.7 1.7 0 0 1-.07-.51v-2h.64v1.78c0 .13.01.26.03.38.02.12.06.23.11.32s.13.16.22.22c.1.05.22.08.37.08.26 0 .47-.1.63-.29.16-.19.24-.45.24-.77v-1.71h.64v2.53c0 .09 0 .2.01.33 0 .14.01.26.02.36h-.62zM256.71 82.26h-.64v-5.14h.64v5.14zM259.41 79.56h-.86v1.67c0 .19.04.33.11.42.07.08.19.12.35.12.06 0 .12-.01.19-.02s.13-.03.18-.06l.02.52c-.08.03-.16.05-.25.06-.09.02-.19.02-.29.02-.3 0-.54-.08-.7-.25-.16-.17-.24-.42-.24-.75v-1.75h-.62v-.52h.62v-.93h.63v.93h.86v.54zM261.81 79.85a.793.793 0 0 0-.31-.29.926.926 0 0 0-.44-.11c-.07 0-.15.01-.22.02-.07.02-.14.04-.19.07-.06.03-.1.08-.14.13-.03.05-.05.12-.05.19 0 .14.06.24.18.3.12.07.31.13.55.18.15.04.3.08.43.13s.25.11.34.19c.1.07.17.16.23.27.05.1.08.23.08.37 0 .19-.04.35-.11.48s-.17.24-.29.32c-.12.08-.26.14-.41.18-.15.04-.31.05-.48.05-.25 0-.48-.05-.72-.14-.23-.09-.43-.24-.58-.43l.46-.39c.09.13.21.23.36.32s.32.13.5.13c.08 0 .16-.01.23-.02s.14-.04.2-.08.11-.08.15-.14c.04-.06.05-.13.05-.22 0-.15-.07-.26-.21-.33-.14-.07-.35-.14-.63-.2-.11-.03-.22-.06-.33-.1a1.08 1.08 0 0 1-.3-.16.737.737 0 0 1-.31-.63c0-.17.04-.32.11-.45s.16-.23.28-.31c.11-.08.24-.14.39-.18a1.684 1.684 0 0 1 1.12.08c.22.09.38.22.5.39l-.44.38zM265.8 79.13c.18-.12.39-.18.64-.18.22 0 .41.05.59.15.17.1.31.27.41.5.11-.21.26-.37.46-.48s.41-.17.64-.17c.21 0 .39.04.54.11.15.07.27.16.37.28s.17.26.22.42c.05.16.07.33.07.51v2h-.64v-1.79c0-.13-.01-.26-.03-.37a.774.774 0 0 0-.12-.31.661.661 0 0 0-.22-.22.724.724 0 0 0-.35-.08.7.7 0 0 0-.62.33c-.07.1-.11.21-.14.33s-.04.25-.04.37v1.74h-.64v-1.92c0-.13-.01-.24-.03-.35a.66.66 0 0 0-.12-.27.531.531 0 0 0-.21-.18.762.762 0 0 0-.32-.06c-.24 0-.43.1-.59.29-.16.19-.23.45-.23.77v1.71h-.64v-2.53c0-.09 0-.2-.01-.33 0-.14-.01-.26-.02-.36h.6c.01.08.02.17.02.28 0 .1.01.19.01.25h.02c.08-.18.21-.32.38-.44zM272.83 80.17c0-.24-.07-.42-.22-.53s-.34-.17-.58-.17c-.18 0-.35.04-.51.11s-.3.16-.4.27l-.34-.41c.16-.15.35-.27.58-.35.23-.09.47-.13.74-.13.23 0 .43.03.6.1s.31.16.42.27.19.25.24.4c.05.15.08.32.08.5v1.41c0 .11 0 .22.01.34s.02.22.04.3h-.58c-.04-.15-.05-.31-.05-.46h-.02c-.12.17-.27.31-.45.4-.18.1-.39.14-.64.14-.13 0-.26-.02-.4-.05-.14-.03-.26-.09-.38-.17a.932.932 0 0 1-.28-.31c-.08-.13-.11-.28-.11-.47 0-.25.07-.44.2-.58.13-.14.3-.25.52-.33.21-.08.45-.12.72-.15s.54-.03.81-.03v-.1zm-.16.55c-.16 0-.32.01-.49.02-.17.01-.32.04-.46.08s-.25.1-.34.18c-.09.08-.14.19-.14.33a.463.463 0 0 0 .21.4c.06.04.13.07.21.08.08.02.16.02.24.02.3 0 .53-.09.69-.27.16-.18.24-.4.24-.68v-.17h-.16zM275.73 81.57h.01l.89-2.53h.68l-1.56 3.99c-.05.14-.11.26-.18.36s-.14.2-.22.27c-.09.08-.19.13-.3.17s-.25.06-.41.06c-.07 0-.14 0-.21-.01s-.14-.02-.21-.04l.06-.56c.11.04.22.05.32.05.17 0 .29-.05.37-.14.08-.09.16-.23.22-.4l.2-.54-1.38-3.22h.71l1.01 2.54zM281.15 82.26h-.69l-1.31-3.22h.71l.95 2.54h.01l.95-2.54h.68l-1.3 3.22zM285.07 80.17c0-.24-.07-.42-.22-.53s-.34-.17-.58-.17c-.18 0-.35.04-.51.11s-.3.16-.4.27l-.34-.41c.16-.15.35-.27.58-.35.23-.09.47-.13.74-.13.23 0 .43.03.6.1s.31.16.42.27.19.25.24.4c.05.15.08.32.08.5v1.41c0 .11 0 .22.01.34s.02.22.04.3h-.58c-.04-.15-.05-.31-.05-.46h-.02c-.12.17-.27.31-.45.4-.18.1-.39.14-.64.14-.13 0-.26-.02-.4-.05-.14-.03-.26-.09-.38-.17a.932.932 0 0 1-.28-.31c-.08-.13-.11-.28-.11-.47 0-.25.07-.44.2-.58.13-.14.3-.25.52-.33.21-.08.45-.12.72-.15s.54-.03.81-.03v-.1zm-.16.55c-.16 0-.32.01-.49.02-.17.01-.32.04-.46.08s-.25.1-.34.18c-.09.08-.14.19-.14.33a.463.463 0 0 0 .21.4c.06.04.13.07.21.08.08.02.16.02.24.02.3 0 .53-.09.69-.27.16-.18.24-.4.24-.68v-.17h-.16zM286.74 79.4c0-.14-.01-.26-.02-.36h.6c.01.08.02.18.02.28s.01.19.01.26h.02c.09-.19.22-.34.4-.46.17-.12.37-.17.59-.17.1 0 .18.01.25.03l-.03.59c-.09-.02-.19-.03-.29-.03-.15 0-.29.03-.4.08-.11.06-.21.13-.28.23-.07.1-.13.21-.17.33-.04.12-.05.25-.05.39v1.69h-.64v-2.53c0-.09 0-.2-.01-.33zM290.44 81.57h.01l.89-2.53h.68l-1.56 3.99c-.05.14-.11.26-.18.36s-.14.2-.22.27c-.09.08-.19.13-.3.17s-.25.06-.41.06c-.07 0-.14 0-.21-.01s-.14-.02-.21-.04l.06-.56c.11.04.22.05.32.05.17 0 .29-.05.37-.14.08-.09.16-.23.22-.4l.2-.54-1.38-3.22h.71l1.01 2.54zM293.19 81.85c0 .12-.04.22-.13.31s-.2.14-.33.14-.23-.04-.32-.13-.13-.19-.13-.31.04-.23.13-.32a.43.43 0 0 1 .33-.13c.13 0 .24.04.33.13.07.08.12.19.12.31z"/></svg>