<svg id="Layer_1" xmlns="http://www.w3.org/2000/svg" viewBox="0 0 728 90"><style>.st0{fill:#fff}</style><path class="st0" d="M120.89 20.04h3.81v.9h-4.82v-7.28h4.67v.89h-3.65v2.18h3.43v.87h-3.43v2.44zM129.54 20.04h3.25v.9h-4.27v-7.28h1.02v6.38zM137.27 20.95h-1.02v-7.28h1.02v7.28zM144.06 20.95h-1.02v-6.39h-2.33v-.89h5.69v.89h-2.33v6.39zM150.84 20.04h3.81v.9h-4.82v-7.28h4.67v.89h-3.65v2.18h3.43v.87h-3.43v2.44z"/><g><path class="st0" d="M32.4 23.02c0 .28-.22.5-.51.5-.28 0-.51-.22-.51-.5s.23-.5.51-.5c.28.01.51.23.51.5zm-.89 0c0 .22.17.4.39.4.21 0 .38-.18.38-.39 0-.22-.16-.4-.38-.4-.23 0-.39.18-.39.39zm.3.26h-.11v-.5c.04-.01.11-.01.19-.01.09 0 .14.01.17.04.03.02.05.06.05.11 0 .06-.05.1-.1.12v.01c.05.01.07.05.09.12.02.08.03.1.04.12h-.12c-.02-.02-.02-.06-.04-.12-.01-.05-.04-.08-.1-.08h-.05v.19zm0-.28h.05c.06 0 .12-.02.12-.07s-.03-.08-.11-.08c-.03 0-.05 0-.06.01V23zM39.81 21.3c-2.47 0-3.65-1.8-3.65-3.53 0-1.99 1.44-3.6 3.69-3.6.77 0 1.56.24 2.19.77l-.7.97c-.43-.33-.89-.46-1.45-.46-1.2 0-2.09.84-2.09 2.27 0 1.31.82 2.36 2.13 2.36.56 0 1.05-.17 1.48-.54l.64.98c-.6.53-1.44.78-2.24.78M45.85 21.3c-2.06 0-3.58-1.56-3.58-3.6 0-2.09 1.66-3.53 3.58-3.53 1.92 0 3.6 1.42 3.6 3.51 0 2.06-1.52 3.62-3.6 3.62m1.94-3.6c0-1.25-.61-2.34-1.94-2.34-1.3 0-1.94 1.09-1.94 2.33 0 1.28.6 2.43 1.94 2.43 1.34 0 1.94-1.13 1.94-2.43v.01zM53.63 21.3c-2.06 0-3.58-1.56-3.58-3.6 0-2.09 1.66-3.53 3.58-3.53 1.92 0 3.6 1.42 3.6 3.51 0 2.06-1.52 3.62-3.6 3.62m1.94-3.6c0-1.25-.61-2.34-1.94-2.34-1.3 0-1.94 1.09-1.94 2.33 0 1.28.6 2.43 1.94 2.43 1.34 0 1.94-1.13 1.94-2.43v.01zM58.04 21.13v-9.98l1.55.85v9.13zM63.16 21.34c-1.74 0-2.58-.84-2.58-.84l.7-.91s.79.53 1.84.53c.5 0 .92-.35.92-.7s-.15-.64-.61-.88c-.46-.24-.98-.49-1.38-.68-.4-.2-1.3-.8-1.3-1.97 0-1.18 1.2-1.84 2.42-1.84 1.17 0 2.06.77 2.06.77l-.6.92s-.67-.47-1.41-.47c-.74 0-.89.47-.89.67 0 .19.07.5.54.75.47.25.96.52 1.66.91s1.09 1.06 1.09 1.81c0 .76-.72 1.93-2.46 1.93M69.81 21.3c-2.47 0-3.65-1.8-3.65-3.53 0-1.99 1.44-3.6 3.7-3.6.77 0 1.56.24 2.19.77l-.7.97c-.43-.33-.89-.46-1.45-.46-1.2 0-2.09.84-2.09 2.27 0 1.31.82 2.36 2.13 2.36.56 0 1.05-.17 1.48-.54l.64.98c-.62.53-1.46.78-2.25.78M77.43 20.34s-.78.96-2.26.96c-1.74 0-2.59-1.27-2.59-2.55v-4.42h1.55v4.35c0 .75.59 1.38 1.49 1.38.8 0 1.58-.95 1.58-.95v-4.78h1.55v6.79l-1.32-.78zM80.13 21.13v-9.98l1.54.85v9.13zM86.79 21.3c-1.37 0-2.15-.77-2.15-.77v3.39h-1.56v-9.73l1.56.82s.84-.85 2.23-.85c1.46 0 3.29 1.13 3.29 3.65.01 2.53-1.79 3.49-3.37 3.49m-.1-5.94c-1.32 0-2.09 1.24-2.09 1.24v2.56s.88.99 2.15.99c1.48 0 1.8-1.77 1.8-2.39 0-.6-.14-2.4-1.86-2.4M94.24 21.32h-.98c-1.23 0-1.65-1.19-1.65-1.97v-4h-1.23v-1.02h1.23v-3h1.53v3h1.58v1.02h-1.56v3.63c0 .41-.07 1.05.61 1.05h1.12l-.65 1.29zM96.72 13.16c-.56 0-1.02-.46-1.02-1.02s.46-1.02 1.02-1.02 1.02.46 1.02 1.02-.46 1.02-1.02 1.02m-.77 1.17h1.52v6.8h-1.52v-6.8zM103.61 21.13v-4.35c0-.75-.59-1.38-1.49-1.38-.8 0-1.69.95-1.69.95v4.78h-1.55v-6.79l1.31.78s.89-.96 2.37-.96c1.74 0 2.59 1.27 2.59 2.55v4.42h-1.54zM109.88 24.3c-.24 0-2.05-.03-2.05-.03l.03-1.24h1.52c1.48 0 2.31-.8 2.31-1.88v-.61s-.81.77-2.17.77c-1.58 0-3.37-.96-3.37-3.49 0-2.52 1.83-3.65 3.29-3.65 1.39 0 2.23.85 2.23.85l1.56-.78V21c0 1.82-1.21 3.3-3.35 3.3m1.83-7.7s-.77-1.24-2.09-1.24c-1.71 0-1.85 1.8-1.85 2.41 0 .61.32 2.39 1.8 2.39 1.27 0 2.15-.99 2.15-.99V16.6zM22.3 26.29v-4.44l.87-.88 2.53 2.52v.85zM20.49 18.04l-2.85 2.85 3.49 1.31 4.16-4.16zM21.9 14.06h-3.68l1.18 3.4h5.89zM25.7 12.25l-2.83-2.84-1.33 3.48 4.16 4.16zM34.28 21.43h-4.2l-3.39-3.39h5.89zM30.85 13.3l3.81.99-3.17 3.17h-4.8zM26.28 11.16l3.39-2.02v4.51l-3.39 3.4zM30.6 22.78l-1.09 3.71-5.92-5.93 2.4-2.4zM115.54 14.79c0 .4-.32.72-.74.72-.41 0-.74-.32-.74-.72 0-.4.33-.72.74-.72.42 0 .74.32.74.72zm-1.29 0c0 .32.24.57.56.57.31 0 .55-.26.55-.57 0-.32-.24-.58-.56-.58-.31.01-.55.27-.55.58zm.44.37h-.17v-.72c.07-.01.16-.02.27-.02.14 0 .2.02.25.06.04.03.07.08.07.15 0 .09-.07.14-.15.17v.01c.07.02.1.08.13.17.02.11.04.15.05.18h-.18c-.02-.02-.03-.09-.06-.18-.01-.07-.06-.11-.15-.11h-.08v.29zm.01-.4h.08c.09 0 .17-.03.17-.1 0-.06-.05-.11-.15-.11-.04 0-.07 0-.09.01v.2z"/></g></svg>