<svg id="Layer_1" xmlns="http://www.w3.org/2000/svg" viewBox="0 0 728 90"><style>.st0{fill:#fff}</style><path class="st0" d="M496.7 40.54c-1.85 0-2.74-1.34-2.74-2.63 0-1.49 1.08-2.68 2.77-2.68.58 0 1.17.18 1.64.57l-.52.73c-.32-.25-.67-.34-1.09-.34-.9 0-1.57.62-1.57 1.69 0 .98.62 1.76 1.6 1.76.42 0 .78-.12 1.11-.41l.48.73c-.46.4-1.09.58-1.68.58M501.23 40.54c-1.55 0-2.69-1.16-2.69-2.68 0-1.56 1.24-2.63 2.69-2.63 1.44 0 2.7 1.06 2.7 2.62-.01 1.53-1.15 2.69-2.7 2.69m1.45-2.68c0-.94-.46-1.75-1.45-1.75-.97 0-1.45.81-1.45 1.74 0 .96.45 1.81 1.45 1.81s1.45-.84 1.45-1.81v.01zM507.06 40.54c-1.55 0-2.69-1.16-2.69-2.68 0-1.56 1.24-2.63 2.69-2.63 1.44 0 2.7 1.06 2.7 2.62 0 1.53-1.14 2.69-2.7 2.69m1.46-2.68c0-.94-.46-1.75-1.45-1.75-.97 0-1.45.81-1.45 1.74 0 .96.45 1.81 1.45 1.81s1.45-.84 1.45-1.81v.01zM510.37 40.42v-7.45l1.16.64v6.81zM514.2 40.57c-1.31 0-1.93-.62-1.93-.62l.52-.68s.6.4 1.38.4c.38 0 .69-.26.69-.52s-.12-.48-.46-.65c-.35-.18-.73-.36-1.04-.51-.3-.15-.97-.59-.97-1.47s.9-1.37 1.82-1.37c.88 0 1.55.57 1.55.57l-.45.69s-.5-.35-1.06-.35-.67.35-.67.5c0 .15.05.37.41.56.36.19.72.38 1.24.68.52.29.82.79.82 1.35.01.55-.54 1.42-1.85 1.42M519.19 40.54c-1.85 0-2.74-1.34-2.74-2.63 0-1.49 1.08-2.68 2.77-2.68.58 0 1.17.18 1.64.57l-.52.73c-.32-.25-.67-.34-1.09-.34-.9 0-1.57.62-1.57 1.69 0 .98.62 1.76 1.6 1.76.42 0 .78-.12 1.11-.41l.48.73c-.45.4-1.08.58-1.68.58M524.91 39.83s-.59.72-1.69.72c-1.31 0-1.95-.95-1.95-1.9v-3.3h1.16v3.24c0 .56.44 1.03 1.12 1.03.6 0 1.18-.71 1.18-.71v-3.57h1.16v5.06l-.98-.57zM526.93 40.42v-7.45l1.16.64v6.81zM531.93 40.54c-1.02 0-1.61-.57-1.61-.57v2.53h-1.17v-7.26l1.17.61s.63-.63 1.67-.63c1.1 0 2.47.84 2.47 2.72 0 1.89-1.35 2.6-2.53 2.6m-.07-4.43c-.99 0-1.57.93-1.57.93v1.91s.66.74 1.61.74c1.11 0 1.35-1.32 1.35-1.78 0-.45-.11-1.8-1.39-1.8M537.52 40.55h-.73c-.92 0-1.23-.88-1.23-1.47V36.1h-.92v-.76h.92V33.1h1.15v2.24h1.18v.76h-1.17v2.7c0 .3-.05.78.46.78h.84l-.5.97zM539.38 34.47a.76.76 0 1 1 0-1.52.76.76 0 0 1 0 1.52m-.58.87h1.14v5.07h-1.14v-5.07zM544.54 40.42v-3.24c0-.56-.44-1.03-1.12-1.03-.6 0-1.27.71-1.27.71v3.57H541v-5.06l.98.58s.67-.72 1.78-.72c1.31 0 1.95.95 1.95 1.9v3.3h-1.17zM549.25 42.78c-.18 0-1.54-.02-1.54-.02l.02-.93h1.14c1.11 0 1.74-.59 1.74-1.4v-.46s-.61.57-1.63.57c-1.18 0-2.53-.72-2.53-2.6 0-1.88 1.37-2.72 2.47-2.72 1.05 0 1.67.63 1.67.63l1.17-.58v5.04c0 1.37-.91 2.47-2.51 2.47m1.37-5.74s-.57-.93-1.57-.93c-1.29 0-1.39 1.34-1.39 1.8 0 .46.24 1.78 1.35 1.78.95 0 1.61-.74 1.61-.74v-1.91zM482.2 38.11l-2.13 2.13 2.61.97 3.12-3.1zM486.11 33.79l-2.12-2.11-1 2.59 3.12 3.1zM489.98 34.58l2.85.74-2.38 2.36h-3.59zM489.79 41.64l-.82 2.77-4.44-4.42 1.8-1.79zM553.49 35.69c0 .3-.24.54-.55.54a.54.54 0 0 1-.55-.54c0-.3.25-.54.56-.54.3 0 .54.24.54.54zm-.97 0c0 .24.18.43.42.43.23 0 .41-.19.41-.42 0-.24-.18-.43-.42-.43-.23-.01-.41.18-.41.42zm.34.28h-.12v-.54c.05-.01.12-.02.21-.02.1 0 .15.02.18.04s.06.06.06.11c0 .07-.05.11-.11.13v.01c.05.02.08.06.1.13.02.08.03.11.04.13h-.13c-.02-.02-.03-.07-.04-.13-.01-.06-.04-.08-.11-.08h-.06v.22zm0-.3h.06c.07 0 .13-.02.13-.08 0-.05-.04-.08-.11-.08-.03 0-.06 0-.07.01v.15z"/><g><path class="st0" d="M483.56 44.27v-3.32l.66-.65 1.89 1.88v.63zM483.26 35.15h-2.75l.88 2.53h4.41zM492.55 40.64h-3.15l-2.54-2.53h4.41zM486.55 32.98l2.54-1.5v3.36l-2.54 2.53zM491.02 41.82c0 .21-.17.37-.38.37s-.38-.17-.38-.37c0-.21.17-.37.39-.37.21 0 .37.16.37.37zm-.67 0c0 .16.12.3.29.3.16 0 .28-.13.28-.29 0-.16-.12-.3-.29-.3-.15-.01-.28.13-.28.29zm.23.19h-.09v-.37c.03 0 .08-.01.14-.01.07 0 .1.01.13.03.02.02.04.04.04.08 0 .05-.03.07-.08.09.04.01.05.04.07.09.01.06.02.08.03.09h-.09a.302.302 0 0 1-.03-.09c-.01-.04-.03-.06-.08-.06h-.04v.15zm.01-.21h.04c.05 0 .09-.02.09-.05 0-.03-.02-.06-.08-.06h-.05v.11z"/></g><g><path class="st0" d="M470.17 35.49h.46v2.53h.01c.07-.11.16-.21.26-.28.1-.08.21-.14.32-.19s.23-.09.34-.11c.12-.02.23-.03.34-.03a1.747 1.747 0 0 1 1.25.49 1.702 1.702 0 0 1 .49 1.22 1.683 1.683 0 0 1-.49 1.22 1.749 1.749 0 0 1-1.25.49c-.11 0-.22-.01-.34-.03-.12-.02-.23-.06-.34-.11-.11-.05-.22-.12-.32-.19-.1-.08-.19-.17-.26-.28h-.01v.54h-.46v-5.27zm2.98 3.62c0-.18-.03-.35-.09-.51-.06-.16-.14-.29-.25-.41-.11-.12-.24-.21-.39-.27-.15-.07-.32-.1-.51-.1s-.36.03-.52.1c-.16.07-.29.16-.41.27-.12.12-.21.25-.27.41-.06.16-.1.33-.1.51s.03.35.1.51c.06.16.16.29.27.41.12.12.25.21.41.27.16.07.33.1.52.1s.36-.03.51-.1c.15-.07.28-.16.39-.27.11-.12.19-.25.25-.41.06-.16.09-.33.09-.51zM475.64 40.17l1-2.68h.56l-1.63 4.08c-.1.25-.22.45-.37.6-.15.15-.37.22-.65.22-.07 0-.14 0-.21-.01-.07 0-.14-.02-.21-.04l.05-.44c.1.05.21.08.35.08.16 0 .29-.05.38-.15.09-.1.17-.24.24-.43l.24-.62-1.34-3.28h.58l1.01 2.67z"/></g><g><path class="st0" d="M479.24 25.43c-1 .87-2.24 1.3-3.71 1.3-1.92 0-3.44-.62-4.54-1.87-1-1.12-1.5-2.48-1.5-4.07 0-1.7.56-3.12 1.68-4.28 1.12-1.15 2.61-1.73 4.45-1.73 1.41 0 2.61.43 3.6 1.29l-1.15 1.62c-.66-.5-1.46-.75-2.4-.75-1.01 0-1.84.34-2.48 1.03-.64.68-.96 1.61-.96 2.78 0 1.14.32 2.08.96 2.82.64.75 1.49 1.12 2.55 1.12.92 0 1.74-.3 2.47-.89l1.03 1.63zM491.23 20.68c0 1.73-.56 3.17-1.69 4.32-1.13 1.15-2.55 1.73-4.25 1.73-1.71 0-3.12-.58-4.24-1.73s-1.68-2.59-1.68-4.32c0-1.7.59-3.11 1.78-4.25 1.14-1.09 2.52-1.64 4.15-1.64 1.63 0 3.02.55 4.17 1.64 1.17 1.14 1.76 2.55 1.76 4.25zm-2.74 0c0-1.1-.26-2.02-.78-2.73-.58-.78-1.39-1.17-2.42-1.17s-1.83.39-2.4 1.17c-.52.72-.78 1.63-.78 2.73 0 1.17.25 2.12.76 2.85.57.81 1.38 1.21 2.42 1.21 1.05 0 1.86-.4 2.44-1.21.5-.73.76-1.68.76-2.85zM503.98 20.68c0 1.73-.56 3.17-1.69 4.32-1.13 1.15-2.55 1.73-4.25 1.73-1.71 0-3.12-.58-4.24-1.73s-1.68-2.59-1.68-4.32c0-1.7.59-3.11 1.78-4.25 1.14-1.09 2.52-1.64 4.15-1.64 1.63 0 3.02.55 4.17 1.64 1.17 1.14 1.76 2.55 1.76 4.25zm-2.74 0c0-1.1-.26-2.02-.78-2.73-.58-.78-1.39-1.17-2.42-1.17s-1.83.39-2.4 1.17c-.52.72-.78 1.63-.78 2.73 0 1.17.25 2.12.76 2.85.57.81 1.38 1.21 2.42 1.21 1.05 0 1.86-.4 2.44-1.21.5-.73.76-1.68.76-2.85zM507.9 26.47h-2.56V9.71l2.56 1.43v15.33zM527.46 20.68c0 1.73-.57 3.17-1.69 4.32-1.13 1.15-2.55 1.73-4.25 1.73-1.71 0-3.12-.58-4.24-1.73s-1.68-2.59-1.68-4.32c0-1.7.59-3.11 1.78-4.25 1.14-1.09 2.52-1.64 4.15-1.64 1.63 0 3.02.55 4.17 1.64 1.16 1.14 1.76 2.55 1.76 4.25zm-2.75 0c0-1.1-.26-2.02-.78-2.73-.58-.78-1.39-1.17-2.42-1.17s-1.83.39-2.4 1.17c-.52.72-.78 1.63-.78 2.73 0 1.17.25 2.12.76 2.85.57.81 1.38 1.21 2.42 1.21 1.05 0 1.86-.4 2.44-1.21.51-.73.76-1.68.76-2.85zM539.1 26.47h-2.56v-7.29c0-.65-.23-1.2-.68-1.65-.45-.44-1.05-.67-1.79-.67-.82 0-1.74.53-2.79 1.59v8.01h-2.56v-11.4l2.17 1.31c1.11-1.08 2.41-1.62 3.92-1.62 1.35 0 2.43.45 3.23 1.33.71.8 1.06 1.78 1.06 2.95v7.44zM551.6 21.3h-8.19c.31 2.33 1.4 3.49 3.27 3.49 1.15 0 2.1-.33 2.84-.98l1.01 1.66c-.98.91-2.29 1.36-3.92 1.36-2.26 0-3.91-.85-4.96-2.55-.65-1.05-.97-2.12-.97-3.23 0-1.36.26-2.54.78-3.53.94-1.83 2.61-2.74 5-2.74 2.37 0 3.93 1.08 4.68 3.25.34.92.49 2.01.46 3.27zm-2.59-1.68c-.09-2.01-.95-3.02-2.58-3.02-1.8 0-2.79 1.01-2.97 3.02h5.55zM513.44 24.6c-.49 0-.8-.21-.92-.63-.06-.17-.09-.55-.09-1.12V18.1h1.78v-1.71h-1.78v-2.72l-2.56-1.43v11.24c0 .81.2 1.52.6 2.13.49.78 1.2 1.17 2.12 1.17h1.61l1.08-2.18h-1.84z"/><g><path class="st0" d="M554.53 15.99c0 .67-.55 1.21-1.24 1.21s-1.25-.54-1.25-1.21c0-.68.55-1.2 1.25-1.2s1.24.53 1.24 1.2zm-2.17 0c0 .54.41.96.95.96.52.01.92-.43.92-.95 0-.54-.4-.97-.94-.97-.53 0-.93.43-.93.96zm.74.62h-.28v-1.2c.11-.01.27-.04.46-.04.23 0 .33.04.41.1.07.05.13.14.13.26 0 .15-.11.24-.25.29v.01c.12.04.18.13.21.29.04.18.07.25.09.29h-.3c-.04-.04-.06-.15-.1-.29-.02-.12-.1-.18-.25-.18h-.13v.47zm.01-.67h.13c.16 0 .28-.05.28-.18 0-.11-.08-.18-.26-.18-.07 0-.13.01-.16.01v.35z"/></g></g></svg>