<?xml version="1.0" encoding="utf-8"?>
<!-- Generator: Adobe Illustrator 25.4.1, SVG Export Plug-In . SVG Version: 6.00 Build 0)  -->
<svg version="1.1" id="Layer_1" xmlns="http://www.w3.org/2000/svg" xmlns:xlink="http://www.w3.org/1999/xlink" x="0px" y="0px"
	 viewBox="0 0 160 600" style="enable-background:new 0 0 160 600;" xml:space="preserve">
<style type="text/css">
	.st0{fill:#FFFFFF;}
</style>
<g>
	<path class="st0" d="M11.27,81.78h0.8c1.26,0,1.73-0.36,1.73-1.68V65.49c0-1.32-0.47-1.68-1.73-1.68h-0.8v-0.41h13.87l0.27,6.76
		h-0.36c-0.58-4.15-1.57-6.34-5.49-6.34h-1.73c-1.26,0-1.76,0.33-1.76,1.65v6.76h1.4c2.69,0,3.46-1.68,3.49-3.96h0.36v8.54h-0.36
		c-0.03-2.31-0.77-4.17-3.49-4.17h-1.4v7.5c0,1.32,0.49,1.65,1.76,1.65h2.25c3.87,0,4.72-2.69,5.47-6.92h0.36l-0.47,7.33H11.27
		V81.78z"/>
	<path class="st0" d="M27.83,81.81h0.11c1.24,0,1.51-0.33,1.51-1.65V65.41c0-1.32-0.27-1.65-1.51-1.65h-0.22v-0.38l3.68-0.41v17.19
		c0,1.32,0.27,1.65,1.48,1.65h0.22v0.38h-5.27V81.81z"/>
	<path class="st0" d="M33.96,81.81h0.22c1.21,0,1.48-0.3,1.48-1.54v-7.64c0-1.26-0.27-1.57-1.48-1.57h-0.22v-0.36l3.65-0.22v9.78
		c0,1.24,0.27,1.54,1.48,1.54h0.22v0.38h-5.36V81.81z M34.86,66.1c0-0.82,0.69-1.51,1.51-1.51c0.82,0,1.51,0.69,1.51,1.51
		c0,0.82-0.69,1.51-1.51,1.51C35.55,67.61,34.86,66.92,34.86,66.1z"/>
	<path class="st0" d="M40.16,81.81h0.19c1.21,0,1.48-0.3,1.48-1.54v-7.66c0-1.24-0.27-1.57-1.48-1.57h-0.19v-0.33l3.65-0.22
		l-0.14,3.38h0.06c0.71-2.14,2.39-3.41,4.17-3.41c2.09,0,2.91,1.32,3.13,3.1c0.85-1.92,2.36-3.1,4.09-3.1
		c2.22,0,3.16,1.37,3.16,4.09v5.71c0,1.24,0.27,1.54,1.51,1.54h0.05v0.38h-5.3v-0.38h0.27c1.24,0,1.51-0.3,1.51-1.54v-6.4
		c0-1.92-0.74-2.53-1.84-2.53c-2,0-3.43,2.2-3.43,4.45v4.48c0,1.24,0.27,1.54,1.51,1.54h0.25v0.38h-5.49v-0.38h0.27
		c1.24,0,1.51-0.3,1.51-1.54v-6.4c0-1.92-0.74-2.53-1.84-2.53c-1.98,0-3.43,2.12-3.43,4.45v4.48c0,1.24,0.27,1.54,1.48,1.54h0.27
		v0.38h-5.44V81.81z"/>
	<path class="st0" d="M60.54,81.81h0.22c1.21,0,1.48-0.3,1.48-1.54v-7.64c0-1.26-0.27-1.57-1.48-1.57h-0.22v-0.36l3.65-0.22v9.78
		c0,1.24,0.27,1.54,1.48,1.54h0.22v0.38h-5.36V81.81z M61.44,66.1c0-0.82,0.69-1.51,1.51-1.51c0.82,0,1.51,0.69,1.51,1.51
		c0,0.82-0.69,1.51-1.51,1.51C62.13,67.61,61.44,66.92,61.44,66.1z"/>
	<path class="st0" d="M66.74,81.81h0.19c1.21,0,1.48-0.3,1.48-1.54v-7.66c0-1.24-0.27-1.57-1.48-1.57h-0.19v-0.33l3.65-0.22
		l-0.14,3.38h0.06c0.74-2.22,2.47-3.41,4.26-3.41c2.23,0,3.24,1.37,3.24,4.09v5.71c0,1.24,0.27,1.54,1.51,1.54h0.05v0.38h-5.3v-0.38
		h0.27c1.24,0,1.51-0.3,1.51-1.54v-6.4c0-1.92-0.82-2.53-1.92-2.53c-2.01,0-3.52,2-3.52,4.45v4.48c0,1.24,0.27,1.54,1.48,1.54h0.27
		v0.38h-5.44V81.81z"/>
	<path class="st0" d="M80.25,79.86c0-2.33,2.09-3.57,7.25-4.78v-0.8c0-2.64-1.04-3.54-2.69-3.54c-1.48,0-2.75,0.63-2.75,1.13
		c0,0.08,0.03,0.11,0.14,0.11c0.55,0,1.15,0.52,1.15,1.21c0,0.71-0.55,1.26-1.24,1.26c-0.71,0-1.24-0.52-1.24-1.32
		c0-1.43,1.51-2.77,4.45-2.77c2.2,0,4.12,0.8,4.12,4.04v5.63c0,1.15,0.33,1.51,0.71,1.51c0.66,0,0.93-0.69,0.96-2.2h0.38
		c-0.05,2.61-0.96,3.1-2.09,3.1c-1.07,0-2.06-0.6-1.92-2.58h-0.06c-0.52,1.43-2.17,2.64-4.09,2.64
		C81.6,82.5,80.25,81.62,80.25,79.86z M87.5,77.5v-1.98c-4.2,0.85-4.97,2.31-4.97,3.87c0,1.24,0.66,2.14,1.92,2.14
		C85.8,81.53,87.5,80.55,87.5,77.5z"/>
	<path class="st0" d="M93.19,79.04v-7.91h-1.87V70.8c1.76-0.3,3.21-1.51,3.49-5.05h0.36v4.94h3.71v0.44h-3.71v8.05
		c0,1.73,0.63,2.58,1.87,2.58c1.13,0,2.03-1.24,2.14-3.65h0.38c0,2.8-1.24,4.45-3.21,4.45C94.39,82.55,93.19,81.42,93.19,79.04z"/>
	<path class="st0" d="M100.49,76.51c0-3.71,2.58-6.21,5.33-6.21c2.2,0,4.72,1.7,4.72,5.25c0,0.08-0.03,0.69-0.05,0.82h-7.75
		c0,3.02,1.21,5.36,3.57,5.36c2.12,0,3.19-1.07,4.09-2.39l0.3,0.22c-1.02,1.7-2.61,3.05-5,3.05
		C102.55,82.61,100.49,80.27,100.49,76.51z M106.86,75.93c1.1,0,1.4-0.36,1.4-1.24c0-2.2-0.77-3.98-2.53-3.98
		c-1.92,0-2.91,2.06-2.99,5.22H106.86z"/>
	<path class="st0" d="M13.36,106.47c-0.41,0-0.77,0.33-0.99,0.93H12.1v-4.67h0.25c0.47,2.69,2.66,4.31,4.83,4.31
		c1.62,0,2.77-0.93,2.77-2.22c0-1.24-0.85-1.7-3.63-2.5c-2.42-0.69-4.09-1.32-4.09-3.71c0-1.98,1.48-3.21,3.57-3.21
		c1.59,0,2.31,0.71,3.16,0.71c0.44,0,0.8-0.22,0.99-0.69h0.27v4.17h-0.25c-0.44-2.25-2-3.82-4.31-3.82c-1.26,0-2.28,0.82-2.28,2.03
		c0,1.29,1.07,1.7,3.38,2.31c2.99,0.8,4.34,1.65,4.34,3.82c0,2.2-1.68,3.49-4.04,3.49C15.37,107.43,14.02,106.47,13.36,106.47z"/>
	<path class="st0" d="M23.8,104v-7.91h-1.87v-0.33c1.76-0.3,3.21-1.51,3.49-5.05h0.36v4.94h3.71v0.44h-3.71v8.05
		c0,1.73,0.63,2.58,1.87,2.58c1.13,0,2.03-1.24,2.14-3.65h0.38c0,2.8-1.24,4.45-3.21,4.45C25,107.51,23.8,106.39,23.8,104z"/>
	<path class="st0" d="M32.12,103.53V97.6c0-1.21-0.27-1.57-1.48-1.57h-0.25v-0.36l3.68-0.22v8.57c0,1.95,0.74,2.72,2.03,2.72
		c1.7,0,3.41-2.42,3.41-4.72v-4.39c0-1.26-0.27-1.59-1.48-1.59h-0.55v-0.36l4.01-0.22v9.61c0,1.24,0.3,1.59,1.51,1.59h0.19v0.36
		l-3.65,0.41l0.14-3.41h-0.05c-0.71,1.87-2.31,3.41-4.17,3.41C33.27,107.43,32.12,106.17,32.12,103.53z"/>
	<path class="st0" d="M45.16,102.49v-12.2c0-1.26-0.27-1.57-1.48-1.57h-0.47v-0.38l3.87-0.41v5.96c0,2.11-0.08,4.31-0.08,4.31h0.06
		c1.04-1.81,2.11-2.83,3.9-2.83c2.39,0,4.72,2.58,4.72,5.99c0,3.79-2.53,6.07-4.81,6.07c-1.87,0-2.86-1.04-3.79-2.72h-0.05
		l-1.87,2.94H44.8C45.08,106.09,45.16,104.16,45.16,102.49z M53.37,101.42c0-3.02-0.71-5.6-2.75-5.6c-1.87,0-3.57,2.28-3.57,5.58
		c0,3.08,1.54,5.6,3.52,5.6C52.19,106.99,53.37,105.45,53.37,101.42z"/>
	<path class="st0" d="M58.09,102.49v-12.2c0-1.26-0.27-1.57-1.48-1.57h-0.47v-0.38l3.87-0.41v5.96c0,2.11-0.08,4.31-0.08,4.31h0.05
		c1.04-1.81,2.11-2.83,3.9-2.83c2.39,0,4.72,2.58,4.72,5.99c0,3.79-2.53,6.07-4.81,6.07c-1.87,0-2.86-1.04-3.79-2.72h-0.05
		l-1.87,2.94h-0.36C58.01,106.09,58.09,104.16,58.09,102.49z M66.3,101.42c0-3.02-0.71-5.6-2.75-5.6c-1.87,0-3.57,2.28-3.57,5.58
		c0,3.08,1.54,5.6,3.52,5.6C65.12,106.99,66.3,105.45,66.3,101.42z"/>
	<path class="st0" d="M70.06,101.39c0-3.57,2.8-6.12,5.38-6.12s5.36,2.5,5.36,6.07c0,3.49-2.77,6.23-5.36,6.23
		S70.06,104.88,70.06,101.39z M78.5,101.42c0-3.19-0.82-5.77-3.05-5.77s-3.05,2.53-3.05,5.71c0,3.16,0.77,5.82,3.05,5.82
		S78.5,104.58,78.5,101.42z"/>
	<path class="st0" d="M81.96,106.77h0.19c1.21,0,1.48-0.3,1.48-1.54v-7.69c0-1.24-0.33-1.54-1.48-1.54h-0.19v-0.33l3.65-0.22
		l-0.19,4.64h0.06c0.85-2.99,2.22-4.78,4.04-4.78c1.4,0,2.2,0.82,2.2,1.79c0,1.07-0.6,1.62-1.37,1.62c-0.69,0-1.24-0.44-1.24-1.13
		c0-0.6,0.33-0.88,0.58-1.1c0.14-0.11,0.22-0.19,0.22-0.33c0-0.22-0.28-0.27-0.6-0.27c-1.98,0-3.65,3.9-3.65,6.07v3.27
		c0,1.24,0.28,1.54,1.48,1.54h0.63v0.38h-5.79V106.77z"/>
	<path class="st0" d="M92.11,106.77h0.19c1.21,0,1.48-0.3,1.48-1.54v-7.66c0-1.24-0.27-1.57-1.48-1.57h-0.19v-0.33l3.65-0.22
		l-0.14,3.38h0.05c0.74-2.22,2.47-3.41,4.26-3.41c2.22,0,3.24,1.37,3.24,4.09v5.71c0,1.24,0.27,1.54,1.51,1.54h0.05v0.38h-5.3v-0.38
		h0.27c1.24,0,1.51-0.3,1.51-1.54v-6.4c0-1.92-0.82-2.53-1.92-2.53c-2,0-3.52,2.01-3.52,4.45v4.48c0,1.24,0.28,1.54,1.48,1.54h0.27
		v0.38h-5.44V106.77z"/>
	<path class="st0" d="M112.13,106.77h0.22c1.21,0,1.48-0.3,1.48-1.54v-9.15h-1.7v-0.41h1.7v-1.9c0-3.13,1.48-5.79,4.45-5.79
		c1.65,0,2.55,0.93,2.55,2.11c0,0.91-0.6,1.43-1.35,1.43c-0.74,0-1.21-0.47-1.21-1.18c0-0.47,0.22-0.8,0.44-1.02
		c0.17-0.17,0.3-0.3,0.3-0.47c0-0.27-0.38-0.55-0.91-0.55c-1.87,0-2.31,1.98-2.31,4.7v2.66h2.8v0.41h-2.8v9.15
		c0,1.24,0.27,1.54,1.48,1.54h0.52v0.38h-5.69V106.77z"/>
	<path class="st0" d="M119.38,104.82c0-2.33,2.09-3.57,7.25-4.78v-0.8c0-2.64-1.04-3.54-2.69-3.54c-1.48,0-2.75,0.63-2.75,1.13
		c0,0.08,0.03,0.11,0.14,0.11c0.55,0,1.15,0.52,1.15,1.21c0,0.71-0.55,1.26-1.24,1.26c-0.71,0-1.24-0.52-1.24-1.32
		c0-1.43,1.51-2.77,4.45-2.77c2.2,0,4.12,0.8,4.12,4.04v5.63c0,1.15,0.33,1.51,0.71,1.51c0.66,0,0.93-0.69,0.96-2.2h0.38
		c-0.05,2.61-0.96,3.1-2.09,3.1c-1.07,0-2.06-0.6-1.92-2.58h-0.05c-0.52,1.43-2.17,2.64-4.09,2.64
		C120.73,107.46,119.38,106.58,119.38,104.82z M126.63,102.46v-1.98c-4.2,0.85-4.97,2.31-4.97,3.87c0,1.24,0.66,2.14,1.92,2.14
		C124.93,106.5,126.63,105.51,126.63,102.46z"/>
	<path class="st0" d="M132.32,104v-7.91h-1.87v-0.33c1.76-0.3,3.21-1.51,3.49-5.05h0.36v4.94H138v0.44h-3.71v8.05
		c0,1.73,0.63,2.58,1.87,2.58c1.13,0,2.03-1.24,2.14-3.65h0.38c0,2.8-1.24,4.45-3.21,4.45C133.52,107.51,132.32,106.39,132.32,104z"
		/>
	<path class="st0" d="M12.87,122.81c-0.47-1.18-0.91-1.73-2-1.81v-0.36h5.33V121c-0.96,0.08-1.37,0.36-1.4,0.8
		c-0.03,0.36,0.08,0.77,0.3,1.37l2.47,7.06l2.25-5.82l-0.63-1.92c-0.3-0.96-0.6-1.32-1.7-1.48v-0.36h5.08V121
		c-0.93,0.08-1.43,0.36-1.46,0.8c-0.03,0.36,0.11,0.77,0.3,1.4l2.17,6.92l2.17-6.21c0.25-0.71,0.44-1.35,0.44-1.87
		c0-0.71-0.49-0.96-1.51-1.04v-0.36h3.96V121c-1.1,0.08-1.46,0.74-1.87,1.81l-3.74,9.86h-0.38l-2.55-7.53l-3.1,7.53h-0.36
		L12.87,122.81z"/>
	<path class="st0" d="M29.04,131.74h0.22c1.21,0,1.48-0.3,1.48-1.54v-7.64c0-1.26-0.27-1.57-1.48-1.57h-0.22v-0.36l3.65-0.22v9.78
		c0,1.24,0.27,1.54,1.48,1.54h0.22v0.38h-5.36V131.74z M29.95,116.03c0-0.82,0.69-1.51,1.51-1.51c0.82,0,1.51,0.69,1.51,1.51
		c0,0.82-0.69,1.51-1.51,1.51C30.63,117.54,29.95,116.85,29.95,116.03z"/>
	<path class="st0" d="M36.73,128.96v-7.91h-1.87v-0.33c1.76-0.3,3.21-1.51,3.49-5.05h0.36v4.94h3.71v0.44h-3.71v8.05
		c0,1.73,0.63,2.58,1.87,2.58c1.13,0,2.03-1.24,2.14-3.65h0.38c0,2.8-1.24,4.45-3.21,4.45C37.94,132.48,36.73,131.35,36.73,128.96z"
		/>
	<path class="st0" d="M43.51,131.74h0.19c1.13,0,1.48-0.27,1.48-1.54v-14.91c0-1.26-0.27-1.59-1.48-1.59h-0.25v-0.38l3.65-0.41v7.28
		l-0.14,3.63h0.06c0.66-1.98,2.25-3.41,4.26-3.41c2.22,0,3.24,1.37,3.24,4.09v5.71c0,1.24,0.27,1.54,1.51,1.54h0.05v0.38h-5.3v-0.38
		h0.27c1.24,0,1.51-0.3,1.51-1.54v-6.4c0-1.92-0.82-2.53-1.92-2.53c-2,0-3.52,2.03-3.52,4.42v4.5c0,1.24,0.27,1.54,1.48,1.54h0.27
		v0.38h-5.38V131.74z"/>
	<path class="st0" d="M63.42,129.79c0-2.33,2.09-3.57,7.25-4.78v-0.8c0-2.64-1.04-3.54-2.69-3.54c-1.48,0-2.75,0.63-2.75,1.13
		c0,0.08,0.03,0.11,0.14,0.11c0.55,0,1.15,0.52,1.15,1.21c0,0.71-0.55,1.26-1.24,1.26c-0.71,0-1.24-0.52-1.24-1.32
		c0-1.43,1.51-2.77,4.45-2.77c2.2,0,4.12,0.8,4.12,4.04v5.63c0,1.15,0.33,1.51,0.71,1.51c0.66,0,0.93-0.69,0.96-2.2h0.38
		c-0.05,2.61-0.96,3.1-2.09,3.1c-1.07,0-2.06-0.6-1.92-2.58h-0.06c-0.52,1.43-2.17,2.64-4.09,2.64
		C64.77,132.42,63.42,131.54,63.42,129.79z M70.67,127.42v-1.98c-4.2,0.85-4.97,2.31-4.97,3.87c0,1.24,0.66,2.14,1.92,2.14
		C68.97,131.46,70.67,130.47,70.67,127.42z"/>
	<path class="st0" d="M11.03,162.3h0.33c1.21,0,1.48-0.3,1.48-1.57v-13.21c0-1.26-0.27-1.57-1.48-1.57h-0.19v-0.36l3.57-0.22
		l-0.08,2.8h0.06c0.88-1.7,2.06-2.88,3.85-2.88c2.25,0,4.81,2.33,4.81,6.02c0,3.62-2.5,6.04-4.92,6.04c-1.87,0-3.02-1.29-3.76-2.97
		h-0.03c0,0,0.11,1.7,0.11,3.43v2.91c0,1.26,0.27,1.57,1.48,1.57h0.63v0.38h-5.85V162.3z M21.05,151.37c0-2.86-0.66-5.63-2.77-5.63
		c-1.35,0-3.54,1.59-3.54,5.6c0,2.83,1.51,5.58,3.49,5.58C20.34,156.92,21.05,154.34,21.05,151.37z"/>
	<path class="st0" d="M24.81,151.4c0-3.71,2.58-6.21,5.33-6.21c2.2,0,4.72,1.7,4.72,5.25c0,0.08-0.03,0.69-0.06,0.82h-7.75
		c0,3.02,1.21,5.36,3.57,5.36c2.11,0,3.19-1.07,4.09-2.39l0.3,0.22c-1.02,1.7-2.61,3.05-5,3.05
		C26.87,157.5,24.81,155.16,24.81,151.4z M31.18,150.82c1.1,0,1.4-0.36,1.4-1.24c0-2.2-0.77-3.98-2.53-3.98
		c-1.92,0-2.91,2.06-2.99,5.22H31.18z"/>
	<path class="st0" d="M36.1,156.7h0.19c1.21,0,1.48-0.3,1.48-1.54v-7.69c0-1.24-0.33-1.54-1.48-1.54H36.1v-0.33l3.65-0.22
		l-0.19,4.64h0.05c0.85-2.99,2.23-4.78,4.04-4.78c1.4,0,2.2,0.82,2.2,1.79c0,1.07-0.6,1.62-1.37,1.62c-0.69,0-1.24-0.44-1.24-1.13
		c0-0.6,0.33-0.88,0.58-1.1c0.14-0.11,0.22-0.19,0.22-0.33c0-0.22-0.27-0.27-0.6-0.27c-1.98,0-3.65,3.9-3.65,6.07v3.27
		c0,1.24,0.27,1.54,1.48,1.54h0.63v0.38h-5.8V156.7z"/>
	<path class="st0" d="M47.99,156.4c-0.41,0-0.77,0.33-0.99,0.93h-0.27v-4.67h0.25c0.47,2.69,2.66,4.31,4.83,4.31
		c1.62,0,2.77-0.93,2.77-2.22c0-1.24-0.85-1.7-3.63-2.5c-2.42-0.69-4.09-1.32-4.09-3.71c0-1.98,1.48-3.21,3.57-3.21
		c1.59,0,2.31,0.71,3.16,0.71c0.44,0,0.8-0.22,0.99-0.69h0.27v4.17h-0.25c-0.44-2.25-2-3.82-4.31-3.82c-1.26,0-2.28,0.82-2.28,2.03
		c0,1.29,1.07,1.7,3.38,2.31c2.99,0.8,4.34,1.65,4.34,3.82c0,2.2-1.68,3.49-4.04,3.49C49.99,157.36,48.65,156.4,47.99,156.4z"/>
	<path class="st0" d="M57.24,151.32c0-3.57,2.8-6.12,5.38-6.12s5.36,2.5,5.36,6.07c0,3.49-2.77,6.23-5.36,6.23
		S57.24,154.8,57.24,151.32z M65.67,151.34c0-3.19-0.82-5.77-3.05-5.77s-3.05,2.53-3.05,5.71c0,3.16,0.77,5.82,3.05,5.82
		S65.67,154.5,65.67,151.34z"/>
	<path class="st0" d="M69.13,156.7h0.19c1.21,0,1.48-0.3,1.48-1.54v-7.66c0-1.24-0.27-1.57-1.48-1.57h-0.19v-0.33l3.65-0.22
		l-0.14,3.38h0.06c0.74-2.22,2.47-3.41,4.26-3.41c2.22,0,3.24,1.37,3.24,4.09v5.71c0,1.24,0.27,1.54,1.51,1.54h0.06v0.38h-5.3v-0.38
		h0.27c1.24,0,1.51-0.3,1.51-1.54v-6.4c0-1.92-0.82-2.53-1.92-2.53c-2,0-3.52,2.01-3.52,4.45v4.48c0,1.24,0.27,1.54,1.48,1.54h0.27
		v0.38h-5.44V156.7z"/>
	<path class="st0" d="M82.64,154.75c0-2.33,2.09-3.57,7.25-4.78v-0.8c0-2.64-1.04-3.54-2.69-3.54c-1.48,0-2.75,0.63-2.75,1.13
		c0,0.08,0.03,0.11,0.14,0.11c0.55,0,1.15,0.52,1.15,1.21c0,0.71-0.55,1.26-1.24,1.26c-0.71,0-1.24-0.52-1.24-1.32
		c0-1.43,1.51-2.77,4.45-2.77c2.2,0,4.12,0.8,4.12,4.04v5.63c0,1.15,0.33,1.51,0.71,1.51c0.66,0,0.93-0.69,0.96-2.2h0.38
		c-0.05,2.61-0.96,3.1-2.09,3.1c-1.07,0-2.06-0.6-1.92-2.58h-0.06c-0.52,1.43-2.17,2.64-4.09,2.64
		C83.99,157.39,82.64,156.51,82.64,154.75z M89.89,152.39v-1.98c-4.2,0.85-4.97,2.31-4.97,3.87c0,1.24,0.66,2.14,1.92,2.14
		C88.19,156.42,89.89,155.44,89.89,152.39z"/>
	<path class="st0" d="M94.37,156.7h0.11c1.24,0,1.51-0.33,1.51-1.65V140.3c0-1.32-0.27-1.65-1.51-1.65h-0.22v-0.38l3.68-0.41v17.19
		c0,1.32,0.27,1.65,1.48,1.65h0.22v0.38h-5.27V156.7z"/>
	<path class="st0" d="M100.49,156.7h0.22c1.21,0,1.48-0.3,1.48-1.54v-7.64c0-1.26-0.28-1.57-1.48-1.57h-0.22v-0.36l3.65-0.22v9.78
		c0,1.24,0.28,1.54,1.48,1.54h0.22v0.38h-5.36V156.7z M101.4,140.99c0-0.82,0.69-1.51,1.51-1.51s1.51,0.69,1.51,1.51
		c0,0.82-0.69,1.51-1.51,1.51S101.4,141.81,101.4,140.99z"/>
	<path class="st0" d="M106.8,156.81l7.53-10.85h-2.47c-2.55,0-3.57,1.29-4.28,4.17h-0.28l0.3-4.53h9.01v0.22l-7.55,10.9h3.13
		c2.88,0,3.79-1.7,4.28-4.42h0.27l-0.3,4.78h-9.64V156.81z"/>
	<path class="st0" d="M118.15,151.4c0-3.71,2.58-6.21,5.33-6.21c2.2,0,4.72,1.7,4.72,5.25c0,0.08-0.03,0.69-0.06,0.82h-7.75
		c0,3.02,1.21,5.36,3.57,5.36c2.11,0,3.19-1.07,4.09-2.39l0.3,0.22c-1.02,1.7-2.61,3.05-5,3.05
		C120.21,157.5,118.15,155.16,118.15,151.4z M124.52,150.82c1.1,0,1.4-0.36,1.4-1.24c0-2.2-0.77-3.98-2.53-3.98
		c-1.92,0-2.91,2.06-2.99,5.22H124.52z"/>
	<path class="st0" d="M129.73,151.34c0-3.41,2.17-6.04,4.83-6.04c1.65,0,2.94,1.15,3.79,2.83h0.08c-0.06-0.77-0.08-2.42-0.08-4.15
		v-3.74c0-1.26-0.3-1.57-1.51-1.57h-0.69v-0.38l4.15-0.41v17.14c0,1.24,0.25,1.59,1.46,1.59h0.22V157l-3.63,0.41l0.11-3.08h-0.08
		c-0.91,1.68-2.06,3.02-3.93,3.02C132.18,157.36,129.73,155.08,129.73,151.34z M138.36,151.32c0-4.09-2.28-5.6-3.46-5.6
		c-2.25,0-2.86,2.55-2.86,5.55c0,3.05,0.74,5.66,2.83,5.66C136.3,156.92,138.36,154.94,138.36,151.32z"/>
	<path class="st0" d="M12.84,178.89v-7.91h-1.87v-0.33c1.76-0.3,3.21-1.51,3.49-5.05h0.36v4.94h3.71v0.44h-3.71v8.05
		c0,1.73,0.63,2.58,1.87,2.58c1.13,0,2.03-1.24,2.14-3.65h0.38c0,2.8-1.24,4.45-3.21,4.45C14.05,182.4,12.84,181.28,12.84,178.89z"
		/>
	<path class="st0" d="M19.84,181.66h0.19c1.21,0,1.48-0.3,1.48-1.54v-7.69c0-1.24-0.33-1.54-1.48-1.54h-0.19v-0.33l3.65-0.22
		l-0.19,4.64h0.05c0.85-2.99,2.23-4.78,4.04-4.78c1.4,0,2.2,0.82,2.2,1.79c0,1.07-0.6,1.62-1.37,1.62c-0.69,0-1.24-0.44-1.24-1.13
		c0-0.6,0.33-0.88,0.58-1.1c0.14-0.11,0.22-0.19,0.22-0.33c0-0.22-0.27-0.27-0.6-0.27c-1.98,0-3.65,3.9-3.65,6.07v3.27
		c0,1.24,0.27,1.54,1.48,1.54h0.63v0.38h-5.8V181.66z"/>
	<path class="st0" d="M30.03,176.36c0-3.71,2.58-6.21,5.33-6.21c2.2,0,4.72,1.7,4.72,5.25c0,0.08-0.03,0.69-0.05,0.82h-7.75
		c0,3.02,1.21,5.36,3.57,5.36c2.11,0,3.19-1.07,4.09-2.39l0.3,0.22c-1.02,1.7-2.61,3.05-5,3.05
		C32.09,182.46,30.03,180.12,30.03,176.36z M36.4,175.79c1.1,0,1.4-0.36,1.4-1.24c0-2.2-0.77-3.98-2.53-3.98
		c-1.92,0-2.91,2.06-2.99,5.22H36.4z"/>
	<path class="st0" d="M41.56,179.71c0-2.33,2.09-3.57,7.25-4.78v-0.8c0-2.64-1.04-3.54-2.69-3.54c-1.48,0-2.75,0.63-2.75,1.13
		c0,0.08,0.03,0.11,0.14,0.11c0.55,0,1.15,0.52,1.15,1.21c0,0.71-0.55,1.26-1.24,1.26c-0.71,0-1.24-0.52-1.24-1.32
		c0-1.43,1.51-2.77,4.45-2.77c2.2,0,4.12,0.8,4.12,4.04v5.63c0,1.15,0.33,1.51,0.71,1.51c0.66,0,0.93-0.69,0.96-2.2h0.38
		c-0.05,2.61-0.96,3.1-2.09,3.1c-1.07,0-2.06-0.6-1.92-2.58h-0.06c-0.52,1.43-2.17,2.64-4.09,2.64
		C42.91,182.35,41.56,181.47,41.56,179.71z M48.81,177.35v-1.98c-4.2,0.85-4.97,2.31-4.97,3.87c0,1.24,0.66,2.14,1.92,2.14
		C47.11,181.39,48.81,180.4,48.81,177.35z"/>
	<path class="st0" d="M54.5,178.89v-7.91h-1.87v-0.33c1.76-0.3,3.21-1.51,3.49-5.05h0.36v4.94h3.71v0.44h-3.71v8.05
		c0,1.73,0.63,2.58,1.87,2.58c1.13,0,2.03-1.24,2.14-3.65h0.38c0,2.8-1.24,4.45-3.21,4.45C55.7,182.4,54.5,181.28,54.5,178.89z"/>
	<path class="st0" d="M61.5,181.66h0.19c1.21,0,1.48-0.3,1.48-1.54v-7.66c0-1.24-0.27-1.57-1.48-1.57H61.5v-0.33l3.65-0.22
		l-0.14,3.38h0.06c0.71-2.14,2.39-3.41,4.17-3.41c2.09,0,2.91,1.32,3.13,3.1c0.85-1.92,2.36-3.1,4.09-3.1
		c2.23,0,3.16,1.37,3.16,4.09v5.71c0,1.24,0.27,1.54,1.51,1.54h0.06v0.38h-5.3v-0.38h0.27c1.24,0,1.51-0.3,1.51-1.54v-6.4
		c0-1.92-0.74-2.53-1.84-2.53c-2.01,0-3.43,2.2-3.43,4.45v4.48c0,1.24,0.27,1.54,1.51,1.54h0.25v0.38h-5.49v-0.38h0.27
		c1.24,0,1.51-0.3,1.51-1.54v-6.4c0-1.92-0.74-2.53-1.84-2.53c-1.98,0-3.43,2.11-3.43,4.45v4.48c0,1.24,0.27,1.54,1.48,1.54h0.27
		v0.38H61.5V181.66z"/>
	<path class="st0" d="M82.12,176.36c0-3.71,2.58-6.21,5.33-6.21c2.2,0,4.72,1.7,4.72,5.25c0,0.08-0.03,0.69-0.05,0.82h-7.75
		c0,3.02,1.21,5.36,3.57,5.36c2.12,0,3.19-1.07,4.09-2.39l0.3,0.22c-1.02,1.7-2.61,3.05-5,3.05
		C84.18,182.46,82.12,180.12,82.12,176.36z M88.49,175.79c1.1,0,1.4-0.36,1.4-1.24c0-2.2-0.77-3.98-2.53-3.98
		c-1.92,0-2.91,2.06-2.99,5.22H88.49z"/>
	<path class="st0" d="M93.4,181.66h0.19c1.21,0,1.48-0.3,1.48-1.54v-7.66c0-1.24-0.27-1.57-1.48-1.57H93.4v-0.33l3.65-0.22
		l-0.14,3.38h0.05c0.74-2.22,2.47-3.41,4.26-3.41c2.22,0,3.24,1.37,3.24,4.09v5.71c0,1.24,0.27,1.54,1.51,1.54h0.05v0.38h-5.3v-0.38
		h0.27c1.24,0,1.51-0.3,1.51-1.54v-6.4c0-1.92-0.82-2.53-1.92-2.53c-2,0-3.52,2.01-3.52,4.45v4.48c0,1.24,0.28,1.54,1.48,1.54h0.27
		v0.38H93.4V181.66z"/>
	<path class="st0" d="M108.15,178.89v-7.91h-1.87v-0.33c1.76-0.3,3.21-1.51,3.49-5.05h0.36v4.94h3.71v0.44h-3.71v8.05
		c0,1.73,0.63,2.58,1.87,2.58c1.13,0,2.03-1.24,2.14-3.65h0.38c0,2.8-1.24,4.45-3.21,4.45C109.36,182.4,108.15,181.28,108.15,178.89
		z"/>
	<path class="st0" d="M11.03,212.23h0.33c1.21,0,1.48-0.3,1.48-1.57v-13.21c0-1.26-0.27-1.57-1.48-1.57h-0.19v-0.36l3.57-0.22
		l-0.08,2.8h0.06c0.88-1.7,2.06-2.88,3.85-2.88c2.25,0,4.81,2.33,4.81,6.01c0,3.63-2.5,6.04-4.92,6.04c-1.87,0-3.02-1.29-3.76-2.97
		h-0.03c0,0,0.11,1.7,0.11,3.43v2.91c0,1.26,0.27,1.57,1.48,1.57h0.63v0.38h-5.85V212.23z M21.05,201.3c0-2.86-0.66-5.63-2.77-5.63
		c-1.35,0-3.54,1.59-3.54,5.6c0,2.83,1.51,5.58,3.49,5.58C20.34,206.85,21.05,204.26,21.05,201.3z"/>
	<path class="st0" d="M24.51,206.63h0.11c1.24,0,1.51-0.33,1.51-1.65v-14.75c0-1.32-0.27-1.65-1.51-1.65H24.4v-0.38l3.68-0.41v17.19
		c0,1.32,0.27,1.65,1.48,1.65h0.22v0.38h-5.27V206.63z"/>
	<path class="st0" d="M30.83,204.68c0-2.33,2.09-3.57,7.25-4.78v-0.8c0-2.64-1.04-3.54-2.69-3.54c-1.48,0-2.75,0.63-2.75,1.13
		c0,0.08,0.03,0.11,0.14,0.11c0.55,0,1.15,0.52,1.15,1.21c0,0.71-0.55,1.26-1.24,1.26c-0.71,0-1.24-0.52-1.24-1.32
		c0-1.43,1.51-2.77,4.45-2.77c2.2,0,4.12,0.8,4.12,4.04v5.63c0,1.15,0.33,1.51,0.71,1.51c0.66,0,0.93-0.69,0.96-2.2h0.38
		c-0.05,2.61-0.96,3.1-2.09,3.1c-1.07,0-2.06-0.6-1.92-2.58h-0.06c-0.52,1.43-2.17,2.64-4.09,2.64
		C32.17,207.31,30.83,206.43,30.83,204.68z M38.08,202.31v-1.98c-4.2,0.85-4.97,2.31-4.97,3.87c0,1.24,0.66,2.14,1.92,2.14
		C36.37,206.35,38.08,205.36,38.08,202.31z"/>
	<path class="st0" d="M42.55,206.63h0.19c1.21,0,1.48-0.3,1.48-1.54v-7.66c0-1.24-0.27-1.57-1.48-1.57h-0.19v-0.33l3.65-0.22
		l-0.14,3.38h0.06c0.74-2.22,2.47-3.41,4.26-3.41c2.23,0,3.24,1.37,3.24,4.09v5.71c0,1.24,0.27,1.54,1.51,1.54h0.05v0.38h-5.3v-0.38
		h0.27c1.24,0,1.51-0.3,1.51-1.54v-6.4c0-1.92-0.82-2.53-1.92-2.53c-2.01,0-3.52,2-3.52,4.45v4.48c0,1.24,0.27,1.54,1.48,1.54h0.27
		v0.38h-5.44V206.63z"/>
	<path class="st0" d="M56.8,205.64c0-0.88,0.69-1.57,1.57-1.57s1.57,0.69,1.57,1.57s-0.69,1.57-1.57,1.57S56.8,206.52,56.8,205.64z"
		/>
</g>
</svg>
