<?xml version="1.0" encoding="utf-8"?>
<!-- Generator: Adobe Illustrator 25.4.1, SVG Export Plug-In . SVG Version: 6.00 Build 0)  -->
<svg version="1.1" id="Layer_1" xmlns="http://www.w3.org/2000/svg" xmlns:xlink="http://www.w3.org/1999/xlink" x="0px" y="0px"
	 viewBox="0 0 160 600" style="enable-background:new 0 0 160 600;" xml:space="preserve">
<style type="text/css">
	.st0{fill:#FFFFFF;}
</style>
<g>
	<path class="st0" d="M13.4,78.77c0-0.91,0.55-1.65,1.43-1.65s1.43,0.63,1.43,1.48c0,0.58-0.27,0.93-0.69,1.24
		c-0.22,0.17-0.44,0.27-0.44,0.44c-0.03,0.58,0.96,0.85,1.73,0.85c3.73,0,4.58-4.31,4.45-9.33c-0.77,1.46-2.11,2.36-3.54,2.36
		c-2.88,0-4.83-1.95-4.83-5.35c0-3.51,2.47-5.82,5.3-5.82c3.43,0,5.49,3.21,5.49,8.43c0,5.71-2.88,10.13-6.83,10.13
		C14.61,81.54,13.4,80.06,13.4,78.77z M21.33,68.64c0-2.69-0.88-5.3-3.05-5.3c-2.14,0-2.91,2.69-2.91,5.38
		c0,2.94,0.74,4.97,2.77,4.97C20.02,73.69,21.33,71.33,21.33,68.64z"/>
	<path class="st0" d="M31.68,75.42c0-3.57,2.8-6.12,5.38-6.12c2.58,0,5.35,2.5,5.35,6.07c0,3.49-2.77,6.23-5.35,6.23
		C34.48,81.6,31.68,78.91,31.68,75.42z M40.11,75.45c0-3.18-0.82-5.76-3.05-5.76s-3.05,2.53-3.05,5.71c0,3.16,0.77,5.82,3.05,5.82
		S40.11,78.61,40.11,75.45z"/>
	<path class="st0" d="M44.72,77.56v-5.93c0-1.21-0.27-1.56-1.48-1.56h-0.25v-0.36l3.68-0.22v8.56c0,1.95,0.74,2.72,2.03,2.72
		c1.7,0,3.4-2.42,3.4-4.72v-4.39c0-1.26-0.27-1.59-1.48-1.59h-0.55v-0.36l4.01-0.22v9.61c0,1.24,0.3,1.59,1.51,1.59h0.19v0.36
		l-3.65,0.41l0.14-3.4h-0.05c-0.71,1.87-2.31,3.4-4.17,3.4C45.87,81.46,44.72,80.2,44.72,77.56z"/>
	<path class="st0" d="M57.81,78.03v-7.91h-1.87v-0.33c1.76-0.3,3.21-1.51,3.49-5.05h0.36v4.94h3.71v0.44h-3.71v8.04
		c0,1.73,0.63,2.58,1.87,2.58c1.13,0,2.03-1.23,2.14-3.65h0.38c0,2.8-1.23,4.45-3.21,4.45C59.02,81.54,57.81,80.42,57.81,78.03z"/>
	<path class="st0" d="M71.21,75.42c0-3.57,2.8-6.12,5.38-6.12c2.58,0,5.35,2.5,5.35,6.07c0,3.49-2.77,6.23-5.35,6.23
		C74.01,81.6,71.21,78.91,71.21,75.42z M79.63,75.45c0-3.18-0.82-5.76-3.05-5.76s-3.05,2.53-3.05,5.71c0,3.16,0.77,5.82,3.05,5.82
		S79.63,78.61,79.63,75.45z"/>
	<path class="st0" d="M83.26,80.8h0.22c1.21,0,1.48-0.3,1.48-1.54v-9.14h-1.7v-0.41h1.7v-1.89c0-3.13,1.48-5.79,4.45-5.79
		c1.65,0,2.55,0.93,2.55,2.11c0,0.91-0.6,1.43-1.34,1.43s-1.21-0.47-1.21-1.18c0-0.47,0.22-0.8,0.44-1.02
		c0.17-0.16,0.3-0.3,0.3-0.47c0-0.27-0.38-0.55-0.91-0.55c-1.87,0-2.31,1.98-2.31,4.69v2.66h2.8v0.41h-2.8v9.14
		c0,1.24,0.27,1.54,1.48,1.54h0.52v0.38h-5.68V80.8z"/>
	<path class="st0" d="M97.17,80.77h1.02c1.18,0,1.65-0.33,1.65-1.56V66.86c0-1.24-0.47-1.56-1.65-1.56h-1.02v-0.41
		c2.99-0.22,4.06-1.04,4.53-2h0.33v16.33c0,1.24,0.44,1.56,1.62,1.56h0.8v0.41h-7.27V80.77z"/>
	<path class="st0" d="M106.01,72.29c0-5.65,2.99-9.31,6.07-9.31c3.08,0,5.96,3.65,5.96,9.31s-2.99,9.33-6.04,9.33
		C108.92,81.63,106.01,77.95,106.01,72.29z M115.48,72.29c0-5.9-1.21-8.92-3.49-8.92c-2.33,0-3.43,3.02-3.43,8.92
		s1.21,8.95,3.51,8.95C114.38,81.24,115.48,78.19,115.48,72.29z"/>
	<path class="st0" d="M12.03,111.36h0.33c1.21,0,1.48-0.3,1.48-1.56v-13.2c0-1.26-0.27-1.56-1.48-1.56h-0.19v-0.36l3.57-0.22
		l-0.08,2.8h0.06c0.88-1.7,2.06-2.88,3.84-2.88c2.25,0,4.8,2.33,4.8,6.01c0,3.62-2.5,6.04-4.91,6.04c-1.87,0-3.02-1.29-3.76-2.96
		h-0.03c0,0,0.11,1.7,0.11,3.43v2.91c0,1.26,0.27,1.56,1.48,1.56h0.63v0.38h-5.85V111.36z M22.05,100.43c0-2.85-0.66-5.63-2.77-5.63
		c-1.35,0-3.54,1.59-3.54,5.6c0,2.83,1.51,5.57,3.49,5.57C21.33,105.98,22.05,103.39,22.05,100.43z"/>
	<path class="st0" d="M25.59,103.81c0-2.33,2.09-3.57,7.25-4.78v-0.8c0-2.64-1.04-3.54-2.69-3.54c-1.48,0-2.75,0.63-2.75,1.13
		c0,0.08,0.03,0.11,0.14,0.11c0.55,0,1.15,0.52,1.15,1.21c0,0.71-0.55,1.26-1.24,1.26c-0.71,0-1.24-0.52-1.24-1.32
		c0-1.43,1.51-2.77,4.45-2.77c2.2,0,4.12,0.8,4.12,4.04v5.63c0,1.15,0.33,1.51,0.71,1.51c0.66,0,0.93-0.69,0.96-2.2h0.38
		c-0.05,2.61-0.96,3.1-2.09,3.1c-1.07,0-2.06-0.6-1.92-2.58h-0.06c-0.52,1.43-2.17,2.64-4.09,2.64
		C26.93,106.44,25.59,105.56,25.59,103.81z M32.83,101.45v-1.98c-4.2,0.85-4.97,2.31-4.97,3.87c0,1.24,0.66,2.14,1.92,2.14
		C31.13,105.48,32.83,104.49,32.83,101.45z"/>
	<path class="st0" d="M38.35,102.98v-7.91h-1.87v-0.33c1.76-0.3,3.21-1.51,3.49-5.05h0.36v4.94h3.71v0.44h-3.71v8.04
		c0,1.73,0.63,2.58,1.87,2.58c1.13,0,2.03-1.23,2.14-3.65h0.38c0,2.8-1.23,4.45-3.21,4.45C39.56,106.5,38.35,105.37,38.35,102.98z"
		/>
	<path class="st0" d="M45.24,105.76h0.22c1.21,0,1.48-0.3,1.48-1.54v-7.63c0-1.26-0.27-1.56-1.48-1.56h-0.22v-0.36l3.65-0.22v9.77
		c0,1.24,0.27,1.54,1.48,1.54h0.22v0.38h-5.35V105.76z M46.15,90.05c0-0.82,0.69-1.51,1.51-1.51c0.82,0,1.51,0.69,1.51,1.51
		c0,0.82-0.69,1.51-1.51,1.51C46.83,91.56,46.15,90.88,46.15,90.05z"/>
	<path class="st0" d="M51.58,100.46c0-3.71,2.58-6.2,5.33-6.2c2.2,0,4.72,1.7,4.72,5.24c0,0.08-0.03,0.69-0.05,0.82h-7.74
		c0,3.02,1.21,5.35,3.57,5.35c2.11,0,3.18-1.07,4.09-2.39l0.3,0.22c-1.02,1.7-2.61,3.05-5,3.05
		C53.64,106.55,51.58,104.22,51.58,100.46z M57.95,99.88c1.1,0,1.4-0.36,1.4-1.24c0-2.2-0.77-3.98-2.53-3.98
		c-1.92,0-2.91,2.06-2.99,5.22H57.95z"/>
	<path class="st0" d="M62.7,105.76h0.19c1.21,0,1.48-0.3,1.48-1.54v-7.66c0-1.24-0.27-1.56-1.48-1.56H62.7v-0.33l3.65-0.22
		l-0.14,3.38h0.05c0.74-2.22,2.47-3.4,4.25-3.4c2.22,0,3.24,1.37,3.24,4.09v5.71c0,1.24,0.27,1.54,1.51,1.54h0.05v0.38h-5.3v-0.38
		h0.27c1.24,0,1.51-0.3,1.51-1.54v-6.4c0-1.92-0.82-2.53-1.92-2.53c-2,0-3.51,2-3.51,4.45v4.47c0,1.24,0.27,1.54,1.48,1.54h0.27
		v0.38H62.7V105.76z"/>
	<path class="st0" d="M77.27,102.98v-7.91h-1.87v-0.33c1.76-0.3,3.21-1.51,3.49-5.05h0.36v4.94h3.71v0.44h-3.71v8.04
		c0,1.73,0.63,2.58,1.87,2.58c1.12,0,2.03-1.23,2.14-3.65h0.38c0,2.8-1.24,4.45-3.21,4.45C78.48,106.5,77.27,105.37,77.27,102.98z"
		/>
	<path class="st0" d="M86.11,105.45c-0.41,0-0.77,0.33-0.99,0.93h-0.27v-4.67h0.25c0.47,2.69,2.66,4.31,4.83,4.31
		c1.62,0,2.77-0.93,2.77-2.22c0-1.23-0.85-1.7-3.62-2.5c-2.42-0.69-4.09-1.32-4.09-3.71c0-1.98,1.48-3.21,3.57-3.21
		c1.59,0,2.31,0.71,3.16,0.71c0.44,0,0.8-0.22,0.99-0.69h0.27v4.17h-0.25c-0.44-2.25-2-3.82-4.31-3.82c-1.26,0-2.28,0.82-2.28,2.03
		c0,1.29,1.07,1.7,3.38,2.31c2.99,0.8,4.34,1.65,4.34,3.82c0,2.2-1.67,3.49-4.04,3.49C88.11,106.41,86.77,105.45,86.11,105.45z"/>
	<path class="st0" d="M12.36,130.71h0.19c1.21,0,1.48-0.3,1.48-1.54v-7.69c0-1.23-0.33-1.54-1.48-1.54h-0.19v-0.33l3.65-0.22
		l-0.19,4.64h0.06c0.85-2.99,2.22-4.78,4.04-4.78c1.4,0,2.2,0.82,2.2,1.78c0,1.07-0.6,1.62-1.37,1.62c-0.69,0-1.24-0.44-1.24-1.13
		c0-0.6,0.33-0.88,0.58-1.1c0.14-0.11,0.22-0.19,0.22-0.33c0-0.22-0.27-0.27-0.6-0.27c-1.98,0-3.65,3.9-3.65,6.07v3.27
		c0,1.24,0.27,1.54,1.48,1.54h0.63v0.38h-5.79V130.71z"/>
	<path class="st0" d="M22.38,125.41c0-3.71,2.58-6.2,5.33-6.2c2.2,0,4.72,1.7,4.72,5.24c0,0.08-0.03,0.69-0.05,0.82h-7.74
		c0,3.02,1.21,5.35,3.57,5.35c2.11,0,3.18-1.07,4.09-2.39l0.3,0.22c-1.02,1.7-2.61,3.05-5,3.05
		C24.43,131.5,22.38,129.17,22.38,125.41z M28.74,124.83c1.1,0,1.4-0.36,1.4-1.24c0-2.2-0.77-3.98-2.53-3.98
		c-1.92,0-2.91,2.06-2.99,5.22H28.74z"/>
	<path class="st0" d="M33.16,136.31h0.33c1.21,0,1.48-0.3,1.48-1.56v-13.2c0-1.26-0.27-1.56-1.48-1.56H33.3v-0.36l3.57-0.22
		l-0.08,2.8h0.06c0.88-1.7,2.06-2.88,3.84-2.88c2.25,0,4.8,2.33,4.8,6.01c0,3.62-2.5,6.04-4.91,6.04c-1.87,0-3.02-1.29-3.76-2.96
		h-0.03c0,0,0.11,1.7,0.11,3.43v2.91c0,1.26,0.27,1.56,1.48,1.56h0.63v0.38h-5.85V136.31z M43.18,125.38c0-2.85-0.66-5.63-2.77-5.63
		c-1.35,0-3.54,1.59-3.54,5.6c0,2.83,1.51,5.57,3.49,5.57C42.47,130.93,43.18,128.35,43.18,125.38z"/>
	<path class="st0" d="M46.78,125.33c0-3.57,2.8-6.12,5.38-6.12c2.58,0,5.35,2.5,5.35,6.07c0,3.49-2.77,6.23-5.35,6.23
		C49.58,131.5,46.78,128.81,46.78,125.33z M55.2,125.36c0-3.18-0.82-5.76-3.05-5.76s-3.05,2.53-3.05,5.71
		c0,3.16,0.77,5.82,3.05,5.82S55.2,128.51,55.2,125.36z"/>
	<path class="st0" d="M58.5,130.71h0.19c1.21,0,1.48-0.3,1.48-1.54v-7.69c0-1.23-0.33-1.54-1.48-1.54H58.5v-0.33l3.65-0.22
		l-0.19,4.64h0.06c0.85-2.99,2.22-4.78,4.04-4.78c1.4,0,2.2,0.82,2.2,1.78c0,1.07-0.6,1.62-1.37,1.62c-0.69,0-1.24-0.44-1.24-1.13
		c0-0.6,0.33-0.88,0.58-1.1c0.14-0.11,0.22-0.19,0.22-0.33c0-0.22-0.27-0.27-0.6-0.27c-1.98,0-3.65,3.9-3.65,6.07v3.27
		c0,1.24,0.27,1.54,1.48,1.54h0.63v0.38H58.5V130.71z"/>
	<path class="st0" d="M70.3,127.94v-7.91h-1.87v-0.33c1.76-0.3,3.21-1.51,3.49-5.05h0.36v4.94h3.71v0.44h-3.71v8.04
		c0,1.73,0.63,2.58,1.87,2.58c1.13,0,2.03-1.24,2.14-3.65h0.38c0,2.8-1.23,4.45-3.21,4.45C71.51,131.45,70.3,130.32,70.3,127.94z"/>
	<path class="st0" d="M77.44,125.41c0-3.71,2.58-6.2,5.33-6.2c2.2,0,4.72,1.7,4.72,5.24c0,0.08-0.03,0.69-0.05,0.82h-7.74
		c0,3.02,1.21,5.35,3.57,5.35c2.11,0,3.18-1.07,4.09-2.39l0.3,0.22c-1.02,1.7-2.61,3.05-5,3.05
		C79.5,131.5,77.44,129.17,77.44,125.41z M83.8,124.83c1.1,0,1.4-0.36,1.4-1.24c0-2.2-0.77-3.98-2.53-3.98
		c-1.92,0-2.91,2.06-2.99,5.22H83.8z"/>
	<path class="st0" d="M88.86,125.36c0-3.4,2.17-6.04,4.83-6.04c1.65,0,2.94,1.15,3.79,2.83h0.08c-0.05-0.77-0.08-2.42-0.08-4.15
		v-3.73c0-1.26-0.3-1.56-1.51-1.56h-0.69v-0.38l4.15-0.41v17.13c0,1.23,0.25,1.59,1.46,1.59h0.22v0.38l-3.62,0.41l0.11-3.07H97.5
		c-0.91,1.67-2.06,3.02-3.93,3.02C91.3,131.37,88.86,129.09,88.86,125.36z M97.47,125.33c0-4.09-2.28-5.6-3.46-5.6
		c-2.25,0-2.85,2.55-2.85,5.55c0,3.05,0.74,5.65,2.83,5.65C95.42,130.93,97.47,128.95,97.47,125.33z"/>
	<path class="st0" d="M12.36,155.66h0.19c1.21,0,1.48-0.3,1.48-1.54v-7.66c0-1.24-0.27-1.56-1.48-1.56h-0.19v-0.33l3.65-0.22
		l-0.14,3.38h0.05c0.74-2.22,2.47-3.4,4.25-3.4c2.22,0,3.24,1.37,3.24,4.09v5.71c0,1.24,0.27,1.54,1.51,1.54h0.05v0.38h-5.3v-0.38
		h0.27c1.24,0,1.51-0.3,1.51-1.54v-6.4c0-1.92-0.82-2.53-1.92-2.53c-2,0-3.51,2-3.51,4.45v4.47c0,1.24,0.27,1.54,1.48,1.54h0.27
		v0.38h-5.44V155.66z"/>
	<path class="st0" d="M25.75,150.28c0-3.57,2.8-6.12,5.38-6.12c2.58,0,5.35,2.5,5.35,6.07c0,3.49-2.77,6.23-5.35,6.23
		C28.55,156.46,25.75,153.77,25.75,150.28z M34.18,150.31c0-3.18-0.82-5.76-3.05-5.76s-3.05,2.53-3.05,5.71
		c0,3.16,0.77,5.82,3.05,5.82S34.18,153.47,34.18,150.31z"/>
	<path class="st0" d="M38.96,152.89v-7.91h-1.87v-0.33c1.76-0.3,3.21-1.51,3.49-5.05h0.36v4.94h3.71v0.44h-3.71v8.04
		c0,1.73,0.63,2.58,1.87,2.58c1.13,0,2.03-1.24,2.14-3.65h0.38c0,2.8-1.23,4.45-3.21,4.45C40.16,156.4,38.96,155.28,38.96,152.89z"
		/>
	<path class="st0" d="M45.84,155.66h0.22c1.21,0,1.48-0.3,1.48-1.54v-7.63c0-1.26-0.27-1.56-1.48-1.56h-0.22v-0.36l3.65-0.22v9.77
		c0,1.24,0.27,1.54,1.48,1.54h0.22v0.38h-5.35V155.66z M46.75,139.96c0-0.82,0.69-1.51,1.51-1.51c0.82,0,1.51,0.69,1.51,1.51
		c0,0.82-0.69,1.51-1.51,1.51C47.44,141.47,46.75,140.78,46.75,139.96z"/>
	<path class="st0" d="M52.18,150.36c0-3.38,2.72-6.2,5.93-6.2c2.14,0,3.71,1.48,3.71,3.07c0,0.93-0.6,1.51-1.37,1.51
		c-0.74,0-1.26-0.63-1.26-1.29c0-0.58,0.36-1.1,0.99-1.26c0.33-0.08,0.58,0.06,0.58-0.16c0-0.49-0.96-1.43-2.69-1.43
		c-2.47,0-3.49,2.33-3.49,5.63c0,3.02,1.21,5.3,3.71,5.3c1.65,0,2.75-0.88,3.57-1.98l0.27,0.19c-0.93,1.56-2.64,2.72-4.75,2.72
		C54.63,156.46,52.18,154.1,52.18,150.36z"/>
	<path class="st0" d="M62.89,150.36c0-3.71,2.58-6.2,5.33-6.2c2.2,0,4.72,1.7,4.72,5.24c0,0.08-0.03,0.69-0.05,0.82h-7.74
		c0,3.02,1.21,5.35,3.57,5.35c2.11,0,3.18-1.07,4.09-2.39l0.3,0.22c-1.02,1.7-2.61,3.05-5,3.05
		C64.95,156.46,62.89,154.12,62.89,150.36z M69.26,149.79c1.1,0,1.4-0.36,1.4-1.24c0-2.2-0.77-3.98-2.53-3.98
		c-1.92,0-2.91,2.06-2.99,5.22H69.26z"/>
	<path class="st0" d="M74.25,153.71c0-2.33,2.09-3.57,7.25-4.78v-0.8c0-2.64-1.04-3.54-2.69-3.54c-1.48,0-2.75,0.63-2.75,1.13
		c0,0.08,0.03,0.11,0.14,0.11c0.55,0,1.15,0.52,1.15,1.21c0,0.71-0.55,1.26-1.24,1.26c-0.71,0-1.24-0.52-1.24-1.32
		c0-1.43,1.51-2.77,4.45-2.77c2.2,0,4.12,0.8,4.12,4.04v5.63c0,1.15,0.33,1.51,0.71,1.51c0.66,0,0.93-0.69,0.96-2.2h0.38
		c-0.05,2.61-0.96,3.1-2.09,3.1c-1.07,0-2.06-0.6-1.92-2.58h-0.05c-0.52,1.43-2.17,2.64-4.09,2.64
		C75.6,156.35,74.25,155.47,74.25,153.71z M81.5,151.35v-1.98c-4.2,0.85-4.97,2.31-4.97,3.87c0,1.24,0.66,2.14,1.92,2.14
		C79.8,155.39,81.5,154.4,81.5,151.35z"/>
	<path class="st0" d="M87.07,151.38v-12.19c0-1.26-0.27-1.56-1.48-1.56h-0.47v-0.38l3.87-0.41v5.96c0,2.11-0.08,4.31-0.08,4.31h0.05
		c1.04-1.81,2.11-2.83,3.9-2.83c2.39,0,4.72,2.58,4.72,5.98c0,3.79-2.53,6.07-4.8,6.07c-1.87,0-2.85-1.04-3.79-2.72h-0.05
		l-1.87,2.94h-0.36C86.99,154.98,87.07,153.05,87.07,151.38z M95.28,150.31c0-3.02-0.71-5.6-2.75-5.6c-1.87,0-3.57,2.28-3.57,5.57
		c0,3.07,1.54,5.6,3.51,5.6C94.1,155.88,95.28,154.34,95.28,150.31z"/>
	<path class="st0" d="M98.57,155.66h0.11c1.24,0,1.51-0.33,1.51-1.65v-14.74c0-1.32-0.27-1.65-1.51-1.65h-0.22v-0.38l3.68-0.41
		v17.18c0,1.32,0.27,1.65,1.48,1.65h0.22v0.38h-5.27V155.66z"/>
	<path class="st0" d="M104.78,150.36c0-3.71,2.58-6.2,5.33-6.2c2.2,0,4.72,1.7,4.72,5.24c0,0.08-0.03,0.69-0.06,0.82h-7.74
		c0,3.02,1.21,5.35,3.57,5.35c2.11,0,3.18-1.07,4.09-2.39l0.3,0.22c-1.02,1.7-2.61,3.05-5,3.05
		C106.83,156.46,104.78,154.12,104.78,150.36z M111.14,149.79c1.1,0,1.4-0.36,1.4-1.24c0-2.2-0.77-3.98-2.53-3.98
		c-1.92,0-2.91,2.06-2.99,5.22H111.14z"/>
	<path class="st0" d="M12.69,180.62h0.22c1.21,0,1.48-0.3,1.48-1.54v-9.14h-1.7v-0.41h1.7v-1.89c0-3.13,1.48-5.79,4.45-5.79
		c1.65,0,2.55,0.93,2.55,2.11c0,0.91-0.6,1.43-1.35,1.43s-1.21-0.47-1.21-1.18c0-0.47,0.22-0.8,0.44-1.02
		c0.16-0.16,0.3-0.3,0.3-0.47c0-0.27-0.38-0.55-0.91-0.55c-1.87,0-2.31,1.98-2.31,4.69v2.66h2.8v0.41h-2.8v9.14
		c0,1.24,0.27,1.54,1.48,1.54h0.52V181h-5.68V180.62z"/>
	<path class="st0" d="M19.77,178.67c0-2.33,2.09-3.57,7.25-4.78v-0.8c0-2.64-1.04-3.54-2.69-3.54c-1.48,0-2.75,0.63-2.75,1.13
		c0,0.08,0.03,0.11,0.14,0.11c0.55,0,1.15,0.52,1.15,1.21c0,0.71-0.55,1.26-1.24,1.26c-0.71,0-1.24-0.52-1.24-1.32
		c0-1.43,1.51-2.77,4.45-2.77c2.2,0,4.12,0.8,4.12,4.04v5.63c0,1.15,0.33,1.51,0.71,1.51c0.66,0,0.93-0.69,0.96-2.2h0.38
		c-0.05,2.61-0.96,3.1-2.09,3.1c-1.07,0-2.06-0.6-1.92-2.58h-0.06c-0.52,1.43-2.17,2.64-4.09,2.64
		C21.11,181.3,19.77,180.42,19.77,178.67z M27.02,176.31v-1.98c-4.2,0.85-4.97,2.31-4.97,3.87c0,1.24,0.66,2.14,1.92,2.14
		C25.31,180.34,27.02,179.35,27.02,176.31z"/>
	<path class="st0" d="M32.53,177.84v-7.91h-1.87v-0.33c1.76-0.3,3.21-1.51,3.49-5.05h0.36v4.94h3.71v0.44h-3.71v8.04
		c0,1.73,0.63,2.58,1.87,2.58c1.13,0,2.03-1.23,2.14-3.65h0.38c0,2.8-1.23,4.45-3.21,4.45C33.74,181.36,32.53,180.23,32.53,177.84z"
		/>
	<path class="st0" d="M45.62,180.62h0.19c1.21,0,1.48-0.3,1.48-1.54v-7.69c0-1.23-0.33-1.54-1.48-1.54h-0.19v-0.33l3.65-0.22
		l-0.19,4.64h0.06c0.85-2.99,2.22-4.78,4.04-4.78c1.4,0,2.2,0.82,2.2,1.78c0,1.07-0.6,1.62-1.37,1.62c-0.69,0-1.24-0.44-1.24-1.13
		c0-0.6,0.33-0.88,0.58-1.1c0.14-0.11,0.22-0.19,0.22-0.33c0-0.22-0.27-0.27-0.6-0.27c-1.98,0-3.65,3.9-3.65,6.07v3.27
		c0,1.24,0.27,1.54,1.48,1.54h0.63V181h-5.79V180.62z"/>
	<path class="st0" d="M55.64,175.32c0-3.71,2.58-6.2,5.33-6.2c2.2,0,4.72,1.7,4.72,5.24c0,0.08-0.03,0.69-0.05,0.82h-7.74
		c0,3.02,1.21,5.35,3.57,5.35c2.11,0,3.18-1.07,4.09-2.39l0.3,0.22c-1.02,1.7-2.61,3.05-5,3.05
		C57.7,181.41,55.64,179.08,55.64,175.32z M62.01,174.74c1.1,0,1.4-0.36,1.4-1.24c0-2.2-0.77-3.98-2.53-3.98
		c-1.92,0-2.91,2.06-2.99,5.22H62.01z"/>
	<path class="st0" d="M67.06,175.26c0-3.4,2.17-6.04,4.83-6.04c1.65,0,2.94,1.15,3.79,2.83h0.08c-0.06-0.77-0.08-2.42-0.08-4.15
		v-3.73c0-1.26-0.3-1.56-1.51-1.56h-0.69v-0.38l4.15-0.41v17.13c0,1.23,0.25,1.59,1.46,1.59h0.22v0.38l-3.62,0.41l0.11-3.07h-0.08
		c-0.91,1.67-2.06,3.02-3.93,3.02C69.51,181.27,67.06,179,67.06,175.26z M75.68,175.24c0-4.09-2.28-5.6-3.46-5.6
		c-2.25,0-2.85,2.55-2.85,5.55c0,3.05,0.74,5.65,2.83,5.65C73.62,180.84,75.68,178.86,75.68,175.24z"/>
	<path class="st0" d="M81.12,177.38v-5.93c0-1.21-0.27-1.56-1.48-1.56h-0.25v-0.36l3.68-0.22v8.56c0,1.95,0.74,2.72,2.03,2.72
		c1.7,0,3.4-2.42,3.4-4.72v-4.39c0-1.26-0.28-1.59-1.48-1.59h-0.55v-0.36l4.01-0.22v9.61c0,1.24,0.3,1.59,1.51,1.59h0.19v0.36
		l-3.65,0.41l0.14-3.4h-0.05c-0.71,1.87-2.31,3.4-4.17,3.4C82.27,181.27,81.12,180.01,81.12,177.38z"/>
	<path class="st0" d="M93.03,175.32c0-3.38,2.72-6.2,5.93-6.2c2.14,0,3.71,1.48,3.71,3.07c0,0.93-0.6,1.51-1.37,1.51
		c-0.74,0-1.26-0.63-1.26-1.29c0-0.58,0.36-1.1,0.99-1.26c0.33-0.08,0.58,0.06,0.58-0.16c0-0.49-0.96-1.43-2.69-1.43
		c-2.47,0-3.49,2.33-3.49,5.63c0,3.02,1.21,5.3,3.71,5.3c1.65,0,2.75-0.88,3.57-1.98l0.27,0.19c-0.93,1.56-2.63,2.72-4.75,2.72
		C95.47,181.41,93.03,179.05,93.03,175.32z"/>
	<path class="st0" d="M105.19,177.84v-7.91h-1.87v-0.33c1.76-0.3,3.21-1.51,3.49-5.05h0.36v4.94h3.71v0.44h-3.71v8.04
		c0,1.73,0.63,2.58,1.87,2.58c1.12,0,2.03-1.23,2.14-3.65h0.38c0,2.8-1.24,4.45-3.21,4.45
		C106.39,181.36,105.19,180.23,105.19,177.84z"/>
	<path class="st0" d="M112.08,180.62h0.22c1.21,0,1.48-0.3,1.48-1.54v-7.63c0-1.26-0.27-1.56-1.48-1.56h-0.22v-0.36l3.65-0.22v9.77
		c0,1.24,0.27,1.54,1.48,1.54h0.22V181h-5.35V180.62z M112.98,164.91c0-0.82,0.69-1.51,1.51-1.51c0.82,0,1.51,0.69,1.51,1.51
		c0,0.82-0.69,1.51-1.51,1.51C113.67,166.42,112.98,165.74,112.98,164.91z"/>
	<path class="st0" d="M118.42,175.24c0-3.57,2.8-6.12,5.38-6.12s5.35,2.5,5.35,6.07c0,3.49-2.77,6.23-5.35,6.23
		S118.42,178.72,118.42,175.24z M126.84,175.26c0-3.18-0.82-5.76-3.05-5.76s-3.05,2.53-3.05,5.71c0,3.16,0.77,5.82,3.05,5.82
		S126.84,178.42,126.84,175.26z"/>
	<path class="st0" d="M130.14,180.62h0.19c1.21,0,1.48-0.3,1.48-1.54v-7.66c0-1.24-0.27-1.56-1.48-1.56h-0.19v-0.33l3.65-0.22
		l-0.14,3.38h0.06c0.74-2.22,2.47-3.4,4.25-3.4c2.22,0,3.24,1.37,3.24,4.09v5.71c0,1.24,0.28,1.54,1.51,1.54h0.05V181h-5.3v-0.38
		h0.27c1.24,0,1.51-0.3,1.51-1.54v-6.4c0-1.92-0.82-2.53-1.92-2.53c-2,0-3.51,2-3.51,4.45v4.47c0,1.24,0.27,1.54,1.48,1.54h0.27V181
		h-5.44V180.62z"/>
	<path class="st0" d="M144.22,179.63c0-0.88,0.69-1.56,1.57-1.56c0.88,0,1.56,0.69,1.56,1.56s-0.69,1.56-1.56,1.56
		C144.9,181.19,144.22,180.51,144.22,179.63z"/>
	<path class="st0" d="M146.37,165.39c0.27-0.35,0.98-1.01,1.41-1.62c-0.72-0.24-1.67-0.35-2.08-0.48c-0.43-0.13-0.62-0.34-0.58-0.48
		c0.05-0.16,0.32-0.22,0.75-0.06c0.42,0.16,1.25,0.61,1.97,0.83c0-0.75-0.19-1.68-0.19-2.13c0-0.43,0.13-0.69,0.29-0.69
		c0.16,0,0.29,0.26,0.29,0.69c0,0.45-0.19,1.38-0.19,2.13c0.72-0.22,1.55-0.69,1.97-0.83c0.4-0.14,0.72-0.11,0.75,0.06
		c0.03,0.14-0.14,0.35-0.58,0.48c-0.42,0.13-1.36,0.24-2.08,0.48c0.45,0.61,1.14,1.26,1.41,1.62c0.26,0.32,0.3,0.64,0.18,0.74
		c-0.11,0.08-0.38-0.03-0.64-0.4c-0.26-0.37-0.66-1.22-1.1-1.82c-0.45,0.61-0.85,1.46-1.1,1.82c-0.24,0.34-0.51,0.48-0.62,0.4
		C146.07,166.03,146.11,165.71,146.37,165.39z"/>
</g>
</svg>
