<?xml version="1.0" encoding="utf-8"?>
<!-- Generator: Adobe Illustrator 25.4.1, SVG Export Plug-In . SVG Version: 6.00 Build 0)  -->
<svg version="1.1" id="Layer_1" xmlns="http://www.w3.org/2000/svg" xmlns:xlink="http://www.w3.org/1999/xlink" x="0px" y="0px"
	 viewBox="0 0 160 600" style="enable-background:new 0 0 160 600;" xml:space="preserve">
<style type="text/css">
	.st0{fill:#002554;}
	.st1{fill:#FFFFFF;}
</style>
<rect x="13.4" y="230" class="st0" width="125.65" height="22"/>
<g>
	<path class="st1" d="M24.7,238.77v1.7h3.31v1.62H24.7v3.09h-2.09v-8.03h6.24v1.62H24.7z"/>
	<path class="st1" d="M32.26,245.18h-2.09v-8.03h2.09V245.18z"/>
	<path class="st1" d="M41.4,245.18h-2.32l-2.49-4.34l-0.61-1.22h-0.01l0.05,1.51v4.05h-1.85v-8.03h2.32l2.49,4.34l0.61,1.22h0.01
		l-0.05-1.51v-4.05h1.85V245.18z"/>
	<path class="st1" d="M50.59,241.17c0,2.57-1.37,4.01-3.89,4.01h-3.41v-8.03h3.41C49.21,237.15,50.59,238.6,50.59,241.17z
		 M48.45,241.17c0-1.61-0.6-2.43-1.96-2.43h-1.11v4.86h1.11C47.85,243.6,48.45,242.77,48.45,241.17z"/>
	<path class="st1" d="M60.07,243.37H57.3l-0.56,1.81h-2.1l2.82-8.03h2.51l2.81,8.03h-2.15L60.07,243.37z M59.63,241.94l-0.58-1.92
		l-0.35-1.27h-0.02l-0.33,1.25l-0.6,1.93H59.63z"/>
	<path class="st1" d="M73.94,239.81c0,1.64-1.11,2.58-3.1,2.58h-1.59v2.79h-2.09v-8.03h3.69C72.84,237.15,73.94,238.09,73.94,239.81
		z M71.84,239.79c0-0.71-0.4-1.06-1.33-1.06h-1.26v2.13h1.26C71.44,240.86,71.84,240.51,71.84,239.79z"/>
	<path class="st1" d="M78.71,242.25h-1.25v2.93H75.4v-8.03h3.83c1.93,0,3.03,0.9,3.03,2.55c0,1.17-0.55,1.96-1.56,2.32l2.03,3.15
		h-2.31L78.71,242.25z M77.45,240.76h1.42c0.89,0,1.28-0.3,1.28-1.02c0-0.71-0.39-1.01-1.28-1.01h-1.42V240.76z"/>
	<path class="st1" d="M91.34,241.17c0,2.59-1.48,4.13-3.93,4.13s-3.94-1.54-3.94-4.13s1.5-4.13,3.94-4.13S91.34,238.57,91.34,241.17
		z M85.61,241.17c0,1.64,0.63,2.49,1.8,2.49c1.16,0,1.79-0.85,1.79-2.49s-0.63-2.49-1.79-2.49
		C86.25,238.67,85.61,239.52,85.61,241.17z"/>
	<path class="st1" d="M97.18,245.18h-2.46l-2.86-8.03h2.2l1.47,4.85l0.44,1.58l0.43-1.56l1.5-4.88h2.13L97.18,245.18z"/>
	<path class="st1" d="M103.19,245.18h-2.09v-8.03h2.09V245.18z"/>
	<path class="st1" d="M112.39,241.17c0,2.57-1.37,4.01-3.89,4.01h-3.41v-8.03h3.41C111.01,237.15,112.39,238.6,112.39,241.17z
		 M110.25,241.17c0-1.61-0.6-2.43-1.96-2.43h-1.11v4.86h1.11C109.65,243.6,110.25,242.77,110.25,241.17z"/>
	<path class="st1" d="M120.35,243.56v1.62h-6.41v-8.03h6.25v1.62h-4.16v1.63h3.31v1.52h-3.31v1.64H120.35z"/>
	<path class="st1" d="M125.04,242.25h-1.25v2.93h-2.06v-8.03h3.83c1.93,0,3.03,0.9,3.03,2.55c0,1.17-0.55,1.96-1.56,2.32l2.03,3.15
		h-2.31L125.04,242.25z M123.79,240.76h1.42c0.89,0,1.28-0.3,1.28-1.02c0-0.71-0.39-1.01-1.28-1.01h-1.42V240.76z"/>
</g>
</svg>
