<?xml version="1.0" encoding="utf-8"?>
<!-- Generator: Adobe Illustrator 25.4.1, SVG Export Plug-In . SVG Version: 6.00 Build 0)  -->
<svg version="1.1" id="Layer_1" xmlns="http://www.w3.org/2000/svg" xmlns:xlink="http://www.w3.org/1999/xlink" x="0px" y="0px"
	 viewBox="0 0 160 600" style="enable-background:new 0 0 160 600;" xml:space="preserve">
<style type="text/css">
	.st0{fill:#002554;}
</style>
<g>
	<path class="st0" d="M14.44,197.97l1.4-0.46l0.26,0.77l-1.42,0.46l0.89,1.22l-0.66,0.48l-0.89-1.23l-0.87,1.2l-0.64-0.48l0.89-1.19
		l-1.43-0.49l0.26-0.77l1.42,0.49v-1.48h0.81V197.97z"/>
	<path class="st0" d="M20.06,197.6l-1.08,6.14h-1.26l1.07-6.14h-2.15l0.19-1.1h5.54l-0.19,1.1H20.06z"/>
	<path class="st0" d="M25.16,203.73l0.47-2.7c0.01-0.08,0.03-0.16,0.04-0.25c0.01-0.08,0.02-0.16,0.02-0.25
		c0-0.22-0.06-0.41-0.17-0.58c-0.12-0.17-0.33-0.25-0.63-0.25c-0.2,0-0.37,0.04-0.53,0.11c-0.15,0.08-0.29,0.18-0.4,0.3
		c-0.11,0.13-0.2,0.27-0.28,0.43c-0.07,0.16-0.12,0.33-0.15,0.5l-0.47,2.67h-1.2l1.36-7.73h1.21l-0.62,3.52h0.02
		c0.14-0.22,0.33-0.41,0.58-0.58c0.25-0.17,0.56-0.25,0.93-0.25c0.27,0,0.51,0.04,0.71,0.12c0.2,0.08,0.37,0.19,0.5,0.33
		c0.13,0.14,0.23,0.3,0.3,0.49c0.06,0.19,0.1,0.38,0.1,0.59c0,0.17-0.01,0.32-0.04,0.46l-0.54,3.06H25.16z"/>
	<path class="st0" d="M29.25,201.65c-0.01,0.03-0.01,0.07-0.01,0.11c0,0.16,0.03,0.31,0.1,0.45c0.06,0.14,0.16,0.25,0.27,0.35
		c0.12,0.1,0.25,0.18,0.41,0.24s0.33,0.09,0.51,0.09c0.31,0,0.58-0.06,0.8-0.17c0.22-0.12,0.42-0.27,0.6-0.47l0.69,0.64
		c-0.61,0.65-1.35,0.98-2.22,0.98c-0.33,0-0.64-0.05-0.92-0.15c-0.28-0.1-0.52-0.24-0.73-0.42c-0.2-0.18-0.36-0.41-0.48-0.68
		c-0.12-0.27-0.17-0.58-0.17-0.93c0-0.42,0.07-0.82,0.21-1.18c0.14-0.36,0.34-0.68,0.6-0.96c0.26-0.27,0.56-0.49,0.91-0.64
		s0.73-0.23,1.15-0.23c0.29,0,0.56,0.04,0.81,0.12c0.25,0.08,0.47,0.2,0.65,0.37c0.18,0.16,0.33,0.37,0.43,0.61
		c0.1,0.25,0.15,0.53,0.15,0.86c0,0.11-0.01,0.26-0.03,0.46c-0.02,0.19-0.05,0.38-0.09,0.55H29.25z M31.91,200.8
		c0.01-0.05,0.01-0.09,0.02-0.13c0-0.04,0.01-0.08,0.01-0.12c0-0.27-0.09-0.49-0.28-0.67c-0.19-0.18-0.45-0.28-0.79-0.28
		c-0.21,0-0.4,0.04-0.57,0.11c-0.17,0.08-0.32,0.17-0.44,0.29c-0.13,0.12-0.23,0.25-0.31,0.39c-0.08,0.14-0.14,0.28-0.16,0.41H31.91
		z"/>
	<path class="st0" d="M37.52,206.18h-1.21l1.3-7.35h1.14l-0.12,0.79h0.03c0.2-0.29,0.45-0.51,0.76-0.66
		c0.31-0.16,0.64-0.24,1.01-0.24c0.31,0,0.6,0.05,0.85,0.15c0.26,0.1,0.47,0.25,0.65,0.43c0.18,0.19,0.32,0.41,0.42,0.67
		c0.1,0.26,0.15,0.55,0.15,0.86c0,0.42-0.07,0.82-0.2,1.19c-0.13,0.37-0.32,0.69-0.56,0.97c-0.24,0.28-0.52,0.49-0.85,0.65
		c-0.33,0.16-0.69,0.24-1.09,0.24c-0.45,0-0.81-0.08-1.09-0.25c-0.28-0.17-0.49-0.39-0.63-0.68h-0.02L37.52,206.18z M41.27,200.97
		c0-0.36-0.1-0.66-0.31-0.91c-0.21-0.24-0.51-0.37-0.89-0.37c-0.24,0-0.46,0.05-0.67,0.15c-0.21,0.1-0.39,0.24-0.55,0.42
		c-0.15,0.18-0.27,0.38-0.36,0.62c-0.09,0.23-0.13,0.48-0.13,0.74c0,0.37,0.11,0.68,0.34,0.92c0.22,0.24,0.53,0.36,0.91,0.36
		c0.25,0,0.48-0.05,0.69-0.15c0.21-0.1,0.38-0.24,0.53-0.41c0.15-0.17,0.26-0.38,0.34-0.61C41.23,201.48,41.27,201.23,41.27,200.97z
		"/>
	<path class="st0" d="M45.33,199.64c0.17-0.29,0.37-0.52,0.6-0.69c0.23-0.17,0.51-0.26,0.84-0.26c0.05,0,0.1,0,0.15,0.01
		c0.05,0,0.1,0.01,0.14,0.03l-0.16,1.11c-0.07-0.02-0.14-0.03-0.2-0.04c-0.06-0.01-0.11-0.01-0.17-0.01c-0.28,0-0.51,0.05-0.69,0.15
		c-0.18,0.1-0.32,0.22-0.43,0.37c-0.11,0.14-0.19,0.29-0.24,0.44c-0.05,0.15-0.08,0.27-0.09,0.36l-0.46,2.63h-1.2l0.69-3.86
		c0.03-0.13,0.06-0.3,0.09-0.5c0.03-0.2,0.05-0.39,0.07-0.55h1.12c0,0.03,0,0.09-0.01,0.15c-0.01,0.07-0.02,0.14-0.03,0.22
		c-0.01,0.08-0.02,0.16-0.03,0.24c-0.01,0.08-0.02,0.14-0.03,0.2H45.33z"/>
	<path class="st0" d="M47.14,203.73l0.86-4.91h1.21l-0.87,4.91H47.14z M49.6,197.14c0,0.2-0.07,0.37-0.21,0.52
		c-0.14,0.15-0.31,0.22-0.52,0.22c-0.2,0-0.37-0.06-0.51-0.18c-0.14-0.12-0.21-0.3-0.21-0.52c0-0.22,0.07-0.4,0.23-0.54
		c0.15-0.14,0.32-0.21,0.52-0.21c0.2,0,0.36,0.06,0.5,0.19C49.54,196.74,49.6,196.92,49.6,197.14z"/>
	<path class="st0" d="M50.84,199.37c0.03-0.2,0.05-0.39,0.07-0.55h1.12c-0.01,0.07-0.02,0.19-0.04,0.36
		c-0.02,0.16-0.04,0.3-0.05,0.41h0.02c0.15-0.23,0.35-0.44,0.59-0.62c0.24-0.18,0.55-0.28,0.93-0.28c0.41,0,0.74,0.09,0.99,0.27
		c0.25,0.18,0.41,0.41,0.49,0.69c0.21-0.3,0.46-0.54,0.75-0.71c0.29-0.17,0.62-0.26,0.99-0.26c0.29,0,0.53,0.04,0.74,0.12
		c0.2,0.08,0.37,0.19,0.51,0.33c0.14,0.14,0.24,0.3,0.3,0.49c0.06,0.19,0.1,0.38,0.1,0.59c0,0.17-0.01,0.32-0.04,0.46l-0.54,3.06
		h-1.2l0.47-2.7c0.01-0.08,0.02-0.16,0.04-0.25c0.01-0.08,0.02-0.16,0.02-0.25c0-0.11-0.01-0.21-0.04-0.32
		c-0.03-0.1-0.07-0.19-0.13-0.27c-0.06-0.08-0.15-0.14-0.25-0.18c-0.11-0.05-0.24-0.07-0.39-0.07c-0.19,0-0.36,0.04-0.51,0.12
		c-0.15,0.08-0.28,0.19-0.39,0.32c-0.11,0.13-0.2,0.27-0.27,0.43s-0.12,0.32-0.14,0.48l-0.47,2.68h-1.21l0.52-2.97
		c0.02-0.1,0.03-0.19,0.03-0.28c0-0.23-0.06-0.42-0.18-0.57c-0.12-0.15-0.31-0.22-0.57-0.22c-0.18,0-0.35,0.04-0.5,0.12
		c-0.15,0.08-0.28,0.18-0.38,0.3c-0.11,0.12-0.2,0.26-0.27,0.42c-0.07,0.16-0.12,0.32-0.15,0.49l-0.48,2.7h-1.2l0.67-3.86
		C50.78,199.75,50.81,199.58,50.84,199.37z"/>
	<path class="st0" d="M62.86,200.62c0.01-0.08,0.02-0.14,0.03-0.19c0-0.04,0-0.09,0-0.13c0-0.24-0.08-0.41-0.23-0.51
		c-0.15-0.1-0.38-0.15-0.68-0.15c-0.24,0-0.49,0.05-0.74,0.14s-0.48,0.21-0.68,0.35l-0.46-0.81c0.28-0.2,0.6-0.35,0.96-0.47
		c0.36-0.11,0.72-0.17,1.1-0.17c0.23,0,0.46,0.03,0.69,0.08c0.23,0.05,0.43,0.13,0.61,0.25c0.18,0.12,0.33,0.27,0.43,0.45
		c0.11,0.19,0.16,0.42,0.16,0.7c0,0.06,0,0.14-0.01,0.22c-0.01,0.09-0.02,0.17-0.03,0.24l-0.36,1.99c-0.03,0.19-0.06,0.39-0.09,0.59
		c-0.02,0.2-0.04,0.37-0.04,0.51h-1.1c0-0.18,0.02-0.38,0.06-0.58h-0.02c-0.38,0.46-0.91,0.68-1.6,0.68c-0.17,0-0.35-0.02-0.53-0.06
		c-0.18-0.04-0.35-0.11-0.5-0.21c-0.15-0.1-0.27-0.23-0.37-0.4c-0.1-0.17-0.14-0.38-0.14-0.63c0-0.4,0.11-0.73,0.32-0.98
		c0.21-0.25,0.49-0.44,0.83-0.58c0.34-0.14,0.72-0.23,1.14-0.28C62.04,200.65,62.45,200.62,62.86,200.62z M62.6,201.48
		c-0.23,0-0.47,0.01-0.72,0.03c-0.25,0.02-0.48,0.06-0.69,0.12c-0.21,0.06-0.38,0.15-0.51,0.26c-0.13,0.11-0.2,0.26-0.2,0.45
		c0,0.12,0.02,0.21,0.07,0.29c0.04,0.08,0.1,0.14,0.18,0.19s0.16,0.08,0.26,0.1c0.1,0.02,0.19,0.03,0.3,0.03
		c0.18,0,0.36-0.03,0.52-0.09c0.16-0.06,0.3-0.14,0.42-0.25c0.12-0.11,0.22-0.23,0.3-0.37c0.08-0.14,0.13-0.29,0.17-0.46l0.06-0.31
		H62.6z"/>
	<path class="st0" d="M67,199.64c0.17-0.29,0.37-0.52,0.6-0.69c0.23-0.17,0.51-0.26,0.84-0.26c0.05,0,0.1,0,0.15,0.01
		c0.05,0,0.1,0.01,0.14,0.03l-0.16,1.11c-0.08-0.02-0.14-0.03-0.2-0.04c-0.06-0.01-0.11-0.01-0.17-0.01c-0.28,0-0.51,0.05-0.69,0.15
		c-0.18,0.1-0.32,0.22-0.43,0.37c-0.11,0.14-0.19,0.29-0.23,0.44c-0.05,0.15-0.08,0.27-0.09,0.36l-0.46,2.63h-1.2l0.69-3.86
		c0.03-0.13,0.06-0.3,0.09-0.5c0.03-0.2,0.05-0.39,0.07-0.55h1.13c0,0.03,0,0.09-0.01,0.15c-0.01,0.07-0.02,0.14-0.03,0.22
		c-0.01,0.08-0.02,0.16-0.03,0.24c-0.01,0.08-0.02,0.14-0.03,0.2H67z"/>
	<path class="st0" d="M70.67,204.79c-0.12,0.22-0.25,0.41-0.37,0.59c-0.12,0.17-0.26,0.32-0.4,0.44c-0.15,0.12-0.31,0.21-0.49,0.27
		s-0.38,0.09-0.62,0.09c-0.1,0-0.21-0.01-0.31-0.02c-0.11-0.01-0.21-0.03-0.31-0.06l0.15-1.04c0.08,0.03,0.15,0.05,0.23,0.06
		c0.08,0.01,0.15,0.02,0.22,0.02c0.22,0,0.4-0.06,0.53-0.19c0.13-0.13,0.26-0.32,0.41-0.58l0.37-0.63l-1.1-4.92h1.29l0.63,3.6h0.02
		l1.96-3.6h1.27L70.67,204.79z"/>
	<path class="st0" d="M79.38,203.86c-0.34,0-0.66-0.05-0.95-0.15c-0.29-0.1-0.54-0.25-0.75-0.44c-0.21-0.19-0.38-0.42-0.5-0.67
		c-0.12-0.26-0.18-0.55-0.18-0.87c0-0.4,0.07-0.79,0.21-1.15c0.14-0.36,0.34-0.69,0.6-0.97c0.26-0.28,0.57-0.5,0.94-0.67
		s0.77-0.25,1.22-0.25c0.35,0,0.67,0.05,0.96,0.15c0.29,0.1,0.54,0.25,0.75,0.43c0.21,0.19,0.38,0.41,0.5,0.67
		c0.12,0.26,0.18,0.55,0.18,0.86c0,0.41-0.07,0.8-0.21,1.17c-0.14,0.37-0.34,0.69-0.6,0.97c-0.26,0.28-0.57,0.5-0.94,0.66
		C80.24,203.78,79.83,203.86,79.38,203.86z M81.15,200.94c0-0.37-0.11-0.67-0.34-0.91c-0.23-0.24-0.53-0.36-0.92-0.36
		c-0.26,0-0.49,0.05-0.7,0.16s-0.39,0.25-0.53,0.43c-0.15,0.18-0.26,0.38-0.34,0.62c-0.08,0.23-0.12,0.48-0.12,0.74
		c0,0.37,0.11,0.67,0.33,0.91c0.22,0.24,0.52,0.36,0.92,0.36c0.26,0,0.49-0.05,0.71-0.15c0.21-0.1,0.39-0.24,0.54-0.42
		c0.15-0.18,0.26-0.38,0.34-0.62C81.11,201.45,81.15,201.2,81.15,200.94z"/>
	<path class="st0" d="M85.24,199.61c0.2-0.29,0.45-0.51,0.76-0.67c0.31-0.16,0.64-0.25,1.01-0.25c0.31,0,0.6,0.05,0.85,0.15
		c0.26,0.1,0.47,0.25,0.65,0.43c0.18,0.19,0.32,0.41,0.42,0.67c0.1,0.26,0.15,0.55,0.15,0.86c0,0.42-0.07,0.82-0.2,1.19
		s-0.32,0.69-0.56,0.97s-0.52,0.49-0.85,0.65c-0.33,0.16-0.69,0.24-1.09,0.24c-0.37,0-0.71-0.08-1.03-0.25
		c-0.32-0.17-0.56-0.4-0.73-0.71h-0.02l-0.14,0.84h-1.14l1.36-7.73h1.21l-0.67,3.61H85.24z M87.86,200.95c0-0.36-0.1-0.66-0.31-0.91
		s-0.51-0.37-0.9-0.37c-0.24,0-0.46,0.05-0.67,0.15c-0.21,0.1-0.39,0.24-0.55,0.42c-0.15,0.18-0.28,0.38-0.36,0.62
		c-0.09,0.23-0.13,0.48-0.13,0.74c0,0.37,0.11,0.68,0.34,0.92c0.23,0.24,0.53,0.36,0.91,0.36c0.25,0,0.48-0.05,0.69-0.15
		c0.21-0.1,0.38-0.24,0.53-0.41c0.15-0.17,0.26-0.38,0.34-0.61C87.82,201.46,87.86,201.21,87.86,200.95z"/>
	<path class="st0" d="M91.2,204.06c-0.05,0.29-0.12,0.56-0.21,0.82c-0.09,0.26-0.2,0.49-0.36,0.68c-0.15,0.19-0.35,0.35-0.59,0.46
		c-0.24,0.11-0.54,0.17-0.91,0.17c-0.1,0-0.2-0.01-0.3-0.02c-0.1-0.01-0.18-0.03-0.24-0.04l0.24-1.02c0.05,0.01,0.11,0.02,0.17,0.03
		c0.06,0.01,0.11,0.01,0.16,0.01c0.14,0,0.26-0.03,0.36-0.08c0.1-0.05,0.17-0.13,0.24-0.22c0.06-0.1,0.11-0.21,0.14-0.33
		c0.03-0.13,0.06-0.26,0.09-0.4l0.93-5.28h1.21L91.2,204.06z M92.52,197.14c0,0.2-0.07,0.37-0.21,0.52
		c-0.14,0.15-0.31,0.22-0.52,0.22c-0.2,0-0.37-0.06-0.51-0.18c-0.14-0.12-0.21-0.3-0.21-0.52c0-0.22,0.08-0.4,0.23-0.54
		c0.15-0.14,0.32-0.21,0.52-0.21c0.2,0,0.36,0.06,0.5,0.19C92.46,196.74,92.52,196.92,92.52,197.14z"/>
	<path class="st0" d="M94.21,201.65c-0.01,0.03-0.01,0.07-0.01,0.11c0,0.16,0.03,0.31,0.1,0.45c0.06,0.14,0.15,0.25,0.27,0.35
		c0.12,0.1,0.25,0.18,0.41,0.24c0.16,0.06,0.33,0.09,0.51,0.09c0.31,0,0.58-0.06,0.8-0.17c0.22-0.12,0.42-0.27,0.6-0.47l0.68,0.64
		c-0.61,0.65-1.35,0.98-2.22,0.98c-0.33,0-0.64-0.05-0.92-0.15c-0.28-0.1-0.52-0.24-0.73-0.42c-0.2-0.18-0.36-0.41-0.48-0.68
		c-0.12-0.27-0.17-0.58-0.17-0.93c0-0.42,0.07-0.82,0.21-1.18c0.14-0.36,0.34-0.68,0.6-0.96c0.26-0.27,0.56-0.49,0.91-0.64
		c0.35-0.15,0.73-0.23,1.15-0.23c0.29,0,0.56,0.04,0.81,0.12c0.25,0.08,0.46,0.2,0.65,0.37c0.18,0.16,0.33,0.37,0.43,0.61
		c0.1,0.25,0.15,0.53,0.15,0.86c0,0.11-0.01,0.26-0.03,0.46c-0.02,0.19-0.05,0.38-0.09,0.55H94.21z M96.87,200.8
		c0.01-0.05,0.01-0.09,0.02-0.13c0-0.04,0.01-0.08,0.01-0.12c0-0.27-0.09-0.49-0.28-0.67c-0.19-0.18-0.45-0.28-0.79-0.28
		c-0.21,0-0.4,0.04-0.57,0.11c-0.17,0.08-0.32,0.17-0.44,0.29c-0.13,0.12-0.23,0.25-0.31,0.39c-0.08,0.14-0.14,0.28-0.16,0.41H96.87
		z"/>
	<path class="st0" d="M102.97,200.21c-0.09-0.15-0.23-0.28-0.41-0.38c-0.18-0.11-0.38-0.16-0.6-0.16c-0.25,0-0.49,0.05-0.7,0.15
		c-0.21,0.1-0.4,0.24-0.55,0.42c-0.15,0.18-0.27,0.38-0.36,0.62c-0.09,0.23-0.13,0.48-0.13,0.73c0,0.17,0.02,0.33,0.07,0.49
		c0.05,0.15,0.12,0.29,0.22,0.41c0.1,0.12,0.23,0.22,0.39,0.29c0.16,0.07,0.34,0.11,0.56,0.11c0.31,0,0.55-0.05,0.74-0.16
		c0.19-0.11,0.36-0.24,0.52-0.39l0.69,0.69c-0.26,0.26-0.55,0.46-0.88,0.61c-0.33,0.15-0.71,0.23-1.14,0.23
		c-0.35,0-0.68-0.05-0.97-0.15c-0.29-0.1-0.54-0.25-0.75-0.43c-0.21-0.19-0.37-0.41-0.48-0.67c-0.11-0.26-0.17-0.55-0.17-0.87
		c0-0.4,0.07-0.78,0.21-1.15s0.34-0.69,0.6-0.98c0.26-0.28,0.57-0.51,0.95-0.67c0.37-0.17,0.78-0.25,1.23-0.25
		c0.37,0,0.72,0.07,1.05,0.2c0.33,0.13,0.58,0.34,0.76,0.63L102.97,200.21z"/>
	<path class="st0" d="M104.18,199.8l0.17-0.98h0.85l0.25-1.43h1.19l-0.25,1.43h1.1l-0.17,0.98h-1.08l-0.43,2.3
		c-0.02,0.1-0.03,0.2-0.03,0.28c0,0.18,0.05,0.3,0.16,0.37c0.11,0.07,0.25,0.1,0.42,0.1c0.08,0,0.16-0.01,0.24-0.02
		c0.08-0.01,0.15-0.03,0.22-0.04l-0.07,0.91c-0.1,0.04-0.22,0.07-0.36,0.1c-0.14,0.02-0.27,0.04-0.38,0.04
		c-0.52,0-0.89-0.1-1.1-0.31c-0.22-0.21-0.33-0.48-0.33-0.82c0-0.1,0.01-0.2,0.02-0.31c0.01-0.11,0.03-0.22,0.05-0.31l0.42-2.27
		H104.18z"/>
	<path class="st0" d="M107.88,203.73l0.86-4.91h1.21l-0.87,4.91H107.88z M110.35,197.14c0,0.2-0.07,0.37-0.21,0.52
		c-0.14,0.15-0.31,0.22-0.52,0.22c-0.2,0-0.37-0.06-0.51-0.18c-0.14-0.12-0.21-0.3-0.21-0.52c0-0.22,0.08-0.4,0.23-0.54
		c0.15-0.14,0.32-0.21,0.52-0.21c0.2,0,0.36,0.06,0.5,0.19C110.28,196.74,110.35,196.92,110.35,197.14z"/>
	<path class="st0" d="M113.15,203.73h-1.29l-0.96-4.91h1.26l0.57,3.6h0.02l2.05-3.6h1.27L113.15,203.73z"/>
	<path class="st0" d="M117.37,201.65c-0.01,0.03-0.01,0.07-0.01,0.11c0,0.16,0.03,0.31,0.1,0.45c0.06,0.14,0.15,0.25,0.27,0.35
		c0.12,0.1,0.25,0.18,0.41,0.24c0.16,0.06,0.33,0.09,0.51,0.09c0.31,0,0.58-0.06,0.8-0.17c0.22-0.12,0.42-0.27,0.6-0.47l0.69,0.64
		c-0.61,0.65-1.35,0.98-2.22,0.98c-0.33,0-0.64-0.05-0.92-0.15c-0.28-0.1-0.52-0.24-0.73-0.42c-0.2-0.18-0.36-0.41-0.48-0.68
		c-0.12-0.27-0.17-0.58-0.17-0.93c0-0.42,0.07-0.82,0.21-1.18c0.14-0.36,0.34-0.68,0.6-0.96c0.26-0.27,0.56-0.49,0.91-0.64
		c0.35-0.15,0.73-0.23,1.15-0.23c0.29,0,0.56,0.04,0.81,0.12c0.25,0.08,0.46,0.2,0.65,0.37c0.18,0.16,0.33,0.37,0.43,0.61
		c0.1,0.25,0.15,0.53,0.15,0.86c0,0.11-0.01,0.26-0.03,0.46c-0.02,0.19-0.05,0.38-0.09,0.55H117.37z M120.03,200.8
		c0.01-0.05,0.01-0.09,0.02-0.13c0-0.04,0.01-0.08,0.01-0.12c0-0.27-0.09-0.49-0.28-0.67c-0.19-0.18-0.45-0.28-0.79-0.28
		c-0.21,0-0.4,0.04-0.57,0.11c-0.17,0.08-0.32,0.17-0.44,0.29c-0.13,0.12-0.23,0.25-0.31,0.39c-0.08,0.14-0.14,0.28-0.16,0.41
		H120.03z"/>
	<path class="st0" d="M16.96,216h-1.23l-0.44-3.47h-0.02L13.44,216h-1.23l-0.67-4.91h1.26l0.34,3.53h0.02l1.76-3.53h1.26l0.4,3.53
		h0.02l1.78-3.53h1.26L16.96,216z"/>
	<path class="st0" d="M23.13,212.89c0.01-0.08,0.02-0.14,0.03-0.19c0-0.04,0.01-0.09,0.01-0.13c0-0.24-0.08-0.41-0.23-0.51
		c-0.15-0.1-0.38-0.15-0.68-0.15c-0.24,0-0.49,0.05-0.74,0.14c-0.26,0.09-0.48,0.21-0.68,0.35l-0.46-0.81
		c0.28-0.2,0.6-0.35,0.96-0.47c0.36-0.11,0.72-0.17,1.1-0.17c0.23,0,0.46,0.03,0.69,0.08c0.23,0.05,0.43,0.13,0.61,0.25
		c0.18,0.12,0.33,0.27,0.43,0.45c0.11,0.19,0.16,0.42,0.16,0.7c0,0.06,0,0.14-0.01,0.22c-0.01,0.09-0.02,0.17-0.03,0.24l-0.36,1.99
		c-0.03,0.19-0.06,0.39-0.09,0.59s-0.04,0.37-0.04,0.51h-1.1c0-0.18,0.02-0.38,0.06-0.58h-0.02c-0.38,0.46-0.91,0.69-1.6,0.69
		c-0.17,0-0.35-0.02-0.53-0.06c-0.18-0.04-0.35-0.11-0.5-0.21c-0.15-0.1-0.27-0.23-0.37-0.4c-0.1-0.17-0.14-0.38-0.14-0.63
		c0-0.4,0.11-0.73,0.32-0.98c0.21-0.25,0.49-0.44,0.83-0.58c0.34-0.14,0.72-0.23,1.14-0.28C22.32,212.92,22.73,212.89,23.13,212.89z
		 M22.87,213.75c-0.23,0-0.47,0.01-0.72,0.03c-0.25,0.02-0.48,0.06-0.69,0.12c-0.21,0.06-0.38,0.15-0.51,0.26
		c-0.13,0.11-0.2,0.26-0.2,0.45c0,0.12,0.02,0.21,0.07,0.29c0.04,0.08,0.1,0.14,0.18,0.19s0.16,0.08,0.26,0.1
		c0.1,0.02,0.19,0.03,0.3,0.03c0.18,0,0.36-0.03,0.52-0.09c0.16-0.06,0.3-0.14,0.42-0.25c0.12-0.11,0.22-0.23,0.3-0.37
		c0.08-0.14,0.13-0.29,0.17-0.46l0.06-0.31H22.87z"/>
	<path class="st0" d="M25.88,214.59c0.1,0.2,0.25,0.35,0.45,0.45s0.42,0.16,0.67,0.16c0.28,0,0.5-0.05,0.67-0.16
		c0.17-0.11,0.25-0.26,0.25-0.45c0-0.18-0.07-0.31-0.2-0.39c-0.13-0.09-0.35-0.18-0.64-0.27c-0.23-0.08-0.43-0.15-0.61-0.23
		c-0.17-0.08-0.32-0.17-0.43-0.28c-0.12-0.11-0.2-0.23-0.26-0.36c-0.06-0.14-0.09-0.3-0.09-0.48c0-0.24,0.05-0.46,0.16-0.65
		c0.11-0.2,0.26-0.37,0.45-0.51c0.19-0.14,0.42-0.25,0.67-0.33c0.26-0.08,0.54-0.12,0.85-0.12c0.38,0,0.73,0.07,1.04,0.21
		c0.31,0.14,0.55,0.35,0.73,0.64l-0.93,0.55c-0.09-0.14-0.2-0.25-0.35-0.34c-0.14-0.09-0.34-0.14-0.58-0.14
		c-0.1,0-0.21,0.01-0.31,0.03c-0.11,0.02-0.2,0.05-0.28,0.1c-0.08,0.04-0.15,0.1-0.2,0.18c-0.05,0.08-0.08,0.17-0.08,0.28
		c0,0.16,0.07,0.27,0.2,0.35c0.13,0.07,0.33,0.15,0.59,0.22c0.46,0.13,0.81,0.31,1.06,0.53c0.25,0.22,0.38,0.54,0.38,0.95
		c0,0.27-0.06,0.51-0.17,0.72s-0.27,0.38-0.47,0.53c-0.19,0.14-0.42,0.25-0.67,0.32c-0.26,0.07-0.53,0.11-0.81,0.11
		c-0.53,0-0.96-0.09-1.28-0.28c-0.32-0.19-0.57-0.42-0.74-0.7L25.88,214.59z"/>
	<path class="st0" d="M32.89,212.08l0.17-0.98h0.85l0.25-1.43h1.19l-0.25,1.43h1.1l-0.17,0.98h-1.08l-0.43,2.3
		c-0.02,0.1-0.03,0.2-0.03,0.28c0,0.18,0.05,0.3,0.16,0.37c0.11,0.07,0.25,0.1,0.42,0.1c0.08,0,0.16-0.01,0.24-0.02
		c0.08-0.01,0.15-0.03,0.22-0.04l-0.07,0.91c-0.1,0.04-0.22,0.07-0.36,0.1c-0.14,0.02-0.27,0.04-0.38,0.04
		c-0.52,0-0.89-0.1-1.1-0.31c-0.22-0.21-0.33-0.48-0.33-0.82c0-0.1,0.01-0.2,0.02-0.31c0.01-0.11,0.03-0.22,0.05-0.31l0.42-2.27
		H32.89z"/>
	<path class="st0" d="M39.03,216.14c-0.34,0-0.66-0.05-0.95-0.15c-0.29-0.1-0.54-0.25-0.75-0.44c-0.21-0.19-0.38-0.42-0.5-0.67
		c-0.12-0.26-0.18-0.55-0.18-0.87c0-0.4,0.07-0.79,0.21-1.15c0.14-0.36,0.34-0.69,0.6-0.97c0.26-0.28,0.57-0.5,0.94-0.67
		c0.36-0.17,0.77-0.25,1.22-0.25c0.35,0,0.67,0.05,0.96,0.15c0.29,0.1,0.54,0.25,0.75,0.43c0.21,0.19,0.38,0.41,0.5,0.67
		c0.12,0.26,0.18,0.55,0.18,0.86c0,0.41-0.07,0.8-0.21,1.17c-0.14,0.37-0.34,0.69-0.6,0.97c-0.26,0.28-0.57,0.5-0.94,0.66
		C39.89,216.05,39.48,216.14,39.03,216.14z M40.8,213.21c0-0.37-0.11-0.67-0.34-0.91c-0.22-0.24-0.53-0.36-0.92-0.36
		c-0.26,0-0.49,0.05-0.7,0.16c-0.21,0.11-0.39,0.25-0.53,0.43c-0.15,0.18-0.26,0.38-0.34,0.62c-0.08,0.23-0.12,0.48-0.12,0.74
		c0,0.37,0.11,0.67,0.33,0.91c0.22,0.24,0.52,0.36,0.92,0.36c0.26,0,0.49-0.05,0.71-0.15c0.21-0.1,0.39-0.24,0.54-0.42
		c0.15-0.18,0.26-0.38,0.34-0.62C40.76,213.72,40.8,213.47,40.8,213.21z"/>
	<path class="st0" d="M46.95,213.93c-0.01,0.03-0.01,0.07-0.01,0.11c0,0.16,0.03,0.31,0.1,0.45c0.06,0.14,0.16,0.25,0.27,0.35
		c0.12,0.1,0.25,0.18,0.41,0.24c0.16,0.06,0.33,0.09,0.51,0.09c0.31,0,0.58-0.06,0.8-0.17c0.22-0.12,0.42-0.27,0.6-0.47l0.69,0.64
		c-0.61,0.65-1.35,0.98-2.22,0.98c-0.33,0-0.64-0.05-0.92-0.15c-0.28-0.1-0.52-0.24-0.73-0.42c-0.21-0.18-0.37-0.41-0.48-0.68
		s-0.17-0.58-0.17-0.93c0-0.42,0.07-0.82,0.21-1.18c0.14-0.36,0.34-0.68,0.6-0.96c0.26-0.27,0.56-0.49,0.91-0.64
		c0.35-0.15,0.73-0.23,1.15-0.23c0.29,0,0.56,0.04,0.81,0.12c0.25,0.08,0.47,0.2,0.65,0.37c0.18,0.16,0.33,0.37,0.43,0.61
		c0.1,0.25,0.15,0.53,0.15,0.86c0,0.11-0.01,0.26-0.03,0.46c-0.02,0.19-0.05,0.38-0.09,0.55H46.95z M49.61,213.07
		c0.01-0.05,0.01-0.09,0.02-0.13c0-0.04,0-0.08,0-0.12c0-0.27-0.09-0.49-0.28-0.67c-0.19-0.18-0.45-0.28-0.79-0.28
		c-0.21,0-0.4,0.04-0.57,0.11c-0.17,0.08-0.32,0.17-0.44,0.29c-0.13,0.12-0.23,0.25-0.31,0.39c-0.08,0.14-0.14,0.28-0.16,0.41H49.61
		z"/>
	<path class="st0" d="M54.04,216h-1.29l-0.96-4.91h1.26l0.57,3.6h0.02l2.05-3.6h1.27L54.04,216z"/>
	<path class="st0" d="M60.48,212.89c0.01-0.08,0.02-0.14,0.03-0.19c0-0.04,0.01-0.09,0.01-0.13c0-0.24-0.08-0.41-0.23-0.51
		c-0.15-0.1-0.38-0.15-0.68-0.15c-0.24,0-0.49,0.05-0.74,0.14c-0.26,0.09-0.48,0.21-0.68,0.35l-0.46-0.81
		c0.28-0.2,0.6-0.35,0.96-0.47c0.36-0.11,0.72-0.17,1.1-0.17c0.23,0,0.46,0.03,0.69,0.08c0.23,0.05,0.43,0.13,0.61,0.25
		c0.18,0.12,0.33,0.27,0.43,0.45c0.11,0.19,0.16,0.42,0.16,0.7c0,0.06,0,0.14-0.01,0.22c-0.01,0.09-0.02,0.17-0.03,0.24l-0.36,1.99
		c-0.03,0.19-0.06,0.39-0.09,0.59s-0.04,0.37-0.04,0.51h-1.1c0-0.18,0.02-0.38,0.06-0.58H60.1c-0.38,0.46-0.91,0.69-1.6,0.69
		c-0.17,0-0.35-0.02-0.53-0.06c-0.18-0.04-0.35-0.11-0.5-0.21c-0.15-0.1-0.27-0.23-0.37-0.4c-0.1-0.17-0.14-0.38-0.14-0.63
		c0-0.4,0.11-0.73,0.32-0.98c0.21-0.25,0.49-0.44,0.83-0.58c0.34-0.14,0.72-0.23,1.14-0.28C59.67,212.92,60.08,212.89,60.48,212.89z
		 M60.23,213.75c-0.23,0-0.47,0.01-0.72,0.03c-0.25,0.02-0.48,0.06-0.69,0.12c-0.21,0.06-0.38,0.15-0.51,0.26
		c-0.13,0.11-0.2,0.26-0.2,0.45c0,0.12,0.02,0.21,0.07,0.29c0.04,0.08,0.1,0.14,0.18,0.19c0.07,0.05,0.16,0.08,0.26,0.1
		c0.1,0.02,0.19,0.03,0.3,0.03c0.18,0,0.36-0.03,0.52-0.09c0.16-0.06,0.3-0.14,0.42-0.25c0.12-0.11,0.22-0.23,0.3-0.37
		c0.08-0.14,0.13-0.29,0.17-0.46l0.06-0.31H60.23z"/>
	<path class="st0" d="M62.77,216l1.36-7.73h1.21L63.96,216H62.77z"/>
	<path class="st0" d="M69.04,215.24c-0.17,0.27-0.39,0.48-0.65,0.65s-0.58,0.25-0.95,0.25c-0.27,0-0.51-0.04-0.71-0.12
		s-0.37-0.19-0.5-0.33c-0.13-0.14-0.23-0.3-0.3-0.49c-0.06-0.19-0.1-0.38-0.1-0.59c0-0.17,0.01-0.32,0.04-0.46l0.54-3.06h1.2
		l-0.47,2.7c-0.01,0.08-0.03,0.16-0.04,0.25c-0.01,0.08-0.02,0.16-0.02,0.25c0,0.22,0.06,0.41,0.17,0.58
		c0.12,0.17,0.33,0.25,0.63,0.25c0.19,0,0.36-0.04,0.52-0.11c0.15-0.08,0.29-0.18,0.4-0.3c0.11-0.13,0.2-0.27,0.28-0.42
		c0.07-0.16,0.12-0.32,0.15-0.48l0.48-2.7h1.2l-0.67,3.85c-0.03,0.13-0.06,0.3-0.09,0.5c-0.03,0.2-0.05,0.39-0.07,0.55h-1.12
		c0.01-0.08,0.02-0.19,0.04-0.35c0.02-0.16,0.04-0.3,0.05-0.41H69.04z"/>
	<path class="st0" d="M75.31,212.89c0.01-0.08,0.02-0.14,0.03-0.19c0-0.04,0-0.09,0-0.13c0-0.24-0.08-0.41-0.23-0.51
		c-0.15-0.1-0.38-0.15-0.68-0.15c-0.24,0-0.49,0.05-0.74,0.14c-0.26,0.09-0.48,0.21-0.68,0.35l-0.46-0.81
		c0.28-0.2,0.6-0.35,0.96-0.47c0.36-0.11,0.72-0.17,1.1-0.17c0.23,0,0.46,0.03,0.69,0.08c0.23,0.05,0.43,0.13,0.61,0.25
		c0.18,0.12,0.33,0.27,0.43,0.45c0.11,0.19,0.16,0.42,0.16,0.7c0,0.06,0,0.14-0.01,0.22c-0.01,0.09-0.02,0.17-0.03,0.24l-0.36,1.99
		c-0.03,0.19-0.06,0.39-0.09,0.59c-0.02,0.2-0.04,0.37-0.04,0.51h-1.1c0-0.18,0.02-0.38,0.06-0.58h-0.02
		c-0.38,0.46-0.91,0.69-1.6,0.69c-0.17,0-0.35-0.02-0.53-0.06c-0.18-0.04-0.35-0.11-0.5-0.21c-0.15-0.1-0.27-0.23-0.37-0.4
		c-0.09-0.17-0.14-0.38-0.14-0.63c0-0.4,0.11-0.73,0.32-0.98c0.21-0.25,0.49-0.44,0.83-0.58c0.34-0.14,0.72-0.23,1.14-0.28
		C74.5,212.92,74.91,212.89,75.31,212.89z M75.06,213.75c-0.23,0-0.47,0.01-0.72,0.03c-0.25,0.02-0.48,0.06-0.68,0.12
		c-0.21,0.06-0.38,0.15-0.51,0.26c-0.13,0.11-0.2,0.26-0.2,0.45c0,0.12,0.02,0.21,0.07,0.29c0.04,0.08,0.1,0.14,0.18,0.19
		c0.08,0.05,0.16,0.08,0.26,0.1c0.1,0.02,0.19,0.03,0.3,0.03c0.18,0,0.36-0.03,0.52-0.09c0.16-0.06,0.3-0.14,0.42-0.25
		c0.12-0.11,0.22-0.23,0.3-0.37c0.08-0.14,0.13-0.29,0.17-0.46l0.06-0.31H75.06z"/>
	<path class="st0" d="M77.47,212.08l0.17-0.98h0.85l0.25-1.43h1.19l-0.25,1.43h1.1l-0.17,0.98h-1.08l-0.43,2.3
		c-0.02,0.1-0.03,0.2-0.03,0.28c0,0.18,0.05,0.3,0.16,0.37c0.11,0.07,0.25,0.1,0.42,0.1c0.08,0,0.16-0.01,0.24-0.02
		c0.08-0.01,0.15-0.03,0.22-0.04l-0.07,0.91c-0.1,0.04-0.22,0.07-0.36,0.1c-0.14,0.02-0.27,0.04-0.38,0.04
		c-0.52,0-0.89-0.1-1.1-0.31c-0.22-0.21-0.33-0.48-0.33-0.82c0-0.1,0-0.2,0.02-0.31c0.01-0.11,0.03-0.22,0.05-0.31l0.42-2.27H77.47z
		"/>
	<path class="st0" d="M82.39,213.93c-0.01,0.03-0.01,0.07-0.01,0.11c0,0.16,0.03,0.31,0.1,0.45c0.07,0.14,0.16,0.25,0.27,0.35
		c0.12,0.1,0.25,0.18,0.41,0.24c0.16,0.06,0.33,0.09,0.51,0.09c0.31,0,0.58-0.06,0.8-0.17c0.22-0.12,0.42-0.27,0.6-0.47l0.69,0.64
		c-0.61,0.65-1.35,0.98-2.22,0.98c-0.33,0-0.64-0.05-0.92-0.15c-0.28-0.1-0.52-0.24-0.73-0.42c-0.2-0.18-0.36-0.41-0.48-0.68
		s-0.17-0.58-0.17-0.93c0-0.42,0.07-0.82,0.21-1.18c0.14-0.36,0.34-0.68,0.6-0.96c0.26-0.27,0.56-0.49,0.91-0.64
		c0.35-0.15,0.73-0.23,1.15-0.23c0.29,0,0.56,0.04,0.81,0.12c0.25,0.08,0.46,0.2,0.65,0.37c0.18,0.16,0.33,0.37,0.43,0.61
		c0.1,0.25,0.15,0.53,0.15,0.86c0,0.11-0.01,0.26-0.03,0.46c-0.02,0.19-0.05,0.38-0.09,0.55H82.39z M85.05,213.07
		c0.01-0.05,0.01-0.09,0.02-0.13c0-0.04,0-0.08,0-0.12c0-0.27-0.09-0.49-0.28-0.67c-0.19-0.18-0.45-0.28-0.79-0.28
		c-0.21,0-0.4,0.04-0.57,0.11c-0.17,0.08-0.32,0.17-0.44,0.29c-0.13,0.12-0.23,0.25-0.31,0.39c-0.08,0.14-0.14,0.28-0.16,0.41H85.05
		z"/>
	<path class="st0" d="M92.34,216.14c-0.34,0-0.66-0.05-0.95-0.15c-0.29-0.1-0.54-0.25-0.75-0.44c-0.21-0.19-0.38-0.42-0.5-0.67
		c-0.12-0.26-0.18-0.55-0.18-0.87c0-0.4,0.07-0.79,0.21-1.15c0.14-0.36,0.34-0.69,0.6-0.97c0.26-0.28,0.57-0.5,0.94-0.67
		c0.36-0.17,0.77-0.25,1.22-0.25c0.35,0,0.67,0.05,0.96,0.15c0.29,0.1,0.54,0.25,0.75,0.43s0.38,0.41,0.5,0.67
		c0.12,0.26,0.18,0.55,0.18,0.86c0,0.41-0.07,0.8-0.21,1.17c-0.14,0.37-0.34,0.69-0.6,0.97c-0.26,0.28-0.57,0.5-0.94,0.66
		C93.2,216.05,92.79,216.14,92.34,216.14z M94.11,213.21c0-0.37-0.11-0.67-0.34-0.91s-0.53-0.36-0.92-0.36
		c-0.26,0-0.49,0.05-0.7,0.16c-0.21,0.11-0.39,0.25-0.53,0.43s-0.26,0.38-0.34,0.62c-0.08,0.23-0.12,0.48-0.12,0.74
		c0,0.37,0.11,0.67,0.33,0.91c0.22,0.24,0.52,0.36,0.92,0.36c0.26,0,0.49-0.05,0.71-0.15c0.21-0.1,0.39-0.24,0.54-0.42
		c0.15-0.18,0.26-0.38,0.34-0.62S94.11,213.47,94.11,213.21z"/>
	<path class="st0" d="M98.62,216h-1.29l-0.96-4.91h1.26l0.57,3.6h0.02l2.05-3.6h1.27L98.62,216z"/>
	<path class="st0" d="M102.84,213.93c-0.01,0.03-0.01,0.07-0.01,0.11c0,0.16,0.03,0.31,0.1,0.45c0.06,0.14,0.15,0.25,0.27,0.35
		c0.12,0.1,0.25,0.18,0.41,0.24c0.16,0.06,0.33,0.09,0.51,0.09c0.31,0,0.58-0.06,0.8-0.17c0.22-0.12,0.42-0.27,0.6-0.47l0.69,0.64
		c-0.61,0.65-1.35,0.98-2.22,0.98c-0.33,0-0.64-0.05-0.92-0.15c-0.28-0.1-0.52-0.24-0.73-0.42c-0.2-0.18-0.36-0.41-0.48-0.68
		c-0.12-0.27-0.17-0.58-0.17-0.93c0-0.42,0.07-0.82,0.21-1.18c0.14-0.36,0.34-0.68,0.6-0.96c0.26-0.27,0.56-0.49,0.91-0.64
		c0.35-0.15,0.73-0.23,1.15-0.23c0.29,0,0.56,0.04,0.81,0.12c0.25,0.08,0.46,0.2,0.65,0.37c0.18,0.16,0.33,0.37,0.43,0.61
		c0.1,0.25,0.15,0.53,0.15,0.86c0,0.11-0.01,0.26-0.03,0.46c-0.02,0.19-0.05,0.38-0.09,0.55H102.84z M105.5,213.07
		c0.01-0.05,0.01-0.09,0.02-0.13c0-0.04,0.01-0.08,0.01-0.12c0-0.27-0.09-0.49-0.28-0.67c-0.19-0.18-0.45-0.28-0.79-0.28
		c-0.21,0-0.4,0.04-0.57,0.11c-0.17,0.08-0.32,0.17-0.44,0.29c-0.13,0.12-0.23,0.25-0.31,0.39c-0.08,0.14-0.14,0.28-0.16,0.41H105.5
		z"/>
	<path class="st0" d="M109.46,211.91c0.17-0.29,0.37-0.52,0.6-0.69c0.23-0.17,0.51-0.26,0.84-0.26c0.05,0,0.1,0,0.15,0.01
		c0.05,0,0.1,0.01,0.14,0.03l-0.16,1.11c-0.08-0.02-0.14-0.03-0.2-0.04c-0.06-0.01-0.11-0.01-0.17-0.01c-0.28,0-0.51,0.05-0.69,0.15
		c-0.18,0.1-0.32,0.22-0.43,0.37c-0.11,0.14-0.19,0.29-0.24,0.44c-0.05,0.15-0.08,0.27-0.09,0.36l-0.46,2.63h-1.2l0.68-3.86
		c0.03-0.13,0.06-0.3,0.09-0.5c0.03-0.2,0.05-0.39,0.07-0.55h1.13c0,0.03,0,0.09-0.01,0.15c-0.01,0.07-0.02,0.14-0.03,0.22
		c-0.01,0.08-0.02,0.16-0.03,0.24c-0.01,0.08-0.02,0.14-0.03,0.2H109.46z"/>
	<path class="st0" d="M114.58,212.89c0.01-0.08,0.02-0.14,0.03-0.19c0-0.04,0.01-0.09,0.01-0.13c0-0.24-0.08-0.41-0.23-0.51
		c-0.15-0.1-0.38-0.15-0.68-0.15c-0.24,0-0.49,0.05-0.74,0.14c-0.26,0.09-0.48,0.21-0.68,0.35l-0.46-0.81
		c0.28-0.2,0.6-0.35,0.96-0.47c0.36-0.11,0.72-0.17,1.1-0.17c0.23,0,0.46,0.03,0.69,0.08c0.23,0.05,0.43,0.13,0.61,0.25
		c0.18,0.12,0.33,0.27,0.43,0.45c0.11,0.19,0.16,0.42,0.16,0.7c0,0.06,0,0.14-0.01,0.22c-0.01,0.09-0.02,0.17-0.03,0.24l-0.36,1.99
		c-0.03,0.19-0.06,0.39-0.09,0.59c-0.02,0.2-0.04,0.37-0.04,0.51h-1.1c0-0.18,0.02-0.38,0.06-0.58h-0.02
		c-0.38,0.46-0.91,0.69-1.6,0.69c-0.17,0-0.35-0.02-0.53-0.06c-0.18-0.04-0.35-0.11-0.5-0.21c-0.15-0.1-0.27-0.23-0.37-0.4
		c-0.1-0.17-0.14-0.38-0.14-0.63c0-0.4,0.11-0.73,0.32-0.98c0.21-0.25,0.49-0.44,0.83-0.58c0.34-0.14,0.72-0.23,1.14-0.28
		C113.77,212.92,114.18,212.89,114.58,212.89z M114.33,213.75c-0.23,0-0.47,0.01-0.72,0.03c-0.25,0.02-0.48,0.06-0.69,0.12
		c-0.21,0.06-0.38,0.15-0.51,0.26c-0.13,0.11-0.2,0.26-0.2,0.45c0,0.12,0.02,0.21,0.07,0.29c0.04,0.08,0.1,0.14,0.18,0.19
		c0.07,0.05,0.16,0.08,0.26,0.1c0.1,0.02,0.19,0.03,0.3,0.03c0.18,0,0.36-0.03,0.52-0.09s0.3-0.14,0.42-0.25
		c0.12-0.11,0.22-0.23,0.3-0.37c0.08-0.14,0.13-0.29,0.17-0.46l0.06-0.31H114.33z"/>
	<path class="st0" d="M116.86,216l1.36-7.73h1.21l-1.37,7.73H116.86z"/>
	<path class="st0" d="M119.8,216l1.36-7.73h1.21l-1.37,7.73H119.8z"/>
	<path class="st0" d="M12.21,230.72H11l1.3-7.35h1.14l-0.12,0.79h0.03c0.2-0.29,0.45-0.51,0.76-0.66c0.31-0.16,0.64-0.24,1.01-0.24
		c0.31,0,0.6,0.05,0.85,0.15c0.26,0.1,0.47,0.25,0.65,0.43c0.18,0.19,0.32,0.41,0.42,0.67c0.1,0.26,0.15,0.55,0.15,0.86
		c0,0.42-0.07,0.82-0.2,1.19c-0.13,0.37-0.32,0.69-0.56,0.97c-0.24,0.28-0.52,0.49-0.85,0.65c-0.33,0.16-0.69,0.24-1.09,0.24
		c-0.45,0-0.81-0.08-1.09-0.25s-0.49-0.39-0.63-0.68h-0.02L12.21,230.72z M15.96,225.51c0-0.36-0.1-0.66-0.31-0.91
		c-0.21-0.24-0.51-0.37-0.89-0.37c-0.24,0-0.46,0.05-0.67,0.15c-0.21,0.1-0.39,0.24-0.55,0.42c-0.15,0.18-0.27,0.38-0.36,0.62
		c-0.09,0.23-0.13,0.48-0.13,0.74c0,0.37,0.11,0.68,0.34,0.92c0.22,0.24,0.53,0.36,0.91,0.36c0.25,0,0.48-0.05,0.69-0.15
		c0.21-0.1,0.39-0.24,0.53-0.41c0.15-0.17,0.26-0.38,0.34-0.61C15.92,226.02,15.96,225.77,15.96,225.51z"/>
	<path class="st0" d="M21.59,225.17c0.01-0.08,0.02-0.14,0.03-0.19c0-0.04,0.01-0.09,0.01-0.13c0-0.24-0.08-0.41-0.23-0.51
		c-0.15-0.1-0.38-0.15-0.68-0.15c-0.24,0-0.49,0.05-0.74,0.14c-0.26,0.09-0.48,0.21-0.68,0.35l-0.46-0.81
		c0.28-0.2,0.6-0.35,0.96-0.47c0.36-0.11,0.72-0.17,1.1-0.17c0.23,0,0.46,0.03,0.69,0.08c0.23,0.05,0.43,0.13,0.61,0.25
		c0.18,0.12,0.33,0.27,0.43,0.45c0.11,0.19,0.16,0.42,0.16,0.7c0,0.06,0,0.14-0.01,0.22c-0.01,0.09-0.02,0.17-0.03,0.24l-0.36,1.99
		c-0.03,0.19-0.06,0.39-0.09,0.59s-0.04,0.37-0.04,0.51h-1.1c0-0.18,0.02-0.38,0.06-0.58h-0.02c-0.38,0.46-0.91,0.68-1.6,0.68
		c-0.17,0-0.35-0.02-0.53-0.06c-0.18-0.04-0.35-0.11-0.5-0.21c-0.15-0.1-0.27-0.23-0.37-0.4c-0.1-0.17-0.14-0.38-0.14-0.63
		c0-0.4,0.11-0.73,0.32-0.98c0.21-0.25,0.49-0.44,0.83-0.58c0.34-0.14,0.72-0.23,1.14-0.28C20.78,225.19,21.19,225.17,21.59,225.17z
		 M21.34,226.02c-0.23,0-0.47,0.01-0.72,0.03c-0.25,0.02-0.48,0.06-0.69,0.12c-0.21,0.06-0.38,0.15-0.51,0.26
		c-0.13,0.11-0.2,0.26-0.2,0.45c0,0.12,0.02,0.21,0.07,0.29c0.04,0.08,0.1,0.14,0.18,0.19c0.08,0.05,0.16,0.08,0.26,0.1
		c0.1,0.02,0.19,0.03,0.3,0.03c0.18,0,0.36-0.03,0.52-0.09c0.16-0.06,0.3-0.14,0.42-0.25c0.12-0.11,0.22-0.23,0.3-0.37
		c0.08-0.14,0.13-0.29,0.17-0.46l0.06-0.31H21.34z"/>
	<path class="st0" d="M23.75,224.35l0.17-0.98h0.85l0.25-1.43h1.19l-0.25,1.43h1.1l-0.17,0.98h-1.08l-0.43,2.3
		c-0.02,0.1-0.03,0.2-0.03,0.28c0,0.18,0.05,0.3,0.16,0.37s0.25,0.1,0.42,0.1c0.08,0,0.16-0.01,0.24-0.02
		c0.08-0.01,0.15-0.03,0.22-0.04l-0.07,0.91c-0.1,0.04-0.22,0.07-0.36,0.1s-0.27,0.04-0.38,0.04c-0.52,0-0.89-0.1-1.1-0.31
		c-0.22-0.21-0.33-0.48-0.33-0.82c0-0.1,0.01-0.2,0.02-0.31c0.01-0.11,0.03-0.22,0.05-0.31l0.42-2.27H23.75z"/>
	<path class="st0" d="M27.45,228.27l0.86-4.91h1.21l-0.87,4.91H27.45z M29.92,221.68c0,0.2-0.07,0.37-0.21,0.52
		c-0.14,0.15-0.31,0.22-0.52,0.22c-0.2,0-0.37-0.06-0.51-0.18c-0.14-0.12-0.21-0.3-0.21-0.52c0-0.22,0.07-0.4,0.22-0.54
		c0.15-0.14,0.32-0.21,0.52-0.21s0.36,0.06,0.5,0.19C29.85,221.29,29.92,221.46,29.92,221.68z"/>
	<path class="st0" d="M31.61,226.2c-0.01,0.03-0.01,0.07-0.01,0.11c0,0.16,0.03,0.31,0.1,0.45c0.06,0.14,0.16,0.25,0.27,0.35
		c0.12,0.1,0.25,0.18,0.41,0.24s0.33,0.09,0.51,0.09c0.31,0,0.58-0.06,0.8-0.17c0.22-0.12,0.42-0.27,0.6-0.47l0.69,0.64
		c-0.61,0.65-1.35,0.98-2.22,0.98c-0.33,0-0.64-0.05-0.92-0.15c-0.28-0.1-0.52-0.24-0.73-0.42c-0.2-0.18-0.36-0.41-0.48-0.68
		c-0.12-0.27-0.17-0.58-0.17-0.93c0-0.42,0.07-0.82,0.21-1.18c0.14-0.36,0.34-0.68,0.6-0.96c0.26-0.27,0.56-0.49,0.91-0.64
		c0.35-0.15,0.73-0.23,1.15-0.23c0.29,0,0.56,0.04,0.81,0.12c0.25,0.08,0.47,0.2,0.65,0.37c0.18,0.16,0.33,0.37,0.43,0.61
		c0.1,0.25,0.15,0.53,0.15,0.86c0,0.11-0.01,0.26-0.03,0.46c-0.02,0.19-0.05,0.38-0.09,0.55H31.61z M34.26,225.34
		c0.01-0.05,0.01-0.09,0.02-0.13c0-0.04,0.01-0.08,0.01-0.12c0-0.27-0.09-0.49-0.28-0.67c-0.19-0.18-0.45-0.28-0.79-0.28
		c-0.21,0-0.4,0.04-0.57,0.11c-0.17,0.08-0.32,0.17-0.44,0.29c-0.13,0.12-0.23,0.25-0.31,0.39c-0.08,0.14-0.14,0.28-0.16,0.41H34.26
		z"/>
	<path class="st0" d="M38.24,224.13c0.17-0.27,0.39-0.48,0.65-0.65c0.26-0.17,0.58-0.25,0.95-0.25c0.27,0,0.51,0.04,0.71,0.12
		c0.2,0.08,0.37,0.19,0.5,0.33c0.13,0.14,0.23,0.3,0.3,0.49c0.07,0.19,0.1,0.38,0.1,0.59c0,0.17-0.01,0.32-0.04,0.46l-0.54,3.06
		h-1.2l0.47-2.7c0.01-0.08,0.03-0.16,0.04-0.25c0.01-0.08,0.02-0.16,0.02-0.25c0-0.22-0.06-0.41-0.17-0.58
		c-0.12-0.17-0.33-0.25-0.63-0.25c-0.2,0-0.37,0.04-0.52,0.11c-0.15,0.08-0.28,0.18-0.39,0.3c-0.11,0.13-0.2,0.27-0.28,0.42
		c-0.07,0.16-0.12,0.32-0.15,0.48l-0.48,2.7h-1.2l0.67-3.86c0.03-0.13,0.06-0.3,0.09-0.5c0.03-0.2,0.05-0.39,0.07-0.55h1.12
		c-0.01,0.07-0.02,0.19-0.04,0.35c-0.02,0.16-0.04,0.3-0.05,0.41H38.24z"/>
	<path class="st0" d="M42.52,224.35l0.17-0.98h0.85l0.25-1.43h1.19l-0.25,1.43h1.1l-0.17,0.98h-1.08l-0.43,2.3
		c-0.02,0.1-0.03,0.2-0.03,0.28c0,0.18,0.05,0.3,0.16,0.37c0.11,0.07,0.25,0.1,0.42,0.1c0.08,0,0.16-0.01,0.24-0.02
		c0.08-0.01,0.15-0.03,0.22-0.04l-0.07,0.91c-0.1,0.04-0.22,0.07-0.36,0.1c-0.14,0.02-0.27,0.04-0.38,0.04
		c-0.52,0-0.89-0.1-1.1-0.31c-0.22-0.21-0.33-0.48-0.33-0.82c0-0.1,0-0.2,0.02-0.31c0.01-0.11,0.03-0.22,0.05-0.31l0.42-2.27H42.52z
		"/>
	<path class="st0" d="M49.45,226.86c0.1,0.2,0.25,0.35,0.45,0.45c0.2,0.11,0.42,0.16,0.67,0.16c0.28,0,0.5-0.05,0.67-0.16
		c0.17-0.11,0.25-0.26,0.25-0.45c0-0.18-0.07-0.31-0.2-0.39c-0.13-0.09-0.35-0.18-0.64-0.27c-0.23-0.08-0.43-0.15-0.61-0.23
		c-0.17-0.08-0.32-0.17-0.44-0.28c-0.12-0.11-0.2-0.23-0.26-0.36c-0.06-0.14-0.09-0.3-0.09-0.48c0-0.24,0.05-0.46,0.16-0.65
		c0.11-0.2,0.26-0.37,0.45-0.51c0.19-0.14,0.42-0.25,0.67-0.33c0.26-0.08,0.54-0.12,0.85-0.12c0.38,0,0.73,0.07,1.04,0.21
		c0.31,0.14,0.55,0.35,0.73,0.64l-0.93,0.55c-0.09-0.14-0.21-0.25-0.35-0.34s-0.34-0.14-0.58-0.14c-0.1,0-0.21,0.01-0.31,0.03
		c-0.11,0.02-0.2,0.05-0.28,0.1c-0.08,0.04-0.15,0.1-0.2,0.18c-0.05,0.08-0.08,0.17-0.08,0.28c0,0.16,0.07,0.27,0.2,0.35
		c0.13,0.07,0.33,0.15,0.59,0.22c0.46,0.13,0.81,0.31,1.06,0.53c0.25,0.22,0.38,0.54,0.38,0.95c0,0.27-0.06,0.51-0.17,0.72
		s-0.27,0.38-0.46,0.53c-0.19,0.14-0.42,0.25-0.67,0.32c-0.26,0.07-0.53,0.11-0.81,0.11c-0.53,0-0.96-0.09-1.28-0.28
		c-0.32-0.19-0.57-0.42-0.74-0.7L49.45,226.86z"/>
	<path class="st0" d="M57.16,225.17c0.01-0.08,0.02-0.14,0.03-0.19c0-0.04,0-0.09,0-0.13c0-0.24-0.08-0.41-0.23-0.51
		c-0.15-0.1-0.38-0.15-0.68-0.15c-0.24,0-0.49,0.05-0.74,0.14c-0.26,0.09-0.48,0.21-0.68,0.35l-0.46-0.81
		c0.28-0.2,0.6-0.35,0.96-0.47c0.36-0.11,0.72-0.17,1.1-0.17c0.23,0,0.46,0.03,0.69,0.08c0.23,0.05,0.43,0.13,0.61,0.25
		c0.18,0.12,0.33,0.27,0.43,0.45c0.11,0.19,0.16,0.42,0.16,0.7c0,0.06,0,0.14-0.01,0.22c-0.01,0.09-0.02,0.17-0.03,0.24l-0.36,1.99
		c-0.03,0.19-0.06,0.39-0.09,0.59s-0.04,0.37-0.04,0.51h-1.1c0-0.18,0.02-0.38,0.06-0.58h-0.02c-0.38,0.46-0.91,0.68-1.6,0.68
		c-0.17,0-0.35-0.02-0.53-0.06s-0.35-0.11-0.5-0.21c-0.15-0.1-0.27-0.23-0.37-0.4c-0.09-0.17-0.14-0.38-0.14-0.63
		c0-0.4,0.11-0.73,0.32-0.98c0.21-0.25,0.49-0.44,0.83-0.58c0.34-0.14,0.72-0.23,1.14-0.28C56.35,225.19,56.76,225.17,57.16,225.17z
		 M56.91,226.02c-0.23,0-0.47,0.01-0.72,0.03c-0.25,0.02-0.48,0.06-0.68,0.12c-0.21,0.06-0.38,0.15-0.51,0.26
		c-0.13,0.11-0.2,0.26-0.2,0.45c0,0.12,0.02,0.21,0.07,0.29c0.04,0.08,0.1,0.14,0.18,0.19c0.08,0.05,0.16,0.08,0.26,0.1
		c0.1,0.02,0.19,0.03,0.3,0.03c0.18,0,0.36-0.03,0.52-0.09c0.16-0.06,0.3-0.14,0.42-0.25c0.12-0.11,0.22-0.23,0.3-0.37
		c0.08-0.14,0.13-0.29,0.17-0.46l0.06-0.31H56.91z"/>
	<path class="st0" d="M59.32,224.35l0.17-0.98h0.85l0.25-1.43h1.19l-0.25,1.43h1.1l-0.17,0.98h-1.08l-0.43,2.3
		c-0.02,0.1-0.03,0.2-0.03,0.28c0,0.18,0.05,0.3,0.16,0.37c0.11,0.07,0.25,0.1,0.42,0.1c0.08,0,0.16-0.01,0.24-0.02
		c0.08-0.01,0.15-0.03,0.22-0.04l-0.07,0.91c-0.1,0.04-0.22,0.07-0.36,0.1s-0.27,0.04-0.38,0.04c-0.52,0-0.89-0.1-1.1-0.31
		c-0.22-0.21-0.33-0.48-0.33-0.82c0-0.1,0-0.2,0.02-0.31c0.01-0.11,0.03-0.22,0.05-0.31l0.42-2.27H59.32z"/>
	<path class="st0" d="M63.02,228.27l0.86-4.91h1.21l-0.87,4.91H63.02z M65.49,221.68c0,0.2-0.07,0.37-0.21,0.52
		c-0.14,0.15-0.31,0.22-0.52,0.22c-0.2,0-0.37-0.06-0.51-0.18c-0.14-0.12-0.21-0.3-0.21-0.52c0-0.22,0.07-0.4,0.22-0.54
		c0.15-0.14,0.32-0.21,0.52-0.21c0.2,0,0.36,0.06,0.5,0.19C65.42,221.29,65.49,221.46,65.49,221.68z"/>
	<path class="st0" d="M66.43,226.86c0.1,0.2,0.25,0.35,0.45,0.45c0.2,0.11,0.42,0.16,0.67,0.16c0.28,0,0.5-0.05,0.67-0.16
		c0.17-0.11,0.25-0.26,0.25-0.45c0-0.18-0.07-0.31-0.2-0.39c-0.13-0.09-0.35-0.18-0.64-0.27c-0.23-0.08-0.43-0.15-0.61-0.23
		c-0.17-0.08-0.32-0.17-0.43-0.28c-0.12-0.11-0.2-0.23-0.26-0.36c-0.06-0.14-0.09-0.3-0.09-0.48c0-0.24,0.05-0.46,0.16-0.65
		c0.11-0.2,0.26-0.37,0.45-0.51c0.19-0.14,0.42-0.25,0.67-0.33c0.26-0.08,0.54-0.12,0.85-0.12c0.38,0,0.73,0.07,1.04,0.21
		c0.31,0.14,0.55,0.35,0.73,0.64l-0.93,0.55c-0.09-0.14-0.2-0.25-0.35-0.34c-0.14-0.09-0.34-0.14-0.58-0.14
		c-0.1,0-0.21,0.01-0.31,0.03c-0.11,0.02-0.2,0.05-0.28,0.1c-0.08,0.04-0.15,0.1-0.2,0.18c-0.05,0.08-0.08,0.17-0.08,0.28
		c0,0.16,0.07,0.27,0.2,0.35c0.13,0.07,0.33,0.15,0.59,0.22c0.46,0.13,0.81,0.31,1.06,0.53c0.25,0.22,0.38,0.54,0.38,0.95
		c0,0.27-0.06,0.51-0.17,0.72s-0.27,0.38-0.47,0.53c-0.19,0.14-0.42,0.25-0.67,0.32c-0.26,0.07-0.53,0.11-0.81,0.11
		c-0.53,0-0.96-0.09-1.28-0.28c-0.32-0.19-0.57-0.42-0.74-0.7L66.43,226.86z"/>
	<path class="st0" d="M74.42,221.51c-0.06-0.02-0.12-0.04-0.19-0.05c-0.06-0.01-0.14-0.02-0.23-0.02c-0.16,0-0.3,0.03-0.42,0.1
		s-0.21,0.16-0.28,0.27c-0.07,0.11-0.13,0.23-0.17,0.36c-0.04,0.13-0.08,0.26-0.1,0.38l-0.14,0.81h1.16l-0.17,0.96h-1.14l-0.7,3.95
		h-1.17l0.7-3.95h-0.93l0.16-0.96h0.91l0.14-0.75c0.05-0.27,0.12-0.54,0.22-0.8c0.1-0.26,0.23-0.5,0.41-0.71
		c0.17-0.21,0.39-0.37,0.65-0.5c0.26-0.13,0.57-0.19,0.94-0.19c0.24,0,0.44,0.02,0.6,0.07L74.42,221.51z"/>
	<path class="st0" d="M77.64,225.17c0.01-0.08,0.02-0.14,0.03-0.19c0-0.04,0-0.09,0-0.13c0-0.24-0.08-0.41-0.23-0.51
		c-0.15-0.1-0.38-0.15-0.68-0.15c-0.24,0-0.49,0.05-0.74,0.14c-0.26,0.09-0.48,0.21-0.68,0.35l-0.46-0.81
		c0.28-0.2,0.6-0.35,0.96-0.47c0.36-0.11,0.72-0.17,1.1-0.17c0.23,0,0.46,0.03,0.69,0.08c0.23,0.05,0.43,0.13,0.61,0.25
		c0.18,0.12,0.33,0.27,0.43,0.45c0.11,0.19,0.16,0.42,0.16,0.7c0,0.06,0,0.14-0.01,0.22c-0.01,0.09-0.02,0.17-0.03,0.24l-0.36,1.99
		c-0.03,0.19-0.06,0.39-0.09,0.59c-0.02,0.2-0.04,0.37-0.04,0.51h-1.1c0-0.18,0.02-0.38,0.06-0.58h-0.02
		c-0.38,0.46-0.91,0.68-1.6,0.68c-0.17,0-0.35-0.02-0.53-0.06s-0.35-0.11-0.5-0.21c-0.15-0.1-0.27-0.23-0.37-0.4
		c-0.09-0.17-0.14-0.38-0.14-0.63c0-0.4,0.11-0.73,0.32-0.98c0.21-0.25,0.49-0.44,0.83-0.58c0.34-0.14,0.72-0.23,1.14-0.28
		C76.83,225.19,77.24,225.17,77.64,225.17z M77.39,226.02c-0.23,0-0.47,0.01-0.72,0.03c-0.25,0.02-0.48,0.06-0.68,0.12
		c-0.21,0.06-0.38,0.15-0.51,0.26c-0.13,0.11-0.2,0.26-0.2,0.45c0,0.12,0.02,0.21,0.07,0.29c0.04,0.08,0.1,0.14,0.18,0.19
		c0.08,0.05,0.16,0.08,0.26,0.1c0.1,0.02,0.19,0.03,0.3,0.03c0.18,0,0.36-0.03,0.52-0.09c0.16-0.06,0.3-0.14,0.42-0.25
		c0.12-0.11,0.22-0.23,0.3-0.37c0.08-0.14,0.13-0.29,0.17-0.46l0.06-0.31H77.39z"/>
	<path class="st0" d="M83.93,224.76c-0.09-0.15-0.23-0.28-0.41-0.38s-0.39-0.16-0.6-0.16c-0.25,0-0.49,0.05-0.7,0.15
		c-0.21,0.1-0.4,0.24-0.55,0.42s-0.27,0.38-0.36,0.62c-0.09,0.23-0.13,0.48-0.13,0.73c0,0.17,0.02,0.33,0.07,0.49
		s0.12,0.29,0.22,0.41c0.1,0.12,0.23,0.22,0.39,0.29c0.16,0.07,0.34,0.11,0.56,0.11c0.31,0,0.55-0.05,0.74-0.16
		c0.19-0.11,0.36-0.24,0.52-0.39l0.69,0.69c-0.26,0.26-0.55,0.46-0.88,0.61c-0.33,0.15-0.71,0.23-1.14,0.23
		c-0.35,0-0.68-0.05-0.97-0.15c-0.29-0.1-0.54-0.25-0.75-0.43c-0.21-0.19-0.37-0.41-0.48-0.67c-0.11-0.26-0.17-0.55-0.17-0.87
		c0-0.4,0.07-0.78,0.21-1.15c0.14-0.37,0.34-0.69,0.6-0.98c0.26-0.28,0.57-0.51,0.95-0.67c0.37-0.17,0.78-0.25,1.23-0.25
		c0.37,0,0.72,0.07,1.05,0.2c0.33,0.13,0.58,0.34,0.76,0.63L83.93,224.76z"/>
	<path class="st0" d="M85.14,224.35l0.17-0.98h0.85l0.25-1.43h1.19l-0.25,1.43h1.1l-0.17,0.98H87.2l-0.43,2.3
		c-0.02,0.1-0.03,0.2-0.03,0.28c0,0.18,0.05,0.3,0.16,0.37c0.11,0.07,0.25,0.1,0.42,0.1c0.08,0,0.16-0.01,0.24-0.02
		c0.08-0.01,0.15-0.03,0.22-0.04l-0.07,0.91c-0.1,0.04-0.22,0.07-0.36,0.1c-0.14,0.02-0.27,0.04-0.38,0.04
		c-0.52,0-0.89-0.1-1.1-0.31c-0.22-0.21-0.33-0.48-0.33-0.82c0-0.1,0.01-0.2,0.02-0.31c0.01-0.11,0.03-0.22,0.05-0.31l0.42-2.27
		H85.14z"/>
	<path class="st0" d="M88.84,228.27l0.86-4.91h1.21l-0.87,4.91H88.84z M91.31,221.68c0,0.2-0.07,0.37-0.21,0.52
		c-0.14,0.15-0.31,0.22-0.52,0.22c-0.2,0-0.37-0.06-0.51-0.18c-0.14-0.12-0.21-0.3-0.21-0.52c0-0.22,0.08-0.4,0.23-0.54
		c0.15-0.14,0.32-0.21,0.52-0.21c0.2,0,0.36,0.06,0.5,0.19C91.24,221.29,91.31,221.46,91.31,221.68z"/>
	<path class="st0" d="M94.21,228.41c-0.34,0-0.66-0.05-0.95-0.15c-0.29-0.1-0.54-0.25-0.75-0.44s-0.38-0.42-0.5-0.67
		c-0.12-0.26-0.18-0.55-0.18-0.87c0-0.4,0.07-0.79,0.21-1.15c0.14-0.36,0.34-0.69,0.6-0.97c0.26-0.28,0.57-0.5,0.94-0.67
		c0.36-0.17,0.77-0.25,1.22-0.25c0.35,0,0.67,0.05,0.96,0.15c0.29,0.1,0.54,0.25,0.75,0.43c0.21,0.19,0.38,0.41,0.5,0.67
		s0.18,0.55,0.18,0.86c0,0.41-0.07,0.8-0.21,1.17c-0.14,0.37-0.34,0.69-0.6,0.97c-0.26,0.28-0.57,0.5-0.94,0.66
		C95.07,228.32,94.66,228.41,94.21,228.41z M95.98,225.49c0-0.37-0.11-0.67-0.34-0.91c-0.22-0.24-0.53-0.36-0.92-0.36
		c-0.26,0-0.49,0.05-0.7,0.16c-0.21,0.11-0.39,0.25-0.53,0.43c-0.15,0.18-0.26,0.38-0.34,0.62c-0.08,0.23-0.12,0.48-0.12,0.74
		c0,0.37,0.11,0.67,0.33,0.91c0.22,0.24,0.52,0.36,0.92,0.36c0.26,0,0.49-0.05,0.71-0.15s0.39-0.24,0.54-0.42
		c0.15-0.18,0.26-0.38,0.34-0.62C95.94,225.99,95.98,225.75,95.98,225.49z"/>
	<path class="st0" d="M100.04,224.13c0.17-0.27,0.39-0.48,0.65-0.65c0.26-0.17,0.58-0.25,0.95-0.25c0.27,0,0.51,0.04,0.71,0.12
		c0.2,0.08,0.37,0.19,0.5,0.33c0.13,0.14,0.23,0.3,0.3,0.49c0.06,0.19,0.1,0.38,0.1,0.59c0,0.17-0.01,0.32-0.04,0.46l-0.54,3.06
		h-1.2l0.47-2.7c0.01-0.08,0.03-0.16,0.04-0.25c0.01-0.08,0.02-0.16,0.02-0.25c0-0.22-0.06-0.41-0.17-0.58
		c-0.12-0.17-0.33-0.25-0.63-0.25c-0.2,0-0.37,0.04-0.52,0.11c-0.15,0.08-0.28,0.18-0.39,0.3c-0.11,0.13-0.2,0.27-0.28,0.42
		c-0.07,0.16-0.12,0.32-0.15,0.48l-0.48,2.7h-1.2l0.67-3.86c0.03-0.13,0.06-0.3,0.09-0.5c0.03-0.2,0.05-0.39,0.07-0.55h1.13
		c-0.01,0.07-0.02,0.19-0.04,0.35c-0.02,0.16-0.04,0.3-0.05,0.41H100.04z"/>
	<path class="st0" d="M112.6,228.27h-1.23l-0.44-3.47h-0.02l-1.83,3.47h-1.23l-0.67-4.91h1.26l0.34,3.53h0.02l1.76-3.53h1.26
		l0.4,3.53h0.02l1.78-3.53h1.26L112.6,228.27z"/>
	<path class="st0" d="M115.33,228.27l0.86-4.91h1.21l-0.87,4.91H115.33z M117.79,221.68c0,0.2-0.07,0.37-0.21,0.52
		c-0.14,0.15-0.31,0.22-0.52,0.22c-0.2,0-0.37-0.06-0.51-0.18c-0.14-0.12-0.21-0.3-0.21-0.52c0-0.22,0.08-0.4,0.23-0.54
		c0.15-0.14,0.32-0.21,0.52-0.21c0.2,0,0.36,0.06,0.5,0.19C117.73,221.29,117.79,221.46,117.79,221.68z"/>
	<path class="st0" d="M118.24,224.35l0.17-0.98h0.85l0.25-1.43h1.19l-0.25,1.43h1.1l-0.17,0.98h-1.08l-0.43,2.3
		c-0.02,0.1-0.03,0.2-0.03,0.28c0,0.18,0.05,0.3,0.16,0.37c0.11,0.07,0.25,0.1,0.42,0.1c0.08,0,0.16-0.01,0.24-0.02
		c0.08-0.01,0.15-0.03,0.22-0.04l-0.07,0.91c-0.1,0.04-0.22,0.07-0.36,0.1c-0.14,0.02-0.27,0.04-0.38,0.04
		c-0.52,0-0.89-0.1-1.1-0.31c-0.22-0.21-0.33-0.48-0.33-0.82c0-0.1,0.01-0.2,0.02-0.31c0.01-0.11,0.03-0.22,0.05-0.31l0.42-2.27
		H118.24z"/>
	<path class="st0" d="M125.25,228.27l0.47-2.7c0.01-0.08,0.03-0.16,0.04-0.25c0.01-0.08,0.02-0.16,0.02-0.25
		c0-0.22-0.06-0.41-0.17-0.58c-0.12-0.17-0.33-0.25-0.63-0.25c-0.2,0-0.37,0.04-0.53,0.11c-0.15,0.08-0.29,0.18-0.4,0.3
		c-0.11,0.13-0.2,0.27-0.28,0.43c-0.07,0.16-0.12,0.33-0.15,0.5l-0.47,2.67h-1.2l1.36-7.73h1.21l-0.62,3.52h0.02
		c0.14-0.22,0.33-0.41,0.58-0.58c0.25-0.17,0.56-0.25,0.93-0.25c0.27,0,0.51,0.04,0.71,0.12c0.2,0.08,0.37,0.19,0.5,0.33
		c0.13,0.14,0.23,0.3,0.3,0.49c0.06,0.19,0.1,0.38,0.1,0.59c0,0.17-0.01,0.32-0.04,0.46l-0.54,3.06H125.25z"/>
	<path class="st0" d="M17.84,239.41c-0.14,0.18-0.31,0.36-0.5,0.52c-0.19,0.16-0.41,0.3-0.64,0.42c-0.24,0.12-0.5,0.21-0.79,0.28
		s-0.6,0.1-0.94,0.1c-0.48,0-0.92-0.08-1.32-0.23c-0.4-0.15-0.73-0.36-1.02-0.63c-0.28-0.27-0.5-0.6-0.66-0.98
		c-0.16-0.38-0.24-0.8-0.24-1.27c0-0.63,0.11-1.21,0.33-1.76c0.22-0.55,0.52-1.02,0.91-1.43c0.39-0.41,0.84-0.73,1.36-0.96
		c0.52-0.24,1.08-0.35,1.68-0.35c0.27,0,0.52,0.03,0.77,0.08c0.25,0.05,0.48,0.13,0.7,0.23c0.21,0.1,0.41,0.21,0.58,0.35
		c0.17,0.14,0.31,0.29,0.42,0.45l-0.99,0.75c-0.05-0.08-0.13-0.17-0.21-0.26c-0.09-0.09-0.2-0.18-0.33-0.25
		c-0.13-0.07-0.27-0.14-0.43-0.18c-0.16-0.05-0.34-0.07-0.54-0.07c-0.43,0-0.82,0.09-1.18,0.28c-0.36,0.18-0.66,0.43-0.92,0.74
		c-0.26,0.31-0.45,0.65-0.6,1.04c-0.14,0.39-0.21,0.79-0.21,1.2c0,0.3,0.05,0.58,0.14,0.84c0.09,0.26,0.23,0.49,0.4,0.69
		c0.17,0.19,0.39,0.35,0.65,0.47c0.26,0.12,0.56,0.17,0.89,0.17c0.36,0,0.71-0.08,1.03-0.23c0.33-0.15,0.62-0.38,0.88-0.71
		L17.84,239.41z"/>
	<path class="st0" d="M20.94,240.68c-0.34,0-0.66-0.05-0.95-0.15c-0.29-0.1-0.54-0.25-0.75-0.44c-0.21-0.19-0.38-0.42-0.5-0.67
		c-0.12-0.26-0.18-0.55-0.18-0.87c0-0.4,0.07-0.79,0.21-1.15c0.14-0.36,0.34-0.69,0.6-0.97c0.26-0.28,0.57-0.5,0.94-0.67
		c0.36-0.17,0.77-0.25,1.22-0.25c0.35,0,0.67,0.05,0.96,0.15c0.29,0.1,0.54,0.25,0.75,0.43c0.21,0.19,0.38,0.41,0.5,0.67
		c0.12,0.26,0.18,0.55,0.18,0.86c0,0.41-0.07,0.8-0.21,1.17s-0.34,0.69-0.6,0.97c-0.26,0.28-0.57,0.5-0.94,0.66
		C21.8,240.6,21.39,240.68,20.94,240.68z M22.71,237.76c0-0.37-0.11-0.67-0.34-0.91s-0.53-0.36-0.92-0.36
		c-0.26,0-0.49,0.05-0.7,0.16c-0.21,0.11-0.39,0.25-0.53,0.43c-0.15,0.18-0.26,0.38-0.34,0.62c-0.08,0.23-0.12,0.48-0.12,0.74
		c0,0.37,0.11,0.67,0.33,0.91c0.22,0.24,0.52,0.36,0.92,0.36c0.26,0,0.49-0.05,0.71-0.15c0.21-0.1,0.39-0.24,0.54-0.42
		c0.15-0.18,0.26-0.38,0.34-0.62C22.67,238.27,22.71,238.02,22.71,237.76z"/>
	<path class="st0" d="M27.32,240.68c-0.34,0-0.66-0.05-0.95-0.15c-0.29-0.1-0.54-0.25-0.75-0.44c-0.21-0.19-0.38-0.42-0.5-0.67
		c-0.12-0.26-0.18-0.55-0.18-0.87c0-0.4,0.07-0.79,0.21-1.15c0.14-0.36,0.34-0.69,0.6-0.97c0.26-0.28,0.57-0.5,0.94-0.67
		c0.36-0.17,0.77-0.25,1.22-0.25c0.35,0,0.67,0.05,0.96,0.15c0.29,0.1,0.54,0.25,0.75,0.43c0.21,0.19,0.38,0.41,0.5,0.67
		c0.12,0.26,0.18,0.55,0.18,0.86c0,0.41-0.07,0.8-0.21,1.17s-0.34,0.69-0.6,0.97c-0.26,0.28-0.57,0.5-0.94,0.66
		C28.18,240.6,27.77,240.68,27.32,240.68z M29.09,237.76c0-0.37-0.11-0.67-0.34-0.91s-0.53-0.36-0.92-0.36
		c-0.26,0-0.49,0.05-0.7,0.16c-0.21,0.11-0.39,0.25-0.53,0.43c-0.15,0.18-0.26,0.38-0.34,0.62c-0.08,0.23-0.12,0.48-0.12,0.74
		c0,0.37,0.11,0.67,0.33,0.91c0.22,0.24,0.52,0.36,0.92,0.36c0.26,0,0.49-0.05,0.71-0.15c0.21-0.1,0.39-0.24,0.54-0.42
		c0.15-0.18,0.26-0.38,0.34-0.62C29.05,238.27,29.09,238.02,29.09,237.76z"/>
	<path class="st0" d="M31.27,240.55l1.36-7.73h1.21l-1.37,7.73H31.27z"/>
	<path class="st0" d="M38.8,234.8c-0.14-0.22-0.32-0.38-0.54-0.48c-0.22-0.1-0.46-0.15-0.72-0.15c-0.13,0-0.27,0.02-0.43,0.06
		c-0.16,0.04-0.3,0.1-0.43,0.19c-0.13,0.09-0.24,0.2-0.33,0.34c-0.09,0.14-0.13,0.32-0.13,0.52c0,0.26,0.09,0.46,0.27,0.6
		c0.18,0.14,0.42,0.27,0.73,0.39c0.63,0.23,1.12,0.51,1.46,0.83c0.34,0.32,0.51,0.76,0.51,1.31c0,0.42-0.08,0.77-0.25,1.06
		c-0.16,0.29-0.38,0.53-0.64,0.72c-0.27,0.18-0.57,0.32-0.9,0.4c-0.33,0.08-0.67,0.13-1.01,0.13c-0.24,0-0.48-0.02-0.72-0.07
		c-0.24-0.05-0.47-0.12-0.69-0.21c-0.22-0.1-0.42-0.22-0.61-0.36c-0.19-0.15-0.35-0.32-0.48-0.53l1.02-0.71
		c0.14,0.24,0.34,0.43,0.62,0.59c0.28,0.15,0.58,0.23,0.92,0.23c0.17,0,0.34-0.02,0.51-0.06c0.17-0.04,0.32-0.11,0.45-0.2
		s0.24-0.21,0.33-0.36c0.09-0.15,0.13-0.33,0.13-0.55c0-0.16-0.04-0.31-0.11-0.43c-0.07-0.13-0.17-0.24-0.29-0.33
		c-0.12-0.1-0.26-0.18-0.41-0.26c-0.16-0.08-0.32-0.14-0.5-0.2c-0.22-0.08-0.42-0.17-0.62-0.28c-0.19-0.1-0.37-0.23-0.52-0.37
		c-0.15-0.15-0.27-0.32-0.35-0.53c-0.09-0.2-0.13-0.45-0.13-0.73c0-0.36,0.08-0.68,0.23-0.96c0.15-0.28,0.36-0.51,0.61-0.71
		c0.25-0.19,0.54-0.34,0.87-0.43c0.33-0.1,0.67-0.15,1.03-0.15c0.18,0,0.37,0.02,0.57,0.06c0.19,0.04,0.38,0.1,0.56,0.18
		c0.18,0.08,0.35,0.18,0.51,0.29c0.16,0.12,0.29,0.25,0.4,0.41L38.8,234.8z"/>
	<path class="st0" d="M44.29,237.03c-0.09-0.15-0.22-0.28-0.41-0.38c-0.18-0.11-0.39-0.16-0.6-0.16c-0.25,0-0.49,0.05-0.7,0.15
		c-0.21,0.1-0.4,0.24-0.55,0.42c-0.15,0.18-0.28,0.38-0.36,0.62c-0.09,0.23-0.13,0.48-0.13,0.73c0,0.17,0.02,0.33,0.07,0.49
		s0.12,0.29,0.23,0.41c0.1,0.12,0.23,0.22,0.39,0.29c0.16,0.07,0.34,0.11,0.56,0.11c0.31,0,0.55-0.05,0.74-0.16
		c0.19-0.11,0.36-0.24,0.52-0.39l0.68,0.69c-0.26,0.26-0.55,0.46-0.88,0.61c-0.33,0.15-0.71,0.23-1.14,0.23
		c-0.35,0-0.68-0.05-0.97-0.15c-0.29-0.1-0.54-0.25-0.75-0.43c-0.21-0.19-0.37-0.41-0.48-0.67c-0.11-0.26-0.17-0.55-0.17-0.87
		c0-0.4,0.07-0.78,0.21-1.15c0.14-0.37,0.34-0.69,0.6-0.98c0.26-0.28,0.57-0.51,0.95-0.67c0.37-0.17,0.78-0.25,1.23-0.25
		c0.37,0,0.72,0.07,1.05,0.2c0.33,0.13,0.58,0.34,0.76,0.63L44.29,237.03z"/>
	<path class="st0" d="M48.86,239.78c-0.17,0.27-0.39,0.48-0.65,0.65c-0.26,0.17-0.58,0.25-0.95,0.25c-0.27,0-0.51-0.04-0.71-0.12
		c-0.2-0.08-0.37-0.19-0.5-0.33c-0.13-0.14-0.23-0.3-0.3-0.49c-0.07-0.19-0.1-0.38-0.1-0.59c0-0.17,0.01-0.32,0.04-0.46l0.54-3.06
		h1.2l-0.47,2.7c-0.01,0.08-0.03,0.16-0.04,0.25c-0.01,0.08-0.02,0.16-0.02,0.25c0,0.22,0.06,0.41,0.17,0.58
		c0.12,0.17,0.33,0.25,0.63,0.25c0.19,0,0.36-0.04,0.52-0.11c0.15-0.08,0.29-0.18,0.4-0.3c0.11-0.13,0.2-0.27,0.28-0.42
		c0.07-0.16,0.12-0.32,0.15-0.48l0.48-2.7h1.2l-0.67,3.85c-0.03,0.13-0.06,0.3-0.09,0.5c-0.03,0.2-0.05,0.39-0.07,0.55h-1.13
		c0.01-0.08,0.02-0.19,0.04-0.35c0.02-0.16,0.04-0.3,0.05-0.41H48.86z"/>
	<path class="st0" d="M51.69,240.55l1.36-7.73h1.21l-1.37,7.73H51.69z"/>
	<path class="st0" d="M55.37,242.99h-1.21l1.3-7.35h1.14l-0.12,0.79h0.03c0.2-0.29,0.45-0.51,0.76-0.66
		c0.31-0.16,0.64-0.24,1.01-0.24c0.31,0,0.6,0.05,0.85,0.15c0.26,0.1,0.47,0.25,0.65,0.43c0.18,0.19,0.32,0.41,0.42,0.67
		c0.1,0.26,0.15,0.55,0.15,0.86c0,0.42-0.07,0.82-0.2,1.19c-0.13,0.37-0.32,0.69-0.56,0.97c-0.24,0.28-0.52,0.49-0.85,0.65
		c-0.33,0.16-0.69,0.24-1.09,0.24c-0.45,0-0.81-0.08-1.09-0.25c-0.28-0.17-0.49-0.39-0.63-0.68h-0.02L55.37,242.99z M59.12,237.78
		c0-0.36-0.1-0.66-0.31-0.91c-0.21-0.24-0.51-0.37-0.89-0.37c-0.24,0-0.46,0.05-0.67,0.15c-0.21,0.1-0.39,0.24-0.55,0.42
		c-0.15,0.18-0.27,0.38-0.36,0.62c-0.09,0.23-0.13,0.48-0.13,0.74c0,0.37,0.11,0.68,0.34,0.92c0.22,0.24,0.53,0.36,0.91,0.36
		c0.25,0,0.48-0.05,0.69-0.15c0.21-0.1,0.39-0.24,0.53-0.41c0.15-0.17,0.26-0.38,0.34-0.61C59.09,238.3,59.12,238.05,59.12,237.78z"
		/>
	<path class="st0" d="M61.3,236.62l0.17-0.98h0.85l0.25-1.43h1.19l-0.25,1.43h1.1l-0.17,0.98h-1.08l-0.43,2.3
		c-0.02,0.1-0.03,0.2-0.03,0.28c0,0.18,0.05,0.3,0.16,0.37c0.11,0.07,0.25,0.1,0.42,0.1c0.08,0,0.16-0.01,0.24-0.02
		c0.08-0.01,0.15-0.03,0.22-0.04l-0.07,0.91c-0.1,0.04-0.22,0.07-0.36,0.1s-0.27,0.04-0.38,0.04c-0.52,0-0.89-0.1-1.1-0.31
		c-0.22-0.21-0.33-0.48-0.33-0.82c0-0.1,0-0.2,0.02-0.31c0.01-0.11,0.03-0.22,0.05-0.31l0.42-2.27H61.3z"/>
	<path class="st0" d="M65,240.55l0.86-4.91h1.21l-0.87,4.91H65z M67.47,233.95c0,0.2-0.07,0.37-0.21,0.52
		c-0.14,0.15-0.31,0.22-0.52,0.22c-0.2,0-0.37-0.06-0.51-0.18c-0.14-0.12-0.21-0.3-0.21-0.52c0-0.22,0.07-0.4,0.22-0.54
		c0.15-0.14,0.32-0.21,0.52-0.21s0.36,0.06,0.5,0.19C67.4,233.56,67.47,233.73,67.47,233.95z"/>
	<path class="st0" d="M69.82,236.4c0.17-0.27,0.39-0.48,0.65-0.65c0.26-0.17,0.58-0.25,0.95-0.25c0.27,0,0.51,0.04,0.71,0.12
		c0.2,0.08,0.37,0.19,0.5,0.33c0.13,0.14,0.23,0.3,0.3,0.49c0.07,0.19,0.1,0.38,0.1,0.59c0,0.17-0.01,0.32-0.04,0.46l-0.54,3.06
		h-1.2l0.47-2.7c0.01-0.08,0.03-0.16,0.04-0.25c0.01-0.08,0.02-0.16,0.02-0.25c0-0.22-0.06-0.41-0.17-0.58
		c-0.12-0.17-0.33-0.25-0.63-0.25c-0.2,0-0.37,0.04-0.52,0.11c-0.15,0.08-0.28,0.18-0.39,0.3c-0.11,0.13-0.2,0.27-0.28,0.42
		c-0.07,0.16-0.12,0.32-0.15,0.48l-0.48,2.7h-1.2l0.67-3.86c0.03-0.13,0.06-0.3,0.09-0.5c0.03-0.2,0.05-0.39,0.07-0.55h1.13
		c-0.01,0.07-0.02,0.19-0.04,0.35c-0.02,0.16-0.04,0.3-0.05,0.41H69.82z"/>
	<path class="st0" d="M78.67,236.38l0.12-0.75h1.15l-0.78,4.49c-0.08,0.43-0.18,0.82-0.33,1.18c-0.14,0.35-0.33,0.66-0.57,0.91
		c-0.24,0.25-0.54,0.45-0.89,0.58c-0.35,0.14-0.78,0.2-1.28,0.2c-0.2,0-0.42-0.02-0.63-0.06c-0.22-0.04-0.43-0.09-0.64-0.17
		c-0.21-0.07-0.41-0.17-0.6-0.28c-0.19-0.11-0.35-0.23-0.49-0.38l0.8-0.87c0.19,0.22,0.43,0.4,0.71,0.52
		c0.28,0.12,0.58,0.18,0.89,0.18c0.3,0,0.55-0.04,0.76-0.13c0.21-0.09,0.38-0.2,0.53-0.35c0.14-0.15,0.26-0.33,0.34-0.54
		c0.08-0.21,0.15-0.44,0.2-0.68l0.08-0.39h-0.02c-0.18,0.23-0.41,0.42-0.7,0.56c-0.29,0.14-0.62,0.21-0.99,0.21
		c-0.31,0-0.6-0.05-0.85-0.15c-0.26-0.1-0.47-0.25-0.65-0.43c-0.18-0.18-0.32-0.41-0.42-0.66c-0.1-0.26-0.15-0.55-0.15-0.86
		c0-0.42,0.07-0.81,0.2-1.18s0.32-0.69,0.56-0.97c0.24-0.28,0.52-0.49,0.85-0.65c0.33-0.16,0.69-0.24,1.09-0.24
		c0.45,0,0.81,0.08,1.08,0.25c0.27,0.16,0.47,0.37,0.6,0.63H78.67z M75.48,238.38c0,0.36,0.1,0.66,0.31,0.91
		c0.21,0.24,0.51,0.37,0.89,0.37c0.24,0,0.46-0.05,0.67-0.15c0.21-0.1,0.39-0.24,0.55-0.42c0.15-0.18,0.27-0.38,0.36-0.61
		c0.09-0.23,0.13-0.48,0.13-0.73c0-0.37-0.11-0.68-0.34-0.92c-0.22-0.24-0.53-0.36-0.91-0.36c-0.25,0-0.48,0.05-0.69,0.15
		c-0.21,0.1-0.39,0.24-0.53,0.41c-0.15,0.17-0.26,0.38-0.34,0.61C75.51,237.87,75.48,238.12,75.48,238.38z"/>
	<path class="st0" d="M84.36,242.13c-0.26-0.47-0.46-0.99-0.6-1.57c-0.14-0.58-0.21-1.18-0.21-1.81c0-0.97,0.19-1.93,0.58-2.89
		c0.39-0.96,1-1.89,1.82-2.81l0.75,0.55c-0.36,0.4-0.67,0.82-0.94,1.25c-0.26,0.43-0.48,0.86-0.65,1.3
		c-0.17,0.44-0.3,0.88-0.39,1.31c-0.09,0.44-0.13,0.86-0.13,1.27c0,0.51,0.06,1.02,0.18,1.54c0.12,0.51,0.29,0.98,0.51,1.41
		L84.36,242.13z"/>
	<path class="st0" d="M88.9,236.4c0.17-0.27,0.39-0.48,0.65-0.65c0.26-0.17,0.58-0.25,0.95-0.25c0.27,0,0.51,0.04,0.71,0.12
		c0.2,0.08,0.37,0.19,0.5,0.33c0.13,0.14,0.23,0.3,0.3,0.49c0.06,0.19,0.1,0.38,0.1,0.59c0,0.17-0.01,0.32-0.04,0.46l-0.54,3.06
		h-1.2l0.47-2.7c0.01-0.08,0.03-0.16,0.04-0.25c0.01-0.08,0.02-0.16,0.02-0.25c0-0.22-0.06-0.41-0.17-0.58
		c-0.12-0.17-0.33-0.25-0.63-0.25c-0.2,0-0.37,0.04-0.52,0.11c-0.15,0.08-0.28,0.18-0.39,0.3c-0.11,0.13-0.2,0.27-0.28,0.42
		c-0.07,0.16-0.12,0.32-0.15,0.48l-0.48,2.7h-1.2l0.67-3.86c0.03-0.13,0.06-0.3,0.09-0.5c0.03-0.2,0.05-0.39,0.07-0.55h1.13
		c-0.01,0.07-0.02,0.19-0.04,0.35c-0.02,0.16-0.04,0.3-0.05,0.41H88.9z"/>
	<path class="st0" d="M98.98,236.01v1.04H93.8v-1.04H98.98z M98.98,237.85v1.04H93.8v-1.04H98.98z"/>
	<path class="st0" d="M102.3,240.55l1.02-5.78l-1.64,1.18l-0.57-0.92l2.51-1.72h1.17l-1.28,7.24H102.3z"/>
	<path class="st0" d="M110.19,233.12c0.38,0,0.71,0.07,0.98,0.2c0.27,0.13,0.49,0.31,0.65,0.54c0.17,0.23,0.29,0.49,0.37,0.8
		c0.08,0.3,0.12,0.62,0.12,0.96c0,0.35-0.02,0.72-0.07,1.1c-0.04,0.39-0.12,0.77-0.22,1.15c-0.1,0.38-0.24,0.74-0.4,1.08
		s-0.36,0.65-0.6,0.91c-0.24,0.26-0.51,0.47-0.82,0.63c-0.31,0.16-0.67,0.24-1.07,0.24c-0.38,0-0.71-0.07-0.98-0.19
		c-0.27-0.13-0.5-0.3-0.67-0.52c-0.17-0.22-0.3-0.48-0.38-0.77c-0.08-0.3-0.12-0.62-0.12-0.96c0-0.35,0.02-0.73,0.07-1.12
		c0.05-0.39,0.12-0.78,0.23-1.16c0.11-0.38,0.24-0.75,0.41-1.09c0.17-0.35,0.37-0.65,0.61-0.92c0.24-0.27,0.51-0.48,0.83-0.63
		C109.44,233.2,109.8,233.12,110.19,233.12z M110.09,234.13c-0.28,0-0.54,0.11-0.77,0.34c-0.23,0.23-0.43,0.53-0.59,0.9
		c-0.16,0.37-0.29,0.79-0.38,1.26c-0.09,0.47-0.14,0.94-0.14,1.42c0,0.22,0.02,0.44,0.05,0.63c0.03,0.2,0.09,0.37,0.17,0.52
		c0.08,0.15,0.18,0.27,0.31,0.35c0.13,0.09,0.29,0.13,0.47,0.13c0.27,0,0.52-0.11,0.75-0.34c0.22-0.23,0.42-0.53,0.58-0.89
		c0.16-0.37,0.29-0.79,0.38-1.26c0.09-0.47,0.13-0.95,0.13-1.43c0-0.22-0.02-0.44-0.05-0.63c-0.03-0.2-0.08-0.37-0.16-0.52
		c-0.08-0.15-0.17-0.27-0.3-0.35C110.43,234.18,110.28,234.13,110.09,234.13z"/>
	<path class="st0" d="M115.64,236.07c0.06-0.02,0.14-0.04,0.23-0.05c0.09-0.01,0.18-0.02,0.26-0.02c0.35,0,0.67,0.05,0.94,0.16
		c0.27,0.11,0.5,0.26,0.68,0.44c0.18,0.19,0.32,0.4,0.42,0.65c0.1,0.25,0.14,0.5,0.14,0.78c0,0.36-0.06,0.71-0.19,1.03
		c-0.13,0.33-0.31,0.61-0.55,0.86c-0.24,0.25-0.53,0.44-0.88,0.59c-0.35,0.15-0.75,0.22-1.2,0.22c-0.35,0-0.67-0.05-0.96-0.15
		c-0.29-0.1-0.55-0.25-0.76-0.43c-0.21-0.19-0.38-0.42-0.51-0.69c-0.12-0.27-0.18-0.58-0.18-0.92c0-0.36,0.08-0.73,0.24-1.09
		c0.16-0.37,0.42-0.78,0.79-1.23l2.37-2.9h1.46l-2.33,2.74L115.64,236.07z M114.32,238.53c0,0.18,0.03,0.35,0.1,0.5
		s0.16,0.27,0.28,0.37c0.12,0.1,0.25,0.18,0.4,0.24s0.31,0.08,0.47,0.08c0.48,0,0.85-0.15,1.13-0.44c0.28-0.29,0.41-0.68,0.41-1.17
		c0-0.19-0.03-0.36-0.1-0.51c-0.07-0.15-0.16-0.28-0.27-0.38c-0.11-0.1-0.24-0.18-0.38-0.23c-0.14-0.05-0.29-0.08-0.44-0.08
		c-0.25,0-0.47,0.04-0.67,0.12c-0.2,0.08-0.37,0.2-0.51,0.34c-0.14,0.15-0.24,0.32-0.32,0.52
		C114.35,238.09,114.32,238.31,114.32,238.53z"/>
	<path class="st0" d="M121.49,233.05c0.26,0.47,0.46,0.99,0.6,1.57c0.14,0.58,0.21,1.18,0.21,1.8c0,0.97-0.19,1.93-0.58,2.89
		c-0.39,0.96-1,1.89-1.82,2.81l-0.75-0.55c0.35-0.4,0.66-0.81,0.93-1.24c0.27-0.43,0.49-0.87,0.66-1.31
		c0.17-0.44,0.3-0.88,0.39-1.31c0.09-0.44,0.13-0.86,0.13-1.27c0-0.51-0.06-1.02-0.18-1.54c-0.12-0.51-0.29-0.98-0.51-1.41
		L121.49,233.05z"/>
	<path class="st0" d="M124.43,239.81c0,0.21-0.07,0.39-0.22,0.55c-0.15,0.15-0.33,0.23-0.54,0.23c-0.2,0-0.38-0.06-0.53-0.19
		c-0.15-0.13-0.22-0.31-0.22-0.55c0-0.22,0.08-0.41,0.24-0.56c0.16-0.15,0.34-0.22,0.54-0.22c0.2,0,0.38,0.07,0.52,0.2
		C124.36,239.41,124.43,239.58,124.43,239.81z"/>
</g>
</svg>
