<?xml version="1.0" encoding="utf-8"?>
<!-- Generator: Adobe Illustrator 25.4.1, SVG Export Plug-In . SVG Version: 6.00 Build 0)  -->
<svg version="1.1" id="Layer_1" xmlns="http://www.w3.org/2000/svg" xmlns:xlink="http://www.w3.org/1999/xlink" x="0px" y="0px"
	 viewBox="0 0 160 600" style="enable-background:new 0 0 160 600;" xml:space="preserve">
<style type="text/css">
	.st0{fill:#FFFFFF;}
</style>
<g>
	<g>
		<g>
			<g>
				<g>
					<path class="st0" d="M29.88,27.88c0,0.32-0.26,0.57-0.58,0.57c-0.32,0-0.58-0.25-0.58-0.57c0-0.32,0.26-0.57,0.59-0.57
						C29.63,27.31,29.88,27.56,29.88,27.88z M28.86,27.88c0,0.25,0.19,0.45,0.44,0.45c0.25,0,0.43-0.2,0.43-0.45
						c0-0.25-0.19-0.46-0.44-0.46C29.05,27.43,28.86,27.63,28.86,27.88z M29.21,28.17h-0.13V27.6c0.05-0.01,0.12-0.02,0.22-0.02
						c0.11,0,0.16,0.02,0.19,0.04c0.03,0.02,0.06,0.07,0.06,0.12c0,0.07-0.05,0.11-0.12,0.13v0.01c0.06,0.02,0.08,0.06,0.1,0.14
						c0.02,0.09,0.03,0.12,0.04,0.14h-0.14c-0.02-0.02-0.03-0.07-0.05-0.14c-0.01-0.06-0.04-0.09-0.12-0.09h-0.06V28.17z
						 M29.22,27.85h0.06c0.07,0,0.13-0.02,0.13-0.08c0-0.05-0.04-0.09-0.12-0.09c-0.03,0-0.06,0-0.07,0.01V27.85z"/>
				</g>
			</g>
		</g>
		<path class="st0" d="M38.37,25.91c-2.82,0-4.18-2.06-4.18-4.03c0-2.28,1.64-4.12,4.23-4.12c0.88,0,1.79,0.27,2.5,0.88l-0.8,1.11
			c-0.49-0.38-1.02-0.52-1.66-0.52c-1.37,0-2.39,0.96-2.39,2.6c0,1.5,0.94,2.7,2.44,2.7c0.64,0,1.2-0.19,1.69-0.62l0.73,1.12
			C40.23,25.62,39.28,25.91,38.37,25.91"/>
		<path class="st0" d="M45.28,25.91c-2.36,0-4.1-1.78-4.1-4.11c0-2.39,1.9-4.04,4.1-4.04c2.2,0,4.12,1.63,4.12,4.02
			C49.39,24.12,47.65,25.91,45.28,25.91 M47.49,21.79c0-1.44-0.7-2.68-2.22-2.68c-1.48,0-2.22,1.24-2.22,2.66
			c0,1.47,0.69,2.78,2.22,2.78c1.53,0,2.22-1.29,2.22-2.78V21.79z"/>
		<path class="st0" d="M54.18,25.91c-2.36,0-4.1-1.78-4.1-4.11c0-2.39,1.9-4.04,4.1-4.04c2.2,0,4.11,1.63,4.11,4.02
			C58.29,24.12,56.55,25.91,54.18,25.91 M56.39,21.79c0-1.44-0.7-2.68-2.22-2.68c-1.48,0-2.22,1.24-2.22,2.66
			c0,1.47,0.69,2.78,2.22,2.78c1.53,0,2.22-1.29,2.22-2.78V21.79z"/>
		<polygon class="st0" points="59.22,25.72 59.22,14.29 60.99,15.27 60.99,25.72 		"/>
		<path class="st0" d="M65.07,25.95c-1.99,0-2.95-0.96-2.95-0.96l0.8-1.04c0,0,0.91,0.61,2.1,0.61c0.57,0,1.05-0.4,1.05-0.8
			c0-0.4-0.18-0.74-0.7-1c-0.53-0.27-1.12-0.56-1.58-0.78c-0.46-0.22-1.48-0.91-1.48-2.25c0-1.36,1.37-2.1,2.77-2.1
			c1.34,0,2.36,0.88,2.36,0.88l-0.69,1.05c0,0-0.77-0.54-1.61-0.54c-0.85,0-1.02,0.54-1.02,0.77c0,0.22,0.08,0.57,0.62,0.86
			c0.54,0.29,1.1,0.59,1.9,1.04c0.8,0.45,1.24,1.21,1.24,2.07C67.89,24.61,67.07,25.95,65.07,25.95"/>
		<path class="st0" d="M72.68,25.91c-2.82,0-4.18-2.06-4.18-4.03c0-2.28,1.64-4.12,4.23-4.12c0.88,0,1.79,0.27,2.5,0.88l-0.8,1.11
			c-0.49-0.38-1.02-0.52-1.66-0.52c-1.37,0-2.39,0.96-2.39,2.6c0,1.5,0.94,2.7,2.44,2.7c0.64,0,1.2-0.19,1.69-0.62l0.73,1.12
			C74.55,25.62,73.59,25.91,72.68,25.91"/>
		<path class="st0" d="M81.41,24.81c0,0-0.89,1.1-2.58,1.1c-1.99,0-2.97-1.45-2.97-2.92v-5.06h1.77v4.98c0,0.86,0.67,1.58,1.71,1.58
			c0.91,0,1.8-1.08,1.8-1.08v-5.47h1.77v7.77L81.41,24.81z"/>
		<polygon class="st0" points="84.49,25.72 84.49,14.29 86.26,15.27 86.26,25.72 		"/>
		<path class="st0" d="M92.11,25.91c-1.56,0-2.46-0.88-2.46-0.88v3.88h-1.79V17.77l1.79,0.94c0,0,0.96-0.97,2.55-0.97
			c1.68,0,3.76,1.29,3.76,4.18C95.97,24.81,93.91,25.91,92.11,25.91 M92,19.11c-1.52,0-2.39,1.42-2.39,1.42v2.93
			c0,0,1.01,1.13,2.46,1.13c1.69,0,2.06-2.03,2.06-2.73C94.12,21.17,93.96,19.11,92,19.11"/>
		<path class="st0" d="M100.63,25.92h-1.12c-1.41,0-1.88-1.36-1.88-2.25V19.1h-1.4v-1.16h1.4V14.5h1.75v3.43h1.8v1.16H99.4v4.15
			c0,0.46-0.08,1.2,0.7,1.2h1.28L100.63,25.92z"/>
		<path class="st0" d="M103.47,16.59c-0.64,0-1.16-0.53-1.16-1.16c0-0.64,0.53-1.16,1.16-1.16c0.64,0,1.17,0.52,1.17,1.16
			C104.63,16.06,104.11,16.59,103.47,16.59 M102.59,17.93h1.74v7.78h-1.74V17.93z"/>
		<path class="st0" d="M111.35,25.72v-4.98c0-0.86-0.67-1.58-1.71-1.58c-0.91,0-1.93,1.08-1.93,1.08v5.47h-1.77v-7.77l1.5,0.89
			c0,0,1.02-1.1,2.71-1.1c1.99,0,2.97,1.45,2.97,2.92v5.06H111.35z"/>
		<path class="st0" d="M118.53,29.33c-0.27,0-2.35-0.03-2.35-0.03l0.03-1.42h1.74c1.69,0,2.65-0.91,2.65-2.15v-0.7
			c0,0-0.92,0.88-2.49,0.88c-1.8,0-3.86-1.1-3.86-3.99c0-2.89,2.09-4.18,3.77-4.18c1.59,0,2.55,0.97,2.55,0.97l1.79-0.89v7.74
			C122.35,27.64,120.97,29.33,118.53,29.33 M120.62,20.53c0,0-0.88-1.42-2.39-1.42c-1.96,0-2.12,2.05-2.12,2.76
			c0,0.7,0.37,2.73,2.06,2.73c1.45,0,2.46-1.13,2.46-1.13V20.53z"/>
		<polygon class="st0" points="18.33,31.62 18.33,26.53 19.33,25.53 22.22,28.41 22.22,29.38 		"/>
		<polygon class="st0" points="16.26,22.17 13,25.43 16.99,26.94 21.75,22.17 		"/>
		<polygon class="st0" points="17.87,17.63 13.67,17.63 15.01,21.51 21.75,21.51 		"/>
		<polygon class="st0" points="22.22,15.55 18.98,12.31 17.46,16.28 22.22,21.04 		"/>
		<polygon class="st0" points="32.03,26.05 27.24,26.05 23.36,22.17 30.09,22.17 		"/>
		<polygon class="st0" points="28.12,16.75 32.47,17.89 28.85,21.51 23.36,21.51 		"/>
		<polygon class="st0" points="22.89,14.31 26.77,12 26.77,17.16 22.89,21.04 		"/>
		<polygon class="st0" points="27.83,27.59 26.58,31.84 19.81,25.06 22.55,22.32 		"/>
		<g>
			<path class="st0" d="M125,18.46c0,0.46-0.37,0.82-0.84,0.82c-0.47,0-0.85-0.37-0.85-0.82c0-0.46,0.38-0.82,0.85-0.82
				C124.63,17.64,125,18,125,18.46z M123.52,18.46c0,0.36,0.28,0.66,0.64,0.66c0.36,0,0.63-0.29,0.63-0.65
				c0-0.36-0.27-0.66-0.64-0.66C123.8,17.8,123.52,18.1,123.52,18.46z M124.03,18.88h-0.19v-0.82c0.07-0.01,0.18-0.02,0.31-0.02
				c0.16,0,0.23,0.02,0.28,0.07c0.05,0.04,0.08,0.1,0.08,0.18c0,0.1-0.08,0.16-0.17,0.2v0.01c0.08,0.03,0.12,0.09,0.14,0.2
				c0.03,0.13,0.04,0.17,0.06,0.2h-0.2c-0.02-0.03-0.04-0.1-0.06-0.2c-0.01-0.08-0.06-0.13-0.17-0.13h-0.09V18.88z M124.03,18.42
				h0.09c0.11,0,0.19-0.03,0.19-0.12c0-0.07-0.05-0.13-0.18-0.13c-0.05,0-0.09,0.01-0.11,0.01V18.42z"/>
		</g>
	</g>
</g>
</svg>
