<svg id="Layer_1" xmlns="http://www.w3.org/2000/svg" viewBox="0 0 970 250"><style>.st0{fill:#fff}</style><path class="st0" d="M31.77 112.65h1.79c1.75 0 2.45-.47 2.45-2.34V87.17H35c-5.49 0-6.66 3.82-7.64 9.82h-.55l.51-10.4h20.69l.43 10.4h-.55c-.94-6-2.14-9.82-7.64-9.82h-1.01v23.14c0 1.87.66 2.34 2.45 2.34h1.75v.58H31.77v-.58zM47.78 109.92c0-3.31 2.96-5.06 10.28-6.78v-1.13c0-3.74-1.48-5.03-3.82-5.03-2.1 0-3.9.9-3.9 1.6 0 .12.04.16.19.16.78 0 1.64.74 1.64 1.71 0 1.01-.78 1.79-1.75 1.79-1.01 0-1.75-.74-1.75-1.87 0-2.03 2.14-3.93 6.31-3.93 3.12 0 5.84 1.13 5.84 5.73v7.99c0 1.64.47 2.14 1.01 2.14.94 0 1.32-.97 1.36-3.12h.55c-.08 3.7-1.36 4.4-2.96 4.4-1.52 0-2.92-.86-2.73-3.66h-.08c-.74 2.03-3.08 3.74-5.8 3.74-2.48 0-4.39-1.24-4.39-3.74zm10.28-3.35v-2.8c-5.96 1.21-7.05 3.27-7.05 5.49 0 1.75.94 3.04 2.73 3.04 1.91 0 4.32-1.4 4.32-5.73zM64.61 112.69h.16c1.75 0 2.14-.47 2.14-2.34V89.43c0-1.87-.39-2.34-2.14-2.34h-.31v-.55l5.22-.58v24.39c0 1.87.39 2.34 2.1 2.34h.31v.55h-7.48v-.55zM73.57 112.69h.19c1.71 0 2.1-.43 2.1-2.18V89.32c0-1.79-.39-2.22-2.1-2.22h-.35v-.55l5.22-.58v20.45l5.88-6.31c.78-.82 1.01-1.21 1.01-1.71 0-.58-.7-.93-1.99-1.01v-.43h6.86v.43c-2.26.23-2.8.78-4.25 2.22l-3.19 3.27c0-.04 5.65 7.95 5.65 7.95.9 1.25 1.25 1.75 2.8 1.87v.55h-7.25v-.51c1.25-.12 1.67-.47 1.67-.9 0-.23-.08-.43-.51-1.05l-4.21-6.04-2.49 2.49v3.27c0 1.75.39 2.18 2.14 2.18h.23v.55h-7.44v-.55zM103.69 108.75V97.54h-2.65v-.47c2.49-.43 4.56-2.14 4.95-7.17h.51v7.01h5.26v.62h-5.26v11.41c0 2.45.9 3.66 2.65 3.66 1.6 0 2.88-1.75 3.04-5.18h.55c0 3.97-1.75 6.31-4.56 6.31-2.78.01-4.49-1.59-4.49-4.98zM114.25 105.05c0-5.06 3.97-8.69 7.64-8.69 3.66 0 7.6 3.54 7.6 8.61 0 4.95-3.93 8.84-7.6 8.84-3.67.01-7.64-3.81-7.64-8.76zm11.96.04c0-4.52-1.17-8.18-4.32-8.18s-4.32 3.58-4.32 8.1c0 4.48 1.09 8.26 4.32 8.26s4.32-3.7 4.32-8.18zM140.24 118.42c0-1.21.82-2.06 1.99-2.06.94 0 1.6.82 1.6 1.64 0 .7-.27 1.09-.55 1.36-.23.23-.43.35-.43.66 0 .39.43.66 1.01.66 1.79 0 3-2.45 4.13-5.18l.51-1.21-5.84-14.18c-.7-1.75-1.25-2.53-2.84-2.65v-.51h7.83v.51c-1.36.12-1.99.55-2.03 1.17-.04.58.16 1.25.47 2.06l3.86 10.21 3.51-9.19c.35-.9.74-1.99.74-2.73 0-1.01-.66-1.4-2.14-1.52v-.51h5.77v.51c-1.71.12-2.14 1.05-2.77 2.65l-6.27 15.35c-1.95 4.79-3.43 5.88-5.26 5.88-2.16 0-3.29-1.33-3.29-2.92zM157.85 105.05c0-5.06 3.97-8.69 7.64-8.69 3.66 0 7.6 3.54 7.6 8.61 0 4.95-3.93 8.84-7.6 8.84-3.67.01-7.64-3.81-7.64-8.76zm11.96.04c0-4.52-1.17-8.18-4.32-8.18s-4.32 3.58-4.32 8.1c0 4.48 1.09 8.26 4.32 8.26s4.32-3.7 4.32-8.18zM176.78 108.09v-8.41c0-1.71-.39-2.22-2.1-2.22h-.35v-.51l5.22-.31v12.15c0 2.77 1.05 3.86 2.88 3.86 2.42 0 4.83-3.43 4.83-6.7v-6.23c0-1.79-.39-2.26-2.1-2.26h-.78v-.51l5.69-.31v13.63c0 1.75.43 2.26 2.14 2.26h.27v.51l-5.18.58.19-4.83h-.08c-1.01 2.65-3.27 4.83-5.92 4.83-3.07 0-4.71-1.79-4.71-5.53zM193.69 112.69h.27c1.71 0 2.1-.43 2.1-2.18V99.6c0-1.75-.47-2.18-2.1-2.18h-.27v-.47l5.18-.31-.27 6.58h.08c1.21-4.25 3.16-6.78 5.73-6.78 1.99 0 3.12 1.17 3.12 2.53 0 1.52-.86 2.3-1.95 2.3-.97 0-1.75-.62-1.75-1.6 0-.86.47-1.25.82-1.56.19-.16.31-.27.31-.47 0-.31-.39-.39-.86-.39-2.81 0-5.18 5.53-5.18 8.61v4.64c0 1.75.39 2.18 2.1 2.18h.9v.55h-8.22v-.54zM217.15 120.64h.47c1.71 0 2.1-.43 2.1-2.22V99.68c0-1.79-.39-2.22-2.1-2.22h-.27v-.51l5.06-.31-.12 3.97h.08c1.25-2.42 2.92-4.09 5.45-4.09 3.19 0 6.82 3.31 6.82 8.53 0 5.14-3.55 8.57-6.97 8.57-2.65 0-4.29-1.83-5.34-4.21h-.04s.16 2.42.16 4.87v4.13c0 1.79.39 2.22 2.1 2.22h.9v.55h-8.3v-.54zm14.22-15.51c0-4.05-.94-7.99-3.93-7.99-1.91 0-5.03 2.26-5.03 7.95 0 4.01 2.14 7.91 4.95 7.91 2.99 0 4.01-3.66 4.01-7.87zM236.47 112.69h.27c1.71 0 2.1-.43 2.1-2.18V99.6c0-1.75-.47-2.18-2.1-2.18h-.27v-.47l5.18-.31-.27 6.58h.08c1.21-4.25 3.16-6.78 5.73-6.78 1.99 0 3.12 1.17 3.12 2.53 0 1.52-.86 2.3-1.95 2.3-.97 0-1.75-.62-1.75-1.6 0-.86.47-1.25.82-1.56.19-.16.31-.27.31-.47 0-.31-.39-.39-.86-.39-2.81 0-5.18 5.53-5.18 8.61v4.64c0 1.75.39 2.18 2.1 2.18h.9v.55h-8.22v-.54zM251.12 105.05c0-5.06 3.97-8.69 7.64-8.69 3.66 0 7.6 3.54 7.6 8.61 0 4.95-3.93 8.84-7.6 8.84-3.66.01-7.64-3.81-7.64-8.76zm11.96.04c0-4.52-1.17-8.18-4.32-8.18s-4.32 3.58-4.32 8.1c0 4.48 1.09 8.26 4.32 8.26s4.32-3.7 4.32-8.18zM269.63 99.99c-.74-1.75-1.21-2.42-2.8-2.53v-.51h7.79v.51c-1.56.12-1.99.51-2.03 1.13-.04.58.16 1.32.43 2.03l3.74 9.93 3.47-8.96c.35-.93.74-1.91.74-2.65 0-1.01-.66-1.36-2.14-1.48v-.51h5.61v.51c-1.6.12-2.1 1.01-2.73 2.53l-5.77 14.02h-.55l-5.76-14.02zM285.22 112.69h.31c1.71 0 2.1-.43 2.1-2.18V99.68c0-1.79-.39-2.22-2.1-2.22h-.31v-.51l5.18-.31v13.87c0 1.75.39 2.18 2.1 2.18h.31v.55h-7.6v-.55zm1.28-22.28c0-1.17.97-2.14 2.14-2.14 1.17 0 2.14.97 2.14 2.14 0 1.17-.97 2.14-2.14 2.14-1.17 0-2.14-.97-2.14-2.14zM294.64 105.09c0-4.83 3.08-8.57 6.86-8.57 2.34 0 4.17 1.64 5.38 4.01h.12c-.08-1.09-.12-3.43-.12-5.88v-5.3c0-1.79-.43-2.22-2.14-2.22h-.97v-.55l5.88-.58v24.31c0 1.75.35 2.26 2.06 2.26h.31v.55l-5.14.58.16-4.36h-.12c-1.29 2.38-2.92 4.29-5.57 4.29-3.24-.01-6.71-3.24-6.71-8.54zm12.24-.04c0-5.8-3.23-7.95-4.91-7.95-3.19 0-4.05 3.62-4.05 7.87 0 4.32 1.05 8.02 4.01 8.02 2.02.01 4.95-2.79 4.95-7.94zM313.58 105.17c0-5.26 3.66-8.8 7.56-8.8 3.12 0 6.7 2.42 6.7 7.44 0 .12-.04.97-.08 1.17h-10.99c0 4.29 1.71 7.6 5.06 7.6 3 0 4.52-1.52 5.8-3.39l.43.31c-1.44 2.42-3.7 4.32-7.09 4.32-4.47 0-7.39-3.31-7.39-8.65zm9.04-.82c1.56 0 1.99-.51 1.99-1.75 0-3.12-1.09-5.65-3.58-5.65-2.73 0-4.13 2.92-4.25 7.4h5.84zM329.79 112.69h.27c1.71 0 2.1-.43 2.1-2.18V99.6c0-1.75-.47-2.18-2.1-2.18h-.27v-.47l5.18-.31-.27 6.58h.08c1.21-4.25 3.16-6.78 5.73-6.78 1.99 0 3.12 1.17 3.12 2.53 0 1.52-.86 2.3-1.95 2.3-.97 0-1.75-.62-1.75-1.6 0-.86.47-1.25.82-1.56.19-.16.31-.27.31-.47 0-.31-.39-.39-.86-.39-2.8 0-5.18 5.53-5.18 8.61v4.64c0 1.75.39 2.18 2.1 2.18h.9v.55h-8.22v-.54zM354.06 109.92c0-3.31 2.96-5.06 10.28-6.78v-1.13c0-3.74-1.48-5.03-3.82-5.03-2.1 0-3.9.9-3.9 1.6 0 .12.04.16.19.16.78 0 1.64.74 1.64 1.71 0 1.01-.78 1.79-1.75 1.79-1.01 0-1.75-.74-1.75-1.87 0-2.03 2.14-3.93 6.31-3.93 3.12 0 5.84 1.13 5.84 5.73v7.99c0 1.64.47 2.14 1.01 2.14.94 0 1.32-.97 1.36-3.12h.55c-.08 3.7-1.36 4.4-2.96 4.4-1.52 0-2.92-.86-2.73-3.66h-.08c-.74 2.03-3.08 3.74-5.8 3.74-2.48 0-4.39-1.24-4.39-3.74zm10.29-3.35v-2.8c-5.96 1.21-7.05 3.27-7.05 5.49 0 1.75.94 3.04 2.73 3.04 1.9 0 4.32-1.4 4.32-5.73zM372.69 106.61v-17.3c0-1.79-.39-2.22-2.1-2.22h-.66v-.55l5.49-.58v8.45c0 3-.12 6.12-.12 6.12h.08c1.48-2.57 3-4.01 5.53-4.01 3.39 0 6.7 3.66 6.7 8.49 0 5.38-3.58 8.61-6.82 8.61-2.65 0-4.05-1.48-5.38-3.86h-.08l-2.65 4.17h-.51c.4-2.21.52-4.94.52-7.32zm11.64-1.52c0-4.29-1.01-7.95-3.9-7.95-2.65 0-5.06 3.23-5.06 7.91 0 4.36 2.18 7.95 4.99 7.95 2.3 0 3.97-2.18 3.97-7.91zM389.87 105.05c0-5.06 3.97-8.69 7.64-8.69 3.66 0 7.6 3.54 7.6 8.61 0 4.95-3.93 8.84-7.6 8.84-3.67.01-7.64-3.81-7.64-8.76zm11.96.04c0-4.52-1.17-8.18-4.32-8.18s-4.32 3.58-4.32 8.1c0 4.48 1.09 8.26 4.32 8.26s4.32-3.7 4.32-8.18zM408.8 108.09v-8.41c0-1.71-.39-2.22-2.1-2.22h-.35v-.51l5.22-.31v12.15c0 2.77 1.05 3.86 2.88 3.86 2.42 0 4.83-3.43 4.83-6.7v-6.23c0-1.79-.39-2.26-2.1-2.26h-.78v-.51l5.69-.31v13.63c0 1.75.43 2.26 2.14 2.26h.27v.51l-5.18.58.19-4.83h-.08c-1.01 2.65-3.27 4.83-5.92 4.83-3.07 0-4.71-1.79-4.71-5.53zM427.82 108.75V97.54h-2.65v-.47c2.49-.43 4.56-2.14 4.95-7.17h.51v7.01h5.26v.62h-5.26v11.41c0 2.45.9 3.66 2.65 3.66 1.6 0 2.88-1.75 3.04-5.18h.55c0 3.97-1.75 6.31-4.56 6.31-2.78.01-4.49-1.59-4.49-4.98zM447.61 109.92c0-3.31 2.96-5.06 10.28-6.78v-1.13c0-3.74-1.48-5.03-3.82-5.03-2.1 0-3.9.9-3.9 1.6 0 .12.04.16.19.16.78 0 1.64.74 1.64 1.71 0 1.01-.78 1.79-1.75 1.79-1.01 0-1.75-.74-1.75-1.87 0-2.03 2.14-3.93 6.31-3.93 3.12 0 5.84 1.13 5.84 5.73v7.99c0 1.64.47 2.14 1.01 2.14.94 0 1.32-.97 1.36-3.12h.55c-.08 3.7-1.36 4.4-2.96 4.4-1.52 0-2.92-.86-2.73-3.66h-.08c-.74 2.03-3.08 3.74-5.8 3.74-2.48 0-4.39-1.24-4.39-3.74zm10.28-3.35v-2.8c-5.96 1.21-7.05 3.27-7.05 5.49 0 1.75.94 3.04 2.73 3.04 1.91 0 4.32-1.4 4.32-5.73zM26.04 157.1h.47c1.71 0 2.1-.43 2.1-2.22v-18.74c0-1.79-.39-2.22-2.1-2.22h-.27v-.51l5.06-.31-.12 3.97h.08c1.25-2.42 2.92-4.09 5.45-4.09 3.19 0 6.82 3.31 6.82 8.53 0 5.14-3.55 8.57-6.97 8.57-2.65 0-4.29-1.83-5.34-4.21h-.04s.16 2.42.16 4.87v4.13c0 1.79.39 2.22 2.1 2.22h.9v.55h-8.3v-.54zm14.22-15.5c0-4.05-.94-7.99-3.93-7.99-1.91 0-5.03 2.26-5.03 7.95 0 4.01 2.14 7.91 4.95 7.91 3 0 4.01-3.67 4.01-7.87zM45.79 141.64c0-5.26 3.66-8.8 7.56-8.8 3.12 0 6.7 2.42 6.7 7.44 0 .12-.04.97-.08 1.17H48.99c0 4.29 1.71 7.6 5.06 7.6 3 0 4.52-1.52 5.8-3.39l.43.31c-1.44 2.42-3.7 4.32-7.09 4.32-4.48-.01-7.4-3.32-7.4-8.65zm9.04-.82c1.56 0 1.99-.51 1.99-1.75 0-3.12-1.09-5.65-3.58-5.65-2.73 0-4.13 2.92-4.25 7.4h5.84zM62 149.16h.27c1.71 0 2.1-.43 2.1-2.18v-10.91c0-1.75-.47-2.18-2.1-2.18H62v-.47l5.18-.31-.27 6.58h.08c1.21-4.25 3.16-6.78 5.73-6.78 1.99 0 3.12 1.17 3.12 2.53 0 1.52-.86 2.3-1.95 2.3-.97 0-1.75-.62-1.75-1.6 0-.86.47-1.25.82-1.56.19-.16.31-.27.31-.47 0-.31-.39-.39-.86-.39-2.8 0-5.18 5.53-5.18 8.61v4.64c0 1.75.39 2.18 2.1 2.18h.9v.54H62v-.53zM79.07 148.73c-.58 0-1.09.47-1.4 1.32h-.39v-6.62h.35c.66 3.82 3.78 6.12 6.86 6.12 2.3 0 3.93-1.32 3.93-3.16 0-1.75-1.21-2.42-5.14-3.54-3.43-.97-5.8-1.87-5.8-5.26 0-2.8 2.1-4.56 5.06-4.56 2.26 0 3.27 1.01 4.48 1.01.62 0 1.13-.31 1.4-.97h.39v5.92h-.35c-.62-3.19-2.84-5.42-6.12-5.42-1.79 0-3.23 1.17-3.23 2.88 0 1.83 1.52 2.42 4.79 3.27 4.25 1.13 6.16 2.34 6.16 5.42 0 3.12-2.38 4.95-5.73 4.95-2.42 0-4.33-1.36-5.26-1.36zM92.39 141.52c0-5.06 3.97-8.69 7.64-8.69 3.66 0 7.6 3.54 7.6 8.61 0 4.95-3.93 8.84-7.6 8.84-3.66 0-7.64-3.81-7.64-8.76zm11.96.04c0-4.52-1.17-8.18-4.32-8.18s-4.32 3.58-4.32 8.1c0 4.48 1.09 8.26 4.32 8.26s4.32-3.7 4.32-8.18zM109.46 149.16h.27c1.71 0 2.1-.43 2.1-2.18V136.1c0-1.75-.39-2.22-2.1-2.22h-.27v-.47l5.18-.31-.19 4.79h.08c1.05-3.16 3.51-4.83 6.04-4.83 3.16 0 4.6 1.95 4.6 5.8v8.1c0 1.75.39 2.18 2.14 2.18h.08v.54h-7.52v-.54h.39c1.75 0 2.14-.43 2.14-2.18v-9.08c0-2.73-1.17-3.58-2.73-3.58-2.84 0-4.99 2.84-4.99 6.31v6.35c0 1.75.39 2.18 2.1 2.18h.39v.54h-7.71v-.52zM128.82 146.39c0-3.31 2.96-5.06 10.28-6.78v-1.13c0-3.74-1.48-5.02-3.82-5.02-2.1 0-3.9.9-3.9 1.6 0 .12.04.16.19.16.78 0 1.64.74 1.64 1.71 0 1.01-.78 1.79-1.75 1.79-1.01 0-1.75-.74-1.75-1.87 0-2.03 2.14-3.93 6.31-3.93 3.12 0 5.84 1.13 5.84 5.73v7.99c0 1.64.47 2.14 1.01 2.14.94 0 1.32-.97 1.36-3.12h.55c-.08 3.7-1.36 4.4-2.96 4.4-1.52 0-2.92-.86-2.73-3.66h-.08c-.74 2.03-3.08 3.74-5.8 3.74-2.48-.01-4.39-1.26-4.39-3.75zm10.29-3.35v-2.8c-5.96 1.21-7.05 3.27-7.05 5.49 0 1.75.94 3.04 2.73 3.04 1.9 0 4.32-1.41 4.32-5.73zM145.65 149.16h.16c1.75 0 2.14-.47 2.14-2.34V125.9c0-1.87-.39-2.34-2.14-2.34h-.31v-.55l5.22-.58v24.39c0 1.87.39 2.34 2.1 2.34h.31v.54h-7.48v-.54zM154.54 149.16h.31c1.71 0 2.1-.43 2.1-2.18v-10.83c0-1.79-.39-2.22-2.1-2.22h-.31v-.51l5.18-.31v13.87c0 1.75.39 2.18 2.1 2.18h.31v.54h-7.6v-.54zm1.28-22.29c0-1.17.97-2.14 2.14-2.14 1.17 0 2.14.97 2.14 2.14 0 1.17-.97 2.14-2.14 2.14-1.16 0-2.14-.97-2.14-2.14zM163.69 149.31l10.67-15.39h-3.51c-3.62 0-5.06 1.83-6.08 5.92h-.39l.43-6.43h12.78v.31l-10.71 15.46h4.44c4.09 0 5.38-2.42 6.08-6.27h.39l-.43 6.78h-13.67v-.38zM179.98 141.64c0-5.26 3.66-8.8 7.56-8.8 3.12 0 6.7 2.42 6.7 7.44 0 .12-.04.97-.08 1.17h-10.99c0 4.29 1.71 7.6 5.06 7.6 3 0 4.52-1.52 5.8-3.39l.43.31c-1.44 2.42-3.7 4.32-7.09 4.32-4.47-.01-7.39-3.32-7.39-8.65zm9.04-.82c1.56 0 1.99-.51 1.99-1.75 0-3.12-1.09-5.65-3.58-5.65-2.73 0-4.13 2.92-4.25 7.4h5.84zM196.62 141.56c0-4.83 3.08-8.57 6.86-8.57 2.34 0 4.17 1.64 5.38 4.01h.12c-.08-1.09-.12-3.43-.12-5.88v-5.3c0-1.79-.43-2.22-2.14-2.22h-.97v-.55l5.88-.58v24.31c0 1.75.35 2.26 2.06 2.26h.31v.54l-5.14.58.16-4.36h-.12c-1.29 2.38-2.92 4.29-5.57 4.29-3.25 0-6.71-3.23-6.71-8.53zm12.23-.04c0-5.8-3.23-7.95-4.91-7.95-3.19 0-4.05 3.62-4.05 7.87 0 4.32 1.05 8.03 4.01 8.03 2.03 0 4.95-2.81 4.95-7.95zM226.54 145.22V134h-2.65v-.47c2.49-.43 4.56-2.14 4.95-7.17h.51v7.01h5.26v.63h-5.26v11.41c0 2.45.9 3.66 2.65 3.66 1.6 0 2.88-1.75 3.04-5.18h.55c0 3.97-1.75 6.31-4.56 6.31-2.78.01-4.49-1.59-4.49-4.98zM236.67 149.16h.27c1.71 0 2.1-.43 2.1-2.18v-10.91c0-1.75-.47-2.18-2.1-2.18h-.27v-.47l5.18-.31-.27 6.58h.08c1.21-4.25 3.16-6.78 5.73-6.78 1.99 0 3.12 1.17 3.12 2.53 0 1.52-.86 2.3-1.95 2.3-.97 0-1.75-.62-1.75-1.6 0-.86.47-1.25.82-1.56.19-.16.31-.27.31-.47 0-.31-.39-.39-.86-.39-2.81 0-5.18 5.53-5.18 8.61v4.64c0 1.75.39 2.18 2.1 2.18h.9v.54h-8.22v-.53zM251.32 141.64c0-5.26 3.66-8.8 7.56-8.8 3.12 0 6.7 2.42 6.7 7.44 0 .12-.04.97-.08 1.17h-10.99c0 4.29 1.71 7.6 5.06 7.6 3 0 4.52-1.52 5.8-3.39l.43.31c-1.44 2.42-3.7 4.32-7.09 4.32-4.47-.01-7.39-3.32-7.39-8.65zm9.04-.82c1.56 0 1.99-.51 1.99-1.75 0-3.12-1.09-5.65-3.58-5.65-2.73 0-4.13 2.92-4.25 7.4h5.84zM267.88 146.39c0-3.31 2.96-5.06 10.28-6.78v-1.13c0-3.74-1.48-5.02-3.82-5.02-2.1 0-3.9.9-3.9 1.6 0 .12.04.16.19.16.78 0 1.64.74 1.64 1.71 0 1.01-.78 1.79-1.75 1.79-1.01 0-1.75-.74-1.75-1.87 0-2.03 2.14-3.93 6.31-3.93 3.12 0 5.84 1.13 5.84 5.73v7.99c0 1.64.47 2.14 1.01 2.14.94 0 1.32-.97 1.36-3.12h.54c-.08 3.7-1.36 4.4-2.96 4.4-1.52 0-2.92-.86-2.73-3.66h-.08c-.74 2.03-3.08 3.74-5.8 3.74-2.47-.01-4.38-1.26-4.38-3.75zm10.28-3.35v-2.8c-5.96 1.21-7.05 3.27-7.05 5.49 0 1.75.94 3.04 2.73 3.04 1.91 0 4.32-1.41 4.32-5.73zM286.42 145.22V134h-2.65v-.47c2.49-.43 4.56-2.14 4.95-7.17h.51v7.01h5.26v.63h-5.26v11.41c0 2.45.9 3.66 2.65 3.66 1.6 0 2.88-1.75 3.04-5.18h.55c0 3.97-1.75 6.31-4.56 6.31-2.77.01-4.49-1.59-4.49-4.98zM296.55 149.16h.27c1.71 0 2.1-.43 2.1-2.18V136.1c0-1.75-.39-2.22-2.1-2.22h-.27v-.47l5.18-.31-.19 4.79h.08c1.01-3.04 3.39-4.83 5.92-4.83 2.96 0 4.13 1.87 4.44 4.4 1.21-2.73 3.35-4.4 5.8-4.4 3.16 0 4.48 1.95 4.48 5.8v8.1c0 1.75.39 2.18 2.14 2.18h.08v.54h-7.52v-.54h.39c1.75 0 2.14-.43 2.14-2.18v-9.08c0-2.73-1.05-3.58-2.61-3.58-2.84 0-4.87 3.12-4.87 6.31v6.35c0 1.75.39 2.18 2.14 2.18h.35v.54h-7.79v-.54h.39c1.75 0 2.14-.43 2.14-2.18v-9.08c0-2.73-1.05-3.58-2.61-3.58-2.81 0-4.87 3-4.87 6.31v6.35c0 1.75.39 2.18 2.1 2.18h.39v.54h-7.71v-.52zM326.01 141.64c0-5.26 3.66-8.8 7.56-8.8 3.12 0 6.7 2.42 6.7 7.44 0 .12-.04.97-.08 1.17H329.2c0 4.29 1.71 7.6 5.06 7.6 3 0 4.52-1.52 5.8-3.39l.43.31c-1.44 2.42-3.7 4.32-7.09 4.32-4.47-.01-7.39-3.32-7.39-8.65zm9.04-.82c1.56 0 1.99-.51 1.99-1.75 0-3.12-1.09-5.65-3.58-5.65-2.73 0-4.13 2.92-4.25 7.4h5.84zM342.22 149.16h.27c1.71 0 2.1-.43 2.1-2.18V136.1c0-1.75-.39-2.22-2.1-2.22h-.27v-.47l5.18-.31-.19 4.79h.08c1.05-3.16 3.51-4.83 6.04-4.83 3.16 0 4.6 1.95 4.6 5.8v8.1c0 1.75.39 2.18 2.14 2.18h.08v.54h-7.52v-.54h.39c1.75 0 2.14-.43 2.14-2.18v-9.08c0-2.73-1.17-3.58-2.73-3.58-2.84 0-4.99 2.84-4.99 6.31v6.35c0 1.75.39 2.18 2.1 2.18h.39v.54h-7.71v-.52zM363.33 145.22V134h-2.65v-.47c2.49-.43 4.56-2.14 4.95-7.17h.51v7.01h5.26v.63h-5.26v11.41c0 2.45.9 3.66 2.65 3.66 1.6 0 2.88-1.75 3.04-5.18h.55c0 3.97-1.75 6.31-4.56 6.31-2.77.01-4.49-1.59-4.49-4.98zM382.31 157.1h.47c1.71 0 2.1-.43 2.1-2.22v-18.74c0-1.79-.39-2.22-2.1-2.22h-.27v-.51l5.06-.31-.12 3.97h.08c1.25-2.42 2.92-4.09 5.45-4.09 3.19 0 6.82 3.31 6.82 8.53 0 5.14-3.55 8.57-6.97 8.57-2.65 0-4.29-1.83-5.34-4.21h-.04s.16 2.42.16 4.87v4.13c0 1.79.39 2.22 2.1 2.22h.9v.55h-8.3v-.54zm14.22-15.5c0-4.05-.94-7.99-3.93-7.99-1.91 0-5.03 2.26-5.03 7.95 0 4.01 2.14 7.91 4.95 7.91 3 0 4.01-3.67 4.01-7.87zM401.63 149.16h.16c1.75 0 2.14-.47 2.14-2.34V125.9c0-1.87-.39-2.34-2.14-2.34h-.31v-.55l5.22-.58v24.39c0 1.87.39 2.34 2.1 2.34h.31v.54h-7.48v-.54zM410.79 146.39c0-3.31 2.96-5.06 10.28-6.78v-1.13c0-3.74-1.48-5.02-3.82-5.02-2.1 0-3.9.9-3.9 1.6 0 .12.04.16.19.16.78 0 1.64.74 1.64 1.71 0 1.01-.78 1.79-1.75 1.79-1.01 0-1.75-.74-1.75-1.87 0-2.03 2.14-3.93 6.31-3.93 3.12 0 5.84 1.13 5.84 5.73v7.99c0 1.64.47 2.14 1.01 2.14.94 0 1.32-.97 1.36-3.12h.54c-.08 3.7-1.36 4.4-2.96 4.4-1.52 0-2.92-.86-2.73-3.66H421c-.74 2.03-3.08 3.74-5.8 3.74-2.5-.01-4.41-1.26-4.41-3.75zm10.28-3.35v-2.8c-5.96 1.21-7.05 3.27-7.05 5.49 0 1.75.94 3.04 2.73 3.04 1.91 0 4.32-1.41 4.32-5.73zM427.62 149.16h.27c1.71 0 2.1-.43 2.1-2.18V136.1c0-1.75-.39-2.22-2.1-2.22h-.27v-.47l5.18-.31-.19 4.79h.08c1.05-3.16 3.51-4.83 6.04-4.83 3.16 0 4.6 1.95 4.6 5.8v8.1c0 1.75.39 2.18 2.14 2.18h.08v.54h-7.52v-.54h.39c1.75 0 2.14-.43 2.14-2.18v-9.08c0-2.73-1.17-3.58-2.73-3.58-2.84 0-4.99 2.84-4.99 6.31v6.35c0 1.75.39 2.18 2.1 2.18h.39v.54h-7.71v-.52zM448.04 147.75c0-1.25.97-2.22 2.22-2.22s2.22.97 2.22 2.22c0 1.25-.97 2.22-2.22 2.22s-2.22-.97-2.22-2.22z"/></svg>