<svg id="Layer_1" xmlns="http://www.w3.org/2000/svg" viewBox="0 0 970 250"><style>.st0{fill:#fff}</style><path class="st0" d="M29.28 90.82c0-1.29.78-2.34 2.03-2.34s2.03.9 2.03 2.11c0 .82-.39 1.33-.98 1.76-.31.23-.62.39-.62.62-.04.82 1.37 1.21 2.46 1.21 5.31 0 6.52-6.13 6.32-13.27-1.09 2.07-3 3.36-5.03 3.36-4.1 0-6.87-2.77-6.87-7.61 0-4.99 3.51-8.27 7.53-8.27 4.88 0 7.8 4.56 7.8 11.98 0 8.12-4.1 14.4-9.72 14.4-3.23-.01-4.95-2.12-4.95-3.95zm11.28-14.4c0-3.82-1.25-7.53-4.33-7.53-3.04 0-4.14 3.82-4.14 7.65 0 4.17 1.05 7.06 3.94 7.06 2.65 0 4.53-3.36 4.53-7.18zM56.12 86.06c0-5.07 3.98-8.7 7.65-8.7 3.67 0 7.61 3.55 7.61 8.62 0 4.96-3.94 8.86-7.61 8.86-3.67-.01-7.65-3.83-7.65-8.78zm11.98.04c0-4.53-1.17-8.19-4.33-8.19s-4.33 3.59-4.33 8.12c0 4.49 1.09 8.27 4.33 8.27 3.24-.01 4.33-3.72 4.33-8.2zM75.08 89.1v-8.43c0-1.72-.39-2.22-2.11-2.22h-.35v-.51l5.23-.31V89.8c0 2.77 1.05 3.86 2.89 3.86 2.42 0 4.84-3.43 4.84-6.71v-6.24c0-1.79-.39-2.26-2.11-2.26h-.78v-.51l5.7-.31v13.66c0 1.76.43 2.26 2.15 2.26h.27v.51l-5.19.59.19-4.84h-.08c-1.01 2.65-3.28 4.84-5.93 4.84-3.08-.01-4.72-1.81-4.72-5.55zM94.12 89.76V78.53h-2.65v-.47c2.5-.43 4.56-2.15 4.96-7.18h.51v7.02h5.27v.62h-5.27v11.43c0 2.46.9 3.67 2.65 3.67 1.6 0 2.89-1.76 3.04-5.19h.55c0 3.98-1.76 6.32-4.56 6.32-2.78.01-4.5-1.59-4.5-4.99zM114.02 86.06c0-5.07 3.98-8.7 7.65-8.7 3.67 0 7.61 3.55 7.61 8.62 0 4.96-3.94 8.86-7.61 8.86-3.67-.01-7.65-3.83-7.65-8.78zm11.98.04c0-4.53-1.17-8.19-4.33-8.19s-4.33 3.59-4.33 8.12c0 4.49 1.09 8.27 4.33 8.27 3.24-.01 4.33-3.72 4.33-8.2zM131.58 93.7h.31c1.72 0 2.11-.43 2.11-2.18V78.53h-2.42v-.59H134v-2.69c0-4.45 2.11-8.23 6.32-8.23 2.34 0 3.63 1.33 3.63 3 0 1.29-.86 2.03-1.91 2.03-1.05 0-1.72-.66-1.72-1.68 0-.66.31-1.13.62-1.44.23-.23.43-.43.43-.66 0-.39-.55-.78-1.29-.78-2.65 0-3.28 2.81-3.28 6.67v3.78h3.98v.59h-3.98v12.99c0 1.76.39 2.18 2.11 2.18h.74v.55h-8.08v-.55zM152.22 93.66h1.44c1.68 0 2.34-.47 2.34-2.22V73.88c0-1.76-.66-2.22-2.34-2.22h-1.44v-.58c4.25-.31 5.77-1.48 6.44-2.85h.47v23.21c0 1.76.62 2.22 2.3 2.22h1.13v.59h-10.34v-.59zM165.21 81.61c0-8.04 4.25-13.23 8.62-13.23 4.37 0 8.47 5.19 8.47 13.23s-4.25 13.27-8.58 13.27c-4.38-.01-8.51-5.23-8.51-13.27zm13.46 0c0-8.39-1.72-12.68-4.96-12.68-3.32 0-4.88 4.29-4.88 12.68s1.72 12.72 4.99 12.72 4.85-4.33 4.85-12.72zM193.53 101.66h.47c1.72 0 2.11-.43 2.11-2.22V80.67c0-1.79-.39-2.22-2.11-2.22h-.27v-.51l5.07-.31-.12 3.98h.08c1.25-2.42 2.93-4.1 5.46-4.1 3.2 0 6.83 3.32 6.83 8.54 0 5.15-3.55 8.58-6.98 8.58-2.65 0-4.29-1.83-5.35-4.21h-.04s.16 2.42.16 4.88v4.14c0 1.79.39 2.22 2.11 2.22h.9v.55h-8.31v-.55zm14.25-15.53c0-4.06-.94-8-3.94-8-1.91 0-5.03 2.26-5.03 7.96 0 4.02 2.15 7.92 4.96 7.92 2.99.01 4.01-3.66 4.01-7.88zM213.24 90.93c0-3.32 2.97-5.07 10.3-6.79v-1.13c0-3.75-1.48-5.03-3.82-5.03-2.11 0-3.9.9-3.9 1.6 0 .12.04.16.19.16.78 0 1.64.74 1.64 1.72 0 1.01-.78 1.79-1.76 1.79-1.01 0-1.76-.74-1.76-1.87 0-2.03 2.15-3.94 6.32-3.94 3.12 0 5.85 1.13 5.85 5.74v8c0 1.64.47 2.15 1.01 2.15.94 0 1.33-.98 1.37-3.12h.55c-.08 3.71-1.37 4.41-2.97 4.41-1.52 0-2.93-.86-2.73-3.67h-.08c-.74 2.03-3.08 3.75-5.81 3.75-2.49-.02-4.4-1.27-4.4-3.77zm10.3-3.35v-2.81c-5.97 1.21-7.06 3.28-7.06 5.5 0 1.76.94 3.04 2.73 3.04 1.91 0 4.33-1.4 4.33-5.73zM231.81 89.76V78.53h-2.65v-.47c2.5-.43 4.56-2.15 4.96-7.18h.51v7.02h5.27v.62h-5.27v11.43c0 2.46.9 3.67 2.65 3.67 1.6 0 2.89-1.76 3.04-5.19h.55c0 3.98-1.76 6.32-4.56 6.32-2.78.01-4.5-1.59-4.5-4.99zM242.03 93.7h.31c1.72 0 2.11-.43 2.11-2.18V80.67c0-1.79-.39-2.22-2.11-2.22h-.31v-.51l5.19-.31v13.89c0 1.76.39 2.18 2.11 2.18h.31v.55h-7.61v-.55zm1.29-22.31c0-1.17.98-2.15 2.15-2.15s2.15.98 2.15 2.15-.98 2.15-2.15 2.15c-1.18-.01-2.15-.98-2.15-2.15zM251.47 86.17c0-5.27 3.67-8.82 7.57-8.82 3.12 0 6.71 2.42 6.71 7.45 0 .12-.04.98-.08 1.17h-11c0 4.29 1.72 7.61 5.07 7.61 3 0 4.53-1.52 5.81-3.39l.43.31c-1.44 2.42-3.71 4.33-7.1 4.33-4.48 0-7.41-3.31-7.41-8.66zm9.05-.82c1.56 0 1.99-.51 1.99-1.76 0-3.12-1.09-5.66-3.59-5.66-2.73 0-4.14 2.93-4.25 7.41h5.85zM267.7 93.7h.27c1.72 0 2.11-.43 2.11-2.18V80.63c0-1.76-.39-2.22-2.11-2.22h-.27v-.47l5.19-.31-.19 4.8h.08c1.05-3.16 3.51-4.84 6.05-4.84 3.16 0 4.6 1.95 4.6 5.81v8.12c0 1.76.39 2.18 2.15 2.18h.08v.55h-7.53v-.55h.39c1.76 0 2.15-.43 2.15-2.18v-9.09c0-2.73-1.17-3.59-2.73-3.59-2.85 0-4.99 2.85-4.99 6.32v6.36c0 1.76.39 2.18 2.11 2.18h.39v.55h-7.73v-.55zM288.85 89.76V78.53h-2.65v-.47c2.5-.43 4.56-2.15 4.96-7.18h.51v7.02h5.27v.62h-5.27v11.43c0 2.46.9 3.67 2.65 3.67 1.6 0 2.89-1.76 3.04-5.19h.55c0 3.98-1.76 6.32-4.56 6.32-2.78.01-4.5-1.59-4.5-4.99zM301.84 93.27c-.59 0-1.09.47-1.4 1.33h-.39v-6.63h.35c.66 3.82 3.78 6.13 6.87 6.13 2.3 0 3.94-1.33 3.94-3.16 0-1.76-1.21-2.42-5.15-3.55-3.43-.98-5.81-1.87-5.81-5.27 0-2.81 2.11-4.56 5.07-4.56 2.26 0 3.28 1.01 4.49 1.01.62 0 1.13-.31 1.4-.98h.39v5.93h-.35c-.62-3.2-2.85-5.42-6.13-5.42-1.79 0-3.24 1.17-3.24 2.89 0 1.83 1.52 2.42 4.8 3.28 4.25 1.13 6.16 2.34 6.16 5.42 0 3.12-2.38 4.96-5.74 4.96-2.41-.01-4.32-1.38-5.26-1.38zM324.08 93.7h.27c1.72 0 2.11-.43 2.11-2.18V80.63c0-1.76-.39-2.22-2.11-2.22h-.27v-.47l5.19-.31-.19 4.8h.08c1.05-3.16 3.51-4.84 6.05-4.84 3.16 0 4.6 1.95 4.6 5.81v8.12c0 1.76.39 2.18 2.15 2.18h.08v.55h-7.53v-.55h.39c1.76 0 2.15-.43 2.15-2.18v-9.09c0-2.73-1.17-3.59-2.73-3.59-2.85 0-4.99 2.85-4.99 6.32v6.36c0 1.76.39 2.18 2.11 2.18h.39v.55h-7.73v-.55zM343.55 86.06c0-5.07 3.98-8.7 7.65-8.7 3.67 0 7.61 3.55 7.61 8.62 0 4.96-3.94 8.86-7.61 8.86-3.67-.01-7.65-3.83-7.65-8.78zm11.98.04c0-4.53-1.17-8.19-4.33-8.19s-4.33 3.59-4.33 8.12c0 4.49 1.09 8.27 4.33 8.27 3.24-.01 4.33-3.72 4.33-8.2zM362.75 89.76V78.53h-2.65v-.47c2.5-.43 4.56-2.15 4.96-7.18h.51v7.02h5.27v.62h-5.27v11.43c0 2.46.9 3.67 2.65 3.67 1.6 0 2.89-1.76 3.04-5.19h.55c0 3.98-1.76 6.32-4.56 6.32-2.79.01-4.5-1.59-4.5-4.99zM372.97 93.7h.31c1.72 0 2.11-.43 2.11-2.18V80.67c0-1.79-.39-2.22-2.11-2.22h-.31v-.51l5.19-.31v13.89c0 1.76.39 2.18 2.11 2.18h.31v.55h-7.61v-.55zm1.28-22.31c0-1.17.98-2.15 2.15-2.15s2.15.98 2.15 2.15-.98 2.15-2.15 2.15c-1.17-.01-2.15-.98-2.15-2.15zM382.41 86.17c0-4.8 3.86-8.82 8.43-8.82 3.04 0 5.27 2.11 5.27 4.37 0 1.33-.86 2.15-1.95 2.15-1.05 0-1.79-.9-1.79-1.83 0-.82.51-1.56 1.4-1.79.47-.12.82.08.82-.23 0-.7-1.37-2.03-3.82-2.03-3.51 0-4.96 3.32-4.96 8 0 4.29 1.72 7.53 5.27 7.53 2.34 0 3.9-1.25 5.07-2.81l.39.27c-1.33 2.22-3.75 3.86-6.75 3.86-3.91-.01-7.38-3.36-7.38-8.67zM398.05 86.17c0-5.27 3.67-8.82 7.57-8.82 3.12 0 6.71 2.42 6.71 7.45 0 .12-.04.98-.08 1.17h-11c0 4.29 1.72 7.61 5.07 7.61 3 0 4.53-1.52 5.81-3.39l.43.31c-1.44 2.42-3.71 4.33-7.1 4.33-4.48 0-7.41-3.31-7.41-8.66zm9.06-.82c1.56 0 1.99-.51 1.99-1.76 0-3.12-1.09-5.66-3.59-5.66-2.73 0-4.14 2.93-4.25 7.41h5.85zM414.71 86.1c0-4.84 3.08-8.58 6.87-8.58 2.34 0 4.17 1.64 5.38 4.02h.12c-.08-1.09-.12-3.43-.12-5.89v-5.31c0-1.79-.43-2.22-2.15-2.22h-.98v-.55l5.89-.58v24.35c0 1.76.35 2.26 2.07 2.26h.31v.55l-5.15.59.16-4.37H427c-1.29 2.38-2.93 4.29-5.58 4.29-3.23-.02-6.71-3.26-6.71-8.56zm12.25-.04c0-5.81-3.24-7.96-4.92-7.96-3.2 0-4.06 3.63-4.06 7.88 0 4.33 1.05 8.04 4.02 8.04 2.04 0 4.96-2.81 4.96-7.96zM442.92 90.93c0-3.32 2.97-5.07 10.3-6.79v-1.13c0-3.75-1.48-5.03-3.82-5.03-2.11 0-3.9.9-3.9 1.6 0 .12.04.16.19.16.78 0 1.64.74 1.64 1.72 0 1.01-.78 1.79-1.76 1.79-1.01 0-1.76-.74-1.76-1.87 0-2.03 2.15-3.94 6.32-3.94 3.12 0 5.85 1.13 5.85 5.74v8c0 1.64.47 2.15 1.01 2.15.94 0 1.33-.98 1.37-3.12h.55c-.08 3.71-1.37 4.41-2.97 4.41-1.52 0-2.93-.86-2.73-3.67h-.08c-.74 2.03-3.08 3.75-5.81 3.75-2.49-.02-4.4-1.27-4.4-3.77zm10.3-3.35v-2.81c-5.97 1.21-7.06 3.28-7.06 5.5 0 1.76.94 3.04 2.73 3.04 1.91 0 4.33-1.4 4.33-5.73zM459.78 93.7h.27c1.72 0 2.11-.43 2.11-2.18V80.63c0-1.76-.39-2.22-2.11-2.22h-.27v-.47l5.19-.31-.19 4.8h.08c1.05-3.16 3.51-4.84 6.05-4.84 3.16 0 4.6 1.95 4.6 5.81v8.12c0 1.76.39 2.18 2.15 2.18h.08v.55h-7.53v-.55h.39c1.76 0 2.15-.43 2.15-2.18v-9.09c0-2.73-1.17-3.59-2.73-3.59-2.85 0-4.99 2.85-4.99 6.32v6.36c0 1.76.39 2.18 2.11 2.18h.39v.55h-7.73v-.55zM27.88 130.72h.31c1.72 0 2.11-.43 2.11-2.19v-10.85c0-1.79-.39-2.22-2.11-2.22h-.31v-.51l5.19-.31v13.89c0 1.76.39 2.19 2.11 2.19h.31v.55h-7.61v-.55zm1.28-22.32c0-1.17.98-2.15 2.15-2.15s2.15.98 2.15 2.15-.98 2.15-2.15 2.15-2.15-.98-2.15-2.15zM36.89 130.72h.27c1.72 0 2.11-.43 2.11-2.19v-10.89c0-1.76-.39-2.22-2.11-2.22h-.27v-.47l5.19-.31-.19 4.8h.08c1.01-3.04 3.39-4.84 5.93-4.84 2.97 0 4.14 1.87 4.45 4.41 1.21-2.73 3.36-4.41 5.81-4.41 3.16 0 4.49 1.95 4.49 5.81v8.12c0 1.76.39 2.19 2.15 2.19h.08v.55h-7.53v-.55h.39c1.76 0 2.15-.43 2.15-2.19v-9.09c0-2.73-1.05-3.59-2.61-3.59-2.85 0-4.88 3.12-4.88 6.32v6.36c0 1.76.39 2.19 2.15 2.19h.35v.55h-7.8v-.55h.39c1.76 0 2.15-.43 2.15-2.19v-9.09c0-2.73-1.05-3.59-2.61-3.59-2.81 0-4.88 3-4.88 6.32v6.36c0 1.76.39 2.19 2.11 2.19h.39v.55h-7.73v-.55zM65.49 138.68h.47c1.72 0 2.11-.43 2.11-2.22v-18.77c0-1.79-.39-2.22-2.11-2.22h-.27v-.51l5.07-.31-.12 3.98h.08c1.25-2.42 2.93-4.1 5.46-4.1 3.2 0 6.83 3.32 6.83 8.54 0 5.15-3.55 8.58-6.98 8.58-2.65 0-4.29-1.83-5.35-4.21h-.04s.16 2.42.16 4.88v4.14c0 1.79.39 2.22 2.11 2.22h.9v.55H65.5v-.55zm14.24-15.53c0-4.06-.94-8-3.94-8-1.91 0-5.03 2.26-5.03 7.96 0 4.02 2.15 7.92 4.96 7.92 2.99 0 4.01-3.67 4.01-7.88zM84.84 130.72h.27c1.72 0 2.11-.43 2.11-2.19v-10.92c0-1.76-.47-2.19-2.11-2.19h-.27v-.47l5.19-.31-.27 6.59h.08c1.21-4.25 3.16-6.79 5.74-6.79 1.99 0 3.12 1.17 3.12 2.54 0 1.52-.86 2.3-1.95 2.3-.98 0-1.76-.62-1.76-1.6 0-.86.47-1.25.82-1.56.2-.16.31-.27.31-.47 0-.31-.39-.39-.86-.39-2.81 0-5.19 5.54-5.19 8.62v4.64c0 1.76.39 2.19 2.11 2.19h.9v.55h-8.23v-.54zM99.51 123.07c0-5.07 3.98-8.7 7.65-8.7 3.67 0 7.61 3.55 7.61 8.62 0 4.96-3.94 8.86-7.61 8.86-3.67 0-7.65-3.82-7.65-8.78zm11.98.04c0-4.53-1.17-8.19-4.33-8.19s-4.33 3.59-4.33 8.12c0 4.49 1.09 8.27 4.33 8.27 3.23-.01 4.33-3.71 4.33-8.2zM118.04 118c-.74-1.76-1.21-2.42-2.81-2.54v-.51h7.8v.51c-1.56.12-1.99.51-2.03 1.13-.04.59.16 1.33.43 2.03l3.75 9.95 3.47-8.97c.35-.94.74-1.91.74-2.65 0-1.01-.66-1.37-2.15-1.48v-.51h5.62v.51c-1.6.12-2.11 1.01-2.73 2.54l-5.77 14.05h-.55L118.04 118zM133.18 123.19c0-5.27 3.67-8.82 7.57-8.82 3.12 0 6.71 2.42 6.71 7.45 0 .12-.04.98-.08 1.17h-11c0 4.29 1.72 7.61 5.07 7.61 3 0 4.53-1.52 5.81-3.39l.43.31c-1.44 2.42-3.71 4.33-7.1 4.33-4.49 0-7.41-3.32-7.41-8.66zm9.05-.82c1.56 0 1.99-.51 1.99-1.76 0-3.12-1.09-5.66-3.59-5.66-2.73 0-4.14 2.93-4.25 7.41h5.85zM149.41 130.72h.27c1.72 0 2.11-.43 2.11-2.19v-10.89c0-1.76-.39-2.22-2.11-2.22h-.27v-.47l5.19-.31-.19 4.8h.08c1.01-3.04 3.39-4.84 5.93-4.84 2.97 0 4.14 1.87 4.45 4.41 1.21-2.73 3.36-4.41 5.81-4.41 3.16 0 4.49 1.95 4.49 5.81v8.12c0 1.76.39 2.19 2.15 2.19h.08v.55h-7.53v-.55h.39c1.76 0 2.15-.43 2.15-2.19v-9.09c0-2.73-1.05-3.59-2.61-3.59-2.85 0-4.88 3.12-4.88 6.32v6.36c0 1.76.39 2.19 2.15 2.19h.35v.55h-7.8v-.55h.39c1.76 0 2.15-.43 2.15-2.19v-9.09c0-2.73-1.05-3.59-2.61-3.59-2.81 0-4.88 3-4.88 6.32v6.36c0 1.76.39 2.19 2.11 2.19h.39v.55h-7.73v-.55zM178.9 123.19c0-5.27 3.67-8.82 7.57-8.82 3.12 0 6.71 2.42 6.71 7.45 0 .12-.04.98-.08 1.17h-11c0 4.29 1.72 7.61 5.07 7.61 3 0 4.53-1.52 5.81-3.39l.43.31c-1.44 2.42-3.71 4.33-7.1 4.33-4.48 0-7.41-3.32-7.41-8.66zm9.06-.82c1.56 0 1.99-.51 1.99-1.76 0-3.12-1.09-5.66-3.59-5.66-2.73 0-4.14 2.93-4.25 7.41h5.85zM195.14 130.72h.27c1.72 0 2.11-.43 2.11-2.19v-10.89c0-1.76-.39-2.22-2.11-2.22h-.27v-.47l5.19-.31-.19 4.8h.08c1.05-3.16 3.51-4.84 6.05-4.84 3.16 0 4.6 1.95 4.6 5.81v8.12c0 1.76.39 2.19 2.15 2.19h.08v.55h-7.53v-.55h.39c1.76 0 2.15-.43 2.15-2.19v-9.09c0-2.73-1.17-3.59-2.73-3.59-2.85 0-4.99 2.85-4.99 6.32v6.36c0 1.76.39 2.19 2.11 2.19h.39v.55h-7.73v-.55zM216.28 126.78v-11.24h-2.65v-.47c2.5-.43 4.56-2.15 4.96-7.18h.51v7.02h5.27v.62h-5.27v11.43c0 2.46.9 3.67 2.65 3.67 1.6 0 2.89-1.76 3.04-5.19h.55c0 3.98-1.76 6.32-4.56 6.32-2.78.01-4.5-1.59-4.5-4.98zM235.83 130.72h.31c1.72 0 2.11-.43 2.11-2.19v-10.85c0-1.79-.39-2.22-2.11-2.22h-.31v-.51l5.19-.31v13.89c0 1.76.39 2.19 2.11 2.19h.31v.55h-7.61v-.55zm1.29-22.32c0-1.17.98-2.15 2.15-2.15s2.15.98 2.15 2.15-.98 2.15-2.15 2.15c-1.18 0-2.15-.98-2.15-2.15zM244.84 130.72h.27c1.72 0 2.11-.43 2.11-2.19v-10.89c0-1.76-.39-2.22-2.11-2.22h-.27v-.47l5.19-.31-.19 4.8h.08c1.05-3.16 3.51-4.84 6.05-4.84 3.16 0 4.6 1.95 4.6 5.81v8.12c0 1.76.39 2.19 2.15 2.19h.08v.55h-7.53v-.55h.39c1.76 0 2.15-.43 2.15-2.19v-9.09c0-2.73-1.17-3.59-2.73-3.59-2.85 0-4.99 2.85-4.99 6.32v6.36c0 1.76.39 2.19 2.11 2.19h.39v.55h-7.73v-.55zM273.28 130.72h.27c1.6 0 2.11-.39 2.11-2.19v-21.19c0-1.79-.39-2.26-2.11-2.26h-.35v-.55l5.19-.58v10.34l-.19 5.15h.08c.94-2.81 3.2-4.84 6.05-4.84 3.16 0 4.6 1.95 4.6 5.81v8.12c0 1.76.39 2.19 2.15 2.19h.08v.55h-7.53v-.55h.39c1.76 0 2.15-.43 2.15-2.19v-9.09c0-2.73-1.17-3.59-2.73-3.59-2.85 0-4.99 2.89-4.99 6.28v6.4c0 1.76.39 2.19 2.11 2.19h.39v.55h-7.65v-.55zM292.71 123.07c0-5.07 3.98-8.7 7.65-8.7 3.67 0 7.61 3.55 7.61 8.62 0 4.96-3.94 8.86-7.61 8.86-3.67 0-7.65-3.82-7.65-8.78zm11.98.04c0-4.53-1.17-8.19-4.33-8.19s-4.33 3.59-4.33 8.12c0 4.49 1.09 8.27 4.33 8.27 3.24-.01 4.33-3.71 4.33-8.2zM311.25 118.04c-.66-1.68-1.29-2.46-2.85-2.58v-.51h7.57v.51c-1.37.12-1.95.51-1.99 1.13-.04.51.12 1.09.43 1.95l3.51 10.03 3.2-8.27-.9-2.73c-.43-1.37-.86-1.87-2.42-2.11v-.51h7.22v.51c-1.33.12-2.03.51-2.07 1.13-.04.51.16 1.09.43 1.99l3.08 9.83 3.08-8.82c.35-1.01.62-1.91.62-2.65 0-1.01-.7-1.37-2.15-1.48v-.51h5.62v.51c-1.56.12-2.07 1.05-2.65 2.58l-5.31 14.01h-.55l-3.63-10.69-4.41 10.69h-.51l-5.32-14.01zM345.81 118.04c-.66-1.68-1.29-2.46-2.85-2.58v-.51h7.57v.51c-1.37.12-1.95.51-1.99 1.13-.04.51.12 1.09.43 1.95l3.51 10.03 3.2-8.27-.9-2.73c-.43-1.37-.86-1.87-2.42-2.11v-.51h7.22v.51c-1.33.12-2.03.51-2.07 1.13-.04.51.16 1.09.43 1.99l3.08 9.83 3.08-8.82c.35-1.01.62-1.91.62-2.65 0-1.01-.7-1.37-2.15-1.48v-.51h5.62v.51c-1.56.12-2.07 1.05-2.65 2.58l-5.31 14.01h-.55l-3.63-10.69-4.41 10.69h-.51l-5.32-14.01zM368.56 123.19c0-5.27 3.67-8.82 7.57-8.82 3.12 0 6.71 2.42 6.71 7.45 0 .12-.04.98-.08 1.17h-11c0 4.29 1.72 7.61 5.07 7.61 3 0 4.53-1.52 5.81-3.39l.43.31c-1.44 2.42-3.71 4.33-7.1 4.33-4.48 0-7.41-3.32-7.41-8.66zm9.05-.82c1.56 0 1.99-.51 1.99-1.76 0-3.12-1.09-5.66-3.59-5.66-2.73 0-4.14 2.93-4.25 7.41h5.85zM384.79 130.72h.16c1.76 0 2.15-.47 2.15-2.34v-20.95c0-1.87-.39-2.34-2.15-2.34h-.31v-.55l5.23-.58v24.42c0 1.87.39 2.34 2.11 2.34h.31v.55h-7.49v-.55zM393.61 130.72h.16c1.76 0 2.15-.47 2.15-2.34v-20.95c0-1.87-.39-2.34-2.15-2.34h-.31v-.55l5.23-.58v24.42c0 1.87.39 2.34 2.11 2.34h.31v.55h-7.49v-.55zM413.86 126.78v-11.24h-2.65v-.47c2.5-.43 4.56-2.15 4.96-7.18h.51v7.02h5.27v.62h-5.27v11.43c0 2.46.9 3.67 2.65 3.67 1.6 0 2.89-1.76 3.04-5.19h.55c0 3.98-1.76 6.32-4.56 6.32-2.79.01-4.5-1.59-4.5-4.98zM423.69 130.72h.27c1.6 0 2.11-.39 2.11-2.19v-21.19c0-1.79-.39-2.26-2.11-2.26h-.35v-.55l5.19-.58v10.34l-.19 5.15h.08c.94-2.81 3.2-4.84 6.05-4.84 3.16 0 4.6 1.95 4.6 5.81v8.12c0 1.76.39 2.19 2.15 2.19h.08v.55h-7.53v-.55h.39c1.76 0 2.15-.43 2.15-2.19v-9.09c0-2.73-1.17-3.59-2.73-3.59-2.85 0-4.99 2.89-4.99 6.28v6.4c0 1.76.39 2.19 2.11 2.19h.39v.55h-7.65v-.55zM443.12 123.19c0-5.27 3.67-8.82 7.57-8.82 3.12 0 6.71 2.42 6.71 7.45 0 .12-.04.98-.08 1.17h-11c0 4.29 1.72 7.61 5.07 7.61 3 0 4.53-1.52 5.81-3.39l.43.31c-1.44 2.42-3.71 4.33-7.1 4.33-4.49 0-7.41-3.32-7.41-8.66zm9.05-.82c1.56 0 1.99-.51 1.99-1.76 0-3.12-1.09-5.66-3.59-5.66-2.73 0-4.14 2.93-4.25 7.41h5.85zM459.43 130.72h.31c1.72 0 2.11-.43 2.11-2.19v-10.85c0-1.79-.39-2.22-2.11-2.22h-.31v-.51l5.19-.31v13.89c0 1.76.39 2.19 2.11 2.19h.31v.55h-7.61v-.55zm1.28-22.32c0-1.17.98-2.15 2.15-2.15s2.15.98 2.15 2.15-.98 2.15-2.15 2.15-2.15-.98-2.15-2.15zM468.44 130.72h.27c1.72 0 2.11-.43 2.11-2.19v-10.92c0-1.76-.47-2.19-2.11-2.19h-.27v-.47l5.19-.31-.27 6.59h.08c1.21-4.25 3.16-6.79 5.74-6.79 1.99 0 3.12 1.17 3.12 2.54 0 1.52-.86 2.3-1.95 2.3-.98 0-1.76-.62-1.76-1.6 0-.86.47-1.25.82-1.56.2-.16.31-.27.31-.47 0-.31-.39-.39-.86-.39-2.81 0-5.19 5.54-5.19 8.62v4.64c0 1.76.39 2.19 2.11 2.19h.9v.55h-8.23v-.54zM28.23 160.2c0-4.8 3.86-8.82 8.43-8.82 3.04 0 5.27 2.11 5.27 4.37 0 1.33-.86 2.15-1.95 2.15-1.05 0-1.79-.9-1.79-1.83 0-.82.51-1.56 1.4-1.79.47-.12.82.08.82-.23 0-.7-1.37-2.03-3.82-2.03-3.51 0-4.96 3.32-4.96 8 0 4.29 1.72 7.53 5.27 7.53 2.34 0 3.9-1.25 5.07-2.81l.39.27c-1.33 2.22-3.75 3.86-6.75 3.86-3.91 0-7.38-3.36-7.38-8.67zM43.44 167.73h.16c1.76 0 2.15-.47 2.15-2.34v-20.95c0-1.87-.39-2.34-2.15-2.34h-.31v-.55l5.23-.58v24.42c0 1.87.39 2.34 2.11 2.34h.31v.55h-7.49v-.55zM52.69 160.09c0-5.07 3.98-8.7 7.65-8.7 3.67 0 7.61 3.55 7.61 8.62 0 4.96-3.94 8.86-7.61 8.86-3.67 0-7.65-3.83-7.65-8.78zm11.98.04c0-4.53-1.17-8.19-4.33-8.19s-4.33 3.59-4.33 8.12c0 4.49 1.09 8.27 4.33 8.27 3.24-.01 4.33-3.72 4.33-8.2zM71.89 163.79v-11.24h-2.65v-.47c2.5-.43 4.56-2.15 4.96-7.18h.51v7.02h5.27v.62h-5.27v11.43c0 2.46.9 3.67 2.65 3.67 1.6 0 2.89-1.76 3.04-5.19h.55c0 3.98-1.76 6.32-4.56 6.32-2.79.02-4.5-1.58-4.5-4.98zM81.72 167.73h.27c1.6 0 2.11-.39 2.11-2.19v-21.19c0-1.79-.39-2.26-2.11-2.26h-.35v-.55l5.19-.58v10.34l-.19 5.15h.08c.94-2.81 3.2-4.84 6.05-4.84 3.16 0 4.6 1.95 4.6 5.81v8.12c0 1.76.39 2.19 2.15 2.19h.08v.55h-7.53v-.55h.39c1.76 0 2.15-.43 2.15-2.19v-9.09c0-2.73-1.17-3.59-2.73-3.59-2.85 0-4.99 2.89-4.99 6.28v6.4c0 1.76.39 2.19 2.11 2.19h.39v.55h-7.65v-.55zM101.15 160.2c0-5.27 3.67-8.82 7.57-8.82 3.12 0 6.71 2.42 6.71 7.45 0 .12-.04.98-.08 1.17h-11c0 4.29 1.72 7.61 5.07 7.61 3 0 4.53-1.52 5.81-3.39l.43.31c-1.44 2.42-3.71 4.33-7.1 4.33-4.49.01-7.41-3.31-7.41-8.66zm9.05-.82c1.56 0 1.99-.51 1.99-1.76 0-3.12-1.09-5.66-3.59-5.66-2.73 0-4.14 2.93-4.25 7.41h5.85zM120.23 167.3c-.59 0-1.09.47-1.4 1.33h-.39V162h.35c.66 3.82 3.78 6.12 6.87 6.12 2.3 0 3.94-1.33 3.94-3.16 0-1.76-1.21-2.42-5.15-3.55-3.43-.98-5.81-1.87-5.81-5.27 0-2.81 2.11-4.57 5.07-4.57 2.26 0 3.28 1.01 4.49 1.01.62 0 1.13-.31 1.4-.98h.39v5.93h-.35c-.62-3.2-2.85-5.42-6.13-5.42-1.79 0-3.24 1.17-3.24 2.89 0 1.83 1.52 2.42 4.8 3.28 4.25 1.13 6.17 2.34 6.17 5.42 0 3.12-2.38 4.96-5.74 4.96-2.43.01-4.34-1.36-5.27-1.36zM142.93 167.7h.31c1.72 0 2.11-.47 2.11-2.22v-12.91h-2.42v-.58h2.42V150c0-5.31 2.5-8.93 7.49-8.93 3.47 0 5.11 1.68 5.11 3.2 0 1.09-.86 1.87-1.76 1.87-.98 0-1.79-.55-1.79-1.6 0-.66.31-1.09.62-1.37.19-.16.35-.31.35-.47 0-.51-.98-1.09-2.69-1.09-3.2 0-4.53 2.85-4.53 7.18v3.2h4.56l5.58-.35v13.85c0 1.76.39 2.22 2.11 2.22h.31v.58h-7.65v-.58h.31c1.72 0 2.11-.47 2.11-2.22v-10.65c0-1.83-.39-2.26-2.11-2.26h-5.23v12.91c0 1.76.39 2.22 2.11 2.22h.94v.58h-8.27v-.59zM164.23 163.79v-11.24h-2.65v-.47c2.5-.43 4.56-2.15 4.96-7.18h.51v7.02h5.27v.62h-5.27v11.43c0 2.46.9 3.67 2.65 3.67 1.6 0 2.89-1.76 3.04-5.19h.55c0 3.98-1.76 6.32-4.56 6.32-2.78.02-4.5-1.58-4.5-4.98zM184.13 160.09c0-5.07 3.98-8.7 7.65-8.7 3.67 0 7.61 3.55 7.61 8.62 0 4.96-3.94 8.86-7.61 8.86-3.67 0-7.65-3.83-7.65-8.78zm11.98.04c0-4.53-1.17-8.19-4.33-8.19s-4.33 3.59-4.33 8.12c0 4.49 1.09 8.27 4.33 8.27 3.24-.01 4.33-3.72 4.33-8.2zM202.67 155.01c-.74-1.76-1.21-2.42-2.81-2.54v-.51h7.8v.51c-1.56.12-1.99.51-2.03 1.13-.04.58.16 1.33.43 2.03l3.75 9.95 3.47-8.97c.35-.94.74-1.91.74-2.65 0-1.01-.66-1.37-2.15-1.48v-.51h5.62v.51c-1.6.12-2.11 1.01-2.73 2.54l-5.77 14.05h-.55l-5.77-14.06zM217.8 160.2c0-5.27 3.67-8.82 7.57-8.82 3.12 0 6.71 2.42 6.71 7.45 0 .12-.04.98-.08 1.17h-11c0 4.29 1.72 7.61 5.07 7.61 3 0 4.53-1.52 5.81-3.39l.43.31c-1.44 2.42-3.71 4.33-7.1 4.33-4.48.01-7.41-3.31-7.41-8.66zm9.05-.82c1.56 0 1.99-.51 1.99-1.76 0-3.12-1.09-5.66-3.59-5.66-2.73 0-4.14 2.93-4.25 7.41h5.85zM234.03 167.73h.27c1.72 0 2.11-.43 2.11-2.19v-10.92c0-1.75-.47-2.18-2.11-2.18h-.27v-.47l5.19-.31-.27 6.59h.08c1.21-4.25 3.16-6.79 5.74-6.79 1.99 0 3.12 1.17 3.12 2.54 0 1.52-.86 2.3-1.95 2.3-.98 0-1.76-.62-1.76-1.6 0-.86.47-1.25.82-1.56.2-.16.31-.27.31-.47 0-.31-.39-.39-.86-.39-2.81 0-5.19 5.54-5.19 8.62v4.64c0 1.76.39 2.19 2.11 2.19h.9v.55h-8.23v-.55zM260.1 163.79v-11.24h-2.65v-.47c2.5-.43 4.56-2.15 4.96-7.18h.51v7.02h5.27v.62h-5.27v11.43c0 2.46.9 3.67 2.65 3.67 1.6 0 2.89-1.76 3.04-5.19h.55c0 3.98-1.76 6.32-4.56 6.32-2.79.02-4.5-1.58-4.5-4.98zM270.24 167.73h.27c1.72 0 2.11-.43 2.11-2.19v-10.92c0-1.75-.47-2.18-2.11-2.18h-.27v-.47l5.19-.31-.27 6.59h.08c1.21-4.25 3.16-6.79 5.74-6.79 1.99 0 3.12 1.17 3.12 2.54 0 1.52-.86 2.3-1.95 2.3-.98 0-1.76-.62-1.76-1.6 0-.86.47-1.25.82-1.56.2-.16.31-.27.31-.47 0-.31-.39-.39-.86-.39-2.81 0-5.19 5.54-5.19 8.62v4.64c0 1.76.39 2.19 2.11 2.19h.9v.55h-8.23v-.55zM284.91 160.2c0-5.27 3.67-8.82 7.57-8.82 3.12 0 6.71 2.42 6.71 7.45 0 .12-.04.98-.08 1.17h-11c0 4.29 1.72 7.61 5.07 7.61 3 0 4.53-1.52 5.81-3.39l.43.31c-1.44 2.42-3.71 4.33-7.1 4.33-4.49.01-7.41-3.31-7.41-8.66zm9.05-.82c1.56 0 1.99-.51 1.99-1.76 0-3.12-1.09-5.66-3.59-5.66-2.73 0-4.14 2.93-4.25 7.41h5.85zM301.49 164.96c0-3.32 2.97-5.07 10.3-6.79v-1.13c0-3.75-1.48-5.03-3.82-5.03-2.11 0-3.9.9-3.9 1.6 0 .12.04.16.19.16.78 0 1.64.74 1.64 1.72 0 1.01-.78 1.79-1.76 1.79-1.01 0-1.76-.74-1.76-1.87 0-2.03 2.15-3.94 6.32-3.94 3.12 0 5.85 1.13 5.85 5.74v8c0 1.64.47 2.15 1.01 2.15.94 0 1.33-.98 1.37-3.12h.55c-.08 3.71-1.37 4.41-2.97 4.41-1.52 0-2.93-.86-2.73-3.67h-.08c-.74 2.03-3.08 3.75-5.81 3.75-2.49-.02-4.4-1.27-4.4-3.77zm10.3-3.35v-2.81c-5.97 1.21-7.06 3.28-7.06 5.5 0 1.76.94 3.04 2.73 3.04 1.91 0 4.33-1.4 4.33-5.73zM320.06 163.79v-11.24h-2.65v-.47c2.5-.43 4.56-2.15 4.96-7.18h.51v7.02h5.27v.62h-5.27v11.43c0 2.46.9 3.67 2.65 3.67 1.6 0 2.89-1.76 3.04-5.19h.55c0 3.98-1.76 6.32-4.56 6.32-2.78.02-4.5-1.58-4.5-4.98zM330.64 160.2c0-5.27 3.67-8.82 7.57-8.82 3.12 0 6.71 2.42 6.71 7.45 0 .12-.04.98-.08 1.17h-11c0 4.29 1.72 7.61 5.07 7.61 3 0 4.53-1.52 5.81-3.39l.43.31c-1.44 2.42-3.71 4.33-7.1 4.33-4.49.01-7.41-3.31-7.41-8.66zm9.05-.82c1.56 0 1.99-.51 1.99-1.76 0-3.12-1.09-5.66-3.59-5.66-2.73 0-4.14 2.93-4.25 7.41h5.85zM347.29 160.13c0-4.84 3.08-8.58 6.87-8.58 2.34 0 4.17 1.64 5.38 4.02h.12c-.08-1.09-.12-3.43-.12-5.89v-5.31c0-1.79-.43-2.22-2.15-2.22h-.98v-.55l5.89-.58v24.35c0 1.75.35 2.26 2.07 2.26h.31v.55l-5.15.58.16-4.37h-.12c-1.29 2.38-2.93 4.29-5.58 4.29-3.22-.01-6.7-3.25-6.7-8.55zm12.26-.04c0-5.81-3.24-7.96-4.92-7.96-3.2 0-4.06 3.63-4.06 7.88 0 4.33 1.05 8.04 4.02 8.04 2.03 0 4.96-2.81 4.96-7.96zM375.5 164.96c0-3.32 2.97-5.07 10.3-6.79v-1.13c0-3.75-1.48-5.03-3.82-5.03-2.11 0-3.9.9-3.9 1.6 0 .12.04.16.19.16.78 0 1.64.74 1.64 1.72 0 1.01-.78 1.79-1.76 1.79-1.01 0-1.76-.74-1.76-1.87 0-2.03 2.15-3.94 6.32-3.94 3.12 0 5.85 1.13 5.85 5.74v8c0 1.64.47 2.15 1.01 2.15.94 0 1.33-.98 1.37-3.12h.55c-.08 3.71-1.37 4.41-2.97 4.41-1.52 0-2.93-.86-2.73-3.67h-.08c-.74 2.03-3.08 3.75-5.81 3.75-2.49-.02-4.4-1.27-4.4-3.77zm10.3-3.35v-2.81c-5.97 1.21-7.06 3.28-7.06 5.5 0 1.76.94 3.04 2.73 3.04 1.91 0 4.33-1.4 4.33-5.73zM392.36 167.73h.27c1.72 0 2.11-.43 2.11-2.19v-10.92c0-1.75-.47-2.18-2.11-2.18h-.27v-.47l5.19-.31-.27 6.59h.08c1.21-4.25 3.16-6.79 5.74-6.79 1.99 0 3.12 1.17 3.12 2.54 0 1.52-.86 2.3-1.95 2.3-.98 0-1.76-.62-1.76-1.6 0-.86.47-1.25.82-1.56.2-.16.31-.27.31-.47 0-.31-.39-.39-.86-.39-2.81 0-5.19 5.54-5.19 8.62v4.64c0 1.76.39 2.19 2.11 2.19h.9v.55h-8.23v-.55zM407.03 160.2c0-5.27 3.67-8.82 7.57-8.82 3.12 0 6.71 2.42 6.71 7.45 0 .12-.04.98-.08 1.17h-11c0 4.29 1.72 7.61 5.07 7.61 3 0 4.53-1.52 5.81-3.39l.43.31c-1.44 2.42-3.71 4.33-7.1 4.33-4.49.01-7.41-3.31-7.41-8.66zm9.05-.82c1.56 0 1.99-.51 1.99-1.76 0-3.12-1.09-5.66-3.59-5.66-2.73 0-4.14 2.93-4.25 7.41h5.85zM423.61 164.96c0-3.32 2.97-5.07 10.3-6.79v-1.13c0-3.75-1.48-5.03-3.82-5.03-2.11 0-3.9.9-3.9 1.6 0 .12.04.16.19.16.78 0 1.64.74 1.64 1.72 0 1.01-.78 1.79-1.76 1.79-1.01 0-1.76-.74-1.76-1.87 0-2.03 2.15-3.94 6.32-3.94 3.12 0 5.85 1.13 5.85 5.74v8c0 1.64.47 2.15 1.01 2.15.94 0 1.33-.98 1.37-3.12h.55c-.08 3.71-1.37 4.41-2.97 4.41-1.52 0-2.93-.86-2.73-3.67h-.08c-.74 2.03-3.08 3.75-5.81 3.75-2.49-.02-4.4-1.27-4.4-3.77zm10.3-3.35v-2.81c-5.97 1.21-7.06 3.28-7.06 5.5 0 1.76.94 3.04 2.73 3.04 1.91 0 4.33-1.4 4.33-5.73zM443.31 167.3c-.59 0-1.09.47-1.4 1.33h-.39V162h.35c.66 3.82 3.78 6.12 6.87 6.12 2.3 0 3.94-1.33 3.94-3.16 0-1.76-1.21-2.42-5.15-3.55-3.43-.98-5.81-1.87-5.81-5.27 0-2.81 2.11-4.57 5.07-4.57 2.26 0 3.28 1.01 4.49 1.01.62 0 1.13-.31 1.4-.98h.39v5.93h-.35c-.62-3.2-2.85-5.42-6.13-5.42-1.79 0-3.24 1.17-3.24 2.89 0 1.83 1.52 2.42 4.8 3.28 4.25 1.13 6.16 2.34 6.16 5.42 0 3.12-2.38 4.96-5.74 4.96-2.41.01-4.32-1.36-5.26-1.36zM457.63 166.33c0-1.25.98-2.22 2.22-2.22s2.22.98 2.22 2.22c0 1.25-.98 2.22-2.22 2.22s-2.22-.97-2.22-2.22zM463.46 146.1c.39-.5 1.39-1.43 2-2.3-1.02-.34-2.37-.5-2.96-.68-.61-.18-.89-.48-.82-.68.07-.23.46-.32 1.07-.09.59.23 1.77.86 2.8 1.18 0-1.07-.27-2.39-.27-3.03 0-.61.18-.98.41-.98s.41.36.41.98c0 .64-.27 1.96-.27 3.03 1.02-.32 2.21-.98 2.8-1.18.57-.21 1.02-.16 1.07.09.05.21-.2.5-.82.68-.59.18-1.93.34-2.96.68.64.86 1.62 1.8 2 2.3.36.46.43.91.25 1.05-.16.11-.55-.05-.91-.57-.36-.52-.93-1.73-1.57-2.59-.64.87-1.21 2.07-1.57 2.59-.34.48-.73.68-.89.57-.2-.14-.13-.6.23-1.05z"/></svg>