<svg id="Layer_1" xmlns="http://www.w3.org/2000/svg" viewBox="0 0 970 250"><style>.st0{fill:#002554}.st1{fill:#fff}</style><path class="st0" d="M27.43 181.98h238.76v44.96H27.43z"/><path class="st1" d="M59.16 199.62v2.97h5.77v2.82h-5.77v5.39h-3.65v-14h10.88v2.82h-7.23zM72.14 210.8h-3.65v-14h3.65v14zM87.86 210.8h-4.05l-4.35-7.57-1.06-2.12h-.02l.08 2.63v7.06h-3.22v-14h4.05l4.35 7.57 1.06 2.12h.02l-.08-2.63v-7.06h3.22v14zM103.68 203.8c0 4.47-2.4 7-6.79 7h-5.94v-14h5.94c4.4 0 6.79 2.53 6.79 7zm-3.73 0c0-2.8-1.04-4.24-3.41-4.24H94.6v8.48h1.93c2.38 0 3.42-1.44 3.42-4.24zM119.81 207.64h-4.84l-.98 3.16h-3.67l4.92-14h4.37l4.9 14h-3.75l-.95-3.16zm-.77-2.48l-1.02-3.35-.62-2.21h-.04l-.57 2.18-1.04 3.37h3.29zM143.58 201.45c0 2.86-1.93 4.5-5.41 4.5h-2.78v4.86h-3.65v-14h6.43c3.48-.01 5.41 1.63 5.41 4.64zm-3.66-.04c0-1.23-.7-1.85-2.31-1.85h-2.21v3.71h2.21c1.61 0 2.31-.61 2.31-1.86zM151.69 205.69h-2.18v5.11h-3.58v-14h6.68c3.37 0 5.28 1.57 5.28 4.45 0 2.04-.95 3.41-2.71 4.05l3.54 5.49h-4.03l-3-5.1zm-2.19-2.59h2.48c1.55 0 2.23-.53 2.23-1.78 0-1.23-.68-1.76-2.23-1.76h-2.48v3.54zM173.52 203.8c0 4.52-2.59 7.21-6.85 7.21s-6.87-2.69-6.87-7.21 2.61-7.21 6.87-7.21 6.85 2.7 6.85 7.21zm-9.99 0c0 2.86 1.1 4.35 3.14 4.35 2.02 0 3.12-1.48 3.12-4.35s-1.1-4.35-3.12-4.35c-2.04 0-3.14 1.49-3.14 4.35zM183.49 210.8h-4.28l-4.98-14h3.84l2.57 8.46.76 2.76.74-2.71 2.61-8.5h3.71l-4.97 13.99zM193.78 210.8h-3.65v-14h3.65v14zM209.6 203.8c0 4.47-2.4 7-6.79 7h-5.94v-14h5.94c4.39 0 6.79 2.53 6.79 7zm-3.73 0c0-2.8-1.04-4.24-3.41-4.24h-1.93v8.48h1.93c2.37 0 3.41-1.44 3.41-4.24zM223.28 207.98v2.82H212.1v-14H223v2.82h-7.25v2.84h5.77v2.65h-5.77v2.86h7.53zM231.26 205.69h-2.18v5.11h-3.58v-14h6.68c3.37 0 5.28 1.57 5.28 4.45 0 2.04-.95 3.41-2.71 4.05l3.54 5.49h-4.03l-3-5.1zm-2.18-2.59h2.48c1.55 0 2.23-.53 2.23-1.78 0-1.23-.68-1.76-2.23-1.76h-2.48v3.54z"/></svg>