<svg id="Layer_1" xmlns="http://www.w3.org/2000/svg" viewBox="0 0 970 250"><style>.st0{fill:#002554}</style><path class="st0" d="M34.06 205.18l-.71-1.6-.29-.93-.68.86-1.38 1.35-.81-.83 1.39-1.35.87-.65-.91-.3-1.58-.75.57-1.04 1.58.75.83.55.09-1.04.38-1.76h1.25l-.45 1.89-.38 1 1.02-.35 1.84-.36.07 1.16-1.81.36-1.06.07.52.84.73 1.58-1.08.55zM46.42 199.45l-.32 1.33h-3.19l-1.9 8.24h-1.57l1.9-8.24h-3.23l.32-1.33h7.99zM45.62 209.02l2.44-10.52h1.55l-1.1 4.77-.23.17c.13-.39.32-.72.59-.99.27-.27.59-.48.95-.62s.76-.22 1.18-.22c.52 0 .97.12 1.35.36.38.24.65.57.81 1.01.16.43.17.96.04 1.58l-1.04 4.45H50.6l1.02-4.35c.13-.55.07-.98-.16-1.3-.23-.31-.6-.47-1.1-.47-.39 0-.73.09-1.04.26-.3.17-.56.43-.76.76-.2.33-.37.75-.49 1.25l-.89 3.84h-1.56zM58.1 209.16c-.69 0-1.28-.14-1.77-.43-.49-.28-.88-.67-1.15-1.17-.27-.49-.41-1.05-.41-1.67 0-.77.15-1.48.46-2.12.31-.64.76-1.16 1.35-1.54.59-.39 1.3-.58 2.13-.58.62 0 1.15.13 1.6.38.44.25.78.6 1.02 1.05.23.45.35.97.35 1.57 0 .19-.01.39-.04.59-.02.2-.07.41-.14.61h-5.85v-1.19h5l-.57.41c.04-.12.06-.23.07-.34s.01-.22.01-.31c0-.32-.06-.59-.18-.83-.12-.23-.3-.41-.53-.54-.23-.13-.51-.19-.83-.19-.44 0-.81.09-1.11.27s-.55.42-.73.72c-.18.3-.31.64-.39 1.01-.08.37-.12.73-.12 1.09 0 .41.08.76.24 1.05s.38.52.67.69c.29.17.62.25 1.01.25.45 0 .82-.1 1.11-.29s.52-.44.69-.74l1.25.67c-.19.33-.45.61-.76.85s-.67.42-1.07.54c-.39.12-.83.19-1.31.19zM66.83 212.07l2.38-10.3h1.38l-.36 1.99-.17.1c.12-.46.31-.86.57-1.19s.59-.58.99-.75c.39-.17.81-.26 1.25-.26.49 0 .94.12 1.33.36.39.24.7.59.93 1.05.23.46.34 1.01.34 1.66 0 .61-.09 1.18-.28 1.72-.18.54-.44 1.01-.77 1.42s-.71.72-1.15.96-.92.35-1.44.35c-.45 0-.86-.09-1.23-.26s-.65-.43-.86-.78c-.21-.34-.33-.75-.36-1.23l.25-.23-1.23 5.4h-1.57zm4.79-4.15c.32 0 .62-.08.9-.24.28-.16.53-.38.74-.67.21-.29.38-.62.49-.99.12-.37.17-.77.17-1.2 0-.42-.07-.77-.21-1.05-.14-.29-.34-.5-.59-.65s-.55-.22-.89-.22c-.35 0-.66.08-.94.25-.28.17-.52.39-.73.67-.21.29-.37.62-.48 1.01-.11.39-.17.8-.17 1.23 0 .56.15 1.01.44 1.36.28.33.7.5 1.27.5zM76.55 209.02l1.68-7.25h1.31l-.23 1.96-.16-.14c.15-.41.37-.75.63-1.04.27-.29.57-.51.92-.67.35-.16.71-.24 1.09-.24.15 0 .29.01.41.03.12.02.23.05.31.1l-.42 1.39c-.1-.05-.21-.08-.33-.11-.12-.02-.27-.04-.46-.04-.35 0-.68.08-.99.24-.31.16-.58.4-.81.73s-.41.76-.54 1.29l-.87 3.76h-1.54zM85.64 201.77l-1.68 7.25h-1.55l1.68-7.25h1.55zm-.36-1.22c-.29 0-.52-.08-.7-.23-.17-.15-.25-.37-.23-.64.01-.34.12-.6.32-.78s.46-.28.77-.28c.3 0 .53.07.7.22.17.15.25.36.24.62-.02.36-.13.63-.33.81s-.46.28-.77.28zM86.35 209.02l1.68-7.25h1.36l-.3 1.83-.15-.1c.2-.62.56-1.09 1.06-1.4s1.06-.47 1.68-.47c.51 0 .95.12 1.32.36.37.24.63.58.78 1.02.15.45.15.98-.01 1.61l-1.03 4.41H91.2l1.02-4.32c.14-.56.09-1-.12-1.32-.22-.32-.56-.48-1.04-.48-.39 0-.73.09-1.03.26-.3.17-.55.43-.75.76-.2.33-.36.75-.49 1.25l-.89 3.84h-1.55zm9.71 0l1-4.32c.13-.56.08-1-.13-1.32-.21-.32-.55-.48-1.02-.48-.4 0-.74.09-1.04.26s-.54.43-.75.76c-.2.33-.36.75-.48 1.25l-.15-1.41c.26-.72.66-1.25 1.21-1.61.55-.36 1.15-.54 1.82-.54.51 0 .95.12 1.32.36.37.24.63.58.78 1.02.15.45.15.98.01 1.61l-1.03 4.41h-1.54zM103.03 209.14c-.53 0-1.01-.13-1.42-.38-.42-.26-.74-.62-.97-1.08-.23-.46-.35-1.01-.35-1.64 0-.59.09-1.15.27-1.68.18-.53.43-1 .75-1.41.32-.41.71-.73 1.16-.96s.94-.35 1.47-.35c.4 0 .76.07 1.08.2.32.14.6.33.82.59.22.26.37.58.45.96l.38-1.61h1.55l-1.68 7.25h-1.38l.25-1.35c-.24.44-.57.8-.99 1.07-.42.26-.88.39-1.39.39zm.54-1.23c.31 0 .6-.08.88-.25.28-.17.52-.39.73-.68.21-.29.37-.63.49-1.01s.18-.78.18-1.2c0-.39-.07-.72-.21-1.01-.14-.29-.33-.5-.58-.66-.25-.15-.54-.23-.88-.23-.36 0-.68.08-.96.25-.29.17-.53.39-.74.67s-.37.61-.49.99-.17.76-.17 1.17c0 .42.07.77.2 1.06s.33.51.59.67c.27.15.58.23.96.23zM108.94 209.02l1.68-7.25h1.31l-.23 1.96-.16-.14c.15-.41.37-.75.63-1.04.27-.29.57-.51.92-.67.35-.16.71-.24 1.09-.24.15 0 .29.01.41.03.12.02.23.05.31.1l-.42 1.39c-.1-.05-.21-.08-.33-.11-.12-.02-.27-.04-.46-.04-.35 0-.68.08-.99.24-.31.16-.58.4-.81.73s-.41.76-.54 1.29l-.87 3.76h-1.54zM114.8 212.14c-.39 0-.73-.04-1.02-.13s-.53-.21-.71-.36l.54-1.2c.33.3.71.45 1.15.45.29 0 .55-.08.78-.23.23-.16.45-.4.66-.73l.57-.91-1.28-7.25h1.55l.52 4.08.23 1.8.96-1.71 2.36-4.16h1.71l-5.24 8.43c-.28.46-.57.84-.86 1.12s-.6.49-.92.62c-.32.12-.65.18-1 .18zM130.57 209.16c-.72 0-1.32-.15-1.82-.44s-.88-.68-1.15-1.18a3.42 3.42 0 0 1-.41-1.65c0-.82.16-1.55.49-2.19.32-.64.77-1.14 1.35-1.51.58-.37 1.25-.55 2.04-.55.72 0 1.32.15 1.82.44s.88.68 1.14 1.17c.26.49.39 1.04.39 1.65 0 .8-.16 1.53-.47 2.17-.31.64-.76 1.15-1.34 1.52s-1.27.57-2.04.57zm.03-1.22c.32 0 .62-.08.89-.23.28-.15.52-.37.73-.65.21-.28.37-.61.48-.98.11-.37.17-.77.17-1.2 0-.39-.07-.73-.2-1.03-.13-.3-.33-.54-.61-.72-.28-.18-.62-.27-1.04-.27-.32 0-.62.08-.9.23-.28.15-.52.37-.73.65-.2.28-.36.6-.48.97s-.17.78-.17 1.21c0 .37.07.71.2 1.02.14.31.34.55.62.73.27.18.62.27 1.04.27zM140.81 201.66c.5 0 .96.12 1.36.36.4.24.72.59.94 1.06.23.46.34 1.03.34 1.7 0 .6-.09 1.16-.28 1.69-.18.53-.44.99-.76 1.4-.32.41-.71.72-1.15.96s-.92.35-1.44.35c-.42 0-.79-.07-1.13-.22-.34-.15-.61-.35-.83-.62-.21-.27-.36-.57-.44-.91l-.39 1.6h-1.52l2.44-10.52h1.55l-1.03 4.42c.23-.38.55-.68.96-.92.42-.24.88-.35 1.38-.35zm-1.21 6.26c.32 0 .62-.08.9-.24.28-.16.53-.38.74-.66.21-.28.38-.61.49-.99.12-.38.17-.78.17-1.2 0-.43-.07-.79-.22-1.08-.15-.28-.35-.5-.6-.65-.26-.14-.55-.22-.88-.22-.35 0-.67.08-.95.25-.29.17-.53.39-.74.67s-.37.62-.47 1.01c-.11.39-.16.8-.16 1.23 0 .56.15 1.01.44 1.36.3.35.72.52 1.28.52zM143.55 212.14c-.32 0-.63-.04-.94-.12s-.55-.21-.73-.38l.45-1.22c.14.11.29.2.46.27.17.07.34.11.51.11.28 0 .5-.08.67-.23.16-.16.29-.45.39-.89l1.86-7.91h1.55l-1.9 8.21c-.17.75-.47 1.3-.89 1.65-.42.34-.9.51-1.43.51zm3.86-11.59c-.29 0-.52-.08-.7-.23-.17-.15-.25-.37-.23-.64.01-.34.12-.6.32-.78s.46-.28.77-.28c.3 0 .53.07.7.22.17.15.25.36.24.62-.02.36-.13.63-.33.81s-.46.28-.77.28zM152.2 209.16c-.69 0-1.28-.14-1.77-.43-.49-.28-.88-.67-1.15-1.17-.27-.49-.41-1.05-.41-1.67 0-.77.15-1.48.46-2.12.31-.64.76-1.16 1.35-1.54.59-.39 1.3-.58 2.13-.58.62 0 1.15.13 1.6.38.44.25.78.6 1.02 1.05.23.45.35.97.35 1.57 0 .19-.01.39-.04.59-.02.2-.07.41-.14.61h-5.85v-1.19h5l-.57.41c.04-.12.06-.23.07-.34s.01-.22.01-.31c0-.32-.06-.59-.18-.83-.12-.23-.3-.41-.53-.54-.23-.13-.51-.19-.83-.19-.44 0-.81.09-1.11.27s-.55.42-.73.72c-.18.3-.31.64-.39 1.01-.08.37-.12.73-.12 1.09 0 .41.08.76.24 1.05s.38.52.67.69c.29.17.62.25 1.01.25.45 0 .82-.1 1.11-.29s.52-.44.69-.74l1.25.67c-.19.33-.45.61-.76.85s-.67.42-1.07.54c-.39.12-.83.19-1.31.19zM160.58 209.16c-.7 0-1.29-.15-1.79-.44s-.88-.68-1.15-1.18c-.27-.5-.4-1.05-.4-1.66 0-.82.16-1.55.49-2.18.32-.63.78-1.13 1.36-1.5.58-.37 1.27-.55 2.07-.55.58 0 1.09.1 1.53.3.44.2.79.48 1.06.83.27.36.43.76.49 1.22l-1.55.32c-.02-.41-.16-.75-.41-1.03s-.65-.42-1.17-.42c-.34 0-.65.08-.93.24-.28.16-.52.38-.73.65-.21.28-.37.6-.48.97-.11.37-.17.77-.17 1.2 0 .39.07.73.22 1.04s.36.54.63.72c.28.17.62.26 1.02.26.34 0 .66-.09.96-.28s.51-.46.64-.82l1.45.51c-.26.58-.67 1.03-1.22 1.34s-1.2.46-1.92.46zM165.32 202.99l.28-1.22h5.15l-.28 1.22h-5.15zm2.66 6.15c-.5 0-.93-.09-1.28-.28-.35-.19-.6-.47-.75-.83-.15-.37-.16-.81-.04-1.33l1.49-6.5 1.67-.46-1.64 6.98c-.1.43-.04.73.17.92.21.19.49.28.83.28a1.804 1.804 0 0 0 1.06-.32l.12 1.15c-.25.15-.51.26-.78.32-.27.04-.55.07-.85.07zM174.08 201.77l-1.68 7.25h-1.55l1.68-7.25h1.55zm-.36-1.22c-.29 0-.52-.08-.7-.23-.17-.15-.25-.37-.23-.64.01-.34.12-.6.32-.78s.46-.28.77-.28c.3 0 .53.07.7.22.17.15.25.36.24.62-.02.36-.13.63-.33.81s-.46.28-.77.28zM180.95 201.77h1.73l-4.45 7.25h-1.7l-1.16-7.25h1.54l.8 6.47-.35-.06 3.59-6.41zM186.24 209.16c-.69 0-1.28-.14-1.77-.43-.49-.28-.88-.67-1.15-1.17-.27-.49-.41-1.05-.41-1.67 0-.77.15-1.48.46-2.12.31-.64.76-1.16 1.35-1.54.59-.39 1.3-.58 2.13-.58.62 0 1.15.13 1.6.38.44.25.78.6 1.02 1.05.23.45.35.97.35 1.57 0 .19-.01.39-.04.59-.02.2-.07.41-.14.61h-5.85v-1.19h5l-.57.41c.04-.12.06-.23.07-.34s.01-.22.01-.31c0-.32-.06-.59-.18-.83-.12-.23-.3-.41-.53-.54-.23-.13-.51-.19-.83-.19-.44 0-.81.09-1.11.27s-.55.42-.73.72c-.18.3-.31.64-.39 1.01-.08.37-.12.73-.12 1.09 0 .41.08.76.24 1.05s.38.52.67.69c.29.17.62.25 1.01.25.45 0 .82-.1 1.11-.29s.52-.44.69-.74l1.25.67c-.19.33-.45.61-.76.85s-.67.42-1.07.54c-.38.12-.83.19-1.31.19zM196.73 209.02l-.67-7.25h1.51l.39 5.63 2.9-5.63h1.54l.61 5.7 2.9-5.7h1.65l-3.93 7.25h-1.7l-.65-5.37-2.83 5.37h-1.72zM210.55 209.14c-.53 0-1.01-.13-1.42-.38-.42-.26-.74-.62-.97-1.08-.23-.46-.35-1.01-.35-1.64 0-.59.09-1.15.27-1.68.18-.53.43-1 .75-1.41.32-.41.71-.73 1.16-.96s.94-.35 1.47-.35c.4 0 .76.07 1.08.2.32.14.6.33.82.59.22.26.37.58.45.96l.38-1.61h1.55l-1.68 7.25h-1.38l.25-1.35c-.24.44-.57.8-.99 1.07-.42.26-.89.39-1.39.39zm.54-1.23c.31 0 .6-.08.88-.25.28-.17.52-.39.73-.68.21-.29.37-.63.49-1.01s.18-.78.18-1.2c0-.39-.07-.72-.21-1.01-.14-.29-.33-.5-.58-.66-.25-.15-.54-.23-.88-.23-.36 0-.68.08-.96.25-.29.17-.53.39-.74.67s-.37.61-.49.99-.17.76-.17 1.17c0 .42.07.77.2 1.06s.33.51.59.67c.26.15.58.23.96.23zM219.81 209.18c-.55 0-1.06-.08-1.52-.25-.46-.16-.86-.4-1.2-.71-.34-.31-.6-.67-.8-1.09l1.17-.71c.2.49.5.87.89 1.14.39.27.86.4 1.41.4.44 0 .79-.09 1.03-.26a.82.82 0 0 0 .36-.7c0-.21-.07-.38-.2-.51-.14-.13-.34-.23-.62-.31l-1.16-.35c-.64-.17-1.11-.43-1.41-.78-.3-.34-.46-.74-.46-1.2 0-.44.12-.82.35-1.15.23-.33.57-.6 1-.79.44-.19.95-.29 1.54-.29.71 0 1.33.15 1.87.44.54.29.94.71 1.19 1.26l-1.12.75c-.11-.25-.26-.47-.45-.65s-.42-.33-.67-.43c-.26-.11-.54-.16-.85-.16-.47 0-.83.08-1.06.24-.23.16-.35.38-.35.65 0 .24.09.43.28.55.18.13.4.23.65.3l1.41.42c.5.14.89.37 1.18.69.28.31.42.68.42 1.11 0 .49-.12.92-.36 1.28s-.58.63-1.02.83-.93.28-1.5.28zM229.02 202.99l.28-1.22h5.15l-.28 1.22h-5.15zm2.65 6.15c-.5 0-.93-.09-1.28-.28-.35-.19-.6-.47-.75-.83-.15-.37-.16-.81-.04-1.33l1.49-6.5 1.67-.46-1.64 6.98c-.1.43-.04.73.17.92.21.19.49.28.83.28a1.804 1.804 0 0 0 1.06-.32l.12 1.15c-.25.15-.51.26-.78.32-.26.04-.55.07-.85.07zM238.38 209.16c-.72 0-1.32-.15-1.82-.44s-.88-.68-1.15-1.18a3.42 3.42 0 0 1-.41-1.65c0-.82.16-1.55.49-2.19.32-.64.77-1.14 1.35-1.51.58-.37 1.25-.55 2.04-.55.72 0 1.32.15 1.82.44s.88.68 1.14 1.17c.26.49.39 1.04.39 1.65 0 .8-.16 1.53-.47 2.17-.31.64-.76 1.15-1.34 1.52s-1.27.57-2.04.57zm.02-1.22c.32 0 .62-.08.89-.23.28-.15.52-.37.73-.65.21-.28.37-.61.48-.98.11-.37.17-.77.17-1.2 0-.39-.07-.73-.2-1.03-.13-.3-.33-.54-.61-.72-.28-.18-.62-.27-1.04-.27-.32 0-.62.08-.9.23-.28.15-.52.37-.73.65-.2.28-.36.6-.48.97s-.17.78-.17 1.21c0 .37.07.71.2 1.02.14.31.34.55.62.73.28.18.63.27 1.04.27zM251.76 209.16c-.69 0-1.28-.14-1.77-.43-.49-.28-.88-.67-1.15-1.17-.27-.49-.41-1.05-.41-1.67 0-.77.15-1.48.46-2.12.31-.64.76-1.16 1.35-1.54.59-.39 1.3-.58 2.13-.58.62 0 1.15.13 1.6.38.44.25.78.6 1.02 1.05.23.45.35.97.35 1.57 0 .19-.01.39-.04.59-.02.2-.07.41-.14.61h-5.85v-1.19h5l-.57.41c.04-.12.06-.23.07-.34s.01-.22.01-.31c0-.32-.06-.59-.18-.83-.12-.23-.3-.41-.53-.54-.23-.13-.51-.19-.83-.19-.44 0-.81.09-1.11.27s-.55.42-.73.72c-.18.3-.31.64-.39 1.01-.08.37-.12.73-.12 1.09 0 .41.08.76.24 1.05s.38.52.67.69c.29.17.62.25 1.01.25.45 0 .82-.1 1.11-.29s.52-.44.69-.74l1.25.67c-.19.33-.45.61-.76.85s-.67.42-1.07.54c-.38.12-.82.19-1.31.19zM262.4 201.77h1.73l-4.45 7.25h-1.7l-1.16-7.25h1.54l.8 6.47-.35-.06 3.59-6.41zM267.1 209.14c-.53 0-1.01-.13-1.42-.38-.42-.26-.74-.62-.97-1.08-.23-.46-.35-1.01-.35-1.64 0-.59.09-1.15.27-1.68.18-.53.43-1 .75-1.41.32-.41.71-.73 1.16-.96s.94-.35 1.47-.35c.4 0 .76.07 1.08.2.32.14.6.33.82.59.22.26.37.58.45.96l.38-1.61h1.55l-1.68 7.25h-1.38l.25-1.35c-.24.44-.57.8-.99 1.07-.43.26-.89.39-1.39.39zm.53-1.23c.31 0 .6-.08.88-.25.28-.17.52-.39.73-.68.21-.29.37-.63.49-1.01s.18-.78.18-1.2c0-.39-.07-.72-.21-1.01-.14-.29-.33-.5-.58-.66-.25-.15-.54-.23-.88-.23-.36 0-.68.08-.96.25-.29.17-.53.39-.74.67s-.37.61-.49.99-.17.76-.17 1.17c0 .42.07.77.2 1.06s.33.51.59.67c.27.15.59.23.96.23zM275.18 209.14c-.73 0-1.23-.21-1.52-.64-.29-.42-.35-.99-.19-1.68l1.93-8.31h1.55l-1.93 8.33c-.1.38-.07.65.07.82.15.17.4.25.75.25.14 0 .25 0 .36-.01.1-.01.19-.02.27-.04l-.33 1.13c-.15.06-.3.1-.44.12-.15.02-.32.03-.52.03zM280.38 209.14c-.52 0-.98-.12-1.37-.35a1.97 1.97 0 0 1-.84-1c-.17-.43-.18-.96-.04-1.58l1.03-4.44h1.55l-1 4.31c-.14.58-.08 1.02.17 1.33s.62.46 1.11.46c.39 0 .73-.08 1.02-.25.29-.17.54-.42.75-.75.2-.33.36-.75.46-1.24l.9-3.84h1.55l-1.68 7.25h-1.38l.3-1.83.15.12c-.19.61-.53 1.07-1.02 1.37s-1.04.44-1.66.44zM289.51 209.14c-.53 0-1.01-.13-1.42-.38-.42-.26-.74-.62-.97-1.08-.23-.46-.35-1.01-.35-1.64 0-.59.09-1.15.27-1.68.18-.53.43-1 .75-1.41.32-.41.71-.73 1.16-.96s.94-.35 1.47-.35c.4 0 .76.07 1.08.2.32.14.6.33.82.59.22.26.37.58.45.96l.38-1.61h1.55l-1.68 7.25h-1.38l.25-1.35c-.24.44-.57.8-.99 1.07-.43.26-.89.39-1.39.39zm.53-1.23c.31 0 .6-.08.88-.25.28-.17.52-.39.73-.68.21-.29.37-.63.49-1.01s.18-.78.18-1.2c0-.39-.07-.72-.21-1.01-.14-.29-.33-.5-.58-.66-.25-.15-.54-.23-.88-.23-.36 0-.68.08-.96.25-.29.17-.53.39-.74.67s-.37.61-.49.99-.17.76-.17 1.17c0 .42.07.77.2 1.06s.33.51.59.67c.27.15.59.23.96.23zM295.95 202.99l.28-1.22h5.15l-.28 1.22h-5.15zm2.65 6.15c-.5 0-.93-.09-1.28-.28-.35-.19-.6-.47-.75-.83-.15-.37-.16-.81-.04-1.33l1.49-6.5 1.67-.46-1.64 6.98c-.1.43-.04.73.17.92.21.19.49.28.83.28a1.804 1.804 0 0 0 1.06-.32l.12 1.15c-.25.15-.51.26-.78.32-.26.04-.55.07-.85.07zM305.25 209.16c-.69 0-1.28-.14-1.77-.43-.49-.28-.88-.67-1.15-1.17-.27-.49-.41-1.05-.41-1.67 0-.77.15-1.48.46-2.12.31-.64.76-1.16 1.35-1.54.59-.39 1.3-.58 2.13-.58.62 0 1.15.13 1.6.38.44.25.78.6 1.02 1.05.23.45.35.97.35 1.57 0 .19-.01.39-.04.59-.02.2-.07.41-.14.61h-5.85v-1.19h5l-.57.41c.04-.12.06-.23.07-.34s.01-.22.01-.31c0-.32-.06-.59-.18-.83-.12-.23-.3-.41-.53-.54-.23-.13-.51-.19-.83-.19-.44 0-.81.09-1.11.27s-.55.42-.73.72c-.18.3-.31.64-.39 1.01-.08.37-.12.73-.12 1.09 0 .41.08.76.24 1.05s.38.52.67.69c.29.17.62.25 1.01.25.45 0 .82-.1 1.11-.29s.52-.44.69-.74l1.25.67c-.19.33-.45.61-.76.85s-.67.42-1.07.54c-.39.12-.83.19-1.31.19zM318.45 209.16c-.72 0-1.32-.15-1.82-.44s-.88-.68-1.15-1.18a3.42 3.42 0 0 1-.41-1.65c0-.82.16-1.55.49-2.19.32-.64.77-1.14 1.35-1.51.58-.37 1.25-.55 2.04-.55.72 0 1.32.15 1.82.44s.88.68 1.14 1.17c.26.49.39 1.04.39 1.65 0 .8-.16 1.53-.47 2.17-.31.64-.76 1.15-1.34 1.52s-1.27.57-2.04.57zm.03-1.22c.32 0 .62-.08.89-.23.28-.15.52-.37.73-.65.21-.28.37-.61.48-.98.11-.37.17-.77.17-1.2 0-.39-.07-.73-.2-1.03-.13-.3-.33-.54-.61-.72-.28-.18-.62-.27-1.04-.27-.32 0-.62.08-.9.23-.28.15-.52.37-.73.65-.2.28-.36.6-.48.97s-.17.78-.17 1.21c0 .37.07.71.2 1.02.14.31.34.55.62.73.27.18.62.27 1.04.27zM329.24 201.77h1.73l-4.45 7.25h-1.7l-1.16-7.25h1.54l.8 6.47-.35-.06 3.59-6.41zM334.53 209.16c-.69 0-1.28-.14-1.77-.43-.49-.28-.88-.67-1.15-1.17-.27-.49-.41-1.05-.41-1.67 0-.77.15-1.48.46-2.12.31-.64.76-1.16 1.35-1.54.59-.39 1.3-.58 2.13-.58.62 0 1.15.13 1.6.38.44.25.78.6 1.02 1.05.23.45.35.97.35 1.57 0 .19-.01.39-.04.59-.02.2-.07.41-.14.61h-5.85v-1.19h5l-.57.41c.04-.12.06-.23.07-.34s.01-.22.01-.31c0-.32-.06-.59-.18-.83-.12-.23-.3-.41-.53-.54-.23-.13-.51-.19-.83-.19-.44 0-.81.09-1.11.27s-.55.42-.73.72c-.18.3-.31.64-.39 1.01-.08.37-.12.73-.12 1.09 0 .41.08.76.24 1.05s.38.52.67.69c.29.17.62.25 1.01.25.45 0 .82-.1 1.11-.29s.52-.44.69-.74l1.25.67c-.19.33-.45.61-.76.85s-.67.42-1.07.54c-.38.12-.82.19-1.31.19zM339.23 209.02l1.68-7.25h1.31l-.23 1.96-.16-.14c.15-.41.37-.75.63-1.04.27-.29.57-.51.92-.67.35-.16.71-.24 1.09-.24.15 0 .29.01.41.03.12.02.23.05.31.1l-.42 1.39c-.1-.05-.21-.08-.33-.11-.12-.02-.27-.04-.46-.04-.35 0-.68.08-.99.24-.31.16-.58.4-.81.73s-.41.76-.54 1.29l-.87 3.76h-1.54zM348.02 209.14c-.53 0-1.01-.13-1.42-.38-.42-.26-.74-.62-.97-1.08-.23-.46-.35-1.01-.35-1.64 0-.59.09-1.15.27-1.68.18-.53.43-1 .75-1.41.32-.41.71-.73 1.16-.96s.94-.35 1.47-.35c.4 0 .76.07 1.08.2.32.14.6.33.82.59.22.26.37.58.45.96l.38-1.61h1.55l-1.68 7.25h-1.38l.25-1.35c-.24.44-.57.8-.99 1.07-.42.26-.88.39-1.39.39zm.54-1.23c.31 0 .6-.08.88-.25.28-.17.52-.39.73-.68.21-.29.37-.63.49-1.01s.18-.78.18-1.2c0-.39-.07-.72-.21-1.01-.14-.29-.33-.5-.58-.66-.25-.15-.54-.23-.88-.23-.36 0-.68.08-.96.25-.29.17-.53.39-.74.67s-.37.61-.49.99-.17.76-.17 1.17c0 .42.07.77.2 1.06s.33.51.59.67c.26.15.58.23.96.23zM356.1 209.14c-.73 0-1.23-.21-1.52-.64-.29-.42-.35-.99-.19-1.68l1.93-8.31h1.55l-1.93 8.33c-.1.38-.07.65.07.82.15.17.4.25.75.25.14 0 .25 0 .36-.01.1-.01.19-.02.27-.04l-.33 1.13c-.15.06-.3.1-.44.12-.14.02-.31.03-.52.03zM360.69 209.14c-.73 0-1.23-.21-1.52-.64-.29-.42-.35-.99-.19-1.68l1.93-8.31h1.55l-1.93 8.33c-.1.38-.07.65.07.82.15.17.4.25.75.25.14 0 .25 0 .36-.01.1-.01.19-.02.27-.04l-.33 1.13c-.15.06-.3.1-.44.12-.15.02-.32.03-.52.03zM366.71 212.07l2.38-10.3h1.38l-.36 1.99-.17.1c.12-.46.31-.86.57-1.19s.59-.58.99-.75c.39-.17.81-.26 1.25-.26.49 0 .94.12 1.33.36.39.24.7.59.93 1.05.23.46.34 1.01.34 1.66 0 .61-.09 1.18-.28 1.72-.18.54-.44 1.01-.77 1.42s-.71.72-1.15.96-.92.35-1.44.35c-.45 0-.86-.09-1.23-.26s-.65-.43-.86-.78c-.21-.34-.33-.75-.36-1.23l.25-.23-1.23 5.4h-1.57zm4.78-4.15c.32 0 .62-.08.9-.24.28-.16.53-.38.74-.67.21-.29.38-.62.49-.99.12-.37.17-.77.17-1.2 0-.42-.07-.77-.21-1.05-.14-.29-.34-.5-.59-.65s-.55-.22-.89-.22c-.35 0-.66.08-.94.25-.28.17-.52.39-.73.67-.21.29-.37.62-.48 1.01-.11.39-.17.8-.17 1.23 0 .56.15 1.01.44 1.36.29.33.71.5 1.27.5zM379.55 209.14c-.53 0-1.01-.13-1.42-.38-.42-.26-.74-.62-.97-1.08-.23-.46-.35-1.01-.35-1.64 0-.59.09-1.15.27-1.68.18-.53.43-1 .75-1.41.32-.41.71-.73 1.16-.96s.94-.35 1.47-.35c.4 0 .76.07 1.08.2.32.14.6.33.82.59.22.26.37.58.45.96l.38-1.61h1.55l-1.68 7.25h-1.38l.25-1.35c-.24.44-.57.8-.99 1.07-.43.26-.89.39-1.39.39zm.53-1.23c.31 0 .6-.08.88-.25.28-.17.52-.39.73-.68.21-.29.37-.63.49-1.01s.18-.78.18-1.2c0-.39-.07-.72-.21-1.01-.14-.29-.33-.5-.58-.66-.25-.15-.54-.23-.88-.23-.36 0-.68.08-.96.25-.29.17-.53.39-.74.67s-.37.61-.49.99-.17.76-.17 1.17c0 .42.07.77.2 1.06s.33.51.59.67c.27.15.59.23.96.23zM385.99 202.99l.28-1.22h5.15l-.28 1.22h-5.15zm2.65 6.15c-.5 0-.93-.09-1.28-.28-.35-.19-.6-.47-.75-.83-.15-.37-.16-.81-.04-1.33l1.49-6.5 1.67-.46-1.64 6.98c-.1.43-.04.73.17.92.21.19.49.28.83.28a1.804 1.804 0 0 0 1.06-.32l.12 1.15c-.25.15-.51.26-.78.32-.27.04-.55.07-.85.07zM394.75 201.77l-1.68 7.25h-1.55l1.68-7.25h1.55zm-.37-1.22c-.29 0-.52-.08-.7-.23-.17-.15-.25-.37-.23-.64.01-.34.12-.6.32-.78s.46-.28.77-.28c.3 0 .53.07.7.22.17.15.25.36.24.62-.02.36-.13.63-.33.81s-.46.28-.77.28zM399.17 209.16c-.69 0-1.28-.14-1.77-.43-.49-.28-.88-.67-1.15-1.17-.27-.49-.41-1.05-.41-1.67 0-.77.15-1.48.46-2.12.31-.64.76-1.16 1.35-1.54.59-.39 1.3-.58 2.13-.58.62 0 1.15.13 1.6.38.44.25.78.6 1.02 1.05.23.45.35.97.35 1.57 0 .19-.01.39-.04.59-.02.2-.07.41-.14.61h-5.85v-1.19h5l-.57.41c.04-.12.06-.23.07-.34s.01-.22.01-.31c0-.32-.06-.59-.18-.83-.12-.23-.3-.41-.53-.54-.23-.13-.51-.19-.83-.19-.44 0-.81.09-1.11.27s-.55.42-.73.72c-.18.3-.31.64-.39 1.01-.08.37-.12.73-.12 1.09 0 .41.08.76.24 1.05s.38.52.67.69c.29.17.62.25 1.01.25.45 0 .82-.1 1.11-.29s.52-.44.69-.74l1.25.67c-.19.33-.45.61-.76.85s-.67.42-1.07.54c-.38.12-.82.19-1.31.19zM403.87 209.02l1.68-7.25h1.36l-.3 1.83-.15-.1c.2-.62.56-1.09 1.07-1.4.51-.31 1.08-.47 1.7-.47.54 0 1 .12 1.38.36.38.24.64.58.8 1.02.15.44.16.97.01 1.6l-1.03 4.42h-1.55l1.02-4.35c.13-.55.07-.98-.16-1.3-.23-.31-.6-.47-1.1-.47-.39 0-.73.09-1.04.26-.3.17-.56.43-.76.76-.2.33-.37.75-.49 1.25l-.89 3.84h-1.55zM413.13 202.99l.28-1.22h5.15l-.28 1.22h-5.15zm2.65 6.15c-.5 0-.93-.09-1.28-.28-.35-.19-.6-.47-.75-.83-.15-.37-.16-.81-.04-1.33l1.49-6.5 1.67-.46-1.64 6.98c-.1.43-.04.73.17.92.21.19.49.28.83.28a1.804 1.804 0 0 0 1.06-.32l.12 1.15c-.25.15-.51.26-.78.32-.27.04-.55.07-.85.07zM31.96 226.69c-.55 0-1.06-.08-1.52-.25-.46-.16-.86-.4-1.2-.71-.34-.31-.6-.67-.8-1.09l1.17-.71c.2.49.5.87.89 1.14.39.27.86.4 1.41.4.44 0 .79-.09 1.03-.26a.82.82 0 0 0 .36-.7c0-.21-.07-.38-.2-.51-.14-.13-.34-.23-.62-.31l-1.16-.35c-.64-.17-1.11-.43-1.41-.78-.3-.34-.46-.74-.46-1.2 0-.44.12-.82.35-1.15.23-.33.57-.6 1-.79.44-.19.95-.29 1.54-.29.71 0 1.33.15 1.87.44.54.29.94.71 1.19 1.26l-1.12.75c-.11-.25-.26-.47-.45-.65s-.42-.33-.67-.43c-.26-.11-.54-.16-.85-.16-.47 0-.83.08-1.06.24-.23.16-.35.38-.35.65 0 .24.09.43.28.55.18.13.4.23.65.3l1.41.42c.5.14.89.37 1.18.69.28.31.42.68.42 1.11 0 .49-.12.92-.36 1.28s-.58.63-1.02.83-.93.28-1.5.28zM39.14 226.65c-.53 0-1.01-.13-1.42-.38-.42-.26-.74-.62-.97-1.08-.23-.46-.35-1.01-.35-1.64 0-.59.09-1.15.27-1.68.18-.53.43-1 .75-1.41.32-.41.71-.73 1.16-.96s.94-.35 1.47-.35c.4 0 .76.07 1.08.2.32.14.6.33.82.59.22.26.37.58.45.96l.38-1.61h1.55l-1.68 7.25h-1.38l.25-1.35c-.24.44-.57.8-.99 1.07-.43.26-.89.39-1.39.39zm.53-1.23c.31 0 .6-.08.88-.25.28-.17.52-.39.73-.68.21-.29.37-.63.49-1.01s.18-.78.18-1.2c0-.39-.07-.72-.21-1.01-.14-.29-.33-.5-.58-.66-.25-.15-.54-.23-.88-.23-.36 0-.68.08-.96.25-.29.17-.53.39-.74.67s-.37.61-.49.99-.17.76-.17 1.17c0 .42.07.77.2 1.06s.33.51.59.67c.27.15.59.23.96.23zM45.58 220.5l.28-1.22H51l-.28 1.22h-5.14zm2.65 6.15c-.5 0-.93-.09-1.28-.28-.35-.19-.6-.47-.75-.83-.15-.37-.16-.81-.04-1.33l1.49-6.5 1.67-.46-1.64 6.98c-.1.43-.04.73.17.92.21.19.49.28.83.28a1.804 1.804 0 0 0 1.06-.32l.12 1.15c-.25.15-.51.26-.78.32-.27.04-.55.07-.85.07zM54.34 219.28l-1.68 7.25H51.1l1.68-7.25h1.56zm-.36-1.22c-.29 0-.52-.08-.7-.23-.17-.15-.25-.37-.23-.64.01-.34.12-.6.32-.78s.46-.28.77-.28c.3 0 .53.07.7.22.17.15.25.36.24.62-.02.36-.13.63-.33.81s-.46.28-.77.28zM58.4 226.69c-.55 0-1.06-.08-1.52-.25-.46-.16-.86-.4-1.2-.71-.34-.31-.6-.67-.8-1.09l1.17-.71c.2.49.5.87.89 1.14.39.27.86.4 1.41.4.44 0 .79-.09 1.03-.26a.82.82 0 0 0 .36-.7c0-.21-.07-.38-.2-.51-.14-.13-.34-.23-.62-.31l-1.16-.35c-.64-.17-1.11-.43-1.41-.78-.3-.34-.46-.74-.46-1.2 0-.44.12-.82.35-1.15.23-.33.57-.6 1-.79.44-.19.95-.29 1.54-.29.71 0 1.33.15 1.87.44.54.29.94.71 1.19 1.26l-1.12.75c-.11-.25-.26-.47-.45-.65s-.42-.33-.67-.43c-.26-.11-.54-.16-.85-.16-.47 0-.83.08-1.06.24-.23.16-.35.38-.35.65 0 .24.09.43.28.55.18.13.4.23.65.3l1.41.42c.5.14.89.37 1.18.69.28.31.42.68.42 1.11 0 .49-.12.92-.36 1.28s-.58.63-1.02.83-.93.28-1.5.28zM63.14 220.5l.29-1.22h5.11l-.29 1.22h-5.11zm.03 6.03l1.94-8.41c.13-.53.31-.96.56-1.28.25-.32.55-.55.92-.7.37-.15.79-.22 1.26-.22.3 0 .58.03.83.09s.44.15.58.25l-.44 1.13c-.09-.06-.21-.11-.36-.16-.16-.05-.33-.07-.52-.07-.4 0-.7.09-.91.27s-.37.5-.46.95l-.23 1.03-.06.39-1.55 6.73h-1.56zM71.5 226.65c-.53 0-1.01-.13-1.42-.38-.42-.26-.74-.62-.97-1.08-.23-.46-.35-1.01-.35-1.64 0-.59.09-1.15.27-1.68.18-.53.43-1 .75-1.41.32-.41.71-.73 1.16-.96s.94-.35 1.47-.35c.4 0 .76.07 1.08.2.32.14.6.33.82.59.22.26.37.58.45.96l.38-1.61h1.55l-1.68 7.25h-1.38l.25-1.35c-.24.44-.57.8-.99 1.07-.43.26-.89.39-1.39.39zm.54-1.23c.31 0 .6-.08.88-.25.28-.17.52-.39.73-.68.21-.29.37-.63.49-1.01s.18-.78.18-1.2c0-.39-.07-.72-.21-1.01-.14-.29-.33-.5-.58-.66-.25-.15-.54-.23-.88-.23-.36 0-.68.08-.96.25-.29.17-.53.39-.74.67s-.37.61-.49.99-.17.76-.17 1.17c0 .42.07.77.2 1.06s.33.51.59.67c.26.15.58.23.96.23zM81.15 226.66c-.7 0-1.29-.15-1.79-.44s-.88-.68-1.15-1.18c-.27-.5-.4-1.05-.4-1.66 0-.82.16-1.55.49-2.18.32-.63.78-1.13 1.36-1.5.58-.37 1.27-.55 2.07-.55.58 0 1.09.1 1.53.3.44.2.79.48 1.06.83.27.36.43.76.49 1.22l-1.55.32c-.02-.41-.16-.75-.41-1.03s-.65-.42-1.17-.42c-.34 0-.65.08-.93.24-.28.16-.52.38-.73.65-.21.28-.37.6-.48.97-.11.37-.17.77-.17 1.2 0 .39.07.73.22 1.04s.36.54.63.72c.28.17.62.26 1.02.26.34 0 .66-.09.96-.28s.51-.46.64-.82l1.45.51c-.26.58-.67 1.03-1.22 1.34s-1.2.46-1.92.46zM85.89 220.5l.28-1.22h5.15l-.28 1.22h-5.15zm2.65 6.15c-.5 0-.93-.09-1.28-.28-.35-.19-.6-.47-.75-.83-.15-.37-.16-.81-.04-1.33l1.49-6.5 1.67-.46-1.64 6.98c-.1.43-.04.73.17.92.21.19.49.28.83.28a1.804 1.804 0 0 0 1.06-.32l.12 1.15c-.25.15-.51.26-.78.32-.26.04-.55.07-.85.07zM94.65 219.28l-1.68 7.25h-1.55l1.68-7.25h1.55zm-.36-1.22c-.29 0-.52-.08-.7-.23-.17-.15-.25-.37-.23-.64.01-.34.12-.6.32-.78s.46-.28.77-.28c.3 0 .53.07.7.22.17.15.25.36.24.62-.02.36-.13.63-.33.81s-.46.28-.77.28zM99.13 226.66c-.72 0-1.32-.15-1.82-.44s-.88-.68-1.15-1.18a3.42 3.42 0 0 1-.41-1.65c0-.82.16-1.55.49-2.19.32-.64.77-1.14 1.35-1.51.58-.37 1.25-.55 2.04-.55.72 0 1.32.15 1.82.44s.88.68 1.14 1.17c.26.49.39 1.04.39 1.65 0 .8-.16 1.53-.47 2.17-.31.64-.76 1.15-1.34 1.52s-1.26.57-2.04.57zm.03-1.22c.32 0 .62-.08.89-.23.28-.15.52-.37.73-.65.21-.28.37-.61.48-.98.11-.37.17-.77.17-1.2 0-.39-.07-.73-.2-1.03-.13-.3-.33-.54-.61-.72-.28-.18-.62-.27-1.04-.27-.32 0-.62.08-.9.23-.28.15-.52.37-.73.65-.2.28-.36.6-.48.97s-.17.78-.17 1.21c0 .37.07.71.2 1.02.14.31.34.55.62.73.28.18.63.27 1.04.27zM104.08 226.53l1.68-7.25h1.36l-.3 1.83-.15-.1c.2-.62.56-1.09 1.07-1.4.51-.31 1.08-.47 1.7-.47.54 0 1 .12 1.38.36.38.24.64.58.8 1.02.15.44.16.97.01 1.6l-1.03 4.42h-1.55l1.02-4.35c.13-.55.07-.98-.16-1.3-.23-.31-.6-.47-1.1-.47-.39 0-.73.09-1.04.26-.3.17-.56.43-.76.76-.2.33-.37.75-.49 1.25l-.89 3.84h-1.55zM118.69 226.53l-.67-7.25h1.51l.39 5.63 2.9-5.63h1.54l.61 5.7 2.9-5.7h1.65l-3.93 7.25h-1.7l-.65-5.37-2.83 5.37h-1.72zM132.6 219.28l-1.68 7.25h-1.55l1.68-7.25h1.55zm-.36-1.22c-.29 0-.52-.08-.7-.23-.17-.15-.25-.37-.23-.64.01-.34.12-.6.32-.78s.46-.28.77-.28c.3 0 .53.07.7.22.17.15.25.36.24.62-.02.36-.13.63-.33.81s-.46.28-.77.28zM133.83 220.5l.28-1.22h5.15l-.28 1.22h-5.15zm2.66 6.15c-.5 0-.93-.09-1.28-.28-.35-.19-.6-.47-.75-.83-.15-.37-.16-.81-.04-1.33l1.49-6.5 1.67-.46-1.64 6.98c-.1.43-.04.73.17.92.21.19.49.28.83.28a1.804 1.804 0 0 0 1.06-.32l.12 1.15c-.25.15-.51.26-.78.32-.27.04-.55.07-.85.07zM139.42 226.53l2.44-10.52h1.55l-1.1 4.77-.23.17c.13-.39.32-.72.59-.99.27-.27.59-.48.95-.62s.76-.22 1.18-.22c.52 0 .97.12 1.35.36.38.24.65.57.81 1.01.16.43.17.96.04 1.58l-1.04 4.45h-1.55l1.02-4.35c.13-.55.07-.98-.16-1.3-.23-.31-.6-.47-1.1-.47-.39 0-.73.09-1.04.26-.3.17-.56.43-.76.76-.2.33-.37.75-.49 1.25l-.89 3.84h-1.57zM157.88 226.68c-.76 0-1.46-.16-2.09-.47-.63-.31-1.13-.78-1.49-1.39-.37-.61-.55-1.37-.55-2.26 0-.74.11-1.46.32-2.14.21-.68.53-1.29.96-1.83.43-.54.95-.97 1.57-1.29.62-.32 1.34-.48 2.15-.48.64 0 1.21.1 1.7.31s.92.52 1.25.94c.34.42.58.94.74 1.57l-1.58.45c-.13-.68-.37-1.17-.74-1.46-.37-.3-.86-.45-1.48-.45-.54 0-1.02.13-1.43.38-.41.26-.75.59-1.03 1-.28.41-.48.87-.62 1.38s-.21 1.02-.21 1.53c0 .6.11 1.11.34 1.54.23.42.54.75.94.99.4.23.85.35 1.35.35.59 0 1.06-.13 1.4-.39.34-.26.63-.61.86-1.06l1.45.64c-.4.66-.9 1.18-1.51 1.57-.6.37-1.37.57-2.3.57zM166.57 226.66c-.72 0-1.32-.15-1.82-.44s-.88-.68-1.15-1.18a3.42 3.42 0 0 1-.41-1.65c0-.82.16-1.55.49-2.19.32-.64.77-1.14 1.35-1.51.58-.37 1.25-.55 2.04-.55.72 0 1.32.15 1.82.44s.88.68 1.14 1.17c.26.49.39 1.04.39 1.65 0 .8-.16 1.53-.47 2.17-.31.64-.76 1.15-1.34 1.52s-1.27.57-2.04.57zm.03-1.22c.32 0 .62-.08.89-.23.28-.15.52-.37.73-.65.21-.28.37-.61.48-.98.11-.37.17-.77.17-1.2 0-.39-.07-.73-.2-1.03-.13-.3-.33-.54-.61-.72-.28-.18-.62-.27-1.04-.27-.32 0-.62.08-.9.23-.28.15-.52.37-.73.65-.2.28-.36.6-.48.97s-.17.78-.17 1.21c0 .37.07.71.2 1.02.14.31.34.55.62.73.28.18.62.27 1.04.27zM175.29 226.66c-.72 0-1.32-.15-1.82-.44s-.88-.68-1.15-1.18a3.42 3.42 0 0 1-.41-1.65c0-.82.16-1.55.49-2.19.32-.64.77-1.14 1.35-1.51.58-.37 1.25-.55 2.04-.55.72 0 1.32.15 1.82.44s.88.68 1.14 1.17c.26.49.39 1.04.39 1.65 0 .8-.16 1.53-.47 2.17-.31.64-.76 1.15-1.34 1.52s-1.27.57-2.04.57zm.03-1.22c.32 0 .62-.08.89-.23.28-.15.52-.37.73-.65.21-.28.37-.61.48-.98.11-.37.17-.77.17-1.2 0-.39-.07-.73-.2-1.03-.13-.3-.33-.54-.61-.72-.28-.18-.62-.27-1.04-.27-.32 0-.62.08-.9.23-.28.15-.52.37-.73.65-.2.28-.36.6-.48.97s-.17.78-.17 1.21c0 .37.07.71.2 1.02.14.31.34.55.62.73.28.18.62.27 1.04.27zM182.41 226.65c-.73 0-1.23-.21-1.52-.64-.29-.42-.35-.99-.19-1.68l1.93-8.31h1.55l-1.93 8.33c-.1.38-.07.65.07.82.15.17.4.25.75.25.14 0 .25 0 .36-.01.1-.01.19-.02.27-.04l-.33 1.13c-.15.06-.3.1-.44.12-.14.02-.32.03-.52.03zM189.36 226.66c-.7 0-1.34-.1-1.92-.31-.59-.21-1.09-.51-1.52-.91-.43-.4-.76-.89-1.02-1.48l1.26-.84c.18.52.44.95.77 1.27.33.32.71.56 1.14.71s.88.22 1.36.22c.43 0 .78-.07 1.06-.21.28-.14.49-.32.63-.54s.21-.46.21-.71c0-.32-.1-.57-.31-.75s-.51-.33-.91-.44l-1.51-.44c-.48-.14-.9-.34-1.24-.57-.34-.24-.61-.52-.8-.84-.19-.32-.28-.69-.28-1.1 0-.56.15-1.06.45-1.51.3-.45.72-.79 1.25-1.04.54-.25 1.17-.38 1.89-.38.96 0 1.76.19 2.4.57.64.38 1.13.94 1.46 1.7l-1.28.81c-.15-.46-.36-.82-.63-1.07-.28-.25-.59-.42-.93-.51s-.7-.15-1.08-.15c-.43 0-.78.06-1.07.18s-.5.29-.64.5c-.14.21-.21.45-.21.7 0 .29.12.55.35.78.23.23.55.41.94.52l1.62.49c.72.21 1.25.51 1.6.89.35.38.53.86.53 1.43 0 .62-.16 1.15-.49 1.6-.32.45-.76.8-1.3 1.04-.51.27-1.11.39-1.78.39zM197.9 226.66c-.7 0-1.29-.15-1.79-.44s-.88-.68-1.15-1.18c-.27-.5-.4-1.05-.4-1.66 0-.82.16-1.55.49-2.18.32-.63.78-1.13 1.36-1.5.58-.37 1.27-.55 2.07-.55.58 0 1.09.1 1.53.3.44.2.79.48 1.06.83.27.36.43.76.49 1.22l-1.55.32c-.02-.41-.16-.75-.41-1.03s-.65-.42-1.17-.42c-.34 0-.65.08-.93.24-.28.16-.52.38-.73.65-.21.28-.37.6-.48.97-.11.37-.17.77-.17 1.2 0 .39.07.73.22 1.04s.36.54.63.72c.28.17.62.26 1.02.26.34 0 .66-.09.96-.28s.51-.46.64-.82l1.45.51c-.26.58-.67 1.03-1.22 1.34s-1.19.46-1.92.46zM204.88 226.65c-.52 0-.98-.12-1.37-.35a1.97 1.97 0 0 1-.84-1c-.17-.43-.18-.96-.04-1.58l1.03-4.44h1.55l-1 4.31c-.14.58-.08 1.02.17 1.33s.62.46 1.11.46c.39 0 .73-.08 1.02-.25.29-.17.54-.42.75-.75.2-.33.36-.75.46-1.24l.9-3.84h1.55l-1.68 7.25h-1.38l.3-1.83.15.12c-.19.61-.53 1.07-1.02 1.37s-1.04.44-1.66.44zM213.06 226.65c-.73 0-1.23-.21-1.52-.64-.29-.42-.35-.99-.19-1.68l1.93-8.31h1.55l-1.93 8.33c-.1.38-.07.65.07.82.15.17.4.25.75.25.14 0 .25 0 .36-.01.1-.01.19-.02.27-.04l-.33 1.13c-.15.06-.3.1-.44.12-.14.02-.31.03-.52.03zM214.77 229.58l2.38-10.3h1.38l-.36 1.99-.17.1c.12-.46.31-.86.57-1.19s.59-.58.99-.75c.39-.17.81-.26 1.25-.26.49 0 .94.12 1.33.36.39.24.7.59.93 1.05.23.46.34 1.01.34 1.66 0 .61-.09 1.18-.28 1.72-.18.54-.44 1.01-.77 1.42s-.71.72-1.15.96-.92.35-1.44.35c-.45 0-.86-.09-1.23-.26s-.65-.43-.86-.78c-.21-.34-.33-.75-.36-1.23l.25-.23-1.23 5.4h-1.57zm4.79-4.15c.32 0 .62-.08.9-.24.28-.16.53-.38.74-.67.21-.29.38-.62.49-.99.12-.37.17-.77.17-1.2 0-.42-.07-.77-.21-1.05-.14-.29-.34-.5-.59-.65s-.55-.22-.89-.22c-.35 0-.66.08-.94.25-.28.17-.52.39-.73.67-.21.29-.37.62-.48 1.01-.11.39-.17.8-.17 1.23 0 .56.15 1.01.44 1.36.28.33.71.5 1.27.5zM224.77 220.5l.28-1.22h5.15l-.28 1.22h-5.15zm2.65 6.15c-.5 0-.93-.09-1.28-.28-.35-.19-.6-.47-.75-.83-.15-.37-.16-.81-.04-1.33l1.49-6.5 1.67-.46-1.64 6.98c-.1.43-.04.73.17.92.21.19.49.28.83.28a1.804 1.804 0 0 0 1.06-.32l.12 1.15c-.25.15-.51.26-.78.32-.26.04-.55.07-.85.07zM233.53 219.28l-1.68 7.25h-1.55l1.68-7.25h1.55zm-.36-1.22c-.29 0-.52-.08-.7-.23-.17-.15-.25-.37-.23-.64.01-.34.12-.6.32-.78s.46-.28.77-.28c.3 0 .53.07.7.22.17.15.25.36.24.62-.02.36-.13.63-.33.81s-.46.28-.77.28zM234.24 226.53l1.68-7.25h1.36l-.3 1.83-.15-.1c.2-.62.56-1.09 1.07-1.4.51-.31 1.08-.47 1.7-.47.54 0 1 .12 1.38.36.38.24.64.58.8 1.02.15.44.16.97.01 1.6l-1.03 4.42h-1.55l1.02-4.35c.13-.55.07-.98-.16-1.3-.23-.31-.6-.47-1.1-.47-.39 0-.73.09-1.04.26-.3.17-.56.43-.76.76-.2.33-.37.75-.49 1.25l-.89 3.84h-1.55zM245.82 229.65c-.42 0-.81-.06-1.19-.17-.38-.11-.71-.27-.99-.48-.29-.21-.52-.46-.7-.76-.18-.3-.29-.64-.34-1.02l1.55-.38c.08.5.25.9.51 1.18s.7.43 1.3.43c.33 0 .64-.06.93-.19.29-.13.55-.34.77-.63s.39-.71.51-1.25l.41-1.84.17-.12c-.15.59-.44 1.06-.9 1.41-.45.35-.99.52-1.61.52-.54 0-1.03-.13-1.45-.39a2.73 2.73 0 0 1-1.01-1.09c-.25-.46-.37-.99-.37-1.57 0-.6.09-1.15.27-1.65.18-.5.43-.95.75-1.33.32-.38.71-.68 1.15-.88s.93-.31 1.46-.31c.45 0 .86.09 1.22.27.36.18.65.44.86.78.22.34.33.76.34 1.25l-.23.19.54-2.35h1.55l-1.67 7.14c-.17.78-.44 1.41-.81 1.88-.36.47-.8.81-1.31 1.03-.5.22-1.07.33-1.71.33zm.95-4.53c.42 0 .79-.13 1.11-.38.32-.26.58-.6.78-1.04.19-.43.29-.92.29-1.45 0-.39-.07-.72-.2-.99-.14-.28-.33-.49-.59-.65-.26-.15-.55-.23-.89-.23-.46 0-.87.12-1.21.37-.34.25-.61.58-.8 1.01-.19.43-.29.91-.29 1.45 0 .56.16 1.02.47 1.38.31.36.75.53 1.33.53zM259 229.29c-.53-.74-.94-1.59-1.23-2.54-.29-.95-.43-1.91-.43-2.89 0-.83.11-1.65.33-2.44.22-.8.53-1.55.94-2.26.41-.71.91-1.36 1.5-1.94s1.27-1.09 2.02-1.52l.59.86c-.86.56-1.58 1.24-2.17 2.02-.58.79-1.02 1.65-1.32 2.58-.3.93-.44 1.9-.44 2.91 0 .83.1 1.64.3 2.44s.48 1.5.84 2.12l-.93.66zM261.6 226.53l1.68-7.25h1.36l-.3 1.83-.15-.1c.2-.62.56-1.09 1.07-1.4.51-.31 1.08-.47 1.7-.47.54 0 1 .12 1.38.36.38.24.64.58.8 1.02.15.44.16.97.01 1.6l-1.03 4.42h-1.55l1.02-4.35c.13-.55.07-.98-.16-1.3-.23-.31-.6-.47-1.1-.47-.39 0-.73.09-1.04.26-.3.17-.56.43-.76.76-.2.33-.37.75-.49 1.25l-.89 3.84h-1.55zM277.93 222.92l-.29 1.28h-6.9l.29-1.28h6.9zm.68-2.97l-.29 1.28h-6.91l.29-1.28h6.91zM280.81 226.53l1.47-6.35c.08-.3.15-.57.22-.81.07-.24.14-.48.22-.72-.19.18-.45.36-.76.53-.31.17-.64.32-.99.44-.34.13-.67.22-.98.28l.1-1.42c.34-.08.71-.2 1.12-.37s.8-.36 1.18-.57c.37-.21.66-.4.88-.59h1.31l-2.22 9.57h-1.55zM289.07 226.66c-.7 0-1.29-.16-1.79-.46-.5-.31-.88-.74-1.14-1.29-.26-.55-.39-1.2-.39-1.94 0-.33.02-.66.06-.99s.09-.65.16-.97c.14-.58.32-1.12.56-1.63.24-.51.53-.95.88-1.34.35-.39.77-.69 1.24-.9.47-.21 1.01-.32 1.6-.32.67 0 1.24.15 1.71.46.47.3.84.73 1.1 1.28.26.55.38 1.19.38 1.93 0 .33-.02.66-.06.98-.04.32-.09.65-.16.96-.14.58-.32 1.13-.56 1.64-.24.51-.53.96-.87 1.35s-.74.69-1.19.91-.96.33-1.53.33zm.09-1.32c.44 0 .82-.14 1.15-.41.33-.27.61-.64.83-1.12.23-.47.4-1 .53-1.57.09-.32.15-.63.18-.94.03-.3.05-.6.05-.88 0-.81-.16-1.4-.47-1.77-.31-.37-.74-.55-1.28-.55-.45 0-.86.14-1.2.41s-.64.65-.88 1.12c-.24.47-.43 1-.57 1.59-.07.31-.12.62-.16.92-.04.3-.06.6-.06.88 0 .55.08 1 .25 1.34.16.34.39.59.68.74.28.17.6.24.95.24zM298.52 226.68c-.76 0-1.4-.16-1.92-.46a2.87 2.87 0 0 1-1.17-1.31c-.26-.56-.39-1.22-.39-1.97 0-.77.09-1.52.28-2.25.18-.73.46-1.38.84-1.97.38-.58.86-1.05 1.44-1.39.58-.34 1.26-.51 2.05-.51.74 0 1.39.18 1.94.54.55.36.9.92 1.06 1.68l-1.45.51c-.06-.43-.24-.77-.56-1.02a1.76 1.76 0 0 0-1.11-.36c-.46 0-.87.12-1.23.35-.35.23-.65.54-.89.91-.24.38-.43.8-.57 1.25-.14.46-.24.93-.3 1.4.17-.49.5-.87.99-1.13.48-.26 1.01-.39 1.57-.39.85 0 1.53.24 2.02.73.5.48.75 1.13.75 1.93 0 .66-.14 1.25-.41 1.78s-.66.94-1.16 1.24-1.1.44-1.78.44zm.01-1.31c.4 0 .73-.09.99-.27.27-.18.47-.42.6-.72.14-.3.2-.63.2-.99 0-.46-.15-.85-.46-1.15s-.75-.46-1.33-.46c-.4 0-.73.09-1.02.27-.28.18-.49.41-.63.7s-.21.59-.21.92c0 .27.05.51.14.72s.22.39.39.54c.17.15.36.26.59.33.24.08.48.11.74.11zM305.19 215.7c.53.75.94 1.59 1.23 2.54.29.95.43 1.91.43 2.89 0 .83-.11 1.65-.33 2.44-.22.8-.53 1.55-.94 2.26-.41.71-.91 1.36-1.5 1.94s-1.27 1.09-2.02 1.52l-.59-.86c.86-.56 1.58-1.24 2.17-2.02.58-.79 1.02-1.65 1.32-2.58.29-.93.44-1.9.44-2.91 0-.83-.1-1.64-.3-2.44-.2-.79-.48-1.5-.84-2.12l.93-.66zM308.88 226.66c-.29 0-.53-.08-.71-.24a.845.845 0 0 1-.28-.66c0-.37.11-.66.33-.87.22-.21.49-.32.82-.32.29 0 .53.08.71.24.18.16.28.38.28.66 0 .37-.11.66-.32.87s-.5.32-.83.32z"/></svg>