<svg id="Layer_1" xmlns="http://www.w3.org/2000/svg" viewBox="0 0 970 250"><style>.st0{fill:#fff}</style><path class="st0" d="M54.47 47.83c0 .52-.42.93-.94.93-.53 0-.95-.41-.95-.93s.42-.92.96-.92c.51 0 .93.4.93.92zm-1.66 0c0 .41.31.74.72.74.4.01.7-.33.7-.73 0-.41-.3-.74-.71-.74-.4-.01-.71.32-.71.73zm.56.48h-.21v-.92c.08-.01.2-.03.35-.03.17 0 .25.03.32.07.06.04.1.11.1.2 0 .11-.08.19-.19.22v.01c.09.03.13.1.16.22.03.14.05.19.07.22h-.22c-.03-.03-.05-.11-.07-.22-.02-.1-.07-.14-.19-.14h-.1v.37zm.01-.52h.1c.12 0 .21-.04.21-.13 0-.08-.06-.14-.2-.14-.06 0-.1.01-.12.01v.26zM68.27 44.62c-4.59 0-6.8-3.35-6.8-6.56 0-3.71 2.67-6.69 6.88-6.69 1.43 0 2.91.44 4.08 1.43l-1.3 1.81c-.8-.62-1.66-.85-2.7-.85-2.23 0-3.89 1.56-3.89 4.23 0 2.44 1.53 4.38 3.97 4.38 1.04 0 1.95-.31 2.75-1.01l1.19 1.82c-1.14.97-2.7 1.44-4.18 1.44M79.51 44.62c-3.84 0-6.67-2.9-6.67-6.69 0-3.89 3.09-6.56 6.67-6.56s6.7 2.65 6.7 6.54c-.01 3.81-2.84 6.71-6.7 6.71m3.6-6.69c0-2.33-1.14-4.36-3.61-4.36-2.41 0-3.61 2.02-3.61 4.33 0 2.39 1.12 4.52 3.61 4.52 2.49 0 3.61-2.11 3.61-4.52v.03zM93.99 44.62c-3.84 0-6.67-2.9-6.67-6.69 0-3.89 3.09-6.56 6.67-6.56s6.69 2.65 6.69 6.54c0 3.81-2.83 6.71-6.69 6.71m3.6-6.69c0-2.33-1.14-4.36-3.61-4.36-2.41 0-3.61 2.02-3.61 4.33 0 2.39 1.12 4.52 3.61 4.52 2.49 0 3.61-2.11 3.61-4.52v.03zM102.19 44.31V25.73l2.88 1.58v17zM111.71 44.7c-3.24 0-4.8-1.56-4.8-1.56l1.3-1.69s1.48.99 3.42.99c.93 0 1.71-.65 1.71-1.3s-.29-1.2-1.14-1.63c-.86-.44-1.82-.91-2.57-1.27-.75-.37-2.41-1.48-2.41-3.66 0-2.2 2.23-3.42 4.51-3.42 2.18 0 3.84 1.43 3.84 1.43l-1.12 1.71s-1.25-.88-2.62-.88c-1.38 0-1.66.88-1.66 1.24s.13.93 1.01 1.4c.88.47 1.79.96 3.09 1.69 1.3.73 2.02 1.97 2.02 3.37.01 1.4-1.34 3.58-4.58 3.58M124.09 44.62c-4.59 0-6.8-3.35-6.8-6.56 0-3.71 2.67-6.69 6.88-6.69 1.43 0 2.91.44 4.07 1.43l-1.3 1.81c-.8-.62-1.66-.85-2.7-.85-2.23 0-3.89 1.56-3.89 4.23 0 2.44 1.53 4.38 3.97 4.38 1.04 0 1.95-.31 2.75-1.01l1.19 1.82c-1.14.97-2.69 1.44-4.17 1.44M138.28 42.83s-1.45 1.79-4.2 1.79c-3.24 0-4.83-2.36-4.83-4.75v-8.22h2.88v8.1c0 1.4 1.09 2.57 2.78 2.57 1.48 0 2.93-1.76 2.93-1.76v-8.9h2.88V44.3l-2.44-1.47zM143.29 44.31V25.73l2.88 1.58v17zM155.7 44.62c-2.54 0-4-1.42-4-1.42v6.31h-2.91V31.39l2.91 1.53s1.56-1.58 4.15-1.58c2.73 0 6.12 2.1 6.12 6.8.01 4.69-3.34 6.48-6.27 6.48m-.19-11.05c-2.47 0-3.89 2.31-3.89 2.31v4.77s1.64 1.84 4 1.84c2.75 0 3.35-3.3 3.35-4.44-.01-1.13-.27-4.48-3.46-4.48M169.55 44.65h-1.82c-2.29 0-3.06-2.21-3.06-3.66v-7.45h-2.28v-1.89h2.28v-5.58h2.85v5.58h2.93v1.89h-2.91v6.75c0 .75-.13 1.95 1.14 1.95h2.08l-1.21 2.41zM174.17 29.47c-1.04 0-1.89-.85-1.89-1.89s.86-1.89 1.89-1.89c1.04 0 1.9.85 1.9 1.89 0 1.03-.86 1.89-1.9 1.89m-1.43 2.18h2.83v12.66h-2.83V31.65zM186.99 44.31v-8.1c0-1.4-1.09-2.57-2.78-2.57-1.48 0-3.14 1.76-3.14 1.76v8.9h-2.88V31.68l2.44 1.45s1.66-1.79 4.41-1.79c3.24 0 4.83 2.36 4.83 4.75v8.23h-2.88zM198.67 50.2c-.44 0-3.82-.05-3.82-.05l.05-2.31h2.84c2.75 0 4.31-1.48 4.31-3.5V43.2s-1.5 1.43-4.05 1.43c-2.93 0-6.28-1.79-6.28-6.49s3.4-6.8 6.13-6.8c2.59 0 4.15 1.58 4.15 1.58l2.91-1.45v12.59c-.01 3.39-2.27 6.14-6.24 6.14m3.4-14.32s-1.43-2.31-3.89-2.31c-3.19 0-3.45 3.34-3.45 4.49 0 1.14.6 4.44 3.35 4.44 2.36 0 4-1.84 4-1.84v-4.78zM35.68 53.92v-8.28l1.62-1.63 4.69 4.69v1.58zM32.31 38.55L27 43.86l6.49 2.44 7.75-7.75zM34.92 31.15h-6.83l2.19 6.32h10.96zM42 27.77l-5.27-5.27-2.47 6.46L42 36.71zM57.97 44.86h-7.81l-6.31-6.31H54.8zM51.59 29.73l7.09 1.84-5.9 5.9h-8.93zM43.08 25.75L49.4 22v8.39l-6.32 6.32zM51.12 47.37l-2.02 6.9-11.03-11.03 4.47-4.46zM209.2 32.51c0 .75-.6 1.34-1.37 1.34-.77 0-1.38-.59-1.38-1.34 0-.75.61-1.34 1.39-1.34.76 0 1.36.59 1.36 1.34zm-2.4 0c0 .59.45 1.07 1.05 1.07.58.01 1.02-.48 1.02-1.06 0-.59-.44-1.07-1.04-1.07-.58-.01-1.03.47-1.03 1.06zm.82.69h-.31v-1.34c.12-.02.29-.04.51-.04.25 0 .37.04.46.11.08.06.14.16.14.28 0 .16-.12.27-.28.32v.02c.13.04.19.15.24.32.04.2.07.28.1.33h-.33c-.04-.05-.06-.16-.11-.33-.02-.14-.11-.2-.28-.2h-.15v.53zm.01-.75h.15c.17 0 .31-.06.31-.19 0-.12-.09-.2-.28-.2-.08 0-.14.01-.17.02v.37z"/></svg>