<svg id="Layer_1" xmlns="http://www.w3.org/2000/svg" viewBox="0 0 728 90"><style>.st0{fill:#fff}</style><path class="st0" d="M417.21 49.68h-.79v-5.66h1.82c.27 0 .53.03.78.08.25.06.46.15.64.27.18.12.33.28.44.48.11.2.16.44.16.73 0 .42-.13.75-.38 1.01-.26.26-.59.42-.99.49l1.58 2.6h-.96l-1.44-2.52h-.85v2.52zm0-3.18h.91c.19 0 .36-.02.52-.05.16-.03.3-.08.42-.16s.21-.17.28-.28c.07-.11.1-.26.1-.43 0-.17-.03-.31-.1-.43s-.16-.21-.28-.28c-.11-.07-.25-.12-.4-.15a2.56 2.56 0 0 0-.49-.04h-.97v1.82zM422.17 44.52c0 .14-.05.25-.15.34s-.21.14-.35.14a.476.476 0 0 1-.49-.48.5.5 0 0 1 .14-.35.5.5 0 0 1 .35-.14c.14 0 .25.05.35.14s.15.21.15.35zm-.12 5.16h-.75v-3.79h.75v3.79zM425.73 47.22c0-.28-.08-.49-.26-.63s-.4-.2-.68-.2c-.21 0-.42.04-.6.12s-.35.19-.48.32l-.4-.48c.19-.18.42-.31.68-.42.27-.1.56-.15.87-.15.27 0 .51.04.71.12.2.08.36.18.49.32s.22.29.29.47c.06.18.1.38.1.58v1.66c0 .13 0 .26.01.4s.02.26.04.35h-.68c-.04-.18-.06-.36-.06-.54h-.02c-.14.2-.31.36-.52.47-.21.11-.46.17-.75.17-.15 0-.31-.02-.47-.06-.16-.04-.31-.11-.44-.2-.13-.09-.24-.21-.33-.36-.09-.15-.13-.33-.13-.55 0-.29.08-.52.23-.68.16-.17.36-.3.61-.38s.53-.15.85-.17c.32-.03.63-.04.95-.04v-.12zm-.19.65c-.19 0-.38.01-.58.02-.2.02-.38.05-.54.1-.16.05-.3.12-.4.22-.11.1-.16.22-.16.38 0 .11.02.21.07.28.04.07.11.14.18.18.08.05.16.08.25.1.09.02.18.03.28.03.35 0 .62-.11.81-.32.19-.21.28-.48.28-.8v-.2h-.19zM429.98 45.89l.86 2.9h.02l.9-2.9h.79l.92 2.9h.02l.86-2.9h.79l-1.26 3.79h-.78l-.94-2.85h-.02l-.93 2.85h-.78l-1.26-3.79h.81zM438.25 47.22c0-.28-.08-.49-.26-.63s-.4-.2-.68-.2c-.21 0-.42.04-.6.12s-.35.19-.48.32l-.4-.48c.19-.18.42-.31.68-.42.27-.1.56-.15.87-.15.27 0 .51.04.71.12.2.08.36.18.49.32s.22.29.29.47c.06.18.1.38.1.58v1.66c0 .13 0 .26.01.4s.02.26.04.35h-.68c-.04-.18-.06-.36-.06-.54h-.02c-.14.2-.31.36-.52.47-.21.11-.46.17-.75.17-.15 0-.31-.02-.47-.06-.16-.04-.31-.11-.44-.2-.13-.09-.24-.21-.33-.36-.09-.15-.13-.33-.13-.55 0-.29.08-.52.23-.68.16-.17.36-.3.61-.38s.53-.15.85-.17c.32-.03.63-.04.95-.04v-.12zm-.19.65c-.19 0-.38.01-.58.02-.2.02-.38.05-.54.1-.16.05-.3.12-.4.22-.11.1-.16.22-.16.38 0 .11.02.21.07.28.04.07.11.14.18.18.08.05.16.08.25.1.09.02.18.03.28.03.35 0 .62-.11.81-.32.19-.21.28-.48.28-.8v-.2h-.19zM442.27 46.85c-.09-.14-.21-.25-.36-.34s-.33-.13-.52-.13c-.09 0-.17.01-.26.03-.08.02-.16.05-.23.09a.414.414 0 0 0-.22.38c0 .16.07.28.22.36.14.08.36.15.65.21.18.04.35.09.5.15.15.06.29.13.4.22a.925.925 0 0 1 .37.75c0 .22-.04.41-.13.57-.09.15-.2.28-.34.38-.14.1-.3.17-.48.21s-.37.06-.56.06c-.29 0-.57-.06-.84-.17-.27-.11-.5-.28-.68-.51l.54-.46c.1.15.24.28.42.38a1.265 1.265 0 0 0 .87.12c.09-.02.17-.05.24-.09.07-.04.13-.1.17-.17.04-.07.06-.16.06-.26a.4.4 0 0 0-.25-.39c-.17-.08-.42-.17-.74-.24-.13-.03-.26-.07-.39-.12-.13-.05-.25-.11-.36-.19a.868.868 0 0 1-.36-.74c0-.2.04-.38.12-.52.08-.15.19-.27.32-.36.13-.09.29-.16.46-.21.17-.04.35-.07.53-.07.27 0 .54.05.79.16s.45.26.59.46l-.53.44zM447.63 46.5h-1.01v1.97c0 .23.04.39.13.49.08.1.22.15.41.15.07 0 .14-.01.22-.02s.15-.04.22-.07l.02.62a1.87 1.87 0 0 1-.64.11c-.36 0-.63-.1-.82-.3-.19-.2-.28-.49-.28-.89V46.5h-.73v-.62h.73V44.8h.74v1.09h1.01v.61zM448.4 46.31c0-.16-.01-.3-.02-.42h.71c.01.1.02.21.02.33.01.12.01.23.01.31h.02c.11-.22.26-.4.47-.54.21-.14.44-.2.69-.2.12 0 .22.01.3.03l-.03.7c-.11-.03-.22-.04-.34-.04-.18 0-.34.03-.47.1-.13.07-.24.16-.33.27s-.15.24-.2.39-.06.3-.06.46v1.99h-.75v-2.98c-.01-.11-.02-.24-.02-.4zM454.7 47.75v.13c0 .05 0 .08-.01.13h-3.02c0 .16.04.31.11.45s.16.26.27.37.24.18.39.24c.15.06.3.09.47.09.26 0 .48-.06.66-.17.19-.11.33-.25.44-.41l.53.42c-.2.27-.44.47-.72.59-.28.13-.58.19-.92.19-.29 0-.55-.05-.8-.14-.25-.1-.46-.23-.63-.4a1.88 1.88 0 0 1-.42-.63c-.1-.25-.15-.52-.15-.82 0-.29.05-.56.15-.81.1-.25.24-.46.41-.64.18-.18.38-.31.63-.41.24-.1.5-.15.78-.15s.53.05.76.14c.23.09.42.22.58.39.16.17.28.38.36.62.09.25.13.52.13.82zm-.77-.3c0-.15-.03-.29-.08-.42a.9.9 0 0 0-.2-.34c-.09-.1-.2-.17-.33-.23s-.28-.08-.46-.08c-.16 0-.31.03-.45.08-.14.06-.26.13-.37.23-.1.1-.19.21-.26.34-.07.13-.11.27-.12.42h2.27zM458.05 47.22c0-.28-.08-.49-.26-.63s-.4-.2-.68-.2c-.21 0-.42.04-.6.12s-.35.19-.48.32l-.4-.48c.19-.18.42-.31.68-.42.27-.1.56-.15.87-.15.27 0 .51.04.71.12.2.08.36.18.49.32s.22.29.29.47c.06.18.1.38.1.58v1.66c0 .13 0 .26.01.4s.02.26.04.35h-.68c-.04-.18-.06-.36-.06-.54h-.02c-.14.2-.31.36-.52.47-.21.11-.46.17-.75.17-.15 0-.31-.02-.47-.06-.16-.04-.31-.11-.44-.2-.13-.09-.24-.21-.33-.36-.09-.15-.13-.33-.13-.55 0-.29.08-.52.23-.68.16-.17.36-.3.61-.38s.53-.15.85-.17c.32-.03.63-.04.95-.04v-.12zm-.18.65c-.19 0-.38.01-.58.02-.2.02-.38.05-.54.1-.16.05-.3.12-.4.22-.11.1-.16.22-.16.38 0 .11.02.21.07.28.04.07.11.14.18.18.08.05.16.08.25.1.09.02.18.03.28.03.35 0 .62-.11.81-.32.19-.21.28-.48.28-.8v-.2h-.19zM461.81 46.5h-1.01v1.97c0 .23.04.39.13.49.08.1.22.15.41.15.07 0 .14-.01.22-.02s.15-.04.22-.07l.02.62a1.87 1.87 0 0 1-.64.11c-.36 0-.63-.1-.82-.3-.19-.2-.28-.49-.28-.89V46.5h-.73v-.62h.73V44.8h.74v1.09h1.01v.61zM466.13 47.75v.13c0 .05 0 .08-.01.13h-3.02c0 .16.04.31.11.45s.16.26.27.37.24.18.39.24c.15.06.3.09.47.09.26 0 .48-.06.66-.17.19-.11.33-.25.44-.41l.53.42c-.2.27-.44.47-.72.59-.28.13-.58.19-.92.19-.29 0-.55-.05-.8-.14-.25-.1-.46-.23-.63-.4a1.88 1.88 0 0 1-.42-.63c-.1-.25-.15-.52-.15-.82 0-.29.05-.56.15-.81.1-.25.24-.46.41-.64.18-.18.38-.31.63-.41.24-.1.5-.15.78-.15s.53.05.76.14c.23.09.42.22.58.39.16.17.28.38.36.62.08.25.13.52.13.82zm-.77-.3c0-.15-.03-.29-.08-.42a.9.9 0 0 0-.2-.34c-.09-.1-.2-.17-.33-.23s-.28-.08-.46-.08c-.16 0-.31.03-.45.08-.14.06-.26.13-.37.23-.1.1-.19.21-.26.34-.07.13-.11.27-.12.42h2.27zM470.19 49.08c-.14.23-.34.4-.59.52s-.51.18-.78.18a1.83 1.83 0 0 1-1.39-.59c-.17-.18-.29-.39-.38-.64a2.247 2.247 0 0 1 0-1.56 1.808 1.808 0 0 1 .99-1.06c.24-.1.49-.15.78-.15a1.62 1.62 0 0 1 1.35.68h.02v-2.82h.75v6.05h-.73v-.6h-.02zm-2.5-1.3c0 .18.03.35.08.51a1.262 1.262 0 0 0 .63.75c.16.08.34.12.54.12.19 0 .37-.04.52-.11s.29-.17.4-.3c.11-.12.2-.27.26-.43a1.538 1.538 0 0 0 0-1.04c-.06-.17-.15-.31-.26-.44a1.17 1.17 0 0 0-.4-.3c-.16-.07-.33-.11-.52-.11-.21 0-.39.04-.54.11-.15.08-.29.18-.39.3-.11.13-.19.27-.24.44-.05.15-.08.33-.08.5zM474.53 45.89l.86 2.9h.02l.9-2.9h.79l.92 2.9h.02l.86-2.9h.79l-1.26 3.79h-.78l-.94-2.85h-.02l-.93 2.85h-.78l-1.26-3.79h.81zM481.31 44.52c0 .14-.05.25-.15.34s-.21.14-.35.14a.476.476 0 0 1-.49-.48.5.5 0 0 1 .14-.35.5.5 0 0 1 .35-.14c.14 0 .25.05.35.14s.15.21.15.35zm-.12 5.16h-.75v-3.79h.75v3.79zM484.36 46.5h-1.01v1.97c0 .23.04.39.13.49.08.1.22.15.41.15.07 0 .14-.01.22-.02s.15-.04.22-.07l.02.62a1.87 1.87 0 0 1-.64.11c-.36 0-.63-.1-.82-.3-.19-.2-.28-.49-.28-.89V46.5h-.73v-.62h.73V44.8h.74v1.09h1.01v.61zM485.92 46.46c.09-.19.25-.35.46-.48.22-.13.46-.2.74-.2.25 0 .46.04.63.12.18.08.32.19.44.33s.2.3.26.49.08.39.08.6v2.35h-.75v-2.1c0-.15-.01-.3-.04-.44-.02-.14-.07-.26-.13-.37a.72.72 0 0 0-.26-.26.881.881 0 0 0-.43-.1c-.3 0-.54.11-.74.34-.19.23-.29.53-.29.91v2.01h-.75v-6.05h.75v2.83h.03zM393.9 58.05c-.22.3-.51.55-.87.74-.36.19-.79.28-1.29.28-.43 0-.83-.07-1.2-.22s-.68-.35-.94-.62c-.26-.26-.47-.58-.62-.94s-.22-.77-.22-1.2c0-.44.08-.85.23-1.21s.36-.68.63-.94.59-.46.96-.6c.37-.14.77-.22 1.2-.22.19 0 .39.02.58.06s.39.09.57.17c.18.08.35.17.5.28.15.11.28.24.38.38l-.62.48c-.14-.19-.33-.35-.59-.48-.25-.12-.53-.19-.82-.19-.33 0-.63.06-.89.18s-.49.28-.68.49-.33.45-.43.72-.15.57-.15.88c0 .32.05.62.15.9s.24.52.42.72.41.37.67.48c.26.12.56.18.88.18.32 0 .61-.06.87-.19s.48-.31.65-.56l.63.43zM398.42 57.03c0 .29-.05.56-.16.81a1.917 1.917 0 0 1-1.08 1.06c-.25.1-.52.15-.81.15-.29 0-.56-.05-.81-.15s-.47-.24-.65-.42c-.18-.18-.32-.39-.43-.64-.1-.25-.16-.51-.16-.81 0-.29.05-.56.16-.8a1.894 1.894 0 0 1 1.08-1.04c.25-.1.52-.15.81-.15.29 0 .56.05.81.15s.47.24.65.41c.18.18.33.39.43.63.1.24.16.5.16.8zm-.79 0c0-.18-.03-.35-.08-.52-.06-.16-.14-.31-.25-.43s-.24-.22-.4-.3c-.16-.07-.34-.11-.54-.11s-.38.04-.54.11c-.16.07-.29.17-.4.3-.11.12-.19.27-.25.43-.06.17-.08.34-.08.52s.03.35.08.52c.06.17.14.31.25.44.11.13.24.23.4.3.16.07.34.11.54.11s.38-.04.54-.11c.16-.07.29-.18.4-.3.11-.13.19-.27.25-.44.05-.17.08-.34.08-.52zM403.3 57.03c0 .29-.05.56-.16.81a1.917 1.917 0 0 1-1.08 1.06c-.25.1-.52.15-.81.15-.29 0-.56-.05-.81-.15s-.47-.24-.65-.42c-.18-.18-.32-.39-.43-.64-.1-.25-.16-.51-.16-.81 0-.29.05-.56.16-.8a1.894 1.894 0 0 1 1.08-1.04c.25-.1.52-.15.81-.15.29 0 .56.05.81.15s.47.24.65.41c.18.18.33.39.43.63.1.24.16.5.16.8zm-.79 0c0-.18-.03-.35-.08-.52-.06-.16-.14-.31-.25-.43s-.24-.22-.4-.3c-.16-.07-.34-.11-.54-.11s-.38.04-.54.11c-.16.07-.29.17-.4.3-.11.12-.19.27-.25.43-.06.17-.08.34-.08.52s.03.35.08.52c.06.17.14.31.25.44.11.13.24.23.4.3.16.07.34.11.54.11s.38-.04.54-.11c.16-.07.29-.18.4-.3.11-.13.19-.27.25-.44.05-.17.08-.34.08-.52zM405.1 58.93h-.75v-6.05h.75v6.05zM409.27 54.31c-.11-.15-.26-.28-.46-.38-.19-.1-.41-.15-.65-.15-.13 0-.26.02-.39.05a.993.993 0 0 0-.62.46c-.07.11-.1.25-.1.41 0 .15.03.28.09.39.06.1.14.19.25.26.1.07.23.13.37.18s.29.1.45.16c.19.06.39.13.58.2.2.08.38.17.54.3.16.12.29.28.39.46.1.18.15.42.15.7 0 .29-.05.55-.16.76-.11.22-.25.39-.44.54-.18.14-.39.25-.63.32s-.48.1-.73.1c-.36 0-.7-.07-1.04-.21-.33-.14-.61-.34-.83-.62l.62-.52c.13.2.31.36.54.48.22.12.47.18.73.18.13 0 .27-.02.4-.06.13-.04.25-.1.36-.18.11-.08.2-.18.27-.3s.1-.26.1-.44-.04-.31-.11-.43a.893.893 0 0 0-.29-.29c-.12-.08-.27-.15-.43-.2-.16-.06-.33-.11-.52-.17-.18-.05-.36-.12-.54-.2-.18-.08-.33-.18-.47-.3s-.25-.27-.34-.44-.13-.39-.13-.66c0-.28.06-.52.17-.73s.26-.37.45-.5c.18-.13.39-.23.62-.29.23-.06.46-.09.7-.09.33 0 .64.06.93.18s.52.27.7.47l-.53.56zM413.62 56.1a.925.925 0 0 0-.36-.31c-.16-.08-.33-.12-.51-.12-.2 0-.37.04-.52.11-.15.08-.28.17-.39.3-.11.12-.19.27-.24.44-.06.17-.08.34-.08.52s.03.36.08.52c.06.17.14.31.24.44.11.13.24.23.39.3.15.07.33.11.53.11.19 0 .37-.04.52-.11.16-.08.29-.18.39-.3l.5.46c-.16.19-.36.33-.6.44-.24.1-.51.16-.82.16-.29 0-.56-.05-.81-.14s-.46-.23-.64-.4-.32-.38-.43-.63c-.1-.25-.16-.52-.16-.82 0-.3.05-.57.15-.82s.24-.46.42-.63c.18-.18.4-.31.64-.41s.52-.14.8-.14c.27 0 .53.05.8.16.26.11.47.26.63.46l-.53.41zM417.59 58.93c-.01-.1-.02-.2-.02-.32s-.01-.22-.01-.3h-.02c-.1.2-.26.38-.48.52-.23.14-.48.21-.76.21-.25 0-.46-.04-.64-.12-.18-.08-.33-.19-.44-.33-.12-.14-.2-.31-.26-.49-.06-.19-.08-.39-.08-.6v-2.35h.75v2.1c0 .16.01.3.04.44.02.14.07.27.13.37.06.11.15.19.26.26.11.06.26.1.43.1.3 0 .55-.11.74-.34s.28-.53.28-.91v-2.02h.75v2.98c0 .1 0 .23.01.39s.01.3.02.42h-.7zM420.34 58.93h-.75v-6.05h.75v6.05zM422.41 60.85h-.75v-5.71h.74v.59h.02c.12-.2.3-.37.54-.5.24-.13.51-.2.83-.2.28 0 .54.05.77.15a1.808 1.808 0 0 1 .99 1.06c.09.24.14.5.14.78s-.04.54-.14.78-.22.46-.38.64c-.17.18-.37.32-.6.43-.23.1-.5.16-.79.16-.27 0-.53-.06-.77-.18s-.43-.28-.57-.5h-.02v2.5zm2.49-3.82c0-.18-.03-.35-.08-.51a1.18 1.18 0 0 0-.64-.74c-.16-.07-.34-.11-.55-.11-.19 0-.37.04-.52.11-.16.08-.29.18-.4.3-.11.13-.2.28-.26.44a1.538 1.538 0 0 0 0 1.04c.06.17.15.31.26.44.11.13.25.23.4.3.16.07.33.11.52.11a1.204 1.204 0 0 0 .95-.43c.11-.13.19-.27.24-.44.06-.17.08-.34.08-.51zM428.58 55.75h-1.01v1.97c0 .23.04.39.13.49.08.1.22.15.41.15.07 0 .14-.01.22-.02s.15-.04.22-.07l.02.62a1.841 1.841 0 0 1-.63.11c-.36 0-.63-.1-.82-.3-.19-.2-.28-.49-.28-.89v-2.06h-.73v-.62h.73v-1.09h.74v1.09h1.01v.62zM430.24 53.77c0 .14-.05.25-.15.34-.1.09-.22.14-.35.14a.476.476 0 0 1-.49-.48.5.5 0 0 1 .14-.35.5.5 0 0 1 .35-.14.5.5 0 0 1 .35.14c.1.1.15.21.15.35zm-.12 5.16h-.75v-3.79h.75v3.79zM432.11 55.14c.01.1.02.2.02.32.01.12.01.22.01.3h.02c.05-.1.11-.2.2-.28s.18-.17.28-.23a1.393 1.393 0 0 1 .75-.22c.25 0 .46.04.63.12.18.08.32.19.44.33s.2.3.26.49.08.39.08.6v2.35h-.75v-2.1c0-.16-.01-.3-.04-.44-.02-.14-.07-.26-.13-.37a.72.72 0 0 0-.26-.26.91.91 0 0 0-.43-.1c-.3 0-.54.11-.73.34s-.28.53-.28.91v2.02h-.75v-2.98c0-.1 0-.23-.01-.39 0-.16-.01-.3-.02-.42h.71zM436.38 59.58c.17.19.37.34.62.45.25.11.5.17.76.17.25 0 .46-.04.63-.11.17-.07.31-.17.41-.3.1-.13.18-.27.22-.44.05-.17.07-.35.07-.55v-.49h-.02c-.14.21-.33.38-.57.49-.24.11-.5.17-.77.17-.29 0-.55-.05-.79-.15s-.44-.24-.6-.42-.29-.38-.38-.62-.14-.49-.14-.76.04-.53.14-.77a2 2 0 0 1 .38-.63c.17-.18.37-.32.6-.42.24-.1.5-.16.78-.16.27 0 .53.06.78.18s.44.3.59.54h.02v-.61h.73v3.6c0 .28-.04.54-.1.8-.07.25-.19.48-.35.67-.17.19-.38.35-.65.47s-.6.18-.99.18c-.33 0-.66-.06-1-.18a2.55 2.55 0 0 1-.86-.51l.49-.6zm.23-2.58c0 .18.03.34.08.5.06.16.14.3.25.42s.24.22.4.3c.16.07.33.11.53.11.19 0 .37-.04.53-.1a1.195 1.195 0 0 0 .67-.7c.06-.16.09-.34.09-.52s-.03-.35-.09-.51-.15-.3-.26-.42a1.287 1.287 0 0 0-.94-.4c-.2 0-.37.04-.53.11s-.29.17-.4.29-.19.26-.25.42c-.05.14-.08.31-.08.5zM441.07 54.99c0-.25.05-.49.14-.71.1-.22.23-.41.39-.58.17-.16.36-.29.58-.39.22-.1.46-.14.71-.14.25 0 .49.05.71.14.22.1.41.23.58.39.17.16.3.35.39.58.1.22.14.46.14.71 0 .25-.05.49-.14.7s-.23.41-.39.57c-.17.16-.36.29-.58.38a1.872 1.872 0 0 1-1.42 0 1.77 1.77 0 0 1-.58-.38c-.17-.16-.3-.35-.39-.57-.09-.22-.14-.45-.14-.7zm.29 0c0 .21.04.41.12.59.08.19.19.35.33.49s.3.25.49.33.39.12.6.12a1.53 1.53 0 0 0 1.42-.94 1.53 1.53 0 0 0-.82-2.01 1.53 1.53 0 0 0-.6-.12 1.53 1.53 0 0 0-1.42.94c-.08.19-.12.38-.12.6zm1.98 1l-.44-.79h-.29v.79h-.49v-2.05h.88c.1 0 .19.01.28.03s.17.06.25.1c.07.05.13.11.18.2.04.08.07.19.07.31 0 .14-.04.25-.12.34s-.17.16-.29.2l.54.86h-.57zm-.36-1.15c.07 0 .14-.02.2-.07s.09-.11.09-.19c0-.09-.04-.15-.1-.18s-.13-.06-.19-.06h-.38v.5h.38zM448.78 58.23h2.96v.7h-3.75v-5.66h3.63v.7h-2.84v1.7h2.67v.68h-2.67v1.88zM453.52 58.93h-.75v-6.05h.75v6.05zM455.71 53.77c0 .14-.05.25-.15.34-.1.09-.22.14-.35.14a.476.476 0 0 1-.49-.48.5.5 0 0 1 .14-.35.5.5 0 0 1 .35-.14.5.5 0 0 1 .35.14c.1.1.15.21.15.35zm-.12 5.16h-.75v-3.79h.75v3.79zM458.76 55.75h-1.01v1.97c0 .23.04.39.13.49.08.1.22.15.41.15.07 0 .14-.01.22-.02s.15-.04.22-.07l.02.62a1.87 1.87 0 0 1-.64.11c-.36 0-.63-.1-.82-.3-.19-.2-.28-.49-.28-.89v-2.06h-.73v-.62h.73v-1.09h.74v1.09h1.01v.62zM463.08 57v.13c0 .05 0 .08-.01.13h-3.02c0 .16.04.31.11.45s.16.26.27.37.24.18.39.24c.15.06.3.09.47.09.26 0 .48-.06.66-.17.19-.11.33-.25.44-.41l.53.42c-.2.27-.44.47-.72.59-.28.13-.58.19-.92.19-.29 0-.55-.05-.8-.14-.25-.1-.46-.23-.63-.4a1.88 1.88 0 0 1-.42-.63c-.1-.25-.15-.52-.15-.82 0-.29.05-.56.15-.81.1-.25.24-.46.41-.64.18-.18.38-.31.63-.41.24-.1.5-.15.78-.15s.53.05.76.14c.23.09.42.22.58.39.16.17.28.38.36.62.09.25.13.52.13.82zm-.77-.3c0-.15-.03-.29-.08-.42a.9.9 0 0 0-.2-.34c-.09-.1-.2-.17-.33-.23s-.28-.08-.46-.08c-.16 0-.31.03-.45.08-.14.06-.26.13-.37.23-.1.1-.19.21-.26.34-.07.13-.11.27-.12.42h2.27zM469.96 57.03c0 .29-.05.56-.16.81a1.917 1.917 0 0 1-1.08 1.06c-.25.1-.52.15-.81.15-.29 0-.56-.05-.81-.15s-.47-.24-.65-.42c-.18-.18-.32-.39-.43-.64-.1-.25-.16-.51-.16-.81 0-.29.05-.56.16-.8a1.894 1.894 0 0 1 1.08-1.04c.25-.1.52-.15.81-.15.29 0 .56.05.81.15s.47.24.65.41c.18.18.33.39.43.63.11.24.16.5.16.8zm-.78 0c0-.18-.03-.35-.08-.52-.06-.16-.14-.31-.25-.43s-.24-.22-.4-.3c-.16-.07-.34-.11-.54-.11s-.38.04-.54.11c-.16.07-.29.17-.4.3-.11.12-.19.27-.25.43-.06.17-.08.34-.08.52s.03.35.08.52c.06.17.14.31.25.44.11.13.24.23.4.3.16.07.34.11.54.11s.38-.04.54-.11c.16-.07.29-.18.4-.3.11-.13.19-.27.25-.44.05-.17.08-.34.08-.52zM471.68 55.14c.01.1.02.2.02.32.01.12.01.22.01.3h.02c.05-.1.11-.2.2-.28s.18-.17.28-.23a1.393 1.393 0 0 1 .75-.22c.25 0 .46.04.63.12.18.08.32.19.44.33s.2.3.26.49.08.39.08.6v2.35h-.75v-2.1c0-.16-.01-.3-.04-.44-.02-.14-.07-.26-.13-.37a.72.72 0 0 0-.26-.26.91.91 0 0 0-.43-.1c-.3 0-.54.11-.73.34s-.28.53-.28.91v2.02H471v-2.98c0-.1 0-.23-.01-.39 0-.16-.01-.3-.02-.42h.71zM478.44 55.71c.09-.19.25-.35.46-.48.22-.13.46-.2.74-.2.25 0 .46.04.63.12.18.08.32.19.44.33s.2.3.26.49.08.39.08.6v2.35h-.75v-2.1c0-.15-.01-.3-.04-.44-.02-.14-.07-.26-.13-.37a.72.72 0 0 0-.26-.26.881.881 0 0 0-.43-.1c-.3 0-.54.11-.74.34-.19.23-.29.53-.29.91v2.01h-.75v-6.05h.75v2.83h.03zM485.87 57v.13c0 .05 0 .08-.01.13h-3.02c0 .16.04.31.11.45s.16.26.27.37.24.18.39.24c.15.06.3.09.47.09.26 0 .48-.06.66-.17.19-.11.33-.25.44-.41l.53.42c-.2.27-.44.47-.72.59-.28.13-.58.19-.92.19-.29 0-.55-.05-.8-.14-.25-.1-.46-.23-.63-.4a1.88 1.88 0 0 1-.42-.63c-.1-.25-.15-.52-.15-.82 0-.29.05-.56.15-.81.1-.25.24-.46.41-.64.18-.18.38-.31.63-.41.24-.1.5-.15.78-.15s.53.05.76.14c.23.09.42.22.58.39.16.17.28.38.36.62.09.25.13.52.13.82zm-.77-.3c0-.15-.03-.29-.08-.42a.9.9 0 0 0-.2-.34c-.09-.1-.2-.17-.33-.23s-.28-.08-.46-.08c-.16 0-.31.03-.45.08-.14.06-.26.13-.37.23-.1.1-.19.21-.26.34-.07.13-.11.27-.12.42h2.27zM486.9 55.56c0-.16-.01-.3-.02-.42h.71c.01.1.02.21.02.33.01.12.01.23.01.31h.02c.11-.22.26-.4.47-.54.21-.14.44-.2.69-.2.12 0 .22.01.3.03l-.03.7c-.11-.03-.22-.04-.34-.04-.18 0-.34.03-.47.1-.13.07-.24.16-.33.27s-.15.24-.2.39-.06.3-.06.46v1.99h-.75v-2.98c-.01-.11-.01-.24-.02-.4zM388.41 68.18h-.75v-6.05h.75v6.05zM393.56 66.28c0 .29-.05.56-.16.81a1.917 1.917 0 0 1-1.08 1.06c-.25.1-.52.15-.81.15-.29 0-.56-.05-.81-.15s-.47-.24-.65-.42c-.18-.18-.32-.39-.43-.64-.1-.25-.16-.51-.16-.81 0-.29.05-.56.16-.8a1.894 1.894 0 0 1 1.08-1.04c.25-.1.52-.15.81-.15.29 0 .56.05.81.15s.47.24.65.41c.18.18.33.39.43.63.11.24.16.5.16.8zm-.78 0c0-.18-.03-.35-.08-.52-.06-.16-.14-.31-.25-.43s-.24-.22-.4-.3c-.16-.07-.34-.11-.54-.11s-.38.04-.54.11c-.16.07-.29.17-.4.3-.11.12-.19.27-.25.43-.06.17-.08.34-.08.52s.03.35.08.52c.06.17.14.31.25.44.11.13.24.23.4.3.16.07.34.11.54.11s.38-.04.54-.11c.16-.07.29-.18.4-.3.11-.13.19-.27.25-.44.05-.17.08-.34.08-.52zM396.38 68.18h-.82l-1.54-3.79h.83l1.11 2.98h.02l1.12-2.98h.8l-1.52 3.79zM402.18 66.25v.13c0 .05 0 .08-.01.13h-3.02c0 .16.04.31.11.45s.16.26.27.37.24.18.39.24c.15.06.3.09.47.09.26 0 .48-.06.66-.17.19-.11.33-.25.44-.41l.53.42c-.2.27-.44.47-.72.59-.28.13-.58.19-.92.19-.29 0-.55-.05-.8-.14-.25-.1-.46-.23-.63-.4a1.88 1.88 0 0 1-.42-.63c-.1-.25-.15-.52-.15-.82 0-.29.05-.56.15-.81.1-.25.24-.46.41-.64.18-.18.38-.31.63-.41.24-.1.5-.15.78-.15s.53.05.76.14c.23.09.42.22.58.39.16.17.28.38.36.62.08.25.13.52.13.82zm-.77-.3c0-.15-.03-.29-.08-.42a.9.9 0 0 0-.2-.34c-.09-.1-.2-.17-.33-.23s-.28-.08-.46-.08c-.16 0-.31.03-.45.08-.14.06-.26.13-.37.23-.1.1-.19.21-.26.34-.07.13-.11.27-.12.42h2.27zM406 64.96c.09-.19.25-.35.46-.48.22-.13.46-.2.74-.2.25 0 .46.04.63.12.18.08.32.19.44.33s.2.3.26.49.08.39.08.6v2.35h-.75v-2.1c0-.15-.01-.3-.04-.44-.02-.14-.07-.26-.13-.37a.72.72 0 0 0-.26-.26.881.881 0 0 0-.43-.1c-.3 0-.54.11-.74.34-.19.23-.29.53-.29.91v2.01h-.75v-6.05h.75v2.83h.03zM412.25 65.72c0-.28-.08-.49-.26-.63s-.4-.2-.68-.2c-.21 0-.42.04-.6.12s-.35.19-.48.32l-.4-.48c.19-.18.42-.31.68-.42.27-.1.56-.15.87-.15.27 0 .51.04.71.12a1.305 1.305 0 0 1 .78.79c.06.18.1.38.1.58v1.66c0 .13 0 .26.01.4s.02.26.04.35h-.68c-.04-.18-.06-.36-.06-.54h-.02c-.14.2-.31.36-.52.47-.21.11-.46.17-.75.17-.15 0-.31-.02-.47-.06-.16-.04-.31-.11-.44-.2-.13-.09-.24-.21-.33-.36-.09-.15-.13-.33-.13-.55 0-.29.08-.52.23-.68.16-.17.36-.3.61-.38s.53-.15.85-.17c.32-.03.63-.04.95-.04v-.12zm-.19.65c-.19 0-.38.01-.58.02-.2.02-.38.05-.54.1-.16.05-.3.12-.4.22-.11.1-.16.22-.16.38 0 .11.02.21.07.28.04.07.11.14.18.18.08.05.16.08.25.1.09.02.18.03.28.03.35 0 .62-.11.81-.32.19-.21.28-.48.28-.8v-.2h-.19zM414.9 64.39c.01.1.02.2.02.32.01.12.01.22.01.3h.02c.05-.1.11-.2.2-.28s.18-.17.28-.23a1.393 1.393 0 0 1 .75-.22c.25 0 .46.04.63.12.18.08.32.19.44.33s.2.3.26.49.08.39.08.6v2.35h-.75v-2.1c0-.16-.01-.3-.04-.44-.02-.14-.07-.26-.13-.37a.72.72 0 0 0-.26-.26.91.91 0 0 0-.43-.1c-.3 0-.54.11-.73.34s-.28.53-.28.91v2.02h-.75v-2.98c0-.1 0-.23-.01-.39 0-.16-.01-.3-.02-.42h.71zM421.9 67.58c-.14.23-.34.4-.59.52s-.51.18-.78.18a1.83 1.83 0 0 1-1.39-.59c-.17-.18-.29-.39-.38-.64a2.247 2.247 0 0 1 0-1.56 1.808 1.808 0 0 1 .99-1.06c.24-.1.49-.15.78-.15a1.62 1.62 0 0 1 1.35.68h.02v-2.82h.75v6.05h-.73v-.6h-.02zm-2.49-1.3c0 .18.03.35.08.51a1.262 1.262 0 0 0 .63.75c.16.08.34.12.54.12.19 0 .37-.04.52-.11s.29-.17.4-.3c.11-.12.2-.27.26-.43a1.538 1.538 0 0 0 0-1.04c-.06-.17-.15-.31-.26-.44-.11-.13-.25-.23-.4-.3s-.33-.11-.52-.11c-.21 0-.39.04-.54.11-.15.07-.29.18-.39.3-.11.13-.19.27-.24.44-.06.15-.08.33-.08.5zM424.73 68.18h-.75v-6.05h.75v6.05zM429.58 66.25v.13c0 .05 0 .08-.01.13h-3.02c0 .16.04.31.11.45s.16.26.27.37.24.18.39.24c.15.06.3.09.47.09.26 0 .48-.06.66-.17.19-.11.33-.25.44-.41l.53.42c-.2.27-.44.47-.72.59-.28.13-.58.19-.92.19-.29 0-.55-.05-.8-.14-.25-.1-.46-.23-.63-.4a1.88 1.88 0 0 1-.42-.63c-.1-.25-.15-.52-.15-.82 0-.29.05-.56.15-.81.1-.25.24-.46.41-.64.18-.18.38-.31.63-.41.24-.1.5-.15.78-.15s.53.05.76.14c.23.09.42.22.58.39.16.17.28.38.36.62.09.25.13.52.13.82zm-.76-.3c0-.15-.03-.29-.08-.42a.9.9 0 0 0-.2-.34c-.09-.1-.2-.17-.33-.23s-.28-.08-.46-.08c-.16 0-.31.03-.45.08-.14.06-.26.13-.37.23-.1.1-.19.21-.26.34-.07.13-.11.27-.12.42h2.27zM432.67 65.35c-.09-.14-.21-.25-.36-.34s-.33-.13-.52-.13c-.09 0-.17.01-.26.03-.08.02-.16.05-.23.09a.414.414 0 0 0-.22.38c0 .16.07.28.22.36.14.08.36.15.65.21.18.04.35.09.5.15.15.06.29.13.4.22a.925.925 0 0 1 .37.75c0 .22-.04.41-.13.57-.09.15-.2.28-.34.38-.14.1-.3.17-.48.21s-.37.06-.56.06c-.29 0-.57-.06-.84-.17-.27-.11-.5-.28-.68-.51l.54-.46c.1.15.24.28.42.38a1.265 1.265 0 0 0 .87.12c.09-.02.17-.05.24-.09.07-.04.13-.1.17-.17.04-.07.06-.16.06-.26a.4.4 0 0 0-.25-.39c-.17-.08-.42-.17-.74-.24-.13-.03-.26-.07-.39-.12-.13-.05-.25-.11-.36-.19a.868.868 0 0 1-.36-.74c0-.2.04-.38.12-.52.08-.15.19-.27.32-.36.13-.09.29-.16.46-.21.17-.04.35-.07.53-.07.27 0 .54.05.79.16s.45.26.59.46l-.53.44zM438.54 65.72c0-.28-.08-.49-.26-.63s-.4-.2-.68-.2c-.21 0-.42.04-.6.12s-.35.19-.48.32l-.4-.48c.19-.18.42-.31.68-.42.27-.1.56-.15.87-.15.27 0 .51.04.71.12a1.305 1.305 0 0 1 .78.79c.06.18.1.38.1.58v1.66c0 .13 0 .26.01.4s.02.26.04.35h-.68c-.04-.18-.06-.36-.06-.54h-.02c-.14.2-.31.36-.52.47-.21.11-.46.17-.75.17-.15 0-.31-.02-.47-.06-.16-.04-.31-.11-.44-.2-.13-.09-.24-.21-.33-.36-.09-.15-.13-.33-.13-.55 0-.29.08-.52.23-.68.16-.17.36-.3.61-.38s.53-.15.85-.17c.32-.03.63-.04.95-.04v-.12zm-.19.65c-.19 0-.38.01-.58.02-.2.02-.38.05-.54.1-.16.05-.3.12-.4.22-.11.1-.16.22-.16.38 0 .11.02.21.07.28.04.07.11.14.18.18.08.05.16.08.25.1.09.02.18.03.28.03.35 0 .62-.11.81-.32.19-.21.28-.48.28-.8v-.2h-.19zM441.19 64.39c.01.1.02.2.02.32.01.12.01.22.01.3h.02c.05-.1.11-.2.2-.28s.18-.17.28-.23a1.393 1.393 0 0 1 .75-.22c.25 0 .46.04.63.12.18.08.32.19.44.33s.2.3.26.49.08.39.08.6v2.35h-.75v-2.1c0-.16-.01-.3-.04-.44-.02-.14-.07-.26-.13-.37a.72.72 0 0 0-.26-.26.91.91 0 0 0-.43-.1c-.3 0-.54.11-.73.34s-.28.53-.28.91v2.02h-.75v-2.98c0-.1 0-.23-.01-.39 0-.16-.01-.3-.02-.42h.71zM448.19 67.58c-.14.23-.34.4-.59.52s-.51.18-.78.18a1.83 1.83 0 0 1-1.39-.59c-.17-.18-.29-.39-.38-.64a2.247 2.247 0 0 1 0-1.56 1.808 1.808 0 0 1 .99-1.06c.24-.1.49-.15.78-.15a1.62 1.62 0 0 1 1.35.68h.02v-2.82h.75v6.05h-.73v-.6h-.02zm-2.49-1.3c0 .18.03.35.08.51a1.262 1.262 0 0 0 .63.75c.16.08.34.12.54.12.19 0 .37-.04.52-.11s.29-.17.4-.3c.11-.12.2-.27.26-.43a1.538 1.538 0 0 0 0-1.04c-.06-.17-.15-.31-.26-.44-.11-.13-.25-.23-.4-.3s-.33-.11-.52-.11c-.21 0-.39.04-.54.11-.15.07-.29.18-.39.3-.11.13-.19.27-.24.44-.06.15-.08.33-.08.5zM454.61 65.72c0-.28-.08-.49-.26-.63s-.4-.2-.68-.2c-.21 0-.42.04-.6.12s-.35.19-.48.32l-.4-.48c.19-.18.42-.31.68-.42.27-.1.56-.15.87-.15.27 0 .51.04.71.12a1.305 1.305 0 0 1 .78.79c.06.18.1.38.1.58v1.66c0 .13 0 .26.01.4s.02.26.04.35h-.68c-.04-.18-.06-.36-.06-.54h-.02c-.14.2-.31.36-.52.47-.21.11-.46.17-.75.17-.15 0-.31-.02-.47-.06-.16-.04-.31-.11-.44-.2-.13-.09-.24-.21-.33-.36-.09-.15-.13-.33-.13-.55 0-.29.08-.52.23-.68.16-.17.36-.3.61-.38s.53-.15.85-.17c.32-.03.63-.04.95-.04v-.12zm-.19.65c-.19 0-.38.01-.58.02-.2.02-.38.05-.54.1-.16.05-.3.12-.4.22-.11.1-.16.22-.16.38 0 .11.02.21.07.28.04.07.11.14.18.18.08.05.16.08.25.1.09.02.18.03.28.03.35 0 .62-.11.81-.32.19-.21.28-.48.28-.8v-.2h-.19zM457.33 67.58v.6h-.73v-6.05h.75v2.82h.02c.13-.19.31-.35.53-.48s.5-.2.81-.2c.28 0 .54.05.77.15a1.808 1.808 0 0 1 .99 1.06c.09.24.14.5.14.78s-.04.54-.14.78c-.09.25-.22.46-.38.64-.17.18-.36.32-.6.43-.23.1-.5.16-.79.16-.27 0-.53-.06-.77-.18s-.44-.29-.59-.52h-.01zm2.52-1.3c0-.17-.03-.35-.08-.51a1.18 1.18 0 0 0-.64-.74c-.16-.07-.34-.11-.55-.11-.19 0-.37.04-.52.11s-.29.18-.4.3c-.11.13-.2.27-.26.44a1.538 1.538 0 0 0 0 1.04c.06.16.15.31.26.43.11.12.25.22.4.3s.33.11.52.11a1.204 1.204 0 0 0 .95-.43c.11-.13.19-.27.24-.44.05-.15.08-.32.08-.5zM464.7 67.58c-.14.23-.34.4-.59.52s-.51.18-.78.18a1.83 1.83 0 0 1-1.39-.59c-.17-.18-.29-.39-.38-.64a2.247 2.247 0 0 1 0-1.56 1.808 1.808 0 0 1 .99-1.06c.24-.1.49-.15.78-.15a1.62 1.62 0 0 1 1.35.68h.02v-2.82h.75v6.05h-.73v-.6h-.02zm-2.5-1.3c0 .18.03.35.08.51a1.262 1.262 0 0 0 .63.75c.16.08.34.12.54.12.19 0 .37-.04.52-.11s.29-.17.4-.3c.11-.12.2-.27.26-.43a1.538 1.538 0 0 0 0-1.04c-.06-.17-.15-.31-.26-.44-.11-.13-.25-.23-.4-.3s-.33-.11-.52-.11c-.21 0-.39.04-.54.11-.15.07-.29.18-.39.3-.11.13-.19.27-.24.44-.05.15-.08.33-.08.5zM470.59 66.28c0 .29-.05.56-.16.81a1.917 1.917 0 0 1-1.08 1.06c-.25.1-.52.15-.81.15-.29 0-.56-.05-.81-.15s-.47-.24-.65-.42c-.18-.18-.32-.39-.43-.64-.1-.25-.16-.51-.16-.81 0-.29.05-.56.16-.8a1.894 1.894 0 0 1 1.08-1.04c.25-.1.52-.15.81-.15.29 0 .56.05.81.15s.47.24.65.41c.18.18.33.39.43.63.11.24.16.5.16.8zm-.78 0c0-.18-.03-.35-.08-.52-.06-.16-.14-.31-.25-.43s-.24-.22-.4-.3c-.16-.07-.34-.11-.54-.11s-.38.04-.54.11c-.16.07-.29.17-.4.3-.11.12-.19.27-.25.43-.06.17-.08.34-.08.52s.03.35.08.52c.06.17.14.31.25.44.11.13.24.23.4.3.16.07.34.11.54.11s.38-.04.54-.11c.16-.07.29-.18.4-.3.11-.13.19-.27.25-.44.05-.17.08-.34.08-.52zM472.83 64.5c.21-.14.46-.21.75-.21.26 0 .49.06.69.18s.37.31.48.58c.13-.25.31-.43.54-.56s.48-.2.75-.2c.25 0 .46.04.63.12.18.08.32.19.44.33s.2.3.26.49.08.39.08.6v2.35h-.75v-2.1c0-.16-.01-.3-.04-.44s-.07-.26-.14-.37a.734.734 0 0 0-.67-.36.87.87 0 0 0-.44.11c-.12.07-.22.17-.3.28s-.13.24-.17.39c-.03.14-.05.29-.05.44v2.05h-.75v-2.26c0-.15-.01-.29-.04-.41s-.07-.23-.14-.32a.641.641 0 0 0-.25-.21.855.855 0 0 0-.38-.08c-.28 0-.51.11-.69.34-.18.23-.28.53-.28.91v2.02h-.75v-2.98c0-.1 0-.23-.01-.39 0-.16-.01-.3-.02-.42h.71c.01.1.02.2.02.32.01.12.01.22.01.3h.02c.12-.19.28-.36.49-.5zM482.27 66.25v.13c0 .05 0 .08-.01.13h-3.02c0 .16.04.31.11.45s.16.26.27.37.24.18.39.24c.15.06.3.09.47.09.26 0 .48-.06.66-.17.19-.11.33-.25.44-.41l.53.42c-.2.27-.44.47-.72.59-.28.13-.58.19-.92.19-.29 0-.55-.05-.8-.14-.25-.1-.46-.23-.63-.4a1.88 1.88 0 0 1-.42-.63c-.1-.25-.15-.52-.15-.82 0-.29.05-.56.15-.81.1-.25.24-.46.41-.64.18-.18.38-.31.63-.41.24-.1.5-.15.78-.15s.53.05.76.14c.23.09.42.22.58.39.16.17.28.38.36.62.09.25.13.52.13.82zm-.77-.3c0-.15-.03-.29-.08-.42a.9.9 0 0 0-.2-.34c-.09-.1-.2-.17-.33-.23s-.28-.08-.46-.08c-.16 0-.31.03-.45.08-.14.06-.26.13-.37.23-.1.1-.19.21-.26.34-.07.13-.11.27-.12.42h2.27zM483.99 64.39c.01.1.02.2.02.32.01.12.01.22.01.3h.02c.05-.1.11-.2.2-.28s.18-.17.28-.23a1.393 1.393 0 0 1 .75-.22c.25 0 .46.04.63.12.18.08.32.19.44.33s.2.3.26.49.08.39.08.6v2.35h-.75v-2.1c0-.16-.01-.3-.04-.44-.02-.14-.07-.26-.13-.37a.72.72 0 0 0-.26-.26.91.91 0 0 0-.43-.1c-.3 0-.54.11-.73.34s-.28.53-.28.91v2.02h-.75v-2.98c0-.1 0-.23-.01-.39 0-.16-.01-.3-.02-.42h.71zM488.9 67.7c0 .14-.05.26-.15.37-.1.11-.23.16-.38.16s-.28-.05-.38-.16a.5.5 0 0 1-.16-.36.529.529 0 0 1 .53-.53c.15 0 .28.05.38.15.1.1.16.23.16.37zM428.46 77.43h-.79v-5.66h1.82c.27 0 .53.03.78.08.25.06.46.15.64.27.18.12.33.28.44.48.11.2.16.44.16.73 0 .42-.13.75-.38 1.01s-.59.42-.99.49l1.58 2.6h-.96l-1.44-2.52h-.85v2.52zm0-3.18h.91c.19 0 .36-.02.52-.05.16-.03.3-.08.42-.16.12-.07.21-.17.28-.28s.1-.26.1-.43-.03-.31-.1-.43a.833.833 0 0 0-.28-.28c-.11-.07-.25-.12-.4-.15a2.56 2.56 0 0 0-.49-.04h-.97v1.82zM435.98 75.5v.13c0 .05 0 .08-.01.13h-3.02c0 .16.04.31.11.45s.16.26.27.37.24.18.39.24c.15.06.3.09.47.09.26 0 .48-.06.66-.17.19-.11.33-.25.44-.41l.53.42c-.2.27-.44.47-.72.59-.28.13-.58.19-.92.19-.29 0-.55-.05-.8-.14-.25-.1-.46-.23-.63-.4a1.88 1.88 0 0 1-.42-.63c-.1-.25-.15-.52-.15-.82 0-.29.05-.56.15-.81.1-.25.24-.46.41-.64.18-.18.38-.31.63-.41.24-.1.5-.15.78-.15s.53.05.76.14c.23.09.42.22.58.39.16.17.28.38.36.62.09.25.13.52.13.82zm-.77-.3c0-.15-.03-.29-.08-.42a.9.9 0 0 0-.2-.34c-.09-.1-.2-.17-.33-.23s-.28-.08-.46-.08c-.16 0-.31.03-.45.08-.14.06-.26.13-.37.23-.1.1-.19.21-.26.34-.07.13-.11.27-.12.42h2.27zM439.07 74.6c-.09-.14-.21-.25-.36-.34s-.33-.13-.52-.13c-.09 0-.17.01-.26.03-.08.02-.16.05-.23.09a.414.414 0 0 0-.22.38c0 .16.07.28.22.36.14.08.36.15.65.21.18.04.35.09.5.15.15.06.29.13.4.22a.925.925 0 0 1 .37.75c0 .22-.04.41-.13.57-.09.15-.2.28-.34.38-.14.1-.3.17-.48.21s-.37.06-.56.06c-.29 0-.57-.06-.84-.17-.27-.11-.5-.28-.68-.51l.54-.46c.1.15.24.28.42.38a1.265 1.265 0 0 0 .87.12c.09-.02.17-.05.24-.09.07-.04.13-.1.17-.17.04-.07.06-.16.06-.26a.4.4 0 0 0-.25-.39c-.17-.08-.42-.17-.74-.24-.13-.03-.26-.07-.39-.12-.13-.05-.25-.11-.36-.19a.868.868 0 0 1-.36-.74c0-.2.04-.38.12-.52.08-.15.19-.27.32-.36.13-.09.29-.16.46-.21.17-.04.35-.07.53-.07.27 0 .54.05.79.16s.45.26.59.46l-.53.44zM443.25 77.43c-.01-.1-.02-.2-.02-.32s-.01-.22-.01-.3h-.02c-.1.2-.26.38-.48.52-.23.14-.48.21-.76.21-.25 0-.46-.04-.64-.12-.18-.08-.33-.19-.44-.33-.12-.14-.2-.31-.26-.49-.06-.19-.08-.39-.08-.6v-2.35h.75v2.1c0 .16.01.3.04.44.02.14.07.27.13.37.06.11.15.19.26.26.11.06.26.1.43.1.3 0 .55-.11.74-.34s.28-.53.28-.91v-2.02h.75v2.98c0 .1 0 .23.01.39s.01.3.02.42h-.7zM446 77.43h-.75v-6.05h.75v6.05zM449.17 74.25h-1.01v1.97c0 .23.04.39.13.49.08.1.22.15.41.15.07 0 .14-.01.22-.02s.15-.04.22-.07l.02.62a1.87 1.87 0 0 1-.64.11c-.36 0-.63-.1-.82-.3-.19-.2-.28-.49-.28-.89v-2.06h-.73v-.62h.73v-1.09h.74v1.09h1.01v.62zM451.99 74.6c-.09-.14-.21-.25-.36-.34s-.33-.13-.52-.13c-.09 0-.17.01-.26.03-.08.02-.16.05-.23.09a.414.414 0 0 0-.22.38c0 .16.07.28.22.36.14.08.36.15.65.21.18.04.35.09.5.15.15.06.29.13.4.22a.925.925 0 0 1 .37.75c0 .22-.04.41-.13.57-.09.15-.2.28-.34.38-.14.1-.3.17-.48.21s-.37.06-.56.06c-.29 0-.57-.06-.84-.17-.27-.11-.5-.28-.68-.51l.54-.46c.1.15.24.28.42.38a1.265 1.265 0 0 0 .87.12c.09-.02.17-.05.24-.09.07-.04.13-.1.17-.17.04-.07.06-.16.06-.26a.4.4 0 0 0-.25-.39c-.17-.08-.42-.17-.74-.24-.13-.03-.26-.07-.39-.12-.13-.05-.25-.11-.36-.19a.868.868 0 0 1-.36-.74c0-.2.04-.38.12-.52.08-.15.19-.27.32-.36.13-.09.29-.16.46-.21.17-.04.35-.07.53-.07.27 0 .54.05.79.16s.45.26.59.46l-.53.44zM456.69 73.75c.21-.14.46-.21.75-.21.26 0 .49.06.69.18s.37.31.48.58c.13-.25.31-.43.54-.56s.48-.2.75-.2c.25 0 .46.04.63.12.18.08.32.19.44.33s.2.3.26.49.08.39.08.6v2.35h-.75v-2.1c0-.16-.01-.3-.04-.44s-.07-.26-.14-.37a.734.734 0 0 0-.67-.36.87.87 0 0 0-.44.11c-.12.07-.22.17-.3.28s-.13.24-.17.39c-.03.14-.05.29-.05.44v2.05H458v-2.26c0-.15-.01-.29-.04-.41s-.07-.23-.14-.32a.641.641 0 0 0-.25-.21.855.855 0 0 0-.38-.08c-.28 0-.51.11-.69.34-.18.23-.28.53-.28.91v2.02h-.75v-2.98c0-.1 0-.23-.01-.39 0-.16-.01-.3-.02-.42h.71c.01.1.02.2.02.32.01.12.01.22.01.3h.02c.13-.19.28-.36.49-.5zM464.95 74.97c0-.28-.08-.49-.26-.63s-.4-.2-.68-.2c-.21 0-.42.04-.6.12s-.35.19-.48.32l-.4-.48c.19-.18.42-.31.68-.42.27-.1.56-.15.87-.15.27 0 .51.04.71.12a1.305 1.305 0 0 1 .78.79c.06.18.1.38.1.58v1.66c0 .13 0 .26.01.4s.02.26.04.35h-.68c-.04-.18-.06-.36-.06-.54h-.02c-.14.2-.31.36-.52.47-.21.11-.46.17-.75.17-.15 0-.31-.02-.47-.06-.16-.04-.31-.11-.44-.2-.13-.09-.24-.21-.33-.36-.09-.15-.13-.33-.13-.55 0-.29.08-.52.23-.68.16-.17.36-.3.61-.38s.53-.15.85-.17c.32-.03.63-.04.95-.04v-.12zm-.18.65c-.19 0-.38.01-.58.02-.2.02-.38.05-.54.1-.16.05-.3.12-.4.22-.11.1-.16.22-.16.38 0 .11.02.21.07.28.04.07.11.14.18.18.08.05.16.08.25.1.09.02.18.03.28.03.35 0 .62-.11.81-.32.19-.21.28-.48.28-.8v-.2h-.19zM468.37 76.61h.02l1.05-2.98h.8l-1.84 4.69c-.06.16-.13.3-.21.43-.08.12-.16.23-.26.32s-.22.16-.36.2c-.14.05-.3.07-.48.07-.08 0-.16 0-.24-.01-.08-.01-.17-.02-.25-.04l.07-.66c.13.04.25.06.38.06.2 0 .34-.05.44-.16.1-.11.18-.26.26-.47l.24-.63-1.62-3.79h.84l1.16 2.97zM474.74 77.43h-.82l-1.54-3.79h.83l1.11 2.98h.02l1.12-2.98h.8l-1.52 3.79zM479.35 74.97c0-.28-.08-.49-.26-.63s-.4-.2-.68-.2c-.21 0-.42.04-.6.12s-.35.19-.48.32l-.4-.48c.19-.18.42-.31.68-.42.27-.1.56-.15.87-.15.27 0 .51.04.71.12a1.305 1.305 0 0 1 .78.79c.06.18.1.38.1.58v1.66c0 .13 0 .26.01.4s.02.26.04.35h-.68c-.04-.18-.06-.36-.06-.54h-.02c-.14.2-.31.36-.52.47-.21.11-.46.17-.75.17-.15 0-.31-.02-.47-.06-.16-.04-.31-.11-.44-.2-.13-.09-.24-.21-.33-.36-.09-.15-.13-.33-.13-.55 0-.29.08-.52.23-.68.16-.17.36-.3.61-.38s.53-.15.85-.17c.32-.03.63-.04.95-.04v-.12zm-.18.65c-.19 0-.38.01-.58.02-.2.02-.38.05-.54.1-.16.05-.3.12-.4.22-.11.1-.16.22-.16.38 0 .11.02.21.07.28.04.07.11.14.18.18.08.05.16.08.25.1.09.02.18.03.28.03.35 0 .62-.11.81-.32.19-.21.28-.48.28-.8v-.2h-.19zM481.32 74.06c0-.16-.01-.3-.02-.42h.71c.01.1.02.21.02.33.01.12.01.23.01.31h.02c.11-.22.26-.4.47-.54.21-.14.44-.2.69-.2.12 0 .22.01.3.03l-.03.7c-.11-.03-.22-.04-.34-.04-.18 0-.34.03-.47.1-.13.07-.24.16-.33.27s-.15.24-.2.39-.06.3-.06.46v1.99h-.75v-2.98c-.01-.11-.02-.24-.02-.4zM485.66 76.61h.02l1.05-2.98h.8l-1.84 4.69c-.06.16-.13.3-.21.43-.08.12-.16.23-.26.32s-.22.16-.36.2c-.14.05-.3.07-.48.07-.08 0-.16 0-.24-.01-.08-.01-.17-.02-.25-.04l.07-.66c.13.04.25.06.38.06.2 0 .34-.05.44-.16.1-.11.18-.26.26-.47l.24-.63-1.62-3.79h.84l1.16 2.97zM488.89 76.95c0 .14-.05.26-.15.37-.1.11-.23.16-.38.16s-.28-.05-.38-.16a.5.5 0 0 1-.16-.36.529.529 0 0 1 .53-.53c.15 0 .28.05.38.15.11.1.16.23.16.37z"/></svg>