<?xml version="1.0" encoding="utf-8"?>
<!-- Generator: Adobe Illustrator 25.2.1, SVG Export Plug-In . SVG Version: 6.00 Build 0)  -->
<svg version="1.1" id="Layer_1" xmlns="http://www.w3.org/2000/svg" xmlns:xlink="http://www.w3.org/1999/xlink" x="0px" y="0px"
	 viewBox="0 0 970 250" style="enable-background:new 0 0 970 250;" xml:space="preserve">
<style type="text/css">
	.st0{fill:#FFFFFF;}
</style>
<g>
	<path class="st0" d="M40.02,88.53h-3.33l0.2-2.93h3.33l1-13.98h-3.33l0.2-2.93h3.33l0.87-12.45h3.2l-0.87,12.45h4.93l0.87-12.45
		h3.13l-0.87,12.45h3.46l-0.2,2.93h-3.46l-1,13.98H55l-0.27,2.93h-3.46l-0.93,13.65h-3.13l0.93-13.65h-4.93l-0.93,13.65h-3.2
		L40.02,88.53z M48.34,85.6l1-13.98h-4.93l-1,13.98H48.34z"/>
	<path class="st0" d="M66.59,60.76l-5.86,3.6v-3.73l7.33-4.53h2.46v46.08h-3.93V60.76z"/>
	<path class="st0" d="M84.01,67.14h3.96l5.54,25.64h0.1V67.14h2.74v35.04h-3.3l-6.2-28.89h-0.1v28.89h-2.74V67.14z"/>
	<path class="st0" d="M102.08,96.34V72.98c0-4.06,2.18-6.35,5.89-6.35s5.89,2.29,5.89,6.35v23.36c0,4.06-2.18,6.35-5.89,6.35
		S102.08,100.4,102.08,96.34z M110.82,95.83V73.48c0-2.95-0.81-4.11-2.84-4.11c-2.08,0-2.84,1.17-2.84,4.11v22.34
		c0,2.95,0.76,4.11,2.84,4.11C110.01,99.94,110.82,98.77,110.82,95.83z"/>
	<path class="st0" d="M119.6,67.14h3.96l5.54,25.64h0.1V67.14h2.74v35.04h-3.3l-6.2-28.89h-0.1v28.89h-2.74V67.14z"/>
	<path class="st0" d="M137.32,96.44v-6.14h2.95v5.59c0,2.89,0.81,4.06,2.84,4.06c2.08,0,2.89-1.17,2.89-4.06V90.6
		c0-2.39-0.66-3.55-2.39-4.67l-2.69-1.73c-2.59-1.68-3.61-3.61-3.61-7.01v-4.52c0-3.86,2.08-6.04,5.69-6.04s5.69,2.18,5.69,6.04
		v4.52h-2.95v-4.01c0-2.74-0.76-3.81-2.69-3.81s-2.69,1.07-2.69,3.81v3.81c0,2.39,0.66,3.55,2.39,4.67l2.69,1.73
		c2.59,1.68,3.61,3.61,3.61,7.01v6.04c0,4.01-2.18,6.25-5.89,6.25S137.32,100.45,137.32,96.44z"/>
	<path class="st0" d="M154.23,96.54v-29.4h3.05v28.84c0,2.84,0.71,3.96,2.74,3.96s2.74-1.12,2.74-3.96V67.14h2.95v29.4
		c0,3.91-2.13,6.14-5.74,6.14S154.23,100.45,154.23,96.54z"/>
	<path class="st0" d="M171.55,67.14h5.64c4.06,0,5.99,2.08,5.99,6.35v4.47c0,2.84-0.91,4.57-2.74,5.38v0.1
		c1.83,0.81,2.74,2.54,2.74,5.43v13.3h-3.05v-13.1c0-3.25-0.91-4.21-3.81-4.21h-1.73v17.32h-3.05V67.14z M176.83,82.22
		c2.54,0,3.3-0.96,3.3-4.21v-4.01c0-3.25-0.76-4.21-3.3-4.21h-2.23v12.44H176.83z"/>
	<path class="st0" d="M188.66,97.2V72.93c0-4.01,2.18-6.3,5.84-6.3c3.71,0,5.79,2.29,5.79,6.3v3.86h-2.89v-3.3
		c0-2.95-0.81-4.11-2.84-4.11c-2.08,0-2.84,1.17-2.84,4.11v23.36c0,2.08,0.76,3.1,2.44,3.1c2.08,0,3.25-1.57,3.25-4.42V85.47h-2.84
		v-2.64h5.89v19.35h-2.59v-2.49h-0.15c-0.81,1.93-2.29,3-4.37,3C190.39,102.68,188.66,100.6,188.66,97.2z"/>
	<path class="st0" d="M206.03,67.14h3.05v35.04h-3.05V67.14z"/>
	<path class="st0" d="M214.81,96.64V72.67c0-3.86,2.03-6.04,5.69-6.04c3.71,0,5.74,2.18,5.74,6.04v5.74h-2.89v-5.23
		c0-2.74-0.81-3.81-2.74-3.81c-1.98,0-2.74,1.07-2.74,3.81v22.95c0,2.74,0.76,3.81,2.74,3.81c1.93,0,2.74-1.07,2.74-3.81v-7.06h2.89
		v7.57c0,3.86-2.03,6.04-5.74,6.04C216.84,102.68,214.81,100.5,214.81,96.64z"/>
	<path class="st0" d="M234.87,67.14h4.01l4.42,35.04h-3.1l-1.02-8.68h-4.77l-1.02,8.68h-2.95L234.87,67.14z M238.88,90.85
		l-2.03-18.89h-0.1l-2.03,18.89H238.88z"/>
	<path class="st0" d="M248.07,67.14h3.05v32.4h6.5v2.64h-9.55V67.14z"/>
	<path class="st0" d="M37.64,113.3h10.05v2.64h-7.01v12.75h6.09v2.64h-6.09v17.01h-3.05V113.3z"/>
	<path class="st0" d="M55.66,113.3h4.01l4.42,35.04H61l-1.02-8.68h-4.77l-1.02,8.68h-2.95L55.66,113.3z M59.68,137.01l-2.03-18.89
		h-0.1l-2.03,18.89H59.68z"/>
	<path class="st0" d="M71.91,115.94h-4.27v-2.64h11.58v2.64h-4.27v32.4h-3.05V115.94z"/>
	<path class="st0" d="M92.32,113.3h5.64c4.06,0,5.99,2.08,5.99,6.35v4.47c0,2.84-0.91,4.57-2.74,5.38v0.1
		c1.83,0.81,2.74,2.54,2.74,5.43v13.3h-3.05v-13.1c0-3.25-0.91-4.21-3.81-4.21h-1.73v17.32h-3.05V113.3z M97.61,128.38
		c2.54,0,3.3-0.96,3.3-4.21v-4.01c0-3.25-0.76-4.21-3.3-4.21h-2.23v12.44H97.61z"/>
	<path class="st0" d="M109.64,113.3h10.05v2.64h-7.01v12.24h6.09v2.64h-6.09v14.88h7.01v2.64h-10.05V113.3z"/>
	<path class="st0" d="M124.62,113.3h5.79c4.06,0,5.99,2.08,5.99,6.35v22.34c0,4.27-1.93,6.35-5.99,6.35h-5.79V113.3z M130.05,145.7
		c2.54,0,3.3-0.96,3.3-4.21v-21.33c0-3.25-0.76-4.21-3.3-4.21h-2.39v29.76H130.05z"/>
	<path class="st0" d="M141.99,142.7v-29.4h3.05v28.84c0,2.84,0.71,3.96,2.74,3.96s2.74-1.12,2.74-3.96V113.3h2.95v29.4
		c0,3.91-2.13,6.14-5.74,6.14S141.99,146.61,141.99,142.7z"/>
	<path class="st0" d="M159.1,142.8v-23.97c0-3.86,2.03-6.04,5.69-6.04c3.71,0,5.74,2.18,5.74,6.04v5.74h-2.89v-5.23
		c0-2.74-0.81-3.81-2.74-3.81c-1.98,0-2.74,1.07-2.74,3.81v22.95c0,2.74,0.76,3.81,2.74,3.81c1.93,0,2.74-1.07,2.74-3.81v-7.06h2.89
		v7.57c0,3.86-2.03,6.04-5.74,6.04C161.13,148.85,159.1,146.66,159.1,142.8z"/>
	<path class="st0" d="M178.95,115.94h-4.27v-2.64h11.58v2.64H182v32.4h-3.05V115.94z"/>
	<path class="st0" d="M190.99,113.3h3.05v35.04h-3.05V113.3z"/>
	<path class="st0" d="M199.77,142.5v-23.36c0-4.06,2.18-6.35,5.89-6.35s5.89,2.29,5.89,6.35v23.36c0,4.06-2.18,6.35-5.89,6.35
		S199.77,146.56,199.77,142.5z M208.5,141.99v-22.34c0-2.95-0.81-4.11-2.84-4.11c-2.08,0-2.84,1.17-2.84,4.11v22.34
		c0,2.95,0.76,4.11,2.84,4.11C207.69,146.1,208.5,144.94,208.5,141.99z"/>
	<path class="st0" d="M217.29,113.3h3.96l5.54,25.64h0.1V113.3h2.74v35.04h-3.3l-6.2-28.89h-0.1v28.89h-2.74V113.3z"/>
	<path class="st0" d="M246.99,115.94h-4.27v-2.64h11.58v2.64h-4.27v32.4h-3.05V115.94z"/>
	<path class="st0" d="M259.03,113.3h5.64c4.06,0,5.99,2.08,5.99,6.35v4.47c0,2.84-0.91,4.57-2.74,5.38v0.1
		c1.83,0.81,2.74,2.54,2.74,5.43v13.3h-3.05v-13.1c0-3.25-0.91-4.21-3.81-4.21h-1.73v17.32h-3.05V113.3z M264.31,128.38
		c2.54,0,3.3-0.96,3.3-4.21v-4.01c0-3.25-0.76-4.21-3.3-4.21h-2.23v12.44H264.31z"/>
	<path class="st0" d="M276.34,113.3h10.05v2.64h-7.01v12.24h6.09v2.64h-6.09v14.88h7.01v2.64h-10.05V113.3z"/>
	<path class="st0" d="M294.57,113.3h4.01l4.42,35.04h-3.1l-1.02-8.68h-4.77l-1.02,8.68h-2.95L294.57,113.3z M298.58,137.01
		l-2.03-18.89h-0.1l-2.03,18.89H298.58z"/>
	<path class="st0" d="M310.82,115.94h-4.27v-2.64h11.58v2.64h-4.27v32.4h-3.05V115.94z"/>
	<path class="st0" d="M322.85,113.3h4.82l3.91,25.85h0.1l3.91-25.85h5.03v35.04h-3.05v-31.33h-0.1l-4.72,31.33h-2.39l-4.72-31.33
		h-0.1v31.33h-2.69V113.3z"/>
	<path class="st0" d="M346.57,113.3h10.05v2.64h-7.01v12.24h6.09v2.64h-6.09v14.88h7.01v2.64h-10.05V113.3z"/>
	<path class="st0" d="M361.55,113.3h3.96l5.54,25.64h0.1V113.3h2.74v35.04h-3.3l-6.2-28.89h-0.1v28.89h-2.74V113.3z"/>
	<path class="st0" d="M382.87,115.94h-4.27v-2.64h11.58v2.64h-4.27v32.4h-3.05V115.94z"/>
	<path class="st0" d="M393.89,144.17h3.4v4.16h-3.4V144.17z"/>
	<path class="st0" d="M398.91,115.86l-2.55,1.6l-0.68-1.12l2.66-1.42l-2.66-1.39l0.68-1.12l2.55,1.6l-0.15-2.99h1.33l-0.15,2.99
		l2.55-1.6l0.68,1.12l-2.66,1.42l2.66,1.39l-0.68,1.12l-2.55-1.6l0.15,2.99h-1.33L398.91,115.86z"/>
</g>
</svg>
