<?xml version="1.0" encoding="utf-8"?>
<!-- Generator: Adobe Illustrator 25.2.1, SVG Export Plug-In . SVG Version: 6.00 Build 0)  -->
<svg version="1.1" id="Layer_1" xmlns="http://www.w3.org/2000/svg" xmlns:xlink="http://www.w3.org/1999/xlink" x="0px" y="0px"
	 viewBox="0 0 970 250" style="enable-background:new 0 0 970 250;" xml:space="preserve">
<style type="text/css">
	.st0{fill:#EAF5FB;}
	.st1{fill:#002554;}
</style>
<rect x="36.34" y="168.15" class="st0" width="106.48" height="26.74"/>
<g>
	<path class="st1" d="M45.92,186.98v-9.02h2.19v7.12h3.49v1.9H45.92z"/>
	<path class="st1" d="M53.13,186.98v-9.02h6.06v1.85h-3.96v1.69h3.75v1.75h-3.75v1.87h4.19v1.86H53.13z"/>
	<path class="st1" d="M67.48,186.98l-0.7-1.77h-3.49l-0.66,1.77h-2.37l3.78-9.02h2.11l3.75,9.02H67.48z M65.06,180.37l-1.15,3.1
		h2.27L65.06,180.37z"/>
	<path class="st1" d="M75.99,186.98l-1.95-3.58h-0.74v3.58h-2.14v-9.02h3.44c1.73,0,3.45,0.66,3.45,2.73c0,1.21-0.71,2.08-1.87,2.43
		l2.36,3.86H75.99z M74.45,179.72h-1.16v2.1h1.03c0.7,0,1.58-0.18,1.58-1.1C75.9,179.89,75.1,179.72,74.45,179.72z"/>
	<path class="st1" d="M85.85,186.98l-3.63-5.9h-0.04l0.05,5.9h-2.11v-9.02h2.48l3.62,5.89h0.04l-0.05-5.89h2.11v9.02H85.85z"/>
	<path class="st1" d="M102.57,186.98l0.05-6.38h-0.04l-2.34,6.38h-1.53l-2.28-6.38h-0.04l0.05,6.38h-2.05v-9.02h3.1l2.05,5.78h0.05
		l1.96-5.78h3.15v9.02H102.57z"/>
	<path class="st1" d="M111.55,187.23c-2.82,0-4.91-1.94-4.91-4.79c0-2.89,2.09-4.71,4.91-4.71c2.83,0,4.92,1.82,4.92,4.71
		C116.47,185.29,114.38,187.23,111.55,187.23z M111.55,179.68c-1.53,0-2.57,1.17-2.57,2.75c0,1.63,1.06,2.8,2.57,2.8
		s2.59-1.17,2.59-2.8C114.14,180.86,113.08,179.68,111.55,179.68z"/>
	<path class="st1" d="M123.24,186.98l-1.95-3.58h-0.74v3.58h-2.14v-9.02h3.44c1.73,0,3.45,0.66,3.45,2.73
		c0,1.21-0.71,2.08-1.87,2.43l2.36,3.86H123.24z M121.7,179.72h-1.16v2.1h1.03c0.7,0,1.58-0.18,1.58-1.1
		C123.16,179.89,122.35,179.72,121.7,179.72z"/>
	<path class="st1" d="M127.37,186.98v-9.02h6.06v1.85h-3.96v1.69h3.75v1.75h-3.75v1.87h4.19v1.86H127.37z"/>
</g>
</svg>
