<?xml version="1.0" encoding="utf-8"?>
<!-- Generator: Adobe Illustrator 25.2.1, SVG Export Plug-In . SVG Version: 6.00 Build 0)  -->
<svg version="1.1" id="Layer_1" xmlns="http://www.w3.org/2000/svg" xmlns:xlink="http://www.w3.org/1999/xlink" x="0px" y="0px"
	 viewBox="0 0 970 250" style="enable-background:new 0 0 970 250;" xml:space="preserve">
<style type="text/css">
	.st0{fill:#FFFFFF;}
</style>
<g>
	<path class="st0" d="M35.79,216.11l0.31,0.87l-1.46,0.47l0.93,1.25l-0.74,0.55l-0.97-1.3l-0.96,1.3l-0.74-0.55l0.93-1.25
		l-1.46-0.47l0.31-0.87l1.46,0.47v-1.48h0.92v1.48L35.79,216.11z"/>
	<path class="st0" d="M44.27,221.97c-0.32,0.44-0.74,0.79-1.25,1.06s-1.13,0.41-1.85,0.41c-0.62,0-1.19-0.11-1.72-0.32
		c-0.52-0.21-0.98-0.51-1.36-0.88c-0.38-0.38-0.68-0.83-0.89-1.36c-0.21-0.52-0.32-1.1-0.32-1.73c0-0.64,0.11-1.22,0.33-1.74
		c0.22-0.52,0.52-0.97,0.91-1.34c0.39-0.37,0.84-0.66,1.37-0.87c0.53-0.21,1.1-0.31,1.72-0.31c0.28,0,0.56,0.03,0.84,0.08
		c0.28,0.05,0.56,0.13,0.82,0.24s0.5,0.24,0.71,0.4s0.4,0.34,0.55,0.55l-0.9,0.69c-0.2-0.28-0.48-0.5-0.84-0.68
		c-0.36-0.18-0.76-0.27-1.18-0.27c-0.47,0-0.9,0.09-1.28,0.26c-0.38,0.17-0.7,0.41-0.97,0.71s-0.48,0.65-0.62,1.04
		s-0.22,0.81-0.22,1.26c0,0.46,0.07,0.89,0.21,1.29c0.14,0.4,0.34,0.75,0.61,1.04s0.59,0.53,0.97,0.69c0.38,0.17,0.8,0.25,1.27,0.25
		c0.46,0,0.88-0.09,1.25-0.28c0.38-0.18,0.69-0.45,0.93-0.8L44.27,221.97z"/>
	<path class="st0" d="M50.52,220.5c0,0.42-0.07,0.81-0.22,1.16s-0.36,0.66-0.62,0.91c-0.26,0.26-0.58,0.46-0.94,0.6
		c-0.36,0.14-0.75,0.21-1.16,0.21c-0.41,0-0.8-0.07-1.16-0.21c-0.36-0.14-0.67-0.34-0.93-0.6c-0.26-0.26-0.47-0.56-0.61-0.91
		c-0.15-0.35-0.22-0.74-0.22-1.16c0-0.42,0.07-0.81,0.22-1.16c0.15-0.35,0.35-0.65,0.61-0.9c0.26-0.25,0.57-0.45,0.93-0.59
		c0.36-0.14,0.75-0.21,1.16-0.21c0.41,0,0.8,0.07,1.16,0.21c0.36,0.14,0.67,0.34,0.94,0.59c0.26,0.25,0.47,0.55,0.62,0.9
		S50.52,220.08,50.52,220.5z M49.4,220.5c0-0.26-0.04-0.51-0.12-0.74c-0.08-0.24-0.2-0.45-0.35-0.62c-0.15-0.18-0.34-0.32-0.57-0.43
		c-0.23-0.11-0.49-0.16-0.78-0.16c-0.29,0-0.55,0.05-0.78,0.16c-0.23,0.11-0.42,0.25-0.57,0.43c-0.15,0.18-0.27,0.39-0.35,0.62
		c-0.08,0.24-0.12,0.49-0.12,0.74c0,0.26,0.04,0.51,0.12,0.75c0.08,0.24,0.2,0.45,0.35,0.63c0.15,0.18,0.34,0.33,0.57,0.44
		c0.23,0.11,0.49,0.16,0.78,0.16c0.29,0,0.55-0.05,0.78-0.16c0.23-0.11,0.42-0.25,0.57-0.44c0.15-0.18,0.27-0.39,0.35-0.63
		C49.36,221.01,49.4,220.76,49.4,220.5z"/>
	<path class="st0" d="M57.3,220.5c0,0.42-0.07,0.81-0.22,1.16s-0.36,0.66-0.62,0.91c-0.26,0.26-0.58,0.46-0.94,0.6
		c-0.36,0.14-0.75,0.21-1.16,0.21c-0.41,0-0.8-0.07-1.16-0.21c-0.36-0.14-0.67-0.34-0.93-0.6c-0.26-0.26-0.47-0.56-0.61-0.91
		c-0.15-0.35-0.22-0.74-0.22-1.16c0-0.42,0.07-0.81,0.22-1.16c0.15-0.35,0.35-0.65,0.61-0.9c0.26-0.25,0.57-0.45,0.93-0.59
		c0.36-0.14,0.75-0.21,1.16-0.21c0.41,0,0.8,0.07,1.16,0.21c0.36,0.14,0.67,0.34,0.94,0.59c0.26,0.25,0.47,0.55,0.62,0.9
		S57.3,220.08,57.3,220.5z M56.18,220.5c0-0.26-0.04-0.51-0.12-0.74c-0.08-0.24-0.2-0.45-0.35-0.62c-0.15-0.18-0.34-0.32-0.57-0.43
		c-0.23-0.11-0.49-0.16-0.78-0.16c-0.29,0-0.55,0.05-0.78,0.16c-0.23,0.11-0.42,0.25-0.57,0.43c-0.15,0.18-0.27,0.39-0.35,0.62
		c-0.08,0.24-0.12,0.49-0.12,0.74c0,0.26,0.04,0.51,0.12,0.75c0.08,0.24,0.2,0.45,0.35,0.63c0.15,0.18,0.34,0.33,0.57,0.44
		c0.23,0.11,0.49,0.16,0.78,0.16c0.29,0,0.55-0.05,0.78-0.16c0.23-0.11,0.42-0.25,0.57-0.44c0.15-0.18,0.27-0.39,0.35-0.63
		C56.14,221.01,56.18,220.76,56.18,220.5z"/>
	<path class="st0" d="M59.67,223.23h-1.08v-8.69h1.08V223.23z"/>
	<path class="st0" d="M65.43,216.6c-0.16-0.22-0.38-0.4-0.65-0.55s-0.59-0.21-0.93-0.21c-0.18,0-0.37,0.03-0.56,0.08
		c-0.19,0.05-0.36,0.13-0.51,0.24s-0.28,0.25-0.37,0.41c-0.1,0.17-0.14,0.36-0.14,0.59c0,0.22,0.04,0.41,0.13,0.56
		c0.09,0.15,0.21,0.28,0.36,0.38c0.15,0.1,0.33,0.19,0.53,0.26c0.2,0.07,0.42,0.15,0.65,0.22c0.28,0.08,0.56,0.18,0.84,0.29
		c0.28,0.11,0.54,0.25,0.77,0.42s0.42,0.4,0.56,0.66c0.15,0.26,0.22,0.6,0.22,1.01c0,0.42-0.08,0.79-0.24,1.1
		c-0.16,0.31-0.37,0.57-0.63,0.77c-0.26,0.2-0.56,0.35-0.9,0.45s-0.69,0.15-1.05,0.15c-0.51,0-1.01-0.1-1.49-0.3
		c-0.48-0.2-0.88-0.49-1.19-0.88l0.88-0.75c0.19,0.28,0.45,0.51,0.77,0.69c0.32,0.18,0.67,0.26,1.05,0.26
		c0.19,0,0.38-0.03,0.57-0.08c0.19-0.05,0.37-0.14,0.52-0.25c0.16-0.11,0.29-0.26,0.39-0.43c0.1-0.17,0.15-0.38,0.15-0.63
		s-0.05-0.45-0.16-0.62c-0.1-0.16-0.24-0.3-0.42-0.42s-0.38-0.21-0.61-0.29c-0.23-0.08-0.48-0.16-0.74-0.25
		c-0.26-0.08-0.52-0.17-0.77-0.28c-0.25-0.11-0.48-0.25-0.68-0.43c-0.2-0.17-0.36-0.38-0.48-0.64c-0.12-0.25-0.18-0.57-0.18-0.94
		c0-0.41,0.08-0.75,0.25-1.04c0.16-0.29,0.38-0.53,0.64-0.72c0.26-0.19,0.56-0.33,0.9-0.42c0.33-0.09,0.67-0.13,1.01-0.13
		c0.48,0,0.92,0.08,1.33,0.25c0.41,0.17,0.75,0.4,1,0.68L65.43,216.6z"/>
	<path class="st0" d="M71.45,219.17c-0.11-0.18-0.29-0.32-0.52-0.44c-0.23-0.12-0.48-0.18-0.74-0.18c-0.28,0-0.53,0.05-0.75,0.16
		c-0.22,0.11-0.4,0.25-0.56,0.43c-0.15,0.18-0.27,0.39-0.35,0.63c-0.08,0.24-0.12,0.49-0.12,0.75c0,0.26,0.04,0.51,0.12,0.75
		c0.08,0.24,0.2,0.45,0.35,0.63c0.15,0.18,0.34,0.32,0.56,0.43s0.48,0.16,0.76,0.16c0.28,0,0.53-0.05,0.75-0.16
		c0.23-0.11,0.41-0.25,0.56-0.44l0.72,0.65c-0.23,0.27-0.52,0.48-0.86,0.63c-0.34,0.15-0.74,0.22-1.17,0.22
		c-0.42,0-0.81-0.07-1.17-0.21c-0.36-0.14-0.66-0.33-0.92-0.58c-0.26-0.25-0.47-0.55-0.61-0.9c-0.15-0.35-0.22-0.75-0.22-1.18
		c0-0.43,0.07-0.82,0.22-1.17s0.35-0.65,0.61-0.91c0.26-0.25,0.57-0.45,0.92-0.59c0.36-0.14,0.74-0.21,1.15-0.21
		c0.38,0,0.76,0.08,1.14,0.23s0.68,0.38,0.9,0.67L71.45,219.17z"/>
	<path class="st0" d="M76.92,223.23c-0.02-0.14-0.03-0.29-0.03-0.47c-0.01-0.17-0.01-0.32-0.01-0.43h-0.02
		c-0.14,0.29-0.37,0.54-0.7,0.74s-0.69,0.3-1.09,0.3c-0.35,0-0.66-0.06-0.91-0.17c-0.26-0.11-0.47-0.27-0.63-0.48
		s-0.29-0.44-0.37-0.71c-0.08-0.27-0.12-0.56-0.12-0.86v-3.38h1.08v3.01c0,0.22,0.02,0.43,0.05,0.64c0.03,0.2,0.1,0.38,0.19,0.53
		c0.09,0.15,0.22,0.28,0.38,0.37c0.16,0.09,0.37,0.14,0.62,0.14c0.44,0,0.79-0.16,1.06-0.49c0.27-0.33,0.4-0.76,0.4-1.3v-2.9h1.08
		v4.27c0,0.15,0,0.33,0.01,0.56c0.01,0.23,0.02,0.43,0.03,0.61H76.92z"/>
	<path class="st0" d="M80.64,223.23h-1.08v-8.69h1.08V223.23z"/>
	<path class="st0" d="M83.37,225.99h-1.08v-8.2h1.06v0.85h0.03c0.18-0.29,0.43-0.53,0.77-0.72c0.34-0.19,0.74-0.28,1.19-0.28
		c0.4,0,0.77,0.07,1.11,0.22s0.62,0.35,0.86,0.61s0.43,0.57,0.56,0.91c0.13,0.35,0.2,0.72,0.2,1.12s-0.07,0.77-0.2,1.13
		s-0.31,0.66-0.55,0.92c-0.24,0.26-0.52,0.47-0.86,0.62c-0.34,0.15-0.71,0.22-1.13,0.22c-0.39,0-0.76-0.08-1.1-0.25
		c-0.34-0.17-0.62-0.41-0.81-0.71h-0.03V225.99z M86.96,220.5c0-0.25-0.04-0.5-0.11-0.74s-0.19-0.45-0.34-0.63
		c-0.15-0.18-0.34-0.33-0.57-0.44c-0.23-0.11-0.49-0.16-0.79-0.16c-0.28,0-0.53,0.05-0.75,0.16c-0.23,0.11-0.42,0.25-0.58,0.44
		c-0.16,0.18-0.29,0.4-0.37,0.63c-0.09,0.24-0.13,0.49-0.13,0.75c0,0.26,0.04,0.51,0.13,0.75c0.09,0.24,0.21,0.45,0.37,0.63
		c0.16,0.18,0.35,0.32,0.58,0.43c0.23,0.11,0.48,0.16,0.75,0.16c0.3,0,0.56-0.05,0.79-0.17s0.42-0.26,0.57-0.44s0.27-0.39,0.34-0.63
		S86.96,220.75,86.96,220.5z"/>
	<path class="st0" d="M92.01,218.67h-1.45v2.83c0,0.33,0.06,0.56,0.18,0.71c0.12,0.14,0.32,0.21,0.59,0.21
		c0.1,0,0.21-0.01,0.32-0.03c0.12-0.02,0.22-0.05,0.31-0.09l0.03,0.88c-0.13,0.05-0.27,0.08-0.43,0.11
		c-0.16,0.03-0.32,0.04-0.49,0.04c-0.51,0-0.91-0.14-1.18-0.42s-0.41-0.71-0.41-1.28v-2.95h-1.05v-0.88h1.05v-1.56h1.07v1.56h1.45
		V218.67z"/>
	<path class="st0" d="M94.16,215.82c0,0.2-0.07,0.36-0.21,0.49c-0.14,0.13-0.31,0.2-0.51,0.2c-0.2,0-0.36-0.07-0.5-0.2
		s-0.21-0.3-0.21-0.49c0-0.2,0.07-0.37,0.21-0.5s0.3-0.2,0.5-0.2c0.2,0,0.37,0.07,0.51,0.2S94.16,215.62,94.16,215.82z
		 M93.99,223.23h-1.08v-5.45h1.08V223.23z"/>
	<path class="st0" d="M96.62,217.79c0.02,0.14,0.03,0.29,0.03,0.46c0.01,0.17,0.01,0.32,0.01,0.43h0.03
		c0.07-0.15,0.16-0.28,0.28-0.41c0.12-0.13,0.25-0.24,0.41-0.33s0.32-0.17,0.51-0.22c0.18-0.05,0.38-0.08,0.57-0.08
		c0.35,0,0.66,0.06,0.91,0.18c0.25,0.12,0.46,0.28,0.63,0.48c0.17,0.2,0.29,0.43,0.37,0.7c0.08,0.27,0.12,0.56,0.12,0.86v3.38h-1.08
		v-3.02c0-0.22-0.02-0.43-0.05-0.63c-0.03-0.2-0.1-0.38-0.19-0.53s-0.22-0.28-0.38-0.37c-0.16-0.09-0.37-0.14-0.62-0.14
		c-0.43,0-0.78,0.16-1.05,0.49c-0.27,0.33-0.41,0.76-0.41,1.3v2.9h-1.08v-4.27c0-0.15,0-0.33-0.01-0.56
		c-0.01-0.23-0.02-0.43-0.03-0.61H96.62z"/>
	<path class="st0" d="M102.53,224.16c0.24,0.27,0.53,0.48,0.89,0.64c0.36,0.16,0.72,0.24,1.1,0.24c0.36,0,0.66-0.05,0.91-0.16
		s0.44-0.25,0.59-0.42c0.15-0.18,0.26-0.39,0.32-0.64c0.06-0.25,0.1-0.51,0.1-0.79v-0.7h-0.02c-0.2,0.31-0.47,0.54-0.82,0.7
		s-0.71,0.24-1.1,0.24c-0.41,0-0.79-0.07-1.13-0.22s-0.63-0.34-0.87-0.6s-0.42-0.55-0.55-0.89c-0.13-0.34-0.2-0.71-0.2-1.1
		s0.06-0.76,0.2-1.1c0.13-0.34,0.31-0.64,0.55-0.9s0.52-0.46,0.86-0.61s0.71-0.22,1.13-0.22c0.39,0,0.76,0.08,1.12,0.25
		c0.36,0.17,0.64,0.42,0.84,0.77h0.02v-0.87h1.05v5.17c0,0.4-0.05,0.78-0.15,1.14c-0.1,0.36-0.27,0.69-0.51,0.97
		c-0.24,0.28-0.55,0.5-0.93,0.67c-0.38,0.17-0.86,0.25-1.43,0.25c-0.47,0-0.95-0.09-1.43-0.26c-0.48-0.17-0.89-0.42-1.24-0.73
		L102.53,224.16z M102.85,220.45c0,0.25,0.04,0.49,0.12,0.72c0.08,0.23,0.2,0.43,0.36,0.61c0.16,0.18,0.35,0.32,0.57,0.43
		c0.22,0.11,0.48,0.16,0.76,0.16c0.28,0,0.53-0.05,0.76-0.15s0.43-0.24,0.59-0.41c0.16-0.17,0.29-0.38,0.37-0.61
		c0.09-0.23,0.13-0.48,0.13-0.75c0-0.26-0.04-0.51-0.13-0.74c-0.09-0.23-0.22-0.43-0.38-0.61s-0.36-0.32-0.59-0.42
		c-0.23-0.1-0.48-0.15-0.75-0.15c-0.28,0-0.54,0.05-0.76,0.15c-0.22,0.1-0.41,0.24-0.57,0.41c-0.16,0.17-0.28,0.38-0.36,0.61
		C102.89,219.95,102.85,220.19,102.85,220.45z"/>
	<path class="st0" d="M109.03,217.57c0-0.36,0.07-0.7,0.21-1.02c0.14-0.32,0.33-0.59,0.56-0.83c0.24-0.23,0.52-0.42,0.83-0.56
		s0.66-0.21,1.02-0.21c0.36,0,0.7,0.07,1.02,0.21s0.6,0.32,0.83,0.56c0.24,0.23,0.42,0.51,0.56,0.83c0.14,0.32,0.21,0.66,0.21,1.02
		c0,0.36-0.07,0.7-0.21,1.01c-0.14,0.31-0.33,0.59-0.56,0.82c-0.24,0.23-0.52,0.42-0.83,0.55s-0.66,0.2-1.02,0.2
		c-0.36,0-0.7-0.07-1.02-0.2s-0.6-0.32-0.83-0.55s-0.43-0.51-0.56-0.82C109.1,218.27,109.03,217.93,109.03,217.57z M109.44,217.57
		c0,0.3,0.06,0.58,0.17,0.85c0.11,0.27,0.27,0.5,0.47,0.71c0.2,0.2,0.43,0.36,0.7,0.48c0.27,0.11,0.56,0.17,0.86,0.17
		c0.31,0,0.59-0.06,0.86-0.17c0.27-0.12,0.5-0.27,0.7-0.48c0.2-0.2,0.36-0.44,0.47-0.71s0.17-0.55,0.17-0.85
		c0-0.31-0.06-0.59-0.17-0.86c-0.11-0.27-0.27-0.5-0.47-0.7s-0.43-0.36-0.7-0.47c-0.27-0.12-0.56-0.17-0.86-0.17
		c-0.31,0-0.59,0.06-0.86,0.17c-0.27,0.11-0.5,0.27-0.7,0.47s-0.36,0.43-0.47,0.7C109.5,216.97,109.44,217.26,109.44,217.57z
		 M112.28,219l-0.63-1.14h-0.41V219h-0.7v-2.94h1.26c0.14,0,0.27,0.02,0.4,0.05s0.25,0.08,0.36,0.15c0.11,0.07,0.19,0.16,0.26,0.28
		c0.07,0.12,0.1,0.27,0.1,0.44c0,0.2-0.06,0.36-0.17,0.49c-0.11,0.13-0.25,0.23-0.42,0.29l0.78,1.24H112.28z M111.78,217.36
		c0.11,0,0.2-0.03,0.29-0.1c0.09-0.07,0.13-0.16,0.13-0.28c0-0.12-0.05-0.21-0.15-0.26c-0.1-0.05-0.19-0.08-0.28-0.08h-0.54v0.72
		H111.78z"/>
	<path class="st0" d="M119.71,215.82c0,0.2-0.07,0.36-0.21,0.49c-0.14,0.13-0.31,0.2-0.51,0.2c-0.2,0-0.36-0.07-0.5-0.2
		s-0.21-0.3-0.21-0.49c0-0.2,0.07-0.37,0.21-0.5s0.3-0.2,0.5-0.2c0.2,0,0.37,0.07,0.51,0.2S119.71,215.62,119.71,215.82z
		 M119.53,223.23h-1.08v-5.45h1.08V223.23z"/>
	<path class="st0" d="M124.13,219.17c-0.12-0.2-0.3-0.36-0.52-0.49c-0.22-0.13-0.47-0.19-0.75-0.19c-0.12,0-0.25,0.01-0.37,0.04
		c-0.12,0.03-0.23,0.07-0.33,0.13s-0.17,0.13-0.23,0.22c-0.06,0.09-0.09,0.2-0.09,0.33c0,0.23,0.1,0.4,0.31,0.51
		c0.21,0.11,0.52,0.21,0.93,0.3c0.26,0.06,0.5,0.13,0.72,0.22s0.42,0.19,0.58,0.32c0.16,0.13,0.29,0.28,0.38,0.45
		c0.09,0.18,0.14,0.38,0.14,0.62c0,0.32-0.06,0.59-0.18,0.82c-0.12,0.22-0.29,0.4-0.49,0.55c-0.2,0.14-0.44,0.24-0.7,0.3
		c-0.26,0.06-0.53,0.09-0.8,0.09c-0.41,0-0.82-0.08-1.21-0.24s-0.72-0.41-0.98-0.74l0.77-0.66c0.15,0.21,0.35,0.39,0.6,0.54
		c0.26,0.15,0.54,0.22,0.84,0.22c0.14,0,0.27-0.01,0.4-0.04c0.13-0.03,0.24-0.07,0.34-0.13c0.1-0.06,0.19-0.14,0.25-0.24
		c0.06-0.1,0.09-0.23,0.09-0.38c0-0.25-0.12-0.44-0.36-0.56c-0.24-0.12-0.6-0.24-1.06-0.34c-0.18-0.05-0.37-0.1-0.56-0.17
		c-0.19-0.07-0.36-0.16-0.51-0.27c-0.15-0.11-0.28-0.26-0.37-0.43c-0.1-0.17-0.14-0.38-0.14-0.64c0-0.29,0.06-0.54,0.18-0.75
		c0.12-0.21,0.27-0.38,0.47-0.52s0.41-0.23,0.65-0.3s0.5-0.1,0.76-0.1c0.39,0,0.77,0.08,1.13,0.23c0.36,0.15,0.65,0.38,0.84,0.67
		L124.13,219.17z"/>
	<path class="st0" d="M131.37,218.67h-1.45v2.83c0,0.33,0.06,0.56,0.18,0.71c0.12,0.14,0.32,0.21,0.59,0.21
		c0.1,0,0.21-0.01,0.32-0.03c0.12-0.02,0.22-0.05,0.31-0.09l0.03,0.88c-0.13,0.05-0.27,0.08-0.43,0.11
		c-0.16,0.03-0.32,0.04-0.49,0.04c-0.51,0-0.91-0.14-1.18-0.42s-0.41-0.71-0.41-1.28v-2.95h-1.05v-0.88h1.05v-1.56h1.07v1.56h1.45
		V218.67z"/>
	<path class="st0" d="M133.38,218.61c0.13-0.27,0.35-0.5,0.67-0.69s0.67-0.29,1.06-0.29c0.35,0,0.66,0.06,0.91,0.18
		c0.25,0.12,0.46,0.28,0.63,0.48c0.17,0.2,0.29,0.43,0.37,0.7c0.08,0.27,0.12,0.56,0.12,0.86v3.38h-1.08v-3.02
		c0-0.22-0.02-0.43-0.05-0.63c-0.03-0.2-0.1-0.38-0.19-0.53c-0.09-0.15-0.22-0.28-0.37-0.37c-0.16-0.09-0.36-0.14-0.61-0.14
		c-0.43,0-0.78,0.16-1.06,0.49c-0.28,0.33-0.41,0.76-0.41,1.31v2.89h-1.08v-8.69h1.08v4.07H133.38z"/>
	<path class="st0" d="M143.82,220.46c0,0.06,0,0.12,0,0.18c0,0.06,0,0.12-0.01,0.18h-4.33c0.01,0.23,0.06,0.44,0.15,0.64
		s0.22,0.38,0.39,0.53c0.16,0.15,0.35,0.26,0.56,0.35c0.21,0.08,0.43,0.12,0.67,0.12c0.37,0,0.69-0.08,0.95-0.24
		c0.27-0.16,0.48-0.36,0.63-0.59l0.76,0.61c-0.29,0.39-0.63,0.67-1.03,0.85s-0.83,0.27-1.32,0.27c-0.41,0-0.8-0.07-1.15-0.21
		c-0.35-0.14-0.66-0.33-0.91-0.58c-0.25-0.25-0.45-0.55-0.6-0.9c-0.15-0.35-0.22-0.74-0.22-1.17c0-0.42,0.07-0.81,0.21-1.17
		s0.34-0.66,0.59-0.91c0.25-0.25,0.55-0.45,0.9-0.59c0.35-0.14,0.72-0.21,1.12-0.21c0.4,0,0.76,0.07,1.09,0.2
		c0.33,0.13,0.6,0.32,0.83,0.56s0.4,0.54,0.52,0.89C143.76,219.63,143.82,220.03,143.82,220.46z M142.72,220.03
		c-0.01-0.21-0.04-0.42-0.11-0.6c-0.06-0.19-0.16-0.35-0.29-0.49c-0.13-0.14-0.28-0.25-0.47-0.33c-0.19-0.08-0.41-0.12-0.66-0.12
		c-0.23,0-0.45,0.04-0.65,0.12c-0.2,0.08-0.38,0.19-0.53,0.33c-0.15,0.14-0.27,0.3-0.37,0.49c-0.1,0.19-0.15,0.39-0.17,0.6H142.72z"
		/>
	<path class="st0" d="M150.4,218.67h-1.45v2.83c0,0.33,0.06,0.56,0.18,0.71c0.12,0.14,0.32,0.21,0.59,0.21
		c0.1,0,0.21-0.01,0.32-0.03c0.12-0.02,0.22-0.05,0.31-0.09l0.03,0.88c-0.13,0.05-0.27,0.08-0.43,0.11
		c-0.16,0.03-0.32,0.04-0.49,0.04c-0.51,0-0.91-0.14-1.18-0.42s-0.41-0.71-0.41-1.28v-2.95h-1.05v-0.88h1.05v-1.56h1.07v1.56h1.45
		V218.67z"/>
	<path class="st0" d="M151.27,218.4c-0.01-0.23-0.02-0.43-0.03-0.61h1.02c0.02,0.14,0.03,0.3,0.03,0.48
		c0.01,0.18,0.01,0.33,0.01,0.44h0.03c0.15-0.32,0.38-0.58,0.67-0.78s0.63-0.29,0.99-0.29c0.17,0,0.31,0.02,0.43,0.05l-0.05,1
		c-0.15-0.04-0.32-0.06-0.49-0.06c-0.26,0-0.49,0.05-0.68,0.14c-0.19,0.1-0.35,0.22-0.48,0.38s-0.22,0.35-0.28,0.56
		c-0.06,0.21-0.09,0.43-0.09,0.66v2.86h-1.08v-4.27C151.28,218.81,151.28,218.63,151.27,218.4z"/>
	<path class="st0" d="M160.09,220.46c0,0.06,0,0.12,0,0.18c0,0.06,0,0.12-0.01,0.18h-4.33c0.01,0.23,0.06,0.44,0.15,0.64
		s0.22,0.38,0.39,0.53c0.16,0.15,0.35,0.26,0.56,0.35c0.21,0.08,0.43,0.12,0.67,0.12c0.37,0,0.69-0.08,0.95-0.24
		c0.27-0.16,0.48-0.36,0.63-0.59l0.76,0.61c-0.29,0.39-0.63,0.67-1.03,0.85s-0.83,0.27-1.32,0.27c-0.41,0-0.8-0.07-1.15-0.21
		c-0.35-0.14-0.66-0.33-0.91-0.58c-0.25-0.25-0.45-0.55-0.6-0.9c-0.15-0.35-0.22-0.74-0.22-1.17c0-0.42,0.07-0.81,0.21-1.17
		s0.34-0.66,0.59-0.91c0.25-0.25,0.55-0.45,0.9-0.59c0.35-0.14,0.72-0.21,1.12-0.21c0.4,0,0.76,0.07,1.09,0.2
		c0.33,0.13,0.6,0.32,0.83,0.56s0.4,0.54,0.52,0.89C160.03,219.63,160.09,220.03,160.09,220.46z M158.99,220.03
		c-0.01-0.21-0.04-0.42-0.11-0.6c-0.06-0.19-0.16-0.35-0.29-0.49c-0.13-0.14-0.28-0.25-0.47-0.33c-0.19-0.08-0.41-0.12-0.66-0.12
		c-0.23,0-0.45,0.04-0.65,0.12c-0.2,0.08-0.38,0.19-0.53,0.33c-0.15,0.14-0.27,0.3-0.37,0.49c-0.1,0.19-0.15,0.39-0.17,0.6H158.99z"
		/>
	<path class="st0" d="M164.68,219.71c0-0.41-0.12-0.71-0.37-0.9s-0.57-0.29-0.98-0.29c-0.31,0-0.6,0.06-0.87,0.18
		c-0.27,0.12-0.5,0.27-0.68,0.45l-0.57-0.69c0.27-0.25,0.6-0.45,0.98-0.6s0.8-0.22,1.25-0.22c0.39,0,0.73,0.06,1.02,0.17
		c0.29,0.11,0.52,0.26,0.71,0.45c0.18,0.19,0.32,0.42,0.41,0.68c0.09,0.26,0.14,0.54,0.14,0.84v2.38c0,0.18,0.01,0.38,0.02,0.58
		c0.01,0.2,0.03,0.37,0.06,0.5h-0.98c-0.06-0.26-0.09-0.52-0.09-0.78h-0.03c-0.2,0.29-0.45,0.52-0.75,0.68
		c-0.3,0.16-0.66,0.24-1.07,0.24c-0.21,0-0.44-0.03-0.67-0.09c-0.23-0.06-0.45-0.15-0.64-0.28c-0.19-0.13-0.35-0.3-0.48-0.52
		c-0.13-0.21-0.19-0.48-0.19-0.79c0-0.41,0.11-0.74,0.33-0.98s0.51-0.42,0.87-0.55c0.36-0.13,0.77-0.21,1.22-0.25
		c0.45-0.04,0.91-0.06,1.37-0.06V219.71z M164.41,220.64c-0.27,0-0.55,0.01-0.83,0.03c-0.29,0.02-0.55,0.07-0.78,0.14
		c-0.23,0.07-0.43,0.17-0.58,0.31s-0.23,0.32-0.23,0.55c0,0.16,0.03,0.29,0.1,0.4c0.06,0.11,0.15,0.2,0.26,0.26
		c0.11,0.07,0.23,0.12,0.36,0.14c0.13,0.03,0.26,0.04,0.4,0.04c0.51,0,0.89-0.15,1.17-0.45s0.41-0.68,0.41-1.14v-0.29H164.41z"/>
	<path class="st0" d="M169.84,218.67h-1.45v2.83c0,0.33,0.06,0.56,0.18,0.71c0.12,0.14,0.32,0.21,0.59,0.21
		c0.1,0,0.21-0.01,0.32-0.03c0.12-0.02,0.22-0.05,0.31-0.09l0.03,0.88c-0.13,0.05-0.27,0.08-0.43,0.11
		c-0.16,0.03-0.32,0.04-0.49,0.04c-0.51,0-0.91-0.14-1.18-0.42s-0.41-0.71-0.41-1.28v-2.95h-1.05v-0.88h1.05v-1.56h1.07v1.56h1.45
		V218.67z"/>
	<path class="st0" d="M172.44,217.94c0.3-0.2,0.66-0.3,1.07-0.3c0.37,0,0.7,0.08,0.99,0.25c0.29,0.17,0.53,0.45,0.7,0.84
		c0.18-0.35,0.44-0.62,0.77-0.81c0.33-0.19,0.69-0.28,1.08-0.28c0.35,0,0.65,0.06,0.91,0.18c0.25,0.12,0.46,0.28,0.63,0.48
		c0.17,0.2,0.29,0.43,0.37,0.7c0.08,0.27,0.12,0.56,0.12,0.86v3.38h-1.08v-3.02c0-0.22-0.02-0.43-0.06-0.63
		c-0.04-0.2-0.1-0.38-0.2-0.53s-0.21-0.28-0.37-0.37c-0.15-0.09-0.35-0.14-0.59-0.14c-0.25,0-0.46,0.05-0.63,0.16
		c-0.18,0.1-0.32,0.24-0.43,0.4s-0.19,0.35-0.24,0.56c-0.05,0.21-0.07,0.42-0.07,0.63v2.94h-1.08v-3.24c0-0.21-0.02-0.41-0.06-0.59
		c-0.04-0.18-0.1-0.33-0.2-0.45c-0.09-0.13-0.21-0.23-0.36-0.3c-0.15-0.07-0.33-0.11-0.54-0.11c-0.4,0-0.73,0.16-0.99,0.49
		c-0.26,0.33-0.4,0.76-0.4,1.3v2.9h-1.08v-4.27c0-0.15,0-0.33-0.01-0.56c-0.01-0.23-0.02-0.43-0.03-0.61h1.02
		c0.02,0.14,0.03,0.29,0.03,0.46c0.01,0.17,0.01,0.32,0.01,0.43h0.03C171.92,218.39,172.14,218.15,172.44,217.94z"/>
	<path class="st0" d="M185.77,220.46c0,0.06,0,0.12,0,0.18c0,0.06,0,0.12-0.01,0.18h-4.33c0.01,0.23,0.06,0.44,0.15,0.64
		s0.22,0.38,0.39,0.53c0.16,0.15,0.35,0.26,0.56,0.35c0.21,0.08,0.43,0.12,0.67,0.12c0.37,0,0.69-0.08,0.95-0.24
		c0.27-0.16,0.48-0.36,0.63-0.59l0.76,0.61c-0.29,0.39-0.63,0.67-1.03,0.85s-0.83,0.27-1.32,0.27c-0.41,0-0.8-0.07-1.15-0.21
		c-0.35-0.14-0.66-0.33-0.91-0.58c-0.25-0.25-0.45-0.55-0.6-0.9c-0.15-0.35-0.22-0.74-0.22-1.17c0-0.42,0.07-0.81,0.21-1.17
		s0.34-0.66,0.59-0.91c0.25-0.25,0.55-0.45,0.9-0.59c0.35-0.14,0.72-0.21,1.12-0.21c0.4,0,0.76,0.07,1.09,0.2
		c0.33,0.13,0.6,0.32,0.83,0.56s0.4,0.54,0.52,0.89C185.71,219.63,185.77,220.03,185.77,220.46z M184.67,220.03
		c-0.01-0.21-0.04-0.42-0.11-0.6c-0.06-0.19-0.16-0.35-0.29-0.49c-0.13-0.14-0.28-0.25-0.47-0.33c-0.19-0.08-0.41-0.12-0.66-0.12
		c-0.23,0-0.45,0.04-0.65,0.12c-0.2,0.08-0.38,0.19-0.53,0.33c-0.15,0.14-0.27,0.3-0.37,0.49c-0.1,0.19-0.15,0.39-0.17,0.6H184.67z"
		/>
	<path class="st0" d="M188.02,217.79c0.02,0.14,0.03,0.29,0.03,0.46c0.01,0.17,0.01,0.32,0.01,0.43h0.03
		c0.07-0.15,0.16-0.28,0.28-0.41c0.12-0.13,0.25-0.24,0.41-0.33s0.32-0.17,0.51-0.22c0.18-0.05,0.38-0.08,0.57-0.08
		c0.35,0,0.66,0.06,0.91,0.18c0.25,0.12,0.46,0.28,0.63,0.48c0.17,0.2,0.29,0.43,0.37,0.7c0.08,0.27,0.12,0.56,0.12,0.86v3.38h-1.08
		v-3.02c0-0.22-0.02-0.43-0.05-0.63c-0.03-0.2-0.1-0.38-0.19-0.53s-0.22-0.28-0.38-0.37c-0.16-0.09-0.37-0.14-0.62-0.14
		c-0.43,0-0.78,0.16-1.05,0.49c-0.27,0.33-0.41,0.76-0.41,1.3v2.9h-1.08v-4.27c0-0.15,0-0.33-0.01-0.56
		c-0.01-0.23-0.02-0.43-0.03-0.61H188.02z"/>
	<path class="st0" d="M196.16,218.67h-1.45v2.83c0,0.33,0.06,0.56,0.18,0.71c0.12,0.14,0.32,0.21,0.59,0.21
		c0.1,0,0.21-0.01,0.32-0.03c0.12-0.02,0.22-0.05,0.31-0.09l0.03,0.88c-0.13,0.05-0.27,0.08-0.43,0.11
		c-0.16,0.03-0.32,0.04-0.49,0.04c-0.51,0-0.91-0.14-1.18-0.42s-0.41-0.71-0.41-1.28v-2.95h-1.05v-0.88h1.05v-1.56h1.07v1.56h1.45
		V218.67z"/>
	<path class="st0" d="M204.03,222.37c-0.21,0.33-0.49,0.58-0.84,0.75c-0.36,0.17-0.73,0.26-1.12,0.26c-0.42,0-0.8-0.08-1.14-0.22
		c-0.34-0.15-0.62-0.35-0.86-0.62c-0.24-0.26-0.42-0.57-0.55-0.92s-0.2-0.73-0.2-1.13s0.06-0.77,0.2-1.12
		c0.13-0.35,0.32-0.65,0.56-0.91c0.24-0.26,0.53-0.46,0.87-0.61s0.71-0.22,1.11-0.22c0.44,0,0.83,0.09,1.16,0.28
		c0.33,0.19,0.59,0.42,0.78,0.68h0.02v-4.06h1.08v8.69h-1.05v-0.86H204.03z M200.45,220.5c0,0.25,0.04,0.5,0.12,0.73
		c0.08,0.24,0.19,0.45,0.34,0.63c0.15,0.18,0.34,0.33,0.56,0.44c0.22,0.11,0.48,0.17,0.78,0.17c0.28,0,0.53-0.05,0.75-0.16
		c0.23-0.11,0.42-0.25,0.58-0.43c0.16-0.18,0.29-0.39,0.37-0.62c0.09-0.24,0.13-0.49,0.13-0.75s-0.04-0.51-0.13-0.74
		c-0.09-0.24-0.21-0.45-0.37-0.63c-0.16-0.18-0.35-0.33-0.58-0.44c-0.23-0.11-0.48-0.16-0.75-0.16c-0.3,0-0.56,0.05-0.78,0.16
		c-0.22,0.11-0.41,0.25-0.56,0.44c-0.15,0.18-0.27,0.39-0.34,0.63C200.49,220.01,200.45,220.25,200.45,220.5z"/>
	<path class="st0" d="M212.27,220.5c0,0.42-0.07,0.81-0.22,1.16s-0.36,0.66-0.62,0.91c-0.26,0.26-0.58,0.46-0.94,0.6
		c-0.36,0.14-0.75,0.21-1.16,0.21c-0.41,0-0.8-0.07-1.16-0.21c-0.36-0.14-0.67-0.34-0.93-0.6c-0.26-0.26-0.47-0.56-0.61-0.91
		c-0.15-0.35-0.22-0.74-0.22-1.16c0-0.42,0.07-0.81,0.22-1.16c0.15-0.35,0.35-0.65,0.61-0.9c0.26-0.25,0.57-0.45,0.93-0.59
		c0.36-0.14,0.75-0.21,1.16-0.21c0.41,0,0.8,0.07,1.16,0.21c0.36,0.14,0.67,0.34,0.94,0.59c0.26,0.25,0.47,0.55,0.62,0.9
		S212.27,220.08,212.27,220.5z M211.15,220.5c0-0.26-0.04-0.51-0.12-0.74c-0.08-0.24-0.2-0.45-0.35-0.62
		c-0.15-0.18-0.34-0.32-0.57-0.43c-0.23-0.11-0.49-0.16-0.78-0.16c-0.29,0-0.55,0.05-0.78,0.16c-0.23,0.11-0.42,0.25-0.57,0.43
		c-0.15,0.18-0.27,0.39-0.35,0.62c-0.08,0.24-0.12,0.49-0.12,0.74c0,0.26,0.04,0.51,0.12,0.75c0.08,0.24,0.2,0.45,0.35,0.63
		c0.15,0.18,0.34,0.33,0.57,0.44c0.23,0.11,0.49,0.16,0.78,0.16c0.29,0,0.55-0.05,0.78-0.16c0.23-0.11,0.42-0.25,0.57-0.44
		c0.15-0.18,0.27-0.39,0.35-0.63C211.11,221.01,211.15,220.76,211.15,220.5z"/>
	<path class="st0" d="M217.35,219.17c-0.11-0.18-0.29-0.32-0.52-0.44c-0.23-0.12-0.48-0.18-0.74-0.18c-0.28,0-0.53,0.05-0.75,0.16
		c-0.22,0.11-0.4,0.25-0.56,0.43c-0.15,0.18-0.27,0.39-0.35,0.63c-0.08,0.24-0.12,0.49-0.12,0.75c0,0.26,0.04,0.51,0.12,0.75
		c0.08,0.24,0.2,0.45,0.35,0.63c0.15,0.18,0.34,0.32,0.56,0.43s0.48,0.16,0.76,0.16c0.28,0,0.53-0.05,0.75-0.16
		c0.23-0.11,0.41-0.25,0.56-0.44l0.72,0.65c-0.23,0.27-0.52,0.48-0.86,0.63c-0.34,0.15-0.74,0.22-1.17,0.22
		c-0.42,0-0.81-0.07-1.17-0.21c-0.36-0.14-0.66-0.33-0.92-0.58c-0.26-0.25-0.47-0.55-0.61-0.9c-0.15-0.35-0.22-0.75-0.22-1.18
		c0-0.43,0.07-0.82,0.22-1.17s0.35-0.65,0.61-0.91c0.26-0.25,0.57-0.45,0.92-0.59c0.36-0.14,0.74-0.21,1.15-0.21
		c0.38,0,0.76,0.08,1.14,0.23s0.68,0.38,0.9,0.67L217.35,219.17z"/>
	<path class="st0" d="M221.65,218.67h-1.45v2.83c0,0.33,0.06,0.56,0.18,0.71c0.12,0.14,0.32,0.21,0.59,0.21
		c0.1,0,0.21-0.01,0.32-0.03c0.12-0.02,0.22-0.05,0.31-0.09l0.03,0.88c-0.13,0.05-0.27,0.08-0.43,0.11
		c-0.16,0.03-0.32,0.04-0.49,0.04c-0.51,0-0.91-0.14-1.18-0.42s-0.41-0.71-0.41-1.28v-2.95h-1.05v-0.88h1.05v-1.56h1.07v1.56h1.45
		V218.67z"/>
	<path class="st0" d="M228.05,220.5c0,0.42-0.07,0.81-0.22,1.16s-0.36,0.66-0.62,0.91c-0.26,0.26-0.58,0.46-0.94,0.6
		c-0.36,0.14-0.75,0.21-1.16,0.21c-0.41,0-0.8-0.07-1.16-0.21c-0.36-0.14-0.67-0.34-0.93-0.6c-0.26-0.26-0.47-0.56-0.61-0.91
		c-0.15-0.35-0.22-0.74-0.22-1.16c0-0.42,0.07-0.81,0.22-1.16c0.15-0.35,0.35-0.65,0.61-0.9c0.26-0.25,0.57-0.45,0.93-0.59
		c0.36-0.14,0.75-0.21,1.16-0.21c0.41,0,0.8,0.07,1.16,0.21c0.36,0.14,0.67,0.34,0.94,0.59c0.26,0.25,0.47,0.55,0.62,0.9
		S228.05,220.08,228.05,220.5z M226.92,220.5c0-0.26-0.04-0.51-0.12-0.74c-0.08-0.24-0.2-0.45-0.35-0.62
		c-0.15-0.18-0.34-0.32-0.57-0.43c-0.23-0.11-0.49-0.16-0.78-0.16c-0.29,0-0.55,0.05-0.78,0.16c-0.23,0.11-0.42,0.25-0.57,0.43
		c-0.15,0.18-0.27,0.39-0.35,0.62c-0.08,0.24-0.12,0.49-0.12,0.74c0,0.26,0.04,0.51,0.12,0.75c0.08,0.24,0.2,0.45,0.35,0.63
		c0.15,0.18,0.34,0.33,0.57,0.44c0.23,0.11,0.49,0.16,0.78,0.16c0.29,0,0.55-0.05,0.78-0.16c0.23-0.11,0.42-0.25,0.57-0.44
		c0.15-0.18,0.27-0.39,0.35-0.63C226.88,221.01,226.92,220.76,226.92,220.5z"/>
	<path class="st0" d="M229.3,218.4c-0.01-0.23-0.02-0.43-0.03-0.61h1.02c0.02,0.14,0.03,0.3,0.03,0.48
		c0.01,0.18,0.01,0.33,0.01,0.44h0.03c0.15-0.32,0.38-0.58,0.67-0.78s0.63-0.29,0.99-0.29c0.17,0,0.31,0.02,0.43,0.05l-0.05,1
		c-0.15-0.04-0.32-0.06-0.49-0.06c-0.26,0-0.49,0.05-0.68,0.14c-0.19,0.1-0.35,0.22-0.48,0.38s-0.22,0.35-0.28,0.56
		c-0.06,0.21-0.09,0.43-0.09,0.66v2.86h-1.08v-4.27C229.31,218.81,229.31,218.63,229.3,218.4z"/>
	<path class="st0" d="M236.18,219.17c-0.12-0.2-0.3-0.36-0.52-0.49c-0.22-0.13-0.47-0.19-0.75-0.19c-0.12,0-0.25,0.01-0.37,0.04
		c-0.12,0.03-0.23,0.07-0.33,0.13s-0.17,0.13-0.23,0.22c-0.06,0.09-0.09,0.2-0.09,0.33c0,0.23,0.1,0.4,0.31,0.51
		c0.21,0.11,0.52,0.21,0.93,0.3c0.26,0.06,0.5,0.13,0.72,0.22s0.42,0.19,0.58,0.32c0.16,0.13,0.29,0.28,0.38,0.45
		c0.09,0.18,0.14,0.38,0.14,0.62c0,0.32-0.06,0.59-0.18,0.82c-0.12,0.22-0.29,0.4-0.49,0.55c-0.2,0.14-0.44,0.24-0.7,0.3
		c-0.26,0.06-0.53,0.09-0.8,0.09c-0.41,0-0.82-0.08-1.21-0.24s-0.72-0.41-0.98-0.74l0.77-0.66c0.15,0.21,0.35,0.39,0.6,0.54
		c0.26,0.15,0.54,0.22,0.84,0.22c0.14,0,0.27-0.01,0.4-0.04c0.13-0.03,0.24-0.07,0.34-0.13c0.1-0.06,0.19-0.14,0.25-0.24
		c0.06-0.1,0.09-0.23,0.09-0.38c0-0.25-0.12-0.44-0.36-0.56c-0.24-0.12-0.6-0.24-1.06-0.34c-0.18-0.05-0.37-0.1-0.56-0.17
		c-0.19-0.07-0.36-0.16-0.51-0.27c-0.15-0.11-0.28-0.26-0.37-0.43c-0.1-0.17-0.14-0.38-0.14-0.64c0-0.29,0.06-0.54,0.18-0.75
		c0.12-0.21,0.27-0.38,0.47-0.52s0.41-0.23,0.65-0.3s0.5-0.1,0.76-0.1c0.39,0,0.77,0.08,1.13,0.23c0.36,0.15,0.65,0.38,0.84,0.67
		L236.18,219.17z"/>
	<path class="st0" d="M244.59,223.23c-0.02-0.14-0.03-0.29-0.03-0.47c-0.01-0.17-0.01-0.32-0.01-0.43h-0.02
		c-0.14,0.29-0.37,0.54-0.7,0.74s-0.69,0.3-1.09,0.3c-0.35,0-0.66-0.06-0.91-0.17c-0.26-0.11-0.47-0.27-0.63-0.48
		s-0.29-0.44-0.37-0.71c-0.08-0.27-0.12-0.56-0.12-0.86v-3.38h1.08v3.01c0,0.22,0.02,0.43,0.05,0.64c0.03,0.2,0.1,0.38,0.19,0.53
		c0.09,0.15,0.22,0.28,0.38,0.37c0.16,0.09,0.37,0.14,0.62,0.14c0.44,0,0.79-0.16,1.06-0.49c0.27-0.33,0.4-0.76,0.4-1.3v-2.9h1.08
		v4.27c0,0.15,0,0.33,0.01,0.56c0.01,0.23,0.02,0.43,0.03,0.61H244.59z"/>
	<path class="st0" d="M250.16,219.17c-0.12-0.2-0.3-0.36-0.52-0.49c-0.22-0.13-0.47-0.19-0.75-0.19c-0.12,0-0.25,0.01-0.37,0.04
		c-0.12,0.03-0.23,0.07-0.33,0.13s-0.17,0.13-0.23,0.22c-0.06,0.09-0.09,0.2-0.09,0.33c0,0.23,0.1,0.4,0.31,0.51
		c0.21,0.11,0.52,0.21,0.93,0.3c0.26,0.06,0.5,0.13,0.72,0.22s0.42,0.19,0.58,0.32c0.16,0.13,0.29,0.28,0.38,0.45
		c0.09,0.18,0.14,0.38,0.14,0.62c0,0.32-0.06,0.59-0.18,0.82c-0.12,0.22-0.29,0.4-0.49,0.55c-0.2,0.14-0.44,0.24-0.7,0.3
		c-0.26,0.06-0.53,0.09-0.8,0.09c-0.41,0-0.82-0.08-1.21-0.24s-0.72-0.41-0.98-0.74l0.77-0.66c0.15,0.21,0.35,0.39,0.6,0.54
		c0.26,0.15,0.54,0.22,0.84,0.22c0.14,0,0.27-0.01,0.4-0.04c0.13-0.03,0.24-0.07,0.34-0.13c0.1-0.06,0.19-0.14,0.25-0.24
		c0.06-0.1,0.09-0.23,0.09-0.38c0-0.25-0.12-0.44-0.36-0.56c-0.24-0.12-0.6-0.24-1.06-0.34c-0.18-0.05-0.37-0.1-0.56-0.17
		c-0.19-0.07-0.36-0.16-0.51-0.27c-0.15-0.11-0.28-0.26-0.37-0.43c-0.1-0.17-0.14-0.38-0.14-0.64c0-0.29,0.06-0.54,0.18-0.75
		c0.12-0.21,0.27-0.38,0.47-0.52s0.41-0.23,0.65-0.3s0.5-0.1,0.76-0.1c0.39,0,0.77,0.08,1.13,0.23c0.36,0.15,0.65,0.38,0.84,0.67
		L250.16,219.17z"/>
	<path class="st0" d="M257.18,220.46c0,0.06,0,0.12,0,0.18c0,0.06,0,0.12-0.01,0.18h-4.33c0.01,0.23,0.06,0.44,0.15,0.64
		s0.22,0.38,0.39,0.53c0.16,0.15,0.35,0.26,0.56,0.35c0.21,0.08,0.43,0.12,0.67,0.12c0.37,0,0.69-0.08,0.95-0.24
		c0.27-0.16,0.48-0.36,0.63-0.59l0.76,0.61c-0.29,0.39-0.63,0.67-1.03,0.85s-0.83,0.27-1.32,0.27c-0.41,0-0.8-0.07-1.15-0.21
		c-0.35-0.14-0.66-0.33-0.91-0.58c-0.25-0.25-0.45-0.55-0.6-0.9c-0.15-0.35-0.22-0.74-0.22-1.17c0-0.42,0.07-0.81,0.21-1.17
		s0.34-0.66,0.59-0.91c0.25-0.25,0.55-0.45,0.9-0.59c0.35-0.14,0.72-0.21,1.12-0.21c0.4,0,0.76,0.07,1.09,0.2
		c0.33,0.13,0.6,0.32,0.83,0.56s0.4,0.54,0.52,0.89C257.11,219.63,257.18,220.03,257.18,220.46z M256.07,220.03
		c-0.01-0.21-0.04-0.42-0.11-0.6c-0.06-0.19-0.16-0.35-0.29-0.49c-0.13-0.14-0.28-0.25-0.47-0.33c-0.19-0.08-0.41-0.12-0.66-0.12
		c-0.23,0-0.45,0.04-0.65,0.12c-0.2,0.08-0.38,0.19-0.53,0.33c-0.15,0.14-0.27,0.3-0.37,0.49c-0.1,0.19-0.15,0.39-0.17,0.6H256.07z"
		/>
	<path class="st0" d="M262.8,217.94c0.3-0.2,0.66-0.3,1.07-0.3c0.37,0,0.7,0.08,0.99,0.25c0.29,0.17,0.53,0.45,0.7,0.84
		c0.18-0.35,0.44-0.62,0.77-0.81c0.33-0.19,0.69-0.28,1.08-0.28c0.35,0,0.65,0.06,0.91,0.18c0.25,0.12,0.46,0.28,0.63,0.48
		c0.17,0.2,0.29,0.43,0.37,0.7c0.08,0.27,0.12,0.56,0.12,0.86v3.38h-1.08v-3.02c0-0.22-0.02-0.43-0.06-0.63
		c-0.04-0.2-0.1-0.38-0.2-0.53s-0.21-0.28-0.37-0.37c-0.15-0.09-0.35-0.14-0.59-0.14c-0.25,0-0.46,0.05-0.63,0.16
		c-0.18,0.1-0.32,0.24-0.43,0.4s-0.19,0.35-0.24,0.56c-0.05,0.21-0.07,0.42-0.07,0.63v2.94h-1.08v-3.24c0-0.21-0.02-0.41-0.06-0.59
		c-0.04-0.18-0.1-0.33-0.2-0.45c-0.09-0.13-0.21-0.23-0.36-0.3c-0.15-0.07-0.33-0.11-0.54-0.11c-0.4,0-0.73,0.16-0.99,0.49
		c-0.26,0.33-0.4,0.76-0.4,1.3v2.9h-1.08v-4.27c0-0.15,0-0.33-0.01-0.56c-0.01-0.23-0.02-0.43-0.03-0.61h1.02
		c0.02,0.14,0.03,0.29,0.03,0.46c0.01,0.17,0.01,0.32,0.01,0.43h0.03C262.28,218.39,262.5,218.15,262.8,217.94z"/>
	<path class="st0" d="M276.56,220.5c0,0.42-0.07,0.81-0.22,1.16s-0.36,0.66-0.62,0.91c-0.26,0.26-0.58,0.46-0.94,0.6
		c-0.36,0.14-0.75,0.21-1.16,0.21c-0.41,0-0.8-0.07-1.16-0.21c-0.36-0.14-0.67-0.34-0.93-0.6c-0.26-0.26-0.47-0.56-0.61-0.91
		c-0.15-0.35-0.22-0.74-0.22-1.16c0-0.42,0.07-0.81,0.22-1.16c0.15-0.35,0.35-0.65,0.61-0.9c0.26-0.25,0.57-0.45,0.93-0.59
		c0.36-0.14,0.75-0.21,1.16-0.21c0.41,0,0.8,0.07,1.16,0.21c0.36,0.14,0.67,0.34,0.94,0.59c0.26,0.25,0.47,0.55,0.62,0.9
		S276.56,220.08,276.56,220.5z M275.43,220.5c0-0.26-0.04-0.51-0.12-0.74c-0.08-0.24-0.2-0.45-0.35-0.62
		c-0.15-0.18-0.34-0.32-0.57-0.43c-0.23-0.11-0.49-0.16-0.78-0.16c-0.29,0-0.55,0.05-0.78,0.16c-0.23,0.11-0.42,0.25-0.57,0.43
		c-0.15,0.18-0.27,0.39-0.35,0.62c-0.08,0.24-0.12,0.49-0.12,0.74c0,0.26,0.04,0.51,0.12,0.75c0.08,0.24,0.2,0.45,0.35,0.63
		c0.15,0.18,0.34,0.33,0.57,0.44c0.23,0.11,0.49,0.16,0.78,0.16c0.29,0,0.55-0.05,0.78-0.16c0.23-0.11,0.42-0.25,0.57-0.44
		c0.15-0.18,0.27-0.39,0.35-0.63C275.39,221.01,275.43,220.76,275.43,220.5z"/>
	<path class="st0" d="M280.77,219.17c-0.12-0.2-0.3-0.36-0.52-0.49c-0.22-0.13-0.47-0.19-0.75-0.19c-0.12,0-0.25,0.01-0.37,0.04
		c-0.12,0.03-0.23,0.07-0.33,0.13s-0.17,0.13-0.23,0.22c-0.06,0.09-0.09,0.2-0.09,0.33c0,0.23,0.1,0.4,0.31,0.51
		c0.21,0.11,0.52,0.21,0.93,0.3c0.26,0.06,0.5,0.13,0.72,0.22s0.42,0.19,0.58,0.32c0.16,0.13,0.29,0.28,0.38,0.45
		c0.09,0.18,0.14,0.38,0.14,0.62c0,0.32-0.06,0.59-0.18,0.82c-0.12,0.22-0.29,0.4-0.49,0.55c-0.2,0.14-0.44,0.24-0.7,0.3
		c-0.26,0.06-0.53,0.09-0.8,0.09c-0.41,0-0.82-0.08-1.21-0.24s-0.72-0.41-0.98-0.74l0.77-0.66c0.15,0.21,0.35,0.39,0.6,0.54
		c0.26,0.15,0.54,0.22,0.84,0.22c0.14,0,0.27-0.01,0.4-0.04c0.13-0.03,0.24-0.07,0.34-0.13c0.1-0.06,0.19-0.14,0.25-0.24
		c0.06-0.1,0.09-0.23,0.09-0.38c0-0.25-0.12-0.44-0.36-0.56c-0.24-0.12-0.6-0.24-1.06-0.34c-0.18-0.05-0.37-0.1-0.56-0.17
		c-0.19-0.07-0.36-0.16-0.51-0.27c-0.15-0.11-0.28-0.26-0.37-0.43c-0.1-0.17-0.14-0.38-0.14-0.64c0-0.29,0.06-0.54,0.18-0.75
		c0.12-0.21,0.27-0.38,0.47-0.52s0.41-0.23,0.65-0.3s0.5-0.1,0.76-0.1c0.39,0,0.77,0.08,1.13,0.23c0.36,0.15,0.65,0.38,0.84,0.67
		L280.77,219.17z"/>
	<path class="st0" d="M285.36,218.67h-1.45v2.83c0,0.33,0.06,0.56,0.18,0.71c0.12,0.14,0.32,0.21,0.59,0.21
		c0.1,0,0.21-0.01,0.32-0.03c0.12-0.02,0.22-0.05,0.31-0.09l0.03,0.88c-0.13,0.05-0.27,0.08-0.43,0.11
		c-0.16,0.03-0.32,0.04-0.49,0.04c-0.51,0-0.91-0.14-1.18-0.42s-0.41-0.71-0.41-1.28v-2.95h-1.05v-0.88h1.05v-1.56h1.07v1.56h1.45
		V218.67z"/>
	<path class="st0" d="M291.45,218.67h-1.26v4.56h-1.08v-4.56h-1.08v-0.88h1.08v-1.14c0-0.32,0.04-0.62,0.11-0.89
		c0.07-0.27,0.19-0.51,0.36-0.71c0.17-0.2,0.38-0.36,0.63-0.47c0.26-0.12,0.57-0.17,0.94-0.17c0.26,0,0.49,0.03,0.68,0.08
		l-0.13,0.93c-0.08-0.02-0.17-0.04-0.25-0.06c-0.08-0.02-0.18-0.02-0.29-0.02c-0.21,0-0.37,0.04-0.5,0.11
		c-0.13,0.07-0.22,0.17-0.29,0.29c-0.07,0.12-0.11,0.26-0.14,0.42s-0.03,0.32-0.03,0.49v1.14h1.26V218.67z"/>
	<path class="st0" d="M297.74,220.5c0,0.42-0.07,0.81-0.22,1.16s-0.36,0.66-0.62,0.91c-0.26,0.26-0.58,0.46-0.94,0.6
		c-0.36,0.14-0.75,0.21-1.16,0.21c-0.41,0-0.8-0.07-1.16-0.21c-0.36-0.14-0.67-0.34-0.93-0.6c-0.26-0.26-0.47-0.56-0.61-0.91
		c-0.15-0.35-0.22-0.74-0.22-1.16c0-0.42,0.07-0.81,0.22-1.16c0.15-0.35,0.35-0.65,0.61-0.9c0.26-0.25,0.57-0.45,0.93-0.59
		c0.36-0.14,0.75-0.21,1.16-0.21c0.41,0,0.8,0.07,1.16,0.21c0.36,0.14,0.67,0.34,0.94,0.59c0.26,0.25,0.47,0.55,0.62,0.9
		S297.74,220.08,297.74,220.5z M296.61,220.5c0-0.26-0.04-0.51-0.12-0.74c-0.08-0.24-0.2-0.45-0.35-0.62
		c-0.15-0.18-0.34-0.32-0.57-0.43c-0.23-0.11-0.49-0.16-0.78-0.16c-0.29,0-0.55,0.05-0.78,0.16c-0.23,0.11-0.42,0.25-0.57,0.43
		c-0.15,0.18-0.27,0.39-0.35,0.62c-0.08,0.24-0.12,0.49-0.12,0.74c0,0.26,0.04,0.51,0.12,0.75c0.08,0.24,0.2,0.45,0.35,0.63
		c0.15,0.18,0.34,0.33,0.57,0.44c0.23,0.11,0.49,0.16,0.78,0.16c0.29,0,0.55-0.05,0.78-0.16c0.23-0.11,0.42-0.25,0.57-0.44
		c0.15-0.18,0.27-0.39,0.35-0.63C296.57,221.01,296.61,220.76,296.61,220.5z"/>
	<path class="st0" d="M298.99,218.4c-0.01-0.23-0.02-0.43-0.03-0.61h1.02c0.02,0.14,0.03,0.3,0.03,0.48
		c0.01,0.18,0.01,0.33,0.01,0.44h0.03c0.15-0.32,0.38-0.58,0.67-0.78s0.63-0.29,0.99-0.29c0.17,0,0.31,0.02,0.43,0.05l-0.05,1
		c-0.15-0.04-0.32-0.06-0.49-0.06c-0.26,0-0.49,0.05-0.68,0.14c-0.19,0.1-0.35,0.22-0.48,0.38s-0.22,0.35-0.28,0.56
		c-0.06,0.21-0.09,0.43-0.09,0.66v2.86H299v-4.27C299,218.81,299,218.63,298.99,218.4z"/>
	<path class="st0" d="M306.55,217.79c0.02,0.14,0.03,0.29,0.03,0.46c0.01,0.17,0.01,0.32,0.01,0.43h0.03
		c0.07-0.15,0.16-0.28,0.28-0.41c0.12-0.13,0.25-0.24,0.41-0.33s0.32-0.17,0.51-0.22c0.18-0.05,0.38-0.08,0.57-0.08
		c0.35,0,0.66,0.06,0.91,0.18c0.25,0.12,0.46,0.28,0.63,0.48c0.17,0.2,0.29,0.43,0.37,0.7c0.08,0.27,0.12,0.56,0.12,0.86v3.38h-1.08
		v-3.02c0-0.22-0.02-0.43-0.05-0.63c-0.03-0.2-0.1-0.38-0.19-0.53s-0.22-0.28-0.38-0.37c-0.16-0.09-0.37-0.14-0.62-0.14
		c-0.43,0-0.78,0.16-1.05,0.49c-0.27,0.33-0.41,0.76-0.41,1.3v2.9h-1.08v-4.27c0-0.15,0-0.33-0.01-0.56
		c-0.01-0.23-0.02-0.43-0.03-0.61H306.55z"/>
	<path class="st0" d="M317.55,220.5c0,0.42-0.07,0.81-0.22,1.16s-0.36,0.66-0.62,0.91c-0.26,0.26-0.58,0.46-0.94,0.6
		c-0.36,0.14-0.75,0.21-1.16,0.21c-0.41,0-0.8-0.07-1.16-0.21c-0.36-0.14-0.67-0.34-0.93-0.6c-0.26-0.26-0.47-0.56-0.61-0.91
		c-0.15-0.35-0.22-0.74-0.22-1.16c0-0.42,0.07-0.81,0.22-1.16c0.15-0.35,0.35-0.65,0.61-0.9c0.26-0.25,0.57-0.45,0.93-0.59
		c0.36-0.14,0.75-0.21,1.16-0.21c0.41,0,0.8,0.07,1.16,0.21c0.36,0.14,0.67,0.34,0.94,0.59c0.26,0.25,0.47,0.55,0.62,0.9
		S317.55,220.08,317.55,220.5z M316.42,220.5c0-0.26-0.04-0.51-0.12-0.74c-0.08-0.24-0.2-0.45-0.35-0.62
		c-0.15-0.18-0.34-0.32-0.57-0.43c-0.23-0.11-0.49-0.16-0.78-0.16c-0.29,0-0.55,0.05-0.78,0.16c-0.23,0.11-0.42,0.25-0.57,0.43
		c-0.15,0.18-0.27,0.39-0.35,0.62c-0.08,0.24-0.12,0.49-0.12,0.74c0,0.26,0.04,0.51,0.12,0.75c0.08,0.24,0.2,0.45,0.35,0.63
		c0.15,0.18,0.34,0.33,0.57,0.44c0.23,0.11,0.49,0.16,0.78,0.16c0.29,0,0.55-0.05,0.78-0.16c0.23-0.11,0.42-0.25,0.57-0.44
		c0.15-0.18,0.27-0.39,0.35-0.63C316.38,221.01,316.42,220.76,316.42,220.5z"/>
	<path class="st0" d="M319.79,217.79c0.02,0.14,0.03,0.29,0.03,0.46c0.01,0.17,0.01,0.32,0.01,0.43h0.03
		c0.07-0.15,0.16-0.28,0.28-0.41c0.12-0.13,0.25-0.24,0.41-0.33s0.32-0.17,0.51-0.22c0.18-0.05,0.38-0.08,0.57-0.08
		c0.35,0,0.66,0.06,0.91,0.18c0.25,0.12,0.46,0.28,0.63,0.48c0.17,0.2,0.29,0.43,0.37,0.7c0.08,0.27,0.12,0.56,0.12,0.86v3.38h-1.08
		v-3.02c0-0.22-0.02-0.43-0.05-0.63c-0.03-0.2-0.1-0.38-0.19-0.53s-0.22-0.28-0.38-0.37c-0.16-0.09-0.37-0.14-0.62-0.14
		c-0.43,0-0.78,0.16-1.05,0.49c-0.27,0.33-0.41,0.76-0.41,1.3v2.9h-1.08v-4.27c0-0.15,0-0.33-0.01-0.56
		c-0.01-0.23-0.02-0.43-0.03-0.61H319.79z"/>
	<path class="st0" d="M328.21,219.17c-0.12-0.2-0.3-0.36-0.52-0.49c-0.22-0.13-0.47-0.19-0.75-0.19c-0.12,0-0.25,0.01-0.37,0.04
		c-0.12,0.03-0.23,0.07-0.33,0.13s-0.17,0.13-0.23,0.22c-0.06,0.09-0.09,0.2-0.09,0.33c0,0.23,0.1,0.4,0.31,0.51
		c0.21,0.11,0.52,0.21,0.93,0.3c0.26,0.06,0.5,0.13,0.72,0.22s0.42,0.19,0.58,0.32c0.16,0.13,0.29,0.28,0.38,0.45
		c0.09,0.18,0.14,0.38,0.14,0.62c0,0.32-0.06,0.59-0.18,0.82c-0.12,0.22-0.29,0.4-0.49,0.55c-0.2,0.14-0.44,0.24-0.7,0.3
		c-0.26,0.06-0.53,0.09-0.8,0.09c-0.41,0-0.82-0.08-1.21-0.24s-0.72-0.41-0.98-0.74l0.77-0.66c0.15,0.21,0.35,0.39,0.6,0.54
		c0.26,0.15,0.54,0.22,0.84,0.22c0.14,0,0.27-0.01,0.4-0.04c0.13-0.03,0.24-0.07,0.34-0.13c0.1-0.06,0.19-0.14,0.25-0.24
		c0.06-0.1,0.09-0.23,0.09-0.38c0-0.25-0.12-0.44-0.36-0.56c-0.24-0.12-0.6-0.24-1.06-0.34c-0.18-0.05-0.37-0.1-0.56-0.17
		c-0.19-0.07-0.36-0.16-0.51-0.27c-0.15-0.11-0.28-0.26-0.37-0.43c-0.1-0.17-0.14-0.38-0.14-0.64c0-0.29,0.06-0.54,0.18-0.75
		c0.12-0.21,0.27-0.38,0.47-0.52s0.41-0.23,0.65-0.3s0.5-0.1,0.76-0.1c0.39,0,0.77,0.08,1.13,0.23c0.36,0.15,0.65,0.38,0.84,0.67
		L328.21,219.17z"/>
	<path class="st0" d="M333.98,223.23c-0.02-0.14-0.03-0.29-0.03-0.47c-0.01-0.17-0.01-0.32-0.01-0.43h-0.02
		c-0.14,0.29-0.37,0.54-0.7,0.74s-0.69,0.3-1.09,0.3c-0.35,0-0.66-0.06-0.91-0.17c-0.26-0.11-0.47-0.27-0.63-0.48
		s-0.29-0.44-0.37-0.71c-0.08-0.27-0.12-0.56-0.12-0.86v-3.38h1.08v3.01c0,0.22,0.02,0.43,0.05,0.64c0.03,0.2,0.1,0.38,0.19,0.53
		c0.09,0.15,0.22,0.28,0.38,0.37c0.16,0.09,0.37,0.14,0.62,0.14c0.44,0,0.79-0.16,1.06-0.49c0.27-0.33,0.4-0.76,0.4-1.3v-2.9h1.08
		v4.27c0,0.15,0,0.33,0.01,0.56c0.01,0.23,0.02,0.43,0.03,0.61H333.98z"/>
	<path class="st0" d="M336.59,218.4c-0.01-0.23-0.02-0.43-0.03-0.61h1.02c0.02,0.14,0.03,0.3,0.03,0.48
		c0.01,0.18,0.01,0.33,0.01,0.44h0.03c0.15-0.32,0.38-0.58,0.67-0.78s0.63-0.29,0.99-0.29c0.17,0,0.31,0.02,0.43,0.05l-0.05,1
		c-0.15-0.04-0.32-0.06-0.49-0.06c-0.26,0-0.49,0.05-0.68,0.14c-0.19,0.1-0.35,0.22-0.48,0.38s-0.22,0.35-0.28,0.56
		c-0.06,0.21-0.09,0.43-0.09,0.66v2.86h-1.08v-4.27C336.6,218.81,336.59,218.63,336.59,218.4z"/>
	<path class="st0" d="M340.75,224.16c0.24,0.27,0.53,0.48,0.89,0.64c0.36,0.16,0.72,0.24,1.1,0.24c0.36,0,0.66-0.05,0.91-0.16
		s0.44-0.25,0.59-0.42c0.15-0.18,0.26-0.39,0.32-0.64c0.06-0.25,0.1-0.51,0.1-0.79v-0.7h-0.02c-0.2,0.31-0.47,0.54-0.82,0.7
		s-0.71,0.24-1.1,0.24c-0.41,0-0.79-0.07-1.13-0.22s-0.63-0.34-0.87-0.6s-0.42-0.55-0.55-0.89c-0.13-0.34-0.2-0.71-0.2-1.1
		s0.06-0.76,0.2-1.1c0.13-0.34,0.31-0.64,0.55-0.9s0.52-0.46,0.86-0.61s0.71-0.22,1.13-0.22c0.39,0,0.76,0.08,1.12,0.25
		c0.36,0.17,0.64,0.42,0.84,0.77h0.02v-0.87h1.05v5.17c0,0.4-0.05,0.78-0.15,1.14c-0.1,0.36-0.27,0.69-0.51,0.97
		c-0.24,0.28-0.55,0.5-0.93,0.67c-0.38,0.17-0.86,0.25-1.43,0.25c-0.47,0-0.95-0.09-1.43-0.26c-0.48-0.17-0.89-0.42-1.24-0.73
		L340.75,224.16z M341.07,220.45c0,0.25,0.04,0.49,0.12,0.72c0.08,0.23,0.2,0.43,0.36,0.61c0.16,0.18,0.35,0.32,0.57,0.43
		c0.22,0.11,0.48,0.16,0.76,0.16c0.28,0,0.53-0.05,0.76-0.15s0.43-0.24,0.59-0.41c0.16-0.17,0.29-0.38,0.37-0.61
		c0.09-0.23,0.13-0.48,0.13-0.75c0-0.26-0.04-0.51-0.13-0.74c-0.09-0.23-0.22-0.43-0.38-0.61s-0.36-0.32-0.59-0.42
		c-0.23-0.1-0.48-0.15-0.75-0.15c-0.28,0-0.54,0.05-0.76,0.15c-0.22,0.1-0.41,0.24-0.57,0.41c-0.16,0.17-0.28,0.38-0.36,0.61
		C341.11,219.95,341.07,220.19,341.07,220.45z"/>
	<path class="st0" d="M348.62,215.82c0,0.2-0.07,0.36-0.21,0.49c-0.14,0.13-0.31,0.2-0.51,0.2c-0.2,0-0.36-0.07-0.5-0.2
		s-0.21-0.3-0.21-0.49c0-0.2,0.07-0.37,0.21-0.5s0.3-0.2,0.5-0.2c0.2,0,0.37,0.07,0.51,0.2S348.62,215.62,348.62,215.82z
		 M348.44,223.23h-1.08v-5.45h1.08V223.23z"/>
	<path class="st0" d="M353.91,219.17c-0.11-0.18-0.29-0.32-0.52-0.44c-0.23-0.12-0.48-0.18-0.74-0.18c-0.28,0-0.53,0.05-0.75,0.16
		c-0.22,0.11-0.4,0.25-0.56,0.43c-0.15,0.18-0.27,0.39-0.35,0.63c-0.08,0.24-0.12,0.49-0.12,0.75c0,0.26,0.04,0.51,0.12,0.75
		c0.08,0.24,0.2,0.45,0.35,0.63c0.15,0.18,0.34,0.32,0.56,0.43s0.48,0.16,0.76,0.16c0.28,0,0.53-0.05,0.75-0.16
		c0.23-0.11,0.41-0.25,0.56-0.44l0.72,0.65c-0.23,0.27-0.52,0.48-0.86,0.63c-0.34,0.15-0.74,0.22-1.17,0.22
		c-0.42,0-0.81-0.07-1.17-0.21c-0.36-0.14-0.66-0.33-0.92-0.58c-0.26-0.25-0.47-0.55-0.61-0.9c-0.15-0.35-0.22-0.75-0.22-1.18
		c0-0.43,0.07-0.82,0.22-1.17s0.35-0.65,0.61-0.91c0.26-0.25,0.57-0.45,0.92-0.59c0.36-0.14,0.74-0.21,1.15-0.21
		c0.38,0,0.76,0.08,1.14,0.23s0.68,0.38,0.9,0.67L353.91,219.17z"/>
	<path class="st0" d="M358.94,219.71c0-0.41-0.12-0.71-0.37-0.9s-0.57-0.29-0.98-0.29c-0.31,0-0.6,0.06-0.87,0.18
		c-0.27,0.12-0.5,0.27-0.68,0.45l-0.57-0.69c0.27-0.25,0.6-0.45,0.98-0.6s0.8-0.22,1.25-0.22c0.39,0,0.73,0.06,1.02,0.17
		c0.29,0.11,0.52,0.26,0.71,0.45c0.18,0.19,0.32,0.42,0.41,0.68c0.09,0.26,0.14,0.54,0.14,0.84v2.38c0,0.18,0.01,0.38,0.02,0.58
		c0.01,0.2,0.03,0.37,0.06,0.5h-0.98c-0.06-0.26-0.09-0.52-0.09-0.78h-0.03c-0.2,0.29-0.45,0.52-0.75,0.68
		c-0.3,0.16-0.66,0.24-1.07,0.24c-0.21,0-0.44-0.03-0.67-0.09c-0.23-0.06-0.45-0.15-0.64-0.28c-0.19-0.13-0.35-0.3-0.48-0.52
		c-0.13-0.21-0.19-0.48-0.19-0.79c0-0.41,0.11-0.74,0.33-0.98s0.51-0.42,0.87-0.55c0.36-0.13,0.77-0.21,1.22-0.25
		c0.45-0.04,0.91-0.06,1.37-0.06V219.71z M358.67,220.64c-0.27,0-0.55,0.01-0.83,0.03c-0.29,0.02-0.55,0.07-0.78,0.14
		c-0.23,0.07-0.43,0.17-0.58,0.31s-0.23,0.32-0.23,0.55c0,0.16,0.03,0.29,0.1,0.4c0.06,0.11,0.15,0.2,0.26,0.26
		c0.11,0.07,0.23,0.12,0.36,0.14c0.13,0.03,0.26,0.04,0.4,0.04c0.51,0,0.89-0.15,1.17-0.45s0.41-0.68,0.41-1.14v-0.29H358.67z"/>
	<path class="st0" d="M362.65,223.23h-1.08v-8.69h1.08V223.23z"/>
	<path class="st0" d="M369.51,218.67h-1.26v4.56h-1.08v-4.56h-1.08v-0.88h1.08v-1.14c0-0.32,0.04-0.62,0.11-0.89
		c0.07-0.27,0.19-0.51,0.36-0.71c0.17-0.2,0.38-0.36,0.63-0.47c0.26-0.12,0.57-0.17,0.94-0.17c0.26,0,0.49,0.03,0.68,0.08
		l-0.13,0.93c-0.08-0.02-0.17-0.04-0.25-0.06c-0.08-0.02-0.18-0.02-0.29-0.02c-0.21,0-0.37,0.04-0.5,0.11
		c-0.13,0.07-0.22,0.17-0.29,0.29c-0.07,0.12-0.11,0.26-0.14,0.42s-0.03,0.32-0.03,0.49v1.14h1.26V218.67z"/>
	<path class="st0" d="M373.67,219.71c0-0.41-0.12-0.71-0.37-0.9s-0.57-0.29-0.98-0.29c-0.31,0-0.6,0.06-0.87,0.18
		c-0.27,0.12-0.5,0.27-0.68,0.45l-0.57-0.69c0.27-0.25,0.6-0.45,0.98-0.6s0.8-0.22,1.25-0.22c0.39,0,0.73,0.06,1.02,0.17
		c0.29,0.11,0.52,0.26,0.71,0.45c0.18,0.19,0.32,0.42,0.41,0.68c0.09,0.26,0.14,0.54,0.14,0.84v2.38c0,0.18,0.01,0.38,0.02,0.58
		c0.01,0.2,0.03,0.37,0.06,0.5h-0.98c-0.06-0.26-0.09-0.52-0.09-0.78h-0.03c-0.2,0.29-0.45,0.52-0.75,0.68
		c-0.3,0.16-0.66,0.24-1.07,0.24c-0.21,0-0.44-0.03-0.67-0.09c-0.23-0.06-0.45-0.15-0.64-0.28c-0.19-0.13-0.35-0.3-0.48-0.52
		c-0.13-0.21-0.19-0.48-0.19-0.79c0-0.41,0.11-0.74,0.33-0.98s0.51-0.42,0.87-0.55c0.36-0.13,0.77-0.21,1.22-0.25
		c0.45-0.04,0.91-0.06,1.37-0.06V219.71z M373.4,220.64c-0.27,0-0.55,0.01-0.83,0.03c-0.29,0.02-0.55,0.07-0.78,0.14
		c-0.23,0.07-0.43,0.17-0.58,0.31s-0.23,0.32-0.23,0.55c0,0.16,0.03,0.29,0.1,0.4c0.06,0.11,0.15,0.2,0.26,0.26
		c0.11,0.07,0.23,0.12,0.36,0.14c0.13,0.03,0.26,0.04,0.4,0.04c0.51,0,0.89-0.15,1.17-0.45s0.41-0.68,0.41-1.14v-0.29H373.4z"/>
	<path class="st0" d="M378.83,218.67h-1.45v2.83c0,0.33,0.06,0.56,0.18,0.71c0.12,0.14,0.32,0.21,0.59,0.21
		c0.1,0,0.21-0.01,0.32-0.03c0.12-0.02,0.22-0.05,0.31-0.09l0.03,0.88c-0.13,0.05-0.27,0.08-0.43,0.11
		c-0.16,0.03-0.32,0.04-0.49,0.04c-0.51,0-0.91-0.14-1.18-0.42s-0.41-0.71-0.41-1.28v-2.95h-1.05v-0.88h1.05v-1.56h1.07v1.56h1.45
		V218.67z"/>
	<path class="st0" d="M382.34,218.4c-0.01-0.23-0.02-0.43-0.03-0.61h1.02c0.02,0.14,0.03,0.3,0.03,0.48
		c0.01,0.18,0.01,0.33,0.01,0.44h0.03c0.15-0.32,0.38-0.58,0.67-0.78s0.63-0.29,0.99-0.29c0.17,0,0.31,0.02,0.43,0.05l-0.05,1
		c-0.15-0.04-0.32-0.06-0.49-0.06c-0.26,0-0.49,0.05-0.68,0.14c-0.19,0.1-0.35,0.22-0.48,0.38s-0.22,0.35-0.28,0.56
		c-0.06,0.21-0.09,0.43-0.09,0.66v2.86h-1.08v-4.27C382.35,218.81,382.35,218.63,382.34,218.4z"/>
	<path class="st0" d="M391.17,220.46c0,0.06,0,0.12,0,0.18c0,0.06,0,0.12-0.01,0.18h-4.33c0.01,0.23,0.06,0.44,0.15,0.64
		s0.22,0.38,0.39,0.53c0.16,0.15,0.35,0.26,0.56,0.35c0.21,0.08,0.43,0.12,0.67,0.12c0.37,0,0.69-0.08,0.95-0.24
		c0.27-0.16,0.48-0.36,0.63-0.59l0.76,0.61c-0.29,0.39-0.63,0.67-1.03,0.85s-0.83,0.27-1.32,0.27c-0.41,0-0.8-0.07-1.15-0.21
		c-0.35-0.14-0.66-0.33-0.91-0.58c-0.25-0.25-0.45-0.55-0.6-0.9c-0.15-0.35-0.22-0.74-0.22-1.17c0-0.42,0.07-0.81,0.21-1.17
		s0.34-0.66,0.59-0.91c0.25-0.25,0.55-0.45,0.9-0.59c0.35-0.14,0.72-0.21,1.12-0.21c0.4,0,0.76,0.07,1.09,0.2
		c0.33,0.13,0.6,0.32,0.83,0.56s0.4,0.54,0.52,0.89C391.1,219.63,391.17,220.03,391.17,220.46z M390.06,220.03
		c-0.01-0.21-0.04-0.42-0.11-0.6c-0.06-0.19-0.16-0.35-0.29-0.49c-0.13-0.14-0.28-0.25-0.47-0.33c-0.19-0.08-0.41-0.12-0.66-0.12
		c-0.23,0-0.45,0.04-0.65,0.12c-0.2,0.08-0.38,0.19-0.53,0.33c-0.15,0.14-0.27,0.3-0.37,0.49c-0.1,0.19-0.15,0.39-0.17,0.6H390.06z"
		/>
	<path class="st0" d="M396.77,222.37c-0.21,0.33-0.49,0.58-0.84,0.75c-0.36,0.17-0.73,0.26-1.12,0.26c-0.42,0-0.8-0.08-1.14-0.22
		c-0.34-0.15-0.62-0.35-0.86-0.62c-0.24-0.26-0.42-0.57-0.55-0.92s-0.2-0.73-0.2-1.13s0.06-0.77,0.2-1.12
		c0.13-0.35,0.32-0.65,0.56-0.91c0.24-0.26,0.53-0.46,0.87-0.61s0.71-0.22,1.11-0.22c0.44,0,0.83,0.09,1.16,0.28
		c0.33,0.19,0.59,0.42,0.78,0.68h0.02v-4.06h1.08v8.69h-1.05v-0.86H396.77z M393.19,220.5c0,0.25,0.04,0.5,0.12,0.73
		c0.08,0.24,0.19,0.45,0.34,0.63c0.15,0.18,0.34,0.33,0.56,0.44c0.22,0.11,0.48,0.17,0.78,0.17c0.28,0,0.53-0.05,0.75-0.16
		c0.23-0.11,0.42-0.25,0.58-0.43c0.16-0.18,0.29-0.39,0.37-0.62c0.09-0.24,0.13-0.49,0.13-0.75s-0.04-0.51-0.13-0.74
		c-0.09-0.24-0.21-0.45-0.37-0.63c-0.16-0.18-0.35-0.33-0.58-0.44c-0.23-0.11-0.48-0.16-0.75-0.16c-0.3,0-0.56,0.05-0.78,0.16
		c-0.22,0.11-0.41,0.25-0.56,0.44c-0.15,0.18-0.27,0.39-0.34,0.63C393.23,220.01,393.19,220.25,393.19,220.5z"/>
	<path class="st0" d="M403.33,223.23c-0.02-0.14-0.03-0.29-0.03-0.47c-0.01-0.17-0.01-0.32-0.01-0.43h-0.02
		c-0.14,0.29-0.37,0.54-0.7,0.74s-0.69,0.3-1.09,0.3c-0.35,0-0.66-0.06-0.91-0.17c-0.26-0.11-0.47-0.27-0.63-0.48
		s-0.29-0.44-0.37-0.71c-0.08-0.27-0.12-0.56-0.12-0.86v-3.38h1.08v3.01c0,0.22,0.02,0.43,0.05,0.64c0.03,0.2,0.1,0.38,0.19,0.53
		c0.09,0.15,0.22,0.28,0.38,0.37c0.16,0.09,0.37,0.14,0.62,0.14c0.44,0,0.79-0.16,1.06-0.49c0.27-0.33,0.4-0.76,0.4-1.3v-2.9h1.08
		v4.27c0,0.15,0,0.33,0.01,0.56c0.01,0.23,0.02,0.43,0.03,0.61H403.33z"/>
	<path class="st0" d="M409.77,219.17c-0.11-0.18-0.29-0.32-0.52-0.44c-0.23-0.12-0.48-0.18-0.74-0.18c-0.28,0-0.53,0.05-0.75,0.16
		c-0.22,0.11-0.4,0.25-0.56,0.43c-0.15,0.18-0.27,0.39-0.35,0.63c-0.08,0.24-0.12,0.49-0.12,0.75c0,0.26,0.04,0.51,0.12,0.75
		c0.08,0.24,0.2,0.45,0.35,0.63c0.15,0.18,0.34,0.32,0.56,0.43s0.48,0.16,0.76,0.16c0.28,0,0.53-0.05,0.75-0.16
		c0.23-0.11,0.41-0.25,0.56-0.44l0.72,0.65c-0.23,0.27-0.52,0.48-0.86,0.63c-0.34,0.15-0.74,0.22-1.17,0.22
		c-0.42,0-0.81-0.07-1.17-0.21c-0.36-0.14-0.66-0.33-0.92-0.58c-0.26-0.25-0.47-0.55-0.61-0.9c-0.15-0.35-0.22-0.75-0.22-1.18
		c0-0.43,0.07-0.82,0.22-1.17s0.35-0.65,0.61-0.91c0.26-0.25,0.57-0.45,0.92-0.59c0.36-0.14,0.74-0.21,1.15-0.21
		c0.38,0,0.76,0.08,1.14,0.23s0.68,0.38,0.9,0.67L409.77,219.17z"/>
	<path class="st0" d="M414.07,218.67h-1.45v2.83c0,0.33,0.06,0.56,0.18,0.71c0.12,0.14,0.32,0.21,0.59,0.21
		c0.1,0,0.21-0.01,0.32-0.03c0.12-0.02,0.22-0.05,0.31-0.09l0.03,0.88c-0.13,0.05-0.27,0.08-0.43,0.11
		c-0.16,0.03-0.32,0.04-0.49,0.04c-0.51,0-0.91-0.14-1.18-0.42s-0.41-0.71-0.41-1.28v-2.95h-1.05v-0.88h1.05v-1.56h1.07v1.56h1.45
		V218.67z"/>
	<path class="st0" d="M416.22,215.82c0,0.2-0.07,0.36-0.21,0.49c-0.14,0.13-0.31,0.2-0.51,0.2c-0.2,0-0.36-0.07-0.5-0.2
		s-0.21-0.3-0.21-0.49c0-0.2,0.07-0.37,0.21-0.5s0.3-0.2,0.5-0.2c0.2,0,0.37,0.07,0.51,0.2S416.22,215.62,416.22,215.82z
		 M416.04,223.23h-1.08v-5.45h1.08V223.23z"/>
	<path class="st0" d="M423.21,220.5c0,0.42-0.07,0.81-0.22,1.16s-0.36,0.66-0.62,0.91c-0.26,0.26-0.58,0.46-0.94,0.6
		c-0.36,0.14-0.75,0.21-1.16,0.21c-0.41,0-0.8-0.07-1.16-0.21c-0.36-0.14-0.67-0.34-0.93-0.6c-0.26-0.26-0.47-0.56-0.61-0.91
		c-0.15-0.35-0.22-0.74-0.22-1.16c0-0.42,0.07-0.81,0.22-1.16c0.15-0.35,0.35-0.65,0.61-0.9c0.26-0.25,0.57-0.45,0.93-0.59
		c0.36-0.14,0.75-0.21,1.16-0.21c0.41,0,0.8,0.07,1.16,0.21c0.36,0.14,0.67,0.34,0.94,0.59c0.26,0.25,0.47,0.55,0.62,0.9
		S423.21,220.08,423.21,220.5z M422.09,220.5c0-0.26-0.04-0.51-0.12-0.74c-0.08-0.24-0.2-0.45-0.35-0.62
		c-0.15-0.18-0.34-0.32-0.57-0.43c-0.23-0.11-0.49-0.16-0.78-0.16c-0.29,0-0.55,0.05-0.78,0.16c-0.23,0.11-0.42,0.25-0.57,0.43
		c-0.15,0.18-0.27,0.39-0.35,0.62c-0.08,0.24-0.12,0.49-0.12,0.74c0,0.26,0.04,0.51,0.12,0.75c0.08,0.24,0.2,0.45,0.35,0.63
		c0.15,0.18,0.34,0.33,0.57,0.44c0.23,0.11,0.49,0.16,0.78,0.16c0.29,0,0.55-0.05,0.78-0.16c0.23-0.11,0.42-0.25,0.57-0.44
		c0.15-0.18,0.27-0.39,0.35-0.63C422.05,221.01,422.09,220.76,422.09,220.5z"/>
	<path class="st0" d="M425.45,217.79c0.02,0.14,0.03,0.29,0.03,0.46c0.01,0.17,0.01,0.32,0.01,0.43h0.03
		c0.07-0.15,0.16-0.28,0.28-0.41c0.12-0.13,0.25-0.24,0.41-0.33s0.32-0.17,0.51-0.22c0.18-0.05,0.38-0.08,0.57-0.08
		c0.35,0,0.66,0.06,0.91,0.18c0.25,0.12,0.46,0.28,0.63,0.48c0.17,0.2,0.29,0.43,0.37,0.7c0.08,0.27,0.12,0.56,0.12,0.86v3.38h-1.08
		v-3.02c0-0.22-0.02-0.43-0.05-0.63c-0.03-0.2-0.1-0.38-0.19-0.53s-0.22-0.28-0.38-0.37c-0.16-0.09-0.37-0.14-0.62-0.14
		c-0.43,0-0.78,0.16-1.05,0.49c-0.27,0.33-0.41,0.76-0.41,1.3v2.9h-1.08v-4.27c0-0.15,0-0.33-0.01-0.56
		c-0.01-0.23-0.02-0.43-0.03-0.61H425.45z"/>
	<path class="st0" d="M432.27,222.54c0,0.2-0.07,0.38-0.22,0.53s-0.33,0.23-0.55,0.23c-0.21,0-0.4-0.08-0.55-0.22
		c-0.15-0.15-0.22-0.32-0.22-0.52c0-0.21,0.07-0.38,0.22-0.53c0.15-0.15,0.33-0.22,0.55-0.22s0.41,0.07,0.55,0.22
		S432.27,222.34,432.27,222.54z"/>
	<path class="st0" d="M37.72,237.22h-1.26l3.53-8.14h1.03l3.49,8.14h-1.29l-0.83-2h-3.86L37.72,237.22z M38.94,234.22h3.04
		l-1.52-3.81L38.94,234.22z"/>
	<path class="st0" d="M46.37,237.22h-1.08v-8.69h1.08V237.22z"/>
	<path class="st0" d="M49.13,237.22h-1.08v-8.69h1.08V237.22z"/>
	<path class="st0" d="M55.88,234.45c0,0.06,0,0.12,0,0.18c0,0.06,0,0.12-0.01,0.18h-4.33c0.01,0.23,0.06,0.44,0.15,0.64
		s0.22,0.38,0.39,0.53c0.16,0.15,0.35,0.26,0.56,0.35c0.21,0.08,0.43,0.12,0.67,0.12c0.37,0,0.69-0.08,0.95-0.24
		c0.27-0.16,0.48-0.36,0.63-0.59l0.76,0.61c-0.29,0.39-0.63,0.67-1.03,0.85s-0.83,0.27-1.32,0.27c-0.41,0-0.8-0.07-1.15-0.21
		c-0.35-0.14-0.66-0.33-0.91-0.58c-0.25-0.25-0.45-0.55-0.6-0.9c-0.15-0.35-0.22-0.74-0.22-1.17c0-0.42,0.07-0.81,0.21-1.17
		s0.34-0.66,0.59-0.91c0.25-0.25,0.55-0.45,0.9-0.59c0.35-0.14,0.72-0.21,1.12-0.21c0.4,0,0.76,0.07,1.09,0.2
		c0.33,0.13,0.6,0.32,0.83,0.56s0.4,0.54,0.52,0.89C55.81,233.62,55.88,234.02,55.88,234.45z M54.77,234.02
		c-0.01-0.21-0.04-0.42-0.11-0.6c-0.06-0.19-0.16-0.35-0.29-0.49c-0.13-0.14-0.28-0.25-0.47-0.33c-0.19-0.08-0.41-0.12-0.66-0.12
		c-0.23,0-0.45,0.04-0.65,0.12c-0.2,0.08-0.38,0.19-0.53,0.33c-0.15,0.14-0.27,0.3-0.37,0.49c-0.1,0.19-0.15,0.39-0.17,0.6H54.77z"
		/>
	<path class="st0" d="M58.36,234.36l-1.99-2.58h1.33l1.33,1.87l1.34-1.87h1.26l-1.96,2.57l2.19,2.87h-1.34l-1.52-2.13l-1.54,2.13
		h-1.3L58.36,234.36z"/>
	<path class="st0" d="M66.06,233.7c0-0.41-0.12-0.71-0.37-0.9s-0.57-0.29-0.98-0.29c-0.31,0-0.6,0.06-0.87,0.18
		c-0.27,0.12-0.5,0.27-0.68,0.45l-0.57-0.69c0.27-0.25,0.6-0.45,0.98-0.6s0.8-0.22,1.25-0.22c0.39,0,0.73,0.06,1.02,0.17
		c0.29,0.11,0.52,0.26,0.71,0.45c0.18,0.19,0.32,0.42,0.41,0.68c0.09,0.26,0.14,0.54,0.14,0.84v2.38c0,0.18,0.01,0.38,0.02,0.58
		c0.01,0.2,0.03,0.37,0.06,0.5h-0.98c-0.06-0.26-0.09-0.52-0.09-0.78h-0.03c-0.2,0.29-0.45,0.52-0.75,0.68
		c-0.3,0.16-0.66,0.24-1.07,0.24c-0.21,0-0.44-0.03-0.67-0.09c-0.23-0.06-0.45-0.15-0.64-0.28c-0.19-0.13-0.35-0.3-0.48-0.52
		c-0.13-0.21-0.19-0.48-0.19-0.79c0-0.41,0.11-0.74,0.33-0.98s0.51-0.42,0.87-0.55c0.36-0.13,0.77-0.21,1.22-0.25
		c0.45-0.04,0.91-0.06,1.37-0.06V233.7z M65.79,234.63c-0.27,0-0.55,0.01-0.83,0.03c-0.29,0.02-0.55,0.07-0.78,0.14
		c-0.23,0.07-0.43,0.17-0.58,0.31s-0.23,0.32-0.23,0.55c0,0.16,0.03,0.29,0.1,0.4c0.06,0.11,0.15,0.2,0.26,0.26
		c0.11,0.07,0.23,0.12,0.36,0.14c0.13,0.03,0.26,0.04,0.4,0.04c0.51,0,0.89-0.15,1.17-0.45s0.41-0.68,0.41-1.14v-0.29H65.79z"/>
	<path class="st0" d="M71.71,231.78l1.23,4.16h0.02l1.3-4.16h1.14l1.32,4.16h0.02l1.23-4.16h1.14l-1.8,5.45h-1.13l-1.34-4.09h-0.02
		l-1.33,4.09h-1.13l-1.82-5.45H71.71z"/>
	<path class="st0" d="M83.35,233.7c0-0.41-0.12-0.71-0.37-0.9s-0.57-0.29-0.98-0.29c-0.31,0-0.6,0.06-0.87,0.18
		c-0.27,0.12-0.5,0.27-0.68,0.45l-0.57-0.69c0.27-0.25,0.6-0.45,0.98-0.6s0.8-0.22,1.25-0.22c0.39,0,0.73,0.06,1.02,0.17
		c0.29,0.11,0.52,0.26,0.71,0.45c0.18,0.19,0.32,0.42,0.41,0.68c0.09,0.26,0.14,0.54,0.14,0.84v2.38c0,0.18,0.01,0.38,0.02,0.58
		c0.01,0.2,0.03,0.37,0.06,0.5h-0.98c-0.06-0.26-0.09-0.52-0.09-0.78h-0.03c-0.2,0.29-0.45,0.52-0.75,0.68
		c-0.3,0.16-0.66,0.24-1.07,0.24c-0.21,0-0.44-0.03-0.67-0.09c-0.23-0.06-0.45-0.15-0.64-0.28c-0.19-0.13-0.35-0.3-0.48-0.52
		c-0.13-0.21-0.19-0.48-0.19-0.79c0-0.41,0.11-0.74,0.33-0.98s0.51-0.42,0.87-0.55c0.36-0.13,0.77-0.21,1.22-0.25
		c0.45-0.04,0.91-0.06,1.37-0.06V233.7z M83.09,234.63c-0.27,0-0.55,0.01-0.83,0.03c-0.29,0.02-0.55,0.07-0.78,0.14
		c-0.23,0.07-0.43,0.17-0.58,0.31s-0.23,0.32-0.23,0.55c0,0.16,0.03,0.29,0.1,0.4c0.06,0.11,0.15,0.2,0.26,0.26
		c0.11,0.07,0.23,0.12,0.36,0.14c0.13,0.03,0.26,0.04,0.4,0.04c0.51,0,0.89-0.15,1.17-0.45s0.41-0.68,0.41-1.14v-0.29H83.09z"/>
	<path class="st0" d="M88.9,233.16c-0.12-0.2-0.3-0.36-0.52-0.49c-0.22-0.13-0.47-0.19-0.75-0.19c-0.12,0-0.25,0.01-0.37,0.04
		c-0.12,0.03-0.23,0.07-0.33,0.13s-0.17,0.13-0.23,0.22c-0.06,0.09-0.09,0.2-0.09,0.33c0,0.23,0.1,0.4,0.31,0.51
		c0.21,0.11,0.52,0.21,0.93,0.3c0.26,0.06,0.5,0.13,0.72,0.22s0.42,0.19,0.58,0.32c0.16,0.13,0.29,0.28,0.38,0.45
		c0.09,0.18,0.14,0.38,0.14,0.62c0,0.32-0.06,0.59-0.18,0.82c-0.12,0.22-0.29,0.4-0.49,0.55c-0.2,0.14-0.44,0.24-0.7,0.3
		c-0.26,0.06-0.53,0.09-0.8,0.09c-0.41,0-0.82-0.08-1.21-0.24s-0.72-0.41-0.98-0.74l0.77-0.66c0.15,0.21,0.35,0.39,0.6,0.54
		c0.26,0.15,0.54,0.22,0.84,0.22c0.14,0,0.27-0.01,0.4-0.04c0.13-0.03,0.24-0.07,0.34-0.13c0.1-0.06,0.19-0.14,0.25-0.24
		c0.06-0.1,0.09-0.23,0.09-0.38c0-0.25-0.12-0.44-0.36-0.56c-0.24-0.12-0.6-0.24-1.06-0.34c-0.18-0.05-0.37-0.1-0.56-0.17
		c-0.19-0.07-0.36-0.16-0.51-0.27c-0.15-0.11-0.28-0.26-0.37-0.43c-0.1-0.17-0.14-0.38-0.14-0.64c0-0.29,0.06-0.54,0.18-0.75
		c0.12-0.21,0.27-0.38,0.47-0.52s0.41-0.23,0.65-0.3s0.5-0.1,0.76-0.1c0.39,0,0.77,0.08,1.13,0.23c0.36,0.15,0.65,0.38,0.84,0.67
		L88.9,233.16z"/>
	<path class="st0" d="M96.14,232.66h-1.45v2.83c0,0.33,0.06,0.56,0.18,0.71c0.12,0.14,0.32,0.21,0.59,0.21
		c0.1,0,0.21-0.01,0.32-0.03c0.12-0.02,0.22-0.05,0.31-0.09l0.03,0.88c-0.13,0.05-0.27,0.08-0.43,0.11
		c-0.16,0.03-0.32,0.04-0.49,0.04c-0.51,0-0.91-0.14-1.18-0.42s-0.41-0.71-0.41-1.28v-2.95h-1.05v-0.88h1.05v-1.56h1.07v1.56h1.45
		V232.66z"/>
	<path class="st0" d="M97.01,232.38c-0.01-0.23-0.02-0.43-0.03-0.61H98c0.02,0.14,0.03,0.3,0.03,0.48c0.01,0.18,0.01,0.33,0.01,0.44
		h0.03c0.15-0.32,0.38-0.58,0.67-0.78s0.63-0.29,0.99-0.29c0.17,0,0.31,0.02,0.43,0.05l-0.05,1c-0.15-0.04-0.32-0.06-0.49-0.06
		c-0.26,0-0.49,0.05-0.68,0.14c-0.19,0.1-0.35,0.22-0.48,0.38s-0.22,0.35-0.28,0.56c-0.06,0.21-0.09,0.43-0.09,0.66v2.86h-1.08
		v-4.27C97.02,232.8,97.02,232.62,97.01,232.38z"/>
	<path class="st0" d="M105.84,234.45c0,0.06,0,0.12,0,0.18c0,0.06,0,0.12-0.01,0.18h-4.33c0.01,0.23,0.06,0.44,0.15,0.64
		s0.22,0.38,0.39,0.53c0.16,0.15,0.35,0.26,0.56,0.35c0.21,0.08,0.43,0.12,0.67,0.12c0.37,0,0.69-0.08,0.95-0.24
		c0.27-0.16,0.48-0.36,0.63-0.59l0.76,0.61c-0.29,0.39-0.63,0.67-1.03,0.85s-0.83,0.27-1.32,0.27c-0.41,0-0.8-0.07-1.15-0.21
		c-0.35-0.14-0.66-0.33-0.91-0.58c-0.25-0.25-0.45-0.55-0.6-0.9c-0.15-0.35-0.22-0.74-0.22-1.17c0-0.42,0.07-0.81,0.21-1.17
		s0.34-0.66,0.59-0.91c0.25-0.25,0.55-0.45,0.9-0.59c0.35-0.14,0.72-0.21,1.12-0.21c0.4,0,0.76,0.07,1.09,0.2
		c0.33,0.13,0.6,0.32,0.83,0.56s0.4,0.54,0.52,0.89C105.78,233.62,105.84,234.02,105.84,234.45z M104.73,234.02
		c-0.01-0.21-0.04-0.42-0.11-0.6c-0.06-0.19-0.16-0.35-0.29-0.49c-0.13-0.14-0.28-0.25-0.47-0.33c-0.19-0.08-0.41-0.12-0.66-0.12
		c-0.23,0-0.45,0.04-0.65,0.12c-0.2,0.08-0.38,0.19-0.53,0.33c-0.15,0.14-0.27,0.3-0.37,0.49c-0.1,0.19-0.15,0.39-0.17,0.6H104.73z"
		/>
	<path class="st0" d="M110.42,233.7c0-0.41-0.12-0.71-0.37-0.9s-0.57-0.29-0.98-0.29c-0.31,0-0.6,0.06-0.87,0.18
		c-0.27,0.12-0.5,0.27-0.68,0.45l-0.57-0.69c0.27-0.25,0.6-0.45,0.98-0.6s0.8-0.22,1.25-0.22c0.39,0,0.73,0.06,1.02,0.17
		c0.29,0.11,0.52,0.26,0.71,0.45c0.18,0.19,0.32,0.42,0.41,0.68c0.09,0.26,0.14,0.54,0.14,0.84v2.38c0,0.18,0.01,0.38,0.02,0.58
		c0.01,0.2,0.03,0.37,0.06,0.5h-0.98c-0.06-0.26-0.09-0.52-0.09-0.78h-0.03c-0.2,0.29-0.45,0.52-0.75,0.68
		c-0.3,0.16-0.66,0.24-1.07,0.24c-0.21,0-0.44-0.03-0.67-0.09c-0.23-0.06-0.45-0.15-0.64-0.28c-0.19-0.13-0.35-0.3-0.48-0.52
		c-0.13-0.21-0.19-0.48-0.19-0.79c0-0.41,0.11-0.74,0.33-0.98s0.51-0.42,0.87-0.55c0.36-0.13,0.77-0.21,1.22-0.25
		c0.45-0.04,0.91-0.06,1.37-0.06V233.7z M110.16,234.63c-0.27,0-0.55,0.01-0.83,0.03c-0.29,0.02-0.55,0.07-0.78,0.14
		c-0.23,0.07-0.43,0.17-0.58,0.31s-0.23,0.32-0.23,0.55c0,0.16,0.03,0.29,0.1,0.4c0.06,0.11,0.15,0.2,0.26,0.26
		c0.11,0.07,0.23,0.12,0.36,0.14c0.13,0.03,0.26,0.04,0.4,0.04c0.51,0,0.89-0.15,1.17-0.45s0.41-0.68,0.41-1.14v-0.29H110.16z"/>
	<path class="st0" d="M115.58,232.66h-1.45v2.83c0,0.33,0.06,0.56,0.18,0.71c0.12,0.14,0.32,0.21,0.59,0.21
		c0.1,0,0.21-0.01,0.32-0.03c0.12-0.02,0.22-0.05,0.31-0.09l0.03,0.88c-0.13,0.05-0.27,0.08-0.43,0.11
		c-0.16,0.03-0.32,0.04-0.49,0.04c-0.51,0-0.91-0.14-1.18-0.42s-0.41-0.71-0.41-1.28v-2.95h-1.05v-0.88h1.05v-1.56h1.07v1.56h1.45
		V232.66z"/>
	<path class="st0" d="M121.56,234.45c0,0.06,0,0.12,0,0.18c0,0.06,0,0.12-0.01,0.18h-4.33c0.01,0.23,0.06,0.44,0.15,0.64
		s0.22,0.38,0.39,0.53c0.16,0.15,0.35,0.26,0.56,0.35c0.21,0.08,0.43,0.12,0.67,0.12c0.37,0,0.69-0.08,0.95-0.24
		c0.27-0.16,0.48-0.36,0.63-0.59l0.76,0.61c-0.29,0.39-0.63,0.67-1.03,0.85s-0.83,0.27-1.32,0.27c-0.41,0-0.8-0.07-1.15-0.21
		c-0.35-0.14-0.66-0.33-0.91-0.58c-0.25-0.25-0.45-0.55-0.6-0.9c-0.15-0.35-0.22-0.74-0.22-1.17c0-0.42,0.07-0.81,0.21-1.17
		s0.34-0.66,0.59-0.91c0.25-0.25,0.55-0.45,0.9-0.59c0.35-0.14,0.72-0.21,1.12-0.21c0.4,0,0.76,0.07,1.09,0.2
		c0.33,0.13,0.6,0.32,0.83,0.56s0.4,0.54,0.52,0.89C121.5,233.62,121.56,234.02,121.56,234.45z M120.45,234.02
		c-0.01-0.21-0.04-0.42-0.11-0.6c-0.06-0.19-0.16-0.35-0.29-0.49c-0.13-0.14-0.28-0.25-0.47-0.33c-0.19-0.08-0.41-0.12-0.66-0.12
		c-0.23,0-0.45,0.04-0.65,0.12c-0.2,0.08-0.38,0.19-0.53,0.33c-0.15,0.14-0.27,0.3-0.37,0.49c-0.1,0.19-0.15,0.39-0.17,0.6H120.45z"
		/>
	<path class="st0" d="M127.16,236.36c-0.21,0.33-0.49,0.58-0.84,0.75c-0.36,0.17-0.73,0.26-1.12,0.26c-0.42,0-0.8-0.08-1.14-0.22
		c-0.34-0.15-0.62-0.35-0.86-0.62c-0.24-0.26-0.42-0.57-0.55-0.92s-0.2-0.73-0.2-1.13s0.06-0.77,0.2-1.12
		c0.13-0.35,0.32-0.65,0.56-0.91c0.24-0.26,0.53-0.46,0.87-0.61s0.71-0.22,1.11-0.22c0.44,0,0.83,0.09,1.16,0.28
		c0.33,0.19,0.59,0.42,0.78,0.68h0.02v-4.06h1.08v8.69h-1.05v-0.86H127.16z M123.58,234.49c0,0.25,0.04,0.5,0.12,0.73
		c0.08,0.24,0.19,0.45,0.34,0.63c0.15,0.18,0.34,0.33,0.56,0.44c0.22,0.11,0.48,0.17,0.78,0.17c0.28,0,0.53-0.05,0.75-0.16
		c0.23-0.11,0.42-0.25,0.58-0.43c0.16-0.18,0.29-0.39,0.37-0.62c0.09-0.24,0.13-0.49,0.13-0.75s-0.04-0.51-0.13-0.74
		c-0.09-0.24-0.21-0.45-0.37-0.63c-0.16-0.18-0.35-0.33-0.58-0.44c-0.23-0.11-0.48-0.16-0.75-0.16c-0.3,0-0.56,0.05-0.78,0.16
		c-0.22,0.11-0.41,0.25-0.56,0.44c-0.15,0.18-0.27,0.39-0.34,0.63C123.62,234,123.58,234.24,123.58,234.49z"/>
	<path class="st0" d="M132.93,231.78l1.23,4.16h0.02l1.3-4.16h1.14l1.32,4.16h0.02l1.23-4.16h1.14l-1.8,5.45h-1.13l-1.34-4.09h-0.02
		l-1.33,4.09h-1.13l-1.82-5.45H132.93z"/>
	<path class="st0" d="M142.45,229.81c0,0.2-0.07,0.36-0.21,0.49c-0.14,0.13-0.31,0.2-0.51,0.2c-0.2,0-0.36-0.07-0.5-0.2
		s-0.21-0.3-0.21-0.49c0-0.2,0.07-0.37,0.21-0.5s0.3-0.2,0.5-0.2c0.2,0,0.37,0.07,0.51,0.2S142.45,229.61,142.45,229.81z
		 M142.27,237.22h-1.08v-5.45h1.08V237.22z"/>
	<path class="st0" d="M146.59,232.66h-1.45v2.83c0,0.33,0.06,0.56,0.18,0.71c0.12,0.14,0.32,0.21,0.59,0.21
		c0.1,0,0.21-0.01,0.32-0.03c0.12-0.02,0.22-0.05,0.31-0.09l0.03,0.88c-0.13,0.05-0.27,0.08-0.43,0.11
		c-0.16,0.03-0.32,0.04-0.49,0.04c-0.51,0-0.91-0.14-1.18-0.42s-0.41-0.71-0.41-1.28v-2.95h-1.05v-0.88h1.05v-1.56h1.07v1.56h1.45
		V232.66z"/>
	<path class="st0" d="M148.6,232.6c0.13-0.27,0.35-0.5,0.67-0.69s0.67-0.29,1.06-0.29c0.35,0,0.66,0.06,0.91,0.18
		c0.25,0.12,0.46,0.28,0.63,0.48c0.17,0.2,0.29,0.43,0.37,0.7c0.08,0.27,0.12,0.56,0.12,0.86v3.38h-1.08v-3.02
		c0-0.22-0.02-0.43-0.05-0.63c-0.03-0.2-0.1-0.38-0.19-0.53c-0.09-0.15-0.22-0.28-0.37-0.37c-0.16-0.09-0.36-0.14-0.61-0.14
		c-0.43,0-0.78,0.16-1.06,0.49c-0.28,0.33-0.41,0.76-0.41,1.31v2.89h-1.08v-8.69h1.08v4.07H148.6z"/>
	<path class="st0" d="M163.63,235.96c-0.32,0.44-0.74,0.79-1.25,1.06s-1.13,0.41-1.85,0.41c-0.62,0-1.19-0.11-1.72-0.32
		c-0.52-0.21-0.98-0.51-1.36-0.88c-0.38-0.38-0.68-0.83-0.89-1.36c-0.21-0.52-0.32-1.1-0.32-1.73c0-0.64,0.11-1.22,0.33-1.74
		c0.22-0.52,0.52-0.97,0.91-1.34c0.39-0.37,0.84-0.66,1.37-0.87c0.53-0.21,1.1-0.31,1.72-0.31c0.28,0,0.56,0.03,0.84,0.08
		c0.28,0.05,0.56,0.13,0.82,0.24s0.5,0.24,0.71,0.4s0.4,0.34,0.55,0.55l-0.9,0.69c-0.2-0.28-0.48-0.5-0.84-0.68
		c-0.36-0.18-0.76-0.27-1.18-0.27c-0.47,0-0.9,0.09-1.28,0.26c-0.38,0.17-0.7,0.41-0.97,0.71s-0.48,0.65-0.62,1.04
		s-0.22,0.81-0.22,1.26c0,0.46,0.07,0.89,0.21,1.29c0.14,0.4,0.34,0.75,0.61,1.04s0.59,0.53,0.97,0.69c0.38,0.17,0.8,0.25,1.27,0.25
		c0.46,0,0.88-0.09,1.25-0.28c0.38-0.18,0.69-0.45,0.93-0.8L163.63,235.96z"/>
	<path class="st0" d="M169.89,234.49c0,0.42-0.07,0.81-0.22,1.16s-0.36,0.66-0.62,0.91c-0.26,0.26-0.58,0.46-0.94,0.6
		c-0.36,0.14-0.75,0.21-1.16,0.21c-0.41,0-0.8-0.07-1.16-0.21c-0.36-0.14-0.67-0.34-0.93-0.6c-0.26-0.26-0.47-0.56-0.61-0.91
		c-0.15-0.35-0.22-0.74-0.22-1.16c0-0.42,0.07-0.81,0.22-1.16c0.15-0.35,0.35-0.65,0.61-0.9c0.26-0.25,0.57-0.45,0.93-0.59
		c0.36-0.14,0.75-0.21,1.16-0.21c0.41,0,0.8,0.07,1.16,0.21c0.36,0.14,0.67,0.34,0.94,0.59c0.26,0.25,0.47,0.55,0.62,0.9
		S169.89,234.07,169.89,234.49z M168.76,234.49c0-0.26-0.04-0.51-0.12-0.74c-0.08-0.24-0.2-0.45-0.35-0.62
		c-0.15-0.18-0.34-0.32-0.57-0.43c-0.23-0.11-0.49-0.16-0.78-0.16c-0.29,0-0.55,0.05-0.78,0.16c-0.23,0.11-0.42,0.25-0.57,0.43
		c-0.15,0.18-0.27,0.39-0.35,0.62c-0.08,0.24-0.12,0.49-0.12,0.74c0,0.26,0.04,0.51,0.12,0.75c0.08,0.24,0.2,0.45,0.35,0.63
		c0.15,0.18,0.34,0.33,0.57,0.44c0.23,0.11,0.49,0.16,0.78,0.16c0.29,0,0.55-0.05,0.78-0.16c0.23-0.11,0.42-0.25,0.57-0.44
		c0.15-0.18,0.27-0.39,0.35-0.63C168.72,235,168.76,234.75,168.76,234.49z"/>
	<path class="st0" d="M176.67,234.49c0,0.42-0.07,0.81-0.22,1.16s-0.36,0.66-0.62,0.91c-0.26,0.26-0.58,0.46-0.94,0.6
		c-0.36,0.14-0.75,0.21-1.16,0.21c-0.41,0-0.8-0.07-1.16-0.21c-0.36-0.14-0.67-0.34-0.93-0.6c-0.26-0.26-0.47-0.56-0.61-0.91
		c-0.15-0.35-0.22-0.74-0.22-1.16c0-0.42,0.07-0.81,0.22-1.16c0.15-0.35,0.35-0.65,0.61-0.9c0.26-0.25,0.57-0.45,0.93-0.59
		c0.36-0.14,0.75-0.21,1.16-0.21c0.41,0,0.8,0.07,1.16,0.21c0.36,0.14,0.67,0.34,0.94,0.59c0.26,0.25,0.47,0.55,0.62,0.9
		S176.67,234.07,176.67,234.49z M175.54,234.49c0-0.26-0.04-0.51-0.12-0.74c-0.08-0.24-0.2-0.45-0.35-0.62
		c-0.15-0.18-0.34-0.32-0.57-0.43c-0.23-0.11-0.49-0.16-0.78-0.16c-0.29,0-0.55,0.05-0.78,0.16c-0.23,0.11-0.42,0.25-0.57,0.43
		c-0.15,0.18-0.27,0.39-0.35,0.62c-0.08,0.24-0.12,0.49-0.12,0.74c0,0.26,0.04,0.51,0.12,0.75c0.08,0.24,0.2,0.45,0.35,0.63
		c0.15,0.18,0.34,0.33,0.57,0.44c0.23,0.11,0.49,0.16,0.78,0.16c0.29,0,0.55-0.05,0.78-0.16c0.23-0.11,0.42-0.25,0.57-0.44
		c0.15-0.18,0.27-0.39,0.35-0.63C175.5,235,175.54,234.75,175.54,234.49z"/>
	<path class="st0" d="M179.03,237.22h-1.08v-8.69h1.08V237.22z"/>
	<path class="st0" d="M184.79,230.59c-0.16-0.22-0.38-0.4-0.65-0.55s-0.59-0.21-0.93-0.21c-0.18,0-0.37,0.03-0.56,0.08
		c-0.19,0.05-0.36,0.13-0.51,0.24s-0.28,0.25-0.37,0.41c-0.1,0.17-0.14,0.36-0.14,0.59c0,0.22,0.04,0.41,0.13,0.56
		c0.09,0.15,0.21,0.28,0.36,0.38c0.15,0.1,0.33,0.19,0.53,0.26c0.2,0.07,0.42,0.15,0.65,0.22c0.28,0.08,0.56,0.18,0.84,0.29
		c0.28,0.11,0.54,0.25,0.77,0.42s0.42,0.4,0.56,0.66c0.15,0.26,0.22,0.6,0.22,1.01c0,0.42-0.08,0.79-0.24,1.1
		c-0.16,0.31-0.37,0.57-0.63,0.77c-0.26,0.2-0.56,0.35-0.9,0.45s-0.69,0.15-1.05,0.15c-0.51,0-1.01-0.1-1.49-0.3
		c-0.48-0.2-0.88-0.49-1.19-0.88l0.88-0.75c0.19,0.28,0.45,0.51,0.77,0.69c0.32,0.18,0.67,0.26,1.05,0.26
		c0.19,0,0.38-0.03,0.57-0.08c0.19-0.05,0.37-0.14,0.52-0.25c0.16-0.11,0.29-0.26,0.39-0.43c0.1-0.17,0.15-0.38,0.15-0.63
		s-0.05-0.45-0.16-0.62c-0.1-0.16-0.24-0.3-0.42-0.42s-0.38-0.21-0.61-0.29c-0.23-0.08-0.48-0.16-0.74-0.25
		c-0.26-0.08-0.52-0.17-0.77-0.28c-0.25-0.11-0.48-0.25-0.68-0.43c-0.2-0.17-0.36-0.38-0.48-0.64c-0.12-0.25-0.18-0.57-0.18-0.94
		c0-0.41,0.08-0.75,0.25-1.04c0.16-0.29,0.38-0.53,0.64-0.72c0.26-0.19,0.56-0.33,0.9-0.42c0.33-0.09,0.67-0.13,1.01-0.13
		c0.48,0,0.92,0.08,1.33,0.25c0.41,0.17,0.75,0.4,1,0.68L184.79,230.59z"/>
	<path class="st0" d="M190.81,233.16c-0.11-0.18-0.29-0.32-0.52-0.44c-0.23-0.12-0.48-0.18-0.74-0.18c-0.28,0-0.53,0.05-0.75,0.16
		c-0.22,0.11-0.4,0.25-0.56,0.43c-0.15,0.18-0.27,0.39-0.35,0.63c-0.08,0.24-0.12,0.49-0.12,0.75c0,0.26,0.04,0.51,0.12,0.75
		c0.08,0.24,0.2,0.45,0.35,0.63c0.15,0.18,0.34,0.32,0.56,0.43s0.48,0.16,0.76,0.16c0.28,0,0.53-0.05,0.75-0.16
		c0.23-0.11,0.41-0.25,0.56-0.44l0.72,0.65c-0.23,0.27-0.52,0.48-0.86,0.63c-0.34,0.15-0.74,0.22-1.17,0.22
		c-0.42,0-0.81-0.07-1.17-0.21c-0.36-0.14-0.66-0.33-0.92-0.58c-0.26-0.25-0.47-0.55-0.61-0.9c-0.15-0.35-0.22-0.75-0.22-1.18
		c0-0.43,0.07-0.82,0.22-1.17s0.35-0.65,0.61-0.91c0.26-0.25,0.57-0.45,0.92-0.59c0.36-0.14,0.74-0.21,1.15-0.21
		c0.38,0,0.76,0.08,1.14,0.23s0.68,0.38,0.9,0.67L190.81,233.16z"/>
	<path class="st0" d="M196.28,237.22c-0.02-0.14-0.03-0.29-0.03-0.47c-0.01-0.17-0.01-0.32-0.01-0.43h-0.02
		c-0.14,0.29-0.37,0.54-0.7,0.74s-0.69,0.3-1.09,0.3c-0.35,0-0.66-0.06-0.91-0.17c-0.26-0.11-0.47-0.27-0.63-0.48
		s-0.29-0.44-0.37-0.71c-0.08-0.27-0.12-0.56-0.12-0.86v-3.38h1.08v3.01c0,0.22,0.02,0.43,0.05,0.64c0.03,0.2,0.1,0.38,0.19,0.53
		c0.09,0.15,0.22,0.28,0.38,0.37c0.16,0.09,0.37,0.14,0.62,0.14c0.44,0,0.79-0.16,1.06-0.49c0.27-0.33,0.4-0.76,0.4-1.3v-2.9h1.08
		v4.27c0,0.15,0,0.33,0.01,0.56c0.01,0.23,0.02,0.43,0.03,0.61H196.28z"/>
	<path class="st0" d="M200,237.22h-1.08v-8.69H200V237.22z"/>
	<path class="st0" d="M202.74,239.98h-1.08v-8.2h1.06v0.85h0.03c0.18-0.29,0.43-0.53,0.77-0.72c0.34-0.19,0.74-0.28,1.19-0.28
		c0.4,0,0.77,0.07,1.11,0.22s0.62,0.35,0.86,0.61s0.43,0.57,0.56,0.91c0.13,0.35,0.2,0.72,0.2,1.12s-0.07,0.77-0.2,1.13
		s-0.31,0.66-0.55,0.92c-0.24,0.26-0.52,0.47-0.86,0.62c-0.34,0.15-0.71,0.22-1.13,0.22c-0.39,0-0.76-0.08-1.1-0.25
		c-0.34-0.17-0.62-0.41-0.81-0.71h-0.03V239.98z M206.32,234.49c0-0.25-0.04-0.5-0.11-0.74s-0.19-0.45-0.34-0.63
		c-0.15-0.18-0.34-0.33-0.57-0.44c-0.23-0.11-0.49-0.16-0.79-0.16c-0.28,0-0.53,0.05-0.75,0.16c-0.23,0.11-0.42,0.25-0.58,0.44
		c-0.16,0.18-0.29,0.4-0.37,0.63c-0.09,0.24-0.13,0.49-0.13,0.75c0,0.26,0.04,0.51,0.13,0.75c0.09,0.24,0.21,0.45,0.37,0.63
		c0.16,0.18,0.35,0.32,0.58,0.43c0.23,0.11,0.48,0.16,0.75,0.16c0.3,0,0.56-0.05,0.79-0.17s0.42-0.26,0.57-0.44s0.27-0.39,0.34-0.63
		S206.32,234.74,206.32,234.49z"/>
	<path class="st0" d="M211.38,232.66h-1.45v2.83c0,0.33,0.06,0.56,0.18,0.71c0.12,0.14,0.32,0.21,0.59,0.21
		c0.1,0,0.21-0.01,0.32-0.03c0.12-0.02,0.22-0.05,0.31-0.09l0.03,0.88c-0.13,0.05-0.27,0.08-0.43,0.11
		c-0.16,0.03-0.32,0.04-0.49,0.04c-0.51,0-0.91-0.14-1.18-0.42s-0.41-0.71-0.41-1.28v-2.95h-1.05v-0.88h1.05v-1.56h1.07v1.56h1.45
		V232.66z"/>
	<path class="st0" d="M213.53,229.81c0,0.2-0.07,0.36-0.21,0.49c-0.14,0.13-0.31,0.2-0.51,0.2c-0.2,0-0.36-0.07-0.5-0.2
		s-0.21-0.3-0.21-0.49c0-0.2,0.07-0.37,0.21-0.5s0.3-0.2,0.5-0.2c0.2,0,0.37,0.07,0.51,0.2S213.53,229.61,213.53,229.81z
		 M213.35,237.22h-1.08v-5.45h1.08V237.22z"/>
	<path class="st0" d="M215.98,231.78c0.02,0.14,0.03,0.29,0.03,0.46c0.01,0.17,0.01,0.32,0.01,0.43h0.03
		c0.07-0.15,0.16-0.28,0.28-0.41c0.12-0.13,0.25-0.24,0.41-0.33s0.32-0.17,0.51-0.22c0.18-0.05,0.38-0.08,0.57-0.08
		c0.35,0,0.66,0.06,0.91,0.18c0.25,0.12,0.46,0.28,0.63,0.48c0.17,0.2,0.29,0.43,0.37,0.7c0.08,0.27,0.12,0.56,0.12,0.86v3.38h-1.08
		v-3.02c0-0.22-0.02-0.43-0.05-0.63c-0.03-0.2-0.1-0.38-0.19-0.53s-0.22-0.28-0.38-0.37c-0.16-0.09-0.37-0.14-0.62-0.14
		c-0.43,0-0.78,0.16-1.05,0.49c-0.27,0.33-0.41,0.76-0.41,1.3v2.9h-1.08v-4.27c0-0.15,0-0.33-0.01-0.56
		c-0.01-0.23-0.02-0.43-0.03-0.61H215.98z"/>
	<path class="st0" d="M221.89,238.15c0.24,0.27,0.53,0.48,0.89,0.64c0.36,0.16,0.72,0.24,1.1,0.24c0.36,0,0.66-0.05,0.91-0.16
		s0.44-0.25,0.59-0.42c0.15-0.18,0.26-0.39,0.32-0.64c0.06-0.25,0.1-0.51,0.1-0.79v-0.7h-0.02c-0.2,0.31-0.47,0.54-0.82,0.7
		s-0.71,0.24-1.1,0.24c-0.41,0-0.79-0.07-1.13-0.22s-0.63-0.34-0.87-0.6s-0.42-0.55-0.55-0.89c-0.13-0.34-0.2-0.71-0.2-1.1
		s0.06-0.76,0.2-1.1c0.13-0.34,0.31-0.64,0.55-0.9s0.52-0.46,0.86-0.61s0.71-0.22,1.13-0.22c0.39,0,0.76,0.08,1.12,0.25
		c0.36,0.17,0.64,0.42,0.84,0.77h0.02v-0.87h1.05v5.17c0,0.4-0.05,0.78-0.15,1.14c-0.1,0.36-0.27,0.69-0.51,0.97
		c-0.24,0.28-0.55,0.5-0.93,0.67c-0.38,0.17-0.86,0.25-1.43,0.25c-0.47,0-0.95-0.09-1.43-0.26c-0.48-0.17-0.89-0.42-1.24-0.73
		L221.89,238.15z M222.21,234.44c0,0.25,0.04,0.49,0.12,0.72c0.08,0.23,0.2,0.43,0.36,0.61c0.16,0.18,0.35,0.32,0.57,0.43
		c0.22,0.11,0.48,0.16,0.76,0.16c0.28,0,0.53-0.05,0.76-0.15s0.43-0.24,0.59-0.41c0.16-0.17,0.29-0.38,0.37-0.61
		c0.09-0.23,0.13-0.48,0.13-0.75c0-0.26-0.04-0.51-0.13-0.74c-0.09-0.23-0.22-0.43-0.38-0.61s-0.36-0.32-0.59-0.42
		c-0.23-0.1-0.48-0.15-0.75-0.15c-0.28,0-0.54,0.05-0.76,0.15c-0.22,0.1-0.41,0.24-0.57,0.41c-0.16,0.17-0.28,0.38-0.36,0.61
		C222.25,233.93,222.21,234.18,222.21,234.44z"/>
	<path class="st0" d="M232.34,236.21h4.25v1.01h-5.39v-8.14h5.22v1h-4.08v2.44h3.84v0.98h-3.84V236.21z"/>
	<path class="st0" d="M238.92,237.22h-1.08v-8.69h1.08V237.22z"/>
	<path class="st0" d="M241.84,229.81c0,0.2-0.07,0.36-0.21,0.49c-0.14,0.13-0.31,0.2-0.51,0.2c-0.2,0-0.36-0.07-0.5-0.2
		s-0.21-0.3-0.21-0.49c0-0.2,0.07-0.37,0.21-0.5s0.3-0.2,0.5-0.2c0.2,0,0.37,0.07,0.51,0.2S241.84,229.61,241.84,229.81z
		 M241.67,237.22h-1.08v-5.45h1.08V237.22z"/>
	<path class="st0" d="M245.99,232.66h-1.45v2.83c0,0.33,0.06,0.56,0.18,0.71c0.12,0.14,0.32,0.21,0.59,0.21
		c0.1,0,0.21-0.01,0.32-0.03c0.12-0.02,0.22-0.05,0.31-0.09l0.03,0.88c-0.13,0.05-0.27,0.08-0.43,0.11
		c-0.16,0.03-0.32,0.04-0.49,0.04c-0.51,0-0.91-0.14-1.18-0.42s-0.41-0.71-0.41-1.28v-2.95h-1.05v-0.88h1.05v-1.56h1.07v1.56h1.45
		V232.66z"/>
	<path class="st0" d="M251.96,234.45c0,0.06,0,0.12,0,0.18c0,0.06,0,0.12-0.01,0.18h-4.33c0.01,0.23,0.06,0.44,0.15,0.64
		s0.22,0.38,0.39,0.53c0.16,0.15,0.35,0.26,0.56,0.35c0.21,0.08,0.43,0.12,0.67,0.12c0.37,0,0.69-0.08,0.95-0.24
		c0.27-0.16,0.48-0.36,0.63-0.59l0.76,0.61c-0.29,0.39-0.63,0.67-1.03,0.85s-0.83,0.27-1.32,0.27c-0.41,0-0.8-0.07-1.15-0.21
		c-0.35-0.14-0.66-0.33-0.91-0.58c-0.25-0.25-0.45-0.55-0.6-0.9c-0.15-0.35-0.22-0.74-0.22-1.17c0-0.42,0.07-0.81,0.21-1.17
		s0.34-0.66,0.59-0.91c0.25-0.25,0.55-0.45,0.9-0.59c0.35-0.14,0.72-0.21,1.12-0.21c0.4,0,0.76,0.07,1.09,0.2
		c0.33,0.13,0.6,0.32,0.83,0.56s0.4,0.54,0.52,0.89C251.9,233.62,251.96,234.02,251.96,234.45z M250.86,234.02
		c-0.01-0.21-0.04-0.42-0.11-0.6c-0.06-0.19-0.16-0.35-0.29-0.49c-0.13-0.14-0.28-0.25-0.47-0.33c-0.19-0.08-0.41-0.12-0.66-0.12
		c-0.23,0-0.45,0.04-0.65,0.12c-0.2,0.08-0.38,0.19-0.53,0.33c-0.15,0.14-0.27,0.3-0.37,0.49c-0.1,0.19-0.15,0.39-0.17,0.6H250.86z"
		/>
	<path class="st0" d="M261.38,234.49c0,0.42-0.07,0.81-0.22,1.16s-0.36,0.66-0.62,0.91c-0.26,0.26-0.58,0.46-0.94,0.6
		c-0.36,0.14-0.75,0.21-1.16,0.21c-0.41,0-0.8-0.07-1.16-0.21c-0.36-0.14-0.67-0.34-0.93-0.6c-0.26-0.26-0.47-0.56-0.61-0.91
		c-0.15-0.35-0.22-0.74-0.22-1.16c0-0.42,0.07-0.81,0.22-1.16c0.15-0.35,0.35-0.65,0.61-0.9c0.26-0.25,0.57-0.45,0.93-0.59
		c0.36-0.14,0.75-0.21,1.16-0.21c0.41,0,0.8,0.07,1.16,0.21c0.36,0.14,0.67,0.34,0.94,0.59c0.26,0.25,0.47,0.55,0.62,0.9
		S261.38,234.07,261.38,234.49z M260.26,234.49c0-0.26-0.04-0.51-0.12-0.74c-0.08-0.24-0.2-0.45-0.35-0.62
		c-0.15-0.18-0.34-0.32-0.57-0.43c-0.23-0.11-0.49-0.16-0.78-0.16c-0.29,0-0.55,0.05-0.78,0.16c-0.23,0.11-0.42,0.25-0.57,0.43
		c-0.15,0.18-0.27,0.39-0.35,0.62c-0.08,0.24-0.12,0.49-0.12,0.74c0,0.26,0.04,0.51,0.12,0.75c0.08,0.24,0.2,0.45,0.35,0.63
		c0.15,0.18,0.34,0.33,0.57,0.44c0.23,0.11,0.49,0.16,0.78,0.16c0.29,0,0.55-0.05,0.78-0.16c0.23-0.11,0.42-0.25,0.57-0.44
		c0.15-0.18,0.27-0.39,0.35-0.63C260.22,235,260.26,234.75,260.26,234.49z"/>
	<path class="st0" d="M263.62,231.78c0.02,0.14,0.03,0.29,0.03,0.46c0.01,0.17,0.01,0.32,0.01,0.43h0.03
		c0.07-0.15,0.16-0.28,0.28-0.41c0.12-0.13,0.25-0.24,0.41-0.33s0.32-0.17,0.51-0.22c0.18-0.05,0.38-0.08,0.57-0.08
		c0.35,0,0.66,0.06,0.91,0.18c0.25,0.12,0.46,0.28,0.63,0.48c0.17,0.2,0.29,0.43,0.37,0.7c0.08,0.27,0.12,0.56,0.12,0.86v3.38h-1.08
		v-3.02c0-0.22-0.02-0.43-0.05-0.63c-0.03-0.2-0.1-0.38-0.19-0.53s-0.22-0.28-0.38-0.37c-0.16-0.09-0.37-0.14-0.62-0.14
		c-0.43,0-0.78,0.16-1.05,0.49c-0.27,0.33-0.41,0.76-0.41,1.3v2.9h-1.08v-4.27c0-0.15,0-0.33-0.01-0.56
		c-0.01-0.23-0.02-0.43-0.03-0.61H263.62z"/>
	<path class="st0" d="M272.87,232.6c0.13-0.27,0.35-0.5,0.67-0.69s0.67-0.29,1.06-0.29c0.35,0,0.66,0.06,0.91,0.18
		c0.25,0.12,0.46,0.28,0.63,0.48c0.17,0.2,0.29,0.43,0.37,0.7c0.08,0.27,0.12,0.56,0.12,0.86v3.38h-1.08v-3.02
		c0-0.22-0.02-0.43-0.05-0.63c-0.03-0.2-0.1-0.38-0.19-0.53c-0.09-0.15-0.22-0.28-0.37-0.37c-0.16-0.09-0.36-0.14-0.61-0.14
		c-0.43,0-0.78,0.16-1.06,0.49c-0.28,0.33-0.41,0.76-0.41,1.31v2.89h-1.08v-8.69h1.08v4.07H272.87z"/>
	<path class="st0" d="M283.32,234.45c0,0.06,0,0.12,0,0.18c0,0.06,0,0.12-0.01,0.18h-4.33c0.01,0.23,0.06,0.44,0.15,0.64
		s0.22,0.38,0.39,0.53c0.16,0.15,0.35,0.26,0.56,0.35c0.21,0.08,0.43,0.12,0.67,0.12c0.37,0,0.69-0.08,0.95-0.24
		c0.27-0.16,0.48-0.36,0.63-0.59l0.76,0.61c-0.29,0.39-0.63,0.67-1.03,0.85s-0.83,0.27-1.32,0.27c-0.41,0-0.8-0.07-1.15-0.21
		c-0.35-0.14-0.66-0.33-0.91-0.58c-0.25-0.25-0.45-0.55-0.6-0.9c-0.15-0.35-0.22-0.74-0.22-1.17c0-0.42,0.07-0.81,0.21-1.17
		s0.34-0.66,0.59-0.91c0.25-0.25,0.55-0.45,0.9-0.59c0.35-0.14,0.72-0.21,1.12-0.21c0.4,0,0.76,0.07,1.09,0.2
		c0.33,0.13,0.6,0.32,0.83,0.56s0.4,0.54,0.52,0.89C283.26,233.62,283.32,234.02,283.32,234.45z M282.22,234.02
		c-0.01-0.21-0.04-0.42-0.11-0.6c-0.06-0.19-0.16-0.35-0.29-0.49c-0.13-0.14-0.28-0.25-0.47-0.33c-0.19-0.08-0.41-0.12-0.66-0.12
		c-0.23,0-0.45,0.04-0.65,0.12c-0.2,0.08-0.38,0.19-0.53,0.33c-0.15,0.14-0.27,0.3-0.37,0.49c-0.1,0.19-0.15,0.39-0.17,0.6H282.22z"
		/>
	<path class="st0" d="M284.57,232.38c-0.01-0.23-0.02-0.43-0.03-0.61h1.02c0.02,0.14,0.03,0.3,0.03,0.48
		c0.01,0.18,0.01,0.33,0.01,0.44h0.03c0.15-0.32,0.38-0.58,0.67-0.78s0.63-0.29,0.99-0.29c0.17,0,0.31,0.02,0.43,0.05l-0.05,1
		c-0.15-0.04-0.32-0.06-0.49-0.06c-0.26,0-0.49,0.05-0.68,0.14c-0.19,0.1-0.35,0.22-0.48,0.38s-0.22,0.35-0.28,0.56
		c-0.06,0.21-0.09,0.43-0.09,0.66v2.86h-1.08v-4.27C284.58,232.8,284.58,232.62,284.57,232.38z"/>
	<path class="st0" d="M294.54,233.7c0-0.41-0.12-0.71-0.37-0.9s-0.57-0.29-0.98-0.29c-0.31,0-0.6,0.06-0.87,0.18
		c-0.27,0.12-0.5,0.27-0.68,0.45l-0.57-0.69c0.27-0.25,0.6-0.45,0.98-0.6s0.8-0.22,1.25-0.22c0.39,0,0.73,0.06,1.02,0.17
		c0.29,0.11,0.52,0.26,0.71,0.45c0.18,0.19,0.32,0.42,0.41,0.68c0.09,0.26,0.14,0.54,0.14,0.84v2.38c0,0.18,0.01,0.38,0.02,0.58
		c0.01,0.2,0.03,0.37,0.06,0.5h-0.98c-0.06-0.26-0.09-0.52-0.09-0.78h-0.03c-0.2,0.29-0.45,0.52-0.75,0.68
		c-0.3,0.16-0.66,0.24-1.07,0.24c-0.21,0-0.44-0.03-0.67-0.09c-0.23-0.06-0.45-0.15-0.64-0.28c-0.19-0.13-0.35-0.3-0.48-0.52
		c-0.13-0.21-0.19-0.48-0.19-0.79c0-0.41,0.11-0.74,0.33-0.98s0.51-0.42,0.87-0.55c0.36-0.13,0.77-0.21,1.22-0.25
		c0.45-0.04,0.91-0.06,1.37-0.06V233.7z M294.28,234.63c-0.27,0-0.55,0.01-0.83,0.03c-0.29,0.02-0.55,0.07-0.78,0.14
		c-0.23,0.07-0.43,0.17-0.58,0.31s-0.23,0.32-0.23,0.55c0,0.16,0.03,0.29,0.1,0.4c0.06,0.11,0.15,0.2,0.26,0.26
		c0.11,0.07,0.23,0.12,0.36,0.14c0.13,0.03,0.26,0.04,0.4,0.04c0.51,0,0.89-0.15,1.17-0.45s0.41-0.68,0.41-1.14v-0.29H294.28z"/>
	<path class="st0" d="M298.22,236.36v0.86h-1.05v-8.69h1.08v4.06h0.03c0.18-0.27,0.44-0.5,0.77-0.68c0.33-0.19,0.72-0.28,1.17-0.28
		c0.41,0,0.77,0.07,1.11,0.22s0.62,0.35,0.86,0.61s0.43,0.57,0.56,0.91c0.13,0.35,0.2,0.72,0.2,1.12s-0.06,0.77-0.2,1.13
		c-0.13,0.35-0.31,0.66-0.55,0.92c-0.24,0.26-0.52,0.47-0.86,0.62c-0.34,0.15-0.71,0.22-1.13,0.22c-0.39,0-0.76-0.09-1.11-0.26
		c-0.35-0.17-0.63-0.42-0.85-0.75H298.22z M301.84,234.49c0-0.25-0.04-0.5-0.12-0.73c-0.08-0.24-0.19-0.45-0.34-0.63
		c-0.15-0.18-0.34-0.33-0.57-0.44c-0.23-0.11-0.49-0.16-0.79-0.16c-0.28,0-0.53,0.05-0.75,0.16c-0.23,0.11-0.42,0.25-0.58,0.44
		c-0.16,0.18-0.29,0.39-0.37,0.63c-0.09,0.24-0.13,0.48-0.13,0.74s0.04,0.51,0.13,0.75c0.09,0.24,0.21,0.44,0.37,0.62
		c0.16,0.18,0.35,0.32,0.58,0.43c0.23,0.11,0.48,0.16,0.75,0.16c0.3,0,0.56-0.05,0.79-0.17c0.23-0.11,0.42-0.26,0.57-0.44
		c0.15-0.18,0.27-0.39,0.34-0.63C301.8,234.99,301.84,234.75,301.84,234.49z"/>
	<path class="st0" d="M308.57,236.36c-0.21,0.33-0.49,0.58-0.84,0.75c-0.36,0.17-0.73,0.26-1.12,0.26c-0.42,0-0.8-0.08-1.14-0.22
		c-0.34-0.15-0.62-0.35-0.86-0.62c-0.24-0.26-0.42-0.57-0.55-0.92s-0.2-0.73-0.2-1.13s0.06-0.77,0.2-1.12
		c0.13-0.35,0.32-0.65,0.56-0.91c0.24-0.26,0.53-0.46,0.87-0.61s0.71-0.22,1.11-0.22c0.44,0,0.83,0.09,1.16,0.28
		c0.33,0.19,0.59,0.42,0.78,0.68h0.02v-4.06h1.08v8.69h-1.05v-0.86H308.57z M304.99,234.49c0,0.25,0.04,0.5,0.12,0.73
		c0.08,0.24,0.19,0.45,0.34,0.63c0.15,0.18,0.34,0.33,0.56,0.44c0.22,0.11,0.48,0.17,0.78,0.17c0.28,0,0.53-0.05,0.75-0.16
		c0.23-0.11,0.42-0.25,0.58-0.43c0.16-0.18,0.29-0.39,0.37-0.62c0.09-0.24,0.13-0.49,0.13-0.75s-0.04-0.51-0.13-0.74
		c-0.09-0.24-0.21-0.45-0.37-0.63c-0.16-0.18-0.35-0.33-0.58-0.44c-0.23-0.11-0.48-0.16-0.75-0.16c-0.3,0-0.56,0.05-0.78,0.16
		c-0.22,0.11-0.41,0.25-0.56,0.44c-0.15,0.18-0.27,0.39-0.34,0.63C305.03,234,304.99,234.24,304.99,234.49z"/>
	<path class="st0" d="M316.81,234.49c0,0.42-0.07,0.81-0.22,1.16s-0.36,0.66-0.62,0.91c-0.26,0.26-0.58,0.46-0.94,0.6
		c-0.36,0.14-0.75,0.21-1.16,0.21c-0.41,0-0.8-0.07-1.16-0.21c-0.36-0.14-0.67-0.34-0.93-0.6c-0.26-0.26-0.47-0.56-0.61-0.91
		c-0.15-0.35-0.22-0.74-0.22-1.16c0-0.42,0.07-0.81,0.22-1.16c0.15-0.35,0.35-0.65,0.61-0.9c0.26-0.25,0.57-0.45,0.93-0.59
		c0.36-0.14,0.75-0.21,1.16-0.21c0.41,0,0.8,0.07,1.16,0.21c0.36,0.14,0.67,0.34,0.94,0.59c0.26,0.25,0.47,0.55,0.62,0.9
		S316.81,234.07,316.81,234.49z M315.69,234.49c0-0.26-0.04-0.51-0.12-0.74c-0.08-0.24-0.2-0.45-0.35-0.62
		c-0.15-0.18-0.34-0.32-0.57-0.43c-0.23-0.11-0.49-0.16-0.78-0.16c-0.29,0-0.55,0.05-0.78,0.16c-0.23,0.11-0.42,0.25-0.57,0.43
		c-0.15,0.18-0.27,0.39-0.35,0.62c-0.08,0.24-0.12,0.49-0.12,0.74c0,0.26,0.04,0.51,0.12,0.75c0.08,0.24,0.2,0.45,0.35,0.63
		c0.15,0.18,0.34,0.33,0.57,0.44c0.23,0.11,0.49,0.16,0.78,0.16c0.29,0,0.55-0.05,0.78-0.16c0.23-0.11,0.42-0.25,0.57-0.44
		c0.15-0.18,0.27-0.39,0.35-0.63C315.65,235,315.69,234.75,315.69,234.49z"/>
	<path class="st0" d="M319.79,231.93c0.3-0.2,0.66-0.3,1.07-0.3c0.37,0,0.7,0.08,0.99,0.25c0.29,0.17,0.53,0.45,0.7,0.84
		c0.18-0.35,0.44-0.62,0.77-0.81c0.33-0.19,0.69-0.28,1.08-0.28c0.35,0,0.65,0.06,0.91,0.18c0.25,0.12,0.46,0.28,0.63,0.48
		c0.17,0.2,0.29,0.43,0.37,0.7c0.08,0.27,0.12,0.56,0.12,0.86v3.38h-1.08v-3.02c0-0.22-0.02-0.43-0.06-0.63
		c-0.04-0.2-0.1-0.38-0.2-0.53s-0.21-0.28-0.37-0.37c-0.15-0.09-0.35-0.14-0.59-0.14c-0.25,0-0.46,0.05-0.63,0.16
		c-0.18,0.1-0.32,0.24-0.43,0.4s-0.19,0.35-0.24,0.56c-0.05,0.21-0.07,0.42-0.07,0.63v2.94h-1.08v-3.24c0-0.21-0.02-0.41-0.06-0.59
		c-0.04-0.18-0.1-0.33-0.2-0.45c-0.09-0.13-0.21-0.23-0.36-0.3c-0.15-0.07-0.33-0.11-0.54-0.11c-0.4,0-0.73,0.16-0.99,0.49
		c-0.26,0.33-0.4,0.76-0.4,1.3v2.9h-1.08v-4.27c0-0.15,0-0.33-0.01-0.56c-0.01-0.23-0.02-0.43-0.03-0.61h1.02
		c0.02,0.14,0.03,0.29,0.03,0.46c0.01,0.17,0.01,0.32,0.01,0.43h0.03C319.27,232.38,319.49,232.13,319.79,231.93z"/>
	<path class="st0" d="M333.13,234.45c0,0.06,0,0.12,0,0.18c0,0.06,0,0.12-0.01,0.18h-4.33c0.01,0.23,0.06,0.44,0.15,0.64
		s0.22,0.38,0.39,0.53c0.16,0.15,0.35,0.26,0.56,0.35c0.21,0.08,0.43,0.12,0.67,0.12c0.37,0,0.69-0.08,0.95-0.24
		c0.27-0.16,0.48-0.36,0.63-0.59l0.76,0.61c-0.29,0.39-0.63,0.67-1.03,0.85s-0.83,0.27-1.32,0.27c-0.41,0-0.8-0.07-1.15-0.21
		c-0.35-0.14-0.66-0.33-0.91-0.58c-0.25-0.25-0.45-0.55-0.6-0.9c-0.15-0.35-0.22-0.74-0.22-1.17c0-0.42,0.07-0.81,0.21-1.17
		s0.34-0.66,0.59-0.91c0.25-0.25,0.55-0.45,0.9-0.59c0.35-0.14,0.72-0.21,1.12-0.21c0.4,0,0.76,0.07,1.09,0.2
		c0.33,0.13,0.6,0.32,0.83,0.56s0.4,0.54,0.52,0.89C333.07,233.62,333.13,234.02,333.13,234.45z M332.03,234.02
		c-0.01-0.21-0.04-0.42-0.11-0.6c-0.06-0.19-0.16-0.35-0.29-0.49c-0.13-0.14-0.28-0.25-0.47-0.33c-0.19-0.08-0.41-0.12-0.66-0.12
		c-0.23,0-0.45,0.04-0.65,0.12c-0.2,0.08-0.38,0.19-0.53,0.33c-0.15,0.14-0.27,0.3-0.37,0.49c-0.1,0.19-0.15,0.39-0.17,0.6H332.03z"
		/>
	<path class="st0" d="M335.37,231.78c0.02,0.14,0.03,0.29,0.03,0.46c0.01,0.17,0.01,0.32,0.01,0.43h0.03
		c0.07-0.15,0.16-0.28,0.28-0.41c0.12-0.13,0.25-0.24,0.41-0.33s0.32-0.17,0.51-0.22c0.18-0.05,0.38-0.08,0.57-0.08
		c0.35,0,0.66,0.06,0.91,0.18c0.25,0.12,0.46,0.28,0.63,0.48c0.17,0.2,0.29,0.43,0.37,0.7c0.08,0.27,0.12,0.56,0.12,0.86v3.38h-1.08
		v-3.02c0-0.22-0.02-0.43-0.05-0.63c-0.03-0.2-0.1-0.38-0.19-0.53s-0.22-0.28-0.38-0.37c-0.16-0.09-0.37-0.14-0.62-0.14
		c-0.43,0-0.78,0.16-1.05,0.49c-0.27,0.33-0.41,0.76-0.41,1.3v2.9h-1.08v-4.27c0-0.15,0-0.33-0.01-0.56
		c-0.01-0.23-0.02-0.43-0.03-0.61H335.37z"/>
	<path class="st0" d="M342.18,236.53c0,0.2-0.07,0.38-0.22,0.53s-0.33,0.23-0.55,0.23c-0.21,0-0.4-0.08-0.55-0.22
		c-0.15-0.15-0.22-0.32-0.22-0.52c0-0.21,0.07-0.38,0.22-0.53c0.15-0.15,0.33-0.22,0.55-0.22s0.41,0.07,0.55,0.22
		S342.18,236.33,342.18,236.53z"/>
	<path class="st0" d="M347.1,237.22h-1.14v-8.14h2.61c0.39,0,0.76,0.04,1.11,0.12c0.35,0.08,0.66,0.21,0.93,0.38
		c0.26,0.18,0.47,0.41,0.63,0.7s0.23,0.64,0.23,1.05c0,0.6-0.18,1.08-0.55,1.45c-0.37,0.37-0.84,0.6-1.42,0.7l2.28,3.73h-1.38
		l-2.07-3.62h-1.22V237.22z M347.1,232.65h1.31c0.27,0,0.52-0.02,0.75-0.07s0.43-0.12,0.6-0.22s0.31-0.24,0.41-0.4
		c0.1-0.16,0.15-0.37,0.15-0.61s-0.05-0.45-0.15-0.62c-0.1-0.16-0.23-0.3-0.4-0.4c-0.17-0.1-0.36-0.17-0.58-0.21
		c-0.22-0.04-0.46-0.06-0.7-0.06h-1.39V232.65z"/>
	<path class="st0" d="M357.68,234.45c0,0.06,0,0.12,0,0.18c0,0.06,0,0.12-0.01,0.18h-4.33c0.01,0.23,0.06,0.44,0.15,0.64
		s0.22,0.38,0.39,0.53c0.16,0.15,0.35,0.26,0.56,0.35c0.21,0.08,0.43,0.12,0.67,0.12c0.37,0,0.69-0.08,0.95-0.24
		c0.27-0.16,0.48-0.36,0.63-0.59l0.76,0.61c-0.29,0.39-0.63,0.67-1.03,0.85s-0.83,0.27-1.32,0.27c-0.41,0-0.8-0.07-1.15-0.21
		c-0.35-0.14-0.66-0.33-0.91-0.58c-0.25-0.25-0.45-0.55-0.6-0.9c-0.15-0.35-0.22-0.74-0.22-1.17c0-0.42,0.07-0.81,0.21-1.17
		s0.34-0.66,0.59-0.91c0.25-0.25,0.55-0.45,0.9-0.59c0.35-0.14,0.72-0.21,1.12-0.21c0.4,0,0.76,0.07,1.09,0.2
		c0.33,0.13,0.6,0.32,0.83,0.56s0.4,0.54,0.52,0.89C357.62,233.62,357.68,234.02,357.68,234.45z M356.58,234.02
		c-0.01-0.21-0.04-0.42-0.11-0.6c-0.06-0.19-0.16-0.35-0.29-0.49c-0.13-0.14-0.28-0.25-0.47-0.33c-0.19-0.08-0.41-0.12-0.66-0.12
		c-0.23,0-0.45,0.04-0.65,0.12c-0.2,0.08-0.38,0.19-0.53,0.33c-0.15,0.14-0.27,0.3-0.37,0.49c-0.1,0.19-0.15,0.39-0.17,0.6H356.58z"
		/>
	<path class="st0" d="M361.89,233.16c-0.12-0.2-0.3-0.36-0.52-0.49c-0.22-0.13-0.47-0.19-0.75-0.19c-0.12,0-0.25,0.01-0.37,0.04
		c-0.12,0.03-0.23,0.07-0.33,0.13s-0.17,0.13-0.23,0.22c-0.06,0.09-0.09,0.2-0.09,0.33c0,0.23,0.1,0.4,0.31,0.51
		c0.21,0.11,0.52,0.21,0.93,0.3c0.26,0.06,0.5,0.13,0.72,0.22s0.42,0.19,0.58,0.32c0.16,0.13,0.29,0.28,0.38,0.45
		c0.09,0.18,0.14,0.38,0.14,0.62c0,0.32-0.06,0.59-0.18,0.82c-0.12,0.22-0.29,0.4-0.49,0.55c-0.2,0.14-0.44,0.24-0.7,0.3
		c-0.26,0.06-0.53,0.09-0.8,0.09c-0.41,0-0.82-0.08-1.21-0.24s-0.72-0.41-0.98-0.74l0.77-0.66c0.15,0.21,0.35,0.39,0.6,0.54
		c0.26,0.15,0.54,0.22,0.84,0.22c0.14,0,0.27-0.01,0.4-0.04c0.13-0.03,0.24-0.07,0.34-0.13c0.1-0.06,0.19-0.14,0.25-0.24
		c0.06-0.1,0.09-0.23,0.09-0.38c0-0.25-0.12-0.44-0.36-0.56c-0.24-0.12-0.6-0.24-1.06-0.34c-0.18-0.05-0.37-0.1-0.56-0.17
		c-0.19-0.07-0.36-0.16-0.51-0.27c-0.15-0.11-0.28-0.26-0.37-0.43c-0.1-0.17-0.14-0.38-0.14-0.64c0-0.29,0.06-0.54,0.18-0.75
		c0.12-0.21,0.27-0.38,0.47-0.52s0.41-0.23,0.65-0.3s0.5-0.1,0.76-0.1c0.39,0,0.77,0.08,1.13,0.23c0.36,0.15,0.65,0.38,0.84,0.67
		L361.89,233.16z"/>
	<path class="st0" d="M367.66,237.22c-0.02-0.14-0.03-0.29-0.03-0.47c-0.01-0.17-0.01-0.32-0.01-0.43h-0.02
		c-0.14,0.29-0.37,0.54-0.7,0.74s-0.69,0.3-1.09,0.3c-0.35,0-0.66-0.06-0.91-0.17c-0.26-0.11-0.47-0.27-0.63-0.48
		s-0.29-0.44-0.37-0.71c-0.08-0.27-0.12-0.56-0.12-0.86v-3.38h1.08v3.01c0,0.22,0.02,0.43,0.05,0.64c0.03,0.2,0.1,0.38,0.19,0.53
		c0.09,0.15,0.22,0.28,0.38,0.37c0.16,0.09,0.37,0.14,0.62,0.14c0.44,0,0.79-0.16,1.06-0.49c0.27-0.33,0.4-0.76,0.4-1.3v-2.9h1.08
		v4.27c0,0.15,0,0.33,0.01,0.56c0.01,0.23,0.02,0.43,0.03,0.61H367.66z"/>
	<path class="st0" d="M371.38,237.22h-1.08v-8.69h1.08V237.22z"/>
	<path class="st0" d="M375.7,232.66h-1.45v2.83c0,0.33,0.06,0.56,0.18,0.71c0.12,0.14,0.32,0.21,0.59,0.21
		c0.1,0,0.21-0.01,0.32-0.03c0.12-0.02,0.22-0.05,0.31-0.09l0.03,0.88c-0.13,0.05-0.27,0.08-0.43,0.11
		c-0.16,0.03-0.32,0.04-0.49,0.04c-0.51,0-0.91-0.14-1.18-0.42s-0.41-0.71-0.41-1.28v-2.95h-1.05v-0.88h1.05v-1.56h1.07v1.56h1.45
		V232.66z"/>
	<path class="st0" d="M379.53,233.16c-0.12-0.2-0.3-0.36-0.52-0.49c-0.22-0.13-0.47-0.19-0.75-0.19c-0.12,0-0.25,0.01-0.37,0.04
		c-0.12,0.03-0.23,0.07-0.33,0.13s-0.17,0.13-0.23,0.22c-0.06,0.09-0.09,0.2-0.09,0.33c0,0.23,0.1,0.4,0.31,0.51
		c0.21,0.11,0.52,0.21,0.93,0.3c0.26,0.06,0.5,0.13,0.72,0.22s0.42,0.19,0.58,0.32c0.16,0.13,0.29,0.28,0.38,0.45
		c0.09,0.18,0.14,0.38,0.14,0.62c0,0.32-0.06,0.59-0.18,0.82c-0.12,0.22-0.29,0.4-0.49,0.55c-0.2,0.14-0.44,0.24-0.7,0.3
		c-0.26,0.06-0.53,0.09-0.8,0.09c-0.41,0-0.82-0.08-1.21-0.24s-0.72-0.41-0.98-0.74l0.77-0.66c0.15,0.21,0.35,0.39,0.6,0.54
		c0.26,0.15,0.54,0.22,0.84,0.22c0.14,0,0.27-0.01,0.4-0.04c0.13-0.03,0.24-0.07,0.34-0.13c0.1-0.06,0.19-0.14,0.25-0.24
		c0.06-0.1,0.09-0.23,0.09-0.38c0-0.25-0.12-0.44-0.36-0.56c-0.24-0.12-0.6-0.24-1.06-0.34c-0.18-0.05-0.37-0.1-0.56-0.17
		c-0.19-0.07-0.36-0.16-0.51-0.27c-0.15-0.11-0.28-0.26-0.37-0.43c-0.1-0.17-0.14-0.38-0.14-0.64c0-0.29,0.06-0.54,0.18-0.75
		c0.12-0.21,0.27-0.38,0.47-0.52s0.41-0.23,0.65-0.3s0.5-0.1,0.76-0.1c0.39,0,0.77,0.08,1.13,0.23c0.36,0.15,0.65,0.38,0.84,0.67
		L379.53,233.16z"/>
	<path class="st0" d="M385.82,231.93c0.3-0.2,0.66-0.3,1.07-0.3c0.37,0,0.7,0.08,0.99,0.25c0.29,0.17,0.53,0.45,0.7,0.84
		c0.18-0.35,0.44-0.62,0.77-0.81c0.33-0.19,0.69-0.28,1.08-0.28c0.35,0,0.65,0.06,0.91,0.18c0.25,0.12,0.46,0.28,0.63,0.48
		c0.17,0.2,0.29,0.43,0.37,0.7c0.08,0.27,0.12,0.56,0.12,0.86v3.38h-1.08v-3.02c0-0.22-0.02-0.43-0.06-0.63
		c-0.04-0.2-0.1-0.38-0.2-0.53s-0.21-0.28-0.37-0.37c-0.15-0.09-0.35-0.14-0.59-0.14c-0.25,0-0.46,0.05-0.63,0.16
		c-0.18,0.1-0.32,0.24-0.43,0.4s-0.19,0.35-0.24,0.56c-0.05,0.21-0.07,0.42-0.07,0.63v2.94h-1.08v-3.24c0-0.21-0.02-0.41-0.06-0.59
		c-0.04-0.18-0.1-0.33-0.2-0.45c-0.09-0.13-0.21-0.23-0.36-0.3c-0.15-0.07-0.33-0.11-0.54-0.11c-0.4,0-0.73,0.16-0.99,0.49
		c-0.26,0.33-0.4,0.76-0.4,1.3v2.9h-1.08v-4.27c0-0.15,0-0.33-0.01-0.56c-0.01-0.23-0.02-0.43-0.03-0.61h1.02
		c0.02,0.14,0.03,0.29,0.03,0.46c0.01,0.17,0.01,0.32,0.01,0.43h0.03C385.3,232.38,385.52,232.13,385.82,231.93z"/>
	<path class="st0" d="M397.45,233.7c0-0.41-0.12-0.71-0.37-0.9s-0.57-0.29-0.98-0.29c-0.31,0-0.6,0.06-0.87,0.18
		c-0.27,0.12-0.5,0.27-0.68,0.45l-0.57-0.69c0.27-0.25,0.6-0.45,0.98-0.6s0.8-0.22,1.25-0.22c0.39,0,0.73,0.06,1.02,0.17
		c0.29,0.11,0.52,0.26,0.71,0.45c0.18,0.19,0.32,0.42,0.41,0.68c0.09,0.26,0.14,0.54,0.14,0.84v2.38c0,0.18,0.01,0.38,0.02,0.58
		c0.01,0.2,0.03,0.37,0.06,0.5h-0.98c-0.06-0.26-0.09-0.52-0.09-0.78h-0.03c-0.2,0.29-0.45,0.52-0.75,0.68
		c-0.3,0.16-0.66,0.24-1.07,0.24c-0.21,0-0.44-0.03-0.67-0.09c-0.23-0.06-0.45-0.15-0.64-0.28c-0.19-0.13-0.35-0.3-0.48-0.52
		c-0.13-0.21-0.19-0.48-0.19-0.79c0-0.41,0.11-0.74,0.33-0.98s0.51-0.42,0.87-0.55c0.36-0.13,0.77-0.21,1.22-0.25
		c0.45-0.04,0.91-0.06,1.37-0.06V233.7z M397.19,234.63c-0.27,0-0.55,0.01-0.83,0.03c-0.29,0.02-0.55,0.07-0.78,0.14
		c-0.23,0.07-0.43,0.17-0.58,0.31s-0.23,0.32-0.23,0.55c0,0.16,0.03,0.29,0.1,0.4c0.06,0.11,0.15,0.2,0.26,0.26
		c0.11,0.07,0.23,0.12,0.36,0.14c0.13,0.03,0.26,0.04,0.4,0.04c0.51,0,0.89-0.15,1.17-0.45s0.41-0.68,0.41-1.14v-0.29H397.19z"/>
	<path class="st0" d="M402.13,236.05h0.02l1.51-4.27h1.15l-2.64,6.73c-0.09,0.23-0.19,0.43-0.3,0.61c-0.11,0.18-0.23,0.33-0.38,0.46
		s-0.32,0.22-0.51,0.29s-0.43,0.1-0.7,0.1c-0.11,0-0.23-0.01-0.35-0.02c-0.12-0.01-0.24-0.03-0.36-0.06l0.1-0.95
		c0.18,0.06,0.36,0.09,0.54,0.09c0.28,0,0.49-0.08,0.63-0.24c0.14-0.16,0.26-0.38,0.38-0.67l0.34-0.91l-2.33-5.45h1.21
		L402.13,236.05z"/>
	<path class="st0" d="M410.83,237.22h-1.17l-2.22-5.45h1.19l1.6,4.29h0.02l1.61-4.29h1.15L410.83,237.22z"/>
	<path class="st0" d="M417.21,233.7c0-0.41-0.12-0.71-0.37-0.9s-0.57-0.29-0.98-0.29c-0.31,0-0.6,0.06-0.87,0.18
		c-0.27,0.12-0.5,0.27-0.68,0.45l-0.57-0.69c0.27-0.25,0.6-0.45,0.98-0.6s0.8-0.22,1.25-0.22c0.39,0,0.73,0.06,1.02,0.17
		c0.29,0.11,0.52,0.26,0.71,0.45c0.18,0.19,0.32,0.42,0.41,0.68c0.09,0.26,0.14,0.54,0.14,0.84v2.38c0,0.18,0.01,0.38,0.02,0.58
		c0.01,0.2,0.03,0.37,0.06,0.5h-0.98c-0.06-0.26-0.09-0.52-0.09-0.78h-0.03c-0.2,0.29-0.45,0.52-0.75,0.68
		c-0.3,0.16-0.66,0.24-1.07,0.24c-0.21,0-0.44-0.03-0.67-0.09c-0.23-0.06-0.45-0.15-0.64-0.28c-0.19-0.13-0.35-0.3-0.48-0.52
		c-0.13-0.21-0.19-0.48-0.19-0.79c0-0.41,0.11-0.74,0.33-0.98s0.51-0.42,0.87-0.55c0.36-0.13,0.77-0.21,1.22-0.25
		c0.45-0.04,0.91-0.06,1.37-0.06V233.7z M416.95,234.63c-0.27,0-0.55,0.01-0.83,0.03c-0.29,0.02-0.55,0.07-0.78,0.14
		c-0.23,0.07-0.43,0.17-0.58,0.31s-0.23,0.32-0.23,0.55c0,0.16,0.03,0.29,0.1,0.4c0.06,0.11,0.15,0.2,0.26,0.26
		c0.11,0.07,0.23,0.12,0.36,0.14c0.13,0.03,0.26,0.04,0.4,0.04c0.51,0,0.89-0.15,1.17-0.45s0.41-0.68,0.41-1.14v-0.29H416.95z"/>
	<path class="st0" d="M419.81,232.38c-0.01-0.23-0.02-0.43-0.03-0.61h1.02c0.02,0.14,0.03,0.3,0.03,0.48
		c0.01,0.18,0.01,0.33,0.01,0.44h0.03c0.15-0.32,0.38-0.58,0.67-0.78s0.63-0.29,0.99-0.29c0.17,0,0.31,0.02,0.43,0.05l-0.05,1
		c-0.15-0.04-0.32-0.06-0.49-0.06c-0.26,0-0.49,0.05-0.68,0.14c-0.19,0.1-0.35,0.22-0.48,0.38s-0.22,0.35-0.28,0.56
		c-0.06,0.21-0.09,0.43-0.09,0.66v2.86h-1.08v-4.27C419.82,232.8,419.82,232.62,419.81,232.38z"/>
	<path class="st0" d="M425.82,236.05h0.02l1.51-4.27h1.15l-2.64,6.73c-0.09,0.23-0.19,0.43-0.3,0.61c-0.11,0.18-0.23,0.33-0.38,0.46
		s-0.32,0.22-0.51,0.29s-0.43,0.1-0.7,0.1c-0.11,0-0.23-0.01-0.35-0.02c-0.12-0.01-0.24-0.03-0.36-0.06l0.1-0.95
		c0.18,0.06,0.36,0.09,0.54,0.09c0.28,0,0.49-0.08,0.63-0.24c0.14-0.16,0.26-0.38,0.38-0.67l0.34-0.91l-2.33-5.45h1.21
		L425.82,236.05z"/>
	<path class="st0" d="M430.23,236.53c0,0.2-0.07,0.38-0.22,0.53s-0.33,0.23-0.55,0.23c-0.21,0-0.4-0.08-0.55-0.22
		c-0.15-0.15-0.22-0.32-0.22-0.52c0-0.21,0.07-0.38,0.22-0.53c0.15-0.15,0.33-0.22,0.55-0.22s0.41,0.07,0.55,0.22
		S430.23,236.33,430.23,236.53z"/>
</g>
</svg>
