<?xml version="1.0" encoding="utf-8"?>
<!-- Generator: Adobe Illustrator 25.2.1, SVG Export Plug-In . SVG Version: 6.00 Build 0)  -->
<svg version="1.1" id="Layer_1" xmlns="http://www.w3.org/2000/svg" xmlns:xlink="http://www.w3.org/1999/xlink" x="0px" y="0px"
	 viewBox="0 0 970 250" style="enable-background:new 0 0 970 250;" xml:space="preserve">
<style type="text/css">
	.st0{fill:#FFFFFF;}
</style>
<g>
	<g>
		<g>
			<g>
				<path class="st0" d="M60,35.3c0,0.44-0.35,0.79-0.8,0.79c-0.45,0-0.8-0.35-0.8-0.79c0-0.44,0.36-0.78,0.81-0.78
					C59.65,34.52,60,34.86,60,35.3z M58.6,35.3c0,0.35,0.26,0.62,0.61,0.62c0.34,0,0.6-0.28,0.6-0.62c0-0.35-0.26-0.63-0.61-0.63
					C58.86,34.68,58.6,34.96,58.6,35.3z M59.08,35.7H58.9v-0.78c0.07-0.01,0.17-0.02,0.3-0.02c0.15,0,0.21,0.02,0.27,0.06
					c0.05,0.03,0.08,0.09,0.08,0.17c0,0.1-0.07,0.16-0.16,0.19v0.01c0.08,0.02,0.11,0.09,0.14,0.19c0.02,0.12,0.04,0.16,0.06,0.19
					h-0.19c-0.02-0.03-0.04-0.1-0.06-0.19c-0.01-0.08-0.06-0.12-0.16-0.12h-0.09V35.7z M59.08,35.27h0.09c0.1,0,0.18-0.03,0.18-0.11
					c0-0.07-0.05-0.12-0.17-0.12c-0.05,0-0.08,0-0.1,0.01V35.27z"/>
			</g>
		</g>
	</g>
	<path class="st0" d="M71.7,32.58c-3.89,0-5.76-2.84-5.76-5.56c0-3.14,2.26-5.67,5.83-5.67c1.21,0,2.46,0.37,3.45,1.21l-1.1,1.54
		c-0.68-0.53-1.41-0.72-2.28-0.72c-1.89,0-3.3,1.32-3.3,3.58c0,2.07,1.3,3.71,3.36,3.71c0.88,0,1.65-0.27,2.33-0.86l1.01,1.54
		C74.27,32.19,72.95,32.58,71.7,32.58"/>
	<path class="st0" d="M81.22,32.58c-3.25,0-5.65-2.46-5.65-5.67c0-3.3,2.62-5.56,5.65-5.56c3.03,0,5.67,2.24,5.67,5.54
		C86.89,30.12,84.49,32.58,81.22,32.58 M84.27,26.91c0-1.98-0.97-3.69-3.06-3.69c-2.05,0-3.06,1.71-3.06,3.67
		c0,2.02,0.95,3.83,3.06,3.83c2.11,0,3.06-1.78,3.06-3.83V26.91z"/>
	<path class="st0" d="M93.48,32.58c-3.25,0-5.65-2.46-5.65-5.67c0-3.3,2.62-5.56,5.65-5.56c3.03,0,5.67,2.24,5.67,5.54
		C99.15,30.12,96.76,32.58,93.48,32.58 M96.54,26.91c0-1.98-0.97-3.69-3.06-3.69c-2.05,0-3.06,1.71-3.06,3.67
		c0,2.02,0.95,3.83,3.06,3.83c2.11,0,3.06-1.78,3.06-3.83V26.91z"/>
	<polygon class="st0" points="100.43,32.32 100.43,16.58 102.87,17.92 102.87,32.32 	"/>
	<path class="st0" d="M108.5,32.65c-2.75,0-4.07-1.32-4.07-1.32l1.1-1.43c0,0,1.25,0.84,2.9,0.84c0.79,0,1.45-0.55,1.45-1.1
		c0-0.55-0.24-1.01-0.97-1.38c-0.73-0.38-1.54-0.77-2.18-1.08c-0.64-0.31-2.04-1.25-2.04-3.1c0-1.87,1.89-2.9,3.82-2.9
		c1.85,0,3.25,1.21,3.25,1.21l-0.95,1.45c0,0-1.06-0.75-2.22-0.75c-1.16,0-1.41,0.75-1.41,1.05c0,0.31,0.11,0.79,0.86,1.19
		c0.75,0.4,1.52,0.81,2.62,1.43c1.1,0.61,1.71,1.67,1.71,2.86C112.39,30.8,111.25,32.65,108.5,32.65"/>
	<path class="st0" d="M118.98,32.58c-3.89,0-5.76-2.84-5.76-5.56c0-3.14,2.26-5.67,5.83-5.67c1.21,0,2.46,0.37,3.45,1.21l-1.1,1.54
		c-0.68-0.53-1.41-0.72-2.29-0.72c-1.89,0-3.3,1.32-3.3,3.58c0,2.07,1.3,3.71,3.36,3.71c0.88,0,1.65-0.27,2.33-0.86l1.01,1.54
		C121.56,32.19,120.24,32.58,118.98,32.58"/>
	<path class="st0" d="M131.01,31.07c0,0-1.23,1.52-3.56,1.52c-2.75,0-4.09-2-4.09-4.02v-6.97h2.44v6.86c0,1.19,0.93,2.17,2.35,2.17
		c1.25,0,2.48-1.49,2.48-1.49v-7.54h2.44V32.3L131.01,31.07z"/>
	<polygon class="st0" points="135.25,32.32 135.25,16.58 137.69,17.92 137.69,32.32 	"/>
	<path class="st0" d="M145.76,32.58c-2.15,0-3.39-1.21-3.39-1.21v5.34h-2.46V21.37l2.46,1.29c0,0,1.32-1.34,3.52-1.34
		c2.31,0,5.19,1.78,5.19,5.76C151.08,31.07,148.25,32.58,145.76,32.58 M145.61,23.22c-2.09,0-3.3,1.96-3.3,1.96v4.04
		c0,0,1.39,1.56,3.39,1.56c2.33,0,2.84-2.79,2.84-3.76C148.53,26.05,148.31,23.22,145.61,23.22"/>
	<path class="st0" d="M157.5,32.61h-1.54c-1.94,0-2.59-1.87-2.59-3.1V23.2h-1.94v-1.6h1.94v-4.73h2.42v4.73h2.48v1.6h-2.46v5.72
		c0,0.64-0.11,1.65,0.97,1.65h1.76L157.5,32.61z"/>
	<path class="st0" d="M161.41,19.74c-0.88,0-1.6-0.72-1.6-1.6c0-0.88,0.73-1.6,1.6-1.6c0.88,0,1.61,0.72,1.61,1.6
		C163.02,19.02,162.29,19.74,161.41,19.74 M160.2,21.59h2.4v10.73h-2.4V21.59z"/>
	<path class="st0" d="M172.27,32.32v-6.86c0-1.19-0.92-2.17-2.35-2.17c-1.26,0-2.66,1.49-2.66,1.49v7.54h-2.44V21.61l2.07,1.23
		c0,0,1.41-1.52,3.74-1.52c2.75,0,4.09,2,4.09,4.02v6.97H172.27z"/>
	<path class="st0" d="M182.17,37.31c-0.37,0-3.24-0.04-3.24-0.04l0.04-1.96h2.4c2.33,0,3.65-1.25,3.65-2.97v-0.97
		c0,0-1.27,1.21-3.43,1.21c-2.48,0-5.32-1.52-5.32-5.5c0-3.98,2.88-5.76,5.19-5.76c2.2,0,3.52,1.34,3.52,1.34l2.46-1.23V32.1
		C187.44,34.98,185.53,37.31,182.17,37.31 M185.05,25.18c0,0-1.21-1.96-3.3-1.96c-2.7,0-2.92,2.83-2.92,3.8
		c0,0.97,0.5,3.76,2.84,3.76c2,0,3.39-1.56,3.39-1.56V25.18z"/>
	<polygon class="st0" points="44.09,40.46 44.09,33.44 45.46,32.07 49.44,36.04 49.44,37.37 	"/>
	<polygon class="st0" points="41.23,27.44 36.73,31.93 42.23,34 48.8,27.44 	"/>
	<polygon class="st0" points="43.44,21.17 37.66,21.17 39.51,26.52 48.8,26.52 	"/>
	<polygon class="st0" points="49.44,18.31 44.97,13.84 42.88,19.32 49.44,25.88 	"/>
	<polygon class="st0" points="62.97,32.79 56.35,32.79 51.01,27.44 60.28,27.44 	"/>
	<polygon class="st0" points="57.57,19.97 63.57,21.53 58.57,26.53 51.01,26.53 	"/>
	<polygon class="st0" points="50.36,16.6 55.71,13.42 55.71,20.53 50.36,25.88 	"/>
	<polygon class="st0" points="57.17,34.91 55.45,40.76 46.11,31.42 49.9,27.63 	"/>
	<g>
		<path class="st0" d="M191.09,22.32c0,0.63-0.51,1.14-1.16,1.14c-0.65,0-1.17-0.5-1.17-1.14c0-0.64,0.52-1.13,1.17-1.13
			C190.58,21.19,191.09,21.68,191.09,22.32z M189.05,22.32c0,0.5,0.38,0.9,0.89,0.9c0.49,0.01,0.86-0.4,0.86-0.9
			c0-0.5-0.37-0.91-0.88-0.91C189.43,21.42,189.05,21.82,189.05,22.32z M189.75,22.91h-0.26v-1.13c0.1-0.01,0.25-0.03,0.43-0.03
			c0.22,0,0.31,0.03,0.39,0.09c0.07,0.05,0.12,0.13,0.12,0.24c0,0.14-0.1,0.23-0.23,0.27v0.01c0.11,0.03,0.16,0.13,0.2,0.28
			c0.03,0.17,0.06,0.24,0.08,0.28h-0.28c-0.03-0.04-0.05-0.14-0.09-0.28c-0.02-0.12-0.09-0.17-0.23-0.17h-0.12V22.91z M189.76,22.27
			h0.12c0.15,0,0.26-0.05,0.26-0.16c0-0.1-0.08-0.17-0.24-0.17c-0.07,0-0.12,0.01-0.15,0.01V22.27z"/>
	</g>
</g>
<g>
	<path class="st0" d="M197.79,20.54h7.61v1.78h-5.56v2.92h5.27v1.72h-5.27v3.24h5.86v1.82h-7.9V20.54z"/>
	<path class="st0" d="M211.58,20.54h2.04v9.67h4.88v1.82h-6.93V20.54z"/>
	<path class="st0" d="M223.76,20.54h2.04v11.48h-2.04V20.54z"/>
	<path class="st0" d="M234.54,22.32h-3.52v-1.78h9.08v1.78h-3.52v9.7h-2.04V22.32z"/>
	<path class="st0" d="M245.32,20.54h7.61v1.78h-5.56v2.92h5.27v1.72h-5.27v3.24h5.86v1.82h-7.9V20.54z"/>
</g>
</svg>
