<svg id="Layer_1" xmlns="http://www.w3.org/2000/svg" viewBox="0 0 728 90"><style>.st0{fill:#00a9e0}</style><path class="st0" d="M22.13 49.88h3.05c2.2 0 3.24 1.13 3.24 3.44v2.42c0 1.54-.49 2.48-1.48 2.92v.05c.99.44 1.48 1.38 1.48 2.94v7.2h-1.65v-7.09c0-1.76-.5-2.28-2.06-2.28h-.93v9.38h-1.65V49.88zm2.86 8.17c1.38 0 1.79-.52 1.79-2.28V53.6c0-1.76-.41-2.28-1.79-2.28h-1.21v6.74h1.21zM30.48 49.88h5.44v1.43h-3.79v6.63h3.3v1.43h-3.3v8.06h3.79v1.43h-5.44V49.88zM37.47 65.86V52.88c0-2.09 1.1-3.27 3.08-3.27 2.01 0 3.11 1.18 3.11 3.27v3.11h-1.57v-2.83c0-1.49-.44-2.06-1.48-2.06-1.07 0-1.48.58-1.48 2.06v12.43c0 1.49.41 2.06 1.48 2.06 1.04 0 1.48-.58 1.48-2.06v-3.82h1.57v4.1c0 2.09-1.1 3.27-3.11 3.27-1.98-.01-3.08-1.19-3.08-3.28zM45.44 65.69V53.05c0-2.2 1.18-3.44 3.19-3.44s3.19 1.24 3.19 3.44V65.7c0 2.2-1.18 3.44-3.19 3.44s-3.19-1.25-3.19-3.45zm4.73-.27v-12.1c0-1.59-.44-2.23-1.54-2.23-1.13 0-1.54.63-1.54 2.23v12.1c0 1.6.41 2.23 1.54 2.23 1.1 0 1.54-.64 1.54-2.23zM53.91 49.88h2.61l2.12 14h.05l2.12-14h2.72v18.97h-1.65V51.89h-.05l-2.56 16.96h-1.29l-2.56-16.96h-.06v16.96H53.9V49.88zM65.73 49.88h2.61l2.12 14h.05l2.12-14h2.72v18.97H73.7V51.89h-.05l-2.56 16.96H69.8l-2.56-16.96h-.06v16.96h-1.46V49.88zM77.55 49.88H83v1.43h-3.8v6.63h3.3v1.43h-3.3v8.06H83v1.43h-5.44V49.88zM84.64 49.88h2.14l3 13.89h.06V49.88h1.48v18.97h-1.79L86.18 53.2h-.05v15.65h-1.48V49.88zM93.52 49.88h3.13c2.2 0 3.24 1.13 3.24 3.44v12.1c0 2.31-1.04 3.44-3.24 3.44h-3.13V49.88zm2.95 17.55c1.38 0 1.79-.52 1.79-2.28V53.6c0-1.76-.41-2.28-1.79-2.28h-1.29v16.11h1.29zM105.37 65.86V52.88c0-2.09 1.1-3.27 3.08-3.27 2.01 0 3.11 1.18 3.11 3.27v3.11h-1.57v-2.83c0-1.49-.44-2.06-1.48-2.06-1.07 0-1.48.58-1.48 2.06v12.43c0 1.49.41 2.06 1.48 2.06 1.04 0 1.48-.58 1.48-2.06v-3.82h1.57v4.1c0 2.09-1.1 3.27-3.11 3.27-1.98-.01-3.08-1.19-3.08-3.28zM113.35 65.69V53.05c0-2.2 1.18-3.44 3.19-3.44s3.19 1.24 3.19 3.44V65.7c0 2.2-1.18 3.44-3.19 3.44s-3.19-1.25-3.19-3.45zm4.72-.27v-12.1c0-1.59-.44-2.23-1.54-2.23-1.13 0-1.54.63-1.54 2.23v12.1c0 1.6.41 2.23 1.54 2.23 1.1 0 1.54-.64 1.54-2.23zM121.7 65.69V53.05c0-2.2 1.18-3.44 3.19-3.44s3.19 1.24 3.19 3.44V65.7c0 2.2-1.18 3.44-3.19 3.44s-3.19-1.25-3.19-3.45zm4.73-.27v-12.1c0-1.59-.44-2.23-1.54-2.23-1.13 0-1.54.63-1.54 2.23v12.1c0 1.6.41 2.23 1.54 2.23 1.1 0 1.54-.64 1.54-2.23zM130.17 49.88h1.65v17.54h3.52v1.43h-5.17V49.88zM136.58 65.75v-3.33h1.59v3.03c0 1.57.44 2.2 1.54 2.2 1.13 0 1.57-.63 1.57-2.2v-2.86c0-1.29-.36-1.92-1.29-2.53l-1.46-.93c-1.4-.91-1.95-1.95-1.95-3.79v-2.45c0-2.09 1.13-3.27 3.08-3.27 1.95 0 3.08 1.18 3.08 3.27v2.45h-1.59v-2.17c0-1.49-.41-2.06-1.46-2.06s-1.46.58-1.46 2.06v2.06c0 1.29.36 1.92 1.29 2.53l1.46.93c1.4.91 1.95 1.95 1.95 3.79v3.27c0 2.17-1.18 3.38-3.19 3.38s-3.16-1.21-3.16-3.38zM144.66 65.86V52.88c0-2.09 1.1-3.27 3.08-3.27 2.01 0 3.11 1.18 3.11 3.27v3.11h-1.57v-2.83c0-1.49-.44-2.06-1.48-2.06-1.07 0-1.48.58-1.48 2.06v12.43c0 1.49.41 2.06 1.48 2.06 1.04 0 1.48-.58 1.48-2.06v-3.82h1.57v4.1c0 2.09-1.1 3.27-3.11 3.27-1.98-.01-3.08-1.19-3.08-3.28zM152.69 65.8V49.88h1.65V65.5c0 1.54.38 2.14 1.48 2.14s1.48-.6 1.48-2.14V49.88h1.59V65.8c0 2.12-1.15 3.33-3.11 3.33-1.94 0-3.09-1.21-3.09-3.33zM161.04 49.88h1.65v17.54h3.52v1.43h-5.17V49.88zM167.75 49.88h3.13c2.2 0 3.24 1.13 3.24 3.44v2.97c0 2.31-1.04 3.44-3.24 3.44h-1.48v9.13h-1.65V49.88zm2.94 8.42c1.38 0 1.79-.52 1.79-2.28V53.6c0-1.76-.41-2.28-1.79-2.28h-1.29v6.98h1.29zM177.51 51.31h-2.31v-1.43h6.27v1.43h-2.31v17.54h-1.65V51.31zM183.01 49.88h1.65v18.97h-1.65V49.88zM186.86 49.88H189l3 13.89h.06V49.88h1.48v18.97h-1.79L188.4 53.2h-.05v15.65h-1.48V49.88zM195.63 66.16V53.02c0-2.17 1.18-3.41 3.16-3.41 2.01 0 3.13 1.24 3.13 3.41v2.09h-1.57v-1.79c0-1.59-.44-2.23-1.54-2.23-1.13 0-1.54.63-1.54 2.23v12.65c0 1.13.41 1.68 1.32 1.68 1.13 0 1.76-.85 1.76-2.39v-5.44h-1.54v-1.43H202v10.48h-1.4v-1.35h-.08c-.44 1.04-1.24 1.62-2.36 1.62-1.6-.01-2.53-1.14-2.53-2.98zM208.2 51.75c0 1.47-.96 2.42-2.44 2.42s-2.44-.96-2.44-2.42.96-2.42 2.44-2.42c1.48-.01 2.44.95 2.44 2.42zm-.55 0c0-1.16-.74-1.92-1.9-1.92s-1.9.76-1.9 1.92.75 1.92 1.9 1.92 1.9-.76 1.9-1.92zm-1.35.32l.68.98h-.64l-.58-.93h-.4v.93h-.55v-2.62h1.13c.57 0 .98.33.98.85 0 .41-.24.69-.62.79zm-.94-.35h.53c.31 0 .48-.14.48-.43s-.17-.43-.48-.43h-.53v.86zM214.91 51.31h-2.31v-1.43h6.27v1.43h-2.31v17.54h-1.65V51.31zM220.08 65.69V53.05c0-2.2 1.18-3.44 3.19-3.44s3.19 1.24 3.19 3.44V65.7c0 2.2-1.18 3.44-3.19 3.44s-3.19-1.25-3.19-3.45zm4.73-.27v-12.1c0-1.59-.44-2.23-1.54-2.23-1.13 0-1.54.63-1.54 2.23v12.1c0 1.6.41 2.23 1.54 2.23 1.1 0 1.54-.64 1.54-2.23zM233.82 49.88H236l2.39 18.97h-1.68l-.55-4.7h-2.58l-.55 4.7h-1.59l2.38-18.97zM236 62.72l-1.1-10.23h-.06l-1.1 10.23H236zM243.47 49.88h5.44v1.43h-3.79v6.9h3.3v1.43h-3.3v9.21h-1.65V49.88zM250.46 49.88h3.05c2.2 0 3.24 1.13 3.24 3.44v2.42c0 1.54-.49 2.48-1.48 2.92v.05c.99.44 1.48 1.38 1.48 2.94v7.2h-1.65v-7.09c0-1.76-.5-2.28-2.06-2.28h-.93v9.38h-1.65V49.88zm2.85 8.17c1.38 0 1.79-.52 1.79-2.28V53.6c0-1.76-.41-2.28-1.79-2.28h-1.21v6.74h1.21zM258.81 49.88h1.65v18.97h-1.65V49.88zM262.66 49.88h5.44v1.43h-3.79v6.63h3.3v1.43h-3.3v8.06h3.79v1.43h-5.44V49.88zM269.75 49.88h2.14l3 13.89h.06V49.88h1.48v18.97h-1.79l-3.35-15.65h-.05v15.65h-1.48V49.88zM278.63 49.88h3.13c2.2 0 3.24 1.13 3.24 3.44v12.1c0 2.31-1.04 3.44-3.24 3.44h-3.13V49.88zm2.95 17.55c1.38 0 1.79-.52 1.79-2.28V53.6c0-1.76-.41-2.28-1.79-2.28h-1.29v16.11h1.29zM286.96 66.6h1.84v2.25h-1.84V66.6zM289.76 52.8l-1.38.87-.37-.61 1.44-.77-1.44-.75.37-.61 1.38.87-.08-1.62h.72l-.08 1.62 1.38-.87.37.61-1.44.77 1.44.75-.37.61-1.38-.87.08 1.62h-.72l.08-1.62z"/></svg>