<svg id="Layer_1" xmlns="http://www.w3.org/2000/svg" viewBox="0 0 728 90"><style>.st0{fill:#00a9e0}</style><path class="st0" d="M23.05 37.77v-4.24h2.03v3.85c0 2 .56 2.8 1.96 2.8 1.44 0 2-.81 2-2.8v-3.64c0-1.65-.46-2.45-1.65-3.22l-1.86-1.19c-1.79-1.16-2.49-2.49-2.49-4.83v-3.12c0-2.66 1.44-4.17 3.92-4.17 2.49 0 3.92 1.51 3.92 4.17v3.12h-2.03v-2.77c0-1.89-.53-2.63-1.86-2.63s-1.86.74-1.86 2.63v2.63c0 1.65.46 2.45 1.65 3.22l1.86 1.19c1.79 1.16 2.49 2.49 2.49 4.83v4.17c0 2.77-1.51 4.31-4.06 4.31s-4.02-1.55-4.02-4.31zM35.56 19.37h-2.94v-1.82h7.99v1.82h-2.94v22.35h-2.1V19.37zM43.69 17.55h2.77l3.05 24.17h-2.14l-.7-5.99h-3.29l-.7 5.99h-2.03l3.04-24.17zm2.76 16.36l-1.4-13.03h-.07l-1.4 13.03h2.87zM51.57 17.55h3.89c2.8 0 4.13 1.44 4.13 4.38v3.08c0 1.96-.63 3.15-1.89 3.71v.07c1.26.56 1.89 1.75 1.89 3.75v9.18h-2.1v-9.04c0-2.24-.63-2.91-2.63-2.91h-1.19v11.95h-2.1V17.55zm3.64 10.41c1.75 0 2.28-.67 2.28-2.91v-2.77c0-2.24-.53-2.91-2.28-2.91h-1.54v8.58h1.54zM64.36 19.37h-2.94v-1.82h7.99v1.82h-2.94v22.35h-2.1V19.37zM75.22 17.55h2.14l1.82 19.58h.07l2.1-19.58h2.1l2.1 19.58h.07l1.82-19.58h1.96l-2.63 24.17h-2.42L82.4 23.68h-.07l-1.96 18.04h-2.52l-2.63-24.17zM91.51 17.55h2.1v24.17h-2.1V17.55zM98.59 19.37h-2.94v-1.82h7.99v1.82h-2.94v22.35h-2.1V19.37zM105.66 17.55h2.1v10.26h3.96V17.55h2.1v24.17h-2.1V29.64h-3.96v12.09h-2.1V17.55zM123.49 17.55h2.77l3.05 24.17h-2.14l-.7-5.99h-3.29l-.7 5.99h-2.03l3.04-24.17zm2.77 16.36l-1.4-13.03h-.07l-1.4 13.03h2.87zM135.93 17.55h3.99c2.8 0 4.13 1.44 4.13 4.38v3.78c0 2.94-1.33 4.38-4.13 4.38h-1.89v11.63h-2.1V17.55zm3.75 10.72c1.75 0 2.28-.67 2.28-2.91v-3.08c0-2.24-.53-2.91-2.28-2.91h-1.65v8.9h1.65zM146.34 17.55h2.1V39.9h4.48v1.82h-6.59V17.55zM157.3 17.55h2.77l3.05 24.17h-2.14l-.7-5.99h-3.29l-.7 5.99h-2.03l3.04-24.17zm2.77 16.36l-1.4-13.03h-.07l-1.4 13.03h2.87zM165.18 17.55h2.73l3.82 17.69h.07V17.55h1.89v24.17h-2.28l-4.27-19.93h-.07v19.93h-1.89V17.55zM23.44 46.75h3.99c2.8 0 4.13 1.44 4.13 4.38v15.42c0 2.94-1.33 4.38-4.13 4.38h-3.99V46.75zm3.74 22.35c1.75 0 2.28-.67 2.28-2.91V51.48c0-2.24-.53-2.91-2.28-2.91h-1.65V69.1h1.65zM34.26 46.75h6.94v1.82h-4.83v8.44h4.2v1.82h-4.2V69.1h4.83v1.82h-6.94V46.75zM43.05 66.96v-4.24h2.03v3.85c0 2 .56 2.8 1.96 2.8 1.44 0 2-.81 2-2.8v-3.64c0-1.65-.46-2.45-1.65-3.22l-1.86-1.19c-1.79-1.16-2.49-2.49-2.49-4.83v-3.12c0-2.66 1.44-4.17 3.92-4.17 2.49 0 3.92 1.51 3.92 4.17v3.12h-2.03v-2.77c0-1.89-.53-2.63-1.86-2.63s-1.86.74-1.86 2.63v2.63c0 1.65.46 2.45 1.65 3.22l1.86 1.19c1.79 1.16 2.49 2.49 2.49 4.83v4.17c0 2.77-1.51 4.31-4.06 4.31s-4.02-1.54-4.02-4.31zM53.56 46.75h2.1v24.17h-2.1V46.75zM58.4 67.49V50.74c0-2.77 1.51-4.34 4.03-4.34 2.56 0 3.99 1.58 3.99 4.34v2.66h-2v-2.28c0-2.03-.56-2.84-1.96-2.84-1.44 0-1.96.81-1.96 2.84v16.12c0 1.44.53 2.14 1.68 2.14 1.44 0 2.24-1.09 2.24-3.05v-6.94h-1.96v-1.82h4.06v13.35h-1.79V69.2h-.11c-.56 1.33-1.58 2.07-3.01 2.07-2.02 0-3.21-1.44-3.21-3.78zM69.16 46.75h2.73l3.82 17.69h.07V46.75h1.89v24.17h-2.28l-4.27-19.93h-.07v19.93h-1.89V46.75zM80.54 46.75h6.94v1.82h-4.83v8.44h4.2v1.82h-4.2V69.1h4.83v1.82h-6.94V46.75zM89.65 46.75h3.99c2.8 0 4.13 1.44 4.13 4.38v15.42c0 2.94-1.33 4.38-4.13 4.38h-3.99V46.75zM93.4 69.1c1.75 0 2.28-.67 2.28-2.91V51.48c0-2.24-.53-2.91-2.28-2.91h-1.65V69.1h1.65zM107.27 46.75h2.77l3.05 24.17h-2.14l-.7-5.99h-3.29l-.7 5.99h-2.03l3.04-24.17zm2.77 16.36l-1.4-13.03h-.07l-1.4 13.03h2.87zM115.15 46.75h3.89c2.8 0 4.13 1.44 4.13 4.38v3.08c0 1.96-.63 3.15-1.89 3.71v.07c1.26.56 1.89 1.75 1.89 3.75v9.18h-2.1v-9.04c0-2.24-.63-2.91-2.63-2.91h-1.19v11.95h-2.1V46.75zm3.65 10.4c1.75 0 2.28-.67 2.28-2.91v-2.77c0-2.24-.53-2.91-2.28-2.91h-1.54v8.58h1.54zM125.74 66.89V50.78c0-2.8 1.51-4.38 4.06-4.38 2.56 0 4.06 1.58 4.06 4.38V66.9c0 2.8-1.51 4.38-4.06 4.38-2.56-.01-4.06-1.59-4.06-4.39zm6.02-.35V51.13c0-2.03-.56-2.84-1.96-2.84-1.44 0-1.96.81-1.96 2.84v15.42c0 2.03.53 2.84 1.96 2.84 1.4-.01 1.96-.82 1.96-2.85zM136.53 67.03V46.75h2.1v19.9c0 1.96.49 2.73 1.89 2.73s1.89-.77 1.89-2.73v-19.9h2.03v20.29c0 2.7-1.47 4.24-3.96 4.24s-3.95-1.55-3.95-4.25zM147.25 46.75h2.73l3.82 17.69h.07V46.75h1.89v24.17h-2.28l-4.27-19.93h-.07v19.93h-1.89V46.75zM158.63 46.75h3.99c2.8 0 4.13 1.44 4.13 4.38v15.42c0 2.94-1.33 4.38-4.13 4.38h-3.99V46.75zm3.75 22.35c1.75 0 2.28-.67 2.28-2.91V51.48c0-2.24-.53-2.91-2.28-2.91h-1.65V69.1h1.65zM176.54 59.64l-3.4-12.89h2.17l2.31 9.56h.07l2.31-9.56h2.03l-3.4 12.89v11.28h-2.1V59.64zM183.37 66.89V50.78c0-2.8 1.51-4.38 4.06-4.38 2.56 0 4.06 1.58 4.06 4.38V66.9c0 2.8-1.51 4.38-4.06 4.38-2.56-.01-4.06-1.59-4.06-4.39zm6.02-.35V51.13c0-2.03-.56-2.84-1.96-2.84-1.44 0-1.96.81-1.96 2.84v15.42c0 2.03.53 2.84 1.96 2.84 1.4-.01 1.96-.82 1.96-2.85zM194.16 67.03V46.75h2.1v19.9c0 1.96.49 2.73 1.89 2.73s1.89-.77 1.89-2.73v-19.9h2.03v20.29c0 2.7-1.47 4.24-3.96 4.24s-3.95-1.55-3.95-4.25zM204.81 68.05h2.35v2.87h-2.35v-2.87z"/></svg>