<svg id="Layer_1" xmlns="http://www.w3.org/2000/svg" viewBox="0 0 728 90"><style>.st0{fill:#00a9e0}</style><path class="st0" d="M25.83 20.61h-3.19v-1.97h8.66v1.97h-3.19v24.22h-2.28V20.61zM34.72 18.64h3l3.3 26.19H38.7l-.76-6.49h-3.57l-.76 6.49h-2.2l3.31-26.19zm3 17.73L36.2 22.24h-.08L34.6 36.37h3.12zM43.33 18.64h2.28v24.22h4.86v1.97h-7.14V18.64zM59.96 44.83L55.1 31.62h-.08v13.21h-2.28V18.64h2.28v12.22h.08l4.75-12.22h2.32l-4.9 12.49 5.12 13.71h-2.43zM71.96 20.61h-3.19v-1.97h8.66v1.97h-3.19v24.22h-2.28V20.61zM79.24 40.47V23c0-3.04 1.63-4.75 4.4-4.75s4.4 1.71 4.4 4.75v17.46c0 3.04-1.63 4.75-4.4 4.75s-4.4-1.71-4.4-4.74zm6.53-.38v-16.7c0-2.2-.61-3.08-2.13-3.08-1.56 0-2.13.87-2.13 3.08v16.7c0 2.2.57 3.08 2.13 3.08 1.53-.01 2.13-.88 2.13-3.08zM98.83 32.61l-3.68-13.97h2.35L100.01 29h.08l2.51-10.36h2.2l-3.68 13.97v12.22h-2.28V32.61zM106.31 40.47V23c0-3.04 1.63-4.75 4.4-4.75s4.4 1.71 4.4 4.75v17.46c0 3.04-1.63 4.75-4.4 4.75s-4.4-1.71-4.4-4.74zm6.53-.38v-16.7c0-2.2-.61-3.08-2.13-3.08-1.56 0-2.13.87-2.13 3.08v16.7c0 2.2.57 3.08 2.13 3.08 1.52-.01 2.13-.88 2.13-3.08zM118.08 40.62V18.64h2.28V40.2c0 2.13.53 2.96 2.05 2.96s2.05-.83 2.05-2.96V18.64h2.2v21.98c0 2.92-1.59 4.59-4.29 4.59s-4.29-1.67-4.29-4.59zM129.77 18.64h4.21c3.04 0 4.48 1.56 4.48 4.75v3.34c0 2.13-.68 3.42-2.05 4.02v.08c1.37.61 2.05 1.9 2.05 4.06v9.95h-2.28v-9.79c0-2.43-.68-3.15-2.85-3.15h-1.29v12.95h-2.28V18.64zm3.95 11.27c1.9 0 2.47-.72 2.47-3.15v-3c0-2.43-.57-3.15-2.47-3.15h-1.67v9.3h1.67zM146.47 18.64h4.33c3.04 0 4.48 1.56 4.48 4.75v4.1c0 3.19-1.44 4.75-4.48 4.75h-2.05v12.6h-2.28v-26.2zm4.07 11.61c1.9 0 2.47-.72 2.47-3.15v-3.34c0-2.43-.57-3.15-2.47-3.15h-1.78v9.64h1.78zM157.83 18.64h4.21c3.04 0 4.48 1.56 4.48 4.75v3.34c0 2.13-.68 3.42-2.05 4.02v.08c1.37.61 2.05 1.9 2.05 4.06v9.95h-2.28v-9.79c0-2.43-.68-3.15-2.85-3.15h-1.29v12.95h-2.28V18.64zm3.94 11.27c1.9 0 2.47-.72 2.47-3.15v-3c0-2.43-.57-3.15-2.47-3.15h-1.67v9.3h1.67zM169.37 40.47V23c0-3.04 1.63-4.75 4.4-4.75 2.77 0 4.4 1.71 4.4 4.75v17.46c0 3.04-1.63 4.75-4.4 4.75-2.77 0-4.4-1.71-4.4-4.74zm6.53-.38v-16.7c0-2.2-.61-3.08-2.13-3.08-1.56 0-2.13.87-2.13 3.08v16.7c0 2.2.57 3.08 2.13 3.08 1.52-.01 2.13-.88 2.13-3.08zM180.26 18.64h2.32l2.39 22.02h.08l2.39-22.02h2.16l-3.15 26.19h-3.04l-3.15-26.19zM191.95 18.64h2.28v26.19h-2.28V18.64zM197.42 18.64h4.33c3.04 0 4.48 1.56 4.48 4.75v16.7c0 3.19-1.44 4.75-4.48 4.75h-4.33v-26.2zm4.06 24.22c1.9 0 2.47-.72 2.47-3.15V23.76c0-2.43-.57-3.15-2.47-3.15h-1.78v22.25h1.78zM209.23 18.64h7.52v1.97h-5.24v9.15h4.56v1.97h-4.56v11.12h5.24v1.97h-7.52V18.64zM219.17 18.64h4.21c3.04 0 4.48 1.56 4.48 4.75v3.34c0 2.13-.68 3.42-2.05 4.02v.08c1.37.61 2.05 1.9 2.05 4.06v9.95h-2.28v-9.79c0-2.43-.68-3.15-2.85-3.15h-1.29v12.95h-2.28V18.64zm3.95 11.27c1.9 0 2.47-.72 2.47-3.15v-3c0-2.43-.57-3.15-2.47-3.15h-1.67v9.3h1.67zM238.31 18.64h3l3.3 26.19h-2.32l-.76-6.49h-3.57l-.76 6.49H235l3.31-26.19zm3 17.73l-1.52-14.12h-.08l-1.52 14.12h3.12zM246.92 18.64h4.21c3.04 0 4.48 1.56 4.48 4.75v3.15c0 2.13-.65 3.42-1.97 4.02v.08c1.44.61 2.13 1.9 2.13 4.1v5.35c0 3.19-1.44 4.75-4.48 4.75h-4.37v-26.2zm3.95 11.12c1.9 0 2.47-.72 2.47-3.11v-2.89c0-2.43-.57-3.15-2.47-3.15h-1.67v9.15h1.67zm.15 13.1c1.9 0 2.47-.72 2.47-3.15v-4.82c0-2.43-.57-3.15-2.47-3.15h-1.82v11.12h1.82zM258.46 40.47V23c0-3.04 1.63-4.75 4.4-4.75 2.77 0 4.4 1.71 4.4 4.75v17.46c0 3.04-1.63 4.75-4.4 4.75-2.76 0-4.4-1.71-4.4-4.74zm6.53-.38v-16.7c0-2.2-.61-3.08-2.13-3.08-1.56 0-2.13.87-2.13 3.08v16.7c0 2.2.57 3.08 2.13 3.08 1.53-.01 2.13-.88 2.13-3.08zM270.23 40.62V18.64h2.28V40.2c0 2.13.53 2.96 2.05 2.96s2.05-.83 2.05-2.96V18.64h2.2v21.98c0 2.92-1.59 4.59-4.29 4.59s-4.29-1.67-4.29-4.59zM284.2 20.61h-3.19v-1.97h8.66v1.97h-3.19v24.22h-2.28V20.61zM25.99 50.23h3l3.3 26.2h-2.32l-.76-6.49h-3.57l-.76 6.49h-2.2l3.31-26.2zm2.99 17.73l-1.52-14.12h-.08l-1.52 14.12h3.12zM39.61 50.23h4.33c3.04 0 4.48 1.56 4.48 4.75v4.1c0 3.19-1.44 4.75-4.48 4.75h-2.05v12.6h-2.28v-26.2zm4.06 11.62c1.9 0 2.47-.72 2.47-3.15v-3.34c0-2.43-.57-3.15-2.47-3.15h-1.78v9.64h1.78zM50.96 50.23h7.52v1.97h-5.24v9.15h4.56v1.97h-4.56v11.12h5.24v1.97h-7.52V50.23zM60.91 50.23h4.21c3.04 0 4.48 1.56 4.48 4.75v3.34c0 2.13-.68 3.42-2.05 4.02v.08c1.37.61 2.05 1.9 2.05 4.06v9.95h-2.28v-9.79c0-2.43-.68-3.15-2.85-3.15h-1.29v12.95H60.9V50.23zm3.95 11.27c1.9 0 2.47-.72 2.47-3.15v-3c0-2.43-.57-3.15-2.47-3.15h-1.67v9.3h1.67zM72.18 72.13v-4.59h2.2v4.18c0 2.16.61 3.04 2.13 3.04 1.56 0 2.16-.87 2.16-3.04v-3.95c0-1.79-.49-2.66-1.78-3.49l-2.01-1.29c-1.94-1.25-2.7-2.7-2.7-5.24v-3.38c0-2.89 1.56-4.52 4.25-4.52 2.7 0 4.25 1.63 4.25 4.52v3.38h-2.2v-3c0-2.05-.57-2.85-2.01-2.85s-2.01.8-2.01 2.85v2.85c0 1.78.49 2.66 1.78 3.49l2.01 1.29c1.94 1.25 2.7 2.7 2.7 5.24v4.52c0 3-1.63 4.67-4.4 4.67-2.77-.01-4.37-1.68-4.37-4.68zM83.5 72.06V54.6c0-3.04 1.63-4.75 4.4-4.75 2.77 0 4.4 1.71 4.4 4.75v17.46c0 3.04-1.63 4.75-4.4 4.75-2.77-.01-4.4-1.71-4.4-4.75zm6.53-.38v-16.7c0-2.2-.61-3.08-2.13-3.08-1.56 0-2.13.87-2.13 3.08v16.7c0 2.2.57 3.07 2.13 3.07 1.52 0 2.13-.87 2.13-3.07zM95.34 50.23h2.96l4.14 19.17h.08V50.23h2.05v26.2h-2.47l-4.63-21.6h-.08v21.6h-2.05v-26.2zM110.19 50.23h3l3.3 26.2h-2.32l-.76-6.49h-3.57l-.76 6.49h-2.2l3.31-26.2zm2.99 17.73l-1.52-14.12h-.08l-1.52 14.12h3.12zM118.8 50.23h2.28v24.22h4.86v1.97h-7.14V50.23zM128.22 50.23h2.28v26.2h-2.28v-26.2zM132.85 74.64l6.19-22.44h-5.81v-1.97h8.2v1.78l-6.19 22.44h6.19v1.97h-8.58v-1.78zM143.82 50.23h7.52v1.97h-5.24v9.15h4.56v1.97h-4.56v11.12h5.24v1.97h-7.52V50.23zM153.76 50.23h4.33c3.04 0 4.48 1.56 4.48 4.75v16.7c0 3.19-1.44 4.75-4.48 4.75h-4.33v-26.2zm4.07 24.22c1.9 0 2.47-.72 2.47-3.15V55.35c0-2.43-.57-3.15-2.47-3.15h-1.78v22.25h1.78zM172.86 52.2h-3.19v-1.97h8.66v1.97h-3.19v24.22h-2.28V52.2zM180.6 50.23h4.21c3.04 0 4.48 1.56 4.48 4.75v3.34c0 2.13-.68 3.42-2.05 4.02v.08c1.37.61 2.05 1.9 2.05 4.06v9.95h-2.28v-9.79c0-2.43-.68-3.15-2.85-3.15h-1.29v12.95h-2.28V50.23zm3.95 11.27c1.9 0 2.47-.72 2.47-3.15v-3c0-2.43-.57-3.15-2.47-3.15h-1.67v9.3h1.67zM192.3 50.23h7.52v1.97h-5.24v9.15h4.56v1.97h-4.56v11.12h5.24v1.97h-7.52V50.23zM204.78 50.23h3l3.3 26.2h-2.32l-.76-6.49h-3.57l-.76 6.49h-2.2l3.31-26.2zm3 17.73l-1.52-14.12h-.08l-1.52 14.12h3.12zM214.39 52.2h-3.19v-1.97h8.66v1.97h-3.19v24.22h-2.28V52.2zM222.13 50.23h3.61l2.92 19.32h.08l2.92-19.32h3.76v26.2h-2.28V53h-.08l-3.53 23.42h-1.78L224.22 53h-.08v23.42h-2.01V50.23zM238.61 50.23h7.52v1.97h-5.24v9.15h4.56v1.97h-4.56v11.12h5.24v1.97h-7.52V50.23zM248.55 50.23h2.96l4.14 19.17h.08V50.23h2.05v26.2h-2.47l-4.63-21.6h-.08v21.6h-2.05v-26.2zM263.25 52.2h-3.19v-1.97h8.66v1.97h-3.19v24.22h-2.28V52.2zM276 50.23h4.33c3.04 0 4.48 1.56 4.48 4.75v4.1c0 3.19-1.44 4.75-4.48 4.75h-2.05v12.6H276v-26.2zm4.06 11.62c1.9 0 2.47-.72 2.47-3.15v-3.34c0-2.43-.57-3.15-2.47-3.15h-1.78v9.64h1.78zM287.35 50.23h2.28v24.22h4.86v1.97h-7.14V50.23zM299.31 50.23h3l3.3 26.2h-2.32l-.76-6.49h-3.57l-.76 6.49H296l3.31-26.2zm3 17.73l-1.52-14.12h-.08l-1.52 14.12h3.12zM307.93 50.23h2.96l4.14 19.17h.08V50.23h2.05v26.2h-2.47l-4.63-21.6h-.08v21.6h-2.05v-26.2zM320.34 73.31h2.54v3.11h-2.54v-3.11z"/></svg>