<svg id="Layer_1" xmlns="http://www.w3.org/2000/svg" viewBox="0 0 728 90"><style>.st0{fill:#eaf5fb}.st1{fill:#002457}</style><path class="st0" d="M326 45.5h124.46v25H326z"/><path class="st1" d="M340.59 55.81v1.6h3.1v1.52h-3.1v2.9h-1.96V54.3h5.86v1.52h-3.9zM347.58 61.83h-1.96V54.3h1.96v7.53zM356.03 61.83h-2.18l-2.34-4.07-.57-1.14h-.01l.05 1.42v3.8h-1.74v-7.53h2.18l2.34 4.08.57 1.14h.01l-.05-1.42v-3.8h1.73v7.52zM364.54 58.06c0 2.41-1.29 3.77-3.65 3.77h-3.2V54.3h3.2c2.36-.01 3.65 1.35 3.65 3.76zm-2.01 0c0-1.51-.56-2.28-1.84-2.28h-1.04v4.57h1.04c1.29-.01 1.84-.78 1.84-2.29zM373.21 60.13h-2.6l-.52 1.7h-1.97l2.65-7.53h2.35l2.64 7.53h-2.02l-.53-1.7zm-.41-1.34l-.55-1.8-.33-1.19h-.02l-.31 1.18-.56 1.81h1.77zM386 56.79c0 1.54-1.04 2.42-2.91 2.42h-1.5v2.61h-1.96v-7.53h3.46c1.87 0 2.91.88 2.91 2.5zm-1.97-.02c0-.66-.38-.99-1.24-.99h-1.19v2h1.19c.86 0 1.24-.34 1.24-1.01zM390.36 59.08h-1.18v2.75h-1.93V54.3h3.6c1.81 0 2.84.84 2.84 2.4 0 1.1-.51 1.84-1.46 2.18l1.91 2.96h-2.17l-1.61-2.76zm-1.18-1.4h1.34c.83 0 1.2-.29 1.2-.96 0-.66-.37-.95-1.2-.95h-1.34v1.91zM402.1 58.06c0 2.43-1.39 3.88-3.69 3.88s-3.7-1.45-3.7-3.88c0-2.43 1.4-3.88 3.7-3.88s3.69 1.45 3.69 3.88zm-5.37 0c0 1.54.59 2.34 1.69 2.34 1.08 0 1.68-.8 1.68-2.34s-.59-2.34-1.68-2.34c-1.1 0-1.69.8-1.69 2.34zM407.46 61.83h-2.31l-2.68-7.53h2.07l1.38 4.55.41 1.48.4-1.46 1.4-4.58h2l-2.67 7.54zM412.99 61.83h-1.96V54.3h1.96v7.53zM421.51 58.06c0 2.41-1.29 3.77-3.65 3.77h-3.2V54.3h3.2c2.36-.01 3.65 1.35 3.65 3.76zm-2.01 0c0-1.51-.56-2.28-1.84-2.28h-1.04v4.57h1.04c1.28-.01 1.84-.78 1.84-2.29zM428.87 60.31v1.52h-6.02V54.3h5.87v1.52h-3.9v1.53h3.1v1.43h-3.1v1.54h4.05zM433.15 59.08h-1.18v2.75h-1.93V54.3h3.6c1.81 0 2.84.84 2.84 2.4 0 1.1-.51 1.84-1.46 2.18l1.91 2.96h-2.17l-1.61-2.76zm-1.17-1.4h1.34c.83 0 1.2-.29 1.2-.96 0-.66-.37-.95-1.2-.95h-1.34v1.91z"/></svg>