<svg id="Layer_1" xmlns="http://www.w3.org/2000/svg" viewBox="0 0 728 90"><style>.st0{fill:#bdd6e6}</style><path class="st0" d="M24.99 83.37l-.31-.69-.12-.4-.29.37-.59.58-.35-.36.6-.58.38-.28-.39-.13-.68-.33.24-.45.68.32.36.24.04-.45.16-.76h.54l-.19.81-.16.43.44-.15.79-.16.03.5-.78.16-.46.03.23.36.31.68-.48.26zM30.25 80.91l-.14.57h-1.37l-.82 3.55h-.67l.82-3.55h-1.39l.14-.57h3.43zM29.84 85.03l1.05-4.53h.67l-.47 2.06-.1.07a.91.91 0 0 1 .26-.42c.12-.12.25-.21.41-.27s.33-.09.51-.09c.23 0 .42.05.58.15.16.1.28.25.35.43.07.19.07.41.02.68l-.45 1.92H32l.44-1.87c.05-.24.03-.42-.07-.56-.1-.13-.26-.2-.47-.2-.17 0-.32.04-.45.11-.13.08-.24.18-.33.33s-.16.32-.21.54l-.38 1.66h-.69zM35.15 85.09c-.3 0-.55-.06-.76-.18s-.38-.29-.49-.5a1.42 1.42 0 0 1-.17-.72c0-.33.07-.64.2-.92s.33-.5.58-.67c.25-.17.56-.25.92-.25.27 0 .5.05.69.16.19.11.34.26.44.45.1.19.15.42.15.68 0 .08 0 .17-.02.26-.01.09-.03.17-.06.26H34.1v-.51h2.16l-.24.17c.02-.05.03-.1.03-.15 0-.05.01-.09.01-.13 0-.14-.03-.26-.08-.36a.512.512 0 0 0-.23-.23.797.797 0 0 0-.36-.08.9.9 0 0 0-.8.43c-.08.13-.14.28-.17.43-.03.16-.05.31-.05.47 0 .17.03.33.1.45a.7.7 0 0 0 .29.3c.12.07.27.11.43.11.2 0 .35-.04.48-.12.12-.08.22-.19.3-.32l.54.29c-.08.14-.19.26-.33.37-.14.1-.29.18-.46.23-.17.05-.36.08-.57.08zM38.79 86.34l1.02-4.44h.59l-.16.86-.07.04a1.233 1.233 0 0 1 .67-.84c.17-.08.35-.11.54-.11.21 0 .4.05.57.16.17.1.3.25.4.45.1.2.15.44.15.71 0 .26-.04.51-.12.74-.08.23-.19.43-.33.61s-.31.31-.5.41c-.19.1-.4.15-.62.15-.2 0-.37-.04-.53-.11a.914.914 0 0 1-.37-.33c-.09-.15-.14-.32-.16-.53l.11-.1-.53 2.32h-.66zm2.06-1.79c.14 0 .27-.03.39-.1s.23-.17.32-.29c.09-.12.16-.27.21-.43.05-.16.07-.33.07-.52 0-.18-.03-.33-.09-.45s-.15-.22-.26-.28a.796.796 0 0 0-.79.01c-.12.07-.23.17-.32.29-.09.12-.16.27-.21.43-.05.17-.07.34-.07.53 0 .24.06.44.19.58.13.16.32.23.56.23zM42.91 85.03l.73-3.12h.56l-.1.84-.07-.06c.07-.17.16-.33.27-.45.11-.12.25-.22.4-.29.15-.07.31-.1.47-.1.07 0 .13 0 .18.01.05.01.1.02.13.04l-.18.6a.578.578 0 0 0-.14-.05c-.05-.01-.12-.02-.2-.02-.15 0-.29.03-.42.1s-.25.17-.35.32c-.1.14-.18.33-.23.56l-.37 1.62h-.68zM46.76 81.91l-.72 3.12h-.67l.73-3.12h.66zm-.15-.53c-.12 0-.23-.03-.3-.1-.08-.07-.11-.16-.1-.28 0-.15.05-.26.14-.34.09-.08.2-.12.33-.12s.23.03.3.1.11.15.1.27c-.01.15-.06.27-.14.35s-.2.12-.33.12zM47.01 85.03l.73-3.12h.59l-.13.79-.06-.04c.09-.27.24-.47.46-.6.22-.13.46-.2.72-.2.22 0 .41.05.57.15.16.1.27.25.33.44s.06.42 0 .69l-.44 1.9h-.67l.44-1.86c.06-.24.04-.43-.05-.57-.09-.14-.24-.21-.45-.21-.17 0-.31.04-.44.11-.13.08-.24.18-.32.33-.09.14-.16.32-.21.54l-.38 1.66h-.69zm4.18 0l.43-1.86c.05-.24.04-.43-.06-.57-.09-.14-.24-.21-.44-.21-.17 0-.32.04-.45.11-.13.08-.23.18-.32.33-.09.14-.16.32-.21.54l-.06-.61c.11-.31.29-.54.52-.69s.5-.23.78-.23c.22 0 .41.05.57.15.16.1.27.25.33.44s.07.42 0 .69l-.44 1.9h-.65zM54.13 85.08c-.23 0-.43-.05-.61-.17a1.13 1.13 0 0 1-.42-.47c-.1-.2-.15-.44-.15-.71 0-.25.04-.5.12-.72.08-.23.19-.43.32-.61.14-.18.31-.32.5-.42.19-.1.4-.15.63-.15.17 0 .33.03.47.09.14.06.26.14.35.26.1.11.16.25.19.41l.16-.69h.67l-.72 3.12h-.59l.11-.58c-.1.19-.25.34-.43.46s-.38.18-.6.18zm.23-.53c.13 0 .26-.04.38-.11s.22-.17.31-.29c.09-.12.16-.27.21-.43.05-.16.08-.34.08-.51 0-.17-.03-.31-.09-.43s-.14-.22-.25-.28a.674.674 0 0 0-.38-.1c-.15 0-.29.04-.42.11-.12.07-.23.17-.32.29-.09.12-.16.26-.21.42-.05.16-.07.33-.07.5 0 .18.03.33.09.46.06.12.14.22.26.29.11.04.25.08.41.08zM56.61 85.03l.73-3.12h.56l-.1.84-.07-.06c.07-.17.16-.33.27-.45.11-.12.25-.22.4-.29.15-.07.31-.1.47-.1.07 0 .13 0 .18.01.05.01.1.02.13.04l-.18.6a.578.578 0 0 0-.14-.05c-.05-.01-.12-.02-.2-.02-.15 0-.29.03-.42.1s-.25.17-.35.32c-.1.14-.18.33-.23.56l-.37 1.62h-.68zM59.07 86.37c-.17 0-.31-.02-.44-.06a.908.908 0 0 1-.31-.16l.23-.52c.14.13.31.19.49.19.12 0 .24-.03.33-.1.1-.07.19-.17.28-.31l.24-.39-.55-3.12h.67l.23 1.76.1.77.41-.74 1.02-1.79h.74l-2.26 3.63c-.12.2-.24.36-.37.48s-.26.21-.4.27c-.11.06-.26.09-.41.09zM65.74 85.09c-.31 0-.57-.06-.78-.19-.21-.12-.38-.29-.5-.51-.12-.21-.17-.45-.17-.71 0-.35.07-.67.21-.94.14-.27.33-.49.58-.65.25-.16.54-.24.88-.24.31 0 .57.06.78.19s.38.29.49.51c.11.21.17.45.17.71 0 .35-.07.66-.2.93-.14.28-.33.5-.58.66-.26.16-.55.24-.88.24zm.01-.53c.14 0 .27-.03.38-.1s.22-.16.31-.28c.09-.12.16-.26.21-.42.05-.16.07-.33.07-.52 0-.17-.03-.31-.08-.44s-.14-.23-.26-.31a.794.794 0 0 0-.45-.12c-.14 0-.27.03-.39.1s-.23.16-.31.28c-.09.12-.16.26-.21.42-.05.16-.08.33-.08.52 0 .16.03.3.09.44.06.13.15.24.27.32s.27.11.45.11zM70.09 81.86c.22 0 .41.05.58.16s.31.26.41.46c.1.2.15.44.15.73 0 .26-.04.5-.12.73-.08.23-.19.43-.33.6-.14.17-.3.31-.49.41-.19.1-.4.15-.62.15-.18 0-.34-.03-.49-.09a.88.88 0 0 1-.36-.27c-.09-.11-.15-.24-.19-.39l-.17.69h-.66l1.05-4.53h.67l-.44 1.91c.1-.16.24-.29.42-.4.17-.11.37-.16.59-.16zm-.52 2.69c.14 0 .27-.03.39-.1s.23-.16.32-.28c.09-.12.16-.26.21-.42.05-.16.07-.33.07-.52s-.03-.34-.09-.46-.15-.22-.26-.28-.24-.09-.38-.09a.81.81 0 0 0-.41.11c-.12.07-.23.17-.32.29-.09.12-.16.27-.2.43-.05.17-.07.34-.07.53 0 .24.06.44.19.58.12.14.31.21.55.21zM71.2 86.37c-.14 0-.27-.02-.4-.05s-.24-.09-.32-.17l.19-.53c.06.05.12.08.2.12.07.03.15.05.22.05.12 0 .22-.03.29-.1.07-.07.13-.19.17-.38l.8-3.41h.67l-.82 3.54c-.08.33-.2.56-.38.71-.18.15-.39.22-.62.22zm1.67-4.99c-.12 0-.23-.03-.3-.1-.08-.07-.11-.16-.1-.28 0-.15.05-.26.14-.34.09-.08.2-.12.33-.12s.23.03.3.1.11.15.1.27c-.01.15-.06.27-.14.35s-.2.12-.33.12zM74.86 85.09c-.3 0-.55-.06-.76-.18s-.38-.29-.49-.5a1.42 1.42 0 0 1-.17-.72c0-.33.07-.64.2-.92s.33-.5.58-.67c.25-.17.56-.25.92-.25.27 0 .5.05.69.16.19.11.34.26.44.45.1.19.15.42.15.68 0 .08 0 .17-.02.26-.01.09-.03.17-.06.26h-2.52v-.51h2.16l-.24.17c.02-.05.03-.1.03-.15 0-.05.01-.09.01-.13 0-.14-.03-.26-.08-.36a.512.512 0 0 0-.23-.23.797.797 0 0 0-.36-.08.9.9 0 0 0-.8.43c-.08.13-.14.28-.17.43-.03.16-.05.31-.05.47 0 .17.03.33.1.45a.7.7 0 0 0 .29.3c.12.07.27.11.43.11.2 0 .35-.04.48-.12.12-.08.22-.19.3-.32l.54.29c-.08.14-.19.26-.33.37-.14.1-.29.18-.46.23-.18.05-.37.08-.58.08zM78.41 85.09c-.3 0-.56-.06-.77-.19-.21-.12-.38-.29-.49-.51a1.52 1.52 0 0 1-.17-.71c0-.35.07-.67.21-.94s.34-.49.59-.65.55-.24.89-.24c.25 0 .47.04.66.13.19.08.34.21.46.36.11.15.18.33.21.52l-.68.14a.697.697 0 0 0-.18-.44c-.11-.12-.28-.18-.5-.18-.15 0-.28.03-.4.1s-.23.16-.32.28c-.09.12-.16.26-.21.42s-.07.33-.07.52c0 .17.03.32.09.45s.15.23.27.31.27.11.44.11c.15 0 .28-.04.41-.12.13-.08.22-.2.27-.35l.62.22c-.11.25-.29.44-.52.58-.22.12-.49.19-.81.19zM80.39 82.43l.12-.53h2.22l-.12.53h-2.22zm1.15 2.65c-.22 0-.4-.04-.55-.12-.15-.08-.26-.2-.32-.36s-.07-.35-.02-.58l.64-2.8.72-.2-.71 3c-.04.18-.02.32.08.4.09.08.21.12.36.12.1 0 .19-.01.26-.04s.14-.06.2-.1l.05.49c-.11.07-.22.11-.33.14-.13.04-.25.05-.38.05zM84.1 81.91l-.72 3.12h-.67l.73-3.12h.66zm-.15-.53c-.12 0-.23-.03-.3-.1-.08-.07-.11-.16-.1-.28 0-.15.05-.26.14-.34.09-.08.2-.12.33-.12s.23.03.3.1.11.15.1.27c-.01.15-.06.27-.14.35s-.2.12-.33.12zM87 81.91h.74l-1.92 3.12h-.73l-.5-3.12h.66l.34 2.79-.15-.03L87 81.91zM89.22 85.09c-.3 0-.55-.06-.76-.18s-.38-.29-.49-.5a1.42 1.42 0 0 1-.17-.72c0-.33.07-.64.2-.92s.33-.5.58-.67c.25-.17.56-.25.92-.25.27 0 .5.05.69.16.19.11.34.26.44.45.1.19.15.42.15.68 0 .08 0 .17-.02.26-.01.09-.03.17-.06.26h-2.52v-.51h2.16l-.24.17c.02-.05.03-.1.03-.15 0-.05.01-.09.01-.13 0-.14-.03-.26-.08-.36a.512.512 0 0 0-.23-.23.797.797 0 0 0-.36-.08.9.9 0 0 0-.8.43c-.08.13-.14.28-.17.43-.03.16-.05.31-.05.47 0 .17.03.33.1.45a.7.7 0 0 0 .29.3c.12.07.27.11.43.11.2 0 .35-.04.48-.12.12-.08.22-.19.3-.32l.54.29c-.08.14-.19.26-.33.37-.14.1-.29.18-.46.23-.19.05-.38.08-.58.08zM93.28 82.43l.12-.53h2.22l-.12.53h-2.22zm1.14 2.65c-.22 0-.4-.04-.55-.12-.15-.08-.26-.2-.32-.36s-.07-.35-.02-.58l.64-2.8.72-.2-.71 3c-.04.18-.02.32.08.4.09.08.21.12.36.12.1 0 .19-.01.26-.04s.14-.06.2-.1l.05.49c-.11.07-.22.11-.33.14-.13.04-.25.05-.38.05zM97.24 85.09c-.31 0-.57-.06-.78-.19-.21-.12-.38-.29-.5-.51-.12-.21-.17-.45-.17-.71 0-.35.07-.67.21-.94.14-.27.33-.49.58-.65.25-.16.54-.24.88-.24.31 0 .57.06.78.19s.38.29.49.51c.11.21.17.45.17.71 0 .35-.07.66-.2.93-.14.28-.33.5-.58.66-.25.16-.54.24-.88.24zm.02-.53c.14 0 .27-.03.38-.1s.22-.16.31-.28c.09-.12.16-.26.21-.42.05-.16.07-.33.07-.52 0-.17-.03-.31-.08-.44s-.14-.23-.26-.31a.794.794 0 0 0-.45-.12c-.14 0-.27.03-.39.1s-.23.16-.31.28c-.09.12-.16.26-.21.42-.05.16-.08.33-.08.52 0 .16.03.3.09.44.06.13.15.24.27.32s.27.11.45.11zM102.88 85.09c-.3 0-.55-.06-.76-.18s-.38-.29-.49-.5a1.42 1.42 0 0 1-.17-.72c0-.33.07-.64.2-.92s.33-.5.58-.67c.25-.17.56-.25.92-.25.27 0 .5.05.69.16.19.11.34.26.44.45.1.19.15.42.15.68 0 .08 0 .17-.02.26-.01.09-.03.17-.06.26h-2.52v-.51H104l-.24.17c.02-.05.03-.1.03-.15 0-.05.01-.09.01-.13 0-.14-.03-.26-.08-.36a.512.512 0 0 0-.23-.23.797.797 0 0 0-.36-.08.9.9 0 0 0-.8.43c-.08.13-.14.28-.17.43-.03.16-.05.31-.05.47 0 .17.03.33.1.45a.7.7 0 0 0 .29.3c.12.07.27.11.43.11.2 0 .35-.04.48-.12.12-.08.22-.19.3-.32l.54.29c-.08.14-.19.26-.33.37-.14.1-.29.18-.46.23-.18.05-.37.08-.58.08zM107.4 81.91h.74l-1.92 3.12h-.73l-.5-3.12h.66l.34 2.79-.15-.03 1.56-2.76zM109.36 85.08c-.23 0-.43-.05-.61-.17a1.13 1.13 0 0 1-.42-.47c-.1-.2-.15-.44-.15-.71 0-.25.04-.5.12-.72.08-.23.19-.43.32-.61.14-.18.31-.32.5-.42.19-.1.4-.15.63-.15.17 0 .33.03.47.09.14.06.26.14.35.26.1.11.16.25.19.41l.16-.69h.67l-.72 3.12h-.59l.11-.58c-.1.19-.25.34-.43.46s-.38.18-.6.18zm.23-.53c.13 0 .26-.04.38-.11s.22-.17.31-.29c.09-.12.16-.27.21-.43.05-.16.08-.34.08-.51 0-.17-.03-.31-.09-.43s-.14-.22-.25-.28a.674.674 0 0 0-.38-.1c-.15 0-.29.04-.42.11-.12.07-.23.17-.32.29-.09.12-.16.26-.21.42-.05.16-.07.33-.07.5 0 .18.03.33.09.46.06.12.14.22.26.29.11.04.25.08.41.08zM112.78 85.08c-.31 0-.53-.09-.66-.27-.12-.18-.15-.42-.08-.72l.83-3.58h.67l-.83 3.59c-.04.16-.03.28.03.35.06.07.17.11.32.11.06 0 .11 0 .15-.01.04 0 .08-.01.12-.02l-.14.49c-.07.02-.13.04-.19.05s-.13.01-.22.01zM114.96 85.08c-.23 0-.42-.05-.59-.15a.805.805 0 0 1-.36-.43c-.07-.19-.08-.41-.02-.68l.44-1.91h.67l-.43 1.86c-.06.25-.03.44.07.57.11.13.27.2.48.2.17 0 .31-.04.44-.11s.23-.18.32-.32.15-.32.2-.53l.39-1.66h.67l-.72 3.12h-.59l.13-.79.06.05c-.08.26-.23.46-.44.59-.22.12-.45.19-.72.19zM118.83 85.08c-.23 0-.43-.05-.61-.17a1.13 1.13 0 0 1-.42-.47c-.1-.2-.15-.44-.15-.71 0-.25.04-.5.12-.72.08-.23.19-.43.32-.61.14-.18.31-.32.5-.42.19-.1.4-.15.63-.15.17 0 .33.03.47.09.14.06.26.14.35.26.1.11.16.25.19.41l.16-.69h.67l-.72 3.12h-.59l.11-.58c-.1.19-.25.34-.43.46-.19.12-.39.18-.6.18zm.23-.53c.13 0 .26-.04.38-.11s.22-.17.31-.29c.09-.12.16-.27.21-.43.05-.16.08-.34.08-.51 0-.17-.03-.31-.09-.43s-.14-.22-.25-.28a.674.674 0 0 0-.38-.1c-.15 0-.29.04-.42.11-.12.07-.23.17-.32.29-.09.12-.16.26-.21.42-.05.16-.07.33-.07.5 0 .18.03.33.09.46.06.12.14.22.26.29.11.04.25.08.41.08zM121.54 82.43l.12-.53h2.22l-.12.53h-2.22zm1.14 2.65c-.22 0-.4-.04-.55-.12-.15-.08-.26-.2-.32-.36s-.07-.35-.02-.58l.64-2.8.72-.2-.71 3c-.04.18-.02.32.08.4.09.08.21.12.36.12.1 0 .19-.01.26-.04s.14-.06.2-.1l.05.49c-.11.07-.22.11-.33.14-.13.04-.25.05-.38.05zM125.48 85.09c-.3 0-.55-.06-.76-.18s-.38-.29-.49-.5a1.42 1.42 0 0 1-.17-.72c0-.33.07-.64.2-.92s.33-.5.58-.67c.25-.17.56-.25.92-.25.27 0 .5.05.69.16.19.11.34.26.44.45.1.19.15.42.15.68 0 .08 0 .17-.02.26-.01.09-.03.17-.06.26h-2.52v-.51h2.16l-.24.17c.02-.05.03-.1.03-.15 0-.05.01-.09.01-.13 0-.14-.03-.26-.08-.36a.512.512 0 0 0-.23-.23.797.797 0 0 0-.36-.08.9.9 0 0 0-.8.43c-.08.13-.14.28-.17.43-.03.16-.05.31-.05.47 0 .17.03.33.1.45a.7.7 0 0 0 .29.3c.12.07.27.11.43.11.2 0 .35-.04.48-.12.12-.08.22-.19.3-.32l.54.29c-.08.14-.19.26-.33.37-.14.1-.29.18-.46.23-.18.05-.37.08-.58.08zM131.04 85.09c-.31 0-.57-.06-.78-.19-.21-.12-.38-.29-.5-.51-.12-.21-.17-.45-.17-.71 0-.35.07-.67.21-.94.14-.27.33-.49.58-.65.25-.16.54-.24.88-.24.31 0 .57.06.78.19s.38.29.49.51c.11.21.17.45.17.71 0 .35-.07.66-.2.93-.14.28-.33.5-.58.66-.25.16-.55.24-.88.24zm.01-.53c.14 0 .27-.03.38-.1s.22-.16.31-.28c.09-.12.16-.26.21-.42.05-.16.07-.33.07-.52 0-.17-.03-.31-.08-.44s-.14-.23-.26-.31a.794.794 0 0 0-.45-.12c-.14 0-.27.03-.39.1s-.23.16-.31.28c-.09.12-.16.26-.21.42-.05.16-.08.33-.08.52 0 .16.03.3.09.44.06.13.15.24.27.32s.27.11.45.11zM135.63 81.91h.74l-1.92 3.12h-.73l-.5-3.12h.66l.34 2.79-.15-.03 1.56-2.76zM137.84 85.09c-.3 0-.55-.06-.76-.18s-.38-.29-.49-.5a1.42 1.42 0 0 1-.17-.72c0-.33.07-.64.2-.92s.33-.5.58-.67c.25-.17.56-.25.92-.25.27 0 .5.05.69.16.19.11.34.26.44.45.1.19.15.42.15.68 0 .08 0 .17-.02.26-.01.09-.03.17-.06.26h-2.52v-.51h2.16l-.24.17c.02-.05.03-.1.03-.15 0-.05.01-.09.01-.13 0-.14-.03-.26-.08-.36a.512.512 0 0 0-.23-.23.797.797 0 0 0-.36-.08.9.9 0 0 0-.8.43c-.08.13-.14.28-.17.43-.03.16-.05.31-.05.47 0 .17.03.33.1.45a.7.7 0 0 0 .29.3c.12.07.27.11.43.11.2 0 .35-.04.48-.12.12-.08.22-.19.3-.32l.54.29c-.08.14-.19.26-.33.37-.14.1-.29.18-.46.23-.18.05-.37.08-.58.08zM139.81 85.03l.73-3.12h.56l-.1.84-.07-.06c.07-.17.16-.33.27-.45.11-.12.25-.22.4-.29.15-.07.31-.1.47-.1.07 0 .13 0 .18.01.05.01.1.02.13.04l-.18.6a.578.578 0 0 0-.14-.05c-.05-.01-.12-.02-.2-.02-.15 0-.29.03-.42.1s-.25.17-.35.32c-.1.14-.18.33-.23.56l-.37 1.62h-.68zM143.53 85.08c-.23 0-.43-.05-.61-.17a1.13 1.13 0 0 1-.42-.47c-.1-.2-.15-.44-.15-.71 0-.25.04-.5.12-.72.08-.23.19-.43.32-.61.14-.18.31-.32.5-.42.19-.1.4-.15.63-.15.17 0 .33.03.47.09.14.06.26.14.35.26.1.11.16.25.19.41l.16-.69h.67l-.72 3.12h-.59l.11-.58c-.1.19-.25.34-.43.46-.19.12-.38.18-.6.18zm.23-.53c.13 0 .26-.04.38-.11s.22-.17.31-.29c.09-.12.16-.27.21-.43.05-.16.08-.34.08-.51 0-.17-.03-.31-.09-.43s-.14-.22-.25-.28a.674.674 0 0 0-.38-.1c-.15 0-.29.04-.42.11-.12.07-.23.17-.32.29-.09.12-.16.26-.21.42-.05.16-.07.33-.07.5 0 .18.03.33.09.46.06.12.14.22.26.29.11.04.25.08.41.08zM146.95 85.08c-.31 0-.53-.09-.66-.27-.12-.18-.15-.42-.08-.72l.83-3.58h.67l-.83 3.59c-.04.16-.03.28.03.35.06.07.17.11.32.11.06 0 .11 0 .15-.01.04 0 .08-.01.12-.02l-.14.49c-.07.02-.13.04-.19.05s-.14.01-.22.01zM148.86 85.08c-.31 0-.53-.09-.66-.27-.12-.18-.15-.42-.08-.72l.83-3.58h.67l-.83 3.59c-.04.16-.03.28.03.35.06.07.17.11.32.11.06 0 .11 0 .15-.01.04 0 .08-.01.12-.02l-.14.49c-.07.02-.13.04-.19.05s-.13.01-.22.01zM151.33 86.34l1.02-4.44h.59l-.16.86-.07.04a1.233 1.233 0 0 1 .67-.84c.17-.08.35-.11.54-.11.21 0 .4.05.57.16.17.1.3.25.4.45.1.2.15.44.15.71 0 .26-.04.51-.12.74-.08.23-.19.43-.33.61s-.31.31-.5.41c-.19.1-.4.15-.62.15-.2 0-.37-.04-.53-.11a.914.914 0 0 1-.37-.33c-.09-.15-.14-.32-.16-.53l.11-.1-.53 2.32h-.66zm2.06-1.79c.14 0 .27-.03.39-.1s.23-.17.32-.29c.09-.12.16-.27.21-.43.05-.16.07-.33.07-.52 0-.18-.03-.33-.09-.45s-.15-.22-.26-.28a.796.796 0 0 0-.79.01c-.12.07-.23.17-.32.29-.09.12-.16.27-.21.43-.05.17-.07.34-.07.53 0 .24.06.44.19.58.13.16.32.23.56.23zM156.79 85.08c-.23 0-.43-.05-.61-.17a1.13 1.13 0 0 1-.42-.47c-.1-.2-.15-.44-.15-.71 0-.25.04-.5.12-.72.08-.23.19-.43.32-.61.14-.18.31-.32.5-.42.19-.1.4-.15.63-.15.17 0 .33.03.47.09.14.06.26.14.35.26.1.11.16.25.19.41l.16-.69h.67l-.72 3.12h-.59l.11-.58c-.1.19-.25.34-.43.46s-.38.18-.6.18zm.23-.53c.13 0 .26-.04.38-.11s.22-.17.31-.29c.09-.12.16-.27.21-.43.05-.16.08-.34.08-.51 0-.17-.03-.31-.09-.43s-.14-.22-.25-.28a.674.674 0 0 0-.38-.1c-.15 0-.29.04-.42.11-.12.07-.23.17-.32.29-.09.12-.16.26-.21.42-.05.16-.07.33-.07.5 0 .18.03.33.09.46.06.12.14.22.26.29.11.04.25.08.41.08zM159.5 82.43l.12-.53h2.22l-.12.53h-2.22zm1.15 2.65c-.22 0-.4-.04-.55-.12-.15-.08-.26-.2-.32-.36s-.07-.35-.02-.58l.64-2.8.72-.2-.71 3c-.04.18-.02.32.08.4.09.08.21.12.36.12.1 0 .19-.01.26-.04s.14-.06.2-.1l.05.49c-.11.07-.22.11-.33.14-.13.04-.26.05-.38.05zM163.21 81.91l-.72 3.12h-.67l.73-3.12h.66zm-.15-.53c-.12 0-.23-.03-.3-.1-.08-.07-.11-.16-.1-.28 0-.15.05-.26.14-.34.09-.08.2-.12.33-.12s.23.03.3.1.11.15.1.27c-.01.15-.06.27-.14.35s-.2.12-.33.12zM165.06 85.09c-.3 0-.55-.06-.76-.18s-.38-.29-.49-.5a1.42 1.42 0 0 1-.17-.72c0-.33.07-.64.2-.92s.33-.5.58-.67c.25-.17.56-.25.92-.25.27 0 .5.05.69.16.19.11.34.26.44.45.1.19.15.42.15.68 0 .08 0 .17-.02.26-.01.09-.03.17-.06.26h-2.52v-.51h2.16l-.24.17c.02-.05.03-.1.03-.15 0-.05.01-.09.01-.13 0-.14-.03-.26-.08-.36a.512.512 0 0 0-.23-.23.797.797 0 0 0-.36-.08.9.9 0 0 0-.8.43c-.08.13-.14.28-.17.43-.03.16-.05.31-.05.47 0 .17.03.33.1.45a.7.7 0 0 0 .29.3c.12.07.27.11.43.11.2 0 .35-.04.48-.12.12-.08.22-.19.3-.32l.54.29c-.08.14-.19.26-.33.37-.14.1-.29.18-.46.23-.18.05-.38.08-.58.08zM167.02 85.03l.73-3.12h.59l-.13.79-.06-.04c.09-.27.24-.47.46-.6.22-.13.46-.2.73-.2.23 0 .43.05.59.15.16.1.28.25.34.44.07.19.07.42.01.69l-.44 1.91h-.67l.44-1.87c.05-.24.03-.42-.07-.56-.1-.13-.26-.2-.47-.2-.17 0-.32.04-.45.11-.13.08-.24.18-.33.33s-.16.32-.21.54l-.38 1.66h-.68zM170.94 82.43l.12-.53h2.22l-.12.53h-2.22zm1.14 2.65c-.22 0-.4-.04-.55-.12-.15-.08-.26-.2-.32-.36s-.07-.35-.02-.58l.64-2.8.72-.2-.71 3c-.04.18-.02.32.08.4.09.08.21.12.36.12.1 0 .19-.01.26-.04s.14-.06.2-.1l.05.49c-.11.07-.22.11-.33.14-.12.04-.25.05-.38.05zM176.68 85.1c-.24 0-.46-.04-.65-.11-.2-.07-.37-.17-.52-.31a1.32 1.32 0 0 1-.34-.47l.51-.31c.09.21.22.38.38.49s.37.17.61.17c.19 0 .34-.04.44-.11s.16-.17.16-.3a.28.28 0 0 0-.09-.22.568.568 0 0 0-.27-.13l-.5-.15c-.27-.08-.48-.19-.61-.33a.769.769 0 0 1-.2-.52c0-.19.05-.35.15-.5.1-.14.24-.26.43-.34.19-.08.41-.12.66-.12.3 0 .57.06.81.19s.4.31.51.54l-.48.32a.923.923 0 0 0-.19-.28.972.972 0 0 0-.29-.19.873.873 0 0 0-.37-.07c-.2 0-.36.03-.46.1-.1.07-.15.16-.15.28 0 .1.04.18.12.24.08.05.17.1.28.13l.61.18c.22.06.39.16.51.3.12.14.18.29.18.48 0 .21-.05.4-.16.55-.1.15-.25.27-.44.36-.18.09-.4.13-.64.13zM179.71 85.08c-.23 0-.43-.05-.61-.17a1.13 1.13 0 0 1-.42-.47c-.1-.2-.15-.44-.15-.71 0-.25.04-.5.12-.72.08-.23.19-.43.32-.61.14-.18.31-.32.5-.42.19-.1.4-.15.63-.15.17 0 .33.03.47.09.14.06.26.14.35.26.1.11.16.25.19.41l.16-.69h.67l-.72 3.12h-.59l.11-.58c-.1.19-.25.34-.43.46-.19.12-.39.18-.6.18zm.23-.53c.13 0 .26-.04.38-.11s.22-.17.31-.29c.09-.12.16-.27.21-.43.05-.16.08-.34.08-.51 0-.17-.03-.31-.09-.43s-.14-.22-.25-.28a.674.674 0 0 0-.38-.1c-.15 0-.29.04-.42.11-.12.07-.23.17-.32.29-.09.12-.16.26-.21.42-.05.16-.07.33-.07.5 0 .18.03.33.09.46.06.12.14.22.26.29.11.04.24.08.41.08zM182.42 82.43l.12-.53h2.22l-.12.53h-2.22zm1.14 2.65c-.22 0-.4-.04-.55-.12-.15-.08-.26-.2-.32-.36s-.07-.35-.02-.58l.64-2.8.72-.2-.71 3c-.04.18-.02.32.08.4.09.08.21.12.36.12.1 0 .19-.01.26-.04s.14-.06.2-.1l.05.49c-.11.07-.22.11-.33.14-.13.04-.25.05-.38.05zM186.13 81.91l-.72 3.12h-.67l.73-3.12h.66zm-.16-.53c-.12 0-.23-.03-.3-.1-.08-.07-.11-.16-.1-.28 0-.15.05-.26.14-.34.09-.08.2-.12.33-.12s.23.03.3.1.11.15.1.27c-.01.15-.06.27-.14.35s-.2.12-.33.12zM187.81 85.1c-.24 0-.46-.04-.65-.11-.2-.07-.37-.17-.52-.31a1.32 1.32 0 0 1-.34-.47l.51-.31c.09.21.22.38.38.49s.37.17.61.17c.19 0 .34-.04.44-.11s.16-.17.16-.3a.28.28 0 0 0-.09-.22.568.568 0 0 0-.27-.13l-.5-.15c-.27-.08-.48-.19-.61-.33a.769.769 0 0 1-.2-.52c0-.19.05-.35.15-.5.1-.14.24-.26.43-.34.19-.08.41-.12.66-.12.3 0 .57.06.81.19s.4.31.51.54l-.48.32a.923.923 0 0 0-.19-.28.972.972 0 0 0-.29-.19.873.873 0 0 0-.37-.07c-.2 0-.36.03-.46.1-.1.07-.15.16-.15.28 0 .1.04.18.12.24.08.05.17.1.28.13l.61.18c.22.06.39.16.51.3.12.14.18.29.18.48 0 .21-.05.4-.16.55-.1.15-.25.27-.44.36-.17.09-.39.13-.64.13zM189.79 82.43l.12-.53h2.2l-.12.53h-2.2zm.02 2.6l.84-3.62c.05-.23.13-.41.24-.55.11-.14.24-.24.4-.3s.34-.1.54-.1c.13 0 .25.01.36.04.11.03.19.06.25.11l-.19.49a.479.479 0 0 0-.16-.07.78.78 0 0 0-.22-.03c-.17 0-.3.04-.39.12-.09.08-.16.21-.2.41l-.1.44-.03.17-.67 2.9h-.67zM193.33 85.08c-.23 0-.43-.05-.61-.17a1.13 1.13 0 0 1-.42-.47c-.1-.2-.15-.44-.15-.71 0-.25.04-.5.12-.72.08-.23.19-.43.32-.61.14-.18.31-.32.5-.42.19-.1.4-.15.63-.15.17 0 .33.03.47.09.14.06.26.14.35.26.1.11.16.25.19.41l.16-.69h.67l-.72 3.12h-.59l.11-.58c-.1.19-.25.34-.43.46s-.38.18-.6.18zm.23-.53c.13 0 .26-.04.38-.11s.22-.17.31-.29c.09-.12.16-.27.21-.43.05-.16.08-.34.08-.51 0-.17-.03-.31-.09-.43s-.14-.22-.25-.28a.674.674 0 0 0-.38-.1c-.15 0-.29.04-.42.11-.12.07-.23.17-.32.29-.09.12-.16.26-.21.42-.05.16-.07.33-.07.5 0 .18.03.33.09.46.06.12.14.22.26.29.11.04.25.08.41.08zM197.42 85.09c-.3 0-.56-.06-.77-.19-.21-.12-.38-.29-.49-.51a1.52 1.52 0 0 1-.17-.71c0-.35.07-.67.21-.94s.34-.49.59-.65.55-.24.89-.24c.25 0 .47.04.66.13.19.08.34.21.46.36.11.15.18.33.21.52l-.68.14a.697.697 0 0 0-.18-.44c-.11-.12-.28-.18-.5-.18-.15 0-.28.03-.4.1s-.23.16-.32.28c-.09.12-.16.26-.21.42s-.07.33-.07.52c0 .17.03.32.09.45s.15.23.27.31.27.11.44.11c.15 0 .28-.04.41-.12.13-.08.22-.2.27-.35l.62.22c-.11.25-.29.44-.52.58-.22.12-.5.19-.81.19zM199.4 82.43l.12-.53h2.22l-.12.53h-2.22zm1.15 2.65c-.22 0-.4-.04-.55-.12-.15-.08-.26-.2-.32-.36s-.07-.35-.02-.58l.64-2.8.72-.2-.71 3c-.04.18-.02.32.08.4.09.08.21.12.36.12.1 0 .19-.01.26-.04s.14-.06.2-.1l.05.49c-.11.07-.22.11-.33.14-.13.04-.25.05-.38.05zM203.11 81.91l-.72 3.12h-.67l.73-3.12h.66zm-.15-.53c-.12 0-.23-.03-.3-.1-.08-.07-.11-.16-.1-.28 0-.15.05-.26.14-.34.09-.08.2-.12.33-.12s.23.03.3.1.11.15.1.27c-.01.15-.06.27-.14.35s-.2.12-.33.12zM204.98 85.09c-.31 0-.57-.06-.78-.19-.21-.12-.38-.29-.5-.51-.12-.21-.17-.45-.17-.71 0-.35.07-.67.21-.94.14-.27.33-.49.58-.65.25-.16.54-.24.88-.24.31 0 .57.06.78.19s.38.29.49.51c.11.21.17.45.17.71 0 .35-.07.66-.2.93-.14.28-.33.5-.58.66-.25.16-.54.24-.88.24zm.02-.53c.14 0 .27-.03.38-.1s.22-.16.31-.28c.09-.12.16-.26.21-.42.05-.16.07-.33.07-.52 0-.17-.03-.31-.08-.44s-.14-.23-.26-.31a.794.794 0 0 0-.45-.12c-.14 0-.27.03-.39.1s-.23.16-.31.28c-.09.12-.16.26-.21.42-.05.16-.08.33-.08.52 0 .16.03.3.09.44.06.13.15.24.27.32s.27.11.45.11zM207.05 85.03l.73-3.12h.59l-.13.79-.06-.04c.09-.27.24-.47.46-.6.22-.13.46-.2.73-.2.23 0 .43.05.59.15.16.1.28.25.34.44.07.19.07.42.01.69l-.44 1.91h-.67l.44-1.87c.05-.24.03-.42-.07-.56-.1-.13-.26-.2-.47-.2-.17 0-.32.04-.45.11-.13.08-.24.18-.33.33s-.16.32-.21.54l-.38 1.66h-.68zM213.22 85.03l-.29-3.12h.65l.17 2.42 1.25-2.42h.66l.26 2.46 1.25-2.46h.71l-1.69 3.12h-.73l-.28-2.31-1.22 2.31h-.74zM219.15 81.91l-.72 3.12h-.67l.73-3.12h.66zm-.16-.53c-.12 0-.23-.03-.3-.1-.08-.07-.11-.16-.1-.28 0-.15.05-.26.14-.34.09-.08.2-.12.33-.12s.23.03.3.1.11.15.1.27c-.01.15-.06.27-.14.35s-.2.12-.33.12zM219.61 82.43l.12-.53h2.22l-.12.53h-2.22zm1.15 2.65c-.22 0-.4-.04-.55-.12-.15-.08-.26-.2-.32-.36s-.07-.35-.02-.58l.64-2.8.72-.2-.71 3c-.04.18-.02.32.08.4.09.08.21.12.36.12.1 0 .19-.01.26-.04s.14-.06.2-.1l.05.49c-.11.07-.22.11-.33.14-.13.04-.25.05-.38.05zM221.96 85.03l1.05-4.53h.67l-.47 2.06-.1.07a.91.91 0 0 1 .26-.42c.12-.12.25-.21.41-.27s.33-.09.51-.09c.23 0 .42.05.58.15.16.1.28.25.35.43.07.19.07.41.02.68l-.45 1.92h-.67l.44-1.87c.05-.24.03-.42-.07-.56-.1-.13-.26-.2-.47-.2-.17 0-.32.04-.45.11-.13.08-.24.18-.33.33s-.16.32-.21.54l-.38 1.66h-.69zM229.78 85.09c-.33 0-.63-.07-.9-.2s-.49-.33-.64-.6c-.16-.26-.24-.59-.24-.97 0-.32.05-.63.14-.92.09-.29.23-.56.41-.79.18-.23.41-.42.68-.56.27-.14.58-.21.93-.21.27 0 .52.04.73.13.21.09.39.22.54.4.15.18.25.4.32.67l-.68.19c-.05-.29-.16-.5-.32-.63s-.37-.19-.64-.19c-.23 0-.44.05-.62.17-.18.11-.33.25-.44.43-.12.18-.21.37-.27.59s-.09.44-.09.66c0 .26.05.48.15.66.1.18.23.33.4.42.17.1.36.15.58.15.25 0 .45-.06.6-.17s.27-.26.37-.46l.62.28c-.17.28-.39.51-.65.68-.24.19-.58.27-.98.27zM233.46 85.09c-.31 0-.57-.06-.78-.19-.21-.12-.38-.29-.5-.51-.12-.21-.17-.45-.17-.71 0-.35.07-.67.21-.94.14-.27.33-.49.58-.65.25-.16.54-.24.88-.24.31 0 .57.06.78.19s.38.29.49.51c.11.21.17.45.17.71 0 .35-.07.66-.2.93-.14.28-.33.5-.58.66-.25.16-.54.24-.88.24zm.02-.53c.14 0 .27-.03.38-.1s.22-.16.31-.28c.09-.12.16-.26.21-.42.05-.16.07-.33.07-.52 0-.17-.03-.31-.08-.44s-.14-.23-.26-.31a.794.794 0 0 0-.45-.12c-.14 0-.27.03-.39.1s-.23.16-.31.28c-.09.12-.16.26-.21.42-.05.16-.08.33-.08.52 0 .16.03.3.09.44.06.13.15.24.27.32s.27.11.45.11zM237.16 85.09c-.31 0-.57-.06-.78-.19-.21-.12-.38-.29-.5-.51-.12-.21-.17-.45-.17-.71 0-.35.07-.67.21-.94.14-.27.33-.49.58-.65.25-.16.54-.24.88-.24.31 0 .57.06.78.19s.38.29.49.51c.11.21.17.45.17.71 0 .35-.07.66-.2.93-.14.28-.33.5-.58.66-.26.16-.55.24-.88.24zm.01-.53c.14 0 .27-.03.38-.1s.22-.16.31-.28c.09-.12.16-.26.21-.42.05-.16.07-.33.07-.52 0-.17-.03-.31-.08-.44s-.14-.23-.26-.31a.794.794 0 0 0-.45-.12c-.14 0-.27.03-.39.1s-.23.16-.31.28c-.09.12-.16.26-.21.42-.05.16-.08.33-.08.52 0 .16.03.3.09.44.06.13.15.24.27.32s.27.11.45.11zM240.16 85.08c-.31 0-.53-.09-.66-.27-.12-.18-.15-.42-.08-.72l.83-3.58h.67l-.83 3.59c-.04.16-.03.28.03.35.06.07.17.11.32.11.06 0 .11 0 .15-.01.04 0 .08-.01.12-.02l-.14.49c-.07.02-.13.04-.19.05s-.13.01-.22.01zM243.09 85.09c-.3 0-.58-.04-.83-.13s-.47-.22-.65-.39c-.18-.17-.33-.38-.44-.64l.54-.36c.08.22.19.41.33.55.14.14.3.24.49.31.19.06.38.1.58.1.18 0 .34-.03.46-.09s.21-.14.27-.23c.06-.1.09-.2.09-.31 0-.14-.04-.25-.13-.32-.09-.08-.22-.14-.39-.19l-.65-.19c-.21-.06-.39-.14-.53-.25-.15-.1-.26-.22-.34-.36a.94.94 0 0 1-.12-.47c0-.24.06-.46.19-.65s.31-.34.54-.45c.23-.11.5-.16.82-.16.41 0 .76.08 1.03.24.28.16.49.41.63.73l-.55.35a.989.989 0 0 0-.27-.46.93.93 0 0 0-.4-.22c-.15-.04-.3-.06-.47-.06-.18 0-.34.03-.46.08s-.21.12-.27.22a.53.53 0 0 0-.09.3c0 .12.05.24.15.34.1.1.24.18.41.23l.7.21c.31.09.54.22.69.38.15.16.23.37.23.62 0 .27-.07.5-.21.69s-.33.34-.56.45c-.24.07-.5.13-.79.13zM246.71 85.09c-.3 0-.56-.06-.77-.19-.21-.12-.38-.29-.49-.51a1.52 1.52 0 0 1-.17-.71c0-.35.07-.67.21-.94s.34-.49.59-.65.55-.24.89-.24c.25 0 .47.04.66.13.19.08.34.21.46.36.11.15.18.33.21.52l-.68.14a.697.697 0 0 0-.18-.44c-.11-.12-.28-.18-.5-.18-.15 0-.28.03-.4.1s-.23.16-.32.28c-.09.12-.16.26-.21.42s-.07.33-.07.52c0 .17.03.32.09.45s.15.23.27.31.27.11.44.11c.15 0 .28-.04.41-.12.13-.08.22-.2.27-.35l.62.22c-.11.25-.29.44-.52.58-.22.12-.5.19-.81.19zM249.65 85.08c-.23 0-.42-.05-.59-.15a.805.805 0 0 1-.36-.43c-.07-.19-.08-.41-.02-.68l.44-1.91h.67l-.43 1.86c-.06.25-.03.44.07.57.11.13.27.2.48.2.17 0 .31-.04.44-.11s.23-.18.32-.32.15-.32.2-.53l.39-1.66h.67l-.72 3.12h-.59l.13-.79.06.05c-.08.26-.23.46-.44.59-.21.12-.45.19-.72.19zM253.11 85.08c-.31 0-.53-.09-.66-.27-.12-.18-.15-.42-.08-.72l.83-3.58h.67l-.83 3.59c-.04.16-.03.28.03.35.06.07.17.11.32.11.06 0 .11 0 .15-.01.04 0 .08-.01.12-.02l-.14.49c-.07.02-.13.04-.19.05s-.13.01-.22.01zM253.79 86.34l1.02-4.44h.59l-.16.86-.07.04a1.233 1.233 0 0 1 .67-.84c.17-.08.35-.11.54-.11.21 0 .4.05.57.16.17.1.3.25.4.45.1.2.15.44.15.71 0 .26-.04.51-.12.74-.08.23-.19.43-.33.61s-.31.31-.5.41c-.19.1-.4.15-.62.15-.2 0-.37-.04-.53-.11a.914.914 0 0 1-.37-.33c-.09-.15-.14-.32-.16-.53l.11-.1-.53 2.32h-.66zm2.06-1.79c.14 0 .27-.03.39-.1s.23-.17.32-.29c.09-.12.16-.27.21-.43.05-.16.07-.33.07-.52 0-.18-.03-.33-.09-.45s-.15-.22-.26-.28a.796.796 0 0 0-.79.01c-.12.07-.23.17-.32.29-.09.12-.16.27-.21.43-.05.17-.07.34-.07.53 0 .24.06.44.19.58.13.16.32.23.56.23zM258.03 82.43l.12-.53h2.22l-.12.53h-2.22zm1.14 2.65c-.22 0-.4-.04-.55-.12-.15-.08-.26-.2-.32-.36s-.07-.35-.02-.58l.64-2.8.72-.2-.71 3c-.04.18-.02.32.08.4.09.08.21.12.36.12.1 0 .19-.01.26-.04s.14-.06.2-.1l.05.49c-.11.07-.22.11-.33.14-.13.04-.25.05-.38.05zM261.74 81.91l-.72 3.12h-.67l.73-3.12h.66zm-.16-.53c-.12 0-.23-.03-.3-.1-.08-.07-.11-.16-.1-.28 0-.15.05-.26.14-.34.09-.08.2-.12.33-.12s.23.03.3.1.11.15.1.27c-.01.15-.06.27-.14.35s-.19.12-.33.12zM261.98 85.03l.73-3.12h.59l-.13.79-.06-.04c.09-.27.24-.47.46-.6.22-.13.46-.2.73-.2.23 0 .43.05.59.15.16.1.28.25.34.44.07.19.07.42.01.69l-.44 1.91h-.67l.44-1.87c.05-.24.03-.42-.07-.56-.1-.13-.26-.2-.47-.2-.17 0-.32.04-.45.11-.13.08-.24.18-.33.33s-.16.32-.21.54l-.38 1.66h-.68zM266.91 86.37a1.7 1.7 0 0 1-.51-.07c-.16-.05-.31-.12-.43-.21s-.22-.2-.3-.33c-.08-.13-.13-.28-.15-.44l.67-.16c.03.22.11.39.22.51s.3.18.56.18c.14 0 .27-.03.4-.08a.84.84 0 0 0 .33-.27c.1-.13.17-.31.22-.54l.18-.79.07-.05c-.06.25-.19.46-.39.61-.2.15-.43.22-.69.22a1.152 1.152 0 0 1-1.05-.64c-.11-.2-.16-.42-.16-.67 0-.26.04-.5.12-.71.08-.22.19-.41.33-.57.14-.16.3-.29.5-.38.19-.09.4-.13.63-.13.2 0 .37.04.52.12.15.08.28.19.37.34.09.15.14.33.15.54l-.1.08.23-1.01h.67l-.72 3.07c-.07.34-.19.61-.35.81s-.34.35-.57.44c-.23.09-.48.13-.75.13zm.41-1.95c.18 0 .34-.05.48-.17s.25-.26.33-.45c.08-.19.12-.4.12-.62 0-.17-.03-.31-.09-.43s-.14-.21-.25-.28-.24-.1-.38-.1c-.2 0-.37.05-.52.16-.15.11-.26.25-.35.43-.08.18-.12.39-.12.62 0 .24.07.44.2.59.14.18.33.25.58.25zM270.91 80.51c.25 0 .47.05.66.15.19.1.33.25.43.43.1.19.15.4.15.65s-.05.47-.15.65c-.1.19-.25.33-.43.43-.19.1-.41.15-.66.15-.25 0-.47-.05-.66-.15-.19-.1-.33-.25-.44-.43-.1-.19-.15-.4-.15-.65s.05-.47.15-.65c.1-.19.25-.33.44-.43.19-.1.41-.15.66-.15zm0 .26c-.2 0-.37.04-.51.12-.15.08-.26.19-.34.34-.08.15-.12.32-.12.52s.04.37.12.52c.08.15.19.26.34.34.15.08.32.12.51.12.2 0 .37-.04.51-.12.14-.08.26-.19.34-.34.08-.15.12-.32.12-.52s-.04-.37-.12-.52a.797.797 0 0 0-.34-.34c-.14-.08-.31-.12-.51-.12zm-.2.31v1.34h-.28v-1.34h.28zm.3 0c.1 0 .18.02.26.05s.13.09.18.15c.04.06.06.14.06.23 0 .13-.05.24-.14.31-.09.08-.22.12-.37.12h-.4v-.2h.38c.08 0 .14-.02.18-.05s.06-.09.06-.17-.02-.13-.06-.17c-.04-.04-.1-.05-.18-.05h-.38v-.22h.41zm.1.71l.43.62h-.33l-.34-.54.24-.08zM275.36 86.22c-.23-.32-.41-.69-.53-1.09-.12-.41-.18-.82-.18-1.24a4.09 4.09 0 0 1 .54-2.02c.18-.31.39-.58.65-.84.26-.25.55-.47.87-.65l.26.37c-.37.24-.68.53-.93.87a3.894 3.894 0 0 0-.76 2.36c0 .36.04.71.13 1.05.09.34.21.65.36.91l-.41.28zM276.41 85.03l.73-3.12h.59l-.13.79-.06-.04c.09-.27.24-.47.46-.6.22-.13.46-.2.73-.2.23 0 .43.05.59.15.16.1.28.25.34.44.07.19.07.42.01.69l-.44 1.91h-.67l.44-1.87c.05-.24.03-.42-.07-.56-.1-.13-.26-.2-.47-.2-.17 0-.32.04-.45.11-.13.08-.24.18-.33.33s-.16.32-.21.54l-.38 1.66h-.68zM283.38 83.47l-.12.55h-2.97l.12-.55h2.97zm.3-1.28l-.12.55h-2.97l.12-.55h2.97zM284.56 85.03l.63-2.74c.03-.13.06-.25.09-.35l.09-.31c-.08.08-.19.16-.33.23s-.28.14-.42.19c-.15.05-.29.09-.42.12l.04-.61c.15-.03.31-.09.48-.16.18-.07.35-.15.51-.24.16-.09.29-.17.38-.25h.56l-.96 4.12h-.65zM288.06 85.09c-.3 0-.56-.07-.77-.2-.21-.13-.38-.32-.49-.56-.11-.24-.17-.52-.17-.84 0-.14.01-.28.02-.42s.04-.28.07-.42c.06-.25.14-.48.24-.7s.23-.41.38-.58c.15-.17.33-.3.53-.39.2-.09.43-.14.69-.14.29 0 .53.07.74.2.2.13.36.32.47.55s.17.51.17.83c0 .14-.01.28-.02.42s-.04.28-.07.42c-.06.25-.14.48-.24.71-.1.22-.23.42-.37.58-.15.17-.32.3-.51.39-.21.1-.43.15-.67.15zm.03-.57c.19 0 .35-.06.49-.17.14-.12.26-.28.36-.48.1-.2.17-.43.23-.67.04-.14.06-.27.08-.4s.02-.26.02-.38c0-.35-.07-.6-.2-.76s-.32-.24-.55-.24c-.2 0-.37.06-.52.18-.15.12-.28.28-.38.48-.1.2-.18.43-.25.68-.03.13-.05.27-.07.4-.02.13-.02.26-.02.38 0 .24.04.43.11.58.07.15.17.25.29.32s.26.08.41.08zM292.06 85.09c-.33 0-.6-.07-.83-.2-.22-.13-.39-.32-.5-.56-.11-.24-.17-.52-.17-.85 0-.33.04-.66.12-.97s.2-.59.36-.85c.16-.25.37-.45.62-.6.25-.15.54-.22.88-.22.32 0 .6.08.84.23.24.15.39.4.46.73l-.62.22a.61.61 0 0 0-.24-.44.791.791 0 0 0-.48-.16c-.2 0-.38.05-.53.15-.15.1-.28.23-.38.39-.1.16-.18.34-.24.54s-.1.4-.13.6c.07-.21.22-.38.42-.49.21-.11.43-.17.67-.17.37 0 .66.1.87.31.21.21.32.49.32.83 0 .28-.06.54-.18.77-.12.23-.29.41-.5.53-.21.15-.46.21-.76.21zm.01-.56c.17 0 .31-.04.43-.12.11-.08.2-.18.26-.31a.99.99 0 0 0 .09-.42c0-.2-.07-.37-.2-.5s-.32-.2-.57-.2c-.17 0-.32.04-.44.12-.12.08-.21.18-.27.3a.902.902 0 0 0-.03.71c.04.09.1.17.17.23s.16.11.25.14.2.05.31.05zM294.87 80.36c.23.32.41.69.53 1.09.12.41.18.82.18 1.24a4.09 4.09 0 0 1-.54 2.02c-.18.31-.39.58-.65.84-.26.25-.55.47-.87.65l-.26-.37c.37-.24.68-.53.93-.87a3.894 3.894 0 0 0 .76-2.36c0-.36-.04-.71-.13-1.05-.09-.34-.21-.65-.36-.91l.41-.28zM296.4 85.09c-.12 0-.23-.04-.31-.1s-.12-.16-.12-.28c0-.16.05-.28.14-.38s.21-.14.35-.14c.12 0 .23.04.31.1s.12.16.12.28c0 .16-.05.28-.14.38-.09.09-.21.14-.35.14z"/></svg>