<svg id="Layer_1" xmlns="http://www.w3.org/2000/svg" viewBox="0 0 728 90"><style>.st0{fill:#fff}</style><path class="st0" d="M353.89 31.01c0 .28-.23.5-.51.5-.29 0-.52-.22-.52-.5s.23-.5.52-.5c.29 0 .51.22.51.5zm-.9 0c0 .22.17.4.39.4s.38-.18.38-.4c0-.22-.16-.4-.39-.4a.39.39 0 0 0-.38.4zm.31.26h-.12v-.5a.92.92 0 0 1 .19-.02c.09 0 .14.02.17.04s.05.06.05.11c0 .06-.05.1-.1.12v.01c.05.02.07.05.09.12.02.08.03.1.04.12h-.12c-.02-.02-.02-.06-.04-.12-.01-.05-.04-.08-.1-.08h-.05v.2zm.01-.28h.05c.06 0 .12-.02.12-.07s-.03-.08-.11-.08c-.03 0-.05 0-.06.01v.14zM361.38 29.27c-2.49 0-3.69-1.81-3.69-3.56 0-2.01 1.45-3.63 3.73-3.63.77 0 1.58.24 2.21.77l-.7.98c-.44-.34-.9-.46-1.46-.46-1.21 0-2.11.84-2.11 2.29 0 1.32.83 2.38 2.15 2.38.56 0 1.06-.17 1.49-.55l.65.98c-.62.54-1.47.8-2.27.8M367.47 29.27c-2.08 0-3.62-1.57-3.62-3.63 0-2.11 1.67-3.56 3.62-3.56 1.94 0 3.63 1.44 3.63 3.55 0 2.06-1.53 3.64-3.63 3.64m1.96-3.63c0-1.27-.62-2.36-1.96-2.36-1.31 0-1.96 1.1-1.96 2.35 0 1.3.61 2.45 1.96 2.45s1.96-1.14 1.96-2.45v.01zM375.32 29.27c-2.08 0-3.62-1.57-3.62-3.63 0-2.11 1.67-3.56 3.62-3.56 1.94 0 3.63 1.44 3.63 3.55 0 2.06-1.53 3.64-3.63 3.64m1.96-3.63c0-1.27-.62-2.36-1.96-2.36-1.31 0-1.96 1.1-1.96 2.35 0 1.3.6 2.45 1.96 2.45 1.35 0 1.96-1.14 1.96-2.45v.01zM379.77 29.1V19.02l1.56.86v9.22zM384.94 29.31c-1.76 0-2.6-.85-2.6-.85l.7-.91s.8.54 1.86.54c.51 0 .93-.35.93-.7s-.16-.65-.62-.89c-.46-.24-.99-.49-1.39-.69-.41-.2-1.31-.8-1.31-1.99 0-1.2 1.21-1.86 2.45-1.86 1.18 0 2.08.77 2.08.77l-.6.93s-.68-.48-1.42-.48c-.75 0-.9.48-.9.67 0 .2.07.51.55.76.48.25.97.52 1.67.92.7.39 1.1 1.07 1.1 1.83-.01.77-.75 1.95-2.5 1.95M391.65 29.27c-2.49 0-3.69-1.81-3.69-3.56 0-2.01 1.45-3.63 3.73-3.63.77 0 1.58.24 2.21.77l-.7.98c-.44-.34-.9-.46-1.46-.46-1.21 0-2.11.84-2.11 2.29 0 1.32.83 2.38 2.15 2.38.56 0 1.06-.17 1.49-.55l.65.98c-.63.54-1.47.8-2.27.8M399.35 28.3s-.79.97-2.28.97c-1.76 0-2.62-1.28-2.62-2.57v-4.46h1.56v4.39c0 .76.59 1.39 1.51 1.39.8 0 1.59-.96 1.59-.96v-4.83h1.56v6.85l-1.32-.78zM402.06 29.1V19.02l1.56.86v9.22zM408.79 29.27c-1.38 0-2.17-.77-2.17-.77v3.42h-1.58V22.1l1.58.83s.84-.86 2.25-.86c1.48 0 3.32 1.14 3.32 3.69 0 2.54-1.81 3.51-3.4 3.51m-.1-6c-1.34 0-2.11 1.25-2.11 1.25v2.59s.89 1 2.17 1c1.49 0 1.81-1.79 1.81-2.41 0-.61-.14-2.43-1.87-2.43M416.3 29.28h-.99c-1.24 0-1.66-1.2-1.66-1.98v-4.04h-1.24v-1.03h1.24V19.2h1.55v3.03h1.59v1.03h-1.58v3.66c0 .41-.07 1.06.62 1.06h1.13l-.66 1.3zM418.81 21.05c-.56 0-1.03-.46-1.03-1.03 0-.56.47-1.03 1.03-1.03s1.03.46 1.03 1.03c-.01.57-.47 1.03-1.03 1.03m-.78 1.18h1.53v6.87h-1.53v-6.87zM425.76 29.1v-4.39c0-.76-.59-1.39-1.51-1.39-.8 0-1.7.96-1.7.96v4.83h-1.56v-6.85l1.32.79s.9-.97 2.39-.97c1.76 0 2.62 1.28 2.62 2.57v4.46h-1.56zM432.09 32.29c-.24 0-2.07-.03-2.07-.03l.03-1.25h1.54c1.49 0 2.34-.8 2.34-1.9v-.62s-.82.78-2.19.78c-1.59 0-3.41-.97-3.41-3.52s1.84-3.69 3.32-3.69c1.41 0 2.25.86 2.25.86l1.58-.79v6.82c-.01 1.85-1.24 3.34-3.39 3.34m1.84-7.76s-.77-1.25-2.11-1.25c-1.73 0-1.87 1.81-1.87 2.43 0 .62.32 2.41 1.81 2.41 1.28 0 2.17-1 2.17-1v-2.59zM343.71 34.31v-4.49l.88-.88 2.54 2.54v.85zM341.88 25.97L339 28.85l3.52 1.33 4.2-4.21zM343.3 21.96h-3.71l1.19 3.43h5.94zM347.14 20.13l-2.87-2.86-1.33 3.5 4.2 4.2zM355.79 29.4h-4.23l-3.42-3.43h5.93zM352.33 21.19l3.85 1-3.2 3.2h-4.84zM347.72 19.04l3.42-2.04v4.55l-3.42 3.42zM352.08 30.76l-1.1 3.74-5.98-5.98 2.42-2.42zM437.8 22.7c0 .41-.33.73-.74.73-.42 0-.75-.32-.75-.73s.33-.73.75-.73c.41 0 .74.32.74.73zm-1.3 0c0 .32.24.58.57.58.31 0 .55-.26.55-.58 0-.32-.24-.58-.56-.58-.32 0-.56.26-.56.58zm.44.37h-.17v-.72c.07-.01.16-.02.28-.02.14 0 .2.02.25.06.04.03.07.09.07.15 0 .09-.07.14-.15.17v.01c.07.02.11.08.13.18.02.11.04.15.05.18h-.18c-.02-.02-.03-.09-.06-.18-.01-.07-.06-.11-.15-.11h-.08v.28zm.01-.4h.08c.09 0 .17-.03.17-.11 0-.07-.05-.11-.15-.11-.04 0-.08 0-.09.01v.21z"/></svg>