<svg id="Layer_1" xmlns="http://www.w3.org/2000/svg" viewBox="0 0 728 90"><style>.st0{fill:#fff}</style><path class="st0" d="M353 31.11c0 .28-.23.51-.52.51-.29 0-.52-.22-.52-.51 0-.28.23-.5.52-.5.29-.01.52.21.52.5zm-.91 0c0 .22.17.4.39.4s.38-.18.38-.4c0-.22-.17-.4-.39-.4-.21-.01-.38.17-.38.4zm.31.26h-.12v-.5a.92.92 0 0 1 .19-.02c.1 0 .14.02.17.04s.05.06.05.11c0 .06-.05.1-.1.12v.01c.05.02.07.06.09.12.02.08.03.1.04.12h-.12c-.02-.02-.02-.06-.04-.12-.01-.05-.04-.08-.1-.08h-.06v.2zm.01-.29h.05c.06 0 .12-.02.12-.07s-.03-.08-.11-.08c-.03 0-.05 0-.06.01v.14zM360.54 29.35c-2.51 0-3.71-1.83-3.71-3.58 0-2.03 1.46-3.66 3.76-3.66.78 0 1.59.24 2.23.78l-.71.99c-.44-.34-.91-.47-1.47-.47-1.22 0-2.13.85-2.13 2.31 0 1.33.84 2.39 2.17 2.39.57 0 1.06-.17 1.5-.55l.65.99c-.63.55-1.49.8-2.29.8M366.67 29.35c-2.1 0-3.64-1.58-3.64-3.66 0-2.13 1.69-3.58 3.64-3.58 1.96 0 3.66 1.45 3.66 3.57 0 2.09-1.55 3.67-3.66 3.67m1.97-3.65c0-1.28-.62-2.38-1.97-2.38-1.32 0-1.97 1.1-1.97 2.36 0 1.3.61 2.47 1.97 2.47 1.36 0 1.97-1.15 1.97-2.47v.02zM374.58 29.35c-2.1 0-3.64-1.58-3.64-3.66 0-2.13 1.69-3.58 3.64-3.58 1.96 0 3.66 1.45 3.66 3.57 0 2.09-1.55 3.67-3.66 3.67m1.97-3.65c0-1.28-.62-2.38-1.97-2.38-1.32 0-1.97 1.1-1.97 2.36 0 1.3.61 2.47 1.97 2.47 1.36 0 1.97-1.15 1.97-2.47v.02zM379.06 29.18V19.04l1.57.86v9.28zM384.26 29.4c-1.77 0-2.62-.85-2.62-.85l.71-.92s.81.54 1.87.54c.51 0 .94-.35.94-.71s-.16-.65-.62-.89c-.47-.24-.99-.5-1.4-.69-.41-.2-1.32-.81-1.32-2 0-1.2 1.22-1.87 2.46-1.87 1.19 0 2.1.78 2.1.78l-.61.94s-.68-.48-1.43-.48c-.75 0-.91.48-.91.68 0 .2.07.51.55.76.48.26.98.52 1.69.92s1.1 1.08 1.1 1.84-.74 1.95-2.51 1.95M391.02 29.35c-2.51 0-3.71-1.83-3.71-3.58 0-2.03 1.46-3.66 3.76-3.66.78 0 1.59.24 2.22.78l-.71.99c-.44-.34-.91-.47-1.47-.47-1.22 0-2.13.85-2.13 2.31 0 1.33.84 2.39 2.17 2.39.57 0 1.06-.17 1.5-.55l.65.99c-.62.55-1.47.8-2.28.8M398.77 28.38s-.79.98-2.3.98c-1.77 0-2.64-1.29-2.64-2.59v-4.49h1.57v4.42c0 .76.6 1.4 1.52 1.4.81 0 1.6-.96 1.6-.96v-4.86h1.57v6.9l-1.32-.8zM401.51 29.18V19.04l1.57.86v9.28zM408.28 29.35c-1.39 0-2.18-.78-2.18-.78v3.44h-1.59v-9.89l1.59.83s.85-.86 2.27-.86c1.49 0 3.34 1.15 3.34 3.71 0 2.58-1.83 3.55-3.43 3.55m-.1-6.03c-1.35 0-2.13 1.26-2.13 1.26v2.61s.89 1.01 2.18 1.01c1.5 0 1.83-1.8 1.83-2.42.01-.63-.14-2.46-1.88-2.46M415.85 29.37h-.99c-1.25 0-1.67-1.2-1.67-2V23.3h-1.25v-1.03h1.25v-3.05h1.56v3.05h1.6v1.03h-1.59v3.68c0 .41-.07 1.06.62 1.06h1.13l-.66 1.33zM418.37 21.08c-.57 0-1.03-.47-1.03-1.03 0-.57.47-1.03 1.03-1.03.57 0 1.04.47 1.04 1.03s-.47 1.03-1.04 1.03m-.78 1.19h1.55v6.92h-1.55v-6.92zM425.37 29.18v-4.42c0-.76-.6-1.4-1.52-1.4-.81 0-1.72.96-1.72.96v4.86h-1.57v-6.9l1.33.79s.91-.98 2.41-.98c1.77 0 2.64 1.29 2.64 2.59v4.49h-1.57zM431.75 32.4c-.24 0-2.09-.03-2.09-.03l.03-1.26h1.55c1.5 0 2.35-.81 2.35-1.91v-.62s-.82.78-2.21.78c-1.6 0-3.43-.98-3.43-3.55 0-2.56 1.86-3.71 3.35-3.71 1.42 0 2.27.86 2.27.86l1.59-.79v6.87c-.01 1.86-1.24 3.36-3.41 3.36m1.85-7.82s-.78-1.26-2.13-1.26c-1.74 0-1.88 1.83-1.88 2.45 0 .62.33 2.42 1.83 2.42 1.29 0 2.18-1.01 2.18-1.01v-2.6zM342.74 34.43v-4.52l.89-.89 2.56 2.56v.86zM340.9 26.04l-2.9 2.9 3.55 1.33 4.23-4.23zM342.33 22h-3.74l1.2 3.45h5.99zM346.19 20.15l-2.88-2.88-1.35 3.53 4.23 4.23zM354.91 29.49h-4.26l-3.45-3.45h5.98zM351.43 21.22l3.87 1.01-3.22 3.22h-4.88zM346.78 19.05l3.45-2.05v4.58l-3.45 3.45zM351.17 30.85l-1.1 3.77-6.02-6.02 2.43-2.44zM437.5 22.74c0 .41-.33.73-.75.73s-.75-.32-.75-.73.33-.73.76-.73c.41 0 .74.32.74.73zm-1.31 0c0 .32.25.58.57.58.32 0 .56-.26.56-.58 0-.32-.24-.59-.57-.59-.32.01-.56.27-.56.59zm.45.38h-.17v-.73c.07-.01.16-.02.28-.02.14 0 .2.02.25.06.04.03.08.09.08.16 0 .09-.07.15-.15.17v.01c.07.02.11.08.13.18.02.11.04.15.05.18h-.18c-.02-.02-.03-.09-.06-.18-.01-.07-.06-.11-.15-.11h-.08v.28zm0-.41h.08c.09 0 .17-.03.17-.11 0-.07-.05-.11-.16-.11-.05 0-.08.01-.09.01v.21z"/></svg>