<svg id="Layer_1" xmlns="http://www.w3.org/2000/svg" viewBox="0 0 300 600"><style>.st0{fill:#fff}</style><path class="st0" d="M57.79 73.75h-2.78l.17-2.44h2.78l.83-11.66h-2.78l.17-2.44h2.78l.72-10.39h2.67l-.73 10.38h4.11l.72-10.39h2.61l-.72 10.39h2.89l-.17 2.44h-2.89l-.83 11.66h2.94l-.22 2.44h-2.89l-.77 11.4h-2.61l.78-11.39h-4.11l-.78 11.39h-2.67l.78-11.39zm6.94-2.44l.83-11.66h-4.11l-.83 11.66h4.11zM80.23 50.59l-4.89 3v-3.11l6.11-3.78h2.06v38.44h-3.28V50.59zM95.24 55.92h3.3l4.62 21.38h.08V55.92h2.29v29.22h-2.75l-5.17-24.09h-.08v24.09h-2.29V55.92zM110.53 80.27V60.79c0-3.39 1.82-5.29 4.91-5.29s4.91 1.91 4.91 5.29v19.48c0 3.39-1.82 5.29-4.91 5.29s-4.91-1.9-4.91-5.29zm7.28-.42V61.22c0-2.46-.68-3.43-2.37-3.43-1.74 0-2.37.97-2.37 3.43v18.63c0 2.46.63 3.43 2.37 3.43 1.7 0 2.37-.98 2.37-3.43zM125.35 55.92h3.3l4.62 21.38h.08V55.92h2.29v29.22h-2.75l-5.17-24.09h-.08v24.09h-2.29V55.92zM140.35 80.35v-5.12h2.46v4.66c0 2.41.68 3.39 2.37 3.39 1.74 0 2.41-.97 2.41-3.39v-4.4c0-1.99-.55-2.96-1.99-3.9l-2.24-1.44c-2.16-1.4-3.01-3.01-3.01-5.84v-3.77c0-3.22 1.74-5.04 4.74-5.04s4.74 1.82 4.74 5.04v3.77h-2.46v-3.34c0-2.29-.64-3.18-2.24-3.18-1.61 0-2.24.89-2.24 3.18v3.18c0 1.99.55 2.96 1.99 3.9l2.24 1.44c2.16 1.4 3.01 3.01 3.01 5.84v5.04c0 3.35-1.82 5.21-4.91 5.21-3.1-.02-4.87-1.88-4.87-5.23zM154.66 80.44V55.92h2.54v24.05c0 2.37.59 3.3 2.29 3.3s2.29-.93 2.29-3.3V55.92h2.46v24.52c0 3.26-1.78 5.12-4.78 5.12-3.02 0-4.8-1.86-4.8-5.12zM169.31 55.92h4.7c3.39 0 5 1.74 5 5.29v3.73c0 2.37-.76 3.81-2.29 4.49v.08c1.52.68 2.29 2.12 2.29 4.53v11.09h-2.54V74.22c0-2.71-.76-3.51-3.17-3.51h-1.44v14.44h-2.54V55.92zm4.41 12.58c2.12 0 2.75-.8 2.75-3.51v-3.35c0-2.71-.63-3.51-2.75-3.51h-1.86V68.5h1.86zM183.8 80.99V60.75c0-3.35 1.82-5.25 4.87-5.25 3.09 0 4.83 1.91 4.83 5.25v3.22h-2.41v-2.75c0-2.46-.68-3.43-2.37-3.43-1.74 0-2.37.97-2.37 3.43V80.7c0 1.74.63 2.58 2.03 2.58 1.74 0 2.71-1.31 2.71-3.68v-8.38h-2.37v-2.2h4.91v16.13h-2.16v-2.07h-.13c-.68 1.61-1.91 2.5-3.64 2.5-2.46-.02-3.9-1.75-3.9-4.59zM198.49 55.92h2.54v29.22h-2.54V55.92zM206.03 80.52V60.54c0-3.22 1.69-5.04 4.74-5.04 3.09 0 4.78 1.82 4.78 5.04v4.79h-2.41v-4.36c0-2.29-.68-3.18-2.29-3.18-1.65 0-2.29.89-2.29 3.18V80.1c0 2.29.63 3.18 2.29 3.18 1.61 0 2.29-.89 2.29-3.18v-5.89h2.41v6.31c0 3.22-1.69 5.04-4.78 5.04-3.05 0-4.74-1.82-4.74-5.04zM222.97 55.92h3.34L230 85.14h-2.58l-.85-7.24h-3.98l-.85 7.24h-2.46l3.69-29.22zm3.34 19.78l-1.69-15.75h-.08l-1.69 15.75h3.46zM234.19 55.92h2.54v27.02h5.42v2.2h-7.96V55.92zM67.14 94.42h8.38v2.2h-5.84v10.63h5.08v2.2h-5.08v14.19h-2.54V94.42zM82.38 94.42h3.35l3.68 29.22h-2.58l-.85-7.24H82l-.85 7.24H78.7l3.68-29.22zm3.35 19.78l-1.69-15.75h-.08l-1.69 15.75h3.46zM96.15 96.62h-3.56v-2.2h9.65v2.2h-3.56v27.02h-2.54V96.62zM113.59 94.42h4.7c3.39 0 5 1.74 5 5.29v3.73c0 2.37-.76 3.81-2.29 4.49v.08c1.52.68 2.29 2.12 2.29 4.53v11.09h-2.54v-10.92c0-2.71-.76-3.51-3.18-3.51h-1.44v14.44h-2.54V94.42zM118 107c2.12 0 2.75-.8 2.75-3.51v-3.35c0-2.71-.64-3.51-2.75-3.51h-1.86V107H118zM128.25 94.42h8.38v2.2h-5.84v10.21h5.08v2.2h-5.08v12.41h5.84v2.2h-8.38V94.42zM140.95 94.42h4.83c3.39 0 5 1.74 5 5.29v18.63c0 3.56-1.61 5.29-5 5.29h-4.83V94.42zm4.53 27.02c2.12 0 2.75-.8 2.75-3.51v-17.78c0-2.71-.64-3.51-2.75-3.51h-1.99v24.81h1.99zM155.65 118.94V94.42h2.54v24.05c0 2.37.59 3.3 2.29 3.3s2.29-.93 2.29-3.3V94.42h2.46v24.52c0 3.26-1.78 5.12-4.78 5.12-3.02 0-4.8-1.86-4.8-5.12zM170.13 119.02V99.04c0-3.22 1.69-5.04 4.74-5.04 3.09 0 4.78 1.82 4.78 5.04v4.79h-2.41v-4.36c0-2.29-.68-3.18-2.29-3.18-1.65 0-2.29.89-2.29 3.18v19.14c0 2.29.63 3.18 2.29 3.18 1.61 0 2.29-.89 2.29-3.18v-5.89h2.41v6.31c0 3.22-1.69 5.04-4.78 5.04-3.05-.01-4.74-1.83-4.74-5.05zM186.9 96.62h-3.56v-2.2H193v2.2h-3.56v27.02h-2.54V96.62zM197.15 94.42h2.54v29.22h-2.54V94.42zM204.69 118.77V99.29c0-3.39 1.82-5.29 4.91-5.29s4.91 1.91 4.91 5.29v19.48c0 3.39-1.82 5.29-4.91 5.29s-4.91-1.9-4.91-5.29zm7.28-.42V99.72c0-2.46-.68-3.43-2.37-3.43-1.74 0-2.37.97-2.37 3.43v18.63c0 2.46.63 3.43 2.37 3.43 1.69 0 2.37-.98 2.37-3.43zM219.51 94.42h3.3l4.62 21.38h.08V94.42h2.29v29.22h-2.75l-5.17-24.09h-.08v24.09h-2.29V94.42zM84.18 135.12h-3.56v-2.2h9.65v2.2h-3.56v27.02h-2.54v-27.02zM94.42 132.92h4.7c3.39 0 5 1.74 5 5.29v3.73c0 2.37-.76 3.81-2.29 4.49v.08c1.52.68 2.29 2.12 2.29 4.53v11.09h-2.54v-10.92c0-2.71-.76-3.51-3.18-3.51h-1.44v14.44h-2.54v-29.22zm4.41 12.58c2.12 0 2.75-.8 2.75-3.51v-3.35c0-2.71-.64-3.51-2.75-3.51h-1.86v10.37h1.86zM109.08 132.92h8.38v2.2h-5.84v10.21h5.08v2.2h-5.08v12.41h5.84v2.2h-8.38v-29.22zM124.49 132.92h3.35l3.68 29.22h-2.58l-.85-7.24h-3.98l-.85 7.24h-2.46l3.69-29.22zm3.35 19.78l-1.69-15.75h-.08l-1.69 15.75h3.46zM138.25 135.12h-3.56v-2.2h9.65v2.2h-3.56v27.02h-2.54v-27.02zM148.5 132.92h4.02l3.26 21.55h.08l3.26-21.55h4.19v29.22h-2.54v-26.13h-.08l-3.94 26.13h-1.99l-3.94-26.13h-.08v26.13h-2.24v-29.22zM168.49 132.92h8.38v2.2h-5.84v10.21h5.08v2.2h-5.08v12.41h5.84v2.2h-8.38v-29.22zM181.2 132.92h3.3l4.62 21.38h.08v-21.38h2.29v29.22h-2.75l-5.17-24.09h-.08v24.09h-2.29v-29.22zM199.19 135.12h-3.56v-2.2h9.65v2.2h-3.56v27.02h-2.54v-27.02zM208.6 158.67h2.84v3.47h-2.84v-3.47zM212.99 135.05l-2.12 1.33-.57-.94 2.22-1.19-2.22-1.16.57-.94 2.12 1.33-.12-2.49h1.11l-.12 2.49 2.12-1.33.57.94-2.22 1.19 2.22 1.16-.57.94-2.12-1.33.12 2.49h-1.11l.12-2.49z"/></svg>