<svg id="Layer_1" xmlns="http://www.w3.org/2000/svg" viewBox="0 0 300 600"><style>.st0{fill:#eaf5fb}.st1{fill:#002554}</style><path class="st0" d="M95 440.47h106.57v26.77H95z"/><path class="st1" d="M105.96 459.02v-8.74h2.12v6.9h3.38v1.84h-5.5zM112.95 459.02v-8.74h5.88v1.79h-3.84v1.64h3.63v1.69h-3.63v1.81h4.06v1.8h-6.1zM126.86 459.02l-.68-1.72h-3.38l-.64 1.72h-2.3l3.67-8.74h2.05l3.63 8.74h-2.35zm-2.34-6.41l-1.11 3h2.2l-1.09-3zM135.11 459.02l-1.89-3.47h-.72v3.47h-2.07v-8.74h3.33c1.68 0 3.35.64 3.35 2.64 0 1.17-.69 2.01-1.81 2.36l2.28 3.74h-2.47zm-1.49-7.04h-1.12v2.04h1c.68 0 1.53-.17 1.53-1.06 0-.82-.78-.98-1.41-.98zM144.67 459.02l-3.52-5.72h-.04l.05 5.72h-2.05v-8.74h2.41l3.51 5.7h.04l-.05-5.7h2.05v8.74h-2.4zM160.87 459.02l.05-6.18h-.04l-2.27 6.18h-1.48l-2.21-6.18h-.04l.05 6.18h-1.99v-8.74h3l1.99 5.6h.05l1.9-5.6h3.05v8.74h-2.06zM169.58 459.25c-2.73 0-4.75-1.88-4.75-4.64 0-2.8 2.02-4.57 4.75-4.57 2.74 0 4.77 1.77 4.77 4.57 0 2.77-2.03 4.64-4.77 4.64zm0-7.3c-1.48 0-2.49 1.14-2.49 2.67 0 1.58 1.02 2.72 2.49 2.72s2.51-1.14 2.51-2.72c0-1.54-1.03-2.67-2.51-2.67zM180.92 459.02l-1.89-3.47h-.72v3.47h-2.07v-8.74h3.33c1.68 0 3.34.64 3.34 2.64 0 1.17-.69 2.01-1.81 2.36l2.28 3.74h-2.46zm-1.49-7.04h-1.12v2.04h1c.68 0 1.53-.17 1.53-1.06-.01-.82-.78-.98-1.41-.98zM184.92 459.02v-8.74h5.88v1.79h-3.84v1.64h3.63v1.69h-3.63v1.81h4.06v1.8h-6.1z"/></svg>