<svg id="Layer_1" xmlns="http://www.w3.org/2000/svg" viewBox="0 0 300 600"><style>.st0{fill:#fff}</style><path class="st0" d="M42.73 480.01l.24.68-1.14.37.73.98-.58.43-.76-1.02-.76 1.02-.58-.43.73-.98-1.14-.37.24-.68 1.14.37v-1.16h.72v1.16l1.16-.37zM49.55 484.6c-.25.34-.58.62-.98.83s-.88.32-1.45.32c-.49 0-.93-.08-1.35-.25-.41-.16-.77-.4-1.06-.69s-.53-.65-.7-1.06a3.49 3.49 0 0 1-.25-1.35c0-.5.09-.95.26-1.36a3.094 3.094 0 0 1 1.79-1.73c.42-.16.86-.24 1.35-.24.22 0 .44.02.66.06.22.04.44.1.64.19.2.08.39.19.56.31s.31.27.43.43l-.7.54c-.16-.22-.38-.39-.66-.54-.29-.14-.59-.21-.92-.21-.37 0-.71.07-1 .2-.3.14-.55.32-.76.55-.21.23-.37.51-.49.81a3.015 3.015 0 0 0 0 2c.11.31.27.58.48.81.21.23.46.41.76.54.3.13.63.2.99.2s.69-.07.98-.22c.29-.14.54-.35.73-.63l.69.49zM54.62 483.45a2.243 2.243 0 0 1-.67 1.63c-.21.21-.45.36-.73.47-.28.11-.58.17-.91.17-.32 0-.63-.06-.91-.17a2.115 2.115 0 0 1-1.21-1.19c-.12-.28-.18-.58-.18-.91s.06-.63.18-.91c.12-.27.28-.51.48-.71s.45-.35.73-.46c.28-.11.58-.17.91-.17.32 0 .63.06.91.17a2.142 2.142 0 0 1 1.22 1.17c.12.28.18.58.18.91zm-.88 0c0-.2-.03-.4-.09-.58-.06-.19-.15-.35-.28-.49s-.27-.25-.45-.34c-.18-.08-.38-.13-.61-.13-.23 0-.43.04-.61.13-.18.08-.33.2-.45.34a1.568 1.568 0 0 0-.37 1.07c0 .2.03.4.09.58.06.18.16.35.28.49.12.14.27.26.45.34.18.08.38.13.61.13.23 0 .43-.04.61-.13.18-.08.33-.2.45-.34s.21-.31.28-.49c.06-.18.09-.37.09-.58zM60.11 483.45a2.243 2.243 0 0 1-.67 1.63c-.21.21-.45.36-.73.47-.28.11-.58.17-.91.17-.32 0-.63-.06-.91-.17a2.115 2.115 0 0 1-1.21-1.19c-.12-.28-.18-.58-.18-.91s.06-.63.18-.91c.12-.27.28-.51.48-.71s.45-.35.73-.46c.28-.11.58-.17.91-.17.32 0 .63.06.91.17a2.142 2.142 0 0 1 1.22 1.17c.12.28.18.58.18.91zm-.88 0c0-.2-.03-.4-.09-.58-.06-.19-.15-.35-.28-.49s-.27-.25-.45-.34c-.18-.08-.38-.13-.61-.13-.23 0-.43.04-.61.13-.18.08-.33.2-.45.34a1.568 1.568 0 0 0-.37 1.07c0 .2.03.4.09.58.06.18.16.35.28.49.12.14.27.26.45.34.18.08.38.13.61.13.23 0 .43-.04.61-.13.18-.08.33-.2.45-.34s.21-.31.28-.49c.06-.18.09-.37.09-.58zM62.15 485.59h-.85v-6.8h.85v6.8zM66.84 480.4c-.13-.17-.3-.32-.51-.43-.22-.11-.46-.17-.73-.17-.14 0-.29.02-.44.06a1.137 1.137 0 0 0-.69.51c-.07.13-.11.28-.11.46 0 .17.03.32.1.44s.16.22.28.3c.12.08.25.15.41.21s.33.12.51.18c.22.07.43.14.66.22s.42.2.6.33c.18.14.33.31.44.52.11.21.17.47.17.79 0 .33-.06.62-.18.86s-.29.44-.49.6-.44.28-.71.36-.54.12-.82.12c-.4 0-.79-.08-1.17-.23-.38-.16-.69-.39-.93-.69l.69-.58a1.742 1.742 0 0 0 1.42.75c.15 0 .3-.02.45-.06s.29-.11.41-.2c.12-.09.22-.2.3-.34.08-.14.12-.3.12-.49a.9.9 0 0 0-.12-.48c-.08-.13-.19-.24-.33-.33s-.3-.17-.48-.23-.38-.13-.58-.19c-.2-.06-.4-.13-.6-.22-.2-.09-.38-.2-.53-.33-.16-.13-.28-.3-.38-.5-.1-.2-.14-.44-.14-.74 0-.32.06-.59.19-.82.13-.23.3-.42.5-.57.21-.15.44-.26.7-.33.26-.07.52-.1.79-.1.37 0 .72.07 1.04.2.32.13.58.31.78.53l-.62.59zM71.73 482.4c-.09-.14-.22-.25-.4-.35s-.37-.14-.58-.14c-.22 0-.42.04-.59.13s-.32.2-.44.34-.21.3-.27.49a1.9 1.9 0 0 0 0 1.16c.06.19.15.35.27.49.12.14.27.25.44.34.17.08.37.13.59.13.22 0 .41-.04.59-.13.18-.08.32-.2.44-.34l.57.51c-.18.21-.4.37-.67.49s-.58.18-.92.18c-.33 0-.63-.05-.91-.16s-.52-.26-.72-.45c-.2-.2-.36-.43-.48-.71-.12-.28-.18-.58-.18-.93 0-.34.06-.64.17-.92.11-.28.27-.51.48-.71.2-.2.45-.35.72-.46.28-.11.58-.16.9-.16.3 0 .6.06.9.18s.53.29.71.52l-.62.5zM76.2 485.59l-.03-.36c-.01-.13-.01-.25-.01-.34h-.02c-.11.23-.29.42-.54.58-.26.16-.54.24-.85.24-.28 0-.51-.04-.72-.13-.2-.09-.37-.21-.49-.37-.13-.16-.23-.34-.29-.55s-.09-.43-.09-.67v-2.65H74v2.36c0 .17.01.34.04.5s.08.3.15.42c.07.12.17.22.3.29s.29.11.49.11c.34 0 .62-.13.83-.38s.31-.6.31-1.02v-2.27h.85v3.35c0 .11 0 .26.01.44s.02.34.03.48h-.81zM79.29 485.59h-.85v-6.8h.85v6.8zM81.61 487.75h-.85v-6.43h.83v.67h.03c.14-.23.34-.42.61-.56.27-.15.58-.22.93-.22.32 0 .61.06.87.17.26.11.48.27.67.48.19.2.33.44.44.72.1.27.15.57.15.88 0 .31-.05.61-.15.88-.1.28-.25.52-.43.72-.19.2-.41.36-.67.48-.26.12-.56.18-.89.18-.31 0-.59-.07-.86-.2s-.48-.32-.64-.56h-.03v2.79zm2.81-4.3c0-.2-.03-.39-.09-.58-.06-.19-.15-.35-.27-.5-.12-.14-.27-.26-.45-.34a1.49 1.49 0 0 0-.62-.13c-.22 0-.41.04-.59.13-.18.08-.33.2-.45.34-.13.14-.22.31-.29.5-.07.19-.1.38-.1.58a1.609 1.609 0 0 0 .39 1.07c.13.14.28.25.45.34.18.08.37.13.59.13.23 0 .44-.04.62-.13s.33-.2.45-.35c.12-.14.21-.31.27-.5.06-.17.09-.37.09-.56zM88.56 482.02h-1.13v2.22c0 .26.05.44.14.55.1.11.25.17.46.17.08 0 .16-.01.25-.03s.17-.04.24-.07l.03.69c-.1.04-.21.06-.34.08-.12.02-.25.03-.38.03-.4 0-.71-.11-.92-.33s-.32-.55-.32-1v-2.31h-.82v-.69h.82v-1.22h.84v1.22h1.13v.69zM90.42 479.78c0 .16-.06.29-.17.39-.11.1-.24.15-.4.15-.15 0-.29-.05-.39-.16a.492.492 0 0 1-.16-.38c0-.16.05-.29.16-.39.11-.11.24-.16.39-.16.15 0 .29.05.4.16.12.11.17.24.17.39zm-.13 5.81h-.85v-4.27h.85v4.27zM92.53 481.32l.03.36c.01.13.01.25.01.34h.03c.05-.11.13-.22.22-.32s.2-.19.32-.26c.12-.08.25-.13.4-.18s.29-.06.45-.06c.28 0 .51.05.71.14.2.09.36.22.5.37s.23.34.29.55.09.44.09.67v2.65h-.85v-2.37c0-.17-.01-.34-.04-.5-.03-.16-.08-.29-.15-.41a.762.762 0 0 0-.3-.29c-.13-.07-.29-.11-.49-.11-.34 0-.61.13-.82.38-.21.25-.32.59-.32 1.02v2.27h-.85v-3.35c0-.11 0-.26-.01-.44s-.02-.34-.03-.48h.81zM97.34 486.32c.19.21.42.38.7.5.28.13.57.19.86.19.28 0 .52-.04.71-.12.19-.08.35-.19.46-.33.12-.14.2-.31.25-.5.05-.19.08-.4.08-.62v-.55h-.02c-.16.24-.37.42-.64.55s-.56.19-.86.19c-.32 0-.62-.06-.89-.17s-.49-.27-.68-.47c-.19-.2-.33-.43-.43-.7-.1-.27-.15-.55-.15-.86 0-.31.05-.59.15-.86.1-.27.25-.5.43-.71.19-.2.41-.36.67-.48.26-.12.56-.18.88-.18.31 0 .6.07.88.2s.5.33.66.6h.02v-.68h.82v4.05c0 .31-.04.61-.12.9-.08.29-.21.54-.4.76s-.43.39-.73.53c-.3.13-.67.2-1.12.2-.37 0-.75-.07-1.12-.2-.38-.13-.7-.33-.97-.57l.56-.67zm.25-2.91c0 .2.03.39.09.57.06.18.16.34.28.48s.27.25.45.33c.17.08.37.13.6.13.22 0 .42-.04.6-.12.18-.08.33-.18.46-.32s.22-.29.29-.48c.07-.18.1-.38.1-.59a1.495 1.495 0 0 0-.4-1.06 1.386 1.386 0 0 0-1.05-.45c-.22 0-.42.04-.6.12-.17.08-.32.19-.45.32s-.22.29-.28.48c-.06.19-.09.39-.09.59zM102.61 481.15c0-.28.05-.55.16-.8s.25-.46.44-.65c.19-.18.4-.33.65-.44.25-.11.51-.16.8-.16.28 0 .55.05.8.16s.47.25.65.44c.19.18.33.4.44.65.11.25.16.51.16.8 0 .28-.05.55-.16.79a2.047 2.047 0 0 1-1.09 1.07c-.25.1-.51.16-.8.16-.28 0-.55-.05-.8-.16s-.47-.25-.65-.43c-.19-.18-.33-.4-.44-.64s-.16-.51-.16-.79zm.32 0a1.702 1.702 0 0 0 1.73 1.72c.24 0 .46-.04.67-.13a1.72 1.72 0 0 0 .92-.92c.09-.21.14-.43.14-.67 0-.24-.05-.47-.14-.68a1.72 1.72 0 0 0-.92-.92c-.21-.09-.44-.13-.67-.13-.24 0-.47.04-.68.13a1.72 1.72 0 0 0-.92.92c-.09.21-.13.44-.13.68zm2.23 1.13l-.49-.89h-.32v.89h-.55v-2.3h.99c.11 0 .21.01.31.04a.703.703 0 0 1 .48.34c.05.09.08.21.08.35 0 .16-.04.29-.13.39-.09.1-.2.18-.33.22l.61.97h-.65zm-.4-1.29a.4.4 0 0 0 .23-.08c.07-.05.1-.13.1-.22 0-.1-.04-.16-.12-.21a.487.487 0 0 0-.22-.06h-.42v.57h.43zM111.33 479.78c0 .16-.06.29-.17.39-.11.1-.24.15-.4.15-.15 0-.29-.05-.39-.16a.492.492 0 0 1-.16-.38c0-.16.05-.29.16-.39.11-.11.24-.16.39-.16.15 0 .29.05.4.16.12.11.17.24.17.39zm-.13 5.81h-.85v-4.27h.85v4.27zM114.98 482.4c-.1-.16-.23-.28-.41-.38-.17-.1-.37-.15-.58-.15-.1 0-.19.01-.29.03-.1.02-.18.05-.26.1-.08.05-.14.1-.18.17a.5.5 0 0 0-.07.26c0 .18.08.31.24.4.16.09.4.17.73.24.2.05.39.1.57.17.17.07.33.15.45.25a1.034 1.034 0 0 1 .41.85c0 .25-.05.46-.14.64-.1.17-.22.32-.38.43s-.34.19-.54.24-.41.07-.63.07c-.32 0-.64-.06-.95-.19s-.57-.32-.77-.58l.6-.51c.11.17.27.31.47.42.2.11.42.17.66.17.11 0 .21-.01.31-.03.1-.02.19-.06.27-.1.08-.05.15-.11.19-.19.05-.08.07-.18.07-.3 0-.2-.09-.34-.28-.44s-.47-.19-.83-.27c-.14-.04-.29-.08-.44-.13-.15-.05-.28-.12-.4-.21a.957.957 0 0 1-.29-.34c-.07-.14-.11-.3-.11-.5a1.155 1.155 0 0 1 .5-.99c.15-.11.32-.18.51-.23a2.283 2.283 0 0 1 1.48.1c.28.12.51.29.66.52l-.57.48zM121.01 482.02h-1.13v2.22c0 .26.05.44.14.55.1.11.25.17.46.17.08 0 .16-.01.25-.03s.17-.04.24-.07l.03.69c-.1.04-.21.06-.34.08-.12.02-.25.03-.38.03-.4 0-.71-.11-.92-.33s-.32-.55-.32-1v-2.31h-.82v-.69h.82v-1.22h.84v1.22h1.13v.69zM122.76 481.97c.1-.21.28-.39.52-.54.25-.15.52-.22.83-.22.28 0 .51.05.71.14.2.09.36.22.5.37s.23.34.29.55.09.44.09.67v2.65h-.85v-2.36c0-.17-.01-.34-.04-.5s-.08-.29-.15-.42c-.07-.12-.17-.22-.29-.29s-.28-.11-.48-.11c-.34 0-.61.13-.83.38-.22.25-.32.6-.32 1.02v2.26h-.85v-6.8h.85v3.19h.02zM131.12 483.42v.14c0 .05 0 .1-.01.14h-3.39c.01.18.05.35.12.5.07.16.18.29.3.41s.27.21.44.27.34.1.53.1c.29 0 .54-.06.75-.19s.38-.28.5-.46l.59.48c-.23.3-.5.52-.81.67-.31.14-.65.21-1.03.21-.32 0-.62-.05-.9-.16s-.51-.26-.71-.45a2.2 2.2 0 0 1-.47-.71 2.47 2.47 0 0 1-.17-.92c0-.33.06-.63.17-.91.11-.28.27-.52.46-.72.2-.2.43-.35.7-.46.27-.11.56-.17.88-.17.31 0 .6.05.85.15.26.1.47.25.65.44.18.19.31.42.41.7.09.29.14.6.14.94zm-.86-.34c-.01-.17-.03-.33-.09-.47-.05-.15-.13-.27-.23-.38-.1-.11-.22-.19-.37-.26a1.38 1.38 0 0 0-.52-.09c-.18 0-.35.03-.51.09-.16.06-.3.15-.41.26-.12.11-.21.24-.29.38-.07.15-.12.3-.13.47h2.55zM136.63 482.02h-1.13v2.22c0 .26.05.44.14.55.1.11.25.17.46.17.08 0 .16-.01.25-.03s.17-.04.24-.07l.03.69c-.1.04-.21.06-.34.08-.12.02-.25.03-.38.03-.4 0-.71-.11-.92-.33s-.32-.55-.32-1v-2.31h-.82v-.69h.82v-1.22h.84v1.22h1.13v.69zM137.49 481.8c-.01-.18-.02-.34-.03-.48h.8c.01.11.02.23.03.37.01.14.01.26.01.35h.03c.12-.25.3-.46.53-.61.23-.15.49-.23.78-.23.13 0 .24.01.33.04l-.04.78c-.12-.03-.25-.04-.39-.04-.2 0-.38.04-.53.11-.15.07-.27.17-.37.3-.1.13-.17.27-.22.44s-.07.34-.07.52v2.24h-.85v-3.35c0-.11 0-.26-.01-.44zM144.59 483.42v.14c0 .05 0 .1-.01.14h-3.39c.01.18.05.35.12.5.07.16.18.29.3.41s.27.21.44.27.34.1.53.1c.29 0 .54-.06.75-.19s.38-.28.5-.46l.59.48c-.23.3-.5.52-.81.67-.31.14-.65.21-1.03.21-.32 0-.62-.05-.9-.16s-.51-.26-.71-.45a2.2 2.2 0 0 1-.47-.71 2.47 2.47 0 0 1-.17-.92c0-.33.06-.63.17-.91.11-.28.27-.52.46-.72.2-.2.43-.35.7-.46.27-.11.56-.17.88-.17.31 0 .6.05.85.15.26.1.47.25.65.44.18.19.31.42.41.7.09.29.14.6.14.94zm-.87-.34c-.01-.17-.03-.33-.09-.47-.05-.15-.13-.27-.23-.38-.1-.11-.22-.19-.37-.26a1.38 1.38 0 0 0-.52-.09c-.18 0-.35.03-.51.09-.16.06-.3.15-.41.26-.12.11-.21.24-.29.38-.07.15-.12.3-.13.47h2.55zM148.36 482.83c0-.32-.1-.55-.29-.71-.19-.15-.45-.23-.77-.23-.24 0-.47.05-.68.14s-.39.21-.54.36l-.45-.54c.21-.2.47-.35.77-.47.3-.11.63-.17.98-.17.31 0 .57.04.8.13.23.09.41.21.55.36.14.15.25.33.32.53s.11.42.11.66v1.86c0 .14 0 .29.01.45s.03.29.05.39h-.76c-.05-.2-.07-.41-.07-.61h-.03c-.16.23-.35.41-.59.53-.24.13-.52.19-.84.19-.17 0-.34-.02-.53-.07-.18-.04-.35-.12-.5-.22a1.212 1.212 0 0 1-.52-1.03c0-.32.09-.58.26-.77.17-.19.4-.33.68-.43.28-.1.6-.16.95-.19s.71-.05 1.07-.05v-.11zm-.21.72c-.21 0-.43.01-.65.03-.23.02-.43.05-.61.11-.18.05-.33.14-.45.24-.12.11-.18.25-.18.43 0 .13.03.23.08.31a.686.686 0 0 0 .48.32c.1.02.21.03.31.03.4 0 .7-.12.91-.36.21-.24.32-.54.32-.9v-.23h-.21zM152.58 482.02h-1.13v2.22c0 .26.05.44.14.55.1.11.25.17.46.17.08 0 .16-.01.25-.03s.17-.04.24-.07l.03.69c-.1.04-.21.06-.34.08-.12.02-.25.03-.38.03-.4 0-.71-.11-.92-.33s-.32-.55-.32-1v-2.31h-.82v-.69h.82v-1.22h.84v1.22h1.13v.69zM154.8 481.44c.24-.16.52-.24.84-.24.29 0 .55.07.78.2.23.13.41.35.54.66.14-.28.34-.49.6-.63.26-.15.54-.22.85-.22.28 0 .51.05.71.14a1.411 1.411 0 0 1 .78.92c.06.21.09.44.09.67v2.65h-.85v-2.37c0-.17-.01-.34-.04-.5-.03-.16-.08-.29-.15-.41a.806.806 0 0 0-.29-.29.894.894 0 0 0-.46-.11 1 1 0 0 0-.5.12c-.14.08-.25.19-.34.32s-.15.27-.19.44-.06.33-.06.5v2.3h-.85v-2.54c0-.17-.02-.32-.05-.46-.03-.14-.08-.26-.15-.36s-.17-.18-.28-.23c-.11-.06-.25-.08-.42-.08-.31 0-.57.13-.78.38-.21.25-.31.59-.31 1.02v2.27h-.85v-3.35c0-.11 0-.26-.01-.44s-.01-.34-.03-.48h.8l.03.36c.01.13.01.25.01.34h.03c.14-.22.31-.42.55-.58zM165.42 483.42v.14c0 .05 0 .1-.01.14h-3.39c.01.18.05.35.12.5s.18.29.3.41.27.21.44.27.34.1.53.1c.29 0 .54-.06.75-.19s.38-.28.5-.46l.59.48c-.23.3-.5.52-.81.67-.31.14-.65.21-1.03.21-.32 0-.62-.05-.9-.16s-.51-.26-.71-.45a2.2 2.2 0 0 1-.47-.71 2.47 2.47 0 0 1-.17-.92c0-.33.06-.63.17-.91.11-.28.27-.52.46-.72s.43-.35.7-.46c.27-.11.56-.17.87-.17.31 0 .6.05.85.15.26.1.47.25.65.44.18.19.31.42.41.7.1.29.15.6.15.94zm-.86-.34c-.01-.17-.03-.33-.08-.47s-.13-.27-.23-.38c-.1-.11-.22-.19-.37-.26a1.38 1.38 0 0 0-.52-.09c-.18 0-.35.03-.51.09-.16.06-.3.15-.41.26-.12.11-.21.24-.29.38s-.12.3-.13.47h2.54zM167.36 481.32l.03.36c.01.13.01.25.01.34h.03c.05-.11.13-.22.22-.32s.2-.19.32-.26.25-.13.4-.18c.14-.04.29-.06.45-.06.28 0 .51.05.71.14.2.09.36.22.5.37.13.16.23.34.29.55.06.21.09.44.09.67v2.65h-.85v-2.37c0-.17-.01-.34-.04-.5-.03-.16-.08-.29-.15-.41a.762.762 0 0 0-.3-.29c-.13-.07-.29-.11-.49-.11-.34 0-.61.13-.82.38-.21.25-.32.59-.32 1.02v2.27h-.85v-3.35c0-.11 0-.26-.01-.44s-.01-.34-.03-.48h.81zM173.92 482.02h-1.13v2.22c0 .26.05.44.14.55.1.11.25.17.46.17.08 0 .16-.01.25-.03s.17-.04.24-.07l.03.69c-.1.04-.21.06-.34.08-.12.02-.25.03-.38.03-.4 0-.71-.11-.92-.33s-.32-.55-.32-1v-2.31h-.82v-.69h.82v-1.22h.84v1.22h1.13v.69zM180.44 484.91c-.16.26-.38.45-.66.59-.28.14-.57.2-.88.2-.33 0-.63-.06-.89-.18a2.049 2.049 0 0 1-1.1-1.2c-.1-.28-.15-.57-.15-.88 0-.31.05-.6.15-.88.1-.27.25-.51.44-.72.19-.2.42-.36.68-.48s.55-.17.87-.17c.35 0 .65.07.91.22s.46.33.61.54h.02v-3.18h.85v6.8h-.82v-.67h-.03zm-2.81-1.46c0 .2.03.39.09.57.06.19.15.35.27.49s.27.26.44.35c.17.09.38.13.61.13.22 0 .41-.04.59-.13s.33-.2.46-.34.22-.3.29-.49c.07-.19.1-.38.1-.58a1.609 1.609 0 0 0-.39-1.07 1.418 1.418 0 0 0-1.05-.47 1.335 1.335 0 0 0-1.05.47c-.12.14-.21.31-.27.49a1.9 1.9 0 0 0-.09.58zM187.08 483.45a2.243 2.243 0 0 1-.67 1.63c-.21.21-.45.36-.73.47-.28.11-.58.17-.91.17s-.63-.06-.91-.17a2.134 2.134 0 0 1-1.21-1.19c-.12-.28-.18-.58-.18-.91s.06-.63.18-.91c.12-.27.28-.51.48-.71.2-.2.45-.35.73-.46.28-.11.58-.17.91-.17s.63.06.91.17a2.142 2.142 0 0 1 1.22 1.17c.12.28.18.58.18.91zm-.89 0c0-.2-.03-.4-.09-.58s-.16-.35-.28-.49-.27-.25-.45-.34c-.18-.08-.38-.13-.61-.13s-.43.04-.61.13c-.18.08-.33.2-.45.34s-.21.3-.28.49a1.9 1.9 0 0 0 0 1.16c.06.18.15.35.28.49.12.14.27.26.45.34s.38.13.61.13.43-.04.61-.13.33-.2.45-.34.21-.31.28-.49c.06-.18.09-.37.09-.58zM191.23 482.4c-.09-.14-.22-.25-.41-.35-.18-.09-.37-.14-.58-.14-.22 0-.42.04-.59.13s-.32.2-.44.34-.21.3-.27.49a1.9 1.9 0 0 0 0 1.16c.06.19.15.35.27.49.12.14.27.25.44.34.17.08.37.13.59.13.22 0 .41-.04.59-.13.18-.08.32-.2.44-.34l.57.51c-.18.21-.41.37-.67.49-.27.12-.58.18-.92.18-.33 0-.63-.05-.91-.16a2.2 2.2 0 0 1-.72-.45c-.2-.2-.37-.43-.48-.71-.12-.28-.18-.58-.18-.93 0-.34.06-.64.17-.92.11-.28.27-.51.48-.71.2-.2.45-.35.72-.46.28-.11.58-.16.9-.16.3 0 .6.06.9.18.3.12.53.29.71.52l-.61.5zM194.78 482.02h-1.13v2.22c0 .26.05.44.14.55.1.11.25.17.46.17.08 0 .16-.01.25-.03s.17-.04.24-.07l.03.69c-.1.04-.21.06-.34.08-.12.02-.25.03-.38.03-.4 0-.71-.11-.92-.33s-.32-.55-.32-1v-2.31h-.82v-.69h.82v-1.22h.84v1.22h1.13v.69zM199.97 483.45a2.243 2.243 0 0 1-.67 1.63c-.21.21-.45.36-.73.47-.28.11-.58.17-.91.17s-.63-.06-.91-.17a2.134 2.134 0 0 1-1.21-1.19c-.12-.28-.18-.58-.18-.91s.06-.63.18-.91c.12-.27.28-.51.48-.71.2-.2.45-.35.73-.46.28-.11.58-.17.91-.17s.63.06.91.17a2.142 2.142 0 0 1 1.22 1.17c.12.28.18.58.18.91zm-.88 0c0-.2-.03-.4-.09-.58s-.16-.35-.28-.49-.27-.25-.45-.34c-.18-.08-.38-.13-.61-.13s-.43.04-.61.13c-.18.08-.33.2-.45.34s-.21.3-.28.49a1.9 1.9 0 0 0 0 1.16c.06.18.15.35.28.49.12.14.27.26.45.34s.38.13.61.13.43-.04.61-.13.33-.2.45-.34.21-.31.28-.49c.06-.18.09-.37.09-.58zM201.13 481.8c-.01-.18-.01-.34-.03-.48h.8c.01.11.02.23.03.37.01.14.01.26.01.35h.03c.12-.25.3-.46.53-.61.23-.15.49-.23.78-.23.13 0 .24.01.33.04l-.04.78c-.12-.03-.25-.04-.39-.04-.2 0-.38.04-.53.11-.15.07-.27.17-.37.3-.1.13-.17.27-.22.44-.05.17-.07.34-.07.52v2.24h-.85v-3.35c0-.11 0-.26-.01-.44zM206.71 482.4c-.1-.16-.23-.28-.41-.38-.17-.1-.37-.15-.58-.15-.1 0-.19.01-.29.03-.1.02-.18.05-.26.1-.07.05-.13.1-.18.17a.5.5 0 0 0-.07.26c0 .18.08.31.24.4s.41.17.73.24c.2.05.39.1.57.17.17.07.33.15.45.25s.23.22.3.36c.07.14.11.3.11.49 0 .25-.05.46-.14.64s-.22.32-.38.43c-.16.11-.34.19-.54.24s-.41.07-.63.07c-.32 0-.64-.06-.95-.19-.31-.13-.57-.32-.77-.58l.6-.51c.11.17.27.31.47.42.2.11.42.17.66.17.11 0 .21-.01.31-.03.1-.02.19-.06.27-.1s.15-.11.19-.19.07-.18.07-.3c0-.2-.09-.34-.28-.44-.19-.1-.47-.19-.83-.27-.14-.04-.29-.08-.44-.13-.15-.05-.28-.12-.4-.21s-.22-.2-.29-.34c-.08-.14-.11-.3-.11-.5a1.155 1.155 0 0 1 .5-.99c.15-.11.32-.18.51-.23a2.283 2.283 0 0 1 1.48.1c.29.12.51.29.66.52l-.57.48zM213.65 485.59l-.03-.36c-.01-.13-.01-.25-.01-.34h-.02c-.11.23-.29.42-.54.58-.25.16-.54.24-.85.24-.28 0-.51-.04-.72-.13-.2-.09-.37-.21-.5-.37s-.22-.34-.29-.55c-.06-.21-.09-.43-.09-.67v-2.65h.85v2.36c0 .17.01.34.04.5.03.16.08.3.15.42.07.12.17.22.3.29s.29.11.49.11c.34 0 .62-.13.83-.38s.32-.6.32-1.02v-2.27h.85v3.35c0 .11 0 .26.01.44s.01.34.03.48h-.82zM218.19 482.4c-.1-.16-.23-.28-.41-.38-.17-.1-.37-.15-.58-.15-.1 0-.19.01-.29.03-.1.02-.18.05-.26.1-.07.05-.13.1-.18.17a.5.5 0 0 0-.07.26c0 .18.08.31.24.4s.41.17.73.24c.2.05.39.1.57.17.17.07.33.15.45.25s.23.22.3.36c.07.14.11.3.11.49 0 .25-.05.46-.14.64s-.22.32-.38.43c-.16.11-.34.19-.54.24s-.41.07-.63.07c-.32 0-.64-.06-.95-.19-.31-.13-.57-.32-.77-.58l.6-.51c.11.17.27.31.47.42.2.11.42.17.66.17.11 0 .21-.01.31-.03.1-.02.19-.06.27-.1s.15-.11.19-.19.07-.18.07-.3c0-.2-.09-.34-.28-.44-.19-.1-.47-.19-.83-.27-.14-.04-.29-.08-.44-.13-.15-.05-.28-.12-.4-.21s-.22-.2-.29-.34c-.08-.14-.11-.3-.11-.5a1.155 1.155 0 0 1 .5-.99c.15-.11.32-.18.51-.23a2.283 2.283 0 0 1 1.48.1c.29.12.51.29.66.52l-.57.48zM223.87 483.42v.14c0 .05 0 .1-.01.14h-3.39c.01.18.05.35.12.5s.18.29.3.41.27.21.44.27.34.1.53.1c.29 0 .54-.06.75-.19s.38-.28.5-.46l.59.48c-.23.3-.5.52-.81.67-.31.14-.65.21-1.03.21-.32 0-.62-.05-.9-.16s-.51-.26-.71-.45a2.2 2.2 0 0 1-.47-.71 2.47 2.47 0 0 1-.17-.92c0-.33.06-.63.17-.91.11-.28.27-.52.46-.72s.43-.35.7-.46c.27-.11.56-.17.87-.17.31 0 .6.05.85.15.26.1.47.25.65.44.18.19.31.42.41.7.1.29.15.6.15.94zm-.87-.34c-.01-.17-.03-.33-.08-.47s-.13-.27-.23-.38c-.1-.11-.22-.19-.37-.26a1.38 1.38 0 0 0-.52-.09c-.18 0-.35.03-.51.09-.16.06-.3.15-.41.26-.12.11-.21.24-.29.38s-.12.3-.13.47H223zM228.63 481.44c.24-.16.52-.24.84-.24.29 0 .55.07.78.2.23.13.41.35.54.66.14-.28.34-.49.6-.63.26-.15.54-.22.85-.22.28 0 .51.05.71.14a1.411 1.411 0 0 1 .78.92c.06.21.09.44.09.67v2.65h-.85v-2.37c0-.17-.01-.34-.04-.5-.03-.16-.08-.29-.15-.41a.806.806 0 0 0-.29-.29.894.894 0 0 0-.46-.11 1 1 0 0 0-.5.12c-.14.08-.25.19-.34.32s-.15.27-.19.44-.06.33-.06.5v2.3h-.85v-2.54c0-.17-.02-.32-.05-.46-.03-.14-.08-.26-.15-.36s-.17-.18-.28-.23c-.11-.06-.25-.08-.42-.08-.31 0-.57.13-.78.38-.21.25-.31.59-.31 1.02v2.27h-.85v-3.35c0-.11 0-.26-.01-.44s-.01-.34-.03-.48h.8l.03.36c.01.13.01.25.01.34h.03c.14-.22.32-.42.55-.58zM239.59 483.45a2.243 2.243 0 0 1-.67 1.63c-.21.21-.45.36-.73.47-.28.11-.58.17-.91.17s-.63-.06-.91-.17a2.134 2.134 0 0 1-1.21-1.19c-.12-.28-.18-.58-.18-.91s.06-.63.18-.91c.12-.27.28-.51.48-.71.2-.2.45-.35.73-.46.28-.11.58-.17.91-.17s.63.06.91.17a2.142 2.142 0 0 1 1.22 1.17c.12.28.18.58.18.91zm-.88 0c0-.2-.03-.4-.09-.58s-.16-.35-.28-.49-.27-.25-.45-.34c-.18-.08-.38-.13-.61-.13s-.43.04-.61.13c-.18.08-.33.2-.45.34s-.21.3-.28.49a1.9 1.9 0 0 0 0 1.16c.06.18.15.35.28.49.12.14.27.26.45.34s.38.13.61.13.43-.04.61-.13.33-.2.45-.34.21-.31.28-.49c.06-.18.09-.37.09-.58zM243.07 482.4c-.1-.16-.23-.28-.41-.38-.17-.1-.37-.15-.58-.15-.1 0-.19.01-.29.03-.1.02-.18.05-.26.1-.07.05-.13.1-.18.17a.5.5 0 0 0-.07.26c0 .18.08.31.24.4s.41.17.73.24c.2.05.39.1.57.17.17.07.33.15.45.25s.23.22.3.36c.07.14.11.3.11.49 0 .25-.05.46-.14.64s-.22.32-.38.43c-.16.11-.34.19-.54.24s-.41.07-.63.07c-.32 0-.64-.06-.95-.19-.31-.13-.57-.32-.77-.58l.6-.51c.11.17.27.31.47.42.2.11.42.17.66.17.11 0 .21-.01.31-.03.1-.02.19-.06.27-.1s.15-.11.19-.19.07-.18.07-.3c0-.2-.09-.34-.28-.44-.19-.1-.47-.19-.83-.27-.14-.04-.29-.08-.44-.13-.15-.05-.28-.12-.4-.21s-.22-.2-.29-.34c-.08-.14-.11-.3-.11-.5a1.155 1.155 0 0 1 .5-.99c.15-.11.32-.18.51-.23a2.283 2.283 0 0 1 1.48.1c.29.12.51.29.66.52l-.57.48zM246.85 482.02h-1.13v2.22c0 .26.05.44.14.55.1.11.25.17.46.17.08 0 .16-.01.25-.03s.17-.04.24-.07l.03.69c-.1.04-.21.06-.34.08-.12.02-.25.03-.38.03-.4 0-.71-.11-.92-.33s-.32-.55-.32-1v-2.31h-.82v-.69h.82v-1.22h.84v1.22h1.13v.69zM251.98 482.02h-.99v3.57h-.85v-3.57h-.85v-.69h.85v-.89c0-.25.03-.48.08-.7s.15-.4.28-.55c.13-.16.29-.28.5-.37.2-.09.45-.13.73-.13.2 0 .38.02.53.06l-.1.73c-.07-.02-.13-.03-.2-.04-.07-.01-.14-.02-.22-.02a.87.87 0 0 0-.39.08c-.1.06-.18.13-.23.23-.05.1-.09.21-.11.33-.02.12-.03.25-.03.38v.89h.99v.69zM257.08 483.45a2.243 2.243 0 0 1-.67 1.63c-.21.21-.45.36-.73.47-.28.11-.58.17-.91.17s-.63-.06-.91-.17a2.134 2.134 0 0 1-1.21-1.19c-.12-.28-.18-.58-.18-.91s.06-.63.18-.91c.12-.27.28-.51.48-.71.2-.2.45-.35.73-.46.28-.11.58-.17.91-.17s.63.06.91.17a2.142 2.142 0 0 1 1.22 1.17c.12.28.18.58.18.91zm-.88 0c0-.2-.03-.4-.09-.58s-.16-.35-.28-.49-.27-.25-.45-.34c-.18-.08-.38-.13-.61-.13s-.43.04-.61.13c-.18.08-.33.2-.45.34s-.21.3-.28.49a1.9 1.9 0 0 0 0 1.16c.06.18.15.35.28.49.12.14.27.26.45.34s.38.13.61.13.43-.04.61-.13.33-.2.45-.34.21-.31.28-.49c.06-.18.09-.37.09-.58zM258.24 481.8c-.01-.18-.01-.34-.03-.48h.8c.01.11.02.23.03.37.01.14.01.26.01.35h.03c.12-.25.3-.46.53-.61.23-.15.49-.23.78-.23.13 0 .24.01.33.04l-.04.78c-.12-.03-.25-.04-.39-.04-.2 0-.38.04-.53.11-.15.07-.27.17-.37.3-.1.13-.17.27-.22.44-.05.17-.07.34-.07.52v2.24h-.85v-3.35c0-.11 0-.26-.01-.44zM49.2 492.32l.03.36c.01.13.01.25.01.34h.03c.05-.11.13-.22.22-.32s.2-.19.32-.26c.12-.08.25-.13.4-.18s.29-.06.45-.06c.28 0 .51.05.71.14.2.09.36.22.5.37s.23.34.29.55.09.44.09.67v2.65h-.85v-2.37c0-.17-.01-.34-.04-.5-.03-.16-.08-.29-.15-.41a.762.762 0 0 0-.3-.29c-.13-.07-.29-.11-.49-.11-.34 0-.61.13-.82.38-.21.25-.32.59-.32 1.02v2.27h-.85v-3.35c0-.11 0-.26-.01-.44s-.02-.34-.03-.48h.81zM57.99 494.45a2.243 2.243 0 0 1-.67 1.63c-.21.21-.45.36-.73.47-.28.11-.58.17-.91.17-.32 0-.63-.06-.91-.17a2.115 2.115 0 0 1-1.21-1.19c-.12-.28-.18-.58-.18-.91s.06-.63.18-.91c.12-.27.28-.51.48-.71s.45-.35.73-.46c.28-.11.58-.17.91-.17.32 0 .63.06.91.17a2.142 2.142 0 0 1 1.22 1.17c.12.28.18.58.18.91zm-.88 0c0-.2-.03-.4-.09-.58-.06-.19-.15-.35-.28-.49s-.27-.25-.45-.34c-.18-.08-.38-.13-.61-.13-.23 0-.43.04-.61.13-.18.08-.33.2-.45.34a1.568 1.568 0 0 0-.37 1.07c0 .2.03.4.09.58.06.18.16.35.28.49.12.14.27.26.45.34.18.08.38.13.61.13.23 0 .43-.04.61-.13.18-.08.33-.2.45-.34s.21-.31.28-.49c.06-.18.09-.37.09-.58zM59.93 492.32l.03.36c.01.13.01.25.01.34H60c.05-.11.13-.22.22-.32s.2-.19.32-.26c.12-.08.25-.13.4-.18s.29-.06.45-.06c.28 0 .51.05.71.14.2.09.36.22.5.37s.23.34.29.55.09.44.09.67v2.65h-.85v-2.37c0-.17-.01-.34-.04-.5-.03-.16-.08-.29-.15-.41a.762.762 0 0 0-.3-.29c-.13-.07-.29-.11-.49-.11-.34 0-.61.13-.82.38-.21.25-.32.59-.32 1.02v2.27h-.85v-3.35c0-.11 0-.26-.01-.44s-.02-.34-.03-.48h.81zM66.7 493.4c-.1-.16-.23-.28-.41-.38-.17-.1-.37-.15-.58-.15-.1 0-.19.01-.29.03-.1.02-.18.05-.26.1-.08.05-.14.1-.18.17a.5.5 0 0 0-.07.26c0 .18.08.31.24.4.16.09.4.17.73.24.2.05.39.1.57.17.17.07.33.15.45.25a1.034 1.034 0 0 1 .41.85c0 .25-.05.46-.14.64-.1.17-.22.32-.38.43s-.34.19-.54.24-.41.07-.63.07c-.32 0-.64-.06-.95-.19s-.57-.32-.77-.58l.6-.51c.11.17.27.31.47.42.2.11.42.17.66.17.11 0 .21-.01.31-.03.1-.02.19-.06.27-.1.08-.05.15-.11.19-.19.05-.08.07-.18.07-.3 0-.2-.09-.34-.28-.44s-.47-.19-.83-.27c-.14-.04-.29-.08-.44-.13-.15-.05-.28-.12-.4-.21a.957.957 0 0 1-.29-.34c-.07-.14-.11-.3-.11-.5a1.155 1.155 0 0 1 .5-.99c.15-.11.32-.18.51-.23a2.283 2.283 0 0 1 1.48.1c.28.12.51.29.66.52l-.57.48zM71.4 496.59l-.03-.36c-.01-.13-.01-.25-.01-.34h-.02c-.11.23-.29.42-.54.58-.26.16-.54.24-.85.24-.28 0-.51-.04-.72-.13-.2-.09-.37-.21-.49-.37-.13-.16-.23-.34-.29-.55s-.09-.43-.09-.67v-2.65h.85v2.36c0 .17.01.34.04.5s.08.3.15.42c.07.12.17.22.3.29s.29.11.49.11c.34 0 .62-.13.83-.38s.31-.6.31-1.02v-2.27h.85v3.35c0 .11 0 .26.01.44s.02.34.03.48h-.82zM73.63 492.8c-.01-.18-.02-.34-.03-.48h.8c.01.11.02.23.03.37.01.14.01.26.01.35h.03c.12-.25.3-.46.53-.61.23-.15.49-.23.78-.23.13 0 .24.01.33.04l-.04.78c-.12-.03-.25-.04-.39-.04-.2 0-.38.04-.53.11-.15.07-.27.17-.37.3-.1.13-.17.27-.22.44s-.07.34-.07.52v2.24h-.85v-3.35c-.01-.11-.01-.26-.01-.44zM77.06 497.32c.19.21.42.38.7.5.28.13.57.19.86.19.28 0 .52-.04.71-.12.19-.08.35-.19.46-.33.12-.14.2-.31.25-.5.05-.19.08-.4.08-.62v-.55h-.02c-.16.24-.37.42-.64.55s-.56.19-.86.19c-.32 0-.62-.06-.89-.17s-.49-.27-.68-.47c-.19-.2-.33-.43-.43-.7-.1-.27-.15-.55-.15-.86 0-.31.05-.59.15-.86.1-.27.25-.5.43-.71.19-.2.41-.36.67-.48.26-.12.56-.18.88-.18.31 0 .6.07.88.2s.5.33.66.6h.02v-.68h.82v4.05c0 .31-.04.61-.12.9-.08.29-.21.54-.4.76s-.43.39-.73.53c-.3.13-.67.2-1.12.2-.37 0-.75-.07-1.12-.2-.38-.13-.7-.33-.97-.57l.56-.67zm.25-2.91c0 .2.03.39.09.57.06.18.16.34.28.48s.27.25.45.33c.17.08.37.13.6.13.22 0 .42-.04.6-.12.18-.08.33-.18.46-.32s.22-.29.29-.48c.07-.18.1-.38.1-.59a1.495 1.495 0 0 0-.4-1.06 1.386 1.386 0 0 0-1.05-.45c-.22 0-.42.04-.6.12-.17.08-.32.19-.45.32s-.22.29-.28.48c-.05.19-.09.39-.09.59zM83.41 490.78c0 .16-.06.29-.17.39-.11.1-.24.15-.4.15-.15 0-.29-.05-.39-.16a.492.492 0 0 1-.16-.38c0-.16.05-.29.16-.39.11-.11.24-.16.39-.16.15 0 .29.05.4.16.11.11.17.24.17.39zm-.14 5.81h-.85v-4.27h.85v4.27zM87.74 493.4c-.09-.14-.22-.25-.4-.35s-.37-.14-.58-.14c-.22 0-.42.04-.59.13s-.32.2-.44.34-.21.3-.27.49a1.9 1.9 0 0 0 0 1.16c.06.19.15.35.27.49.12.14.27.25.44.34.17.08.37.13.59.13.22 0 .41-.04.59-.13.18-.08.32-.2.44-.34l.57.51c-.18.21-.4.37-.67.49s-.58.18-.92.18c-.33 0-.63-.05-.91-.16s-.52-.26-.72-.45c-.2-.2-.36-.43-.48-.71-.12-.28-.18-.58-.18-.93 0-.34.06-.64.17-.92.11-.28.27-.51.48-.71.2-.2.45-.35.72-.46.28-.11.58-.16.9-.16.3 0 .6.06.9.18s.53.29.71.52l-.62.5zM91.85 493.83c0-.32-.1-.55-.29-.71-.19-.15-.45-.23-.77-.23-.24 0-.47.05-.68.14s-.39.21-.54.36l-.45-.54c.21-.2.47-.35.77-.47.3-.11.63-.17.98-.17.31 0 .57.04.8.13.23.09.41.21.55.36.14.15.25.33.32.53s.11.42.11.66v1.86c0 .14 0 .29.01.45s.03.29.05.39h-.76c-.05-.2-.07-.41-.07-.61h-.03c-.16.23-.35.41-.59.53-.24.13-.52.19-.84.19-.17 0-.34-.02-.53-.07-.18-.04-.35-.12-.5-.22a1.212 1.212 0 0 1-.52-1.03c0-.32.09-.58.26-.77.17-.19.4-.33.68-.43.28-.1.6-.16.95-.19s.71-.05 1.07-.05v-.11zm-.21.72c-.21 0-.43.01-.65.03-.23.02-.43.05-.61.11-.18.05-.33.14-.45.24-.12.11-.18.25-.18.43 0 .13.03.23.08.31a.686.686 0 0 0 .48.32c.1.02.21.03.31.03.4 0 .7-.12.91-.36.21-.24.32-.54.32-.9v-.23h-.21zM94.94 496.59h-.85v-6.8h.85v6.8zM100.67 493.02h-.99v3.57h-.85v-3.57h-.85v-.69h.85v-.89c0-.25.03-.48.09-.7a1.365 1.365 0 0 1 .77-.92c.2-.09.45-.13.73-.13.2 0 .38.02.53.06l-.1.73c-.07-.02-.13-.03-.2-.04s-.14-.02-.23-.02a.87.87 0 0 0-.39.08c-.1.06-.18.13-.23.23-.05.1-.09.21-.11.33s-.03.25-.03.38v.89h.99v.69zM104.11 493.83c0-.32-.1-.55-.29-.71-.19-.15-.45-.23-.77-.23-.24 0-.47.05-.68.14s-.39.21-.54.36l-.45-.54c.21-.2.47-.35.77-.47.3-.11.63-.17.98-.17.31 0 .57.04.8.13.23.09.41.21.55.36.14.15.25.33.32.53s.11.42.11.66v1.86c0 .14 0 .29.01.45s.03.29.05.39h-.76c-.05-.2-.07-.41-.07-.61h-.03c-.16.23-.35.41-.59.53-.24.13-.52.19-.84.19-.17 0-.34-.02-.53-.07-.18-.04-.35-.12-.5-.22a1.212 1.212 0 0 1-.52-1.03c0-.32.09-.58.26-.77.17-.19.4-.33.68-.43.28-.1.6-.16.95-.19s.71-.05 1.07-.05v-.11zm-.21.72c-.21 0-.43.01-.65.03-.23.02-.43.05-.61.11-.18.05-.33.14-.45.24-.12.11-.18.25-.18.43 0 .13.03.23.08.31a.686.686 0 0 0 .48.32c.1.02.21.03.31.03.4 0 .7-.12.91-.36.21-.24.32-.54.32-.9v-.23h-.21zM108.33 493.02h-1.13v2.22c0 .26.05.44.14.55.1.11.25.17.46.17.08 0 .16-.01.25-.03s.17-.04.24-.07l.03.69c-.1.04-.21.06-.34.08-.12.02-.25.03-.38.03-.4 0-.71-.11-.92-.33s-.32-.55-.32-1v-2.31h-.82v-.69h.82v-1.22h.84v1.22h1.13v.69zM111.44 492.8c-.01-.18-.02-.34-.03-.48h.8c.01.11.02.23.03.37.01.14.01.26.01.35h.03c.12-.25.3-.46.53-.61.23-.15.49-.23.78-.23.13 0 .24.01.33.04l-.04.78c-.12-.03-.25-.04-.39-.04-.2 0-.38.04-.53.11-.15.07-.27.17-.37.3-.1.13-.17.27-.22.44s-.07.34-.07.52v2.24h-.85v-3.35c0-.11 0-.26-.01-.44zM118.53 494.42v.14c0 .05 0 .1-.01.14h-3.39c.01.18.05.35.12.5.07.16.18.29.3.41s.27.21.44.27.34.1.53.1c.29 0 .54-.06.75-.19s.38-.28.5-.46l.59.48c-.23.3-.5.52-.81.67-.31.14-.65.21-1.03.21-.32 0-.62-.05-.9-.16s-.51-.26-.71-.45a2.2 2.2 0 0 1-.47-.71 2.47 2.47 0 0 1-.17-.92c0-.33.06-.63.17-.91.11-.28.27-.52.46-.72.2-.2.43-.35.7-.46.27-.11.56-.17.88-.17.31 0 .6.05.85.15.26.1.47.25.65.44.18.19.31.42.41.7.1.29.14.6.14.94zm-.86-.34c-.01-.17-.03-.33-.09-.47-.05-.15-.13-.27-.23-.38-.1-.11-.22-.19-.37-.26a1.38 1.38 0 0 0-.52-.09c-.18 0-.35.03-.51.09-.16.06-.3.15-.41.26-.12.11-.21.24-.29.38-.07.15-.12.3-.13.47h2.55zM123.11 495.91c-.16.26-.38.45-.66.59-.28.14-.57.2-.88.2a2.112 2.112 0 0 1-1.57-.66c-.19-.2-.33-.44-.43-.72-.1-.28-.15-.57-.15-.88 0-.31.05-.6.15-.88.1-.27.25-.51.44-.72.19-.2.42-.36.68-.48s.56-.17.87-.17c.35 0 .65.07.91.22s.46.33.61.54h.02v-3.18h.85v6.8h-.82v-.67h-.02zm-2.81-1.46c0 .2.03.39.09.57.06.19.15.35.27.49.12.14.27.26.44.35.17.09.38.13.61.13.22 0 .41-.04.59-.13.18-.08.33-.2.45-.34a1.59 1.59 0 0 0 .39-1.07 1.609 1.609 0 0 0-.39-1.07 1.374 1.374 0 0 0-1.04-.47 1.335 1.335 0 0 0-1.05.47c-.12.14-.21.31-.27.49s-.09.38-.09.58zM128.43 496.59l-.03-.36c-.01-.13-.01-.25-.01-.34h-.02c-.11.23-.29.42-.54.58-.26.16-.54.24-.85.24-.28 0-.51-.04-.72-.13-.2-.09-.37-.21-.49-.37-.13-.16-.23-.34-.29-.55s-.09-.43-.09-.67v-2.65h.85v2.36c0 .17.01.34.04.5s.08.3.15.42c.07.12.17.22.3.29s.27.09.47.09c.34 0 .62-.13.83-.38s.31-.6.31-1.02v-2.27h.85v3.35c0 .11 0 .26.01.44s.02.34.03.48h-.8zM133.65 493.4c-.09-.14-.22-.25-.4-.35s-.37-.14-.58-.14c-.22 0-.42.04-.59.13s-.32.2-.44.34-.21.3-.27.49a1.9 1.9 0 0 0 0 1.16c.06.19.15.35.27.49.12.14.27.25.44.34.17.08.37.13.59.13.22 0 .41-.04.59-.13.18-.08.32-.2.44-.34l.57.51c-.18.21-.4.37-.67.49s-.58.18-.92.18c-.33 0-.63-.05-.91-.16s-.52-.26-.72-.45c-.2-.2-.36-.43-.48-.71-.12-.28-.18-.58-.18-.93 0-.34.06-.64.17-.92.11-.28.27-.51.48-.71.2-.2.45-.35.72-.46.28-.11.58-.16.9-.16.3 0 .6.06.9.18s.53.29.71.52l-.62.5zM137.19 493.02h-1.13v2.22c0 .26.05.44.14.55.1.11.25.17.46.17.08 0 .16-.01.25-.03s.17-.04.24-.07l.03.69c-.1.04-.21.06-.34.08-.12.02-.25.03-.38.03-.4 0-.71-.11-.92-.33s-.32-.55-.32-1v-2.31h-.82v-.69h.82v-1.22h.84v1.22h1.13v.69zM139.05 490.78c0 .16-.06.29-.17.39-.11.1-.24.15-.4.15-.15 0-.29-.05-.39-.16a.492.492 0 0 1-.16-.38c0-.16.05-.29.16-.39.11-.11.24-.16.39-.16.15 0 .29.05.4.16.12.11.17.24.17.39zm-.13 5.81h-.85v-4.27h.85v4.27zM144.72 494.45a2.243 2.243 0 0 1-.67 1.63c-.21.21-.45.36-.73.47-.28.11-.58.17-.91.17-.32 0-.63-.06-.91-.17a2.115 2.115 0 0 1-1.21-1.19c-.12-.28-.18-.58-.18-.91s.06-.63.18-.91c.12-.27.28-.51.48-.71s.45-.35.73-.46c.28-.11.58-.17.91-.17.32 0 .63.06.91.17a2.142 2.142 0 0 1 1.22 1.17c.12.28.18.58.18.91zm-.89 0c0-.2-.03-.4-.09-.58-.06-.19-.15-.35-.28-.49s-.27-.25-.45-.34c-.18-.08-.38-.13-.61-.13-.23 0-.43.04-.61.13-.18.08-.33.2-.45.34a1.568 1.568 0 0 0-.37 1.07c0 .2.03.4.09.58.06.18.16.35.28.49.12.14.27.26.45.34.18.08.38.13.61.13.23 0 .43-.04.61-.13.18-.08.33-.2.45-.34s.21-.31.28-.49c.06-.18.09-.37.09-.58zM146.65 492.32l.03.36c.01.13.01.25.01.34h.03c.05-.11.13-.22.22-.32s.2-.19.32-.26c.12-.08.25-.13.4-.18s.29-.06.45-.06c.28 0 .51.05.71.14.2.09.36.22.5.37s.23.34.29.55.09.44.09.67v2.65h-.85v-2.37c0-.17-.01-.34-.04-.5-.03-.16-.08-.29-.15-.41a.762.762 0 0 0-.3-.29c-.13-.07-.29-.11-.49-.11-.34 0-.61.13-.82.38-.21.25-.32.59-.32 1.02v2.27h-.85v-3.35c0-.11 0-.26-.01-.44s-.02-.34-.03-.48h.81zM152.17 496.05c0 .16-.06.29-.17.41s-.26.18-.43.18c-.17 0-.31-.06-.43-.17a.554.554 0 0 1-.18-.41c0-.16.06-.3.17-.42s.26-.18.43-.18.32.06.43.17.18.26.18.42zM155.59 496.59h-.99l2.76-6.37h.81l2.74 6.37h-1.01l-.65-1.57h-3.02l-.64 1.57zm.95-2.35h2.38l-1.19-2.99-1.19 2.99zM162.54 496.59h-.85v-6.8h.85v6.8zM164.88 496.59h-.85v-6.8h.85v6.8zM170.35 494.42v.14c0 .05 0 .1-.01.14h-3.39c.01.18.05.35.12.5s.18.29.3.41.27.21.44.27.34.1.53.1c.29 0 .54-.06.75-.19s.38-.28.5-.46l.59.48c-.23.3-.5.52-.81.67-.31.14-.65.21-1.03.21-.32 0-.62-.05-.9-.16s-.51-.26-.71-.45a2.2 2.2 0 0 1-.47-.71 2.47 2.47 0 0 1-.17-.92c0-.33.06-.63.17-.91.11-.28.27-.52.46-.72s.43-.35.7-.46c.27-.11.56-.17.87-.17.31 0 .6.05.85.15.26.1.47.25.65.44.18.19.31.42.41.7.1.29.15.6.15.94zm-.87-.34c-.01-.17-.03-.33-.08-.47s-.13-.27-.23-.38c-.1-.11-.22-.19-.37-.26a1.38 1.38 0 0 0-.52-.09c-.18 0-.35.03-.51.09-.16.06-.3.15-.41.26-.12.11-.21.24-.29.38s-.12.3-.13.47h2.54zM172.47 494.35l-1.56-2.02h1.04l1.04 1.47 1.05-1.47h.99l-1.54 2.02 1.72 2.25h-1.05l-1.19-1.67-1.21 1.67h-1.02l1.73-2.25zM178.68 493.83c0-.32-.1-.55-.29-.71-.19-.15-.45-.23-.76-.23-.24 0-.47.05-.68.14s-.39.21-.54.36l-.45-.54c.21-.2.47-.35.77-.47s.63-.17.98-.17c.31 0 .57.04.8.13.22.09.41.21.55.36.14.15.25.33.32.53s.11.42.11.66v1.86c0 .14 0 .29.01.45.01.16.03.29.05.39h-.76c-.05-.2-.07-.41-.07-.61h-.03c-.16.23-.35.41-.59.53-.24.13-.52.19-.84.19-.17 0-.34-.02-.53-.07-.18-.04-.35-.12-.5-.22a1.212 1.212 0 0 1-.52-1.03c0-.32.09-.58.26-.77.17-.19.4-.33.68-.43.28-.1.6-.16.95-.19s.71-.05 1.07-.05v-.11zm-.21.72c-.21 0-.43.01-.65.03-.22.02-.43.05-.61.11-.18.05-.33.14-.45.24-.12.11-.18.25-.18.43 0 .13.03.23.08.31s.12.15.2.21.18.09.28.11c.1.02.21.03.32.03.4 0 .7-.12.91-.36.21-.24.32-.54.32-.9v-.23h-.22zM183.47 492.32l.96 3.26h.02l1.02-3.26h.89l1.04 3.26h.02l.96-3.26h.89l-1.41 4.27h-.88l-1.05-3.2h-.02l-1.04 3.2h-.88l-1.42-4.27h.9zM192.77 493.83c0-.32-.1-.55-.29-.71-.19-.15-.45-.23-.76-.23-.24 0-.47.05-.68.14s-.39.21-.54.36l-.45-.54c.21-.2.47-.35.77-.47s.63-.17.98-.17c.31 0 .57.04.8.13.22.09.41.21.55.36.14.15.25.33.32.53s.11.42.11.66v1.86c0 .14 0 .29.01.45.01.16.03.29.05.39h-.76c-.05-.2-.07-.41-.07-.61h-.03c-.16.23-.35.41-.59.53-.24.13-.52.19-.84.19-.17 0-.34-.02-.53-.07-.18-.04-.35-.12-.5-.22a1.212 1.212 0 0 1-.52-1.03c0-.32.09-.58.26-.77.17-.19.4-.33.68-.43.28-.1.6-.16.95-.19s.71-.05 1.07-.05v-.11zm-.21.72c-.21 0-.43.01-.65.03-.22.02-.43.05-.61.11-.18.05-.33.14-.45.24-.12.11-.18.25-.18.43 0 .13.03.23.08.31s.12.15.2.21.18.09.28.11c.1.02.21.03.32.03.4 0 .7-.12.91-.36.21-.24.32-.54.32-.9v-.23h-.22zM197.29 493.4c-.1-.16-.23-.28-.41-.38-.17-.1-.37-.15-.58-.15-.1 0-.19.01-.29.03-.1.02-.18.05-.26.1-.07.05-.13.1-.18.17a.5.5 0 0 0-.07.26c0 .18.08.31.24.4s.41.17.73.24c.2.05.39.1.57.17.17.07.33.15.45.25s.23.22.3.36c.07.14.11.3.11.49 0 .25-.05.46-.14.64s-.22.32-.38.43c-.16.11-.34.19-.54.24s-.41.07-.63.07c-.32 0-.64-.06-.95-.19-.31-.13-.57-.32-.77-.58l.6-.51c.11.17.27.31.47.42.2.11.42.17.66.17.11 0 .21-.01.31-.03.1-.02.19-.06.27-.1s.15-.11.19-.19.07-.18.07-.3c0-.2-.09-.34-.28-.44-.19-.1-.47-.19-.83-.27-.14-.04-.29-.08-.44-.13-.15-.05-.28-.12-.4-.21s-.22-.2-.29-.34c-.08-.14-.11-.3-.11-.5a1.155 1.155 0 0 1 .5-.99c.15-.11.32-.18.51-.23a2.283 2.283 0 0 1 1.48.1c.29.12.51.29.66.52l-.57.48zM203.32 493.02h-1.13v2.22c0 .26.05.44.14.55.1.11.25.17.46.17.08 0 .16-.01.25-.03s.17-.04.24-.07l.03.69c-.1.04-.21.06-.34.08-.12.02-.25.03-.38.03-.4 0-.71-.11-.92-.33s-.32-.55-.32-1v-2.31h-.82v-.69h.82v-1.22h.84v1.22h1.13v.69zM204.19 492.8c-.01-.18-.01-.34-.03-.48h.8c.01.11.02.23.03.37.01.14.01.26.01.35h.03c.12-.25.3-.46.53-.61.23-.15.49-.23.78-.23.13 0 .24.01.33.04l-.04.78c-.12-.03-.25-.04-.39-.04-.2 0-.38.04-.53.11-.15.07-.27.17-.37.3-.1.13-.17.27-.22.44-.05.17-.07.34-.07.52v2.24h-.85v-3.35c0-.11-.01-.26-.01-.44zM211.28 494.42v.14c0 .05 0 .1-.01.14h-3.39c.01.18.05.35.12.5s.18.29.3.41.27.21.44.27.34.1.53.1c.29 0 .54-.06.75-.19s.38-.28.5-.46l.59.48c-.23.3-.5.52-.81.67-.31.14-.65.21-1.03.21-.32 0-.62-.05-.9-.16s-.51-.26-.71-.45a2.2 2.2 0 0 1-.47-.71 2.47 2.47 0 0 1-.17-.92c0-.33.06-.63.17-.91.11-.28.27-.52.46-.72s.43-.35.7-.46c.27-.11.56-.17.87-.17.31 0 .6.05.85.15.26.1.47.25.65.44.18.19.31.42.41.7.1.29.15.6.15.94zm-.87-.34c-.01-.17-.03-.33-.08-.47s-.13-.27-.23-.38c-.1-.11-.22-.19-.37-.26a1.38 1.38 0 0 0-.52-.09c-.18 0-.35.03-.51.09-.16.06-.3.15-.41.26-.12.11-.21.24-.29.38s-.12.3-.13.47h2.54zM215.05 493.83c0-.32-.1-.55-.29-.71-.19-.15-.45-.23-.76-.23-.24 0-.47.05-.68.14s-.39.21-.54.36l-.45-.54c.21-.2.47-.35.77-.47s.63-.17.98-.17c.31 0 .57.04.8.13.22.09.41.21.55.36.14.15.25.33.32.53s.11.42.11.66v1.86c0 .14 0 .29.01.45.01.16.03.29.05.39h-.76c-.05-.2-.07-.41-.07-.61h-.03c-.16.23-.35.41-.59.53-.24.13-.52.19-.84.19-.17 0-.34-.02-.53-.07-.18-.04-.35-.12-.5-.22a1.212 1.212 0 0 1-.52-1.03c0-.32.09-.58.26-.77.17-.19.4-.33.68-.43.28-.1.6-.16.95-.19s.71-.05 1.07-.05v-.11zm-.21.72c-.21 0-.43.01-.65.03-.22.02-.43.05-.61.11-.18.05-.33.14-.45.24-.12.11-.18.25-.18.43 0 .13.03.23.08.31s.12.15.2.21.18.09.28.11c.1.02.21.03.32.03.4 0 .7-.12.91-.36.21-.24.32-.54.32-.9v-.23h-.22zM219.27 493.02h-1.13v2.22c0 .26.05.44.14.55.1.11.25.17.46.17.08 0 .16-.01.25-.03s.17-.04.24-.07l.03.69c-.1.04-.21.06-.34.08-.12.02-.25.03-.38.03-.4 0-.71-.11-.92-.33s-.32-.55-.32-1v-2.31h-.82v-.69h.82v-1.22h.84v1.22h1.13v.69zM224.13 494.42v.14c0 .05 0 .1-.01.14h-3.39c.01.18.05.35.12.5s.18.29.3.41.27.21.44.27.34.1.53.1c.29 0 .54-.06.75-.19s.38-.28.5-.46l.59.48c-.23.3-.5.52-.81.67-.31.14-.65.21-1.03.21-.32 0-.62-.05-.9-.16s-.51-.26-.71-.45a2.2 2.2 0 0 1-.47-.71 2.47 2.47 0 0 1-.17-.92c0-.33.06-.63.17-.91.11-.28.27-.52.46-.72s.43-.35.7-.46c.27-.11.56-.17.87-.17.31 0 .6.05.85.15.26.1.47.25.65.44.18.19.31.42.41.7.1.29.15.6.15.94zm-.86-.34c-.01-.17-.03-.33-.08-.47s-.13-.27-.23-.38c-.1-.11-.22-.19-.37-.26a1.38 1.38 0 0 0-.52-.09c-.18 0-.35.03-.51.09-.16.06-.3.15-.41.26-.12.11-.21.24-.29.38s-.12.3-.13.47h2.54zM228.7 495.91c-.16.26-.38.45-.66.59-.28.14-.57.2-.88.2-.33 0-.63-.06-.89-.18a2.049 2.049 0 0 1-1.1-1.2c-.1-.28-.15-.57-.15-.88 0-.31.05-.6.15-.88.1-.27.25-.51.44-.72.19-.2.42-.36.68-.48s.55-.17.87-.17c.35 0 .65.07.91.22s.46.33.61.54h.02v-3.18h.85v6.8h-.82v-.67h-.03zm-2.8-1.46c0 .2.03.39.09.57.06.19.15.35.27.49s.27.26.44.35c.17.09.38.13.61.13.22 0 .41-.04.59-.13s.33-.2.46-.34.22-.3.29-.49c.07-.19.1-.38.1-.58a1.609 1.609 0 0 0-.39-1.07 1.418 1.418 0 0 0-1.05-.47 1.335 1.335 0 0 0-1.05.47c-.12.14-.21.31-.27.49-.07.19-.09.38-.09.58zM233.58 492.32l.96 3.26h.02l1.02-3.26h.89l1.04 3.26h.02l.96-3.26h.89l-1.41 4.27h-.88l-1.05-3.2h-.02l-1.04 3.2h-.88l-1.42-4.27h.9zM241.21 490.78c0 .16-.05.29-.17.39-.11.1-.24.15-.4.15-.15 0-.29-.05-.39-.16a.492.492 0 0 1-.16-.38c0-.16.05-.29.16-.39.11-.11.24-.16.39-.16.16 0 .29.05.4.16.12.11.17.24.17.39zm-.13 5.81h-.85v-4.27h.85v4.27zM244.64 493.02h-1.13v2.22c0 .26.05.44.14.55.1.11.25.17.46.17.08 0 .16-.01.25-.03s.17-.04.24-.07l.03.69c-.1.04-.21.06-.34.08-.12.02-.25.03-.38.03-.4 0-.71-.11-.92-.33s-.32-.55-.32-1v-2.31h-.82v-.69h.82v-1.22h.84v1.22h1.13v.69zM246.4 492.97c.1-.21.28-.39.52-.54.25-.15.52-.22.83-.22.28 0 .51.05.71.14.2.09.36.22.5.37s.23.34.29.55c.06.21.09.44.09.67v2.65h-.85v-2.36c0-.17-.01-.34-.04-.5-.03-.16-.08-.29-.15-.42-.07-.12-.17-.22-.29-.29s-.28-.11-.48-.11c-.34 0-.61.13-.83.38-.22.25-.32.6-.32 1.02v2.26h-.85v-6.8h.85v3.19h.02zM42.76 506.6c-.25.34-.58.62-.98.83s-.88.32-1.45.32c-.49 0-.93-.08-1.35-.25-.41-.16-.77-.4-1.06-.69s-.53-.65-.7-1.06a3.49 3.49 0 0 1-.25-1.35c0-.5.09-.95.26-1.36a3.094 3.094 0 0 1 1.79-1.73c.42-.16.86-.24 1.35-.24.22 0 .44.02.66.06.22.04.44.1.64.19.2.08.39.19.56.31s.31.27.43.43l-.7.54c-.16-.22-.38-.39-.66-.54-.29-.14-.59-.21-.92-.21-.37 0-.71.07-1 .2-.3.14-.55.32-.76.55-.21.23-.37.51-.49.81a3.015 3.015 0 0 0 0 2c.11.31.27.58.48.81.21.23.46.41.76.54.3.13.63.2.99.2s.69-.07.98-.22c.29-.14.54-.35.73-.63l.69.49zM47.83 505.45a2.243 2.243 0 0 1-.67 1.63c-.21.21-.45.36-.73.47-.28.11-.58.17-.91.17-.32 0-.63-.06-.91-.17a2.115 2.115 0 0 1-1.21-1.19c-.12-.28-.18-.58-.18-.91s.06-.63.18-.91c.12-.27.28-.51.48-.71s.45-.35.73-.46c.28-.11.58-.17.91-.17.32 0 .63.06.91.17a2.142 2.142 0 0 1 1.22 1.17c.12.28.18.58.18.91zm-.88 0c0-.2-.03-.4-.09-.58-.06-.19-.15-.35-.28-.49s-.27-.25-.45-.34c-.18-.08-.38-.13-.61-.13-.23 0-.43.04-.61.13-.18.08-.33.2-.45.34a1.568 1.568 0 0 0-.37 1.07c0 .2.03.4.09.58.06.18.16.35.28.49.12.14.27.26.45.34.18.08.38.13.61.13.23 0 .43-.04.61-.13.18-.08.33-.2.45-.34s.21-.31.28-.49c.06-.18.09-.37.09-.58zM53.32 505.45a2.243 2.243 0 0 1-.67 1.63c-.21.21-.45.36-.73.47-.28.11-.58.17-.91.17-.32 0-.63-.06-.91-.17a2.115 2.115 0 0 1-1.21-1.19c-.12-.28-.18-.58-.18-.91s.06-.63.18-.91c.12-.27.28-.51.48-.71s.45-.35.73-.46c.28-.11.58-.17.91-.17.32 0 .63.06.91.17a2.142 2.142 0 0 1 1.22 1.17c.12.28.18.58.18.91zm-.88 0c0-.2-.03-.4-.09-.58-.06-.19-.15-.35-.28-.49s-.27-.25-.45-.34c-.18-.08-.38-.13-.61-.13-.23 0-.43.04-.61.13-.18.08-.33.2-.45.34a1.568 1.568 0 0 0-.37 1.07c0 .2.03.4.09.58.06.18.16.35.28.49.12.14.27.26.45.34.18.08.38.13.61.13.23 0 .43-.04.61-.13.18-.08.33-.2.45-.34s.21-.31.28-.49c.06-.18.09-.37.09-.58zM55.36 507.59h-.85v-6.8h.85v6.8zM60.04 502.4c-.13-.17-.3-.32-.51-.43-.22-.11-.46-.17-.73-.17-.14 0-.29.02-.44.06a1.137 1.137 0 0 0-.69.51c-.07.13-.11.28-.11.46 0 .17.03.32.1.44s.16.22.28.3c.12.08.25.15.41.21s.33.12.51.18c.22.07.43.14.66.22s.42.2.6.33c.18.14.33.31.44.52.11.21.17.47.17.79 0 .33-.06.62-.18.86s-.29.44-.49.6-.44.28-.71.36-.54.12-.82.12c-.4 0-.79-.08-1.17-.23-.38-.16-.69-.39-.93-.69l.69-.58a1.742 1.742 0 0 0 1.42.75c.15 0 .3-.02.45-.06s.29-.11.41-.2c.12-.09.22-.2.3-.34.08-.14.12-.3.12-.49a.9.9 0 0 0-.12-.48c-.08-.13-.19-.24-.33-.33s-.3-.17-.48-.23-.38-.13-.58-.19c-.2-.06-.4-.13-.6-.22-.2-.09-.38-.2-.53-.33-.16-.13-.28-.3-.38-.5-.1-.2-.14-.44-.14-.74 0-.32.06-.59.19-.82.13-.23.3-.42.5-.57.21-.15.44-.26.7-.33.26-.07.52-.1.79-.1.37 0 .72.07 1.04.2.32.13.58.31.78.53l-.62.59zM64.94 504.4c-.09-.14-.22-.25-.4-.35s-.37-.14-.58-.14c-.22 0-.42.04-.59.13s-.32.2-.44.34-.21.3-.27.49a1.9 1.9 0 0 0 0 1.16c.06.19.15.35.27.49.12.14.27.25.44.34.17.08.37.13.59.13.22 0 .41-.04.59-.13.18-.08.32-.2.44-.34l.57.51c-.18.21-.4.37-.67.49s-.58.18-.92.18c-.33 0-.63-.05-.91-.16s-.52-.26-.72-.45c-.2-.2-.36-.43-.48-.71-.12-.28-.18-.58-.18-.93 0-.34.06-.64.17-.92.11-.28.27-.51.48-.71.2-.2.45-.35.72-.46.28-.11.58-.16.9-.16.3 0 .6.06.9.18s.53.29.71.52l-.62.5zM69.4 507.59l-.03-.36c-.01-.13-.01-.25-.01-.34h-.02c-.11.23-.29.42-.54.58-.26.16-.54.24-.85.24-.28 0-.51-.04-.72-.13-.2-.09-.37-.21-.49-.37-.13-.16-.23-.34-.29-.55s-.09-.43-.09-.67v-2.65h.85v2.36c0 .17.01.34.04.5s.08.3.15.42c.07.12.17.22.3.29s.29.11.49.11c.34 0 .62-.13.83-.38s.31-.6.31-1.02v-2.27h.85v3.35c0 .11 0 .26.01.44s.02.34.03.48h-.82zM72.5 507.59h-.85v-6.8h.85v6.8zM74.82 509.75h-.85v-6.43h.83v.67h.03c.14-.23.34-.42.61-.56.27-.15.58-.22.93-.22.32 0 .61.06.87.17.26.11.48.27.67.48.19.2.33.44.44.72.1.27.15.57.15.88 0 .31-.05.61-.15.88-.1.28-.25.52-.43.72-.19.2-.41.36-.67.48-.26.12-.56.18-.89.18-.31 0-.59-.07-.86-.2s-.48-.32-.64-.56h-.03v2.79zm2.81-4.3c0-.2-.03-.39-.09-.58-.06-.19-.15-.35-.27-.5-.12-.14-.27-.26-.45-.34a1.49 1.49 0 0 0-.62-.13c-.22 0-.41.04-.59.13-.18.08-.33.2-.45.34-.13.14-.22.31-.29.5-.07.19-.1.38-.1.58a1.609 1.609 0 0 0 .39 1.07c.13.14.28.25.45.34.18.08.37.13.59.13.23 0 .44-.04.62-.13s.33-.2.45-.35c.12-.14.21-.31.27-.5.06-.17.09-.37.09-.56zM81.77 504.02h-1.13v2.22c0 .26.05.44.14.55.1.11.25.17.46.17.08 0 .16-.01.25-.03s.17-.04.24-.07l.03.69c-.1.04-.21.06-.34.08-.12.02-.25.03-.38.03-.4 0-.71-.11-.92-.33s-.32-.55-.32-1v-2.31h-.82v-.69h.82v-1.22h.84v1.22h1.13v.69zM83.63 501.78c0 .16-.06.29-.17.39-.11.1-.24.15-.4.15-.15 0-.29-.05-.39-.16a.492.492 0 0 1-.16-.38c0-.16.05-.29.16-.39.11-.11.24-.16.39-.16.15 0 .29.05.4.16.12.11.17.24.17.39zm-.13 5.81h-.85v-4.27h.85v4.27zM85.74 503.32l.03.36c.01.13.01.25.01.34h.03c.05-.11.13-.22.22-.32s.2-.19.32-.26c.12-.08.25-.13.4-.18s.29-.06.45-.06c.28 0 .51.05.71.14.2.09.36.22.5.37s.23.34.29.55.09.44.09.67v2.65h-.85v-2.37c0-.17-.01-.34-.04-.5-.03-.16-.08-.29-.15-.41a.762.762 0 0 0-.3-.29c-.13-.07-.29-.11-.49-.11-.34 0-.61.13-.82.38-.21.25-.32.59-.32 1.02v2.27h-.85v-3.35c0-.11 0-.26-.01-.44s-.02-.34-.03-.48h.81zM90.55 508.32c.19.21.42.38.7.5.28.13.57.19.86.19.28 0 .52-.04.71-.12.19-.08.35-.19.46-.33.12-.14.2-.31.25-.5.05-.19.08-.4.08-.62v-.55h-.02c-.16.24-.37.42-.64.55s-.56.19-.86.19c-.32 0-.62-.06-.89-.17s-.49-.27-.68-.47c-.19-.2-.33-.43-.43-.7-.1-.27-.15-.55-.15-.86 0-.31.05-.59.15-.86.1-.27.25-.5.43-.71.19-.2.41-.36.67-.48.26-.12.56-.18.88-.18.31 0 .6.07.88.2s.5.33.66.6h.02v-.68h.82v4.05c0 .31-.04.61-.12.9-.08.29-.21.54-.4.76s-.43.39-.73.53c-.3.13-.67.2-1.12.2-.37 0-.75-.07-1.12-.2-.38-.13-.7-.33-.97-.57l.56-.67zm.25-2.91c0 .2.03.39.09.57.06.18.16.34.28.48s.27.25.45.33c.17.08.37.13.6.13.22 0 .42-.04.6-.12.18-.08.33-.18.46-.32s.22-.29.29-.48c.07-.18.1-.38.1-.59a1.495 1.495 0 0 0-.4-1.06 1.386 1.386 0 0 0-1.05-.45c-.22 0-.42.04-.6.12-.17.08-.32.19-.45.32s-.22.29-.28.48c-.06.19-.09.39-.09.59zM99.09 506.8h3.33v.79H98.2v-6.37h4.09v.78H99.1v1.91h3.01v.76H99.1v2.13zM104.42 507.59h-.85v-6.8h.85v6.8zM106.89 501.78c0 .16-.06.29-.17.39-.11.1-.24.15-.4.15-.15 0-.29-.05-.39-.16a.492.492 0 0 1-.16-.38c0-.16.05-.29.16-.39.11-.11.24-.16.39-.16.15 0 .29.05.4.16.11.11.17.24.17.39zm-.14 5.81h-.85v-4.27h.85v4.27zM110.32 504.02h-1.13v2.22c0 .26.05.44.14.55.1.11.25.17.46.17.08 0 .16-.01.25-.03s.17-.04.24-.07l.03.69c-.1.04-.21.06-.34.08-.12.02-.25.03-.38.03-.4 0-.71-.11-.92-.33s-.32-.55-.32-1v-2.31h-.82v-.69h.82v-1.22h.84v1.22h1.13v.69zM115.18 505.42v.14c0 .05 0 .1-.01.14h-3.39c.01.18.05.35.12.5.07.16.18.29.3.41s.27.21.44.27.34.1.53.1c.29 0 .54-.06.75-.19s.38-.28.5-.46l.59.48c-.23.3-.5.52-.81.67-.31.14-.65.21-1.03.21-.32 0-.62-.05-.9-.16s-.51-.26-.71-.45a2.2 2.2 0 0 1-.47-.71 2.47 2.47 0 0 1-.17-.92c0-.33.06-.63.17-.91.11-.28.27-.52.46-.72.2-.2.43-.35.7-.46.27-.11.56-.17.88-.17.31 0 .6.05.85.15.26.1.47.25.65.44.18.19.31.42.41.7.09.29.14.6.14.94zm-.87-.34c-.01-.17-.03-.33-.09-.47-.05-.15-.13-.27-.23-.38-.1-.11-.22-.19-.37-.26a1.38 1.38 0 0 0-.52-.09c-.18 0-.35.03-.51.09-.16.06-.3.15-.41.26-.12.11-.21.24-.29.38-.07.15-.12.3-.13.47h2.55zM122.92 505.45a2.243 2.243 0 0 1-.67 1.63c-.21.21-.45.36-.73.47-.28.11-.58.17-.91.17-.32 0-.63-.06-.91-.17a2.115 2.115 0 0 1-1.21-1.19c-.12-.28-.18-.58-.18-.91s.06-.63.18-.91c.12-.27.28-.51.48-.71s.45-.35.73-.46c.28-.11.58-.17.91-.17.32 0 .63.06.91.17a2.142 2.142 0 0 1 1.22 1.17c.12.28.18.58.18.91zm-.88 0c0-.2-.03-.4-.09-.58-.06-.19-.15-.35-.28-.49s-.27-.25-.45-.34c-.18-.08-.38-.13-.61-.13-.23 0-.43.04-.61.13-.18.08-.33.2-.45.34a1.568 1.568 0 0 0-.37 1.07c0 .2.03.4.09.58.06.18.16.35.28.49.12.14.27.26.45.34.18.08.38.13.61.13.23 0 .43-.04.61-.13.18-.08.33-.2.45-.34s.21-.31.28-.49c.05-.18.09-.37.09-.58zM124.85 503.32l.03.36c.01.13.01.25.01.34h.03c.05-.11.13-.22.22-.32s.2-.19.32-.26c.12-.08.25-.13.4-.18s.29-.06.45-.06c.28 0 .51.05.71.14.2.09.36.22.5.37s.23.34.29.55.09.44.09.67v2.65h-.85v-2.37c0-.17-.01-.34-.04-.5-.03-.16-.08-.29-.15-.41a.762.762 0 0 0-.3-.29c-.13-.07-.29-.11-.49-.11-.34 0-.61.13-.82.38-.21.25-.32.59-.32 1.02v2.27h-.85v-3.35c0-.11 0-.26-.01-.44s-.02-.34-.03-.48h.81zM132.46 503.97c.1-.21.28-.39.52-.54.25-.15.52-.22.83-.22.28 0 .51.05.71.14.2.09.36.22.5.37s.23.34.29.55.09.44.09.67v2.65h-.85v-2.36c0-.17-.01-.34-.04-.5s-.08-.29-.15-.42c-.07-.12-.17-.22-.29-.29s-.28-.11-.48-.11c-.34 0-.61.13-.83.38-.22.25-.32.6-.32 1.02v2.26h-.85v-6.8h.85v3.19h.02zM140.82 505.42v.14c0 .05 0 .1-.01.14h-3.39c.01.18.05.35.12.5.07.16.18.29.3.41s.27.21.44.27.34.1.53.1c.29 0 .54-.06.75-.19s.38-.28.5-.46l.59.48c-.23.3-.5.52-.81.67-.31.14-.65.21-1.03.21-.32 0-.62-.05-.9-.16s-.51-.26-.71-.45a2.2 2.2 0 0 1-.47-.71 2.47 2.47 0 0 1-.17-.92c0-.33.06-.63.17-.91.11-.28.27-.52.46-.72.2-.2.43-.35.7-.46.27-.11.56-.17.88-.17.31 0 .6.05.85.15.26.1.47.25.65.44.18.19.31.42.41.7.09.29.14.6.14.94zm-.86-.34c-.01-.17-.03-.33-.09-.47-.05-.15-.13-.27-.23-.38-.1-.11-.22-.19-.37-.26a1.38 1.38 0 0 0-.52-.09c-.18 0-.35.03-.51.09-.16.06-.3.15-.41.26-.12.11-.21.24-.29.38-.07.15-.12.3-.13.47h2.55zM141.98 503.8c-.01-.18-.02-.34-.03-.48h.8c.01.11.02.23.03.37.01.14.01.26.01.35h.03c.12-.25.3-.46.53-.61.23-.15.49-.23.78-.23.13 0 .24.01.33.04l-.04.78c-.12-.03-.25-.04-.39-.04-.2 0-.38.04-.53.11-.15.07-.27.17-.37.3-.1.13-.17.27-.22.44s-.07.34-.07.52v2.24h-.85v-3.35c0-.11 0-.26-.01-.44zM150.15 504.83c0-.32-.1-.55-.29-.71-.19-.15-.45-.23-.77-.23-.24 0-.47.05-.68.14s-.39.21-.54.36l-.45-.54c.21-.2.47-.35.77-.47.3-.11.63-.17.98-.17.31 0 .57.04.8.13.23.09.41.21.55.36.14.15.25.33.32.53s.11.42.11.66v1.86c0 .14 0 .29.01.45s.03.29.05.39h-.77c-.05-.2-.07-.41-.07-.61h-.03c-.16.23-.35.41-.59.53-.24.13-.52.19-.84.19-.17 0-.34-.02-.53-.07-.18-.04-.35-.12-.5-.22a1.212 1.212 0 0 1-.52-1.03c0-.32.09-.58.26-.77.17-.19.4-.33.68-.43.28-.1.6-.16.95-.19s.71-.05 1.07-.05v-.11zm-.21.72c-.21 0-.43.01-.65.03-.23.02-.43.05-.61.11-.18.05-.33.14-.45.24-.12.11-.18.25-.18.43 0 .13.03.23.08.31a.686.686 0 0 0 .48.32c.1.02.21.03.31.03.4 0 .7-.12.91-.36.21-.24.32-.54.32-.9v-.23h-.21zM153.21 506.91v.67h-.82v-6.8h.85v3.18h.03c.14-.21.34-.39.6-.54.26-.15.56-.22.92-.22.32 0 .61.06.87.17.26.11.48.27.67.48.19.2.33.44.44.72.1.27.15.57.15.88 0 .31-.05.61-.15.88-.1.28-.25.52-.43.72s-.41.36-.67.48c-.26.12-.56.18-.89.18-.31 0-.6-.07-.87-.2-.28-.13-.5-.33-.66-.59h-.04zm2.84-1.46c0-.2-.03-.39-.09-.57-.06-.19-.15-.35-.27-.49s-.27-.26-.45-.34a1.49 1.49 0 0 0-.62-.13c-.22 0-.41.04-.59.13-.18.08-.33.2-.46.34s-.22.31-.29.49c-.07.19-.1.38-.1.58a1.59 1.59 0 0 0 .39 1.07c.12.14.28.25.46.34s.37.13.59.13c.23 0 .44-.04.62-.13s.33-.2.45-.35.21-.31.27-.49c.06-.19.09-.38.09-.58zM161.5 506.91c-.16.26-.38.45-.66.59-.28.14-.57.2-.88.2-.33 0-.63-.06-.89-.18a2.049 2.049 0 0 1-1.1-1.2c-.1-.28-.15-.57-.15-.88 0-.31.05-.6.15-.88.1-.27.25-.51.44-.72.19-.2.42-.36.68-.48s.55-.17.87-.17c.35 0 .65.07.91.22s.46.33.61.54h.02v-3.18h.85v6.8h-.82v-.67h-.03zm-2.81-1.46c0 .2.03.39.09.57.06.19.15.35.27.49s.27.26.44.35c.17.09.38.13.61.13.22 0 .41-.04.59-.13s.33-.2.46-.34.22-.3.29-.49c.07-.19.1-.38.1-.58a1.609 1.609 0 0 0-.39-1.07 1.418 1.418 0 0 0-1.05-.47 1.335 1.335 0 0 0-1.05.47c-.12.14-.21.31-.27.49a1.9 1.9 0 0 0-.09.58zM168.13 505.45a2.243 2.243 0 0 1-.67 1.63c-.21.21-.45.36-.73.47-.28.11-.58.17-.91.17s-.63-.06-.91-.17a2.134 2.134 0 0 1-1.21-1.19c-.12-.28-.18-.58-.18-.91s.06-.63.18-.91c.12-.27.28-.51.48-.71.2-.2.45-.35.73-.46.28-.11.58-.17.91-.17s.63.06.91.17a2.142 2.142 0 0 1 1.22 1.17c.12.28.18.58.18.91zm-.88 0c0-.2-.03-.4-.09-.58s-.16-.35-.28-.49-.27-.25-.45-.34c-.18-.08-.38-.13-.61-.13s-.43.04-.61.13c-.18.08-.33.2-.45.34s-.21.3-.28.49a1.9 1.9 0 0 0 0 1.16c.06.18.15.35.28.49.12.14.27.26.45.34s.38.13.61.13.43-.04.61-.13.33-.2.45-.34.21-.31.28-.49c.06-.18.09-.37.09-.58zM170.65 503.44c.24-.16.52-.24.84-.24.29 0 .55.07.78.2.23.13.41.35.54.66.14-.28.34-.49.6-.63.26-.15.54-.22.85-.22.28 0 .51.05.71.14a1.411 1.411 0 0 1 .78.92c.06.21.09.44.09.67v2.65h-.85v-2.37c0-.17-.01-.34-.04-.5-.03-.16-.08-.29-.15-.41a.806.806 0 0 0-.29-.29.894.894 0 0 0-.46-.11 1 1 0 0 0-.5.12c-.14.08-.25.19-.34.32s-.15.27-.19.44-.06.33-.06.5v2.3h-.85v-2.54c0-.17-.02-.32-.05-.46-.03-.14-.08-.26-.15-.36s-.17-.18-.28-.23c-.11-.06-.25-.08-.42-.08-.31 0-.57.13-.78.38-.21.25-.31.59-.31 1.02v2.27h-.85v-3.35c0-.11 0-.26-.01-.44s-.01-.34-.03-.48h.8l.03.36c.01.13.01.25.01.34h.03c.14-.22.31-.42.55-.58zM181.27 505.42v.14c0 .05 0 .1-.01.14h-3.39c.01.18.05.35.12.5s.18.29.3.41.27.21.44.27.34.1.53.1c.29 0 .54-.06.75-.19s.38-.28.5-.46l.59.48c-.23.3-.5.52-.81.67-.31.14-.65.21-1.03.21-.32 0-.62-.05-.9-.16s-.51-.26-.71-.45a2.2 2.2 0 0 1-.47-.71 2.47 2.47 0 0 1-.17-.92c0-.33.06-.63.17-.91.11-.28.27-.52.46-.72s.43-.35.7-.46c.27-.11.56-.17.87-.17.31 0 .6.05.85.15.26.1.47.25.65.44.18.19.31.42.41.7.11.29.15.6.15.94zm-.86-.34c-.01-.17-.03-.33-.08-.47s-.13-.27-.23-.38c-.1-.11-.22-.19-.37-.26a1.38 1.38 0 0 0-.52-.09c-.18 0-.35.03-.51.09-.16.06-.3.15-.41.26-.12.11-.21.24-.29.38s-.12.3-.13.47h2.54zM183.21 503.32l.03.36c.01.13.01.25.01.34h.03c.05-.11.13-.22.22-.32s.2-.19.32-.26.25-.13.4-.18c.14-.04.29-.06.45-.06.28 0 .51.05.71.14.2.09.36.22.5.37.13.16.23.34.29.55.06.21.09.44.09.67v2.65h-.85v-2.37c0-.17-.01-.34-.04-.5-.03-.16-.08-.29-.15-.41a.762.762 0 0 0-.3-.29c-.13-.07-.29-.11-.49-.11-.34 0-.61.13-.82.38-.21.25-.32.59-.32 1.02v2.27h-.85v-3.35c0-.11 0-.26-.01-.44s-.01-.34-.03-.48h.81zM188.73 507.05c0 .16-.06.29-.17.41-.11.12-.26.18-.43.18-.17 0-.31-.06-.43-.17a.544.544 0 0 1-.17-.41c0-.16.06-.3.17-.42.11-.12.26-.18.43-.18s.32.06.43.17c.11.12.17.26.17.42zM192.94 507.59h-.89v-6.37h2.04c.31 0 .6.03.87.09.28.06.52.16.72.3.21.14.37.32.49.54.12.23.18.5.18.82 0 .47-.14.85-.43 1.13s-.66.47-1.12.55l1.78 2.92h-1.08l-1.62-2.83h-.95v2.85zm0-3.58h1.03c.21 0 .4-.02.58-.05.18-.04.34-.09.47-.18.14-.08.24-.19.32-.32a.9.9 0 0 0 .12-.48.9.9 0 0 0-.12-.48.92.92 0 0 0-.31-.31c-.13-.08-.28-.13-.46-.17s-.36-.05-.55-.05h-1.09v2.04zM201.41 505.42v.14c0 .05 0 .1-.01.14h-3.39c.01.18.05.35.12.5s.18.29.3.41.27.21.44.27.34.1.53.1c.29 0 .54-.06.75-.19s.38-.28.5-.46l.59.48c-.23.3-.5.52-.81.67-.31.14-.65.21-1.03.21-.32 0-.62-.05-.9-.16s-.51-.26-.71-.45a2.2 2.2 0 0 1-.47-.71 2.47 2.47 0 0 1-.17-.92c0-.33.06-.63.17-.91.11-.28.27-.52.46-.72s.43-.35.7-.46c.27-.11.56-.17.87-.17.31 0 .6.05.85.15.26.1.47.25.65.44.18.19.31.42.41.7.1.29.15.6.15.94zm-.87-.34c-.01-.17-.03-.33-.08-.47s-.13-.27-.23-.38c-.1-.11-.22-.19-.37-.26a1.38 1.38 0 0 0-.52-.09c-.18 0-.35.03-.51.09-.16.06-.3.15-.41.26-.12.11-.21.24-.29.38s-.12.3-.13.47h2.54zM204.88 504.4c-.1-.16-.23-.28-.41-.38-.17-.1-.37-.15-.58-.15-.1 0-.19.01-.29.03-.1.02-.18.05-.26.1-.07.05-.13.1-.18.17a.5.5 0 0 0-.07.26c0 .18.08.31.24.4s.41.17.73.24c.2.05.39.1.57.17.17.07.33.15.45.25s.23.22.3.36c.07.14.11.3.11.49 0 .25-.05.46-.14.64s-.22.32-.38.43c-.16.11-.34.19-.54.24s-.41.07-.63.07c-.32 0-.64-.06-.95-.19-.31-.13-.57-.32-.77-.58l.6-.51c.11.17.27.31.47.42.2.11.42.17.66.17.11 0 .21-.01.31-.03.1-.02.19-.06.27-.1s.15-.11.19-.19.07-.18.07-.3c0-.2-.09-.34-.28-.44-.19-.1-.47-.19-.83-.27-.14-.04-.29-.08-.44-.13-.15-.05-.28-.12-.4-.21s-.22-.2-.29-.34c-.08-.14-.11-.3-.11-.5a1.155 1.155 0 0 1 .5-.99c.15-.11.32-.18.51-.23a2.283 2.283 0 0 1 1.48.1c.29.12.51.29.66.52l-.57.48zM209.58 507.59l-.03-.36c-.01-.13-.01-.25-.01-.34h-.02c-.11.23-.29.42-.54.58-.25.16-.54.24-.85.24-.28 0-.51-.04-.72-.13-.2-.09-.37-.21-.5-.37s-.22-.34-.29-.55c-.06-.21-.09-.43-.09-.67v-2.65h.85v2.36c0 .17.01.34.04.5.03.16.08.3.15.42.07.12.17.22.3.29s.29.11.49.11c.34 0 .62-.13.83-.38s.32-.6.32-1.02v-2.27h.85v3.35c0 .11 0 .26.01.44s.01.34.03.48h-.82zM212.68 507.59h-.85v-6.8h.85v6.8zM216.24 504.02h-1.13v2.22c0 .26.05.44.14.55.1.11.25.17.46.17.08 0 .16-.01.25-.03s.17-.04.24-.07l.03.69c-.1.04-.21.06-.34.08-.12.02-.25.03-.38.03-.4 0-.71-.11-.92-.33s-.32-.55-.32-1v-2.31h-.82v-.69h.82v-1.22h.84v1.22h1.13v.69zM219.42 504.4c-.1-.16-.23-.28-.41-.38-.17-.1-.37-.15-.58-.15-.1 0-.19.01-.29.03-.1.02-.18.05-.26.1-.07.05-.13.1-.18.17a.5.5 0 0 0-.07.26c0 .18.08.31.24.4s.41.17.73.24c.2.05.39.1.57.17.17.07.33.15.45.25s.23.22.3.36c.07.14.11.3.11.49 0 .25-.05.46-.14.64s-.22.32-.38.43c-.16.11-.34.19-.54.24s-.41.07-.63.07c-.32 0-.64-.06-.95-.19-.31-.13-.57-.32-.77-.58l.6-.51c.11.17.27.31.47.42.2.11.42.17.66.17.11 0 .21-.01.31-.03.1-.02.19-.06.27-.1s.15-.11.19-.19.07-.18.07-.3c0-.2-.09-.34-.28-.44-.19-.1-.47-.19-.83-.27-.14-.04-.29-.08-.44-.13-.15-.05-.28-.12-.4-.21s-.22-.2-.29-.34c-.08-.14-.11-.3-.11-.5a1.155 1.155 0 0 1 .5-.99c.15-.11.32-.18.51-.23a2.283 2.283 0 0 1 1.48.1c.29.12.51.29.66.52l-.57.48zM224.7 503.44c.24-.16.52-.24.84-.24.29 0 .55.07.78.2.23.13.41.35.54.66.14-.28.34-.49.6-.63.26-.15.54-.22.85-.22.28 0 .51.05.71.14a1.411 1.411 0 0 1 .78.92c.06.21.09.44.09.67v2.65h-.85v-2.37c0-.17-.01-.34-.04-.5-.03-.16-.08-.29-.15-.41a.806.806 0 0 0-.29-.29.894.894 0 0 0-.46-.11 1 1 0 0 0-.5.12c-.14.08-.25.19-.34.32s-.15.27-.19.44-.06.33-.06.5v2.3h-.85v-2.54c0-.17-.02-.32-.05-.46-.03-.14-.08-.26-.15-.36s-.17-.18-.28-.23c-.11-.06-.25-.08-.42-.08-.31 0-.57.13-.78.38-.21.25-.31.59-.31 1.02v2.27h-.85v-3.35c0-.11 0-.26-.01-.44s-.01-.34-.03-.48h.8l.03.36c.01.13.01.25.01.34h.03c.14-.22.32-.42.55-.58zM234 504.83c0-.32-.1-.55-.29-.71-.19-.15-.45-.23-.76-.23-.24 0-.47.05-.68.14s-.39.21-.54.36l-.45-.54c.21-.2.47-.35.77-.47s.63-.17.98-.17c.31 0 .57.04.8.13.22.09.41.21.55.36.14.15.25.33.32.53s.11.42.11.66v1.86c0 .14 0 .29.01.45.01.16.03.29.05.39h-.76c-.05-.2-.07-.41-.07-.61h-.03c-.16.23-.35.41-.59.53-.24.13-.52.19-.84.19-.17 0-.34-.02-.53-.07-.18-.04-.35-.12-.5-.22a1.212 1.212 0 0 1-.52-1.03c0-.32.09-.58.26-.77.17-.19.4-.33.68-.43.28-.1.6-.16.95-.19s.71-.05 1.07-.05v-.11zm-.21.72c-.21 0-.43.01-.65.03-.22.02-.43.05-.61.11-.18.05-.33.14-.45.24-.12.11-.18.25-.18.43 0 .13.03.23.08.31s.12.15.2.21.18.09.28.11c.1.02.21.03.32.03.4 0 .7-.12.91-.36.21-.24.32-.54.32-.9v-.23h-.22zM237.84 506.67h.02l1.18-3.35h.9l-2.07 5.27c-.07.18-.15.34-.23.48-.08.14-.18.26-.3.36s-.25.18-.4.23-.33.08-.54.08c-.09 0-.18 0-.27-.01-.09-.01-.19-.03-.28-.05l.08-.75c.14.05.29.07.42.07.22 0 .39-.06.5-.18.11-.12.21-.3.3-.53l.27-.71-1.83-4.27h.95l1.3 3.36zM245.01 507.59h-.92l-1.74-4.27h.94l1.25 3.36h.02l1.26-3.36h.9l-1.71 4.27zM250.2 504.83c0-.32-.1-.55-.29-.71-.19-.15-.45-.23-.76-.23-.24 0-.47.05-.68.14s-.39.21-.54.36l-.45-.54c.21-.2.47-.35.77-.47s.63-.17.98-.17c.31 0 .57.04.8.13.22.09.41.21.55.36.14.15.25.33.32.53s.11.42.11.66v1.86c0 .14 0 .29.01.45.01.16.03.29.05.39h-.76c-.05-.2-.07-.41-.07-.61h-.03c-.16.23-.35.41-.59.53-.24.13-.52.19-.84.19-.17 0-.34-.02-.53-.07-.18-.04-.35-.12-.5-.22a1.212 1.212 0 0 1-.52-1.03c0-.32.09-.58.26-.77.17-.19.4-.33.68-.43.28-.1.6-.16.95-.19s.71-.05 1.07-.05v-.11zm-.21.72c-.21 0-.43.01-.65.03-.22.02-.43.05-.61.11-.18.05-.33.14-.45.24-.12.11-.18.25-.18.43 0 .13.03.23.08.31s.12.15.2.21.18.09.28.11c.1.02.21.03.32.03.4 0 .7-.12.91-.36.21-.24.32-.54.32-.9v-.23h-.22zM252.41 503.8c-.01-.18-.01-.34-.03-.48h.8c.01.11.02.23.03.37.01.14.01.26.01.35h.03c.12-.25.3-.46.53-.61.23-.15.49-.23.78-.23.13 0 .24.01.33.04l-.04.78c-.12-.03-.25-.04-.39-.04-.2 0-.38.04-.53.11-.15.07-.27.17-.37.3-.1.13-.17.27-.22.44-.05.17-.07.34-.07.52v2.24h-.85v-3.35c0-.11 0-.26-.01-.44zM257.3 506.67h.02l1.18-3.35h.9l-2.07 5.27c-.07.18-.15.34-.23.48-.08.14-.18.26-.3.36s-.25.18-.4.23-.33.08-.54.08c-.09 0-.18 0-.27-.01-.09-.01-.19-.03-.28-.05l.08-.75c.14.05.29.07.42.07.22 0 .39-.06.5-.18.11-.12.21-.3.3-.53l.27-.71-1.83-4.27h.95l1.3 3.36zM260.94 507.05c0 .16-.06.29-.17.41-.11.12-.26.18-.43.18-.17 0-.31-.06-.43-.17a.544.544 0 0 1-.17-.41c0-.16.06-.3.17-.42.11-.12.26-.18.43-.18s.32.06.43.17c.11.12.17.26.17.42z"/></svg>