<svg id="Layer_1" xmlns="http://www.w3.org/2000/svg" viewBox="0 0 300 600"><style>.st0{fill:#fff}</style><path class="st0" d="M72.48 33.04c0 .38-.31.68-.69.68-.39 0-.7-.3-.7-.68 0-.38.31-.68.7-.68.38.01.69.3.69.68zm-1.22 0c0 .3.23.54.53.54.29 0 .52-.24.52-.54 0-.3-.22-.55-.53-.55-.3.01-.52.26-.52.55zm.41.36h-.16v-.68c.06-.01.15-.02.26-.02.13 0 .19.02.23.05.04.03.07.08.07.14 0 .08-.06.14-.14.16v.01c.07.02.1.07.12.17.02.1.04.14.05.17h-.17c-.02-.02-.03-.08-.05-.17-.01-.07-.05-.1-.14-.1h-.07v.27zm.01-.38h.07c.09 0 .16-.03.16-.1 0-.06-.05-.1-.14-.1-.04 0-.07 0-.09.01v.19zM82.63 30.68c-3.38 0-5-2.46-5-4.83 0-2.73 1.97-4.92 5.06-4.92 1.05 0 2.14.32 3 1.05l-.96 1.33c-.59-.46-1.22-.63-1.98-.63-1.64 0-2.86 1.14-2.86 3.11 0 1.79 1.13 3.23 2.92 3.23.76 0 1.43-.23 2.02-.75l.88 1.34c-.84.73-1.99 1.07-3.08 1.07M90.9 30.68c-2.83 0-4.91-2.14-4.91-4.92 0-2.86 2.27-4.83 4.91-4.83 2.63 0 4.93 1.95 4.93 4.81-.01 2.81-2.09 4.94-4.93 4.94m2.65-4.92c0-1.72-.84-3.21-2.65-3.21-1.78 0-2.65 1.49-2.65 3.19 0 1.76.82 3.32 2.65 3.32s2.65-1.55 2.65-3.32v.02zM101.55 30.68c-2.83 0-4.91-2.14-4.91-4.92 0-2.86 2.27-4.83 4.91-4.83 2.63 0 4.92 1.95 4.92 4.81.01 2.81-2.07 4.94-4.92 4.94m2.65-4.92c0-1.72-.84-3.21-2.65-3.21-1.78 0-2.65 1.49-2.65 3.19 0 1.76.82 3.32 2.65 3.32s2.65-1.55 2.65-3.32v.02zM107.58 30.46V16.79l2.12 1.16v12.51zM114.59 30.74c-2.39 0-3.53-1.15-3.53-1.15l.96-1.24s1.09.73 2.52.73c.69 0 1.26-.48 1.26-.95 0-.48-.21-.88-.84-1.2-.63-.33-1.34-.67-1.89-.94-.55-.27-1.77-1.09-1.77-2.7 0-1.62 1.64-2.52 3.32-2.52 1.6 0 2.83 1.05 2.83 1.05l-.82 1.26s-.92-.65-1.93-.65c-1.01 0-1.22.65-1.22.92s.1.69.74 1.03c.65.34 1.32.71 2.27 1.24s1.49 1.45 1.49 2.48c-.01 1.04-1 2.64-3.39 2.64M123.7 30.68c-3.38 0-5-2.46-5-4.83 0-2.73 1.97-4.92 5.06-4.92 1.05 0 2.14.32 3 1.05l-.95 1.33c-.59-.46-1.22-.63-1.99-.63-1.64 0-2.86 1.14-2.86 3.11 0 1.79 1.13 3.23 2.92 3.23.76 0 1.43-.23 2.02-.75l.88 1.34c-.85.73-2 1.07-3.08 1.07M134.14 29.37s-1.07 1.32-3.09 1.32c-2.39 0-3.55-1.74-3.55-3.49v-6.05h2.12v5.96c0 1.03.8 1.89 2.04 1.89 1.09 0 2.16-1.3 2.16-1.3v-6.55h2.12v9.3l-1.8-1.08zM137.82 30.46V16.79l2.12 1.16v12.51zM146.95 30.68c-1.87 0-2.94-1.05-2.94-1.05v4.64h-2.14V20.95l2.14 1.12s1.15-1.16 3.05-1.16c2.01 0 4.51 1.54 4.51 5s-2.46 4.77-4.62 4.77m-.13-8.13c-1.81 0-2.86 1.7-2.86 1.7v3.51s1.2 1.36 2.94 1.36c2.02 0 2.46-2.43 2.46-3.27-.01-.83-.2-3.3-2.54-3.3M157.15 30.7h-1.34c-1.68 0-2.25-1.62-2.25-2.69v-5.48h-1.68v-1.39h1.68v-4.11h2.1v4.11h2.16v1.39h-2.14v4.96c0 .55-.1 1.43.84 1.43h1.53l-.9 1.78zM160.54 19.53a1.4 1.4 0 0 1-1.39-1.39c0-.77.63-1.39 1.39-1.39.76 0 1.39.63 1.39 1.39.01.76-.62 1.39-1.39 1.39m-1.05 1.61h2.08v9.32h-2.08v-9.32zM169.97 30.46V24.5c0-1.03-.8-1.89-2.04-1.89-1.09 0-2.31 1.3-2.31 1.3v6.55h-2.12v-9.3l1.79 1.07s1.22-1.32 3.25-1.32c2.39 0 3.55 1.74 3.55 3.49v6.05h-2.12zM178.56 34.79c-.32 0-2.81-.04-2.81-.04l.04-1.7h2.09c2.02 0 3.17-1.09 3.17-2.58v-.84s-1.11 1.05-2.98 1.05c-2.16 0-4.62-1.32-4.62-4.78s2.5-5 4.51-5c1.91 0 3.05 1.16 3.05 1.16l2.14-1.07v9.26c0 2.51-1.66 4.54-4.59 4.54m2.51-10.54s-1.05-1.7-2.86-1.7c-2.35 0-2.54 2.46-2.54 3.3 0 .84.44 3.27 2.46 3.27 1.74 0 2.94-1.36 2.94-1.36v-3.51zM58.65 37.52v-6.09l1.2-1.2 3.45 3.46v1.15zM56.17 26.22l-3.9 3.9 4.78 1.8 5.7-5.7zM58.1 20.78h-5.03l1.61 4.64h8.07zM63.31 18.29l-3.88-3.88-1.82 4.75 5.7 5.7zM75.05 30.86h-5.74l-4.65-4.64h8.06zM70.36 19.73l5.21 1.36-4.34 4.34h-6.57zM64.1 16.8l4.65-2.76v6.17l-4.65 4.65zM70.02 32.7l-1.49 5.08-8.11-8.11 3.28-3.28zM186.31 21.77c0 .55-.44.99-1.01.99a.997.997 0 0 1-1.01-.99c0-.55.45-.98 1.02-.98.56 0 1 .43 1 .98zm-1.77 0c0 .44.33.79.77.79.42.01.75-.35.75-.78 0-.44-.32-.79-.76-.79-.43 0-.76.35-.76.78zm.61.51h-.23v-.98c.09-.01.22-.03.38-.03.19 0 .27.03.34.08.06.04.1.12.1.21 0 .12-.09.2-.2.23v.01c.1.03.14.11.17.24.03.15.05.21.07.24h-.24c-.03-.03-.05-.12-.08-.24-.02-.1-.08-.15-.2-.15h-.11v.39zm.01-.55h.11c.13 0 .23-.04.23-.14 0-.09-.07-.15-.21-.15-.06 0-.1.01-.13.01v.28z"/><g><path class="st0" d="M192.13 20.23h6.61v1.55h-4.83v2.54h4.58v1.49h-4.58v2.82h5.08v1.58h-6.86v-9.98zM204.1 20.23h1.77v8.39h4.24v1.58h-6.01v-9.97zM214.68 20.23h1.77v9.97h-1.77v-9.97zM224.04 21.78h-3.06v-1.55h7.89v1.55h-3.06v8.42h-1.77v-8.42zM233.41 20.23h6.61v1.55h-4.83v2.54h4.58v1.49h-4.58v2.82h5.08v1.58h-6.86v-9.98z"/></g></svg>