<?xml version="1.0" encoding="utf-8"?>
<!-- Generator: Adobe Illustrator 25.2.1, SVG Export Plug-In . SVG Version: 6.00 Build 0)  -->
<svg version="1.1" id="Layer_1" xmlns="http://www.w3.org/2000/svg" xmlns:xlink="http://www.w3.org/1999/xlink" x="0px" y="0px"
	 viewBox="0 0 300 250" style="enable-background:new 0 0 300 250;" xml:space="preserve">
<style type="text/css">
	.st0{fill:#FFFFFF;}
</style>
<g>
	<path class="st0" d="M13.52,51.61h-1.86l0.11-1.64h1.86l0.56-7.81h-1.86l0.11-1.64h1.86l0.48-6.96h1.79l-0.48,6.96h2.75l0.48-6.96
		h1.75l-0.48,6.96h1.93l-0.11,1.64h-1.93l-0.56,7.81h1.97l-0.15,1.64h-1.93l-0.52,7.63h-1.75l0.52-7.63h-2.75l-0.52,7.63H13
		L13.52,51.61z M18.17,49.98l0.56-7.81h-2.75l-0.56,7.81H18.17z"/>
	<path class="st0" d="M28.36,36.1l-3.27,2.01v-2.08l4.09-2.53h1.38v25.74h-2.19V36.1z"/>
	<path class="st0" d="M38.09,39.67h2.21l3.09,14.33h0.06V39.67h1.53v19.57h-1.84L39.68,43.1h-0.06v16.14h-1.53V39.67z"/>
	<path class="st0" d="M48.19,55.98V42.93c0-2.27,1.22-3.55,3.29-3.55c2.07,0,3.29,1.28,3.29,3.55v13.05c0,2.27-1.22,3.55-3.29,3.55
		C49.41,59.52,48.19,58.25,48.19,55.98z M53.07,55.69V43.21c0-1.65-0.45-2.3-1.59-2.3c-1.16,0-1.59,0.65-1.59,2.3v12.48
		c0,1.65,0.43,2.3,1.59,2.3C52.62,57.99,53.07,57.34,53.07,55.69z"/>
	<path class="st0" d="M57.98,39.67h2.21l3.09,14.33h0.06V39.67h1.53v19.57h-1.84L59.57,43.1h-0.06v16.14h-1.53V39.67z"/>
	<path class="st0" d="M67.88,56.03V52.6h1.65v3.12c0,1.62,0.45,2.27,1.59,2.27c1.16,0,1.62-0.65,1.62-2.27v-2.95
		c0-1.33-0.37-1.99-1.33-2.61l-1.5-0.96c-1.45-0.94-2.01-2.01-2.01-3.91v-2.52c0-2.16,1.16-3.38,3.18-3.38
		c2.01,0,3.18,1.22,3.18,3.38v2.52h-1.65v-2.24c0-1.53-0.43-2.13-1.5-2.13c-1.08,0-1.5,0.6-1.5,2.13v2.13
		c0,1.33,0.37,1.99,1.33,2.61l1.5,0.96c1.45,0.94,2.01,2.01,2.01,3.91v3.38c0,2.24-1.22,3.49-3.29,3.49
		C69.07,59.52,67.88,58.27,67.88,56.03z"/>
	<path class="st0" d="M77.32,56.09V39.67h1.7v16.11c0,1.59,0.4,2.21,1.53,2.21c1.13,0,1.53-0.62,1.53-2.21V39.67h1.65v16.42
		c0,2.18-1.19,3.43-3.21,3.43C78.51,59.52,77.32,58.27,77.32,56.09z"/>
	<path class="st0" d="M86.99,39.67h3.15c2.27,0,3.35,1.16,3.35,3.55v2.5c0,1.59-0.51,2.55-1.53,3.01v0.06
		c1.02,0.45,1.53,1.42,1.53,3.04v7.43h-1.7v-7.32c0-1.82-0.51-2.35-2.13-2.35H88.7v9.67h-1.7V39.67z M89.94,48.09
		c1.42,0,1.84-0.54,1.84-2.35V43.5c0-1.82-0.43-2.35-1.84-2.35H88.7v6.95H89.94z"/>
	<path class="st0" d="M96.55,56.46V42.9c0-2.24,1.22-3.52,3.26-3.52c2.07,0,3.23,1.28,3.23,3.52v2.16h-1.62v-1.84
		c0-1.65-0.45-2.3-1.59-2.3c-1.16,0-1.59,0.65-1.59,2.3v13.05c0,1.16,0.43,1.73,1.36,1.73c1.16,0,1.82-0.88,1.82-2.47v-5.62h-1.59
		v-1.48h3.29v10.81h-1.45v-1.39h-0.08c-0.45,1.08-1.28,1.67-2.44,1.67C97.52,59.52,96.55,58.36,96.55,56.46z"/>
	<path class="st0" d="M106.25,39.67h1.7v19.57h-1.7V39.67z"/>
	<path class="st0" d="M111.16,56.15V42.76c0-2.16,1.13-3.38,3.18-3.38c2.07,0,3.21,1.22,3.21,3.38v3.21h-1.62v-2.92
		c0-1.53-0.45-2.13-1.53-2.13c-1.11,0-1.53,0.6-1.53,2.13v12.82c0,1.53,0.43,2.13,1.53,2.13c1.08,0,1.53-0.6,1.53-2.13v-3.94h1.62
		v4.23c0,2.16-1.13,3.38-3.21,3.38C112.29,59.52,111.16,58.3,111.16,56.15z"/>
	<path class="st0" d="M122.36,39.67h2.24l2.47,19.57h-1.73l-0.57-4.85h-2.67l-0.57,4.85h-1.65L122.36,39.67z M124.6,52.91
		l-1.13-10.55h-0.06l-1.13,10.55H124.6z"/>
	<path class="st0" d="M129.74,39.67h1.7v18.1h3.63v1.48h-5.33V39.67z"/>
	<path class="st0" d="M12.19,65.45h5.62v1.48H13.9v7.12h3.4v1.48h-3.4v9.5h-1.7V65.45z"/>
	<path class="st0" d="M22.26,65.45h2.24l2.47,19.57h-1.73l-0.57-4.85h-2.67l-0.57,4.85h-1.65L22.26,65.45z M24.5,78.7l-1.13-10.55
		h-0.06L22.18,78.7H24.5z"/>
	<path class="st0" d="M31.34,66.93h-2.38v-1.48h6.47v1.48h-2.38v18.1h-1.7V66.93z"/>
	<path class="st0" d="M42.74,65.45h3.15c2.27,0,3.35,1.16,3.35,3.55v2.5c0,1.59-0.51,2.55-1.53,3.01v0.06
		c1.02,0.45,1.53,1.42,1.53,3.04v7.43h-1.7v-7.32c0-1.82-0.51-2.35-2.13-2.35h-0.96v9.67h-1.7V65.45z M45.69,73.88
		c1.42,0,1.84-0.54,1.84-2.35v-2.24c0-1.82-0.43-2.35-1.84-2.35h-1.25v6.95H45.69z"/>
	<path class="st0" d="M52.41,65.45h5.62v1.48h-3.91v6.84h3.4v1.48h-3.4v8.31h3.91v1.48h-5.62V65.45z"/>
	<path class="st0" d="M60.78,65.45h3.23c2.27,0,3.35,1.16,3.35,3.55v12.48c0,2.38-1.08,3.55-3.35,3.55h-3.23V65.45z M63.82,83.55
		c1.42,0,1.84-0.54,1.84-2.35V69.28c0-1.82-0.43-2.35-1.84-2.35h-1.33v16.62H63.82z"/>
	<path class="st0" d="M70.48,81.88V65.45h1.7v16.11c0,1.59,0.4,2.21,1.53,2.21c1.13,0,1.53-0.62,1.53-2.21V65.45h1.65v16.42
		c0,2.18-1.19,3.43-3.21,3.43C71.67,85.31,70.48,84.06,70.48,81.88z"/>
	<path class="st0" d="M80.04,81.93V68.54c0-2.16,1.13-3.38,3.18-3.38c2.07,0,3.21,1.22,3.21,3.38v3.21H84.8v-2.92
		c0-1.53-0.45-2.13-1.53-2.13c-1.11,0-1.53,0.6-1.53,2.13v12.82c0,1.53,0.43,2.13,1.53,2.13c1.08,0,1.53-0.6,1.53-2.13v-3.94h1.62
		v4.23c0,2.16-1.13,3.38-3.21,3.38C81.17,85.31,80.04,84.09,80.04,81.93z"/>
	<path class="st0" d="M91.13,66.93h-2.38v-1.48h6.47v1.48h-2.38v18.1h-1.7V66.93z"/>
	<path class="st0" d="M97.85,65.45h1.7v19.57h-1.7V65.45z"/>
	<path class="st0" d="M102.76,81.76V68.71c0-2.27,1.22-3.55,3.29-3.55c2.07,0,3.29,1.28,3.29,3.55v13.05c0,2.27-1.22,3.55-3.29,3.55
		C103.98,85.31,102.76,84.03,102.76,81.76z M107.64,81.48V69c0-1.65-0.45-2.3-1.59-2.3c-1.16,0-1.59,0.65-1.59,2.3v12.48
		c0,1.65,0.43,2.3,1.59,2.3C107.18,83.78,107.64,83.12,107.64,81.48z"/>
	<path class="st0" d="M112.54,65.45h2.21l3.09,14.33h0.06V65.45h1.53v19.57h-1.84l-3.46-16.14h-0.06v16.14h-1.53V65.45z"/>
	<path class="st0" d="M13.9,92.71h-2.38v-1.48h6.47v1.48H15.6v18.1h-1.7V92.71z"/>
	<path class="st0" d="M20.62,91.24h3.15c2.27,0,3.35,1.16,3.35,3.55v2.5c0,1.59-0.51,2.55-1.53,3.01v0.06
		c1.02,0.45,1.53,1.42,1.53,3.04v7.43h-1.7v-7.32c0-1.82-0.51-2.35-2.13-2.35h-0.96v9.67h-1.7V91.24z M23.57,99.66
		c1.42,0,1.84-0.54,1.84-2.35v-2.24c0-1.82-0.43-2.35-1.84-2.35h-1.25v6.95H23.57z"/>
	<path class="st0" d="M30.29,91.24h5.62v1.48h-3.91v6.84h3.4v1.48h-3.4v8.31h3.91v1.48h-5.62V91.24z"/>
	<path class="st0" d="M40.47,91.24h2.24l2.47,19.57h-1.73l-0.57-4.85h-2.67l-0.57,4.85H38L40.47,91.24z M42.71,104.49l-1.13-10.55
		h-0.06l-1.13,10.55H42.71z"/>
	<path class="st0" d="M49.55,92.71h-2.38v-1.48h6.47v1.48h-2.38v18.1h-1.7V92.71z"/>
	<path class="st0" d="M56.27,91.24h2.69l2.18,14.44h0.06l2.18-14.44h2.81v19.57h-1.7v-17.5h-0.06l-2.64,17.5h-1.33l-2.64-17.5h-0.06
		v17.5h-1.5V91.24z"/>
	<path class="st0" d="M69.52,91.24h5.62v1.48h-3.91v6.84h3.4v1.48h-3.4v8.31h3.91v1.48h-5.62V91.24z"/>
	<path class="st0" d="M77.88,91.24h2.21l3.09,14.33h0.06V91.24h1.53v19.57h-1.84l-3.46-16.14h-0.06v16.14h-1.53V91.24z"/>
	<path class="st0" d="M89.8,92.71h-2.38v-1.48h6.47v1.48H91.5v18.1h-1.7V92.71z"/>
	<path class="st0" d="M95.95,108.48h1.9v2.33h-1.9V108.48z"/>
	<path class="st0" d="M98.75,92.67l-1.42,0.89l-0.38-0.63l1.49-0.79l-1.49-0.78l0.38-0.63l1.42,0.89l-0.08-1.67h0.74l-0.08,1.67
		l1.42-0.89l0.38,0.63l-1.49,0.79l1.49,0.78l-0.38,0.63l-1.42-0.89l0.08,1.67h-0.74L98.75,92.67z"/>
</g>
</svg>
