<?xml version="1.0" encoding="utf-8"?>
<!-- Generator: Adobe Illustrator 25.2.1, SVG Export Plug-In . SVG Version: 6.00 Build 0)  -->
<svg version="1.1" id="Layer_1" xmlns="http://www.w3.org/2000/svg" xmlns:xlink="http://www.w3.org/1999/xlink" x="0px" y="0px"
	 viewBox="0 0 300 250" style="enable-background:new 0 0 300 250;" xml:space="preserve">
<style type="text/css">
	.st0{fill:#EAF5FB;}
	.st1{fill:#002554;}
</style>
<rect x="12.27" y="117.94" class="st0" width="82.07" height="19.8"/>
<g>
	<path class="st1" d="M20.99,131.89v-6.68h1.62v5.27h2.58v1.41H20.99z"/>
	<path class="st1" d="M26.33,131.89v-6.68h4.49v1.37h-2.93v1.25h2.77v1.29h-2.77v1.39h3.1v1.38H26.33z"/>
	<path class="st1" d="M36.95,131.89l-0.52-1.31h-2.58l-0.49,1.31h-1.75l2.8-6.68h1.57l2.77,6.68H36.95z M35.16,126.99l-0.85,2.29
		h1.68L35.16,126.99z"/>
	<path class="st1" d="M43.25,131.89l-1.44-2.65h-0.55v2.65h-1.58v-6.68h2.55c1.28,0,2.56,0.49,2.56,2.02c0,0.9-0.53,1.54-1.39,1.8
		l1.74,2.86H43.25z M42.11,126.51h-0.86v1.56h0.76c0.52,0,1.17-0.13,1.17-0.81C43.19,126.63,42.59,126.51,42.11,126.51z"/>
	<path class="st1" d="M50.55,131.89l-2.69-4.37h-0.03l0.04,4.37h-1.57v-6.68h1.84l2.68,4.36h0.03l-0.04-4.36h1.57v6.68H50.55z"/>
	<path class="st1" d="M62.92,131.89l0.04-4.72h-0.03l-1.74,4.72h-1.13l-1.69-4.72h-0.03l0.04,4.72h-1.52v-6.68h2.29l1.52,4.28h0.04
		l1.45-4.28h2.33v6.68H62.92z"/>
	<path class="st1" d="M69.57,132.07c-2.08,0-3.63-1.43-3.63-3.54c0-2.14,1.55-3.49,3.63-3.49c2.09,0,3.64,1.35,3.64,3.49
		C73.21,130.63,71.66,132.07,69.57,132.07z M69.57,126.48c-1.13,0-1.9,0.87-1.9,2.04c0,1.21,0.78,2.07,1.9,2.07s1.91-0.87,1.91-2.07
		C71.48,127.35,70.7,126.48,69.57,126.48z"/>
	<path class="st1" d="M78.23,131.89l-1.44-2.65h-0.55v2.65h-1.58v-6.68h2.55c1.28,0,2.56,0.49,2.56,2.02c0,0.9-0.53,1.54-1.39,1.8
		l1.74,2.86H78.23z M77.08,126.51h-0.86v1.56h0.76c0.52,0,1.17-0.13,1.17-0.81C78.16,126.63,77.57,126.51,77.08,126.51z"/>
	<path class="st1" d="M81.28,131.89v-6.68h4.49v1.37h-2.93v1.25h2.77v1.29h-2.77v1.39h3.1v1.38H81.28z"/>
</g>
</svg>
