<?xml version="1.0" encoding="utf-8"?>
<!-- Generator: Adobe Illustrator 25.2.1, SVG Export Plug-In . SVG Version: 6.00 Build 0)  -->
<svg version="1.1" id="Layer_1" xmlns="http://www.w3.org/2000/svg" xmlns:xlink="http://www.w3.org/1999/xlink" x="0px" y="0px"
	 viewBox="0 0 300 250" style="enable-background:new 0 0 300 250;" xml:space="preserve">
<style type="text/css">
	.st0{fill:#FFFFFF;}
</style>
<g>
	<path class="st0" d="M11.55,145.46l0.18,0.49l-0.82,0.27l0.53,0.71l-0.42,0.31l-0.55-0.73l-0.55,0.73l-0.42-0.31l0.53-0.71
		l-0.82-0.27l0.18-0.49l0.82,0.27v-0.84h0.52v0.84L11.55,145.46z"/>
	<path class="st0" d="M16.34,148.78c-0.18,0.25-0.42,0.45-0.71,0.6c-0.29,0.15-0.64,0.23-1.05,0.23c-0.35,0-0.67-0.06-0.97-0.18
		s-0.55-0.29-0.77-0.5c-0.21-0.21-0.38-0.47-0.5-0.77c-0.12-0.3-0.18-0.62-0.18-0.98c0-0.36,0.06-0.69,0.19-0.98
		c0.12-0.3,0.29-0.55,0.51-0.76c0.22-0.21,0.48-0.37,0.78-0.49c0.3-0.12,0.62-0.17,0.97-0.17c0.16,0,0.31,0.01,0.47,0.04
		s0.31,0.08,0.46,0.14s0.28,0.14,0.4,0.22c0.12,0.09,0.23,0.19,0.31,0.31l-0.51,0.39c-0.11-0.16-0.27-0.28-0.48-0.39
		c-0.21-0.1-0.43-0.15-0.67-0.15c-0.27,0-0.51,0.05-0.72,0.15c-0.21,0.1-0.4,0.23-0.55,0.4c-0.15,0.17-0.27,0.36-0.35,0.59
		c-0.08,0.22-0.12,0.46-0.12,0.71c0,0.26,0.04,0.5,0.12,0.73c0.08,0.23,0.19,0.42,0.34,0.59s0.33,0.3,0.55,0.39
		c0.21,0.1,0.45,0.14,0.72,0.14c0.26,0,0.5-0.05,0.71-0.16c0.21-0.1,0.39-0.26,0.53-0.45L16.34,148.78z"/>
	<path class="st0" d="M19.84,147.94c0,0.24-0.04,0.46-0.13,0.66s-0.2,0.37-0.35,0.52c-0.15,0.14-0.33,0.26-0.53,0.34
		s-0.42,0.12-0.66,0.12s-0.45-0.04-0.66-0.12c-0.2-0.08-0.38-0.19-0.53-0.34c-0.15-0.15-0.26-0.32-0.35-0.52s-0.13-0.42-0.13-0.66
		c0-0.24,0.04-0.46,0.13-0.65c0.08-0.2,0.2-0.37,0.35-0.51c0.15-0.14,0.32-0.25,0.53-0.33c0.2-0.08,0.42-0.12,0.66-0.12
		s0.45,0.04,0.66,0.12s0.38,0.19,0.53,0.33c0.15,0.14,0.27,0.31,0.35,0.51C19.8,147.49,19.84,147.71,19.84,147.94z M19.21,147.95
		c0-0.15-0.02-0.29-0.07-0.42c-0.05-0.13-0.11-0.25-0.2-0.35s-0.19-0.18-0.32-0.24c-0.13-0.06-0.27-0.09-0.44-0.09
		s-0.31,0.03-0.44,0.09c-0.13,0.06-0.24,0.14-0.32,0.24c-0.09,0.1-0.15,0.22-0.2,0.35c-0.05,0.13-0.07,0.27-0.07,0.42
		s0.02,0.29,0.07,0.42c0.05,0.13,0.11,0.25,0.2,0.36c0.09,0.1,0.19,0.19,0.32,0.25c0.13,0.06,0.27,0.09,0.44,0.09
		s0.31-0.03,0.44-0.09c0.13-0.06,0.24-0.14,0.32-0.25c0.09-0.1,0.15-0.22,0.2-0.36C19.18,148.23,19.21,148.09,19.21,147.95z"/>
	<path class="st0" d="M23.64,147.94c0,0.24-0.04,0.46-0.13,0.66s-0.2,0.37-0.35,0.52c-0.15,0.14-0.33,0.26-0.53,0.34
		s-0.42,0.12-0.66,0.12s-0.45-0.04-0.66-0.12c-0.2-0.08-0.38-0.19-0.53-0.34c-0.15-0.15-0.26-0.32-0.35-0.52s-0.13-0.42-0.13-0.66
		c0-0.24,0.04-0.46,0.13-0.65c0.08-0.2,0.2-0.37,0.35-0.51c0.15-0.14,0.32-0.25,0.53-0.33c0.2-0.08,0.42-0.12,0.66-0.12
		s0.45,0.04,0.66,0.12s0.38,0.19,0.53,0.33c0.15,0.14,0.27,0.31,0.35,0.51C23.6,147.49,23.64,147.71,23.64,147.94z M23.01,147.95
		c0-0.15-0.02-0.29-0.07-0.42c-0.05-0.13-0.11-0.25-0.2-0.35s-0.19-0.18-0.32-0.24c-0.13-0.06-0.27-0.09-0.44-0.09
		s-0.31,0.03-0.44,0.09c-0.13,0.06-0.24,0.14-0.32,0.24c-0.09,0.1-0.15,0.22-0.2,0.35c-0.05,0.13-0.07,0.27-0.07,0.42
		s0.02,0.29,0.07,0.42c0.05,0.13,0.11,0.25,0.2,0.36c0.09,0.1,0.19,0.19,0.32,0.25c0.13,0.06,0.27,0.09,0.44,0.09
		s0.31-0.03,0.44-0.09c0.13-0.06,0.24-0.14,0.32-0.25c0.09-0.1,0.15-0.22,0.2-0.36C22.98,148.23,23.01,148.09,23.01,147.95z"/>
	<path class="st0" d="M24.95,149.49h-0.61v-4.91h0.61V149.49z"/>
	<path class="st0" d="M28.17,145.74c-0.09-0.13-0.21-0.23-0.37-0.31c-0.16-0.08-0.33-0.12-0.53-0.12c-0.1,0-0.21,0.01-0.31,0.04
		c-0.11,0.03-0.2,0.07-0.29,0.14c-0.09,0.06-0.16,0.14-0.21,0.23c-0.05,0.09-0.08,0.2-0.08,0.33c0,0.13,0.02,0.23,0.07,0.32
		c0.05,0.08,0.12,0.16,0.2,0.21c0.08,0.06,0.18,0.11,0.3,0.15s0.24,0.08,0.37,0.13c0.16,0.05,0.31,0.1,0.47,0.16
		s0.31,0.14,0.44,0.24s0.24,0.22,0.32,0.37c0.08,0.15,0.12,0.34,0.12,0.57c0,0.24-0.04,0.45-0.13,0.62
		c-0.09,0.18-0.21,0.32-0.35,0.44c-0.15,0.11-0.32,0.2-0.51,0.26c-0.19,0.06-0.39,0.08-0.59,0.08c-0.29,0-0.57-0.06-0.84-0.17
		s-0.49-0.28-0.67-0.5l0.5-0.42c0.11,0.16,0.25,0.29,0.44,0.39s0.38,0.15,0.59,0.15c0.11,0,0.22-0.02,0.32-0.05
		c0.11-0.03,0.21-0.08,0.3-0.14c0.09-0.07,0.16-0.15,0.22-0.24c0.06-0.1,0.08-0.21,0.08-0.35s-0.03-0.25-0.09-0.35
		c-0.06-0.09-0.14-0.17-0.24-0.24c-0.1-0.07-0.22-0.12-0.35-0.17s-0.27-0.09-0.42-0.14c-0.15-0.04-0.29-0.1-0.44-0.16
		c-0.14-0.06-0.27-0.14-0.38-0.24c-0.11-0.1-0.2-0.22-0.27-0.36s-0.1-0.32-0.1-0.53c0-0.23,0.05-0.43,0.14-0.59
		c0.09-0.17,0.21-0.3,0.36-0.41s0.32-0.19,0.51-0.24c0.19-0.05,0.38-0.07,0.57-0.07c0.27,0,0.52,0.05,0.75,0.14
		c0.23,0.1,0.42,0.22,0.56,0.38L28.17,145.74z"/>
	<path class="st0" d="M31.54,147.19c-0.06-0.1-0.16-0.18-0.29-0.25c-0.13-0.07-0.27-0.1-0.42-0.1c-0.16,0-0.3,0.03-0.43,0.09
		c-0.12,0.06-0.23,0.14-0.31,0.24c-0.09,0.1-0.15,0.22-0.2,0.35s-0.07,0.28-0.07,0.42c0,0.15,0.02,0.29,0.07,0.42
		c0.05,0.13,0.11,0.25,0.2,0.35c0.09,0.1,0.19,0.18,0.32,0.24s0.27,0.09,0.43,0.09c0.16,0,0.3-0.03,0.43-0.09
		c0.13-0.06,0.23-0.14,0.31-0.25l0.41,0.37c-0.13,0.15-0.29,0.27-0.49,0.35c-0.19,0.08-0.42,0.13-0.66,0.13
		c-0.24,0-0.46-0.04-0.66-0.12s-0.38-0.19-0.52-0.33c-0.15-0.14-0.26-0.31-0.35-0.51s-0.13-0.42-0.13-0.67
		c0-0.24,0.04-0.46,0.12-0.66c0.08-0.2,0.2-0.37,0.34-0.51c0.15-0.14,0.32-0.25,0.52-0.33c0.2-0.08,0.42-0.12,0.65-0.12
		c0.22,0,0.43,0.04,0.65,0.13c0.21,0.09,0.38,0.21,0.51,0.38L31.54,147.19z"/>
	<path class="st0" d="M34.6,149.49c-0.01-0.08-0.02-0.17-0.02-0.26c0-0.1-0.01-0.18-0.01-0.24h-0.01c-0.08,0.17-0.21,0.3-0.39,0.42
		c-0.18,0.12-0.39,0.17-0.61,0.17c-0.2,0-0.37-0.03-0.52-0.1c-0.15-0.07-0.26-0.16-0.36-0.27c-0.09-0.12-0.16-0.25-0.21-0.4
		c-0.05-0.15-0.07-0.31-0.07-0.49v-1.91h0.61v1.7c0,0.13,0.01,0.25,0.03,0.36c0.02,0.12,0.06,0.22,0.11,0.3
		c0.05,0.09,0.12,0.16,0.21,0.21c0.09,0.05,0.21,0.08,0.35,0.08c0.25,0,0.45-0.09,0.6-0.28c0.15-0.18,0.23-0.43,0.23-0.74v-1.64
		h0.61v2.42c0,0.08,0,0.19,0.01,0.32s0.01,0.24,0.02,0.34H34.6z"/>
	<path class="st0" d="M36.67,149.49h-0.61v-4.91h0.61V149.49z"/>
	<path class="st0" d="M38.18,151.05h-0.61v-4.64h0.6v0.48h0.02c0.1-0.16,0.25-0.3,0.44-0.41c0.19-0.11,0.42-0.16,0.67-0.16
		c0.23,0,0.44,0.04,0.62,0.12c0.19,0.08,0.35,0.2,0.49,0.34c0.14,0.15,0.24,0.32,0.31,0.52c0.07,0.2,0.11,0.41,0.11,0.63
		c0,0.22-0.04,0.44-0.11,0.64c-0.07,0.2-0.18,0.37-0.31,0.52c-0.13,0.15-0.3,0.26-0.49,0.35c-0.19,0.08-0.4,0.13-0.64,0.13
		c-0.22,0-0.43-0.05-0.62-0.14c-0.19-0.09-0.35-0.23-0.46-0.4h-0.02V151.05z M40.2,147.94c0-0.14-0.02-0.28-0.06-0.42
		s-0.11-0.25-0.19-0.36c-0.09-0.1-0.19-0.19-0.32-0.25c-0.13-0.06-0.28-0.09-0.44-0.09c-0.16,0-0.3,0.03-0.43,0.09
		c-0.13,0.06-0.24,0.14-0.33,0.25c-0.09,0.1-0.16,0.22-0.21,0.36s-0.07,0.28-0.07,0.42c0,0.15,0.02,0.29,0.07,0.42
		c0.05,0.13,0.12,0.25,0.21,0.35c0.09,0.1,0.2,0.18,0.33,0.24c0.13,0.06,0.27,0.09,0.43,0.09c0.17,0,0.32-0.03,0.44-0.09
		c0.13-0.06,0.23-0.15,0.32-0.25c0.09-0.1,0.15-0.22,0.19-0.36C40.18,148.23,40.2,148.09,40.2,147.94z"/>
	<path class="st0" d="M43.03,146.91h-0.82v1.6c0,0.19,0.03,0.32,0.1,0.4c0.07,0.08,0.18,0.12,0.33,0.12c0.06,0,0.12-0.01,0.18-0.02
		c0.06-0.01,0.12-0.03,0.18-0.05l0.02,0.5c-0.07,0.03-0.15,0.05-0.24,0.06c-0.09,0.01-0.18,0.02-0.28,0.02
		c-0.29,0-0.51-0.08-0.67-0.24s-0.23-0.4-0.23-0.72v-1.67h-0.59v-0.5h0.59v-0.88h0.6v0.88h0.82V146.91z"/>
	<path class="st0" d="M44.21,145.3c0,0.11-0.04,0.21-0.12,0.28c-0.08,0.07-0.18,0.11-0.29,0.11c-0.11,0-0.21-0.04-0.28-0.11
		c-0.08-0.08-0.12-0.17-0.12-0.28c0-0.11,0.04-0.21,0.12-0.28c0.08-0.08,0.17-0.11,0.28-0.11c0.11,0,0.21,0.04,0.29,0.11
		C44.17,145.09,44.21,145.19,44.21,145.3z M44.11,149.49H43.5v-3.08h0.61V149.49z"/>
	<path class="st0" d="M45.57,146.41c0.01,0.08,0.02,0.17,0.02,0.26c0,0.1,0.01,0.18,0.01,0.24h0.02c0.04-0.08,0.09-0.16,0.16-0.23
		c0.07-0.07,0.14-0.13,0.23-0.19c0.09-0.05,0.18-0.1,0.29-0.13c0.1-0.03,0.21-0.04,0.32-0.04c0.2,0,0.37,0.03,0.51,0.1
		s0.26,0.16,0.36,0.27s0.17,0.24,0.21,0.4c0.05,0.15,0.07,0.31,0.07,0.49v1.91h-0.61v-1.71c0-0.12-0.01-0.24-0.03-0.36
		c-0.02-0.11-0.06-0.21-0.11-0.3c-0.05-0.09-0.12-0.16-0.21-0.21s-0.21-0.08-0.35-0.08c-0.24,0-0.44,0.09-0.59,0.28
		c-0.15,0.18-0.23,0.43-0.23,0.74v1.64h-0.61v-2.42c0-0.08,0-0.19-0.01-0.32s-0.01-0.25-0.02-0.34H45.57z"/>
	<path class="st0" d="M48.87,150.02c0.13,0.15,0.3,0.27,0.5,0.36s0.41,0.14,0.62,0.14c0.2,0,0.37-0.03,0.51-0.09
		s0.25-0.14,0.33-0.24s0.15-0.22,0.18-0.36c0.04-0.14,0.06-0.29,0.06-0.45v-0.4h-0.01c-0.11,0.17-0.27,0.31-0.46,0.4
		s-0.4,0.14-0.62,0.14c-0.23,0-0.45-0.04-0.64-0.12c-0.19-0.08-0.36-0.19-0.49-0.34c-0.13-0.14-0.24-0.31-0.31-0.5
		c-0.07-0.19-0.11-0.4-0.11-0.62s0.04-0.43,0.11-0.62c0.07-0.2,0.18-0.36,0.31-0.51c0.13-0.14,0.3-0.26,0.49-0.34
		c0.19-0.08,0.4-0.13,0.64-0.13c0.22,0,0.43,0.05,0.63,0.14c0.2,0.1,0.36,0.24,0.48,0.44h0.01v-0.49h0.59v2.92
		c0,0.23-0.03,0.44-0.08,0.65c-0.06,0.21-0.15,0.39-0.29,0.55c-0.13,0.16-0.31,0.28-0.53,0.38c-0.22,0.1-0.48,0.14-0.81,0.14
		c-0.27,0-0.54-0.05-0.81-0.15s-0.5-0.23-0.7-0.41L48.87,150.02z M49.06,147.92c0,0.14,0.02,0.28,0.07,0.41
		c0.05,0.13,0.11,0.24,0.2,0.34s0.2,0.18,0.32,0.24s0.27,0.09,0.43,0.09c0.16,0,0.3-0.03,0.43-0.08c0.13-0.06,0.24-0.13,0.33-0.23
		c0.09-0.1,0.16-0.21,0.21-0.34c0.05-0.13,0.08-0.27,0.08-0.42c0-0.15-0.03-0.29-0.08-0.42s-0.12-0.24-0.21-0.34
		s-0.2-0.18-0.33-0.24c-0.13-0.06-0.27-0.09-0.43-0.09c-0.16,0-0.3,0.03-0.43,0.09s-0.23,0.14-0.32,0.23
		c-0.09,0.1-0.16,0.21-0.2,0.34C49.08,147.63,49.06,147.77,49.06,147.92z"/>
	<path class="st0" d="M52.52,146.29c0-0.2,0.04-0.39,0.12-0.57c0.08-0.18,0.18-0.34,0.32-0.47c0.13-0.13,0.29-0.24,0.47-0.32
		c0.18-0.08,0.37-0.12,0.57-0.12c0.2,0,0.4,0.04,0.57,0.12c0.18,0.08,0.34,0.18,0.47,0.32c0.13,0.13,0.24,0.29,0.32,0.47
		s0.12,0.37,0.12,0.57s-0.04,0.39-0.12,0.57s-0.18,0.33-0.32,0.46c-0.13,0.13-0.29,0.24-0.47,0.31c-0.18,0.08-0.37,0.11-0.57,0.11
		c-0.2,0-0.4-0.04-0.57-0.11c-0.18-0.08-0.34-0.18-0.47-0.31c-0.13-0.13-0.24-0.29-0.32-0.46
		C52.55,146.68,52.52,146.49,52.52,146.29z M52.75,146.29c0,0.17,0.03,0.33,0.1,0.48s0.15,0.29,0.27,0.4
		c0.11,0.11,0.24,0.2,0.4,0.27c0.15,0.06,0.31,0.1,0.49,0.1c0.17,0,0.34-0.03,0.49-0.1c0.15-0.07,0.28-0.16,0.4-0.27
		c0.11-0.11,0.2-0.25,0.27-0.4s0.1-0.31,0.1-0.48c0-0.17-0.03-0.33-0.1-0.49c-0.06-0.15-0.15-0.28-0.27-0.4
		c-0.11-0.11-0.24-0.2-0.4-0.27c-0.15-0.06-0.31-0.1-0.49-0.1c-0.17,0-0.34,0.03-0.49,0.1c-0.15,0.07-0.28,0.15-0.4,0.27
		c-0.11,0.11-0.2,0.24-0.27,0.4C52.78,145.95,52.75,146.12,52.75,146.29z M54.35,147.1L54,146.46h-0.23v0.64h-0.4v-1.66h0.71
		c0.08,0,0.15,0.01,0.23,0.03c0.07,0.02,0.14,0.04,0.2,0.08s0.11,0.09,0.15,0.16s0.06,0.15,0.06,0.25c0,0.11-0.03,0.21-0.09,0.28
		c-0.06,0.07-0.14,0.13-0.24,0.16l0.44,0.7H54.35z M54.07,146.17c0.06,0,0.12-0.02,0.17-0.06c0.05-0.04,0.07-0.09,0.07-0.16
		c0-0.07-0.03-0.12-0.08-0.15s-0.11-0.05-0.16-0.05h-0.31v0.41H54.07z"/>
	<path class="st0" d="M58.48,145.3c0,0.11-0.04,0.21-0.12,0.28c-0.08,0.07-0.18,0.11-0.29,0.11c-0.11,0-0.21-0.04-0.28-0.11
		c-0.08-0.08-0.12-0.17-0.12-0.28c0-0.11,0.04-0.21,0.12-0.28c0.08-0.08,0.17-0.11,0.28-0.11c0.11,0,0.21,0.04,0.29,0.11
		C58.44,145.09,58.48,145.19,58.48,145.3z M58.38,149.49h-0.61v-3.08h0.61V149.49z"/>
	<path class="st0" d="M60.95,147.19c-0.07-0.11-0.17-0.2-0.29-0.28s-0.27-0.11-0.42-0.11c-0.07,0-0.14,0.01-0.21,0.02
		c-0.07,0.02-0.13,0.04-0.19,0.07c-0.05,0.03-0.1,0.07-0.13,0.12c-0.03,0.05-0.05,0.11-0.05,0.18c0,0.13,0.06,0.23,0.18,0.29
		c0.12,0.06,0.29,0.12,0.53,0.17c0.15,0.04,0.28,0.08,0.41,0.12c0.13,0.05,0.23,0.11,0.33,0.18c0.09,0.07,0.17,0.16,0.22,0.26
		c0.05,0.1,0.08,0.22,0.08,0.35c0,0.18-0.03,0.34-0.1,0.46c-0.07,0.13-0.16,0.23-0.28,0.31s-0.25,0.14-0.39,0.17
		c-0.15,0.04-0.3,0.05-0.45,0.05c-0.23,0-0.46-0.04-0.69-0.14c-0.22-0.09-0.41-0.23-0.56-0.42l0.44-0.37
		c0.08,0.12,0.2,0.22,0.34,0.31s0.3,0.12,0.48,0.12c0.08,0,0.15-0.01,0.22-0.02c0.07-0.02,0.14-0.04,0.19-0.08
		c0.06-0.03,0.1-0.08,0.14-0.14c0.03-0.06,0.05-0.13,0.05-0.21c0-0.14-0.07-0.25-0.2-0.32c-0.14-0.07-0.34-0.13-0.6-0.2
		c-0.1-0.03-0.21-0.06-0.31-0.09c-0.11-0.04-0.2-0.09-0.29-0.15c-0.09-0.06-0.16-0.15-0.21-0.24s-0.08-0.22-0.08-0.36
		c0-0.16,0.03-0.31,0.1-0.42c0.07-0.12,0.15-0.22,0.26-0.29c0.11-0.08,0.23-0.13,0.37-0.17c0.14-0.04,0.28-0.05,0.43-0.05
		c0.22,0,0.43,0.04,0.64,0.13s0.36,0.21,0.48,0.38L60.95,147.19z"/>
	<path class="st0" d="M64.98,146.91h-0.82v1.6c0,0.19,0.03,0.32,0.1,0.4c0.07,0.08,0.18,0.12,0.33,0.12c0.06,0,0.12-0.01,0.18-0.02
		c0.06-0.01,0.12-0.03,0.18-0.05l0.02,0.5c-0.07,0.03-0.15,0.05-0.24,0.06c-0.09,0.01-0.18,0.02-0.28,0.02
		c-0.29,0-0.51-0.08-0.67-0.24s-0.23-0.4-0.23-0.72v-1.67h-0.59v-0.5h0.59v-0.88h0.6v0.88h0.82V146.91z"/>
	<path class="st0" d="M66.08,146.88c0.07-0.15,0.2-0.28,0.38-0.39c0.18-0.11,0.38-0.16,0.6-0.16c0.2,0,0.37,0.03,0.51,0.1
		c0.14,0.07,0.26,0.16,0.36,0.27s0.17,0.24,0.21,0.4c0.05,0.15,0.07,0.31,0.07,0.49v1.91h-0.61v-1.71c0-0.13-0.01-0.25-0.03-0.36
		c-0.02-0.11-0.06-0.21-0.11-0.3c-0.05-0.09-0.12-0.16-0.21-0.21c-0.09-0.05-0.2-0.08-0.35-0.08c-0.24,0-0.44,0.09-0.6,0.28
		c-0.16,0.18-0.23,0.43-0.23,0.74v1.63h-0.61v-4.91h0.61v2.3H66.08z"/>
	<path class="st0" d="M71.95,147.92c0,0.03,0,0.07,0,0.1c0,0.04,0,0.07-0.01,0.1h-2.45c0,0.13,0.03,0.25,0.09,0.36
		c0.05,0.11,0.13,0.21,0.22,0.3c0.09,0.08,0.2,0.15,0.31,0.2c0.12,0.05,0.25,0.07,0.38,0.07c0.21,0,0.39-0.04,0.54-0.14
		c0.15-0.09,0.27-0.2,0.36-0.33l0.43,0.34c-0.16,0.22-0.36,0.38-0.58,0.48c-0.22,0.1-0.47,0.15-0.74,0.15
		c-0.23,0-0.45-0.04-0.65-0.12c-0.2-0.08-0.37-0.19-0.51-0.33c-0.14-0.14-0.26-0.31-0.34-0.51c-0.08-0.2-0.12-0.42-0.12-0.66
		c0-0.24,0.04-0.46,0.12-0.66c0.08-0.2,0.19-0.37,0.34-0.52c0.14-0.14,0.31-0.25,0.51-0.33s0.41-0.12,0.63-0.12s0.43,0.04,0.61,0.11
		s0.34,0.18,0.47,0.32c0.13,0.14,0.23,0.31,0.3,0.5S71.95,147.68,71.95,147.92z M71.33,147.68c0-0.12-0.03-0.23-0.06-0.34
		s-0.09-0.2-0.16-0.28s-0.16-0.14-0.27-0.18c-0.11-0.05-0.23-0.07-0.37-0.07c-0.13,0-0.25,0.02-0.37,0.07
		c-0.11,0.04-0.21,0.11-0.3,0.18s-0.15,0.17-0.21,0.28s-0.09,0.22-0.09,0.34H71.33z"/>
	<path class="st0" d="M75.6,146.91h-0.82v1.6c0,0.19,0.03,0.32,0.1,0.4c0.07,0.08,0.18,0.12,0.33,0.12c0.06,0,0.12-0.01,0.18-0.02
		c0.06-0.01,0.12-0.03,0.18-0.05l0.02,0.5c-0.07,0.03-0.15,0.05-0.24,0.06c-0.09,0.01-0.18,0.02-0.28,0.02
		c-0.29,0-0.51-0.08-0.67-0.24s-0.23-0.4-0.23-0.72v-1.67h-0.59v-0.5h0.59v-0.88h0.6v0.88h0.82V146.91z"/>
	<path class="st0" d="M76.06,146.76c0-0.13-0.01-0.25-0.02-0.34h0.58c0.01,0.08,0.02,0.17,0.02,0.27c0,0.1,0.01,0.19,0.01,0.25h0.02
		c0.09-0.18,0.21-0.33,0.38-0.44c0.17-0.11,0.35-0.17,0.56-0.17c0.1,0,0.18,0.01,0.24,0.03l-0.03,0.56
		c-0.09-0.02-0.18-0.03-0.28-0.03c-0.15,0-0.27,0.03-0.38,0.08c-0.11,0.05-0.2,0.13-0.27,0.22c-0.07,0.09-0.12,0.2-0.16,0.31
		c-0.04,0.12-0.05,0.24-0.05,0.37v1.62h-0.61v-2.42C76.07,146.99,76.06,146.89,76.06,146.76z"/>
	<path class="st0" d="M81.01,147.92c0,0.03,0,0.07,0,0.1c0,0.04,0,0.07-0.01,0.1h-2.45c0,0.13,0.03,0.25,0.09,0.36
		c0.05,0.11,0.13,0.21,0.22,0.3c0.09,0.08,0.2,0.15,0.31,0.2c0.12,0.05,0.25,0.07,0.38,0.07c0.21,0,0.39-0.04,0.54-0.14
		c0.15-0.09,0.27-0.2,0.36-0.33l0.43,0.34c-0.16,0.22-0.36,0.38-0.58,0.48c-0.22,0.1-0.47,0.15-0.74,0.15
		c-0.23,0-0.45-0.04-0.65-0.12c-0.2-0.08-0.37-0.19-0.51-0.33c-0.14-0.14-0.26-0.31-0.34-0.51c-0.08-0.2-0.12-0.42-0.12-0.66
		c0-0.24,0.04-0.46,0.12-0.66c0.08-0.2,0.19-0.37,0.34-0.52c0.14-0.14,0.31-0.25,0.51-0.33s0.41-0.12,0.63-0.12s0.43,0.04,0.61,0.11
		s0.34,0.18,0.47,0.32c0.13,0.14,0.23,0.31,0.3,0.5S81.01,147.68,81.01,147.92z M80.39,147.68c0-0.12-0.03-0.23-0.06-0.34
		s-0.09-0.2-0.16-0.28s-0.16-0.14-0.27-0.18c-0.11-0.05-0.23-0.07-0.37-0.07c-0.13,0-0.25,0.02-0.37,0.07
		c-0.11,0.04-0.21,0.11-0.3,0.18s-0.15,0.17-0.21,0.28s-0.09,0.22-0.09,0.34H80.39z"/>
	<path class="st0" d="M83.57,147.5c0-0.23-0.07-0.4-0.21-0.51c-0.14-0.11-0.32-0.17-0.55-0.17c-0.17,0-0.34,0.03-0.49,0.1
		c-0.15,0.07-0.28,0.15-0.39,0.26l-0.32-0.39c0.15-0.14,0.34-0.25,0.56-0.34c0.22-0.08,0.45-0.12,0.7-0.12
		c0.22,0,0.41,0.03,0.57,0.09c0.16,0.06,0.3,0.15,0.4,0.26c0.1,0.11,0.18,0.24,0.23,0.38c0.05,0.15,0.08,0.31,0.08,0.47v1.34
		c0,0.1,0,0.21,0.01,0.33c0.01,0.11,0.02,0.21,0.04,0.28h-0.55c-0.03-0.15-0.05-0.29-0.05-0.44h-0.02
		c-0.11,0.16-0.25,0.29-0.43,0.38s-0.37,0.14-0.61,0.14c-0.12,0-0.25-0.02-0.38-0.05s-0.25-0.09-0.36-0.16
		c-0.11-0.07-0.2-0.17-0.27-0.29s-0.11-0.27-0.11-0.45c0-0.23,0.06-0.42,0.19-0.55c0.13-0.14,0.29-0.24,0.49-0.31
		c0.2-0.07,0.43-0.12,0.69-0.14c0.26-0.02,0.51-0.03,0.77-0.03V147.5z M83.42,148.02c-0.15,0-0.31,0.01-0.47,0.02
		c-0.16,0.01-0.31,0.04-0.44,0.08c-0.13,0.04-0.24,0.1-0.33,0.18c-0.09,0.08-0.13,0.18-0.13,0.31c0,0.09,0.02,0.17,0.06,0.23
		c0.04,0.06,0.09,0.11,0.15,0.15c0.06,0.04,0.13,0.07,0.2,0.08c0.07,0.02,0.15,0.02,0.23,0.02c0.29,0,0.51-0.09,0.66-0.26
		s0.23-0.39,0.23-0.65v-0.16H83.42z"/>
	<path class="st0" d="M86.45,146.91h-0.82v1.6c0,0.19,0.03,0.32,0.1,0.4c0.07,0.08,0.18,0.12,0.33,0.12c0.06,0,0.12-0.01,0.18-0.02
		c0.06-0.01,0.12-0.03,0.18-0.05l0.02,0.5c-0.07,0.03-0.15,0.05-0.24,0.06c-0.09,0.01-0.18,0.02-0.28,0.02
		c-0.29,0-0.51-0.08-0.67-0.24s-0.23-0.4-0.23-0.72v-1.67h-0.59v-0.5h0.59v-0.88h0.6v0.88h0.82V146.91z"/>
	<path class="st0" d="M87.89,146.5c0.17-0.11,0.37-0.17,0.61-0.17c0.21,0,0.39,0.05,0.56,0.14c0.17,0.1,0.3,0.25,0.39,0.47
		c0.1-0.2,0.25-0.35,0.44-0.46c0.19-0.11,0.39-0.16,0.61-0.16c0.2,0,0.37,0.03,0.51,0.1c0.14,0.07,0.26,0.16,0.36,0.27
		s0.17,0.24,0.21,0.4c0.05,0.15,0.07,0.31,0.07,0.49v1.91h-0.61v-1.71c0-0.12-0.01-0.24-0.03-0.36c-0.02-0.11-0.06-0.21-0.11-0.3
		c-0.05-0.09-0.12-0.16-0.21-0.21s-0.2-0.08-0.33-0.08c-0.14,0-0.26,0.03-0.36,0.09s-0.18,0.13-0.24,0.23
		c-0.06,0.09-0.11,0.2-0.14,0.31c-0.03,0.12-0.04,0.24-0.04,0.36v1.66h-0.61v-1.83c0-0.12-0.01-0.23-0.03-0.33
		c-0.02-0.1-0.06-0.19-0.11-0.26c-0.05-0.07-0.12-0.13-0.2-0.17c-0.08-0.04-0.18-0.06-0.31-0.06c-0.23,0-0.41,0.09-0.56,0.28
		c-0.15,0.18-0.22,0.43-0.22,0.74v1.64h-0.61v-2.42c0-0.08,0-0.19-0.01-0.32s-0.01-0.25-0.02-0.34h0.58
		c0.01,0.08,0.02,0.17,0.02,0.26c0,0.1,0.01,0.18,0.01,0.24h0.02C87.6,146.75,87.72,146.61,87.89,146.5z"/>
	<path class="st0" d="M95.4,147.92c0,0.03,0,0.07,0,0.1c0,0.04,0,0.07-0.01,0.1h-2.45c0,0.13,0.03,0.25,0.09,0.36
		c0.05,0.11,0.13,0.21,0.22,0.3c0.09,0.08,0.2,0.15,0.31,0.2c0.12,0.05,0.25,0.07,0.38,0.07c0.21,0,0.39-0.04,0.54-0.14
		c0.15-0.09,0.27-0.2,0.36-0.33l0.43,0.34c-0.16,0.22-0.36,0.38-0.58,0.48c-0.22,0.1-0.47,0.15-0.74,0.15
		c-0.23,0-0.45-0.04-0.65-0.12c-0.2-0.08-0.37-0.19-0.51-0.33c-0.14-0.14-0.26-0.31-0.34-0.51c-0.08-0.2-0.12-0.42-0.12-0.66
		c0-0.24,0.04-0.46,0.12-0.66c0.08-0.2,0.19-0.37,0.34-0.52c0.14-0.14,0.31-0.25,0.51-0.33s0.41-0.12,0.63-0.12s0.43,0.04,0.61,0.11
		s0.34,0.18,0.47,0.32c0.13,0.14,0.23,0.31,0.3,0.5S95.4,147.68,95.4,147.92z M94.77,147.68c0-0.12-0.03-0.23-0.06-0.34
		s-0.09-0.2-0.16-0.28s-0.16-0.14-0.27-0.18c-0.11-0.05-0.23-0.07-0.37-0.07c-0.13,0-0.25,0.02-0.37,0.07
		c-0.11,0.04-0.21,0.11-0.3,0.18s-0.15,0.17-0.21,0.28s-0.09,0.22-0.09,0.34H94.77z"/>
	<path class="st0" d="M96.63,146.41c0.01,0.08,0.02,0.17,0.02,0.26c0,0.1,0.01,0.18,0.01,0.24h0.02c0.04-0.08,0.09-0.16,0.16-0.23
		c0.07-0.07,0.14-0.13,0.23-0.19c0.09-0.05,0.18-0.1,0.29-0.13c0.1-0.03,0.21-0.04,0.32-0.04c0.2,0,0.37,0.03,0.51,0.1
		s0.26,0.16,0.36,0.27s0.17,0.24,0.21,0.4c0.05,0.15,0.07,0.31,0.07,0.49v1.91h-0.61v-1.71c0-0.12-0.01-0.24-0.03-0.36
		c-0.02-0.11-0.06-0.21-0.11-0.3c-0.05-0.09-0.12-0.16-0.21-0.21s-0.21-0.08-0.35-0.08c-0.24,0-0.44,0.09-0.59,0.28
		c-0.15,0.18-0.23,0.43-0.23,0.74v1.64h-0.61v-2.42c0-0.08,0-0.19-0.01-0.32s-0.01-0.25-0.02-0.34H96.63z"/>
	<path class="st0" d="M101.2,146.91h-0.82v1.6c0,0.19,0.03,0.32,0.1,0.4c0.07,0.08,0.18,0.12,0.33,0.12c0.06,0,0.12-0.01,0.18-0.02
		c0.06-0.01,0.12-0.03,0.18-0.05l0.02,0.5c-0.07,0.03-0.15,0.05-0.24,0.06c-0.09,0.01-0.18,0.02-0.28,0.02
		c-0.29,0-0.51-0.08-0.67-0.24s-0.23-0.4-0.23-0.72v-1.67h-0.59v-0.5h0.59v-0.88h0.6v0.88h0.82V146.91z"/>
	<path class="st0" d="M105.58,149c-0.12,0.19-0.28,0.33-0.48,0.43c-0.2,0.1-0.41,0.15-0.63,0.15c-0.24,0-0.45-0.04-0.64-0.13
		c-0.19-0.08-0.35-0.2-0.49-0.35s-0.24-0.32-0.31-0.52c-0.07-0.2-0.11-0.41-0.11-0.64c0-0.23,0.04-0.44,0.11-0.63
		c0.07-0.2,0.18-0.37,0.31-0.52c0.14-0.15,0.3-0.26,0.49-0.34c0.19-0.08,0.4-0.12,0.63-0.12c0.25,0,0.47,0.05,0.66,0.16
		c0.19,0.11,0.33,0.23,0.44,0.39h0.01v-2.29h0.61v4.91h-0.59V149H105.58z M103.56,147.95c0,0.14,0.02,0.28,0.06,0.41
		c0.04,0.13,0.11,0.25,0.19,0.36c0.09,0.1,0.19,0.19,0.32,0.25s0.27,0.09,0.44,0.09c0.16,0,0.3-0.03,0.43-0.09
		c0.13-0.06,0.24-0.14,0.33-0.24s0.16-0.22,0.21-0.35c0.05-0.13,0.07-0.27,0.07-0.42c0-0.15-0.02-0.29-0.07-0.42
		s-0.12-0.25-0.21-0.36s-0.2-0.19-0.33-0.25c-0.13-0.06-0.27-0.09-0.43-0.09c-0.17,0-0.32,0.03-0.44,0.09s-0.23,0.14-0.32,0.25
		c-0.09,0.1-0.15,0.22-0.19,0.36C103.58,147.67,103.56,147.8,103.56,147.95z"/>
	<path class="st0" d="M110.21,147.94c0,0.24-0.04,0.46-0.13,0.66s-0.2,0.37-0.35,0.52c-0.15,0.14-0.33,0.26-0.53,0.34
		s-0.42,0.12-0.66,0.12s-0.45-0.04-0.66-0.12c-0.2-0.08-0.38-0.19-0.53-0.34c-0.15-0.15-0.26-0.32-0.35-0.52s-0.13-0.42-0.13-0.66
		c0-0.24,0.04-0.46,0.13-0.65c0.08-0.2,0.2-0.37,0.35-0.51c0.15-0.14,0.32-0.25,0.53-0.33c0.2-0.08,0.42-0.12,0.66-0.12
		s0.45,0.04,0.66,0.12s0.38,0.19,0.53,0.33c0.15,0.14,0.27,0.31,0.35,0.51C110.16,147.49,110.21,147.71,110.21,147.94z
		 M109.57,147.95c0-0.15-0.02-0.29-0.07-0.42c-0.05-0.13-0.11-0.25-0.2-0.35s-0.19-0.18-0.32-0.24c-0.13-0.06-0.27-0.09-0.44-0.09
		s-0.31,0.03-0.44,0.09c-0.13,0.06-0.24,0.14-0.32,0.24c-0.09,0.1-0.15,0.22-0.2,0.35c-0.05,0.13-0.07,0.27-0.07,0.42
		s0.02,0.29,0.07,0.42c0.05,0.13,0.11,0.25,0.2,0.36c0.09,0.1,0.19,0.19,0.32,0.25c0.13,0.06,0.27,0.09,0.44,0.09
		s0.31-0.03,0.44-0.09c0.13-0.06,0.24-0.14,0.32-0.25c0.09-0.1,0.15-0.22,0.2-0.36C109.55,148.23,109.57,148.09,109.57,147.95z"/>
	<path class="st0" d="M113.04,147.19c-0.06-0.1-0.16-0.18-0.29-0.25c-0.13-0.07-0.27-0.1-0.42-0.1c-0.16,0-0.3,0.03-0.43,0.09
		c-0.12,0.06-0.23,0.14-0.31,0.24c-0.09,0.1-0.15,0.22-0.2,0.35s-0.07,0.28-0.07,0.42c0,0.15,0.02,0.29,0.07,0.42
		c0.05,0.13,0.11,0.25,0.2,0.35c0.09,0.1,0.19,0.18,0.32,0.24s0.27,0.09,0.43,0.09c0.16,0,0.3-0.03,0.43-0.09
		c0.13-0.06,0.23-0.14,0.31-0.25l0.41,0.37c-0.13,0.15-0.29,0.27-0.49,0.35c-0.19,0.08-0.42,0.13-0.66,0.13
		c-0.24,0-0.46-0.04-0.66-0.12s-0.38-0.19-0.52-0.33c-0.15-0.14-0.26-0.31-0.35-0.51s-0.13-0.42-0.13-0.67
		c0-0.24,0.04-0.46,0.12-0.66c0.08-0.2,0.2-0.37,0.34-0.51c0.15-0.14,0.32-0.25,0.52-0.33c0.2-0.08,0.42-0.12,0.65-0.12
		c0.22,0,0.43,0.04,0.65,0.13c0.21,0.09,0.38,0.21,0.51,0.38L113.04,147.19z"/>
	<path class="st0" d="M115.44,146.91h-0.82v1.6c0,0.19,0.03,0.32,0.1,0.4c0.07,0.08,0.18,0.12,0.33,0.12c0.06,0,0.12-0.01,0.18-0.02
		c0.06-0.01,0.12-0.03,0.18-0.05l0.02,0.5c-0.07,0.03-0.15,0.05-0.24,0.06c-0.09,0.01-0.18,0.02-0.28,0.02
		c-0.29,0-0.51-0.08-0.67-0.24s-0.23-0.4-0.23-0.72v-1.67h-0.59v-0.5h0.59v-0.88h0.6v0.88h0.82V146.91z"/>
	<path class="st0" d="M119.02,147.94c0,0.24-0.04,0.46-0.13,0.66s-0.2,0.37-0.35,0.52c-0.15,0.14-0.33,0.26-0.53,0.34
		s-0.42,0.12-0.66,0.12s-0.45-0.04-0.66-0.12c-0.2-0.08-0.38-0.19-0.53-0.34c-0.15-0.15-0.26-0.32-0.35-0.52s-0.13-0.42-0.13-0.66
		c0-0.24,0.04-0.46,0.13-0.65c0.08-0.2,0.2-0.37,0.35-0.51c0.15-0.14,0.32-0.25,0.53-0.33c0.2-0.08,0.42-0.12,0.66-0.12
		s0.45,0.04,0.66,0.12s0.38,0.19,0.53,0.33c0.15,0.14,0.27,0.31,0.35,0.51C118.98,147.49,119.02,147.71,119.02,147.94z
		 M118.39,147.95c0-0.15-0.02-0.29-0.07-0.42c-0.05-0.13-0.11-0.25-0.2-0.35s-0.19-0.18-0.32-0.24c-0.13-0.06-0.27-0.09-0.44-0.09
		s-0.31,0.03-0.44,0.09c-0.13,0.06-0.24,0.14-0.32,0.24c-0.09,0.1-0.15,0.22-0.2,0.35c-0.05,0.13-0.07,0.27-0.07,0.42
		s0.02,0.29,0.07,0.42c0.05,0.13,0.11,0.25,0.2,0.36c0.09,0.1,0.19,0.19,0.32,0.25c0.13,0.06,0.27,0.09,0.44,0.09
		s0.31-0.03,0.44-0.09c0.13-0.06,0.24-0.14,0.32-0.25c0.09-0.1,0.15-0.22,0.2-0.36C118.36,148.23,118.39,148.09,118.39,147.95z"/>
	<path class="st0" d="M119.7,146.76c0-0.13-0.01-0.25-0.02-0.34h0.58c0.01,0.08,0.02,0.17,0.02,0.27c0,0.1,0.01,0.19,0.01,0.25h0.02
		c0.09-0.18,0.21-0.33,0.38-0.44c0.17-0.11,0.35-0.17,0.56-0.17c0.1,0,0.18,0.01,0.24,0.03l-0.03,0.56
		c-0.09-0.02-0.18-0.03-0.28-0.03c-0.15,0-0.27,0.03-0.38,0.08c-0.11,0.05-0.2,0.13-0.27,0.22c-0.07,0.09-0.12,0.2-0.16,0.31
		c-0.04,0.12-0.05,0.24-0.05,0.37v1.62h-0.61v-2.42C119.71,146.99,119.7,146.89,119.7,146.76z"/>
	<path class="st0" d="M123.56,147.19c-0.07-0.11-0.17-0.2-0.29-0.28s-0.27-0.11-0.42-0.11c-0.07,0-0.14,0.01-0.21,0.02
		c-0.07,0.02-0.13,0.04-0.19,0.07c-0.05,0.03-0.1,0.07-0.13,0.12c-0.03,0.05-0.05,0.11-0.05,0.18c0,0.13,0.06,0.23,0.18,0.29
		c0.12,0.06,0.29,0.12,0.53,0.17c0.15,0.04,0.28,0.08,0.41,0.12c0.13,0.05,0.23,0.11,0.33,0.18c0.09,0.07,0.17,0.16,0.22,0.26
		c0.05,0.1,0.08,0.22,0.08,0.35c0,0.18-0.03,0.34-0.1,0.46c-0.07,0.13-0.16,0.23-0.28,0.31s-0.25,0.14-0.39,0.17
		c-0.15,0.04-0.3,0.05-0.45,0.05c-0.23,0-0.46-0.04-0.69-0.14c-0.22-0.09-0.41-0.23-0.56-0.42l0.44-0.37
		c0.08,0.12,0.2,0.22,0.34,0.31s0.3,0.12,0.48,0.12c0.08,0,0.15-0.01,0.22-0.02c0.07-0.02,0.14-0.04,0.19-0.08
		c0.06-0.03,0.1-0.08,0.14-0.14c0.03-0.06,0.05-0.13,0.05-0.21c0-0.14-0.07-0.25-0.2-0.32c-0.14-0.07-0.34-0.13-0.6-0.2
		c-0.1-0.03-0.21-0.06-0.31-0.09c-0.11-0.04-0.2-0.09-0.29-0.15c-0.09-0.06-0.16-0.15-0.21-0.24s-0.08-0.22-0.08-0.36
		c0-0.16,0.03-0.31,0.1-0.42c0.07-0.12,0.15-0.22,0.26-0.29c0.11-0.08,0.23-0.13,0.37-0.17c0.14-0.04,0.28-0.05,0.43-0.05
		c0.22,0,0.43,0.04,0.64,0.13s0.36,0.21,0.48,0.38L123.56,147.19z"/>
	<path class="st0" d="M128.24,149.49c-0.01-0.08-0.02-0.17-0.02-0.26c0-0.1-0.01-0.18-0.01-0.24h-0.01
		c-0.08,0.17-0.21,0.3-0.39,0.42c-0.18,0.12-0.39,0.17-0.61,0.17c-0.2,0-0.37-0.03-0.52-0.1c-0.15-0.07-0.26-0.16-0.36-0.27
		c-0.09-0.12-0.16-0.25-0.21-0.4c-0.05-0.15-0.07-0.31-0.07-0.49v-1.91h0.61v1.7c0,0.13,0.01,0.25,0.03,0.36
		c0.02,0.12,0.06,0.22,0.11,0.3c0.05,0.09,0.12,0.16,0.21,0.21c0.09,0.05,0.21,0.08,0.35,0.08c0.25,0,0.45-0.09,0.6-0.28
		c0.15-0.18,0.23-0.43,0.23-0.74v-1.64h0.61v2.42c0,0.08,0,0.19,0.01,0.32s0.01,0.24,0.02,0.34H128.24z"/>
	<path class="st0" d="M131.35,147.19c-0.07-0.11-0.17-0.2-0.29-0.28s-0.27-0.11-0.42-0.11c-0.07,0-0.14,0.01-0.21,0.02
		c-0.07,0.02-0.13,0.04-0.19,0.07c-0.05,0.03-0.1,0.07-0.13,0.12c-0.03,0.05-0.05,0.11-0.05,0.18c0,0.13,0.06,0.23,0.18,0.29
		c0.12,0.06,0.29,0.12,0.53,0.17c0.15,0.04,0.28,0.08,0.41,0.12c0.13,0.05,0.23,0.11,0.33,0.18c0.09,0.07,0.17,0.16,0.22,0.26
		c0.05,0.1,0.08,0.22,0.08,0.35c0,0.18-0.03,0.34-0.1,0.46c-0.07,0.13-0.16,0.23-0.28,0.31s-0.25,0.14-0.39,0.17
		c-0.15,0.04-0.3,0.05-0.45,0.05c-0.23,0-0.46-0.04-0.69-0.14c-0.22-0.09-0.41-0.23-0.56-0.42l0.44-0.37
		c0.08,0.12,0.2,0.22,0.34,0.31s0.3,0.12,0.48,0.12c0.08,0,0.15-0.01,0.22-0.02c0.07-0.02,0.14-0.04,0.19-0.08
		c0.06-0.03,0.1-0.08,0.14-0.14c0.03-0.06,0.05-0.13,0.05-0.21c0-0.14-0.07-0.25-0.2-0.32c-0.14-0.07-0.34-0.13-0.6-0.2
		c-0.1-0.03-0.21-0.06-0.31-0.09c-0.11-0.04-0.2-0.09-0.29-0.15c-0.09-0.06-0.16-0.15-0.21-0.24s-0.08-0.22-0.08-0.36
		c0-0.16,0.03-0.31,0.1-0.42c0.07-0.12,0.15-0.22,0.26-0.29c0.11-0.08,0.23-0.13,0.37-0.17c0.14-0.04,0.28-0.05,0.43-0.05
		c0.22,0,0.43,0.04,0.64,0.13s0.36,0.21,0.48,0.38L131.35,147.19z"/>
	<path class="st0" d="M135.29,147.92c0,0.03,0,0.07,0,0.1c0,0.04,0,0.07-0.01,0.1h-2.45c0,0.13,0.03,0.25,0.09,0.36
		c0.05,0.11,0.13,0.21,0.22,0.3c0.09,0.08,0.2,0.15,0.31,0.2c0.12,0.05,0.25,0.07,0.38,0.07c0.21,0,0.39-0.04,0.54-0.14
		c0.15-0.09,0.27-0.2,0.36-0.33l0.43,0.34c-0.16,0.22-0.36,0.38-0.58,0.48c-0.22,0.1-0.47,0.15-0.74,0.15
		c-0.23,0-0.45-0.04-0.65-0.12c-0.2-0.08-0.37-0.19-0.51-0.33c-0.14-0.14-0.26-0.31-0.34-0.51c-0.08-0.2-0.12-0.42-0.12-0.66
		c0-0.24,0.04-0.46,0.12-0.66c0.08-0.2,0.19-0.37,0.34-0.52c0.14-0.14,0.31-0.25,0.51-0.33s0.41-0.12,0.63-0.12s0.43,0.04,0.61,0.11
		s0.34,0.18,0.47,0.32c0.13,0.14,0.23,0.31,0.3,0.5S135.29,147.68,135.29,147.92z M134.67,147.68c0-0.12-0.03-0.23-0.06-0.34
		s-0.09-0.2-0.16-0.28s-0.16-0.14-0.27-0.18c-0.11-0.05-0.23-0.07-0.37-0.07c-0.13,0-0.25,0.02-0.37,0.07
		c-0.11,0.04-0.21,0.11-0.3,0.18s-0.15,0.17-0.21,0.28s-0.09,0.22-0.09,0.34H134.67z"/>
	<path class="st0" d="M138.4,146.5c0.17-0.11,0.37-0.17,0.61-0.17c0.21,0,0.39,0.05,0.56,0.14c0.17,0.1,0.3,0.25,0.39,0.47
		c0.1-0.2,0.25-0.35,0.44-0.46c0.19-0.11,0.39-0.16,0.61-0.16c0.2,0,0.37,0.03,0.51,0.1c0.14,0.07,0.26,0.16,0.36,0.27
		s0.17,0.24,0.21,0.4c0.05,0.15,0.07,0.31,0.07,0.49v1.91h-0.61v-1.71c0-0.12-0.01-0.24-0.03-0.36c-0.02-0.11-0.06-0.21-0.11-0.3
		c-0.05-0.09-0.12-0.16-0.21-0.21s-0.2-0.08-0.33-0.08c-0.14,0-0.26,0.03-0.36,0.09s-0.18,0.13-0.24,0.23
		c-0.06,0.09-0.11,0.2-0.14,0.31c-0.03,0.12-0.04,0.24-0.04,0.36v1.66h-0.61v-1.83c0-0.12-0.01-0.23-0.03-0.33
		c-0.02-0.1-0.06-0.19-0.11-0.26c-0.05-0.07-0.12-0.13-0.2-0.17c-0.08-0.04-0.18-0.06-0.31-0.06c-0.23,0-0.41,0.09-0.56,0.28
		c-0.15,0.18-0.22,0.43-0.22,0.74v1.64h-0.61v-2.42c0-0.08,0-0.19-0.01-0.32s-0.01-0.25-0.02-0.34h0.58
		c0.01,0.08,0.02,0.17,0.02,0.26c0,0.1,0.01,0.18,0.01,0.24h0.02C138.11,146.75,138.23,146.61,138.4,146.5z"/>
	<path class="st0" d="M146.15,147.94c0,0.24-0.04,0.46-0.13,0.66s-0.2,0.37-0.35,0.52c-0.15,0.14-0.33,0.26-0.53,0.34
		s-0.42,0.12-0.66,0.12s-0.45-0.04-0.66-0.12c-0.2-0.08-0.38-0.19-0.53-0.34c-0.15-0.15-0.26-0.32-0.35-0.52s-0.13-0.42-0.13-0.66
		c0-0.24,0.04-0.46,0.13-0.65c0.08-0.2,0.2-0.37,0.35-0.51c0.15-0.14,0.32-0.25,0.53-0.33c0.2-0.08,0.42-0.12,0.66-0.12
		s0.45,0.04,0.66,0.12s0.38,0.19,0.53,0.33c0.15,0.14,0.27,0.31,0.35,0.51C146.1,147.49,146.15,147.71,146.15,147.94z
		 M145.51,147.95c0-0.15-0.02-0.29-0.07-0.42c-0.05-0.13-0.11-0.25-0.2-0.35s-0.19-0.18-0.32-0.24c-0.13-0.06-0.27-0.09-0.44-0.09
		s-0.31,0.03-0.44,0.09c-0.13,0.06-0.24,0.14-0.32,0.24c-0.09,0.1-0.15,0.22-0.2,0.35c-0.05,0.13-0.07,0.27-0.07,0.42
		s0.02,0.29,0.07,0.42c0.05,0.13,0.11,0.25,0.2,0.36c0.09,0.1,0.19,0.19,0.32,0.25c0.13,0.06,0.27,0.09,0.44,0.09
		s0.31-0.03,0.44-0.09c0.13-0.06,0.24-0.14,0.32-0.25c0.09-0.1,0.15-0.22,0.2-0.36C145.49,148.23,145.51,148.09,145.51,147.95z"/>
	<path class="st0" d="M148.49,147.19c-0.07-0.11-0.17-0.2-0.29-0.28s-0.27-0.11-0.42-0.11c-0.07,0-0.14,0.01-0.21,0.02
		c-0.07,0.02-0.13,0.04-0.19,0.07c-0.05,0.03-0.1,0.07-0.13,0.12c-0.03,0.05-0.05,0.11-0.05,0.18c0,0.13,0.06,0.23,0.18,0.29
		c0.12,0.06,0.29,0.12,0.53,0.17c0.15,0.04,0.28,0.08,0.41,0.12c0.13,0.05,0.23,0.11,0.33,0.18c0.09,0.07,0.17,0.16,0.22,0.26
		c0.05,0.1,0.08,0.22,0.08,0.35c0,0.18-0.03,0.34-0.1,0.46c-0.07,0.13-0.16,0.23-0.28,0.31s-0.25,0.14-0.39,0.17
		c-0.15,0.04-0.3,0.05-0.45,0.05c-0.23,0-0.46-0.04-0.69-0.14c-0.22-0.09-0.41-0.23-0.56-0.42l0.44-0.37
		c0.08,0.12,0.2,0.22,0.34,0.31s0.3,0.12,0.48,0.12c0.08,0,0.15-0.01,0.22-0.02c0.07-0.02,0.14-0.04,0.19-0.08
		c0.06-0.03,0.1-0.08,0.14-0.14c0.03-0.06,0.05-0.13,0.05-0.21c0-0.14-0.07-0.25-0.2-0.32c-0.14-0.07-0.34-0.13-0.6-0.2
		c-0.1-0.03-0.21-0.06-0.31-0.09c-0.11-0.04-0.2-0.09-0.29-0.15c-0.09-0.06-0.16-0.15-0.21-0.24s-0.08-0.22-0.08-0.36
		c0-0.16,0.03-0.31,0.1-0.42c0.07-0.12,0.15-0.22,0.26-0.29c0.11-0.08,0.23-0.13,0.37-0.17c0.14-0.04,0.28-0.05,0.43-0.05
		c0.22,0,0.43,0.04,0.64,0.13s0.36,0.21,0.48,0.38L148.49,147.19z"/>
	<path class="st0" d="M151.05,146.91h-0.82v1.6c0,0.19,0.03,0.32,0.1,0.4c0.07,0.08,0.18,0.12,0.33,0.12c0.06,0,0.12-0.01,0.18-0.02
		c0.06-0.01,0.12-0.03,0.18-0.05l0.02,0.5c-0.07,0.03-0.15,0.05-0.24,0.06c-0.09,0.01-0.18,0.02-0.28,0.02
		c-0.29,0-0.51-0.08-0.67-0.24s-0.23-0.4-0.23-0.72v-1.67h-0.59v-0.5h0.59v-0.88h0.6v0.88h0.82V146.91z"/>
	<path class="st0" d="M14.26,154.9h-0.71v2.58h-0.61v-2.58h-0.61v-0.5h0.61v-0.64c0-0.18,0.02-0.35,0.06-0.5s0.11-0.29,0.2-0.4
		c0.09-0.11,0.21-0.2,0.36-0.27c0.15-0.06,0.32-0.1,0.53-0.1c0.15,0,0.27,0.01,0.38,0.04l-0.07,0.53c-0.05-0.01-0.1-0.02-0.14-0.03
		c-0.05-0.01-0.1-0.01-0.16-0.01c-0.12,0-0.21,0.02-0.28,0.06c-0.07,0.04-0.13,0.1-0.17,0.17c-0.04,0.07-0.06,0.15-0.08,0.24
		c-0.01,0.09-0.02,0.18-0.02,0.28v0.64h0.71V154.9z"/>
	<path class="st0" d="M17.78,155.94c0,0.24-0.04,0.46-0.13,0.66s-0.2,0.37-0.35,0.52c-0.15,0.14-0.33,0.26-0.53,0.34
		s-0.42,0.12-0.66,0.12s-0.45-0.04-0.66-0.12c-0.2-0.08-0.38-0.19-0.53-0.34c-0.15-0.15-0.26-0.32-0.35-0.52s-0.13-0.42-0.13-0.66
		c0-0.24,0.04-0.46,0.13-0.65c0.08-0.2,0.2-0.37,0.35-0.51c0.15-0.14,0.32-0.25,0.53-0.33c0.2-0.08,0.42-0.12,0.66-0.12
		s0.45,0.04,0.66,0.12s0.38,0.19,0.53,0.33c0.15,0.14,0.27,0.31,0.35,0.51C17.74,155.48,17.78,155.7,17.78,155.94z M17.15,155.94
		c0-0.15-0.02-0.29-0.07-0.42c-0.05-0.13-0.11-0.25-0.2-0.35s-0.19-0.18-0.32-0.24c-0.13-0.06-0.27-0.09-0.44-0.09
		s-0.31,0.03-0.44,0.09c-0.13,0.06-0.24,0.14-0.32,0.24c-0.09,0.1-0.15,0.22-0.2,0.35c-0.05,0.13-0.07,0.27-0.07,0.42
		s0.02,0.29,0.07,0.42c0.05,0.13,0.11,0.25,0.2,0.36c0.09,0.1,0.19,0.19,0.32,0.25c0.13,0.06,0.27,0.09,0.44,0.09
		s0.31-0.03,0.44-0.09c0.13-0.06,0.24-0.14,0.32-0.25c0.09-0.1,0.15-0.22,0.2-0.36C17.12,156.23,17.15,156.08,17.15,155.94z"/>
	<path class="st0" d="M18.46,154.75c0-0.13-0.01-0.25-0.02-0.34h0.58c0.01,0.08,0.02,0.17,0.02,0.27c0,0.1,0.01,0.19,0.01,0.25h0.02
		c0.09-0.18,0.21-0.33,0.38-0.44c0.17-0.11,0.35-0.17,0.56-0.17c0.1,0,0.18,0.01,0.24,0.03l-0.03,0.56
		c-0.09-0.02-0.18-0.03-0.28-0.03c-0.15,0-0.27,0.03-0.38,0.08c-0.11,0.05-0.2,0.13-0.27,0.22c-0.07,0.09-0.12,0.2-0.16,0.31
		c-0.04,0.12-0.05,0.24-0.05,0.37v1.62h-0.61v-2.42C18.46,154.98,18.46,154.88,18.46,154.75z"/>
	<path class="st0" d="M22.67,154.4c0.01,0.08,0.02,0.17,0.02,0.26c0,0.1,0.01,0.18,0.01,0.24h0.02c0.04-0.08,0.09-0.16,0.16-0.23
		c0.07-0.07,0.14-0.13,0.23-0.19c0.09-0.05,0.18-0.1,0.29-0.13c0.1-0.03,0.21-0.04,0.32-0.04c0.2,0,0.37,0.03,0.51,0.1
		s0.26,0.16,0.36,0.27s0.17,0.24,0.21,0.4c0.05,0.15,0.07,0.31,0.07,0.49v1.91h-0.61v-1.71c0-0.12-0.01-0.24-0.03-0.36
		c-0.02-0.11-0.06-0.21-0.11-0.3c-0.05-0.09-0.12-0.16-0.21-0.21s-0.21-0.08-0.35-0.08c-0.24,0-0.44,0.09-0.59,0.28
		c-0.15,0.18-0.23,0.43-0.23,0.74v1.64h-0.61v-2.42c0-0.08,0-0.19-0.01-0.32s-0.01-0.25-0.02-0.34H22.67z"/>
	<path class="st0" d="M28.85,155.94c0,0.24-0.04,0.46-0.13,0.66s-0.2,0.37-0.35,0.52c-0.15,0.14-0.33,0.26-0.53,0.34
		s-0.42,0.12-0.66,0.12s-0.45-0.04-0.66-0.12c-0.2-0.08-0.38-0.19-0.53-0.34c-0.15-0.15-0.26-0.32-0.35-0.52s-0.13-0.42-0.13-0.66
		c0-0.24,0.04-0.46,0.13-0.65c0.08-0.2,0.2-0.37,0.35-0.51c0.15-0.14,0.32-0.25,0.53-0.33c0.2-0.08,0.42-0.12,0.66-0.12
		s0.45,0.04,0.66,0.12s0.38,0.19,0.53,0.33c0.15,0.14,0.27,0.31,0.35,0.51C28.81,155.48,28.85,155.7,28.85,155.94z M28.21,155.94
		c0-0.15-0.02-0.29-0.07-0.42c-0.05-0.13-0.11-0.25-0.2-0.35s-0.19-0.18-0.32-0.24c-0.13-0.06-0.27-0.09-0.44-0.09
		s-0.31,0.03-0.44,0.09c-0.13,0.06-0.24,0.14-0.32,0.24c-0.09,0.1-0.15,0.22-0.2,0.35c-0.05,0.13-0.07,0.27-0.07,0.42
		s0.02,0.29,0.07,0.42c0.05,0.13,0.11,0.25,0.2,0.36c0.09,0.1,0.19,0.19,0.32,0.25c0.13,0.06,0.27,0.09,0.44,0.09
		s0.31-0.03,0.44-0.09c0.13-0.06,0.24-0.14,0.32-0.25c0.09-0.1,0.15-0.22,0.2-0.36C28.19,156.23,28.21,156.08,28.21,155.94z"/>
	<path class="st0" d="M30.08,154.4c0.01,0.08,0.02,0.17,0.02,0.26c0,0.1,0.01,0.18,0.01,0.24h0.02c0.04-0.08,0.09-0.16,0.16-0.23
		c0.07-0.07,0.14-0.13,0.23-0.19c0.09-0.05,0.18-0.1,0.29-0.13c0.1-0.03,0.21-0.04,0.32-0.04c0.2,0,0.37,0.03,0.51,0.1
		s0.26,0.16,0.36,0.27s0.17,0.24,0.21,0.4c0.05,0.15,0.07,0.31,0.07,0.49v1.91h-0.61v-1.71c0-0.12-0.01-0.24-0.03-0.36
		c-0.02-0.11-0.06-0.21-0.11-0.3c-0.05-0.09-0.12-0.16-0.21-0.21s-0.21-0.08-0.35-0.08c-0.24,0-0.44,0.09-0.59,0.28
		c-0.15,0.18-0.23,0.43-0.23,0.74v1.64h-0.61v-2.42c0-0.08,0-0.19-0.01-0.32s-0.01-0.25-0.02-0.34H30.08z"/>
	<path class="st0" d="M34.81,155.18c-0.07-0.11-0.17-0.2-0.29-0.28s-0.27-0.11-0.42-0.11c-0.07,0-0.14,0.01-0.21,0.02
		c-0.07,0.02-0.13,0.04-0.19,0.07c-0.05,0.03-0.1,0.07-0.13,0.12c-0.03,0.05-0.05,0.11-0.05,0.18c0,0.13,0.06,0.23,0.18,0.29
		c0.12,0.06,0.29,0.12,0.53,0.17c0.15,0.04,0.28,0.08,0.41,0.12c0.13,0.05,0.23,0.11,0.33,0.18c0.09,0.07,0.17,0.16,0.22,0.26
		c0.05,0.1,0.08,0.22,0.08,0.35c0,0.18-0.03,0.34-0.1,0.46c-0.07,0.13-0.16,0.23-0.28,0.31s-0.25,0.14-0.39,0.17
		c-0.15,0.04-0.3,0.05-0.45,0.05c-0.23,0-0.46-0.04-0.69-0.14c-0.22-0.09-0.41-0.23-0.56-0.42l0.44-0.37
		c0.08,0.12,0.2,0.22,0.34,0.31s0.3,0.12,0.48,0.12c0.08,0,0.15-0.01,0.22-0.02c0.07-0.02,0.14-0.04,0.19-0.08
		c0.06-0.03,0.1-0.08,0.14-0.14c0.03-0.06,0.05-0.13,0.05-0.21c0-0.14-0.07-0.25-0.2-0.32c-0.14-0.07-0.34-0.13-0.6-0.2
		c-0.1-0.03-0.21-0.06-0.31-0.09c-0.11-0.04-0.2-0.09-0.29-0.15c-0.09-0.06-0.16-0.15-0.21-0.24s-0.08-0.22-0.08-0.36
		c0-0.16,0.03-0.31,0.1-0.42c0.07-0.12,0.15-0.22,0.26-0.29c0.11-0.08,0.23-0.13,0.37-0.17c0.14-0.04,0.28-0.05,0.43-0.05
		c0.22,0,0.43,0.04,0.64,0.13s0.36,0.21,0.48,0.38L34.81,155.18z"/>
	<path class="st0" d="M38.03,157.48c-0.01-0.08-0.02-0.17-0.02-0.26c0-0.1-0.01-0.18-0.01-0.24H38c-0.08,0.17-0.21,0.3-0.39,0.42
		c-0.18,0.12-0.39,0.17-0.61,0.17c-0.2,0-0.37-0.03-0.52-0.1c-0.15-0.07-0.26-0.16-0.36-0.27c-0.09-0.12-0.16-0.25-0.21-0.4
		c-0.05-0.15-0.07-0.31-0.07-0.49v-1.91h0.61v1.7c0,0.13,0.01,0.25,0.03,0.36c0.02,0.12,0.06,0.22,0.11,0.3
		c0.05,0.09,0.12,0.16,0.21,0.21c0.09,0.05,0.21,0.08,0.35,0.08c0.25,0,0.45-0.09,0.6-0.28c0.15-0.18,0.23-0.43,0.23-0.74v-1.64
		h0.61v2.42c0,0.08,0,0.19,0.01,0.32s0.01,0.24,0.02,0.34H38.03z"/>
	<path class="st0" d="M39.48,154.75c0-0.13-0.01-0.25-0.02-0.34h0.58c0.01,0.08,0.02,0.17,0.02,0.27c0,0.1,0.01,0.19,0.01,0.25h0.02
		c0.09-0.18,0.21-0.33,0.38-0.44c0.17-0.11,0.35-0.17,0.56-0.17c0.1,0,0.18,0.01,0.24,0.03l-0.03,0.56
		c-0.09-0.02-0.18-0.03-0.28-0.03c-0.15,0-0.27,0.03-0.38,0.08c-0.11,0.05-0.2,0.13-0.27,0.22c-0.07,0.09-0.12,0.2-0.16,0.31
		c-0.04,0.12-0.05,0.24-0.05,0.37v1.62h-0.61v-2.42C39.48,154.98,39.48,154.88,39.48,154.75z"/>
	<path class="st0" d="M41.79,158.01c0.13,0.15,0.3,0.27,0.5,0.36s0.41,0.14,0.62,0.14c0.2,0,0.37-0.03,0.51-0.09
		s0.25-0.14,0.33-0.24s0.15-0.22,0.18-0.36c0.04-0.14,0.06-0.29,0.06-0.45v-0.4h-0.01c-0.11,0.17-0.27,0.31-0.46,0.4
		s-0.4,0.14-0.62,0.14c-0.23,0-0.45-0.04-0.64-0.12c-0.19-0.08-0.36-0.19-0.49-0.34c-0.13-0.14-0.24-0.31-0.31-0.5
		c-0.07-0.19-0.11-0.4-0.11-0.62s0.04-0.43,0.11-0.62c0.07-0.2,0.18-0.36,0.31-0.51c0.13-0.14,0.3-0.26,0.49-0.34
		c0.19-0.08,0.4-0.13,0.64-0.13c0.22,0,0.43,0.05,0.63,0.14c0.2,0.1,0.36,0.24,0.48,0.44h0.01v-0.49h0.59v2.92
		c0,0.23-0.03,0.44-0.08,0.65c-0.06,0.21-0.15,0.39-0.29,0.55c-0.13,0.16-0.31,0.28-0.53,0.38c-0.22,0.1-0.48,0.14-0.81,0.14
		c-0.27,0-0.54-0.05-0.81-0.15s-0.5-0.23-0.7-0.41L41.79,158.01z M41.98,155.91c0,0.14,0.02,0.28,0.07,0.41
		c0.05,0.13,0.11,0.24,0.2,0.34s0.2,0.18,0.32,0.24s0.27,0.09,0.43,0.09c0.16,0,0.3-0.03,0.43-0.08c0.13-0.06,0.24-0.13,0.33-0.23
		c0.09-0.1,0.16-0.21,0.21-0.34c0.05-0.13,0.08-0.27,0.08-0.42c0-0.15-0.03-0.29-0.08-0.42s-0.12-0.24-0.21-0.34
		s-0.2-0.18-0.33-0.24c-0.13-0.06-0.27-0.09-0.43-0.09c-0.16,0-0.3,0.03-0.43,0.09s-0.23,0.14-0.32,0.23
		c-0.09,0.1-0.16,0.21-0.2,0.34C42,155.62,41.98,155.76,41.98,155.91z"/>
	<path class="st0" d="M46.21,153.29c0,0.11-0.04,0.21-0.12,0.28c-0.08,0.07-0.18,0.11-0.29,0.11c-0.11,0-0.21-0.04-0.28-0.11
		c-0.08-0.08-0.12-0.17-0.12-0.28c0-0.11,0.04-0.21,0.12-0.28c0.08-0.08,0.17-0.11,0.28-0.11c0.11,0,0.21,0.04,0.29,0.11
		C46.17,153.09,46.21,153.18,46.21,153.29z M46.11,157.48H45.5v-3.08h0.61V157.48z"/>
	<path class="st0" d="M49.17,155.18c-0.06-0.1-0.16-0.18-0.29-0.25c-0.13-0.07-0.27-0.1-0.42-0.1c-0.16,0-0.3,0.03-0.43,0.09
		c-0.12,0.06-0.23,0.14-0.31,0.24c-0.09,0.1-0.15,0.22-0.2,0.35s-0.07,0.28-0.07,0.42c0,0.15,0.02,0.29,0.07,0.42
		c0.05,0.13,0.11,0.25,0.2,0.35c0.09,0.1,0.19,0.18,0.32,0.24s0.27,0.09,0.43,0.09c0.16,0,0.3-0.03,0.43-0.09
		c0.13-0.06,0.23-0.14,0.31-0.25l0.41,0.37c-0.13,0.15-0.29,0.27-0.49,0.35c-0.19,0.08-0.42,0.13-0.66,0.13
		c-0.24,0-0.46-0.04-0.66-0.12s-0.38-0.19-0.52-0.33c-0.15-0.14-0.26-0.31-0.35-0.51s-0.13-0.42-0.13-0.67
		c0-0.24,0.04-0.46,0.12-0.66c0.08-0.2,0.2-0.37,0.34-0.51c0.15-0.14,0.32-0.25,0.52-0.33c0.2-0.08,0.42-0.12,0.65-0.12
		c0.22,0,0.43,0.04,0.65,0.13c0.21,0.09,0.38,0.21,0.51,0.38L49.17,155.18z"/>
	<path class="st0" d="M51.98,155.49c0-0.23-0.07-0.4-0.21-0.51c-0.14-0.11-0.32-0.17-0.55-0.17c-0.17,0-0.34,0.03-0.49,0.1
		c-0.15,0.07-0.28,0.15-0.39,0.26l-0.32-0.39c0.15-0.14,0.34-0.25,0.56-0.34c0.22-0.08,0.45-0.12,0.7-0.12
		c0.22,0,0.41,0.03,0.57,0.09c0.16,0.06,0.3,0.15,0.4,0.26c0.1,0.11,0.18,0.24,0.23,0.38c0.05,0.15,0.08,0.31,0.08,0.47v1.34
		c0,0.1,0,0.21,0.01,0.33c0.01,0.11,0.02,0.21,0.04,0.28h-0.55c-0.03-0.15-0.05-0.29-0.05-0.44h-0.02
		c-0.11,0.16-0.25,0.29-0.43,0.38s-0.37,0.14-0.61,0.14c-0.12,0-0.25-0.02-0.38-0.05s-0.25-0.09-0.36-0.16
		c-0.11-0.07-0.2-0.17-0.27-0.29s-0.11-0.27-0.11-0.45c0-0.23,0.06-0.42,0.19-0.55c0.13-0.14,0.29-0.24,0.49-0.31
		c0.2-0.07,0.43-0.12,0.69-0.14c0.26-0.02,0.51-0.03,0.77-0.03V155.49z M51.83,156.01c-0.15,0-0.31,0.01-0.47,0.02
		c-0.16,0.01-0.31,0.04-0.44,0.08c-0.13,0.04-0.24,0.1-0.33,0.18c-0.09,0.08-0.13,0.18-0.13,0.31c0,0.09,0.02,0.17,0.06,0.23
		c0.04,0.06,0.09,0.11,0.15,0.15c0.06,0.04,0.13,0.07,0.2,0.08c0.07,0.02,0.15,0.02,0.23,0.02c0.29,0,0.51-0.09,0.66-0.26
		s0.23-0.39,0.23-0.65v-0.16H51.83z"/>
	<path class="st0" d="M54.04,157.48h-0.61v-4.91h0.61V157.48z"/>
	<path class="st0" d="M57.85,154.9h-0.71v2.58h-0.61v-2.58h-0.61v-0.5h0.61v-0.64c0-0.18,0.02-0.35,0.06-0.5s0.11-0.29,0.2-0.4
		c0.09-0.11,0.21-0.2,0.36-0.27c0.15-0.06,0.32-0.1,0.53-0.1c0.15,0,0.27,0.01,0.38,0.04l-0.07,0.53c-0.05-0.01-0.1-0.02-0.14-0.03
		c-0.05-0.01-0.1-0.01-0.16-0.01c-0.12,0-0.21,0.02-0.28,0.06c-0.07,0.04-0.13,0.1-0.17,0.17c-0.04,0.07-0.06,0.15-0.08,0.24
		c-0.01,0.09-0.02,0.18-0.02,0.28v0.64h0.71V154.9z"/>
	<path class="st0" d="M60.17,155.49c0-0.23-0.07-0.4-0.21-0.51c-0.14-0.11-0.32-0.17-0.55-0.17c-0.17,0-0.34,0.03-0.49,0.1
		c-0.15,0.07-0.28,0.15-0.39,0.26l-0.32-0.39c0.15-0.14,0.34-0.25,0.56-0.34c0.22-0.08,0.45-0.12,0.7-0.12
		c0.22,0,0.41,0.03,0.57,0.09c0.16,0.06,0.3,0.15,0.4,0.26c0.1,0.11,0.18,0.24,0.23,0.38c0.05,0.15,0.08,0.31,0.08,0.47v1.34
		c0,0.1,0,0.21,0.01,0.33c0.01,0.11,0.02,0.21,0.04,0.28h-0.55c-0.03-0.15-0.05-0.29-0.05-0.44h-0.02
		c-0.11,0.16-0.25,0.29-0.43,0.38s-0.37,0.14-0.61,0.14c-0.12,0-0.25-0.02-0.38-0.05s-0.25-0.09-0.36-0.16
		c-0.11-0.07-0.2-0.17-0.27-0.29s-0.11-0.27-0.11-0.45c0-0.23,0.06-0.42,0.19-0.55c0.13-0.14,0.29-0.24,0.49-0.31
		c0.2-0.07,0.43-0.12,0.69-0.14c0.26-0.02,0.51-0.03,0.77-0.03V155.49z M60.02,156.01c-0.15,0-0.31,0.01-0.47,0.02
		c-0.16,0.01-0.31,0.04-0.44,0.08c-0.13,0.04-0.24,0.1-0.33,0.18c-0.09,0.08-0.13,0.18-0.13,0.31c0,0.09,0.02,0.17,0.06,0.23
		c0.04,0.06,0.09,0.11,0.15,0.15c0.06,0.04,0.13,0.07,0.2,0.08c0.07,0.02,0.15,0.02,0.23,0.02c0.29,0,0.51-0.09,0.66-0.26
		s0.23-0.39,0.23-0.65v-0.16H60.02z"/>
	<path class="st0" d="M63.05,154.9h-0.82v1.6c0,0.19,0.03,0.32,0.1,0.4c0.07,0.08,0.18,0.12,0.33,0.12c0.06,0,0.12-0.01,0.18-0.02
		c0.06-0.01,0.12-0.03,0.18-0.05l0.02,0.5c-0.07,0.03-0.15,0.05-0.24,0.06c-0.09,0.01-0.18,0.02-0.28,0.02
		c-0.29,0-0.51-0.08-0.67-0.24s-0.23-0.4-0.23-0.72v-1.67h-0.59v-0.5h0.59v-0.88h0.6v0.88h0.82V154.9z"/>
	<path class="st0" d="M64.97,154.75c0-0.13-0.01-0.25-0.02-0.34h0.58c0.01,0.08,0.02,0.17,0.02,0.27c0,0.1,0.01,0.19,0.01,0.25h0.02
		c0.09-0.18,0.21-0.33,0.38-0.44c0.17-0.11,0.35-0.17,0.56-0.17c0.1,0,0.18,0.01,0.24,0.03l-0.03,0.56
		c-0.09-0.02-0.18-0.03-0.28-0.03c-0.15,0-0.27,0.03-0.38,0.08c-0.11,0.05-0.2,0.13-0.27,0.22c-0.07,0.09-0.12,0.2-0.16,0.31
		c-0.04,0.12-0.05,0.24-0.05,0.37v1.62h-0.61v-2.42C64.98,154.98,64.98,154.88,64.97,154.75z"/>
	<path class="st0" d="M69.93,155.92c0,0.03,0,0.07,0,0.1c0,0.04,0,0.07-0.01,0.1h-2.45c0,0.13,0.03,0.25,0.09,0.36
		c0.05,0.11,0.13,0.21,0.22,0.3c0.09,0.08,0.2,0.15,0.31,0.2c0.12,0.05,0.25,0.07,0.38,0.07c0.21,0,0.39-0.04,0.54-0.14
		c0.15-0.09,0.27-0.2,0.36-0.33l0.43,0.34c-0.16,0.22-0.36,0.38-0.58,0.48c-0.22,0.1-0.47,0.15-0.74,0.15
		c-0.23,0-0.45-0.04-0.65-0.12c-0.2-0.08-0.37-0.19-0.51-0.33c-0.14-0.14-0.26-0.31-0.34-0.51c-0.08-0.2-0.12-0.42-0.12-0.66
		c0-0.24,0.04-0.46,0.12-0.66c0.08-0.2,0.19-0.37,0.34-0.52c0.14-0.14,0.31-0.25,0.51-0.33s0.41-0.12,0.63-0.12s0.43,0.04,0.61,0.11
		s0.34,0.18,0.47,0.32c0.13,0.14,0.23,0.31,0.3,0.5S69.93,155.67,69.93,155.92z M69.3,155.67c0-0.12-0.03-0.23-0.06-0.34
		s-0.09-0.2-0.16-0.28s-0.16-0.14-0.27-0.18c-0.11-0.05-0.23-0.07-0.37-0.07c-0.13,0-0.25,0.02-0.37,0.07
		c-0.11,0.04-0.21,0.11-0.3,0.18s-0.15,0.17-0.21,0.28s-0.09,0.22-0.09,0.34H69.3z"/>
	<path class="st0" d="M73.06,156.99c-0.12,0.19-0.28,0.33-0.48,0.43c-0.2,0.1-0.41,0.15-0.63,0.15c-0.24,0-0.45-0.04-0.64-0.13
		c-0.19-0.08-0.35-0.2-0.49-0.35s-0.24-0.32-0.31-0.52c-0.07-0.2-0.11-0.41-0.11-0.64c0-0.23,0.04-0.44,0.11-0.63
		c0.07-0.2,0.18-0.37,0.31-0.52c0.14-0.15,0.3-0.26,0.49-0.34c0.19-0.08,0.4-0.12,0.63-0.12c0.25,0,0.47,0.05,0.66,0.16
		c0.19,0.11,0.33,0.23,0.44,0.39h0.01v-2.29h0.61v4.91h-0.59v-0.49H73.06z M71.04,155.94c0,0.14,0.02,0.28,0.06,0.41
		c0.04,0.13,0.11,0.25,0.19,0.36c0.09,0.1,0.19,0.19,0.32,0.25s0.27,0.09,0.44,0.09c0.16,0,0.3-0.03,0.43-0.09
		c0.13-0.06,0.24-0.14,0.33-0.24s0.16-0.22,0.21-0.35c0.05-0.13,0.07-0.27,0.07-0.42c0-0.15-0.02-0.29-0.07-0.42
		s-0.12-0.25-0.21-0.36s-0.2-0.19-0.33-0.25c-0.13-0.06-0.27-0.09-0.43-0.09c-0.17,0-0.32,0.03-0.44,0.09s-0.23,0.14-0.32,0.25
		c-0.09,0.1-0.15,0.22-0.19,0.36C71.06,155.66,71.04,155.8,71.04,155.94z"/>
	<path class="st0" d="M76.74,157.48c-0.01-0.08-0.02-0.17-0.02-0.26c0-0.1-0.01-0.18-0.01-0.24H76.7c-0.08,0.17-0.21,0.3-0.39,0.42
		c-0.18,0.12-0.39,0.17-0.61,0.17c-0.2,0-0.37-0.03-0.52-0.1c-0.15-0.07-0.26-0.16-0.36-0.27c-0.09-0.12-0.16-0.25-0.21-0.4
		c-0.05-0.15-0.07-0.31-0.07-0.49v-1.91h0.61v1.7c0,0.13,0.01,0.25,0.03,0.36c0.02,0.12,0.06,0.22,0.11,0.3
		c0.05,0.09,0.12,0.16,0.21,0.21c0.09,0.05,0.21,0.08,0.35,0.08c0.25,0,0.45-0.09,0.6-0.28c0.15-0.18,0.23-0.43,0.23-0.74v-1.64
		h0.61v2.42c0,0.08,0,0.19,0.01,0.32s0.01,0.24,0.02,0.34H76.74z"/>
	<path class="st0" d="M80.34,155.18c-0.06-0.1-0.16-0.18-0.29-0.25c-0.13-0.07-0.27-0.1-0.42-0.1c-0.16,0-0.3,0.03-0.43,0.09
		c-0.12,0.06-0.23,0.14-0.31,0.24c-0.09,0.1-0.15,0.22-0.2,0.35s-0.07,0.28-0.07,0.42c0,0.15,0.02,0.29,0.07,0.42
		c0.05,0.13,0.11,0.25,0.2,0.35c0.09,0.1,0.19,0.18,0.32,0.24s0.27,0.09,0.43,0.09c0.16,0,0.3-0.03,0.43-0.09
		c0.13-0.06,0.23-0.14,0.31-0.25l0.41,0.37c-0.13,0.15-0.29,0.27-0.49,0.35c-0.19,0.08-0.42,0.13-0.66,0.13
		c-0.24,0-0.46-0.04-0.66-0.12s-0.38-0.19-0.52-0.33c-0.15-0.14-0.26-0.31-0.35-0.51s-0.13-0.42-0.13-0.67
		c0-0.24,0.04-0.46,0.12-0.66c0.08-0.2,0.2-0.37,0.34-0.51c0.15-0.14,0.32-0.25,0.52-0.33c0.2-0.08,0.42-0.12,0.65-0.12
		c0.22,0,0.43,0.04,0.65,0.13c0.21,0.09,0.38,0.21,0.51,0.38L80.34,155.18z"/>
	<path class="st0" d="M82.74,154.9h-0.82v1.6c0,0.19,0.03,0.32,0.1,0.4c0.07,0.08,0.18,0.12,0.33,0.12c0.06,0,0.12-0.01,0.18-0.02
		c0.06-0.01,0.12-0.03,0.18-0.05l0.02,0.5c-0.07,0.03-0.15,0.05-0.24,0.06c-0.09,0.01-0.18,0.02-0.28,0.02
		c-0.29,0-0.51-0.08-0.67-0.24s-0.23-0.4-0.23-0.72v-1.67h-0.59v-0.5h0.59v-0.88h0.6v0.88h0.82V154.9z"/>
	<path class="st0" d="M83.92,153.29c0,0.11-0.04,0.21-0.12,0.28c-0.08,0.07-0.18,0.11-0.29,0.11c-0.11,0-0.21-0.04-0.28-0.11
		c-0.08-0.08-0.12-0.17-0.12-0.28c0-0.11,0.04-0.21,0.12-0.28c0.08-0.08,0.17-0.11,0.28-0.11c0.11,0,0.21,0.04,0.29,0.11
		C83.88,153.09,83.92,153.18,83.92,153.29z M83.82,157.48h-0.61v-3.08h0.61V157.48z"/>
	<path class="st0" d="M87.84,155.94c0,0.24-0.04,0.46-0.13,0.66s-0.2,0.37-0.35,0.52c-0.15,0.14-0.33,0.26-0.53,0.34
		s-0.42,0.12-0.66,0.12s-0.45-0.04-0.66-0.12c-0.2-0.08-0.38-0.19-0.53-0.34c-0.15-0.15-0.26-0.32-0.35-0.52s-0.13-0.42-0.13-0.66
		c0-0.24,0.04-0.46,0.13-0.65c0.08-0.2,0.2-0.37,0.35-0.51c0.15-0.14,0.32-0.25,0.53-0.33c0.2-0.08,0.42-0.12,0.66-0.12
		s0.45,0.04,0.66,0.12s0.38,0.19,0.53,0.33c0.15,0.14,0.27,0.31,0.35,0.51C87.8,155.48,87.84,155.7,87.84,155.94z M87.21,155.94
		c0-0.15-0.02-0.29-0.07-0.42c-0.05-0.13-0.11-0.25-0.2-0.35s-0.19-0.18-0.32-0.24c-0.13-0.06-0.27-0.09-0.44-0.09
		s-0.31,0.03-0.44,0.09c-0.13,0.06-0.24,0.14-0.32,0.24c-0.09,0.1-0.15,0.22-0.2,0.35c-0.05,0.13-0.07,0.27-0.07,0.42
		s0.02,0.29,0.07,0.42c0.05,0.13,0.11,0.25,0.2,0.36c0.09,0.1,0.19,0.19,0.32,0.25c0.13,0.06,0.27,0.09,0.44,0.09
		s0.31-0.03,0.44-0.09c0.13-0.06,0.24-0.14,0.32-0.25c0.09-0.1,0.15-0.22,0.2-0.36C87.18,156.23,87.21,156.08,87.21,155.94z"/>
	<path class="st0" d="M89.08,154.4c0.01,0.08,0.02,0.17,0.02,0.26c0,0.1,0.01,0.18,0.01,0.24h0.02c0.04-0.08,0.09-0.16,0.16-0.23
		c0.07-0.07,0.14-0.13,0.23-0.19c0.09-0.05,0.18-0.1,0.29-0.13c0.1-0.03,0.21-0.04,0.32-0.04c0.2,0,0.37,0.03,0.51,0.1
		s0.26,0.16,0.36,0.27s0.17,0.24,0.21,0.4c0.05,0.15,0.07,0.31,0.07,0.49v1.91h-0.61v-1.71c0-0.12-0.01-0.24-0.03-0.36
		c-0.02-0.11-0.06-0.21-0.11-0.3c-0.05-0.09-0.12-0.16-0.21-0.21s-0.21-0.08-0.35-0.08c-0.24,0-0.44,0.09-0.59,0.28
		c-0.15,0.18-0.23,0.43-0.23,0.74v1.64h-0.61v-2.42c0-0.08,0-0.19-0.01-0.32s-0.01-0.25-0.02-0.34H89.08z"/>
	<path class="st0" d="M92.89,157.09c0,0.11-0.04,0.21-0.12,0.3s-0.19,0.13-0.31,0.13c-0.12,0-0.22-0.04-0.31-0.13
		c-0.08-0.08-0.13-0.18-0.13-0.29c0-0.12,0.04-0.22,0.12-0.3c0.08-0.08,0.19-0.13,0.31-0.13s0.23,0.04,0.31,0.12
		S92.89,156.97,92.89,157.09z"/>
	<path class="st0" d="M95.04,157.48h-0.71l1.99-4.6h0.58l1.97,4.6h-0.73l-0.47-1.13H95.5L95.04,157.48z M95.72,155.79h1.72
		l-0.86-2.16L95.72,155.79z"/>
	<path class="st0" d="M99.89,157.48h-0.61v-4.91h0.61V157.48z"/>
	<path class="st0" d="M101.42,157.48h-0.61v-4.91h0.61V157.48z"/>
	<path class="st0" d="M105.2,155.92c0,0.03,0,0.07,0,0.1c0,0.04,0,0.07-0.01,0.1h-2.45c0,0.13,0.03,0.25,0.09,0.36
		c0.05,0.11,0.13,0.21,0.22,0.3c0.09,0.08,0.2,0.15,0.31,0.2c0.12,0.05,0.25,0.07,0.38,0.07c0.21,0,0.39-0.04,0.54-0.14
		c0.15-0.09,0.27-0.2,0.36-0.33l0.43,0.34c-0.16,0.22-0.36,0.38-0.58,0.48c-0.22,0.1-0.47,0.15-0.74,0.15
		c-0.23,0-0.45-0.04-0.65-0.12c-0.2-0.08-0.37-0.19-0.51-0.33c-0.14-0.14-0.26-0.31-0.34-0.51c-0.08-0.2-0.12-0.42-0.12-0.66
		c0-0.24,0.04-0.46,0.12-0.66c0.08-0.2,0.19-0.37,0.34-0.52c0.14-0.14,0.31-0.25,0.51-0.33s0.41-0.12,0.63-0.12s0.43,0.04,0.61,0.11
		s0.34,0.18,0.47,0.32c0.13,0.14,0.23,0.31,0.3,0.5S105.2,155.67,105.2,155.92z M104.57,155.67c0-0.12-0.03-0.23-0.06-0.34
		s-0.09-0.2-0.16-0.28s-0.16-0.14-0.27-0.18c-0.11-0.05-0.23-0.07-0.37-0.07c-0.13,0-0.25,0.02-0.37,0.07
		c-0.11,0.04-0.21,0.11-0.3,0.18s-0.15,0.17-0.21,0.28s-0.09,0.22-0.09,0.34H104.57z"/>
	<path class="st0" d="M106.57,155.86l-1.12-1.46h0.75l0.75,1.06l0.76-1.06h0.71l-1.11,1.46l1.24,1.62h-0.76l-0.86-1.2l-0.87,1.2
		h-0.73L106.57,155.86z"/>
	<path class="st0" d="M110.89,155.49c0-0.23-0.07-0.4-0.21-0.51c-0.14-0.11-0.32-0.17-0.55-0.17c-0.17,0-0.34,0.03-0.49,0.1
		c-0.15,0.07-0.28,0.15-0.39,0.26l-0.32-0.39c0.15-0.14,0.34-0.25,0.56-0.34c0.22-0.08,0.45-0.12,0.7-0.12
		c0.22,0,0.41,0.03,0.57,0.09c0.16,0.06,0.3,0.15,0.4,0.26c0.1,0.11,0.18,0.24,0.23,0.38c0.05,0.15,0.08,0.31,0.08,0.47v1.34
		c0,0.1,0,0.21,0.01,0.33c0.01,0.11,0.02,0.21,0.04,0.28h-0.55c-0.03-0.15-0.05-0.29-0.05-0.44h-0.02
		c-0.11,0.16-0.25,0.29-0.43,0.38s-0.37,0.14-0.61,0.14c-0.12,0-0.25-0.02-0.38-0.05s-0.25-0.09-0.36-0.16
		c-0.11-0.07-0.2-0.17-0.27-0.29s-0.11-0.27-0.11-0.45c0-0.23,0.06-0.42,0.19-0.55c0.13-0.14,0.29-0.24,0.49-0.31
		c0.2-0.07,0.43-0.12,0.69-0.14c0.26-0.02,0.51-0.03,0.77-0.03V155.49z M110.74,156.01c-0.15,0-0.31,0.01-0.47,0.02
		c-0.16,0.01-0.31,0.04-0.44,0.08c-0.13,0.04-0.24,0.1-0.33,0.18c-0.09,0.08-0.13,0.18-0.13,0.31c0,0.09,0.02,0.17,0.06,0.23
		c0.04,0.06,0.09,0.11,0.15,0.15c0.06,0.04,0.13,0.07,0.2,0.08c0.07,0.02,0.15,0.02,0.23,0.02c0.29,0,0.51-0.09,0.66-0.26
		s0.23-0.39,0.23-0.65v-0.16H110.74z"/>
	<path class="st0" d="M114.02,154.4l0.69,2.35h0.01l0.73-2.35h0.64l0.75,2.35h0.01l0.69-2.35h0.64l-1.02,3.08h-0.64l-0.76-2.31
		h-0.01l-0.75,2.31h-0.64l-1.03-3.08H114.02z"/>
	<path class="st0" d="M120.56,155.49c0-0.23-0.07-0.4-0.21-0.51c-0.14-0.11-0.32-0.17-0.55-0.17c-0.17,0-0.34,0.03-0.49,0.1
		c-0.15,0.07-0.28,0.15-0.39,0.26l-0.32-0.39c0.15-0.14,0.34-0.25,0.56-0.34c0.22-0.08,0.45-0.12,0.7-0.12
		c0.22,0,0.41,0.03,0.57,0.09c0.16,0.06,0.3,0.15,0.4,0.26c0.1,0.11,0.18,0.24,0.23,0.38c0.05,0.15,0.08,0.31,0.08,0.47v1.34
		c0,0.1,0,0.21,0.01,0.33c0.01,0.11,0.02,0.21,0.04,0.28h-0.55c-0.03-0.15-0.05-0.29-0.05-0.44h-0.02
		c-0.11,0.16-0.25,0.29-0.43,0.38s-0.37,0.14-0.61,0.14c-0.12,0-0.25-0.02-0.38-0.05s-0.25-0.09-0.36-0.16
		c-0.11-0.07-0.2-0.17-0.27-0.29s-0.11-0.27-0.11-0.45c0-0.23,0.06-0.42,0.19-0.55c0.13-0.14,0.29-0.24,0.49-0.31
		c0.2-0.07,0.43-0.12,0.69-0.14c0.26-0.02,0.51-0.03,0.77-0.03V155.49z M120.41,156.01c-0.15,0-0.31,0.01-0.47,0.02
		c-0.16,0.01-0.31,0.04-0.44,0.08c-0.13,0.04-0.24,0.1-0.33,0.18c-0.09,0.08-0.13,0.18-0.13,0.31c0,0.09,0.02,0.17,0.06,0.23
		c0.04,0.06,0.09,0.11,0.15,0.15c0.06,0.04,0.13,0.07,0.2,0.08c0.07,0.02,0.15,0.02,0.23,0.02c0.29,0,0.51-0.09,0.66-0.26
		s0.23-0.39,0.23-0.65v-0.16H120.41z"/>
	<path class="st0" d="M123.66,155.18c-0.07-0.11-0.17-0.2-0.29-0.28s-0.27-0.11-0.42-0.11c-0.07,0-0.14,0.01-0.21,0.02
		c-0.07,0.02-0.13,0.04-0.19,0.07c-0.05,0.03-0.1,0.07-0.13,0.12c-0.03,0.05-0.05,0.11-0.05,0.18c0,0.13,0.06,0.23,0.18,0.29
		c0.12,0.06,0.29,0.12,0.53,0.17c0.15,0.04,0.28,0.08,0.41,0.12c0.13,0.05,0.23,0.11,0.33,0.18c0.09,0.07,0.17,0.16,0.22,0.26
		c0.05,0.1,0.08,0.22,0.08,0.35c0,0.18-0.03,0.34-0.1,0.46c-0.07,0.13-0.16,0.23-0.28,0.31s-0.25,0.14-0.39,0.17
		c-0.15,0.04-0.3,0.05-0.45,0.05c-0.23,0-0.46-0.04-0.69-0.14c-0.22-0.09-0.41-0.23-0.56-0.42l0.44-0.37
		c0.08,0.12,0.2,0.22,0.34,0.31s0.3,0.12,0.48,0.12c0.08,0,0.15-0.01,0.22-0.02c0.07-0.02,0.14-0.04,0.19-0.08
		c0.06-0.03,0.1-0.08,0.14-0.14c0.03-0.06,0.05-0.13,0.05-0.21c0-0.14-0.07-0.25-0.2-0.32c-0.14-0.07-0.34-0.13-0.6-0.2
		c-0.1-0.03-0.21-0.06-0.31-0.09c-0.11-0.04-0.2-0.09-0.29-0.15c-0.09-0.06-0.16-0.15-0.21-0.24s-0.08-0.22-0.08-0.36
		c0-0.16,0.03-0.31,0.1-0.42c0.07-0.12,0.15-0.22,0.26-0.29c0.11-0.08,0.23-0.13,0.37-0.17c0.14-0.04,0.28-0.05,0.43-0.05
		c0.22,0,0.43,0.04,0.64,0.13s0.36,0.21,0.48,0.38L123.66,155.18z"/>
	<path class="st0" d="M127.69,154.9h-0.82v1.6c0,0.19,0.03,0.32,0.1,0.4c0.07,0.08,0.18,0.12,0.33,0.12c0.06,0,0.12-0.01,0.18-0.02
		c0.06-0.01,0.12-0.03,0.18-0.05l0.02,0.5c-0.07,0.03-0.15,0.05-0.24,0.06c-0.09,0.01-0.18,0.02-0.28,0.02
		c-0.29,0-0.51-0.08-0.67-0.24s-0.23-0.4-0.23-0.72v-1.67h-0.59v-0.5h0.59v-0.88h0.6v0.88h0.82V154.9z"/>
	<path class="st0" d="M128.15,154.75c0-0.13-0.01-0.25-0.02-0.34h0.58c0.01,0.08,0.02,0.17,0.02,0.27c0,0.1,0.01,0.19,0.01,0.25
		h0.02c0.09-0.18,0.21-0.33,0.38-0.44c0.17-0.11,0.35-0.17,0.56-0.17c0.1,0,0.18,0.01,0.24,0.03l-0.03,0.56
		c-0.09-0.02-0.18-0.03-0.28-0.03c-0.15,0-0.27,0.03-0.38,0.08c-0.11,0.05-0.2,0.13-0.27,0.22c-0.07,0.09-0.12,0.2-0.16,0.31
		c-0.04,0.12-0.05,0.24-0.05,0.37v1.62h-0.61v-2.42C128.16,154.98,128.15,154.88,128.15,154.75z"/>
	<path class="st0" d="M133.1,155.92c0,0.03,0,0.07,0,0.1c0,0.04,0,0.07-0.01,0.1h-2.45c0,0.13,0.03,0.25,0.09,0.36
		c0.05,0.11,0.13,0.21,0.22,0.3c0.09,0.08,0.2,0.15,0.31,0.2c0.12,0.05,0.25,0.07,0.38,0.07c0.21,0,0.39-0.04,0.54-0.14
		c0.15-0.09,0.27-0.2,0.36-0.33l0.43,0.34c-0.16,0.22-0.36,0.38-0.58,0.48c-0.22,0.1-0.47,0.15-0.74,0.15
		c-0.23,0-0.45-0.04-0.65-0.12c-0.2-0.08-0.37-0.19-0.51-0.33c-0.14-0.14-0.26-0.31-0.34-0.51c-0.08-0.2-0.12-0.42-0.12-0.66
		c0-0.24,0.04-0.46,0.12-0.66c0.08-0.2,0.19-0.37,0.34-0.52c0.14-0.14,0.31-0.25,0.51-0.33s0.41-0.12,0.63-0.12s0.43,0.04,0.61,0.11
		s0.34,0.18,0.47,0.32c0.13,0.14,0.23,0.31,0.3,0.5S133.1,155.67,133.1,155.92z M132.48,155.67c0-0.12-0.03-0.23-0.06-0.34
		s-0.09-0.2-0.16-0.28s-0.16-0.14-0.27-0.18c-0.11-0.05-0.23-0.07-0.37-0.07c-0.13,0-0.25,0.02-0.37,0.07
		c-0.11,0.04-0.21,0.11-0.3,0.18s-0.15,0.17-0.21,0.28s-0.09,0.22-0.09,0.34H132.48z"/>
	<path class="st0" d="M135.66,155.49c0-0.23-0.07-0.4-0.21-0.51c-0.14-0.11-0.32-0.17-0.55-0.17c-0.17,0-0.34,0.03-0.49,0.1
		c-0.15,0.07-0.28,0.15-0.39,0.26l-0.32-0.39c0.15-0.14,0.34-0.25,0.56-0.34c0.22-0.08,0.45-0.12,0.7-0.12
		c0.22,0,0.41,0.03,0.57,0.09c0.16,0.06,0.3,0.15,0.4,0.26c0.1,0.11,0.18,0.24,0.23,0.38c0.05,0.15,0.08,0.31,0.08,0.47v1.34
		c0,0.1,0,0.21,0.01,0.33c0.01,0.11,0.02,0.21,0.04,0.28h-0.55c-0.03-0.15-0.05-0.29-0.05-0.44h-0.02
		c-0.11,0.16-0.25,0.29-0.43,0.38s-0.37,0.14-0.61,0.14c-0.12,0-0.25-0.02-0.38-0.05s-0.25-0.09-0.36-0.16
		c-0.11-0.07-0.2-0.17-0.27-0.29s-0.11-0.27-0.11-0.45c0-0.23,0.06-0.42,0.19-0.55c0.13-0.14,0.29-0.24,0.49-0.31
		c0.2-0.07,0.43-0.12,0.69-0.14c0.26-0.02,0.51-0.03,0.77-0.03V155.49z M135.51,156.01c-0.15,0-0.31,0.01-0.47,0.02
		c-0.16,0.01-0.31,0.04-0.44,0.08c-0.13,0.04-0.24,0.1-0.33,0.18c-0.09,0.08-0.13,0.18-0.13,0.31c0,0.09,0.02,0.17,0.06,0.23
		c0.04,0.06,0.09,0.11,0.15,0.15c0.06,0.04,0.13,0.07,0.2,0.08c0.07,0.02,0.15,0.02,0.23,0.02c0.29,0,0.51-0.09,0.66-0.26
		s0.23-0.39,0.23-0.65v-0.16H135.51z"/>
	<path class="st0" d="M138.55,154.9h-0.82v1.6c0,0.19,0.03,0.32,0.1,0.4c0.07,0.08,0.18,0.12,0.33,0.12c0.06,0,0.12-0.01,0.18-0.02
		c0.06-0.01,0.12-0.03,0.18-0.05l0.02,0.5c-0.07,0.03-0.15,0.05-0.24,0.06c-0.09,0.01-0.18,0.02-0.28,0.02
		c-0.29,0-0.51-0.08-0.67-0.24s-0.23-0.4-0.23-0.72v-1.67h-0.59v-0.5h0.59v-0.88h0.6v0.88h0.82V154.9z"/>
	<path class="st0" d="M141.89,155.92c0,0.03,0,0.07,0,0.1c0,0.04,0,0.07-0.01,0.1h-2.45c0,0.13,0.03,0.25,0.09,0.36
		c0.05,0.11,0.13,0.21,0.22,0.3c0.09,0.08,0.2,0.15,0.31,0.2c0.12,0.05,0.25,0.07,0.38,0.07c0.21,0,0.39-0.04,0.54-0.14
		c0.15-0.09,0.27-0.2,0.36-0.33l0.43,0.34c-0.16,0.22-0.36,0.38-0.58,0.48c-0.22,0.1-0.47,0.15-0.74,0.15
		c-0.23,0-0.45-0.04-0.65-0.12c-0.2-0.08-0.37-0.19-0.51-0.33c-0.14-0.14-0.26-0.31-0.34-0.51c-0.08-0.2-0.12-0.42-0.12-0.66
		c0-0.24,0.04-0.46,0.12-0.66c0.08-0.2,0.19-0.37,0.34-0.52c0.14-0.14,0.31-0.25,0.51-0.33s0.41-0.12,0.63-0.12s0.43,0.04,0.61,0.11
		s0.34,0.18,0.47,0.32c0.13,0.14,0.23,0.31,0.3,0.5S141.89,155.67,141.89,155.92z M141.27,155.67c0-0.12-0.03-0.23-0.06-0.34
		s-0.09-0.2-0.16-0.28s-0.16-0.14-0.27-0.18c-0.11-0.05-0.23-0.07-0.37-0.07c-0.13,0-0.25,0.02-0.37,0.07
		c-0.11,0.04-0.21,0.11-0.3,0.18s-0.15,0.17-0.21,0.28s-0.09,0.22-0.09,0.34H141.27z"/>
	<path class="st0" d="M145.03,156.99c-0.12,0.19-0.28,0.33-0.48,0.43c-0.2,0.1-0.41,0.15-0.63,0.15c-0.24,0-0.45-0.04-0.64-0.13
		c-0.19-0.08-0.35-0.2-0.49-0.35s-0.24-0.32-0.31-0.52c-0.07-0.2-0.11-0.41-0.11-0.64c0-0.23,0.04-0.44,0.11-0.63
		c0.07-0.2,0.18-0.37,0.31-0.52c0.14-0.15,0.3-0.26,0.49-0.34c0.19-0.08,0.4-0.12,0.63-0.12c0.25,0,0.47,0.05,0.66,0.16
		c0.19,0.11,0.33,0.23,0.44,0.39h0.01v-2.29h0.61v4.91h-0.59v-0.49H145.03z M143,155.94c0,0.14,0.02,0.28,0.06,0.41
		c0.04,0.13,0.11,0.25,0.19,0.36c0.09,0.1,0.19,0.19,0.32,0.25s0.27,0.09,0.44,0.09c0.16,0,0.3-0.03,0.43-0.09
		c0.13-0.06,0.24-0.14,0.33-0.24s0.16-0.22,0.21-0.35c0.05-0.13,0.07-0.27,0.07-0.42c0-0.15-0.02-0.29-0.07-0.42
		s-0.12-0.25-0.21-0.36s-0.2-0.19-0.33-0.25c-0.13-0.06-0.27-0.09-0.43-0.09c-0.17,0-0.32,0.03-0.44,0.09s-0.23,0.14-0.32,0.25
		c-0.09,0.1-0.15,0.22-0.19,0.36C143.02,155.66,143,155.8,143,155.94z"/>
	<path class="st0" d="M148.22,154.4l0.69,2.35h0.01l0.73-2.35h0.64l0.75,2.35h0.01l0.7-2.35h0.64l-1.02,3.08h-0.64l-0.76-2.31h-0.01
		l-0.75,2.31h-0.64l-1.03-3.08H148.22z"/>
	<path class="st0" d="M153.56,153.29c0,0.11-0.04,0.21-0.12,0.28c-0.08,0.07-0.17,0.11-0.29,0.11c-0.11,0-0.21-0.04-0.28-0.11
		s-0.12-0.17-0.12-0.28c0-0.11,0.04-0.21,0.12-0.28c0.08-0.08,0.17-0.11,0.28-0.11c0.11,0,0.21,0.04,0.29,0.11
		C153.52,153.09,153.56,153.18,153.56,153.29z M153.47,157.48h-0.61v-3.08h0.61V157.48z"/>
	<path class="st0" d="M155.88,154.9h-0.82v1.6c0,0.19,0.04,0.32,0.1,0.4c0.07,0.08,0.18,0.12,0.33,0.12c0.06,0,0.12-0.01,0.18-0.02
		c0.07-0.01,0.12-0.03,0.18-0.05l0.02,0.5c-0.07,0.03-0.15,0.05-0.24,0.06c-0.09,0.01-0.18,0.02-0.28,0.02
		c-0.29,0-0.51-0.08-0.67-0.24s-0.23-0.4-0.23-0.72v-1.67h-0.59v-0.5h0.59v-0.88h0.6v0.88h0.82V154.9z"/>
	<path class="st0" d="M156.98,154.87c0.07-0.15,0.2-0.28,0.38-0.39s0.38-0.16,0.6-0.16c0.2,0,0.37,0.03,0.51,0.1
		s0.26,0.16,0.36,0.27c0.1,0.11,0.17,0.24,0.21,0.4c0.04,0.15,0.07,0.31,0.07,0.49v1.91h-0.61v-1.71c0-0.13-0.01-0.25-0.03-0.36
		c-0.02-0.11-0.05-0.21-0.11-0.3c-0.05-0.09-0.12-0.16-0.21-0.21c-0.09-0.05-0.21-0.08-0.35-0.08c-0.24,0-0.44,0.09-0.6,0.28
		c-0.16,0.18-0.23,0.43-0.23,0.74v1.63h-0.61v-4.91h0.61v2.3H156.98z"/>
	<path class="st0" d="M16.79,164.76c-0.18,0.25-0.42,0.45-0.71,0.6c-0.29,0.15-0.64,0.23-1.05,0.23c-0.35,0-0.67-0.06-0.97-0.18
		s-0.55-0.29-0.77-0.5c-0.21-0.21-0.38-0.47-0.5-0.77c-0.12-0.3-0.18-0.62-0.18-0.98c0-0.36,0.06-0.69,0.19-0.98
		c0.12-0.3,0.29-0.55,0.51-0.76c0.22-0.21,0.48-0.37,0.78-0.49c0.3-0.12,0.62-0.17,0.97-0.17c0.16,0,0.31,0.01,0.47,0.04
		s0.31,0.08,0.46,0.14s0.28,0.14,0.4,0.22c0.12,0.09,0.23,0.19,0.31,0.31l-0.51,0.39c-0.11-0.16-0.27-0.28-0.48-0.39
		c-0.21-0.1-0.43-0.15-0.67-0.15c-0.27,0-0.51,0.05-0.72,0.15c-0.21,0.1-0.4,0.23-0.55,0.4c-0.15,0.17-0.27,0.36-0.35,0.59
		c-0.08,0.22-0.12,0.46-0.12,0.71c0,0.26,0.04,0.5,0.12,0.73c0.08,0.23,0.19,0.42,0.34,0.59s0.33,0.3,0.55,0.39
		c0.21,0.1,0.45,0.14,0.72,0.14c0.26,0,0.5-0.05,0.71-0.16c0.21-0.1,0.39-0.26,0.53-0.45L16.79,164.76z"/>
	<path class="st0" d="M20.29,163.93c0,0.24-0.04,0.46-0.13,0.66s-0.2,0.37-0.35,0.52c-0.15,0.14-0.33,0.26-0.53,0.34
		s-0.42,0.12-0.66,0.12s-0.45-0.04-0.66-0.12c-0.2-0.08-0.38-0.19-0.53-0.34c-0.15-0.15-0.26-0.32-0.35-0.52s-0.13-0.42-0.13-0.66
		c0-0.24,0.04-0.46,0.13-0.65c0.08-0.2,0.2-0.37,0.35-0.51c0.15-0.14,0.32-0.25,0.53-0.33c0.2-0.08,0.42-0.12,0.66-0.12
		s0.45,0.04,0.66,0.12s0.38,0.19,0.53,0.33c0.15,0.14,0.27,0.31,0.35,0.51C20.25,163.47,20.29,163.69,20.29,163.93z M19.65,163.93
		c0-0.15-0.02-0.29-0.07-0.42c-0.05-0.13-0.11-0.25-0.2-0.35s-0.19-0.18-0.32-0.24c-0.13-0.06-0.27-0.09-0.44-0.09
		s-0.31,0.03-0.44,0.09c-0.13,0.06-0.24,0.14-0.32,0.24c-0.09,0.1-0.15,0.22-0.2,0.35c-0.05,0.13-0.07,0.27-0.07,0.42
		s0.02,0.29,0.07,0.42c0.05,0.13,0.11,0.25,0.2,0.36c0.09,0.1,0.19,0.19,0.32,0.25c0.13,0.06,0.27,0.09,0.44,0.09
		s0.31-0.03,0.44-0.09c0.13-0.06,0.24-0.14,0.32-0.25c0.09-0.1,0.15-0.22,0.2-0.36C19.63,164.22,19.65,164.08,19.65,163.93z"/>
	<path class="st0" d="M24.09,163.93c0,0.24-0.04,0.46-0.13,0.66s-0.2,0.37-0.35,0.52c-0.15,0.14-0.33,0.26-0.53,0.34
		s-0.42,0.12-0.66,0.12s-0.45-0.04-0.66-0.12c-0.2-0.08-0.38-0.19-0.53-0.34c-0.15-0.15-0.26-0.32-0.35-0.52s-0.13-0.42-0.13-0.66
		c0-0.24,0.04-0.46,0.13-0.65c0.08-0.2,0.2-0.37,0.35-0.51c0.15-0.14,0.32-0.25,0.53-0.33c0.2-0.08,0.42-0.12,0.66-0.12
		s0.45,0.04,0.66,0.12s0.38,0.19,0.53,0.33c0.15,0.14,0.27,0.31,0.35,0.51C24.05,163.47,24.09,163.69,24.09,163.93z M23.45,163.93
		c0-0.15-0.02-0.29-0.07-0.42c-0.05-0.13-0.11-0.25-0.2-0.35s-0.19-0.18-0.32-0.24c-0.13-0.06-0.27-0.09-0.44-0.09
		s-0.31,0.03-0.44,0.09c-0.13,0.06-0.24,0.14-0.32,0.24c-0.09,0.1-0.15,0.22-0.2,0.35c-0.05,0.13-0.07,0.27-0.07,0.42
		s0.02,0.29,0.07,0.42c0.05,0.13,0.11,0.25,0.2,0.36c0.09,0.1,0.19,0.19,0.32,0.25c0.13,0.06,0.27,0.09,0.44,0.09
		s0.31-0.03,0.44-0.09c0.13-0.06,0.24-0.14,0.32-0.25c0.09-0.1,0.15-0.22,0.2-0.36C23.43,164.22,23.45,164.08,23.45,163.93z"/>
	<path class="st0" d="M25.39,165.47h-0.61v-4.91h0.61V165.47z"/>
	<path class="st0" d="M28.61,161.73c-0.09-0.13-0.21-0.23-0.37-0.31c-0.16-0.08-0.33-0.12-0.53-0.12c-0.1,0-0.21,0.01-0.31,0.04
		c-0.11,0.03-0.2,0.07-0.29,0.14c-0.09,0.06-0.16,0.14-0.21,0.23c-0.05,0.09-0.08,0.2-0.08,0.33c0,0.13,0.02,0.23,0.07,0.32
		c0.05,0.08,0.12,0.16,0.2,0.21c0.08,0.06,0.18,0.11,0.3,0.15s0.24,0.08,0.37,0.13c0.16,0.05,0.31,0.1,0.47,0.16
		s0.31,0.14,0.44,0.24s0.24,0.22,0.32,0.37c0.08,0.15,0.12,0.34,0.12,0.57c0,0.24-0.04,0.45-0.13,0.62
		c-0.09,0.18-0.21,0.32-0.35,0.44c-0.15,0.11-0.32,0.2-0.51,0.26c-0.19,0.06-0.39,0.08-0.59,0.08c-0.29,0-0.57-0.06-0.84-0.17
		s-0.49-0.28-0.67-0.5l0.5-0.42c0.11,0.16,0.25,0.29,0.44,0.39s0.38,0.15,0.59,0.15c0.11,0,0.22-0.02,0.32-0.05
		c0.11-0.03,0.21-0.08,0.3-0.14c0.09-0.07,0.16-0.15,0.22-0.24c0.06-0.1,0.08-0.21,0.08-0.35s-0.03-0.25-0.09-0.35
		c-0.06-0.09-0.14-0.17-0.24-0.24c-0.1-0.07-0.22-0.12-0.35-0.17s-0.27-0.09-0.42-0.14c-0.15-0.04-0.29-0.1-0.44-0.16
		c-0.14-0.06-0.27-0.14-0.38-0.24c-0.11-0.1-0.2-0.22-0.27-0.36s-0.1-0.32-0.1-0.53c0-0.23,0.05-0.43,0.14-0.59
		c0.09-0.17,0.21-0.3,0.36-0.41s0.32-0.19,0.51-0.24c0.19-0.05,0.38-0.07,0.57-0.07c0.27,0,0.52,0.05,0.75,0.14
		c0.23,0.1,0.42,0.22,0.56,0.38L28.61,161.73z"/>
	<path class="st0" d="M31.98,163.17c-0.06-0.1-0.16-0.18-0.29-0.25c-0.13-0.07-0.27-0.1-0.42-0.1c-0.16,0-0.3,0.03-0.43,0.09
		c-0.12,0.06-0.23,0.14-0.31,0.24c-0.09,0.1-0.15,0.22-0.2,0.35s-0.07,0.28-0.07,0.42c0,0.15,0.02,0.29,0.07,0.42
		c0.05,0.13,0.11,0.25,0.2,0.35c0.09,0.1,0.19,0.18,0.32,0.24s0.27,0.09,0.43,0.09c0.16,0,0.3-0.03,0.43-0.09
		c0.13-0.06,0.23-0.14,0.31-0.25l0.41,0.37c-0.13,0.15-0.29,0.27-0.49,0.35c-0.19,0.08-0.42,0.13-0.66,0.13
		c-0.24,0-0.46-0.04-0.66-0.12s-0.38-0.19-0.52-0.33c-0.15-0.14-0.26-0.31-0.35-0.51s-0.13-0.42-0.13-0.67
		c0-0.24,0.04-0.46,0.12-0.66c0.08-0.2,0.2-0.37,0.34-0.51c0.15-0.14,0.32-0.25,0.52-0.33c0.2-0.08,0.42-0.12,0.65-0.12
		c0.22,0,0.43,0.04,0.65,0.13c0.21,0.09,0.38,0.21,0.51,0.38L31.98,163.17z"/>
	<path class="st0" d="M35.04,165.47c-0.01-0.08-0.02-0.17-0.02-0.26c0-0.1-0.01-0.18-0.01-0.24H35c-0.08,0.17-0.21,0.3-0.39,0.42
		c-0.18,0.12-0.39,0.17-0.61,0.17c-0.2,0-0.37-0.03-0.52-0.1c-0.15-0.07-0.26-0.16-0.36-0.27c-0.09-0.12-0.16-0.25-0.21-0.4
		c-0.05-0.15-0.07-0.31-0.07-0.49v-1.91h0.61v1.7c0,0.13,0.01,0.25,0.03,0.36c0.02,0.12,0.06,0.22,0.11,0.3
		c0.05,0.09,0.12,0.16,0.21,0.21c0.09,0.05,0.21,0.08,0.35,0.08c0.25,0,0.45-0.09,0.6-0.28c0.15-0.18,0.23-0.43,0.23-0.74v-1.64
		h0.61v2.42c0,0.08,0,0.19,0.01,0.32s0.01,0.24,0.02,0.34H35.04z"/>
	<path class="st0" d="M37.11,165.47H36.5v-4.91h0.61V165.47z"/>
	<path class="st0" d="M38.62,167.03h-0.61v-4.64h0.6v0.48h0.02c0.1-0.16,0.25-0.3,0.44-0.41c0.19-0.11,0.42-0.16,0.67-0.16
		c0.23,0,0.44,0.04,0.62,0.12c0.19,0.08,0.35,0.2,0.49,0.34c0.14,0.15,0.24,0.32,0.31,0.52c0.07,0.2,0.11,0.41,0.11,0.63
		c0,0.22-0.04,0.44-0.11,0.64c-0.07,0.2-0.18,0.37-0.31,0.52c-0.13,0.15-0.3,0.26-0.49,0.35c-0.19,0.08-0.4,0.13-0.64,0.13
		c-0.22,0-0.43-0.05-0.62-0.14c-0.19-0.09-0.35-0.23-0.46-0.4h-0.02V167.03z M40.65,163.93c0-0.14-0.02-0.28-0.06-0.42
		s-0.11-0.25-0.19-0.36c-0.09-0.1-0.19-0.19-0.32-0.25c-0.13-0.06-0.28-0.09-0.44-0.09c-0.16,0-0.3,0.03-0.43,0.09
		c-0.13,0.06-0.24,0.14-0.33,0.25c-0.09,0.1-0.16,0.22-0.21,0.36s-0.07,0.28-0.07,0.42c0,0.15,0.02,0.29,0.07,0.42
		c0.05,0.13,0.12,0.25,0.21,0.35c0.09,0.1,0.2,0.18,0.33,0.24c0.13,0.06,0.27,0.09,0.43,0.09c0.17,0,0.32-0.03,0.44-0.09
		c0.13-0.06,0.23-0.15,0.32-0.25c0.09-0.1,0.15-0.22,0.19-0.36C40.63,164.21,40.65,164.07,40.65,163.93z"/>
	<path class="st0" d="M43.48,162.89h-0.82v1.6c0,0.19,0.03,0.32,0.1,0.4c0.07,0.08,0.18,0.12,0.33,0.12c0.06,0,0.12-0.01,0.18-0.02
		c0.06-0.01,0.12-0.03,0.18-0.05l0.02,0.5c-0.07,0.03-0.15,0.05-0.24,0.06c-0.09,0.01-0.18,0.02-0.28,0.02
		c-0.29,0-0.51-0.08-0.67-0.24s-0.23-0.4-0.23-0.72v-1.67h-0.59v-0.5h0.59v-0.88h0.6v0.88h0.82V162.89z"/>
	<path class="st0" d="M44.66,161.28c0,0.11-0.04,0.21-0.12,0.28c-0.08,0.07-0.18,0.11-0.29,0.11c-0.11,0-0.21-0.04-0.28-0.11
		c-0.08-0.08-0.12-0.17-0.12-0.28c0-0.11,0.04-0.21,0.12-0.28c0.08-0.08,0.17-0.11,0.28-0.11c0.11,0,0.21,0.04,0.29,0.11
		C44.62,161.08,44.66,161.17,44.66,161.28z M44.56,165.47h-0.61v-3.08h0.61V165.47z"/>
	<path class="st0" d="M46.01,162.39c0.01,0.08,0.02,0.17,0.02,0.26c0,0.1,0.01,0.18,0.01,0.24h0.02c0.04-0.08,0.09-0.16,0.16-0.23
		c0.07-0.07,0.14-0.13,0.23-0.19c0.09-0.05,0.18-0.1,0.29-0.13c0.1-0.03,0.21-0.04,0.32-0.04c0.2,0,0.37,0.03,0.51,0.1
		s0.26,0.16,0.36,0.27s0.17,0.24,0.21,0.4c0.05,0.15,0.07,0.31,0.07,0.49v1.91H47.6v-1.71c0-0.12-0.01-0.24-0.03-0.36
		c-0.02-0.11-0.06-0.21-0.11-0.3c-0.05-0.09-0.12-0.16-0.21-0.21s-0.21-0.08-0.35-0.08c-0.24,0-0.44,0.09-0.59,0.28
		c-0.15,0.18-0.23,0.43-0.23,0.74v1.64h-0.61v-2.42c0-0.08,0-0.19-0.01-0.32s-0.01-0.25-0.02-0.34H46.01z"/>
	<path class="st0" d="M49.32,166c0.13,0.15,0.3,0.27,0.5,0.36s0.41,0.14,0.62,0.14c0.2,0,0.37-0.03,0.51-0.09s0.25-0.14,0.33-0.24
		s0.15-0.22,0.18-0.36c0.04-0.14,0.06-0.29,0.06-0.45v-0.4h-0.01c-0.11,0.17-0.27,0.31-0.46,0.4s-0.4,0.14-0.62,0.14
		c-0.23,0-0.45-0.04-0.64-0.12c-0.19-0.08-0.36-0.19-0.49-0.34c-0.13-0.14-0.24-0.31-0.31-0.5c-0.07-0.19-0.11-0.4-0.11-0.62
		s0.04-0.43,0.11-0.62c0.07-0.2,0.18-0.36,0.31-0.51c0.13-0.14,0.3-0.26,0.49-0.34c0.19-0.08,0.4-0.13,0.64-0.13
		c0.22,0,0.43,0.05,0.63,0.14c0.2,0.1,0.36,0.24,0.48,0.44h0.01v-0.49h0.59v2.92c0,0.23-0.03,0.44-0.08,0.65
		c-0.06,0.21-0.15,0.39-0.29,0.55c-0.13,0.16-0.31,0.28-0.53,0.38c-0.22,0.1-0.48,0.14-0.81,0.14c-0.27,0-0.54-0.05-0.81-0.15
		s-0.5-0.23-0.7-0.41L49.32,166z M49.5,163.9c0,0.14,0.02,0.28,0.07,0.41c0.05,0.13,0.11,0.24,0.2,0.34s0.2,0.18,0.32,0.24
		s0.27,0.09,0.43,0.09c0.16,0,0.3-0.03,0.43-0.08c0.13-0.06,0.24-0.13,0.33-0.23c0.09-0.1,0.16-0.21,0.21-0.34
		c0.05-0.13,0.08-0.27,0.08-0.42c0-0.15-0.03-0.29-0.08-0.42s-0.12-0.24-0.21-0.34s-0.2-0.18-0.33-0.24
		c-0.13-0.06-0.27-0.09-0.43-0.09c-0.16,0-0.3,0.03-0.43,0.09s-0.23,0.14-0.32,0.23c-0.09,0.1-0.16,0.21-0.2,0.34
		C49.52,163.61,49.5,163.75,49.5,163.9z"/>
	<path class="st0" d="M55.16,164.9h2.4v0.57h-3.04v-4.6h2.95v0.57h-2.31v1.38h2.17v0.55h-2.17V164.9z"/>
	<path class="st0" d="M58.84,165.47h-0.61v-4.91h0.61V165.47z"/>
	<path class="st0" d="M60.46,161.28c0,0.11-0.04,0.21-0.12,0.28c-0.08,0.07-0.18,0.11-0.29,0.11c-0.11,0-0.21-0.04-0.28-0.11
		c-0.08-0.08-0.12-0.17-0.12-0.28c0-0.11,0.04-0.21,0.12-0.28c0.08-0.08,0.17-0.11,0.28-0.11c0.11,0,0.21,0.04,0.29,0.11
		C60.42,161.08,60.46,161.17,60.46,161.28z M60.36,165.47h-0.61v-3.08h0.61V165.47z"/>
	<path class="st0" d="M62.77,162.89h-0.82v1.6c0,0.19,0.03,0.32,0.1,0.4c0.07,0.08,0.18,0.12,0.33,0.12c0.06,0,0.12-0.01,0.18-0.02
		c0.06-0.01,0.12-0.03,0.18-0.05l0.02,0.5c-0.07,0.03-0.15,0.05-0.24,0.06c-0.09,0.01-0.18,0.02-0.28,0.02
		c-0.29,0-0.51-0.08-0.67-0.24s-0.23-0.4-0.23-0.72v-1.67h-0.59v-0.5h0.59v-0.88h0.6v0.88h0.82V162.89z"/>
	<path class="st0" d="M66.12,163.91c0,0.03,0,0.07,0,0.1c0,0.04,0,0.07-0.01,0.1h-2.45c0,0.13,0.03,0.25,0.09,0.36
		c0.05,0.11,0.13,0.21,0.22,0.3c0.09,0.08,0.2,0.15,0.31,0.2c0.12,0.05,0.25,0.07,0.38,0.07c0.21,0,0.39-0.04,0.54-0.14
		c0.15-0.09,0.27-0.2,0.36-0.33l0.43,0.34c-0.16,0.22-0.36,0.38-0.58,0.48c-0.22,0.1-0.47,0.15-0.74,0.15
		c-0.23,0-0.45-0.04-0.65-0.12c-0.2-0.08-0.37-0.19-0.51-0.33c-0.14-0.14-0.26-0.31-0.34-0.51c-0.08-0.2-0.12-0.42-0.12-0.66
		c0-0.24,0.04-0.46,0.12-0.66c0.08-0.2,0.19-0.37,0.34-0.52c0.14-0.14,0.31-0.25,0.51-0.33s0.41-0.12,0.63-0.12s0.43,0.04,0.61,0.11
		s0.34,0.18,0.47,0.32c0.13,0.14,0.23,0.31,0.3,0.5S66.12,163.66,66.12,163.91z M65.49,163.66c0-0.12-0.03-0.23-0.06-0.34
		s-0.09-0.2-0.16-0.28s-0.16-0.14-0.27-0.18c-0.11-0.05-0.23-0.07-0.37-0.07c-0.13,0-0.25,0.02-0.37,0.07
		c-0.11,0.04-0.21,0.11-0.3,0.18s-0.15,0.17-0.21,0.28s-0.09,0.22-0.09,0.34H65.49z"/>
	<path class="st0" d="M71.38,163.93c0,0.24-0.04,0.46-0.13,0.66s-0.2,0.37-0.35,0.52c-0.15,0.14-0.33,0.26-0.53,0.34
		s-0.42,0.12-0.66,0.12s-0.45-0.04-0.66-0.12c-0.2-0.08-0.38-0.19-0.53-0.34c-0.15-0.15-0.26-0.32-0.35-0.52s-0.13-0.42-0.13-0.66
		c0-0.24,0.04-0.46,0.13-0.65c0.08-0.2,0.2-0.37,0.35-0.51c0.15-0.14,0.32-0.25,0.53-0.33c0.2-0.08,0.42-0.12,0.66-0.12
		s0.45,0.04,0.66,0.12s0.38,0.19,0.53,0.33c0.15,0.14,0.27,0.31,0.35,0.51C71.33,163.47,71.38,163.69,71.38,163.93z M70.74,163.93
		c0-0.15-0.02-0.29-0.07-0.42c-0.05-0.13-0.11-0.25-0.2-0.35s-0.19-0.18-0.32-0.24c-0.13-0.06-0.27-0.09-0.44-0.09
		s-0.31,0.03-0.44,0.09c-0.13,0.06-0.24,0.14-0.32,0.24c-0.09,0.1-0.15,0.22-0.2,0.35c-0.05,0.13-0.07,0.27-0.07,0.42
		s0.02,0.29,0.07,0.42c0.05,0.13,0.11,0.25,0.2,0.36c0.09,0.1,0.19,0.19,0.32,0.25c0.13,0.06,0.27,0.09,0.44,0.09
		s0.31-0.03,0.44-0.09c0.13-0.06,0.24-0.14,0.32-0.25c0.09-0.1,0.15-0.22,0.2-0.36C70.72,164.22,70.74,164.08,70.74,163.93z"/>
	<path class="st0" d="M72.61,162.39c0.01,0.08,0.02,0.17,0.02,0.26c0,0.1,0.01,0.18,0.01,0.24h0.02c0.04-0.08,0.09-0.16,0.16-0.23
		c0.07-0.07,0.14-0.13,0.23-0.19c0.09-0.05,0.18-0.1,0.29-0.13c0.1-0.03,0.21-0.04,0.32-0.04c0.2,0,0.37,0.03,0.51,0.1
		s0.26,0.16,0.36,0.27s0.17,0.24,0.21,0.4c0.05,0.15,0.07,0.31,0.07,0.49v1.91h-0.61v-1.71c0-0.12-0.01-0.24-0.03-0.36
		c-0.02-0.11-0.06-0.21-0.11-0.3c-0.05-0.09-0.12-0.16-0.21-0.21s-0.21-0.08-0.35-0.08c-0.24,0-0.44,0.09-0.59,0.28
		c-0.15,0.18-0.23,0.43-0.23,0.74v1.64h-0.61v-2.42c0-0.08,0-0.19-0.01-0.32s-0.01-0.25-0.02-0.34H72.61z"/>
	<path class="st0" d="M77.77,162.86c0.07-0.15,0.2-0.28,0.38-0.39c0.18-0.11,0.38-0.16,0.6-0.16c0.2,0,0.37,0.03,0.51,0.1
		c0.14,0.07,0.26,0.16,0.36,0.27s0.17,0.24,0.21,0.4c0.05,0.15,0.07,0.31,0.07,0.49v1.91h-0.61v-1.71c0-0.13-0.01-0.25-0.03-0.36
		c-0.02-0.11-0.06-0.21-0.11-0.3c-0.05-0.09-0.12-0.16-0.21-0.21c-0.09-0.05-0.2-0.08-0.35-0.08c-0.24,0-0.44,0.09-0.6,0.28
		c-0.16,0.18-0.23,0.43-0.23,0.74v1.63h-0.61v-4.91h0.61v2.3H77.77z"/>
	<path class="st0" d="M83.64,163.91c0,0.03,0,0.07,0,0.1c0,0.04,0,0.07-0.01,0.1h-2.45c0,0.13,0.03,0.25,0.09,0.36
		c0.05,0.11,0.13,0.21,0.22,0.3c0.09,0.08,0.2,0.15,0.31,0.2c0.12,0.05,0.25,0.07,0.38,0.07c0.21,0,0.39-0.04,0.54-0.14
		c0.15-0.09,0.27-0.2,0.36-0.33l0.43,0.34c-0.16,0.22-0.36,0.38-0.58,0.48c-0.22,0.1-0.47,0.15-0.74,0.15
		c-0.23,0-0.45-0.04-0.65-0.12c-0.2-0.08-0.37-0.19-0.51-0.33c-0.14-0.14-0.26-0.31-0.34-0.51c-0.08-0.2-0.12-0.42-0.12-0.66
		c0-0.24,0.04-0.46,0.12-0.66c0.08-0.2,0.19-0.37,0.34-0.52c0.14-0.14,0.31-0.25,0.51-0.33s0.41-0.12,0.63-0.12s0.43,0.04,0.61,0.11
		s0.34,0.18,0.47,0.32c0.13,0.14,0.23,0.31,0.3,0.5S83.64,163.66,83.64,163.91z M83.02,163.66c0-0.12-0.03-0.23-0.06-0.34
		s-0.09-0.2-0.16-0.28s-0.16-0.14-0.27-0.18c-0.11-0.05-0.23-0.07-0.37-0.07c-0.13,0-0.25,0.02-0.37,0.07
		c-0.11,0.04-0.21,0.11-0.3,0.18s-0.15,0.17-0.21,0.28s-0.09,0.22-0.09,0.34H83.02z"/>
	<path class="st0" d="M84.32,162.74c0-0.13-0.01-0.25-0.02-0.34h0.58c0.01,0.08,0.02,0.17,0.02,0.27c0,0.1,0.01,0.19,0.01,0.25h0.02
		c0.09-0.18,0.21-0.33,0.38-0.44c0.17-0.11,0.35-0.17,0.56-0.17c0.1,0,0.18,0.01,0.24,0.03l-0.03,0.56
		c-0.09-0.02-0.18-0.03-0.28-0.03c-0.15,0-0.27,0.03-0.38,0.08c-0.11,0.05-0.2,0.13-0.27,0.22c-0.07,0.09-0.12,0.2-0.16,0.31
		c-0.04,0.12-0.05,0.24-0.05,0.37v1.62h-0.61v-2.42C84.32,162.97,84.32,162.87,84.32,162.74z"/>
	<path class="st0" d="M89.89,163.48c0-0.23-0.07-0.4-0.21-0.51c-0.14-0.11-0.32-0.17-0.55-0.17c-0.17,0-0.34,0.03-0.49,0.1
		c-0.15,0.07-0.28,0.15-0.39,0.26l-0.32-0.39c0.15-0.14,0.34-0.25,0.56-0.34c0.22-0.08,0.45-0.12,0.7-0.12
		c0.22,0,0.41,0.03,0.57,0.09c0.16,0.06,0.3,0.15,0.4,0.26c0.1,0.11,0.18,0.24,0.23,0.38c0.05,0.15,0.08,0.31,0.08,0.47v1.34
		c0,0.1,0,0.21,0.01,0.33c0.01,0.11,0.02,0.21,0.04,0.28h-0.55c-0.03-0.15-0.05-0.29-0.05-0.44h-0.02
		c-0.11,0.16-0.25,0.29-0.43,0.38s-0.37,0.14-0.61,0.14c-0.12,0-0.25-0.02-0.38-0.05s-0.25-0.09-0.36-0.16
		c-0.11-0.07-0.2-0.17-0.27-0.29s-0.11-0.27-0.11-0.45c0-0.23,0.06-0.42,0.19-0.55c0.13-0.14,0.29-0.24,0.49-0.31
		c0.2-0.07,0.43-0.12,0.69-0.14c0.26-0.02,0.51-0.03,0.77-0.03V163.48z M89.74,164c-0.15,0-0.31,0.01-0.47,0.02
		c-0.16,0.01-0.31,0.04-0.44,0.08c-0.13,0.04-0.24,0.1-0.33,0.18c-0.09,0.08-0.13,0.18-0.13,0.31c0,0.09,0.02,0.17,0.06,0.23
		c0.04,0.06,0.09,0.11,0.15,0.15c0.06,0.04,0.13,0.07,0.2,0.08c0.07,0.02,0.15,0.02,0.23,0.02c0.29,0,0.51-0.09,0.66-0.26
		s0.23-0.39,0.23-0.65V164H89.74z"/>
	<path class="st0" d="M91.93,164.98v0.49h-0.59v-4.91h0.61v2.29h0.02c0.1-0.15,0.25-0.28,0.43-0.39c0.19-0.11,0.41-0.16,0.66-0.16
		c0.23,0,0.44,0.04,0.63,0.12c0.19,0.08,0.35,0.2,0.49,0.34c0.14,0.15,0.24,0.32,0.31,0.52c0.07,0.2,0.11,0.41,0.11,0.63
		c0,0.22-0.04,0.44-0.11,0.64c-0.07,0.2-0.18,0.37-0.31,0.52s-0.3,0.26-0.49,0.35c-0.19,0.08-0.4,0.13-0.64,0.13
		c-0.22,0-0.43-0.05-0.63-0.15s-0.36-0.24-0.48-0.43H91.93z M93.98,163.93c0-0.14-0.02-0.28-0.06-0.41
		c-0.04-0.13-0.11-0.25-0.19-0.36c-0.09-0.1-0.19-0.19-0.32-0.25c-0.13-0.06-0.28-0.09-0.44-0.09c-0.16,0-0.3,0.03-0.43,0.09
		c-0.13,0.06-0.24,0.14-0.33,0.25s-0.16,0.22-0.21,0.36s-0.07,0.27-0.07,0.42c0,0.15,0.02,0.29,0.07,0.42
		c0.05,0.13,0.12,0.25,0.21,0.35s0.2,0.18,0.33,0.24c0.13,0.06,0.27,0.09,0.43,0.09c0.17,0,0.32-0.03,0.44-0.09
		c0.13-0.06,0.23-0.15,0.32-0.25c0.09-0.1,0.15-0.22,0.19-0.36C93.96,164.21,93.98,164.07,93.98,163.93z"/>
	<path class="st0" d="M97.75,164.98c-0.12,0.19-0.28,0.33-0.48,0.43c-0.2,0.1-0.41,0.15-0.63,0.15c-0.24,0-0.45-0.04-0.64-0.13
		c-0.19-0.08-0.35-0.2-0.49-0.35s-0.24-0.32-0.31-0.52c-0.07-0.2-0.11-0.41-0.11-0.64c0-0.23,0.04-0.44,0.11-0.63
		c0.07-0.2,0.18-0.37,0.31-0.52c0.14-0.15,0.3-0.26,0.49-0.34c0.19-0.08,0.4-0.12,0.63-0.12c0.25,0,0.47,0.05,0.66,0.16
		c0.19,0.11,0.33,0.23,0.44,0.39h0.01v-2.29h0.61v4.91h-0.59v-0.49H97.75z M95.73,163.93c0,0.14,0.02,0.28,0.06,0.41
		c0.04,0.13,0.11,0.25,0.19,0.36c0.09,0.1,0.19,0.19,0.32,0.25s0.27,0.09,0.44,0.09c0.16,0,0.3-0.03,0.43-0.09
		c0.13-0.06,0.24-0.14,0.33-0.24s0.16-0.22,0.21-0.35c0.05-0.13,0.07-0.27,0.07-0.42c0-0.15-0.02-0.29-0.07-0.42
		s-0.12-0.25-0.21-0.36s-0.2-0.19-0.33-0.25c-0.13-0.06-0.27-0.09-0.43-0.09c-0.17,0-0.32,0.03-0.44,0.09s-0.23,0.14-0.32,0.25
		c-0.09,0.1-0.15,0.22-0.19,0.36C95.75,163.65,95.73,163.79,95.73,163.93z"/>
	<path class="st0" d="M102.37,163.93c0,0.24-0.04,0.46-0.13,0.66s-0.2,0.37-0.35,0.52c-0.15,0.14-0.33,0.26-0.53,0.34
		s-0.42,0.12-0.66,0.12s-0.45-0.04-0.66-0.12c-0.2-0.08-0.38-0.19-0.53-0.34c-0.15-0.15-0.26-0.32-0.35-0.52s-0.13-0.42-0.13-0.66
		c0-0.24,0.04-0.46,0.13-0.65c0.08-0.2,0.2-0.37,0.35-0.51c0.15-0.14,0.32-0.25,0.53-0.33c0.2-0.08,0.42-0.12,0.66-0.12
		s0.45,0.04,0.66,0.12s0.38,0.19,0.53,0.33c0.15,0.14,0.27,0.31,0.35,0.51C102.33,163.47,102.37,163.69,102.37,163.93z
		 M101.74,163.93c0-0.15-0.02-0.29-0.07-0.42c-0.05-0.13-0.11-0.25-0.2-0.35s-0.19-0.18-0.32-0.24c-0.13-0.06-0.27-0.09-0.44-0.09
		s-0.31,0.03-0.44,0.09c-0.13,0.06-0.24,0.14-0.32,0.24c-0.09,0.1-0.15,0.22-0.2,0.35c-0.05,0.13-0.07,0.27-0.07,0.42
		s0.02,0.29,0.07,0.42c0.05,0.13,0.11,0.25,0.2,0.36c0.09,0.1,0.19,0.19,0.32,0.25c0.13,0.06,0.27,0.09,0.44,0.09
		s0.31-0.03,0.44-0.09c0.13-0.06,0.24-0.14,0.32-0.25c0.09-0.1,0.15-0.22,0.2-0.36C101.71,164.22,101.74,164.08,101.74,163.93z"/>
	<path class="st0" d="M104.03,162.48c0.17-0.11,0.37-0.17,0.61-0.17c0.21,0,0.39,0.05,0.56,0.14c0.17,0.1,0.3,0.25,0.39,0.47
		c0.1-0.2,0.25-0.35,0.44-0.46c0.19-0.11,0.39-0.16,0.61-0.16c0.2,0,0.37,0.03,0.51,0.1c0.14,0.07,0.26,0.16,0.36,0.27
		s0.17,0.24,0.21,0.4c0.05,0.15,0.07,0.31,0.07,0.49v1.91h-0.61v-1.71c0-0.12-0.01-0.24-0.03-0.36c-0.02-0.11-0.06-0.21-0.11-0.3
		c-0.05-0.09-0.12-0.16-0.21-0.21s-0.2-0.08-0.33-0.08c-0.14,0-0.26,0.03-0.36,0.09s-0.18,0.13-0.24,0.23
		c-0.06,0.09-0.11,0.2-0.14,0.31c-0.03,0.12-0.04,0.24-0.04,0.36v1.66h-0.61v-1.83c0-0.12-0.01-0.23-0.03-0.33
		c-0.02-0.1-0.06-0.19-0.11-0.26c-0.05-0.07-0.12-0.13-0.2-0.17c-0.08-0.04-0.18-0.06-0.31-0.06c-0.23,0-0.41,0.09-0.56,0.28
		c-0.15,0.18-0.22,0.43-0.22,0.74v1.64h-0.61v-2.42c0-0.08,0-0.19-0.01-0.32s-0.01-0.25-0.02-0.34h0.58
		c0.01,0.08,0.02,0.17,0.02,0.26c0,0.1,0.01,0.18,0.01,0.24h0.02C103.73,162.74,103.86,162.6,104.03,162.48z"/>
	<path class="st0" d="M111.53,163.91c0,0.03,0,0.07,0,0.1c0,0.04,0,0.07-0.01,0.1h-2.45c0,0.13,0.03,0.25,0.09,0.36
		c0.05,0.11,0.13,0.21,0.22,0.3c0.09,0.08,0.2,0.15,0.31,0.2c0.12,0.05,0.25,0.07,0.38,0.07c0.21,0,0.39-0.04,0.54-0.14
		c0.15-0.09,0.27-0.2,0.36-0.33l0.43,0.34c-0.16,0.22-0.36,0.38-0.58,0.48c-0.22,0.1-0.47,0.15-0.74,0.15
		c-0.23,0-0.45-0.04-0.65-0.12c-0.2-0.08-0.37-0.19-0.51-0.33c-0.14-0.14-0.26-0.31-0.34-0.51c-0.08-0.2-0.12-0.42-0.12-0.66
		c0-0.24,0.04-0.46,0.12-0.66c0.08-0.2,0.19-0.37,0.34-0.52c0.14-0.14,0.31-0.25,0.51-0.33s0.41-0.12,0.63-0.12s0.43,0.04,0.61,0.11
		s0.34,0.18,0.47,0.32c0.13,0.14,0.23,0.31,0.3,0.5S111.53,163.66,111.53,163.91z M110.91,163.66c0-0.12-0.03-0.23-0.06-0.34
		s-0.09-0.2-0.16-0.28s-0.16-0.14-0.27-0.18c-0.11-0.05-0.23-0.07-0.37-0.07c-0.13,0-0.25,0.02-0.37,0.07
		c-0.11,0.04-0.21,0.11-0.3,0.18s-0.15,0.17-0.21,0.28s-0.09,0.22-0.09,0.34H110.91z"/>
	<path class="st0" d="M112.76,162.39c0.01,0.08,0.02,0.17,0.02,0.26c0,0.1,0.01,0.18,0.01,0.24h0.02c0.04-0.08,0.09-0.16,0.16-0.23
		c0.07-0.07,0.14-0.13,0.23-0.19c0.09-0.05,0.18-0.1,0.29-0.13c0.1-0.03,0.21-0.04,0.32-0.04c0.2,0,0.37,0.03,0.51,0.1
		s0.26,0.16,0.36,0.27s0.17,0.24,0.21,0.4c0.05,0.15,0.07,0.31,0.07,0.49v1.91h-0.61v-1.71c0-0.12-0.01-0.24-0.03-0.36
		c-0.02-0.11-0.06-0.21-0.11-0.3c-0.05-0.09-0.12-0.16-0.21-0.21s-0.21-0.08-0.35-0.08c-0.24,0-0.44,0.09-0.59,0.28
		c-0.15,0.18-0.23,0.43-0.23,0.74v1.64h-0.61v-2.42c0-0.08,0-0.19-0.01-0.32s-0.01-0.25-0.02-0.34H112.76z"/>
	<path class="st0" d="M116.58,165.08c0,0.11-0.04,0.21-0.12,0.3s-0.19,0.13-0.31,0.13c-0.12,0-0.22-0.04-0.31-0.13
		c-0.08-0.08-0.13-0.18-0.13-0.29c0-0.12,0.04-0.22,0.12-0.3c0.08-0.08,0.19-0.13,0.31-0.13s0.23,0.04,0.31,0.12
		S116.58,164.96,116.58,165.08z"/>
	<path class="st0" d="M119.29,165.47h-0.64v-4.6h1.47c0.22,0,0.43,0.02,0.63,0.07c0.2,0.05,0.37,0.12,0.52,0.22s0.27,0.23,0.35,0.39
		c0.09,0.16,0.13,0.36,0.13,0.59c0,0.34-0.1,0.61-0.31,0.82c-0.21,0.21-0.48,0.34-0.81,0.4l1.29,2.11h-0.78l-1.17-2.04h-0.69V165.47
		z M119.29,162.89h0.74c0.15,0,0.29-0.01,0.42-0.04c0.13-0.03,0.24-0.07,0.34-0.13c0.1-0.06,0.17-0.13,0.23-0.23
		c0.06-0.09,0.08-0.21,0.08-0.35s-0.03-0.25-0.08-0.35c-0.06-0.09-0.13-0.17-0.22-0.22c-0.09-0.06-0.2-0.1-0.33-0.12
		c-0.13-0.02-0.26-0.04-0.4-0.04h-0.79V162.89z"/>
	<path class="st0" d="M125.24,163.91c0,0.03,0,0.07,0,0.1c0,0.04,0,0.07-0.01,0.1h-2.45c0,0.13,0.03,0.25,0.09,0.36
		c0.05,0.11,0.13,0.21,0.22,0.3c0.09,0.08,0.2,0.15,0.31,0.2c0.12,0.05,0.25,0.07,0.38,0.07c0.21,0,0.39-0.04,0.54-0.14
		c0.15-0.09,0.27-0.2,0.36-0.33l0.43,0.34c-0.16,0.22-0.36,0.38-0.58,0.48c-0.22,0.1-0.47,0.15-0.74,0.15
		c-0.23,0-0.45-0.04-0.65-0.12c-0.2-0.08-0.37-0.19-0.51-0.33c-0.14-0.14-0.26-0.31-0.34-0.51c-0.08-0.2-0.12-0.42-0.12-0.66
		c0-0.24,0.04-0.46,0.12-0.66c0.08-0.2,0.19-0.37,0.34-0.52c0.14-0.14,0.31-0.25,0.51-0.33s0.41-0.12,0.63-0.12s0.43,0.04,0.61,0.11
		s0.34,0.18,0.47,0.32c0.13,0.14,0.23,0.31,0.3,0.5S125.24,163.66,125.24,163.91z M124.62,163.66c0-0.12-0.03-0.23-0.06-0.34
		s-0.09-0.2-0.16-0.28s-0.16-0.14-0.27-0.18c-0.11-0.05-0.23-0.07-0.37-0.07c-0.13,0-0.25,0.02-0.37,0.07
		c-0.11,0.04-0.21,0.11-0.3,0.18s-0.15,0.17-0.21,0.28s-0.09,0.22-0.09,0.34H124.62z"/>
	<path class="st0" d="M127.59,163.17c-0.07-0.11-0.17-0.2-0.29-0.28s-0.27-0.11-0.42-0.11c-0.07,0-0.14,0.01-0.21,0.02
		c-0.07,0.02-0.13,0.04-0.19,0.07c-0.05,0.03-0.1,0.07-0.13,0.12c-0.03,0.05-0.05,0.11-0.05,0.18c0,0.13,0.06,0.23,0.18,0.29
		c0.12,0.06,0.29,0.12,0.53,0.17c0.15,0.04,0.28,0.08,0.41,0.12c0.13,0.05,0.23,0.11,0.33,0.18c0.09,0.07,0.17,0.16,0.22,0.26
		c0.05,0.1,0.08,0.22,0.08,0.35c0,0.18-0.03,0.34-0.1,0.46c-0.07,0.13-0.16,0.23-0.28,0.31s-0.25,0.14-0.39,0.17
		c-0.15,0.04-0.3,0.05-0.45,0.05c-0.23,0-0.46-0.04-0.69-0.14c-0.22-0.09-0.41-0.23-0.56-0.42l0.44-0.37
		c0.08,0.12,0.2,0.22,0.34,0.31s0.3,0.12,0.48,0.12c0.08,0,0.15-0.01,0.22-0.02c0.07-0.02,0.14-0.04,0.19-0.08
		c0.06-0.03,0.1-0.08,0.14-0.14c0.03-0.06,0.05-0.13,0.05-0.21c0-0.14-0.07-0.25-0.2-0.32c-0.14-0.07-0.34-0.13-0.6-0.2
		c-0.1-0.03-0.21-0.06-0.31-0.09c-0.11-0.04-0.2-0.09-0.29-0.15c-0.09-0.06-0.16-0.15-0.21-0.24s-0.08-0.22-0.08-0.36
		c0-0.16,0.03-0.31,0.1-0.42c0.07-0.12,0.15-0.22,0.26-0.29c0.11-0.08,0.23-0.13,0.37-0.17c0.14-0.04,0.28-0.05,0.43-0.05
		c0.22,0,0.43,0.04,0.64,0.13s0.36,0.21,0.48,0.38L127.59,163.17z"/>
	<path class="st0" d="M130.81,165.47c-0.01-0.08-0.02-0.17-0.02-0.26c0-0.1-0.01-0.18-0.01-0.24h-0.01
		c-0.08,0.17-0.21,0.3-0.39,0.42c-0.18,0.12-0.39,0.17-0.61,0.17c-0.2,0-0.37-0.03-0.52-0.1c-0.15-0.07-0.26-0.16-0.36-0.27
		c-0.09-0.12-0.16-0.25-0.21-0.4c-0.05-0.15-0.07-0.31-0.07-0.49v-1.91h0.61v1.7c0,0.13,0.01,0.25,0.03,0.36
		c0.02,0.12,0.06,0.22,0.11,0.3c0.05,0.09,0.12,0.16,0.21,0.21c0.09,0.05,0.21,0.08,0.35,0.08c0.25,0,0.45-0.09,0.6-0.28
		c0.15-0.18,0.23-0.43,0.23-0.74v-1.64h0.61v2.42c0,0.08,0,0.19,0.01,0.32s0.01,0.24,0.02,0.34H130.81z"/>
	<path class="st0" d="M132.88,165.47h-0.61v-4.91h0.61V165.47z"/>
	<path class="st0" d="M135.29,162.89h-0.82v1.6c0,0.19,0.03,0.32,0.1,0.4c0.07,0.08,0.18,0.12,0.33,0.12c0.06,0,0.12-0.01,0.18-0.02
		c0.06-0.01,0.12-0.03,0.18-0.05l0.02,0.5c-0.07,0.03-0.15,0.05-0.24,0.06c-0.09,0.01-0.18,0.02-0.28,0.02
		c-0.29,0-0.51-0.08-0.67-0.24s-0.23-0.4-0.23-0.72v-1.67h-0.59v-0.5h0.59v-0.88h0.6v0.88h0.82V162.89z"/>
	<path class="st0" d="M137.42,163.17c-0.07-0.11-0.17-0.2-0.29-0.28s-0.27-0.11-0.42-0.11c-0.07,0-0.14,0.01-0.21,0.02
		c-0.07,0.02-0.13,0.04-0.19,0.07c-0.05,0.03-0.1,0.07-0.13,0.12c-0.03,0.05-0.05,0.11-0.05,0.18c0,0.13,0.06,0.23,0.18,0.29
		c0.12,0.06,0.29,0.12,0.53,0.17c0.15,0.04,0.28,0.08,0.41,0.12c0.13,0.05,0.23,0.11,0.33,0.18c0.09,0.07,0.17,0.16,0.22,0.26
		c0.05,0.1,0.08,0.22,0.08,0.35c0,0.18-0.03,0.34-0.1,0.46c-0.07,0.13-0.16,0.23-0.28,0.31s-0.25,0.14-0.39,0.17
		c-0.15,0.04-0.3,0.05-0.45,0.05c-0.23,0-0.46-0.04-0.69-0.14c-0.22-0.09-0.41-0.23-0.56-0.42l0.44-0.37
		c0.08,0.12,0.2,0.22,0.34,0.31s0.3,0.12,0.48,0.12c0.08,0,0.15-0.01,0.22-0.02c0.07-0.02,0.14-0.04,0.19-0.08
		c0.06-0.03,0.1-0.08,0.14-0.14c0.03-0.06,0.05-0.13,0.05-0.21c0-0.14-0.07-0.25-0.2-0.32c-0.14-0.07-0.34-0.13-0.6-0.2
		c-0.1-0.03-0.21-0.06-0.31-0.09c-0.11-0.04-0.2-0.09-0.29-0.15c-0.09-0.06-0.16-0.15-0.21-0.24s-0.08-0.22-0.08-0.36
		c0-0.16,0.03-0.31,0.1-0.42c0.07-0.12,0.15-0.22,0.26-0.29c0.11-0.08,0.23-0.13,0.37-0.17c0.14-0.04,0.28-0.05,0.43-0.05
		c0.22,0,0.43,0.04,0.64,0.13s0.36,0.21,0.48,0.38L137.42,163.17z"/>
	<path class="st0" d="M140.91,162.48c0.17-0.11,0.37-0.17,0.61-0.17c0.21,0,0.39,0.05,0.56,0.14c0.17,0.1,0.3,0.25,0.39,0.47
		c0.1-0.2,0.25-0.35,0.44-0.46c0.19-0.11,0.39-0.16,0.61-0.16c0.2,0,0.37,0.03,0.51,0.1c0.14,0.07,0.26,0.16,0.36,0.27
		s0.17,0.24,0.21,0.4c0.05,0.15,0.07,0.31,0.07,0.49v1.91h-0.61v-1.71c0-0.12-0.01-0.24-0.03-0.36c-0.02-0.11-0.06-0.21-0.11-0.3
		c-0.05-0.09-0.12-0.16-0.21-0.21s-0.2-0.08-0.33-0.08c-0.14,0-0.26,0.03-0.36,0.09s-0.18,0.13-0.24,0.23
		c-0.06,0.09-0.11,0.2-0.14,0.31c-0.03,0.12-0.04,0.24-0.04,0.36v1.66h-0.61v-1.83c0-0.12-0.01-0.23-0.03-0.33
		c-0.02-0.1-0.06-0.19-0.11-0.26c-0.05-0.07-0.12-0.13-0.2-0.17c-0.08-0.04-0.18-0.06-0.31-0.06c-0.23,0-0.41,0.09-0.56,0.28
		c-0.15,0.18-0.22,0.43-0.22,0.74v1.64h-0.61v-2.42c0-0.08,0-0.19-0.01-0.32s-0.01-0.25-0.02-0.34h0.58
		c0.01,0.08,0.02,0.17,0.02,0.26c0,0.1,0.01,0.18,0.01,0.24h0.02C140.62,162.74,140.74,162.6,140.91,162.48z"/>
	<path class="st0" d="M147.46,163.48c0-0.23-0.07-0.4-0.21-0.51c-0.14-0.11-0.32-0.17-0.55-0.17c-0.17,0-0.34,0.03-0.49,0.1
		c-0.15,0.07-0.28,0.15-0.39,0.26l-0.32-0.39c0.15-0.14,0.34-0.25,0.56-0.34c0.22-0.08,0.45-0.12,0.7-0.12
		c0.22,0,0.41,0.03,0.57,0.09c0.16,0.06,0.3,0.15,0.4,0.26c0.1,0.11,0.18,0.24,0.23,0.38c0.05,0.15,0.08,0.31,0.08,0.47v1.34
		c0,0.1,0,0.21,0.01,0.33c0.01,0.11,0.02,0.21,0.04,0.28h-0.55c-0.03-0.15-0.05-0.29-0.05-0.44h-0.02
		c-0.11,0.16-0.25,0.29-0.43,0.38s-0.37,0.14-0.61,0.14c-0.12,0-0.25-0.02-0.38-0.05s-0.25-0.09-0.36-0.16
		c-0.11-0.07-0.2-0.17-0.27-0.29s-0.11-0.27-0.11-0.45c0-0.23,0.06-0.42,0.19-0.55c0.13-0.14,0.29-0.24,0.49-0.31
		c0.2-0.07,0.43-0.12,0.69-0.14c0.26-0.02,0.51-0.03,0.77-0.03V163.48z M147.31,164c-0.15,0-0.31,0.01-0.47,0.02
		c-0.16,0.01-0.31,0.04-0.44,0.08c-0.13,0.04-0.24,0.1-0.33,0.18c-0.09,0.08-0.13,0.18-0.13,0.31c0,0.09,0.02,0.17,0.06,0.23
		c0.04,0.06,0.09,0.11,0.15,0.15c0.06,0.04,0.13,0.07,0.2,0.08c0.07,0.02,0.15,0.02,0.23,0.02c0.29,0,0.51-0.09,0.66-0.26
		s0.23-0.39,0.23-0.65V164H147.31z"/>
	<path class="st0" d="M150.07,164.81h0.01l0.85-2.42h0.65l-1.49,3.81c-0.05,0.13-0.11,0.25-0.17,0.35c-0.06,0.1-0.13,0.19-0.21,0.26
		c-0.08,0.07-0.18,0.13-0.29,0.17s-0.24,0.06-0.39,0.06c-0.06,0-0.13,0-0.2-0.01c-0.07-0.01-0.14-0.02-0.2-0.04l0.06-0.54
		c0.1,0.04,0.21,0.05,0.31,0.05c0.16,0,0.28-0.04,0.36-0.13c0.08-0.09,0.15-0.21,0.21-0.38l0.19-0.51l-1.32-3.08h0.68L150.07,164.81
		z"/>
	<path class="st0" d="M154.92,165.47h-0.66l-1.25-3.08h0.67l0.9,2.42h0.01l0.91-2.42h0.65L154.92,165.47z"/>
	<path class="st0" d="M158.49,163.48c0-0.23-0.07-0.4-0.21-0.51s-0.32-0.17-0.55-0.17c-0.17,0-0.34,0.03-0.49,0.1
		c-0.15,0.07-0.28,0.15-0.39,0.26l-0.32-0.39c0.15-0.14,0.34-0.25,0.56-0.34c0.22-0.08,0.45-0.12,0.7-0.12
		c0.22,0,0.41,0.03,0.57,0.09c0.16,0.06,0.3,0.15,0.4,0.26c0.1,0.11,0.18,0.24,0.23,0.38c0.05,0.15,0.08,0.31,0.08,0.47v1.34
		c0,0.1,0,0.21,0.01,0.33c0.01,0.11,0.02,0.21,0.04,0.28h-0.55c-0.04-0.15-0.05-0.29-0.05-0.44h-0.02
		c-0.11,0.16-0.25,0.29-0.43,0.38s-0.37,0.14-0.61,0.14c-0.12,0-0.25-0.02-0.38-0.05c-0.13-0.03-0.25-0.09-0.36-0.16
		c-0.11-0.07-0.2-0.17-0.27-0.29c-0.07-0.12-0.11-0.27-0.11-0.45c0-0.23,0.06-0.42,0.19-0.55c0.12-0.14,0.29-0.24,0.49-0.31
		c0.2-0.07,0.43-0.12,0.69-0.14c0.25-0.02,0.51-0.03,0.77-0.03V163.48z M158.34,164c-0.15,0-0.31,0.01-0.47,0.02
		c-0.16,0.01-0.31,0.04-0.44,0.08s-0.24,0.1-0.33,0.18c-0.09,0.08-0.13,0.18-0.13,0.31c0,0.09,0.02,0.17,0.06,0.23
		c0.04,0.06,0.08,0.11,0.15,0.15s0.13,0.07,0.2,0.08c0.07,0.02,0.15,0.02,0.23,0.02c0.29,0,0.51-0.09,0.66-0.26s0.23-0.39,0.23-0.65
		V164H158.34z"/>
	<path class="st0" d="M159.93,162.74c0-0.13-0.01-0.25-0.02-0.34h0.58c0.01,0.08,0.01,0.17,0.02,0.27c0,0.1,0.01,0.19,0.01,0.25
		h0.02c0.09-0.18,0.21-0.33,0.38-0.44c0.17-0.11,0.35-0.17,0.56-0.17c0.1,0,0.18,0.01,0.24,0.03l-0.03,0.56
		c-0.09-0.02-0.18-0.03-0.28-0.03c-0.15,0-0.28,0.03-0.38,0.08c-0.11,0.05-0.2,0.13-0.27,0.22s-0.12,0.2-0.16,0.31
		c-0.04,0.12-0.05,0.24-0.05,0.37v1.62h-0.61v-2.42C159.94,162.97,159.93,162.87,159.93,162.74z"/>
	<path class="st0" d="M163.29,164.81h0.01l0.85-2.42h0.65l-1.49,3.81c-0.05,0.13-0.11,0.25-0.17,0.35c-0.06,0.1-0.13,0.19-0.21,0.26
		c-0.08,0.07-0.18,0.13-0.29,0.17s-0.24,0.06-0.39,0.06c-0.07,0-0.13,0-0.2-0.01c-0.07-0.01-0.13-0.02-0.2-0.04l0.06-0.54
		c0.1,0.04,0.21,0.05,0.3,0.05c0.16,0,0.28-0.04,0.36-0.13c0.08-0.09,0.15-0.21,0.21-0.38l0.2-0.51l-1.32-3.08h0.68L163.29,164.81z"
		/>
	<path class="st0" d="M165.75,165.08c0,0.11-0.04,0.21-0.12,0.3c-0.08,0.09-0.19,0.13-0.31,0.13c-0.12,0-0.22-0.04-0.31-0.13
		c-0.08-0.08-0.13-0.18-0.13-0.29c0-0.12,0.04-0.22,0.12-0.3c0.08-0.08,0.19-0.13,0.31-0.13c0.13,0,0.23,0.04,0.31,0.12
		C165.71,164.87,165.75,164.96,165.75,165.08z"/>
</g>
</svg>
