<?xml version="1.0" encoding="utf-8"?>
<!-- Generator: Adobe Illustrator 25.2.1, SVG Export Plug-In . SVG Version: 6.00 Build 0)  -->
<svg version="1.1" id="Layer_1" xmlns="http://www.w3.org/2000/svg" xmlns:xlink="http://www.w3.org/1999/xlink" x="0px" y="0px"
	 viewBox="0 0 300 250" style="enable-background:new 0 0 300 250;" xml:space="preserve">
<style type="text/css">
	.st0{fill:#FFFFFF;}
</style>
<g>
	<g>
		<g>
			<g>
				<path class="st0" d="M23.49,23.65c0,0.24-0.19,0.43-0.44,0.43c-0.24,0-0.44-0.19-0.44-0.43c0-0.24,0.2-0.43,0.44-0.43
					C23.3,23.22,23.49,23.41,23.49,23.65z M22.72,23.65c0,0.19,0.14,0.34,0.33,0.34c0.18,0,0.33-0.15,0.33-0.34
					c0-0.19-0.14-0.34-0.33-0.34C22.87,23.31,22.72,23.46,22.72,23.65z M22.99,23.87h-0.1v-0.43c0.04-0.01,0.09-0.01,0.16-0.01
					c0.08,0,0.12,0.01,0.15,0.03c0.03,0.02,0.04,0.05,0.04,0.09c0,0.05-0.04,0.09-0.09,0.1v0.01c0.04,0.01,0.06,0.05,0.08,0.1
					c0.01,0.06,0.02,0.09,0.03,0.1h-0.1c-0.01-0.02-0.02-0.05-0.03-0.1c-0.01-0.04-0.03-0.06-0.09-0.06h-0.05V23.87z M22.99,23.63
					h0.05c0.05,0,0.1-0.02,0.1-0.06c0-0.04-0.03-0.06-0.09-0.06c-0.03,0-0.04,0-0.05,0.01V23.63z"/>
			</g>
		</g>
	</g>
	<path class="st0" d="M29.88,22.16c-2.13,0-3.15-1.55-3.15-3.04c0-1.72,1.24-3.1,3.18-3.1c0.66,0,1.35,0.2,1.89,0.66l-0.6,0.84
		c-0.37-0.29-0.77-0.39-1.25-0.39c-1.03,0-1.8,0.72-1.8,1.96c0,1.13,0.71,2.03,1.84,2.03c0.48,0,0.9-0.14,1.27-0.47l0.55,0.84
		C31.29,21.95,30.56,22.16,29.88,22.16"/>
	<path class="st0" d="M35.08,22.16c-1.78,0-3.09-1.34-3.09-3.1c0-1.8,1.43-3.04,3.09-3.04c1.66,0,3.1,1.22,3.1,3.03
		C38.18,20.82,36.87,22.16,35.08,22.16 M36.75,19.06c0-1.08-0.53-2.02-1.67-2.02c-1.12,0-1.67,0.94-1.67,2
		c0,1.11,0.52,2.09,1.67,2.09c1.15,0,1.67-0.97,1.67-2.09V19.06z"/>
	<path class="st0" d="M41.78,22.16c-1.78,0-3.09-1.34-3.09-3.1c0-1.8,1.43-3.04,3.09-3.04c1.66,0,3.1,1.22,3.1,3.03
		C44.88,20.82,43.57,22.16,41.78,22.16 M43.45,19.06c0-1.08-0.53-2.02-1.67-2.02c-1.12,0-1.67,0.94-1.67,2
		c0,1.11,0.52,2.09,1.67,2.09c1.15,0,1.67-0.97,1.67-2.09V19.06z"/>
	<polygon class="st0" points="45.58,22.02 45.58,13.42 46.91,14.15 46.91,22.02 	"/>
	<path class="st0" d="M49.98,22.2c-1.5,0-2.22-0.72-2.22-0.72l0.6-0.78c0,0,0.68,0.46,1.58,0.46c0.43,0,0.79-0.3,0.79-0.6
		c0-0.3-0.13-0.55-0.53-0.76c-0.4-0.21-0.84-0.42-1.19-0.59c-0.35-0.17-1.12-0.69-1.12-1.7c0-1.02,1.03-1.58,2.09-1.58
		c1.01,0,1.78,0.66,1.78,0.66l-0.52,0.79c0,0-0.58-0.41-1.21-0.41c-0.64,0-0.77,0.41-0.77,0.58c0,0.17,0.06,0.43,0.47,0.65
		c0.41,0.22,0.83,0.44,1.43,0.78c0.6,0.34,0.94,0.91,0.94,1.56C52.11,21.19,51.49,22.2,49.98,22.2"/>
	<path class="st0" d="M55.71,22.16c-2.13,0-3.15-1.55-3.15-3.04c0-1.72,1.24-3.1,3.18-3.1c0.66,0,1.34,0.2,1.89,0.66l-0.6,0.84
		c-0.37-0.29-0.77-0.39-1.25-0.39c-1.03,0-1.8,0.72-1.8,1.96c0,1.13,0.71,2.03,1.84,2.03c0.48,0,0.9-0.14,1.27-0.47l0.55,0.84
		C57.12,21.95,56.4,22.16,55.71,22.16"/>
	<path class="st0" d="M62.28,21.33c0,0-0.67,0.83-1.95,0.83c-1.5,0-2.23-1.09-2.23-2.2v-3.81h1.33v3.75c0,0.65,0.51,1.19,1.29,1.19
		c0.69,0,1.36-0.82,1.36-0.82v-4.12h1.33v5.85L62.28,21.33z"/>
	<polygon class="st0" points="64.6,22.02 64.6,13.42 65.93,14.15 65.93,22.02 	"/>
	<path class="st0" d="M70.34,22.16c-1.18,0-1.85-0.66-1.85-0.66v2.92h-1.35v-8.38l1.35,0.71c0,0,0.72-0.73,1.92-0.73
		c1.26,0,2.83,0.97,2.83,3.15C73.25,21.33,71.7,22.16,70.34,22.16 M70.26,17.05c-1.14,0-1.8,1.07-1.8,1.07v2.21
		c0,0,0.76,0.85,1.85,0.85c1.27,0,1.55-1.53,1.55-2.05C71.85,18.6,71.73,17.05,70.26,17.05"/>
	<path class="st0" d="M76.75,22.18h-0.84c-1.06,0-1.42-1.02-1.42-1.69v-3.45h-1.06v-0.88h1.06v-2.58h1.32v2.58h1.36v0.88h-1.35v3.12
		c0,0.35-0.06,0.9,0.53,0.9h0.96L76.75,22.18z"/>
	<path class="st0" d="M78.89,15.15c-0.48,0-0.88-0.4-0.88-0.88c0-0.48,0.4-0.88,0.88-0.88c0.48,0,0.88,0.39,0.88,0.88
		C79.77,14.75,79.37,15.15,78.89,15.15 M78.23,16.16h1.31v5.86h-1.31V16.16z"/>
	<path class="st0" d="M84.82,22.02v-3.75c0-0.65-0.5-1.19-1.28-1.19c-0.69,0-1.45,0.82-1.45,0.82v4.12h-1.33v-5.85l1.13,0.67
		c0,0,0.77-0.83,2.04-0.83c1.5,0,2.23,1.09,2.23,2.2v3.81H84.82z"/>
	<path class="st0" d="M90.23,24.74c-0.2,0-1.77-0.02-1.77-0.02l0.02-1.07h1.31c1.27,0,1.99-0.68,1.99-1.62V21.5
		c0,0-0.7,0.66-1.87,0.66c-1.36,0-2.91-0.83-2.91-3c0-2.17,1.57-3.15,2.83-3.15c1.2,0,1.92,0.73,1.92,0.73l1.35-0.67v5.82
		C93.11,23.47,92.07,24.74,90.23,24.74 M91.8,18.12c0,0-0.66-1.07-1.8-1.07c-1.48,0-1.6,1.55-1.6,2.08c0,0.53,0.28,2.05,1.55,2.05
		c1.09,0,1.85-0.85,1.85-0.85V18.12z"/>
	<polygon class="st0" points="14.8,26.46 14.8,22.63 15.55,21.88 17.72,24.05 17.72,24.78 	"/>
	<polygon class="st0" points="13.24,19.35 10.78,21.81 13.79,22.94 17.37,19.35 	"/>
	<polygon class="st0" points="14.45,15.93 11.28,15.93 12.3,18.85 17.37,18.85 	"/>
	<polygon class="st0" points="17.72,14.37 15.28,11.93 14.14,14.92 17.72,18.5 	"/>
	<polygon class="st0" points="25.11,22.28 21.5,22.28 18.58,19.35 23.65,19.35 	"/>
	<polygon class="st0" points="22.16,15.27 25.44,16.12 22.71,18.86 18.58,18.86 	"/>
	<polygon class="st0" points="18.22,13.43 21.15,11.69 21.15,15.58 18.22,18.5 	"/>
	<polygon class="st0" points="21.94,23.43 21.01,26.63 15.9,21.53 17.97,19.46 	"/>
	<g>
		<path class="st0" d="M95.1,16.56c0,0.35-0.28,0.62-0.63,0.62c-0.35,0-0.64-0.27-0.64-0.62c0-0.35,0.28-0.62,0.64-0.62
			C94.82,15.94,95.1,16.21,95.1,16.56z M93.99,16.56c0,0.27,0.21,0.49,0.48,0.49c0.27,0,0.47-0.22,0.47-0.49
			c0-0.27-0.2-0.5-0.48-0.5C94.2,16.06,93.99,16.29,93.99,16.56z M94.37,16.88h-0.14v-0.62c0.06-0.01,0.14-0.02,0.24-0.02
			c0.12,0,0.17,0.02,0.21,0.05c0.04,0.03,0.06,0.07,0.06,0.13c0,0.08-0.06,0.12-0.13,0.15v0.01c0.06,0.02,0.09,0.07,0.11,0.15
			c0.02,0.09,0.03,0.13,0.05,0.15h-0.15c-0.02-0.02-0.03-0.08-0.05-0.15c-0.01-0.06-0.05-0.09-0.13-0.09h-0.07V16.88z M94.38,16.53
			h0.07c0.08,0,0.14-0.03,0.14-0.09c0-0.06-0.04-0.09-0.13-0.09c-0.04,0-0.06,0-0.08,0.01V16.53z"/>
	</g>
</g>
<g>
	<path class="st0" d="M98.77,15.58h4.16v0.98h-3.04v1.6h2.88v0.94h-2.88v1.77h3.2v0.99h-4.32V15.58z"/>
	<path class="st0" d="M106.3,15.58h1.12v5.28h2.67v0.99h-3.79V15.58z"/>
	<path class="st0" d="M112.95,15.58h1.12v6.28h-1.12V15.58z"/>
	<path class="st0" d="M118.84,16.56h-1.92v-0.98h4.96v0.98h-1.92v5.3h-1.12V16.56z"/>
	<path class="st0" d="M124.73,15.58h4.16v0.98h-3.04v1.6h2.88v0.94h-2.88v1.77h3.2v0.99h-4.32V15.58z"/>
</g>
</svg>
