<svg id="Layer_1" xmlns="http://www.w3.org/2000/svg" viewBox="0 0 160 600"><style>.st0{fill:#b7d7e8}.st1{fill:#00abe6}</style><path class="st0" d="M42.1 119.1v16.87c0 2.73-1.47 4.28-4.06 4.28-2.55 0-4.03-1.55-4.03-4.28v-2.41h2.05v2.01c0 2.01.58 2.81 1.94 2.81 1.37 0 1.98-.79 1.98-2.81v-6.83h-.07c-.61.94-1.51 1.4-2.73 1.4-2.05 0-3.24-1.4-3.24-3.81v-7.23c0-2.81 1.47-4.39 4.06-4.39s4.1 1.59 4.1 4.39zm-6.04.29v6.73c0 1.47.54 2.16 1.65 2.16 1.4 0 2.27-1.15 2.27-3.09v-5.79c0-2.01-.58-2.81-1.98-2.81-1.4-.01-1.94.79-1.94 2.8zM49.44 135.75v-16.54c0-2.88 1.55-4.5 4.17-4.5s4.17 1.62 4.17 4.5v16.54c0 2.88-1.55 4.5-4.17 4.5s-4.17-1.62-4.17-4.5zm6.18-.36v-15.82c0-2.09-.58-2.91-2.01-2.91-1.47 0-2.01.83-2.01 2.91v15.82c0 2.09.54 2.91 2.01 2.91 1.44.01 2.01-.82 2.01-2.91zM60.51 135.9v-20.82h2.16v20.43c0 2.01.5 2.81 1.94 2.81s1.94-.79 1.94-2.81v-20.43h2.09v20.82c0 2.77-1.51 4.35-4.06 4.35-2.56 0-4.07-1.58-4.07-4.35zM73.67 116.94h-3.02v-1.87h8.2v1.87h-3.02v22.95h-2.16v-22.95zM85.47 135.75v-16.54c0-2.88 1.55-4.5 4.17-4.5s4.17 1.62 4.17 4.5v16.54c0 2.88-1.55 4.5-4.17 4.5-2.63 0-4.17-1.62-4.17-4.5zm6.18-.36v-15.82c0-2.09-.58-2.91-2.01-2.91-1.47 0-2.01.83-2.01 2.91v15.82c0 2.09.54 2.91 2.01 2.91 1.44.01 2.01-.82 2.01-2.91zM96.61 115.07h7.12v1.87h-4.96v9.03h4.32v1.87h-4.32v12.05h-2.16v-24.82zM112.8 117.52l-3.17 1.94v-2.01l3.96-2.45h1.33v24.89h-2.12v-22.37zM117.72 135.86V119.1c0-2.81 1.47-4.39 4.06-4.39s4.06 1.58 4.06 4.39v16.76c0 2.81-1.47 4.39-4.06 4.39-2.58 0-4.06-1.58-4.06-4.39zm6.01-.29v-16.18c0-2.01-.54-2.81-1.94-2.81s-1.94.79-1.94 2.81v16.18c0 2.01.54 2.81 1.94 2.81s1.94-.79 1.94-2.81z"/><path class="st1" d="M43.25 146.04h4.1c2.88 0 4.24 1.47 4.24 4.5v3.88c0 3.02-1.37 4.5-4.24 4.5h-1.94v11.94h-2.16v-24.82zm3.85 11c1.8 0 2.34-.68 2.34-2.98v-3.17c0-2.3-.54-2.99-2.34-2.99h-1.69v9.14h1.69zM56.23 146.04h2.84l3.13 24.82h-2.19l-.72-6.15h-3.38l-.72 6.15H53.1l3.13-24.82zm2.84 16.8l-1.44-13.38h-.07l-1.44 13.38h2.95zM66.48 147.91h-3.02v-1.87h8.2v1.87h-3.02v22.95h-2.16v-22.95zM73.74 146.04h2.16v24.82h-2.16v-24.82zM78.85 146.04h7.12v1.87h-4.96v8.67h4.32v1.87h-4.32v10.54h4.96v1.87h-7.12v-24.82zM88.2 146.04H91l3.92 18.16H95v-18.16h1.94v24.82H94.6l-4.39-20.46h-.07v20.46H88.2v-24.82zM102.04 147.91h-3.02v-1.87h8.2v1.87h-3.02v22.95h-2.16v-22.95zM108.91 166.79v-4.35H111v3.96c0 2.05.58 2.88 2.01 2.88 1.47 0 2.05-.83 2.05-2.88v-3.74c0-1.69-.47-2.52-1.69-3.31l-1.91-1.22c-1.83-1.19-2.55-2.55-2.55-4.96v-3.2c0-2.73 1.47-4.28 4.03-4.28 2.55 0 4.03 1.55 4.03 4.28v3.2h-2.09v-2.84c0-1.94-.54-2.7-1.91-2.7-1.37 0-1.91.76-1.91 2.7v2.7c0 1.69.47 2.52 1.69 3.31l1.91 1.22c1.83 1.19 2.55 2.55 2.55 4.96v4.28c0 2.84-1.55 4.42-4.17 4.42s-4.13-1.59-4.13-4.43zM40.01 177H44c2.88 0 4.24 1.47 4.24 4.5v3.17c0 2.01-.65 3.24-1.94 3.81v.07c1.29.58 1.94 1.8 1.94 3.85v9.42h-2.16v-9.28c0-2.3-.65-2.99-2.7-2.99h-1.22v12.26H40V177zm3.74 10.69c1.8 0 2.34-.68 2.34-2.98v-2.84c0-2.3-.54-2.99-2.34-2.99h-1.58v8.81h1.58zM51.02 177h7.12v1.87h-4.96v8.67h4.32v1.87h-4.32v10.54h4.96v1.87h-7.12V177zM60.37 177h4.1c2.88 0 4.24 1.47 4.24 4.5v3.88c0 3.02-1.37 4.5-4.24 4.5h-1.94v11.94h-2.16V177zm3.84 11.01c1.8 0 2.34-.68 2.34-2.98v-3.17c0-2.3-.54-2.99-2.34-2.99h-1.69v9.14h1.69zM70.9 197.68v-16.54c0-2.88 1.55-4.5 4.17-4.5s4.17 1.62 4.17 4.5v16.54c0 2.88-1.55 4.5-4.17 4.5s-4.17-1.62-4.17-4.5zm6.19-.36V181.5c0-2.09-.58-2.91-2.01-2.91-1.47 0-2.01.83-2.01 2.91v15.82c0 2.09.54 2.91 2.01 2.91 1.43.01 2.01-.82 2.01-2.91zM82.05 177h3.99c2.88 0 4.24 1.47 4.24 4.5v3.17c0 2.01-.65 3.24-1.94 3.81v.07c1.29.58 1.94 1.8 1.94 3.85v9.42h-2.16v-9.28c0-2.3-.65-2.99-2.7-2.99H84.2v12.26h-2.16V177zm3.74 10.69c1.8 0 2.34-.68 2.34-2.98v-2.84c0-2.3-.54-2.99-2.34-2.99h-1.58v8.81h1.58zM95.21 178.87h-3.02V177h8.2v1.87h-3.02v22.95h-2.16v-22.95zM102.47 177h7.12v1.87h-4.96v8.67h4.32v1.87h-4.32v10.54h4.96v1.87h-7.12V177zM111.82 177h4.1c2.88 0 4.24 1.47 4.24 4.5v15.82c0 3.02-1.37 4.5-4.24 4.5h-4.1V177zm3.85 22.95c1.8 0 2.34-.68 2.34-2.99v-15.1c0-2.3-.54-2.99-2.34-2.99h-1.69v21.08h1.69zM33.15 207.97h2.81l3.92 18.16h.07v-18.16h1.94v24.82h-2.34l-4.39-20.46h-.07v20.46h-1.94v-24.82zM44.69 228.65v-16.54c0-2.88 1.55-4.5 4.17-4.5s4.17 1.62 4.17 4.5v16.54c0 2.88-1.55 4.5-4.17 4.5s-4.17-1.62-4.17-4.5zm6.18-.36v-15.82c0-2.09-.58-2.91-2.01-2.91-1.47 0-2.01.83-2.01 2.91v15.82c0 2.09.54 2.91 2.01 2.91 1.44 0 2.01-.82 2.01-2.91zM57.99 209.84h-3.02v-1.87h8.2v1.87h-3.02v22.95h-2.16v-22.95zM65.26 207.97h2.16v24.82h-2.16v-24.82zM70.22 228.87v-16.98c0-2.73 1.44-4.28 4.03-4.28 2.63 0 4.06 1.55 4.06 4.28v4.06h-2.05v-3.7c0-1.94-.58-2.7-1.94-2.7-1.4 0-1.94.76-1.94 2.7v16.26c0 1.94.54 2.7 1.94 2.7 1.37 0 1.94-.76 1.94-2.7v-5h2.05v5.36c0 2.73-1.44 4.28-4.06 4.28-2.59 0-4.03-1.55-4.03-4.28zM80.86 207.97h7.12v1.87h-4.96v8.67h4.32v1.87h-4.32v10.54h4.96v1.87h-7.12v-24.82zM92.51 207.97h2.84l3.13 24.82h-2.19l-.72-6.15h-3.38l-.72 6.15h-2.09l3.13-24.82zm2.85 16.8l-1.44-13.38h-.07l-1.44 13.38h2.95zM100.6 207.97h3.99c2.88 0 4.24 1.47 4.24 4.5v2.99c0 2.01-.61 3.24-1.87 3.81v.07c1.37.58 2.01 1.8 2.01 3.88v5.07c0 3.02-1.37 4.5-4.24 4.5h-4.14v-24.82zm3.74 10.54c1.8 0 2.34-.68 2.34-2.95v-2.73c0-2.3-.54-2.99-2.34-2.99h-1.58v8.67h1.58zm.15 12.41c1.8 0 2.34-.68 2.34-2.99v-4.57c0-2.3-.54-2.98-2.34-2.98h-1.73v10.54h1.73zM111.61 207.97h2.16v22.95h4.6v1.87h-6.76v-24.82zM120.45 207.97h7.12v1.87h-4.96v8.67h4.32v1.87h-4.32v10.54h4.96v1.87h-7.12v-24.82zM13.81 238.93h7.12v1.87h-4.96v9.03h4.32v1.87h-4.32v12.05h-2.16v-24.82zM25.32 238.93h2.84l3.13 24.82H29.1l-.72-6.15H25l-.72 6.15h-2.09l3.13-24.82zm2.84 16.8l-1.44-13.38h-.07l-1.44 13.38h2.95zM35.57 240.8h-3.02v-1.87h8.2v1.87h-3.02v22.95h-2.16V240.8zM47.5 238.93h3.99c2.88 0 4.24 1.47 4.24 4.5v3.17c0 2.01-.65 3.24-1.94 3.81v.07c1.29.58 1.94 1.8 1.94 3.85v9.42h-2.16v-9.28c0-2.3-.65-2.99-2.7-2.99h-1.22v12.26H47.5v-24.81zm3.74 10.69c1.8 0 2.34-.68 2.34-2.98v-2.84c0-2.3-.54-2.99-2.34-2.99h-1.58v8.81h1.58zM58.51 238.93h7.12v1.87h-4.96v8.67h4.32v1.87h-4.32v10.54h4.96v1.87h-7.12v-24.82zM67.86 238.93h4.1c2.88 0 4.24 1.47 4.24 4.5v15.82c0 3.02-1.37 4.5-4.24 4.5h-4.1v-24.82zm3.84 22.95c1.8 0 2.34-.68 2.34-2.99v-15.1c0-2.3-.54-2.99-2.34-2.99h-1.69v21.08h1.69zM78.9 259.76v-20.82h2.16v20.43c0 2.01.5 2.81 1.94 2.81s1.94-.79 1.94-2.81v-20.43h2.09v20.82c0 2.77-1.51 4.35-4.06 4.35s-4.07-1.58-4.07-4.35zM89.76 259.83v-16.98c0-2.73 1.44-4.28 4.03-4.28 2.63 0 4.06 1.55 4.06 4.28v4.06H95.8v-3.7c0-1.94-.58-2.7-1.94-2.7-1.4 0-1.94.76-1.94 2.7v16.26c0 1.94.54 2.7 1.94 2.7 1.37 0 1.94-.76 1.94-2.7v-5h2.05v5.36c0 2.73-1.44 4.28-4.06 4.28-2.6 0-4.03-1.55-4.03-4.28zM102.56 240.8h-3.02v-1.87h8.2v1.87h-3.02v22.95h-2.16V240.8zM109.82 238.93h2.16v24.82h-2.16v-24.82zM114.78 259.61v-16.54c0-2.88 1.55-4.5 4.17-4.5s4.17 1.62 4.17 4.5v16.54c0 2.88-1.55 4.5-4.17 4.5s-4.17-1.62-4.17-4.5zm6.19-.36v-15.82c0-2.09-.58-2.91-2.01-2.91-1.47 0-2.01.83-2.01 2.91v15.82c0 2.09.54 2.91 2.01 2.91 1.43.01 2.01-.82 2.01-2.91zM125.93 238.93h2.81l3.92 18.16h.07v-18.16h1.94v24.82h-2.34l-4.39-20.46h-.07v20.46h-1.94v-24.82zM137.62 260.8h2.41v2.95h-2.41v-2.95zM144.23 240.75l-1.8 1.13-.48-.8 1.89-1.01-1.89-.99.48-.8 1.8 1.13-.1-2.12h.94l-.11 2.12 1.8-1.13.48.8-1.89 1.01 1.89.99-.48.8-1.8-1.13.11 2.12h-.94l.1-2.12z"/></svg>