<svg id="Layer_1" xmlns="http://www.w3.org/2000/svg" viewBox="0 0 160 600"><style>.st0{fill:#00a9e0}</style><path class="st0" d="M56.19 117.49h-2.56v-1.58h6.95v1.58h-2.56v19.44h-1.83v-19.44zM63.26 115.91h2.41l2.65 21.03h-1.86l-.61-5.21h-2.86l-.61 5.21h-1.77l2.65-21.03zm2.41 14.23l-1.22-11.34h-.06l-1.22 11.34h2.5zM70.12 115.91h1.83v19.44h3.9v1.58h-5.73v-21.02zM83.4 136.94l-3.9-10.6h-.06v10.6h-1.83v-21.03h1.83v9.81h.06l3.81-9.81h1.86l-3.93 10.02 4.11 11H83.4zM92.9 117.49h-2.56v-1.58h6.95v1.58h-2.56v19.44H92.9v-19.44zM98.69 133.43v-14.02c0-2.44 1.31-3.81 3.53-3.81 2.22 0 3.54 1.37 3.54 3.81v14.02c0 2.44-1.31 3.81-3.54 3.81-2.22 0-3.53-1.37-3.53-3.81zm5.24-.3v-13.41c0-1.77-.49-2.47-1.71-2.47-1.25 0-1.71.7-1.71 2.47v13.41c0 1.77.46 2.47 1.71 2.47 1.22-.01 1.71-.71 1.71-2.47zM29.76 154.09l-2.96-11.21h1.89l2.01 8.32h.06l2.01-8.32h1.77l-2.96 11.21v9.81h-1.83v-9.81zM35.7 160.4v-14.02c0-2.44 1.31-3.81 3.53-3.81s3.53 1.37 3.53 3.81v14.02c0 2.44-1.31 3.81-3.53 3.81s-3.53-1.37-3.53-3.81zm5.25-.3v-13.41c0-1.77-.49-2.47-1.71-2.47-1.25 0-1.71.7-1.71 2.47v13.41c0 1.77.46 2.47 1.71 2.47 1.22-.01 1.71-.71 1.71-2.47zM45.09 160.52v-17.64h1.83v17.31c0 1.71.43 2.38 1.65 2.38s1.65-.67 1.65-2.38v-17.31h1.77v17.64c0 2.35-1.28 3.69-3.44 3.69s-3.46-1.34-3.46-3.69zM54.41 142.88h3.38c2.44 0 3.6 1.25 3.6 3.81v2.68c0 1.71-.55 2.74-1.65 3.23v.06c1.1.49 1.65 1.52 1.65 3.26v7.98h-1.83v-7.86c0-1.95-.55-2.53-2.29-2.53h-1.04v10.39H54.4v-21.02zm3.17 9.05c1.52 0 1.98-.58 1.98-2.53v-2.41c0-1.95-.46-2.53-1.98-2.53h-1.34v7.47h1.34zM67.69 142.88h3.47c2.44 0 3.6 1.25 3.6 3.81v3.29c0 2.56-1.16 3.81-3.6 3.81h-1.65v10.12h-1.83v-21.03zm3.26 9.32c1.52 0 1.98-.58 1.98-2.53v-2.68c0-1.95-.46-2.53-1.98-2.53h-1.43v7.74h1.43zM76.74 142.88h3.38c2.44 0 3.6 1.25 3.6 3.81v2.68c0 1.71-.55 2.74-1.65 3.23v.06c1.1.49 1.65 1.52 1.65 3.26v7.98h-1.83v-7.86c0-1.95-.55-2.53-2.29-2.53h-1.04v10.39h-1.83v-21.02zm3.17 9.05c1.52 0 1.98-.58 1.98-2.53v-2.41c0-1.95-.46-2.53-1.98-2.53h-1.34v7.47h1.34zM85.94 160.4v-14.02c0-2.44 1.31-3.81 3.53-3.81 2.22 0 3.54 1.37 3.54 3.81v14.02c0 2.44-1.31 3.81-3.54 3.81-2.22 0-3.53-1.37-3.53-3.81zm5.24-.3v-13.41c0-1.77-.49-2.47-1.71-2.47-1.25 0-1.71.7-1.71 2.47v13.41c0 1.77.46 2.47 1.71 2.47 1.22-.01 1.71-.71 1.71-2.47zM94.62 142.88h1.86l1.92 17.67h.06l1.92-17.67h1.74l-2.53 21.03h-2.44l-2.53-21.03zM103.95 142.88h1.83v21.03h-1.83v-21.03zM108.27 142.88h3.47c2.44 0 3.6 1.25 3.6 3.81v13.41c0 2.56-1.16 3.81-3.6 3.81h-3.47v-21.03zm3.26 19.44c1.52 0 1.98-.58 1.98-2.53v-12.8c0-1.95-.46-2.53-1.98-2.53h-1.43v17.86h1.43zM117.69 142.88h6.03v1.58h-4.21v7.34h3.66v1.58h-3.66v8.93h4.21v1.58h-6.03v-21.01zM125.61 142.88h3.38c2.44 0 3.6 1.25 3.6 3.81v2.68c0 1.71-.55 2.74-1.65 3.23v.06c1.1.49 1.65 1.52 1.65 3.26v7.98h-1.83v-7.86c0-1.95-.55-2.53-2.29-2.53h-1.04v10.39h-1.83v-21.02zm3.17 9.05c1.52 0 1.98-.58 1.98-2.53v-2.41c0-1.95-.46-2.53-1.98-2.53h-1.34v7.47h1.34zM54.47 169.85h2.41l2.65 21.03h-1.86l-.61-5.21H54.2l-.61 5.21h-1.77l2.65-21.03zm2.41 14.23l-1.22-11.34h-.06l-1.22 11.34h2.5zM61.33 169.85h3.38c2.44 0 3.6 1.25 3.6 3.81v2.53c0 1.71-.52 2.74-1.58 3.23v.06c1.16.49 1.71 1.52 1.71 3.29v4.3c0 2.56-1.16 3.81-3.6 3.81h-3.5v-21.03zm3.17 8.93c1.52 0 1.98-.58 1.98-2.5v-2.32c0-1.95-.46-2.53-1.98-2.53h-1.34v7.34h1.34zm.12 10.51c1.52 0 1.98-.58 1.98-2.53v-3.87c0-1.95-.46-2.53-1.98-2.53h-1.46v8.93h1.46zM70.53 187.37v-14.02c0-2.44 1.31-3.81 3.53-3.81s3.53 1.37 3.53 3.81v14.02c0 2.44-1.31 3.81-3.53 3.81s-3.53-1.37-3.53-3.81zm5.24-.3v-13.41c0-1.77-.49-2.47-1.71-2.47-1.25 0-1.71.7-1.71 2.47v13.41c0 1.77.46 2.47 1.71 2.47 1.22-.01 1.71-.71 1.71-2.47zM79.91 187.49v-17.64h1.83v17.31c0 1.71.43 2.38 1.65 2.38s1.65-.67 1.65-2.38v-17.31h1.77v17.64c0 2.35-1.28 3.69-3.44 3.69-2.18 0-3.46-1.34-3.46-3.69zM91.06 171.43H88.5v-1.58h6.95v1.58h-2.56v19.44h-1.83v-19.44zM103.12 169.85h2.41l2.65 21.03h-1.86l-.61-5.21h-2.86l-.61 5.21h-1.77l2.65-21.03zm2.41 14.23l-1.22-11.34h-.06l-1.22 11.34h2.5zM31.07 196.82h3.47c2.44 0 3.6 1.25 3.6 3.81v3.29c0 2.56-1.16 3.81-3.6 3.81H32.9v10.12h-1.83v-21.03zm3.26 9.32c1.52 0 1.98-.58 1.98-2.53v-2.68c0-1.95-.46-2.53-1.98-2.53H32.9v7.74h1.43zM40.12 196.82h6.03v1.58h-4.21v7.34h3.66v1.58h-3.66v8.93h4.21v1.58h-6.03v-21.01zM48.04 196.82h3.38c2.44 0 3.6 1.25 3.6 3.81v2.68c0 1.71-.55 2.74-1.65 3.23v.06c1.1.49 1.65 1.52 1.65 3.26v7.98h-1.83v-7.86c0-1.95-.55-2.53-2.29-2.53h-1.04v10.39h-1.83v-21.02zm3.17 9.05c1.52 0 1.98-.58 1.98-2.53v-2.41c0-1.95-.46-2.53-1.98-2.53h-1.34v7.47h1.34zM57.03 214.4v-3.69h1.77v3.35c0 1.74.49 2.44 1.71 2.44 1.25 0 1.74-.7 1.74-2.44v-3.17c0-1.43-.4-2.13-1.43-2.8l-1.62-1.04c-1.55-1.01-2.16-2.16-2.16-4.21v-2.71c0-2.32 1.25-3.63 3.41-3.63s3.41 1.31 3.41 3.63v2.71h-1.77v-2.41c0-1.65-.46-2.29-1.62-2.29-1.16 0-1.61.64-1.61 2.29v2.29c0 1.43.4 2.13 1.43 2.8l1.61 1.04c1.55 1.01 2.16 2.16 2.16 4.21v3.63c0 2.41-1.31 3.75-3.53 3.75s-3.5-1.34-3.5-3.75zM66.05 214.34v-14.02c0-2.44 1.31-3.81 3.53-3.81s3.53 1.37 3.53 3.81v14.02c0 2.44-1.31 3.81-3.53 3.81s-3.53-1.37-3.53-3.81zm5.24-.3v-13.41c0-1.77-.49-2.47-1.71-2.47-1.25 0-1.71.7-1.71 2.47v13.41c0 1.77.46 2.47 1.71 2.47 1.22-.01 1.71-.71 1.71-2.47zM75.49 196.82h2.38l3.32 15.39h.06v-15.39h1.65v21.03h-1.98L77.2 200.5h-.06v17.34h-1.65v-21.02zM87.34 196.82h2.41l2.65 21.03h-1.86l-.61-5.21h-2.86l-.61 5.21h-1.77l2.65-21.03zm2.41 14.23l-1.22-11.34h-.06l-1.22 11.34h2.5zM94.2 196.82h1.83v19.44h3.9v1.58H94.2v-21.02zM101.69 196.82h1.83v21.03h-1.83v-21.03zM105.35 216.41l4.97-18.01h-4.66v-1.58h6.58v1.43l-4.97 18.01h4.97v1.58h-6.89v-1.43zM114.09 196.82h6.03v1.58h-4.21v7.34h3.66v1.58h-3.66v8.93h4.21v1.58h-6.03v-21.01zM122.01 196.82h3.47c2.44 0 3.6 1.25 3.6 3.81v13.41c0 2.56-1.16 3.81-3.6 3.81h-3.47v-21.03zm3.26 19.44c1.52 0 1.98-.58 1.98-2.53v-12.8c0-1.95-.46-2.53-1.98-2.53h-1.43v17.86h1.43zM21.14 225.37h-2.56v-1.58h6.95v1.58h-2.56v19.44h-1.83v-19.44zM27.3 223.79h3.38c2.44 0 3.6 1.25 3.6 3.81v2.68c0 1.71-.55 2.74-1.65 3.23v.06c1.1.49 1.65 1.52 1.65 3.26v7.98h-1.83v-7.86c0-1.95-.55-2.53-2.29-2.53h-1.04v10.39H27.3v-21.02zm3.17 9.05c1.52 0 1.98-.58 1.98-2.53v-2.41c0-1.95-.46-2.53-1.98-2.53h-1.34v7.47h1.34zM36.62 223.79h6.03v1.58h-4.21v7.34h3.66v1.58h-3.66v8.93h4.21v1.58h-6.03v-21.01zM46.58 223.79h2.41l2.65 21.03h-1.86l-.61-5.21h-2.86l-.61 5.21h-1.77l2.65-21.03zm2.41 14.23l-1.22-11.34h-.06l-1.22 11.34h2.5zM54.23 225.37h-2.56v-1.58h6.95v1.58h-2.56v19.44h-1.83v-19.44zM60.38 223.79h2.89l2.35 15.51h.06l2.35-15.51h3.02v21.03h-1.83v-18.8h-.06l-2.83 18.8H64.9l-2.83-18.8H62v18.8h-1.61v-21.03zM73.54 223.79h6.03v1.58h-4.21v7.34h3.66v1.58h-3.66v8.93h4.21v1.58h-6.03v-21.01zM81.46 223.79h2.38l3.32 15.39h.06v-15.39h1.65v21.03h-1.98l-3.72-17.34h-.06v17.34h-1.65v-21.03zM93.19 225.37h-2.56v-1.58h6.95v1.58h-2.56v19.44h-1.83v-19.44zM103.31 223.79h3.47c2.44 0 3.6 1.25 3.6 3.81v3.29c0 2.56-1.16 3.81-3.6 3.81h-1.65v10.12h-1.83v-21.03zm3.26 9.32c1.52 0 1.98-.58 1.98-2.53v-2.68c0-1.95-.46-2.53-1.98-2.53h-1.43v7.74h1.43zM112.36 223.79h1.83v19.44h3.9v1.58h-5.73v-21.02zM121.89 223.79h2.41l2.65 21.03h-1.86l-.61-5.21h-2.86l-.61 5.21h-1.77l2.65-21.03zm2.41 14.23l-1.22-11.34h-.06l-1.22 11.34h2.5zM128.75 223.79h2.38l3.32 15.39h.06v-15.39h1.65v21.03h-1.98l-3.72-17.34h-.06v17.34h-1.65v-21.03zM138.65 242.31h2.04v2.5h-2.04v-2.5z"/></svg>