<svg id="Layer_1" xmlns="http://www.w3.org/2000/svg" viewBox="0 0 160 600"><style>.st0{fill:#fff}</style><path class="st0" d="M11.27 81.78h.8c1.26 0 1.73-.36 1.73-1.68V65.49c0-1.32-.47-1.68-1.73-1.68h-.8v-.41h13.87l.27 6.76h-.36c-.58-4.15-1.57-6.34-5.49-6.34h-1.73c-1.26 0-1.76.33-1.76 1.65v6.76h1.4c2.69 0 3.46-1.68 3.49-3.96h.36v8.54h-.36c-.03-2.31-.77-4.17-3.49-4.17h-1.4v7.5c0 1.32.49 1.65 1.76 1.65h2.25c3.87 0 4.72-2.69 5.47-6.92h.36l-.47 7.33H11.27v-.42zM27.83 81.81h.11c1.24 0 1.51-.33 1.51-1.65V65.41c0-1.32-.27-1.65-1.51-1.65h-.22v-.38l3.68-.41v17.19c0 1.32.27 1.65 1.48 1.65h.22v.38h-5.27v-.38zM33.96 81.81h.22c1.21 0 1.48-.3 1.48-1.54v-7.64c0-1.26-.27-1.57-1.48-1.57h-.22v-.36l3.65-.22v9.78c0 1.24.27 1.54 1.48 1.54h.22v.38h-5.36v-.37zm.9-15.71c0-.82.69-1.51 1.51-1.51.82 0 1.51.69 1.51 1.51 0 .82-.69 1.51-1.51 1.51-.82 0-1.51-.69-1.51-1.51zM40.16 81.81h.19c1.21 0 1.48-.3 1.48-1.54v-7.66c0-1.24-.27-1.57-1.48-1.57h-.19v-.33l3.65-.22-.14 3.38h.06c.71-2.14 2.39-3.41 4.17-3.41 2.09 0 2.91 1.32 3.13 3.1.85-1.92 2.36-3.1 4.09-3.1 2.22 0 3.16 1.37 3.16 4.09v5.71c0 1.24.27 1.54 1.51 1.54h.05v.38h-5.3v-.38h.27c1.24 0 1.51-.3 1.51-1.54v-6.4c0-1.92-.74-2.53-1.84-2.53-2 0-3.43 2.2-3.43 4.45v4.48c0 1.24.27 1.54 1.51 1.54h.25v.38h-5.49v-.38h.27c1.24 0 1.51-.3 1.51-1.54v-6.4c0-1.92-.74-2.53-1.84-2.53-1.98 0-3.43 2.12-3.43 4.45v4.48c0 1.24.27 1.54 1.48 1.54h.27v.38h-5.44v-.37zM60.54 81.81h.22c1.21 0 1.48-.3 1.48-1.54v-7.64c0-1.26-.27-1.57-1.48-1.57h-.22v-.36l3.65-.22v9.78c0 1.24.27 1.54 1.48 1.54h.22v.38h-5.36v-.37zm.9-15.71c0-.82.69-1.51 1.51-1.51.82 0 1.51.69 1.51 1.51 0 .82-.69 1.51-1.51 1.51-.82 0-1.51-.69-1.51-1.51zM66.74 81.81h.19c1.21 0 1.48-.3 1.48-1.54v-7.66c0-1.24-.27-1.57-1.48-1.57h-.19v-.33l3.65-.22-.14 3.38h.06c.74-2.22 2.47-3.41 4.26-3.41 2.23 0 3.24 1.37 3.24 4.09v5.71c0 1.24.27 1.54 1.51 1.54h.05v.38h-5.3v-.38h.27c1.24 0 1.51-.3 1.51-1.54v-6.4c0-1.92-.82-2.53-1.92-2.53-2.01 0-3.52 2-3.52 4.45v4.48c0 1.24.27 1.54 1.48 1.54h.27v.38h-5.44v-.37zM80.25 79.86c0-2.33 2.09-3.57 7.25-4.78v-.8c0-2.64-1.04-3.54-2.69-3.54-1.48 0-2.75.63-2.75 1.13 0 .08.03.11.14.11.55 0 1.15.52 1.15 1.21 0 .71-.55 1.26-1.24 1.26-.71 0-1.24-.52-1.24-1.32 0-1.43 1.51-2.77 4.45-2.77 2.2 0 4.12.8 4.12 4.04v5.63c0 1.15.33 1.51.71 1.51.66 0 .93-.69.96-2.2h.38c-.05 2.61-.96 3.1-2.09 3.1-1.07 0-2.06-.6-1.92-2.58h-.06c-.52 1.43-2.17 2.64-4.09 2.64-1.73 0-3.08-.88-3.08-2.64zm7.25-2.36v-1.98c-4.2.85-4.97 2.31-4.97 3.87 0 1.24.66 2.14 1.92 2.14 1.35 0 3.05-.98 3.05-4.03zM93.19 79.04v-7.91h-1.87v-.33c1.76-.3 3.21-1.51 3.49-5.05h.36v4.94h3.71v.44h-3.71v8.05c0 1.73.63 2.58 1.87 2.58 1.13 0 2.03-1.24 2.14-3.65h.38c0 2.8-1.24 4.45-3.21 4.45-1.96-.01-3.16-1.14-3.16-3.52zM100.49 76.51c0-3.71 2.58-6.21 5.33-6.21 2.2 0 4.72 1.7 4.72 5.25 0 .08-.03.69-.05.82h-7.75c0 3.02 1.21 5.36 3.57 5.36 2.12 0 3.19-1.07 4.09-2.39l.3.22c-1.02 1.7-2.61 3.05-5 3.05-3.15 0-5.21-2.34-5.21-6.1zm6.37-.58c1.1 0 1.4-.36 1.4-1.24 0-2.2-.77-3.98-2.53-3.98-1.92 0-2.91 2.06-2.99 5.22h4.12zM13.36 106.47c-.41 0-.77.33-.99.93h-.27v-4.67h.25c.47 2.69 2.66 4.31 4.83 4.31 1.62 0 2.77-.93 2.77-2.22 0-1.24-.85-1.7-3.63-2.5-2.42-.69-4.09-1.32-4.09-3.71 0-1.98 1.48-3.21 3.57-3.21 1.59 0 2.31.71 3.16.71.44 0 .8-.22.99-.69h.27v4.17h-.25c-.44-2.25-2-3.82-4.31-3.82-1.26 0-2.28.82-2.28 2.03 0 1.29 1.07 1.7 3.38 2.31 2.99.8 4.34 1.65 4.34 3.82 0 2.2-1.68 3.49-4.04 3.49-1.69.01-3.04-.95-3.7-.95zM23.8 104v-7.91h-1.87v-.33c1.76-.3 3.21-1.51 3.49-5.05h.36v4.94h3.71v.44h-3.71v8.05c0 1.73.63 2.58 1.87 2.58 1.13 0 2.03-1.24 2.14-3.65h.38c0 2.8-1.24 4.45-3.21 4.45-1.96-.01-3.16-1.13-3.16-3.52zM32.12 103.53V97.6c0-1.21-.27-1.57-1.48-1.57h-.25v-.36l3.68-.22v8.57c0 1.95.74 2.72 2.03 2.72 1.7 0 3.41-2.42 3.41-4.72v-4.39c0-1.26-.27-1.59-1.48-1.59h-.55v-.36l4.01-.22v9.61c0 1.24.3 1.59 1.51 1.59h.19v.36l-3.65.41.14-3.41h-.05c-.71 1.87-2.31 3.41-4.17 3.41-2.19 0-3.34-1.26-3.34-3.9zM45.16 102.49v-12.2c0-1.26-.27-1.57-1.48-1.57h-.47v-.38l3.87-.41v5.96c0 2.11-.08 4.31-.08 4.31h.06c1.04-1.81 2.11-2.83 3.9-2.83 2.39 0 4.72 2.58 4.72 5.99 0 3.79-2.53 6.07-4.81 6.07-1.87 0-2.86-1.04-3.79-2.72h-.05l-1.87 2.94h-.36c.28-1.56.36-3.49.36-5.16zm8.21-1.07c0-3.02-.71-5.6-2.75-5.6-1.87 0-3.57 2.28-3.57 5.58 0 3.08 1.54 5.6 3.52 5.6 1.62-.01 2.8-1.55 2.8-5.58zM58.09 102.49v-12.2c0-1.26-.27-1.57-1.48-1.57h-.47v-.38l3.87-.41v5.96c0 2.11-.08 4.31-.08 4.31h.05c1.04-1.81 2.11-2.83 3.9-2.83 2.39 0 4.72 2.58 4.72 5.99 0 3.79-2.53 6.07-4.81 6.07-1.87 0-2.86-1.04-3.79-2.72h-.05l-1.87 2.94h-.36c.29-1.56.37-3.49.37-5.16zm8.21-1.07c0-3.02-.71-5.6-2.75-5.6-1.87 0-3.57 2.28-3.57 5.58 0 3.08 1.54 5.6 3.52 5.6 1.62-.01 2.8-1.55 2.8-5.58zM70.06 101.39c0-3.57 2.8-6.12 5.38-6.12s5.36 2.5 5.36 6.07c0 3.49-2.77 6.23-5.36 6.23s-5.38-2.69-5.38-6.18zm8.44.03c0-3.19-.82-5.77-3.05-5.77s-3.05 2.53-3.05 5.71c0 3.16.77 5.82 3.05 5.82s3.05-2.6 3.05-5.76zM81.96 106.77h.19c1.21 0 1.48-.3 1.48-1.54v-7.69c0-1.24-.33-1.54-1.48-1.54h-.19v-.33l3.65-.22-.19 4.64h.06c.85-2.99 2.22-4.78 4.04-4.78 1.4 0 2.2.82 2.2 1.79 0 1.07-.6 1.62-1.37 1.62-.69 0-1.24-.44-1.24-1.13 0-.6.33-.88.58-1.1.14-.11.22-.19.22-.33 0-.22-.28-.27-.6-.27-1.98 0-3.65 3.9-3.65 6.07v3.27c0 1.24.28 1.54 1.48 1.54h.63v.38h-5.79v-.38zM92.11 106.77h.19c1.21 0 1.48-.3 1.48-1.54v-7.66c0-1.24-.27-1.57-1.48-1.57h-.19v-.33l3.65-.22-.14 3.38h.05c.74-2.22 2.47-3.41 4.26-3.41 2.22 0 3.24 1.37 3.24 4.09v5.71c0 1.24.27 1.54 1.51 1.54h.05v.38h-5.3v-.38h.27c1.24 0 1.51-.3 1.51-1.54v-6.4c0-1.92-.82-2.53-1.92-2.53-2 0-3.52 2.01-3.52 4.45v4.48c0 1.24.28 1.54 1.48 1.54h.27v.38h-5.44v-.37zM112.13 106.77h.22c1.21 0 1.48-.3 1.48-1.54v-9.15h-1.7v-.41h1.7v-1.9c0-3.13 1.48-5.79 4.45-5.79 1.65 0 2.55.93 2.55 2.11 0 .91-.6 1.43-1.35 1.43-.74 0-1.21-.47-1.21-1.18 0-.47.22-.8.44-1.02.17-.17.3-.3.3-.47 0-.27-.38-.55-.91-.55-1.87 0-2.31 1.98-2.31 4.7v2.66h2.8v.41h-2.8v9.15c0 1.24.27 1.54 1.48 1.54h.52v.38h-5.69v-.37zM119.38 104.82c0-2.33 2.09-3.57 7.25-4.78v-.8c0-2.64-1.04-3.54-2.69-3.54-1.48 0-2.75.63-2.75 1.13 0 .08.03.11.14.11.55 0 1.15.52 1.15 1.21 0 .71-.55 1.26-1.24 1.26-.71 0-1.24-.52-1.24-1.32 0-1.43 1.51-2.77 4.45-2.77 2.2 0 4.12.8 4.12 4.04v5.63c0 1.15.33 1.51.71 1.51.66 0 .93-.69.96-2.2h.38c-.05 2.61-.96 3.1-2.09 3.1-1.07 0-2.06-.6-1.92-2.58h-.05c-.52 1.43-2.17 2.64-4.09 2.64-1.74 0-3.09-.88-3.09-2.64zm7.25-2.36v-1.98c-4.2.85-4.97 2.31-4.97 3.87 0 1.24.66 2.14 1.92 2.14 1.35.01 3.05-.98 3.05-4.03zM132.32 104v-7.91h-1.87v-.33c1.76-.3 3.21-1.51 3.49-5.05h.36v4.94h3.7v.44h-3.71v8.05c0 1.73.63 2.58 1.87 2.58 1.13 0 2.03-1.24 2.14-3.65h.38c0 2.8-1.24 4.45-3.21 4.45-1.95-.01-3.15-1.13-3.15-3.52zM12.87 122.81c-.47-1.18-.91-1.73-2-1.81v-.36h5.33v.36c-.96.08-1.37.36-1.4.8-.03.36.08.77.3 1.37l2.47 7.06 2.25-5.82-.63-1.92c-.3-.96-.6-1.32-1.7-1.48v-.36h5.08v.35c-.93.08-1.43.36-1.46.8-.03.36.11.77.3 1.4l2.17 6.92 2.17-6.21c.25-.71.44-1.35.44-1.87 0-.71-.49-.96-1.51-1.04v-.36h3.96v.36c-1.1.08-1.46.74-1.87 1.81l-3.74 9.86h-.38l-2.55-7.53-3.1 7.53h-.36l-3.77-9.86zM29.04 131.74h.22c1.21 0 1.48-.3 1.48-1.54v-7.64c0-1.26-.27-1.57-1.48-1.57h-.22v-.36l3.65-.22v9.78c0 1.24.27 1.54 1.48 1.54h.22v.38h-5.36v-.37zm.91-15.71c0-.82.69-1.51 1.51-1.51.82 0 1.51.69 1.51 1.51 0 .82-.69 1.51-1.51 1.51-.83 0-1.51-.69-1.51-1.51zM36.73 128.96v-7.91h-1.87v-.33c1.76-.3 3.21-1.51 3.49-5.05h.36v4.94h3.71v.44h-3.71v8.05c0 1.73.63 2.58 1.87 2.58 1.13 0 2.03-1.24 2.14-3.65h.38c0 2.8-1.24 4.45-3.21 4.45-1.95 0-3.16-1.13-3.16-3.52zM43.51 131.74h.19c1.13 0 1.48-.27 1.48-1.54v-14.91c0-1.26-.27-1.59-1.48-1.59h-.25v-.38l3.65-.41v7.28l-.14 3.63h.06c.66-1.98 2.25-3.41 4.26-3.41 2.22 0 3.24 1.37 3.24 4.09v5.71c0 1.24.27 1.54 1.51 1.54h.05v.38h-5.3v-.38h.27c1.24 0 1.51-.3 1.51-1.54v-6.4c0-1.92-.82-2.53-1.92-2.53-2 0-3.52 2.03-3.52 4.42v4.5c0 1.24.27 1.54 1.48 1.54h.27v.38h-5.38v-.38zM63.42 129.79c0-2.33 2.09-3.57 7.25-4.78v-.8c0-2.64-1.04-3.54-2.69-3.54-1.48 0-2.75.63-2.75 1.13 0 .08.03.11.14.11.55 0 1.15.52 1.15 1.21 0 .71-.55 1.26-1.24 1.26-.71 0-1.24-.52-1.24-1.32 0-1.43 1.51-2.77 4.45-2.77 2.2 0 4.12.8 4.12 4.04v5.63c0 1.15.33 1.51.71 1.51.66 0 .93-.69.96-2.2h.38c-.05 2.61-.96 3.1-2.09 3.1-1.07 0-2.06-.6-1.92-2.58h-.06c-.52 1.43-2.17 2.64-4.09 2.64-1.73-.01-3.08-.89-3.08-2.64zm7.25-2.37v-1.98c-4.2.85-4.97 2.31-4.97 3.87 0 1.24.66 2.14 1.92 2.14 1.35.01 3.05-.98 3.05-4.03zM11.03 162.3h.33c1.21 0 1.48-.3 1.48-1.57v-13.21c0-1.26-.27-1.57-1.48-1.57h-.19v-.36l3.57-.22-.08 2.8h.06c.88-1.7 2.06-2.88 3.85-2.88 2.25 0 4.81 2.33 4.81 6.02 0 3.62-2.5 6.04-4.92 6.04-1.87 0-3.02-1.29-3.76-2.97h-.03s.11 1.7.11 3.43v2.91c0 1.26.27 1.57 1.48 1.57h.63v.38h-5.85v-.37zm10.02-10.93c0-2.86-.66-5.63-2.77-5.63-1.35 0-3.54 1.59-3.54 5.6 0 2.83 1.51 5.58 3.49 5.58 2.11 0 2.82-2.58 2.82-5.55zM24.81 151.4c0-3.71 2.58-6.21 5.33-6.21 2.2 0 4.72 1.7 4.72 5.25 0 .08-.03.69-.06.82h-7.75c0 3.02 1.21 5.36 3.57 5.36 2.11 0 3.19-1.07 4.09-2.39l.3.22c-1.02 1.7-2.61 3.05-5 3.05-3.14 0-5.2-2.34-5.2-6.1zm6.37-.58c1.1 0 1.4-.36 1.4-1.24 0-2.2-.77-3.98-2.53-3.98-1.92 0-2.91 2.06-2.99 5.22h4.12zM36.1 156.7h.19c1.21 0 1.48-.3 1.48-1.54v-7.69c0-1.24-.33-1.54-1.48-1.54h-.19v-.33l3.65-.22-.19 4.64h.05c.85-2.99 2.23-4.78 4.04-4.78 1.4 0 2.2.82 2.2 1.79 0 1.07-.6 1.62-1.37 1.62-.69 0-1.24-.44-1.24-1.13 0-.6.33-.88.58-1.1.14-.11.22-.19.22-.33 0-.22-.27-.27-.6-.27-1.98 0-3.65 3.9-3.65 6.07v3.27c0 1.24.27 1.54 1.48 1.54h.63v.38h-5.8v-.38zM47.99 156.4c-.41 0-.77.33-.99.93h-.27v-4.67h.25c.47 2.69 2.66 4.31 4.83 4.31 1.62 0 2.77-.93 2.77-2.22 0-1.24-.85-1.7-3.63-2.5-2.42-.69-4.09-1.32-4.09-3.71 0-1.98 1.48-3.21 3.57-3.21 1.59 0 2.31.71 3.16.71.44 0 .8-.22.99-.69h.27v4.17h-.25c-.44-2.25-2-3.82-4.31-3.82-1.26 0-2.28.82-2.28 2.03 0 1.29 1.07 1.7 3.38 2.31 2.99.8 4.34 1.65 4.34 3.82 0 2.2-1.68 3.49-4.04 3.49-1.7.01-3.04-.95-3.7-.95zM57.24 151.32c0-3.57 2.8-6.12 5.38-6.12s5.36 2.5 5.36 6.07c0 3.49-2.77 6.23-5.36 6.23s-5.38-2.7-5.38-6.18zm8.43.02c0-3.19-.82-5.77-3.05-5.77s-3.05 2.53-3.05 5.71c0 3.16.77 5.82 3.05 5.82s3.05-2.6 3.05-5.76zM69.13 156.7h.19c1.21 0 1.48-.3 1.48-1.54v-7.66c0-1.24-.27-1.57-1.48-1.57h-.19v-.33l3.65-.22-.14 3.38h.06c.74-2.22 2.47-3.41 4.26-3.41 2.22 0 3.24 1.37 3.24 4.09v5.71c0 1.24.27 1.54 1.51 1.54h.06v.38h-5.3v-.38h.27c1.24 0 1.51-.3 1.51-1.54v-6.4c0-1.92-.82-2.53-1.92-2.53-2 0-3.52 2.01-3.52 4.45v4.48c0 1.24.27 1.54 1.48 1.54h.27v.38h-5.44v-.37zM82.64 154.75c0-2.33 2.09-3.57 7.25-4.78v-.8c0-2.64-1.04-3.54-2.69-3.54-1.48 0-2.75.63-2.75 1.13 0 .08.03.11.14.11.55 0 1.15.52 1.15 1.21 0 .71-.55 1.26-1.24 1.26-.71 0-1.24-.52-1.24-1.32 0-1.43 1.51-2.77 4.45-2.77 2.2 0 4.12.8 4.12 4.04v5.63c0 1.15.33 1.51.71 1.51.66 0 .93-.69.96-2.2h.38c-.05 2.61-.96 3.1-2.09 3.1-1.07 0-2.06-.6-1.92-2.58h-.06c-.52 1.43-2.17 2.64-4.09 2.64-1.73 0-3.08-.88-3.08-2.64zm7.25-2.36v-1.98c-4.2.85-4.97 2.31-4.97 3.87 0 1.24.66 2.14 1.92 2.14 1.35 0 3.05-.98 3.05-4.03zM94.37 156.7h.11c1.24 0 1.51-.33 1.51-1.65V140.3c0-1.32-.27-1.65-1.51-1.65h-.22v-.38l3.68-.41v17.19c0 1.32.27 1.65 1.48 1.65h.22v.38h-5.27v-.38zM100.49 156.7h.22c1.21 0 1.48-.3 1.48-1.54v-7.64c0-1.26-.28-1.57-1.48-1.57h-.22v-.36l3.65-.22v9.78c0 1.24.28 1.54 1.48 1.54h.22v.38h-5.36v-.37zm.91-15.71c0-.82.69-1.51 1.51-1.51s1.51.69 1.51 1.51c0 .82-.69 1.51-1.51 1.51s-1.51-.69-1.51-1.51zM106.8 156.81l7.53-10.85h-2.47c-2.55 0-3.57 1.29-4.28 4.17h-.28l.3-4.53h9.01v.22l-7.55 10.9h3.13c2.88 0 3.79-1.7 4.28-4.42h.27l-.3 4.78h-9.64v-.27zM118.15 151.4c0-3.71 2.58-6.21 5.33-6.21 2.2 0 4.72 1.7 4.72 5.25 0 .08-.03.69-.06.82h-7.75c0 3.02 1.21 5.36 3.57 5.36 2.11 0 3.19-1.07 4.09-2.39l.3.22c-1.02 1.7-2.61 3.05-5 3.05-3.14 0-5.2-2.34-5.2-6.1zm6.37-.58c1.1 0 1.4-.36 1.4-1.24 0-2.2-.77-3.98-2.53-3.98-1.92 0-2.91 2.06-2.99 5.22h4.12zM129.73 151.34c0-3.41 2.17-6.04 4.83-6.04 1.65 0 2.94 1.15 3.79 2.83h.08c-.06-.77-.08-2.42-.08-4.15v-3.74c0-1.26-.3-1.57-1.51-1.57h-.69v-.38l4.15-.41v17.14c0 1.24.25 1.59 1.46 1.59h.22v.39l-3.63.41.11-3.08h-.08c-.91 1.68-2.06 3.02-3.93 3.02-2.27.01-4.72-2.27-4.72-6.01zm8.63-.02c0-4.09-2.28-5.6-3.46-5.6-2.25 0-2.86 2.55-2.86 5.55 0 3.05.74 5.66 2.83 5.66 1.43-.01 3.49-1.99 3.49-5.61zM12.84 178.89v-7.91h-1.87v-.33c1.76-.3 3.21-1.51 3.49-5.05h.36v4.94h3.71v.44h-3.71v8.05c0 1.73.63 2.58 1.87 2.58 1.13 0 2.03-1.24 2.14-3.65h.38c0 2.8-1.24 4.45-3.21 4.45-1.95-.01-3.16-1.13-3.16-3.52zM19.84 181.66h.19c1.21 0 1.48-.3 1.48-1.54v-7.69c0-1.24-.33-1.54-1.48-1.54h-.19v-.33l3.65-.22-.19 4.64h.05c.85-2.99 2.23-4.78 4.04-4.78 1.4 0 2.2.82 2.2 1.79 0 1.07-.6 1.62-1.37 1.62-.69 0-1.24-.44-1.24-1.13 0-.6.33-.88.58-1.1.14-.11.22-.19.22-.33 0-.22-.27-.27-.6-.27-1.98 0-3.65 3.9-3.65 6.07v3.27c0 1.24.27 1.54 1.48 1.54h.63v.38h-5.8v-.38zM30.03 176.36c0-3.71 2.58-6.21 5.33-6.21 2.2 0 4.72 1.7 4.72 5.25 0 .08-.03.69-.05.82h-7.75c0 3.02 1.21 5.36 3.57 5.36 2.11 0 3.19-1.07 4.09-2.39l.3.22c-1.02 1.7-2.61 3.05-5 3.05-3.15 0-5.21-2.34-5.21-6.1zm6.37-.57c1.1 0 1.4-.36 1.4-1.24 0-2.2-.77-3.98-2.53-3.98-1.92 0-2.91 2.06-2.99 5.22h4.12zM41.56 179.71c0-2.33 2.09-3.57 7.25-4.78v-.8c0-2.64-1.04-3.54-2.69-3.54-1.48 0-2.75.63-2.75 1.13 0 .08.03.11.14.11.55 0 1.15.52 1.15 1.21 0 .71-.55 1.26-1.24 1.26-.71 0-1.24-.52-1.24-1.32 0-1.43 1.51-2.77 4.45-2.77 2.2 0 4.12.8 4.12 4.04v5.63c0 1.15.33 1.51.71 1.51.66 0 .93-.69.96-2.2h.38c-.05 2.61-.96 3.1-2.09 3.1-1.07 0-2.06-.6-1.92-2.58h-.06c-.52 1.43-2.17 2.64-4.09 2.64-1.73 0-3.08-.88-3.08-2.64zm7.25-2.36v-1.98c-4.2.85-4.97 2.31-4.97 3.87 0 1.24.66 2.14 1.92 2.14 1.35.01 3.05-.98 3.05-4.03zM54.5 178.89v-7.91h-1.87v-.33c1.76-.3 3.21-1.51 3.49-5.05h.36v4.94h3.71v.44h-3.71v8.05c0 1.73.63 2.58 1.87 2.58 1.13 0 2.03-1.24 2.14-3.65h.38c0 2.8-1.24 4.45-3.21 4.45-1.96-.01-3.16-1.13-3.16-3.52zM61.5 181.66h.19c1.21 0 1.48-.3 1.48-1.54v-7.66c0-1.24-.27-1.57-1.48-1.57h-.19v-.33l3.65-.22-.14 3.38h.06c.71-2.14 2.39-3.41 4.17-3.41 2.09 0 2.91 1.32 3.13 3.1.85-1.92 2.36-3.1 4.09-3.1 2.23 0 3.16 1.37 3.16 4.09v5.71c0 1.24.27 1.54 1.51 1.54h.06v.38h-5.3v-.38h.27c1.24 0 1.51-.3 1.51-1.54v-6.4c0-1.92-.74-2.53-1.84-2.53-2.01 0-3.43 2.2-3.43 4.45v4.48c0 1.24.27 1.54 1.51 1.54h.25v.38h-5.49v-.38h.27c1.24 0 1.51-.3 1.51-1.54v-6.4c0-1.92-.74-2.53-1.84-2.53-1.98 0-3.43 2.11-3.43 4.45v4.48c0 1.24.27 1.54 1.48 1.54h.27v.38H61.5v-.37zM82.12 176.36c0-3.71 2.58-6.21 5.33-6.21 2.2 0 4.72 1.7 4.72 5.25 0 .08-.03.69-.05.82h-7.75c0 3.02 1.21 5.36 3.57 5.36 2.12 0 3.19-1.07 4.09-2.39l.3.22c-1.02 1.7-2.61 3.05-5 3.05-3.15 0-5.21-2.34-5.21-6.1zm6.37-.57c1.1 0 1.4-.36 1.4-1.24 0-2.2-.77-3.98-2.53-3.98-1.92 0-2.91 2.06-2.99 5.22h4.12zM93.4 181.66h.19c1.21 0 1.48-.3 1.48-1.54v-7.66c0-1.24-.27-1.57-1.48-1.57h-.19v-.33l3.65-.22-.14 3.38h.05c.74-2.22 2.47-3.41 4.26-3.41 2.22 0 3.24 1.37 3.24 4.09v5.71c0 1.24.27 1.54 1.51 1.54h.05v.38h-5.3v-.38h.27c1.24 0 1.51-.3 1.51-1.54v-6.4c0-1.92-.82-2.53-1.92-2.53-2 0-3.52 2.01-3.52 4.45v4.48c0 1.24.28 1.54 1.48 1.54h.27v.38H93.4v-.37zM108.15 178.89v-7.91h-1.87v-.33c1.76-.3 3.21-1.51 3.49-5.05h.36v4.94h3.71v.44h-3.71v8.05c0 1.73.63 2.58 1.87 2.58 1.13 0 2.03-1.24 2.14-3.65h.38c0 2.8-1.24 4.45-3.21 4.45-1.95-.01-3.16-1.13-3.16-3.52zM11.03 212.23h.33c1.21 0 1.48-.3 1.48-1.57v-13.21c0-1.26-.27-1.57-1.48-1.57h-.19v-.36l3.57-.22-.08 2.8h.06c.88-1.7 2.06-2.88 3.85-2.88 2.25 0 4.81 2.33 4.81 6.01 0 3.63-2.5 6.04-4.92 6.04-1.87 0-3.02-1.29-3.76-2.97h-.03s.11 1.7.11 3.43v2.91c0 1.26.27 1.57 1.48 1.57h.63v.38h-5.85v-.36zm10.02-10.93c0-2.86-.66-5.63-2.77-5.63-1.35 0-3.54 1.59-3.54 5.6 0 2.83 1.51 5.58 3.49 5.58 2.11 0 2.82-2.59 2.82-5.55zM24.51 206.63h.11c1.24 0 1.51-.33 1.51-1.65v-14.75c0-1.32-.27-1.65-1.51-1.65h-.22v-.38l3.68-.41v17.19c0 1.32.27 1.65 1.48 1.65h.22v.38h-5.27v-.38zM30.83 204.68c0-2.33 2.09-3.57 7.25-4.78v-.8c0-2.64-1.04-3.54-2.69-3.54-1.48 0-2.75.63-2.75 1.13 0 .08.03.11.14.11.55 0 1.15.52 1.15 1.21 0 .71-.55 1.26-1.24 1.26-.71 0-1.24-.52-1.24-1.32 0-1.43 1.51-2.77 4.45-2.77 2.2 0 4.12.8 4.12 4.04v5.63c0 1.15.33 1.51.71 1.51.66 0 .93-.69.96-2.2h.38c-.05 2.61-.96 3.1-2.09 3.1-1.07 0-2.06-.6-1.92-2.58H38c-.52 1.43-2.17 2.64-4.09 2.64-1.74-.01-3.08-.89-3.08-2.64zm7.25-2.37v-1.98c-4.2.85-4.97 2.31-4.97 3.87 0 1.24.66 2.14 1.92 2.14 1.34.01 3.05-.98 3.05-4.03zM42.55 206.63h.19c1.21 0 1.48-.3 1.48-1.54v-7.66c0-1.24-.27-1.57-1.48-1.57h-.19v-.33l3.65-.22-.14 3.38h.06c.74-2.22 2.47-3.41 4.26-3.41 2.23 0 3.24 1.37 3.24 4.09v5.71c0 1.24.27 1.54 1.51 1.54h.05v.38h-5.3v-.38h.27c1.24 0 1.51-.3 1.51-1.54v-6.4c0-1.92-.82-2.53-1.92-2.53-2.01 0-3.52 2-3.52 4.45v4.48c0 1.24.27 1.54 1.48 1.54h.27v.38h-5.44v-.37zM56.8 205.64c0-.88.69-1.57 1.57-1.57s1.57.69 1.57 1.57-.69 1.57-1.57 1.57-1.57-.69-1.57-1.57z"/></svg>