<svg id="Layer_1" xmlns="http://www.w3.org/2000/svg" viewBox="0 0 160 600"><style>.st0{fill:#bdd6e6}.st1{fill:#00a9e0}</style><path class="st0" d="M23.54 254.57c.31-.31.85-.77 1.47-1.01 1.01-.31 1.86.31 1.7 1.39-.31 2.25-.7 5.5-.54 6.74.7-.15 4.18-3.64 5.96-5.42.62-.62 1.32-1.39 1.94-2.01 1.7.15 1.16 1.32.77 1.7-1.01 1.08-1.39 1.47-2.4 2.55-1.86 1.78-4.34 4.65-5.96 4.88-.93.15-1.63-.31-1.94-1.24-.54-1.24-.08-4.41.31-6.35-.62.54-2.55 2.4-3.56 3.56-1.08 1.32-2.17 2.56-3.33 3.87-.62.54-.85.62-1.24.39-.85-.46-.31-1.63.08-2.4 1.94-3.87 4.03-7.82 6.04-11.69.16-.39.46-.62.77-.54.39.08.7.46.7.85-1.08 2.63-2.17 4.88-3.41 7.28 1.02-1 1.87-1.85 2.64-2.55z"/><path class="st0" d="M39.18 256.74c2.17-.23 4.88-1.32 6.35-2.48 1.63.39 1.01 1.39.62 1.7-.93.7-2.01 1.32-3.1 1.7-1.94.62-3.95 1.01-5.42.85.31.62.46 2.01.08 3.1-.7 1.94-2.01 3.33-4.18 3.56-2.79.15-3.56-2.48-3.02-4.65 1.01-3.72 4.26-7.9 7.36-9.29 1.24-.54 2.4-.15 2.4 1.39 0 1.63-1.86 3.41-2.71 4.1.46.1 1.08.1 1.62.02zm-3.71 1.86c-1.01.77-1.94 1.55-3.02 2.17-.15.08-.23.15-.23.31-.16.46-.23 1.01-.16 1.55.16.93.7 1.24 1.47 1.08 1.55-.39 2.32-1.63 2.63-3.1.15-.85-.08-1.47-.46-2.09-.16 0-.16 0-.23.08zm2.47-5.27a12.47 12.47 0 0 0-3.64 3.87c1.55-1.31 2.71-2.47 3.64-3.87z"/><path class="st0" d="M59.08 239.24c2.79 0 4.65.08 6.5.23.77.08 1.63.39 1.32 1.24-.46.93-1.16.46-1.86.46-2.25-.08-4.49-.15-6.74-.23-.31 0-.46.08-.7.39-1.86 2.63-4.18 5.11-6.58 6.97-.23.15-.46.39-.62.7-5.11 8.98-9.6 17.81-12.7 27.02-.15.31-.15.62-.15 1.01s-.15.62-.46.77c-.31.15-.62.08-.93-.23-.46-.62-.31-1.32-.15-1.94 3.02-9.29 7.35-17.58 11.69-25.32 2.09-3.64 3.87-6.5 5.57-9.37-4.49 0-7.97.15-11.46.15-.7.15-2.17-.39-1.47-1.39.46-.62 2.01-.15 2.56-.15 3.87-.08 7.51-.31 11.23-.31.23 0 .39-.08.62-.31 1.01-1.47 2.94-5.03 4.72-5.11 1.08.08 1.32.77 1.16 1.55-.31 1.24-.93 2.63-1.55 3.87zm-3.87 1.86c-.23.39-.46.77-.85 1.63.46-.54.93-1.24 1.39-1.7-.39-.08-.39-.08-.54.07zm1.93-1.93c.31-.46.62-1.16.85-1.7-.54.62-.93 1.16-1.32 1.7.24.07.32 0 .47 0z"/><path class="st0" d="M50.87 255.11c.77-1.55 1.63-3.02 2.71-4.26l.31-.31c.31-.15.62-.08.93.15.23.23.39.62.23.93-.08.08-.15.23-.23.31-1.63 2.32-3.56 5.88-3.64 8.28 0 .54.23.7.62.62.62-.15 1.16-.46 1.63-.77 2.4-1.78 4.57-3.79 6.58-5.81 1.7.15 1.39 1.16.85 1.63-2.17 2.01-4.1 4.03-6.35 5.65-.7.46-1.47.85-2.4 1.01-1.32.16-2.4-.7-2.56-2.01-.23-1.93.63-3.79 1.32-5.42zm5.19-7.58c-.46 0-.85-.39-.93-.77 0-.46.39-.85.93-.85.39 0 .7.31.77.7.08.53-.3.92-.77.92z"/><path class="st0" d="M67.67 246.98c1.08-.15 2.01.31 2.48 1.24.39.85.54 1.78.46 2.79-.15.39-.31.77-.85.77-.54-.15-.7-.62-.7-1.08 0-.46-.08-.93-.23-1.39-.23-.62-.54-.77-1.08-.54-1.55.77-3.33 2.56-4.26 3.64-1.86 2.25-4.57 6.12-4.41 8.83.23 2.4 3.41 1.24 4.8.54 1.78-.85 3.41-1.94 5.03-3.1 2.01-1.39 5.96-4.41 5.96-4.41 1.63.39.85 1.47.7 1.63-1.94 1.39-3.87 2.86-5.81 4.26-2.79 2.09-7.59 5.03-10.14 4.1-1.24-.39-2.09-1.39-2.25-2.79-.23-2.71 1.39-5.57 3.02-7.82 1.4-2.1 4.96-6.2 7.28-6.67z"/><path class="st0" d="M81.53 248.84c1.01 0 1.63.85 1.47 1.78-.93 2.79-3.64 4.88-6.04 5.96-.46.23-1.01.39-1.47.39-.23 0-.31.08-.39.23-.46 1.01-.85 2.25-.77 3.1.15 2.09 2.79.54 3.64 0 2.86-2.17 7.43-6.04 7.43-6.04 1.63.15 1.24 1.24.7 1.63-2.48 2.09-4.88 4.34-7.35 5.96-1.32.85-2.71 1.39-4.1 1.16-1.08-.23-1.86-1.24-2.01-2.48-.23-2.01 1.08-5.11 2.94-7.28 1.62-1.85 4.09-4.41 5.95-4.41zm-5.03 6.2c1.86-1.08 3.48-2.4 4.57-4.26-1.16.31-4.41 3.33-4.57 4.26z"/><path class="st0" d="M83.08 258.37c.46-2.17 2.25-4.34 4.03-5.81 1.32-1.01 3.02-1.86 4.34-.77.08.08.23.15.31.15.7.31.77 1.01.46 1.55-.77 1.78-1.55 3.56-2.17 5.34-.08.31-.23.85-.23 1.24 0 1.55 2.94-1.08 3.25-1.32 1.86-1.63 5.34-4.41 5.34-4.49 1.63.23 1.24 1.24.77 1.55-1.7 1.47-3.41 2.86-5.03 4.26-1.16.93-2.55 2.01-3.95 2.17-1.39.15-2.01-.93-2.09-1.86-.16-1.24.46-2.4.77-3.48-1.55 1.55-3.25 3.1-4.26 3.17-1.08.08-1.77-.7-1.54-1.7zm3.95-2.09c1.08-1.16 2.09-2.17 2.86-3.25-.54.08-1.01.39-1.32.62-1.47 1.01-3.41 3.79-3.64 4.49.47-.32 1.71-1.48 2.1-1.86z"/><path class="st0" d="M104.29 251.24c1.24-1.01 2.63-1.94 4.03-2.17 1.63-.31 3.02.7 3.25 2.4.15 2.01-.39 3.48-1.01 4.8 2.63-.39 5.11-1.01 7.43-2.01 1.47.39 1.24 1.39.31 1.78-2.01.85-4.1 1.39-6.27 1.78-.77.08-1.62.31-2.4.39-.23.08-.31.15-.46.31-.54.7-1.08 1.32-1.7 1.94-1.01.93-2.09 1.63-3.33 1.63-1.39.08-2.32-1.16-2.09-2.48.16-.85.7-1.39 1.47-1.78 1.47-.62 2.94-.85 4.49-1.08.23 0 .31-.08.39-.23.7-1.24 1.32-2.56 1.47-4.03 0-1.01-.08-1.7-.85-1.7-1.86-.23-5.11 3.1-6.19 4.26-2.48 2.63-4.57 5.5-6.43 8.59-.77 1.32-1.55 2.79-2.32 4.18-.23.54-.62.93-1.32.54-.77-.39-.39-1.39-.15-1.94 2.79-5.88 5.19-11.38 8.21-16.65 1.94-3.48 4.1-6.89 6.35-10.22.77-1.32 1.7-2.4 2.55-3.64.23-.15.46-.23.77-.08.54.16.7.77.39 1.16-1.08 1.7-1.94 3.1-2.94 4.57-2.4 3.64-4.72 7.35-6.81 11.23-.46.93-1.01 2.09-1.47 3.33.61-.93 3.01-3.56 4.63-4.88zm2.25 7.59c-.85.08-2.79.39-2.79 1.47.7.16 2.25-.62 2.79-1.47z"/><path class="st0" d="M119.01 265.18c3.1-3.1 6.19-6.19 9.37-9.29.39-.39 1.55-1.63 1.55-1.63 1.47.15 1.47 1.01.46 2.01-1.32 1.32-2.94 3.02-4.34 4.34-7.28 7.05-8.13 8.21-9.91 8.59-1.01.23-1.94-.31-2.25-1.47-.46-2.09.08-4.41.7-6.27 1.08-2.86 2.4-5.57 3.87-8.13 1.32-2.4 2.71-4.65 4.26-6.81 1.55-2.17 5.03-7.28 7.2-7.43.93-.08 1.39.39 1.24 1.32-.85 3.41-5.03 7.74-7.9 10.61-1.01 1.01-2.09 2.01-3.1 2.94-.08.08-.16.15-.23.23-1.47 2.71-2.86 5.5-3.87 8.44-.54 1.63-.85 3.79-.39 4.88.63-.09 2.48-1.48 3.34-2.33zm9.21-22.92c-1.16 1.32-2.25 2.56-3.1 4.03.62-.47 3.02-3.56 3.1-4.03z"/><path class="st0" d="M136.58 248.84c1.01 0 1.63.85 1.47 1.78-.93 2.79-3.64 4.88-6.04 5.96-.46.23-1.01.39-1.47.39-.23 0-.31.08-.39.23-.46 1.01-.85 2.25-.77 3.1.16 2.09 2.79.54 3.64 0 2.87-2.17 7.43-6.04 7.43-6.04 1.63.15 1.24 1.24.7 1.63-2.48 2.09-4.88 4.34-7.36 5.96-1.32.85-2.71 1.39-4.1 1.16-1.08-.23-1.86-1.24-2.01-2.48-.23-2.01 1.08-5.11 2.94-7.28 1.62-1.85 4.1-4.41 5.96-4.41zm-5.03 6.2c1.86-1.08 3.48-2.4 4.57-4.26-1.17.31-4.42 3.33-4.57 4.26z"/><g><path class="st1" d="M15.7 164.27h3.31l4.63 21.44h.08v-21.44h2.29v29.3h-2.76l-5.18-24.16H18v24.16h-2.3v-29.3zM29.21 188.69v-19.53c0-3.4 1.83-5.31 4.93-5.31 3.1 0 4.93 1.91 4.93 5.31v19.53c0 3.4-1.83 5.31-4.93 5.31-3.11 0-4.93-1.92-4.93-5.31zm7.3-.43v-18.68c0-2.46-.68-3.44-2.38-3.44-1.74 0-2.38.98-2.38 3.44v18.68c0 2.46.64 3.44 2.38 3.44 1.7 0 2.38-.97 2.38-3.44zM42.24 164.27h3.31l4.63 21.44h.08v-21.44h2.29v29.3H49.8l-5.18-24.16h-.08v24.16h-2.29v-29.3zM55.44 188.77v-5.14h2.46v4.67c0 2.42.68 3.4 2.38 3.4 1.74 0 2.42-.98 2.42-3.4v-4.42c0-2-.55-2.97-2-3.91l-2.25-1.44c-2.17-1.4-3.02-3.02-3.02-5.86v-3.78c0-3.23 1.74-5.05 4.76-5.05 3.01 0 4.76 1.83 4.76 5.05v3.78h-2.46v-3.35c0-2.29-.64-3.19-2.25-3.19-1.61 0-2.25.89-2.25 3.19v3.19c0 2 .55 2.97 2 3.91l2.25 1.44c2.17 1.4 3.02 3.01 3.02 5.86v5.05c0 3.35-1.83 5.22-4.93 5.22-3.1.01-4.89-1.86-4.89-5.22zM67.97 188.86v-24.59h2.55v24.12c0 2.38.59 3.31 2.29 3.31s2.29-.93 2.29-3.31v-24.12h2.46v24.59c0 3.27-1.78 5.14-4.8 5.14s-4.79-1.87-4.79-5.14zM80.83 164.27h4.71c3.4 0 5.01 1.74 5.01 5.31v3.74c0 2.38-.76 3.82-2.29 4.5v.08c1.53.68 2.29 2.12 2.29 4.54v11.13H88v-10.96c0-2.72-.76-3.52-3.19-3.52h-1.44v14.48h-2.55v-29.3zm4.42 12.61c2.12 0 2.76-.81 2.76-3.52V170c0-2.72-.64-3.52-2.76-3.52h-1.87v10.4h1.87zM93.53 189.41v-20.3c0-3.35 1.83-5.27 4.88-5.27 3.1 0 4.84 1.91 4.84 5.27v3.23h-2.42v-2.76c0-2.46-.68-3.44-2.38-3.44-1.74 0-2.38.98-2.38 3.44v19.53c0 1.74.64 2.59 2.04 2.59 1.74 0 2.72-1.32 2.72-3.69v-8.41h-2.38v-2.21h4.93v16.18h-2.17v-2.08h-.13c-.68 1.61-1.91 2.51-3.65 2.51-2.46 0-3.9-1.75-3.9-4.59zM106.44 164.27h2.55v29.3h-2.55v-29.3zM112.17 188.94V168.9c0-3.23 1.7-5.05 4.76-5.05 3.1 0 4.8 1.83 4.8 5.05v4.8h-2.42v-4.37c0-2.29-.68-3.19-2.29-3.19-1.66 0-2.29.89-2.29 3.19v19.19c0 2.29.64 3.18 2.29 3.18 1.61 0 2.29-.89 2.29-3.18v-5.9h2.42v6.33c0 3.23-1.7 5.05-4.8 5.05-3.06 0-4.76-1.83-4.76-5.06zM127.33 164.27h3.35l3.69 29.3h-2.59l-.85-7.26h-3.99l-.85 7.26h-2.46l3.7-29.3zm3.35 19.83l-1.7-15.8h-.08l-1.7 15.8h3.48zM136.75 164.27h2.55v27.09h5.44v2.21h-7.98v-29.3zM18.91 203.44h-3.57v-2.21h9.68v2.21h-3.57v27.09H18.9v-27.09zM27.36 201.23h4.71c3.4 0 5.01 1.74 5.01 5.31v3.74c0 2.38-.76 3.82-2.29 4.5v.08c1.53.68 2.29 2.12 2.29 4.54v11.13h-2.55v-10.96c0-2.72-.76-3.52-3.18-3.52h-1.44v14.48h-2.55v-29.3zm4.41 12.62c2.12 0 2.76-.81 2.76-3.52v-3.35c0-2.72-.64-3.52-2.76-3.52H29.9v10.4h1.87zM40.22 201.23h8.41v2.21h-5.86v10.23h5.1v2.21h-5.1v12.44h5.86v2.21h-8.41v-29.3zM53.85 201.23h3.35l3.69 29.3H58.3l-.85-7.26h-3.99l-.85 7.26h-2.46l3.7-29.3zm3.36 19.84l-1.7-15.8h-.08l-1.7 15.8h3.48zM65.83 203.44h-3.57v-2.21h9.68v2.21h-3.57v27.09h-2.55v-27.09zM74.27 201.23h4.03l3.27 21.61h.08l3.27-21.61h4.2v29.3h-2.55v-26.2h-.07l-3.95 26.2h-2l-3.95-26.2h-.08v26.2h-2.25v-29.3zM92.49 201.23h8.41v2.21h-5.86v10.23h5.1v2.21h-5.1v12.44h5.86v2.21h-8.41v-29.3zM103.4 201.23h3.31l4.63 21.44h.08v-21.44h2.29v29.3h-2.76l-5.18-24.16h-.08v24.16h-2.29v-29.3zM119.62 203.44h-3.57v-2.21h9.68v2.21h-3.57v27.09h-2.55v-27.09zM127.6 225.74v-5.14h2.46v4.67c0 2.42.68 3.4 2.38 3.4 1.74 0 2.42-.98 2.42-3.4v-4.42c0-2-.55-2.97-2-3.91l-2.25-1.44c-2.17-1.4-3.01-3.02-3.01-5.86v-3.78c0-3.23 1.74-5.05 4.76-5.05 3.01 0 4.76 1.83 4.76 5.05v3.78h-2.46v-3.35c0-2.29-.64-3.19-2.25-3.19-1.61 0-2.25.89-2.25 3.19v3.19c0 2 .55 2.97 2 3.91l2.25 1.44c2.17 1.4 3.01 3.01 3.01 5.86v5.05c0 3.35-1.83 5.22-4.93 5.22-3.11 0-4.89-1.87-4.89-5.22zM140.21 227.05h2.84v3.48h-2.84v-3.48zM37.21 275.16h4.71c3.4 0 5.01 1.74 5.01 5.31v3.74c0 2.38-.76 3.82-2.29 4.5v.08c1.53.68 2.29 2.12 2.29 4.54v11.13h-2.55V293.5c0-2.72-.76-3.52-3.18-3.52h-1.44v14.48h-2.55v-29.3zm4.41 12.62c2.12 0 2.76-.81 2.76-3.52v-3.35c0-2.72-.64-3.52-2.76-3.52h-1.87v10.4h1.87zM50.07 275.16h8.41v2.21h-5.86v10.23h5.1v2.21h-5.1v12.44h5.86v2.21h-8.41v-29.3zM60.52 299.67v-5.14h2.46v4.67c0 2.42.68 3.4 2.38 3.4 1.74 0 2.42-.98 2.42-3.4v-4.42c0-2-.55-2.97-2-3.91l-2.25-1.44c-2.17-1.4-3.02-3.02-3.02-5.86v-3.78c0-3.23 1.74-5.05 4.76-5.05 3.01 0 4.76 1.83 4.76 5.05v3.78h-2.46v-3.35c0-2.29-.64-3.19-2.25-3.19-1.61 0-2.25.89-2.25 3.19v3.19c0 2 .55 2.97 2 3.91l2.25 1.44c2.17 1.4 3.02 3.01 3.02 5.86v5.05c0 3.35-1.83 5.22-4.93 5.22-3.11 0-4.89-1.87-4.89-5.22zM73.04 299.75v-24.59h2.55v24.12c0 2.38.59 3.31 2.29 3.31s2.29-.93 2.29-3.31v-24.12h2.46v24.59c0 3.27-1.78 5.14-4.8 5.14s-4.79-1.87-4.79-5.14zM85.91 275.16h2.55v27.09h5.44v2.21h-7.98v-29.3zM98.77 277.37H95.2v-2.21h9.68v2.21h-3.57v27.09h-2.55v-27.09zM106.75 299.67v-5.14h2.46v4.67c0 2.42.68 3.4 2.38 3.4 1.74 0 2.42-.98 2.42-3.4v-4.42c0-2-.55-2.97-2-3.91l-2.25-1.44c-2.17-1.4-3.01-3.02-3.01-5.86v-3.78c0-3.23 1.74-5.05 4.76-5.05 3.01 0 4.76 1.83 4.76 5.05v3.78h-2.46v-3.35c0-2.29-.64-3.19-2.25-3.19-1.61 0-2.25.89-2.25 3.19v3.19c0 2 .55 2.97 2 3.91l2.25 1.44c2.17 1.4 3.01 3.01 3.01 5.86v5.05c0 3.35-1.83 5.22-4.93 5.22-3.1 0-4.89-1.87-4.89-5.22zM119.37 300.98h2.84v3.48h-2.84v-3.48z"/></g></svg>