<svg id="Layer_1" xmlns="http://www.w3.org/2000/svg" viewBox="0 0 160 600"><style>.st0{fill:#eaf5fb}.st1{fill:#002457}</style><path class="st0" d="M15.24 268h127.1v29.5H15.24z"/><path class="st1" d="M27.84 280.66v1.74h3.37v1.65h-3.37v3.15H25.7v-8.19h6.36v1.65h-4.22zM35.43 287.2H33.3v-8.19h2.13v8.19zM44.62 287.2h-2.37l-2.54-4.43-.62-1.24h-.01l.05 1.54v4.13h-1.89v-8.19h2.37l2.54 4.43.62 1.24h.01l-.05-1.54v-4.13h1.89v8.19zM53.88 283.1c0 2.62-1.4 4.09-3.97 4.09h-3.47V279h3.47c2.57.01 3.97 1.49 3.97 4.1zm-2.18 0c0-1.64-.61-2.48-2-2.48h-1.13v4.96h1.13c1.39.01 2-.84 2-2.48zM63.31 285.35h-2.83l-.57 1.85h-2.15l2.88-8.19h2.56l2.87 8.19h-2.2l-.56-1.85zm-.44-1.45l-.6-1.96-.36-1.29h-.02l-.33 1.28-.61 1.97h1.92zM77.22 281.73c0 1.67-1.13 2.63-3.16 2.63h-1.62v2.84H70.3v-8.19h3.76c2.04 0 3.16.96 3.16 2.72zm-2.14-.03c0-.72-.41-1.08-1.35-1.08h-1.29v2.17h1.29c.94 0 1.35-.36 1.35-1.09zM81.97 284.21h-1.28v2.99h-2.1v-8.19h3.91c1.97 0 3.09.92 3.09 2.6 0 1.19-.56 2-1.59 2.37l2.07 3.21h-2.36l-1.74-2.98zm-1.28-1.51h1.45c.91 0 1.3-.31 1.3-1.04 0-.72-.4-1.03-1.3-1.03h-1.45v2.07zM94.73 283.1c0 2.64-1.51 4.22-4.01 4.22-2.49 0-4.02-1.58-4.02-4.22 0-2.64 1.53-4.22 4.02-4.22 2.5.01 4.01 1.58 4.01 4.22zm-5.84 0c0 1.67.65 2.54 1.84 2.54 1.18 0 1.82-.87 1.82-2.54s-.65-2.54-1.82-2.54c-1.19 0-1.84.87-1.84 2.54zM100.57 287.2h-2.51l-2.92-8.19h2.25l1.5 4.95.45 1.61.43-1.59 1.53-4.97h2.17l-2.9 8.19zM106.59 287.2h-2.13v-8.19h2.13v8.19zM115.84 283.1c0 2.62-1.4 4.09-3.97 4.09h-3.47V279h3.47c2.57.01 3.97 1.49 3.97 4.1zm-2.18 0c0-1.64-.61-2.48-2-2.48h-1.13v4.96h1.13c1.39.01 2-.84 2-2.48zM123.85 285.55v1.65h-6.54v-8.19h6.38v1.65h-4.24v1.66h3.38v1.55h-3.38v1.67h4.4zM128.51 284.21h-1.28v2.99h-2.1v-8.19h3.91c1.97 0 3.09.92 3.09 2.6 0 1.19-.56 2-1.59 2.37l2.07 3.21h-2.36l-1.74-2.98zm-1.27-1.51h1.45c.91 0 1.3-.31 1.3-1.04 0-.72-.4-1.03-1.3-1.03h-1.45v2.07z"/></svg>