<svg id="Layer_1" xmlns="http://www.w3.org/2000/svg" viewBox="0 0 160 600"><style>.st0{fill:#002554}.st1{fill:#fff}</style><path class="st0" d="M13.4 230h125.65v22H13.4z"/><path class="st1" d="M24.7 238.77v1.7h3.31v1.62H24.7v3.09h-2.09v-8.03h6.24v1.62H24.7zM32.26 245.18h-2.09v-8.03h2.09v8.03zM41.4 245.18h-2.32l-2.49-4.34-.61-1.22h-.01l.05 1.51v4.05h-1.85v-8.03h2.32l2.49 4.34.61 1.22h.01l-.05-1.51v-4.05h1.85v8.03zM50.59 241.17c0 2.57-1.37 4.01-3.89 4.01h-3.41v-8.03h3.41c2.51 0 3.89 1.45 3.89 4.02zm-2.14 0c0-1.61-.6-2.43-1.96-2.43h-1.11v4.86h1.11c1.36 0 1.96-.83 1.96-2.43zM60.07 243.37H57.3l-.56 1.81h-2.1l2.82-8.03h2.51l2.81 8.03h-2.15l-.56-1.81zm-.44-1.43l-.58-1.92-.35-1.27h-.02l-.33 1.25-.6 1.93h1.88zM73.94 239.81c0 1.64-1.11 2.58-3.1 2.58h-1.59v2.79h-2.09v-8.03h3.69c1.99 0 3.09.94 3.09 2.66zm-2.1-.02c0-.71-.4-1.06-1.33-1.06h-1.26v2.13h1.26c.93 0 1.33-.35 1.33-1.07zM78.71 242.25h-1.25v2.93H75.4v-8.03h3.83c1.93 0 3.03.9 3.03 2.55 0 1.17-.55 1.96-1.56 2.32l2.03 3.15h-2.31l-1.71-2.92zm-1.26-1.49h1.42c.89 0 1.28-.3 1.28-1.02 0-.71-.39-1.01-1.28-1.01h-1.42v2.03zM91.34 241.17c0 2.59-1.48 4.13-3.93 4.13s-3.94-1.54-3.94-4.13 1.5-4.13 3.94-4.13 3.93 1.53 3.93 4.13zm-5.73 0c0 1.64.63 2.49 1.8 2.49 1.16 0 1.79-.85 1.79-2.49s-.63-2.49-1.79-2.49c-1.16-.01-1.8.84-1.8 2.49zM97.18 245.18h-2.46l-2.86-8.03h2.2l1.47 4.85.44 1.58.43-1.56 1.5-4.88h2.13l-2.85 8.04zM103.19 245.18h-2.09v-8.03h2.09v8.03zM112.39 241.17c0 2.57-1.37 4.01-3.89 4.01h-3.41v-8.03h3.41c2.51 0 3.89 1.45 3.89 4.02zm-2.14 0c0-1.61-.6-2.43-1.96-2.43h-1.11v4.86h1.11c1.36 0 1.96-.83 1.96-2.43zM120.35 243.56v1.62h-6.41v-8.03h6.25v1.62h-4.16v1.63h3.31v1.52h-3.31v1.64h4.32zM125.04 242.25h-1.25v2.93h-2.06v-8.03h3.83c1.93 0 3.03.9 3.03 2.55 0 1.17-.55 1.96-1.56 2.32l2.03 3.15h-2.31l-1.71-2.92zm-1.25-1.49h1.42c.89 0 1.28-.3 1.28-1.02 0-.71-.39-1.01-1.28-1.01h-1.42v2.03z"/></svg>