<svg id="Layer_1" xmlns="http://www.w3.org/2000/svg" viewBox="0 0 160 600"><style>.st0{fill:#002554}</style><path class="st0" d="M14.44 197.97l1.4-.46.26.77-1.42.46.89 1.22-.66.48-.89-1.23-.87 1.2-.64-.48.89-1.19-1.43-.49.26-.77 1.42.49v-1.48h.81v1.48zM20.06 197.6l-1.08 6.14h-1.26l1.07-6.14h-2.15l.19-1.1h5.54l-.19 1.1h-2.12zM25.16 203.73l.47-2.7c.01-.08.03-.16.04-.25.01-.08.02-.16.02-.25 0-.22-.06-.41-.17-.58-.12-.17-.33-.25-.63-.25-.2 0-.37.04-.53.11-.15.08-.29.18-.4.3-.11.13-.2.27-.28.43-.07.16-.12.33-.15.5l-.47 2.67h-1.2l1.36-7.73h1.21l-.62 3.52h.02a2 2 0 0 1 .58-.58c.25-.17.56-.25.93-.25.27 0 .51.04.71.12.2.08.37.19.5.33s.23.3.3.49c.06.19.1.38.1.59 0 .17-.01.32-.04.46l-.54 3.06h-1.21zM29.25 201.65c-.01.03-.01.07-.01.11a1.03 1.03 0 0 0 .37.8c.12.1.25.18.41.24s.33.09.51.09c.31 0 .58-.06.8-.17.22-.12.42-.27.6-.47l.69.64c-.61.65-1.35.98-2.22.98-.33 0-.64-.05-.92-.15-.28-.1-.52-.24-.73-.42-.2-.18-.36-.41-.48-.68-.12-.27-.17-.58-.17-.93 0-.42.07-.82.21-1.18.14-.36.34-.68.6-.96.26-.27.56-.49.91-.64s.73-.23 1.15-.23c.29 0 .56.04.81.12.25.08.47.2.65.37.18.16.33.37.43.61.1.25.15.53.15.86 0 .11-.01.26-.03.46-.02.19-.05.38-.09.55h-3.64zm2.66-.85c.01-.05.01-.09.02-.13 0-.04.01-.08.01-.12 0-.27-.09-.49-.28-.67-.19-.18-.45-.28-.79-.28-.21 0-.4.04-.57.11-.17.08-.32.17-.44.29-.13.12-.23.25-.31.39-.08.14-.14.28-.16.41h2.52zM37.52 206.18h-1.21l1.3-7.35h1.14l-.12.79h.03c.2-.29.45-.51.76-.66.31-.16.64-.24 1.01-.24.31 0 .6.05.85.15.26.1.47.25.65.43.18.19.32.41.42.67.1.26.15.55.15.86 0 .42-.07.82-.2 1.19s-.32.69-.56.97c-.24.28-.52.49-.85.65-.33.16-.69.24-1.09.24-.45 0-.81-.08-1.09-.25a1.59 1.59 0 0 1-.63-.68h-.02l-.54 3.23zm3.75-5.21c0-.36-.1-.66-.31-.91-.21-.24-.51-.37-.89-.37-.24 0-.46.05-.67.15-.21.1-.39.24-.55.42a2.103 2.103 0 0 0-.49 1.36c0 .37.11.68.34.92.22.24.53.36.91.36.25 0 .48-.05.69-.15.21-.1.38-.24.53-.41.15-.17.26-.38.34-.61.06-.25.1-.5.1-.76zM45.33 199.64c.17-.29.37-.52.6-.69.23-.17.51-.26.84-.26.05 0 .1 0 .15.01.05 0 .1.01.14.03l-.16 1.11c-.07-.02-.14-.03-.2-.04-.06-.01-.11-.01-.17-.01-.28 0-.51.05-.69.15-.18.1-.32.22-.43.37-.11.14-.19.29-.24.44-.05.15-.08.27-.09.36l-.46 2.63h-1.2l.69-3.86c.03-.13.06-.3.09-.5s.05-.39.07-.55h1.12c0 .03 0 .09-.01.15l-.03.22-.03.24c-.01.08-.02.14-.03.2h.04zM47.14 203.73l.86-4.91h1.21l-.87 4.91h-1.2zm2.46-6.59c0 .2-.07.37-.21.52-.14.15-.31.22-.52.22-.2 0-.37-.06-.51-.18s-.21-.3-.21-.52c0-.22.07-.4.23-.54.15-.14.32-.21.52-.21s.36.06.5.19c.14.12.2.3.2.52zM50.84 199.37c.03-.2.05-.39.07-.55h1.12c-.01.07-.02.19-.04.36-.02.16-.04.3-.05.41h.02c.15-.23.35-.44.59-.62s.55-.28.93-.28c.41 0 .74.09.99.27.25.18.41.41.49.69.21-.3.46-.54.75-.71.29-.17.62-.26.99-.26.29 0 .53.04.74.12.2.08.37.19.51.33s.24.3.3.49.1.38.1.59c0 .17-.01.32-.04.46l-.54 3.06h-1.2l.47-2.7c.01-.08.02-.16.04-.25.01-.08.02-.16.02-.25 0-.11-.01-.21-.04-.32a.845.845 0 0 0-.13-.27.577.577 0 0 0-.25-.18.937.937 0 0 0-.39-.07c-.19 0-.36.04-.51.12-.15.08-.28.19-.39.32-.11.13-.2.27-.27.43s-.12.32-.14.48l-.47 2.68H53.3l.52-2.97c.02-.1.03-.19.03-.28 0-.23-.06-.42-.18-.57-.12-.15-.31-.22-.57-.22-.18 0-.35.04-.5.12-.15.08-.28.18-.38.3-.11.12-.2.26-.27.42-.07.16-.12.32-.15.49l-.48 2.7h-1.2l.67-3.86c-.01-.1.02-.27.05-.48zM62.86 200.62c.01-.08.02-.14.03-.19v-.13c0-.24-.08-.41-.23-.51-.15-.1-.38-.15-.68-.15-.24 0-.49.05-.74.14s-.48.21-.68.35l-.46-.81c.28-.2.6-.35.96-.47.36-.11.72-.17 1.1-.17.23 0 .46.03.69.08.23.05.43.13.61.25s.33.27.43.45c.11.19.16.42.16.7 0 .06 0 .14-.01.22-.01.09-.02.17-.03.24l-.36 1.99c-.03.19-.06.39-.09.59-.02.2-.04.37-.04.51h-1.1c0-.18.02-.38.06-.58h-.02c-.38.46-.91.68-1.6.68-.17 0-.35-.02-.53-.06-.18-.04-.35-.11-.5-.21-.15-.1-.27-.23-.37-.4-.1-.17-.14-.38-.14-.63 0-.4.11-.73.32-.98.21-.25.49-.44.83-.58.34-.14.72-.23 1.14-.28.43-.02.84-.05 1.25-.05zm-.26.86c-.23 0-.47.01-.72.03-.25.02-.48.06-.69.12-.21.06-.38.15-.51.26-.13.11-.2.26-.2.45 0 .12.02.21.07.29.04.08.1.14.18.19s.16.08.26.1a1.496 1.496 0 0 0 .82-.06c.16-.06.3-.14.42-.25.12-.11.22-.23.3-.37.08-.14.13-.29.17-.46l.06-.31h-.16zM67 199.64c.17-.29.37-.52.6-.69.23-.17.51-.26.84-.26.05 0 .1 0 .15.01.05 0 .1.01.14.03l-.16 1.11c-.08-.02-.14-.03-.2-.04-.06-.01-.11-.01-.17-.01-.28 0-.51.05-.69.15-.18.1-.32.22-.43.37-.11.14-.19.29-.23.44-.05.15-.08.27-.09.36l-.46 2.63h-1.2l.69-3.86c.03-.13.06-.3.09-.5s.05-.39.07-.55h1.13c0 .03 0 .09-.01.15l-.03.22-.03.24c-.01.08-.02.14-.03.2H67zM70.67 204.79c-.12.22-.25.41-.37.59-.12.17-.26.32-.4.44-.15.12-.31.21-.49.27s-.38.09-.62.09c-.1 0-.21-.01-.31-.02-.11-.01-.21-.03-.31-.06l.15-1.04c.08.03.15.05.23.06.08.01.15.02.22.02.22 0 .4-.06.53-.19s.26-.32.41-.58l.37-.63-1.1-4.92h1.29l.63 3.6h.02l1.96-3.6h1.27l-3.48 5.97zM79.38 203.86c-.34 0-.66-.05-.95-.15a2.155 2.155 0 0 1-1.25-1.11c-.12-.26-.18-.55-.18-.87 0-.4.07-.79.21-1.15.14-.36.34-.69.6-.97.26-.28.57-.5.94-.67s.77-.25 1.22-.25c.35 0 .67.05.96.15.29.1.54.25.75.43.21.19.38.41.5.67.12.26.18.55.18.86 0 .41-.07.8-.21 1.17-.14.37-.34.69-.6.97-.26.28-.57.5-.94.66-.37.18-.78.26-1.23.26zm1.77-2.92c0-.37-.11-.67-.34-.91-.23-.24-.53-.36-.92-.36-.26 0-.49.05-.7.16s-.39.25-.53.43c-.15.18-.26.38-.34.62-.08.23-.12.48-.12.74 0 .37.11.67.33.91.22.24.52.36.92.36.26 0 .49-.05.71-.15.21-.1.39-.24.54-.42.15-.18.26-.38.34-.62.07-.25.11-.5.11-.76zM85.24 199.61c.2-.29.45-.51.76-.67.31-.16.64-.25 1.01-.25.31 0 .6.05.85.15.26.1.47.25.65.43.18.19.32.41.42.67.1.26.15.55.15.86 0 .42-.07.82-.2 1.19s-.32.69-.56.97-.52.49-.85.65c-.33.16-.69.24-1.09.24-.37 0-.71-.08-1.03-.25-.32-.17-.56-.4-.73-.71h-.02l-.14.84h-1.14l1.36-7.73h1.21l-.67 3.61h.02zm2.62 1.34c0-.36-.1-.66-.31-.91s-.51-.37-.9-.37c-.24 0-.46.05-.67.15-.21.1-.39.24-.55.42-.15.18-.28.38-.36.62-.09.23-.13.48-.13.74 0 .37.11.68.34.92.23.24.53.36.91.36.25 0 .48-.05.69-.15.21-.1.38-.24.53-.41.15-.17.26-.38.34-.61.07-.25.11-.5.11-.76zM91.2 204.06c-.05.29-.12.56-.21.82-.09.26-.2.49-.36.68-.15.19-.35.35-.59.46-.24.11-.54.17-.91.17-.1 0-.2-.01-.3-.02-.1-.01-.18-.03-.24-.04l.24-1.02c.05.01.11.02.17.03.06.01.11.01.16.01.14 0 .26-.03.36-.08.1-.05.17-.13.24-.22.06-.1.11-.21.14-.33.03-.13.06-.26.09-.4l.93-5.28h1.21l-.93 5.22zm1.32-6.92c0 .2-.07.37-.21.52-.14.15-.31.22-.52.22-.2 0-.37-.06-.51-.18s-.21-.3-.21-.52c0-.22.08-.4.23-.54.15-.14.32-.21.52-.21s.36.06.5.19c.14.12.2.3.2.52zM94.21 201.65c-.01.03-.01.07-.01.11 0 .16.03.31.1.45.06.14.15.25.27.35.12.1.25.18.41.24.16.06.33.09.51.09.31 0 .58-.06.8-.17.22-.12.42-.27.6-.47l.68.64c-.61.65-1.35.98-2.22.98-.33 0-.64-.05-.92-.15-.28-.1-.52-.24-.73-.42-.2-.18-.36-.41-.48-.68-.12-.27-.17-.58-.17-.93 0-.42.07-.82.21-1.18.14-.36.34-.68.6-.96.26-.27.56-.49.91-.64.35-.15.73-.23 1.15-.23.29 0 .56.04.81.12.25.08.46.2.65.37.18.16.33.37.43.61.1.25.15.53.15.86 0 .11-.01.26-.03.46-.02.19-.05.38-.09.55h-3.63zm2.66-.85c.01-.05.01-.09.02-.13 0-.04.01-.08.01-.12 0-.27-.09-.49-.28-.67-.19-.18-.45-.28-.79-.28-.21 0-.4.04-.57.11-.17.08-.32.17-.44.29-.13.12-.23.25-.31.39-.08.14-.14.28-.16.41h2.52zM102.97 200.21c-.09-.15-.23-.28-.41-.38-.18-.11-.38-.16-.6-.16a1.615 1.615 0 0 0-1.25.57 2.103 2.103 0 0 0-.49 1.35c0 .17.02.33.07.49.05.15.12.29.22.41s.23.22.39.29c.16.07.34.11.56.11.31 0 .55-.05.74-.16.19-.11.36-.24.52-.39l.69.69c-.26.26-.55.46-.88.61-.33.15-.71.23-1.14.23-.35 0-.68-.05-.97-.15a2.3 2.3 0 0 1-.75-.43c-.21-.19-.37-.41-.48-.67-.11-.26-.17-.55-.17-.87 0-.4.07-.78.21-1.15s.34-.69.6-.98c.26-.28.57-.51.95-.67.37-.17.78-.25 1.23-.25.37 0 .72.07 1.05.2.33.13.58.34.76.63l-.85.68zM104.18 199.8l.17-.98h.85l.25-1.43h1.19l-.25 1.43h1.1l-.17.98h-1.08l-.43 2.3c-.02.1-.03.2-.03.28 0 .18.05.3.16.37s.25.1.42.1c.08 0 .16-.01.24-.02.08-.01.15-.03.22-.04l-.07.91c-.1.04-.22.07-.36.1-.14.02-.27.04-.38.04-.52 0-.89-.1-1.1-.31-.22-.21-.33-.48-.33-.82 0-.1.01-.2.02-.31.01-.11.03-.22.05-.31l.42-2.27h-.89zM107.88 203.73l.86-4.91h1.21l-.87 4.91h-1.2zm2.47-6.59c0 .2-.07.37-.21.52-.14.15-.31.22-.52.22-.2 0-.37-.06-.51-.18s-.21-.3-.21-.52c0-.22.08-.4.23-.54.15-.14.32-.21.52-.21s.36.06.5.19c.13.12.2.3.2.52zM113.15 203.73h-1.29l-.96-4.91h1.26l.57 3.6h.02l2.05-3.6h1.27l-2.92 4.91zM117.37 201.65c-.01.03-.01.07-.01.11 0 .16.03.31.1.45.06.14.15.25.27.35.12.1.25.18.41.24.16.06.33.09.51.09.31 0 .58-.06.8-.17.22-.12.42-.27.6-.47l.69.64c-.61.65-1.35.98-2.22.98-.33 0-.64-.05-.92-.15-.28-.1-.52-.24-.73-.42-.2-.18-.36-.41-.48-.68-.12-.27-.17-.58-.17-.93 0-.42.07-.82.21-1.18.14-.36.34-.68.6-.96.26-.27.56-.49.91-.64.35-.15.73-.23 1.15-.23.29 0 .56.04.81.12.25.08.46.2.65.37.18.16.33.37.43.61.1.25.15.53.15.86 0 .11-.01.26-.03.46-.02.19-.05.38-.09.55h-3.64zm2.66-.85c.01-.05.01-.09.02-.13 0-.04.01-.08.01-.12 0-.27-.09-.49-.28-.67-.19-.18-.45-.28-.79-.28-.21 0-.4.04-.57.11-.17.08-.32.17-.44.29-.13.12-.23.25-.31.39-.08.14-.14.28-.16.41h2.52zM16.96 216h-1.23l-.44-3.47h-.02L13.44 216h-1.23l-.67-4.91h1.26l.34 3.53h.02l1.76-3.53h1.26l.4 3.53h.02l1.78-3.53h1.26L16.96 216zM23.13 212.89c.01-.08.02-.14.03-.19 0-.04.01-.09.01-.13 0-.24-.08-.41-.23-.51-.15-.1-.38-.15-.68-.15-.24 0-.49.05-.74.14-.26.09-.48.21-.68.35l-.46-.81c.28-.2.6-.35.96-.47.36-.11.72-.17 1.1-.17.23 0 .46.03.69.08.23.05.43.13.61.25s.33.27.43.45c.11.19.16.42.16.7 0 .06 0 .14-.01.22-.01.09-.02.17-.03.24l-.36 1.99c-.03.19-.06.39-.09.59s-.04.37-.04.51h-1.1c0-.18.02-.38.06-.58h-.02c-.38.46-.91.69-1.6.69-.17 0-.35-.02-.53-.06-.18-.04-.35-.11-.5-.21-.15-.1-.27-.23-.37-.4-.1-.17-.14-.38-.14-.63 0-.4.11-.73.32-.98.21-.25.49-.44.83-.58.34-.14.72-.23 1.14-.28.43-.03.84-.06 1.24-.06zm-.26.86c-.23 0-.47.01-.72.03-.25.02-.48.06-.69.12-.21.06-.38.15-.51.26-.13.11-.2.26-.2.45 0 .12.02.21.07.29.04.08.1.14.18.19s.16.08.26.1a1.496 1.496 0 0 0 .82-.06c.16-.06.3-.14.42-.25.12-.11.22-.23.3-.37.08-.14.13-.29.17-.46l.06-.31h-.16zM25.88 214.59c.1.2.25.35.45.45s.42.16.67.16c.28 0 .5-.05.67-.16.17-.11.25-.26.25-.45 0-.18-.07-.31-.2-.39-.13-.09-.35-.18-.64-.27-.23-.08-.43-.15-.61-.23-.17-.08-.32-.17-.43-.28a1.1 1.1 0 0 1-.26-.36c-.06-.14-.09-.3-.09-.48 0-.24.05-.46.16-.65.11-.2.26-.37.45-.51s.42-.25.67-.33c.26-.08.54-.12.85-.12.38 0 .73.07 1.04.21.31.14.55.35.73.64l-.93.55c-.09-.14-.2-.25-.35-.34-.14-.09-.34-.14-.58-.14-.1 0-.21.01-.31.03-.11.02-.2.05-.28.1a.512.512 0 0 0-.28.46c0 .16.07.27.2.35.13.07.33.15.59.22.46.13.81.31 1.06.53.25.22.38.54.38.95 0 .27-.06.51-.17.72s-.27.38-.47.53c-.19.14-.42.25-.67.32-.26.07-.53.11-.81.11-.53 0-.96-.09-1.28-.28-.32-.19-.57-.42-.74-.7l.93-.64zM32.89 212.08l.17-.98h.85l.25-1.43h1.19l-.25 1.43h1.1l-.17.98h-1.08l-.43 2.3c-.02.1-.03.2-.03.28 0 .18.05.3.16.37s.25.1.42.1c.08 0 .16-.01.24-.02.08-.01.15-.03.22-.04l-.07.91c-.1.04-.22.07-.36.1-.14.02-.27.04-.38.04-.52 0-.89-.1-1.1-.31-.22-.21-.33-.48-.33-.82 0-.1.01-.2.02-.31.01-.11.03-.22.05-.31l.42-2.27h-.89zM39.03 216.14c-.34 0-.66-.05-.95-.15a2.155 2.155 0 0 1-1.25-1.11c-.12-.26-.18-.55-.18-.87 0-.4.07-.79.21-1.15.14-.36.34-.69.6-.97.26-.28.57-.5.94-.67.36-.17.77-.25 1.22-.25.35 0 .67.05.96.15.29.1.54.25.75.43.21.19.38.41.5.67.12.26.18.55.18.86 0 .41-.07.8-.21 1.17-.14.37-.34.69-.6.97-.26.28-.57.5-.94.66-.37.17-.78.26-1.23.26zm1.77-2.93c0-.37-.11-.67-.34-.91-.22-.24-.53-.36-.92-.36-.26 0-.49.05-.7.16-.21.11-.39.25-.53.43-.15.18-.26.38-.34.62-.08.23-.12.48-.12.74 0 .37.11.67.33.91.22.24.52.36.92.36.26 0 .49-.05.71-.15.21-.1.39-.24.54-.42.15-.18.26-.38.34-.62.07-.25.11-.5.11-.76zM46.95 213.93c-.01.03-.01.07-.01.11a1.03 1.03 0 0 0 .37.8c.12.1.25.18.41.24.16.06.33.09.51.09.31 0 .58-.06.8-.17.22-.12.42-.27.6-.47l.69.64c-.61.65-1.35.98-2.22.98-.33 0-.64-.05-.92-.15-.28-.1-.52-.24-.73-.42-.21-.18-.37-.41-.48-.68s-.17-.58-.17-.93c0-.42.07-.82.21-1.18.14-.36.34-.68.6-.96.26-.27.56-.49.91-.64.35-.15.73-.23 1.15-.23.29 0 .56.04.81.12.25.08.47.2.65.37.18.16.33.37.43.61.1.25.15.53.15.86 0 .11-.01.26-.03.46-.02.19-.05.38-.09.55h-3.64zm2.66-.86c.01-.05.01-.09.02-.13v-.12c0-.27-.09-.49-.28-.67-.19-.18-.45-.28-.79-.28-.21 0-.4.04-.57.11-.17.08-.32.17-.44.29-.13.12-.23.25-.31.39-.08.14-.14.28-.16.41h2.53zM54.04 216h-1.29l-.96-4.91h1.26l.57 3.6h.02l2.05-3.6h1.27L54.04 216zM60.48 212.89c.01-.08.02-.14.03-.19 0-.04.01-.09.01-.13 0-.24-.08-.41-.23-.51-.15-.1-.38-.15-.68-.15-.24 0-.49.05-.74.14-.26.09-.48.21-.68.35l-.46-.81c.28-.2.6-.35.96-.47.36-.11.72-.17 1.1-.17.23 0 .46.03.69.08.23.05.43.13.61.25s.33.27.43.45c.11.19.16.42.16.7 0 .06 0 .14-.01.22-.01.09-.02.17-.03.24l-.36 1.99c-.03.19-.06.39-.09.59s-.04.37-.04.51h-1.1c0-.18.02-.38.06-.58h-.01c-.38.46-.91.69-1.6.69-.17 0-.35-.02-.53-.06-.18-.04-.35-.11-.5-.21-.15-.1-.27-.23-.37-.4-.1-.17-.14-.38-.14-.63 0-.4.11-.73.32-.98.21-.25.49-.44.83-.58.34-.14.72-.23 1.14-.28.42-.03.83-.06 1.23-.06zm-.25.86c-.23 0-.47.01-.72.03-.25.02-.48.06-.69.12-.21.06-.38.15-.51.26-.13.11-.2.26-.2.45 0 .12.02.21.07.29.04.08.1.14.18.19.07.05.16.08.26.1a1.496 1.496 0 0 0 .82-.06c.16-.06.3-.14.42-.25.12-.11.22-.23.3-.37.08-.14.13-.29.17-.46l.06-.31h-.16zM62.77 216l1.36-7.73h1.21L63.96 216h-1.19zM69.04 215.24c-.17.27-.39.48-.65.65s-.58.25-.95.25c-.27 0-.51-.04-.71-.12s-.37-.19-.5-.33-.23-.3-.3-.49c-.06-.19-.1-.38-.1-.59 0-.17.01-.32.04-.46l.54-3.06h1.2l-.47 2.7c-.01.08-.03.16-.04.25-.01.08-.02.16-.02.25 0 .22.06.41.17.58.12.17.33.25.63.25.19 0 .36-.04.52-.11.15-.08.29-.18.4-.3.11-.13.2-.27.28-.42.07-.16.12-.32.15-.48l.48-2.7h1.2l-.67 3.85c-.03.13-.06.3-.09.5s-.05.39-.07.55h-1.12c.01-.08.02-.19.04-.35.02-.16.04-.3.05-.41h-.01zM75.31 212.89c.01-.08.02-.14.03-.19v-.13c0-.24-.08-.41-.23-.51-.15-.1-.38-.15-.68-.15-.24 0-.49.05-.74.14-.26.09-.48.21-.68.35l-.46-.81c.28-.2.6-.35.96-.47.36-.11.72-.17 1.1-.17.23 0 .46.03.69.08.23.05.43.13.61.25s.33.27.43.45c.11.19.16.42.16.7 0 .06 0 .14-.01.22-.01.09-.02.17-.03.24l-.36 1.99c-.03.19-.06.39-.09.59-.02.2-.04.37-.04.51h-1.1c0-.18.02-.38.06-.58h-.02c-.38.46-.91.69-1.6.69-.17 0-.35-.02-.53-.06-.18-.04-.35-.11-.5-.21-.15-.1-.27-.23-.37-.4-.09-.17-.14-.38-.14-.63 0-.4.11-.73.32-.98.21-.25.49-.44.83-.58.34-.14.72-.23 1.14-.28.44-.03.85-.06 1.25-.06zm-.25.86c-.23 0-.47.01-.72.03-.25.02-.48.06-.68.12-.21.06-.38.15-.51.26-.13.11-.2.26-.2.45 0 .12.02.21.07.29.04.08.1.14.18.19.08.05.16.08.26.1a1.496 1.496 0 0 0 .82-.06c.16-.06.3-.14.42-.25.12-.11.22-.23.3-.37.08-.14.13-.29.17-.46l.06-.31h-.17zM77.47 212.08l.17-.98h.85l.25-1.43h1.19l-.25 1.43h1.1l-.17.98h-1.08l-.43 2.3c-.02.1-.03.2-.03.28 0 .18.05.3.16.37s.25.1.42.1c.08 0 .16-.01.24-.02.08-.01.15-.03.22-.04l-.07.91c-.1.04-.22.07-.36.1-.14.02-.27.04-.38.04-.52 0-.89-.1-1.1-.31-.22-.21-.33-.48-.33-.82 0-.1 0-.2.02-.31.01-.11.03-.22.05-.31l.42-2.27h-.89zM82.39 213.93c-.01.03-.01.07-.01.11 0 .16.03.31.1.45s.16.25.27.35c.12.1.25.18.41.24.16.06.33.09.51.09.31 0 .58-.06.8-.17.22-.12.42-.27.6-.47l.69.64c-.61.65-1.35.98-2.22.98-.33 0-.64-.05-.92-.15-.28-.1-.52-.24-.73-.42-.2-.18-.36-.41-.48-.68s-.17-.58-.17-.93c0-.42.07-.82.21-1.18.14-.36.34-.68.6-.96.26-.27.56-.49.91-.64.35-.15.73-.23 1.15-.23.29 0 .56.04.81.12.25.08.46.2.65.37.18.16.33.37.43.61.1.25.15.53.15.86 0 .11-.01.26-.03.46-.02.19-.05.38-.09.55h-3.64zm2.66-.86c.01-.05.01-.09.02-.13v-.12c0-.27-.09-.49-.28-.67-.19-.18-.45-.28-.79-.28-.21 0-.4.04-.57.11-.17.08-.32.17-.44.29-.13.12-.23.25-.31.39-.08.14-.14.28-.16.41h2.53zM92.34 216.14c-.34 0-.66-.05-.95-.15a2.155 2.155 0 0 1-1.25-1.11c-.12-.26-.18-.55-.18-.87 0-.4.07-.79.21-1.15.14-.36.34-.69.6-.97.26-.28.57-.5.94-.67.36-.17.77-.25 1.22-.25.35 0 .67.05.96.15.29.1.54.25.75.43s.38.41.5.67c.12.26.18.55.18.86 0 .41-.07.8-.21 1.17-.14.37-.34.69-.6.97-.26.28-.57.5-.94.66-.37.17-.78.26-1.23.26zm1.77-2.93c0-.37-.11-.67-.34-.91s-.53-.36-.92-.36c-.26 0-.49.05-.7.16-.21.11-.39.25-.53.43s-.26.38-.34.62c-.08.23-.12.48-.12.74 0 .37.11.67.33.91.22.24.52.36.92.36.26 0 .49-.05.71-.15.21-.1.39-.24.54-.42.15-.18.26-.38.34-.62s.11-.5.11-.76zM98.62 216h-1.29l-.96-4.91h1.26l.57 3.6h.02l2.05-3.6h1.27L98.62 216zM102.84 213.93c-.01.03-.01.07-.01.11 0 .16.03.31.1.45.06.14.15.25.27.35.12.1.25.18.41.24.16.06.33.09.51.09.31 0 .58-.06.8-.17.22-.12.42-.27.6-.47l.69.64c-.61.65-1.35.98-2.22.98-.33 0-.64-.05-.92-.15-.28-.1-.52-.24-.73-.42-.2-.18-.36-.41-.48-.68-.12-.27-.17-.58-.17-.93 0-.42.07-.82.21-1.18.14-.36.34-.68.6-.96.26-.27.56-.49.91-.64.35-.15.73-.23 1.15-.23.29 0 .56.04.81.12.25.08.46.2.65.37.18.16.33.37.43.61.1.25.15.53.15.86 0 .11-.01.26-.03.46-.02.19-.05.38-.09.55h-3.64zm2.66-.86c.01-.05.01-.09.02-.13 0-.04.01-.08.01-.12 0-.27-.09-.49-.28-.67-.19-.18-.45-.28-.79-.28-.21 0-.4.04-.57.11-.17.08-.32.17-.44.29-.13.12-.23.25-.31.39-.08.14-.14.28-.16.41h2.52zM109.46 211.91c.17-.29.37-.52.6-.69.23-.17.51-.26.84-.26.05 0 .1 0 .15.01.05 0 .1.01.14.03l-.16 1.11c-.08-.02-.14-.03-.2-.04-.06-.01-.11-.01-.17-.01-.28 0-.51.05-.69.15-.18.1-.32.22-.43.37-.11.14-.19.29-.24.44-.05.15-.08.27-.09.36l-.46 2.63h-1.2l.68-3.86c.03-.13.06-.3.09-.5s.05-.39.07-.55h1.13c0 .03 0 .09-.01.15l-.03.22-.03.24c-.01.08-.02.14-.03.2h.04zM114.58 212.89c.01-.08.02-.14.03-.19 0-.04.01-.09.01-.13 0-.24-.08-.41-.23-.51-.15-.1-.38-.15-.68-.15-.24 0-.49.05-.74.14-.26.09-.48.21-.68.35l-.46-.81c.28-.2.6-.35.96-.47.36-.11.72-.17 1.1-.17.23 0 .46.03.69.08.23.05.43.13.61.25s.33.27.43.45c.11.19.16.42.16.7 0 .06 0 .14-.01.22-.01.09-.02.17-.03.24l-.36 1.99c-.03.19-.06.39-.09.59-.02.2-.04.37-.04.51h-1.1c0-.18.02-.38.06-.58h-.02c-.38.46-.91.69-1.6.69-.17 0-.35-.02-.53-.06-.18-.04-.35-.11-.5-.21-.15-.1-.27-.23-.37-.4-.1-.17-.14-.38-.14-.63 0-.4.11-.73.32-.98.21-.25.49-.44.83-.58.34-.14.72-.23 1.14-.28.43-.03.84-.06 1.24-.06zm-.25.86c-.23 0-.47.01-.72.03-.25.02-.48.06-.69.12-.21.06-.38.15-.51.26-.13.11-.2.26-.2.45 0 .12.02.21.07.29.04.08.1.14.18.19.07.05.16.08.26.1a1.496 1.496 0 0 0 .82-.06c.16-.06.3-.14.42-.25.12-.11.22-.23.3-.37.08-.14.13-.29.17-.46l.06-.31h-.16zM116.86 216l1.36-7.73h1.21l-1.37 7.73h-1.2zM119.8 216l1.36-7.73h1.21L121 216h-1.2zM12.21 230.72H11l1.3-7.35h1.14l-.12.79h.03c.2-.29.45-.51.76-.66.31-.16.64-.24 1.01-.24.31 0 .6.05.85.15.26.1.47.25.65.43.18.19.32.41.42.67.1.26.15.55.15.86 0 .42-.07.82-.2 1.19s-.32.69-.56.97c-.24.28-.52.49-.85.65-.33.16-.69.24-1.09.24-.45 0-.81-.08-1.09-.25s-.49-.39-.63-.68h-.02l-.54 3.23zm3.75-5.21c0-.36-.1-.66-.31-.91-.21-.24-.51-.37-.89-.37-.24 0-.46.05-.67.15-.21.1-.39.24-.55.42a2.103 2.103 0 0 0-.49 1.36c0 .37.11.68.34.92.22.24.53.36.91.36.25 0 .48-.05.69-.15.21-.1.39-.24.53-.41.15-.17.26-.38.34-.61.06-.25.1-.5.1-.76zM21.59 225.17c.01-.08.02-.14.03-.19 0-.04.01-.09.01-.13 0-.24-.08-.41-.23-.51-.15-.1-.38-.15-.68-.15-.24 0-.49.05-.74.14-.26.09-.48.21-.68.35l-.46-.81c.28-.2.6-.35.96-.47.36-.11.72-.17 1.1-.17.23 0 .46.03.69.08.23.05.43.13.61.25s.33.27.43.45c.11.19.16.42.16.7 0 .06 0 .14-.01.22-.01.09-.02.17-.03.24l-.36 1.99c-.03.19-.06.39-.09.59s-.04.37-.04.51h-1.1c0-.18.02-.38.06-.58h-.02c-.38.46-.91.68-1.6.68-.17 0-.35-.02-.53-.06-.18-.04-.35-.11-.5-.21-.15-.1-.27-.23-.37-.4-.1-.17-.14-.38-.14-.63 0-.4.11-.73.32-.98.21-.25.49-.44.83-.58.34-.14.72-.23 1.14-.28.43-.03.84-.05 1.24-.05zm-.25.85c-.23 0-.47.01-.72.03-.25.02-.48.06-.69.12-.21.06-.38.15-.51.26-.13.11-.2.26-.2.45 0 .12.02.21.07.29.04.08.1.14.18.19.08.05.16.08.26.1a1.496 1.496 0 0 0 .82-.06c.16-.06.3-.14.42-.25.12-.11.22-.23.3-.37.08-.14.13-.29.17-.46l.06-.31h-.16zM23.75 224.35l.17-.98h.85l.25-1.43h1.19l-.25 1.43h1.1l-.17.98h-1.08l-.43 2.3c-.02.1-.03.2-.03.28 0 .18.05.3.16.37s.25.1.42.1c.08 0 .16-.01.24-.02.08-.01.15-.03.22-.04l-.07.91a2.28 2.28 0 0 1-.74.14c-.52 0-.89-.1-1.1-.31-.22-.21-.33-.48-.33-.82 0-.1.01-.2.02-.31.01-.11.03-.22.05-.31l.42-2.27h-.89zM27.45 228.27l.86-4.91h1.21l-.87 4.91h-1.2zm2.47-6.59c0 .2-.07.37-.21.52-.14.15-.31.22-.52.22-.2 0-.37-.06-.51-.18s-.21-.3-.21-.52c0-.22.07-.4.22-.54s.32-.21.52-.21.36.06.5.19.21.3.21.52zM31.61 226.2c-.01.03-.01.07-.01.11a1.03 1.03 0 0 0 .37.8c.12.1.25.18.41.24s.33.09.51.09c.31 0 .58-.06.8-.17.22-.12.42-.27.6-.47l.69.64c-.61.65-1.35.98-2.22.98-.33 0-.64-.05-.92-.15-.28-.1-.52-.24-.73-.42-.2-.18-.36-.41-.48-.68-.12-.27-.17-.58-.17-.93 0-.42.07-.82.21-1.18.14-.36.34-.68.6-.96.26-.27.56-.49.91-.64.35-.15.73-.23 1.15-.23.29 0 .56.04.81.12.25.08.47.2.65.37.18.16.33.37.43.61.1.25.15.53.15.86 0 .11-.01.26-.03.46-.02.19-.05.38-.09.55h-3.64zm2.65-.86c.01-.05.01-.09.02-.13 0-.04.01-.08.01-.12 0-.27-.09-.49-.28-.67-.19-.18-.45-.28-.79-.28-.21 0-.4.04-.57.11-.17.08-.32.17-.44.29-.13.12-.23.25-.31.39-.08.14-.14.28-.16.41h2.52zM38.24 224.13c.17-.27.39-.48.65-.65.26-.17.58-.25.95-.25.27 0 .51.04.71.12.2.08.37.19.5.33s.23.3.3.49c.07.19.1.38.1.59 0 .17-.01.32-.04.46l-.54 3.06h-1.2l.47-2.7c.01-.08.03-.16.04-.25.01-.08.02-.16.02-.25 0-.22-.06-.41-.17-.58-.12-.17-.33-.25-.63-.25-.2 0-.37.04-.52.11-.15.08-.28.18-.39.3-.11.13-.2.27-.28.42-.07.16-.12.32-.15.48l-.48 2.7h-1.2l.67-3.86c.03-.13.06-.3.09-.5s.05-.39.07-.55h1.12c-.01.07-.02.19-.04.35-.02.16-.04.3-.05.41zM42.52 224.35l.17-.98h.85l.25-1.43h1.19l-.25 1.43h1.1l-.17.98h-1.08l-.43 2.3c-.02.1-.03.2-.03.28 0 .18.05.3.16.37s.25.1.42.1c.08 0 .16-.01.24-.02.08-.01.15-.03.22-.04l-.07.91c-.1.04-.22.07-.36.1-.14.02-.27.04-.38.04-.52 0-.89-.1-1.1-.31-.22-.21-.33-.48-.33-.82 0-.1 0-.2.02-.31.01-.11.03-.22.05-.31l.42-2.27h-.89zM49.45 226.86c.1.2.25.35.45.45.2.11.42.16.67.16.28 0 .5-.05.67-.16.17-.11.25-.26.25-.45 0-.18-.07-.31-.2-.39-.13-.09-.35-.18-.64-.27-.23-.08-.43-.15-.61-.23-.17-.08-.32-.17-.44-.28a1.1 1.1 0 0 1-.26-.36c-.06-.14-.09-.3-.09-.48 0-.24.05-.46.16-.65.11-.2.26-.37.45-.51s.42-.25.67-.33c.26-.08.54-.12.85-.12.38 0 .73.07 1.04.21.31.14.55.35.73.64l-.93.55c-.09-.14-.21-.25-.35-.34s-.34-.14-.58-.14c-.1 0-.21.01-.31.03-.11.02-.2.05-.28.1a.512.512 0 0 0-.28.46c0 .16.07.27.2.35.13.07.33.15.59.22.46.13.81.31 1.06.53.25.22.38.54.38.95 0 .27-.06.51-.17.72s-.27.38-.46.53c-.19.14-.42.25-.67.32-.26.07-.53.11-.81.11-.53 0-.96-.09-1.28-.28-.32-.19-.57-.42-.74-.7l.93-.64zM57.16 225.17c.01-.08.02-.14.03-.19v-.13c0-.24-.08-.41-.23-.51-.15-.1-.38-.15-.68-.15-.24 0-.49.05-.74.14-.26.09-.48.21-.68.35l-.46-.81c.28-.2.6-.35.96-.47.36-.11.72-.17 1.1-.17.23 0 .46.03.69.08.23.05.43.13.61.25s.33.27.43.45c.11.19.16.42.16.7 0 .06 0 .14-.01.22-.01.09-.02.17-.03.24l-.36 1.99c-.03.19-.06.39-.09.59s-.04.37-.04.51h-1.1c0-.18.02-.38.06-.58h-.02c-.38.46-.91.68-1.6.68-.17 0-.35-.02-.53-.06s-.35-.11-.5-.21c-.15-.1-.27-.23-.37-.4-.09-.17-.14-.38-.14-.63 0-.4.11-.73.32-.98.21-.25.49-.44.83-.58.34-.14.72-.23 1.14-.28.44-.03.85-.05 1.25-.05zm-.25.85c-.23 0-.47.01-.72.03-.25.02-.48.06-.68.12-.21.06-.38.15-.51.26-.13.11-.2.26-.2.45 0 .12.02.21.07.29.04.08.1.14.18.19.08.05.16.08.26.1a1.496 1.496 0 0 0 .82-.06c.16-.06.3-.14.42-.25.12-.11.22-.23.3-.37.08-.14.13-.29.17-.46l.06-.31h-.17zM59.32 224.35l.17-.98h.85l.25-1.43h1.19l-.25 1.43h1.1l-.17.98h-1.08l-.43 2.3c-.02.1-.03.2-.03.28 0 .18.05.3.16.37s.25.1.42.1c.08 0 .16-.01.24-.02.08-.01.15-.03.22-.04l-.07.91a2.28 2.28 0 0 1-.74.14c-.52 0-.89-.1-1.1-.31-.22-.21-.33-.48-.33-.82 0-.1 0-.2.02-.31.01-.11.03-.22.05-.31l.42-2.27h-.89zM63.02 228.27l.86-4.91h1.21l-.87 4.91h-1.2zm2.47-6.59c0 .2-.07.37-.21.52-.14.15-.31.22-.52.22-.2 0-.37-.06-.51-.18s-.21-.3-.21-.52c0-.22.07-.4.22-.54s.32-.21.52-.21.36.06.5.19.21.3.21.52zM66.43 226.86c.1.2.25.35.45.45.2.11.42.16.67.16.28 0 .5-.05.67-.16.17-.11.25-.26.25-.45 0-.18-.07-.31-.2-.39-.13-.09-.35-.18-.64-.27-.23-.08-.43-.15-.61-.23-.17-.08-.32-.17-.43-.28a1.1 1.1 0 0 1-.26-.36c-.06-.14-.09-.3-.09-.48 0-.24.05-.46.16-.65.11-.2.26-.37.45-.51s.42-.25.67-.33c.26-.08.54-.12.85-.12.38 0 .73.07 1.04.21.31.14.55.35.73.64l-.93.55c-.09-.14-.2-.25-.35-.34-.14-.09-.34-.14-.58-.14-.1 0-.21.01-.31.03-.11.02-.2.05-.28.1a.512.512 0 0 0-.28.46c0 .16.07.27.2.35.13.07.33.15.59.22.46.13.81.31 1.06.53.25.22.38.54.38.95 0 .27-.06.51-.17.72s-.27.38-.47.53c-.19.14-.42.25-.67.32-.26.07-.53.11-.81.11-.53 0-.96-.09-1.28-.28-.32-.19-.57-.42-.74-.7l.93-.64zM74.42 221.51c-.06-.02-.12-.04-.19-.05-.06-.01-.14-.02-.23-.02-.16 0-.3.03-.42.1s-.21.16-.28.27c-.07.11-.13.23-.17.36-.04.13-.08.26-.1.38l-.14.81h1.16l-.17.96h-1.14l-.7 3.95h-1.17l.7-3.95h-.93l.16-.96h.91l.14-.75c.05-.27.12-.54.22-.8s.23-.5.41-.71c.17-.21.39-.37.65-.5s.57-.19.94-.19c.24 0 .44.02.6.07l-.25 1.03zM77.64 225.17c.01-.08.02-.14.03-.19v-.13c0-.24-.08-.41-.23-.51-.15-.1-.38-.15-.68-.15-.24 0-.49.05-.74.14-.26.09-.48.21-.68.35l-.46-.81c.28-.2.6-.35.96-.47.36-.11.72-.17 1.1-.17.23 0 .46.03.69.08.23.05.43.13.61.25s.33.27.43.45c.11.19.16.42.16.7 0 .06 0 .14-.01.22-.01.09-.02.17-.03.24l-.36 1.99c-.03.19-.06.39-.09.59-.02.2-.04.37-.04.51h-1.1c0-.18.02-.38.06-.58h-.02c-.38.46-.91.68-1.6.68-.17 0-.35-.02-.53-.06s-.35-.11-.5-.21c-.15-.1-.27-.23-.37-.4-.09-.17-.14-.38-.14-.63 0-.4.11-.73.32-.98.21-.25.49-.44.83-.58.34-.14.72-.23 1.14-.28.44-.03.85-.05 1.25-.05zm-.25.85c-.23 0-.47.01-.72.03-.25.02-.48.06-.68.12-.21.06-.38.15-.51.26-.13.11-.2.26-.2.45 0 .12.02.21.07.29.04.08.1.14.18.19.08.05.16.08.26.1a1.496 1.496 0 0 0 .82-.06c.16-.06.3-.14.42-.25.12-.11.22-.23.3-.37.08-.14.13-.29.17-.46l.06-.31h-.17zM83.93 224.76c-.09-.15-.23-.28-.41-.38s-.39-.16-.6-.16a1.615 1.615 0 0 0-1.25.57 2.103 2.103 0 0 0-.49 1.35c0 .17.02.33.07.49s.12.29.22.41.23.22.39.29c.16.07.34.11.56.11.31 0 .55-.05.74-.16.19-.11.36-.24.52-.39l.69.69c-.26.26-.55.46-.88.61-.33.15-.71.23-1.14.23-.35 0-.68-.05-.97-.15a2.3 2.3 0 0 1-.75-.43c-.21-.19-.37-.41-.48-.67-.11-.26-.17-.55-.17-.87 0-.4.07-.78.21-1.15.14-.37.34-.69.6-.98.26-.28.57-.51.95-.67.37-.17.78-.25 1.23-.25.37 0 .72.07 1.05.2.33.13.58.34.76.63l-.85.68zM85.14 224.35l.17-.98h.85l.25-1.43h1.19l-.25 1.43h1.1l-.17.98H87.2l-.43 2.3c-.02.1-.03.2-.03.28 0 .18.05.3.16.37s.25.1.42.1c.08 0 .16-.01.24-.02.08-.01.15-.03.22-.04l-.07.91c-.1.04-.22.07-.36.1-.14.02-.27.04-.38.04-.52 0-.89-.1-1.1-.31-.22-.21-.33-.48-.33-.82 0-.1.01-.2.02-.31.01-.11.03-.22.05-.31l.42-2.27h-.89zM88.84 228.27l.86-4.91h1.21l-.87 4.91h-1.2zm2.47-6.59c0 .2-.07.37-.21.52-.14.15-.31.22-.52.22-.2 0-.37-.06-.51-.18s-.21-.3-.21-.52c0-.22.08-.4.23-.54.15-.14.32-.21.52-.21s.36.06.5.19c.13.13.2.3.2.52zM94.21 228.41c-.34 0-.66-.05-.95-.15a2.155 2.155 0 0 1-1.25-1.11c-.12-.26-.18-.55-.18-.87 0-.4.07-.79.21-1.15.14-.36.34-.69.6-.97.26-.28.57-.5.94-.67.36-.17.77-.25 1.22-.25.35 0 .67.05.96.15.29.1.54.25.75.43.21.19.38.41.5.67s.18.55.18.86c0 .41-.07.8-.21 1.17-.14.37-.34.69-.6.97-.26.28-.57.5-.94.66-.37.17-.78.26-1.23.26zm1.77-2.92c0-.37-.11-.67-.34-.91-.22-.24-.53-.36-.92-.36-.26 0-.49.05-.7.16-.21.11-.39.25-.53.43-.15.18-.26.38-.34.62-.08.23-.12.48-.12.74 0 .37.11.67.33.91.22.24.52.36.92.36.26 0 .49-.05.71-.15s.39-.24.54-.42c.15-.18.26-.38.34-.62.07-.26.11-.5.11-.76zM100.04 224.13c.17-.27.39-.48.65-.65.26-.17.58-.25.95-.25.27 0 .51.04.71.12.2.08.37.19.5.33s.23.3.3.49c.06.19.1.38.1.59 0 .17-.01.32-.04.46l-.54 3.06h-1.2l.47-2.7c.01-.08.03-.16.04-.25.01-.08.02-.16.02-.25 0-.22-.06-.41-.17-.58-.12-.17-.33-.25-.63-.25-.2 0-.37.04-.52.11-.15.08-.28.18-.39.3-.11.13-.2.27-.28.42-.07.16-.12.32-.15.48l-.48 2.7h-1.2l.67-3.86c.03-.13.06-.3.09-.5s.05-.39.07-.55h1.13c-.01.07-.02.19-.04.35-.02.16-.04.3-.05.41h-.01zM112.6 228.27h-1.23l-.44-3.47h-.02l-1.83 3.47h-1.23l-.67-4.91h1.26l.34 3.53h.02l1.76-3.53h1.26l.4 3.53h.02l1.78-3.53h1.26l-2.68 4.91zM115.33 228.27l.86-4.91h1.21l-.87 4.91h-1.2zm2.46-6.59c0 .2-.07.37-.21.52-.14.15-.31.22-.52.22-.2 0-.37-.06-.51-.18s-.21-.3-.21-.52c0-.22.08-.4.23-.54.15-.14.32-.21.52-.21s.36.06.5.19.2.3.2.52zM118.24 224.35l.17-.98h.85l.25-1.43h1.19l-.25 1.43h1.1l-.17.98h-1.08l-.43 2.3c-.02.1-.03.2-.03.28 0 .18.05.3.16.37s.25.1.42.1c.08 0 .16-.01.24-.02.08-.01.15-.03.22-.04l-.07.91c-.1.04-.22.07-.36.1-.14.02-.27.04-.38.04-.52 0-.89-.1-1.1-.31-.22-.21-.33-.48-.33-.82 0-.1.01-.2.02-.31.01-.11.03-.22.05-.31l.42-2.27h-.89zM125.25 228.27l.47-2.7c.01-.08.03-.16.04-.25.01-.08.02-.16.02-.25 0-.22-.06-.41-.17-.58-.12-.17-.33-.25-.63-.25-.2 0-.37.04-.53.11-.15.08-.29.18-.4.3-.11.13-.2.27-.28.43-.07.16-.12.33-.15.5l-.47 2.67h-1.2l1.36-7.73h1.21l-.62 3.52h.02a2 2 0 0 1 .58-.58c.25-.17.56-.25.93-.25.27 0 .51.04.71.12.2.08.37.19.5.33s.23.3.3.49c.06.19.1.38.1.59 0 .17-.01.32-.04.46l-.54 3.06h-1.21zM17.84 239.41c-.14.18-.31.36-.5.52-.19.16-.41.3-.64.42-.24.12-.5.21-.79.28s-.6.1-.94.1c-.48 0-.92-.08-1.32-.23-.4-.15-.73-.36-1.02-.63-.28-.27-.5-.6-.66-.98-.16-.38-.24-.8-.24-1.27 0-.63.11-1.21.33-1.76.22-.55.52-1.02.91-1.43.39-.41.84-.73 1.36-.96.52-.24 1.08-.35 1.68-.35.27 0 .52.03.77.08a3.192 3.192 0 0 1 1.28.58c.17.14.31.29.42.45l-.99.75c-.05-.08-.13-.17-.21-.26-.09-.09-.2-.18-.33-.25s-.27-.14-.43-.18c-.16-.05-.34-.07-.54-.07-.43 0-.82.09-1.18.28-.36.18-.66.43-.92.74s-.45.65-.6 1.04c-.14.39-.21.79-.21 1.2 0 .3.05.58.14.84.09.26.23.49.4.69.17.19.39.35.65.47s.56.17.89.17c.36 0 .71-.08 1.03-.23.33-.15.62-.38.88-.71l.78.7zM20.94 240.68c-.34 0-.66-.05-.95-.15a2.155 2.155 0 0 1-1.25-1.11c-.12-.26-.18-.55-.18-.87 0-.4.07-.79.21-1.15.14-.36.34-.69.6-.97.26-.28.57-.5.94-.67.36-.17.77-.25 1.22-.25.35 0 .67.05.96.15.29.1.54.25.75.43.21.19.38.41.5.67.12.26.18.55.18.86 0 .41-.07.8-.21 1.17s-.34.69-.6.97c-.26.28-.57.5-.94.66-.37.18-.78.26-1.23.26zm1.77-2.92c0-.37-.11-.67-.34-.91s-.53-.36-.92-.36c-.26 0-.49.05-.7.16-.21.11-.39.25-.53.43-.15.18-.26.38-.34.62-.08.23-.12.48-.12.74 0 .37.11.67.33.91.22.24.52.36.92.36.26 0 .49-.05.71-.15.21-.1.39-.24.54-.42.15-.18.26-.38.34-.62.07-.25.11-.5.11-.76zM27.32 240.68c-.34 0-.66-.05-.95-.15a2.155 2.155 0 0 1-1.25-1.11c-.12-.26-.18-.55-.18-.87 0-.4.07-.79.21-1.15.14-.36.34-.69.6-.97.26-.28.57-.5.94-.67.36-.17.77-.25 1.22-.25.35 0 .67.05.96.15.29.1.54.25.75.43.21.19.38.41.5.67.12.26.18.55.18.86 0 .41-.07.8-.21 1.17s-.34.69-.6.97c-.26.28-.57.5-.94.66-.37.18-.78.26-1.23.26zm1.77-2.92c0-.37-.11-.67-.34-.91s-.53-.36-.92-.36c-.26 0-.49.05-.7.16-.21.11-.39.25-.53.43-.15.18-.26.38-.34.62-.08.23-.12.48-.12.74 0 .37.11.67.33.91.22.24.52.36.92.36.26 0 .49-.05.71-.15.21-.1.39-.24.54-.42.15-.18.26-.38.34-.62.07-.25.11-.5.11-.76zM31.27 240.55l1.36-7.73h1.21l-1.37 7.73h-1.2zM38.8 234.8c-.14-.22-.32-.38-.54-.48a1.72 1.72 0 0 0-1.15-.09c-.16.04-.3.1-.43.19s-.24.2-.33.34c-.09.14-.13.32-.13.52 0 .26.09.46.27.6.18.14.42.27.73.39.63.23 1.12.51 1.46.83.34.32.51.76.51 1.31 0 .42-.08.77-.25 1.06-.16.29-.38.53-.64.72-.27.18-.57.32-.9.4-.33.08-.67.13-1.01.13-.24 0-.48-.02-.72-.07a3.94 3.94 0 0 1-.69-.21c-.22-.1-.42-.22-.61-.36-.19-.15-.35-.32-.48-.53l1.02-.71c.14.24.34.43.62.59.28.15.58.23.92.23.17 0 .34-.02.51-.06.17-.04.32-.11.45-.2s.24-.21.33-.36c.09-.15.13-.33.13-.55 0-.16-.04-.31-.11-.43-.07-.13-.17-.24-.29-.33-.12-.1-.26-.18-.41-.26-.16-.08-.32-.14-.5-.2-.22-.08-.42-.17-.62-.28-.19-.1-.37-.23-.52-.37-.15-.15-.27-.32-.35-.53-.09-.2-.13-.45-.13-.73 0-.36.08-.68.23-.96.15-.28.36-.51.61-.71.25-.19.54-.34.87-.43.33-.1.67-.15 1.03-.15a2.811 2.811 0 0 1 1.64.53c.16.12.29.25.4.41l-.92.75zM44.29 237.03c-.09-.15-.22-.28-.41-.38-.18-.11-.39-.16-.6-.16a1.615 1.615 0 0 0-1.25.57c-.15.18-.28.38-.36.62-.09.23-.13.48-.13.73 0 .17.02.33.07.49s.12.29.23.41c.1.12.23.22.39.29.16.07.34.11.56.11.31 0 .55-.05.74-.16.19-.11.36-.24.52-.39l.68.69c-.26.26-.55.46-.88.61-.33.15-.71.23-1.14.23-.35 0-.68-.05-.97-.15a2.3 2.3 0 0 1-.75-.43c-.21-.19-.37-.41-.48-.67-.11-.26-.17-.55-.17-.87 0-.4.07-.78.21-1.15.14-.37.34-.69.6-.98.26-.28.57-.51.95-.67.37-.17.78-.25 1.23-.25.37 0 .72.07 1.05.2.33.13.58.34.76.63l-.85.68zM48.86 239.78c-.17.27-.39.48-.65.65-.26.17-.58.25-.95.25-.27 0-.51-.04-.71-.12-.2-.08-.37-.19-.5-.33s-.23-.3-.3-.49c-.07-.19-.1-.38-.1-.59 0-.17.01-.32.04-.46l.54-3.06h1.2l-.47 2.7c-.01.08-.03.16-.04.25-.01.08-.02.16-.02.25 0 .22.06.41.17.58.12.17.33.25.63.25.19 0 .36-.04.52-.11.15-.08.29-.18.4-.3.11-.13.2-.27.28-.42.07-.16.12-.32.15-.48l.48-2.7h1.2l-.67 3.85c-.03.13-.06.3-.09.5s-.05.39-.07.55h-1.13c.01-.08.02-.19.04-.35.02-.16.04-.3.05-.41zM51.69 240.55l1.36-7.73h1.21l-1.37 7.73h-1.2zM55.37 242.99h-1.21l1.3-7.35h1.14l-.12.79h.03c.2-.29.45-.51.76-.66.31-.16.64-.24 1.01-.24.31 0 .6.05.85.15.26.1.47.25.65.43.18.19.32.41.42.67.1.26.15.55.15.86 0 .42-.07.82-.2 1.19s-.32.69-.56.97c-.24.28-.52.49-.85.65-.33.16-.69.24-1.09.24-.45 0-.81-.08-1.09-.25a1.59 1.59 0 0 1-.63-.68h-.02l-.54 3.23zm3.75-5.21c0-.36-.1-.66-.31-.91-.21-.24-.51-.37-.89-.37-.24 0-.46.05-.67.15-.21.1-.39.24-.55.42a2.103 2.103 0 0 0-.49 1.36c0 .37.11.68.34.92.22.24.53.36.91.36.25 0 .48-.05.69-.15.21-.1.39-.24.53-.41.15-.17.26-.38.34-.61.07-.24.1-.49.1-.76zM61.3 236.62l.17-.98h.85l.25-1.43h1.19l-.25 1.43h1.1l-.17.98h-1.08l-.43 2.3c-.02.1-.03.2-.03.28 0 .18.05.3.16.37s.25.1.42.1c.08 0 .16-.01.24-.02.08-.01.15-.03.22-.04l-.07.91a2.28 2.28 0 0 1-.74.14c-.52 0-.89-.1-1.1-.31-.22-.21-.33-.48-.33-.82 0-.1 0-.2.02-.31.01-.11.03-.22.05-.31l.42-2.27h-.89zM65 240.55l.86-4.91h1.21l-.87 4.91H65zm2.47-6.6c0 .2-.07.37-.21.52-.14.15-.31.22-.52.22-.2 0-.37-.06-.51-.18s-.21-.3-.21-.52c0-.22.07-.4.22-.54s.32-.21.52-.21.36.06.5.19.21.3.21.52zM69.82 236.4c.17-.27.39-.48.65-.65.26-.17.58-.25.95-.25.27 0 .51.04.71.12.2.08.37.19.5.33s.23.3.3.49c.07.19.1.38.1.59 0 .17-.01.32-.04.46l-.54 3.06h-1.2l.47-2.7c.01-.08.03-.16.04-.25.01-.08.02-.16.02-.25 0-.22-.06-.41-.17-.58-.12-.17-.33-.25-.63-.25-.2 0-.37.04-.52.11-.15.08-.28.18-.39.3-.11.13-.2.27-.28.42-.07.16-.12.32-.15.48l-.48 2.7h-1.2l.67-3.86c.03-.13.06-.3.09-.5s.05-.39.07-.55h1.13c-.01.07-.02.19-.04.35-.02.16-.04.3-.05.41h-.01zM78.67 236.38l.12-.75h1.15l-.78 4.49c-.08.43-.18.82-.33 1.18-.14.35-.33.66-.57.91-.24.25-.54.45-.89.58-.35.14-.78.2-1.28.2-.2 0-.42-.02-.63-.06-.22-.04-.43-.09-.64-.17-.21-.07-.41-.17-.6-.28a2.07 2.07 0 0 1-.49-.38l.8-.87c.19.22.43.4.71.52.28.12.58.18.89.18.3 0 .55-.04.76-.13.21-.09.38-.2.53-.35.14-.15.26-.33.34-.54.08-.21.15-.44.2-.68l.08-.39h-.02c-.18.23-.41.42-.7.56-.29.14-.62.21-.99.21-.31 0-.6-.05-.85-.15-.26-.1-.47-.25-.65-.43a1.96 1.96 0 0 1-.42-.66c-.1-.26-.15-.55-.15-.86 0-.42.07-.81.2-1.18s.32-.69.56-.97c.24-.28.52-.49.85-.65.33-.16.69-.24 1.09-.24.45 0 .81.08 1.08.25.27.16.47.37.6.63h.03zm-3.19 2c0 .36.1.66.31.91.21.24.51.37.89.37.24 0 .46-.05.67-.15.21-.1.39-.24.55-.42.15-.18.27-.38.36-.61.09-.23.13-.48.13-.73 0-.37-.11-.68-.34-.92-.22-.24-.53-.36-.91-.36-.25 0-.48.05-.69.15-.21.1-.39.24-.53.41-.15.17-.26.38-.34.61-.07.23-.1.48-.1.74zM84.36 242.13c-.26-.47-.46-.99-.6-1.57-.14-.58-.21-1.18-.21-1.81 0-.97.19-1.93.58-2.89.39-.96 1-1.89 1.82-2.81l.75.55c-.36.4-.67.82-.94 1.25-.26.43-.48.86-.65 1.3-.17.44-.3.88-.39 1.31-.09.44-.13.86-.13 1.27 0 .51.06 1.02.18 1.54.12.51.29.98.51 1.41l-.92.45zM88.9 236.4c.17-.27.39-.48.65-.65.26-.17.58-.25.95-.25.27 0 .51.04.71.12.2.08.37.19.5.33s.23.3.3.49c.06.19.1.38.1.59 0 .17-.01.32-.04.46l-.54 3.06h-1.2l.47-2.7c.01-.08.03-.16.04-.25.01-.08.02-.16.02-.25 0-.22-.06-.41-.17-.58-.12-.17-.33-.25-.63-.25-.2 0-.37.04-.52.11-.15.08-.28.18-.39.3-.11.13-.2.27-.28.42-.07.16-.12.32-.15.48l-.48 2.7h-1.2l.67-3.86c.03-.13.06-.3.09-.5s.05-.39.07-.55H89c-.01.07-.02.19-.04.35-.02.16-.04.3-.05.41h-.01zM98.98 236.01v1.04H93.8v-1.04h5.18zm0 1.84v1.04H93.8v-1.04h5.18zM102.3 240.55l1.02-5.78-1.64 1.18-.57-.92 2.51-1.72h1.17l-1.28 7.24h-1.21zM110.19 233.12c.38 0 .71.07.98.2s.49.31.65.54c.17.23.29.49.37.8.08.3.12.62.12.96 0 .35-.02.72-.07 1.1-.04.39-.12.77-.22 1.15-.1.38-.24.74-.4 1.08s-.36.65-.6.91-.51.47-.82.63c-.31.16-.67.24-1.07.24-.38 0-.71-.07-.98-.19-.27-.13-.5-.3-.67-.52-.17-.22-.3-.48-.38-.77-.08-.3-.12-.62-.12-.96 0-.35.02-.73.07-1.12.05-.39.12-.78.23-1.16.11-.38.24-.75.41-1.09.17-.35.37-.65.61-.92s.51-.48.83-.63c.31-.17.67-.25 1.06-.25zm-.1 1.01c-.28 0-.54.11-.77.34-.23.23-.43.53-.59.9-.16.37-.29.79-.38 1.26-.09.47-.14.94-.14 1.42 0 .22.02.44.05.63.03.2.09.37.17.52.08.15.18.27.31.35.13.09.29.13.47.13.27 0 .52-.11.75-.34.22-.23.42-.53.58-.89.16-.37.29-.79.38-1.26.09-.47.13-.95.13-1.43 0-.22-.02-.44-.05-.63-.03-.2-.08-.37-.16-.52a.863.863 0 0 0-.3-.35.751.751 0 0 0-.45-.13zM115.64 236.07c.06-.02.14-.04.23-.05a2.504 2.504 0 0 1 1.2.14c.27.11.5.26.68.44.18.19.32.4.42.65.1.25.14.5.14.78 0 .36-.06.71-.19 1.03-.13.33-.31.61-.55.86-.24.25-.53.44-.88.59-.35.15-.75.22-1.2.22-.35 0-.67-.05-.96-.15-.29-.1-.55-.25-.76-.43-.21-.19-.38-.42-.51-.69-.12-.27-.18-.58-.18-.92 0-.36.08-.73.24-1.09.16-.37.42-.78.79-1.23l2.37-2.9h1.46l-2.33 2.74.03.01zm-1.32 2.46c0 .18.03.35.1.5s.16.27.28.37c.12.1.25.18.4.24s.31.08.47.08c.48 0 .85-.15 1.13-.44.28-.29.41-.68.41-1.17 0-.19-.03-.36-.1-.51-.07-.15-.16-.28-.27-.38-.11-.1-.24-.18-.38-.23-.14-.05-.29-.08-.44-.08-.25 0-.47.04-.67.12-.2.08-.37.2-.51.34-.14.15-.24.32-.32.52-.07.2-.1.42-.1.64zM121.49 233.05c.26.47.46.99.6 1.57a7.605 7.605 0 0 1-.37 4.69c-.39.96-1 1.89-1.82 2.81l-.75-.55c.35-.4.66-.81.93-1.24.27-.43.49-.87.66-1.31.17-.44.3-.88.39-1.31.09-.44.13-.86.13-1.27 0-.51-.06-1.02-.18-1.54a6.2 6.2 0 0 0-.51-1.41l.92-.44zM124.43 239.81a.77.77 0 0 1-.76.78c-.2 0-.38-.06-.53-.19-.15-.13-.22-.31-.22-.55 0-.22.08-.41.24-.56.16-.15.34-.22.54-.22s.38.07.52.2c.14.14.21.31.21.54z"/></svg>