<svg id="Layer_1" xmlns="http://www.w3.org/2000/svg" viewBox="0 0 160 600"><style>.st0{fill:#bdd6e6}</style><path class="st0" d="M38.92 281.1l.51.71-.46.33-.51-.71-.24-.45-.24.45-.51.71-.46-.33.51-.71.35-.36-.5-.09-.83-.26.17-.53.83.27.45.22-.07-.5-.01-.88h.58l-.01.88-.08.51.46-.23.83-.27.17.53-.83.26-.51.09.4.36zM44.18 280.09h-1.57v3.94h-.74v-3.94H40.3v-.64h3.88v.64zM47.89 281.78v2.25h-.74v-2.01c0-.69-.32-.92-.74-.92-.46 0-.94.3-.94 1.1v1.83h-.74V279h.74v2.12c.23-.43.64-.62 1.12-.62.73-.01 1.3.42 1.3 1.28zM51.95 282.57h-2.54c.08.61.44.94 1.01.94.46 0 .76-.17.87-.47l.62.26c-.25.51-.73.81-1.49.81-1.1 0-1.74-.67-1.74-1.81 0-1.13.61-1.81 1.69-1.81 1.04 0 1.61.69 1.61 1.7 0 .13-.02.29-.03.38zm-2.54-.57h1.87c-.07-.58-.4-.92-.92-.92-.54 0-.87.33-.95.92zM58.29 282.29c0 1.14-.6 1.81-1.54 1.81-.51 0-.91-.25-1.12-.63v2.02h-.74v-4.93h.65l.03.64c.2-.42.62-.71 1.18-.71.95 0 1.54.67 1.54 1.8zm-.75.01c0-.76-.36-1.21-.96-1.21-.58 0-.96.44-.96 1.17v.08c0 .72.37 1.16.96 1.16.6 0 .96-.45.96-1.2zM61.28 280.56l-.12.68c-.1-.06-.25-.09-.44-.09-.42 0-.87.33-.87 1.04v1.84h-.74v-3.47h.63l.07.62c.19-.45.56-.69 1.09-.69.14 0 .29.02.38.07zM61.72 279.51c0-.29.18-.46.5-.46s.49.17.49.46c0 .29-.17.46-.49.46s-.5-.17-.5-.46zm.87 4.52h-.74v-3.47h.74v3.47zM69.07 281.78v2.25h-.74v-2.13c0-.57-.31-.8-.72-.8-.49 0-.9.37-.9 1.04v1.89h-.74v-2.13c0-.57-.31-.8-.72-.8-.42 0-.9.31-.9 1.08v1.85h-.74v-3.47h.66l.03.58c.24-.44.67-.65 1.12-.65.49 0 .96.22 1.17.69.23-.47.74-.69 1.2-.69.67 0 1.29.41 1.28 1.29zM73.31 283.52l-.05.5c-.11.05-.26.08-.43.08-.38 0-.63-.14-.71-.52-.21.33-.66.52-1.17.52-.65 0-1.13-.31-1.13-.91 0-.53.44-.93 1.35-1.09l.88-.16v-.18c0-.42-.26-.69-.71-.69-.43 0-.75.19-.9.62l-.58-.31c.17-.55.7-.9 1.46-.9.87 0 1.47.4 1.47 1.23v1.57c0 .17.07.26.26.26.1.01.19 0 .26-.02zm-1.25-.64v-.42l-.76.15c-.47.09-.71.25-.71.53 0 .26.19.4.52.4.47 0 .95-.24.95-.66zM76.05 280.56l-.12.68c-.1-.06-.25-.09-.44-.09-.42 0-.87.33-.87 1.04v1.84h-.74v-3.47h.63l.07.62c.19-.45.56-.69 1.09-.69.14 0 .28.02.38.07zM78.21 284.44c-.31.81-.66 1.08-1.28 1.08-.36 0-.61-.08-.82-.28l.22-.57c.16.19.35.25.57.25.26 0 .45-.1.6-.5l.15-.37-.36-.86-1.08-2.63h.83l.76 2.18.2.65.24-.72.72-2.12h.77l-1.52 3.89zM85.47 282.3c0 1.13-.65 1.81-1.73 1.81s-1.73-.67-1.73-1.81c0-1.13.65-1.81 1.73-1.81s1.73.68 1.73 1.81zm-2.71 0c0 .78.35 1.22.98 1.22s.99-.44.99-1.22-.36-1.22-.99-1.22-.98.43-.98 1.22zM89.68 282.3c0 1.13-.59 1.8-1.53 1.8-.56 0-.98-.28-1.18-.71l-.04.64h-.65V279h.74v2.12c.21-.38.6-.63 1.12-.63.94 0 1.54.68 1.54 1.81zm-.74 0c0-.76-.36-1.2-.96-1.2-.58 0-.96.44-.96 1.16v.08c0 .73.38 1.17.96 1.17.6-.01.96-.46.96-1.21zM91.25 284.34c0 .89-.56 1.19-1.14 1.19-.31 0-.58-.09-.76-.23l.13-.6c.12.1.31.19.53.19.3 0 .49-.16.49-.62v-3.71h.74v3.78zm.12-4.83c0 .28-.19.46-.49.46-.31 0-.5-.19-.5-.46 0-.28.19-.46.5-.46.3 0 .49.18.49.46zM95.34 282.57H92.8c.08.61.45.94 1.01.94.46 0 .76-.17.88-.47l.62.26c-.25.51-.73.81-1.49.81-1.1 0-1.74-.67-1.74-1.81 0-1.13.61-1.81 1.69-1.81 1.04 0 1.61.69 1.61 1.7-.02.13-.03.29-.04.38zM92.8 282h1.87c-.07-.58-.4-.92-.92-.92-.54 0-.87.33-.95.92zM99.19 281.46l-.69.28c-.12-.43-.38-.66-.81-.66-.62 0-.98.44-.98 1.22s.37 1.21.98 1.21c.48 0 .76-.24.85-.67l.68.23c-.19.63-.71 1.03-1.52 1.03-1.1 0-1.74-.67-1.74-1.81 0-1.13.65-1.81 1.73-1.81.83.01 1.28.41 1.5.98zM102.2 283.8c-.22.19-.55.3-.92.3-.6 0-1.06-.27-1.06-.99v-1.97h-.66v-.58h.66v-.81l.74-.21v1.02h1.21v.58h-1.21v1.85c0 .34.2.49.51.49.24 0 .41-.08.56-.22l.17.54zM102.62 279.51c0-.29.18-.46.5-.46s.49.17.49.46c0 .29-.17.46-.49.46s-.5-.17-.5-.46zm.87 4.52h-.74v-3.47h.74v3.47zM107.57 280.56l-1.38 3.47h-.81l-1.39-3.47h.82l.98 2.87 1.01-2.87h.77zM111.12 282.57h-2.54c.08.61.45.94 1.01.94.46 0 .76-.17.88-.47l.62.26c-.25.51-.73.81-1.49.81-1.1 0-1.74-.67-1.74-1.81 0-1.13.61-1.81 1.69-1.81 1.04 0 1.61.69 1.61 1.7-.01.13-.02.29-.04.38zm-2.53-.57h1.87c-.07-.58-.4-.92-.92-.92-.55 0-.88.33-.95.92zM116.2 283.8c-.22.19-.55.3-.92.3-.6 0-1.06-.27-1.06-.99v-1.97h-.66v-.58h.66v-.81l.74-.21v1.02h1.21v.58h-1.21v1.85c0 .34.2.49.51.49.24 0 .41-.08.56-.22l.17.54zM120.01 282.3c0 1.13-.65 1.81-1.73 1.81s-1.73-.67-1.73-1.81c0-1.13.65-1.81 1.73-1.81s1.73.68 1.73 1.81zm-2.71 0c0 .78.35 1.22.98 1.22s.99-.44.99-1.22-.36-1.22-.99-1.22-.98.43-.98 1.22zM23.26 292h-2.54c.08.61.44.94 1.01.94.46 0 .76-.17.87-.47l.62.26c-.25.51-.73.81-1.49.81-1.1 0-1.74-.67-1.74-1.81 0-1.13.61-1.81 1.69-1.81 1.04 0 1.61.69 1.61 1.7 0 .13-.01.28-.03.38zm-2.53-.57h1.87c-.07-.58-.4-.92-.92-.92-.55-.01-.88.32-.95.92zM27.04 289.98l-1.38 3.47h-.81l-1.39-3.47h.82l.98 2.87 1.01-2.87h.77zM30.7 292.94l-.05.5c-.11.05-.26.08-.43.08-.38 0-.63-.14-.71-.52-.21.33-.66.52-1.17.52-.65 0-1.13-.31-1.13-.91 0-.53.44-.93 1.35-1.09l.88-.16v-.18c0-.42-.26-.69-.71-.69-.43 0-.75.19-.9.62l-.58-.31c.17-.55.7-.9 1.46-.9.87 0 1.47.4 1.47 1.23v1.57c0 .17.07.26.26.26.1.01.19 0 .26-.02zm-1.25-.64v-.42l-.76.15c-.47.09-.71.25-.71.53 0 .26.19.4.52.4.47 0 .95-.24.95-.66zM31.99 292.44c0 .34.08.46.36.46.17 0 .28-.02.46-.09l-.08.6c-.15.08-.38.12-.58.12-.62 0-.9-.31-.9-.98v-4.12h.74v4.01zM36.44 289.98v3.47h-.66l-.03-.56c-.24.44-.67.63-1.23.63-.69 0-1.25-.35-1.25-1.26v-2.28h.74v2.09c0 .65.28.84.71.84.53 0 .97-.32.97-1.06v-1.87h.75zM40.71 292.94l-.05.5c-.11.05-.26.08-.43.08-.38 0-.63-.14-.71-.52-.21.33-.66.52-1.17.52-.65 0-1.13-.31-1.13-.91 0-.53.44-.93 1.35-1.09l.88-.16v-.18c0-.42-.26-.69-.71-.69-.43 0-.75.19-.9.62l-.58-.31c.17-.55.7-.9 1.46-.9.87 0 1.47.4 1.47 1.23v1.57c0 .17.07.26.26.26.09.01.18 0 .26-.02zm-1.26-.64v-.42l-.76.15c-.47.09-.71.25-.71.53 0 .26.19.4.52.4.47 0 .95-.24.95-.66zM43.38 293.22c-.22.19-.55.3-.92.3-.6 0-1.06-.27-1.06-.99v-1.97h-.66v-.58h.66v-.81l.74-.21v1.02h1.21v.58h-1.21v1.85c0 .34.2.49.51.49.24 0 .41-.08.56-.22l.17.54zM47.01 292h-2.54c.08.61.44.94 1.01.94.46 0 .76-.17.87-.47l.62.26c-.25.51-.73.81-1.49.81-1.1 0-1.74-.67-1.74-1.81 0-1.13.61-1.81 1.69-1.81 1.04 0 1.61.69 1.61 1.7 0 .13-.02.28-.03.38zm-2.54-.57h1.87c-.07-.58-.4-.92-.92-.92-.54-.01-.87.32-.95.92zM53.2 291.72c0 1.13-.65 1.81-1.73 1.81s-1.73-.67-1.73-1.81c0-1.13.65-1.81 1.73-1.81s1.73.68 1.73 1.81zm-2.71 0c0 .78.35 1.22.98 1.22.62 0 .99-.44.99-1.22s-.36-1.22-.99-1.22c-.62 0-.98.43-.98 1.22zM57.05 289.98l-1.38 3.47h-.81l-1.39-3.47h.82l.98 2.87 1.01-2.87h.77zM60.6 292h-2.54c.08.61.44.94 1.01.94.46 0 .76-.17.87-.47l.62.26c-.25.51-.73.81-1.49.81-1.1 0-1.74-.67-1.74-1.81 0-1.13.61-1.81 1.69-1.81 1.04 0 1.61.69 1.61 1.7 0 .13-.02.28-.03.38zm-2.54-.57h1.87c-.07-.58-.4-.92-.92-.92-.54-.01-.87.32-.95.92zM63.59 289.98l-.12.68c-.1-.06-.25-.09-.44-.09-.42 0-.87.33-.87 1.04v1.84h-.74v-3.47h.63l.07.62c.19-.45.56-.69 1.09-.69.14 0 .28.02.38.07zM67.33 292.94l-.05.5c-.11.05-.26.08-.43.08-.38 0-.63-.14-.71-.52-.21.33-.66.52-1.17.52-.65 0-1.13-.31-1.13-.91 0-.53.44-.93 1.35-1.09l.88-.16v-.18c0-.42-.26-.69-.71-.69-.43 0-.75.19-.9.62l-.58-.31c.17-.55.7-.9 1.46-.9.87 0 1.47.4 1.47 1.23v1.57c0 .17.07.26.26.26.1.01.19 0 .26-.02zm-1.25-.64v-.42l-.76.15c-.47.09-.71.25-.71.53 0 .26.19.4.52.4.47 0 .95-.24.95-.66zM68.62 292.44c0 .34.08.46.36.46.17 0 .28-.02.46-.09l-.08.6c-.15.08-.38.12-.58.12-.62 0-.9-.31-.9-.98v-4.12h.74v4.01zM70.64 292.44c0 .34.08.46.36.46.17 0 .28-.02.46-.09l-.08.6c-.15.08-.38.12-.58.12-.62 0-.9-.31-.9-.98v-4.12h.74v4.01zM77.27 291.71c0 1.14-.6 1.81-1.54 1.81-.51 0-.91-.25-1.12-.63v2.02h-.74v-4.93h.65l.03.64c.2-.42.62-.71 1.18-.71.95 0 1.54.67 1.54 1.8zm-.75.01c0-.76-.36-1.21-.96-1.21-.58 0-.96.44-.96 1.17v.08c0 .72.37 1.16.96 1.16.6 0 .96-.45.96-1.2zM81.34 292.94l-.05.5c-.11.05-.26.08-.43.08-.38 0-.63-.14-.71-.52-.21.33-.66.52-1.17.52-.65 0-1.13-.31-1.13-.91 0-.53.44-.93 1.35-1.09l.88-.16v-.18c0-.42-.26-.69-.71-.69-.43 0-.75.19-.9.62l-.58-.31c.17-.55.7-.9 1.46-.9.87 0 1.47.4 1.47 1.23v1.57c0 .17.07.26.26.26.09.01.18 0 .26-.02zm-1.26-.64v-.42l-.76.15c-.47.09-.71.25-.71.53 0 .26.19.4.52.4.47 0 .95-.24.95-.66zM84.01 293.22c-.22.19-.55.3-.92.3-.6 0-1.06-.27-1.06-.99v-1.97h-.66v-.58h.66v-.81l.74-.21v1.02h1.21v.58h-1.21v1.85c0 .34.2.49.51.49.24 0 .41-.08.56-.22l.17.54zM84.44 288.93c0-.29.18-.46.5-.46s.49.17.49.46c0 .29-.17.46-.49.46s-.5-.16-.5-.46zm.87 4.52h-.74v-3.47h.74v3.47zM89.41 292h-2.54c.08.61.44.94 1.01.94.46 0 .76-.17.88-.47l.62.26c-.25.51-.73.81-1.49.81-1.1 0-1.74-.67-1.74-1.81 0-1.13.61-1.81 1.69-1.81 1.04 0 1.61.69 1.61 1.7-.02.13-.03.28-.04.38zm-2.54-.57h1.87c-.07-.58-.4-.92-.92-.92-.55-.01-.87.32-.95.92zM93.4 291.2v2.25h-.74v-2.01c0-.69-.32-.92-.74-.92-.46 0-.94.29-.94 1.09v1.84h-.74v-3.47h.66l.04.58c.24-.46.67-.65 1.17-.65.72 0 1.29.43 1.29 1.29zM96.59 293.22c-.22.19-.55.3-.92.3-.6 0-1.06-.27-1.06-.99v-1.97h-.66v-.58h.66v-.81l.74-.21v1.02h1.21v.58h-1.21v1.85c0 .34.2.49.51.49.24 0 .41-.08.56-.22l.17.54zM98.97 292.79l.5-.43c.18.42.59.58 1.08.58.49 0 .74-.18.74-.42 0-.22-.2-.34-.81-.46-1.03-.19-1.4-.49-1.4-1.08 0-.56.53-1.08 1.46-1.08.77 0 1.21.25 1.46.78l-.53.39c-.17-.42-.47-.59-.92-.59-.43 0-.72.21-.72.42 0 .25.2.38.85.5.99.18 1.35.48 1.35 1.06 0 .61-.56 1.05-1.51 1.05-.67.01-1.26-.21-1.55-.72zM106.05 292.94l-.05.5c-.11.05-.26.08-.43.08-.38 0-.63-.14-.71-.52-.22.33-.66.52-1.17.52-.65 0-1.13-.31-1.13-.91 0-.53.44-.93 1.35-1.09l.88-.16v-.18c0-.42-.26-.69-.71-.69-.43 0-.75.19-.9.62l-.58-.31c.17-.55.7-.9 1.46-.9.87 0 1.46.4 1.46 1.23v1.57c0 .17.07.26.26.26.11.01.2 0 .27-.02zm-1.25-.64v-.42l-.76.15c-.47.09-.71.25-.71.53 0 .26.2.4.52.4.47 0 .95-.24.95-.66zM108.72 293.22c-.22.19-.55.3-.92.3-.6 0-1.06-.27-1.06-.99v-1.97h-.66v-.58h.66v-.81l.74-.21v1.02h1.21v.58h-1.21v1.85c0 .34.2.49.51.49.24 0 .41-.08.56-.22l.17.54zM109.15 288.93c0-.29.18-.46.5-.46s.49.17.49.46c0 .29-.17.46-.49.46s-.5-.16-.5-.46zm.87 4.52h-.74v-3.47h.74v3.47zM110.75 292.79l.5-.43c.18.42.59.58 1.08.58.49 0 .74-.18.74-.42 0-.22-.2-.34-.81-.46-1.03-.19-1.4-.49-1.4-1.08 0-.56.53-1.08 1.46-1.08.77 0 1.21.25 1.46.78l-.53.39c-.17-.42-.47-.59-.92-.59-.43 0-.72.21-.72.42 0 .25.2.38.85.5.99.18 1.35.48 1.35 1.06 0 .61-.56 1.05-1.51 1.05-.68.01-1.26-.21-1.55-.72zM115.56 289.98h1.12v.58h-1.1v2.89h-.74v-2.89h-.65v-.58h.65v-.5c0-.7.44-1.11 1.21-1.11.28 0 .52.06.65.17l-.14.54c-.1-.07-.23-.1-.4-.1-.39 0-.61.17-.61.56v.44zM120.29 292.94l-.05.5c-.11.05-.26.08-.43.08-.38 0-.63-.14-.71-.52-.22.33-.66.52-1.17.52-.65 0-1.13-.31-1.13-.91 0-.53.44-.93 1.35-1.09l.88-.16v-.18c0-.42-.26-.69-.71-.69-.43 0-.75.19-.9.62l-.58-.31c.17-.55.7-.9 1.46-.9.87 0 1.46.4 1.46 1.23v1.57c0 .17.07.26.26.26.11.01.2 0 .27-.02zm-1.25-.64v-.42l-.76.15c-.47.09-.71.25-.71.53 0 .26.2.4.52.4.47 0 .95-.24.95-.66zM123.88 290.88l-.69.28c-.12-.43-.38-.66-.81-.66-.62 0-.98.44-.98 1.22s.37 1.21.98 1.21c.48 0 .76-.24.85-.67l.68.23c-.19.63-.71 1.03-1.52 1.03-1.1 0-1.74-.67-1.74-1.81 0-1.13.65-1.81 1.73-1.81.84.01 1.29.41 1.5.98zM126.89 293.22c-.22.19-.55.3-.92.3-.6 0-1.06-.27-1.06-.99v-1.97h-.66v-.58h.66v-.81l.74-.21v1.02h1.21v.58h-1.21v1.85c0 .34.2.49.51.49.24 0 .41-.08.56-.22l.17.54zM127.32 288.93c0-.29.18-.46.5-.46s.49.17.49.46c0 .29-.17.46-.49.46s-.5-.16-.5-.46zm.87 4.52h-.74v-3.47h.74v3.47zM132.46 291.72c0 1.13-.65 1.81-1.73 1.81s-1.73-.67-1.73-1.81c0-1.13.65-1.81 1.73-1.81s1.73.68 1.73 1.81zm-2.71 0c0 .78.35 1.22.98 1.22s.99-.44.99-1.22-.36-1.22-.99-1.22-.98.43-.98 1.22zM136.45 291.2v2.25h-.74v-2.01c0-.69-.32-.92-.74-.92-.46 0-.94.29-.94 1.09v1.84h-.74v-3.47h.66l.04.58c.24-.46.67-.65 1.17-.65.72 0 1.29.43 1.29 1.29zM37.46 299.4l-1.16 3.47h-.81l-.87-2.62-.83 2.62h-.81l-1.16-3.47h.81l.78 2.77.87-2.77H35l.87 2.77.78-2.77h.81zM37.97 298.35c0-.29.18-.46.5-.46s.49.17.49.46c0 .29-.17.46-.49.46s-.5-.16-.5-.46zm.86 4.52h-.74v-3.47h.74v3.47zM42.1 302.64c-.22.19-.55.3-.92.3-.6 0-1.06-.27-1.06-.99v-1.97h-.66v-.58h.66v-.81l.74-.21v1.02h1.21v.58h-1.21v1.85c0 .34.2.49.51.49.24 0 .41-.08.56-.22l.17.54zM45.86 300.62v2.25h-.74v-2.01c0-.69-.32-.92-.74-.92-.46 0-.94.3-.94 1.1v1.83h-.74v-5.03h.74v2.12c.23-.43.64-.62 1.12-.62.73-.01 1.3.42 1.3 1.28zM50.97 302.94c-1.33 0-2.16-.9-2.16-2.36s.84-2.36 2.15-2.36c.91 0 1.56.38 1.83 1.12l-.7.31c-.18-.54-.52-.79-1.09-.79-.85 0-1.42.62-1.42 1.71 0 1.08.52 1.71 1.39 1.71.58 0 1.01-.29 1.18-.88l.71.24c-.28.86-1 1.3-1.89 1.3zM56.83 301.14c0 1.13-.65 1.8-1.73 1.8s-1.73-.67-1.73-1.8.65-1.81 1.73-1.81 1.73.68 1.73 1.81zm-2.71 0c0 .78.35 1.22.98 1.22.62 0 .99-.44.99-1.22s-.36-1.22-.99-1.22-.98.43-.98 1.22zM60.9 301.14c0 1.13-.65 1.8-1.73 1.8s-1.73-.67-1.73-1.8.65-1.81 1.73-1.81 1.73.68 1.73 1.81zm-2.71 0c0 .78.35 1.22.98 1.22.62 0 .99-.44.99-1.22s-.36-1.22-.99-1.22-.98.43-.98 1.22zM62.43 301.86c0 .34.08.46.36.46.17 0 .28-.02.46-.09l-.08.6c-.15.08-.38.12-.58.12-.62 0-.9-.31-.9-.98v-4.12h.74v4.01zM67.23 299.15l-.56.51c-.26-.55-.61-.79-1.26-.79s-1.01.29-1.01.68c0 .37.28.56 1.17.72 1.23.22 1.68.6 1.68 1.33 0 .82-.74 1.34-1.83 1.34-1 0-1.62-.36-1.97-.93l.52-.52c.3.56.76.81 1.44.81.65 0 1.06-.23 1.06-.65 0-.33-.28-.51-1.14-.67-1.26-.24-1.72-.62-1.72-1.35 0-.78.67-1.4 1.78-1.4.86-.01 1.44.3 1.84.92zM71.08 300.3l-.69.28c-.12-.43-.38-.66-.81-.66-.62 0-.98.44-.98 1.22s.37 1.21.98 1.21c.48 0 .76-.24.85-.67l.68.23c-.19.63-.72 1.03-1.52 1.03-1.1 0-1.74-.67-1.74-1.8s.65-1.81 1.73-1.81c.84 0 1.29.4 1.5.97zM74.99 299.4v3.47h-.66l-.03-.56c-.24.44-.67.63-1.23.63-.69 0-1.25-.35-1.25-1.26v-2.28h.74v2.09c0 .65.28.84.71.84.53 0 .97-.32.97-1.05v-1.87h.75zM76.72 301.86c0 .34.08.46.36.46.17 0 .28-.02.46-.09l-.08.6c-.15.08-.38.12-.58.12-.62 0-.9-.31-.9-.98v-4.12h.74v4.01zM81.43 301.13c0 1.14-.6 1.81-1.54 1.81-.51 0-.91-.25-1.12-.63v2.02h-.74v-4.93h.65l.03.64c.2-.42.62-.71 1.18-.71.95 0 1.54.67 1.54 1.8zm-.75.01c0-.76-.36-1.21-.96-1.21-.58 0-.96.44-.96 1.17v.08c0 .72.37 1.16.96 1.16.6 0 .96-.45.96-1.2zM84.45 302.64c-.22.19-.55.3-.92.3-.6 0-1.06-.27-1.06-.99v-1.97h-.66v-.58h.66v-.81l.74-.21v1.02h1.21v.58h-1.21v1.85c0 .34.2.49.51.49.24 0 .41-.08.56-.22l.17.54zM84.88 298.35c0-.29.18-.46.5-.46s.49.17.49.46c0 .29-.17.46-.49.46s-.5-.16-.5-.46zm.87 4.52h-.74v-3.47h.74v3.47zM89.94 300.62v2.25h-.74v-2.01c0-.69-.32-.92-.74-.92-.46 0-.94.29-.94 1.09v1.84h-.74v-3.47h.66l.04.58c.24-.46.67-.65 1.17-.65.72 0 1.29.43 1.29 1.29zM94.06 303.22c0 .72-.78 1.15-1.78 1.15-1.15 0-1.65-.38-1.65-.89 0-.31.22-.56.62-.67-.27-.12-.49-.34-.49-.66 0-.36.22-.58.54-.69-.35-.2-.54-.53-.54-.95 0-.71.6-1.17 1.51-1.17.26 0 .5.04.7.11.12-.49.45-.78 1.02-.77l.12.58c-.45-.01-.71.12-.82.35.31.21.48.52.48.9 0 .71-.6 1.17-1.51 1.17-.21 0-.4-.02-.58-.06-.24.06-.33.18-.33.38 0 .22.17.33.43.33h1.16c.71 0 1.12.34 1.12.89zm-.64.08c0-.22-.15-.35-.6-.35h-.94c-.42 0-.62.14-.62.37 0 .31.35.49 1.09.49.7 0 1.07-.24 1.07-.51zm-1.89-2.79c0 .4.32.66.74.66.43 0 .75-.26.75-.66 0-.39-.32-.65-.75-.65-.42-.01-.74.26-.74.65zM97.08 299.23c0 .83-.55 1.38-1.39 1.38-.84 0-1.39-.54-1.39-1.38s.55-1.37 1.39-1.37c.84-.01 1.39.53 1.39 1.37zm-.32 0c0-.66-.42-1.09-1.08-1.09-.66 0-1.08.43-1.08 1.09s.42 1.09 1.08 1.09c.66 0 1.08-.43 1.08-1.09zm-.76.18l.38.56h-.36l-.33-.53h-.23v.53h-.31v-1.49h.64c.32 0 .55.19.55.48.01.24-.13.39-.34.45zm-.54-.19h.3c.17 0 .27-.08.27-.24 0-.17-.1-.24-.27-.24h-.3v.48zM101.71 298.08c-.88.8-1.2 1.61-1.2 2.87s.33 2.06 1.2 2.86l-.39.39c-1.01-.81-1.53-1.91-1.53-3.25 0-1.35.52-2.44 1.53-3.26l.39.39zM105.28 300.62v2.25h-.74v-2.01c0-.69-.32-.92-.74-.92-.46 0-.94.29-.94 1.09v1.84h-.74v-3.47h.66l.04.58c.24-.46.67-.65 1.17-.65.72 0 1.29.43 1.29 1.29zM109.44 300.33h-3.3v-.61h3.3v.61zm0 1.42h-3.3v-.61h3.3v.61zM111.99 298.29v4.58h-.73v-3.39c0-.11.01-.24.01-.37-.32.31-.74.54-1.16.63l-.14-.65c.37-.05 1.15-.46 1.39-.81h.63zM112.92 300.58c0-1.54.6-2.36 1.76-2.36 1.16 0 1.77.82 1.77 2.36s-.61 2.36-1.77 2.36c-1.16 0-1.76-.82-1.76-2.36zm2.78 0c0-1.15-.35-1.73-1.01-1.73-.67 0-1.01.58-1.01 1.73s.34 1.73 1.01 1.73c.66 0 1.01-.58 1.01-1.73zM120.53 299.2l-.65.31c-.12-.4-.4-.65-.89-.65-.67 0-1.13.75-1.13 1.76v.12h.03c.15-.53.7-.77 1.21-.77.91 0 1.53.57 1.53 1.47 0 .92-.62 1.49-1.63 1.49-1.17 0-1.81-.94-1.81-2.36 0-1.56.8-2.36 1.85-2.36.73.01 1.22.29 1.49.99zm-2.44 2.24c0 .52.35.86.9.86.57 0 .9-.32.9-.86 0-.52-.33-.84-.9-.84-.54 0-.9.34-.9.84zM122.81 300.94c0 1.34-.52 2.44-1.53 3.25l-.39-.39c.87-.8 1.2-1.6 1.2-2.86s-.33-2.07-1.2-2.87l.39-.39c1.01.82 1.53 1.92 1.53 3.26zM124.58 302.44c0 .31-.2.51-.52.51s-.53-.2-.53-.51.21-.5.53-.5.52.19.52.5z"/></svg>