<svg id="Layer_1" xmlns="http://www.w3.org/2000/svg" viewBox="0 0 160 600"><style>.st0{fill:#fff}</style><path class="st0" d="M37.39 45.3c0 .35-.28.62-.63.62s-.64-.28-.64-.62c0-.35.28-.62.64-.62.35 0 .63.27.63.62zm-1.11 0a.474.474 0 1 0 .95 0c0-.27-.2-.5-.48-.5-.26 0-.47.22-.47.5zm.38.32h-.14V45c.06-.01.14-.02.24-.02.12 0 .17.02.21.05.04.03.06.07.06.13 0 .08-.06.12-.13.15v.01c.06.02.09.07.11.15.02.09.03.13.05.15h-.16c-.02-.02-.03-.08-.05-.15-.01-.06-.05-.09-.13-.09h-.07v.24zm0-.35h.07c.08 0 .14-.03.14-.09s-.04-.09-.13-.09c-.04 0-.06 0-.08.01v.17zM46.63 43.15c-3.08 0-4.55-2.24-4.55-4.39 0-2.48 1.79-4.48 4.6-4.48.96 0 1.95.29 2.73.96l-.87 1.21c-.54-.42-1.11-.57-1.81-.57-1.49 0-2.61 1.04-2.61 2.83 0 1.63 1.03 2.94 2.66 2.94.7 0 1.3-.21 1.84-.68l.8 1.22c-.75.64-1.8.96-2.79.96M54.16 43.15c-2.57 0-4.47-1.94-4.47-4.48 0-2.61 2.07-4.4 4.47-4.4s4.48 1.77 4.48 4.38c0 2.55-1.89 4.5-4.48 4.5m2.41-4.49c0-1.56-.77-2.92-2.41-2.92-1.62 0-2.42 1.35-2.42 2.9 0 1.6.75 3.03 2.42 3.03s2.41-1.41 2.41-3.03v.02zM63.85 43.15c-2.57 0-4.47-1.94-4.47-4.48 0-2.61 2.07-4.4 4.47-4.4s4.48 1.77 4.48 4.38c.01 2.55-1.89 4.5-4.48 4.5m2.42-4.49c0-1.56-.76-2.92-2.41-2.92-1.62 0-2.42 1.35-2.42 2.9 0 1.6.75 3.03 2.42 3.03s2.41-1.41 2.41-3.03v.02zM69.34 42.94V30.5l1.93 1.06v11.38zM75.72 43.2c-2.17 0-3.22-1.04-3.22-1.04l.87-1.13s.99.66 2.29.66c.63 0 1.15-.44 1.15-.87 0-.44-.19-.8-.77-1.09-.57-.3-1.22-.61-1.72-.85s-1.62-.99-1.62-2.45c0-1.48 1.49-2.29 3.02-2.29 1.46 0 2.57.96 2.57.96l-.75 1.15s-.83-.59-1.76-.59c-.92 0-1.11.59-1.11.83s.09.63.68.94c.59.31 1.2.64 2.07 1.13.87.49 1.35 1.32 1.35 2.26.03.92-.88 2.38-3.05 2.38M84.01 43.15c-3.08 0-4.55-2.24-4.55-4.39 0-2.48 1.79-4.48 4.61-4.48.96 0 1.95.29 2.73.96l-.87 1.21c-.54-.42-1.11-.57-1.81-.57-1.49 0-2.61 1.04-2.61 2.83 0 1.63 1.03 2.94 2.66 2.94.69 0 1.3-.21 1.84-.68l.8 1.22c-.77.64-1.81.96-2.8.96M93.51 41.95s-.97 1.2-2.82 1.2c-2.17 0-3.23-1.58-3.23-3.18v-5.51h1.93v5.42c0 .94.73 1.72 1.86 1.72.99 0 1.96-1.18 1.96-1.18v-5.96h1.93v8.46l-1.63-.97zM96.87 42.94V30.5l1.93 1.06v11.38zM105.17 43.15c-1.7 0-2.68-.95-2.68-.95v4.22h-1.95V34.29l1.95 1.02s1.04-1.06 2.78-1.06c1.82 0 4.1 1.41 4.1 4.55.01 3.15-2.23 4.35-4.2 4.35m-.12-7.4c-1.65 0-2.61 1.55-2.61 1.55v3.2s1.09 1.23 2.68 1.23c1.84 0 2.24-2.21 2.24-2.97 0-.77-.17-3.01-2.31-3.01M114.45 43.17h-1.22c-1.53 0-2.05-1.48-2.05-2.45v-4.99h-1.53v-1.27h1.53v-3.74h1.91v3.74h1.96v1.27h-1.95v4.52c0 .5-.09 1.31.76 1.31h1.39l-.8 1.61zM117.54 33c-.69 0-1.27-.57-1.27-1.27 0-.7.57-1.27 1.27-1.27.7 0 1.27.57 1.27 1.27 0 .7-.57 1.27-1.27 1.27m-.95 1.46h1.9v8.48h-1.9v-8.48zM126.13 42.94v-5.42c0-.94-.73-1.72-1.86-1.72-.99 0-2.1 1.18-2.1 1.18v5.96h-1.93v-8.46l1.63.97s1.11-1.2 2.95-1.2c2.17 0 3.23 1.58 3.23 3.18v5.51h-1.92zM133.95 46.88c-.3 0-2.56-.03-2.56-.03l.03-1.55h1.9c1.84 0 2.88-.99 2.88-2.35v-.77s-1.01.96-2.71.96c-1.96 0-4.21-1.2-4.21-4.35 0-3.14 2.28-4.55 4.1-4.55 1.74 0 2.78 1.06 2.78 1.06l1.95-.97v8.43c.01 2.28-1.5 4.12-4.16 4.12m2.27-9.59s-.95-1.55-2.61-1.55c-2.14 0-2.31 2.24-2.31 3 0 .76.4 2.97 2.24 2.97 1.58 0 2.68-1.23 2.68-1.23v-3.19zM24.81 49.37v-5.54l1.09-1.09 3.14 3.14v1.05zM22.55 39.08L19 42.63l4.35 1.64 5.18-5.19zM24.3 34.13h-4.57l1.46 4.23h7.34zM29.05 31.87l-3.54-3.54-1.65 4.33 5.19 5.19zM39.73 43.31h-5.22l-4.23-4.23h7.33zM35.47 33.18l4.74 1.23-3.95 3.95h-5.98zM29.77 30.51L34 28v5.62l-4.23 4.23zM35.15 44.99l-1.35 4.62-7.39-7.38 2.99-2.99zM141 35.04c0 .5-.4.9-.92.9-.51 0-.92-.4-.92-.9s.41-.9.93-.9c.51 0 .91.39.91.9zm-1.61 0c0 .4.3.71.7.71.39.01.68-.32.68-.71 0-.4-.29-.72-.69-.72-.39 0-.69.32-.69.72zm.55.46h-.21v-.9c.08-.01.2-.03.34-.03.17 0 .25.03.31.07.05.04.09.11.09.19 0 .11-.08.18-.19.21v.01c.09.03.13.1.16.22.03.14.05.19.07.22h-.22c-.03-.03-.04-.11-.07-.22-.02-.09-.07-.14-.19-.14h-.1v.37zm.01-.5h.1c.12 0 .21-.04.21-.13 0-.08-.06-.14-.19-.14-.06 0-.09.01-.12.01V35z"/></svg>