<?xml version="1.0" encoding="utf-8"?>
<!-- Generator: Adobe Illustrator 25.2.1, SVG Export Plug-In . SVG Version: 6.00 Build 0)  -->
<svg version="1.1" id="Layer_1" xmlns="http://www.w3.org/2000/svg" xmlns:xlink="http://www.w3.org/1999/xlink" x="0px" y="0px"
	 viewBox="0 0 300 250" style="enable-background:new 0 0 300 250;" xml:space="preserve">
<style type="text/css">
	.st0{fill:#EAF5FB;}
</style>
<g>
	<path class="st0" d="M14.28,93.99v-3.48h1.67v3.16c0,1.64,0.46,2.3,1.61,2.3c1.18,0,1.64-0.66,1.64-2.3v-2.99
		c0-1.35-0.37-2.01-1.35-2.64l-1.52-0.98c-1.47-0.95-2.04-2.04-2.04-3.96v-2.56c0-2.18,1.18-3.42,3.22-3.42s3.22,1.24,3.22,3.42
		v2.56h-1.67v-2.27c0-1.55-0.43-2.15-1.52-2.15S16,79.28,16,80.83v2.15c0,1.35,0.37,2.01,1.35,2.64l1.52,0.98
		c1.47,0.95,2.04,2.04,2.04,3.96v3.42c0,2.27-1.24,3.53-3.33,3.53C15.48,97.52,14.28,96.26,14.28,93.99z"/>
	<path class="st0" d="M25.68,78.9h-2.41v-1.49h6.55v1.49H27.4v18.33h-1.72V78.9z"/>
	<path class="st0" d="M32.63,77.41h3.19c2.3,0,3.39,1.18,3.39,3.59v2.53c0,1.61-0.52,2.59-1.55,3.05v0.06
		c1.03,0.46,1.55,1.44,1.55,3.07v7.53h-1.72v-7.41c0-1.84-0.52-2.38-2.15-2.38h-0.98v9.8h-1.72V77.41z M35.62,85.94
		c1.44,0,1.87-0.55,1.87-2.38v-2.27c0-1.84-0.43-2.38-1.87-2.38h-1.26v7.04H35.62z"/>
	<path class="st0" d="M42.57,77.41h5.69v1.49h-3.97v6.92h3.45v1.49h-3.45v8.42h3.97v1.49h-5.69V77.41z"/>
	<path class="st0" d="M51.19,77.41h2.24l3.13,14.51h0.06V77.41h1.55v19.83H56.3L52.8,80.89h-0.06v16.35h-1.55V77.41z"/>
	<path class="st0" d="M61.56,94.42V80.68c0-2.27,1.24-3.56,3.3-3.56c2.1,0,3.28,1.29,3.28,3.56v2.18H66.5V81
		c0-1.67-0.46-2.33-1.61-2.33c-1.18,0-1.61,0.66-1.61,2.33v13.22c0,1.18,0.43,1.75,1.38,1.75c1.18,0,1.84-0.89,1.84-2.5v-5.69h-1.61
		v-1.49h3.33v10.95h-1.47v-1.41h-0.09c-0.46,1.09-1.29,1.69-2.47,1.69C62.53,97.52,61.56,96.34,61.56,94.42z"/>
	<path class="st0" d="M73.19,78.9h-2.41v-1.49h6.55v1.49h-2.41v18.33h-1.72V78.9z"/>
	<path class="st0" d="M80.14,77.41h1.72v8.42h3.25v-8.42h1.72v19.83h-1.72v-9.91h-3.25v9.91h-1.72V77.41z"/>
	<path class="st0" d="M90.34,77.41h5.69v1.49h-3.97v6.92h3.45v1.49h-3.45v8.42h3.97v1.49h-5.69V77.41z"/>
	<path class="st0" d="M98.96,77.41h2.24l3.13,14.51h0.06V77.41h1.55v19.83h-1.87l-3.51-16.35h-0.06v16.35h-1.55V77.41z"/>
	<path class="st0" d="M110.1,97.23h-0.69v-2.36h1.95v2.07l-1.26,3.19h-1.01L110.1,97.23z"/>
	<path class="st0" d="M121.48,78.9h-2.41v-1.49h6.55v1.49h-2.41v18.33h-1.72V78.9z"/>
	<path class="st0" d="M128.08,93.93V80.71c0-2.3,1.24-3.59,3.33-3.59s3.33,1.29,3.33,3.59v13.22c0,2.3-1.24,3.59-3.33,3.59
		S128.08,96.23,128.08,93.93z M133.03,93.64V81c0-1.67-0.46-2.33-1.61-2.33c-1.18,0-1.61,0.66-1.61,2.33v12.64
		c0,1.67,0.43,2.33,1.61,2.33C132.57,95.97,133.03,95.31,133.03,93.64z"/>
	<path class="st0" d="M138.14,77.41h2.24l3.13,14.51h0.06V77.41h1.55v19.83h-1.87l-3.51-16.35h-0.06v16.35h-1.55V77.41z"/>
	<path class="st0" d="M148.62,77.41h5.69v1.49h-3.97v6.92h3.45v1.49h-3.45v8.42h3.97v1.49h-5.69V77.41z"/>
	<path class="st0" d="M158.19,97.23h-0.69v-2.36h1.95v2.07l-1.26,3.19h-1.01L158.19,97.23z"/>
	<path class="st0" d="M16.43,104.89h2.27l2.5,19.83h-1.75l-0.57-4.91h-2.7l-0.57,4.91h-1.67L16.43,104.89z M18.7,118.3l-1.15-10.69
		h-0.06l-1.15,10.69H18.7z"/>
	<path class="st0" d="M24.04,104.89h2.24l3.13,14.51h0.06v-14.51h1.55v19.83h-1.87l-3.51-16.35h-0.06v16.35h-1.55V104.89z"/>
	<path class="st0" d="M34.53,104.89h3.28c2.3,0,3.39,1.18,3.39,3.59v12.64c0,2.41-1.09,3.59-3.39,3.59h-3.28V104.89z M37.6,123.22
		c1.44,0,1.87-0.55,1.87-2.38v-12.07c0-1.84-0.43-2.38-1.87-2.38h-1.35v16.84H37.6z"/>
	<path class="st0" d="M49.44,104.89h5.69v1.49h-3.97v7.21h3.45v1.49h-3.45v9.63h-1.72V104.89z"/>
	<path class="st0" d="M57.94,104.89h1.72v19.83h-1.72V104.89z"/>
	<path class="st0" d="M63.17,104.89h3.19c2.3,0,3.39,1.18,3.39,3.59v2.53c0,1.61-0.52,2.59-1.55,3.05v0.06
		c1.03,0.46,1.55,1.44,1.55,3.07v7.53h-1.72v-7.41c0-1.84-0.52-2.38-2.15-2.38h-0.98v9.8h-1.72V104.89z M66.15,113.42
		c1.44,0,1.87-0.55,1.87-2.38v-2.27c0-1.84-0.43-2.38-1.87-2.38h-1.26v7.04H66.15z"/>
	<path class="st0" d="M73.11,104.89h2.73l2.21,14.62h0.06l2.21-14.62h2.84v19.83h-1.72v-17.73h-0.06l-2.67,17.73h-1.35l-2.67-17.73
		h-0.06v17.73h-1.52V104.89z"/>
	<path class="st0" d="M91.55,104.89h2.73l2.21,14.62h0.06l2.21-14.62h2.84v19.83h-1.72v-17.73h-0.06l-2.67,17.73H95.8l-2.67-17.73
		h-0.06v17.73h-1.52V104.89z"/>
	<path class="st0" d="M105.05,121.52v-16.64h1.72v16.32c0,1.61,0.4,2.24,1.55,2.24s1.55-0.63,1.55-2.24v-16.32h1.67v16.64
		c0,2.21-1.21,3.48-3.25,3.48S105.05,123.73,105.05,121.52z"/>
	<path class="st0" d="M114.67,121.46v-3.48h1.67v3.16c0,1.64,0.46,2.3,1.61,2.3c1.18,0,1.64-0.66,1.64-2.3v-2.99
		c0-1.35-0.37-2.01-1.35-2.64l-1.52-0.98c-1.47-0.95-2.04-2.04-2.04-3.96v-2.56c0-2.18,1.18-3.42,3.22-3.42s3.22,1.24,3.22,3.42
		v2.56h-1.67v-2.27c0-1.55-0.43-2.15-1.52-2.15s-1.52,0.6-1.52,2.15v2.16c0,1.35,0.37,2.01,1.35,2.64l1.52,0.98
		c1.47,0.95,2.04,2.04,2.04,3.96v3.42c0,2.27-1.24,3.53-3.33,3.53C115.88,125,114.67,123.73,114.67,121.46z"/>
	<path class="st0" d="M124.32,121.58v-13.56c0-2.18,1.15-3.42,3.22-3.42c2.1,0,3.25,1.24,3.25,3.42v3.25h-1.64v-2.96
		c0-1.55-0.46-2.15-1.55-2.15c-1.12,0-1.55,0.6-1.55,2.15v12.99c0,1.55,0.43,2.15,1.55,2.15c1.09,0,1.55-0.6,1.55-2.15v-3.99h1.64
		v4.28c0,2.18-1.15,3.42-3.25,3.42C125.47,125,124.32,123.76,124.32,121.58z"/>
	<path class="st0" d="M133.97,104.89h1.72v18.33h3.68v1.49h-5.4V104.89z"/>
	<path class="st0" d="M142.19,104.89h5.69v1.49h-3.97v6.92h3.45v1.49h-3.45v8.42h3.97v1.49h-5.69V104.89z"/>
	<path class="st0" d="M150.55,121.46v-3.48h1.67v3.16c0,1.64,0.46,2.3,1.61,2.3c1.18,0,1.64-0.66,1.64-2.3v-2.99
		c0-1.35-0.37-2.01-1.35-2.64l-1.52-0.98c-1.47-0.95-2.04-2.04-2.04-3.96v-2.56c0-2.18,1.18-3.42,3.22-3.42s3.22,1.24,3.22,3.42
		v2.56h-1.67v-2.27c0-1.55-0.43-2.15-1.52-2.15s-1.52,0.6-1.52,2.15v2.16c0,1.35,0.37,2.01,1.35,2.64l1.52,0.98
		c1.47,0.95,2.04,2.04,2.04,3.96v3.42c0,2.27-1.24,3.53-3.33,3.53S150.55,123.73,150.55,121.46z"/>
	<path class="st0" d="M159.17,122.35h1.93v2.36h-1.93V122.35z"/>
</g>
</svg>
