<?xml version="1.0" encoding="utf-8"?>
<!-- Generator: Adobe Illustrator 25.2.1, SVG Export Plug-In . SVG Version: 6.00 Build 0)  -->
<svg version="1.1" id="Layer_1" xmlns="http://www.w3.org/2000/svg" xmlns:xlink="http://www.w3.org/1999/xlink" x="0px" y="0px"
	 viewBox="0 0 300 250" style="enable-background:new 0 0 300 250;" xml:space="preserve">
<style type="text/css">
	.st0{fill:#00A9E0;}
	.st1{fill:#FFFFFF;}
</style>
<rect x="13.71" y="139.33" class="st0" width="100.15" height="22.39"/>
<g>
	<path class="st1" d="M24.6,154.21v-7.89h1.92v6.23h3.05v1.66H24.6z"/>
	<path class="st1" d="M31.13,154.21v-7.89h5.3v1.62h-3.46v1.48h3.27v1.53h-3.27v1.64h3.67v1.63H31.13z"/>
	<path class="st1" d="M43.9,154.21l-0.61-1.55h-3.05l-0.58,1.55h-2.07l3.31-7.89h1.85l3.27,7.89H43.9z M41.79,148.43l-1,2.71h1.98
		L41.79,148.43z"/>
	<path class="st1" d="M51.57,154.21l-1.7-3.13h-0.65v3.13h-1.87v-7.89h3.01c1.51,0,3.02,0.58,3.02,2.38c0,1.06-0.62,1.82-1.64,2.13
		l2.06,3.38H51.57z M50.22,147.86h-1.01v1.84h0.9c0.61,0,1.38-0.16,1.38-0.96C51.49,148.01,50.79,147.86,50.22,147.86z"/>
	<path class="st1" d="M60.42,154.21l-3.17-5.16h-0.03l0.04,5.16H55.4v-7.89h2.17l3.16,5.15h0.03l-0.04-5.15h1.85v7.89H60.42z"/>
	<path class="st1" d="M75.48,154.21l0.04-5.58h-0.03l-2.05,5.58H72.1l-1.99-5.58h-0.03l0.04,5.58h-1.79v-7.89h2.71l1.79,5.06h0.04
		l1.72-5.06h2.75v7.89H75.48z"/>
	<path class="st1" d="M83.56,154.42c-2.46,0-4.29-1.69-4.29-4.19c0-2.53,1.83-4.12,4.29-4.12c2.47,0,4.3,1.59,4.3,4.12
		C87.85,152.73,86.03,154.42,83.56,154.42z M83.56,147.83c-1.34,0-2.25,1.03-2.25,2.41c0,1.43,0.92,2.45,2.25,2.45
		c1.33,0,2.26-1.02,2.26-2.45C85.82,148.85,84.89,147.83,83.56,147.83z"/>
	<path class="st1" d="M94.01,154.21l-1.7-3.13h-0.65v3.13h-1.87v-7.89h3.01c1.51,0,3.02,0.58,3.02,2.38c0,1.06-0.62,1.82-1.64,2.13
		l2.06,3.38H94.01z M92.66,147.86h-1.01v1.84h0.9c0.61,0,1.38-0.16,1.38-0.96C93.93,148.01,93.23,147.86,92.66,147.86z"/>
	<path class="st1" d="M97.84,154.21v-7.89h5.3v1.62h-3.46v1.48h3.27v1.53h-3.27v1.64h3.67v1.63H97.84z"/>
</g>
</svg>
