<?xml version="1.0" encoding="utf-8"?>
<!-- Generator: Adobe Illustrator 25.2.1, SVG Export Plug-In . SVG Version: 6.00 Build 0)  -->
<svg version="1.1" id="Layer_1" xmlns="http://www.w3.org/2000/svg" xmlns:xlink="http://www.w3.org/1999/xlink" x="0px" y="0px"
	 viewBox="0 0 300 250" style="enable-background:new 0 0 300 250;" xml:space="preserve">
<style type="text/css">
	.st0{fill:#FFFFFF;}
</style>
<g>
	<path class="st0" d="M14.15,194.1h-0.82l2.3-5.31h0.67l2.28,5.31h-0.84l-0.54-1.3h-2.52L14.15,194.1z M14.94,192.15h1.99
		l-0.99-2.49L14.94,192.15z"/>
	<path class="st0" d="M19.21,190.95c-0.01-0.15-0.01-0.28-0.02-0.4h0.67c0.01,0.09,0.02,0.19,0.02,0.31c0,0.12,0.01,0.21,0.01,0.29
		h0.02c0.1-0.21,0.25-0.38,0.44-0.51c0.19-0.13,0.41-0.19,0.65-0.19c0.11,0,0.2,0.01,0.28,0.03l-0.03,0.65
		c-0.1-0.02-0.21-0.04-0.32-0.04c-0.17,0-0.32,0.03-0.44,0.09c-0.12,0.06-0.23,0.15-0.31,0.25c-0.08,0.1-0.14,0.23-0.18,0.36
		c-0.04,0.14-0.06,0.28-0.06,0.43v1.87h-0.7v-2.79C19.22,191.22,19.22,191.1,19.21,190.95z"/>
	<path class="st0" d="M22.76,189.27c0,0.13-0.05,0.24-0.14,0.32c-0.09,0.09-0.2,0.13-0.33,0.13s-0.24-0.04-0.33-0.13
		c-0.09-0.09-0.13-0.19-0.13-0.32c0-0.13,0.04-0.24,0.13-0.33c0.09-0.09,0.2-0.13,0.33-0.13s0.24,0.04,0.33,0.13
		C22.71,189.03,22.76,189.14,22.76,189.27z M22.64,194.1h-0.7v-3.55h0.7V194.1z"/>
	<path class="st0" d="M27.19,192.3c0,0.04,0,0.08,0,0.12c0,0.04,0,0.08-0.01,0.12h-2.83c0,0.15,0.04,0.29,0.1,0.42
		c0.06,0.13,0.15,0.25,0.25,0.34s0.23,0.17,0.36,0.23c0.14,0.05,0.28,0.08,0.44,0.08c0.24,0,0.45-0.05,0.62-0.16
		c0.17-0.1,0.31-0.23,0.41-0.38l0.49,0.4c-0.19,0.25-0.41,0.44-0.67,0.56s-0.54,0.18-0.86,0.18c-0.27,0-0.52-0.04-0.75-0.13
		c-0.23-0.09-0.43-0.22-0.59-0.38s-0.29-0.36-0.39-0.59c-0.1-0.23-0.14-0.48-0.14-0.76c0-0.27,0.05-0.53,0.14-0.76
		c0.09-0.23,0.22-0.43,0.39-0.6c0.17-0.17,0.36-0.29,0.59-0.39c0.23-0.09,0.47-0.14,0.73-0.14s0.5,0.04,0.71,0.13
		c0.21,0.08,0.39,0.21,0.54,0.37c0.15,0.16,0.26,0.35,0.34,0.58S27.19,192.01,27.19,192.3z M26.47,192.01
		c-0.01-0.14-0.03-0.27-0.07-0.39c-0.04-0.12-0.1-0.23-0.19-0.32s-0.19-0.16-0.31-0.21c-0.12-0.05-0.27-0.08-0.43-0.08
		c-0.15,0-0.29,0.03-0.42,0.08c-0.13,0.05-0.25,0.12-0.34,0.21c-0.1,0.09-0.18,0.2-0.24,0.32c-0.06,0.12-0.1,0.25-0.11,0.39H26.47z"
		/>
	<path class="st0" d="M28.89,194.1h-0.7v-5.67h0.7V194.1z"/>
	<path class="st0" d="M32.25,190.55l0.8,2.71h0.02l0.85-2.71h0.74l0.86,2.71h0.01l0.8-2.71h0.74l-1.18,3.55h-0.73l-0.88-2.67h-0.02
		l-0.87,2.67h-0.73l-1.18-3.55H32.25z"/>
	<path class="st0" d="M39.99,191.8c0-0.26-0.08-0.46-0.24-0.59c-0.16-0.13-0.37-0.19-0.64-0.19c-0.2,0-0.39,0.04-0.57,0.12
		s-0.33,0.18-0.45,0.3l-0.37-0.45c0.17-0.17,0.39-0.29,0.64-0.39c0.25-0.09,0.52-0.14,0.81-0.14c0.25,0,0.48,0.04,0.66,0.11
		c0.19,0.07,0.34,0.17,0.46,0.3c0.12,0.12,0.21,0.27,0.27,0.44c0.06,0.17,0.09,0.35,0.09,0.55v1.55c0,0.12,0,0.25,0.01,0.38
		c0.01,0.13,0.02,0.24,0.04,0.33h-0.64c-0.04-0.17-0.06-0.34-0.06-0.51H40c-0.13,0.19-0.29,0.34-0.49,0.44
		c-0.2,0.1-0.43,0.16-0.7,0.16c-0.14,0-0.29-0.02-0.44-0.06c-0.15-0.04-0.29-0.1-0.42-0.18s-0.23-0.2-0.31-0.34
		s-0.12-0.31-0.12-0.52c0-0.27,0.07-0.48,0.22-0.64c0.15-0.16,0.33-0.28,0.57-0.36c0.23-0.08,0.5-0.14,0.79-0.16
		c0.29-0.02,0.59-0.04,0.89-0.04V191.8z M39.82,192.41c-0.18,0-0.36,0.01-0.54,0.02c-0.19,0.01-0.36,0.04-0.51,0.09
		s-0.28,0.11-0.38,0.2s-0.15,0.21-0.15,0.36c0,0.11,0.02,0.19,0.06,0.26s0.1,0.13,0.17,0.17s0.15,0.08,0.23,0.09
		c0.08,0.02,0.17,0.03,0.26,0.03c0.33,0,0.58-0.1,0.76-0.3c0.18-0.2,0.27-0.45,0.27-0.75v-0.19H39.82z"/>
	<path class="st0" d="M43.76,191.45c-0.08-0.13-0.19-0.24-0.34-0.32c-0.14-0.08-0.31-0.12-0.49-0.12c-0.08,0-0.16,0.01-0.24,0.03
		c-0.08,0.02-0.15,0.04-0.21,0.08s-0.11,0.08-0.15,0.14c-0.04,0.06-0.06,0.13-0.06,0.21c0,0.15,0.07,0.26,0.2,0.33
		c0.13,0.07,0.34,0.14,0.61,0.2c0.17,0.04,0.33,0.09,0.47,0.14c0.14,0.06,0.27,0.12,0.38,0.21c0.11,0.08,0.19,0.18,0.25,0.3
		c0.06,0.12,0.09,0.25,0.09,0.41c0,0.21-0.04,0.39-0.12,0.53c-0.08,0.14-0.19,0.26-0.32,0.36s-0.28,0.16-0.45,0.2
		c-0.17,0.04-0.34,0.06-0.52,0.06c-0.27,0-0.53-0.05-0.79-0.16c-0.26-0.11-0.47-0.26-0.64-0.48l0.5-0.43
		c0.1,0.14,0.23,0.26,0.39,0.35s0.35,0.14,0.55,0.14c0.09,0,0.18-0.01,0.26-0.03c0.08-0.02,0.16-0.05,0.22-0.09
		c0.07-0.04,0.12-0.09,0.16-0.16c0.04-0.06,0.06-0.15,0.06-0.25c0-0.17-0.08-0.29-0.24-0.37c-0.16-0.08-0.39-0.15-0.69-0.22
		c-0.12-0.03-0.24-0.07-0.36-0.11c-0.12-0.04-0.23-0.1-0.33-0.18c-0.1-0.07-0.18-0.17-0.24-0.28c-0.06-0.11-0.09-0.25-0.09-0.42
		c0-0.19,0.04-0.35,0.12-0.49c0.08-0.14,0.18-0.25,0.3-0.34c0.12-0.09,0.27-0.15,0.43-0.2c0.16-0.04,0.32-0.06,0.49-0.06
		c0.25,0,0.5,0.05,0.74,0.15c0.24,0.1,0.42,0.25,0.55,0.43L43.76,191.45z"/>
	<path class="st0" d="M48.78,191.13h-0.94v1.84c0,0.21,0.04,0.37,0.12,0.46c0.08,0.09,0.21,0.14,0.38,0.14
		c0.06,0,0.13-0.01,0.21-0.02c0.07-0.01,0.14-0.03,0.2-0.06l0.02,0.58c-0.08,0.03-0.18,0.05-0.28,0.07
		c-0.1,0.02-0.21,0.03-0.32,0.03c-0.33,0-0.59-0.09-0.77-0.28c-0.18-0.18-0.27-0.46-0.27-0.83v-1.93h-0.68v-0.58h0.68v-1.02h0.7
		v1.02h0.94V191.13z"/>
	<path class="st0" d="M49.5,190.95c-0.01-0.15-0.01-0.28-0.02-0.4h0.67c0.01,0.09,0.02,0.19,0.02,0.31c0,0.12,0.01,0.21,0.01,0.29
		h0.02c0.1-0.21,0.25-0.38,0.44-0.51c0.19-0.13,0.41-0.19,0.65-0.19c0.11,0,0.2,0.01,0.28,0.03l-0.03,0.65
		c-0.1-0.02-0.21-0.04-0.32-0.04c-0.17,0-0.32,0.03-0.44,0.09c-0.12,0.06-0.23,0.15-0.31,0.25c-0.08,0.1-0.14,0.23-0.18,0.36
		c-0.04,0.14-0.06,0.28-0.06,0.43v1.87h-0.7v-2.79C49.51,191.22,49.51,191.1,49.5,190.95z"/>
	<path class="st0" d="M55.41,192.3c0,0.04,0,0.08,0,0.12c0,0.04,0,0.08-0.01,0.12h-2.83c0,0.15,0.04,0.29,0.1,0.42
		c0.06,0.13,0.15,0.25,0.25,0.34s0.23,0.17,0.36,0.23c0.14,0.05,0.28,0.08,0.44,0.08c0.24,0,0.45-0.05,0.62-0.16
		c0.17-0.1,0.31-0.23,0.41-0.38l0.49,0.4c-0.19,0.25-0.41,0.44-0.67,0.56s-0.54,0.18-0.86,0.18c-0.27,0-0.52-0.04-0.75-0.13
		c-0.23-0.09-0.43-0.22-0.59-0.38s-0.29-0.36-0.39-0.59c-0.1-0.23-0.14-0.48-0.14-0.76c0-0.27,0.05-0.53,0.14-0.76
		c0.09-0.23,0.22-0.43,0.39-0.6c0.17-0.17,0.36-0.29,0.59-0.39c0.23-0.09,0.47-0.14,0.73-0.14s0.5,0.04,0.71,0.13
		c0.21,0.08,0.39,0.21,0.54,0.37c0.15,0.16,0.26,0.35,0.34,0.58S55.41,192.01,55.41,192.3z M54.69,192.01
		c-0.01-0.14-0.03-0.27-0.07-0.39c-0.04-0.12-0.1-0.23-0.19-0.32s-0.19-0.16-0.31-0.21c-0.12-0.05-0.27-0.08-0.43-0.08
		c-0.15,0-0.29,0.03-0.42,0.08c-0.13,0.05-0.25,0.12-0.34,0.21c-0.1,0.09-0.18,0.2-0.24,0.32c-0.06,0.12-0.1,0.25-0.11,0.39H54.69z"
		/>
	<path class="st0" d="M58.55,191.8c0-0.26-0.08-0.46-0.24-0.59c-0.16-0.13-0.37-0.19-0.64-0.19c-0.2,0-0.39,0.04-0.57,0.12
		s-0.33,0.18-0.45,0.3l-0.37-0.45c0.17-0.17,0.39-0.29,0.64-0.39c0.25-0.09,0.52-0.14,0.81-0.14c0.25,0,0.48,0.04,0.66,0.11
		c0.19,0.07,0.34,0.17,0.46,0.3c0.12,0.12,0.21,0.27,0.27,0.44c0.06,0.17,0.09,0.35,0.09,0.55v1.55c0,0.12,0,0.25,0.01,0.38
		c0.01,0.13,0.02,0.24,0.04,0.33h-0.64c-0.04-0.17-0.06-0.34-0.06-0.51h-0.02c-0.13,0.19-0.29,0.34-0.49,0.44
		c-0.2,0.1-0.43,0.16-0.7,0.16c-0.14,0-0.29-0.02-0.44-0.06c-0.15-0.04-0.29-0.1-0.42-0.18s-0.23-0.2-0.31-0.34
		s-0.12-0.31-0.12-0.52c0-0.27,0.07-0.48,0.22-0.64c0.15-0.16,0.33-0.28,0.57-0.36c0.23-0.08,0.5-0.14,0.79-0.16
		c0.29-0.02,0.59-0.04,0.89-0.04V191.8z M58.38,192.41c-0.18,0-0.36,0.01-0.54,0.02c-0.19,0.01-0.36,0.04-0.51,0.09
		s-0.28,0.11-0.38,0.2s-0.15,0.21-0.15,0.36c0,0.11,0.02,0.19,0.06,0.26s0.1,0.13,0.17,0.17s0.15,0.08,0.23,0.09
		c0.08,0.02,0.17,0.03,0.26,0.03c0.33,0,0.58-0.1,0.76-0.3c0.18-0.2,0.27-0.45,0.27-0.75v-0.19H58.38z"/>
	<path class="st0" d="M62.06,191.13h-0.94v1.84c0,0.21,0.04,0.37,0.12,0.46c0.08,0.09,0.21,0.14,0.38,0.14
		c0.06,0,0.13-0.01,0.21-0.02c0.07-0.01,0.14-0.03,0.2-0.06l0.02,0.58c-0.08,0.03-0.18,0.05-0.28,0.07
		c-0.1,0.02-0.21,0.03-0.32,0.03c-0.33,0-0.59-0.09-0.77-0.28c-0.18-0.18-0.27-0.46-0.27-0.83v-1.93h-0.68v-0.58h0.68v-1.02h0.7
		v1.02h0.94V191.13z"/>
	<path class="st0" d="M66.11,192.3c0,0.04,0,0.08,0,0.12c0,0.04,0,0.08-0.01,0.12h-2.83c0,0.15,0.04,0.29,0.1,0.42
		c0.06,0.13,0.15,0.25,0.25,0.34s0.23,0.17,0.36,0.23c0.14,0.05,0.28,0.08,0.44,0.08c0.24,0,0.45-0.05,0.62-0.16
		c0.17-0.1,0.31-0.23,0.41-0.38l0.49,0.4c-0.19,0.25-0.41,0.44-0.67,0.56s-0.54,0.18-0.86,0.18c-0.27,0-0.52-0.04-0.75-0.13
		c-0.23-0.09-0.43-0.22-0.59-0.38s-0.29-0.36-0.39-0.59c-0.1-0.23-0.14-0.48-0.14-0.76c0-0.27,0.05-0.53,0.14-0.76
		c0.09-0.23,0.22-0.43,0.39-0.6c0.17-0.17,0.36-0.29,0.59-0.39c0.23-0.09,0.47-0.14,0.73-0.14s0.5,0.04,0.71,0.13
		c0.21,0.08,0.39,0.21,0.54,0.37c0.15,0.16,0.26,0.35,0.34,0.58S66.11,192.01,66.11,192.3z M65.39,192.01
		c-0.01-0.14-0.03-0.27-0.07-0.39c-0.04-0.12-0.1-0.23-0.19-0.32s-0.19-0.16-0.31-0.21c-0.12-0.05-0.27-0.08-0.43-0.08
		c-0.15,0-0.29,0.03-0.42,0.08c-0.13,0.05-0.25,0.12-0.34,0.21c-0.1,0.09-0.18,0.2-0.24,0.32c-0.06,0.12-0.1,0.25-0.11,0.39H65.39z"
		/>
	<path class="st0" d="M69.92,193.54c-0.13,0.21-0.32,0.38-0.55,0.49c-0.23,0.11-0.48,0.17-0.73,0.17c-0.27,0-0.52-0.05-0.74-0.15
		c-0.22-0.1-0.41-0.23-0.56-0.4c-0.16-0.17-0.27-0.37-0.36-0.6c-0.08-0.23-0.13-0.47-0.13-0.73s0.04-0.5,0.13-0.73
		c0.08-0.23,0.21-0.43,0.36-0.6c0.16-0.17,0.35-0.3,0.57-0.4s0.46-0.14,0.73-0.14c0.29,0,0.54,0.06,0.76,0.18s0.38,0.27,0.51,0.45
		h0.02v-2.65h0.7v5.67h-0.68v-0.56H69.92z M67.58,192.33c0,0.16,0.02,0.32,0.08,0.48c0.05,0.15,0.12,0.29,0.22,0.41
		c0.1,0.12,0.22,0.22,0.37,0.29s0.31,0.11,0.51,0.11c0.18,0,0.34-0.04,0.49-0.11c0.15-0.07,0.27-0.16,0.38-0.28
		c0.1-0.12,0.19-0.25,0.24-0.41c0.06-0.15,0.09-0.32,0.09-0.49c0-0.17-0.03-0.33-0.09-0.49c-0.06-0.15-0.14-0.29-0.24-0.41
		c-0.1-0.12-0.23-0.21-0.38-0.28c-0.15-0.07-0.31-0.1-0.49-0.1c-0.19,0-0.36,0.04-0.51,0.1c-0.15,0.07-0.27,0.17-0.37,0.28
		c-0.1,0.12-0.17,0.26-0.22,0.41C67.6,192,67.58,192.16,67.58,192.33z"/>
	<path class="st0" d="M73.98,190.55l0.8,2.71h0.02l0.85-2.71h0.74l0.86,2.71h0.01l0.8-2.71h0.74l-1.18,3.55h-0.73l-0.88-2.67H76
		l-0.87,2.67H74.4l-1.18-3.55H73.98z"/>
	<path class="st0" d="M80.33,189.27c0,0.13-0.05,0.24-0.14,0.32c-0.09,0.09-0.2,0.13-0.33,0.13s-0.24-0.04-0.33-0.13
		c-0.09-0.09-0.13-0.19-0.13-0.32c0-0.13,0.04-0.24,0.13-0.33c0.09-0.09,0.2-0.13,0.33-0.13s0.24,0.04,0.33,0.13
		C80.28,189.03,80.33,189.14,80.33,189.27z M80.22,194.1h-0.7v-3.55h0.7V194.1z"/>
	<path class="st0" d="M83.19,191.13h-0.94v1.84c0,0.21,0.04,0.37,0.12,0.46c0.08,0.09,0.21,0.14,0.38,0.14
		c0.06,0,0.13-0.01,0.21-0.02c0.07-0.01,0.14-0.03,0.2-0.06l0.02,0.58c-0.08,0.03-0.18,0.05-0.28,0.07
		c-0.1,0.02-0.21,0.03-0.32,0.03c-0.33,0-0.59-0.09-0.77-0.28c-0.18-0.18-0.27-0.46-0.27-0.83v-1.93h-0.68v-0.58h0.68v-1.02h0.7
		v1.02h0.94V191.13z"/>
	<path class="st0" d="M84.65,191.09c0.08-0.17,0.23-0.32,0.43-0.45c0.21-0.12,0.43-0.19,0.69-0.19c0.23,0,0.43,0.04,0.59,0.12
		c0.16,0.08,0.3,0.18,0.41,0.31s0.19,0.28,0.24,0.46c0.05,0.18,0.08,0.36,0.08,0.56v2.2h-0.7v-1.97c0-0.15-0.01-0.28-0.03-0.41
		c-0.02-0.13-0.06-0.25-0.12-0.34c-0.06-0.1-0.14-0.18-0.24-0.24c-0.1-0.06-0.24-0.09-0.4-0.09c-0.28,0-0.51,0.11-0.69,0.32
		s-0.27,0.5-0.27,0.85v1.89h-0.7v-5.67h0.7v2.65H84.65z"/>
	<path class="st0" d="M94.75,193.28c-0.21,0.28-0.48,0.52-0.82,0.69c-0.33,0.18-0.74,0.27-1.21,0.27c-0.4,0-0.78-0.07-1.12-0.21
		c-0.34-0.14-0.64-0.33-0.88-0.58c-0.25-0.25-0.44-0.54-0.58-0.88c-0.14-0.34-0.21-0.72-0.21-1.13c0-0.42,0.07-0.79,0.21-1.14
		c0.14-0.34,0.34-0.63,0.59-0.88c0.25-0.24,0.55-0.43,0.9-0.57s0.72-0.2,1.12-0.2c0.18,0,0.36,0.02,0.55,0.05
		c0.18,0.04,0.36,0.09,0.53,0.16s0.32,0.16,0.46,0.26c0.14,0.1,0.26,0.22,0.36,0.36l-0.58,0.45c-0.13-0.18-0.31-0.33-0.55-0.45
		s-0.49-0.18-0.77-0.18c-0.31,0-0.59,0.06-0.84,0.17c-0.25,0.11-0.46,0.27-0.63,0.46c-0.17,0.2-0.31,0.42-0.4,0.68
		c-0.09,0.26-0.14,0.53-0.14,0.82c0,0.3,0.05,0.58,0.14,0.84c0.09,0.26,0.22,0.49,0.4,0.68s0.38,0.34,0.63,0.45
		c0.25,0.11,0.52,0.17,0.83,0.17c0.3,0,0.57-0.06,0.82-0.18c0.24-0.12,0.45-0.29,0.61-0.52L94.75,193.28z"/>
	<path class="st0" d="M98.98,192.32c0,0.27-0.05,0.53-0.15,0.76c-0.1,0.23-0.23,0.43-0.4,0.6c-0.17,0.17-0.38,0.3-0.61,0.39
		c-0.23,0.09-0.49,0.14-0.76,0.14c-0.27,0-0.52-0.05-0.76-0.14c-0.23-0.09-0.44-0.22-0.61-0.39c-0.17-0.17-0.3-0.37-0.4-0.6
		c-0.1-0.23-0.15-0.48-0.15-0.76c0-0.28,0.05-0.53,0.15-0.75c0.1-0.23,0.23-0.42,0.4-0.59c0.17-0.17,0.37-0.29,0.61-0.39
		s0.49-0.14,0.76-0.14c0.27,0,0.52,0.05,0.76,0.14s0.44,0.22,0.61,0.39s0.31,0.36,0.4,0.59C98.93,191.79,98.98,192.05,98.98,192.32z
		 M98.24,192.33c0-0.17-0.03-0.33-0.08-0.49s-0.13-0.29-0.23-0.41c-0.1-0.12-0.22-0.21-0.37-0.28c-0.15-0.07-0.32-0.1-0.51-0.1
		s-0.36,0.04-0.51,0.1c-0.15,0.07-0.27,0.16-0.37,0.28s-0.18,0.25-0.23,0.41s-0.08,0.32-0.08,0.49c0,0.17,0.03,0.33,0.08,0.49
		s0.13,0.29,0.23,0.41c0.1,0.12,0.22,0.21,0.37,0.28c0.15,0.07,0.32,0.11,0.51,0.11s0.36-0.04,0.51-0.11
		c0.15-0.07,0.27-0.16,0.37-0.28c0.1-0.12,0.18-0.26,0.23-0.41S98.24,192.49,98.24,192.33z"/>
	<path class="st0" d="M103.55,192.32c0,0.27-0.05,0.53-0.15,0.76c-0.1,0.23-0.23,0.43-0.4,0.6c-0.17,0.17-0.38,0.3-0.61,0.39
		c-0.23,0.09-0.49,0.14-0.76,0.14c-0.27,0-0.52-0.05-0.76-0.14c-0.23-0.09-0.44-0.22-0.61-0.39c-0.17-0.17-0.3-0.37-0.4-0.6
		c-0.1-0.23-0.15-0.48-0.15-0.76c0-0.28,0.05-0.53,0.15-0.75c0.1-0.23,0.23-0.42,0.4-0.59c0.17-0.17,0.37-0.29,0.61-0.39
		s0.49-0.14,0.76-0.14c0.27,0,0.52,0.05,0.76,0.14s0.44,0.22,0.61,0.39s0.31,0.36,0.4,0.59
		C103.5,191.79,103.55,192.05,103.55,192.32z M102.81,192.33c0-0.17-0.03-0.33-0.08-0.49s-0.13-0.29-0.23-0.41
		c-0.1-0.12-0.22-0.21-0.37-0.28c-0.15-0.07-0.32-0.1-0.51-0.1s-0.36,0.04-0.51,0.1c-0.15,0.07-0.27,0.16-0.37,0.28
		s-0.18,0.25-0.23,0.41s-0.08,0.32-0.08,0.49c0,0.17,0.03,0.33,0.08,0.49s0.13,0.29,0.23,0.41c0.1,0.12,0.22,0.21,0.37,0.28
		c0.15,0.07,0.32,0.11,0.51,0.11s0.36-0.04,0.51-0.11c0.15-0.07,0.27-0.16,0.37-0.28c0.1-0.12,0.18-0.26,0.23-0.41
		S102.81,192.49,102.81,192.33z"/>
	<path class="st0" d="M105.24,194.1h-0.7v-5.67h0.7V194.1z"/>
	<path class="st0" d="M108.37,194.1h-0.74v-4.65h-1.7v-0.65h4.14v0.65h-1.7V194.1z"/>
	<path class="st0" d="M113.61,192.32c0,0.27-0.05,0.53-0.15,0.76c-0.1,0.23-0.23,0.43-0.4,0.6c-0.17,0.17-0.38,0.3-0.61,0.39
		c-0.23,0.09-0.49,0.14-0.76,0.14c-0.27,0-0.52-0.05-0.76-0.14c-0.23-0.09-0.44-0.22-0.61-0.39c-0.17-0.17-0.3-0.37-0.4-0.6
		c-0.1-0.23-0.15-0.48-0.15-0.76c0-0.28,0.05-0.53,0.15-0.75c0.1-0.23,0.23-0.42,0.4-0.59c0.17-0.17,0.37-0.29,0.61-0.39
		s0.49-0.14,0.76-0.14c0.27,0,0.52,0.05,0.76,0.14s0.44,0.22,0.61,0.39s0.31,0.36,0.4,0.59
		C113.56,191.79,113.61,192.05,113.61,192.32z M112.88,192.33c0-0.17-0.03-0.33-0.08-0.49s-0.13-0.29-0.23-0.41
		c-0.1-0.12-0.22-0.21-0.37-0.28c-0.15-0.07-0.32-0.1-0.51-0.1s-0.36,0.04-0.51,0.1c-0.15,0.07-0.27,0.16-0.37,0.28
		s-0.18,0.25-0.23,0.41s-0.08,0.32-0.08,0.49c0,0.17,0.03,0.33,0.08,0.49s0.13,0.29,0.23,0.41c0.1,0.12,0.22,0.21,0.37,0.28
		c0.15,0.07,0.32,0.11,0.51,0.11s0.36-0.04,0.51-0.11c0.15-0.07,0.27-0.16,0.37-0.28c0.1-0.12,0.18-0.26,0.23-0.41
		S112.88,192.49,112.88,192.33z"/>
	<path class="st0" d="M115.22,190.55c0.01,0.09,0.02,0.19,0.02,0.3c0,0.11,0.01,0.21,0.01,0.28h0.02c0.04-0.09,0.11-0.18,0.18-0.27
		c0.08-0.08,0.17-0.16,0.27-0.22c0.1-0.06,0.21-0.11,0.33-0.15c0.12-0.04,0.24-0.05,0.38-0.05c0.23,0,0.43,0.04,0.59,0.12
		s0.3,0.18,0.41,0.31s0.19,0.28,0.24,0.46c0.05,0.18,0.08,0.36,0.08,0.56v2.2h-0.7v-1.97c0-0.14-0.01-0.28-0.03-0.41
		s-0.06-0.25-0.12-0.34s-0.14-0.18-0.25-0.24c-0.1-0.06-0.24-0.09-0.4-0.09c-0.28,0-0.51,0.11-0.69,0.32
		c-0.18,0.21-0.27,0.5-0.27,0.85v1.89h-0.7v-2.79c0-0.09,0-0.22-0.01-0.37c-0.01-0.15-0.01-0.28-0.02-0.4H115.22z"/>
	<path class="st0" d="M122.27,192.3c0,0.04,0,0.08,0,0.12c0,0.04,0,0.08-0.01,0.12h-2.83c0,0.15,0.04,0.29,0.1,0.42
		c0.06,0.13,0.15,0.25,0.25,0.34s0.23,0.17,0.36,0.23c0.14,0.05,0.28,0.08,0.44,0.08c0.24,0,0.45-0.05,0.62-0.16
		c0.17-0.1,0.31-0.23,0.41-0.38l0.49,0.4c-0.19,0.25-0.41,0.44-0.67,0.56s-0.54,0.18-0.86,0.18c-0.27,0-0.52-0.04-0.75-0.13
		c-0.23-0.09-0.43-0.22-0.59-0.38s-0.29-0.36-0.39-0.59c-0.1-0.23-0.14-0.48-0.14-0.76c0-0.27,0.05-0.53,0.14-0.76
		c0.09-0.23,0.22-0.43,0.39-0.6c0.17-0.17,0.36-0.29,0.59-0.39c0.23-0.09,0.47-0.14,0.73-0.14s0.5,0.04,0.71,0.13
		c0.21,0.08,0.39,0.21,0.54,0.37c0.15,0.16,0.26,0.35,0.34,0.58S122.27,192.01,122.27,192.3z M121.55,192.01
		c-0.01-0.14-0.03-0.27-0.07-0.39c-0.04-0.12-0.1-0.23-0.19-0.32s-0.19-0.16-0.31-0.21c-0.12-0.05-0.27-0.08-0.43-0.08
		c-0.15,0-0.29,0.03-0.42,0.08c-0.13,0.05-0.25,0.12-0.34,0.21c-0.1,0.09-0.18,0.2-0.24,0.32c-0.06,0.12-0.1,0.25-0.11,0.39H121.55z
		"/>
	<path class="st0" d="M123.17,190.41c0-0.23,0.04-0.46,0.13-0.66s0.21-0.39,0.37-0.54s0.34-0.27,0.54-0.36
		c0.21-0.09,0.43-0.13,0.66-0.13s0.46,0.04,0.66,0.13c0.21,0.09,0.39,0.21,0.54,0.36s0.28,0.33,0.37,0.54s0.13,0.43,0.13,0.66
		s-0.04,0.45-0.13,0.66s-0.21,0.38-0.37,0.54s-0.34,0.27-0.54,0.36c-0.21,0.09-0.43,0.13-0.66,0.13s-0.46-0.04-0.66-0.13
		c-0.21-0.09-0.39-0.21-0.54-0.36s-0.28-0.33-0.37-0.54S123.17,190.64,123.17,190.41z M123.44,190.41c0,0.19,0.04,0.38,0.11,0.55
		c0.07,0.17,0.18,0.33,0.31,0.46c0.13,0.13,0.28,0.24,0.46,0.31s0.36,0.11,0.56,0.11s0.39-0.04,0.56-0.11s0.33-0.18,0.46-0.31
		c0.13-0.13,0.23-0.29,0.31-0.46c0.07-0.17,0.11-0.36,0.11-0.55c0-0.2-0.04-0.39-0.11-0.56c-0.08-0.17-0.18-0.33-0.31-0.46
		s-0.28-0.23-0.46-0.31c-0.17-0.08-0.36-0.11-0.56-0.11s-0.39,0.04-0.56,0.11c-0.17,0.07-0.33,0.18-0.46,0.31s-0.23,0.28-0.31,0.46
		C123.48,190.02,123.44,190.21,123.44,190.41z M125.29,191.35l-0.41-0.74h-0.27v0.74h-0.46v-1.92h0.82c0.09,0,0.18,0.01,0.26,0.03
		c0.08,0.02,0.16,0.05,0.23,0.1c0.07,0.04,0.13,0.11,0.17,0.18s0.06,0.17,0.06,0.29c0,0.13-0.04,0.24-0.11,0.32
		c-0.07,0.08-0.16,0.15-0.27,0.19l0.51,0.81H125.29z M124.96,190.28c0.07,0,0.13-0.02,0.19-0.07c0.06-0.04,0.09-0.11,0.09-0.18
		c0-0.08-0.03-0.14-0.1-0.17s-0.12-0.05-0.18-0.05h-0.35v0.47H124.96z"/>
	<path class="st0" d="M133.21,192.32c0,0.27-0.05,0.53-0.15,0.76c-0.1,0.23-0.23,0.43-0.4,0.6c-0.17,0.17-0.38,0.3-0.61,0.39
		c-0.23,0.09-0.49,0.14-0.76,0.14c-0.27,0-0.52-0.05-0.76-0.14c-0.23-0.09-0.44-0.22-0.61-0.39c-0.17-0.17-0.3-0.37-0.4-0.6
		c-0.1-0.23-0.15-0.48-0.15-0.76c0-0.28,0.05-0.53,0.15-0.75c0.1-0.23,0.23-0.42,0.4-0.59c0.17-0.17,0.37-0.29,0.61-0.39
		s0.49-0.14,0.76-0.14c0.27,0,0.52,0.05,0.76,0.14s0.44,0.22,0.61,0.39s0.31,0.36,0.4,0.59
		C133.16,191.79,133.21,192.05,133.21,192.32z M132.47,192.33c0-0.17-0.03-0.33-0.08-0.49s-0.13-0.29-0.23-0.41
		c-0.1-0.12-0.22-0.21-0.37-0.28c-0.15-0.07-0.32-0.1-0.51-0.1s-0.36,0.04-0.51,0.1c-0.15,0.07-0.27,0.16-0.37,0.28
		s-0.18,0.25-0.23,0.41s-0.08,0.32-0.08,0.49c0,0.17,0.03,0.33,0.08,0.49s0.13,0.29,0.23,0.41c0.1,0.12,0.22,0.21,0.37,0.28
		c0.15,0.07,0.32,0.11,0.51,0.11s0.36-0.04,0.51-0.11c0.15-0.07,0.27-0.16,0.37-0.28c0.1-0.12,0.18-0.26,0.23-0.41
		S132.47,192.49,132.47,192.33z"/>
	<path class="st0" d="M134.82,190.55c0.01,0.09,0.02,0.19,0.02,0.3c0,0.11,0.01,0.21,0.01,0.28h0.02c0.04-0.09,0.11-0.18,0.18-0.27
		c0.08-0.08,0.17-0.16,0.27-0.22c0.1-0.06,0.21-0.11,0.33-0.15c0.12-0.04,0.24-0.05,0.38-0.05c0.23,0,0.43,0.04,0.59,0.12
		s0.3,0.18,0.41,0.31s0.19,0.28,0.24,0.46c0.05,0.18,0.08,0.36,0.08,0.56v2.2h-0.7v-1.97c0-0.14-0.01-0.28-0.03-0.41
		s-0.06-0.25-0.12-0.34s-0.14-0.18-0.25-0.24c-0.1-0.06-0.24-0.09-0.4-0.09c-0.28,0-0.51,0.11-0.69,0.32
		c-0.18,0.21-0.27,0.5-0.27,0.85v1.89h-0.7v-2.79c0-0.09,0-0.22-0.01-0.37c-0.01-0.15-0.01-0.28-0.02-0.4H134.82z"/>
	<path class="st0" d="M141.15,191.09c0.08-0.17,0.23-0.32,0.43-0.45c0.21-0.12,0.43-0.19,0.69-0.19c0.23,0,0.43,0.04,0.59,0.12
		c0.16,0.08,0.3,0.18,0.41,0.31s0.19,0.28,0.24,0.46c0.05,0.18,0.08,0.36,0.08,0.56v2.2h-0.7v-1.97c0-0.15-0.01-0.28-0.03-0.41
		c-0.02-0.13-0.06-0.25-0.12-0.34c-0.06-0.1-0.14-0.18-0.24-0.24c-0.1-0.06-0.24-0.09-0.4-0.09c-0.28,0-0.51,0.11-0.69,0.32
		s-0.27,0.5-0.27,0.85v1.89h-0.7v-5.67h0.7v2.65H141.15z"/>
	<path class="st0" d="M148.11,192.3c0,0.04,0,0.08,0,0.12c0,0.04,0,0.08-0.01,0.12h-2.83c0,0.15,0.04,0.29,0.1,0.42
		c0.06,0.13,0.15,0.25,0.25,0.34s0.23,0.17,0.36,0.23c0.14,0.05,0.28,0.08,0.44,0.08c0.24,0,0.45-0.05,0.62-0.16
		c0.17-0.1,0.31-0.23,0.41-0.38l0.49,0.4c-0.19,0.25-0.41,0.44-0.67,0.56s-0.54,0.18-0.86,0.18c-0.27,0-0.52-0.04-0.75-0.13
		c-0.23-0.09-0.43-0.22-0.59-0.38s-0.29-0.36-0.39-0.59c-0.1-0.23-0.14-0.48-0.14-0.76c0-0.27,0.05-0.53,0.14-0.76
		c0.09-0.23,0.22-0.43,0.39-0.6c0.17-0.17,0.36-0.29,0.59-0.39c0.23-0.09,0.47-0.14,0.73-0.14s0.5,0.04,0.71,0.13
		c0.21,0.08,0.39,0.21,0.54,0.37c0.15,0.16,0.26,0.35,0.34,0.58S148.11,192.01,148.11,192.3z M147.39,192.01
		c-0.01-0.14-0.03-0.27-0.07-0.39c-0.04-0.12-0.1-0.23-0.19-0.32s-0.19-0.16-0.31-0.21c-0.12-0.05-0.27-0.08-0.43-0.08
		c-0.15,0-0.29,0.03-0.42,0.08c-0.13,0.05-0.25,0.12-0.34,0.21c-0.1,0.09-0.18,0.2-0.24,0.32c-0.06,0.12-0.1,0.25-0.11,0.39H147.39z
		"/>
	<path class="st0" d="M149.08,190.95c-0.01-0.15-0.01-0.28-0.02-0.4h0.67c0.01,0.09,0.02,0.19,0.02,0.31c0,0.12,0.01,0.21,0.01,0.29
		h0.02c0.1-0.21,0.25-0.38,0.44-0.51c0.19-0.13,0.41-0.19,0.65-0.19c0.11,0,0.2,0.01,0.28,0.03l-0.03,0.65
		c-0.1-0.02-0.21-0.04-0.32-0.04c-0.17,0-0.32,0.03-0.44,0.09c-0.12,0.06-0.23,0.15-0.31,0.25c-0.08,0.1-0.14,0.23-0.18,0.36
		c-0.04,0.14-0.06,0.28-0.06,0.43v1.87h-0.7v-2.79C149.09,191.22,149.08,191.1,149.08,190.95z"/>
	<path class="st0" d="M16.1,200.15c0-0.26-0.08-0.46-0.24-0.59c-0.16-0.13-0.37-0.19-0.64-0.19c-0.2,0-0.39,0.04-0.57,0.12
		s-0.33,0.18-0.45,0.3l-0.37-0.45c0.17-0.17,0.39-0.29,0.64-0.39c0.25-0.09,0.52-0.14,0.81-0.14c0.25,0,0.48,0.04,0.66,0.11
		c0.19,0.07,0.34,0.17,0.46,0.3c0.12,0.12,0.21,0.27,0.27,0.44c0.06,0.17,0.09,0.35,0.09,0.55v1.55c0,0.12,0,0.25,0.01,0.38
		c0.01,0.13,0.02,0.24,0.04,0.33h-0.64c-0.04-0.17-0.06-0.34-0.06-0.51h-0.02c-0.13,0.19-0.29,0.34-0.49,0.44
		c-0.2,0.1-0.43,0.16-0.7,0.16c-0.14,0-0.29-0.02-0.44-0.06c-0.15-0.04-0.29-0.1-0.42-0.18s-0.23-0.2-0.31-0.34
		s-0.12-0.31-0.12-0.52c0-0.27,0.07-0.48,0.22-0.64c0.15-0.16,0.33-0.28,0.57-0.36c0.23-0.08,0.5-0.14,0.79-0.16
		c0.29-0.02,0.59-0.04,0.89-0.04V200.15z M15.93,200.75c-0.18,0-0.36,0.01-0.54,0.02c-0.19,0.01-0.36,0.04-0.51,0.09
		s-0.28,0.11-0.38,0.2s-0.15,0.21-0.15,0.36c0,0.11,0.02,0.19,0.06,0.26s0.1,0.13,0.17,0.17s0.15,0.08,0.23,0.09
		c0.08,0.02,0.17,0.03,0.26,0.03c0.33,0,0.58-0.1,0.76-0.3c0.18-0.2,0.27-0.45,0.27-0.75v-0.19H15.93z"/>
	<path class="st0" d="M18.65,201.89v0.56h-0.68v-5.67h0.7v2.65h0.02c0.12-0.17,0.29-0.32,0.5-0.45s0.47-0.18,0.76-0.18
		c0.26,0,0.5,0.05,0.72,0.14s0.4,0.23,0.56,0.4c0.16,0.17,0.28,0.37,0.36,0.6c0.08,0.23,0.13,0.47,0.13,0.73s-0.04,0.5-0.13,0.73
		c-0.08,0.23-0.2,0.43-0.36,0.6c-0.15,0.17-0.34,0.3-0.56,0.4s-0.47,0.15-0.74,0.15c-0.25,0-0.5-0.06-0.73-0.17
		c-0.23-0.11-0.41-0.28-0.55-0.49H18.65z M21.01,200.67c0-0.17-0.03-0.32-0.08-0.48s-0.12-0.29-0.22-0.41
		c-0.1-0.12-0.22-0.21-0.37-0.28c-0.15-0.07-0.32-0.1-0.51-0.1c-0.18,0-0.34,0.04-0.49,0.1c-0.15,0.07-0.27,0.17-0.38,0.28
		c-0.1,0.12-0.19,0.26-0.24,0.41c-0.06,0.15-0.09,0.32-0.09,0.49c0,0.17,0.03,0.33,0.09,0.49c0.06,0.15,0.14,0.29,0.24,0.41
		c0.1,0.12,0.23,0.21,0.38,0.28c0.15,0.07,0.31,0.11,0.49,0.11c0.19,0,0.37-0.04,0.51-0.11s0.27-0.17,0.37-0.29
		c0.1-0.12,0.17-0.26,0.22-0.41S21.01,200.83,21.01,200.67z"/>
	<path class="st0" d="M25.55,201.89c-0.13,0.21-0.32,0.38-0.55,0.49c-0.23,0.11-0.48,0.17-0.73,0.17c-0.27,0-0.52-0.05-0.74-0.15
		c-0.22-0.1-0.41-0.23-0.56-0.4c-0.16-0.17-0.27-0.37-0.36-0.6c-0.08-0.23-0.13-0.47-0.13-0.73s0.04-0.5,0.13-0.73
		c0.08-0.23,0.21-0.43,0.36-0.6c0.16-0.17,0.35-0.3,0.57-0.4s0.46-0.14,0.73-0.14c0.29,0,0.54,0.06,0.76,0.18s0.38,0.27,0.51,0.45
		h0.02v-2.65h0.7v5.67h-0.68v-0.56H25.55z M23.21,200.67c0,0.16,0.02,0.32,0.08,0.48c0.05,0.15,0.12,0.29,0.22,0.41
		c0.1,0.12,0.22,0.22,0.37,0.29s0.31,0.11,0.51,0.11c0.18,0,0.34-0.04,0.49-0.11c0.15-0.07,0.27-0.16,0.38-0.28
		c0.1-0.12,0.19-0.25,0.24-0.41c0.06-0.15,0.09-0.32,0.09-0.49c0-0.17-0.03-0.33-0.09-0.49c-0.06-0.15-0.14-0.29-0.24-0.41
		c-0.1-0.12-0.23-0.21-0.38-0.28c-0.15-0.07-0.31-0.1-0.49-0.1c-0.19,0-0.36,0.04-0.51,0.1c-0.15,0.07-0.27,0.17-0.37,0.28
		c-0.1,0.12-0.17,0.26-0.22,0.41C23.24,200.34,23.21,200.5,23.21,200.67z"/>
	<path class="st0" d="M31.07,200.67c0,0.27-0.05,0.53-0.15,0.76c-0.1,0.23-0.23,0.43-0.4,0.6c-0.17,0.17-0.38,0.3-0.61,0.39
		c-0.23,0.09-0.49,0.14-0.76,0.14c-0.27,0-0.52-0.05-0.76-0.14c-0.23-0.09-0.44-0.22-0.61-0.39c-0.17-0.17-0.3-0.37-0.4-0.6
		c-0.1-0.23-0.15-0.48-0.15-0.76c0-0.28,0.05-0.53,0.15-0.75c0.1-0.23,0.23-0.42,0.4-0.59c0.17-0.17,0.37-0.29,0.61-0.39
		s0.49-0.14,0.76-0.14c0.27,0,0.52,0.05,0.76,0.14s0.44,0.22,0.61,0.39s0.31,0.36,0.4,0.59C31.03,200.14,31.07,200.39,31.07,200.67z
		 M30.34,200.67c0-0.17-0.03-0.33-0.08-0.49s-0.13-0.29-0.23-0.41c-0.1-0.12-0.22-0.21-0.37-0.28c-0.15-0.07-0.32-0.1-0.51-0.1
		s-0.36,0.04-0.51,0.1c-0.15,0.07-0.27,0.16-0.37,0.28s-0.18,0.25-0.23,0.41s-0.08,0.32-0.08,0.49c0,0.17,0.03,0.33,0.08,0.49
		s0.13,0.29,0.23,0.41c0.1,0.12,0.22,0.21,0.37,0.28c0.15,0.07,0.32,0.11,0.51,0.11s0.36-0.04,0.51-0.11
		c0.15-0.07,0.27-0.16,0.37-0.28c0.1-0.12,0.18-0.26,0.23-0.41S30.34,200.84,30.34,200.67z"/>
	<path class="st0" d="M33.17,199c0.2-0.13,0.43-0.2,0.7-0.2c0.24,0,0.46,0.05,0.65,0.17c0.19,0.11,0.34,0.29,0.45,0.55
		c0.12-0.23,0.29-0.41,0.5-0.53s0.45-0.18,0.7-0.18c0.23,0,0.43,0.04,0.59,0.12s0.3,0.18,0.41,0.31s0.19,0.28,0.24,0.46
		c0.05,0.18,0.08,0.36,0.08,0.56v2.2h-0.7v-1.97c0-0.14-0.01-0.28-0.04-0.41c-0.03-0.13-0.07-0.25-0.13-0.34
		c-0.06-0.1-0.14-0.18-0.24-0.24c-0.1-0.06-0.23-0.09-0.38-0.09c-0.16,0-0.3,0.03-0.41,0.1c-0.12,0.07-0.21,0.15-0.28,0.26
		s-0.12,0.23-0.16,0.36c-0.03,0.13-0.05,0.27-0.05,0.41v1.92h-0.7v-2.11c0-0.14-0.01-0.27-0.04-0.38c-0.03-0.12-0.07-0.21-0.13-0.3
		c-0.06-0.08-0.14-0.15-0.23-0.2c-0.09-0.05-0.21-0.07-0.35-0.07c-0.26,0-0.48,0.11-0.65,0.32c-0.17,0.21-0.26,0.5-0.26,0.85v1.89
		h-0.7v-2.79c0-0.09,0-0.22-0.01-0.37c-0.01-0.15-0.01-0.28-0.02-0.4h0.67c0.01,0.09,0.02,0.19,0.02,0.3c0,0.11,0.01,0.21,0.01,0.28
		h0.02C32.83,199.29,32.97,199.13,33.17,199z"/>
	<path class="st0" d="M42.02,200.64c0,0.04,0,0.08,0,0.12c0,0.04,0,0.08-0.01,0.12h-2.83c0,0.15,0.04,0.29,0.1,0.42
		c0.06,0.13,0.15,0.25,0.25,0.34s0.23,0.17,0.36,0.23c0.14,0.05,0.28,0.08,0.44,0.08c0.24,0,0.45-0.05,0.62-0.16
		c0.17-0.1,0.31-0.23,0.41-0.38l0.49,0.4c-0.19,0.25-0.41,0.44-0.67,0.56s-0.54,0.18-0.86,0.18c-0.27,0-0.52-0.04-0.75-0.13
		c-0.23-0.09-0.43-0.22-0.59-0.38s-0.29-0.36-0.39-0.59c-0.1-0.23-0.14-0.48-0.14-0.76c0-0.27,0.05-0.53,0.14-0.76
		c0.09-0.23,0.22-0.43,0.39-0.6c0.17-0.17,0.36-0.29,0.59-0.39c0.23-0.09,0.47-0.14,0.73-0.14s0.5,0.04,0.71,0.13
		c0.21,0.08,0.39,0.21,0.54,0.37c0.15,0.16,0.26,0.35,0.34,0.58S42.02,200.36,42.02,200.64z M41.3,200.36
		c-0.01-0.14-0.03-0.27-0.07-0.39c-0.04-0.12-0.1-0.23-0.19-0.32s-0.19-0.16-0.31-0.21c-0.12-0.05-0.27-0.08-0.43-0.08
		c-0.15,0-0.29,0.03-0.42,0.08c-0.13,0.05-0.25,0.12-0.34,0.21c-0.1,0.09-0.18,0.2-0.24,0.32c-0.06,0.12-0.1,0.25-0.11,0.39H41.3z"
		/>
	<path class="st0" d="M43.63,198.9c0.01,0.09,0.02,0.19,0.02,0.3c0,0.11,0.01,0.21,0.01,0.28h0.02c0.04-0.09,0.11-0.18,0.18-0.27
		c0.08-0.08,0.17-0.16,0.27-0.22c0.1-0.06,0.21-0.11,0.33-0.15c0.12-0.04,0.24-0.05,0.38-0.05c0.23,0,0.43,0.04,0.59,0.12
		s0.3,0.18,0.41,0.31s0.19,0.28,0.24,0.46c0.05,0.18,0.08,0.36,0.08,0.56v2.2h-0.7v-1.97c0-0.14-0.01-0.28-0.03-0.41
		s-0.06-0.25-0.12-0.34s-0.14-0.18-0.25-0.24c-0.1-0.06-0.24-0.09-0.4-0.09c-0.28,0-0.51,0.11-0.69,0.32
		c-0.18,0.21-0.27,0.5-0.27,0.85v1.89h-0.7v-2.79c0-0.09,0-0.22-0.01-0.37c-0.01-0.15-0.01-0.28-0.02-0.4H43.63z"/>
	<path class="st0" d="M51.44,200.15c0-0.26-0.08-0.46-0.24-0.59c-0.16-0.13-0.37-0.19-0.64-0.19c-0.2,0-0.39,0.04-0.57,0.12
		s-0.33,0.18-0.45,0.3l-0.37-0.45c0.17-0.17,0.39-0.29,0.64-0.39c0.25-0.09,0.52-0.14,0.81-0.14c0.25,0,0.48,0.04,0.66,0.11
		c0.19,0.07,0.34,0.17,0.46,0.3c0.12,0.12,0.21,0.27,0.27,0.44c0.06,0.17,0.09,0.35,0.09,0.55v1.55c0,0.12,0,0.25,0.01,0.38
		c0.01,0.13,0.02,0.24,0.04,0.33h-0.64c-0.04-0.17-0.06-0.34-0.06-0.51h-0.02c-0.13,0.19-0.29,0.34-0.49,0.44
		c-0.2,0.1-0.43,0.16-0.7,0.16c-0.14,0-0.29-0.02-0.44-0.06c-0.15-0.04-0.29-0.1-0.42-0.18s-0.23-0.2-0.31-0.34
		s-0.12-0.31-0.12-0.52c0-0.27,0.07-0.48,0.22-0.64c0.15-0.16,0.33-0.28,0.57-0.36c0.23-0.08,0.5-0.14,0.79-0.16
		c0.29-0.02,0.59-0.04,0.89-0.04V200.15z M51.26,200.75c-0.18,0-0.36,0.01-0.54,0.02c-0.19,0.01-0.36,0.04-0.51,0.09
		s-0.28,0.11-0.38,0.2s-0.15,0.21-0.15,0.36c0,0.11,0.02,0.19,0.06,0.26s0.1,0.13,0.17,0.17s0.15,0.08,0.23,0.09
		c0.08,0.02,0.17,0.03,0.26,0.03c0.33,0,0.58-0.1,0.76-0.3c0.18-0.2,0.27-0.45,0.27-0.75v-0.19H51.26z"/>
	<path class="st0" d="M53.92,198.9c0.01,0.09,0.02,0.19,0.02,0.3c0,0.11,0.01,0.21,0.01,0.28h0.02c0.04-0.09,0.11-0.18,0.18-0.27
		c0.08-0.08,0.17-0.16,0.27-0.22c0.1-0.06,0.21-0.11,0.33-0.15c0.12-0.04,0.24-0.05,0.38-0.05c0.23,0,0.43,0.04,0.59,0.12
		s0.3,0.18,0.41,0.31s0.19,0.28,0.24,0.46c0.05,0.18,0.08,0.36,0.08,0.56v2.2h-0.7v-1.97c0-0.14-0.01-0.28-0.03-0.41
		s-0.06-0.25-0.12-0.34s-0.14-0.18-0.25-0.24c-0.1-0.06-0.24-0.09-0.4-0.09c-0.28,0-0.51,0.11-0.69,0.32
		c-0.18,0.21-0.27,0.5-0.27,0.85v1.89h-0.7v-2.79c0-0.09,0-0.22-0.01-0.37c-0.01-0.15-0.01-0.28-0.02-0.4H53.92z"/>
	<path class="st0" d="M60.48,201.89c-0.13,0.21-0.32,0.38-0.55,0.49c-0.23,0.11-0.48,0.17-0.73,0.17c-0.27,0-0.52-0.05-0.74-0.15
		c-0.22-0.1-0.41-0.23-0.56-0.4c-0.16-0.17-0.27-0.37-0.36-0.6c-0.08-0.23-0.13-0.47-0.13-0.73s0.04-0.5,0.13-0.73
		c0.08-0.23,0.21-0.43,0.36-0.6c0.16-0.17,0.35-0.3,0.57-0.4s0.46-0.14,0.73-0.14c0.29,0,0.54,0.06,0.76,0.18s0.38,0.27,0.51,0.45
		h0.02v-2.65h0.7v5.67H60.5v-0.56H60.48z M58.14,200.67c0,0.16,0.02,0.32,0.08,0.48c0.05,0.15,0.12,0.29,0.22,0.41
		c0.1,0.12,0.22,0.22,0.37,0.29s0.31,0.11,0.51,0.11c0.18,0,0.34-0.04,0.49-0.11c0.15-0.07,0.27-0.16,0.38-0.28
		c0.1-0.12,0.19-0.25,0.24-0.41c0.06-0.15,0.09-0.32,0.09-0.49c0-0.17-0.03-0.33-0.09-0.49c-0.06-0.15-0.14-0.29-0.24-0.41
		c-0.1-0.12-0.23-0.21-0.38-0.28c-0.15-0.07-0.31-0.1-0.49-0.1c-0.19,0-0.36,0.04-0.51,0.1c-0.15,0.07-0.27,0.17-0.37,0.28
		c-0.1,0.12-0.17,0.26-0.22,0.41C58.17,200.34,58.14,200.5,58.14,200.67z"/>
	<path class="st0" d="M64.98,201.89v0.56h-0.68v-5.67H65v2.65h0.02c0.12-0.17,0.29-0.32,0.5-0.45s0.47-0.18,0.76-0.18
		c0.26,0,0.5,0.05,0.72,0.14s0.4,0.23,0.56,0.4c0.16,0.17,0.28,0.37,0.36,0.6c0.08,0.23,0.13,0.47,0.13,0.73s-0.04,0.5-0.13,0.73
		c-0.08,0.23-0.2,0.43-0.36,0.6c-0.15,0.17-0.34,0.3-0.56,0.4s-0.47,0.15-0.74,0.15c-0.25,0-0.5-0.06-0.73-0.17
		c-0.23-0.11-0.41-0.28-0.55-0.49H64.98z M67.34,200.67c0-0.17-0.03-0.32-0.08-0.48s-0.12-0.29-0.22-0.41
		c-0.1-0.12-0.22-0.21-0.37-0.28c-0.15-0.07-0.32-0.1-0.51-0.1c-0.18,0-0.34,0.04-0.49,0.1c-0.15,0.07-0.27,0.17-0.38,0.28
		c-0.1,0.12-0.19,0.26-0.24,0.41c-0.06,0.15-0.09,0.32-0.09,0.49c0,0.17,0.03,0.33,0.09,0.49c0.06,0.15,0.14,0.29,0.24,0.41
		c0.1,0.12,0.23,0.21,0.38,0.28c0.15,0.07,0.31,0.11,0.49,0.11c0.19,0,0.37-0.04,0.51-0.11s0.27-0.17,0.37-0.29
		c0.1-0.12,0.17-0.26,0.22-0.41S67.34,200.83,67.34,200.67z"/>
	<path class="st0" d="M71.55,202.45c-0.01-0.09-0.02-0.19-0.02-0.3s-0.01-0.21-0.01-0.28H71.5c-0.09,0.19-0.24,0.35-0.45,0.48
		c-0.21,0.13-0.45,0.2-0.71,0.2c-0.23,0-0.43-0.04-0.6-0.11c-0.17-0.08-0.3-0.18-0.41-0.31c-0.11-0.13-0.19-0.29-0.24-0.46
		c-0.05-0.17-0.08-0.36-0.08-0.56v-2.2h0.7v1.96c0,0.15,0.01,0.28,0.03,0.42c0.02,0.13,0.06,0.25,0.12,0.35
		c0.06,0.1,0.14,0.18,0.25,0.24c0.1,0.06,0.24,0.09,0.4,0.09c0.28,0,0.51-0.11,0.69-0.32c0.17-0.21,0.26-0.5,0.26-0.85v-1.89h0.7
		v2.79c0,0.1,0,0.22,0.01,0.37c0,0.15,0.01,0.28,0.02,0.4H71.55z"/>
	<path class="st0" d="M75.15,199.47H74.2v1.84c0,0.21,0.04,0.37,0.12,0.46c0.08,0.09,0.21,0.14,0.38,0.14
		c0.06,0,0.13-0.01,0.21-0.02c0.07-0.01,0.14-0.03,0.2-0.06l0.02,0.58c-0.08,0.03-0.18,0.05-0.28,0.07
		c-0.1,0.02-0.21,0.03-0.32,0.03c-0.33,0-0.59-0.09-0.77-0.28c-0.18-0.18-0.27-0.46-0.27-0.83v-1.93h-0.68v-0.58h0.68v-1.02h0.7
		v1.02h0.94V199.47z"/>
	<path class="st0" d="M77.5,199.47h-0.94v1.84c0,0.21,0.04,0.37,0.12,0.46c0.08,0.09,0.21,0.14,0.38,0.14
		c0.06,0,0.13-0.01,0.21-0.02c0.07-0.01,0.14-0.03,0.2-0.06l0.02,0.58c-0.08,0.03-0.18,0.05-0.28,0.07
		c-0.1,0.02-0.21,0.03-0.32,0.03c-0.33,0-0.59-0.09-0.77-0.28c-0.18-0.18-0.27-0.46-0.27-0.83v-1.93h-0.68v-0.58h0.68v-1.02h0.7
		v1.02h0.94V199.47z"/>
	<path class="st0" d="M81.82,200.67c0,0.27-0.05,0.53-0.15,0.76c-0.1,0.23-0.23,0.43-0.4,0.6c-0.17,0.17-0.38,0.3-0.61,0.39
		c-0.23,0.09-0.49,0.14-0.76,0.14c-0.27,0-0.52-0.05-0.76-0.14c-0.23-0.09-0.44-0.22-0.61-0.39c-0.17-0.17-0.3-0.37-0.4-0.6
		c-0.1-0.23-0.15-0.48-0.15-0.76c0-0.28,0.05-0.53,0.15-0.75c0.1-0.23,0.23-0.42,0.4-0.59c0.17-0.17,0.37-0.29,0.61-0.39
		s0.49-0.14,0.76-0.14c0.27,0,0.52,0.05,0.76,0.14s0.44,0.22,0.61,0.39s0.31,0.36,0.4,0.59C81.77,200.14,81.82,200.39,81.82,200.67z
		 M81.09,200.67c0-0.17-0.03-0.33-0.08-0.49s-0.13-0.29-0.23-0.41c-0.1-0.12-0.22-0.21-0.37-0.28c-0.15-0.07-0.32-0.1-0.51-0.1
		s-0.36,0.04-0.51,0.1c-0.15,0.07-0.27,0.16-0.37,0.28s-0.18,0.25-0.23,0.41s-0.08,0.32-0.08,0.49c0,0.17,0.03,0.33,0.08,0.49
		s0.13,0.29,0.23,0.41c0.1,0.12,0.22,0.21,0.37,0.28c0.15,0.07,0.32,0.11,0.51,0.11s0.36-0.04,0.51-0.11
		c0.15-0.07,0.27-0.16,0.37-0.28c0.1-0.12,0.18-0.26,0.23-0.41S81.09,200.84,81.09,200.67z"/>
	<path class="st0" d="M85.28,199.8c-0.07-0.12-0.19-0.21-0.34-0.29s-0.31-0.12-0.48-0.12c-0.19,0-0.35,0.04-0.49,0.11
		c-0.14,0.07-0.26,0.16-0.36,0.28c-0.1,0.12-0.18,0.25-0.23,0.41c-0.05,0.15-0.08,0.32-0.08,0.49s0.03,0.33,0.08,0.49
		c0.05,0.16,0.13,0.29,0.23,0.41c0.1,0.12,0.22,0.21,0.37,0.28c0.15,0.07,0.31,0.11,0.49,0.11c0.18,0,0.34-0.04,0.49-0.11
		c0.15-0.07,0.27-0.17,0.36-0.28l0.47,0.43c-0.15,0.17-0.34,0.31-0.56,0.41c-0.22,0.1-0.48,0.15-0.76,0.15
		c-0.27,0-0.53-0.04-0.76-0.13s-0.43-0.22-0.6-0.38c-0.17-0.16-0.3-0.36-0.4-0.59c-0.1-0.23-0.15-0.49-0.15-0.77
		c0-0.28,0.05-0.53,0.14-0.76c0.09-0.23,0.23-0.43,0.4-0.59c0.17-0.16,0.37-0.29,0.6-0.38s0.48-0.13,0.75-0.13
		c0.25,0,0.5,0.05,0.75,0.15c0.25,0.1,0.44,0.25,0.59,0.43L85.28,199.8z"/>
	<path class="st0" d="M87.22,200.44h0.02l1.49-1.54h0.94l-1.66,1.61l1.81,1.94h-0.97l-1.6-1.84h-0.02v1.84h-0.7v-5.67h0.7V200.44z"
		/>
	<path class="st0" d="M92.32,199.8c-0.08-0.13-0.19-0.24-0.34-0.32c-0.14-0.08-0.31-0.12-0.49-0.12c-0.08,0-0.16,0.01-0.24,0.03
		c-0.08,0.02-0.15,0.04-0.21,0.08s-0.11,0.08-0.15,0.14c-0.04,0.06-0.06,0.13-0.06,0.21c0,0.15,0.07,0.26,0.2,0.33
		c0.13,0.07,0.34,0.14,0.61,0.2c0.17,0.04,0.33,0.09,0.47,0.14c0.14,0.06,0.27,0.12,0.38,0.21c0.11,0.08,0.19,0.18,0.25,0.3
		c0.06,0.12,0.09,0.25,0.09,0.41c0,0.21-0.04,0.39-0.12,0.53c-0.08,0.14-0.19,0.26-0.32,0.36s-0.28,0.16-0.45,0.2
		c-0.17,0.04-0.34,0.06-0.52,0.06c-0.27,0-0.53-0.05-0.79-0.16c-0.26-0.11-0.47-0.26-0.64-0.48l0.5-0.43
		c0.1,0.14,0.23,0.26,0.39,0.35s0.35,0.14,0.55,0.14c0.09,0,0.18-0.01,0.26-0.03c0.08-0.02,0.16-0.05,0.22-0.09
		c0.07-0.04,0.12-0.09,0.16-0.16c0.04-0.06,0.06-0.15,0.06-0.25c0-0.17-0.08-0.29-0.24-0.37c-0.16-0.08-0.39-0.15-0.69-0.22
		c-0.12-0.03-0.24-0.07-0.36-0.11c-0.12-0.04-0.23-0.1-0.33-0.18c-0.1-0.07-0.18-0.17-0.24-0.28c-0.06-0.11-0.09-0.25-0.09-0.42
		c0-0.19,0.04-0.35,0.12-0.49c0.08-0.14,0.18-0.25,0.3-0.34c0.12-0.09,0.27-0.15,0.43-0.2c0.16-0.04,0.32-0.06,0.49-0.06
		c0.25,0,0.5,0.05,0.74,0.15c0.24,0.1,0.42,0.25,0.55,0.43L92.32,199.8z"/>
	<path class="st0" d="M94.6,202c0,0.13-0.05,0.24-0.14,0.34c-0.1,0.1-0.21,0.15-0.36,0.15c-0.14,0-0.26-0.05-0.36-0.15
		c-0.1-0.1-0.15-0.21-0.15-0.34c0-0.13,0.05-0.25,0.14-0.35c0.1-0.1,0.21-0.15,0.36-0.15s0.26,0.05,0.36,0.14
		C94.55,201.75,94.6,201.86,94.6,202z"/>
	<path class="st0" d="M98.11,202.45h-0.74v-5.31h1.7c0.25,0,0.5,0.03,0.73,0.08c0.23,0.05,0.43,0.14,0.6,0.25
		c0.17,0.11,0.31,0.27,0.41,0.45s0.15,0.42,0.15,0.69c0,0.39-0.12,0.7-0.36,0.94c-0.24,0.24-0.55,0.39-0.93,0.46l1.48,2.44h-0.9
		l-1.35-2.36h-0.79V202.45z M98.11,199.47h0.85c0.17,0,0.34-0.01,0.49-0.04s0.28-0.08,0.39-0.15s0.2-0.15,0.27-0.26
		s0.1-0.24,0.1-0.4s-0.03-0.29-0.1-0.4s-0.15-0.19-0.26-0.26c-0.11-0.07-0.23-0.11-0.38-0.14c-0.14-0.03-0.3-0.04-0.46-0.04h-0.91
		V199.47z"/>
	<path class="st0" d="M105.16,200.64c0,0.04,0,0.08,0,0.12c0,0.04,0,0.08-0.01,0.12h-2.83c0,0.15,0.04,0.29,0.1,0.42
		c0.06,0.13,0.15,0.25,0.25,0.34s0.23,0.17,0.36,0.23c0.14,0.05,0.28,0.08,0.44,0.08c0.24,0,0.45-0.05,0.62-0.16
		c0.17-0.1,0.31-0.23,0.41-0.38l0.49,0.4c-0.19,0.25-0.41,0.44-0.67,0.56s-0.54,0.18-0.86,0.18c-0.27,0-0.52-0.04-0.75-0.13
		c-0.23-0.09-0.43-0.22-0.59-0.38s-0.29-0.36-0.39-0.59c-0.1-0.23-0.14-0.48-0.14-0.76c0-0.27,0.05-0.53,0.14-0.76
		c0.09-0.23,0.22-0.43,0.39-0.6c0.17-0.17,0.36-0.29,0.59-0.39c0.23-0.09,0.47-0.14,0.73-0.14s0.5,0.04,0.71,0.13
		c0.21,0.08,0.39,0.21,0.54,0.37c0.15,0.16,0.26,0.35,0.34,0.58S105.16,200.36,105.16,200.64z M104.44,200.36
		c-0.01-0.14-0.03-0.27-0.07-0.39c-0.04-0.12-0.1-0.23-0.19-0.32s-0.19-0.16-0.31-0.21c-0.12-0.05-0.27-0.08-0.43-0.08
		c-0.15,0-0.29,0.03-0.42,0.08c-0.13,0.05-0.25,0.12-0.34,0.21c-0.1,0.09-0.18,0.2-0.24,0.32c-0.06,0.12-0.1,0.25-0.11,0.39H104.44z
		"/>
	<path class="st0" d="M108.05,199.8c-0.08-0.13-0.19-0.24-0.34-0.32c-0.14-0.08-0.31-0.12-0.49-0.12c-0.08,0-0.16,0.01-0.24,0.03
		c-0.08,0.02-0.15,0.04-0.21,0.08s-0.11,0.08-0.15,0.14c-0.04,0.06-0.06,0.13-0.06,0.21c0,0.15,0.07,0.26,0.2,0.33
		c0.13,0.07,0.34,0.14,0.61,0.2c0.17,0.04,0.33,0.09,0.47,0.14c0.14,0.06,0.27,0.12,0.38,0.21c0.11,0.08,0.19,0.18,0.25,0.3
		c0.06,0.12,0.09,0.25,0.09,0.41c0,0.21-0.04,0.39-0.12,0.53c-0.08,0.14-0.19,0.26-0.32,0.36s-0.28,0.16-0.45,0.2
		c-0.17,0.04-0.34,0.06-0.52,0.06c-0.27,0-0.53-0.05-0.79-0.16c-0.26-0.11-0.47-0.26-0.64-0.48l0.5-0.43
		c0.1,0.14,0.23,0.26,0.39,0.35s0.35,0.14,0.55,0.14c0.09,0,0.18-0.01,0.26-0.03c0.08-0.02,0.16-0.05,0.22-0.09
		c0.07-0.04,0.12-0.09,0.16-0.16c0.04-0.06,0.06-0.15,0.06-0.25c0-0.17-0.08-0.29-0.24-0.37c-0.16-0.08-0.39-0.15-0.69-0.22
		c-0.12-0.03-0.24-0.07-0.36-0.11c-0.12-0.04-0.23-0.1-0.33-0.18c-0.1-0.07-0.18-0.17-0.24-0.28c-0.06-0.11-0.09-0.25-0.09-0.42
		c0-0.19,0.04-0.35,0.12-0.49c0.08-0.14,0.18-0.25,0.3-0.34c0.12-0.09,0.27-0.15,0.43-0.2c0.16-0.04,0.32-0.06,0.49-0.06
		c0.25,0,0.5,0.05,0.74,0.15c0.24,0.1,0.42,0.25,0.55,0.43L108.05,199.8z"/>
	<path class="st0" d="M111.96,202.45c-0.01-0.09-0.02-0.19-0.02-0.3s-0.01-0.21-0.01-0.28h-0.02c-0.09,0.19-0.24,0.35-0.45,0.48
		c-0.21,0.13-0.45,0.2-0.71,0.2c-0.23,0-0.43-0.04-0.6-0.11c-0.17-0.08-0.3-0.18-0.41-0.31c-0.11-0.13-0.19-0.29-0.24-0.46
		c-0.05-0.17-0.08-0.36-0.08-0.56v-2.2h0.7v1.96c0,0.15,0.01,0.28,0.03,0.42c0.02,0.13,0.06,0.25,0.12,0.35
		c0.06,0.1,0.14,0.18,0.25,0.24c0.1,0.06,0.24,0.09,0.4,0.09c0.28,0,0.51-0.11,0.69-0.32c0.17-0.21,0.26-0.5,0.26-0.85v-1.89h0.7
		v2.79c0,0.1,0,0.22,0.01,0.37c0,0.15,0.01,0.28,0.02,0.4H111.96z"/>
	<path class="st0" d="M114.54,202.45h-0.7v-5.67h0.7V202.45z"/>
	<path class="st0" d="M117.51,199.47h-0.94v1.84c0,0.21,0.04,0.37,0.12,0.46c0.08,0.09,0.21,0.14,0.38,0.14
		c0.06,0,0.13-0.01,0.21-0.02c0.07-0.01,0.14-0.03,0.2-0.06l0.02,0.58c-0.08,0.03-0.18,0.05-0.28,0.07
		c-0.1,0.02-0.21,0.03-0.32,0.03c-0.33,0-0.59-0.09-0.77-0.28c-0.18-0.18-0.27-0.46-0.27-0.83v-1.93h-0.68v-0.58h0.68v-1.02h0.7
		v1.02h0.94V199.47z"/>
	<path class="st0" d="M120.15,199.8c-0.08-0.13-0.19-0.24-0.34-0.32c-0.14-0.08-0.31-0.12-0.49-0.12c-0.08,0-0.16,0.01-0.24,0.03
		c-0.08,0.02-0.15,0.04-0.21,0.08s-0.11,0.08-0.15,0.14c-0.04,0.06-0.06,0.13-0.06,0.21c0,0.15,0.07,0.26,0.2,0.33
		c0.13,0.07,0.34,0.14,0.61,0.2c0.17,0.04,0.33,0.09,0.47,0.14c0.14,0.06,0.27,0.12,0.38,0.21c0.11,0.08,0.19,0.18,0.25,0.3
		c0.06,0.12,0.09,0.25,0.09,0.41c0,0.21-0.04,0.39-0.12,0.53c-0.08,0.14-0.19,0.26-0.32,0.36s-0.28,0.16-0.45,0.2
		c-0.17,0.04-0.34,0.06-0.52,0.06c-0.27,0-0.53-0.05-0.79-0.16c-0.26-0.11-0.47-0.26-0.64-0.48l0.5-0.43
		c0.1,0.14,0.23,0.26,0.39,0.35s0.35,0.14,0.55,0.14c0.09,0,0.18-0.01,0.26-0.03c0.08-0.02,0.16-0.05,0.22-0.09
		c0.07-0.04,0.12-0.09,0.16-0.16c0.04-0.06,0.06-0.15,0.06-0.25c0-0.17-0.08-0.29-0.24-0.37c-0.16-0.08-0.39-0.15-0.69-0.22
		c-0.12-0.03-0.24-0.07-0.36-0.11c-0.12-0.04-0.23-0.1-0.33-0.18c-0.1-0.07-0.18-0.17-0.24-0.28c-0.06-0.11-0.09-0.25-0.09-0.42
		c0-0.19,0.04-0.35,0.12-0.49c0.08-0.14,0.18-0.25,0.3-0.34c0.12-0.09,0.27-0.15,0.43-0.2c0.16-0.04,0.32-0.06,0.49-0.06
		c0.25,0,0.5,0.05,0.74,0.15c0.24,0.1,0.42,0.25,0.55,0.43L120.15,199.8z"/>
	<path class="st0" d="M124.55,199c0.2-0.13,0.43-0.2,0.7-0.2c0.24,0,0.46,0.05,0.65,0.17c0.19,0.11,0.34,0.29,0.45,0.55
		c0.12-0.23,0.29-0.41,0.5-0.53s0.45-0.18,0.7-0.18c0.23,0,0.43,0.04,0.59,0.12s0.3,0.18,0.41,0.31s0.19,0.28,0.24,0.46
		c0.05,0.18,0.08,0.36,0.08,0.56v2.2h-0.7v-1.97c0-0.14-0.01-0.28-0.04-0.41c-0.03-0.13-0.07-0.25-0.13-0.34
		c-0.06-0.1-0.14-0.18-0.24-0.24c-0.1-0.06-0.23-0.09-0.38-0.09c-0.16,0-0.3,0.03-0.41,0.1c-0.12,0.07-0.21,0.15-0.28,0.26
		s-0.12,0.23-0.16,0.36c-0.03,0.13-0.05,0.27-0.05,0.41v1.92h-0.7v-2.11c0-0.14-0.01-0.27-0.04-0.38c-0.03-0.12-0.07-0.21-0.13-0.3
		c-0.06-0.08-0.14-0.15-0.23-0.2c-0.09-0.05-0.21-0.07-0.35-0.07c-0.26,0-0.48,0.11-0.65,0.32c-0.17,0.21-0.26,0.5-0.26,0.85v1.89
		h-0.7v-2.79c0-0.09,0-0.22-0.01-0.37c-0.01-0.15-0.01-0.28-0.02-0.4h0.67c0.01,0.09,0.02,0.19,0.02,0.3c0,0.11,0.01,0.21,0.01,0.28
		h0.02C124.21,199.29,124.36,199.13,124.55,199z"/>
	<path class="st0" d="M132.29,200.15c0-0.26-0.08-0.46-0.24-0.59c-0.16-0.13-0.37-0.19-0.64-0.19c-0.2,0-0.39,0.04-0.57,0.12
		s-0.33,0.18-0.45,0.3l-0.37-0.45c0.17-0.17,0.39-0.29,0.64-0.39c0.25-0.09,0.52-0.14,0.81-0.14c0.25,0,0.48,0.04,0.66,0.11
		c0.19,0.07,0.34,0.17,0.46,0.3c0.12,0.12,0.21,0.27,0.27,0.44c0.06,0.17,0.09,0.35,0.09,0.55v1.55c0,0.12,0,0.25,0.01,0.38
		c0.01,0.13,0.02,0.24,0.04,0.33h-0.64c-0.04-0.17-0.06-0.34-0.06-0.51h-0.02c-0.13,0.19-0.29,0.34-0.49,0.44
		c-0.2,0.1-0.43,0.16-0.7,0.16c-0.14,0-0.29-0.02-0.44-0.06c-0.15-0.04-0.29-0.1-0.42-0.18s-0.23-0.2-0.31-0.34
		s-0.12-0.31-0.12-0.52c0-0.27,0.07-0.48,0.22-0.64c0.15-0.16,0.33-0.28,0.57-0.36c0.23-0.08,0.5-0.14,0.79-0.16
		c0.29-0.02,0.59-0.04,0.89-0.04V200.15z M132.12,200.75c-0.18,0-0.36,0.01-0.54,0.02c-0.19,0.01-0.36,0.04-0.51,0.09
		s-0.28,0.11-0.38,0.2s-0.15,0.21-0.15,0.36c0,0.11,0.02,0.19,0.06,0.26s0.1,0.13,0.17,0.17s0.15,0.08,0.23,0.09
		c0.08,0.02,0.17,0.03,0.26,0.03c0.33,0,0.58-0.1,0.76-0.3c0.18-0.2,0.27-0.45,0.27-0.75v-0.19H132.12z"/>
	<path class="st0" d="M135.49,201.68h0.01l0.98-2.79h0.75l-1.72,4.39c-0.06,0.15-0.12,0.28-0.19,0.4c-0.07,0.12-0.15,0.22-0.25,0.3
		s-0.21,0.15-0.33,0.19s-0.28,0.07-0.45,0.07c-0.08,0-0.15,0-0.23-0.01c-0.08-0.01-0.16-0.02-0.24-0.04l0.07-0.62
		c0.12,0.04,0.24,0.06,0.35,0.06c0.18,0,0.32-0.05,0.41-0.15s0.17-0.25,0.25-0.44l0.23-0.59l-1.52-3.55h0.79L135.49,201.68z"/>
	<path class="st0" d="M141.46,202.45h-0.76l-1.45-3.55h0.78l1.04,2.79h0.01l1.05-2.79h0.75L141.46,202.45z"/>
	<path class="st0" d="M145.78,200.15c0-0.26-0.08-0.46-0.24-0.59c-0.16-0.13-0.37-0.19-0.64-0.19c-0.2,0-0.39,0.04-0.57,0.12
		s-0.33,0.18-0.45,0.3l-0.37-0.45c0.17-0.17,0.39-0.29,0.64-0.39c0.25-0.09,0.52-0.14,0.81-0.14c0.25,0,0.48,0.04,0.66,0.11
		c0.19,0.07,0.34,0.17,0.46,0.3c0.12,0.12,0.21,0.27,0.27,0.44c0.06,0.17,0.09,0.35,0.09,0.55v1.55c0,0.12,0,0.25,0.01,0.38
		c0.01,0.13,0.02,0.24,0.04,0.33h-0.64c-0.04-0.17-0.06-0.34-0.06-0.51h-0.02c-0.13,0.19-0.29,0.34-0.49,0.44
		c-0.2,0.1-0.43,0.16-0.7,0.16c-0.14,0-0.29-0.02-0.44-0.06c-0.15-0.04-0.29-0.1-0.42-0.18s-0.23-0.2-0.31-0.34
		s-0.12-0.31-0.12-0.52c0-0.27,0.07-0.48,0.22-0.64c0.15-0.16,0.33-0.28,0.57-0.36c0.23-0.08,0.5-0.14,0.79-0.16
		c0.29-0.02,0.59-0.04,0.89-0.04V200.15z M145.61,200.75c-0.18,0-0.36,0.01-0.54,0.02c-0.19,0.01-0.36,0.04-0.51,0.09
		s-0.28,0.11-0.38,0.2s-0.15,0.21-0.15,0.36c0,0.11,0.02,0.19,0.06,0.26s0.1,0.13,0.17,0.17s0.15,0.08,0.23,0.09
		c0.08,0.02,0.17,0.03,0.26,0.03c0.33,0,0.58-0.1,0.76-0.3c0.18-0.2,0.27-0.45,0.27-0.75v-0.19H145.61z"/>
	<path class="st0" d="M147.62,199.29c-0.01-0.15-0.01-0.28-0.02-0.4h0.67c0.01,0.09,0.02,0.19,0.02,0.31c0,0.12,0.01,0.21,0.01,0.29
		h0.02c0.1-0.21,0.25-0.38,0.44-0.51c0.19-0.13,0.41-0.19,0.65-0.19c0.11,0,0.2,0.01,0.28,0.03l-0.03,0.65
		c-0.1-0.02-0.21-0.04-0.32-0.04c-0.17,0-0.32,0.03-0.44,0.09c-0.12,0.06-0.23,0.15-0.31,0.25c-0.08,0.1-0.14,0.23-0.18,0.36
		c-0.04,0.14-0.06,0.28-0.06,0.43v1.87h-0.7v-2.79C147.63,199.57,147.63,199.44,147.62,199.29z"/>
	<path class="st0" d="M151.69,201.68h0.01l0.98-2.79h0.75l-1.72,4.39c-0.06,0.15-0.12,0.28-0.19,0.4c-0.07,0.12-0.15,0.22-0.25,0.3
		s-0.21,0.15-0.33,0.19s-0.28,0.07-0.45,0.07c-0.08,0-0.15,0-0.23-0.01c-0.08-0.01-0.16-0.02-0.24-0.04l0.07-0.62
		c0.12,0.04,0.24,0.06,0.35,0.06c0.18,0,0.32-0.05,0.41-0.15s0.17-0.25,0.25-0.44l0.22-0.59l-1.52-3.55h0.79L151.69,201.68z"/>
	<path class="st0" d="M154.72,202c0,0.13-0.05,0.24-0.14,0.34c-0.09,0.1-0.21,0.15-0.36,0.15c-0.14,0-0.26-0.05-0.36-0.15
		c-0.1-0.1-0.15-0.21-0.15-0.34c0-0.13,0.05-0.25,0.14-0.35c0.09-0.1,0.21-0.15,0.36-0.15c0.14,0,0.26,0.05,0.36,0.14
		C154.67,201.75,154.72,201.86,154.72,202z"/>
</g>
</svg>
