<?xml version="1.0" encoding="utf-8"?>
<!-- Generator: Adobe Illustrator 25.2.1, SVG Export Plug-In . SVG Version: 6.00 Build 0)  -->
<svg version="1.1" id="Layer_1" xmlns="http://www.w3.org/2000/svg" xmlns:xlink="http://www.w3.org/1999/xlink" x="0px" y="0px"
	 viewBox="0 0 300 250" style="enable-background:new 0 0 300 250;" xml:space="preserve">
<style type="text/css">
	.st0{fill:#FFFFFF;}
</style>
<g>
	<g>
		<g>
			<g>
				<path class="st0" d="M40.11,49.31c-1.74,0-2.58-1.26-2.58-2.48c0-1.4,1.01-2.53,2.61-2.53c0.54,0,1.1,0.17,1.55,0.54l-0.49,0.69
					c-0.31-0.24-0.63-0.32-1.02-0.32c-0.85,0-1.48,0.59-1.48,1.6c0,0.92,0.58,1.66,1.51,1.66c0.39,0,0.74-0.12,1.04-0.38l0.45,0.69
					C41.26,49.14,40.67,49.31,40.11,49.31"/>
				<path class="st0" d="M44.38,49.31c-1.46,0-2.53-1.1-2.53-2.53c0-1.47,1.17-2.48,2.53-2.48c1.36,0,2.54,1,2.54,2.47
					C46.92,48.22,45.85,49.31,44.38,49.31 M45.75,46.79c0-0.88-0.43-1.65-1.37-1.65c-0.92,0-1.37,0.76-1.37,1.64
					c0,0.9,0.42,1.7,1.37,1.7C45.32,48.48,45.75,47.69,45.75,46.79L45.75,46.79z"/>
				<path class="st0" d="M49.88,49.31c-1.46,0-2.53-1.1-2.53-2.53c0-1.47,1.17-2.48,2.53-2.48c1.36,0,2.54,1,2.54,2.47
					C52.42,48.22,51.35,49.31,49.88,49.31 M51.25,46.79c0-0.88-0.43-1.65-1.37-1.65c-0.92,0-1.37,0.76-1.37,1.64
					c0,0.9,0.42,1.7,1.37,1.7C50.82,48.48,51.25,47.69,51.25,46.79L51.25,46.79z"/>
				<polygon class="st0" points="52.99,49.2 52.99,42.18 54.09,42.78 54.09,49.2 				"/>
				<path class="st0" d="M56.61,49.34c-1.23,0-1.82-0.59-1.82-0.59l0.49-0.64c0,0,0.56,0.37,1.3,0.37c0.35,0,0.65-0.25,0.65-0.49
					s-0.11-0.45-0.43-0.62c-0.33-0.17-0.69-0.34-0.98-0.48c-0.29-0.14-0.92-0.56-0.92-1.38c0-0.83,0.85-1.29,1.71-1.29
					c0.83,0,1.46,0.54,1.46,0.54l-0.42,0.65c0,0-0.47-0.33-1-0.33c-0.52,0-0.63,0.33-0.63,0.47c0,0.14,0.05,0.35,0.38,0.53
					c0.34,0.18,0.68,0.36,1.17,0.64c0.49,0.27,0.77,0.74,0.77,1.27S57.84,49.34,56.61,49.34"/>
				<path class="st0" d="M61.31,49.31c-1.74,0-2.58-1.26-2.58-2.48c0-1.4,1.01-2.53,2.61-2.53c0.54,0,1.1,0.17,1.55,0.54l-0.49,0.69
					c-0.31-0.24-0.63-0.32-1.03-0.32c-0.85,0-1.48,0.59-1.48,1.6c0,0.92,0.58,1.66,1.51,1.66c0.39,0,0.74-0.12,1.04-0.38l0.45,0.69
					C62.46,49.14,61.87,49.31,61.31,49.31"/>
				<path class="st0" d="M66.7,48.64c0,0-0.55,0.68-1.6,0.68c-1.23,0-1.83-0.89-1.83-1.79v-3.11h1.09v3.06
					c0,0.53,0.41,0.97,1.05,0.97c0.56,0,1.11-0.67,1.11-0.67v-3.36h1.09v4.77L66.7,48.64z"/>
				<polygon class="st0" points="68.6,49.2 68.6,42.18 69.69,42.78 69.69,49.2 				"/>
				<path class="st0" d="M73.31,49.31c-0.97,0-1.52-0.54-1.52-0.54v2.38h-1.1v-6.84l1.1,0.58c0,0,0.59-0.6,1.58-0.6
					c1.03,0,2.33,0.79,2.33,2.57C75.7,48.64,74.42,49.31,73.31,49.31 M73.24,45.14c-0.94,0-1.48,0.87-1.48,0.87v1.8
					c0,0,0.62,0.7,1.52,0.7c1.04,0,1.27-1.24,1.27-1.68C74.55,46.4,74.45,45.14,73.24,45.14"/>
				<path class="st0" d="M78.57,49.32h-0.69c-0.87,0-1.16-0.83-1.16-1.38v-2.81h-0.87v-0.72h0.87v-2.11h1.08v2.11h1.11v0.72h-1.1
					v2.55c0,0.28-0.05,0.73,0.43,0.73h0.79L78.57,49.32z"/>
				<path class="st0" d="M80.33,43.59c-0.39,0-0.72-0.32-0.72-0.72c0-0.39,0.33-0.71,0.72-0.71s0.72,0.32,0.72,0.71
					C81.05,43.27,80.72,43.59,80.33,43.59 M79.78,44.42h1.07v4.78h-1.07V44.42z"/>
				<path class="st0" d="M85.2,49.2v-3.06c0-0.53-0.41-0.97-1.05-0.97c-0.56,0-1.19,0.67-1.19,0.67v3.36h-1.09v-4.77l0.93,0.55
					c0,0,0.63-0.68,1.68-0.68c1.23,0,1.83,0.89,1.83,1.79v3.11H85.2z"/>
				<path class="st0" d="M89.63,51.42c-0.17,0-1.45-0.02-1.45-0.02l0.02-0.87h1.08c1.04,0,1.64-0.56,1.64-1.32v-0.43
					c0,0-0.57,0.54-1.54,0.54c-1.11,0-2.38-0.68-2.38-2.45c0-1.77,1.29-2.57,2.33-2.57c0.99,0,1.58,0.6,1.58,0.6l1.1-0.55v4.75
					C91.99,50.38,91.14,51.42,89.63,51.42 M90.92,46.01c0,0-0.54-0.87-1.48-0.87c-1.21,0-1.31,1.26-1.31,1.69
					c0,0.43,0.23,1.68,1.27,1.68c0.9,0,1.52-0.7,1.52-0.7V46.01z"/>
				<polygon class="st0" points="26.46,47.02 24.44,49.03 26.91,49.95 29.85,47.02 				"/>
				<polygon class="st0" points="30.14,42.95 28.13,40.96 27.2,43.4 30.14,46.33 				"/>
				<polygon class="st0" points="33.78,43.69 36.47,44.39 34.23,46.62 30.84,46.62 				"/>
				<polygon class="st0" points="33.6,50.35 32.83,52.96 28.64,48.79 30.34,47.11 				"/>
				<g>
					<path class="st0" d="M93.63,44.74c0,0.28-0.23,0.51-0.52,0.51c-0.29,0-0.52-0.22-0.52-0.51c0-0.28,0.23-0.5,0.53-0.5
						C93.4,44.24,93.63,44.46,93.63,44.74z M92.72,44.74c0,0.22,0.17,0.4,0.4,0.4c0.22,0,0.39-0.18,0.39-0.4
						c0-0.22-0.17-0.41-0.39-0.41C92.89,44.34,92.72,44.52,92.72,44.74z M93.03,45h-0.12v-0.5c0.05-0.01,0.11-0.02,0.19-0.02
						c0.1,0,0.14,0.02,0.17,0.04c0.03,0.02,0.05,0.06,0.05,0.11c0,0.06-0.05,0.1-0.11,0.12v0.01c0.05,0.02,0.07,0.06,0.09,0.12
						c0.02,0.08,0.03,0.1,0.04,0.12h-0.12c-0.02-0.02-0.02-0.06-0.04-0.12c-0.01-0.05-0.04-0.08-0.11-0.08h-0.06V45z M93.03,44.72
						h0.06c0.07,0,0.12-0.02,0.12-0.07c0-0.05-0.03-0.08-0.11-0.08c-0.03,0-0.05,0-0.07,0.01V44.72z"/>
				</g>
			</g>
			<g>
				<polygon class="st0" points="27.74,52.82 27.74,49.7 28.35,49.08 30.13,50.85 30.13,51.45 				"/>
				<polygon class="st0" points="27.45,44.23 24.85,44.23 25.68,46.61 29.85,46.61 				"/>
				<polygon class="st0" points="36.2,49.41 33.24,49.41 30.84,47.02 35,47.02 				"/>
				<polygon class="st0" points="30.55,42.19 32.95,40.77 32.95,43.94 30.55,46.33 				"/>
				<g>
					<path class="st0" d="M34.77,50.52c0,0.2-0.16,0.35-0.36,0.35c-0.2,0-0.36-0.16-0.36-0.35c0-0.2,0.16-0.35,0.36-0.35
						C34.61,50.17,34.77,50.32,34.77,50.52z M34.13,50.52c0,0.16,0.12,0.28,0.27,0.28c0.15,0,0.27-0.12,0.27-0.28
						c0-0.16-0.12-0.28-0.27-0.28C34.25,50.24,34.13,50.36,34.13,50.52z M34.35,50.7h-0.08v-0.35c0.03,0,0.08-0.01,0.13-0.01
						c0.07,0,0.1,0.01,0.12,0.03c0.02,0.01,0.04,0.04,0.04,0.07c0,0.04-0.03,0.07-0.07,0.08v0c0.03,0.01,0.05,0.04,0.06,0.09
						c0.01,0.05,0.02,0.07,0.03,0.09h-0.09c-0.01-0.01-0.02-0.04-0.03-0.09c-0.01-0.04-0.03-0.05-0.07-0.05h-0.04V50.7z M34.35,50.5
						h0.04c0.05,0,0.08-0.01,0.08-0.05c0-0.03-0.02-0.05-0.07-0.05c-0.02,0-0.04,0-0.04,0V50.5z"/>
				</g>
			</g>
		</g>
	</g>
	<g>
		<path class="st0" d="M15.12,44.56h0.43v2.39h0.01c0.07-0.1,0.15-0.19,0.25-0.27c0.1-0.07,0.2-0.13,0.3-0.18
			c0.1-0.05,0.21-0.08,0.32-0.1c0.11-0.02,0.22-0.03,0.32-0.03c0.24,0,0.46,0.04,0.66,0.12c0.2,0.08,0.37,0.19,0.51,0.34
			c0.14,0.14,0.26,0.31,0.34,0.51c0.08,0.2,0.12,0.41,0.12,0.64c0,0.23-0.04,0.44-0.12,0.64c-0.08,0.2-0.19,0.37-0.34,0.51
			c-0.14,0.14-0.32,0.26-0.51,0.34c-0.2,0.08-0.42,0.12-0.66,0.12c-0.1,0-0.21-0.01-0.32-0.03c-0.11-0.02-0.22-0.06-0.32-0.1
			c-0.1-0.05-0.21-0.11-0.3-0.18c-0.1-0.07-0.18-0.16-0.25-0.27h-0.01v0.51h-0.43V44.56z M17.92,47.96c0-0.17-0.03-0.33-0.08-0.48
			c-0.05-0.15-0.13-0.28-0.23-0.38c-0.1-0.11-0.22-0.19-0.36-0.26c-0.14-0.06-0.3-0.09-0.48-0.09c-0.18,0-0.34,0.03-0.49,0.09
			c-0.15,0.06-0.28,0.15-0.39,0.26c-0.11,0.11-0.19,0.24-0.26,0.38c-0.06,0.15-0.09,0.31-0.09,0.48c0,0.17,0.03,0.33,0.09,0.48
			c0.06,0.15,0.15,0.28,0.26,0.38c0.11,0.11,0.24,0.19,0.39,0.26c0.15,0.06,0.31,0.09,0.49,0.09c0.18,0,0.34-0.03,0.48-0.09
			c0.14-0.06,0.26-0.15,0.36-0.26c0.1-0.11,0.18-0.24,0.23-0.38C17.89,48.29,17.92,48.13,17.92,47.96z"/>
		<path class="st0" d="M20.27,48.96l0.94-2.52h0.52l-1.53,3.85c-0.09,0.23-0.21,0.42-0.35,0.56c-0.14,0.14-0.35,0.21-0.61,0.21
			c-0.07,0-0.13,0-0.2-0.01c-0.07,0-0.13-0.02-0.2-0.04l0.05-0.42c0.09,0.05,0.2,0.07,0.33,0.07c0.15,0,0.27-0.05,0.36-0.14
			c0.09-0.1,0.16-0.23,0.23-0.4l0.22-0.59l-1.26-3.09h0.54L20.27,48.96z"/>
	</g>
	<g>
		<path class="st0" d="M23.66,35.08c-0.94,0.82-2.11,1.23-3.5,1.23c-1.81,0-3.24-0.59-4.28-1.76c-0.94-1.06-1.41-2.33-1.41-3.83
			c0-1.6,0.53-2.94,1.59-4.03c1.06-1.09,2.46-1.63,4.19-1.63c1.33,0,2.46,0.4,3.39,1.21l-1.09,1.52c-0.62-0.47-1.38-0.71-2.26-0.71
			c-0.96,0-1.73,0.32-2.34,0.97c-0.6,0.65-0.9,1.52-0.9,2.62c0,1.07,0.3,1.96,0.9,2.66c0.6,0.7,1.4,1.06,2.4,1.06
			c0.87,0,1.64-0.28,2.32-0.84L23.66,35.08z"/>
		<path class="st0" d="M34.96,30.6c0,1.63-0.53,2.99-1.6,4.07c-1.06,1.09-2.4,1.63-4.01,1.63c-1.61,0-2.94-0.54-4-1.63
			c-1.06-1.09-1.59-2.44-1.59-4.07c0-1.6,0.56-2.94,1.67-4.01c1.07-1.03,2.38-1.54,3.91-1.54c1.54,0,2.85,0.51,3.93,1.54
			C34.4,27.66,34.96,29,34.96,30.6z M32.38,30.6c0-1.04-0.25-1.9-0.74-2.57c-0.55-0.73-1.31-1.1-2.28-1.1s-1.72,0.37-2.26,1.1
			c-0.49,0.67-0.74,1.53-0.74,2.57c0,1.1,0.24,1.99,0.72,2.68c0.54,0.76,1.3,1.14,2.28,1.14c0.99,0,1.75-0.38,2.3-1.14
			C32.14,32.59,32.38,31.7,32.38,30.6z"/>
		<path class="st0" d="M46.98,30.6c0,1.63-0.53,2.99-1.6,4.07c-1.06,1.09-2.4,1.63-4.01,1.63c-1.61,0-2.94-0.54-4-1.63
			c-1.06-1.09-1.59-2.44-1.59-4.07c0-1.6,0.56-2.94,1.67-4.01c1.07-1.03,2.38-1.54,3.91-1.54c1.54,0,2.85,0.51,3.93,1.54
			C46.42,27.66,46.98,29,46.98,30.6z M44.39,30.6c0-1.04-0.25-1.9-0.74-2.57c-0.55-0.73-1.31-1.1-2.28-1.1s-1.72,0.37-2.26,1.1
			c-0.49,0.67-0.74,1.53-0.74,2.57c0,1.1,0.24,1.99,0.72,2.68c0.54,0.76,1.3,1.14,2.28,1.14c0.99,0,1.75-0.38,2.3-1.14
			C44.15,32.59,44.39,31.7,44.39,30.6z"/>
		<path class="st0" d="M50.67,36.06h-2.41V20.27l2.41,1.35V36.06z"/>
		<g>
			<g>
				<path class="st0" d="M69.09,30.6c0,1.63-0.53,2.99-1.6,4.07c-1.06,1.09-2.4,1.63-4.01,1.63c-1.61,0-2.94-0.54-4-1.63
					c-1.06-1.09-1.59-2.44-1.59-4.07c0-1.6,0.56-2.94,1.67-4.01c1.07-1.03,2.38-1.54,3.91-1.54c1.54,0,2.85,0.51,3.93,1.54
					C68.54,27.66,69.09,29,69.09,30.6z M66.51,30.6c0-1.04-0.25-1.9-0.74-2.57c-0.55-0.73-1.31-1.1-2.28-1.1
					c-0.97,0-1.72,0.37-2.26,1.1c-0.49,0.67-0.74,1.53-0.74,2.57c0,1.1,0.24,1.99,0.72,2.68c0.54,0.76,1.3,1.14,2.28,1.14
					c0.99,0,1.75-0.38,2.3-1.14C66.27,32.59,66.51,31.7,66.51,30.6z"/>
				<path class="st0" d="M80.07,36.06h-2.41v-6.86c0-0.62-0.21-1.13-0.64-1.55c-0.43-0.42-0.99-0.63-1.68-0.63
					c-0.77,0-1.64,0.5-2.63,1.5v7.55h-2.41V25.32l2.04,1.24c1.04-1.01,2.27-1.52,3.69-1.52c1.27,0,2.29,0.42,3.04,1.26
					c0.67,0.75,1,1.68,1,2.78V36.06z"/>
				<path class="st0" d="M91.84,31.18h-7.71c0.29,2.19,1.32,3.29,3.09,3.29c1.09,0,1.98-0.31,2.67-0.93l0.96,1.57
					c-0.93,0.85-2.16,1.28-3.69,1.28c-2.13,0-3.69-0.8-4.67-2.4c-0.61-0.99-0.91-2-0.91-3.04c0-1.28,0.25-2.39,0.74-3.33
					c0.88-1.72,2.46-2.58,4.71-2.58c2.23,0,3.7,1.02,4.41,3.07C91.73,28.96,91.87,29.99,91.84,31.18z M89.41,29.6
					c-0.09-1.9-0.9-2.85-2.43-2.85c-1.7,0-2.63,0.95-2.8,2.85H89.41z"/>
				<path class="st0" d="M55.88,34.29c-0.46,0-0.75-0.2-0.87-0.6c-0.06-0.16-0.09-0.51-0.09-1.06v-4.48h1.68v-1.61h-1.68v-2.57
					l-2.41-1.35v10.59c0,0.76,0.19,1.43,0.56,2.01c0.46,0.74,1.13,1.1,2,1.1h1.52l1.02-2.05H55.88z"/>
			</g>
		</g>
		<g>
			<path class="st0" d="M94.61,26.18c0,0.64-0.52,1.14-1.17,1.14c-0.65,0-1.18-0.51-1.18-1.14c0-0.64,0.52-1.13,1.18-1.13
				C94.09,25.05,94.61,25.54,94.61,26.18z M92.56,26.18c0,0.5,0.38,0.91,0.89,0.91c0.49,0.01,0.87-0.4,0.87-0.9
				c0-0.5-0.38-0.91-0.88-0.91C92.94,25.27,92.56,25.68,92.56,26.18z M93.26,26.77H93v-1.13c0.1-0.01,0.25-0.03,0.44-0.03
				c0.22,0,0.31,0.03,0.39,0.09c0.07,0.05,0.12,0.13,0.12,0.24c0,0.14-0.1,0.23-0.24,0.27v0.01c0.11,0.03,0.17,0.12,0.2,0.28
				c0.03,0.17,0.06,0.23,0.08,0.28h-0.28c-0.04-0.04-0.06-0.14-0.09-0.28c-0.02-0.12-0.09-0.17-0.24-0.17h-0.12V26.77z M93.27,26.13
				h0.12c0.15,0,0.26-0.05,0.26-0.17c0-0.1-0.08-0.17-0.24-0.17c-0.07,0-0.12,0.01-0.15,0.01V26.13z"/>
		</g>
	</g>
</g>
</svg>
