<?xml version="1.0" encoding="utf-8"?>
<!-- Generator: Adobe Illustrator 25.4.1, SVG Export Plug-In . SVG Version: 6.00 Build 0)  -->
<svg version="1.1" id="Layer_1" xmlns="http://www.w3.org/2000/svg" xmlns:xlink="http://www.w3.org/1999/xlink" x="0px" y="0px"
	 viewBox="0 0 600 500" style="enable-background:new 0 0 600 500;" xml:space="preserve">
<style type="text/css">
	.st0{fill:#EAF5FB;}
	.st1{fill:#002554;}
</style>
<rect x="175.46" y="253.42" class="st0" width="246.19" height="49.45"/>
<g>
	<path class="st1" d="M204.33,273.82v3.16h6.14v3h-6.14v5.73h-3.88v-14.89h11.58v3H204.33z"/>
	<path class="st1" d="M218.14,285.72h-3.88v-14.89h3.88V285.72z"/>
	<path class="st1" d="M234.86,285.72h-4.31l-4.63-8.06l-1.13-2.26h-0.02l0.09,2.8v7.51h-3.43v-14.89h4.31l4.63,8.06l1.13,2.26h0.02
		l-0.09-2.8v-7.51h3.43V285.72z"/>
	<path class="st1" d="M251.7,278.27c0,4.76-2.55,7.45-7.22,7.45h-6.32v-14.89h6.32C249.14,270.82,251.7,273.51,251.7,278.27z
		 M247.72,278.27c0-2.98-1.11-4.51-3.63-4.51h-2.05v9.03h2.05C246.62,282.78,247.72,281.25,247.72,278.27z"/>
	<path class="st1" d="M268.85,282.36h-5.15l-1.04,3.36h-3.9l5.24-14.89h4.65l5.21,14.89h-4L268.85,282.36z M268.03,279.71
		l-1.08-3.57l-0.65-2.35h-0.04l-0.61,2.33l-1.11,3.59H268.03z"/>
	<path class="st1" d="M294.14,275.77c0,3.05-2.05,4.78-5.75,4.78h-2.96v5.17h-3.88v-14.89h6.84
		C292.09,270.82,294.14,272.56,294.14,275.77z M290.24,275.72c0-1.31-0.75-1.96-2.46-1.96h-2.35v3.95h2.35
		C289.5,277.71,290.24,277.05,290.24,275.72z"/>
	<path class="st1" d="M302.77,280.28h-2.33v5.44h-3.81v-14.89h7.11c3.59,0,5.62,1.67,5.62,4.74c0,2.17-1.02,3.63-2.89,4.31
		l3.77,5.84h-4.29L302.77,280.28z M300.44,277.53h2.64c1.65,0,2.37-0.56,2.37-1.9c0-1.31-0.72-1.87-2.37-1.87h-2.64V277.53z"/>
	<path class="st1" d="M325.99,278.27c0,4.81-2.75,7.67-7.29,7.67s-7.31-2.87-7.31-7.67s2.78-7.67,7.31-7.67
		S325.99,273.46,325.99,278.27z M315.36,278.27c0,3.05,1.17,4.63,3.34,4.63c2.14,0,3.32-1.58,3.32-4.63s-1.17-4.63-3.32-4.63
		C316.53,273.64,315.36,275.22,315.36,278.27z"/>
	<path class="st1" d="M336.59,285.72h-4.56l-5.3-14.89h4.08l2.73,9l0.81,2.93l0.79-2.89l2.78-9.05h3.95L336.59,285.72z"/>
	<path class="st1" d="M347.54,285.72h-3.88v-14.89h3.88V285.72z"/>
	<path class="st1" d="M364.38,278.27c0,4.76-2.55,7.45-7.22,7.45h-6.32v-14.89h6.32C361.82,270.82,364.38,273.51,364.38,278.27z
		 M360.4,278.27c0-2.98-1.11-4.51-3.63-4.51h-2.05v9.03h2.05C359.3,282.78,360.4,281.25,360.4,278.27z"/>
	<path class="st1" d="M378.93,282.72v3h-11.89v-14.89h11.6v3h-7.72v3.02h6.14v2.82h-6.14v3.05H378.93z"/>
	<path class="st1" d="M387.42,280.28h-2.33v5.44h-3.81v-14.89h7.11c3.59,0,5.62,1.67,5.62,4.74c0,2.17-1.02,3.63-2.89,4.31
		l3.77,5.84h-4.29L387.42,280.28z M385.09,277.53h2.64c1.65,0,2.37-0.56,2.37-1.9c0-1.31-0.72-1.87-2.37-1.87h-2.64V277.53z"/>
</g>
</svg>
