<?xml version="1.0" encoding="utf-8"?>
<!-- Generator: Adobe Illustrator 25.2.1, SVG Export Plug-In . SVG Version: 6.00 Build 0)  -->
<svg version="1.1" id="Layer_1" xmlns="http://www.w3.org/2000/svg" xmlns:xlink="http://www.w3.org/1999/xlink" x="0px" y="0px"
	 viewBox="0 0 500 281" style="enable-background:new 0 0 500 281;" xml:space="preserve">
<style type="text/css">
	.st0{fill:#EAF5FB;}
</style>
<g>
	<path class="st0" d="M21.3,95.69v-4.84h2.32v4.4c0,2.28,0.64,3.2,2.24,3.2c1.64,0,2.28-0.92,2.28-3.2v-4.16
		c0-1.88-0.52-2.8-1.88-3.68l-2.12-1.36c-2.04-1.32-2.84-2.84-2.84-5.53v-3.56c0-3.04,1.64-4.76,4.48-4.76s4.48,1.72,4.48,4.76v3.56
		h-2.32v-3.16c0-2.16-0.6-3-2.12-3s-2.12,0.84-2.12,3v3c0,1.88,0.52,2.8,1.88,3.68l2.12,1.36c2.04,1.32,2.84,2.84,2.84,5.53v4.76
		c0,3.16-1.72,4.92-4.64,4.92S21.3,98.86,21.3,95.69z"/>
	<path class="st0" d="M37.19,74.67h-3.36v-2.08h9.13v2.08h-3.36v25.54h-2.4V74.67z"/>
	<path class="st0" d="M46.88,72.59h4.44c3.2,0,4.72,1.64,4.72,5v3.52c0,2.24-0.72,3.6-2.16,4.24v0.08c1.44,0.64,2.16,2,2.16,4.28
		v10.49h-2.4V89.89c0-2.56-0.72-3.32-3-3.32h-1.36v13.65h-2.4V72.59z M51.04,84.48c2,0,2.6-0.76,2.6-3.32V78
		c0-2.56-0.6-3.32-2.6-3.32h-1.76v9.81H51.04z"/>
	<path class="st0" d="M60.73,72.59h7.93v2.08h-5.53v9.65h4.8v2.08h-4.8v11.73h5.53v2.08h-7.93V72.59z"/>
	<path class="st0" d="M72.75,72.59h3.12l4.36,20.22h0.08V72.59h2.16v27.63h-2.6l-4.88-22.78h-0.08v22.78h-2.16V72.59z"/>
	<path class="st0" d="M87.2,96.29V77.16c0-3.16,1.72-4.96,4.6-4.96c2.92,0,4.56,1.8,4.56,4.96v3.04h-2.28v-2.6
		c0-2.32-0.64-3.24-2.24-3.24c-1.64,0-2.24,0.92-2.24,3.24v18.42c0,1.64,0.6,2.44,1.92,2.44c1.64,0,2.56-1.24,2.56-3.48v-7.93h-2.24
		v-2.08h4.64v15.25h-2.04v-1.96h-0.12c-0.64,1.52-1.8,2.36-3.44,2.36C88.56,100.62,87.2,98.98,87.2,96.29z"/>
	<path class="st0" d="M103.41,74.67h-3.36v-2.08h9.13v2.08h-3.36v25.54h-2.4V74.67z"/>
	<path class="st0" d="M113.1,72.59h2.4v11.73h4.52V72.59h2.4v27.63h-2.4V86.4h-4.52v13.81h-2.4V72.59z"/>
	<path class="st0" d="M127.32,72.59h7.93v2.08h-5.53v9.65h4.8v2.08h-4.8v11.73h5.53v2.08h-7.93V72.59z"/>
	<path class="st0" d="M139.33,72.59h3.12l4.36,20.22h0.08V72.59h2.16v27.63h-2.6l-4.88-22.78h-0.08v22.78h-2.16V72.59z"/>
	<path class="st0" d="M154.86,100.22h-0.96v-3.28h2.72v2.88l-1.76,4.44h-1.4L154.86,100.22z"/>
	<path class="st0" d="M170.72,74.67h-3.36v-2.08h9.13v2.08h-3.36v25.54h-2.4V74.67z"/>
	<path class="st0" d="M179.93,95.61V77.2c0-3.2,1.72-5,4.64-5s4.64,1.8,4.64,5v18.42c0,3.2-1.72,5-4.64,5S179.93,98.82,179.93,95.61
		z M186.81,95.21V77.6c0-2.32-0.64-3.24-2.24-3.24c-1.64,0-2.24,0.92-2.24,3.24v17.62c0,2.32,0.6,3.24,2.24,3.24
		C186.17,98.46,186.81,97.54,186.81,95.21z"/>
	<path class="st0" d="M193.94,72.59h3.12l4.36,20.22h0.08V72.59h2.16v27.63h-2.6l-4.88-22.78h-0.08v22.78h-2.16V72.59z"/>
	<path class="st0" d="M208.55,72.59h7.93v2.08h-5.53v9.65h4.8v2.08h-4.8v11.73h5.53v2.08h-7.93V72.59z"/>
	<path class="st0" d="M221.89,100.22h-0.96v-3.28h2.72v2.88l-1.76,4.44h-1.4L221.89,100.22z"/>
	<path class="st0" d="M25.9,111.63h3.16l3.48,27.63H30.1l-0.8-6.85h-3.76l-0.8,6.85h-2.32L25.9,111.63z M29.06,130.33l-1.6-14.89
		h-0.08l-1.6,14.89H29.06z"/>
	<path class="st0" d="M36.51,111.63h3.12L44,131.85h0.08v-20.22h2.16v27.63h-2.6l-4.88-22.78h-0.08v22.78h-2.16V111.63z"/>
	<path class="st0" d="M51.12,111.63h4.56c3.2,0,4.72,1.64,4.72,5v17.62c0,3.36-1.52,5-4.72,5h-4.56V111.63z M55.41,137.17
		c2,0,2.6-0.76,2.6-3.32v-16.82c0-2.56-0.6-3.32-2.6-3.32h-1.88v23.46H55.41z"/>
	<path class="st0" d="M71.9,111.63h7.93v2.08h-5.53v10.05h4.8v2.08h-4.8v13.41h-2.4V111.63z"/>
	<path class="st0" d="M83.76,111.63h2.4v27.63h-2.4V111.63z"/>
	<path class="st0" d="M91.04,111.63h4.44c3.2,0,4.72,1.64,4.72,5v3.52c0,2.24-0.72,3.6-2.16,4.24v0.08c1.44,0.64,2.16,2,2.16,4.28
		v10.49h-2.4v-10.33c0-2.56-0.72-3.32-3-3.32h-1.36v13.65h-2.4V111.63z M95.21,123.52c2,0,2.6-0.76,2.6-3.32v-3.16
		c0-2.56-0.6-3.32-2.6-3.32h-1.76v9.81H95.21z"/>
	<path class="st0" d="M104.9,111.63h3.8l3.08,20.38h0.08l3.08-20.38h3.96v27.63h-2.4v-24.7h-0.08l-3.72,24.7h-1.88l-3.72-24.7h-0.08
		v24.7h-2.12V111.63z"/>
	<path class="st0" d="M130.6,111.63h3.8l3.08,20.38h0.08l3.08-20.38h3.96v27.63h-2.4v-24.7h-0.08l-3.72,24.7h-1.88l-3.72-24.7h-0.08
		v24.7h-2.12V111.63z"/>
	<path class="st0" d="M149.42,134.81v-23.18h2.4v22.74c0,2.24,0.56,3.12,2.16,3.12s2.16-0.88,2.16-3.12v-22.74h2.32v23.18
		c0,3.08-1.68,4.84-4.52,4.84S149.42,137.89,149.42,134.81z"/>
	<path class="st0" d="M162.83,134.73v-4.84h2.32v4.4c0,2.28,0.64,3.2,2.24,3.2c1.64,0,2.28-0.92,2.28-3.2v-4.16
		c0-1.88-0.52-2.8-1.88-3.68l-2.12-1.36c-2.04-1.32-2.84-2.84-2.84-5.53v-3.56c0-3.04,1.64-4.76,4.48-4.76s4.48,1.72,4.48,4.76v3.56
		h-2.32v-3.16c0-2.16-0.6-3-2.12-3s-2.12,0.84-2.12,3v3c0,1.88,0.52,2.8,1.88,3.68l2.12,1.36c2.04,1.32,2.84,2.84,2.84,5.53v4.76
		c0,3.16-1.72,4.92-4.64,4.92S162.83,137.89,162.83,134.73z"/>
	<path class="st0" d="M176.28,134.89v-18.9c0-3.04,1.6-4.76,4.48-4.76c2.92,0,4.52,1.72,4.52,4.76v4.52h-2.28v-4.12
		c0-2.16-0.64-3-2.16-3c-1.56,0-2.16,0.84-2.16,3v18.1c0,2.16,0.6,3,2.16,3c1.52,0,2.16-0.84,2.16-3v-5.57h2.28v5.97
		c0,3.04-1.6,4.76-4.52,4.76C177.88,139.66,176.28,137.93,176.28,134.89z"/>
	<path class="st0" d="M189.74,111.63h2.4v25.54h5.12v2.08h-7.53V111.63z"/>
	<path class="st0" d="M201.19,111.63h7.93v2.08h-5.53v9.65h4.8v2.08h-4.8v11.73h5.53v2.08h-7.93V111.63z"/>
	<path class="st0" d="M212.84,134.73v-4.84h2.32v4.4c0,2.28,0.64,3.2,2.24,3.2c1.64,0,2.28-0.92,2.28-3.2v-4.16
		c0-1.88-0.52-2.8-1.88-3.68l-2.12-1.36c-2.04-1.32-2.84-2.84-2.84-5.53v-3.56c0-3.04,1.64-4.76,4.48-4.76s4.48,1.72,4.48,4.76v3.56
		h-2.32v-3.16c0-2.16-0.6-3-2.12-3s-2.12,0.84-2.12,3v3c0,1.88,0.52,2.8,1.88,3.68l2.12,1.36c2.04,1.32,2.84,2.84,2.84,5.53v4.76
		c0,3.16-1.72,4.92-4.64,4.92S212.84,137.89,212.84,134.73z"/>
	<path class="st0" d="M226.45,135.97h2.68v3.28h-2.68V135.97z"/>
</g>
</svg>
