<?xml version="1.0" encoding="utf-8"?>
<!-- Generator: Adobe Illustrator 25.2.1, SVG Export Plug-In . SVG Version: 6.00 Build 0)  -->
<svg version="1.1" id="Layer_1" xmlns="http://www.w3.org/2000/svg" xmlns:xlink="http://www.w3.org/1999/xlink" x="0px" y="0px"
	 viewBox="0 0 500 281" style="enable-background:new 0 0 500 281;" xml:space="preserve">
<style type="text/css">
	.st0{fill:#00A9E0;}
	.st1{fill:#FFFFFF;}
</style>
<rect x="21.57" y="156.9" class="st0" width="112.21" height="24.33"/>
<g>
	<path class="st1" d="M33.83,173.74v-8.35h2.03v6.59h3.23v1.76H33.83z"/>
	<path class="st1" d="M41.09,173.74v-8.35h5.61v1.71h-3.67v1.57h3.47v1.62h-3.47v1.73h3.88v1.72H41.09z"/>
	<path class="st1" d="M54.97,173.74l-0.65-1.64h-3.23l-0.61,1.64h-2.19l3.5-8.35h1.96l3.47,8.35H54.97z M52.73,167.62l-1.06,2.87
		h2.1L52.73,167.62z"/>
	<path class="st1" d="M63.44,173.74l-1.8-3.31h-0.68v3.31h-1.98v-8.35h3.19c1.6,0,3.2,0.61,3.2,2.52c0,1.12-0.66,1.92-1.73,2.25
		l2.18,3.57H63.44z M62.01,167.02h-1.07v1.95h0.96c0.65,0,1.46-0.17,1.46-1.01C63.35,167.17,62.61,167.02,62.01,167.02z"/>
	<path class="st1" d="M73.15,173.74l-3.36-5.46h-0.04l0.05,5.46h-1.96v-8.35h2.3l3.35,5.45h0.04l-0.05-5.45h1.96v8.35H73.15z"/>
	<path class="st1" d="M89.8,173.74l0.05-5.91h-0.04l-2.17,5.91h-1.42l-2.11-5.91h-0.04l0.05,5.91h-1.9v-8.35h2.87l1.9,5.35h0.05
		l1.82-5.35h2.91v8.35H89.8z"/>
	<path class="st1" d="M98.7,173.97c-2.61,0-4.54-1.79-4.54-4.43c0-2.68,1.93-4.36,4.54-4.36c2.62,0,4.55,1.69,4.55,4.36
		C103.25,172.17,101.32,173.97,98.7,173.97z M98.7,166.98c-1.42,0-2.38,1.08-2.38,2.55c0,1.51,0.98,2.59,2.38,2.59
		c1.4,0,2.39-1.08,2.39-2.59C101.09,168.07,100.11,166.98,98.7,166.98z"/>
	<path class="st1" d="M110.11,173.74l-1.8-3.31h-0.68v3.31h-1.98v-8.35h3.19c1.6,0,3.2,0.61,3.2,2.52c0,1.12-0.66,1.92-1.73,2.25
		l2.18,3.57H110.11z M108.69,167.02h-1.07v1.95h0.96c0.65,0,1.46-0.17,1.46-1.01C110.03,167.17,109.29,167.02,108.69,167.02z"/>
	<path class="st1" d="M114.52,173.74v-8.35h5.61v1.71h-3.67v1.57h3.47v1.62h-3.47v1.73h3.88v1.72H114.52z"/>
</g>
</svg>
