<?xml version="1.0" encoding="utf-8"?>
<!-- Generator: Adobe Illustrator 25.2.1, SVG Export Plug-In . SVG Version: 6.00 Build 0)  -->
<svg version="1.1" id="Layer_1" xmlns="http://www.w3.org/2000/svg" xmlns:xlink="http://www.w3.org/1999/xlink" x="0px" y="0px"
	 viewBox="0 0 500 281" style="enable-background:new 0 0 500 281;" xml:space="preserve">
<style type="text/css">
	.st0{fill:#FFFFFF;}
</style>
<g>
	<path class="st0" d="M22.03,222.2h-1.05l2.92-6.73h0.86l2.89,6.73h-1.06l-0.68-1.65h-3.2L22.03,222.2z M23.04,219.71h2.52
		l-1.26-3.16L23.04,219.71z"/>
	<path class="st0" d="M28.46,218.19c-0.01-0.19-0.02-0.36-0.03-0.5h0.85c0.01,0.11,0.02,0.25,0.03,0.4
		c0.01,0.15,0.01,0.27,0.01,0.37h0.03c0.13-0.27,0.31-0.48,0.56-0.64c0.24-0.16,0.52-0.24,0.82-0.24c0.14,0,0.26,0.01,0.35,0.04
		l-0.04,0.83c-0.13-0.03-0.26-0.05-0.41-0.05c-0.22,0-0.4,0.04-0.56,0.12c-0.16,0.08-0.29,0.19-0.39,0.32
		c-0.1,0.13-0.18,0.29-0.23,0.46c-0.05,0.17-0.08,0.36-0.08,0.55v2.37h-0.89v-3.54C28.47,218.54,28.47,218.38,28.46,218.19z"/>
	<path class="st0" d="M32.96,216.06c0,0.17-0.06,0.3-0.17,0.41c-0.12,0.11-0.26,0.16-0.42,0.16c-0.16,0-0.3-0.06-0.42-0.17
		c-0.11-0.11-0.17-0.25-0.17-0.4c0-0.16,0.06-0.3,0.17-0.41c0.11-0.11,0.25-0.17,0.42-0.17c0.16,0,0.3,0.06,0.42,0.17
		C32.9,215.76,32.96,215.9,32.96,216.06z M32.82,222.2h-0.89v-4.51h0.89V222.2z"/>
	<path class="st0" d="M38.59,219.9c0,0.05,0,0.1,0,0.15s0,0.1-0.01,0.15H35c0.01,0.19,0.05,0.37,0.13,0.53
		c0.08,0.17,0.19,0.31,0.32,0.43c0.13,0.12,0.29,0.22,0.46,0.29s0.36,0.1,0.56,0.1c0.3,0,0.57-0.07,0.79-0.2
		c0.22-0.13,0.4-0.29,0.52-0.49l0.63,0.5c-0.24,0.32-0.52,0.55-0.85,0.71c-0.33,0.15-0.69,0.23-1.09,0.23
		c-0.34,0-0.66-0.06-0.95-0.17s-0.54-0.27-0.75-0.48c-0.21-0.21-0.37-0.46-0.49-0.75c-0.12-0.29-0.18-0.61-0.18-0.97
		c0-0.35,0.06-0.67,0.18-0.96c0.12-0.29,0.28-0.55,0.49-0.76c0.21-0.21,0.46-0.37,0.74-0.49c0.29-0.12,0.59-0.18,0.92-0.18
		s0.63,0.05,0.9,0.16c0.27,0.11,0.5,0.26,0.69,0.47c0.19,0.2,0.33,0.45,0.43,0.74C38.54,219.22,38.59,219.54,38.59,219.9z
		 M37.68,219.54c-0.01-0.18-0.04-0.34-0.09-0.5s-0.13-0.29-0.24-0.4c-0.1-0.11-0.23-0.2-0.39-0.27s-0.34-0.1-0.55-0.1
		c-0.19,0-0.37,0.03-0.54,0.1s-0.31,0.16-0.44,0.27s-0.23,0.25-0.3,0.4c-0.08,0.16-0.13,0.32-0.14,0.5H37.68z"/>
	<path class="st0" d="M40.74,222.2h-0.89v-7.19h0.89V222.2z"/>
	<path class="st0" d="M45.01,217.69l1.02,3.44h0.02l1.07-3.44h0.94l1.09,3.44h0.02l1.02-3.44h0.94l-1.49,4.51h-0.93l-1.11-3.39
		h-0.02l-1.1,3.39h-0.93l-1.5-4.51H45.01z"/>
	<path class="st0" d="M54.83,219.28c0-0.34-0.1-0.58-0.3-0.75c-0.2-0.16-0.47-0.24-0.81-0.24c-0.25,0-0.49,0.05-0.72,0.15
		c-0.23,0.1-0.41,0.22-0.57,0.38l-0.48-0.57c0.22-0.21,0.49-0.37,0.81-0.49s0.66-0.18,1.03-0.18c0.32,0,0.6,0.05,0.84,0.14
		s0.43,0.22,0.58,0.38c0.15,0.16,0.27,0.35,0.34,0.56c0.08,0.22,0.11,0.45,0.11,0.69v1.97c0,0.15,0,0.31,0.01,0.48
		c0.01,0.17,0.03,0.31,0.05,0.41h-0.81c-0.05-0.22-0.08-0.43-0.08-0.65h-0.03c-0.17,0.24-0.37,0.43-0.62,0.56
		c-0.25,0.13-0.55,0.2-0.89,0.2c-0.18,0-0.36-0.02-0.56-0.07s-0.37-0.12-0.53-0.23c-0.16-0.11-0.29-0.25-0.39-0.43
		s-0.16-0.4-0.16-0.66c0-0.34,0.09-0.61,0.28-0.81c0.18-0.2,0.42-0.35,0.72-0.46c0.3-0.1,0.63-0.17,1.01-0.2
		c0.37-0.03,0.75-0.05,1.13-0.05V219.28z M54.61,220.05c-0.22,0-0.45,0.01-0.69,0.03c-0.24,0.02-0.45,0.06-0.65,0.11
		c-0.19,0.06-0.35,0.14-0.48,0.26c-0.13,0.11-0.19,0.27-0.19,0.46c0,0.13,0.03,0.24,0.08,0.33s0.12,0.16,0.21,0.22
		c0.09,0.06,0.19,0.1,0.29,0.12c0.11,0.02,0.22,0.03,0.33,0.03c0.42,0,0.74-0.12,0.96-0.38c0.23-0.25,0.34-0.57,0.34-0.95v-0.24
		H54.61z"/>
	<path class="st0" d="M59.61,218.83c-0.1-0.17-0.24-0.3-0.43-0.4c-0.18-0.1-0.39-0.16-0.62-0.16c-0.1,0-0.2,0.01-0.3,0.03
		c-0.1,0.02-0.19,0.06-0.27,0.1c-0.08,0.05-0.14,0.11-0.19,0.18c-0.05,0.07-0.07,0.16-0.07,0.27c0,0.19,0.09,0.33,0.26,0.42
		c0.17,0.09,0.43,0.18,0.77,0.25c0.22,0.05,0.42,0.11,0.6,0.18c0.18,0.07,0.34,0.16,0.48,0.26c0.14,0.1,0.24,0.23,0.32,0.38
		s0.11,0.32,0.11,0.51c0,0.27-0.05,0.49-0.15,0.67s-0.24,0.33-0.4,0.45c-0.17,0.12-0.36,0.2-0.58,0.25
		c-0.22,0.05-0.44,0.08-0.67,0.08c-0.34,0-0.68-0.07-1-0.2c-0.33-0.13-0.6-0.34-0.81-0.61l0.64-0.54c0.12,0.18,0.29,0.33,0.5,0.45
		c0.21,0.12,0.45,0.18,0.7,0.18c0.11,0,0.22-0.01,0.33-0.03c0.1-0.02,0.2-0.06,0.29-0.11c0.09-0.05,0.15-0.12,0.2-0.2
		s0.08-0.19,0.08-0.31c0-0.21-0.1-0.37-0.3-0.47c-0.2-0.1-0.49-0.2-0.88-0.29c-0.15-0.04-0.31-0.08-0.46-0.14s-0.3-0.13-0.42-0.22
		c-0.13-0.09-0.23-0.21-0.31-0.36c-0.08-0.14-0.12-0.32-0.12-0.53c0-0.24,0.05-0.45,0.15-0.62c0.1-0.17,0.23-0.32,0.39-0.43
		c0.16-0.11,0.34-0.19,0.54-0.25c0.2-0.05,0.41-0.08,0.63-0.08c0.32,0,0.64,0.06,0.94,0.19c0.3,0.13,0.53,0.31,0.7,0.55
		L59.61,218.83z"/>
	<path class="st0" d="M65.99,218.42h-1.2v2.34c0,0.27,0.05,0.47,0.15,0.58c0.1,0.12,0.26,0.18,0.49,0.18c0.08,0,0.17-0.01,0.27-0.03
		s0.18-0.04,0.26-0.08l0.03,0.73c-0.11,0.04-0.23,0.07-0.36,0.09c-0.13,0.02-0.26,0.03-0.4,0.03c-0.42,0-0.75-0.12-0.97-0.35
		s-0.34-0.59-0.34-1.06v-2.44h-0.87v-0.73h0.87v-1.29h0.88v1.29h1.2V218.42z"/>
	<path class="st0" d="M66.9,218.19c-0.01-0.19-0.02-0.36-0.03-0.5h0.85c0.01,0.11,0.02,0.25,0.03,0.4c0.01,0.15,0.01,0.27,0.01,0.37
		h0.03c0.13-0.27,0.31-0.48,0.56-0.64c0.24-0.16,0.52-0.24,0.82-0.24c0.14,0,0.26,0.01,0.35,0.04l-0.04,0.83
		c-0.13-0.03-0.26-0.05-0.41-0.05c-0.22,0-0.4,0.04-0.56,0.12c-0.16,0.08-0.29,0.19-0.39,0.32c-0.1,0.13-0.18,0.29-0.23,0.46
		c-0.05,0.17-0.08,0.36-0.08,0.55v2.37h-0.89v-3.54C66.91,218.54,66.91,218.38,66.9,218.19z"/>
	<path class="st0" d="M74.39,219.9c0,0.05,0,0.1,0,0.15s0,0.1-0.01,0.15H70.8c0.01,0.19,0.05,0.37,0.13,0.53
		c0.08,0.17,0.19,0.31,0.32,0.43c0.13,0.12,0.29,0.22,0.46,0.29s0.36,0.1,0.56,0.1c0.3,0,0.57-0.07,0.79-0.2
		c0.22-0.13,0.4-0.29,0.52-0.49l0.63,0.5c-0.24,0.32-0.52,0.55-0.85,0.71c-0.33,0.15-0.69,0.23-1.09,0.23
		c-0.34,0-0.66-0.06-0.95-0.17s-0.54-0.27-0.75-0.48c-0.21-0.21-0.37-0.46-0.49-0.75c-0.12-0.29-0.18-0.61-0.18-0.97
		c0-0.35,0.06-0.67,0.18-0.96c0.12-0.29,0.28-0.55,0.49-0.76c0.21-0.21,0.46-0.37,0.74-0.49c0.29-0.12,0.59-0.18,0.92-0.18
		s0.63,0.05,0.9,0.16c0.27,0.11,0.5,0.26,0.69,0.47c0.19,0.2,0.33,0.45,0.43,0.74C74.34,219.22,74.39,219.54,74.39,219.9z
		 M73.48,219.54c-0.01-0.18-0.04-0.34-0.09-0.5s-0.13-0.29-0.24-0.4c-0.1-0.11-0.23-0.2-0.39-0.27s-0.34-0.1-0.55-0.1
		c-0.19,0-0.37,0.03-0.54,0.1s-0.31,0.16-0.44,0.27s-0.23,0.25-0.3,0.4c-0.08,0.16-0.13,0.32-0.14,0.5H73.48z"/>
	<path class="st0" d="M78.38,219.28c0-0.34-0.1-0.58-0.3-0.75c-0.2-0.16-0.47-0.24-0.81-0.24c-0.25,0-0.49,0.05-0.72,0.15
		c-0.23,0.1-0.41,0.22-0.57,0.38l-0.48-0.57c0.22-0.21,0.49-0.37,0.81-0.49s0.66-0.18,1.03-0.18c0.32,0,0.6,0.05,0.84,0.14
		s0.43,0.22,0.58,0.38c0.15,0.16,0.27,0.35,0.34,0.56c0.08,0.22,0.11,0.45,0.11,0.69v1.97c0,0.15,0,0.31,0.01,0.48
		c0.01,0.17,0.03,0.31,0.05,0.41h-0.81c-0.05-0.22-0.08-0.43-0.08-0.65h-0.03c-0.17,0.24-0.37,0.43-0.62,0.56
		c-0.25,0.13-0.55,0.2-0.89,0.2c-0.18,0-0.36-0.02-0.56-0.07s-0.37-0.12-0.53-0.23c-0.16-0.11-0.29-0.25-0.39-0.43
		s-0.16-0.4-0.16-0.66c0-0.34,0.09-0.61,0.28-0.81c0.18-0.2,0.42-0.35,0.72-0.46c0.3-0.1,0.63-0.17,1.01-0.2
		c0.37-0.03,0.75-0.05,1.13-0.05V219.28z M78.16,220.05c-0.22,0-0.45,0.01-0.69,0.03c-0.24,0.02-0.45,0.06-0.65,0.11
		c-0.19,0.06-0.35,0.14-0.48,0.26c-0.13,0.11-0.19,0.27-0.19,0.46c0,0.13,0.03,0.24,0.08,0.33s0.12,0.16,0.21,0.22
		c0.09,0.06,0.19,0.1,0.29,0.12c0.11,0.02,0.22,0.03,0.33,0.03c0.42,0,0.74-0.12,0.96-0.38c0.23-0.25,0.34-0.57,0.34-0.95v-0.24
		H78.16z"/>
	<path class="st0" d="M82.84,218.42h-1.2v2.34c0,0.27,0.05,0.47,0.15,0.58c0.1,0.12,0.26,0.18,0.49,0.18c0.08,0,0.17-0.01,0.27-0.03
		s0.18-0.04,0.26-0.08l0.03,0.73c-0.11,0.04-0.23,0.07-0.36,0.09c-0.13,0.02-0.26,0.03-0.4,0.03c-0.42,0-0.75-0.12-0.97-0.35
		s-0.34-0.59-0.34-1.06v-2.44h-0.87v-0.73h0.87v-1.29h0.88v1.29h1.2V218.42z"/>
	<path class="st0" d="M87.97,219.9c0,0.05,0,0.1,0,0.15s0,0.1-0.01,0.15h-3.58c0.01,0.19,0.05,0.37,0.13,0.53
		c0.08,0.17,0.19,0.31,0.32,0.43c0.13,0.12,0.29,0.22,0.46,0.29s0.36,0.1,0.56,0.1c0.3,0,0.57-0.07,0.79-0.2
		c0.22-0.13,0.4-0.29,0.52-0.49l0.63,0.5c-0.24,0.32-0.52,0.55-0.85,0.71c-0.33,0.15-0.69,0.23-1.09,0.23
		c-0.34,0-0.66-0.06-0.95-0.17s-0.54-0.27-0.75-0.48c-0.21-0.21-0.37-0.46-0.49-0.75c-0.12-0.29-0.18-0.61-0.18-0.97
		c0-0.35,0.06-0.67,0.18-0.96c0.12-0.29,0.28-0.55,0.49-0.76c0.21-0.21,0.46-0.37,0.74-0.49c0.29-0.12,0.59-0.18,0.92-0.18
		s0.63,0.05,0.9,0.16c0.27,0.11,0.5,0.26,0.69,0.47c0.19,0.2,0.33,0.45,0.43,0.74C87.92,219.22,87.97,219.54,87.97,219.9z
		 M87.06,219.54c-0.01-0.18-0.04-0.34-0.09-0.5s-0.13-0.29-0.24-0.4c-0.1-0.11-0.23-0.2-0.39-0.27s-0.34-0.1-0.55-0.1
		c-0.19,0-0.37,0.03-0.54,0.1s-0.31,0.16-0.44,0.27s-0.23,0.25-0.3,0.4c-0.08,0.16-0.13,0.32-0.14,0.5H87.06z"/>
	<path class="st0" d="M92.8,221.48c-0.17,0.27-0.4,0.48-0.7,0.62c-0.29,0.14-0.6,0.21-0.93,0.21c-0.35,0-0.66-0.06-0.94-0.19
		c-0.28-0.12-0.52-0.29-0.71-0.51s-0.35-0.47-0.46-0.76c-0.11-0.29-0.16-0.6-0.16-0.93c0-0.33,0.05-0.64,0.16-0.93
		c0.11-0.29,0.26-0.54,0.46-0.76s0.44-0.38,0.72-0.5s0.59-0.18,0.92-0.18c0.37,0,0.69,0.08,0.96,0.23c0.27,0.16,0.49,0.34,0.65,0.57
		h0.02v-3.36h0.89v7.19h-0.87v-0.71H92.8z M89.83,219.94c0,0.21,0.03,0.41,0.1,0.61c0.06,0.2,0.16,0.37,0.29,0.52
		c0.13,0.15,0.28,0.27,0.47,0.37c0.18,0.09,0.4,0.14,0.65,0.14c0.23,0,0.44-0.04,0.62-0.13c0.19-0.09,0.35-0.21,0.48-0.36
		c0.13-0.15,0.24-0.32,0.31-0.52c0.07-0.2,0.11-0.4,0.11-0.62s-0.04-0.42-0.11-0.62c-0.07-0.2-0.18-0.37-0.31-0.52
		c-0.13-0.15-0.29-0.27-0.48-0.36s-0.39-0.13-0.62-0.13c-0.25,0-0.46,0.04-0.65,0.13c-0.18,0.09-0.34,0.21-0.47,0.36
		c-0.13,0.15-0.22,0.33-0.29,0.52C89.87,219.53,89.83,219.73,89.83,219.94z"/>
	<path class="st0" d="M97.96,217.69l1.02,3.44h0.02l1.07-3.44h0.94l1.09,3.44h0.02l1.02-3.44h0.94l-1.49,4.51h-0.93l-1.11-3.39
		h-0.02l-1.1,3.39h-0.93l-1.5-4.51H97.96z"/>
	<path class="st0" d="M106.02,216.06c0,0.17-0.06,0.3-0.17,0.41c-0.12,0.11-0.26,0.16-0.42,0.16c-0.16,0-0.3-0.06-0.42-0.17
		c-0.11-0.11-0.17-0.25-0.17-0.4c0-0.16,0.06-0.3,0.17-0.41c0.11-0.11,0.25-0.17,0.42-0.17c0.16,0,0.3,0.06,0.42,0.17
		C105.96,215.76,106.02,215.9,106.02,216.06z M105.88,222.2h-0.89v-4.51h0.89V222.2z"/>
	<path class="st0" d="M109.64,218.42h-1.2v2.34c0,0.27,0.05,0.47,0.15,0.58c0.1,0.12,0.26,0.18,0.49,0.18
		c0.08,0,0.17-0.01,0.27-0.03s0.18-0.04,0.26-0.08l0.03,0.73c-0.11,0.04-0.23,0.07-0.36,0.09c-0.13,0.02-0.26,0.03-0.4,0.03
		c-0.42,0-0.75-0.12-0.97-0.35s-0.34-0.59-0.34-1.06v-2.44h-0.87v-0.73h0.87v-1.29h0.88v1.29h1.2V218.42z"/>
	<path class="st0" d="M111.5,218.37c0.11-0.22,0.29-0.41,0.55-0.57c0.26-0.16,0.55-0.24,0.87-0.24c0.29,0,0.54,0.05,0.75,0.15
		c0.21,0.1,0.38,0.23,0.52,0.39c0.14,0.17,0.24,0.36,0.31,0.58c0.07,0.22,0.1,0.46,0.1,0.71v2.8h-0.89v-2.5
		c0-0.18-0.01-0.36-0.04-0.52c-0.03-0.17-0.08-0.31-0.16-0.44c-0.08-0.13-0.18-0.23-0.31-0.31c-0.13-0.08-0.3-0.11-0.51-0.11
		c-0.35,0-0.65,0.13-0.88,0.41c-0.23,0.27-0.34,0.63-0.34,1.08v2.39h-0.89v-7.19h0.89v3.37H111.5z"/>
	<path class="st0" d="M124.31,221.15c-0.27,0.36-0.61,0.65-1.04,0.88c-0.42,0.22-0.94,0.34-1.53,0.34c-0.51,0-0.99-0.09-1.42-0.26
		c-0.43-0.17-0.81-0.42-1.12-0.73c-0.31-0.31-0.56-0.69-0.74-1.12c-0.18-0.43-0.27-0.91-0.27-1.43c0-0.53,0.09-1.01,0.27-1.44
		s0.43-0.8,0.75-1.11c0.32-0.31,0.7-0.55,1.14-0.72c0.44-0.17,0.91-0.26,1.43-0.26c0.23,0,0.46,0.02,0.69,0.07
		c0.23,0.04,0.46,0.11,0.68,0.2s0.41,0.2,0.59,0.33c0.18,0.13,0.33,0.28,0.46,0.45l-0.74,0.57c-0.16-0.23-0.4-0.42-0.7-0.57
		c-0.3-0.15-0.63-0.22-0.97-0.22c-0.39,0-0.75,0.07-1.06,0.21c-0.31,0.14-0.58,0.34-0.8,0.58c-0.22,0.25-0.39,0.53-0.51,0.86
		s-0.18,0.67-0.18,1.04c0,0.38,0.06,0.74,0.18,1.07c0.12,0.33,0.29,0.62,0.5,0.86c0.22,0.24,0.49,0.44,0.8,0.58
		c0.31,0.14,0.66,0.21,1.05,0.21c0.38,0,0.73-0.08,1.04-0.23c0.31-0.15,0.57-0.37,0.77-0.67L124.31,221.15z"/>
	<path class="st0" d="M129.68,219.93c0,0.35-0.06,0.67-0.19,0.96c-0.12,0.29-0.29,0.54-0.51,0.76c-0.22,0.21-0.48,0.38-0.77,0.49
		c-0.3,0.12-0.62,0.18-0.96,0.18s-0.66-0.06-0.96-0.18c-0.3-0.12-0.55-0.28-0.77-0.49c-0.22-0.21-0.38-0.46-0.51-0.76
		c-0.12-0.29-0.19-0.61-0.19-0.96c0-0.35,0.06-0.67,0.19-0.96c0.12-0.29,0.29-0.54,0.51-0.75c0.22-0.21,0.47-0.37,0.77-0.49
		c0.3-0.12,0.62-0.18,0.96-0.18s0.66,0.06,0.96,0.18c0.3,0.12,0.56,0.28,0.77,0.49c0.22,0.21,0.39,0.46,0.51,0.75
		C129.62,219.27,129.68,219.58,129.68,219.93z M128.75,219.94c0-0.21-0.03-0.42-0.1-0.62c-0.07-0.2-0.16-0.37-0.29-0.52
		c-0.13-0.15-0.28-0.27-0.47-0.36s-0.4-0.13-0.64-0.13s-0.46,0.04-0.64,0.13s-0.34,0.21-0.47,0.36c-0.13,0.15-0.22,0.32-0.29,0.52
		c-0.07,0.2-0.1,0.4-0.1,0.62c0,0.22,0.03,0.42,0.1,0.62c0.07,0.2,0.16,0.37,0.29,0.52c0.13,0.15,0.28,0.27,0.47,0.36
		c0.19,0.09,0.4,0.13,0.64,0.13s0.46-0.04,0.64-0.13c0.19-0.09,0.34-0.21,0.47-0.36c0.13-0.15,0.22-0.33,0.29-0.52
		C128.71,220.36,128.75,220.15,128.75,219.94z"/>
	<path class="st0" d="M135.48,219.93c0,0.35-0.06,0.67-0.19,0.96c-0.12,0.29-0.29,0.54-0.51,0.76c-0.22,0.21-0.48,0.38-0.77,0.49
		c-0.3,0.12-0.62,0.18-0.96,0.18s-0.66-0.06-0.96-0.18c-0.3-0.12-0.55-0.28-0.77-0.49c-0.22-0.21-0.38-0.46-0.51-0.76
		c-0.12-0.29-0.19-0.61-0.19-0.96c0-0.35,0.06-0.67,0.19-0.96c0.12-0.29,0.29-0.54,0.51-0.75c0.22-0.21,0.47-0.37,0.77-0.49
		c0.3-0.12,0.62-0.18,0.96-0.18s0.66,0.06,0.96,0.18c0.3,0.12,0.56,0.28,0.77,0.49c0.22,0.21,0.39,0.46,0.51,0.75
		C135.42,219.27,135.48,219.58,135.48,219.93z M134.55,219.94c0-0.21-0.03-0.42-0.1-0.62c-0.07-0.2-0.16-0.37-0.29-0.52
		c-0.13-0.15-0.28-0.27-0.47-0.36s-0.4-0.13-0.64-0.13s-0.46,0.04-0.64,0.13s-0.34,0.21-0.47,0.36c-0.13,0.15-0.22,0.32-0.29,0.52
		c-0.07,0.2-0.1,0.4-0.1,0.62c0,0.22,0.03,0.42,0.1,0.62c0.07,0.2,0.16,0.37,0.29,0.52c0.13,0.15,0.28,0.27,0.47,0.36
		c0.19,0.09,0.4,0.13,0.64,0.13s0.46-0.04,0.64-0.13c0.19-0.09,0.34-0.21,0.47-0.36c0.13-0.15,0.22-0.33,0.29-0.52
		C134.51,220.36,134.55,220.15,134.55,219.94z"/>
	<path class="st0" d="M137.63,222.2h-0.89v-7.19h0.89V222.2z"/>
	<path class="st0" d="M141.59,222.2h-0.94v-5.91h-2.16v-0.83h5.26v0.83h-2.16V222.2z"/>
	<path class="st0" d="M148.25,219.93c0,0.35-0.06,0.67-0.19,0.96c-0.12,0.29-0.29,0.54-0.51,0.76c-0.22,0.21-0.48,0.38-0.77,0.49
		c-0.3,0.12-0.62,0.18-0.96,0.18s-0.66-0.06-0.96-0.18c-0.3-0.12-0.55-0.28-0.77-0.49c-0.22-0.21-0.38-0.46-0.51-0.76
		c-0.12-0.29-0.19-0.61-0.19-0.96c0-0.35,0.06-0.67,0.19-0.96c0.12-0.29,0.29-0.54,0.51-0.75c0.22-0.21,0.47-0.37,0.77-0.49
		c0.3-0.12,0.62-0.18,0.96-0.18s0.66,0.06,0.96,0.18c0.3,0.12,0.56,0.28,0.77,0.49c0.22,0.21,0.39,0.46,0.51,0.75
		C148.19,219.27,148.25,219.58,148.25,219.93z M147.32,219.94c0-0.21-0.03-0.42-0.1-0.62c-0.07-0.2-0.16-0.37-0.29-0.52
		c-0.13-0.15-0.28-0.27-0.47-0.36s-0.4-0.13-0.64-0.13s-0.46,0.04-0.64,0.13s-0.34,0.21-0.47,0.36c-0.13,0.15-0.22,0.32-0.29,0.52
		c-0.07,0.2-0.1,0.4-0.1,0.62c0,0.22,0.03,0.42,0.1,0.62c0.07,0.2,0.16,0.37,0.29,0.52c0.13,0.15,0.28,0.27,0.47,0.36
		c0.19,0.09,0.4,0.13,0.64,0.13s0.46-0.04,0.64-0.13c0.19-0.09,0.34-0.21,0.47-0.36c0.13-0.15,0.22-0.33,0.29-0.52
		C147.28,220.36,147.32,220.15,147.32,219.94z"/>
	<path class="st0" d="M150.29,217.69c0.01,0.11,0.02,0.24,0.03,0.39s0.01,0.26,0.01,0.36h0.03c0.06-0.12,0.13-0.23,0.23-0.34
		s0.21-0.2,0.34-0.28c0.13-0.08,0.27-0.14,0.42-0.19c0.15-0.04,0.31-0.07,0.48-0.07c0.29,0,0.54,0.05,0.75,0.15
		c0.21,0.1,0.38,0.23,0.52,0.39c0.14,0.17,0.24,0.36,0.31,0.58s0.1,0.46,0.1,0.71v2.8h-0.89v-2.5c0-0.18-0.01-0.36-0.04-0.52
		c-0.03-0.16-0.08-0.31-0.16-0.44s-0.18-0.23-0.31-0.3s-0.3-0.11-0.51-0.11c-0.35,0-0.65,0.13-0.87,0.4s-0.34,0.63-0.34,1.08v2.4
		h-0.89v-3.54c0-0.12,0-0.28-0.01-0.47c-0.01-0.19-0.02-0.36-0.03-0.5H150.29z"/>
	<path class="st0" d="M159.23,219.9c0,0.05,0,0.1,0,0.15s0,0.1-0.01,0.15h-3.58c0.01,0.19,0.05,0.37,0.13,0.53
		c0.08,0.17,0.19,0.31,0.32,0.43c0.13,0.12,0.29,0.22,0.46,0.29s0.36,0.1,0.56,0.1c0.3,0,0.57-0.07,0.79-0.2
		c0.22-0.13,0.4-0.29,0.52-0.49l0.63,0.5c-0.24,0.32-0.52,0.55-0.85,0.71c-0.33,0.15-0.69,0.23-1.09,0.23
		c-0.34,0-0.66-0.06-0.95-0.17s-0.54-0.27-0.75-0.48c-0.21-0.21-0.37-0.46-0.49-0.75c-0.12-0.29-0.18-0.61-0.18-0.97
		c0-0.35,0.06-0.67,0.18-0.96c0.12-0.29,0.28-0.55,0.49-0.76c0.21-0.21,0.46-0.37,0.74-0.49c0.29-0.12,0.59-0.18,0.92-0.18
		s0.63,0.05,0.9,0.16c0.27,0.11,0.5,0.26,0.69,0.47c0.19,0.2,0.33,0.45,0.43,0.74C159.18,219.22,159.23,219.54,159.23,219.9z
		 M158.32,219.54c-0.01-0.18-0.04-0.34-0.09-0.5s-0.13-0.29-0.24-0.4c-0.1-0.11-0.23-0.2-0.39-0.27s-0.34-0.1-0.55-0.1
		c-0.19,0-0.37,0.03-0.54,0.1s-0.31,0.16-0.44,0.27s-0.23,0.25-0.3,0.4c-0.08,0.16-0.13,0.32-0.14,0.5H158.32z"/>
	<path class="st0" d="M160,217.51c0-0.3,0.06-0.58,0.17-0.84c0.11-0.26,0.27-0.49,0.47-0.68c0.2-0.19,0.43-0.35,0.69-0.46
		s0.54-0.17,0.84-0.17c0.3,0,0.58,0.06,0.84,0.17s0.49,0.27,0.69,0.46c0.2,0.19,0.35,0.42,0.47,0.68c0.11,0.26,0.17,0.54,0.17,0.84
		c0,0.3-0.06,0.58-0.17,0.84c-0.11,0.26-0.27,0.49-0.47,0.68c-0.2,0.19-0.43,0.34-0.69,0.46s-0.54,0.17-0.84,0.17
		c-0.3,0-0.58-0.05-0.84-0.17s-0.49-0.26-0.69-0.46c-0.2-0.19-0.35-0.42-0.47-0.68C160.06,218.08,160,217.81,160,217.51z
		 M160.34,217.51c0,0.25,0.05,0.48,0.14,0.7c0.1,0.22,0.23,0.42,0.39,0.58c0.16,0.17,0.36,0.3,0.58,0.39
		c0.22,0.09,0.46,0.14,0.71,0.14c0.25,0,0.49-0.05,0.71-0.14c0.22-0.09,0.42-0.23,0.58-0.39s0.29-0.36,0.39-0.58
		c0.09-0.22,0.14-0.46,0.14-0.7c0-0.25-0.05-0.49-0.14-0.71c-0.1-0.22-0.23-0.42-0.39-0.58s-0.36-0.29-0.58-0.39
		c-0.22-0.09-0.46-0.14-0.71-0.14c-0.25,0-0.49,0.05-0.71,0.14c-0.22,0.09-0.42,0.22-0.58,0.39c-0.17,0.17-0.29,0.36-0.39,0.58
		C160.39,217.02,160.34,217.25,160.34,217.51z M162.69,218.7l-0.52-0.94h-0.34v0.94h-0.58v-2.43h1.05c0.11,0,0.22,0.01,0.33,0.04
		s0.21,0.07,0.29,0.12c0.09,0.06,0.16,0.13,0.21,0.23s0.08,0.22,0.08,0.37c0,0.17-0.05,0.3-0.14,0.41
		c-0.09,0.11-0.21,0.19-0.35,0.24l0.65,1.03H162.69z M162.27,217.34c0.09,0,0.17-0.03,0.24-0.08c0.07-0.06,0.11-0.13,0.11-0.23
		c0-0.1-0.04-0.17-0.12-0.22s-0.16-0.07-0.23-0.07h-0.45v0.6H162.27z"/>
	<path class="st0" d="M172.73,219.93c0,0.35-0.06,0.67-0.19,0.96c-0.12,0.29-0.29,0.54-0.51,0.76c-0.22,0.21-0.48,0.38-0.77,0.49
		c-0.3,0.12-0.62,0.18-0.96,0.18s-0.66-0.06-0.96-0.18c-0.3-0.12-0.55-0.28-0.77-0.49c-0.22-0.21-0.38-0.46-0.51-0.76
		c-0.12-0.29-0.19-0.61-0.19-0.96c0-0.35,0.06-0.67,0.19-0.96c0.12-0.29,0.29-0.54,0.51-0.75c0.22-0.21,0.47-0.37,0.77-0.49
		c0.3-0.12,0.62-0.18,0.96-0.18s0.66,0.06,0.96,0.18c0.3,0.12,0.56,0.28,0.77,0.49c0.22,0.21,0.39,0.46,0.51,0.75
		C172.67,219.27,172.73,219.58,172.73,219.93z M171.8,219.94c0-0.21-0.03-0.42-0.1-0.62c-0.07-0.2-0.16-0.37-0.29-0.52
		c-0.13-0.15-0.28-0.27-0.47-0.36s-0.4-0.13-0.64-0.13s-0.46,0.04-0.64,0.13s-0.34,0.21-0.47,0.36c-0.13,0.15-0.22,0.32-0.29,0.52
		c-0.07,0.2-0.1,0.4-0.1,0.62c0,0.22,0.03,0.42,0.1,0.62c0.07,0.2,0.16,0.37,0.29,0.52c0.13,0.15,0.28,0.27,0.47,0.36
		c0.19,0.09,0.4,0.13,0.64,0.13s0.46-0.04,0.64-0.13c0.19-0.09,0.34-0.21,0.47-0.36c0.13-0.15,0.22-0.33,0.29-0.52
		C171.77,220.36,171.8,220.15,171.8,219.94z"/>
	<path class="st0" d="M174.78,217.69c0.01,0.11,0.02,0.24,0.03,0.39s0.01,0.26,0.01,0.36h0.03c0.06-0.12,0.13-0.23,0.23-0.34
		s0.21-0.2,0.34-0.28c0.13-0.08,0.27-0.14,0.42-0.19c0.15-0.04,0.31-0.07,0.48-0.07c0.29,0,0.54,0.05,0.75,0.15
		c0.21,0.1,0.38,0.23,0.52,0.39c0.14,0.17,0.24,0.36,0.31,0.58s0.1,0.46,0.1,0.71v2.8h-0.89v-2.5c0-0.18-0.01-0.36-0.04-0.52
		c-0.03-0.16-0.08-0.31-0.16-0.44s-0.18-0.23-0.31-0.3s-0.3-0.11-0.51-0.11c-0.35,0-0.65,0.13-0.87,0.4s-0.34,0.63-0.34,1.08v2.4
		h-0.89v-3.54c0-0.12,0-0.28-0.01-0.47c-0.01-0.19-0.02-0.36-0.03-0.5H174.78z"/>
	<path class="st0" d="M182.81,218.37c0.11-0.22,0.29-0.41,0.55-0.57c0.26-0.16,0.55-0.24,0.87-0.24c0.29,0,0.54,0.05,0.75,0.15
		c0.21,0.1,0.38,0.23,0.52,0.39c0.14,0.17,0.24,0.36,0.31,0.58c0.07,0.22,0.1,0.46,0.1,0.71v2.8h-0.89v-2.5
		c0-0.18-0.01-0.36-0.04-0.52c-0.03-0.17-0.08-0.31-0.16-0.44c-0.08-0.13-0.18-0.23-0.31-0.31c-0.13-0.08-0.3-0.11-0.51-0.11
		c-0.35,0-0.65,0.13-0.88,0.41c-0.23,0.27-0.34,0.63-0.34,1.08v2.39h-0.89v-7.19h0.89v3.37H182.81z"/>
	<path class="st0" d="M191.65,219.9c0,0.05,0,0.1,0,0.15s0,0.1-0.01,0.15h-3.58c0.01,0.19,0.05,0.37,0.13,0.53
		c0.08,0.17,0.19,0.31,0.32,0.43c0.13,0.12,0.29,0.22,0.46,0.29s0.36,0.1,0.56,0.1c0.3,0,0.57-0.07,0.79-0.2
		c0.22-0.13,0.4-0.29,0.52-0.49l0.63,0.5c-0.24,0.32-0.52,0.55-0.85,0.71c-0.33,0.15-0.69,0.23-1.09,0.23
		c-0.34,0-0.66-0.06-0.95-0.17s-0.54-0.27-0.75-0.48c-0.21-0.21-0.37-0.46-0.49-0.75c-0.12-0.29-0.18-0.61-0.18-0.97
		c0-0.35,0.06-0.67,0.18-0.96c0.12-0.29,0.28-0.55,0.49-0.76c0.21-0.21,0.46-0.37,0.74-0.49c0.29-0.12,0.59-0.18,0.92-0.18
		s0.63,0.05,0.9,0.16c0.27,0.11,0.5,0.26,0.69,0.47c0.19,0.2,0.33,0.45,0.43,0.74C191.6,219.22,191.65,219.54,191.65,219.9z
		 M190.73,219.54c-0.01-0.18-0.04-0.34-0.09-0.5s-0.13-0.29-0.24-0.4c-0.1-0.11-0.23-0.2-0.39-0.27s-0.34-0.1-0.55-0.1
		c-0.19,0-0.37,0.03-0.54,0.1s-0.31,0.16-0.44,0.27s-0.23,0.25-0.3,0.4c-0.08,0.16-0.13,0.32-0.14,0.5H190.73z"/>
	<path class="st0" d="M192.87,218.19c-0.01-0.19-0.02-0.36-0.03-0.5h0.85c0.01,0.11,0.02,0.25,0.03,0.4
		c0.01,0.15,0.01,0.27,0.01,0.37h0.03c0.13-0.27,0.31-0.48,0.56-0.64c0.24-0.16,0.52-0.24,0.82-0.24c0.14,0,0.26,0.01,0.35,0.04
		l-0.04,0.83c-0.13-0.03-0.26-0.05-0.41-0.05c-0.22,0-0.4,0.04-0.56,0.12c-0.16,0.08-0.29,0.19-0.39,0.32
		c-0.1,0.13-0.18,0.29-0.23,0.46c-0.05,0.17-0.08,0.36-0.08,0.55v2.37h-0.89v-3.54C192.88,218.54,192.88,218.38,192.87,218.19z"/>
	<path class="st0" d="M24.9,229.29c0-0.34-0.1-0.58-0.3-0.75c-0.2-0.16-0.47-0.24-0.81-0.24c-0.25,0-0.49,0.05-0.72,0.15
		c-0.23,0.1-0.41,0.22-0.57,0.38l-0.48-0.57c0.22-0.21,0.49-0.37,0.81-0.49s0.66-0.18,1.03-0.18c0.32,0,0.6,0.05,0.84,0.14
		s0.43,0.22,0.58,0.38c0.15,0.16,0.27,0.35,0.34,0.56c0.08,0.22,0.11,0.45,0.11,0.69v1.97c0,0.15,0,0.31,0.01,0.48
		c0.01,0.17,0.03,0.31,0.05,0.41h-0.81c-0.05-0.22-0.08-0.43-0.08-0.65h-0.03c-0.17,0.24-0.37,0.43-0.62,0.56
		c-0.25,0.13-0.55,0.2-0.89,0.2c-0.18,0-0.36-0.02-0.56-0.07s-0.37-0.12-0.53-0.23c-0.16-0.11-0.29-0.25-0.39-0.43
		s-0.16-0.4-0.16-0.66c0-0.34,0.09-0.61,0.28-0.81c0.18-0.2,0.42-0.35,0.72-0.46c0.3-0.1,0.63-0.17,1.01-0.2
		c0.37-0.03,0.75-0.05,1.13-0.05V229.29z M24.68,230.06c-0.22,0-0.45,0.01-0.69,0.03c-0.24,0.02-0.45,0.06-0.65,0.11
		c-0.19,0.06-0.35,0.14-0.48,0.26c-0.13,0.11-0.19,0.27-0.19,0.46c0,0.13,0.03,0.24,0.08,0.33s0.12,0.16,0.21,0.22
		c0.09,0.06,0.19,0.1,0.29,0.12c0.11,0.02,0.22,0.03,0.33,0.03c0.42,0,0.74-0.12,0.96-0.38c0.23-0.25,0.34-0.57,0.34-0.95v-0.24
		H24.68z"/>
	<path class="st0" d="M28.13,231.49v0.71h-0.87v-7.19h0.89v3.36h0.03c0.15-0.22,0.36-0.41,0.64-0.57c0.27-0.16,0.59-0.23,0.97-0.23
		c0.33,0,0.64,0.06,0.92,0.18c0.28,0.12,0.51,0.29,0.71,0.5s0.35,0.47,0.46,0.76c0.11,0.29,0.16,0.6,0.16,0.93
		c0,0.33-0.05,0.64-0.16,0.93c-0.11,0.29-0.26,0.54-0.46,0.76c-0.2,0.22-0.43,0.38-0.71,0.51c-0.28,0.12-0.59,0.19-0.94,0.19
		c-0.32,0-0.63-0.07-0.92-0.21c-0.29-0.14-0.52-0.35-0.7-0.62H28.13z M31.12,229.95c0-0.21-0.03-0.41-0.1-0.61
		c-0.06-0.2-0.16-0.37-0.29-0.52s-0.28-0.27-0.47-0.36s-0.4-0.13-0.65-0.13c-0.23,0-0.44,0.04-0.62,0.13
		c-0.19,0.09-0.35,0.21-0.48,0.36s-0.24,0.33-0.31,0.52s-0.11,0.4-0.11,0.62s0.04,0.42,0.11,0.62c0.07,0.2,0.18,0.37,0.31,0.52
		c0.13,0.15,0.29,0.27,0.48,0.36c0.19,0.09,0.39,0.13,0.62,0.13c0.25,0,0.46-0.05,0.65-0.14c0.19-0.09,0.34-0.21,0.47-0.37
		c0.13-0.15,0.22-0.33,0.29-0.52C31.09,230.36,31.12,230.16,31.12,229.95z"/>
	<path class="st0" d="M36.89,231.49c-0.17,0.27-0.4,0.48-0.7,0.62c-0.29,0.14-0.6,0.21-0.93,0.21c-0.35,0-0.66-0.06-0.94-0.19
		c-0.28-0.12-0.52-0.29-0.71-0.51s-0.35-0.47-0.46-0.76c-0.11-0.29-0.16-0.6-0.16-0.93c0-0.33,0.05-0.64,0.16-0.93
		c0.11-0.29,0.26-0.54,0.46-0.76s0.44-0.38,0.72-0.5s0.59-0.18,0.92-0.18c0.37,0,0.69,0.08,0.96,0.23c0.27,0.16,0.49,0.34,0.65,0.57
		h0.02v-3.36h0.89v7.19h-0.87v-0.71H36.89z M33.92,229.95c0,0.21,0.03,0.41,0.1,0.61c0.06,0.2,0.16,0.37,0.29,0.52
		c0.13,0.15,0.28,0.27,0.47,0.37c0.18,0.09,0.4,0.14,0.65,0.14c0.23,0,0.44-0.04,0.62-0.13c0.19-0.09,0.35-0.21,0.48-0.36
		c0.13-0.15,0.24-0.32,0.31-0.52c0.07-0.2,0.11-0.4,0.11-0.62s-0.04-0.42-0.11-0.62c-0.07-0.2-0.18-0.37-0.31-0.52
		c-0.13-0.15-0.29-0.27-0.48-0.36s-0.39-0.13-0.62-0.13c-0.25,0-0.46,0.04-0.65,0.13c-0.18,0.09-0.34,0.21-0.47,0.36
		c-0.13,0.15-0.22,0.33-0.29,0.52C33.95,229.54,33.92,229.74,33.92,229.95z"/>
	<path class="st0" d="M43.9,229.94c0,0.35-0.06,0.67-0.19,0.96c-0.12,0.29-0.29,0.54-0.51,0.76c-0.22,0.21-0.48,0.38-0.77,0.49
		c-0.3,0.12-0.62,0.18-0.96,0.18s-0.66-0.06-0.96-0.18c-0.3-0.12-0.55-0.28-0.77-0.49c-0.22-0.21-0.38-0.46-0.51-0.76
		c-0.12-0.29-0.19-0.61-0.19-0.96c0-0.35,0.06-0.67,0.19-0.96c0.12-0.29,0.29-0.54,0.51-0.75c0.22-0.21,0.47-0.37,0.77-0.49
		c0.3-0.12,0.62-0.18,0.96-0.18s0.66,0.06,0.96,0.18c0.3,0.12,0.56,0.28,0.77,0.49c0.22,0.21,0.39,0.46,0.51,0.75
		C43.83,229.28,43.9,229.59,43.9,229.94z M42.96,229.95c0-0.21-0.03-0.42-0.1-0.62c-0.07-0.2-0.16-0.37-0.29-0.52
		c-0.13-0.15-0.28-0.27-0.47-0.36s-0.4-0.13-0.64-0.13s-0.46,0.04-0.64,0.13s-0.34,0.21-0.47,0.36c-0.13,0.15-0.22,0.32-0.29,0.52
		c-0.07,0.2-0.1,0.4-0.1,0.62c0,0.22,0.03,0.42,0.1,0.62c0.07,0.2,0.16,0.37,0.29,0.52c0.13,0.15,0.28,0.27,0.47,0.36
		c0.19,0.09,0.4,0.13,0.64,0.13s0.46-0.04,0.64-0.13c0.19-0.09,0.34-0.21,0.47-0.36c0.13-0.15,0.22-0.33,0.29-0.52
		C42.93,230.37,42.96,230.16,42.96,229.95z"/>
	<path class="st0" d="M46.55,227.83c0.25-0.17,0.55-0.25,0.89-0.25c0.3,0,0.58,0.07,0.82,0.21s0.44,0.37,0.58,0.69
		c0.15-0.29,0.36-0.51,0.64-0.67c0.27-0.16,0.57-0.23,0.89-0.23c0.29,0,0.54,0.05,0.75,0.15c0.21,0.1,0.38,0.23,0.52,0.39
		c0.14,0.17,0.24,0.36,0.31,0.58c0.07,0.22,0.1,0.46,0.1,0.71v2.8h-0.89v-2.5c0-0.18-0.02-0.36-0.05-0.52
		c-0.03-0.16-0.09-0.31-0.16-0.44s-0.18-0.23-0.3-0.3c-0.13-0.08-0.29-0.11-0.48-0.11c-0.2,0-0.38,0.04-0.52,0.13
		c-0.15,0.08-0.27,0.2-0.36,0.33c-0.09,0.14-0.16,0.29-0.2,0.46c-0.04,0.17-0.06,0.35-0.06,0.52v2.43h-0.89v-2.68
		c0-0.18-0.02-0.34-0.05-0.49c-0.03-0.15-0.09-0.27-0.16-0.38c-0.08-0.1-0.17-0.19-0.29-0.25c-0.12-0.06-0.27-0.09-0.45-0.09
		c-0.33,0-0.6,0.13-0.82,0.4s-0.33,0.63-0.33,1.08v2.4h-0.89v-3.54c0-0.12,0-0.28-0.01-0.47c-0.01-0.19-0.02-0.36-0.03-0.5h0.85
		c0.01,0.11,0.02,0.24,0.03,0.39s0.01,0.26,0.01,0.36h0.03C46.12,228.2,46.3,228,46.55,227.83z"/>
	<path class="st0" d="M57.78,229.91c0,0.05,0,0.1,0,0.15s0,0.1-0.01,0.15h-3.58c0.01,0.19,0.05,0.37,0.13,0.53
		c0.08,0.17,0.19,0.31,0.32,0.43c0.13,0.12,0.29,0.22,0.46,0.29s0.36,0.1,0.56,0.1c0.3,0,0.57-0.07,0.79-0.2
		c0.22-0.13,0.4-0.29,0.52-0.49l0.63,0.5c-0.24,0.32-0.52,0.55-0.85,0.71c-0.33,0.15-0.69,0.23-1.09,0.23
		c-0.34,0-0.66-0.06-0.95-0.17s-0.54-0.27-0.75-0.48c-0.21-0.21-0.37-0.46-0.49-0.75c-0.12-0.29-0.18-0.61-0.18-0.97
		c0-0.35,0.06-0.67,0.18-0.96c0.12-0.29,0.28-0.55,0.49-0.76c0.21-0.21,0.46-0.37,0.74-0.49c0.29-0.12,0.59-0.18,0.92-0.18
		s0.63,0.05,0.9,0.16c0.27,0.11,0.5,0.26,0.69,0.47c0.19,0.2,0.33,0.45,0.43,0.74C57.73,229.23,57.78,229.55,57.78,229.91z
		 M56.87,229.55c-0.01-0.18-0.04-0.34-0.09-0.5s-0.13-0.29-0.24-0.4c-0.1-0.11-0.23-0.2-0.39-0.27s-0.34-0.1-0.55-0.1
		c-0.19,0-0.37,0.03-0.54,0.1s-0.31,0.16-0.44,0.27s-0.23,0.25-0.3,0.4c-0.08,0.16-0.13,0.32-0.14,0.5H56.87z"/>
	<path class="st0" d="M59.82,227.7c0.01,0.11,0.02,0.24,0.03,0.39s0.01,0.26,0.01,0.36h0.03c0.06-0.12,0.13-0.23,0.23-0.34
		s0.21-0.2,0.34-0.28c0.13-0.08,0.27-0.14,0.42-0.19c0.15-0.04,0.31-0.07,0.48-0.07c0.29,0,0.54,0.05,0.75,0.15
		c0.21,0.1,0.38,0.23,0.52,0.39c0.14,0.17,0.24,0.36,0.31,0.58s0.1,0.46,0.1,0.71v2.8h-0.89v-2.5c0-0.18-0.01-0.36-0.04-0.52
		c-0.03-0.16-0.08-0.31-0.16-0.44s-0.18-0.23-0.31-0.3s-0.3-0.11-0.51-0.11c-0.35,0-0.65,0.13-0.87,0.4s-0.34,0.63-0.34,1.08v2.4
		h-0.89v-3.54c0-0.12,0-0.28-0.01-0.47c-0.01-0.19-0.02-0.36-0.03-0.5H59.82z"/>
	<path class="st0" d="M69.73,229.29c0-0.34-0.1-0.58-0.3-0.75c-0.2-0.16-0.47-0.24-0.81-0.24c-0.25,0-0.49,0.05-0.72,0.15
		c-0.23,0.1-0.41,0.22-0.57,0.38l-0.48-0.57c0.22-0.21,0.49-0.37,0.81-0.49s0.66-0.18,1.03-0.18c0.32,0,0.6,0.05,0.84,0.14
		s0.43,0.22,0.58,0.38c0.15,0.16,0.27,0.35,0.34,0.56c0.08,0.22,0.11,0.45,0.11,0.69v1.97c0,0.15,0,0.31,0.01,0.48
		c0.01,0.17,0.03,0.31,0.05,0.41h-0.81c-0.05-0.22-0.08-0.43-0.08-0.65h-0.03c-0.17,0.24-0.37,0.43-0.62,0.56
		c-0.25,0.13-0.55,0.2-0.89,0.2c-0.18,0-0.36-0.02-0.56-0.07s-0.37-0.12-0.53-0.23c-0.16-0.11-0.29-0.25-0.39-0.43
		s-0.16-0.4-0.16-0.66c0-0.34,0.09-0.61,0.28-0.81c0.18-0.2,0.42-0.35,0.72-0.46c0.3-0.1,0.63-0.17,1.01-0.2
		c0.37-0.03,0.75-0.05,1.13-0.05V229.29z M69.51,230.06c-0.22,0-0.45,0.01-0.69,0.03c-0.24,0.02-0.45,0.06-0.65,0.11
		c-0.19,0.06-0.35,0.14-0.48,0.26c-0.13,0.11-0.19,0.27-0.19,0.46c0,0.13,0.03,0.24,0.08,0.33s0.12,0.16,0.21,0.22
		c0.09,0.06,0.19,0.1,0.29,0.12c0.11,0.02,0.22,0.03,0.33,0.03c0.42,0,0.74-0.12,0.96-0.38c0.23-0.25,0.34-0.57,0.34-0.95v-0.24
		H69.51z"/>
	<path class="st0" d="M72.89,227.7c0.01,0.11,0.02,0.24,0.03,0.39s0.01,0.26,0.01,0.36h0.03c0.06-0.12,0.13-0.23,0.23-0.34
		s0.21-0.2,0.34-0.28c0.13-0.08,0.27-0.14,0.42-0.19c0.15-0.04,0.31-0.07,0.48-0.07c0.29,0,0.54,0.05,0.75,0.15
		c0.21,0.1,0.38,0.23,0.52,0.39c0.14,0.17,0.24,0.36,0.31,0.58s0.1,0.46,0.1,0.71v2.8h-0.89v-2.5c0-0.18-0.01-0.36-0.04-0.52
		c-0.03-0.16-0.08-0.31-0.16-0.44s-0.18-0.23-0.31-0.3s-0.3-0.11-0.51-0.11c-0.35,0-0.65,0.13-0.87,0.4s-0.34,0.63-0.34,1.08v2.4
		h-0.89v-3.54c0-0.12,0-0.28-0.01-0.47c-0.01-0.19-0.02-0.36-0.03-0.5H72.89z"/>
	<path class="st0" d="M81.21,231.49c-0.17,0.27-0.4,0.48-0.7,0.62c-0.29,0.14-0.6,0.21-0.93,0.21c-0.35,0-0.66-0.06-0.94-0.19
		c-0.28-0.12-0.52-0.29-0.71-0.51s-0.35-0.47-0.46-0.76c-0.11-0.29-0.16-0.6-0.16-0.93c0-0.33,0.05-0.64,0.16-0.93
		c0.11-0.29,0.26-0.54,0.46-0.76s0.44-0.38,0.72-0.5s0.59-0.18,0.92-0.18c0.37,0,0.69,0.08,0.96,0.23c0.27,0.16,0.49,0.34,0.65,0.57
		h0.02v-3.36h0.89v7.19h-0.87v-0.71H81.21z M78.24,229.95c0,0.21,0.03,0.41,0.1,0.61c0.06,0.2,0.16,0.37,0.29,0.52
		c0.13,0.15,0.28,0.27,0.47,0.37c0.18,0.09,0.4,0.14,0.65,0.14c0.23,0,0.44-0.04,0.62-0.13c0.19-0.09,0.35-0.21,0.48-0.36
		c0.13-0.15,0.24-0.32,0.31-0.52c0.07-0.2,0.11-0.4,0.11-0.62s-0.04-0.42-0.11-0.62c-0.07-0.2-0.18-0.37-0.31-0.52
		c-0.13-0.15-0.29-0.27-0.48-0.36s-0.39-0.13-0.62-0.13c-0.25,0-0.46,0.04-0.65,0.13c-0.18,0.09-0.34,0.21-0.47,0.36
		c-0.13,0.15-0.22,0.33-0.29,0.52C78.27,229.54,78.24,229.74,78.24,229.95z"/>
	<path class="st0" d="M86.91,231.49v0.71h-0.87v-7.19h0.89v3.36h0.03c0.15-0.22,0.36-0.41,0.64-0.57c0.27-0.16,0.59-0.23,0.97-0.23
		c0.33,0,0.64,0.06,0.92,0.18c0.28,0.12,0.51,0.29,0.71,0.5s0.35,0.47,0.46,0.76c0.11,0.29,0.16,0.6,0.16,0.93
		c0,0.33-0.05,0.64-0.16,0.93c-0.11,0.29-0.26,0.54-0.46,0.76c-0.2,0.22-0.43,0.38-0.71,0.51c-0.28,0.12-0.59,0.19-0.94,0.19
		c-0.32,0-0.63-0.07-0.92-0.21c-0.29-0.14-0.52-0.35-0.7-0.62H86.91z M89.91,229.95c0-0.21-0.03-0.41-0.1-0.61
		c-0.06-0.2-0.16-0.37-0.29-0.52s-0.28-0.27-0.47-0.36s-0.4-0.13-0.65-0.13c-0.23,0-0.44,0.04-0.62,0.13
		c-0.19,0.09-0.35,0.21-0.48,0.36s-0.24,0.33-0.31,0.52s-0.11,0.4-0.11,0.62s0.04,0.42,0.11,0.62c0.07,0.2,0.18,0.37,0.31,0.52
		c0.13,0.15,0.29,0.27,0.48,0.36c0.19,0.09,0.39,0.13,0.62,0.13c0.25,0,0.46-0.05,0.65-0.14c0.19-0.09,0.34-0.21,0.47-0.37
		c0.13-0.15,0.22-0.33,0.29-0.52C89.88,230.36,89.91,230.16,89.91,229.95z"/>
	<path class="st0" d="M95.25,232.21c-0.01-0.11-0.02-0.24-0.03-0.38c-0.01-0.14-0.01-0.26-0.01-0.36H95.2
		c-0.11,0.24-0.31,0.45-0.58,0.61c-0.27,0.17-0.57,0.25-0.9,0.25c-0.29,0-0.54-0.05-0.76-0.14c-0.21-0.1-0.39-0.23-0.52-0.4
		s-0.24-0.36-0.3-0.58c-0.07-0.22-0.1-0.46-0.1-0.71v-2.8h0.89v2.49c0,0.18,0.01,0.36,0.04,0.53c0.03,0.17,0.08,0.32,0.16,0.44
		s0.18,0.23,0.31,0.3c0.13,0.08,0.3,0.11,0.51,0.11c0.36,0,0.65-0.13,0.88-0.4c0.22-0.27,0.33-0.63,0.33-1.08v-2.4h0.89v3.54
		c0,0.12,0,0.28,0.01,0.47s0.02,0.36,0.03,0.5H95.25z"/>
	<path class="st0" d="M99.82,228.43h-1.2v2.34c0,0.27,0.05,0.47,0.15,0.58c0.1,0.12,0.26,0.18,0.49,0.18c0.08,0,0.17-0.01,0.27-0.03
		s0.18-0.04,0.26-0.08l0.03,0.73c-0.11,0.04-0.23,0.07-0.36,0.09c-0.13,0.02-0.26,0.03-0.4,0.03c-0.42,0-0.75-0.12-0.97-0.35
		s-0.34-0.59-0.34-1.06v-2.44h-0.87v-0.73h0.87v-1.29h0.88v1.29h1.2V228.43z"/>
	<path class="st0" d="M102.8,228.43h-1.2v2.34c0,0.27,0.05,0.47,0.15,0.58c0.1,0.12,0.26,0.18,0.49,0.18c0.08,0,0.17-0.01,0.27-0.03
		s0.18-0.04,0.26-0.08l0.03,0.73c-0.11,0.04-0.23,0.07-0.36,0.09c-0.13,0.02-0.26,0.03-0.4,0.03c-0.42,0-0.75-0.12-0.97-0.35
		s-0.34-0.59-0.34-1.06v-2.44h-0.87v-0.73h0.87v-1.29h0.88v1.29h1.2V228.43z"/>
	<path class="st0" d="M108.29,229.94c0,0.35-0.06,0.67-0.19,0.96c-0.12,0.29-0.29,0.54-0.51,0.76c-0.22,0.21-0.48,0.38-0.77,0.49
		c-0.3,0.12-0.62,0.18-0.96,0.18s-0.66-0.06-0.96-0.18c-0.3-0.12-0.55-0.28-0.77-0.49c-0.22-0.21-0.38-0.46-0.51-0.76
		c-0.12-0.29-0.19-0.61-0.19-0.96c0-0.35,0.06-0.67,0.19-0.96c0.12-0.29,0.29-0.54,0.51-0.75c0.22-0.21,0.47-0.37,0.77-0.49
		c0.3-0.12,0.62-0.18,0.96-0.18s0.66,0.06,0.96,0.18c0.3,0.12,0.56,0.28,0.77,0.49c0.22,0.21,0.39,0.46,0.51,0.75
		C108.23,229.28,108.29,229.59,108.29,229.94z M107.36,229.95c0-0.21-0.03-0.42-0.1-0.62c-0.07-0.2-0.16-0.37-0.29-0.52
		c-0.13-0.15-0.28-0.27-0.47-0.36s-0.4-0.13-0.64-0.13s-0.46,0.04-0.64,0.13s-0.34,0.21-0.47,0.36c-0.13,0.15-0.22,0.32-0.29,0.52
		c-0.07,0.2-0.1,0.4-0.1,0.62c0,0.22,0.03,0.42,0.1,0.62c0.07,0.2,0.16,0.37,0.29,0.52c0.13,0.15,0.28,0.27,0.47,0.36
		c0.19,0.09,0.4,0.13,0.64,0.13s0.46-0.04,0.64-0.13c0.19-0.09,0.34-0.21,0.47-0.36c0.13-0.15,0.22-0.33,0.29-0.52
		C107.33,230.37,107.36,230.16,107.36,229.95z"/>
	<path class="st0" d="M112.68,228.84c-0.1-0.15-0.24-0.27-0.43-0.37c-0.19-0.1-0.39-0.15-0.61-0.15c-0.23,0-0.44,0.04-0.62,0.13
		c-0.18,0.09-0.33,0.21-0.46,0.36c-0.13,0.15-0.22,0.32-0.29,0.52c-0.07,0.2-0.1,0.4-0.1,0.62c0,0.22,0.03,0.42,0.1,0.62
		c0.07,0.2,0.16,0.37,0.29,0.52c0.13,0.15,0.28,0.27,0.47,0.36c0.18,0.09,0.39,0.13,0.63,0.13c0.23,0,0.44-0.04,0.62-0.13
		s0.34-0.21,0.46-0.36l0.6,0.54c-0.19,0.22-0.43,0.39-0.71,0.52c-0.29,0.12-0.61,0.19-0.97,0.19c-0.35,0-0.67-0.06-0.97-0.17
		s-0.55-0.27-0.77-0.48c-0.22-0.21-0.38-0.46-0.51-0.75c-0.12-0.29-0.19-0.62-0.19-0.98c0-0.35,0.06-0.68,0.18-0.97
		c0.12-0.29,0.29-0.54,0.5-0.75c0.22-0.21,0.47-0.37,0.77-0.49c0.29-0.11,0.61-0.17,0.96-0.17c0.32,0,0.63,0.06,0.95,0.19
		c0.31,0.13,0.56,0.31,0.75,0.55L112.68,228.84z"/>
	<path class="st0" d="M115.14,229.66h0.03l1.89-1.96h1.2l-2.11,2.04l2.29,2.46h-1.24l-2.04-2.34h-0.03v2.34h-0.89v-7.19h0.89V229.66
		z"/>
	<path class="st0" d="M121.61,228.84c-0.1-0.17-0.24-0.3-0.43-0.4c-0.18-0.1-0.39-0.16-0.62-0.16c-0.1,0-0.2,0.01-0.3,0.03
		c-0.1,0.02-0.19,0.06-0.27,0.1c-0.08,0.05-0.14,0.11-0.19,0.18c-0.05,0.07-0.07,0.16-0.07,0.27c0,0.19,0.09,0.33,0.26,0.42
		c0.17,0.09,0.43,0.18,0.77,0.25c0.22,0.05,0.42,0.11,0.6,0.18c0.18,0.07,0.34,0.16,0.48,0.26c0.14,0.1,0.24,0.23,0.32,0.38
		s0.11,0.32,0.11,0.51c0,0.27-0.05,0.49-0.15,0.67s-0.24,0.33-0.4,0.45c-0.17,0.12-0.36,0.2-0.58,0.25
		c-0.22,0.05-0.44,0.08-0.67,0.08c-0.34,0-0.68-0.07-1-0.2c-0.33-0.13-0.6-0.34-0.81-0.61l0.64-0.54c0.12,0.18,0.29,0.33,0.5,0.45
		c0.21,0.12,0.45,0.18,0.7,0.18c0.11,0,0.22-0.01,0.33-0.03c0.1-0.02,0.2-0.06,0.29-0.11c0.09-0.05,0.15-0.12,0.2-0.2
		s0.08-0.19,0.08-0.31c0-0.21-0.1-0.37-0.3-0.47c-0.2-0.1-0.49-0.2-0.88-0.29c-0.15-0.04-0.31-0.08-0.46-0.14s-0.3-0.13-0.42-0.22
		c-0.13-0.09-0.23-0.21-0.31-0.36c-0.08-0.14-0.12-0.32-0.12-0.53c0-0.24,0.05-0.45,0.15-0.62c0.1-0.17,0.23-0.32,0.39-0.43
		c0.16-0.11,0.34-0.19,0.54-0.25c0.2-0.05,0.41-0.08,0.63-0.08c0.32,0,0.64,0.06,0.94,0.19c0.3,0.13,0.53,0.31,0.7,0.55
		L121.61,228.84z"/>
	<path class="st0" d="M124.5,231.64c0,0.17-0.06,0.31-0.18,0.44c-0.12,0.13-0.27,0.19-0.46,0.19c-0.18,0-0.33-0.06-0.45-0.18
		c-0.12-0.12-0.19-0.27-0.19-0.43c0-0.17,0.06-0.32,0.18-0.44c0.12-0.12,0.27-0.19,0.46-0.19c0.18,0,0.34,0.06,0.46,0.18
		C124.44,231.32,124.5,231.46,124.5,231.64z"/>
	<path class="st0" d="M128.95,232.21h-0.94v-6.73h2.16c0.32,0,0.63,0.03,0.92,0.1c0.29,0.07,0.55,0.17,0.77,0.32
		c0.22,0.15,0.39,0.34,0.52,0.58c0.13,0.24,0.19,0.53,0.19,0.87c0,0.5-0.15,0.89-0.46,1.2c-0.3,0.3-0.7,0.5-1.18,0.58l1.88,3.09
		h-1.14l-1.71-3h-1.01V232.21z M128.95,228.42h1.08c0.22,0,0.43-0.02,0.62-0.06c0.19-0.04,0.36-0.1,0.5-0.19
		c0.14-0.08,0.26-0.2,0.34-0.33c0.08-0.14,0.12-0.31,0.12-0.51c0-0.2-0.04-0.37-0.12-0.51c-0.08-0.14-0.19-0.25-0.33-0.33
		c-0.14-0.08-0.3-0.14-0.48-0.18c-0.18-0.03-0.38-0.05-0.58-0.05h-1.15V228.42z"/>
	<path class="st0" d="M137.9,229.91c0,0.05,0,0.1,0,0.15s0,0.1-0.01,0.15h-3.58c0.01,0.19,0.05,0.37,0.13,0.53
		c0.08,0.17,0.19,0.31,0.32,0.43c0.13,0.12,0.29,0.22,0.46,0.29s0.36,0.1,0.56,0.1c0.3,0,0.57-0.07,0.79-0.2
		c0.22-0.13,0.4-0.29,0.52-0.49l0.63,0.5c-0.24,0.32-0.52,0.55-0.85,0.71c-0.33,0.15-0.69,0.23-1.09,0.23
		c-0.34,0-0.66-0.06-0.95-0.17s-0.54-0.27-0.75-0.48c-0.21-0.21-0.37-0.46-0.49-0.75c-0.12-0.29-0.18-0.61-0.18-0.97
		c0-0.35,0.06-0.67,0.18-0.96c0.12-0.29,0.28-0.55,0.49-0.76c0.21-0.21,0.46-0.37,0.74-0.49c0.29-0.12,0.59-0.18,0.92-0.18
		s0.63,0.05,0.9,0.16c0.27,0.11,0.5,0.26,0.69,0.47c0.19,0.2,0.33,0.45,0.43,0.74C137.85,229.23,137.9,229.55,137.9,229.91z
		 M136.99,229.55c-0.01-0.18-0.04-0.34-0.09-0.5s-0.13-0.29-0.24-0.4c-0.1-0.11-0.23-0.2-0.39-0.27s-0.34-0.1-0.55-0.1
		c-0.19,0-0.37,0.03-0.54,0.1s-0.31,0.16-0.44,0.27s-0.23,0.25-0.3,0.4c-0.08,0.16-0.13,0.32-0.14,0.5H136.99z"/>
	<path class="st0" d="M141.57,228.84c-0.1-0.17-0.24-0.3-0.43-0.4c-0.18-0.1-0.39-0.16-0.62-0.16c-0.1,0-0.2,0.01-0.3,0.03
		c-0.1,0.02-0.19,0.06-0.27,0.1c-0.08,0.05-0.14,0.11-0.19,0.18c-0.05,0.07-0.07,0.16-0.07,0.27c0,0.19,0.09,0.33,0.26,0.42
		c0.17,0.09,0.43,0.18,0.77,0.25c0.22,0.05,0.42,0.11,0.6,0.18c0.18,0.07,0.34,0.16,0.48,0.26c0.14,0.1,0.24,0.23,0.32,0.38
		s0.11,0.32,0.11,0.51c0,0.27-0.05,0.49-0.15,0.67s-0.24,0.33-0.4,0.45c-0.17,0.12-0.36,0.2-0.58,0.25
		c-0.22,0.05-0.44,0.08-0.67,0.08c-0.34,0-0.68-0.07-1-0.2c-0.33-0.13-0.6-0.34-0.81-0.61l0.64-0.54c0.12,0.18,0.29,0.33,0.5,0.45
		c0.21,0.12,0.45,0.18,0.7,0.18c0.11,0,0.22-0.01,0.33-0.03c0.1-0.02,0.2-0.06,0.29-0.11c0.09-0.05,0.15-0.12,0.2-0.2
		s0.08-0.19,0.08-0.31c0-0.21-0.1-0.37-0.3-0.47c-0.2-0.1-0.49-0.2-0.88-0.29c-0.15-0.04-0.31-0.08-0.46-0.14s-0.3-0.13-0.42-0.22
		c-0.13-0.09-0.23-0.21-0.31-0.36c-0.08-0.14-0.12-0.32-0.12-0.53c0-0.24,0.05-0.45,0.15-0.62c0.1-0.17,0.23-0.32,0.39-0.43
		c0.16-0.11,0.34-0.19,0.54-0.25c0.2-0.05,0.41-0.08,0.63-0.08c0.32,0,0.64,0.06,0.94,0.19c0.3,0.13,0.53,0.31,0.7,0.55
		L141.57,228.84z"/>
	<path class="st0" d="M146.54,232.21c-0.01-0.11-0.02-0.24-0.03-0.38c-0.01-0.14-0.01-0.26-0.01-0.36h-0.02
		c-0.11,0.24-0.31,0.45-0.58,0.61c-0.27,0.17-0.57,0.25-0.9,0.25c-0.29,0-0.54-0.05-0.76-0.14c-0.21-0.1-0.39-0.23-0.52-0.4
		s-0.24-0.36-0.3-0.58c-0.07-0.22-0.1-0.46-0.1-0.71v-2.8h0.89v2.49c0,0.18,0.01,0.36,0.04,0.53c0.03,0.17,0.08,0.32,0.16,0.44
		s0.18,0.23,0.31,0.3c0.13,0.08,0.3,0.11,0.51,0.11c0.36,0,0.65-0.13,0.88-0.4c0.22-0.27,0.33-0.63,0.33-1.08v-2.4h0.89v3.54
		c0,0.12,0,0.28,0.01,0.47s0.02,0.36,0.03,0.5H146.54z"/>
	<path class="st0" d="M149.81,232.21h-0.89v-7.19h0.89V232.21z"/>
	<path class="st0" d="M153.57,228.43h-1.2v2.34c0,0.27,0.05,0.47,0.15,0.58c0.1,0.12,0.26,0.18,0.49,0.18
		c0.08,0,0.17-0.01,0.27-0.03s0.18-0.04,0.26-0.08l0.03,0.73c-0.11,0.04-0.23,0.07-0.36,0.09c-0.13,0.02-0.26,0.03-0.4,0.03
		c-0.42,0-0.75-0.12-0.97-0.35s-0.34-0.59-0.34-1.06v-2.44h-0.87v-0.73h0.87v-1.29h0.88v1.29h1.2V228.43z"/>
	<path class="st0" d="M156.93,228.84c-0.1-0.17-0.24-0.3-0.43-0.4c-0.18-0.1-0.39-0.16-0.62-0.16c-0.1,0-0.2,0.01-0.3,0.03
		c-0.1,0.02-0.19,0.06-0.27,0.1c-0.08,0.05-0.14,0.11-0.19,0.18c-0.05,0.07-0.07,0.16-0.07,0.27c0,0.19,0.09,0.33,0.26,0.42
		c0.17,0.09,0.43,0.18,0.77,0.25c0.22,0.05,0.42,0.11,0.6,0.18c0.18,0.07,0.34,0.16,0.48,0.26c0.14,0.1,0.24,0.23,0.32,0.38
		s0.11,0.32,0.11,0.51c0,0.27-0.05,0.49-0.15,0.67s-0.24,0.33-0.4,0.45c-0.17,0.12-0.36,0.2-0.58,0.25
		c-0.22,0.05-0.44,0.08-0.67,0.08c-0.34,0-0.68-0.07-1-0.2c-0.33-0.13-0.6-0.34-0.81-0.61l0.64-0.54c0.12,0.18,0.29,0.33,0.5,0.45
		c0.21,0.12,0.45,0.18,0.7,0.18c0.11,0,0.22-0.01,0.33-0.03c0.1-0.02,0.2-0.06,0.29-0.11c0.09-0.05,0.15-0.12,0.2-0.2
		s0.08-0.19,0.08-0.31c0-0.21-0.1-0.37-0.3-0.47c-0.2-0.1-0.49-0.2-0.88-0.29c-0.15-0.04-0.31-0.08-0.46-0.14s-0.3-0.13-0.42-0.22
		c-0.13-0.09-0.23-0.21-0.31-0.36c-0.08-0.14-0.12-0.32-0.12-0.53c0-0.24,0.05-0.45,0.15-0.62c0.1-0.17,0.23-0.32,0.39-0.43
		c0.16-0.11,0.34-0.19,0.54-0.25c0.2-0.05,0.41-0.08,0.63-0.08c0.32,0,0.64,0.06,0.94,0.19c0.3,0.13,0.53,0.31,0.7,0.55
		L156.93,228.84z"/>
	<path class="st0" d="M162.52,227.83c0.25-0.17,0.55-0.25,0.89-0.25c0.3,0,0.58,0.07,0.82,0.21s0.44,0.37,0.58,0.69
		c0.15-0.29,0.36-0.51,0.64-0.67c0.27-0.16,0.57-0.23,0.89-0.23c0.29,0,0.54,0.05,0.75,0.15c0.21,0.1,0.38,0.23,0.52,0.39
		c0.14,0.17,0.24,0.36,0.31,0.58c0.07,0.22,0.1,0.46,0.1,0.71v2.8h-0.89v-2.5c0-0.18-0.02-0.36-0.05-0.52
		c-0.03-0.16-0.09-0.31-0.16-0.44s-0.18-0.23-0.3-0.3c-0.13-0.08-0.29-0.11-0.48-0.11c-0.2,0-0.38,0.04-0.52,0.13
		c-0.15,0.08-0.27,0.2-0.36,0.33c-0.09,0.14-0.16,0.29-0.2,0.46c-0.04,0.17-0.06,0.35-0.06,0.52v2.43h-0.89v-2.68
		c0-0.18-0.02-0.34-0.05-0.49c-0.03-0.15-0.09-0.27-0.16-0.38c-0.08-0.1-0.17-0.19-0.29-0.25c-0.12-0.06-0.27-0.09-0.45-0.09
		c-0.33,0-0.6,0.13-0.82,0.4s-0.33,0.63-0.33,1.08v2.4h-0.89v-3.54c0-0.12,0-0.28-0.01-0.47c-0.01-0.19-0.02-0.36-0.03-0.5h0.85
		c0.01,0.11,0.02,0.24,0.03,0.39s0.01,0.26,0.01,0.36h0.03C162.08,228.2,162.27,228,162.52,227.83z"/>
	<path class="st0" d="M172.33,229.29c0-0.34-0.1-0.58-0.3-0.75c-0.2-0.16-0.47-0.24-0.81-0.24c-0.25,0-0.49,0.05-0.72,0.15
		c-0.23,0.1-0.41,0.22-0.57,0.38l-0.48-0.57c0.22-0.21,0.49-0.37,0.81-0.49s0.66-0.18,1.03-0.18c0.32,0,0.6,0.05,0.84,0.14
		s0.43,0.22,0.58,0.38c0.15,0.16,0.27,0.35,0.34,0.56c0.08,0.22,0.11,0.45,0.11,0.69v1.97c0,0.15,0,0.31,0.01,0.48
		c0.01,0.17,0.03,0.31,0.05,0.41h-0.81c-0.05-0.22-0.08-0.43-0.08-0.65h-0.03c-0.17,0.24-0.37,0.43-0.62,0.56
		c-0.25,0.13-0.55,0.2-0.89,0.2c-0.18,0-0.36-0.02-0.56-0.07s-0.37-0.12-0.53-0.23c-0.16-0.11-0.29-0.25-0.39-0.43
		s-0.16-0.4-0.16-0.66c0-0.34,0.09-0.61,0.28-0.81c0.18-0.2,0.42-0.35,0.72-0.46c0.3-0.1,0.63-0.17,1.01-0.2
		c0.37-0.03,0.75-0.05,1.13-0.05V229.29z M172.12,230.06c-0.22,0-0.45,0.01-0.69,0.03c-0.24,0.02-0.45,0.06-0.65,0.11
		c-0.19,0.06-0.35,0.14-0.48,0.26c-0.13,0.11-0.19,0.27-0.19,0.46c0,0.13,0.03,0.24,0.08,0.33s0.12,0.16,0.21,0.22
		c0.09,0.06,0.19,0.1,0.29,0.12c0.11,0.02,0.22,0.03,0.33,0.03c0.42,0,0.74-0.12,0.96-0.38c0.23-0.25,0.34-0.57,0.34-0.95v-0.24
		H172.12z"/>
	<path class="st0" d="M176.39,231.24h0.02l1.25-3.54h0.95l-2.19,5.57c-0.08,0.19-0.16,0.36-0.25,0.51
		c-0.09,0.15-0.19,0.28-0.31,0.38c-0.12,0.1-0.26,0.19-0.42,0.24c-0.16,0.06-0.35,0.09-0.58,0.09c-0.09,0-0.19,0-0.29-0.01
		c-0.1-0.01-0.2-0.03-0.3-0.05l0.09-0.79c0.15,0.05,0.3,0.08,0.45,0.08c0.23,0,0.41-0.07,0.52-0.2c0.11-0.13,0.22-0.32,0.31-0.56
		l0.29-0.75L174,227.7h1L176.39,231.24z"/>
	<path class="st0" d="M183.97,232.21H183l-1.84-4.51h0.99l1.32,3.55h0.02l1.33-3.55h0.95L183.97,232.21z"/>
	<path class="st0" d="M189.45,229.29c0-0.34-0.1-0.58-0.3-0.75c-0.2-0.16-0.47-0.24-0.81-0.24c-0.25,0-0.49,0.05-0.72,0.15
		c-0.23,0.1-0.41,0.22-0.57,0.38l-0.48-0.57c0.22-0.21,0.49-0.37,0.81-0.49s0.66-0.18,1.03-0.18c0.32,0,0.6,0.05,0.84,0.14
		s0.43,0.22,0.58,0.38c0.15,0.16,0.27,0.35,0.34,0.56c0.08,0.22,0.11,0.45,0.11,0.69v1.97c0,0.15,0,0.31,0.01,0.48
		c0.01,0.17,0.03,0.31,0.05,0.41h-0.81c-0.05-0.22-0.08-0.43-0.08-0.65h-0.03c-0.17,0.24-0.37,0.43-0.62,0.56
		c-0.25,0.13-0.55,0.2-0.89,0.2c-0.18,0-0.36-0.02-0.56-0.07s-0.37-0.12-0.53-0.23c-0.16-0.11-0.29-0.25-0.39-0.43
		s-0.16-0.4-0.16-0.66c0-0.34,0.09-0.61,0.28-0.81c0.18-0.2,0.42-0.35,0.72-0.46c0.3-0.1,0.63-0.17,1.01-0.2
		c0.37-0.03,0.75-0.05,1.13-0.05V229.29z M189.23,230.06c-0.22,0-0.45,0.01-0.69,0.03c-0.24,0.02-0.45,0.06-0.65,0.11
		c-0.19,0.06-0.35,0.14-0.48,0.26c-0.13,0.11-0.19,0.27-0.19,0.46c0,0.13,0.03,0.24,0.08,0.33s0.12,0.16,0.21,0.22
		c0.09,0.06,0.19,0.1,0.29,0.12c0.11,0.02,0.22,0.03,0.33,0.03c0.42,0,0.74-0.12,0.96-0.38c0.23-0.25,0.34-0.57,0.34-0.95v-0.24
		H189.23z"/>
	<path class="st0" d="M191.79,228.2c-0.01-0.19-0.02-0.36-0.03-0.5h0.85c0.01,0.11,0.02,0.25,0.03,0.4
		c0.01,0.15,0.01,0.27,0.01,0.37h0.03c0.13-0.27,0.31-0.48,0.56-0.64c0.24-0.16,0.52-0.24,0.82-0.24c0.14,0,0.26,0.01,0.35,0.04
		l-0.04,0.83c-0.13-0.03-0.26-0.05-0.41-0.05c-0.22,0-0.4,0.04-0.56,0.12c-0.16,0.08-0.29,0.19-0.39,0.32
		c-0.1,0.13-0.18,0.29-0.23,0.46c-0.05,0.17-0.08,0.36-0.08,0.55v2.37h-0.89v-3.54C191.8,228.55,191.8,228.39,191.79,228.2z"/>
	<path class="st0" d="M196.95,231.24h0.02l1.25-3.54h0.95l-2.19,5.57c-0.08,0.19-0.16,0.36-0.25,0.51
		c-0.09,0.15-0.19,0.28-0.31,0.38c-0.12,0.1-0.26,0.19-0.42,0.24c-0.16,0.06-0.35,0.09-0.58,0.09c-0.09,0-0.19,0-0.29-0.01
		c-0.1-0.01-0.2-0.03-0.3-0.05l0.09-0.79c0.15,0.05,0.3,0.08,0.45,0.08c0.23,0,0.41-0.07,0.52-0.2c0.11-0.13,0.22-0.32,0.31-0.56
		l0.29-0.75l-1.93-4.51h1L196.95,231.24z"/>
	<path class="st0" d="M200.79,231.64c0,0.17-0.06,0.31-0.18,0.44c-0.12,0.13-0.27,0.19-0.46,0.19c-0.18,0-0.33-0.06-0.45-0.18
		c-0.12-0.12-0.19-0.27-0.19-0.43c0-0.17,0.06-0.32,0.18-0.44c0.12-0.12,0.27-0.19,0.46-0.19c0.18,0,0.34,0.06,0.46,0.18
		C200.73,231.32,200.79,231.46,200.79,231.64z"/>
</g>
</svg>
