<svg id="Layer_1" xmlns="http://www.w3.org/2000/svg" viewBox="0 0 300 250"><style>.st0{fill:#fff}</style><path class="st0" d="M13.82 51.38h1.03c1.01 0 1.41-.27 1.41-1.35V36.7h-.58c-3.17 0-3.84 2.2-4.4 5.66h-.31l.29-5.99h11.92l.25 5.99h-.31c-.54-3.46-1.23-5.66-4.4-5.66h-.58v13.33c0 1.08.38 1.35 1.41 1.35h1.01v.34h-6.73v-.34zM23.09 49.8c0-1.91 1.71-2.92 5.93-3.91v-.65c0-2.15-.85-2.9-2.2-2.9-1.21 0-2.24.52-2.24.92 0 .07.02.09.11.09.45 0 .94.43.94.99 0 .58-.45 1.03-1.01 1.03-.58 0-1.01-.43-1.01-1.08 0-1.17 1.23-2.27 3.64-2.27 1.8 0 3.37.65 3.37 3.3v4.6c0 .94.27 1.23.58 1.23.54 0 .76-.56.79-1.8h.31c-.04 2.13-.79 2.54-1.71 2.54-.88 0-1.68-.49-1.57-2.11h-.04c-.43 1.17-1.77 2.15-3.34 2.15-1.45.03-2.55-.69-2.55-2.13zm5.93-1.93v-1.62c-3.43.7-4.06 1.89-4.06 3.16 0 1.01.54 1.75 1.57 1.75 1.1.01 2.49-.79 2.49-3.29zM32.84 51.4h.09c1.01 0 1.23-.27 1.23-1.35V38c0-1.08-.22-1.35-1.23-1.35h-.18v-.31l3-.34v14.05c0 1.08.22 1.35 1.21 1.35h.18v.31h-4.31v-.31zM38.04 51.4h.11c.99 0 1.21-.25 1.21-1.26V37.93c0-1.03-.22-1.28-1.21-1.28h-.2v-.31l3.01-.34v11.78l3.39-3.64c.45-.47.58-.7.58-.99 0-.34-.4-.54-1.15-.58v-.25h3.95v.25c-1.3.13-1.62.45-2.45 1.28l-1.84 1.89c0-.02 3.25 4.58 3.25 4.58.52.72.72 1.01 1.62 1.08v.31h-4.17v-.29c.72-.07.97-.27.97-.52 0-.13-.04-.25-.29-.61l-2.42-3.48-1.44 1.44v1.89c0 1.01.22 1.26 1.23 1.26h.13v.31h-4.29v-.31zM55.49 49.13v-6.46h-1.53v-.27c1.44-.25 2.63-1.23 2.85-4.13h.29v4.04h3.03v.36H57.1v6.58c0 1.41.52 2.11 1.53 2.11.92 0 1.66-1.01 1.75-2.98h.31c0 2.29-1.01 3.64-2.63 3.64-1.59-.02-2.57-.94-2.57-2.89zM61.61 47c0-2.92 2.29-5.01 4.4-5.01s4.38 2.04 4.38 4.96c0 2.85-2.27 5.1-4.38 5.1s-4.4-2.2-4.4-5.05zm6.9.02c0-2.6-.67-4.71-2.49-4.71-1.82 0-2.49 2.06-2.49 4.67 0 2.58.63 4.76 2.49 4.76 1.86-.01 2.49-2.14 2.49-4.72zM76.68 54.7c0-.7.47-1.19 1.14-1.19.54 0 .92.47.92.94 0 .4-.16.63-.31.79-.13.13-.25.2-.25.38 0 .22.25.38.58.38 1.03 0 1.73-1.41 2.38-2.99l.29-.7-3.37-8.17c-.4-1.01-.72-1.46-1.64-1.53v-.29h4.51v.29c-.79.07-1.14.31-1.17.67-.02.34.09.72.27 1.19l2.22 5.88 2.02-5.3c.2-.52.43-1.14.43-1.57 0-.58-.38-.81-1.23-.88v-.29h3.32v.29c-.99.07-1.23.61-1.59 1.53l-3.61 8.84c-1.12 2.76-1.98 3.39-3.03 3.39-1.23.02-1.88-.74-1.88-1.66zM86.87 47c0-2.92 2.29-5.01 4.4-5.01s4.38 2.04 4.38 4.96c0 2.85-2.27 5.1-4.38 5.1s-4.4-2.2-4.4-5.05zm6.89.02c0-2.6-.67-4.71-2.49-4.71-1.82 0-2.49 2.06-2.49 4.67 0 2.58.63 4.76 2.49 4.76 1.86-.01 2.49-2.14 2.49-4.72zM97.82 48.75V43.9c0-.99-.22-1.28-1.21-1.28h-.2v-.29l3.01-.18v7c0 1.59.61 2.22 1.66 2.22 1.39 0 2.78-1.98 2.78-3.86v-3.59c0-1.03-.22-1.3-1.21-1.3h-.45v-.29l3.28-.18v7.86c0 1.01.25 1.3 1.23 1.3h.16v.29l-2.99.34.11-2.78h-.04c-.58 1.53-1.89 2.78-3.41 2.78-1.77 0-2.72-1.04-2.72-3.19zM107.61 51.4h.16c.99 0 1.21-.25 1.21-1.26v-6.28c0-1.01-.27-1.26-1.21-1.26h-.16v-.27l2.98-.18-.16 3.79h.04c.7-2.45 1.82-3.91 3.3-3.91 1.14 0 1.8.67 1.8 1.46 0 .88-.49 1.32-1.12 1.32-.56 0-1.01-.36-1.01-.92 0-.49.27-.72.47-.9.11-.09.18-.16.18-.27 0-.18-.22-.22-.49-.22-1.62 0-2.99 3.19-2.99 4.96v2.67c0 1.01.22 1.26 1.21 1.26h.52v.31h-4.74v-.3zM121.21 55.98h.27c.99 0 1.21-.25 1.21-1.28V43.9c0-1.03-.22-1.28-1.21-1.28h-.16v-.29l2.92-.18-.07 2.29h.04c.72-1.39 1.68-2.36 3.14-2.36 1.84 0 3.93 1.91 3.93 4.92 0 2.96-2.04 4.94-4.02 4.94-1.53 0-2.47-1.06-3.08-2.42h-.02s.09 1.39.09 2.81v2.38c0 1.03.22 1.28 1.21 1.28h.54v.31h-4.78v-.32zm8.2-8.94c0-2.33-.54-4.6-2.27-4.6-1.1 0-2.9 1.3-2.9 4.58 0 2.31 1.23 4.56 2.85 4.56 1.73 0 2.32-2.11 2.32-4.54zM132.39 51.4h.16c.99 0 1.21-.25 1.21-1.26v-6.28c0-1.01-.27-1.26-1.21-1.26h-.16v-.27l2.98-.18-.16 3.79h.04c.7-2.45 1.82-3.91 3.3-3.91 1.14 0 1.8.67 1.8 1.46 0 .88-.49 1.32-1.12 1.32-.56 0-1.01-.36-1.01-.92 0-.49.27-.72.47-.9.11-.09.18-.16.18-.27 0-.18-.22-.22-.49-.22-1.62 0-2.99 3.19-2.99 4.96v2.67c0 1.01.22 1.26 1.21 1.26h.52v.31h-4.74v-.3zM140.88 47c0-2.92 2.29-5.01 4.4-5.01s4.38 2.04 4.38 4.96c0 2.85-2.27 5.1-4.38 5.1s-4.4-2.2-4.4-5.05zm6.89.02c0-2.6-.67-4.71-2.49-4.71-1.82 0-2.49 2.06-2.49 4.67 0 2.58.63 4.76 2.49 4.76 1.86-.01 2.49-2.14 2.49-4.72zM151.59 44.08c-.43-1.01-.7-1.39-1.62-1.46v-.29h4.49v.29c-.9.07-1.14.29-1.17.65-.02.34.09.76.25 1.17l2.16 5.72 2-5.16c.2-.54.43-1.1.43-1.53 0-.58-.38-.79-1.23-.85v-.29h3.23v.29c-.92.07-1.21.58-1.57 1.46l-3.32 8.08h-.31l-3.34-8.08zM160.61 51.4h.18c.99 0 1.21-.25 1.21-1.26V43.9c0-1.03-.22-1.28-1.21-1.28h-.18v-.29l2.99-.18v7.99c0 1.01.22 1.26 1.21 1.26h.18v.31h-4.38v-.31zm.74-12.84c0-.67.56-1.23 1.23-1.23.67 0 1.24.56 1.24 1.23s-.56 1.23-1.24 1.23c-.67 0-1.23-.56-1.23-1.23zM166.09 47.02c0-2.78 1.77-4.94 3.95-4.94 1.35 0 2.4.94 3.1 2.31h.07c-.04-.63-.07-1.98-.07-3.39v-3.05c0-1.03-.25-1.28-1.23-1.28h-.56v-.31l3.39-.34v14.01c0 1.01.2 1.3 1.19 1.3h.18v.31l-2.96.34.09-2.51h-.07c-.74 1.37-1.68 2.47-3.21 2.47-1.87 0-3.87-1.87-3.87-4.92zm7.05-.02c0-3.34-1.86-4.58-2.83-4.58-1.84 0-2.33 2.09-2.33 4.53 0 2.49.61 4.62 2.31 4.62 1.16.01 2.85-1.61 2.85-4.57zM177.04 47.07c0-3.03 2.11-5.07 4.35-5.07 1.79 0 3.86 1.39 3.86 4.29 0 .07-.02.56-.04.67h-6.33c0 2.47.99 4.38 2.92 4.38 1.73 0 2.6-.88 3.34-1.95l.25.18c-.83 1.39-2.13 2.49-4.08 2.49-2.58-.01-4.27-1.92-4.27-4.99zm5.21-.48c.9 0 1.14-.29 1.14-1.01 0-1.8-.63-3.25-2.06-3.25-1.57 0-2.38 1.68-2.45 4.26h3.37zM186.43 51.4h.16c.99 0 1.21-.25 1.21-1.26v-6.28c0-1.01-.27-1.26-1.21-1.26h-.16v-.27l2.99-.18-.16 3.79h.04c.7-2.45 1.82-3.91 3.3-3.91 1.15 0 1.8.67 1.8 1.46 0 .88-.49 1.32-1.12 1.32-.56 0-1.01-.36-1.01-.92 0-.49.27-.72.47-.9.11-.09.18-.16.18-.27 0-.18-.22-.22-.49-.22-1.62 0-2.99 3.19-2.99 4.96v2.67c0 1.01.22 1.26 1.21 1.26h.52v.31h-4.74v-.3zM10.99 72.75c0-1.91 1.71-2.92 5.93-3.91v-.64c0-2.15-.85-2.9-2.2-2.9-1.21 0-2.24.52-2.24.92 0 .07.02.09.11.09.45 0 .94.43.94.99 0 .58-.45 1.03-1.01 1.03-.58 0-1.01-.43-1.01-1.08 0-1.17 1.23-2.27 3.64-2.27 1.8 0 3.37.65 3.37 3.3v4.6c0 .94.27 1.23.58 1.23.54 0 .76-.56.79-1.8h.31c-.04 2.13-.79 2.54-1.71 2.54-.88 0-1.68-.49-1.57-2.11h-.04c-.43 1.17-1.77 2.15-3.34 2.15-1.45.02-2.55-.7-2.55-2.14zm5.93-1.93V69.2c-3.43.7-4.06 1.89-4.06 3.16 0 1.01.54 1.75 1.57 1.75 1.1.01 2.49-.8 2.49-3.29zM21.77 70.84v-9.97c0-1.03-.22-1.28-1.21-1.28h-.38v-.31l3.17-.34v4.87c0 1.73-.07 3.52-.07 3.52h.04c.85-1.48 1.73-2.31 3.19-2.31 1.95 0 3.86 2.11 3.86 4.89 0 3.1-2.06 4.96-3.93 4.96-1.53 0-2.33-.85-3.1-2.22h-.04l-1.53 2.4h-.29c.22-1.27.29-2.84.29-4.21zm6.71-.87c0-2.47-.58-4.58-2.24-4.58-1.53 0-2.92 1.86-2.92 4.56 0 2.51 1.26 4.58 2.87 4.58 1.33-.01 2.29-1.26 2.29-4.56zM31.71 69.95c0-2.92 2.29-5.01 4.4-5.01s4.38 2.04 4.38 4.96c0 2.85-2.27 5.1-4.38 5.1s-4.4-2.2-4.4-5.05zm6.89.02c0-2.6-.67-4.71-2.49-4.71-1.82 0-2.49 2.06-2.49 4.67 0 2.58.63 4.76 2.49 4.76 1.87-.01 2.49-2.14 2.49-4.72zM42.67 71.7v-4.85c0-.99-.22-1.28-1.21-1.28h-.2v-.29l3.01-.18v7c0 1.59.61 2.22 1.66 2.22 1.39 0 2.78-1.98 2.78-3.86v-3.59c0-1.03-.22-1.3-1.21-1.3h-.45v-.29l3.28-.18v7.86c0 1.01.25 1.3 1.23 1.3h.16v.29l-2.98.34.11-2.78h-.05c-.58 1.53-1.89 2.78-3.41 2.78-1.78-.01-2.72-1.04-2.72-3.19zM53.67 72.08v-6.46h-1.53v-.27c1.44-.25 2.63-1.23 2.85-4.13h.29v4.04h3.03v.36h-3.03v6.58c0 1.41.52 2.11 1.53 2.11.92 0 1.66-1.01 1.75-2.99h.31c0 2.29-1.01 3.64-2.63 3.64-1.58-.01-2.57-.93-2.57-2.88zM65.16 72.75c0-1.91 1.71-2.92 5.93-3.91v-.64c0-2.15-.85-2.9-2.2-2.9-1.21 0-2.24.52-2.24.92 0 .07.02.09.11.09.45 0 .94.43.94.99 0 .58-.45 1.03-1.01 1.03-.58 0-1.01-.43-1.01-1.08 0-1.17 1.23-2.27 3.64-2.27 1.8 0 3.37.65 3.37 3.3v4.6c0 .94.27 1.23.58 1.23.54 0 .76-.56.79-1.8h.31c-.04 2.13-.79 2.54-1.71 2.54-.88 0-1.68-.49-1.57-2.11h-.04c-.43 1.17-1.77 2.15-3.34 2.15-1.45.02-2.55-.7-2.55-2.14zm5.93-1.93V69.2c-3.43.7-4.06 1.89-4.06 3.16 0 1.01.54 1.75 1.57 1.75 1.1.01 2.49-.8 2.49-3.29zM80.04 78.92h.27c.99 0 1.21-.25 1.21-1.28v-10.8c0-1.03-.22-1.28-1.21-1.28h-.16v-.29l2.92-.18-.07 2.29h.04c.72-1.39 1.68-2.36 3.14-2.36 1.84 0 3.93 1.91 3.93 4.92 0 2.96-2.04 4.94-4.02 4.94-1.53 0-2.47-1.06-3.08-2.42h-.02s.09 1.39.09 2.81v2.38c0 1.03.22 1.28 1.21 1.28h.52v.31h-4.78v-.32zm8.2-8.93c0-2.33-.54-4.6-2.27-4.6-1.1 0-2.9 1.3-2.9 4.58 0 2.31 1.23 4.56 2.85 4.56 1.73-.01 2.32-2.11 2.32-4.54zM91.47 70.01c0-3.03 2.11-5.07 4.35-5.07 1.8 0 3.86 1.39 3.86 4.29 0 .07-.02.56-.04.67h-6.33c0 2.47.99 4.38 2.92 4.38 1.73 0 2.6-.88 3.34-1.95l.25.18C98.99 73.9 97.69 75 95.74 75c-2.59 0-4.27-1.91-4.27-4.99zm5.21-.47c.9 0 1.14-.29 1.14-1.01 0-1.8-.63-3.25-2.06-3.25-1.57 0-2.38 1.68-2.45 4.26h3.37zM100.85 74.35h.16c.99 0 1.21-.25 1.21-1.26V66.8c0-1.01-.27-1.26-1.21-1.26h-.16v-.27l2.98-.18-.16 3.79h.04c.7-2.45 1.82-3.91 3.3-3.91 1.14 0 1.8.67 1.8 1.46 0 .88-.49 1.32-1.12 1.32-.56 0-1.01-.36-1.01-.92 0-.49.27-.72.47-.9.11-.09.18-.16.18-.27 0-.18-.22-.22-.49-.22-1.62 0-2.99 3.19-2.99 4.96v2.67c0 1.01.22 1.26 1.21 1.26h.52v.31h-4.74v-.29zM110.73 74.1c-.34 0-.63.27-.81.76h-.22v-3.82h.2c.38 2.2 2.18 3.52 3.95 3.52 1.32 0 2.27-.76 2.27-1.82 0-1.01-.7-1.39-2.96-2.04-1.98-.56-3.34-1.08-3.34-3.03 0-1.62 1.21-2.63 2.92-2.63 1.3 0 1.89.58 2.58.58.36 0 .65-.18.81-.56h.22v3.41h-.2c-.36-1.84-1.64-3.12-3.52-3.12-1.03 0-1.86.67-1.86 1.66 0 1.05.88 1.39 2.76 1.89 2.45.65 3.55 1.35 3.55 3.12 0 1.8-1.37 2.85-3.3 2.85-1.41.01-2.51-.77-3.05-.77zM118.45 69.95c0-2.92 2.29-5.01 4.4-5.01s4.38 2.04 4.38 4.96c0 2.85-2.27 5.1-4.38 5.1s-4.4-2.2-4.4-5.05zm6.89.02c0-2.6-.67-4.71-2.49-4.71-1.82 0-2.49 2.06-2.49 4.67 0 2.58.63 4.76 2.49 4.76 1.87-.01 2.49-2.14 2.49-4.72zM128.33 74.35h.16c.99 0 1.21-.25 1.21-1.26v-6.26c0-1.01-.22-1.28-1.21-1.28h-.16v-.27l2.98-.18-.11 2.76h.04c.61-1.82 2.02-2.78 3.48-2.78 1.82 0 2.65 1.12 2.65 3.34v4.67c0 1.01.22 1.26 1.23 1.26h.04v.31h-4.33v-.31h.22c1.01 0 1.23-.25 1.23-1.26v-5.23c0-1.57-.67-2.06-1.57-2.06-1.64 0-2.87 1.64-2.87 3.64v3.66c0 1.01.22 1.26 1.21 1.26h.22v.31h-4.44v-.32zM139.53 72.75c0-1.91 1.71-2.92 5.93-3.91v-.64c0-2.15-.85-2.9-2.2-2.9-1.21 0-2.24.52-2.24.92 0 .07.02.09.11.09.45 0 .94.43.94.99 0 .58-.45 1.03-1.01 1.03-.58 0-1.01-.43-1.01-1.08 0-1.17 1.23-2.27 3.64-2.27 1.8 0 3.37.65 3.37 3.3v4.6c0 .94.27 1.23.58 1.23.54 0 .76-.56.79-1.8h.31c-.04 2.13-.79 2.54-1.71 2.54-.88 0-1.68-.49-1.57-2.11h-.04c-.43 1.17-1.77 2.15-3.34 2.15-1.45.02-2.55-.7-2.55-2.14zm5.93-1.93V69.2c-3.43.7-4.06 1.89-4.06 3.16 0 1.01.54 1.75 1.57 1.75 1.1.01 2.49-.8 2.49-3.29zM149.28 74.35h.09c1.01 0 1.23-.27 1.23-1.35V60.95c0-1.08-.22-1.35-1.23-1.35h-.18v-.31l3.01-.34V73c0 1.08.22 1.35 1.21 1.35h.18v.31h-4.31v-.31zM154.44 74.35h.18c.99 0 1.21-.25 1.21-1.26v-6.24c0-1.03-.22-1.28-1.21-1.28h-.18v-.29l2.99-.18v7.99c0 1.01.22 1.26 1.21 1.26h.18v.31h-4.38v-.31zm.74-12.84c0-.67.56-1.23 1.23-1.23.67 0 1.24.56 1.24 1.23s-.56 1.23-1.24 1.23c-.67 0-1.23-.56-1.23-1.23zM159.76 74.44l6.15-8.87h-2.02c-2.09 0-2.92 1.05-3.5 3.41h-.22l.25-3.7h7.36v.18l-6.17 8.91h2.56c2.36 0 3.1-1.39 3.5-3.61h.22l-.25 3.91h-7.88v-.23zM169.19 70.01c0-3.03 2.11-5.07 4.35-5.07 1.79 0 3.86 1.39 3.86 4.29 0 .07-.02.56-.04.67h-6.33c0 2.47.99 4.38 2.92 4.38 1.73 0 2.6-.88 3.34-1.95l.25.18c-.83 1.39-2.13 2.49-4.08 2.49-2.59 0-4.27-1.91-4.27-4.99zm5.2-.47c.9 0 1.14-.29 1.14-1.01 0-1.8-.63-3.25-2.06-3.25-1.57 0-2.38 1.68-2.45 4.26h3.37zM178.82 69.97c0-2.78 1.77-4.94 3.95-4.94 1.35 0 2.4.94 3.1 2.31h.07c-.04-.63-.07-1.98-.07-3.39V60.9c0-1.03-.25-1.28-1.23-1.28h-.56v-.31l3.39-.34v14.01c0 1.01.2 1.3 1.19 1.3h.18v.31l-2.96.34.09-2.51h-.07c-.74 1.37-1.68 2.47-3.21 2.47-1.87-.01-3.87-1.87-3.87-4.92zm7.05-.02c0-3.34-1.86-4.58-2.83-4.58-1.84 0-2.33 2.09-2.33 4.53 0 2.49.61 4.62 2.31 4.62 1.16 0 2.85-1.61 2.85-4.57zM12 95.03v-6.46h-1.53v-.27c1.44-.25 2.63-1.23 2.85-4.13h.29v4.04h3.03v.36h-3.03v6.58c0 1.41.52 2.11 1.53 2.11.92 0 1.66-1.01 1.75-2.99h.31c0 2.29-1.01 3.64-2.63 3.64-1.58-.01-2.57-.93-2.57-2.88zM17.89 97.29h.16c.99 0 1.21-.25 1.21-1.26v-6.28c0-1.01-.27-1.26-1.21-1.26h-.16v-.27l2.98-.18-.16 3.79h.04c.7-2.45 1.82-3.91 3.3-3.91 1.14 0 1.8.67 1.8 1.46 0 .88-.49 1.32-1.12 1.32-.56 0-1.01-.36-1.01-.92 0-.49.27-.72.47-.9.11-.09.18-.16.18-.27 0-.18-.22-.22-.49-.22-1.62 0-2.99 3.19-2.99 4.96v2.67c0 1.01.22 1.26 1.21 1.26h.52v.31h-4.74v-.3zM26.37 92.96c0-3.03 2.11-5.07 4.35-5.07 1.8 0 3.86 1.39 3.86 4.29 0 .07-.02.56-.04.67h-6.33c0 2.47.99 4.38 2.92 4.38 1.73 0 2.6-.88 3.34-1.95l.25.18c-.83 1.39-2.13 2.49-4.09 2.49-2.58-.01-4.26-1.91-4.26-4.99zm5.21-.47c.9 0 1.14-.29 1.14-1.01 0-1.8-.63-3.25-2.06-3.25-1.57 0-2.38 1.68-2.45 4.27h3.37zM35.96 95.7c0-1.91 1.71-2.92 5.93-3.91v-.65c0-2.15-.85-2.9-2.2-2.9-1.21 0-2.24.52-2.24.92 0 .07.02.09.11.09.45 0 .94.43.94.99 0 .58-.45 1.03-1.01 1.03-.58 0-1.01-.43-1.01-1.08 0-1.17 1.23-2.27 3.64-2.27 1.8 0 3.37.65 3.37 3.3v4.6c0 .94.27 1.23.58 1.23.54 0 .76-.56.79-1.79h.31c-.04 2.13-.79 2.54-1.71 2.54-.88 0-1.68-.49-1.57-2.11h-.04c-.43 1.17-1.77 2.16-3.34 2.16-1.45 0-2.55-.71-2.55-2.15zm5.92-1.93v-1.62c-3.43.7-4.06 1.88-4.06 3.17 0 1.01.54 1.75 1.57 1.75 1.1 0 2.49-.81 2.49-3.3zM46.69 95.03v-6.46h-1.53v-.27c1.44-.25 2.63-1.23 2.85-4.13h.29v4.04h3.03v.36H48.3v6.58c0 1.41.52 2.11 1.53 2.11.92 0 1.66-1.01 1.75-2.99h.31c0 2.29-1.01 3.64-2.63 3.64-1.59-.01-2.57-.93-2.57-2.88zM52.57 97.29h.16c.99 0 1.21-.25 1.21-1.26v-6.26c0-1.01-.22-1.28-1.21-1.28h-.16v-.27l2.98-.18-.11 2.76h.04c.58-1.75 1.95-2.78 3.41-2.78 1.71 0 2.38 1.08 2.56 2.54.7-1.57 1.93-2.54 3.34-2.54 1.82 0 2.58 1.12 2.58 3.34v4.67c0 1.01.22 1.26 1.23 1.26h.04v.31h-4.33v-.31h.22c1.01 0 1.23-.25 1.23-1.26V90.8c0-1.57-.61-2.07-1.5-2.07-1.64 0-2.81 1.8-2.81 3.64v3.66c0 1.01.22 1.26 1.23 1.26h.2v.31h-4.49v-.31h.22c1.01 0 1.23-.25 1.23-1.26V90.8c0-1.57-.61-2.07-1.5-2.07-1.62 0-2.81 1.73-2.81 3.64v3.66c0 1.01.22 1.26 1.21 1.26h.22v.31h-4.44v-.31zM69.58 92.96c0-3.03 2.11-5.07 4.35-5.07 1.8 0 3.86 1.39 3.86 4.29 0 .07-.02.56-.04.67h-6.33c0 2.47.99 4.38 2.92 4.38 1.73 0 2.6-.88 3.34-1.95l.25.18c-.83 1.39-2.13 2.49-4.09 2.49-2.57-.01-4.26-1.91-4.26-4.99zm5.21-.47c.9 0 1.14-.29 1.14-1.01 0-1.8-.63-3.25-2.06-3.25-1.57 0-2.38 1.68-2.45 4.27h3.37zM78.97 97.29h.16c.99 0 1.21-.25 1.21-1.26v-6.26c0-1.01-.22-1.28-1.21-1.28h-.16v-.27l2.98-.18-.11 2.76h.04c.61-1.82 2.02-2.78 3.48-2.78 1.82 0 2.65 1.12 2.65 3.34v4.67c0 1.01.22 1.26 1.23 1.26h.04v.31h-4.33v-.31h.22c1.01 0 1.23-.25 1.23-1.26V90.8c0-1.57-.67-2.07-1.57-2.07-1.64 0-2.87 1.64-2.87 3.64v3.66c0 1.01.22 1.26 1.21 1.26h.22v.31h-4.44v-.31zM91.18 95.03v-6.46h-1.53v-.27c1.44-.25 2.63-1.23 2.85-4.13h.29v4.04h3.03v.36H92.8v6.58c0 1.41.52 2.11 1.53 2.11.92 0 1.66-1.01 1.75-2.99h.31c0 2.29-1.01 3.64-2.63 3.64-1.59-.01-2.58-.93-2.58-2.88zM102.2 101.87h.27c.99 0 1.21-.25 1.21-1.28V89.8c0-1.03-.22-1.28-1.21-1.28h-.16v-.29l2.92-.18-.07 2.29h.04c.72-1.39 1.68-2.36 3.14-2.36 1.84 0 3.93 1.91 3.93 4.92 0 2.96-2.04 4.94-4.02 4.94-1.53 0-2.47-1.05-3.08-2.42h-.02s.09 1.39.09 2.81v2.38c0 1.03.22 1.28 1.21 1.28h.52v.31h-4.78v-.33zm8.19-8.93c0-2.33-.54-4.6-2.27-4.6-1.1 0-2.9 1.3-2.9 4.58 0 2.31 1.23 4.56 2.85 4.56 1.74-.01 2.32-2.12 2.32-4.54zM113.38 97.29h.09c1.01 0 1.23-.27 1.23-1.35V83.89c0-1.08-.22-1.35-1.23-1.35h-.18v-.31l3.01-.34v14.05c0 1.08.22 1.35 1.21 1.35h.18v.31h-4.31v-.31zM118.7 95.7c0-1.91 1.71-2.92 5.93-3.91v-.65c0-2.15-.85-2.9-2.2-2.9-1.21 0-2.24.52-2.24.92 0 .07.02.09.11.09.45 0 .94.43.94.99 0 .58-.45 1.03-1.01 1.03-.58 0-1.01-.43-1.01-1.08 0-1.17 1.23-2.27 3.64-2.27 1.8 0 3.37.65 3.37 3.3v4.6c0 .94.27 1.23.58 1.23.54 0 .76-.56.79-1.79h.31c-.04 2.13-.79 2.54-1.71 2.54-.88 0-1.68-.49-1.57-2.11h-.04c-.43 1.17-1.77 2.16-3.34 2.16-1.45 0-2.55-.71-2.55-2.15zm5.93-1.93v-1.62c-3.43.7-4.06 1.88-4.06 3.17 0 1.01.54 1.75 1.57 1.75 1.09 0 2.49-.81 2.49-3.3zM128.44 97.29h.16c.99 0 1.21-.25 1.21-1.26v-6.26c0-1.01-.22-1.28-1.21-1.28h-.16v-.27l2.98-.18-.11 2.76h.04c.61-1.82 2.02-2.78 3.48-2.78 1.82 0 2.65 1.12 2.65 3.34v4.67c0 1.01.22 1.26 1.23 1.26h.04v.31h-4.33v-.31h.22c1.01 0 1.23-.25 1.23-1.26V90.8c0-1.57-.67-2.07-1.57-2.07-1.64 0-2.87 1.64-2.87 3.64v3.66c0 1.01.22 1.26 1.21 1.26h.22v.31h-4.44v-.31zM140.25 96.49c0-.72.56-1.28 1.28-1.28s1.28.56 1.28 1.28-.56 1.28-1.28 1.28-1.28-.57-1.28-1.28z"/></svg>