<svg id="Layer_1" xmlns="http://www.w3.org/2000/svg" viewBox="0 0 300 250"><style>.st0{fill:#fff}</style><path class="st0" d="M12.85 50.69c0-.74.45-1.35 1.17-1.35s1.17.52 1.17 1.21c0 .47-.22.76-.56 1.01-.18.13-.36.22-.36.36-.02.47.79.7 1.41.7 3.05 0 3.75-3.52 3.64-7.63-.63 1.19-1.73 1.93-2.9 1.93-2.36 0-3.95-1.59-3.95-4.38 0-2.87 2.02-4.76 4.33-4.76 2.81 0 4.49 2.63 4.49 6.89 0 4.67-2.36 8.28-5.59 8.28-1.86.01-2.85-1.2-2.85-2.26zm6.49-8.28c0-2.2-.72-4.33-2.49-4.33-1.75 0-2.38 2.2-2.38 4.4 0 2.4.61 4.06 2.27 4.06 1.52 0 2.6-1.93 2.6-4.13zM28.3 47.95c0-2.92 2.29-5.01 4.4-5.01s4.38 2.04 4.38 4.96c0 2.85-2.27 5.1-4.38 5.1s-4.4-2.2-4.4-5.05zm6.89.03c0-2.6-.67-4.71-2.49-4.71-1.82 0-2.49 2.06-2.49 4.67 0 2.58.63 4.76 2.49 4.76 1.86-.01 2.49-2.14 2.49-4.72zM39.21 49.7v-4.85c0-.99-.22-1.28-1.21-1.28h-.2v-.29l3.01-.18v7c0 1.59.61 2.22 1.66 2.22 1.39 0 2.78-1.98 2.78-3.86v-3.59c0-1.03-.22-1.3-1.21-1.3h-.45v-.29l3.28-.18v7.86c0 1.01.25 1.3 1.23 1.3h.16v.29l-2.98.34.11-2.78h-.04c-.58 1.53-1.89 2.78-3.41 2.78-1.79 0-2.73-1.03-2.73-3.19zM50.17 50.09v-6.46h-1.53v-.27c1.44-.25 2.63-1.23 2.85-4.13h.29v4.04h3.03v.36h-3.03v6.58c0 1.41.52 2.11 1.53 2.11.92 0 1.66-1.01 1.75-2.98h.31c0 2.29-1.01 3.64-2.63 3.64-1.58-.02-2.57-.94-2.57-2.89zM61.62 47.95c0-2.92 2.29-5.01 4.4-5.01s4.38 2.04 4.38 4.96c0 2.85-2.27 5.1-4.38 5.1s-4.4-2.2-4.4-5.05zm6.89.03c0-2.6-.67-4.71-2.49-4.71-1.82 0-2.49 2.06-2.49 4.67 0 2.58.63 4.76 2.49 4.76 1.86-.01 2.49-2.14 2.49-4.72zM71.72 52.35h.18c.99 0 1.21-.25 1.21-1.26v-7.47h-1.39v-.34h1.39v-1.55c0-2.56 1.21-4.74 3.64-4.74 1.35 0 2.09.76 2.09 1.73 0 .74-.49 1.17-1.1 1.17s-.99-.38-.99-.97c0-.38.18-.65.36-.83.13-.13.25-.25.25-.38 0-.22-.31-.45-.74-.45-1.53 0-1.89 1.62-1.89 3.84v2.18h2.29v.34h-2.29v7.47c0 1.01.22 1.26 1.21 1.26h.43v.31h-4.65v-.31zM83.6 52.33h.83c.97 0 1.35-.27 1.35-1.28v-10.1c0-1.01-.38-1.28-1.35-1.28h-.83v-.34c2.45-.18 3.32-.85 3.7-1.64h.27v13.35c0 1.01.36 1.28 1.32 1.28h.65v.34H83.6v-.33zM91.08 45.39c0-4.62 2.45-7.61 4.96-7.61s4.87 2.99 4.87 7.61-2.45 7.63-4.94 7.63c-2.51.01-4.89-3-4.89-7.63zm7.74 0c0-4.83-.99-7.29-2.85-7.29-1.91 0-2.81 2.47-2.81 7.29s.99 7.32 2.87 7.32 2.79-2.49 2.79-7.32zM107.38 56.93h.27c.99 0 1.21-.25 1.21-1.28v-10.8c0-1.03-.22-1.28-1.21-1.28h-.16v-.29l2.92-.18-.07 2.29h.04c.72-1.39 1.68-2.36 3.14-2.36 1.84 0 3.93 1.91 3.93 4.92 0 2.96-2.04 4.94-4.02 4.94-1.53 0-2.47-1.06-3.08-2.42h-.02s.09 1.39.09 2.81v2.38c0 1.03.22 1.28 1.21 1.28h.52v.31h-4.78v-.32zm8.19-8.93c0-2.33-.54-4.6-2.27-4.6-1.1 0-2.9 1.3-2.9 4.58 0 2.31 1.23 4.56 2.85 4.56 1.74-.01 2.32-2.12 2.32-4.54zM118.72 50.76c0-1.91 1.71-2.92 5.93-3.91v-.65c0-2.15-.85-2.9-2.2-2.9-1.21 0-2.24.52-2.24.92 0 .07.02.09.11.09.45 0 .94.43.94.99 0 .58-.45 1.03-1.01 1.03-.58 0-1.01-.43-1.01-1.08 0-1.17 1.23-2.27 3.64-2.27 1.8 0 3.37.65 3.37 3.3v4.6c0 .94.27 1.23.58 1.23.54 0 .76-.56.79-1.8h.31c-.04 2.13-.79 2.54-1.71 2.54-.88 0-1.68-.49-1.57-2.11h-.04c-.43 1.17-1.77 2.15-3.34 2.15-1.45.02-2.55-.69-2.55-2.13zm5.92-1.93v-1.62c-3.43.7-4.06 1.89-4.06 3.16 0 1.01.54 1.75 1.57 1.75 1.1.01 2.49-.8 2.49-3.29zM129.4 50.09v-6.46h-1.53v-.27c1.44-.25 2.63-1.23 2.85-4.13h.29v4.04h3.03v.36h-3.03v6.58c0 1.41.52 2.11 1.53 2.11.92 0 1.66-1.01 1.75-2.98h.31c0 2.29-1.01 3.64-2.63 3.64-1.58-.02-2.57-.94-2.57-2.89zM135.29 52.35h.18c.99 0 1.21-.25 1.21-1.26v-6.24c0-1.03-.22-1.28-1.21-1.28h-.18v-.29l2.98-.18v7.99c0 1.01.22 1.26 1.21 1.26h.18v.31h-4.38v-.31zm.74-12.84c0-.67.56-1.23 1.23-1.23s1.23.56 1.23 1.23-.56 1.23-1.23 1.23-1.23-.55-1.23-1.23zM140.72 48.02c0-3.03 2.11-5.07 4.35-5.07 1.79 0 3.86 1.39 3.86 4.29 0 .07-.02.56-.04.67h-6.33c0 2.47.99 4.38 2.92 4.38 1.73 0 2.6-.88 3.34-1.95l.25.18c-.83 1.39-2.13 2.49-4.08 2.49-2.59-.01-4.27-1.91-4.27-4.99zm5.21-.47c.9 0 1.14-.29 1.14-1.01 0-1.8-.63-3.25-2.06-3.25-1.57 0-2.38 1.68-2.45 4.26h3.37zM150.06 52.35h.16c.99 0 1.21-.25 1.21-1.26v-6.26c0-1.01-.22-1.28-1.21-1.28h-.16v-.27l2.99-.18-.11 2.76h.04c.61-1.82 2.02-2.78 3.48-2.78 1.82 0 2.65 1.12 2.65 3.34v4.67c0 1.01.22 1.26 1.24 1.26h.04v.31h-4.33v-.31h.22c1.01 0 1.24-.25 1.24-1.26v-5.23c0-1.57-.67-2.06-1.57-2.06-1.64 0-2.87 1.64-2.87 3.64v3.66c0 1.01.22 1.26 1.21 1.26h.22v.31h-4.44v-.32zM162.23 50.09v-6.46h-1.53v-.27c1.44-.25 2.63-1.23 2.85-4.13h.29v4.04h3.03v.36h-3.03v6.58c0 1.41.52 2.11 1.53 2.11.92 0 1.66-1.01 1.75-2.98h.31c0 2.29-1.01 3.64-2.63 3.64-1.59-.02-2.57-.94-2.57-2.89zM169.7 52.11c-.34 0-.63.27-.81.76h-.22v-3.82h.2c.38 2.2 2.18 3.52 3.95 3.52 1.33 0 2.27-.76 2.27-1.82 0-1.01-.7-1.39-2.96-2.04-1.98-.56-3.34-1.08-3.34-3.03 0-1.62 1.21-2.63 2.92-2.63 1.3 0 1.89.58 2.58.58.36 0 .65-.18.81-.56h.22v3.41h-.2c-.36-1.84-1.64-3.12-3.52-3.12-1.03 0-1.86.67-1.86 1.66 0 1.05.88 1.39 2.76 1.89 2.45.65 3.55 1.35 3.55 3.12 0 1.8-1.37 2.85-3.3 2.85-1.41.01-2.51-.77-3.05-.77zM12 75.3h.16c.99 0 1.21-.25 1.21-1.26v-6.28c0-1.01-.27-1.26-1.21-1.26H12v-.27l2.98-.18-.16 3.79h.04c.7-2.45 1.82-3.91 3.3-3.91 1.14 0 1.8.67 1.8 1.46 0 .88-.49 1.32-1.12 1.32-.56 0-1.01-.36-1.01-.92 0-.49.27-.72.47-.9.11-.09.18-.16.18-.27 0-.18-.22-.22-.49-.22-1.62 0-2.99 3.19-2.99 4.96v2.67c0 1.01.22 1.26 1.21 1.26h.52v.31H12v-.3zM20.44 70.97c0-3.03 2.11-5.07 4.35-5.07 1.8 0 3.86 1.39 3.86 4.29 0 .07-.02.56-.04.67h-6.33c0 2.47.99 4.38 2.92 4.38 1.73 0 2.6-.88 3.34-1.95l.25.18c-.83 1.39-2.13 2.49-4.09 2.49-2.58 0-4.26-1.91-4.26-4.99zm5.21-.47c.9 0 1.14-.29 1.14-1.01 0-1.8-.63-3.25-2.06-3.25-1.57 0-2.38 1.68-2.45 4.26h3.37zM29.51 79.88h.27c.99 0 1.21-.25 1.21-1.28V67.8c0-1.03-.22-1.28-1.21-1.28h-.16v-.29l2.92-.18-.07 2.29h.04c.72-1.39 1.68-2.36 3.14-2.36 1.84 0 3.93 1.91 3.93 4.92 0 2.96-2.04 4.94-4.02 4.94-1.53 0-2.47-1.06-3.08-2.42h-.02s.09 1.39.09 2.81v2.38c0 1.03.22 1.28 1.21 1.28h.52v.31H29.5v-.32zm8.2-8.93c0-2.33-.54-4.6-2.27-4.6-1.1 0-2.9 1.3-2.9 4.58 0 2.31 1.23 4.56 2.85 4.56 1.73-.01 2.32-2.12 2.32-4.54zM40.9 70.9c0-2.92 2.29-5.01 4.4-5.01s4.38 2.04 4.38 4.96c0 2.85-2.27 5.1-4.38 5.1s-4.4-2.19-4.4-5.05zm6.89.03c0-2.6-.67-4.71-2.49-4.71-1.82 0-2.49 2.06-2.49 4.67 0 2.58.63 4.76 2.49 4.76 1.86-.01 2.49-2.14 2.49-4.72zM50.73 75.3h.16c.99 0 1.21-.25 1.21-1.26v-6.28c0-1.01-.27-1.26-1.21-1.26h-.16v-.27l2.98-.18-.16 3.79h.04c.7-2.45 1.82-3.91 3.3-3.91 1.14 0 1.8.67 1.8 1.46 0 .88-.49 1.32-1.12 1.32-.56 0-1.01-.36-1.01-.92 0-.49.27-.72.47-.9.11-.09.18-.16.18-.27 0-.18-.22-.22-.49-.22-1.62 0-2.99 3.19-2.99 4.96v2.67c0 1.01.22 1.26 1.21 1.26h.52v.31h-4.74v-.3zM60.63 73.04v-6.46H59.1v-.28c1.44-.25 2.63-1.23 2.85-4.13h.29v4.04h3.03v.36h-3.03v6.58c0 1.41.52 2.11 1.53 2.11.92 0 1.66-1.01 1.75-2.98h.31c0 2.29-1.01 3.64-2.63 3.64-1.58-.01-2.57-.93-2.57-2.88zM66.72 70.97c0-3.03 2.11-5.07 4.35-5.07 1.8 0 3.86 1.39 3.86 4.29 0 .07-.02.56-.04.67h-6.33c0 2.47.99 4.38 2.92 4.38 1.73 0 2.6-.88 3.34-1.95l.25.18c-.83 1.39-2.13 2.49-4.09 2.49-2.58 0-4.26-1.91-4.26-4.99zm5.2-.47c.9 0 1.14-.29 1.14-1.01 0-1.8-.63-3.25-2.06-3.25-1.57 0-2.38 1.68-2.45 4.26h3.37zM76.3 70.93c0-2.78 1.77-4.94 3.95-4.94 1.35 0 2.4.94 3.1 2.31h.07c-.04-.63-.07-1.98-.07-3.39v-3.05c0-1.03-.25-1.28-1.23-1.28h-.56v-.31l3.39-.34v14.01c0 1.01.2 1.3 1.19 1.3h.18v.31l-2.96.34.09-2.51h-.07c-.74 1.37-1.68 2.47-3.21 2.47-1.87-.01-3.87-1.87-3.87-4.92zm7.05-.03c0-3.34-1.86-4.58-2.83-4.58-1.84 0-2.33 2.09-2.33 4.53 0 2.49.61 4.62 2.31 4.62 1.17.01 2.85-1.6 2.85-4.57zM93.37 71.8v-9.97c0-1.03-.22-1.28-1.21-1.28h-.38v-.31l3.17-.34v4.87c0 1.73-.07 3.52-.07 3.52h.04c.85-1.48 1.73-2.31 3.19-2.31 1.95 0 3.86 2.11 3.86 4.89 0 3.1-2.06 4.96-3.93 4.96-1.53 0-2.33-.85-3.1-2.22h-.04l-1.53 2.4h-.29c.22-1.27.29-2.84.29-4.21zm6.71-.87c0-2.47-.58-4.58-2.24-4.58-1.53 0-2.92 1.86-2.92 4.56 0 2.51 1.26 4.58 2.87 4.58 1.32-.01 2.29-1.26 2.29-4.56zM103.27 70.97c0-3.03 2.11-5.07 4.35-5.07 1.8 0 3.86 1.39 3.86 4.29 0 .07-.02.56-.04.67h-6.33c0 2.47.99 4.38 2.92 4.38 1.73 0 2.6-.88 3.34-1.95l.25.18c-.83 1.39-2.13 2.49-4.09 2.49-2.58 0-4.26-1.91-4.26-4.99zm5.21-.47c.9 0 1.14-.29 1.14-1.01 0-1.8-.63-3.25-2.06-3.25-1.57 0-2.38 1.68-2.45 4.26h3.37zM112.65 75.3h.18c.99 0 1.21-.25 1.21-1.26V67.8c0-1.03-.22-1.28-1.21-1.28h-.18v-.29l2.98-.18v7.99c0 1.01.22 1.26 1.21 1.26h.18v.31h-4.38v-.31zm.74-12.84c0-.67.56-1.23 1.23-1.23s1.23.56 1.23 1.23-.56 1.23-1.23 1.23-1.23-.55-1.23-1.23zM117.84 75.3h.16c.99 0 1.21-.25 1.21-1.26v-6.26c0-1.01-.22-1.28-1.21-1.28h-.16v-.27l2.98-.18-.11 2.76h.04c.61-1.82 2.02-2.78 3.48-2.78 1.82 0 2.65 1.12 2.65 3.34v4.67c0 1.01.22 1.26 1.23 1.26h.04v.31h-4.33v-.31h.22c1.01 0 1.23-.25 1.23-1.26v-5.23c0-1.57-.67-2.06-1.57-2.06-1.64 0-2.87 1.64-2.87 3.64v3.66c0 1.01.22 1.26 1.21 1.26h.22v.31h-4.44v-.32zM128.62 78.04c0-1.26 1.3-2.33 3.64-2.36-1.57-.18-2.9-.56-2.9-1.57 0-.79.74-1.3 1.59-1.82-.94-.61-1.66-1.71-1.66-2.9 0-2.06 1.71-3.5 3.82-3.5 1.14 0 2.06.34 2.87 1.19.31-.52.83-1.19 1.59-1.19.67 0 1.19.43 1.19 1.1 0 .47-.34.9-.83.9s-.76-.43-.76-.88c0-.29-.04-.45-.22-.45-.22 0-.47.27-.72.74.45.67.67 1.37.67 2.09 0 2.04-1.71 3.52-3.79 3.52-.63 0-1.35-.22-1.86-.47-.47.29-.81.61-.81 1.08s.67.81 2.99.83c2.04.02 4.58.4 4.58 2.76 0 1.91-2.15 3.12-4.92 3.12-2.45.01-4.47-.71-4.47-2.19zm8.57-.38c0-1.05-1.14-1.82-3.95-1.82-2.58 0-3.3 1.19-3.3 2.18 0 1.44 1.82 1.91 3.28 1.91 2.24 0 3.97-1.01 3.97-2.27zm-2.09-8.26c0-1.41-.38-3.21-2-3.21-1.64 0-2 1.8-2 3.21s.36 3.21 2 3.21c1.62 0 2-1.8 2-3.21zM145.52 64.4c0-1.37.72-2.78 2.47-4.26l.22.25c-1.68 1.39-2.22 2.78-2.22 3.41 0 .63.4.18.96.18.72 0 1.17.58 1.17 1.19 0 .67-.45 1.17-1.19 1.17-.73-.01-1.41-.6-1.41-1.94zm3.62 0c0-1.37.72-2.78 2.47-4.26l.22.25c-1.68 1.39-2.22 2.78-2.22 3.41 0 .63.4.18.97.18.72 0 1.17.58 1.17 1.19 0 .67-.45 1.17-1.19 1.17-.75-.01-1.42-.6-1.42-1.94zM154.84 75.06c-.34 0-.63.27-.81.76h-.22V72h.2c.38 2.2 2.18 3.52 3.95 3.52 1.33 0 2.27-.76 2.27-1.82 0-1.01-.7-1.39-2.96-2.04-1.98-.56-3.34-1.08-3.34-3.03 0-1.62 1.21-2.63 2.92-2.63 1.3 0 1.89.58 2.58.58.36 0 .65-.18.81-.56h.22v3.41h-.2c-.36-1.84-1.64-3.12-3.52-3.12-1.03 0-1.86.67-1.86 1.66 0 1.05.88 1.39 2.76 1.89 2.45.65 3.55 1.35 3.55 3.12 0 1.8-1.37 2.85-3.3 2.85-1.41.01-2.51-.77-3.05-.77zM162.48 73.71c0-1.91 1.71-2.92 5.93-3.91v-.65c0-2.15-.85-2.9-2.2-2.9-1.21 0-2.24.52-2.24.92 0 .07.02.09.11.09.45 0 .94.43.94.99 0 .58-.45 1.03-1.01 1.03-.58 0-1.01-.43-1.01-1.08 0-1.17 1.23-2.27 3.64-2.27 1.8 0 3.37.65 3.37 3.3v4.6c0 .94.27 1.23.58 1.23.54 0 .76-.56.79-1.8h.31c-.04 2.13-.79 2.54-1.71 2.54-.88 0-1.68-.49-1.57-2.11h-.04c-.43 1.17-1.77 2.15-3.34 2.15-1.45.03-2.55-.69-2.55-2.13zm5.92-1.93v-1.62c-3.43.7-4.06 1.89-4.06 3.16 0 1.01.54 1.75 1.57 1.75 1.1.01 2.49-.8 2.49-3.29zM173.16 73.04v-6.46h-1.53v-.28c1.44-.25 2.63-1.23 2.85-4.13h.29v4.04h3.03v.36h-3.03v6.58c0 1.41.52 2.11 1.53 2.11.92 0 1.66-1.01 1.75-2.98h.31c0 2.29-1.01 3.64-2.63 3.64-1.58-.01-2.57-.93-2.57-2.88zM179.04 75.3h.18c.99 0 1.21-.25 1.21-1.26V67.8c0-1.03-.22-1.28-1.21-1.28h-.18v-.29l2.99-.18v7.99c0 1.01.22 1.26 1.21 1.26h.18v.31h-4.38v-.31zm.75-12.84c0-.67.56-1.23 1.23-1.23.67 0 1.24.56 1.24 1.23s-.56 1.23-1.24 1.23a1.23 1.23 0 0 1-1.23-1.23zM185.87 75.06c-.34 0-.63.27-.81.76h-.22V72h.2c.38 2.2 2.18 3.52 3.95 3.52 1.33 0 2.27-.76 2.27-1.82 0-1.01-.7-1.39-2.96-2.04-1.98-.56-3.34-1.08-3.34-3.03 0-1.62 1.21-2.63 2.92-2.63 1.3 0 1.89.58 2.58.58.36 0 .65-.18.81-.56h.22v3.41h-.2c-.36-1.84-1.64-3.12-3.52-3.12-1.03 0-1.86.67-1.86 1.66 0 1.05.88 1.39 2.76 1.89 2.45.65 3.55 1.35 3.55 3.12 0 1.8-1.37 2.85-3.3 2.85-1.41.01-2.51-.77-3.05-.77zM193.57 75.28h.18c.99 0 1.21-.27 1.21-1.28v-7.43h-1.39v-.34h1.39v-1.14c0-3.05 1.44-5.14 4.31-5.14 2 0 2.94.96 2.94 1.84 0 .63-.49 1.08-1.01 1.08-.56 0-1.03-.31-1.03-.92 0-.38.18-.63.36-.79.11-.09.2-.18.2-.27 0-.29-.56-.63-1.55-.63-1.84 0-2.6 1.64-2.6 4.13v1.84h2.63l3.21-.2V74c0 1.01.22 1.28 1.21 1.28h.18v.34h-4.4v-.34h.18c.99 0 1.21-.27 1.21-1.28v-6.13c0-1.06-.22-1.3-1.21-1.3h-3.01V74c0 1.01.22 1.28 1.21 1.28h.54v.34h-4.76v-.34zM204.87 70.97c0-3.03 2.11-5.07 4.35-5.07 1.79 0 3.86 1.39 3.86 4.29 0 .07-.02.56-.04.67h-6.33c0 2.47.99 4.38 2.92 4.38 1.73 0 2.6-.88 3.34-1.95l.25.18c-.83 1.39-2.13 2.49-4.08 2.49-2.59 0-4.27-1.91-4.27-4.99zm5.2-.47c.9 0 1.14-.29 1.14-1.01 0-1.8-.63-3.25-2.06-3.25-1.57 0-2.38 1.68-2.45 4.26h3.37zM214.45 70.93c0-2.78 1.77-4.94 3.95-4.94 1.35 0 2.4.94 3.1 2.31h.07c-.04-.63-.07-1.98-.07-3.39v-3.05c0-1.03-.25-1.28-1.23-1.28h-.56v-.31l3.39-.34v14.01c0 1.01.2 1.3 1.19 1.3h.18v.31l-2.96.34.09-2.51h-.07c-.74 1.37-1.68 2.47-3.21 2.47-1.87-.01-3.87-1.87-3.87-4.92zm7.05-.03c0-3.34-1.86-4.58-2.83-4.58-1.84 0-2.33 2.09-2.33 4.53 0 2.49.61 4.62 2.31 4.62 1.17.01 2.85-1.6 2.85-4.57zM226.13 66.06c1.68-1.39 2.22-2.78 2.22-3.41s-.4-.18-.97-.18c-.72 0-1.17-.58-1.17-1.19 0-.67.45-1.17 1.19-1.17s1.41.58 1.41 1.93c0 1.37-.72 2.78-2.47 4.26l-.21-.24zm3.61 0c1.68-1.39 2.22-2.78 2.22-3.41s-.4-.18-.96-.18c-.72 0-1.17-.58-1.17-1.19 0-.67.45-1.17 1.19-1.17s1.41.58 1.41 1.93c0 1.37-.72 2.78-2.47 4.26l-.22-.24zM12.25 93.86c0-2.92 2.29-5 4.4-5s4.38 2.04 4.38 4.96c0 2.85-2.27 5.1-4.38 5.1s-4.4-2.21-4.4-5.06zm6.89.02c0-2.6-.67-4.71-2.49-4.71-1.82 0-2.49 2.06-2.49 4.67 0 2.58.63 4.76 2.49 4.76 1.86-.01 2.49-2.14 2.49-4.72zM22.08 98.26h.16c.99 0 1.21-.25 1.21-1.26v-6.29c0-1.01-.27-1.26-1.21-1.26h-.16v-.27l2.98-.18-.16 3.79h.04c.7-2.45 1.82-3.91 3.3-3.91 1.14 0 1.8.67 1.8 1.46 0 .88-.49 1.32-1.12 1.32-.56 0-1.01-.36-1.01-.92 0-.49.27-.72.47-.9.11-.09.18-.16.18-.27 0-.18-.22-.22-.49-.22-1.62 0-2.99 3.19-2.99 4.96V97c0 1.01.22 1.26 1.21 1.26h.52v.31h-4.74v-.31zM36.74 87.35c0-1.37.72-2.78 2.47-4.26l.22.25c-1.68 1.39-2.22 2.78-2.22 3.41 0 .63.4.18.96.18.72 0 1.17.58 1.17 1.19 0 .67-.45 1.17-1.19 1.17s-1.41-.6-1.41-1.94zm3.61 0c0-1.37.72-2.78 2.47-4.26l.22.25c-1.68 1.39-2.22 2.78-2.22 3.41 0 .63.4.18.96.18.72 0 1.17.58 1.17 1.19 0 .67-.45 1.17-1.19 1.17s-1.41-.6-1.41-1.94zM46.08 90.94c-.43-1.01-.7-1.39-1.62-1.46v-.29h4.49v.29c-.9.07-1.15.29-1.17.65-.02.34.09.76.25 1.17l2.15 5.72 2-5.16c.2-.54.43-1.1.43-1.53 0-.58-.38-.79-1.23-.85v-.29h3.23v.29c-.92.07-1.21.58-1.57 1.46l-3.32 8.08h-.32l-3.32-8.08zM54.79 93.92c0-3.03 2.11-5.07 4.35-5.07 1.8 0 3.86 1.39 3.86 4.29 0 .07-.02.56-.04.67h-6.33c0 2.47.99 4.38 2.92 4.38 1.73 0 2.6-.88 3.34-1.95l.25.18c-.83 1.39-2.13 2.49-4.09 2.49-2.57 0-4.26-1.91-4.26-4.99zm5.21-.47c.9 0 1.14-.29 1.14-1.01 0-1.79-.63-3.25-2.06-3.25-1.57 0-2.38 1.68-2.45 4.27H60zM64.13 98.26h.16c.99 0 1.21-.25 1.21-1.26v-6.29c0-1.01-.27-1.26-1.21-1.26h-.16v-.27l2.98-.18-.16 3.79h.04c.7-2.45 1.82-3.91 3.3-3.91 1.14 0 1.8.67 1.8 1.46 0 .88-.49 1.32-1.12 1.32-.56 0-1.01-.36-1.01-.92 0-.49.27-.72.47-.9.11-.09.18-.16.18-.27 0-.18-.22-.22-.49-.22-1.62 0-2.99 3.19-2.99 4.96V97c0 1.01.22 1.26 1.21 1.26h.52v.31h-4.74v-.31zM72.6 101.56c0-.7.47-1.19 1.14-1.19.54 0 .92.47.92.94 0 .4-.16.63-.31.79-.13.13-.25.2-.25.38 0 .22.25.38.58.38 1.03 0 1.73-1.41 2.38-2.99l.29-.7L73.98 91c-.4-1.01-.72-1.46-1.64-1.53v-.29h4.51v.29c-.79.07-1.14.31-1.17.67-.02.34.09.72.27 1.19l2.22 5.88 2.02-5.3c.2-.52.43-1.15.43-1.57 0-.58-.38-.81-1.23-.88v-.29h3.32v.29c-.99.07-1.23.61-1.59 1.53l-3.61 8.84c-1.12 2.76-1.98 3.39-3.03 3.39-1.23.02-1.88-.74-1.88-1.66zM90.06 98.01c-.34 0-.63.27-.81.76h-.22v-3.82h.2c.38 2.2 2.18 3.52 3.95 3.52 1.32 0 2.27-.76 2.27-1.82 0-1.01-.7-1.39-2.96-2.04-1.98-.56-3.34-1.08-3.34-3.03 0-1.62 1.21-2.63 2.92-2.63 1.3 0 1.89.58 2.58.58.36 0 .65-.18.81-.56h.22v3.41h-.2c-.36-1.84-1.64-3.12-3.52-3.12-1.03 0-1.86.67-1.86 1.66 0 1.06.88 1.39 2.76 1.89 2.45.65 3.55 1.35 3.55 3.12 0 1.8-1.37 2.85-3.3 2.85-1.41.01-2.51-.77-3.05-.77zM97.7 96.66c0-1.91 1.71-2.92 5.93-3.91v-.65c0-2.15-.85-2.9-2.2-2.9-1.21 0-2.24.52-2.24.92 0 .07.02.09.11.09.45 0 .94.43.94.99 0 .58-.45 1.03-1.01 1.03-.58 0-1.01-.43-1.01-1.08 0-1.17 1.23-2.27 3.64-2.27 1.8 0 3.37.65 3.37 3.3v4.6c0 .94.27 1.23.58 1.23.54 0 .76-.56.79-1.79h.31c-.04 2.13-.79 2.54-1.71 2.54-.88 0-1.68-.49-1.57-2.11h-.04c-.43 1.17-1.77 2.16-3.34 2.16-1.45.01-2.55-.71-2.55-2.15zm5.92-1.93v-1.62c-3.43.7-4.06 1.88-4.06 3.17 0 1.01.54 1.75 1.57 1.75 1.1 0 2.49-.81 2.49-3.3zM108.39 95.99v-6.46h-1.53v-.27c1.44-.25 2.63-1.23 2.85-4.13h.29v4.04h3.03v.36H110v6.58c0 1.41.52 2.11 1.53 2.11.92 0 1.66-1.01 1.75-2.99h.31c0 2.29-1.01 3.64-2.63 3.64-1.59-.01-2.57-.93-2.57-2.88zM114.27 98.26h.18c.99 0 1.21-.25 1.21-1.26v-6.24c0-1.03-.22-1.28-1.21-1.28h-.18v-.29l2.98-.18V97c0 1.01.22 1.26 1.21 1.26h.18v.31h-4.38v-.31zm.74-12.84c0-.67.56-1.23 1.23-1.23s1.23.56 1.23 1.23-.56 1.23-1.23 1.23-1.23-.56-1.23-1.23zM121.09 98.01c-.34 0-.63.27-.81.76h-.22v-3.82h.2c.38 2.2 2.18 3.52 3.95 3.52 1.32 0 2.27-.76 2.27-1.82 0-1.01-.7-1.39-2.96-2.04-1.98-.56-3.34-1.08-3.34-3.03 0-1.62 1.21-2.63 2.92-2.63 1.3 0 1.89.58 2.58.58.36 0 .65-.18.81-.56h.22v3.41h-.2c-.36-1.84-1.64-3.12-3.52-3.12-1.03 0-1.86.67-1.86 1.66 0 1.06.88 1.39 2.76 1.89 2.45.65 3.55 1.35 3.55 3.12 0 1.8-1.37 2.85-3.3 2.85-1.41.01-2.51-.77-3.05-.77zM128.8 98.23h.18c.99 0 1.21-.27 1.21-1.28v-7.43h-1.39v-.34h1.39v-1.14c0-3.05 1.44-5.14 4.31-5.14 2 0 2.94.96 2.94 1.84 0 .63-.49 1.08-1.01 1.08-.56 0-1.03-.31-1.03-.92 0-.38.18-.63.36-.79.11-.09.2-.18.2-.27 0-.29-.56-.63-1.55-.63-1.84 0-2.6 1.64-2.6 4.13v1.84h2.63l3.21-.2v7.97c0 1.01.22 1.28 1.21 1.28h.18v.34h-4.4v-.34h.18c.99 0 1.21-.27 1.21-1.28v-6.13c0-1.05-.22-1.3-1.21-1.3h-3.01v7.43c0 1.01.22 1.28 1.21 1.28h.54v.34h-4.76v-.34zM140.09 93.92c0-3.03 2.11-5.07 4.35-5.07 1.79 0 3.86 1.39 3.86 4.29 0 .07-.02.56-.04.67h-6.33c0 2.47.99 4.38 2.92 4.38 1.73 0 2.6-.88 3.34-1.95l.25.18c-.83 1.39-2.13 2.49-4.08 2.49-2.59 0-4.27-1.91-4.27-4.99zm5.21-.47c.9 0 1.14-.29 1.14-1.01 0-1.79-.63-3.25-2.06-3.25-1.57 0-2.38 1.68-2.45 4.27h3.37zM149.68 93.88c0-2.78 1.77-4.94 3.95-4.94 1.35 0 2.4.94 3.1 2.31h.07c-.04-.63-.07-1.98-.07-3.39v-3.05c0-1.03-.25-1.28-1.23-1.28h-.56v-.31l3.39-.34v14.01c0 1.01.2 1.3 1.19 1.3h.18v.31l-2.96.34.09-2.51h-.07c-.74 1.37-1.68 2.47-3.21 2.47-1.88-.01-3.87-1.87-3.87-4.92zm7.04-.02c0-3.34-1.86-4.58-2.83-4.58-1.84 0-2.33 2.09-2.33 4.53 0 2.49.61 4.62 2.31 4.62 1.17.01 2.85-1.61 2.85-4.57zM161.35 89.01c1.68-1.39 2.22-2.78 2.22-3.41s-.4-.18-.97-.18c-.72 0-1.17-.58-1.17-1.19 0-.67.45-1.17 1.19-1.17s1.41.58 1.41 1.93c0 1.37-.72 2.78-2.47 4.26l-.21-.24zm3.62 0c1.68-1.39 2.22-2.78 2.22-3.41s-.4-.18-.96-.18c-.72 0-1.17-.58-1.17-1.19 0-.67.45-1.17 1.19-1.17s1.41.58 1.41 1.93c0 1.37-.72 2.78-2.47 4.26l-.22-.24zM175.94 90.96c-.38-.96-.74-1.41-1.64-1.48v-.29h4.35v.29c-.79.07-1.12.29-1.14.65-.02.29.07.63.25 1.12l2.02 5.77 1.84-4.76-.52-1.57c-.25-.79-.49-1.08-1.39-1.21v-.29h4.15v.29c-.76.07-1.17.29-1.19.65-.02.29.09.63.25 1.14l1.77 5.66 1.77-5.07c.2-.58.36-1.1.36-1.53 0-.58-.4-.79-1.23-.85v-.29h3.23v.29c-.9.07-1.19.61-1.53 1.48l-3.05 8.06h-.31l-2.09-6.15-2.54 6.15h-.29l-3.07-8.06zM189.28 98.26h.18c.99 0 1.21-.25 1.21-1.26v-6.24c0-1.03-.22-1.28-1.21-1.28h-.18v-.29l2.99-.18V97c0 1.01.22 1.26 1.21 1.26h.18v.31h-4.38v-.31zm.74-12.84c0-.67.56-1.23 1.23-1.23.67 0 1.24.56 1.24 1.23s-.56 1.23-1.24 1.23c-.67 0-1.23-.56-1.23-1.23zM195.68 95.99v-6.46h-1.53v-.27c1.44-.25 2.63-1.23 2.85-4.13h.29v4.04h3.03v.36h-3.03v6.58c0 1.41.52 2.11 1.53 2.11.92 0 1.66-1.01 1.75-2.99h.31c0 2.29-1.01 3.64-2.63 3.64-1.58-.01-2.57-.93-2.57-2.88zM201.34 98.26h.16c.92 0 1.21-.22 1.21-1.26V84.81c0-1.03-.22-1.3-1.21-1.3h-.2v-.31l2.99-.34v5.95l-.11 2.96h.04c.54-1.62 1.84-2.78 3.48-2.78 1.82 0 2.65 1.12 2.65 3.34V97c0 1.01.22 1.26 1.23 1.26h.04v.31h-4.33v-.31h.22c1.01 0 1.24-.25 1.24-1.26v-5.23c0-1.57-.67-2.07-1.57-2.07-1.64 0-2.87 1.66-2.87 3.61V97c0 1.01.22 1.26 1.21 1.26h.22v.31h-4.4v-.31zM218.85 95.99v-6.46h-1.53v-.27c1.44-.25 2.63-1.23 2.85-4.13h.29v4.04h3.03v.36h-3.03v6.58c0 1.41.52 2.11 1.53 2.11.92 0 1.66-1.01 1.75-2.99h.31c0 2.29-1.01 3.64-2.63 3.64-1.58-.01-2.57-.93-2.57-2.88zM224.51 98.26h.16c.92 0 1.21-.22 1.21-1.26V84.81c0-1.03-.22-1.3-1.21-1.3h-.2v-.31l2.99-.34v5.95l-.11 2.96h.04c.54-1.62 1.84-2.78 3.48-2.78 1.82 0 2.65 1.12 2.65 3.34V97c0 1.01.22 1.26 1.23 1.26h.04v.31h-4.33v-.31h.22c1.01 0 1.24-.25 1.24-1.26v-5.23c0-1.57-.67-2.07-1.57-2.07-1.64 0-2.87 1.66-2.87 3.61V97c0 1.01.22 1.26 1.21 1.26h.22v.31h-4.4v-.31zM235.69 93.92c0-3.03 2.11-5.07 4.35-5.07 1.79 0 3.86 1.39 3.86 4.29 0 .07-.02.56-.04.67h-6.33c0 2.47.99 4.38 2.92 4.38 1.73 0 2.6-.88 3.34-1.95l.25.18c-.83 1.39-2.13 2.49-4.08 2.49-2.59 0-4.27-1.91-4.27-4.99zm5.21-.47c.9 0 1.14-.29 1.14-1.01 0-1.79-.63-3.25-2.06-3.25-1.57 0-2.38 1.68-2.45 4.27h3.37zM245.08 98.26h.18c.99 0 1.21-.25 1.21-1.26v-6.24c0-1.03-.22-1.28-1.21-1.28h-.18v-.29l2.99-.18V97c0 1.01.22 1.26 1.21 1.26h.18v.31h-4.38v-.31zm.74-12.84c0-.67.56-1.23 1.23-1.23.67 0 1.24.56 1.24 1.23s-.56 1.23-1.24 1.23c-.67 0-1.23-.56-1.23-1.23zM250.26 98.26h.16c.99 0 1.21-.25 1.21-1.26v-6.29c0-1.01-.27-1.26-1.21-1.26h-.16v-.27l2.99-.18-.16 3.79h.04c.7-2.45 1.82-3.91 3.3-3.91 1.15 0 1.8.67 1.8 1.46 0 .88-.49 1.32-1.12 1.32-.56 0-1.01-.36-1.01-.92 0-.49.27-.72.47-.9.11-.09.18-.16.18-.27 0-.18-.22-.22-.49-.22-1.62 0-2.99 3.19-2.99 4.96V97c0 1.01.22 1.26 1.21 1.26h.52v.31h-4.74v-.31zM12.45 113.93c0-4.96 3.3-7.99 6.26-7.99 1.15 0 2.18.49 3.05 1.08.25.16.56.25.76.25.34 0 .58-.29.83-1.32h.27l.18 6.06h-.34c-.85-3.79-2.72-5.7-4.83-5.7-2.74 0-4 3.12-4 7.54 0 4.26 1.44 7.59 4.29 7.59 2.51 0 4.17-2.24 4.69-5.52h.45c-.54 3.79-2.51 5.97-5.36 5.97-3-.01-6.25-3.08-6.25-7.96zM25.63 116.81c0-2.92 2.29-5 4.4-5s4.38 2.04 4.38 4.96c0 2.85-2.27 5.1-4.38 5.1s-4.4-2.21-4.4-5.06zm6.89.02c0-2.6-.67-4.71-2.49-4.71-1.82 0-2.49 2.06-2.49 4.67 0 2.58.63 4.76 2.49 4.76 1.86-.01 2.49-2.14 2.49-4.72zM35.71 116.81c0-2.92 2.29-5 4.4-5s4.38 2.04 4.38 4.96c0 2.85-2.27 5.1-4.38 5.1s-4.4-2.21-4.4-5.06zm6.89.02c0-2.6-.67-4.71-2.49-4.71-1.82 0-2.49 2.06-2.49 4.67 0 2.58.63 4.76 2.49 4.76 1.86-.01 2.49-2.14 2.49-4.72zM45.54 121.21h.09c1.01 0 1.23-.27 1.23-1.35v-12.05c0-1.08-.22-1.35-1.23-1.35h-.18v-.31l3.01-.34v14.05c0 1.08.22 1.35 1.21 1.35h.18v.31h-4.31v-.31zM53.58 120.78c-.43-.22-.72-.4-1.08-.4-.36 0-.65.45-.85 1.37h-.29l-.16-6.08h.34c.79 4.24 3.64 5.75 5.88 5.75 1.71 0 3.01-1.17 3.01-3.05 0-2.04-1.77-2.85-4.11-3.57-2.38-.74-4.98-1.44-4.98-4.69 0-2.36 1.8-4.15 4.08-4.15 1.26 0 2.2.36 3.12 1.01.29.2.52.38.9.38.36 0 .61-.36.9-1.37h.29l.16 6.04h-.34c-.88-4.22-3.12-5.72-4.98-5.72-1.8 0-2.96 1.35-2.96 2.96 0 1.59.58 2.54 4.04 3.52 3.21.92 4.94 1.98 4.94 4.74 0 2.6-1.84 4.26-4.15 4.26-1.92-.01-2.97-.6-3.76-1zM63.06 116.88c0-2.76 2.22-5.07 4.85-5.07 1.75 0 3.03 1.21 3.03 2.51 0 .76-.49 1.23-1.12 1.23-.61 0-1.03-.52-1.03-1.05 0-.47.29-.9.81-1.03.27-.07.47.04.47-.13 0-.4-.79-1.17-2.2-1.17-2.02 0-2.85 1.91-2.85 4.6 0 2.47.99 4.33 3.03 4.33 1.35 0 2.24-.72 2.92-1.62l.22.16c-.76 1.28-2.15 2.22-3.88 2.22-2.26 0-4.25-1.93-4.25-4.98zM73.11 118.56v-4.85c0-.99-.22-1.28-1.21-1.28h-.2v-.29l3.01-.18v7c0 1.59.61 2.22 1.66 2.22 1.39 0 2.78-1.97 2.78-3.86v-3.59c0-1.03-.22-1.3-1.21-1.3h-.45v-.29l3.28-.18v7.86c0 1.01.25 1.3 1.23 1.3h.16v.29l-2.99.34.11-2.78h-.04c-.58 1.53-1.89 2.78-3.41 2.78-1.77 0-2.72-1.04-2.72-3.19zM82.86 121.21h.09c1.01 0 1.23-.27 1.23-1.35v-12.05c0-1.08-.22-1.35-1.23-1.35h-.18v-.31l3.01-.34v14.05c0 1.08.22 1.35 1.21 1.35h.18v.31h-4.31v-.31zM87.66 125.79h.27c.99 0 1.21-.25 1.21-1.28v-10.8c0-1.03-.22-1.28-1.21-1.28h-.16v-.29l2.92-.18-.07 2.29h.04c.72-1.39 1.68-2.36 3.14-2.36 1.84 0 3.93 1.91 3.93 4.92 0 2.96-2.04 4.94-4.02 4.94-1.53 0-2.47-1.05-3.08-2.42h-.02s.09 1.39.09 2.81v2.38c0 1.03.22 1.28 1.21 1.28h.52v.31h-4.78v-.32zm8.2-8.94c0-2.33-.54-4.6-2.27-4.6-1.1 0-2.9 1.3-2.9 4.58 0 2.31 1.23 4.56 2.85 4.56 1.73 0 2.32-2.11 2.32-4.54zM100.01 118.94v-6.46h-1.53v-.27c1.44-.25 2.63-1.23 2.85-4.13h.29v4.04h3.03v.36h-3.03v6.58c0 1.41.52 2.11 1.53 2.11.92 0 1.66-1.01 1.75-2.99h.31c0 2.29-1.01 3.64-2.63 3.64-1.58-.01-2.57-.93-2.57-2.88zM105.89 121.21h.18c.99 0 1.21-.25 1.21-1.26v-6.24c0-1.03-.22-1.28-1.21-1.28h-.18v-.29l2.98-.18v7.99c0 1.01.22 1.26 1.21 1.26h.18v.31h-4.38v-.31zm.74-12.84c0-.67.56-1.23 1.23-1.23s1.23.56 1.23 1.23c0 .67-.56 1.23-1.23 1.23s-1.23-.56-1.23-1.23zM111.08 121.21h.16c.99 0 1.21-.25 1.21-1.26v-6.26c0-1.01-.22-1.28-1.21-1.28h-.16v-.27l2.98-.18-.11 2.76h.05c.61-1.82 2.02-2.78 3.48-2.78 1.82 0 2.65 1.12 2.65 3.34v4.67c0 1.01.22 1.26 1.23 1.26h.04v.31h-4.33v-.31h.22c1.01 0 1.23-.25 1.23-1.26v-5.23c0-1.57-.67-2.07-1.57-2.07-1.64 0-2.87 1.64-2.87 3.64v3.66c0 1.01.22 1.26 1.21 1.26h.22v.31h-4.44v-.31zM121.86 123.95c0-1.26 1.3-2.33 3.64-2.36-1.57-.18-2.9-.56-2.9-1.57 0-.79.74-1.3 1.59-1.82-.94-.61-1.66-1.71-1.66-2.9 0-2.06 1.71-3.5 3.82-3.5 1.14 0 2.06.34 2.87 1.19.31-.52.83-1.19 1.59-1.19.67 0 1.19.43 1.19 1.1 0 .47-.34.9-.83.9s-.76-.43-.76-.88c0-.29-.04-.45-.22-.45-.22 0-.47.27-.72.74.45.67.67 1.37.67 2.09 0 2.04-1.71 3.52-3.79 3.52-.63 0-1.35-.22-1.86-.47-.47.29-.81.61-.81 1.08 0 .47.67.81 2.99.83 2.04.02 4.58.4 4.58 2.76 0 1.91-2.15 3.12-4.92 3.12-2.45.01-4.47-.71-4.47-2.19zm8.57-.39c0-1.06-1.14-1.82-3.95-1.82-2.58 0-3.3 1.19-3.3 2.18 0 1.44 1.82 1.91 3.28 1.91 2.24 0 3.97-1.01 3.97-2.27zm-2.09-8.26c0-1.41-.38-3.21-2-3.21-1.64 0-2 1.79-2 3.21s.36 3.21 2 3.21c1.62 0 2-1.79 2-3.21zM132.77 107.92c0-1.35 1.06-2.4 2.41-2.4s2.41 1.05 2.41 2.4-1.06 2.4-2.41 2.4-2.41-1.05-2.41-2.4zm4.59 0c0-1.24-.94-2.2-2.19-2.2s-2.19.96-2.19 2.2c0 1.24.94 2.2 2.19 2.2s2.19-.95 2.19-2.2zm-1.75.59c-.03-.3-.17-.56-.42-.56h-.33v.98c0 .14.05.17.21.17h.24v.13h-1.3v-.13h.14c.16 0 .22-.03.22-.17v-2.12c0-.14-.07-.18-.22-.18h-.14v-.14h1.11c.67 0 1.17.21 1.17.71 0 .35-.39.65-.88.69.29.07.47.41.56.63.16.41.22.46.37.46.08 0 .18-.09.17-.45h.09c.04.51-.18.75-.44.75s-.51-.19-.55-.77zm-.38-.7c.37 0 .52-.22.52-.6 0-.37-.18-.58-.5-.58h-.18c-.16 0-.21.04-.21.18v1h.37zM145.11 118.94v-6.46h-1.53v-.27c1.44-.25 2.63-1.23 2.85-4.13h.29v4.04h3.03v.36h-3.03v6.58c0 1.41.52 2.11 1.53 2.11.92 0 1.66-1.01 1.75-2.99h.31c0 2.29-1.01 3.64-2.63 3.64-1.58-.01-2.57-.93-2.57-2.88zM150.95 121.21h.16c.99 0 1.21-.25 1.21-1.26v-6.29c0-1.01-.27-1.26-1.21-1.26h-.16v-.27l2.99-.18-.16 3.79h.04c.7-2.45 1.82-3.91 3.3-3.91 1.15 0 1.8.67 1.8 1.46 0 .88-.49 1.32-1.12 1.32-.56 0-1.01-.36-1.01-.92 0-.49.27-.72.47-.9.11-.09.18-.16.18-.27 0-.18-.22-.22-.49-.22-1.62 0-2.99 3.19-2.99 4.96v2.67c0 1.01.22 1.26 1.21 1.26h.52v.31h-4.74v-.29zM159.39 116.88c0-3.03 2.11-5.07 4.35-5.07 1.79 0 3.86 1.39 3.86 4.29 0 .07-.02.56-.04.67h-6.33c0 2.47.99 4.38 2.92 4.38 1.73 0 2.6-.88 3.34-1.95l.25.18c-.83 1.39-2.13 2.49-4.08 2.49-2.59-.01-4.27-1.92-4.27-4.99zm5.21-.48c.9 0 1.14-.29 1.14-1.01 0-1.79-.63-3.25-2.06-3.25-1.57 0-2.38 1.68-2.45 4.26h3.37zM168.93 119.61c0-1.91 1.71-2.92 5.93-3.91v-.65c0-2.15-.85-2.89-2.2-2.89-1.21 0-2.24.52-2.24.92 0 .07.02.09.11.09.45 0 .94.43.94.99 0 .58-.45 1.03-1.01 1.03-.58 0-1.01-.43-1.01-1.08 0-1.17 1.23-2.27 3.64-2.27 1.8 0 3.37.65 3.37 3.3v4.6c0 .94.27 1.23.58 1.23.54 0 .76-.56.79-1.79h.31c-.04 2.13-.79 2.54-1.71 2.54-.88 0-1.68-.49-1.57-2.11h-.04c-.43 1.17-1.77 2.16-3.34 2.16-1.45 0-2.55-.72-2.55-2.16zm5.93-1.93v-1.62c-3.43.7-4.06 1.88-4.06 3.17 0 1.01.54 1.75 1.57 1.75 1.09 0 2.49-.81 2.49-3.3zM179.62 118.94v-6.46h-1.53v-.27c1.44-.25 2.63-1.23 2.85-4.13h.29v4.04h3.03v.36h-3.03v6.58c0 1.41.52 2.11 1.53 2.11.92 0 1.66-1.01 1.75-2.99h.31c0 2.29-1.01 3.64-2.63 3.64-1.59-.01-2.57-.93-2.57-2.88zM185.45 121.21h.16c.99 0 1.21-.25 1.21-1.26v-6.26c0-1.01-.22-1.28-1.21-1.28h-.16v-.27l2.99-.18-.11 2.76h.04c.58-1.75 1.95-2.78 3.41-2.78 1.71 0 2.38 1.08 2.56 2.54.7-1.57 1.93-2.54 3.34-2.54 1.82 0 2.58 1.12 2.58 3.34v4.67c0 1.01.22 1.26 1.24 1.26h.04v.31h-4.33v-.31h.22c1.01 0 1.24-.25 1.24-1.26v-5.23c0-1.57-.61-2.07-1.5-2.07-1.64 0-2.81 1.8-2.81 3.64v3.66c0 1.01.22 1.26 1.23 1.26h.2v.31h-4.49v-.31h.22c1.01 0 1.23-.25 1.23-1.26v-5.23c0-1.57-.61-2.07-1.5-2.07-1.62 0-2.81 1.73-2.81 3.64v3.66c0 1.01.22 1.26 1.21 1.26h.22v.31h-4.44v-.31zM202.43 116.88c0-3.03 2.11-5.07 4.35-5.07 1.79 0 3.86 1.39 3.86 4.29 0 .07-.02.56-.04.67h-6.33c0 2.47.99 4.38 2.92 4.38 1.73 0 2.6-.88 3.34-1.95l.25.18c-.83 1.39-2.13 2.49-4.08 2.49-2.59-.01-4.27-1.92-4.27-4.99zm5.2-.48c.9 0 1.14-.29 1.14-1.01 0-1.79-.63-3.25-2.06-3.25-1.57 0-2.38 1.68-2.45 4.26h3.37zM211.77 121.21h.16c.99 0 1.21-.25 1.21-1.26v-6.26c0-1.01-.22-1.28-1.21-1.28h-.16v-.27l2.99-.18-.11 2.76h.04c.61-1.82 2.02-2.78 3.48-2.78 1.82 0 2.65 1.12 2.65 3.34v4.67c0 1.01.22 1.26 1.23 1.26h.04v.31h-4.33v-.31h.22c1.01 0 1.24-.25 1.24-1.26v-5.23c0-1.57-.67-2.07-1.57-2.07-1.64 0-2.87 1.64-2.87 3.64v3.66c0 1.01.22 1.26 1.21 1.26h.22v.31h-4.44v-.31zM223.94 118.94v-6.46h-1.53v-.27c1.44-.25 2.63-1.23 2.85-4.13h.29v4.04h3.03v.36h-3.03v6.58c0 1.41.52 2.11 1.53 2.11.92 0 1.66-1.01 1.75-2.99h.31c0 2.29-1.01 3.64-2.63 3.64-1.59-.01-2.57-.93-2.57-2.88zM230.58 120.4c0-.72.56-1.28 1.28-1.28s1.28.56 1.28 1.28-.56 1.28-1.28 1.28-1.28-.56-1.28-1.28zM231.69 109.31c.22-.29.8-.83 1.15-1.32-.59-.2-1.36-.29-1.7-.39-.35-.11-.51-.28-.47-.39.04-.13.26-.18.62-.05.34.13 1.02.5 1.61.68 0-.62-.16-1.38-.16-1.74 0-.35.1-.56.24-.56s.24.21.24.56c0 .37-.16 1.13-.16 1.74.59-.18 1.27-.56 1.61-.68.33-.12.59-.09.62.05.03.12-.12.29-.47.39-.34.1-1.11.2-1.7.39.37.5.93 1.03 1.15 1.32.21.26.25.52.14.6-.09.07-.31-.03-.52-.33-.21-.3-.54-.99-.9-1.49-.37.5-.69 1.19-.9 1.49-.2.28-.42.39-.51.33-.14-.08-.1-.34.11-.6z"/></svg>