<svg id="Layer_1" xmlns="http://www.w3.org/2000/svg" viewBox="0 0 300 250"><style>.st0{fill:#eaf5fb}.st1{fill:#002554}</style><path class="st0" d="M11 117h122.17v22H11z"/><path class="st1" d="M22.67 125.11v1.69h3.29v1.61h-3.29v3.07h-2.08v-7.99h6.21v1.61h-4.13zM30.07 131.49h-2.08v-7.99h2.08v7.99zM39.04 131.49h-2.31l-2.48-4.32-.6-1.21h-.01l.05 1.5v4.03h-1.84v-7.99h2.31l2.48 4.32.6 1.21h.01l-.05-1.5v-4.03h1.84v7.99zM48.07 127.49c0 2.55-1.37 3.99-3.87 3.99h-3.39v-7.99h3.39c2.5.01 3.87 1.45 3.87 4zm-2.13 0c0-1.6-.59-2.42-1.95-2.42h-1.1v4.84h1.1c1.35 0 1.95-.82 1.95-2.42zM57.26 129.68H54.5l-.56 1.8h-2.09l2.81-7.99h2.49l2.8 7.99h-2.14l-.55-1.8zm-.43-1.41l-.58-1.91-.35-1.26h-.02l-.33 1.25-.59 1.92h1.87zM70.83 126.15c0 1.63-1.1 2.57-3.09 2.57h-1.59v2.77h-2.08v-7.99h3.67c1.99 0 3.09.93 3.09 2.65zm-2.09-.03c0-.7-.4-1.05-1.32-1.05h-1.26v2.12h1.26c.92 0 1.32-.35 1.32-1.07zM75.45 128.57H74.2v2.92h-2.04v-7.99h3.81c1.92 0 3.01.9 3.01 2.54 0 1.16-.54 1.95-1.55 2.31l2.02 3.13h-2.3l-1.7-2.91zm-1.24-1.48h1.42c.88 0 1.27-.3 1.27-1.02 0-.7-.39-1-1.27-1h-1.42v2.02zM87.9 127.49c0 2.58-1.48 4.11-3.91 4.11s-3.92-1.54-3.92-4.11 1.49-4.11 3.92-4.11 3.91 1.54 3.91 4.11zm-5.7 0c0 1.63.63 2.48 1.79 2.48 1.15 0 1.78-.85 1.78-2.48s-.63-2.48-1.78-2.48c-1.16 0-1.79.85-1.79 2.48zM93.59 131.49h-2.44l-2.84-7.99h2.19l1.46 4.83.44 1.57.42-1.55 1.49-4.85h2.12l-2.84 7.99zM99.46 131.49h-2.08v-7.99h2.08v7.99zM108.49 127.49c0 2.55-1.37 3.99-3.87 3.99h-3.39v-7.99h3.39c2.5.01 3.87 1.45 3.87 4zm-2.13 0c0-1.6-.59-2.42-1.95-2.42h-1.1v4.84h1.1c1.35 0 1.95-.82 1.95-2.42zM116.29 129.88v1.61h-6.38v-7.99h6.22v1.61H112v1.62h3.29v1.51H112v1.63h4.29zM120.84 128.57h-1.25v2.92h-2.04v-7.99h3.81c1.92 0 3.01.9 3.01 2.54 0 1.16-.54 1.95-1.55 2.31l2.02 3.13h-2.3l-1.7-2.91zm-1.24-1.48h1.42c.88 0 1.27-.3 1.27-1.02 0-.7-.39-1-1.27-1h-1.42v2.02z"/></svg>