<svg id="Layer_1" xmlns="http://www.w3.org/2000/svg" viewBox="0 0 300 250"><style>.st0{fill:#fff}</style><path class="st0" d="M13.99 149.92h-1.87l-.44 1.14h-.52l1.6-4.12h.59l1.6 4.12h-.53l-.43-1.14zm-.18-.47l-.56-1.46-.19-.57h-.01l-.18.56-.56 1.48h1.5zM16.17 150.22c0 .32.08.42.34.42.17 0 .27-.02.46-.09l-.08.48c-.13.06-.3.09-.46.09-.51 0-.75-.27-.75-.84v-3.78h.5v3.72zM18.08 150.22c0 .32.08.42.34.42.17 0 .27-.02.46-.09l-.08.48c-.13.06-.3.09-.46.09-.51 0-.75-.27-.75-.84v-3.78h.5v3.72zM22.17 149.69h-2.35c.06.63.44 1 1.02 1 .46 0 .77-.16.88-.46l.42.22c-.24.42-.62.68-1.3.68-.94 0-1.51-.61-1.51-1.62 0-1.01.53-1.62 1.47-1.62.9 0 1.4.66 1.4 1.46 0 .13-.02.25-.03.34zm-2.34-.45h1.89c-.07-.57-.39-.93-.92-.93-.56 0-.9.35-.97.93zM24.96 151.06l-.86-1.2-.89 1.2h-.58l1.2-1.57-1.12-1.55h.62l.82 1.15.81-1.15h.59l-1.13 1.53 1.15 1.59h-.61zM29.09 150.67l-.03.39c-.09.03-.22.06-.37.06-.31 0-.51-.11-.56-.46-.2.29-.61.46-1 .46-.59 0-1.06-.27-1.06-.84 0-.47.41-.84 1.22-.97l.83-.14V149c0-.41-.26-.69-.73-.69-.41 0-.72.2-.89.59l-.37-.27c.16-.46.66-.76 1.26-.76.71 0 1.23.34 1.23 1.06v1.54c0 .15.06.22.24.22.07.01.16-.01.23-.02zm-.98-.66v-.43l-.7.13c-.55.1-.83.28-.83.57 0 .26.21.4.57.4.5 0 .96-.26.96-.67zM36.2 147.94l-1.09 3.12h-.5l-.88-2.48-.83 2.48h-.5l-1.09-3.12h.56l.79 2.54.85-2.54h.5l.85 2.54.79-2.54h.55zM39.75 150.67l-.03.39c-.09.03-.22.06-.37.06-.31 0-.51-.11-.56-.46-.2.29-.61.46-1 .46-.59 0-1.06-.27-1.06-.84 0-.47.41-.84 1.22-.97l.83-.14V149c0-.41-.26-.69-.73-.69-.41 0-.72.2-.89.59l-.37-.27c.16-.46.66-.76 1.26-.76.71 0 1.23.34 1.23 1.06v1.54c0 .15.06.22.24.22.06.01.15-.01.23-.02zm-.99-.66v-.43l-.7.13c-.55.1-.83.28-.83.57 0 .26.21.4.57.4.5 0 .96-.26.96-.67zM40.19 150.42l.41-.28c.15.38.54.55.99.55.51 0 .75-.21.75-.46 0-.23-.19-.37-.82-.48-.89-.16-1.21-.41-1.21-.93 0-.5.47-.94 1.23-.94.67 0 1.06.24 1.24.75l-.42.25c-.14-.41-.42-.56-.81-.56-.42 0-.73.22-.73.46 0 .27.21.41.84.51.87.14 1.19.41 1.19.92 0 .54-.51.92-1.3.92-.59-.01-1.12-.23-1.36-.71zM47.68 150.84c-.19.17-.46.28-.81.28-.46 0-.86-.23-.87-.84v-1.92h-.62v-.43H46v-.75l.5-.14v.89h1.15v.43H46.5v1.83c0 .31.19.46.47.46.23 0 .39-.09.53-.23l.18.42zM50.2 147.94l-.1.49a.84.84 0 0 0-.39-.08c-.37 0-.82.33-.82 1.03v1.68h-.5v-3.12h.41l.07.51c.17-.38.51-.57 1-.57.09 0 .23.01.33.06zM53.48 149.69h-2.35c.06.63.44 1 1.02 1 .46 0 .77-.16.88-.46l.42.22c-.24.42-.62.68-1.3.68-.94 0-1.51-.61-1.51-1.62 0-1.01.53-1.62 1.47-1.62.9 0 1.4.66 1.4 1.46-.01.13-.02.25-.03.34zm-2.35-.45h1.89c-.07-.57-.39-.93-.92-.93-.55 0-.89.35-.97.93zM57.26 150.67l-.03.39c-.09.03-.22.06-.37.06-.31 0-.51-.11-.56-.46-.2.29-.61.46-1 .46-.59 0-1.06-.27-1.06-.84 0-.47.41-.84 1.22-.97l.83-.14V149c0-.41-.26-.69-.73-.69-.41 0-.72.2-.89.59l-.37-.27c.16-.46.66-.76 1.26-.76.71 0 1.23.34 1.23 1.06v1.54c0 .15.06.22.24.22.06.01.16-.01.23-.02zm-.98-.66v-.43l-.7.13c-.55.1-.83.28-.83.57 0 .26.21.4.57.4.49 0 .96-.26.96-.67zM59.77 150.84c-.19.17-.46.28-.81.28-.46 0-.86-.23-.87-.84v-1.92h-.62v-.43h.62v-.75l.5-.14v.89h1.15v.43H58.6v1.83c0 .31.19.46.47.46.23 0 .39-.09.53-.23l.17.42zM63.13 149.69h-2.35c.06.63.44 1 1.02 1 .46 0 .77-.16.88-.46l.42.22c-.24.42-.62.68-1.3.68-.94 0-1.51-.61-1.51-1.62 0-1.01.53-1.62 1.47-1.62.9 0 1.4.66 1.4 1.46-.01.13-.02.25-.03.34zm-2.35-.45h1.89c-.07-.57-.39-.93-.92-.93-.55 0-.89.35-.97.93zM66.88 146.5v4.56h-.44l-.03-.54c-.18.36-.57.61-1.07.61-.87 0-1.42-.61-1.42-1.62 0-1.02.56-1.62 1.42-1.62.47 0 .84.22 1.04.55v-1.92h.5zm-.5 3.04v-.08c0-.71-.39-1.15-.98-1.15-.61 0-.98.46-.98 1.19 0 .72.37 1.19.98 1.19.59-.01.98-.45.98-1.15zM74.56 147.94l-1.09 3.12h-.5l-.88-2.48-.83 2.48h-.5l-1.09-3.12h.56l.79 2.54.85-2.54h.5l.85 2.54.79-2.54h.55zM75.25 146.96c0-.22.15-.38.37-.38s.37.15.37.38-.15.37-.37.37-.37-.14-.37-.37zm.62 4.1h-.5v-3.12h.5v3.12zM78.94 150.84c-.19.17-.46.28-.81.28-.46 0-.86-.23-.87-.84v-1.92h-.62v-.43h.62v-.75l.5-.14v.89h1.15v.43h-1.15v1.83c0 .31.19.46.47.46.23 0 .39-.09.53-.23l.18.42zM82.38 149.06v2h-.5v-1.82c0-.69-.34-.92-.77-.92-.46 0-.97.29-.97 1.09v1.65h-.5v-4.56h.5v1.9c.22-.37.59-.53 1.02-.53.67.01 1.22.39 1.22 1.19zM87.39 151.12c-1.17 0-1.91-.82-1.91-2.12s.75-2.12 1.9-2.12c.8 0 1.34.34 1.6.96l-.49.23c-.18-.47-.52-.72-1.07-.72-.84 0-1.41.61-1.41 1.65s.53 1.65 1.39 1.65c.55 0 .98-.28 1.16-.84l.5.19c-.27.71-.9 1.12-1.67 1.12zM92.75 149.5c0 1.01-.57 1.62-1.51 1.62-.94 0-1.51-.61-1.51-1.62 0-1.01.57-1.62 1.51-1.62.94 0 1.51.61 1.51 1.62zm-2.53 0c0 .74.38 1.19 1.01 1.19s1.01-.45 1.01-1.19-.38-1.19-1.01-1.19c-.62 0-1.01.45-1.01 1.19zM96.54 149.5c0 1.01-.57 1.62-1.51 1.62-.94 0-1.51-.61-1.51-1.62 0-1.01.57-1.62 1.51-1.62.94 0 1.51.61 1.51 1.62zm-2.52 0c0 .74.38 1.19 1.01 1.19s1.01-.45 1.01-1.19-.38-1.19-1.01-1.19-1.01.45-1.01 1.19zM97.98 150.22c0 .32.08.42.34.42.17 0 .27-.02.46-.09l-.08.48c-.13.06-.3.09-.46.09-.51 0-.75-.27-.75-.84v-3.78h.5v3.72zM102.43 147.75l-.43.35c-.25-.54-.55-.75-1.15-.75-.66 0-1.02.31-1.02.7 0 .39.27.58 1.14.73 1.1.19 1.5.54 1.5 1.17 0 .71-.63 1.17-1.59 1.17-.87 0-1.45-.38-1.74-.89l.43-.35c.22.47.64.77 1.32.77.64 0 1.06-.24 1.06-.68 0-.36-.27-.56-1.14-.71-1.11-.19-1.51-.53-1.51-1.16 0-.66.58-1.22 1.54-1.22.75 0 1.27.3 1.59.87zM106.03 148.71l-.47.22c-.13-.4-.4-.62-.83-.62-.62 0-1 .44-1 1.19 0 .74.37 1.19 1 1.19.49 0 .78-.23.87-.64l.46.16c-.21.57-.66.92-1.32.92-.94 0-1.51-.61-1.51-1.62 0-1.01.57-1.62 1.51-1.62.64-.01 1.06.3 1.29.82zM109.64 147.94v3.12h-.44l-.03-.47c-.22.38-.62.54-1.12.54-.62 0-1.15-.32-1.15-1.14v-2.04h.5v1.91c0 .64.29.84.74.84.53 0 1-.31 1-1.05v-1.7h.5zM111.28 150.22c0 .32.08.42.34.42.17 0 .27-.02.46-.09l-.08.48c-.13.06-.3.09-.46.09-.51 0-.75-.27-.75-.84v-3.78h.5v3.72zM115.67 149.5c0 1.02-.56 1.62-1.42 1.62-.47 0-.84-.22-1.04-.55v1.8h-.5v-4.43h.44l.03.54c.18-.36.57-.61 1.07-.61.87.01 1.42.61 1.42 1.63zm-.5 0c0-.72-.37-1.19-.98-1.19-.59 0-.98.44-.98 1.15v.08c0 .71.39 1.15.98 1.15.61-.01.98-.47.98-1.19zM118.5 150.84c-.19.17-.46.28-.81.28-.46 0-.86-.23-.87-.84v-1.92h-.62v-.43h.62v-.75l.5-.14v.89h1.15v.43h-1.15v1.83c0 .31.19.46.47.46.23 0 .39-.09.53-.23l.18.42zM119.08 146.96c0-.22.15-.38.37-.38s.37.15.37.38-.15.37-.37.37-.37-.14-.37-.37zm.62 4.1h-.5v-3.12h.5v3.12zM123.6 149.06v2h-.5v-1.82c0-.69-.34-.92-.77-.92-.46 0-.97.29-.97 1.09v1.66h-.5v-3.12h.44l.03.49c.22-.39.62-.55 1.05-.55.67-.01 1.22.37 1.22 1.17zM127.41 151.4c0 .62-.7 1-1.54 1-.99 0-1.44-.36-1.44-.82 0-.29.21-.51.55-.6-.24-.11-.42-.3-.42-.57 0-.33.19-.52.47-.61a.968.968 0 0 1-.46-.85c0-.62.53-1.05 1.28-1.05.24 0 .45.04.64.12.12-.43.41-.64.88-.64l.11.44c-.42 0-.66.12-.74.34.25.19.39.46.39.79 0 .62-.53 1.05-1.28 1.05-.18 0-.34-.02-.48-.06-.25.06-.35.18-.35.39 0 .22.17.34.41.34h1.04c.59-.01.94.28.94.73zm-.46.06c0-.22-.15-.37-.62-.37h-.84c-.39 0-.6.15-.6.39 0 .31.34.51 1.03.51.67-.01 1.03-.26 1.03-.53zm-1.86-2.53c0 .39.33.65.76.65s.76-.26.76-.65-.33-.65-.76-.65-.76.26-.76.65zM130.3 147.78c0 .75-.49 1.23-1.24 1.23s-1.24-.49-1.24-1.23.49-1.24 1.24-1.24 1.24.49 1.24 1.24zm-.25 0c0-.61-.38-1-.98-1s-.98.39-.98 1 .38 1 .98 1c.59 0 .98-.39.98-1zm-.72.17l.36.51h-.28l-.32-.49h-.25v.49h-.24v-1.34h.55c.3 0 .51.16.51.43-.01.2-.13.35-.33.4zm-.49-.16h.31c.17 0 .27-.08.27-.24s-.09-.24-.27-.24h-.31v.48zM14.41 155.74c0 1.01-.57 1.62-1.51 1.62-.94 0-1.51-.61-1.51-1.62 0-1.01.57-1.62 1.51-1.62.94 0 1.51.61 1.51 1.62zm-2.52 0c0 .74.38 1.19 1.01 1.19s1.01-.45 1.01-1.19-.38-1.19-1.01-1.19-1.01.45-1.01 1.19zM18.11 155.3v2h-.5v-1.82c0-.69-.34-.92-.77-.92-.46 0-.97.29-.97 1.09v1.66h-.5v-3.12h.44l.03.49c.22-.39.62-.55 1.05-.55.67-.01 1.22.37 1.22 1.17zM24.1 155.3v2h-.5v-1.82c0-.69-.34-.92-.77-.92-.46 0-.97.29-.97 1.09v1.65h-.5v-4.56h.5v1.9c.22-.37.59-.53 1.02-.53.67.01 1.22.39 1.22 1.19zM27.88 155.93h-2.35c.06.63.44 1 1.02 1 .46 0 .77-.16.88-.46l.42.22c-.24.42-.62.68-1.3.68-.94 0-1.51-.61-1.51-1.62 0-1.01.53-1.62 1.47-1.62.9 0 1.4.66 1.4 1.46 0 .13-.01.25-.03.34zm-2.34-.45h1.89c-.07-.57-.39-.93-.92-.93-.56 0-.9.35-.97.93zM30.67 154.18l-.1.49a.84.84 0 0 0-.39-.08c-.37 0-.82.33-.82 1.03v1.68h-.5v-3.12h.41l.07.51c.17-.38.51-.57 1-.57.1 0 .24.01.33.06zM36.2 156.91l-.03.39c-.09.03-.22.06-.37.06-.31 0-.51-.11-.56-.46-.2.29-.61.46-1 .46-.59 0-1.06-.27-1.06-.84 0-.47.41-.84 1.22-.97l.83-.14v-.17c0-.41-.26-.69-.73-.69-.41 0-.72.2-.89.59l-.37-.27c.16-.46.66-.76 1.26-.76.71 0 1.23.34 1.23 1.06v1.54c0 .15.06.22.24.22.06.01.15 0 .23-.02zm-.99-.66v-.43l-.7.13c-.55.1-.83.28-.83.57 0 .26.21.4.57.4.5.01.96-.26.96-.67zM39.88 155.74c0 1.02-.56 1.62-1.42 1.62-.49 0-.89-.25-1.07-.61l-.03.54h-.44v-4.56h.5v1.92c.19-.32.57-.55 1.04-.55.86.02 1.42.62 1.42 1.64zm-.5 0c0-.72-.37-1.19-.98-1.19-.59 0-.98.44-.98 1.15v.08c0 .71.39 1.15.98 1.15.61 0 .98-.47.98-1.19zM43.62 152.74v4.56h-.44l-.03-.54c-.18.36-.57.61-1.07.61-.87 0-1.42-.61-1.42-1.62 0-1.02.56-1.62 1.42-1.62.47 0 .84.22 1.04.55v-1.92h.5zm-.5 3.04v-.08c0-.71-.39-1.15-.98-1.15-.61 0-.98.46-.98 1.19 0 .72.37 1.19.98 1.19.6 0 .98-.45.98-1.15zM47.61 155.74c0 1.01-.57 1.62-1.51 1.62-.94 0-1.51-.61-1.51-1.62 0-1.01.57-1.62 1.51-1.62.94 0 1.51.61 1.51 1.62zm-2.52 0c0 .74.38 1.19 1.01 1.19s1.01-.45 1.01-1.19-.38-1.19-1.01-1.19-1.01.45-1.01 1.19zM53.4 155.3v2h-.5v-1.95c0-.57-.32-.8-.74-.8-.49 0-.92.37-.92 1.04v1.71h-.5v-1.95c0-.57-.32-.8-.74-.8-.41 0-.92.31-.92 1.08v1.67h-.5v-3.12h.44l.03.49c.22-.38.61-.55 1-.55.44 0 .87.19 1.07.61.19-.42.69-.61 1.09-.61.6 0 1.19.36 1.19 1.18zM57.18 155.93h-2.35c.06.63.44 1 1.02 1 .46 0 .77-.16.88-.46l.42.22c-.24.42-.62.68-1.3.68-.94 0-1.51-.61-1.51-1.62 0-1.01.53-1.62 1.47-1.62.9 0 1.4.66 1.4 1.46 0 .13-.02.25-.03.34zm-2.35-.45h1.89c-.07-.57-.39-.93-.92-.93-.55 0-.89.35-.97.93zM60.89 155.3v2h-.5v-1.82c0-.69-.34-.92-.77-.92-.46 0-.97.29-.97 1.09v1.66h-.5v-3.12h.44l.03.49c.22-.39.62-.55 1.05-.55.67-.01 1.22.37 1.22 1.17zM62.67 156.96c0 .24-.16.41-.41.41-.24 0-.41-.16-.41-.41 0-.24.16-.41.41-.41.25 0 .41.16.41.41zM67.39 155.59h-.99v1.71h-.5v-4.12h1.56c.84 0 1.39.46 1.39 1.21 0 .59-.35 1-.91 1.15l1.16 1.77h-.59l-1.12-1.72zm-.99-.47h1.05c.59 0 .87-.24.87-.74 0-.49-.29-.74-.87-.74H66.4v1.48zM72.5 155.93h-2.35c.06.63.44 1 1.02 1 .46 0 .77-.16.88-.46l.42.22c-.24.42-.62.68-1.3.68-.94 0-1.51-.61-1.51-1.62 0-1.01.53-1.62 1.47-1.62.9 0 1.4.66 1.4 1.46 0 .13-.01.25-.03.34zm-2.34-.45h1.89c-.07-.57-.39-.93-.92-.93-.56 0-.9.35-.97.93zM73.2 156.66l.41-.28c.15.38.54.55.99.55.51 0 .75-.21.75-.46 0-.23-.19-.37-.82-.48-.89-.16-1.21-.41-1.21-.93 0-.5.47-.94 1.23-.94.67 0 1.06.24 1.24.75l-.42.25c-.14-.41-.42-.56-.81-.56-.42 0-.73.22-.73.46 0 .27.21.41.84.51.87.14 1.19.41 1.19.92 0 .54-.51.92-1.3.92-.6-.01-1.13-.23-1.36-.71zM79.47 154.18v3.12h-.44l-.03-.47c-.22.38-.62.54-1.12.54-.62 0-1.15-.32-1.15-1.14v-2.04h.5v1.91c0 .64.29.84.74.84.53 0 1-.31 1-1.05v-1.7h.5zM81.1 156.46c0 .32.08.42.34.42.17 0 .27-.02.46-.09l-.08.48c-.13.06-.3.09-.46.09-.51 0-.75-.27-.75-.84v-3.78h.5v3.72zM84.32 157.08c-.19.17-.46.28-.81.28-.46 0-.86-.23-.87-.84v-1.92h-.62v-.43h.62v-.75l.5-.14v.89h1.15v.43h-1.15v1.83c0 .31.19.46.47.46.23 0 .39-.09.53-.23l.18.42zM84.75 156.66l.41-.28c.15.38.54.55.99.55.51 0 .75-.21.75-.46 0-.23-.19-.37-.82-.48-.89-.16-1.21-.41-1.21-.93 0-.5.47-.94 1.23-.94.67 0 1.06.24 1.24.75l-.42.25c-.14-.41-.42-.56-.81-.56-.42 0-.73.22-.73.46 0 .27.21.41.84.51.87.14 1.19.41 1.19.92 0 .54-.51.92-1.3.92-.59-.01-1.12-.23-1.36-.71zM95.27 155.3v2h-.5v-1.95c0-.57-.32-.8-.74-.8-.49 0-.92.37-.92 1.04v1.71h-.5v-1.95c0-.57-.32-.8-.74-.8-.41 0-.92.31-.92 1.08v1.67h-.5v-3.12h.44l.03.49c.22-.38.61-.55 1-.55.44 0 .87.19 1.07.61.19-.42.69-.61 1.09-.61.59 0 1.19.36 1.19 1.18zM99.2 156.91l-.03.39c-.09.03-.22.06-.37.06-.31 0-.51-.11-.56-.46-.2.29-.61.46-1 .46-.59 0-1.06-.27-1.06-.84 0-.47.41-.84 1.22-.97l.83-.14v-.17c0-.41-.26-.69-.73-.69-.41 0-.72.2-.89.59l-.37-.27c.16-.46.66-.76 1.26-.76.71 0 1.23.34 1.23 1.06v1.54c0 .15.06.22.24.22a.6.6 0 0 0 .23-.02zm-.98-.66v-.43l-.7.13c-.55.1-.83.28-.83.57 0 .26.21.4.57.4.5.01.96-.26.96-.67zM100.93 157.82c-.24.61-.52.82-.99.82-.31 0-.51-.08-.69-.26l.17-.42c.14.2.33.25.51.25.22 0 .41-.09.57-.51l.16-.41-1.3-3.11h.57l.78 2.03.19.56.22-.62.73-1.97h.54l-1.46 3.64zM107.49 154.18l-1.3 3.12h-.5l-1.3-3.12h.57l.99 2.61 1.02-2.61h.52zM110.88 156.91l-.03.39c-.09.03-.22.06-.37.06-.31 0-.51-.11-.56-.46-.2.29-.61.46-1 .46-.59 0-1.06-.27-1.06-.84 0-.47.41-.84 1.22-.97l.83-.14v-.17c0-.41-.26-.69-.73-.69-.41 0-.72.2-.89.59l-.37-.27c.16-.46.66-.76 1.26-.76.71 0 1.23.34 1.23 1.06v1.54c0 .15.06.22.24.22.06.01.15 0 .23-.02zm-.99-.66v-.43l-.7.13c-.55.1-.83.28-.83.57 0 .26.21.4.57.4.5.01.96-.26.96-.67zM113.42 154.18l-.1.49a.84.84 0 0 0-.39-.08c-.37 0-.82.33-.82 1.03v1.68h-.5v-3.12h.41l.07.51c.17-.38.51-.57 1-.57.09 0 .23.01.33.06zM115.33 157.82c-.24.61-.52.82-.99.82-.31 0-.51-.08-.69-.26l.17-.42c.14.2.33.25.51.25.22 0 .41-.09.57-.51l.16-.41-1.3-3.11h.57l.78 2.03.19.56.22-.62.73-1.97h.54l-1.46 3.64zM117.68 156.96c0 .24-.16.41-.41.41-.24 0-.41-.16-.41-.41 0-.24.16-.41.41-.41.25 0 .41.16.41.41z"/></svg>