<svg id="Layer_1" xmlns="http://www.w3.org/2000/svg" viewBox="0 0 300 250"><style>.st0{fill:#fff}</style><path class="st0" d="M14.92 145.37l-.36-.81-.15-.47-.34.43-.7.68-.41-.42.7-.68.44-.33-.46-.15-.8-.38.29-.53.8.38.42.28.04-.53.19-.89h.63l-.23.95-.19.51.51-.18.93-.18.04.59-.92.18-.54.04.26.42.37.8-.52.29zM15.32 147.31l2.9-4.84h.97l.65 4.84h-.76l-.42-3.35-.09-.75-.42.73-1.97 3.37h-.86zm1.27-1.31l.15-.64h2.57l-.14.64h-2.58zM22.22 147.39c-.28 0-.53-.04-.77-.12-.23-.08-.43-.2-.6-.36-.17-.16-.31-.34-.4-.55l.59-.36c.1.25.25.44.45.58.2.13.44.2.71.2.22 0 .4-.04.52-.13s.18-.21.18-.35a.34.34 0 0 0-.1-.26.694.694 0 0 0-.31-.16l-.59-.18c-.32-.09-.56-.22-.71-.39a.907.907 0 0 1-.23-.61c0-.22.06-.41.18-.58.12-.17.29-.3.51-.4.22-.1.48-.15.78-.15.36 0 .67.07.95.22.27.15.47.36.6.64l-.56.38c-.05-.13-.13-.24-.23-.33s-.21-.17-.34-.22-.27-.08-.43-.08c-.24 0-.42.04-.53.12-.12.08-.18.19-.18.33 0 .12.05.22.14.28s.2.11.33.15l.71.21c.25.07.45.19.59.35.14.16.21.35.21.56 0 .25-.06.46-.18.65s-.29.32-.51.42-.5.14-.78.14zM28.34 147.39c-.28 0-.53-.04-.77-.12-.23-.08-.43-.2-.6-.36-.17-.16-.31-.34-.4-.55l.59-.36c.1.25.25.44.45.58.2.13.44.2.71.2.22 0 .4-.04.52-.13s.18-.21.18-.35a.34.34 0 0 0-.1-.26.694.694 0 0 0-.31-.16l-.59-.18c-.32-.09-.56-.22-.71-.39a.907.907 0 0 1-.23-.61c0-.22.06-.41.18-.58.12-.17.29-.3.51-.4.22-.1.48-.15.78-.15.36 0 .67.07.95.22.27.15.47.36.6.64l-.56.38c-.05-.13-.13-.24-.23-.33s-.21-.17-.34-.22-.27-.08-.43-.08c-.24 0-.42.04-.53.12-.12.08-.18.19-.18.33 0 .12.05.22.14.28s.2.11.33.15l.71.21c.25.07.45.19.59.35.14.16.21.35.21.56 0 .25-.06.46-.18.65s-.29.32-.51.42-.49.14-.78.14zM30.42 147.31l1.23-5.31h.78l-.56 2.41-.12.09c.06-.2.16-.36.3-.5s.3-.24.48-.32.38-.11.6-.11c.26 0 .49.06.68.18.19.12.33.29.41.51s.09.49.02.8l-.53 2.25h-.78l.51-2.2c.06-.28.04-.5-.08-.66s-.3-.24-.56-.24c-.2 0-.37.04-.52.13s-.28.22-.38.38c-.1.17-.19.38-.25.63l-.45 1.94h-.78zM36.72 147.38c-.36 0-.67-.07-.92-.22s-.45-.34-.58-.6c-.14-.25-.21-.53-.21-.83 0-.42.08-.78.25-1.11s.39-.58.68-.76c.29-.19.63-.28 1.03-.28.36 0 .67.07.92.22s.44.34.58.59c.13.25.2.53.2.84 0 .41-.08.77-.24 1.1-.16.32-.38.58-.68.77-.3.19-.64.28-1.03.28zm.01-.62c.16 0 .31-.04.45-.12.14-.08.26-.19.37-.33.1-.14.19-.31.24-.49.06-.19.08-.39.08-.6 0-.2-.03-.37-.1-.52s-.17-.27-.31-.36a.934.934 0 0 0-.52-.13c-.16 0-.31.04-.45.12s-.26.19-.37.33c-.1.14-.18.3-.24.49a2 2 0 0 0-.09.61c0 .19.03.36.1.51.07.16.17.28.31.37.15.08.32.12.53.12zM39.6 147.31l-.34-3.66h.76l.2 2.84 1.47-2.84h.78l.31 2.88 1.47-2.88h.84l-1.99 3.66h-.86l-.33-2.71-1.43 2.71h-.88zM44.96 147.31l.85-3.66h.69l-.15.92-.07-.05c.1-.31.28-.55.54-.71.26-.16.54-.24.86-.24.27 0 .51.06.7.18.19.12.33.29.4.51s.08.49.01.81l-.52 2.24h-.78l.51-2.2c.06-.28.04-.5-.08-.66s-.3-.24-.56-.24c-.2 0-.37.04-.52.13s-.28.22-.38.38c-.1.17-.19.38-.25.63l-.45 1.94h-.8zM53.36 143.65l-.85 3.66h-.78l.85-3.66h.78zm-.18-.62c-.15 0-.26-.04-.35-.12a.37.37 0 0 1-.12-.32c0-.17.06-.3.16-.4.1-.09.23-.14.39-.14.15 0 .27.04.36.11.09.08.13.18.12.31-.01.18-.07.32-.17.41-.11.11-.23.15-.39.15zM53.68 147.31l.85-3.66h.69l-.15.92-.07-.05c.1-.31.28-.55.54-.71.26-.16.54-.24.86-.24.27 0 .51.06.7.18.19.12.33.29.4.51s.08.49.01.81l-.52 2.24h-.79l.51-2.2c.06-.28.04-.5-.08-.66s-.3-.24-.56-.24c-.2 0-.37.04-.52.13s-.28.22-.38.38c-.1.17-.19.38-.25.63l-.45 1.94h-.79zM62.03 147.37c-.27 0-.51-.06-.72-.19-.21-.13-.37-.31-.49-.55-.12-.23-.18-.51-.18-.83 0-.3.05-.58.14-.85.09-.27.22-.51.38-.71.16-.21.36-.37.59-.49.23-.12.48-.18.74-.18.2 0 .38.03.55.1.16.07.3.17.41.3.11.13.19.29.23.48l.19-.81h.78l-.85 3.66h-.7l.12-.68c-.12.22-.29.4-.5.54-.2.14-.43.21-.69.21zm.27-.62c.16 0 .3-.04.44-.12.14-.08.26-.2.37-.34s.19-.32.25-.51.09-.39.09-.6c0-.2-.04-.37-.11-.51s-.17-.26-.29-.33-.27-.12-.44-.12c-.18 0-.34.04-.49.12-.14.08-.27.2-.37.34-.1.14-.19.31-.25.5s-.09.38-.09.59c0 .21.03.39.1.54s.17.26.3.34.3.1.49.1zM69.22 147.38c-.35 0-.65-.07-.9-.22s-.44-.34-.58-.6-.2-.53-.2-.84c0-.42.08-.78.25-1.1s.39-.57.69-.76c.3-.19.64-.28 1.04-.28.29 0 .55.05.77.15.22.1.4.24.54.42s.22.39.25.62l-.78.16c-.01-.21-.08-.38-.21-.52s-.33-.21-.59-.21a.94.94 0 0 0-.47.12c-.14.08-.27.19-.37.33-.1.14-.19.3-.24.49s-.08.39-.08.6c0 .2.04.37.11.52.07.15.18.27.32.36.14.09.31.13.52.13.17 0 .33-.05.48-.14.15-.1.26-.23.32-.41l.73.26c-.13.29-.34.52-.62.68-.29.16-.61.24-.98.24zM72.42 147.37c-.37 0-.62-.11-.77-.32-.15-.21-.18-.5-.1-.85l.98-4.2h.78l-.98 4.21c-.05.19-.04.33.04.41.07.08.2.13.38.13.07 0 .13 0 .18-.01s.1-.01.14-.02l-.17.57c-.08.03-.15.05-.22.06-.07.02-.16.02-.26.02zM75.23 143.65l-.85 3.66h-.78l.85-3.66h.78zm-.18-.62c-.15 0-.26-.04-.35-.12a.37.37 0 0 1-.12-.32c0-.17.06-.3.16-.4.1-.09.23-.14.39-.14.15 0 .27.04.36.11.09.08.13.18.12.31-.01.18-.07.32-.17.41a.52.52 0 0 1-.39.15zM75.55 147.31l.85-3.66h.69l-.15.92-.07-.05c.1-.31.28-.55.54-.71.26-.16.54-.24.86-.24.27 0 .51.06.7.18.19.12.33.29.4.51s.08.49.01.81l-.52 2.24h-.78l.51-2.2c.06-.28.04-.5-.08-.66s-.3-.24-.56-.24c-.2 0-.37.04-.52.13s-.28.22-.38.38c-.1.17-.19.38-.25.63l-.45 1.94h-.8zM81.61 143.65l-.85 3.66h-.78l.85-3.66h.78zm-.19-.62c-.15 0-.26-.04-.35-.12a.37.37 0 0 1-.12-.32c0-.17.06-.3.16-.4.1-.09.23-.14.39-.14.15 0 .27.04.36.11.09.08.13.18.12.31-.01.18-.07.32-.17.41-.1.11-.23.15-.39.15zM83.82 147.38c-.35 0-.65-.07-.9-.22s-.44-.34-.58-.6-.2-.53-.2-.84c0-.42.08-.78.25-1.1s.39-.57.69-.76c.3-.19.64-.28 1.04-.28.29 0 .55.05.77.15.22.1.4.24.54.42s.22.39.25.62l-.78.16c-.01-.21-.08-.38-.21-.52s-.33-.21-.59-.21a.94.94 0 0 0-.47.12c-.14.08-.27.19-.37.33-.1.14-.19.3-.24.49s-.08.39-.08.6c0 .2.04.37.11.52.07.15.18.27.32.36.14.09.31.13.52.13.17 0 .33-.05.48-.14.15-.1.26-.23.32-.41l.73.26c-.13.29-.34.52-.62.68-.29.16-.61.24-.98.24zM87.47 147.37c-.27 0-.51-.06-.72-.19-.21-.13-.37-.31-.49-.55-.12-.23-.18-.51-.18-.83 0-.3.05-.58.14-.85.09-.27.22-.51.38-.71.16-.21.36-.37.59-.49.23-.12.48-.18.74-.18.2 0 .38.03.55.1.16.07.3.17.41.3.11.13.19.29.23.48l.19-.81h.78l-.85 3.66h-.7l.12-.68c-.12.22-.29.4-.5.54-.2.14-.44.21-.69.21zm.27-.62c.16 0 .3-.04.44-.12.14-.08.26-.2.37-.34s.19-.32.25-.51.09-.39.09-.6c0-.2-.04-.37-.11-.51s-.17-.26-.29-.33-.27-.12-.44-.12c-.18 0-.34.04-.49.12-.14.08-.27.2-.37.34-.1.14-.19.31-.25.5s-.09.38-.09.59c0 .21.03.39.1.54s.17.26.3.34.3.1.49.1zM91.51 147.37c-.37 0-.62-.11-.77-.32-.15-.21-.18-.5-.1-.85l.98-4.2h.78l-.98 4.21c-.05.19-.04.33.04.41.07.08.2.13.38.13.07 0 .13 0 .18-.01s.1-.01.14-.02l-.16.57c-.08.03-.15.05-.22.06-.08.02-.16.02-.27.02zM96.53 147.39c-.28 0-.53-.04-.77-.12-.23-.08-.43-.2-.6-.36-.17-.16-.31-.34-.4-.55l.59-.36c.1.25.25.44.45.58.2.13.44.2.71.2.22 0 .4-.04.52-.13s.18-.21.18-.35a.34.34 0 0 0-.1-.26.694.694 0 0 0-.31-.16l-.59-.18c-.32-.09-.56-.22-.71-.39a.907.907 0 0 1-.23-.61c0-.22.06-.41.18-.58.12-.17.29-.3.51-.4.22-.1.48-.15.78-.15.36 0 .67.07.95.22.27.15.47.36.6.64l-.56.38c-.05-.13-.13-.24-.23-.33s-.21-.17-.34-.22-.27-.08-.43-.08c-.24 0-.42.04-.53.12-.12.08-.18.19-.18.33 0 .12.05.22.14.28s.2.11.33.15l.71.21c.25.07.45.19.59.35.14.16.21.35.21.56 0 .25-.06.46-.18.65s-.29.32-.51.42-.49.14-.78.14zM98.84 144.26l.14-.62h2.6l-.14.62h-2.6zm1.34 3.11c-.25 0-.47-.05-.65-.14-.18-.1-.3-.24-.38-.42s-.08-.41-.02-.67l.75-3.28.84-.23-.83 3.52c-.05.21-.02.37.09.47.11.09.25.14.42.14.12 0 .22-.01.3-.04s.16-.07.23-.12l.06.58c-.13.08-.26.13-.39.16s-.26.03-.42.03zM103.01 147.37c-.26 0-.49-.06-.69-.18-.2-.12-.34-.29-.43-.51s-.09-.49-.02-.8l.52-2.24h.78l-.51 2.18c-.07.29-.04.52.08.67.12.15.31.23.56.23.2 0 .37-.04.52-.13.15-.08.27-.21.38-.38s.18-.38.23-.63l.45-1.94h.78l-.85 3.66h-.7l.15-.92.07.06c-.1.31-.27.54-.52.69-.21.16-.48.24-.8.24zM107.59 147.37c-.27 0-.51-.06-.72-.19-.21-.13-.37-.31-.49-.55-.12-.23-.18-.51-.18-.83 0-.3.05-.58.14-.85.09-.27.22-.51.38-.71.16-.21.36-.37.59-.49.23-.12.48-.18.74-.18.2 0 .38.03.55.1.16.07.3.17.41.3.11.13.19.29.23.48l.56-2.46h.78l-1.22 5.31h-.7l.12-.68c-.12.22-.29.4-.5.54-.21.14-.44.21-.69.21zm.26-.62c.16 0 .31-.04.45-.12s.26-.2.37-.34c.1-.15.18-.32.25-.51.06-.19.09-.39.09-.6 0-.2-.04-.37-.11-.51s-.17-.26-.29-.33-.27-.12-.44-.12c-.18 0-.34.04-.49.12-.14.08-.27.2-.37.34-.1.14-.19.31-.25.5s-.09.38-.09.59c0 .21.03.39.1.54s.17.26.3.34.29.1.48.1zM110.53 148.89c-.2 0-.37-.02-.51-.07a1.01 1.01 0 0 1-.36-.18l.27-.61c.17.15.36.23.58.23.15 0 .28-.04.39-.12s.23-.2.33-.37l.29-.46-.64-3.66h.78l.26 2.06.12.91.48-.86 1.19-2.1h.86l-2.65 4.26c-.14.23-.29.42-.44.57-.15.14-.3.25-.47.32-.13.05-.3.08-.48.08zM118.39 147.38c-.35 0-.64-.07-.89-.22-.25-.14-.44-.34-.58-.59a1.69 1.69 0 0 1-.21-.84c0-.39.08-.75.23-1.07.16-.33.38-.58.68-.78.3-.2.66-.29 1.08-.29.31 0 .58.06.81.19.22.13.4.3.51.53.12.23.18.49.18.8 0 .1-.01.2-.02.3s-.04.21-.07.31h-2.95v-.6h2.53l-.29.21c.02-.06.03-.12.04-.17s.01-.11.01-.16c0-.16-.03-.3-.09-.42s-.15-.21-.27-.27-.26-.09-.42-.09c-.22 0-.41.04-.56.13-.15.09-.28.21-.37.37-.09.15-.16.32-.2.51s-.06.37-.06.55c0 .21.04.38.12.53.08.15.19.27.34.35s.31.12.51.12c.23 0 .42-.05.56-.15.14-.1.26-.22.35-.37l.63.34c-.1.17-.23.31-.38.43-.16.12-.34.21-.54.27-.21.05-.43.08-.68.08zM123.73 143.65h.87l-2.25 3.66h-.86l-.59-3.66h.78l.4 3.27-.18-.03 1.83-3.24zM126.07 147.37c-.27 0-.51-.06-.72-.19-.21-.13-.37-.31-.49-.55-.12-.23-.18-.51-.18-.83 0-.3.05-.58.14-.85.09-.27.22-.51.38-.71.16-.21.36-.37.59-.49.23-.12.48-.18.74-.18.2 0 .38.03.55.1.16.07.3.17.41.3.11.13.19.29.23.48l.19-.81h.78l-.85 3.66h-.7l.12-.68c-.12.22-.29.4-.5.54-.21.14-.44.21-.69.21zm.27-.62c.16 0 .3-.04.44-.12.14-.08.26-.2.37-.34s.19-.32.25-.51.09-.39.09-.6c0-.2-.04-.37-.11-.51s-.17-.26-.29-.33-.27-.12-.44-.12c-.18 0-.34.04-.49.12-.14.08-.27.2-.37.34-.1.14-.19.31-.25.5s-.09.38-.09.59c0 .21.03.39.1.54s.17.26.3.34.3.1.49.1zM130.11 147.37c-.37 0-.62-.11-.77-.32-.15-.21-.18-.5-.1-.85l.98-4.2h.78l-.98 4.21c-.05.19-.04.33.04.41.07.08.2.13.38.13.07 0 .13 0 .18-.01s.1-.01.14-.02l-.17.57c-.08.03-.15.05-.22.06-.07.02-.15.02-.26.02zM132.71 147.37c-.26 0-.49-.06-.69-.18-.2-.12-.34-.29-.43-.51s-.09-.49-.02-.8l.52-2.24h.78l-.51 2.18c-.07.29-.04.52.08.67.12.15.31.23.56.23.2 0 .37-.04.52-.13.15-.08.27-.21.38-.38s.18-.38.23-.63l.45-1.94h.78l-.85 3.66h-.7l.15-.92.07.06c-.1.31-.27.54-.52.69-.21.16-.49.24-.8.24zM137.28 147.37c-.27 0-.51-.06-.72-.19-.21-.13-.37-.31-.49-.55-.12-.23-.18-.51-.18-.83 0-.3.05-.58.14-.85.09-.27.22-.51.38-.71.16-.21.36-.37.59-.49.23-.12.48-.18.74-.18.2 0 .38.03.55.1.16.07.3.17.41.3.11.13.19.29.23.48l.19-.81h.78l-.85 3.66h-.7l.12-.68c-.12.22-.29.4-.5.54-.2.14-.44.21-.69.21zm.27-.62c.16 0 .3-.04.44-.12.14-.08.26-.2.37-.34s.19-.32.25-.51.09-.39.09-.6c0-.2-.04-.37-.11-.51s-.17-.26-.29-.33-.27-.12-.44-.12c-.18 0-.34.04-.49.12-.14.08-.27.2-.37.34-.1.14-.19.31-.25.5s-.09.38-.09.59c0 .21.03.39.1.54s.17.26.3.34.3.1.49.1zM140.5 144.26l.14-.62h2.6l-.14.62h-2.6zm1.34 3.11c-.25 0-.47-.05-.65-.14-.18-.1-.3-.24-.38-.42s-.08-.41-.02-.67l.75-3.28.84-.23-.83 3.52c-.05.21-.02.37.09.47.11.09.25.14.42.14.12 0 .22-.01.3-.04s.16-.07.23-.12l.06.58c-.13.08-.26.13-.39.16s-.27.03-.42.03zM144.89 143.65l-.85 3.66h-.78l.85-3.66h.78zm-.19-.62c-.15 0-.26-.04-.35-.12a.37.37 0 0 1-.12-.32c0-.17.06-.3.16-.4.1-.09.23-.14.39-.14.15 0 .27.04.36.11.09.08.13.18.12.31-.01.18-.07.32-.17.41-.1.11-.23.15-.39.15zM145.21 147.31l.85-3.66h.69l-.15.92-.07-.05c.1-.31.28-.55.54-.71.26-.16.54-.24.86-.24.27 0 .51.06.7.18.19.12.33.29.4.51s.08.49.01.81l-.52 2.24h-.78l.51-2.2c.06-.28.04-.5-.08-.66s-.3-.24-.56-.24c-.2 0-.37.04-.52.13s-.28.22-.38.38c-.1.17-.19.38-.25.63l-.45 1.94h-.8zM151.02 148.89c-.21 0-.41-.03-.6-.08-.19-.06-.36-.14-.5-.24-.14-.11-.26-.23-.35-.38-.09-.15-.15-.32-.17-.51l.78-.19c.04.25.13.45.26.6.13.14.35.22.66.22.17 0 .32-.03.47-.09a.91.91 0 0 0 .39-.32c.11-.15.2-.36.26-.63l.21-.93.09-.06c-.07.3-.22.54-.45.71-.23.18-.5.26-.81.26-.27 0-.52-.07-.73-.2s-.38-.31-.51-.55c-.12-.23-.19-.5-.19-.79 0-.3.05-.58.14-.83.09-.25.22-.48.38-.67.16-.19.36-.34.58-.45.22-.1.47-.16.74-.16.23 0 .44.04.62.14.18.09.33.22.44.4.11.17.17.38.17.63l-.12.09.27-1.19h.78l-.84 3.61c-.09.4-.22.71-.41.95-.18.24-.4.41-.66.52-.29.08-.58.14-.9.14zm.48-2.29c.21 0 .4-.06.56-.19.16-.13.29-.3.39-.52.1-.22.15-.46.15-.73 0-.2-.04-.36-.1-.5-.07-.14-.17-.25-.3-.33s-.28-.12-.45-.12c-.23 0-.44.06-.61.19-.17.12-.31.29-.41.51-.1.21-.15.46-.15.73 0 .28.08.52.24.7.16.17.39.26.68.26zM158.39 147.38c-.36 0-.67-.07-.92-.22s-.45-.34-.58-.6-.21-.53-.21-.83c0-.42.08-.78.25-1.11s.39-.58.68-.76c.29-.19.63-.28 1.03-.28.36 0 .67.07.92.22s.44.34.58.59.2.53.2.84c0 .41-.08.77-.24 1.1-.16.32-.38.58-.68.77-.3.19-.64.28-1.03.28zm.01-.62c.16 0 .31-.04.45-.12.14-.08.26-.19.37-.33.11-.14.19-.31.24-.49.06-.19.08-.39.08-.6 0-.2-.03-.37-.1-.52a.833.833 0 0 0-.31-.36.934.934 0 0 0-.52-.13c-.16 0-.31.04-.45.12-.14.08-.26.19-.37.33-.1.14-.18.3-.24.49a2 2 0 0 0-.09.61c0 .19.03.36.1.51.07.16.17.28.31.37.15.08.32.12.53.12zM163.8 143.65h.87l-2.25 3.66h-.86l-.59-3.66h.78l.4 3.27-.18-.03 1.83-3.24zM166.44 147.38c-.35 0-.64-.07-.89-.22-.25-.14-.44-.34-.58-.59s-.21-.53-.21-.84c0-.39.08-.75.23-1.07.16-.33.38-.58.68-.78.3-.2.66-.29 1.08-.29.31 0 .58.06.81.19.22.13.4.3.51.53.12.23.18.49.18.8 0 .1-.01.2-.02.3-.01.1-.04.21-.07.31h-2.95v-.6h2.53l-.29.21c.02-.06.03-.12.04-.17s.01-.11.01-.16c0-.16-.03-.3-.09-.42s-.15-.21-.27-.27-.26-.09-.42-.09c-.22 0-.41.04-.56.13-.15.09-.28.21-.37.37-.09.15-.16.32-.2.51s-.06.37-.06.55c0 .21.04.38.12.53.08.15.19.27.34.35.14.08.31.12.51.12.23 0 .42-.05.56-.15.14-.1.26-.22.35-.37l.63.34c-.1.17-.23.31-.38.43-.16.12-.34.21-.54.27-.21.05-.44.08-.68.08zM168.78 147.31l.85-3.66h.66l-.12.99-.08-.07c.08-.21.18-.38.32-.53.13-.15.29-.26.46-.34.18-.08.36-.12.55-.12.08 0 .15 0 .21.01s.11.03.16.05l-.21.7c-.05-.02-.1-.04-.17-.06-.06-.01-.14-.02-.23-.02-.18 0-.34.04-.5.12-.16.08-.29.2-.41.37-.12.17-.21.38-.27.65l-.44 1.9h-.78zM173.18 147.37c-.27 0-.51-.06-.72-.19-.21-.13-.37-.31-.49-.55s-.18-.51-.18-.83c0-.3.04-.58.14-.85.09-.27.22-.51.38-.71.16-.21.36-.37.59-.49.23-.12.47-.18.74-.18.2 0 .38.03.55.1.16.07.3.17.41.3.11.13.19.29.23.48l.19-.81h.78l-.85 3.66h-.7l.12-.68c-.12.22-.29.4-.5.54-.2.14-.43.21-.69.21zm.27-.62c.16 0 .3-.04.44-.12.14-.08.26-.2.37-.34.11-.15.19-.32.25-.51s.09-.39.09-.6c0-.2-.04-.37-.11-.51a.783.783 0 0 0-.73-.45c-.18 0-.34.04-.49.12-.14.08-.27.2-.37.34-.11.14-.19.31-.25.5s-.09.38-.09.59c0 .21.03.39.1.54s.17.26.3.34.3.1.49.1zM177.23 147.37c-.37 0-.62-.11-.77-.32s-.18-.5-.1-.85l.97-4.2h.78l-.97 4.21c-.05.19-.04.33.04.41.07.08.2.13.38.13.07 0 .13 0 .18-.01.05 0 .1-.01.14-.02l-.17.57c-.08.03-.15.05-.22.06-.07.02-.16.02-.26.02zM179.51 147.37c-.37 0-.62-.11-.77-.32s-.18-.5-.1-.85l.97-4.2h.78l-.97 4.21c-.05.19-.04.33.04.41.07.08.2.13.38.13.07 0 .13 0 .18-.01.05 0 .1-.01.14-.02l-.17.57c-.08.03-.15.05-.22.06-.07.02-.16.02-.26.02zM182.47 148.85l1.2-5.2h.7l-.18 1-.09.05c.06-.23.16-.43.29-.6.13-.17.3-.29.5-.38.2-.09.41-.13.63-.13.25 0 .47.06.67.18.2.12.35.3.47.53.11.23.17.51.17.84 0 .31-.05.6-.14.87s-.22.51-.39.71-.36.37-.58.48-.46.18-.73.18c-.23 0-.44-.04-.62-.13s-.33-.22-.44-.39c-.11-.17-.17-.38-.18-.62l.12-.12-.62 2.73h-.78zm2.42-2.09c.16 0 .31-.04.46-.12.14-.08.27-.19.37-.34s.19-.31.25-.5.09-.39.09-.6c0-.21-.04-.39-.11-.53s-.17-.25-.3-.33-.28-.11-.45-.11c-.18 0-.33.04-.48.12s-.27.2-.37.34c-.11.14-.19.31-.24.51-.06.2-.08.4-.08.62 0 .28.07.51.22.68.14.17.36.26.64.26zM188.92 147.37c-.27 0-.51-.06-.72-.19-.21-.13-.37-.31-.49-.55s-.18-.51-.18-.83c0-.3.04-.58.14-.85.09-.27.22-.51.38-.71.16-.21.36-.37.59-.49.23-.12.47-.18.74-.18.2 0 .38.03.55.1.16.07.3.17.41.3.11.13.19.29.23.48l.19-.81h.78l-.85 3.66H190l.12-.68c-.12.22-.29.4-.5.54-.21.14-.44.21-.7.21zm.27-.62c.16 0 .3-.04.44-.12.14-.08.26-.2.37-.34.11-.15.19-.32.25-.51s.09-.39.09-.6c0-.2-.04-.37-.11-.51a.783.783 0 0 0-.73-.45c-.18 0-.34.04-.49.12-.14.08-.27.2-.37.34-.11.14-.19.31-.25.5s-.09.38-.09.59c0 .21.03.39.1.54s.17.26.3.34.3.1.49.1zM192.14 144.26l.14-.62h2.6l-.14.62h-2.6zm1.34 3.11c-.25 0-.47-.05-.65-.14-.18-.1-.3-.24-.38-.42s-.08-.41-.02-.67l.75-3.28.84-.23-.83 3.52c-.05.21-.02.37.09.47.11.09.25.14.42.14.12 0 .22-.01.3-.04.08-.03.16-.07.23-.12l.06.58c-.13.08-.26.13-.39.16-.12.02-.27.03-.42.03zM196.53 143.65l-.85 3.66h-.78l.85-3.66h.78zm-.18-.62c-.15 0-.26-.04-.35-.12s-.13-.19-.12-.32c0-.17.06-.3.16-.4s.23-.14.39-.14c.15 0 .27.04.35.11.09.08.13.18.12.31-.01.18-.07.32-.17.41s-.23.15-.38.15zM198.73 147.38c-.35 0-.64-.07-.89-.22-.25-.14-.44-.34-.58-.59s-.21-.53-.21-.84c0-.39.08-.75.23-1.07.16-.33.38-.58.68-.78.3-.2.66-.29 1.08-.29.31 0 .58.06.81.19.22.13.4.3.51.53.12.23.18.49.18.8 0 .1-.01.2-.02.3-.01.1-.04.21-.07.31h-2.95v-.6h2.53l-.29.21c.02-.06.03-.12.04-.17s.01-.11.01-.16c0-.16-.03-.3-.09-.42s-.15-.21-.27-.27-.26-.09-.42-.09c-.22 0-.41.04-.56.13-.15.09-.28.21-.37.37-.09.15-.16.32-.2.51s-.06.37-.06.55c0 .21.04.38.12.53.08.15.19.27.34.35.14.08.31.12.51.12.23 0 .42-.05.56-.15.14-.1.26-.22.35-.37l.63.34c-.1.17-.23.31-.38.43-.16.12-.34.21-.54.27-.21.05-.44.08-.68.08zM201.07 147.31l.85-3.66h.69l-.15.92-.07-.05c.1-.31.28-.55.54-.71.26-.16.54-.24.86-.24.27 0 .51.06.7.18.19.12.32.29.4.51s.08.49.01.81l-.52 2.24h-.78l.51-2.2c.06-.28.04-.5-.08-.66s-.3-.24-.56-.24c-.2 0-.37.04-.52.13s-.28.22-.38.38c-.1.17-.19.38-.25.63l-.45 1.94h-.8zM205.71 144.26l.14-.62h2.6l-.14.62h-2.6zm1.34 3.11c-.25 0-.47-.05-.65-.14-.18-.1-.3-.24-.38-.42s-.08-.41-.02-.67l.75-3.28.84-.23-.83 3.52c-.05.21-.02.37.09.47.11.09.25.14.42.14.12 0 .22-.01.3-.04.08-.03.16-.07.23-.12l.06.58c-.13.08-.26.13-.39.16-.13.02-.27.03-.42.03zM212.51 147.39c-.28 0-.53-.04-.77-.12-.23-.08-.43-.2-.6-.36s-.3-.34-.4-.55l.59-.36c.1.25.25.44.45.58.2.13.44.2.71.2.22 0 .4-.04.52-.13s.18-.21.18-.35a.34.34 0 0 0-.1-.26.683.683 0 0 0-.32-.16l-.59-.18c-.32-.09-.56-.22-.71-.39a.907.907 0 0 1-.23-.61c0-.22.06-.41.18-.58.12-.17.29-.3.51-.4s.48-.15.78-.15c.36 0 .67.07.95.22s.47.36.6.64l-.56.38c-.05-.13-.13-.24-.23-.33s-.21-.17-.34-.22c-.13-.05-.27-.08-.43-.08-.24 0-.42.04-.54.12-.12.08-.18.19-.18.33 0 .12.05.22.14.28s.2.11.33.15l.71.21c.25.07.45.19.59.35.14.16.21.35.21.56 0 .25-.06.46-.18.65s-.29.32-.51.42-.48.14-.76.14zM216.1 147.37c-.27 0-.51-.06-.72-.19-.21-.13-.37-.31-.49-.55s-.18-.51-.18-.83c0-.3.04-.58.14-.85.09-.27.22-.51.38-.71.16-.21.36-.37.59-.49.23-.12.47-.18.74-.18.2 0 .38.03.55.1.16.07.3.17.41.3.11.13.19.29.23.48l.19-.81h.78l-.85 3.66h-.7l.12-.68c-.12.22-.29.4-.5.54-.2.14-.44.21-.69.21zm.27-.62c.16 0 .3-.04.44-.12.14-.08.26-.2.37-.34.11-.15.19-.32.25-.51s.09-.39.09-.6c0-.2-.04-.37-.11-.51a.783.783 0 0 0-.73-.45c-.18 0-.34.04-.49.12-.14.08-.27.2-.37.34-.11.14-.19.31-.25.5s-.09.38-.09.59c0 .21.03.39.1.54s.17.26.3.34.3.1.49.1zM219.31 144.26l.14-.62h2.6l-.14.62h-2.6zm1.35 3.11c-.25 0-.47-.05-.65-.14-.18-.1-.3-.24-.38-.42s-.08-.41-.02-.67l.75-3.28.84-.23-.83 3.52c-.05.21-.02.37.09.47.11.09.25.14.42.14.12 0 .22-.01.3-.04.08-.03.16-.07.23-.12l.06.58c-.13.08-.26.13-.39.16-.13.02-.27.03-.42.03zM223.71 143.65l-.85 3.66h-.78l.85-3.66h.78zm-.19-.62c-.15 0-.26-.04-.35-.12s-.13-.19-.12-.32c0-.17.06-.3.16-.4s.23-.14.39-.14c.15 0 .27.04.35.11.09.08.13.18.12.31-.01.18-.07.32-.17.41s-.22.15-.38.15zM225.72 147.39c-.28 0-.53-.04-.77-.12-.23-.08-.43-.2-.6-.36s-.3-.34-.4-.55l.59-.36c.1.25.25.44.45.58.2.13.44.2.71.2.22 0 .4-.04.52-.13s.18-.21.18-.35a.34.34 0 0 0-.1-.26.683.683 0 0 0-.32-.16l-.59-.18c-.32-.09-.56-.22-.71-.39a.907.907 0 0 1-.23-.61c0-.22.06-.41.18-.58.12-.17.29-.3.51-.4s.48-.15.78-.15c.36 0 .67.07.95.22s.47.36.6.64l-.56.38c-.05-.13-.13-.24-.23-.33s-.21-.17-.34-.22c-.13-.05-.27-.08-.43-.08-.24 0-.42.04-.54.12-.12.08-.18.19-.18.33 0 .12.05.22.14.28s.2.11.33.15l.71.21c.25.07.45.19.59.35.14.16.21.35.21.56 0 .25-.06.46-.18.65s-.29.32-.51.42-.47.14-.76.14zM228.08 144.26l.15-.62h2.58l-.15.62h-2.58zm.01 3.05l.98-4.25c.06-.27.16-.48.28-.64.12-.16.28-.28.46-.36.19-.08.4-.11.64-.11.15 0 .29.02.42.05.13.03.22.07.29.13l-.22.57c-.04-.03-.11-.06-.18-.08s-.17-.04-.26-.04c-.2 0-.35.04-.46.14s-.19.25-.23.48l-.12.52-.03.2-.78 3.4h-.79zM232.27 147.37c-.27 0-.51-.06-.72-.19-.21-.13-.37-.31-.49-.55s-.18-.51-.18-.83c0-.3.04-.58.14-.85.09-.27.22-.51.38-.71.16-.21.36-.37.59-.49.23-.12.47-.18.74-.18.2 0 .38.03.55.1.16.07.3.17.41.3.11.13.19.29.23.48l.19-.81h.78l-.85 3.66h-.7l.12-.68c-.12.22-.29.4-.5.54-.21.14-.44.21-.69.21zm.27-.62c.16 0 .3-.04.44-.12.14-.08.26-.2.37-.34.11-.15.19-.32.25-.51s.09-.39.09-.6c0-.2-.04-.37-.11-.51a.783.783 0 0 0-.73-.45c-.18 0-.34.04-.49.12-.14.08-.27.2-.37.34-.11.14-.19.31-.25.5s-.09.38-.09.59c0 .21.03.39.1.54s.17.26.3.34.3.1.49.1zM237.1 147.38c-.35 0-.65-.07-.91-.22-.25-.15-.44-.34-.58-.6-.13-.25-.2-.53-.2-.84 0-.42.08-.78.25-1.1.16-.32.39-.57.69-.76.3-.19.64-.28 1.04-.28.29 0 .55.05.77.15.22.1.4.24.54.42s.22.39.25.62l-.78.16a.788.788 0 0 0-.21-.52c-.13-.14-.33-.21-.59-.21a.94.94 0 0 0-.47.12c-.14.08-.26.19-.37.33-.1.14-.19.3-.24.49-.06.19-.08.39-.08.6 0 .2.04.37.11.52.07.15.18.27.32.36.14.09.31.13.52.13.17 0 .33-.05.48-.14.15-.1.26-.23.32-.41l.73.26c-.13.29-.34.52-.62.68-.28.16-.6.24-.97.24zM239.46 144.26l.14-.62h2.6l-.14.62h-2.6zm1.34 3.11c-.25 0-.47-.05-.65-.14-.18-.1-.3-.24-.38-.42s-.08-.41-.02-.67l.75-3.28.84-.23-.83 3.52c-.05.21-.02.37.09.47.11.09.25.14.42.14.12 0 .22-.01.3-.04.08-.03.16-.07.23-.12l.06.58c-.13.08-.26.13-.39.16-.12.02-.26.03-.42.03zM243.85 143.65l-.85 3.66h-.78l.85-3.66h.78zm-.18-.62c-.15 0-.26-.04-.35-.12s-.13-.19-.12-.32c0-.17.06-.3.16-.4s.23-.14.39-.14c.15 0 .27.04.35.11.09.08.13.18.12.31-.01.18-.07.32-.17.41s-.22.15-.38.15zM246.08 147.38c-.36 0-.67-.07-.92-.22s-.45-.34-.58-.6-.21-.53-.21-.83c0-.42.08-.78.25-1.11s.39-.58.68-.76c.29-.19.63-.28 1.03-.28.36 0 .67.07.92.22s.44.34.58.59.2.53.2.84c0 .41-.08.77-.24 1.1-.16.32-.38.58-.68.77-.3.19-.64.28-1.03.28zm.01-.62c.16 0 .31-.04.45-.12.14-.08.26-.19.37-.33.11-.14.19-.31.24-.49.06-.19.08-.39.08-.6 0-.2-.03-.37-.1-.52a.833.833 0 0 0-.31-.36.934.934 0 0 0-.52-.13c-.16 0-.31.04-.45.12-.14.08-.26.19-.37.33-.1.14-.18.3-.24.49a2 2 0 0 0-.09.61c0 .19.03.36.1.51.07.16.17.28.31.37.15.08.32.12.53.12zM248.54 147.31l.85-3.66h.69l-.15.92-.07-.05c.1-.31.28-.55.54-.71.26-.16.54-.24.86-.24.27 0 .51.06.7.18.19.12.32.29.4.51s.08.49.01.81l-.52 2.24h-.78l.51-2.2c.06-.28.04-.5-.08-.66s-.3-.24-.56-.24c-.2 0-.37.04-.52.13s-.28.22-.38.38c-.1.17-.19.38-.25.63l-.45 1.94h-.8zM12.86 156.6l-.34-3.66h.76l.2 2.84 1.47-2.84h.78l.31 2.88 1.47-2.88h.84l-1.99 3.66h-.86l-.33-2.71-1.43 2.71h-.88zM19.85 152.93L19 156.6h-.78l.85-3.66h.78zm-.18-.61c-.15 0-.26-.04-.35-.12a.37.37 0 0 1-.12-.32c0-.17.06-.3.16-.4.1-.09.23-.14.39-.14.15 0 .27.04.36.11.09.08.13.18.12.31-.01.18-.07.32-.17.41a.56.56 0 0 1-.39.15zM20.44 153.55l.14-.62h2.6l-.14.62h-2.6zm1.34 3.1c-.25 0-.47-.05-.65-.14-.18-.1-.3-.24-.38-.42s-.08-.41-.02-.67l.75-3.28.84-.23-.83 3.52c-.05.21-.02.37.09.47.11.09.25.14.42.14.12 0 .22-.01.3-.04s.16-.07.23-.12l.06.58c-.13.08-.26.13-.39.16s-.27.03-.42.03zM23.22 156.6l1.23-5.31h.78l-.56 2.41-.12.09c.06-.2.16-.36.3-.5s.3-.24.48-.32.38-.11.6-.11c.26 0 .49.06.68.18.19.12.33.29.41.51s.09.49.02.8l-.53 2.25h-.78l.51-2.2c.06-.28.04-.5-.08-.66s-.3-.24-.56-.24c-.2 0-.37.04-.52.13s-.28.22-.38.38c-.1.17-.19.38-.25.63L24 156.6h-.78zM32.48 156.67c-.39 0-.74-.08-1.06-.24-.32-.16-.57-.39-.75-.7-.19-.31-.28-.69-.28-1.14 0-.38.05-.74.16-1.08s.27-.65.48-.93c.22-.27.48-.49.8-.65s.68-.24 1.09-.24c.32 0 .61.05.86.16s.46.26.63.47c.17.21.3.47.37.79l-.8.23c-.06-.34-.19-.59-.37-.74-.19-.15-.44-.23-.75-.23-.27 0-.51.06-.72.19-.21.13-.38.3-.52.51-.14.21-.24.44-.32.7-.07.26-.11.51-.11.77 0 .3.06.56.17.78s.27.38.47.5c.2.12.43.18.68.18.3 0 .53-.07.71-.2.17-.13.32-.31.44-.54l.73.32c-.2.33-.45.6-.76.79-.3.2-.69.3-1.15.3zM36.83 156.66c-.36 0-.67-.07-.92-.22s-.45-.34-.58-.6c-.14-.25-.21-.53-.21-.83 0-.42.08-.78.25-1.11s.39-.58.68-.76c.29-.19.63-.28 1.03-.28.36 0 .67.07.92.22s.44.34.58.59c.13.25.2.53.2.84 0 .41-.08.77-.24 1.1-.16.32-.38.58-.68.77-.3.19-.64.28-1.03.28zm.01-.61c.16 0 .31-.04.45-.12.14-.08.26-.19.37-.33.1-.14.19-.31.24-.49.06-.19.08-.39.08-.6 0-.2-.03-.37-.1-.52s-.17-.27-.31-.36a.934.934 0 0 0-.52-.13c-.16 0-.31.04-.45.12s-.26.19-.37.33c-.1.14-.18.3-.24.49a2 2 0 0 0-.09.61c0 .19.03.36.1.51.07.16.17.28.31.37.15.07.32.12.53.12zM41.2 156.66c-.36 0-.67-.07-.92-.22s-.45-.34-.58-.6c-.14-.25-.21-.53-.21-.83 0-.42.08-.78.25-1.11s.39-.58.68-.76c.29-.19.63-.28 1.03-.28.36 0 .67.07.92.22s.44.34.58.59c.13.25.2.53.2.84 0 .41-.08.77-.24 1.1-.16.32-.38.58-.68.77-.3.19-.64.28-1.03.28zm.01-.61c.16 0 .31-.04.45-.12.14-.08.26-.19.37-.33.1-.14.19-.31.24-.49.06-.19.08-.39.08-.6 0-.2-.03-.37-.1-.52s-.17-.27-.31-.36a.934.934 0 0 0-.52-.13c-.16 0-.31.04-.45.12s-.26.19-.37.33c-.1.14-.18.3-.24.49a2 2 0 0 0-.09.61c0 .19.03.36.1.51.07.16.17.28.31.37.15.07.32.12.53.12zM44.76 156.65c-.37 0-.62-.11-.77-.32-.15-.21-.18-.5-.1-.85l.98-4.2h.78l-.98 4.21c-.05.19-.04.33.04.41.07.08.2.13.38.13.07 0 .13 0 .18-.01s.1-.01.14-.02l-.17.57c-.08.03-.15.05-.22.06-.07.02-.16.02-.26.02zM48.23 156.66c-.35 0-.68-.05-.97-.16-.3-.1-.55-.26-.77-.46-.22-.2-.39-.45-.51-.75l.64-.43c.09.26.22.48.39.64.17.16.36.28.58.36.22.08.45.11.69.11.21 0 .39-.04.54-.11.14-.07.25-.16.32-.27.07-.11.11-.23.11-.36 0-.16-.05-.29-.16-.38-.1-.09-.26-.17-.46-.22l-.76-.22c-.24-.07-.45-.17-.63-.29-.17-.12-.31-.26-.4-.42s-.14-.35-.14-.55c0-.28.08-.54.23-.76s.36-.4.63-.53.59-.19.96-.19c.48 0 .89.09 1.21.29.33.19.57.48.74.86l-.65.41c-.07-.23-.18-.41-.32-.54-.14-.12-.3-.21-.47-.26-.17-.05-.36-.07-.55-.07-.21 0-.39.03-.54.09-.14.06-.25.15-.32.25s-.11.22-.11.35c0 .15.06.28.18.4s.28.21.48.26l.82.25c.36.11.63.26.81.45.18.19.27.43.27.72 0 .31-.08.58-.25.81-.16.23-.38.4-.66.53-.29.13-.59.19-.93.19zM52.51 156.66c-.35 0-.65-.07-.9-.22s-.44-.34-.58-.6-.2-.53-.2-.84c0-.42.08-.78.25-1.1s.39-.57.69-.76c.3-.19.64-.28 1.04-.28.29 0 .55.05.77.15.22.1.4.24.54.42s.22.39.25.62l-.78.16c-.01-.21-.08-.38-.21-.52s-.33-.21-.59-.21a.94.94 0 0 0-.47.12c-.14.08-.27.19-.37.33-.1.14-.19.3-.24.49s-.08.39-.08.6c0 .2.04.37.11.52.07.15.18.27.32.36.14.09.31.13.52.13.17 0 .33-.05.48-.14.15-.1.26-.23.32-.41l.73.26c-.13.29-.34.52-.62.68-.29.16-.61.24-.98.24zM56 156.65c-.26 0-.49-.06-.69-.18-.2-.12-.34-.29-.43-.51s-.09-.49-.02-.8l.52-2.24h.78l-.51 2.18c-.07.29-.04.52.08.67.12.15.31.23.56.23.2 0 .37-.04.52-.13.15-.08.27-.21.38-.38s.18-.38.23-.63l.45-1.94h.78l-.85 3.66h-.7l.15-.92.07.06c-.1.31-.27.54-.52.69-.21.17-.49.24-.8.24zM60.1 156.65c-.37 0-.62-.11-.77-.32-.15-.21-.18-.5-.1-.85l.98-4.2h.78l-.98 4.21c-.05.19-.04.33.04.41.07.08.2.13.38.13.07 0 .13 0 .18-.01s.1-.01.14-.02l-.17.57c-.08.03-.15.05-.22.06-.07.02-.16.02-.26.02zM60.92 158.13l1.2-5.2h.7l-.18 1-.09.05c.06-.23.15-.43.29-.6.13-.17.3-.29.5-.38s.41-.13.63-.13c.25 0 .47.06.67.18s.35.3.47.53c.11.23.17.51.17.84 0 .31-.05.6-.14.87s-.22.51-.39.71-.36.37-.58.48-.47.18-.73.18c-.23 0-.44-.04-.62-.13s-.33-.22-.44-.39c-.11-.17-.17-.38-.18-.62l.12-.12-.62 2.73h-.78zm2.42-2.09c.16 0 .31-.04.45-.12.14-.08.27-.19.37-.34s.19-.31.25-.5.09-.39.09-.6c0-.21-.04-.39-.11-.53s-.17-.25-.3-.33-.28-.11-.45-.11c-.18 0-.33.04-.48.12-.14.08-.27.2-.37.34-.11.14-.19.31-.24.51s-.08.4-.08.62c0 .28.07.51.22.68.15.17.37.26.65.26zM65.94 153.55l.14-.62h2.6l-.14.62h-2.6zm1.34 3.1c-.25 0-.47-.05-.65-.14-.18-.1-.3-.24-.38-.42s-.08-.41-.02-.67l.75-3.28.84-.23-.82 3.51c-.05.21-.02.37.09.47.11.09.25.14.42.14.12 0 .22-.01.3-.04s.16-.07.23-.12l.06.58c-.13.08-.26.13-.39.16s-.28.04-.43.04zM70.33 152.93l-.85 3.66h-.78l.85-3.66h.78zm-.19-.61c-.15 0-.26-.04-.35-.12a.37.37 0 0 1-.12-.32c0-.17.06-.3.16-.4.1-.09.23-.14.39-.14.15 0 .27.04.36.11.09.08.13.18.12.31-.01.18-.07.32-.17.41-.1.1-.23.15-.39.15zM70.65 156.6l.85-3.66h.69l-.15.92-.07-.05c.1-.31.28-.55.54-.71.26-.16.54-.24.86-.24.27 0 .51.06.7.18.19.12.33.29.4.51s.08.49.01.81l-.52 2.24h-.78l.51-2.2c.06-.28.04-.5-.08-.66s-.3-.24-.56-.24c-.2 0-.37.04-.52.13s-.28.22-.38.38c-.1.17-.19.38-.25.63l-.45 1.94h-.8zM76.46 158.17c-.21 0-.41-.03-.6-.08-.19-.06-.36-.14-.5-.24-.14-.11-.26-.23-.35-.38-.09-.15-.15-.32-.17-.51l.78-.19c.04.25.13.45.26.6.13.14.35.22.66.22.17 0 .32-.03.47-.09.15-.06.28-.17.39-.32s.2-.36.26-.63l.21-.93.09-.06c-.07.3-.23.54-.45.71s-.5.26-.81.26c-.27 0-.52-.07-.73-.2s-.38-.31-.51-.55c-.12-.23-.19-.5-.19-.79 0-.3.05-.58.14-.83.09-.25.22-.48.38-.67.16-.19.36-.34.58-.45.22-.1.47-.16.74-.16.23 0 .43.04.62.14.18.09.33.22.44.4.11.17.17.38.17.63l-.12.09.27-1.19h.78l-.84 3.61c-.09.4-.22.71-.41.95-.18.24-.4.41-.66.52-.29.09-.58.14-.9.14zm.48-2.29c.21 0 .4-.06.56-.19.16-.13.29-.3.39-.52.1-.22.15-.46.15-.73 0-.2-.03-.36-.1-.5s-.17-.25-.3-.33-.28-.12-.45-.12c-.23 0-.44.06-.61.19-.17.12-.31.29-.41.51-.1.21-.15.46-.15.73 0 .28.08.52.24.7.16.17.39.26.68.26zM83.33 156.65c-.26 0-.49-.06-.69-.18-.2-.12-.34-.29-.43-.51s-.09-.49-.02-.8l.52-2.24h.78l-.49 2.19c-.07.29-.04.52.08.67.12.15.31.23.56.23.2 0 .37-.04.52-.13.15-.08.27-.21.38-.38s.18-.38.23-.63l.45-1.94H86l-.85 3.66h-.7l.15-.92.07.06c-.1.31-.27.54-.52.69-.22.16-.5.23-.82.23zM88.02 156.68c-.28 0-.53-.04-.77-.12-.23-.08-.43-.2-.6-.36-.17-.16-.31-.34-.4-.55l.59-.36c.1.25.25.44.45.58.2.13.44.2.71.2.22 0 .4-.04.52-.13s.18-.21.18-.35a.34.34 0 0 0-.1-.26.694.694 0 0 0-.31-.16l-.59-.18c-.32-.09-.56-.22-.71-.39a.907.907 0 0 1-.23-.61c0-.22.06-.41.18-.58.12-.17.29-.3.51-.4.22-.1.48-.15.78-.15.36 0 .67.07.95.22.27.15.47.36.6.64l-.56.38c-.05-.13-.13-.24-.23-.33s-.21-.17-.34-.22-.27-.08-.43-.08c-.24 0-.42.04-.53.12-.12.08-.18.19-.18.33 0 .12.05.22.14.28s.2.11.33.15l.71.21c.25.07.45.19.59.35.14.16.21.35.21.56 0 .25-.06.46-.18.65s-.29.32-.51.42-.49.14-.78.14zM91.74 152.93l-.85 3.66h-.78l.85-3.66h.78zm-.18-.61c-.15 0-.26-.04-.35-.12a.37.37 0 0 1-.12-.32c0-.17.06-.3.16-.4.1-.09.23-.14.39-.14.15 0 .27.04.36.11.09.08.13.18.12.31-.01.18-.07.32-.17.41a.56.56 0 0 1-.39.15zM92.06 156.6l.85-3.66h.69l-.15.92-.07-.05c.1-.31.28-.55.54-.71.26-.16.54-.24.86-.24.27 0 .51.06.7.18.19.12.33.29.4.51s.08.49.01.81l-.52 2.24h-.78l.51-2.2c.06-.28.04-.5-.08-.66s-.3-.24-.56-.24c-.2 0-.37.04-.52.13s-.28.22-.38.38c-.1.17-.19.38-.25.63l-.45 1.94h-.8zM97.87 158.17c-.21 0-.41-.03-.6-.08-.19-.06-.36-.14-.5-.24-.14-.11-.26-.23-.35-.38-.09-.15-.15-.32-.17-.51l.78-.19c.04.25.13.45.26.6.13.14.35.22.66.22.17 0 .32-.03.47-.09.15-.06.28-.17.39-.32s.2-.36.26-.63l.21-.93.09-.06c-.07.3-.23.54-.45.71s-.5.26-.81.26c-.27 0-.52-.07-.73-.2s-.38-.31-.51-.55c-.12-.23-.19-.5-.19-.79 0-.3.05-.58.14-.83.09-.25.22-.48.38-.67.16-.19.36-.34.58-.45.22-.1.47-.16.74-.16.23 0 .43.04.62.14.18.09.33.22.44.4.11.17.17.38.17.63l-.12.09.27-1.19h.78l-.84 3.61c-.09.4-.22.71-.41.95-.18.24-.4.41-.66.52-.28.09-.57.14-.9.14zm.49-2.29c.21 0 .4-.06.56-.19.16-.13.29-.3.39-.52.1-.22.15-.46.15-.73 0-.2-.03-.36-.1-.5s-.17-.25-.3-.33-.28-.12-.45-.12c-.23 0-.44.06-.61.19-.17.12-.31.29-.41.51-.1.21-.15.46-.15.73 0 .28.08.52.24.7.16.17.38.26.68.26zM104.91 156.65c-.27 0-.51-.06-.72-.19-.21-.13-.37-.31-.49-.55-.12-.23-.18-.51-.18-.83 0-.3.05-.58.14-.85.09-.27.22-.51.38-.71.16-.21.36-.37.59-.49.23-.12.48-.18.74-.18.2 0 .38.03.55.1.16.07.3.17.41.3.11.13.19.29.23.48l.19-.81h.78l-.85 3.66h-.7l.12-.68c-.12.22-.29.4-.5.54-.2.15-.44.21-.69.21zm.27-.62c.16 0 .3-.04.44-.12.14-.08.26-.2.37-.34s.19-.32.25-.51.09-.39.09-.6c0-.2-.04-.37-.11-.51s-.17-.26-.29-.33-.27-.12-.44-.12c-.18 0-.34.04-.49.12-.14.08-.27.2-.37.34-.1.14-.19.31-.25.5s-.09.38-.09.59c0 .21.03.39.1.54s.17.26.3.34.3.1.49.1zM112.02 156.67c-.3 0-.57-.06-.81-.17-.23-.11-.43-.26-.58-.45s-.25-.4-.29-.62l.78-.23c.02.14.06.27.12.39s.16.22.29.3.31.12.53.12c.22 0 .4-.05.54-.15.14-.1.25-.24.32-.4.07-.17.1-.34.1-.53 0-.2-.04-.35-.12-.48s-.19-.21-.32-.27c-.13-.06-.28-.09-.44-.09-.17 0-.32.02-.44.07s-.25.12-.36.22l-.6-.18.8-2.43h2.66l-.16.67h-2.01l-.45 1.35c.11-.1.24-.17.39-.22s.32-.07.5-.07c.25 0 .48.05.68.15s.36.25.48.45.18.44.18.73c0 .36-.07.68-.22.96s-.35.5-.62.65-.58.23-.95.23zM117.47 154.3l-.16.73h-2.5l.17-.73h2.49zM117.81 158.13l1.2-5.2h.7l-.18 1-.09.05c.06-.23.15-.43.29-.6.13-.17.3-.29.5-.38s.41-.13.63-.13c.25 0 .47.06.67.18s.35.3.47.53c.11.23.17.51.17.84 0 .31-.05.6-.14.87s-.22.51-.39.71-.36.37-.58.48-.47.18-.73.18c-.23 0-.44-.04-.62-.13s-.33-.22-.44-.39c-.11-.17-.17-.38-.18-.62l.12-.12-.62 2.73h-.78zm2.42-2.09c.16 0 .31-.04.45-.12.14-.08.27-.19.37-.34s.19-.31.25-.5.09-.39.09-.6c0-.21-.04-.39-.11-.53s-.17-.25-.3-.33-.28-.11-.45-.11c-.18 0-.33.04-.48.12-.14.08-.27.2-.37.34-.11.14-.19.31-.24.51s-.08.4-.08.62c0 .28.07.51.22.68.15.17.37.26.65.26zM124.59 156.66c-.36 0-.67-.07-.92-.22s-.45-.34-.58-.6c-.14-.25-.21-.53-.21-.83 0-.42.08-.78.25-1.11s.39-.58.68-.76c.29-.19.63-.28 1.03-.28.36 0 .67.07.92.22s.44.34.58.59c.13.25.2.53.2.84 0 .41-.08.77-.24 1.1-.16.32-.38.58-.68.77-.29.19-.64.28-1.03.28zm.02-.61c.16 0 .31-.04.45-.12.14-.08.26-.19.37-.33.1-.14.19-.31.24-.49.06-.19.08-.39.08-.6 0-.2-.03-.37-.1-.52s-.17-.27-.31-.36a.934.934 0 0 0-.52-.13c-.16 0-.31.04-.45.12s-.26.19-.37.33c-.1.14-.18.3-.24.49a2 2 0 0 0-.09.61c0 .19.03.36.1.51.07.16.17.28.31.37.14.07.32.12.53.12zM128.69 152.93l-.85 3.66h-.78l.85-3.66h.78zm-.18-.61c-.15 0-.26-.04-.35-.12a.37.37 0 0 1-.12-.32c0-.17.06-.3.16-.4.1-.09.23-.14.39-.14.15 0 .27.04.36.11.09.08.13.18.12.31-.01.18-.07.32-.17.41a.56.56 0 0 1-.39.15zM129.01 156.6l.85-3.66h.69l-.15.92-.07-.05c.1-.31.28-.55.54-.71.26-.16.54-.24.86-.24.27 0 .51.06.7.18.19.12.33.29.4.51s.08.49.01.81l-.52 2.24h-.78l.51-2.2c.06-.28.04-.5-.08-.66s-.3-.24-.56-.24c-.2 0-.37.04-.52.13s-.28.22-.38.38c-.1.17-.19.38-.25.63l-.45 1.94h-.8zM133.65 153.55l.14-.62h2.6l-.14.62h-2.6zm1.34 3.1c-.25 0-.47-.05-.65-.14-.18-.1-.3-.24-.38-.42s-.08-.41-.02-.67l.75-3.28.84-.23-.83 3.52c-.05.21-.02.37.09.47.11.09.25.14.42.14.12 0 .22-.01.3-.04s.16-.07.23-.12l.06.58c-.13.08-.26.13-.39.16s-.27.03-.42.03zM140.45 156.68c-.28 0-.53-.04-.77-.12-.23-.08-.43-.2-.6-.36-.17-.16-.31-.34-.4-.55l.59-.36c.1.25.25.44.45.58.2.13.44.2.71.2.22 0 .4-.04.52-.13s.18-.21.18-.35a.34.34 0 0 0-.1-.26.694.694 0 0 0-.31-.16l-.59-.18c-.32-.09-.56-.22-.71-.39a.907.907 0 0 1-.23-.61c0-.22.06-.41.18-.58.12-.17.29-.3.51-.4.22-.1.48-.15.78-.15.36 0 .67.07.95.22.27.15.47.36.6.64l-.56.38c-.05-.13-.13-.24-.23-.33s-.21-.17-.34-.22-.27-.08-.43-.08c-.24 0-.42.04-.53.12-.12.08-.18.19-.18.33 0 .12.05.22.14.28s.2.11.33.15l.71.21c.25.07.45.19.59.35.14.16.21.35.21.56 0 .25-.06.46-.18.65s-.29.32-.51.42-.49.14-.78.14zM144.36 156.66c-.35 0-.65-.07-.9-.22s-.44-.34-.58-.6-.2-.53-.2-.84c0-.42.08-.78.25-1.1s.39-.57.69-.76c.3-.19.64-.28 1.04-.28.29 0 .55.05.77.15.22.1.4.24.54.42s.22.39.25.62l-.78.16c-.01-.21-.08-.38-.21-.52s-.33-.21-.59-.21a.94.94 0 0 0-.47.12c-.14.08-.27.19-.37.33-.1.14-.19.3-.24.49s-.08.39-.08.6c0 .2.04.37.11.52.07.15.18.27.32.36.14.09.31.13.52.13.17 0 .33-.05.48-.14.15-.1.26-.23.32-.41l.73.26c-.13.29-.34.52-.62.68-.29.16-.62.24-.98.24zM148.01 156.65c-.27 0-.51-.06-.72-.19-.21-.13-.37-.31-.49-.55-.12-.23-.18-.51-.18-.83 0-.3.05-.58.14-.85.09-.27.22-.51.38-.71.16-.21.36-.37.59-.49.23-.12.48-.18.74-.18.2 0 .38.03.55.1.16.07.3.17.41.3.11.13.19.29.23.48l.19-.81h.78l-.85 3.66h-.7l.12-.68c-.12.22-.29.4-.5.54-.2.15-.44.21-.69.21zm.27-.62c.16 0 .3-.04.44-.12.14-.08.26-.2.37-.34s.19-.32.25-.51.09-.39.09-.6c0-.2-.04-.37-.11-.51s-.17-.26-.29-.33-.27-.12-.44-.12c-.18 0-.34.04-.49.12-.14.08-.27.2-.37.34-.1.14-.19.31-.25.5s-.09.38-.09.59c0 .21.03.39.1.54s.17.26.3.34.3.1.49.1zM152.05 156.65c-.37 0-.62-.11-.77-.32s-.18-.5-.1-.85l.97-4.2h.79l-.97 4.21c-.05.19-.04.33.04.41.07.08.2.13.38.13.07 0 .13 0 .18-.01.05 0 .1-.01.13-.02l-.17.57c-.08.03-.15.05-.22.06-.07.02-.15.02-.26.02zM155.05 156.66c-.35 0-.64-.07-.89-.22-.25-.14-.44-.34-.58-.59s-.21-.53-.21-.84c0-.39.08-.75.23-1.07.16-.33.38-.58.68-.78.3-.2.66-.29 1.08-.29.31 0 .58.06.81.19.22.13.4.3.51.53.12.23.18.49.18.8 0 .1-.01.2-.02.3-.01.1-.04.21-.07.31h-2.95v-.6h2.53l-.29.21c.02-.06.03-.12.04-.17s.01-.11.01-.16c0-.16-.03-.3-.09-.42s-.15-.21-.27-.27-.26-.09-.42-.09c-.22 0-.41.04-.56.13-.15.09-.28.21-.37.37-.09.15-.16.32-.2.51s-.06.37-.06.55c0 .21.04.38.12.53.08.15.19.27.34.35.14.08.31.12.51.12.23 0 .42-.05.56-.15.14-.1.26-.22.35-.37l.63.34c-.1.17-.23.31-.38.43-.16.12-.34.21-.54.27-.21.05-.44.08-.68.08zM160.87 157.99c-.27-.38-.48-.8-.62-1.28s-.22-.96-.22-1.46c0-.42.06-.83.17-1.23.11-.4.27-.78.47-1.14s.46-.69.76-.98c.3-.29.64-.55 1.02-.77l.3.43c-.43.28-.8.62-1.09 1.02-.3.4-.52.83-.67 1.3-.15.47-.22.96-.22 1.47 0 .42.05.83.15 1.23s.24.76.43 1.07l-.48.34zM162.14 156.6l.85-3.66h.69l-.15.92-.07-.05c.1-.31.28-.55.54-.71.26-.16.54-.24.86-.24.27 0 .51.06.7.18.19.12.32.29.4.51s.08.49.01.81l-.52 2.24h-.78l.51-2.2c.06-.28.04-.5-.08-.66s-.3-.24-.56-.24c-.2 0-.37.04-.52.13s-.28.22-.38.38c-.1.17-.19.38-.25.63l-.45 1.94h-.8zM170.36 154.77l-.15.65h-3.49l.15-.65h3.49zm.34-1.5l-.15.64h-3.49l.15-.64h3.49zM171.77 156.6l.74-3.21c.04-.15.08-.29.11-.41s.07-.24.11-.36c-.1.09-.23.18-.38.27-.16.09-.33.16-.5.22-.17.06-.34.11-.5.14l.05-.72c.17-.04.36-.1.57-.19.21-.09.41-.18.59-.29.19-.11.34-.2.44-.3h.66l-1.12 4.84h-.77zM175.92 156.66c-.35 0-.65-.08-.91-.24-.25-.16-.44-.37-.58-.65-.13-.28-.2-.61-.2-.98 0-.17.01-.33.03-.5s.05-.33.08-.49c.07-.29.16-.57.28-.82.12-.26.27-.48.45-.68.18-.2.39-.35.63-.45s.51-.16.81-.16c.34 0 .62.08.86.23.24.15.42.37.55.65.13.28.19.6.19.97 0 .17-.01.33-.03.49-.02.16-.05.33-.08.49a4.5 4.5 0 0 1-.28.83c-.12.26-.27.49-.44.68-.17.2-.37.35-.6.46-.22.12-.48.17-.76.17zm.04-.66c.22 0 .41-.07.58-.21s.31-.33.42-.56c.12-.24.2-.5.27-.79.04-.16.07-.32.09-.47.02-.15.03-.3.03-.44 0-.41-.08-.71-.24-.89-.16-.19-.38-.28-.65-.28-.23 0-.43.07-.61.21-.18.14-.32.33-.44.56-.12.24-.22.5-.29.8-.03.16-.06.31-.08.46-.02.15-.03.3-.03.44 0 .28.04.5.12.68.08.17.2.3.34.37.15.08.31.12.49.12zM180.65 156.67c-.39 0-.71-.08-.97-.23s-.46-.38-.59-.66c-.13-.28-.2-.62-.2-1 0-.39.05-.77.14-1.14.09-.37.23-.7.42-.99s.43-.53.73-.7c.29-.17.64-.26 1.03-.26.38 0 .7.09.98.27s.46.46.54.85l-.73.26a.726.726 0 0 0-.28-.51.914.914 0 0 0-.56-.18c-.23 0-.44.06-.62.18s-.33.27-.45.46-.21.4-.29.63c-.07.23-.12.47-.15.71.09-.25.25-.44.5-.57s.51-.2.79-.2c.43 0 .77.12 1.02.37s.38.57.38.97c0 .33-.07.63-.21.9s-.33.47-.59.63c-.25.13-.54.21-.89.21zm.01-.66c.2 0 .37-.05.5-.14.13-.09.24-.21.3-.36s.1-.32.1-.5a.8.8 0 0 0-.23-.58c-.15-.15-.38-.23-.67-.23-.2 0-.37.04-.51.14s-.25.21-.32.35c-.07.14-.11.3-.11.47 0 .14.02.26.07.36.05.11.11.2.2.27.08.08.18.13.3.17.11.03.23.05.37.05zM183.98 151.12c.27.38.47.8.62 1.28.14.48.22.97.22 1.46 0 .42-.05.83-.16 1.23s-.27.78-.47 1.14c-.21.36-.46.69-.76.98-.3.29-.64.55-1.02.77l-.3-.43c.44-.28.8-.62 1.1-1.02.3-.4.52-.83.67-1.3.15-.47.22-.96.22-1.47 0-.42-.05-.83-.15-1.23s-.24-.76-.42-1.07l.45-.34zM185.81 156.66c-.15 0-.27-.04-.36-.12a.422.422 0 0 1-.14-.33c0-.19.05-.33.17-.44.11-.11.25-.16.41-.16.15 0 .27.04.36.12.09.08.14.19.14.33 0 .19-.05.33-.16.44s-.25.16-.42.16z"/></svg>