<svg id="Layer_1" xmlns="http://www.w3.org/2000/svg" viewBox="0 0 300 250"><style>.st0{fill:#fff}</style><path class="st0" d="M11.55 145.46l.18.49-.82.27.53.71-.42.31-.55-.73-.55.73-.42-.31.53-.71-.82-.27.18-.49.82.27v-.84h.52v.84l.82-.27zM16.34 148.78c-.18.25-.42.45-.71.6-.29.15-.64.23-1.05.23-.35 0-.67-.06-.97-.18s-.55-.29-.77-.5a2.28 2.28 0 0 1-.5-.77c-.12-.3-.18-.62-.18-.98s.06-.69.19-.98c.12-.3.29-.55.51-.76.22-.21.48-.37.78-.49.3-.12.62-.17.97-.17.16 0 .31.01.47.04s.31.08.46.14.28.14.4.22c.12.09.23.19.31.31l-.51.39c-.11-.16-.27-.28-.48-.39-.21-.1-.43-.15-.67-.15a1.695 1.695 0 0 0-1.62 1.14c-.08.22-.12.46-.12.71 0 .26.04.5.12.73.08.23.19.42.34.59s.33.3.55.39c.21.1.45.14.72.14.26 0 .5-.05.71-.16.21-.1.39-.26.53-.45l.52.35zM19.84 147.94c0 .24-.04.46-.13.66s-.2.37-.35.52c-.15.14-.33.26-.53.34s-.42.12-.66.12-.45-.04-.66-.12c-.2-.08-.38-.19-.53-.34-.15-.15-.26-.32-.35-.52s-.13-.42-.13-.66c0-.24.04-.46.13-.65.08-.2.2-.37.35-.51.15-.14.32-.25.53-.33.2-.08.42-.12.66-.12s.45.04.66.12.38.19.53.33c.15.14.27.31.35.51.09.2.13.42.13.65zm-.63.01c0-.15-.02-.29-.07-.42s-.11-.25-.2-.35a.963.963 0 0 0-.76-.33c-.17 0-.31.03-.44.09s-.24.14-.32.24c-.09.1-.15.22-.2.35-.05.13-.07.27-.07.42s.02.29.07.42.11.25.2.36c.09.1.19.19.32.25s.27.09.44.09.31-.03.44-.09.24-.14.32-.25c.09-.1.15-.22.2-.36.04-.14.07-.28.07-.42zM23.64 147.94c0 .24-.04.46-.13.66s-.2.37-.35.52c-.15.14-.33.26-.53.34s-.42.12-.66.12-.45-.04-.66-.12c-.2-.08-.38-.19-.53-.34-.15-.15-.26-.32-.35-.52s-.13-.42-.13-.66c0-.24.04-.46.13-.65.08-.2.2-.37.35-.51.15-.14.32-.25.53-.33.2-.08.42-.12.66-.12s.45.04.66.12.38.19.53.33c.15.14.27.31.35.51.09.2.13.42.13.65zm-.63.01c0-.15-.02-.29-.07-.42s-.11-.25-.2-.35a.963.963 0 0 0-.76-.33c-.17 0-.31.03-.44.09s-.24.14-.32.24c-.09.1-.15.22-.2.35-.05.13-.07.27-.07.42s.02.29.07.42.11.25.2.36c.09.1.19.19.32.25s.27.09.44.09.31-.03.44-.09.24-.14.32-.25c.09-.1.15-.22.2-.36.04-.14.07-.28.07-.42zM24.95 149.49h-.61v-4.91h.61v4.91zM28.17 145.74a.947.947 0 0 0-.37-.31c-.16-.08-.33-.12-.53-.12-.1 0-.21.01-.31.04-.11.03-.2.07-.29.14a.659.659 0 0 0-.29.56c0 .13.02.23.07.32.05.08.12.16.2.21.08.06.18.11.3.15s.24.08.37.13c.16.05.31.1.47.16s.31.14.44.24.24.22.32.37c.08.15.12.34.12.57 0 .24-.04.45-.13.62-.09.18-.21.32-.35.44-.15.11-.32.2-.51.26s-.39.08-.59.08c-.29 0-.57-.06-.84-.17s-.49-.28-.67-.5l.5-.42c.11.16.25.29.44.39s.38.15.59.15c.11 0 .22-.02.32-.05.11-.03.21-.08.3-.14.09-.07.16-.15.22-.24.06-.1.08-.21.08-.35s-.03-.25-.09-.35a.912.912 0 0 0-.24-.24c-.1-.07-.22-.12-.35-.17s-.27-.09-.42-.14c-.15-.04-.29-.1-.44-.16a1.36 1.36 0 0 1-.38-.24c-.11-.1-.2-.22-.27-.36s-.1-.32-.1-.53a1.197 1.197 0 0 1 .5-1c.15-.11.32-.19.51-.24.19-.05.38-.07.57-.07.27 0 .52.05.75.14.23.1.42.22.56.38l-.46.45zM31.54 147.19a.724.724 0 0 0-.29-.25.868.868 0 0 0-.42-.1.923.923 0 0 0-.74.33 1.195 1.195 0 0 0-.27.77c0 .15.02.29.07.42s.11.25.2.35a.963.963 0 0 0 .75.33c.16 0 .3-.03.43-.09s.23-.14.31-.25l.41.37c-.13.15-.29.27-.49.35-.19.08-.42.13-.66.13-.24 0-.46-.04-.66-.12a1.542 1.542 0 0 1-.87-.84c-.09-.2-.13-.42-.13-.67 0-.24.04-.46.12-.66.08-.2.2-.37.34-.51.15-.14.32-.25.52-.33a1.747 1.747 0 0 1 1.3.01c.21.09.38.21.51.38l-.43.38zM34.6 149.49c-.01-.08-.02-.17-.02-.26 0-.1-.01-.18-.01-.24h-.01c-.08.17-.21.3-.39.42-.18.12-.39.17-.61.17-.2 0-.37-.03-.52-.1a1.1 1.1 0 0 1-.36-.27 1.387 1.387 0 0 1-.28-.89v-1.91h.61v1.7c0 .13.01.25.03.36.02.12.06.22.11.3.05.09.12.16.21.21.09.05.21.08.35.08.25 0 .45-.09.6-.28.15-.18.23-.43.23-.74v-1.64h.61v2.42c0 .08 0 .19.01.32s.01.24.02.34h-.58zM36.67 149.49h-.61v-4.91h.61v4.91zM38.18 151.05h-.61v-4.64h.6v.48h.02c.1-.16.25-.3.44-.41.19-.11.42-.16.67-.16.23 0 .44.04.62.12.19.08.35.2.49.34.14.15.24.32.31.52a1.897 1.897 0 0 1 0 1.27 1.46 1.46 0 0 1-.8.87c-.19.08-.4.13-.64.13-.22 0-.43-.05-.62-.14-.19-.09-.35-.23-.46-.4h-.02v2.02zm2.02-3.11c0-.14-.02-.28-.06-.42s-.11-.25-.19-.36a.99.99 0 0 0-.32-.25c-.13-.06-.28-.09-.44-.09-.16 0-.3.03-.43.09s-.24.14-.33.25c-.09.1-.16.22-.21.36s-.07.28-.07.42a1.126 1.126 0 0 0 .28.77 1.003 1.003 0 0 0 .76.33c.17 0 .32-.03.44-.09a.99.99 0 0 0 .32-.25c.09-.1.15-.22.19-.36.04-.11.06-.25.06-.4zM43.03 146.91h-.82v1.6c0 .19.03.32.1.4.07.08.18.12.33.12.06 0 .12-.01.18-.02s.12-.03.18-.05l.02.5c-.07.03-.15.05-.24.06-.09.01-.18.02-.28.02-.29 0-.51-.08-.67-.24s-.23-.4-.23-.72v-1.67h-.59v-.5h.59v-.88h.6v.88h.82v.5zM44.21 145.3c0 .11-.04.21-.12.28-.08.07-.18.11-.29.11a.393.393 0 0 1-.4-.39c0-.11.04-.21.12-.28a.37.37 0 0 1 .28-.11c.11 0 .21.04.29.11.08.07.12.17.12.28zm-.1 4.19h-.61v-3.08h.61v3.08zM45.57 146.41c.01.08.02.17.02.26 0 .1.01.18.01.24h.02c.04-.08.09-.16.16-.23s.14-.13.23-.19c.09-.05.18-.1.29-.13.1-.03.21-.04.32-.04.2 0 .37.03.51.1s.26.16.36.27.17.24.21.4c.05.15.07.31.07.49v1.91h-.61v-1.71c0-.12-.01-.24-.03-.36a.977.977 0 0 0-.11-.3c-.05-.09-.12-.16-.21-.21s-.21-.08-.35-.08c-.24 0-.44.09-.59.28-.15.18-.23.43-.23.74v1.64h-.61v-2.42c0-.08 0-.19-.01-.32s-.01-.25-.02-.34h.57zM48.87 150.02c.13.15.3.27.5.36s.41.14.62.14c.2 0 .37-.03.51-.09s.25-.14.33-.24.15-.22.18-.36c.04-.14.06-.29.06-.45v-.4h-.01c-.11.17-.27.31-.46.4s-.4.14-.62.14c-.23 0-.45-.04-.64-.12a1.31 1.31 0 0 1-.49-.34c-.13-.14-.24-.31-.31-.5a1.795 1.795 0 0 1 0-1.24c.07-.2.18-.36.31-.51.13-.14.3-.26.49-.34.19-.08.4-.13.64-.13.22 0 .43.05.63.14.2.1.36.24.48.44h.01v-.49h.59v2.92c0 .23-.03.44-.08.65-.06.21-.15.39-.29.55-.13.16-.31.28-.53.38-.22.1-.48.14-.81.14-.27 0-.54-.05-.81-.15s-.5-.23-.7-.41l.4-.49zm.19-2.1a1.14 1.14 0 0 0 .27.75.972.972 0 0 0 .75.33c.16 0 .3-.03.43-.08a.979.979 0 0 0 .54-.57c.05-.13.08-.27.08-.42 0-.15-.03-.29-.08-.42s-.12-.24-.21-.34a1.003 1.003 0 0 0-.76-.33 1.003 1.003 0 0 0-.75.32.9.9 0 0 0-.2.34c-.05.13-.07.27-.07.42zM52.52 146.29c0-.2.04-.39.12-.57.08-.18.18-.34.32-.47.13-.13.29-.24.47-.32.18-.08.37-.12.57-.12.2 0 .4.04.57.12.18.08.34.18.47.32.13.13.24.29.32.47s.12.37.12.57-.04.39-.12.57-.18.33-.32.46c-.13.13-.29.24-.47.31-.18.08-.37.11-.57.11-.2 0-.4-.04-.57-.11-.18-.08-.34-.18-.47-.31a1.65 1.65 0 0 1-.32-.46c-.09-.18-.12-.37-.12-.57zm.23 0c0 .17.03.33.1.48s.15.29.27.4c.11.11.24.2.4.27.15.06.31.1.49.1.17 0 .34-.03.49-.1.15-.07.28-.16.4-.27.11-.11.2-.25.27-.4s.1-.31.1-.48c0-.17-.03-.33-.1-.49a1.28 1.28 0 0 0-.67-.67c-.15-.06-.31-.1-.49-.1-.17 0-.34.03-.49.1-.15.07-.28.15-.4.27-.11.11-.2.24-.27.4-.07.15-.1.32-.1.49zm1.6.81l-.35-.64h-.23v.64h-.4v-1.66h.71a.908.908 0 0 1 .43.11.463.463 0 0 1 .21.41c0 .11-.03.21-.09.28a.51.51 0 0 1-.24.16l.44.7h-.48zm-.28-.93c.06 0 .12-.02.17-.06.05-.04.07-.09.07-.16s-.03-.12-.08-.15-.11-.05-.16-.05h-.31v.41h.31zM58.48 145.3c0 .11-.04.21-.12.28-.08.07-.18.11-.29.11a.393.393 0 0 1-.4-.39c0-.11.04-.21.12-.28a.37.37 0 0 1 .28-.11c.11 0 .21.04.29.11.08.07.12.17.12.28zm-.1 4.19h-.61v-3.08h.61v3.08zM60.95 147.19c-.07-.11-.17-.2-.29-.28s-.27-.11-.42-.11c-.07 0-.14.01-.21.02-.07.02-.13.04-.19.07-.05.03-.1.07-.13.12-.03.05-.05.11-.05.18 0 .13.06.23.18.29.12.06.29.12.53.17.15.04.28.08.41.12.13.05.23.11.33.18.09.07.17.16.22.26.05.1.08.22.08.35 0 .18-.03.34-.1.46-.07.13-.16.23-.28.31s-.25.14-.39.17c-.15.04-.3.05-.45.05-.23 0-.46-.04-.69-.14-.22-.09-.41-.23-.56-.42l.44-.37c.08.12.2.22.34.31s.3.12.48.12c.08 0 .15-.01.22-.02.07-.02.14-.04.19-.08.06-.03.1-.08.14-.14.03-.06.05-.13.05-.21a.35.35 0 0 0-.2-.32c-.14-.07-.34-.13-.6-.2l-.31-.09c-.11-.04-.2-.09-.29-.15a.69.69 0 0 1-.29-.6c0-.16.03-.31.1-.42.07-.12.15-.22.26-.29.11-.08.23-.13.37-.17.14-.04.28-.05.43-.05.22 0 .43.04.64.13s.36.21.48.38l-.44.37zM64.98 146.91h-.82v1.6c0 .19.03.32.1.4.07.08.18.12.33.12.06 0 .12-.01.18-.02s.12-.03.18-.05l.02.5c-.07.03-.15.05-.24.06-.09.01-.18.02-.28.02-.29 0-.51-.08-.67-.24s-.23-.4-.23-.72v-1.67h-.59v-.5h.59v-.88h.6v.88h.82v.5zM66.08 146.88c.07-.15.2-.28.38-.39.18-.11.38-.16.6-.16.2 0 .37.03.51.1s.26.16.36.27.17.24.21.4c.05.15.07.31.07.49v1.91h-.61v-1.71c0-.13-.01-.25-.03-.36a.977.977 0 0 0-.11-.3.53.53 0 0 0-.21-.21.697.697 0 0 0-.35-.08c-.24 0-.44.09-.6.28-.16.18-.23.43-.23.74v1.63h-.61v-4.91h.61v2.3h.01zM71.95 147.92v.1c0 .04 0 .07-.01.1h-2.45c0 .13.03.25.09.36.05.11.13.21.22.3.09.08.2.15.31.2.12.05.25.07.38.07.21 0 .39-.04.54-.14.15-.09.27-.2.36-.33l.43.34c-.16.22-.36.38-.58.48-.22.1-.47.15-.74.15-.23 0-.45-.04-.65-.12a1.497 1.497 0 0 1-.85-.84c-.08-.2-.12-.42-.12-.66 0-.24.04-.46.12-.66.08-.2.19-.37.34-.52.14-.14.31-.25.51-.33s.41-.12.63-.12.43.04.61.11.34.18.47.32c.13.14.23.31.3.5s.09.45.09.69zm-.62-.24c0-.12-.03-.23-.06-.34a.708.708 0 0 0-.43-.46.873.873 0 0 0-.37-.07c-.13 0-.25.02-.37.07-.11.04-.21.11-.3.18s-.15.17-.21.28-.09.22-.09.34h1.83zM75.6 146.91h-.82v1.6c0 .19.03.32.1.4.07.08.18.12.33.12.06 0 .12-.01.18-.02s.12-.03.18-.05l.02.5c-.07.03-.15.05-.24.06-.09.01-.18.02-.28.02-.29 0-.51-.08-.67-.24s-.23-.4-.23-.72v-1.67h-.59v-.5h.59v-.88h.6v.88h.82v.5zM76.06 146.76c0-.13-.01-.25-.02-.34h.58c.01.08.02.17.02.27s.01.19.01.25h.02c.09-.18.21-.33.38-.44a.999.999 0 0 1 .8-.14l-.03.56c-.09-.02-.18-.03-.28-.03-.15 0-.27.03-.38.08-.11.05-.2.13-.27.22s-.12.2-.16.31c-.04.12-.05.24-.05.37v1.62h-.61v-2.42c0-.08-.01-.18-.01-.31zM81.01 147.92v.1c0 .04 0 .07-.01.1h-2.45c0 .13.03.25.09.36.05.11.13.21.22.3.09.08.2.15.31.2.12.05.25.07.38.07.21 0 .39-.04.54-.14.15-.09.27-.2.36-.33l.43.34c-.16.22-.36.38-.58.48-.22.1-.47.15-.74.15-.23 0-.45-.04-.65-.12a1.497 1.497 0 0 1-.85-.84c-.08-.2-.12-.42-.12-.66 0-.24.04-.46.12-.66.08-.2.19-.37.34-.52.14-.14.31-.25.51-.33s.41-.12.63-.12.43.04.61.11.34.18.47.32c.13.14.23.31.3.5s.09.45.09.69zm-.62-.24c0-.12-.03-.23-.06-.34a.708.708 0 0 0-.43-.46.873.873 0 0 0-.37-.07c-.13 0-.25.02-.37.07-.11.04-.21.11-.3.18s-.15.17-.21.28-.09.22-.09.34h1.83zM83.57 147.5c0-.23-.07-.4-.21-.51a.86.86 0 0 0-.55-.17c-.17 0-.34.03-.49.1-.15.07-.28.15-.39.26l-.32-.39c.15-.14.34-.25.56-.34.22-.08.45-.12.7-.12.22 0 .41.03.57.09a1.03 1.03 0 0 1 .63.64c.05.15.08.31.08.47v1.34c0 .1 0 .21.01.33.01.11.02.21.04.28h-.55c-.03-.15-.05-.29-.05-.44h-.02c-.11.16-.25.29-.43.38s-.37.14-.61.14c-.12 0-.25-.02-.38-.05s-.25-.09-.36-.16c-.11-.07-.2-.17-.27-.29s-.11-.27-.11-.45c0-.23.06-.42.19-.55.13-.14.29-.24.49-.31s.43-.12.69-.14c.26-.02.51-.03.77-.03v-.08zm-.15.52c-.15 0-.31.01-.47.02-.16.01-.31.04-.44.08s-.24.1-.33.18c-.09.08-.13.18-.13.31 0 .09.02.17.06.23a.536.536 0 0 0 .35.23c.07.02.15.02.23.02.29 0 .51-.09.66-.26s.23-.39.23-.65v-.16h-.16zM86.45 146.91h-.82v1.6c0 .19.03.32.1.4.07.08.18.12.33.12.06 0 .12-.01.18-.02s.12-.03.18-.05l.02.5c-.07.03-.15.05-.24.06-.09.01-.18.02-.28.02-.29 0-.51-.08-.67-.24s-.23-.4-.23-.72v-1.67h-.59v-.5h.59v-.88h.6v.88h.82v.5zM87.89 146.5c.17-.11.37-.17.61-.17.21 0 .39.05.56.14.17.1.3.25.39.47.1-.2.25-.35.44-.46.19-.11.39-.16.61-.16.2 0 .37.03.51.1s.26.16.36.27.17.24.21.4c.05.15.07.31.07.49v1.91h-.61v-1.71c0-.12-.01-.24-.03-.36a.977.977 0 0 0-.11-.3c-.05-.09-.12-.16-.21-.21s-.2-.08-.33-.08a.687.687 0 0 0-.6.32c-.06.09-.11.2-.14.31-.03.12-.04.24-.04.36v1.66h-.61v-1.83c0-.12-.01-.23-.03-.33a.682.682 0 0 0-.11-.26.551.551 0 0 0-.2-.17.684.684 0 0 0-.31-.06c-.23 0-.41.09-.56.28-.15.18-.22.43-.22.74v1.64h-.61v-2.42c0-.08 0-.19-.01-.32s-.01-.25-.02-.34h.58c.01.08.02.17.02.26 0 .1.01.18.01.24h.02c.07-.16.19-.3.36-.41zM95.4 147.92v.1c0 .04 0 .07-.01.1h-2.45c0 .13.03.25.09.36.05.11.13.21.22.3.09.08.2.15.31.2.12.05.25.07.38.07.21 0 .39-.04.54-.14.15-.09.27-.2.36-.33l.43.34c-.16.22-.36.38-.58.48-.22.1-.47.15-.74.15-.23 0-.45-.04-.65-.12a1.497 1.497 0 0 1-.85-.84c-.08-.2-.12-.42-.12-.66 0-.24.04-.46.12-.66.08-.2.19-.37.34-.52.14-.14.31-.25.51-.33s.41-.12.63-.12.43.04.61.11.34.18.47.32c.13.14.23.31.3.5s.09.45.09.69zm-.63-.24c0-.12-.03-.23-.06-.34a.708.708 0 0 0-.43-.46.873.873 0 0 0-.37-.07c-.13 0-.25.02-.37.07-.11.04-.21.11-.3.18s-.15.17-.21.28-.09.22-.09.34h1.83zM96.63 146.41c.01.08.02.17.02.26 0 .1.01.18.01.24h.02c.04-.08.09-.16.16-.23s.14-.13.23-.19c.09-.05.18-.1.29-.13.1-.03.21-.04.32-.04.2 0 .37.03.51.1s.26.16.36.27.17.24.21.4c.05.15.07.31.07.49v1.91h-.61v-1.71c0-.12-.01-.24-.03-.36a.977.977 0 0 0-.11-.3c-.05-.09-.12-.16-.21-.21s-.21-.08-.35-.08c-.24 0-.44.09-.59.28-.15.18-.23.43-.23.74v1.64h-.61v-2.42c0-.08 0-.19-.01-.32s-.01-.25-.02-.34h.57zM101.2 146.91h-.82v1.6c0 .19.03.32.1.4.07.08.18.12.33.12.06 0 .12-.01.18-.02s.12-.03.18-.05l.02.5c-.07.03-.15.05-.24.06-.09.01-.18.02-.28.02-.29 0-.51-.08-.67-.24s-.23-.4-.23-.72v-1.67h-.59v-.5h.59v-.88h.6v.88h.82v.5zM105.58 149c-.12.19-.28.33-.48.43-.2.1-.41.15-.63.15-.24 0-.45-.04-.64-.13-.19-.08-.35-.2-.49-.35s-.24-.32-.31-.52-.11-.41-.11-.64c0-.23.04-.44.11-.63.07-.2.18-.37.31-.52.14-.15.3-.26.49-.34.19-.08.4-.12.63-.12.25 0 .47.05.66.16.19.11.33.23.44.39h.01v-2.29h.61v4.91h-.59v-.5h-.01zm-2.02-1.05c0 .14.02.28.06.41.04.13.11.25.19.36.09.1.19.19.32.25s.27.09.44.09a1.003 1.003 0 0 0 .76-.33 1.126 1.126 0 0 0 .28-.77 1.158 1.158 0 0 0-.28-.78.905.905 0 0 0-.33-.25c-.13-.06-.27-.09-.43-.09-.17 0-.32.03-.44.09s-.23.14-.32.25a.89.89 0 0 0-.19.36c-.04.13-.06.26-.06.41zM110.21 147.94c0 .24-.04.46-.13.66s-.2.37-.35.52c-.15.14-.33.26-.53.34s-.42.12-.66.12-.45-.04-.66-.12c-.2-.08-.38-.19-.53-.34-.15-.15-.26-.32-.35-.52s-.13-.42-.13-.66c0-.24.04-.46.13-.65.08-.2.2-.37.35-.51.15-.14.32-.25.53-.33.2-.08.42-.12.66-.12s.45.04.66.12.38.19.53.33c.15.14.27.31.35.51.08.2.13.42.13.65zm-.64.01c0-.15-.02-.29-.07-.42s-.11-.25-.2-.35a.963.963 0 0 0-.76-.33c-.17 0-.31.03-.44.09s-.24.14-.32.24c-.09.1-.15.22-.2.35-.05.13-.07.27-.07.42s.02.29.07.42.11.25.2.36c.09.1.19.19.32.25s.27.09.44.09.31-.03.44-.09.24-.14.32-.25c.09-.1.15-.22.2-.36.05-.14.07-.28.07-.42zM113.04 147.19a.724.724 0 0 0-.29-.25.868.868 0 0 0-.42-.1.923.923 0 0 0-.74.33 1.195 1.195 0 0 0-.27.77c0 .15.02.29.07.42s.11.25.2.35a.963.963 0 0 0 .75.33c.16 0 .3-.03.43-.09s.23-.14.31-.25l.41.37c-.13.15-.29.27-.49.35-.19.08-.42.13-.66.13-.24 0-.46-.04-.66-.12a1.542 1.542 0 0 1-.87-.84c-.09-.2-.13-.42-.13-.67 0-.24.04-.46.12-.66.08-.2.2-.37.34-.51.15-.14.32-.25.52-.33a1.747 1.747 0 0 1 1.3.01c.21.09.38.21.51.38l-.43.38z"/><path class="st0" d="M115.44 146.91h-.82v1.6c0 .19.03.32.1.4.07.08.18.12.33.12.06 0 .12-.01.18-.02s.12-.03.18-.05l.02.5c-.07.03-.15.05-.24.06-.09.01-.18.02-.28.02-.29 0-.51-.08-.67-.24s-.23-.4-.23-.72v-1.67h-.59v-.5h.59v-.88h.6v.88h.82v.5zM119.02 147.94c0 .24-.04.46-.13.66s-.2.37-.35.52c-.15.14-.33.26-.53.34s-.42.12-.66.12-.45-.04-.66-.12c-.2-.08-.38-.19-.53-.34-.15-.15-.26-.32-.35-.52s-.13-.42-.13-.66c0-.24.04-.46.13-.65.08-.2.2-.37.35-.51.15-.14.32-.25.53-.33.2-.08.42-.12.66-.12s.45.04.66.12.38.19.53.33c.15.14.27.31.35.51.09.2.13.42.13.65zm-.63.01c0-.15-.02-.29-.07-.42s-.11-.25-.2-.35a.963.963 0 0 0-.76-.33c-.17 0-.31.03-.44.09s-.24.14-.32.24c-.09.1-.15.22-.2.35-.05.13-.07.27-.07.42s.02.29.07.42.11.25.2.36c.09.1.19.19.32.25s.27.09.44.09.31-.03.44-.09.24-.14.32-.25c.09-.1.15-.22.2-.36.04-.14.07-.28.07-.42zM119.7 146.76c0-.13-.01-.25-.02-.34h.58c.01.08.02.17.02.27s.01.19.01.25h.02c.09-.18.21-.33.38-.44a.999.999 0 0 1 .8-.14l-.03.56c-.09-.02-.18-.03-.28-.03-.15 0-.27.03-.38.08-.11.05-.2.13-.27.22s-.12.2-.16.31c-.04.12-.05.24-.05.37v1.62h-.61v-2.42c0-.08-.01-.18-.01-.31zM123.56 147.19c-.07-.11-.17-.2-.29-.28s-.27-.11-.42-.11c-.07 0-.14.01-.21.02-.07.02-.13.04-.19.07-.05.03-.1.07-.13.12-.03.05-.05.11-.05.18 0 .13.06.23.18.29.12.06.29.12.53.17.15.04.28.08.41.12.13.05.23.11.33.18.09.07.17.16.22.26.05.1.08.22.08.35 0 .18-.03.34-.1.46-.07.13-.16.23-.28.31s-.25.14-.39.17c-.15.04-.3.05-.45.05-.23 0-.46-.04-.69-.14-.22-.09-.41-.23-.56-.42l.44-.37c.08.12.2.22.34.31s.3.12.48.12c.08 0 .15-.01.22-.02.07-.02.14-.04.19-.08.06-.03.1-.08.14-.14.03-.06.05-.13.05-.21a.35.35 0 0 0-.2-.32c-.14-.07-.34-.13-.6-.2l-.31-.09c-.11-.04-.2-.09-.29-.15a.69.69 0 0 1-.29-.6c0-.16.03-.31.1-.42.07-.12.15-.22.26-.29.11-.08.23-.13.37-.17.14-.04.28-.05.43-.05.22 0 .43.04.64.13s.36.21.48.38l-.44.37zM128.24 149.49c-.01-.08-.02-.17-.02-.26 0-.1-.01-.18-.01-.24h-.01c-.08.17-.21.3-.39.42-.18.12-.39.17-.61.17-.2 0-.37-.03-.52-.1a1.1 1.1 0 0 1-.36-.27 1.387 1.387 0 0 1-.28-.89v-1.91h.61v1.7c0 .13.01.25.03.36.02.12.06.22.11.3.05.09.12.16.21.21.09.05.21.08.35.08.25 0 .45-.09.6-.28.15-.18.23-.43.23-.74v-1.64h.61v2.42c0 .08 0 .19.01.32s.01.24.02.34h-.58zM131.35 147.19c-.07-.11-.17-.2-.29-.28s-.27-.11-.42-.11c-.07 0-.14.01-.21.02-.07.02-.13.04-.19.07-.05.03-.1.07-.13.12-.03.05-.05.11-.05.18 0 .13.06.23.18.29.12.06.29.12.53.17.15.04.28.08.41.12.13.05.23.11.33.18.09.07.17.16.22.26.05.1.08.22.08.35 0 .18-.03.34-.1.46-.07.13-.16.23-.28.31s-.25.14-.39.17c-.15.04-.3.05-.45.05-.23 0-.46-.04-.69-.14-.22-.09-.41-.23-.56-.42l.44-.37c.08.12.2.22.34.31s.3.12.48.12c.08 0 .15-.01.22-.02.07-.02.14-.04.19-.08.06-.03.1-.08.14-.14.03-.06.05-.13.05-.21a.35.35 0 0 0-.2-.32c-.14-.07-.34-.13-.6-.2l-.31-.09c-.11-.04-.2-.09-.29-.15a.69.69 0 0 1-.29-.6c0-.16.03-.31.1-.42.07-.12.15-.22.26-.29.11-.08.23-.13.37-.17.14-.04.28-.05.43-.05.22 0 .43.04.64.13s.36.21.48.38l-.44.37zM135.29 147.92v.1c0 .04 0 .07-.01.1h-2.45c0 .13.03.25.09.36.05.11.13.21.22.3.09.08.2.15.31.2.12.05.25.07.38.07.21 0 .39-.04.54-.14.15-.09.27-.2.36-.33l.43.34c-.16.22-.36.38-.58.48-.22.1-.47.15-.74.15-.23 0-.45-.04-.65-.12a1.497 1.497 0 0 1-.85-.84c-.08-.2-.12-.42-.12-.66 0-.24.04-.46.12-.66.08-.2.19-.37.34-.52.14-.14.31-.25.51-.33s.41-.12.63-.12.43.04.61.11.34.18.47.32c.13.14.23.31.3.5s.09.45.09.69zm-.62-.24c0-.12-.03-.23-.06-.34a.708.708 0 0 0-.43-.46.873.873 0 0 0-.37-.07c-.13 0-.25.02-.37.07-.11.04-.21.11-.3.18s-.15.17-.21.28-.09.22-.09.34h1.83zM138.4 146.5c.17-.11.37-.17.61-.17.21 0 .39.05.56.14.17.1.3.25.39.47.1-.2.25-.35.44-.46.19-.11.39-.16.61-.16.2 0 .37.03.51.1s.26.16.36.27.17.24.21.4c.05.15.07.31.07.49v1.91h-.61v-1.71c0-.12-.01-.24-.03-.36a.977.977 0 0 0-.11-.3c-.05-.09-.12-.16-.21-.21s-.2-.08-.33-.08a.687.687 0 0 0-.6.32c-.06.09-.11.2-.14.31-.03.12-.04.24-.04.36v1.66h-.61v-1.83c0-.12-.01-.23-.03-.33a.682.682 0 0 0-.11-.26.551.551 0 0 0-.2-.17.684.684 0 0 0-.31-.06c-.23 0-.41.09-.56.28-.15.18-.22.43-.22.74v1.64h-.61v-2.42c0-.08 0-.19-.01-.32s-.01-.25-.02-.34h.58c.01.08.02.17.02.26 0 .1.01.18.01.24h.02c.07-.16.19-.3.36-.41zM146.15 147.94c0 .24-.04.46-.13.66s-.2.37-.35.52c-.15.14-.33.26-.53.34s-.42.12-.66.12-.45-.04-.66-.12c-.2-.08-.38-.19-.53-.34-.15-.15-.26-.32-.35-.52s-.13-.42-.13-.66c0-.24.04-.46.13-.65.08-.2.2-.37.35-.51.15-.14.32-.25.53-.33.2-.08.42-.12.66-.12s.45.04.66.12.38.19.53.33c.15.14.27.31.35.51.08.2.13.42.13.65zm-.64.01c0-.15-.02-.29-.07-.42s-.11-.25-.2-.35a.963.963 0 0 0-.76-.33c-.17 0-.31.03-.44.09s-.24.14-.32.24c-.09.1-.15.22-.2.35-.05.13-.07.27-.07.42s.02.29.07.42.11.25.2.36c.09.1.19.19.32.25s.27.09.44.09.31-.03.44-.09.24-.14.32-.25c.09-.1.15-.22.2-.36.05-.14.07-.28.07-.42zM148.49 147.19c-.07-.11-.17-.2-.29-.28s-.27-.11-.42-.11c-.07 0-.14.01-.21.02-.07.02-.13.04-.19.07-.05.03-.1.07-.13.12-.03.05-.05.11-.05.18 0 .13.06.23.18.29.12.06.29.12.53.17.15.04.28.08.41.12.13.05.23.11.33.18.09.07.17.16.22.26.05.1.08.22.08.35 0 .18-.03.34-.1.46-.07.13-.16.23-.28.31s-.25.14-.39.17c-.15.04-.3.05-.45.05-.23 0-.46-.04-.69-.14-.22-.09-.41-.23-.56-.42l.44-.37c.08.12.2.22.34.31s.3.12.48.12c.08 0 .15-.01.22-.02.07-.02.14-.04.19-.08.06-.03.1-.08.14-.14.03-.06.05-.13.05-.21a.35.35 0 0 0-.2-.32c-.14-.07-.34-.13-.6-.2l-.31-.09c-.11-.04-.2-.09-.29-.15a.69.69 0 0 1-.29-.6c0-.16.03-.31.1-.42.07-.12.15-.22.26-.29.11-.08.23-.13.37-.17.14-.04.28-.05.43-.05.22 0 .43.04.64.13s.36.21.48.38l-.44.37zM151.05 146.91h-.82v1.6c0 .19.03.32.1.4.07.08.18.12.33.12.06 0 .12-.01.18-.02s.12-.03.18-.05l.02.5c-.07.03-.15.05-.24.06-.09.01-.18.02-.28.02-.29 0-.51-.08-.67-.24s-.23-.4-.23-.72v-1.67h-.59v-.5h.59v-.88h.6v.88h.82v.5zM14.26 154.9h-.71v2.58h-.61v-2.58h-.61v-.5h.61v-.64c0-.18.02-.35.06-.5s.11-.29.2-.4c.09-.11.21-.2.36-.27.15-.06.32-.1.53-.1.15 0 .27.01.38.04l-.07.53c-.05-.01-.1-.02-.14-.03-.05-.01-.1-.01-.16-.01-.12 0-.21.02-.28.06-.07.04-.13.1-.17.17-.04.07-.06.15-.08.24-.01.09-.02.18-.02.28v.64h.71v.49zM17.78 155.94c0 .24-.04.46-.13.66s-.2.37-.35.52c-.15.14-.33.26-.53.34s-.42.12-.66.12-.45-.04-.66-.12c-.2-.08-.38-.19-.53-.34-.15-.15-.26-.32-.35-.52s-.13-.42-.13-.66c0-.24.04-.46.13-.65.08-.2.2-.37.35-.51.15-.14.32-.25.53-.33.2-.08.42-.12.66-.12s.45.04.66.12.38.19.53.33c.15.14.27.31.35.51.09.19.13.41.13.65zm-.63 0c0-.15-.02-.29-.07-.42s-.11-.25-.2-.35a.963.963 0 0 0-.76-.33c-.17 0-.31.03-.44.09s-.24.14-.32.24c-.09.1-.15.22-.2.35-.05.13-.07.27-.07.42s.02.29.07.42.11.25.2.36c.09.1.19.19.32.25s.27.09.44.09.31-.03.44-.09.24-.14.32-.25c.09-.1.15-.22.2-.36.04-.13.07-.28.07-.42zM18.46 154.75c0-.13-.01-.25-.02-.34h.58c.01.08.02.17.02.27s.01.19.01.25h.02c.09-.18.21-.33.38-.44a.999.999 0 0 1 .8-.14l-.03.56c-.09-.02-.18-.03-.28-.03-.15 0-.27.03-.38.08-.11.05-.2.13-.27.22s-.12.2-.16.31c-.04.12-.05.24-.05.37v1.62h-.61v-2.42c-.01-.08-.01-.18-.01-.31zM22.67 154.4c.01.08.02.17.02.26 0 .1.01.18.01.24h.02c.04-.08.09-.16.16-.23s.14-.13.23-.19c.09-.05.18-.1.29-.13.1-.03.21-.04.32-.04.2 0 .37.03.51.1s.26.16.36.27.17.24.21.4c.05.15.07.31.07.49v1.91h-.61v-1.71c0-.12-.01-.24-.03-.36a.977.977 0 0 0-.11-.3c-.05-.09-.12-.16-.21-.21s-.21-.08-.35-.08c-.24 0-.44.09-.59.28-.15.18-.23.43-.23.74v1.64h-.61v-2.42c0-.08 0-.19-.01-.32s-.01-.25-.02-.34h.57zM28.85 155.94c0 .24-.04.46-.13.66s-.2.37-.35.52c-.15.14-.33.26-.53.34s-.42.12-.66.12-.45-.04-.66-.12c-.2-.08-.38-.19-.53-.34-.15-.15-.26-.32-.35-.52s-.13-.42-.13-.66c0-.24.04-.46.13-.65.08-.2.2-.37.35-.51.15-.14.32-.25.53-.33.2-.08.42-.12.66-.12s.45.04.66.12.38.19.53.33c.15.14.27.31.35.51.09.19.13.41.13.65zm-.64 0c0-.15-.02-.29-.07-.42s-.11-.25-.2-.35a.963.963 0 0 0-.76-.33c-.17 0-.31.03-.44.09s-.24.14-.32.24c-.09.1-.15.22-.2.35-.05.13-.07.27-.07.42s.02.29.07.42.11.25.2.36c.09.1.19.19.32.25s.27.09.44.09.31-.03.44-.09.24-.14.32-.25c.09-.1.15-.22.2-.36.05-.13.07-.28.07-.42zM30.08 154.4c.01.08.02.17.02.26 0 .1.01.18.01.24h.02c.04-.08.09-.16.16-.23s.14-.13.23-.19c.09-.05.18-.1.29-.13.1-.03.21-.04.32-.04.2 0 .37.03.51.1s.26.16.36.27.17.24.21.4c.05.15.07.31.07.49v1.91h-.61v-1.71c0-.12-.01-.24-.03-.36a.977.977 0 0 0-.11-.3c-.05-.09-.12-.16-.21-.21s-.21-.08-.35-.08c-.24 0-.44.09-.59.28-.15.18-.23.43-.23.74v1.64h-.61v-2.42c0-.08 0-.19-.01-.32s-.01-.25-.02-.34h.57zM34.81 155.18c-.07-.11-.17-.2-.29-.28s-.27-.11-.42-.11c-.07 0-.14.01-.21.02-.07.02-.13.04-.19.07-.05.03-.1.07-.13.12-.03.05-.05.11-.05.18 0 .13.06.23.18.29.12.06.29.12.53.17.15.04.28.08.41.12.13.05.23.11.33.18.09.07.17.16.22.26.05.1.08.22.08.35 0 .18-.03.34-.1.46-.07.13-.16.23-.28.31s-.25.14-.39.17c-.15.04-.3.05-.45.05-.23 0-.46-.04-.69-.14-.22-.09-.41-.23-.56-.42l.44-.37c.08.12.2.22.34.31s.3.12.48.12c.08 0 .15-.01.22-.02.07-.02.14-.04.19-.08.06-.03.1-.08.14-.14.03-.06.05-.13.05-.21a.35.35 0 0 0-.2-.32c-.14-.07-.34-.13-.6-.2l-.31-.09c-.11-.04-.2-.09-.29-.15a.69.69 0 0 1-.29-.6c0-.16.03-.31.1-.42.07-.12.15-.22.26-.29.11-.08.23-.13.37-.17.14-.04.28-.05.43-.05.22 0 .43.04.64.13s.36.21.48.38l-.44.37zM38.03 157.48c-.01-.08-.02-.17-.02-.26 0-.1-.01-.18-.01-.24-.08.17-.21.3-.39.42-.18.12-.39.17-.61.17-.2 0-.37-.03-.52-.1a1.1 1.1 0 0 1-.36-.27 1.387 1.387 0 0 1-.28-.89v-1.91h.61v1.7c0 .13.01.25.03.36.02.12.06.22.11.3.05.09.12.16.21.21.09.05.21.08.35.08.25 0 .45-.09.6-.28.15-.18.23-.43.23-.74v-1.64h.61v2.42c0 .08 0 .19.01.32s.01.24.02.34h-.59zM39.48 154.75c0-.13-.01-.25-.02-.34h.58c.01.08.02.17.02.27s.01.19.01.25h.02c.09-.18.21-.33.38-.44a.999.999 0 0 1 .8-.14l-.03.56c-.09-.02-.18-.03-.28-.03-.15 0-.27.03-.38.08-.11.05-.2.13-.27.22s-.12.2-.16.31c-.04.12-.05.24-.05.37v1.62h-.61v-2.42c-.01-.08-.01-.18-.01-.31zM41.79 158.01c.13.15.3.27.5.36s.41.14.62.14c.2 0 .37-.03.51-.09s.25-.14.33-.24.15-.22.18-.36c.04-.14.06-.29.06-.45v-.4h-.01c-.11.17-.27.31-.46.4s-.4.14-.62.14c-.23 0-.45-.04-.64-.12a1.31 1.31 0 0 1-.49-.34c-.13-.14-.24-.31-.31-.5a1.795 1.795 0 0 1 0-1.24c.07-.2.18-.36.31-.51.13-.14.3-.26.49-.34.19-.08.4-.13.64-.13.22 0 .43.05.63.14.2.1.36.24.48.44h.01v-.49h.59v2.92c0 .23-.03.44-.08.65-.06.21-.15.39-.29.55-.13.16-.31.28-.53.38-.22.1-.48.14-.81.14-.27 0-.54-.05-.81-.15s-.5-.23-.7-.41l.4-.49zm.19-2.1a1.14 1.14 0 0 0 .27.75.972.972 0 0 0 .75.33c.16 0 .3-.03.43-.08a.979.979 0 0 0 .54-.57c.05-.13.08-.27.08-.42 0-.15-.03-.29-.08-.42s-.12-.24-.21-.34a1.003 1.003 0 0 0-.76-.33 1.003 1.003 0 0 0-.75.32.9.9 0 0 0-.2.34c-.05.13-.07.27-.07.42zM46.21 153.29c0 .11-.04.21-.12.28-.08.07-.18.11-.29.11a.393.393 0 0 1-.4-.39c0-.11.04-.21.12-.28a.37.37 0 0 1 .28-.11c.11 0 .21.04.29.11.08.08.12.17.12.28zm-.1 4.19h-.61v-3.08h.61v3.08zM49.17 155.18a.724.724 0 0 0-.29-.25.868.868 0 0 0-.42-.1.923.923 0 0 0-.74.33 1.195 1.195 0 0 0-.27.77c0 .15.02.29.07.42s.11.25.2.35a.963.963 0 0 0 .75.33c.16 0 .3-.03.43-.09s.23-.14.31-.25l.41.37c-.13.15-.29.27-.49.35-.19.08-.42.13-.66.13-.24 0-.46-.04-.66-.12a1.542 1.542 0 0 1-.87-.84c-.09-.2-.13-.42-.13-.67 0-.24.04-.46.12-.66.08-.2.2-.37.34-.51.15-.14.32-.25.52-.33a1.747 1.747 0 0 1 1.3.01c.21.09.38.21.51.38l-.43.38zM51.98 155.49c0-.23-.07-.4-.21-.51a.86.86 0 0 0-.55-.17c-.17 0-.34.03-.49.1-.15.07-.28.15-.39.26l-.32-.39c.15-.14.34-.25.56-.34.22-.08.45-.12.7-.12.22 0 .41.03.57.09a1.03 1.03 0 0 1 .63.64c.05.15.08.31.08.47v1.34c0 .1 0 .21.01.33.01.11.02.21.04.28h-.55c-.03-.15-.05-.29-.05-.44h-.02c-.11.16-.25.29-.43.38s-.37.14-.61.14c-.12 0-.25-.02-.38-.05s-.25-.09-.36-.16c-.11-.07-.2-.17-.27-.29s-.11-.27-.11-.45c0-.23.06-.42.19-.55.13-.14.29-.24.49-.31s.43-.12.69-.14c.26-.02.51-.03.77-.03v-.08zm-.15.52c-.15 0-.31.01-.47.02-.16.01-.31.04-.44.08s-.24.1-.33.18c-.09.08-.13.18-.13.31 0 .09.02.17.06.23a.536.536 0 0 0 .35.23c.07.02.15.02.23.02.29 0 .51-.09.66-.26s.23-.39.23-.65v-.16h-.16zM54.04 157.48h-.61v-4.91h.61v4.91zM57.85 154.9h-.71v2.58h-.61v-2.58h-.61v-.5h.61v-.64c0-.18.02-.35.06-.5s.11-.29.2-.4c.09-.11.21-.2.36-.27.15-.06.32-.1.53-.1.15 0 .27.01.38.04l-.07.53c-.05-.01-.1-.02-.14-.03-.05-.01-.1-.01-.16-.01-.12 0-.21.02-.28.06-.07.04-.13.1-.17.17-.04.07-.06.15-.08.24-.01.09-.02.18-.02.28v.64h.71v.49zM60.17 155.49c0-.23-.07-.4-.21-.51a.86.86 0 0 0-.55-.17c-.17 0-.34.03-.49.1-.15.07-.28.15-.39.26l-.32-.39c.15-.14.34-.25.56-.34.22-.08.45-.12.7-.12.22 0 .41.03.57.09a1.03 1.03 0 0 1 .63.64c.05.15.08.31.08.47v1.34c0 .1 0 .21.01.33.01.11.02.21.04.28h-.55c-.03-.15-.05-.29-.05-.44h-.02c-.11.16-.25.29-.43.38s-.37.14-.61.14c-.12 0-.25-.02-.38-.05s-.25-.09-.36-.16c-.11-.07-.2-.17-.27-.29s-.11-.27-.11-.45c0-.23.06-.42.19-.55.13-.14.29-.24.49-.31s.43-.12.69-.14c.26-.02.51-.03.77-.03v-.08zm-.15.52c-.15 0-.31.01-.47.02-.16.01-.31.04-.44.08s-.24.1-.33.18c-.09.08-.13.18-.13.31 0 .09.02.17.06.23a.536.536 0 0 0 .35.23c.07.02.15.02.23.02.29 0 .51-.09.66-.26s.23-.39.23-.65v-.16h-.16zM63.05 154.9h-.82v1.6c0 .19.03.32.1.4.07.08.18.12.33.12.06 0 .12-.01.18-.02s.12-.03.18-.05l.02.5c-.07.03-.15.05-.24.06-.09.01-.18.02-.28.02-.29 0-.51-.08-.67-.24s-.23-.4-.23-.72v-1.67h-.59v-.5h.59v-.88h.6v.88h.82v.5zM64.97 154.75c0-.13-.01-.25-.02-.34h.58c.01.08.02.17.02.27s.01.19.01.25h.02c.09-.18.21-.33.38-.44a.999.999 0 0 1 .8-.14l-.03.56c-.09-.02-.18-.03-.28-.03-.15 0-.27.03-.38.08-.11.05-.2.13-.27.22s-.12.2-.16.31c-.04.12-.05.24-.05.37v1.62h-.61v-2.42c0-.08 0-.18-.01-.31zM69.93 155.92v.1c0 .04 0 .07-.01.1h-2.45c0 .13.03.25.09.36.05.11.13.21.22.3.09.08.2.15.31.2.12.05.25.07.38.07.21 0 .39-.04.54-.14.15-.09.27-.2.36-.33l.43.34c-.16.22-.36.38-.58.48-.22.1-.47.15-.74.15-.23 0-.45-.04-.65-.12a1.497 1.497 0 0 1-.85-.84c-.08-.2-.12-.42-.12-.66 0-.24.04-.46.12-.66.08-.2.19-.37.34-.52.14-.14.31-.25.51-.33s.41-.12.63-.12.43.04.61.11.34.18.47.32c.13.14.23.31.3.5s.09.44.09.69zm-.63-.25c0-.12-.03-.23-.06-.34a.708.708 0 0 0-.43-.46.873.873 0 0 0-.37-.07c-.13 0-.25.02-.37.07-.11.04-.21.11-.3.18s-.15.17-.21.28-.09.22-.09.34h1.83zM73.06 156.99c-.12.19-.28.33-.48.43-.2.1-.41.15-.63.15-.24 0-.45-.04-.64-.13-.19-.08-.35-.2-.49-.35s-.24-.32-.31-.52-.11-.41-.11-.64c0-.23.04-.44.11-.63.07-.2.18-.37.31-.52.14-.15.3-.26.49-.34.19-.08.4-.12.63-.12.25 0 .47.05.66.16.19.11.33.23.44.39h.01v-2.29h.61v4.91h-.59V157h-.01zm-2.02-1.05c0 .14.02.28.06.41.04.13.11.25.19.36.09.1.19.19.32.25s.27.09.44.09a1.003 1.003 0 0 0 .76-.33 1.126 1.126 0 0 0 .28-.77 1.158 1.158 0 0 0-.28-.78.905.905 0 0 0-.33-.25c-.13-.06-.27-.09-.43-.09-.17 0-.32.03-.44.09s-.23.14-.32.25a.89.89 0 0 0-.19.36c-.04.13-.06.27-.06.41zM76.74 157.48c-.01-.08-.02-.17-.02-.26 0-.1-.01-.18-.01-.24h-.01c-.08.17-.21.3-.39.42-.18.12-.39.17-.61.17-.2 0-.37-.03-.52-.1a1.1 1.1 0 0 1-.36-.27 1.387 1.387 0 0 1-.28-.89v-1.91h.61v1.7c0 .13.01.25.03.36.02.12.06.22.11.3.05.09.12.16.21.21.09.05.21.08.35.08.25 0 .45-.09.6-.28.15-.18.23-.43.23-.74v-1.64h.61v2.42c0 .08 0 .19.01.32s.01.24.02.34h-.58zM80.34 155.18a.724.724 0 0 0-.29-.25.868.868 0 0 0-.42-.1.923.923 0 0 0-.74.33 1.195 1.195 0 0 0-.27.77c0 .15.02.29.07.42s.11.25.2.35a.963.963 0 0 0 .75.33c.16 0 .3-.03.43-.09s.23-.14.31-.25l.41.37c-.13.15-.29.27-.49.35-.19.08-.42.13-.66.13-.24 0-.46-.04-.66-.12a1.542 1.542 0 0 1-.87-.84c-.09-.2-.13-.42-.13-.67 0-.24.04-.46.12-.66.08-.2.2-.37.34-.51.15-.14.32-.25.52-.33a1.747 1.747 0 0 1 1.3.01c.21.09.38.21.51.38l-.43.38z"/><path class="st0" d="M82.74 154.9h-.82v1.6c0 .19.03.32.1.4.07.08.18.12.33.12.06 0 .12-.01.18-.02s.12-.03.18-.05l.02.5c-.07.03-.15.05-.24.06-.09.01-.18.02-.28.02-.29 0-.51-.08-.67-.24s-.23-.4-.23-.72v-1.67h-.59v-.5h.59v-.88h.6v.88h.82v.5zM83.92 153.29c0 .11-.04.21-.12.28-.08.07-.18.11-.29.11a.393.393 0 0 1-.4-.39c0-.11.04-.21.12-.28a.37.37 0 0 1 .28-.11c.11 0 .21.04.29.11.08.08.12.17.12.28zm-.1 4.19h-.61v-3.08h.61v3.08zM87.84 155.94c0 .24-.04.46-.13.66s-.2.37-.35.52c-.15.14-.33.26-.53.34s-.42.12-.66.12-.45-.04-.66-.12c-.2-.08-.38-.19-.53-.34-.15-.15-.26-.32-.35-.52s-.13-.42-.13-.66c0-.24.04-.46.13-.65.08-.2.2-.37.35-.51.15-.14.32-.25.53-.33.2-.08.42-.12.66-.12s.45.04.66.12.38.19.53.33c.15.14.27.31.35.51.09.19.13.41.13.65zm-.63 0c0-.15-.02-.29-.07-.42s-.11-.25-.2-.35a.963.963 0 0 0-.76-.33c-.17 0-.31.03-.44.09s-.24.14-.32.24c-.09.1-.15.22-.2.35-.05.13-.07.27-.07.42s.02.29.07.42.11.25.2.36c.09.1.19.19.32.25s.27.09.44.09.31-.03.44-.09.24-.14.32-.25c.09-.1.15-.22.2-.36.04-.13.07-.28.07-.42zM89.08 154.4c.01.08.02.17.02.26 0 .1.01.18.01.24h.02c.04-.08.09-.16.16-.23s.14-.13.23-.19c.09-.05.18-.1.29-.13.1-.03.21-.04.32-.04.2 0 .37.03.51.1s.26.16.36.27.17.24.21.4c.05.15.07.31.07.49v1.91h-.61v-1.71c0-.12-.01-.24-.03-.36a.977.977 0 0 0-.11-.3c-.05-.09-.12-.16-.21-.21s-.21-.08-.35-.08c-.24 0-.44.09-.59.28-.15.18-.23.43-.23.74v1.64h-.61v-2.42c0-.08 0-.19-.01-.32s-.01-.25-.02-.34h.57zM92.89 157.09c0 .11-.04.21-.12.3s-.19.13-.31.13-.22-.04-.31-.13a.41.41 0 0 1-.01-.59c.08-.08.19-.13.31-.13s.23.04.31.12.13.18.13.3zM95.04 157.48h-.71l1.99-4.6h.58l1.97 4.6h-.73l-.47-1.13H95.5l-.46 1.13zm.68-1.69h1.72l-.86-2.16-.86 2.16zM99.89 157.48h-.61v-4.91h.61v4.91zM101.42 157.48h-.61v-4.91h.61v4.91zM105.2 155.92v.1c0 .04 0 .07-.01.1h-2.45c0 .13.03.25.09.36.05.11.13.21.22.3.09.08.2.15.31.2.12.05.25.07.38.07.21 0 .39-.04.54-.14.15-.09.27-.2.36-.33l.43.34c-.16.22-.36.38-.58.48-.22.1-.47.15-.74.15-.23 0-.45-.04-.65-.12a1.497 1.497 0 0 1-.85-.84c-.08-.2-.12-.42-.12-.66 0-.24.04-.46.12-.66.08-.2.19-.37.34-.52.14-.14.31-.25.51-.33s.41-.12.63-.12.43.04.61.11.34.18.47.32c.13.14.23.31.3.5s.09.44.09.69zm-.63-.25c0-.12-.03-.23-.06-.34a.708.708 0 0 0-.43-.46.873.873 0 0 0-.37-.07c-.13 0-.25.02-.37.07-.11.04-.21.11-.3.18s-.15.17-.21.28-.09.22-.09.34h1.83zM106.57 155.86l-1.12-1.46h.75l.75 1.06.76-1.06h.71l-1.11 1.46 1.24 1.62h-.76l-.86-1.2-.87 1.2h-.73l1.24-1.62zM110.89 155.49c0-.23-.07-.4-.21-.51a.86.86 0 0 0-.55-.17c-.17 0-.34.03-.49.1-.15.07-.28.15-.39.26l-.32-.39c.15-.14.34-.25.56-.34.22-.08.45-.12.7-.12.22 0 .41.03.57.09a1.03 1.03 0 0 1 .63.64c.05.15.08.31.08.47v1.34c0 .1 0 .21.01.33.01.11.02.21.04.28h-.55c-.03-.15-.05-.29-.05-.44h-.02c-.11.16-.25.29-.43.38s-.37.14-.61.14c-.12 0-.25-.02-.38-.05s-.25-.09-.36-.16c-.11-.07-.2-.17-.27-.29s-.11-.27-.11-.45c0-.23.06-.42.19-.55.13-.14.29-.24.49-.31s.43-.12.69-.14c.26-.02.51-.03.77-.03v-.08zm-.15.52c-.15 0-.31.01-.47.02-.16.01-.31.04-.44.08s-.24.1-.33.18c-.09.08-.13.18-.13.31 0 .09.02.17.06.23a.536.536 0 0 0 .35.23c.07.02.15.02.23.02.29 0 .51-.09.66-.26s.23-.39.23-.65v-.16h-.16zM114.02 154.4l.69 2.35h.01l.73-2.35h.64l.75 2.35h.01l.69-2.35h.64l-1.02 3.08h-.64l-.76-2.31h-.01l-.75 2.31h-.64l-1.03-3.08h.69zM120.56 155.49c0-.23-.07-.4-.21-.51a.86.86 0 0 0-.55-.17c-.17 0-.34.03-.49.1-.15.07-.28.15-.39.26l-.32-.39c.15-.14.34-.25.56-.34.22-.08.45-.12.7-.12.22 0 .41.03.57.09a1.03 1.03 0 0 1 .63.64c.05.15.08.31.08.47v1.34c0 .1 0 .21.01.33.01.11.02.21.04.28h-.55c-.03-.15-.05-.29-.05-.44h-.02c-.11.16-.25.29-.43.38s-.37.14-.61.14c-.12 0-.25-.02-.38-.05s-.25-.09-.36-.16c-.11-.07-.2-.17-.27-.29s-.11-.27-.11-.45c0-.23.06-.42.19-.55.13-.14.29-.24.49-.31s.43-.12.69-.14c.26-.02.51-.03.77-.03v-.08zm-.15.52c-.15 0-.31.01-.47.02-.16.01-.31.04-.44.08s-.24.1-.33.18c-.09.08-.13.18-.13.31 0 .09.02.17.06.23a.536.536 0 0 0 .35.23c.07.02.15.02.23.02.29 0 .51-.09.66-.26s.23-.39.23-.65v-.16h-.16zM123.66 155.18c-.07-.11-.17-.2-.29-.28s-.27-.11-.42-.11c-.07 0-.14.01-.21.02-.07.02-.13.04-.19.07-.05.03-.1.07-.13.12-.03.05-.05.11-.05.18 0 .13.06.23.18.29.12.06.29.12.53.17.15.04.28.08.41.12.13.05.23.11.33.18.09.07.17.16.22.26.05.1.08.22.08.35 0 .18-.03.34-.1.46-.07.13-.16.23-.28.31s-.25.14-.39.17c-.15.04-.3.05-.45.05-.23 0-.46-.04-.69-.14-.22-.09-.41-.23-.56-.42l.44-.37c.08.12.2.22.34.31s.3.12.48.12c.08 0 .15-.01.22-.02.07-.02.14-.04.19-.08.06-.03.1-.08.14-.14.03-.06.05-.13.05-.21a.35.35 0 0 0-.2-.32c-.14-.07-.34-.13-.6-.2l-.31-.09c-.11-.04-.2-.09-.29-.15a.69.69 0 0 1-.29-.6c0-.16.03-.31.1-.42.07-.12.15-.22.26-.29.11-.08.23-.13.37-.17.14-.04.28-.05.43-.05.22 0 .43.04.64.13s.36.21.48.38l-.44.37zM127.69 154.9h-.82v1.6c0 .19.03.32.1.4.07.08.18.12.33.12.06 0 .12-.01.18-.02s.12-.03.18-.05l.02.5c-.07.03-.15.05-.24.06-.09.01-.18.02-.28.02-.29 0-.51-.08-.67-.24s-.23-.4-.23-.72v-1.67h-.59v-.5h.59v-.88h.6v.88h.82v.5zM128.15 154.75c0-.13-.01-.25-.02-.34h.58c.01.08.02.17.02.27s.01.19.01.25h.02c.09-.18.21-.33.38-.44a.999.999 0 0 1 .8-.14l-.03.56c-.09-.02-.18-.03-.28-.03-.15 0-.27.03-.38.08-.11.05-.2.13-.27.22s-.12.2-.16.31c-.04.12-.05.24-.05.37v1.62h-.61v-2.42c0-.08-.01-.18-.01-.31zM133.1 155.92v.1c0 .04 0 .07-.01.1h-2.45c0 .13.03.25.09.36.05.11.13.21.22.3.09.08.2.15.31.2.12.05.25.07.38.07.21 0 .39-.04.54-.14.15-.09.27-.2.36-.33l.43.34c-.16.22-.36.38-.58.48-.22.1-.47.15-.74.15-.23 0-.45-.04-.65-.12a1.497 1.497 0 0 1-.85-.84c-.08-.2-.12-.42-.12-.66 0-.24.04-.46.12-.66.08-.2.19-.37.34-.52.14-.14.31-.25.51-.33s.41-.12.63-.12.43.04.61.11.34.18.47.32c.13.14.23.31.3.5s.09.44.09.69zm-.62-.25c0-.12-.03-.23-.06-.34a.708.708 0 0 0-.43-.46.873.873 0 0 0-.37-.07c-.13 0-.25.02-.37.07-.11.04-.21.11-.3.18s-.15.17-.21.28-.09.22-.09.34h1.83zM135.66 155.49c0-.23-.07-.4-.21-.51a.86.86 0 0 0-.55-.17c-.17 0-.34.03-.49.1-.15.07-.28.15-.39.26l-.32-.39c.15-.14.34-.25.56-.34.22-.08.45-.12.7-.12.22 0 .41.03.57.09a1.03 1.03 0 0 1 .63.64c.05.15.08.31.08.47v1.34c0 .1 0 .21.01.33.01.11.02.21.04.28h-.55c-.03-.15-.05-.29-.05-.44h-.02c-.11.16-.25.29-.43.38s-.37.14-.61.14c-.12 0-.25-.02-.38-.05s-.25-.09-.36-.16c-.11-.07-.2-.17-.27-.29s-.11-.27-.11-.45c0-.23.06-.42.19-.55.13-.14.29-.24.49-.31s.43-.12.69-.14c.26-.02.51-.03.77-.03v-.08zm-.15.52c-.15 0-.31.01-.47.02-.16.01-.31.04-.44.08s-.24.1-.33.18c-.09.08-.13.18-.13.31 0 .09.02.17.06.23a.536.536 0 0 0 .35.23c.07.02.15.02.23.02.29 0 .51-.09.66-.26s.23-.39.23-.65v-.16h-.16zM138.55 154.9h-.82v1.6c0 .19.03.32.1.4.07.08.18.12.33.12.06 0 .12-.01.18-.02s.12-.03.18-.05l.02.5c-.07.03-.15.05-.24.06-.09.01-.18.02-.28.02-.29 0-.51-.08-.67-.24s-.23-.4-.23-.72v-1.67h-.59v-.5h.59v-.88h.6v.88h.82v.5zM141.89 155.92v.1c0 .04 0 .07-.01.1h-2.45c0 .13.03.25.09.36.05.11.13.21.22.3.09.08.2.15.31.2.12.05.25.07.38.07.21 0 .39-.04.54-.14.15-.09.27-.2.36-.33l.43.34c-.16.22-.36.38-.58.48-.22.1-.47.15-.74.15-.23 0-.45-.04-.65-.12a1.497 1.497 0 0 1-.85-.84c-.08-.2-.12-.42-.12-.66 0-.24.04-.46.12-.66.08-.2.19-.37.34-.52.14-.14.31-.25.51-.33s.41-.12.63-.12.43.04.61.11.34.18.47.32c.13.14.23.31.3.5s.09.44.09.69zm-.62-.25c0-.12-.03-.23-.06-.34a.708.708 0 0 0-.43-.46.873.873 0 0 0-.37-.07c-.13 0-.25.02-.37.07-.11.04-.21.11-.3.18s-.15.17-.21.28-.09.22-.09.34h1.83zM145.03 156.99c-.12.19-.28.33-.48.43-.2.1-.41.15-.63.15-.24 0-.45-.04-.64-.13-.19-.08-.35-.2-.49-.35s-.24-.32-.31-.52-.11-.41-.11-.64c0-.23.04-.44.11-.63.07-.2.18-.37.31-.52.14-.15.3-.26.49-.34.19-.08.4-.12.63-.12.25 0 .47.05.66.16.19.11.33.23.44.39h.01v-2.29h.61v4.91h-.59V157h-.01zm-2.03-1.05c0 .14.02.28.06.41.04.13.11.25.19.36.09.1.19.19.32.25s.27.09.44.09a1.003 1.003 0 0 0 .76-.33 1.126 1.126 0 0 0 .28-.77 1.158 1.158 0 0 0-.28-.78.905.905 0 0 0-.33-.25c-.13-.06-.27-.09-.43-.09-.17 0-.32.03-.44.09s-.23.14-.32.25a.89.89 0 0 0-.19.36c-.04.13-.06.27-.06.41zM148.22 154.4l.69 2.35h.01l.73-2.35h.64l.75 2.35h.01l.7-2.35h.64l-1.02 3.08h-.64l-.76-2.31h-.01l-.75 2.31h-.64l-1.03-3.08h.68zM153.56 153.29c0 .11-.04.21-.12.28-.08.07-.17.11-.29.11a.393.393 0 0 1-.4-.39c0-.11.04-.21.12-.28a.37.37 0 0 1 .28-.11c.11 0 .21.04.29.11.08.08.12.17.12.28zm-.09 4.19h-.61v-3.08h.61v3.08zM155.88 154.9h-.82v1.6c0 .19.04.32.1.4.07.08.18.12.33.12.06 0 .12-.01.18-.02.07-.01.12-.03.18-.05l.02.5c-.07.03-.15.05-.24.06-.09.01-.18.02-.28.02-.29 0-.51-.08-.67-.24s-.23-.4-.23-.72v-1.67h-.59v-.5h.59v-.88h.6v.88h.82v.5zM156.98 154.87c.07-.15.2-.28.38-.39s.38-.16.6-.16c.2 0 .37.03.51.1s.26.16.36.27c.1.11.17.24.21.4.04.15.07.31.07.49v1.91h-.61v-1.71c0-.13-.01-.25-.03-.36a.774.774 0 0 0-.11-.3.53.53 0 0 0-.21-.21.724.724 0 0 0-.35-.08c-.24 0-.44.09-.6.28-.16.18-.23.43-.23.74v1.63h-.61v-4.91h.61v2.3h.01zM16.79 164.76c-.18.25-.42.45-.71.6-.29.15-.64.23-1.05.23-.35 0-.67-.06-.97-.18s-.55-.29-.77-.5a2.28 2.28 0 0 1-.5-.77c-.12-.3-.18-.62-.18-.98s.06-.69.19-.98c.12-.3.29-.55.51-.76.22-.21.48-.37.78-.49.3-.12.62-.17.97-.17.16 0 .31.01.47.04s.31.08.46.14.28.14.4.22c.12.09.23.19.31.31l-.51.39c-.11-.16-.27-.28-.48-.39-.21-.1-.43-.15-.67-.15a1.695 1.695 0 0 0-1.62 1.14c-.08.22-.12.46-.12.71 0 .26.04.5.12.73.08.23.19.42.34.59s.33.3.55.39c.21.1.45.14.72.14.26 0 .5-.05.71-.16.21-.1.39-.26.53-.45l.52.35zM20.29 163.93c0 .24-.04.46-.13.66s-.2.37-.35.52c-.15.14-.33.26-.53.34s-.42.12-.66.12-.45-.04-.66-.12c-.2-.08-.38-.19-.53-.34-.15-.15-.26-.32-.35-.52s-.13-.42-.13-.66c0-.24.04-.46.13-.65.08-.2.2-.37.35-.51.15-.14.32-.25.53-.33.2-.08.42-.12.66-.12s.45.04.66.12.38.19.53.33c.15.14.27.31.35.51.09.19.13.41.13.65zm-.64 0c0-.15-.02-.29-.07-.42s-.11-.25-.2-.35a.963.963 0 0 0-.76-.33c-.17 0-.31.03-.44.09s-.24.14-.32.24c-.09.1-.15.22-.2.35-.05.13-.07.27-.07.42s.02.29.07.42.11.25.2.36c.09.1.19.19.32.25s.27.09.44.09.31-.03.44-.09.24-.14.32-.25c.09-.1.15-.22.2-.36.05-.13.07-.27.07-.42zM24.09 163.93c0 .24-.04.46-.13.66s-.2.37-.35.52c-.15.14-.33.26-.53.34s-.42.12-.66.12-.45-.04-.66-.12c-.2-.08-.38-.19-.53-.34-.15-.15-.26-.32-.35-.52s-.13-.42-.13-.66c0-.24.04-.46.13-.65.08-.2.2-.37.35-.51.15-.14.32-.25.53-.33.2-.08.42-.12.66-.12s.45.04.66.12.38.19.53.33c.15.14.27.31.35.51.09.19.13.41.13.65zm-.64 0c0-.15-.02-.29-.07-.42s-.11-.25-.2-.35a.963.963 0 0 0-.76-.33c-.17 0-.31.03-.44.09s-.24.14-.32.24c-.09.1-.15.22-.2.35-.05.13-.07.27-.07.42s.02.29.07.42.11.25.2.36c.09.1.19.19.32.25s.27.09.44.09.31-.03.44-.09.24-.14.32-.25c.09-.1.15-.22.2-.36.05-.13.07-.27.07-.42zM25.39 165.47h-.61v-4.91h.61v4.91zM28.61 161.73a.947.947 0 0 0-.37-.31c-.16-.08-.33-.12-.53-.12-.1 0-.21.01-.31.04-.11.03-.2.07-.29.14a.659.659 0 0 0-.29.56c0 .13.02.23.07.32.05.08.12.16.2.21.08.06.18.11.3.15s.24.08.37.13c.16.05.31.1.47.16s.31.14.44.24.24.22.32.37c.08.15.12.34.12.57 0 .24-.04.45-.13.62-.09.18-.21.32-.35.44-.15.11-.32.2-.51.26s-.39.08-.59.08c-.29 0-.57-.06-.84-.17s-.49-.28-.67-.5l.5-.42c.11.16.25.29.44.39s.38.15.59.15c.11 0 .22-.02.32-.05.11-.03.21-.08.3-.14.09-.07.16-.15.22-.24.06-.1.08-.21.08-.35s-.03-.25-.09-.35a.912.912 0 0 0-.24-.24c-.1-.07-.22-.12-.35-.17s-.27-.09-.42-.14c-.15-.04-.29-.1-.44-.16a1.36 1.36 0 0 1-.38-.24c-.11-.1-.2-.22-.27-.36s-.1-.32-.1-.53a1.197 1.197 0 0 1 .5-1c.15-.11.32-.19.51-.24.19-.05.38-.07.57-.07.27 0 .52.05.75.14.23.1.42.22.56.38l-.46.45zM31.98 163.17a.724.724 0 0 0-.29-.25.868.868 0 0 0-.42-.1.923.923 0 0 0-.74.33 1.195 1.195 0 0 0-.27.77c0 .15.02.29.07.42s.11.25.2.35a.963.963 0 0 0 .75.33c.16 0 .3-.03.43-.09s.23-.14.31-.25l.41.37c-.13.15-.29.27-.49.35-.19.08-.42.13-.66.13-.24 0-.46-.04-.66-.12a1.542 1.542 0 0 1-.87-.84c-.09-.2-.13-.42-.13-.67 0-.24.04-.46.12-.66.08-.2.2-.37.34-.51.15-.14.32-.25.52-.33a1.747 1.747 0 0 1 1.3.01c.21.09.38.21.51.38l-.43.38zM35.04 165.47c-.01-.08-.02-.17-.02-.26 0-.1-.01-.18-.01-.24H35c-.08.17-.21.3-.39.42-.18.12-.39.17-.61.17-.2 0-.37-.03-.52-.1a1.1 1.1 0 0 1-.36-.27 1.387 1.387 0 0 1-.28-.89v-1.91h.61v1.7c0 .13.01.25.03.36.02.12.06.22.11.3.05.09.12.16.21.21.09.05.21.08.35.08.25 0 .45-.09.6-.28.15-.18.23-.43.23-.74v-1.64h.61v2.42c0 .08 0 .19.01.32s.01.24.02.34h-.58zM37.11 165.47h-.61v-4.91h.61v4.91zM38.62 167.03h-.61v-4.64h.6v.48h.02c.1-.16.25-.3.44-.41.19-.11.42-.16.67-.16.23 0 .44.04.62.12.19.08.35.2.49.34.14.15.24.32.31.52a1.897 1.897 0 0 1 0 1.27 1.46 1.46 0 0 1-.8.87c-.19.08-.4.13-.64.13-.22 0-.43-.05-.62-.14-.19-.09-.35-.23-.46-.4h-.02v2.02zm2.03-3.1c0-.14-.02-.28-.06-.42s-.11-.25-.19-.36a.99.99 0 0 0-.32-.25c-.13-.06-.28-.09-.44-.09-.16 0-.3.03-.43.09s-.24.14-.33.25c-.09.1-.16.22-.21.36s-.07.28-.07.42a1.126 1.126 0 0 0 .28.77 1.003 1.003 0 0 0 .76.33c.17 0 .32-.03.44-.09a.99.99 0 0 0 .32-.25c.09-.1.15-.22.19-.36.04-.12.06-.26.06-.4zM43.48 162.89h-.82v1.6c0 .19.03.32.1.4.07.08.18.12.33.12.06 0 .12-.01.18-.02s.12-.03.18-.05l.02.5c-.07.03-.15.05-.24.06-.09.01-.18.02-.28.02-.29 0-.51-.08-.67-.24s-.23-.4-.23-.72v-1.67h-.59v-.5h.59v-.88h.6v.88h.82v.5zM44.66 161.28c0 .11-.04.21-.12.28-.08.07-.18.11-.29.11a.393.393 0 0 1-.4-.39c0-.11.04-.21.12-.28a.37.37 0 0 1 .28-.11c.11 0 .21.04.29.11.08.08.12.17.12.28zm-.1 4.19h-.61v-3.08h.61v3.08zM46.01 162.39c.01.08.02.17.02.26 0 .1.01.18.01.24h.02c.04-.08.09-.16.16-.23s.14-.13.23-.19c.09-.05.18-.1.29-.13.1-.03.21-.04.32-.04.2 0 .37.03.51.1s.26.16.36.27.17.24.21.4c.05.15.07.31.07.49v1.91h-.61v-1.71c0-.12-.01-.24-.03-.36a.977.977 0 0 0-.11-.3c-.05-.09-.12-.16-.21-.21s-.21-.08-.35-.08c-.24 0-.44.09-.59.28-.15.18-.23.43-.23.74v1.64h-.61v-2.42c0-.08 0-.19-.01-.32s-.01-.25-.02-.34h.57zM49.32 166c.13.15.3.27.5.36s.41.14.62.14c.2 0 .37-.03.51-.09s.25-.14.33-.24.15-.22.18-.36c.04-.14.06-.29.06-.45v-.4h-.01c-.11.17-.27.31-.46.4s-.4.14-.62.14c-.23 0-.45-.04-.64-.12a1.31 1.31 0 0 1-.49-.34c-.13-.14-.24-.31-.31-.5a1.795 1.795 0 0 1 0-1.24c.07-.2.18-.36.31-.51.13-.14.3-.26.49-.34.19-.08.4-.13.64-.13.22 0 .43.05.63.14.2.1.36.24.48.44h.01v-.49h.59v2.92c0 .23-.03.44-.08.65-.06.21-.15.39-.29.55-.13.16-.31.28-.53.38-.22.1-.48.14-.81.14-.27 0-.54-.05-.81-.15s-.5-.23-.7-.41l.4-.49zm.18-2.1a1.14 1.14 0 0 0 .27.75.972.972 0 0 0 .75.33c.16 0 .3-.03.43-.08a.979.979 0 0 0 .54-.57c.05-.13.08-.27.08-.42 0-.15-.03-.29-.08-.42s-.12-.24-.21-.34a1.003 1.003 0 0 0-.76-.33 1.003 1.003 0 0 0-.75.32.9.9 0 0 0-.2.34c-.05.13-.07.27-.07.42zM55.16 164.9h2.4v.57h-3.04v-4.6h2.95v.57h-2.31v1.38h2.17v.55h-2.17v1.53zM58.84 165.47h-.61v-4.91h.61v4.91zM60.46 161.28c0 .11-.04.21-.12.28-.08.07-.18.11-.29.11a.393.393 0 0 1-.4-.39c0-.11.04-.21.12-.28a.37.37 0 0 1 .28-.11c.11 0 .21.04.29.11.08.08.12.17.12.28zm-.1 4.19h-.61v-3.08h.61v3.08zM62.77 162.89h-.82v1.6c0 .19.03.32.1.4.07.08.18.12.33.12.06 0 .12-.01.18-.02s.12-.03.18-.05l.02.5c-.07.03-.15.05-.24.06-.09.01-.18.02-.28.02-.29 0-.51-.08-.67-.24s-.23-.4-.23-.72v-1.67h-.59v-.5h.59v-.88h.6v.88h.82v.5zM66.12 163.91v.1c0 .04 0 .07-.01.1h-2.45c0 .13.03.25.09.36.05.11.13.21.22.3.09.08.2.15.31.2.12.05.25.07.38.07.21 0 .39-.04.54-.14.15-.09.27-.2.36-.33l.43.34c-.16.22-.36.38-.58.48-.22.1-.47.15-.74.15-.23 0-.45-.04-.65-.12a1.497 1.497 0 0 1-.85-.84c-.08-.2-.12-.42-.12-.66 0-.24.04-.46.12-.66.08-.2.19-.37.34-.52.14-.14.31-.25.51-.33s.41-.12.63-.12.43.04.61.11.34.18.47.32c.13.14.23.31.3.5s.09.44.09.69zm-.63-.25c0-.12-.03-.23-.06-.34a.708.708 0 0 0-.43-.46.873.873 0 0 0-.37-.07c-.13 0-.25.02-.37.07-.11.04-.21.11-.3.18s-.15.17-.21.28-.09.22-.09.34h1.83zM71.38 163.93c0 .24-.04.46-.13.66s-.2.37-.35.52c-.15.14-.33.26-.53.34s-.42.12-.66.12-.45-.04-.66-.12c-.2-.08-.38-.19-.53-.34-.15-.15-.26-.32-.35-.52s-.13-.42-.13-.66c0-.24.04-.46.13-.65.08-.2.2-.37.35-.51.15-.14.32-.25.53-.33.2-.08.42-.12.66-.12s.45.04.66.12.38.19.53.33c.15.14.27.31.35.51.08.19.13.41.13.65zm-.64 0c0-.15-.02-.29-.07-.42s-.11-.25-.2-.35a.963.963 0 0 0-.76-.33c-.17 0-.31.03-.44.09s-.24.14-.32.24c-.09.1-.15.22-.2.35-.05.13-.07.27-.07.42s.02.29.07.42.11.25.2.36c.09.1.19.19.32.25s.27.09.44.09.31-.03.44-.09.24-.14.32-.25c.09-.1.15-.22.2-.36.05-.13.07-.27.07-.42zM72.61 162.39c.01.08.02.17.02.26 0 .1.01.18.01.24h.02c.04-.08.09-.16.16-.23s.14-.13.23-.19c.09-.05.18-.1.29-.13.1-.03.21-.04.32-.04.2 0 .37.03.51.1s.26.16.36.27.17.24.21.4c.05.15.07.31.07.49v1.91h-.61v-1.71c0-.12-.01-.24-.03-.36a.977.977 0 0 0-.11-.3c-.05-.09-.12-.16-.21-.21s-.21-.08-.35-.08c-.24 0-.44.09-.59.28-.15.18-.23.43-.23.74v1.64h-.61v-2.42c0-.08 0-.19-.01-.32s-.01-.25-.02-.34h.57zM77.77 162.86c.07-.15.2-.28.38-.39.18-.11.38-.16.6-.16.2 0 .37.03.51.1s.26.16.36.27.17.24.21.4c.05.15.07.31.07.49v1.91h-.61v-1.71c0-.13-.01-.25-.03-.36a.977.977 0 0 0-.11-.3.53.53 0 0 0-.21-.21.697.697 0 0 0-.35-.08c-.24 0-.44.09-.6.28-.16.18-.23.43-.23.74v1.63h-.61v-4.91h.61v2.3h.01zM83.64 163.91v.1c0 .04 0 .07-.01.1h-2.45c0 .13.03.25.09.36.05.11.13.21.22.3.09.08.2.15.31.2.12.05.25.07.38.07.21 0 .39-.04.54-.14.15-.09.27-.2.36-.33l.43.34c-.16.22-.36.38-.58.48-.22.1-.47.15-.74.15-.23 0-.45-.04-.65-.12a1.497 1.497 0 0 1-.85-.84c-.08-.2-.12-.42-.12-.66 0-.24.04-.46.12-.66.08-.2.19-.37.34-.52.14-.14.31-.25.51-.33s.41-.12.63-.12.43.04.61.11.34.18.47.32c.13.14.23.31.3.5s.09.44.09.69zm-.62-.25c0-.12-.03-.23-.06-.34a.708.708 0 0 0-.43-.46.873.873 0 0 0-.37-.07c-.13 0-.25.02-.37.07-.11.04-.21.11-.3.18s-.15.17-.21.28-.09.22-.09.34h1.83zM84.32 162.74c0-.13-.01-.25-.02-.34h.58c.01.08.02.17.02.27s.01.19.01.25h.02c.09-.18.21-.33.38-.44a.999.999 0 0 1 .8-.14l-.03.56c-.09-.02-.18-.03-.28-.03-.15 0-.27.03-.38.08-.11.05-.2.13-.27.22s-.12.2-.16.31c-.04.12-.05.24-.05.37v1.62h-.61v-2.42c-.01-.08-.01-.18-.01-.31zM89.89 163.48c0-.23-.07-.4-.21-.51a.86.86 0 0 0-.55-.17c-.17 0-.34.03-.49.1-.15.07-.28.15-.39.26l-.32-.39c.15-.14.34-.25.56-.34.22-.08.45-.12.7-.12.22 0 .41.03.57.09a1.03 1.03 0 0 1 .63.64c.05.15.08.31.08.47v1.34c0 .1 0 .21.01.33.01.11.02.21.04.28h-.55c-.03-.15-.05-.29-.05-.44h-.02c-.11.16-.25.29-.43.38s-.37.14-.61.14c-.12 0-.25-.02-.38-.05s-.25-.09-.36-.16c-.11-.07-.2-.17-.27-.29s-.11-.27-.11-.45c0-.23.06-.42.19-.55.13-.14.29-.24.49-.31s.43-.12.69-.14c.26-.02.51-.03.77-.03v-.08zm-.15.52c-.15 0-.31.01-.47.02-.16.01-.31.04-.44.08s-.24.1-.33.18c-.09.08-.13.18-.13.31 0 .09.02.17.06.23a.536.536 0 0 0 .35.23c.07.02.15.02.23.02.29 0 .51-.09.66-.26s.23-.39.23-.65V164h-.16zM91.93 164.98v.49h-.59v-4.91h.61v2.29h.02c.1-.15.25-.28.43-.39.19-.11.41-.16.66-.16.23 0 .44.04.63.12.19.08.35.2.49.34.14.15.24.32.31.52a1.897 1.897 0 0 1 0 1.27 1.46 1.46 0 0 1-.8.87c-.19.08-.4.13-.64.13-.22 0-.43-.05-.63-.15s-.36-.24-.48-.43h-.01zm2.05-1.05c0-.14-.02-.28-.06-.41-.04-.13-.11-.25-.19-.36a.99.99 0 0 0-.32-.25c-.13-.06-.28-.09-.44-.09-.16 0-.3.03-.43.09s-.24.14-.33.25-.16.22-.21.36-.07.27-.07.42a1.126 1.126 0 0 0 .28.77 1.003 1.003 0 0 0 .76.33c.17 0 .32-.03.44-.09a.99.99 0 0 0 .32-.25c.09-.1.15-.22.19-.36.04-.13.06-.27.06-.41zM97.75 164.98c-.12.19-.28.33-.48.43-.2.1-.41.15-.63.15-.24 0-.45-.04-.64-.13-.19-.08-.35-.2-.49-.35s-.24-.32-.31-.52-.11-.41-.11-.64c0-.23.04-.44.11-.63.07-.2.18-.37.31-.52.14-.15.3-.26.49-.34.19-.08.4-.12.63-.12.25 0 .47.05.66.16.19.11.33.23.44.39h.01v-2.29h.61v4.91h-.59v-.49h-.01zm-2.02-1.05c0 .14.02.28.06.41.04.13.11.25.19.36.09.1.19.19.32.25s.27.09.44.09a1.003 1.003 0 0 0 .76-.33 1.126 1.126 0 0 0 .28-.77 1.158 1.158 0 0 0-.28-.78.905.905 0 0 0-.33-.25c-.13-.06-.27-.09-.43-.09-.17 0-.32.03-.44.09s-.23.14-.32.25a.89.89 0 0 0-.19.36c-.04.13-.06.27-.06.41zM102.37 163.93c0 .24-.04.46-.13.66s-.2.37-.35.52c-.15.14-.33.26-.53.34s-.42.12-.66.12-.45-.04-.66-.12c-.2-.08-.38-.19-.53-.34-.15-.15-.26-.32-.35-.52s-.13-.42-.13-.66c0-.24.04-.46.13-.65.08-.2.2-.37.35-.51.15-.14.32-.25.53-.33.2-.08.42-.12.66-.12s.45.04.66.12.38.19.53.33c.15.14.27.31.35.51.09.19.13.41.13.65zm-.63 0c0-.15-.02-.29-.07-.42s-.11-.25-.2-.35a.963.963 0 0 0-.76-.33c-.17 0-.31.03-.44.09s-.24.14-.32.24c-.09.1-.15.22-.2.35-.05.13-.07.27-.07.42s.02.29.07.42.11.25.2.36c.09.1.19.19.32.25s.27.09.44.09.31-.03.44-.09.24-.14.32-.25c.09-.1.15-.22.2-.36.04-.13.07-.27.07-.42zM104.03 162.48c.17-.11.37-.17.61-.17.21 0 .39.05.56.14.17.1.3.25.39.47.1-.2.25-.35.44-.46.19-.11.39-.16.61-.16.2 0 .37.03.51.1s.26.16.36.27.17.24.21.4c.05.15.07.31.07.49v1.91h-.61v-1.71c0-.12-.01-.24-.03-.36a.977.977 0 0 0-.11-.3c-.05-.09-.12-.16-.21-.21s-.2-.08-.33-.08a.687.687 0 0 0-.6.32c-.06.09-.11.2-.14.31-.03.12-.04.24-.04.36v1.66h-.61v-1.83c0-.12-.01-.23-.03-.33a.682.682 0 0 0-.11-.26.551.551 0 0 0-.2-.17.684.684 0 0 0-.31-.06c-.23 0-.41.09-.56.28-.15.18-.22.43-.22.74v1.64h-.61v-2.42c0-.08 0-.19-.01-.32s-.01-.25-.02-.34h.58c.01.08.02.17.02.26 0 .1.01.18.01.24h.02c.06-.15.19-.29.36-.41zM111.53 163.91v.1c0 .04 0 .07-.01.1h-2.45c0 .13.03.25.09.36.05.11.13.21.22.3.09.08.2.15.31.2.12.05.25.07.38.07.21 0 .39-.04.54-.14.15-.09.27-.2.36-.33l.43.34c-.16.22-.36.38-.58.48-.22.1-.47.15-.74.15-.23 0-.45-.04-.65-.12a1.497 1.497 0 0 1-.85-.84c-.08-.2-.12-.42-.12-.66 0-.24.04-.46.12-.66.08-.2.19-.37.34-.52.14-.14.31-.25.51-.33s.41-.12.63-.12.43.04.61.11.34.18.47.32c.13.14.23.31.3.5s.09.44.09.69zm-.62-.25c0-.12-.03-.23-.06-.34a.708.708 0 0 0-.43-.46.873.873 0 0 0-.37-.07c-.13 0-.25.02-.37.07-.11.04-.21.11-.3.18s-.15.17-.21.28-.09.22-.09.34h1.83zM112.76 162.39c.01.08.02.17.02.26 0 .1.01.18.01.24h.02c.04-.08.09-.16.16-.23s.14-.13.23-.19c.09-.05.18-.1.29-.13.1-.03.21-.04.32-.04.2 0 .37.03.51.1s.26.16.36.27.17.24.21.4c.05.15.07.31.07.49v1.91h-.61v-1.71c0-.12-.01-.24-.03-.36a.977.977 0 0 0-.11-.3c-.05-.09-.12-.16-.21-.21s-.21-.08-.35-.08c-.24 0-.44.09-.59.28-.15.18-.23.43-.23.74v1.64h-.61v-2.42c0-.08 0-.19-.01-.32s-.01-.25-.02-.34h.57zM116.58 165.08c0 .11-.04.21-.12.3s-.19.13-.31.13-.22-.04-.31-.13a.41.41 0 0 1-.01-.59c.08-.08.19-.13.31-.13s.23.04.31.12.13.18.13.3zM119.29 165.47h-.64v-4.6h1.47c.22 0 .43.02.63.07s.37.12.52.22.27.23.35.39c.09.16.13.36.13.59 0 .34-.1.61-.31.82-.21.21-.48.34-.81.4l1.29 2.11h-.78l-1.17-2.04h-.69v2.04zm0-2.58h.74c.15 0 .29-.01.42-.04s.24-.07.34-.13c.1-.06.17-.13.23-.23.06-.09.08-.21.08-.35s-.03-.25-.08-.35a.661.661 0 0 0-.22-.22.81.81 0 0 0-.33-.12c-.13-.02-.26-.04-.4-.04h-.79v1.48zM125.24 163.91v.1c0 .04 0 .07-.01.1h-2.45c0 .13.03.25.09.36.05.11.13.21.22.3.09.08.2.15.31.2.12.05.25.07.38.07.21 0 .39-.04.54-.14.15-.09.27-.2.36-.33l.43.34c-.16.22-.36.38-.58.48-.22.1-.47.15-.74.15-.23 0-.45-.04-.65-.12a1.497 1.497 0 0 1-.85-.84c-.08-.2-.12-.42-.12-.66 0-.24.04-.46.12-.66.08-.2.19-.37.34-.52.14-.14.31-.25.51-.33s.41-.12.63-.12.43.04.61.11.34.18.47.32c.13.14.23.31.3.5s.09.44.09.69zm-.62-.25c0-.12-.03-.23-.06-.34a.708.708 0 0 0-.43-.46.873.873 0 0 0-.37-.07c-.13 0-.25.02-.37.07-.11.04-.21.11-.3.18s-.15.17-.21.28-.09.22-.09.34h1.83zM127.59 163.17c-.07-.11-.17-.2-.29-.28s-.27-.11-.42-.11c-.07 0-.14.01-.21.02-.07.02-.13.04-.19.07-.05.03-.1.07-.13.12-.03.05-.05.11-.05.18 0 .13.06.23.18.29.12.06.29.12.53.17.15.04.28.08.41.12.13.05.23.11.33.18.09.07.17.16.22.26.05.1.08.22.08.35 0 .18-.03.34-.1.46-.07.13-.16.23-.28.31s-.25.14-.39.17c-.15.04-.3.05-.45.05-.23 0-.46-.04-.69-.14-.22-.09-.41-.23-.56-.42l.44-.37c.08.12.2.22.34.31s.3.12.48.12c.08 0 .15-.01.22-.02.07-.02.14-.04.19-.08.06-.03.1-.08.14-.14.03-.06.05-.13.05-.21a.35.35 0 0 0-.2-.32c-.14-.07-.34-.13-.6-.2l-.31-.09c-.11-.04-.2-.09-.29-.15a.69.69 0 0 1-.29-.6c0-.16.03-.31.1-.42.07-.12.15-.22.26-.29.11-.08.23-.13.37-.17.14-.04.28-.05.43-.05.22 0 .43.04.64.13s.36.21.48.38l-.44.37zM130.81 165.47c-.01-.08-.02-.17-.02-.26 0-.1-.01-.18-.01-.24h-.01c-.08.17-.21.3-.39.42-.18.12-.39.17-.61.17-.2 0-.37-.03-.52-.1a1.1 1.1 0 0 1-.36-.27 1.387 1.387 0 0 1-.28-.89v-1.91h.61v1.7c0 .13.01.25.03.36.02.12.06.22.11.3.05.09.12.16.21.21.09.05.21.08.35.08.25 0 .45-.09.6-.28.15-.18.23-.43.23-.74v-1.64h.61v2.42c0 .08 0 .19.01.32s.01.24.02.34h-.58zM132.88 165.47h-.61v-4.91h.61v4.91zM135.29 162.89h-.82v1.6c0 .19.03.32.1.4.07.08.18.12.33.12.06 0 .12-.01.18-.02s.12-.03.18-.05l.02.5c-.07.03-.15.05-.24.06-.09.01-.18.02-.28.02-.29 0-.51-.08-.67-.24s-.23-.4-.23-.72v-1.67h-.59v-.5h.59v-.88h.6v.88h.82v.5zM137.42 163.17c-.07-.11-.17-.2-.29-.28s-.27-.11-.42-.11c-.07 0-.14.01-.21.02-.07.02-.13.04-.19.07-.05.03-.1.07-.13.12-.03.05-.05.11-.05.18 0 .13.06.23.18.29.12.06.29.12.53.17.15.04.28.08.41.12.13.05.23.11.33.18.09.07.17.16.22.26.05.1.08.22.08.35 0 .18-.03.34-.1.46-.07.13-.16.23-.28.31s-.25.14-.39.17c-.15.04-.3.05-.45.05-.23 0-.46-.04-.69-.14-.22-.09-.41-.23-.56-.42l.44-.37c.08.12.2.22.34.31s.3.12.48.12c.08 0 .15-.01.22-.02.07-.02.14-.04.19-.08.06-.03.1-.08.14-.14.03-.06.05-.13.05-.21a.35.35 0 0 0-.2-.32c-.14-.07-.34-.13-.6-.2l-.31-.09c-.11-.04-.2-.09-.29-.15a.69.69 0 0 1-.29-.6c0-.16.03-.31.1-.42.07-.12.15-.22.26-.29.11-.08.23-.13.37-.17.14-.04.28-.05.43-.05.22 0 .43.04.64.13s.36.21.48.38l-.44.37zM140.91 162.48c.17-.11.37-.17.61-.17.21 0 .39.05.56.14.17.1.3.25.39.47.1-.2.25-.35.44-.46.19-.11.39-.16.61-.16.2 0 .37.03.51.1s.26.16.36.27.17.24.21.4c.05.15.07.31.07.49v1.91h-.61v-1.71c0-.12-.01-.24-.03-.36a.977.977 0 0 0-.11-.3c-.05-.09-.12-.16-.21-.21s-.2-.08-.33-.08a.687.687 0 0 0-.6.32c-.06.09-.11.2-.14.31-.03.12-.04.24-.04.36v1.66h-.61v-1.83c0-.12-.01-.23-.03-.33a.682.682 0 0 0-.11-.26.551.551 0 0 0-.2-.17.684.684 0 0 0-.31-.06c-.23 0-.41.09-.56.28-.15.18-.22.43-.22.74v1.64h-.61v-2.42c0-.08 0-.19-.01-.32s-.01-.25-.02-.34h.58c.01.08.02.17.02.26 0 .1.01.18.01.24h.02c.07-.15.19-.29.36-.41zM147.46 163.48c0-.23-.07-.4-.21-.51a.86.86 0 0 0-.55-.17c-.17 0-.34.03-.49.1-.15.07-.28.15-.39.26l-.32-.39c.15-.14.34-.25.56-.34.22-.08.45-.12.7-.12.22 0 .41.03.57.09a1.03 1.03 0 0 1 .63.64c.05.15.08.31.08.47v1.34c0 .1 0 .21.01.33.01.11.02.21.04.28h-.55c-.03-.15-.05-.29-.05-.44h-.02c-.11.16-.25.29-.43.38s-.37.14-.61.14c-.12 0-.25-.02-.38-.05s-.25-.09-.36-.16c-.11-.07-.2-.17-.27-.29s-.11-.27-.11-.45c0-.23.06-.42.19-.55.13-.14.29-.24.49-.31s.43-.12.69-.14c.26-.02.51-.03.77-.03v-.08zm-.15.52c-.15 0-.31.01-.47.02-.16.01-.31.04-.44.08s-.24.1-.33.18c-.09.08-.13.18-.13.31 0 .09.02.17.06.23a.536.536 0 0 0 .35.23c.07.02.15.02.23.02.29 0 .51-.09.66-.26s.23-.39.23-.65V164h-.16zM150.07 164.81h.01l.85-2.42h.65l-1.49 3.81c-.05.13-.11.25-.17.35a.925.925 0 0 1-.5.43c-.11.04-.24.06-.39.06-.06 0-.13 0-.2-.01a1.18 1.18 0 0 1-.2-.04l.06-.54c.1.04.21.05.31.05.16 0 .28-.04.36-.13.08-.09.15-.21.21-.38l.19-.51-1.32-3.08h.68l.95 2.41zM154.92 165.47h-.66l-1.25-3.08h.67l.9 2.42h.01l.91-2.42h.65l-1.23 3.08zM158.49 163.48c0-.23-.07-.4-.21-.51s-.32-.17-.55-.17c-.17 0-.34.03-.49.1-.15.07-.28.15-.39.26l-.32-.39c.15-.14.34-.25.56-.34.22-.08.45-.12.7-.12.22 0 .41.03.57.09a1.03 1.03 0 0 1 .63.64c.05.15.08.31.08.47v1.34c0 .1 0 .21.01.33.01.11.02.21.04.28h-.55c-.04-.15-.05-.29-.05-.44h-.02c-.11.16-.25.29-.43.38s-.37.14-.61.14c-.12 0-.25-.02-.38-.05-.13-.03-.25-.09-.36-.16a.838.838 0 0 1-.27-.29.881.881 0 0 1-.11-.45c0-.23.06-.42.19-.55.12-.14.29-.24.49-.31s.43-.12.69-.14c.25-.02.51-.03.77-.03v-.08zm-.15.52c-.15 0-.31.01-.47.02-.16.01-.31.04-.44.08s-.24.1-.33.18c-.09.08-.13.18-.13.31a.43.43 0 0 0 .21.38c.07.04.13.07.2.08.07.02.15.02.23.02.29 0 .51-.09.66-.26s.23-.39.23-.65V164h-.16zM159.93 162.74c0-.13-.01-.25-.02-.34h.58c.01.08.01.17.02.27 0 .1.01.19.01.25h.02c.09-.18.21-.33.38-.44a.999.999 0 0 1 .8-.14l-.03.56c-.09-.02-.18-.03-.28-.03-.15 0-.28.03-.38.08-.11.05-.2.13-.27.22s-.12.2-.16.31c-.04.12-.05.24-.05.37v1.62h-.61v-2.42c0-.08-.01-.18-.01-.31z"/><path class="st0" d="M163.29 164.81h.01l.85-2.42h.65l-1.49 3.81c-.05.13-.11.25-.17.35a.925.925 0 0 1-.5.43c-.11.04-.24.06-.39.06-.07 0-.13 0-.2-.01s-.13-.02-.2-.04l.06-.54c.1.04.21.05.3.05.16 0 .28-.04.36-.13.08-.09.15-.21.21-.38l.2-.51-1.32-3.08h.68l.95 2.41zM165.75 165.08c0 .11-.04.21-.12.3-.08.09-.19.13-.31.13s-.22-.04-.31-.13a.41.41 0 0 1-.01-.59c.08-.08.19-.13.31-.13.13 0 .23.04.31.12.09.09.13.18.13.3z"/></svg>