<svg id="Layer_1" xmlns="http://www.w3.org/2000/svg" viewBox="0 0 300 250"><style>.st0{fill:#fff}</style><path class="st0" d="M26.02 24.18c0 .26-.21.47-.48.47s-.48-.21-.48-.47.22-.47.49-.47c.26 0 .47.21.47.47zm-.85 0c0 .21.16.38.37.38.2 0 .36-.17.36-.37 0-.21-.15-.38-.36-.38a.37.37 0 0 0-.37.37zm.29.25h-.11v-.47c.04-.01.1-.01.18-.01.09 0 .13.01.16.04.03.02.05.05.05.1 0 .06-.04.09-.1.11v.01c.05.01.07.05.08.11.01.07.03.1.03.11h-.11c-.01-.02-.02-.06-.04-.11-.01-.05-.04-.07-.1-.07h-.05v.18zm.01-.27h.05c.06 0 .11-.02.11-.07 0-.04-.03-.07-.1-.07-.03 0-.05 0-.06.01v.13zM33.06 22.55c-2.34 0-3.47-1.71-3.47-3.35 0-1.89 1.36-3.42 3.51-3.42.73 0 1.48.22 2.08.73l-.66.93c-.41-.32-.85-.44-1.38-.44-1.14 0-1.99.79-1.99 2.16 0 1.24.78 2.24 2.03 2.24.53 0 .99-.16 1.4-.52l.61.93c-.58.5-1.37.74-2.13.74M38.8 22.55c-1.96 0-3.4-1.48-3.4-3.42 0-1.99 1.58-3.35 3.4-3.35 1.83 0 3.42 1.35 3.42 3.34 0 1.95-1.45 3.43-3.42 3.43m1.84-3.42c0-1.19-.58-2.22-1.84-2.22-1.23 0-1.84 1.03-1.84 2.21 0 1.22.57 2.31 1.84 2.31s1.84-1.07 1.84-2.31v.01zM46.19 22.55c-1.96 0-3.41-1.48-3.41-3.42 0-1.99 1.58-3.35 3.41-3.35s3.42 1.35 3.42 3.34c0 1.95-1.45 3.43-3.42 3.43m1.84-3.42c0-1.19-.58-2.22-1.84-2.22-1.23 0-1.84 1.03-1.84 2.21 0 1.22.57 2.31 1.84 2.31s1.84-1.07 1.84-2.31v.01zM50.38 22.39V12.9l1.47.81v8.68zM55.24 22.59c-1.66 0-2.45-.8-2.45-.8l.66-.86s.75.5 1.75.5c.48 0 .88-.33.88-.66s-.15-.61-.58-.83c-.44-.23-.93-.46-1.31-.65s-1.23-.76-1.23-1.87c0-1.13 1.14-1.75 2.3-1.75 1.11 0 1.96.73 1.96.73l-.57.87s-.64-.45-1.34-.45c-.7 0-.85.45-.85.64 0 .18.07.48.52.71.45.24.91.49 1.58.86.66.37 1.03 1.01 1.03 1.72-.01.72-.7 1.84-2.35 1.84M61.56 22.55c-2.34 0-3.47-1.71-3.47-3.35 0-1.89 1.36-3.42 3.51-3.42.73 0 1.48.22 2.08.73l-.66.93c-.42-.32-.85-.44-1.38-.44-1.14 0-1.99.79-1.99 2.16 0 1.24.78 2.24 2.03 2.24.53 0 .99-.16 1.4-.52l.61.93c-.58.5-1.38.74-2.13.74M68.8 21.63s-.74.91-2.15.91c-1.66 0-2.46-1.2-2.46-2.42v-4.2h1.47v4.13c0 .71.56 1.31 1.42 1.31.76 0 1.5-.9 1.5-.9v-4.54h1.47v6.45l-1.25-.74zM71.36 22.39V12.9l1.47.81v8.68zM77.69 22.55c-1.3 0-2.04-.73-2.04-.73v3.22h-1.48V15.8l1.48.78s.8-.81 2.12-.81c1.39 0 3.13 1.07 3.13 3.47-.01 2.39-1.71 3.31-3.21 3.31m-.09-5.64c-1.26 0-1.99 1.18-1.99 1.18v2.44s.83.94 2.04.94c1.4 0 1.71-1.68 1.71-2.27 0-.59-.13-2.29-1.76-2.29M84.76 22.56h-.93c-1.17 0-1.56-1.13-1.56-1.87v-3.8H81.1v-.97h1.17v-2.85h1.46v2.85h1.5v.97h-1.48v3.44c0 .38-.07.99.58.99h1.06l-.63 1.24zM87.12 14.81c-.53 0-.97-.44-.97-.97s.44-.97.97-.97.97.43.97.97c0 .53-.44.97-.97.97m-.73 1.12h1.44v6.46h-1.44v-6.46zM93.66 22.39v-4.13c0-.71-.56-1.31-1.42-1.31-.76 0-1.6.9-1.6.9v4.54h-1.47v-6.45l1.25.74s.85-.91 2.25-.91c1.66 0 2.46 1.2 2.46 2.42v4.2h-1.47zM99.62 25.39c-.23 0-1.95-.03-1.95-.03l.03-1.18h1.45c1.4 0 2.2-.76 2.2-1.79v-.58s-.77.73-2.07.73c-1.5 0-3.21-.92-3.21-3.31 0-2.4 1.74-3.47 3.13-3.47 1.32 0 2.12.81 2.12.81l1.48-.74v6.42c0 1.74-1.15 3.14-3.18 3.14m1.74-7.31s-.73-1.18-1.99-1.18c-1.63 0-1.76 1.71-1.76 2.29 0 .58.3 2.27 1.71 2.27 1.21 0 2.04-.94 2.04-.94v-2.44zM16.43 27.29v-4.22l.83-.83 2.39 2.39v.8zM14.71 19.45L12 22.16l3.31 1.24 3.96-3.95zM16.04 15.67h-3.48l1.11 3.23h5.6zM19.66 13.95l-2.7-2.69-1.26 3.29 3.96 3.96zM27.81 22.67h-3.99l-3.22-3.22h5.59zM24.55 14.95l3.62.94-3.01 3.01H20.6zM20.21 12.92L23.43 11v4.28l-3.22 3.23zM24.31 23.95l-1.03 3.52-5.63-5.63 2.28-2.27zM105 16.36c0 .38-.31.68-.7.68-.39 0-.7-.3-.7-.68 0-.38.31-.68.71-.68.38 0 .69.3.69.68zm-1.23 0c0 .3.23.54.53.54.29 0 .52-.24.52-.54 0-.3-.22-.55-.53-.55a.55.55 0 0 0-.52.55zm.42.36h-.16v-.68c.06-.01.15-.02.26-.02.13 0 .19.02.23.05.04.03.07.08.07.15 0 .08-.06.14-.14.16v.01c.07.02.1.08.12.17.02.1.04.14.05.17h-.17c-.02-.02-.03-.08-.05-.17-.01-.07-.05-.1-.14-.1h-.08v.26zm.01-.39h.07c.09 0 .16-.03.16-.1 0-.06-.05-.1-.15-.1-.04 0-.07 0-.09.01v.19z"/></svg>