<svg id="Layer_1" xmlns="http://www.w3.org/2000/svg" viewBox="0 0 300 250"><style>.st0{fill:#fff}</style><path class="st0" d="M23.49 23.65c0 .24-.19.43-.44.43-.24 0-.44-.19-.44-.43s.2-.43.44-.43c.25 0 .44.19.44.43zm-.77 0c0 .19.14.34.33.34.18 0 .33-.15.33-.34 0-.19-.14-.34-.33-.34-.18 0-.33.15-.33.34zm.27.22h-.1v-.43c.04-.01.09-.01.16-.01.08 0 .12.01.15.03.03.02.04.05.04.09 0 .05-.04.09-.09.1v.01c.04.01.06.05.08.1.01.06.02.09.03.1h-.1a.405.405 0 0 1-.03-.1c-.01-.04-.03-.06-.09-.06h-.05v.17zm0-.24h.05c.05 0 .1-.02.1-.06 0-.04-.03-.06-.09-.06-.03 0-.04 0-.05.01v.11zM29.88 22.16c-2.13 0-3.15-1.55-3.15-3.04 0-1.72 1.24-3.1 3.18-3.1.66 0 1.35.2 1.89.66l-.6.84c-.37-.29-.77-.39-1.25-.39-1.03 0-1.8.72-1.8 1.96 0 1.13.71 2.03 1.84 2.03.48 0 .9-.14 1.27-.47l.55.84c-.52.46-1.25.67-1.93.67M35.08 22.16c-1.78 0-3.09-1.34-3.09-3.1 0-1.8 1.43-3.04 3.09-3.04s3.1 1.22 3.1 3.03c0 1.77-1.31 3.11-3.1 3.11m1.67-3.1c0-1.08-.53-2.02-1.67-2.02-1.12 0-1.67.94-1.67 2 0 1.11.52 2.09 1.67 2.09s1.67-.97 1.67-2.09v.02zM41.78 22.16c-1.78 0-3.09-1.34-3.09-3.1 0-1.8 1.43-3.04 3.09-3.04s3.1 1.22 3.1 3.03c0 1.77-1.31 3.11-3.1 3.11m1.67-3.1c0-1.08-.53-2.02-1.67-2.02-1.12 0-1.67.94-1.67 2 0 1.11.52 2.09 1.67 2.09s1.67-.97 1.67-2.09v.02zM45.58 22.02v-8.6l1.33.73v7.87zM49.98 22.2c-1.5 0-2.22-.72-2.22-.72l.6-.78s.68.46 1.58.46c.43 0 .79-.3.79-.6s-.13-.55-.53-.76c-.4-.21-.84-.42-1.19-.59-.35-.17-1.12-.69-1.12-1.7 0-1.02 1.03-1.58 2.09-1.58 1.01 0 1.78.66 1.78.66l-.52.79s-.58-.41-1.21-.41c-.64 0-.77.41-.77.58 0 .17.06.43.47.65.41.22.83.44 1.43.78s.94.91.94 1.56c.01.65-.61 1.66-2.12 1.66M55.71 22.16c-2.13 0-3.15-1.55-3.15-3.04 0-1.72 1.24-3.1 3.18-3.1.66 0 1.34.2 1.89.66l-.6.84c-.37-.29-.77-.39-1.25-.39-1.03 0-1.8.72-1.8 1.96 0 1.13.71 2.03 1.84 2.03.48 0 .9-.14 1.27-.47l.55.84c-.52.46-1.24.67-1.93.67M62.28 21.33s-.67.83-1.95.83c-1.5 0-2.23-1.09-2.23-2.2v-3.81h1.33v3.75c0 .65.51 1.19 1.29 1.19.69 0 1.36-.82 1.36-.82v-4.12h1.33V22l-1.13-.67zM64.6 22.02v-8.6l1.33.73v7.87zM70.34 22.16c-1.18 0-1.85-.66-1.85-.66v2.92h-1.35v-8.38l1.35.71s.72-.73 1.92-.73c1.26 0 2.83.97 2.83 3.15.01 2.16-1.54 2.99-2.9 2.99m-.08-5.11c-1.14 0-1.8 1.07-1.8 1.07v2.21s.76.85 1.85.85c1.27 0 1.55-1.53 1.55-2.05-.01-.53-.13-2.08-1.6-2.08M76.75 22.18h-.84c-1.06 0-1.42-1.02-1.42-1.69v-3.45h-1.06v-.88h1.06v-2.58h1.32v2.58h1.36v.88h-1.35v3.12c0 .35-.06.9.53.9h.96l-.56 1.12zM78.89 15.15c-.48 0-.88-.4-.88-.88s.4-.88.88-.88.88.39.88.88c0 .48-.4.88-.88.88m-.66 1.01h1.31v5.86h-1.31v-5.86zM84.82 22.02v-3.75c0-.65-.5-1.19-1.28-1.19-.69 0-1.45.82-1.45.82v4.12h-1.33v-5.85l1.13.67s.77-.83 2.04-.83c1.5 0 2.23 1.09 2.23 2.2v3.81h-1.34zM90.23 24.74c-.2 0-1.77-.02-1.77-.02l.02-1.07h1.31c1.27 0 1.99-.68 1.99-1.62v-.53s-.7.66-1.87.66c-1.36 0-2.91-.83-2.91-3s1.57-3.15 2.83-3.15c1.2 0 1.92.73 1.92.73l1.35-.67v5.82c.01 1.58-1.03 2.85-2.87 2.85m1.57-6.62s-.66-1.07-1.8-1.07c-1.48 0-1.6 1.55-1.6 2.08s.28 2.05 1.55 2.05c1.09 0 1.85-.85 1.85-.85v-2.21zM14.8 26.46v-3.83l.75-.75 2.17 2.17v.73zM13.24 19.35l-2.46 2.46 3.01 1.13 3.58-3.59zM14.45 15.93h-3.17l1.02 2.92h5.07zM17.72 14.37l-2.44-2.44-1.14 2.99 3.58 3.58zM25.11 22.28H21.5l-2.92-2.93h5.07zM22.16 15.27l3.28.85-2.73 2.74h-4.13zM18.22 13.43l2.93-1.74v3.89l-2.93 2.92zM21.94 23.43l-.93 3.2-5.11-5.1 2.07-2.07zM95.1 16.56c0 .35-.28.62-.63.62s-.64-.27-.64-.62.28-.62.64-.62c.35 0 .63.27.63.62zm-1.11 0a.474.474 0 1 0 .95 0c0-.27-.2-.5-.48-.5-.26 0-.47.23-.47.5zm.38.32h-.14v-.62c.06-.01.14-.02.24-.02.12 0 .17.02.21.05.04.03.06.07.06.13 0 .08-.06.12-.13.15v.01c.06.02.09.07.11.15.02.09.03.13.05.15h-.15c-.02-.02-.03-.08-.05-.15-.01-.06-.05-.09-.13-.09h-.07v.24zm.01-.35h.07c.08 0 .14-.03.14-.09s-.04-.09-.13-.09c-.04 0-.06 0-.08.01v.17z"/><g><path class="st0" d="M98.77 15.58h4.16v.98h-3.04v1.6h2.88v.94h-2.88v1.77h3.2v.99h-4.32v-6.28zM106.3 15.58h1.12v5.28h2.67v.99h-3.79v-6.27zM112.95 15.58h1.12v6.28h-1.12v-6.28zM118.84 16.56h-1.92v-.98h4.96v.98h-1.92v5.3h-1.12v-5.3zM124.73 15.58h4.16v.98h-3.04v1.6h2.88v.94h-2.88v1.77h3.2v.99h-4.32v-6.28z"/></g></svg>