<?xml version="1.0" encoding="utf-8"?>
<!-- Generator: Adobe Illustrator 25.4.1, SVG Export Plug-In . SVG Version: 6.00 Build 0)  -->
<svg version="1.1" id="Layer_1" xmlns="http://www.w3.org/2000/svg" xmlns:xlink="http://www.w3.org/1999/xlink" x="0px" y="0px"
	 viewBox="0 0 728 90" style="enable-background:new 0 0 728 90;" xml:space="preserve">
<style type="text/css">
	.st0{fill:#FFFFFF;}
</style>
<g>
	<path class="st0" d="M26.98,40.3c-0.52-0.27-0.88-0.49-1.32-0.49s-0.8,0.55-1.04,1.68h-0.36l-0.19-7.44h0.41
		c0.96,5.19,4.45,7.03,7.2,7.03c2.09,0,3.68-1.43,3.68-3.74c0-2.5-2.17-3.49-5.03-4.37c-2.91-0.91-6.1-1.76-6.1-5.74
		c0-2.88,2.2-5.08,5-5.08c1.54,0,2.69,0.44,3.82,1.24c0.36,0.25,0.63,0.47,1.1,0.47c0.44,0,0.74-0.44,1.1-1.68h0.36l0.19,7.39h-0.41
		c-1.07-5.16-3.82-7-6.1-7c-2.2,0-3.63,1.65-3.63,3.63c0,1.95,0.71,3.1,4.94,4.31c3.93,1.13,6.04,2.42,6.04,5.79
		c0,3.19-2.25,5.22-5.08,5.22C29.23,41.51,27.94,40.79,26.98,40.3z"/>
	<path class="st0" d="M39.29,38.04v-7.91h-1.87v-0.33c1.76-0.3,3.21-1.51,3.49-5.05h0.36v4.94h3.71v0.44h-3.71v8.05
		c0,1.73,0.63,2.58,1.87,2.58c1.13,0,2.03-1.24,2.14-3.65h0.38c0,2.8-1.24,4.45-3.21,4.45C40.5,41.56,39.29,40.43,39.29,38.04z"/>
	<path class="st0" d="M46.41,38.87c0-2.33,2.09-3.57,7.25-4.78v-0.8c0-2.64-1.04-3.54-2.69-3.54c-1.48,0-2.75,0.63-2.75,1.13
		c0,0.08,0.03,0.11,0.14,0.11c0.55,0,1.15,0.52,1.15,1.21c0,0.71-0.55,1.26-1.24,1.26c-0.71,0-1.24-0.52-1.24-1.32
		c0-1.43,1.51-2.77,4.45-2.77c2.2,0,4.12,0.8,4.12,4.04v5.63c0,1.15,0.33,1.51,0.71,1.51c0.66,0,0.93-0.69,0.96-2.2h0.38
		c-0.06,2.61-0.96,3.1-2.09,3.1c-1.07,0-2.06-0.6-1.92-2.58H53.6c-0.52,1.43-2.17,2.64-4.09,2.64
		C47.75,41.51,46.41,40.63,46.41,38.87z M53.66,36.51v-1.98c-4.2,0.85-4.97,2.31-4.97,3.87c0,1.24,0.66,2.14,1.92,2.14
		C51.95,40.54,53.66,39.56,53.66,36.51z"/>
	<path class="st0" d="M58,40.82h0.19c1.21,0,1.48-0.3,1.48-1.54v-7.69c0-1.24-0.33-1.54-1.48-1.54H58v-0.33l3.65-0.22l-0.19,4.64
		h0.05c0.85-2.99,2.22-4.78,4.04-4.78c1.4,0,2.2,0.82,2.2,1.79c0,1.07-0.6,1.62-1.37,1.62c-0.69,0-1.24-0.44-1.24-1.13
		c0-0.6,0.33-0.88,0.58-1.1c0.14-0.11,0.22-0.19,0.22-0.33c0-0.22-0.27-0.27-0.6-0.27c-1.98,0-3.65,3.9-3.65,6.07v3.27
		c0,1.24,0.27,1.54,1.48,1.54h0.63v0.38H58V40.82z"/>
	<path class="st0" d="M69.84,38.04v-7.91h-1.87v-0.33c1.76-0.3,3.21-1.51,3.49-5.05h0.36v4.94h3.71v0.44h-3.71v8.05
		c0,1.73,0.63,2.58,1.87,2.58c1.13,0,2.03-1.24,2.14-3.65h0.38c0,2.8-1.24,4.45-3.21,4.45C71.05,41.56,69.84,40.43,69.84,38.04z"/>
	<path class="st0" d="M84.51,31.89c-0.47-1.18-0.91-1.73-2-1.81v-0.36h5.33v0.36c-0.96,0.08-1.37,0.36-1.4,0.8
		c-0.03,0.36,0.08,0.77,0.3,1.37l2.47,7.06l2.25-5.82l-0.63-1.92c-0.3-0.96-0.6-1.32-1.7-1.48v-0.36h5.08v0.36
		c-0.93,0.08-1.43,0.36-1.46,0.8c-0.03,0.36,0.11,0.77,0.3,1.4l2.17,6.92l2.17-6.21c0.25-0.71,0.44-1.35,0.44-1.87
		c0-0.71-0.49-0.96-1.51-1.04v-0.36h3.96v0.36c-1.1,0.08-1.46,0.74-1.87,1.81l-3.74,9.86h-0.38l-2.55-7.53l-3.1,7.53h-0.36
		L84.51,31.89z"/>
	<path class="st0" d="M100.55,40.82h0.22c1.21,0,1.48-0.3,1.48-1.54v-7.64c0-1.26-0.27-1.57-1.48-1.57h-0.22v-0.36l3.65-0.22v9.78
		c0,1.24,0.27,1.54,1.48,1.54h0.22v0.38h-5.36V40.82z M101.46,25.11c0-0.82,0.69-1.51,1.51-1.51c0.82,0,1.51,0.69,1.51,1.51
		c0,0.82-0.69,1.51-1.51,1.51C102.15,26.62,101.46,25.93,101.46,25.11z"/>
	<path class="st0" d="M108.11,38.04v-7.91h-1.87v-0.33c1.76-0.3,3.21-1.51,3.49-5.05h0.36v4.94h3.71v0.44h-3.71v8.05
		c0,1.73,0.63,2.58,1.87,2.58c1.13,0,2.03-1.24,2.14-3.65h0.38c0,2.8-1.24,4.45-3.21,4.45C109.32,41.56,108.11,40.43,108.11,38.04z"
		/>
	<path class="st0" d="M114.76,40.82h0.19c1.13,0,1.48-0.27,1.48-1.54V24.37c0-1.26-0.27-1.59-1.48-1.59h-0.25v-0.38l3.65-0.41v7.28
		l-0.14,3.63h0.06c0.66-1.98,2.25-3.41,4.26-3.41c2.23,0,3.24,1.37,3.24,4.09v5.71c0,1.24,0.27,1.54,1.51,1.54h0.05v0.38h-5.3v-0.38
		h0.27c1.24,0,1.51-0.3,1.51-1.54v-6.4c0-1.92-0.82-2.53-1.92-2.53c-2.01,0-3.52,2.03-3.52,4.42v4.5c0,1.24,0.27,1.54,1.48,1.54
		h0.27v0.38h-5.38V40.82z"/>
	<path class="st0" d="M134.4,38.87c0-2.33,2.09-3.57,7.25-4.78v-0.8c0-2.64-1.04-3.54-2.69-3.54c-1.48,0-2.75,0.63-2.75,1.13
		c0,0.08,0.03,0.11,0.14,0.11c0.55,0,1.15,0.52,1.15,1.21c0,0.71-0.55,1.26-1.24,1.26c-0.71,0-1.24-0.52-1.24-1.32
		c0-1.43,1.51-2.77,4.45-2.77c2.2,0,4.12,0.8,4.12,4.04v5.63c0,1.15,0.33,1.51,0.71,1.51c0.66,0,0.93-0.69,0.96-2.2h0.38
		c-0.05,2.61-0.96,3.1-2.09,3.1c-1.07,0-2.06-0.6-1.92-2.58h-0.06c-0.52,1.43-2.17,2.64-4.09,2.64
		C135.75,41.51,134.4,40.63,134.4,38.87z M141.65,36.51v-1.98c-4.2,0.85-4.97,2.31-4.97,3.87c0,1.24,0.66,2.14,1.92,2.14
		C139.95,40.54,141.65,39.56,141.65,36.51z"/>
	<path class="st0" d="M151.96,46.42h0.33c1.21,0,1.48-0.3,1.48-1.57V31.65c0-1.26-0.27-1.57-1.48-1.57h-0.19v-0.36l3.57-0.22
		l-0.08,2.8h0.06c0.88-1.7,2.06-2.88,3.85-2.88c2.25,0,4.81,2.33,4.81,6.01c0,3.63-2.5,6.04-4.92,6.04c-1.87,0-3.02-1.29-3.76-2.97
		h-0.03c0,0,0.11,1.7,0.11,3.43v2.91c0,1.26,0.27,1.57,1.48,1.57h0.63v0.38h-5.85V46.42z M161.98,35.49c0-2.86-0.66-5.63-2.77-5.63
		c-1.35,0-3.54,1.59-3.54,5.6c0,2.83,1.51,5.58,3.49,5.58C161.27,41.04,161.98,38.46,161.98,35.49z"/>
	<path class="st0" d="M165.31,40.82h0.11c1.24,0,1.51-0.33,1.51-1.65V24.42c0-1.32-0.27-1.65-1.51-1.65h-0.22v-0.38l3.68-0.41v17.19
		c0,1.32,0.27,1.65,1.48,1.65h0.22v0.38h-5.27V40.82z"/>
	<path class="st0" d="M171.49,38.87c0-2.33,2.09-3.57,7.25-4.78v-0.8c0-2.64-1.04-3.54-2.69-3.54c-1.48,0-2.75,0.63-2.75,1.13
		c0,0.08,0.03,0.11,0.14,0.11c0.55,0,1.15,0.52,1.15,1.21c0,0.71-0.55,1.26-1.24,1.26c-0.71,0-1.24-0.52-1.24-1.32
		c0-1.43,1.51-2.77,4.45-2.77c2.2,0,4.12,0.8,4.12,4.04v5.63c0,1.15,0.33,1.51,0.71,1.51c0.66,0,0.93-0.69,0.96-2.2h0.38
		c-0.06,2.61-0.96,3.1-2.09,3.1c-1.07,0-2.06-0.6-1.92-2.58h-0.05c-0.52,1.43-2.17,2.64-4.09,2.64
		C172.83,41.51,171.49,40.63,171.49,38.87z M178.74,36.51v-1.98c-4.2,0.85-4.97,2.31-4.97,3.87c0,1.24,0.66,2.14,1.92,2.14
		C177.04,40.54,178.74,39.56,178.74,36.51z"/>
	<path class="st0" d="M183.08,40.82h0.19c1.21,0,1.48-0.3,1.48-1.54v-7.66c0-1.24-0.27-1.57-1.48-1.57h-0.19v-0.33l3.65-0.22
		l-0.14,3.38h0.06c0.74-2.22,2.47-3.41,4.26-3.41c2.22,0,3.24,1.37,3.24,4.09v5.71c0,1.24,0.27,1.54,1.51,1.54h0.05v0.38h-5.3v-0.38
		h0.27c1.24,0,1.51-0.3,1.51-1.54v-6.4c0-1.92-0.82-2.53-1.92-2.53c-2,0-3.52,2-3.52,4.45v4.48c0,1.24,0.27,1.54,1.48,1.54h0.27
		v0.38h-5.44V40.82z"/>
	<path class="st0" d="M23.66,60.44c0-3.41,2.17-6.04,4.83-6.04c1.65,0,2.94,1.15,3.79,2.83h0.08c-0.05-0.77-0.08-2.42-0.08-4.15
		v-3.74c0-1.26-0.3-1.57-1.51-1.57h-0.69v-0.38l4.15-0.41v17.14c0,1.24,0.25,1.59,1.46,1.59h0.22v0.38l-3.63,0.41l0.11-3.08h-0.08
		c-0.91,1.68-2.06,3.02-3.93,3.02C26.1,66.45,23.66,64.17,23.66,60.44z M32.28,60.41c0-4.09-2.28-5.6-3.46-5.6
		c-2.25,0-2.86,2.55-2.86,5.55c0,3.05,0.74,5.66,2.83,5.66C30.22,66.01,32.28,64.04,32.28,60.41z"/>
	<path class="st0" d="M36.74,60.49c0-3.71,2.58-6.21,5.33-6.21c2.2,0,4.72,1.7,4.72,5.25c0,0.08-0.03,0.69-0.06,0.82h-7.75
		c0,3.02,1.21,5.36,3.57,5.36c2.11,0,3.19-1.07,4.09-2.39l0.3,0.22c-1.02,1.7-2.61,3.05-5,3.05C38.8,66.59,36.74,64.26,36.74,60.49z
		 M43.11,59.92c1.1,0,1.4-0.36,1.4-1.24c0-2.2-0.77-3.98-2.53-3.98c-1.92,0-2.91,2.06-2.99,5.22H43.11z"/>
	<path class="st0" d="M49.9,65.49c-0.41,0-0.77,0.33-0.99,0.93h-0.27v-4.67h0.25c0.47,2.69,2.66,4.31,4.83,4.31
		c1.62,0,2.77-0.93,2.77-2.22c0-1.24-0.85-1.7-3.63-2.5c-2.42-0.69-4.09-1.32-4.09-3.71c0-1.98,1.48-3.21,3.57-3.21
		c1.59,0,2.31,0.71,3.16,0.71c0.44,0,0.8-0.22,0.99-0.69h0.27v4.17h-0.25c-0.44-2.25-2-3.82-4.31-3.82c-1.26,0-2.28,0.82-2.28,2.03
		c0,1.29,1.07,1.7,3.38,2.31c2.99,0.8,4.34,1.65,4.34,3.82c0,2.2-1.68,3.49-4.04,3.49C51.9,66.45,50.55,65.49,49.9,65.49z"/>
	<path class="st0" d="M58.77,65.79h0.22c1.21,0,1.48-0.3,1.48-1.54v-7.63c0-1.26-0.27-1.57-1.48-1.57h-0.22V54.7l3.65-0.22v9.78
		c0,1.24,0.27,1.54,1.48,1.54h0.22v0.38h-5.36V65.79z M59.68,50.08c0-0.82,0.69-1.51,1.51-1.51c0.82,0,1.51,0.69,1.51,1.51
		s-0.69,1.51-1.51,1.51C60.36,51.59,59.68,50.91,59.68,50.08z"/>
	<path class="st0" d="M64.62,69.14c0-1.54,1.59-2.86,4.45-2.88c-1.92-0.22-3.54-0.69-3.54-1.92c0-0.96,0.91-1.59,1.95-2.23
		c-1.15-0.74-2.03-2.09-2.03-3.54c0-2.53,2.09-4.28,4.67-4.28c1.4,0,2.53,0.41,3.52,1.46c0.38-0.63,1.02-1.46,1.95-1.46
		c0.82,0,1.46,0.52,1.46,1.35c0,0.58-0.41,1.1-1.02,1.1s-0.93-0.52-0.93-1.07c0-0.36-0.06-0.55-0.27-0.55
		c-0.27,0-0.58,0.33-0.88,0.91c0.55,0.82,0.82,1.67,0.82,2.55c0,2.5-2.09,4.31-4.64,4.31c-0.77,0-1.65-0.27-2.28-0.58
		c-0.58,0.36-0.99,0.74-0.99,1.32c0,0.58,0.82,0.99,3.65,1.02c2.5,0.03,5.6,0.49,5.6,3.38c0,2.33-2.64,3.82-6.02,3.82
		C67.09,71.84,64.62,70.96,64.62,69.14z M75.11,68.68c0-1.29-1.4-2.22-4.83-2.22c-3.16,0-4.04,1.46-4.04,2.66
		c0,1.76,2.22,2.33,4.01,2.33C73,71.45,75.11,70.22,75.11,68.68z M72.56,58.57c0-1.73-0.47-3.93-2.44-3.93c-2,0-2.44,2.2-2.44,3.93
		s0.44,3.93,2.44,3.93C72.09,62.5,72.56,60.3,72.56,58.57z"/>
	<path class="st0" d="M77.4,65.79h0.19c1.21,0,1.48-0.3,1.48-1.54v-7.66c0-1.24-0.27-1.57-1.48-1.57H77.4V54.7l3.65-0.22l-0.14,3.38
		h0.06c0.74-2.22,2.47-3.41,4.26-3.41c2.22,0,3.24,1.37,3.24,4.09v5.71c0,1.24,0.27,1.54,1.51,1.54h0.05v0.38h-5.3v-0.38H85
		c1.24,0,1.51-0.3,1.51-1.54v-6.4c0-1.92-0.82-2.53-1.92-2.53c-2,0-3.52,2-3.52,4.45v4.48c0,1.24,0.27,1.54,1.48,1.54h0.27v0.38
		H77.4V65.79z"/>
	<path class="st0" d="M90.83,60.49c0-3.71,2.58-6.21,5.33-6.21c2.2,0,4.72,1.7,4.72,5.25c0,0.08-0.03,0.69-0.06,0.82h-7.75
		c0,3.02,1.21,5.36,3.57,5.36c2.11,0,3.19-1.07,4.09-2.39l0.3,0.22c-1.02,1.7-2.61,3.05-5,3.05C92.89,66.59,90.83,64.26,90.83,60.49
		z M97.2,59.92c1.1,0,1.4-0.36,1.4-1.24c0-2.2-0.77-3.98-2.53-3.98c-1.92,0-2.91,2.06-2.99,5.22H97.2z"/>
	<path class="st0" d="M102.29,60.44c0-3.41,2.17-6.04,4.83-6.04c1.65,0,2.94,1.15,3.79,2.83h0.08c-0.05-0.77-0.08-2.42-0.08-4.15
		v-3.74c0-1.26-0.3-1.57-1.51-1.57h-0.69v-0.38l4.15-0.41v17.14c0,1.24,0.25,1.59,1.46,1.59h0.22v0.38l-3.63,0.41l0.11-3.08h-0.08
		c-0.91,1.68-2.06,3.02-3.93,3.02C104.73,66.45,102.29,64.17,102.29,60.44z M110.91,60.41c0-4.09-2.28-5.6-3.46-5.6
		c-2.25,0-2.86,2.55-2.86,5.55c0,3.05,0.74,5.66,2.83,5.66C108.85,66.01,110.91,64.04,110.91,60.41z"/>
	<path class="st0" d="M121.6,63.84c0-2.33,2.09-3.57,7.25-4.78v-0.8c0-2.64-1.04-3.54-2.69-3.54c-1.48,0-2.75,0.63-2.75,1.13
		c0,0.08,0.03,0.11,0.14,0.11c0.55,0,1.15,0.52,1.15,1.21c0,0.71-0.55,1.26-1.24,1.26c-0.71,0-1.24-0.52-1.24-1.32
		c0-1.43,1.51-2.77,4.45-2.77c2.2,0,4.12,0.8,4.12,4.04v5.63c0,1.15,0.33,1.51,0.71,1.51c0.66,0,0.93-0.69,0.96-2.2h0.38
		c-0.05,2.61-0.96,3.1-2.09,3.1c-1.07,0-2.06-0.6-1.92-2.58h-0.06c-0.52,1.43-2.17,2.64-4.09,2.64
		C122.95,66.48,121.6,65.6,121.6,63.84z M128.85,61.48V59.5c-4.2,0.85-4.97,2.31-4.97,3.87c0,1.24,0.66,2.14,1.92,2.14
		C127.15,65.52,128.85,64.53,128.85,61.48z"/>
	<path class="st0" d="M133.19,65.79h0.19c1.21,0,1.48-0.3,1.48-1.54v-7.69c0-1.24-0.33-1.54-1.48-1.54h-0.19V54.7l3.65-0.22
		l-0.19,4.64h0.05c0.85-2.99,2.23-4.78,4.04-4.78c1.4,0,2.2,0.82,2.2,1.79c0,1.07-0.6,1.62-1.37,1.62c-0.69,0-1.24-0.44-1.24-1.13
		c0-0.6,0.33-0.88,0.58-1.1c0.14-0.11,0.22-0.19,0.22-0.33c0-0.22-0.27-0.27-0.6-0.27c-1.98,0-3.65,3.9-3.65,6.07v3.27
		c0,1.24,0.27,1.54,1.48,1.54h0.63v0.38h-5.8V65.79z"/>
	<path class="st0" d="M143.25,60.41c0-3.57,2.8-6.12,5.38-6.12s5.36,2.5,5.36,6.07c0,3.49-2.77,6.24-5.36,6.24
		S143.25,63.9,143.25,60.41z M151.68,60.44c0-3.19-0.82-5.77-3.05-5.77s-3.05,2.53-3.05,5.71c0,3.16,0.77,5.82,3.05,5.82
		S151.68,63.6,151.68,60.44z"/>
	<path class="st0" d="M156.32,62.55v-5.93c0-1.21-0.27-1.57-1.48-1.57h-0.25V54.7l3.68-0.22v8.57c0,1.95,0.74,2.72,2.03,2.72
		c1.7,0,3.41-2.42,3.41-4.72v-4.39c0-1.26-0.27-1.59-1.48-1.59h-0.55V54.7l4.01-0.22v9.61c0,1.24,0.3,1.59,1.51,1.59h0.19v0.36
		l-3.65,0.41l0.14-3.41h-0.05c-0.71,1.87-2.31,3.41-4.17,3.41C157.48,66.45,156.32,65.19,156.32,62.55z"/>
	<path class="st0" d="M167.97,65.79h0.19c1.21,0,1.48-0.3,1.48-1.54v-7.66c0-1.24-0.27-1.57-1.48-1.57h-0.19V54.7l3.65-0.22
		l-0.14,3.38h0.06c0.74-2.22,2.47-3.41,4.26-3.41c2.23,0,3.24,1.37,3.24,4.09v5.71c0,1.24,0.27,1.54,1.51,1.54h0.05v0.38h-5.3v-0.38
		h0.27c1.24,0,1.51-0.3,1.51-1.54v-6.4c0-1.92-0.82-2.53-1.92-2.53c-2.01,0-3.52,2-3.52,4.45v4.48c0,1.24,0.27,1.54,1.48,1.54h0.27
		v0.38h-5.44V65.79z"/>
	<path class="st0" d="M181.41,60.44c0-3.41,2.17-6.04,4.83-6.04c1.65,0,2.94,1.15,3.79,2.83h0.08c-0.05-0.77-0.08-2.42-0.08-4.15
		v-3.74c0-1.26-0.3-1.57-1.51-1.57h-0.69v-0.38l4.15-0.41v17.14c0,1.24,0.25,1.59,1.46,1.59h0.22v0.38l-3.63,0.41l0.11-3.08h-0.08
		c-0.91,1.68-2.06,3.02-3.93,3.02C183.85,66.45,181.41,64.17,181.41,60.44z M190.03,60.41c0-4.09-2.28-5.6-3.46-5.6
		c-2.25,0-2.86,2.55-2.86,5.55c0,3.05,0.74,5.66,2.83,5.66C187.97,66.01,190.03,64.04,190.03,60.41z"/>
	<path class="st0" d="M200.2,69.83c0-0.85,0.58-1.46,1.4-1.46c0.66,0,1.13,0.58,1.13,1.15c0,0.49-0.19,0.77-0.38,0.96
		c-0.16,0.16-0.3,0.25-0.3,0.47c0,0.27,0.3,0.47,0.71,0.47c1.26,0,2.11-1.73,2.91-3.65l0.36-0.85l-4.12-10
		c-0.49-1.24-0.88-1.79-2-1.87V54.7h5.52v0.36c-0.96,0.08-1.4,0.38-1.43,0.82c-0.03,0.41,0.11,0.88,0.33,1.46l2.72,7.2l2.47-6.48
		c0.25-0.63,0.52-1.4,0.52-1.92c0-0.71-0.47-0.99-1.51-1.07V54.7h4.07v0.36c-1.21,0.08-1.51,0.74-1.95,1.87l-4.42,10.82
		c-1.37,3.38-2.42,4.15-3.71,4.15C201,71.89,200.2,70.96,200.2,69.83z"/>
	<path class="st0" d="M212.34,60.41c0-3.57,2.8-6.12,5.38-6.12s5.36,2.5,5.36,6.07c0,3.49-2.77,6.24-5.36,6.24
		S212.34,63.9,212.34,60.41z M220.77,60.44c0-3.19-0.82-5.77-3.05-5.77s-3.05,2.53-3.05,5.71c0,3.16,0.77,5.82,3.05,5.82
		S220.77,63.6,220.77,60.44z"/>
	<path class="st0" d="M225.42,62.55v-5.93c0-1.21-0.27-1.57-1.48-1.57h-0.25V54.7l3.68-0.22v8.57c0,1.95,0.74,2.72,2.03,2.72
		c1.7,0,3.41-2.42,3.41-4.72v-4.39c0-1.26-0.27-1.59-1.48-1.59h-0.55V54.7l4.01-0.22v9.61c0,1.24,0.3,1.59,1.51,1.59h0.19v0.36
		l-3.65,0.41l0.14-3.41h-0.06c-0.71,1.87-2.31,3.41-4.17,3.41C226.57,66.45,225.42,65.19,225.42,62.55z"/>
	<path class="st0" d="M238.06,64.81c0-0.88,0.69-1.57,1.57-1.57s1.57,0.69,1.57,1.57s-0.69,1.57-1.57,1.57
		S238.06,65.68,238.06,64.81z"/>
</g>
</svg>
