<?xml version="1.0" encoding="utf-8"?>
<!-- Generator: Adobe Illustrator 25.4.1, SVG Export Plug-In . SVG Version: 6.00 Build 0)  -->
<svg version="1.1" id="Layer_1" xmlns="http://www.w3.org/2000/svg" xmlns:xlink="http://www.w3.org/1999/xlink" x="0px" y="0px"
	 viewBox="0 0 728 90" style="enable-background:new 0 0 728 90;" xml:space="preserve">
<style type="text/css">
	.st0{fill:#FFFFFF;}
</style>
<g>
	<path class="st0" d="M15.07,39.79h1.26c1.24,0,1.73-0.33,1.73-1.65V21.82h-0.71c-3.88,0-4.7,2.69-5.39,6.92h-0.38l0.36-7.34h14.59
		l0.3,7.34h-0.38c-0.66-4.23-1.51-6.92-5.39-6.92h-0.71v16.32c0,1.32,0.47,1.65,1.73,1.65h1.24v0.41h-8.24V39.79z"/>
	<path class="st0" d="M26.08,37.87c0-2.34,2.09-3.57,7.25-4.78v-0.8c0-2.64-1.04-3.55-2.69-3.55c-1.48,0-2.75,0.63-2.75,1.13
		c0,0.08,0.03,0.11,0.14,0.11c0.55,0,1.15,0.52,1.15,1.21c0,0.71-0.55,1.26-1.24,1.26c-0.71,0-1.24-0.52-1.24-1.32
		c0-1.43,1.51-2.78,4.45-2.78c2.2,0,4.12,0.8,4.12,4.04v5.63c0,1.15,0.33,1.51,0.71,1.51c0.66,0,0.93-0.69,0.96-2.2h0.38
		c-0.06,2.61-0.96,3.11-2.09,3.11c-1.07,0-2.06-0.6-1.92-2.58h-0.05c-0.52,1.43-2.17,2.64-4.09,2.64
		C27.43,40.51,26.08,39.63,26.08,37.87z M33.34,35.51v-1.98c-4.2,0.85-4.97,2.31-4.97,3.88c0,1.24,0.66,2.14,1.92,2.14
		C31.64,39.55,33.34,38.56,33.34,35.51z"/>
	<path class="st0" d="M37.68,39.82h0.11c1.24,0,1.51-0.33,1.51-1.65V23.42c0-1.32-0.27-1.65-1.51-1.65h-0.22v-0.38l3.68-0.41v17.2
		c0,1.32,0.27,1.65,1.48,1.65h0.22v0.38h-5.28V39.82z"/>
	<path class="st0" d="M43.73,39.82h0.14c1.21,0,1.48-0.3,1.48-1.54V23.33c0-1.26-0.27-1.57-1.48-1.57h-0.25v-0.38l3.68-0.41V35.4
		l4.15-4.45c0.55-0.58,0.71-0.85,0.71-1.21c0-0.41-0.49-0.66-1.4-0.71v-0.3h4.84v0.3c-1.59,0.17-1.98,0.55-3,1.57l-2.25,2.31
		c0-0.03,3.98,5.61,3.98,5.61c0.63,0.88,0.88,1.24,1.98,1.32v0.38H51.2v-0.36c0.88-0.08,1.18-0.33,1.18-0.63
		c0-0.17-0.05-0.3-0.36-0.74l-2.97-4.26l-1.76,1.76v2.31c0,1.24,0.27,1.54,1.51,1.54h0.17v0.38h-5.25V39.82z"/>
	<path class="st0" d="M64.42,37.05v-7.92h-1.87V28.8c1.76-0.3,3.22-1.51,3.49-5.06h0.36v4.95h3.71v0.44h-3.71v8.05
		c0,1.73,0.63,2.58,1.87,2.58c1.13,0,2.03-1.24,2.14-3.66h0.38c0,2.8-1.24,4.45-3.22,4.45C65.62,40.56,64.42,39.44,64.42,37.05z"/>
	<path class="st0" d="M71.59,34.44c0-3.57,2.8-6.13,5.39-6.13c2.58,0,5.36,2.5,5.36,6.07c0,3.49-2.78,6.24-5.36,6.24
		C74.39,40.62,71.59,37.93,71.59,34.44z M80.02,34.46c0-3.19-0.82-5.77-3.05-5.77s-3.05,2.53-3.05,5.72c0,3.16,0.77,5.83,3.05,5.83
		S80.02,37.62,80.02,34.46z"/>
	<path class="st0" d="M89.36,43.86c0-0.85,0.58-1.46,1.4-1.46c0.66,0,1.13,0.58,1.13,1.15c0,0.5-0.19,0.77-0.38,0.96
		c-0.17,0.17-0.3,0.25-0.3,0.47c0,0.28,0.3,0.47,0.71,0.47c1.26,0,2.12-1.73,2.91-3.66l0.36-0.85l-4.12-10
		c-0.49-1.24-0.88-1.79-2.01-1.87v-0.36h5.52v0.36c-0.96,0.08-1.4,0.38-1.43,0.82c-0.03,0.41,0.11,0.88,0.33,1.46l2.72,7.2
		l2.47-6.49c0.25-0.63,0.52-1.4,0.52-1.92c0-0.71-0.47-0.99-1.51-1.07v-0.36h4.07v0.36c-1.21,0.08-1.51,0.74-1.95,1.87l-4.42,10.83
		c-1.37,3.38-2.42,4.15-3.71,4.15C90.16,45.92,89.36,44.99,89.36,43.86z"/>
	<path class="st0" d="M101.51,34.44c0-3.57,2.8-6.13,5.39-6.13c2.58,0,5.36,2.5,5.36,6.07c0,3.49-2.78,6.24-5.36,6.24
		C104.31,40.62,101.51,37.93,101.51,34.44z M109.95,34.46c0-3.19-0.82-5.77-3.05-5.77s-3.05,2.53-3.05,5.72
		c0,3.16,0.77,5.83,3.05,5.83S109.95,37.62,109.95,34.46z"/>
	<path class="st0" d="M114.59,36.58v-5.94c0-1.21-0.27-1.57-1.48-1.57h-0.25v-0.36l3.68-0.22v8.57c0,1.95,0.74,2.72,2.03,2.72
		c1.7,0,3.41-2.42,3.41-4.73v-4.4c0-1.26-0.27-1.59-1.48-1.59h-0.55v-0.36l4.01-0.22v9.62c0,1.24,0.3,1.59,1.51,1.59h0.19v0.36
		l-3.65,0.41l0.14-3.41h-0.05c-0.71,1.87-2.31,3.41-4.18,3.41C115.74,40.48,114.59,39.22,114.59,36.58z"/>
	<path class="st0" d="M126.24,39.82h0.19c1.21,0,1.48-0.3,1.48-1.54v-7.69c0-1.24-0.33-1.54-1.48-1.54h-0.19v-0.33l3.65-0.22
		l-0.19,4.64h0.06c0.85-3,2.23-4.78,4.04-4.78c1.4,0,2.2,0.83,2.2,1.79c0,1.07-0.6,1.62-1.37,1.62c-0.69,0-1.24-0.44-1.24-1.13
		c0-0.6,0.33-0.88,0.58-1.1c0.14-0.11,0.22-0.19,0.22-0.33c0-0.22-0.27-0.28-0.6-0.28c-1.98,0-3.66,3.9-3.66,6.07v3.27
		c0,1.24,0.27,1.54,1.48,1.54h0.63v0.38h-5.8V39.82z"/>
	<path class="st0" d="M142.23,45.43h0.33c1.21,0,1.48-0.3,1.48-1.57V30.64c0-1.26-0.27-1.57-1.48-1.57h-0.19v-0.36l3.57-0.22
		l-0.08,2.8h0.06c0.88-1.7,2.06-2.88,3.85-2.88c2.25,0,4.81,2.34,4.81,6.02c0,3.63-2.5,6.05-4.92,6.05c-1.87,0-3.02-1.29-3.76-2.97
		h-0.03c0,0,0.11,1.7,0.11,3.44v2.91c0,1.26,0.27,1.57,1.48,1.57h0.63v0.38h-5.85V45.43z M152.26,34.49c0-2.86-0.66-5.63-2.78-5.63
		c-1.35,0-3.55,1.59-3.55,5.61c0,2.83,1.51,5.58,3.49,5.58C151.55,40.04,152.26,37.46,152.26,34.49z"/>
	<path class="st0" d="M155.59,39.82h0.19c1.21,0,1.48-0.3,1.48-1.54v-7.69c0-1.24-0.33-1.54-1.48-1.54h-0.19v-0.33l3.65-0.22
		l-0.19,4.64h0.06c0.85-3,2.23-4.78,4.04-4.78c1.4,0,2.2,0.83,2.2,1.79c0,1.07-0.6,1.62-1.37,1.62c-0.69,0-1.24-0.44-1.24-1.13
		c0-0.6,0.33-0.88,0.58-1.1c0.14-0.11,0.22-0.19,0.22-0.33c0-0.22-0.27-0.28-0.6-0.28c-1.98,0-3.66,3.9-3.66,6.07v3.27
		c0,1.24,0.27,1.54,1.48,1.54h0.63v0.38h-5.8V39.82z"/>
	<path class="st0" d="M165.64,34.44c0-3.57,2.8-6.13,5.39-6.13c2.58,0,5.36,2.5,5.36,6.07c0,3.49-2.78,6.24-5.36,6.24
		C168.44,40.62,165.64,37.93,165.64,34.44z M174.08,34.46c0-3.19-0.82-5.77-3.05-5.77s-3.05,2.53-3.05,5.72
		c0,3.16,0.77,5.83,3.05,5.83S174.08,37.62,174.08,34.46z"/>
	<path class="st0" d="M178.42,30.86c-0.52-1.24-0.85-1.7-1.98-1.79v-0.36h5.5v0.36c-1.1,0.08-1.4,0.36-1.43,0.8
		c-0.03,0.41,0.11,0.93,0.3,1.43l2.64,7.01l2.45-6.32c0.25-0.66,0.52-1.35,0.52-1.87c0-0.71-0.47-0.96-1.51-1.04v-0.36h3.96v0.36
		c-1.13,0.08-1.48,0.71-1.92,1.79l-4.07,9.89h-0.38L178.42,30.86z"/>
	<path class="st0" d="M189.14,39.82h0.22c1.21,0,1.48-0.3,1.48-1.54v-7.64c0-1.26-0.27-1.57-1.48-1.57h-0.22v-0.36l3.66-0.22v9.78
		c0,1.24,0.27,1.54,1.48,1.54h0.22v0.38h-5.36V39.82z M190.04,24.1c0-0.82,0.69-1.51,1.51-1.51s1.51,0.69,1.51,1.51
		c0,0.82-0.69,1.51-1.51,1.51S190.04,24.93,190.04,24.1z"/>
	<path class="st0" d="M195.51,34.46c0-3.41,2.17-6.05,4.84-6.05c1.65,0,2.94,1.15,3.79,2.83h0.08c-0.06-0.77-0.08-2.42-0.08-4.15
		v-3.74c0-1.26-0.3-1.57-1.51-1.57h-0.69v-0.38l4.15-0.41v17.15c0,1.24,0.25,1.59,1.46,1.59h0.22v0.38l-3.63,0.41l0.11-3.08h-0.08
		c-0.91,1.68-2.06,3.02-3.93,3.02C197.96,40.48,195.51,38.2,195.51,34.46z M204.14,34.44c0-4.09-2.28-5.61-3.46-5.61
		c-2.25,0-2.86,2.56-2.86,5.55c0,3.05,0.74,5.66,2.83,5.66C202.08,40.04,204.14,38.06,204.14,34.44z"/>
	<path class="st0" d="M208.59,34.52c0-3.71,2.58-6.21,5.33-6.21c2.2,0,4.73,1.7,4.73,5.25c0,0.08-0.03,0.69-0.06,0.82h-7.75
		c0,3.02,1.21,5.36,3.57,5.36c2.12,0,3.19-1.07,4.09-2.39l0.3,0.22c-1.02,1.7-2.61,3.05-5,3.05
		C210.65,40.62,208.59,38.28,208.59,34.52z M214.97,33.94c1.1,0,1.4-0.36,1.4-1.24c0-2.2-0.77-3.99-2.53-3.99
		c-1.92,0-2.91,2.06-3,5.22H214.97z"/>
	<path class="st0" d="M219.75,39.82h0.19c1.21,0,1.48-0.3,1.48-1.54v-7.69c0-1.24-0.33-1.54-1.48-1.54h-0.19v-0.33l3.65-0.22
		l-0.19,4.64h0.06c0.85-3,2.23-4.78,4.04-4.78c1.4,0,2.2,0.83,2.2,1.79c0,1.07-0.6,1.62-1.37,1.62c-0.69,0-1.24-0.44-1.24-1.13
		c0-0.6,0.33-0.88,0.58-1.1c0.14-0.11,0.22-0.19,0.22-0.33c0-0.22-0.27-0.28-0.6-0.28c-1.98,0-3.66,3.9-3.66,6.07v3.27
		c0,1.24,0.27,1.54,1.48,1.54h0.63v0.38h-5.8V39.82z"/>
	<path class="st0" d="M236.31,37.87c0-2.34,2.09-3.57,7.25-4.78v-0.8c0-2.64-1.04-3.55-2.69-3.55c-1.48,0-2.75,0.63-2.75,1.13
		c0,0.08,0.03,0.11,0.14,0.11c0.55,0,1.15,0.52,1.15,1.21c0,0.71-0.55,1.26-1.24,1.26c-0.71,0-1.24-0.52-1.24-1.32
		c0-1.43,1.51-2.78,4.45-2.78c2.2,0,4.12,0.8,4.12,4.04v5.63c0,1.15,0.33,1.51,0.71,1.51c0.66,0,0.93-0.69,0.96-2.2h0.38
		c-0.05,2.61-0.96,3.11-2.09,3.11c-1.07,0-2.06-0.6-1.92-2.58h-0.05c-0.52,1.43-2.17,2.64-4.09,2.64
		C237.66,40.51,236.31,39.63,236.31,37.87z M243.57,35.51v-1.98c-4.2,0.85-4.97,2.31-4.97,3.88c0,1.24,0.66,2.14,1.92,2.14
		C241.87,39.55,243.57,38.56,243.57,35.51z"/>
	<path class="st0" d="M249.17,35.53v-12.2c0-1.26-0.27-1.57-1.48-1.57h-0.47v-0.38l3.87-0.41v5.96c0,2.12-0.08,4.31-0.08,4.31h0.06
		c1.04-1.81,2.12-2.83,3.9-2.83c2.39,0,4.73,2.58,4.73,5.99c0,3.79-2.53,6.07-4.81,6.07c-1.87,0-2.86-1.04-3.79-2.72h-0.05
		l-1.87,2.94h-0.36C249.09,39.14,249.17,37.21,249.17,35.53z M257.39,34.46c0-3.02-0.71-5.61-2.75-5.61c-1.87,0-3.57,2.28-3.57,5.58
		c0,3.08,1.54,5.61,3.52,5.61C256.21,40.04,257.39,38.5,257.39,34.46z"/>
	<path class="st0" d="M261.02,34.44c0-3.57,2.8-6.13,5.39-6.13c2.58,0,5.36,2.5,5.36,6.07c0,3.49-2.78,6.24-5.36,6.24
		C263.82,40.62,261.02,37.93,261.02,34.44z M269.45,34.46c0-3.19-0.82-5.77-3.05-5.77s-3.05,2.53-3.05,5.72
		c0,3.16,0.77,5.83,3.05,5.83S269.45,37.62,269.45,34.46z"/>
	<path class="st0" d="M274.1,36.58v-5.94c0-1.21-0.27-1.57-1.48-1.57h-0.25v-0.36l3.68-0.22v8.57c0,1.95,0.74,2.72,2.03,2.72
		c1.7,0,3.41-2.42,3.41-4.73v-4.4c0-1.26-0.27-1.59-1.48-1.59h-0.55v-0.36l4.01-0.22v9.62c0,1.24,0.3,1.59,1.51,1.59h0.19v0.36
		l-3.65,0.41l0.14-3.41h-0.05c-0.71,1.87-2.31,3.41-4.18,3.41C275.25,40.48,274.1,39.22,274.1,36.58z"/>
	<path class="st0" d="M287.23,37.05v-7.92h-1.87V28.8c1.76-0.3,3.22-1.51,3.49-5.06h0.36v4.95h3.71v0.44h-3.71v8.05
		c0,1.73,0.63,2.58,1.87,2.58c1.13,0,2.03-1.24,2.14-3.66h0.38c0,2.8-1.24,4.45-3.22,4.45C288.44,40.56,287.23,39.44,287.23,37.05z"
		/>
	<path class="st0" d="M300.64,37.87c0-2.34,2.09-3.57,7.25-4.78v-0.8c0-2.64-1.04-3.55-2.69-3.55c-1.48,0-2.75,0.63-2.75,1.13
		c0,0.08,0.03,0.11,0.14,0.11c0.55,0,1.15,0.52,1.15,1.21c0,0.71-0.55,1.26-1.24,1.26c-0.71,0-1.24-0.52-1.24-1.32
		c0-1.43,1.51-2.78,4.45-2.78c2.2,0,4.12,0.8,4.12,4.04v5.63c0,1.15,0.33,1.51,0.71,1.51c0.66,0,0.93-0.69,0.96-2.2h0.38
		c-0.06,2.61-0.96,3.11-2.09,3.11c-1.07,0-2.06-0.6-1.92-2.58h-0.05c-0.52,1.43-2.17,2.64-4.09,2.64
		C301.98,40.51,300.64,39.63,300.64,37.87z M307.89,35.51v-1.98c-4.2,0.85-4.97,2.31-4.97,3.88c0,1.24,0.66,2.14,1.92,2.14
		C306.19,39.55,307.89,38.56,307.89,35.51z"/>
	<path class="st0" d="M11.03,70.41h0.33c1.21,0,1.48-0.3,1.48-1.57V55.62c0-1.26-0.27-1.57-1.48-1.57h-0.19V53.7l3.57-0.22
		l-0.08,2.8h0.06c0.88-1.7,2.06-2.88,3.85-2.88c2.25,0,4.81,2.34,4.81,6.02c0,3.63-2.5,6.05-4.92,6.05c-1.87,0-3.02-1.29-3.76-2.97
		h-0.03c0,0,0.11,1.7,0.11,3.44v2.91c0,1.26,0.27,1.57,1.48,1.57h0.63v0.38h-5.85V70.41z M21.06,59.47c0-2.86-0.66-5.63-2.78-5.63
		c-1.35,0-3.55,1.59-3.55,5.61c0,2.83,1.51,5.58,3.49,5.58C20.34,65.02,21.06,62.44,21.06,59.47z"/>
	<path class="st0" d="M24.68,59.5c0-3.71,2.58-6.21,5.33-6.21c2.2,0,4.73,1.7,4.73,5.25c0,0.08-0.03,0.69-0.06,0.82h-7.75
		c0,3.02,1.21,5.36,3.57,5.36c2.12,0,3.19-1.07,4.09-2.39l0.3,0.22c-1.02,1.7-2.61,3.05-5,3.05C26.75,65.6,24.68,63.26,24.68,59.5z
		 M31.06,58.92c1.1,0,1.4-0.36,1.4-1.24c0-2.2-0.77-3.99-2.53-3.99c-1.92,0-2.91,2.06-3,5.22H31.06z"/>
	<path class="st0" d="M35.84,64.8h0.19c1.21,0,1.48-0.3,1.48-1.54v-7.69c0-1.24-0.33-1.54-1.48-1.54h-0.19V53.7l3.65-0.22
		l-0.19,4.64h0.06c0.85-3,2.23-4.78,4.04-4.78c1.4,0,2.2,0.83,2.2,1.79c0,1.07-0.6,1.62-1.37,1.62c-0.69,0-1.24-0.44-1.24-1.13
		c0-0.6,0.33-0.88,0.58-1.1c0.14-0.11,0.22-0.19,0.22-0.33c0-0.22-0.27-0.28-0.6-0.28c-1.98,0-3.66,3.9-3.66,6.07v3.27
		c0,1.24,0.27,1.54,1.48,1.54h0.63v0.38h-5.8V64.8z"/>
	<path class="st0" d="M47.6,64.5c-0.41,0-0.77,0.33-0.99,0.93h-0.27v-4.67h0.25c0.47,2.69,2.67,4.31,4.84,4.31
		c1.62,0,2.78-0.93,2.78-2.23c0-1.24-0.85-1.7-3.63-2.5c-2.42-0.69-4.09-1.32-4.09-3.71c0-1.98,1.48-3.21,3.57-3.21
		c1.59,0,2.31,0.71,3.16,0.71c0.44,0,0.8-0.22,0.99-0.69h0.27v4.18h-0.25c-0.44-2.25-2.01-3.82-4.31-3.82
		c-1.26,0-2.28,0.82-2.28,2.03c0,1.29,1.07,1.7,3.38,2.31c3,0.8,4.34,1.65,4.34,3.82c0,2.2-1.68,3.49-4.04,3.49
		C49.61,65.46,48.26,64.5,47.6,64.5z"/>
	<path class="st0" d="M56.72,59.42c0-3.57,2.8-6.13,5.39-6.13c2.58,0,5.36,2.5,5.36,6.07c0,3.49-2.78,6.24-5.36,6.24
		C59.53,65.6,56.72,62.91,56.72,59.42z M65.16,59.44c0-3.19-0.82-5.77-3.05-5.77s-3.05,2.53-3.05,5.72c0,3.16,0.77,5.83,3.05,5.83
		S65.16,62.6,65.16,59.44z"/>
	<path class="st0" d="M68.48,64.8h0.19c1.21,0,1.48-0.3,1.48-1.54V55.6c0-1.24-0.27-1.57-1.48-1.57h-0.19V53.7l3.65-0.22L72,56.86
		h0.05c0.74-2.23,2.47-3.41,4.26-3.41c2.23,0,3.24,1.37,3.24,4.09v5.72c0,1.24,0.27,1.54,1.51,1.54h0.06v0.38h-5.3V64.8h0.27
		c1.24,0,1.51-0.3,1.51-1.54v-6.4c0-1.92-0.82-2.53-1.92-2.53c-2.01,0-3.52,2.01-3.52,4.45v4.48c0,1.24,0.27,1.54,1.48,1.54h0.27
		v0.38h-5.44V64.8z"/>
	<path class="st0" d="M81.86,62.85c0-2.34,2.09-3.57,7.25-4.78v-0.8c0-2.64-1.04-3.55-2.69-3.55c-1.48,0-2.75,0.63-2.75,1.13
		c0,0.08,0.03,0.11,0.14,0.11c0.55,0,1.15,0.52,1.15,1.21c0,0.71-0.55,1.26-1.24,1.26c-0.71,0-1.24-0.52-1.24-1.32
		c0-1.43,1.51-2.78,4.45-2.78c2.2,0,4.12,0.8,4.12,4.04v5.63c0,1.15,0.33,1.51,0.71,1.51c0.66,0,0.93-0.69,0.96-2.2h0.38
		c-0.05,2.61-0.96,3.11-2.09,3.11c-1.07,0-2.06-0.6-1.92-2.58h-0.05c-0.52,1.43-2.17,2.64-4.09,2.64
		C83.21,65.49,81.86,64.61,81.86,62.85z M89.12,60.49v-1.98c-4.2,0.85-4.97,2.31-4.97,3.88c0,1.24,0.66,2.14,1.92,2.14
		C87.42,64.53,89.12,63.54,89.12,60.49z"/>
	<path class="st0" d="M93.46,64.8h0.11c1.24,0,1.51-0.33,1.51-1.65V48.4c0-1.32-0.27-1.65-1.51-1.65h-0.22v-0.38l3.68-0.41v17.2
		c0,1.32,0.27,1.65,1.48,1.65h0.22v0.38h-5.28V64.8z"/>
	<path class="st0" d="M99.45,64.8h0.22c1.21,0,1.48-0.3,1.48-1.54v-7.64c0-1.26-0.27-1.57-1.48-1.57h-0.22V53.7l3.66-0.22v9.78
		c0,1.24,0.27,1.54,1.48,1.54h0.22v0.38h-5.36V64.8z M100.36,49.08c0-0.83,0.69-1.51,1.51-1.51s1.51,0.69,1.51,1.51
		c0,0.82-0.69,1.51-1.51,1.51S100.36,49.91,100.36,49.08z"/>
	<path class="st0" d="M105.63,64.91l7.53-10.86h-2.47c-2.56,0-3.57,1.29-4.29,4.18h-0.27l0.3-4.53h9.01v0.22l-7.56,10.91h3.13
		c2.89,0,3.79-1.7,4.29-4.42h0.27l-0.3,4.78h-9.65V64.91z"/>
	<path class="st0" d="M116.84,59.5c0-3.71,2.58-6.21,5.33-6.21c2.2,0,4.73,1.7,4.73,5.25c0,0.08-0.03,0.69-0.06,0.82h-7.75
		c0,3.02,1.21,5.36,3.57,5.36c2.12,0,3.19-1.07,4.09-2.39l0.3,0.22c-1.02,1.7-2.61,3.05-5,3.05C118.9,65.6,116.84,63.26,116.84,59.5
		z M123.22,58.92c1.1,0,1.4-0.36,1.4-1.24c0-2.2-0.77-3.99-2.53-3.99c-1.92,0-2.91,2.06-3,5.22H123.22z"/>
	<path class="st0" d="M128.3,59.44c0-3.41,2.17-6.05,4.84-6.05c1.65,0,2.94,1.15,3.79,2.83h0.08c-0.06-0.77-0.08-2.42-0.08-4.15
		v-3.74c0-1.26-0.3-1.57-1.51-1.57h-0.69v-0.38l4.15-0.41v17.15c0,1.24,0.25,1.59,1.46,1.59h0.22v0.38l-3.63,0.41l0.11-3.08h-0.08
		c-0.91,1.68-2.06,3.02-3.93,3.02C130.75,65.46,128.3,63.18,128.3,59.44z M136.93,59.42c0-4.09-2.28-5.61-3.46-5.61
		c-2.25,0-2.86,2.56-2.86,5.55c0,3.05,0.74,5.66,2.83,5.66C134.87,65.02,136.93,63.04,136.93,59.42z"/>
	<path class="st0" d="M148.85,62.03v-7.92h-1.87v-0.33c1.76-0.3,3.22-1.51,3.49-5.06h0.36v4.95h3.71v0.44h-3.71v8.05
		c0,1.73,0.63,2.58,1.87,2.58c1.13,0,2.03-1.24,2.14-3.66h0.38c0,2.8-1.24,4.45-3.22,4.45C150.06,65.54,148.85,64.42,148.85,62.03z"
		/>
	<path class="st0" d="M155.72,64.8h0.19c1.21,0,1.48-0.3,1.48-1.54v-7.69c0-1.24-0.33-1.54-1.48-1.54h-0.19V53.7l3.65-0.22
		l-0.19,4.64h0.06c0.85-3,2.23-4.78,4.04-4.78c1.4,0,2.2,0.83,2.2,1.79c0,1.07-0.6,1.62-1.37,1.62c-0.69,0-1.24-0.44-1.24-1.13
		c0-0.6,0.33-0.88,0.58-1.1c0.14-0.11,0.22-0.19,0.22-0.33c0-0.22-0.27-0.28-0.6-0.28c-1.98,0-3.66,3.9-3.66,6.07v3.27
		c0,1.24,0.27,1.54,1.48,1.54h0.63v0.38h-5.8V64.8z"/>
	<path class="st0" d="M165.78,59.5c0-3.71,2.58-6.21,5.33-6.21c2.2,0,4.73,1.7,4.73,5.25c0,0.08-0.03,0.69-0.06,0.82h-7.75
		c0,3.02,1.21,5.36,3.57,5.36c2.12,0,3.19-1.07,4.09-2.39l0.3,0.22c-1.02,1.7-2.61,3.05-5,3.05
		C167.84,65.6,165.78,63.26,165.78,59.5z M172.16,58.92c1.1,0,1.4-0.36,1.4-1.24c0-2.2-0.77-3.99-2.53-3.99
		c-1.92,0-2.91,2.06-3,5.22H172.16z"/>
	<path class="st0" d="M177.18,62.85c0-2.34,2.09-3.57,7.25-4.78v-0.8c0-2.64-1.04-3.55-2.69-3.55c-1.48,0-2.75,0.63-2.75,1.13
		c0,0.08,0.03,0.11,0.14,0.11c0.55,0,1.15,0.52,1.15,1.21c0,0.71-0.55,1.26-1.24,1.26c-0.71,0-1.24-0.52-1.24-1.32
		c0-1.43,1.51-2.78,4.45-2.78c2.2,0,4.12,0.8,4.12,4.04v5.63c0,1.15,0.33,1.51,0.71,1.51c0.66,0,0.93-0.69,0.96-2.2h0.38
		c-0.05,2.61-0.96,3.11-2.09,3.11c-1.07,0-2.06-0.6-1.92-2.58h-0.05c-0.52,1.43-2.17,2.64-4.09,2.64
		C178.53,65.49,177.18,64.61,177.18,62.85z M184.44,60.49v-1.98c-4.2,0.85-4.97,2.31-4.97,3.88c0,1.24,0.66,2.14,1.92,2.14
		C182.73,64.53,184.44,63.54,184.44,60.49z"/>
	<path class="st0" d="M189.99,62.03v-7.92h-1.87v-0.33c1.76-0.3,3.22-1.51,3.49-5.06h0.36v4.95h3.71v0.44h-3.71v8.05
		c0,1.73,0.63,2.58,1.87,2.58c1.13,0,2.03-1.24,2.14-3.66h0.38c0,2.8-1.24,4.45-3.22,4.45C191.2,65.54,189.99,64.42,189.99,62.03z"
		/>
	<path class="st0" d="M196.86,64.8h0.19c1.21,0,1.48-0.3,1.48-1.54V55.6c0-1.24-0.27-1.57-1.48-1.57h-0.19V53.7l3.65-0.22
		l-0.14,3.38h0.05c0.71-2.14,2.39-3.41,4.18-3.41c2.09,0,2.91,1.32,3.13,3.11c0.85-1.92,2.36-3.11,4.09-3.11
		c2.23,0,3.16,1.37,3.16,4.09v5.72c0,1.24,0.27,1.54,1.51,1.54h0.05v0.38h-5.3V64.8h0.27c1.24,0,1.51-0.3,1.51-1.54v-6.4
		c0-1.92-0.74-2.53-1.84-2.53c-2.01,0-3.44,2.2-3.44,4.45v4.48c0,1.24,0.27,1.54,1.51,1.54h0.25v0.38h-5.5V64.8h0.27
		c1.24,0,1.51-0.3,1.51-1.54v-6.4c0-1.92-0.74-2.53-1.84-2.53c-1.98,0-3.44,2.12-3.44,4.45v4.48c0,1.24,0.27,1.54,1.48,1.54h0.27
		v0.38h-5.44V64.8z"/>
	<path class="st0" d="M217.36,59.5c0-3.71,2.58-6.21,5.33-6.21c2.2,0,4.73,1.7,4.73,5.25c0,0.08-0.03,0.69-0.06,0.82h-7.75
		c0,3.02,1.21,5.36,3.57,5.36c2.12,0,3.19-1.07,4.09-2.39l0.3,0.22c-1.02,1.7-2.61,3.05-5,3.05
		C219.42,65.6,217.36,63.26,217.36,59.5z M223.73,58.92c1.1,0,1.4-0.36,1.4-1.24c0-2.2-0.77-3.99-2.53-3.99
		c-1.92,0-2.91,2.06-3,5.22H223.73z"/>
	<path class="st0" d="M228.51,64.8h0.19c1.21,0,1.48-0.3,1.48-1.54V55.6c0-1.24-0.27-1.57-1.48-1.57h-0.19V53.7l3.65-0.22
		l-0.14,3.38h0.05c0.74-2.23,2.47-3.41,4.26-3.41c2.23,0,3.24,1.37,3.24,4.09v5.72c0,1.24,0.27,1.54,1.51,1.54h0.06v0.38h-5.3V64.8
		h0.27c1.24,0,1.51-0.3,1.51-1.54v-6.4c0-1.92-0.82-2.53-1.92-2.53c-2.01,0-3.52,2.01-3.52,4.45v4.48c0,1.24,0.27,1.54,1.48,1.54
		h0.27v0.38h-5.44V64.8z"/>
	<path class="st0" d="M243.13,62.03v-7.92h-1.87v-0.33c1.76-0.3,3.22-1.51,3.49-5.06h0.36v4.95h3.71v0.44h-3.71v8.05
		c0,1.73,0.63,2.58,1.87,2.58c1.13,0,2.03-1.24,2.14-3.66h0.38c0,2.8-1.24,4.45-3.22,4.45C244.34,65.54,243.13,64.42,243.13,62.03z"
		/>
	<path class="st0" d="M255.96,70.41h0.33c1.21,0,1.48-0.3,1.48-1.57V55.62c0-1.26-0.27-1.57-1.48-1.57h-0.19V53.7l3.57-0.22
		l-0.08,2.8h0.06c0.88-1.7,2.06-2.88,3.85-2.88c2.25,0,4.81,2.34,4.81,6.02c0,3.63-2.5,6.05-4.92,6.05c-1.87,0-3.02-1.29-3.76-2.97
		h-0.03c0,0,0.11,1.7,0.11,3.44v2.91c0,1.26,0.27,1.57,1.48,1.57h0.63v0.38h-5.85V70.41z M265.99,59.47c0-2.86-0.66-5.63-2.78-5.63
		c-1.35,0-3.55,1.59-3.55,5.61c0,2.83,1.51,5.58,3.49,5.58C265.28,65.02,265.99,62.44,265.99,59.47z"/>
	<path class="st0" d="M269.31,64.8h0.11c1.24,0,1.51-0.33,1.51-1.65V48.4c0-1.32-0.27-1.65-1.51-1.65h-0.22v-0.38l3.68-0.41v17.2
		c0,1.32,0.27,1.65,1.48,1.65h0.22v0.38h-5.28V64.8z"/>
	<path class="st0" d="M275.5,62.85c0-2.34,2.09-3.57,7.25-4.78v-0.8c0-2.64-1.04-3.55-2.69-3.55c-1.48,0-2.75,0.63-2.75,1.13
		c0,0.08,0.03,0.11,0.14,0.11c0.55,0,1.15,0.52,1.15,1.21c0,0.71-0.55,1.26-1.24,1.26c-0.71,0-1.24-0.52-1.24-1.32
		c0-1.43,1.51-2.78,4.45-2.78c2.2,0,4.12,0.8,4.12,4.04v5.63c0,1.15,0.33,1.51,0.71,1.51c0.66,0,0.93-0.69,0.96-2.2h0.38
		c-0.06,2.61-0.96,3.11-2.09,3.11c-1.07,0-2.06-0.6-1.92-2.58h-0.05c-0.52,1.43-2.17,2.64-4.09,2.64
		C276.84,65.49,275.5,64.61,275.5,62.85z M282.75,60.49v-1.98c-4.2,0.85-4.97,2.31-4.97,3.88c0,1.24,0.66,2.14,1.92,2.14
		C281.05,64.53,282.75,63.54,282.75,60.49z"/>
	<path class="st0" d="M287.09,64.8h0.19c1.21,0,1.48-0.3,1.48-1.54V55.6c0-1.24-0.27-1.57-1.48-1.57h-0.19V53.7l3.65-0.22
		l-0.14,3.38h0.05c0.74-2.23,2.47-3.41,4.26-3.41c2.23,0,3.24,1.37,3.24,4.09v5.72c0,1.24,0.27,1.54,1.51,1.54h0.06v0.38h-5.3V64.8
		h0.27c1.24,0,1.51-0.3,1.51-1.54v-6.4c0-1.92-0.82-2.53-1.92-2.53c-2.01,0-3.52,2.01-3.52,4.45v4.48c0,1.24,0.27,1.54,1.48,1.54
		h0.27v0.38h-5.44V64.8z"/>
	<path class="st0" d="M301.22,63.81c0-0.88,0.69-1.57,1.57-1.57s1.57,0.69,1.57,1.57c0,0.88-0.69,1.57-1.57,1.57
		S301.22,64.69,301.22,63.81z"/>
</g>
</svg>
