<?xml version="1.0" encoding="utf-8"?>
<!-- Generator: Adobe Illustrator 25.4.1, SVG Export Plug-In . SVG Version: 6.00 Build 0)  -->
<svg version="1.1" id="Layer_1" xmlns="http://www.w3.org/2000/svg" xmlns:xlink="http://www.w3.org/1999/xlink" x="0px" y="0px"
	 viewBox="0 0 728 90" style="enable-background:new 0 0 728 90;" xml:space="preserve">
<style type="text/css">
	.st0{fill:#FFFFFF;}
</style>
<g>
	<path class="st0" d="M25.04,30.79c0-0.91,0.55-1.65,1.43-1.65c0.88,0,1.43,0.63,1.43,1.48c0,0.58-0.27,0.93-0.69,1.24
		c-0.22,0.16-0.44,0.28-0.44,0.44c-0.03,0.58,0.96,0.85,1.73,0.85c3.74,0,4.59-4.31,4.45-9.34c-0.77,1.46-2.12,2.36-3.55,2.36
		c-2.89,0-4.84-1.95-4.84-5.36c0-3.52,2.47-5.83,5.3-5.83c3.44,0,5.5,3.22,5.5,8.44c0,5.72-2.89,10.14-6.84,10.14
		C26.25,33.57,25.04,32.08,25.04,30.79z M32.99,20.65c0-2.69-0.88-5.3-3.05-5.3c-2.14,0-2.91,2.69-2.91,5.39
		c0,2.94,0.74,4.97,2.78,4.97C31.67,25.71,32.99,23.34,32.99,20.65z"/>
	<path class="st0" d="M43.4,27.44c0-3.57,2.8-6.13,5.39-6.13c2.58,0,5.36,2.5,5.36,6.07c0,3.49-2.78,6.24-5.36,6.24
		C46.21,33.62,43.4,30.93,43.4,27.44z M51.84,27.47c0-3.19-0.82-5.77-3.05-5.77c-2.23,0-3.05,2.53-3.05,5.72
		c0,3.16,0.77,5.83,3.05,5.83C51.07,33.24,51.84,30.63,51.84,27.47z"/>
	<path class="st0" d="M56.49,29.58v-5.94c0-1.21-0.27-1.57-1.48-1.57h-0.25v-0.36l3.68-0.22v8.57c0,1.95,0.74,2.72,2.03,2.72
		c1.7,0,3.41-2.42,3.41-4.73v-4.4c0-1.26-0.27-1.59-1.48-1.59h-0.55v-0.36l4.01-0.22v9.62c0,1.24,0.3,1.59,1.51,1.59h0.19v0.36
		l-3.66,0.41l0.14-3.41h-0.05c-0.71,1.87-2.31,3.41-4.18,3.41C57.64,33.48,56.49,32.22,56.49,29.58z"/>
	<path class="st0" d="M69.62,30.05v-7.92h-1.87v-0.33c1.76-0.3,3.22-1.51,3.49-5.06h0.36v4.95h3.71v0.44H71.6v8.05
		c0,1.73,0.63,2.58,1.87,2.58c1.13,0,2.03-1.24,2.14-3.66H76c0,2.8-1.24,4.45-3.22,4.45C70.83,33.57,69.62,32.44,69.62,30.05z"/>
	<path class="st0" d="M83.09,27.44c0-3.57,2.8-6.13,5.39-6.13c2.58,0,5.36,2.5,5.36,6.07c0,3.49-2.78,6.24-5.36,6.24
		C85.9,33.62,83.09,30.93,83.09,27.44z M91.53,27.47c0-3.19-0.82-5.77-3.05-5.77c-2.23,0-3.05,2.53-3.05,5.72
		c0,3.16,0.77,5.83,3.05,5.83C90.76,33.24,91.53,30.63,91.53,27.47z"/>
	<path class="st0" d="M95.19,32.83h0.22c1.21,0,1.48-0.3,1.48-1.54v-9.15h-1.7v-0.41h1.7v-1.9c0-3.13,1.48-5.8,4.45-5.8
		c1.65,0,2.56,0.93,2.56,2.12c0,0.91-0.6,1.43-1.35,1.43c-0.74,0-1.21-0.47-1.21-1.18c0-0.47,0.22-0.8,0.44-1.02
		c0.16-0.16,0.3-0.3,0.3-0.47c0-0.28-0.38-0.55-0.91-0.55c-1.87,0-2.31,1.98-2.31,4.7v2.67h2.8v0.41h-2.8v9.15
		c0,1.24,0.28,1.54,1.48,1.54h0.52v0.39h-5.69V32.83z"/>
	<path class="st0" d="M109.18,32.8h1.02c1.18,0,1.65-0.33,1.65-1.57V18.86c0-1.24-0.47-1.57-1.65-1.57h-1.02v-0.41
		c3-0.22,4.07-1.04,4.53-2.01h0.33v16.35c0,1.24,0.44,1.57,1.62,1.57h0.8v0.41h-7.28V32.8z"/>
	<path class="st0" d="M118.05,24.31c0-5.66,3-9.32,6.07-9.32s5.96,3.66,5.96,9.32c0,5.66-3,9.34-6.05,9.34
		C120.97,33.65,118.05,29.97,118.05,24.31z M127.53,24.31c0-5.91-1.21-8.93-3.49-8.93c-2.34,0-3.44,3.02-3.44,8.93
		c0,5.91,1.21,8.96,3.52,8.96C126.44,33.26,127.53,30.21,127.53,24.31z"/>
	<path class="st0" d="M137.46,38.43h0.33c1.21,0,1.48-0.3,1.48-1.57V23.65c0-1.26-0.27-1.57-1.48-1.57h-0.19v-0.36l3.57-0.22
		l-0.08,2.8h0.05c0.88-1.7,2.06-2.89,3.85-2.89c2.25,0,4.81,2.34,4.81,6.02c0,3.63-2.5,6.05-4.92,6.05c-1.87,0-3.02-1.29-3.76-2.97
		h-0.03c0,0,0.11,1.7,0.11,3.44v2.91c0,1.26,0.27,1.57,1.48,1.57h0.63v0.38h-5.85V38.43z M147.49,27.49c0-2.86-0.66-5.63-2.78-5.63
		c-1.35,0-3.55,1.59-3.55,5.61c0,2.83,1.51,5.58,3.49,5.58C146.77,33.05,147.49,30.46,147.49,27.49z"/>
	<path class="st0" d="M151.06,30.87c0-2.34,2.09-3.57,7.26-4.78v-0.8c0-2.64-1.04-3.55-2.69-3.55c-1.48,0-2.75,0.63-2.75,1.13
		c0,0.08,0.03,0.11,0.14,0.11c0.55,0,1.15,0.52,1.15,1.21c0,0.71-0.55,1.26-1.24,1.26c-0.71,0-1.24-0.52-1.24-1.32
		c0-1.43,1.51-2.78,4.45-2.78c2.2,0,4.12,0.8,4.12,4.04v5.63c0,1.15,0.33,1.51,0.71,1.51c0.66,0,0.93-0.69,0.96-2.2h0.38
		c-0.05,2.61-0.96,3.11-2.09,3.11c-1.07,0-2.06-0.6-1.92-2.58h-0.06c-0.52,1.43-2.17,2.64-4.09,2.64
		C152.41,33.51,151.06,32.63,151.06,30.87z M158.32,28.51v-1.98c-4.2,0.85-4.97,2.31-4.97,3.87c0,1.24,0.66,2.14,1.92,2.14
		C156.61,32.55,158.32,31.56,158.32,28.51z"/>
	<path class="st0" d="M163.87,30.05v-7.92H162v-0.33c1.76-0.3,3.22-1.51,3.49-5.06h0.36v4.95h3.71v0.44h-3.71v8.05
		c0,1.73,0.63,2.58,1.87,2.58c1.13,0,2.03-1.24,2.14-3.66h0.38c0,2.8-1.24,4.45-3.22,4.45C165.08,33.57,163.87,32.44,163.87,30.05z"
		/>
	<path class="st0" d="M170.8,32.83h0.22c1.21,0,1.48-0.3,1.48-1.54v-7.64c0-1.26-0.27-1.57-1.48-1.57h-0.22v-0.36l3.66-0.22v9.78
		c0,1.24,0.28,1.54,1.48,1.54h0.22v0.39h-5.36V32.83z M171.7,17.11c0-0.82,0.69-1.51,1.51-1.51c0.82,0,1.51,0.69,1.51,1.51
		s-0.69,1.51-1.51,1.51C172.39,18.62,171.7,17.93,171.7,17.11z"/>
	<path class="st0" d="M177.17,27.52c0-3.71,2.58-6.21,5.33-6.21c2.2,0,4.73,1.7,4.73,5.25c0,0.08-0.03,0.69-0.06,0.82h-7.75
		c0,3.02,1.21,5.36,3.57,5.36c2.12,0,3.19-1.07,4.09-2.39l0.3,0.22c-1.02,1.7-2.61,3.05-5,3.05
		C179.23,33.62,177.17,31.29,177.17,27.52z M183.55,26.94c1.1,0,1.4-0.36,1.4-1.24c0-2.2-0.77-3.98-2.53-3.98
		c-1.92,0-2.91,2.06-3,5.22H183.55z"/>
	<path class="st0" d="M188.33,32.83h0.19c1.21,0,1.48-0.3,1.48-1.54v-7.67c0-1.24-0.27-1.57-1.48-1.57h-0.19v-0.33l3.65-0.22
		l-0.14,3.38h0.05c0.74-2.23,2.47-3.41,4.26-3.41c2.23,0,3.24,1.37,3.24,4.1v5.72c0,1.24,0.27,1.54,1.51,1.54h0.06v0.39h-5.3v-0.39
		h0.27c1.24,0,1.51-0.3,1.51-1.54v-6.4c0-1.92-0.82-2.53-1.92-2.53c-2.01,0-3.52,2.01-3.52,4.45v4.48c0,1.24,0.27,1.54,1.48,1.54
		h0.27v0.39h-5.44V32.83z"/>
	<path class="st0" d="M202.96,30.05v-7.92h-1.87v-0.33c1.76-0.3,3.22-1.51,3.49-5.06h0.36v4.95h3.71v0.44h-3.71v8.05
		c0,1.73,0.63,2.58,1.87,2.58c1.13,0,2.03-1.24,2.14-3.66h0.38c0,2.8-1.24,4.45-3.22,4.45C204.16,33.57,202.96,32.44,202.96,30.05z"
		/>
	<path class="st0" d="M211.83,32.52c-0.41,0-0.77,0.33-0.99,0.93h-0.27v-4.67h0.25c0.47,2.69,2.67,4.31,4.84,4.31
		c1.62,0,2.78-0.93,2.78-2.23c0-1.24-0.85-1.7-3.63-2.5c-2.42-0.69-4.1-1.32-4.1-3.71c0-1.98,1.48-3.22,3.57-3.22
		c1.59,0,2.31,0.71,3.16,0.71c0.44,0,0.8-0.22,0.99-0.69h0.27v4.18h-0.25c-0.44-2.25-2.01-3.82-4.31-3.82
		c-1.26,0-2.28,0.82-2.28,2.03c0,1.29,1.07,1.7,3.38,2.31c3,0.8,4.34,1.65,4.34,3.82c0,2.2-1.68,3.49-4.04,3.49
		C213.84,33.48,212.49,32.52,211.83,32.52z"/>
	<path class="st0" d="M226.95,32.83h0.19c1.21,0,1.48-0.3,1.48-1.54v-7.7c0-1.24-0.33-1.54-1.48-1.54h-0.19v-0.33l3.65-0.22
		l-0.19,4.64h0.06c0.85-3,2.23-4.78,4.04-4.78c1.4,0,2.2,0.82,2.2,1.79c0,1.07-0.6,1.62-1.37,1.62c-0.69,0-1.24-0.44-1.24-1.13
		c0-0.6,0.33-0.88,0.58-1.1c0.14-0.11,0.22-0.19,0.22-0.33c0-0.22-0.27-0.27-0.6-0.27c-1.98,0-3.65,3.9-3.65,6.07v3.27
		c0,1.24,0.27,1.54,1.48,1.54h0.63v0.39h-5.8V32.83z"/>
	<path class="st0" d="M237.01,27.52c0-3.71,2.58-6.21,5.33-6.21c2.2,0,4.73,1.7,4.73,5.25c0,0.08-0.03,0.69-0.06,0.82h-7.75
		c0,3.02,1.21,5.36,3.57,5.36c2.12,0,3.19-1.07,4.09-2.39l0.3,0.22c-1.02,1.7-2.61,3.05-5,3.05
		C239.07,33.62,237.01,31.29,237.01,27.52z M243.38,26.94c1.1,0,1.4-0.36,1.4-1.24c0-2.2-0.77-3.98-2.53-3.98
		c-1.92,0-2.91,2.06-3,5.22H243.38z"/>
	<path class="st0" d="M247.84,38.43h0.33c1.21,0,1.48-0.3,1.48-1.57V23.65c0-1.26-0.27-1.57-1.48-1.57h-0.19v-0.36l3.57-0.22
		l-0.08,2.8h0.06c0.88-1.7,2.06-2.89,3.85-2.89c2.25,0,4.81,2.34,4.81,6.02c0,3.63-2.5,6.05-4.92,6.05c-1.87,0-3.02-1.29-3.76-2.97
		h-0.03c0,0,0.11,1.7,0.11,3.44v2.91c0,1.26,0.27,1.57,1.48,1.57h0.63v0.38h-5.85V38.43z M257.87,27.49c0-2.86-0.66-5.63-2.78-5.63
		c-1.35,0-3.55,1.59-3.55,5.61c0,2.83,1.51,5.58,3.49,5.58C257.15,33.05,257.87,30.46,257.87,27.49z"/>
	<path class="st0" d="M261.5,27.44c0-3.57,2.8-6.13,5.39-6.13s5.36,2.5,5.36,6.07c0,3.49-2.78,6.24-5.36,6.24
		S261.5,30.93,261.5,27.44z M269.94,27.47c0-3.19-0.82-5.77-3.05-5.77s-3.05,2.53-3.05,5.72c0,3.16,0.77,5.83,3.05,5.83
		S269.94,30.63,269.94,27.47z"/>
	<path class="st0" d="M273.26,32.83h0.19c1.21,0,1.48-0.3,1.48-1.54v-7.7c0-1.24-0.33-1.54-1.48-1.54h-0.19v-0.33l3.66-0.22
		l-0.19,4.64h0.05c0.85-3,2.23-4.78,4.04-4.78c1.4,0,2.2,0.82,2.2,1.79c0,1.07-0.6,1.62-1.37,1.62c-0.69,0-1.24-0.44-1.24-1.13
		c0-0.6,0.33-0.88,0.58-1.1c0.14-0.11,0.22-0.19,0.22-0.33c0-0.22-0.27-0.27-0.6-0.27c-1.98,0-3.66,3.9-3.66,6.07v3.27
		c0,1.24,0.27,1.54,1.48,1.54h0.63v0.39h-5.8V32.83z"/>
	<path class="st0" d="M285.11,30.05v-7.92h-1.87v-0.33c1.76-0.3,3.22-1.51,3.49-5.06h0.36v4.95h3.71v0.44h-3.71v8.05
		c0,1.73,0.63,2.58,1.87,2.58c1.13,0,2.03-1.24,2.14-3.66h0.39c0,2.8-1.24,4.45-3.22,4.45C286.32,33.57,285.11,32.44,285.11,30.05z"
		/>
	<path class="st0" d="M292.28,27.52c0-3.71,2.58-6.21,5.33-6.21c2.2,0,4.73,1.7,4.73,5.25c0,0.08-0.03,0.69-0.06,0.82h-7.75
		c0,3.02,1.21,5.36,3.57,5.36c2.12,0,3.19-1.07,4.09-2.39l0.3,0.22c-1.02,1.7-2.61,3.05-5,3.05
		C294.34,33.62,292.28,31.29,292.28,27.52z M298.66,26.94c1.1,0,1.4-0.36,1.4-1.24c0-2.2-0.77-3.98-2.53-3.98
		c-1.92,0-2.91,2.06-3,5.22H298.66z"/>
	<path class="st0" d="M303.74,27.47c0-3.41,2.17-6.05,4.84-6.05c1.65,0,2.94,1.15,3.79,2.83h0.08c-0.05-0.77-0.08-2.42-0.08-4.15
		v-3.74c0-1.26-0.3-1.57-1.51-1.57h-0.69v-0.38l4.15-0.41v17.15c0,1.24,0.25,1.59,1.46,1.59H316v0.39l-3.63,0.41l0.11-3.08h-0.08
		c-0.91,1.68-2.06,3.02-3.93,3.02C306.19,33.48,303.74,31.2,303.74,27.47z M312.37,27.44c0-4.09-2.28-5.61-3.46-5.61
		c-2.25,0-2.86,2.56-2.86,5.55c0,3.05,0.74,5.66,2.83,5.66C310.31,33.05,312.37,31.07,312.37,27.44z"/>
	<path class="st0" d="M24,57.81h0.19c1.21,0,1.48-0.3,1.48-1.54v-7.67c0-1.24-0.27-1.57-1.48-1.57H24v-0.33l3.66-0.22l-0.14,3.38
		h0.05c0.74-2.23,2.47-3.41,4.26-3.41c2.23,0,3.24,1.37,3.24,4.1v5.72c0,1.24,0.27,1.54,1.51,1.54h0.06v0.39h-5.3v-0.39h0.27
		c1.24,0,1.51-0.3,1.51-1.54v-6.4c0-1.92-0.82-2.53-1.92-2.53c-2.01,0-3.52,2.01-3.52,4.45v4.48c0,1.24,0.27,1.54,1.48,1.54h0.27
		v0.39H24V57.81z"/>
	<path class="st0" d="M37.44,52.43c0-3.57,2.8-6.13,5.39-6.13c2.58,0,5.36,2.5,5.36,6.07c0,3.49-2.78,6.24-5.36,6.24
		C40.24,58.61,37.44,55.92,37.44,52.43z M45.88,52.45c0-3.19-0.82-5.77-3.05-5.77c-2.23,0-3.05,2.53-3.05,5.72
		c0,3.16,0.77,5.83,3.05,5.83C45.11,58.22,45.88,55.61,45.88,52.45z"/>
	<path class="st0" d="M50.69,55.04v-7.91h-1.87v-0.33c1.76-0.3,3.22-1.51,3.49-5.06h0.36v4.95h3.71v0.44h-3.71v8.05
		c0,1.73,0.63,2.58,1.87,2.58c1.13,0,2.03-1.24,2.14-3.66h0.38c0,2.8-1.24,4.45-3.22,4.45C51.9,58.55,50.69,57.43,50.69,55.04z"/>
	<path class="st0" d="M57.61,57.81h0.22c1.21,0,1.48-0.3,1.48-1.54v-7.64c0-1.26-0.27-1.57-1.48-1.57h-0.22v-0.36l3.66-0.22v9.78
		c0,1.24,0.28,1.54,1.48,1.54h0.22v0.39h-5.36V57.81z M58.52,42.09c0-0.82,0.69-1.51,1.51-1.51c0.82,0,1.51,0.69,1.51,1.51
		c0,0.82-0.69,1.51-1.51,1.51C59.21,43.6,58.52,42.92,58.52,42.09z"/>
	<path class="st0" d="M63.99,52.51c0-3.38,2.72-6.21,5.94-6.21c2.14,0,3.71,1.48,3.71,3.08c0,0.93-0.6,1.51-1.37,1.51
		c-0.74,0-1.26-0.63-1.26-1.29c0-0.58,0.36-1.1,0.99-1.26c0.33-0.08,0.58,0.05,0.58-0.16c0-0.49-0.96-1.43-2.69-1.43
		c-2.47,0-3.49,2.34-3.49,5.63c0,3.02,1.21,5.3,3.71,5.3c1.65,0,2.75-0.88,3.57-1.98l0.27,0.19c-0.93,1.57-2.64,2.72-4.75,2.72
		C66.44,58.61,63.99,56.25,63.99,52.51z"/>
	<path class="st0" d="M74.74,52.51c0-3.71,2.58-6.21,5.33-6.21c2.2,0,4.73,1.7,4.73,5.25c0,0.08-0.03,0.69-0.05,0.82h-7.75
		c0,3.02,1.21,5.36,3.57,5.36c2.12,0,3.19-1.07,4.1-2.39l0.3,0.22c-1.02,1.7-2.61,3.05-5,3.05C76.8,58.61,74.74,56.27,74.74,52.51z
		 M81.11,51.93c1.1,0,1.4-0.36,1.4-1.24c0-2.2-0.77-3.98-2.53-3.98c-1.92,0-2.91,2.06-3,5.22H81.11z"/>
	<path class="st0" d="M86.14,55.86c0-2.34,2.09-3.57,7.26-4.78v-0.8c0-2.64-1.04-3.55-2.69-3.55c-1.48,0-2.75,0.63-2.75,1.13
		c0,0.08,0.03,0.11,0.14,0.11c0.55,0,1.15,0.52,1.15,1.21c0,0.71-0.55,1.26-1.24,1.26c-0.71,0-1.24-0.52-1.24-1.32
		c0-1.43,1.51-2.78,4.45-2.78c2.2,0,4.12,0.8,4.12,4.04v5.63c0,1.15,0.33,1.51,0.71,1.51c0.66,0,0.93-0.69,0.96-2.2h0.38
		c-0.05,2.61-0.96,3.11-2.09,3.11c-1.07,0-2.06-0.6-1.92-2.58h-0.06c-0.52,1.43-2.17,2.64-4.09,2.64
		C87.49,58.5,86.14,57.62,86.14,55.86z M93.4,53.5v-1.98c-4.2,0.85-4.97,2.31-4.97,3.87c0,1.24,0.66,2.14,1.92,2.14
		C91.7,57.54,93.4,56.55,93.4,53.5z"/>
	<path class="st0" d="M99.01,53.53v-12.2c0-1.26-0.27-1.57-1.48-1.57h-0.47v-0.38l3.87-0.41v5.96c0,2.12-0.08,4.31-0.08,4.31h0.05
		c1.04-1.81,2.12-2.83,3.9-2.83c2.39,0,4.73,2.58,4.73,5.99c0,3.79-2.53,6.07-4.81,6.07c-1.87,0-2.86-1.04-3.79-2.72h-0.06
		l-1.87,2.94h-0.36C98.92,57.13,99.01,55.2,99.01,53.53z M107.22,52.45c0-3.02-0.71-5.61-2.75-5.61c-1.87,0-3.57,2.28-3.57,5.58
		c0,3.08,1.54,5.61,3.52,5.61C106.04,58.03,107.22,56.49,107.22,52.45z"/>
	<path class="st0" d="M110.55,57.81h0.11c1.24,0,1.51-0.33,1.51-1.65V41.41c0-1.32-0.27-1.65-1.51-1.65h-0.22v-0.38l3.68-0.41v17.2
		c0,1.32,0.28,1.65,1.48,1.65h0.22v0.39h-5.28V57.81z"/>
	<path class="st0" d="M116.79,52.51c0-3.71,2.58-6.21,5.33-6.21c2.2,0,4.73,1.7,4.73,5.25c0,0.08-0.03,0.69-0.05,0.82h-7.75
		c0,3.02,1.21,5.36,3.57,5.36c2.12,0,3.19-1.07,4.1-2.39l0.3,0.22c-1.02,1.7-2.61,3.05-5,3.05
		C118.85,58.61,116.79,56.27,116.79,52.51z M123.17,51.93c1.1,0,1.4-0.36,1.4-1.24c0-2.2-0.77-3.98-2.53-3.98
		c-1.92,0-2.91,2.06-3,5.22H123.17z"/>
	<path class="st0" d="M134.57,57.81h0.22c1.21,0,1.48-0.3,1.48-1.54v-9.15h-1.7v-0.41h1.7v-1.9c0-3.13,1.48-5.8,4.45-5.8
		c1.65,0,2.56,0.93,2.56,2.12c0,0.91-0.6,1.43-1.35,1.43c-0.74,0-1.21-0.47-1.21-1.18c0-0.47,0.22-0.8,0.44-1.02
		c0.16-0.16,0.3-0.3,0.3-0.47c0-0.28-0.38-0.55-0.91-0.55c-1.87,0-2.31,1.98-2.31,4.7v2.67h2.8v0.41h-2.8v9.15
		c0,1.24,0.28,1.54,1.48,1.54h0.52v0.39h-5.69V57.81z"/>
	<path class="st0" d="M141.69,55.86c0-2.34,2.09-3.57,7.26-4.78v-0.8c0-2.64-1.04-3.55-2.69-3.55c-1.48,0-2.75,0.63-2.75,1.13
		c0,0.08,0.03,0.11,0.14,0.11c0.55,0,1.15,0.52,1.15,1.21c0,0.71-0.55,1.26-1.24,1.26c-0.71,0-1.24-0.52-1.24-1.32
		c0-1.43,1.51-2.78,4.45-2.78c2.2,0,4.12,0.8,4.12,4.04v5.63c0,1.15,0.33,1.51,0.71,1.51c0.66,0,0.93-0.69,0.96-2.2h0.38
		c-0.05,2.61-0.96,3.11-2.09,3.11c-1.07,0-2.06-0.6-1.92-2.58h-0.06c-0.52,1.43-2.17,2.64-4.09,2.64
		C143.04,58.5,141.69,57.62,141.69,55.86z M148.95,53.5v-1.98c-4.2,0.85-4.97,2.31-4.97,3.87c0,1.24,0.66,2.14,1.92,2.14
		C147.24,57.54,148.95,56.55,148.95,53.5z"/>
	<path class="st0" d="M154.5,55.04v-7.91h-1.87v-0.33c1.76-0.3,3.22-1.51,3.49-5.06h0.36v4.95h3.71v0.44h-3.71v8.05
		c0,1.73,0.63,2.58,1.87,2.58c1.13,0,2.03-1.24,2.14-3.66h0.38c0,2.8-1.24,4.45-3.22,4.45C155.71,58.55,154.5,57.43,154.5,55.04z"/>
	<path class="st0" d="M167.67,57.81h0.19c1.21,0,1.48-0.3,1.48-1.54v-7.7c0-1.24-0.33-1.54-1.48-1.54h-0.19v-0.33l3.66-0.22
		l-0.19,4.64h0.05c0.85-3,2.23-4.78,4.04-4.78c1.4,0,2.2,0.82,2.2,1.79c0,1.07-0.6,1.62-1.37,1.62c-0.69,0-1.24-0.44-1.24-1.13
		c0-0.6,0.33-0.88,0.58-1.1c0.14-0.11,0.22-0.19,0.22-0.33c0-0.22-0.27-0.27-0.6-0.27c-1.98,0-3.66,3.9-3.66,6.07v3.27
		c0,1.24,0.27,1.54,1.48,1.54h0.63v0.39h-5.8V57.81z"/>
	<path class="st0" d="M177.72,52.51c0-3.71,2.58-6.21,5.33-6.21c2.2,0,4.73,1.7,4.73,5.25c0,0.08-0.03,0.69-0.05,0.82h-7.75
		c0,3.02,1.21,5.36,3.57,5.36c2.12,0,3.19-1.07,4.1-2.39l0.3,0.22c-1.02,1.7-2.61,3.05-5,3.05
		C179.79,58.61,177.72,56.27,177.72,52.51z M184.1,51.93c1.1,0,1.4-0.36,1.4-1.24c0-2.2-0.77-3.98-2.53-3.98
		c-1.92,0-2.91,2.06-3,5.22H184.1z"/>
	<path class="st0" d="M189.19,52.45c0-3.41,2.17-6.05,4.84-6.05c1.65,0,2.94,1.15,3.79,2.83h0.08c-0.06-0.77-0.08-2.42-0.08-4.15
		v-3.74c0-1.26-0.3-1.57-1.51-1.57h-0.69V39.4l4.15-0.41v17.15c0,1.24,0.25,1.59,1.46,1.59h0.22v0.39l-3.63,0.41l0.11-3.08h-0.08
		c-0.91,1.68-2.06,3.02-3.93,3.02C191.63,58.47,189.19,56.19,189.19,52.45z M197.82,52.43c0-4.09-2.28-5.61-3.46-5.61
		c-2.25,0-2.86,2.56-2.86,5.55c0,3.05,0.74,5.66,2.83,5.66C195.75,58.03,197.82,56.05,197.82,52.43z"/>
	<path class="st0" d="M203.29,54.57v-5.94c0-1.21-0.27-1.57-1.48-1.57h-0.25v-0.36l3.68-0.22v8.57c0,1.95,0.74,2.72,2.03,2.72
		c1.7,0,3.41-2.42,3.41-4.73v-4.4c0-1.26-0.27-1.59-1.48-1.59h-0.55v-0.36l4.01-0.22v9.62c0,1.24,0.3,1.59,1.51,1.59h0.19v0.36
		l-3.65,0.41l0.14-3.41h-0.05c-0.71,1.87-2.31,3.41-4.18,3.41C204.44,58.47,203.29,57.21,203.29,54.57z"/>
	<path class="st0" d="M215.24,52.51c0-3.38,2.72-6.21,5.94-6.21c2.14,0,3.71,1.48,3.71,3.08c0,0.93-0.6,1.51-1.37,1.51
		c-0.74,0-1.26-0.63-1.26-1.29c0-0.58,0.36-1.1,0.99-1.26c0.33-0.08,0.58,0.05,0.58-0.16c0-0.49-0.96-1.43-2.69-1.43
		c-2.47,0-3.49,2.34-3.49,5.63c0,3.02,1.21,5.3,3.71,5.3c1.65,0,2.75-0.88,3.57-1.98l0.27,0.19c-0.93,1.57-2.64,2.72-4.75,2.72
		C217.69,58.61,215.24,56.25,215.24,52.51z"/>
	<path class="st0" d="M227.44,55.04v-7.91h-1.87v-0.33c1.76-0.3,3.22-1.51,3.49-5.06h0.36v4.95h3.71v0.44h-3.71v8.05
		c0,1.73,0.63,2.58,1.87,2.58c1.13,0,2.03-1.24,2.14-3.66h0.38c0,2.8-1.24,4.45-3.22,4.45C228.65,58.55,227.44,57.43,227.44,55.04z"
		/>
	<path class="st0" d="M234.37,57.81h0.22c1.21,0,1.48-0.3,1.48-1.54v-7.64c0-1.26-0.27-1.57-1.48-1.57h-0.22v-0.36l3.66-0.22v9.78
		c0,1.24,0.27,1.54,1.48,1.54h0.22v0.39h-5.36V57.81z M235.28,42.09c0-0.82,0.69-1.51,1.51-1.51c0.82,0,1.51,0.69,1.51,1.51
		c0,0.82-0.69,1.51-1.51,1.51C235.96,43.6,235.28,42.92,235.28,42.09z"/>
	<path class="st0" d="M240.75,52.43c0-3.57,2.8-6.13,5.39-6.13s5.36,2.5,5.36,6.07c0,3.49-2.78,6.24-5.36,6.24
		S240.75,55.92,240.75,52.43z M249.18,52.45c0-3.19-0.82-5.77-3.05-5.77s-3.05,2.53-3.05,5.72c0,3.16,0.77,5.83,3.05,5.83
		S249.18,55.61,249.18,52.45z"/>
	<path class="st0" d="M252.51,57.81h0.19c1.21,0,1.48-0.3,1.48-1.54v-7.67c0-1.24-0.27-1.57-1.48-1.57h-0.19v-0.33l3.66-0.22
		l-0.14,3.38h0.06c0.74-2.23,2.47-3.41,4.26-3.41c2.23,0,3.24,1.37,3.24,4.1v5.72c0,1.24,0.27,1.54,1.51,1.54h0.06v0.39h-5.3v-0.39
		h0.27c1.24,0,1.51-0.3,1.51-1.54v-6.4c0-1.92-0.82-2.53-1.92-2.53c-2.01,0-3.52,2.01-3.52,4.45v4.48c0,1.24,0.27,1.54,1.48,1.54
		h0.27v0.39h-5.44V57.81z"/>
	<path class="st0" d="M266.64,56.82c0-0.88,0.69-1.57,1.57-1.57s1.57,0.69,1.57,1.57s-0.69,1.57-1.57,1.57S266.64,57.7,266.64,56.82
		z"/>
	<path class="st0" d="M269.37,42.85c0.27-0.35,0.98-1.01,1.41-1.62c-0.72-0.24-1.67-0.35-2.08-0.48c-0.43-0.13-0.62-0.34-0.58-0.48
		c0.05-0.16,0.32-0.22,0.75-0.06c0.42,0.16,1.25,0.61,1.97,0.83c0-0.75-0.19-1.68-0.19-2.13c0-0.43,0.13-0.69,0.29-0.69
		c0.16,0,0.29,0.26,0.29,0.69c0,0.45-0.19,1.38-0.19,2.13c0.72-0.22,1.55-0.69,1.97-0.83c0.4-0.14,0.72-0.11,0.75,0.06
		c0.03,0.14-0.14,0.35-0.58,0.48c-0.42,0.13-1.36,0.24-2.08,0.48c0.45,0.61,1.14,1.27,1.41,1.62c0.26,0.32,0.3,0.64,0.18,0.74
		c-0.11,0.08-0.38-0.03-0.64-0.4c-0.26-0.37-0.66-1.22-1.11-1.83c-0.45,0.61-0.85,1.46-1.11,1.83c-0.24,0.34-0.51,0.48-0.62,0.4
		C269.07,43.5,269.11,43.18,269.37,42.85z"/>
</g>
</svg>
