<?xml version="1.0" encoding="utf-8"?>
<!-- Generator: Adobe Illustrator 25.4.1, SVG Export Plug-In . SVG Version: 6.00 Build 0)  -->
<svg version="1.1" id="Layer_1" xmlns="http://www.w3.org/2000/svg" xmlns:xlink="http://www.w3.org/1999/xlink" x="0px" y="0px"
	 viewBox="0 0 728 90" style="enable-background:new 0 0 728 90;" xml:space="preserve">
<style type="text/css">
	.st0{fill:#EAF5FB;}
	.st1{fill:#002457;}
</style>
<rect x="352" y="45" class="st0" width="130.09" height="23.31"/>
<g>
	<path class="st1" d="M362.99,54.74v1.83h3.56v1.74h-3.56v3.32h-2.25V53h6.71v1.74H362.99z"/>
	<path class="st1" d="M370.99,61.63h-2.25V53h2.25V61.63z"/>
	<path class="st1" d="M380.68,61.63h-2.5l-2.68-4.67l-0.65-1.31h-0.01l0.05,1.62v4.35h-1.99V53h2.5l2.68,4.67l0.65,1.31h0.01
		l-0.05-1.62V53h1.99V61.63z"/>
	<path class="st1" d="M390.44,57.32c0,2.76-1.48,4.32-4.18,4.32h-3.66V53h3.66C388.96,53,390.44,54.56,390.44,57.32z M388.14,57.32
		c0-1.73-0.64-2.62-2.11-2.62h-1.19v5.23h1.19C387.5,59.93,388.14,59.04,388.14,57.32z"/>
	<path class="st1" d="M400.38,59.68h-2.98l-0.6,1.95h-2.26l3.03-8.63h2.69l3.02,8.63h-2.31L400.38,59.68z M399.91,58.15l-0.63-2.07
		l-0.38-1.36h-0.03l-0.35,1.35l-0.64,2.08H399.91z"/>
	<path class="st1" d="M415.05,55.86c0,1.76-1.19,2.77-3.33,2.77H410v2.99h-2.25V53h3.96C413.86,53,415.05,54.01,415.05,55.86z
		 M412.79,55.84c0-0.76-0.43-1.14-1.43-1.14H410v2.29h1.36C412.35,56.99,412.79,56.61,412.79,55.84z"/>
	<path class="st1" d="M420.04,58.48h-1.35v3.15h-2.21V53h4.12c2.08,0,3.26,0.97,3.26,2.75c0,1.26-0.59,2.11-1.67,2.5l2.18,3.39
		h-2.48L420.04,58.48z M418.7,56.88h1.53c0.96,0,1.37-0.33,1.37-1.1c0-0.76-0.42-1.08-1.37-1.08h-1.53V56.88z"/>
	<path class="st1" d="M433.5,57.32c0,2.79-1.59,4.45-4.22,4.45c-2.63,0-4.24-1.66-4.24-4.45s1.61-4.45,4.24-4.45
		C431.91,52.87,433.5,54.53,433.5,57.32z M427.34,57.32c0,1.77,0.68,2.68,1.94,2.68c1.24,0,1.92-0.92,1.92-2.68
		s-0.68-2.68-1.92-2.68C428.02,54.63,427.34,55.55,427.34,57.32z"/>
	<path class="st1" d="M439.65,61.63h-2.64L433.94,53h2.37l1.58,5.22l0.47,1.7l0.46-1.67l1.61-5.24h2.29L439.65,61.63z"/>
	<path class="st1" d="M446,61.63h-2.25V53H446V61.63z"/>
	<path class="st1" d="M455.75,57.32c0,2.76-1.48,4.32-4.18,4.32h-3.66V53h3.66C454.28,53,455.75,54.56,455.75,57.32z M453.45,57.32
		c0-1.73-0.64-2.62-2.11-2.62h-1.19v5.23h1.19C452.81,59.93,453.45,59.04,453.45,57.32z"/>
	<path class="st1" d="M464.19,59.89v1.74h-6.89V53h6.72v1.74h-4.47v1.75h3.56v1.63h-3.56v1.77H464.19z"/>
	<path class="st1" d="M469.11,58.48h-1.35v3.15h-2.21V53h4.12c2.08,0,3.26,0.97,3.26,2.75c0,1.26-0.59,2.11-1.67,2.5l2.18,3.39
		h-2.48L469.11,58.48z M467.76,56.88h1.53c0.96,0,1.37-0.33,1.37-1.1c0-0.76-0.42-1.08-1.37-1.08h-1.53V56.88z"/>
</g>
</svg>
