<?xml version="1.0" encoding="utf-8"?>
<!-- Generator: Adobe Illustrator 25.4.1, SVG Export Plug-In . SVG Version: 6.00 Build 0)  -->
<svg version="1.1" id="Layer_1" xmlns="http://www.w3.org/2000/svg" xmlns:xlink="http://www.w3.org/1999/xlink" x="0px" y="0px"
	 viewBox="0 0 728 90" style="enable-background:new 0 0 728 90;" xml:space="preserve">
<style type="text/css">
	.st0{fill:#BDD6E6;}
</style>
<g>
	<path class="st0" d="M26.78,70.22l-0.34-0.77L26.3,69l-0.33,0.41l-0.66,0.65l-0.39-0.4l0.67-0.65l0.42-0.31l-0.44-0.15l-0.76-0.36
		l0.27-0.5l0.76,0.36l0.4,0.27l0.04-0.5l0.18-0.85h0.6l-0.22,0.91l-0.18,0.48l0.49-0.17l0.89-0.17l0.04,0.56l-0.87,0.17l-0.51,0.04
		l0.25,0.41l0.35,0.76L26.78,70.22z"/>
	<path class="st0" d="M32.71,67.46l-0.15,0.64h-1.54l-0.92,3.97h-0.76l0.92-3.97H28.7l0.15-0.64H32.71z"/>
	<path class="st0" d="M32.29,72.07L33.47,67h0.75l-0.53,2.3l-0.11,0.08c0.06-0.19,0.16-0.34,0.29-0.48c0.13-0.13,0.28-0.23,0.46-0.3
		s0.36-0.11,0.57-0.11c0.25,0,0.47,0.06,0.65,0.17c0.18,0.11,0.31,0.28,0.39,0.49c0.08,0.21,0.08,0.46,0.02,0.76l-0.5,2.15h-0.75
		l0.49-2.1c0.06-0.27,0.03-0.47-0.08-0.63s-0.29-0.23-0.53-0.23c-0.19,0-0.35,0.04-0.5,0.13c-0.15,0.08-0.27,0.21-0.37,0.37
		c-0.1,0.16-0.18,0.36-0.24,0.61l-0.43,1.85H32.29z"/>
	<path class="st0" d="M38.27,72.13c-0.33,0-0.62-0.07-0.85-0.21S37,71.6,36.87,71.37c-0.13-0.24-0.2-0.51-0.2-0.8
		c0-0.37,0.07-0.71,0.22-1.03c0.15-0.31,0.37-0.56,0.65-0.75s0.63-0.28,1.03-0.28c0.3,0,0.56,0.06,0.77,0.18s0.38,0.29,0.49,0.51
		S40,69.67,40,69.96c0,0.09-0.01,0.19-0.02,0.29c-0.01,0.1-0.03,0.2-0.07,0.29H37.1v-0.57h2.41l-0.27,0.2
		c0.02-0.06,0.03-0.11,0.04-0.16c0-0.05,0.01-0.1,0.01-0.15c0-0.15-0.03-0.29-0.09-0.4c-0.06-0.11-0.14-0.2-0.26-0.26
		c-0.11-0.06-0.24-0.09-0.4-0.09c-0.21,0-0.39,0.04-0.54,0.13c-0.15,0.09-0.26,0.2-0.35,0.35c-0.09,0.15-0.15,0.31-0.19,0.49
		c-0.04,0.18-0.06,0.35-0.06,0.52c0,0.2,0.04,0.37,0.12,0.51c0.08,0.14,0.18,0.25,0.32,0.33s0.3,0.12,0.49,0.12
		c0.22,0,0.4-0.05,0.54-0.14c0.14-0.09,0.25-0.21,0.33-0.36l0.6,0.32c-0.09,0.16-0.22,0.29-0.37,0.41c-0.15,0.11-0.32,0.2-0.52,0.26
		S38.51,72.13,38.27,72.13z"/>
	<path class="st0" d="M42.41,73.54l1.15-4.97h0.66l-0.17,0.96l-0.08,0.05c0.06-0.22,0.15-0.42,0.28-0.57
		c0.13-0.16,0.29-0.28,0.48-0.36c0.19-0.08,0.39-0.13,0.61-0.13c0.24,0,0.45,0.06,0.64,0.17s0.34,0.29,0.45,0.51
		c0.11,0.22,0.16,0.49,0.16,0.8c0,0.29-0.04,0.57-0.13,0.83c-0.09,0.26-0.21,0.49-0.37,0.68c-0.16,0.2-0.34,0.35-0.56,0.46
		c-0.21,0.11-0.44,0.17-0.7,0.17c-0.22,0-0.42-0.04-0.59-0.13c-0.17-0.08-0.31-0.21-0.42-0.38c-0.1-0.17-0.16-0.36-0.17-0.59
		l0.12-0.11l-0.59,2.6H42.41z M44.72,71.54c0.15,0,0.3-0.04,0.43-0.12c0.14-0.08,0.25-0.18,0.36-0.33c0.1-0.14,0.18-0.3,0.24-0.48
		c0.06-0.18,0.08-0.37,0.08-0.58c0-0.2-0.03-0.37-0.1-0.51c-0.07-0.14-0.16-0.24-0.29-0.31c-0.12-0.07-0.27-0.11-0.43-0.11
		c-0.17,0-0.32,0.04-0.45,0.12c-0.14,0.08-0.25,0.19-0.35,0.33c-0.1,0.14-0.18,0.3-0.23,0.49c-0.05,0.19-0.08,0.39-0.08,0.59
		c0,0.27,0.07,0.49,0.21,0.65C44.25,71.46,44.45,71.54,44.72,71.54z"/>
	<path class="st0" d="M47.07,72.07l0.81-3.5h0.63l-0.11,0.94l-0.08-0.07c0.07-0.2,0.18-0.36,0.3-0.5s0.28-0.25,0.44-0.33
		c0.17-0.08,0.34-0.12,0.52-0.12c0.07,0,0.14,0,0.2,0.01c0.06,0.01,0.11,0.03,0.15,0.05l-0.2,0.67c-0.05-0.02-0.1-0.04-0.16-0.05
		c-0.06-0.01-0.13-0.02-0.22-0.02c-0.17,0-0.33,0.04-0.48,0.12c-0.15,0.08-0.28,0.2-0.39,0.35s-0.2,0.37-0.26,0.62l-0.42,1.81H47.07
		z"/>
	<path class="st0" d="M51.42,68.57l-0.81,3.5h-0.75l0.81-3.5H51.42z M51.24,67.99c-0.14,0-0.25-0.04-0.34-0.11
		c-0.08-0.08-0.12-0.18-0.11-0.31c0-0.16,0.06-0.29,0.15-0.38c0.1-0.09,0.22-0.13,0.37-0.13c0.14,0,0.26,0.04,0.34,0.11
		c0.08,0.07,0.12,0.17,0.12,0.3c-0.01,0.17-0.06,0.3-0.16,0.39C51.52,67.94,51.39,67.99,51.24,67.99z"/>
	<path class="st0" d="M51.72,72.07l0.81-3.5h0.66l-0.15,0.88l-0.07-0.05c0.1-0.3,0.27-0.52,0.51-0.68c0.24-0.15,0.51-0.23,0.81-0.23
		c0.25,0,0.46,0.06,0.64,0.17c0.18,0.11,0.3,0.28,0.37,0.49s0.07,0.47,0,0.78l-0.5,2.13h-0.75l0.49-2.08
		c0.06-0.27,0.05-0.48-0.06-0.64c-0.1-0.15-0.27-0.23-0.5-0.23c-0.19,0-0.35,0.04-0.5,0.13s-0.26,0.21-0.36,0.37
		s-0.17,0.36-0.23,0.61l-0.43,1.85H51.72z M56.4,72.07l0.48-2.08c0.06-0.27,0.04-0.48-0.06-0.64c-0.1-0.15-0.27-0.23-0.49-0.23
		c-0.19,0-0.36,0.04-0.5,0.13c-0.14,0.08-0.26,0.21-0.36,0.37c-0.1,0.16-0.17,0.36-0.23,0.61l-0.07-0.68
		c0.13-0.35,0.32-0.6,0.58-0.78c0.26-0.17,0.56-0.26,0.88-0.26c0.25,0,0.46,0.06,0.64,0.17s0.3,0.28,0.37,0.49
		c0.07,0.21,0.07,0.47,0,0.78l-0.5,2.13H56.4z"/>
	<path class="st0" d="M59.73,72.13c-0.26,0-0.49-0.06-0.69-0.19c-0.2-0.12-0.36-0.3-0.47-0.52c-0.11-0.22-0.17-0.49-0.17-0.79
		c0-0.28,0.04-0.55,0.13-0.81c0.09-0.26,0.21-0.48,0.36-0.68s0.34-0.35,0.56-0.47c0.22-0.11,0.45-0.17,0.71-0.17
		c0.19,0,0.37,0.03,0.52,0.1s0.29,0.16,0.4,0.29c0.11,0.13,0.18,0.28,0.22,0.46l0.18-0.78h0.75l-0.81,3.5h-0.66l0.12-0.65
		c-0.12,0.21-0.28,0.39-0.48,0.51C60.2,72.06,59.98,72.13,59.73,72.13z M59.99,71.53c0.15,0,0.29-0.04,0.42-0.12
		c0.13-0.08,0.25-0.19,0.35-0.33c0.1-0.14,0.18-0.3,0.24-0.49s0.09-0.38,0.09-0.58c0-0.19-0.03-0.35-0.1-0.49
		c-0.07-0.14-0.16-0.24-0.28-0.32c-0.12-0.07-0.26-0.11-0.42-0.11c-0.17,0-0.33,0.04-0.47,0.12c-0.14,0.08-0.26,0.19-0.36,0.33
		c-0.1,0.14-0.18,0.3-0.23,0.48c-0.06,0.18-0.08,0.37-0.08,0.56c0,0.2,0.03,0.37,0.1,0.51c0.06,0.14,0.16,0.25,0.29,0.32
		C59.66,71.5,59.81,71.53,59.99,71.53z"/>
	<path class="st0" d="M62.55,72.07l0.81-3.5h0.63l-0.11,0.94l-0.08-0.07c0.07-0.2,0.18-0.36,0.3-0.5s0.28-0.25,0.44-0.33
		c0.17-0.08,0.34-0.12,0.52-0.12c0.07,0,0.14,0,0.2,0.01c0.06,0.01,0.11,0.03,0.15,0.05l-0.2,0.67c-0.05-0.02-0.1-0.04-0.16-0.05
		c-0.06-0.01-0.13-0.02-0.22-0.02c-0.17,0-0.33,0.04-0.48,0.12c-0.15,0.08-0.28,0.2-0.39,0.35s-0.2,0.37-0.26,0.62l-0.42,1.81H62.55
		z"/>
	<path class="st0" d="M65.34,73.58c-0.19,0-0.35-0.02-0.49-0.06c-0.14-0.04-0.25-0.1-0.34-0.17l0.26-0.58
		c0.16,0.14,0.34,0.22,0.55,0.22c0.14,0,0.26-0.04,0.37-0.11c0.11-0.08,0.22-0.19,0.32-0.35l0.27-0.44l-0.62-3.5h0.75l0.25,1.97
		l0.11,0.87l0.46-0.83l1.14-2.01h0.83l-2.53,4.06c-0.14,0.22-0.27,0.41-0.42,0.54c-0.14,0.14-0.29,0.24-0.44,0.3
		C65.67,73.54,65.51,73.58,65.34,73.58z"/>
	<path class="st0" d="M72.87,72.13c-0.35,0-0.64-0.07-0.88-0.21c-0.24-0.14-0.43-0.33-0.56-0.57c-0.13-0.24-0.2-0.5-0.2-0.79
		c0-0.4,0.08-0.75,0.23-1.06s0.37-0.55,0.65-0.73c0.28-0.18,0.61-0.27,0.98-0.27c0.34,0,0.64,0.07,0.88,0.21
		c0.24,0.14,0.42,0.33,0.55,0.57c0.13,0.24,0.19,0.5,0.19,0.8c0,0.39-0.08,0.74-0.23,1.05c-0.15,0.31-0.37,0.56-0.65,0.74
		S73.25,72.13,72.87,72.13z M72.89,71.55c0.15,0,0.3-0.04,0.43-0.11c0.13-0.07,0.25-0.18,0.35-0.31c0.1-0.14,0.18-0.29,0.23-0.47
		s0.08-0.37,0.08-0.58c0-0.19-0.03-0.35-0.09-0.5s-0.16-0.26-0.29-0.35s-0.3-0.13-0.5-0.13c-0.15,0-0.3,0.04-0.43,0.11
		s-0.25,0.18-0.35,0.31c-0.1,0.13-0.17,0.29-0.23,0.47s-0.08,0.37-0.08,0.58c0,0.18,0.03,0.34,0.1,0.49
		c0.06,0.15,0.16,0.27,0.3,0.35C72.52,71.5,72.69,71.55,72.89,71.55z"/>
	<path class="st0" d="M77.78,68.52c0.24,0,0.46,0.06,0.65,0.17c0.19,0.12,0.35,0.29,0.46,0.51c0.11,0.22,0.16,0.5,0.16,0.82
		c0,0.29-0.04,0.56-0.13,0.82c-0.09,0.25-0.21,0.48-0.37,0.67c-0.16,0.2-0.34,0.35-0.55,0.46c-0.21,0.11-0.44,0.17-0.7,0.17
		c-0.2,0-0.38-0.04-0.55-0.11c-0.16-0.07-0.3-0.17-0.4-0.3c-0.1-0.13-0.17-0.27-0.21-0.44l-0.19,0.77h-0.73L76.4,67h0.75l-0.5,2.13
		c0.11-0.18,0.27-0.33,0.47-0.44S77.53,68.52,77.78,68.52z M77.2,71.54c0.15,0,0.3-0.04,0.43-0.12c0.14-0.08,0.25-0.18,0.36-0.32
		c0.1-0.13,0.18-0.29,0.24-0.48c0.06-0.18,0.08-0.38,0.08-0.58c0-0.21-0.04-0.38-0.1-0.52c-0.07-0.14-0.17-0.24-0.29-0.31
		c-0.12-0.07-0.26-0.1-0.42-0.1c-0.17,0-0.32,0.04-0.46,0.12c-0.14,0.08-0.26,0.19-0.36,0.33s-0.18,0.3-0.23,0.49
		c-0.05,0.19-0.08,0.39-0.08,0.59c0,0.27,0.07,0.49,0.21,0.65C76.72,71.46,76.93,71.54,77.2,71.54z"/>
	<path class="st0" d="M79.06,73.58c-0.15,0-0.3-0.02-0.45-0.06c-0.15-0.04-0.26-0.1-0.35-0.19l0.22-0.59
		c0.07,0.05,0.14,0.09,0.22,0.13s0.16,0.05,0.25,0.05c0.14,0,0.24-0.04,0.32-0.11c0.08-0.07,0.14-0.22,0.19-0.43l0.9-3.81h0.75
		l-0.92,3.96c-0.08,0.36-0.23,0.63-0.43,0.79C79.55,73.49,79.32,73.58,79.06,73.58z M80.93,67.99c-0.14,0-0.25-0.04-0.34-0.11
		c-0.08-0.08-0.12-0.18-0.11-0.31c0-0.16,0.06-0.29,0.15-0.38c0.1-0.09,0.22-0.13,0.37-0.13c0.14,0,0.26,0.04,0.34,0.11
		c0.08,0.07,0.12,0.17,0.12,0.3c-0.01,0.17-0.06,0.3-0.16,0.39C81.2,67.94,81.07,67.99,80.93,67.99z"/>
	<path class="st0" d="M83.2,72.13c-0.33,0-0.62-0.07-0.85-0.21s-0.42-0.33-0.55-0.56c-0.13-0.24-0.2-0.51-0.2-0.8
		c0-0.37,0.07-0.71,0.22-1.03c0.15-0.31,0.37-0.56,0.65-0.75s0.63-0.28,1.03-0.28c0.3,0,0.56,0.06,0.77,0.18s0.38,0.29,0.49,0.51
		s0.17,0.47,0.17,0.76c0,0.09-0.01,0.19-0.02,0.29c-0.01,0.1-0.03,0.2-0.07,0.29h-2.82v-0.57h2.41l-0.27,0.2
		c0.02-0.06,0.03-0.11,0.04-0.16c0-0.05,0.01-0.1,0.01-0.15c0-0.15-0.03-0.29-0.09-0.4c-0.06-0.11-0.14-0.2-0.26-0.26
		c-0.11-0.06-0.24-0.09-0.4-0.09c-0.21,0-0.39,0.04-0.54,0.13c-0.15,0.09-0.26,0.2-0.35,0.35c-0.09,0.15-0.15,0.31-0.19,0.49
		c-0.04,0.18-0.06,0.35-0.06,0.52c0,0.2,0.04,0.37,0.12,0.51c0.08,0.14,0.18,0.25,0.32,0.33s0.3,0.12,0.49,0.12
		c0.22,0,0.4-0.05,0.54-0.14c0.14-0.09,0.25-0.21,0.33-0.36l0.6,0.32c-0.09,0.16-0.22,0.29-0.37,0.41c-0.15,0.11-0.32,0.2-0.52,0.26
		S83.43,72.13,83.2,72.13z"/>
	<path class="st0" d="M87.21,72.13c-0.34,0-0.62-0.07-0.86-0.21c-0.24-0.14-0.42-0.33-0.55-0.57c-0.13-0.24-0.19-0.51-0.19-0.8
		c0-0.4,0.08-0.75,0.23-1.05c0.16-0.3,0.38-0.55,0.66-0.72c0.28-0.18,0.61-0.27,1-0.27c0.28,0,0.53,0.05,0.74,0.14
		c0.21,0.1,0.38,0.23,0.51,0.4c0.13,0.17,0.21,0.37,0.23,0.59l-0.75,0.15c-0.01-0.2-0.08-0.36-0.2-0.5c-0.12-0.13-0.31-0.2-0.56-0.2
		c-0.16,0-0.31,0.04-0.45,0.12c-0.14,0.08-0.25,0.18-0.35,0.31s-0.18,0.29-0.23,0.47s-0.08,0.37-0.08,0.58c0,0.19,0.04,0.35,0.1,0.5
		c0.07,0.15,0.17,0.26,0.3,0.35c0.13,0.08,0.3,0.13,0.49,0.13c0.16,0,0.32-0.05,0.46-0.14s0.25-0.22,0.31-0.4l0.7,0.25
		c-0.13,0.28-0.32,0.5-0.59,0.65S87.56,72.13,87.21,72.13z"/>
	<path class="st0" d="M89.46,69.16l0.13-0.59h2.48l-0.13,0.59H89.46z M90.74,72.13c-0.24,0-0.45-0.04-0.62-0.14
		c-0.17-0.09-0.29-0.23-0.36-0.4c-0.07-0.18-0.08-0.39-0.02-0.64l0.72-3.13l0.8-0.22l-0.79,3.37c-0.05,0.21-0.02,0.35,0.08,0.44
		s0.24,0.14,0.4,0.14c0.11,0,0.21-0.01,0.29-0.04c0.08-0.03,0.15-0.06,0.22-0.11l0.06,0.55c-0.12,0.07-0.25,0.13-0.37,0.15
		C91.02,72.11,90.88,72.13,90.74,72.13z"/>
	<path class="st0" d="M93.65,68.57l-0.81,3.5h-0.75l0.81-3.5H93.65z M93.48,67.99c-0.14,0-0.25-0.04-0.34-0.11
		c-0.08-0.08-0.12-0.18-0.11-0.31c0-0.16,0.06-0.29,0.15-0.38c0.1-0.09,0.22-0.13,0.37-0.13c0.14,0,0.26,0.04,0.34,0.11
		c0.08,0.07,0.12,0.17,0.12,0.3c-0.01,0.17-0.06,0.3-0.16,0.39C93.75,67.94,93.62,67.99,93.48,67.99z"/>
	<path class="st0" d="M96.92,68.57h0.83l-2.15,3.5h-0.82l-0.56-3.5h0.74l0.38,3.12l-0.17-0.03L96.92,68.57z"/>
	<path class="st0" d="M99.44,72.13c-0.33,0-0.62-0.07-0.85-0.21s-0.42-0.33-0.55-0.56c-0.13-0.24-0.2-0.51-0.2-0.8
		c0-0.37,0.07-0.71,0.22-1.03c0.15-0.31,0.37-0.56,0.65-0.75s0.63-0.28,1.03-0.28c0.3,0,0.56,0.06,0.77,0.18s0.38,0.29,0.49,0.51
		s0.17,0.47,0.17,0.76c0,0.09-0.01,0.19-0.02,0.29c-0.01,0.1-0.03,0.2-0.07,0.29h-2.82v-0.57h2.41l-0.27,0.2
		c0.02-0.06,0.03-0.11,0.04-0.16c0-0.05,0.01-0.1,0.01-0.15c0-0.15-0.03-0.29-0.09-0.4c-0.06-0.11-0.14-0.2-0.26-0.26
		c-0.11-0.06-0.24-0.09-0.4-0.09c-0.21,0-0.39,0.04-0.54,0.13c-0.15,0.09-0.26,0.2-0.35,0.35c-0.09,0.15-0.15,0.31-0.19,0.49
		c-0.04,0.18-0.06,0.35-0.06,0.52c0,0.2,0.04,0.37,0.12,0.51c0.08,0.14,0.18,0.25,0.32,0.33s0.3,0.12,0.49,0.12
		c0.22,0,0.4-0.05,0.54-0.14c0.14-0.09,0.25-0.21,0.33-0.36l0.6,0.32c-0.09,0.16-0.22,0.29-0.37,0.41c-0.15,0.11-0.32,0.2-0.52,0.26
		S99.68,72.13,99.44,72.13z"/>
	<path class="st0" d="M104.43,72.07l-0.32-3.5h0.73l0.19,2.71l1.4-2.71h0.74l0.29,2.75l1.4-2.75h0.8l-1.9,3.5h-0.82l-0.31-2.59
		l-1.36,2.59H104.43z"/>
	<path class="st0" d="M111.06,72.13c-0.26,0-0.49-0.06-0.69-0.19c-0.2-0.12-0.36-0.3-0.47-0.52c-0.11-0.22-0.17-0.49-0.17-0.79
		c0-0.28,0.04-0.55,0.13-0.81c0.09-0.26,0.21-0.48,0.36-0.68s0.34-0.35,0.56-0.47c0.22-0.11,0.45-0.17,0.71-0.17
		c0.19,0,0.37,0.03,0.52,0.1s0.29,0.16,0.4,0.29c0.11,0.13,0.18,0.28,0.22,0.46l0.18-0.78h0.75l-0.81,3.5h-0.66l0.12-0.65
		c-0.12,0.21-0.28,0.39-0.48,0.51C111.53,72.06,111.31,72.13,111.06,72.13z M111.32,71.53c0.15,0,0.29-0.04,0.42-0.12
		c0.13-0.08,0.25-0.19,0.35-0.33c0.1-0.14,0.18-0.3,0.24-0.49s0.09-0.38,0.09-0.58c0-0.19-0.03-0.35-0.1-0.49
		c-0.07-0.14-0.16-0.24-0.28-0.32c-0.12-0.07-0.26-0.11-0.42-0.11c-0.17,0-0.33,0.04-0.47,0.12c-0.14,0.08-0.26,0.19-0.36,0.33
		c-0.1,0.14-0.18,0.3-0.23,0.48c-0.06,0.18-0.08,0.37-0.08,0.56c0,0.2,0.03,0.37,0.1,0.51c0.06,0.14,0.16,0.25,0.29,0.32
		C110.99,71.5,111.14,71.53,111.32,71.53z"/>
	<path class="st0" d="M115.49,72.15c-0.27,0-0.51-0.04-0.73-0.12c-0.22-0.08-0.41-0.19-0.58-0.34c-0.16-0.15-0.29-0.32-0.38-0.52
		l0.57-0.34c0.1,0.24,0.24,0.42,0.43,0.55s0.42,0.19,0.68,0.19c0.21,0,0.38-0.04,0.5-0.13c0.12-0.08,0.18-0.2,0.18-0.34
		c0-0.1-0.03-0.19-0.1-0.25c-0.07-0.06-0.17-0.11-0.3-0.15l-0.56-0.17c-0.31-0.08-0.54-0.21-0.68-0.37
		c-0.15-0.17-0.22-0.36-0.22-0.58c0-0.21,0.06-0.4,0.17-0.56c0.11-0.16,0.27-0.29,0.48-0.38c0.21-0.09,0.46-0.14,0.74-0.14
		c0.34,0,0.64,0.07,0.9,0.21c0.26,0.14,0.45,0.34,0.57,0.61l-0.54,0.36c-0.05-0.12-0.12-0.23-0.22-0.31s-0.2-0.16-0.33-0.21
		c-0.12-0.05-0.26-0.08-0.41-0.08c-0.23,0-0.4,0.04-0.51,0.12s-0.17,0.18-0.17,0.31c0,0.12,0.04,0.21,0.13,0.27
		c0.09,0.06,0.19,0.11,0.31,0.15l0.68,0.2c0.24,0.07,0.43,0.18,0.57,0.33c0.14,0.15,0.2,0.33,0.2,0.54c0,0.24-0.06,0.44-0.17,0.62
		c-0.12,0.17-0.28,0.31-0.49,0.4C116.01,72.1,115.77,72.15,115.49,72.15z"/>
	<path class="st0" d="M119.86,69.16l0.13-0.59h2.48l-0.13,0.59H119.86z M121.14,72.13c-0.24,0-0.45-0.04-0.62-0.14
		c-0.17-0.09-0.29-0.23-0.36-0.4c-0.07-0.18-0.08-0.39-0.02-0.64l0.72-3.13l0.8-0.22l-0.79,3.37c-0.05,0.21-0.02,0.35,0.08,0.44
		s0.24,0.14,0.4,0.14c0.11,0,0.21-0.01,0.29-0.04c0.08-0.03,0.15-0.06,0.22-0.11l0.06,0.55c-0.12,0.07-0.25,0.13-0.37,0.15
		C121.42,72.11,121.29,72.13,121.14,72.13z"/>
	<path class="st0" d="M124.34,72.13c-0.35,0-0.64-0.07-0.88-0.21c-0.24-0.14-0.43-0.33-0.56-0.57c-0.13-0.24-0.2-0.5-0.2-0.79
		c0-0.4,0.08-0.75,0.23-1.06s0.37-0.55,0.65-0.73c0.28-0.18,0.61-0.27,0.98-0.27c0.34,0,0.64,0.07,0.88,0.21
		c0.24,0.14,0.42,0.33,0.55,0.57c0.13,0.24,0.19,0.5,0.19,0.8c0,0.39-0.08,0.74-0.23,1.05c-0.15,0.31-0.37,0.56-0.65,0.74
		S124.71,72.13,124.34,72.13z M124.35,71.55c0.15,0,0.3-0.04,0.43-0.11c0.13-0.07,0.25-0.18,0.35-0.31c0.1-0.14,0.18-0.29,0.23-0.47
		s0.08-0.37,0.08-0.58c0-0.19-0.03-0.35-0.09-0.5s-0.16-0.26-0.29-0.35s-0.3-0.13-0.5-0.13c-0.15,0-0.3,0.04-0.43,0.11
		s-0.25,0.18-0.35,0.31c-0.1,0.13-0.17,0.29-0.23,0.47s-0.08,0.37-0.08,0.58c0,0.18,0.03,0.34,0.1,0.49
		c0.06,0.15,0.16,0.27,0.3,0.35C123.99,71.5,124.15,71.55,124.35,71.55z"/>
	<path class="st0" d="M130.73,72.13c-0.33,0-0.62-0.07-0.85-0.21s-0.42-0.33-0.55-0.56c-0.13-0.24-0.2-0.51-0.2-0.8
		c0-0.37,0.07-0.71,0.22-1.03c0.15-0.31,0.37-0.56,0.65-0.75s0.63-0.28,1.03-0.28c0.3,0,0.56,0.06,0.77,0.18s0.38,0.29,0.49,0.51
		s0.17,0.47,0.17,0.76c0,0.09-0.01,0.19-0.02,0.29c-0.01,0.1-0.03,0.2-0.07,0.29h-2.82v-0.57h2.41l-0.27,0.2
		c0.02-0.06,0.03-0.11,0.04-0.16c0-0.05,0.01-0.1,0.01-0.15c0-0.15-0.03-0.29-0.09-0.4c-0.06-0.11-0.14-0.2-0.26-0.26
		c-0.11-0.06-0.24-0.09-0.4-0.09c-0.21,0-0.39,0.04-0.54,0.13c-0.15,0.09-0.26,0.2-0.35,0.35c-0.09,0.15-0.15,0.31-0.19,0.49
		c-0.04,0.18-0.06,0.35-0.06,0.52c0,0.2,0.04,0.37,0.12,0.51c0.08,0.14,0.18,0.25,0.32,0.33s0.3,0.12,0.49,0.12
		c0.22,0,0.4-0.05,0.54-0.14c0.14-0.09,0.25-0.21,0.33-0.36l0.6,0.32c-0.09,0.16-0.22,0.29-0.37,0.41c-0.15,0.11-0.32,0.2-0.52,0.26
		S130.96,72.13,130.73,72.13z"/>
	<path class="st0" d="M135.82,68.57h0.83l-2.15,3.5h-0.82l-0.56-3.5h0.74l0.38,3.12l-0.17-0.03L135.82,68.57z"/>
	<path class="st0" d="M138.05,72.13c-0.26,0-0.49-0.06-0.69-0.19c-0.2-0.12-0.36-0.3-0.47-0.52c-0.11-0.22-0.17-0.49-0.17-0.79
		c0-0.28,0.04-0.55,0.13-0.81c0.09-0.26,0.21-0.48,0.36-0.68s0.34-0.35,0.56-0.47c0.22-0.11,0.45-0.17,0.71-0.17
		c0.19,0,0.37,0.03,0.52,0.1s0.29,0.16,0.4,0.29c0.11,0.13,0.18,0.28,0.22,0.46l0.18-0.78h0.75l-0.81,3.5h-0.66l0.12-0.65
		c-0.12,0.21-0.28,0.39-0.48,0.51C138.52,72.06,138.29,72.13,138.05,72.13z M138.31,71.53c0.15,0,0.29-0.04,0.42-0.12
		c0.13-0.08,0.25-0.19,0.35-0.33c0.1-0.14,0.18-0.3,0.24-0.49s0.09-0.38,0.09-0.58c0-0.19-0.03-0.35-0.1-0.49
		c-0.07-0.14-0.16-0.24-0.28-0.32c-0.12-0.07-0.26-0.11-0.42-0.11c-0.17,0-0.33,0.04-0.47,0.12c-0.14,0.08-0.26,0.19-0.36,0.33
		c-0.1,0.14-0.18,0.3-0.23,0.48c-0.06,0.18-0.08,0.37-0.08,0.56c0,0.2,0.03,0.37,0.1,0.51c0.06,0.14,0.16,0.25,0.29,0.32
		C137.98,71.5,138.13,71.53,138.31,71.53z"/>
	<path class="st0" d="M141.91,72.13c-0.35,0-0.59-0.1-0.73-0.31s-0.17-0.48-0.09-0.81l0.93-4.01h0.75l-0.93,4.02
		c-0.05,0.18-0.04,0.31,0.03,0.4c0.07,0.08,0.19,0.12,0.36,0.12c0.07,0,0.12,0,0.17-0.01c0.05,0,0.09-0.01,0.13-0.02l-0.16,0.55
		c-0.07,0.03-0.15,0.05-0.21,0.06C142.09,72.12,142.01,72.13,141.91,72.13z"/>
	<path class="st0" d="M144.39,72.13c-0.25,0-0.47-0.06-0.66-0.17c-0.19-0.11-0.32-0.27-0.41-0.48s-0.09-0.46-0.02-0.76l0.5-2.14
		h0.75l-0.48,2.08c-0.07,0.28-0.04,0.49,0.08,0.64c0.12,0.15,0.3,0.22,0.54,0.22c0.19,0,0.35-0.04,0.49-0.12
		c0.14-0.08,0.26-0.2,0.36-0.36c0.1-0.16,0.17-0.36,0.22-0.6l0.43-1.85h0.75l-0.81,3.5h-0.66l0.15-0.88l0.07,0.06
		c-0.09,0.29-0.26,0.51-0.49,0.66C144.96,72.05,144.69,72.13,144.39,72.13z"/>
	<path class="st0" d="M148.76,72.13c-0.26,0-0.49-0.06-0.69-0.19c-0.2-0.12-0.36-0.3-0.47-0.52c-0.11-0.22-0.17-0.49-0.17-0.79
		c0-0.28,0.04-0.55,0.13-0.81c0.09-0.26,0.21-0.48,0.36-0.68s0.34-0.35,0.56-0.47c0.22-0.11,0.45-0.17,0.71-0.17
		c0.19,0,0.37,0.03,0.52,0.1s0.29,0.16,0.4,0.29c0.11,0.13,0.18,0.28,0.22,0.46l0.18-0.78h0.75l-0.81,3.5h-0.66l0.12-0.65
		c-0.12,0.21-0.28,0.39-0.48,0.51C149.22,72.06,149,72.13,148.76,72.13z M149.02,71.53c0.15,0,0.29-0.04,0.42-0.12
		c0.13-0.08,0.25-0.19,0.35-0.33c0.1-0.14,0.18-0.3,0.24-0.49s0.09-0.38,0.09-0.58c0-0.19-0.03-0.35-0.1-0.49
		c-0.07-0.14-0.16-0.24-0.28-0.32c-0.12-0.07-0.26-0.11-0.42-0.11c-0.17,0-0.33,0.04-0.47,0.12c-0.14,0.08-0.26,0.19-0.36,0.33
		c-0.1,0.14-0.18,0.3-0.23,0.48c-0.06,0.18-0.08,0.37-0.08,0.56c0,0.2,0.03,0.37,0.1,0.51c0.06,0.14,0.16,0.25,0.29,0.32
		C148.68,71.5,148.83,71.53,149.02,71.53z"/>
	<path class="st0" d="M151.83,69.16l0.13-0.59h2.48l-0.13,0.59H151.83z M153.11,72.13c-0.24,0-0.45-0.04-0.62-0.14
		c-0.17-0.09-0.29-0.23-0.36-0.4c-0.07-0.18-0.08-0.39-0.02-0.64l0.72-3.13l0.8-0.22l-0.79,3.37c-0.05,0.21-0.02,0.35,0.08,0.44
		s0.24,0.14,0.4,0.14c0.11,0,0.21-0.01,0.29-0.04c0.08-0.03,0.15-0.06,0.22-0.11l0.06,0.55c-0.12,0.07-0.25,0.13-0.37,0.15
		C153.39,72.11,153.25,72.13,153.11,72.13z"/>
	<path class="st0" d="M156.28,72.13c-0.33,0-0.62-0.07-0.85-0.21s-0.42-0.33-0.55-0.56c-0.13-0.24-0.2-0.51-0.2-0.8
		c0-0.37,0.07-0.71,0.22-1.03c0.15-0.31,0.37-0.56,0.65-0.75s0.63-0.28,1.03-0.28c0.3,0,0.56,0.06,0.77,0.18s0.38,0.29,0.49,0.51
		s0.17,0.47,0.17,0.76c0,0.09-0.01,0.19-0.02,0.29c-0.01,0.1-0.03,0.2-0.07,0.29h-2.82v-0.57h2.41l-0.27,0.2
		c0.02-0.06,0.03-0.11,0.04-0.16c0-0.05,0.01-0.1,0.01-0.15c0-0.15-0.03-0.29-0.09-0.4c-0.06-0.11-0.14-0.2-0.26-0.26
		c-0.11-0.06-0.24-0.09-0.4-0.09c-0.21,0-0.39,0.04-0.54,0.13c-0.15,0.09-0.26,0.2-0.35,0.35c-0.09,0.15-0.15,0.31-0.19,0.49
		c-0.04,0.18-0.06,0.35-0.06,0.52c0,0.2,0.04,0.37,0.12,0.51c0.08,0.14,0.18,0.25,0.32,0.33s0.3,0.12,0.49,0.12
		c0.22,0,0.4-0.05,0.54-0.14c0.14-0.09,0.25-0.21,0.33-0.36l0.6,0.32c-0.09,0.16-0.22,0.29-0.37,0.41c-0.15,0.11-0.32,0.2-0.52,0.26
		S156.51,72.13,156.28,72.13z"/>
	<path class="st0" d="M162.57,72.13c-0.35,0-0.64-0.07-0.88-0.21c-0.24-0.14-0.43-0.33-0.56-0.57c-0.13-0.24-0.2-0.5-0.2-0.79
		c0-0.4,0.08-0.75,0.23-1.06s0.37-0.55,0.65-0.73c0.28-0.18,0.61-0.27,0.98-0.27c0.34,0,0.64,0.07,0.88,0.21
		c0.24,0.14,0.42,0.33,0.55,0.57c0.13,0.24,0.19,0.5,0.19,0.8c0,0.39-0.08,0.74-0.23,1.05c-0.15,0.31-0.37,0.56-0.65,0.74
		S162.95,72.13,162.57,72.13z M162.59,71.55c0.15,0,0.3-0.04,0.43-0.11c0.13-0.07,0.25-0.18,0.35-0.31c0.1-0.14,0.18-0.29,0.23-0.47
		s0.08-0.37,0.08-0.58c0-0.19-0.03-0.35-0.09-0.5s-0.16-0.26-0.29-0.35s-0.3-0.13-0.5-0.13c-0.15,0-0.3,0.04-0.43,0.11
		s-0.25,0.18-0.35,0.31c-0.1,0.13-0.17,0.29-0.23,0.47s-0.08,0.37-0.08,0.58c0,0.18,0.03,0.34,0.1,0.49
		c0.06,0.15,0.16,0.27,0.3,0.35C162.22,71.5,162.39,71.55,162.59,71.55z"/>
	<path class="st0" d="M167.74,68.57h0.83l-2.15,3.5h-0.82l-0.56-3.5h0.74l0.38,3.12l-0.17-0.03L167.74,68.57z"/>
	<path class="st0" d="M170.26,72.13c-0.33,0-0.62-0.07-0.85-0.21s-0.42-0.33-0.55-0.56c-0.13-0.24-0.2-0.51-0.2-0.8
		c0-0.37,0.07-0.71,0.22-1.03c0.15-0.31,0.37-0.56,0.65-0.75s0.63-0.28,1.03-0.28c0.3,0,0.56,0.06,0.77,0.18s0.38,0.29,0.49,0.51
		s0.17,0.47,0.17,0.76c0,0.09-0.01,0.19-0.02,0.29c-0.01,0.1-0.03,0.2-0.07,0.29h-2.82v-0.57h2.41l-0.27,0.2
		c0.02-0.06,0.03-0.11,0.04-0.16c0-0.05,0.01-0.1,0.01-0.15c0-0.15-0.03-0.29-0.09-0.4c-0.06-0.11-0.14-0.2-0.26-0.26
		c-0.11-0.06-0.24-0.09-0.4-0.09c-0.21,0-0.39,0.04-0.54,0.13c-0.15,0.09-0.26,0.2-0.35,0.35c-0.09,0.15-0.15,0.31-0.19,0.49
		c-0.04,0.18-0.06,0.35-0.06,0.52c0,0.2,0.04,0.37,0.12,0.51c0.08,0.14,0.18,0.25,0.32,0.33s0.3,0.12,0.49,0.12
		c0.22,0,0.4-0.05,0.54-0.14c0.14-0.09,0.25-0.21,0.33-0.36l0.6,0.32c-0.09,0.16-0.22,0.29-0.37,0.41c-0.15,0.11-0.32,0.2-0.52,0.26
		S170.49,72.13,170.26,72.13z"/>
	<path class="st0" d="M172.49,72.07l0.81-3.5h0.63l-0.11,0.94l-0.08-0.07c0.07-0.2,0.18-0.36,0.3-0.5s0.28-0.25,0.44-0.33
		c0.17-0.08,0.34-0.12,0.52-0.12c0.07,0,0.14,0,0.2,0.01c0.06,0.01,0.11,0.03,0.15,0.05l-0.2,0.67c-0.05-0.02-0.1-0.04-0.16-0.05
		c-0.06-0.01-0.13-0.02-0.22-0.02c-0.17,0-0.33,0.04-0.48,0.12c-0.15,0.08-0.28,0.2-0.39,0.35s-0.2,0.37-0.26,0.62l-0.42,1.81
		H172.49z"/>
	<path class="st0" d="M176.7,72.13c-0.26,0-0.49-0.06-0.69-0.19c-0.2-0.12-0.36-0.3-0.47-0.52c-0.11-0.22-0.17-0.49-0.17-0.79
		c0-0.28,0.04-0.55,0.13-0.81c0.09-0.26,0.21-0.48,0.36-0.68s0.34-0.35,0.56-0.47c0.22-0.11,0.45-0.17,0.71-0.17
		c0.19,0,0.37,0.03,0.52,0.1s0.29,0.16,0.4,0.29c0.11,0.13,0.18,0.28,0.22,0.46l0.18-0.78h0.75l-0.81,3.5h-0.66l0.12-0.65
		c-0.12,0.21-0.28,0.39-0.48,0.51C177.16,72.06,176.94,72.13,176.7,72.13z M176.96,71.53c0.15,0,0.29-0.04,0.42-0.12
		c0.13-0.08,0.25-0.19,0.35-0.33c0.1-0.14,0.18-0.3,0.24-0.49s0.09-0.38,0.09-0.58c0-0.19-0.03-0.35-0.1-0.49
		c-0.07-0.14-0.16-0.24-0.28-0.32c-0.12-0.07-0.26-0.11-0.42-0.11c-0.17,0-0.33,0.04-0.47,0.12c-0.14,0.08-0.26,0.19-0.36,0.33
		c-0.1,0.14-0.18,0.3-0.23,0.48c-0.06,0.18-0.08,0.37-0.08,0.56c0,0.2,0.03,0.37,0.1,0.51c0.06,0.14,0.16,0.25,0.29,0.32
		C176.62,71.5,176.77,71.53,176.96,71.53z"/>
	<path class="st0" d="M180.56,72.13c-0.35,0-0.59-0.1-0.73-0.31s-0.17-0.48-0.09-0.81l0.93-4.01h0.75l-0.93,4.02
		c-0.05,0.18-0.04,0.31,0.03,0.4c0.07,0.08,0.19,0.12,0.36,0.12c0.07,0,0.12,0,0.17-0.01c0.05,0,0.09-0.01,0.13-0.02l-0.16,0.55
		c-0.07,0.03-0.15,0.05-0.21,0.06C180.74,72.12,180.66,72.13,180.56,72.13z"/>
	<path class="st0" d="M182.73,72.13c-0.35,0-0.59-0.1-0.73-0.31s-0.17-0.48-0.09-0.81l0.93-4.01h0.75l-0.93,4.02
		c-0.05,0.18-0.04,0.31,0.03,0.4c0.07,0.08,0.19,0.12,0.36,0.12c0.07,0,0.12,0,0.17-0.01c0.05,0,0.09-0.01,0.13-0.02l-0.16,0.55
		c-0.07,0.03-0.15,0.05-0.21,0.06C182.92,72.12,182.83,72.13,182.73,72.13z"/>
	<path class="st0" d="M185.57,73.54l1.15-4.97h0.66l-0.17,0.96l-0.08,0.05c0.06-0.22,0.15-0.42,0.28-0.57
		c0.13-0.16,0.29-0.28,0.48-0.36c0.19-0.08,0.39-0.13,0.61-0.13c0.24,0,0.45,0.06,0.64,0.17s0.34,0.29,0.45,0.51
		c0.11,0.22,0.16,0.49,0.16,0.8c0,0.29-0.04,0.57-0.13,0.83c-0.09,0.26-0.21,0.49-0.37,0.68c-0.16,0.2-0.34,0.35-0.56,0.46
		c-0.21,0.11-0.44,0.17-0.7,0.17c-0.22,0-0.42-0.04-0.59-0.13c-0.17-0.08-0.31-0.21-0.42-0.38c-0.1-0.17-0.16-0.36-0.17-0.59
		l0.12-0.11l-0.59,2.6H185.57z M187.88,71.54c0.15,0,0.3-0.04,0.43-0.12c0.14-0.08,0.25-0.18,0.36-0.33c0.1-0.14,0.18-0.3,0.24-0.48
		c0.06-0.18,0.08-0.37,0.08-0.58c0-0.2-0.03-0.37-0.1-0.51c-0.07-0.14-0.16-0.24-0.29-0.31c-0.12-0.07-0.27-0.11-0.43-0.11
		c-0.17,0-0.32,0.04-0.45,0.12c-0.14,0.08-0.25,0.19-0.35,0.33c-0.1,0.14-0.18,0.3-0.23,0.49c-0.05,0.19-0.08,0.39-0.08,0.59
		c0,0.27,0.07,0.49,0.21,0.65C187.4,71.46,187.61,71.54,187.88,71.54z"/>
	<path class="st0" d="M191.72,72.13c-0.26,0-0.49-0.06-0.69-0.19c-0.2-0.12-0.36-0.3-0.47-0.52c-0.11-0.22-0.17-0.49-0.17-0.79
		c0-0.28,0.04-0.55,0.13-0.81c0.09-0.26,0.21-0.48,0.36-0.68s0.34-0.35,0.56-0.47c0.22-0.11,0.45-0.17,0.71-0.17
		c0.19,0,0.37,0.03,0.52,0.1s0.29,0.16,0.4,0.29c0.11,0.13,0.18,0.28,0.22,0.46l0.18-0.78h0.75l-0.81,3.5h-0.66l0.12-0.65
		c-0.12,0.21-0.28,0.39-0.48,0.51C192.19,72.06,191.97,72.13,191.72,72.13z M191.98,71.53c0.15,0,0.29-0.04,0.42-0.12
		c0.13-0.08,0.25-0.19,0.35-0.33c0.1-0.14,0.18-0.3,0.24-0.49s0.09-0.38,0.09-0.58c0-0.19-0.03-0.35-0.1-0.49
		c-0.07-0.14-0.16-0.24-0.28-0.32c-0.12-0.07-0.26-0.11-0.42-0.11c-0.17,0-0.33,0.04-0.47,0.12c-0.14,0.08-0.26,0.19-0.36,0.33
		c-0.1,0.14-0.18,0.3-0.23,0.48c-0.06,0.18-0.08,0.37-0.08,0.56c0,0.2,0.03,0.37,0.1,0.51c0.06,0.14,0.16,0.25,0.29,0.32
		C191.65,71.5,191.8,71.53,191.98,71.53z"/>
	<path class="st0" d="M194.8,69.16l0.13-0.59h2.48l-0.13,0.59H194.8z M196.08,72.13c-0.24,0-0.45-0.04-0.62-0.14
		c-0.17-0.09-0.29-0.23-0.36-0.4c-0.07-0.18-0.08-0.39-0.02-0.64l0.72-3.13l0.8-0.22l-0.79,3.37c-0.05,0.21-0.02,0.35,0.08,0.44
		s0.24,0.14,0.4,0.14c0.11,0,0.21-0.01,0.29-0.04c0.08-0.03,0.15-0.06,0.22-0.11l0.06,0.55c-0.12,0.07-0.25,0.13-0.37,0.15
		C196.36,72.11,196.22,72.13,196.08,72.13z"/>
	<path class="st0" d="M198.99,68.57l-0.81,3.5h-0.75l0.81-3.5H198.99z M198.81,67.99c-0.14,0-0.25-0.04-0.34-0.11
		c-0.08-0.08-0.12-0.18-0.11-0.31c0-0.16,0.06-0.29,0.15-0.38c0.1-0.09,0.22-0.13,0.37-0.13c0.14,0,0.26,0.04,0.34,0.11
		c0.08,0.07,0.12,0.17,0.12,0.3c-0.01,0.17-0.06,0.3-0.16,0.39C199.08,67.94,198.96,67.99,198.81,67.99z"/>
	<path class="st0" d="M201.08,72.13c-0.33,0-0.62-0.07-0.85-0.21s-0.42-0.33-0.55-0.56c-0.13-0.24-0.2-0.51-0.2-0.8
		c0-0.37,0.07-0.71,0.22-1.03c0.15-0.31,0.37-0.56,0.65-0.75s0.63-0.28,1.03-0.28c0.3,0,0.56,0.06,0.77,0.18s0.38,0.29,0.49,0.51
		s0.17,0.47,0.17,0.76c0,0.09-0.01,0.19-0.02,0.29c-0.01,0.1-0.03,0.2-0.07,0.29h-2.82v-0.57h2.41l-0.27,0.2
		c0.02-0.06,0.03-0.11,0.04-0.16c0-0.05,0.01-0.1,0.01-0.15c0-0.15-0.03-0.29-0.09-0.4c-0.06-0.11-0.14-0.2-0.26-0.26
		c-0.11-0.06-0.24-0.09-0.4-0.09c-0.21,0-0.39,0.04-0.54,0.13c-0.15,0.09-0.26,0.2-0.35,0.35c-0.09,0.15-0.15,0.31-0.19,0.49
		c-0.04,0.18-0.06,0.35-0.06,0.52c0,0.2,0.04,0.37,0.12,0.51c0.08,0.14,0.18,0.25,0.32,0.33s0.3,0.12,0.49,0.12
		c0.22,0,0.4-0.05,0.54-0.14c0.14-0.09,0.25-0.21,0.33-0.36l0.6,0.32c-0.09,0.16-0.22,0.29-0.37,0.41c-0.15,0.11-0.32,0.2-0.52,0.26
		S201.32,72.13,201.08,72.13z"/>
	<path class="st0" d="M203.32,72.07l0.81-3.5h0.66l-0.15,0.88l-0.07-0.05c0.1-0.3,0.27-0.52,0.52-0.68
		c0.25-0.15,0.52-0.23,0.82-0.23c0.26,0,0.48,0.06,0.67,0.17c0.18,0.11,0.31,0.28,0.38,0.49c0.07,0.21,0.08,0.47,0.01,0.77
		l-0.5,2.13h-0.75l0.49-2.1c0.06-0.27,0.03-0.47-0.08-0.63s-0.29-0.23-0.53-0.23c-0.19,0-0.35,0.04-0.5,0.13
		c-0.15,0.08-0.27,0.21-0.37,0.37c-0.1,0.16-0.18,0.36-0.24,0.61l-0.43,1.85H203.32z"/>
	<path class="st0" d="M207.74,69.16l0.13-0.59h2.48l-0.13,0.59H207.74z M209.02,72.13c-0.24,0-0.45-0.04-0.62-0.14
		c-0.17-0.09-0.29-0.23-0.36-0.4c-0.07-0.18-0.08-0.39-0.02-0.64l0.72-3.13l0.8-0.22l-0.79,3.37c-0.05,0.21-0.02,0.35,0.08,0.44
		s0.24,0.14,0.4,0.14c0.11,0,0.21-0.01,0.29-0.04c0.08-0.03,0.15-0.06,0.22-0.11l0.06,0.55c-0.12,0.07-0.25,0.13-0.37,0.15
		C209.31,72.11,209.17,72.13,209.02,72.13z"/>
	<path class="st0" d="M214.24,72.15c-0.27,0-0.51-0.04-0.73-0.12c-0.22-0.08-0.41-0.19-0.58-0.34c-0.16-0.15-0.29-0.32-0.38-0.52
		l0.57-0.34c0.1,0.24,0.24,0.42,0.43,0.55s0.42,0.19,0.68,0.19c0.21,0,0.38-0.04,0.5-0.13c0.12-0.08,0.18-0.2,0.18-0.34
		c0-0.1-0.03-0.19-0.1-0.25c-0.07-0.06-0.17-0.11-0.3-0.15l-0.56-0.17c-0.31-0.08-0.54-0.21-0.68-0.37
		c-0.15-0.17-0.22-0.36-0.22-0.58c0-0.21,0.06-0.4,0.17-0.56c0.11-0.16,0.27-0.29,0.48-0.38c0.21-0.09,0.46-0.14,0.74-0.14
		c0.34,0,0.64,0.07,0.9,0.21c0.26,0.14,0.45,0.34,0.57,0.61l-0.54,0.36c-0.05-0.12-0.12-0.23-0.22-0.31s-0.2-0.16-0.33-0.21
		c-0.12-0.05-0.26-0.08-0.41-0.08c-0.23,0-0.4,0.04-0.51,0.12s-0.17,0.18-0.17,0.31c0,0.12,0.04,0.21,0.13,0.27
		c0.09,0.06,0.19,0.11,0.31,0.15l0.68,0.2c0.24,0.07,0.43,0.18,0.57,0.33c0.14,0.15,0.2,0.33,0.2,0.54c0,0.24-0.06,0.44-0.17,0.62
		c-0.12,0.17-0.28,0.31-0.49,0.4C214.75,72.1,214.51,72.15,214.24,72.15z"/>
	<path class="st0" d="M217.66,72.13c-0.26,0-0.49-0.06-0.69-0.19c-0.2-0.12-0.36-0.3-0.47-0.52c-0.11-0.22-0.17-0.49-0.17-0.79
		c0-0.28,0.04-0.55,0.13-0.81c0.09-0.26,0.21-0.48,0.36-0.68s0.34-0.35,0.56-0.47c0.22-0.11,0.45-0.17,0.71-0.17
		c0.19,0,0.37,0.03,0.52,0.1s0.29,0.16,0.4,0.29c0.11,0.13,0.18,0.28,0.22,0.46l0.18-0.78h0.75l-0.81,3.5h-0.66l0.12-0.65
		c-0.12,0.21-0.28,0.39-0.48,0.51C218.13,72.06,217.91,72.13,217.66,72.13z M217.92,71.53c0.15,0,0.29-0.04,0.42-0.12
		c0.13-0.08,0.25-0.19,0.35-0.33c0.1-0.14,0.18-0.3,0.24-0.49s0.09-0.38,0.09-0.58c0-0.19-0.03-0.35-0.1-0.49
		c-0.07-0.14-0.16-0.24-0.28-0.32c-0.12-0.07-0.26-0.11-0.42-0.11c-0.17,0-0.33,0.04-0.47,0.12c-0.14,0.08-0.26,0.19-0.36,0.33
		c-0.1,0.14-0.18,0.3-0.23,0.48c-0.06,0.18-0.08,0.37-0.08,0.56c0,0.2,0.03,0.37,0.1,0.51c0.06,0.14,0.16,0.25,0.29,0.32
		C217.59,71.5,217.74,71.53,217.92,71.53z"/>
	<path class="st0" d="M220.74,69.16l0.13-0.59h2.48l-0.13,0.59H220.74z M222.02,72.13c-0.24,0-0.45-0.04-0.62-0.14
		c-0.17-0.09-0.29-0.23-0.36-0.4c-0.07-0.18-0.08-0.39-0.02-0.64l0.72-3.13l0.8-0.22l-0.79,3.37c-0.05,0.21-0.02,0.35,0.08,0.44
		s0.24,0.14,0.4,0.14c0.11,0,0.21-0.01,0.29-0.04c0.08-0.03,0.15-0.06,0.22-0.11l0.06,0.55c-0.12,0.07-0.25,0.13-0.37,0.15
		C222.3,72.11,222.16,72.13,222.02,72.13z"/>
	<path class="st0" d="M224.93,68.57l-0.81,3.5h-0.75l0.81-3.5H224.93z M224.75,67.99c-0.14,0-0.25-0.04-0.34-0.11
		c-0.08-0.08-0.12-0.18-0.11-0.31c0-0.16,0.06-0.29,0.15-0.38c0.1-0.09,0.22-0.13,0.37-0.13c0.14,0,0.26,0.04,0.34,0.11
		c0.08,0.07,0.12,0.17,0.12,0.3c-0.01,0.17-0.06,0.3-0.16,0.39C225.02,67.94,224.9,67.99,224.75,67.99z"/>
	<path class="st0" d="M226.85,72.15c-0.27,0-0.51-0.04-0.73-0.12c-0.22-0.08-0.41-0.19-0.58-0.34c-0.16-0.15-0.29-0.32-0.38-0.52
		l0.57-0.34c0.1,0.24,0.24,0.42,0.43,0.55s0.42,0.19,0.68,0.19c0.21,0,0.38-0.04,0.5-0.13c0.12-0.08,0.18-0.2,0.18-0.34
		c0-0.1-0.03-0.19-0.1-0.25c-0.07-0.06-0.17-0.11-0.3-0.15l-0.56-0.17c-0.31-0.08-0.54-0.21-0.68-0.37
		c-0.15-0.17-0.22-0.36-0.22-0.58c0-0.21,0.06-0.4,0.17-0.56c0.11-0.16,0.27-0.29,0.48-0.38c0.21-0.09,0.46-0.14,0.74-0.14
		c0.34,0,0.64,0.07,0.9,0.21c0.26,0.14,0.45,0.34,0.57,0.61l-0.54,0.36c-0.05-0.12-0.12-0.23-0.22-0.31s-0.2-0.16-0.33-0.21
		c-0.12-0.05-0.26-0.08-0.41-0.08c-0.23,0-0.4,0.04-0.51,0.12s-0.17,0.18-0.17,0.31c0,0.12,0.04,0.21,0.13,0.27
		c0.09,0.06,0.19,0.11,0.31,0.15l0.68,0.2c0.24,0.07,0.43,0.18,0.57,0.33c0.14,0.15,0.2,0.33,0.2,0.54c0,0.24-0.06,0.44-0.17,0.62
		c-0.12,0.17-0.28,0.31-0.49,0.4C227.37,72.1,227.12,72.15,226.85,72.15z"/>
	<path class="st0" d="M229.1,69.16l0.14-0.59h2.46l-0.14,0.59H229.1z M229.12,72.07l0.94-4.06c0.06-0.26,0.15-0.46,0.27-0.62
		c0.12-0.15,0.27-0.27,0.44-0.34s0.38-0.11,0.61-0.11c0.14,0,0.28,0.02,0.4,0.05c0.12,0.03,0.21,0.07,0.28,0.12l-0.21,0.55
		c-0.04-0.03-0.1-0.05-0.17-0.08s-0.16-0.04-0.25-0.04c-0.19,0-0.34,0.04-0.44,0.13c-0.1,0.09-0.18,0.24-0.22,0.46l-0.11,0.5
		l-0.03,0.19l-0.75,3.25H229.12z"/>
	<path class="st0" d="M233.1,72.13c-0.26,0-0.49-0.06-0.69-0.19c-0.2-0.12-0.36-0.3-0.47-0.52c-0.11-0.22-0.17-0.49-0.17-0.79
		c0-0.28,0.04-0.55,0.13-0.81c0.09-0.26,0.21-0.48,0.36-0.68s0.34-0.35,0.56-0.47c0.22-0.11,0.45-0.17,0.71-0.17
		c0.19,0,0.37,0.03,0.52,0.1s0.29,0.16,0.4,0.29c0.11,0.13,0.18,0.28,0.22,0.46l0.18-0.78h0.75l-0.81,3.5h-0.66l0.12-0.65
		c-0.12,0.21-0.28,0.39-0.48,0.51C233.56,72.06,233.34,72.13,233.1,72.13z M233.36,71.53c0.15,0,0.29-0.04,0.42-0.12
		c0.13-0.08,0.25-0.19,0.35-0.33c0.1-0.14,0.18-0.3,0.24-0.49s0.09-0.38,0.09-0.58c0-0.19-0.03-0.35-0.1-0.49
		c-0.07-0.14-0.16-0.24-0.28-0.32c-0.12-0.07-0.26-0.11-0.42-0.11c-0.17,0-0.33,0.04-0.47,0.12c-0.14,0.08-0.26,0.19-0.36,0.33
		c-0.1,0.14-0.18,0.3-0.23,0.48c-0.06,0.18-0.08,0.37-0.08,0.56c0,0.2,0.03,0.37,0.1,0.51c0.06,0.14,0.16,0.25,0.29,0.32
		C233.02,71.5,233.17,71.53,233.36,71.53z"/>
	<path class="st0" d="M237.71,72.13c-0.34,0-0.62-0.07-0.86-0.21c-0.24-0.14-0.42-0.33-0.55-0.57c-0.13-0.24-0.19-0.51-0.19-0.8
		c0-0.4,0.08-0.75,0.23-1.05c0.16-0.3,0.38-0.55,0.66-0.72c0.28-0.18,0.61-0.27,1-0.27c0.28,0,0.53,0.05,0.74,0.14
		c0.21,0.1,0.38,0.23,0.51,0.4c0.13,0.17,0.21,0.37,0.23,0.59l-0.75,0.15c-0.01-0.2-0.08-0.36-0.2-0.5c-0.12-0.13-0.31-0.2-0.56-0.2
		c-0.16,0-0.31,0.04-0.45,0.12c-0.14,0.08-0.25,0.18-0.35,0.31s-0.18,0.29-0.23,0.47s-0.08,0.37-0.08,0.58c0,0.19,0.04,0.35,0.1,0.5
		c0.07,0.15,0.17,0.26,0.3,0.35c0.13,0.08,0.3,0.13,0.49,0.13c0.16,0,0.32-0.05,0.46-0.14s0.25-0.22,0.31-0.4l0.7,0.25
		c-0.13,0.28-0.32,0.5-0.59,0.65S238.06,72.13,237.71,72.13z"/>
	<path class="st0" d="M239.97,69.16l0.13-0.59h2.48l-0.13,0.59H239.97z M241.25,72.13c-0.24,0-0.45-0.04-0.62-0.14
		c-0.17-0.09-0.29-0.23-0.36-0.4c-0.07-0.18-0.08-0.39-0.02-0.64l0.72-3.13l0.8-0.22l-0.79,3.37c-0.05,0.21-0.02,0.35,0.08,0.44
		s0.24,0.14,0.4,0.14c0.11,0,0.21-0.01,0.29-0.04c0.08-0.03,0.15-0.06,0.22-0.11l0.06,0.55c-0.12,0.07-0.25,0.13-0.37,0.15
		C241.53,72.11,241.39,72.13,241.25,72.13z"/>
	<path class="st0" d="M244.16,68.57l-0.81,3.5h-0.75l0.81-3.5H244.16z M243.98,67.99c-0.14,0-0.25-0.04-0.34-0.11
		c-0.08-0.08-0.12-0.18-0.11-0.31c0-0.16,0.06-0.29,0.15-0.38c0.1-0.09,0.22-0.13,0.37-0.13c0.14,0,0.26,0.04,0.34,0.11
		c0.08,0.07,0.12,0.17,0.12,0.3c-0.01,0.17-0.06,0.3-0.16,0.39C244.26,67.94,244.13,67.99,243.98,67.99z"/>
	<path class="st0" d="M246.28,72.13c-0.35,0-0.64-0.07-0.88-0.21c-0.24-0.14-0.43-0.33-0.56-0.57c-0.13-0.24-0.2-0.5-0.2-0.79
		c0-0.4,0.08-0.75,0.23-1.06s0.37-0.55,0.65-0.73c0.28-0.18,0.61-0.27,0.98-0.27c0.34,0,0.64,0.07,0.88,0.21
		c0.24,0.14,0.42,0.33,0.55,0.57c0.13,0.24,0.19,0.5,0.19,0.8c0,0.39-0.08,0.74-0.23,1.05c-0.15,0.31-0.37,0.56-0.65,0.74
		S246.66,72.13,246.28,72.13z M246.3,71.55c0.15,0,0.3-0.04,0.43-0.11c0.13-0.07,0.25-0.18,0.35-0.31c0.1-0.14,0.18-0.29,0.23-0.47
		s0.08-0.37,0.08-0.58c0-0.19-0.03-0.35-0.09-0.5s-0.16-0.26-0.29-0.35s-0.3-0.13-0.5-0.13c-0.15,0-0.3,0.04-0.43,0.11
		s-0.25,0.18-0.35,0.31c-0.1,0.13-0.17,0.29-0.23,0.47s-0.08,0.37-0.08,0.58c0,0.18,0.03,0.34,0.1,0.49
		c0.06,0.15,0.16,0.27,0.3,0.35C245.93,71.5,246.1,71.55,246.3,71.55z"/>
	<path class="st0" d="M248.63,72.07l0.81-3.5h0.66l-0.15,0.88l-0.07-0.05c0.1-0.3,0.27-0.52,0.52-0.68
		c0.25-0.15,0.52-0.23,0.82-0.23c0.26,0,0.48,0.06,0.67,0.17c0.18,0.11,0.31,0.28,0.38,0.49c0.07,0.21,0.08,0.47,0.01,0.77
		l-0.5,2.13h-0.75l0.49-2.1c0.06-0.27,0.03-0.47-0.08-0.63s-0.29-0.23-0.53-0.23c-0.19,0-0.35,0.04-0.5,0.13
		c-0.15,0.08-0.27,0.21-0.37,0.37c-0.1,0.16-0.18,0.36-0.24,0.61l-0.43,1.85H248.63z"/>
	<path class="st0" d="M24.82,81.07l-0.32-3.5h0.73l0.19,2.71l1.4-2.71h0.74l0.29,2.75l1.4-2.75h0.8l-1.9,3.5h-0.82l-0.31-2.59
		l-1.36,2.59H24.82z"/>
	<path class="st0" d="M31.49,77.57l-0.81,3.5h-0.75l0.81-3.5H31.49z M31.32,76.98c-0.14,0-0.25-0.04-0.34-0.11
		c-0.08-0.08-0.12-0.18-0.11-0.31c0-0.16,0.06-0.29,0.15-0.38c0.1-0.09,0.22-0.13,0.37-0.13c0.14,0,0.26,0.04,0.34,0.11
		c0.08,0.07,0.12,0.17,0.12,0.3c-0.01,0.17-0.06,0.3-0.16,0.39C31.59,76.94,31.47,76.98,31.32,76.98z"/>
	<path class="st0" d="M32.05,78.16l0.13-0.59h2.48l-0.13,0.59H32.05z M33.33,81.12c-0.24,0-0.45-0.04-0.62-0.14
		c-0.17-0.09-0.29-0.23-0.36-0.4c-0.07-0.18-0.08-0.39-0.02-0.64l0.72-3.13l0.8-0.22l-0.79,3.37c-0.05,0.21-0.02,0.35,0.08,0.44
		s0.24,0.14,0.4,0.14c0.11,0,0.21-0.01,0.29-0.04c0.08-0.03,0.15-0.06,0.22-0.11l0.06,0.55c-0.12,0.07-0.25,0.13-0.37,0.15
		C33.61,81.11,33.48,81.12,33.33,81.12z"/>
	<path class="st0" d="M34.71,81.07l1.18-5.07h0.75l-0.53,2.3l-0.11,0.08c0.06-0.19,0.16-0.34,0.29-0.48
		c0.13-0.13,0.28-0.23,0.46-0.3s0.36-0.11,0.57-0.11c0.25,0,0.47,0.06,0.65,0.17c0.18,0.11,0.31,0.28,0.39,0.49
		c0.08,0.21,0.08,0.46,0.02,0.76l-0.5,2.15h-0.75l0.49-2.1c0.06-0.27,0.03-0.47-0.08-0.63s-0.29-0.23-0.53-0.23
		c-0.19,0-0.35,0.04-0.5,0.13c-0.15,0.08-0.27,0.21-0.37,0.37c-0.1,0.16-0.18,0.36-0.24,0.61l-0.43,1.85H34.71z"/>
	<path class="st0" d="M43.55,81.14c-0.37,0-0.7-0.08-1.01-0.23s-0.54-0.38-0.72-0.67s-0.27-0.66-0.27-1.09
		c0-0.36,0.05-0.7,0.15-1.03c0.1-0.33,0.26-0.62,0.46-0.88c0.21-0.26,0.46-0.47,0.76-0.62c0.3-0.15,0.65-0.23,1.04-0.23
		c0.31,0,0.58,0.05,0.82,0.15c0.24,0.1,0.44,0.25,0.61,0.45c0.16,0.2,0.28,0.45,0.36,0.76l-0.76,0.22
		c-0.06-0.33-0.18-0.56-0.36-0.71s-0.42-0.22-0.71-0.22c-0.26,0-0.49,0.06-0.69,0.19c-0.2,0.12-0.36,0.29-0.5,0.48
		s-0.23,0.42-0.3,0.66c-0.07,0.25-0.1,0.49-0.1,0.74c0,0.29,0.05,0.54,0.16,0.74c0.11,0.21,0.26,0.36,0.45,0.48
		c0.19,0.11,0.41,0.17,0.65,0.17c0.28,0,0.51-0.06,0.67-0.19s0.3-0.3,0.42-0.51l0.7,0.31c-0.19,0.32-0.43,0.57-0.73,0.76
		C44.36,81.04,43.99,81.14,43.55,81.14z"/>
	<path class="st0" d="M47.7,81.13c-0.35,0-0.64-0.07-0.88-0.21c-0.24-0.14-0.43-0.33-0.56-0.57c-0.13-0.24-0.2-0.5-0.2-0.79
		c0-0.4,0.08-0.75,0.23-1.06s0.37-0.55,0.65-0.73c0.28-0.18,0.61-0.27,0.98-0.27c0.34,0,0.64,0.07,0.88,0.21
		c0.24,0.14,0.42,0.33,0.55,0.57c0.13,0.24,0.19,0.5,0.19,0.8c0,0.39-0.08,0.74-0.23,1.05c-0.15,0.31-0.37,0.56-0.65,0.74
		S48.07,81.13,47.7,81.13z M47.72,80.54c0.15,0,0.3-0.04,0.43-0.11c0.13-0.07,0.25-0.18,0.35-0.31c0.1-0.14,0.18-0.29,0.23-0.47
		s0.08-0.37,0.08-0.58c0-0.19-0.03-0.35-0.09-0.5s-0.16-0.26-0.29-0.35s-0.3-0.13-0.5-0.13c-0.15,0-0.3,0.04-0.43,0.11
		s-0.25,0.18-0.35,0.31c-0.1,0.13-0.17,0.29-0.23,0.47s-0.08,0.37-0.08,0.58c0,0.18,0.03,0.34,0.1,0.49
		c0.06,0.15,0.16,0.27,0.3,0.35C47.35,80.5,47.52,80.54,47.72,80.54z"/>
	<path class="st0" d="M51.87,81.13c-0.35,0-0.64-0.07-0.88-0.21c-0.24-0.14-0.43-0.33-0.56-0.57c-0.13-0.24-0.2-0.5-0.2-0.79
		c0-0.4,0.08-0.75,0.23-1.06s0.37-0.55,0.65-0.73c0.28-0.18,0.61-0.27,0.98-0.27c0.34,0,0.64,0.07,0.88,0.21
		c0.24,0.14,0.42,0.33,0.55,0.57c0.13,0.24,0.19,0.5,0.19,0.8c0,0.39-0.08,0.74-0.23,1.05c-0.15,0.31-0.37,0.56-0.65,0.74
		S52.24,81.13,51.87,81.13z M51.89,80.54c0.15,0,0.3-0.04,0.43-0.11c0.13-0.07,0.25-0.18,0.35-0.31c0.1-0.14,0.18-0.29,0.23-0.47
		s0.08-0.37,0.08-0.58c0-0.19-0.03-0.35-0.09-0.5s-0.16-0.26-0.29-0.35s-0.3-0.13-0.5-0.13c-0.15,0-0.3,0.04-0.43,0.11
		s-0.25,0.18-0.35,0.31c-0.1,0.13-0.17,0.29-0.23,0.47s-0.08,0.37-0.08,0.58c0,0.18,0.03,0.34,0.1,0.49
		c0.06,0.15,0.16,0.27,0.3,0.35C51.52,80.5,51.68,80.54,51.89,80.54z"/>
	<path class="st0" d="M55.27,81.12c-0.35,0-0.59-0.1-0.73-0.31s-0.17-0.48-0.09-0.81l0.93-4.01h0.75l-0.93,4.02
		c-0.05,0.18-0.04,0.31,0.03,0.4c0.07,0.08,0.19,0.12,0.36,0.12c0.07,0,0.12,0,0.17-0.01c0.05,0,0.09-0.01,0.13-0.02l-0.16,0.55
		c-0.07,0.03-0.15,0.05-0.21,0.06C55.45,81.12,55.37,81.12,55.27,81.12z"/>
	<path class="st0" d="M58.59,81.13c-0.34,0-0.65-0.05-0.93-0.15c-0.28-0.1-0.53-0.25-0.73-0.44s-0.37-0.43-0.49-0.71l0.61-0.41
		c0.09,0.25,0.21,0.46,0.37,0.61s0.34,0.27,0.55,0.34s0.43,0.11,0.65,0.11c0.21,0,0.38-0.03,0.51-0.1c0.14-0.07,0.24-0.16,0.3-0.26
		c0.07-0.11,0.1-0.22,0.1-0.34c0-0.15-0.05-0.27-0.15-0.36c-0.1-0.09-0.25-0.16-0.44-0.21L58.22,79c-0.23-0.07-0.43-0.16-0.6-0.28
		s-0.29-0.25-0.38-0.41c-0.09-0.16-0.14-0.33-0.14-0.53c0-0.27,0.07-0.51,0.22-0.73c0.14-0.21,0.35-0.38,0.61-0.5
		c0.26-0.12,0.56-0.18,0.91-0.18c0.46,0,0.85,0.09,1.16,0.27c0.31,0.18,0.54,0.46,0.7,0.82l-0.62,0.39c-0.07-0.22-0.17-0.4-0.3-0.51
		c-0.13-0.12-0.28-0.2-0.45-0.25c-0.17-0.05-0.34-0.07-0.52-0.07c-0.21,0-0.38,0.03-0.51,0.09s-0.24,0.14-0.31,0.24
		c-0.07,0.1-0.1,0.21-0.1,0.34c0,0.14,0.06,0.27,0.17,0.38c0.11,0.11,0.26,0.2,0.45,0.25l0.78,0.24c0.35,0.1,0.6,0.25,0.77,0.43
		c0.17,0.18,0.26,0.41,0.26,0.69c0,0.3-0.08,0.56-0.23,0.77s-0.36,0.38-0.63,0.5S58.91,81.13,58.59,81.13z"/>
	<path class="st0" d="M62.67,81.13c-0.34,0-0.62-0.07-0.86-0.21c-0.24-0.14-0.42-0.33-0.55-0.57c-0.13-0.24-0.19-0.51-0.19-0.8
		c0-0.4,0.08-0.75,0.23-1.05c0.16-0.3,0.38-0.55,0.66-0.72c0.28-0.18,0.61-0.27,1-0.27c0.28,0,0.53,0.05,0.74,0.14
		c0.21,0.1,0.38,0.23,0.51,0.4c0.13,0.17,0.21,0.37,0.23,0.59l-0.75,0.15c-0.01-0.2-0.08-0.36-0.2-0.5c-0.12-0.13-0.31-0.2-0.56-0.2
		c-0.16,0-0.31,0.04-0.45,0.12c-0.14,0.08-0.25,0.18-0.35,0.31s-0.18,0.29-0.23,0.47s-0.08,0.37-0.08,0.58c0,0.19,0.04,0.35,0.1,0.5
		c0.07,0.15,0.17,0.26,0.3,0.35c0.13,0.08,0.3,0.13,0.49,0.13c0.16,0,0.32-0.05,0.46-0.14s0.25-0.22,0.31-0.4l0.7,0.25
		c-0.13,0.28-0.32,0.5-0.59,0.65S63.02,81.13,62.67,81.13z"/>
	<path class="st0" d="M66,81.12c-0.25,0-0.47-0.06-0.66-0.17c-0.19-0.11-0.32-0.27-0.41-0.48s-0.09-0.46-0.02-0.76l0.5-2.14h0.75
		l-0.48,2.08c-0.07,0.28-0.04,0.49,0.08,0.64c0.12,0.15,0.3,0.22,0.54,0.22c0.19,0,0.35-0.04,0.49-0.12
		c0.14-0.08,0.26-0.2,0.36-0.36c0.1-0.16,0.17-0.36,0.22-0.6l0.43-1.85h0.75l-0.81,3.5h-0.66l0.15-0.88l0.07,0.06
		c-0.09,0.29-0.26,0.51-0.49,0.66C66.57,81.05,66.3,81.12,66,81.12z"/>
	<path class="st0" d="M69.91,81.12c-0.35,0-0.59-0.1-0.73-0.31s-0.17-0.48-0.09-0.81l0.93-4.01h0.75l-0.93,4.02
		c-0.05,0.18-0.04,0.31,0.03,0.4c0.07,0.08,0.19,0.12,0.36,0.12c0.07,0,0.12,0,0.17-0.01c0.05,0,0.09-0.01,0.13-0.02l-0.16,0.55
		c-0.07,0.03-0.15,0.05-0.21,0.06C70.09,81.12,70.01,81.12,69.91,81.12z"/>
	<path class="st0" d="M70.7,82.54l1.15-4.97h0.66l-0.17,0.96l-0.08,0.05c0.06-0.22,0.15-0.42,0.28-0.57
		c0.13-0.16,0.29-0.28,0.48-0.36c0.19-0.08,0.39-0.13,0.61-0.13c0.24,0,0.45,0.06,0.64,0.17s0.34,0.29,0.45,0.51
		c0.11,0.22,0.16,0.49,0.16,0.8c0,0.29-0.04,0.57-0.13,0.83c-0.09,0.26-0.21,0.49-0.37,0.68c-0.16,0.2-0.34,0.35-0.56,0.46
		c-0.21,0.11-0.44,0.17-0.7,0.17c-0.22,0-0.42-0.04-0.59-0.13c-0.17-0.08-0.31-0.21-0.42-0.38c-0.1-0.17-0.16-0.36-0.17-0.59
		l0.12-0.11l-0.59,2.6H70.7z M73.01,80.54c0.15,0,0.3-0.04,0.43-0.12c0.14-0.08,0.25-0.18,0.36-0.33c0.1-0.14,0.18-0.3,0.24-0.48
		c0.06-0.18,0.08-0.37,0.08-0.58c0-0.2-0.03-0.37-0.1-0.51c-0.07-0.14-0.16-0.24-0.29-0.31c-0.12-0.07-0.27-0.11-0.43-0.11
		c-0.17,0-0.32,0.04-0.45,0.12c-0.14,0.08-0.25,0.19-0.35,0.33c-0.1,0.14-0.18,0.3-0.23,0.49c-0.05,0.19-0.08,0.39-0.08,0.59
		c0,0.27,0.07,0.49,0.21,0.65C72.54,80.45,72.74,80.54,73.01,80.54z"/>
	<path class="st0" d="M75.49,78.16l0.13-0.59h2.48l-0.13,0.59H75.49z M76.77,81.12c-0.24,0-0.45-0.04-0.62-0.14
		c-0.17-0.09-0.29-0.23-0.36-0.4c-0.07-0.18-0.08-0.39-0.02-0.64l0.72-3.13l0.8-0.22l-0.79,3.37c-0.05,0.21-0.02,0.35,0.08,0.44
		s0.24,0.14,0.4,0.14c0.11,0,0.21-0.01,0.29-0.04c0.08-0.03,0.15-0.06,0.22-0.11l0.06,0.55c-0.12,0.07-0.25,0.13-0.37,0.15
		C77.05,81.11,76.91,81.12,76.77,81.12z"/>
	<path class="st0" d="M79.68,77.57l-0.81,3.5h-0.75l0.81-3.5H79.68z M79.5,76.98c-0.14,0-0.25-0.04-0.34-0.11
		c-0.08-0.08-0.12-0.18-0.11-0.31c0-0.16,0.06-0.29,0.15-0.38c0.1-0.09,0.22-0.13,0.37-0.13c0.14,0,0.26,0.04,0.34,0.11
		c0.08,0.07,0.12,0.17,0.12,0.3c-0.01,0.17-0.06,0.3-0.16,0.39C79.78,76.94,79.65,76.98,79.5,76.98z"/>
	<path class="st0" d="M79.99,81.07l0.81-3.5h0.66l-0.15,0.88l-0.07-0.05c0.1-0.3,0.27-0.52,0.52-0.68c0.25-0.15,0.52-0.23,0.82-0.23
		c0.26,0,0.48,0.06,0.67,0.17c0.18,0.11,0.31,0.28,0.38,0.49c0.07,0.21,0.08,0.47,0.01,0.77l-0.5,2.13h-0.75l0.49-2.1
		c0.06-0.27,0.03-0.47-0.08-0.63s-0.29-0.23-0.53-0.23c-0.19,0-0.35,0.04-0.5,0.13c-0.15,0.08-0.27,0.21-0.37,0.37
		c-0.1,0.16-0.18,0.36-0.24,0.61l-0.43,1.85H79.99z"/>
	<path class="st0" d="M85.53,82.57c-0.2,0-0.39-0.03-0.57-0.08c-0.18-0.05-0.34-0.13-0.48-0.23c-0.14-0.1-0.25-0.22-0.34-0.37
		c-0.09-0.14-0.14-0.31-0.16-0.49l0.75-0.18c0.04,0.24,0.12,0.43,0.25,0.57C85.11,81.93,85.31,82,85.6,82
		c0.16,0,0.31-0.03,0.45-0.09c0.14-0.06,0.26-0.16,0.37-0.3s0.19-0.34,0.25-0.61l0.2-0.89l0.08-0.06c-0.07,0.29-0.21,0.51-0.43,0.68
		s-0.48,0.25-0.78,0.25c-0.26,0-0.49-0.06-0.7-0.19s-0.37-0.3-0.49-0.53c-0.12-0.22-0.18-0.48-0.18-0.75c0-0.29,0.04-0.56,0.13-0.8
		s0.21-0.46,0.36-0.64c0.16-0.18,0.34-0.33,0.56-0.43c0.21-0.1,0.45-0.15,0.71-0.15c0.22,0,0.42,0.04,0.59,0.13
		c0.17,0.09,0.31,0.21,0.42,0.38c0.1,0.17,0.16,0.37,0.16,0.61l-0.11,0.09l0.26-1.13h0.75l-0.8,3.44c-0.08,0.38-0.21,0.68-0.39,0.91
		c-0.17,0.23-0.39,0.39-0.63,0.5C86.12,82.52,85.84,82.57,85.53,82.57z M86,80.39c0.2,0,0.38-0.06,0.54-0.19
		c0.16-0.12,0.28-0.29,0.37-0.5c0.09-0.21,0.14-0.44,0.14-0.7c0-0.19-0.03-0.35-0.1-0.48c-0.07-0.13-0.16-0.24-0.28-0.31
		c-0.12-0.07-0.27-0.11-0.43-0.11c-0.22,0-0.42,0.06-0.58,0.18s-0.29,0.28-0.39,0.49c-0.09,0.21-0.14,0.44-0.14,0.7
		c0,0.27,0.08,0.49,0.23,0.67C85.5,80.3,85.72,80.39,86,80.39z"/>
	<path class="st0" d="M91.28,76.38c0.49,0,0.91,0.1,1.27,0.29c0.36,0.2,0.64,0.47,0.83,0.83c0.2,0.36,0.29,0.78,0.29,1.26
		s-0.1,0.9-0.29,1.26c-0.2,0.36-0.47,0.63-0.83,0.83c-0.36,0.2-0.78,0.29-1.27,0.29c-0.48,0-0.91-0.1-1.27-0.29
		c-0.36-0.2-0.64-0.47-0.84-0.83c-0.2-0.36-0.29-0.78-0.29-1.26s0.1-0.9,0.29-1.26c0.2-0.36,0.47-0.63,0.84-0.83
		C90.37,76.48,90.79,76.38,91.28,76.38z M91.28,76.88c-0.38,0-0.71,0.08-0.99,0.23c-0.28,0.15-0.5,0.37-0.65,0.65
		c-0.15,0.28-0.23,0.61-0.23,1s0.08,0.71,0.23,1c0.15,0.28,0.37,0.5,0.65,0.65c0.28,0.15,0.61,0.23,0.99,0.23
		c0.38,0,0.71-0.08,0.98-0.23c0.28-0.15,0.49-0.37,0.65-0.65c0.15-0.28,0.23-0.61,0.23-1s-0.08-0.71-0.23-1
		c-0.15-0.28-0.37-0.5-0.65-0.65C91.98,76.95,91.66,76.88,91.28,76.88z M90.89,77.47v2.57h-0.54v-2.57H90.89z M91.46,77.47
		c0.19,0,0.35,0.04,0.5,0.1c0.14,0.07,0.26,0.17,0.34,0.29s0.12,0.27,0.12,0.44c0,0.26-0.09,0.46-0.27,0.61
		c-0.18,0.15-0.42,0.22-0.71,0.22h-0.76v-0.39h0.73c0.15,0,0.26-0.03,0.35-0.1c0.08-0.07,0.12-0.17,0.12-0.32s-0.04-0.25-0.12-0.32
		c-0.08-0.07-0.2-0.1-0.35-0.1h-0.73v-0.43H91.46z M91.66,78.85l0.82,1.2h-0.63l-0.64-1.04L91.66,78.85z"/>
	<path class="st0" d="M97.42,82.4c-0.26-0.36-0.45-0.77-0.59-1.22s-0.21-0.92-0.21-1.39c0-0.4,0.05-0.79,0.16-1.18
		s0.26-0.75,0.45-1.09s0.44-0.66,0.72-0.94c0.29-0.28,0.61-0.53,0.98-0.73l0.29,0.41c-0.42,0.27-0.76,0.6-1.05,0.98
		c-0.28,0.38-0.49,0.79-0.64,1.25s-0.21,0.92-0.21,1.4c0,0.4,0.05,0.79,0.15,1.18c0.1,0.38,0.23,0.72,0.41,1.02L97.42,82.4z"/>
	<path class="st0" d="M98.64,81.07l0.81-3.5h0.66l-0.15,0.88l-0.07-0.05c0.1-0.3,0.27-0.52,0.52-0.68c0.25-0.15,0.52-0.23,0.82-0.23
		c0.26,0,0.48,0.06,0.67,0.17c0.18,0.11,0.31,0.28,0.38,0.49c0.07,0.21,0.08,0.47,0.01,0.77l-0.5,2.13h-0.75l0.49-2.1
		c0.06-0.27,0.03-0.47-0.08-0.63s-0.29-0.23-0.53-0.23c-0.19,0-0.35,0.04-0.5,0.13c-0.15,0.08-0.27,0.21-0.37,0.37
		c-0.1,0.16-0.18,0.36-0.24,0.61l-0.43,1.85H98.64z"/>
	<path class="st0" d="M106.48,79.32l-0.14,0.62h-3.33l0.14-0.62H106.48z M106.81,77.89l-0.14,0.62h-3.33l0.14-0.62H106.81z"/>
	<path class="st0" d="M107.83,81.07l0.71-3.06c0.04-0.14,0.07-0.27,0.1-0.39s0.07-0.23,0.1-0.35c-0.09,0.09-0.22,0.17-0.37,0.26
		c-0.15,0.08-0.31,0.15-0.48,0.21s-0.32,0.1-0.47,0.13l0.05-0.69c0.16-0.04,0.34-0.1,0.54-0.18c0.2-0.08,0.39-0.17,0.57-0.27
		c0.18-0.1,0.32-0.19,0.42-0.28h0.63l-1.07,4.62H107.83z"/>
	<path class="st0" d="M111.78,81.13c-0.34,0-0.62-0.07-0.86-0.22s-0.42-0.36-0.55-0.62c-0.13-0.27-0.19-0.58-0.19-0.94
		c0-0.16,0.01-0.32,0.03-0.48c0.02-0.16,0.04-0.32,0.08-0.47c0.06-0.28,0.15-0.54,0.27-0.79c0.11-0.25,0.26-0.46,0.43-0.65
		c0.17-0.19,0.37-0.33,0.6-0.43s0.49-0.15,0.77-0.15c0.32,0,0.6,0.07,0.83,0.22c0.23,0.15,0.4,0.35,0.53,0.62s0.19,0.58,0.19,0.93
		c0,0.16-0.01,0.32-0.03,0.47s-0.04,0.31-0.08,0.47c-0.07,0.28-0.16,0.54-0.27,0.79s-0.25,0.46-0.42,0.65s-0.36,0.33-0.57,0.44
		C112.3,81.08,112.06,81.13,111.78,81.13z M111.82,80.49c0.21,0,0.39-0.07,0.55-0.2c0.16-0.13,0.29-0.31,0.4-0.54
		c0.11-0.23,0.19-0.48,0.26-0.75c0.04-0.15,0.07-0.3,0.09-0.45c0.02-0.15,0.02-0.29,0.02-0.42c0-0.39-0.08-0.68-0.23-0.85
		c-0.15-0.18-0.36-0.27-0.62-0.27c-0.22,0-0.41,0.07-0.58,0.2s-0.31,0.31-0.42,0.54c-0.11,0.23-0.21,0.48-0.28,0.77
		c-0.03,0.15-0.06,0.3-0.08,0.44c-0.02,0.15-0.03,0.29-0.03,0.42c0,0.27,0.04,0.48,0.12,0.65c0.08,0.17,0.19,0.29,0.33,0.36
		C111.5,80.46,111.66,80.49,111.82,80.49z"/>
	<path class="st0" d="M116.3,81.14c-0.37,0-0.68-0.08-0.93-0.22c-0.25-0.15-0.44-0.36-0.56-0.63c-0.13-0.27-0.19-0.59-0.19-0.95
		c0-0.37,0.04-0.73,0.13-1.08c0.09-0.35,0.22-0.67,0.41-0.95c0.18-0.28,0.41-0.51,0.69-0.67c0.28-0.17,0.61-0.25,0.99-0.25
		c0.36,0,0.67,0.09,0.94,0.26c0.27,0.17,0.44,0.44,0.51,0.81l-0.7,0.25c-0.03-0.21-0.12-0.37-0.27-0.49
		c-0.15-0.12-0.33-0.18-0.54-0.18c-0.22,0-0.42,0.06-0.59,0.17c-0.17,0.11-0.31,0.26-0.43,0.44c-0.11,0.18-0.21,0.38-0.27,0.6
		c-0.07,0.22-0.12,0.45-0.14,0.68c0.08-0.24,0.24-0.42,0.48-0.55c0.23-0.13,0.48-0.19,0.76-0.19c0.41,0,0.74,0.12,0.98,0.35
		s0.36,0.54,0.36,0.93c0,0.32-0.07,0.6-0.2,0.86c-0.13,0.25-0.32,0.45-0.56,0.6S116.63,81.14,116.3,81.14z M116.31,80.51
		c0.19,0,0.35-0.04,0.48-0.13c0.13-0.09,0.23-0.2,0.29-0.35c0.06-0.14,0.1-0.3,0.1-0.48c0-0.22-0.07-0.41-0.22-0.56
		c-0.15-0.15-0.36-0.22-0.64-0.22c-0.19,0-0.35,0.04-0.49,0.13s-0.24,0.2-0.3,0.34c-0.07,0.14-0.1,0.29-0.1,0.44
		c0,0.13,0.02,0.25,0.07,0.35c0.04,0.1,0.11,0.19,0.19,0.26s0.18,0.13,0.28,0.16S116.18,80.51,116.31,80.51z"/>
	<path class="st0" d="M119.48,75.84c0.26,0.36,0.45,0.77,0.59,1.22s0.21,0.92,0.21,1.39c0,0.4-0.05,0.79-0.16,1.18
		c-0.1,0.38-0.26,0.75-0.45,1.09c-0.2,0.34-0.44,0.65-0.72,0.94c-0.29,0.28-0.61,0.53-0.98,0.73l-0.29-0.41
		c0.42-0.27,0.76-0.6,1.05-0.98s0.49-0.79,0.64-1.25s0.21-0.92,0.21-1.4c0-0.4-0.05-0.79-0.15-1.18c-0.1-0.38-0.23-0.72-0.41-1.02
		L119.48,75.84z"/>
	<path class="st0" d="M121.23,81.13c-0.14,0-0.25-0.04-0.34-0.12s-0.13-0.18-0.13-0.32c0-0.18,0.05-0.32,0.16-0.42
		c0.1-0.1,0.24-0.15,0.4-0.15c0.14,0,0.25,0.04,0.34,0.12c0.09,0.08,0.13,0.18,0.13,0.32c0,0.18-0.05,0.32-0.15,0.42
		S121.39,81.13,121.23,81.13z"/>
</g>
</svg>
