<?xml version="1.0" encoding="utf-8"?>
<!-- Generator: Adobe Illustrator 25.4.1, SVG Export Plug-In . SVG Version: 6.00 Build 0)  -->
<svg version="1.1" id="Layer_1" xmlns="http://www.w3.org/2000/svg" xmlns:xlink="http://www.w3.org/1999/xlink" x="0px" y="0px"
	 viewBox="0 0 728 90" style="enable-background:new 0 0 728 90;" xml:space="preserve">
<style type="text/css">
	.st0{fill:#FFFFFF;}
</style>
<g>
	<g>
		<g>
			<g>
				<path class="st0" d="M368.72,29.61c0,0.35-0.28,0.63-0.64,0.63c-0.36,0-0.65-0.28-0.65-0.63c0-0.35,0.29-0.63,0.65-0.63
					C368.44,28.98,368.72,29.26,368.72,29.61z M367.59,29.61c0,0.28,0.21,0.5,0.49,0.5c0.27,0,0.48-0.22,0.48-0.5
					c0-0.28-0.21-0.51-0.49-0.51C367.8,29.11,367.59,29.33,367.59,29.61z M367.98,29.93h-0.15v-0.63c0.06-0.01,0.14-0.02,0.24-0.02
					c0.12,0,0.17,0.02,0.21,0.05c0.04,0.03,0.07,0.07,0.07,0.13c0,0.08-0.06,0.13-0.13,0.15v0.01c0.06,0.02,0.09,0.07,0.11,0.15
					c0.02,0.1,0.03,0.13,0.05,0.15h-0.15c-0.02-0.02-0.03-0.08-0.05-0.15c-0.01-0.07-0.05-0.1-0.13-0.1h-0.07V29.93z M367.98,29.58
					h0.07c0.08,0,0.15-0.03,0.15-0.09c0-0.06-0.04-0.1-0.13-0.1c-0.04,0-0.07,0-0.08,0.01V29.58z"/>
			</g>
		</g>
	</g>
	<path class="st0" d="M378.13,27.42c-3.13,0-4.64-2.28-4.64-4.47c0-2.53,1.82-4.56,4.69-4.56c0.97,0,1.98,0.3,2.78,0.97l-0.89,1.24
		c-0.55-0.42-1.13-0.58-1.84-0.58c-1.52,0-2.65,1.06-2.65,2.88c0,1.66,1.04,2.99,2.71,2.99c0.71,0,1.33-0.21,1.88-0.69l0.81,1.24
		C380.2,27.1,379.14,27.42,378.13,27.42"/>
	<path class="st0" d="M385.79,27.42c-2.62,0-4.55-1.98-4.55-4.56c0-2.65,2.1-4.47,4.55-4.47c2.44,0,4.56,1.8,4.56,4.46
		C390.36,25.44,388.43,27.42,385.79,27.42 M388.25,22.86c0-1.59-0.78-2.97-2.46-2.97c-1.65,0-2.46,1.38-2.46,2.95
		c0,1.63,0.76,3.08,2.46,3.08c1.7,0,2.46-1.44,2.46-3.08V22.86z"/>
	<path class="st0" d="M395.67,27.42c-2.62,0-4.55-1.98-4.55-4.56c0-2.65,2.11-4.47,4.55-4.47c2.44,0,4.56,1.8,4.56,4.46
		C400.23,25.44,398.3,27.42,395.67,27.42 M398.12,22.86c0-1.59-0.78-2.97-2.46-2.97c-1.65,0-2.46,1.38-2.46,2.95
		c0,1.63,0.76,3.08,2.46,3.08c1.7,0,2.46-1.44,2.46-3.08V22.86z"/>
	<polygon class="st0" points="401.26,27.21 401.26,14.54 403.22,15.62 403.22,27.21 	"/>
	<path class="st0" d="M407.75,27.48c-2.21,0-3.27-1.06-3.27-1.06l0.89-1.15c0,0,1.01,0.67,2.33,0.67c0.64,0,1.17-0.44,1.17-0.88
		c0-0.44-0.2-0.82-0.78-1.11c-0.58-0.3-1.24-0.62-1.75-0.87c-0.51-0.25-1.64-1.01-1.64-2.5c0-1.5,1.52-2.33,3.08-2.33
		c1.49,0,2.62,0.97,2.62,0.97l-0.76,1.17c0,0-0.85-0.6-1.79-0.6c-0.94,0-1.13,0.6-1.13,0.85c0,0.25,0.09,0.64,0.69,0.95
		c0.6,0.32,1.22,0.66,2.11,1.15c0.88,0.49,1.38,1.34,1.38,2.3C410.88,25.99,409.96,27.48,407.75,27.48"/>
	<path class="st0" d="M416.19,27.42c-3.13,0-4.64-2.28-4.64-4.47c0-2.53,1.82-4.56,4.69-4.56c0.97,0,1.98,0.3,2.78,0.97l-0.88,1.24
		c-0.55-0.42-1.13-0.58-1.84-0.58c-1.52,0-2.65,1.06-2.65,2.88c0,1.66,1.04,2.99,2.71,2.99c0.71,0,1.33-0.21,1.87-0.69l0.81,1.24
		C418.26,27.1,417.19,27.42,416.19,27.42"/>
	<path class="st0" d="M425.86,26.2c0,0-0.99,1.22-2.87,1.22c-2.21,0-3.29-1.61-3.29-3.24v-5.61h1.96v5.52
		c0,0.95,0.74,1.75,1.89,1.75c1.01,0,2-1.2,2-1.2v-6.07h1.96v8.61L425.86,26.2z"/>
	<polygon class="st0" points="429.28,27.21 429.28,14.54 431.24,15.62 431.24,27.21 	"/>
	<path class="st0" d="M437.73,27.42c-1.73,0-2.72-0.97-2.72-0.97v4.3h-1.98V18.4l1.98,1.04c0,0,1.06-1.08,2.83-1.08
		c1.86,0,4.17,1.43,4.17,4.63C442.01,26.2,439.73,27.42,437.73,27.42 M437.61,19.89c-1.68,0-2.65,1.57-2.65,1.57v3.25
		c0,0,1.11,1.26,2.72,1.26c1.88,0,2.28-2.25,2.28-3.03C439.96,22.17,439.78,19.89,437.61,19.89"/>
	<path class="st0" d="M447.18,27.44h-1.24c-1.56,0-2.09-1.5-2.09-2.49v-5.08h-1.56v-1.29h1.56v-3.81h1.94v3.81h2v1.29h-1.98v4.6
		c0,0.51-0.09,1.33,0.78,1.33h1.42L447.18,27.44z"/>
	<path class="st0" d="M450.33,17.09c-0.71,0-1.29-0.58-1.29-1.29c0-0.71,0.59-1.29,1.29-1.29c0.71,0,1.29,0.58,1.29,1.29
		C451.62,16.51,451.04,17.09,450.33,17.09 M449.36,18.58h1.93v8.63h-1.93V18.58z"/>
	<path class="st0" d="M459.07,27.21v-5.52c0-0.95-0.74-1.75-1.89-1.75c-1.01,0-2.14,1.2-2.14,1.2v6.07h-1.96V18.6l1.66,0.99
		c0,0,1.13-1.22,3.01-1.22c2.21,0,3.29,1.61,3.29,3.24v5.61H459.07z"/>
	<path class="st0" d="M467.03,31.22c-0.3,0-2.6-0.03-2.6-0.03l0.03-1.57h1.93c1.87,0,2.94-1.01,2.94-2.39v-0.78
		c0,0-1.03,0.98-2.76,0.98c-2,0-4.28-1.22-4.28-4.43c0-3.2,2.32-4.63,4.18-4.63c1.77,0,2.83,1.08,2.83,1.08l1.98-0.99v8.58
		C471.28,29.35,469.74,31.22,467.03,31.22 M469.35,21.46c0,0-0.97-1.57-2.65-1.57c-2.18,0-2.35,2.28-2.35,3.06
		c0,0.78,0.41,3.03,2.28,3.03c1.61,0,2.72-1.26,2.72-1.26V21.46z"/>
	<polygon class="st0" points="355.92,33.76 355.92,28.12 357.02,27.01 360.22,30.2 360.22,31.28 	"/>
	<polygon class="st0" points="353.62,23.28 350,26.9 354.43,28.56 359.71,23.28 	"/>
	<polygon class="st0" points="355.4,18.24 350.74,18.24 352.23,22.54 359.71,22.54 	"/>
	<polygon class="st0" points="360.23,15.94 356.63,12.34 354.95,16.75 360.23,22.03 	"/>
	<polygon class="st0" points="371.11,27.59 365.79,27.59 361.48,23.28 368.95,23.28 	"/>
	<polygon class="st0" points="366.76,17.27 371.59,18.53 367.57,22.55 361.48,22.55 	"/>
	<polygon class="st0" points="360.96,14.56 365.27,12 365.27,17.72 360.96,22.03 	"/>
	<polygon class="st0" points="366.44,29.29 365.06,34 357.55,26.48 360.59,23.44 	"/>
	<g>
		<path class="st0" d="M474.21,19.16c0,0.51-0.41,0.91-0.93,0.91c-0.52,0-0.94-0.4-0.94-0.91c0-0.51,0.42-0.91,0.94-0.91
			C473.8,18.25,474.21,18.65,474.21,19.16z M472.57,19.16c0,0.4,0.31,0.73,0.71,0.73c0.39,0.01,0.69-0.32,0.69-0.72
			c0-0.4-0.3-0.73-0.71-0.73C472.87,18.44,472.57,18.76,472.57,19.16z M473.13,19.63h-0.21v-0.91c0.08-0.01,0.2-0.03,0.35-0.03
			c0.17,0,0.25,0.03,0.31,0.07c0.06,0.04,0.09,0.11,0.09,0.19c0,0.11-0.08,0.18-0.19,0.22v0.01c0.09,0.03,0.13,0.1,0.16,0.22
			c0.03,0.14,0.05,0.19,0.07,0.22h-0.22c-0.03-0.03-0.04-0.11-0.07-0.22c-0.02-0.09-0.07-0.14-0.19-0.14h-0.1V19.63z M473.14,19.12
			h0.1c0.12,0,0.21-0.04,0.21-0.13c0-0.08-0.06-0.14-0.19-0.14c-0.06,0-0.09,0.01-0.12,0.01V19.12z"/>
	</g>
</g>
</svg>
