<?xml version="1.0" encoding="utf-8"?>
<!-- Generator: Adobe Illustrator 25.2.1, SVG Export Plug-In . SVG Version: 6.00 Build 0)  -->
<svg version="1.1" id="Layer_1" xmlns="http://www.w3.org/2000/svg" xmlns:xlink="http://www.w3.org/1999/xlink" x="0px" y="0px"
	 viewBox="0 0 300 600" style="enable-background:new 0 0 300 600;" xml:space="preserve">
<style type="text/css">
	.st0{fill:#EAF5FB;}
</style>
<g>
	<path class="st0" d="M65.06,85.65V81.4h2.04v3.87c0,2.01,0.56,2.82,1.97,2.82c1.44,0,2.01-0.81,2.01-2.82v-3.66
		c0-1.65-0.46-2.46-1.65-3.24l-1.87-1.2c-1.79-1.16-2.5-2.5-2.5-4.86v-3.13c0-2.68,1.44-4.19,3.94-4.19c2.5,0,3.94,1.51,3.94,4.19
		v3.13h-2.04v-2.78c0-1.9-0.53-2.64-1.87-2.64c-1.34,0-1.87,0.74-1.87,2.64v2.64c0,1.65,0.46,2.46,1.65,3.24l1.87,1.2
		c1.8,1.16,2.5,2.5,2.5,4.86v4.19c0,2.78-1.51,4.33-4.08,4.33C66.54,89.98,65.06,88.44,65.06,85.65z"/>
	<path class="st0" d="M78.86,67.17h-2.96v-1.83h8.03v1.83h-2.96v22.46h-2.11V67.17z"/>
	<path class="st0" d="M87.21,65.34h3.91c2.82,0,4.15,1.44,4.15,4.4v3.1c0,1.97-0.63,3.17-1.9,3.73v0.07c1.27,0.56,1.9,1.76,1.9,3.77
		v9.22h-2.11v-9.08c0-2.25-0.63-2.92-2.64-2.92h-1.2v12h-2.11V65.34z M90.87,75.8c1.76,0,2.29-0.67,2.29-2.92V70.1
		c0-2.25-0.53-2.92-2.29-2.92h-1.55v8.62H90.87z"/>
	<path class="st0" d="M99.21,65.34h6.97v1.83h-4.86v8.48h4.22v1.83h-4.22V87.8h4.86v1.83h-6.97V65.34z"/>
	<path class="st0" d="M109.6,65.34h2.75l3.84,17.78h0.07V65.34h1.9v24.29h-2.29l-4.29-20.03h-0.07v20.03h-1.9V65.34z"/>
	<path class="st0" d="M122.13,86.18V69.36c0-2.78,1.51-4.37,4.05-4.37c2.57,0,4.01,1.58,4.01,4.37v2.68h-2.01v-2.29
		c0-2.04-0.56-2.85-1.97-2.85c-1.44,0-1.97,0.81-1.97,2.85v16.19c0,1.44,0.53,2.15,1.69,2.15c1.44,0,2.25-1.09,2.25-3.06v-6.97
		h-1.97v-1.83h4.08v13.41h-1.8v-1.73h-0.11c-0.56,1.34-1.58,2.08-3.03,2.08C123.33,89.98,122.13,88.54,122.13,86.18z"/>
	<path class="st0" d="M136.22,67.17h-2.96v-1.83h8.03v1.83h-2.96v22.46h-2.11V67.17z"/>
	<path class="st0" d="M144.56,65.34h2.11v10.31h3.98V65.34h2.11v24.29h-2.11V77.49h-3.98v12.14h-2.11V65.34z"/>
	<path class="st0" d="M156.88,65.34h6.97v1.83H159v8.48h4.22v1.83H159V87.8h4.86v1.83h-6.97V65.34z"/>
	<path class="st0" d="M167.27,65.34h2.75l3.84,17.78h0.07V65.34h1.9v24.29h-2.29l-4.29-20.03h-0.07v20.03h-1.9V65.34z"/>
	<path class="st0" d="M180.76,89.63h-0.84v-2.89h2.39v2.53l-1.55,3.91h-1.23L180.76,89.63z"/>
	<path class="st0" d="M194.34,67.17h-2.96v-1.83h8.03v1.83h-2.96v22.46h-2.11V67.17z"/>
	<path class="st0" d="M202.27,85.58V69.39c0-2.82,1.51-4.4,4.08-4.4c2.57,0,4.08,1.58,4.08,4.4v16.19c0,2.82-1.51,4.4-4.08,4.4
		C203.78,89.98,202.27,88.4,202.27,85.58z M208.32,85.23V69.74c0-2.04-0.56-2.85-1.97-2.85c-1.44,0-1.97,0.81-1.97,2.85v15.49
		c0,2.04,0.53,2.85,1.97,2.85C207.76,88.08,208.32,87.27,208.32,85.23z"/>
	<path class="st0" d="M214.41,65.34h2.75L221,83.12h0.07V65.34h1.9v24.29h-2.29l-4.29-20.03h-0.07v20.03h-1.9V65.34z"/>
	<path class="st0" d="M227.09,65.34h6.97v1.83h-4.86v8.48h4.22v1.83h-4.22V87.8h4.86v1.83h-6.97V65.34z"/>
	<path class="st0" d="M238.64,89.63h-0.84v-2.89h2.39v2.53l-1.55,3.91h-1.23L238.64,89.63z"/>
	<path class="st0" d="M64.59,101.73h2.78l3.06,24.29h-2.15l-0.7-6.02h-3.31l-0.7,6.02h-2.04L64.59,101.73z M67.37,118.17l-1.41-13.1
		h-0.07l-1.41,13.1H67.37z"/>
	<path class="st0" d="M73.74,101.73h2.75l3.84,17.78h0.07v-17.78h1.9v24.29h-2.29l-4.29-20.03h-0.07v20.03h-1.9V101.73z"/>
	<path class="st0" d="M86.42,101.73h4.01c2.82,0,4.15,1.44,4.15,4.4v15.49c0,2.96-1.34,4.4-4.15,4.4h-4.01V101.73z M90.18,124.18
		c1.76,0,2.29-0.67,2.29-2.92v-14.78c0-2.25-0.53-2.92-2.29-2.92h-1.65v20.63H90.18z"/>
	<path class="st0" d="M104.34,101.73h6.97v1.83h-4.86v8.84h4.22v1.83h-4.22v11.79h-2.11V101.73z"/>
	<path class="st0" d="M114.58,101.73h2.11v24.29h-2.11V101.73z"/>
	<path class="st0" d="M120.81,101.73h3.91c2.82,0,4.15,1.44,4.15,4.4v3.1c0,1.97-0.63,3.17-1.9,3.73v0.07
		c1.27,0.56,1.9,1.76,1.9,3.77v9.22h-2.11v-9.08c0-2.25-0.63-2.92-2.64-2.92h-1.2v12h-2.11V101.73z M124.47,112.18
		c1.76,0,2.29-0.67,2.29-2.92v-2.78c0-2.25-0.53-2.92-2.29-2.92h-1.55v8.62H124.47z"/>
	<path class="st0" d="M132.82,101.73h3.34l2.71,17.92h0.07l2.71-17.92h3.49v24.29h-2.11V104.3h-0.07l-3.27,21.72h-1.65l-3.27-21.72
		h-0.07v21.72h-1.87V101.73z"/>
	<path class="st0" d="M155.07,101.73h3.34l2.71,17.92h0.07l2.71-17.92h3.48v24.29h-2.11V104.3h-0.07l-3.27,21.72h-1.65l-3.27-21.72
		h-0.07v21.72h-1.87V101.73z"/>
	<path class="st0" d="M171.44,122.11v-20.38h2.11v20c0,1.97,0.49,2.75,1.9,2.75s1.9-0.77,1.9-2.75v-20h2.04v20.38
		c0,2.71-1.48,4.26-3.98,4.26S171.44,124.82,171.44,122.11z"/>
	<path class="st0" d="M183.06,122.04v-4.26h2.04v3.87c0,2.01,0.56,2.82,1.97,2.82c1.44,0,2.01-0.81,2.01-2.82v-3.66
		c0-1.65-0.46-2.46-1.65-3.24l-1.87-1.2c-1.8-1.16-2.5-2.5-2.5-4.86v-3.13c0-2.68,1.44-4.19,3.94-4.19c2.5,0,3.94,1.51,3.94,4.19
		v3.13h-2.04v-2.78c0-1.9-0.53-2.64-1.87-2.64c-1.34,0-1.87,0.74-1.87,2.64v2.64c0,1.65,0.46,2.46,1.65,3.24l1.87,1.2
		c1.79,1.16,2.5,2.5,2.5,4.86v4.19c0,2.78-1.51,4.33-4.08,4.33C184.54,126.37,183.06,124.82,183.06,122.04z"/>
	<path class="st0" d="M194.71,122.18v-16.62c0-2.68,1.41-4.19,3.94-4.19c2.57,0,3.98,1.51,3.98,4.19v3.98h-2.01v-3.63
		c0-1.9-0.56-2.64-1.9-2.64c-1.37,0-1.9,0.74-1.9,2.64v15.91c0,1.9,0.53,2.64,1.9,2.64c1.34,0,1.9-0.74,1.9-2.64v-4.89h2.01v5.25
		c0,2.68-1.41,4.19-3.98,4.19C196.12,126.37,194.71,124.85,194.71,122.18z"/>
	<path class="st0" d="M206.37,101.73h2.11v22.46h4.51v1.83h-6.62V101.73z"/>
	<path class="st0" d="M216.26,101.73h6.97v1.83h-4.86v8.48h4.22v1.83h-4.22v10.31h4.86v1.83h-6.97V101.73z"/>
	<path class="st0" d="M226.33,122.04v-4.26h2.04v3.87c0,2.01,0.56,2.82,1.97,2.82c1.44,0,2.01-0.81,2.01-2.82v-3.66
		c0-1.65-0.46-2.46-1.65-3.24l-1.87-1.2c-1.8-1.16-2.5-2.5-2.5-4.86v-3.13c0-2.68,1.44-4.19,3.94-4.19c2.5,0,3.94,1.51,3.94,4.19
		v3.13h-2.04v-2.78c0-1.9-0.53-2.64-1.87-2.64c-1.34,0-1.87,0.74-1.87,2.64v2.64c0,1.65,0.46,2.46,1.65,3.24l1.87,1.2
		c1.79,1.16,2.5,2.5,2.5,4.86v4.19c0,2.78-1.51,4.33-4.08,4.33C227.81,126.37,226.33,124.82,226.33,122.04z"/>
	<path class="st0" d="M238.13,123.13h2.36v2.89h-2.36V123.13z"/>
</g>
</svg>
