<?xml version="1.0" encoding="utf-8"?>
<!-- Generator: Adobe Illustrator 25.2.1, SVG Export Plug-In . SVG Version: 6.00 Build 0)  -->
<svg version="1.1" id="Layer_1" xmlns="http://www.w3.org/2000/svg" xmlns:xlink="http://www.w3.org/1999/xlink" x="0px" y="0px"
	 viewBox="0 0 300 600" style="enable-background:new 0 0 300 600;" xml:space="preserve">
<style type="text/css">
	.st0{fill:#00A9E0;}
	.st1{fill:#FFFFFF;}
</style>
<rect x="83.69" y="480.94" class="st0" width="131.91" height="32.13"/>
<g>
	<path class="st1" d="M94.13,503.36v-11.55h2.81v9.12h4.47v2.43H94.13z"/>
	<path class="st1" d="M103.28,503.36v-11.55h7.76v2.37h-5.07v2.17h4.8v2.23h-4.8v2.4h5.37v2.38H103.28z"/>
	<path class="st1" d="M121.57,503.36l-0.9-2.27h-4.47l-0.85,2.27h-3.03l4.84-11.55h2.71l4.8,11.55H121.57z M118.47,494.89
		l-1.47,3.96h2.9L118.47,494.89z"/>
	<path class="st1" d="M132.38,503.36l-2.5-4.58h-0.95v4.58h-2.74v-11.55h4.4c2.22,0,4.42,0.85,4.42,3.49c0,1.55-0.91,2.66-2.4,3.12
		l3.02,4.94H132.38z M130.41,494.06h-1.48v2.69h1.32c0.9,0,2.02-0.23,2.02-1.4C132.27,494.27,131.24,494.06,130.41,494.06z"/>
	<path class="st1" d="M144.92,503.36l-4.65-7.55h-0.05l0.07,7.55h-2.71v-11.55h3.18l4.63,7.54h0.05l-0.06-7.54h2.71v11.55H144.92z"
		/>
	<path class="st1" d="M166.15,503.36l0.07-8.17h-0.05l-3,8.17h-1.96l-2.92-8.17h-0.05l0.07,8.17h-2.63v-11.55h3.96l2.63,7.41h0.07
		l2.51-7.41h4.03v11.55H166.15z"/>
	<path class="st1" d="M177.57,503.67c-3.61,0-6.28-2.48-6.28-6.13c0-3.7,2.67-6.04,6.28-6.04c3.62,0,6.3,2.33,6.3,6.04
		C183.86,501.19,181.19,503.67,177.57,503.67z M177.57,494.01c-1.96,0-3.29,1.5-3.29,3.52c0,2.09,1.35,3.59,3.29,3.59
		c1.94,0,3.31-1.5,3.31-3.59C180.88,495.51,179.52,494.01,177.57,494.01z"/>
	<path class="st1" d="M192.45,503.36l-2.5-4.58h-0.95v4.58h-2.74v-11.55h4.4c2.22,0,4.42,0.85,4.42,3.49c0,1.55-0.91,2.66-2.4,3.12
		l3.02,4.94H192.45z M190.48,494.06H189v2.69h1.32c0.9,0,2.02-0.23,2.02-1.4C192.34,494.27,191.31,494.06,190.48,494.06z"/>
	<path class="st1" d="M197.65,503.36v-11.55h7.76v2.37h-5.07v2.17h4.8v2.23h-4.8v2.4h5.37v2.38H197.65z"/>
</g>
</svg>
