<?xml version="1.0" encoding="utf-8"?>
<!-- Generator: Adobe Illustrator 25.2.1, SVG Export Plug-In . SVG Version: 6.00 Build 0)  -->
<svg version="1.1" id="Layer_1" xmlns="http://www.w3.org/2000/svg" xmlns:xlink="http://www.w3.org/1999/xlink" x="0px" y="0px"
	 viewBox="0 0 300 600" style="enable-background:new 0 0 300 600;" xml:space="preserve">
<style type="text/css">
	.st0{fill:#FFFFFF;}
</style>
<g>
	<path class="st0" d="M63.31,533.41h-1.05l2.92-6.73h0.85l2.89,6.73h-1.06l-0.68-1.65h-3.19L63.31,533.41z M64.31,530.93h2.52
		l-1.25-3.15L64.31,530.93z"/>
	<path class="st0" d="M69.73,529.41c-0.01-0.19-0.02-0.36-0.03-0.5h0.85c0.01,0.11,0.02,0.25,0.03,0.39
		c0.01,0.15,0.01,0.27,0.01,0.37h0.03c0.13-0.27,0.31-0.48,0.56-0.64c0.24-0.16,0.52-0.24,0.82-0.24c0.14,0,0.26,0.01,0.35,0.04
		l-0.04,0.83c-0.13-0.03-0.26-0.05-0.41-0.05c-0.22,0-0.4,0.04-0.56,0.12c-0.16,0.08-0.29,0.18-0.39,0.32
		c-0.1,0.13-0.18,0.29-0.23,0.46c-0.05,0.17-0.08,0.36-0.08,0.55v2.37h-0.89v-3.54C69.74,529.76,69.74,529.6,69.73,529.41z"/>
	<path class="st0" d="M74.22,527.28c0,0.17-0.06,0.3-0.17,0.41c-0.12,0.11-0.26,0.16-0.42,0.16c-0.16,0-0.3-0.06-0.42-0.17
		c-0.11-0.11-0.17-0.25-0.17-0.4c0-0.17,0.06-0.3,0.17-0.41c0.11-0.11,0.25-0.17,0.42-0.17c0.16,0,0.3,0.06,0.42,0.17
		C74.17,526.98,74.22,527.12,74.22,527.28z M74.08,533.41h-0.89v-4.5h0.89V533.41z"/>
	<path class="st0" d="M79.85,531.12c0,0.05,0,0.1,0,0.15s0,0.1-0.01,0.15h-3.58c0.01,0.19,0.05,0.37,0.13,0.53
		c0.08,0.17,0.19,0.31,0.32,0.43c0.13,0.12,0.29,0.22,0.46,0.29c0.17,0.07,0.36,0.1,0.56,0.1c0.3,0,0.57-0.07,0.79-0.2
		c0.22-0.13,0.4-0.29,0.52-0.48l0.63,0.5c-0.24,0.32-0.52,0.55-0.85,0.71c-0.33,0.15-0.69,0.23-1.09,0.23
		c-0.34,0-0.66-0.06-0.95-0.17c-0.29-0.11-0.54-0.27-0.75-0.48s-0.37-0.45-0.49-0.75c-0.12-0.29-0.18-0.61-0.18-0.97
		c0-0.35,0.06-0.67,0.18-0.96c0.12-0.29,0.28-0.55,0.49-0.76s0.46-0.37,0.74-0.49s0.59-0.18,0.92-0.18s0.63,0.05,0.9,0.16
		c0.27,0.11,0.5,0.26,0.69,0.46c0.19,0.2,0.33,0.45,0.43,0.74C79.8,530.44,79.85,530.76,79.85,531.12z M78.94,530.76
		c-0.01-0.18-0.04-0.34-0.09-0.5s-0.13-0.29-0.24-0.4s-0.23-0.2-0.39-0.27c-0.16-0.07-0.34-0.1-0.55-0.1c-0.19,0-0.37,0.03-0.54,0.1
		c-0.17,0.07-0.31,0.16-0.44,0.27s-0.22,0.25-0.3,0.4c-0.08,0.16-0.12,0.32-0.14,0.5H78.94z"/>
	<path class="st0" d="M82,533.41H81.1v-7.18H82V533.41z"/>
	<path class="st0" d="M86.26,528.91l1.02,3.44h0.02l1.07-3.44h0.94l1.09,3.44h0.02l1.02-3.44h0.94l-1.49,4.5h-0.93l-1.11-3.38h-0.02
		l-1.1,3.38H86.8l-1.5-4.5H86.26z"/>
	<path class="st0" d="M96.08,530.49c0-0.34-0.1-0.58-0.3-0.75c-0.2-0.16-0.47-0.24-0.81-0.24c-0.25,0-0.49,0.05-0.72,0.15
		c-0.23,0.1-0.41,0.22-0.57,0.38l-0.48-0.57c0.22-0.21,0.49-0.37,0.81-0.49s0.66-0.18,1.03-0.18c0.32,0,0.6,0.05,0.84,0.14
		c0.24,0.09,0.43,0.22,0.58,0.38c0.15,0.16,0.27,0.34,0.34,0.56c0.08,0.21,0.11,0.45,0.11,0.69v1.97c0,0.15,0,0.31,0.01,0.48
		c0.01,0.17,0.03,0.31,0.05,0.41h-0.81c-0.05-0.21-0.08-0.43-0.08-0.65h-0.03c-0.17,0.24-0.37,0.43-0.62,0.56
		c-0.25,0.13-0.55,0.2-0.89,0.2c-0.18,0-0.36-0.02-0.56-0.07c-0.19-0.05-0.37-0.12-0.53-0.23c-0.16-0.11-0.29-0.25-0.39-0.43
		c-0.1-0.18-0.16-0.4-0.16-0.66c0-0.34,0.09-0.61,0.28-0.81c0.18-0.2,0.42-0.35,0.72-0.46c0.3-0.1,0.63-0.17,1.01-0.2
		c0.37-0.03,0.75-0.05,1.13-0.05V530.49z M95.86,531.26c-0.22,0-0.45,0.01-0.69,0.03c-0.24,0.02-0.45,0.06-0.65,0.11
		c-0.19,0.06-0.35,0.14-0.48,0.26c-0.13,0.11-0.19,0.27-0.19,0.46c0,0.13,0.03,0.24,0.08,0.33c0.05,0.09,0.12,0.16,0.21,0.22
		c0.09,0.06,0.19,0.1,0.29,0.12c0.11,0.02,0.22,0.03,0.33,0.03c0.42,0,0.74-0.12,0.96-0.38c0.23-0.25,0.34-0.57,0.34-0.95v-0.24
		H95.86z"/>
	<path class="st0" d="M100.86,530.05c-0.1-0.16-0.24-0.3-0.43-0.4c-0.18-0.1-0.39-0.16-0.62-0.16c-0.1,0-0.2,0.01-0.3,0.03
		c-0.1,0.02-0.19,0.06-0.27,0.1c-0.08,0.05-0.14,0.11-0.19,0.18c-0.05,0.07-0.07,0.16-0.07,0.27c0,0.19,0.09,0.33,0.26,0.42
		c0.17,0.09,0.43,0.18,0.77,0.25c0.22,0.05,0.41,0.11,0.6,0.18c0.18,0.07,0.34,0.16,0.48,0.26c0.14,0.1,0.24,0.23,0.32,0.38
		c0.08,0.15,0.11,0.32,0.11,0.51c0,0.27-0.05,0.49-0.15,0.67c-0.1,0.18-0.24,0.33-0.4,0.45c-0.17,0.12-0.36,0.2-0.58,0.25
		c-0.22,0.05-0.44,0.08-0.67,0.08c-0.34,0-0.68-0.07-1-0.2s-0.6-0.34-0.81-0.61l0.64-0.54c0.12,0.18,0.29,0.33,0.5,0.45
		c0.21,0.12,0.44,0.18,0.7,0.18c0.11,0,0.22-0.01,0.33-0.03s0.2-0.06,0.29-0.11s0.15-0.12,0.2-0.2c0.05-0.08,0.08-0.19,0.08-0.31
		c0-0.21-0.1-0.36-0.3-0.47c-0.2-0.1-0.49-0.2-0.88-0.29c-0.15-0.04-0.31-0.08-0.46-0.14s-0.3-0.13-0.42-0.22
		c-0.13-0.09-0.23-0.21-0.31-0.36c-0.08-0.14-0.12-0.32-0.12-0.53c0-0.24,0.05-0.45,0.15-0.62s0.23-0.32,0.38-0.43
		c0.16-0.11,0.34-0.19,0.54-0.25c0.2-0.05,0.41-0.08,0.63-0.08c0.32,0,0.64,0.06,0.94,0.19s0.53,0.31,0.7,0.55L100.86,530.05z"/>
	<path class="st0" d="M107.23,529.64h-1.2v2.34c0,0.27,0.05,0.47,0.15,0.58c0.1,0.12,0.26,0.17,0.48,0.17
		c0.08,0,0.17-0.01,0.27-0.03c0.1-0.02,0.18-0.04,0.26-0.08l0.03,0.73c-0.11,0.04-0.23,0.07-0.36,0.09
		c-0.13,0.02-0.26,0.03-0.4,0.03c-0.42,0-0.75-0.12-0.97-0.35c-0.22-0.23-0.34-0.59-0.34-1.05v-2.44h-0.86v-0.73h0.86v-1.29h0.88
		v1.29h1.2V529.64z"/>
	<path class="st0" d="M108.14,529.41c-0.01-0.19-0.02-0.36-0.03-0.5h0.85c0.01,0.11,0.02,0.25,0.03,0.39
		c0.01,0.15,0.01,0.27,0.01,0.37h0.03c0.13-0.27,0.31-0.48,0.56-0.64c0.24-0.16,0.52-0.24,0.82-0.24c0.14,0,0.26,0.01,0.35,0.04
		l-0.04,0.83c-0.13-0.03-0.26-0.05-0.41-0.05c-0.22,0-0.4,0.04-0.56,0.12c-0.16,0.08-0.29,0.18-0.39,0.32
		c-0.1,0.13-0.18,0.29-0.23,0.46c-0.05,0.17-0.08,0.36-0.08,0.55v2.37h-0.89v-3.54C108.15,529.76,108.14,529.6,108.14,529.41z"/>
	<path class="st0" d="M115.63,531.12c0,0.05,0,0.1,0,0.15s0,0.1-0.01,0.15h-3.58c0.01,0.19,0.05,0.37,0.13,0.53
		c0.08,0.17,0.19,0.31,0.32,0.43c0.13,0.12,0.29,0.22,0.46,0.29c0.17,0.07,0.36,0.1,0.56,0.1c0.3,0,0.57-0.07,0.79-0.2
		c0.22-0.13,0.4-0.29,0.52-0.48l0.63,0.5c-0.24,0.32-0.52,0.55-0.85,0.71c-0.33,0.15-0.69,0.23-1.09,0.23
		c-0.34,0-0.66-0.06-0.95-0.17c-0.29-0.11-0.54-0.27-0.75-0.48s-0.37-0.45-0.49-0.75c-0.12-0.29-0.18-0.61-0.18-0.97
		c0-0.35,0.06-0.67,0.18-0.96c0.12-0.29,0.28-0.55,0.49-0.76s0.46-0.37,0.74-0.49s0.59-0.18,0.92-0.18s0.63,0.05,0.9,0.16
		c0.27,0.11,0.5,0.26,0.69,0.46c0.19,0.2,0.33,0.45,0.43,0.74C115.58,530.44,115.63,530.76,115.63,531.12z M114.71,530.76
		c-0.01-0.18-0.04-0.34-0.09-0.5s-0.13-0.29-0.24-0.4s-0.23-0.2-0.39-0.27c-0.16-0.07-0.34-0.1-0.55-0.1c-0.19,0-0.37,0.03-0.54,0.1
		c-0.17,0.07-0.31,0.16-0.44,0.27s-0.22,0.25-0.3,0.4c-0.08,0.16-0.12,0.32-0.14,0.5H114.71z"/>
	<path class="st0" d="M119.61,530.49c0-0.34-0.1-0.58-0.3-0.75c-0.2-0.16-0.47-0.24-0.81-0.24c-0.25,0-0.49,0.05-0.72,0.15
		c-0.23,0.1-0.41,0.22-0.57,0.38l-0.48-0.57c0.22-0.21,0.49-0.37,0.81-0.49s0.66-0.18,1.03-0.18c0.32,0,0.6,0.05,0.84,0.14
		c0.24,0.09,0.43,0.22,0.58,0.38c0.15,0.16,0.27,0.34,0.34,0.56c0.08,0.21,0.11,0.45,0.11,0.69v1.97c0,0.15,0,0.31,0.01,0.48
		c0.01,0.17,0.03,0.31,0.05,0.41h-0.81c-0.05-0.21-0.08-0.43-0.08-0.65h-0.03c-0.17,0.24-0.37,0.43-0.62,0.56
		c-0.25,0.13-0.55,0.2-0.89,0.2c-0.18,0-0.36-0.02-0.56-0.07c-0.19-0.05-0.37-0.12-0.53-0.23c-0.16-0.11-0.29-0.25-0.39-0.43
		c-0.1-0.18-0.16-0.4-0.16-0.66c0-0.34,0.09-0.61,0.28-0.81c0.18-0.2,0.42-0.35,0.72-0.46c0.3-0.1,0.63-0.17,1.01-0.2
		c0.37-0.03,0.75-0.05,1.13-0.05V530.49z M119.39,531.26c-0.22,0-0.45,0.01-0.69,0.03c-0.24,0.02-0.45,0.06-0.65,0.11
		c-0.19,0.06-0.35,0.14-0.48,0.26c-0.13,0.11-0.19,0.27-0.19,0.46c0,0.13,0.03,0.24,0.08,0.33c0.05,0.09,0.12,0.16,0.21,0.22
		c0.09,0.06,0.19,0.1,0.29,0.12c0.11,0.02,0.22,0.03,0.33,0.03c0.42,0,0.74-0.12,0.96-0.38c0.23-0.25,0.34-0.57,0.34-0.95v-0.24
		H119.39z"/>
	<path class="st0" d="M124.06,529.64h-1.2v2.34c0,0.27,0.05,0.47,0.15,0.58c0.1,0.12,0.26,0.17,0.48,0.17
		c0.08,0,0.17-0.01,0.27-0.03c0.1-0.02,0.18-0.04,0.26-0.08l0.03,0.73c-0.11,0.04-0.23,0.07-0.36,0.09
		c-0.13,0.02-0.26,0.03-0.4,0.03c-0.42,0-0.75-0.12-0.97-0.35c-0.22-0.23-0.34-0.59-0.34-1.05v-2.44h-0.86v-0.73h0.86v-1.29h0.88
		v1.29h1.2V529.64z"/>
	<path class="st0" d="M129.19,531.12c0,0.05,0,0.1,0,0.15s0,0.1-0.01,0.15h-3.58c0.01,0.19,0.05,0.37,0.13,0.53
		c0.08,0.17,0.19,0.31,0.32,0.43c0.13,0.12,0.29,0.22,0.46,0.29c0.17,0.07,0.36,0.1,0.56,0.1c0.3,0,0.57-0.07,0.79-0.2
		c0.22-0.13,0.4-0.29,0.52-0.48l0.63,0.5c-0.24,0.32-0.52,0.55-0.85,0.71c-0.33,0.15-0.69,0.23-1.09,0.23
		c-0.34,0-0.66-0.06-0.95-0.17c-0.29-0.11-0.54-0.27-0.75-0.48s-0.37-0.45-0.49-0.75c-0.12-0.29-0.18-0.61-0.18-0.97
		c0-0.35,0.06-0.67,0.18-0.96c0.12-0.29,0.28-0.55,0.49-0.76s0.46-0.37,0.74-0.49s0.59-0.18,0.92-0.18s0.63,0.05,0.9,0.16
		c0.27,0.11,0.5,0.26,0.69,0.46c0.19,0.2,0.33,0.45,0.43,0.74C129.14,530.44,129.19,530.76,129.19,531.12z M128.28,530.76
		c-0.01-0.18-0.04-0.34-0.09-0.5s-0.13-0.29-0.24-0.4s-0.23-0.2-0.39-0.27c-0.16-0.07-0.34-0.1-0.55-0.1c-0.19,0-0.37,0.03-0.54,0.1
		c-0.17,0.07-0.31,0.16-0.44,0.27s-0.22,0.25-0.3,0.4c-0.08,0.16-0.12,0.32-0.14,0.5H128.28z"/>
	<path class="st0" d="M134.02,532.7c-0.17,0.27-0.4,0.48-0.7,0.62s-0.6,0.21-0.93,0.21c-0.35,0-0.66-0.06-0.94-0.18
		c-0.28-0.12-0.52-0.29-0.71-0.51c-0.2-0.21-0.35-0.47-0.46-0.76c-0.11-0.29-0.16-0.6-0.16-0.93c0-0.33,0.05-0.64,0.16-0.93
		c0.11-0.29,0.26-0.54,0.46-0.75c0.2-0.22,0.44-0.38,0.72-0.5c0.28-0.12,0.59-0.18,0.92-0.18c0.37,0,0.69,0.08,0.96,0.23
		c0.27,0.16,0.49,0.34,0.65,0.57h0.02v-3.35h0.89v7.18h-0.86v-0.71H134.02z M131.06,531.15c0,0.21,0.03,0.41,0.09,0.61
		c0.06,0.2,0.16,0.37,0.29,0.52c0.13,0.15,0.28,0.27,0.47,0.36c0.18,0.09,0.4,0.14,0.65,0.14c0.23,0,0.44-0.04,0.62-0.13
		c0.19-0.09,0.35-0.21,0.48-0.36c0.13-0.15,0.24-0.32,0.31-0.52c0.07-0.2,0.11-0.4,0.11-0.62s-0.04-0.42-0.11-0.62
		c-0.07-0.2-0.18-0.37-0.31-0.52c-0.13-0.15-0.29-0.27-0.48-0.36c-0.19-0.09-0.39-0.13-0.62-0.13c-0.25,0-0.46,0.04-0.65,0.13
		c-0.18,0.09-0.34,0.21-0.47,0.36c-0.13,0.15-0.22,0.33-0.29,0.52C131.09,530.74,131.06,530.95,131.06,531.15z"/>
	<path class="st0" d="M139.17,528.91l1.02,3.44h0.02l1.07-3.44h0.94l1.09,3.44h0.02l1.02-3.44h0.94l-1.49,4.5h-0.93l-1.11-3.38
		h-0.02l-1.1,3.38h-0.93l-1.5-4.5H139.17z"/>
	<path class="st0" d="M147.23,527.28c0,0.17-0.06,0.3-0.17,0.41c-0.12,0.11-0.26,0.16-0.42,0.16c-0.16,0-0.3-0.06-0.42-0.17
		c-0.11-0.11-0.17-0.25-0.17-0.4c0-0.17,0.06-0.3,0.17-0.41c0.11-0.11,0.25-0.17,0.42-0.17c0.16,0,0.3,0.06,0.42,0.17
		C147.17,526.98,147.23,527.12,147.23,527.28z M147.09,533.41h-0.89v-4.5h0.89V533.41z"/>
	<path class="st0" d="M150.85,529.64h-1.2v2.34c0,0.27,0.05,0.47,0.15,0.58c0.1,0.12,0.26,0.17,0.48,0.17
		c0.08,0,0.17-0.01,0.27-0.03c0.1-0.02,0.18-0.04,0.26-0.08l0.03,0.73c-0.11,0.04-0.23,0.07-0.36,0.09
		c-0.13,0.02-0.26,0.03-0.4,0.03c-0.42,0-0.75-0.12-0.97-0.35c-0.22-0.23-0.34-0.59-0.34-1.05v-2.44h-0.86v-0.73h0.86v-1.29h0.88
		v1.29h1.2V529.64z"/>
	<path class="st0" d="M152.7,529.59c0.11-0.22,0.29-0.41,0.55-0.57c0.26-0.16,0.55-0.24,0.88-0.24c0.29,0,0.54,0.05,0.75,0.15
		c0.21,0.1,0.38,0.23,0.52,0.39c0.14,0.17,0.24,0.36,0.31,0.58c0.07,0.22,0.1,0.46,0.1,0.71v2.79h-0.89v-2.5
		c0-0.18-0.02-0.36-0.04-0.52c-0.03-0.17-0.08-0.31-0.16-0.44c-0.08-0.13-0.18-0.23-0.31-0.3c-0.13-0.08-0.3-0.11-0.51-0.11
		c-0.36,0-0.65,0.13-0.87,0.41c-0.23,0.27-0.34,0.63-0.34,1.08v2.39h-0.89v-7.18h0.89v3.36H152.7z"/>
	<path class="st0" d="M165.51,532.37c-0.27,0.36-0.61,0.65-1.04,0.88c-0.42,0.22-0.93,0.34-1.53,0.34c-0.51,0-0.99-0.09-1.42-0.26
		c-0.43-0.17-0.81-0.42-1.12-0.73s-0.56-0.69-0.74-1.12c-0.18-0.43-0.27-0.91-0.27-1.43c0-0.53,0.09-1.01,0.27-1.44
		c0.18-0.43,0.43-0.8,0.75-1.11c0.32-0.31,0.7-0.55,1.13-0.72c0.44-0.17,0.91-0.26,1.43-0.26c0.23,0,0.46,0.02,0.69,0.07
		s0.46,0.11,0.67,0.2s0.41,0.2,0.59,0.33c0.18,0.13,0.33,0.28,0.46,0.45l-0.74,0.57c-0.16-0.23-0.4-0.42-0.7-0.57
		s-0.62-0.22-0.97-0.22c-0.39,0-0.75,0.07-1.06,0.21s-0.58,0.34-0.8,0.58s-0.39,0.53-0.51,0.86s-0.18,0.67-0.18,1.04
		c0,0.38,0.06,0.73,0.18,1.06c0.12,0.33,0.29,0.62,0.5,0.86s0.48,0.44,0.8,0.58c0.31,0.14,0.66,0.21,1.05,0.21
		c0.38,0,0.72-0.08,1.04-0.23c0.31-0.15,0.57-0.37,0.77-0.67L165.51,532.37z"/>
	<path class="st0" d="M170.87,531.15c0,0.35-0.06,0.67-0.19,0.96c-0.12,0.29-0.29,0.54-0.51,0.75c-0.22,0.21-0.48,0.38-0.77,0.49
		c-0.3,0.12-0.62,0.18-0.96,0.18c-0.34,0-0.66-0.06-0.96-0.18c-0.3-0.12-0.55-0.28-0.77-0.49c-0.22-0.21-0.38-0.46-0.51-0.75
		c-0.12-0.29-0.18-0.61-0.18-0.96s0.06-0.67,0.18-0.96c0.12-0.29,0.29-0.54,0.51-0.75c0.21-0.21,0.47-0.37,0.77-0.49
		s0.62-0.18,0.96-0.18c0.34,0,0.66,0.06,0.96,0.18c0.3,0.12,0.56,0.28,0.77,0.49c0.22,0.21,0.39,0.46,0.51,0.75
		C170.81,530.48,170.87,530.8,170.87,531.15z M169.94,531.15c0-0.21-0.03-0.42-0.1-0.62c-0.07-0.2-0.16-0.37-0.29-0.52
		s-0.28-0.27-0.47-0.36s-0.4-0.13-0.64-0.13s-0.46,0.04-0.64,0.13s-0.34,0.21-0.47,0.36s-0.22,0.32-0.29,0.52
		c-0.07,0.2-0.1,0.4-0.1,0.62s0.03,0.42,0.1,0.62c0.07,0.2,0.16,0.37,0.29,0.52c0.13,0.15,0.28,0.27,0.47,0.36s0.4,0.13,0.64,0.13
		s0.46-0.04,0.64-0.13s0.34-0.21,0.47-0.36c0.13-0.15,0.22-0.33,0.29-0.52C169.91,531.57,169.94,531.37,169.94,531.15z"/>
	<path class="st0" d="M176.67,531.15c0,0.35-0.06,0.67-0.19,0.96c-0.12,0.29-0.29,0.54-0.51,0.75c-0.22,0.21-0.48,0.38-0.77,0.49
		c-0.3,0.12-0.62,0.18-0.96,0.18c-0.34,0-0.66-0.06-0.96-0.18c-0.3-0.12-0.55-0.28-0.77-0.49c-0.22-0.21-0.38-0.46-0.51-0.75
		c-0.12-0.29-0.18-0.61-0.18-0.96s0.06-0.67,0.18-0.96c0.12-0.29,0.29-0.54,0.51-0.75c0.21-0.21,0.47-0.37,0.77-0.49
		s0.62-0.18,0.96-0.18c0.34,0,0.66,0.06,0.96,0.18c0.3,0.12,0.56,0.28,0.77,0.49c0.22,0.21,0.39,0.46,0.51,0.75
		C176.61,530.48,176.67,530.8,176.67,531.15z M175.74,531.15c0-0.21-0.03-0.42-0.1-0.62c-0.07-0.2-0.16-0.37-0.29-0.52
		s-0.28-0.27-0.47-0.36s-0.4-0.13-0.64-0.13s-0.46,0.04-0.64,0.13s-0.34,0.21-0.47,0.36s-0.22,0.32-0.29,0.52
		c-0.07,0.2-0.1,0.4-0.1,0.62s0.03,0.42,0.1,0.62c0.07,0.2,0.16,0.37,0.29,0.52c0.13,0.15,0.28,0.27,0.47,0.36s0.4,0.13,0.64,0.13
		s0.46-0.04,0.64-0.13s0.34-0.21,0.47-0.36c0.13-0.15,0.22-0.33,0.29-0.52C175.7,531.57,175.74,531.37,175.74,531.15z"/>
	<path class="st0" d="M178.82,533.41h-0.89v-7.18h0.89V533.41z"/>
	<path class="st0" d="M182.78,533.41h-0.94v-5.9h-2.16v-0.83h5.25v0.83h-2.16V533.41z"/>
	<path class="st0" d="M189.43,531.15c0,0.35-0.06,0.67-0.19,0.96c-0.12,0.29-0.29,0.54-0.51,0.75c-0.22,0.21-0.48,0.38-0.77,0.49
		c-0.3,0.12-0.62,0.18-0.96,0.18c-0.34,0-0.66-0.06-0.96-0.18c-0.3-0.12-0.55-0.28-0.77-0.49c-0.22-0.21-0.38-0.46-0.51-0.75
		c-0.12-0.29-0.18-0.61-0.18-0.96s0.06-0.67,0.18-0.96c0.12-0.29,0.29-0.54,0.51-0.75c0.21-0.21,0.47-0.37,0.77-0.49
		s0.62-0.18,0.96-0.18c0.34,0,0.66,0.06,0.96,0.18c0.3,0.12,0.56,0.28,0.77,0.49c0.22,0.21,0.39,0.46,0.51,0.75
		C189.37,530.48,189.43,530.8,189.43,531.15z M188.5,531.15c0-0.21-0.03-0.42-0.1-0.62c-0.07-0.2-0.16-0.37-0.29-0.52
		s-0.28-0.27-0.47-0.36s-0.4-0.13-0.64-0.13s-0.46,0.04-0.64,0.13s-0.34,0.21-0.47,0.36s-0.22,0.32-0.29,0.52
		c-0.07,0.2-0.1,0.4-0.1,0.62s0.03,0.42,0.1,0.62c0.07,0.2,0.16,0.37,0.29,0.52c0.13,0.15,0.28,0.27,0.47,0.36s0.4,0.13,0.64,0.13
		s0.46-0.04,0.64-0.13s0.34-0.21,0.47-0.36c0.13-0.15,0.22-0.33,0.29-0.52C188.46,531.57,188.5,531.37,188.5,531.15z"/>
	<path class="st0" d="M191.47,528.91c0.01,0.11,0.02,0.24,0.03,0.38c0.01,0.14,0.01,0.26,0.01,0.36h0.03
		c0.06-0.12,0.13-0.23,0.23-0.34c0.1-0.1,0.21-0.2,0.34-0.28s0.27-0.14,0.42-0.19c0.15-0.04,0.31-0.07,0.48-0.07
		c0.29,0,0.54,0.05,0.75,0.15c0.21,0.1,0.38,0.23,0.52,0.39c0.14,0.17,0.24,0.36,0.31,0.58c0.07,0.22,0.1,0.46,0.1,0.71v2.79h-0.89
		v-2.5c0-0.18-0.01-0.36-0.04-0.52c-0.03-0.17-0.08-0.31-0.16-0.44s-0.18-0.23-0.31-0.3s-0.3-0.11-0.51-0.11
		c-0.36,0-0.65,0.13-0.87,0.4c-0.22,0.27-0.34,0.63-0.34,1.08v2.39h-0.89v-3.54c0-0.12,0-0.28-0.01-0.47
		c-0.01-0.19-0.02-0.36-0.03-0.5H191.47z"/>
	<path class="st0" d="M200.4,531.12c0,0.05,0,0.1,0,0.15s0,0.1-0.01,0.15h-3.58c0.01,0.19,0.05,0.37,0.13,0.53
		c0.08,0.17,0.19,0.31,0.32,0.43c0.13,0.12,0.29,0.22,0.46,0.29c0.17,0.07,0.36,0.1,0.56,0.1c0.3,0,0.57-0.07,0.79-0.2
		c0.22-0.13,0.4-0.29,0.52-0.48l0.63,0.5c-0.24,0.32-0.52,0.55-0.85,0.71c-0.33,0.15-0.69,0.23-1.09,0.23
		c-0.34,0-0.66-0.06-0.95-0.17c-0.29-0.11-0.54-0.27-0.75-0.48s-0.37-0.45-0.49-0.75c-0.12-0.29-0.18-0.61-0.18-0.97
		c0-0.35,0.06-0.67,0.18-0.96s0.28-0.55,0.49-0.76s0.46-0.37,0.74-0.49c0.29-0.12,0.59-0.18,0.92-0.18s0.63,0.05,0.9,0.16
		c0.27,0.11,0.5,0.26,0.69,0.46c0.19,0.2,0.33,0.45,0.43,0.74C200.35,530.44,200.4,530.76,200.4,531.12z M199.49,530.76
		c-0.01-0.18-0.04-0.34-0.09-0.5s-0.13-0.29-0.24-0.4s-0.23-0.2-0.39-0.27c-0.16-0.07-0.34-0.1-0.55-0.1c-0.19,0-0.37,0.03-0.54,0.1
		c-0.17,0.07-0.31,0.16-0.44,0.27c-0.12,0.11-0.22,0.25-0.3,0.4s-0.12,0.32-0.14,0.5H199.49z"/>
	<path class="st0" d="M201.55,528.73c0-0.3,0.06-0.58,0.17-0.84s0.27-0.49,0.47-0.68c0.2-0.19,0.43-0.35,0.69-0.46
		s0.54-0.17,0.84-0.17s0.58,0.06,0.84,0.17s0.49,0.27,0.69,0.46s0.35,0.42,0.47,0.68c0.11,0.26,0.17,0.54,0.17,0.84
		s-0.06,0.58-0.17,0.84c-0.11,0.26-0.27,0.49-0.47,0.68s-0.43,0.35-0.69,0.46c-0.26,0.11-0.54,0.17-0.84,0.17s-0.58-0.05-0.84-0.17
		c-0.26-0.11-0.49-0.26-0.69-0.46c-0.2-0.19-0.35-0.42-0.47-0.68S201.55,529.02,201.55,528.73z M201.9,528.73
		c0,0.25,0.05,0.48,0.14,0.7s0.22,0.42,0.39,0.58c0.16,0.17,0.36,0.3,0.58,0.39s0.46,0.14,0.71,0.14c0.25,0,0.49-0.05,0.71-0.14
		s0.42-0.23,0.58-0.39c0.17-0.17,0.29-0.36,0.39-0.58c0.1-0.22,0.14-0.46,0.14-0.7c0-0.25-0.05-0.49-0.14-0.71
		c-0.09-0.22-0.22-0.42-0.39-0.58c-0.16-0.17-0.36-0.29-0.58-0.39c-0.22-0.1-0.46-0.14-0.71-0.14c-0.25,0-0.49,0.05-0.71,0.14
		c-0.22,0.09-0.42,0.22-0.58,0.39c-0.17,0.16-0.29,0.36-0.39,0.58S201.9,528.47,201.9,528.73z M204.24,529.91l-0.52-0.94h-0.34v0.94
		h-0.58v-2.43h1.05c0.11,0,0.22,0.01,0.33,0.04s0.21,0.07,0.29,0.12c0.09,0.06,0.16,0.13,0.21,0.23c0.05,0.1,0.08,0.22,0.08,0.37
		c0,0.16-0.05,0.3-0.14,0.41s-0.21,0.19-0.35,0.24l0.65,1.03H204.24z M203.83,528.56c0.09,0,0.17-0.03,0.24-0.09
		c0.07-0.06,0.11-0.13,0.11-0.23c0-0.1-0.04-0.17-0.12-0.22c-0.08-0.04-0.16-0.07-0.23-0.07h-0.45v0.6H203.83z"/>
	<path class="st0" d="M214.28,531.15c0,0.35-0.06,0.67-0.19,0.96c-0.12,0.29-0.29,0.54-0.51,0.75c-0.22,0.21-0.48,0.38-0.77,0.49
		c-0.3,0.12-0.62,0.18-0.96,0.18c-0.34,0-0.66-0.06-0.96-0.18c-0.3-0.12-0.55-0.28-0.77-0.49c-0.22-0.21-0.38-0.46-0.51-0.75
		c-0.12-0.29-0.18-0.61-0.18-0.96s0.06-0.67,0.18-0.96c0.12-0.29,0.29-0.54,0.51-0.75c0.21-0.21,0.47-0.37,0.77-0.49
		s0.62-0.18,0.96-0.18c0.34,0,0.66,0.06,0.96,0.18c0.3,0.12,0.56,0.28,0.77,0.49c0.22,0.21,0.39,0.46,0.51,0.75
		C214.22,530.48,214.28,530.8,214.28,531.15z M213.35,531.15c0-0.21-0.03-0.42-0.1-0.62c-0.07-0.2-0.16-0.37-0.29-0.52
		s-0.28-0.27-0.47-0.36s-0.4-0.13-0.64-0.13s-0.46,0.04-0.64,0.13s-0.34,0.21-0.47,0.36s-0.22,0.32-0.29,0.52
		c-0.07,0.2-0.1,0.4-0.1,0.62s0.03,0.42,0.1,0.62c0.07,0.2,0.16,0.37,0.29,0.52c0.13,0.15,0.28,0.27,0.47,0.36s0.4,0.13,0.64,0.13
		s0.46-0.04,0.64-0.13s0.34-0.21,0.47-0.36c0.13-0.15,0.22-0.33,0.29-0.52C213.31,531.57,213.35,531.37,213.35,531.15z"/>
	<path class="st0" d="M216.32,528.91c0.01,0.11,0.02,0.24,0.03,0.38c0.01,0.14,0.01,0.26,0.01,0.36h0.03
		c0.06-0.12,0.13-0.23,0.23-0.34c0.1-0.1,0.21-0.2,0.34-0.28s0.27-0.14,0.42-0.19c0.15-0.04,0.31-0.07,0.48-0.07
		c0.29,0,0.54,0.05,0.75,0.15c0.21,0.1,0.38,0.23,0.52,0.39c0.14,0.17,0.24,0.36,0.31,0.58c0.07,0.22,0.1,0.46,0.1,0.71v2.79h-0.89
		v-2.5c0-0.18-0.01-0.36-0.04-0.52c-0.03-0.17-0.08-0.31-0.16-0.44s-0.18-0.23-0.31-0.3s-0.3-0.11-0.51-0.11
		c-0.36,0-0.65,0.13-0.87,0.4c-0.22,0.27-0.34,0.63-0.34,1.08v2.39h-0.89v-3.54c0-0.12,0-0.28-0.01-0.47
		c-0.01-0.19-0.02-0.36-0.03-0.5H216.32z"/>
	<path class="st0" d="M224.35,529.59c0.11-0.22,0.29-0.41,0.55-0.57c0.26-0.16,0.55-0.24,0.87-0.24c0.29,0,0.54,0.05,0.75,0.15
		c0.21,0.1,0.38,0.23,0.52,0.39s0.24,0.36,0.31,0.58c0.07,0.22,0.1,0.46,0.1,0.71v2.79h-0.89v-2.5c0-0.18-0.01-0.36-0.04-0.52
		s-0.08-0.31-0.16-0.44c-0.08-0.13-0.18-0.23-0.31-0.3s-0.3-0.11-0.51-0.11c-0.36,0-0.65,0.13-0.87,0.41
		c-0.23,0.27-0.34,0.63-0.34,1.08v2.39h-0.89v-7.18h0.89v3.36H224.35z"/>
	<path class="st0" d="M233.18,531.12c0,0.05,0,0.1,0,0.15s0,0.1-0.01,0.15h-3.58c0.01,0.19,0.05,0.37,0.13,0.53
		c0.08,0.17,0.19,0.31,0.32,0.43c0.13,0.12,0.29,0.22,0.46,0.29c0.17,0.07,0.36,0.1,0.56,0.1c0.3,0,0.57-0.07,0.79-0.2
		c0.22-0.13,0.4-0.29,0.52-0.48l0.63,0.5c-0.24,0.32-0.52,0.55-0.85,0.71c-0.33,0.15-0.69,0.23-1.09,0.23
		c-0.34,0-0.66-0.06-0.95-0.17c-0.29-0.11-0.54-0.27-0.75-0.48s-0.37-0.45-0.49-0.75c-0.12-0.29-0.18-0.61-0.18-0.97
		c0-0.35,0.06-0.67,0.18-0.96s0.28-0.55,0.49-0.76s0.46-0.37,0.74-0.49c0.29-0.12,0.59-0.18,0.92-0.18s0.63,0.05,0.9,0.16
		c0.27,0.11,0.5,0.26,0.69,0.46c0.19,0.2,0.33,0.45,0.43,0.74C233.13,530.44,233.18,530.76,233.18,531.12z M232.27,530.76
		c-0.01-0.18-0.04-0.34-0.09-0.5s-0.13-0.29-0.24-0.4s-0.23-0.2-0.39-0.27c-0.16-0.07-0.34-0.1-0.55-0.1c-0.19,0-0.37,0.03-0.54,0.1
		c-0.17,0.07-0.31,0.16-0.44,0.27c-0.12,0.11-0.22,0.25-0.3,0.4s-0.12,0.32-0.14,0.5H232.27z"/>
	<path class="st0" d="M234.4,529.41c-0.01-0.19-0.02-0.36-0.03-0.5h0.85c0.01,0.11,0.02,0.25,0.03,0.39
		c0.01,0.15,0.01,0.27,0.01,0.37h0.03c0.13-0.27,0.31-0.48,0.56-0.64c0.24-0.16,0.52-0.24,0.82-0.24c0.14,0,0.26,0.01,0.35,0.04
		l-0.04,0.83c-0.13-0.03-0.26-0.05-0.41-0.05c-0.22,0-0.4,0.04-0.56,0.12s-0.29,0.18-0.39,0.32c-0.1,0.13-0.18,0.29-0.23,0.46
		c-0.05,0.17-0.08,0.36-0.08,0.55v2.37h-0.89v-3.54C234.41,529.76,234.41,529.6,234.4,529.41z"/>
	<path class="st0" d="M63.39,540.5c0-0.34-0.1-0.58-0.3-0.75c-0.2-0.16-0.47-0.24-0.81-0.24c-0.25,0-0.49,0.05-0.72,0.15
		c-0.23,0.1-0.41,0.22-0.57,0.38l-0.48-0.57c0.22-0.21,0.49-0.37,0.81-0.49s0.66-0.18,1.03-0.18c0.32,0,0.6,0.05,0.84,0.14
		c0.24,0.09,0.43,0.22,0.58,0.38c0.15,0.16,0.27,0.34,0.34,0.56c0.08,0.21,0.11,0.45,0.11,0.69v1.97c0,0.15,0,0.31,0.01,0.48
		c0.01,0.17,0.03,0.31,0.05,0.41h-0.81c-0.05-0.21-0.08-0.43-0.08-0.65H63.4c-0.17,0.24-0.37,0.43-0.62,0.56
		c-0.25,0.13-0.55,0.2-0.89,0.2c-0.18,0-0.36-0.02-0.56-0.07c-0.19-0.05-0.37-0.12-0.53-0.23c-0.16-0.11-0.29-0.25-0.39-0.43
		c-0.1-0.18-0.16-0.4-0.16-0.66c0-0.34,0.09-0.61,0.28-0.81c0.18-0.2,0.42-0.35,0.72-0.46c0.3-0.1,0.63-0.17,1.01-0.2
		c0.37-0.03,0.75-0.05,1.13-0.05V540.5z M63.17,541.27c-0.22,0-0.45,0.01-0.69,0.03c-0.24,0.02-0.45,0.06-0.65,0.11
		c-0.19,0.06-0.35,0.14-0.48,0.26c-0.13,0.11-0.19,0.27-0.19,0.46c0,0.13,0.03,0.24,0.08,0.33c0.05,0.09,0.12,0.16,0.21,0.22
		c0.09,0.06,0.19,0.1,0.29,0.12c0.11,0.02,0.22,0.03,0.33,0.03c0.42,0,0.74-0.12,0.96-0.38c0.23-0.25,0.34-0.57,0.34-0.95v-0.24
		H63.17z"/>
	<path class="st0" d="M66.62,542.7v0.71h-0.86v-7.18h0.89v3.35h0.03c0.15-0.22,0.36-0.41,0.63-0.57c0.27-0.16,0.59-0.23,0.97-0.23
		c0.33,0,0.64,0.06,0.91,0.18s0.51,0.29,0.71,0.5c0.2,0.21,0.35,0.47,0.46,0.75c0.11,0.29,0.16,0.6,0.16,0.93
		c0,0.33-0.05,0.64-0.16,0.93c-0.11,0.29-0.26,0.54-0.45,0.76c-0.2,0.22-0.43,0.38-0.71,0.51c-0.28,0.12-0.59,0.18-0.94,0.18
		c-0.32,0-0.63-0.07-0.92-0.21c-0.29-0.14-0.52-0.35-0.7-0.62H66.62z M69.62,541.16c0-0.21-0.03-0.41-0.09-0.61
		c-0.06-0.2-0.16-0.37-0.29-0.52c-0.13-0.15-0.28-0.27-0.47-0.36c-0.19-0.09-0.4-0.13-0.65-0.13c-0.23,0-0.44,0.04-0.62,0.13
		c-0.19,0.09-0.35,0.21-0.48,0.36c-0.13,0.15-0.24,0.33-0.31,0.52c-0.07,0.2-0.11,0.4-0.11,0.62s0.04,0.42,0.11,0.62
		c0.07,0.2,0.18,0.37,0.31,0.52c0.13,0.15,0.29,0.27,0.48,0.36c0.19,0.09,0.39,0.13,0.62,0.13c0.25,0,0.46-0.05,0.65-0.14
		c0.19-0.09,0.34-0.21,0.47-0.36c0.13-0.15,0.22-0.33,0.29-0.52C69.58,541.57,69.62,541.37,69.62,541.16z"/>
	<path class="st0" d="M75.38,542.7c-0.17,0.27-0.4,0.48-0.7,0.62s-0.6,0.21-0.93,0.21c-0.35,0-0.66-0.06-0.94-0.18
		c-0.28-0.12-0.52-0.29-0.71-0.51c-0.2-0.21-0.35-0.47-0.46-0.76c-0.11-0.29-0.16-0.6-0.16-0.93c0-0.33,0.05-0.64,0.16-0.93
		c0.11-0.29,0.26-0.54,0.46-0.75c0.2-0.22,0.44-0.38,0.72-0.5c0.28-0.12,0.59-0.18,0.92-0.18c0.37,0,0.69,0.08,0.96,0.23
		c0.27,0.16,0.49,0.34,0.65,0.57h0.02v-3.35h0.89v7.18h-0.86v-0.71H75.38z M72.41,541.16c0,0.21,0.03,0.41,0.09,0.61
		c0.06,0.2,0.16,0.37,0.29,0.52c0.13,0.15,0.28,0.27,0.47,0.36c0.18,0.09,0.4,0.14,0.65,0.14c0.23,0,0.44-0.04,0.62-0.13
		c0.19-0.09,0.35-0.21,0.48-0.36c0.13-0.15,0.24-0.32,0.31-0.52c0.07-0.2,0.11-0.4,0.11-0.62s-0.04-0.42-0.11-0.62
		c-0.07-0.2-0.18-0.37-0.31-0.52c-0.13-0.15-0.29-0.27-0.48-0.36c-0.19-0.09-0.39-0.13-0.62-0.13c-0.25,0-0.46,0.04-0.65,0.13
		c-0.18,0.09-0.34,0.21-0.47,0.36c-0.13,0.15-0.22,0.33-0.29,0.52C72.44,540.75,72.41,540.95,72.41,541.16z"/>
	<path class="st0" d="M82.38,541.15c0,0.35-0.06,0.67-0.19,0.96s-0.29,0.54-0.51,0.75c-0.22,0.21-0.48,0.38-0.77,0.49
		c-0.3,0.12-0.62,0.18-0.96,0.18c-0.34,0-0.66-0.06-0.96-0.18c-0.3-0.12-0.55-0.28-0.77-0.49c-0.22-0.21-0.38-0.46-0.51-0.75
		s-0.19-0.61-0.19-0.96s0.06-0.67,0.19-0.96c0.12-0.29,0.29-0.54,0.51-0.75c0.22-0.21,0.47-0.37,0.77-0.49s0.62-0.18,0.96-0.18
		c0.34,0,0.66,0.06,0.96,0.18s0.56,0.28,0.77,0.49c0.22,0.21,0.39,0.46,0.51,0.75C82.32,540.49,82.38,540.8,82.38,541.15z
		 M81.45,541.16c0-0.21-0.03-0.42-0.1-0.62c-0.07-0.2-0.16-0.37-0.29-0.52s-0.28-0.27-0.47-0.36c-0.19-0.09-0.4-0.13-0.64-0.13
		c-0.24,0-0.46,0.04-0.64,0.13s-0.34,0.21-0.47,0.36c-0.13,0.15-0.22,0.32-0.29,0.52c-0.07,0.2-0.1,0.4-0.1,0.62s0.03,0.42,0.1,0.62
		c0.07,0.2,0.16,0.37,0.29,0.52c0.13,0.15,0.28,0.27,0.47,0.36s0.4,0.13,0.64,0.13c0.24,0,0.46-0.04,0.64-0.13
		c0.19-0.09,0.34-0.21,0.47-0.36c0.13-0.15,0.22-0.33,0.29-0.52C81.41,541.58,81.45,541.37,81.45,541.16z"/>
	<path class="st0" d="M85.03,539.04c0.25-0.17,0.55-0.25,0.89-0.25c0.3,0,0.58,0.07,0.82,0.21c0.24,0.14,0.44,0.37,0.57,0.69
		c0.15-0.29,0.36-0.51,0.64-0.67s0.57-0.23,0.89-0.23c0.29,0,0.54,0.05,0.75,0.15c0.21,0.1,0.38,0.23,0.52,0.39s0.24,0.36,0.31,0.58
		c0.07,0.22,0.1,0.46,0.1,0.71v2.79h-0.89v-2.5c0-0.18-0.02-0.36-0.05-0.52c-0.03-0.17-0.09-0.31-0.16-0.44
		c-0.08-0.13-0.18-0.23-0.3-0.3c-0.13-0.08-0.29-0.11-0.48-0.11c-0.2,0-0.38,0.04-0.52,0.13c-0.15,0.09-0.26,0.2-0.36,0.33
		c-0.09,0.14-0.16,0.29-0.2,0.46c-0.04,0.17-0.06,0.34-0.06,0.52v2.43h-0.89v-2.68c0-0.18-0.02-0.34-0.05-0.48s-0.09-0.27-0.16-0.38
		c-0.08-0.1-0.17-0.19-0.29-0.25c-0.12-0.06-0.27-0.09-0.45-0.09c-0.33,0-0.6,0.13-0.82,0.4c-0.22,0.27-0.33,0.63-0.33,1.08v2.39
		h-0.89v-3.54c0-0.12,0-0.28-0.01-0.47c-0.01-0.19-0.02-0.36-0.03-0.5h0.85c0.01,0.11,0.02,0.24,0.03,0.38s0.01,0.26,0.01,0.36h0.03
		C84.6,539.41,84.78,539.21,85.03,539.04z"/>
	<path class="st0" d="M96.25,541.12c0,0.05,0,0.1,0,0.15s0,0.1-0.01,0.15h-3.58c0.01,0.19,0.05,0.37,0.13,0.53
		c0.08,0.17,0.19,0.31,0.32,0.43c0.13,0.12,0.29,0.22,0.46,0.29c0.17,0.07,0.36,0.1,0.56,0.1c0.3,0,0.57-0.07,0.79-0.2
		c0.22-0.13,0.4-0.29,0.52-0.48l0.63,0.5c-0.24,0.32-0.52,0.55-0.85,0.71c-0.33,0.15-0.69,0.23-1.09,0.23
		c-0.34,0-0.66-0.06-0.95-0.17c-0.29-0.11-0.54-0.27-0.75-0.48s-0.37-0.45-0.49-0.75c-0.12-0.29-0.18-0.61-0.18-0.97
		c0-0.35,0.06-0.67,0.18-0.96c0.12-0.29,0.28-0.55,0.49-0.76s0.46-0.37,0.74-0.49s0.59-0.18,0.92-0.18s0.63,0.05,0.9,0.16
		c0.27,0.11,0.5,0.26,0.69,0.46c0.19,0.2,0.33,0.45,0.43,0.74C96.2,540.44,96.25,540.76,96.25,541.12z M95.34,540.76
		c-0.01-0.18-0.04-0.34-0.09-0.5s-0.13-0.29-0.24-0.4s-0.23-0.2-0.39-0.27c-0.16-0.07-0.34-0.1-0.55-0.1c-0.19,0-0.37,0.03-0.54,0.1
		c-0.17,0.07-0.31,0.16-0.44,0.27s-0.22,0.25-0.3,0.4c-0.08,0.16-0.12,0.32-0.14,0.5H95.34z"/>
	<path class="st0" d="M98.29,538.91c0.01,0.11,0.02,0.24,0.03,0.38s0.01,0.26,0.01,0.36h0.03c0.06-0.12,0.13-0.23,0.23-0.34
		c0.1-0.1,0.21-0.2,0.34-0.28c0.13-0.08,0.27-0.14,0.42-0.19c0.15-0.04,0.31-0.07,0.48-0.07c0.29,0,0.54,0.05,0.75,0.15
		c0.21,0.1,0.38,0.23,0.52,0.39c0.14,0.17,0.24,0.36,0.31,0.58c0.07,0.22,0.1,0.46,0.1,0.71v2.79h-0.89v-2.5
		c0-0.18-0.01-0.36-0.04-0.52c-0.03-0.17-0.08-0.31-0.16-0.44c-0.08-0.13-0.18-0.23-0.31-0.3c-0.13-0.08-0.3-0.11-0.51-0.11
		c-0.35,0-0.64,0.13-0.87,0.4c-0.23,0.27-0.34,0.63-0.34,1.08v2.39h-0.89v-3.54c0-0.12,0-0.28-0.01-0.47
		c-0.01-0.19-0.02-0.36-0.03-0.5H98.29z"/>
	<path class="st0" d="M108.2,540.5c0-0.34-0.1-0.58-0.3-0.75c-0.2-0.16-0.47-0.24-0.81-0.24c-0.25,0-0.49,0.05-0.72,0.15
		c-0.23,0.1-0.41,0.22-0.57,0.38l-0.48-0.57c0.22-0.21,0.49-0.37,0.81-0.49s0.66-0.18,1.03-0.18c0.32,0,0.6,0.05,0.84,0.14
		c0.24,0.09,0.43,0.22,0.58,0.38c0.15,0.16,0.27,0.34,0.34,0.56c0.08,0.21,0.11,0.45,0.11,0.69v1.97c0,0.15,0,0.31,0.01,0.48
		c0.01,0.17,0.03,0.31,0.05,0.41h-0.81c-0.05-0.21-0.08-0.43-0.08-0.65h-0.03c-0.17,0.24-0.37,0.43-0.62,0.56
		c-0.25,0.13-0.55,0.2-0.89,0.2c-0.18,0-0.36-0.02-0.56-0.07c-0.19-0.05-0.37-0.12-0.53-0.23c-0.16-0.11-0.29-0.25-0.39-0.43
		c-0.1-0.18-0.16-0.4-0.16-0.66c0-0.34,0.09-0.61,0.28-0.81c0.18-0.2,0.42-0.35,0.72-0.46c0.3-0.1,0.63-0.17,1.01-0.2
		c0.37-0.03,0.75-0.05,1.13-0.05V540.5z M107.98,541.27c-0.22,0-0.45,0.01-0.69,0.03c-0.24,0.02-0.45,0.06-0.65,0.11
		c-0.19,0.06-0.35,0.14-0.48,0.26c-0.13,0.11-0.19,0.27-0.19,0.46c0,0.13,0.03,0.24,0.08,0.33c0.05,0.09,0.12,0.16,0.21,0.22
		c0.09,0.06,0.19,0.1,0.29,0.12c0.11,0.02,0.22,0.03,0.33,0.03c0.42,0,0.74-0.12,0.96-0.38c0.23-0.25,0.34-0.57,0.34-0.95v-0.24
		H107.98z"/>
	<path class="st0" d="M111.35,538.91c0.01,0.11,0.02,0.24,0.03,0.38s0.01,0.26,0.01,0.36h0.03c0.06-0.12,0.13-0.23,0.23-0.34
		c0.1-0.1,0.21-0.2,0.34-0.28c0.13-0.08,0.27-0.14,0.42-0.19c0.15-0.04,0.31-0.07,0.48-0.07c0.29,0,0.54,0.05,0.75,0.15
		c0.21,0.1,0.38,0.23,0.52,0.39c0.14,0.17,0.24,0.36,0.31,0.58c0.07,0.22,0.1,0.46,0.1,0.71v2.79h-0.89v-2.5
		c0-0.18-0.01-0.36-0.04-0.52c-0.03-0.17-0.08-0.31-0.16-0.44c-0.08-0.13-0.18-0.23-0.31-0.3c-0.13-0.08-0.3-0.11-0.51-0.11
		c-0.35,0-0.64,0.13-0.87,0.4c-0.23,0.27-0.34,0.63-0.34,1.08v2.39h-0.89v-3.54c0-0.12,0-0.28-0.01-0.47
		c-0.01-0.19-0.02-0.36-0.03-0.5H111.35z"/>
	<path class="st0" d="M119.67,542.7c-0.17,0.27-0.4,0.48-0.7,0.62s-0.6,0.21-0.93,0.21c-0.35,0-0.66-0.06-0.94-0.18
		c-0.28-0.12-0.52-0.29-0.71-0.51c-0.2-0.21-0.35-0.47-0.46-0.76c-0.11-0.29-0.16-0.6-0.16-0.93c0-0.33,0.05-0.64,0.16-0.93
		c0.11-0.29,0.26-0.54,0.46-0.75c0.2-0.22,0.44-0.38,0.72-0.5c0.28-0.12,0.59-0.18,0.92-0.18c0.37,0,0.69,0.08,0.96,0.23
		c0.27,0.16,0.49,0.34,0.65,0.57h0.02v-3.35h0.89v7.18h-0.86v-0.71H119.67z M116.7,541.16c0,0.21,0.03,0.41,0.09,0.61
		c0.06,0.2,0.16,0.37,0.29,0.52c0.13,0.15,0.28,0.27,0.47,0.36c0.18,0.09,0.4,0.14,0.65,0.14c0.23,0,0.44-0.04,0.62-0.13
		c0.19-0.09,0.35-0.21,0.48-0.36c0.13-0.15,0.24-0.32,0.31-0.52c0.07-0.2,0.11-0.4,0.11-0.62s-0.04-0.42-0.11-0.62
		c-0.07-0.2-0.18-0.37-0.31-0.52c-0.13-0.15-0.29-0.27-0.48-0.36c-0.19-0.09-0.39-0.13-0.62-0.13c-0.25,0-0.46,0.04-0.65,0.13
		c-0.18,0.09-0.34,0.21-0.47,0.36c-0.13,0.15-0.22,0.33-0.29,0.52C116.73,540.75,116.7,540.95,116.7,541.16z"/>
	<path class="st0" d="M125.37,542.7v0.71h-0.86v-7.18h0.89v3.35h0.03c0.15-0.22,0.36-0.41,0.63-0.57c0.27-0.16,0.59-0.23,0.97-0.23
		c0.33,0,0.64,0.06,0.91,0.18s0.51,0.29,0.71,0.5c0.2,0.21,0.35,0.47,0.46,0.75c0.11,0.29,0.16,0.6,0.16,0.93
		c0,0.33-0.05,0.64-0.16,0.93c-0.11,0.29-0.26,0.54-0.45,0.76c-0.2,0.22-0.43,0.38-0.71,0.51c-0.28,0.12-0.59,0.18-0.94,0.18
		c-0.32,0-0.63-0.07-0.92-0.21c-0.29-0.14-0.52-0.35-0.7-0.62H125.37z M128.36,541.16c0-0.21-0.03-0.41-0.09-0.61
		c-0.06-0.2-0.16-0.37-0.29-0.52c-0.13-0.15-0.28-0.27-0.47-0.36c-0.19-0.09-0.4-0.13-0.65-0.13c-0.23,0-0.44,0.04-0.62,0.13
		c-0.19,0.09-0.35,0.21-0.48,0.36c-0.13,0.15-0.24,0.33-0.31,0.52c-0.07,0.2-0.11,0.4-0.11,0.62s0.04,0.42,0.11,0.62
		c0.07,0.2,0.18,0.37,0.31,0.52c0.13,0.15,0.29,0.27,0.48,0.36c0.19,0.09,0.39,0.13,0.62,0.13c0.25,0,0.46-0.05,0.65-0.14
		c0.19-0.09,0.34-0.21,0.47-0.36c0.13-0.15,0.22-0.33,0.29-0.52C128.33,541.57,128.36,541.37,128.36,541.16z"/>
	<path class="st0" d="M133.7,543.41c-0.01-0.11-0.02-0.24-0.03-0.38s-0.01-0.26-0.01-0.36h-0.02c-0.11,0.24-0.31,0.45-0.57,0.61
		c-0.27,0.17-0.57,0.25-0.9,0.25c-0.29,0-0.54-0.05-0.76-0.14c-0.21-0.1-0.39-0.23-0.52-0.39c-0.14-0.17-0.24-0.36-0.3-0.58
		s-0.1-0.46-0.1-0.71v-2.79h0.89v2.49c0,0.18,0.01,0.36,0.04,0.53c0.03,0.17,0.08,0.32,0.16,0.44c0.08,0.13,0.18,0.23,0.31,0.3
		c0.13,0.08,0.3,0.11,0.51,0.11c0.36,0,0.65-0.13,0.87-0.4c0.22-0.27,0.33-0.63,0.33-1.08v-2.39h0.89v3.53c0,0.12,0,0.28,0.01,0.47
		c0.01,0.19,0.02,0.36,0.03,0.5H133.7z"/>
	<path class="st0" d="M138.26,539.64h-1.2v2.34c0,0.27,0.05,0.47,0.15,0.58c0.1,0.12,0.26,0.17,0.48,0.17
		c0.08,0,0.17-0.01,0.27-0.03c0.1-0.02,0.18-0.04,0.26-0.08l0.03,0.73c-0.11,0.04-0.23,0.07-0.36,0.09
		c-0.13,0.02-0.26,0.03-0.4,0.03c-0.42,0-0.75-0.12-0.97-0.35c-0.22-0.23-0.34-0.59-0.34-1.05v-2.44h-0.86v-0.73h0.86v-1.29h0.88
		v1.29h1.2V539.64z"/>
	<path class="st0" d="M141.25,539.64h-1.2v2.34c0,0.27,0.05,0.47,0.15,0.58c0.1,0.12,0.26,0.17,0.48,0.17
		c0.08,0,0.17-0.01,0.27-0.03c0.1-0.02,0.18-0.04,0.26-0.08l0.03,0.73c-0.11,0.04-0.23,0.07-0.36,0.09
		c-0.13,0.02-0.26,0.03-0.4,0.03c-0.42,0-0.75-0.12-0.97-0.35c-0.22-0.23-0.34-0.59-0.34-1.05v-2.44h-0.86v-0.73h0.86v-1.29h0.88
		v1.29h1.2V539.64z"/>
	<path class="st0" d="M146.73,541.15c0,0.35-0.06,0.67-0.19,0.96s-0.29,0.54-0.51,0.75c-0.22,0.21-0.48,0.38-0.77,0.49
		c-0.3,0.12-0.62,0.18-0.96,0.18c-0.34,0-0.66-0.06-0.96-0.18c-0.3-0.12-0.55-0.28-0.77-0.49c-0.22-0.21-0.38-0.46-0.51-0.75
		s-0.19-0.61-0.19-0.96s0.06-0.67,0.19-0.96c0.12-0.29,0.29-0.54,0.51-0.75c0.22-0.21,0.47-0.37,0.77-0.49s0.62-0.18,0.96-0.18
		c0.34,0,0.66,0.06,0.96,0.18s0.56,0.28,0.77,0.49c0.22,0.21,0.39,0.46,0.51,0.75C146.67,540.49,146.73,540.8,146.73,541.15z
		 M145.8,541.16c0-0.21-0.03-0.42-0.1-0.62c-0.07-0.2-0.16-0.37-0.29-0.52s-0.28-0.27-0.47-0.36c-0.19-0.09-0.4-0.13-0.64-0.13
		c-0.24,0-0.46,0.04-0.64,0.13s-0.34,0.21-0.47,0.36c-0.13,0.15-0.22,0.32-0.29,0.52c-0.07,0.2-0.1,0.4-0.1,0.62s0.03,0.42,0.1,0.62
		c0.07,0.2,0.16,0.37,0.29,0.52c0.13,0.15,0.28,0.27,0.47,0.36s0.4,0.13,0.64,0.13c0.24,0,0.46-0.04,0.64-0.13
		c0.19-0.09,0.34-0.21,0.47-0.36c0.13-0.15,0.22-0.33,0.29-0.52C145.76,541.58,145.8,541.37,145.8,541.16z"/>
	<path class="st0" d="M151.12,540.05c-0.09-0.15-0.24-0.27-0.43-0.37c-0.19-0.1-0.39-0.15-0.61-0.15c-0.23,0-0.44,0.04-0.62,0.13
		c-0.18,0.09-0.33,0.21-0.46,0.36c-0.13,0.15-0.22,0.32-0.29,0.52c-0.07,0.2-0.1,0.4-0.1,0.62c0,0.21,0.03,0.42,0.1,0.62
		c0.07,0.2,0.16,0.37,0.29,0.52c0.13,0.15,0.28,0.27,0.47,0.36c0.18,0.09,0.39,0.13,0.63,0.13c0.23,0,0.44-0.04,0.62-0.13
		c0.19-0.09,0.34-0.21,0.46-0.36l0.6,0.54c-0.19,0.22-0.43,0.39-0.71,0.52c-0.28,0.12-0.61,0.18-0.97,0.18
		c-0.35,0-0.67-0.06-0.96-0.17c-0.29-0.11-0.55-0.27-0.76-0.48c-0.22-0.21-0.38-0.45-0.51-0.75c-0.12-0.29-0.19-0.62-0.19-0.98
		c0-0.35,0.06-0.68,0.18-0.97c0.12-0.29,0.29-0.54,0.5-0.75s0.47-0.37,0.77-0.49c0.29-0.11,0.61-0.17,0.96-0.17
		c0.32,0,0.63,0.06,0.94,0.19c0.31,0.13,0.56,0.31,0.75,0.55L151.12,540.05z"/>
	<path class="st0" d="M153.57,540.87h0.03l1.89-1.96h1.2l-2.11,2.04l2.29,2.46h-1.24l-2.03-2.34h-0.03v2.34h-0.89v-7.18h0.89V540.87
		z"/>
	<path class="st0" d="M160.04,540.05c-0.1-0.16-0.24-0.3-0.43-0.4s-0.39-0.16-0.62-0.16c-0.1,0-0.2,0.01-0.3,0.03
		c-0.1,0.02-0.19,0.06-0.27,0.1c-0.08,0.05-0.14,0.11-0.19,0.18c-0.05,0.07-0.07,0.16-0.07,0.27c0,0.19,0.08,0.33,0.26,0.42
		s0.43,0.18,0.77,0.25c0.22,0.05,0.42,0.11,0.6,0.18c0.18,0.07,0.34,0.16,0.48,0.26c0.14,0.1,0.24,0.23,0.32,0.38
		c0.08,0.15,0.11,0.32,0.11,0.51c0,0.27-0.05,0.49-0.15,0.67s-0.24,0.33-0.4,0.45s-0.36,0.2-0.57,0.25
		c-0.22,0.05-0.44,0.08-0.67,0.08c-0.34,0-0.68-0.07-1-0.2s-0.6-0.34-0.81-0.61l0.64-0.54c0.12,0.18,0.29,0.33,0.5,0.45
		c0.21,0.12,0.44,0.18,0.7,0.18c0.11,0,0.22-0.01,0.33-0.03s0.2-0.06,0.29-0.11c0.08-0.05,0.15-0.12,0.2-0.2
		c0.05-0.08,0.08-0.19,0.08-0.31c0-0.21-0.1-0.36-0.3-0.47s-0.49-0.2-0.88-0.29c-0.15-0.04-0.31-0.08-0.46-0.14s-0.3-0.13-0.42-0.22
		s-0.23-0.21-0.31-0.36s-0.12-0.32-0.12-0.53c0-0.24,0.05-0.45,0.15-0.62s0.23-0.32,0.38-0.43c0.16-0.11,0.34-0.19,0.54-0.25
		c0.2-0.05,0.41-0.08,0.63-0.08c0.32,0,0.63,0.06,0.94,0.19s0.53,0.31,0.7,0.55L160.04,540.05z"/>
	<path class="st0" d="M162.93,542.84c0,0.17-0.06,0.31-0.18,0.44s-0.27,0.19-0.46,0.19c-0.18,0-0.33-0.06-0.45-0.18
		c-0.12-0.12-0.19-0.27-0.19-0.43c0-0.17,0.06-0.32,0.18-0.44c0.12-0.12,0.27-0.18,0.46-0.18s0.34,0.06,0.46,0.18
		C162.87,542.53,162.93,542.67,162.93,542.84z"/>
	<path class="st0" d="M167.38,543.41h-0.94v-6.73h2.16c0.32,0,0.63,0.03,0.92,0.1c0.29,0.07,0.55,0.17,0.77,0.32
		s0.39,0.34,0.52,0.58c0.13,0.24,0.19,0.53,0.19,0.87c0,0.49-0.15,0.89-0.46,1.2c-0.3,0.3-0.7,0.5-1.18,0.58l1.88,3.09h-1.14
		l-1.71-2.99h-1.01V543.41z M167.38,539.63h1.08c0.22,0,0.43-0.02,0.62-0.06c0.19-0.04,0.36-0.1,0.5-0.19
		c0.14-0.08,0.25-0.2,0.34-0.33c0.08-0.14,0.12-0.31,0.12-0.51s-0.04-0.37-0.12-0.51c-0.08-0.14-0.19-0.25-0.33-0.33
		c-0.14-0.08-0.3-0.14-0.48-0.18c-0.18-0.04-0.38-0.05-0.58-0.05h-1.15V539.63z"/>
	<path class="st0" d="M176.32,541.12c0,0.05,0,0.1,0,0.15s0,0.1-0.01,0.15h-3.58c0.01,0.19,0.05,0.37,0.13,0.53
		c0.08,0.17,0.19,0.31,0.32,0.43c0.13,0.12,0.29,0.22,0.46,0.29c0.17,0.07,0.36,0.1,0.56,0.1c0.3,0,0.57-0.07,0.79-0.2
		c0.22-0.13,0.4-0.29,0.52-0.48l0.63,0.5c-0.24,0.32-0.52,0.55-0.85,0.71c-0.33,0.15-0.69,0.23-1.09,0.23
		c-0.34,0-0.66-0.06-0.95-0.17c-0.29-0.11-0.54-0.27-0.75-0.48s-0.37-0.45-0.49-0.75c-0.12-0.29-0.18-0.61-0.18-0.97
		c0-0.35,0.06-0.67,0.18-0.96s0.28-0.55,0.49-0.76s0.46-0.37,0.74-0.49c0.29-0.12,0.59-0.18,0.92-0.18s0.63,0.05,0.9,0.16
		c0.27,0.11,0.5,0.26,0.69,0.46c0.19,0.2,0.33,0.45,0.43,0.74C176.27,540.44,176.32,540.76,176.32,541.12z M175.41,540.76
		c-0.01-0.18-0.04-0.34-0.09-0.5s-0.13-0.29-0.24-0.4s-0.23-0.2-0.39-0.27c-0.16-0.07-0.34-0.1-0.55-0.1c-0.19,0-0.37,0.03-0.54,0.1
		c-0.17,0.07-0.31,0.16-0.44,0.27c-0.12,0.11-0.22,0.25-0.3,0.4s-0.12,0.32-0.14,0.5H175.41z"/>
	<path class="st0" d="M179.99,540.05c-0.1-0.16-0.24-0.3-0.43-0.4s-0.39-0.16-0.62-0.16c-0.1,0-0.2,0.01-0.3,0.03
		c-0.1,0.02-0.19,0.06-0.27,0.1c-0.08,0.05-0.14,0.11-0.19,0.18c-0.05,0.07-0.07,0.16-0.07,0.27c0,0.19,0.08,0.33,0.26,0.42
		s0.43,0.18,0.77,0.25c0.22,0.05,0.42,0.11,0.6,0.18c0.18,0.07,0.34,0.16,0.48,0.26c0.14,0.1,0.24,0.23,0.32,0.38
		c0.08,0.15,0.11,0.32,0.11,0.51c0,0.27-0.05,0.49-0.15,0.67s-0.24,0.33-0.4,0.45s-0.36,0.2-0.57,0.25
		c-0.22,0.05-0.44,0.08-0.67,0.08c-0.34,0-0.68-0.07-1-0.2s-0.6-0.34-0.81-0.61l0.64-0.54c0.12,0.18,0.29,0.33,0.5,0.45
		c0.21,0.12,0.44,0.18,0.7,0.18c0.11,0,0.22-0.01,0.33-0.03s0.2-0.06,0.29-0.11c0.08-0.05,0.15-0.12,0.2-0.2
		c0.05-0.08,0.08-0.19,0.08-0.31c0-0.21-0.1-0.36-0.3-0.47s-0.49-0.2-0.88-0.29c-0.15-0.04-0.31-0.08-0.46-0.14s-0.3-0.13-0.42-0.22
		s-0.23-0.21-0.31-0.36s-0.12-0.32-0.12-0.53c0-0.24,0.05-0.45,0.15-0.62s0.23-0.32,0.38-0.43c0.16-0.11,0.34-0.19,0.54-0.25
		c0.2-0.05,0.41-0.08,0.63-0.08c0.32,0,0.63,0.06,0.94,0.19s0.53,0.31,0.7,0.55L179.99,540.05z"/>
	<path class="st0" d="M184.95,543.41c-0.01-0.11-0.02-0.24-0.03-0.38c-0.01-0.14-0.01-0.26-0.01-0.36h-0.02
		c-0.11,0.24-0.31,0.45-0.58,0.61c-0.27,0.17-0.57,0.25-0.9,0.25c-0.29,0-0.54-0.05-0.76-0.14c-0.21-0.1-0.39-0.23-0.52-0.39
		c-0.14-0.17-0.24-0.36-0.3-0.58c-0.07-0.22-0.1-0.46-0.1-0.71v-2.79h0.89v2.49c0,0.18,0.01,0.36,0.04,0.53s0.08,0.32,0.16,0.44
		c0.08,0.13,0.18,0.23,0.31,0.3c0.13,0.08,0.3,0.11,0.51,0.11c0.36,0,0.65-0.13,0.87-0.4c0.22-0.27,0.33-0.63,0.33-1.08v-2.39h0.89
		v3.53c0,0.12,0,0.28,0.01,0.47c0.01,0.19,0.02,0.36,0.03,0.5H184.95z"/>
	<path class="st0" d="M188.21,543.41h-0.89v-7.18h0.89V543.41z"/>
	<path class="st0" d="M191.98,539.64h-1.2v2.34c0,0.27,0.05,0.47,0.15,0.58c0.1,0.12,0.26,0.17,0.49,0.17
		c0.08,0,0.17-0.01,0.27-0.03c0.09-0.02,0.18-0.04,0.26-0.08l0.03,0.73c-0.11,0.04-0.23,0.07-0.36,0.09
		c-0.13,0.02-0.26,0.03-0.4,0.03c-0.42,0-0.75-0.12-0.97-0.35s-0.34-0.59-0.34-1.05v-2.44h-0.87v-0.73h0.87v-1.29h0.88v1.29h1.2
		V539.64z"/>
	<path class="st0" d="M195.33,540.05c-0.1-0.16-0.24-0.3-0.43-0.4s-0.39-0.16-0.62-0.16c-0.1,0-0.2,0.01-0.3,0.03
		c-0.1,0.02-0.19,0.06-0.27,0.1c-0.08,0.05-0.14,0.11-0.19,0.18c-0.05,0.07-0.07,0.16-0.07,0.27c0,0.19,0.08,0.33,0.26,0.42
		s0.43,0.18,0.77,0.25c0.22,0.05,0.42,0.11,0.6,0.18c0.18,0.07,0.34,0.16,0.48,0.26c0.14,0.1,0.24,0.23,0.32,0.38
		c0.08,0.15,0.11,0.32,0.11,0.51c0,0.27-0.05,0.49-0.15,0.67s-0.24,0.33-0.4,0.45s-0.36,0.2-0.57,0.25
		c-0.22,0.05-0.44,0.08-0.67,0.08c-0.34,0-0.68-0.07-1-0.2s-0.6-0.34-0.81-0.61l0.64-0.54c0.12,0.18,0.29,0.33,0.5,0.45
		c0.21,0.12,0.44,0.18,0.7,0.18c0.11,0,0.22-0.01,0.33-0.03s0.2-0.06,0.29-0.11c0.08-0.05,0.15-0.12,0.2-0.2
		c0.05-0.08,0.08-0.19,0.08-0.31c0-0.21-0.1-0.36-0.3-0.47s-0.49-0.2-0.88-0.29c-0.15-0.04-0.31-0.08-0.46-0.14s-0.3-0.13-0.42-0.22
		s-0.23-0.21-0.31-0.36s-0.12-0.32-0.12-0.53c0-0.24,0.05-0.45,0.15-0.62s0.23-0.32,0.38-0.43c0.16-0.11,0.34-0.19,0.54-0.25
		c0.2-0.05,0.41-0.08,0.63-0.08c0.32,0,0.63,0.06,0.94,0.19s0.53,0.31,0.7,0.55L195.33,540.05z"/>
	<path class="st0" d="M200.91,539.04c0.25-0.17,0.55-0.25,0.89-0.25c0.3,0,0.58,0.07,0.82,0.21c0.24,0.14,0.44,0.37,0.58,0.69
		c0.15-0.29,0.36-0.51,0.64-0.67s0.57-0.23,0.89-0.23c0.29,0,0.54,0.05,0.75,0.15c0.21,0.1,0.38,0.23,0.52,0.39
		c0.14,0.17,0.24,0.36,0.31,0.58c0.07,0.22,0.1,0.46,0.1,0.71v2.79h-0.89v-2.5c0-0.18-0.02-0.36-0.05-0.52
		c-0.03-0.17-0.09-0.31-0.16-0.44s-0.18-0.23-0.3-0.3s-0.29-0.11-0.48-0.11c-0.2,0-0.38,0.04-0.52,0.13
		c-0.15,0.09-0.26,0.2-0.36,0.33c-0.09,0.14-0.16,0.29-0.2,0.46s-0.06,0.34-0.06,0.52v2.43h-0.89v-2.68c0-0.18-0.02-0.34-0.05-0.48
		c-0.03-0.15-0.09-0.27-0.16-0.38s-0.17-0.19-0.29-0.25c-0.12-0.06-0.27-0.09-0.45-0.09c-0.33,0-0.6,0.13-0.82,0.4
		c-0.22,0.27-0.33,0.63-0.33,1.08v2.39h-0.89v-3.54c0-0.12,0-0.28-0.01-0.47c-0.01-0.19-0.02-0.36-0.03-0.5h0.85
		c0.01,0.11,0.02,0.24,0.03,0.38c0.01,0.14,0.01,0.26,0.01,0.36h0.03C200.48,539.41,200.66,539.21,200.91,539.04z"/>
	<path class="st0" d="M210.73,540.5c0-0.34-0.1-0.58-0.3-0.75c-0.2-0.16-0.47-0.24-0.81-0.24c-0.25,0-0.49,0.05-0.72,0.15
		c-0.23,0.1-0.41,0.22-0.57,0.38l-0.48-0.57c0.22-0.21,0.49-0.37,0.81-0.49c0.32-0.12,0.66-0.18,1.03-0.18
		c0.32,0,0.6,0.05,0.84,0.14s0.43,0.22,0.58,0.38c0.15,0.16,0.27,0.34,0.34,0.56c0.08,0.21,0.11,0.45,0.11,0.69v1.97
		c0,0.15,0,0.31,0.01,0.48s0.03,0.31,0.05,0.41h-0.81c-0.05-0.21-0.08-0.43-0.08-0.65h-0.03c-0.16,0.24-0.37,0.43-0.62,0.56
		c-0.25,0.13-0.55,0.2-0.89,0.2c-0.18,0-0.36-0.02-0.56-0.07c-0.19-0.05-0.37-0.12-0.53-0.23c-0.16-0.11-0.29-0.25-0.39-0.43
		c-0.1-0.18-0.16-0.4-0.16-0.66c0-0.34,0.09-0.61,0.28-0.81c0.18-0.2,0.42-0.35,0.72-0.46s0.63-0.17,1.01-0.2
		c0.37-0.03,0.75-0.05,1.13-0.05V540.5z M210.51,541.27c-0.22,0-0.45,0.01-0.69,0.03c-0.24,0.02-0.45,0.06-0.65,0.11
		c-0.19,0.06-0.35,0.14-0.48,0.26c-0.13,0.11-0.19,0.27-0.19,0.46c0,0.13,0.03,0.24,0.08,0.33s0.12,0.16,0.21,0.22
		s0.19,0.1,0.29,0.12c0.11,0.02,0.22,0.03,0.33,0.03c0.42,0,0.74-0.12,0.96-0.38c0.22-0.25,0.34-0.57,0.34-0.95v-0.24H210.51z"/>
	<path class="st0" d="M214.78,542.44h0.02l1.25-3.53H217l-2.19,5.57c-0.08,0.19-0.16,0.36-0.25,0.51c-0.09,0.15-0.19,0.28-0.31,0.38
		c-0.12,0.1-0.26,0.18-0.42,0.24c-0.16,0.06-0.35,0.08-0.58,0.08c-0.09,0-0.19,0-0.29-0.01c-0.1-0.01-0.2-0.03-0.3-0.05l0.08-0.79
		c0.15,0.05,0.3,0.08,0.45,0.08c0.23,0,0.41-0.06,0.52-0.19s0.22-0.32,0.31-0.56l0.29-0.75l-1.93-4.5h1L214.78,542.44z"/>
	<path class="st0" d="M222.36,543.41h-0.97l-1.83-4.5h0.99l1.32,3.54h0.02l1.33-3.54h0.95L222.36,543.41z"/>
	<path class="st0" d="M227.83,540.5c0-0.34-0.1-0.58-0.3-0.75c-0.2-0.16-0.47-0.24-0.81-0.24c-0.25,0-0.49,0.05-0.72,0.15
		c-0.23,0.1-0.41,0.22-0.57,0.38l-0.48-0.57c0.22-0.21,0.49-0.37,0.81-0.49c0.32-0.12,0.66-0.18,1.03-0.18
		c0.32,0,0.6,0.05,0.84,0.14s0.43,0.22,0.58,0.38c0.15,0.16,0.27,0.34,0.34,0.56c0.08,0.21,0.11,0.45,0.11,0.69v1.97
		c0,0.15,0,0.31,0.01,0.48s0.03,0.31,0.05,0.41h-0.81c-0.05-0.21-0.08-0.43-0.08-0.65h-0.03c-0.16,0.24-0.37,0.43-0.62,0.56
		c-0.25,0.13-0.55,0.2-0.89,0.2c-0.18,0-0.36-0.02-0.56-0.07c-0.19-0.05-0.37-0.12-0.53-0.23c-0.16-0.11-0.29-0.25-0.39-0.43
		c-0.1-0.18-0.16-0.4-0.16-0.66c0-0.34,0.09-0.61,0.28-0.81c0.18-0.2,0.42-0.35,0.72-0.46s0.63-0.17,1.01-0.2
		c0.37-0.03,0.75-0.05,1.13-0.05V540.5z M227.61,541.27c-0.22,0-0.45,0.01-0.69,0.03c-0.24,0.02-0.45,0.06-0.65,0.11
		c-0.19,0.06-0.35,0.14-0.48,0.26c-0.13,0.11-0.19,0.27-0.19,0.46c0,0.13,0.03,0.24,0.08,0.33s0.12,0.16,0.21,0.22
		s0.19,0.1,0.29,0.12c0.11,0.02,0.22,0.03,0.33,0.03c0.42,0,0.74-0.12,0.96-0.38c0.22-0.25,0.34-0.57,0.34-0.95v-0.24H227.61z"/>
	<path class="st0" d="M230.17,539.41c-0.01-0.19-0.02-0.36-0.03-0.5h0.85c0.01,0.11,0.02,0.25,0.03,0.39
		c0.01,0.15,0.01,0.27,0.01,0.37h0.03c0.13-0.27,0.31-0.48,0.56-0.64c0.24-0.16,0.52-0.24,0.82-0.24c0.14,0,0.26,0.01,0.35,0.04
		l-0.04,0.83c-0.13-0.03-0.26-0.05-0.41-0.05c-0.22,0-0.4,0.04-0.56,0.12s-0.29,0.18-0.39,0.32c-0.1,0.13-0.18,0.29-0.23,0.46
		c-0.05,0.17-0.08,0.36-0.08,0.55v2.37h-0.89v-3.54C230.18,539.76,230.17,539.6,230.17,539.41z"/>
	<path class="st0" d="M235.33,542.44h0.02l1.25-3.53h0.95l-2.19,5.57c-0.08,0.19-0.16,0.36-0.25,0.51
		c-0.09,0.15-0.19,0.28-0.31,0.38c-0.12,0.1-0.26,0.18-0.42,0.24c-0.16,0.06-0.35,0.08-0.58,0.08c-0.09,0-0.19,0-0.29-0.01
		c-0.1-0.01-0.2-0.03-0.3-0.05l0.08-0.79c0.15,0.05,0.3,0.08,0.45,0.08c0.23,0,0.41-0.06,0.52-0.19s0.22-0.32,0.31-0.56l0.29-0.75
		l-1.93-4.5h1L235.33,542.44z"/>
	<path class="st0" d="M239.17,542.84c0,0.17-0.06,0.31-0.18,0.44s-0.27,0.19-0.46,0.19c-0.18,0-0.33-0.06-0.45-0.18
		c-0.12-0.12-0.19-0.27-0.19-0.43c0-0.17,0.06-0.32,0.18-0.44c0.12-0.12,0.27-0.18,0.46-0.18s0.34,0.06,0.46,0.18
		C239.11,542.53,239.17,542.67,239.17,542.84z"/>
</g>
</svg>
