<?xml version="1.0" encoding="utf-8"?>
<!-- Generator: Adobe Illustrator 25.2.1, SVG Export Plug-In . SVG Version: 6.00 Build 0)  -->
<svg version="1.1" id="Layer_1" xmlns="http://www.w3.org/2000/svg" xmlns:xlink="http://www.w3.org/1999/xlink" x="0px" y="0px"
	 viewBox="0 0 300 600" style="enable-background:new 0 0 300 600;" xml:space="preserve">
<style type="text/css">
	.st0{fill:#FFFFFF;}
</style>
<g>
	<g>
		<g>
			<g>
				<path class="st0" d="M133.27,48.94c-1.98,0-2.93-1.43-2.93-2.81c0-1.59,1.15-2.87,2.96-2.87c0.62,0,1.25,0.19,1.76,0.61
					l-0.56,0.78c-0.35-0.27-0.72-0.37-1.16-0.37c-0.96,0-1.68,0.67-1.68,1.81c0,1.05,0.66,1.88,1.71,1.88
					c0.45,0,0.84-0.13,1.19-0.43l0.51,0.78C134.58,48.74,133.91,48.94,133.27,48.94"/>
				<path class="st0" d="M138.11,48.94c-1.66,0-2.87-1.25-2.87-2.87c0-1.67,1.33-2.81,2.87-2.81c1.54,0,2.89,1.13,2.89,2.8
					C141,47.69,139.78,48.94,138.11,48.94 M139.67,46.07c0-1-0.49-1.87-1.55-1.87c-1.04,0-1.55,0.87-1.55,1.86
					c0,1.02,0.48,1.93,1.55,1.93c1.07,0,1.55-0.9,1.55-1.93V46.07z"/>
				<path class="st0" d="M144.36,48.94c-1.66,0-2.87-1.25-2.87-2.87c0-1.67,1.33-2.81,2.87-2.81c1.54,0,2.89,1.13,2.89,2.8
					C147.24,47.69,146.02,48.94,144.36,48.94 M145.91,46.07c0-1-0.49-1.87-1.55-1.87c-1.04,0-1.56,0.87-1.56,1.86
					c0,1.02,0.48,1.93,1.56,1.93c1.07,0,1.55-0.9,1.55-1.93V46.07z"/>
				<polygon class="st0" points="147.89,48.8 147.89,40.84 149.13,41.52 149.13,48.8 				"/>
				<path class="st0" d="M151.99,48.97c-1.4,0-2.07-0.67-2.07-0.67l0.56-0.72c0,0,0.64,0.42,1.48,0.42c0.4,0,0.74-0.28,0.74-0.56
					s-0.12-0.51-0.49-0.7c-0.37-0.19-0.78-0.39-1.11-0.54c-0.32-0.16-1.04-0.63-1.04-1.57c0-0.95,0.96-1.47,1.95-1.47
					c0.94,0,1.66,0.61,1.66,0.61l-0.48,0.73c0,0-0.54-0.38-1.13-0.38s-0.72,0.38-0.72,0.53c0,0.16,0.06,0.4,0.44,0.6
					c0.38,0.2,0.77,0.41,1.33,0.72c0.56,0.31,0.87,0.84,0.87,1.45C153.97,48.04,153.39,48.97,151.99,48.97"/>
				<path class="st0" d="M157.33,48.94c-1.98,0-2.93-1.43-2.93-2.81c0-1.59,1.15-2.87,2.96-2.87c0.62,0,1.25,0.19,1.76,0.61
					l-0.56,0.78c-0.35-0.27-0.72-0.37-1.16-0.37c-0.96,0-1.68,0.67-1.68,1.81c0,1.05,0.66,1.88,1.71,1.88
					c0.45,0,0.84-0.13,1.19-0.43l0.51,0.78C158.64,48.74,157.97,48.94,157.33,48.94"/>
				<path class="st0" d="M163.45,48.17c0,0-0.63,0.77-1.81,0.77c-1.4,0-2.08-1.01-2.08-2.04v-3.52h1.24v3.47c0,0.6,0.47,1.1,1.2,1.1
					c0.64,0,1.26-0.76,1.26-0.76v-3.81h1.24v5.42L163.45,48.17z"/>
				<polygon class="st0" points="165.61,48.8 165.61,40.84 166.85,41.52 166.85,48.8 				"/>
				<path class="st0" d="M170.95,48.94c-1.1,0-1.72-0.61-1.72-0.61v2.7h-1.25v-7.76l1.25,0.66c0,0,0.67-0.68,1.79-0.68
					c1.17,0,2.64,0.9,2.64,2.91C173.66,48.17,172.22,48.94,170.95,48.94 M170.87,44.2c-1.06,0-1.68,0.99-1.68,0.99v2.05
					c0,0,0.7,0.79,1.72,0.79c1.19,0,1.44-1.41,1.44-1.9C172.36,45.63,172.25,44.2,170.87,44.2"/>
				<path class="st0" d="M176.93,48.95h-0.78c-0.98,0-1.32-0.95-1.32-1.57v-3.19h-0.98v-0.81h0.98v-2.39h1.23v2.39h1.26v0.81h-1.25
					v2.89c0,0.32-0.06,0.83,0.49,0.83h0.89L176.93,48.95z"/>
				<path class="st0" d="M178.92,42.44c-0.45,0-0.82-0.37-0.82-0.81c0-0.44,0.37-0.81,0.82-0.81c0.45,0,0.82,0.37,0.82,0.81
					C179.73,42.08,179.36,42.44,178.92,42.44 M178.3,43.38h1.22v5.43h-1.22V43.38z"/>
				<path class="st0" d="M184.44,48.8v-3.47c0-0.6-0.47-1.1-1.2-1.1c-0.64,0-1.35,0.76-1.35,0.76v3.81h-1.24v-5.42l1.05,0.62
					c0,0,0.72-0.77,1.9-0.77c1.4,0,2.08,1.01,2.08,2.03v3.53H184.44z"/>
				<path class="st0" d="M189.48,51.33c-0.19,0-1.65-0.02-1.65-0.02l0.02-0.99h1.22c1.19,0,1.86-0.63,1.86-1.5v-0.49
					c0,0-0.65,0.61-1.74,0.61c-1.26,0-2.71-0.77-2.71-2.78c0-2.01,1.47-2.91,2.64-2.91c1.12,0,1.79,0.68,1.79,0.68l1.25-0.62v5.39
					C192.16,50.15,191.19,51.33,189.48,51.33 M190.94,45.19c0,0-0.61-0.99-1.68-0.99c-1.38,0-1.49,1.43-1.49,1.92
					c0,0.49,0.26,1.9,1.44,1.9c1.02,0,1.72-0.79,1.72-0.79V45.19z"/>
				<polygon class="st0" points="117.77,46.33 115.48,48.61 118.28,49.65 121.62,46.33 				"/>
				<polygon class="st0" points="121.95,41.72 119.68,39.46 118.61,42.22 121.95,45.54 				"/>
				<polygon class="st0" points="126.08,42.55 129.14,43.35 126.59,45.87 122.74,45.87 				"/>
				<polygon class="st0" points="125.88,50.11 125.01,53.07 120.26,48.35 122.18,46.43 				"/>
				<g>
					<path class="st0" d="M194.01,43.74c0,0.32-0.26,0.58-0.59,0.58c-0.33,0-0.59-0.26-0.59-0.58c0-0.32,0.26-0.57,0.6-0.57
						C193.75,43.17,194.01,43.42,194.01,43.74z M192.98,43.74c0,0.25,0.19,0.46,0.45,0.46c0.25,0,0.44-0.2,0.44-0.45
						c0-0.25-0.19-0.46-0.45-0.46C193.17,43.29,192.98,43.49,192.98,43.74z M193.33,44.04h-0.13v-0.57
						c0.05-0.01,0.13-0.02,0.22-0.02c0.11,0,0.16,0.02,0.2,0.05c0.04,0.02,0.06,0.07,0.06,0.12c0,0.07-0.05,0.11-0.12,0.14v0.01
						c0.06,0.02,0.08,0.06,0.1,0.14c0.02,0.09,0.03,0.12,0.04,0.14h-0.14c-0.02-0.02-0.03-0.07-0.05-0.14
						c-0.01-0.06-0.05-0.09-0.12-0.09h-0.06V44.04z M193.34,43.72h0.06c0.07,0,0.13-0.02,0.13-0.08c0-0.05-0.04-0.09-0.12-0.09
						c-0.04,0-0.06,0-0.07,0.01V43.72z"/>
				</g>
			</g>
			<g>
				<polygon class="st0" points="119.22,52.92 119.22,49.37 119.93,48.67 121.95,50.68 121.95,51.36 				"/>
				<polygon class="st0" points="118.9,43.17 115.95,43.17 116.9,45.87 121.62,45.87 				"/>
				<polygon class="st0" points="128.83,49.04 125.47,49.04 122.74,46.33 127.47,46.33 				"/>
				<polygon class="st0" points="122.42,40.85 125.14,39.24 125.14,42.84 122.42,45.54 				"/>
				<g>
					<path class="st0" d="M127.2,50.3c0,0.22-0.18,0.4-0.41,0.4c-0.23,0-0.41-0.18-0.41-0.4c0-0.22,0.18-0.4,0.41-0.4
						C127.02,49.91,127.2,50.08,127.2,50.3z M126.49,50.3c0,0.18,0.13,0.32,0.31,0.32c0.17,0,0.3-0.14,0.3-0.31
						c0-0.18-0.13-0.32-0.31-0.32C126.62,49.99,126.49,50.13,126.49,50.3z M126.73,50.51h-0.09v-0.4c0.04,0,0.09-0.01,0.15-0.01
						c0.08,0,0.11,0.01,0.14,0.03c0.02,0.02,0.04,0.05,0.04,0.08c0,0.05-0.04,0.08-0.08,0.09v0c0.04,0.01,0.06,0.04,0.07,0.1
						c0.01,0.06,0.02,0.08,0.03,0.1h-0.1c-0.01-0.01-0.02-0.05-0.03-0.1c-0.01-0.04-0.03-0.06-0.08-0.06h-0.04V50.51z M126.74,50.28
						h0.04c0.05,0,0.09-0.02,0.09-0.06c0-0.04-0.03-0.06-0.09-0.06c-0.02,0-0.04,0-0.05,0V50.28z"/>
				</g>
			</g>
		</g>
	</g>
	<g>
		<path class="st0" d="M104.9,43.54h0.49v2.71h0.02c0.08-0.12,0.17-0.22,0.28-0.3c0.11-0.08,0.22-0.15,0.34-0.21
			s0.24-0.09,0.37-0.12c0.13-0.02,0.25-0.04,0.36-0.04c0.27,0,0.52,0.05,0.75,0.14c0.23,0.09,0.42,0.22,0.58,0.38
			c0.16,0.16,0.29,0.36,0.38,0.58c0.09,0.22,0.14,0.46,0.14,0.73s-0.05,0.5-0.14,0.73c-0.09,0.22-0.22,0.41-0.38,0.58
			c-0.16,0.16-0.36,0.29-0.58,0.38c-0.23,0.09-0.48,0.14-0.75,0.14c-0.11,0-0.23-0.01-0.36-0.04c-0.13-0.02-0.25-0.06-0.37-0.12
			c-0.12-0.05-0.23-0.12-0.34-0.21c-0.11-0.08-0.2-0.19-0.28-0.3h-0.02v0.58h-0.49V43.54z M108.08,47.4c0-0.19-0.03-0.37-0.09-0.54
			c-0.06-0.17-0.15-0.31-0.26-0.44c-0.11-0.12-0.25-0.22-0.41-0.29c-0.16-0.07-0.34-0.11-0.55-0.11s-0.39,0.04-0.56,0.11
			c-0.17,0.07-0.32,0.17-0.44,0.29c-0.12,0.12-0.22,0.27-0.29,0.44c-0.07,0.17-0.1,0.35-0.1,0.54c0,0.19,0.03,0.37,0.1,0.54
			c0.07,0.17,0.17,0.31,0.29,0.44c0.12,0.12,0.27,0.22,0.44,0.29c0.17,0.07,0.35,0.11,0.56,0.11s0.39-0.04,0.55-0.11
			c0.16-0.07,0.3-0.17,0.41-0.29c0.11-0.12,0.2-0.27,0.26-0.44S108.08,47.59,108.08,47.4z"/>
		<path class="st0" d="M110.75,48.53l1.06-2.86h0.6l-1.74,4.37c-0.1,0.27-0.24,0.48-0.4,0.64c-0.16,0.16-0.39,0.24-0.7,0.24
			c-0.07,0-0.15,0-0.23-0.01c-0.08,0-0.15-0.02-0.23-0.04l0.05-0.47c0.1,0.05,0.23,0.08,0.37,0.08c0.17,0,0.31-0.05,0.41-0.16
			c0.1-0.11,0.19-0.26,0.26-0.46l0.25-0.67l-1.43-3.51h0.62L110.75,48.53z"/>
	</g>
	<g>
		<path class="st0" d="M114.6,32.77c-1.07,0.93-2.39,1.39-3.97,1.39c-2.06,0-3.67-0.67-4.86-2c-1.07-1.2-1.6-2.65-1.6-4.35
			c0-1.82,0.6-3.34,1.8-4.57c1.2-1.23,2.79-1.85,4.76-1.85c1.51,0,2.79,0.46,3.85,1.38l-1.23,1.73c-0.71-0.53-1.56-0.8-2.56-0.8
			c-1.09,0-1.97,0.37-2.65,1.1c-0.68,0.73-1.02,1.72-1.02,2.97c0,1.21,0.34,2.22,1.02,3.02c0.68,0.8,1.59,1.2,2.72,1.2
			c0.99,0,1.87-0.32,2.64-0.95L114.6,32.77z"/>
		<path class="st0" d="M127.43,27.69c0,1.85-0.6,3.39-1.81,4.62c-1.21,1.23-2.73,1.85-4.55,1.85c-1.82,0-3.34-0.62-4.54-1.85
			c-1.2-1.23-1.8-2.77-1.8-4.62c0-1.82,0.63-3.33,1.9-4.55c1.22-1.17,2.7-1.75,4.44-1.75c1.74,0,3.23,0.58,4.46,1.75
			C126.79,24.36,127.43,25.88,127.43,27.69z M124.49,27.69c0-1.18-0.28-2.16-0.84-2.92c-0.62-0.83-1.49-1.25-2.59-1.25
			s-1.96,0.42-2.56,1.25c-0.56,0.77-0.84,1.74-0.84,2.92c0,1.25,0.27,2.26,0.81,3.05c0.61,0.86,1.47,1.3,2.59,1.3
			c1.12,0,1.99-0.43,2.61-1.3C124.22,29.96,124.49,28.94,124.49,27.69z"/>
		<path class="st0" d="M141.06,27.69c0,1.85-0.6,3.39-1.81,4.62c-1.21,1.23-2.72,1.85-4.55,1.85c-1.82,0-3.34-0.62-4.54-1.85
			c-1.2-1.23-1.8-2.77-1.8-4.62c0-1.82,0.63-3.33,1.9-4.55c1.22-1.17,2.7-1.75,4.44-1.75c1.74,0,3.23,0.58,4.46,1.75
			C140.43,24.36,141.06,25.88,141.06,27.69z M138.13,27.69c0-1.18-0.28-2.16-0.84-2.92c-0.62-0.83-1.49-1.25-2.59-1.25
			s-1.96,0.42-2.56,1.25c-0.56,0.77-0.84,1.74-0.84,2.92c0,1.25,0.27,2.26,0.81,3.05c0.61,0.86,1.47,1.3,2.59,1.3
			c1.12,0,1.99-0.43,2.61-1.3C137.86,29.96,138.13,28.94,138.13,27.69z"/>
		<path class="st0" d="M145.25,33.89h-2.74V15.97l2.74,1.53V33.89z"/>
		<g>
			<g>
				<path class="st0" d="M166.17,27.69c0,1.85-0.6,3.39-1.81,4.62c-1.21,1.23-2.72,1.85-4.55,1.85c-1.82,0-3.34-0.62-4.54-1.85
					c-1.2-1.23-1.8-2.77-1.8-4.62c0-1.82,0.63-3.33,1.9-4.55c1.22-1.17,2.7-1.75,4.44-1.75c1.74,0,3.23,0.58,4.46,1.75
					C165.53,24.36,166.17,25.88,166.17,27.69z M163.23,27.69c0-1.18-0.28-2.16-0.84-2.92c-0.62-0.83-1.49-1.25-2.59-1.25
					c-1.1,0-1.96,0.42-2.56,1.25c-0.56,0.77-0.84,1.74-0.84,2.92c0,1.25,0.27,2.26,0.81,3.05c0.61,0.86,1.47,1.3,2.59,1.3
					c1.12,0,1.99-0.43,2.61-1.3C162.96,29.96,163.23,28.94,163.23,27.69z"/>
				<path class="st0" d="M178.62,33.89h-2.74V26.1c0-0.7-0.24-1.29-0.73-1.76c-0.48-0.47-1.12-0.71-1.91-0.71
					c-0.87,0-1.87,0.57-2.98,1.7v8.57h-2.74V21.7l2.32,1.4c1.18-1.15,2.58-1.73,4.19-1.73c1.45,0,2.6,0.48,3.45,1.43
					c0.76,0.85,1.13,1.9,1.13,3.15V33.89z"/>
				<path class="st0" d="M191.98,28.36h-8.75c0.33,2.49,1.5,3.73,3.5,3.73c1.23,0,2.24-0.35,3.03-1.05l1.08,1.78
					c-1.05,0.97-2.45,1.45-4.19,1.45c-2.42,0-4.18-0.91-5.3-2.73c-0.69-1.12-1.04-2.27-1.04-3.45c0-1.45,0.28-2.71,0.84-3.78
					c1-1.95,2.79-2.93,5.35-2.93c2.53,0,4.2,1.16,5.01,3.48C191.86,25.84,192.02,27.01,191.98,28.36z M189.22,26.56
					c-0.1-2.15-1.02-3.23-2.76-3.23c-1.92,0-2.98,1.08-3.18,3.23H189.22z"/>
				<path class="st0" d="M151.17,31.89c-0.53,0-0.85-0.23-0.99-0.68c-0.07-0.18-0.1-0.58-0.1-1.2v-5.08h1.9V23.1h-1.9v-2.91
					l-2.74-1.53v12.02c0,0.87,0.21,1.63,0.64,2.28c0.53,0.83,1.28,1.25,2.27,1.25h1.73l1.16-2.33H151.17z"/>
			</g>
		</g>
		<g>
			<path class="st0" d="M195.13,22.68c0,0.72-0.58,1.29-1.33,1.29c-0.74,0-1.33-0.57-1.33-1.29c0-0.72,0.59-1.29,1.34-1.29
				C194.54,21.39,195.13,21.96,195.13,22.68z M192.8,22.68c0,0.57,0.43,1.03,1.01,1.03c0.56,0.01,0.99-0.46,0.99-1.02
				c0-0.57-0.43-1.04-1-1.04C193.23,21.65,192.8,22.11,192.8,22.68z M193.59,23.34h-0.3v-1.29c0.12-0.02,0.28-0.04,0.5-0.04
				c0.25,0,0.36,0.04,0.44,0.1c0.08,0.06,0.13,0.15,0.13,0.27c0,0.16-0.12,0.26-0.27,0.31v0.02c0.13,0.04,0.19,0.14,0.23,0.31
				c0.04,0.2,0.07,0.27,0.09,0.31h-0.32c-0.04-0.05-0.06-0.16-0.1-0.31c-0.02-0.13-0.1-0.2-0.27-0.2h-0.14V23.34z M193.6,22.62h0.14
				c0.17,0,0.3-0.05,0.3-0.19c0-0.12-0.09-0.2-0.28-0.2c-0.08,0-0.13,0.01-0.17,0.02V22.62z"/>
		</g>
	</g>
</g>
</svg>
