<?xml version="1.0" encoding="utf-8"?>
<!-- Generator: Adobe Illustrator 25.2.1, SVG Export Plug-In . SVG Version: 6.00 Build 0)  -->
<svg version="1.1" id="Layer_1" xmlns="http://www.w3.org/2000/svg" xmlns:xlink="http://www.w3.org/1999/xlink" x="0px" y="0px"
	 viewBox="0 0 300 600" style="enable-background:new 0 0 300 600;" xml:space="preserve">
<style type="text/css">
	.st0{fill:#EAF5FB;}
</style>
<g>
	<path class="st0" d="M65.12,90.26v-4.44h2.13v4.03c0,2.09,0.59,2.93,2.05,2.93c1.5,0,2.09-0.84,2.09-2.93v-3.81
		c0-1.72-0.48-2.57-1.72-3.37l-1.94-1.25c-1.87-1.21-2.6-2.6-2.6-5.06V73.1c0-2.79,1.5-4.36,4.11-4.36c2.6,0,4.11,1.58,4.11,4.36
		v3.26h-2.13v-2.9c0-1.98-0.55-2.75-1.94-2.75c-1.39,0-1.94,0.77-1.94,2.75v2.75c0,1.72,0.48,2.57,1.72,3.37l1.94,1.25
		c1.87,1.21,2.6,2.6,2.6,5.06v4.36c0,2.9-1.58,4.51-4.25,4.51C66.66,94.77,65.12,93.15,65.12,90.26z"/>
	<path class="st0" d="M79.49,71.01h-3.08V69.1h8.36v1.91h-3.08V94.4h-2.2V71.01z"/>
	<path class="st0" d="M88.19,69.1h4.07c2.93,0,4.33,1.5,4.33,4.58v3.23c0,2.05-0.66,3.3-1.98,3.89v0.07
		c1.32,0.59,1.98,1.83,1.98,3.92v9.61h-2.2v-9.46c0-2.35-0.66-3.04-2.75-3.04h-1.25v12.5h-2.2V69.1z M92,79.99
		c1.83,0,2.38-0.7,2.38-3.04v-2.9c0-2.35-0.55-3.04-2.38-3.04h-1.61v8.98H92z"/>
	<path class="st0" d="M100.69,69.1h7.26v1.91h-5.06v8.84h4.4v1.91h-4.4v10.74h5.06v1.91h-7.26V69.1z"/>
	<path class="st0" d="M111.51,69.1h2.86l4,18.52h0.07V69.1h1.98v25.3h-2.38l-4.47-20.86h-0.07V94.4h-1.98V69.1z"/>
	<path class="st0" d="M124.56,90.81V73.28c0-2.9,1.58-4.55,4.22-4.55c2.68,0,4.18,1.65,4.18,4.55v2.79h-2.09v-2.38
		c0-2.13-0.59-2.97-2.05-2.97c-1.5,0-2.05,0.84-2.05,2.97v16.87c0,1.5,0.55,2.24,1.76,2.24c1.5,0,2.35-1.14,2.35-3.19v-7.26h-2.05
		v-1.91h4.25V94.4h-1.87v-1.8h-0.11c-0.59,1.39-1.65,2.16-3.15,2.16C125.81,94.77,124.56,93.26,124.56,90.81z"/>
	<path class="st0" d="M139.23,71.01h-3.08V69.1h8.36v1.91h-3.08V94.4h-2.2V71.01z"/>
	<path class="st0" d="M147.92,69.1h2.2v10.74h4.14V69.1h2.2v25.3h-2.2V81.75h-4.14V94.4h-2.2V69.1z"/>
	<path class="st0" d="M160.76,69.1h7.26v1.91h-5.06v8.84h4.4v1.91h-4.4v10.74h5.06v1.91h-7.26V69.1z"/>
	<path class="st0" d="M171.58,69.1h2.86l4,18.52h0.07V69.1h1.98v25.3h-2.38l-4.47-20.86h-0.07V94.4h-1.98V69.1z"/>
	<path class="st0" d="M185.62,94.4h-0.88v-3.01h2.49v2.64l-1.61,4.07h-1.28L185.62,94.4z"/>
	<path class="st0" d="M199.78,71.01h-3.08V69.1h8.36v1.91h-3.08V94.4h-2.2V71.01z"/>
	<path class="st0" d="M208.03,90.18V73.32c0-2.93,1.58-4.58,4.25-4.58s4.25,1.65,4.25,4.58v16.87c0,2.93-1.58,4.58-4.25,4.58
		S208.03,93.12,208.03,90.18z M214.33,89.82V73.68c0-2.13-0.59-2.97-2.05-2.97c-1.5,0-2.05,0.84-2.05,2.97v16.13
		c0,2.13,0.55,2.97,2.05,2.97C213.75,92.79,214.33,91.94,214.33,89.82z"/>
	<path class="st0" d="M220.68,69.1h2.86l4,18.52h0.07V69.1h1.98v25.3h-2.38l-4.47-20.86h-0.07V94.4h-1.98V69.1z"/>
	<path class="st0" d="M233.88,69.1h7.26v1.91h-5.06v8.84h4.4v1.91h-4.4v10.74h5.06v1.91h-7.26V69.1z"/>
	<path class="st0" d="M245.91,94.4h-0.88v-3.01h2.49v2.64l-1.61,4.07h-1.28L245.91,94.4z"/>
	<path class="st0" d="M64.63,106.99h2.9l3.19,25.3h-2.24l-0.73-6.27H64.3l-0.73,6.27h-2.13L64.63,106.99z M67.52,124.12l-1.47-13.64
		h-0.07l-1.47,13.64H67.52z"/>
	<path class="st0" d="M74.16,106.99h2.86l4,18.52h0.07v-18.52h1.98v25.3h-2.38l-4.47-20.86h-0.07v20.86h-1.98V106.99z"/>
	<path class="st0" d="M87.36,106.99h4.18c2.93,0,4.33,1.5,4.33,4.58v16.13c0,3.08-1.39,4.58-4.33,4.58h-4.18V106.99z M91.28,130.39
		c1.83,0,2.38-0.7,2.38-3.04v-15.4c0-2.35-0.55-3.04-2.38-3.04h-1.72v21.49H91.28z"/>
	<path class="st0" d="M106.03,106.99h7.26v1.91h-5.06v9.2h4.4v1.91h-4.4v12.28h-2.2V106.99z"/>
	<path class="st0" d="M116.7,106.99h2.2v25.3h-2.2V106.99z"/>
	<path class="st0" d="M123.19,106.99h4.07c2.93,0,4.33,1.5,4.33,4.58v3.23c0,2.05-0.66,3.3-1.98,3.89v0.07
		c1.32,0.59,1.98,1.83,1.98,3.92v9.61h-2.2v-9.46c0-2.35-0.66-3.04-2.75-3.04h-1.25v12.5h-2.2V106.99z M127,117.88
		c1.83,0,2.38-0.7,2.38-3.04v-2.9c0-2.35-0.55-3.04-2.38-3.04h-1.61v8.98H127z"/>
	<path class="st0" d="M135.69,106.99h3.48l2.82,18.66h0.07l2.82-18.66h3.63v25.3h-2.2v-22.62h-0.07l-3.41,22.62h-1.72l-3.41-22.62
		h-0.07v22.62h-1.94V106.99z"/>
	<path class="st0" d="M158.87,106.99h3.48l2.82,18.66h0.07l2.82-18.66h3.63v25.3h-2.2v-22.62h-0.07l-3.41,22.62h-1.72l-3.41-22.62
		h-0.07v22.62h-1.94V106.99z"/>
	<path class="st0" d="M175.92,128.22v-21.23h2.2v20.83c0,2.05,0.51,2.86,1.98,2.86s1.98-0.81,1.98-2.86v-20.83h2.13v21.23
		c0,2.82-1.54,4.44-4.14,4.44S175.92,131.05,175.92,128.22z"/>
	<path class="st0" d="M188.02,128.15v-4.44h2.13v4.03c0,2.09,0.59,2.93,2.05,2.93c1.5,0,2.09-0.84,2.09-2.93v-3.81
		c0-1.72-0.48-2.57-1.72-3.37l-1.94-1.25c-1.87-1.21-2.6-2.6-2.6-5.06v-3.26c0-2.79,1.5-4.36,4.11-4.36c2.6,0,4.11,1.58,4.11,4.36
		v3.26h-2.13v-2.9c0-1.98-0.55-2.75-1.94-2.75s-1.94,0.77-1.94,2.75v2.75c0,1.72,0.48,2.57,1.72,3.37l1.94,1.25
		c1.87,1.21,2.6,2.6,2.6,5.06v4.36c0,2.9-1.58,4.51-4.25,4.51S188.02,131.05,188.02,128.15z"/>
	<path class="st0" d="M200.16,128.3v-17.31c0-2.79,1.47-4.36,4.11-4.36c2.68,0,4.14,1.58,4.14,4.36v4.14h-2.09v-3.78
		c0-1.98-0.59-2.75-1.98-2.75c-1.43,0-1.98,0.77-1.98,2.75v16.57c0,1.98,0.55,2.75,1.98,2.75c1.39,0,1.98-0.77,1.98-2.75v-5.1h2.09
		v5.46c0,2.79-1.47,4.36-4.14,4.36C201.63,132.66,200.16,131.08,200.16,128.3z"/>
	<path class="st0" d="M212.3,106.99h2.2v23.39h4.69v1.91h-6.89V106.99z"/>
	<path class="st0" d="M222.6,106.99h7.26v1.91h-5.06v8.84h4.4v1.91h-4.4v10.74h5.06v1.91h-7.26V106.99z"/>
	<path class="st0" d="M233.09,128.15v-4.44h2.13v4.03c0,2.09,0.59,2.93,2.05,2.93c1.5,0,2.09-0.84,2.09-2.93v-3.81
		c0-1.72-0.48-2.57-1.72-3.37l-1.94-1.25c-1.87-1.21-2.6-2.6-2.6-5.06v-3.26c0-2.79,1.5-4.36,4.11-4.36c2.6,0,4.11,1.58,4.11,4.36
		v3.26h-2.13v-2.9c0-1.98-0.55-2.75-1.94-2.75s-1.94,0.77-1.94,2.75v2.75c0,1.72,0.48,2.57,1.72,3.37l1.94,1.25
		c1.87,1.21,2.6,2.6,2.6,5.06v4.36c0,2.9-1.58,4.51-4.25,4.51S233.09,131.05,233.09,128.15z"/>
	<path class="st0" d="M245.37,129.29h2.46v3.01h-2.46V129.29z"/>
</g>
</svg>
