<?xml version="1.0" encoding="utf-8"?>
<!-- Generator: Adobe Illustrator 25.2.1, SVG Export Plug-In . SVG Version: 6.00 Build 0)  -->
<svg version="1.1" id="Layer_1" xmlns="http://www.w3.org/2000/svg" xmlns:xlink="http://www.w3.org/1999/xlink" x="0px" y="0px"
	 viewBox="0 0 300 600" style="enable-background:new 0 0 300 600;" xml:space="preserve">
<style type="text/css">
	.st0{fill:#00A9E0;}
	.st1{fill:#FFFFFF;}
</style>
<rect x="87.13" y="485.13" class="st0" width="132.18" height="32.42"/>
<g>
	<path class="st1" d="M96.92,507.44v-12.02h2.92v9.49h4.65v2.53H96.92z"/>
	<path class="st1" d="M106.11,507.44v-12.02h8.08v2.46h-5.28v2.26h4.99v2.33h-4.99v2.5h5.59v2.48H106.11z"/>
	<path class="st1" d="M124.82,507.44l-0.93-2.36h-4.65l-0.88,2.36h-3.16l5.04-12.02h2.82l4.99,12.02H124.82z M121.6,498.63
		l-1.53,4.13h3.02L121.6,498.63z"/>
	<path class="st1" d="M135.75,507.44l-2.6-4.77h-0.99v4.77h-2.85v-12.02h4.59c2.31,0,4.6,0.88,4.6,3.63c0,1.61-0.95,2.77-2.5,3.24
		l3.14,5.15H135.75z M133.69,497.76h-1.55v2.8h1.38c0.93,0,2.11-0.24,2.11-1.46C135.63,497.98,134.56,497.76,133.69,497.76z"/>
	<path class="st1" d="M148.47,507.44l-4.84-7.86h-0.05l0.07,7.86h-2.82v-12.02h3.31l4.82,7.85h0.05l-0.07-7.85h2.82v12.02H148.47z"
		/>
	<path class="st1" d="M169.9,507.44l0.07-8.51h-0.05l-3.12,8.51h-2.04l-3.04-8.51h-0.05l0.07,8.51H159v-12.02h4.13l2.73,7.71h0.07
		l2.62-7.71h4.2v12.02H169.9z"/>
	<path class="st1" d="M181.45,507.77c-3.75,0-6.54-2.58-6.54-6.38c0-3.86,2.79-6.28,6.54-6.28c3.77,0,6.56,2.43,6.56,6.28
		C188,505.18,185.22,507.77,181.45,507.77z M181.45,497.71c-2.04,0-3.43,1.56-3.43,3.67c0,2.17,1.41,3.74,3.43,3.74
		s3.45-1.56,3.45-3.74C184.89,499.27,183.49,497.71,181.45,497.71z"/>
	<path class="st1" d="M196.61,507.44l-2.6-4.77h-0.99v4.77h-2.85v-12.02h4.58c2.31,0,4.6,0.88,4.6,3.63c0,1.61-0.95,2.77-2.5,3.24
		l3.14,5.15H196.61z M194.56,497.76h-1.54v2.8h1.38c0.93,0,2.11-0.24,2.11-1.46C196.5,497.98,195.42,497.76,194.56,497.76z"/>
	<path class="st1" d="M201.69,507.44v-12.02h8.08v2.46h-5.28v2.26h4.99v2.33h-4.99v2.5h5.59v2.48H201.69z"/>
</g>
</svg>
