<?xml version="1.0" encoding="utf-8"?>
<!-- Generator: Adobe Illustrator 25.2.1, SVG Export Plug-In . SVG Version: 6.00 Build 0)  -->
<svg version="1.1" id="Layer_1" xmlns="http://www.w3.org/2000/svg" xmlns:xlink="http://www.w3.org/1999/xlink" x="0px" y="0px"
	 viewBox="0 0 300 600" style="enable-background:new 0 0 300 600;" xml:space="preserve">
<style type="text/css">
	.st0{fill:#FFFFFF;}
</style>
<g>
	<path class="st0" d="M66.45,536.74h-0.98v-7.01h0.98V536.74z"/>
	<path class="st0" d="M70.31,536.74H69.3l-1.91-4.69h1.03l1.38,3.69h0.02l1.39-3.69h0.99L70.31,536.74z"/>
	<path class="st0" d="M76.01,533.71c0-0.35-0.11-0.61-0.32-0.78c-0.21-0.17-0.49-0.25-0.84-0.25c-0.26,0-0.51,0.05-0.75,0.15
		c-0.23,0.1-0.43,0.23-0.59,0.39l-0.49-0.59c0.23-0.22,0.51-0.39,0.85-0.51c0.33-0.12,0.69-0.19,1.07-0.19
		c0.34,0,0.63,0.05,0.88,0.14s0.45,0.23,0.61,0.39c0.16,0.17,0.28,0.36,0.36,0.58c0.08,0.22,0.12,0.46,0.12,0.72v2.05
		c0,0.16,0,0.33,0.01,0.5s0.03,0.32,0.05,0.43h-0.84c-0.05-0.22-0.08-0.45-0.08-0.67h-0.03c-0.17,0.25-0.39,0.45-0.65,0.58
		s-0.57,0.21-0.93,0.21c-0.19,0-0.38-0.03-0.58-0.07c-0.2-0.05-0.38-0.13-0.55-0.24s-0.3-0.26-0.41-0.45s-0.16-0.41-0.16-0.68
		c0-0.36,0.1-0.64,0.29-0.85c0.19-0.21,0.44-0.37,0.75-0.47c0.31-0.11,0.66-0.18,1.05-0.21s0.78-0.05,1.18-0.05V533.71z
		 M75.78,534.51c-0.23,0-0.47,0.01-0.72,0.03c-0.25,0.02-0.47,0.06-0.67,0.12c-0.2,0.06-0.37,0.15-0.5,0.27
		c-0.13,0.12-0.2,0.28-0.2,0.48c0,0.14,0.03,0.25,0.08,0.35c0.06,0.09,0.13,0.17,0.22,0.23c0.09,0.06,0.19,0.1,0.31,0.12
		c0.11,0.02,0.23,0.04,0.35,0.04c0.44,0,0.77-0.13,1-0.39c0.23-0.26,0.35-0.59,0.35-0.98v-0.25H75.78z"/>
	<path class="st0" d="M79.3,532.05c0.01,0.12,0.02,0.25,0.03,0.4c0.01,0.15,0.01,0.27,0.01,0.37h0.03c0.06-0.13,0.14-0.24,0.24-0.35
		c0.1-0.11,0.22-0.2,0.35-0.29c0.13-0.08,0.28-0.15,0.44-0.19c0.16-0.05,0.32-0.07,0.49-0.07c0.3,0,0.56,0.05,0.78,0.15
		c0.22,0.1,0.4,0.24,0.54,0.41s0.25,0.37,0.32,0.6c0.07,0.23,0.1,0.48,0.1,0.74v2.91h-0.93v-2.6c0-0.19-0.01-0.37-0.04-0.54
		c-0.03-0.17-0.08-0.32-0.16-0.46s-0.19-0.24-0.33-0.32s-0.32-0.12-0.53-0.12c-0.37,0-0.67,0.14-0.91,0.42
		c-0.23,0.28-0.35,0.65-0.35,1.12v2.49h-0.93v-3.68c0-0.12,0-0.29-0.01-0.49c-0.01-0.2-0.02-0.37-0.03-0.52H79.3z"/>
	<path class="st0" d="M87.03,532.05l1.06,3.58h0.02l1.12-3.58h0.98l1.14,3.58h0.02l1.06-3.58h0.98l-1.55,4.69h-0.97l-1.16-3.52
		h-0.02l-1.15,3.52h-0.97l-1.56-4.69H87.03z"/>
	<path class="st0" d="M97.26,533.71c0-0.35-0.11-0.61-0.32-0.78c-0.21-0.17-0.49-0.25-0.84-0.25c-0.26,0-0.51,0.05-0.75,0.15
		c-0.23,0.1-0.43,0.23-0.59,0.39l-0.49-0.59c0.23-0.22,0.51-0.39,0.85-0.51c0.33-0.12,0.69-0.19,1.07-0.19
		c0.34,0,0.63,0.05,0.88,0.14s0.45,0.23,0.61,0.39c0.16,0.17,0.28,0.36,0.36,0.58c0.08,0.22,0.12,0.46,0.12,0.72v2.05
		c0,0.16,0,0.33,0.01,0.5s0.03,0.32,0.05,0.43h-0.84c-0.05-0.22-0.08-0.45-0.08-0.67h-0.03c-0.17,0.25-0.39,0.45-0.65,0.58
		s-0.57,0.21-0.93,0.21c-0.19,0-0.38-0.03-0.58-0.07c-0.2-0.05-0.38-0.13-0.55-0.24s-0.3-0.26-0.41-0.45s-0.16-0.41-0.16-0.68
		c0-0.36,0.1-0.64,0.29-0.85c0.19-0.21,0.44-0.37,0.75-0.47c0.31-0.11,0.66-0.18,1.05-0.21s0.78-0.05,1.18-0.05V533.71z
		 M97.03,534.51c-0.23,0-0.47,0.01-0.72,0.03c-0.25,0.02-0.47,0.06-0.67,0.12c-0.2,0.06-0.37,0.15-0.5,0.27
		c-0.13,0.12-0.2,0.28-0.2,0.48c0,0.14,0.03,0.25,0.08,0.35c0.06,0.09,0.13,0.17,0.22,0.23c0.09,0.06,0.19,0.1,0.31,0.12
		c0.11,0.02,0.23,0.04,0.35,0.04c0.44,0,0.77-0.13,1-0.39c0.23-0.26,0.35-0.59,0.35-0.98v-0.25H97.03z"/>
	<path class="st0" d="M102.24,533.24c-0.11-0.17-0.25-0.31-0.45-0.42c-0.19-0.11-0.41-0.16-0.64-0.16c-0.11,0-0.21,0.01-0.32,0.04
		c-0.11,0.02-0.2,0.06-0.28,0.11c-0.08,0.05-0.15,0.11-0.2,0.19c-0.05,0.08-0.07,0.17-0.07,0.28c0,0.2,0.09,0.34,0.27,0.44
		s0.45,0.18,0.8,0.26c0.22,0.05,0.43,0.12,0.62,0.19c0.19,0.07,0.36,0.16,0.5,0.27c0.14,0.11,0.25,0.24,0.33,0.39
		s0.12,0.33,0.12,0.53c0,0.28-0.05,0.51-0.16,0.7s-0.25,0.35-0.42,0.47c-0.18,0.12-0.37,0.21-0.6,0.26
		c-0.22,0.05-0.46,0.08-0.69,0.08c-0.36,0-0.7-0.07-1.04-0.21s-0.62-0.35-0.85-0.63l0.66-0.56c0.13,0.18,0.3,0.34,0.52,0.46
		s0.46,0.19,0.73,0.19c0.12,0,0.23-0.01,0.34-0.04s0.21-0.06,0.3-0.11c0.09-0.05,0.16-0.12,0.21-0.21s0.08-0.2,0.08-0.33
		c0-0.22-0.1-0.38-0.31-0.48s-0.51-0.21-0.92-0.3c-0.16-0.04-0.32-0.09-0.48-0.14c-0.16-0.06-0.31-0.13-0.44-0.23
		c-0.13-0.1-0.24-0.22-0.32-0.37s-0.12-0.33-0.12-0.55c0-0.25,0.05-0.47,0.15-0.65c0.1-0.18,0.24-0.33,0.4-0.45
		c0.16-0.12,0.35-0.2,0.56-0.26c0.21-0.06,0.43-0.08,0.65-0.08c0.34,0,0.66,0.07,0.98,0.2c0.31,0.13,0.56,0.32,0.73,0.57
		L102.24,533.24z"/>
	<path class="st0" d="M108.87,532.81h-1.25v2.44c0,0.28,0.05,0.49,0.16,0.61c0.11,0.12,0.27,0.18,0.5,0.18
		c0.09,0,0.18-0.01,0.28-0.03c0.1-0.02,0.19-0.05,0.27-0.08l0.03,0.76c-0.11,0.04-0.24,0.07-0.37,0.09
		c-0.14,0.02-0.28,0.03-0.42,0.03c-0.44,0-0.78-0.12-1.01-0.37c-0.23-0.24-0.35-0.61-0.35-1.1v-2.54h-0.9v-0.76h0.9v-1.35h0.92v1.35
		h1.25V532.81z"/>
	<path class="st0" d="M109.82,532.58c-0.01-0.2-0.02-0.37-0.03-0.52h0.88c0.01,0.12,0.02,0.26,0.03,0.41
		c0.01,0.16,0.01,0.28,0.01,0.38h0.03c0.13-0.28,0.32-0.5,0.58-0.67s0.54-0.25,0.86-0.25c0.15,0,0.27,0.01,0.37,0.04l-0.04,0.86
		c-0.13-0.03-0.27-0.05-0.43-0.05c-0.22,0-0.42,0.04-0.58,0.12c-0.17,0.08-0.3,0.19-0.41,0.33s-0.19,0.3-0.24,0.48
		s-0.08,0.37-0.08,0.57v2.46h-0.93v-3.68C109.83,532.94,109.82,532.77,109.82,532.58z"/>
	<path class="st0" d="M117.62,534.36c0,0.05,0,0.11,0,0.16s0,0.11-0.01,0.16h-3.73c0.01,0.2,0.05,0.38,0.13,0.55
		c0.08,0.17,0.19,0.33,0.33,0.45c0.14,0.13,0.3,0.23,0.48,0.3c0.18,0.07,0.37,0.11,0.58,0.11c0.32,0,0.59-0.07,0.82-0.21
		s0.41-0.31,0.54-0.5l0.65,0.53c-0.25,0.33-0.55,0.58-0.89,0.73c-0.34,0.16-0.72,0.24-1.13,0.24c-0.36,0-0.69-0.06-0.99-0.18
		c-0.3-0.12-0.56-0.29-0.78-0.5c-0.22-0.21-0.39-0.47-0.51-0.78c-0.13-0.3-0.19-0.64-0.19-1.01c0-0.36,0.06-0.7,0.18-1
		c0.12-0.31,0.29-0.57,0.51-0.79s0.48-0.39,0.77-0.51c0.3-0.12,0.62-0.18,0.96-0.18s0.66,0.06,0.94,0.17
		c0.28,0.11,0.52,0.27,0.71,0.48c0.19,0.21,0.35,0.47,0.45,0.77C117.56,533.64,117.62,533.98,117.62,534.36z M116.67,533.98
		c-0.01-0.18-0.04-0.36-0.09-0.52c-0.06-0.16-0.14-0.3-0.25-0.42c-0.11-0.12-0.24-0.21-0.41-0.28s-0.35-0.1-0.57-0.1
		c-0.2,0-0.38,0.04-0.56,0.1s-0.33,0.16-0.46,0.28c-0.13,0.12-0.23,0.26-0.32,0.42c-0.08,0.16-0.13,0.33-0.14,0.52H116.67z"/>
	<path class="st0" d="M121.76,533.71c0-0.35-0.11-0.61-0.32-0.78c-0.21-0.17-0.49-0.25-0.84-0.25c-0.26,0-0.51,0.05-0.75,0.15
		c-0.23,0.1-0.43,0.23-0.59,0.39l-0.49-0.59c0.23-0.22,0.51-0.39,0.85-0.51c0.33-0.12,0.69-0.19,1.07-0.19
		c0.34,0,0.63,0.05,0.88,0.14s0.45,0.23,0.61,0.39c0.16,0.17,0.28,0.36,0.36,0.58c0.08,0.22,0.12,0.46,0.12,0.72v2.05
		c0,0.16,0,0.33,0.01,0.5s0.03,0.32,0.05,0.43h-0.84c-0.05-0.22-0.08-0.45-0.08-0.67h-0.03c-0.17,0.25-0.39,0.45-0.65,0.58
		s-0.57,0.21-0.93,0.21c-0.19,0-0.38-0.03-0.58-0.07c-0.2-0.05-0.38-0.13-0.55-0.24s-0.3-0.26-0.41-0.45s-0.16-0.41-0.16-0.68
		c0-0.36,0.1-0.64,0.29-0.85c0.19-0.21,0.44-0.37,0.75-0.47c0.31-0.11,0.66-0.18,1.05-0.21s0.78-0.05,1.18-0.05V533.71z
		 M121.54,534.51c-0.23,0-0.47,0.01-0.72,0.03c-0.25,0.02-0.47,0.06-0.67,0.12c-0.2,0.06-0.37,0.15-0.5,0.27
		c-0.13,0.12-0.2,0.28-0.2,0.48c0,0.14,0.03,0.25,0.08,0.35c0.06,0.09,0.13,0.17,0.22,0.23c0.09,0.06,0.19,0.1,0.31,0.12
		c0.11,0.02,0.23,0.04,0.35,0.04c0.44,0,0.77-0.13,1-0.39c0.23-0.26,0.35-0.59,0.35-0.98v-0.25H121.54z"/>
	<path class="st0" d="M126.41,532.81h-1.25v2.44c0,0.28,0.05,0.49,0.16,0.61c0.11,0.12,0.27,0.18,0.5,0.18
		c0.09,0,0.18-0.01,0.28-0.03c0.1-0.02,0.19-0.05,0.27-0.08l0.03,0.76c-0.11,0.04-0.24,0.07-0.37,0.09
		c-0.14,0.02-0.28,0.03-0.42,0.03c-0.44,0-0.78-0.12-1.01-0.37c-0.23-0.24-0.35-0.61-0.35-1.1v-2.54h-0.9v-0.76h0.9v-1.35h0.92v1.35
		h1.25V532.81z"/>
	<path class="st0" d="M131.75,534.36c0,0.05,0,0.11,0,0.16s0,0.11-0.01,0.16h-3.73c0.01,0.2,0.05,0.38,0.13,0.55
		c0.08,0.17,0.19,0.33,0.33,0.45c0.14,0.13,0.3,0.23,0.48,0.3c0.18,0.07,0.37,0.11,0.58,0.11c0.32,0,0.59-0.07,0.82-0.21
		s0.41-0.31,0.54-0.5l0.65,0.53c-0.25,0.33-0.55,0.58-0.89,0.73c-0.34,0.16-0.72,0.24-1.13,0.24c-0.36,0-0.69-0.06-0.99-0.18
		c-0.3-0.12-0.56-0.29-0.78-0.5c-0.22-0.21-0.39-0.47-0.51-0.78c-0.13-0.3-0.19-0.64-0.19-1.01c0-0.36,0.06-0.7,0.18-1
		c0.12-0.31,0.29-0.57,0.51-0.79s0.48-0.39,0.77-0.51c0.3-0.12,0.62-0.18,0.96-0.18s0.66,0.06,0.94,0.17
		c0.28,0.11,0.52,0.27,0.71,0.48c0.19,0.21,0.35,0.47,0.45,0.77C131.7,533.64,131.75,533.98,131.75,534.36z M130.8,533.98
		c-0.01-0.18-0.04-0.36-0.09-0.52c-0.06-0.16-0.14-0.3-0.25-0.42c-0.11-0.12-0.24-0.21-0.41-0.28s-0.35-0.1-0.57-0.1
		c-0.2,0-0.38,0.04-0.56,0.1s-0.33,0.16-0.46,0.28c-0.13,0.12-0.23,0.26-0.32,0.42c-0.08,0.16-0.13,0.33-0.14,0.52H130.8z"/>
	<path class="st0" d="M136.78,536c-0.18,0.28-0.42,0.5-0.73,0.65s-0.63,0.22-0.96,0.22c-0.36,0-0.69-0.06-0.98-0.19
		c-0.29-0.13-0.54-0.3-0.74-0.53c-0.2-0.22-0.36-0.49-0.48-0.79c-0.11-0.3-0.17-0.63-0.17-0.97s0.06-0.67,0.17-0.96
		c0.11-0.3,0.27-0.56,0.48-0.79s0.46-0.4,0.75-0.52s0.61-0.19,0.96-0.19c0.38,0,0.72,0.08,1,0.24c0.28,0.16,0.51,0.36,0.67,0.59
		h0.02v-3.49h0.93v7.48h-0.9V536H136.78z M133.69,534.39c0,0.22,0.03,0.43,0.1,0.63s0.17,0.38,0.3,0.54
		c0.13,0.16,0.29,0.28,0.49,0.38c0.19,0.09,0.42,0.14,0.67,0.14c0.24,0,0.45-0.05,0.65-0.14c0.19-0.09,0.36-0.22,0.5-0.37
		c0.14-0.16,0.25-0.33,0.32-0.54c0.08-0.2,0.11-0.42,0.11-0.64s-0.04-0.44-0.11-0.64c-0.08-0.2-0.18-0.38-0.32-0.54
		c-0.14-0.16-0.31-0.28-0.5-0.38c-0.19-0.09-0.41-0.14-0.65-0.14c-0.26,0-0.48,0.05-0.67,0.14c-0.19,0.09-0.35,0.22-0.49,0.38
		c-0.13,0.16-0.23,0.34-0.3,0.54C133.72,533.96,133.69,534.18,133.69,534.39z"/>
	<path class="st0" d="M142.14,532.05l1.06,3.58h0.02l1.12-3.58h0.98l1.14,3.58h0.02l1.06-3.58h0.98l-1.55,4.69h-0.97l-1.16-3.52
		h-0.02l-1.15,3.52h-0.97l-1.56-4.69H142.14z"/>
	<path class="st0" d="M150.54,530.36c0,0.17-0.06,0.31-0.18,0.43s-0.27,0.17-0.44,0.17c-0.17,0-0.31-0.06-0.43-0.17
		s-0.18-0.26-0.18-0.42c0-0.17,0.06-0.31,0.18-0.43c0.12-0.12,0.26-0.17,0.43-0.17c0.17,0,0.32,0.06,0.44,0.17
		C150.47,530.04,150.54,530.19,150.54,530.36z M150.39,536.74h-0.93v-4.69h0.93V536.74z"/>
	<path class="st0" d="M154.31,532.81h-1.25v2.44c0,0.28,0.05,0.49,0.16,0.61c0.11,0.12,0.27,0.18,0.5,0.18
		c0.09,0,0.18-0.01,0.28-0.03c0.1-0.02,0.19-0.05,0.27-0.08l0.03,0.76c-0.11,0.04-0.24,0.07-0.37,0.09
		c-0.14,0.02-0.28,0.03-0.42,0.03c-0.44,0-0.78-0.12-1.01-0.37c-0.23-0.24-0.35-0.61-0.35-1.1v-2.54h-0.9v-0.76h0.9v-1.35h0.92v1.35
		h1.25V532.81z"/>
	<path class="st0" d="M156.24,532.76c0.11-0.23,0.3-0.43,0.57-0.59s0.57-0.25,0.91-0.25c0.3,0,0.56,0.05,0.78,0.15
		c0.22,0.1,0.4,0.24,0.54,0.41c0.15,0.17,0.25,0.37,0.32,0.6c0.07,0.23,0.1,0.48,0.1,0.74v2.91h-0.93v-2.6
		c0-0.19-0.02-0.37-0.04-0.55s-0.08-0.32-0.16-0.46c-0.08-0.13-0.19-0.24-0.32-0.32c-0.13-0.08-0.31-0.12-0.53-0.12
		c-0.37,0-0.67,0.14-0.91,0.42c-0.24,0.28-0.36,0.66-0.36,1.13v2.49h-0.93v-7.48h0.93v3.5H156.24z"/>
	<path class="st0" d="M169.58,535.65c-0.28,0.38-0.64,0.68-1.08,0.92c-0.44,0.23-0.97,0.35-1.59,0.35c-0.53,0-1.03-0.09-1.48-0.27
		c-0.45-0.18-0.84-0.44-1.17-0.76c-0.33-0.33-0.58-0.72-0.77-1.17c-0.19-0.45-0.28-0.95-0.28-1.49c0-0.55,0.09-1.05,0.28-1.5
		c0.19-0.45,0.45-0.84,0.78-1.16s0.73-0.57,1.18-0.75c0.46-0.18,0.95-0.27,1.49-0.27c0.24,0,0.48,0.02,0.72,0.07s0.48,0.12,0.7,0.21
		s0.43,0.21,0.61,0.34c0.18,0.13,0.34,0.29,0.48,0.47l-0.77,0.59c-0.17-0.24-0.41-0.43-0.73-0.59s-0.65-0.23-1.01-0.23
		c-0.41,0-0.78,0.07-1.1,0.22c-0.33,0.15-0.61,0.35-0.84,0.61c-0.23,0.26-0.41,0.56-0.53,0.9c-0.13,0.34-0.19,0.7-0.19,1.08
		c0,0.4,0.06,0.77,0.18,1.11c0.12,0.34,0.3,0.64,0.52,0.9c0.23,0.25,0.5,0.45,0.83,0.6c0.33,0.14,0.69,0.22,1.09,0.22
		c0.4,0,0.76-0.08,1.08-0.24s0.59-0.39,0.8-0.69L169.58,535.65z"/>
	<path class="st0" d="M175.16,534.39c0,0.36-0.06,0.7-0.19,1c-0.13,0.3-0.31,0.57-0.53,0.79c-0.23,0.22-0.5,0.39-0.81,0.51
		c-0.31,0.12-0.64,0.18-1,0.18s-0.69-0.06-1-0.18c-0.31-0.12-0.58-0.29-0.8-0.51c-0.22-0.22-0.4-0.48-0.53-0.79
		c-0.13-0.3-0.19-0.64-0.19-1s0.06-0.69,0.19-1c0.13-0.3,0.31-0.56,0.53-0.78c0.22-0.22,0.49-0.39,0.8-0.51
		c0.31-0.12,0.64-0.18,1-0.18s0.69,0.06,1,0.18c0.31,0.12,0.58,0.29,0.81,0.51s0.41,0.48,0.53,0.78
		C175.09,533.69,175.16,534.02,175.16,534.39z M174.19,534.39c0-0.22-0.03-0.44-0.1-0.64c-0.07-0.2-0.17-0.38-0.3-0.54
		c-0.13-0.16-0.3-0.28-0.49-0.37c-0.2-0.09-0.42-0.14-0.67-0.14s-0.47,0.05-0.67,0.14c-0.2,0.09-0.36,0.21-0.49,0.37
		c-0.13,0.15-0.23,0.33-0.3,0.54c-0.07,0.2-0.1,0.42-0.1,0.64s0.03,0.44,0.1,0.64c0.07,0.2,0.17,0.38,0.3,0.54
		c0.13,0.16,0.3,0.28,0.49,0.38c0.2,0.09,0.42,0.14,0.67,0.14s0.47-0.05,0.67-0.14c0.2-0.09,0.36-0.22,0.49-0.38
		c0.13-0.16,0.23-0.34,0.3-0.54C174.15,534.83,174.19,534.62,174.19,534.39z"/>
	<path class="st0" d="M181.2,534.39c0,0.36-0.06,0.7-0.19,1c-0.13,0.3-0.31,0.57-0.53,0.79c-0.23,0.22-0.5,0.39-0.81,0.51
		c-0.31,0.12-0.64,0.18-1,0.18s-0.69-0.06-1-0.18c-0.31-0.12-0.58-0.29-0.8-0.51c-0.22-0.22-0.4-0.48-0.53-0.79
		c-0.13-0.3-0.19-0.64-0.19-1s0.06-0.69,0.19-1c0.13-0.3,0.31-0.56,0.53-0.78c0.22-0.22,0.49-0.39,0.8-0.51
		c0.31-0.12,0.64-0.18,1-0.18s0.69,0.06,1,0.18c0.31,0.12,0.58,0.29,0.81,0.51s0.41,0.48,0.53,0.78
		C181.13,533.69,181.2,534.02,181.2,534.39z M180.23,534.39c0-0.22-0.03-0.44-0.1-0.64c-0.07-0.2-0.17-0.38-0.3-0.54
		c-0.13-0.16-0.3-0.28-0.49-0.37c-0.2-0.09-0.42-0.14-0.67-0.14s-0.47,0.05-0.67,0.14c-0.2,0.09-0.36,0.21-0.49,0.37
		c-0.13,0.15-0.23,0.33-0.3,0.54c-0.07,0.2-0.1,0.42-0.1,0.64s0.03,0.44,0.1,0.64c0.07,0.2,0.17,0.38,0.3,0.54
		c0.13,0.16,0.3,0.28,0.49,0.38c0.2,0.09,0.42,0.14,0.67,0.14s0.47-0.05,0.67-0.14c0.2-0.09,0.36-0.22,0.49-0.38
		c0.13-0.16,0.23-0.34,0.3-0.54C180.19,534.83,180.23,534.62,180.23,534.39z"/>
	<path class="st0" d="M183.43,536.74h-0.93v-7.48h0.93V536.74z"/>
	<path class="st0" d="M187.56,536.74h-0.98v-6.15h-2.25v-0.86h5.47v0.86h-2.25V536.74z"/>
	<path class="st0" d="M194.49,534.39c0,0.36-0.06,0.7-0.19,1c-0.13,0.3-0.31,0.57-0.53,0.79c-0.23,0.22-0.5,0.39-0.81,0.51
		c-0.31,0.12-0.64,0.18-1,0.18s-0.69-0.06-1-0.18c-0.31-0.12-0.58-0.29-0.8-0.51c-0.22-0.22-0.4-0.48-0.53-0.79
		c-0.13-0.3-0.19-0.64-0.19-1s0.06-0.69,0.19-1c0.13-0.3,0.31-0.56,0.53-0.78c0.22-0.22,0.49-0.39,0.8-0.51
		c0.31-0.12,0.64-0.18,1-0.18s0.69,0.06,1,0.18c0.31,0.12,0.58,0.29,0.81,0.51s0.41,0.48,0.53,0.78
		C194.42,533.69,194.49,534.02,194.49,534.39z M193.52,534.39c0-0.22-0.03-0.44-0.1-0.64c-0.07-0.2-0.17-0.38-0.3-0.54
		c-0.13-0.16-0.3-0.28-0.49-0.37c-0.2-0.09-0.42-0.14-0.67-0.14s-0.47,0.05-0.67,0.14c-0.2,0.09-0.36,0.21-0.49,0.37
		c-0.13,0.15-0.23,0.33-0.3,0.54c-0.07,0.2-0.1,0.42-0.1,0.64s0.03,0.44,0.1,0.64c0.07,0.2,0.17,0.38,0.3,0.54
		c0.13,0.16,0.3,0.28,0.49,0.38c0.2,0.09,0.42,0.14,0.67,0.14s0.47-0.05,0.67-0.14c0.2-0.09,0.36-0.22,0.49-0.38
		c0.13-0.16,0.23-0.34,0.3-0.54C193.48,534.83,193.52,534.62,193.52,534.39z"/>
	<path class="st0" d="M196.62,532.05c0.01,0.12,0.02,0.25,0.03,0.4c0.01,0.15,0.01,0.27,0.01,0.37h0.03
		c0.06-0.13,0.14-0.24,0.24-0.35c0.1-0.11,0.22-0.2,0.35-0.29c0.13-0.08,0.28-0.15,0.44-0.19c0.16-0.05,0.32-0.07,0.5-0.07
		c0.3,0,0.56,0.05,0.78,0.15c0.22,0.1,0.4,0.24,0.54,0.41s0.25,0.37,0.32,0.6c0.07,0.23,0.1,0.48,0.1,0.74v2.91h-0.93v-2.6
		c0-0.19-0.01-0.37-0.04-0.54c-0.03-0.17-0.08-0.32-0.16-0.46s-0.19-0.24-0.33-0.32s-0.32-0.12-0.53-0.12
		c-0.37,0-0.67,0.14-0.91,0.42s-0.35,0.65-0.35,1.12v2.49h-0.93v-3.68c0-0.12,0-0.29-0.01-0.49c-0.01-0.2-0.02-0.37-0.03-0.52
		H196.62z"/>
	<path class="st0" d="M205.92,534.36c0,0.05,0,0.11,0,0.16s0,0.11-0.01,0.16h-3.73c0.01,0.2,0.05,0.38,0.13,0.55
		c0.08,0.17,0.19,0.33,0.33,0.45c0.14,0.13,0.3,0.23,0.48,0.3c0.18,0.07,0.37,0.11,0.58,0.11c0.32,0,0.59-0.07,0.82-0.21
		c0.23-0.14,0.41-0.31,0.54-0.5l0.65,0.53c-0.25,0.33-0.55,0.58-0.89,0.73c-0.34,0.16-0.72,0.24-1.13,0.24
		c-0.36,0-0.69-0.06-0.99-0.18c-0.3-0.12-0.56-0.29-0.78-0.5c-0.22-0.21-0.39-0.47-0.51-0.78c-0.12-0.3-0.19-0.64-0.19-1.01
		c0-0.36,0.06-0.7,0.18-1c0.12-0.31,0.29-0.57,0.51-0.79c0.22-0.22,0.48-0.39,0.77-0.51s0.62-0.18,0.96-0.18s0.66,0.06,0.94,0.17
		s0.52,0.27,0.71,0.48c0.2,0.21,0.35,0.47,0.45,0.77C205.87,533.64,205.92,533.98,205.92,534.36z M204.97,533.98
		c-0.01-0.18-0.04-0.36-0.09-0.52c-0.06-0.16-0.14-0.3-0.25-0.42c-0.11-0.12-0.24-0.21-0.41-0.28c-0.16-0.07-0.35-0.1-0.57-0.1
		c-0.2,0-0.38,0.04-0.56,0.1s-0.33,0.16-0.46,0.28c-0.13,0.12-0.23,0.26-0.32,0.42c-0.08,0.16-0.13,0.33-0.14,0.52H204.97z"/>
	<path class="st0" d="M207.12,531.86c0-0.31,0.06-0.6,0.18-0.88c0.12-0.27,0.28-0.51,0.49-0.71c0.2-0.2,0.44-0.36,0.72-0.48
		c0.27-0.12,0.57-0.18,0.88-0.18c0.31,0,0.6,0.06,0.88,0.18c0.27,0.12,0.51,0.28,0.72,0.48s0.37,0.44,0.49,0.71
		c0.12,0.27,0.18,0.57,0.18,0.88c0,0.31-0.06,0.6-0.18,0.87c-0.12,0.27-0.28,0.51-0.49,0.71s-0.44,0.36-0.72,0.48
		c-0.27,0.12-0.57,0.17-0.88,0.17c-0.31,0-0.6-0.06-0.88-0.17c-0.27-0.12-0.51-0.27-0.72-0.48c-0.21-0.2-0.37-0.44-0.49-0.71
		C207.18,532.46,207.12,532.17,207.12,531.86z M207.47,531.86c0,0.26,0.05,0.5,0.15,0.73c0.1,0.23,0.23,0.43,0.41,0.61
		s0.37,0.31,0.6,0.41c0.23,0.1,0.48,0.15,0.74,0.15c0.26,0,0.51-0.05,0.74-0.15c0.23-0.1,0.43-0.24,0.6-0.41
		c0.17-0.17,0.31-0.38,0.41-0.61c0.1-0.23,0.15-0.48,0.15-0.73c0-0.26-0.05-0.51-0.15-0.74c-0.1-0.23-0.23-0.43-0.41-0.6
		c-0.17-0.17-0.37-0.31-0.6-0.41c-0.23-0.1-0.48-0.15-0.74-0.15c-0.26,0-0.51,0.05-0.74,0.15c-0.23,0.1-0.43,0.23-0.6,0.41
		c-0.17,0.17-0.31,0.37-0.41,0.6C207.52,531.35,207.47,531.6,207.47,531.86z M209.92,533.1l-0.54-0.98h-0.36v0.98h-0.6v-2.53h1.09
		c0.12,0,0.23,0.01,0.35,0.04c0.11,0.03,0.21,0.07,0.31,0.13s0.17,0.14,0.22,0.24c0.06,0.1,0.08,0.23,0.08,0.38
		c0,0.17-0.05,0.31-0.14,0.42c-0.1,0.11-0.22,0.2-0.36,0.25l0.67,1.07H209.92z M209.48,531.69c0.09,0,0.18-0.03,0.25-0.09
		c0.08-0.06,0.11-0.14,0.11-0.24c0-0.11-0.04-0.18-0.13-0.23c-0.09-0.05-0.17-0.07-0.24-0.07h-0.46v0.62H209.48z"/>
	<path class="st0" d="M220.37,534.39c0,0.36-0.06,0.7-0.19,1c-0.13,0.3-0.31,0.57-0.53,0.79c-0.23,0.22-0.5,0.39-0.81,0.51
		c-0.31,0.12-0.64,0.18-1,0.18s-0.69-0.06-1-0.18c-0.31-0.12-0.58-0.29-0.8-0.51c-0.22-0.22-0.4-0.48-0.53-0.79
		c-0.13-0.3-0.19-0.64-0.19-1s0.06-0.69,0.19-1c0.13-0.3,0.31-0.56,0.53-0.78c0.22-0.22,0.49-0.39,0.8-0.51
		c0.31-0.12,0.64-0.18,1-0.18s0.69,0.06,1,0.18c0.31,0.12,0.58,0.29,0.81,0.51s0.41,0.48,0.53,0.78
		C220.3,533.69,220.37,534.02,220.37,534.39z M219.4,534.39c0-0.22-0.03-0.44-0.1-0.64c-0.07-0.2-0.17-0.38-0.3-0.54
		c-0.13-0.16-0.3-0.28-0.49-0.37c-0.2-0.09-0.42-0.14-0.67-0.14s-0.47,0.05-0.67,0.14c-0.2,0.09-0.36,0.21-0.49,0.37
		c-0.13,0.15-0.23,0.33-0.3,0.54c-0.07,0.2-0.1,0.42-0.1,0.64s0.03,0.44,0.1,0.64c0.07,0.2,0.17,0.38,0.3,0.54
		c0.13,0.16,0.3,0.28,0.49,0.38c0.2,0.09,0.42,0.14,0.67,0.14s0.47-0.05,0.67-0.14c0.2-0.09,0.36-0.22,0.49-0.38
		c0.13-0.16,0.23-0.34,0.3-0.54C219.36,534.83,219.4,534.62,219.4,534.39z"/>
	<path class="st0" d="M222.5,532.05c0.01,0.12,0.02,0.25,0.03,0.4c0.01,0.15,0.01,0.27,0.01,0.37h0.03
		c0.06-0.13,0.14-0.24,0.24-0.35c0.1-0.11,0.22-0.2,0.35-0.29c0.13-0.08,0.28-0.15,0.44-0.19c0.16-0.05,0.32-0.07,0.5-0.07
		c0.3,0,0.56,0.05,0.78,0.15c0.22,0.1,0.4,0.24,0.54,0.41s0.25,0.37,0.32,0.6c0.07,0.23,0.1,0.48,0.1,0.74v2.91h-0.93v-2.6
		c0-0.19-0.01-0.37-0.04-0.54c-0.03-0.17-0.08-0.32-0.16-0.46s-0.19-0.24-0.33-0.32s-0.32-0.12-0.53-0.12
		c-0.37,0-0.67,0.14-0.91,0.42s-0.35,0.65-0.35,1.12v2.49h-0.93v-3.68c0-0.12,0-0.29-0.01-0.49c-0.01-0.2-0.02-0.37-0.03-0.52H222.5
		z"/>
	<path class="st0" d="M230.86,532.76c0.11-0.23,0.3-0.43,0.57-0.59s0.57-0.25,0.91-0.25c0.3,0,0.56,0.05,0.78,0.15
		c0.22,0.1,0.4,0.24,0.54,0.41c0.15,0.17,0.25,0.37,0.32,0.6c0.07,0.23,0.1,0.48,0.1,0.74v2.91h-0.93v-2.6
		c0-0.19-0.02-0.37-0.04-0.55s-0.08-0.32-0.16-0.46c-0.08-0.13-0.19-0.24-0.32-0.32c-0.13-0.08-0.31-0.12-0.53-0.12
		c-0.37,0-0.67,0.14-0.91,0.42c-0.24,0.28-0.36,0.66-0.36,1.13v2.49h-0.93v-7.48h0.93v3.5H230.86z"/>
	<path class="st0" d="M236.76,530.36c0,0.17-0.06,0.31-0.18,0.43s-0.27,0.17-0.44,0.17c-0.17,0-0.31-0.06-0.43-0.17
		s-0.18-0.26-0.18-0.42c0-0.17,0.06-0.31,0.18-0.43c0.12-0.12,0.26-0.17,0.43-0.17c0.17,0,0.32,0.06,0.44,0.17
		C236.7,530.04,236.76,530.19,236.76,530.36z M236.61,536.74h-0.93v-4.69h0.93V536.74z"/>
	<path class="st0" d="M240.77,533.24c-0.11-0.17-0.25-0.31-0.45-0.42c-0.19-0.11-0.41-0.16-0.64-0.16c-0.11,0-0.21,0.01-0.32,0.04
		s-0.2,0.06-0.28,0.11c-0.08,0.05-0.15,0.11-0.2,0.19c-0.05,0.08-0.07,0.17-0.07,0.28c0,0.2,0.09,0.34,0.27,0.44
		c0.18,0.1,0.45,0.18,0.8,0.26c0.22,0.05,0.43,0.12,0.62,0.19s0.36,0.16,0.5,0.27c0.14,0.11,0.25,0.24,0.33,0.39
		s0.12,0.33,0.12,0.53c0,0.28-0.05,0.51-0.16,0.7c-0.11,0.19-0.25,0.35-0.42,0.47s-0.38,0.21-0.6,0.26
		c-0.22,0.05-0.46,0.08-0.69,0.08c-0.36,0-0.7-0.07-1.04-0.21s-0.62-0.35-0.85-0.63l0.66-0.56c0.12,0.18,0.3,0.34,0.52,0.46
		c0.22,0.12,0.46,0.19,0.73,0.19c0.12,0,0.23-0.01,0.34-0.04c0.11-0.02,0.21-0.06,0.3-0.11c0.09-0.05,0.16-0.12,0.21-0.21
		s0.08-0.2,0.08-0.33c0-0.22-0.1-0.38-0.31-0.48s-0.51-0.21-0.92-0.3c-0.16-0.04-0.32-0.09-0.48-0.14
		c-0.16-0.06-0.31-0.13-0.44-0.23c-0.13-0.1-0.24-0.22-0.32-0.37c-0.08-0.15-0.12-0.33-0.12-0.55c0-0.25,0.05-0.47,0.15-0.65
		s0.24-0.33,0.4-0.45s0.35-0.2,0.56-0.26c0.21-0.06,0.43-0.08,0.65-0.08c0.34,0,0.66,0.07,0.97,0.2s0.56,0.32,0.73,0.57
		L240.77,533.24z"/>
	<path class="st0" d="M94.01,544.12c0-0.35-0.11-0.61-0.32-0.78c-0.21-0.17-0.49-0.25-0.84-0.25c-0.26,0-0.51,0.05-0.75,0.15
		c-0.23,0.1-0.43,0.23-0.59,0.39l-0.49-0.59c0.23-0.22,0.51-0.39,0.85-0.51c0.33-0.12,0.69-0.19,1.07-0.19
		c0.34,0,0.63,0.05,0.88,0.14s0.45,0.23,0.61,0.39c0.16,0.17,0.28,0.36,0.36,0.58c0.08,0.22,0.12,0.46,0.12,0.72v2.05
		c0,0.16,0,0.33,0.01,0.5s0.03,0.32,0.05,0.43h-0.84c-0.05-0.22-0.08-0.45-0.08-0.67h-0.03c-0.17,0.25-0.39,0.45-0.65,0.58
		s-0.57,0.21-0.93,0.21c-0.19,0-0.38-0.03-0.58-0.07c-0.2-0.05-0.38-0.13-0.55-0.24s-0.3-0.26-0.41-0.45s-0.16-0.41-0.16-0.68
		c0-0.36,0.1-0.64,0.29-0.85c0.19-0.21,0.44-0.37,0.75-0.47c0.31-0.11,0.66-0.18,1.05-0.21s0.78-0.05,1.18-0.05V544.12z
		 M93.78,544.92c-0.23,0-0.47,0.01-0.72,0.03c-0.25,0.02-0.47,0.06-0.67,0.12c-0.2,0.06-0.37,0.15-0.5,0.27
		c-0.13,0.12-0.2,0.28-0.2,0.48c0,0.14,0.03,0.25,0.08,0.35c0.06,0.09,0.13,0.17,0.22,0.23c0.09,0.06,0.19,0.1,0.31,0.12
		c0.11,0.02,0.23,0.04,0.35,0.04c0.44,0,0.77-0.13,1-0.39c0.23-0.26,0.35-0.59,0.35-0.98v-0.25H93.78z"/>
	<path class="st0" d="M97.37,546.42v0.74h-0.9v-7.48h0.93v3.49h0.03c0.16-0.23,0.38-0.43,0.66-0.59c0.28-0.16,0.62-0.24,1.01-0.24
		c0.35,0,0.67,0.06,0.95,0.19c0.29,0.12,0.53,0.3,0.74,0.52s0.37,0.49,0.48,0.79c0.11,0.3,0.17,0.62,0.17,0.96s-0.06,0.67-0.17,0.97
		c-0.11,0.3-0.27,0.57-0.47,0.79s-0.45,0.4-0.74,0.53s-0.62,0.19-0.98,0.19c-0.34,0-0.65-0.07-0.96-0.22
		c-0.3-0.15-0.55-0.37-0.73-0.65H97.37z M100.49,544.81c0-0.22-0.03-0.43-0.1-0.63c-0.07-0.2-0.17-0.38-0.3-0.54
		c-0.13-0.16-0.3-0.28-0.49-0.38c-0.19-0.09-0.42-0.14-0.68-0.14c-0.24,0-0.45,0.05-0.65,0.14c-0.19,0.09-0.36,0.22-0.5,0.38
		c-0.14,0.16-0.25,0.34-0.32,0.54c-0.08,0.2-0.11,0.42-0.11,0.64s0.04,0.44,0.11,0.64s0.18,0.38,0.32,0.54
		c0.14,0.15,0.31,0.28,0.5,0.37c0.19,0.09,0.41,0.14,0.65,0.14c0.26,0,0.48-0.05,0.68-0.14c0.19-0.1,0.36-0.22,0.49-0.38
		c0.13-0.16,0.23-0.34,0.3-0.54S100.49,545.03,100.49,544.81z"/>
	<path class="st0" d="M106.49,546.42c-0.18,0.28-0.42,0.5-0.73,0.65s-0.63,0.22-0.96,0.22c-0.36,0-0.69-0.06-0.98-0.19
		c-0.29-0.13-0.54-0.3-0.74-0.53c-0.2-0.22-0.36-0.49-0.48-0.79c-0.11-0.3-0.17-0.63-0.17-0.97s0.06-0.67,0.17-0.96
		c0.11-0.3,0.27-0.56,0.48-0.79s0.46-0.4,0.75-0.52s0.61-0.19,0.96-0.19c0.38,0,0.72,0.08,1,0.24c0.28,0.16,0.51,0.36,0.67,0.59
		h0.02v-3.49h0.93v7.48h-0.9v-0.74H106.49z M103.4,544.81c0,0.22,0.03,0.43,0.1,0.63s0.17,0.38,0.3,0.54
		c0.13,0.16,0.29,0.28,0.49,0.38c0.19,0.09,0.42,0.14,0.67,0.14c0.24,0,0.45-0.05,0.65-0.14c0.19-0.09,0.36-0.22,0.5-0.37
		c0.14-0.16,0.25-0.33,0.32-0.54c0.08-0.2,0.11-0.42,0.11-0.64s-0.04-0.44-0.11-0.64c-0.08-0.2-0.18-0.38-0.32-0.54
		c-0.14-0.16-0.31-0.28-0.5-0.38c-0.19-0.09-0.41-0.14-0.65-0.14c-0.26,0-0.48,0.05-0.67,0.14c-0.19,0.09-0.35,0.22-0.49,0.38
		c-0.13,0.16-0.23,0.34-0.3,0.54C103.43,544.38,103.4,544.59,103.4,544.81z"/>
	<path class="st0" d="M113.78,544.81c0,0.36-0.06,0.7-0.19,1c-0.13,0.3-0.31,0.57-0.53,0.79c-0.23,0.22-0.5,0.39-0.81,0.51
		s-0.64,0.18-1,0.18s-0.69-0.06-1-0.18s-0.58-0.29-0.8-0.51c-0.22-0.22-0.4-0.48-0.53-0.79c-0.13-0.3-0.19-0.64-0.19-1
		s0.06-0.69,0.19-1c0.13-0.3,0.31-0.56,0.53-0.78s0.49-0.39,0.8-0.51s0.64-0.18,1-0.18s0.69,0.06,1,0.18s0.58,0.29,0.81,0.51
		c0.23,0.22,0.41,0.48,0.53,0.78C113.72,544.11,113.78,544.44,113.78,544.81z M112.81,544.81c0-0.22-0.03-0.44-0.1-0.64
		c-0.07-0.2-0.17-0.38-0.3-0.54c-0.13-0.16-0.3-0.28-0.49-0.37c-0.2-0.09-0.42-0.14-0.67-0.14s-0.48,0.05-0.67,0.14
		c-0.2,0.09-0.36,0.21-0.49,0.37c-0.13,0.15-0.23,0.33-0.3,0.54c-0.07,0.2-0.1,0.42-0.1,0.64s0.03,0.44,0.1,0.64
		c0.07,0.2,0.17,0.38,0.3,0.54c0.13,0.16,0.3,0.28,0.49,0.38c0.2,0.09,0.42,0.14,0.67,0.14s0.48-0.05,0.67-0.14
		c0.19-0.09,0.36-0.22,0.49-0.38c0.13-0.16,0.23-0.34,0.3-0.54C112.78,545.25,112.81,545.03,112.81,544.81z"/>
	<path class="st0" d="M116.55,542.6c0.26-0.17,0.57-0.26,0.93-0.26c0.32,0,0.6,0.07,0.86,0.22c0.25,0.15,0.45,0.39,0.6,0.72
		c0.16-0.3,0.38-0.54,0.66-0.7c0.28-0.16,0.59-0.24,0.93-0.24c0.3,0,0.56,0.05,0.78,0.15c0.22,0.1,0.4,0.24,0.54,0.41
		c0.15,0.17,0.25,0.37,0.32,0.6c0.07,0.23,0.1,0.48,0.1,0.74v2.91h-0.93v-2.6c0-0.19-0.02-0.37-0.05-0.54
		c-0.03-0.17-0.09-0.32-0.17-0.46s-0.19-0.24-0.32-0.32s-0.3-0.12-0.5-0.12c-0.21,0-0.39,0.04-0.54,0.13
		c-0.15,0.09-0.28,0.2-0.37,0.35c-0.1,0.14-0.16,0.3-0.21,0.48c-0.04,0.18-0.06,0.36-0.06,0.54v2.53h-0.93v-2.79
		c0-0.18-0.02-0.35-0.05-0.5c-0.03-0.15-0.09-0.28-0.17-0.39c-0.08-0.11-0.18-0.19-0.31-0.26c-0.12-0.06-0.28-0.09-0.46-0.09
		c-0.34,0-0.63,0.14-0.86,0.42c-0.23,0.28-0.34,0.65-0.34,1.12v2.49h-0.93v-3.68c0-0.12,0-0.29-0.01-0.49
		c-0.01-0.2-0.02-0.37-0.03-0.52h0.88c0.01,0.12,0.02,0.25,0.03,0.4c0.01,0.15,0.01,0.27,0.01,0.37h0.03
		C116.1,542.99,116.29,542.78,116.55,542.6z"/>
	<path class="st0" d="M128.23,544.78c0,0.05,0,0.11,0,0.16s0,0.11-0.01,0.16h-3.73c0.01,0.2,0.05,0.38,0.13,0.55
		c0.08,0.17,0.19,0.33,0.33,0.45c0.14,0.13,0.3,0.23,0.48,0.3c0.18,0.07,0.37,0.11,0.58,0.11c0.32,0,0.59-0.07,0.82-0.21
		s0.41-0.31,0.54-0.5l0.65,0.53c-0.25,0.33-0.55,0.58-0.89,0.73c-0.34,0.16-0.72,0.24-1.13,0.24c-0.36,0-0.69-0.06-0.99-0.18
		c-0.3-0.12-0.56-0.29-0.78-0.5c-0.22-0.21-0.39-0.47-0.51-0.78c-0.13-0.3-0.19-0.64-0.19-1.01c0-0.36,0.06-0.7,0.18-1
		c0.12-0.31,0.29-0.57,0.51-0.79s0.48-0.39,0.77-0.51c0.3-0.12,0.62-0.18,0.96-0.18s0.66,0.06,0.94,0.17
		c0.28,0.11,0.52,0.27,0.71,0.48c0.19,0.21,0.35,0.47,0.45,0.77C128.18,544.06,128.23,544.4,128.23,544.78z M127.28,544.4
		c-0.01-0.18-0.04-0.36-0.09-0.52c-0.06-0.16-0.14-0.3-0.25-0.42c-0.11-0.12-0.24-0.21-0.41-0.28s-0.35-0.1-0.57-0.1
		c-0.2,0-0.38,0.04-0.56,0.1s-0.33,0.16-0.46,0.28c-0.13,0.12-0.23,0.26-0.32,0.42c-0.08,0.16-0.13,0.33-0.14,0.52H127.28z"/>
	<path class="st0" d="M130.36,542.47c0.01,0.12,0.02,0.25,0.03,0.4c0.01,0.15,0.01,0.27,0.01,0.37h0.03
		c0.06-0.13,0.14-0.24,0.24-0.35c0.1-0.11,0.22-0.2,0.35-0.29c0.13-0.08,0.28-0.15,0.44-0.19c0.16-0.05,0.32-0.07,0.49-0.07
		c0.3,0,0.56,0.05,0.78,0.15c0.22,0.1,0.4,0.24,0.54,0.41s0.25,0.37,0.32,0.6c0.07,0.23,0.1,0.48,0.1,0.74v2.91h-0.93v-2.6
		c0-0.19-0.01-0.37-0.04-0.54c-0.03-0.17-0.08-0.32-0.16-0.46s-0.19-0.24-0.33-0.32s-0.32-0.12-0.53-0.12
		c-0.37,0-0.67,0.14-0.91,0.42c-0.23,0.28-0.35,0.65-0.35,1.12v2.49h-0.93v-3.68c0-0.12,0-0.29-0.01-0.49
		c-0.01-0.2-0.02-0.37-0.03-0.52H130.36z"/>
	<path class="st0" d="M136.43,546.57c0,0.17-0.06,0.32-0.19,0.46s-0.28,0.2-0.48,0.2c-0.18,0-0.34-0.06-0.47-0.19
		c-0.13-0.13-0.19-0.28-0.19-0.45c0-0.18,0.06-0.33,0.19-0.46s0.28-0.19,0.48-0.19s0.35,0.06,0.48,0.19
		C136.36,546.24,136.43,546.39,136.43,546.57z"/>
	<path class="st0" d="M141.06,547.16h-0.98v-7.01h2.25c0.34,0,0.66,0.03,0.96,0.1c0.3,0.07,0.57,0.18,0.8,0.33
		c0.23,0.15,0.41,0.35,0.54,0.6c0.13,0.25,0.2,0.55,0.2,0.91c0,0.51-0.16,0.93-0.48,1.25c-0.32,0.32-0.73,0.52-1.23,0.6l1.96,3.22
		h-1.19l-1.78-3.12h-1.05V547.16z M141.06,543.22h1.13c0.23,0,0.45-0.02,0.64-0.06c0.2-0.04,0.37-0.1,0.52-0.19s0.27-0.2,0.35-0.35
		c0.09-0.14,0.13-0.32,0.13-0.53s-0.04-0.39-0.13-0.53c-0.09-0.14-0.2-0.26-0.34-0.34c-0.14-0.09-0.31-0.15-0.5-0.18
		s-0.39-0.05-0.6-0.05h-1.2V543.22z"/>
	<path class="st0" d="M150.37,544.78c0,0.05,0,0.11,0,0.16s0,0.11-0.01,0.16h-3.73c0.01,0.2,0.05,0.38,0.13,0.55
		c0.08,0.17,0.19,0.33,0.33,0.45c0.14,0.13,0.3,0.23,0.48,0.3c0.18,0.07,0.37,0.11,0.58,0.11c0.32,0,0.59-0.07,0.82-0.21
		c0.23-0.14,0.41-0.31,0.54-0.5l0.65,0.53c-0.25,0.33-0.55,0.58-0.89,0.73c-0.34,0.16-0.72,0.24-1.13,0.24
		c-0.36,0-0.69-0.06-0.99-0.18c-0.3-0.12-0.56-0.29-0.78-0.5c-0.22-0.21-0.39-0.47-0.51-0.78c-0.13-0.3-0.19-0.64-0.19-1.01
		c0-0.36,0.06-0.7,0.18-1c0.12-0.31,0.29-0.57,0.51-0.79c0.22-0.22,0.48-0.39,0.77-0.51s0.62-0.18,0.96-0.18s0.66,0.06,0.94,0.17
		s0.52,0.27,0.71,0.48c0.2,0.21,0.35,0.47,0.45,0.77C150.32,544.06,150.37,544.4,150.37,544.78z M149.42,544.4
		c-0.01-0.18-0.04-0.36-0.09-0.52c-0.06-0.16-0.14-0.3-0.25-0.42c-0.11-0.12-0.24-0.21-0.41-0.28c-0.16-0.07-0.35-0.1-0.57-0.1
		c-0.2,0-0.38,0.04-0.56,0.1s-0.33,0.16-0.46,0.28c-0.13,0.12-0.23,0.26-0.32,0.42c-0.08,0.16-0.13,0.33-0.14,0.52H149.42z"/>
	<path class="st0" d="M154.19,543.66c-0.11-0.17-0.25-0.31-0.45-0.42c-0.19-0.11-0.41-0.16-0.64-0.16c-0.11,0-0.21,0.01-0.32,0.04
		s-0.2,0.06-0.28,0.11c-0.08,0.05-0.15,0.11-0.2,0.19c-0.05,0.08-0.07,0.17-0.07,0.28c0,0.2,0.09,0.34,0.27,0.44
		c0.18,0.1,0.45,0.18,0.8,0.26c0.22,0.05,0.43,0.12,0.62,0.19s0.36,0.16,0.5,0.27c0.14,0.11,0.25,0.24,0.33,0.39
		s0.12,0.33,0.12,0.53c0,0.28-0.05,0.51-0.16,0.7c-0.11,0.19-0.25,0.35-0.42,0.47s-0.38,0.21-0.6,0.26
		c-0.22,0.05-0.46,0.08-0.69,0.08c-0.36,0-0.7-0.07-1.04-0.21s-0.62-0.35-0.85-0.63l0.66-0.56c0.12,0.18,0.3,0.34,0.52,0.46
		c0.22,0.12,0.46,0.19,0.73,0.19c0.12,0,0.23-0.01,0.34-0.04c0.11-0.02,0.21-0.06,0.3-0.11c0.09-0.05,0.16-0.12,0.21-0.21
		s0.08-0.2,0.08-0.33c0-0.22-0.1-0.38-0.31-0.48s-0.51-0.21-0.92-0.3c-0.16-0.04-0.32-0.09-0.48-0.14
		c-0.16-0.06-0.31-0.13-0.44-0.23c-0.13-0.1-0.24-0.22-0.32-0.37c-0.08-0.15-0.12-0.33-0.12-0.55c0-0.25,0.05-0.47,0.15-0.65
		s0.24-0.33,0.4-0.45s0.35-0.2,0.56-0.26c0.21-0.06,0.43-0.08,0.65-0.08c0.34,0,0.66,0.07,0.97,0.2s0.56,0.32,0.73,0.57
		L154.19,543.66z"/>
	<path class="st0" d="M159.36,547.16c-0.01-0.12-0.02-0.25-0.03-0.4c-0.01-0.15-0.01-0.27-0.01-0.37h-0.02
		c-0.12,0.25-0.32,0.46-0.6,0.64s-0.59,0.26-0.94,0.26c-0.3,0-0.57-0.05-0.79-0.15c-0.22-0.1-0.4-0.24-0.54-0.41
		s-0.25-0.38-0.32-0.61c-0.07-0.23-0.1-0.48-0.1-0.74v-2.91h0.93v2.59c0,0.19,0.01,0.38,0.04,0.55c0.03,0.17,0.08,0.33,0.16,0.46
		s0.19,0.24,0.33,0.32c0.14,0.08,0.32,0.12,0.54,0.12c0.38,0,0.68-0.14,0.91-0.42c0.23-0.28,0.35-0.65,0.35-1.12v-2.49h0.93v3.68
		c0,0.13,0,0.29,0.01,0.49c0.01,0.2,0.02,0.37,0.03,0.52H159.36z"/>
	<path class="st0" d="M162.76,547.16h-0.93v-7.48h0.93V547.16z"/>
	<path class="st0" d="M166.68,543.23h-1.25v2.44c0,0.28,0.05,0.49,0.16,0.61c0.11,0.12,0.27,0.18,0.5,0.18
		c0.09,0,0.18-0.01,0.28-0.03c0.1-0.02,0.19-0.05,0.27-0.08l0.03,0.76c-0.11,0.04-0.24,0.07-0.37,0.09
		c-0.14,0.02-0.28,0.03-0.42,0.03c-0.44,0-0.78-0.12-1.01-0.37c-0.23-0.24-0.35-0.61-0.35-1.1v-2.54h-0.9v-0.76h0.9v-1.35h0.92v1.35
		h1.25V543.23z"/>
	<path class="st0" d="M170.17,543.66c-0.11-0.17-0.25-0.31-0.45-0.42c-0.19-0.11-0.41-0.16-0.64-0.16c-0.11,0-0.21,0.01-0.32,0.04
		s-0.2,0.06-0.28,0.11c-0.08,0.05-0.15,0.11-0.2,0.19c-0.05,0.08-0.07,0.17-0.07,0.28c0,0.2,0.09,0.34,0.27,0.44
		c0.18,0.1,0.45,0.18,0.8,0.26c0.22,0.05,0.43,0.12,0.62,0.19s0.36,0.16,0.5,0.27c0.14,0.11,0.25,0.24,0.33,0.39
		s0.12,0.33,0.12,0.53c0,0.28-0.05,0.51-0.16,0.7c-0.11,0.19-0.25,0.35-0.42,0.47s-0.38,0.21-0.6,0.26
		c-0.22,0.05-0.46,0.08-0.69,0.08c-0.36,0-0.7-0.07-1.04-0.21s-0.62-0.35-0.85-0.63l0.66-0.56c0.12,0.18,0.3,0.34,0.52,0.46
		c0.22,0.12,0.46,0.19,0.73,0.19c0.12,0,0.23-0.01,0.34-0.04c0.11-0.02,0.21-0.06,0.3-0.11c0.09-0.05,0.16-0.12,0.21-0.21
		s0.08-0.2,0.08-0.33c0-0.22-0.1-0.38-0.31-0.48s-0.51-0.21-0.92-0.3c-0.16-0.04-0.32-0.09-0.48-0.14
		c-0.16-0.06-0.31-0.13-0.44-0.23c-0.13-0.1-0.24-0.22-0.32-0.37c-0.08-0.15-0.12-0.33-0.12-0.55c0-0.25,0.05-0.47,0.15-0.65
		s0.24-0.33,0.4-0.45s0.35-0.2,0.56-0.26c0.21-0.06,0.43-0.08,0.65-0.08c0.34,0,0.66,0.07,0.97,0.2s0.56,0.32,0.73,0.57
		L170.17,543.66z"/>
	<path class="st0" d="M175.99,542.6c0.26-0.17,0.57-0.26,0.93-0.26c0.32,0,0.6,0.07,0.86,0.22c0.25,0.15,0.45,0.39,0.6,0.72
		c0.16-0.3,0.38-0.54,0.66-0.7c0.28-0.16,0.59-0.24,0.93-0.24c0.3,0,0.56,0.05,0.78,0.15c0.22,0.1,0.4,0.24,0.54,0.41
		c0.15,0.17,0.25,0.37,0.32,0.6c0.07,0.23,0.1,0.48,0.1,0.74v2.91h-0.93v-2.6c0-0.19-0.02-0.37-0.05-0.54
		c-0.03-0.17-0.09-0.32-0.17-0.46s-0.18-0.24-0.32-0.32s-0.3-0.12-0.5-0.12c-0.21,0-0.39,0.04-0.54,0.13
		c-0.15,0.09-0.28,0.2-0.37,0.35c-0.1,0.14-0.17,0.3-0.21,0.48c-0.04,0.18-0.06,0.36-0.06,0.54v2.53h-0.93v-2.79
		c0-0.18-0.02-0.35-0.05-0.5c-0.03-0.15-0.09-0.28-0.17-0.39c-0.08-0.11-0.18-0.19-0.31-0.26c-0.12-0.06-0.28-0.09-0.46-0.09
		c-0.34,0-0.63,0.14-0.86,0.42s-0.34,0.65-0.34,1.12v2.49h-0.93v-3.68c0-0.12,0-0.29-0.01-0.49c-0.01-0.2-0.02-0.37-0.03-0.52h0.88
		c0.01,0.12,0.02,0.25,0.03,0.4c0.01,0.15,0.01,0.27,0.01,0.37h0.03C175.54,542.99,175.73,542.78,175.99,542.6z"/>
	<path class="st0" d="M186.21,544.12c0-0.35-0.11-0.61-0.32-0.78c-0.21-0.17-0.49-0.25-0.84-0.25c-0.26,0-0.51,0.05-0.75,0.15
		c-0.23,0.1-0.43,0.23-0.59,0.39l-0.5-0.59c0.23-0.22,0.51-0.39,0.85-0.51c0.33-0.12,0.69-0.19,1.07-0.19
		c0.34,0,0.63,0.05,0.88,0.14s0.45,0.23,0.61,0.39s0.28,0.36,0.36,0.58c0.08,0.22,0.12,0.46,0.12,0.72v2.05c0,0.16,0,0.33,0.01,0.5
		s0.03,0.32,0.05,0.43h-0.84c-0.05-0.22-0.08-0.45-0.08-0.67h-0.03c-0.17,0.25-0.39,0.45-0.65,0.58s-0.57,0.21-0.93,0.21
		c-0.18,0-0.38-0.03-0.58-0.07c-0.2-0.05-0.38-0.13-0.55-0.24s-0.3-0.26-0.41-0.45c-0.11-0.18-0.16-0.41-0.16-0.68
		c0-0.36,0.1-0.64,0.29-0.85c0.19-0.21,0.44-0.37,0.75-0.47c0.31-0.11,0.66-0.18,1.05-0.21c0.39-0.03,0.78-0.05,1.18-0.05V544.12z
		 M185.98,544.92c-0.23,0-0.47,0.01-0.72,0.03c-0.25,0.02-0.47,0.06-0.67,0.12c-0.2,0.06-0.37,0.15-0.5,0.27
		c-0.13,0.12-0.2,0.28-0.2,0.48c0,0.14,0.03,0.25,0.08,0.35c0.06,0.09,0.13,0.17,0.22,0.23c0.09,0.06,0.2,0.1,0.31,0.12
		c0.11,0.02,0.23,0.04,0.35,0.04c0.44,0,0.77-0.13,1-0.39s0.35-0.59,0.35-0.98v-0.25H185.98z"/>
	<path class="st0" d="M190.43,546.15h0.02l1.3-3.68h0.99l-2.28,5.8c-0.08,0.2-0.17,0.37-0.26,0.53s-0.2,0.29-0.33,0.4
		c-0.13,0.11-0.27,0.19-0.44,0.25c-0.17,0.06-0.37,0.09-0.6,0.09c-0.1,0-0.2,0-0.3-0.01c-0.1-0.01-0.21-0.03-0.31-0.05l0.09-0.82
		c0.16,0.05,0.31,0.08,0.47,0.08c0.24,0,0.42-0.07,0.54-0.2c0.12-0.14,0.23-0.33,0.33-0.58l0.3-0.78l-2.01-4.69h1.04L190.43,546.15z
		"/>
	<path class="st0" d="M198.32,547.16h-1.01l-1.91-4.69h1.03l1.38,3.69h0.02l1.39-3.69h0.99L198.32,547.16z"/>
	<path class="st0" d="M204.02,544.12c0-0.35-0.11-0.61-0.32-0.78c-0.21-0.17-0.49-0.25-0.84-0.25c-0.26,0-0.51,0.05-0.75,0.15
		c-0.23,0.1-0.43,0.23-0.59,0.39l-0.5-0.59c0.23-0.22,0.51-0.39,0.85-0.51c0.33-0.12,0.69-0.19,1.07-0.19
		c0.34,0,0.63,0.05,0.88,0.14s0.45,0.23,0.61,0.39s0.28,0.36,0.36,0.58c0.08,0.22,0.12,0.46,0.12,0.72v2.05c0,0.16,0,0.33,0.01,0.5
		s0.03,0.32,0.05,0.43h-0.84c-0.05-0.22-0.08-0.45-0.08-0.67h-0.03c-0.17,0.25-0.39,0.45-0.65,0.58s-0.57,0.21-0.93,0.21
		c-0.18,0-0.38-0.03-0.58-0.07c-0.2-0.05-0.38-0.13-0.55-0.24s-0.3-0.26-0.41-0.45c-0.11-0.18-0.16-0.41-0.16-0.68
		c0-0.36,0.1-0.64,0.29-0.85c0.19-0.21,0.44-0.37,0.75-0.47c0.31-0.11,0.66-0.18,1.05-0.21c0.39-0.03,0.78-0.05,1.18-0.05V544.12z
		 M203.8,544.92c-0.23,0-0.47,0.01-0.72,0.03c-0.25,0.02-0.47,0.06-0.67,0.12c-0.2,0.06-0.37,0.15-0.5,0.27
		c-0.13,0.12-0.2,0.28-0.2,0.48c0,0.14,0.03,0.25,0.08,0.35c0.06,0.09,0.13,0.17,0.22,0.23c0.09,0.06,0.2,0.1,0.31,0.12
		c0.11,0.02,0.23,0.04,0.35,0.04c0.44,0,0.77-0.13,1-0.39s0.35-0.59,0.35-0.98v-0.25H203.8z"/>
	<path class="st0" d="M206.46,542.99c-0.01-0.2-0.02-0.37-0.03-0.52h0.88c0.01,0.12,0.02,0.26,0.03,0.41
		c0.01,0.16,0.01,0.28,0.01,0.38h0.03c0.13-0.28,0.33-0.5,0.58-0.67s0.54-0.25,0.86-0.25c0.14,0,0.27,0.01,0.37,0.04l-0.04,0.86
		c-0.13-0.03-0.27-0.05-0.42-0.05c-0.22,0-0.42,0.04-0.58,0.12c-0.17,0.08-0.3,0.19-0.41,0.33c-0.11,0.14-0.19,0.3-0.24,0.48
		s-0.08,0.37-0.08,0.57v2.46h-0.93v-3.68C206.47,543.35,206.46,543.19,206.46,542.99z"/>
	<path class="st0" d="M211.83,546.15h0.02l1.3-3.68h0.99l-2.28,5.8c-0.08,0.2-0.17,0.37-0.26,0.53s-0.2,0.29-0.33,0.4
		c-0.13,0.11-0.27,0.19-0.44,0.25c-0.17,0.06-0.37,0.09-0.6,0.09c-0.1,0-0.2,0-0.3-0.01c-0.1-0.01-0.21-0.03-0.31-0.05l0.09-0.82
		c0.16,0.05,0.31,0.08,0.47,0.08c0.24,0,0.42-0.07,0.54-0.2c0.12-0.14,0.23-0.33,0.33-0.58l0.3-0.78l-2.01-4.69h1.04L211.83,546.15z
		"/>
	<path class="st0" d="M215.83,546.57c0,0.17-0.06,0.32-0.19,0.46s-0.28,0.2-0.47,0.2c-0.19,0-0.34-0.06-0.47-0.19
		s-0.19-0.28-0.19-0.45c0-0.18,0.06-0.33,0.19-0.46s0.28-0.19,0.48-0.19c0.19,0,0.35,0.06,0.47,0.19
		C215.77,546.24,215.83,546.39,215.83,546.57z"/>
</g>
</svg>
