<?xml version="1.0" encoding="utf-8"?>
<!-- Generator: Adobe Illustrator 25.2.1, SVG Export Plug-In . SVG Version: 6.00 Build 0)  -->
<svg version="1.1" id="Layer_1" xmlns="http://www.w3.org/2000/svg" xmlns:xlink="http://www.w3.org/1999/xlink" x="0px" y="0px"
	 viewBox="0 0 300 600" style="enable-background:new 0 0 300 600;" xml:space="preserve">
<style type="text/css">
	.st0{fill:#FFFFFF;}
</style>
<g>
	<g>
		<g>
			<g>
				<path class="st0" d="M136.16,50.97c-2.06,0-3.05-1.49-3.05-2.93c0-1.66,1.2-2.99,3.09-2.99c0.64,0,1.3,0.2,1.83,0.64l-0.58,0.81
					c-0.36-0.28-0.75-0.38-1.21-0.38c-1,0-1.75,0.7-1.75,1.89c0,1.09,0.69,1.96,1.78,1.96c0.47,0,0.87-0.14,1.23-0.45l0.54,0.81
					C137.53,50.76,136.83,50.97,136.16,50.97"/>
				<path class="st0" d="M141.21,50.97c-1.72,0-2.99-1.3-2.99-2.99c0-1.74,1.39-2.93,2.99-2.93c1.61,0,3.01,1.18,3.01,2.92
					C144.21,49.67,142.94,50.97,141.21,50.97 M142.83,47.98c0-1.04-0.51-1.95-1.62-1.95c-1.08,0-1.62,0.9-1.62,1.93
					c0,1.07,0.5,2.02,1.62,2.02c1.12,0,1.62-0.94,1.62-2.02V47.98z"/>
				<path class="st0" d="M147.71,50.97c-1.72,0-2.99-1.3-2.99-2.99c0-1.74,1.39-2.93,2.99-2.93c1.61,0,3.01,1.18,3.01,2.92
					C150.71,49.67,149.44,50.97,147.71,50.97 M149.33,47.98c0-1.04-0.51-1.95-1.62-1.95c-1.08,0-1.62,0.9-1.62,1.93
					c0,1.07,0.5,2.02,1.62,2.02c1.12,0,1.62-0.94,1.62-2.02V47.98z"/>
				<polygon class="st0" points="151.39,50.83 151.39,42.54 152.68,43.24 152.68,50.83 				"/>
				<path class="st0" d="M155.67,51c-1.46,0-2.16-0.69-2.16-0.69l0.58-0.75c0,0,0.66,0.44,1.54,0.44c0.42,0,0.77-0.29,0.77-0.58
					c0-0.29-0.13-0.53-0.51-0.73c-0.38-0.2-0.82-0.41-1.15-0.57c-0.34-0.16-1.08-0.66-1.08-1.63c0-0.98,1-1.53,2.03-1.53
					c0.98,0,1.72,0.64,1.72,0.64l-0.5,0.76c0,0-0.56-0.39-1.18-0.39s-0.75,0.39-0.75,0.56c0,0.16,0.06,0.42,0.45,0.63
					c0.4,0.21,0.8,0.43,1.39,0.75c0.58,0.32,0.91,0.88,0.91,1.51C157.73,50.03,157.12,51,155.67,51"/>
				<path class="st0" d="M161.22,50.97c-2.06,0-3.05-1.49-3.05-2.93c0-1.66,1.2-2.99,3.09-2.99c0.64,0,1.3,0.2,1.83,0.64l-0.58,0.81
					c-0.36-0.28-0.75-0.38-1.21-0.38c-1,0-1.75,0.7-1.75,1.89c0,1.09,0.69,1.96,1.78,1.96c0.47,0,0.87-0.14,1.24-0.45l0.54,0.81
					C162.58,50.76,161.89,50.97,161.22,50.97"/>
				<path class="st0" d="M167.59,50.17c0,0-0.65,0.8-1.89,0.8c-1.46,0-2.17-1.05-2.17-2.12v-3.67h1.29v3.61
					c0,0.63,0.49,1.15,1.25,1.15c0.66,0,1.32-0.79,1.32-0.79v-3.97h1.29v5.64L167.59,50.17z"/>
				<polygon class="st0" points="169.84,50.83 169.84,42.54 171.14,43.24 171.14,50.83 				"/>
				<path class="st0" d="M175.41,50.97c-1.14,0-1.79-0.64-1.79-0.64v2.81h-1.3v-8.08l1.3,0.68c0,0,0.7-0.71,1.86-0.71
					c1.22,0,2.75,0.94,2.75,3.03C178.23,50.17,176.73,50.97,175.41,50.97 M175.33,46.04c-1.11,0-1.75,1.03-1.75,1.03v2.13
					c0,0,0.73,0.82,1.79,0.82c1.23,0,1.5-1.47,1.5-1.98C176.88,47.53,176.76,46.04,175.33,46.04"/>
				<path class="st0" d="M181.63,50.98h-0.82c-1.03,0-1.37-0.98-1.37-1.63v-3.32h-1.03v-0.85h1.03v-2.49h1.28v2.49h1.32v0.85h-1.3
					v3.01c0,0.34-0.06,0.87,0.51,0.87h0.93L181.63,50.98z"/>
				<path class="st0" d="M183.71,44.21c-0.47,0-0.85-0.38-0.85-0.85c0-0.46,0.38-0.85,0.85-0.85s0.85,0.38,0.85,0.85
					C184.56,43.82,184.17,44.21,183.71,44.21 M183.06,45.18h1.27v5.65h-1.27V45.18z"/>
				<path class="st0" d="M189.46,50.83v-3.61c0-0.63-0.49-1.15-1.25-1.15c-0.66,0-1.41,0.79-1.41,0.79v3.97h-1.29v-5.64l1.1,0.65
					c0,0,0.75-0.8,1.98-0.8c1.46,0,2.17,1.05,2.17,2.12v3.67H189.46z"/>
				<path class="st0" d="M194.7,53.46c-0.2,0-1.71-0.02-1.71-0.02l0.02-1.03h1.27c1.23,0,1.93-0.66,1.93-1.56v-0.51
					c0,0-0.68,0.64-1.82,0.64c-1.32,0-2.82-0.8-2.82-2.9c0-2.1,1.53-3.03,2.75-3.03c1.16,0,1.86,0.71,1.86,0.71l1.3-0.65v5.62
					C197.5,52.23,196.49,53.46,194.7,53.46 M196.23,47.07c0,0-0.64-1.03-1.75-1.03c-1.43,0-1.55,1.49-1.55,2
					c0,0.51,0.27,1.98,1.5,1.98c1.06,0,1.79-0.82,1.79-0.82V47.07z"/>
				<polygon class="st0" points="120.02,48.26 117.64,50.63 120.55,51.72 124.03,48.26 				"/>
				<polygon class="st0" points="124.37,43.45 122,41.1 120.9,43.98 124.37,47.44 				"/>
				<polygon class="st0" points="128.68,44.32 131.86,45.15 129.21,47.78 125.2,47.78 				"/>
				<polygon class="st0" points="128.47,52.19 127.56,55.28 122.61,50.36 124.61,48.36 				"/>
				<g>
					<path class="st0" d="M199.43,45.56c0,0.33-0.27,0.6-0.61,0.6c-0.34,0-0.62-0.27-0.62-0.6c0-0.33,0.27-0.6,0.62-0.6
						C199.16,44.97,199.43,45.23,199.43,45.56z M198.35,45.56c0,0.27,0.2,0.48,0.47,0.48c0.26,0,0.46-0.21,0.46-0.47
						c0-0.27-0.2-0.48-0.46-0.48C198.55,45.09,198.35,45.3,198.35,45.56z M198.72,45.87h-0.14v-0.6c0.05-0.01,0.13-0.02,0.23-0.02
						c0.11,0,0.16,0.02,0.21,0.05c0.04,0.03,0.06,0.07,0.06,0.13c0,0.07-0.05,0.12-0.12,0.14v0.01c0.06,0.02,0.09,0.07,0.11,0.15
						c0.02,0.09,0.03,0.12,0.04,0.15h-0.15c-0.02-0.02-0.03-0.07-0.05-0.15c-0.01-0.06-0.05-0.09-0.12-0.09h-0.07V45.87z
						 M198.72,45.54h0.07c0.08,0,0.14-0.03,0.14-0.09c0-0.05-0.04-0.09-0.13-0.09c-0.04,0-0.06,0-0.08,0.01V45.54z"/>
				</g>
			</g>
			<g>
				<polygon class="st0" points="121.53,55.12 121.53,51.42 122.26,50.7 124.37,52.79 124.37,53.49 				"/>
				<polygon class="st0" points="121.19,44.96 118.13,44.96 119.11,47.78 124.03,47.78 				"/>
				<polygon class="st0" points="131.54,51.08 128.03,51.08 125.2,48.26 130.12,48.26 				"/>
				<polygon class="st0" points="124.86,42.55 127.69,40.87 127.69,44.62 124.86,47.44 				"/>
				<g>
					<path class="st0" d="M129.84,52.39c0,0.23-0.19,0.42-0.43,0.42c-0.24,0-0.43-0.18-0.43-0.42c0-0.23,0.19-0.41,0.43-0.41
						C129.66,51.98,129.84,52.16,129.84,52.39z M129.1,52.39c0,0.18,0.14,0.33,0.32,0.33c0.18,0,0.32-0.15,0.32-0.33
						c0-0.18-0.14-0.33-0.32-0.33C129.24,52.06,129.1,52.21,129.1,52.39z M129.35,52.61h-0.1v-0.41c0.04,0,0.09-0.01,0.16-0.01
						c0.08,0,0.11,0.01,0.14,0.03c0.03,0.02,0.04,0.05,0.04,0.09c0,0.05-0.04,0.08-0.09,0.1v0c0.04,0.01,0.06,0.05,0.07,0.1
						c0.01,0.06,0.02,0.09,0.03,0.1h-0.1c-0.01-0.01-0.02-0.05-0.03-0.1c-0.01-0.04-0.03-0.06-0.09-0.06h-0.05V52.61z M129.36,52.37
						h0.05c0.05,0,0.1-0.02,0.1-0.06c0-0.04-0.03-0.06-0.09-0.06c-0.03,0-0.04,0-0.05,0V52.37z"/>
				</g>
			</g>
		</g>
	</g>
	<g>
		<path class="st0" d="M106.62,45.35h0.51v2.82h0.02c0.08-0.12,0.18-0.23,0.29-0.32c0.11-0.09,0.23-0.16,0.36-0.22
			c0.12-0.06,0.25-0.1,0.38-0.12c0.13-0.03,0.26-0.04,0.38-0.04c0.28,0,0.54,0.05,0.78,0.14c0.24,0.1,0.44,0.23,0.61,0.4
			c0.17,0.17,0.3,0.37,0.4,0.6c0.1,0.23,0.14,0.48,0.14,0.76c0,0.27-0.05,0.52-0.14,0.76c-0.1,0.23-0.23,0.43-0.4,0.6
			c-0.17,0.17-0.37,0.3-0.61,0.4c-0.24,0.1-0.5,0.14-0.78,0.14c-0.12,0-0.24-0.01-0.38-0.04c-0.13-0.03-0.26-0.07-0.38-0.12
			c-0.12-0.06-0.24-0.13-0.36-0.22c-0.11-0.09-0.21-0.19-0.29-0.32h-0.02v0.6h-0.51V45.35z M109.93,49.37c0-0.2-0.03-0.39-0.1-0.56
			c-0.06-0.17-0.16-0.33-0.28-0.45c-0.12-0.13-0.26-0.23-0.43-0.3c-0.17-0.07-0.36-0.11-0.57-0.11c-0.21,0-0.41,0.04-0.58,0.11
			c-0.18,0.07-0.33,0.18-0.46,0.3c-0.13,0.13-0.23,0.28-0.3,0.45c-0.07,0.17-0.11,0.36-0.11,0.56c0,0.2,0.04,0.39,0.11,0.56
			c0.07,0.17,0.17,0.33,0.3,0.45c0.13,0.13,0.28,0.23,0.46,0.3c0.18,0.07,0.37,0.11,0.58,0.11c0.21,0,0.4-0.04,0.57-0.11
			c0.17-0.07,0.31-0.18,0.43-0.3c0.12-0.13,0.21-0.28,0.28-0.45C109.9,49.76,109.93,49.57,109.93,49.37z"/>
		<path class="st0" d="M112.7,50.55l1.11-2.98h0.62l-1.81,4.55c-0.11,0.28-0.25,0.5-0.42,0.66c-0.17,0.16-0.41,0.25-0.72,0.25
			c-0.08,0-0.16,0-0.24-0.01c-0.08-0.01-0.16-0.02-0.24-0.05l0.05-0.49c0.11,0.06,0.24,0.08,0.39,0.08c0.18,0,0.32-0.06,0.43-0.17
			c0.1-0.11,0.19-0.27,0.27-0.48l0.26-0.69l-1.49-3.65h0.64L112.7,50.55z"/>
	</g>
	<g>
		<path class="st0" d="M116.72,34.14c-1.11,0.97-2.49,1.45-4.13,1.45c-2.14,0-3.83-0.69-5.06-2.08c-1.11-1.25-1.67-2.76-1.67-4.53
			c0-1.89,0.62-3.48,1.87-4.76c1.25-1.28,2.9-1.93,4.96-1.93c1.57,0,2.91,0.48,4.01,1.43l-1.28,1.8c-0.74-0.56-1.63-0.83-2.67-0.83
			c-1.13,0-2.05,0.38-2.76,1.14c-0.71,0.76-1.07,1.79-1.07,3.09c0,1.27,0.36,2.31,1.07,3.15c0.71,0.83,1.66,1.25,2.84,1.25
			c1.03,0,1.94-0.33,2.75-0.99L116.72,34.14z"/>
		<path class="st0" d="M130.08,28.85c0,1.93-0.63,3.53-1.89,4.82c-1.26,1.28-2.84,1.92-4.74,1.92c-1.9,0-3.48-0.64-4.73-1.92
			c-1.25-1.28-1.88-2.89-1.88-4.82c0-1.89,0.66-3.47,1.98-4.74c1.27-1.21,2.81-1.82,4.62-1.82c1.82,0,3.37,0.61,4.65,1.82
			C129.42,25.38,130.08,26.95,130.08,28.85z M127.02,28.85c0-1.23-0.29-2.24-0.87-3.04c-0.65-0.87-1.55-1.3-2.7-1.3
			s-2.04,0.43-2.67,1.3c-0.58,0.8-0.87,1.81-0.87,3.04c0,1.3,0.28,2.36,0.85,3.17c0.63,0.9,1.53,1.35,2.7,1.35
			c1.16,0,2.07-0.45,2.72-1.35C126.74,31.2,127.02,30.15,127.02,28.85z"/>
		<path class="st0" d="M144.28,28.85c0,1.93-0.63,3.53-1.89,4.82c-1.26,1.28-2.84,1.92-4.74,1.92c-1.9,0-3.48-0.64-4.73-1.92
			c-1.25-1.28-1.88-2.89-1.88-4.82c0-1.89,0.66-3.47,1.98-4.74c1.27-1.21,2.81-1.82,4.62-1.82c1.82,0,3.37,0.61,4.65,1.82
			C143.62,25.38,144.28,26.95,144.28,28.85z M141.22,28.85c0-1.23-0.29-2.24-0.87-3.04c-0.65-0.87-1.55-1.3-2.7-1.3
			c-1.15,0-2.04,0.43-2.67,1.3c-0.58,0.8-0.87,1.81-0.87,3.04c0,1.3,0.28,2.36,0.85,3.17c0.63,0.9,1.53,1.35,2.7,1.35
			c1.16,0,2.07-0.45,2.72-1.35C140.94,31.2,141.22,30.15,141.22,28.85z"/>
		<path class="st0" d="M148.64,35.3h-2.85V16.63l2.85,1.59V35.3z"/>
		<g>
			<g>
				<path class="st0" d="M170.43,28.85c0,1.93-0.63,3.53-1.89,4.82c-1.26,1.28-2.84,1.92-4.74,1.92c-1.9,0-3.48-0.64-4.73-1.92
					c-1.25-1.28-1.88-2.89-1.88-4.82c0-1.89,0.66-3.47,1.98-4.74c1.27-1.21,2.81-1.82,4.62-1.82c1.82,0,3.37,0.61,4.65,1.82
					C169.77,25.38,170.43,26.95,170.43,28.85z M167.37,28.85c0-1.23-0.29-2.24-0.87-3.04c-0.65-0.87-1.55-1.3-2.7-1.3
					c-1.15,0-2.04,0.43-2.67,1.3c-0.58,0.8-0.87,1.81-0.87,3.04c0,1.3,0.28,2.36,0.85,3.17c0.63,0.9,1.53,1.35,2.7,1.35
					c1.16,0,2.07-0.45,2.72-1.35C167.09,31.2,167.37,30.15,167.37,28.85z"/>
				<path class="st0" d="M183.4,35.3h-2.85v-8.12c0-0.73-0.25-1.34-0.76-1.83c-0.5-0.49-1.17-0.74-1.99-0.74
					c-0.91,0-1.94,0.59-3.11,1.77v8.92h-2.85V22.6l2.41,1.46c1.23-1.2,2.69-1.8,4.37-1.8c1.51,0,2.71,0.5,3.6,1.49
					c0.79,0.89,1.18,1.98,1.18,3.29V35.3z"/>
				<path class="st0" d="M197.32,29.54h-9.12c0.34,2.59,1.56,3.88,3.65,3.88c1.28,0,2.34-0.36,3.16-1.1l1.13,1.85
					c-1.1,1.01-2.55,1.51-4.37,1.51c-2.52,0-4.36-0.95-5.52-2.84c-0.72-1.16-1.08-2.36-1.08-3.6c0-1.51,0.29-2.83,0.87-3.94
					c1.04-2.03,2.9-3.05,5.57-3.05c2.64,0,4.37,1.21,5.21,3.62C197.19,26.91,197.35,28.13,197.32,29.54z M194.44,27.66
					c-0.1-2.24-1.06-3.36-2.88-3.36c-2,0-3.11,1.12-3.31,3.36H194.44z"/>
				<path class="st0" d="M154.81,33.21c-0.55,0-0.89-0.23-1.03-0.7c-0.07-0.19-0.1-0.61-0.1-1.25v-5.29h1.98v-1.9h-1.98v-3.03
					l-2.85-1.59v12.52c0,0.9,0.22,1.69,0.67,2.37c0.55,0.87,1.34,1.3,2.36,1.3h1.8l1.21-2.42H154.81z"/>
			</g>
		</g>
		<g>
			<path class="st0" d="M200.59,23.62c0,0.75-0.61,1.35-1.38,1.35c-0.77,0-1.39-0.6-1.39-1.35c0-0.75,0.62-1.34,1.4-1.34
				C199.98,22.28,200.59,22.87,200.59,23.62z M198.16,23.62c0,0.6,0.45,1.07,1.05,1.07c0.58,0.01,1.03-0.47,1.03-1.06
				c0-0.6-0.44-1.08-1.04-1.08C198.62,22.55,198.16,23.03,198.16,23.62z M198.99,24.31h-0.31v-1.34c0.12-0.02,0.3-0.04,0.52-0.04
				c0.26,0,0.37,0.04,0.46,0.11c0.08,0.06,0.14,0.16,0.14,0.29c0,0.16-0.12,0.27-0.28,0.32v0.02c0.13,0.04,0.2,0.15,0.24,0.33
				c0.04,0.2,0.07,0.28,0.1,0.33h-0.33c-0.04-0.05-0.07-0.16-0.11-0.33c-0.02-0.14-0.11-0.2-0.28-0.2h-0.15V24.31z M199,23.56h0.15
				c0.17,0,0.31-0.06,0.31-0.2c0-0.12-0.09-0.2-0.29-0.2c-0.08,0-0.14,0.01-0.17,0.02V23.56z"/>
		</g>
	</g>
</g>
</svg>
