<svg id="Layer_1" xmlns="http://www.w3.org/2000/svg" viewBox="0 0 300 600"><style>.st0{fill:#fff}</style><path class="st0" d="M19.39 79.26h1.36c1.33 0 1.87-.36 1.87-1.78v-17.6h-.77c-4.18 0-5.07 2.9-5.81 7.47h-.42l.39-7.91h15.73l.33 7.91h-.42c-.71-4.56-1.63-7.47-5.81-7.47h-.77v17.6c0 1.42.5 1.78 1.87 1.78h1.33v.44h-8.89v-.44zM31.41 77.19c0-2.52 2.25-3.85 7.82-5.16v-.86c0-2.84-1.13-3.82-2.9-3.82-1.6 0-2.96.68-2.96 1.21 0 .09.03.12.15.12.59 0 1.24.56 1.24 1.3 0 .77-.59 1.36-1.33 1.36-.77 0-1.33-.56-1.33-1.42 0-1.54 1.63-2.99 4.8-2.99 2.37 0 4.44.86 4.44 4.36v6.07c0 1.24.36 1.63.77 1.63.71 0 1.01-.74 1.04-2.37h.42c-.06 2.81-1.04 3.35-2.25 3.35-1.16 0-2.22-.65-2.07-2.79h-.06c-.56 1.54-2.34 2.84-4.42 2.84-1.91.01-3.36-.93-3.36-2.83zm7.83-2.55v-2.13c-4.53.92-5.36 2.49-5.36 4.18 0 1.33.71 2.31 2.07 2.31 1.45 0 3.29-1.07 3.29-4.36zM44.06 79.29h.12c1.33 0 1.63-.36 1.63-1.78V61.6c0-1.42-.3-1.78-1.63-1.78h-.24v-.42l3.97-.44v18.55c0 1.42.3 1.78 1.6 1.78h.24v.42h-5.69v-.42zM50.73 79.29h.15c1.3 0 1.6-.33 1.6-1.66V61.51c0-1.36-.3-1.69-1.6-1.69h-.27v-.42l3.97-.44v15.56l4.47-4.8c.59-.62.77-.92.77-1.3 0-.44-.53-.71-1.51-.77v-.33h5.22v.33c-1.72.18-2.13.59-3.23 1.69l-2.43 2.49c0-.03 4.3 6.04 4.3 6.04.68.95.95 1.33 2.13 1.42v.42h-5.51v-.39c.95-.09 1.27-.36 1.27-.68 0-.18-.06-.33-.39-.8l-3.2-4.59-1.9 1.9v2.49c0 1.33.3 1.66 1.63 1.66h.18v.42h-5.66v-.43zM73.33 76.3v-8.53h-2.02v-.36c1.9-.33 3.47-1.63 3.76-5.45h.39v5.33h4v.47h-4v8.68c0 1.87.68 2.79 2.01 2.79 1.21 0 2.19-1.33 2.31-3.94h.42c0 3.02-1.33 4.8-3.47 4.8-2.09 0-3.4-1.21-3.4-3.79zM81.21 73.48c0-3.85 3.02-6.61 5.81-6.61 2.79 0 5.78 2.7 5.78 6.55 0 3.76-2.99 6.73-5.78 6.73s-5.81-2.9-5.81-6.67zm9.1.03c0-3.44-.89-6.22-3.29-6.22s-3.29 2.73-3.29 6.16c0 3.41.83 6.28 3.29 6.28s3.29-2.81 3.29-6.22zM100.67 83.65c0-.92.62-1.57 1.51-1.57.71 0 1.21.62 1.21 1.24 0 .53-.21.83-.41 1.04-.18.18-.33.27-.33.5 0 .3.33.5.77.5 1.36 0 2.28-1.87 3.14-3.94l.39-.92-4.44-10.79c-.53-1.33-.95-1.93-2.16-2.01v-.39h5.96v.39c-1.04.09-1.51.41-1.54.89-.03.44.12.95.36 1.57l2.93 7.76 2.67-6.99c.27-.68.56-1.51.56-2.07 0-.77-.5-1.07-1.63-1.16v-.39h4.39v.39c-1.3.09-1.63.8-2.1 2.01l-4.77 11.68c-1.48 3.65-2.61 4.47-4 4.47-1.65.01-2.51-1-2.51-2.21zM113.92 73.48c0-3.85 3.02-6.61 5.81-6.61 2.79 0 5.78 2.7 5.78 6.55 0 3.76-2.99 6.73-5.78 6.73s-5.81-2.9-5.81-6.67zm9.1.03c0-3.44-.89-6.22-3.29-6.22s-3.29 2.73-3.29 6.16c0 3.41.83 6.28 3.29 6.28s3.29-2.81 3.29-6.22zM128.17 75.8v-6.4c0-1.3-.3-1.69-1.6-1.69h-.27v-.39l3.97-.24v9.25c0 2.1.8 2.93 2.19 2.93 1.84 0 3.67-2.61 3.67-5.1v-4.74c0-1.36-.3-1.72-1.6-1.72h-.59v-.39l4.33-.24v10.37c0 1.33.33 1.72 1.63 1.72h.21v.39l-3.94.45.15-3.67h-.06c-.77 2.01-2.49 3.67-4.5 3.67-2.35 0-3.59-1.36-3.59-4.2zM140.88 79.29h.21c1.3 0 1.6-.33 1.6-1.66v-8.3c0-1.33-.36-1.66-1.6-1.66h-.21v-.36l3.94-.24-.21 5.01h.06c.92-3.23 2.4-5.16 4.36-5.16 1.51 0 2.37.89 2.37 1.93 0 1.16-.65 1.75-1.48 1.75-.74 0-1.33-.47-1.33-1.21 0-.65.36-.95.62-1.19.15-.12.24-.21.24-.36 0-.24-.3-.3-.65-.3-2.13 0-3.94 4.21-3.94 6.55v3.53c0 1.33.3 1.66 1.6 1.66h.68v.42h-6.25v-.41zM15.03 113.27h.36c1.3 0 1.6-.33 1.6-1.69V97.33c0-1.36-.3-1.69-1.6-1.69h-.21v-.39l3.85-.24-.09 3.02H19c.95-1.84 2.22-3.11 4.15-3.11 2.43 0 5.19 2.52 5.19 6.49 0 3.91-2.7 6.52-5.3 6.52-2.01 0-3.26-1.39-4.06-3.2h-.03s.12 1.84.12 3.7v3.14c0 1.36.3 1.69 1.6 1.69h.68v.41h-6.31v-.4zm10.82-11.79c0-3.08-.71-6.07-2.99-6.07-1.45 0-3.82 1.72-3.82 6.04 0 3.05 1.63 6.02 3.76 6.02 2.28-.01 3.05-2.79 3.05-5.99zM29.58 107.23h.21c1.3 0 1.6-.33 1.6-1.66v-8.3c0-1.33-.36-1.66-1.6-1.66h-.21v-.36l3.94-.24-.21 5.01h.06c.92-3.23 2.4-5.16 4.36-5.16 1.51 0 2.37.89 2.37 1.93 0 1.16-.65 1.75-1.48 1.75-.74 0-1.33-.47-1.33-1.21 0-.65.36-.95.62-1.19.15-.12.24-.21.24-.36 0-.24-.3-.3-.65-.3-2.13 0-3.94 4.21-3.94 6.55v3.53c0 1.33.3 1.66 1.6 1.66h.68v.42h-6.25v-.41zM40.57 101.42c0-3.85 3.02-6.61 5.81-6.61 2.79 0 5.78 2.7 5.78 6.55 0 3.76-2.99 6.73-5.78 6.73-2.79-.01-5.81-2.91-5.81-6.67zm9.09.03c0-3.44-.89-6.22-3.29-6.22s-3.29 2.73-3.29 6.16c0 3.41.83 6.28 3.29 6.28s3.29-2.82 3.29-6.22zM54.49 97.56c-.56-1.33-.92-1.84-2.13-1.93v-.39h5.93v.39c-1.19.09-1.51.39-1.54.86-.03.44.12 1.01.33 1.54l2.84 7.56 2.64-6.82c.27-.71.56-1.45.56-2.01 0-.77-.5-1.04-1.63-1.13v-.39h4.27v.39c-1.21.09-1.6.77-2.07 1.93l-4.39 10.67h-.41l-4.4-10.67zM66.19 107.23h.24c1.3 0 1.6-.33 1.6-1.66v-8.24c0-1.36-.3-1.69-1.6-1.69h-.24v-.39l3.94-.24v10.55c0 1.33.3 1.66 1.6 1.66h.24v.42h-5.78v-.41zm.98-16.95c0-.89.74-1.63 1.63-1.63.89 0 1.63.74 1.63 1.63 0 .89-.74 1.63-1.63 1.63-.89 0-1.63-.75-1.63-1.63zM73.21 101.45c0-3.67 2.34-6.52 5.21-6.52 1.78 0 3.17 1.24 4.09 3.05h.09c-.06-.83-.09-2.61-.09-4.47v-4.03c0-1.36-.33-1.69-1.63-1.69h-.74v-.41l4.47-.44v18.49c0 1.33.27 1.72 1.57 1.72h.24v.42l-3.9.43.12-3.32h-.09c-.98 1.81-2.22 3.26-4.24 3.26-2.46 0-5.1-2.46-5.1-6.49zm9.31-.03c0-4.42-2.46-6.05-3.73-6.05-2.43 0-3.08 2.76-3.08 5.99 0 3.29.8 6.1 3.05 6.1 1.53 0 3.76-2.13 3.76-6.04zM87.46 101.51c0-4 2.79-6.7 5.75-6.7 2.37 0 5.1 1.84 5.1 5.66 0 .09-.03.74-.06.89h-8.36c0 3.26 1.3 5.78 3.85 5.78 2.28 0 3.44-1.16 4.42-2.58l.33.24c-1.1 1.84-2.81 3.29-5.39 3.29-3.42-.01-5.64-2.52-5.64-6.58zm6.88-.63c1.19 0 1.51-.39 1.51-1.33 0-2.37-.83-4.3-2.73-4.3-2.07 0-3.14 2.22-3.23 5.63h4.45zM99.64 107.23h.21c1.3 0 1.6-.33 1.6-1.66v-8.3c0-1.33-.36-1.66-1.6-1.66h-.21v-.36l3.94-.24-.21 5.01h.06c.92-3.23 2.4-5.16 4.36-5.16 1.51 0 2.37.89 2.37 1.93 0 1.16-.65 1.75-1.48 1.75-.74 0-1.33-.47-1.33-1.21 0-.65.36-.95.62-1.19.15-.12.24-.21.24-.36 0-.24-.3-.3-.65-.3-2.13 0-3.94 4.21-3.94 6.55v3.53c0 1.33.3 1.66 1.6 1.66h.68v.42h-6.25v-.41zM117.8 105.12c0-2.52 2.25-3.85 7.82-5.16v-.86c0-2.84-1.13-3.82-2.9-3.82-1.6 0-2.96.68-2.96 1.21 0 .09.03.12.15.12.59 0 1.24.56 1.24 1.3 0 .77-.59 1.36-1.33 1.36-.77 0-1.33-.56-1.33-1.42 0-1.54 1.63-2.99 4.8-2.99 2.37 0 4.44.86 4.44 4.36v6.07c0 1.24.36 1.63.77 1.63.71 0 1.01-.74 1.04-2.37h.42c-.06 2.81-1.04 3.35-2.25 3.35-1.16 0-2.22-.65-2.07-2.79h-.06c-.56 1.54-2.34 2.84-4.42 2.84-1.91.02-3.36-.93-3.36-2.83zm7.82-2.55v-2.13c-4.53.92-5.36 2.49-5.36 4.18 0 1.33.71 2.31 2.07 2.31 1.45 0 3.29-1.07 3.29-4.36zM131.81 102.6V89.45c0-1.36-.3-1.69-1.6-1.69h-.5v-.42l4.18-.44v6.43c0 2.28-.09 4.65-.09 4.65h.06c1.13-1.96 2.28-3.05 4.21-3.05 2.58 0 5.1 2.79 5.1 6.46 0 4.09-2.73 6.55-5.19 6.55-2.02 0-3.08-1.13-4.09-2.93h-.06l-2.01 3.17h-.39c.29-1.7.38-3.77.38-5.58zm8.86-1.15c0-3.26-.77-6.04-2.96-6.04-2.01 0-3.85 2.46-3.85 6.02 0 3.32 1.66 6.04 3.79 6.04 1.75-.01 3.02-1.67 3.02-6.02zM144.73 101.42c0-3.85 3.02-6.61 5.81-6.61 2.79 0 5.78 2.7 5.78 6.55 0 3.76-2.99 6.73-5.78 6.73-2.79-.01-5.81-2.91-5.81-6.67zm9.09.03c0-3.44-.89-6.22-3.29-6.22s-3.29 2.73-3.29 6.16c0 3.41.83 6.28 3.29 6.28s3.29-2.82 3.29-6.22zM158.98 103.73v-6.4c0-1.3-.3-1.69-1.6-1.69h-.27v-.39l3.97-.24v9.25c0 2.1.8 2.93 2.19 2.93 1.84 0 3.67-2.61 3.67-5.1v-4.74c0-1.36-.3-1.72-1.6-1.72h-.59v-.39l4.33-.24v10.37c0 1.33.33 1.72 1.63 1.72h.21v.39l-3.94.44.15-3.67h-.06c-.77 2.01-2.49 3.67-4.5 3.67-2.35.02-3.59-1.35-3.59-4.19zM173.29 104.23V95.7h-2.01v-.36c1.9-.33 3.47-1.63 3.76-5.45h.39v5.33h4v.47h-4v8.68c0 1.87.68 2.79 2.01 2.79 1.21 0 2.19-1.33 2.31-3.94h.42c0 3.02-1.33 4.8-3.47 4.8-2.11.01-3.41-1.21-3.41-3.79zM188.04 105.12c0-2.52 2.25-3.85 7.82-5.16v-.86c0-2.84-1.13-3.82-2.9-3.82-1.6 0-2.96.68-2.96 1.21 0 .09.03.12.15.12.59 0 1.24.56 1.24 1.3 0 .77-.59 1.36-1.33 1.36-.77 0-1.33-.56-1.33-1.42 0-1.54 1.63-2.99 4.8-2.99 2.37 0 4.45.86 4.45 4.36v6.07c0 1.24.36 1.63.77 1.63.71 0 1.01-.74 1.04-2.37h.42c-.06 2.81-1.04 3.35-2.25 3.35-1.16 0-2.22-.65-2.07-2.79h-.06c-.56 1.54-2.34 2.84-4.42 2.84-1.92.02-3.37-.93-3.37-2.83zm7.82-2.55v-2.13c-4.53.92-5.36 2.49-5.36 4.18 0 1.33.71 2.31 2.07 2.31 1.45 0 3.29-1.07 3.29-4.36zM15.03 141.2h.36c1.3 0 1.6-.33 1.6-1.69v-14.25c0-1.36-.3-1.69-1.6-1.69h-.21v-.39l3.85-.24-.09 3.02H19c.95-1.84 2.22-3.11 4.15-3.11 2.43 0 5.19 2.52 5.19 6.49 0 3.91-2.7 6.52-5.3 6.52-2.01 0-3.26-1.39-4.06-3.2h-.03s.12 1.84.12 3.7v3.14c0 1.36.3 1.69 1.6 1.69h.68v.41h-6.31v-.4zm10.82-11.79c0-3.08-.71-6.07-2.99-6.07-1.45 0-3.82 1.72-3.82 6.04 0 3.05 1.63 6.02 3.76 6.02 2.28-.01 3.05-2.79 3.05-5.99zM29.9 129.44c0-4 2.79-6.7 5.75-6.7 2.37 0 5.1 1.84 5.1 5.66 0 .09-.03.74-.06.89h-8.36c0 3.26 1.3 5.78 3.85 5.78 2.28 0 3.44-1.16 4.42-2.58l.33.24c-1.1 1.84-2.81 3.29-5.39 3.29-3.42 0-5.64-2.52-5.64-6.58zm6.88-.62c1.19 0 1.51-.39 1.51-1.33 0-2.37-.83-4.3-2.73-4.3-2.07 0-3.14 2.22-3.23 5.63h4.45zM42.08 135.16h.21c1.3 0 1.6-.33 1.6-1.66v-8.3c0-1.33-.36-1.66-1.6-1.66h-.21v-.36l3.94-.24-.21 5.01h.06c.92-3.23 2.4-5.16 4.36-5.16 1.51 0 2.37.89 2.37 1.93 0 1.16-.65 1.75-1.48 1.75-.74 0-1.33-.47-1.33-1.21 0-.65.36-.95.62-1.19.15-.12.24-.21.24-.36 0-.24-.3-.3-.65-.3-2.13 0-3.94 4.21-3.94 6.55v3.53c0 1.33.3 1.66 1.6 1.66h.68v.42h-6.25v-.41zM54.91 134.83c-.44 0-.83.36-1.07 1.01h-.3v-5.04h.27c.5 2.9 2.87 4.65 5.22 4.65 1.75 0 2.99-1.01 2.99-2.4 0-1.33-.92-1.84-3.91-2.7-2.61-.74-4.42-1.42-4.42-4 0-2.13 1.6-3.47 3.85-3.47 1.72 0 2.49.77 3.41.77.47 0 .86-.24 1.07-.74h.3v4.5h-.27c-.47-2.43-2.16-4.12-4.65-4.12-1.36 0-2.46.89-2.46 2.19 0 1.39 1.16 1.84 3.64 2.49 3.23.86 4.68 1.78 4.68 4.12 0 2.37-1.81 3.76-4.36 3.76-1.83.02-3.28-1.02-3.99-1.02zM64.89 129.35c0-3.85 3.02-6.61 5.81-6.61 2.79 0 5.78 2.7 5.78 6.55 0 3.76-2.99 6.73-5.78 6.73s-5.81-2.91-5.81-6.67zm9.1.03c0-3.44-.89-6.22-3.29-6.22s-3.29 2.73-3.29 6.16c0 3.41.83 6.28 3.29 6.28s3.29-2.81 3.29-6.22zM77.72 135.16h.21c1.3 0 1.6-.33 1.6-1.66v-8.27c0-1.33-.3-1.69-1.6-1.69h-.21v-.36l3.94-.24-.15 3.65h.06c.8-2.4 2.67-3.67 4.59-3.67 2.4 0 3.5 1.48 3.5 4.42v6.16c0 1.33.3 1.66 1.63 1.66h.06v.42h-5.72v-.42h.3c1.33 0 1.63-.33 1.63-1.66v-6.9c0-2.07-.89-2.73-2.07-2.73-2.16 0-3.79 2.16-3.79 4.8v4.83c0 1.33.3 1.66 1.6 1.66h.3v.42h-5.87v-.42zM92.29 133.05c0-2.52 2.25-3.85 7.82-5.16v-.86c0-2.84-1.13-3.82-2.9-3.82-1.6 0-2.96.68-2.96 1.22 0 .09.03.12.15.12.59 0 1.24.56 1.24 1.3 0 .77-.59 1.36-1.33 1.36-.77 0-1.33-.56-1.33-1.42 0-1.54 1.63-2.99 4.8-2.99 2.37 0 4.44.86 4.44 4.36v6.07c0 1.24.36 1.63.77 1.63.71 0 1.01-.74 1.04-2.37h.42c-.06 2.82-1.04 3.35-2.25 3.35-1.16 0-2.22-.65-2.07-2.79h-.06c-.56 1.54-2.34 2.84-4.42 2.84-1.91.01-3.36-.94-3.36-2.84zm7.83-2.55v-2.13c-4.53.92-5.36 2.49-5.36 4.18 0 1.33.71 2.31 2.07 2.31 1.45 0 3.29-1.07 3.29-4.36zM104.94 135.16h.12c1.33 0 1.63-.36 1.63-1.78v-15.91c0-1.42-.3-1.78-1.63-1.78h-.24v-.42l3.97-.44v18.55c0 1.42.3 1.78 1.6 1.78h.24v.42h-5.69v-.42zM111.55 135.16h.24c1.3 0 1.6-.33 1.6-1.66v-8.24c0-1.36-.3-1.69-1.6-1.69h-.24v-.39l3.94-.24v10.55c0 1.33.3 1.66 1.6 1.66h.24v.42h-5.78v-.41zm.98-16.95c0-.89.74-1.63 1.63-1.63.89 0 1.63.74 1.63 1.63s-.74 1.63-1.63 1.63c-.89 0-1.63-.74-1.63-1.63zM118.36 135.28l8.12-11.7h-2.67c-2.76 0-3.85 1.39-4.62 4.5h-.3l.33-4.89h9.72v.24l-8.15 11.76h3.38c3.11 0 4.09-1.84 4.62-4.77h.3l-.33 5.16h-10.4v-.3zM130.6 129.44c0-4 2.79-6.7 5.75-6.7 2.37 0 5.1 1.84 5.1 5.66 0 .09-.03.74-.06.89h-8.36c0 3.26 1.3 5.78 3.85 5.78 2.28 0 3.44-1.16 4.42-2.58l.33.24c-1.1 1.84-2.81 3.29-5.39 3.29-3.42 0-5.64-2.52-5.64-6.58zm6.87-.62c1.19 0 1.51-.39 1.51-1.33 0-2.37-.83-4.3-2.73-4.3-2.07 0-3.14 2.22-3.23 5.63h4.45zM143.1 129.38c0-3.67 2.34-6.52 5.21-6.52 1.78 0 3.17 1.24 4.09 3.05h.09c-.06-.83-.09-2.61-.09-4.47v-4.03c0-1.36-.33-1.69-1.63-1.69h-.74v-.41l4.47-.44v18.49c0 1.33.27 1.72 1.57 1.72h.24v.42l-3.91.44.12-3.32h-.09c-.98 1.81-2.22 3.26-4.24 3.26-2.45-.01-5.09-2.47-5.09-6.5zm9.3-.03c0-4.42-2.46-6.05-3.73-6.05-2.43 0-3.08 2.76-3.08 5.99 0 3.29.8 6.1 3.05 6.1 1.54 0 3.76-2.13 3.76-6.04zM16.99 160.1v-8.53h-2.02v-.36c1.9-.33 3.47-1.63 3.76-5.45h.39v5.33h4v.47h-4v8.68c0 1.87.68 2.79 2.01 2.79 1.21 0 2.19-1.33 2.31-3.94h.42c0 3.02-1.33 4.8-3.47 4.8-2.1 0-3.4-1.21-3.4-3.79zM24.54 163.09h.21c1.3 0 1.6-.33 1.6-1.66v-8.3c0-1.33-.36-1.66-1.6-1.66h-.21v-.36l3.94-.24-.21 5.01h.06c.92-3.23 2.4-5.16 4.36-5.16 1.51 0 2.37.89 2.37 1.93 0 1.16-.65 1.75-1.48 1.75-.74 0-1.33-.47-1.33-1.21 0-.65.36-.95.62-1.19.15-.12.24-.21.24-.36 0-.24-.3-.3-.65-.3-2.13 0-3.94 4.21-3.94 6.55v3.53c0 1.33.3 1.66 1.6 1.66h.68v.42h-6.25v-.41zM35.53 157.37c0-4 2.79-6.7 5.75-6.7 2.37 0 5.1 1.84 5.1 5.66 0 .09-.03.74-.06.89h-8.36c0 3.26 1.3 5.78 3.85 5.78 2.28 0 3.44-1.16 4.42-2.58l.33.24c-1.1 1.84-2.81 3.29-5.39 3.29-3.42 0-5.64-2.52-5.64-6.58zm6.88-.62c1.19 0 1.51-.39 1.51-1.33 0-2.37-.83-4.3-2.73-4.3-2.07 0-3.14 2.22-3.23 5.63h4.45zM47.97 160.99c0-2.52 2.25-3.85 7.82-5.16v-.86c0-2.84-1.13-3.82-2.9-3.82-1.6 0-2.96.68-2.96 1.22 0 .09.03.12.15.12.59 0 1.24.56 1.24 1.3 0 .77-.59 1.36-1.33 1.36-.77 0-1.33-.56-1.33-1.42 0-1.54 1.63-2.99 4.8-2.99 2.37 0 4.44.86 4.44 4.36v6.07c0 1.24.36 1.63.77 1.63.71 0 1.01-.74 1.04-2.37h.42c-.06 2.82-1.04 3.35-2.25 3.35-1.16 0-2.22-.65-2.07-2.79h-.06c-.56 1.54-2.34 2.84-4.42 2.84-1.91 0-3.36-.95-3.36-2.84zm7.83-2.55v-2.13c-4.53.92-5.36 2.49-5.36 4.18 0 1.33.71 2.31 2.07 2.31 1.45-.01 3.29-1.07 3.29-4.36zM61.93 160.1v-8.53h-2.02v-.36c1.9-.33 3.47-1.63 3.76-5.45h.39v5.33h4v.47h-4v8.68c0 1.87.68 2.79 2.01 2.79 1.22 0 2.19-1.33 2.31-3.94h.42c0 3.02-1.33 4.8-3.47 4.8-2.1 0-3.4-1.21-3.4-3.79zM69.48 163.09h.21c1.3 0 1.6-.33 1.6-1.66v-8.27c0-1.33-.3-1.69-1.6-1.69h-.21v-.36l3.94-.24-.15 3.65h.06c.77-2.31 2.58-3.67 4.5-3.67 2.25 0 3.14 1.42 3.38 3.35.92-2.07 2.55-3.35 4.42-3.35 2.4 0 3.41 1.48 3.41 4.42v6.16c0 1.33.3 1.66 1.63 1.66h.06v.42h-5.72v-.42h.3c1.33 0 1.63-.33 1.63-1.66v-6.9c0-2.07-.8-2.73-1.99-2.73-2.16 0-3.7 2.37-3.7 4.8v4.83c0 1.33.3 1.66 1.63 1.66h.27v.42h-5.93v-.42h.3c1.33 0 1.63-.33 1.63-1.66v-6.9c0-2.07-.8-2.73-1.99-2.73-2.13 0-3.7 2.28-3.7 4.8v4.83c0 1.33.3 1.66 1.6 1.66h.3v.42h-5.87v-.42zM91.73 157.37c0-4 2.79-6.7 5.75-6.7 2.37 0 5.1 1.84 5.1 5.66 0 .09-.03.74-.06.89h-8.36c0 3.26 1.3 5.78 3.85 5.78 2.28 0 3.44-1.16 4.42-2.58l.33.24c-1.1 1.84-2.81 3.29-5.39 3.29-3.42 0-5.64-2.52-5.64-6.58zm6.87-.62c1.19 0 1.51-.39 1.51-1.33 0-2.37-.83-4.3-2.73-4.3-2.07 0-3.14 2.22-3.23 5.63h4.45zM103.9 163.09h.21c1.3 0 1.6-.33 1.6-1.66v-8.27c0-1.33-.3-1.69-1.6-1.69h-.21v-.36l3.94-.24-.15 3.65h.06c.8-2.4 2.67-3.67 4.59-3.67 2.4 0 3.5 1.48 3.5 4.42v6.16c0 1.33.3 1.66 1.63 1.66h.06v.42h-5.72v-.42h.3c1.33 0 1.63-.33 1.63-1.66v-6.9c0-2.07-.89-2.73-2.07-2.73-2.16 0-3.79 2.16-3.79 4.8v4.83c0 1.33.3 1.66 1.6 1.66h.3v.42h-5.87v-.42zM119.81 160.1v-8.53h-2.02v-.36c1.9-.33 3.47-1.63 3.76-5.45h.39v5.33h4v.47h-4v8.68c0 1.87.68 2.79 2.01 2.79 1.22 0 2.19-1.33 2.31-3.94h.42c0 3.02-1.33 4.8-3.47 4.8-2.09 0-3.4-1.21-3.4-3.79zM133.94 169.14h.36c1.3 0 1.6-.33 1.6-1.69V153.2c0-1.36-.3-1.69-1.6-1.69h-.21v-.39l3.85-.24-.09 3.02h.06c.95-1.84 2.22-3.11 4.15-3.11 2.43 0 5.19 2.52 5.19 6.49 0 3.91-2.7 6.52-5.3 6.52-2.01 0-3.26-1.39-4.06-3.2h-.03s.12 1.84.12 3.7v3.14c0 1.36.3 1.69 1.6 1.69h.68v.41h-6.31v-.4zm10.82-11.8c0-3.08-.71-6.07-2.99-6.07-1.45 0-3.82 1.72-3.82 6.04 0 3.05 1.63 6.02 3.76 6.02 2.28 0 3.05-2.79 3.05-5.99zM148.49 163.09h.12c1.33 0 1.63-.36 1.63-1.78V145.4c0-1.42-.3-1.78-1.63-1.78h-.24v-.42l3.97-.44v18.55c0 1.42.3 1.78 1.6 1.78h.24v.42h-5.69v-.42zM155.3 160.99c0-2.52 2.25-3.85 7.82-5.16v-.86c0-2.84-1.13-3.82-2.9-3.82-1.6 0-2.96.68-2.96 1.22 0 .09.03.12.15.12.59 0 1.24.56 1.24 1.3 0 .77-.59 1.36-1.33 1.36-.77 0-1.33-.56-1.33-1.42 0-1.54 1.63-2.99 4.8-2.99 2.37 0 4.45.86 4.45 4.36v6.07c0 1.24.36 1.63.77 1.63.71 0 1.01-.74 1.04-2.37h.42c-.06 2.82-1.04 3.35-2.25 3.35-1.16 0-2.22-.65-2.07-2.79h-.06c-.56 1.54-2.34 2.84-4.42 2.84-1.92 0-3.37-.95-3.37-2.84zm7.83-2.55v-2.13c-4.53.92-5.36 2.49-5.36 4.18 0 1.33.71 2.31 2.07 2.31 1.45-.01 3.29-1.07 3.29-4.36zM167.95 163.09h.21c1.3 0 1.6-.33 1.6-1.66v-8.27c0-1.33-.3-1.69-1.6-1.69h-.21v-.36l3.94-.24-.15 3.65h.06c.8-2.4 2.67-3.67 4.59-3.67 2.4 0 3.5 1.48 3.5 4.42v6.16c0 1.33.3 1.66 1.63 1.66h.06v.42h-5.72v-.42h.3c1.33 0 1.63-.33 1.63-1.66v-6.9c0-2.07-.89-2.73-2.07-2.73-2.16 0-3.79 2.16-3.79 4.8v4.83c0 1.33.3 1.66 1.6 1.66h.3v.42h-5.87v-.42zM183.33 162.02c0-.95.74-1.69 1.69-1.69s1.69.74 1.69 1.69-.74 1.69-1.69 1.69-1.69-.74-1.69-1.69z"/></svg>