<svg id="Layer_1" xmlns="http://www.w3.org/2000/svg" viewBox="0 0 300 600"><style>.st0{fill:#fff}</style><path class="st0" d="M20.17 83.41h1.61c1.57 0 2.2-.42 2.2-2.1V60.55h-.91c-4.93 0-5.98 3.43-6.85 8.81h-.49l.45-9.33h18.56l.38 9.33h-.49c-.84-5.38-1.92-8.81-6.85-8.81h-.91v20.76c0 1.68.59 2.1 2.2 2.1h1.57v.52H20.17v-.52zM34.37 80.97c0-2.97 2.66-4.54 9.23-6.08v-1.01c0-3.36-1.33-4.51-3.43-4.51-1.89 0-3.5.8-3.5 1.43 0 .1.04.14.17.14.7 0 1.47.66 1.47 1.54 0 .91-.7 1.61-1.57 1.61-.91 0-1.57-.66-1.57-1.68 0-1.82 1.92-3.53 5.66-3.53 2.8 0 5.24 1.01 5.24 5.14v7.17c0 1.47.42 1.92.91 1.92.84 0 1.19-.87 1.22-2.8h.49c-.07 3.32-1.22 3.95-2.66 3.95-1.36 0-2.62-.77-2.45-3.29h-.07c-.66 1.82-2.76 3.36-5.21 3.36-2.22-.01-3.93-1.13-3.93-3.36zm9.23-3.01v-2.52c-5.35 1.08-6.33 2.94-6.33 4.93 0 1.57.84 2.73 2.45 2.73 1.71 0 3.88-1.26 3.88-5.14zM49.3 83.45h.14c1.57 0 1.92-.42 1.92-2.1V62.58c0-1.68-.35-2.1-1.92-2.1h-.28v-.49l4.68-.52v21.88c0 1.68.35 2.1 1.89 2.1h.28v.49H49.3v-.49zM57.16 83.45h.17c1.54 0 1.89-.38 1.89-1.96V62.47c0-1.61-.35-1.99-1.89-1.99h-.31v-.49l4.68-.52v18.35l5.28-5.66c.7-.73.91-1.08.91-1.54 0-.52-.63-.84-1.78-.91v-.38h6.15v.38c-2.03.21-2.52.7-3.81 1.99l-2.87 2.94c0-.04 5.07 7.13 5.07 7.13.8 1.12 1.12 1.57 2.52 1.68v.49h-6.5v-.45c1.12-.1 1.5-.42 1.5-.8 0-.21-.07-.38-.45-.94l-3.78-5.42-2.24 2.24v2.94c0 1.57.35 1.96 1.92 1.96h.21v.49h-6.68v-.51zM83.84 79.92V69.85h-2.38v-.42c2.24-.38 4.09-1.92 4.44-6.43h.45v6.29h4.72v.56h-4.72v10.24c0 2.2.8 3.29 2.38 3.29 1.43 0 2.59-1.57 2.73-4.65h.49c0 3.57-1.57 5.66-4.09 5.66-2.49 0-4.02-1.43-4.02-4.47zM93.14 76.6c0-4.54 3.57-7.8 6.85-7.8 3.29 0 6.82 3.18 6.82 7.73 0 4.44-3.53 7.94-6.82 7.94-3.29-.01-6.85-3.43-6.85-7.87zm10.73.03c0-4.06-1.05-7.34-3.88-7.34s-3.88 3.22-3.88 7.27c0 4.02.98 7.41 3.88 7.41s3.88-3.32 3.88-7.34zM116.1 88.59c0-1.08.73-1.85 1.78-1.85.84 0 1.43.73 1.43 1.47 0 .63-.24.98-.49 1.22-.21.21-.38.31-.38.59 0 .35.38.59.91.59 1.61 0 2.69-2.2 3.71-4.65l.45-1.08-5.24-12.72c-.63-1.57-1.12-2.27-2.55-2.38v-.45h7.03v.45c-1.22.1-1.78.49-1.82 1.05-.04.52.14 1.12.42 1.85l3.46 9.16 3.15-8.25c.31-.8.66-1.78.66-2.45 0-.91-.59-1.26-1.92-1.36v-.45h5.17v.45c-1.54.1-1.92.94-2.48 2.38l-5.63 13.77c-1.75 4.3-3.08 5.28-4.72 5.28-1.92 0-2.94-1.19-2.94-2.62zM131.73 76.6c0-4.54 3.57-7.8 6.85-7.8 3.29 0 6.82 3.18 6.82 7.73 0 4.44-3.53 7.94-6.82 7.94-3.28-.01-6.85-3.43-6.85-7.87zm10.73.03c0-4.06-1.05-7.34-3.88-7.34s-3.88 3.22-3.88 7.27c0 4.02.98 7.41 3.88 7.41s3.88-3.32 3.88-7.34zM148.55 79.32v-7.55c0-1.54-.35-1.99-1.89-1.99h-.31v-.45l4.68-.28v10.91c0 2.48.94 3.46 2.59 3.46 2.17 0 4.33-3.08 4.33-6.01v-5.59c0-1.61-.35-2.03-1.89-2.03h-.7v-.45l5.1-.28V81.3c0 1.57.38 2.03 1.92 2.03h.24v.45l-4.65.52.17-4.33h-.07c-.91 2.38-2.94 4.33-5.31 4.33-2.74-.01-4.21-1.62-4.21-4.98zM163.54 83.45h.25c1.54 0 1.89-.38 1.89-1.96V71.7c0-1.57-.42-1.96-1.89-1.96h-.25v-.42l4.65-.28-.24 5.91h.07c1.08-3.81 2.83-6.08 5.14-6.08 1.78 0 2.8 1.05 2.8 2.27 0 1.36-.77 2.06-1.75 2.06-.87 0-1.57-.56-1.57-1.43 0-.77.42-1.12.73-1.4.17-.14.28-.25.28-.42 0-.28-.35-.35-.77-.35-2.52 0-4.65 4.96-4.65 7.73v4.16c0 1.57.35 1.96 1.89 1.96h.8v.49h-7.38v-.49zM15.04 123.54h.42c1.54 0 1.89-.38 1.89-1.99v-16.81c0-1.61-.35-1.99-1.89-1.99h-.24v-.45l4.54-.28-.1 3.57h.07c1.12-2.17 2.62-3.67 4.89-3.67 2.87 0 6.12 2.97 6.12 7.66 0 4.61-3.18 7.69-6.26 7.69-2.38 0-3.85-1.64-4.79-3.78h-.04s.14 2.17.14 4.37v3.71c0 1.61.35 1.99 1.89 1.99h.8v.49h-7.45v-.51zm12.75-13.91c0-3.64-.84-7.17-3.53-7.17-1.71 0-4.51 2.03-4.51 7.13 0 3.6 1.92 7.1 4.44 7.1 2.7 0 3.6-3.29 3.6-7.06zM32.2 116.41h.24c1.54 0 1.89-.38 1.89-1.96v-9.79c0-1.57-.42-1.96-1.89-1.96h-.24v-.42l4.65-.28-.24 5.91h.07c1.08-3.81 2.83-6.08 5.14-6.08 1.78 0 2.8 1.05 2.8 2.27 0 1.36-.77 2.06-1.75 2.06-.87 0-1.57-.56-1.57-1.43 0-.77.42-1.12.73-1.4.17-.14.28-.25.28-.42 0-.28-.35-.35-.77-.35-2.52 0-4.65 4.96-4.65 7.73v4.16c0 1.57.35 1.96 1.89 1.96h.8v.49H32.2v-.49zM45.17 109.56c0-4.54 3.57-7.8 6.85-7.8 3.29 0 6.82 3.18 6.82 7.73 0 4.44-3.53 7.94-6.82 7.94-3.28-.01-6.85-3.43-6.85-7.87zm10.73.03c0-4.06-1.05-7.34-3.88-7.34s-3.88 3.22-3.88 7.27c0 4.02.98 7.41 3.88 7.41 2.9.01 3.88-3.32 3.88-7.34zM61.6 105.01c-.66-1.57-1.08-2.17-2.52-2.27v-.45h6.99v.45c-1.4.1-1.78.45-1.82 1.01-.04.52.14 1.19.38 1.82l3.36 8.91 3.11-8.04c.31-.84.66-1.71.66-2.38 0-.91-.59-1.22-1.92-1.33v-.45h5.03v.45c-1.43.1-1.89.91-2.45 2.27l-5.17 12.58h-.49l-5.16-12.57zM75.41 116.41h.28c1.54 0 1.89-.38 1.89-1.96v-9.72c0-1.61-.35-1.99-1.89-1.99h-.28v-.45l4.65-.28v12.44c0 1.57.35 1.96 1.89 1.96h.28v.49h-6.82v-.49zm1.15-20c0-1.05.87-1.92 1.92-1.92s1.92.87 1.92 1.92-.87 1.92-1.92 1.92-1.92-.87-1.92-1.92zM83.7 109.59c0-4.33 2.76-7.69 6.15-7.69 2.1 0 3.74 1.47 4.82 3.6h.1c-.07-.98-.1-3.08-.1-5.28v-4.75c0-1.61-.38-1.99-1.92-1.99h-.87v-.49l5.28-.52v21.81c0 1.57.31 2.03 1.85 2.03h.28v.49l-4.61.52.14-3.92h-.1c-1.15 2.13-2.62 3.85-5 3.85-2.91 0-6.02-2.9-6.02-7.66zm10.97-.03c0-5.21-2.9-7.13-4.4-7.13-2.87 0-3.64 3.25-3.64 7.06 0 3.88.94 7.2 3.6 7.2 1.82 0 4.44-2.52 4.44-7.13zM100.51 109.66c0-4.72 3.29-7.9 6.78-7.9 2.8 0 6.01 2.17 6.01 6.68 0 .1-.04.87-.07 1.05h-9.86c0 3.85 1.54 6.82 4.54 6.82 2.69 0 4.06-1.36 5.21-3.04l.38.28c-1.29 2.17-3.32 3.88-6.36 3.88-4.01-.01-6.63-2.98-6.63-7.77zm8.11-.73c1.4 0 1.78-.45 1.78-1.57 0-2.8-.98-5.07-3.22-5.07-2.45 0-3.71 2.62-3.81 6.64h5.25zM114.88 116.41h.24c1.54 0 1.89-.38 1.89-1.96v-9.79c0-1.57-.42-1.96-1.89-1.96h-.24v-.42l4.65-.28-.24 5.91h.07c1.08-3.81 2.83-6.08 5.14-6.08 1.78 0 2.8 1.05 2.8 2.27 0 1.36-.77 2.06-1.75 2.06-.87 0-1.57-.56-1.57-1.43 0-.77.42-1.12.73-1.4.17-.14.28-.25.28-.42 0-.28-.35-.35-.77-.35-2.52 0-4.65 4.96-4.65 7.73v4.16c0 1.57.35 1.96 1.89 1.96h.8v.49h-7.38v-.49zM136.31 113.93c0-2.97 2.66-4.54 9.23-6.08v-1.01c0-3.36-1.33-4.51-3.43-4.51-1.89 0-3.5.8-3.5 1.43 0 .1.04.14.17.14.7 0 1.47.66 1.47 1.54 0 .91-.7 1.61-1.57 1.61-.91 0-1.57-.66-1.57-1.68 0-1.82 1.92-3.53 5.66-3.53 2.8 0 5.24 1.01 5.24 5.14v7.17c0 1.47.42 1.92.91 1.92.84 0 1.19-.87 1.22-2.8h.49c-.07 3.32-1.22 3.95-2.66 3.95-1.36 0-2.62-.77-2.45-3.29h-.07c-.66 1.82-2.76 3.36-5.21 3.36-2.22-.01-3.93-1.12-3.93-3.36zm9.23-3.01v-2.52c-5.35 1.08-6.33 2.94-6.33 4.93 0 1.57.84 2.73 2.45 2.73 1.71 0 3.88-1.26 3.88-5.14zM152.85 110.96V95.44c0-1.61-.35-1.99-1.89-1.99h-.59v-.49l4.93-.52v7.59c0 2.69-.11 5.49-.11 5.49h.07c1.33-2.31 2.69-3.6 4.96-3.6 3.04 0 6.01 3.29 6.01 7.62 0 4.82-3.22 7.73-6.12 7.73-2.38 0-3.64-1.33-4.82-3.46h-.07l-2.38 3.74h-.45c.35-2.01.46-4.46.46-6.59zm10.45-1.37c0-3.85-.91-7.13-3.5-7.13-2.38 0-4.54 2.9-4.54 7.1 0 3.92 1.96 7.13 4.47 7.13 2.07 0 3.57-1.96 3.57-7.1zM168.09 109.56c0-4.54 3.57-7.8 6.85-7.8s6.82 3.18 6.82 7.73c0 4.44-3.53 7.94-6.82 7.94s-6.85-3.43-6.85-7.87zm10.73.03c0-4.06-1.05-7.34-3.88-7.34s-3.88 3.22-3.88 7.27c0 4.02.98 7.41 3.88 7.41s3.88-3.32 3.88-7.34zM184.91 112.29v-7.55c0-1.54-.35-1.99-1.89-1.99h-.32v-.45l4.68-.28v10.91c0 2.48.94 3.46 2.59 3.46 2.17 0 4.33-3.08 4.33-6.01v-5.59c0-1.61-.35-2.03-1.89-2.03h-.7v-.45l5.1-.28v12.24c0 1.57.38 2.03 1.92 2.03h.25v.45l-4.65.52.17-4.33h-.07c-.91 2.38-2.94 4.33-5.31 4.33-2.75-.02-4.21-1.63-4.21-4.98zM201.79 112.88v-10.07h-2.38v-.42c2.24-.38 4.09-1.92 4.44-6.43h.46v6.29h4.72v.56h-4.72v10.24c0 2.2.8 3.29 2.38 3.29 1.43 0 2.59-1.57 2.73-4.65h.49c0 3.57-1.57 5.66-4.09 5.66-2.49 0-4.03-1.43-4.03-4.47zM219.2 113.93c0-2.97 2.66-4.54 9.23-6.08v-1.01c0-3.36-1.33-4.51-3.43-4.51-1.89 0-3.5.8-3.5 1.43 0 .1.04.14.17.14.7 0 1.47.66 1.47 1.54 0 .91-.7 1.61-1.57 1.61-.91 0-1.57-.66-1.57-1.68 0-1.82 1.92-3.53 5.66-3.53 2.8 0 5.24 1.01 5.24 5.14v7.17c0 1.47.42 1.92.91 1.92.84 0 1.19-.87 1.22-2.8h.49c-.07 3.32-1.22 3.95-2.66 3.95-1.36 0-2.62-.77-2.45-3.29h-.07c-.66 1.82-2.76 3.36-5.21 3.36-2.21-.01-3.93-1.12-3.93-3.36zm9.23-3.01v-2.52c-5.35 1.08-6.33 2.94-6.33 4.93 0 1.57.84 2.73 2.45 2.73 1.71 0 3.88-1.26 3.88-5.14zM15.04 156.5h.42c1.54 0 1.89-.38 1.89-1.99V137.7c0-1.61-.35-1.99-1.89-1.99h-.24v-.45l4.54-.28-.1 3.57h.07c1.12-2.17 2.62-3.67 4.89-3.67 2.87 0 6.12 2.97 6.12 7.66 0 4.61-3.18 7.69-6.26 7.69-2.38 0-3.85-1.64-4.79-3.78h-.04s.14 2.17.14 4.37v3.71c0 1.61.35 1.99 1.89 1.99h.8v.49h-7.45v-.51zm12.75-13.91c0-3.64-.84-7.17-3.53-7.17-1.71 0-4.51 2.03-4.51 7.13 0 3.6 1.92 7.1 4.44 7.1 2.7 0 3.6-3.28 3.6-7.06zM32.58 142.63c0-4.72 3.29-7.9 6.78-7.9 2.8 0 6.01 2.17 6.01 6.68 0 .1-.04.87-.07 1.05h-9.86c0 3.85 1.54 6.82 4.54 6.82 2.69 0 4.06-1.36 5.21-3.04l.38.28c-1.29 2.17-3.32 3.88-6.36 3.88-4-.01-6.63-2.98-6.63-7.77zm8.12-.74c1.4 0 1.78-.45 1.78-1.57 0-2.8-.98-5.07-3.22-5.07-2.45 0-3.71 2.62-3.81 6.64h5.25zM46.95 149.37h.24c1.54 0 1.89-.38 1.89-1.96v-9.79c0-1.57-.42-1.96-1.89-1.96h-.24v-.42l4.65-.28-.24 5.91h.07c1.08-3.81 2.83-6.08 5.14-6.08 1.78 0 2.8 1.05 2.8 2.27 0 1.36-.77 2.06-1.75 2.06-.87 0-1.57-.56-1.57-1.43 0-.77.42-1.12.73-1.4.17-.14.28-.25.28-.42 0-.28-.35-.35-.77-.35-2.52 0-4.65 4.96-4.65 7.73v4.16c0 1.57.35 1.96 1.89 1.96h.8v.49h-7.38v-.49zM62.09 148.99c-.52 0-.98.42-1.26 1.19h-.35v-5.94h.31c.59 3.43 3.39 5.49 6.15 5.49 2.06 0 3.53-1.19 3.53-2.83 0-1.57-1.08-2.17-4.61-3.18-3.08-.87-5.21-1.68-5.21-4.72 0-2.52 1.89-4.09 4.54-4.09 2.03 0 2.94.91 4.02.91.56 0 1.01-.28 1.26-.87h.35v5.31h-.31c-.56-2.87-2.55-4.86-5.49-4.86-1.61 0-2.9 1.05-2.9 2.59 0 1.64 1.36 2.17 4.3 2.94 3.81 1.01 5.52 2.1 5.52 4.86 0 2.8-2.13 4.44-5.14 4.44-2.16-.02-3.87-1.24-4.71-1.24zM73.87 142.52c0-4.54 3.57-7.8 6.85-7.8 3.29 0 6.82 3.18 6.82 7.73 0 4.44-3.53 7.94-6.82 7.94-3.28 0-6.85-3.43-6.85-7.87zm10.73.04c0-4.06-1.05-7.34-3.88-7.34s-3.88 3.22-3.88 7.27c0 4.02.98 7.41 3.88 7.41 2.91 0 3.88-3.32 3.88-7.34zM89.01 149.37h.24c1.54 0 1.89-.38 1.89-1.96v-9.75c0-1.57-.35-1.99-1.89-1.99h-.24v-.42l4.65-.28-.17 4.3h.07c.94-2.83 3.15-4.33 5.42-4.33 2.83 0 4.12 1.75 4.12 5.21v7.27c0 1.57.35 1.96 1.92 1.96h.07v.49h-6.75v-.49h.35c1.57 0 1.92-.38 1.92-1.96v-8.15c0-2.45-1.05-3.22-2.45-3.22-2.55 0-4.47 2.55-4.47 5.66v5.7c0 1.57.35 1.96 1.89 1.96h.35v.49h-6.92v-.49zM106.21 146.89c0-2.97 2.66-4.54 9.23-6.08v-1.01c0-3.36-1.33-4.51-3.43-4.51-1.89 0-3.5.8-3.5 1.43 0 .1.04.14.17.14.7 0 1.47.66 1.47 1.54 0 .91-.7 1.61-1.57 1.61-.91 0-1.57-.66-1.57-1.68 0-1.82 1.92-3.53 5.66-3.53 2.8 0 5.24 1.01 5.24 5.14v7.17c0 1.47.42 1.92.91 1.92.84 0 1.19-.87 1.22-2.8h.49c-.07 3.32-1.22 3.95-2.66 3.95-1.36 0-2.62-.77-2.45-3.29h-.07c-.66 1.82-2.76 3.36-5.21 3.36-2.22 0-3.93-1.12-3.93-3.36zm9.23-3.01v-2.52c-5.35 1.08-6.33 2.94-6.33 4.93 0 1.57.84 2.73 2.45 2.73 1.71 0 3.88-1.25 3.88-5.14zM121.14 149.37h.14c1.57 0 1.92-.42 1.92-2.1V128.5c0-1.68-.35-2.1-1.92-2.1H121v-.49l4.68-.52v21.88c0 1.68.35 2.1 1.89 2.1h.28v.49h-6.71v-.49zM128.94 149.37h.28c1.54 0 1.89-.38 1.89-1.96v-9.72c0-1.61-.35-1.99-1.89-1.99h-.28v-.45l4.65-.28v12.44c0 1.57.35 1.96 1.89 1.96h.28v.49h-6.82v-.49zm1.15-19.99c0-1.05.87-1.92 1.92-1.92s1.92.87 1.92 1.92-.87 1.92-1.92 1.92-1.92-.87-1.92-1.92zM136.98 149.51l9.58-13.81h-3.15c-3.25 0-4.54 1.64-5.45 5.31h-.35l.38-5.77h11.47v.28l-9.61 13.88h3.98c3.67 0 4.82-2.17 5.45-5.63h.35l-.38 6.08h-12.27v-.34zM151.41 142.63c0-4.72 3.29-7.9 6.78-7.9 2.8 0 6.01 2.17 6.01 6.68 0 .1-.04.87-.07 1.05h-9.86c0 3.85 1.54 6.82 4.54 6.82 2.69 0 4.05-1.36 5.21-3.04l.38.28c-1.29 2.17-3.32 3.88-6.36 3.88-4-.01-6.63-2.98-6.63-7.77zm8.11-.74c1.4 0 1.78-.45 1.78-1.57 0-2.8-.98-5.07-3.22-5.07-2.45 0-3.71 2.62-3.81 6.64h5.25zM166.17 142.56c0-4.33 2.76-7.69 6.15-7.69 2.1 0 3.74 1.47 4.82 3.6h.11c-.07-.98-.11-3.08-.11-5.28v-4.75c0-1.61-.38-1.99-1.92-1.99h-.87v-.49l5.28-.52v21.81c0 1.57.31 2.03 1.85 2.03h.28v.49l-4.62.52.14-3.92h-.11c-1.15 2.13-2.62 3.85-5 3.85-2.89-.01-6-2.91-6-7.66zm10.97-.04c0-5.21-2.9-7.13-4.4-7.13-2.87 0-3.64 3.25-3.64 7.06 0 3.88.94 7.2 3.6 7.2 1.82 0 4.44-2.51 4.44-7.13zM17.34 178.81v-10.07h-2.38v-.42c2.24-.38 4.09-1.92 4.44-6.43h.45v6.29h4.72v.56h-4.72v10.24c0 2.2.8 3.29 2.38 3.29 1.43 0 2.59-1.57 2.73-4.65h.49c0 3.57-1.57 5.66-4.09 5.66-2.48 0-4.02-1.43-4.02-4.47zM26.26 182.34h.24c1.54 0 1.89-.38 1.89-1.96v-9.79c0-1.57-.42-1.96-1.89-1.96h-.24v-.42l4.65-.28-.24 5.91h.07c1.08-3.81 2.83-6.08 5.14-6.08 1.78 0 2.8 1.05 2.8 2.27 0 1.36-.77 2.06-1.75 2.06-.87 0-1.57-.56-1.57-1.43 0-.77.42-1.12.73-1.4.17-.14.28-.25.28-.42 0-.28-.35-.35-.77-.35-2.52 0-4.65 4.96-4.65 7.73v4.16c0 1.57.35 1.96 1.89 1.96h.8v.49h-7.38v-.49zM39.23 175.59c0-4.72 3.29-7.9 6.78-7.9 2.8 0 6.01 2.17 6.01 6.68 0 .1-.04.87-.07 1.05h-9.86c0 3.85 1.54 6.82 4.54 6.82 2.69 0 4.06-1.36 5.21-3.04l.38.28c-1.29 2.17-3.32 3.88-6.36 3.88-4.01-.01-6.63-2.98-6.63-7.77zm8.11-.73c1.4 0 1.78-.45 1.78-1.57 0-2.8-.98-5.07-3.22-5.07-2.45 0-3.71 2.62-3.81 6.64h5.25zM53.91 179.85c0-2.97 2.66-4.54 9.23-6.08v-1.01c0-3.36-1.33-4.51-3.43-4.51-1.89 0-3.5.8-3.5 1.43 0 .1.04.14.17.14.7 0 1.47.66 1.47 1.54 0 .91-.7 1.61-1.57 1.61-.91 0-1.57-.66-1.57-1.68 0-1.82 1.92-3.53 5.66-3.53 2.8 0 5.24 1.01 5.24 5.14v7.17c0 1.47.42 1.92.91 1.92.84 0 1.19-.87 1.22-2.8h.49c-.07 3.32-1.22 3.95-2.66 3.95-1.36 0-2.62-.77-2.45-3.29h-.07c-.66 1.82-2.76 3.36-5.21 3.36-2.22 0-3.93-1.12-3.93-3.36zm9.23-3v-2.52c-5.35 1.08-6.33 2.94-6.33 4.93 0 1.57.84 2.73 2.45 2.73 1.71 0 3.88-1.26 3.88-5.14zM70.38 178.81v-10.07H68v-.42c2.24-.38 4.09-1.92 4.44-6.43h.45v6.29h4.72v.56h-4.72v10.24c0 2.2.8 3.29 2.38 3.29 1.43 0 2.59-1.57 2.73-4.65h.49c0 3.57-1.57 5.66-4.09 5.66-2.49 0-4.02-1.43-4.02-4.47zM79.29 182.34h.24c1.54 0 1.89-.38 1.89-1.96v-9.75c0-1.57-.35-1.99-1.89-1.99h-.24v-.42l4.65-.28-.17 4.3h.07c.91-2.73 3.04-4.33 5.31-4.33 2.66 0 3.71 1.68 3.99 3.95 1.08-2.45 3.01-3.95 5.21-3.95 2.83 0 4.02 1.75 4.02 5.21v7.27c0 1.57.35 1.96 1.92 1.96h.07v.49h-6.75v-.49h.35c1.57 0 1.92-.38 1.92-1.96v-8.15c0-2.45-.94-3.22-2.34-3.22-2.55 0-4.37 2.8-4.37 5.66v5.7c0 1.57.35 1.96 1.92 1.96h.31v.49h-6.99v-.49h.35c1.57 0 1.92-.38 1.92-1.96v-8.15c0-2.45-.94-3.22-2.34-3.22-2.52 0-4.37 2.69-4.37 5.66v5.7c0 1.57.35 1.96 1.89 1.96h.35v.49h-6.92v-.48zM105.55 175.59c0-4.72 3.29-7.9 6.78-7.9 2.8 0 6.01 2.17 6.01 6.68 0 .1-.04.87-.07 1.05h-9.86c0 3.85 1.54 6.82 4.54 6.82 2.69 0 4.06-1.36 5.21-3.04l.38.28c-1.29 2.17-3.32 3.88-6.36 3.88-4.01-.01-6.63-2.98-6.63-7.77zm8.11-.73c1.4 0 1.78-.45 1.78-1.57 0-2.8-.98-5.07-3.22-5.07-2.45 0-3.71 2.62-3.81 6.64h5.25zM119.91 182.34h.24c1.54 0 1.89-.38 1.89-1.96v-9.75c0-1.57-.35-1.99-1.89-1.99h-.24v-.42l4.65-.28-.17 4.3h.07c.94-2.83 3.15-4.33 5.42-4.33 2.83 0 4.12 1.75 4.12 5.21v7.27c0 1.57.35 1.96 1.92 1.96h.07v.49h-6.75v-.49h.35c1.57 0 1.92-.38 1.92-1.96v-8.15c0-2.45-1.05-3.22-2.45-3.22-2.55 0-4.47 2.55-4.47 5.66v5.7c0 1.57.35 1.96 1.89 1.96h.35v.49h-6.92v-.49zM138.69 178.81v-10.07h-2.38v-.42c2.24-.38 4.09-1.92 4.44-6.43h.45v6.29h4.72v.56h-4.72v10.24c0 2.2.8 3.29 2.38 3.29 1.43 0 2.59-1.57 2.73-4.65h.49c0 3.57-1.57 5.66-4.09 5.66-2.48 0-4.02-1.43-4.02-4.47zM155.36 189.47h.42c1.54 0 1.89-.38 1.89-1.99v-16.81c0-1.61-.35-1.99-1.89-1.99h-.24v-.45l4.54-.28-.1 3.57h.07c1.12-2.17 2.62-3.67 4.89-3.67 2.87 0 6.12 2.97 6.12 7.66 0 4.61-3.18 7.69-6.26 7.69-2.38 0-3.85-1.64-4.79-3.78h-.04s.14 2.17.14 4.37v3.71c0 1.61.35 1.99 1.89 1.99h.8v.49h-7.45v-.51zm12.76-13.92c0-3.64-.84-7.17-3.53-7.17-1.71 0-4.51 2.03-4.51 7.13 0 3.6 1.92 7.1 4.44 7.1 2.69.01 3.6-3.28 3.6-7.06zM172.53 182.34h.14c1.57 0 1.92-.42 1.92-2.1v-18.77c0-1.68-.35-2.1-1.92-2.1h-.28v-.49l4.68-.52v21.88c0 1.68.35 2.1 1.89 2.1h.28v.49h-6.71v-.49zM180.57 179.85c0-2.97 2.66-4.54 9.23-6.08v-1.01c0-3.36-1.33-4.51-3.43-4.51-1.89 0-3.5.8-3.5 1.43 0 .1.04.14.17.14.7 0 1.47.66 1.47 1.54 0 .91-.7 1.61-1.57 1.61-.91 0-1.57-.66-1.57-1.68 0-1.82 1.92-3.53 5.66-3.53 2.8 0 5.24 1.01 5.24 5.14v7.17c0 1.47.42 1.92.91 1.92.84 0 1.19-.87 1.22-2.8h.49c-.07 3.32-1.22 3.95-2.66 3.95-1.36 0-2.62-.77-2.45-3.29h-.07c-.66 1.82-2.76 3.36-5.21 3.36-2.22 0-3.93-1.12-3.93-3.36zm9.23-3v-2.52c-5.35 1.08-6.33 2.94-6.33 4.93 0 1.57.84 2.73 2.45 2.73 1.71 0 3.88-1.26 3.88-5.14zM195.5 182.34h.25c1.54 0 1.89-.38 1.89-1.96v-9.75c0-1.57-.35-1.99-1.89-1.99h-.25v-.42l4.65-.28-.17 4.3h.07c.94-2.83 3.15-4.33 5.42-4.33 2.83 0 4.12 1.75 4.12 5.21v7.27c0 1.57.35 1.96 1.92 1.96h.07v.49h-6.75v-.49h.35c1.57 0 1.92-.38 1.92-1.96v-8.15c0-2.45-1.05-3.22-2.45-3.22-2.55 0-4.47 2.55-4.47 5.66v5.7c0 1.57.35 1.96 1.89 1.96h.35v.49h-6.92v-.49zM213.64 181.08c0-1.12.87-1.99 1.99-1.99s1.99.87 1.99 1.99-.87 1.99-1.99 1.99-1.99-.87-1.99-1.99z"/></svg>