<svg id="Layer_1" xmlns="http://www.w3.org/2000/svg" viewBox="0 0 300 600"><style>.st0{fill:#fff}</style><path class="st0" d="M16.75 80.34c0-1.15.7-2.1 1.82-2.1s1.82.8 1.82 1.89c0 .73-.35 1.19-.87 1.57-.28.21-.56.35-.56.56-.04.73 1.22 1.08 2.2 1.08 4.76 0 5.84-5.49 5.67-11.89-.98 1.85-2.69 3.01-4.51 3.01-3.67 0-6.16-2.48-6.16-6.82 0-4.48 3.15-7.42 6.75-7.42 4.37 0 7 4.09 7 10.74 0 7.28-3.67 12.91-8.71 12.91-2.91 0-4.45-1.89-4.45-3.53zm10.11-12.91c0-3.43-1.12-6.75-3.88-6.75-2.73 0-3.71 3.43-3.71 6.86 0 3.74.94 6.33 3.53 6.33 2.38 0 4.06-3.01 4.06-6.44zM40.46 76.07c0-4.55 3.57-7.8 6.86-7.8 3.29 0 6.82 3.18 6.82 7.73 0 4.44-3.53 7.94-6.82 7.94-3.29 0-6.86-3.43-6.86-7.87zm10.74.04c0-4.06-1.05-7.35-3.88-7.35s-3.88 3.22-3.88 7.28c0 4.02.98 7.42 3.88 7.42 2.9-.01 3.88-3.33 3.88-7.35zM57.29 78.8v-7.56c0-1.54-.35-1.99-1.89-1.99h-.31v-.45l4.69-.28v10.91c0 2.48.94 3.46 2.59 3.46 2.17 0 4.34-3.08 4.34-6.02v-5.6c0-1.61-.35-2.03-1.89-2.03h-.7v-.45l5.11-.28v12.24c0 1.57.38 2.03 1.92 2.03h.24v.45l-4.65.52.17-4.34h-.07c-.91 2.38-2.94 4.34-5.32 4.34-2.77.02-4.23-1.59-4.23-4.95zM74.18 79.39V69.32H71.8v-.42c2.24-.38 4.09-1.92 4.44-6.44h.45v6.3h4.72v.56H76.7v10.25c0 2.2.8 3.29 2.38 3.29 1.43 0 2.59-1.57 2.73-4.65h.49c0 3.57-1.57 5.67-4.09 5.67-2.49-.01-4.03-1.44-4.03-4.49zM91.67 76.07c0-4.55 3.57-7.8 6.86-7.8 3.29 0 6.82 3.18 6.82 7.73 0 4.44-3.53 7.94-6.82 7.94-3.3 0-6.86-3.43-6.86-7.87zm10.73.04c0-4.06-1.05-7.35-3.88-7.35s-3.88 3.22-3.88 7.28c0 4.02.98 7.42 3.88 7.42 2.91-.01 3.88-3.33 3.88-7.35zM107.23 82.93h.28c1.54 0 1.89-.38 1.89-1.96V69.32h-2.17v-.52h2.17v-2.41c0-3.99 1.89-7.38 5.67-7.38 2.1 0 3.25 1.19 3.25 2.69 0 1.15-.77 1.82-1.71 1.82s-1.54-.59-1.54-1.5c0-.59.28-1.01.56-1.29.21-.21.38-.38.38-.59 0-.35-.49-.7-1.15-.7-2.38 0-2.94 2.52-2.94 5.98v3.39h3.57v.52h-3.57v11.65c0 1.57.35 1.96 1.89 1.96h.66v.49h-7.24v-.5zM125.38 82.89h1.29c1.5 0 2.1-.42 2.1-1.99V65.16c0-1.57-.59-1.99-2.1-1.99h-1.29v-.52c3.81-.28 5.18-1.33 5.77-2.55h.42v20.8c0 1.57.56 1.99 2.06 1.99h1.01v.52h-9.27v-.52zM136.85 72.08c0-7.21 3.81-11.86 7.73-11.86 3.92 0 7.59 4.65 7.59 11.86 0 7.21-3.81 11.89-7.7 11.89-3.91.01-7.62-4.68-7.62-11.89zm12.07 0c0-7.52-1.54-11.37-4.44-11.37-2.97 0-4.37 3.85-4.37 11.37s1.54 11.4 4.48 11.4c2.93.01 4.33-3.88 4.33-11.4zM15 123.04h.42c1.54 0 1.89-.38 1.89-1.99v-16.83c0-1.61-.35-1.99-1.89-1.99h-.24v-.45l4.55-.28-.1 3.57h.07c1.12-2.17 2.62-3.67 4.9-3.67 2.87 0 6.12 2.97 6.12 7.66 0 4.62-3.18 7.7-6.26 7.7-2.38 0-3.85-1.64-4.79-3.78h-.03s.14 2.17.14 4.37v3.71c0 1.61.35 1.99 1.89 1.99h.8v.49H15v-.5zm12.77-13.92c0-3.64-.84-7.17-3.53-7.17-1.71 0-4.51 2.03-4.51 7.14 0 3.6 1.92 7.1 4.44 7.1 2.69-.01 3.6-3.29 3.6-7.07zM32.49 113.42c0-2.97 2.66-4.55 9.23-6.09v-1.01c0-3.36-1.33-4.51-3.43-4.51-1.89 0-3.5.8-3.5 1.43 0 .1.03.14.17.14.7 0 1.47.66 1.47 1.54 0 .91-.7 1.61-1.57 1.61-.91 0-1.57-.66-1.57-1.68 0-1.82 1.92-3.53 5.67-3.53 2.8 0 5.25 1.01 5.25 5.14v7.17c0 1.47.42 1.92.91 1.92.84 0 1.19-.87 1.22-2.8h.49c-.07 3.32-1.22 3.95-2.66 3.95-1.36 0-2.62-.77-2.45-3.29h-.07c-.66 1.82-2.76 3.36-5.21 3.36-2.24.01-3.95-1.11-3.95-3.35zm9.23-3.01v-2.52c-5.35 1.08-6.33 2.94-6.33 4.93 0 1.57.84 2.73 2.45 2.73 1.71 0 3.88-1.26 3.88-5.14zM48.96 112.37V102.3h-2.38v-.42c2.24-.38 4.09-1.92 4.44-6.44h.45v6.3h4.72v.56h-4.72v10.25c0 2.2.8 3.29 2.38 3.29 1.43 0 2.59-1.57 2.73-4.65h.49c0 3.57-1.57 5.67-4.09 5.67-2.48-.01-4.02-1.45-4.02-4.49zM57.95 115.9h.28c1.54 0 1.89-.38 1.89-1.96v-9.72c0-1.61-.35-1.99-1.89-1.99h-.28v-.45l4.65-.28v12.45c0 1.57.35 1.96 1.89 1.96h.28v.49h-6.82v-.5zm1.15-20c0-1.05.87-1.92 1.92-1.92 1.05 0 1.92.87 1.92 1.92s-.87 1.92-1.92 1.92c-1.04 0-1.92-.88-1.92-1.92zM66.24 109.15c0-4.72 3.29-7.91 6.79-7.91 2.8 0 6.02 2.17 6.02 6.68 0 .1-.04.87-.07 1.05h-9.86c0 3.85 1.54 6.82 4.55 6.82 2.69 0 4.06-1.36 5.21-3.04l.38.28c-1.29 2.17-3.32 3.88-6.37 3.88-4.03.01-6.65-2.97-6.65-7.76zm8.11-.73c1.4 0 1.78-.45 1.78-1.57 0-2.8-.98-5.07-3.22-5.07-2.45 0-3.71 2.62-3.81 6.65h5.25zM80.61 115.9h.24c1.54 0 1.89-.38 1.89-1.96v-9.76c0-1.57-.35-1.99-1.89-1.99h-.24v-.42l4.65-.28-.18 4.3h.07c.94-2.83 3.15-4.34 5.42-4.34 2.83 0 4.13 1.75 4.13 5.21v7.28c0 1.57.35 1.96 1.92 1.96h.07v.49h-6.75v-.49h.35c1.57 0 1.92-.38 1.92-1.96v-8.15c0-2.45-1.05-3.22-2.45-3.22-2.55 0-4.48 2.55-4.48 5.67v5.7c0 1.57.35 1.96 1.89 1.96h.35v.49h-6.93v-.49zM99.4 112.37V102.3h-2.38v-.42c2.24-.38 4.09-1.92 4.44-6.44h.45v6.3h4.72v.56h-4.72v10.25c0 2.2.8 3.29 2.38 3.29 1.43 0 2.59-1.57 2.73-4.65h.49c0 3.57-1.57 5.67-4.09 5.67-2.48-.01-4.02-1.45-4.02-4.49zM110.87 115.52c-.52 0-.98.42-1.26 1.19h-.35v-5.95h.31c.59 3.43 3.39 5.49 6.16 5.49 2.06 0 3.53-1.19 3.53-2.83 0-1.57-1.08-2.17-4.62-3.18-3.08-.87-5.21-1.68-5.21-4.72 0-2.52 1.89-4.09 4.55-4.09 2.03 0 2.94.91 4.02.91.56 0 1.01-.28 1.26-.87h.35v5.32h-.31c-.56-2.87-2.55-4.86-5.49-4.86-1.61 0-2.9 1.05-2.9 2.59 0 1.64 1.36 2.17 4.3 2.94 3.81 1.01 5.53 2.1 5.53 4.86 0 2.8-2.13 4.44-5.14 4.44-2.18-.02-3.89-1.24-4.73-1.24zM130.45 115.9h.24c1.54 0 1.89-.38 1.89-1.96v-9.79c0-1.57-.42-1.96-1.89-1.96h-.24v-.42l4.65-.28-.24 5.91h.07c1.08-3.81 2.83-6.09 5.14-6.09 1.78 0 2.8 1.05 2.8 2.27 0 1.36-.77 2.06-1.75 2.06-.87 0-1.57-.56-1.57-1.43 0-.77.42-1.12.73-1.4.17-.14.28-.24.28-.42 0-.28-.35-.35-.77-.35-2.52 0-4.65 4.97-4.65 7.73v4.16c0 1.57.35 1.96 1.89 1.96h.8v.49h-7.38v-.48zM143.43 109.15c0-4.72 3.29-7.91 6.79-7.91 2.8 0 6.02 2.17 6.02 6.68 0 .1-.03.87-.07 1.05h-9.86c0 3.85 1.54 6.82 4.55 6.82 2.69 0 4.06-1.36 5.21-3.04l.38.28c-1.29 2.17-3.32 3.88-6.37 3.88-4.03.01-6.65-2.97-6.65-7.76zm8.12-.73c1.4 0 1.78-.45 1.78-1.57 0-2.8-.98-5.07-3.22-5.07-2.45 0-3.71 2.62-3.81 6.65h5.25zM157.38 123.04h.42c1.54 0 1.89-.38 1.89-1.99v-16.83c0-1.61-.35-1.99-1.89-1.99h-.24v-.45l4.55-.28-.1 3.57h.07c1.12-2.17 2.62-3.67 4.9-3.67 2.87 0 6.12 2.97 6.12 7.66 0 4.62-3.18 7.7-6.26 7.7-2.38 0-3.85-1.64-4.79-3.78H162s.14 2.17.14 4.37v3.71c0 1.61.35 1.99 1.89 1.99h.8v.49h-7.45v-.5zm12.77-13.92c0-3.64-.84-7.17-3.53-7.17-1.71 0-4.51 2.03-4.51 7.14 0 3.6 1.92 7.1 4.44 7.1 2.69-.01 3.6-3.29 3.6-7.07zM174.94 109.05c0-4.55 3.57-7.8 6.86-7.8 3.29 0 6.82 3.18 6.82 7.73 0 4.44-3.53 7.94-6.82 7.94-3.29 0-6.86-3.43-6.86-7.87zm10.74.03c0-4.06-1.05-7.35-3.88-7.35s-3.88 3.22-3.88 7.28c0 4.02.98 7.42 3.88 7.42s3.88-3.32 3.88-7.35zM190.09 115.9h.24c1.54 0 1.89-.38 1.89-1.96v-9.79c0-1.57-.42-1.96-1.89-1.96h-.24v-.42l4.65-.28-.24 5.91h.07c1.08-3.81 2.83-6.09 5.14-6.09 1.78 0 2.8 1.05 2.8 2.27 0 1.36-.77 2.06-1.75 2.06-.87 0-1.57-.56-1.57-1.43 0-.77.42-1.12.73-1.4.18-.14.28-.24.28-.42 0-.28-.35-.35-.77-.35-2.52 0-4.65 4.97-4.65 7.73v4.16c0 1.57.35 1.96 1.89 1.96h.8v.49h-7.38v-.48zM205.34 112.37V102.3h-2.38v-.42c2.24-.38 4.09-1.92 4.44-6.44h.45v6.3h4.72v.56h-4.72v10.25c0 2.2.8 3.29 2.38 3.29 1.43 0 2.59-1.57 2.73-4.65h.49c0 3.57-1.57 5.67-4.09 5.67-2.48-.01-4.02-1.45-4.02-4.49zM214.64 109.15c0-4.72 3.29-7.91 6.79-7.91 2.8 0 6.02 2.17 6.02 6.68 0 .1-.04.87-.07 1.05h-9.86c0 3.85 1.54 6.82 4.55 6.82 2.69 0 4.06-1.36 5.21-3.04l.38.28c-1.29 2.17-3.32 3.88-6.37 3.88-4.03.01-6.65-2.97-6.65-7.76zm8.11-.73c1.4 0 1.78-.45 1.78-1.57 0-2.8-.98-5.07-3.22-5.07-2.45 0-3.71 2.62-3.81 6.65h5.25zM229.4 109.08c0-4.34 2.76-7.7 6.16-7.7 2.1 0 3.74 1.47 4.83 3.6h.1c-.07-.98-.1-3.08-.1-5.28v-4.76c0-1.61-.38-1.99-1.92-1.99h-.87v-.49l5.28-.52v21.83c0 1.57.31 2.03 1.85 2.03h.27v.49l-4.62.52.14-3.92h-.1c-1.15 2.13-2.62 3.85-5 3.85-2.91 0-6.02-2.9-6.02-7.66zm10.98-.03c0-5.21-2.9-7.14-4.41-7.14-2.87 0-3.64 3.25-3.64 7.07 0 3.88.94 7.21 3.6 7.21 1.83-.01 4.45-2.52 4.45-7.14zM15.42 148.88h.24c1.54 0 1.89-.38 1.89-1.96v-9.76c0-1.57-.35-1.99-1.89-1.99h-.24v-.42l4.65-.28-.17 4.3h.07c.94-2.83 3.15-4.34 5.42-4.34 2.83 0 4.13 1.75 4.13 5.21v7.28c0 1.57.35 1.96 1.92 1.96h.07v.49h-6.75v-.49h.35c1.57 0 1.92-.38 1.92-1.96v-8.15c0-2.45-1.05-3.22-2.45-3.22-2.55 0-4.48 2.55-4.48 5.67v5.7c0 1.57.35 1.96 1.89 1.96h.35v.49h-6.93v-.49zM32.7 142.03c0-4.55 3.57-7.8 6.86-7.8 3.29 0 6.82 3.18 6.82 7.73 0 4.44-3.53 7.94-6.82 7.94-3.29 0-6.86-3.43-6.86-7.87zm10.74.03c0-4.06-1.05-7.35-3.88-7.35s-3.88 3.22-3.88 7.28c0 4.02.98 7.42 3.88 7.42s3.88-3.33 3.88-7.35zM49.73 145.35v-10.07h-2.38v-.42c2.24-.38 4.09-1.92 4.44-6.44h.45v6.3h4.72v.56h-4.72v10.25c0 2.2.8 3.29 2.38 3.29 1.43 0 2.59-1.57 2.73-4.65h.49c0 3.57-1.57 5.67-4.09 5.67-2.48-.01-4.02-1.45-4.02-4.49zM58.72 148.88H59c1.54 0 1.89-.38 1.89-1.96v-9.72c0-1.61-.35-1.99-1.89-1.99h-.28v-.45l4.65-.28v12.45c0 1.57.35 1.96 1.89 1.96h.28v.49h-6.82v-.5zm1.15-20.01c0-1.05.87-1.92 1.92-1.92 1.05 0 1.92.87 1.92 1.92 0 1.05-.87 1.92-1.92 1.92-1.04.01-1.92-.87-1.92-1.92zM67.01 142.13c0-4.3 3.46-7.91 7.56-7.91 2.73 0 4.72 1.89 4.72 3.92 0 1.19-.77 1.92-1.75 1.92-.94 0-1.61-.8-1.61-1.64 0-.73.45-1.4 1.26-1.61.42-.1.73.07.73-.21 0-.63-1.22-1.82-3.43-1.82-3.15 0-4.44 2.97-4.44 7.17 0 3.85 1.54 6.75 4.72 6.75 2.1 0 3.5-1.12 4.55-2.52l.35.24c-1.19 1.99-3.36 3.46-6.05 3.46-3.5.02-6.61-2.99-6.61-7.75zM80.86 142.13c0-4.72 3.29-7.91 6.79-7.91 2.8 0 6.02 2.17 6.02 6.68 0 .1-.04.87-.07 1.05h-9.86c0 3.85 1.54 6.82 4.55 6.82 2.69 0 4.06-1.36 5.21-3.04l.38.28c-1.29 2.17-3.32 3.88-6.37 3.88-4.03.01-6.65-2.97-6.65-7.76zm8.11-.73c1.4 0 1.78-.45 1.78-1.57 0-2.8-.98-5.07-3.22-5.07-2.45 0-3.71 2.62-3.81 6.65h5.25zM95.55 146.4c0-2.97 2.66-4.55 9.23-6.09v-1.01c0-3.36-1.33-4.51-3.43-4.51-1.89 0-3.5.8-3.5 1.43 0 .1.03.14.17.14.7 0 1.47.66 1.47 1.54 0 .91-.7 1.61-1.57 1.61-.91 0-1.57-.66-1.57-1.68 0-1.82 1.92-3.53 5.67-3.53 2.8 0 5.25 1.01 5.25 5.14v7.17c0 1.47.42 1.92.91 1.92.84 0 1.19-.87 1.22-2.8h.49c-.07 3.32-1.22 3.95-2.66 3.95-1.36 0-2.62-.77-2.45-3.29h-.07c-.66 1.82-2.76 3.36-5.21 3.36-2.24.01-3.95-1.11-3.95-3.35zm9.23-3.01v-2.52c-5.35 1.08-6.33 2.94-6.33 4.93 0 1.57.84 2.73 2.45 2.73 1.71 0 3.88-1.26 3.88-5.14zM112.09 143.42v-15.53c0-1.61-.35-1.99-1.89-1.99h-.59v-.49l4.93-.52v7.59c0 2.69-.1 5.49-.1 5.49h.07c1.33-2.31 2.69-3.6 4.97-3.6 3.04 0 6.02 3.29 6.02 7.63 0 4.83-3.22 7.73-6.12 7.73-2.38 0-3.64-1.33-4.83-3.46h-.07l-2.38 3.74h-.45c.34-2 .44-4.45.44-6.59zm10.46-1.36c0-3.85-.91-7.14-3.5-7.14-2.38 0-4.55 2.9-4.55 7.1 0 3.92 1.96 7.14 4.48 7.14 2.07 0 3.57-1.96 3.57-7.1zM126.96 148.88h.14c1.57 0 1.92-.42 1.92-2.1V128c0-1.68-.35-2.1-1.92-2.1h-.28v-.49l4.69-.52v21.9c0 1.68.35 2.1 1.89 2.1h.28v.49h-6.72v-.5zM135.07 142.13c0-4.72 3.29-7.91 6.79-7.91 2.8 0 6.02 2.17 6.02 6.68 0 .1-.03.87-.07 1.05h-9.86c0 3.85 1.54 6.82 4.55 6.82 2.69 0 4.06-1.36 5.21-3.04l.38.28c-1.29 2.17-3.32 3.88-6.37 3.88-4.03.01-6.65-2.97-6.65-7.76zm8.12-.73c1.4 0 1.78-.45 1.78-1.57 0-2.8-.98-5.07-3.22-5.07-2.45 0-3.71 2.62-3.81 6.65h5.25zM158.05 148.88h.28c1.54 0 1.89-.38 1.89-1.96v-11.65h-2.17v-.52h2.17v-2.41c0-3.99 1.89-7.38 5.67-7.38 2.1 0 3.25 1.19 3.25 2.69 0 1.15-.77 1.82-1.71 1.82s-1.54-.59-1.54-1.5c0-.59.28-1.01.56-1.29.21-.21.38-.38.38-.59 0-.35-.49-.7-1.15-.7-2.38 0-2.94 2.52-2.94 5.98v3.39h3.57v.52h-3.57v11.65c0 1.57.35 1.96 1.89 1.96h.66v.49h-7.24v-.5zM167.28 146.4c0-2.97 2.66-4.55 9.23-6.09v-1.01c0-3.36-1.33-4.51-3.43-4.51-1.89 0-3.5.8-3.5 1.43 0 .1.03.14.17.14.7 0 1.47.66 1.47 1.54 0 .91-.7 1.61-1.57 1.61-.91 0-1.57-.66-1.57-1.68 0-1.82 1.92-3.53 5.67-3.53 2.8 0 5.25 1.01 5.25 5.14v7.17c0 1.47.42 1.92.91 1.92.84 0 1.19-.87 1.22-2.8h.49c-.07 3.32-1.22 3.95-2.66 3.95-1.36 0-2.62-.77-2.45-3.29h-.07c-.66 1.82-2.76 3.36-5.21 3.36-2.23.01-3.95-1.11-3.95-3.35zm9.24-3.01v-2.52c-5.35 1.08-6.33 2.94-6.33 4.93 0 1.57.84 2.73 2.45 2.73 1.71 0 3.88-1.26 3.88-5.14zM183.76 145.35v-10.07h-2.38v-.42c2.24-.38 4.09-1.92 4.44-6.44h.45v6.3H191v.56h-4.72v10.25c0 2.2.8 3.29 2.38 3.29 1.43 0 2.59-1.57 2.73-4.65h.49c0 3.57-1.57 5.67-4.09 5.67-2.49-.01-4.03-1.45-4.03-4.49zM15.42 181.86h.24c1.54 0 1.89-.38 1.89-1.96v-9.79c0-1.57-.42-1.96-1.89-1.96h-.24v-.42l4.65-.28-.24 5.91h.07c1.08-3.81 2.83-6.09 5.14-6.09 1.78 0 2.8 1.05 2.8 2.27 0 1.36-.77 2.06-1.75 2.06-.87 0-1.57-.56-1.57-1.43 0-.77.42-1.12.73-1.4.17-.14.28-.24.28-.42 0-.28-.35-.35-.77-.35-2.52 0-4.65 4.97-4.65 7.73v4.16c0 1.57.35 1.96 1.89 1.96h.8v.49h-7.38v-.48zM28.4 175.11c0-4.72 3.29-7.91 6.79-7.91 2.8 0 6.02 2.17 6.02 6.68 0 .1-.03.87-.07 1.05h-9.86c0 3.85 1.54 6.82 4.55 6.82 2.69 0 4.06-1.36 5.21-3.04l.38.28c-1.29 2.17-3.32 3.88-6.37 3.88-4.03 0-6.65-2.97-6.65-7.76zm8.11-.74c1.4 0 1.78-.45 1.78-1.57 0-2.8-.98-5.07-3.22-5.07-2.45 0-3.71 2.62-3.81 6.65h5.25zM43.16 175.04c0-4.34 2.76-7.7 6.16-7.7 2.1 0 3.74 1.47 4.83 3.6h.1c-.07-.98-.1-3.08-.1-5.28v-4.76c0-1.61-.38-1.99-1.92-1.99h-.87v-.49l5.28-.52v21.83c0 1.57.31 2.03 1.85 2.03h.28v.49l-4.62.53.14-3.92h-.1c-1.15 2.13-2.62 3.85-5 3.85-2.92-.01-6.03-2.92-6.03-7.67zm10.98-.04c0-5.21-2.9-7.14-4.41-7.14-2.87 0-3.64 3.25-3.64 7.07 0 3.88.94 7.21 3.6 7.21 1.83 0 4.45-2.52 4.45-7.14zM61.27 177.73v-7.56c0-1.54-.35-1.99-1.89-1.99h-.31v-.45l4.69-.28v10.91c0 2.48.94 3.46 2.59 3.46 2.17 0 4.34-3.08 4.34-6.02v-5.6c0-1.61-.35-2.03-1.89-2.03h-.7v-.45l5.11-.28v12.24c0 1.57.38 2.03 1.92 2.03h.24v.45l-4.65.52.17-4.34h-.07c-.91 2.38-2.94 4.34-5.32 4.34-2.76.02-4.23-1.59-4.23-4.95zM76.66 175.11c0-4.3 3.46-7.91 7.56-7.91 2.73 0 4.72 1.89 4.72 3.92 0 1.19-.77 1.92-1.75 1.92-.94 0-1.61-.8-1.61-1.64 0-.73.45-1.4 1.26-1.61.42-.11.73.07.73-.21 0-.63-1.22-1.82-3.43-1.82-3.15 0-4.44 2.97-4.44 7.17 0 3.85 1.54 6.75 4.72 6.75 2.1 0 3.5-1.12 4.55-2.52l.35.24c-1.19 1.99-3.36 3.46-6.05 3.46-3.49.01-6.61-2.99-6.61-7.75zM92.37 178.33v-10.07h-2.38v-.42c2.24-.38 4.09-1.92 4.44-6.44h.45v6.3h4.72v.56h-4.72v10.25c0 2.2.8 3.29 2.38 3.29 1.43 0 2.59-1.57 2.73-4.65h.49c0 3.57-1.57 5.67-4.09 5.67-2.48-.02-4.02-1.45-4.02-4.49zM101.35 181.86h.28c1.54 0 1.89-.38 1.89-1.96v-9.72c0-1.61-.35-1.99-1.89-1.99h-.28v-.45l4.65-.28v12.45c0 1.57.35 1.96 1.89 1.96h.28v.49h-6.82v-.5zm1.16-20.01c0-1.05.87-1.92 1.92-1.92s1.92.87 1.92 1.92c0 1.05-.87 1.92-1.92 1.92s-1.92-.87-1.92-1.92zM109.64 175c0-4.55 3.57-7.8 6.86-7.8s6.82 3.18 6.82 7.73c0 4.44-3.53 7.94-6.82 7.94s-6.86-3.42-6.86-7.87zm10.74.04c0-4.06-1.05-7.35-3.88-7.35s-3.88 3.22-3.88 7.28c0 4.02.98 7.42 3.88 7.42s3.88-3.33 3.88-7.35zM124.79 181.86h.24c1.54 0 1.89-.38 1.89-1.96v-9.76c0-1.57-.35-1.99-1.89-1.99h-.24v-.42l4.65-.28-.17 4.3h.07c.94-2.83 3.15-4.34 5.42-4.34 2.83 0 4.13 1.75 4.13 5.21v7.28c0 1.57.35 1.96 1.92 1.96h.07v.49h-6.75v-.49h.35c1.57 0 1.92-.38 1.92-1.96v-8.15c0-2.45-1.05-3.22-2.45-3.22-2.55 0-4.48 2.55-4.48 5.67v5.7c0 1.57.35 1.96 1.89 1.96h.35v.49h-6.93v-.49zM142.94 180.6c0-1.12.87-1.99 1.99-1.99s1.99.87 1.99 1.99-.87 1.99-1.99 1.99-1.99-.87-1.99-1.99zM145.19 162.7c.35-.45 1.24-1.29 1.79-2.06-.92-.31-2.12-.45-2.65-.61-.55-.16-.8-.43-.73-.61.06-.2.41-.29.96-.08.53.2 1.59.78 2.51 1.06 0-.96-.24-2.14-.24-2.71 0-.55.16-.88.37-.88s.37.33.37.88c0 .57-.24 1.75-.24 2.71.92-.28 1.98-.88 2.51-1.06.51-.18.92-.14.96.08.04.18-.18.45-.73.61-.53.16-1.73.31-2.65.61.57.77 1.45 1.61 1.79 2.06.33.41.39.82.22.94-.14.1-.49-.04-.82-.51-.33-.47-.84-1.55-1.41-2.33-.57.77-1.08 1.86-1.41 2.33-.31.43-.65.61-.8.51-.19-.13-.12-.54.2-.94z"/></svg>