<svg id="Layer_1" xmlns="http://www.w3.org/2000/svg" viewBox="0 0 300 600"><style>.st0{fill:#edf0f5}.st1{fill:#002554}</style><path class="st0" d="M15 205h158.09v28.58H15z"/><path class="st1" d="M31.69 216.1v2h3.75v1.93h-3.75v3.76h-2.31v-9.69h6.38v2h-4.07zM37.87 223.8v-9.69h2.35v9.69h-2.35zM49 223.8l-3.9-6.34h-.04l.05 6.34h-2.27v-9.69h2.67l3.89 6.32h.04l-.05-6.32h2.27v9.69H49zM57.89 223.8h-3.61v-9.69h3.5c2.75 0 5.54 1.15 5.54 4.82 0 3.4-2.76 4.87-5.43 4.87zm-.17-7.7h-1.16v5.67h1.11c1.67 0 3.22-.68 3.22-2.85-.01-2.17-1.55-2.82-3.17-2.82zM75.85 223.8l-.75-1.9h-3.75l-.71 1.9h-2.55l4.06-9.69h2.27l4.02 9.69h-2.59zm-2.6-7.11l-1.23 3.33h2.44l-1.21-3.33zM87.17 220.14h-1.16v3.65h-2.34v-9.69h3.56c2.12 0 3.79.77 3.79 2.98-.01 2.25-1.83 3.06-3.85 3.06zm-.14-4.15H86v2.29h.99c.88 0 1.68-.26 1.68-1.18 0-.93-.8-1.11-1.64-1.11zM98.23 223.8l-2.09-3.85h-.79v3.85h-2.3v-9.69h3.7c1.86 0 3.71.71 3.71 2.93 0 1.3-.77 2.23-2.01 2.61l2.53 4.15h-2.75zm-1.66-7.81h-1.25v2.26h1.11c.75 0 1.7-.19 1.7-1.18 0-.9-.86-1.08-1.56-1.08zM107.55 224.06c-3.02 0-5.27-2.08-5.27-5.15 0-3.11 2.24-5.06 5.27-5.06 3.04 0 5.28 1.96 5.28 5.06.01 3.07-2.24 5.15-5.28 5.15zm0-8.11c-1.64 0-2.76 1.26-2.76 2.96 0 1.75 1.14 3.01 2.76 3.01 1.63 0 2.78-1.26 2.78-3.01 0-1.7-1.14-2.96-2.78-2.96zM119.64 223.8h-2.34l-3.67-9.69h2.63l2.24 6.87h.05l2.23-6.87h2.59l-3.73 9.69zM124.79 223.8v-9.69h2.35v9.69h-2.35zM133.37 223.8h-3.61v-9.69h3.5c2.75 0 5.54 1.15 5.54 4.82 0 3.4-2.76 4.87-5.43 4.87zm-.16-7.7h-1.16v5.67h1.11c1.67 0 3.22-.68 3.22-2.85-.01-2.17-1.56-2.82-3.17-2.82zM140.97 223.8v-9.69h6.52v1.98h-4.26v1.82h4.02v1.88h-4.02v2.01h4.5v2h-6.76zM155.08 223.8l-2.09-3.85h-.79v3.85h-2.3v-9.69h3.7c1.86 0 3.71.71 3.71 2.93 0 1.3-.77 2.23-2.01 2.61l2.53 4.15h-2.75zm-1.65-7.81h-1.25v2.26h1.11c.75 0 1.7-.19 1.7-1.18 0-.9-.87-1.08-1.56-1.08z"/></svg>