<svg id="Layer_1" xmlns="http://www.w3.org/2000/svg" viewBox="0 0 300 600"><style>.st0{fill:#edf0f5}.st1{fill:#002554}</style><path class="st0" d="M15 205h163v29.47H15z"/><path class="st1" d="M32.2 216.45v2.06h3.87v1.99H32.2v3.88h-2.39v-9.99h6.58v2.06H32.2zM38.58 224.38v-9.99h2.43v9.99h-2.43zM50.06 224.38l-4.02-6.54H46l.06 6.54h-2.34v-9.99h2.75l4.01 6.52h.04l-.06-6.52h2.34v9.99h-2.74zM59.22 224.38h-3.73v-9.99h3.61c2.84 0 5.72 1.19 5.72 4.97 0 3.51-2.85 5.02-5.6 5.02zm-.17-7.93h-1.2v5.84h1.14c1.72 0 3.32-.71 3.32-2.94 0-2.24-1.6-2.9-3.26-2.9zM77.74 224.38l-.78-1.96h-3.87l-.73 1.96h-2.63l4.19-9.99h2.34l4.15 9.99h-2.67zm-2.68-7.33l-1.27 3.43h2.51l-1.24-3.43zM89.41 220.61h-1.2v3.77H85.8v-9.99h3.67c2.19 0 3.91.79 3.91 3.08 0 2.31-1.88 3.14-3.97 3.14zm-.14-4.28h-1.06v2.36h1.02c.9 0 1.74-.27 1.74-1.21-.01-.96-.84-1.15-1.7-1.15zM100.81 224.38l-2.16-3.97h-.82v3.97h-2.37v-9.99h3.81c1.92 0 3.82.73 3.82 3.02 0 1.34-.79 2.3-2.07 2.7l2.61 4.28h-2.82zm-1.7-8.05h-1.28v2.33h1.14c.78 0 1.75-.2 1.75-1.21 0-.93-.89-1.12-1.61-1.12zM110.43 224.65c-3.12 0-5.43-2.15-5.43-5.31 0-3.2 2.31-5.22 5.43-5.22 3.13 0 5.45 2.02 5.45 5.22-.01 3.16-2.32 5.31-5.45 5.31zm0-8.36c-1.69 0-2.85 1.3-2.85 3.05 0 1.81 1.17 3.11 2.85 3.11s2.87-1.3 2.87-3.11c-.01-1.75-1.18-3.05-2.87-3.05zM122.89 224.38h-2.41l-3.78-9.99h2.71l2.32 7.09h.06l2.3-7.09h2.67l-3.87 9.99zM128.2 224.38v-9.99h2.43v9.99h-2.43zM137.05 224.38h-3.73v-9.99h3.61c2.84 0 5.72 1.19 5.72 4.97 0 3.51-2.85 5.02-5.6 5.02zm-.17-7.93h-1.2v5.84h1.14c1.72 0 3.32-.71 3.32-2.94 0-2.24-1.6-2.9-3.26-2.9zM144.88 224.38v-9.99h6.72v2.05h-4.39v1.88h4.15v1.93h-4.15v2.08h4.64v2.06h-6.97zM159.43 224.38l-2.16-3.97h-.82v3.97h-2.37v-9.99h3.81c1.92 0 3.83.73 3.83 3.02 0 1.34-.79 2.3-2.07 2.7l2.61 4.28h-2.83zm-1.71-8.05h-1.28v2.33h1.14c.78 0 1.75-.2 1.75-1.21 0-.93-.89-1.12-1.61-1.12z"/></svg>