<svg id="Layer_1" xmlns="http://www.w3.org/2000/svg" viewBox="0 0 300 600"><style>.st0{fill:#fff}</style><path class="st0" d="M22.09 279.68h-4.43l-1.04 2.66h-1.24l3.8-9.58h1.41l3.79 9.58h-1.26l-1.03-2.66zm-.43-1.08l-1.32-3.4-.46-1.33h-.03l-.43 1.29-1.33 3.44h3.57zM27.27 280.4c0 .74.19.97.8.97.4 0 .65-.04 1.08-.2l-.19 1.12c-.31.13-.71.2-1.1.2-1.2 0-1.78-.62-1.78-1.95v-8.79h1.18v8.65zM31.8 280.4c0 .74.19.97.8.97.4 0 .65-.04 1.08-.2l-.19 1.12c-.31.13-.71.2-1.1.2-1.2 0-1.78-.62-1.78-1.95v-8.79h1.18v8.65zM41.5 279.15h-5.58c.15 1.47 1.05 2.32 2.41 2.32 1.08 0 1.82-.38 2.09-1.07l.99.51c-.56.99-1.48 1.58-3.08 1.58-2.23 0-3.58-1.42-3.58-3.77s1.26-3.77 3.49-3.77c2.15 0 3.32 1.52 3.32 3.4 0 .32-.03.59-.06.8zm-5.57-1.03h4.48c-.16-1.33-.92-2.16-2.18-2.16-1.31 0-2.12.79-2.3 2.16zM48.1 282.34l-2.04-2.8-2.1 2.8h-1.38l2.84-3.66-2.66-3.6h1.48l1.95 2.68 1.92-2.68h1.39l-2.68 3.56 2.72 3.7H48.1zM57.92 281.43l-.07.91c-.21.07-.52.15-.89.15-.73 0-1.2-.26-1.33-1.07-.47.68-1.44 1.07-2.38 1.07-1.39 0-2.52-.64-2.52-1.95 0-1.09.98-1.94 2.89-2.26l1.97-.32v-.41c0-.96-.62-1.6-1.73-1.6-.98 0-1.72.46-2.12 1.38l-.87-.62c.38-1.07 1.55-1.77 2.99-1.77 1.69 0 2.92.78 2.92 2.47v3.57c0 .35.15.52.56.52.18 0 .4-.03.58-.07zm-2.34-1.53v-1l-1.66.3c-1.3.23-1.97.65-1.97 1.33 0 .61.5.93 1.35.93 1.18.01 2.28-.6 2.28-1.56zM74.76 275.08l-2.58 7.26H71l-2.09-5.78-1.97 5.78h-1.18l-2.58-7.26h1.32l1.87 5.91 2.01-5.91h1.18l2.01 5.91 1.86-5.91h1.33zM83.19 281.43l-.07.91c-.21.07-.52.15-.89.15-.73 0-1.2-.26-1.33-1.07-.47.68-1.44 1.07-2.38 1.07-1.39 0-2.52-.64-2.52-1.95 0-1.09.98-1.94 2.89-2.26l1.97-.32v-.41c0-.96-.62-1.6-1.73-1.6-.98 0-1.72.46-2.12 1.38l-.87-.62c.38-1.07 1.55-1.77 2.99-1.77 1.69 0 2.92.78 2.92 2.47v3.57c0 .35.15.52.56.52.18 0 .4-.03.58-.07zm-2.34-1.53v-1l-1.66.3c-1.3.23-1.97.65-1.97 1.33 0 .61.5.93 1.35.93 1.18.01 2.28-.6 2.28-1.56zM84.24 280.84l.96-.65c.36.88 1.27 1.28 2.34 1.28 1.21 0 1.79-.48 1.79-1.07 0-.54-.46-.86-1.94-1.12-2.1-.38-2.87-.94-2.87-2.16 0-1.18 1.11-2.18 2.92-2.18 1.58 0 2.52.55 2.93 1.74l-1.01.58c-.33-.96-.99-1.31-1.92-1.31-.99 0-1.73.52-1.73 1.06 0 .62.49.94 2 1.19 2.07.33 2.81.94 2.81 2.13 0 1.26-1.2 2.15-3.09 2.15-1.37.01-2.63-.52-3.19-1.64zM101.99 281.83c-.46.41-1.1.65-1.91.65-1.1 0-2.04-.54-2.06-1.95v-4.45h-1.48v-1h1.48v-1.74l1.18-.32v2.06h2.74v1H99.2v4.25c0 .71.46 1.06 1.11 1.06.53 0 .92-.2 1.26-.54l.42.98zM107.97 275.08l-.24 1.13c-.22-.12-.55-.19-.93-.19-.89 0-1.95.77-1.95 2.39v3.92h-1.18v-7.26h.96l.16 1.19c.41-.89 1.21-1.33 2.37-1.33.25.01.59.04.81.15zM115.76 279.15h-5.58c.15 1.47 1.05 2.32 2.41 2.32 1.08 0 1.82-.38 2.09-1.07l.99.51c-.56.99-1.48 1.58-3.08 1.58-2.23 0-3.58-1.42-3.58-3.77s1.26-3.77 3.49-3.77c2.15 0 3.32 1.52 3.32 3.4 0 .32-.03.59-.06.8zm-5.57-1.03h4.48c-.16-1.33-.92-2.16-2.18-2.16-1.31 0-2.12.79-2.3 2.16zM124.73 281.43l-.07.91c-.21.07-.52.15-.89.15-.73 0-1.2-.26-1.33-1.07-.47.68-1.44 1.07-2.38 1.07-1.39 0-2.52-.64-2.52-1.95 0-1.09.98-1.94 2.89-2.26l1.97-.32v-.41c0-.96-.62-1.6-1.73-1.6-.98 0-1.72.46-2.12 1.38l-.87-.62c.38-1.07 1.55-1.77 2.99-1.77 1.69 0 2.92.78 2.92 2.47v3.57c0 .35.15.52.56.52.18 0 .4-.03.58-.07zm-2.34-1.53v-1l-1.66.3c-1.3.23-1.97.65-1.97 1.33 0 .61.5.93 1.35.93 1.19.01 2.28-.6 2.28-1.56zM130.68 281.83c-.46.41-1.1.65-1.91.65-1.1 0-2.04-.54-2.06-1.95v-4.45h-1.48v-1h1.48v-1.74l1.18-.32v2.06h2.74v1h-2.74v4.25c0 .71.46 1.06 1.11 1.06.53 0 .92-.2 1.26-.54l.42.98zM138.65 279.15h-5.58c.15 1.47 1.05 2.32 2.41 2.32 1.08 0 1.82-.38 2.09-1.07l.99.51c-.56.99-1.48 1.58-3.08 1.58-2.23 0-3.58-1.42-3.58-3.77s1.26-3.77 3.49-3.77c2.15 0 3.32 1.52 3.32 3.4 0 .32-.03.59-.06.8zm-5.57-1.03h4.48c-.16-1.33-.92-2.16-2.18-2.16-1.31 0-2.12.79-2.3 2.16zM147.53 271.75v10.59h-1.04l-.07-1.26c-.43.83-1.36 1.41-2.53 1.41-2.06 0-3.37-1.41-3.37-3.77s1.32-3.77 3.37-3.77c1.11 0 2 .52 2.46 1.28v-4.47h1.18zm-1.19 7.05v-.17c0-1.64-.92-2.67-2.32-2.67-1.45 0-2.32 1.07-2.32 2.76s.87 2.76 2.32 2.76c1.41-.01 2.32-1.04 2.32-2.68zM27.12 292.36l-2.58 7.26h-1.18l-2.09-5.78-1.97 5.78h-1.18l-2.58-7.26h1.32l1.87 5.91 2.01-5.91h1.18l2.01 5.91 1.86-5.91h1.33zM28.75 290.09c0-.52.35-.87.89-.87.53 0 .89.35.89.87s-.35.87-.89.87c-.53 0-.89-.34-.89-.87zm1.48 9.52h-1.18v-7.26h1.18v7.26zM37.52 299.1c-.46.41-1.1.65-1.91.65-1.1 0-2.04-.54-2.06-1.95v-4.45h-1.48v-1h1.48v-1.74l1.18-.32v2.06h2.74v1h-2.74v4.25c0 .71.46 1.06 1.11 1.06.53 0 .92-.2 1.26-.54l.42.98zM45.67 294.97v4.64h-1.18v-4.24c0-1.61-.8-2.15-1.82-2.15-1.08 0-2.29.68-2.29 2.54v3.85H39.2v-10.59h1.18v4.43c.52-.87 1.41-1.23 2.41-1.23 1.58-.01 2.88.88 2.88 2.75zM57.56 299.76c-2.78 0-4.53-1.9-4.53-4.93s1.78-4.93 4.5-4.93c1.89 0 3.17.78 3.79 2.24l-1.17.54c-.43-1.1-1.23-1.68-2.53-1.68-2 0-3.34 1.42-3.34 3.84 0 2.41 1.26 3.85 3.29 3.85 1.3 0 2.32-.65 2.75-1.94l1.18.44c-.62 1.61-2.1 2.57-3.94 2.57zM70.26 295.98c0 2.35-1.35 3.77-3.58 3.77s-3.58-1.42-3.58-3.77 1.35-3.77 3.58-3.77 3.58 1.42 3.58 3.77zm-5.98 0c0 1.73.9 2.77 2.4 2.77s2.4-1.04 2.4-2.77-.9-2.77-2.4-2.77-2.4 1.05-2.4 2.77zM79.26 295.98c0 2.35-1.35 3.77-3.58 3.77s-3.58-1.42-3.58-3.77 1.35-3.77 3.58-3.77 3.58 1.42 3.58 3.77zm-5.98 0c0 1.73.9 2.77 2.4 2.77s2.4-1.04 2.4-2.77-.9-2.77-2.4-2.77-2.4 1.05-2.4 2.77zM82.68 297.67c0 .74.19.97.8.97.4 0 .65-.04 1.08-.2l-.19 1.12c-.31.13-.71.2-1.1.2-1.2 0-1.78-.62-1.78-1.95v-8.79h1.18v8.65zM93.22 291.92l-1.02.81c-.59-1.26-1.3-1.76-2.74-1.76-1.55 0-2.41.71-2.41 1.62 0 .9.65 1.35 2.71 1.7 2.62.44 3.55 1.25 3.55 2.73 0 1.64-1.5 2.73-3.77 2.73-2.07 0-3.43-.89-4.11-2.08l1.02-.81c.52 1.1 1.52 1.8 3.12 1.8 1.51 0 2.52-.55 2.52-1.58 0-.83-.64-1.31-2.69-1.65-2.63-.45-3.58-1.23-3.58-2.7 0-1.54 1.38-2.84 3.64-2.84 1.78 0 3.01.7 3.76 2.03zM101.77 294.14l-1.12.52c-.31-.93-.95-1.44-1.97-1.44-1.48 0-2.37 1.03-2.37 2.76s.89 2.76 2.37 2.76c1.15 0 1.85-.54 2.07-1.49l1.1.38c-.5 1.33-1.57 2.13-3.14 2.13-2.23 0-3.58-1.42-3.58-3.77s1.35-3.77 3.58-3.77c1.52-.01 2.51.73 3.06 1.92zM110.34 292.36v7.26h-1.04l-.07-1.1c-.52.87-1.47 1.25-2.65 1.25-1.47 0-2.72-.74-2.72-2.66v-4.75h1.18v4.44c0 1.5.68 1.94 1.75 1.94 1.26 0 2.37-.73 2.37-2.44v-3.95h1.18zM114.22 297.67c0 .74.19.97.8.97.4 0 .65-.04 1.08-.2l-.19 1.12c-.31.13-.71.2-1.1.2-1.2 0-1.78-.62-1.78-1.95v-8.79h1.18v8.65zM124.64 295.98c0 2.37-1.32 3.77-3.37 3.77-1.11 0-2-.52-2.46-1.28v4.18h-1.18v-10.3h1.04l.07 1.26c.43-.83 1.36-1.41 2.53-1.41 2.05.01 3.37 1.42 3.37 3.78zm-1.18 0c0-1.68-.87-2.76-2.32-2.76-1.41 0-2.32 1.03-2.32 2.67v.17c0 1.64.92 2.67 2.32 2.67 1.44.01 2.32-1.06 2.32-2.75zM131.35 299.1c-.46.41-1.1.65-1.91.65-1.1 0-2.04-.54-2.06-1.95v-4.45h-1.48v-1h1.48v-1.74l1.18-.32v2.06h2.74v1h-2.74v4.25c0 .71.46 1.06 1.11 1.06.53 0 .92-.2 1.26-.54l.42.98zM132.72 290.09c0-.52.35-.87.89-.87.53 0 .89.35.89.87s-.35.87-.89.87c-.53 0-.89-.34-.89-.87zm1.48 9.52h-1.18v-7.26h1.18v7.26zM143.44 294.97v4.64h-1.18v-4.24c0-1.61-.8-2.15-1.82-2.15-1.08 0-2.29.67-2.29 2.52v3.86h-1.18v-7.26h1.04l.07 1.13c.52-.91 1.47-1.28 2.49-1.28 1.57.02 2.87.91 2.87 2.78zM152.49 300.41c0 1.44-1.66 2.32-3.66 2.32-2.34 0-3.4-.83-3.4-1.92 0-.67.49-1.19 1.3-1.41-.56-.26-1.01-.7-1.01-1.33 0-.75.46-1.2 1.11-1.42-.71-.44-1.08-1.15-1.08-1.99 0-1.44 1.26-2.45 3.03-2.45.56 0 1.07.1 1.51.29.28-1 .98-1.48 2.09-1.48l.27 1.02c-.99 0-1.55.28-1.76.8.59.43.93 1.07.93 1.83 0 1.44-1.26 2.45-3.03 2.45-.43 0-.81-.04-1.14-.13-.59.13-.83.42-.83.92 0 .51.4.78.98.78h2.46c1.4-.01 2.23.68 2.23 1.72zm-1.1.13c0-.52-.36-.86-1.47-.86h-1.98c-.93 0-1.42.35-1.42.9 0 .71.81 1.17 2.44 1.17 1.57.01 2.43-.57 2.43-1.21zm-4.41-5.88c0 .9.78 1.51 1.81 1.51 1.02 0 1.81-.61 1.81-1.51s-.78-1.51-1.81-1.51c-1.02.01-1.81.61-1.81 1.51zM159.37 291.99c0 1.74-1.16 2.88-2.95 2.88-1.8 0-2.95-1.13-2.95-2.88 0-1.74 1.16-2.87 2.95-2.87 1.79 0 2.95 1.13 2.95 2.87zm-.61 0c0-1.41-.92-2.32-2.34-2.32s-2.34.91-2.34 2.32c0 1.41.92 2.33 2.34 2.33s2.34-.92 2.34-2.33zm-1.71.4l.85 1.18h-.66l-.77-1.13h-.59v1.13h-.58v-3.13h1.31c.72 0 1.21.38 1.21 1 0 .48-.3.82-.77.95zm-1.17-.38h.73c.41 0 .64-.19.64-.57 0-.38-.22-.57-.64-.57h-.73v1.14zM173.08 295.98c0 2.35-1.35 3.77-3.58 3.77s-3.58-1.42-3.58-3.77 1.35-3.77 3.58-3.77 3.58 1.42 3.58 3.77zm-5.98 0c0 1.73.9 2.77 2.4 2.77s2.4-1.04 2.4-2.77-.9-2.77-2.4-2.77-2.4 1.05-2.4 2.77zM181.86 294.97v4.64h-1.18v-4.24c0-1.61-.8-2.15-1.82-2.15-1.08 0-2.29.67-2.29 2.52v3.86h-1.18v-7.26h1.04l.07 1.13c.52-.91 1.47-1.28 2.49-1.28 1.57.02 2.87.91 2.87 2.78zM22.86 312.24v4.64h-1.18v-4.24c0-1.61-.8-2.15-1.82-2.15-1.08 0-2.29.68-2.29 2.54v3.85h-1.18v-10.59h1.18v4.43c.52-.87 1.41-1.23 2.41-1.23 1.58-.01 2.88.88 2.88 2.75zM31.83 313.69h-5.58c.15 1.47 1.05 2.32 2.41 2.32 1.08 0 1.82-.38 2.09-1.07l.99.51c-.56.99-1.48 1.58-3.08 1.58-2.23 0-3.58-1.42-3.58-3.77s1.26-3.77 3.49-3.77c2.15 0 3.32 1.52 3.32 3.4 0 .32-.03.6-.06.8zm-5.56-1.03h4.48c-.16-1.33-.92-2.16-2.18-2.16-1.31 0-2.13.8-2.3 2.16zM38.45 309.63l-.24 1.13c-.22-.12-.55-.19-.93-.19-.89 0-1.95.77-1.95 2.39v3.92h-1.18v-7.26h.96l.16 1.19c.41-.89 1.21-1.33 2.37-1.33.25 0 .59.03.81.15zM51.55 315.97l-.07.91c-.21.07-.52.15-.89.15-.73 0-1.2-.26-1.33-1.07-.47.68-1.44 1.07-2.38 1.07-1.39 0-2.52-.64-2.52-1.95 0-1.09.98-1.94 2.89-2.26l1.97-.32v-.41c0-.96-.62-1.6-1.73-1.6-.98 0-1.72.46-2.12 1.38l-.87-.62c.38-1.07 1.55-1.77 2.99-1.77 1.69 0 2.92.78 2.92 2.47v3.57c0 .35.15.52.56.52.18 0 .4-.03.58-.07zm-2.34-1.52v-1l-1.66.3c-1.3.23-1.97.65-1.97 1.33 0 .61.5.93 1.35.93 1.19 0 2.28-.61 2.28-1.56zM60.28 313.26c0 2.37-1.32 3.77-3.37 3.77-1.17 0-2.1-.58-2.53-1.41l-.07 1.26h-1.04v-10.59h1.18v4.47c.46-.75 1.35-1.28 2.46-1.28 2.06 0 3.37 1.41 3.37 3.78zm-1.18 0c0-1.68-.87-2.76-2.32-2.76-1.41 0-2.32 1.03-2.32 2.67v.17c0 1.64.92 2.67 2.32 2.67 1.45 0 2.32-1.07 2.32-2.75zM69.17 306.29v10.59h-1.04l-.07-1.26c-.43.83-1.36 1.41-2.53 1.41-2.06 0-3.37-1.41-3.37-3.77s1.32-3.77 3.37-3.77c1.11 0 2 .52 2.46 1.28v-4.47h1.18zm-1.19 7.05v-.17c0-1.64-.92-2.67-2.32-2.67-1.45 0-2.32 1.07-2.32 2.76s.87 2.76 2.32 2.76c1.41-.01 2.32-1.04 2.32-2.68zM78.63 313.26c0 2.35-1.35 3.77-3.58 3.77s-3.58-1.42-3.58-3.77 1.35-3.77 3.58-3.77 3.58 1.42 3.58 3.77zm-5.98 0c0 1.73.9 2.77 2.4 2.77s2.4-1.04 2.4-2.77-.9-2.77-2.4-2.77-2.4 1.04-2.4 2.77zM92.35 312.24v4.64h-1.18v-4.53c0-1.32-.77-1.86-1.75-1.86-1.15 0-2.19.86-2.19 2.41v3.98h-1.18v-4.53c0-1.32-.77-1.86-1.75-1.86s-2.19.71-2.19 2.51v3.87h-1.18v-7.26h1.04l.07 1.13c.53-.88 1.45-1.28 2.37-1.28 1.04 0 2.06.45 2.55 1.42.46-.99 1.64-1.42 2.58-1.42 1.4.02 2.81.87 2.81 2.78zM101.32 313.69h-5.58c.15 1.47 1.05 2.32 2.41 2.32 1.08 0 1.82-.38 2.09-1.07l.99.51c-.56.99-1.48 1.58-3.08 1.58-2.23 0-3.58-1.42-3.58-3.77s1.26-3.77 3.49-3.77c2.15 0 3.32 1.52 3.32 3.4 0 .32-.03.6-.06.8zm-5.56-1.03h4.48c-.16-1.33-.92-2.16-2.18-2.16-1.31 0-2.13.8-2.3 2.16zM110.12 312.24v4.64h-1.18v-4.24c0-1.61-.8-2.15-1.82-2.15-1.08 0-2.29.67-2.29 2.52v3.86h-1.18v-7.26h1.04l.07 1.13c.52-.91 1.47-1.28 2.49-1.28 1.56.02 2.87.91 2.87 2.78zM114.35 316.09c0 .57-.38.94-.96.94s-.96-.38-.96-.94c0-.57.38-.94.96-.94.58-.01.96.37.96.94zM125.53 312.91h-2.34v3.98h-1.18v-9.58h3.7c1.98 0 3.3 1.07 3.3 2.8 0 1.36-.83 2.32-2.16 2.67l2.75 4.11h-1.41l-2.66-3.98zm-2.34-1.09h2.5c1.39 0 2.07-.57 2.07-1.71s-.68-1.71-2.07-1.71h-2.5v3.42zM137.67 313.69h-5.58c.15 1.47 1.05 2.32 2.41 2.32 1.08 0 1.82-.38 2.09-1.07l.99.51c-.56.99-1.48 1.58-3.08 1.58-2.23 0-3.58-1.42-3.58-3.77s1.26-3.77 3.49-3.77c2.15 0 3.32 1.52 3.32 3.4 0 .32-.03.6-.06.8zm-5.57-1.03h4.48c-.16-1.33-.92-2.16-2.18-2.16-1.31 0-2.12.8-2.3 2.16zM139.31 315.39l.96-.65c.36.88 1.27 1.28 2.34 1.28 1.21 0 1.79-.48 1.79-1.07 0-.54-.46-.86-1.94-1.12-2.1-.38-2.87-.94-2.87-2.16 0-1.18 1.11-2.18 2.92-2.18 1.58 0 2.52.55 2.93 1.74l-1.01.58c-.33-.96-.99-1.31-1.92-1.31-.99 0-1.73.52-1.73 1.06 0 .62.49.94 2 1.19 2.07.33 2.81.94 2.81 2.13 0 1.26-1.2 2.15-3.09 2.15-1.37 0-2.63-.52-3.19-1.64zM154.19 309.63v7.26h-1.04l-.07-1.1c-.52.87-1.46 1.25-2.65 1.25-1.47 0-2.72-.74-2.72-2.66v-4.75h1.18v4.44c0 1.5.68 1.94 1.75 1.94 1.26 0 2.37-.73 2.37-2.44v-3.95h1.18zM158.07 314.94c0 .74.19.97.8.97.4 0 .65-.04 1.08-.2l-.19 1.12c-.31.13-.71.2-1.09.2-1.2 0-1.78-.62-1.78-1.95v-8.79h1.18v8.65zM165.71 316.38c-.46.41-1.09.65-1.91.65-1.09 0-2.04-.54-2.06-1.95v-4.45h-1.48v-1h1.48v-1.74l1.18-.32v2.06h2.74v1h-2.74v4.25c0 .71.46 1.06 1.11 1.06.53 0 .92-.2 1.26-.54l.42.98zM166.71 315.39l.96-.65c.35.88 1.27 1.28 2.34 1.28 1.21 0 1.79-.48 1.79-1.07 0-.54-.46-.86-1.94-1.12-2.1-.38-2.87-.94-2.87-2.16 0-1.18 1.11-2.18 2.92-2.18 1.58 0 2.52.55 2.93 1.74l-1.01.58c-.33-.96-.99-1.31-1.92-1.31-.99 0-1.73.52-1.73 1.06 0 .62.49.94 2 1.19 2.07.33 2.81.94 2.81 2.13 0 1.26-1.2 2.15-3.09 2.15-1.36 0-2.62-.52-3.19-1.64zM27.8 329.51v4.64h-1.18v-4.53c0-1.32-.77-1.86-1.75-1.86-1.15 0-2.19.86-2.19 2.41v3.98H21.5v-4.53c0-1.32-.77-1.86-1.75-1.86s-2.19.71-2.19 2.51v3.87h-1.18v-7.26h1.04l.07 1.13c.53-.88 1.45-1.28 2.37-1.28 1.04 0 2.06.45 2.55 1.42.46-.99 1.64-1.42 2.58-1.42 1.41.03 2.81.87 2.81 2.78zM37.15 333.24l-.07.91c-.21.07-.52.15-.89.15-.73 0-1.2-.26-1.33-1.07-.47.68-1.44 1.07-2.38 1.07-1.39 0-2.52-.64-2.52-1.95 0-1.09.98-1.94 2.89-2.26l1.97-.32v-.41c0-.96-.62-1.6-1.73-1.6-.98 0-1.72.46-2.12 1.38l-.87-.62c.38-1.07 1.55-1.77 2.99-1.77 1.69 0 2.92.78 2.92 2.47v3.57c0 .35.15.52.56.52.18 0 .4-.02.58-.07zm-2.34-1.52v-1l-1.66.3c-1.3.23-1.97.65-1.97 1.33 0 .61.5.93 1.35.93 1.18.01 2.28-.6 2.28-1.56zM41.25 335.38c-.58 1.42-1.24 1.9-2.34 1.9-.74 0-1.21-.17-1.63-.61l.41-.99c.34.46.78.58 1.2.58.52 0 .98-.22 1.35-1.18l.38-.94-3.09-7.24h1.35l1.85 4.73.46 1.29.53-1.44 1.73-4.59h1.27l-3.47 8.49zM56.81 326.9l-3.08 7.26h-1.18l-3.08-7.26h1.35l2.34 6.08 2.41-6.08h1.24zM64.83 333.24l-.07.91c-.21.07-.52.15-.89.15-.73 0-1.2-.26-1.33-1.07-.47.68-1.44 1.07-2.38 1.07-1.39 0-2.52-.64-2.52-1.95 0-1.09.98-1.94 2.89-2.26l1.97-.32v-.41c0-.96-.62-1.6-1.73-1.6-.98 0-1.72.46-2.12 1.38l-.87-.62c.38-1.07 1.55-1.77 2.99-1.77 1.69 0 2.92.78 2.92 2.47v3.57c0 .35.15.52.56.52.18 0 .4-.02.58-.07zm-2.34-1.52v-1l-1.66.3c-1.3.23-1.97.65-1.97 1.33 0 .61.5.93 1.35.93 1.19.01 2.28-.6 2.28-1.56zM70.86 326.9l-.24 1.13c-.22-.12-.55-.19-.93-.19-.89 0-1.95.77-1.95 2.39v3.92h-1.18v-7.26h.96l.16 1.19c.41-.89 1.21-1.33 2.37-1.33.24.01.58.03.81.15zM75.4 335.38c-.58 1.42-1.24 1.9-2.34 1.9-.74 0-1.21-.17-1.63-.61l.41-.99c.34.46.78.58 1.2.58.52 0 .98-.22 1.35-1.18l.38-.94-3.09-7.24h1.35l1.85 4.73.46 1.29.53-1.44 1.73-4.59h1.27l-3.47 8.49zM80.97 333.36c0 .57-.38.94-.96.94s-.96-.38-.96-.94c0-.57.38-.94.96-.94.57 0 .96.37.96.94z"/></svg>