<svg id="Layer_1" xmlns="http://www.w3.org/2000/svg" viewBox="0 0 300 600"><style>.st0{fill:#fff}</style><path class="st0" d="M19.31 277.45h-2.69l-.63 1.61h-.75l2.31-5.82h.85l2.3 5.82h-.76l-.63-1.61zm-.27-.66l-.8-2.06-.28-.81h-.02l-.26.79-.81 2.09h2.17zM22.45 277.88c0 .45.12.59.49.59.24 0 .4-.03.66-.12l-.12.68c-.19.08-.43.12-.67.12-.73 0-1.08-.38-1.08-1.18v-5.34h.72v5.25zM25.21 277.88c0 .45.12.59.49.59.24 0 .4-.03.66-.12l-.12.68c-.19.08-.43.12-.67.12-.73 0-1.08-.38-1.08-1.18v-5.34h.72v5.25zM31.09 277.13H27.7c.09.89.64 1.41 1.46 1.41.66 0 1.11-.23 1.27-.65l.6.31c-.34.6-.9.96-1.87.96-1.36 0-2.17-.86-2.17-2.29 0-1.43.76-2.29 2.12-2.29 1.3 0 2.01.93 2.01 2.06.01.19-.01.36-.03.49zm-3.37-.63h2.72c-.1-.81-.56-1.31-1.32-1.31-.8 0-1.3.48-1.4 1.31zM35.11 279.07l-1.24-1.7-1.28 1.7h-.84l1.73-2.22-1.62-2.19h.9l1.19 1.63 1.17-1.63h.84l-1.63 2.16 1.65 2.25h-.87zM41.07 278.51l-.04.56c-.13.04-.31.09-.54.09-.44 0-.73-.16-.81-.65-.29.41-.87.65-1.45.65-.84 0-1.53-.39-1.53-1.18 0-.66.59-1.18 1.75-1.38l1.2-.19v-.25c0-.58-.38-.97-1.05-.97-.59 0-1.04.28-1.29.84l-.53-.38c.23-.65.94-1.08 1.82-1.08 1.02 0 1.77.48 1.77 1.5v2.17c0 .21.09.32.34.32.11-.01.25-.02.36-.05zm-1.42-.93v-.61l-1.01.19c-.79.14-1.2.4-1.2.81 0 .37.31.56.82.56.72.01 1.39-.36 1.39-.95zM51.3 274.66l-1.56 4.41h-.72l-1.27-3.51-1.2 3.51h-.72l-1.56-4.41h.8l1.13 3.59 1.22-3.59h.72l1.22 3.59 1.13-3.59h.81zM56.42 278.51l-.04.56c-.13.04-.31.09-.54.09-.44 0-.73-.16-.81-.65-.29.41-.87.65-1.45.65-.84 0-1.53-.39-1.53-1.18 0-.66.59-1.18 1.75-1.38l1.2-.19v-.25c0-.58-.38-.97-1.05-.97-.59 0-1.04.28-1.29.84l-.53-.38c.23-.65.94-1.08 1.82-1.08 1.02 0 1.77.48 1.77 1.5v2.17c0 .21.09.32.34.32.12-.01.25-.02.36-.05zm-1.42-.93v-.61l-1.01.19c-.79.14-1.2.4-1.2.81 0 .37.31.56.82.56.72.01 1.39-.36 1.39-.95zM57.06 278.16l.58-.4c.22.54.77.78 1.42.78.74 0 1.09-.29 1.09-.65 0-.33-.28-.52-1.18-.68-1.28-.23-1.74-.57-1.74-1.31 0-.71.67-1.32 1.77-1.32.96 0 1.53.34 1.78 1.06l-.61.35c-.2-.58-.6-.79-1.17-.79-.6 0-1.05.32-1.05.64 0 .38.3.57 1.21.72 1.26.2 1.71.57 1.71 1.3 0 .77-.73 1.31-1.88 1.31-.83-.02-1.59-.33-1.93-1.01zM67.84 278.76c-.28.25-.67.4-1.16.4-.67 0-1.24-.33-1.25-1.18v-2.71h-.9v-.61h.9v-1.06l.72-.19v1.25h1.66v.61h-1.66v2.58c0 .43.28.64.67.64.32 0 .56-.12.76-.33l.26.6zM71.47 274.66l-.14.69c-.14-.07-.33-.11-.57-.11-.54 0-1.19.47-1.19 1.46v2.38h-.72v-4.41h.58l.1.72c.25-.54.74-.81 1.44-.81.16-.01.37.01.5.08zM76.2 277.13h-3.39c.09.89.64 1.41 1.46 1.41.66 0 1.11-.23 1.27-.65l.6.31c-.34.6-.9.96-1.87.96-1.36 0-2.17-.86-2.17-2.29 0-1.43.76-2.29 2.12-2.29 1.3 0 2.01.93 2.01 2.06.01.19-.01.36-.03.49zm-3.38-.63h2.72c-.1-.81-.56-1.31-1.32-1.31-.8 0-1.29.48-1.4 1.31zM81.65 278.51l-.04.56c-.13.04-.31.09-.54.09-.44 0-.73-.16-.81-.65-.29.41-.87.65-1.45.65-.84 0-1.53-.39-1.53-1.18 0-.66.59-1.18 1.75-1.38l1.2-.19v-.25c0-.58-.38-.97-1.05-.97-.59 0-1.04.28-1.29.84l-.53-.38c.23-.65.94-1.08 1.82-1.08 1.02 0 1.77.48 1.77 1.5v2.17c0 .21.09.32.34.32.12-.01.25-.02.36-.05zm-1.42-.93v-.61l-1.01.19c-.79.14-1.2.4-1.2.81 0 .37.31.56.82.56.73.01 1.39-.36 1.39-.95zM85.27 278.76c-.28.25-.67.4-1.16.4-.67 0-1.24-.33-1.25-1.18v-2.71h-.9v-.61h.9v-1.06l.72-.19v1.25h1.66v.61h-1.66v2.58c0 .43.28.64.67.64.32 0 .56-.12.76-.33l.26.6zM90.1 277.13h-3.39c.09.89.64 1.41 1.47 1.41.66 0 1.1-.23 1.27-.65l.6.31c-.34.6-.9.96-1.87.96-1.36 0-2.18-.86-2.18-2.29 0-1.43.76-2.29 2.12-2.29 1.3 0 2.01.93 2.01 2.06.01.19-.01.36-.03.49zm-3.37-.63h2.72c-.1-.81-.56-1.31-1.32-1.31-.8 0-1.3.48-1.4 1.31zM95.5 272.63v6.44h-.63l-.04-.77c-.26.5-.83.86-1.54.86-1.25 0-2.05-.86-2.05-2.29 0-1.44.8-2.29 2.05-2.29.67 0 1.21.32 1.49.78v-2.72h.72zm-.72 4.28v-.11c0-1-.56-1.62-1.41-1.62-.88 0-1.41.65-1.41 1.68 0 1.02.53 1.68 1.41 1.68.85 0 1.41-.63 1.41-1.63zM22.36 285.15l-1.56 4.41h-.72l-1.27-3.51-1.2 3.51h-.71l-1.56-4.41h.8l1.13 3.59 1.22-3.59h.72l1.22 3.59 1.13-3.59h.8zM23.35 283.77c0-.32.22-.53.54-.53s.54.21.54.53-.22.53-.54.53-.54-.21-.54-.53zm.9 5.79h-.72v-4.41h.72v4.41zM28.68 289.25c-.28.25-.67.4-1.16.4-.67 0-1.24-.33-1.25-1.18v-2.71h-.9v-.61h.9v-1.06l.72-.19v1.25h1.66v.61h-1.66v2.58c0 .43.28.64.67.64.32 0 .56-.12.76-.33l.26.6zM33.63 286.74v2.82h-.72v-2.58c0-.98-.49-1.31-1.11-1.31-.66 0-1.39.41-1.39 1.54v2.34h-.72v-6.44h.72v2.69c.31-.53.85-.75 1.47-.75.96.01 1.75.55 1.75 1.69zM40.85 289.65c-1.69 0-2.75-1.16-2.75-3s1.08-3 2.73-3c1.15 0 1.92.48 2.3 1.36l-.71.33c-.26-.67-.75-1.02-1.54-1.02-1.21 0-2.03.86-2.03 2.34 0 1.46.76 2.34 2 2.34.79 0 1.41-.4 1.67-1.18l.72.26c-.37.98-1.27 1.57-2.39 1.57zM48.57 287.35c0 1.43-.82 2.29-2.18 2.29-1.36 0-2.17-.86-2.17-2.29s.82-2.29 2.17-2.29c1.36 0 2.18.86 2.18 2.29zm-3.63 0c0 1.05.55 1.68 1.46 1.68.91 0 1.46-.63 1.46-1.68 0-1.05-.55-1.68-1.46-1.68-.92 0-1.46.63-1.46 1.68zM54.03 287.35c0 1.43-.82 2.29-2.18 2.29-1.36 0-2.17-.86-2.17-2.29s.82-2.29 2.17-2.29c1.37 0 2.18.86 2.18 2.29zm-3.63 0c0 1.05.55 1.68 1.46 1.68.91 0 1.46-.63 1.46-1.68 0-1.05-.55-1.68-1.46-1.68-.91 0-1.46.63-1.46 1.68zM56.11 288.38c0 .45.12.59.49.59.24 0 .4-.03.66-.12l-.12.68c-.19.08-.43.12-.67.12-.73 0-1.08-.38-1.08-1.18v-5.34h.72v5.25zM62.52 284.88l-.62.49c-.36-.77-.79-1.07-1.66-1.07-.94 0-1.46.43-1.46.99 0 .55.4.82 1.65 1.03 1.59.26 2.16.76 2.16 1.66 0 1-.91 1.66-2.29 1.66-1.26 0-2.08-.54-2.5-1.26l.62-.49c.31.67.93 1.09 1.9 1.09.92 0 1.53-.33 1.53-.96 0-.5-.39-.79-1.64-1.01-1.6-.27-2.17-.75-2.17-1.64 0-.93.84-1.73 2.21-1.73 1.06.01 1.81.43 2.27 1.24zM67.7 286.23l-.68.32c-.19-.56-.58-.87-1.2-.87-.9 0-1.44.63-1.44 1.68 0 1.05.54 1.68 1.44 1.68.7 0 1.12-.33 1.26-.91l.67.23c-.31.81-.95 1.3-1.91 1.3-1.36 0-2.18-.86-2.18-2.29s.82-2.29 2.18-2.29c.93-.02 1.53.43 1.86 1.15zM72.91 285.15v4.41h-.63l-.04-.67c-.31.53-.89.76-1.61.76-.89 0-1.65-.45-1.65-1.61v-2.88h.72v2.7c0 .91.41 1.18 1.06 1.18.76 0 1.44-.44 1.44-1.48v-2.4h.71zM75.27 288.38c0 .45.12.59.49.59.24 0 .4-.03.66-.12l-.12.68c-.19.08-.43.12-.67.12-.73 0-1.08-.38-1.08-1.18v-5.34h.72v5.25zM81.6 287.35c0 1.44-.8 2.29-2.05 2.29-.67 0-1.21-.32-1.49-.78v2.54h-.72v-6.26h.63l.04.77c.26-.5.83-.86 1.54-.86 1.25.01 2.05.87 2.05 2.3zm-.72 0c0-1.02-.53-1.68-1.41-1.68-.85 0-1.41.63-1.41 1.62v.11c0 1 .56 1.62 1.41 1.62.88.01 1.41-.64 1.41-1.67zM85.67 289.25c-.28.25-.67.4-1.16.4-.67 0-1.24-.33-1.25-1.18v-2.71h-.9v-.61h.9v-1.06l.72-.19v1.25h1.66v.61h-1.66v2.58c0 .43.28.64.67.64.32 0 .56-.12.76-.33l.26.6zM86.51 283.77c0-.32.22-.53.54-.53s.54.21.54.53-.22.53-.54.53-.54-.21-.54-.53zm.9 5.79h-.72v-4.41h.72v4.41zM93.02 286.74v2.82h-.72v-2.58c0-.98-.49-1.31-1.11-1.31-.66 0-1.39.41-1.39 1.53v2.35h-.72v-4.41h.63l.04.69c.31-.56.89-.78 1.51-.78.97.01 1.76.55 1.76 1.69zM98.51 290.04c0 .87-1.01 1.41-2.22 1.41-1.42 0-2.07-.5-2.07-1.16 0-.41.3-.72.79-.86-.34-.16-.61-.42-.61-.81 0-.46.28-.73.67-.86-.43-.26-.66-.7-.66-1.21 0-.87.76-1.49 1.84-1.49.34 0 .65.06.92.18.17-.61.59-.9 1.27-.9l.16.62c-.6 0-.94.17-1.07.49.36.26.57.65.57 1.11 0 .87-.76 1.49-1.84 1.49-.26 0-.49-.03-.69-.08-.36.08-.5.26-.5.56 0 .31.24.48.59.48h1.49c.86-.02 1.36.4 1.36 1.03zm-.66.08c0-.32-.22-.52-.89-.52h-1.2c-.57 0-.86.21-.86.55 0 .43.49.71 1.48.71.95 0 1.47-.35 1.47-.74zm-2.68-3.57c0 .55.48.92 1.1.92s1.1-.37 1.1-.92-.48-.92-1.1-.92-1.1.37-1.1.92zM102.7 284.93c0 1.06-.7 1.75-1.79 1.75s-1.8-.69-1.8-1.75.7-1.75 1.8-1.75 1.79.69 1.79 1.75zm-.38 0c0-.86-.56-1.41-1.42-1.41-.87 0-1.42.56-1.42 1.41 0 .86.56 1.41 1.42 1.41.87 0 1.42-.56 1.42-1.41zm-1.03.24l.51.72h-.4l-.47-.69h-.36v.69h-.35v-1.9h.8c.44 0 .73.23.73.61.01.28-.18.49-.46.57zm-.71-.23h.44c.25 0 .39-.11.39-.34s-.14-.34-.39-.34h-.44v.68zM111.02 287.35c0 1.43-.82 2.29-2.18 2.29-1.36 0-2.17-.86-2.17-2.29s.82-2.29 2.17-2.29c1.37 0 2.18.86 2.18 2.29zm-3.63 0c0 1.05.55 1.68 1.46 1.68.91 0 1.46-.63 1.46-1.68 0-1.05-.55-1.68-1.46-1.68-.91 0-1.46.63-1.46 1.68zM116.36 286.74v2.82h-.72v-2.58c0-.98-.49-1.31-1.11-1.31-.66 0-1.39.41-1.39 1.53v2.35h-.72v-4.41h.63l.04.69c.31-.56.89-.78 1.51-.78.96.01 1.76.55 1.76 1.69zM19.77 297.23v2.82h-.72v-2.58c0-.98-.49-1.31-1.11-1.31-.66 0-1.39.41-1.39 1.54v2.34h-.72v-6.44h.72v2.69c.31-.53.85-.75 1.46-.75.97.01 1.76.55 1.76 1.69zM25.22 298.11h-3.39c.09.89.64 1.41 1.47 1.41.66 0 1.1-.23 1.27-.65l.6.31c-.34.6-.9.96-1.87.96-1.36 0-2.18-.86-2.18-2.29 0-1.43.76-2.29 2.12-2.29 1.3 0 2.01.93 2.01 2.06.01.2-.01.37-.03.49zm-3.38-.63h2.72c-.1-.81-.56-1.31-1.32-1.31-.8 0-1.29.48-1.4 1.31zM29.24 295.64l-.14.69c-.14-.07-.33-.11-.57-.11-.54 0-1.19.47-1.19 1.46v2.38h-.72v-4.41h.58l.1.72c.25-.54.74-.81 1.44-.81.16-.01.37.01.5.08zM37.2 299.49l-.04.56c-.13.04-.31.09-.54.09-.44 0-.73-.16-.81-.65-.29.41-.87.65-1.45.65-.84 0-1.53-.39-1.53-1.18 0-.66.59-1.18 1.75-1.38l1.2-.19v-.25c0-.58-.38-.97-1.05-.97-.59 0-1.04.28-1.29.84l-.53-.38c.23-.65.94-1.08 1.82-1.08 1.02 0 1.77.48 1.77 1.5v2.17c0 .21.09.32.34.32.12 0 .25-.02.36-.05zm-1.42-.92v-.61l-1.01.19c-.79.14-1.2.4-1.2.81 0 .37.31.56.82.56.72 0 1.39-.37 1.39-.95zM42.5 297.84c0 1.44-.8 2.29-2.05 2.29-.71 0-1.28-.35-1.54-.86l-.04.77h-.63v-6.44h.72v2.72c.28-.46.82-.78 1.49-.78 1.26.01 2.05.87 2.05 2.3zm-.71 0c0-1.02-.53-1.68-1.41-1.68-.85 0-1.41.63-1.41 1.62v.11c0 1 .56 1.62 1.41 1.62.88.01 1.41-.64 1.41-1.67zM47.9 293.61v6.44h-.63l-.04-.77c-.26.5-.83.86-1.54.86-1.25 0-2.05-.86-2.05-2.29 0-1.44.8-2.29 2.05-2.29.67 0 1.21.32 1.49.78v-2.72h.72zm-.72 4.29v-.11c0-1-.56-1.62-1.41-1.62-.88 0-1.41.65-1.41 1.68 0 1.02.53 1.68 1.41 1.68.85-.01 1.41-.64 1.41-1.63zM53.65 297.84c0 1.43-.82 2.29-2.17 2.29-1.36 0-2.18-.86-2.18-2.29 0-1.43.82-2.29 2.18-2.29 1.35 0 2.17.87 2.17 2.29zm-3.63 0c0 1.05.55 1.68 1.46 1.68.91 0 1.46-.63 1.46-1.68 0-1.05-.55-1.68-1.46-1.68-.92 0-1.46.63-1.46 1.68zM61.98 297.23v2.82h-.72v-2.75c0-.8-.47-1.13-1.06-1.13-.7 0-1.33.52-1.33 1.46v2.42h-.72v-2.75c0-.8-.47-1.13-1.06-1.13-.59 0-1.33.43-1.33 1.53v2.35h-.72v-4.41h.63l.04.69c.32-.54.88-.78 1.44-.78.63 0 1.25.27 1.55.86.28-.6 1-.86 1.56-.86.87 0 1.72.51 1.72 1.68zM67.43 298.11h-3.39c.09.89.64 1.41 1.47 1.41.66 0 1.1-.23 1.27-.65l.6.31c-.34.6-.9.96-1.87.96-1.36 0-2.18-.86-2.18-2.29 0-1.43.76-2.29 2.12-2.29 1.3 0 2.01.93 2.01 2.06.01.2-.01.37-.03.49zm-3.38-.63h2.72c-.1-.81-.56-1.31-1.32-1.31-.79 0-1.29.48-1.4 1.31zM72.78 297.23v2.82h-.72v-2.58c0-.98-.49-1.31-1.11-1.31-.66 0-1.39.41-1.39 1.53v2.35h-.72v-4.41h.63l.04.69c.31-.56.89-.78 1.51-.78.96.01 1.76.55 1.76 1.69zM75.35 299.56c0 .34-.23.57-.58.57s-.58-.23-.58-.57c0-.34.23-.57.58-.57s.58.23.58.57zM82.14 297.63h-1.42v2.42H80v-5.82h2.25c1.2 0 2 .65 2 1.7 0 .83-.5 1.41-1.31 1.62l1.67 2.5h-.85l-1.62-2.42zm-1.42-.66h1.52c.84 0 1.26-.34 1.26-1.04s-.41-1.04-1.26-1.04h-1.52v2.08zM89.51 298.11h-3.39c.09.89.64 1.41 1.46 1.41.66 0 1.11-.23 1.27-.65l.6.31c-.34.6-.9.96-1.87.96-1.36 0-2.17-.86-2.17-2.29 0-1.43.76-2.29 2.12-2.29 1.3 0 2.01.93 2.01 2.06.01.2-.01.37-.03.49zm-3.38-.63h2.72c-.1-.81-.56-1.31-1.32-1.31-.8 0-1.29.48-1.4 1.31zM90.51 299.14l.58-.4c.22.54.77.78 1.42.78.74 0 1.09-.29 1.09-.65 0-.33-.28-.52-1.18-.68-1.28-.23-1.74-.57-1.74-1.31 0-.71.67-1.32 1.77-1.32.96 0 1.53.34 1.78 1.06l-.61.35c-.2-.58-.6-.79-1.17-.79-.6 0-1.05.32-1.05.64 0 .38.3.57 1.21.72 1.26.2 1.71.57 1.71 1.3 0 .77-.73 1.31-1.88 1.31-.82-.01-1.59-.33-1.93-1.01zM99.55 295.64v4.41h-.63l-.04-.67c-.31.53-.89.76-1.61.76-.89 0-1.65-.45-1.65-1.61v-2.88h.72v2.7c0 .91.41 1.18 1.06 1.18.76 0 1.44-.44 1.44-1.48v-2.4h.71zM101.9 298.87c0 .45.12.59.49.59.24 0 .4-.03.66-.12l-.12.68c-.19.08-.43.12-.67.12-.73 0-1.08-.38-1.08-1.18v-5.34h.72v5.25zM106.54 299.74c-.28.25-.67.4-1.16.4-.67 0-1.24-.33-1.25-1.18v-2.71h-.9v-.61h.9v-1.06l.72-.19v1.25h1.66v.61h-1.66v2.58c0 .43.28.64.67.64.32 0 .56-.12.76-.33l.26.6zM107.16 299.14l.58-.4c.22.54.77.78 1.42.78.74 0 1.09-.29 1.09-.65 0-.33-.28-.52-1.18-.68-1.28-.23-1.74-.57-1.74-1.31 0-.71.67-1.32 1.77-1.32.96 0 1.53.34 1.78 1.06l-.61.35c-.2-.58-.6-.79-1.17-.79-.6 0-1.05.32-1.05.64 0 .38.3.57 1.21.72 1.26.2 1.71.57 1.71 1.3 0 .77-.73 1.31-1.88 1.31-.83-.01-1.59-.33-1.93-1.01zM22.77 307.72v2.82h-.72v-2.75c0-.8-.47-1.13-1.06-1.13-.7 0-1.33.52-1.33 1.46v2.42h-.72v-2.75c0-.8-.47-1.13-1.06-1.13-.59 0-1.33.43-1.33 1.53v2.35h-.72v-4.41h.63l.04.69c.32-.54.88-.78 1.44-.78.63 0 1.25.27 1.55.86.28-.6 1-.86 1.56-.86.87 0 1.72.51 1.72 1.68zM28.45 309.99l-.04.56c-.13.04-.31.09-.54.09-.44 0-.73-.16-.81-.65-.29.41-.87.65-1.45.65-.84 0-1.53-.39-1.53-1.18 0-.66.59-1.18 1.75-1.38l1.2-.19v-.25c0-.58-.38-.97-1.05-.97-.59 0-1.04.28-1.29.84l-.53-.38c.23-.65.94-1.08 1.82-1.08 1.02 0 1.77.48 1.77 1.5v2.17c0 .21.09.32.34.32.12-.01.25-.03.36-.05zm-1.42-.93v-.61l-1.01.18c-.79.14-1.2.4-1.2.81 0 .37.31.56.82.56.73.01 1.39-.36 1.39-.94zM30.94 311.28c-.35.86-.75 1.16-1.42 1.16-.45 0-.74-.11-.99-.37l.25-.6c.21.28.48.35.73.35.31 0 .59-.13.82-.71l.23-.57-1.88-4.4h.82l1.12 2.88.28.78.32-.87 1.05-2.79h.77l-2.1 5.14zM40.39 306.13l-1.87 4.41h-.72l-1.87-4.41h.82l1.42 3.7 1.46-3.7h.76zM45.27 309.99l-.04.56c-.13.04-.31.09-.54.09-.44 0-.73-.16-.81-.65-.29.41-.87.65-1.45.65-.84 0-1.53-.39-1.53-1.18 0-.66.59-1.18 1.75-1.38l1.2-.19v-.25c0-.58-.38-.97-1.05-.97-.59 0-1.04.28-1.29.84l-.53-.38c.23-.65.94-1.08 1.82-1.08 1.02 0 1.77.48 1.77 1.5v2.17c0 .21.09.32.34.32.11-.01.25-.03.36-.05zm-1.42-.93v-.61l-1.01.18c-.79.14-1.2.4-1.2.81 0 .37.31.56.82.56.72.01 1.39-.36 1.39-.94zM48.93 306.13l-.14.69c-.14-.07-.33-.12-.57-.12-.54 0-1.19.47-1.19 1.46v2.38h-.72v-4.41h.58l.1.72c.25-.54.74-.81 1.44-.81.16 0 .36.02.5.09zM51.69 311.28c-.35.86-.75 1.16-1.42 1.16-.45 0-.74-.11-.99-.37l.25-.6c.21.28.48.35.73.35.31 0 .59-.13.82-.71l.23-.57-1.88-4.4h.82l1.12 2.88.28.78.32-.87 1.05-2.79h.77l-2.1 5.14zM55.07 310.06c0 .34-.23.57-.58.57s-.58-.23-.58-.57c0-.34.23-.57.58-.57s.58.22.58.57z"/></svg>