<svg id="Layer_1" xmlns="http://www.w3.org/2000/svg" viewBox="0 0 300 600"><style>.st0{fill:#fff}</style><path class="st0" d="M18.98 211.1l-.49-1.1-.2-.64-.47.59-.95.93-.56-.57.96-.93.6-.45-.63-.21-1.09-.52.39-.72 1.09.52.57.38.06-.72.26-1.21h.86l-.31 1.3-.26.69.7-.24 1.27-.25.05.8-1.25.25-.73.05.36.58.5 1.09-.73.38zM27.45 207.15l-.22.92h-2.2l-1.31 5.68h-1.08l1.31-5.68h-2.23l.22-.92h5.51zM26.85 213.75l1.68-7.25h1.07l-.76 3.29-.16.12c.09-.27.22-.49.41-.68.19-.19.41-.33.66-.43s.52-.15.81-.15c.36 0 .67.08.93.24.26.16.44.4.55.69.11.3.12.66.03 1.09l-.72 3.07h-1.07l.7-3c.09-.38.05-.68-.11-.9-.16-.22-.41-.32-.76-.32-.27 0-.5.06-.71.18s-.38.29-.52.52-.25.52-.34.87l-.61 2.65h-1.08zM35.4 213.84c-.47 0-.88-.1-1.22-.29-.34-.2-.6-.46-.79-.8-.19-.34-.28-.72-.28-1.15 0-.53.11-1.02.32-1.46.21-.44.52-.8.93-1.06s.9-.4 1.47-.4c.43 0 .79.09 1.1.26.31.17.54.42.7.73s.24.67.24 1.08a2.934 2.934 0 0 1-.12.83h-4.03v-.82h3.45l-.39.28c.03-.08.04-.16.05-.24.01-.08.01-.15.01-.21 0-.22-.04-.41-.12-.57a.857.857 0 0 0-.36-.37c-.16-.09-.35-.13-.57-.13-.3 0-.56.06-.77.19-.21.12-.38.29-.5.5s-.22.44-.27.69-.08.5-.08.75c0 .28.06.52.17.72.11.2.26.36.46.48s.43.17.69.17c.31 0 .57-.07.77-.2s.35-.3.48-.51l.86.46c-.13.23-.31.42-.52.58-.22.16-.46.29-.74.38-.3.07-.61.11-.94.11zM41.32 215.85l1.64-7.1h.95l-.25 1.37-.12.07c.08-.32.21-.59.39-.82.18-.23.41-.4.68-.52s.56-.18.86-.18c.34 0 .65.08.92.25.27.17.48.41.64.73.16.32.24.7.24 1.15 0 .42-.06.81-.19 1.18-.13.37-.3.69-.53.98-.23.28-.49.5-.79.66-.3.16-.63.24-.99.24-.31 0-.6-.06-.85-.18s-.45-.3-.59-.53c-.15-.24-.23-.52-.25-.85l.17-.16-.85 3.72h-1.08zm3.3-2.86c.22 0 .43-.06.62-.17.19-.11.36-.27.51-.46.15-.2.26-.43.34-.69.08-.26.12-.53.12-.82 0-.29-.05-.53-.15-.73s-.23-.35-.41-.45a1.285 1.285 0 0 0-1.26.01c-.19.11-.36.27-.5.46-.14.2-.25.43-.33.7s-.11.55-.11.85c0 .39.1.7.3.94.19.24.48.36.87.36zM47.96 213.75l1.16-5h.9l-.16 1.35-.11-.1c.11-.28.25-.52.44-.72.18-.2.4-.35.63-.47.24-.11.49-.16.75-.16.11 0 .2.01.28.02.08.01.16.04.22.07l-.29.96c-.07-.03-.14-.06-.23-.08s-.19-.02-.31-.02c-.24 0-.47.06-.68.17-.21.11-.4.28-.56.5-.16.23-.28.52-.37.89l-.6 2.59h-1.07zM54.18 208.75l-1.16 5h-1.07l1.16-5h1.07zm-.25-.84c-.2 0-.36-.05-.48-.16s-.17-.25-.16-.44c.01-.23.08-.41.22-.54s.32-.19.53-.19c.21 0 .37.05.48.15.12.1.17.25.17.42-.01.25-.09.43-.23.56-.14.14-.31.2-.53.2zM54.62 213.75l1.16-5h.94l-.21 1.26-.1-.07c.14-.43.38-.75.73-.96.35-.22.73-.32 1.16-.32.35 0 .66.08.91.24.25.16.43.4.53.71s.1.68 0 1.11l-.71 3.04h-1.07l.7-2.98c.09-.39.06-.69-.08-.91-.15-.22-.39-.33-.71-.33-.27 0-.5.06-.71.18s-.38.29-.51.52c-.14.23-.25.52-.33.87l-.61 2.65h-1.09zm6.69 0l.69-2.98c.09-.39.06-.69-.09-.91-.15-.22-.38-.33-.7-.33-.27 0-.51.06-.71.18-.2.12-.38.29-.52.52-.14.23-.25.52-.33.87l-.1-.97c.18-.49.46-.86.83-1.11.38-.25.79-.37 1.25-.37.35 0 .66.08.91.24.25.16.43.4.53.71.1.31.11.68.01 1.11l-.71 3.04h-1.06zM66.07 213.83a1.804 1.804 0 0 1-1.65-1.01c-.16-.32-.24-.7-.24-1.13 0-.41.06-.79.19-1.16.12-.37.3-.69.52-.97.22-.28.49-.5.8-.67s.65-.24 1.01-.24c.27 0 .52.05.75.14a1.43 1.43 0 0 1 .87 1.07l.26-1.11h1.07l-1.16 5h-.95l.17-.93c-.17.31-.39.55-.68.73-.29.19-.61.28-.96.28zm.37-.85c.21 0 .42-.06.6-.17s.36-.27.5-.47c.14-.2.26-.43.34-.69.08-.26.12-.54.12-.83 0-.27-.05-.5-.15-.69s-.23-.35-.4-.46c-.17-.11-.37-.16-.6-.16-.25 0-.47.06-.67.17s-.37.27-.51.46c-.14.2-.25.42-.33.68-.08.26-.12.52-.12.81 0 .29.05.53.14.73.09.2.23.35.41.46.19.11.41.16.67.16zM70.09 213.75l1.16-5h.9l-.16 1.35-.11-.1c.11-.28.25-.52.44-.72.18-.2.4-.35.63-.47.24-.11.49-.16.75-.16.11 0 .2.01.28.02.08.01.16.04.22.07l-.29.96c-.07-.03-.14-.06-.23-.08s-.19-.02-.31-.02c-.24 0-.47.06-.68.17-.21.11-.4.28-.56.5-.16.23-.28.52-.37.89l-.6 2.59h-1.07zM74.08 215.9c-.27 0-.5-.03-.7-.09-.2-.06-.36-.14-.49-.25l.37-.83c.23.21.49.31.79.31.2 0 .38-.05.54-.16.16-.11.31-.27.45-.5l.39-.63-.88-5h1.07l.36 2.81.16 1.24.66-1.18 1.63-2.87h1.18L76 214.56c-.19.32-.39.58-.59.77-.2.2-.42.34-.64.43-.22.09-.45.14-.69.14zM84.85 213.84c-.49 0-.91-.1-1.25-.3-.34-.2-.61-.47-.79-.81-.19-.34-.28-.72-.28-1.13 0-.57.11-1.07.33-1.51.22-.44.53-.79.93-1.04s.86-.38 1.4-.38c.49 0 .91.1 1.25.3.34.2.6.47.78.81.18.34.27.72.27 1.14 0 .55-.11 1.05-.32 1.5-.22.44-.53.79-.93 1.05-.39.24-.86.37-1.39.37zm.02-.84c.22 0 .42-.05.61-.16s.36-.26.5-.45.25-.42.33-.67c.08-.26.11-.53.11-.82 0-.27-.04-.5-.13-.71-.09-.21-.23-.37-.42-.5-.19-.12-.43-.19-.72-.19-.22 0-.43.05-.62.16s-.36.25-.5.44-.25.41-.33.67c-.08.26-.12.54-.12.83 0 .25.05.49.14.7.09.21.23.38.42.5.2.14.44.2.73.2zM91.86 208.67c.35 0 .66.08.93.25.28.17.49.41.65.73.16.32.24.71.24 1.17a3.41 3.41 0 0 1-.71 2.13c-.22.28-.49.5-.79.66-.3.16-.64.24-1 .24-.29 0-.55-.05-.78-.15-.23-.1-.42-.24-.57-.43-.15-.18-.25-.39-.3-.62l-.27 1.1h-1.05l1.68-7.25h1.07l-.71 3.05a1.876 1.876 0 0 1 1.61-.88zm-.83 4.32c.22 0 .43-.06.62-.17.19-.11.36-.26.51-.46s.26-.42.34-.68c.08-.26.12-.54.12-.83 0-.3-.05-.55-.15-.74-.1-.2-.24-.35-.42-.45-.18-.1-.38-.15-.6-.15-.24 0-.46.06-.65.17-.2.11-.37.27-.51.46-.14.2-.25.43-.33.7s-.11.55-.11.85c0 .39.1.7.3.94.2.24.49.36.88.36zM93.7 215.9c-.22 0-.44-.03-.65-.08a1.14 1.14 0 0 1-.5-.27l.31-.84c.09.07.2.13.31.19.12.05.23.07.35.07.19 0 .35-.05.46-.16.11-.11.2-.31.27-.61l1.28-5.45h1.07l-1.31 5.66c-.12.52-.32.9-.61 1.14-.29.23-.62.35-.98.35zm2.66-7.99c-.2 0-.36-.05-.48-.16s-.17-.25-.16-.44c.01-.23.08-.41.22-.54s.32-.19.53-.19c.21 0 .37.05.48.15.12.1.17.25.17.42-.01.25-.09.43-.23.56-.14.14-.32.2-.53.2zM99.61 213.84c-.47 0-.88-.1-1.22-.29-.34-.2-.6-.46-.79-.8-.19-.34-.28-.72-.28-1.15 0-.53.11-1.02.32-1.46.21-.44.52-.8.93-1.06s.9-.4 1.47-.4c.43 0 .79.09 1.1.26.31.17.54.42.7.73s.24.67.24 1.08a2.934 2.934 0 0 1-.12.83h-4.03v-.82h3.45l-.39.28c.03-.08.04-.16.05-.24.01-.08.01-.15.01-.21 0-.22-.04-.41-.12-.57a.857.857 0 0 0-.36-.37c-.16-.09-.35-.13-.57-.13-.3 0-.56.06-.77.19-.21.12-.38.29-.5.5s-.22.44-.27.69-.08.5-.08.75c0 .28.06.52.17.72.11.2.26.36.46.48s.43.17.69.17c.31 0 .57-.07.77-.2s.35-.3.48-.51l.86.46c-.13.23-.31.42-.52.58-.22.16-.46.29-.74.38-.3.07-.61.11-.94.11zM105.34 213.84c-.48 0-.89-.1-1.23-.3-.34-.2-.61-.47-.79-.81-.18-.34-.27-.73-.27-1.15 0-.57.11-1.07.33-1.5.22-.44.54-.78.94-1.04.4-.25.88-.38 1.42-.38.4 0 .75.07 1.05.21s.55.33.73.57c.18.25.29.53.33.84l-1.07.22c-.01-.28-.11-.52-.29-.71s-.44-.29-.8-.29c-.23 0-.45.06-.64.17s-.36.26-.5.45-.25.41-.33.67c-.08.26-.11.53-.11.83 0 .27.05.5.15.71s.25.38.44.5.42.18.7.18c.23 0 .45-.06.66-.19s.35-.32.44-.56l1 .35c-.18.4-.46.71-.84.92-.38.2-.82.31-1.32.31zM108.56 209.59l.19-.84h3.55l-.19.84h-3.55zm1.83 4.24c-.35 0-.64-.06-.88-.19s-.42-.32-.52-.58-.11-.56-.03-.92l1.03-4.48 1.15-.32-1.13 4.81c-.07.29-.03.5.12.63s.34.19.57.19c.16 0 .3-.02.42-.06.12-.04.22-.09.31-.16l.08.79c-.17.11-.35.18-.53.22-.19.05-.39.07-.59.07zM114.54 208.75l-1.16 5h-1.07l1.16-5h1.07zm-.25-.84c-.2 0-.36-.05-.48-.16s-.17-.25-.16-.44c.01-.23.08-.41.22-.54s.32-.19.53-.19c.21 0 .37.05.48.15.12.1.17.25.17.42-.01.25-.09.43-.23.56-.14.14-.31.2-.53.2zM119.22 208.75h1.19l-3.07 5h-1.17l-.8-5h1.06l.55 4.46-.24-.04 2.48-4.42zM122.82 213.84c-.47 0-.88-.1-1.22-.29-.34-.2-.6-.46-.79-.8-.19-.34-.28-.72-.28-1.15 0-.53.11-1.02.32-1.46.21-.44.52-.8.93-1.06s.9-.4 1.47-.4c.43 0 .79.09 1.1.26.31.17.54.42.7.73s.24.67.24 1.08a2.934 2.934 0 0 1-.12.83h-4.03v-.82h3.45l-.39.28c.03-.08.04-.16.05-.24.01-.08.01-.15.01-.21 0-.22-.04-.41-.12-.57a.857.857 0 0 0-.36-.37c-.16-.09-.35-.13-.57-.13-.3 0-.56.06-.77.19-.21.12-.38.29-.5.5s-.22.44-.27.69-.08.5-.08.75c0 .28.06.52.17.72.11.2.26.36.46.48s.43.17.69.17c.31 0 .57-.07.77-.2s.35-.3.48-.51l.86.46c-.13.23-.31.42-.52.58-.22.16-.46.29-.74.38-.3.07-.6.11-.94.11zM16.17 225.75l-.46-5h1.04l.27 3.88 2-3.88h1.06l.42 3.93 2-3.93h1.14l-2.71 5h-1.17l-.45-3.7-1.95 3.7h-1.19zM25.65 225.83a1.804 1.804 0 0 1-1.65-1.01c-.16-.32-.24-.7-.24-1.13 0-.41.06-.79.19-1.16.12-.37.3-.69.52-.97.22-.28.49-.5.8-.67s.65-.24 1.01-.24c.27 0 .52.05.75.14a1.43 1.43 0 0 1 .87 1.07l.26-1.11h1.07l-1.16 5h-.95l.17-.93c-.17.31-.39.55-.68.73-.3.19-.61.28-.96.28zm.37-.85c.21 0 .42-.06.6-.17s.36-.27.5-.47c.14-.2.26-.43.34-.69.08-.26.12-.54.12-.83 0-.27-.05-.5-.15-.69s-.23-.35-.4-.46c-.17-.11-.37-.16-.6-.16-.25 0-.47.06-.67.17s-.37.27-.51.46c-.14.2-.25.42-.33.68-.08.26-.12.52-.12.81 0 .29.05.53.14.73.09.2.23.35.41.46.19.1.41.16.67.16zM31.98 225.86c-.38 0-.73-.06-1.04-.17-.32-.11-.59-.28-.83-.49s-.42-.46-.55-.75l.81-.49c.14.34.34.6.61.78.27.18.6.27.98.27.31 0 .54-.06.71-.18.17-.12.25-.28.25-.48 0-.15-.05-.27-.14-.35-.09-.09-.24-.16-.43-.22l-.8-.24c-.44-.12-.76-.3-.97-.54a1.2 1.2 0 0 1-.31-.82c0-.3.08-.56.24-.79s.39-.41.69-.54.65-.2 1.06-.2c.49 0 .92.1 1.29.3.37.2.65.49.82.87l-.77.52a1.408 1.408 0 0 0-.77-.75c-.18-.07-.37-.11-.58-.11-.33 0-.57.06-.73.17-.16.11-.24.26-.24.44 0 .17.06.29.19.38.13.09.28.16.45.21l.97.29c.35.1.62.26.81.48.19.22.29.47.29.77 0 .34-.08.63-.25.88-.17.25-.4.44-.7.57-.32.12-.67.19-1.06.19zM38.23 221.59l.19-.84h3.55l-.19.84h-3.55zm1.83 4.24c-.35 0-.64-.06-.88-.19s-.42-.32-.52-.58-.11-.56-.03-.92l1.03-4.48 1.15-.32-1.13 4.81c-.07.29-.03.5.12.63s.34.19.57.19c.16 0 .3-.02.42-.06.12-.04.22-.09.31-.16l.08.79c-.17.11-.35.18-.53.22-.19.05-.39.07-.59.07zM44.63 225.84c-.49 0-.91-.1-1.25-.3-.34-.2-.61-.47-.79-.81-.19-.34-.28-.72-.28-1.13 0-.57.11-1.07.33-1.51.22-.44.53-.79.93-1.04s.86-.38 1.4-.38c.49 0 .91.1 1.25.3.34.2.6.47.78.81.18.34.27.72.27 1.14 0 .55-.11 1.05-.32 1.5-.22.44-.53.79-.93 1.05-.4.24-.86.37-1.39.37zm.02-.84c.22 0 .42-.05.61-.16s.36-.26.5-.45.25-.42.33-.67c.08-.26.11-.53.11-.82 0-.27-.04-.5-.13-.71-.09-.21-.23-.37-.42-.5-.19-.12-.43-.19-.72-.19-.22 0-.43.05-.62.16s-.36.25-.5.44-.25.41-.33.67c-.08.26-.12.54-.12.83 0 .25.05.49.14.7.09.21.23.38.42.5.2.14.44.2.73.2zM53.75 225.84c-.47 0-.88-.1-1.22-.29-.34-.2-.6-.46-.79-.8-.19-.34-.28-.72-.28-1.15 0-.53.11-1.02.32-1.46.21-.44.52-.8.93-1.06s.9-.4 1.47-.4c.43 0 .79.09 1.1.26.31.17.54.42.7.73s.24.67.24 1.08a2.934 2.934 0 0 1-.12.83h-4.03v-.82h3.45l-.39.28c.03-.08.04-.16.05-.24.01-.08.01-.15.01-.21 0-.22-.04-.41-.12-.57a.857.857 0 0 0-.36-.37c-.16-.09-.35-.13-.57-.13-.3 0-.56.06-.77.19-.21.12-.38.29-.5.5s-.22.44-.27.69-.08.5-.08.75c0 .28.06.52.17.72.11.2.26.36.46.48s.43.17.69.17c.31 0 .57-.07.77-.2s.35-.3.48-.51l.86.46c-.13.23-.31.42-.52.58-.22.16-.46.29-.74.38-.3.06-.6.11-.94.11zM61.03 220.75h1.19l-3.07 5h-1.17l-.8-5h1.06l.55 4.46-.24-.04 2.48-4.42zM64.22 225.83a1.804 1.804 0 0 1-1.65-1.01c-.16-.32-.24-.7-.24-1.13 0-.41.06-.79.19-1.16.12-.37.3-.69.52-.97.22-.28.49-.5.8-.67s.65-.24 1.01-.24c.27 0 .52.05.75.14a1.43 1.43 0 0 1 .87 1.07l.26-1.11h1.07l-1.16 5h-.95l.17-.93c-.17.31-.39.55-.68.73-.29.19-.61.28-.96.28zm.37-.85c.21 0 .42-.06.6-.17s.36-.27.5-.47c.14-.2.26-.43.34-.69.08-.26.12-.54.12-.83 0-.27-.05-.5-.15-.69s-.23-.35-.4-.46c-.17-.11-.37-.16-.6-.16-.25 0-.47.06-.67.17s-.37.27-.51.46c-.14.2-.25.42-.33.68-.08.26-.12.52-.12.81 0 .29.05.53.14.73.09.2.23.35.41.46.19.1.41.16.67.16zM69.74 225.83c-.5 0-.85-.15-1.05-.44s-.24-.68-.13-1.16l1.33-5.73h1.07l-1.33 5.74c-.07.26-.05.45.05.56s.27.17.52.17c.09 0 .17 0 .25-.01.07-.01.13-.02.19-.03l-.23.78c-.11.04-.21.07-.31.08-.1.03-.22.04-.36.04zM73.28 225.83c-.36 0-.68-.08-.94-.24a1.36 1.36 0 0 1-.58-.69c-.12-.3-.12-.66-.02-1.09l.71-3.06h1.07l-.69 2.97c-.09.4-.06.71.11.92s.42.31.77.31c.27 0 .5-.06.7-.18.2-.12.38-.29.52-.52s.25-.52.32-.85l.62-2.65h1.07l-1.16 5h-.95l.21-1.26.1.08c-.13.42-.37.73-.71.94s-.72.32-1.15.32zM79.52 225.83a1.804 1.804 0 0 1-1.65-1.01c-.16-.32-.24-.7-.24-1.13 0-.41.06-.79.19-1.16.12-.37.3-.69.52-.97.22-.28.49-.5.8-.67s.65-.24 1.01-.24c.27 0 .52.05.75.14a1.43 1.43 0 0 1 .87 1.07l.26-1.11h1.07l-1.16 5h-.95l.17-.93c-.17.31-.39.55-.68.73-.3.19-.61.28-.96.28zm.37-.85c.21 0 .42-.06.6-.17s.36-.27.5-.47c.14-.2.26-.43.34-.69.08-.26.12-.54.12-.83 0-.27-.05-.5-.15-.69s-.23-.35-.4-.46c-.17-.11-.37-.16-.6-.16-.25 0-.47.06-.67.17s-.37.27-.51.46c-.14.2-.25.42-.33.68-.08.26-.12.52-.12.81 0 .29.05.53.14.73.09.2.23.35.41.46.19.1.41.16.67.16zM83.91 221.59l.19-.84h3.55l-.19.84h-3.55zm1.83 4.24c-.35 0-.64-.06-.88-.19s-.42-.32-.52-.58-.11-.56-.03-.92l1.03-4.48 1.15-.32-1.13 4.81c-.07.29-.03.5.12.63s.34.19.57.19c.16 0 .3-.02.42-.06.12-.04.22-.09.31-.16l.08.79c-.17.11-.35.18-.53.22-.19.05-.39.07-.59.07zM90.27 225.84c-.47 0-.88-.1-1.22-.29-.34-.2-.6-.46-.79-.8-.19-.34-.28-.72-.28-1.15 0-.53.11-1.02.32-1.46.21-.44.52-.8.93-1.06s.9-.4 1.47-.4c.43 0 .79.09 1.1.26.31.17.54.42.7.73s.24.67.24 1.08a2.934 2.934 0 0 1-.12.83h-4.03v-.82h3.45l-.39.28c.03-.08.04-.16.05-.24.01-.08.01-.15.01-.21 0-.22-.04-.41-.12-.57a.857.857 0 0 0-.36-.37c-.16-.09-.35-.13-.57-.13-.3 0-.56.06-.77.19-.21.12-.38.29-.5.5s-.22.44-.27.69-.08.5-.08.75c0 .28.06.52.17.72.11.2.26.36.46.48s.43.17.69.17c.31 0 .57-.07.77-.2s.35-.3.48-.51l.86.46c-.13.23-.31.42-.52.58-.22.16-.46.29-.74.38-.3.06-.61.11-.94.11zM99.27 225.84c-.49 0-.91-.1-1.25-.3-.34-.2-.61-.47-.79-.81-.19-.34-.28-.72-.28-1.13 0-.57.11-1.07.33-1.51.22-.44.53-.79.93-1.04s.86-.38 1.4-.38c.49 0 .91.1 1.25.3.34.2.6.47.78.81.18.34.27.72.27 1.14 0 .55-.11 1.05-.32 1.5-.22.44-.53.79-.93 1.05-.39.24-.86.37-1.39.37zm.02-.84c.22 0 .42-.05.61-.16s.36-.26.5-.45.25-.42.33-.67c.08-.26.11-.53.11-.82 0-.27-.04-.5-.13-.71-.09-.21-.23-.37-.42-.5-.19-.12-.43-.19-.72-.19-.22 0-.43.05-.62.16s-.36.25-.5.44-.25.41-.33.67c-.08.26-.12.54-.12.83 0 .25.05.49.14.7.09.21.23.38.42.5.2.14.44.2.73.2zM106.65 220.75h1.19l-3.07 5h-1.17l-.8-5h1.06l.55 4.46-.24-.04 2.48-4.42zM110.25 225.84c-.47 0-.88-.1-1.22-.29-.34-.2-.6-.46-.79-.8-.19-.34-.28-.72-.28-1.15 0-.53.11-1.02.32-1.46.21-.44.52-.8.93-1.06s.9-.4 1.47-.4c.43 0 .79.09 1.1.26.31.17.54.42.7.73s.24.67.24 1.08a2.934 2.934 0 0 1-.12.83h-4.03v-.82h3.45l-.39.28c.03-.08.04-.16.05-.24.01-.08.01-.15.01-.21 0-.22-.04-.41-.12-.57a.857.857 0 0 0-.36-.37c-.16-.09-.35-.13-.57-.13-.3 0-.56.06-.77.19-.21.12-.38.29-.5.5s-.22.44-.27.69-.08.5-.08.75c0 .28.06.52.17.72.11.2.26.36.46.48s.43.17.69.17c.31 0 .57-.07.77-.2s.35-.3.48-.51l.86.46c-.13.23-.31.42-.52.58-.22.16-.46.29-.74.38-.3.06-.6.11-.94.11zM113.44 225.75l1.16-5h.9l-.16 1.35-.11-.1c.11-.28.25-.52.44-.72.18-.2.4-.35.63-.47.24-.11.49-.16.75-.16.11 0 .2.01.28.02.08.01.16.04.22.07l-.29.96c-.07-.03-.14-.06-.23-.08s-.19-.02-.31-.02c-.24 0-.47.06-.68.17-.21.11-.4.28-.56.5-.16.23-.28.52-.37.89l-.6 2.59h-1.07zM119.45 225.83a1.804 1.804 0 0 1-1.65-1.01c-.16-.32-.24-.7-.24-1.13 0-.41.06-.79.19-1.16.12-.37.3-.69.52-.97.22-.28.49-.5.8-.67s.65-.24 1.01-.24c.27 0 .52.05.75.14a1.43 1.43 0 0 1 .87 1.07l.26-1.11h1.07l-1.16 5h-.95l.17-.93c-.17.31-.39.55-.68.73-.29.19-.61.28-.96.28zm.37-.85c.21 0 .42-.06.6-.17s.36-.27.5-.47c.14-.2.26-.43.34-.69.08-.26.12-.54.12-.83 0-.27-.05-.5-.15-.69s-.23-.35-.4-.46c-.17-.11-.37-.16-.6-.16-.25 0-.47.06-.67.17s-.37.27-.51.46c-.14.2-.25.42-.33.68-.08.26-.12.52-.12.81 0 .29.05.53.14.73.09.2.23.35.41.46.19.1.41.16.67.16zM124.97 225.83c-.5 0-.85-.15-1.05-.44s-.24-.68-.13-1.16l1.33-5.73h1.07l-1.33 5.74c-.07.26-.05.45.05.56s.27.17.52.17c.09 0 .17 0 .25-.01.07-.01.13-.02.19-.03l-.23.78c-.11.04-.21.07-.31.08-.1.03-.22.04-.36.04zM128.08 225.83c-.5 0-.85-.15-1.05-.44s-.24-.68-.13-1.16l1.33-5.73h1.07l-1.33 5.74c-.07.26-.05.45.05.56s.27.17.52.17c.09 0 .17 0 .25-.01.07-.01.13-.02.19-.03l-.23.78c-.11.04-.21.07-.31.08-.1.03-.22.04-.36.04zM14.74 239.85l1.64-7.1h.95l-.25 1.37-.12.07c.08-.32.21-.59.39-.82.18-.23.41-.4.68-.52s.56-.18.86-.18c.34 0 .65.08.92.25.27.17.48.41.64.73.16.32.24.7.24 1.15 0 .42-.06.81-.19 1.18-.13.37-.3.69-.53.98-.23.28-.49.5-.79.66-.3.16-.63.24-.99.24-.31 0-.6-.06-.85-.18s-.45-.3-.59-.53c-.15-.24-.23-.52-.25-.85l.17-.16-.85 3.72h-1.08zm3.3-2.86c.22 0 .43-.06.62-.17.19-.11.36-.27.51-.46.15-.2.26-.43.34-.69.08-.26.12-.53.12-.82 0-.29-.05-.53-.15-.73s-.23-.35-.41-.45a1.285 1.285 0 0 0-1.26.01c-.19.11-.36.27-.5.46-.14.2-.25.43-.33.7s-.11.55-.11.85c0 .39.1.7.3.94.19.24.48.36.87.36zM23.54 237.83a1.804 1.804 0 0 1-1.65-1.01c-.16-.32-.24-.7-.24-1.13 0-.41.06-.79.19-1.16.12-.37.3-.69.52-.97.22-.28.49-.5.8-.67s.65-.24 1.01-.24c.27 0 .52.05.75.14a1.43 1.43 0 0 1 .87 1.07l.26-1.11h1.07l-1.16 5h-.95l.17-.93c-.17.31-.39.55-.68.73-.3.18-.61.28-.96.28zm.37-.85c.21 0 .42-.06.6-.17s.36-.27.5-.47c.14-.2.26-.43.34-.69.08-.26.12-.54.12-.83 0-.27-.05-.5-.15-.69s-.23-.35-.4-.46c-.17-.11-.37-.16-.6-.16-.25 0-.47.06-.67.17s-.37.27-.51.46c-.14.2-.25.42-.33.68-.08.26-.12.52-.12.81 0 .29.05.53.14.73.09.2.23.35.41.46.19.1.41.16.67.16zM27.93 233.59l.19-.84h3.55l-.19.84h-3.55zm1.83 4.24c-.35 0-.64-.06-.88-.19s-.42-.32-.52-.58-.11-.56-.03-.92l1.03-4.48 1.15-.32-1.13 4.81c-.07.29-.03.5.12.63s.34.19.57.19c.16 0 .3-.02.42-.06.12-.04.22-.09.31-.16l.08.79c-.17.11-.35.18-.53.22-.19.05-.39.07-.59.07zM33.92 232.75l-1.16 5h-1.07l1.16-5h1.07zm-.25-.84c-.2 0-.36-.05-.48-.16s-.17-.25-.16-.44c.01-.23.08-.41.22-.54s.32-.19.53-.19c.21 0 .37.05.48.15.12.1.17.25.17.42-.01.25-.09.43-.23.56-.14.13-.32.2-.53.2zM36.92 237.84c-.47 0-.88-.1-1.22-.29-.34-.2-.6-.46-.79-.8-.19-.34-.28-.72-.28-1.15 0-.53.11-1.02.32-1.46.21-.44.52-.8.93-1.06s.9-.4 1.47-.4c.43 0 .79.09 1.1.26.31.17.54.42.7.73s.24.67.24 1.08a2.934 2.934 0 0 1-.12.83h-4.03v-.82h3.45l-.39.28c.03-.08.04-.16.05-.24.01-.08.01-.15.01-.21 0-.22-.04-.41-.12-.57a.857.857 0 0 0-.36-.37c-.16-.09-.35-.13-.57-.13-.3 0-.56.06-.77.19-.21.12-.38.29-.5.5s-.22.44-.27.69-.08.5-.08.75c0 .28.06.52.17.72.11.2.26.36.46.48s.41.15.68.15c.31 0 .57-.07.77-.2s.35-.3.48-.51l.86.46c-.13.23-.31.42-.52.58-.22.16-.46.29-.74.38-.3.08-.6.13-.93.13zM40.1 237.75l1.16-5h.94l-.2 1.26-.1-.07c.14-.43.39-.75.74-.96.35-.22.74-.32 1.17-.32.37 0 .69.08.95.24.26.16.44.4.55.7.11.3.11.67.01 1.1l-.71 3.05h-1.07l.7-3c.09-.38.05-.68-.11-.9-.16-.22-.41-.32-.76-.32-.27 0-.5.06-.71.18s-.38.29-.52.52-.25.52-.34.87l-.61 2.65H40.1zM46.43 233.59l.19-.84h3.55l-.19.84h-3.55zm1.83 4.24c-.35 0-.64-.06-.88-.19s-.42-.32-.52-.58-.11-.56-.03-.92l1.03-4.48 1.15-.32-1.13 4.81c-.07.29-.03.5.12.63s.34.19.57.19c.16 0 .3-.02.42-.06.12-.04.22-.09.31-.16l.08.79c-.17.11-.35.18-.53.22-.18.05-.38.07-.59.07zM55.71 237.86c-.38 0-.73-.06-1.04-.17-.32-.11-.59-.28-.83-.49s-.42-.46-.55-.75l.81-.49c.14.34.34.6.61.78.27.18.6.27.98.27.31 0 .54-.06.71-.18.17-.12.25-.28.25-.48 0-.15-.05-.27-.14-.35-.09-.09-.24-.16-.43-.22l-.8-.24c-.44-.12-.76-.3-.97-.54a1.2 1.2 0 0 1-.31-.82c0-.3.08-.56.24-.79s.39-.41.69-.54.65-.2 1.06-.2c.49 0 .92.1 1.29.3.37.2.65.49.82.87l-.77.52a1.408 1.408 0 0 0-.77-.75c-.18-.07-.37-.11-.58-.11-.33 0-.57.06-.73.17-.16.11-.24.26-.24.44 0 .17.06.29.19.38.13.09.28.16.45.21l.97.29c.35.1.62.26.81.48.19.22.29.47.29.77 0 .34-.08.63-.25.88-.17.25-.4.44-.7.57-.32.12-.66.19-1.06.19zM60.61 237.83a1.804 1.804 0 0 1-1.65-1.01c-.16-.32-.24-.7-.24-1.13 0-.41.06-.79.19-1.16.12-.37.3-.69.52-.97.22-.28.49-.5.8-.67s.65-.24 1.01-.24c.27 0 .52.05.75.14a1.43 1.43 0 0 1 .87 1.07l.26-1.11h1.07l-1.16 5h-.95l.17-.93c-.17.31-.39.55-.68.73-.29.18-.61.28-.96.28zm.37-.85c.21 0 .42-.06.6-.17s.36-.27.5-.47c.14-.2.26-.43.34-.69.08-.26.12-.54.12-.83 0-.27-.05-.5-.15-.69s-.23-.35-.4-.46c-.17-.11-.37-.16-.6-.16-.25 0-.47.06-.67.17s-.37.27-.51.46c-.14.2-.25.42-.33.68-.08.26-.12.52-.12.81 0 .29.05.53.14.73.09.2.23.35.41.46.19.1.41.16.67.16zM65 233.59l.19-.84h3.55l-.19.84H65zm1.83 4.24c-.35 0-.64-.06-.88-.19s-.42-.32-.52-.58-.11-.56-.03-.92l1.03-4.48 1.15-.32-1.13 4.81c-.07.29-.03.5.12.63s.34.19.57.19c.16 0 .3-.02.42-.06.12-.04.22-.09.31-.16l.08.79c-.17.11-.35.18-.53.22-.19.05-.38.07-.59.07zM70.99 232.75l-1.16 5h-1.07l1.16-5h1.07zm-.25-.84c-.2 0-.36-.05-.48-.16s-.17-.25-.16-.44c.01-.23.08-.41.22-.54s.32-.19.53-.19c.21 0 .37.05.48.15.12.1.17.25.17.42-.01.25-.09.43-.23.56-.14.13-.32.2-.53.2zM73.74 237.86c-.38 0-.73-.06-1.04-.17-.32-.11-.59-.28-.83-.49s-.42-.46-.55-.75l.81-.49c.14.34.34.6.61.78.27.18.6.27.98.27.31 0 .54-.06.71-.18.17-.12.25-.28.25-.48 0-.15-.05-.27-.14-.35-.09-.09-.24-.16-.43-.22l-.8-.24c-.44-.12-.76-.3-.97-.54a1.2 1.2 0 0 1-.31-.82c0-.3.08-.56.24-.79s.39-.41.69-.54.65-.2 1.06-.2c.49 0 .92.1 1.29.3.37.2.65.49.82.87l-.77.52a1.408 1.408 0 0 0-.77-.75c-.18-.07-.37-.11-.58-.11-.33 0-.57.06-.73.17-.16.11-.24.26-.24.44 0 .17.06.29.19.38.13.09.28.16.45.21l.97.29c.35.1.62.26.81.48.19.22.29.47.29.77 0 .34-.08.63-.25.88-.17.25-.4.44-.7.57-.32.12-.67.19-1.06.19zM76.96 233.59l.2-.84h3.52l-.2.84h-3.52zm.02 4.16l1.34-5.8c.09-.37.21-.66.38-.88.17-.22.38-.38.63-.48.25-.1.54-.15.87-.15.21 0 .4.02.57.06s.31.1.4.17l-.3.78a.843.843 0 0 0-.25-.11c-.11-.03-.23-.05-.36-.05-.27 0-.48.06-.63.19-.15.12-.25.34-.32.65l-.16.71-.04.27-1.07 4.64h-1.06zM82.67 237.83a1.804 1.804 0 0 1-1.65-1.01c-.16-.32-.24-.7-.24-1.13 0-.41.06-.79.19-1.16.12-.37.3-.69.52-.97.22-.28.49-.5.8-.67s.65-.24 1.01-.24c.27 0 .52.05.75.14a1.43 1.43 0 0 1 .87 1.07l.26-1.11h1.07l-1.16 5h-.95l.17-.93c-.17.31-.39.55-.68.73-.3.18-.61.28-.96.28zm.37-.85c.21 0 .42-.06.6-.17s.36-.27.5-.47c.14-.2.26-.43.34-.69.08-.26.12-.54.12-.83 0-.27-.05-.5-.15-.69s-.23-.35-.4-.46c-.17-.11-.37-.16-.6-.16-.25 0-.47.06-.67.17s-.37.27-.51.46c-.14.2-.25.42-.33.68-.08.26-.12.52-.12.81 0 .29.05.53.14.73.09.2.23.35.41.46.19.1.41.16.67.16zM89.27 237.84c-.48 0-.89-.1-1.23-.3-.34-.2-.61-.47-.79-.81-.18-.34-.27-.73-.27-1.15 0-.57.11-1.07.33-1.5.22-.44.54-.78.94-1.04.4-.25.88-.38 1.42-.38.4 0 .75.07 1.05.21s.55.33.73.57c.18.25.29.53.33.84l-1.07.22c-.01-.28-.11-.52-.29-.71s-.44-.29-.8-.29c-.23 0-.45.06-.64.17s-.36.26-.5.45-.25.41-.33.67c-.08.26-.11.53-.11.83 0 .27.05.5.15.71s.25.38.44.5.42.18.7.18c.23 0 .45-.06.66-.19s.35-.32.44-.56l1 .35c-.18.4-.46.71-.84.92-.38.2-.82.31-1.32.31zM92.49 233.59l.19-.84h3.55l-.19.84h-3.55zm1.83 4.24c-.35 0-.64-.06-.88-.19s-.42-.32-.52-.58-.11-.56-.03-.92l1.03-4.48 1.15-.32-1.13 4.81c-.07.29-.03.5.12.63s.34.19.57.19c.16 0 .3-.02.42-.06.12-.04.22-.09.31-.16l.08.79c-.17.11-.35.18-.53.22-.19.05-.39.07-.59.07zM98.48 232.75l-1.16 5h-1.07l1.16-5h1.07zm-.25-.84c-.2 0-.36-.05-.48-.16s-.17-.25-.16-.44c.01-.23.08-.41.22-.54s.32-.19.53-.19c.21 0 .37.05.48.15.12.1.17.25.17.42-.01.25-.09.43-.23.56-.14.13-.32.2-.53.2zM101.52 237.84c-.49 0-.91-.1-1.25-.3-.34-.2-.61-.47-.79-.81-.19-.34-.28-.72-.28-1.13 0-.57.11-1.07.33-1.51.22-.44.53-.79.93-1.04s.86-.38 1.4-.38c.49 0 .91.1 1.25.3.34.2.6.47.78.81.18.34.27.72.27 1.14 0 .55-.11 1.05-.32 1.5-.22.44-.53.79-.93 1.05-.39.24-.86.37-1.39.37zm.02-.84c.22 0 .42-.05.61-.16s.36-.26.5-.45.25-.42.33-.67c.08-.26.11-.53.11-.82 0-.27-.04-.5-.13-.71-.09-.21-.23-.37-.42-.5-.19-.12-.43-.19-.72-.19-.22 0-.43.05-.62.16s-.36.25-.5.44-.25.41-.33.67c-.08.26-.12.54-.12.83 0 .25.05.49.14.7.09.21.23.38.42.5.2.13.44.2.73.2zM104.87 237.75l1.16-5h.94l-.21 1.26-.1-.07c.14-.43.39-.75.74-.96.35-.22.74-.32 1.17-.32.37 0 .69.08.95.24.26.16.44.4.55.7.11.3.11.67.01 1.1l-.71 3.05h-1.07l.7-3c.09-.38.05-.68-.11-.9-.16-.22-.41-.32-.76-.32-.27 0-.5.06-.71.18s-.38.29-.52.52-.25.52-.34.87l-.61 2.65h-1.08zM114.84 237.75l-.46-5h1.04l.27 3.88 2-3.88h1.06l.42 3.93 2-3.93h1.14l-2.71 5h-1.17l-.45-3.7-1.95 3.7h-1.19zM124.38 232.75l-1.16 5h-1.07l1.16-5h1.07zm-.25-.84c-.2 0-.36-.05-.48-.16s-.17-.25-.16-.44c.01-.23.08-.41.22-.54s.32-.19.53-.19c.21 0 .37.05.48.15.12.1.17.25.17.42-.01.25-.09.43-.23.56a.74.74 0 0 1-.53.2zM125.18 233.59l.19-.84h3.55l-.19.84h-3.55zm1.83 4.24c-.35 0-.64-.06-.88-.19s-.42-.32-.52-.58-.11-.56-.03-.92l1.03-4.48 1.15-.32-1.13 4.81c-.07.29-.03.5.12.63s.34.19.57.19c.16 0 .3-.02.42-.06.12-.04.22-.09.31-.16l.08.79c-.17.11-.35.18-.53.22-.19.05-.38.07-.59.07zM128.98 237.75l1.68-7.25h1.07l-.76 3.29-.16.12c.09-.27.22-.49.41-.68.19-.19.41-.33.66-.43s.52-.15.81-.15c.36 0 .67.08.93.24.26.16.44.4.55.69.11.3.12.66.03 1.09l-.72 3.07h-1.07l.7-3c.09-.38.05-.68-.11-.9-.16-.22-.41-.32-.76-.32-.27 0-.5.06-.71.18s-.38.29-.52.52-.25.52-.34.87l-.61 2.65h-1.08zM18.61 249.84c-.53 0-1.01-.11-1.44-.33-.43-.22-.78-.54-1.03-.96-.25-.42-.38-.94-.38-1.55 0-.51.07-1 .22-1.47s.37-.89.66-1.27c.29-.37.66-.67 1.08-.89.43-.22.92-.33 1.48-.33.44 0 .83.07 1.17.22.34.14.63.36.86.64s.4.65.51 1.08l-1.09.31c-.09-.47-.26-.8-.51-1.01-.25-.21-.59-.31-1.02-.31-.37 0-.7.09-.98.26-.28.18-.52.41-.71.69-.19.28-.33.6-.43.95-.1.35-.15.7-.15 1.05 0 .41.08.77.23 1.06.16.29.37.52.65.68s.58.24.93.24c.41 0 .73-.09.96-.27.24-.18.43-.42.59-.73l1 .44c-.27.45-.62.81-1.04 1.08-.39.29-.92.42-1.56.42zM24.55 249.83c-.49 0-.91-.1-1.25-.3-.34-.2-.61-.47-.79-.81-.19-.34-.28-.72-.28-1.13 0-.57.11-1.07.33-1.51.22-.44.53-.79.93-1.04s.86-.38 1.4-.38c.49 0 .91.1 1.25.3.34.2.6.47.78.81.18.34.27.72.27 1.14 0 .55-.11 1.05-.32 1.5-.22.44-.53.79-.93 1.05-.39.25-.86.37-1.39.37zm.02-.84c.22 0 .42-.05.61-.16s.36-.26.5-.45.25-.42.33-.67c.08-.26.11-.53.11-.82 0-.27-.04-.5-.13-.71-.09-.21-.23-.37-.42-.5-.19-.12-.43-.19-.72-.19-.22 0-.43.05-.62.16s-.36.25-.5.44-.25.41-.33.67c-.08.26-.12.54-.12.83 0 .25.05.49.14.7.09.21.23.38.42.5.2.14.44.2.73.2zM30.51 249.83c-.49 0-.91-.1-1.25-.3-.34-.2-.61-.47-.79-.81-.19-.34-.28-.72-.28-1.13 0-.57.11-1.07.33-1.51.22-.44.53-.79.93-1.04s.86-.38 1.4-.38c.49 0 .91.1 1.25.3.34.2.6.47.78.81.18.34.27.72.27 1.14 0 .55-.11 1.05-.32 1.5-.22.44-.53.79-.93 1.05-.39.25-.86.37-1.39.37zm.02-.84c.22 0 .42-.05.61-.16s.36-.26.5-.45.25-.42.33-.67c.08-.26.11-.53.11-.82 0-.27-.04-.5-.13-.71-.09-.21-.23-.37-.42-.5-.19-.12-.43-.19-.72-.19-.22 0-.43.05-.62.16s-.36.25-.5.44-.25.41-.33.67c-.08.26-.12.54-.12.83 0 .25.05.49.14.7.09.21.23.38.42.5.2.14.44.2.73.2zM35.37 249.82c-.5 0-.85-.15-1.05-.44s-.24-.68-.13-1.16l1.33-5.73h1.07l-1.33 5.74c-.07.26-.05.45.05.56s.27.17.52.17c.09 0 .17 0 .25-.01.07-.01.13-.02.19-.03l-.23.78c-.11.04-.21.07-.31.08-.11.04-.22.04-.36.04zM40.11 249.83c-.48 0-.92-.07-1.32-.21-.4-.14-.75-.35-1.04-.62-.29-.27-.53-.61-.7-1.02l.87-.58c.13.36.3.65.53.88.23.22.49.39.79.49.3.1.61.15.93.15.29 0 .54-.05.73-.15.19-.1.34-.22.44-.37s.15-.32.15-.49c0-.22-.07-.39-.21-.51-.14-.12-.35-.23-.62-.31l-1.04-.3c-.33-.1-.62-.23-.85-.4a1.78 1.78 0 0 1-.55-.58c-.13-.22-.19-.47-.19-.75 0-.39.1-.73.31-1.04s.5-.55.87-.72c.37-.17.8-.26 1.3-.26.66 0 1.21.13 1.65.39.44.26.78.65 1 1.17l-.88.56c-.1-.32-.25-.56-.44-.73s-.4-.29-.64-.35c-.24-.07-.48-.1-.75-.1-.29 0-.54.04-.73.12-.2.08-.34.2-.44.35a.85.85 0 0 0-.15.48c0 .2.08.38.24.54.16.16.38.28.65.36l1.12.34c.49.15.86.35 1.1.61.24.26.36.59.36.98 0 .43-.11.79-.33 1.1s-.52.55-.89.72c-.4.17-.81.25-1.27.25zM45.95 249.83c-.48 0-.89-.1-1.23-.3-.34-.2-.61-.47-.79-.81-.18-.34-.27-.73-.27-1.15 0-.57.11-1.07.33-1.5.22-.44.54-.78.94-1.04.4-.25.88-.38 1.42-.38.4 0 .75.07 1.05.21s.55.33.73.57c.18.25.29.53.33.84l-1.07.22c-.01-.28-.11-.52-.29-.71s-.44-.29-.8-.29c-.23 0-.45.06-.64.17s-.36.26-.5.45-.25.41-.33.67c-.08.26-.11.53-.11.83 0 .27.05.5.15.71s.25.38.44.5.42.18.7.18c.23 0 .45-.06.66-.19s.35-.32.44-.56l1 .35c-.18.4-.46.71-.84.92-.39.21-.83.31-1.32.31zM50.7 249.82c-.36 0-.68-.08-.94-.24a1.36 1.36 0 0 1-.58-.69c-.12-.3-.12-.66-.02-1.09l.71-3.06h1.07l-.69 2.97c-.09.4-.06.71.11.92s.42.31.77.31c.27 0 .5-.06.7-.18.2-.12.38-.29.52-.52s.25-.52.32-.85l.62-2.65h1.07l-1.16 5h-.95l.21-1.26.1.08c-.13.42-.37.73-.71.94s-.72.32-1.15.32zM56.29 249.82c-.5 0-.85-.15-1.05-.44s-.24-.68-.13-1.16l1.33-5.73h1.07l-1.33 5.74c-.07.26-.05.45.05.56s.27.17.52.17c.09 0 .17 0 .25-.01.07-.01.13-.02.19-.03l-.23.78c-.11.04-.21.07-.31.08-.1.04-.22.04-.36.04zM57.42 251.84l1.64-7.1h.95l-.25 1.37-.12.07c.08-.32.21-.59.39-.82.18-.23.41-.4.68-.52s.56-.18.86-.18c.34 0 .65.08.92.25.27.17.48.41.64.73.16.32.24.7.24 1.15 0 .42-.06.81-.19 1.18-.13.37-.3.69-.53.98-.23.28-.49.5-.79.66-.3.16-.63.24-.99.24-.31 0-.6-.06-.85-.18s-.45-.3-.59-.53c-.15-.24-.23-.52-.25-.85l.17-.16-.85 3.72h-1.08zm3.3-2.86c.22 0 .43-.06.62-.17.19-.11.36-.27.51-.46.15-.2.26-.43.34-.69.08-.26.12-.53.12-.82 0-.29-.05-.53-.15-.73s-.23-.35-.41-.45a1.285 1.285 0 0 0-1.26.01c-.19.11-.36.27-.5.46-.14.2-.25.43-.33.7s-.11.55-.11.85c0 .39.1.7.3.94.19.25.49.36.87.36zM64.26 245.58l.19-.84H68l-.19.84h-3.55zm1.83 4.24c-.35 0-.64-.06-.88-.19s-.42-.32-.52-.58-.11-.56-.03-.92l1.03-4.48 1.15-.32-1.13 4.81c-.07.29-.03.5.12.63s.34.19.57.19c.16 0 .3-.02.42-.06.12-.04.22-.09.31-.16l.08.79c-.17.11-.35.18-.53.22-.19.05-.38.07-.59.07zM70.25 244.74l-1.16 5h-1.07l1.16-5h1.07zm-.25-.84c-.2 0-.36-.05-.48-.16s-.17-.25-.16-.44c.01-.23.08-.41.22-.54s.32-.19.53-.19c.21 0 .37.05.48.15.12.1.17.25.17.42-.01.25-.09.43-.23.56-.14.14-.32.2-.53.2zM70.69 249.74l1.16-5h.94l-.21 1.26-.1-.07c.14-.43.39-.75.74-.96.35-.22.74-.32 1.17-.32.37 0 .69.08.95.24.26.16.44.4.55.7.11.3.11.67.01 1.1l-.71 3.05h-1.07l.7-3c.09-.38.05-.68-.11-.9-.16-.22-.41-.32-.76-.32-.27 0-.5.06-.71.18s-.38.29-.52.52-.25.52-.34.87l-.61 2.65h-1.08zM78.62 251.89c-.29 0-.56-.04-.82-.12s-.49-.19-.69-.33a1.697 1.697 0 0 1-.71-1.22l1.07-.26c.05.35.17.62.35.81.18.2.48.29.9.29.23 0 .44-.04.64-.13s.38-.23.53-.43c.15-.2.27-.49.35-.87l.28-1.27.12-.08c-.1.41-.31.73-.62.97s-.68.36-1.11.36c-.37 0-.71-.09-1-.27-.29-.18-.52-.43-.69-.75-.17-.32-.25-.68-.25-1.08 0-.41.06-.79.19-1.14.12-.35.3-.65.52-.92.22-.26.49-.47.79-.61.31-.14.64-.21 1.01-.21.31 0 .59.06.84.18s.44.3.59.54c.15.24.23.52.23.86l-.16.13.37-1.62h1.07l-1.15 4.92c-.12.54-.31.97-.56 1.29s-.55.56-.9.71c-.35.18-.75.25-1.19.25zm.66-3.12c.29 0 .54-.09.76-.27.22-.18.4-.42.54-.71.13-.3.2-.63.2-1 0-.27-.05-.49-.14-.68-.09-.19-.23-.34-.41-.45-.18-.11-.38-.16-.61-.16-.32 0-.6.08-.83.25-.24.17-.42.4-.55.69-.13.29-.2.63-.2 1 0 .39.11.7.33.95.2.26.51.38.91.38zM87.61 251.64c-.37-.51-.65-1.1-.84-1.75-.2-.65-.29-1.32-.29-1.99 0-.57.07-1.13.22-1.68s.37-1.07.65-1.56.62-.94 1.04-1.34c.41-.4.87-.75 1.39-1.04l.41.59c-.59.39-1.09.85-1.5 1.39a6 6 0 0 0-.91 1.78 6.689 6.689 0 0 0-.1 3.68c.14.55.33 1.03.58 1.46l-.65.46zM89.35 249.74l1.16-5h.94l-.21 1.26-.1-.07c.14-.43.39-.75.74-.96.35-.22.74-.32 1.17-.32.37 0 .69.08.95.24.26.16.44.4.55.7.11.3.11.67.01 1.1l-.71 3.05h-1.07l.7-3c.09-.38.05-.68-.11-.9-.16-.22-.41-.32-.76-.32-.27 0-.5.06-.71.18s-.38.29-.52.52-.25.52-.34.87l-.61 2.65h-1.08zM100.56 247.25l-.2.88H95.6l.2-.88h4.76zm.47-2.05l-.2.88h-4.76l.2-.88h4.76zM102.49 249.74l1.01-4.38c.05-.21.1-.39.15-.56l.15-.49c-.13.13-.31.25-.52.36-.22.12-.44.22-.68.31-.24.09-.46.15-.68.19l.07-.98c.23-.05.49-.14.77-.25.28-.12.55-.25.81-.39s.46-.28.6-.4h.9l-1.53 6.6h-1.05zM108.14 249.83c-.48 0-.89-.11-1.23-.32-.34-.21-.6-.51-.79-.89-.18-.38-.27-.83-.27-1.34 0-.23.01-.45.04-.68.03-.23.06-.45.11-.67.09-.4.22-.77.38-1.12.16-.35.37-.66.61-.92s.53-.47.85-.62.69-.22 1.1-.22c.46 0 .85.1 1.18.31.33.21.58.5.75.89.18.38.26.82.26 1.33 0 .23-.01.45-.04.67-.03.22-.06.44-.11.67-.09.4-.22.78-.38 1.13-.16.35-.36.66-.6.93s-.51.48-.82.63-.65.22-1.04.22zm.06-.91c.3 0 .56-.09.79-.28.23-.19.42-.44.58-.77.16-.33.28-.69.36-1.08.06-.22.1-.44.12-.65s.04-.41.04-.6c0-.56-.11-.97-.33-1.22-.22-.25-.51-.38-.88-.38-.31 0-.59.1-.83.29-.24.19-.44.45-.6.77-.16.32-.3.69-.4 1.09-.05.21-.08.42-.11.63-.03.21-.04.41-.04.6 0 .38.06.69.17.92.11.24.27.41.47.51.2.12.42.17.66.17zM114.59 249.84c-.53 0-.97-.11-1.32-.32-.36-.21-.62-.51-.81-.9-.18-.39-.27-.84-.27-1.36 0-.53.06-1.05.19-1.55s.32-.95.58-1.35c.26-.4.59-.72.99-.96s.87-.35 1.41-.35c.51 0 .96.12 1.34.37.38.25.62.63.73 1.16l-1 .35c-.04-.3-.17-.53-.39-.7-.22-.17-.47-.25-.76-.25-.32 0-.6.08-.84.24-.24.16-.45.37-.61.63-.16.26-.29.55-.39.86-.1.32-.17.64-.21.96.12-.34.35-.6.68-.78.33-.18.69-.27 1.08-.27.59 0 1.05.17 1.4.5.34.33.51.78.51 1.33 0 .45-.09.86-.28 1.22-.19.36-.46.65-.8.85s-.75.32-1.23.32zm.01-.9c.27 0 .5-.06.69-.19.18-.12.32-.29.42-.5.09-.21.14-.43.14-.68 0-.32-.1-.58-.31-.79s-.52-.31-.92-.31c-.27 0-.51.06-.7.19s-.34.28-.43.48c-.1.2-.15.41-.15.63 0 .19.03.35.09.5.06.14.15.27.27.37.12.1.25.18.41.23.15.05.31.07.49.07zM119.14 242.27c.37.51.65 1.1.84 1.75.2.65.29 1.32.29 1.99 0 .57-.08 1.13-.23 1.68a6.28 6.28 0 0 1-.65 1.56c-.28.49-.62.94-1.03 1.34-.41.4-.88.75-1.39 1.04l-.41-.59c.59-.39 1.09-.85 1.49-1.4a6 6 0 0 0 .91-1.78c.2-.64.3-1.31.3-2 0-.57-.07-1.13-.21-1.68-.14-.55-.33-1.03-.58-1.46l.67-.45zM121.63 249.83c-.2 0-.36-.05-.49-.17a.555.555 0 0 1-.19-.45c0-.25.07-.45.22-.6.15-.15.34-.22.56-.22.2 0 .36.05.49.16s.19.26.19.46c0 .25-.07.45-.22.6s-.32.22-.56.22z"/></svg>