<svg id="Layer_1" xmlns="http://www.w3.org/2000/svg" viewBox="0 0 300 600"><style>.st0{fill:#fff}</style><path class="st0" d="M45.87 33.82c-3.44 0-5.09-2.49-5.09-4.88 0-2.76 2-4.98 5.14-4.98 1.07 0 2.17.33 3.05 1.06L48 26.38c-.6-.46-1.24-.64-2.02-.64-1.67 0-2.91 1.16-2.91 3.15 0 1.81 1.15 3.26 2.97 3.26.78 0 1.46-.23 2.06-.75l.89 1.35c-.85.73-2.01 1.07-3.12 1.07M54.28 33.82c-2.87 0-4.99-2.16-4.99-4.98 0-2.89 2.31-4.88 4.99-4.88s5.01 1.97 5.01 4.86c-.01 2.84-2.12 5-5.01 5m2.69-4.97c0-1.74-.85-3.24-2.7-3.24-1.81 0-2.7 1.51-2.7 3.22 0 1.78.83 3.36 2.7 3.36 1.86 0 2.7-1.56 2.7-3.36v.02zM65.11 33.82c-2.87 0-4.99-2.16-4.99-4.98 0-2.89 2.31-4.88 4.99-4.88s5.01 1.97 5.01 4.86c-.01 2.84-2.12 5-5.01 5m2.69-4.97c0-1.74-.85-3.24-2.7-3.24-1.81 0-2.7 1.51-2.7 3.22 0 1.78.84 3.36 2.7 3.36 1.86 0 2.7-1.56 2.7-3.36v.02zM71.24 33.59V19.78l2.16 1.17v12.64zM78.36 33.88c-2.43 0-3.59-1.16-3.59-1.16l.97-1.25s1.11.73 2.56.73c.7 0 1.28-.48 1.28-.96s-.21-.89-.85-1.22c-.64-.33-1.36-.68-1.92-.95-.56-.27-1.81-1.1-1.81-2.72 0-1.64 1.67-2.55 3.38-2.55 1.63 0 2.87 1.06 2.87 1.06l-.83 1.27s-.93-.66-1.96-.66-1.24.66-1.24.93.1.7.76 1.04c.66.35 1.34.71 2.31 1.25s1.51 1.47 1.51 2.51-1.01 2.68-3.44 2.68M87.62 33.82c-3.44 0-5.09-2.49-5.09-4.88 0-2.76 2-4.98 5.14-4.98 1.07 0 2.17.33 3.05 1.06l-.97 1.35c-.6-.46-1.24-.64-2.02-.64-1.67 0-2.91 1.16-2.91 3.15 0 1.81 1.15 3.26 2.97 3.26.78 0 1.46-.23 2.06-.75l.89 1.35c-.85.74-2.01 1.08-3.12 1.08M98.24 32.49s-1.09 1.33-3.14 1.33c-2.43 0-3.61-1.76-3.61-3.53v-6.12h2.15v6.02c0 1.04.82 1.91 2.08 1.91 1.11 0 2.19-1.31 2.19-1.31v-6.62h2.15v9.4l-1.82-1.08zM101.99 33.59V19.78l2.15 1.17v12.64zM111.27 33.82c-1.9 0-2.99-1.06-2.99-1.06v4.69h-2.17V23.98l2.17 1.14s1.16-1.18 3.11-1.18c2.04 0 4.58 1.56 4.58 5.06-.01 3.49-2.51 4.82-4.7 4.82m-.14-8.22c-1.84 0-2.91 1.72-2.91 1.72v3.55s1.22 1.37 2.99 1.37c2.06 0 2.5-2.45 2.5-3.3 0-.85-.19-3.34-2.58-3.34M121.63 33.84h-1.36c-1.71 0-2.29-1.64-2.29-2.72v-5.54h-1.71v-1.41h1.71v-4.15h2.14v4.15h2.19v1.41h-2.17v5.02c0 .56-.1 1.45.85 1.45h1.55l-.91 1.79zM125.09 22.55c-.78 0-1.42-.64-1.42-1.41 0-.77.64-1.41 1.42-1.41s1.42.64 1.42 1.41a1.43 1.43 0 0 1-1.42 1.41m-1.07 1.63h2.12v9.42h-2.12v-9.42zM134.68 33.59v-6.02c0-1.04-.82-1.91-2.08-1.91-1.11 0-2.35 1.31-2.35 1.31v6.62h-2.15v-9.4l1.82 1.08s1.24-1.33 3.3-1.33c2.43 0 3.61 1.76 3.61 3.53v6.12h-2.15zM143.41 37.97c-.33 0-2.86-.04-2.86-.04l.04-1.72h2.12c2.06 0 3.22-1.1 3.22-2.61v-.85s-1.13 1.06-3.03 1.06c-2.19 0-4.7-1.33-4.7-4.83 0-3.49 2.54-5.06 4.58-5.06 1.94 0 3.11 1.18 3.11 1.18l2.17-1.08v9.36c.01 2.55-1.68 4.59-4.65 4.59m2.55-10.65s-1.07-1.72-2.91-1.72c-2.39 0-2.58 2.49-2.58 3.34 0 .85.45 3.3 2.5 3.3 1.77 0 2.99-1.37 2.99-1.37v-3.55zM18.97 29.31L15 33.25l4.86 1.82 5.79-5.76zM26.22 21.3l-3.94-3.93-1.85 4.81 5.79 5.76zM33.39 22.75l5.3 1.37-4.41 4.39H27.6zM33.04 35.86L31.53 41l-8.25-8.2 3.34-3.32zM151.29 24.81c0 .56-.45 1-1.02 1-.57 0-1.03-.44-1.03-1s.46-.99 1.04-.99c.56 0 1.01.44 1.01.99zm-1.8 0c0 .44.33.79.78.79.43.01.76-.35.76-.79 0-.44-.33-.8-.77-.8-.43.01-.77.37-.77.8zm.62.52h-.23v-.99c.09-.01.22-.03.38-.03.19 0 .27.03.34.08.06.04.1.12.1.21 0 .12-.09.2-.21.24v.01c.1.03.15.11.18.24.03.15.05.21.07.24h-.24c-.03-.04-.05-.12-.08-.24-.02-.1-.08-.15-.21-.15h-.11v.39zm0-.56h.11c.13 0 .23-.04.23-.15 0-.09-.07-.15-.21-.15-.06 0-.1.01-.13.01v.29z"/><g><path class="st0" d="M21.49 40.74v-6.16l1.22-1.21 3.51 3.49v1.17zM20.93 23.81h-5.12l1.64 4.69h8.2zM38.16 34h-5.84l-4.72-4.69h8.19zM27.03 19.79L31.75 17v6.24l-4.72 4.7zM35.34 36.19c0 .39-.31.69-.71.69-.4 0-.71-.31-.71-.69 0-.39.32-.69.72-.69.39.01.7.31.7.69zm-1.24 0c0 .31.23.55.54.55.3 0 .53-.24.53-.55 0-.31-.23-.55-.54-.55-.3.01-.53.25-.53.55zm.42.36h-.16v-.69c.06-.01.15-.02.27-.02.13 0 .19.02.24.05.04.03.07.08.07.15 0 .08-.06.14-.14.16v.01c.07.02.1.08.12.17.02.1.04.14.05.17h-.17c-.02-.02-.03-.08-.06-.17-.01-.07-.05-.1-.14-.1h-.08v.27zm.01-.38h.08c.09 0 .16-.03.16-.1 0-.06-.05-.1-.15-.1-.04 0-.07 0-.09.01v.19z"/></g></svg>