<?xml version="1.0" encoding="utf-8"?>
<!-- Generator: Adobe Illustrator 25.4.1, SVG Export Plug-In . SVG Version: 6.00 Build 0)  -->
<svg version="1.1" id="Layer_1" xmlns="http://www.w3.org/2000/svg" xmlns:xlink="http://www.w3.org/1999/xlink" x="0px" y="0px"
	 viewBox="0 0 1940 500" style="enable-background:new 0 0 1940 500;" xml:space="preserve">
<style type="text/css">
	.st0{fill:#00A9E0;}
</style>
<g>
	<path class="st0" d="M81.2,149.78h-8.82v-5.46h23.94v5.46H87.5v66.99h-6.3V149.78z"/>
	<path class="st0" d="M105.56,144.32h8.29l9.13,72.45h-6.4l-2.1-17.95h-9.87l-2.1,17.95h-6.09L105.56,144.32z M113.85,193.35
		l-4.2-39.06h-0.21l-4.2,39.06H113.85z"/>
	<path class="st0" d="M129.18,144.32h6.3v66.99h13.44v5.46h-19.74V144.32z"/>
	<path class="st0" d="M174.96,216.77l-13.44-36.54h-0.21v36.54h-6.3v-72.45h6.3v33.81h0.21l13.12-33.81h6.4l-13.54,34.54l14.17,37.9
		H174.96z"/>
	<path class="st0" d="M207.72,149.78h-8.82v-5.46h23.94v5.46h-8.82v66.99h-6.3V149.78z"/>
	<path class="st0" d="M227.67,204.69v-48.3c0-8.4,4.52-13.12,12.18-13.12s12.18,4.73,12.18,13.12v48.3c0,8.4-4.51,13.12-12.18,13.12
		S227.67,213.09,227.67,204.69z M245.73,203.64v-46.2c0-6.09-1.68-8.5-5.88-8.5c-4.31,0-5.88,2.42-5.88,8.5v46.2
		c0,6.09,1.57,8.5,5.88,8.5C244.05,212.15,245.73,209.73,245.73,203.64z"/>
	<path class="st0" d="M281.43,182.96l-10.19-38.64h6.51l6.93,28.66h0.21l6.93-28.66h6.09l-10.18,38.64v33.81h-6.3V182.96z"/>
	<path class="st0" d="M301.9,204.69v-48.3c0-8.4,4.52-13.12,12.18-13.12s12.18,4.73,12.18,13.12v48.3c0,8.4-4.51,13.12-12.18,13.12
		S301.9,213.09,301.9,204.69z M319.96,203.64v-46.2c0-6.09-1.68-8.5-5.88-8.5c-4.31,0-5.88,2.42-5.88,8.5v46.2
		c0,6.09,1.57,8.5,5.88,8.5C318.28,212.15,319.96,209.73,319.96,203.64z"/>
	<path class="st0" d="M334.24,205.11v-60.79h6.3v59.64c0,5.88,1.47,8.19,5.67,8.19s5.67-2.31,5.67-8.19v-59.64h6.09v60.79
		c0,8.08-4.41,12.7-11.86,12.7S334.24,213.2,334.24,205.11z"/>
	<path class="st0" d="M366.37,144.32h11.65c8.4,0,12.39,4.31,12.39,13.12v9.24c0,5.88-1.89,9.45-5.67,11.13v0.21
		c3.78,1.68,5.67,5.25,5.67,11.23v27.51h-6.3v-27.09c0-6.72-1.89-8.71-7.88-8.71h-3.57v35.8h-6.3V144.32z M377.29,175.5
		c5.25,0,6.82-2,6.82-8.71v-8.29c0-6.72-1.58-8.71-6.82-8.71h-4.62v25.72H377.29z"/>
	<path class="st0" d="M412.15,144.32h11.97c8.4,0,12.39,4.31,12.39,13.12v11.34c0,8.82-3.99,13.12-12.39,13.12h-5.67v34.86h-6.3
		V144.32z M423.38,176.45c5.25,0,6.82-2,6.82-8.71v-9.24c0-6.72-1.58-8.71-6.82-8.71h-4.94v26.67H423.38z"/>
	<path class="st0" d="M443.33,144.32h11.65c8.4,0,12.39,4.31,12.39,13.12v9.24c0,5.88-1.89,9.45-5.67,11.13v0.21
		c3.78,1.68,5.67,5.25,5.67,11.23v27.51h-6.3v-27.09c0-6.72-1.89-8.71-7.88-8.71h-3.57v35.8h-6.3V144.32z M454.25,175.5
		c5.25,0,6.82-2,6.82-8.71v-8.29c0-6.72-1.58-8.71-6.82-8.71h-4.62v25.72H454.25z"/>
	<path class="st0" d="M475.04,204.69v-48.3c0-8.4,4.52-13.12,12.18-13.12s12.18,4.73,12.18,13.12v48.3c0,8.4-4.51,13.12-12.18,13.12
		S475.04,213.09,475.04,204.69z M493.1,203.64v-46.2c0-6.09-1.68-8.5-5.88-8.5c-4.31,0-5.88,2.42-5.88,8.5v46.2
		c0,6.09,1.57,8.5,5.88,8.5C491.42,212.15,493.1,209.73,493.1,203.64z"/>
	<path class="st0" d="M504.97,144.32h6.4l6.61,60.9h0.21l6.61-60.9h5.98l-8.71,72.45h-8.4L504.97,144.32z"/>
	<path class="st0" d="M537.1,144.32h6.3v72.45h-6.3V144.32z"/>
	<path class="st0" d="M552.01,144.32h11.97c8.4,0,12.39,4.31,12.39,13.12v46.2c0,8.82-3.99,13.12-12.39,13.12h-11.97V144.32z
		 M563.24,211.31c5.25,0,6.82-1.99,6.82-8.71v-44.1c0-6.72-1.58-8.71-6.82-8.71h-4.94v61.53H563.24z"/>
	<path class="st0" d="M584.45,144.32h20.79v5.46h-14.49v25.3h12.6v5.46h-12.6v30.76h14.49v5.46h-20.79V144.32z"/>
	<path class="st0" d="M611.75,144.32h11.65c8.4,0,12.39,4.31,12.39,13.12v9.24c0,5.88-1.89,9.45-5.67,11.13v0.21
		c3.78,1.68,5.67,5.25,5.67,11.23v27.51h-6.3v-27.09c0-6.72-1.89-8.71-7.88-8.71h-3.57v35.8h-6.3V144.32z M622.67,175.5
		c5.25,0,6.82-2,6.82-8.71v-8.29c0-6.72-1.58-8.71-6.82-8.71h-4.62v25.72H622.67z"/>
	<path class="st0" d="M664.25,144.32h8.29l9.13,72.45h-6.4l-2.1-17.95h-9.87l-2.1,17.95h-6.09L664.25,144.32z M672.54,193.35
		l-4.2-39.06h-0.21l-4.2,39.06H672.54z"/>
	<path class="st0" d="M687.87,144.32h11.65c8.4,0,12.39,4.31,12.39,13.12v8.71c0,5.88-1.78,9.45-5.46,11.13v0.21
		c3.99,1.68,5.88,5.25,5.88,11.34v14.8c0,8.82-3.99,13.12-12.39,13.12h-12.07V144.32z M698.79,175.08c5.25,0,6.82-2,6.82-8.61v-7.98
		c0-6.72-1.58-8.71-6.82-8.71h-4.62v25.3H698.79z M699.21,211.31c5.25,0,6.82-1.99,6.82-8.71v-13.33c0-6.72-1.58-8.71-6.82-8.71
		h-5.04v30.76H699.21z"/>
	<path class="st0" d="M719.58,204.69v-48.3c0-8.4,4.51-13.12,12.18-13.12c7.66,0,12.18,4.73,12.18,13.12v48.3
		c0,8.4-4.51,13.12-12.18,13.12C724.1,217.82,719.58,213.09,719.58,204.69z M737.64,203.64v-46.2c0-6.09-1.68-8.5-5.88-8.5
		c-4.3,0-5.88,2.42-5.88,8.5v46.2c0,6.09,1.58,8.5,5.88,8.5C735.96,212.15,737.64,209.73,737.64,203.64z"/>
	<path class="st0" d="M751.92,205.11v-60.79h6.3v59.64c0,5.88,1.47,8.19,5.67,8.19s5.67-2.31,5.67-8.19v-59.64h6.09v60.79
		c0,8.08-4.41,12.7-11.86,12.7S751.92,213.2,751.92,205.11z"/>
	<path class="st0" d="M790.35,149.78h-8.82v-5.46h23.94v5.46h-8.82v66.99h-6.3V149.78z"/>
	<path class="st0" d="M81.62,239.32h8.29l9.13,72.45h-6.4l-2.1-17.95h-9.87l-2.1,17.95h-6.09L81.62,239.32z M89.91,288.35
		l-4.2-39.06H85.5l-4.2,39.06H89.91z"/>
	<path class="st0" d="M118.89,239.32h11.97c8.4,0,12.39,4.31,12.39,13.12v11.34c0,8.82-3.99,13.12-12.39,13.12h-5.67v34.86h-6.3
		V239.32z M130.12,271.45c5.25,0,6.82-2,6.82-8.71v-9.24c0-6.72-1.58-8.71-6.82-8.71h-4.94v26.67H130.12z"/>
	<path class="st0" d="M150.07,239.32h20.79v5.46h-14.49v25.3h12.6v5.46h-12.6v30.76h14.49v5.46h-20.79V239.32z"/>
	<path class="st0" d="M177.37,239.32h11.65c8.4,0,12.39,4.31,12.39,13.12v9.24c0,5.88-1.89,9.45-5.67,11.13v0.21
		c3.78,1.68,5.67,5.25,5.67,11.23v27.51h-6.3v-27.09c0-6.72-1.89-8.71-7.88-8.71h-3.57v35.8h-6.3V239.32z M188.29,270.5
		c5.25,0,6.82-2,6.82-8.71v-8.29c0-6.72-1.58-8.71-6.82-8.71h-4.62v25.72H188.29z"/>
	<path class="st0" d="M208.35,299.9V287.2h6.09v11.55c0,5.98,1.68,8.4,5.88,8.4c4.3,0,5.98-2.42,5.98-8.4v-10.92
		c0-4.94-1.36-7.35-4.93-9.66l-5.56-3.57c-5.35-3.46-7.45-7.45-7.45-14.49v-9.35c0-7.98,4.3-12.49,11.76-12.49
		c7.46,0,11.76,4.51,11.76,12.49v9.35h-6.09v-8.29c0-5.67-1.57-7.88-5.56-7.88c-3.99,0-5.56,2.2-5.56,7.88v7.87
		c0,4.93,1.36,7.35,4.93,9.66l5.56,3.57c5.35,3.46,7.45,7.46,7.45,14.49v12.49c0,8.29-4.51,12.91-12.18,12.91
		C212.76,312.82,208.35,308.2,208.35,299.9z"/>
	<path class="st0" d="M239.43,299.69v-48.3c0-8.4,4.52-13.12,12.18-13.12s12.18,4.73,12.18,13.12v48.3c0,8.4-4.51,13.12-12.18,13.12
		S239.43,308.09,239.43,299.69z M257.49,298.64v-46.2c0-6.09-1.68-8.5-5.88-8.5c-4.31,0-5.88,2.42-5.88,8.5v46.2
		c0,6.09,1.57,8.5,5.88,8.5C255.81,307.15,257.49,304.73,257.49,298.64z"/>
	<path class="st0" d="M271.98,239.32h8.19l11.44,53.02h0.21v-53.02h5.67v72.45h-6.82l-12.81-59.74h-0.21v59.74h-5.67V239.32z"/>
	<path class="st0" d="M312.82,239.32h8.29l9.13,72.45h-6.4l-2.1-17.95h-9.87l-2.1,17.95h-6.09L312.82,239.32z M321.12,288.35
		l-4.2-39.06h-0.21l-4.2,39.06H321.12z"/>
	<path class="st0" d="M336.45,239.32h6.3v66.99h13.44v5.46h-19.74V239.32z"/>
	<path class="st0" d="M362.27,239.32h6.3v72.45h-6.3V239.32z"/>
	<path class="st0" d="M374.87,306.83l17.11-62.05h-16.06v-5.46h22.68v4.94l-17.11,62.05h17.11v5.46h-23.73V306.83z"/>
	<path class="st0" d="M405.01,239.32h20.79v5.46h-14.49v25.3h12.6v5.46h-12.6v30.76h14.49v5.46h-20.79V239.32z"/>
	<path class="st0" d="M432.31,239.32h11.97c8.4,0,12.39,4.31,12.39,13.12v46.2c0,8.82-3.99,13.12-12.39,13.12h-11.97V239.32z
		 M443.54,306.31c5.25,0,6.82-2,6.82-8.71v-44.1c0-6.72-1.58-8.71-6.82-8.71h-4.94v61.53H443.54z"/>
	<path class="st0" d="M484.7,244.78h-8.82v-5.46h23.94v5.46H491v66.99h-6.3V244.78z"/>
	<path class="st0" d="M505.91,239.32h11.65c8.4,0,12.39,4.31,12.39,13.12v9.24c0,5.88-1.89,9.45-5.67,11.13v0.21
		c3.78,1.68,5.67,5.25,5.67,11.23v27.51h-6.3v-27.09c0-6.72-1.89-8.71-7.88-8.71h-3.57v35.8h-6.3V239.32z M516.83,270.5
		c5.25,0,6.82-2,6.82-8.71v-8.29c0-6.72-1.58-8.71-6.82-8.71h-4.62v25.72H516.83z"/>
	<path class="st0" d="M538.04,239.32h20.79v5.46h-14.49v25.3h12.6v5.46h-12.6v30.76h14.49v5.46h-20.79V239.32z"/>
	<path class="st0" d="M572.37,239.32h8.29l9.13,72.45h-6.4l-2.1-17.95h-9.87l-2.1,17.95h-6.09L572.37,239.32z M580.67,288.35
		l-4.2-39.06h-0.21l-4.2,39.06H580.67z"/>
	<path class="st0" d="M598.73,244.78h-8.82v-5.46h23.94v5.46h-8.82v66.99h-6.3V244.78z"/>
	<path class="st0" d="M619.94,239.32h9.97l8.08,53.44h0.21l8.08-53.44h10.39v72.45h-6.3v-64.78h-0.21l-9.76,64.78h-4.93l-9.76-64.78
		h-0.21v64.78h-5.56V239.32z"/>
	<path class="st0" d="M665.29,239.32h20.79v5.46h-14.49v25.3h12.6v5.46h-12.6v30.76h14.49v5.46h-20.79V239.32z"/>
	<path class="st0" d="M692.59,239.32h8.19l11.44,53.02h0.21v-53.02h5.67v72.45h-6.82l-12.81-59.74h-0.21v59.74h-5.67V239.32z"/>
	<path class="st0" d="M733.02,244.78h-8.82v-5.46h23.94v5.46h-8.82v66.99h-6.3V244.78z"/>
	<path class="st0" d="M767.88,239.32h11.97c8.4,0,12.39,4.31,12.39,13.12v11.34c0,8.82-3.99,13.12-12.39,13.12h-5.67v34.86h-6.3
		V239.32z M779.11,271.45c5.25,0,6.82-2,6.82-8.71v-9.24c0-6.72-1.58-8.71-6.82-8.71h-4.94v26.67H779.11z"/>
	<path class="st0" d="M799.06,239.32h6.3v66.99h13.44v5.46h-19.74V239.32z"/>
	<path class="st0" d="M831.92,239.32h8.29l9.13,72.45h-6.4l-2.1-17.95h-9.87l-2.1,17.95h-6.09L831.92,239.32z M840.22,288.35
		l-4.2-39.06h-0.21l-4.2,39.06H840.22z"/>
	<path class="st0" d="M855.55,239.32h8.19l11.44,53.02h0.21v-53.02h5.67v72.45h-6.82l-12.81-59.74h-0.21v59.74h-5.67V239.32z"/>
	<path class="st0" d="M889.67,303.16h7.03v8.61h-7.03V303.16z"/>
</g>
</svg>
