<?xml version="1.0" encoding="utf-8"?>
<!-- Generator: Adobe Illustrator 25.4.1, SVG Export Plug-In . SVG Version: 6.00 Build 0)  -->
<svg version="1.1" id="Layer_1" xmlns="http://www.w3.org/2000/svg" xmlns:xlink="http://www.w3.org/1999/xlink" x="0px" y="0px"
	 viewBox="0 0 1940 500" style="enable-background:new 0 0 1940 500;" xml:space="preserve">
<style type="text/css">
	.st0{fill:#FFFFFF;}
</style>
<g>
	<g>
		<g>
			<g>
				<path class="st0" d="M125.36,98.02c0,0.96-0.77,1.72-1.75,1.72c-0.98,0-1.76-0.76-1.76-1.72c0-0.96,0.78-1.7,1.77-1.7
					C124.59,96.31,125.36,97.06,125.36,98.02z M122.29,98.02c0,0.76,0.57,1.36,1.33,1.36c0.74,0.01,1.3-0.6,1.3-1.35
					c0-0.76-0.56-1.37-1.32-1.37C122.86,96.66,122.29,97.27,122.29,98.02z M123.34,98.9h-0.39v-1.7c0.15-0.02,0.37-0.05,0.65-0.05
					c0.32,0,0.47,0.05,0.58,0.13c0.1,0.07,0.18,0.2,0.18,0.36c0,0.21-0.16,0.34-0.35,0.41v0.02c0.17,0.05,0.25,0.19,0.3,0.42
					c0.05,0.26,0.09,0.35,0.13,0.42h-0.42c-0.05-0.06-0.08-0.21-0.14-0.42c-0.03-0.18-0.13-0.26-0.35-0.26h-0.19V98.9z
					 M123.35,97.95h0.19c0.22,0,0.4-0.07,0.4-0.25c0-0.16-0.11-0.26-0.36-0.26c-0.1,0-0.18,0.01-0.22,0.02V97.95z"/>
			</g>
		</g>
	</g>
	<path class="st0" d="M150.87,92.09c-8.49,0-12.57-6.19-12.57-12.13c0-6.86,4.94-12.37,12.71-12.37c2.64,0,5.37,0.81,7.53,2.64
		l-2.4,3.35c-1.48-1.15-3.07-1.58-4.99-1.58c-4.12,0-7.19,2.88-7.19,7.82c0,4.51,2.83,8.1,7.34,8.1c1.92,0,3.6-0.58,5.09-1.87
		l2.2,3.36C156.48,91.22,153.6,92.09,150.87,92.09"/>
	<path class="st0" d="M171.64,92.09c-7.1,0-12.33-5.36-12.33-12.37c0-7.19,5.71-12.13,12.33-12.13c6.62,0,12.37,4.89,12.37,12.08
		C184.02,86.72,178.79,92.09,171.64,92.09 M178.31,79.71c0-4.32-2.11-8.05-6.67-8.05c-4.46,0-6.67,3.74-6.67,8
		c0,4.41,2.06,8.35,6.67,8.35c4.6,0,6.67-3.89,6.67-8.35V79.71z"/>
	<path class="st0" d="M198.41,92.09c-7.1,0-12.33-5.36-12.33-12.37c0-7.19,5.71-12.13,12.33-12.13c6.62,0,12.37,4.89,12.37,12.08
		C210.78,86.72,205.55,92.09,198.41,92.09 M205.07,79.71c0-4.32-2.11-8.05-6.67-8.05c-4.46,0-6.67,3.74-6.67,8
		c0,4.41,2.06,8.35,6.67,8.35c4.6,0,6.67-3.89,6.67-8.35V79.71z"/>
	<polygon class="st0" points="213.56,91.52 213.56,57.17 218.89,60.1 218.89,91.52 	"/>
	<path class="st0" d="M231.16,92.23c-6,0-8.88-2.88-8.88-2.88l2.4-3.12c0,0,2.73,1.82,6.33,1.82c1.73,0,3.17-1.2,3.17-2.4
		c0-1.2-0.53-2.21-2.11-3.02c-1.58-0.82-3.36-1.68-4.75-2.35c-1.39-0.68-4.46-2.74-4.46-6.77c0-4.08,4.12-6.33,8.34-6.33
		c4.03,0,7.1,2.64,7.1,2.64L236.25,73c0,0-2.3-1.63-4.84-1.63c-2.54,0-3.07,1.63-3.07,2.3c0,0.67,0.24,1.73,1.87,2.59
		c1.63,0.86,3.31,1.78,5.71,3.12c2.4,1.34,3.74,3.64,3.74,6.23C239.65,88.21,237.16,92.23,231.16,92.23"/>
	<path class="st0" d="M254.04,92.09c-8.49,0-12.57-6.19-12.57-12.13c0-6.86,4.94-12.37,12.71-12.37c2.64,0,5.37,0.81,7.53,2.64
		l-2.4,3.35c-1.49-1.15-3.07-1.58-4.99-1.58c-4.12,0-7.19,2.88-7.19,7.82c0,4.51,2.83,8.1,7.34,8.1c1.92,0,3.6-0.58,5.08-1.87
		l2.21,3.36C259.65,91.22,256.78,92.09,254.04,92.09"/>
	<path class="st0" d="M280.28,88.78c0,0-2.69,3.31-7.77,3.31c-6,0-8.92-4.36-8.92-8.78v-15.2h5.32v14.97c0,2.59,2.02,4.74,5.13,4.74
		c2.74,0,5.42-3.26,5.42-3.26V68.11h5.32v23.36L280.28,88.78z"/>
	<polygon class="st0" points="289.54,91.52 289.54,57.17 294.86,60.1 294.86,91.52 	"/>
	<path class="st0" d="M312.47,92.09c-4.7,0-7.39-2.63-7.39-2.63v11.65h-5.37V67.63l5.37,2.82c0,0,2.88-2.92,7.67-2.92
		c5.04,0,11.32,3.88,11.32,12.56C324.07,88.78,317.89,92.09,312.47,92.09 M312.13,71.66c-4.56,0-7.19,4.27-7.19,4.27v8.82
		c0,0,3.02,3.41,7.39,3.41c5.09,0,6.19-6.1,6.19-8.21C318.51,77.85,318.03,71.66,312.13,71.66"/>
	<path class="st0" d="M338.08,92.14h-3.36c-4.23,0-5.66-4.08-5.66-6.76V71.61h-4.22v-3.5h4.22V57.79h5.27v10.32h5.42v3.5h-5.37
		v12.47c0,1.39-0.24,3.6,2.11,3.6h3.84L338.08,92.14z"/>
	<path class="st0" d="M346.61,64.07c-1.91,0-3.5-1.58-3.5-3.5c0-1.92,1.59-3.5,3.5-3.5c1.92,0,3.5,1.58,3.5,3.5
		C350.12,62.49,348.53,64.07,346.61,64.07 M343.98,68.11h5.23v23.41h-5.23V68.11z"/>
	<path class="st0" d="M370.31,91.52V76.55c0-2.59-2.02-4.74-5.13-4.74c-2.74,0-5.81,3.26-5.81,3.26v16.45h-5.32V68.16l4.51,2.69
		c0,0,3.07-3.31,8.15-3.31c6,0,8.92,4.36,8.92,8.77v15.21H370.31z"/>
	<path class="st0" d="M391.9,102.4c-0.82,0-7.06-0.09-7.06-0.09l0.09-4.27h5.24c5.08,0,7.96-2.74,7.96-6.48v-2.11
		c0,0-2.78,2.65-7.48,2.65c-5.42,0-11.61-3.32-11.61-12c0-8.68,6.28-12.56,11.32-12.56c4.8,0,7.67,2.92,7.67,2.92l5.37-2.68v23.26
		C403.41,97.32,399.23,102.4,391.9,102.4 M398.18,75.93c0,0-2.64-4.27-7.2-4.27c-5.9,0-6.38,6.18-6.38,8.29
		c0,2.11,1.1,8.21,6.19,8.21c4.37,0,7.39-3.41,7.39-3.41V75.93z"/>
	<polygon class="st0" points="90.63,109.27 90.63,93.97 93.64,90.96 102.31,99.63 102.31,102.54 	"/>
	<polygon class="st0" points="84.4,80.86 74.59,90.67 86.59,95.19 100.91,80.86 	"/>
	<polygon class="st0" points="89.23,67.19 76.6,67.19 80.65,78.87 100.91,78.87 	"/>
	<polygon class="st0" points="102.32,60.95 92.57,51.2 88.01,63.14 102.32,77.46 	"/>
	<polygon class="st0" points="131.83,92.54 117.4,92.54 105.73,80.86 125.97,80.86 	"/>
	<polygon class="st0" points="120.04,64.56 133.14,67.97 122.24,78.88 105.73,78.88 	"/>
	<polygon class="st0" points="104.32,57.21 115.99,50.28 115.99,65.78 104.32,77.46 	"/>
	<polygon class="st0" points="119.18,97.16 115.43,109.92 95.06,89.54 103.31,81.29 	"/>
	<g>
		<path class="st0" d="M411.36,69.7c0,1.38-1.12,2.48-2.53,2.48c-1.42,0-2.54-1.1-2.54-2.48c0-1.39,1.13-2.47,2.56-2.47
			C410.25,67.22,411.36,68.31,411.36,69.7z M406.92,69.7c0,1.09,0.83,1.97,1.93,1.97c1.07,0.01,1.88-0.88,1.88-1.96
			c0-1.09-0.81-1.99-1.91-1.99C407.75,67.72,406.92,68.62,406.92,69.7z M408.44,70.97h-0.57V68.5c0.22-0.03,0.54-0.07,0.94-0.07
			c0.47,0,0.68,0.07,0.85,0.2c0.15,0.11,0.26,0.29,0.26,0.53c0,0.3-0.23,0.49-0.51,0.59v0.03c0.24,0.08,0.36,0.27,0.44,0.6
			c0.08,0.38,0.13,0.52,0.18,0.6h-0.6c-0.07-0.08-0.12-0.3-0.2-0.6c-0.04-0.25-0.19-0.38-0.51-0.38h-0.27V70.97z M408.45,69.59h0.27
			c0.32,0,0.57-0.1,0.57-0.36c0-0.22-0.16-0.38-0.53-0.38c-0.15,0-0.26,0.02-0.32,0.03V69.59z"/>
	</g>
</g>
</svg>
