<svg id="Layer_1" xmlns="http://www.w3.org/2000/svg" viewBox="0 0 160 600"><style>.st0{fill:#fff}</style><path class="st0" d="M13.4 78.77c0-.91.55-1.65 1.43-1.65s1.43.63 1.43 1.48c0 .58-.27.93-.69 1.24-.22.17-.44.27-.44.44-.03.58.96.85 1.73.85 3.73 0 4.58-4.31 4.45-9.33-.77 1.46-2.11 2.36-3.54 2.36-2.88 0-4.83-1.95-4.83-5.35 0-3.51 2.47-5.82 5.3-5.82 3.43 0 5.49 3.21 5.49 8.43 0 5.71-2.88 10.13-6.83 10.13-2.29-.01-3.5-1.49-3.5-2.78zm7.93-10.13c0-2.69-.88-5.3-3.05-5.3-2.14 0-2.91 2.69-2.91 5.38 0 2.94.74 4.97 2.77 4.97 1.88 0 3.19-2.36 3.19-5.05zM31.68 75.42c0-3.57 2.8-6.12 5.38-6.12s5.35 2.5 5.35 6.07c0 3.49-2.77 6.23-5.35 6.23-2.58 0-5.38-2.69-5.38-6.18zm8.43.03c0-3.18-.82-5.76-3.05-5.76s-3.05 2.53-3.05 5.71c0 3.16.77 5.82 3.05 5.82s3.05-2.61 3.05-5.77zM44.72 77.56v-5.93c0-1.21-.27-1.56-1.48-1.56h-.25v-.36l3.68-.22v8.56c0 1.95.74 2.72 2.03 2.72 1.7 0 3.4-2.42 3.4-4.72v-4.39c0-1.26-.27-1.59-1.48-1.59h-.55v-.36l4.01-.22v9.61c0 1.24.3 1.59 1.51 1.59h.19v.36l-3.65.41.14-3.4h-.05c-.71 1.87-2.31 3.4-4.17 3.4-2.18 0-3.33-1.26-3.33-3.9zM57.81 78.03v-7.91h-1.87v-.33c1.76-.3 3.21-1.51 3.49-5.05h.36v4.94h3.71v.44h-3.71v8.04c0 1.73.63 2.58 1.87 2.58 1.13 0 2.03-1.23 2.14-3.65h.38c0 2.8-1.23 4.45-3.21 4.45-1.95 0-3.16-1.12-3.16-3.51zM71.21 75.42c0-3.57 2.8-6.12 5.38-6.12s5.35 2.5 5.35 6.07c0 3.49-2.77 6.23-5.35 6.23-2.58 0-5.38-2.69-5.38-6.18zm8.42.03c0-3.18-.82-5.76-3.05-5.76s-3.05 2.53-3.05 5.71c0 3.16.77 5.82 3.05 5.82s3.05-2.61 3.05-5.77zM83.26 80.8h.22c1.21 0 1.48-.3 1.48-1.54v-9.14h-1.7v-.41h1.7v-1.89c0-3.13 1.48-5.79 4.45-5.79 1.65 0 2.55.93 2.55 2.11 0 .91-.6 1.43-1.34 1.43s-1.21-.47-1.21-1.18c0-.47.22-.8.44-1.02.17-.16.3-.3.3-.47 0-.27-.38-.55-.91-.55-1.87 0-2.31 1.98-2.31 4.69v2.66h2.8v.41h-2.8v9.14c0 1.24.27 1.54 1.48 1.54h.52v.38h-5.68v-.37zM97.17 80.77h1.02c1.18 0 1.65-.33 1.65-1.56V66.86c0-1.24-.47-1.56-1.65-1.56h-1.02v-.41c2.99-.22 4.06-1.04 4.53-2h.33v16.33c0 1.24.44 1.56 1.62 1.56h.8v.41h-7.27v-.42zM106.01 72.29c0-5.65 2.99-9.31 6.07-9.31s5.96 3.65 5.96 9.31-2.99 9.33-6.04 9.33c-3.08.01-5.99-3.67-5.99-9.33zm9.47 0c0-5.9-1.21-8.92-3.49-8.92-2.33 0-3.43 3.02-3.43 8.92s1.21 8.95 3.51 8.95c2.31 0 3.41-3.05 3.41-8.95zM12.03 111.36h.33c1.21 0 1.48-.3 1.48-1.56V96.6c0-1.26-.27-1.56-1.48-1.56h-.19v-.36l3.57-.22-.08 2.8h.06c.88-1.7 2.06-2.88 3.84-2.88 2.25 0 4.8 2.33 4.8 6.01 0 3.62-2.5 6.04-4.91 6.04-1.87 0-3.02-1.29-3.76-2.96h-.03s.11 1.7.11 3.43v2.91c0 1.26.27 1.56 1.48 1.56h.63v.38h-5.85v-.39zm10.02-10.93c0-2.85-.66-5.63-2.77-5.63-1.35 0-3.54 1.59-3.54 5.6 0 2.83 1.51 5.57 3.49 5.57 2.1.01 2.82-2.58 2.82-5.54zM25.59 103.81c0-2.33 2.09-3.57 7.25-4.78v-.8c0-2.64-1.04-3.54-2.69-3.54-1.48 0-2.75.63-2.75 1.13 0 .08.03.11.14.11.55 0 1.15.52 1.15 1.21 0 .71-.55 1.26-1.24 1.26-.71 0-1.24-.52-1.24-1.32 0-1.43 1.51-2.77 4.45-2.77 2.2 0 4.12.8 4.12 4.04v5.63c0 1.15.33 1.51.71 1.51.66 0 .93-.69.96-2.2h.38c-.05 2.61-.96 3.1-2.09 3.1-1.07 0-2.06-.6-1.92-2.58h-.06c-.52 1.43-2.17 2.64-4.09 2.64-1.74-.01-3.08-.89-3.08-2.64zm7.24-2.36v-1.98c-4.2.85-4.97 2.31-4.97 3.87 0 1.24.66 2.14 1.92 2.14 1.35 0 3.05-.99 3.05-4.03zM38.35 102.98v-7.91h-1.87v-.33c1.76-.3 3.21-1.51 3.49-5.05h.36v4.94h3.71v.44h-3.71v8.04c0 1.73.63 2.58 1.87 2.58 1.13 0 2.03-1.23 2.14-3.65h.38c0 2.8-1.23 4.45-3.21 4.45-1.95.01-3.16-1.12-3.16-3.51zM45.24 105.76h.22c1.21 0 1.48-.3 1.48-1.54v-7.63c0-1.26-.27-1.56-1.48-1.56h-.22v-.36l3.65-.22v9.77c0 1.24.27 1.54 1.48 1.54h.22v.38h-5.35v-.38zm.91-15.71c0-.82.69-1.51 1.51-1.51.82 0 1.51.69 1.51 1.51 0 .82-.69 1.51-1.51 1.51-.83 0-1.51-.68-1.51-1.51zM51.58 100.46c0-3.71 2.58-6.2 5.33-6.2 2.2 0 4.72 1.7 4.72 5.24 0 .08-.03.69-.05.82h-7.74c0 3.02 1.21 5.35 3.57 5.35 2.11 0 3.18-1.07 4.09-2.39l.3.22c-1.02 1.7-2.61 3.05-5 3.05-3.16 0-5.22-2.33-5.22-6.09zm6.37-.58c1.1 0 1.4-.36 1.4-1.24 0-2.2-.77-3.98-2.53-3.98-1.92 0-2.91 2.06-2.99 5.22h4.12zM62.7 105.76h.19c1.21 0 1.48-.3 1.48-1.54v-7.66c0-1.24-.27-1.56-1.48-1.56h-.19v-.33l3.65-.22-.14 3.38h.05c.74-2.22 2.47-3.4 4.25-3.4 2.22 0 3.24 1.37 3.24 4.09v5.71c0 1.24.27 1.54 1.51 1.54h.05v.38h-5.3v-.38h.27c1.24 0 1.51-.3 1.51-1.54v-6.4c0-1.92-.82-2.53-1.92-2.53-2 0-3.51 2-3.51 4.45v4.47c0 1.24.27 1.54 1.48 1.54h.27v.38H62.7v-.38zM77.27 102.98v-7.91H75.4v-.33c1.76-.3 3.21-1.51 3.49-5.05h.36v4.94h3.71v.44h-3.71v8.04c0 1.73.63 2.58 1.87 2.58 1.12 0 2.03-1.23 2.14-3.65h.38c0 2.8-1.24 4.45-3.21 4.45-1.95.01-3.16-1.12-3.16-3.51zM86.11 105.45c-.41 0-.77.33-.99.93h-.27v-4.67h.25c.47 2.69 2.66 4.31 4.83 4.31 1.62 0 2.77-.93 2.77-2.22 0-1.23-.85-1.7-3.62-2.5-2.42-.69-4.09-1.32-4.09-3.71 0-1.98 1.48-3.21 3.57-3.21 1.59 0 2.31.71 3.16.71.44 0 .8-.22.99-.69h.27v4.17h-.25c-.44-2.25-2-3.82-4.31-3.82-1.26 0-2.28.82-2.28 2.03 0 1.29 1.07 1.7 3.38 2.31 2.99.8 4.34 1.65 4.34 3.82 0 2.2-1.67 3.49-4.04 3.49-1.71.01-3.05-.95-3.71-.95zM12.36 130.71h.19c1.21 0 1.48-.3 1.48-1.54v-7.69c0-1.23-.33-1.54-1.48-1.54h-.19v-.33l3.65-.22-.19 4.64h.06c.85-2.99 2.22-4.78 4.04-4.78 1.4 0 2.2.82 2.2 1.78 0 1.07-.6 1.62-1.37 1.62-.69 0-1.24-.44-1.24-1.13 0-.6.33-.88.58-1.1.14-.11.22-.19.22-.33 0-.22-.27-.27-.6-.27-1.98 0-3.65 3.9-3.65 6.07v3.27c0 1.24.27 1.54 1.48 1.54h.63v.38h-5.79v-.37zM22.38 125.41c0-3.71 2.58-6.2 5.33-6.2 2.2 0 4.72 1.7 4.72 5.24 0 .08-.03.69-.05.82h-7.74c0 3.02 1.21 5.35 3.57 5.35 2.11 0 3.18-1.07 4.09-2.39l.3.22c-1.02 1.7-2.61 3.05-5 3.05-3.17 0-5.22-2.33-5.22-6.09zm6.36-.58c1.1 0 1.4-.36 1.4-1.24 0-2.2-.77-3.98-2.53-3.98-1.92 0-2.91 2.06-2.99 5.22h4.12zM33.16 136.31h.33c1.21 0 1.48-.3 1.48-1.56v-13.2c0-1.26-.27-1.56-1.48-1.56h-.19v-.36l3.57-.22-.08 2.8h.06c.88-1.7 2.06-2.88 3.84-2.88 2.25 0 4.8 2.33 4.8 6.01 0 3.62-2.5 6.04-4.91 6.04-1.87 0-3.02-1.29-3.76-2.96h-.03s.11 1.7.11 3.43v2.91c0 1.26.27 1.56 1.48 1.56h.63v.38h-5.85v-.39zm10.02-10.93c0-2.85-.66-5.63-2.77-5.63-1.35 0-3.54 1.59-3.54 5.6 0 2.83 1.51 5.57 3.49 5.57 2.11.01 2.82-2.57 2.82-5.54zM46.78 125.33c0-3.57 2.8-6.12 5.38-6.12s5.35 2.5 5.35 6.07c0 3.49-2.77 6.23-5.35 6.23-2.58-.01-5.38-2.7-5.38-6.18zm8.42.03c0-3.18-.82-5.76-3.05-5.76s-3.05 2.53-3.05 5.71c0 3.16.77 5.82 3.05 5.82s3.05-2.62 3.05-5.77zM58.5 130.71h.19c1.21 0 1.48-.3 1.48-1.54v-7.69c0-1.23-.33-1.54-1.48-1.54h-.19v-.33l3.65-.22-.19 4.64h.06c.85-2.99 2.22-4.78 4.04-4.78 1.4 0 2.2.82 2.2 1.78 0 1.07-.6 1.62-1.37 1.62-.69 0-1.24-.44-1.24-1.13 0-.6.33-.88.58-1.1.14-.11.22-.19.22-.33 0-.22-.27-.27-.6-.27-1.98 0-3.65 3.9-3.65 6.07v3.27c0 1.24.27 1.54 1.48 1.54h.63v.38H58.5v-.37zM70.3 127.94v-7.91h-1.87v-.33c1.76-.3 3.21-1.51 3.49-5.05h.36v4.94h3.71v.44h-3.71v8.04c0 1.73.63 2.58 1.87 2.58 1.13 0 2.03-1.24 2.14-3.65h.38c0 2.8-1.23 4.45-3.21 4.45-1.95 0-3.16-1.13-3.16-3.51zM77.44 125.41c0-3.71 2.58-6.2 5.33-6.2 2.2 0 4.72 1.7 4.72 5.24 0 .08-.03.69-.05.82H79.7c0 3.02 1.21 5.35 3.57 5.35 2.11 0 3.18-1.07 4.09-2.39l.3.22c-1.02 1.7-2.61 3.05-5 3.05-3.16 0-5.22-2.33-5.22-6.09zm6.36-.58c1.1 0 1.4-.36 1.4-1.24 0-2.2-.77-3.98-2.53-3.98-1.92 0-2.91 2.06-2.99 5.22h4.12zM88.86 125.36c0-3.4 2.17-6.04 4.83-6.04 1.65 0 2.94 1.15 3.79 2.83h.08c-.05-.77-.08-2.42-.08-4.15v-3.73c0-1.26-.3-1.56-1.51-1.56h-.69v-.38l4.15-.41v17.13c0 1.23.25 1.59 1.46 1.59h.22v.38l-3.62.41.11-3.07h-.1c-.91 1.67-2.06 3.02-3.93 3.02-2.27-.01-4.71-2.29-4.71-6.02zm8.61-.03c0-4.09-2.28-5.6-3.46-5.6-2.25 0-2.85 2.55-2.85 5.55 0 3.05.74 5.65 2.83 5.65 1.43 0 3.48-1.98 3.48-5.6zM12.36 155.66h.19c1.21 0 1.48-.3 1.48-1.54v-7.66c0-1.24-.27-1.56-1.48-1.56h-.19v-.33l3.65-.22-.14 3.38h.05c.74-2.22 2.47-3.4 4.25-3.4 2.22 0 3.24 1.37 3.24 4.09v5.71c0 1.24.27 1.54 1.51 1.54h.05v.38h-5.3v-.38h.27c1.24 0 1.51-.3 1.51-1.54v-6.4c0-1.92-.82-2.53-1.92-2.53-2 0-3.51 2-3.51 4.45v4.47c0 1.24.27 1.54 1.48 1.54h.27v.38h-5.44v-.38zM25.75 150.28c0-3.57 2.8-6.12 5.38-6.12s5.35 2.5 5.35 6.07c0 3.49-2.77 6.23-5.35 6.23-2.58 0-5.38-2.69-5.38-6.18zm8.43.03c0-3.18-.82-5.76-3.05-5.76s-3.05 2.53-3.05 5.71c0 3.16.77 5.82 3.05 5.82s3.05-2.61 3.05-5.77zM38.96 152.89v-7.91h-1.87v-.33c1.76-.3 3.21-1.51 3.49-5.05h.36v4.94h3.71v.44h-3.71v8.04c0 1.73.63 2.58 1.87 2.58 1.13 0 2.03-1.24 2.14-3.65h.38c0 2.8-1.23 4.45-3.21 4.45-1.96 0-3.16-1.12-3.16-3.51zM45.84 155.66h.22c1.21 0 1.48-.3 1.48-1.54v-7.63c0-1.26-.27-1.56-1.48-1.56h-.22v-.36l3.65-.22v9.77c0 1.24.27 1.54 1.48 1.54h.22v.38h-5.35v-.38zm.91-15.7c0-.82.69-1.51 1.51-1.51.82 0 1.51.69 1.51 1.51 0 .82-.69 1.51-1.51 1.51-.82 0-1.51-.69-1.51-1.51zM52.18 150.36c0-3.38 2.72-6.2 5.93-6.2 2.14 0 3.71 1.48 3.71 3.07 0 .93-.6 1.51-1.37 1.51-.74 0-1.26-.63-1.26-1.29 0-.58.36-1.1.99-1.26.33-.08.58.06.58-.16 0-.49-.96-1.43-2.69-1.43-2.47 0-3.49 2.33-3.49 5.63 0 3.02 1.21 5.3 3.71 5.3 1.65 0 2.75-.88 3.57-1.98l.27.19c-.93 1.56-2.64 2.72-4.75 2.72-2.75 0-5.2-2.36-5.2-6.1zM62.89 150.36c0-3.71 2.58-6.2 5.33-6.2 2.2 0 4.72 1.7 4.72 5.24 0 .08-.03.69-.05.82h-7.74c0 3.02 1.21 5.35 3.57 5.35 2.11 0 3.18-1.07 4.09-2.39l.3.22c-1.02 1.7-2.61 3.05-5 3.05-3.16.01-5.22-2.33-5.22-6.09zm6.37-.57c1.1 0 1.4-.36 1.4-1.24 0-2.2-.77-3.98-2.53-3.98-1.92 0-2.91 2.06-2.99 5.22h4.12zM74.25 153.71c0-2.33 2.09-3.57 7.25-4.78v-.8c0-2.64-1.04-3.54-2.69-3.54-1.48 0-2.75.63-2.75 1.13 0 .08.03.11.14.11.55 0 1.15.52 1.15 1.21 0 .71-.55 1.26-1.24 1.26-.71 0-1.24-.52-1.24-1.32 0-1.43 1.51-2.77 4.45-2.77 2.2 0 4.12.8 4.12 4.04v5.63c0 1.15.33 1.51.71 1.51.66 0 .93-.69.96-2.2h.38c-.05 2.61-.96 3.1-2.09 3.1-1.07 0-2.06-.6-1.92-2.58h-.05c-.52 1.43-2.17 2.64-4.09 2.64-1.74 0-3.09-.88-3.09-2.64zm7.25-2.36v-1.98c-4.2.85-4.97 2.31-4.97 3.87 0 1.24.66 2.14 1.92 2.14 1.35.01 3.05-.98 3.05-4.03zM87.07 151.38v-12.19c0-1.26-.27-1.56-1.48-1.56h-.47v-.38l3.87-.41v5.96c0 2.11-.08 4.31-.08 4.31h.05c1.04-1.81 2.11-2.83 3.9-2.83 2.39 0 4.72 2.58 4.72 5.98 0 3.79-2.53 6.07-4.8 6.07-1.87 0-2.85-1.04-3.79-2.72h-.05l-1.87 2.94h-.36c.28-1.57.36-3.5.36-5.17zm8.21-1.07c0-3.02-.71-5.6-2.75-5.6-1.87 0-3.57 2.28-3.57 5.57 0 3.07 1.54 5.6 3.51 5.6 1.63 0 2.81-1.54 2.81-5.57zM98.57 155.66h.11c1.24 0 1.51-.33 1.51-1.65v-14.74c0-1.32-.27-1.65-1.51-1.65h-.22v-.38l3.68-.41v17.18c0 1.32.27 1.65 1.48 1.65h.22v.38h-5.27v-.38zM104.78 150.36c0-3.71 2.58-6.2 5.33-6.2 2.2 0 4.72 1.7 4.72 5.24 0 .08-.03.69-.06.82h-7.74c0 3.02 1.21 5.35 3.57 5.35 2.11 0 3.18-1.07 4.09-2.39l.3.22c-1.02 1.7-2.61 3.05-5 3.05-3.16.01-5.21-2.33-5.21-6.09zm6.36-.57c1.1 0 1.4-.36 1.4-1.24 0-2.2-.77-3.98-2.53-3.98-1.92 0-2.91 2.06-2.99 5.22h4.12zM12.69 180.62h.22c1.21 0 1.48-.3 1.48-1.54v-9.14h-1.7v-.41h1.7v-1.89c0-3.13 1.48-5.79 4.45-5.79 1.65 0 2.55.93 2.55 2.11 0 .91-.6 1.43-1.35 1.43s-1.21-.47-1.21-1.18c0-.47.22-.8.44-1.02.16-.16.3-.3.3-.47 0-.27-.38-.55-.91-.55-1.87 0-2.31 1.98-2.31 4.69v2.66h2.8v.41h-2.8v9.14c0 1.24.27 1.54 1.48 1.54h.52v.39h-5.68v-.38zM19.77 178.67c0-2.33 2.09-3.57 7.25-4.78v-.8c0-2.64-1.04-3.54-2.69-3.54-1.48 0-2.75.63-2.75 1.13 0 .08.03.11.14.11.55 0 1.15.52 1.15 1.21 0 .71-.55 1.26-1.24 1.26-.71 0-1.24-.52-1.24-1.32 0-1.43 1.51-2.77 4.45-2.77 2.2 0 4.12.8 4.12 4.04v5.63c0 1.15.33 1.51.71 1.51.66 0 .93-.69.96-2.2h.38c-.05 2.61-.96 3.1-2.09 3.1-1.07 0-2.06-.6-1.92-2.58h-.06c-.52 1.43-2.17 2.64-4.09 2.64-1.74-.01-3.08-.89-3.08-2.64zm7.25-2.36v-1.98c-4.2.85-4.97 2.31-4.97 3.87 0 1.24.66 2.14 1.92 2.14 1.34 0 3.05-.99 3.05-4.03zM32.53 177.84v-7.91h-1.87v-.33c1.76-.3 3.21-1.51 3.49-5.05h.36v4.94h3.71v.44h-3.71v8.04c0 1.73.63 2.58 1.87 2.58 1.13 0 2.03-1.23 2.14-3.65h.38c0 2.8-1.23 4.45-3.21 4.45-1.95.01-3.16-1.12-3.16-3.51zM45.62 180.62h.19c1.21 0 1.48-.3 1.48-1.54v-7.69c0-1.23-.33-1.54-1.48-1.54h-.19v-.33l3.65-.22-.19 4.64h.06c.85-2.99 2.22-4.78 4.04-4.78 1.4 0 2.2.82 2.2 1.78 0 1.07-.6 1.62-1.37 1.62-.69 0-1.24-.44-1.24-1.13 0-.6.33-.88.58-1.1.14-.11.22-.19.22-.33 0-.22-.27-.27-.6-.27-1.98 0-3.65 3.9-3.65 6.07v3.27c0 1.24.27 1.54 1.48 1.54h.63v.39h-5.79v-.38zM55.64 175.32c0-3.71 2.58-6.2 5.33-6.2 2.2 0 4.72 1.7 4.72 5.24 0 .08-.03.69-.05.82H57.9c0 3.02 1.21 5.35 3.57 5.35 2.11 0 3.18-1.07 4.09-2.39l.3.22c-1.02 1.7-2.61 3.05-5 3.05-3.16 0-5.22-2.33-5.22-6.09zm6.37-.58c1.1 0 1.4-.36 1.4-1.24 0-2.2-.77-3.98-2.53-3.98-1.92 0-2.91 2.06-2.99 5.22h4.12zM67.06 175.26c0-3.4 2.17-6.04 4.83-6.04 1.65 0 2.94 1.15 3.79 2.83h.08c-.06-.77-.08-2.42-.08-4.15v-3.73c0-1.26-.3-1.56-1.51-1.56h-.69v-.38l4.15-.41v17.13c0 1.23.25 1.59 1.46 1.59h.22v.38l-3.62.41.11-3.07h-.08c-.91 1.67-2.06 3.02-3.93 3.02-2.28-.01-4.73-2.28-4.73-6.02zm8.62-.02c0-4.09-2.28-5.6-3.46-5.6-2.25 0-2.85 2.55-2.85 5.55 0 3.05.74 5.65 2.83 5.65 1.42 0 3.48-1.98 3.48-5.6zM81.12 177.38v-5.93c0-1.21-.27-1.56-1.48-1.56h-.25v-.36l3.68-.22v8.56c0 1.95.74 2.72 2.03 2.72 1.7 0 3.4-2.42 3.4-4.72v-4.39c0-1.26-.28-1.59-1.48-1.59h-.55v-.36l4.01-.22v9.61c0 1.24.3 1.59 1.51 1.59h.19v.36l-3.65.41.14-3.4h-.05c-.71 1.87-2.31 3.4-4.17 3.4-2.18-.01-3.33-1.27-3.33-3.9zM93.03 175.32c0-3.38 2.72-6.2 5.93-6.2 2.14 0 3.71 1.48 3.71 3.07 0 .93-.6 1.51-1.37 1.51-.74 0-1.26-.63-1.26-1.29 0-.58.36-1.1.99-1.26.33-.08.58.06.58-.16 0-.49-.96-1.43-2.69-1.43-2.47 0-3.49 2.33-3.49 5.63 0 3.02 1.21 5.3 3.71 5.3 1.65 0 2.75-.88 3.57-1.98l.27.19c-.93 1.56-2.63 2.72-4.75 2.72-2.76-.01-5.2-2.37-5.2-6.1zM105.19 177.84v-7.91h-1.87v-.33c1.76-.3 3.21-1.51 3.49-5.05h.36v4.94h3.71v.44h-3.71v8.04c0 1.73.63 2.58 1.87 2.58 1.12 0 2.03-1.23 2.14-3.65h.38c0 2.8-1.24 4.45-3.21 4.45-1.96.01-3.16-1.12-3.16-3.51zM112.08 180.62h.22c1.21 0 1.48-.3 1.48-1.54v-7.63c0-1.26-.27-1.56-1.48-1.56h-.22v-.36l3.65-.22v9.77c0 1.24.27 1.54 1.48 1.54h.22v.38h-5.35v-.38zm.9-15.71c0-.82.69-1.51 1.51-1.51.82 0 1.51.69 1.51 1.51 0 .82-.69 1.51-1.51 1.51-.82 0-1.51-.68-1.51-1.51zM118.42 175.24c0-3.57 2.8-6.12 5.38-6.12s5.35 2.5 5.35 6.07c0 3.49-2.77 6.23-5.35 6.23s-5.38-2.7-5.38-6.18zm8.42.02c0-3.18-.82-5.76-3.05-5.76s-3.05 2.53-3.05 5.71c0 3.16.77 5.82 3.05 5.82s3.05-2.61 3.05-5.77zM130.14 180.62h.19c1.21 0 1.48-.3 1.48-1.54v-7.66c0-1.24-.27-1.56-1.48-1.56h-.19v-.33l3.65-.22-.14 3.38h.06c.74-2.22 2.47-3.4 4.25-3.4 2.22 0 3.24 1.37 3.24 4.09v5.71c0 1.24.28 1.54 1.51 1.54h.05v.37h-5.3v-.38h.27c1.24 0 1.51-.3 1.51-1.54v-6.4c0-1.92-.82-2.53-1.92-2.53-2 0-3.51 2-3.51 4.45v4.47c0 1.24.27 1.54 1.48 1.54h.27v.39h-5.44v-.38zM144.22 179.63c0-.88.69-1.56 1.57-1.56.88 0 1.56.69 1.56 1.56s-.69 1.56-1.56 1.56c-.89 0-1.57-.68-1.57-1.56zM146.37 165.39c.27-.35.98-1.01 1.41-1.62-.72-.24-1.67-.35-2.08-.48-.43-.13-.62-.34-.58-.48.05-.16.32-.22.75-.06.42.16 1.25.61 1.97.83 0-.75-.19-1.68-.19-2.13 0-.43.13-.69.29-.69.16 0 .29.26.29.69 0 .45-.19 1.38-.19 2.13.72-.22 1.55-.69 1.97-.83.4-.14.72-.11.75.06.03.14-.14.35-.58.48-.42.13-1.36.24-2.08.48.45.61 1.14 1.26 1.41 1.62.26.32.3.64.18.74-.11.08-.38-.03-.64-.4s-.66-1.22-1.1-1.82c-.45.61-.85 1.46-1.1 1.82-.24.34-.51.48-.62.4-.16-.1-.12-.42.14-.74z"/></svg>