<svg id="Layer_1" xmlns="http://www.w3.org/2000/svg" viewBox="0 0 160 600"><style>.st0{fill:#fff}</style><path class="st0" d="M29.88 27.88c0 .32-.26.57-.58.57-.32 0-.58-.25-.58-.57 0-.32.26-.57.59-.57.32 0 .57.25.57.57zm-1.02 0c0 .25.19.45.44.45s.43-.2.43-.45-.19-.46-.44-.46c-.24.01-.43.21-.43.46zm.35.29h-.13v-.57c.05-.01.12-.02.22-.02.11 0 .16.02.19.04s.06.07.06.12c0 .07-.05.11-.12.13v.01c.06.02.08.06.1.14.02.09.03.12.04.14h-.14c-.02-.02-.03-.07-.05-.14-.01-.06-.04-.09-.12-.09h-.06v.24zm.01-.32h.06c.07 0 .13-.02.13-.08 0-.05-.04-.09-.12-.09-.03 0-.06 0-.07.01v.16zM38.37 25.91c-2.82 0-4.18-2.06-4.18-4.03 0-2.28 1.64-4.12 4.23-4.12.88 0 1.79.27 2.5.88l-.8 1.11c-.49-.38-1.02-.52-1.66-.52-1.37 0-2.39.96-2.39 2.6 0 1.5.94 2.7 2.44 2.7.64 0 1.2-.19 1.69-.62l.73 1.12c-.7.59-1.65.88-2.56.88M45.28 25.91c-2.36 0-4.1-1.78-4.1-4.11 0-2.39 1.9-4.04 4.1-4.04 2.2 0 4.12 1.63 4.12 4.02-.01 2.34-1.75 4.13-4.12 4.13m2.21-4.12c0-1.44-.7-2.68-2.22-2.68-1.48 0-2.22 1.24-2.22 2.66 0 1.47.69 2.78 2.22 2.78 1.53 0 2.22-1.29 2.22-2.78v.02zM54.18 25.91c-2.36 0-4.1-1.78-4.1-4.11 0-2.39 1.9-4.04 4.1-4.04 2.2 0 4.11 1.63 4.11 4.02 0 2.34-1.74 4.13-4.11 4.13m2.21-4.12c0-1.44-.7-2.68-2.22-2.68-1.48 0-2.22 1.24-2.22 2.66 0 1.47.69 2.78 2.22 2.78 1.53 0 2.22-1.29 2.22-2.78v.02zM59.22 25.72V14.29l1.77.98v10.45zM65.07 25.95c-1.99 0-2.95-.96-2.95-.96l.8-1.04s.91.61 2.1.61c.57 0 1.05-.4 1.05-.8s-.18-.74-.7-1c-.53-.27-1.12-.56-1.58-.78-.46-.22-1.48-.91-1.48-2.25 0-1.36 1.37-2.1 2.77-2.1 1.34 0 2.36.88 2.36.88l-.69 1.05s-.77-.54-1.61-.54c-.85 0-1.02.54-1.02.77 0 .22.08.57.62.86.54.29 1.1.59 1.9 1.04.8.45 1.24 1.21 1.24 2.07.01.85-.81 2.19-2.81 2.19M72.68 25.91c-2.82 0-4.18-2.06-4.18-4.03 0-2.28 1.64-4.12 4.23-4.12.88 0 1.79.27 2.5.88l-.8 1.11c-.49-.38-1.02-.52-1.66-.52-1.37 0-2.39.96-2.39 2.6 0 1.5.94 2.7 2.44 2.7.64 0 1.2-.19 1.69-.62l.73 1.12c-.69.59-1.65.88-2.56.88M81.41 24.81s-.89 1.1-2.58 1.1c-1.99 0-2.97-1.45-2.97-2.92v-5.06h1.77v4.98c0 .86.67 1.58 1.71 1.58.91 0 1.8-1.08 1.8-1.08v-5.47h1.77v7.77l-1.5-.9zM84.49 25.72V14.29l1.77.98v10.45zM92.11 25.91c-1.56 0-2.46-.88-2.46-.88v3.88h-1.79V17.77l1.79.94s.96-.97 2.55-.97c1.68 0 3.76 1.29 3.76 4.18.01 2.89-2.05 3.99-3.85 3.99m-.11-6.8c-1.52 0-2.39 1.42-2.39 1.42v2.93s1.01 1.13 2.46 1.13c1.69 0 2.06-2.03 2.06-2.73-.01-.69-.17-2.75-2.13-2.75M100.63 25.92h-1.12c-1.41 0-1.88-1.36-1.88-2.25V19.1h-1.4v-1.16h1.4V14.5h1.75v3.43h1.8v1.16H99.4v4.15c0 .46-.08 1.2.7 1.2h1.28l-.75 1.48zM103.47 16.59c-.64 0-1.16-.53-1.16-1.16 0-.64.53-1.16 1.16-1.16.64 0 1.17.52 1.17 1.16-.01.63-.53 1.16-1.17 1.16m-.88 1.34h1.74v7.78h-1.74v-7.78zM111.35 25.72v-4.98c0-.86-.67-1.58-1.71-1.58-.91 0-1.93 1.08-1.93 1.08v5.47h-1.77v-7.77l1.5.89s1.02-1.1 2.71-1.1c1.99 0 2.97 1.45 2.97 2.92v5.06h-1.77zM118.53 29.33c-.27 0-2.35-.03-2.35-.03l.03-1.42h1.74c1.69 0 2.65-.91 2.65-2.15v-.7s-.92.88-2.49.88c-1.8 0-3.86-1.1-3.86-3.99s2.09-4.18 3.77-4.18c1.59 0 2.55.97 2.55.97l1.79-.89v7.74c-.01 2.08-1.39 3.77-3.83 3.77m2.09-8.8s-.88-1.42-2.39-1.42c-1.96 0-2.12 2.05-2.12 2.76 0 .7.37 2.73 2.06 2.73 1.45 0 2.46-1.13 2.46-1.13v-2.94zM18.33 31.62v-5.09l1-1 2.89 2.88v.97zM16.26 22.17L13 25.43l3.99 1.51 4.76-4.77zM17.87 17.63h-4.2l1.34 3.88h6.74zM22.22 15.55l-3.24-3.24-1.52 3.97 4.76 4.76zM32.03 26.05h-4.79l-3.88-3.88h6.73zM28.12 16.75l4.35 1.14-3.62 3.62h-5.49zM22.89 14.31L26.77 12v5.16l-3.88 3.88zM27.83 27.59l-1.25 4.25-6.77-6.78 2.74-2.74zM125 18.46c0 .46-.37.82-.84.82s-.85-.37-.85-.82c0-.46.38-.82.85-.82s.84.36.84.82zm-1.48 0c0 .36.28.66.64.66s.63-.29.63-.65c0-.36-.27-.66-.64-.66-.35-.01-.63.29-.63.65zm.51.42h-.19v-.82c.07-.01.18-.02.31-.02.16 0 .23.02.28.07.05.04.08.1.08.18 0 .1-.08.16-.17.2v.01c.08.03.12.09.14.2.03.13.04.17.06.2h-.2a.685.685 0 0 1-.06-.2c-.01-.08-.06-.13-.17-.13h-.09v.31zm0-.46h.09c.11 0 .19-.03.19-.12 0-.07-.05-.13-.18-.13-.05 0-.09.01-.11.01v.24z"/></svg>