<svg id="Layer_1" xmlns="http://www.w3.org/2000/svg" viewBox="0 0 728 90"><style>.st0{fill:#eaf5fb}</style><path class="st0" d="M35.6 32.76V28.6h1.99v3.78c0 1.96.55 2.75 1.93 2.75 1.41 0 1.96-.79 1.96-2.75V28.8c0-1.62-.45-2.41-1.62-3.16l-1.82-1.17c-1.75-1.13-2.44-2.44-2.44-4.75v-3.06c0-2.61 1.41-4.09 3.85-4.09s3.85 1.48 3.85 4.09v3.06h-1.99V17c0-1.86-.52-2.58-1.82-2.58-1.31 0-1.82.72-1.82 2.58v2.58c0 1.62.45 2.41 1.62 3.16l1.82 1.17c1.75 1.14 2.44 2.44 2.44 4.75v4.09c0 2.72-1.48 4.23-3.99 4.23-2.51.01-3.96-1.5-3.96-4.22zM49.09 14.71H46.2v-1.79h7.84v1.79h-2.89v21.94h-2.06V14.71zM57.24 12.92h3.82c2.75 0 4.06 1.41 4.06 4.3v3.03c0 1.93-.62 3.1-1.86 3.65v.07c1.24.55 1.86 1.72 1.86 3.68v9.01h-2.06v-8.87c0-2.2-.62-2.85-2.58-2.85H59.3v11.73h-2.06V12.92zm3.57 10.21c1.72 0 2.24-.65 2.24-2.85v-2.72c0-2.2-.52-2.85-2.24-2.85H59.3v8.43h1.51zM68.97 12.92h6.81v1.79h-4.75V23h4.13v1.79h-4.13v10.08h4.75v1.79h-6.81V12.92zM79.12 12.92h2.68l3.75 17.37h.07V12.92h1.86v23.73h-2.24l-4.2-19.57h-.07v19.57h-1.86V12.92zM91.36 33.28V16.84c0-2.72 1.48-4.26 3.96-4.26 2.51 0 3.92 1.55 3.92 4.26v2.61h-1.96v-2.24c0-2-.55-2.79-1.93-2.79-1.41 0-1.93.79-1.93 2.79v15.82c0 1.41.52 2.1 1.65 2.1 1.41 0 2.2-1.07 2.2-2.99v-6.81h-1.93v-1.79h3.99v13.1h-1.75v-1.69h-.1c-.55 1.31-1.55 2.03-2.96 2.03-1.99.01-3.16-1.4-3.16-3.7zM105.12 14.71h-2.89v-1.79h7.84v1.79h-2.89v21.94h-2.06V14.71zM113.27 12.92h2.06V23h3.89V12.92h2.06v23.73h-2.06V24.78h-3.89v11.87h-2.06V12.92zM125.31 12.92h6.81v1.79h-4.75V23h4.13v1.79h-4.13v10.08h4.75v1.79h-6.81V12.92zM135.46 12.92h2.68l3.75 17.37h.07V12.92h1.86v23.73h-2.24l-4.2-19.57h-.07v19.57h-1.86V12.92zM148.63 36.65h-.83v-2.82h2.34v2.48l-1.51 3.82h-1.2l1.2-3.48zM161.91 14.71h-2.89v-1.79h7.84v1.79h-2.89v21.94h-2.06V14.71zM169.65 32.7V16.87c0-2.75 1.48-4.3 3.99-4.3s3.99 1.55 3.99 4.3V32.7c0 2.75-1.48 4.3-3.99 4.3s-3.99-1.55-3.99-4.3zm5.91-.35V17.22c0-2-.55-2.79-1.93-2.79-1.41 0-1.93.79-1.93 2.79v15.13c0 2 .52 2.79 1.93 2.79 1.38 0 1.93-.79 1.93-2.79zM181.52 12.92h2.68l3.75 17.37h.07V12.92h1.86v23.73h-2.24l-4.2-19.57h-.07v19.57h-1.86V12.92zM193.9 12.92h6.81v1.79h-4.75V23h4.13v1.79h-4.13v10.08h4.75v1.79h-6.81V12.92zM205.18 36.65h-.83v-2.82h2.34v2.48l-1.51 3.82h-1.2l1.2-3.48zM38.87 46.46h2.72l2.99 23.73h-2.1l-.69-5.88h-3.23l-.69 5.88h-1.99l2.99-23.73zm2.72 16.06l-1.38-12.79h-.07l-1.38 12.79h2.83zM47.81 46.46h2.68l3.75 17.37h.07V46.46h1.86v23.73h-2.24l-4.2-19.57h-.07v19.57H47.8V46.46zM60.2 46.46h3.92c2.75 0 4.06 1.41 4.06 4.3v15.13c0 2.89-1.31 4.3-4.06 4.3H60.2V46.46zm3.68 21.94c1.72 0 2.24-.65 2.24-2.86V51.1c0-2.2-.52-2.85-2.24-2.85h-1.62V68.4h1.62zM77.7 46.46h6.81v1.79h-4.75v8.63h4.13v1.79h-4.13v11.52H77.7V46.46zM87.71 46.46h2.06v23.73h-2.06V46.46zM93.8 46.46h3.82c2.75 0 4.06 1.41 4.06 4.3v3.03c0 1.93-.62 3.1-1.86 3.65v.07c1.24.55 1.86 1.72 1.86 3.68v9.01h-2.06v-8.87c0-2.2-.62-2.85-2.58-2.85h-1.17v11.73H93.8V46.46zm3.58 10.21c1.72 0 2.24-.65 2.24-2.85V51.1c0-2.2-.52-2.85-2.24-2.85h-1.51v8.43h1.51zM105.53 46.46h3.27l2.65 17.51h.07l2.65-17.51h3.4v23.73h-2.06V48.97h-.07l-3.2 21.22h-1.62l-3.2-21.22h-.07v21.22h-1.82V46.46zM127.27 46.46h3.27l2.65 17.51h.07l2.65-17.51h3.4v23.73h-2.06V48.97h-.07l-3.2 21.22h-1.62l-3.2-21.22h-.07v21.22h-1.82V46.46zM143.26 66.37V46.46h2.06V66c0 1.93.48 2.68 1.86 2.68 1.38 0 1.86-.76 1.86-2.68V46.46h1.99v19.91c0 2.65-1.44 4.16-3.89 4.16-2.43 0-3.88-1.51-3.88-4.16zM154.62 66.3v-4.16h1.99v3.78c0 1.96.55 2.75 1.93 2.75 1.41 0 1.96-.79 1.96-2.75v-3.58c0-1.62-.45-2.41-1.62-3.16l-1.82-1.17c-1.75-1.13-2.44-2.44-2.44-4.75V50.2c0-2.61 1.41-4.09 3.85-4.09s3.85 1.48 3.85 4.09v3.06h-1.99v-2.72c0-1.86-.52-2.58-1.82-2.58-1.31 0-1.82.72-1.82 2.58v2.58c0 1.62.45 2.41 1.62 3.16l1.82 1.17c1.75 1.13 2.44 2.44 2.44 4.75v4.09c0 2.72-1.48 4.23-3.99 4.23-2.52.01-3.96-1.5-3.96-4.22zM166 66.44V50.21c0-2.61 1.38-4.09 3.85-4.09 2.51 0 3.89 1.48 3.89 4.09v3.89h-1.96v-3.54c0-1.86-.55-2.58-1.86-2.58-1.34 0-1.86.72-1.86 2.58V66.1c0 1.86.52 2.58 1.86 2.58 1.31 0 1.86-.72 1.86-2.58v-4.78h1.96v5.12c0 2.61-1.38 4.09-3.89 4.09-2.47 0-3.85-1.48-3.85-4.09zM177.39 46.46h2.06V68.4h4.4v1.79h-6.47V46.46zM187.05 46.46h6.81v1.79h-4.75v8.29h4.13v1.79h-4.13V68.4h4.75v1.79h-6.81V46.46zM196.89 66.3v-4.16h2v3.78c0 1.96.55 2.75 1.93 2.75 1.41 0 1.96-.79 1.96-2.75v-3.58c0-1.62-.45-2.41-1.62-3.16l-1.82-1.17c-1.75-1.13-2.44-2.44-2.44-4.75V50.2c0-2.61 1.41-4.09 3.85-4.09s3.85 1.48 3.85 4.09v3.06h-1.99v-2.72c0-1.86-.52-2.58-1.82-2.58-1.31 0-1.82.72-1.82 2.58v2.58c0 1.62.45 2.41 1.62 3.16l1.82 1.17c1.75 1.13 2.44 2.44 2.44 4.75v4.09c0 2.72-1.48 4.23-3.99 4.23s-3.97-1.5-3.97-4.22zM208.41 67.37h2.3v2.82h-2.3v-2.82z"/></svg>