<svg id="Layer_1" xmlns="http://www.w3.org/2000/svg" viewBox="0 0 728 90"><style>.st0{fill:#eaf5fb}.st1{fill:#002554}</style><path class="st0" d="M394 8.5h96.5V33H394z"/><path class="st1" d="M401.37 25.38v-8.49h2.06v6.7h3.29v1.79h-5.35zM408.16 25.38v-8.49h5.71v1.74h-3.73v1.6h3.53v1.64h-3.53v1.76h3.95v1.75h-5.93zM421.68 25.38l-.66-1.67h-3.29l-.62 1.67h-2.23l3.56-8.49h1.99l3.53 8.49h-2.28zm-2.28-6.23l-1.08 2.91h2.13l-1.05-2.91zM429.7 25.38l-1.83-3.37h-.7v3.37h-2.01v-8.49h3.24c1.63 0 3.25.62 3.25 2.57 0 1.14-.67 1.96-1.76 2.29l2.22 3.63h-2.41zm-1.45-6.84h-1.09v1.98h.97c.66 0 1.49-.17 1.49-1.03 0-.79-.76-.95-1.37-.95zM438.99 25.38l-3.42-5.55h-.04l.05 5.55h-1.99v-8.49h2.34l3.41 5.54h.04l-.05-5.54h1.99v8.49h-2.33zM454.73 25.38l.05-6.01h-.04l-2.21 6.01h-1.44l-2.15-6.01h-.04l.05 6.01h-1.93v-8.49h2.91l1.93 5.44h.05l1.85-5.44h2.96v8.49h-1.99zM463.19 25.61c-2.65 0-4.62-1.82-4.62-4.51 0-2.72 1.97-4.44 4.62-4.44 2.66 0 4.63 1.72 4.63 4.44 0 2.68-1.97 4.51-4.63 4.51zm0-7.1c-1.44 0-2.42 1.1-2.42 2.59 0 1.54 1 2.64 2.42 2.64 1.43 0 2.43-1.1 2.43-2.64.01-1.49-.99-2.59-2.43-2.59zM474.21 25.38l-1.83-3.37h-.7v3.37h-2.01v-8.49h3.24c1.63 0 3.25.62 3.25 2.57 0 1.14-.67 1.96-1.76 2.29l2.22 3.63h-2.41zm-1.46-6.84h-1.09v1.98h.97c.66 0 1.49-.17 1.49-1.03 0-.79-.75-.95-1.37-.95zM478.1 25.38v-8.49h5.71v1.74h-3.73v1.6h3.53v1.64h-3.53v1.76h3.95v1.75h-5.93z"/></svg>