<svg id="Layer_1" xmlns="http://www.w3.org/2000/svg" viewBox="0 0 728 90"><style>.st0{fill:#fff}</style><path class="st0" d="M36.73 83.96h-.77v-5.49h.77v5.49zM39.75 83.96h-.79l-1.5-3.67h.81l1.08 2.89h.02l1.09-2.89h.77l-1.48 3.67zM44.22 81.58c0-.27-.08-.48-.25-.61-.17-.13-.38-.2-.66-.2-.21 0-.4.04-.58.12-.18.08-.34.18-.46.31l-.39-.46c.18-.17.4-.3.66-.4.26-.1.54-.15.84-.15.26 0 .49.04.69.11.19.08.35.18.48.31.12.13.22.28.28.46s.09.36.09.57v1.6c0 .12 0 .25.01.39s.02.25.04.34h-.66c-.04-.18-.06-.35-.06-.53h-.02c-.13.2-.3.35-.51.46-.2.11-.45.16-.72.16-.14 0-.3-.02-.45-.06-.16-.04-.3-.1-.43-.19s-.24-.2-.32-.35-.13-.32-.13-.53c0-.28.07-.5.22-.66s.35-.29.59-.37c.24-.08.52-.14.82-.17.3-.03.61-.04.92-.04v-.11zm-.18.62c-.18 0-.37.01-.56.02s-.37.05-.53.09c-.16.05-.29.12-.39.21s-.15.22-.15.37c0 .11.02.2.07.27.04.07.1.13.17.18s.15.08.24.1c.09.02.18.03.27.03.34 0 .6-.1.79-.31.18-.2.28-.46.28-.77v-.19h-.19zM46.79 80.28c.01.09.02.2.02.31.01.12.01.21.01.29h.02c.05-.1.11-.19.19-.27.08-.09.17-.16.27-.23.1-.06.22-.11.34-.15.12-.04.25-.05.39-.05.24 0 .44.04.61.12s.31.19.43.32c.11.13.2.29.25.47.05.18.08.37.08.58v2.28h-.73v-2.04c0-.15-.01-.29-.04-.43-.02-.13-.07-.25-.13-.36a.695.695 0 0 0-.26-.25.871.871 0 0 0-.42-.09c-.29 0-.53.11-.71.33-.18.22-.27.51-.27.88v1.95h-.73v-2.88c0-.1 0-.22-.01-.38s-.01-.29-.02-.41h.71zM52.85 80.28l.83 2.81h.02l.88-2.81h.77l.89 2.81h.02l.83-2.81h.77l-1.22 3.67h-.76l-.91-2.76h-.02l-.9 2.76h-.76l-1.22-3.67h.78zM60.85 81.58c0-.27-.08-.48-.25-.61-.17-.13-.38-.2-.66-.2-.21 0-.4.04-.58.12-.18.08-.34.18-.46.31l-.39-.46c.18-.17.4-.3.66-.4.26-.1.54-.15.84-.15.26 0 .49.04.69.11.19.08.35.18.48.31.12.13.22.28.28.46s.09.36.09.57v1.6c0 .12 0 .25.01.39s.02.25.04.34h-.66c-.04-.18-.06-.35-.06-.53h-.02c-.13.2-.3.35-.51.46-.2.11-.45.16-.72.16-.14 0-.3-.02-.45-.06-.16-.04-.3-.1-.43-.19s-.24-.2-.32-.35-.13-.32-.13-.53c0-.28.07-.5.22-.66s.35-.29.59-.37c.24-.08.52-.14.82-.17.3-.03.61-.04.92-.04v-.11zm-.17.62c-.18 0-.37.01-.56.02s-.37.05-.53.09c-.16.05-.29.12-.39.21s-.15.22-.15.37c0 .11.02.2.07.27.04.07.1.13.17.18s.15.08.24.1c.09.02.18.03.27.03.34 0 .6-.1.79-.31.18-.2.28-.46.28-.77v-.19h-.19zM64.75 81.21c-.08-.13-.2-.24-.35-.33a1.063 1.063 0 0 0-.75-.1c-.08.02-.16.05-.22.09-.06.04-.12.09-.16.15a.38.38 0 0 0-.06.22c0 .16.07.27.21.35.14.07.35.14.63.21.18.04.34.09.49.15s.28.13.39.21a.864.864 0 0 1 .35.73c0 .22-.04.4-.12.55-.08.15-.19.27-.33.37-.14.1-.29.16-.47.21-.18.04-.36.06-.54.06-.28 0-.55-.05-.82-.16-.27-.11-.49-.27-.66-.5l.52-.44c.1.14.23.27.41.36.17.1.36.15.57.15.09 0 .18-.01.27-.03.08-.02.16-.05.23-.09s.12-.1.17-.16a.5.5 0 0 0 .06-.26c0-.17-.08-.3-.24-.38-.16-.08-.4-.16-.72-.23-.12-.03-.25-.07-.38-.11-.13-.04-.24-.1-.34-.18a.877.877 0 0 1-.25-.29.941.941 0 0 1-.1-.43c0-.2.04-.37.12-.51.08-.14.19-.26.31-.35.13-.09.28-.16.44-.2s.34-.07.51-.07c.26 0 .52.05.76.16.25.1.44.25.57.45l-.5.4zM69.94 80.88h-.98v1.91c0 .22.04.38.12.47.08.1.21.14.4.14.07 0 .14-.01.22-.02.08-.01.15-.04.21-.06l.02.6c-.09.03-.18.06-.29.07-.11.02-.22.03-.33.03-.35 0-.61-.09-.79-.29-.18-.19-.27-.48-.27-.86v-1.99h-.71v-.6h.71v-1.05h.72v1.05h.98v.6zM70.69 80.69c-.01-.16-.01-.29-.02-.41h.69c.01.09.02.2.02.32.01.12.01.22.01.3h.02c.1-.22.25-.39.45-.52s.42-.2.67-.2c.11 0 .21.01.29.03l-.03.67c-.1-.03-.21-.04-.33-.04-.18 0-.33.03-.46.1s-.24.15-.32.26c-.08.11-.15.23-.19.38-.04.14-.06.29-.06.45v1.93h-.73v-2.88c0-.11-.01-.23-.01-.39zM76.8 82.09v.12c0 .04 0 .08-.01.12h-2.92c.01.15.04.3.1.44.06.14.15.25.26.35.11.1.23.18.38.24.14.06.29.08.45.08.25 0 .46-.05.64-.16s.32-.24.43-.4l.51.41c-.2.26-.43.45-.69.58s-.56.18-.89.18c-.28 0-.54-.05-.78-.14-.24-.09-.44-.22-.61-.39-.17-.17-.31-.37-.4-.61-.1-.24-.15-.5-.15-.79 0-.28.05-.55.14-.79s.23-.45.4-.62c.17-.17.37-.3.61-.4.23-.1.48-.14.75-.14s.51.04.73.13c.22.09.41.21.56.38s.27.37.35.6c.09.25.14.51.14.81zm-.75-.3c0-.14-.03-.28-.07-.41a.894.894 0 0 0-.19-.33.914.914 0 0 0-.32-.22c-.13-.05-.28-.08-.45-.08-.15 0-.3.03-.44.08s-.26.13-.36.22c-.1.09-.18.2-.25.33-.06.13-.1.26-.11.41h2.19zM80.04 81.58c0-.27-.08-.48-.25-.61-.17-.13-.38-.2-.66-.2-.21 0-.4.04-.58.12-.18.08-.34.18-.46.31l-.39-.46c.18-.17.4-.3.66-.4.26-.1.54-.15.84-.15.26 0 .49.04.69.11.19.08.35.18.48.31.12.13.22.28.28.46s.09.36.09.57v1.6c0 .12 0 .25.01.39s.02.25.04.34h-.66c-.04-.18-.06-.35-.06-.53h-.02c-.13.2-.3.35-.51.46-.2.11-.45.16-.72.16-.14 0-.3-.02-.45-.06-.16-.04-.3-.1-.43-.19s-.24-.2-.32-.35-.13-.32-.13-.53c0-.28.07-.5.22-.66s.35-.29.59-.37c.24-.08.52-.14.82-.17.3-.03.61-.04.92-.04v-.11zm-.17.62c-.18 0-.37.01-.56.02s-.37.05-.53.09c-.16.05-.29.12-.39.21s-.15.22-.15.37c0 .11.02.2.07.27.04.07.1.13.17.18s.15.08.24.1c.09.02.18.03.27.03.34 0 .6-.1.79-.31.18-.2.28-.46.28-.77v-.19h-.19zM83.68 80.88h-.98v1.91c0 .22.04.38.12.47.08.1.21.14.4.14.07 0 .14-.01.22-.02.08-.01.15-.04.21-.06l.02.6c-.09.03-.18.06-.29.07-.11.02-.22.03-.33.03-.35 0-.61-.09-.79-.29-.18-.19-.27-.48-.27-.86v-1.99h-.71v-.6h.71v-1.05h.72v1.05h.98v.6zM87.86 82.09v.12c0 .04 0 .08-.01.12h-2.92c.01.15.04.3.1.44.06.14.15.25.26.35.11.1.23.18.38.24.14.06.29.08.45.08.25 0 .46-.05.64-.16s.32-.24.43-.4l.51.41c-.2.26-.43.45-.69.58s-.56.18-.89.18c-.28 0-.54-.05-.78-.14-.24-.09-.44-.22-.61-.39-.17-.17-.31-.37-.4-.61-.1-.24-.15-.5-.15-.79 0-.28.05-.55.14-.79s.23-.45.4-.62c.17-.17.37-.3.61-.4.23-.1.48-.14.75-.14s.51.04.73.13c.22.09.41.21.56.38s.27.37.35.6c.1.25.14.51.14.81zm-.74-.3c0-.14-.03-.28-.07-.41a.894.894 0 0 0-.19-.33.914.914 0 0 0-.32-.22c-.13-.05-.28-.08-.45-.08-.15 0-.3.03-.44.08s-.26.13-.36.22c-.1.09-.18.2-.25.33-.06.13-.1.26-.11.41h2.19zM91.8 83.37c-.14.22-.33.39-.57.51s-.49.17-.76.17c-.28 0-.54-.05-.77-.15-.23-.1-.42-.24-.58-.41s-.28-.38-.37-.62c-.09-.24-.13-.49-.13-.76s.04-.52.13-.76c.09-.23.21-.44.38-.62.16-.18.36-.31.59-.41.23-.1.48-.15.75-.15.3 0 .56.06.78.19.22.13.4.28.53.46h.02V78.1h.73v5.86h-.71v-.58h-.02zm-2.42-1.26c0 .17.03.33.08.5.05.16.13.3.23.42s.23.22.38.3c.15.07.33.11.53.11.19 0 .35-.04.51-.11a1.242 1.242 0 0 0 .64-.71 1.426 1.426 0 0 0-.25-1.42 1.194 1.194 0 0 0-.9-.4c-.2 0-.38.04-.53.11s-.28.17-.38.29c-.1.12-.18.26-.23.42-.05.16-.08.32-.08.49zM96 80.28l.83 2.81h.02l.88-2.81h.77l.89 2.81h.02l.83-2.81h.77l-1.22 3.67h-.76l-.91-2.76h-.02l-.9 2.76h-.76l-1.22-3.67H96zM102.57 78.96c0 .13-.05.25-.14.33s-.21.13-.34.13c-.13 0-.25-.04-.34-.13a.453.453 0 0 1-.14-.33.476.476 0 0 1 .48-.48c.13 0 .25.05.34.14.1.09.14.2.14.34zm-.11 5h-.73v-3.67h.73v3.67zM105.53 80.88h-.98v1.91c0 .22.04.38.12.47.08.1.21.14.4.14.07 0 .14-.01.22-.02.08-.01.15-.04.21-.06l.02.6c-.09.03-.18.06-.29.07-.11.02-.22.03-.33.03-.35 0-.61-.09-.79-.29-.18-.19-.27-.48-.27-.86v-1.99h-.71v-.6h.71v-1.05h.72v1.05h.98v.6zM107.04 80.84c.09-.18.24-.34.45-.46.21-.13.45-.19.71-.19.24 0 .44.04.61.12s.31.19.43.32c.11.13.2.29.25.47.05.18.08.37.08.58v2.28h-.73v-2.04c0-.15-.01-.29-.03-.43-.02-.13-.07-.25-.13-.36s-.15-.19-.25-.25a.83.83 0 0 0-.41-.09c-.29 0-.53.11-.71.33-.19.22-.28.51-.28.88v1.95h-.73V78.1h.73v2.74h.01zM117.48 83.1c-.22.29-.5.53-.84.72s-.76.28-1.25.28c-.42 0-.8-.07-1.16-.21a2.58 2.58 0 0 1-.91-.6 2.62 2.62 0 0 1-.6-.92c-.14-.35-.22-.74-.22-1.17 0-.43.07-.82.22-1.17s.35-.66.61-.91.57-.45.93-.58c.36-.14.74-.21 1.16-.21.19 0 .37.02.57.05.19.04.37.09.55.16s.34.16.48.27c.14.11.27.23.37.37l-.6.47c-.13-.19-.32-.34-.57-.46-.25-.12-.51-.18-.79-.18-.32 0-.61.06-.86.17-.26.12-.47.28-.66.48-.18.2-.32.43-.42.7-.1.27-.15.55-.15.85 0 .31.05.6.14.87s.23.5.41.7c.18.2.4.36.65.47s.54.17.86.17c.31 0 .59-.06.84-.19.25-.12.46-.3.63-.54l.61.41zM121.85 82.11c0 .28-.05.54-.15.78-.1.24-.24.44-.42.62a2.003 2.003 0 0 1-1.41.54c-.28 0-.54-.05-.78-.14a1.88 1.88 0 0 1-.63-.4c-.18-.17-.31-.38-.41-.62-.1-.24-.15-.5-.15-.78s.05-.54.15-.78c.1-.24.24-.44.41-.61a2.003 2.003 0 0 1 1.41-.54c.28 0 .54.05.78.14s.45.23.63.4.32.37.42.61c.1.24.15.5.15.78zm-.75 0c0-.17-.03-.34-.08-.5-.05-.16-.13-.3-.24-.42s-.23-.22-.38-.29-.33-.11-.52-.11-.37.04-.52.11-.28.17-.38.29-.18.26-.24.42c-.05.16-.08.33-.08.5 0 .18.03.34.08.5.05.16.13.3.24.42.1.12.23.22.38.29.15.07.33.11.52.11s.37-.04.52-.11c.15-.07.28-.17.38-.29.1-.12.18-.27.24-.42.05-.15.08-.32.08-.5zM126.58 82.11c0 .28-.05.54-.15.78-.1.24-.24.44-.42.62a2.003 2.003 0 0 1-1.41.54c-.28 0-.54-.05-.78-.14a1.88 1.88 0 0 1-.63-.4c-.18-.17-.31-.38-.41-.62-.1-.24-.15-.5-.15-.78s.05-.54.15-.78c.1-.24.24-.44.41-.61a2.003 2.003 0 0 1 1.41-.54c.28 0 .54.05.78.14s.45.23.63.4.32.37.42.61c.1.24.15.5.15.78zm-.76 0c0-.17-.03-.34-.08-.5-.05-.16-.13-.3-.24-.42s-.23-.22-.38-.29-.33-.11-.52-.11-.37.04-.52.11-.28.17-.38.29-.18.26-.24.42c-.05.16-.08.33-.08.5 0 .18.03.34.08.5.05.16.13.3.24.42.1.12.23.22.38.29.15.07.33.11.52.11s.37-.04.52-.11c.15-.07.28-.17.38-.29.1-.12.18-.27.24-.42.06-.15.08-.32.08-.5zM128.33 83.96h-.73V78.1h.73v5.86zM131.57 83.96h-.77v-4.81h-1.76v-.67h4.29v.67h-1.76v4.81zM136.99 82.11c0 .28-.05.54-.15.78-.1.24-.24.44-.42.62a2.003 2.003 0 0 1-1.41.54c-.28 0-.54-.05-.78-.14a1.88 1.88 0 0 1-.63-.4c-.18-.17-.31-.38-.41-.62-.1-.24-.15-.5-.15-.78s.05-.54.15-.78c.1-.24.24-.44.41-.61a2.003 2.003 0 0 1 1.41-.54c.28 0 .54.05.78.14s.45.23.63.4.32.37.42.61c.1.24.15.5.15.78zm-.76 0c0-.17-.03-.34-.08-.5-.05-.16-.13-.3-.24-.42s-.23-.22-.38-.29-.33-.11-.52-.11-.37.04-.52.11-.28.17-.38.29-.18.26-.24.42c-.05.16-.08.33-.08.5 0 .18.03.34.08.5.05.16.13.3.24.42.1.12.23.22.38.29.15.07.33.11.52.11s.37-.04.52-.11c.15-.07.28-.17.38-.29.1-.12.18-.27.24-.42.05-.15.08-.32.08-.5zM138.66 80.28c.01.09.02.2.02.31.01.12.01.21.01.29h.02c.05-.1.11-.19.19-.27.08-.09.17-.16.27-.23.1-.06.22-.11.34-.15.12-.04.25-.05.39-.05.24 0 .44.04.61.12s.31.19.43.32c.11.13.2.29.25.47.05.18.08.37.08.58v2.28h-.73v-2.04c0-.15-.01-.29-.04-.43-.02-.13-.07-.25-.13-.36a.695.695 0 0 0-.26-.25.871.871 0 0 0-.42-.09c-.29 0-.53.11-.71.33-.18.22-.27.51-.27.88v1.95H138v-2.88c0-.1 0-.22-.01-.38s-.01-.29-.02-.41h.69zM145.94 82.09v.12c0 .04 0 .08-.01.12h-2.92c.01.15.04.3.1.44.06.14.15.25.26.35.11.1.23.18.38.24.14.06.29.08.45.08.25 0 .46-.05.64-.16s.32-.24.43-.4l.51.41c-.2.26-.43.45-.69.58s-.56.18-.89.18c-.28 0-.54-.05-.78-.14-.24-.09-.44-.22-.61-.39-.17-.17-.31-.37-.4-.61-.1-.24-.15-.5-.15-.79 0-.28.05-.55.14-.79s.23-.45.4-.62c.17-.17.37-.3.61-.4.23-.1.48-.14.75-.14s.51.04.73.13c.22.09.41.21.56.38s.27.37.35.6c.1.25.14.51.14.81zm-.74-.3c0-.14-.03-.28-.07-.41a.894.894 0 0 0-.19-.33.914.914 0 0 0-.32-.22c-.13-.05-.28-.08-.45-.08-.15 0-.3.03-.44.08s-.26.13-.36.22c-.1.09-.18.2-.25.33-.06.13-.1.26-.11.41h2.19zM146.88 80.13c0-.24.05-.47.14-.69.09-.21.22-.4.38-.56.16-.16.35-.28.56-.38s.44-.14.69-.14c.24 0 .47.05.69.14s.4.22.56.38c.16.16.29.34.38.56a1.736 1.736 0 0 1-.94 2.29c-.21.09-.44.14-.69.14-.24 0-.47-.04-.69-.14a1.763 1.763 0 0 1-.94-.92c-.09-.21-.14-.43-.14-.68zm.28 0c0 .2.04.39.12.57.08.18.18.34.32.48s.29.24.47.32c.18.08.37.12.58.12.21 0 .4-.04.58-.12.18-.08.34-.18.47-.32s.24-.3.32-.48.12-.37.12-.57c0-.21-.04-.4-.12-.58a1.4 1.4 0 0 0-.32-.47c-.13-.13-.29-.24-.47-.32a1.4 1.4 0 0 0-.58-.12c-.21 0-.4.04-.58.12s-.34.18-.47.32c-.13.13-.24.29-.32.47-.08.18-.12.38-.12.58zm1.91.97l-.43-.77h-.28v.77h-.47v-1.98h.85c.09 0 .18.01.27.03s.17.05.24.1c.07.05.13.11.17.19.04.08.07.18.07.3 0 .13-.04.25-.11.33a.61.61 0 0 1-.28.19l.53.84h-.56zm-.34-1.1c.07 0 .14-.02.2-.07s.09-.11.09-.19-.03-.14-.1-.18-.13-.05-.19-.05h-.36V80h.36zM157.26 82.11c0 .28-.05.54-.15.78-.1.24-.24.44-.42.62a2.003 2.003 0 0 1-1.41.54c-.28 0-.54-.05-.78-.14a1.88 1.88 0 0 1-.63-.4c-.18-.17-.31-.38-.41-.62-.1-.24-.15-.5-.15-.78s.05-.54.15-.78c.1-.24.24-.44.41-.61a2.003 2.003 0 0 1 1.41-.54c.28 0 .54.05.78.14s.45.23.63.4.32.37.42.61c.1.24.15.5.15.78zm-.76 0c0-.17-.03-.34-.08-.5-.05-.16-.13-.3-.24-.42s-.23-.22-.38-.29-.33-.11-.52-.11-.37.04-.52.11-.28.17-.38.29-.18.26-.24.42c-.05.16-.08.33-.08.5 0 .18.03.34.08.5.05.16.13.3.24.42.1.12.23.22.38.29.15.07.33.11.52.11s.37-.04.52-.11c.15-.07.28-.17.38-.29.1-.12.18-.27.24-.42.05-.15.08-.32.08-.5zM158.92 80.28c.01.09.02.2.02.31.01.12.01.21.01.29h.02c.05-.1.11-.19.19-.27.08-.09.17-.16.27-.23.1-.06.22-.11.34-.15.12-.04.25-.05.39-.05.24 0 .44.04.61.12s.31.19.43.32c.11.13.2.29.25.47.05.18.08.37.08.58v2.28h-.73v-2.04c0-.15-.01-.29-.04-.43-.02-.13-.07-.25-.13-.36a.695.695 0 0 0-.26-.25.871.871 0 0 0-.42-.09c-.29 0-.53.11-.71.33-.18.22-.27.51-.27.88v1.95h-.73v-2.88c0-.1 0-.22-.01-.38s-.01-.29-.02-.41h.71zM165.47 80.84c.09-.18.24-.34.45-.46.21-.13.45-.19.71-.19.24 0 .44.04.61.12s.31.19.43.32c.11.13.2.29.25.47.05.18.08.37.08.58v2.28h-.73v-2.04c0-.15-.01-.29-.03-.43-.02-.13-.07-.25-.13-.36s-.15-.19-.25-.25a.83.83 0 0 0-.41-.09c-.29 0-.53.11-.71.33-.19.22-.28.51-.28.88v1.95h-.73V78.1h.73v2.74h.01zM170.09 78.96c0 .13-.05.25-.14.33s-.21.13-.34.13c-.13 0-.25-.04-.34-.13a.453.453 0 0 1-.14-.33.476.476 0 0 1 .48-.48.476.476 0 0 1 .48.48zm-.12 5h-.73v-3.67h.73v3.67zM173.23 81.21c-.08-.13-.2-.24-.35-.33a1.063 1.063 0 0 0-.75-.1c-.08.02-.16.05-.22.09-.06.04-.12.09-.16.15a.38.38 0 0 0-.06.22c0 .16.07.27.21.35.14.07.35.14.63.21.18.04.34.09.49.15s.28.13.39.21a.864.864 0 0 1 .35.73c0 .22-.04.4-.12.55-.08.15-.19.27-.33.37-.14.1-.29.16-.47.21-.18.04-.36.06-.54.06-.28 0-.55-.05-.82-.16-.27-.11-.49-.27-.66-.5l.52-.44c.1.14.23.27.41.36.17.1.36.15.57.15.09 0 .18-.01.27-.03.08-.02.16-.05.23-.09s.12-.1.17-.16a.5.5 0 0 0 .06-.26c0-.17-.08-.3-.24-.38-.16-.08-.4-.16-.72-.23-.12-.03-.25-.07-.38-.11-.13-.04-.24-.1-.34-.18a.877.877 0 0 1-.25-.29.941.941 0 0 1-.1-.43c0-.2.04-.37.12-.51.08-.14.19-.26.31-.35.13-.09.28-.16.44-.2s.34-.07.51-.07c.26 0 .52.05.76.16.25.1.44.25.57.45l-.5.4zM178.91 81.58c0-.27-.08-.48-.25-.61-.17-.13-.38-.2-.66-.2-.21 0-.4.04-.58.12-.18.08-.34.18-.46.31l-.39-.46c.18-.17.4-.3.66-.4.26-.1.54-.15.84-.15.26 0 .49.04.69.11.19.08.35.18.48.31.12.13.22.28.28.46s.09.36.09.57v1.6c0 .12 0 .25.01.39s.02.25.04.34H179c-.04-.18-.06-.35-.06-.53h-.02c-.13.2-.3.35-.51.46-.2.11-.45.16-.72.16-.14 0-.3-.02-.45-.06-.16-.04-.3-.1-.43-.19s-.24-.2-.32-.35-.13-.32-.13-.53c0-.28.07-.5.22-.66s.35-.29.59-.37c.24-.08.52-.14.82-.17.3-.03.61-.04.92-.04v-.11zm-.18.62c-.18 0-.37.01-.56.02s-.37.05-.53.09c-.16.05-.29.12-.39.21s-.15.22-.15.37c0 .11.02.2.07.27.04.07.1.13.17.18s.15.08.24.1c.09.02.18.03.27.03.34 0 .6-.1.79-.31.18-.2.28-.46.28-.77v-.19h-.19zM181.55 83.37v.58h-.71V78.1h.73v2.74h.02c.12-.18.3-.33.52-.46.22-.13.48-.19.79-.19.27 0 .52.05.75.15.22.1.42.24.58.41.16.17.29.38.38.62.09.24.13.49.13.76s-.04.52-.13.76-.21.44-.37.62-.35.31-.58.41a1.89 1.89 0 0 1-1.52-.02 1.34 1.34 0 0 1-.57-.51h-.02zm2.44-1.26c0-.17-.03-.33-.08-.49-.05-.16-.13-.3-.23-.42s-.23-.22-.38-.29-.33-.11-.53-.11a1.194 1.194 0 0 0-.9.4c-.11.12-.19.26-.25.42a1.426 1.426 0 0 0 .25 1.42 1.194 1.194 0 0 0 .9.4c.2 0 .38-.04.53-.11.15-.08.28-.17.38-.3.1-.12.18-.27.23-.42.05-.16.08-.33.08-.5zM188.68 83.37c-.14.22-.33.39-.57.51s-.49.17-.76.17c-.28 0-.54-.05-.77-.15-.23-.1-.42-.24-.58-.41s-.28-.38-.37-.62c-.09-.24-.13-.49-.13-.76s.04-.52.13-.76c.09-.23.21-.44.38-.62.16-.18.36-.31.59-.41.23-.1.48-.15.75-.15.3 0 .56.06.78.19.22.13.4.28.53.46h.02V78.1h.73v5.86h-.71v-.58h-.02zm-2.42-1.26c0 .17.03.33.08.5.05.16.13.3.23.42s.23.22.38.3c.15.07.33.11.53.11.19 0 .35-.04.51-.11a1.242 1.242 0 0 0 .64-.71 1.426 1.426 0 0 0-.25-1.42 1.194 1.194 0 0 0-.9-.4c-.2 0-.38.04-.53.11s-.28.17-.38.29c-.1.12-.18.26-.23.42-.05.16-.08.32-.08.49zM194.39 82.11c0 .28-.05.54-.15.78-.1.24-.24.44-.42.62a2.003 2.003 0 0 1-1.41.54c-.28 0-.54-.05-.78-.14a1.88 1.88 0 0 1-.63-.4c-.18-.17-.31-.38-.41-.62-.1-.24-.15-.5-.15-.78s.05-.54.15-.78c.1-.24.24-.44.41-.61a2.003 2.003 0 0 1 1.41-.54c.28 0 .54.05.78.14s.45.23.63.4.32.37.42.61c.1.24.15.5.15.78zm-.75 0c0-.17-.03-.34-.08-.5-.05-.16-.13-.3-.24-.42s-.23-.22-.38-.29-.33-.11-.52-.11-.37.04-.52.11-.28.17-.38.29-.18.26-.24.42c-.05.16-.08.33-.08.5 0 .18.03.34.08.5.05.16.13.3.24.42.1.12.23.22.38.29.15.07.33.11.52.11s.37-.04.52-.11c.15-.07.28-.17.38-.29.1-.12.18-.27.24-.42.05-.15.08-.32.08-.5zM196.56 80.39c.2-.14.45-.21.73-.21.25 0 .47.06.67.17.2.11.36.3.47.57.12-.24.3-.42.52-.55.22-.13.46-.19.73-.19.24 0 .44.04.61.12s.31.19.43.32c.11.13.2.29.25.47.05.18.08.37.08.58v2.28h-.73v-2.04c0-.15-.01-.29-.04-.43-.03-.13-.07-.25-.13-.36a.667.667 0 0 0-.25-.25.765.765 0 0 0-.4-.09c-.17 0-.31.04-.43.1-.12.07-.22.16-.29.27-.08.11-.13.24-.16.38s-.05.28-.05.43v1.98h-.73v-2.19c0-.14-.01-.28-.04-.4s-.07-.22-.13-.31-.14-.15-.24-.2a.798.798 0 0 0-.36-.07c-.27 0-.49.11-.67.33-.18.22-.27.51-.27.88v1.95h-.73v-2.88c0-.1 0-.22-.01-.38s-.01-.29-.02-.41h.69c.01.09.02.2.02.31.01.12.01.21.01.29h.02c.1-.17.25-.34.45-.47zM205.71 82.09v.12c0 .04 0 .08-.01.12h-2.92c.01.15.04.3.1.44.06.14.15.25.26.35.11.1.23.18.38.24.14.06.29.08.45.08.25 0 .46-.05.64-.16s.32-.24.43-.4l.51.41c-.2.26-.43.45-.69.58s-.56.18-.89.18c-.28 0-.54-.05-.78-.14-.24-.09-.44-.22-.61-.39-.17-.17-.31-.37-.4-.61-.1-.24-.15-.5-.15-.79 0-.28.05-.55.14-.79s.23-.45.4-.62c.17-.17.37-.3.61-.4.23-.1.48-.14.75-.14s.51.04.73.13c.22.09.41.21.56.38s.27.37.35.6c.1.25.14.51.14.81zm-.74-.3c0-.14-.03-.28-.07-.41a.894.894 0 0 0-.19-.33.914.914 0 0 0-.32-.22c-.13-.05-.28-.08-.45-.08-.15 0-.3.03-.44.08s-.26.13-.36.22c-.1.09-.18.2-.25.33-.06.13-.1.26-.11.41h2.19zM207.38 80.28c.01.09.02.2.02.31.01.12.01.21.01.29h.02c.05-.1.11-.19.19-.27.08-.09.17-.16.27-.23.1-.06.22-.11.34-.15.12-.04.25-.05.39-.05.24 0 .44.04.61.12s.31.19.43.32c.11.13.2.29.25.47.05.18.08.37.08.58v2.28h-.73v-2.04c0-.15-.01-.29-.04-.43-.02-.13-.07-.25-.13-.36a.695.695 0 0 0-.26-.25.871.871 0 0 0-.42-.09c-.29 0-.53.11-.71.33-.18.22-.27.51-.27.88v1.95h-.73v-2.88c0-.1 0-.22-.01-.38s-.01-.29-.02-.41h.71zM212.13 83.49c0 .13-.05.25-.15.36s-.22.15-.37.15a.514.514 0 0 1-.52-.5c0-.14.05-.26.15-.36.1-.1.22-.15.37-.15s.27.05.37.15c.1.09.15.21.15.35zM215.75 83.96h-.77v-5.49h1.76c.26 0 .51.03.75.08s.45.14.62.26c.18.12.32.28.42.47.1.19.16.43.16.71 0 .4-.12.73-.37.98s-.57.41-.96.47l1.53 2.52h-.93l-1.4-2.44h-.82v2.44zm0-3.09h.88c.18 0 .35-.01.5-.05.16-.03.29-.08.41-.15a.7.7 0 0 0 .27-.27c.07-.11.1-.25.1-.41s-.03-.3-.1-.42a.87.87 0 0 0-.27-.27c-.11-.07-.24-.11-.39-.14s-.31-.04-.47-.04h-.94v1.75zM223.05 82.09v.12c0 .04 0 .08-.01.12h-2.92c.01.15.04.3.1.44.06.14.15.25.26.35.11.1.23.18.38.24.14.06.29.08.45.08.25 0 .46-.05.64-.16s.32-.24.43-.4l.51.41c-.2.26-.43.45-.69.58s-.56.18-.89.18c-.28 0-.54-.05-.78-.14-.24-.09-.44-.22-.61-.39-.17-.17-.31-.37-.4-.61-.1-.24-.15-.5-.15-.79 0-.28.05-.55.14-.79s.23-.45.4-.62c.17-.17.37-.3.61-.4.23-.1.48-.14.75-.14s.51.04.73.13c.22.09.41.21.56.38s.27.37.35.6c.09.25.14.51.14.81zm-.75-.3c0-.14-.03-.28-.07-.41a.894.894 0 0 0-.19-.33.914.914 0 0 0-.32-.22c-.13-.05-.28-.08-.45-.08-.15 0-.3.03-.44.08s-.26.13-.36.22c-.1.09-.18.2-.25.33-.06.13-.1.26-.11.41h2.19zM226.04 81.21c-.08-.13-.2-.24-.35-.33a1.063 1.063 0 0 0-.75-.1c-.08.02-.16.05-.22.09-.06.04-.12.09-.16.15a.38.38 0 0 0-.06.22c0 .16.07.27.21.35.14.07.35.14.63.21.18.04.34.09.49.15s.28.13.39.21a.864.864 0 0 1 .35.73c0 .22-.04.4-.12.55-.08.15-.19.27-.33.37-.14.1-.29.16-.47.21-.18.04-.36.06-.54.06-.28 0-.55-.05-.82-.16-.27-.11-.49-.27-.66-.5l.52-.44c.1.14.23.27.41.36.17.1.36.15.57.15.09 0 .18-.01.27-.03.08-.02.16-.05.23-.09s.12-.1.17-.16a.5.5 0 0 0 .06-.26c0-.17-.08-.3-.24-.38-.16-.08-.4-.16-.72-.23-.12-.03-.25-.07-.38-.11-.13-.04-.24-.1-.34-.18a.877.877 0 0 1-.25-.29.941.941 0 0 1-.1-.43c0-.2.04-.37.12-.51.08-.14.19-.26.31-.35.13-.09.28-.16.44-.2s.34-.07.51-.07c.26 0 .52.05.76.16.25.1.44.25.57.45l-.5.4zM230.08 83.96c-.01-.09-.02-.2-.02-.31 0-.12-.01-.21-.01-.29h-.02c-.09.2-.25.36-.47.5-.22.14-.46.21-.73.21-.24 0-.44-.04-.62-.12-.17-.08-.32-.18-.43-.32-.11-.14-.19-.3-.25-.48s-.08-.38-.08-.58v-2.28h.73v2.03c0 .15.01.29.04.43.02.14.07.26.13.36s.15.19.26.25.25.09.42.09c.29 0 .53-.11.71-.33.18-.22.27-.51.27-.88v-1.95h.73v2.88c0 .1 0 .22.01.38 0 .16.01.29.02.41h-.69zM232.75 83.96h-.73V78.1h.73v5.86zM235.82 80.88h-.98v1.91c0 .22.04.38.12.47.08.1.21.14.4.14.07 0 .14-.01.22-.02.08-.01.15-.04.21-.06l.02.6c-.09.03-.18.06-.29.07-.11.02-.22.03-.33.03-.35 0-.61-.09-.79-.29-.18-.19-.27-.48-.27-.86v-1.99h-.71v-.6h.71v-1.05h.72v1.05h.98v.6zM238.55 81.21c-.08-.13-.2-.24-.35-.33a1.063 1.063 0 0 0-.75-.1c-.08.02-.16.05-.22.09-.06.04-.12.09-.16.15a.38.38 0 0 0-.06.22c0 .16.07.27.21.35.14.07.35.14.63.21.18.04.34.09.49.15s.28.13.39.21a.864.864 0 0 1 .35.73c0 .22-.04.4-.12.55-.08.15-.19.27-.33.37-.14.1-.29.16-.47.21-.18.04-.36.06-.54.06-.28 0-.55-.05-.82-.16-.27-.11-.49-.27-.66-.5l.52-.44c.1.14.23.27.41.36.17.1.36.15.57.15.09 0 .18-.01.27-.03.08-.02.16-.05.23-.09s.12-.1.17-.16a.5.5 0 0 0 .06-.26c0-.17-.08-.3-.24-.38-.16-.08-.4-.16-.72-.23-.12-.03-.25-.07-.38-.11-.13-.04-.24-.1-.34-.18a.877.877 0 0 1-.25-.29.941.941 0 0 1-.1-.43c0-.2.04-.37.12-.51.08-.14.19-.26.31-.35.13-.09.28-.16.44-.2s.34-.07.51-.07c.26 0 .52.05.76.16.25.1.44.25.57.45l-.5.4zM243.11 80.39c.2-.14.45-.21.73-.21.25 0 .47.06.67.17.2.11.36.3.47.57.12-.24.3-.42.52-.55.22-.13.46-.19.73-.19.24 0 .44.04.61.12s.31.19.43.32c.11.13.2.29.25.47.05.18.08.37.08.58v2.28h-.73v-2.04c0-.15-.01-.29-.04-.43-.03-.13-.07-.25-.13-.36a.667.667 0 0 0-.25-.25.765.765 0 0 0-.4-.09c-.17 0-.31.04-.43.1-.12.07-.22.16-.29.27-.08.11-.13.24-.16.38s-.05.28-.05.43v1.98h-.73v-2.19c0-.14-.01-.28-.04-.4s-.07-.22-.13-.31-.14-.15-.24-.2a.798.798 0 0 0-.36-.07c-.27 0-.49.11-.67.33-.18.22-.27.51-.27.88v1.95h-.73v-2.88c0-.1 0-.22-.01-.38s-.01-.29-.02-.41h.69c.01.09.02.2.02.31.01.12.01.21.01.29h.02c.09-.17.24-.34.45-.47zM251.11 81.58c0-.27-.08-.48-.25-.61-.17-.13-.38-.2-.66-.2-.21 0-.4.04-.58.12-.18.08-.34.18-.46.31l-.39-.46c.18-.17.4-.3.66-.4.26-.1.54-.15.84-.15.26 0 .49.04.69.11.19.08.35.18.48.31.12.13.22.28.28.46s.09.36.09.57v1.6c0 .12 0 .25.01.39s.02.25.04.34h-.66c-.04-.18-.06-.35-.06-.53h-.02c-.13.2-.3.35-.51.46-.2.11-.45.16-.72.16-.14 0-.3-.02-.45-.06-.16-.04-.3-.1-.43-.19s-.24-.2-.32-.35-.13-.32-.13-.53c0-.28.07-.5.22-.66s.35-.29.59-.37c.24-.08.52-.14.82-.17.3-.03.61-.04.92-.04v-.11zm-.18.62c-.18 0-.37.01-.56.02s-.37.05-.53.09c-.16.05-.29.12-.39.21s-.15.22-.15.37c0 .11.02.2.07.27.04.07.1.13.17.18s.15.08.24.1c.09.02.18.03.27.03.34 0 .6-.1.79-.31.18-.2.28-.46.28-.77v-.19h-.19zM254.42 83.17h.02l1.02-2.88h.77l-1.78 4.54c-.06.16-.13.29-.2.41a1.13 1.13 0 0 1-.61.51c-.13.05-.29.07-.47.07-.08 0-.16 0-.24-.01s-.16-.02-.24-.04l.07-.64c.12.04.25.06.36.06.19 0 .33-.05.43-.16.09-.11.18-.26.26-.45l.23-.61-1.57-3.67h.81l1.14 2.87zM260.59 83.96h-.79l-1.5-3.67h.81l1.08 2.89h.02l1.09-2.89h.77l-1.48 3.67zM265.06 81.58c0-.27-.08-.48-.25-.61-.17-.13-.38-.2-.66-.2-.21 0-.4.04-.58.12-.18.08-.34.18-.46.31l-.39-.46c.18-.17.4-.3.66-.4.26-.1.54-.15.84-.15.26 0 .49.04.69.11.19.08.35.18.48.31.12.13.22.28.28.46s.09.36.09.57v1.6c0 .12 0 .25.01.39s.02.25.04.34h-.66c-.04-.18-.06-.35-.06-.53h-.02c-.13.2-.3.35-.51.46-.2.11-.45.16-.72.16-.14 0-.3-.02-.45-.06-.16-.04-.3-.1-.43-.19s-.24-.2-.32-.35-.13-.32-.13-.53c0-.28.07-.5.22-.66s.35-.29.59-.37c.24-.08.52-.14.82-.17.3-.03.61-.04.92-.04v-.11zm-.18.62c-.18 0-.37.01-.56.02s-.37.05-.53.09c-.16.05-.29.12-.39.21s-.15.22-.15.37c0 .11.02.2.07.27.04.07.1.13.17.18s.15.08.24.1c.09.02.18.03.27.03.34 0 .6-.1.79-.31.18-.2.28-.46.28-.77v-.19h-.19zM266.96 80.69c-.01-.16-.01-.29-.02-.41h.69c.01.09.02.2.02.32.01.12.01.22.01.3h.02c.1-.22.25-.39.45-.52s.42-.2.67-.2c.11 0 .21.01.29.03l-.03.67c-.1-.03-.21-.04-.33-.04-.18 0-.33.03-.46.1s-.24.15-.32.26c-.08.11-.15.23-.19.38-.04.14-.06.29-.06.45v1.93h-.73v-2.88c0-.11 0-.23-.01-.39zM271.17 83.17h.02l1.02-2.88h.77l-1.78 4.54c-.06.16-.13.29-.2.41a1.13 1.13 0 0 1-.61.51c-.13.05-.29.07-.47.07-.08 0-.16 0-.24-.01s-.16-.02-.24-.04l.07-.64c.12.04.25.06.36.06.19 0 .33-.05.43-.16.09-.11.18-.26.26-.45l.23-.61-1.57-3.67h.81l1.14 2.87zM274.3 83.49c0 .13-.05.25-.15.36s-.22.15-.37.15a.514.514 0 0 1-.52-.5c0-.14.05-.26.15-.36.1-.1.22-.15.37-.15s.27.05.37.15c.1.09.15.21.15.35z"/></svg>