<?xml version="1.0" encoding="utf-8"?>
<!-- Generator: Adobe Illustrator 25.2.1, SVG Export Plug-In . SVG Version: 6.00 Build 0)  -->
<svg version="1.1" id="Layer_1" xmlns="http://www.w3.org/2000/svg" xmlns:xlink="http://www.w3.org/1999/xlink" x="0px" y="0px"
	 viewBox="0 0 160 600" style="enable-background:new 0 0 160 600;" xml:space="preserve">
<style type="text/css">
	.st0{fill:#002554;}
</style>
<g>
	<path class="st0" d="M37.92,54.4h6.59v1.73h-4.59v8.02h4v1.73h-4v9.76h4.59v1.73h-6.59V54.4z"/>
	<path class="st0" d="M47.91,54.4h2v21.24h4.26v1.73h-6.26V54.4z"/>
	<path class="st0" d="M57.43,54.4h2v22.97h-2V54.4z"/>
	<path class="st0" d="M63.49,54.4h3.16l2.56,16.95h0.07l2.56-16.95h3.3v22.97h-2V56.83h-0.07l-3.1,20.54h-1.56l-3.1-20.54h-0.07
		v20.54h-1.76V54.4z"/>
	<path class="st0" d="M79.2,54.4h2v22.97h-2V54.4z"/>
	<path class="st0" d="M85.26,54.4h2.6l3.63,16.81h0.07V54.4h1.8v22.97h-2.16l-4.06-18.94h-0.07v18.94h-1.8V54.4z"/>
	<path class="st0" d="M99.55,54.4h2.63l2.9,22.97h-2.03l-0.67-5.69h-3.13l-0.67,5.69h-1.93L99.55,54.4z M102.18,69.94l-1.33-12.39
		h-0.07l-1.33,12.39H102.18z"/>
	<path class="st0" d="M109.23,56.13h-2.8V54.4h7.59v1.73h-2.8v21.24h-2V56.13z"/>
	<path class="st0" d="M117.29,54.4h6.59v1.73h-4.59v8.02h4v1.73h-4v9.76h4.59v1.73h-6.59V54.4z"/>
	<path class="st0" d="M19.6,103.58v-4.03h1.93v3.66c0,1.9,0.53,2.66,1.86,2.66c1.37,0,1.9-0.77,1.9-2.66v-3.46
		c0-1.56-0.43-2.33-1.56-3.06l-1.76-1.13c-1.7-1.1-2.36-2.36-2.36-4.59V88c0-2.53,1.36-3.96,3.73-3.96c2.36,0,3.73,1.43,3.73,3.96
		v2.96h-1.93v-2.63c0-1.8-0.5-2.5-1.76-2.5s-1.76,0.7-1.76,2.5v2.5c0,1.56,0.43,2.33,1.56,3.06l1.76,1.13
		c1.7,1.1,2.36,2.36,2.36,4.59v3.96c0,2.63-1.43,4.1-3.86,4.1C21,107.68,19.6,106.21,19.6,103.58z"/>
	<path class="st0" d="M32.81,86.1h-2.8v-1.73h7.59v1.73h-2.8v21.24h-2V86.1z"/>
	<path class="st0" d="M40.8,103.65V84.37h2v18.91c0,1.86,0.47,2.6,1.8,2.6c1.33,0,1.8-0.73,1.8-2.6V84.37h1.93v19.28
		c0,2.56-1.4,4.03-3.76,4.03C42.2,107.68,40.8,106.21,40.8,103.65z"/>
	<path class="st0" d="M52.32,84.37h3.7c2.66,0,3.93,1.36,3.93,4.16v2.76c0,1.86-0.57,3-1.73,3.53v0.07c1.27,0.53,1.86,1.66,1.86,3.6
		v4.69c0,2.8-1.27,4.16-3.93,4.16h-3.83V84.37z M55.78,94.13c1.67,0,2.16-0.63,2.16-2.73v-2.53c0-2.13-0.5-2.76-2.16-2.76h-1.46
		v8.02H55.78z M55.92,105.61c1.66,0,2.16-0.63,2.16-2.76v-4.23c0-2.13-0.5-2.76-2.16-2.76h-1.6v9.76H55.92z"/>
	<path class="st0" d="M63.84,84.37h3.7c2.66,0,3.93,1.36,3.93,4.16v2.76c0,1.86-0.57,3-1.73,3.53v0.07c1.27,0.53,1.86,1.66,1.86,3.6
		v4.69c0,2.8-1.27,4.16-3.93,4.16h-3.83V84.37z M67.3,94.13c1.67,0,2.16-0.63,2.16-2.73v-2.53c0-2.13-0.5-2.76-2.16-2.76h-1.46v8.02
		H67.3z M67.44,105.61c1.66,0,2.16-0.63,2.16-2.76v-4.23c0-2.13-0.5-2.76-2.16-2.76h-1.6v9.76H67.44z"/>
	<path class="st0" d="M75.23,103.52V88.2c0-2.66,1.43-4.16,3.86-4.16c2.43,0,3.86,1.5,3.86,4.16v15.32c0,2.66-1.43,4.16-3.86,4.16
		C76.66,107.68,75.23,106.18,75.23,103.52z M80.95,103.18V88.53c0-1.93-0.53-2.7-1.86-2.7c-1.37,0-1.86,0.77-1.86,2.7v14.65
		c0,1.93,0.5,2.7,1.86,2.7C80.42,105.88,80.95,105.11,80.95,103.18z"/>
	<path class="st0" d="M86.88,84.37h3.7c2.66,0,3.93,1.36,3.93,4.16v2.93c0,1.86-0.6,3-1.8,3.53v0.07c1.2,0.53,1.8,1.66,1.8,3.56
		v8.72h-2v-8.59c0-2.13-0.6-2.76-2.5-2.76h-1.13v11.35h-2V84.37z M90.34,94.26c1.66,0,2.16-0.63,2.16-2.76v-2.63
		c0-2.13-0.5-2.76-2.16-2.76h-1.46v8.16H90.34z"/>
	<path class="st0" d="M98.4,84.37h2.6l3.63,16.81h0.07V84.37h1.8v22.97h-2.16l-4.06-18.94h-0.07v18.94h-1.8V84.37z"/>
	<path class="st0" d="M116.21,84.37h6.59v1.73h-4.59v8.36h4v1.73h-4v11.15h-2V84.37z"/>
	<path class="st0" d="M127.49,84.37h2.63l2.9,22.97h-2.03l-0.67-5.69h-3.13l-0.67,5.69h-1.93L127.49,84.37z M130.12,99.92
		l-1.33-12.39h-0.07l-1.33,12.39H130.12z"/>
	<path class="st0" d="M137.18,86.1h-2.8v-1.73h7.59v1.73h-2.8v21.24h-2V86.1z"/>
	<path class="st0" d="M22.02,127.33h-1.19v-11.72h1.19V127.33z"/>
	<path class="st0" d="M34.14,125.59h0.03v-9.98h1.19v11.72h-1.49l-6.82-10.08h-0.03v10.08h-1.19v-11.72h1.49L34.14,125.59z"/>
	<path class="st0" d="M48.75,122.21l-0.03-0.03c-0.35,0.27-1.08,0.43-1.67,0.43c-2.04,0-3.58-1.47-3.58-3.61
		c0-2.19,1.61-3.69,3.81-3.69c2.2,0,3.81,1.51,3.81,3.69c0,1.21-0.48,2.24-1.06,3.18l-3.2,5.15h-1.37L48.75,122.21z M47.28,116.32
		c-1.54,0-2.62,1.16-2.62,2.68c0,1.51,1.01,2.65,2.62,2.65s2.62-1.14,2.62-2.65C49.89,117.48,48.82,116.32,47.28,116.32z"/>
	<path class="st0" d="M58.75,127.33h-1.31l5.07-11.72h1.16l5.03,11.72h-1.32l-1.29-3.08h-6.06L58.75,127.33z M60.47,123.16h5.17
		l-2.58-6.23L60.47,123.16z"/>
	<path class="st0" d="M72.3,127.33h-1.19v-11.72h3.44c2.32,0,4.01,0.84,4.01,3.13c0,1.74-1.29,2.83-3,3.01l3.43,5.58h-1.46
		l-3.25-5.48H72.3V127.33z M72.3,120.82h2.07c1.9,0,3-0.7,3-2.09c0-1.54-1.18-2.1-2.95-2.1H72.3V120.82z"/>
	<path class="st0" d="M82.91,126.27h6.28v1.06h-7.47v-11.72h7.27v1.06h-6.08v4.04h5.68v1.04h-5.68V126.27z"/>
	<path class="st0" d="M92.13,127.33h-1.31l5.07-11.72h1.16l5.03,11.72h-1.32l-1.29-3.08H93.4L92.13,127.33z M93.85,123.16h5.17
		l-2.58-6.23L93.85,123.16z"/>
	<path class="st0" d="M110.17,117.49c-0.5-0.71-1.31-1.18-2.42-1.18c-1.16,0-2.5,0.7-2.5,2.2c0,1.49,1.24,1.87,2.55,2.3
		c1.66,0.55,3.48,1.08,3.48,3.43c0,2.35-1.97,3.38-3.82,3.38c-1.42,0-2.85-0.58-3.69-1.74l1.03-0.76c0.51,0.83,1.46,1.47,2.68,1.47
		c1.21,0,2.6-0.76,2.6-2.27c0-1.64-1.37-2.05-2.86-2.52c-1.56-0.48-3.15-1.16-3.15-3.28c0-2.27,2.02-3.23,3.74-3.23
		c1.57,0,2.75,0.66,3.31,1.42L110.17,117.49z"/>
	<path class="st0" d="M124.84,127.63c-3.49,0-6.11-2.6-6.11-6.16s2.62-6.16,6.11-6.16s6.11,2.6,6.11,6.16
		S128.33,127.63,124.84,127.63z M124.84,116.35c-3.01,0-4.85,2.38-4.85,5.12c0,2.73,1.84,5.1,4.85,5.1s4.85-2.37,4.85-5.1
		C129.69,118.74,127.85,116.35,124.84,116.35z"/>
	<path class="st0" d="M135.31,127.33h-1.19v-11.72h7.07v1.06h-5.88v4.07h5.46v1.04h-5.46V127.33z"/>
	<path class="st0" d="M40.97,147.31h-1.19v-10.66h-3.92v-1.06h9.04v1.06h-3.92V147.31z"/>
	<path class="st0" d="M47.34,135.59h1.19v5.08h6.39v-5.08h1.19v11.72h-1.19v-5.55h-6.39v5.55h-1.19V135.59z"/>
	<path class="st0" d="M61.11,146.25h6.27v1.06h-7.47v-11.72h7.27v1.06h-6.08v4.04h5.68v1.04h-5.68V146.25z"/>
	<path class="st0" d="M75.25,135.59h3.49c1.79,0,3.77,0.65,3.77,3c0,1.23-0.83,2.24-2.07,2.52v0.03c1.52,0.17,2.65,1.23,2.65,2.93
		c0,1.95-1.67,3.25-4.37,3.25h-3.48V135.59z M76.44,140.72h2.4c1.14,0,2.48-0.5,2.48-2.05c0-1.49-1.27-2.05-2.81-2.05h-2.07V140.72z
		 M76.44,146.29h2.22c1.72,0,3.23-0.65,3.23-2.28c0-1.54-1.11-2.3-3.01-2.3h-2.43V146.29z"/>
	<path class="st0" d="M91.95,147.61c-3.49,0-6.11-2.6-6.11-6.16s2.62-6.16,6.11-6.16s6.11,2.6,6.11,6.16S95.44,147.61,91.95,147.61z
		 M91.95,136.34c-3.01,0-4.85,2.38-4.85,5.12c0,2.73,1.84,5.1,4.85,5.1s4.85-2.37,4.85-5.1C96.8,138.72,94.96,136.34,91.95,136.34z"
		/>
	<path class="st0" d="M101.23,135.59h3.89c2.93,0,6.16,1.95,6.16,5.86s-3.23,5.86-6.16,5.86h-3.89V135.59z M102.42,146.25h2.37
		c3.53,0,5.23-2.38,5.23-4.8s-1.71-4.8-5.23-4.8h-2.37V146.25z"/>
	<path class="st0" d="M117.88,147.31h-1.19v-5.05l-4.39-6.67h1.49l3.53,5.68l3.56-5.68h1.39l-4.39,6.67V147.31z"/>
	<path class="st0" d="M123.83,147.41c-0.53,0-0.89-0.43-0.89-0.89c0-0.46,0.36-0.89,0.89-0.89c0.53,0,0.89,0.43,0.89,0.89
		C124.72,146.98,124.36,147.41,123.83,147.41z"/>
</g>
</svg>
