<?xml version="1.0" encoding="utf-8"?>
<!-- Generator: Adobe Illustrator 25.2.1, SVG Export Plug-In . SVG Version: 6.00 Build 0)  -->
<svg version="1.1" id="Layer_1" xmlns="http://www.w3.org/2000/svg" xmlns:xlink="http://www.w3.org/1999/xlink" x="0px" y="0px"
	 viewBox="0 0 160 600" style="enable-background:new 0 0 160 600;" xml:space="preserve">
<style type="text/css">
	.st0{fill:#EAF5FB;}
	.st1{fill:#002554;}
</style>
<rect x="25.46" y="369.63" class="st0" width="112.08" height="28.15"/>
<g>
	<path class="st1" d="M35.82,389.14v-9.19h2.23v7.26h3.56v1.94H35.82z"/>
	<path class="st1" d="M43.17,389.14v-9.19h6.18v1.88h-4.04v1.73h3.82v1.78h-3.82v1.91h4.27v1.9H43.17z"/>
	<path class="st1" d="M57.81,389.14l-0.71-1.81h-3.56l-0.68,1.81h-2.42l3.86-9.19h2.16l3.82,9.19H57.81z M55.34,382.4l-1.17,3.16
		h2.31L55.34,382.4z"/>
	<path class="st1" d="M66.48,389.14l-1.99-3.65h-0.75v3.65h-2.18v-9.19h3.51c1.77,0,3.52,0.67,3.52,2.78c0,1.23-0.73,2.12-1.91,2.48
		l2.4,3.94H66.48z M64.91,381.73h-1.18v2.14h1.05c0.71,0,1.61-0.18,1.61-1.12C66.39,381.9,65.58,381.73,64.91,381.73z"/>
	<path class="st1" d="M76.54,389.14l-3.7-6.01H72.8l0.05,6.01h-2.16v-9.19h2.53l3.69,6h0.04l-0.05-6h2.16v9.19H76.54z"/>
	<path class="st1" d="M93.58,389.14l0.05-6.51h-0.04l-2.39,6.51h-1.56l-2.33-6.51h-0.04l0.05,6.51h-2.09v-9.19h3.16l2.09,5.89h0.05
		l2-5.89h3.21v9.19H93.58z"/>
	<path class="st1" d="M102.74,389.38c-2.87,0-5-1.97-5-4.88c0-2.95,2.13-4.8,5-4.8c2.88,0,5.01,1.86,5.01,4.8
		C107.75,387.41,105.62,389.38,102.74,389.38z M102.74,381.7c-1.56,0-2.62,1.2-2.62,2.8c0,1.66,1.08,2.86,2.62,2.86
		c1.55,0,2.64-1.2,2.64-2.86C105.37,382.89,104.3,381.7,102.74,381.7z"/>
	<path class="st1" d="M114.66,389.14l-1.99-3.65h-0.75v3.65h-2.18v-9.19h3.51c1.77,0,3.52,0.67,3.52,2.78
		c0,1.23-0.73,2.12-1.91,2.48l2.4,3.94H114.66z M113.09,381.73h-1.18v2.14h1.05c0.71,0,1.61-0.18,1.61-1.12
		C114.57,381.9,113.75,381.73,113.09,381.73z"/>
	<path class="st1" d="M118.87,389.14v-9.19h6.18v1.88h-4.04v1.73h3.82v1.78h-3.82v1.91h4.27v1.9H118.87z"/>
</g>
</svg>
