<?xml version="1.0" encoding="utf-8"?>
<!-- Generator: Adobe Illustrator 25.2.1, SVG Export Plug-In . SVG Version: 6.00 Build 0)  -->
<svg version="1.1" id="Layer_1" xmlns="http://www.w3.org/2000/svg" xmlns:xlink="http://www.w3.org/1999/xlink" x="0px" y="0px"
	 viewBox="0 0 160 600" style="enable-background:new 0 0 160 600;" xml:space="preserve">
<style type="text/css">
	.st0{fill:#FFFFFF;}
</style>
<g>
	<path class="st0" d="M14.61,412.97h-0.82v-5.84h1.87c0.28,0,0.55,0.03,0.8,0.09c0.25,0.06,0.47,0.15,0.66,0.28
		c0.19,0.13,0.34,0.29,0.45,0.5c0.11,0.21,0.16,0.46,0.16,0.75c0,0.43-0.13,0.77-0.4,1.04c-0.26,0.26-0.6,0.43-1.02,0.5l1.63,2.68
		h-0.99l-1.48-2.6h-0.87V412.97z M14.61,409.69h0.94c0.19,0,0.37-0.02,0.54-0.05c0.17-0.03,0.31-0.09,0.43-0.16
		c0.12-0.07,0.22-0.17,0.29-0.29c0.07-0.12,0.11-0.27,0.11-0.44s-0.04-0.32-0.11-0.44c-0.07-0.12-0.17-0.21-0.28-0.28
		s-0.26-0.12-0.42-0.15c-0.16-0.03-0.33-0.04-0.5-0.04h-1V409.69z"/>
	<path class="st0" d="M19.72,407.65c0,0.14-0.05,0.26-0.15,0.35c-0.1,0.09-0.22,0.14-0.36,0.14c-0.14,0-0.26-0.05-0.36-0.14
		s-0.15-0.21-0.15-0.35c0-0.14,0.05-0.26,0.15-0.36s0.22-0.14,0.36-0.14c0.14,0,0.26,0.05,0.36,0.14
		C19.67,407.39,19.72,407.51,19.72,407.65z M19.59,412.97h-0.77v-3.91h0.77V412.97z"/>
	<path class="st0" d="M23.38,410.44c0-0.29-0.09-0.51-0.26-0.65c-0.18-0.14-0.41-0.21-0.7-0.21c-0.22,0-0.43,0.04-0.62,0.13
		c-0.2,0.08-0.36,0.19-0.49,0.33l-0.41-0.49c0.19-0.18,0.43-0.32,0.71-0.43c0.28-0.1,0.58-0.16,0.89-0.16
		c0.28,0,0.52,0.04,0.73,0.12c0.21,0.08,0.38,0.19,0.51,0.33c0.13,0.14,0.23,0.3,0.3,0.49c0.07,0.19,0.1,0.39,0.1,0.6v1.71
		c0,0.13,0,0.27,0.01,0.42c0.01,0.15,0.02,0.27,0.05,0.36h-0.7c-0.04-0.19-0.07-0.37-0.07-0.56h-0.02
		c-0.14,0.21-0.32,0.37-0.54,0.49c-0.22,0.12-0.47,0.17-0.77,0.17c-0.15,0-0.31-0.02-0.48-0.06c-0.17-0.04-0.32-0.11-0.46-0.2
		c-0.14-0.09-0.25-0.22-0.34-0.37s-0.14-0.34-0.14-0.57c0-0.3,0.08-0.53,0.24-0.71c0.16-0.17,0.37-0.3,0.63-0.39
		c0.26-0.09,0.55-0.15,0.87-0.18c0.32-0.03,0.65-0.04,0.98-0.04V410.44z M23.19,411.11c-0.19,0-0.39,0.01-0.6,0.02
		s-0.39,0.05-0.56,0.1c-0.17,0.05-0.31,0.12-0.42,0.22c-0.11,0.1-0.17,0.23-0.17,0.4c0,0.12,0.02,0.21,0.07,0.29
		c0.05,0.08,0.11,0.14,0.19,0.19c0.08,0.05,0.16,0.08,0.26,0.1c0.09,0.02,0.19,0.03,0.29,0.03c0.36,0,0.64-0.11,0.84-0.33
		c0.2-0.22,0.29-0.49,0.29-0.82v-0.21H23.19z"/>
	<path class="st0" d="M27.76,409.06l0.88,2.98h0.02l0.93-2.98h0.82l0.95,2.98h0.02l0.88-2.98h0.82l-1.29,3.91h-0.81L30,410.03h-0.02
		l-0.96,2.94h-0.81l-1.3-3.91H27.76z"/>
	<path class="st0" d="M36.28,410.44c0-0.29-0.09-0.51-0.26-0.65c-0.18-0.14-0.41-0.21-0.7-0.21c-0.22,0-0.43,0.04-0.62,0.13
		c-0.2,0.08-0.36,0.19-0.49,0.33l-0.41-0.49c0.19-0.18,0.43-0.32,0.71-0.43c0.28-0.1,0.58-0.16,0.89-0.16
		c0.28,0,0.52,0.04,0.73,0.12c0.21,0.08,0.38,0.19,0.51,0.33c0.13,0.14,0.23,0.3,0.3,0.49c0.07,0.19,0.1,0.39,0.1,0.6v1.71
		c0,0.13,0,0.27,0.01,0.42c0.01,0.15,0.02,0.27,0.05,0.36h-0.7c-0.04-0.19-0.07-0.37-0.07-0.56h-0.02
		c-0.14,0.21-0.32,0.37-0.54,0.49c-0.22,0.12-0.47,0.17-0.77,0.17c-0.15,0-0.31-0.02-0.48-0.06c-0.17-0.04-0.32-0.11-0.46-0.2
		c-0.14-0.09-0.25-0.22-0.34-0.37s-0.14-0.34-0.14-0.57c0-0.3,0.08-0.53,0.24-0.71c0.16-0.17,0.37-0.3,0.63-0.39
		c0.26-0.09,0.55-0.15,0.87-0.18c0.32-0.03,0.65-0.04,0.98-0.04V410.44z M36.09,411.11c-0.19,0-0.39,0.01-0.6,0.02
		s-0.39,0.05-0.56,0.1c-0.17,0.05-0.31,0.12-0.42,0.22c-0.11,0.1-0.17,0.23-0.17,0.4c0,0.12,0.02,0.21,0.07,0.29
		c0.05,0.08,0.11,0.14,0.19,0.19c0.08,0.05,0.16,0.08,0.26,0.1c0.09,0.02,0.19,0.03,0.29,0.03c0.36,0,0.64-0.11,0.84-0.33
		c0.2-0.22,0.29-0.49,0.29-0.82v-0.21H36.09z"/>
	<path class="st0" d="M40.42,410.05c-0.09-0.14-0.21-0.26-0.37-0.35c-0.16-0.09-0.34-0.13-0.54-0.13c-0.09,0-0.18,0.01-0.26,0.03
		c-0.09,0.02-0.17,0.05-0.23,0.09c-0.07,0.04-0.12,0.09-0.17,0.16c-0.04,0.06-0.06,0.14-0.06,0.23c0,0.17,0.07,0.29,0.22,0.37
		c0.15,0.08,0.37,0.15,0.67,0.22c0.19,0.04,0.36,0.1,0.52,0.16c0.16,0.06,0.3,0.14,0.42,0.23c0.12,0.09,0.21,0.2,0.28,0.33
		c0.07,0.13,0.1,0.28,0.1,0.45c0,0.23-0.04,0.43-0.13,0.58s-0.2,0.29-0.35,0.39c-0.15,0.1-0.31,0.17-0.5,0.22
		c-0.19,0.04-0.38,0.07-0.58,0.07c-0.3,0-0.59-0.06-0.87-0.17c-0.28-0.12-0.52-0.29-0.7-0.53l0.55-0.47
		c0.1,0.15,0.25,0.28,0.43,0.39c0.18,0.1,0.39,0.16,0.61,0.16c0.1,0,0.19-0.01,0.28-0.03c0.09-0.02,0.17-0.05,0.25-0.09
		s0.13-0.1,0.18-0.17s0.07-0.16,0.07-0.27c0-0.18-0.09-0.32-0.26-0.4c-0.17-0.09-0.43-0.17-0.76-0.25c-0.13-0.03-0.27-0.07-0.4-0.12
		s-0.26-0.11-0.37-0.19c-0.11-0.08-0.2-0.19-0.27-0.31s-0.1-0.28-0.1-0.46c0-0.21,0.04-0.39,0.13-0.54c0.08-0.15,0.2-0.28,0.33-0.37
		c0.14-0.1,0.29-0.17,0.47-0.21c0.18-0.05,0.36-0.07,0.54-0.07c0.28,0,0.55,0.06,0.81,0.17c0.26,0.11,0.46,0.27,0.61,0.48
		L40.42,410.05z"/>
	<path class="st0" d="M45.95,409.7h-1.04v2.03c0,0.24,0.04,0.4,0.13,0.5c0.09,0.1,0.23,0.15,0.42,0.15c0.07,0,0.15-0.01,0.23-0.02
		s0.16-0.04,0.22-0.07l0.02,0.63c-0.09,0.03-0.2,0.06-0.31,0.08c-0.11,0.02-0.23,0.03-0.35,0.03c-0.37,0-0.65-0.1-0.85-0.31
		c-0.19-0.2-0.29-0.51-0.29-0.91v-2.12h-0.75v-0.63h0.75v-1.12h0.77v1.12h1.04V409.7z"/>
	<path class="st0" d="M46.74,409.5c-0.01-0.17-0.01-0.31-0.02-0.44h0.73c0.01,0.1,0.02,0.21,0.02,0.34
		c0.01,0.13,0.01,0.24,0.01,0.32h0.02c0.11-0.23,0.27-0.42,0.48-0.56s0.45-0.21,0.71-0.21c0.12,0,0.22,0.01,0.31,0.03l-0.03,0.72
		c-0.11-0.03-0.23-0.04-0.35-0.04c-0.19,0-0.35,0.04-0.49,0.1c-0.14,0.07-0.25,0.16-0.34,0.28s-0.16,0.25-0.2,0.4
		c-0.04,0.15-0.07,0.31-0.07,0.47v2.05h-0.77v-3.07C46.75,409.8,46.74,409.66,46.74,409.5z"/>
	<path class="st0" d="M53.23,410.98c0,0.04,0,0.09,0,0.13c0,0.04,0,0.09-0.01,0.13h-3.11c0.01,0.16,0.04,0.32,0.11,0.46
		c0.07,0.14,0.16,0.27,0.28,0.38c0.12,0.11,0.25,0.19,0.4,0.25c0.15,0.06,0.31,0.09,0.48,0.09c0.26,0,0.49-0.06,0.68-0.17
		c0.19-0.12,0.34-0.25,0.45-0.42l0.54,0.44c-0.21,0.28-0.46,0.48-0.74,0.61c-0.28,0.13-0.6,0.2-0.94,0.2c-0.3,0-0.57-0.05-0.82-0.15
		c-0.25-0.1-0.47-0.24-0.65-0.42c-0.18-0.18-0.32-0.39-0.43-0.65c-0.1-0.25-0.16-0.53-0.16-0.84c0-0.3,0.05-0.58,0.15-0.84
		c0.1-0.25,0.24-0.47,0.43-0.65s0.4-0.32,0.64-0.42c0.25-0.1,0.51-0.15,0.8-0.15c0.29,0,0.55,0.05,0.78,0.14
		c0.23,0.09,0.43,0.23,0.59,0.4c0.16,0.18,0.29,0.39,0.38,0.64C53.19,410.39,53.23,410.67,53.23,410.98z M52.44,410.67
		c-0.01-0.15-0.03-0.3-0.08-0.43s-0.12-0.25-0.21-0.35c-0.09-0.1-0.2-0.18-0.34-0.23s-0.29-0.09-0.47-0.09
		c-0.16,0-0.32,0.03-0.47,0.09s-0.27,0.14-0.38,0.23c-0.11,0.1-0.2,0.22-0.26,0.35c-0.07,0.13-0.11,0.28-0.12,0.43H52.44z"/>
	<path class="st0" d="M56.69,410.44c0-0.29-0.09-0.51-0.26-0.65c-0.18-0.14-0.41-0.21-0.7-0.21c-0.22,0-0.43,0.04-0.62,0.13
		c-0.2,0.08-0.36,0.19-0.49,0.33l-0.41-0.49c0.19-0.18,0.43-0.32,0.71-0.43c0.28-0.1,0.58-0.16,0.89-0.16
		c0.28,0,0.52,0.04,0.73,0.12c0.21,0.08,0.38,0.19,0.51,0.33c0.13,0.14,0.23,0.3,0.3,0.49c0.07,0.19,0.1,0.39,0.1,0.6v1.71
		c0,0.13,0,0.27,0.01,0.42c0.01,0.15,0.02,0.27,0.05,0.36h-0.7c-0.04-0.19-0.07-0.37-0.07-0.56H56.7c-0.14,0.21-0.32,0.37-0.54,0.49
		c-0.22,0.12-0.47,0.17-0.77,0.17c-0.15,0-0.31-0.02-0.48-0.06c-0.17-0.04-0.32-0.11-0.46-0.2c-0.14-0.09-0.25-0.22-0.34-0.37
		s-0.14-0.34-0.14-0.57c0-0.3,0.08-0.53,0.24-0.71c0.16-0.17,0.37-0.3,0.63-0.39c0.26-0.09,0.55-0.15,0.87-0.18
		c0.32-0.03,0.65-0.04,0.98-0.04V410.44z M56.5,411.11c-0.19,0-0.39,0.01-0.6,0.02s-0.39,0.05-0.56,0.1
		c-0.17,0.05-0.31,0.12-0.42,0.22c-0.11,0.1-0.17,0.23-0.17,0.4c0,0.12,0.02,0.21,0.07,0.29c0.05,0.08,0.11,0.14,0.19,0.19
		c0.08,0.05,0.16,0.08,0.26,0.1c0.09,0.02,0.19,0.03,0.29,0.03c0.36,0,0.64-0.11,0.84-0.33c0.2-0.22,0.29-0.49,0.29-0.82v-0.21H56.5
		z"/>
	<path class="st0" d="M60.55,409.7h-1.04v2.03c0,0.24,0.04,0.4,0.13,0.5c0.09,0.1,0.23,0.15,0.42,0.15c0.07,0,0.15-0.01,0.23-0.02
		s0.16-0.04,0.22-0.07l0.02,0.63c-0.09,0.03-0.2,0.06-0.31,0.08c-0.11,0.02-0.23,0.03-0.35,0.03c-0.37,0-0.65-0.1-0.85-0.31
		c-0.19-0.2-0.29-0.51-0.29-0.91v-2.12H58v-0.63h0.75v-1.12h0.77v1.12h1.04V409.7z"/>
	<path class="st0" d="M65,410.98c0,0.04,0,0.09,0,0.13c0,0.04,0,0.09-0.01,0.13h-3.11c0.01,0.16,0.04,0.32,0.11,0.46
		c0.07,0.14,0.16,0.27,0.28,0.38c0.12,0.11,0.25,0.19,0.4,0.25c0.15,0.06,0.31,0.09,0.48,0.09c0.26,0,0.49-0.06,0.68-0.17
		c0.19-0.12,0.34-0.25,0.45-0.42l0.54,0.44c-0.21,0.28-0.46,0.48-0.74,0.61c-0.28,0.13-0.6,0.2-0.94,0.2c-0.3,0-0.57-0.05-0.82-0.15
		c-0.25-0.1-0.47-0.24-0.65-0.42c-0.18-0.18-0.32-0.39-0.43-0.65c-0.1-0.25-0.16-0.53-0.16-0.84c0-0.3,0.05-0.58,0.15-0.84
		c0.1-0.25,0.24-0.47,0.43-0.65s0.4-0.32,0.64-0.42c0.25-0.1,0.51-0.15,0.8-0.15c0.29,0,0.55,0.05,0.78,0.14
		c0.23,0.09,0.43,0.23,0.59,0.4c0.16,0.18,0.29,0.39,0.38,0.64C64.96,410.39,65,410.67,65,410.98z M64.21,410.67
		c-0.01-0.15-0.03-0.3-0.08-0.43s-0.12-0.25-0.21-0.35c-0.09-0.1-0.2-0.18-0.34-0.23s-0.29-0.09-0.47-0.09
		c-0.16,0-0.32,0.03-0.47,0.09s-0.27,0.14-0.38,0.23c-0.11,0.1-0.2,0.22-0.26,0.35c-0.07,0.13-0.11,0.28-0.12,0.43H64.21z"/>
	<path class="st0" d="M69.19,412.35c-0.15,0.24-0.35,0.42-0.61,0.54c-0.26,0.12-0.52,0.18-0.8,0.18c-0.3,0-0.57-0.05-0.82-0.16
		c-0.24-0.11-0.45-0.25-0.62-0.44c-0.17-0.19-0.3-0.41-0.4-0.66c-0.09-0.25-0.14-0.52-0.14-0.81c0-0.29,0.05-0.55,0.14-0.8
		s0.23-0.47,0.4-0.66c0.17-0.19,0.38-0.33,0.62-0.44c0.24-0.1,0.51-0.16,0.8-0.16c0.32,0,0.6,0.07,0.83,0.2s0.42,0.3,0.56,0.49h0.02
		v-2.91h0.77v6.23h-0.75v-0.62H69.19z M66.62,411.01c0,0.18,0.03,0.36,0.08,0.53c0.06,0.17,0.14,0.32,0.25,0.45
		c0.11,0.13,0.24,0.24,0.4,0.32c0.16,0.08,0.35,0.12,0.56,0.12c0.2,0,0.38-0.04,0.54-0.12c0.16-0.08,0.3-0.18,0.42-0.31
		c0.12-0.13,0.21-0.28,0.27-0.45s0.09-0.35,0.09-0.53s-0.03-0.36-0.09-0.53s-0.15-0.32-0.27-0.45c-0.12-0.13-0.25-0.24-0.42-0.31
		c-0.16-0.08-0.34-0.12-0.54-0.12c-0.21,0-0.4,0.04-0.56,0.12c-0.16,0.08-0.29,0.18-0.4,0.31c-0.11,0.13-0.19,0.28-0.25,0.45
		C66.65,410.65,66.62,410.83,66.62,411.01z"/>
	<path class="st0" d="M73.66,409.06l0.88,2.98h0.02l0.93-2.98h0.82l0.95,2.98h0.02l0.88-2.98h0.82l-1.29,3.91h-0.81l-0.96-2.94
		h-0.02l-0.96,2.94h-0.81l-1.3-3.91H73.66z"/>
	<path class="st0" d="M80.65,407.65c0,0.14-0.05,0.26-0.15,0.35c-0.1,0.09-0.22,0.14-0.36,0.14c-0.14,0-0.26-0.05-0.36-0.14
		s-0.15-0.21-0.15-0.35c0-0.14,0.05-0.26,0.15-0.36s0.22-0.14,0.36-0.14c0.14,0,0.26,0.05,0.36,0.14
		C80.6,407.39,80.65,407.51,80.65,407.65z M80.53,412.97h-0.77v-3.91h0.77V412.97z"/>
	<path class="st0" d="M83.79,409.7h-1.04v2.03c0,0.24,0.04,0.4,0.13,0.5c0.09,0.1,0.23,0.15,0.42,0.15c0.07,0,0.15-0.01,0.23-0.02
		c0.08-0.01,0.16-0.04,0.22-0.07l0.03,0.63c-0.09,0.03-0.2,0.06-0.31,0.08c-0.11,0.02-0.23,0.03-0.35,0.03
		c-0.37,0-0.65-0.1-0.84-0.31c-0.19-0.2-0.29-0.51-0.29-0.91v-2.12h-0.75v-0.63h0.75v-1.12h0.77v1.12h1.04V409.7z"/>
	<path class="st0" d="M85.4,409.65c0.09-0.19,0.25-0.36,0.48-0.49c0.22-0.14,0.48-0.21,0.76-0.21c0.25,0,0.47,0.04,0.65,0.13
		c0.18,0.08,0.33,0.2,0.45,0.34c0.12,0.14,0.21,0.31,0.27,0.5c0.06,0.19,0.09,0.4,0.09,0.62v2.42h-0.78v-2.17
		c0-0.16-0.01-0.31-0.04-0.45c-0.02-0.14-0.07-0.27-0.13-0.38c-0.07-0.11-0.16-0.2-0.27-0.26c-0.11-0.07-0.26-0.1-0.44-0.1
		c-0.31,0-0.56,0.12-0.76,0.35c-0.2,0.23-0.3,0.55-0.3,0.94v2.07h-0.77v-6.23h0.77v2.92H85.4z"/>
	<path class="st0" d="M96.51,412.06c-0.23,0.31-0.53,0.57-0.9,0.76c-0.37,0.2-0.81,0.29-1.33,0.29c-0.45,0-0.86-0.08-1.23-0.23
		c-0.38-0.15-0.7-0.36-0.97-0.63c-0.27-0.27-0.49-0.6-0.64-0.97c-0.15-0.38-0.23-0.79-0.23-1.24c0-0.46,0.08-0.87,0.24-1.25
		c0.16-0.38,0.37-0.7,0.65-0.96c0.28-0.27,0.61-0.47,0.99-0.62c0.38-0.15,0.79-0.22,1.24-0.22c0.2,0,0.4,0.02,0.6,0.06
		c0.2,0.04,0.4,0.1,0.58,0.17c0.19,0.08,0.36,0.17,0.51,0.28s0.29,0.24,0.4,0.39l-0.64,0.49c-0.14-0.2-0.34-0.36-0.61-0.49
		c-0.26-0.13-0.54-0.19-0.84-0.19c-0.34,0-0.65,0.06-0.92,0.19c-0.27,0.12-0.5,0.29-0.7,0.51c-0.19,0.21-0.34,0.46-0.45,0.75
		c-0.1,0.28-0.16,0.58-0.16,0.9c0,0.33,0.05,0.64,0.15,0.92c0.1,0.29,0.25,0.54,0.44,0.75c0.19,0.21,0.42,0.38,0.69,0.5
		c0.27,0.12,0.57,0.18,0.91,0.18c0.33,0,0.63-0.07,0.9-0.2s0.49-0.32,0.67-0.58L96.51,412.06z"/>
	<path class="st0" d="M101.16,411.01c0,0.3-0.05,0.58-0.16,0.83c-0.11,0.25-0.26,0.47-0.45,0.66s-0.41,0.33-0.67,0.43
		s-0.54,0.15-0.83,0.15s-0.57-0.05-0.83-0.15s-0.48-0.25-0.67-0.43c-0.19-0.18-0.33-0.4-0.44-0.66c-0.11-0.25-0.16-0.53-0.16-0.83
		c0-0.3,0.05-0.58,0.16-0.83c0.11-0.25,0.25-0.46,0.44-0.65c0.19-0.18,0.41-0.32,0.67-0.42s0.54-0.15,0.83-0.15s0.57,0.05,0.83,0.15
		s0.48,0.24,0.67,0.42s0.34,0.4,0.45,0.65C101.11,410.43,101.16,410.7,101.16,411.01z M100.35,411.01c0-0.19-0.03-0.36-0.09-0.53
		c-0.06-0.17-0.14-0.32-0.25-0.45s-0.25-0.23-0.41-0.31c-0.16-0.08-0.35-0.12-0.56-0.12c-0.21,0-0.4,0.04-0.56,0.12
		c-0.16,0.08-0.3,0.18-0.41,0.31c-0.11,0.13-0.2,0.28-0.25,0.45c-0.06,0.17-0.09,0.35-0.09,0.53s0.03,0.36,0.09,0.53
		c0.06,0.17,0.14,0.32,0.25,0.45c0.11,0.13,0.25,0.24,0.41,0.31c0.16,0.08,0.35,0.12,0.56,0.12c0.21,0,0.4-0.04,0.56-0.12
		c0.16-0.08,0.3-0.18,0.41-0.31s0.19-0.28,0.25-0.45C100.32,411.38,100.35,411.2,100.35,411.01z"/>
	<path class="st0" d="M106.19,411.01c0,0.3-0.05,0.58-0.16,0.83s-0.26,0.47-0.45,0.66s-0.41,0.33-0.67,0.43s-0.54,0.15-0.83,0.15
		s-0.57-0.05-0.83-0.15s-0.48-0.25-0.67-0.43s-0.33-0.4-0.44-0.66s-0.16-0.53-0.16-0.83c0-0.3,0.05-0.58,0.16-0.83
		s0.25-0.46,0.44-0.65s0.41-0.32,0.67-0.42s0.54-0.15,0.83-0.15s0.57,0.05,0.83,0.15s0.48,0.24,0.67,0.42s0.34,0.4,0.45,0.65
		S106.19,410.7,106.19,411.01z M105.38,411.01c0-0.19-0.03-0.36-0.09-0.53c-0.06-0.17-0.14-0.32-0.25-0.45s-0.25-0.23-0.41-0.31
		c-0.16-0.08-0.35-0.12-0.56-0.12c-0.21,0-0.4,0.04-0.56,0.12c-0.16,0.08-0.3,0.18-0.41,0.31c-0.11,0.13-0.19,0.28-0.25,0.45
		c-0.06,0.17-0.09,0.35-0.09,0.53s0.03,0.36,0.09,0.53c0.06,0.17,0.14,0.32,0.25,0.45c0.11,0.13,0.25,0.24,0.41,0.31
		c0.16,0.08,0.35,0.12,0.56,0.12c0.21,0,0.39-0.04,0.56-0.12c0.16-0.08,0.3-0.18,0.41-0.31s0.19-0.28,0.25-0.45
		C105.35,411.38,105.38,411.2,105.38,411.01z"/>
	<path class="st0" d="M108.05,412.97h-0.78v-6.23h0.78V412.97z"/>
	<path class="st0" d="M112.35,408.21c-0.12-0.16-0.27-0.29-0.47-0.39c-0.2-0.1-0.42-0.15-0.67-0.15c-0.13,0-0.27,0.02-0.4,0.05
		c-0.13,0.04-0.26,0.09-0.37,0.17c-0.11,0.08-0.2,0.18-0.27,0.3c-0.07,0.12-0.1,0.26-0.1,0.42c0,0.16,0.03,0.29,0.09,0.4
		s0.15,0.2,0.25,0.27c0.11,0.07,0.23,0.14,0.38,0.19c0.15,0.05,0.3,0.11,0.47,0.16c0.2,0.06,0.4,0.13,0.6,0.21
		c0.2,0.08,0.39,0.18,0.55,0.3c0.16,0.13,0.3,0.29,0.4,0.47c0.1,0.19,0.16,0.43,0.16,0.72c0,0.3-0.06,0.57-0.17,0.79
		c-0.11,0.22-0.26,0.41-0.45,0.55c-0.19,0.15-0.4,0.25-0.65,0.33c-0.24,0.07-0.5,0.11-0.75,0.11c-0.37,0-0.72-0.07-1.07-0.21
		s-0.63-0.35-0.85-0.63l0.63-0.54c0.14,0.2,0.32,0.37,0.55,0.49s0.48,0.19,0.75,0.19c0.14,0,0.28-0.02,0.41-0.06
		c0.14-0.04,0.26-0.1,0.38-0.18c0.11-0.08,0.21-0.19,0.28-0.31c0.07-0.12,0.11-0.27,0.11-0.45s-0.04-0.32-0.11-0.44
		s-0.17-0.22-0.3-0.3s-0.27-0.15-0.44-0.21c-0.17-0.06-0.35-0.12-0.53-0.18c-0.19-0.05-0.37-0.12-0.55-0.2
		c-0.18-0.08-0.34-0.18-0.49-0.31c-0.14-0.12-0.26-0.28-0.35-0.46c-0.09-0.18-0.13-0.41-0.13-0.68c0-0.29,0.06-0.54,0.18-0.75
		c0.12-0.21,0.27-0.38,0.46-0.52c0.19-0.14,0.4-0.24,0.64-0.3c0.24-0.06,0.48-0.09,0.72-0.09c0.34,0,0.66,0.06,0.96,0.18
		c0.3,0.12,0.54,0.28,0.72,0.49L112.35,408.21z"/>
	<path class="st0" d="M116.83,410.05c-0.08-0.13-0.21-0.23-0.37-0.32c-0.17-0.08-0.34-0.13-0.53-0.13c-0.2,0-0.38,0.04-0.54,0.12
		c-0.16,0.08-0.29,0.18-0.4,0.31c-0.11,0.13-0.19,0.28-0.25,0.45c-0.06,0.17-0.09,0.35-0.09,0.54s0.03,0.37,0.09,0.54
		s0.14,0.32,0.25,0.45c0.11,0.13,0.24,0.23,0.4,0.31c0.16,0.08,0.34,0.12,0.54,0.12c0.2,0,0.38-0.04,0.54-0.12
		c0.16-0.08,0.3-0.18,0.4-0.31l0.52,0.47c-0.16,0.19-0.37,0.34-0.62,0.45c-0.25,0.11-0.53,0.16-0.84,0.16
		c-0.3,0-0.58-0.05-0.84-0.15c-0.26-0.1-0.48-0.24-0.66-0.42c-0.19-0.18-0.33-0.39-0.44-0.65c-0.11-0.25-0.16-0.54-0.16-0.85
		c0-0.31,0.05-0.59,0.16-0.84s0.25-0.47,0.44-0.65c0.19-0.18,0.41-0.32,0.66-0.42c0.25-0.1,0.53-0.15,0.83-0.15
		c0.27,0,0.55,0.06,0.82,0.17c0.27,0.11,0.49,0.27,0.65,0.48L116.83,410.05z"/>
	<path class="st0" d="M120.92,412.97c-0.01-0.1-0.02-0.21-0.02-0.33c0-0.12-0.01-0.23-0.01-0.31h-0.02c-0.1,0.21-0.27,0.39-0.5,0.53
		c-0.23,0.14-0.49,0.22-0.78,0.22c-0.25,0-0.47-0.04-0.66-0.12c-0.18-0.08-0.33-0.2-0.45-0.34c-0.12-0.14-0.21-0.31-0.26-0.51
		s-0.09-0.4-0.09-0.62v-2.42h0.77v2.16c0,0.16,0.01,0.31,0.04,0.46c0.02,0.15,0.07,0.27,0.14,0.38s0.16,0.2,0.27,0.26
		c0.12,0.07,0.26,0.1,0.45,0.1c0.31,0,0.57-0.12,0.76-0.35c0.19-0.23,0.29-0.55,0.29-0.94v-2.08h0.78v3.07c0,0.11,0,0.24,0.01,0.4
		c0.01,0.17,0.01,0.31,0.03,0.44H120.92z"/>
	<path class="st0" d="M123.75,412.97h-0.78v-6.23h0.78V412.97z"/>
	<path class="st0" d="M125.88,414.95h-0.78v-5.89h0.76v0.61h0.02c0.13-0.21,0.31-0.38,0.55-0.51s0.53-0.2,0.85-0.2
		c0.29,0,0.55,0.05,0.79,0.16s0.44,0.25,0.62,0.44c0.17,0.19,0.31,0.41,0.4,0.66c0.09,0.25,0.14,0.52,0.14,0.8
		c0,0.29-0.05,0.56-0.14,0.81c-0.09,0.25-0.22,0.47-0.39,0.66s-0.38,0.33-0.62,0.44c-0.24,0.11-0.51,0.16-0.81,0.16
		c-0.28,0-0.54-0.06-0.79-0.18c-0.25-0.12-0.44-0.29-0.58-0.51h-0.02V414.95z M128.45,411.01c0-0.18-0.03-0.36-0.08-0.53
		c-0.06-0.17-0.14-0.32-0.25-0.45c-0.11-0.13-0.25-0.24-0.41-0.31c-0.16-0.08-0.35-0.12-0.56-0.12c-0.2,0-0.38,0.04-0.54,0.12
		c-0.16,0.08-0.3,0.18-0.42,0.31s-0.21,0.28-0.27,0.45c-0.06,0.17-0.09,0.35-0.09,0.54s0.03,0.37,0.09,0.54s0.15,0.32,0.27,0.45
		s0.25,0.23,0.42,0.31c0.16,0.08,0.34,0.12,0.54,0.12c0.21,0,0.4-0.04,0.56-0.12s0.3-0.19,0.41-0.32c0.11-0.13,0.19-0.28,0.25-0.45
		C128.42,411.36,128.45,411.19,128.45,411.01z"/>
	<path class="st0" d="M132.24,409.7h-1.04v2.03c0,0.24,0.04,0.4,0.13,0.5c0.09,0.1,0.23,0.15,0.42,0.15c0.07,0,0.15-0.01,0.23-0.02
		c0.08-0.01,0.16-0.04,0.22-0.07l0.03,0.63c-0.09,0.03-0.2,0.06-0.31,0.08c-0.11,0.02-0.23,0.03-0.35,0.03
		c-0.37,0-0.65-0.1-0.84-0.31c-0.19-0.2-0.29-0.51-0.29-0.91v-2.12h-0.75v-0.63h0.75v-1.12h0.77v1.12h1.04V409.7z"/>
	<path class="st0" d="M133.95,407.65c0,0.14-0.05,0.26-0.15,0.35c-0.1,0.09-0.22,0.14-0.36,0.14c-0.14,0-0.26-0.05-0.36-0.14
		c-0.1-0.1-0.15-0.21-0.15-0.35c0-0.14,0.05-0.26,0.15-0.36c0.1-0.1,0.22-0.14,0.36-0.14c0.14,0,0.26,0.05,0.36,0.14
		C133.9,407.39,133.95,407.51,133.95,407.65z M133.83,412.97h-0.77v-3.91h0.77V412.97z"/>
	<path class="st0" d="M135.88,409.06c0.01,0.1,0.02,0.21,0.03,0.33c0,0.12,0.01,0.23,0.01,0.31h0.03c0.05-0.1,0.12-0.2,0.2-0.29
		c0.09-0.09,0.18-0.17,0.29-0.24c0.11-0.07,0.23-0.12,0.36-0.16c0.13-0.04,0.27-0.06,0.41-0.06c0.25,0,0.47,0.04,0.65,0.13
		c0.18,0.08,0.33,0.2,0.45,0.34s0.21,0.31,0.27,0.5c0.06,0.19,0.09,0.4,0.09,0.62v2.42h-0.78v-2.17c0-0.16-0.01-0.31-0.04-0.45
		c-0.03-0.14-0.07-0.27-0.14-0.38c-0.07-0.11-0.16-0.2-0.27-0.26s-0.26-0.1-0.45-0.1c-0.31,0-0.56,0.12-0.75,0.35
		c-0.2,0.23-0.29,0.55-0.29,0.94v2.08h-0.78v-3.07c0-0.11,0-0.24-0.01-0.4c-0.01-0.17-0.01-0.31-0.02-0.44H135.88z"/>
	<path class="st0" d="M140.28,413.64c0.17,0.19,0.38,0.35,0.64,0.46s0.52,0.17,0.79,0.17c0.26,0,0.47-0.04,0.65-0.11
		c0.18-0.07,0.32-0.18,0.43-0.3c0.11-0.13,0.18-0.28,0.23-0.46s0.07-0.37,0.07-0.57v-0.5h-0.02c-0.14,0.22-0.34,0.39-0.58,0.5
		c-0.25,0.12-0.51,0.17-0.79,0.17c-0.3,0-0.57-0.05-0.81-0.16c-0.25-0.1-0.45-0.25-0.62-0.43s-0.3-0.39-0.4-0.64
		s-0.14-0.51-0.14-0.79c0-0.28,0.05-0.54,0.14-0.79c0.09-0.25,0.23-0.46,0.4-0.65c0.17-0.18,0.38-0.33,0.62-0.44
		c0.24-0.11,0.51-0.16,0.81-0.16c0.28,0,0.55,0.06,0.8,0.18c0.25,0.12,0.46,0.3,0.61,0.55h0.02v-0.63h0.75v3.71
		c0,0.29-0.04,0.56-0.11,0.82s-0.19,0.49-0.36,0.69c-0.17,0.2-0.39,0.36-0.67,0.48s-0.62,0.18-1.02,0.18
		c-0.34,0-0.68-0.06-1.03-0.19c-0.34-0.12-0.64-0.3-0.89-0.52L140.28,413.64z M140.51,410.97c0,0.18,0.03,0.35,0.09,0.52
		c0.06,0.17,0.14,0.31,0.26,0.44c0.11,0.13,0.25,0.23,0.41,0.3c0.16,0.08,0.34,0.12,0.55,0.12c0.2,0,0.38-0.04,0.54-0.11
		c0.17-0.07,0.31-0.17,0.42-0.29s0.21-0.27,0.27-0.44s0.09-0.35,0.09-0.54c0-0.19-0.03-0.36-0.09-0.53
		c-0.06-0.16-0.15-0.31-0.27-0.44c-0.12-0.13-0.26-0.23-0.42-0.3s-0.34-0.11-0.54-0.11c-0.21,0-0.39,0.04-0.55,0.11
		s-0.3,0.17-0.41,0.3c-0.11,0.12-0.2,0.27-0.26,0.44S140.51,410.79,140.51,410.97z"/>
	<path class="st0" d="M145.11,408.9c0-0.26,0.05-0.5,0.15-0.73c0.1-0.23,0.23-0.43,0.4-0.59c0.17-0.17,0.37-0.3,0.6-0.4
		c0.23-0.1,0.47-0.15,0.73-0.15c0.26,0,0.5,0.05,0.73,0.15c0.23,0.1,0.43,0.23,0.6,0.4c0.17,0.17,0.3,0.37,0.4,0.59
		s0.15,0.47,0.15,0.73s-0.05,0.5-0.15,0.73s-0.23,0.42-0.4,0.59c-0.17,0.17-0.37,0.3-0.6,0.4c-0.23,0.1-0.47,0.14-0.73,0.14
		c-0.26,0-0.5-0.05-0.73-0.14c-0.23-0.1-0.43-0.23-0.6-0.4c-0.17-0.17-0.31-0.36-0.4-0.59C145.16,409.4,145.11,409.16,145.11,408.9z
		 M145.41,408.9c0,0.21,0.04,0.42,0.12,0.61c0.08,0.19,0.2,0.36,0.34,0.51s0.31,0.26,0.5,0.34s0.4,0.12,0.62,0.12
		c0.22,0,0.43-0.04,0.62-0.12c0.19-0.08,0.36-0.2,0.5-0.34s0.26-0.31,0.34-0.51c0.08-0.19,0.12-0.39,0.12-0.61
		c0-0.22-0.04-0.43-0.12-0.62c-0.08-0.19-0.2-0.36-0.34-0.5s-0.31-0.26-0.5-0.34c-0.19-0.08-0.4-0.12-0.62-0.12
		c-0.22,0-0.43,0.04-0.62,0.12s-0.36,0.2-0.5,0.34s-0.26,0.31-0.34,0.5S145.41,408.68,145.41,408.9z M147.44,409.93l-0.45-0.82h-0.3
		v0.82h-0.5v-2.11h0.91c0.1,0,0.2,0.01,0.29,0.03c0.09,0.02,0.18,0.06,0.25,0.11c0.08,0.05,0.14,0.12,0.19,0.2
		c0.05,0.09,0.07,0.19,0.07,0.32c0,0.14-0.04,0.26-0.12,0.35c-0.08,0.09-0.18,0.16-0.3,0.21l0.56,0.89H147.44z M147.08,408.76
		c0.08,0,0.15-0.02,0.21-0.07c0.06-0.05,0.1-0.12,0.1-0.2c0-0.09-0.04-0.15-0.11-0.19c-0.07-0.04-0.14-0.06-0.2-0.06h-0.39v0.52
		H147.08z"/>
	<path class="st0" d="M27.94,421.73h3.05v0.73h-3.87v-5.84h3.74v0.72h-2.93v1.75h2.75v0.7h-2.75V421.73z"/>
	<path class="st0" d="M32.83,422.46h-0.77v-6.23h0.77V422.46z"/>
	<path class="st0" d="M35.09,417.14c0,0.14-0.05,0.26-0.15,0.35c-0.1,0.09-0.22,0.14-0.36,0.14c-0.14,0-0.26-0.05-0.36-0.14
		s-0.15-0.21-0.15-0.35c0-0.14,0.05-0.26,0.15-0.36s0.22-0.14,0.36-0.14c0.14,0,0.26,0.05,0.36,0.14
		C35.04,416.88,35.09,417,35.09,417.14z M34.97,422.46h-0.77v-3.91h0.77V422.46z"/>
	<path class="st0" d="M38.23,419.19h-1.04v2.03c0,0.24,0.04,0.4,0.13,0.5c0.09,0.1,0.23,0.15,0.42,0.15c0.07,0,0.15-0.01,0.23-0.02
		s0.16-0.04,0.22-0.07l0.02,0.63c-0.09,0.03-0.2,0.06-0.31,0.08c-0.11,0.02-0.23,0.03-0.35,0.03c-0.37,0-0.65-0.1-0.85-0.31
		c-0.19-0.2-0.29-0.51-0.29-0.91v-2.12h-0.75v-0.63h0.75v-1.12h0.77v1.12h1.04V419.19z"/>
	<path class="st0" d="M42.68,420.47c0,0.04,0,0.09,0,0.13c0,0.04,0,0.09-0.01,0.13h-3.11c0.01,0.16,0.04,0.32,0.11,0.46
		c0.07,0.14,0.16,0.27,0.28,0.38c0.12,0.11,0.25,0.19,0.4,0.25c0.15,0.06,0.31,0.09,0.48,0.09c0.26,0,0.49-0.06,0.68-0.17
		c0.19-0.12,0.34-0.25,0.45-0.42l0.54,0.44c-0.21,0.28-0.46,0.48-0.74,0.61c-0.28,0.13-0.6,0.2-0.94,0.2c-0.3,0-0.57-0.05-0.82-0.15
		c-0.25-0.1-0.47-0.24-0.65-0.42c-0.18-0.18-0.32-0.39-0.43-0.65c-0.1-0.25-0.16-0.53-0.16-0.84c0-0.3,0.05-0.58,0.15-0.84
		c0.1-0.25,0.24-0.47,0.43-0.65s0.4-0.32,0.64-0.42c0.25-0.1,0.51-0.15,0.8-0.15c0.29,0,0.55,0.05,0.78,0.14
		c0.23,0.09,0.43,0.23,0.59,0.4c0.16,0.18,0.29,0.39,0.38,0.64C42.64,419.88,42.68,420.16,42.68,420.47z M41.89,420.16
		c-0.01-0.15-0.03-0.3-0.08-0.43s-0.12-0.25-0.21-0.35c-0.09-0.1-0.2-0.18-0.34-0.23s-0.29-0.09-0.47-0.09
		c-0.16,0-0.32,0.03-0.47,0.09s-0.27,0.14-0.38,0.23c-0.11,0.1-0.2,0.22-0.26,0.35c-0.07,0.13-0.11,0.28-0.12,0.43H41.89z"/>
	<path class="st0" d="M49.77,420.5c0,0.3-0.05,0.58-0.16,0.83c-0.11,0.25-0.26,0.47-0.45,0.66s-0.41,0.33-0.67,0.43
		s-0.54,0.15-0.83,0.15s-0.57-0.05-0.83-0.15s-0.48-0.25-0.67-0.43c-0.19-0.18-0.33-0.4-0.44-0.66c-0.11-0.25-0.16-0.53-0.16-0.83
		c0-0.3,0.05-0.58,0.16-0.83c0.11-0.25,0.25-0.46,0.44-0.65c0.19-0.18,0.41-0.32,0.67-0.42s0.54-0.15,0.83-0.15s0.57,0.05,0.83,0.15
		s0.48,0.24,0.67,0.42s0.34,0.4,0.45,0.65C49.72,419.92,49.77,420.2,49.77,420.5z M48.96,420.5c0-0.19-0.03-0.36-0.09-0.53
		c-0.06-0.17-0.14-0.32-0.25-0.45s-0.25-0.23-0.41-0.31c-0.16-0.08-0.35-0.12-0.56-0.12c-0.21,0-0.4,0.04-0.56,0.12
		c-0.16,0.08-0.3,0.18-0.41,0.31s-0.19,0.28-0.25,0.45c-0.06,0.17-0.09,0.35-0.09,0.53s0.03,0.36,0.09,0.53
		c0.06,0.17,0.14,0.32,0.25,0.45s0.25,0.24,0.41,0.31c0.16,0.08,0.35,0.12,0.56,0.12c0.21,0,0.4-0.04,0.56-0.12
		c0.16-0.08,0.3-0.18,0.41-0.31s0.19-0.28,0.25-0.45C48.93,420.87,48.96,420.69,48.96,420.5z"/>
	<path class="st0" d="M51.54,418.55c0.01,0.1,0.02,0.21,0.02,0.33c0.01,0.12,0.01,0.23,0.01,0.31h0.02c0.05-0.1,0.12-0.2,0.2-0.29
		c0.09-0.09,0.18-0.17,0.29-0.24c0.11-0.07,0.23-0.12,0.36-0.16c0.13-0.04,0.27-0.06,0.41-0.06c0.25,0,0.47,0.04,0.65,0.13
		c0.18,0.08,0.33,0.2,0.45,0.34c0.12,0.14,0.21,0.31,0.27,0.5s0.09,0.4,0.09,0.62v2.42h-0.77v-2.17c0-0.16-0.01-0.31-0.04-0.45
		c-0.02-0.14-0.07-0.27-0.14-0.38s-0.16-0.2-0.27-0.26s-0.26-0.1-0.45-0.1c-0.31,0-0.56,0.12-0.75,0.35
		c-0.2,0.23-0.29,0.55-0.29,0.94v2.08h-0.77v-3.07c0-0.11,0-0.24-0.01-0.4c-0.01-0.17-0.01-0.31-0.02-0.44H51.54z"/>
	<path class="st0" d="M58.51,419.15c0.09-0.19,0.25-0.36,0.48-0.49c0.23-0.14,0.48-0.21,0.76-0.21c0.25,0,0.47,0.04,0.65,0.13
		c0.18,0.08,0.33,0.2,0.45,0.34c0.12,0.14,0.21,0.31,0.27,0.5s0.09,0.4,0.09,0.62v2.42h-0.77v-2.17c0-0.16-0.01-0.31-0.04-0.45
		c-0.02-0.14-0.07-0.27-0.14-0.38s-0.16-0.2-0.27-0.26c-0.11-0.07-0.26-0.1-0.44-0.1c-0.31,0-0.56,0.12-0.76,0.35
		c-0.2,0.23-0.3,0.55-0.3,0.94v2.07h-0.77v-6.23h0.77v2.92H58.51z"/>
	<path class="st0" d="M66.17,420.47c0,0.04,0,0.09,0,0.13c0,0.04,0,0.09-0.01,0.13h-3.11c0.01,0.16,0.04,0.32,0.11,0.46
		c0.07,0.14,0.16,0.27,0.28,0.38c0.12,0.11,0.25,0.19,0.4,0.25c0.15,0.06,0.31,0.09,0.48,0.09c0.26,0,0.49-0.06,0.68-0.17
		c0.19-0.12,0.34-0.25,0.45-0.42l0.54,0.44c-0.21,0.28-0.46,0.48-0.74,0.61c-0.28,0.13-0.6,0.2-0.94,0.2c-0.3,0-0.57-0.05-0.82-0.15
		c-0.25-0.1-0.47-0.24-0.65-0.42c-0.18-0.18-0.32-0.39-0.43-0.65c-0.1-0.25-0.16-0.53-0.16-0.84c0-0.3,0.05-0.58,0.15-0.84
		c0.1-0.25,0.24-0.47,0.43-0.65s0.4-0.32,0.64-0.42c0.25-0.1,0.51-0.15,0.8-0.15c0.29,0,0.55,0.05,0.78,0.14
		c0.23,0.09,0.43,0.23,0.59,0.4c0.16,0.18,0.29,0.39,0.38,0.64C66.12,419.88,66.17,420.16,66.17,420.47z M65.38,420.16
		c-0.01-0.15-0.03-0.3-0.08-0.43s-0.12-0.25-0.21-0.35c-0.09-0.1-0.2-0.18-0.34-0.23s-0.29-0.09-0.47-0.09
		c-0.16,0-0.32,0.03-0.47,0.09s-0.27,0.14-0.38,0.23c-0.11,0.1-0.2,0.22-0.26,0.35c-0.07,0.13-0.11,0.28-0.12,0.43H65.38z"/>
	<path class="st0" d="M67.23,418.99c-0.01-0.17-0.01-0.31-0.02-0.44h0.73c0.01,0.1,0.02,0.21,0.02,0.34
		c0.01,0.13,0.01,0.24,0.01,0.32H68c0.11-0.23,0.27-0.42,0.48-0.56s0.45-0.21,0.71-0.21c0.12,0,0.22,0.01,0.31,0.03l-0.03,0.72
		c-0.11-0.03-0.23-0.04-0.35-0.04c-0.19,0-0.35,0.04-0.49,0.1c-0.14,0.07-0.25,0.16-0.34,0.28s-0.16,0.25-0.2,0.4
		c-0.04,0.15-0.07,0.31-0.07,0.47v2.05h-0.77v-3.07C67.24,419.29,67.24,419.15,67.23,418.99z"/>
	<path class="st0" d="M73.07,422.46H72.3v-6.23h0.77V422.46z"/>
	<path class="st0" d="M78.38,420.5c0,0.3-0.05,0.58-0.16,0.83c-0.11,0.25-0.26,0.47-0.45,0.66s-0.41,0.33-0.67,0.43
		s-0.54,0.15-0.83,0.15s-0.57-0.05-0.83-0.15s-0.48-0.25-0.67-0.43c-0.19-0.18-0.33-0.4-0.44-0.66c-0.11-0.25-0.16-0.53-0.16-0.83
		c0-0.3,0.05-0.58,0.16-0.83c0.11-0.25,0.25-0.46,0.44-0.65c0.19-0.18,0.41-0.32,0.67-0.42s0.54-0.15,0.83-0.15s0.57,0.05,0.83,0.15
		s0.48,0.24,0.67,0.42s0.34,0.4,0.45,0.65C78.33,419.92,78.38,420.2,78.38,420.5z M77.57,420.5c0-0.19-0.03-0.36-0.09-0.53
		c-0.06-0.17-0.14-0.32-0.25-0.45s-0.25-0.23-0.41-0.31c-0.16-0.08-0.35-0.12-0.56-0.12c-0.21,0-0.4,0.04-0.56,0.12
		c-0.16,0.08-0.3,0.18-0.41,0.31s-0.19,0.28-0.25,0.45c-0.06,0.17-0.09,0.35-0.09,0.53s0.03,0.36,0.09,0.53
		c0.06,0.17,0.14,0.32,0.25,0.45s0.25,0.24,0.41,0.31c0.16,0.08,0.35,0.12,0.56,0.12c0.21,0,0.4-0.04,0.56-0.12
		c0.16-0.08,0.3-0.18,0.41-0.31s0.19-0.28,0.25-0.45C77.55,420.87,77.57,420.69,77.57,420.5z"/>
	<path class="st0" d="M81.29,422.46h-0.84l-1.59-3.91h0.86l1.15,3.08h0.02l1.15-3.08h0.82L81.29,422.46z"/>
	<path class="st0" d="M87.26,420.47c0,0.04,0,0.09,0,0.13c0,0.04,0,0.09-0.01,0.13h-3.11c0.01,0.16,0.04,0.32,0.11,0.46
		s0.16,0.27,0.28,0.38c0.12,0.11,0.25,0.19,0.4,0.25c0.15,0.06,0.31,0.09,0.48,0.09c0.26,0,0.49-0.06,0.68-0.17
		c0.19-0.12,0.34-0.25,0.45-0.42l0.54,0.44c-0.21,0.28-0.46,0.48-0.74,0.61c-0.28,0.13-0.6,0.2-0.94,0.2c-0.3,0-0.57-0.05-0.82-0.15
		c-0.25-0.1-0.47-0.24-0.65-0.42c-0.18-0.18-0.32-0.39-0.43-0.65c-0.1-0.25-0.16-0.53-0.16-0.84c0-0.3,0.05-0.58,0.15-0.84
		c0.1-0.25,0.24-0.47,0.43-0.65s0.4-0.32,0.64-0.42s0.51-0.15,0.8-0.15c0.29,0,0.55,0.05,0.78,0.14s0.43,0.23,0.59,0.4
		c0.16,0.18,0.29,0.39,0.38,0.64S87.26,420.16,87.26,420.47z M86.47,420.16c-0.01-0.15-0.03-0.3-0.08-0.43s-0.12-0.25-0.21-0.35
		c-0.09-0.1-0.2-0.18-0.34-0.23s-0.29-0.09-0.47-0.09c-0.16,0-0.32,0.03-0.47,0.09s-0.27,0.14-0.38,0.23
		c-0.11,0.1-0.2,0.22-0.26,0.35c-0.07,0.13-0.11,0.28-0.12,0.43H86.47z"/>
	<path class="st0" d="M91.2,419.15c0.09-0.19,0.25-0.36,0.48-0.49c0.22-0.14,0.48-0.21,0.76-0.21c0.25,0,0.47,0.04,0.65,0.13
		c0.18,0.08,0.33,0.2,0.45,0.34c0.12,0.14,0.21,0.31,0.27,0.5c0.06,0.19,0.09,0.4,0.09,0.62v2.42h-0.78v-2.17
		c0-0.16-0.01-0.31-0.04-0.45c-0.02-0.14-0.07-0.27-0.13-0.38c-0.07-0.11-0.16-0.2-0.27-0.26c-0.11-0.07-0.26-0.1-0.44-0.1
		c-0.31,0-0.56,0.12-0.76,0.35c-0.2,0.23-0.3,0.55-0.3,0.94v2.07h-0.77v-6.23h0.77v2.92H91.2z"/>
	<path class="st0" d="M97.64,419.93c0-0.29-0.09-0.51-0.26-0.65c-0.18-0.14-0.41-0.21-0.7-0.21c-0.22,0-0.43,0.04-0.62,0.13
		c-0.2,0.08-0.36,0.19-0.49,0.33l-0.41-0.49c0.19-0.18,0.43-0.32,0.71-0.43c0.28-0.1,0.58-0.16,0.89-0.16
		c0.28,0,0.52,0.04,0.73,0.12c0.21,0.08,0.38,0.19,0.51,0.33c0.13,0.14,0.23,0.3,0.3,0.49c0.07,0.19,0.1,0.39,0.1,0.6v1.71
		c0,0.13,0,0.27,0.01,0.42c0.01,0.15,0.02,0.27,0.05,0.36h-0.7c-0.04-0.19-0.07-0.37-0.07-0.56h-0.02
		c-0.14,0.21-0.32,0.37-0.54,0.49s-0.47,0.17-0.77,0.17c-0.15,0-0.31-0.02-0.48-0.06c-0.17-0.04-0.32-0.11-0.46-0.2
		c-0.14-0.09-0.25-0.22-0.34-0.37s-0.14-0.34-0.14-0.57c0-0.3,0.08-0.53,0.24-0.71c0.16-0.17,0.37-0.3,0.63-0.39
		c0.26-0.09,0.55-0.15,0.87-0.18s0.65-0.04,0.98-0.04V419.93z M97.45,420.6c-0.19,0-0.39,0.01-0.6,0.02s-0.39,0.05-0.56,0.1
		c-0.17,0.05-0.31,0.12-0.42,0.22c-0.11,0.1-0.17,0.23-0.17,0.4c0,0.12,0.02,0.21,0.07,0.29c0.05,0.08,0.11,0.14,0.19,0.19
		s0.16,0.08,0.25,0.1c0.09,0.02,0.19,0.03,0.29,0.03c0.36,0,0.64-0.11,0.84-0.33c0.2-0.22,0.29-0.49,0.29-0.82v-0.21H97.45z"/>
	<path class="st0" d="M100.38,418.55c0.01,0.1,0.02,0.21,0.03,0.33c0.01,0.12,0.01,0.23,0.01,0.31h0.03c0.05-0.1,0.12-0.2,0.2-0.29
		c0.09-0.09,0.18-0.17,0.29-0.24c0.11-0.07,0.23-0.12,0.36-0.16c0.13-0.04,0.27-0.06,0.41-0.06c0.25,0,0.47,0.04,0.65,0.13
		c0.18,0.08,0.33,0.2,0.45,0.34c0.12,0.14,0.21,0.31,0.27,0.5s0.09,0.4,0.09,0.62v2.42h-0.78v-2.17c0-0.16-0.01-0.31-0.04-0.45
		c-0.02-0.14-0.07-0.27-0.14-0.38s-0.16-0.2-0.27-0.26s-0.26-0.1-0.45-0.1c-0.31,0-0.56,0.12-0.75,0.35
		c-0.2,0.23-0.29,0.55-0.29,0.94v2.08h-0.77v-3.07c0-0.11,0-0.24-0.01-0.4c-0.01-0.17-0.01-0.31-0.02-0.44H100.38z"/>
	<path class="st0" d="M107.59,421.84c-0.15,0.24-0.35,0.42-0.61,0.54c-0.26,0.12-0.52,0.18-0.8,0.18c-0.3,0-0.57-0.05-0.82-0.16
		c-0.24-0.11-0.45-0.25-0.62-0.44s-0.3-0.41-0.4-0.66c-0.09-0.25-0.14-0.52-0.14-0.81c0-0.29,0.05-0.55,0.14-0.8s0.23-0.47,0.4-0.66
		c0.17-0.19,0.38-0.33,0.62-0.44s0.51-0.16,0.8-0.16c0.32,0,0.6,0.07,0.83,0.2s0.42,0.3,0.56,0.49h0.02v-2.91h0.78v6.23h-0.75v-0.62
		H107.59z M105.02,420.5c0,0.18,0.03,0.36,0.08,0.53c0.06,0.17,0.14,0.32,0.25,0.45c0.11,0.13,0.25,0.24,0.4,0.32
		c0.16,0.08,0.35,0.12,0.56,0.12c0.2,0,0.38-0.04,0.54-0.12c0.16-0.08,0.3-0.18,0.42-0.31c0.12-0.13,0.21-0.28,0.27-0.45
		c0.06-0.17,0.09-0.35,0.09-0.53s-0.03-0.36-0.09-0.53c-0.06-0.17-0.15-0.32-0.27-0.45c-0.12-0.13-0.25-0.24-0.42-0.31
		c-0.16-0.08-0.34-0.12-0.54-0.12c-0.21,0-0.4,0.04-0.56,0.12c-0.16,0.08-0.29,0.18-0.4,0.31c-0.11,0.13-0.19,0.28-0.25,0.45
		C105.04,420.15,105.02,420.32,105.02,420.5z"/>
	<path class="st0" d="M110.5,422.46h-0.78v-6.23h0.78V422.46z"/>
	<path class="st0" d="M115.5,420.47c0,0.04,0,0.09,0,0.13c0,0.04,0,0.09-0.01,0.13h-3.11c0,0.16,0.04,0.32,0.11,0.46
		c0.07,0.14,0.16,0.27,0.28,0.38c0.12,0.11,0.25,0.19,0.4,0.25s0.31,0.09,0.48,0.09c0.26,0,0.49-0.06,0.68-0.17
		c0.19-0.12,0.34-0.25,0.45-0.42l0.54,0.44c-0.21,0.28-0.46,0.48-0.74,0.61c-0.28,0.13-0.6,0.2-0.94,0.2c-0.3,0-0.57-0.05-0.83-0.15
		c-0.25-0.1-0.47-0.24-0.65-0.42s-0.32-0.39-0.43-0.65c-0.1-0.25-0.16-0.53-0.16-0.84c0-0.3,0.05-0.58,0.15-0.84
		c0.1-0.25,0.24-0.47,0.42-0.65s0.4-0.32,0.64-0.42s0.52-0.15,0.8-0.15s0.55,0.05,0.78,0.14s0.43,0.23,0.6,0.4
		c0.16,0.18,0.29,0.39,0.38,0.64S115.5,420.16,115.5,420.47z M114.71,420.16c-0.01-0.15-0.03-0.3-0.08-0.43s-0.12-0.25-0.21-0.35
		c-0.09-0.1-0.2-0.18-0.34-0.23s-0.29-0.09-0.47-0.09c-0.16,0-0.32,0.03-0.46,0.09c-0.15,0.06-0.27,0.14-0.38,0.23
		c-0.11,0.1-0.2,0.22-0.26,0.35c-0.07,0.13-0.11,0.28-0.12,0.43H114.71z"/>
	<path class="st0" d="M118.68,419.54c-0.09-0.14-0.21-0.26-0.37-0.35c-0.16-0.09-0.34-0.13-0.54-0.13c-0.09,0-0.18,0.01-0.26,0.03
		c-0.09,0.02-0.17,0.05-0.24,0.09s-0.12,0.09-0.16,0.16c-0.04,0.06-0.06,0.14-0.06,0.23c0,0.17,0.07,0.29,0.22,0.37
		c0.15,0.08,0.37,0.15,0.67,0.22c0.19,0.04,0.36,0.1,0.52,0.16c0.16,0.06,0.3,0.14,0.42,0.23c0.12,0.09,0.21,0.2,0.28,0.33
		c0.07,0.13,0.1,0.28,0.1,0.45c0,0.23-0.04,0.43-0.13,0.58s-0.2,0.29-0.35,0.39c-0.15,0.1-0.31,0.17-0.5,0.22
		c-0.19,0.04-0.38,0.07-0.58,0.07c-0.3,0-0.59-0.06-0.87-0.17s-0.52-0.29-0.71-0.53l0.55-0.47c0.1,0.15,0.25,0.28,0.43,0.39
		c0.18,0.1,0.39,0.16,0.61,0.16c0.1,0,0.19-0.01,0.28-0.03s0.17-0.05,0.25-0.09s0.13-0.1,0.18-0.17c0.04-0.07,0.07-0.16,0.07-0.27
		c0-0.18-0.09-0.32-0.26-0.4s-0.43-0.17-0.76-0.25c-0.13-0.03-0.26-0.07-0.4-0.12s-0.26-0.11-0.37-0.19
		c-0.11-0.08-0.2-0.19-0.27-0.31s-0.1-0.28-0.1-0.46c0-0.21,0.04-0.39,0.13-0.54c0.09-0.15,0.2-0.28,0.33-0.37
		c0.14-0.1,0.29-0.17,0.47-0.21c0.18-0.05,0.36-0.07,0.54-0.07c0.28,0,0.55,0.06,0.81,0.17c0.26,0.11,0.46,0.27,0.61,0.48
		L118.68,419.54z"/>
	<path class="st0" d="M124.73,419.93c0-0.29-0.09-0.51-0.26-0.65c-0.18-0.14-0.41-0.21-0.7-0.21c-0.22,0-0.43,0.04-0.62,0.13
		s-0.36,0.19-0.49,0.33l-0.41-0.49c0.19-0.18,0.43-0.32,0.71-0.43c0.28-0.1,0.58-0.16,0.89-0.16c0.28,0,0.52,0.04,0.73,0.12
		c0.21,0.08,0.38,0.19,0.51,0.33c0.13,0.14,0.23,0.3,0.3,0.49c0.07,0.19,0.1,0.39,0.1,0.6v1.71c0,0.13,0,0.27,0.01,0.42
		c0.01,0.15,0.02,0.27,0.05,0.36h-0.7c-0.04-0.19-0.07-0.37-0.07-0.56h-0.02c-0.14,0.21-0.32,0.37-0.54,0.49s-0.47,0.17-0.77,0.17
		c-0.15,0-0.31-0.02-0.48-0.06c-0.17-0.04-0.32-0.11-0.46-0.2c-0.14-0.09-0.25-0.22-0.34-0.37c-0.09-0.15-0.13-0.34-0.13-0.57
		c0-0.3,0.08-0.53,0.24-0.71c0.16-0.17,0.37-0.3,0.63-0.39c0.26-0.09,0.55-0.15,0.87-0.18s0.65-0.04,0.98-0.04V419.93z
		 M124.54,420.6c-0.19,0-0.39,0.01-0.6,0.02c-0.21,0.02-0.39,0.05-0.56,0.1c-0.17,0.05-0.31,0.12-0.42,0.22
		c-0.11,0.1-0.16,0.23-0.16,0.4c0,0.12,0.02,0.21,0.07,0.29c0.05,0.08,0.11,0.14,0.19,0.19c0.08,0.05,0.16,0.08,0.25,0.1
		c0.09,0.02,0.19,0.03,0.29,0.03c0.36,0,0.64-0.11,0.84-0.33c0.2-0.22,0.29-0.49,0.29-0.82v-0.21H124.54z"/>
	<path class="st0" d="M127.46,418.55c0.01,0.1,0.02,0.21,0.02,0.33c0.01,0.12,0.01,0.23,0.01,0.31h0.02c0.05-0.1,0.12-0.2,0.2-0.29
		s0.18-0.17,0.29-0.24c0.11-0.07,0.23-0.12,0.36-0.16c0.13-0.04,0.27-0.06,0.41-0.06c0.25,0,0.47,0.04,0.65,0.13
		c0.18,0.08,0.33,0.2,0.45,0.34c0.12,0.14,0.21,0.31,0.27,0.5c0.06,0.19,0.09,0.4,0.09,0.62v2.42h-0.77v-2.17
		c0-0.16-0.01-0.31-0.04-0.45c-0.02-0.14-0.07-0.27-0.14-0.38c-0.07-0.11-0.16-0.2-0.27-0.26s-0.26-0.1-0.45-0.1
		c-0.31,0-0.56,0.12-0.75,0.35c-0.2,0.23-0.29,0.55-0.29,0.94v2.08h-0.77v-3.07c0-0.11,0-0.24-0.01-0.4
		c-0.01-0.17-0.01-0.31-0.03-0.44H127.46z"/>
	<path class="st0" d="M134.67,421.84c-0.15,0.24-0.35,0.42-0.61,0.54c-0.25,0.12-0.52,0.18-0.8,0.18c-0.3,0-0.57-0.05-0.82-0.16
		c-0.24-0.11-0.45-0.25-0.62-0.44c-0.17-0.19-0.3-0.41-0.4-0.66c-0.09-0.25-0.14-0.52-0.14-0.81c0-0.29,0.05-0.55,0.14-0.8
		c0.09-0.25,0.23-0.47,0.4-0.66c0.17-0.19,0.38-0.33,0.62-0.44s0.51-0.16,0.8-0.16c0.32,0,0.6,0.07,0.83,0.2s0.42,0.3,0.56,0.49
		h0.02v-2.91h0.78v6.23h-0.75v-0.62H134.67z M132.1,420.5c0,0.18,0.03,0.36,0.08,0.53s0.14,0.32,0.25,0.45
		c0.11,0.13,0.25,0.24,0.4,0.32c0.16,0.08,0.35,0.12,0.56,0.12c0.2,0,0.38-0.04,0.54-0.12c0.16-0.08,0.3-0.18,0.42-0.31
		s0.21-0.28,0.27-0.45s0.09-0.35,0.09-0.53s-0.03-0.36-0.09-0.53s-0.15-0.32-0.27-0.45c-0.12-0.13-0.25-0.24-0.42-0.31
		c-0.16-0.08-0.34-0.12-0.54-0.12c-0.21,0-0.4,0.04-0.56,0.12c-0.16,0.08-0.29,0.18-0.4,0.31c-0.11,0.13-0.19,0.28-0.25,0.45
		S132.1,420.32,132.1,420.5z"/>
	<path class="st0" d="M31.95,429.42c0-0.29-0.09-0.51-0.26-0.65c-0.18-0.14-0.41-0.21-0.7-0.21c-0.22,0-0.43,0.04-0.62,0.13
		c-0.2,0.08-0.36,0.19-0.49,0.33l-0.41-0.49c0.19-0.18,0.43-0.32,0.71-0.43c0.28-0.1,0.58-0.16,0.89-0.16
		c0.28,0,0.52,0.04,0.73,0.12c0.21,0.08,0.38,0.19,0.51,0.33c0.13,0.14,0.23,0.3,0.3,0.49c0.07,0.19,0.1,0.39,0.1,0.6v1.71
		c0,0.13,0,0.27,0.01,0.42c0.01,0.15,0.02,0.27,0.05,0.36h-0.7c-0.04-0.19-0.07-0.37-0.07-0.56h-0.02
		c-0.14,0.21-0.32,0.37-0.54,0.49c-0.22,0.12-0.47,0.17-0.77,0.17c-0.15,0-0.31-0.02-0.48-0.06c-0.17-0.04-0.32-0.11-0.46-0.2
		c-0.14-0.09-0.25-0.22-0.34-0.37s-0.14-0.34-0.14-0.57c0-0.3,0.08-0.53,0.24-0.71c0.16-0.17,0.37-0.3,0.63-0.39
		c0.26-0.09,0.55-0.15,0.87-0.18c0.32-0.03,0.65-0.04,0.98-0.04V429.42z M31.76,430.09c-0.19,0-0.39,0.01-0.6,0.02
		s-0.39,0.05-0.56,0.1c-0.17,0.05-0.31,0.12-0.42,0.22c-0.11,0.1-0.17,0.23-0.17,0.4c0,0.12,0.02,0.21,0.07,0.29
		c0.05,0.08,0.11,0.14,0.19,0.19c0.08,0.05,0.16,0.08,0.26,0.1c0.09,0.02,0.19,0.03,0.29,0.03c0.36,0,0.64-0.11,0.84-0.33
		c0.2-0.22,0.29-0.49,0.29-0.82v-0.21H31.76z"/>
	<path class="st0" d="M34.76,431.33v0.62h-0.75v-6.23h0.77v2.91h0.02c0.13-0.19,0.31-0.36,0.55-0.49s0.52-0.2,0.84-0.2
		c0.29,0,0.55,0.05,0.79,0.16c0.24,0.1,0.44,0.25,0.62,0.44c0.17,0.19,0.31,0.41,0.4,0.66s0.14,0.52,0.14,0.8
		c0,0.29-0.05,0.56-0.14,0.81c-0.09,0.25-0.23,0.47-0.4,0.66s-0.38,0.33-0.62,0.44c-0.24,0.11-0.51,0.16-0.81,0.16
		c-0.28,0-0.55-0.06-0.8-0.18c-0.25-0.12-0.46-0.3-0.61-0.54H34.76z M37.35,430c0-0.18-0.03-0.36-0.08-0.53
		c-0.06-0.17-0.14-0.32-0.25-0.45c-0.11-0.13-0.25-0.24-0.41-0.31c-0.16-0.08-0.35-0.12-0.56-0.12c-0.2,0-0.38,0.04-0.54,0.12
		c-0.16,0.08-0.3,0.18-0.42,0.31c-0.12,0.13-0.21,0.28-0.27,0.45c-0.06,0.17-0.09,0.35-0.09,0.53s0.03,0.36,0.09,0.53
		c0.06,0.17,0.15,0.32,0.27,0.45c0.12,0.13,0.25,0.23,0.42,0.31c0.16,0.08,0.34,0.12,0.54,0.12c0.21,0,0.4-0.04,0.56-0.12
		c0.16-0.08,0.3-0.18,0.41-0.32c0.11-0.13,0.19-0.28,0.25-0.45C37.33,430.35,37.35,430.18,37.35,430z"/>
	<path class="st0" d="M42.35,431.33c-0.15,0.24-0.35,0.42-0.61,0.54c-0.26,0.12-0.52,0.18-0.8,0.18c-0.3,0-0.57-0.05-0.82-0.16
		c-0.24-0.11-0.45-0.25-0.62-0.44c-0.17-0.19-0.3-0.41-0.4-0.66c-0.09-0.25-0.14-0.52-0.14-0.81c0-0.29,0.05-0.55,0.14-0.8
		s0.23-0.47,0.4-0.66c0.17-0.19,0.38-0.33,0.62-0.44c0.24-0.1,0.51-0.16,0.8-0.16c0.32,0,0.6,0.07,0.83,0.2s0.42,0.3,0.56,0.49h0.02
		v-2.91h0.77v6.23h-0.75v-0.62H42.35z M39.78,430c0,0.18,0.03,0.36,0.08,0.53c0.06,0.17,0.14,0.32,0.25,0.45
		c0.11,0.13,0.24,0.24,0.4,0.32c0.16,0.08,0.35,0.12,0.56,0.12c0.2,0,0.38-0.04,0.54-0.12c0.16-0.08,0.3-0.18,0.42-0.31
		c0.12-0.13,0.21-0.28,0.27-0.45s0.09-0.35,0.09-0.53s-0.03-0.36-0.09-0.53s-0.15-0.32-0.27-0.45c-0.12-0.13-0.25-0.24-0.42-0.31
		c-0.16-0.08-0.34-0.12-0.54-0.12c-0.21,0-0.4,0.04-0.56,0.12c-0.16,0.08-0.29,0.18-0.4,0.31c-0.11,0.13-0.19,0.28-0.25,0.45
		C39.8,429.64,39.78,429.81,39.78,430z"/>
	<path class="st0" d="M48.42,429.99c0,0.3-0.05,0.58-0.16,0.83c-0.11,0.25-0.26,0.47-0.45,0.66s-0.41,0.33-0.67,0.43
		s-0.54,0.15-0.83,0.15s-0.57-0.05-0.83-0.15s-0.48-0.25-0.67-0.43c-0.19-0.18-0.33-0.4-0.44-0.66c-0.11-0.25-0.16-0.53-0.16-0.83
		c0-0.3,0.05-0.58,0.16-0.83c0.11-0.25,0.25-0.46,0.44-0.65c0.19-0.18,0.41-0.32,0.67-0.42s0.54-0.15,0.83-0.15s0.57,0.05,0.83,0.15
		s0.48,0.24,0.67,0.42s0.34,0.4,0.45,0.65C48.37,429.41,48.42,429.69,48.42,429.99z M47.62,430c0-0.19-0.03-0.36-0.09-0.53
		c-0.06-0.17-0.14-0.32-0.25-0.45s-0.25-0.23-0.41-0.31c-0.16-0.08-0.35-0.12-0.56-0.12c-0.21,0-0.4,0.04-0.56,0.12
		c-0.16,0.08-0.3,0.18-0.41,0.31s-0.19,0.28-0.25,0.45C45.03,429.63,45,429.81,45,430s0.03,0.36,0.09,0.53
		c0.06,0.17,0.14,0.32,0.25,0.45s0.25,0.24,0.41,0.31c0.16,0.08,0.35,0.12,0.56,0.12c0.21,0,0.4-0.04,0.56-0.12
		c0.16-0.08,0.3-0.18,0.41-0.31s0.19-0.28,0.25-0.45C47.59,430.36,47.62,430.18,47.62,430z"/>
	<path class="st0" d="M50.73,428.16c0.22-0.14,0.47-0.22,0.77-0.22c0.26,0,0.5,0.06,0.71,0.18s0.38,0.32,0.5,0.6
		c0.13-0.25,0.32-0.45,0.55-0.58c0.24-0.13,0.49-0.2,0.77-0.2c0.25,0,0.47,0.04,0.65,0.13c0.18,0.08,0.33,0.2,0.45,0.34
		c0.12,0.14,0.21,0.31,0.27,0.5c0.06,0.19,0.09,0.4,0.09,0.62v2.42h-0.77v-2.17c0-0.16-0.01-0.31-0.04-0.45
		c-0.03-0.14-0.07-0.27-0.14-0.38s-0.15-0.2-0.26-0.26s-0.25-0.1-0.42-0.1c-0.18,0-0.33,0.04-0.45,0.11
		c-0.13,0.07-0.23,0.17-0.31,0.29s-0.14,0.25-0.17,0.4s-0.05,0.3-0.05,0.45v2.11h-0.77v-2.33c0-0.15-0.01-0.29-0.04-0.42
		c-0.03-0.12-0.07-0.23-0.14-0.33s-0.15-0.16-0.26-0.21c-0.1-0.05-0.23-0.08-0.39-0.08c-0.29,0-0.52,0.12-0.71,0.35
		c-0.19,0.23-0.28,0.55-0.28,0.94v2.08H49.5v-3.07c0-0.11,0-0.24-0.01-0.4c-0.01-0.17-0.01-0.31-0.02-0.44h0.73
		c0.01,0.1,0.02,0.21,0.02,0.33c0.01,0.12,0.01,0.23,0.01,0.31h0.02C50.35,428.48,50.51,428.3,50.73,428.16z"/>
	<path class="st0" d="M60.46,429.97c0,0.04,0,0.09,0,0.13c0,0.04,0,0.09-0.01,0.13h-3.11c0.01,0.16,0.04,0.32,0.11,0.46
		c0.07,0.14,0.16,0.27,0.28,0.38c0.12,0.11,0.25,0.19,0.4,0.25c0.15,0.06,0.31,0.09,0.48,0.09c0.26,0,0.49-0.06,0.68-0.17
		c0.19-0.12,0.34-0.25,0.45-0.42l0.54,0.44c-0.21,0.28-0.46,0.48-0.74,0.61c-0.28,0.13-0.6,0.2-0.94,0.2c-0.3,0-0.57-0.05-0.82-0.15
		c-0.25-0.1-0.47-0.24-0.65-0.42c-0.18-0.18-0.32-0.39-0.43-0.65c-0.1-0.25-0.16-0.53-0.16-0.84c0-0.3,0.05-0.58,0.15-0.84
		c0.1-0.25,0.24-0.47,0.43-0.65s0.4-0.32,0.64-0.42c0.25-0.1,0.51-0.15,0.8-0.15c0.29,0,0.55,0.05,0.78,0.14
		c0.23,0.09,0.43,0.23,0.59,0.4c0.16,0.18,0.29,0.39,0.38,0.64C60.41,429.37,60.46,429.65,60.46,429.97z M59.67,429.65
		c-0.01-0.15-0.03-0.3-0.08-0.43s-0.12-0.25-0.21-0.35c-0.09-0.1-0.2-0.18-0.34-0.23s-0.29-0.09-0.47-0.09
		c-0.16,0-0.32,0.03-0.47,0.09s-0.27,0.14-0.38,0.23c-0.11,0.1-0.2,0.22-0.26,0.35c-0.07,0.13-0.11,0.28-0.12,0.43H59.67z"/>
	<path class="st0" d="M62.23,428.04c0.01,0.1,0.02,0.21,0.02,0.33c0.01,0.12,0.01,0.23,0.01,0.31h0.02c0.05-0.1,0.12-0.2,0.2-0.29
		c0.09-0.09,0.18-0.17,0.29-0.24c0.11-0.07,0.23-0.12,0.36-0.16c0.13-0.04,0.27-0.06,0.41-0.06c0.25,0,0.47,0.04,0.65,0.13
		c0.18,0.08,0.33,0.2,0.45,0.34c0.12,0.14,0.21,0.31,0.27,0.5s0.09,0.4,0.09,0.62v2.42h-0.77v-2.17c0-0.16-0.01-0.31-0.04-0.45
		c-0.02-0.14-0.07-0.27-0.14-0.38s-0.16-0.2-0.27-0.26s-0.26-0.1-0.45-0.1c-0.31,0-0.56,0.12-0.75,0.35
		c-0.2,0.23-0.29,0.55-0.29,0.94v2.08h-0.77v-3.07c0-0.11,0-0.24-0.01-0.4c-0.01-0.17-0.01-0.31-0.02-0.44H62.23z"/>
	<path class="st0" d="M67.28,431.46c0,0.14-0.05,0.27-0.16,0.38c-0.1,0.11-0.24,0.16-0.4,0.16c-0.15,0-0.28-0.05-0.39-0.16
		c-0.11-0.11-0.16-0.23-0.16-0.38c0-0.15,0.05-0.28,0.16-0.38c0.1-0.11,0.24-0.16,0.4-0.16c0.16,0,0.29,0.05,0.4,0.16
		S67.28,431.31,67.28,431.46z"/>
	<path class="st0" d="M71.14,431.95h-0.82v-5.84h1.87c0.28,0,0.55,0.03,0.8,0.09c0.25,0.06,0.47,0.15,0.66,0.28
		c0.19,0.13,0.34,0.29,0.45,0.5c0.11,0.21,0.16,0.46,0.16,0.75c0,0.43-0.13,0.77-0.4,1.04c-0.26,0.26-0.6,0.43-1.02,0.5l1.63,2.68
		H73.5l-1.48-2.6h-0.87V431.95z M71.14,428.67h0.94c0.19,0,0.37-0.02,0.54-0.05c0.17-0.03,0.31-0.09,0.43-0.16
		c0.12-0.07,0.22-0.17,0.29-0.29c0.07-0.12,0.11-0.27,0.11-0.44s-0.04-0.32-0.11-0.44c-0.07-0.12-0.17-0.21-0.28-0.28
		s-0.26-0.12-0.42-0.15c-0.16-0.03-0.33-0.04-0.5-0.04h-1V428.67z"/>
	<path class="st0" d="M78.9,429.97c0,0.04,0,0.09,0,0.13c0,0.04,0,0.09-0.01,0.13h-3.11c0.01,0.16,0.04,0.32,0.11,0.46
		c0.07,0.14,0.16,0.27,0.28,0.38c0.12,0.11,0.25,0.19,0.4,0.25c0.15,0.06,0.31,0.09,0.48,0.09c0.26,0,0.49-0.06,0.68-0.17
		c0.19-0.12,0.34-0.25,0.45-0.42l0.54,0.44c-0.21,0.28-0.46,0.48-0.74,0.61c-0.28,0.13-0.6,0.2-0.94,0.2c-0.3,0-0.57-0.05-0.82-0.15
		c-0.25-0.1-0.47-0.24-0.65-0.42c-0.18-0.18-0.32-0.39-0.43-0.65c-0.1-0.25-0.16-0.53-0.16-0.84c0-0.3,0.05-0.58,0.15-0.84
		c0.1-0.25,0.24-0.47,0.43-0.65s0.4-0.32,0.64-0.42c0.25-0.1,0.51-0.15,0.8-0.15c0.29,0,0.55,0.05,0.78,0.14
		c0.23,0.09,0.43,0.23,0.59,0.4c0.16,0.18,0.29,0.39,0.38,0.64C78.85,429.37,78.9,429.65,78.9,429.97z M78.11,429.65
		c-0.01-0.15-0.03-0.3-0.08-0.43s-0.12-0.25-0.21-0.35c-0.09-0.1-0.2-0.18-0.34-0.23s-0.29-0.09-0.47-0.09
		c-0.16,0-0.32,0.03-0.47,0.09s-0.27,0.14-0.38,0.23c-0.11,0.1-0.2,0.22-0.26,0.35c-0.07,0.13-0.11,0.28-0.12,0.43H78.11z"/>
	<path class="st0" d="M82.08,429.04c-0.09-0.14-0.21-0.26-0.37-0.35c-0.16-0.09-0.34-0.13-0.54-0.13c-0.09,0-0.18,0.01-0.26,0.03
		c-0.09,0.02-0.17,0.05-0.23,0.09c-0.07,0.04-0.12,0.09-0.17,0.16c-0.04,0.06-0.06,0.14-0.06,0.23c0,0.17,0.07,0.29,0.22,0.37
		c0.15,0.08,0.37,0.15,0.67,0.22c0.19,0.04,0.36,0.1,0.52,0.16c0.16,0.06,0.3,0.14,0.42,0.23c0.12,0.09,0.21,0.2,0.28,0.33
		c0.07,0.13,0.1,0.28,0.1,0.45c0,0.23-0.04,0.43-0.13,0.58s-0.2,0.29-0.35,0.39c-0.15,0.1-0.31,0.17-0.5,0.22
		c-0.19,0.04-0.38,0.07-0.58,0.07c-0.3,0-0.59-0.06-0.87-0.17c-0.28-0.12-0.52-0.29-0.7-0.53l0.55-0.47
		c0.1,0.15,0.25,0.28,0.43,0.39c0.18,0.1,0.39,0.16,0.61,0.16c0.1,0,0.19-0.01,0.28-0.03s0.17-0.05,0.25-0.09s0.13-0.1,0.18-0.17
		c0.04-0.07,0.07-0.16,0.07-0.27c0-0.18-0.09-0.32-0.26-0.4s-0.43-0.17-0.76-0.25c-0.13-0.03-0.27-0.07-0.4-0.12
		s-0.26-0.11-0.37-0.19c-0.11-0.08-0.2-0.19-0.27-0.31s-0.1-0.28-0.1-0.46c0-0.21,0.04-0.39,0.13-0.54c0.08-0.15,0.2-0.28,0.33-0.37
		c0.14-0.1,0.29-0.17,0.47-0.21c0.18-0.05,0.36-0.07,0.54-0.07c0.28,0,0.55,0.06,0.81,0.17c0.26,0.11,0.46,0.27,0.61,0.48
		L82.08,429.04z"/>
	<path class="st0" d="M86.38,431.95c-0.01-0.1-0.02-0.21-0.03-0.33c-0.01-0.12-0.01-0.23-0.01-0.31h-0.02
		c-0.1,0.21-0.26,0.39-0.5,0.53c-0.23,0.14-0.49,0.22-0.78,0.22c-0.25,0-0.47-0.04-0.65-0.12c-0.18-0.08-0.34-0.2-0.45-0.34
		c-0.12-0.14-0.21-0.31-0.26-0.51s-0.09-0.4-0.09-0.62v-2.42h0.78v2.16c0,0.16,0.01,0.31,0.04,0.46c0.02,0.15,0.07,0.27,0.14,0.38
		s0.16,0.2,0.27,0.26s0.26,0.1,0.45,0.1c0.31,0,0.57-0.12,0.76-0.35c0.19-0.23,0.29-0.55,0.29-0.94v-2.08h0.77v3.07
		c0,0.11,0,0.24,0.01,0.4c0,0.17,0.01,0.31,0.02,0.44H86.38z"/>
	<path class="st0" d="M89.22,431.95h-0.77v-6.23h0.77V431.95z"/>
	<path class="st0" d="M92.48,428.68h-1.04v2.03c0,0.24,0.04,0.4,0.13,0.5c0.09,0.1,0.23,0.15,0.42,0.15c0.07,0,0.15-0.01,0.23-0.02
		s0.16-0.04,0.22-0.07l0.02,0.63c-0.09,0.03-0.2,0.06-0.31,0.08c-0.11,0.02-0.23,0.03-0.35,0.03c-0.37,0-0.65-0.1-0.85-0.31
		c-0.19-0.2-0.29-0.51-0.29-0.91v-2.12h-0.75v-0.63h0.75v-1.12h0.77v1.12h1.04V428.68z"/>
	<path class="st0" d="M95.39,429.04c-0.09-0.14-0.21-0.26-0.37-0.35c-0.16-0.09-0.34-0.13-0.54-0.13c-0.09,0-0.18,0.01-0.26,0.03
		c-0.09,0.02-0.17,0.05-0.23,0.09s-0.12,0.09-0.17,0.16c-0.04,0.06-0.06,0.14-0.06,0.23c0,0.17,0.07,0.29,0.22,0.37
		c0.15,0.08,0.37,0.15,0.67,0.22c0.19,0.04,0.36,0.1,0.52,0.16s0.3,0.14,0.42,0.23c0.12,0.09,0.21,0.2,0.28,0.33s0.1,0.28,0.1,0.45
		c0,0.23-0.04,0.43-0.13,0.58s-0.2,0.29-0.35,0.39c-0.15,0.1-0.31,0.17-0.5,0.22c-0.19,0.04-0.38,0.07-0.58,0.07
		c-0.3,0-0.59-0.06-0.87-0.17s-0.52-0.29-0.71-0.53l0.55-0.47c0.1,0.15,0.25,0.28,0.43,0.39c0.18,0.1,0.39,0.16,0.61,0.16
		c0.1,0,0.19-0.01,0.28-0.03c0.09-0.02,0.17-0.05,0.25-0.09s0.13-0.1,0.18-0.17s0.07-0.16,0.07-0.27c0-0.18-0.09-0.32-0.26-0.4
		c-0.17-0.09-0.43-0.17-0.76-0.25c-0.13-0.03-0.27-0.07-0.4-0.12s-0.26-0.11-0.37-0.19s-0.2-0.19-0.27-0.31
		c-0.07-0.12-0.1-0.28-0.1-0.46c0-0.21,0.04-0.39,0.13-0.54c0.08-0.15,0.2-0.28,0.33-0.37c0.14-0.1,0.29-0.17,0.47-0.21
		c0.18-0.05,0.36-0.07,0.54-0.07c0.28,0,0.55,0.06,0.81,0.17c0.26,0.11,0.46,0.27,0.61,0.48L95.39,429.04z"/>
	<path class="st0" d="M100.23,428.16c0.22-0.14,0.47-0.22,0.77-0.22c0.26,0,0.5,0.06,0.71,0.18c0.21,0.12,0.38,0.32,0.5,0.6
		c0.13-0.25,0.32-0.45,0.55-0.58s0.49-0.2,0.77-0.2c0.25,0,0.47,0.04,0.65,0.13c0.18,0.08,0.33,0.2,0.45,0.34s0.21,0.31,0.27,0.5
		c0.06,0.19,0.09,0.4,0.09,0.62v2.42h-0.78v-2.17c0-0.16-0.01-0.31-0.04-0.45c-0.03-0.14-0.07-0.27-0.14-0.38s-0.15-0.2-0.26-0.26
		s-0.25-0.1-0.42-0.1c-0.18,0-0.33,0.04-0.45,0.11c-0.13,0.07-0.23,0.17-0.31,0.29c-0.08,0.12-0.14,0.25-0.17,0.4
		c-0.04,0.15-0.05,0.3-0.05,0.45v2.11h-0.77v-2.33c0-0.15-0.01-0.29-0.04-0.42c-0.03-0.12-0.07-0.23-0.14-0.33
		c-0.07-0.09-0.15-0.16-0.26-0.21c-0.1-0.05-0.23-0.08-0.39-0.08c-0.29,0-0.52,0.12-0.71,0.35c-0.19,0.23-0.28,0.55-0.28,0.94v2.08
		H99v-3.07c0-0.11,0-0.24-0.01-0.4c-0.01-0.17-0.01-0.31-0.03-0.44h0.73c0.01,0.1,0.02,0.21,0.02,0.33c0,0.12,0.01,0.23,0.01,0.31
		h0.02C99.86,428.48,100.02,428.3,100.23,428.16z"/>
	<path class="st0" d="M108.75,429.42c0-0.29-0.09-0.51-0.26-0.65c-0.18-0.14-0.41-0.21-0.7-0.21c-0.22,0-0.43,0.04-0.62,0.13
		s-0.36,0.19-0.49,0.33l-0.41-0.49c0.19-0.18,0.43-0.32,0.71-0.43s0.58-0.16,0.89-0.16c0.28,0,0.52,0.04,0.73,0.12
		c0.21,0.08,0.38,0.19,0.51,0.33c0.13,0.14,0.23,0.3,0.3,0.49c0.07,0.19,0.1,0.39,0.1,0.6v1.71c0,0.13,0,0.27,0.01,0.42
		c0.01,0.15,0.02,0.27,0.04,0.36h-0.7c-0.04-0.19-0.07-0.37-0.07-0.56h-0.02c-0.14,0.21-0.32,0.37-0.54,0.49
		c-0.22,0.12-0.47,0.17-0.77,0.17c-0.15,0-0.31-0.02-0.48-0.06s-0.32-0.11-0.46-0.2c-0.14-0.09-0.25-0.22-0.34-0.37
		s-0.14-0.34-0.14-0.57c0-0.3,0.08-0.53,0.24-0.71c0.16-0.17,0.37-0.3,0.63-0.39c0.26-0.09,0.55-0.15,0.87-0.18
		c0.32-0.03,0.65-0.04,0.98-0.04V429.42z M108.56,430.09c-0.19,0-0.39,0.01-0.6,0.02s-0.39,0.05-0.56,0.1
		c-0.17,0.05-0.31,0.12-0.42,0.22c-0.11,0.1-0.17,0.23-0.17,0.4c0,0.12,0.02,0.21,0.07,0.29s0.11,0.14,0.19,0.19
		c0.08,0.05,0.16,0.08,0.26,0.1c0.09,0.02,0.19,0.03,0.29,0.03c0.36,0,0.64-0.11,0.84-0.33c0.2-0.22,0.29-0.49,0.29-0.82v-0.21
		H108.56z"/>
	<path class="st0" d="M112.27,431.11h0.02l1.08-3.07h0.82l-1.9,4.83c-0.07,0.17-0.14,0.31-0.21,0.44c-0.08,0.13-0.17,0.24-0.27,0.33
		c-0.1,0.09-0.23,0.16-0.37,0.21c-0.14,0.05-0.31,0.07-0.5,0.07c-0.08,0-0.17,0-0.25-0.01c-0.08-0.01-0.17-0.02-0.26-0.04l0.07-0.68
		c0.13,0.04,0.26,0.07,0.39,0.07c0.2,0,0.35-0.06,0.45-0.17c0.1-0.11,0.19-0.27,0.27-0.48l0.25-0.65l-1.67-3.91h0.87L112.27,431.11z
		"/>
	<path class="st0" d="M118.83,431.95h-0.84l-1.59-3.91h0.86l1.15,3.08h0.02l1.15-3.08h0.82L118.83,431.95z"/>
	<path class="st0" d="M123.58,429.42c0-0.29-0.09-0.51-0.26-0.65c-0.18-0.14-0.41-0.21-0.7-0.21c-0.22,0-0.43,0.04-0.62,0.13
		c-0.2,0.08-0.36,0.19-0.49,0.33l-0.41-0.49c0.19-0.18,0.43-0.32,0.71-0.43c0.28-0.1,0.58-0.16,0.89-0.16
		c0.28,0,0.52,0.04,0.73,0.12c0.21,0.08,0.38,0.19,0.51,0.33c0.13,0.14,0.23,0.3,0.3,0.49c0.07,0.19,0.1,0.39,0.1,0.6v1.71
		c0,0.13,0,0.27,0.01,0.42c0.01,0.15,0.02,0.27,0.05,0.36h-0.7c-0.04-0.19-0.07-0.37-0.07-0.56h-0.02
		c-0.14,0.21-0.32,0.37-0.54,0.49s-0.47,0.17-0.77,0.17c-0.15,0-0.31-0.02-0.48-0.06c-0.17-0.04-0.32-0.11-0.46-0.2
		c-0.14-0.09-0.25-0.22-0.34-0.37s-0.14-0.34-0.14-0.57c0-0.3,0.08-0.53,0.24-0.71c0.16-0.17,0.37-0.3,0.63-0.39
		c0.26-0.09,0.55-0.15,0.87-0.18s0.65-0.04,0.98-0.04V429.42z M123.39,430.09c-0.19,0-0.39,0.01-0.6,0.02s-0.39,0.05-0.56,0.1
		c-0.17,0.05-0.31,0.12-0.42,0.22c-0.11,0.1-0.17,0.23-0.17,0.4c0,0.12,0.02,0.21,0.07,0.29c0.05,0.08,0.11,0.14,0.19,0.19
		s0.16,0.08,0.25,0.1c0.09,0.02,0.19,0.03,0.29,0.03c0.36,0,0.64-0.11,0.84-0.33c0.2-0.22,0.29-0.49,0.29-0.82v-0.21H123.39z"/>
	<path class="st0" d="M125.61,428.48c-0.01-0.17-0.01-0.31-0.02-0.44h0.73c0.01,0.1,0.02,0.21,0.03,0.34
		c0.01,0.13,0.01,0.24,0.01,0.32h0.03c0.11-0.23,0.27-0.42,0.48-0.56c0.21-0.14,0.45-0.21,0.71-0.21c0.12,0,0.22,0.01,0.3,0.03
		l-0.03,0.72c-0.11-0.03-0.23-0.04-0.35-0.04c-0.19,0-0.35,0.04-0.49,0.1c-0.14,0.07-0.25,0.16-0.34,0.28s-0.16,0.25-0.2,0.4
		c-0.04,0.15-0.07,0.31-0.07,0.47v2.05h-0.77v-3.07C125.62,428.78,125.62,428.65,125.61,428.48z"/>
	<path class="st0" d="M130.09,431.11h0.02l1.08-3.07h0.82l-1.9,4.83c-0.07,0.17-0.14,0.31-0.21,0.44c-0.08,0.13-0.17,0.24-0.27,0.33
		c-0.11,0.09-0.23,0.16-0.37,0.21c-0.14,0.05-0.31,0.07-0.5,0.07c-0.08,0-0.17,0-0.25-0.01c-0.09-0.01-0.17-0.02-0.26-0.04
		l0.07-0.68c0.13,0.04,0.26,0.07,0.39,0.07c0.2,0,0.36-0.06,0.45-0.17c0.1-0.11,0.19-0.27,0.27-0.48l0.25-0.65l-1.67-3.91h0.87
		L130.09,431.11z"/>
	<path class="st0" d="M133.42,431.46c0,0.14-0.05,0.27-0.16,0.38c-0.1,0.11-0.24,0.16-0.4,0.16c-0.15,0-0.28-0.05-0.39-0.16
		s-0.16-0.23-0.16-0.38c0-0.15,0.05-0.28,0.16-0.38c0.1-0.11,0.24-0.16,0.4-0.16s0.29,0.05,0.4,0.16S133.42,431.31,133.42,431.46z"
		/>
</g>
</svg>
