<?xml version="1.0" encoding="utf-8"?>
<!-- Generator: Adobe Illustrator 25.2.1, SVG Export Plug-In . SVG Version: 6.00 Build 0)  -->
<svg version="1.1" id="Layer_1" xmlns="http://www.w3.org/2000/svg" xmlns:xlink="http://www.w3.org/1999/xlink" x="0px" y="0px"
	 viewBox="0 0 160 600" style="enable-background:new 0 0 160 600;" xml:space="preserve">
<style type="text/css">
	.st0{fill:#00B4EF;}
	.st1{fill:#0072BB;}
</style>
<g>
	<path class="st0" d="M101.43,33.6h4.82v1.13h-3.53v1.85h3.34v1.09h-3.34v2.06h3.71v1.15h-5.01V33.6z"/>
	<path class="st0" d="M110.16,33.6h1.3v6.13h3.1v1.15h-4.39V33.6z"/>
	<path class="st0" d="M117.88,33.6h1.29v7.28h-1.29V33.6z"/>
	<path class="st0" d="M124.72,34.73h-2.23V33.6h5.76v1.13h-2.23v6.15h-1.3V34.73z"/>
	<path class="st0" d="M131.55,33.6h4.82v1.13h-3.53v1.85h3.34v1.09h-3.34v2.06h3.71v1.15h-5.01V33.6z"/>
</g>
<g>
	<g>
		<g>
			<g>
				<path class="st0" d="M39.07,29.06c0,0.34-0.27,0.6-0.61,0.6c-0.34,0-0.62-0.27-0.62-0.6c0-0.34,0.27-0.6,0.62-0.6
					C38.8,28.46,39.07,28.72,39.07,29.06z M37.99,29.06c0,0.27,0.2,0.48,0.47,0.48c0.26,0,0.46-0.21,0.46-0.48
					c0-0.27-0.2-0.48-0.46-0.48C38.19,28.58,37.99,28.8,37.99,29.06z M38.36,29.37h-0.14v-0.6c0.05-0.01,0.13-0.02,0.23-0.02
					c0.11,0,0.16,0.02,0.21,0.05c0.04,0.03,0.06,0.07,0.06,0.13c0,0.07-0.05,0.12-0.12,0.14v0.01c0.06,0.02,0.09,0.07,0.11,0.15
					c0.02,0.09,0.03,0.12,0.04,0.15H38.6c-0.02-0.02-0.03-0.07-0.05-0.15c-0.01-0.06-0.05-0.09-0.12-0.09h-0.07V29.37z M38.36,29.04
					h0.07c0.08,0,0.14-0.03,0.14-0.09c0-0.05-0.04-0.09-0.13-0.09c-0.04,0-0.06,0-0.08,0.01V29.04z"/>
			</g>
		</g>
	</g>
	<path class="st1" d="M48.05,26.97c-2.99,0-4.42-2.18-4.42-4.27c0-2.41,1.74-4.36,4.47-4.36c0.93,0,1.89,0.29,2.65,0.93l-0.85,1.18
		c-0.52-0.41-1.08-0.55-1.75-0.55c-1.45,0-2.53,1.01-2.53,2.75c0,1.59,1,2.85,2.58,2.85c0.68,0,1.27-0.2,1.79-0.66l0.78,1.18
		C50.03,26.67,49.01,26.97,48.05,26.97"/>
	<path class="st1" d="M55.36,26.97c-2.5,0-4.34-1.89-4.34-4.35c0-2.53,2.01-4.27,4.34-4.27c2.33,0,4.36,1.72,4.36,4.25
		C59.72,25.09,57.88,26.97,55.36,26.97 M57.71,22.62c0-1.52-0.74-2.83-2.35-2.83c-1.57,0-2.35,1.32-2.35,2.82
		c0,1.55,0.73,2.94,2.35,2.94c1.62,0,2.35-1.37,2.35-2.94V22.62z"/>
	<path class="st1" d="M64.78,26.97c-2.5,0-4.34-1.89-4.34-4.35c0-2.53,2.01-4.27,4.34-4.27c2.33,0,4.35,1.72,4.35,4.25
		C69.14,25.09,67.3,26.97,64.78,26.97 M67.13,22.62c0-1.52-0.74-2.83-2.35-2.83c-1.57,0-2.35,1.32-2.35,2.82
		c0,1.55,0.73,2.94,2.35,2.94c1.62,0,2.35-1.37,2.35-2.94V22.62z"/>
	<polygon class="st1" points="70.12,26.77 70.12,14.68 71.99,15.71 71.99,26.77 	"/>
	<path class="st1" d="M76.31,27.03c-2.11,0-3.12-1.01-3.12-1.01l0.85-1.1c0,0,0.96,0.64,2.23,0.64c0.61,0,1.12-0.42,1.12-0.84
		c0-0.42-0.19-0.78-0.74-1.06c-0.56-0.29-1.18-0.59-1.67-0.83c-0.49-0.24-1.57-0.96-1.57-2.38c0-1.43,1.45-2.23,2.94-2.23
		c1.42,0,2.5,0.93,2.5,0.93l-0.73,1.11c0,0-0.81-0.57-1.71-0.57c-0.89,0-1.08,0.57-1.08,0.81c0,0.24,0.08,0.61,0.66,0.91
		c0.57,0.3,1.16,0.63,2.01,1.1c0.84,0.47,1.32,1.28,1.32,2.19C79.3,25.61,78.42,27.03,76.31,27.03"/>
	<path class="st1" d="M84.36,26.97c-2.99,0-4.42-2.18-4.42-4.27c0-2.41,1.74-4.36,4.47-4.36c0.93,0,1.89,0.29,2.65,0.93l-0.84,1.18
		c-0.52-0.41-1.08-0.55-1.76-0.55c-1.45,0-2.53,1.01-2.53,2.75c0,1.59,1,2.85,2.58,2.85c0.68,0,1.27-0.2,1.79-0.66l0.78,1.18
		C86.34,26.67,85.33,26.97,84.36,26.97"/>
	<path class="st1" d="M93.6,25.81c0,0-0.95,1.16-2.74,1.16c-2.11,0-3.14-1.53-3.14-3.09v-5.35h1.87v5.27c0,0.91,0.71,1.67,1.81,1.67
		c0.96,0,1.91-1.15,1.91-1.15v-5.79h1.87v8.22L93.6,25.81z"/>
	<polygon class="st1" points="96.86,26.77 96.86,14.68 98.73,15.71 98.73,26.77 	"/>
	<path class="st1" d="M104.93,26.97c-1.65,0-2.6-0.93-2.6-0.93v4.1h-1.89V18.37l1.89,0.99c0,0,1.01-1.03,2.7-1.03
		c1.77,0,3.98,1.37,3.98,4.42C109.01,25.81,106.83,26.97,104.93,26.97 M104.81,19.78c-1.6,0-2.53,1.5-2.53,1.5v3.11
		c0,0,1.06,1.2,2.6,1.2c1.79,0,2.18-2.15,2.18-2.89C107.05,21.96,106.88,19.78,104.81,19.78"/>
	<path class="st1" d="M113.94,26.99h-1.18c-1.49,0-1.99-1.44-1.99-2.38v-4.85h-1.49v-1.23h1.49V14.9h1.86v3.63h1.91v1.23h-1.89v4.39
		c0,0.49-0.08,1.27,0.74,1.27h1.35L113.94,26.99z"/>
	<path class="st1" d="M116.95,17.11c-0.67,0-1.23-0.56-1.23-1.23c0-0.68,0.56-1.23,1.23-1.23c0.68,0,1.23,0.55,1.23,1.23
		C118.18,16.56,117.62,17.11,116.95,17.11 M116.02,18.53h1.84v8.24h-1.84V18.53z"/>
	<path class="st1" d="M125.29,26.77V21.5c0-0.91-0.71-1.67-1.81-1.67c-0.96,0-2.04,1.15-2.04,1.15v5.79h-1.87v-8.22l1.59,0.95
		c0,0,1.08-1.17,2.87-1.17c2.11,0,3.14,1.54,3.14,3.09v5.35H125.29z"/>
	<path class="st1" d="M132.88,30.6c-0.29,0-2.48-0.03-2.48-0.03l0.03-1.5h1.84c1.79,0,2.8-0.96,2.8-2.28v-0.74
		c0,0-0.98,0.93-2.63,0.93c-1.91,0-4.09-1.17-4.09-4.22c0-3.06,2.21-4.42,3.99-4.42c1.69,0,2.7,1.03,2.7,1.03l1.89-0.94v8.19
		C136.94,28.81,135.47,30.6,132.88,30.6 M135.1,21.29c0,0-0.93-1.5-2.53-1.5c-2.08,0-2.24,2.17-2.24,2.92
		c0,0.74,0.39,2.89,2.18,2.89c1.54,0,2.6-1.2,2.6-1.2V21.29z"/>
	<polygon class="st0" points="26.85,33.02 26.85,27.64 27.9,26.58 30.96,29.63 30.96,30.65 	"/>
	<polygon class="st1" points="24.65,23.02 21.2,26.48 25.43,28.06 30.46,23.02 	"/>
	<polygon class="st0" points="26.35,18.21 21.91,18.21 23.33,22.32 30.46,22.32 	"/>
	<polygon class="st1" points="30.96,16.01 27.53,12.58 25.92,16.79 30.96,21.82 	"/>
	<polygon class="st0" points="41.35,27.13 36.27,27.13 32.16,23.02 39.29,23.02 	"/>
	<polygon class="st1" points="37.2,17.29 41.81,18.49 37.97,22.32 32.16,22.32 	"/>
	<polygon class="st0" points="31.66,14.7 35.77,12.26 35.77,17.72 31.66,21.82 	"/>
	<polygon class="st1" points="36.9,28.76 35.58,33.25 28.41,26.08 31.31,23.17 	"/>
	<g>
		<path class="st1" d="M139.74,19.09c0,0.49-0.39,0.87-0.89,0.87c-0.5,0-0.9-0.39-0.9-0.87c0-0.49,0.4-0.87,0.9-0.87
			C139.34,18.22,139.74,18.6,139.74,19.09z M138.17,19.09c0,0.39,0.29,0.69,0.68,0.69c0.38,0.01,0.66-0.31,0.66-0.69
			c0-0.38-0.29-0.7-0.67-0.7C138.46,18.4,138.17,18.71,138.17,19.09z M138.71,19.54h-0.2v-0.87c0.08-0.01,0.19-0.03,0.33-0.03
			c0.17,0,0.24,0.03,0.3,0.07c0.05,0.04,0.09,0.1,0.09,0.19c0,0.11-0.08,0.17-0.18,0.21v0.01c0.08,0.03,0.13,0.1,0.15,0.21
			c0.03,0.13,0.05,0.18,0.06,0.21h-0.21c-0.03-0.03-0.04-0.11-0.07-0.21c-0.02-0.09-0.07-0.13-0.18-0.13h-0.1V19.54z M138.71,19.06
			h0.1c0.11,0,0.2-0.04,0.2-0.13c0-0.08-0.06-0.13-0.19-0.13c-0.05,0-0.09,0.01-0.11,0.01V19.06z"/>
	</g>
</g>
</svg>
