<svg id="Layer_1" xmlns="http://www.w3.org/2000/svg" viewBox="0 0 600 500"><style>.st0{fill:#bdd6e6}.st1{fill:#00abe6}</style><path class="st0" d="M139.26 88.17v33.77c0 5.47-2.95 8.57-8.14 8.57-5.11 0-8.06-3.1-8.06-8.57v-4.82h4.1v4.03c0 4.03 1.15 5.62 3.89 5.62s3.96-1.58 3.96-5.62v-13.68h-.14c-1.22 1.87-3.02 2.81-5.47 2.81-4.1 0-6.48-2.81-6.48-7.63V88.17c0-5.62 2.95-8.78 8.14-8.78 5.17-.01 8.2 3.16 8.2 8.78zm-12.1.57v13.46c0 2.95 1.08 4.32 3.31 4.32 2.81 0 4.54-2.3 4.54-6.19V88.74c0-4.03-1.15-5.62-3.96-5.62-2.81.01-3.89 1.59-3.89 5.62zM155.24 121.51V88.38c0-5.76 3.1-9 8.35-9 5.26 0 8.35 3.24 8.35 9v33.12c0 5.76-3.1 9-8.35 9-5.25.01-8.35-3.23-8.35-8.99zm12.39-.72V89.1c0-4.18-1.15-5.83-4.03-5.83-2.95 0-4.03 1.66-4.03 5.83v31.68c0 4.18 1.08 5.83 4.03 5.83 2.87.01 4.03-1.65 4.03-5.82zM178.06 121.79V80.1h4.32V121c0 4.03 1.01 5.62 3.89 5.62s3.89-1.58 3.89-5.62V80.1h4.18v41.69c0 5.54-3.02 8.71-8.14 8.71-5.11.01-8.14-3.16-8.14-8.71zM205.06 83.85h-6.05V80.1h16.42v3.74h-6.05v45.94h-4.32V83.85zM229.97 121.51V88.38c0-5.76 3.1-9 8.35-9 5.26 0 8.35 3.24 8.35 9v33.12c0 5.76-3.1 9-8.35 9-5.25.01-8.35-3.23-8.35-8.99zm12.39-.72V89.1c0-4.18-1.15-5.83-4.03-5.83-2.95 0-4.03 1.66-4.03 5.83v31.68c0 4.18 1.08 5.83 4.03 5.83 2.88.01 4.03-1.65 4.03-5.82zM252.94 80.1h14.26v3.74h-9.94v18.07h8.64v3.74h-8.64v24.12h-4.32V80.1zM286.64 85l-6.34 3.89v-4.03l7.92-4.9h2.66v49.83h-4.25V85zM297.15 121.72V88.17c0-5.62 2.95-8.78 8.14-8.78s8.14 3.17 8.14 8.78v33.56c0 5.62-2.95 8.78-8.14 8.78s-8.14-3.17-8.14-8.79zm12.02-.57v-32.4c0-4.03-1.08-5.62-3.89-5.62s-3.89 1.58-3.89 5.62v32.4c0 4.03 1.08 5.62 3.89 5.62 2.81-.01 3.89-1.59 3.89-5.62z"/><path class="st1" d="M329.69 80.1h8.21c5.76 0 8.5 2.95 8.5 9v7.78c0 6.05-2.74 9-8.5 9h-3.89v23.91h-4.32V80.1zm7.71 22.04c3.6 0 4.68-1.37 4.68-5.98v-6.34c0-4.61-1.08-5.98-4.68-5.98h-3.38v18.29h3.38zM354.17 80.1h5.69l6.26 49.68h-4.39l-1.44-12.31h-6.77l-1.44 12.31h-4.18l6.27-49.68zm5.69 33.63l-2.88-26.79h-.14l-2.88 26.79h5.9zM372.89 83.85h-6.05V80.1h16.42v3.74h-6.05v45.94h-4.32V83.85zM388.08 80.1h4.32v49.68h-4.32V80.1zM398.95 80.1h14.26v3.74h-9.94v17.35h8.64v3.74h-8.64v21.1h9.94v3.74h-14.26V80.1zM418.32 80.1h5.62l7.85 36.36h.14V80.1h3.89v49.68h-4.68l-8.79-40.97h-.14v40.97h-3.89V80.1zM446.69 83.85h-6.05V80.1h16.42v3.74h-6.05v45.94h-4.32V83.85zM461.09 121.65v-8.71h4.18v7.92c0 4.1 1.15 5.76 4.03 5.76 2.95 0 4.1-1.66 4.1-5.76v-7.49c0-3.38-.94-5.04-3.38-6.62l-3.82-2.45c-3.67-2.38-5.11-5.11-5.11-9.94v-6.41c0-5.47 2.95-8.57 8.06-8.57s8.07 3.1 8.07 8.57v6.41h-4.18v-5.69c0-3.89-1.08-5.4-3.82-5.4s-3.82 1.51-3.82 5.4v5.4c0 3.38.94 5.04 3.38 6.62l3.82 2.45c3.67 2.38 5.11 5.11 5.11 9.94v8.57c0 5.69-3.1 8.86-8.35 8.86s-8.27-3.17-8.27-8.86zM113.08 142.1h7.99c5.76 0 8.5 2.95 8.5 9v6.34c0 4.03-1.3 6.48-3.89 7.63v.14c2.59 1.15 3.89 3.6 3.89 7.7v18.87h-4.32V173.2c0-4.61-1.3-5.98-5.4-5.98h-2.45v24.55h-4.32V142.1zm7.49 21.39c3.6 0 4.68-1.37 4.68-5.98v-5.69c0-4.61-1.08-5.98-4.68-5.98h-3.17v17.64h3.17zM135.76 142.1h14.26v3.74h-9.94v17.35h8.64v3.74h-8.64v21.1h9.94v3.74h-14.26V142.1zM155.13 142.1h8.21c5.76 0 8.5 2.95 8.5 9v7.78c0 6.05-2.74 9-8.5 9h-3.89v23.91h-4.32V142.1zm7.71 22.04c3.6 0 4.68-1.37 4.68-5.98v-6.34c0-4.61-1.08-5.98-4.68-5.98h-3.38v18.29h3.38zM176.88 183.51v-33.12c0-5.76 3.1-9 8.35-9 5.26 0 8.35 3.24 8.35 9v33.12c0 5.76-3.1 9-8.35 9-5.26 0-8.35-3.24-8.35-9zm12.38-.72V151.1c0-4.18-1.15-5.83-4.03-5.83-2.95 0-4.03 1.66-4.03 5.83v31.68c0 4.18 1.08 5.83 4.03 5.83 2.88.01 4.03-1.65 4.03-5.82zM199.84 142.1h7.99c5.76 0 8.5 2.95 8.5 9v6.34c0 4.03-1.3 6.48-3.89 7.63v.14c2.59 1.15 3.89 3.6 3.89 7.7v18.87h-4.32V173.2c0-4.61-1.3-5.98-5.4-5.98h-2.45v24.55h-4.32V142.1zm7.49 21.39c3.6 0 4.68-1.37 4.68-5.98v-5.69c0-4.61-1.08-5.98-4.68-5.98h-3.17v17.64h3.17zM226.77 145.85h-6.05v-3.74h16.42v3.74h-6.05v45.94h-4.32v-45.94zM241.96 142.1h14.26v3.74h-9.94v17.35h8.64v3.74h-8.64v21.1h9.94v3.74h-14.26V142.1zM261.33 142.1h8.21c5.76 0 8.5 2.95 8.5 9v31.68c0 6.05-2.74 9-8.5 9h-8.21V142.1zm7.71 45.94c3.6 0 4.68-1.37 4.68-5.98v-30.24c0-4.61-1.08-5.98-4.68-5.98h-3.38v42.2h3.38zM294.23 142.1h5.62l7.85 36.36h.14V142.1h3.89v49.68h-4.68l-8.79-40.97h-.14v40.97h-3.89V142.1zM317.99 183.51v-33.12c0-5.76 3.1-9 8.35-9 5.26 0 8.35 3.24 8.35 9v33.12c0 5.76-3.1 9-8.35 9s-8.35-3.24-8.35-9zm12.39-.72V151.1c0-4.18-1.15-5.83-4.03-5.83-2.95 0-4.03 1.66-4.03 5.83v31.68c0 4.18 1.08 5.83 4.03 5.83 2.88.01 4.03-1.65 4.03-5.82zM344.71 145.85h-6.05v-3.74h16.42v3.74h-6.05v45.94h-4.32v-45.94zM359.9 142.1h4.32v49.68h-4.32V142.1zM370.48 183.94v-33.99c0-5.47 2.88-8.57 8.06-8.57 5.26 0 8.14 3.1 8.14 8.57v8.14h-4.1v-7.42c0-3.89-1.15-5.4-3.89-5.4-2.81 0-3.89 1.51-3.89 5.4v32.55c0 3.89 1.08 5.4 3.89 5.4 2.74 0 3.89-1.51 3.89-5.4v-10.01h4.1v10.73c0 5.47-2.88 8.57-8.14 8.57-5.18 0-8.06-3.1-8.06-8.57zM392.44 142.1h14.26v3.74h-9.94v17.35h8.64v3.74h-8.64v21.1h9.94v3.74h-14.26V142.1zM416.63 142.1h5.69l6.26 49.68h-4.39l-1.44-12.31h-6.77l-1.44 12.31h-4.18l6.27-49.68zm5.69 33.63l-2.88-26.79h-.14l-2.88 26.79h5.9zM433.48 142.1h7.99c5.76 0 8.5 2.95 8.5 9v5.98c0 4.03-1.22 6.48-3.74 7.63v.14c2.74 1.15 4.03 3.6 4.03 7.78v10.15c0 6.05-2.74 9-8.5 9h-8.28V142.1zm7.49 21.1c3.6 0 4.68-1.37 4.68-5.9v-5.47c0-4.61-1.08-5.98-4.68-5.98h-3.17v17.35h3.17zm.28 24.84c3.6 0 4.68-1.37 4.68-5.98v-9.15c0-4.61-1.08-5.98-4.68-5.98h-3.46v21.1h3.46zM456.16 142.1h4.32v45.94h9.22v3.74h-13.54V142.1zM474.52 142.1h14.26v3.74h-9.94v17.35h8.64v3.74h-8.64v21.1h9.94v3.74h-14.26V142.1zM168.73 204.1h14.26v3.74h-9.94v18.07h8.64v3.74h-8.64v24.12h-4.32V204.1zM190.9 204.1h5.69l6.26 49.68h-4.39l-1.44-12.31h-6.77l-1.44 12.31h-4.18l6.27-49.68zm5.69 33.63l-2.88-26.79h-.14l-2.88 26.79h5.9zM209.62 207.85h-6.05v-3.74h16.42v3.74h-6.05v45.94h-4.32v-45.94zM234.82 204.1h7.99c5.76 0 8.5 2.95 8.5 9v6.34c0 4.03-1.3 6.48-3.89 7.63v.14c2.59 1.15 3.89 3.6 3.89 7.7v18.87h-4.32V235.2c0-4.61-1.3-5.98-5.4-5.98h-2.45v24.55h-4.32V204.1zm7.49 21.39c3.6 0 4.68-1.37 4.68-5.98v-5.69c0-4.61-1.08-5.98-4.68-5.98h-3.17v17.64h3.17zM257.5 204.1h14.26v3.74h-9.94v17.35h8.64v3.74h-8.64v21.1h9.94v3.74H257.5V204.1zM276.87 204.1h8.21c5.76 0 8.5 2.95 8.5 9v31.68c0 6.05-2.74 9-8.5 9h-8.21V204.1zm7.7 45.94c3.6 0 4.68-1.37 4.68-5.98v-30.24c0-4.61-1.08-5.98-4.68-5.98h-3.38v42.2h3.38zM299.62 245.79V204.1h4.32V245c0 4.03 1.01 5.62 3.89 5.62s3.89-1.58 3.89-5.62v-40.9h4.18v41.69c0 5.54-3.02 8.71-8.14 8.71s-8.14-3.16-8.14-8.71zM322.01 245.94v-33.99c0-5.47 2.88-8.57 8.06-8.57 5.26 0 8.14 3.1 8.14 8.57v8.14h-4.1v-7.42c0-3.89-1.15-5.4-3.89-5.4-2.81 0-3.89 1.51-3.89 5.4v32.55c0 3.89 1.08 5.4 3.89 5.4 2.74 0 3.89-1.51 3.89-5.4v-10.01h4.1v10.73c0 5.47-2.88 8.57-8.14 8.57-5.18 0-8.06-3.1-8.06-8.57zM348.29 207.85h-6.05v-3.74h16.42v3.74h-6.05v45.94h-4.32v-45.94zM363.48 204.1h4.32v49.68h-4.32V204.1zM374.06 245.51v-33.12c0-5.76 3.1-9 8.35-9 5.26 0 8.35 3.24 8.35 9v33.12c0 5.76-3.1 9-8.35 9s-8.35-3.24-8.35-9zm12.39-.72V213.1c0-4.18-1.15-5.83-4.03-5.83-2.95 0-4.03 1.66-4.03 5.83v31.68c0 4.18 1.08 5.83 4.03 5.83 2.88.01 4.03-1.65 4.03-5.82zM397.03 204.1h5.62l7.85 36.36h.14V204.1h3.89v49.68h-4.68l-8.79-40.97h-.14v40.97h-3.89V204.1zM421.08 247.88h4.82v5.9h-4.82v-5.9zM427.76 207.73l-3.61 2.27-.96-1.6 3.78-2.02-3.78-1.97.96-1.6 3.61 2.27-.21-4.24h1.89l-.21 4.24 3.61-2.27.97 1.6-3.78 2.01 3.78 1.97-.97 1.6-3.61-2.27.21 4.24h-1.89l.21-4.23z"/></svg>