<svg id="Layer_1" xmlns="http://www.w3.org/2000/svg" viewBox="0 0 300 250"><style>.st0{fill:#bdd6e6}.st1{fill:#fff}</style><path class="st0" d="M74.06 142.02l.49.68-.44.32-.49-.68-.23-.43-.23.43-.49.68-.44-.32.49-.68.34-.35-.48-.09-.79-.25.16-.51.8.26.43.21-.07-.48-.01-.84h.55l-.01.84-.07.49.44-.22.8-.26.16.51-.79.25-.49.09.37.35zM79.11 141.05H77.6v3.79h-.71v-3.79h-1.51v-.61h3.73v.61zM82.68 142.68v2.16h-.71v-1.93c0-.66-.31-.88-.71-.88-.44 0-.91.29-.91 1.05v1.76h-.71V140h.71v2.03c.22-.41.61-.6 1.08-.6.7.01 1.25.41 1.25 1.25zM86.58 143.44h-2.44c.08.59.43.9.97.9.44 0 .73-.16.84-.45l.59.25c-.24.49-.7.77-1.43.77-1.05 0-1.67-.65-1.67-1.73s.59-1.73 1.63-1.73c1 0 1.55.67 1.55 1.63-.02.12-.03.27-.04.36zm-2.44-.55h1.79c-.07-.56-.38-.89-.88-.89-.52 0-.83.32-.91.89zM92.67 143.16c0 1.09-.57 1.74-1.48 1.74-.49 0-.87-.24-1.07-.61v1.94h-.72v-4.73h.63l.03.61c.19-.41.6-.68 1.13-.68.91.01 1.48.65 1.48 1.73zm-.72.01c0-.73-.35-1.16-.92-1.16-.56 0-.92.42-.92 1.12v.08c0 .69.36 1.11.92 1.11.58 0 .92-.42.92-1.15zM95.55 141.5l-.11.65a.904.904 0 0 0-.42-.09c-.4 0-.84.32-.84 1v1.77h-.71v-3.33h.61l.07.59c.18-.43.53-.66 1.05-.66.11.01.25.03.35.07zM95.97 140.5c0-.28.17-.44.48-.44s.47.16.47.44-.17.45-.47.45-.48-.17-.48-.45zm.83 4.34h-.71v-3.33h.71v3.33zM103.03 142.68v2.16h-.71v-2.05c0-.55-.29-.77-.69-.77-.47 0-.87.35-.87 1v1.81h-.71v-2.05c0-.55-.29-.77-.69-.77-.4 0-.87.29-.87 1.04v1.77h-.71v-3.33h.63l.03.55c.23-.42.65-.62 1.08-.62.47 0 .92.21 1.12.67.22-.45.71-.67 1.15-.67.65.02 1.25.41 1.24 1.26zM107.11 144.34l-.05.48c-.11.05-.25.08-.41.08-.36 0-.61-.13-.68-.5-.21.32-.63.5-1.13.5-.63 0-1.09-.29-1.09-.87 0-.51.43-.89 1.3-1.05l.85-.15v-.17c0-.4-.25-.66-.68-.66-.41 0-.72.18-.86.6l-.55-.29c.16-.53.67-.87 1.4-.87.83 0 1.41.38 1.41 1.18v1.51c0 .17.07.25.25.25.08-.01.16-.02.24-.04zm-1.21-.61v-.4l-.73.15c-.45.09-.68.24-.68.51 0 .25.19.38.5.38.45-.01.91-.24.91-.64zM109.73 141.5l-.11.65a.904.904 0 0 0-.42-.09c-.4 0-.84.32-.84 1v1.77h-.71v-3.33h.61l.07.59c.18-.43.53-.66 1.05-.66.12.01.26.03.35.07zM111.82 145.23c-.29.77-.63 1.04-1.23 1.04-.35 0-.59-.08-.79-.27l.21-.55c.15.19.34.24.55.24.25 0 .43-.09.58-.48l.15-.36-.35-.83-1.04-2.53h.8l.73 2.09.19.63.23-.69.69-2.03h.74l-1.46 3.74zM118.78 143.17c0 1.09-.62 1.73-1.66 1.73s-1.66-.65-1.66-1.73.62-1.73 1.66-1.73 1.66.64 1.66 1.73zm-2.6 0c0 .75.34 1.17.94 1.17s.95-.42.95-1.17-.35-1.17-.95-1.17-.94.42-.94 1.17zM122.83 143.18c0 1.09-.57 1.73-1.47 1.73-.53 0-.94-.27-1.13-.68l-.03.61h-.63V140h.71v2.04c.2-.37.58-.61 1.07-.61.91.01 1.48.65 1.48 1.75zm-.71-.01c0-.73-.35-1.15-.92-1.15-.56 0-.92.42-.92 1.11v.08c0 .7.36 1.12.92 1.12.57 0 .92-.43.92-1.16zM124.34 145.13c0 .85-.53 1.14-1.09 1.14-.3 0-.55-.09-.73-.22l.13-.57c.12.1.3.19.51.19.29 0 .47-.15.47-.6v-3.56h.71v3.62zm.12-4.63c0 .27-.19.45-.47.45-.29 0-.48-.18-.48-.45s.19-.44.48-.44c.28-.01.47.17.47.44zM128.27 143.44h-2.44c.08.59.43.9.97.9.44 0 .73-.16.84-.45l.59.25c-.24.49-.7.77-1.43.77-1.05 0-1.67-.65-1.67-1.73s.59-1.73 1.63-1.73c1 0 1.55.67 1.55 1.63-.01.12-.03.27-.04.36zm-2.43-.55h1.79c-.07-.56-.38-.89-.88-.89-.53 0-.84.32-.91.89zM131.97 142.37l-.67.27c-.11-.41-.37-.63-.78-.63-.59 0-.94.42-.94 1.17s.35 1.16.94 1.16c.46 0 .73-.23.82-.65l.65.22c-.19.61-.69.99-1.46.99-1.05 0-1.67-.65-1.67-1.73s.62-1.73 1.66-1.73c.81 0 1.24.38 1.45.93zM134.86 144.62c-.21.18-.53.29-.89.29-.57 0-1.01-.26-1.02-.95v-1.89h-.63v-.56h.63v-.78l.71-.2v.98h1.17v.56h-1.17v1.77c0 .33.19.47.49.47.23 0 .39-.08.54-.21l.17.52zM135.27 140.5c0-.28.17-.44.48-.44s.47.16.47.44-.17.45-.47.45-.48-.17-.48-.45zm.84 4.34h-.71v-3.33h.71v3.33zM140.03 141.5l-1.33 3.33h-.78l-1.33-3.33h.79l.94 2.75.97-2.75h.74zM143.44 143.44H141c.08.59.43.9.97.9.44 0 .73-.16.84-.45l.59.25c-.24.49-.7.77-1.43.77-1.05 0-1.67-.65-1.67-1.73s.59-1.73 1.63-1.73c1 0 1.55.67 1.55 1.63-.02.12-.03.27-.04.36zm-2.44-.55h1.79c-.07-.56-.38-.89-.88-.89-.52 0-.83.32-.91.89zM148.31 144.62c-.21.18-.53.29-.89.29-.57 0-1.01-.26-1.02-.95v-1.89h-.63v-.56h.63v-.78l.71-.2v.98h1.17v.56h-1.17v1.77c0 .33.19.47.49.47.23 0 .39-.08.54-.21l.17.52zM151.97 143.17c0 1.09-.62 1.73-1.66 1.73s-1.66-.65-1.66-1.73.62-1.73 1.66-1.73 1.66.64 1.66 1.73zm-2.6 0c0 .75.34 1.17.94 1.17s.95-.42.95-1.17-.35-1.17-.95-1.17-.94.42-.94 1.17zM157.74 143.44h-2.44c.08.59.43.9.97.9.44 0 .73-.16.84-.45l.59.25c-.24.49-.7.77-1.43.77-1.05 0-1.67-.65-1.67-1.73s.59-1.73 1.63-1.73c1 0 1.55.67 1.55 1.63-.01.12-.02.27-.04.36zm-2.43-.55h1.79c-.07-.56-.38-.89-.88-.89-.53 0-.84.32-.91.89zM161.37 141.5l-1.33 3.33h-.78l-1.33-3.33h.79l.94 2.75.97-2.75h.74zM164.89 144.34l-.05.48c-.11.05-.25.08-.41.08-.36 0-.61-.13-.68-.5-.21.32-.63.5-1.13.5-.63 0-1.09-.29-1.09-.87 0-.51.43-.89 1.3-1.05l.85-.15v-.17c0-.4-.25-.66-.68-.66-.41 0-.72.18-.86.6l-.55-.29c.16-.53.67-.87 1.4-.87.83 0 1.41.38 1.41 1.18v1.51c0 .17.07.25.25.25.08-.01.17-.02.24-.04zm-1.21-.61v-.4l-.73.15c-.45.09-.68.24-.68.51 0 .25.19.38.5.38.45-.01.91-.24.91-.64zM166.13 143.86c0 .33.08.44.35.44.17 0 .27-.02.44-.09l-.08.57c-.15.07-.36.11-.55.11-.59 0-.87-.29-.87-.94V140h.71v3.86zM170.4 141.5v3.33h-.63l-.03-.54c-.23.42-.64.61-1.18.61-.67 0-1.2-.34-1.2-1.21v-2.19h.71v2.01c0 .62.27.81.69.81.51 0 .93-.31.93-1.01v-1.8h.71zM174.5 144.34l-.05.48c-.11.05-.25.08-.41.08-.36 0-.61-.13-.68-.5-.21.32-.63.5-1.13.5-.63 0-1.09-.29-1.09-.87 0-.51.43-.89 1.3-1.05l.85-.15v-.17c0-.4-.25-.66-.68-.66-.41 0-.72.18-.86.6l-.55-.29c.16-.53.67-.87 1.4-.87.83 0 1.41.38 1.41 1.18v1.51c0 .17.07.25.25.25.08-.01.17-.02.24-.04zm-1.2-.61v-.4l-.73.15c-.45.09-.68.24-.68.51 0 .25.19.38.5.38.45-.01.91-.24.91-.64zM177.07 144.62c-.21.18-.53.29-.89.29-.57 0-1.01-.26-1.02-.95v-1.89h-.63v-.56h.63v-.78l.71-.2v.98h1.17v.56h-1.17v1.77c0 .33.19.47.49.47.23 0 .39-.08.54-.21l.17.52zM180.56 143.44h-2.44c.08.59.43.9.97.9.44 0 .73-.16.84-.45l.59.25c-.24.49-.7.77-1.43.77-1.05 0-1.67-.65-1.67-1.73s.59-1.73 1.63-1.73c1 0 1.55.67 1.55 1.63-.01.12-.03.27-.04.36zm-2.43-.55h1.79c-.07-.56-.38-.89-.88-.89-.53 0-.84.32-.91.89zM186.51 143.17c0 1.09-.62 1.73-1.66 1.73s-1.66-.65-1.66-1.73.62-1.73 1.66-1.73 1.66.64 1.66 1.73zm-2.6 0c0 .75.34 1.17.94 1.17.6 0 .95-.42.95-1.17s-.35-1.17-.95-1.17-.94.42-.94 1.17zM190.21 141.5l-1.33 3.33h-.78l-1.33-3.33h.79l.94 2.75.97-2.75h.74zM193.62 143.44h-2.44c.08.59.43.9.97.9.44 0 .73-.16.84-.45l.59.25c-.24.49-.7.77-1.43.77-1.05 0-1.67-.65-1.67-1.73s.59-1.73 1.63-1.73c1 0 1.55.67 1.55 1.63-.01.12-.03.27-.04.36zm-2.43-.55h1.79c-.07-.56-.38-.89-.88-.89-.53 0-.84.32-.91.89zM196.49 141.5l-.11.65a.904.904 0 0 0-.42-.09c-.4 0-.84.32-.84 1v1.77h-.71v-3.33h.61l.07.59c.18-.43.53-.66 1.05-.66.12.01.26.03.35.07zM200.09 144.34l-.05.48c-.11.05-.25.08-.41.08-.36 0-.61-.13-.68-.5-.21.32-.63.5-1.13.5-.63 0-1.09-.29-1.09-.87 0-.51.43-.89 1.3-1.05l.85-.15v-.17c0-.4-.25-.66-.68-.66-.41 0-.72.18-.86.6l-.55-.29c.16-.53.67-.87 1.4-.87.83 0 1.41.38 1.41 1.18v1.51c0 .17.07.25.25.25.08-.01.17-.02.24-.04zm-1.21-.61v-.4l-.73.15c-.45.09-.68.24-.68.51 0 .25.19.38.5.38.45-.01.91-.24.91-.64zM201.32 143.86c0 .33.08.44.35.44.17 0 .27-.02.44-.09l-.08.57c-.15.07-.36.11-.55.11-.59 0-.87-.29-.87-.94V140h.71v3.86zM203.27 143.86c0 .33.08.44.35.44.17 0 .27-.02.44-.09l-.08.57c-.15.07-.36.11-.55.11-.59 0-.87-.29-.87-.94V140h.71v3.86zM209.63 143.16c0 1.09-.57 1.74-1.48 1.74-.49 0-.87-.24-1.07-.61v1.94h-.71v-4.73h.63l.03.61c.19-.41.6-.68 1.13-.68.91.01 1.47.65 1.47 1.73zm-.71.01c0-.73-.35-1.16-.92-1.16-.56 0-.92.42-.92 1.12v.08c0 .69.36 1.11.92 1.11.57 0 .92-.42.92-1.15zM213.55 144.34l-.05.48c-.11.05-.25.08-.41.08-.36 0-.61-.13-.68-.5-.21.32-.63.5-1.13.5-.63 0-1.09-.29-1.09-.87 0-.51.43-.89 1.3-1.05l.85-.15v-.17c0-.4-.25-.66-.68-.66-.41 0-.72.18-.86.6l-.55-.29c.16-.53.67-.87 1.4-.87.83 0 1.41.38 1.41 1.18v1.51c0 .17.07.25.25.25.08-.01.17-.02.24-.04zm-1.21-.61v-.4l-.73.15c-.45.09-.68.24-.68.51 0 .25.19.38.5.38.45-.01.91-.24.91-.64zM216.12 144.62c-.21.18-.53.29-.89.29-.57 0-1.01-.26-1.02-.95v-1.89h-.63v-.56h.63v-.78l.71-.2v.98h1.17v.56h-1.17v1.77c0 .33.19.47.49.47.23 0 .39-.08.54-.21l.17.52zM216.53 140.5c0-.28.17-.44.48-.44.31 0 .47.16.47.44s-.17.45-.47.45c-.31-.01-.48-.17-.48-.45zm.83 4.34h-.71v-3.33h.71v3.33zM221.3 143.44h-2.44c.08.59.43.9.97.9.44 0 .73-.16.84-.45l.59.25c-.24.49-.7.77-1.43.77-1.05 0-1.67-.65-1.67-1.73s.59-1.73 1.63-1.73c1 0 1.55.67 1.55 1.63-.01.12-.03.27-.04.36zm-2.44-.55h1.79c-.07-.56-.38-.89-.88-.89-.52 0-.83.32-.91.89zM225.13 142.68v2.16h-.71v-1.93c0-.66-.31-.88-.71-.88-.44 0-.91.28-.91 1.05v1.77h-.71v-3.33h.63l.03.56c.23-.44.65-.63 1.13-.63.71-.01 1.25.39 1.25 1.23zM228.2 144.62c-.21.18-.53.29-.89.29-.57 0-1.01-.26-1.02-.95v-1.89h-.63v-.56h.63v-.78l.71-.2v.98h1.17v.56H227v1.77c0 .33.19.47.49.47.23 0 .39-.08.54-.21l.17.52zM89.99 152.41l.48-.41c.17.4.57.55 1.03.55.47 0 .71-.17.71-.4 0-.21-.19-.33-.77-.44-.99-.19-1.34-.47-1.34-1.03 0-.54.51-1.03 1.4-1.03.74 0 1.16.24 1.4.75l-.51.37c-.17-.4-.45-.57-.89-.57-.41 0-.69.2-.69.41 0 .24.19.37.82.48.95.17 1.29.46 1.29 1.01 0 .59-.53 1.01-1.45 1.01-.64 0-1.2-.21-1.48-.7zM96.79 152.55l-.05.48c-.11.05-.25.08-.41.08-.36 0-.61-.13-.68-.5-.21.32-.63.5-1.13.5-.63 0-1.09-.29-1.09-.87 0-.51.43-.89 1.3-1.05l.85-.15v-.17c0-.4-.25-.66-.68-.66-.41 0-.72.18-.86.6l-.55-.29c.16-.53.67-.87 1.4-.87.83 0 1.41.38 1.41 1.18v1.51c0 .17.07.25.25.25.08-.01.17-.02.24-.04zm-1.21-.61v-.4l-.73.15c-.45.09-.68.24-.68.51 0 .25.19.38.5.38.45-.01.91-.24.91-.64zM99.36 152.82c-.21.18-.53.29-.89.29-.57 0-1.01-.26-1.02-.95v-1.89h-.63v-.56h.63v-.78l.71-.2v.98h1.17v.56h-1.17v1.77c0 .33.19.47.49.47.23 0 .39-.08.54-.21l.17.52zM99.77 148.7c0-.28.17-.44.48-.44s.47.16.47.44-.17.45-.47.45-.48-.17-.48-.45zm.84 4.34h-.71v-3.33h.71v3.33zM101.31 152.41l.48-.41c.17.4.57.55 1.03.55.47 0 .71-.17.71-.4 0-.21-.19-.33-.77-.44-.99-.19-1.34-.47-1.34-1.03 0-.54.51-1.03 1.4-1.03.74 0 1.16.24 1.4.75l-.51.37c-.17-.4-.45-.57-.89-.57-.41 0-.69.2-.69.41 0 .24.19.37.82.48.95.17 1.29.46 1.29 1.01 0 .59-.53 1.01-1.45 1.01-.64 0-1.2-.21-1.48-.7zM105.93 149.71h1.08v.56h-1.06v2.77h-.71v-2.77h-.63v-.56h.63v-.48c0-.67.43-1.07 1.17-1.07.27 0 .5.06.63.16l-.13.52c-.1-.07-.22-.1-.38-.1-.37 0-.59.16-.59.54v.43zM110.48 152.55l-.05.48c-.11.05-.25.08-.41.08-.36 0-.61-.13-.68-.5-.21.32-.63.5-1.13.5-.63 0-1.09-.29-1.09-.87 0-.51.43-.89 1.3-1.05l.85-.15v-.17c0-.4-.25-.66-.68-.66-.41 0-.72.18-.86.6l-.55-.29c.16-.53.67-.87 1.4-.87.83 0 1.41.38 1.41 1.18v1.51c0 .17.07.25.25.25.08-.01.16-.02.24-.04zm-1.21-.61v-.4l-.73.15c-.45.09-.68.24-.68.51 0 .25.19.38.5.38.45-.01.91-.24.91-.64zM113.93 150.58l-.67.27c-.11-.41-.37-.63-.78-.63-.59 0-.94.42-.94 1.17s.35 1.16.94 1.16c.46 0 .73-.23.82-.65l.65.22c-.19.61-.69.99-1.46.99-1.05 0-1.67-.65-1.67-1.73s.62-1.73 1.66-1.73c.81-.01 1.24.38 1.45.93zM116.81 152.82c-.21.18-.53.29-.89.29-.57 0-1.01-.26-1.02-.95v-1.89h-.63v-.56h.63v-.78l.71-.2v.98h1.17v.56h-1.17v1.77c0 .33.19.47.49.47.23 0 .39-.08.54-.21l.17.52zM117.23 148.7c0-.28.17-.44.48-.44s.47.16.47.44-.17.45-.47.45-.48-.17-.48-.45zm.83 4.34h-.71v-3.33h.71v3.33zM122.17 151.38c0 1.09-.62 1.73-1.66 1.73s-1.66-.65-1.66-1.73.62-1.73 1.66-1.73c1.04-.01 1.66.64 1.66 1.73zm-2.6 0c0 .75.34 1.17.94 1.17s.95-.42.95-1.17-.35-1.17-.95-1.17-.94.41-.94 1.17zM126 150.88v2.16h-.71v-1.93c0-.66-.31-.88-.71-.88-.44 0-.91.28-.91 1.05v1.77h-.71v-3.33h.63l.03.56c.23-.44.65-.63 1.13-.63.7-.01 1.25.4 1.25 1.23zM133.9 149.71l-1.11 3.33h-.78l-.84-2.52-.8 2.52h-.78l-1.11-3.33h.77l.75 2.66.83-2.66h.71l.83 2.66.75-2.66h.78zM134.39 148.7c0-.28.17-.44.48-.44s.47.16.47.44-.17.45-.47.45-.48-.17-.48-.45zm.83 4.34h-.71v-3.33h.71v3.33zM138.36 152.82c-.21.18-.53.29-.89.29-.57 0-1.01-.26-1.02-.95v-1.89h-.63v-.56h.63v-.78l.71-.2v.98h1.17v.56h-1.17v1.77c0 .33.19.47.49.47.23 0 .39-.08.54-.21l.17.52zM141.97 150.88v2.16h-.71v-1.93c0-.66-.31-.88-.71-.88-.44 0-.91.29-.91 1.05v1.76h-.71v-4.83h.71v2.03c.22-.41.61-.6 1.08-.6.71 0 1.25.41 1.25 1.24zM146.88 153.11c-1.27 0-2.07-.87-2.07-2.27s.81-2.27 2.07-2.27c.87 0 1.49.37 1.76 1.08l-.67.3c-.17-.52-.5-.76-1.05-.76-.82 0-1.36.6-1.36 1.65 0 1.04.5 1.65 1.33 1.65.56 0 .97-.28 1.13-.84l.68.23c-.27.8-.96 1.23-1.82 1.23zM152.51 151.38c0 1.09-.62 1.73-1.66 1.73s-1.66-.65-1.66-1.73.62-1.73 1.66-1.73c1.04-.01 1.66.64 1.66 1.73zm-2.6 0c0 .75.34 1.17.94 1.17.6 0 .95-.42.95-1.17s-.35-1.17-.95-1.17c-.6-.01-.94.41-.94 1.17zM156.42 151.38c0 1.09-.62 1.73-1.66 1.73s-1.66-.65-1.66-1.73.62-1.73 1.66-1.73 1.66.64 1.66 1.73zm-2.6 0c0 .75.34 1.17.94 1.17.6 0 .95-.42.95-1.17s-.35-1.17-.95-1.17c-.6-.01-.94.41-.94 1.17zM157.89 152.07c0 .33.08.44.35.44.17 0 .27-.02.44-.09l-.08.58c-.15.07-.36.11-.55.11-.59 0-.87-.29-.87-.94v-3.96h.71v3.86zM162.51 149.47l-.54.49c-.25-.53-.59-.76-1.21-.76s-.97.28-.97.65c0 .35.27.54 1.13.69 1.18.21 1.61.57 1.61 1.28 0 .79-.71 1.29-1.75 1.29-.96 0-1.55-.35-1.89-.89l.5-.5c.29.53.73.77 1.39.77.63 0 1.01-.22 1.01-.63 0-.31-.27-.49-1.09-.65-1.21-.23-1.65-.59-1.65-1.29 0-.75.64-1.35 1.71-1.35.8.01 1.36.3 1.75.9zM166.21 150.58l-.67.27c-.11-.41-.37-.63-.78-.63-.59 0-.94.42-.94 1.17s.35 1.16.94 1.16c.46 0 .73-.23.82-.65l.65.22c-.19.61-.69.99-1.46.99-1.05 0-1.67-.65-1.67-1.73s.62-1.73 1.66-1.73c.81-.01 1.24.38 1.45.93zM169.96 149.71v3.33h-.63l-.03-.54c-.23.42-.64.61-1.18.61-.67 0-1.2-.34-1.2-1.21v-2.19h.71v2.01c0 .62.27.81.69.81.51 0 .93-.31.93-1.01v-1.8h.71zM171.63 152.07c0 .33.08.44.35.44.17 0 .27-.02.44-.09l-.08.57c-.15.07-.36.11-.55.11-.59 0-.87-.29-.87-.94v-3.96h.71v3.87zM176.15 151.37c0 1.09-.57 1.74-1.48 1.74-.49 0-.87-.24-1.07-.61v1.94h-.71v-4.73h.63l.03.61c.19-.41.6-.68 1.13-.68.9 0 1.47.64 1.47 1.73zm-.72.01c0-.73-.35-1.16-.92-1.16-.56 0-.92.42-.92 1.12v.08c0 .69.36 1.11.92 1.11.58 0 .92-.43.92-1.15zM179.06 152.82c-.21.18-.53.29-.89.29-.57 0-1.01-.26-1.02-.95v-1.89h-.63v-.56h.63v-.78l.71-.2v.98h1.17v.56h-1.17v1.77c0 .33.19.47.49.47.23 0 .39-.08.54-.21l.17.52zM179.47 148.7c0-.28.17-.44.48-.44.31 0 .47.16.47.44s-.17.45-.47.45c-.31 0-.48-.17-.48-.45zm.83 4.34h-.71v-3.33h.71v3.33zM184.33 150.88v2.16h-.71v-1.93c0-.66-.31-.88-.71-.88-.44 0-.91.28-.91 1.05v1.77h-.71v-3.33h.63l.03.56c.23-.44.65-.63 1.13-.63.71-.01 1.25.4 1.25 1.23zM188.29 153.38c0 .69-.75 1.1-1.71 1.1-1.1 0-1.59-.36-1.59-.85 0-.3.21-.54.59-.64-.26-.12-.47-.33-.47-.63 0-.35.21-.56.52-.67-.33-.19-.51-.51-.51-.91 0-.68.58-1.13 1.45-1.13.25 0 .48.04.67.11.12-.47.43-.75.98-.74l.12.55c-.43-.01-.69.11-.79.34.29.2.46.5.46.87 0 .68-.57 1.13-1.45 1.13-.21 0-.39-.02-.55-.06-.23.05-.32.17-.32.37 0 .21.16.32.41.32h1.11c.68-.02 1.08.3 1.08.84zm-.62.08c0-.21-.14-.34-.58-.34h-.9c-.41 0-.6.13-.6.35 0 .29.34.47 1.05.47.68 0 1.03-.22 1.03-.48zm-1.82-2.69c0 .38.31.63.71.63.41 0 .72-.25.72-.63 0-.37-.31-.63-.72-.63-.4 0-.71.26-.71.63zM192.58 148.44c-.84.77-1.15 1.55-1.15 2.75s.31 1.98 1.15 2.75l-.37.37c-.97-.78-1.47-1.83-1.47-3.12s.5-2.35 1.47-3.13l.37.38zM196.01 150.88v2.16h-.71v-1.93c0-.66-.31-.88-.71-.88-.44 0-.91.28-.91 1.05v1.77h-.71v-3.33h.63l.03.56c.23-.44.65-.63 1.13-.63.7-.01 1.25.4 1.25 1.23zM200.01 150.6h-3.17v-.59h3.17v.59zm0 1.37h-3.17v-.59h3.17v.59zM202.46 148.64v4.4h-.7v-3.25c0-.11.01-.23.01-.35-.31.29-.71.52-1.11.61l-.13-.62c.35-.05 1.1-.45 1.33-.78h.6zM203.36 150.84c0-1.48.58-2.27 1.69-2.27s1.7.79 1.7 2.27-.59 2.27-1.7 2.27-1.69-.79-1.69-2.27zm2.66 0c0-1.11-.33-1.66-.97-1.66-.64 0-.97.55-.97 1.66 0 1.11.33 1.66.97 1.66.64 0 .97-.55.97-1.66zM210.67 149.52l-.63.3c-.12-.39-.38-.62-.85-.62-.65 0-1.09.72-1.09 1.69v.12h.03c.15-.51.67-.74 1.16-.74.87 0 1.47.55 1.47 1.41 0 .88-.6 1.43-1.57 1.43-1.13 0-1.74-.9-1.74-2.27 0-1.5.77-2.27 1.78-2.27.7.01 1.18.27 1.44.95zm-2.35 2.15c0 .5.34.83.86.83.55 0 .86-.31.86-.83 0-.5-.31-.81-.86-.81-.52 0-.86.33-.86.81zM212.85 151.19c0 1.29-.5 2.34-1.47 3.12l-.37-.37c.84-.77 1.15-1.54 1.15-2.75s-.31-1.99-1.15-2.75l.37-.37c.97.77 1.47 1.83 1.47 3.12z"/><path class="st1" d="M214.55 152.62c0 .29-.19.49-.5.49s-.51-.19-.51-.49c0-.29.2-.48.51-.48s.5.19.5.48z"/></svg>