<svg id="Layer_1" xmlns="http://www.w3.org/2000/svg" viewBox="0 0 600 500"><style>.st0{fill:#bdd6e6}.st1{fill:#fff}</style><path class="st0" d="M140.82 290.94l1.04 1.43-.92.67-1.04-1.43-.48-.91-.48.91-1.02 1.43-.92-.67 1.04-1.43.71-.73-1.01-.18-1.67-.53.34-1.08 1.68.55.91.45-.14-1.01-.01-1.76h1.16l-.01 1.76-.15 1.02.92-.46 1.68-.55.34 1.08-1.67.53-1.02.18.72.73zM151.44 288.91h-3.17v7.96h-1.5v-7.96h-3.17v-1.29h7.83v1.29zM158.91 292.33v4.54h-1.5v-4.06c0-1.39-.64-1.85-1.5-1.85-.92 0-1.9.6-1.9 2.21v3.7h-1.5v-10.16h1.5v4.27c.46-.87 1.29-1.26 2.27-1.26 1.49 0 2.63.86 2.63 2.61zM167.1 293.93h-5.13c.17 1.23.9 1.89 2.03 1.89.92 0 1.54-.34 1.76-.95l1.25.52c-.5 1.04-1.47 1.62-3.01 1.62-2.21 0-3.52-1.36-3.52-3.64s1.23-3.64 3.42-3.64c2.1 0 3.25 1.4 3.25 3.43.01.26-.02.58-.05.77zm-5.11-1.15h3.77c-.14-1.18-.8-1.86-1.85-1.86-1.11 0-1.76.65-1.92 1.86zM179.89 293.35c0 2.3-1.2 3.66-3.11 3.66-1.04 0-1.83-.5-2.25-1.27v4.08h-1.5v-9.95h1.32l.07 1.29c.41-.85 1.26-1.43 2.38-1.43 1.89-.01 3.09 1.34 3.09 3.62zm-1.5.02c0-1.53-.73-2.44-1.93-2.44-1.18 0-1.93.88-1.93 2.35v.17c0 1.46.76 2.34 1.93 2.34 1.2 0 1.93-.9 1.93-2.42zM185.93 289.86l-.24 1.37c-.2-.11-.5-.18-.88-.18-.84 0-1.76.67-1.76 2.1v3.71h-1.5v-7h1.27l.14 1.25c.38-.91 1.12-1.39 2.2-1.39.28 0 .58.05.77.14zM186.81 287.75c0-.59.36-.92 1.01-.92.64 0 .99.34.99.92 0 .59-.35.94-.99.94s-1.01-.35-1.01-.94zm1.75 9.12h-1.5v-7h1.5v7zM201.64 292.33v4.54h-1.5v-4.3c0-1.15-.62-1.61-1.44-1.61-.98 0-1.82.74-1.82 2.1v3.81h-1.5v-4.3c0-1.15-.62-1.61-1.44-1.61-.84 0-1.82.62-1.82 2.19v3.73h-1.5v-7h1.33l.07 1.16c.49-.88 1.36-1.3 2.27-1.3.99 0 1.93.45 2.35 1.4.46-.95 1.48-1.4 2.42-1.4 1.35-.02 2.6.81 2.58 2.59zM210.19 295.83l-.1 1.01c-.22.1-.52.17-.87.17-.76 0-1.27-.28-1.43-1.05-.43.67-1.33 1.05-2.37 1.05-1.32 0-2.28-.62-2.28-1.83 0-1.08.9-1.88 2.73-2.2l1.78-.32v-.36c0-.84-.52-1.39-1.43-1.39-.87 0-1.51.38-1.81 1.26l-1.16-.62c.34-1.11 1.42-1.82 2.94-1.82 1.75 0 2.96.8 2.96 2.48v3.17c0 .35.14.52.52.52.19-.01.37-.03.52-.07zm-2.53-1.29v-.84l-1.53.31c-.95.18-1.43.5-1.43 1.06 0 .52.39.8 1.05.8.94 0 1.91-.49 1.91-1.33zM215.71 289.86l-.24 1.37c-.2-.11-.5-.18-.88-.18-.84 0-1.76.67-1.76 2.1v3.71h-1.5v-7h1.27l.14 1.25c.38-.91 1.12-1.39 2.2-1.39.28 0 .57.05.77.14zM220.08 297.69c-.62 1.62-1.33 2.19-2.59 2.19-.73 0-1.23-.17-1.65-.56l.43-1.15c.32.39.71.5 1.15.5.52 0 .91-.2 1.22-1.01l.31-.76-.73-1.74-2.19-5.31h1.68l1.54 4.4.41 1.32.48-1.44 1.46-4.27h1.55l-3.07 7.83zM234.71 293.37c0 2.28-1.3 3.64-3.49 3.64-2.19 0-3.49-1.36-3.49-3.64s1.3-3.64 3.49-3.64c2.19-.01 3.49 1.35 3.49 3.64zm-5.46 0c0 1.58.71 2.47 1.98 2.47s1.99-.88 1.99-2.47-.73-2.46-1.99-2.46-1.98.87-1.98 2.46zM243.21 293.38c0 2.28-1.19 3.63-3.1 3.63-1.12 0-1.98-.57-2.38-1.43l-.07 1.29h-1.32v-10.16h1.5V291c.42-.77 1.22-1.27 2.25-1.27 1.91-.01 3.12 1.35 3.12 3.65zm-1.5-.01c0-1.53-.73-2.42-1.93-2.42-1.18 0-1.93.88-1.93 2.34v.17c0 1.47.76 2.35 1.93 2.35 1.2-.01 1.93-.92 1.93-2.44zM246.37 297.48c0 1.79-1.12 2.4-2.3 2.4-.63 0-1.16-.18-1.54-.46l.27-1.21c.25.21.63.39 1.08.39.6 0 .99-.32.99-1.26v-7.48h1.5v7.62zm.25-9.73c0 .56-.39.94-.99.94-.62 0-1.01-.38-1.01-.94s.39-.92 1.01-.92c.6 0 .99.36.99.92zM254.62 293.93h-5.13c.17 1.23.9 1.89 2.03 1.89.92 0 1.54-.34 1.76-.95l1.25.52c-.5 1.04-1.47 1.62-3.01 1.62-2.21 0-3.52-1.36-3.52-3.64s1.23-3.64 3.42-3.64c2.1 0 3.25 1.4 3.25 3.43 0 .26-.02.58-.05.77zm-5.12-1.15h3.77c-.14-1.18-.8-1.86-1.85-1.86-1.1 0-1.76.65-1.92 1.86zM262.39 291.69l-1.4.56c-.24-.87-.77-1.33-1.64-1.33-1.25 0-1.98.88-1.98 2.46s.74 2.44 1.98 2.44c.97 0 1.54-.49 1.72-1.36l1.37.46c-.39 1.27-1.44 2.09-3.07 2.09-2.21 0-3.52-1.36-3.52-3.64s1.3-3.64 3.49-3.64c1.7-.01 2.61.81 3.05 1.96zM268.45 296.41c-.45.38-1.11.6-1.86.6-1.2 0-2.13-.55-2.14-1.99v-3.98h-1.33v-1.18h1.33v-1.64l1.5-.42v2.06h2.45v1.18h-2.45v3.73c0 .69.41 1 1.02 1 .48 0 .83-.17 1.13-.45l.35 1.09zM269.31 287.75c0-.59.36-.92 1.01-.92.64 0 .99.34.99.92 0 .59-.35.94-.99.94s-1.01-.35-1.01-.94zm1.75 9.12h-1.5v-7h1.5v7zM279.3 289.86l-2.79 7h-1.64l-2.8-7h1.65l1.98 5.79 2.03-5.79h1.57zM286.45 293.93h-5.13c.17 1.23.9 1.89 2.03 1.89.92 0 1.54-.34 1.76-.95l1.25.52c-.5 1.04-1.47 1.62-3.01 1.62-2.21 0-3.52-1.36-3.52-3.64s1.23-3.64 3.42-3.64c2.1 0 3.25 1.4 3.25 3.43.01.26-.02.58-.05.77zm-5.11-1.15h3.77c-.14-1.18-.8-1.86-1.85-1.86-1.11 0-1.77.65-1.92 1.86zM296.69 296.41c-.45.38-1.11.6-1.86.6-1.2 0-2.13-.55-2.14-1.99v-3.98h-1.33v-1.18h1.33v-1.64l1.5-.42v2.06h2.45v1.18h-2.45v3.73c0 .69.41 1 1.02 1 .48 0 .83-.17 1.13-.45l.35 1.09zM304.37 293.37c0 2.28-1.3 3.64-3.49 3.64-2.19 0-3.49-1.36-3.49-3.64s1.3-3.64 3.49-3.64c2.19-.01 3.49 1.35 3.49 3.64zm-5.46 0c0 1.58.71 2.47 1.98 2.47s1.99-.88 1.99-2.47-.73-2.46-1.99-2.46-1.98.87-1.98 2.46zM316.48 293.93h-5.13c.17 1.23.9 1.89 2.03 1.89.92 0 1.54-.34 1.76-.95l1.25.52c-.5 1.04-1.47 1.62-3.01 1.62-2.21 0-3.52-1.36-3.52-3.64s1.23-3.64 3.42-3.64c2.1 0 3.25 1.4 3.25 3.43.01.26-.02.58-.05.77zm-5.11-1.15h3.77c-.14-1.18-.8-1.86-1.85-1.86-1.11 0-1.77.65-1.92 1.86zM324.1 289.86l-2.79 7h-1.64l-2.8-7h1.65l1.98 5.79 2.03-5.79h1.57zM331.49 295.83l-.1 1.01c-.22.1-.52.17-.87.17-.76 0-1.27-.28-1.43-1.05-.43.67-1.33 1.05-2.37 1.05-1.32 0-2.28-.62-2.28-1.83 0-1.08.9-1.88 2.73-2.2l1.78-.32v-.36c0-.84-.52-1.39-1.43-1.39-.87 0-1.51.38-1.81 1.26l-1.16-.62c.34-1.11 1.42-1.82 2.94-1.82 1.75 0 2.96.8 2.96 2.48v3.17c0 .35.14.52.52.52.18-.01.37-.03.52-.07zm-2.53-1.29v-.84l-1.53.31c-.95.18-1.43.5-1.43 1.06 0 .52.39.8 1.05.8.94 0 1.91-.49 1.91-1.33zM334.08 294.82c0 .69.17.92.73.92.35 0 .56-.04.92-.18l-.17 1.21c-.31.15-.76.24-1.16.24-1.25 0-1.82-.62-1.82-1.97v-8.32h1.5v8.1zM343.05 289.86v7h-1.33l-.07-1.13c-.48.88-1.34 1.27-2.48 1.27-1.4 0-2.52-.71-2.52-2.54v-4.61h1.5v4.22c0 1.3.56 1.69 1.44 1.69 1.06 0 1.96-.64 1.96-2.13v-3.78h1.5zM351.66 295.83l-.1 1.01c-.22.1-.52.17-.87.17-.76 0-1.27-.28-1.43-1.05-.43.67-1.33 1.05-2.37 1.05-1.32 0-2.28-.62-2.28-1.83 0-1.08.9-1.88 2.73-2.2l1.78-.32v-.36c0-.84-.52-1.39-1.43-1.39-.87 0-1.51.38-1.81 1.26l-1.16-.62c.34-1.11 1.42-1.82 2.94-1.82 1.75 0 2.96.8 2.96 2.48v3.17c0 .35.14.52.52.52.19-.01.37-.03.52-.07zm-2.53-1.29v-.84l-1.53.31c-.95.18-1.43.5-1.43 1.06 0 .52.39.8 1.05.8.94 0 1.91-.49 1.91-1.33zM357.05 296.41c-.45.38-1.11.6-1.86.6-1.2 0-2.13-.55-2.14-1.99v-3.98h-1.33v-1.18h1.33v-1.64l1.5-.42v2.06H357v1.18h-2.45v3.73c0 .69.41 1 1.02 1 .48 0 .83-.17 1.13-.45l.35 1.09zM364.38 293.93h-5.13c.17 1.23.9 1.89 2.03 1.89.92 0 1.54-.34 1.76-.95l1.25.52c-.5 1.04-1.47 1.62-3.01 1.62-2.21 0-3.52-1.36-3.52-3.64s1.23-3.64 3.42-3.64c2.1 0 3.25 1.4 3.25 3.43 0 .26-.03.58-.05.77zm-5.12-1.15h3.77c-.14-1.18-.8-1.86-1.85-1.86-1.1 0-1.76.65-1.92 1.86zM376.86 293.37c0 2.28-1.3 3.64-3.49 3.64s-3.49-1.36-3.49-3.64 1.3-3.64 3.49-3.64 3.49 1.35 3.49 3.64zm-5.46 0c0 1.58.71 2.47 1.98 2.47s1.99-.88 1.99-2.47-.73-2.46-1.99-2.46-1.98.87-1.98 2.46zM384.63 289.86l-2.79 7h-1.64l-2.8-7h1.65l1.98 5.79 2.03-5.79h1.57zM391.79 293.93h-5.13c.17 1.23.9 1.89 2.03 1.89.92 0 1.54-.34 1.76-.95l1.25.52c-.5 1.04-1.47 1.62-3.01 1.62-2.21 0-3.52-1.36-3.52-3.64s1.23-3.64 3.42-3.64c2.1 0 3.25 1.4 3.25 3.43 0 .26-.02.58-.05.77zm-5.12-1.15h3.77c-.14-1.18-.8-1.86-1.85-1.86-1.1 0-1.76.65-1.92 1.86zM397.82 289.86l-.24 1.37c-.2-.11-.5-.18-.88-.18-.84 0-1.76.67-1.76 2.1v3.71h-1.5v-7h1.28l.14 1.25c.38-.91 1.12-1.39 2.2-1.39.27 0 .56.05.76.14zM405.37 295.83l-.1 1.01c-.22.1-.52.17-.87.17-.76 0-1.27-.28-1.43-1.05-.43.67-1.33 1.05-2.37 1.05-1.32 0-2.28-.62-2.28-1.83 0-1.08.9-1.88 2.73-2.2l1.78-.32v-.36c0-.84-.52-1.39-1.43-1.39-.87 0-1.51.38-1.81 1.26l-1.16-.62c.34-1.11 1.42-1.82 2.94-1.82 1.75 0 2.96.8 2.96 2.48v3.17c0 .35.14.52.52.52.18-.01.36-.03.52-.07zm-2.54-1.29v-.84l-1.53.31c-.95.18-1.43.5-1.43 1.06 0 .52.39.8 1.05.8.95 0 1.91-.49 1.91-1.33zM407.95 294.82c0 .69.17.92.73.92.35 0 .56-.04.92-.18l-.17 1.21c-.31.15-.76.24-1.16.24-1.25 0-1.82-.62-1.82-1.97v-8.32h1.5v8.1zM412.04 294.82c0 .69.17.92.73.92.35 0 .56-.04.92-.18l-.17 1.21c-.31.15-.76.24-1.16.24-1.25 0-1.82-.62-1.82-1.97v-8.32h1.5v8.1zM425.4 293.35c0 2.3-1.21 3.66-3.11 3.66-1.04 0-1.83-.5-2.26-1.27v4.08h-1.5v-9.95h1.32l.07 1.29c.41-.85 1.26-1.43 2.38-1.43 1.91-.01 3.1 1.34 3.1 3.62zm-1.5.02c0-1.53-.73-2.44-1.93-2.44-1.18 0-1.93.88-1.93 2.35v.17c0 1.46.76 2.34 1.93 2.34 1.2 0 1.93-.9 1.93-2.42zM433.62 295.83l-.1 1.01c-.22.1-.52.17-.87.17-.76 0-1.27-.28-1.43-1.05-.43.67-1.33 1.05-2.37 1.05-1.32 0-2.28-.62-2.28-1.83 0-1.08.9-1.88 2.73-2.2l1.78-.32v-.36c0-.84-.52-1.39-1.43-1.39-.87 0-1.51.38-1.81 1.26l-1.16-.62c.34-1.11 1.41-1.82 2.94-1.82 1.75 0 2.96.8 2.96 2.48v3.17c0 .35.14.52.52.52.18-.01.36-.03.52-.07zm-2.54-1.29v-.84l-1.53.31c-.95.18-1.43.5-1.43 1.06 0 .52.39.8 1.05.8.95 0 1.91-.49 1.91-1.33zM439.01 296.41c-.45.38-1.11.6-1.86.6-1.2 0-2.13-.55-2.14-1.99v-3.98h-1.33v-1.18H435v-1.64l1.5-.42v2.06h2.45v1.18h-2.45v3.73c0 .69.41 1 1.02 1 .48 0 .83-.17 1.13-.45l.36 1.09zM439.87 287.75c0-.59.36-.92 1.01-.92s.99.34.99.92c0 .59-.35.94-.99.94s-1.01-.35-1.01-.94zm1.75 9.12h-1.5v-7h1.5v7zM449.89 293.93h-5.13c.17 1.23.9 1.89 2.03 1.89.92 0 1.54-.34 1.76-.95l1.25.52c-.5 1.04-1.47 1.62-3.01 1.62-2.21 0-3.52-1.36-3.52-3.64s1.23-3.64 3.42-3.64c2.1 0 3.25 1.4 3.25 3.43 0 .26-.02.58-.05.77zm-5.12-1.15h3.77c-.14-1.18-.8-1.86-1.85-1.86-1.1 0-1.76.65-1.92 1.86zM457.94 292.33v4.54h-1.5v-4.06c0-1.39-.64-1.85-1.5-1.85-.92 0-1.91.59-1.91 2.2v3.71h-1.5v-7h1.33l.07 1.18c.48-.92 1.36-1.32 2.37-1.32 1.49-.01 2.64.85 2.64 2.6zM464.38 296.41c-.45.38-1.11.6-1.86.6-1.2 0-2.13-.55-2.14-1.99v-3.98h-1.33v-1.18h1.33v-1.64l1.5-.42v2.06h2.45v1.18h-2.45v3.73c0 .69.41 1 1.02 1 .48 0 .83-.17 1.13-.45l.35 1.09zM163.44 311.54l1.01-.87c.36.84 1.19 1.16 2.17 1.16.99 0 1.5-.36 1.5-.84 0-.43-.41-.69-1.62-.92-2.09-.39-2.82-.99-2.82-2.17 0-1.13 1.06-2.17 2.94-2.17 1.56 0 2.44.5 2.94 1.58l-1.06.78c-.35-.84-.95-1.19-1.86-1.19-.87 0-1.46.42-1.46.85 0 .5.41.77 1.72 1.01 2 .36 2.72.97 2.72 2.13 0 1.23-1.12 2.11-3.05 2.11-1.36.01-2.54-.44-3.13-1.46zM177.73 311.83l-.1 1.01c-.22.1-.52.17-.87.17-.76 0-1.27-.28-1.43-1.05-.43.67-1.33 1.05-2.37 1.05-1.32 0-2.28-.62-2.28-1.83 0-1.08.9-1.88 2.73-2.2l1.78-.32v-.36c0-.84-.52-1.39-1.43-1.39-.87 0-1.51.38-1.81 1.26l-1.16-.62c.34-1.11 1.42-1.82 2.94-1.82 1.75 0 2.96.8 2.96 2.48v3.17c0 .35.14.52.52.52.18-.01.36-.03.52-.07zm-2.54-1.29v-.84l-1.53.31c-.95.18-1.43.5-1.43 1.06 0 .52.39.8 1.05.8.94 0 1.91-.49 1.91-1.33zM183.11 312.41c-.45.38-1.11.6-1.86.6-1.2 0-2.13-.55-2.14-1.99v-3.98h-1.33v-1.18h1.33v-1.64l1.5-.42v2.06h2.45v1.18h-2.45v3.73c0 .69.41 1 1.02 1 .48 0 .83-.17 1.13-.45l.35 1.09zM183.98 303.75c0-.59.36-.92 1.01-.92.64 0 .99.34.99.92 0 .59-.35.94-.99.94-.65 0-1.01-.35-1.01-.94zm1.75 9.12h-1.5v-7h1.5v7zM187.2 311.54l1.01-.87c.36.84 1.19 1.16 2.17 1.16.99 0 1.5-.36 1.5-.84 0-.43-.41-.69-1.62-.92-2.09-.39-2.82-.99-2.82-2.17 0-1.13 1.06-2.17 2.94-2.17 1.56 0 2.44.5 2.94 1.58l-1.06.78c-.35-.84-.95-1.19-1.86-1.19-.87 0-1.46.42-1.46.85 0 .5.41.77 1.72 1.01 2 .36 2.72.97 2.72 2.13 0 1.23-1.12 2.11-3.05 2.11-1.37.01-2.54-.44-3.13-1.46zM196.9 305.86h2.27v1.18h-2.23v5.83h-1.5v-5.83h-1.32v-1.18h1.32v-1.01c0-1.41.9-2.24 2.45-2.24.56 0 1.05.13 1.32.34l-.28 1.09c-.21-.14-.46-.21-.8-.21-.78 0-1.23.34-1.23 1.13v.9zM206.45 311.83l-.1 1.01c-.22.1-.52.17-.87.17-.76 0-1.27-.28-1.43-1.05-.43.67-1.33 1.05-2.37 1.05-1.32 0-2.28-.62-2.28-1.83 0-1.08.9-1.88 2.73-2.2l1.78-.32v-.36c0-.84-.52-1.39-1.43-1.39-.87 0-1.51.38-1.81 1.26l-1.16-.62c.34-1.11 1.42-1.82 2.94-1.82 1.75 0 2.96.8 2.96 2.48v3.17c0 .35.14.52.52.52.19-.01.37-.03.52-.07zm-2.53-1.29v-.84l-1.53.31c-.95.18-1.43.5-1.43 1.06 0 .52.39.8 1.05.8.94 0 1.91-.49 1.91-1.33zM213.69 307.69l-1.4.56c-.24-.87-.77-1.33-1.64-1.33-1.25 0-1.98.88-1.98 2.46s.74 2.44 1.98 2.44c.97 0 1.54-.49 1.72-1.36l1.37.46c-.39 1.27-1.44 2.09-3.07 2.09-2.21 0-3.52-1.36-3.52-3.64s1.3-3.64 3.49-3.64c1.71-.01 2.62.81 3.05 1.96zM219.75 312.41c-.45.38-1.11.6-1.86.6-1.2 0-2.13-.55-2.14-1.99v-3.98h-1.33v-1.18h1.33v-1.64l1.5-.42v2.06h2.45v1.18h-2.45v3.73c0 .69.41 1 1.02 1 .48 0 .83-.17 1.13-.45l.35 1.09zM220.62 303.75c0-.59.36-.92 1.01-.92.64 0 .99.34.99.92 0 .59-.35.94-.99.94-.65 0-1.01-.35-1.01-.94zm1.75 9.12h-1.5v-7h1.5v7zM231 309.37c0 2.28-1.3 3.64-3.49 3.64-2.19 0-3.49-1.36-3.49-3.64s1.3-3.64 3.49-3.64c2.18-.01 3.49 1.35 3.49 3.64zm-5.47 0c0 1.58.71 2.47 1.98 2.47s1.99-.88 1.99-2.47-.73-2.46-1.99-2.46-1.98.87-1.98 2.46zM239.03 308.33v4.54h-1.5v-4.06c0-1.39-.64-1.85-1.5-1.85-.92 0-1.9.59-1.9 2.2v3.71h-1.5v-7h1.33l.07 1.18c.48-.92 1.36-1.32 2.37-1.32 1.48-.01 2.63.85 2.63 2.6zM251.85 309.37c0 2.28-1.3 3.64-3.49 3.64-2.19 0-3.49-1.36-3.49-3.64s1.3-3.64 3.49-3.64c2.19-.01 3.49 1.35 3.49 3.64zm-5.46 0c0 1.58.71 2.47 1.98 2.47s1.99-.88 1.99-2.47-.73-2.46-1.99-2.46-1.98.87-1.98 2.46zM255.38 305.86h2.27v1.18h-2.23v5.83h-1.5v-5.83h-1.32v-1.18h1.32v-1.01c0-1.41.9-2.24 2.45-2.24.56 0 1.05.13 1.32.34l-.28 1.09c-.21-.14-.46-.21-.8-.21-.78 0-1.23.34-1.23 1.13v.9zM268.36 305.86l-2.79 7h-1.64l-2.8-7h1.65l1.98 5.79 2.03-5.79h1.57zM269.1 303.75c0-.59.36-.92 1.01-.92.64 0 .99.34.99.92 0 .59-.35.94-.99.94-.65 0-1.01-.35-1.01-.94zm1.75 9.12h-1.5v-7h1.5v7zM272.32 311.54l1.01-.87c.36.84 1.19 1.16 2.17 1.16.99 0 1.5-.36 1.5-.84 0-.43-.41-.69-1.62-.92-2.09-.39-2.82-.99-2.82-2.17 0-1.13 1.06-2.17 2.94-2.17 1.56 0 2.44.5 2.94 1.58l-1.06.78c-.35-.84-.95-1.19-1.86-1.19-.87 0-1.46.42-1.46.85 0 .5.41.77 1.72 1.01 2 .36 2.72.97 2.72 2.13 0 1.23-1.12 2.11-3.05 2.11-1.37.01-2.54-.44-3.13-1.46zM279.78 303.75c0-.59.36-.92 1.01-.92.64 0 .99.34.99.92 0 .59-.35.94-.99.94s-1.01-.35-1.01-.94zm1.75 9.12h-1.5v-7h1.5v7zM290.45 309.38c0 2.28-1.19 3.63-3.1 3.63-1.12 0-1.98-.57-2.38-1.43l-.07 1.29h-1.32v-10.16h1.5V307c.42-.77 1.22-1.27 2.25-1.27 1.92-.01 3.12 1.35 3.12 3.65zm-1.5-.01c0-1.53-.73-2.42-1.93-2.42-1.18 0-1.93.88-1.93 2.34v.17c0 1.47.76 2.35 1.93 2.35 1.21-.01 1.93-.92 1.93-2.44zM293.57 310.82c0 .69.17.92.73.92.35 0 .56-.04.92-.18l-.17 1.21c-.31.15-.76.24-1.16.24-1.25 0-1.82-.62-1.82-1.97v-8.32h1.5v8.1zM302.41 309.93h-5.13c.17 1.23.9 1.89 2.03 1.89.92 0 1.54-.34 1.77-.95l1.25.52c-.5 1.04-1.47 1.62-3.01 1.62-2.21 0-3.52-1.36-3.52-3.64s1.23-3.64 3.42-3.64c2.1 0 3.25 1.4 3.25 3.43-.01.26-.03.58-.06.77zm-5.11-1.15h3.77c-.14-1.18-.8-1.86-1.85-1.86-1.11 0-1.77.65-1.92 1.86zM310.09 305.86h2.27v1.18h-2.23v5.83h-1.5v-5.83h-1.32v-1.18h1.32v-1.01c0-1.41.9-2.24 2.45-2.24.56 0 1.05.13 1.32.34l-.28 1.09c-.21-.14-.46-.21-.8-.21-.78 0-1.23.34-1.23 1.13v.9zM319.64 311.83l-.1 1.01c-.22.1-.52.17-.87.17-.76 0-1.27-.28-1.43-1.05-.43.67-1.33 1.05-2.37 1.05-1.32 0-2.28-.62-2.28-1.83 0-1.08.9-1.88 2.73-2.2l1.78-.32v-.36c0-.84-.52-1.39-1.43-1.39-.87 0-1.51.38-1.81 1.26l-1.16-.62c.34-1.11 1.42-1.82 2.94-1.82 1.75 0 2.96.8 2.96 2.48v3.17c0 .35.14.52.52.52.19-.01.37-.03.52-.07zm-2.53-1.29v-.84l-1.53.31c-.95.18-1.43.5-1.43 1.06 0 .52.39.8 1.05.8.94 0 1.91-.49 1.91-1.33zM325.03 312.41c-.45.38-1.11.6-1.86.6-1.2 0-2.13-.55-2.14-1.99v-3.98h-1.33v-1.18h1.33v-1.64l1.5-.42v2.06h2.45v1.18h-2.45v3.73c0 .69.41 1 1.02 1 .48 0 .83-.17 1.13-.45l.35 1.09zM334.8 305.86l-.24 1.37c-.2-.11-.5-.18-.88-.18-.84 0-1.76.67-1.76 2.1v3.71h-1.5v-7h1.27l.14 1.25c.38-.91 1.12-1.39 2.2-1.39.28 0 .58.05.77.14zM341.96 309.93h-5.13c.17 1.23.9 1.89 2.03 1.89.92 0 1.54-.34 1.76-.95l1.25.52c-.5 1.04-1.47 1.62-3.01 1.62-2.21 0-3.52-1.36-3.52-3.64s1.23-3.64 3.42-3.64c2.1 0 3.25 1.4 3.25 3.43 0 .26-.02.58-.05.77zm-5.11-1.15h3.77c-.14-1.18-.8-1.86-1.85-1.86-1.11 0-1.77.65-1.92 1.86zM350.09 302.71v10.16h-1.32l-.08-1.26c-.41.83-1.26 1.4-2.37 1.4-1.9 0-3.09-1.34-3.09-3.63 0-2.3 1.2-3.66 3.11-3.66 1.04 0 1.83.5 2.25 1.27v-4.29h1.5zm-1.5 6.74v-.17c0-1.46-.76-2.34-1.93-2.34-1.21 0-1.93.9-1.93 2.42 0 1.53.73 2.44 1.93 2.44 1.18 0 1.93-.88 1.93-2.35zM358.48 305.86v7h-1.33l-.07-1.13c-.48.88-1.34 1.27-2.48 1.27-1.4 0-2.52-.71-2.52-2.54v-4.61h1.5v4.22c0 1.3.56 1.69 1.44 1.69 1.06 0 1.96-.64 1.96-2.13v-3.78h1.5zM366.64 307.69l-1.4.56c-.24-.87-.77-1.33-1.64-1.33-1.25 0-1.97.88-1.97 2.46s.74 2.44 1.97 2.44c.97 0 1.54-.49 1.72-1.36l1.37.46c-.39 1.27-1.44 2.09-3.07 2.09-2.21 0-3.52-1.36-3.52-3.64s1.3-3.64 3.49-3.64c1.71-.01 2.62.81 3.05 1.96zM372.7 312.41c-.45.38-1.11.6-1.86.6-1.2 0-2.13-.55-2.14-1.99v-3.98h-1.33v-1.18h1.33v-1.64l1.5-.42v2.06h2.45v1.18h-2.45v3.73c0 .69.41 1 1.02 1 .48 0 .83-.17 1.13-.45l.35 1.09zM373.57 303.75c0-.59.36-.92 1.01-.92.64 0 1 .34 1 .92 0 .59-.35.94-1 .94s-1.01-.35-1.01-.94zm1.75 9.12h-1.5v-7h1.5v7zM383.95 309.37c0 2.28-1.3 3.64-3.49 3.64s-3.49-1.36-3.49-3.64 1.3-3.64 3.49-3.64 3.49 1.35 3.49 3.64zm-5.47 0c0 1.58.71 2.47 1.98 2.47s1.99-.88 1.99-2.47-.73-2.46-1.99-2.46-1.98.87-1.98 2.46zM391.98 308.33v4.54h-1.5v-4.06c0-1.39-.64-1.85-1.5-1.85-.92 0-1.9.59-1.9 2.2v3.71h-1.5v-7h1.33l.07 1.18c.48-.92 1.36-1.32 2.37-1.32 1.48-.01 2.63.85 2.63 2.6zM395.77 311.99c0 .62-.41 1.02-1.05 1.02s-1.06-.41-1.06-1.02.42-1.01 1.06-1.01 1.05.39 1.05 1.01zM405.36 303.19c-1.76 1.61-2.42 3.25-2.42 5.79s.66 4.16 2.42 5.77l-.78.78c-2.03-1.64-3.08-3.85-3.08-6.56 0-2.72 1.05-4.93 3.08-6.57l.78.79zM412.56 308.33v4.54h-1.5v-4.06c0-1.39-.64-1.85-1.5-1.85-.92 0-1.91.59-1.91 2.2v3.71h-1.5v-7h1.33l.07 1.18c.48-.92 1.36-1.32 2.37-1.32 1.49-.01 2.64.85 2.64 2.6zM420.95 307.74h-6.67v-1.23h6.67v1.23zm0 2.87h-6.67v-1.23h6.67v1.23zM429.38 308.26c0 3.17-1.32 4.75-3.67 4.75-1.7 0-2.72-.7-3.26-2.07l1.41-.66c.27.87.64 1.44 1.85 1.44 1.71 0 2.3-1.4 2.3-3.64v-.15h-.06c-.28 1.18-1.43 1.58-2.47 1.58-1.79 0-3.07-1.16-3.07-2.98 0-1.88 1.26-3.04 3.31-3.04 2.37-.01 3.66 1.86 3.66 4.77zm-5.47-1.72c0 1.05.66 1.69 1.81 1.69 1.08 0 1.81-.69 1.81-1.69 0-1.05-.73-1.74-1.81-1.74-1.15 0-1.81.64-1.81 1.74zM437.65 305.46l-1.32.63c-.25-.81-.8-1.3-1.79-1.3-1.36 0-2.28 1.51-2.28 3.56v.25h.06c.31-1.08 1.42-1.55 2.44-1.55 1.83 0 3.08 1.15 3.08 2.96 0 1.85-1.26 3.01-3.29 3.01-2.37 0-3.66-1.89-3.66-4.76 0-3.15 1.61-4.76 3.74-4.76 1.48-.02 2.47.54 3.02 1.96zm-4.92 4.52c0 1.05.71 1.74 1.81 1.74 1.15 0 1.81-.64 1.81-1.74 0-1.05-.66-1.69-1.81-1.69-1.09 0-1.81.68-1.81 1.69zM442.24 308.97c0 2.7-1.05 4.92-3.08 6.56l-.78-.78c1.76-1.61 2.42-3.24 2.42-5.77 0-2.54-.66-4.17-2.42-5.79l.78-.78c2.03 1.63 3.08 3.85 3.08 6.56z"/><path class="st1" d="M445.81 311.99c0 .62-.41 1.02-1.05 1.02s-1.06-.41-1.06-1.02.42-1.01 1.06-1.01 1.05.39 1.05 1.01z"/></svg>