<?xml version="1.0" encoding="utf-8"?>
<!-- Generator: Adobe Illustrator 25.4.1, SVG Export Plug-In . SVG Version: 6.00 Build 0)  -->
<svg version="1.1" id="Layer_1" xmlns="http://www.w3.org/2000/svg" xmlns:xlink="http://www.w3.org/1999/xlink" x="0px" y="0px"
	 viewBox="0 0 970 250" style="enable-background:new 0 0 970 250;" xml:space="preserve">
<style type="text/css">
	.st0{fill:#FFFFFF;}
</style>
<g>
	<path class="st0" d="M31.77,112.65h1.79c1.75,0,2.45-0.47,2.45-2.34V87.17H35c-5.49,0-6.66,3.82-7.64,9.82h-0.55l0.51-10.4h20.69
		l0.43,10.4h-0.55c-0.94-6-2.14-9.82-7.64-9.82h-1.01v23.14c0,1.87,0.66,2.34,2.45,2.34h1.75v0.58H31.77V112.65z"/>
	<path class="st0" d="M47.78,109.92c0-3.31,2.96-5.06,10.28-6.78v-1.13c0-3.74-1.48-5.03-3.82-5.03c-2.1,0-3.9,0.9-3.9,1.6
		c0,0.12,0.04,0.16,0.19,0.16c0.78,0,1.64,0.74,1.64,1.71c0,1.01-0.78,1.79-1.75,1.79c-1.01,0-1.75-0.74-1.75-1.87
		c0-2.03,2.14-3.93,6.31-3.93c3.12,0,5.84,1.13,5.84,5.73v7.99c0,1.64,0.47,2.14,1.01,2.14c0.94,0,1.32-0.97,1.36-3.12h0.55
		c-0.08,3.7-1.36,4.4-2.96,4.4c-1.52,0-2.92-0.86-2.73-3.66h-0.08c-0.74,2.03-3.08,3.74-5.8,3.74
		C49.69,113.66,47.78,112.42,47.78,109.92z M58.06,106.57v-2.8c-5.96,1.21-7.05,3.27-7.05,5.49c0,1.75,0.94,3.04,2.73,3.04
		C55.65,112.3,58.06,110.9,58.06,106.57z"/>
	<path class="st0" d="M64.61,112.69h0.16c1.75,0,2.14-0.47,2.14-2.34V89.43c0-1.87-0.39-2.34-2.14-2.34h-0.31v-0.55l5.22-0.58v24.39
		c0,1.87,0.39,2.34,2.1,2.34h0.31v0.55h-7.48V112.69z"/>
	<path class="st0" d="M73.57,112.69h0.19c1.71,0,2.1-0.43,2.1-2.18V89.32c0-1.79-0.39-2.22-2.1-2.22h-0.35v-0.55l5.22-0.58v20.45
		l5.88-6.31c0.78-0.82,1.01-1.21,1.01-1.71c0-0.58-0.7-0.93-1.99-1.01v-0.43h6.86v0.43c-2.26,0.23-2.8,0.78-4.25,2.22l-3.19,3.27
		c0-0.04,5.65,7.95,5.65,7.95c0.9,1.25,1.25,1.75,2.8,1.87v0.55h-7.25v-0.51c1.25-0.12,1.67-0.47,1.67-0.9
		c0-0.23-0.08-0.43-0.51-1.05l-4.21-6.04l-2.49,2.49v3.27c0,1.75,0.39,2.18,2.14,2.18h0.23v0.55h-7.44V112.69z"/>
	<path class="st0" d="M103.69,108.75V97.54h-2.65v-0.47c2.49-0.43,4.56-2.14,4.95-7.17h0.51v7.01h5.26v0.62h-5.26v11.41
		c0,2.45,0.9,3.66,2.65,3.66c1.6,0,2.88-1.75,3.04-5.18h0.55c0,3.97-1.75,6.31-4.56,6.31C105.4,113.74,103.69,112.14,103.69,108.75z
		"/>
	<path class="st0" d="M114.25,105.05c0-5.06,3.97-8.69,7.64-8.69c3.66,0,7.6,3.54,7.6,8.61c0,4.95-3.93,8.84-7.6,8.84
		C118.22,113.82,114.25,110,114.25,105.05z M126.21,105.09c0-4.52-1.17-8.18-4.32-8.18s-4.32,3.58-4.32,8.1
		c0,4.48,1.09,8.26,4.32,8.26S126.21,109.57,126.21,105.09z"/>
	<path class="st0" d="M140.24,118.42c0-1.21,0.82-2.06,1.99-2.06c0.94,0,1.6,0.82,1.6,1.64c0,0.7-0.27,1.09-0.55,1.36
		c-0.23,0.23-0.43,0.35-0.43,0.66c0,0.39,0.43,0.66,1.01,0.66c1.79,0,3-2.45,4.13-5.18l0.51-1.21l-5.84-14.18
		c-0.7-1.75-1.25-2.53-2.84-2.65v-0.51h7.83v0.51c-1.36,0.12-1.99,0.55-2.03,1.17c-0.04,0.58,0.16,1.25,0.47,2.06l3.86,10.21
		l3.51-9.19c0.35-0.9,0.74-1.99,0.74-2.73c0-1.01-0.66-1.4-2.14-1.52v-0.51h5.77v0.51c-1.71,0.12-2.14,1.05-2.77,2.65l-6.27,15.35
		c-1.95,4.79-3.43,5.88-5.26,5.88C141.37,121.34,140.24,120.01,140.24,118.42z"/>
	<path class="st0" d="M157.85,105.05c0-5.06,3.97-8.69,7.64-8.69c3.66,0,7.6,3.54,7.6,8.61c0,4.95-3.93,8.84-7.6,8.84
		C161.82,113.82,157.85,110,157.85,105.05z M169.81,105.09c0-4.52-1.17-8.18-4.32-8.18s-4.32,3.58-4.32,8.1
		c0,4.48,1.09,8.26,4.32,8.26S169.81,109.57,169.81,105.09z"/>
	<path class="st0" d="M176.78,108.09v-8.41c0-1.71-0.39-2.22-2.1-2.22h-0.35v-0.51l5.22-0.31v12.15c0,2.77,1.05,3.86,2.88,3.86
		c2.42,0,4.83-3.43,4.83-6.7v-6.23c0-1.79-0.39-2.26-2.1-2.26h-0.78v-0.51l5.69-0.31v13.63c0,1.75,0.43,2.26,2.14,2.26h0.27v0.51
		l-5.18,0.58l0.19-4.83h-0.08c-1.01,2.65-3.27,4.83-5.92,4.83C178.42,113.62,176.78,111.83,176.78,108.09z"/>
	<path class="st0" d="M193.69,112.69h0.27c1.71,0,2.1-0.43,2.1-2.18V99.6c0-1.75-0.47-2.18-2.1-2.18h-0.27v-0.47l5.18-0.31
		l-0.27,6.58h0.08c1.21-4.25,3.16-6.78,5.73-6.78c1.99,0,3.12,1.17,3.12,2.53c0,1.52-0.86,2.3-1.95,2.3c-0.97,0-1.75-0.62-1.75-1.6
		c0-0.86,0.47-1.25,0.82-1.56c0.19-0.16,0.31-0.27,0.31-0.47c0-0.31-0.39-0.39-0.86-0.39c-2.81,0-5.18,5.53-5.18,8.61v4.64
		c0,1.75,0.39,2.18,2.1,2.18h0.9v0.55h-8.22V112.69z"/>
	<path class="st0" d="M217.15,120.64h0.47c1.71,0,2.1-0.43,2.1-2.22V99.68c0-1.79-0.39-2.22-2.1-2.22h-0.27v-0.51l5.06-0.31
		l-0.12,3.97h0.08c1.25-2.42,2.92-4.09,5.45-4.09c3.19,0,6.82,3.31,6.82,8.53c0,5.14-3.55,8.57-6.97,8.57
		c-2.65,0-4.29-1.83-5.34-4.21h-0.04c0,0,0.16,2.42,0.16,4.87v4.13c0,1.79,0.39,2.22,2.1,2.22h0.9v0.55h-8.3V120.64z M231.37,105.13
		c0-4.05-0.94-7.99-3.93-7.99c-1.91,0-5.03,2.26-5.03,7.95c0,4.01,2.14,7.91,4.95,7.91C230.35,113,231.37,109.34,231.37,105.13z"/>
	<path class="st0" d="M236.47,112.69h0.27c1.71,0,2.1-0.43,2.1-2.18V99.6c0-1.75-0.47-2.18-2.1-2.18h-0.27v-0.47l5.18-0.31
		l-0.27,6.58h0.08c1.21-4.25,3.16-6.78,5.73-6.78c1.99,0,3.12,1.17,3.12,2.53c0,1.52-0.86,2.3-1.95,2.3c-0.97,0-1.75-0.62-1.75-1.6
		c0-0.86,0.47-1.25,0.82-1.56c0.19-0.16,0.31-0.27,0.31-0.47c0-0.31-0.39-0.39-0.86-0.39c-2.81,0-5.18,5.53-5.18,8.61v4.64
		c0,1.75,0.39,2.18,2.1,2.18h0.9v0.55h-8.22V112.69z"/>
	<path class="st0" d="M251.12,105.05c0-5.06,3.97-8.69,7.64-8.69c3.66,0,7.6,3.54,7.6,8.61c0,4.95-3.93,8.84-7.6,8.84
		C255.1,113.82,251.12,110,251.12,105.05z M263.08,105.09c0-4.52-1.17-8.18-4.32-8.18s-4.32,3.58-4.32,8.1
		c0,4.48,1.09,8.26,4.32,8.26S263.08,109.57,263.08,105.09z"/>
	<path class="st0" d="M269.63,99.99c-0.74-1.75-1.21-2.42-2.8-2.53v-0.51h7.79v0.51c-1.56,0.12-1.99,0.51-2.03,1.13
		c-0.04,0.58,0.16,1.32,0.43,2.03l3.74,9.93l3.47-8.96c0.35-0.93,0.74-1.91,0.74-2.65c0-1.01-0.66-1.36-2.14-1.48v-0.51h5.61v0.51
		c-1.6,0.12-2.1,1.01-2.73,2.53l-5.77,14.02h-0.55L269.63,99.99z"/>
	<path class="st0" d="M285.22,112.69h0.31c1.71,0,2.1-0.43,2.1-2.18V99.68c0-1.79-0.39-2.22-2.1-2.22h-0.31v-0.51l5.18-0.31v13.87
		c0,1.75,0.39,2.18,2.1,2.18h0.31v0.55h-7.6V112.69z M286.5,90.41c0-1.17,0.97-2.14,2.14-2.14c1.17,0,2.14,0.97,2.14,2.14
		c0,1.17-0.97,2.14-2.14,2.14C287.47,92.55,286.5,91.58,286.5,90.41z"/>
	<path class="st0" d="M294.64,105.09c0-4.83,3.08-8.57,6.86-8.57c2.34,0,4.17,1.64,5.38,4.01h0.12c-0.08-1.09-0.12-3.43-0.12-5.88
		v-5.3c0-1.79-0.43-2.22-2.14-2.22h-0.97v-0.55l5.88-0.58v24.31c0,1.75,0.35,2.26,2.06,2.26h0.31v0.55l-5.14,0.58l0.16-4.36h-0.12
		c-1.29,2.38-2.92,4.29-5.57,4.29C298.11,113.62,294.64,110.39,294.64,105.09z M306.88,105.05c0-5.8-3.23-7.95-4.91-7.95
		c-3.19,0-4.05,3.62-4.05,7.87c0,4.32,1.05,8.02,4.01,8.02C303.95,113,306.88,110.2,306.88,105.05z"/>
	<path class="st0" d="M313.58,105.17c0-5.26,3.66-8.8,7.56-8.8c3.12,0,6.7,2.42,6.7,7.44c0,0.12-0.04,0.97-0.08,1.17h-10.99
		c0,4.29,1.71,7.6,5.06,7.6c3,0,4.52-1.52,5.8-3.39l0.43,0.31c-1.44,2.42-3.7,4.32-7.09,4.32
		C316.5,113.82,313.58,110.51,313.58,105.17z M322.62,104.35c1.56,0,1.99-0.51,1.99-1.75c0-3.12-1.09-5.65-3.58-5.65
		c-2.73,0-4.13,2.92-4.25,7.4H322.62z"/>
	<path class="st0" d="M329.79,112.69h0.27c1.71,0,2.1-0.43,2.1-2.18V99.6c0-1.75-0.47-2.18-2.1-2.18h-0.27v-0.47l5.18-0.31
		l-0.27,6.58h0.08c1.21-4.25,3.16-6.78,5.73-6.78c1.99,0,3.12,1.17,3.12,2.53c0,1.52-0.86,2.3-1.95,2.3c-0.97,0-1.75-0.62-1.75-1.6
		c0-0.86,0.47-1.25,0.82-1.56c0.19-0.16,0.31-0.27,0.31-0.47c0-0.31-0.39-0.39-0.86-0.39c-2.8,0-5.18,5.53-5.18,8.61v4.64
		c0,1.75,0.39,2.18,2.1,2.18h0.9v0.55h-8.22V112.69z"/>
	<path class="st0" d="M354.06,109.92c0-3.31,2.96-5.06,10.28-6.78v-1.13c0-3.74-1.48-5.03-3.82-5.03c-2.1,0-3.9,0.9-3.9,1.6
		c0,0.12,0.04,0.16,0.19,0.16c0.78,0,1.64,0.74,1.64,1.71c0,1.01-0.78,1.79-1.75,1.79c-1.01,0-1.75-0.74-1.75-1.87
		c0-2.03,2.14-3.93,6.31-3.93c3.12,0,5.84,1.13,5.84,5.73v7.99c0,1.64,0.47,2.14,1.01,2.14c0.94,0,1.32-0.97,1.36-3.12h0.55
		c-0.08,3.7-1.36,4.4-2.96,4.4c-1.52,0-2.92-0.86-2.73-3.66h-0.08c-0.74,2.03-3.08,3.74-5.8,3.74
		C355.97,113.66,354.06,112.42,354.06,109.92z M364.35,106.57v-2.8c-5.96,1.21-7.05,3.27-7.05,5.49c0,1.75,0.94,3.04,2.73,3.04
		C361.93,112.3,364.35,110.9,364.35,106.57z"/>
	<path class="st0" d="M372.69,106.61v-17.3c0-1.79-0.39-2.22-2.1-2.22h-0.66v-0.55l5.49-0.58v8.45c0,3-0.12,6.12-0.12,6.12h0.08
		c1.48-2.57,3-4.01,5.53-4.01c3.39,0,6.7,3.66,6.7,8.49c0,5.38-3.58,8.61-6.82,8.61c-2.65,0-4.05-1.48-5.38-3.86h-0.08l-2.65,4.17
		h-0.51C372.57,111.72,372.69,108.99,372.69,106.61z M384.33,105.09c0-4.29-1.01-7.95-3.9-7.95c-2.65,0-5.06,3.23-5.06,7.91
		c0,4.36,2.18,7.95,4.99,7.95C382.66,113,384.33,110.82,384.33,105.09z"/>
	<path class="st0" d="M389.87,105.05c0-5.06,3.97-8.69,7.64-8.69c3.66,0,7.6,3.54,7.6,8.61c0,4.95-3.93,8.84-7.6,8.84
		C393.84,113.82,389.87,110,389.87,105.05z M401.83,105.09c0-4.52-1.17-8.18-4.32-8.18s-4.32,3.58-4.32,8.1
		c0,4.48,1.09,8.26,4.32,8.26S401.83,109.57,401.83,105.09z"/>
	<path class="st0" d="M408.8,108.09v-8.41c0-1.71-0.39-2.22-2.1-2.22h-0.35v-0.51l5.22-0.31v12.15c0,2.77,1.05,3.86,2.88,3.86
		c2.42,0,4.83-3.43,4.83-6.7v-6.23c0-1.79-0.39-2.26-2.1-2.26h-0.78v-0.51l5.69-0.31v13.63c0,1.75,0.43,2.26,2.14,2.26h0.27v0.51
		l-5.18,0.58l0.19-4.83h-0.08c-1.01,2.65-3.27,4.83-5.92,4.83C410.44,113.62,408.8,111.83,408.8,108.09z"/>
	<path class="st0" d="M427.82,108.75V97.54h-2.65v-0.47c2.49-0.43,4.56-2.14,4.95-7.17h0.51v7.01h5.26v0.62h-5.26v11.41
		c0,2.45,0.9,3.66,2.65,3.66c1.6,0,2.88-1.75,3.04-5.18h0.55c0,3.97-1.75,6.31-4.56,6.31C429.53,113.74,427.82,112.14,427.82,108.75
		z"/>
	<path class="st0" d="M447.61,109.92c0-3.31,2.96-5.06,10.28-6.78v-1.13c0-3.74-1.48-5.03-3.82-5.03c-2.1,0-3.9,0.9-3.9,1.6
		c0,0.12,0.04,0.16,0.19,0.16c0.78,0,1.64,0.74,1.64,1.71c0,1.01-0.78,1.79-1.75,1.79c-1.01,0-1.75-0.74-1.75-1.87
		c0-2.03,2.14-3.93,6.31-3.93c3.12,0,5.84,1.13,5.84,5.73v7.99c0,1.64,0.47,2.14,1.01,2.14c0.94,0,1.32-0.97,1.36-3.12h0.55
		c-0.08,3.7-1.36,4.4-2.96,4.4c-1.52,0-2.92-0.86-2.73-3.66h-0.08c-0.74,2.03-3.08,3.74-5.8,3.74
		C449.52,113.66,447.61,112.42,447.61,109.92z M457.89,106.57v-2.8c-5.96,1.21-7.05,3.27-7.05,5.49c0,1.75,0.94,3.04,2.73,3.04
		C455.48,112.3,457.89,110.9,457.89,106.57z"/>
	<path class="st0" d="M26.04,157.1h0.47c1.71,0,2.1-0.43,2.1-2.22v-18.74c0-1.79-0.39-2.22-2.1-2.22h-0.27v-0.51l5.06-0.31
		l-0.12,3.97h0.08c1.25-2.42,2.92-4.09,5.45-4.09c3.19,0,6.82,3.31,6.82,8.53c0,5.14-3.55,8.57-6.97,8.57
		c-2.65,0-4.29-1.83-5.34-4.21h-0.04c0,0,0.16,2.42,0.16,4.87v4.13c0,1.79,0.39,2.22,2.1,2.22h0.9v0.55h-8.3V157.1z M40.26,141.6
		c0-4.05-0.94-7.99-3.93-7.99c-1.91,0-5.03,2.26-5.03,7.95c0,4.01,2.14,7.91,4.95,7.91C39.25,149.47,40.26,145.8,40.26,141.6z"/>
	<path class="st0" d="M45.79,141.64c0-5.26,3.66-8.8,7.56-8.8c3.12,0,6.7,2.42,6.7,7.44c0,0.12-0.04,0.97-0.08,1.17H48.99
		c0,4.29,1.71,7.6,5.06,7.6c3,0,4.52-1.52,5.8-3.39l0.43,0.31c-1.44,2.42-3.7,4.32-7.09,4.32
		C48.71,150.28,45.79,146.97,45.79,141.64z M54.83,140.82c1.56,0,1.99-0.51,1.99-1.75c0-3.12-1.09-5.65-3.58-5.65
		c-2.73,0-4.13,2.92-4.25,7.4H54.83z"/>
	<path class="st0" d="M62,149.16h0.27c1.71,0,2.1-0.43,2.1-2.18v-10.91c0-1.75-0.47-2.18-2.1-2.18H62v-0.47l5.18-0.31l-0.27,6.58
		h0.08c1.21-4.25,3.16-6.78,5.73-6.78c1.99,0,3.12,1.17,3.12,2.53c0,1.52-0.86,2.3-1.95,2.3c-0.97,0-1.75-0.62-1.75-1.6
		c0-0.86,0.47-1.25,0.82-1.56c0.19-0.16,0.31-0.27,0.31-0.47c0-0.31-0.39-0.39-0.86-0.39c-2.8,0-5.18,5.53-5.18,8.61v4.64
		c0,1.75,0.39,2.18,2.1,2.18h0.9v0.54H62V149.16z"/>
	<path class="st0" d="M79.07,148.73c-0.58,0-1.09,0.47-1.4,1.32h-0.39v-6.62h0.35c0.66,3.82,3.78,6.12,6.86,6.12
		c2.3,0,3.93-1.32,3.93-3.16c0-1.75-1.21-2.42-5.14-3.54c-3.43-0.97-5.8-1.87-5.8-5.26c0-2.8,2.1-4.56,5.06-4.56
		c2.26,0,3.27,1.01,4.48,1.01c0.62,0,1.13-0.31,1.4-0.97h0.39v5.92h-0.35c-0.62-3.19-2.84-5.42-6.12-5.42
		c-1.79,0-3.23,1.17-3.23,2.88c0,1.83,1.52,2.42,4.79,3.27c4.25,1.13,6.16,2.34,6.16,5.42c0,3.12-2.38,4.95-5.73,4.95
		C81.91,150.09,80,148.73,79.07,148.73z"/>
	<path class="st0" d="M92.39,141.52c0-5.06,3.97-8.69,7.64-8.69c3.66,0,7.6,3.54,7.6,8.61c0,4.95-3.93,8.84-7.6,8.84
		C96.37,150.28,92.39,146.47,92.39,141.52z M104.35,141.56c0-4.52-1.17-8.18-4.32-8.18s-4.32,3.58-4.32,8.1
		c0,4.48,1.09,8.26,4.32,8.26S104.35,146.04,104.35,141.56z"/>
	<path class="st0" d="M109.46,149.16h0.27c1.71,0,2.1-0.43,2.1-2.18V136.1c0-1.75-0.39-2.22-2.1-2.22h-0.27v-0.47l5.18-0.31
		l-0.19,4.79h0.08c1.05-3.16,3.51-4.83,6.04-4.83c3.16,0,4.6,1.95,4.6,5.8v8.1c0,1.75,0.39,2.18,2.14,2.18h0.08v0.54h-7.52v-0.54
		h0.39c1.75,0,2.14-0.43,2.14-2.18v-9.08c0-2.73-1.17-3.58-2.73-3.58c-2.84,0-4.99,2.84-4.99,6.31v6.35c0,1.75,0.39,2.18,2.1,2.18
		h0.39v0.54h-7.71V149.16z"/>
	<path class="st0" d="M128.82,146.39c0-3.31,2.96-5.06,10.28-6.78v-1.13c0-3.74-1.48-5.02-3.82-5.02c-2.1,0-3.9,0.9-3.9,1.6
		c0,0.12,0.04,0.16,0.19,0.16c0.78,0,1.64,0.74,1.64,1.71c0,1.01-0.78,1.79-1.75,1.79c-1.01,0-1.75-0.74-1.75-1.87
		c0-2.03,2.14-3.93,6.31-3.93c3.12,0,5.84,1.13,5.84,5.73v7.99c0,1.64,0.47,2.14,1.01,2.14c0.94,0,1.32-0.97,1.36-3.12h0.55
		c-0.08,3.7-1.36,4.4-2.96,4.4c-1.52,0-2.92-0.86-2.73-3.66h-0.08c-0.74,2.03-3.08,3.74-5.8,3.74
		C130.73,150.13,128.82,148.88,128.82,146.39z M139.11,143.04v-2.8c-5.96,1.21-7.05,3.27-7.05,5.49c0,1.75,0.94,3.04,2.73,3.04
		C136.69,148.77,139.11,147.36,139.11,143.04z"/>
	<path class="st0" d="M145.65,149.16h0.16c1.75,0,2.14-0.47,2.14-2.34V125.9c0-1.87-0.39-2.34-2.14-2.34h-0.31v-0.55l5.22-0.58
		v24.39c0,1.87,0.39,2.34,2.1,2.34h0.31v0.54h-7.48V149.16z"/>
	<path class="st0" d="M154.54,149.16h0.31c1.71,0,2.1-0.43,2.1-2.18v-10.83c0-1.79-0.39-2.22-2.1-2.22h-0.31v-0.51l5.18-0.31v13.87
		c0,1.75,0.39,2.18,2.1,2.18h0.31v0.54h-7.6V149.16z M155.82,126.87c0-1.17,0.97-2.14,2.14-2.14c1.17,0,2.14,0.97,2.14,2.14
		c0,1.17-0.97,2.14-2.14,2.14C156.8,129.01,155.82,128.04,155.82,126.87z"/>
	<path class="st0" d="M163.69,149.31l10.67-15.39h-3.51c-3.62,0-5.06,1.83-6.08,5.92h-0.39l0.43-6.43h12.78v0.31l-10.71,15.46h4.44
		c4.09,0,5.38-2.42,6.08-6.27h0.39l-0.43,6.78h-13.67V149.31z"/>
	<path class="st0" d="M179.98,141.64c0-5.26,3.66-8.8,7.56-8.8c3.12,0,6.7,2.42,6.7,7.44c0,0.12-0.04,0.97-0.08,1.17h-10.99
		c0,4.29,1.71,7.6,5.06,7.6c3,0,4.52-1.52,5.8-3.39l0.43,0.31c-1.44,2.42-3.7,4.32-7.09,4.32
		C182.9,150.28,179.98,146.97,179.98,141.64z M189.02,140.82c1.56,0,1.99-0.51,1.99-1.75c0-3.12-1.09-5.65-3.58-5.65
		c-2.73,0-4.13,2.92-4.25,7.4H189.02z"/>
	<path class="st0" d="M196.62,141.56c0-4.83,3.08-8.57,6.86-8.57c2.34,0,4.17,1.64,5.38,4.01h0.12c-0.08-1.09-0.12-3.43-0.12-5.88
		v-5.3c0-1.79-0.43-2.22-2.14-2.22h-0.97v-0.55l5.88-0.58v24.31c0,1.75,0.35,2.26,2.06,2.26h0.31v0.54l-5.14,0.58l0.16-4.36h-0.12
		c-1.29,2.38-2.92,4.29-5.57,4.29C200.08,150.09,196.62,146.86,196.62,141.56z M208.85,141.52c0-5.8-3.23-7.95-4.91-7.95
		c-3.19,0-4.05,3.62-4.05,7.87c0,4.32,1.05,8.03,4.01,8.03C205.93,149.47,208.85,146.66,208.85,141.52z"/>
	<path class="st0" d="M226.54,145.22V134h-2.65v-0.47c2.49-0.43,4.56-2.14,4.95-7.17h0.51v7.01h5.26V134h-5.26v11.41
		c0,2.45,0.9,3.66,2.65,3.66c1.6,0,2.88-1.75,3.04-5.18h0.55c0,3.97-1.75,6.31-4.56,6.31C228.25,150.21,226.54,148.61,226.54,145.22
		z"/>
	<path class="st0" d="M236.67,149.16h0.27c1.71,0,2.1-0.43,2.1-2.18v-10.91c0-1.75-0.47-2.18-2.1-2.18h-0.27v-0.47l5.18-0.31
		l-0.27,6.58h0.08c1.21-4.25,3.16-6.78,5.73-6.78c1.99,0,3.12,1.17,3.12,2.53c0,1.52-0.86,2.3-1.95,2.3c-0.97,0-1.75-0.62-1.75-1.6
		c0-0.86,0.47-1.25,0.82-1.56c0.19-0.16,0.31-0.27,0.31-0.47c0-0.31-0.39-0.39-0.86-0.39c-2.81,0-5.18,5.53-5.18,8.61v4.64
		c0,1.75,0.39,2.18,2.1,2.18h0.9v0.54h-8.22V149.16z"/>
	<path class="st0" d="M251.32,141.64c0-5.26,3.66-8.8,7.56-8.8c3.12,0,6.7,2.42,6.7,7.44c0,0.12-0.04,0.97-0.08,1.17h-10.99
		c0,4.29,1.71,7.6,5.06,7.6c3,0,4.52-1.52,5.8-3.39l0.43,0.31c-1.44,2.42-3.7,4.32-7.09,4.32
		C254.24,150.28,251.32,146.97,251.32,141.64z M260.36,140.82c1.56,0,1.99-0.51,1.99-1.75c0-3.12-1.09-5.65-3.58-5.65
		c-2.73,0-4.13,2.92-4.25,7.4H260.36z"/>
	<path class="st0" d="M267.88,146.39c0-3.31,2.96-5.06,10.28-6.78v-1.13c0-3.74-1.48-5.02-3.82-5.02c-2.1,0-3.9,0.9-3.9,1.6
		c0,0.12,0.04,0.16,0.19,0.16c0.78,0,1.64,0.74,1.64,1.71c0,1.01-0.78,1.79-1.75,1.79c-1.01,0-1.75-0.74-1.75-1.87
		c0-2.03,2.14-3.93,6.31-3.93c3.12,0,5.84,1.13,5.84,5.73v7.99c0,1.64,0.47,2.14,1.01,2.14c0.94,0,1.32-0.97,1.36-3.12h0.54
		c-0.08,3.7-1.36,4.4-2.96,4.4c-1.52,0-2.92-0.86-2.73-3.66h-0.08c-0.74,2.03-3.08,3.74-5.8,3.74
		C269.79,150.13,267.88,148.88,267.88,146.39z M278.16,143.04v-2.8c-5.96,1.21-7.05,3.27-7.05,5.49c0,1.75,0.94,3.04,2.73,3.04
		C275.75,148.77,278.16,147.36,278.16,143.04z"/>
	<path class="st0" d="M286.42,145.22V134h-2.65v-0.47c2.49-0.43,4.56-2.14,4.95-7.17h0.51v7.01h5.26V134h-5.26v11.41
		c0,2.45,0.9,3.66,2.65,3.66c1.6,0,2.88-1.75,3.04-5.18h0.55c0,3.97-1.75,6.31-4.56,6.31C288.14,150.21,286.42,148.61,286.42,145.22
		z"/>
	<path class="st0" d="M296.55,149.16h0.27c1.71,0,2.1-0.43,2.1-2.18V136.1c0-1.75-0.39-2.22-2.1-2.22h-0.27v-0.47l5.18-0.31
		l-0.19,4.79h0.08c1.01-3.04,3.39-4.83,5.92-4.83c2.96,0,4.13,1.87,4.44,4.4c1.21-2.73,3.35-4.4,5.8-4.4c3.16,0,4.48,1.95,4.48,5.8
		v8.1c0,1.75,0.39,2.18,2.14,2.18h0.08v0.54h-7.52v-0.54h0.39c1.75,0,2.14-0.43,2.14-2.18v-9.08c0-2.73-1.05-3.58-2.61-3.58
		c-2.84,0-4.87,3.12-4.87,6.31v6.35c0,1.75,0.39,2.18,2.14,2.18h0.35v0.54h-7.79v-0.54h0.39c1.75,0,2.14-0.43,2.14-2.18v-9.08
		c0-2.73-1.05-3.58-2.61-3.58c-2.81,0-4.87,3-4.87,6.31v6.35c0,1.75,0.39,2.18,2.1,2.18h0.39v0.54h-7.71V149.16z"/>
	<path class="st0" d="M326.01,141.64c0-5.26,3.66-8.8,7.56-8.8c3.12,0,6.7,2.42,6.7,7.44c0,0.12-0.04,0.97-0.08,1.17H329.2
		c0,4.29,1.71,7.6,5.06,7.6c3,0,4.52-1.52,5.8-3.39l0.43,0.31c-1.44,2.42-3.7,4.32-7.09,4.32
		C328.93,150.28,326.01,146.97,326.01,141.64z M335.05,140.82c1.56,0,1.99-0.51,1.99-1.75c0-3.12-1.09-5.65-3.58-5.65
		c-2.73,0-4.13,2.92-4.25,7.4H335.05z"/>
	<path class="st0" d="M342.22,149.16h0.27c1.71,0,2.1-0.43,2.1-2.18V136.1c0-1.75-0.39-2.22-2.1-2.22h-0.27v-0.47l5.18-0.31
		l-0.19,4.79h0.08c1.05-3.16,3.51-4.83,6.04-4.83c3.16,0,4.6,1.95,4.6,5.8v8.1c0,1.75,0.39,2.18,2.14,2.18h0.08v0.54h-7.52v-0.54
		h0.39c1.75,0,2.14-0.43,2.14-2.18v-9.08c0-2.73-1.17-3.58-2.73-3.58c-2.84,0-4.99,2.84-4.99,6.31v6.35c0,1.75,0.39,2.18,2.1,2.18
		h0.39v0.54h-7.71V149.16z"/>
	<path class="st0" d="M363.33,145.22V134h-2.65v-0.47c2.49-0.43,4.56-2.14,4.95-7.17h0.51v7.01h5.26V134h-5.26v11.41
		c0,2.45,0.9,3.66,2.65,3.66c1.6,0,2.88-1.75,3.04-5.18h0.55c0,3.97-1.75,6.31-4.56,6.31C365.05,150.21,363.33,148.61,363.33,145.22
		z"/>
	<path class="st0" d="M382.31,157.1h0.47c1.71,0,2.1-0.43,2.1-2.22v-18.74c0-1.79-0.39-2.22-2.1-2.22h-0.27v-0.51l5.06-0.31
		l-0.12,3.97h0.08c1.25-2.42,2.92-4.09,5.45-4.09c3.19,0,6.82,3.31,6.82,8.53c0,5.14-3.55,8.57-6.97,8.57
		c-2.65,0-4.29-1.83-5.34-4.21h-0.04c0,0,0.16,2.42,0.16,4.87v4.13c0,1.79,0.39,2.22,2.1,2.22h0.9v0.55h-8.3V157.1z M396.53,141.6
		c0-4.05-0.94-7.99-3.93-7.99c-1.91,0-5.03,2.26-5.03,7.95c0,4.01,2.14,7.91,4.95,7.91C395.52,149.47,396.53,145.8,396.53,141.6z"/>
	<path class="st0" d="M401.63,149.16h0.16c1.75,0,2.14-0.47,2.14-2.34V125.9c0-1.87-0.39-2.34-2.14-2.34h-0.31v-0.55l5.22-0.58
		v24.39c0,1.87,0.39,2.34,2.1,2.34h0.31v0.54h-7.48V149.16z"/>
	<path class="st0" d="M410.79,146.39c0-3.31,2.96-5.06,10.28-6.78v-1.13c0-3.74-1.48-5.02-3.82-5.02c-2.1,0-3.9,0.9-3.9,1.6
		c0,0.12,0.04,0.16,0.19,0.16c0.78,0,1.64,0.74,1.64,1.71c0,1.01-0.78,1.79-1.75,1.79c-1.01,0-1.75-0.74-1.75-1.87
		c0-2.03,2.14-3.93,6.31-3.93c3.12,0,5.84,1.13,5.84,5.73v7.99c0,1.64,0.47,2.14,1.01,2.14c0.94,0,1.32-0.97,1.36-3.12h0.54
		c-0.08,3.7-1.36,4.4-2.96,4.4c-1.52,0-2.92-0.86-2.73-3.66H421c-0.74,2.03-3.08,3.74-5.8,3.74
		C412.7,150.13,410.79,148.88,410.79,146.39z M421.07,143.04v-2.8c-5.96,1.21-7.05,3.27-7.05,5.49c0,1.75,0.94,3.04,2.73,3.04
		C418.66,148.77,421.07,147.36,421.07,143.04z"/>
	<path class="st0" d="M427.62,149.16h0.27c1.71,0,2.1-0.43,2.1-2.18V136.1c0-1.75-0.39-2.22-2.1-2.22h-0.27v-0.47l5.18-0.31
		l-0.19,4.79h0.08c1.05-3.16,3.51-4.83,6.04-4.83c3.16,0,4.6,1.95,4.6,5.8v8.1c0,1.75,0.39,2.18,2.14,2.18h0.08v0.54h-7.52v-0.54
		h0.39c1.75,0,2.14-0.43,2.14-2.18v-9.08c0-2.73-1.17-3.58-2.73-3.58c-2.84,0-4.99,2.84-4.99,6.31v6.35c0,1.75,0.39,2.18,2.1,2.18
		h0.39v0.54h-7.71V149.16z"/>
	<path class="st0" d="M448.04,147.75c0-1.25,0.97-2.22,2.22-2.22s2.22,0.97,2.22,2.22c0,1.25-0.97,2.22-2.22,2.22
		S448.04,149,448.04,147.75z"/>
</g>
</svg>
