<?xml version="1.0" encoding="utf-8"?>
<!-- Generator: Adobe Illustrator 25.4.1, SVG Export Plug-In . SVG Version: 6.00 Build 0)  -->
<svg version="1.1" id="Layer_1" xmlns="http://www.w3.org/2000/svg" xmlns:xlink="http://www.w3.org/1999/xlink" x="0px" y="0px"
	 viewBox="0 0 970 250" style="enable-background:new 0 0 970 250;" xml:space="preserve">
<style type="text/css">
	.st0{fill:#FFFFFF;}
</style>
<g>
	<path class="st0" d="M29.28,90.82c0-1.29,0.78-2.34,2.03-2.34s2.03,0.9,2.03,2.11c0,0.82-0.39,1.33-0.98,1.76
		c-0.31,0.23-0.62,0.39-0.62,0.62c-0.04,0.82,1.37,1.21,2.46,1.21c5.31,0,6.52-6.13,6.32-13.27c-1.09,2.07-3,3.36-5.03,3.36
		c-4.1,0-6.87-2.77-6.87-7.61c0-4.99,3.51-8.27,7.53-8.27c4.88,0,7.8,4.56,7.8,11.98c0,8.12-4.1,14.4-9.72,14.4
		C31,94.76,29.28,92.65,29.28,90.82z M40.56,76.42c0-3.82-1.25-7.53-4.33-7.53c-3.04,0-4.14,3.82-4.14,7.65
		c0,4.17,1.05,7.06,3.94,7.06C38.68,83.6,40.56,80.24,40.56,76.42z"/>
	<path class="st0" d="M56.12,86.06c0-5.07,3.98-8.7,7.65-8.7c3.67,0,7.61,3.55,7.61,8.62c0,4.96-3.94,8.86-7.61,8.86
		C60.1,94.83,56.12,91.01,56.12,86.06z M68.1,86.1c0-4.53-1.17-8.19-4.33-8.19c-3.16,0-4.33,3.59-4.33,8.12
		c0,4.49,1.09,8.27,4.33,8.27C67.01,94.29,68.1,90.58,68.1,86.1z"/>
	<path class="st0" d="M75.08,89.1v-8.43c0-1.72-0.39-2.22-2.11-2.22h-0.35v-0.51l5.23-0.31V89.8c0,2.77,1.05,3.86,2.89,3.86
		c2.42,0,4.84-3.43,4.84-6.71v-6.24c0-1.79-0.39-2.26-2.11-2.26h-0.78v-0.51l5.7-0.31v13.66c0,1.76,0.43,2.26,2.15,2.26h0.27v0.51
		l-5.19,0.59l0.19-4.84h-0.08c-1.01,2.65-3.28,4.84-5.93,4.84C76.72,94.64,75.08,92.84,75.08,89.1z"/>
	<path class="st0" d="M94.12,89.76V78.53h-2.65v-0.47c2.5-0.43,4.56-2.15,4.96-7.18h0.51v7.02h5.27v0.62h-5.27v11.43
		c0,2.46,0.9,3.67,2.65,3.67c1.6,0,2.89-1.76,3.04-5.19h0.55c0,3.98-1.76,6.32-4.56,6.32C95.84,94.76,94.12,93.16,94.12,89.76z"/>
	<path class="st0" d="M114.02,86.06c0-5.07,3.98-8.7,7.65-8.7c3.67,0,7.61,3.55,7.61,8.62c0,4.96-3.94,8.86-7.61,8.86
		C118,94.83,114.02,91.01,114.02,86.06z M126,86.1c0-4.53-1.17-8.19-4.33-8.19c-3.16,0-4.33,3.59-4.33,8.12
		c0,4.49,1.09,8.27,4.33,8.27C124.91,94.29,126,90.58,126,86.1z"/>
	<path class="st0" d="M131.58,93.7h0.31c1.72,0,2.11-0.43,2.11-2.18V78.53h-2.42v-0.59H134v-2.69c0-4.45,2.11-8.23,6.32-8.23
		c2.34,0,3.63,1.33,3.63,3c0,1.29-0.86,2.03-1.91,2.03c-1.05,0-1.72-0.66-1.72-1.68c0-0.66,0.31-1.13,0.62-1.44
		c0.23-0.23,0.43-0.43,0.43-0.66c0-0.39-0.55-0.78-1.29-0.78c-2.65,0-3.28,2.81-3.28,6.67v3.78h3.98v0.59h-3.98v12.99
		c0,1.76,0.39,2.18,2.11,2.18h0.74v0.55h-8.08V93.7z"/>
	<path class="st0" d="M152.22,93.66h1.44c1.68,0,2.34-0.47,2.34-2.22V73.88c0-1.76-0.66-2.22-2.34-2.22h-1.44v-0.58
		c4.25-0.31,5.77-1.48,6.44-2.85h0.47v23.21c0,1.76,0.62,2.22,2.3,2.22h1.13v0.59h-10.34V93.66z"/>
	<path class="st0" d="M165.21,81.61c0-8.04,4.25-13.23,8.62-13.23c4.37,0,8.47,5.19,8.47,13.23c0,8.04-4.25,13.27-8.58,13.27
		C169.34,94.87,165.21,89.65,165.21,81.61z M178.67,81.61c0-8.39-1.72-12.68-4.96-12.68c-3.32,0-4.88,4.29-4.88,12.68
		c0,8.39,1.72,12.72,4.99,12.72S178.67,90,178.67,81.61z"/>
	<path class="st0" d="M193.53,101.66H194c1.72,0,2.11-0.43,2.11-2.22V80.67c0-1.79-0.39-2.22-2.11-2.22h-0.27v-0.51l5.07-0.31
		l-0.12,3.98h0.08c1.25-2.42,2.93-4.1,5.46-4.1c3.2,0,6.83,3.32,6.83,8.54c0,5.15-3.55,8.58-6.98,8.58c-2.65,0-4.29-1.83-5.35-4.21
		h-0.04c0,0,0.16,2.42,0.16,4.88v4.14c0,1.79,0.39,2.22,2.11,2.22h0.9v0.55h-8.31V101.66z M207.78,86.13c0-4.06-0.94-8-3.94-8
		c-1.91,0-5.03,2.26-5.03,7.96c0,4.02,2.15,7.92,4.96,7.92C206.76,94.02,207.78,90.35,207.78,86.13z"/>
	<path class="st0" d="M213.24,90.93c0-3.32,2.97-5.07,10.3-6.79v-1.13c0-3.75-1.48-5.03-3.82-5.03c-2.11,0-3.9,0.9-3.9,1.6
		c0,0.12,0.04,0.16,0.19,0.16c0.78,0,1.64,0.74,1.64,1.72c0,1.01-0.78,1.79-1.76,1.79c-1.01,0-1.76-0.74-1.76-1.87
		c0-2.03,2.15-3.94,6.32-3.94c3.12,0,5.85,1.13,5.85,5.74v8c0,1.64,0.47,2.15,1.01,2.15c0.94,0,1.33-0.98,1.37-3.12h0.55
		c-0.08,3.71-1.37,4.41-2.97,4.41c-1.52,0-2.93-0.86-2.73-3.67h-0.08c-0.74,2.03-3.08,3.75-5.81,3.75
		C215.15,94.68,213.24,93.43,213.24,90.93z M223.54,87.58v-2.81c-5.97,1.21-7.06,3.28-7.06,5.5c0,1.76,0.94,3.04,2.73,3.04
		C221.12,93.31,223.54,91.91,223.54,87.58z"/>
	<path class="st0" d="M231.81,89.76V78.53h-2.65v-0.47c2.5-0.43,4.56-2.15,4.96-7.18h0.51v7.02h5.27v0.62h-5.27v11.43
		c0,2.46,0.9,3.67,2.65,3.67c1.6,0,2.89-1.76,3.04-5.19h0.55c0,3.98-1.76,6.32-4.56,6.32C233.53,94.76,231.81,93.16,231.81,89.76z"
		/>
	<path class="st0" d="M242.03,93.7h0.31c1.72,0,2.11-0.43,2.11-2.18V80.67c0-1.79-0.39-2.22-2.11-2.22h-0.31v-0.51l5.19-0.31v13.89
		c0,1.76,0.39,2.18,2.11,2.18h0.31v0.55h-7.61V93.7z M243.32,71.39c0-1.17,0.98-2.15,2.15-2.15c1.17,0,2.15,0.98,2.15,2.15
		s-0.98,2.15-2.15,2.15C244.29,73.53,243.32,72.56,243.32,71.39z"/>
	<path class="st0" d="M251.47,86.17c0-5.27,3.67-8.82,7.57-8.82c3.12,0,6.71,2.42,6.71,7.45c0,0.12-0.04,0.98-0.08,1.17h-11
		c0,4.29,1.72,7.61,5.07,7.61c3,0,4.53-1.52,5.81-3.39l0.43,0.31c-1.44,2.42-3.71,4.33-7.1,4.33
		C254.4,94.83,251.47,91.52,251.47,86.17z M260.52,85.35c1.56,0,1.99-0.51,1.99-1.76c0-3.12-1.09-5.66-3.59-5.66
		c-2.73,0-4.14,2.93-4.25,7.41H260.52z"/>
	<path class="st0" d="M267.7,93.7h0.27c1.72,0,2.11-0.43,2.11-2.18V80.63c0-1.76-0.39-2.22-2.11-2.22h-0.27v-0.47l5.19-0.31
		l-0.19,4.8h0.08c1.05-3.16,3.51-4.84,6.05-4.84c3.16,0,4.6,1.95,4.6,5.81v8.12c0,1.76,0.39,2.18,2.15,2.18h0.08v0.55h-7.53V93.7
		h0.39c1.76,0,2.15-0.43,2.15-2.18v-9.09c0-2.73-1.17-3.59-2.73-3.59c-2.85,0-4.99,2.85-4.99,6.32v6.36c0,1.76,0.39,2.18,2.11,2.18
		h0.39v0.55h-7.73V93.7z"/>
	<path class="st0" d="M288.85,89.76V78.53h-2.65v-0.47c2.5-0.43,4.56-2.15,4.96-7.18h0.51v7.02h5.27v0.62h-5.27v11.43
		c0,2.46,0.9,3.67,2.65,3.67c1.6,0,2.89-1.76,3.04-5.19h0.55c0,3.98-1.76,6.32-4.56,6.32C290.57,94.76,288.85,93.16,288.85,89.76z"
		/>
	<path class="st0" d="M301.84,93.27c-0.59,0-1.09,0.47-1.4,1.33h-0.39v-6.63h0.35c0.66,3.82,3.78,6.13,6.87,6.13
		c2.3,0,3.94-1.33,3.94-3.16c0-1.76-1.21-2.42-5.15-3.55c-3.43-0.98-5.81-1.87-5.81-5.27c0-2.81,2.11-4.56,5.07-4.56
		c2.26,0,3.28,1.01,4.49,1.01c0.62,0,1.13-0.31,1.4-0.98h0.39v5.93h-0.35c-0.62-3.2-2.85-5.42-6.13-5.42
		c-1.79,0-3.24,1.17-3.24,2.89c0,1.83,1.52,2.42,4.8,3.28c4.25,1.13,6.16,2.34,6.16,5.42c0,3.12-2.38,4.96-5.74,4.96
		C304.69,94.64,302.78,93.27,301.84,93.27z"/>
	<path class="st0" d="M324.08,93.7h0.27c1.72,0,2.11-0.43,2.11-2.18V80.63c0-1.76-0.39-2.22-2.11-2.22h-0.27v-0.47l5.19-0.31
		l-0.19,4.8h0.08c1.05-3.16,3.51-4.84,6.05-4.84c3.16,0,4.6,1.95,4.6,5.81v8.12c0,1.76,0.39,2.18,2.15,2.18h0.08v0.55h-7.53V93.7
		h0.39c1.76,0,2.15-0.43,2.15-2.18v-9.09c0-2.73-1.17-3.59-2.73-3.59c-2.85,0-4.99,2.85-4.99,6.32v6.36c0,1.76,0.39,2.18,2.11,2.18
		h0.39v0.55h-7.73V93.7z"/>
	<path class="st0" d="M343.55,86.06c0-5.07,3.98-8.7,7.65-8.7c3.67,0,7.61,3.55,7.61,8.62c0,4.96-3.94,8.86-7.61,8.86
		C347.53,94.83,343.55,91.01,343.55,86.06z M355.53,86.1c0-4.53-1.17-8.19-4.33-8.19c-3.16,0-4.33,3.59-4.33,8.12
		c0,4.49,1.09,8.27,4.33,8.27C354.44,94.29,355.53,90.58,355.53,86.1z"/>
	<path class="st0" d="M362.75,89.76V78.53h-2.65v-0.47c2.5-0.43,4.56-2.15,4.96-7.18h0.51v7.02h5.27v0.62h-5.27v11.43
		c0,2.46,0.9,3.67,2.65,3.67c1.6,0,2.89-1.76,3.04-5.19h0.55c0,3.98-1.76,6.32-4.56,6.32C364.46,94.76,362.75,93.16,362.75,89.76z"
		/>
	<path class="st0" d="M372.97,93.7h0.31c1.72,0,2.11-0.43,2.11-2.18V80.67c0-1.79-0.39-2.22-2.11-2.22h-0.31v-0.51l5.19-0.31v13.89
		c0,1.76,0.39,2.18,2.11,2.18h0.31v0.55h-7.61V93.7z M374.25,71.39c0-1.17,0.98-2.15,2.15-2.15c1.17,0,2.15,0.98,2.15,2.15
		s-0.98,2.15-2.15,2.15C375.23,73.53,374.25,72.56,374.25,71.39z"/>
	<path class="st0" d="M382.41,86.17c0-4.8,3.86-8.82,8.43-8.82c3.04,0,5.27,2.11,5.27,4.37c0,1.33-0.86,2.15-1.95,2.15
		c-1.05,0-1.79-0.9-1.79-1.83c0-0.82,0.51-1.56,1.4-1.79c0.47-0.12,0.82,0.08,0.82-0.23c0-0.7-1.37-2.03-3.82-2.03
		c-3.51,0-4.96,3.32-4.96,8c0,4.29,1.72,7.53,5.27,7.53c2.34,0,3.9-1.25,5.07-2.81l0.39,0.27c-1.33,2.22-3.75,3.86-6.75,3.86
		C385.88,94.83,382.41,91.48,382.41,86.17z"/>
	<path class="st0" d="M398.05,86.17c0-5.27,3.67-8.82,7.57-8.82c3.12,0,6.71,2.42,6.71,7.45c0,0.12-0.04,0.98-0.08,1.17h-11
		c0,4.29,1.72,7.61,5.07,7.61c3,0,4.53-1.52,5.81-3.39l0.43,0.31c-1.44,2.42-3.71,4.33-7.1,4.33
		C400.98,94.83,398.05,91.52,398.05,86.17z M407.11,85.35c1.56,0,1.99-0.51,1.99-1.76c0-3.12-1.09-5.66-3.59-5.66
		c-2.73,0-4.14,2.93-4.25,7.41H407.11z"/>
	<path class="st0" d="M414.71,86.1c0-4.84,3.08-8.58,6.87-8.58c2.34,0,4.17,1.64,5.38,4.02h0.12c-0.08-1.09-0.12-3.43-0.12-5.89
		v-5.31c0-1.79-0.43-2.22-2.15-2.22h-0.98v-0.55l5.89-0.58v24.35c0,1.76,0.35,2.26,2.07,2.26h0.31v0.55l-5.15,0.59l0.16-4.37H427
		c-1.29,2.38-2.93,4.29-5.58,4.29C418.19,94.64,414.71,91.4,414.71,86.1z M426.96,86.06c0-5.81-3.24-7.96-4.92-7.96
		c-3.2,0-4.06,3.63-4.06,7.88c0,4.33,1.05,8.04,4.02,8.04C424.04,94.02,426.96,91.21,426.96,86.06z"/>
	<path class="st0" d="M442.92,90.93c0-3.32,2.97-5.07,10.3-6.79v-1.13c0-3.75-1.48-5.03-3.82-5.03c-2.11,0-3.9,0.9-3.9,1.6
		c0,0.12,0.04,0.16,0.19,0.16c0.78,0,1.64,0.74,1.64,1.72c0,1.01-0.78,1.79-1.76,1.79c-1.01,0-1.76-0.74-1.76-1.87
		c0-2.03,2.15-3.94,6.32-3.94c3.12,0,5.85,1.13,5.85,5.74v8c0,1.64,0.47,2.15,1.01,2.15c0.94,0,1.33-0.98,1.37-3.12h0.55
		c-0.08,3.71-1.37,4.41-2.97,4.41c-1.52,0-2.93-0.86-2.73-3.67h-0.08c-0.74,2.03-3.08,3.75-5.81,3.75
		C444.83,94.68,442.92,93.43,442.92,90.93z M453.22,87.58v-2.81c-5.97,1.21-7.06,3.28-7.06,5.5c0,1.76,0.94,3.04,2.73,3.04
		C450.8,93.31,453.22,91.91,453.22,87.58z"/>
	<path class="st0" d="M459.78,93.7h0.27c1.72,0,2.11-0.43,2.11-2.18V80.63c0-1.76-0.39-2.22-2.11-2.22h-0.27v-0.47l5.19-0.31
		l-0.19,4.8h0.08c1.05-3.16,3.51-4.84,6.05-4.84c3.16,0,4.6,1.95,4.6,5.81v8.12c0,1.76,0.39,2.18,2.15,2.18h0.08v0.55h-7.53V93.7
		h0.39c1.76,0,2.15-0.43,2.15-2.18v-9.09c0-2.73-1.17-3.59-2.73-3.59c-2.85,0-4.99,2.85-4.99,6.32v6.36c0,1.76,0.39,2.18,2.11,2.18
		h0.39v0.55h-7.73V93.7z"/>
	<path class="st0" d="M27.88,130.72h0.31c1.72,0,2.11-0.43,2.11-2.19v-10.85c0-1.79-0.39-2.22-2.11-2.22h-0.31v-0.51l5.19-0.31
		v13.89c0,1.76,0.39,2.19,2.11,2.19h0.31v0.55h-7.61V130.72z M29.16,108.4c0-1.17,0.98-2.15,2.15-2.15c1.17,0,2.15,0.98,2.15,2.15
		s-0.98,2.15-2.15,2.15C30.14,110.55,29.16,109.57,29.16,108.4z"/>
	<path class="st0" d="M36.89,130.72h0.27c1.72,0,2.11-0.43,2.11-2.19v-10.89c0-1.76-0.39-2.22-2.11-2.22h-0.27v-0.47l5.19-0.31
		l-0.19,4.8h0.08c1.01-3.04,3.39-4.84,5.93-4.84c2.97,0,4.14,1.87,4.45,4.41c1.21-2.73,3.36-4.41,5.81-4.41
		c3.16,0,4.49,1.95,4.49,5.81v8.12c0,1.76,0.39,2.19,2.15,2.19h0.08v0.55h-7.53v-0.55h0.39c1.76,0,2.15-0.43,2.15-2.19v-9.09
		c0-2.73-1.05-3.59-2.61-3.59c-2.85,0-4.88,3.12-4.88,6.32v6.36c0,1.76,0.39,2.19,2.15,2.19h0.35v0.55h-7.8v-0.55h0.39
		c1.76,0,2.15-0.43,2.15-2.19v-9.09c0-2.73-1.05-3.59-2.61-3.59c-2.81,0-4.88,3-4.88,6.32v6.36c0,1.76,0.39,2.19,2.11,2.19h0.39
		v0.55h-7.73V130.72z"/>
	<path class="st0" d="M65.49,138.68h0.47c1.72,0,2.11-0.43,2.11-2.22v-18.77c0-1.79-0.39-2.22-2.11-2.22h-0.27v-0.51l5.07-0.31
		l-0.12,3.98h0.08c1.25-2.42,2.93-4.1,5.46-4.1c3.2,0,6.83,3.32,6.83,8.54c0,5.15-3.55,8.58-6.98,8.58c-2.65,0-4.29-1.83-5.35-4.21
		h-0.04c0,0,0.16,2.42,0.16,4.88v4.14c0,1.79,0.39,2.22,2.11,2.22h0.9v0.55h-8.31V138.68z M79.73,123.15c0-4.06-0.94-8-3.94-8
		c-1.91,0-5.03,2.26-5.03,7.96c0,4.02,2.15,7.92,4.96,7.92C78.71,131.03,79.73,127.36,79.73,123.15z"/>
	<path class="st0" d="M84.84,130.72h0.27c1.72,0,2.11-0.43,2.11-2.19v-10.92c0-1.76-0.47-2.19-2.11-2.19h-0.27v-0.47l5.19-0.31
		l-0.27,6.59h0.08c1.21-4.25,3.16-6.79,5.74-6.79c1.99,0,3.12,1.17,3.12,2.54c0,1.52-0.86,2.3-1.95,2.3c-0.98,0-1.76-0.62-1.76-1.6
		c0-0.86,0.47-1.25,0.82-1.56c0.2-0.16,0.31-0.27,0.31-0.47c0-0.31-0.39-0.39-0.86-0.39c-2.81,0-5.19,5.54-5.19,8.62v4.64
		c0,1.76,0.39,2.19,2.11,2.19h0.9v0.55h-8.23V130.72z"/>
	<path class="st0" d="M99.51,123.07c0-5.07,3.98-8.7,7.65-8.7c3.67,0,7.61,3.55,7.61,8.62c0,4.96-3.94,8.86-7.61,8.86
		C103.49,131.85,99.51,128.03,99.51,123.07z M111.49,123.11c0-4.53-1.17-8.19-4.33-8.19c-3.16,0-4.33,3.59-4.33,8.12
		c0,4.49,1.09,8.27,4.33,8.27C110.39,131.3,111.49,127.6,111.49,123.11z"/>
	<path class="st0" d="M118.04,118c-0.74-1.76-1.21-2.42-2.81-2.54v-0.51h7.8v0.51c-1.56,0.12-1.99,0.51-2.03,1.13
		c-0.04,0.59,0.16,1.33,0.43,2.03l3.75,9.95l3.47-8.97c0.35-0.94,0.74-1.91,0.74-2.65c0-1.01-0.66-1.37-2.15-1.48v-0.51h5.62v0.51
		c-1.6,0.12-2.11,1.01-2.73,2.54l-5.77,14.05h-0.55L118.04,118z"/>
	<path class="st0" d="M133.18,123.19c0-5.27,3.67-8.82,7.57-8.82c3.12,0,6.71,2.42,6.71,7.45c0,0.12-0.04,0.98-0.08,1.17h-11
		c0,4.29,1.72,7.61,5.07,7.61c3,0,4.53-1.52,5.81-3.39l0.43,0.31c-1.44,2.42-3.71,4.33-7.1,4.33
		C136.1,131.85,133.18,128.53,133.18,123.19z M142.23,122.37c1.56,0,1.99-0.51,1.99-1.76c0-3.12-1.09-5.66-3.59-5.66
		c-2.73,0-4.14,2.93-4.25,7.41H142.23z"/>
	<path class="st0" d="M149.41,130.72h0.27c1.72,0,2.11-0.43,2.11-2.19v-10.89c0-1.76-0.39-2.22-2.11-2.22h-0.27v-0.47l5.19-0.31
		l-0.19,4.8h0.08c1.01-3.04,3.39-4.84,5.93-4.84c2.97,0,4.14,1.87,4.45,4.41c1.21-2.73,3.36-4.41,5.81-4.41
		c3.16,0,4.49,1.95,4.49,5.81v8.12c0,1.76,0.39,2.19,2.15,2.19h0.08v0.55h-7.53v-0.55h0.39c1.76,0,2.15-0.43,2.15-2.19v-9.09
		c0-2.73-1.05-3.59-2.61-3.59c-2.85,0-4.88,3.12-4.88,6.32v6.36c0,1.76,0.39,2.19,2.15,2.19h0.35v0.55h-7.8v-0.55h0.39
		c1.76,0,2.15-0.43,2.15-2.19v-9.09c0-2.73-1.05-3.59-2.61-3.59c-2.81,0-4.88,3-4.88,6.32v6.36c0,1.76,0.39,2.19,2.11,2.19h0.39
		v0.55h-7.73V130.72z"/>
	<path class="st0" d="M178.9,123.19c0-5.27,3.67-8.82,7.57-8.82c3.12,0,6.71,2.42,6.71,7.45c0,0.12-0.04,0.98-0.08,1.17h-11
		c0,4.29,1.72,7.61,5.07,7.61c3,0,4.53-1.52,5.81-3.39l0.43,0.31c-1.44,2.42-3.71,4.33-7.1,4.33
		C181.83,131.85,178.9,128.53,178.9,123.19z M187.96,122.37c1.56,0,1.99-0.51,1.99-1.76c0-3.12-1.09-5.66-3.59-5.66
		c-2.73,0-4.14,2.93-4.25,7.41H187.96z"/>
	<path class="st0" d="M195.14,130.72h0.27c1.72,0,2.11-0.43,2.11-2.19v-10.89c0-1.76-0.39-2.22-2.11-2.22h-0.27v-0.47l5.19-0.31
		l-0.19,4.8h0.08c1.05-3.16,3.51-4.84,6.05-4.84c3.16,0,4.6,1.95,4.6,5.81v8.12c0,1.76,0.39,2.19,2.15,2.19h0.08v0.55h-7.53v-0.55
		h0.39c1.76,0,2.15-0.43,2.15-2.19v-9.09c0-2.73-1.17-3.59-2.73-3.59c-2.85,0-4.99,2.85-4.99,6.32v6.36c0,1.76,0.39,2.19,2.11,2.19
		h0.39v0.55h-7.73V130.72z"/>
	<path class="st0" d="M216.28,126.78v-11.24h-2.65v-0.47c2.5-0.43,4.56-2.15,4.96-7.18h0.51v7.02h5.27v0.62h-5.27v11.43
		c0,2.46,0.9,3.67,2.65,3.67c1.6,0,2.89-1.76,3.04-5.19h0.55c0,3.98-1.76,6.32-4.56,6.32C218,131.77,216.28,130.17,216.28,126.78z"
		/>
	<path class="st0" d="M235.83,130.72h0.31c1.72,0,2.11-0.43,2.11-2.19v-10.85c0-1.79-0.39-2.22-2.11-2.22h-0.31v-0.51l5.19-0.31
		v13.89c0,1.76,0.39,2.19,2.11,2.19h0.31v0.55h-7.61V130.72z M237.12,108.4c0-1.17,0.98-2.15,2.15-2.15c1.17,0,2.15,0.98,2.15,2.15
		s-0.98,2.15-2.15,2.15C238.09,110.55,237.12,109.57,237.12,108.4z"/>
	<path class="st0" d="M244.84,130.72h0.27c1.72,0,2.11-0.43,2.11-2.19v-10.89c0-1.76-0.39-2.22-2.11-2.22h-0.27v-0.47l5.19-0.31
		l-0.19,4.8h0.08c1.05-3.16,3.51-4.84,6.05-4.84c3.16,0,4.6,1.95,4.6,5.81v8.12c0,1.76,0.39,2.19,2.15,2.19h0.08v0.55h-7.53v-0.55
		h0.39c1.76,0,2.15-0.43,2.15-2.19v-9.09c0-2.73-1.17-3.59-2.73-3.59c-2.85,0-4.99,2.85-4.99,6.32v6.36c0,1.76,0.39,2.19,2.11,2.19
		h0.39v0.55h-7.73V130.72z"/>
	<path class="st0" d="M273.28,130.72h0.27c1.6,0,2.11-0.39,2.11-2.19v-21.19c0-1.79-0.39-2.26-2.11-2.26h-0.35v-0.55l5.19-0.58
		v10.34l-0.19,5.15h0.08c0.94-2.81,3.2-4.84,6.05-4.84c3.16,0,4.6,1.95,4.6,5.81v8.12c0,1.76,0.39,2.19,2.15,2.19h0.08v0.55h-7.53
		v-0.55h0.39c1.76,0,2.15-0.43,2.15-2.19v-9.09c0-2.73-1.17-3.59-2.73-3.59c-2.85,0-4.99,2.89-4.99,6.28v6.4
		c0,1.76,0.39,2.19,2.11,2.19h0.39v0.55h-7.65V130.72z"/>
	<path class="st0" d="M292.71,123.07c0-5.07,3.98-8.7,7.65-8.7c3.67,0,7.61,3.55,7.61,8.62c0,4.96-3.94,8.86-7.61,8.86
		C296.69,131.85,292.71,128.03,292.71,123.07z M304.69,123.11c0-4.53-1.17-8.19-4.33-8.19c-3.16,0-4.33,3.59-4.33,8.12
		c0,4.49,1.09,8.27,4.33,8.27C303.6,131.3,304.69,127.6,304.69,123.11z"/>
	<path class="st0" d="M311.25,118.04c-0.66-1.68-1.29-2.46-2.85-2.58v-0.51h7.57v0.51c-1.37,0.12-1.95,0.51-1.99,1.13
		c-0.04,0.51,0.12,1.09,0.43,1.95l3.51,10.03l3.2-8.27l-0.9-2.73c-0.43-1.37-0.86-1.87-2.42-2.11v-0.51h7.22v0.51
		c-1.33,0.12-2.03,0.51-2.07,1.13c-0.04,0.51,0.16,1.09,0.43,1.99l3.08,9.83l3.08-8.82c0.35-1.01,0.62-1.91,0.62-2.65
		c0-1.01-0.7-1.37-2.15-1.48v-0.51h5.62v0.51c-1.56,0.12-2.07,1.05-2.65,2.58l-5.31,14.01h-0.55l-3.63-10.69l-4.41,10.69h-0.51
		L311.25,118.04z"/>
	<path class="st0" d="M345.81,118.04c-0.66-1.68-1.29-2.46-2.85-2.58v-0.51h7.57v0.51c-1.37,0.12-1.95,0.51-1.99,1.13
		c-0.04,0.51,0.12,1.09,0.43,1.95l3.51,10.03l3.2-8.27l-0.9-2.73c-0.43-1.37-0.86-1.87-2.42-2.11v-0.51h7.22v0.51
		c-1.33,0.12-2.03,0.51-2.07,1.13c-0.04,0.51,0.16,1.09,0.43,1.99l3.08,9.83l3.08-8.82c0.35-1.01,0.62-1.91,0.62-2.65
		c0-1.01-0.7-1.37-2.15-1.48v-0.51h5.62v0.51c-1.56,0.12-2.07,1.05-2.65,2.58l-5.31,14.01h-0.55l-3.63-10.69l-4.41,10.69h-0.51
		L345.81,118.04z"/>
	<path class="st0" d="M368.56,123.19c0-5.27,3.67-8.82,7.57-8.82c3.12,0,6.71,2.42,6.71,7.45c0,0.12-0.04,0.98-0.08,1.17h-11
		c0,4.29,1.72,7.61,5.07,7.61c3,0,4.53-1.52,5.81-3.39l0.43,0.31c-1.44,2.42-3.71,4.33-7.1,4.33
		C371.49,131.85,368.56,128.53,368.56,123.19z M377.61,122.37c1.56,0,1.99-0.51,1.99-1.76c0-3.12-1.09-5.66-3.59-5.66
		c-2.73,0-4.14,2.93-4.25,7.41H377.61z"/>
	<path class="st0" d="M384.79,130.72h0.16c1.76,0,2.15-0.47,2.15-2.34v-20.95c0-1.87-0.39-2.34-2.15-2.34h-0.31v-0.55l5.23-0.58
		v24.42c0,1.87,0.39,2.34,2.11,2.34h0.31v0.55h-7.49V130.72z"/>
	<path class="st0" d="M393.61,130.72h0.16c1.76,0,2.15-0.47,2.15-2.34v-20.95c0-1.87-0.39-2.34-2.15-2.34h-0.31v-0.55l5.23-0.58
		v24.42c0,1.87,0.39,2.34,2.11,2.34h0.31v0.55h-7.49V130.72z"/>
	<path class="st0" d="M413.86,126.78v-11.24h-2.65v-0.47c2.5-0.43,4.56-2.15,4.96-7.18h0.51v7.02h5.27v0.62h-5.27v11.43
		c0,2.46,0.9,3.67,2.65,3.67c1.6,0,2.89-1.76,3.04-5.19h0.55c0,3.98-1.76,6.32-4.56,6.32C415.57,131.77,413.86,130.17,413.86,126.78
		z"/>
	<path class="st0" d="M423.69,130.72h0.27c1.6,0,2.11-0.39,2.11-2.19v-21.19c0-1.79-0.39-2.26-2.11-2.26h-0.35v-0.55l5.19-0.58
		v10.34l-0.19,5.15h0.08c0.94-2.81,3.2-4.84,6.05-4.84c3.16,0,4.6,1.95,4.6,5.81v8.12c0,1.76,0.39,2.19,2.15,2.19h0.08v0.55h-7.53
		v-0.55h0.39c1.76,0,2.15-0.43,2.15-2.19v-9.09c0-2.73-1.17-3.59-2.73-3.59c-2.85,0-4.99,2.89-4.99,6.28v6.4
		c0,1.76,0.39,2.19,2.11,2.19h0.39v0.55h-7.65V130.72z"/>
	<path class="st0" d="M443.12,123.19c0-5.27,3.67-8.82,7.57-8.82c3.12,0,6.71,2.42,6.71,7.45c0,0.12-0.04,0.98-0.08,1.17h-11
		c0,4.29,1.72,7.61,5.07,7.61c3,0,4.53-1.52,5.81-3.39l0.43,0.31c-1.44,2.42-3.71,4.33-7.1,4.33
		C446.04,131.85,443.12,128.53,443.12,123.19z M452.17,122.37c1.56,0,1.99-0.51,1.99-1.76c0-3.12-1.09-5.66-3.59-5.66
		c-2.73,0-4.14,2.93-4.25,7.41H452.17z"/>
	<path class="st0" d="M459.43,130.72h0.31c1.72,0,2.11-0.43,2.11-2.19v-10.85c0-1.79-0.39-2.22-2.11-2.22h-0.31v-0.51l5.19-0.31
		v13.89c0,1.76,0.39,2.19,2.11,2.19h0.31v0.55h-7.61V130.72z M460.71,108.4c0-1.17,0.98-2.15,2.15-2.15c1.17,0,2.15,0.98,2.15,2.15
		s-0.98,2.15-2.15,2.15C461.69,110.55,460.71,109.57,460.71,108.4z"/>
	<path class="st0" d="M468.44,130.72h0.27c1.72,0,2.11-0.43,2.11-2.19v-10.92c0-1.76-0.47-2.19-2.11-2.19h-0.27v-0.47l5.19-0.31
		l-0.27,6.59h0.08c1.21-4.25,3.16-6.79,5.74-6.79c1.99,0,3.12,1.17,3.12,2.54c0,1.52-0.86,2.3-1.95,2.3c-0.98,0-1.76-0.62-1.76-1.6
		c0-0.86,0.47-1.25,0.82-1.56c0.2-0.16,0.31-0.27,0.31-0.47c0-0.31-0.39-0.39-0.86-0.39c-2.81,0-5.19,5.54-5.19,8.62v4.64
		c0,1.76,0.39,2.19,2.11,2.19h0.9v0.55h-8.23V130.72z"/>
	<path class="st0" d="M28.23,160.2c0-4.8,3.86-8.82,8.43-8.82c3.04,0,5.27,2.11,5.27,4.37c0,1.33-0.86,2.15-1.95,2.15
		c-1.05,0-1.79-0.9-1.79-1.83c0-0.82,0.51-1.56,1.4-1.79c0.47-0.12,0.82,0.08,0.82-0.23c0-0.7-1.37-2.03-3.82-2.03
		c-3.51,0-4.96,3.32-4.96,8c0,4.29,1.72,7.53,5.27,7.53c2.34,0,3.9-1.25,5.07-2.81l0.39,0.27c-1.33,2.22-3.75,3.86-6.75,3.86
		C31.7,168.87,28.23,165.51,28.23,160.2z"/>
	<path class="st0" d="M43.44,167.73h0.16c1.76,0,2.15-0.47,2.15-2.34v-20.95c0-1.87-0.39-2.34-2.15-2.34h-0.31v-0.55l5.23-0.58
		v24.42c0,1.87,0.39,2.34,2.11,2.34h0.31v0.55h-7.49V167.73z"/>
	<path class="st0" d="M52.69,160.09c0-5.07,3.98-8.7,7.65-8.7c3.67,0,7.61,3.55,7.61,8.62c0,4.96-3.94,8.86-7.61,8.86
		C56.67,168.87,52.69,165.04,52.69,160.09z M64.67,160.13c0-4.53-1.17-8.19-4.33-8.19c-3.16,0-4.33,3.59-4.33,8.12
		c0,4.49,1.09,8.27,4.33,8.27C63.58,168.32,64.67,164.61,64.67,160.13z"/>
	<path class="st0" d="M71.89,163.79v-11.24h-2.65v-0.47c2.5-0.43,4.56-2.15,4.96-7.18h0.51v7.02h5.27v0.62h-5.27v11.43
		c0,2.46,0.9,3.67,2.65,3.67c1.6,0,2.89-1.76,3.04-5.19h0.55c0,3.98-1.76,6.32-4.56,6.32C73.6,168.79,71.89,167.19,71.89,163.79z"/>
	<path class="st0" d="M81.72,167.73h0.27c1.6,0,2.11-0.39,2.11-2.19v-21.19c0-1.79-0.39-2.26-2.11-2.26h-0.35v-0.55l5.19-0.58v10.34
		l-0.19,5.15h0.08c0.94-2.81,3.2-4.84,6.05-4.84c3.16,0,4.6,1.95,4.6,5.81v8.12c0,1.76,0.39,2.19,2.15,2.19h0.08v0.55h-7.53v-0.55
		h0.39c1.76,0,2.15-0.43,2.15-2.19v-9.09c0-2.73-1.17-3.59-2.73-3.59c-2.85,0-4.99,2.89-4.99,6.28v6.4c0,1.76,0.39,2.19,2.11,2.19
		h0.39v0.55h-7.65V167.73z"/>
	<path class="st0" d="M101.15,160.2c0-5.27,3.67-8.82,7.57-8.82c3.12,0,6.71,2.42,6.71,7.45c0,0.12-0.04,0.98-0.08,1.17h-11
		c0,4.29,1.72,7.61,5.07,7.61c3,0,4.53-1.52,5.81-3.39l0.43,0.31c-1.44,2.42-3.71,4.33-7.1,4.33
		C104.07,168.87,101.15,165.55,101.15,160.2z M110.2,159.38c1.56,0,1.99-0.51,1.99-1.76c0-3.12-1.09-5.66-3.59-5.66
		c-2.73,0-4.14,2.93-4.25,7.41H110.2z"/>
	<path class="st0" d="M120.23,167.3c-0.59,0-1.09,0.47-1.4,1.33h-0.39V162h0.35c0.66,3.82,3.78,6.12,6.87,6.12
		c2.3,0,3.94-1.33,3.94-3.16c0-1.76-1.21-2.42-5.15-3.55c-3.43-0.98-5.81-1.87-5.81-5.27c0-2.81,2.11-4.57,5.07-4.57
		c2.26,0,3.28,1.01,4.49,1.01c0.62,0,1.13-0.31,1.4-0.98h0.39v5.93h-0.35c-0.62-3.2-2.85-5.42-6.13-5.42
		c-1.79,0-3.24,1.17-3.24,2.89c0,1.83,1.52,2.42,4.8,3.28c4.25,1.13,6.17,2.34,6.17,5.42c0,3.12-2.38,4.96-5.74,4.96
		C123.07,168.67,121.16,167.3,120.23,167.3z"/>
	<path class="st0" d="M142.93,167.7h0.31c1.72,0,2.11-0.47,2.11-2.22v-12.91h-2.42v-0.58h2.42v-1.99c0-5.31,2.5-8.93,7.49-8.93
		c3.47,0,5.11,1.68,5.11,3.2c0,1.09-0.86,1.87-1.76,1.87c-0.98,0-1.79-0.55-1.79-1.6c0-0.66,0.31-1.09,0.62-1.37
		c0.19-0.16,0.35-0.31,0.35-0.47c0-0.51-0.98-1.09-2.69-1.09c-3.2,0-4.53,2.85-4.53,7.18v3.2h4.56l5.58-0.35v13.85
		c0,1.76,0.39,2.22,2.11,2.22h0.31v0.58h-7.65v-0.58h0.31c1.72,0,2.11-0.47,2.11-2.22v-10.65c0-1.83-0.39-2.26-2.11-2.26h-5.23
		v12.91c0,1.76,0.39,2.22,2.11,2.22h0.94v0.58h-8.27V167.7z"/>
	<path class="st0" d="M164.23,163.79v-11.24h-2.65v-0.47c2.5-0.43,4.56-2.15,4.96-7.18h0.51v7.02h5.27v0.62h-5.27v11.43
		c0,2.46,0.9,3.67,2.65,3.67c1.6,0,2.89-1.76,3.04-5.19h0.55c0,3.98-1.76,6.32-4.56,6.32C165.95,168.79,164.23,167.19,164.23,163.79
		z"/>
	<path class="st0" d="M184.13,160.09c0-5.07,3.98-8.7,7.65-8.7c3.67,0,7.61,3.55,7.61,8.62c0,4.96-3.94,8.86-7.61,8.86
		C188.11,168.87,184.13,165.04,184.13,160.09z M196.11,160.13c0-4.53-1.17-8.19-4.33-8.19c-3.16,0-4.33,3.59-4.33,8.12
		c0,4.49,1.09,8.27,4.33,8.27C195.02,168.32,196.11,164.61,196.11,160.13z"/>
	<path class="st0" d="M202.67,155.01c-0.74-1.76-1.21-2.42-2.81-2.54v-0.51h7.8v0.51c-1.56,0.12-1.99,0.51-2.03,1.13
		c-0.04,0.58,0.16,1.33,0.43,2.03l3.75,9.95l3.47-8.97c0.35-0.94,0.74-1.91,0.74-2.65c0-1.01-0.66-1.37-2.15-1.48v-0.51h5.62v0.51
		c-1.6,0.12-2.11,1.01-2.73,2.54l-5.77,14.05h-0.55L202.67,155.01z"/>
	<path class="st0" d="M217.8,160.2c0-5.27,3.67-8.82,7.57-8.82c3.12,0,6.71,2.42,6.71,7.45c0,0.12-0.04,0.98-0.08,1.17h-11
		c0,4.29,1.72,7.61,5.07,7.61c3,0,4.53-1.52,5.81-3.39l0.43,0.31c-1.44,2.42-3.71,4.33-7.1,4.33
		C220.73,168.87,217.8,165.55,217.8,160.2z M226.85,159.38c1.56,0,1.99-0.51,1.99-1.76c0-3.12-1.09-5.66-3.59-5.66
		c-2.73,0-4.14,2.93-4.25,7.41H226.85z"/>
	<path class="st0" d="M234.03,167.73h0.27c1.72,0,2.11-0.43,2.11-2.19v-10.92c0-1.75-0.47-2.18-2.11-2.18h-0.27v-0.47l5.19-0.31
		l-0.27,6.59h0.08c1.21-4.25,3.16-6.79,5.74-6.79c1.99,0,3.12,1.17,3.12,2.54c0,1.52-0.86,2.3-1.95,2.3c-0.98,0-1.76-0.62-1.76-1.6
		c0-0.86,0.47-1.25,0.82-1.56c0.2-0.16,0.31-0.27,0.31-0.47c0-0.31-0.39-0.39-0.86-0.39c-2.81,0-5.19,5.54-5.19,8.62v4.64
		c0,1.76,0.39,2.19,2.11,2.19h0.9v0.55h-8.23V167.73z"/>
	<path class="st0" d="M260.1,163.79v-11.24h-2.65v-0.47c2.5-0.43,4.56-2.15,4.96-7.18h0.51v7.02h5.27v0.62h-5.27v11.43
		c0,2.46,0.9,3.67,2.65,3.67c1.6,0,2.89-1.76,3.04-5.19h0.55c0,3.98-1.76,6.32-4.56,6.32C261.81,168.79,260.1,167.19,260.1,163.79z"
		/>
	<path class="st0" d="M270.24,167.73h0.27c1.72,0,2.11-0.43,2.11-2.19v-10.92c0-1.75-0.47-2.18-2.11-2.18h-0.27v-0.47l5.19-0.31
		l-0.27,6.59h0.08c1.21-4.25,3.16-6.79,5.74-6.79c1.99,0,3.12,1.17,3.12,2.54c0,1.52-0.86,2.3-1.95,2.3c-0.98,0-1.76-0.62-1.76-1.6
		c0-0.86,0.47-1.25,0.82-1.56c0.2-0.16,0.31-0.27,0.31-0.47c0-0.31-0.39-0.39-0.86-0.39c-2.81,0-5.19,5.54-5.19,8.62v4.64
		c0,1.76,0.39,2.19,2.11,2.19h0.9v0.55h-8.23V167.73z"/>
	<path class="st0" d="M284.91,160.2c0-5.27,3.67-8.82,7.57-8.82c3.12,0,6.71,2.42,6.71,7.45c0,0.12-0.04,0.98-0.08,1.17h-11
		c0,4.29,1.72,7.61,5.07,7.61c3,0,4.53-1.52,5.81-3.39l0.43,0.31c-1.44,2.42-3.71,4.33-7.1,4.33
		C287.83,168.87,284.91,165.55,284.91,160.2z M293.96,159.38c1.56,0,1.99-0.51,1.99-1.76c0-3.12-1.09-5.66-3.59-5.66
		c-2.73,0-4.14,2.93-4.25,7.41H293.96z"/>
	<path class="st0" d="M301.49,164.96c0-3.32,2.97-5.07,10.3-6.79v-1.13c0-3.75-1.48-5.03-3.82-5.03c-2.11,0-3.9,0.9-3.9,1.6
		c0,0.12,0.04,0.16,0.19,0.16c0.78,0,1.64,0.74,1.64,1.72c0,1.01-0.78,1.79-1.76,1.79c-1.01,0-1.76-0.74-1.76-1.87
		c0-2.03,2.15-3.94,6.32-3.94c3.12,0,5.85,1.13,5.85,5.74v8c0,1.64,0.47,2.15,1.01,2.15c0.94,0,1.33-0.98,1.37-3.12h0.55
		c-0.08,3.71-1.37,4.41-2.97,4.41c-1.52,0-2.93-0.86-2.73-3.67h-0.08c-0.74,2.03-3.08,3.75-5.81,3.75
		C303.4,168.71,301.49,167.46,301.49,164.96z M311.79,161.61v-2.81c-5.97,1.21-7.06,3.28-7.06,5.5c0,1.76,0.94,3.04,2.73,3.04
		C309.37,167.34,311.79,165.94,311.79,161.61z"/>
	<path class="st0" d="M320.06,163.79v-11.24h-2.65v-0.47c2.5-0.43,4.56-2.15,4.96-7.18h0.51v7.02h5.27v0.62h-5.27v11.43
		c0,2.46,0.9,3.67,2.65,3.67c1.6,0,2.89-1.76,3.04-5.19h0.55c0,3.98-1.76,6.32-4.56,6.32C321.78,168.79,320.06,167.19,320.06,163.79
		z"/>
	<path class="st0" d="M330.64,160.2c0-5.27,3.67-8.82,7.57-8.82c3.12,0,6.71,2.42,6.71,7.45c0,0.12-0.04,0.98-0.08,1.17h-11
		c0,4.29,1.72,7.61,5.07,7.61c3,0,4.53-1.52,5.81-3.39l0.43,0.31c-1.44,2.42-3.71,4.33-7.1,4.33
		C333.56,168.87,330.64,165.55,330.64,160.2z M339.69,159.38c1.56,0,1.99-0.51,1.99-1.76c0-3.12-1.09-5.66-3.59-5.66
		c-2.73,0-4.14,2.93-4.25,7.41H339.69z"/>
	<path class="st0" d="M347.29,160.13c0-4.84,3.08-8.58,6.87-8.58c2.34,0,4.17,1.64,5.38,4.02h0.12c-0.08-1.09-0.12-3.43-0.12-5.89
		v-5.31c0-1.79-0.43-2.22-2.15-2.22h-0.98v-0.55l5.89-0.58v24.35c0,1.75,0.35,2.26,2.07,2.26h0.31v0.55l-5.15,0.58l0.16-4.37h-0.12
		c-1.29,2.38-2.93,4.29-5.58,4.29C350.77,168.67,347.29,165.43,347.29,160.13z M359.55,160.09c0-5.81-3.24-7.96-4.92-7.96
		c-3.2,0-4.06,3.63-4.06,7.88c0,4.33,1.05,8.04,4.02,8.04C356.62,168.05,359.55,165.24,359.55,160.09z"/>
	<path class="st0" d="M375.5,164.96c0-3.32,2.97-5.07,10.3-6.79v-1.13c0-3.75-1.48-5.03-3.82-5.03c-2.11,0-3.9,0.9-3.9,1.6
		c0,0.12,0.04,0.16,0.19,0.16c0.78,0,1.64,0.74,1.64,1.72c0,1.01-0.78,1.79-1.76,1.79c-1.01,0-1.76-0.74-1.76-1.87
		c0-2.03,2.15-3.94,6.32-3.94c3.12,0,5.85,1.13,5.85,5.74v8c0,1.64,0.47,2.15,1.01,2.15c0.94,0,1.33-0.98,1.37-3.12h0.55
		c-0.08,3.71-1.37,4.41-2.97,4.41c-1.52,0-2.93-0.86-2.73-3.67h-0.08c-0.74,2.03-3.08,3.75-5.81,3.75
		C377.41,168.71,375.5,167.46,375.5,164.96z M385.8,161.61v-2.81c-5.97,1.21-7.06,3.28-7.06,5.5c0,1.76,0.94,3.04,2.73,3.04
		C383.38,167.34,385.8,165.94,385.8,161.61z"/>
	<path class="st0" d="M392.36,167.73h0.27c1.72,0,2.11-0.43,2.11-2.19v-10.92c0-1.75-0.47-2.18-2.11-2.18h-0.27v-0.47l5.19-0.31
		l-0.27,6.59h0.08c1.21-4.25,3.16-6.79,5.74-6.79c1.99,0,3.12,1.17,3.12,2.54c0,1.52-0.86,2.3-1.95,2.3c-0.98,0-1.76-0.62-1.76-1.6
		c0-0.86,0.47-1.25,0.82-1.56c0.2-0.16,0.31-0.27,0.31-0.47c0-0.31-0.39-0.39-0.86-0.39c-2.81,0-5.19,5.54-5.19,8.62v4.64
		c0,1.76,0.39,2.19,2.11,2.19h0.9v0.55h-8.23V167.73z"/>
	<path class="st0" d="M407.03,160.2c0-5.27,3.67-8.82,7.57-8.82c3.12,0,6.71,2.42,6.71,7.45c0,0.12-0.04,0.98-0.08,1.17h-11
		c0,4.29,1.72,7.61,5.07,7.61c3,0,4.53-1.52,5.81-3.39l0.43,0.31c-1.44,2.42-3.71,4.33-7.1,4.33
		C409.95,168.87,407.03,165.55,407.03,160.2z M416.08,159.38c1.56,0,1.99-0.51,1.99-1.76c0-3.12-1.09-5.66-3.59-5.66
		c-2.73,0-4.14,2.93-4.25,7.41H416.08z"/>
	<path class="st0" d="M423.61,164.96c0-3.32,2.97-5.07,10.3-6.79v-1.13c0-3.75-1.48-5.03-3.82-5.03c-2.11,0-3.9,0.9-3.9,1.6
		c0,0.12,0.04,0.16,0.19,0.16c0.78,0,1.64,0.74,1.64,1.72c0,1.01-0.78,1.79-1.76,1.79c-1.01,0-1.76-0.74-1.76-1.87
		c0-2.03,2.15-3.94,6.32-3.94c3.12,0,5.85,1.13,5.85,5.74v8c0,1.64,0.47,2.15,1.01,2.15c0.94,0,1.33-0.98,1.37-3.12h0.55
		c-0.08,3.71-1.37,4.41-2.97,4.41c-1.52,0-2.93-0.86-2.73-3.67h-0.08c-0.74,2.03-3.08,3.75-5.81,3.75
		C425.52,168.71,423.61,167.46,423.61,164.96z M433.91,161.61v-2.81c-5.97,1.21-7.06,3.28-7.06,5.5c0,1.76,0.94,3.04,2.73,3.04
		C431.49,167.34,433.91,165.94,433.91,161.61z"/>
	<path class="st0" d="M443.31,167.3c-0.59,0-1.09,0.47-1.4,1.33h-0.39V162h0.35c0.66,3.82,3.78,6.12,6.87,6.12
		c2.3,0,3.94-1.33,3.94-3.16c0-1.76-1.21-2.42-5.15-3.55c-3.43-0.98-5.81-1.87-5.81-5.27c0-2.81,2.11-4.57,5.07-4.57
		c2.26,0,3.28,1.01,4.49,1.01c0.62,0,1.13-0.31,1.4-0.98h0.39v5.93h-0.35c-0.62-3.2-2.85-5.42-6.13-5.42
		c-1.79,0-3.24,1.17-3.24,2.89c0,1.83,1.52,2.42,4.8,3.28c4.25,1.13,6.16,2.34,6.16,5.42c0,3.12-2.38,4.96-5.74,4.96
		C446.16,168.67,444.25,167.3,443.31,167.3z"/>
	<path class="st0" d="M457.63,166.33c0-1.25,0.98-2.22,2.22-2.22s2.22,0.98,2.22,2.22c0,1.25-0.98,2.22-2.22,2.22
		S457.63,167.58,457.63,166.33z"/>
	<path class="st0" d="M463.46,146.1c0.39-0.5,1.39-1.43,2-2.3c-1.02-0.34-2.37-0.5-2.96-0.68c-0.61-0.18-0.89-0.48-0.82-0.68
		c0.07-0.23,0.46-0.32,1.07-0.09c0.59,0.23,1.77,0.86,2.8,1.18c0-1.07-0.27-2.39-0.27-3.03c0-0.61,0.18-0.98,0.41-0.98
		s0.41,0.36,0.41,0.98c0,0.64-0.27,1.96-0.27,3.03c1.02-0.32,2.21-0.98,2.8-1.18c0.57-0.21,1.02-0.16,1.07,0.09
		c0.05,0.21-0.2,0.5-0.82,0.68c-0.59,0.18-1.93,0.34-2.96,0.68c0.64,0.86,1.62,1.8,2,2.3c0.36,0.46,0.43,0.91,0.25,1.05
		c-0.16,0.11-0.55-0.05-0.91-0.57c-0.36-0.52-0.93-1.73-1.57-2.59c-0.64,0.87-1.21,2.07-1.57,2.59c-0.34,0.48-0.73,0.68-0.89,0.57
		C463.03,147.01,463.1,146.55,463.46,146.1z"/>
</g>
</svg>
