<?xml version="1.0" encoding="utf-8"?>
<!-- Generator: Adobe Illustrator 25.4.1, SVG Export Plug-In . SVG Version: 6.00 Build 0)  -->
<svg version="1.1" id="Layer_1" xmlns="http://www.w3.org/2000/svg" xmlns:xlink="http://www.w3.org/1999/xlink" x="0px" y="0px"
	 viewBox="0 0 970 250" style="enable-background:new 0 0 970 250;" xml:space="preserve">
<style type="text/css">
	.st0{fill:#002554;}
	.st1{fill:#FFFFFF;}
</style>
<rect x="27.43" y="181.98" class="st0" width="238.76" height="44.96"/>
<g>
	<path class="st1" d="M59.16,199.62v2.97h5.77v2.82h-5.77v5.39h-3.65v-14h10.88v2.82H59.16z"/>
	<path class="st1" d="M72.14,210.8h-3.65v-14h3.65V210.8z"/>
	<path class="st1" d="M87.86,210.8h-4.05l-4.35-7.57l-1.06-2.12h-0.02l0.08,2.63v7.06h-3.22v-14h4.05l4.35,7.57l1.06,2.12h0.02
		l-0.08-2.63v-7.06h3.22V210.8z"/>
	<path class="st1" d="M103.68,203.8c0,4.47-2.4,7-6.79,7h-5.94v-14h5.94C101.29,196.8,103.68,199.33,103.68,203.8z M99.95,203.8
		c0-2.8-1.04-4.24-3.41-4.24H94.6v8.48h1.93C98.91,208.04,99.95,206.6,99.95,203.8z"/>
	<path class="st1" d="M119.81,207.64h-4.84l-0.98,3.16h-3.67l4.92-14h4.37l4.9,14h-3.75L119.81,207.64z M119.04,205.16l-1.02-3.35
		l-0.62-2.21h-0.04l-0.57,2.18l-1.04,3.37H119.04z"/>
	<path class="st1" d="M143.58,201.45c0,2.86-1.93,4.5-5.41,4.5h-2.78v4.86h-3.65v-14h6.43C141.65,196.8,143.58,198.44,143.58,201.45
		z M139.92,201.41c0-1.23-0.7-1.85-2.31-1.85h-2.21v3.71h2.21C139.22,203.27,139.92,202.66,139.92,201.41z"/>
	<path class="st1" d="M151.69,205.69h-2.18v5.11h-3.58v-14h6.68c3.37,0,5.28,1.57,5.28,4.45c0,2.04-0.95,3.41-2.71,4.05l3.54,5.49
		h-4.03L151.69,205.69z M149.5,203.1h2.48c1.55,0,2.23-0.53,2.23-1.78c0-1.23-0.68-1.76-2.23-1.76h-2.48V203.1z"/>
	<path class="st1" d="M173.52,203.8c0,4.52-2.59,7.21-6.85,7.21c-4.26,0-6.87-2.69-6.87-7.21s2.61-7.21,6.87-7.21
		C170.93,196.59,173.52,199.29,173.52,203.8z M163.53,203.8c0,2.86,1.1,4.35,3.14,4.35c2.02,0,3.12-1.48,3.12-4.35
		s-1.1-4.35-3.12-4.35C164.63,199.45,163.53,200.94,163.53,203.8z"/>
	<path class="st1" d="M183.49,210.8h-4.28l-4.98-14h3.84l2.57,8.46l0.76,2.76l0.74-2.71l2.61-8.5h3.71L183.49,210.8z"/>
	<path class="st1" d="M193.78,210.8h-3.65v-14h3.65V210.8z"/>
	<path class="st1" d="M209.6,203.8c0,4.47-2.4,7-6.79,7h-5.94v-14h5.94C207.2,196.8,209.6,199.33,209.6,203.8z M205.87,203.8
		c0-2.8-1.04-4.24-3.41-4.24h-1.93v8.48h1.93C204.83,208.04,205.87,206.6,205.87,203.8z"/>
	<path class="st1" d="M223.28,207.98v2.82h-11.18v-14h10.9v2.82h-7.25v2.84h5.77v2.65h-5.77v2.86H223.28z"/>
	<path class="st1" d="M231.26,205.69h-2.18v5.11h-3.58v-14h6.68c3.37,0,5.28,1.57,5.28,4.45c0,2.04-0.95,3.41-2.71,4.05l3.54,5.49
		h-4.03L231.26,205.69z M229.08,203.1h2.48c1.55,0,2.23-0.53,2.23-1.78c0-1.23-0.68-1.76-2.23-1.76h-2.48V203.1z"/>
</g>
</svg>
