<?xml version="1.0" encoding="utf-8"?>
<!-- Generator: Adobe Illustrator 25.4.1, SVG Export Plug-In . SVG Version: 6.00 Build 0)  -->
<svg version="1.1" id="Layer_1" xmlns="http://www.w3.org/2000/svg" xmlns:xlink="http://www.w3.org/1999/xlink" x="0px" y="0px"
	 viewBox="0 0 970 250" style="enable-background:new 0 0 970 250;" xml:space="preserve">
<style type="text/css">
	.st0{fill:#002554;}
</style>
<g>
	<path class="st0" d="M34.06,205.18l-0.71-1.6l-0.29-0.93l-0.68,0.86L31,204.86l-0.81-0.83l1.39-1.35l0.87-0.65l-0.91-0.3
		l-1.58-0.75l0.57-1.04l1.58,0.75l0.83,0.55l0.09-1.04l0.38-1.76h1.25l-0.45,1.89l-0.38,1l1.02-0.35l1.84-0.36l0.07,1.16l-1.81,0.36
		l-1.06,0.07l0.52,0.84l0.73,1.58L34.06,205.18z"/>
	<path class="st0" d="M46.42,199.45l-0.32,1.33h-3.19l-1.9,8.24h-1.57l1.9-8.24h-3.23l0.32-1.33H46.42z"/>
	<path class="st0" d="M45.62,209.02l2.44-10.52h1.55l-1.1,4.77l-0.23,0.17c0.13-0.39,0.32-0.72,0.59-0.99
		c0.27-0.27,0.59-0.48,0.95-0.62c0.36-0.14,0.76-0.22,1.18-0.22c0.52,0,0.97,0.12,1.35,0.36c0.38,0.24,0.65,0.57,0.81,1.01
		c0.16,0.43,0.17,0.96,0.04,1.58l-1.04,4.45H50.6l1.02-4.35c0.13-0.55,0.07-0.98-0.16-1.3c-0.23-0.31-0.6-0.47-1.1-0.47
		c-0.39,0-0.73,0.09-1.04,0.26c-0.3,0.17-0.56,0.43-0.76,0.76c-0.2,0.33-0.37,0.75-0.49,1.25l-0.89,3.84H45.62z"/>
	<path class="st0" d="M58.1,209.16c-0.69,0-1.28-0.14-1.77-0.43c-0.49-0.28-0.88-0.67-1.15-1.17c-0.27-0.49-0.41-1.05-0.41-1.67
		c0-0.77,0.15-1.48,0.46-2.12c0.31-0.64,0.76-1.16,1.35-1.54c0.59-0.39,1.3-0.58,2.13-0.58c0.62,0,1.15,0.13,1.6,0.38
		c0.44,0.25,0.78,0.6,1.02,1.05c0.23,0.45,0.35,0.97,0.35,1.57c0,0.19-0.01,0.39-0.04,0.59c-0.02,0.2-0.07,0.41-0.14,0.61h-5.85
		v-1.19h5l-0.57,0.41c0.04-0.12,0.06-0.23,0.07-0.34s0.01-0.22,0.01-0.31c0-0.32-0.06-0.59-0.18-0.83c-0.12-0.23-0.3-0.41-0.53-0.54
		c-0.23-0.13-0.51-0.19-0.83-0.19c-0.44,0-0.81,0.09-1.11,0.27s-0.55,0.42-0.73,0.72c-0.18,0.3-0.31,0.64-0.39,1.01
		c-0.08,0.37-0.12,0.73-0.12,1.09c0,0.41,0.08,0.76,0.24,1.05s0.38,0.52,0.67,0.69c0.29,0.17,0.62,0.25,1.01,0.25
		c0.45,0,0.82-0.1,1.11-0.29s0.52-0.44,0.69-0.74l1.25,0.67c-0.19,0.33-0.45,0.61-0.76,0.85c-0.31,0.24-0.67,0.42-1.07,0.54
		C59.02,209.09,58.58,209.16,58.1,209.16z"/>
	<path class="st0" d="M66.83,212.07l2.38-10.3h1.38l-0.36,1.99l-0.17,0.1c0.12-0.46,0.31-0.86,0.57-1.19s0.59-0.58,0.99-0.75
		c0.39-0.17,0.81-0.26,1.25-0.26c0.49,0,0.94,0.12,1.33,0.36c0.39,0.24,0.7,0.59,0.93,1.05c0.23,0.46,0.34,1.01,0.34,1.66
		c0,0.61-0.09,1.18-0.28,1.72c-0.18,0.54-0.44,1.01-0.77,1.42s-0.71,0.72-1.15,0.96s-0.92,0.35-1.44,0.35
		c-0.45,0-0.86-0.09-1.23-0.26s-0.65-0.43-0.86-0.78c-0.21-0.34-0.33-0.75-0.36-1.23l0.25-0.23l-1.23,5.4H66.83z M71.62,207.92
		c0.32,0,0.62-0.08,0.9-0.24c0.28-0.16,0.53-0.38,0.74-0.67c0.21-0.29,0.38-0.62,0.49-0.99c0.12-0.37,0.17-0.77,0.17-1.2
		c0-0.42-0.07-0.77-0.21-1.05c-0.14-0.29-0.34-0.5-0.59-0.65s-0.55-0.22-0.89-0.22c-0.35,0-0.66,0.08-0.94,0.25
		c-0.28,0.17-0.52,0.39-0.73,0.67c-0.21,0.29-0.37,0.62-0.48,1.01c-0.11,0.39-0.17,0.8-0.17,1.23c0,0.56,0.15,1.01,0.44,1.36
		C70.63,207.75,71.05,207.92,71.62,207.92z"/>
	<path class="st0" d="M76.55,209.02l1.68-7.25h1.31l-0.23,1.96l-0.16-0.14c0.15-0.41,0.37-0.75,0.63-1.04
		c0.27-0.29,0.57-0.51,0.92-0.67c0.35-0.16,0.71-0.24,1.09-0.24c0.15,0,0.29,0.01,0.41,0.03c0.12,0.02,0.23,0.05,0.31,0.1
		l-0.42,1.39c-0.1-0.05-0.21-0.08-0.33-0.11c-0.12-0.02-0.27-0.04-0.46-0.04c-0.35,0-0.68,0.08-0.99,0.24
		c-0.31,0.16-0.58,0.4-0.81,0.73s-0.41,0.76-0.54,1.29l-0.87,3.76H76.55z"/>
	<path class="st0" d="M85.64,201.77l-1.68,7.25h-1.55l1.68-7.25H85.64z M85.28,200.55c-0.29,0-0.52-0.08-0.7-0.23
		c-0.17-0.15-0.25-0.37-0.23-0.64c0.01-0.34,0.12-0.6,0.32-0.78s0.46-0.28,0.77-0.28c0.3,0,0.53,0.07,0.7,0.22
		c0.17,0.15,0.25,0.36,0.24,0.62c-0.02,0.36-0.13,0.63-0.33,0.81S85.59,200.55,85.28,200.55z"/>
	<path class="st0" d="M86.35,209.02l1.68-7.25h1.36l-0.3,1.83l-0.15-0.1c0.2-0.62,0.56-1.09,1.06-1.4s1.06-0.47,1.68-0.47
		c0.51,0,0.95,0.12,1.32,0.36c0.37,0.24,0.63,0.58,0.78,1.02c0.15,0.45,0.15,0.98-0.01,1.61l-1.03,4.41H91.2l1.02-4.32
		c0.14-0.56,0.09-1-0.12-1.32c-0.22-0.32-0.56-0.48-1.04-0.48c-0.39,0-0.73,0.09-1.03,0.26c-0.3,0.17-0.55,0.43-0.75,0.76
		c-0.2,0.33-0.36,0.75-0.49,1.25l-0.89,3.84H86.35z M96.06,209.02l1-4.32c0.13-0.56,0.08-1-0.13-1.32
		c-0.21-0.32-0.55-0.48-1.02-0.48c-0.4,0-0.74,0.09-1.04,0.26s-0.54,0.43-0.75,0.76c-0.2,0.33-0.36,0.75-0.48,1.25l-0.15-1.41
		c0.26-0.72,0.66-1.25,1.21-1.61c0.55-0.36,1.15-0.54,1.82-0.54c0.51,0,0.95,0.12,1.32,0.36c0.37,0.24,0.63,0.58,0.78,1.02
		c0.15,0.45,0.15,0.98,0.01,1.61l-1.03,4.41H96.06z"/>
	<path class="st0" d="M103.03,209.14c-0.53,0-1.01-0.13-1.42-0.38c-0.42-0.26-0.74-0.62-0.97-1.08c-0.23-0.46-0.35-1.01-0.35-1.64
		c0-0.59,0.09-1.15,0.27-1.68c0.18-0.53,0.43-1,0.75-1.41c0.32-0.41,0.71-0.73,1.16-0.96s0.94-0.35,1.47-0.35
		c0.4,0,0.76,0.07,1.08,0.2c0.32,0.14,0.6,0.33,0.82,0.59c0.22,0.26,0.37,0.58,0.45,0.96l0.38-1.61h1.55l-1.68,7.25h-1.38l0.25-1.35
		c-0.24,0.44-0.57,0.8-0.99,1.07C104,209.01,103.54,209.14,103.03,209.14z M103.57,207.91c0.31,0,0.6-0.08,0.88-0.25
		c0.28-0.17,0.52-0.39,0.73-0.68c0.21-0.29,0.37-0.63,0.49-1.01c0.12-0.38,0.18-0.78,0.18-1.2c0-0.39-0.07-0.72-0.21-1.01
		c-0.14-0.29-0.33-0.5-0.58-0.66c-0.25-0.15-0.54-0.23-0.88-0.23c-0.36,0-0.68,0.08-0.96,0.25c-0.29,0.17-0.53,0.39-0.74,0.67
		s-0.37,0.61-0.49,0.99s-0.17,0.76-0.17,1.17c0,0.42,0.07,0.77,0.2,1.06s0.33,0.51,0.59,0.67
		C102.88,207.83,103.19,207.91,103.57,207.91z"/>
	<path class="st0" d="M108.94,209.02l1.68-7.25h1.31l-0.23,1.96l-0.16-0.14c0.15-0.41,0.37-0.75,0.63-1.04
		c0.27-0.29,0.57-0.51,0.92-0.67c0.35-0.16,0.71-0.24,1.09-0.24c0.15,0,0.29,0.01,0.41,0.03c0.12,0.02,0.23,0.05,0.31,0.1
		l-0.42,1.39c-0.1-0.05-0.21-0.08-0.33-0.11c-0.12-0.02-0.27-0.04-0.46-0.04c-0.35,0-0.68,0.08-0.99,0.24
		c-0.31,0.16-0.58,0.4-0.81,0.73s-0.41,0.76-0.54,1.29l-0.87,3.76H108.94z"/>
	<path class="st0" d="M114.8,212.14c-0.39,0-0.73-0.04-1.02-0.13s-0.53-0.21-0.71-0.36l0.54-1.2c0.33,0.3,0.71,0.45,1.15,0.45
		c0.29,0,0.55-0.08,0.78-0.23c0.23-0.16,0.45-0.4,0.66-0.73l0.57-0.91l-1.28-7.25h1.55l0.52,4.08l0.23,1.8l0.96-1.71l2.36-4.16h1.71
		l-5.24,8.43c-0.28,0.46-0.57,0.84-0.86,1.12s-0.6,0.49-0.92,0.62C115.48,212.08,115.15,212.14,114.8,212.14z"/>
	<path class="st0" d="M130.57,209.16c-0.72,0-1.32-0.15-1.82-0.44s-0.88-0.68-1.15-1.18c-0.27-0.5-0.41-1.05-0.41-1.65
		c0-0.82,0.16-1.55,0.49-2.19c0.32-0.64,0.77-1.14,1.35-1.51c0.58-0.37,1.25-0.55,2.04-0.55c0.72,0,1.32,0.15,1.82,0.44
		s0.88,0.68,1.14,1.17c0.26,0.49,0.39,1.04,0.39,1.65c0,0.8-0.16,1.53-0.47,2.17c-0.31,0.64-0.76,1.15-1.34,1.52
		S131.34,209.16,130.57,209.16z M130.6,207.94c0.32,0,0.62-0.08,0.89-0.23c0.28-0.15,0.52-0.37,0.73-0.65
		c0.21-0.28,0.37-0.61,0.48-0.98c0.11-0.37,0.17-0.77,0.17-1.2c0-0.39-0.07-0.73-0.2-1.03c-0.13-0.3-0.33-0.54-0.61-0.72
		c-0.28-0.18-0.62-0.27-1.04-0.27c-0.32,0-0.62,0.08-0.9,0.23c-0.28,0.15-0.52,0.37-0.73,0.65c-0.2,0.28-0.36,0.6-0.48,0.97
		s-0.17,0.78-0.17,1.21c0,0.37,0.07,0.71,0.2,1.02c0.14,0.31,0.34,0.55,0.62,0.73C129.83,207.85,130.18,207.94,130.6,207.94z"/>
	<path class="st0" d="M140.81,201.66c0.5,0,0.96,0.12,1.36,0.36c0.4,0.24,0.72,0.59,0.94,1.06c0.23,0.46,0.34,1.03,0.34,1.7
		c0,0.6-0.09,1.16-0.28,1.69c-0.18,0.53-0.44,0.99-0.76,1.4c-0.32,0.41-0.71,0.72-1.15,0.96s-0.92,0.35-1.44,0.35
		c-0.42,0-0.79-0.07-1.13-0.22c-0.34-0.15-0.61-0.35-0.83-0.62c-0.21-0.27-0.36-0.57-0.44-0.91l-0.39,1.6h-1.52l2.44-10.52h1.55
		l-1.03,4.42c0.23-0.38,0.55-0.68,0.96-0.92C139.85,201.77,140.31,201.66,140.81,201.66z M139.6,207.92c0.32,0,0.62-0.08,0.9-0.24
		c0.28-0.16,0.53-0.38,0.74-0.66c0.21-0.28,0.38-0.61,0.49-0.99c0.12-0.38,0.17-0.78,0.17-1.2c0-0.43-0.07-0.79-0.22-1.08
		c-0.15-0.28-0.35-0.5-0.6-0.65c-0.26-0.14-0.55-0.22-0.88-0.22c-0.35,0-0.67,0.08-0.95,0.25c-0.29,0.17-0.53,0.39-0.74,0.67
		s-0.37,0.62-0.47,1.01c-0.11,0.39-0.16,0.8-0.16,1.23c0,0.56,0.15,1.01,0.44,1.36C138.62,207.75,139.04,207.92,139.6,207.92z"/>
	<path class="st0" d="M143.55,212.14c-0.32,0-0.63-0.04-0.94-0.12s-0.55-0.21-0.73-0.38l0.45-1.22c0.14,0.11,0.29,0.2,0.46,0.27
		c0.17,0.07,0.34,0.11,0.51,0.11c0.28,0,0.5-0.08,0.67-0.23c0.16-0.16,0.29-0.45,0.39-0.89l1.86-7.91h1.55l-1.9,8.21
		c-0.17,0.75-0.47,1.3-0.89,1.65C144.56,211.97,144.08,212.14,143.55,212.14z M147.41,200.55c-0.29,0-0.52-0.08-0.7-0.23
		c-0.17-0.15-0.25-0.37-0.23-0.64c0.01-0.34,0.12-0.6,0.32-0.78s0.46-0.28,0.77-0.28c0.3,0,0.53,0.07,0.7,0.22
		c0.17,0.15,0.25,0.36,0.24,0.62c-0.02,0.36-0.13,0.63-0.33,0.81S147.72,200.55,147.41,200.55z"/>
	<path class="st0" d="M152.2,209.16c-0.69,0-1.28-0.14-1.77-0.43c-0.49-0.28-0.88-0.67-1.15-1.17c-0.27-0.49-0.41-1.05-0.41-1.67
		c0-0.77,0.15-1.48,0.46-2.12c0.31-0.64,0.76-1.16,1.35-1.54c0.59-0.39,1.3-0.58,2.13-0.58c0.62,0,1.15,0.13,1.6,0.38
		c0.44,0.25,0.78,0.6,1.02,1.05c0.23,0.45,0.35,0.97,0.35,1.57c0,0.19-0.01,0.39-0.04,0.59c-0.02,0.2-0.07,0.41-0.14,0.61h-5.85
		v-1.19h5l-0.57,0.41c0.04-0.12,0.06-0.23,0.07-0.34s0.01-0.22,0.01-0.31c0-0.32-0.06-0.59-0.18-0.83c-0.12-0.23-0.3-0.41-0.53-0.54
		c-0.23-0.13-0.51-0.19-0.83-0.19c-0.44,0-0.81,0.09-1.11,0.27s-0.55,0.42-0.73,0.72c-0.18,0.3-0.31,0.64-0.39,1.01
		c-0.08,0.37-0.12,0.73-0.12,1.09c0,0.41,0.08,0.76,0.24,1.05s0.38,0.52,0.67,0.69c0.29,0.17,0.62,0.25,1.01,0.25
		c0.45,0,0.82-0.1,1.11-0.29s0.52-0.44,0.69-0.74l1.25,0.67c-0.19,0.33-0.45,0.61-0.76,0.85c-0.31,0.24-0.67,0.42-1.07,0.54
		C153.12,209.09,152.68,209.16,152.2,209.16z"/>
	<path class="st0" d="M160.58,209.16c-0.7,0-1.29-0.15-1.79-0.44s-0.88-0.68-1.15-1.18c-0.27-0.5-0.4-1.05-0.4-1.66
		c0-0.82,0.16-1.55,0.49-2.18c0.32-0.63,0.78-1.13,1.36-1.5c0.58-0.37,1.27-0.55,2.07-0.55c0.58,0,1.09,0.1,1.53,0.3
		c0.44,0.2,0.79,0.48,1.06,0.83c0.27,0.36,0.43,0.76,0.49,1.22l-1.55,0.32c-0.02-0.41-0.16-0.75-0.41-1.03s-0.65-0.42-1.17-0.42
		c-0.34,0-0.65,0.08-0.93,0.24c-0.28,0.16-0.52,0.38-0.73,0.65c-0.21,0.28-0.37,0.6-0.48,0.97c-0.11,0.37-0.17,0.77-0.17,1.2
		c0,0.39,0.07,0.73,0.22,1.04s0.36,0.54,0.63,0.72c0.28,0.17,0.62,0.26,1.02,0.26c0.34,0,0.66-0.09,0.96-0.28s0.51-0.46,0.64-0.82
		l1.45,0.51c-0.26,0.58-0.67,1.03-1.22,1.34S161.3,209.16,160.58,209.16z"/>
	<path class="st0" d="M165.32,202.99l0.28-1.22h5.15l-0.28,1.22H165.32z M167.98,209.14c-0.5,0-0.93-0.09-1.28-0.28
		c-0.35-0.19-0.6-0.47-0.75-0.83c-0.15-0.37-0.16-0.81-0.04-1.33l1.49-6.5l1.67-0.46l-1.64,6.98c-0.1,0.43-0.04,0.73,0.17,0.92
		c0.21,0.19,0.49,0.28,0.83,0.28c0.23,0,0.43-0.03,0.6-0.09c0.17-0.06,0.32-0.13,0.46-0.23l0.12,1.15
		c-0.25,0.15-0.51,0.26-0.78,0.32C168.56,209.11,168.28,209.14,167.98,209.14z"/>
	<path class="st0" d="M174.08,201.77l-1.68,7.25h-1.55l1.68-7.25H174.08z M173.72,200.55c-0.29,0-0.52-0.08-0.7-0.23
		c-0.17-0.15-0.25-0.37-0.23-0.64c0.01-0.34,0.12-0.6,0.32-0.78s0.46-0.28,0.77-0.28c0.3,0,0.53,0.07,0.7,0.22
		c0.17,0.15,0.25,0.36,0.24,0.62c-0.02,0.36-0.13,0.63-0.33,0.81S174.03,200.55,173.72,200.55z"/>
	<path class="st0" d="M180.95,201.77h1.73l-4.45,7.25h-1.7l-1.16-7.25h1.54l0.8,6.47l-0.35-0.06L180.95,201.77z"/>
	<path class="st0" d="M186.24,209.16c-0.69,0-1.28-0.14-1.77-0.43c-0.49-0.28-0.88-0.67-1.15-1.17c-0.27-0.49-0.41-1.05-0.41-1.67
		c0-0.77,0.15-1.48,0.46-2.12c0.31-0.64,0.76-1.16,1.35-1.54c0.59-0.39,1.3-0.58,2.13-0.58c0.62,0,1.15,0.13,1.6,0.38
		c0.44,0.25,0.78,0.6,1.02,1.05c0.23,0.45,0.35,0.97,0.35,1.57c0,0.19-0.01,0.39-0.04,0.59c-0.02,0.2-0.07,0.41-0.14,0.61h-5.85
		v-1.19h5l-0.57,0.41c0.04-0.12,0.06-0.23,0.07-0.34s0.01-0.22,0.01-0.31c0-0.32-0.06-0.59-0.18-0.83c-0.12-0.23-0.3-0.41-0.53-0.54
		c-0.23-0.13-0.51-0.19-0.83-0.19c-0.44,0-0.81,0.09-1.11,0.27s-0.55,0.42-0.73,0.72c-0.18,0.3-0.31,0.64-0.39,1.01
		c-0.08,0.37-0.12,0.73-0.12,1.09c0,0.41,0.08,0.76,0.24,1.05s0.38,0.52,0.67,0.69c0.29,0.17,0.62,0.25,1.01,0.25
		c0.45,0,0.82-0.1,1.11-0.29s0.52-0.44,0.69-0.74l1.25,0.67c-0.19,0.33-0.45,0.61-0.76,0.85c-0.31,0.24-0.67,0.42-1.07,0.54
		C187.17,209.09,186.72,209.16,186.24,209.16z"/>
	<path class="st0" d="M196.73,209.02l-0.67-7.25h1.51l0.39,5.63l2.9-5.63h1.54l0.61,5.7l2.9-5.7h1.65l-3.93,7.25h-1.7l-0.65-5.37
		l-2.83,5.37H196.73z"/>
	<path class="st0" d="M210.55,209.14c-0.53,0-1.01-0.13-1.42-0.38c-0.42-0.26-0.74-0.62-0.97-1.08c-0.23-0.46-0.35-1.01-0.35-1.64
		c0-0.59,0.09-1.15,0.27-1.68c0.18-0.53,0.43-1,0.75-1.41c0.32-0.41,0.71-0.73,1.16-0.96s0.94-0.35,1.47-0.35
		c0.4,0,0.76,0.07,1.08,0.2c0.32,0.14,0.6,0.33,0.82,0.59c0.22,0.26,0.37,0.58,0.45,0.96l0.38-1.61h1.55l-1.68,7.25h-1.38l0.25-1.35
		c-0.24,0.44-0.57,0.8-0.99,1.07C211.52,209.01,211.05,209.14,210.55,209.14z M211.09,207.91c0.31,0,0.6-0.08,0.88-0.25
		c0.28-0.17,0.52-0.39,0.73-0.68c0.21-0.29,0.37-0.63,0.49-1.01c0.12-0.38,0.18-0.78,0.18-1.2c0-0.39-0.07-0.72-0.21-1.01
		c-0.14-0.29-0.33-0.5-0.58-0.66c-0.25-0.15-0.54-0.23-0.88-0.23c-0.36,0-0.68,0.08-0.96,0.25c-0.29,0.17-0.53,0.39-0.74,0.67
		s-0.37,0.61-0.49,0.99s-0.17,0.76-0.17,1.17c0,0.42,0.07,0.77,0.2,1.06s0.33,0.51,0.59,0.67
		C210.39,207.83,210.71,207.91,211.09,207.91z"/>
	<path class="st0" d="M219.81,209.18c-0.55,0-1.06-0.08-1.52-0.25c-0.46-0.16-0.86-0.4-1.2-0.71c-0.34-0.31-0.6-0.67-0.8-1.09
		l1.17-0.71c0.2,0.49,0.5,0.87,0.89,1.14c0.39,0.27,0.86,0.4,1.41,0.4c0.44,0,0.79-0.09,1.03-0.26c0.24-0.17,0.36-0.41,0.36-0.7
		c0-0.21-0.07-0.38-0.2-0.51c-0.14-0.13-0.34-0.23-0.62-0.31l-1.16-0.35c-0.64-0.17-1.11-0.43-1.41-0.78
		c-0.3-0.34-0.46-0.74-0.46-1.2c0-0.44,0.12-0.82,0.35-1.15c0.23-0.33,0.57-0.6,1-0.79c0.44-0.19,0.95-0.29,1.54-0.29
		c0.71,0,1.33,0.15,1.87,0.44c0.54,0.29,0.94,0.71,1.19,1.26l-1.12,0.75c-0.11-0.25-0.26-0.47-0.45-0.65s-0.42-0.33-0.67-0.43
		c-0.26-0.11-0.54-0.16-0.85-0.16c-0.47,0-0.83,0.08-1.06,0.24c-0.23,0.16-0.35,0.38-0.35,0.65c0,0.24,0.09,0.43,0.28,0.55
		c0.18,0.13,0.4,0.23,0.65,0.3l1.41,0.42c0.5,0.14,0.89,0.37,1.18,0.69c0.28,0.31,0.42,0.68,0.42,1.11c0,0.49-0.12,0.92-0.36,1.28
		c-0.24,0.36-0.58,0.63-1.02,0.83S220.38,209.18,219.81,209.18z"/>
	<path class="st0" d="M229.02,202.99l0.28-1.22h5.15l-0.28,1.22H229.02z M231.67,209.14c-0.5,0-0.93-0.09-1.28-0.28
		c-0.35-0.19-0.6-0.47-0.75-0.83c-0.15-0.37-0.16-0.81-0.04-1.33l1.49-6.5l1.67-0.46l-1.64,6.98c-0.1,0.43-0.04,0.73,0.17,0.92
		c0.21,0.19,0.49,0.28,0.83,0.28c0.23,0,0.43-0.03,0.6-0.09c0.17-0.06,0.32-0.13,0.46-0.23l0.12,1.15
		c-0.25,0.15-0.51,0.26-0.78,0.32C232.26,209.11,231.97,209.14,231.67,209.14z"/>
	<path class="st0" d="M238.38,209.16c-0.72,0-1.32-0.15-1.82-0.44s-0.88-0.68-1.15-1.18c-0.27-0.5-0.41-1.05-0.41-1.65
		c0-0.82,0.16-1.55,0.49-2.19c0.32-0.64,0.77-1.14,1.35-1.51c0.58-0.37,1.25-0.55,2.04-0.55c0.72,0,1.32,0.15,1.82,0.44
		s0.88,0.68,1.14,1.17c0.26,0.49,0.39,1.04,0.39,1.65c0,0.8-0.16,1.53-0.47,2.17c-0.31,0.64-0.76,1.15-1.34,1.52
		S239.15,209.16,238.38,209.16z M238.4,207.94c0.32,0,0.62-0.08,0.89-0.23c0.28-0.15,0.52-0.37,0.73-0.65
		c0.21-0.28,0.37-0.61,0.48-0.98c0.11-0.37,0.17-0.77,0.17-1.2c0-0.39-0.07-0.73-0.2-1.03c-0.13-0.3-0.33-0.54-0.61-0.72
		c-0.28-0.18-0.62-0.27-1.04-0.27c-0.32,0-0.62,0.08-0.9,0.23c-0.28,0.15-0.52,0.37-0.73,0.65c-0.2,0.28-0.36,0.6-0.48,0.97
		s-0.17,0.78-0.17,1.21c0,0.37,0.07,0.71,0.2,1.02c0.14,0.31,0.34,0.55,0.62,0.73C237.64,207.85,237.99,207.94,238.4,207.94z"/>
	<path class="st0" d="M251.76,209.16c-0.69,0-1.28-0.14-1.77-0.43c-0.49-0.28-0.88-0.67-1.15-1.17c-0.27-0.49-0.41-1.05-0.41-1.67
		c0-0.77,0.15-1.48,0.46-2.12c0.31-0.64,0.76-1.16,1.35-1.54c0.59-0.39,1.3-0.58,2.13-0.58c0.62,0,1.15,0.13,1.6,0.38
		c0.44,0.25,0.78,0.6,1.02,1.05c0.23,0.45,0.35,0.97,0.35,1.57c0,0.19-0.01,0.39-0.04,0.59c-0.02,0.2-0.07,0.41-0.14,0.61h-5.85
		v-1.19h5l-0.57,0.41c0.04-0.12,0.06-0.23,0.07-0.34s0.01-0.22,0.01-0.31c0-0.32-0.06-0.59-0.18-0.83c-0.12-0.23-0.3-0.41-0.53-0.54
		c-0.23-0.13-0.51-0.19-0.83-0.19c-0.44,0-0.81,0.09-1.11,0.27s-0.55,0.42-0.73,0.72c-0.18,0.3-0.31,0.64-0.39,1.01
		c-0.08,0.37-0.12,0.73-0.12,1.09c0,0.41,0.08,0.76,0.24,1.05s0.38,0.52,0.67,0.69c0.29,0.17,0.62,0.25,1.01,0.25
		c0.45,0,0.82-0.1,1.11-0.29s0.52-0.44,0.69-0.74l1.25,0.67c-0.19,0.33-0.45,0.61-0.76,0.85c-0.31,0.24-0.67,0.42-1.07,0.54
		C252.69,209.09,252.25,209.16,251.76,209.16z"/>
	<path class="st0" d="M262.4,201.77h1.73l-4.45,7.25h-1.7l-1.16-7.25h1.54l0.8,6.47l-0.35-0.06L262.4,201.77z"/>
	<path class="st0" d="M267.1,209.14c-0.53,0-1.01-0.13-1.42-0.38c-0.42-0.26-0.74-0.62-0.97-1.08c-0.23-0.46-0.35-1.01-0.35-1.64
		c0-0.59,0.09-1.15,0.27-1.68c0.18-0.53,0.43-1,0.75-1.41c0.32-0.41,0.71-0.73,1.16-0.96s0.94-0.35,1.47-0.35
		c0.4,0,0.76,0.07,1.08,0.2c0.32,0.14,0.6,0.33,0.82,0.59c0.22,0.26,0.37,0.58,0.45,0.96l0.38-1.61h1.55l-1.68,7.25h-1.38l0.25-1.35
		c-0.24,0.44-0.57,0.8-0.99,1.07C268.06,209.01,267.6,209.14,267.1,209.14z M267.63,207.91c0.31,0,0.6-0.08,0.88-0.25
		c0.28-0.17,0.52-0.39,0.73-0.68c0.21-0.29,0.37-0.63,0.49-1.01c0.12-0.38,0.18-0.78,0.18-1.2c0-0.39-0.07-0.72-0.21-1.01
		c-0.14-0.29-0.33-0.5-0.58-0.66c-0.25-0.15-0.54-0.23-0.88-0.23c-0.36,0-0.68,0.08-0.96,0.25c-0.29,0.17-0.53,0.39-0.74,0.67
		s-0.37,0.61-0.49,0.99s-0.17,0.76-0.17,1.17c0,0.42,0.07,0.77,0.2,1.06s0.33,0.51,0.59,0.67
		C266.94,207.83,267.26,207.91,267.63,207.91z"/>
	<path class="st0" d="M275.18,209.14c-0.73,0-1.23-0.21-1.52-0.64c-0.29-0.42-0.35-0.99-0.19-1.68l1.93-8.31h1.55l-1.93,8.33
		c-0.1,0.38-0.07,0.65,0.07,0.82c0.15,0.17,0.4,0.25,0.75,0.25c0.14,0,0.25,0,0.36-0.01c0.1-0.01,0.19-0.02,0.27-0.04l-0.33,1.13
		c-0.15,0.06-0.3,0.1-0.44,0.12C275.55,209.13,275.38,209.14,275.18,209.14z"/>
	<path class="st0" d="M280.38,209.14c-0.52,0-0.98-0.12-1.37-0.35c-0.39-0.23-0.67-0.57-0.84-1c-0.17-0.43-0.18-0.96-0.04-1.58
		l1.03-4.44h1.55l-1,4.31c-0.14,0.58-0.08,1.02,0.17,1.33s0.62,0.46,1.11,0.46c0.39,0,0.73-0.08,1.02-0.25
		c0.29-0.17,0.54-0.42,0.75-0.75c0.2-0.33,0.36-0.75,0.46-1.24l0.9-3.84h1.55l-1.68,7.25h-1.38l0.3-1.83l0.15,0.12
		c-0.19,0.61-0.53,1.07-1.02,1.37S281,209.14,280.38,209.14z"/>
	<path class="st0" d="M289.51,209.14c-0.53,0-1.01-0.13-1.42-0.38c-0.42-0.26-0.74-0.62-0.97-1.08c-0.23-0.46-0.35-1.01-0.35-1.64
		c0-0.59,0.09-1.15,0.27-1.68c0.18-0.53,0.43-1,0.75-1.41c0.32-0.41,0.71-0.73,1.16-0.96s0.94-0.35,1.47-0.35
		c0.4,0,0.76,0.07,1.08,0.2c0.32,0.14,0.6,0.33,0.82,0.59c0.22,0.26,0.37,0.58,0.45,0.96l0.38-1.61h1.55l-1.68,7.25h-1.38l0.25-1.35
		c-0.24,0.44-0.57,0.8-0.99,1.07C290.47,209.01,290.01,209.14,289.51,209.14z M290.04,207.91c0.31,0,0.6-0.08,0.88-0.25
		c0.28-0.17,0.52-0.39,0.73-0.68c0.21-0.29,0.37-0.63,0.49-1.01c0.12-0.38,0.18-0.78,0.18-1.2c0-0.39-0.07-0.72-0.21-1.01
		c-0.14-0.29-0.33-0.5-0.58-0.66c-0.25-0.15-0.54-0.23-0.88-0.23c-0.36,0-0.68,0.08-0.96,0.25c-0.29,0.17-0.53,0.39-0.74,0.67
		s-0.37,0.61-0.49,0.99s-0.17,0.76-0.17,1.17c0,0.42,0.07,0.77,0.2,1.06s0.33,0.51,0.59,0.67
		C289.35,207.83,289.67,207.91,290.04,207.91z"/>
	<path class="st0" d="M295.95,202.99l0.28-1.22h5.15l-0.28,1.22H295.95z M298.6,209.14c-0.5,0-0.93-0.09-1.28-0.28
		c-0.35-0.19-0.6-0.47-0.75-0.83c-0.15-0.37-0.16-0.81-0.04-1.33l1.49-6.5l1.67-0.46l-1.64,6.98c-0.1,0.43-0.04,0.73,0.17,0.92
		c0.21,0.19,0.49,0.28,0.83,0.28c0.23,0,0.43-0.03,0.6-0.09c0.17-0.06,0.32-0.13,0.46-0.23l0.12,1.15
		c-0.25,0.15-0.51,0.26-0.78,0.32C299.19,209.11,298.9,209.14,298.6,209.14z"/>
	<path class="st0" d="M305.25,209.16c-0.69,0-1.28-0.14-1.77-0.43c-0.49-0.28-0.88-0.67-1.15-1.17c-0.27-0.49-0.41-1.05-0.41-1.67
		c0-0.77,0.15-1.48,0.46-2.12c0.31-0.64,0.76-1.16,1.35-1.54c0.59-0.39,1.3-0.58,2.13-0.58c0.62,0,1.15,0.13,1.6,0.38
		c0.44,0.25,0.78,0.6,1.02,1.05c0.23,0.45,0.35,0.97,0.35,1.57c0,0.19-0.01,0.39-0.04,0.59c-0.02,0.2-0.07,0.41-0.14,0.61h-5.85
		v-1.19h5l-0.57,0.41c0.04-0.12,0.06-0.23,0.07-0.34s0.01-0.22,0.01-0.31c0-0.32-0.06-0.59-0.18-0.83c-0.12-0.23-0.3-0.41-0.53-0.54
		c-0.23-0.13-0.51-0.19-0.83-0.19c-0.44,0-0.81,0.09-1.11,0.27s-0.55,0.42-0.73,0.72c-0.18,0.3-0.31,0.64-0.39,1.01
		c-0.08,0.37-0.12,0.73-0.12,1.09c0,0.41,0.08,0.76,0.24,1.05s0.38,0.52,0.67,0.69c0.29,0.17,0.62,0.25,1.01,0.25
		c0.45,0,0.82-0.1,1.11-0.29s0.52-0.44,0.69-0.74l1.25,0.67c-0.19,0.33-0.45,0.61-0.76,0.85c-0.31,0.24-0.67,0.42-1.07,0.54
		C306.17,209.09,305.73,209.16,305.25,209.16z"/>
	<path class="st0" d="M318.45,209.16c-0.72,0-1.32-0.15-1.82-0.44s-0.88-0.68-1.15-1.18c-0.27-0.5-0.41-1.05-0.41-1.65
		c0-0.82,0.16-1.55,0.49-2.19c0.32-0.64,0.77-1.14,1.35-1.51c0.58-0.37,1.25-0.55,2.04-0.55c0.72,0,1.32,0.15,1.82,0.44
		s0.88,0.68,1.14,1.17c0.26,0.49,0.39,1.04,0.39,1.65c0,0.8-0.16,1.53-0.47,2.17c-0.31,0.64-0.76,1.15-1.34,1.52
		S319.22,209.16,318.45,209.16z M318.48,207.94c0.32,0,0.62-0.08,0.89-0.23c0.28-0.15,0.52-0.37,0.73-0.65
		c0.21-0.28,0.37-0.61,0.48-0.98c0.11-0.37,0.17-0.77,0.17-1.2c0-0.39-0.07-0.73-0.2-1.03c-0.13-0.3-0.33-0.54-0.61-0.72
		c-0.28-0.18-0.62-0.27-1.04-0.27c-0.32,0-0.62,0.08-0.9,0.23c-0.28,0.15-0.52,0.37-0.73,0.65c-0.2,0.28-0.36,0.6-0.48,0.97
		s-0.17,0.78-0.17,1.21c0,0.37,0.07,0.71,0.2,1.02c0.14,0.31,0.34,0.55,0.62,0.73C317.71,207.85,318.06,207.94,318.48,207.94z"/>
	<path class="st0" d="M329.24,201.77h1.73l-4.45,7.25h-1.7l-1.16-7.25h1.54l0.8,6.47l-0.35-0.06L329.24,201.77z"/>
	<path class="st0" d="M334.53,209.16c-0.69,0-1.28-0.14-1.77-0.43c-0.49-0.28-0.88-0.67-1.15-1.17c-0.27-0.49-0.41-1.05-0.41-1.67
		c0-0.77,0.15-1.48,0.46-2.12c0.31-0.64,0.76-1.16,1.35-1.54c0.59-0.39,1.3-0.58,2.13-0.58c0.62,0,1.15,0.13,1.6,0.38
		c0.44,0.25,0.78,0.6,1.02,1.05c0.23,0.45,0.35,0.97,0.35,1.57c0,0.19-0.01,0.39-0.04,0.59c-0.02,0.2-0.07,0.41-0.14,0.61h-5.85
		v-1.19h5l-0.57,0.41c0.04-0.12,0.06-0.23,0.07-0.34s0.01-0.22,0.01-0.31c0-0.32-0.06-0.59-0.18-0.83c-0.12-0.23-0.3-0.41-0.53-0.54
		c-0.23-0.13-0.51-0.19-0.83-0.19c-0.44,0-0.81,0.09-1.11,0.27s-0.55,0.42-0.73,0.72c-0.18,0.3-0.31,0.64-0.39,1.01
		c-0.08,0.37-0.12,0.73-0.12,1.09c0,0.41,0.08,0.76,0.24,1.05s0.38,0.52,0.67,0.69c0.29,0.17,0.62,0.25,1.01,0.25
		c0.45,0,0.82-0.1,1.11-0.29s0.52-0.44,0.69-0.74l1.25,0.67c-0.19,0.33-0.45,0.61-0.76,0.85c-0.31,0.24-0.67,0.42-1.07,0.54
		C335.46,209.09,335.02,209.16,334.53,209.16z"/>
	<path class="st0" d="M339.23,209.02l1.68-7.25h1.31l-0.23,1.96l-0.16-0.14c0.15-0.41,0.37-0.75,0.63-1.04
		c0.27-0.29,0.57-0.51,0.92-0.67c0.35-0.16,0.71-0.24,1.09-0.24c0.15,0,0.29,0.01,0.41,0.03c0.12,0.02,0.23,0.05,0.31,0.1
		l-0.42,1.39c-0.1-0.05-0.21-0.08-0.33-0.11c-0.12-0.02-0.27-0.04-0.46-0.04c-0.35,0-0.68,0.08-0.99,0.24
		c-0.31,0.16-0.58,0.4-0.81,0.73s-0.41,0.76-0.54,1.29l-0.87,3.76H339.23z"/>
	<path class="st0" d="M348.02,209.14c-0.53,0-1.01-0.13-1.42-0.38c-0.42-0.26-0.74-0.62-0.97-1.08c-0.23-0.46-0.35-1.01-0.35-1.64
		c0-0.59,0.09-1.15,0.27-1.68c0.18-0.53,0.43-1,0.75-1.41c0.32-0.41,0.71-0.73,1.16-0.96s0.94-0.35,1.47-0.35
		c0.4,0,0.76,0.07,1.08,0.2c0.32,0.14,0.6,0.33,0.82,0.59c0.22,0.26,0.37,0.58,0.45,0.96l0.38-1.61h1.55l-1.68,7.25h-1.38l0.25-1.35
		c-0.24,0.44-0.57,0.8-0.99,1.07C348.99,209.01,348.53,209.14,348.02,209.14z M348.56,207.91c0.31,0,0.6-0.08,0.88-0.25
		c0.28-0.17,0.52-0.39,0.73-0.68c0.21-0.29,0.37-0.63,0.49-1.01c0.12-0.38,0.18-0.78,0.18-1.2c0-0.39-0.07-0.72-0.21-1.01
		c-0.14-0.29-0.33-0.5-0.58-0.66c-0.25-0.15-0.54-0.23-0.88-0.23c-0.36,0-0.68,0.08-0.96,0.25c-0.29,0.17-0.53,0.39-0.74,0.67
		s-0.37,0.61-0.49,0.99s-0.17,0.76-0.17,1.17c0,0.42,0.07,0.77,0.2,1.06s0.33,0.51,0.59,0.67
		C347.86,207.83,348.18,207.91,348.56,207.91z"/>
	<path class="st0" d="M356.1,209.14c-0.73,0-1.23-0.21-1.52-0.64c-0.29-0.42-0.35-0.99-0.19-1.68l1.93-8.31h1.55l-1.93,8.33
		c-0.1,0.38-0.07,0.65,0.07,0.82c0.15,0.17,0.4,0.25,0.75,0.25c0.14,0,0.25,0,0.36-0.01c0.1-0.01,0.19-0.02,0.27-0.04l-0.33,1.13
		c-0.15,0.06-0.3,0.1-0.44,0.12C356.48,209.13,356.31,209.14,356.1,209.14z"/>
	<path class="st0" d="M360.69,209.14c-0.73,0-1.23-0.21-1.52-0.64c-0.29-0.42-0.35-0.99-0.19-1.68l1.93-8.31h1.55l-1.93,8.33
		c-0.1,0.38-0.07,0.65,0.07,0.82c0.15,0.17,0.4,0.25,0.75,0.25c0.14,0,0.25,0,0.36-0.01c0.1-0.01,0.19-0.02,0.27-0.04l-0.33,1.13
		c-0.15,0.06-0.3,0.1-0.44,0.12C361.06,209.13,360.89,209.14,360.69,209.14z"/>
	<path class="st0" d="M366.71,212.07l2.38-10.3h1.38l-0.36,1.99l-0.17,0.1c0.12-0.46,0.31-0.86,0.57-1.19s0.59-0.58,0.99-0.75
		c0.39-0.17,0.81-0.26,1.25-0.26c0.49,0,0.94,0.12,1.33,0.36c0.39,0.24,0.7,0.59,0.93,1.05c0.23,0.46,0.34,1.01,0.34,1.66
		c0,0.61-0.09,1.18-0.28,1.72c-0.18,0.54-0.44,1.01-0.77,1.42s-0.71,0.72-1.15,0.96s-0.92,0.35-1.44,0.35
		c-0.45,0-0.86-0.09-1.23-0.26s-0.65-0.43-0.86-0.78c-0.21-0.34-0.33-0.75-0.36-1.23l0.25-0.23l-1.23,5.4H366.71z M371.49,207.92
		c0.32,0,0.62-0.08,0.9-0.24c0.28-0.16,0.53-0.38,0.74-0.67c0.21-0.29,0.38-0.62,0.49-0.99c0.12-0.37,0.17-0.77,0.17-1.2
		c0-0.42-0.07-0.77-0.21-1.05c-0.14-0.29-0.34-0.5-0.59-0.65s-0.55-0.22-0.89-0.22c-0.35,0-0.66,0.08-0.94,0.25
		c-0.28,0.17-0.52,0.39-0.73,0.67c-0.21,0.29-0.37,0.62-0.48,1.01c-0.11,0.39-0.17,0.8-0.17,1.23c0,0.56,0.15,1.01,0.44,1.36
		C370.51,207.75,370.93,207.92,371.49,207.92z"/>
	<path class="st0" d="M379.55,209.14c-0.53,0-1.01-0.13-1.42-0.38c-0.42-0.26-0.74-0.62-0.97-1.08c-0.23-0.46-0.35-1.01-0.35-1.64
		c0-0.59,0.09-1.15,0.27-1.68c0.18-0.53,0.43-1,0.75-1.41c0.32-0.41,0.71-0.73,1.16-0.96s0.94-0.35,1.47-0.35
		c0.4,0,0.76,0.07,1.08,0.2c0.32,0.14,0.6,0.33,0.82,0.59c0.22,0.26,0.37,0.58,0.45,0.96l0.38-1.61h1.55l-1.68,7.25h-1.38l0.25-1.35
		c-0.24,0.44-0.57,0.8-0.99,1.07C380.51,209.01,380.05,209.14,379.55,209.14z M380.08,207.91c0.31,0,0.6-0.08,0.88-0.25
		c0.28-0.17,0.52-0.39,0.73-0.68c0.21-0.29,0.37-0.63,0.49-1.01c0.12-0.38,0.18-0.78,0.18-1.2c0-0.39-0.07-0.72-0.21-1.01
		c-0.14-0.29-0.33-0.5-0.58-0.66c-0.25-0.15-0.54-0.23-0.88-0.23c-0.36,0-0.68,0.08-0.96,0.25c-0.29,0.17-0.53,0.39-0.74,0.67
		s-0.37,0.61-0.49,0.99s-0.17,0.76-0.17,1.17c0,0.42,0.07,0.77,0.2,1.06s0.33,0.51,0.59,0.67
		C379.39,207.83,379.71,207.91,380.08,207.91z"/>
	<path class="st0" d="M385.99,202.99l0.28-1.22h5.15l-0.28,1.22H385.99z M388.64,209.14c-0.5,0-0.93-0.09-1.28-0.28
		c-0.35-0.19-0.6-0.47-0.75-0.83c-0.15-0.37-0.16-0.81-0.04-1.33l1.49-6.5l1.67-0.46l-1.64,6.98c-0.1,0.43-0.04,0.73,0.17,0.92
		c0.21,0.19,0.49,0.28,0.83,0.28c0.23,0,0.43-0.03,0.6-0.09c0.17-0.06,0.32-0.13,0.46-0.23l0.12,1.15
		c-0.25,0.15-0.51,0.26-0.78,0.32C389.22,209.11,388.94,209.14,388.64,209.14z"/>
	<path class="st0" d="M394.75,201.77l-1.68,7.25h-1.55l1.68-7.25H394.75z M394.38,200.55c-0.29,0-0.52-0.08-0.7-0.23
		c-0.17-0.15-0.25-0.37-0.23-0.64c0.01-0.34,0.12-0.6,0.32-0.78s0.46-0.28,0.77-0.28c0.3,0,0.53,0.07,0.7,0.22
		c0.17,0.15,0.25,0.36,0.24,0.62c-0.02,0.36-0.13,0.63-0.33,0.81S394.69,200.55,394.38,200.55z"/>
	<path class="st0" d="M399.17,209.16c-0.69,0-1.28-0.14-1.77-0.43c-0.49-0.28-0.88-0.67-1.15-1.17c-0.27-0.49-0.41-1.05-0.41-1.67
		c0-0.77,0.15-1.48,0.46-2.12c0.31-0.64,0.76-1.16,1.35-1.54c0.59-0.39,1.3-0.58,2.13-0.58c0.62,0,1.15,0.13,1.6,0.38
		c0.44,0.25,0.78,0.6,1.02,1.05c0.23,0.45,0.35,0.97,0.35,1.57c0,0.19-0.01,0.39-0.04,0.59c-0.02,0.2-0.07,0.41-0.14,0.61h-5.85
		v-1.19h5l-0.57,0.41c0.04-0.12,0.06-0.23,0.07-0.34s0.01-0.22,0.01-0.31c0-0.32-0.06-0.59-0.18-0.83c-0.12-0.23-0.3-0.41-0.53-0.54
		c-0.23-0.13-0.51-0.19-0.83-0.19c-0.44,0-0.81,0.09-1.11,0.27s-0.55,0.42-0.73,0.72c-0.18,0.3-0.31,0.64-0.39,1.01
		c-0.08,0.37-0.12,0.73-0.12,1.09c0,0.41,0.08,0.76,0.24,1.05s0.38,0.52,0.67,0.69c0.29,0.17,0.62,0.25,1.01,0.25
		c0.45,0,0.82-0.1,1.11-0.29s0.52-0.44,0.69-0.74l1.25,0.67c-0.19,0.33-0.45,0.61-0.76,0.85c-0.31,0.24-0.67,0.42-1.07,0.54
		C400.1,209.09,399.66,209.16,399.17,209.16z"/>
	<path class="st0" d="M403.87,209.02l1.68-7.25h1.36l-0.3,1.83l-0.15-0.1c0.2-0.62,0.56-1.09,1.07-1.4c0.51-0.31,1.08-0.47,1.7-0.47
		c0.54,0,1,0.12,1.38,0.36c0.38,0.24,0.64,0.58,0.8,1.02c0.15,0.44,0.16,0.97,0.01,1.6l-1.03,4.42h-1.55l1.02-4.35
		c0.13-0.55,0.07-0.98-0.16-1.3c-0.23-0.31-0.6-0.47-1.1-0.47c-0.39,0-0.73,0.09-1.04,0.26c-0.3,0.17-0.56,0.43-0.76,0.76
		c-0.2,0.33-0.37,0.75-0.49,1.25l-0.89,3.84H403.87z"/>
	<path class="st0" d="M413.13,202.99l0.28-1.22h5.15l-0.28,1.22H413.13z M415.78,209.14c-0.5,0-0.93-0.09-1.28-0.28
		c-0.35-0.19-0.6-0.47-0.75-0.83c-0.15-0.37-0.16-0.81-0.04-1.33l1.49-6.5l1.67-0.46l-1.64,6.98c-0.1,0.43-0.04,0.73,0.17,0.92
		c0.21,0.19,0.49,0.28,0.83,0.28c0.23,0,0.43-0.03,0.6-0.09c0.17-0.06,0.32-0.13,0.46-0.23l0.12,1.15
		c-0.25,0.15-0.51,0.26-0.78,0.32C416.36,209.11,416.08,209.14,415.78,209.14z"/>
	<path class="st0" d="M31.96,226.69c-0.55,0-1.06-0.08-1.52-0.25c-0.46-0.16-0.86-0.4-1.2-0.71c-0.34-0.31-0.6-0.67-0.8-1.09
		l1.17-0.71c0.2,0.49,0.5,0.87,0.89,1.14c0.39,0.27,0.86,0.4,1.41,0.4c0.44,0,0.79-0.09,1.03-0.26c0.24-0.17,0.36-0.41,0.36-0.7
		c0-0.21-0.07-0.38-0.2-0.51c-0.14-0.13-0.34-0.23-0.62-0.31l-1.16-0.35c-0.64-0.17-1.11-0.43-1.41-0.78
		c-0.3-0.34-0.46-0.74-0.46-1.2c0-0.44,0.12-0.82,0.35-1.15c0.23-0.33,0.57-0.6,1-0.79c0.44-0.19,0.95-0.29,1.54-0.29
		c0.71,0,1.33,0.15,1.87,0.44c0.54,0.29,0.94,0.71,1.19,1.26l-1.12,0.75c-0.11-0.25-0.26-0.47-0.45-0.65s-0.42-0.33-0.67-0.43
		c-0.26-0.11-0.54-0.16-0.85-0.16c-0.47,0-0.83,0.08-1.06,0.24c-0.23,0.16-0.35,0.38-0.35,0.65c0,0.24,0.09,0.43,0.28,0.55
		c0.18,0.13,0.4,0.23,0.65,0.3l1.41,0.42c0.5,0.14,0.89,0.37,1.18,0.69c0.28,0.31,0.42,0.68,0.42,1.11c0,0.49-0.12,0.92-0.36,1.28
		c-0.24,0.36-0.58,0.63-1.02,0.83S32.53,226.69,31.96,226.69z"/>
	<path class="st0" d="M39.14,226.65c-0.53,0-1.01-0.13-1.42-0.38c-0.42-0.26-0.74-0.62-0.97-1.08c-0.23-0.46-0.35-1.01-0.35-1.64
		c0-0.59,0.09-1.15,0.27-1.68c0.18-0.53,0.43-1,0.75-1.41c0.32-0.41,0.71-0.73,1.16-0.96s0.94-0.35,1.47-0.35
		c0.4,0,0.76,0.07,1.08,0.2c0.32,0.14,0.6,0.33,0.82,0.59c0.22,0.26,0.37,0.58,0.45,0.96l0.38-1.61h1.55l-1.68,7.25h-1.38l0.25-1.35
		c-0.24,0.44-0.57,0.8-0.99,1.07C40.1,226.52,39.64,226.65,39.14,226.65z M39.67,225.42c0.31,0,0.6-0.08,0.88-0.25
		c0.28-0.17,0.52-0.39,0.73-0.68c0.21-0.29,0.37-0.63,0.49-1.01c0.12-0.38,0.18-0.78,0.18-1.2c0-0.39-0.07-0.72-0.21-1.01
		c-0.14-0.29-0.33-0.5-0.58-0.66c-0.25-0.15-0.54-0.23-0.88-0.23c-0.36,0-0.68,0.08-0.96,0.25c-0.29,0.17-0.53,0.39-0.74,0.67
		s-0.37,0.61-0.49,0.99s-0.17,0.76-0.17,1.17c0,0.42,0.07,0.77,0.2,1.06s0.33,0.51,0.59,0.67C38.98,225.34,39.3,225.42,39.67,225.42
		z"/>
	<path class="st0" d="M45.58,220.5l0.28-1.22H51l-0.28,1.22H45.58z M48.23,226.65c-0.5,0-0.93-0.09-1.28-0.28
		c-0.35-0.19-0.6-0.47-0.75-0.83c-0.15-0.37-0.16-0.81-0.04-1.33l1.49-6.5l1.67-0.46l-1.64,6.98c-0.1,0.43-0.04,0.73,0.17,0.92
		c0.21,0.19,0.49,0.28,0.83,0.28c0.23,0,0.43-0.03,0.6-0.09c0.17-0.06,0.32-0.13,0.46-0.23l0.12,1.15
		c-0.25,0.15-0.51,0.26-0.78,0.32C48.81,226.62,48.53,226.65,48.23,226.65z"/>
	<path class="st0" d="M54.34,219.28l-1.68,7.25H51.1l1.68-7.25H54.34z M53.98,218.06c-0.29,0-0.52-0.08-0.7-0.23
		c-0.17-0.15-0.25-0.37-0.23-0.64c0.01-0.34,0.12-0.6,0.32-0.78s0.46-0.28,0.77-0.28c0.3,0,0.53,0.07,0.7,0.22
		c0.17,0.15,0.25,0.36,0.24,0.62c-0.02,0.36-0.13,0.63-0.33,0.81S54.29,218.06,53.98,218.06z"/>
	<path class="st0" d="M58.4,226.69c-0.55,0-1.06-0.08-1.52-0.25c-0.46-0.16-0.86-0.4-1.2-0.71c-0.34-0.31-0.6-0.67-0.8-1.09
		l1.17-0.71c0.2,0.49,0.5,0.87,0.89,1.14c0.39,0.27,0.86,0.4,1.41,0.4c0.44,0,0.79-0.09,1.03-0.26c0.24-0.17,0.36-0.41,0.36-0.7
		c0-0.21-0.07-0.38-0.2-0.51c-0.14-0.13-0.34-0.23-0.62-0.31l-1.16-0.35c-0.64-0.17-1.11-0.43-1.41-0.78
		c-0.3-0.34-0.46-0.74-0.46-1.2c0-0.44,0.12-0.82,0.35-1.15c0.23-0.33,0.57-0.6,1-0.79c0.44-0.19,0.95-0.29,1.54-0.29
		c0.71,0,1.33,0.15,1.87,0.44c0.54,0.29,0.94,0.71,1.19,1.26l-1.12,0.75c-0.11-0.25-0.26-0.47-0.45-0.65s-0.42-0.33-0.67-0.43
		c-0.26-0.11-0.54-0.16-0.85-0.16c-0.47,0-0.83,0.08-1.06,0.24c-0.23,0.16-0.35,0.38-0.35,0.65c0,0.24,0.09,0.43,0.28,0.55
		c0.18,0.13,0.4,0.23,0.65,0.3l1.41,0.42c0.5,0.14,0.89,0.37,1.18,0.69c0.28,0.31,0.42,0.68,0.42,1.11c0,0.49-0.12,0.92-0.36,1.28
		c-0.24,0.36-0.58,0.63-1.02,0.83S58.97,226.69,58.4,226.69z"/>
	<path class="st0" d="M63.14,220.5l0.29-1.22h5.11l-0.29,1.22H63.14z M63.17,226.53l1.94-8.41c0.13-0.53,0.31-0.96,0.56-1.28
		c0.25-0.32,0.55-0.55,0.92-0.7c0.37-0.15,0.79-0.22,1.26-0.22c0.3,0,0.58,0.03,0.83,0.09c0.25,0.06,0.44,0.15,0.58,0.25l-0.44,1.13
		c-0.09-0.06-0.21-0.11-0.36-0.16c-0.16-0.05-0.33-0.07-0.52-0.07c-0.4,0-0.7,0.09-0.91,0.27s-0.37,0.5-0.46,0.95l-0.23,1.03
		l-0.06,0.39l-1.55,6.73H63.17z"/>
	<path class="st0" d="M71.5,226.65c-0.53,0-1.01-0.13-1.42-0.38c-0.42-0.26-0.74-0.62-0.97-1.08c-0.23-0.46-0.35-1.01-0.35-1.64
		c0-0.59,0.09-1.15,0.27-1.68c0.18-0.53,0.43-1,0.75-1.41c0.32-0.41,0.71-0.73,1.16-0.96s0.94-0.35,1.47-0.35
		c0.4,0,0.76,0.07,1.08,0.2c0.32,0.14,0.6,0.33,0.82,0.59c0.22,0.26,0.37,0.58,0.45,0.96l0.38-1.61h1.55l-1.68,7.25h-1.38l0.25-1.35
		c-0.24,0.44-0.57,0.8-0.99,1.07C72.46,226.52,72,226.65,71.5,226.65z M72.04,225.42c0.31,0,0.6-0.08,0.88-0.25
		c0.28-0.17,0.52-0.39,0.73-0.68c0.21-0.29,0.37-0.63,0.49-1.01c0.12-0.38,0.18-0.78,0.18-1.2c0-0.39-0.07-0.72-0.21-1.01
		c-0.14-0.29-0.33-0.5-0.58-0.66c-0.25-0.15-0.54-0.23-0.88-0.23c-0.36,0-0.68,0.08-0.96,0.25c-0.29,0.17-0.53,0.39-0.74,0.67
		s-0.37,0.61-0.49,0.99s-0.17,0.76-0.17,1.17c0,0.42,0.07,0.77,0.2,1.06s0.33,0.51,0.59,0.67
		C71.34,225.34,71.66,225.42,72.04,225.42z"/>
	<path class="st0" d="M81.15,226.66c-0.7,0-1.29-0.15-1.79-0.44s-0.88-0.68-1.15-1.18c-0.27-0.5-0.4-1.05-0.4-1.66
		c0-0.82,0.16-1.55,0.49-2.18c0.32-0.63,0.78-1.13,1.36-1.5c0.58-0.37,1.27-0.55,2.07-0.55c0.58,0,1.09,0.1,1.53,0.3
		c0.44,0.2,0.79,0.48,1.06,0.83c0.27,0.36,0.43,0.76,0.49,1.22l-1.55,0.32c-0.02-0.41-0.16-0.75-0.41-1.03s-0.65-0.42-1.17-0.42
		c-0.34,0-0.65,0.08-0.93,0.24c-0.28,0.16-0.52,0.38-0.73,0.65c-0.21,0.28-0.37,0.6-0.48,0.97c-0.11,0.37-0.17,0.77-0.17,1.2
		c0,0.39,0.07,0.73,0.22,1.04s0.36,0.54,0.63,0.72c0.28,0.17,0.62,0.26,1.02,0.26c0.34,0,0.66-0.09,0.96-0.28s0.51-0.46,0.64-0.82
		l1.45,0.51c-0.26,0.58-0.67,1.03-1.22,1.34S81.87,226.66,81.15,226.66z"/>
	<path class="st0" d="M85.89,220.5l0.28-1.22h5.15l-0.28,1.22H85.89z M88.54,226.65c-0.5,0-0.93-0.09-1.28-0.28
		c-0.35-0.19-0.6-0.47-0.75-0.83c-0.15-0.37-0.16-0.81-0.04-1.33l1.49-6.5l1.67-0.46l-1.64,6.98c-0.1,0.43-0.04,0.73,0.17,0.92
		c0.21,0.19,0.49,0.28,0.83,0.28c0.23,0,0.43-0.03,0.6-0.09c0.17-0.06,0.32-0.13,0.46-0.23l0.12,1.15
		c-0.25,0.15-0.51,0.26-0.78,0.32C89.13,226.62,88.84,226.65,88.54,226.65z"/>
	<path class="st0" d="M94.65,219.28l-1.68,7.25h-1.55l1.68-7.25H94.65z M94.29,218.06c-0.29,0-0.52-0.08-0.7-0.23
		c-0.17-0.15-0.25-0.37-0.23-0.64c0.01-0.34,0.12-0.6,0.32-0.78s0.46-0.28,0.77-0.28c0.3,0,0.53,0.07,0.7,0.22
		c0.17,0.15,0.25,0.36,0.24,0.62c-0.02,0.36-0.13,0.63-0.33,0.81S94.6,218.06,94.29,218.06z"/>
	<path class="st0" d="M99.13,226.66c-0.72,0-1.32-0.15-1.82-0.44s-0.88-0.68-1.15-1.18c-0.27-0.5-0.41-1.05-0.41-1.65
		c0-0.82,0.16-1.55,0.49-2.19c0.32-0.64,0.77-1.14,1.35-1.51c0.58-0.37,1.25-0.55,2.04-0.55c0.72,0,1.32,0.15,1.82,0.44
		s0.88,0.68,1.14,1.17c0.26,0.49,0.39,1.04,0.39,1.65c0,0.8-0.16,1.53-0.47,2.17c-0.31,0.64-0.76,1.15-1.34,1.52
		S99.91,226.66,99.13,226.66z M99.16,225.44c0.32,0,0.62-0.08,0.89-0.23c0.28-0.15,0.52-0.37,0.73-0.65
		c0.21-0.28,0.37-0.61,0.48-0.98c0.11-0.37,0.17-0.77,0.17-1.2c0-0.39-0.07-0.73-0.2-1.03c-0.13-0.3-0.33-0.54-0.61-0.72
		c-0.28-0.18-0.62-0.27-1.04-0.27c-0.32,0-0.62,0.08-0.9,0.23c-0.28,0.15-0.52,0.37-0.73,0.65c-0.2,0.28-0.36,0.6-0.48,0.97
		s-0.17,0.78-0.17,1.21c0,0.37,0.07,0.71,0.2,1.02c0.14,0.31,0.34,0.55,0.62,0.73C98.4,225.35,98.75,225.44,99.16,225.44z"/>
	<path class="st0" d="M104.08,226.53l1.68-7.25h1.36l-0.3,1.83l-0.15-0.1c0.2-0.62,0.56-1.09,1.07-1.4c0.51-0.31,1.08-0.47,1.7-0.47
		c0.54,0,1,0.12,1.38,0.36c0.38,0.24,0.64,0.58,0.8,1.02c0.15,0.44,0.16,0.97,0.01,1.6l-1.03,4.42h-1.55l1.02-4.35
		c0.13-0.55,0.07-0.98-0.16-1.3c-0.23-0.31-0.6-0.47-1.1-0.47c-0.39,0-0.73,0.09-1.04,0.26c-0.3,0.17-0.56,0.43-0.76,0.76
		c-0.2,0.33-0.37,0.75-0.49,1.25l-0.89,3.84H104.08z"/>
	<path class="st0" d="M118.69,226.53l-0.67-7.25h1.51l0.39,5.63l2.9-5.63h1.54l0.61,5.7l2.9-5.7h1.65l-3.93,7.25h-1.7l-0.65-5.37
		l-2.83,5.37H118.69z"/>
	<path class="st0" d="M132.6,219.28l-1.68,7.25h-1.55l1.68-7.25H132.6z M132.24,218.06c-0.29,0-0.52-0.08-0.7-0.23
		c-0.17-0.15-0.25-0.37-0.23-0.64c0.01-0.34,0.12-0.6,0.32-0.78s0.46-0.28,0.77-0.28c0.3,0,0.53,0.07,0.7,0.22
		c0.17,0.15,0.25,0.36,0.24,0.62c-0.02,0.36-0.13,0.63-0.33,0.81S132.55,218.06,132.24,218.06z"/>
	<path class="st0" d="M133.83,220.5l0.28-1.22h5.15l-0.28,1.22H133.83z M136.49,226.65c-0.5,0-0.93-0.09-1.28-0.28
		c-0.35-0.19-0.6-0.47-0.75-0.83c-0.15-0.37-0.16-0.81-0.04-1.33l1.49-6.5l1.67-0.46l-1.64,6.98c-0.1,0.43-0.04,0.73,0.17,0.92
		c0.21,0.19,0.49,0.28,0.83,0.28c0.23,0,0.43-0.03,0.6-0.09c0.17-0.06,0.32-0.13,0.46-0.23l0.12,1.15
		c-0.25,0.15-0.51,0.26-0.78,0.32C137.07,226.62,136.79,226.65,136.49,226.65z"/>
	<path class="st0" d="M139.42,226.53l2.44-10.52h1.55l-1.1,4.77l-0.23,0.17c0.13-0.39,0.32-0.72,0.59-0.99
		c0.27-0.27,0.59-0.48,0.95-0.62c0.36-0.14,0.76-0.22,1.18-0.22c0.52,0,0.97,0.12,1.35,0.36c0.38,0.24,0.65,0.57,0.81,1.01
		c0.16,0.43,0.17,0.96,0.04,1.58l-1.04,4.45h-1.55l1.02-4.35c0.13-0.55,0.07-0.98-0.16-1.3c-0.23-0.31-0.6-0.47-1.1-0.47
		c-0.39,0-0.73,0.09-1.04,0.26c-0.3,0.17-0.56,0.43-0.76,0.76c-0.2,0.33-0.37,0.75-0.49,1.25l-0.89,3.84H139.42z"/>
	<path class="st0" d="M157.88,226.68c-0.76,0-1.46-0.16-2.09-0.47c-0.63-0.31-1.13-0.78-1.49-1.39c-0.37-0.61-0.55-1.37-0.55-2.26
		c0-0.74,0.11-1.46,0.32-2.14c0.21-0.68,0.53-1.29,0.96-1.83c0.43-0.54,0.95-0.97,1.57-1.29c0.62-0.32,1.34-0.48,2.15-0.48
		c0.64,0,1.21,0.1,1.7,0.31s0.92,0.52,1.25,0.94c0.34,0.42,0.58,0.94,0.74,1.57l-1.58,0.45c-0.13-0.68-0.37-1.17-0.74-1.46
		c-0.37-0.3-0.86-0.45-1.48-0.45c-0.54,0-1.02,0.13-1.43,0.38c-0.41,0.26-0.75,0.59-1.03,1c-0.28,0.41-0.48,0.87-0.62,1.38
		s-0.21,1.02-0.21,1.53c0,0.6,0.11,1.11,0.34,1.54c0.23,0.42,0.54,0.75,0.94,0.99c0.4,0.23,0.85,0.35,1.35,0.35
		c0.59,0,1.06-0.13,1.4-0.39c0.34-0.26,0.63-0.61,0.86-1.06l1.45,0.64c-0.4,0.66-0.9,1.18-1.51,1.57
		C159.58,226.48,158.81,226.68,157.88,226.68z"/>
	<path class="st0" d="M166.57,226.66c-0.72,0-1.32-0.15-1.82-0.44s-0.88-0.68-1.15-1.18c-0.27-0.5-0.41-1.05-0.41-1.65
		c0-0.82,0.16-1.55,0.49-2.19c0.32-0.64,0.77-1.14,1.35-1.51c0.58-0.37,1.25-0.55,2.04-0.55c0.72,0,1.32,0.15,1.82,0.44
		s0.88,0.68,1.14,1.17c0.26,0.49,0.39,1.04,0.39,1.65c0,0.8-0.16,1.53-0.47,2.17c-0.31,0.64-0.76,1.15-1.34,1.52
		S167.34,226.66,166.57,226.66z M166.6,225.44c0.32,0,0.62-0.08,0.89-0.23c0.28-0.15,0.52-0.37,0.73-0.65
		c0.21-0.28,0.37-0.61,0.48-0.98c0.11-0.37,0.17-0.77,0.17-1.2c0-0.39-0.07-0.73-0.2-1.03c-0.13-0.3-0.33-0.54-0.61-0.72
		c-0.28-0.18-0.62-0.27-1.04-0.27c-0.32,0-0.62,0.08-0.9,0.23c-0.28,0.15-0.52,0.37-0.73,0.65c-0.2,0.28-0.36,0.6-0.48,0.97
		s-0.17,0.78-0.17,1.21c0,0.37,0.07,0.71,0.2,1.02c0.14,0.31,0.34,0.55,0.62,0.73C165.84,225.35,166.18,225.44,166.6,225.44z"/>
	<path class="st0" d="M175.29,226.66c-0.72,0-1.32-0.15-1.82-0.44s-0.88-0.68-1.15-1.18c-0.27-0.5-0.41-1.05-0.41-1.65
		c0-0.82,0.16-1.55,0.49-2.19c0.32-0.64,0.77-1.14,1.35-1.51c0.58-0.37,1.25-0.55,2.04-0.55c0.72,0,1.32,0.15,1.82,0.44
		s0.88,0.68,1.14,1.17c0.26,0.49,0.39,1.04,0.39,1.65c0,0.8-0.16,1.53-0.47,2.17c-0.31,0.64-0.76,1.15-1.34,1.52
		S176.06,226.66,175.29,226.66z M175.32,225.44c0.32,0,0.62-0.08,0.89-0.23c0.28-0.15,0.52-0.37,0.73-0.65
		c0.21-0.28,0.37-0.61,0.48-0.98c0.11-0.37,0.17-0.77,0.17-1.2c0-0.39-0.07-0.73-0.2-1.03c-0.13-0.3-0.33-0.54-0.61-0.72
		c-0.28-0.18-0.62-0.27-1.04-0.27c-0.32,0-0.62,0.08-0.9,0.23c-0.28,0.15-0.52,0.37-0.73,0.65c-0.2,0.28-0.36,0.6-0.48,0.97
		s-0.17,0.78-0.17,1.21c0,0.37,0.07,0.71,0.2,1.02c0.14,0.31,0.34,0.55,0.62,0.73C174.56,225.35,174.9,225.44,175.32,225.44z"/>
	<path class="st0" d="M182.41,226.65c-0.73,0-1.23-0.21-1.52-0.64c-0.29-0.42-0.35-0.99-0.19-1.68l1.93-8.31h1.55l-1.93,8.33
		c-0.1,0.38-0.07,0.65,0.07,0.82c0.15,0.17,0.4,0.25,0.75,0.25c0.14,0,0.25,0,0.36-0.01c0.1-0.01,0.19-0.02,0.27-0.04l-0.33,1.13
		c-0.15,0.06-0.3,0.1-0.44,0.12C182.79,226.64,182.61,226.65,182.41,226.65z"/>
	<path class="st0" d="M189.36,226.66c-0.7,0-1.34-0.1-1.92-0.31c-0.59-0.21-1.09-0.51-1.52-0.91c-0.43-0.4-0.76-0.89-1.02-1.48
		l1.26-0.84c0.18,0.52,0.44,0.95,0.77,1.27c0.33,0.32,0.71,0.56,1.14,0.71s0.88,0.22,1.36,0.22c0.43,0,0.78-0.07,1.06-0.21
		c0.28-0.14,0.49-0.32,0.63-0.54s0.21-0.46,0.21-0.71c0-0.32-0.1-0.57-0.31-0.75s-0.51-0.33-0.91-0.44l-1.51-0.44
		c-0.48-0.14-0.9-0.34-1.24-0.57c-0.34-0.24-0.61-0.52-0.8-0.84c-0.19-0.32-0.28-0.69-0.28-1.1c0-0.56,0.15-1.06,0.45-1.51
		c0.3-0.45,0.72-0.79,1.25-1.04c0.54-0.25,1.17-0.38,1.89-0.38c0.96,0,1.76,0.19,2.4,0.57c0.64,0.38,1.13,0.94,1.46,1.7l-1.28,0.81
		c-0.15-0.46-0.36-0.82-0.63-1.07c-0.28-0.25-0.59-0.42-0.93-0.51s-0.7-0.15-1.08-0.15c-0.43,0-0.78,0.06-1.07,0.18
		s-0.5,0.29-0.64,0.5c-0.14,0.21-0.21,0.45-0.21,0.7c0,0.29,0.12,0.55,0.35,0.78c0.23,0.23,0.55,0.41,0.94,0.52l1.62,0.49
		c0.72,0.21,1.25,0.51,1.6,0.89c0.35,0.38,0.53,0.86,0.53,1.43c0,0.62-0.16,1.15-0.49,1.6c-0.32,0.45-0.76,0.8-1.3,1.04
		C190.63,226.54,190.03,226.66,189.36,226.66z"/>
	<path class="st0" d="M197.9,226.66c-0.7,0-1.29-0.15-1.79-0.44s-0.88-0.68-1.15-1.18c-0.27-0.5-0.4-1.05-0.4-1.66
		c0-0.82,0.16-1.55,0.49-2.18c0.32-0.63,0.78-1.13,1.36-1.5c0.58-0.37,1.27-0.55,2.07-0.55c0.58,0,1.09,0.1,1.53,0.3
		c0.44,0.2,0.79,0.48,1.06,0.83c0.27,0.36,0.43,0.76,0.49,1.22l-1.55,0.32c-0.02-0.41-0.16-0.75-0.41-1.03s-0.65-0.42-1.17-0.42
		c-0.34,0-0.65,0.08-0.93,0.24c-0.28,0.16-0.52,0.38-0.73,0.65c-0.21,0.28-0.37,0.6-0.48,0.97c-0.11,0.37-0.17,0.77-0.17,1.2
		c0,0.39,0.07,0.73,0.22,1.04s0.36,0.54,0.63,0.72c0.28,0.17,0.62,0.26,1.02,0.26c0.34,0,0.66-0.09,0.96-0.28s0.51-0.46,0.64-0.82
		l1.45,0.51c-0.26,0.58-0.67,1.03-1.22,1.34S198.63,226.66,197.9,226.66z"/>
	<path class="st0" d="M204.88,226.65c-0.52,0-0.98-0.12-1.37-0.35c-0.39-0.23-0.67-0.57-0.84-1c-0.17-0.43-0.18-0.96-0.04-1.58
		l1.03-4.44h1.55l-1,4.31c-0.14,0.58-0.08,1.02,0.17,1.33s0.62,0.46,1.11,0.46c0.39,0,0.73-0.08,1.02-0.25
		c0.29-0.17,0.54-0.42,0.75-0.75c0.2-0.33,0.36-0.75,0.46-1.24l0.9-3.84h1.55l-1.68,7.25h-1.38l0.3-1.83l0.15,0.12
		c-0.19,0.61-0.53,1.07-1.02,1.37S205.5,226.65,204.88,226.65z"/>
	<path class="st0" d="M213.06,226.65c-0.73,0-1.23-0.21-1.52-0.64c-0.29-0.42-0.35-0.99-0.19-1.68l1.93-8.31h1.55l-1.93,8.33
		c-0.1,0.38-0.07,0.65,0.07,0.82c0.15,0.17,0.4,0.25,0.75,0.25c0.14,0,0.25,0,0.36-0.01c0.1-0.01,0.19-0.02,0.27-0.04l-0.33,1.13
		c-0.15,0.06-0.3,0.1-0.44,0.12C213.44,226.64,213.27,226.65,213.06,226.65z"/>
	<path class="st0" d="M214.77,229.58l2.38-10.3h1.38l-0.36,1.99l-0.17,0.1c0.12-0.46,0.31-0.86,0.57-1.19s0.59-0.58,0.99-0.75
		c0.39-0.17,0.81-0.26,1.25-0.26c0.49,0,0.94,0.12,1.33,0.36c0.39,0.24,0.7,0.59,0.93,1.05c0.23,0.46,0.34,1.01,0.34,1.66
		c0,0.61-0.09,1.18-0.28,1.72c-0.18,0.54-0.44,1.01-0.77,1.42s-0.71,0.72-1.15,0.96s-0.92,0.35-1.44,0.35
		c-0.45,0-0.86-0.09-1.23-0.26s-0.65-0.43-0.86-0.78c-0.21-0.34-0.33-0.75-0.36-1.23l0.25-0.23l-1.23,5.4H214.77z M219.56,225.43
		c0.32,0,0.62-0.08,0.9-0.24c0.28-0.16,0.53-0.38,0.74-0.67c0.21-0.29,0.38-0.62,0.49-0.99c0.12-0.37,0.17-0.77,0.17-1.2
		c0-0.42-0.07-0.77-0.21-1.05c-0.14-0.29-0.34-0.5-0.59-0.65s-0.55-0.22-0.89-0.22c-0.35,0-0.66,0.08-0.94,0.25
		c-0.28,0.17-0.52,0.39-0.73,0.67c-0.21,0.29-0.37,0.62-0.48,1.01c-0.11,0.39-0.17,0.8-0.17,1.23c0,0.56,0.15,1.01,0.44,1.36
		C218.57,225.26,219,225.43,219.56,225.43z"/>
	<path class="st0" d="M224.77,220.5l0.28-1.22h5.15l-0.28,1.22H224.77z M227.42,226.65c-0.5,0-0.93-0.09-1.28-0.28
		c-0.35-0.19-0.6-0.47-0.75-0.83c-0.15-0.37-0.16-0.81-0.04-1.33l1.49-6.5l1.67-0.46l-1.64,6.98c-0.1,0.43-0.04,0.73,0.17,0.92
		c0.21,0.19,0.49,0.28,0.83,0.28c0.23,0,0.43-0.03,0.6-0.09c0.17-0.06,0.32-0.13,0.46-0.23l0.12,1.15
		c-0.25,0.15-0.51,0.26-0.78,0.32C228.01,226.62,227.72,226.65,227.42,226.65z"/>
	<path class="st0" d="M233.53,219.28l-1.68,7.25h-1.55l1.68-7.25H233.53z M233.17,218.06c-0.29,0-0.52-0.08-0.7-0.23
		c-0.17-0.15-0.25-0.37-0.23-0.64c0.01-0.34,0.12-0.6,0.32-0.78s0.46-0.28,0.77-0.28c0.3,0,0.53,0.07,0.7,0.22
		c0.17,0.15,0.25,0.36,0.24,0.62c-0.02,0.36-0.13,0.63-0.33,0.81S233.48,218.06,233.17,218.06z"/>
	<path class="st0" d="M234.24,226.53l1.68-7.25h1.36l-0.3,1.83l-0.15-0.1c0.2-0.62,0.56-1.09,1.07-1.4c0.51-0.31,1.08-0.47,1.7-0.47
		c0.54,0,1,0.12,1.38,0.36c0.38,0.24,0.64,0.58,0.8,1.02c0.15,0.44,0.16,0.97,0.01,1.6l-1.03,4.42h-1.55l1.02-4.35
		c0.13-0.55,0.07-0.98-0.16-1.3c-0.23-0.31-0.6-0.47-1.1-0.47c-0.39,0-0.73,0.09-1.04,0.26c-0.3,0.17-0.56,0.43-0.76,0.76
		c-0.2,0.33-0.37,0.75-0.49,1.25l-0.89,3.84H234.24z"/>
	<path class="st0" d="M245.82,229.65c-0.42,0-0.81-0.06-1.19-0.17c-0.38-0.11-0.71-0.27-0.99-0.48c-0.29-0.21-0.52-0.46-0.7-0.76
		c-0.18-0.3-0.29-0.64-0.34-1.02l1.55-0.38c0.08,0.5,0.25,0.9,0.51,1.18s0.7,0.43,1.3,0.43c0.33,0,0.64-0.06,0.93-0.19
		c0.29-0.13,0.55-0.34,0.77-0.63s0.39-0.71,0.51-1.25l0.41-1.84l0.17-0.12c-0.15,0.59-0.44,1.06-0.9,1.41
		c-0.45,0.35-0.99,0.52-1.61,0.52c-0.54,0-1.03-0.13-1.45-0.39c-0.43-0.26-0.76-0.62-1.01-1.09c-0.25-0.46-0.37-0.99-0.37-1.57
		c0-0.6,0.09-1.15,0.27-1.65c0.18-0.5,0.43-0.95,0.75-1.33c0.32-0.38,0.71-0.68,1.15-0.88s0.93-0.31,1.46-0.31
		c0.45,0,0.86,0.09,1.22,0.27c0.36,0.18,0.65,0.44,0.86,0.78c0.22,0.34,0.33,0.76,0.34,1.25l-0.23,0.19l0.54-2.35h1.55l-1.67,7.14
		c-0.17,0.78-0.44,1.41-0.81,1.88c-0.36,0.47-0.8,0.81-1.31,1.03C247.03,229.54,246.46,229.65,245.82,229.65z M246.77,225.12
		c0.42,0,0.79-0.13,1.11-0.38c0.32-0.26,0.58-0.6,0.78-1.04c0.19-0.43,0.29-0.92,0.29-1.45c0-0.39-0.07-0.72-0.2-0.99
		c-0.14-0.28-0.33-0.49-0.59-0.65c-0.26-0.15-0.55-0.23-0.89-0.23c-0.46,0-0.87,0.12-1.21,0.37c-0.34,0.25-0.61,0.58-0.8,1.01
		c-0.19,0.43-0.29,0.91-0.29,1.45c0,0.56,0.16,1.02,0.47,1.38C245.75,224.95,246.19,225.12,246.77,225.12z"/>
	<path class="st0" d="M259,229.29c-0.53-0.74-0.94-1.59-1.23-2.54c-0.29-0.95-0.43-1.91-0.43-2.89c0-0.83,0.11-1.65,0.33-2.44
		c0.22-0.8,0.53-1.55,0.94-2.26c0.41-0.71,0.91-1.36,1.5-1.94s1.27-1.09,2.02-1.52l0.59,0.86c-0.86,0.56-1.58,1.24-2.17,2.02
		c-0.58,0.79-1.02,1.65-1.32,2.58c-0.3,0.93-0.44,1.9-0.44,2.91c0,0.83,0.1,1.64,0.3,2.44s0.48,1.5,0.84,2.12L259,229.29z"/>
	<path class="st0" d="M261.6,226.53l1.68-7.25h1.36l-0.3,1.83l-0.15-0.1c0.2-0.62,0.56-1.09,1.07-1.4c0.51-0.31,1.08-0.47,1.7-0.47
		c0.54,0,1,0.12,1.38,0.36c0.38,0.24,0.64,0.58,0.8,1.02c0.15,0.44,0.16,0.97,0.01,1.6l-1.03,4.42h-1.55l1.02-4.35
		c0.13-0.55,0.07-0.98-0.16-1.3c-0.23-0.31-0.6-0.47-1.1-0.47c-0.39,0-0.73,0.09-1.04,0.26c-0.3,0.17-0.56,0.43-0.76,0.76
		c-0.2,0.33-0.37,0.75-0.49,1.25l-0.89,3.84H261.6z"/>
	<path class="st0" d="M277.93,222.92l-0.29,1.28h-6.9l0.29-1.28H277.93z M278.61,219.95l-0.29,1.28h-6.91l0.29-1.28H278.61z"/>
	<path class="st0" d="M280.81,226.53l1.47-6.35c0.08-0.3,0.15-0.57,0.22-0.81c0.07-0.24,0.14-0.48,0.22-0.72
		c-0.19,0.18-0.45,0.36-0.76,0.53c-0.31,0.17-0.64,0.32-0.99,0.44c-0.34,0.13-0.67,0.22-0.98,0.28l0.1-1.42
		c0.34-0.08,0.71-0.2,1.12-0.37s0.8-0.36,1.18-0.57c0.37-0.21,0.66-0.4,0.88-0.59h1.31l-2.22,9.57H280.81z"/>
	<path class="st0" d="M289.07,226.66c-0.7,0-1.29-0.16-1.79-0.46c-0.5-0.31-0.88-0.74-1.14-1.29c-0.26-0.55-0.39-1.2-0.39-1.94
		c0-0.33,0.02-0.66,0.06-0.99s0.09-0.65,0.16-0.97c0.14-0.58,0.32-1.12,0.56-1.63c0.24-0.51,0.53-0.95,0.88-1.34
		c0.35-0.39,0.77-0.69,1.24-0.9c0.47-0.21,1.01-0.32,1.6-0.32c0.67,0,1.24,0.15,1.71,0.46c0.47,0.3,0.84,0.73,1.1,1.28
		c0.26,0.55,0.38,1.19,0.38,1.93c0,0.33-0.02,0.66-0.06,0.98c-0.04,0.32-0.09,0.65-0.16,0.96c-0.14,0.58-0.32,1.13-0.56,1.64
		c-0.24,0.51-0.53,0.96-0.87,1.35s-0.74,0.69-1.19,0.91S289.64,226.66,289.07,226.66z M289.16,225.34c0.44,0,0.82-0.14,1.15-0.41
		c0.33-0.27,0.61-0.64,0.83-1.12c0.23-0.47,0.4-1,0.53-1.57c0.09-0.32,0.15-0.63,0.18-0.94c0.03-0.3,0.05-0.6,0.05-0.88
		c0-0.81-0.16-1.4-0.47-1.77c-0.31-0.37-0.74-0.55-1.28-0.55c-0.45,0-0.86,0.14-1.2,0.41s-0.64,0.65-0.88,1.12
		c-0.24,0.47-0.43,1-0.57,1.59c-0.07,0.31-0.12,0.62-0.16,0.92c-0.04,0.3-0.06,0.6-0.06,0.88c0,0.55,0.08,1,0.25,1.34
		c0.16,0.34,0.39,0.59,0.68,0.74C288.49,225.27,288.81,225.34,289.16,225.34z"/>
	<path class="st0" d="M298.52,226.68c-0.76,0-1.4-0.16-1.92-0.46c-0.52-0.31-0.91-0.74-1.17-1.31c-0.26-0.56-0.39-1.22-0.39-1.97
		c0-0.77,0.09-1.52,0.28-2.25c0.18-0.73,0.46-1.38,0.84-1.97c0.38-0.58,0.86-1.05,1.44-1.39c0.58-0.34,1.26-0.51,2.05-0.51
		c0.74,0,1.39,0.18,1.94,0.54c0.55,0.36,0.9,0.92,1.06,1.68l-1.45,0.51c-0.06-0.43-0.24-0.77-0.56-1.02
		c-0.31-0.24-0.68-0.36-1.11-0.36c-0.46,0-0.87,0.12-1.23,0.35c-0.35,0.23-0.65,0.54-0.89,0.91c-0.24,0.38-0.43,0.8-0.57,1.25
		c-0.14,0.46-0.24,0.93-0.3,1.4c0.17-0.49,0.5-0.87,0.99-1.13c0.48-0.26,1.01-0.39,1.57-0.39c0.85,0,1.53,0.24,2.02,0.73
		c0.5,0.48,0.75,1.13,0.75,1.93c0,0.66-0.14,1.25-0.41,1.78s-0.66,0.94-1.16,1.24S299.2,226.68,298.52,226.68z M298.53,225.37
		c0.4,0,0.73-0.09,0.99-0.27c0.27-0.18,0.47-0.42,0.6-0.72c0.14-0.3,0.2-0.63,0.2-0.99c0-0.46-0.15-0.85-0.46-1.15
		s-0.75-0.46-1.33-0.46c-0.4,0-0.73,0.09-1.02,0.27c-0.28,0.18-0.49,0.41-0.63,0.7c-0.14,0.29-0.21,0.59-0.21,0.92
		c0,0.27,0.05,0.51,0.14,0.72s0.22,0.39,0.39,0.54c0.17,0.15,0.36,0.26,0.59,0.33C298.03,225.34,298.27,225.37,298.53,225.37z"/>
	<path class="st0" d="M305.19,215.7c0.53,0.75,0.94,1.59,1.23,2.54c0.29,0.95,0.43,1.91,0.43,2.89c0,0.83-0.11,1.65-0.33,2.44
		c-0.22,0.8-0.53,1.55-0.94,2.26c-0.41,0.71-0.91,1.36-1.5,1.94s-1.27,1.09-2.02,1.52l-0.59-0.86c0.86-0.56,1.58-1.24,2.17-2.02
		c0.58-0.79,1.02-1.65,1.32-2.58c0.29-0.93,0.44-1.9,0.44-2.91c0-0.83-0.1-1.64-0.3-2.44c-0.2-0.79-0.48-1.5-0.84-2.12L305.19,215.7
		z"/>
	<path class="st0" d="M308.88,226.66c-0.29,0-0.53-0.08-0.71-0.24c-0.18-0.16-0.28-0.38-0.28-0.66c0-0.37,0.11-0.66,0.33-0.87
		c0.22-0.21,0.49-0.32,0.82-0.32c0.29,0,0.53,0.08,0.71,0.24c0.18,0.16,0.28,0.38,0.28,0.66c0,0.37-0.11,0.66-0.32,0.87
		S309.21,226.66,308.88,226.66z"/>
</g>
</svg>
