<?xml version="1.0" encoding="utf-8"?>
<!-- Generator: Adobe Illustrator 25.4.1, SVG Export Plug-In . SVG Version: 6.00 Build 0)  -->
<svg version="1.1" id="Layer_1" xmlns="http://www.w3.org/2000/svg" xmlns:xlink="http://www.w3.org/1999/xlink" x="0px" y="0px"
	 viewBox="0 0 970 250" style="enable-background:new 0 0 970 250;" xml:space="preserve">
<style type="text/css">
	.st0{fill:#FFFFFF;}
</style>
<g>
	<g>
		<g>
			<g>
				<path class="st0" d="M54.47,47.83c0,0.52-0.42,0.93-0.94,0.93c-0.53,0-0.95-0.41-0.95-0.93c0-0.52,0.42-0.92,0.96-0.92
					C54.05,46.91,54.47,47.31,54.47,47.83z M52.81,47.83c0,0.41,0.31,0.74,0.72,0.74c0.4,0.01,0.7-0.33,0.7-0.73
					c0-0.41-0.3-0.74-0.71-0.74C53.12,47.09,52.81,47.42,52.81,47.83z M53.37,48.31h-0.21v-0.92c0.08-0.01,0.2-0.03,0.35-0.03
					c0.17,0,0.25,0.03,0.32,0.07c0.06,0.04,0.1,0.11,0.1,0.2c0,0.11-0.08,0.19-0.19,0.22v0.01c0.09,0.03,0.13,0.1,0.16,0.22
					c0.03,0.14,0.05,0.19,0.07,0.22h-0.22c-0.03-0.03-0.05-0.11-0.07-0.22c-0.02-0.1-0.07-0.14-0.19-0.14h-0.1V48.31z M53.38,47.79
					h0.1c0.12,0,0.21-0.04,0.21-0.13c0-0.08-0.06-0.14-0.2-0.14c-0.06,0-0.1,0.01-0.12,0.01V47.79z"/>
			</g>
		</g>
	</g>
	<path class="st0" d="M68.27,44.62c-4.59,0-6.8-3.35-6.8-6.56c0-3.71,2.67-6.69,6.88-6.69c1.43,0,2.91,0.44,4.08,1.43l-1.3,1.81
		c-0.8-0.62-1.66-0.85-2.7-0.85c-2.23,0-3.89,1.56-3.89,4.23c0,2.44,1.53,4.38,3.97,4.38c1.04,0,1.95-0.31,2.75-1.01l1.19,1.82
		C71.31,44.15,69.75,44.62,68.27,44.62"/>
	<path class="st0" d="M79.51,44.62c-3.84,0-6.67-2.9-6.67-6.69c0-3.89,3.09-6.56,6.67-6.56c3.58,0,6.7,2.65,6.7,6.54
		C86.2,41.72,83.37,44.62,79.51,44.62 M83.11,37.93c0-2.33-1.14-4.36-3.61-4.36c-2.41,0-3.61,2.02-3.61,4.33
		c0,2.39,1.12,4.52,3.61,4.52c2.49,0,3.61-2.11,3.61-4.52V37.93z"/>
	<path class="st0" d="M93.99,44.62c-3.84,0-6.67-2.9-6.67-6.69c0-3.89,3.09-6.56,6.67-6.56c3.58,0,6.69,2.65,6.69,6.54
		C100.68,41.72,97.85,44.62,93.99,44.62 M97.59,37.93c0-2.33-1.14-4.36-3.61-4.36c-2.41,0-3.61,2.02-3.61,4.33
		c0,2.39,1.12,4.52,3.61,4.52c2.49,0,3.61-2.11,3.61-4.52V37.93z"/>
	<polygon class="st0" points="102.19,44.31 102.19,25.73 105.07,27.31 105.07,44.31 	"/>
	<path class="st0" d="M111.71,44.7c-3.24,0-4.8-1.56-4.8-1.56l1.3-1.69c0,0,1.48,0.99,3.42,0.99c0.93,0,1.71-0.65,1.71-1.3
		c0-0.65-0.29-1.2-1.14-1.63c-0.86-0.44-1.82-0.91-2.57-1.27c-0.75-0.37-2.41-1.48-2.41-3.66c0-2.2,2.23-3.42,4.51-3.42
		c2.18,0,3.84,1.43,3.84,1.43l-1.12,1.71c0,0-1.25-0.88-2.62-0.88c-1.38,0-1.66,0.88-1.66,1.24c0,0.36,0.13,0.93,1.01,1.4
		c0.88,0.47,1.79,0.96,3.09,1.69c1.3,0.73,2.02,1.97,2.02,3.37C116.3,42.52,114.95,44.7,111.71,44.7"/>
	<path class="st0" d="M124.09,44.62c-4.59,0-6.8-3.35-6.8-6.56c0-3.71,2.67-6.69,6.88-6.69c1.43,0,2.91,0.44,4.07,1.43l-1.3,1.81
		c-0.8-0.62-1.66-0.85-2.7-0.85c-2.23,0-3.89,1.56-3.89,4.23c0,2.44,1.53,4.38,3.97,4.38c1.04,0,1.95-0.31,2.75-1.01l1.19,1.82
		C127.12,44.15,125.57,44.62,124.09,44.62"/>
	<path class="st0" d="M138.28,42.83c0,0-1.45,1.79-4.2,1.79c-3.24,0-4.83-2.36-4.83-4.75v-8.22h2.88v8.1c0,1.4,1.09,2.57,2.78,2.57
		c1.48,0,2.93-1.76,2.93-1.76v-8.9h2.88v12.64L138.28,42.83z"/>
	<polygon class="st0" points="143.29,44.31 143.29,25.73 146.17,27.31 146.17,44.31 	"/>
	<path class="st0" d="M155.7,44.62c-2.54,0-4-1.42-4-1.42v6.31h-2.91V31.39l2.91,1.53c0,0,1.56-1.58,4.15-1.58
		c2.73,0,6.12,2.1,6.12,6.8C161.98,42.83,158.63,44.62,155.7,44.62 M155.51,33.57c-2.47,0-3.89,2.31-3.89,2.31v4.77
		c0,0,1.64,1.84,4,1.84c2.75,0,3.35-3.3,3.35-4.44C158.96,36.92,158.7,33.57,155.51,33.57"/>
	<path class="st0" d="M169.55,44.65h-1.82c-2.29,0-3.06-2.21-3.06-3.66v-7.45h-2.28v-1.89h2.28v-5.58h2.85v5.58h2.93v1.89h-2.91
		v6.75c0,0.75-0.13,1.95,1.14,1.95h2.08L169.55,44.65z"/>
	<path class="st0" d="M174.17,29.47c-1.04,0-1.89-0.85-1.89-1.89c0-1.04,0.86-1.89,1.89-1.89c1.04,0,1.9,0.85,1.9,1.89
		C176.07,28.61,175.21,29.47,174.17,29.47 M172.74,31.65h2.83v12.66h-2.83V31.65z"/>
	<path class="st0" d="M186.99,44.31v-8.1c0-1.4-1.09-2.57-2.78-2.57c-1.48,0-3.14,1.76-3.14,1.76v8.9h-2.88V31.68l2.44,1.45
		c0,0,1.66-1.79,4.41-1.79c3.24,0,4.83,2.36,4.83,4.75v8.23H186.99z"/>
	<path class="st0" d="M198.67,50.2c-0.44,0-3.82-0.05-3.82-0.05l0.05-2.31h2.84c2.75,0,4.31-1.48,4.31-3.5v-1.14
		c0,0-1.5,1.43-4.05,1.43c-2.93,0-6.28-1.79-6.28-6.49c0-4.7,3.4-6.8,6.13-6.8c2.59,0,4.15,1.58,4.15,1.58l2.91-1.45v12.59
		C204.9,47.45,202.64,50.2,198.67,50.2 M202.07,35.88c0,0-1.43-2.31-3.89-2.31c-3.19,0-3.45,3.34-3.45,4.49
		c0,1.14,0.6,4.44,3.35,4.44c2.36,0,4-1.84,4-1.84V35.88z"/>
	<polygon class="st0" points="35.68,53.92 35.68,45.64 37.3,44.01 41.99,48.7 41.99,50.28 	"/>
	<polygon class="st0" points="32.31,38.55 27,43.86 33.49,46.3 41.24,38.55 	"/>
	<polygon class="st0" points="34.92,31.15 28.09,31.15 30.28,37.47 41.24,37.47 	"/>
	<polygon class="st0" points="42,27.77 36.73,22.5 34.26,28.96 42,36.71 	"/>
	<polygon class="st0" points="57.97,44.86 50.16,44.86 43.85,38.55 54.8,38.55 	"/>
	<polygon class="st0" points="51.59,29.73 58.68,31.57 52.78,37.47 43.85,37.47 	"/>
	<polygon class="st0" points="43.08,25.75 49.4,22 49.4,30.39 43.08,36.71 	"/>
	<polygon class="st0" points="51.12,47.37 49.1,54.27 38.07,43.24 42.54,38.78 	"/>
	<g>
		<path class="st0" d="M209.2,32.51c0,0.75-0.6,1.34-1.37,1.34c-0.77,0-1.38-0.59-1.38-1.34c0-0.75,0.61-1.34,1.39-1.34
			C208.6,31.17,209.2,31.76,209.2,32.51z M206.8,32.51c0,0.59,0.45,1.07,1.05,1.07c0.58,0.01,1.02-0.48,1.02-1.06
			c0-0.59-0.44-1.07-1.04-1.07C207.25,31.44,206.8,31.92,206.8,32.51z M207.62,33.2h-0.31v-1.34c0.12-0.02,0.29-0.04,0.51-0.04
			c0.25,0,0.37,0.04,0.46,0.11c0.08,0.06,0.14,0.16,0.14,0.28c0,0.16-0.12,0.27-0.28,0.32v0.02c0.13,0.04,0.19,0.15,0.24,0.32
			c0.04,0.2,0.07,0.28,0.1,0.33h-0.33c-0.04-0.05-0.06-0.16-0.11-0.33c-0.02-0.14-0.11-0.2-0.28-0.2h-0.15V33.2z M207.63,32.45h0.15
			c0.17,0,0.31-0.06,0.31-0.19c0-0.12-0.09-0.2-0.28-0.2c-0.08,0-0.14,0.01-0.17,0.02V32.45z"/>
	</g>
</g>
</svg>
