<svg id="Layer_1" xmlns="http://www.w3.org/2000/svg" viewBox="0 0 300 250"><style>.st0{fill:#eaf5fb}</style><path class="st0" d="M144.43 93.34v-3.27H146v2.97c0 1.54.43 2.16 1.51 2.16 1.11 0 1.54-.62 1.54-2.16v-2.81c0-1.27-.35-1.89-1.27-2.48l-1.43-.92c-1.38-.89-1.92-1.92-1.92-3.72v-2.4c0-2.05 1.11-3.21 3.02-3.21s3.02 1.16 3.02 3.21v2.4h-1.57v-2.13c0-1.46-.4-2.02-1.43-2.02-1.03 0-1.43.57-1.43 2.02V83c0 1.27.35 1.89 1.27 2.48l1.43.92c1.38.89 1.92 1.92 1.92 3.73v3.21c0 2.13-1.16 3.32-3.13 3.32s-3.1-1.19-3.1-3.32zM155.14 79.17h-2.27v-1.4h6.15v1.4h-2.27v17.22h-1.62V79.17zM161.67 77.77h3c2.16 0 3.19 1.11 3.19 3.37v2.38c0 1.51-.49 2.43-1.46 2.86v.05c.97.43 1.46 1.35 1.46 2.89v7.07h-1.62v-6.96c0-1.73-.49-2.24-2.03-2.24h-.92v9.2h-1.62V77.77zm2.81 8.01c1.35 0 1.75-.51 1.75-2.24v-2.13c0-1.73-.41-2.24-1.75-2.24h-1.19v6.61h1.19zM171.01 77.77h5.34v1.4h-3.72v6.5h3.24v1.4h-3.24v7.91h3.72v1.4h-5.34V77.77zM179.11 77.77h2.11l2.94 13.63h.05V77.77h1.46v18.62h-1.75l-3.29-15.36h-.05v15.36h-1.46V77.77zM188.85 93.74v-12.9c0-2.13 1.16-3.35 3.1-3.35 1.97 0 3.08 1.21 3.08 3.35v2.05h-1.54v-1.75c0-1.57-.43-2.19-1.51-2.19-1.11 0-1.51.62-1.51 2.19v12.42c0 1.11.41 1.65 1.3 1.65 1.11 0 1.73-.84 1.73-2.35v-5.34h-1.51v-1.4h3.13V96.4h-1.38v-1.32h-.08c-.43 1.03-1.21 1.59-2.32 1.59-1.57-.01-2.49-1.12-2.49-2.93zM199.79 79.17h-2.27v-1.4h6.15v1.4h-2.27v17.22h-1.62V79.17zM206.32 77.77h1.62v7.91h3.05v-7.91h1.62v18.62h-1.62v-9.31h-3.05v9.31h-1.62V77.77zM215.9 77.77h5.34v1.4h-3.72v6.5h3.24v1.4h-3.24v7.91h3.72v1.4h-5.34V77.77zM223.99 77.77h2.11l2.94 13.63h.05V77.77h1.46v18.62h-1.75l-3.29-15.36h-.05v15.36H224V77.77zM234.47 96.39h-.65v-2.21h1.83v1.94l-1.19 3h-.94l.95-2.73zM245.15 79.17h-2.27v-1.4h6.15v1.4h-2.27v17.22h-1.62V79.17zM251.36 93.29V80.87c0-2.16 1.16-3.37 3.13-3.37s3.13 1.21 3.13 3.37v12.42c0 2.16-1.16 3.37-3.13 3.37s-3.13-1.21-3.13-3.37zm4.64-.27V81.14c0-1.57-.43-2.19-1.51-2.19-1.11 0-1.51.62-1.51 2.19v11.88c0 1.57.41 2.19 1.51 2.19 1.08-.01 1.51-.63 1.51-2.19zM260.81 77.77h2.11l2.94 13.63h.05V77.77h1.46v18.62h-1.75l-3.29-15.36h-.05v15.36h-1.46V77.77zM270.66 77.77H276v1.4h-3.72v6.5h3.24v1.4h-3.24v7.91H276v1.4h-5.34V77.77zM279.65 96.39H279v-2.21h1.83v1.94l-1.19 3h-.94l.95-2.73zM146.45 103.75h2.13l2.35 18.62h-1.65l-.54-4.62h-2.54l-.54 4.62h-1.57l2.36-18.62zm2.14 12.61l-1.08-10.04h-.05l-1.08 10.04h2.21zM153.47 103.75h2.11l2.94 13.63h.05v-13.63h1.46v18.62h-1.75l-3.29-15.36h-.05v15.36h-1.46v-18.62zM163.19 103.75h3.08c2.16 0 3.19 1.11 3.19 3.37V119c0 2.27-1.03 3.37-3.19 3.37h-3.08v-18.62zm2.89 17.23c1.35 0 1.75-.51 1.75-2.24V107.4c0-1.73-.4-2.24-1.75-2.24h-1.27v15.82h1.27zM176.92 103.75h5.34v1.4h-3.72v6.77h3.24v1.4h-3.24v9.04h-1.62v-18.61zM184.78 103.75h1.62v18.62h-1.62v-18.62zM189.55 103.75h3c2.16 0 3.19 1.11 3.19 3.37v2.38c0 1.51-.49 2.43-1.46 2.86v.05c.97.43 1.46 1.35 1.46 2.89v7.07h-1.62v-6.96c0-1.73-.49-2.24-2.03-2.24h-.92v9.2h-1.62v-18.62zm2.81 8.02c1.35 0 1.75-.51 1.75-2.24v-2.13c0-1.73-.41-2.24-1.75-2.24h-1.19v6.61h1.19zM198.76 103.75h2.56l2.08 13.74h.05l2.08-13.74h2.67v18.62h-1.62v-16.65h-.05l-2.51 16.65h-1.27l-2.51-16.65h-.05v16.65h-1.43v-18.62zM215.82 103.75h2.56l2.08 13.74h.05l2.08-13.74h2.67v18.62h-1.62v-16.65h-.05l-2.51 16.65h-1.27l-2.51-16.65h-.05v16.65h-1.43v-18.62zM228.37 119.38v-15.63h1.62v15.33c0 1.51.38 2.11 1.46 2.11s1.46-.59 1.46-2.11v-15.33h1.57v15.63c0 2.08-1.13 3.27-3.05 3.27-1.93 0-3.06-1.19-3.06-3.27zM237.27 119.33v-3.27h1.57v2.97c0 1.54.43 2.16 1.51 2.16 1.11 0 1.54-.62 1.54-2.16v-2.81c0-1.27-.35-1.89-1.27-2.48l-1.43-.92c-1.38-.89-1.92-1.92-1.92-3.72v-2.4c0-2.05 1.11-3.21 3.02-3.21 1.92 0 3.02 1.16 3.02 3.21v2.4h-1.57v-2.13c0-1.46-.41-2.02-1.43-2.02-1.03 0-1.43.57-1.43 2.02v2.02c0 1.27.35 1.89 1.27 2.48l1.43.92c1.38.89 1.92 1.92 1.92 3.73v3.21c0 2.13-1.16 3.32-3.13 3.32s-3.1-1.19-3.1-3.32zM246.21 119.44V106.7c0-2.05 1.08-3.21 3.02-3.21 1.97 0 3.05 1.16 3.05 3.21v3.05h-1.54v-2.78c0-1.46-.43-2.02-1.46-2.02-1.05 0-1.46.57-1.46 2.02v12.2c0 1.46.41 2.02 1.46 2.02 1.03 0 1.46-.57 1.46-2.02v-3.75h1.54v4.02c0 2.05-1.08 3.21-3.05 3.21-1.95 0-3.02-1.16-3.02-3.21zM255.14 103.75h1.62v17.22h3.46v1.4h-5.08v-18.62zM262.72 103.75h5.34v1.4h-3.72v6.5h3.24v1.4h-3.24v7.91h3.72v1.4h-5.34v-18.61zM270.44 119.33v-3.27h1.57v2.97c0 1.54.43 2.16 1.51 2.16 1.11 0 1.54-.62 1.54-2.16v-2.81c0-1.27-.35-1.89-1.27-2.48l-1.43-.92c-1.38-.89-1.92-1.92-1.92-3.72v-2.4c0-2.05 1.11-3.21 3.02-3.21 1.92 0 3.02 1.16 3.02 3.21v2.4h-1.57v-2.13c0-1.46-.41-2.02-1.43-2.02-1.03 0-1.43.57-1.43 2.02v2.02c0 1.27.35 1.89 1.27 2.48l1.43.92c1.38.89 1.92 1.92 1.92 3.73v3.21c0 2.13-1.16 3.32-3.13 3.32s-3.1-1.19-3.1-3.32zM277.86 120.17h1.81v2.21h-1.81v-2.21z"/></svg>