<svg id="Layer_1" xmlns="http://www.w3.org/2000/svg" viewBox="0 0 300 250"><style>.st0{fill:#00a9e0}.st1{fill:#fff}</style><path class="st0" d="M180.41 137.77H280.6v22.4H180.41z"/><path class="st1" d="M191.29 152.65v-7.89h1.92v6.23h3.05v1.66h-4.97zM197.82 152.65v-7.89h5.3v1.62h-3.46v1.48h3.27v1.53h-3.27v1.64h3.66v1.63h-5.5zM210.61 152.65l-.61-1.55h-3.05l-.58 1.55h-2.07l3.31-7.89h1.85l3.28 7.89h-2.13zm-2.12-5.78l-1 2.71h1.98l-.98-2.71zM218.27 152.65l-1.71-3.13h-.65v3.13h-1.87v-7.89h3.01c1.52 0 3.02.58 3.02 2.38 0 1.06-.62 1.82-1.64 2.13l2.06 3.38h-2.22zm-1.35-6.35h-1.01v1.84h.9c.61 0 1.38-.16 1.38-.96.01-.73-.7-.88-1.27-.88zM227.12 152.65l-3.17-5.16h-.03l.04 5.16h-1.85v-7.89h2.17l3.16 5.15h.03l-.04-5.15h1.85v7.89h-2.16zM242.19 152.65l.04-5.58h-.03l-2.05 5.58h-1.34l-1.99-5.58h-.03l.04 5.58h-1.79v-7.89h2.71l1.79 5.06h.04l1.72-5.06h2.75v7.89h-1.86zM250.27 152.87c-2.46 0-4.29-1.69-4.29-4.19 0-2.53 1.83-4.12 4.29-4.12 2.47 0 4.3 1.59 4.3 4.12 0 2.49-1.82 4.19-4.3 4.19zm0-6.6c-1.34 0-2.25 1.03-2.25 2.41 0 1.43.92 2.45 2.25 2.45s2.26-1.02 2.26-2.45c.01-1.38-.92-2.41-2.26-2.41zM260.73 152.65l-1.71-3.13h-.65v3.13h-1.87v-7.89h3.01c1.52 0 3.02.58 3.02 2.38 0 1.06-.62 1.82-1.64 2.13l2.06 3.38h-2.22zm-1.35-6.35h-1.01v1.84h.9c.61 0 1.38-.16 1.38-.96 0-.73-.7-.88-1.27-.88zM264.57 152.65v-7.89h5.3v1.62h-3.46v1.48h3.27v1.53h-3.27v1.64h3.66v1.63h-5.5z"/></svg>