<svg id="Layer_1" xmlns="http://www.w3.org/2000/svg" viewBox="0 0 300 250"><style>.st0{fill:#fff}</style><path class="st0" d="M169.68 192.06h-.74v-5.31h.74v5.31zM172.61 192.06h-.76l-1.45-3.55h.78l1.04 2.8h.01l1.05-2.8h.75l-1.42 3.55zM176.93 189.76c0-.26-.08-.46-.24-.59-.16-.13-.37-.19-.64-.19-.2 0-.39.04-.57.12-.18.08-.33.18-.45.3l-.38-.45c.17-.17.39-.29.64-.39.25-.09.52-.14.81-.14.25 0 .48.04.66.11.19.07.34.17.46.3s.21.27.27.44c.06.17.09.35.09.55v1.55c0 .12 0 .25.01.38s.02.24.04.33h-.64a2.22 2.22 0 0 1-.06-.51h-.02c-.13.19-.29.34-.49.44-.2.1-.43.16-.7.16-.14 0-.29-.02-.44-.06-.15-.04-.29-.1-.42-.18-.12-.08-.23-.2-.31-.34-.08-.14-.12-.31-.12-.52 0-.27.07-.48.22-.64.14-.16.33-.28.57-.36.24-.08.5-.14.79-.16.29-.02.59-.04.89-.04v-.11zm-.18.61c-.17 0-.36.01-.54.02s-.36.04-.51.09-.28.11-.38.2a.46.46 0 0 0-.15.36c0 .1.02.19.06.26.04.07.1.13.17.17s.15.08.23.09.17.03.26.03c.33 0 .58-.1.76-.3s.27-.45.27-.75v-.19h-.17zM179.42 188.51c.01.09.02.19.02.3s.01.21.01.28h.02c.04-.09.11-.18.18-.27.08-.08.17-.15.27-.22.1-.06.21-.11.33-.15.12-.04.24-.05.37-.05.23 0 .43.04.59.12a1.19 1.19 0 0 1 .65.77c.05.17.08.36.08.56v2.2h-.7v-1.97c0-.14-.01-.28-.03-.41s-.06-.25-.12-.34a.642.642 0 0 0-.25-.24.804.804 0 0 0-.41-.09c-.28 0-.51.11-.69.32-.18.21-.27.5-.27.85v1.89h-.7v-2.79c0-.09 0-.22-.01-.37s-.01-.28-.02-.4h.68zM185.28 188.51l.8 2.71h.01l.85-2.71h.74l.86 2.71h.01l.8-2.71h.74l-1.18 3.55h-.73l-.88-2.67h-.02l-.87 2.67h-.74l-1.18-3.55h.79zM193.02 189.76c0-.26-.08-.46-.24-.59-.16-.13-.37-.19-.64-.19-.2 0-.39.04-.57.12-.18.08-.33.18-.45.3l-.38-.45c.17-.17.39-.29.64-.39.25-.09.52-.14.81-.14.25 0 .48.04.66.11.19.07.34.17.46.3s.21.27.27.44c.06.17.09.35.09.55v1.55c0 .12 0 .25.01.38s.02.24.04.33h-.64a2.22 2.22 0 0 1-.06-.51H193c-.13.19-.29.34-.49.44-.2.1-.43.16-.7.16-.14 0-.29-.02-.44-.06-.15-.04-.29-.1-.42-.18-.12-.08-.23-.2-.31-.34-.08-.14-.12-.31-.12-.52 0-.27.07-.48.22-.64.14-.16.33-.28.57-.36.24-.08.5-.14.79-.16.29-.02.59-.04.89-.04v-.11zm-.17.61c-.17 0-.36.01-.54.02s-.36.04-.51.09-.28.11-.38.2a.46.46 0 0 0-.15.36c0 .1.02.19.06.26.04.07.1.13.17.17s.15.08.23.09.17.03.26.03c.33 0 .58-.1.76-.3s.27-.45.27-.75v-.19h-.17zM196.79 189.41a.876.876 0 0 0-.34-.32 1.016 1.016 0 0 0-.73-.09c-.08.02-.15.04-.21.08s-.11.08-.15.14a.37.37 0 0 0-.06.21c0 .15.07.26.2.33.14.07.34.14.61.2.17.04.33.09.47.14.14.06.27.12.38.21.11.08.19.18.25.3.06.11.09.25.09.4 0 .21-.04.39-.12.53-.08.15-.19.26-.32.36-.13.09-.28.16-.45.2s-.34.06-.52.06c-.27 0-.53-.05-.79-.16s-.47-.27-.64-.48l.5-.43c.09.14.23.26.39.35.17.1.35.14.55.14.09 0 .18-.01.26-.03.08-.02.16-.05.22-.09a.41.41 0 0 0 .16-.16c.04-.06.06-.15.06-.25 0-.17-.08-.29-.24-.37-.16-.08-.39-.15-.69-.22-.12-.03-.24-.07-.36-.11-.12-.04-.23-.1-.33-.18a.814.814 0 0 1-.24-.28.871.871 0 0 1-.09-.42c0-.19.04-.35.12-.49.08-.14.18-.25.3-.34.12-.09.27-.15.43-.19.16-.04.33-.06.5-.06.25 0 .5.05.74.15s.42.25.55.43l-.5.44zM201.82 189.09h-.94v1.85c0 .21.04.37.12.46.08.09.21.14.38.14.06 0 .13-.01.21-.02s.14-.03.2-.06l.02.58c-.08.03-.18.05-.28.07-.1.02-.21.03-.32.03-.33 0-.59-.09-.77-.28-.18-.18-.27-.46-.27-.83v-1.93h-.68v-.58h.68v-1.02h.7v1.02h.94v.57zM202.54 188.91c0-.15-.01-.28-.02-.4h.67c.01.09.02.19.02.31s.01.21.01.29h.02c.1-.21.25-.38.44-.51s.41-.19.65-.19c.11 0 .2.01.28.03l-.03.65c-.1-.03-.21-.04-.32-.04-.17 0-.32.03-.44.09a.95.95 0 0 0-.31.25c-.08.1-.14.23-.18.36s-.06.28-.06.43v1.87h-.7v-2.79c-.03-.08-.03-.2-.03-.35zM208.44 190.26v.12c0 .04 0 .08-.01.12h-2.83a1.072 1.072 0 0 0 .35.76c.1.1.23.17.36.23.14.05.28.08.44.08.24 0 .45-.05.62-.16.17-.1.31-.23.41-.38l.49.4c-.19.25-.41.44-.67.56s-.54.18-.86.18c-.27 0-.52-.04-.75-.13-.23-.09-.43-.22-.59-.38s-.29-.36-.39-.59c-.1-.23-.14-.48-.14-.76 0-.27.05-.53.14-.76s.22-.43.39-.6a1.84 1.84 0 0 1 1.32-.53c.26 0 .5.04.71.13s.39.21.54.37c.15.16.26.35.34.58s.13.47.13.76zm-.72-.29c0-.14-.03-.27-.07-.39a.851.851 0 0 0-.5-.53 1.162 1.162 0 0 0-.85 0c-.13.05-.25.12-.34.21s-.18.2-.24.32-.1.25-.11.39h2.11zM211.58 189.76c0-.26-.08-.46-.24-.59-.16-.13-.37-.19-.64-.19-.2 0-.39.04-.57.12-.18.08-.33.18-.45.3l-.38-.45c.17-.17.39-.29.64-.39.25-.09.52-.14.81-.14.25 0 .48.04.66.11.19.07.34.17.46.3s.21.27.27.44c.06.17.09.35.09.55v1.55c0 .12 0 .25.01.38s.02.24.04.33h-.64a2.22 2.22 0 0 1-.06-.51h-.02c-.13.19-.29.34-.49.44-.2.1-.43.16-.7.16-.14 0-.29-.02-.44-.06-.15-.04-.29-.1-.42-.18-.12-.08-.23-.2-.31-.34-.08-.14-.12-.31-.12-.52 0-.27.07-.48.22-.64.14-.16.33-.28.57-.36.24-.08.5-.14.79-.16.29-.02.59-.04.89-.04v-.11zm-.17.61c-.17 0-.36.01-.54.02s-.36.04-.51.09-.28.11-.38.2a.46.46 0 0 0-.15.36c0 .1.02.19.06.26.04.07.1.13.17.17s.15.08.23.09.17.03.26.03c.33 0 .58-.1.76-.3s.27-.45.27-.75v-.19h-.17zM215.1 189.09h-.94v1.85c0 .21.04.37.12.46.08.09.21.14.38.14.06 0 .13-.01.21-.02s.14-.03.2-.06l.02.58c-.08.03-.18.05-.28.07-.1.02-.21.03-.32.03-.33 0-.59-.09-.77-.28-.18-.18-.27-.46-.27-.83v-1.93h-.68v-.58h.68v-1.02h.7v1.02h.94v.57zM219.15 190.26v.12c0 .04 0 .08-.01.12h-2.83a1.072 1.072 0 0 0 .35.76c.1.1.23.17.36.23.14.05.28.08.44.08.24 0 .45-.05.62-.16.17-.1.31-.23.41-.38l.49.4c-.19.25-.41.44-.67.56s-.54.18-.86.18c-.27 0-.52-.04-.75-.13-.23-.09-.43-.22-.59-.38s-.29-.36-.39-.59c-.1-.23-.14-.48-.14-.76 0-.27.05-.53.14-.76s.22-.43.39-.6a1.84 1.84 0 0 1 1.32-.53c.26 0 .5.04.71.13s.39.21.54.37c.15.16.26.35.34.58s.13.47.13.76zm-.72-.29c0-.14-.03-.27-.07-.39a.851.851 0 0 0-.5-.53 1.162 1.162 0 0 0-.85 0c-.13.05-.25.12-.34.21s-.18.2-.24.32-.1.25-.11.39h2.11zM222.96 191.5c-.13.21-.32.38-.55.49s-.48.17-.73.17c-.28 0-.52-.05-.74-.15s-.41-.23-.56-.4-.27-.37-.36-.6c-.08-.23-.13-.47-.13-.73s.04-.5.13-.73c.08-.23.21-.43.36-.6s.35-.3.57-.4c.22-.09.46-.14.73-.14.29 0 .54.06.76.18.21.12.38.27.51.45h.01v-2.65h.71v5.67h-.68v-.56h-.03zm-2.34-1.22c0 .16.02.32.07.48s.12.29.23.41c.1.12.22.21.37.29.14.07.31.11.51.11a1.131 1.131 0 0 0 .87-.38c.11-.12.19-.25.24-.41s.09-.32.09-.49c0-.17-.03-.33-.09-.49s-.14-.29-.24-.41a1.131 1.131 0 0 0-.87-.38c-.2 0-.37.04-.51.1-.15.07-.27.16-.37.28-.1.12-.18.26-.23.41s-.07.32-.07.48zM227.02 188.51l.8 2.71h.01l.85-2.71h.74l.86 2.71h.01l.8-2.71h.74l-1.18 3.55h-.73l-.88-2.67h-.02l-.87 2.67h-.74l-1.18-3.55h.79zM233.38 187.23c0 .13-.05.24-.14.32-.09.09-.2.13-.33.13a.445.445 0 0 1-.46-.45.445.445 0 0 1 .46-.46c.13 0 .24.04.33.13.09.09.14.2.14.33zm-.11 4.83h-.7v-3.55h.7v3.55zM236.23 189.09h-.94v1.85c0 .21.04.37.12.46.08.09.21.14.38.14.06 0 .13-.01.21-.02s.14-.03.2-.06l.02.58c-.08.03-.18.05-.28.07-.1.02-.21.03-.32.03-.33 0-.59-.09-.77-.28-.18-.18-.27-.46-.27-.83v-1.93h-.68v-.58h.68v-1.02h.7v1.02h.94v.57zM237.7 189.05c.08-.17.23-.33.43-.45.21-.12.44-.19.69-.19.23 0 .43.04.59.12a1.171 1.171 0 0 1 .65.77c.05.18.08.36.08.56v2.2h-.71v-1.97c0-.15-.01-.28-.03-.41a.967.967 0 0 0-.12-.35.69.69 0 0 0-.24-.24.79.79 0 0 0-.4-.09c-.28 0-.51.11-.69.32s-.27.5-.27.85v1.89h-.71v-5.67h.71v2.65h.02zM247.8 191.24c-.21.28-.48.52-.82.69-.33.18-.74.27-1.21.27-.4 0-.78-.07-1.12-.21-.34-.14-.64-.33-.88-.58-.25-.25-.44-.54-.58-.88-.14-.34-.21-.72-.21-1.13 0-.42.07-.79.21-1.14.14-.34.34-.63.59-.88.25-.24.55-.43.9-.57a3.139 3.139 0 0 1 1.67-.15c.18.04.36.09.53.16.17.07.32.16.46.26s.26.22.36.36l-.58.45c-.13-.18-.31-.33-.55-.45s-.49-.18-.77-.18c-.31 0-.59.06-.84.17s-.46.27-.63.46c-.17.2-.31.42-.4.68s-.14.53-.14.82c0 .3.05.58.14.84.09.26.22.49.4.68.17.19.38.34.63.45.25.11.52.17.83.17.3 0 .57-.06.82-.18s.45-.29.61-.52l.58.41zM252.03 190.28a1.909 1.909 0 0 1-.55 1.36c-.17.17-.38.3-.61.39a2.136 2.136 0 0 1-1.52 0c-.24-.09-.44-.22-.61-.39a1.91 1.91 0 0 1-.55-1.36 1.866 1.866 0 0 1 .55-1.34c.17-.17.37-.29.61-.39a2.136 2.136 0 0 1 1.52 0c.23.09.44.22.61.39.17.17.31.36.4.59.1.22.15.47.15.75zm-.74 0c0-.17-.03-.33-.08-.49-.05-.15-.13-.29-.23-.41s-.22-.21-.37-.28c-.15-.07-.32-.1-.51-.1s-.36.04-.51.1c-.15.07-.27.16-.37.28-.1.12-.18.25-.23.41s-.08.32-.08.49c0 .17.03.33.08.49s.13.29.23.41.22.21.37.28c.15.07.32.1.51.1s.36-.03.51-.1c.15-.07.27-.16.37-.28.1-.12.18-.26.23-.41.06-.15.08-.32.08-.49zM256.6 190.28a1.909 1.909 0 0 1-.55 1.36c-.17.17-.38.3-.61.39a2.136 2.136 0 0 1-1.52 0c-.24-.09-.44-.22-.61-.39a1.91 1.91 0 0 1-.55-1.36 1.866 1.866 0 0 1 .55-1.34c.17-.17.37-.29.61-.39a2.136 2.136 0 0 1 1.52 0c.23.09.44.22.61.39.17.17.31.36.4.59.1.22.15.47.15.75zm-.73 0c0-.17-.03-.33-.08-.49-.05-.15-.13-.29-.23-.41s-.22-.21-.37-.28c-.15-.07-.32-.1-.51-.1s-.36.04-.51.1c-.15.07-.27.16-.37.28-.1.12-.18.25-.23.41s-.08.32-.08.49c0 .17.03.33.08.49s.13.29.23.41.22.21.37.28c.15.07.32.1.51.1s.36-.03.51-.1c.15-.07.27-.16.37-.28.1-.12.18-.26.23-.41.05-.15.08-.32.08-.49zM258.3 192.06h-.71v-5.67h.71v5.67zM261.42 192.06h-.74v-4.66h-1.7v-.65h4.15v.65h-1.7v4.66zM266.67 190.28a1.909 1.909 0 0 1-.55 1.36c-.17.17-.38.3-.61.39a2.136 2.136 0 0 1-1.52 0c-.24-.09-.44-.22-.61-.39a1.91 1.91 0 0 1-.55-1.36 1.866 1.866 0 0 1 .55-1.34c.17-.17.37-.29.61-.39a2.136 2.136 0 0 1 1.52 0c.23.09.44.22.61.39.17.17.31.36.4.59.1.22.15.47.15.75zm-.73 0c0-.17-.03-.33-.08-.49-.05-.15-.13-.29-.23-.41s-.22-.21-.37-.28c-.15-.07-.32-.1-.51-.1s-.36.04-.51.1c-.15.07-.27.16-.37.28-.1.12-.18.25-.23.41s-.08.32-.08.49c0 .17.03.33.08.49s.13.29.23.41.22.21.37.28c.15.07.32.1.51.1s.36-.03.51-.1c.15-.07.27-.16.37-.28.1-.12.18-.26.23-.41.05-.15.08-.32.08-.49zM268.28 188.51c.01.09.02.19.02.3s.01.21.01.28h.02c.04-.09.11-.18.18-.27.08-.08.17-.15.27-.22.1-.06.21-.11.33-.15.12-.04.24-.05.37-.05.23 0 .43.04.59.12a1.19 1.19 0 0 1 .65.77c.05.17.08.36.08.56v2.2h-.7v-1.97c0-.14-.01-.28-.03-.41s-.06-.25-.12-.34a.642.642 0 0 0-.25-.24.804.804 0 0 0-.41-.09c-.28 0-.51.11-.69.32-.18.21-.27.5-.27.85v1.89h-.7v-2.79c0-.09 0-.22-.01-.37s-.01-.28-.02-.4h.68zM275.33 190.26v.12c0 .04 0 .08-.01.12h-2.83a1.072 1.072 0 0 0 .35.76c.1.1.23.17.36.23.14.05.28.08.44.08.24 0 .45-.05.62-.16.17-.1.31-.23.41-.38l.49.4c-.19.25-.41.44-.67.56s-.54.18-.86.18c-.27 0-.52-.04-.75-.13-.23-.09-.43-.22-.59-.38s-.29-.36-.39-.59c-.1-.23-.14-.48-.14-.76 0-.27.05-.53.14-.76s.22-.43.39-.6a1.84 1.84 0 0 1 1.32-.53c.26 0 .5.04.71.13s.39.21.54.37c.15.16.26.35.34.58s.13.47.13.76zm-.72-.29c0-.14-.03-.27-.07-.39a.851.851 0 0 0-.5-.53 1.162 1.162 0 0 0-.85 0c-.13.05-.25.12-.34.21s-.18.2-.24.32-.1.25-.11.39h2.11zM276.24 188.37c0-.23.04-.46.13-.66s.21-.39.37-.54.34-.27.54-.36c.21-.09.43-.13.66-.13s.46.04.66.13a1.702 1.702 0 0 1 .91.9c.09.21.13.43.13.66 0 .24-.04.46-.13.66s-.21.38-.37.54-.34.27-.54.36c-.21.09-.43.13-.66.13s-.46-.04-.66-.13a1.702 1.702 0 0 1-.91-.9c-.09-.21-.13-.43-.13-.66zm.27 0a1.42 1.42 0 0 0 .42 1.01c.13.13.28.24.46.31s.36.11.56.11.39-.04.56-.11a1.436 1.436 0 0 0 .77-.77c.08-.17.11-.36.11-.55 0-.2-.04-.39-.11-.56-.08-.17-.18-.33-.31-.46s-.28-.23-.46-.31a1.471 1.471 0 0 0-1.12 0c-.17.08-.33.18-.46.31s-.23.28-.31.46c-.07.17-.11.36-.11.56zm1.85.94l-.41-.74h-.27v.74h-.46v-1.92h.83c.09 0 .18.01.26.03.08.02.16.05.23.1.07.04.13.11.17.18.04.08.06.17.06.29 0 .13-.04.24-.11.32s-.16.15-.27.19l.51.81h-.54zm-.33-1.08c.07 0 .13-.02.19-.07s.09-.11.09-.18c0-.08-.03-.14-.1-.17a.329.329 0 0 0-.18-.05h-.35v.47h.35zM166.72 199.03a1.909 1.909 0 0 1-.55 1.36c-.17.17-.38.3-.61.39a2.136 2.136 0 0 1-1.52 0c-.24-.09-.44-.22-.61-.39a1.91 1.91 0 0 1-.55-1.36 1.866 1.866 0 0 1 .55-1.34c.17-.17.37-.29.61-.39a2.136 2.136 0 0 1 1.52 0c.23.09.44.22.61.39.17.17.31.36.4.59.11.22.15.47.15.75zm-.73 0c0-.17-.03-.33-.08-.49-.05-.15-.13-.29-.23-.41s-.22-.21-.37-.28c-.15-.07-.32-.1-.51-.1s-.36.04-.51.1c-.15.07-.27.16-.37.28-.1.12-.18.25-.23.41s-.08.32-.08.49c0 .17.03.33.08.49s.13.29.23.41.22.21.37.28c.15.07.32.1.51.1s.36-.03.51-.1c.15-.07.27-.16.37-.28.1-.12.18-.26.23-.41.05-.16.08-.32.08-.49zM168.34 197.26c.01.09.02.19.02.3s.01.21.01.28h.02c.04-.09.11-.18.18-.27.08-.08.17-.15.27-.22.1-.06.21-.11.33-.15.12-.04.24-.05.37-.05.23 0 .43.04.59.12a1.19 1.19 0 0 1 .65.77c.05.17.08.36.08.56v2.2h-.7v-1.97c0-.14-.01-.28-.03-.41s-.06-.25-.12-.34a.642.642 0 0 0-.25-.24.804.804 0 0 0-.41-.09c-.28 0-.51.11-.69.32-.18.21-.27.5-.27.85v1.89h-.7v-2.79c0-.09 0-.22-.01-.37s-.01-.28-.02-.4h.68zM174.67 197.8c.08-.17.23-.33.43-.45.21-.12.44-.19.69-.19.23 0 .43.04.59.12a1.171 1.171 0 0 1 .65.77c.05.18.08.36.08.56v2.2h-.71v-1.97c0-.15-.01-.28-.03-.41a.967.967 0 0 0-.12-.35.69.69 0 0 0-.24-.24.79.79 0 0 0-.4-.09c-.28 0-.51.11-.69.32s-.27.5-.27.85v1.89h-.71v-5.67h.71v2.65h.02zM179.14 195.97c0 .13-.05.24-.14.32-.09.09-.2.13-.33.13a.445.445 0 0 1-.46-.45.445.445 0 0 1 .46-.46c.13 0 .24.04.33.13.09.1.14.2.14.33zm-.11 4.84h-.7v-3.55h.7v3.55zM182.17 198.16a.876.876 0 0 0-.34-.32 1.016 1.016 0 0 0-.73-.09c-.08.02-.15.04-.21.08s-.11.08-.15.14a.37.37 0 0 0-.06.21c0 .15.07.26.2.33.14.07.34.14.61.2.17.04.33.09.47.14.14.06.27.12.38.21.11.08.19.18.25.3.06.11.09.25.09.4 0 .21-.04.39-.12.53-.08.15-.19.26-.32.36-.13.09-.28.16-.45.2s-.34.06-.52.06c-.27 0-.53-.05-.79-.16s-.47-.27-.64-.48l.5-.43c.09.14.23.26.39.35.17.1.35.14.55.14.09 0 .18-.01.26-.03.08-.02.16-.05.22-.09a.41.41 0 0 0 .16-.16c.04-.06.06-.15.06-.25 0-.17-.08-.29-.24-.37-.16-.08-.39-.15-.69-.22-.12-.03-.24-.07-.36-.11-.12-.04-.23-.1-.33-.18a.814.814 0 0 1-.24-.28.871.871 0 0 1-.09-.42c0-.19.04-.35.12-.49.08-.14.18-.25.3-.34.12-.09.27-.15.43-.19.16-.04.33-.06.5-.06.25 0 .5.05.74.15s.42.25.55.43l-.5.44zM187.67 198.51c0-.26-.08-.46-.24-.59-.16-.13-.37-.19-.64-.19-.2 0-.39.04-.57.12-.18.08-.33.18-.45.3l-.38-.45c.17-.17.39-.29.64-.39.25-.09.52-.14.81-.14.25 0 .48.04.66.11.19.07.34.17.46.3s.21.27.27.44c.06.17.09.35.09.55v1.55c0 .12 0 .25.01.38s.02.24.04.33h-.64a2.22 2.22 0 0 1-.06-.51h-.02c-.13.19-.29.34-.49.44-.2.1-.43.16-.7.16-.14 0-.29-.02-.44-.06-.15-.04-.29-.1-.42-.18-.12-.08-.23-.2-.31-.34-.08-.14-.12-.31-.12-.52 0-.27.07-.48.22-.64.14-.16.33-.28.57-.36.24-.08.5-.14.79-.16.29-.02.59-.04.89-.04v-.11zm-.17.61c-.17 0-.36.01-.54.02s-.36.04-.51.09-.28.11-.38.2a.46.46 0 0 0-.15.36c0 .1.02.19.06.26.04.07.1.13.17.17s.15.08.23.09.17.03.26.03c.33 0 .58-.1.76-.3s.27-.45.27-.75v-.19h-.17zM190.22 200.25v.56h-.68v-5.67h.71v2.65h.02c.12-.17.29-.32.5-.45.21-.12.47-.18.76-.18.26 0 .5.05.72.14s.4.23.56.4c.16.17.28.37.36.6.08.23.13.47.13.73s-.04.5-.13.73c-.08.23-.21.43-.36.6s-.34.3-.56.4a1.78 1.78 0 0 1-1.47-.02 1.37 1.37 0 0 1-.55-.49h-.01zm2.36-1.22c0-.17-.03-.32-.08-.48s-.12-.29-.22-.41-.22-.21-.37-.28c-.15-.07-.32-.1-.51-.1-.18 0-.34.04-.49.1a1.173 1.173 0 0 0-.62.69c-.05.15-.09.32-.09.49 0 .17.03.33.09.49s.14.29.24.41a1.131 1.131 0 0 0 .87.38c.2 0 .37-.04.51-.11s.27-.17.37-.29c.1-.12.17-.26.22-.41s.08-.32.08-.48zM197.12 200.25c-.13.21-.32.38-.55.49s-.48.17-.73.17c-.28 0-.52-.05-.74-.15s-.41-.23-.56-.4-.27-.37-.36-.6c-.08-.23-.13-.47-.13-.73s.04-.5.13-.73c.08-.23.21-.43.36-.6s.35-.3.57-.4c.22-.09.46-.14.73-.14.29 0 .54.06.76.18.21.12.38.27.51.45h.01v-2.65h.71v5.67h-.68v-.56h-.03zm-2.34-1.22c0 .16.02.32.07.48s.12.29.23.41c.1.12.22.21.37.29.14.07.31.11.51.11a1.131 1.131 0 0 0 .87-.38c.11-.12.19-.25.24-.41s.09-.32.09-.49c0-.17-.03-.33-.09-.49s-.14-.29-.24-.41a1.131 1.131 0 0 0-.87-.38c-.2 0-.37.04-.51.1-.15.07-.27.16-.37.28-.1.12-.18.26-.23.41s-.07.32-.07.48zM202.65 199.03a1.909 1.909 0 0 1-.55 1.36c-.17.17-.38.3-.61.39a2.136 2.136 0 0 1-1.52 0c-.24-.09-.44-.22-.61-.39a1.91 1.91 0 0 1-.55-1.36 1.866 1.866 0 0 1 .55-1.34c.17-.17.37-.29.61-.39a2.136 2.136 0 0 1 1.52 0c.23.09.44.22.61.39.17.17.31.36.4.59.1.22.15.47.15.75zm-.74 0c0-.17-.03-.33-.08-.49-.05-.15-.13-.29-.23-.41s-.22-.21-.37-.28c-.15-.07-.32-.1-.51-.1s-.36.04-.51.1c-.15.07-.27.16-.37.28-.1.12-.18.25-.23.41s-.08.32-.08.49c0 .17.03.33.08.49s.13.29.23.41.22.21.37.28c.15.07.32.1.51.1s.36-.03.51-.1c.15-.07.27-.16.37-.28.1-.12.18-.26.23-.41.06-.16.08-.32.08-.49zM204.74 197.36c.2-.13.43-.2.7-.2.24 0 .46.06.65.17.19.11.34.29.45.55.12-.23.29-.41.5-.53.21-.12.45-.18.71-.18.23 0 .43.04.59.12a1.171 1.171 0 0 1 .65.77c.05.18.08.36.08.56v2.2h-.71v-1.97c0-.14-.01-.28-.04-.41-.03-.13-.07-.25-.13-.34a.69.69 0 0 0-.24-.24.737.737 0 0 0-.38-.09c-.16 0-.3.03-.41.1-.12.07-.21.16-.28.26s-.12.23-.16.36c-.03.14-.05.27-.05.41v1.92h-.71v-2.11c0-.14-.01-.27-.04-.38a.91.91 0 0 0-.13-.3.603.603 0 0 0-.23-.19.728.728 0 0 0-.35-.07.81.81 0 0 0-.65.32c-.17.21-.26.5-.26.85v1.89h-.7v-2.79c0-.09 0-.22-.01-.37s-.01-.28-.02-.4h.67c.01.09.02.19.02.3s.01.21.01.28h.02c.11-.2.26-.36.45-.49zM213.59 199v.12c0 .04 0 .08-.01.12h-2.83a1.072 1.072 0 0 0 .35.76c.1.1.23.17.36.23.14.05.28.08.44.08.24 0 .45-.05.62-.16.17-.1.31-.23.41-.38l.49.4c-.19.25-.41.44-.67.56s-.54.18-.86.18c-.27 0-.52-.04-.75-.13-.23-.09-.43-.22-.59-.38s-.29-.36-.39-.59c-.1-.23-.14-.48-.14-.76 0-.27.05-.53.14-.76s.22-.43.39-.6a1.84 1.84 0 0 1 1.32-.53c.26 0 .5.04.71.13s.39.21.54.37c.15.16.26.35.34.58s.13.48.13.76zm-.72-.28c0-.14-.03-.27-.07-.39a.851.851 0 0 0-.5-.53 1.162 1.162 0 0 0-.85 0c-.13.05-.25.12-.34.21s-.18.2-.24.32-.1.25-.11.39h2.11zM215.21 197.26c.01.09.02.19.02.3s.01.21.01.28h.02c.04-.09.11-.18.18-.27.08-.08.17-.15.27-.22.1-.06.21-.11.33-.15.12-.04.24-.05.37-.05.23 0 .43.04.59.12a1.19 1.19 0 0 1 .65.77c.05.17.08.36.08.56v2.2h-.7v-1.97c0-.14-.01-.28-.03-.41s-.06-.25-.12-.34a.642.642 0 0 0-.25-.24.804.804 0 0 0-.41-.09c-.28 0-.51.11-.69.32-.18.21-.27.5-.27.85v1.89h-.7v-2.79c0-.09 0-.22-.01-.37s-.01-.28-.02-.4h.68zM219.8 200.36a.491.491 0 0 1-.5.5c-.14 0-.26-.05-.36-.15-.1-.1-.15-.21-.15-.34 0-.13.05-.25.14-.35.09-.1.21-.15.36-.15s.26.05.36.14c.1.1.15.22.15.35zM223.31 200.81h-.74v-5.31h1.7c.25 0 .5.03.73.08.23.05.43.14.6.25.17.12.31.27.41.45s.15.42.15.69c0 .39-.12.71-.36.95s-.55.39-.93.46l1.48 2.44h-.9l-1.35-2.36h-.79v2.35zm0-2.98h.85c.18 0 .34-.02.49-.05.15-.03.28-.08.39-.15.11-.07.2-.16.27-.26.06-.11.1-.24.1-.4a.72.72 0 0 0-.1-.4.807.807 0 0 0-.26-.26c-.11-.07-.23-.11-.38-.14-.14-.03-.3-.04-.46-.04h-.91v1.7zM230.37 199v.12c0 .04 0 .08-.01.12h-2.83a1.072 1.072 0 0 0 .35.76c.1.1.23.17.36.23.14.05.28.08.44.08.24 0 .45-.05.62-.16.17-.1.31-.23.41-.38l.49.4c-.19.25-.41.44-.67.56s-.54.18-.86.18c-.27 0-.52-.04-.75-.13-.23-.09-.43-.22-.59-.38s-.29-.36-.39-.59c-.1-.23-.14-.48-.14-.76 0-.27.05-.53.14-.76s.22-.43.39-.6a1.84 1.84 0 0 1 1.32-.53c.26 0 .5.04.71.13s.39.21.54.37c.15.16.26.35.34.58s.13.48.13.76zm-.72-.28c0-.14-.03-.27-.07-.39a.851.851 0 0 0-.5-.53 1.162 1.162 0 0 0-.85 0c-.13.05-.25.12-.34.21s-.18.2-.24.32-.1.25-.11.39h2.11zM233.26 198.16a.876.876 0 0 0-.34-.32 1.016 1.016 0 0 0-.73-.09c-.08.02-.15.04-.21.08s-.11.08-.15.14a.37.37 0 0 0-.06.21c0 .15.07.26.2.33.14.07.34.14.61.2.17.04.33.09.47.14.14.06.27.12.38.21.11.08.19.18.25.3.06.11.09.25.09.4 0 .21-.04.39-.12.53-.08.15-.19.26-.32.36-.13.09-.28.16-.45.2s-.34.06-.52.06c-.27 0-.53-.05-.79-.16s-.47-.27-.64-.48l.5-.43c.09.14.23.26.39.35.17.1.35.14.55.14.09 0 .18-.01.26-.03.08-.02.16-.05.22-.09a.41.41 0 0 0 .16-.16c.04-.06.06-.15.06-.25 0-.17-.08-.29-.24-.37-.16-.08-.39-.15-.69-.22-.12-.03-.24-.07-.36-.11-.12-.04-.23-.1-.33-.18a.814.814 0 0 1-.24-.28.871.871 0 0 1-.09-.42c0-.19.04-.35.12-.49.08-.14.18-.25.3-.34.12-.09.27-.15.43-.19.16-.04.33-.06.5-.06.25 0 .5.05.74.15s.42.25.55.43l-.5.44zM237.17 200.81c-.01-.09-.02-.19-.02-.3s-.01-.21-.01-.28h-.01c-.09.19-.24.35-.45.48-.21.13-.45.2-.71.2-.23 0-.43-.04-.6-.11-.17-.08-.31-.18-.41-.31-.11-.13-.19-.29-.24-.46-.05-.17-.08-.36-.08-.56v-2.2h.71v1.96c0 .15.01.28.03.42.02.13.06.25.12.35.06.1.14.18.25.24.11.06.24.09.41.09.29 0 .51-.11.69-.32.17-.21.26-.5.26-.85v-1.89h.71v2.79c0 .09 0 .22.01.37 0 .15.01.28.02.4h-.68zM239.75 200.81h-.71v-5.67h.71v5.67zM242.72 197.83h-.94v1.85c0 .21.04.37.12.46.08.09.21.14.38.14.06 0 .13-.01.21-.02s.14-.03.2-.06l.02.58c-.08.03-.18.05-.28.07-.1.02-.21.03-.32.03-.33 0-.59-.09-.77-.28-.18-.18-.27-.46-.27-.83v-1.93h-.68v-.58h.68v-1.02h.7v1.02h.94v.57zM245.37 198.16a.876.876 0 0 0-.34-.32 1.016 1.016 0 0 0-.73-.09c-.08.02-.15.04-.21.08s-.11.08-.15.14a.37.37 0 0 0-.06.21c0 .15.07.26.2.33.14.07.34.14.61.2.17.04.33.09.47.14.14.06.27.12.38.21.11.08.19.18.25.3.06.11.09.25.09.4 0 .21-.04.39-.12.53-.08.15-.19.26-.32.36-.13.09-.28.16-.45.2s-.34.06-.52.06c-.27 0-.53-.05-.79-.16s-.47-.27-.64-.48l.5-.43c.09.14.23.26.39.35.17.1.35.14.55.14.09 0 .18-.01.26-.03.08-.02.16-.05.22-.09a.41.41 0 0 0 .16-.16c.04-.06.06-.15.06-.25 0-.17-.08-.29-.24-.37-.16-.08-.39-.15-.69-.22-.12-.03-.24-.07-.36-.11-.12-.04-.23-.1-.33-.18a.814.814 0 0 1-.24-.28.871.871 0 0 1-.09-.42c0-.19.04-.35.12-.49.08-.14.18-.25.3-.34.12-.09.27-.15.43-.19.16-.04.33-.06.5-.06.25 0 .5.05.74.15s.42.25.55.43l-.5.44zM249.77 197.36c.2-.13.43-.2.7-.2.24 0 .46.06.65.17.19.11.34.29.45.55.12-.23.29-.41.5-.53.21-.12.45-.18.71-.18.23 0 .43.04.59.12a1.171 1.171 0 0 1 .65.77c.05.18.08.36.08.56v2.2h-.71v-1.97c0-.14-.01-.28-.04-.41-.03-.13-.07-.25-.13-.34a.69.69 0 0 0-.24-.24.737.737 0 0 0-.38-.09c-.16 0-.3.03-.41.1-.12.07-.21.16-.28.26s-.12.23-.16.36c-.03.14-.05.27-.05.41v1.92h-.71v-2.11c0-.14-.01-.27-.04-.38a.91.91 0 0 0-.13-.3.603.603 0 0 0-.23-.19.728.728 0 0 0-.35-.07.81.81 0 0 0-.65.32c-.17.21-.26.5-.26.85v1.89h-.7v-2.79c0-.09 0-.22-.01-.37s-.01-.28-.02-.4h.67c.01.09.02.19.02.3s.01.21.01.28h.02c.11-.2.25-.36.45-.49zM257.51 198.51c0-.26-.08-.46-.24-.59-.16-.13-.37-.19-.64-.19-.2 0-.39.04-.57.12-.18.08-.33.18-.45.3l-.38-.45c.17-.17.39-.29.64-.39.25-.09.52-.14.81-.14.25 0 .48.04.66.11.19.07.34.17.46.3s.21.27.27.44c.06.17.09.35.09.55v1.55c0 .12 0 .25.01.38s.02.24.04.33h-.64a2.22 2.22 0 0 1-.06-.51h-.02c-.13.19-.29.34-.49.44-.2.1-.43.16-.7.16-.14 0-.29-.02-.44-.06-.15-.04-.29-.1-.42-.18-.12-.08-.23-.2-.31-.34-.08-.14-.12-.31-.12-.52 0-.27.07-.48.22-.64.14-.16.33-.28.57-.36.24-.08.5-.14.79-.16.29-.02.59-.04.89-.04v-.11zm-.17.61c-.17 0-.36.01-.54.02s-.36.04-.51.09-.28.11-.38.2a.46.46 0 0 0-.15.36c0 .1.02.19.06.26.04.07.1.13.17.17s.15.08.23.09.17.03.26.03c.33 0 .58-.1.76-.3s.27-.45.27-.75v-.19h-.17zM260.71 200.05h.01l.98-2.79h.75l-1.72 4.39c-.06.15-.12.28-.2.4-.07.12-.15.22-.25.3-.09.08-.21.15-.33.19-.13.04-.28.07-.45.07-.08 0-.15 0-.23-.01-.08-.01-.16-.02-.24-.04l.07-.62c.12.04.24.06.35.06.18 0 .32-.05.41-.15.09-.1.17-.25.25-.44l.23-.59-1.52-3.55h.79l1.1 2.78zM266.69 200.81h-.76l-1.45-3.55h.78l1.04 2.8h.01l1.05-2.8h.75l-1.42 3.55zM271 198.51c0-.26-.08-.46-.24-.59-.16-.13-.37-.19-.64-.19-.2 0-.39.04-.57.12-.18.08-.33.18-.45.3l-.38-.45c.17-.17.39-.29.64-.39.25-.09.52-.14.81-.14.25 0 .48.04.66.11.19.07.34.17.46.3s.21.27.27.44c.06.17.09.35.09.55v1.55c0 .12 0 .25.01.38s.02.24.04.33h-.64a2.22 2.22 0 0 1-.06-.51h-.02c-.13.19-.29.34-.49.44-.2.1-.43.16-.7.16-.14 0-.29-.02-.44-.06-.15-.04-.29-.1-.42-.18-.12-.08-.23-.2-.31-.34-.08-.14-.12-.31-.12-.52 0-.27.07-.48.22-.64.14-.16.33-.28.57-.36.24-.08.5-.14.79-.16.29-.02.59-.04.89-.04v-.11zm-.17.61c-.17 0-.36.01-.54.02s-.36.04-.51.09-.28.11-.38.2a.46.46 0 0 0-.15.36c0 .1.02.19.06.26.04.07.1.13.17.17s.15.08.23.09.17.03.26.03c.33 0 .58-.1.76-.3s.27-.45.27-.75v-.19h-.17zM272.85 197.65c0-.15-.01-.28-.02-.4h.67c.01.09.02.19.02.31s.01.21.01.29h.02c.1-.21.25-.38.44-.51s.41-.19.65-.19c.11 0 .2.01.28.03l-.03.65c-.1-.03-.21-.04-.32-.04-.17 0-.32.03-.44.09a.95.95 0 0 0-.31.25c-.08.1-.14.23-.18.36s-.06.28-.06.43v1.87h-.7V198a1.5 1.5 0 0 1-.03-.35zM276.92 200.05h.01l.98-2.79h.75l-1.72 4.39c-.06.15-.12.28-.2.4-.07.12-.15.22-.25.3-.09.08-.21.15-.33.19-.13.04-.28.07-.45.07-.08 0-.15 0-.23-.01-.08-.01-.16-.02-.24-.04l.07-.62c.12.04.24.06.35.06.18 0 .32-.05.41-.15.09-.1.17-.25.25-.44l.23-.59-1.52-3.55h.79l1.1 2.78zM279.95 200.36a.491.491 0 0 1-.5.5c-.14 0-.26-.05-.36-.15-.1-.1-.15-.21-.15-.34 0-.13.05-.25.14-.35.09-.1.21-.15.36-.15s.26.05.36.14c.1.1.15.22.15.35z"/></svg>