<svg id="Layer_1" xmlns="http://www.w3.org/2000/svg" viewBox="0 0 300 250"><style>.st0{fill:#fff}</style><path class="st0" d="M227.81 47.71c-1.74 0-2.58-1.26-2.58-2.48 0-1.4 1.02-2.53 2.61-2.53.54 0 1.1.17 1.55.54l-.49.69c-.31-.24-.63-.32-1.03-.32-.85 0-1.48.59-1.48 1.6 0 .92.58 1.66 1.51 1.66.39 0 .74-.12 1.04-.38l.45.69c-.43.35-1.02.53-1.58.53M232.08 47.71c-1.46 0-2.53-1.1-2.53-2.53 0-1.47 1.17-2.48 2.53-2.48 1.36 0 2.54 1 2.54 2.47 0 1.44-1.08 2.54-2.54 2.54m1.37-2.53c0-.88-.43-1.65-1.37-1.65-.92 0-1.37.76-1.37 1.64 0 .9.42 1.71 1.37 1.71.94 0 1.37-.8 1.37-1.7zM237.58 47.71c-1.46 0-2.53-1.1-2.53-2.53 0-1.47 1.17-2.48 2.53-2.48 1.36 0 2.54 1 2.54 2.47 0 1.44-1.07 2.54-2.54 2.54m1.37-2.53c0-.88-.43-1.65-1.37-1.65-.92 0-1.37.76-1.37 1.64 0 .9.42 1.71 1.37 1.71.94 0 1.37-.8 1.37-1.7zM240.69 47.59v-7.02l1.1.6v6.42zM244.31 47.74c-1.23 0-1.82-.59-1.82-.59l.49-.64s.56.37 1.3.37c.35 0 .65-.25.65-.49s-.11-.45-.43-.62c-.33-.17-.69-.34-.98-.48-.29-.14-.92-.56-.92-1.38 0-.83.85-1.29 1.72-1.29.83 0 1.46.54 1.46.54l-.42.65s-.47-.33-1-.33-.63.33-.63.47c0 .14.05.35.38.53.34.18.68.36 1.17.64.49.27.77.74.77 1.27.01.53-.51 1.35-1.74 1.35M249.01 47.71c-1.75 0-2.58-1.26-2.58-2.48 0-1.4 1.02-2.53 2.61-2.53.54 0 1.1.17 1.55.54l-.49.69c-.31-.24-.63-.32-1.03-.32-.85 0-1.48.59-1.48 1.6 0 .92.58 1.66 1.51 1.66.39 0 .74-.12 1.05-.38l.45.69c-.43.35-1.03.53-1.59.53M254.41 47.03s-.55.68-1.6.68c-1.23 0-1.83-.89-1.83-1.79v-3.11h1.09v3.06c0 .53.41.97 1.05.97.56 0 1.11-.67 1.11-.67v-3.36h1.09v4.77l-.91-.55zM256.31 47.59v-7.02l1.09.6v6.42zM261.02 47.71c-.97 0-1.52-.54-1.52-.54v2.38h-1.1v-6.84l1.1.58s.59-.6 1.58-.6c1.04 0 2.33.79 2.33 2.57 0 1.77-1.28 2.45-2.39 2.45m-.07-4.18c-.94 0-1.48.87-1.48.87v1.8s.62.7 1.52.7c1.04 0 1.27-1.24 1.27-1.68 0-.42-.1-1.69-1.31-1.69M266.29 47.72h-.69c-.87 0-1.16-.83-1.16-1.38v-2.81h-.87v-.72h.87V40.7h1.08v2.11h1.11v.72h-1.1v2.55c0 .28-.05.73.43.73h.79l-.46.91zM268.04 41.99c-.39 0-.72-.32-.72-.72 0-.39.33-.72.72-.72s.72.32.72.72c0 .39-.33.72-.72.72m-.54.82h1.07v4.78h-1.07v-4.78zM272.91 47.59v-3.06c0-.53-.41-.97-1.05-.97-.56 0-1.19.67-1.19.67v3.36h-1.09v-4.77l.93.55s.63-.68 1.68-.68c1.23 0 1.83.89 1.83 1.79v3.11h-1.11zM277.35 49.82c-.17 0-1.45-.02-1.45-.02l.02-.87H277c1.04 0 1.64-.56 1.64-1.32v-.43s-.57.54-1.54.54c-1.11 0-2.39-.68-2.39-2.45s1.29-2.57 2.33-2.57c.99 0 1.58.6 1.58.6l1.1-.55v4.75c-.01 1.28-.86 2.32-2.37 2.32m1.29-5.41s-.54-.87-1.48-.87c-1.21 0-1.31 1.26-1.31 1.7 0 .43.23 1.68 1.27 1.68.9 0 1.52-.7 1.52-.7v-1.81zM214.14 45.42l-2.01 2 2.47.92 2.94-2.92zM217.83 41.35l-2.01-2-.93 2.44 2.94 2.93zM221.47 42.09l2.69.69-2.24 2.23h-3.39zM221.29 48.75l-.77 2.6-4.19-4.16 1.7-1.69zM281.35 43.13c0 .28-.23.51-.52.51-.29 0-.52-.22-.52-.51 0-.28.23-.5.53-.5.28 0 .51.22.51.5zm-.92 0a.395.395 0 1 0 .79 0c0-.22-.17-.41-.39-.41a.41.41 0 0 0-.4.41zm.32.27h-.12v-.5a.92.92 0 0 1 .19-.02c.1 0 .14.02.17.04s.05.06.05.11c0 .06-.05.1-.11.12v.01c.05.02.07.06.09.12.02.08.03.1.04.12h-.12c-.02-.02-.02-.06-.04-.12-.01-.05-.04-.08-.11-.08h-.06v.2zm0-.29h.06c.07 0 .12-.02.12-.07s-.03-.08-.11-.08c-.03 0-.05 0-.07.01v.14z"/><g><path class="st0" d="M215.43 51.22v-3.13l.61-.61 1.78 1.77v.6zM215.14 42.62h-2.6l.83 2.39h4.17zM223.89 47.8h-2.96l-2.4-2.38h4.16zM218.24 40.58l2.4-1.41v3.16l-2.4 2.39zM222.46 48.91c0 .2-.16.35-.36.35-.2 0-.36-.16-.36-.35 0-.2.16-.35.36-.35.2 0 .36.16.36.35zm-.63 0c0 .16.12.28.27.28.15 0 .27-.12.27-.28 0-.16-.12-.28-.27-.28-.16 0-.27.13-.27.28zm.21.18h-.08v-.35c.03 0 .08-.01.13-.01.07 0 .1.01.12.03.02.01.04.04.04.07 0 .04-.03.07-.07.08.03.01.05.04.06.09.01.05.02.07.03.09h-.09c-.01-.01-.02-.04-.03-.09-.01-.04-.03-.05-.07-.05h-.04v.14zm.01-.19h.04c.05 0 .08-.01.08-.05 0-.03-.02-.05-.07-.05h-.04v.1z"/></g><g><path class="st0" d="M202.8 42.95h.43v2.39h.01c.07-.1.15-.19.25-.27.1-.07.2-.13.3-.18s.21-.08.32-.1a1.816 1.816 0 0 1 .98.09c.2.08.37.19.52.34.14.14.26.31.34.51.08.2.12.41.12.64 0 .23-.04.44-.12.64-.08.2-.19.37-.34.51-.14.14-.32.26-.52.34a1.816 1.816 0 0 1-.98.09c-.11-.02-.22-.06-.32-.1-.1-.05-.21-.11-.3-.18a.926.926 0 0 1-.25-.27h-.01v.51h-.43v-4.96zm2.8 3.41c0-.17-.03-.33-.08-.48a1.09 1.09 0 0 0-.59-.65c-.14-.06-.3-.09-.48-.09s-.34.03-.49.09c-.15.06-.28.15-.39.26-.11.11-.19.24-.26.39-.06.15-.09.31-.09.48 0 .17.03.33.09.48.06.15.15.28.26.38.11.11.24.19.39.26.15.06.31.09.49.09s.34-.03.48-.09c.14-.06.26-.15.36-.26.1-.11.18-.24.23-.38.06-.16.08-.31.08-.48zM207.95 47.35l.94-2.53h.53l-1.54 3.85c-.09.23-.21.42-.35.56-.14.14-.35.21-.61.21-.07 0-.13 0-.2-.01-.07 0-.13-.02-.2-.04l.05-.42c.09.05.2.07.33.07.15 0 .27-.05.36-.14.09-.1.16-.23.23-.4l.22-.59-1.26-3.09h.55l.95 2.53z"/></g><g><path class="st0" d="M211.35 33.46c-.94.82-2.11 1.23-3.5 1.23-1.81 0-3.24-.59-4.28-1.76-.94-1.06-1.41-2.33-1.41-3.83 0-1.6.53-2.94 1.59-4.03 1.06-1.09 2.46-1.63 4.2-1.63 1.33 0 2.46.41 3.39 1.21l-1.09 1.52c-.62-.47-1.38-.71-2.26-.71-.96 0-1.74.32-2.34.97-.6.65-.9 1.52-.9 2.62 0 1.07.3 1.96.9 2.66.6.7 1.4 1.06 2.4 1.06.87 0 1.64-.28 2.33-.84l.97 1.53zM222.65 28.99c0 1.63-.53 2.99-1.6 4.07-1.07 1.09-2.4 1.63-4.01 1.63-1.61 0-2.94-.54-4-1.63-1.06-1.09-1.59-2.44-1.59-4.07 0-1.6.56-2.94 1.67-4.01 1.07-1.03 2.38-1.54 3.91-1.54 1.54 0 2.85.51 3.93 1.54 1.14 1.07 1.69 2.41 1.69 4.01zm-2.58 0c0-1.04-.25-1.9-.74-2.57-.55-.73-1.31-1.1-2.28-1.1-.97 0-1.72.37-2.26 1.1-.49.67-.74 1.53-.74 2.57 0 1.1.24 1.99.72 2.68.54.76 1.3 1.14 2.28 1.14.99 0 1.75-.38 2.3-1.14.48-.69.72-1.58.72-2.68zM234.67 28.99c0 1.63-.53 2.99-1.6 4.07-1.07 1.09-2.4 1.63-4.01 1.63-1.61 0-2.94-.54-4-1.63-1.06-1.09-1.59-2.44-1.59-4.07 0-1.6.56-2.94 1.67-4.01 1.07-1.03 2.38-1.54 3.91-1.54 1.54 0 2.85.51 3.93 1.54 1.14 1.07 1.69 2.41 1.69 4.01zm-2.58 0c0-1.04-.25-1.9-.74-2.57-.55-.73-1.31-1.1-2.28-1.1-.97 0-1.72.37-2.26 1.1-.49.67-.74 1.53-.74 2.57 0 1.1.24 1.99.72 2.68.54.76 1.3 1.14 2.28 1.14.99 0 1.75-.38 2.3-1.14.48-.69.72-1.58.72-2.68zM238.37 34.45h-2.41v-15.8l2.41 1.35v14.45zM256.8 28.99c0 1.63-.53 2.99-1.6 4.07-1.07 1.09-2.4 1.63-4.01 1.63-1.61 0-2.94-.54-4-1.63-1.06-1.09-1.59-2.44-1.59-4.07 0-1.6.56-2.94 1.67-4.01 1.07-1.03 2.38-1.54 3.91-1.54 1.54 0 2.85.51 3.93 1.54 1.13 1.07 1.69 2.41 1.69 4.01zm-2.58 0c0-1.04-.25-1.9-.74-2.57-.55-.73-1.31-1.1-2.28-1.1-.97 0-1.72.37-2.26 1.1-.49.67-.74 1.53-.74 2.57 0 1.1.24 1.99.72 2.68.54.76 1.3 1.14 2.28 1.14.99 0 1.75-.38 2.3-1.14.48-.69.72-1.58.72-2.68zM267.78 34.45h-2.41v-6.87c0-.62-.21-1.13-.64-1.55-.43-.42-.99-.63-1.68-.63-.77 0-1.64.5-2.63 1.5v7.55H258V23.7l2.04 1.24c1.04-1.02 2.27-1.52 3.69-1.52 1.28 0 2.29.42 3.04 1.26.67.75 1 1.68 1 2.78v6.99zM279.56 29.57h-7.72c.29 2.19 1.32 3.29 3.09 3.29 1.09 0 1.98-.31 2.67-.93l.96 1.57c-.93.85-2.16 1.28-3.69 1.28-2.13 0-3.69-.8-4.67-2.4-.61-.99-.91-2-.91-3.05 0-1.28.25-2.39.74-3.33.88-1.72 2.46-2.58 4.72-2.58 2.23 0 3.7 1.02 4.41 3.07.29.86.43 1.89.4 3.08zm-2.44-1.59c-.09-1.9-.9-2.85-2.43-2.85-1.7 0-2.63.95-2.8 2.85h5.23zM243.59 32.68c-.46 0-.75-.2-.87-.6-.06-.16-.09-.51-.09-1.06v-4.48h1.68v-1.61h-1.68v-2.57l-2.41-1.35v10.6c0 .77.19 1.43.56 2.01.46.74 1.13 1.1 2 1.1h1.52l1.02-2.05h-1.73z"/><g><path class="st0" d="M282.33 24.57c0 .64-.52 1.14-1.17 1.14-.65 0-1.18-.51-1.18-1.14 0-.64.52-1.13 1.18-1.13.65-.01 1.17.49 1.17 1.13zm-2.05 0c0 .5.38.91.89.91.49.01.87-.4.87-.9s-.38-.91-.88-.91c-.5-.01-.88.4-.88.9zm.7.58h-.26v-1.13c.1-.01.25-.03.44-.03.22 0 .31.03.39.09.07.05.12.13.12.24 0 .14-.1.23-.24.27v.01c.11.03.17.12.2.28.03.17.06.24.08.28h-.28c-.04-.04-.06-.14-.09-.28-.02-.12-.09-.17-.24-.17h-.12v.44zm0-.63h.12c.15 0 .26-.05.26-.17 0-.1-.08-.17-.24-.17-.07 0-.12.01-.15.01v.33z"/></g></g></svg>