<svg id="Layer_1" xmlns="http://www.w3.org/2000/svg" viewBox="0 0 600 500"><style>.st0{fill:#00a9e0}</style><path class="st0" d="M135.7 78.87h-5.04v-3.12h13.68v3.12h-5.04v38.28h-3.6V78.87zM150.22 75.75h4.74l5.22 41.4h-3.66l-1.2-10.26h-5.64l-1.2 10.26H145l5.22-41.4zm4.74 28.02l-2.4-22.32h-.12l-2.4 22.32h4.92zM164.32 75.75h3.6v38.28h7.68v3.12h-11.28v-41.4zM191.08 117.15l-7.68-20.88h-.12v20.88h-3.6v-41.4h3.6v19.32h.12l7.5-19.32h3.66l-7.74 19.74 8.1 21.66h-3.84zM211 78.87h-5.04v-3.12h13.68v3.12h-5.04v38.28H211V78.87zM223 110.25v-27.6c0-4.8 2.58-7.5 6.96-7.5s6.96 2.7 6.96 7.5v27.6c0 4.8-2.58 7.5-6.96 7.5s-6.96-2.7-6.96-7.5zm10.32-.6v-26.4c0-3.48-.96-4.86-3.36-4.86-2.46 0-3.36 1.38-3.36 4.86v26.4c0 3.48.9 4.86 3.36 4.86 2.4 0 3.36-1.38 3.36-4.86zM254.92 97.83l-5.82-22.08h3.72l3.96 16.38h.12l3.96-16.38h3.48l-5.82 22.08v19.32h-3.6V97.83zM267.22 110.25v-27.6c0-4.8 2.58-7.5 6.96-7.5s6.96 2.7 6.96 7.5v27.6c0 4.8-2.58 7.5-6.96 7.5s-6.96-2.7-6.96-7.5zm10.32-.6v-26.4c0-3.48-.96-4.86-3.36-4.86-2.46 0-3.36 1.38-3.36 4.86v26.4c0 3.48.9 4.86 3.36 4.86 2.4 0 3.36-1.38 3.36-4.86zM286.3 110.49V75.75h3.6v34.08c0 3.36.84 4.68 3.24 4.68s3.24-1.32 3.24-4.68V75.75h3.48v34.74c0 4.62-2.52 7.26-6.78 7.26s-6.78-2.64-6.78-7.26zM305.26 75.75h6.66c4.8 0 7.08 2.46 7.08 7.5v5.28c0 3.36-1.08 5.4-3.24 6.36v.12c2.16.96 3.24 3 3.24 6.42v15.72h-3.6v-15.48c0-3.84-1.08-4.98-4.5-4.98h-2.04v20.46h-3.6v-41.4zm6.24 17.82c3 0 3.9-1.14 3.9-4.98v-4.74c0-3.84-.9-4.98-3.9-4.98h-2.64v14.7h2.64zM332.62 75.75h6.84c4.8 0 7.08 2.46 7.08 7.5v6.48c0 5.04-2.28 7.5-7.08 7.5h-3.24v19.92h-3.6v-41.4zm6.42 18.36c3 0 3.9-1.14 3.9-4.98v-5.28c0-3.84-.9-4.98-3.9-4.98h-2.82v15.24h2.82zM351.04 75.75h6.66c4.8 0 7.08 2.46 7.08 7.5v5.28c0 3.36-1.08 5.4-3.24 6.36v.12c2.16.96 3.24 3 3.24 6.42v15.72h-3.6v-15.48c0-3.84-1.08-4.98-4.5-4.98h-2.04v20.46h-3.6v-41.4zm6.24 17.82c3 0 3.9-1.14 3.9-4.98v-4.74c0-3.84-.9-4.98-3.9-4.98h-2.64v14.7h2.64zM369.76 110.25v-27.6c0-4.8 2.58-7.5 6.96-7.5s6.96 2.7 6.96 7.5v27.6c0 4.8-2.58 7.5-6.96 7.5s-6.96-2.7-6.96-7.5zm10.32-.6v-26.4c0-3.48-.96-4.86-3.36-4.86-2.46 0-3.36 1.38-3.36 4.86v26.4c0 3.48.9 4.86 3.36 4.86 2.4 0 3.36-1.38 3.36-4.86zM387.46 75.75h3.66l3.78 34.8h.12l3.78-34.8h3.42l-4.98 41.4h-4.8l-4.98-41.4zM406.42 75.75h3.6v41.4h-3.6v-41.4zM415.54 75.75h6.84c4.8 0 7.08 2.46 7.08 7.5v26.4c0 5.04-2.28 7.5-7.08 7.5h-6.84v-41.4zm6.42 38.28c3 0 3.9-1.14 3.9-4.98v-25.2c0-3.84-.9-4.98-3.9-4.98h-2.82v35.16h2.82zM434.68 75.75h11.88v3.12h-8.28v14.46h7.2v3.12h-7.2v17.58h8.28v3.12h-11.88v-41.4zM450.88 75.75h6.66c4.8 0 7.08 2.46 7.08 7.5v5.28c0 3.36-1.08 5.4-3.24 6.36v.12c2.16.96 3.24 3 3.24 6.42v15.72h-3.6v-15.48c0-3.84-1.08-4.98-4.5-4.98h-2.04v20.46h-3.6v-41.4zm6.24 17.82c3 0 3.9-1.14 3.9-4.98v-4.74c0-3.84-.9-4.98-3.9-4.98h-2.64v14.7h2.64zM139.51 129.75h4.74l5.22 41.4h-3.66l-1.2-10.26h-5.64l-1.2 10.26h-3.48l5.22-41.4zm4.74 28.02l-2.4-22.32h-.12l-2.4 22.32h4.92zM153.61 129.75h6.66c4.8 0 7.08 2.46 7.08 7.5v4.98c0 3.36-1.02 5.4-3.12 6.36v.12c2.28.96 3.36 3 3.36 6.48v8.46c0 5.04-2.28 7.5-7.08 7.5h-6.9v-41.4zm6.24 17.58c3 0 3.9-1.14 3.9-4.92v-4.56c0-3.84-.9-4.98-3.9-4.98h-2.64v14.46h2.64zm.24 20.7c3 0 3.9-1.14 3.9-4.98v-7.62c0-3.84-.9-4.98-3.9-4.98h-2.88v17.58h2.88zM172.33 164.25v-27.6c0-4.8 2.58-7.5 6.96-7.5s6.96 2.7 6.96 7.5v27.6c0 4.8-2.58 7.5-6.96 7.5s-6.96-2.7-6.96-7.5zm10.32-.6v-26.4c0-3.48-.96-4.86-3.36-4.86-2.46 0-3.36 1.38-3.36 4.86v26.4c0 3.48.9 4.86 3.36 4.86 2.4 0 3.36-1.38 3.36-4.86zM191.41 164.49v-34.74h3.6v34.08c0 3.36.84 4.68 3.24 4.68s3.24-1.32 3.24-4.68v-34.08h3.48v34.74c0 4.62-2.52 7.26-6.78 7.26s-6.78-2.64-6.78-7.26zM213.97 132.87h-5.04v-3.12h13.68v3.12h-5.04v38.28h-3.6v-38.28zM238.93 129.75h4.74l5.22 41.4h-3.66l-1.2-10.26h-5.64l-1.2 10.26h-3.48l5.22-41.4zm4.74 28.02l-2.4-22.32h-.12l-2.4 22.32h4.92zM261.43 129.75h6.84c4.8 0 7.08 2.46 7.08 7.5v6.48c0 5.04-2.28 7.5-7.08 7.5h-3.24v19.92h-3.6v-41.4zm6.42 18.36c3 0 3.9-1.14 3.9-4.98v-5.28c0-3.84-.9-4.98-3.9-4.98h-2.82v15.24h2.82zM279.85 129.75h11.88v3.12h-8.28v14.46h7.2v3.12h-7.2v17.58h8.28v3.12h-11.88v-41.4zM296.05 129.75h6.66c4.8 0 7.08 2.46 7.08 7.5v5.28c0 3.36-1.08 5.4-3.24 6.36v.12c2.16.96 3.24 3 3.24 6.42v15.72h-3.6v-15.48c0-3.84-1.08-4.98-4.5-4.98h-2.04v20.46h-3.6v-41.4zm6.24 17.82c3 0 3.9-1.14 3.9-4.98v-4.74c0-3.84-.9-4.98-3.9-4.98h-2.64v14.7h2.64zM314.35 164.37v-7.26h3.48v6.6c0 3.42.96 4.8 3.36 4.8 2.46 0 3.42-1.38 3.42-4.8v-6.24c0-2.82-.78-4.2-2.82-5.52l-3.18-2.04c-3.06-1.98-4.26-4.26-4.26-8.28v-5.34c0-4.56 2.46-7.14 6.72-7.14s6.72 2.58 6.72 7.14v5.34h-3.48v-4.74c0-3.24-.9-4.5-3.18-4.5-2.28 0-3.18 1.26-3.18 4.5v4.5c0 2.82.78 4.2 2.82 5.52l3.18 2.04c3.06 1.98 4.26 4.26 4.26 8.28v7.14c0 4.74-2.58 7.38-6.96 7.38s-6.9-2.64-6.9-7.38zM332.71 164.25v-27.6c0-4.8 2.58-7.5 6.96-7.5s6.96 2.7 6.96 7.5v27.6c0 4.8-2.58 7.5-6.96 7.5s-6.96-2.7-6.96-7.5zm10.32-.6v-26.4c0-3.48-.96-4.86-3.36-4.86-2.46 0-3.36 1.38-3.36 4.86v26.4c0 3.48.9 4.86 3.36 4.86 2.4 0 3.36-1.38 3.36-4.86zM351.91 129.75h4.68l6.54 30.3h.12v-30.3h3.24v41.4h-3.9l-7.32-34.14h-.12v34.14h-3.24v-41.4zM375.85 129.75h4.74l5.22 41.4h-3.66l-1.2-10.26h-5.64l-1.2 10.26h-3.48l5.22-41.4zm4.74 28.02l-2.4-22.32h-.12l-2.4 22.32h4.92zM389.95 129.75h3.6v38.28h7.68v3.12h-11.28v-41.4zM405.3 129.75h3.6v41.4h-3.6v-41.4zM413.1 168.33l9.78-35.46h-9.18v-3.12h12.96v2.82l-9.78 35.46h9.78v3.12H413.1v-2.82zM430.92 129.75h11.88v3.12h-8.28v14.46h7.2v3.12h-7.2v17.58h8.28v3.12h-11.88v-41.4zM447.12 129.75h6.84c4.8 0 7.08 2.46 7.08 7.5v26.4c0 5.04-2.28 7.5-7.08 7.5h-6.84v-41.4zm6.42 38.28c3 0 3.9-1.14 3.9-4.98v-25.2c0-3.84-.9-4.98-3.9-4.98h-2.82v35.16h2.82zM178.09 186.87h-5.04v-3.12h13.68v3.12h-5.04v38.28h-3.6v-38.28zM190.81 183.75h6.66c4.8 0 7.08 2.46 7.08 7.5v5.28c0 3.36-1.08 5.4-3.24 6.36v.12c2.16.96 3.24 3 3.24 6.42v15.72h-3.6v-15.48c0-3.84-1.08-4.98-4.5-4.98h-2.04v20.46h-3.6v-41.4zm6.24 17.82c3 0 3.9-1.14 3.9-4.98v-4.74c0-3.84-.9-4.98-3.9-4.98h-2.64v14.7h2.64zM209.77 183.75h11.88v3.12h-8.28v14.46h7.2v3.12h-7.2v17.58h8.28v3.12h-11.88v-41.4zM229.99 183.75h4.74l5.22 41.4h-3.66l-1.2-10.26h-5.64l-1.2 10.26h-3.48l5.22-41.4zm4.74 28.02l-2.4-22.32h-.12l-2.4 22.32h4.92zM245.65 186.87h-5.04v-3.12h13.68v3.12h-5.04v38.28h-3.6v-38.28zM258.37 183.75h5.7l4.62 30.54h.12l4.62-30.54h5.94v41.4h-3.6v-37.02h-.12l-5.58 37.02h-2.82l-5.58-37.02h-.12v37.02h-3.18v-41.4zM284.89 183.75h11.88v3.12h-8.28v14.46h7.2v3.12h-7.2v17.58h8.28v3.12h-11.88v-41.4zM301.09 183.75h4.68l6.54 30.3h.12v-30.3h3.24v41.4h-3.9l-7.32-34.14h-.12v34.14h-3.24v-41.4zM324.79 186.87h-5.04v-3.12h13.68v3.12h-5.04v38.28h-3.6v-38.28zM345.91 183.75h6.84c4.8 0 7.08 2.46 7.08 7.5v6.48c0 5.04-2.28 7.5-7.08 7.5h-3.24v19.92h-3.6v-41.4zm6.42 18.36c3 0 3.9-1.14 3.9-4.98v-5.28c0-3.84-.9-4.98-3.9-4.98h-2.82v15.24h2.82zM364.33 183.75h3.6v38.28h7.68v3.12h-11.28v-41.4zM383.71 183.75h4.74l5.22 41.4h-3.66l-1.2-10.26h-5.64l-1.2 10.26h-3.48l5.22-41.4zm4.74 28.02l-2.4-22.32h-.12l-2.4 22.32h4.92zM397.81 183.75h4.68l6.54 30.3h.12v-30.3h3.24v41.4h-3.9l-7.32-34.14h-.12v34.14h-3.24v-41.4zM417.91 220.23h4.02v4.92h-4.02v-4.92z"/></svg>