<svg id="Layer_1" xmlns="http://www.w3.org/2000/svg" viewBox="0 0 600 500"><style>.st0{fill:#eaf5fb}.st1{fill:#002554}</style><path class="st0" d="M175.46 253.42h246.19v49.45H175.46z"/><path class="st1" d="M204.33 273.82v3.16h6.14v3h-6.14v5.73h-3.88v-14.89h11.58v3h-7.7zM218.14 285.72h-3.88v-14.89h3.88v14.89zM234.86 285.72h-4.31l-4.63-8.06-1.13-2.26h-.02l.09 2.8v7.51h-3.43v-14.89h4.31l4.63 8.06 1.13 2.26h.02l-.09-2.8v-7.51h3.43v14.89zM251.7 278.27c0 4.76-2.55 7.45-7.22 7.45h-6.32v-14.89h6.32c4.66-.01 7.22 2.68 7.22 7.44zm-3.98 0c0-2.98-1.11-4.51-3.63-4.51h-2.05v9.03h2.05c2.53-.01 3.63-1.54 3.63-4.52zM268.85 282.36h-5.15l-1.04 3.36h-3.9l5.24-14.89h4.65l5.21 14.89h-4l-1.01-3.36zm-.82-2.65l-1.08-3.57-.65-2.35h-.04l-.61 2.33-1.11 3.59h3.49zM294.14 275.77c0 3.05-2.05 4.78-5.75 4.78h-2.96v5.17h-3.88v-14.89h6.84c3.7-.01 5.75 1.73 5.75 4.94zm-3.9-.05c0-1.31-.75-1.96-2.46-1.96h-2.35v3.95h2.35c1.72 0 2.46-.66 2.46-1.99zM302.77 280.28h-2.33v5.44h-3.81v-14.89h7.11c3.59 0 5.62 1.67 5.62 4.74 0 2.17-1.02 3.63-2.89 4.31l3.77 5.84h-4.29l-3.18-5.44zm-2.33-2.75h2.64c1.65 0 2.37-.56 2.37-1.9 0-1.31-.72-1.87-2.37-1.87h-2.64v3.77zM325.99 278.27c0 4.81-2.75 7.67-7.29 7.67s-7.31-2.87-7.31-7.67 2.78-7.67 7.31-7.67 7.29 2.86 7.29 7.67zm-10.63 0c0 3.05 1.17 4.63 3.34 4.63 2.14 0 3.32-1.58 3.32-4.63s-1.17-4.63-3.32-4.63c-2.17 0-3.34 1.58-3.34 4.63zM336.59 285.72h-4.56l-5.3-14.89h4.08l2.73 9 .81 2.93.79-2.89 2.78-9.05h3.95l-5.28 14.9zM347.54 285.72h-3.88v-14.89h3.88v14.89zM364.38 278.27c0 4.76-2.55 7.45-7.22 7.45h-6.32v-14.89h6.32c4.66-.01 7.22 2.68 7.22 7.44zm-3.98 0c0-2.98-1.11-4.51-3.63-4.51h-2.05v9.03h2.05c2.53-.01 3.63-1.54 3.63-4.52zM378.93 282.72v3h-11.89v-14.89h11.6v3h-7.72v3.02h6.14v2.82h-6.14v3.05h8.01zM387.42 280.28h-2.33v5.44h-3.81v-14.89h7.11c3.59 0 5.62 1.67 5.62 4.74 0 2.17-1.02 3.63-2.89 4.31l3.77 5.84h-4.29l-3.18-5.44zm-2.33-2.75h2.64c1.65 0 2.37-.56 2.37-1.9 0-1.31-.72-1.87-2.37-1.87h-2.64v3.77z"/></svg>