<svg id="Layer_1" xmlns="http://www.w3.org/2000/svg" viewBox="0 0 600 500"><style>.st0{fill:#bdd6e6}.st1{fill:#fff}</style><path class="st0" d="M182.4 289.89l.78 1.07-.69.5-.78-1.07-.36-.68-.36.68-.77 1.07-.69-.5.78-1.07.54-.55-.76-.14-1.25-.4.25-.81 1.26.41.68.34-.1-.76-.01-1.32h.87l-.01 1.32-.12.77.69-.35 1.26-.41.25.81-1.25.4-.77.14.56.55zM190.36 288.37h-2.37v5.96h-1.12v-5.96h-2.37v-.97h5.87v.97zM195.97 290.93v3.4h-1.12v-3.04c0-1.04-.48-1.39-1.12-1.39-.69 0-1.43.45-1.43 1.66v2.77h-1.12v-7.61h1.12v3.2c.35-.65.97-.95 1.7-.95 1.11.01 1.97.65 1.97 1.96zM202.11 292.13h-3.84c.13.92.67 1.42 1.52 1.42.69 0 1.15-.25 1.32-.71l.93.39c-.38.78-1.1 1.22-2.26 1.22-1.66 0-2.64-1.02-2.64-2.73s.92-2.73 2.56-2.73c1.57 0 2.44 1.05 2.44 2.57.01.19-.01.43-.03.57zm-3.83-.86h2.82c-.1-.88-.6-1.4-1.39-1.4-.82 0-1.32.49-1.43 1.4zM211.7 291.7c0 1.72-.9 2.74-2.33 2.74-.78 0-1.38-.38-1.69-.96v3.05h-1.12v-7.45h.99l.05.97c.3-.64.94-1.07 1.78-1.07 1.42 0 2.32 1 2.32 2.72zm-1.13.01c0-1.14-.55-1.83-1.45-1.83-.88 0-1.45.66-1.45 1.76v.13c0 1.09.57 1.75 1.45 1.75.91 0 1.45-.67 1.45-1.81zM216.23 289.08l-.18 1.03a1.44 1.44 0 0 0-.66-.14c-.63 0-1.32.5-1.32 1.57v2.78h-1.12v-5.25h.96l.1.93c.28-.68.84-1.04 1.65-1.04.2.02.42.05.57.12zM216.89 287.5c0-.44.27-.69.76-.69.48 0 .75.25.75.69 0 .44-.26.7-.75.7-.48 0-.76-.26-.76-.7zm1.32 6.83h-1.12v-5.25h1.12v5.25zM228.01 290.93v3.4h-1.12v-3.22c0-.86-.46-1.21-1.08-1.21-.73 0-1.36.56-1.36 1.58v2.86h-1.12v-3.22c0-.86-.46-1.21-1.08-1.21-.63 0-1.36.46-1.36 1.64v2.79h-1.12v-5.25h1l.05.87c.37-.66 1.02-.98 1.7-.98.75 0 1.45.34 1.76 1.05.35-.71 1.11-1.05 1.82-1.05.99 0 1.92.62 1.91 1.95zM234.43 293.55l-.07.76c-.17.07-.39.12-.65.12-.57 0-.96-.21-1.07-.79-.33.5-1 .79-1.77.79-.99 0-1.71-.46-1.71-1.38 0-.81.67-1.41 2.05-1.65l1.33-.24v-.27c0-.63-.39-1.04-1.07-1.04-.65 0-1.13.28-1.35.94l-.87-.46c.25-.83 1.06-1.37 2.21-1.37 1.31 0 2.21.6 2.21 1.86v2.37c0 .26.1.39.39.39.12.02.25.01.37-.03zm-1.9-.96v-.63l-1.14.23c-.71.14-1.07.38-1.07.8 0 .39.29.6.79.6.69 0 1.42-.37 1.42-1zM238.56 289.08l-.18 1.03a1.44 1.44 0 0 0-.66-.14c-.63 0-1.32.5-1.32 1.57v2.78h-1.12v-5.25h.96l.1.93c.28-.68.84-1.04 1.65-1.04.21.02.43.05.57.12zM241.84 294.95c-.46 1.22-1 1.64-1.94 1.64-.55 0-.92-.13-1.24-.42l.33-.86c.24.29.54.38.86.38.39 0 .68-.15.91-.76l.23-.57-.55-1.3-1.64-3.98h1.26l1.15 3.3.3.99.36-1.08 1.09-3.2h1.17l-2.29 5.86zM252.81 291.71c0 1.71-.98 2.73-2.61 2.73s-2.61-1.02-2.61-2.73.98-2.73 2.61-2.73 2.61 1.02 2.61 2.73zm-4.09 0c0 1.19.54 1.85 1.48 1.85.95 0 1.49-.66 1.49-1.85s-.55-1.85-1.49-1.85c-.95 0-1.48.66-1.48 1.85zM259.19 291.72c0 1.71-.89 2.72-2.32 2.72-.84 0-1.48-.43-1.78-1.07l-.05.97h-.99v-7.61h1.12v3.21c.31-.58.91-.96 1.69-.96 1.42 0 2.33 1.02 2.33 2.74zm-1.13-.01c0-1.14-.55-1.82-1.45-1.82-.88 0-1.45.66-1.45 1.75v.13c0 1.1.57 1.76 1.45 1.76.91 0 1.45-.68 1.45-1.82zM261.56 294.79c0 1.34-.84 1.79-1.72 1.79-.47 0-.87-.14-1.15-.35l.2-.9c.19.16.47.29.81.29.45 0 .75-.24.75-.95v-5.61h1.12v5.73zm.19-7.29c0 .42-.29.7-.75.7s-.76-.28-.76-.7.29-.69.76-.69c.45-.01.75.27.75.69zM267.74 292.13h-3.84c.13.92.67 1.42 1.52 1.42.69 0 1.16-.25 1.32-.71l.93.39c-.38.78-1.1 1.22-2.26 1.22-1.66 0-2.63-1.02-2.63-2.73s.92-2.73 2.56-2.73c1.57 0 2.44 1.05 2.44 2.57.01.19-.02.43-.04.57zm-3.83-.86h2.82c-.1-.88-.6-1.4-1.39-1.4-.82 0-1.31.49-1.43 1.4zM273.57 290.45l-1.05.42c-.18-.65-.58-1-1.23-1-.93 0-1.48.66-1.48 1.85s.56 1.83 1.48 1.83c.72 0 1.15-.37 1.29-1.02l1.03.35c-.29.96-1.08 1.56-2.3 1.56-1.66 0-2.63-1.02-2.63-2.73s.98-2.73 2.61-2.73c1.27 0 1.96.61 2.28 1.47zM278.12 293.98c-.34.28-.83.45-1.4.45-.9 0-1.6-.41-1.61-1.49v-2.98h-1v-.88h1v-1.23l1.12-.31v1.54h1.84v.88h-1.84v2.79c0 .51.3.75.77.75.36 0 .62-.13.85-.34l.27.82zM278.77 287.5c0-.44.27-.69.76-.69.48 0 .75.25.75.69 0 .44-.26.7-.75.7s-.76-.26-.76-.7zm1.31 6.83h-1.12v-5.25h1.12v5.25zM286.25 289.08l-2.09 5.25h-1.23l-2.1-5.25h1.24l1.48 4.34 1.52-4.34h1.18zM291.62 292.13h-3.84c.13.92.67 1.42 1.52 1.42.69 0 1.16-.25 1.32-.71l.93.39c-.38.78-1.1 1.22-2.26 1.22-1.66 0-2.63-1.02-2.63-2.73s.92-2.73 2.56-2.73c1.57 0 2.44 1.05 2.44 2.57 0 .19-.02.43-.04.57zm-3.83-.86h2.82c-.1-.88-.6-1.4-1.39-1.4-.82 0-1.32.49-1.43 1.4zM299.3 293.98c-.34.28-.83.45-1.4.45-.9 0-1.6-.41-1.61-1.49v-2.98h-1v-.88h1v-1.23l1.12-.31v1.54h1.84v.88h-1.84v2.79c0 .51.3.75.77.75.36 0 .62-.13.85-.34l.27.82zM305.06 291.71c0 1.71-.98 2.73-2.61 2.73s-2.61-1.02-2.61-2.73.98-2.73 2.61-2.73 2.61 1.02 2.61 2.73zm-4.09 0c0 1.19.54 1.85 1.48 1.85.95 0 1.49-.66 1.49-1.85s-.55-1.85-1.49-1.85c-.95 0-1.48.66-1.48 1.85zM314.14 292.13h-3.84c.13.92.67 1.42 1.52 1.42.69 0 1.15-.25 1.32-.71l.93.39c-.38.78-1.1 1.22-2.26 1.22-1.66 0-2.64-1.02-2.64-2.73s.92-2.73 2.56-2.73c1.57 0 2.44 1.05 2.44 2.57.02.19-.01.43-.03.57zm-3.83-.86h2.82c-.1-.88-.6-1.4-1.38-1.4-.83 0-1.32.49-1.44 1.4zM319.86 289.08l-2.09 5.25h-1.23l-2.1-5.25h1.24l1.48 4.34 1.52-4.34h1.18zM325.4 293.55l-.07.76c-.17.07-.39.12-.65.12-.57 0-.96-.21-1.07-.79-.33.5-1 .79-1.77.79-.99 0-1.71-.46-1.71-1.38 0-.81.67-1.41 2.05-1.65l1.33-.24v-.27c0-.63-.39-1.04-1.07-1.04-.65 0-1.13.28-1.35.94l-.87-.46c.25-.83 1.06-1.37 2.2-1.37 1.31 0 2.22.6 2.22 1.86v2.37c0 .26.1.39.39.39.12.02.25.01.37-.03zm-1.9-.96v-.63l-1.14.23c-.71.14-1.07.38-1.07.8 0 .39.29.6.79.6.7 0 1.42-.37 1.42-1zM327.34 292.8c0 .51.13.69.55.69.26 0 .42-.03.69-.14l-.13.9c-.23.12-.57.18-.87.18-.93 0-1.37-.46-1.37-1.48v-6.24h1.12v6.09zM334.07 289.08v5.25h-1l-.05-.85c-.36.66-1.01.96-1.86.96-1.05 0-1.89-.54-1.89-1.9v-3.45h1.12v3.16c0 .98.42 1.27 1.08 1.27.8 0 1.47-.48 1.47-1.6v-2.83h1.13zM340.53 293.55l-.07.76c-.17.07-.39.12-.65.12-.57 0-.96-.21-1.07-.79-.33.5-1 .79-1.77.79-.99 0-1.71-.46-1.71-1.38 0-.81.67-1.41 2.05-1.65l1.33-.24v-.27c0-.63-.39-1.04-1.07-1.04-.65 0-1.13.28-1.35.94l-.87-.46c.25-.83 1.06-1.37 2.21-1.37 1.31 0 2.21.6 2.21 1.86v2.37c0 .26.1.39.39.39.12.02.25.01.37-.03zm-1.9-.96v-.63l-1.14.23c-.71.14-1.07.38-1.07.8 0 .39.29.6.79.6.7 0 1.42-.37 1.42-1zM344.57 293.98c-.34.28-.83.45-1.4.45-.9 0-1.6-.41-1.61-1.49v-2.98h-1v-.88h1v-1.23l1.12-.31v1.54h1.84v.88h-1.84v2.79c0 .51.3.75.77.75.36 0 .62-.13.85-.34l.27.82zM350.06 292.13h-3.84c.13.92.67 1.42 1.52 1.42.69 0 1.16-.25 1.32-.71l.93.39c-.38.78-1.1 1.22-2.26 1.22-1.66 0-2.63-1.02-2.63-2.73s.92-2.73 2.56-2.73c1.57 0 2.44 1.05 2.44 2.57.01.19-.02.43-.04.57zm-3.83-.86h2.82c-.1-.88-.6-1.4-1.39-1.4-.82 0-1.31.49-1.43 1.4zM359.43 291.71c0 1.71-.98 2.73-2.61 2.73s-2.61-1.02-2.61-2.73.98-2.73 2.61-2.73 2.61 1.02 2.61 2.73zm-4.09 0c0 1.19.54 1.85 1.48 1.85.95 0 1.49-.66 1.49-1.85s-.55-1.85-1.49-1.85c-.95 0-1.48.66-1.48 1.85zM365.26 289.08l-2.09 5.25h-1.23l-2.1-5.25h1.24l1.48 4.34 1.52-4.34h1.18zM370.62 292.13h-3.84c.13.92.67 1.42 1.52 1.42.69 0 1.15-.25 1.32-.71l.93.39c-.38.78-1.1 1.22-2.26 1.22-1.66 0-2.63-1.02-2.63-2.73s.92-2.73 2.56-2.73c1.58 0 2.44 1.05 2.44 2.57 0 .19-.02.43-.04.57zm-3.83-.86h2.82c-.11-.88-.6-1.4-1.39-1.4-.82 0-1.31.49-1.43 1.4zM375.15 289.08l-.18 1.03a1.44 1.44 0 0 0-.66-.14c-.63 0-1.32.5-1.32 1.57v2.78h-1.12v-5.25h.96l.1.93c.28-.68.84-1.04 1.65-1.04.2.02.42.05.57.12zM380.81 293.55l-.07.76c-.17.07-.39.12-.65.12-.57 0-.96-.21-1.07-.79-.33.5-1 .79-1.77.79-.99 0-1.71-.46-1.71-1.38 0-.81.67-1.41 2.05-1.65l1.33-.24v-.27c0-.63-.39-1.04-1.07-1.04-.65 0-1.13.28-1.35.94l-.87-.46c.25-.83 1.06-1.37 2.2-1.37 1.31 0 2.22.6 2.22 1.86v2.37c0 .26.1.39.39.39.12.02.25.01.37-.03zm-1.9-.96v-.63l-1.14.23c-.71.14-1.07.38-1.07.8 0 .39.29.6.79.6.69 0 1.42-.37 1.42-1zM382.75 292.8c0 .51.13.69.55.69.26 0 .42-.03.69-.14l-.13.9c-.23.12-.57.18-.87.18-.93 0-1.37-.46-1.37-1.48v-6.24h1.12v6.09zM385.82 292.8c0 .51.13.69.55.69.26 0 .42-.03.69-.14l-.13.9c-.23.12-.57.18-.87.18-.93 0-1.37-.46-1.37-1.48v-6.24h1.12v6.09zM395.83 291.7c0 1.72-.9 2.74-2.33 2.74-.78 0-1.38-.38-1.69-.96v3.05h-1.12v-7.45h.99l.05.97c.3-.64.95-1.07 1.79-1.07 1.42 0 2.31 1 2.31 2.72zm-1.12.01c0-1.14-.55-1.83-1.45-1.83-.88 0-1.45.66-1.45 1.76v.13c0 1.09.57 1.75 1.45 1.75.9 0 1.45-.67 1.45-1.81zM402 293.55l-.07.76c-.17.07-.39.12-.65.12-.57 0-.96-.21-1.07-.79-.33.5-1 .79-1.77.79-.99 0-1.71-.46-1.71-1.38 0-.81.67-1.41 2.05-1.65l1.33-.24v-.27c0-.63-.39-1.04-1.07-1.04-.65 0-1.13.28-1.35.94l-.87-.46c.25-.83 1.06-1.37 2.2-1.37 1.31 0 2.21.6 2.21 1.86v2.37c0 .26.11.39.39.39.12.02.26.01.38-.03zm-1.9-.96v-.63l-1.14.23c-.71.14-1.07.38-1.07.8 0 .39.29.6.79.6.69 0 1.42-.37 1.42-1zM406.04 293.98c-.34.28-.83.45-1.4.45-.9 0-1.6-.41-1.61-1.49v-2.98h-1v-.88h1v-1.23l1.12-.31v1.54H406v.88h-1.84v2.79c0 .51.3.75.77.75.36 0 .62-.13.85-.34l.26.82zM406.69 287.5c0-.44.27-.69.76-.69.48 0 .75.25.75.69 0 .44-.26.7-.75.7s-.76-.26-.76-.7zm1.31 6.83h-1.12v-5.25H408v5.25zM414.2 292.13h-3.84c.12.92.67 1.42 1.52 1.42.69 0 1.16-.25 1.32-.71l.93.39c-.38.78-1.1 1.22-2.26 1.22-1.66 0-2.63-1.02-2.63-2.73s.92-2.73 2.56-2.73c1.58 0 2.44 1.05 2.44 2.57 0 .19-.02.43-.04.57zm-3.83-.86h2.82c-.11-.88-.6-1.4-1.39-1.4-.83 0-1.32.49-1.43 1.4zM420.23 290.93v3.4h-1.12v-3.04c0-1.04-.48-1.39-1.12-1.39-.69 0-1.43.44-1.43 1.65v2.78h-1.12v-5.25h1l.05.88c.36-.69 1.02-.99 1.77-.99 1.11.01 1.97.65 1.97 1.96zM425.07 293.98c-.34.28-.83.45-1.4.45-.9 0-1.6-.41-1.61-1.49v-2.98h-1v-.88h1v-1.23l1.12-.31v1.54h1.84v.88h-1.84v2.79c0 .51.3.75.77.75.36 0 .62-.13.85-.34l.27.82zM200.56 304.33l.76-.65c.27.63.89.87 1.63.87.75 0 1.12-.27 1.12-.63 0-.33-.3-.51-1.22-.69-1.56-.29-2.11-.75-2.11-1.63 0-.85.8-1.63 2.2-1.63 1.17 0 1.83.38 2.2 1.19l-.8.59c-.26-.63-.71-.89-1.4-.89-.65 0-1.09.31-1.09.64 0 .38.3.58 1.29.76 1.5.27 2.04.72 2.04 1.6 0 .92-.84 1.58-2.29 1.58-1.01 0-1.89-.34-2.33-1.11zM211.26 304.55l-.07.76c-.17.07-.39.12-.65.12-.57 0-.96-.21-1.07-.79-.33.5-1 .79-1.77.79-.99 0-1.71-.46-1.71-1.38 0-.81.67-1.41 2.05-1.65l1.33-.24v-.27c0-.63-.39-1.04-1.07-1.04-.65 0-1.13.28-1.35.94l-.87-.46c.25-.83 1.06-1.37 2.2-1.37 1.31 0 2.22.6 2.22 1.86v2.37c0 .26.1.39.39.39.12.02.26.01.37-.03zm-1.9-.96v-.63l-1.14.23c-.71.14-1.07.38-1.07.8 0 .39.29.6.79.6.7 0 1.42-.37 1.42-1zM215.31 304.98c-.34.28-.83.45-1.4.45-.9 0-1.6-.41-1.61-1.49v-2.98h-1v-.88h1v-1.23l1.12-.31v1.54h1.84v.88h-1.84v2.79c0 .51.3.75.77.75.36 0 .62-.13.85-.34l.27.82zM215.96 298.5c0-.44.27-.69.76-.69.48 0 .75.25.75.69 0 .44-.26.7-.75.7s-.76-.26-.76-.7zm1.31 6.83h-1.12v-5.25h1.12v5.25zM218.37 304.33l.76-.65c.27.63.89.87 1.63.87.75 0 1.12-.27 1.12-.63 0-.33-.3-.51-1.22-.69-1.56-.29-2.11-.75-2.11-1.63 0-.85.8-1.63 2.2-1.63 1.17 0 1.83.38 2.2 1.19l-.8.59c-.26-.63-.71-.89-1.4-.89-.65 0-1.09.31-1.09.64 0 .38.3.58 1.29.76 1.5.27 2.04.72 2.04 1.6 0 .92-.84 1.58-2.29 1.58-1 0-1.88-.34-2.33-1.11zM225.65 300.08h1.7v.88h-1.67v4.37h-1.12v-4.37h-.99v-.88h.99v-.76c0-1.06.67-1.68 1.84-1.68.42 0 .79.09.99.25l-.21.82c-.16-.1-.35-.16-.6-.16-.59 0-.92.25-.92.85v.68zM232.81 304.55l-.07.76c-.17.07-.39.12-.65.12-.57 0-.96-.21-1.07-.79-.33.5-1 .79-1.77.79-.99 0-1.71-.46-1.71-1.38 0-.81.67-1.41 2.05-1.65l1.33-.24v-.27c0-.63-.39-1.04-1.07-1.04-.65 0-1.13.28-1.35.94l-.87-.46c.25-.83 1.06-1.37 2.2-1.37 1.31 0 2.22.6 2.22 1.86v2.37c0 .26.1.39.39.39.12.02.26.01.37-.03zm-1.9-.96v-.63l-1.14.23c-.71.14-1.07.38-1.07.8 0 .39.29.6.79.6.7 0 1.42-.37 1.42-1zM238.24 301.45l-1.05.42c-.18-.65-.58-1-1.23-1-.93 0-1.48.66-1.48 1.85s.56 1.83 1.48 1.83c.72 0 1.16-.37 1.29-1.02l1.03.35c-.29.96-1.08 1.56-2.3 1.56-1.66 0-2.64-1.02-2.64-2.73s.98-2.73 2.61-2.73c1.28 0 1.96.61 2.29 1.47zM242.79 304.98c-.34.28-.83.45-1.4.45-.9 0-1.6-.41-1.61-1.49v-2.98h-1v-.88h1v-1.23l1.12-.31v1.54h1.84v.88h-1.84v2.79c0 .51.3.75.77.75.36 0 .62-.13.85-.34l.27.82zM243.44 298.5c0-.44.27-.69.76-.69.48 0 .75.25.75.69 0 .44-.26.7-.75.7s-.76-.26-.76-.7zm1.31 6.83h-1.12v-5.25h1.12v5.25zM251.22 302.71c0 1.71-.98 2.73-2.61 2.73s-2.61-1.02-2.61-2.73.98-2.73 2.61-2.73 2.61 1.02 2.61 2.73zm-4.1 0c0 1.19.54 1.85 1.48 1.85s1.49-.66 1.49-1.85-.55-1.85-1.49-1.85-1.48.66-1.48 1.85zM257.24 301.93v3.4h-1.12v-3.04c0-1.04-.48-1.39-1.12-1.39-.69 0-1.43.44-1.43 1.65v2.78h-1.12v-5.25h1l.05.88c.36-.69 1.02-.99 1.77-.99 1.11.01 1.97.65 1.97 1.96zM266.86 302.71c0 1.71-.98 2.73-2.61 2.73s-2.61-1.02-2.61-2.73.98-2.73 2.61-2.73 2.61 1.02 2.61 2.73zm-4.09 0c0 1.19.54 1.85 1.48 1.85.95 0 1.49-.66 1.49-1.85s-.55-1.85-1.49-1.85c-.95 0-1.48.66-1.48 1.85zM269.51 300.08h1.7v.88h-1.67v4.37h-1.12v-4.37h-.99v-.88h.99v-.76c0-1.06.67-1.68 1.84-1.68.42 0 .79.09.99.25l-.21.82c-.16-.1-.35-.16-.6-.16-.59 0-.92.25-.92.85v.68zM279.24 300.08l-2.09 5.25h-1.23l-2.1-5.25h1.24l1.48 4.34 1.52-4.34h1.18zM279.8 298.5c0-.44.27-.69.76-.69.48 0 .75.25.75.69 0 .44-.26.7-.75.7s-.76-.26-.76-.7zm1.31 6.83h-1.12v-5.25h1.12v5.25zM282.21 304.33l.76-.65c.27.63.89.87 1.63.87.75 0 1.12-.27 1.12-.63 0-.33-.3-.51-1.22-.69-1.56-.29-2.11-.75-2.11-1.63 0-.85.8-1.63 2.2-1.63 1.17 0 1.83.38 2.2 1.19l-.8.59c-.26-.63-.71-.89-1.4-.89-.65 0-1.09.31-1.09.64 0 .38.3.58 1.29.76 1.5.27 2.04.72 2.04 1.6 0 .92-.84 1.58-2.29 1.58-1 0-1.89-.34-2.33-1.11zM287.81 298.5c0-.44.27-.69.76-.69.48 0 .75.25.75.69 0 .44-.26.7-.75.7s-.76-.26-.76-.7zm1.31 6.83H288v-5.25h1.12v5.25zM295.81 302.72c0 1.71-.89 2.72-2.32 2.72-.84 0-1.48-.43-1.78-1.07l-.05.97h-.99v-7.61h1.12v3.21c.31-.58.91-.96 1.69-.96 1.43 0 2.33 1.02 2.33 2.74zm-1.12-.01c0-1.14-.55-1.82-1.45-1.82-.88 0-1.45.66-1.45 1.75v.13c0 1.1.57 1.76 1.45 1.76.9 0 1.45-.68 1.45-1.82zM298.15 303.8c0 .51.13.69.55.69.26 0 .42-.03.69-.14l-.13.9c-.23.12-.57.18-.87.18-.93 0-1.36-.46-1.36-1.48v-6.24h1.12v6.09zM304.78 303.13h-3.84c.13.92.67 1.42 1.52 1.42.69 0 1.16-.25 1.32-.71l.93.39c-.38.78-1.1 1.22-2.26 1.22-1.66 0-2.63-1.02-2.63-2.73s.92-2.73 2.56-2.73c1.57 0 2.44 1.05 2.44 2.57 0 .19-.02.43-.04.57zm-3.84-.86h2.82c-.1-.88-.6-1.4-1.39-1.4-.82 0-1.31.49-1.43 1.4zM310.54 300.08h1.7v.88h-1.67v4.37h-1.12v-4.37h-.99v-.88h.99v-.76c0-1.06.67-1.68 1.84-1.68.42 0 .79.09.99.25l-.21.82c-.16-.1-.35-.16-.6-.16-.59 0-.92.25-.92.85v.68zM317.7 304.55l-.07.76c-.17.07-.39.12-.65.12-.57 0-.96-.21-1.07-.79-.33.5-1 .79-1.77.79-.99 0-1.71-.46-1.71-1.38 0-.81.67-1.41 2.05-1.65l1.33-.24v-.27c0-.63-.39-1.04-1.07-1.04-.65 0-1.13.28-1.35.94l-.87-.46c.25-.83 1.06-1.37 2.2-1.37 1.31 0 2.22.6 2.22 1.86v2.37c0 .26.1.39.39.39.12.02.26.01.37-.03zm-1.9-.96v-.63l-1.14.23c-.71.14-1.07.38-1.07.8 0 .39.29.6.79.6.7 0 1.42-.37 1.42-1zM321.75 304.98c-.34.28-.83.45-1.4.45-.9 0-1.6-.41-1.61-1.49v-2.98h-1v-.88h1v-1.23l1.12-.31v1.54h1.84v.88h-1.84v2.79c0 .51.3.75.77.75.36 0 .62-.13.85-.34l.27.82zM329.07 300.08l-.18 1.03a1.44 1.44 0 0 0-.66-.14c-.63 0-1.32.5-1.32 1.57v2.78h-1.12v-5.25h.96l.1.93c.28-.68.84-1.04 1.65-1.04.21.02.43.05.57.12zM334.44 303.13h-3.84c.13.92.67 1.42 1.52 1.42.69 0 1.15-.25 1.32-.71l.93.39c-.38.78-1.1 1.22-2.26 1.22-1.66 0-2.63-1.02-2.63-2.73s.92-2.73 2.56-2.73c1.58 0 2.44 1.05 2.44 2.57 0 .19-.02.43-.04.57zm-3.83-.86h2.82c-.11-.88-.6-1.4-1.39-1.4-.82 0-1.32.49-1.43 1.4zM340.54 297.72v7.61h-.99l-.06-.94c-.3.62-.95 1.05-1.77 1.05-1.43 0-2.32-1.01-2.32-2.72 0-1.72.9-2.74 2.33-2.74.78 0 1.38.38 1.69.96v-3.21h1.12zm-1.12 5.05v-.13c0-1.09-.57-1.75-1.45-1.75-.9 0-1.45.67-1.45 1.82 0 1.14.55 1.83 1.45 1.83.88-.01 1.45-.67 1.45-1.77zM346.83 300.08v5.25h-1l-.05-.85c-.36.66-1.01.96-1.86.96-1.05 0-1.89-.54-1.89-1.9v-3.45h1.12v3.16c0 .98.42 1.27 1.08 1.27.8 0 1.47-.48 1.47-1.6v-2.83h1.13zM352.95 301.45l-1.05.42c-.18-.65-.58-1-1.23-1-.93 0-1.48.66-1.48 1.85s.56 1.83 1.48 1.83c.72 0 1.16-.37 1.29-1.02l1.03.35c-.29.96-1.08 1.56-2.3 1.56-1.66 0-2.63-1.02-2.63-2.73s.98-2.73 2.61-2.73c1.27 0 1.95.61 2.28 1.47zM357.5 304.98c-.34.28-.83.45-1.4.45-.9 0-1.6-.41-1.61-1.49v-2.98h-1v-.88h1v-1.23l1.12-.31v1.54h1.84v.88h-1.84v2.79c0 .51.3.75.77.75.36 0 .62-.13.85-.34l.27.82zM358.15 298.5c0-.44.27-.69.76-.69.48 0 .75.25.75.69 0 .44-.26.7-.75.7s-.76-.26-.76-.7zm1.31 6.83h-1.12v-5.25h1.12v5.25zM365.93 302.71c0 1.71-.98 2.73-2.61 2.73s-2.61-1.02-2.61-2.73.98-2.73 2.61-2.73 2.61 1.02 2.61 2.73zm-4.1 0c0 1.19.54 1.85 1.48 1.85s1.49-.66 1.49-1.85-.55-1.85-1.49-1.85-1.48.66-1.48 1.85zM371.96 301.93v3.4h-1.12v-3.04c0-1.04-.48-1.39-1.12-1.39-.69 0-1.43.44-1.43 1.65v2.78h-1.12v-5.25h1l.05.88c.36-.69 1.02-.99 1.77-.99 1.1.01 1.97.65 1.97 1.96zM374.8 304.67c0 .46-.3.77-.79.77-.48 0-.8-.3-.8-.77s.32-.76.8-.76c.49 0 .79.3.79.76zM381.99 298.08c-1.32 1.21-1.82 2.44-1.82 4.33 0 1.9.49 3.12 1.82 4.33l-.59.59c-1.52-1.23-2.31-2.89-2.31-4.91 0-2.04.79-3.7 2.31-4.92l.59.58zM387.39 301.93v3.4h-1.12v-3.04c0-1.04-.48-1.39-1.12-1.39-.69 0-1.43.44-1.43 1.65v2.78h-1.12v-5.25h1l.05.88c.36-.69 1.02-.99 1.77-.99 1.11.01 1.97.65 1.97 1.96zM393.68 301.49h-5v-.92h5v.92zm0 2.15h-5v-.92h5v.92zM400 301.88c0 2.37-.99 3.56-2.75 3.56-1.27 0-2.04-.52-2.45-1.55l1.06-.49c.2.65.48 1.08 1.39 1.08 1.28 0 1.72-1.05 1.72-2.73v-.12h-.04c-.21.88-1.07 1.19-1.85 1.19-1.34 0-2.3-.87-2.3-2.24 0-1.41.94-2.28 2.48-2.28 1.78 0 2.74 1.39 2.74 3.58zm-4.09-1.29c0 .79.49 1.27 1.35 1.27.81 0 1.35-.51 1.35-1.27 0-.79-.55-1.3-1.35-1.3-.86-.01-1.35.48-1.35 1.3zM406.21 299.78l-.99.47c-.19-.61-.6-.98-1.34-.98-1.02 0-1.71 1.13-1.71 2.67v.19h.04c.23-.81 1.06-1.17 1.83-1.17 1.38 0 2.31.86 2.31 2.21 0 1.39-.95 2.26-2.47 2.26-1.77 0-2.74-1.42-2.74-3.57 0-2.36 1.21-3.57 2.8-3.57 1.11.01 1.86.43 2.27 1.49zm-3.69 3.39c0 .79.54 1.3 1.35 1.3.86 0 1.35-.48 1.35-1.3 0-.79-.49-1.27-1.35-1.27-.81 0-1.35.51-1.35 1.27zM409.65 302.41c0 2.03-.79 3.69-2.31 4.91l-.59-.59c1.32-1.21 1.82-2.43 1.82-4.33s-.49-3.13-1.82-4.33l.59-.59c1.52 1.24 2.31 2.9 2.31 4.93z"/><path class="st1" d="M412.33 304.67c0 .46-.3.77-.79.77-.48 0-.8-.3-.8-.77s.32-.76.8-.76c.48 0 .79.3.79.76z"/></svg>