<svg id="Layer_1" xmlns="http://www.w3.org/2000/svg" viewBox="0 0 600 500"><style>.st0{fill:#fff}</style><path class="st0" d="M-385.96 48.56c0 .59-.47 1.05-1.07 1.05-.6 0-1.08-.47-1.08-1.05 0-.59.48-1.05 1.08-1.05.6 0 1.07.46 1.07 1.05zm-1.88 0c0 .46.35.84.82.84.45.01.8-.37.8-.83 0-.46-.34-.84-.81-.84-.46-.01-.81.37-.81.83zm.65.54h-.24v-1.05c.09-.01.23-.03.4-.03.2 0 .29.03.36.08.06.04.11.12.11.22 0 .13-.1.21-.22.25v.01c.1.03.15.11.18.25.03.16.06.22.08.25h-.26c-.03-.04-.05-.13-.08-.25-.02-.11-.08-.16-.22-.16h-.11v.43zm0-.58h.11c.13 0 .24-.04.24-.15 0-.1-.07-.16-.22-.16-.06 0-.11.01-.13.01v.3zM-370.3 44.92c-5.21 0-7.71-3.8-7.71-7.44 0-4.21 3.03-7.59 7.8-7.59 1.62 0 3.3.5 4.62 1.62l-1.47 2.06c-.91-.71-1.88-.97-3.06-.97-2.53 0-4.41 1.76-4.41 4.8 0 2.77 1.74 4.97 4.5 4.97 1.18 0 2.21-.35 3.12-1.15l1.35 2.06c-1.3 1.11-3.07 1.64-4.74 1.64M-357.56 44.92c-4.36 0-7.56-3.29-7.56-7.59 0-4.41 3.5-7.44 7.56-7.44s7.59 3 7.59 7.41c0 4.33-3.21 7.62-7.59 7.62m4.09-7.59c0-2.65-1.3-4.94-4.09-4.94-2.74 0-4.09 2.29-4.09 4.91 0 2.71 1.27 5.12 4.09 5.12s4.09-2.39 4.09-5.12v.03zM-341.14 44.92c-4.36 0-7.56-3.29-7.56-7.59 0-4.41 3.5-7.44 7.56-7.44s7.59 3 7.59 7.41c0 4.33-3.21 7.62-7.59 7.62m4.09-7.59c0-2.65-1.29-4.94-4.09-4.94-2.74 0-4.09 2.29-4.09 4.91 0 2.71 1.27 5.12 4.09 5.12s4.09-2.39 4.09-5.12v.03zM-331.84 44.57V23.5l3.26 1.8v19.27zM-321.04 45.01c-3.68 0-5.45-1.77-5.45-1.77l1.47-1.91s1.68 1.12 3.88 1.12c1.06 0 1.94-.74 1.94-1.47 0-.74-.32-1.36-1.3-1.85-.97-.5-2.06-1.03-2.91-1.44-.85-.41-2.74-1.68-2.74-4.15 0-2.5 2.53-3.88 5.12-3.88 2.47 0 4.36 1.62 4.36 1.62l-1.27 1.94s-1.41-1-2.97-1c-1.56 0-1.88 1-1.88 1.41 0 .41.15 1.06 1.15 1.59 1 .53 2.03 1.09 3.5 1.92 1.47.82 2.29 2.23 2.29 3.82.02 1.58-1.51 4.05-5.19 4.05M-307 44.92c-5.21 0-7.71-3.8-7.71-7.44 0-4.21 3.03-7.59 7.8-7.59 1.62 0 3.3.5 4.62 1.62l-1.47 2.06c-.91-.71-1.88-.97-3.06-.97-2.53 0-4.41 1.76-4.41 4.8 0 2.77 1.74 4.97 4.5 4.97 1.18 0 2.21-.35 3.12-1.15l1.35 2.06c-1.3 1.11-3.07 1.64-4.74 1.64M-290.91 42.89s-1.65 2.03-4.77 2.03c-3.68 0-5.47-2.68-5.47-5.38v-9.33h3.27v9.18c0 1.59 1.24 2.91 3.15 2.91 1.68 0 3.33-2 3.33-2V30.21h3.27v14.33l-2.78-1.65zM-285.23 44.57V23.5l3.27 1.8v19.27zM-271.16 44.92c-2.88 0-4.53-1.62-4.53-1.62v7.15h-3.3V29.92l3.3 1.73s1.77-1.79 4.71-1.79c3.09 0 6.94 2.38 6.94 7.71 0 5.32-3.8 7.35-7.12 7.35m-.21-12.53c-2.8 0-4.41 2.62-4.41 2.62v5.41s1.85 2.09 4.53 2.09c3.12 0 3.8-3.74 3.8-5.03 0-1.3-.3-5.09-3.92-5.09M-255.45 44.95h-2.06c-2.59 0-3.47-2.5-3.47-4.15v-8.45h-2.59V30.2h2.59v-6.33h3.24v6.33h3.33v2.15h-3.3V40c0 .85-.15 2.21 1.3 2.21h2.36l-1.4 2.74zM-250.21 27.73c-1.17 0-2.15-.97-2.15-2.15s.97-2.15 2.15-2.15 2.15.97 2.15 2.15c0 1.19-.97 2.15-2.15 2.15m-1.62 2.48h3.21v14.36h-3.21V30.21zM-235.67 44.57v-9.18c0-1.59-1.24-2.91-3.15-2.91-1.68 0-3.56 2-3.56 2v10.1h-3.27V30.24l2.77 1.65s1.88-2.03 5-2.03c3.68 0 5.47 2.68 5.47 5.38v9.33h-3.26zM-222.43 51.25c-.5 0-4.33-.06-4.33-.06l.06-2.62h3.22c3.12 0 4.88-1.68 4.88-3.97v-1.3s-1.71 1.62-4.59 1.62c-3.33 0-7.12-2.03-7.12-7.36s3.86-7.71 6.95-7.71c2.94 0 4.71 1.79 4.71 1.79l3.3-1.65v14.27c-.02 3.87-2.58 6.99-7.08 6.99m3.86-16.24s-1.62-2.62-4.41-2.62c-3.62 0-3.91 3.79-3.91 5.09 0 1.29.67 5.03 3.8 5.03 2.68 0 4.53-2.09 4.53-2.09v-5.41zM-407.26 55.46v-9.38l1.84-1.85 5.32 5.32v1.78zM-411.09 38.04l-6.01 6.01 7.36 2.77 8.78-8.78zM-408.12 29.65h-7.75l2.48 7.16h12.43zM-400.09 25.82l-5.98-5.98-2.8 7.32 8.78 8.79zM-381.99 45.2h-8.85l-7.16-7.16h12.42zM-389.22 28.03l8.04 2.1-6.69 6.69H-398zM-398.87 23.52l7.16-4.25v9.51l-7.16 7.17zM-389.75 48.03l-2.3 7.84-12.5-12.51 5.06-5.06zM-210.49 31.18c0 .85-.69 1.52-1.55 1.52-.87 0-1.56-.67-1.56-1.52s.69-1.52 1.57-1.52c.86.01 1.54.67 1.54 1.52zm-2.72 0c0 .67.51 1.21 1.19 1.21.65.01 1.15-.54 1.15-1.2 0-.67-.5-1.22-1.17-1.22-.66 0-1.17.55-1.17 1.21zm.93.79h-.35v-1.52c.14-.02.33-.05.58-.05.29 0 .42.05.52.12.09.07.16.18.16.32 0 .19-.14.3-.31.36v.02c.15.05.22.17.27.37.05.23.08.32.11.37h-.37c-.05-.05-.07-.19-.12-.37-.03-.15-.12-.23-.31-.23h-.17v.61zm.01-.85h.17c.2 0 .35-.06.35-.22 0-.14-.1-.23-.32-.23-.09 0-.16.01-.2.02v.43z"/><g><path class="st0" d="M234.04 48.56c0 .59-.47 1.05-1.07 1.05-.6 0-1.08-.47-1.08-1.05 0-.59.48-1.05 1.08-1.05.6 0 1.07.46 1.07 1.05zm-1.88 0c0 .46.35.84.82.84.45.01.8-.37.8-.83 0-.46-.34-.84-.81-.84-.46-.01-.81.37-.81.83zm.65.54h-.24v-1.05c.09-.01.23-.03.4-.03.2 0 .29.03.36.08.06.04.11.12.11.22 0 .13-.1.21-.22.25v.01c.1.03.15.11.18.25.03.16.06.22.08.25h-.26c-.03-.04-.05-.13-.08-.25-.02-.11-.08-.16-.22-.16h-.11v.43zm0-.58h.11c.13 0 .24-.04.24-.15 0-.1-.07-.16-.22-.16-.06 0-.11.01-.13.01v.3zM249.7 44.92c-5.21 0-7.71-3.8-7.71-7.44 0-4.21 3.03-7.59 7.8-7.59 1.62 0 3.3.5 4.62 1.62l-1.47 2.06c-.91-.71-1.88-.97-3.06-.97-2.53 0-4.41 1.76-4.41 4.8 0 2.77 1.74 4.97 4.5 4.97 1.18 0 2.21-.35 3.12-1.15l1.35 2.06c-1.3 1.11-3.07 1.64-4.74 1.64M262.44 44.92c-4.36 0-7.56-3.29-7.56-7.59 0-4.41 3.5-7.44 7.56-7.44s7.59 3 7.59 7.41c0 4.33-3.21 7.62-7.59 7.62m4.09-7.59c0-2.65-1.3-4.94-4.09-4.94-2.74 0-4.09 2.29-4.09 4.91 0 2.71 1.27 5.12 4.09 5.12s4.09-2.39 4.09-5.12v.03zM278.86 44.92c-4.36 0-7.56-3.29-7.56-7.59 0-4.41 3.5-7.44 7.56-7.44s7.59 3 7.59 7.41c0 4.33-3.21 7.62-7.59 7.62m4.09-7.59c0-2.65-1.29-4.94-4.09-4.94-2.74 0-4.09 2.29-4.09 4.91 0 2.71 1.27 5.12 4.09 5.12s4.09-2.39 4.09-5.12v.03zM288.16 44.57V23.5l3.26 1.8v19.27zM298.96 45.01c-3.68 0-5.45-1.77-5.45-1.77l1.47-1.91s1.68 1.12 3.88 1.12c1.06 0 1.94-.74 1.94-1.47 0-.74-.32-1.36-1.3-1.85-.97-.5-2.06-1.03-2.91-1.44-.85-.41-2.74-1.68-2.74-4.15 0-2.5 2.53-3.88 5.12-3.88 2.47 0 4.36 1.62 4.36 1.62l-1.27 1.94s-1.41-1-2.97-1c-1.56 0-1.88 1-1.88 1.41 0 .41.15 1.06 1.15 1.59 1 .53 2.03 1.09 3.5 1.92 1.47.82 2.29 2.23 2.29 3.82.02 1.58-1.51 4.05-5.19 4.05M313 44.92c-5.21 0-7.71-3.8-7.71-7.44 0-4.21 3.03-7.59 7.8-7.59 1.62 0 3.3.5 4.62 1.62l-1.47 2.06c-.91-.71-1.88-.97-3.06-.97-2.53 0-4.41 1.76-4.41 4.8 0 2.77 1.74 4.97 4.5 4.97 1.18 0 2.21-.35 3.12-1.15l1.35 2.06c-1.3 1.11-3.07 1.64-4.74 1.64M329.09 42.89s-1.65 2.03-4.77 2.03c-3.68 0-5.47-2.68-5.47-5.38v-9.33h3.27v9.18c0 1.59 1.24 2.91 3.15 2.91 1.68 0 3.33-2 3.33-2V30.21h3.27v14.33l-2.78-1.65zM334.77 44.57V23.5l3.27 1.8v19.27zM348.84 44.92c-2.88 0-4.53-1.62-4.53-1.62v7.15h-3.3V29.92l3.3 1.73s1.77-1.79 4.71-1.79c3.09 0 6.94 2.38 6.94 7.71 0 5.32-3.8 7.35-7.12 7.35m-.21-12.53c-2.8 0-4.41 2.62-4.41 2.62v5.41s1.85 2.09 4.53 2.09c3.12 0 3.8-3.74 3.8-5.03 0-1.3-.3-5.09-3.92-5.09M364.55 44.95h-2.06c-2.59 0-3.47-2.5-3.47-4.15v-8.45h-2.59V30.2h2.59v-6.33h3.24v6.33h3.33v2.15h-3.3V40c0 .85-.15 2.21 1.3 2.21h2.36l-1.4 2.74zM369.79 27.73c-1.17 0-2.15-.97-2.15-2.15s.97-2.15 2.15-2.15 2.15.97 2.15 2.15c0 1.19-.97 2.15-2.15 2.15m-1.62 2.48h3.21v14.36h-3.21V30.21zM384.33 44.57v-9.18c0-1.59-1.24-2.91-3.15-2.91-1.68 0-3.56 2-3.56 2v10.1h-3.27V30.24l2.77 1.65s1.88-2.03 5-2.03c3.68 0 5.47 2.68 5.47 5.38v9.33h-3.26zM397.57 51.25c-.5 0-4.33-.06-4.33-.06l.06-2.62h3.22c3.12 0 4.88-1.68 4.88-3.97v-1.3s-1.71 1.62-4.59 1.62c-3.33 0-7.12-2.03-7.12-7.36s3.86-7.71 6.95-7.71c2.94 0 4.71 1.79 4.71 1.79l3.3-1.65v14.27c-.02 3.87-2.58 6.99-7.08 6.99m3.86-16.24s-1.62-2.62-4.41-2.62c-3.62 0-3.91 3.79-3.91 5.09 0 1.29.67 5.03 3.8 5.03 2.68 0 4.53-2.09 4.53-2.09v-5.41zM212.74 55.46v-9.38l1.84-1.85 5.32 5.32v1.78zM208.91 38.04l-6.01 6.01 7.36 2.77 8.78-8.78zM211.88 29.65h-7.75l2.48 7.16h12.43zM219.91 25.82l-5.98-5.98-2.8 7.32 8.78 8.79zM238.01 45.2h-8.85L222 38.04h12.42zM230.78 28.03l8.04 2.1-6.69 6.69H222zM221.13 23.52l7.16-4.25v9.51l-7.16 7.17zM230.25 48.03l-2.3 7.84-12.5-12.51 5.06-5.06zM409.51 31.18c0 .85-.69 1.52-1.55 1.52-.87 0-1.56-.67-1.56-1.52s.69-1.52 1.57-1.52c.86.01 1.54.67 1.54 1.52zm-2.72 0c0 .67.51 1.21 1.19 1.21.65.01 1.15-.54 1.15-1.2 0-.67-.5-1.22-1.17-1.22-.66 0-1.17.55-1.17 1.21zm.93.79h-.35v-1.52c.14-.02.33-.05.58-.05.29 0 .42.05.52.12.09.07.16.18.16.32 0 .19-.14.3-.31.36v.02c.15.05.22.17.27.37.05.23.08.32.11.37h-.37c-.05-.05-.07-.19-.12-.37-.03-.15-.12-.23-.31-.23h-.17v.61zm.01-.85h.17c.2 0 .35-.06.35-.22 0-.14-.1-.23-.32-.23-.09 0-.16.01-.2.02v.43z"/></g></svg>