<?xml version="1.0" encoding="utf-8"?>
<!-- Generator: Adobe Illustrator 25.2.1, SVG Export Plug-In . SVG Version: 6.00 Build 0)  -->
<svg version="1.1" id="Layer_1" xmlns="http://www.w3.org/2000/svg" xmlns:xlink="http://www.w3.org/1999/xlink" x="0px" y="0px"
	 viewBox="0 0 160 600" style="enable-background:new 0 0 160 600;" xml:space="preserve">
<style type="text/css">
	.st0{fill:#EAF5FB;}
</style>
<g>
	<path class="st0" d="M31.16,87.26v-3.62h1.74v3.29c0,1.71,0.48,2.4,1.68,2.4c1.23,0,1.71-0.69,1.71-2.4v-3.11
		c0-1.41-0.39-2.1-1.41-2.76l-1.59-1.02c-1.53-0.99-2.13-2.13-2.13-4.13v-2.67c0-2.28,1.23-3.56,3.35-3.56
		c2.13,0,3.35,1.29,3.35,3.56v2.67h-1.74v-2.37c0-1.62-0.45-2.25-1.59-2.25s-1.59,0.63-1.59,2.25v2.25c0,1.41,0.39,2.1,1.41,2.76
		l1.59,1.02c1.53,0.99,2.13,2.13,2.13,4.13v3.56c0,2.37-1.29,3.68-3.47,3.68S31.16,89.63,31.16,87.26z"/>
	<path class="st0" d="M43.06,71.53h-2.52v-1.56h6.83v1.56h-2.52v19.11h-1.8V71.53z"/>
	<path class="st0" d="M50.31,69.98h3.32c2.4,0,3.53,1.23,3.53,3.74v2.64c0,1.68-0.54,2.7-1.62,3.17v0.06
		c1.08,0.48,1.62,1.5,1.62,3.21v7.85h-1.8v-7.73c0-1.92-0.54-2.49-2.25-2.49H52.1v10.21h-1.8V69.98z M53.42,78.87
		c1.5,0,1.95-0.57,1.95-2.49v-2.37c0-1.92-0.45-2.49-1.95-2.49H52.1v7.34H53.42z"/>
	<path class="st0" d="M60.67,69.98h5.93v1.56h-4.13v7.22h3.59v1.56h-3.59v8.78h4.13v1.56h-5.93V69.98z"/>
	<path class="st0" d="M69.66,69.98H72l3.26,15.13h0.06V69.98h1.62v20.67h-1.95L71.34,73.6h-0.06v17.04h-1.62V69.98z"/>
	<path class="st0" d="M80.48,87.71V73.39c0-2.37,1.29-3.71,3.44-3.71c2.19,0,3.42,1.35,3.42,3.71v2.28h-1.71v-1.95
		c0-1.74-0.48-2.43-1.68-2.43c-1.23,0-1.68,0.69-1.68,2.43V87.5c0,1.23,0.45,1.83,1.44,1.83c1.23,0,1.92-0.93,1.92-2.61v-5.93h-1.68
		v-1.56h3.47v11.41H85.9v-1.47h-0.09c-0.48,1.14-1.35,1.77-2.58,1.77C81.49,90.94,80.48,89.72,80.48,87.71z"/>
	<path class="st0" d="M92.61,71.53h-2.52v-1.56h6.83v1.56h-2.52v19.11h-1.8V71.53z"/>
	<path class="st0" d="M99.86,69.98h1.8v8.78h3.38v-8.78h1.8v20.67h-1.8V80.31h-3.38v10.33h-1.8V69.98z"/>
	<path class="st0" d="M110.49,69.98h5.93v1.56h-4.13v7.22h3.59v1.56h-3.59v8.78h4.13v1.56h-5.93V69.98z"/>
	<path class="st0" d="M119.48,69.98h2.34l3.26,15.13h0.06V69.98h1.62v20.67h-1.95l-3.65-17.04h-0.06v17.04h-1.62V69.98z"/>
	<path class="st0" d="M131.1,90.64h-0.72v-2.46h2.04v2.16l-1.32,3.32h-1.05L131.1,90.64z"/>
	<path class="st0" d="M44.58,102.49h-2.52v-1.56h6.83v1.56h-2.52v19.11h-1.8V102.49z"/>
	<path class="st0" d="M51.18,118.16v-13.78c0-2.4,1.29-3.74,3.47-3.74c2.19,0,3.47,1.35,3.47,3.74v13.78c0,2.4-1.29,3.74-3.47,3.74
		C52.46,121.9,51.18,120.55,51.18,118.16z M56.33,117.86v-13.18c0-1.74-0.48-2.43-1.68-2.43c-1.23,0-1.68,0.69-1.68,2.43v13.18
		c0,1.74,0.45,2.43,1.68,2.43C55.85,120.29,56.33,119.6,56.33,117.86z"/>
	<path class="st0" d="M61.36,100.94h2.34l3.26,15.13h0.06v-15.13h1.62v20.67h-1.95l-3.65-17.04h-0.06v17.04h-1.62V100.94z"/>
	<path class="st0" d="M72,100.94h5.93v1.56h-4.13v7.22h3.59v1.56h-3.59v8.78h4.13v1.56H72V100.94z"/>
	<path class="st0" d="M81.67,121.6h-0.72v-2.46h2.04v2.16l-1.32,3.32h-1.05L81.67,121.6z"/>
	<path class="st0" d="M93.06,100.94h2.37l2.61,20.67H96.2l-0.6-5.12h-2.82l-0.6,5.12h-1.74L93.06,100.94z M95.42,114.92l-1.2-11.14
		h-0.06l-1.2,11.14H95.42z"/>
	<path class="st0" d="M100.7,100.94h2.34l3.26,15.13h0.06v-15.13h1.62v20.67h-1.95l-3.65-17.04h-0.06v17.04h-1.62V100.94z"/>
	<path class="st0" d="M111.33,100.94h3.41c2.4,0,3.53,1.23,3.53,3.74v13.18c0,2.52-1.14,3.74-3.53,3.74h-3.41V100.94z
		 M114.54,120.05c1.5,0,1.95-0.57,1.95-2.49v-12.58c0-1.92-0.45-2.49-1.95-2.49h-1.41v17.55H114.54z"/>
	<path class="st0" d="M24.03,131.89h5.93v1.56h-4.13v7.52h3.59v1.56h-3.59v10.03h-1.8V131.89z"/>
	<path class="st0" d="M32.6,131.89h1.8v20.67h-1.8V131.89z"/>
	<path class="st0" d="M37.75,131.89h3.32c2.4,0,3.53,1.23,3.53,3.74v2.64c0,1.68-0.54,2.7-1.62,3.17v0.06
		c1.08,0.48,1.62,1.5,1.62,3.21v7.85h-1.8v-7.73c0-1.92-0.54-2.49-2.25-2.49h-1.02v10.21h-1.8V131.89z M40.87,140.79
		c1.5,0,1.95-0.57,1.95-2.49v-2.37c0-1.92-0.45-2.49-1.95-2.49h-1.32v7.34H40.87z"/>
	<path class="st0" d="M47.82,131.89h2.85l2.31,15.25h0.06l2.31-15.25h2.97v20.67h-1.8v-18.48h-0.06l-2.79,18.48h-1.41l-2.79-18.48
		h-0.06v18.48h-1.59V131.89z"/>
	<path class="st0" d="M66.46,131.89h2.85l2.31,15.25h0.06l2.31-15.25h2.97v20.67h-1.8v-18.48h-0.06l-2.79,18.48h-1.41l-2.79-18.48
		h-0.06v18.48h-1.59V131.89z"/>
	<path class="st0" d="M80.24,149.24v-17.34h1.8v17.01c0,1.68,0.42,2.34,1.62,2.34s1.62-0.66,1.62-2.34v-17.01H87v17.34
		c0,2.31-1.26,3.62-3.38,3.62C81.49,152.86,80.24,151.54,80.24,149.24z"/>
	<path class="st0" d="M89.97,149.18v-3.62h1.74v3.29c0,1.71,0.48,2.4,1.68,2.4c1.23,0,1.71-0.69,1.71-2.4v-3.11
		c0-1.41-0.39-2.1-1.41-2.76l-1.59-1.02c-1.53-0.99-2.13-2.13-2.13-4.13v-2.67c0-2.28,1.23-3.56,3.35-3.56
		c2.13,0,3.36,1.29,3.36,3.56v2.67h-1.74v-2.37c0-1.62-0.45-2.25-1.59-2.25c-1.14,0-1.59,0.63-1.59,2.25v2.25
		c0,1.41,0.39,2.1,1.41,2.76l1.59,1.02c1.53,0.99,2.13,2.13,2.13,4.13v3.56c0,2.37-1.29,3.68-3.47,3.68S89.97,151.54,89.97,149.18z"
		/>
	<path class="st0" d="M99.74,149.3v-14.14c0-2.28,1.2-3.56,3.35-3.56c2.19,0,3.38,1.29,3.38,3.56v3.38h-1.71v-3.08
		c0-1.62-0.48-2.25-1.62-2.25c-1.17,0-1.62,0.63-1.62,2.25V149c0,1.62,0.45,2.25,1.62,2.25c1.14,0,1.62-0.63,1.62-2.25v-4.16h1.71
		v4.46c0,2.28-1.2,3.56-3.38,3.56C100.94,152.86,99.74,151.57,99.74,149.3z"/>
	<path class="st0" d="M109.51,131.89h1.8V151h3.83v1.56h-5.63V131.89z"/>
	<path class="st0" d="M117.78,131.89h5.93v1.56h-4.13v7.22h3.59v1.56h-3.59V151h4.13v1.56h-5.93V131.89z"/>
	<path class="st0" d="M126.19,149.18v-3.62h1.74v3.29c0,1.71,0.48,2.4,1.68,2.4c1.23,0,1.71-0.69,1.71-2.4v-3.11
		c0-1.41-0.39-2.1-1.41-2.76l-1.59-1.02c-1.53-0.99-2.13-2.13-2.13-4.13v-2.67c0-2.28,1.23-3.56,3.35-3.56
		c2.13,0,3.36,1.29,3.36,3.56v2.67h-1.74v-2.37c0-1.62-0.45-2.25-1.59-2.25c-1.14,0-1.59,0.63-1.59,2.25v2.25
		c0,1.41,0.39,2.1,1.41,2.76l1.59,1.02c1.53,0.99,2.13,2.13,2.13,4.13v3.56c0,2.37-1.29,3.68-3.47,3.68S126.19,151.54,126.19,149.18
		z"/>
	<path class="st0" d="M136.08,150.1h2.01v2.46h-2.01V150.1z"/>
</g>
</svg>
