<?xml version="1.0" encoding="utf-8"?>
<!-- Generator: Adobe Illustrator 25.2.1, SVG Export Plug-In . SVG Version: 6.00 Build 0)  -->
<svg version="1.1" id="Layer_1" xmlns="http://www.w3.org/2000/svg" xmlns:xlink="http://www.w3.org/1999/xlink" x="0px" y="0px"
	 viewBox="0 0 160 600" style="enable-background:new 0 0 160 600;" xml:space="preserve">
<style type="text/css">
	.st0{fill:#00A9E0;}
	.st1{fill:#FFFFFF;}
</style>
<rect x="24.55" y="461.89" class="st0" width="111.81" height="27.23"/>
<g>
	<path class="st1" d="M33.4,480.9v-9.79h2.38v7.73h3.79v2.06H33.4z"/>
	<path class="st1" d="M41.15,480.9v-9.79h6.58v2h-4.3v1.84h4.06v1.89h-4.06v2.03h4.55v2.02H41.15z"/>
	<path class="st1" d="M56.66,480.9l-0.76-1.92h-3.79l-0.72,1.92h-2.57l4.11-9.79h2.29l4.06,9.79H56.66z M54.03,473.73l-1.24,3.36
		h2.46L54.03,473.73z"/>
	<path class="st1" d="M65.82,480.9l-2.12-3.88h-0.8v3.88h-2.32v-9.79h3.73c1.88,0,3.75,0.72,3.75,2.96c0,1.31-0.77,2.25-2.03,2.64
		l2.56,4.19H65.82z M64.15,473.02h-1.26v2.28h1.12c0.76,0,1.71-0.19,1.71-1.19C65.73,473.2,64.86,473.02,64.15,473.02z"/>
	<path class="st1" d="M76.45,480.9l-3.94-6.4h-0.04l0.06,6.4h-2.29v-9.79h2.7l3.93,6.39h0.04l-0.06-6.39h2.29v9.79H76.45z"/>
	<path class="st1" d="M94.45,480.9l0.05-6.93h-0.04l-2.54,6.93h-1.66l-2.47-6.93h-0.04l0.06,6.93h-2.23v-9.79h3.36l2.23,6.28h0.05
		l2.13-6.28h3.42v9.79H94.45z"/>
	<path class="st1" d="M104.12,481.16c-3.05,0-5.32-2.1-5.32-5.2c0-3.14,2.27-5.12,5.32-5.12c3.07,0,5.34,1.98,5.34,5.12
		C109.46,479.06,107.19,481.16,104.12,481.16z M104.12,472.98c-1.66,0-2.79,1.27-2.79,2.99c0,1.77,1.15,3.04,2.79,3.04
		c1.65,0,2.81-1.27,2.81-3.04C106.93,474.25,105.78,472.98,104.12,472.98z"/>
	<path class="st1" d="M116.74,480.9l-2.12-3.88h-0.8v3.88h-2.32v-9.79h3.73c1.88,0,3.75,0.72,3.75,2.96c0,1.31-0.77,2.25-2.03,2.64
		l2.56,4.19H116.74z M115.07,473.02h-1.26v2.28h1.12c0.76,0,1.71-0.19,1.71-1.19C116.65,473.2,115.77,473.02,115.07,473.02z"/>
	<path class="st1" d="M121.15,480.9v-9.79h6.58v2h-4.3v1.84h4.06v1.89h-4.06v2.03h4.55v2.02H121.15z"/>
</g>
</svg>
