<?xml version="1.0" encoding="utf-8"?>
<!-- Generator: Adobe Illustrator 25.2.1, SVG Export Plug-In . SVG Version: 6.00 Build 0)  -->
<svg version="1.1" id="Layer_1" xmlns="http://www.w3.org/2000/svg" xmlns:xlink="http://www.w3.org/1999/xlink" x="0px" y="0px"
	 viewBox="0 0 160 600" style="enable-background:new 0 0 160 600;" xml:space="preserve">
<style type="text/css">
	.st0{fill:#FFFFFF;}
</style>
<g>
	<path class="st0" d="M18.68,508.84h-0.84v-6.01h0.84V508.84z"/>
	<path class="st0" d="M21.99,508.84h-0.87l-1.64-4.02h0.88l1.18,3.17h0.02l1.19-3.17h0.85L21.99,508.84z"/>
	<path class="st0" d="M26.88,506.23c0-0.3-0.09-0.52-0.27-0.67s-0.42-0.22-0.72-0.22c-0.23,0-0.44,0.04-0.64,0.13
		s-0.37,0.2-0.5,0.34l-0.42-0.51c0.2-0.19,0.44-0.33,0.73-0.44c0.29-0.11,0.59-0.16,0.92-0.16c0.29,0,0.54,0.04,0.75,0.12
		c0.21,0.08,0.39,0.19,0.52,0.33s0.24,0.31,0.31,0.5s0.1,0.4,0.1,0.62v1.76c0,0.14,0,0.28,0.01,0.43c0.01,0.15,0.02,0.27,0.05,0.37
		h-0.72c-0.05-0.19-0.07-0.38-0.07-0.58h-0.03c-0.15,0.21-0.33,0.38-0.56,0.5c-0.22,0.12-0.49,0.18-0.79,0.18
		c-0.16,0-0.32-0.02-0.5-0.06c-0.17-0.04-0.33-0.11-0.47-0.21c-0.14-0.1-0.26-0.22-0.35-0.38c-0.09-0.16-0.14-0.35-0.14-0.59
		c0-0.31,0.08-0.55,0.25-0.73c0.16-0.18,0.38-0.31,0.65-0.41c0.27-0.09,0.57-0.15,0.9-0.18s0.67-0.04,1.01-0.04V506.23z
		 M26.69,506.92c-0.2,0-0.4,0.01-0.62,0.03c-0.21,0.02-0.4,0.05-0.58,0.1c-0.17,0.05-0.32,0.13-0.43,0.23
		c-0.11,0.1-0.17,0.24-0.17,0.41c0,0.12,0.02,0.22,0.07,0.3c0.05,0.08,0.11,0.14,0.19,0.2c0.08,0.05,0.17,0.09,0.26,0.11
		c0.1,0.02,0.2,0.03,0.3,0.03c0.37,0,0.66-0.11,0.86-0.33c0.2-0.22,0.3-0.5,0.3-0.84v-0.21H26.69z"/>
	<path class="st0" d="M29.7,504.81c0.01,0.1,0.02,0.22,0.03,0.34c0.01,0.13,0.01,0.23,0.01,0.32h0.03c0.05-0.11,0.12-0.21,0.21-0.3
		c0.09-0.09,0.19-0.17,0.3-0.25c0.11-0.07,0.24-0.13,0.37-0.17c0.14-0.04,0.28-0.06,0.42-0.06c0.26,0,0.48,0.04,0.67,0.13
		c0.19,0.09,0.34,0.21,0.47,0.35c0.12,0.15,0.22,0.32,0.28,0.52c0.06,0.2,0.09,0.41,0.09,0.64v2.5h-0.8v-2.23
		c0-0.16-0.01-0.32-0.04-0.47c-0.03-0.15-0.07-0.28-0.14-0.39s-0.16-0.2-0.28-0.27c-0.12-0.07-0.27-0.1-0.46-0.1
		c-0.32,0-0.58,0.12-0.78,0.36c-0.2,0.24-0.3,0.56-0.3,0.96v2.14h-0.8v-3.16c0-0.11,0-0.25-0.01-0.42
		c-0.01-0.17-0.01-0.32-0.03-0.45H29.7z"/>
	<path class="st0" d="M36.34,504.81l0.91,3.07h0.02l0.96-3.07h0.84l0.98,3.07h0.02l0.91-3.07h0.84l-1.33,4.02h-0.83l-0.99-3.02
		h-0.02l-0.98,3.02h-0.83l-1.34-4.02H36.34z"/>
	<path class="st0" d="M45.11,506.23c0-0.3-0.09-0.52-0.27-0.67s-0.42-0.22-0.72-0.22c-0.23,0-0.44,0.04-0.64,0.13
		s-0.37,0.2-0.5,0.34l-0.42-0.51c0.2-0.19,0.44-0.33,0.73-0.44c0.29-0.11,0.59-0.16,0.92-0.16c0.29,0,0.54,0.04,0.75,0.12
		c0.21,0.08,0.39,0.19,0.52,0.33s0.24,0.31,0.31,0.5s0.1,0.4,0.1,0.62v1.76c0,0.14,0,0.28,0.01,0.43c0.01,0.15,0.02,0.27,0.05,0.37
		h-0.72c-0.05-0.19-0.07-0.38-0.07-0.58h-0.03c-0.15,0.21-0.33,0.38-0.56,0.5c-0.22,0.12-0.49,0.18-0.79,0.18
		c-0.16,0-0.32-0.02-0.5-0.06c-0.17-0.04-0.33-0.11-0.47-0.21c-0.14-0.1-0.26-0.22-0.35-0.38c-0.09-0.16-0.14-0.35-0.14-0.59
		c0-0.31,0.08-0.55,0.25-0.73c0.16-0.18,0.38-0.31,0.65-0.41c0.27-0.09,0.57-0.15,0.9-0.18s0.67-0.04,1.01-0.04V506.23z
		 M44.91,506.92c-0.2,0-0.4,0.01-0.62,0.03c-0.21,0.02-0.4,0.05-0.58,0.1c-0.17,0.05-0.32,0.13-0.43,0.23
		c-0.11,0.1-0.17,0.24-0.17,0.41c0,0.12,0.02,0.22,0.07,0.3c0.05,0.08,0.11,0.14,0.19,0.2c0.08,0.05,0.17,0.09,0.26,0.11
		c0.1,0.02,0.2,0.03,0.3,0.03c0.37,0,0.66-0.11,0.86-0.33c0.2-0.22,0.3-0.5,0.3-0.84v-0.21H44.91z"/>
	<path class="st0" d="M49.38,505.83c-0.09-0.15-0.22-0.27-0.38-0.36c-0.16-0.09-0.35-0.14-0.55-0.14c-0.09,0-0.18,0.01-0.27,0.03
		c-0.09,0.02-0.17,0.05-0.24,0.09c-0.07,0.04-0.13,0.1-0.17,0.16c-0.04,0.07-0.06,0.15-0.06,0.24c0,0.17,0.08,0.3,0.23,0.38
		s0.38,0.16,0.69,0.22c0.19,0.05,0.37,0.1,0.53,0.16c0.16,0.06,0.31,0.14,0.43,0.23c0.12,0.09,0.22,0.21,0.28,0.34
		c0.07,0.13,0.1,0.28,0.1,0.46c0,0.24-0.05,0.44-0.14,0.6c-0.09,0.16-0.21,0.3-0.36,0.4s-0.32,0.18-0.51,0.22
		c-0.19,0.05-0.39,0.07-0.59,0.07c-0.31,0-0.6-0.06-0.9-0.18c-0.29-0.12-0.53-0.3-0.73-0.54l0.57-0.48c0.11,0.16,0.26,0.29,0.45,0.4
		c0.19,0.11,0.4,0.16,0.62,0.16c0.1,0,0.2-0.01,0.29-0.03s0.18-0.05,0.25-0.1c0.08-0.04,0.14-0.1,0.18-0.18
		c0.05-0.07,0.07-0.17,0.07-0.28c0-0.19-0.09-0.33-0.27-0.42c-0.18-0.09-0.44-0.18-0.79-0.25c-0.14-0.03-0.27-0.08-0.41-0.12
		c-0.14-0.05-0.26-0.11-0.38-0.2s-0.21-0.19-0.28-0.32c-0.07-0.13-0.11-0.29-0.11-0.47c0-0.21,0.04-0.4,0.13-0.56
		s0.2-0.28,0.34-0.38c0.14-0.1,0.3-0.17,0.48-0.22s0.37-0.07,0.56-0.07c0.29,0,0.57,0.06,0.84,0.17c0.27,0.11,0.48,0.28,0.62,0.49
		L49.38,505.83z"/>
	<path class="st0" d="M55.06,505.47h-1.07v2.09c0,0.24,0.05,0.42,0.14,0.52c0.09,0.1,0.23,0.16,0.43,0.16
		c0.07,0,0.15-0.01,0.24-0.02c0.08-0.02,0.16-0.04,0.23-0.07l0.03,0.65c-0.1,0.03-0.2,0.06-0.32,0.08
		c-0.12,0.02-0.24,0.03-0.36,0.03c-0.38,0-0.67-0.11-0.87-0.31c-0.2-0.21-0.3-0.52-0.3-0.94v-2.18h-0.77v-0.65h0.77v-1.15h0.79v1.15
		h1.07V505.47z"/>
	<path class="st0" d="M55.88,505.26c-0.01-0.17-0.01-0.32-0.03-0.45h0.76c0.01,0.1,0.02,0.22,0.03,0.35
		c0.01,0.13,0.01,0.24,0.01,0.33h0.03c0.11-0.24,0.28-0.43,0.5-0.57c0.22-0.14,0.46-0.22,0.73-0.22c0.12,0,0.23,0.01,0.31,0.03
		l-0.03,0.74c-0.11-0.03-0.23-0.04-0.37-0.04c-0.19,0-0.36,0.04-0.5,0.11c-0.14,0.07-0.26,0.17-0.35,0.28
		c-0.09,0.12-0.16,0.26-0.21,0.41s-0.07,0.32-0.07,0.49v2.11h-0.8v-3.16C55.88,505.57,55.88,505.43,55.88,505.26z"/>
	<path class="st0" d="M62.56,506.79c0,0.05,0,0.09,0,0.14c0,0.05,0,0.09-0.01,0.14h-3.2c0.01,0.17,0.04,0.33,0.11,0.48
		c0.07,0.15,0.17,0.28,0.28,0.39c0.12,0.11,0.26,0.2,0.41,0.26c0.16,0.06,0.32,0.09,0.5,0.09c0.27,0,0.51-0.06,0.7-0.18
		c0.2-0.12,0.35-0.26,0.47-0.43l0.56,0.45c-0.22,0.29-0.47,0.5-0.76,0.63s-0.62,0.2-0.97,0.2c-0.31,0-0.59-0.05-0.85-0.15
		c-0.26-0.1-0.48-0.25-0.67-0.43c-0.19-0.18-0.33-0.41-0.44-0.67c-0.11-0.26-0.16-0.55-0.16-0.87c0-0.31,0.05-0.6,0.16-0.86
		c0.1-0.26,0.25-0.49,0.44-0.67c0.19-0.19,0.41-0.33,0.66-0.44c0.25-0.1,0.53-0.16,0.82-0.16s0.56,0.05,0.8,0.14
		c0.24,0.1,0.44,0.23,0.61,0.42c0.17,0.18,0.3,0.4,0.39,0.66C62.52,506.18,62.56,506.47,62.56,506.79z M61.75,506.47
		c-0.01-0.16-0.03-0.31-0.08-0.45c-0.05-0.14-0.12-0.26-0.21-0.36s-0.21-0.18-0.35-0.24c-0.14-0.06-0.3-0.09-0.49-0.09
		c-0.17,0-0.33,0.03-0.48,0.09c-0.15,0.06-0.28,0.14-0.39,0.24s-0.2,0.22-0.27,0.36s-0.11,0.29-0.12,0.45H61.75z"/>
	<path class="st0" d="M66.12,506.23c0-0.3-0.09-0.52-0.27-0.67s-0.42-0.22-0.72-0.22c-0.23,0-0.44,0.04-0.64,0.13
		s-0.37,0.2-0.5,0.34l-0.42-0.51c0.2-0.19,0.44-0.33,0.73-0.44c0.29-0.11,0.59-0.16,0.92-0.16c0.29,0,0.54,0.04,0.75,0.12
		c0.21,0.08,0.39,0.19,0.52,0.33s0.24,0.31,0.31,0.5s0.1,0.4,0.1,0.62v1.76c0,0.14,0,0.28,0.01,0.43c0.01,0.15,0.02,0.27,0.05,0.37
		h-0.72c-0.05-0.19-0.07-0.38-0.07-0.58h-0.03c-0.15,0.21-0.33,0.38-0.56,0.5c-0.22,0.12-0.49,0.18-0.79,0.18
		c-0.16,0-0.32-0.02-0.5-0.06c-0.17-0.04-0.33-0.11-0.47-0.21c-0.14-0.1-0.26-0.22-0.35-0.38c-0.09-0.16-0.14-0.35-0.14-0.59
		c0-0.31,0.08-0.55,0.25-0.73c0.16-0.18,0.38-0.31,0.65-0.41c0.27-0.09,0.57-0.15,0.9-0.18s0.67-0.04,1.01-0.04V506.23z
		 M65.93,506.92c-0.2,0-0.4,0.01-0.62,0.03c-0.21,0.02-0.4,0.05-0.58,0.1c-0.17,0.05-0.32,0.13-0.43,0.23
		c-0.11,0.1-0.17,0.24-0.17,0.41c0,0.12,0.02,0.22,0.07,0.3c0.05,0.08,0.11,0.14,0.19,0.2c0.08,0.05,0.17,0.09,0.26,0.11
		c0.1,0.02,0.2,0.03,0.3,0.03c0.37,0,0.66-0.11,0.86-0.33c0.2-0.22,0.3-0.5,0.3-0.84v-0.21H65.93z"/>
	<path class="st0" d="M70.1,505.47h-1.07v2.09c0,0.24,0.05,0.42,0.14,0.52c0.09,0.1,0.23,0.16,0.43,0.16c0.07,0,0.15-0.01,0.24-0.02
		c0.08-0.02,0.16-0.04,0.23-0.07l0.03,0.65c-0.1,0.03-0.2,0.06-0.32,0.08c-0.12,0.02-0.24,0.03-0.36,0.03
		c-0.38,0-0.67-0.11-0.87-0.31c-0.2-0.21-0.3-0.52-0.3-0.94v-2.18h-0.77v-0.65h0.77v-1.15h0.79v1.15h1.07V505.47z"/>
	<path class="st0" d="M74.69,506.79c0,0.05,0,0.09,0,0.14c0,0.05,0,0.09-0.01,0.14h-3.2c0.01,0.17,0.04,0.33,0.11,0.48
		c0.07,0.15,0.17,0.28,0.28,0.39c0.12,0.11,0.26,0.2,0.41,0.26c0.16,0.06,0.32,0.09,0.5,0.09c0.27,0,0.51-0.06,0.7-0.18
		c0.2-0.12,0.35-0.26,0.47-0.43l0.56,0.45c-0.22,0.29-0.47,0.5-0.76,0.63s-0.62,0.2-0.97,0.2c-0.31,0-0.59-0.05-0.85-0.15
		c-0.26-0.1-0.48-0.25-0.67-0.43c-0.19-0.18-0.33-0.41-0.44-0.67c-0.11-0.26-0.16-0.55-0.16-0.87c0-0.31,0.05-0.6,0.16-0.86
		c0.1-0.26,0.25-0.49,0.44-0.67c0.19-0.19,0.41-0.33,0.66-0.44c0.25-0.1,0.53-0.16,0.82-0.16s0.56,0.05,0.8,0.14
		c0.24,0.1,0.44,0.23,0.61,0.42c0.17,0.18,0.3,0.4,0.39,0.66C74.64,506.18,74.69,506.47,74.69,506.79z M73.87,506.47
		c-0.01-0.16-0.03-0.31-0.08-0.45c-0.05-0.14-0.12-0.26-0.21-0.36s-0.21-0.18-0.35-0.24c-0.14-0.06-0.3-0.09-0.49-0.09
		c-0.17,0-0.33,0.03-0.48,0.09c-0.15,0.06-0.28,0.14-0.39,0.24s-0.2,0.22-0.27,0.36s-0.11,0.29-0.12,0.45H73.87z"/>
	<path class="st0" d="M79,508.2c-0.15,0.24-0.36,0.43-0.62,0.56c-0.26,0.13-0.54,0.19-0.83,0.19c-0.31,0-0.59-0.06-0.84-0.17
		c-0.25-0.11-0.46-0.26-0.64-0.46c-0.18-0.19-0.31-0.42-0.41-0.68c-0.1-0.26-0.14-0.54-0.14-0.83c0-0.29,0.05-0.57,0.14-0.83
		s0.23-0.48,0.41-0.67c0.18-0.19,0.39-0.34,0.64-0.45s0.52-0.16,0.82-0.16c0.33,0,0.61,0.07,0.86,0.21s0.44,0.31,0.58,0.5h0.02v-3
		h0.8v6.42h-0.77v-0.64H79z M76.35,506.82c0,0.19,0.03,0.37,0.08,0.54s0.14,0.33,0.25,0.47s0.25,0.24,0.42,0.33
		c0.16,0.08,0.36,0.12,0.58,0.12c0.2,0,0.39-0.04,0.56-0.12c0.17-0.08,0.31-0.18,0.43-0.32c0.12-0.13,0.21-0.29,0.28-0.46
		c0.07-0.17,0.1-0.36,0.1-0.55c0-0.19-0.03-0.38-0.1-0.55c-0.06-0.17-0.16-0.33-0.28-0.47c-0.12-0.13-0.26-0.24-0.43-0.32
		c-0.17-0.08-0.35-0.12-0.56-0.12c-0.22,0-0.41,0.04-0.58,0.12c-0.16,0.08-0.3,0.19-0.42,0.32c-0.11,0.14-0.2,0.29-0.25,0.47
		S76.35,506.63,76.35,506.82z"/>
	<path class="st0" d="M83.6,504.81l0.91,3.07h0.02l0.96-3.07h0.84l0.98,3.07h0.02l0.91-3.07h0.84l-1.33,4.02H86.9l-0.99-3.02h-0.02
		l-0.98,3.02h-0.83l-1.34-4.02H83.6z"/>
	<path class="st0" d="M90.8,503.36c0,0.15-0.05,0.27-0.16,0.37c-0.1,0.1-0.23,0.14-0.38,0.14s-0.27-0.05-0.37-0.15
		c-0.1-0.1-0.15-0.22-0.15-0.36c0-0.15,0.05-0.27,0.15-0.37c0.1-0.1,0.22-0.15,0.37-0.15s0.27,0.05,0.38,0.15
		C90.75,503.09,90.8,503.21,90.8,503.36z M90.67,508.84h-0.8v-4.02h0.8V508.84z"/>
	<path class="st0" d="M94.03,505.47h-1.07v2.09c0,0.24,0.05,0.42,0.14,0.52c0.09,0.1,0.23,0.16,0.43,0.16
		c0.07,0,0.15-0.01,0.24-0.02s0.16-0.04,0.23-0.07l0.03,0.65c-0.1,0.03-0.2,0.06-0.32,0.08s-0.24,0.03-0.36,0.03
		c-0.38,0-0.67-0.11-0.87-0.31c-0.2-0.21-0.3-0.52-0.3-0.94v-2.18H91.4v-0.65h0.77v-1.15h0.79v1.15h1.07V505.47z"/>
	<path class="st0" d="M95.69,505.42c0.1-0.2,0.26-0.37,0.49-0.51s0.49-0.21,0.78-0.21c0.26,0,0.48,0.04,0.67,0.13
		c0.19,0.09,0.34,0.21,0.47,0.35c0.12,0.15,0.22,0.32,0.28,0.52c0.06,0.2,0.09,0.41,0.09,0.64v2.5h-0.8v-2.23
		c0-0.16-0.01-0.32-0.04-0.47s-0.07-0.28-0.14-0.39c-0.07-0.11-0.16-0.2-0.28-0.27s-0.27-0.1-0.45-0.1c-0.32,0-0.58,0.12-0.78,0.36
		c-0.2,0.24-0.3,0.56-0.3,0.97v2.14h-0.8v-6.42h0.8v3H95.69z"/>
	<path class="st0" d="M107.13,507.9c-0.24,0.32-0.55,0.58-0.93,0.79s-0.83,0.3-1.37,0.3c-0.46,0-0.88-0.08-1.27-0.23
		c-0.39-0.16-0.72-0.37-1-0.65c-0.28-0.28-0.5-0.61-0.66-1c-0.16-0.39-0.24-0.81-0.24-1.28c0-0.47,0.08-0.9,0.24-1.29
		c0.16-0.39,0.38-0.72,0.67-0.99c0.29-0.27,0.62-0.49,1.01-0.64c0.39-0.15,0.81-0.23,1.27-0.23c0.2,0,0.41,0.02,0.62,0.06
		c0.21,0.04,0.41,0.1,0.6,0.18s0.37,0.18,0.53,0.29s0.29,0.25,0.41,0.4l-0.66,0.51c-0.15-0.2-0.35-0.37-0.62-0.5
		c-0.27-0.13-0.56-0.2-0.87-0.2c-0.35,0-0.67,0.06-0.95,0.19c-0.28,0.13-0.52,0.3-0.72,0.52s-0.35,0.48-0.46,0.77
		c-0.11,0.29-0.16,0.6-0.16,0.93c0,0.34,0.05,0.66,0.16,0.95s0.25,0.55,0.45,0.77c0.2,0.22,0.43,0.39,0.71,0.51
		c0.28,0.12,0.59,0.19,0.94,0.19c0.34,0,0.65-0.07,0.92-0.2s0.51-0.33,0.69-0.59L107.13,507.9z"/>
	<path class="st0" d="M111.92,506.82c0,0.31-0.05,0.6-0.17,0.86c-0.11,0.26-0.26,0.49-0.46,0.67c-0.19,0.19-0.43,0.34-0.69,0.44
		s-0.55,0.16-0.86,0.16s-0.59-0.05-0.86-0.16c-0.27-0.1-0.5-0.25-0.69-0.44s-0.34-0.41-0.45-0.67c-0.11-0.26-0.17-0.55-0.17-0.86
		c0-0.31,0.05-0.6,0.17-0.85c0.11-0.26,0.26-0.48,0.45-0.67c0.19-0.19,0.42-0.33,0.69-0.44c0.27-0.1,0.55-0.16,0.86-0.16
		s0.59,0.05,0.86,0.16s0.5,0.25,0.69,0.44c0.2,0.19,0.35,0.41,0.46,0.67C111.86,506.22,111.92,506.5,111.92,506.82z M111.08,506.82
		c0-0.19-0.03-0.38-0.09-0.55s-0.15-0.33-0.26-0.46s-0.25-0.24-0.42-0.32c-0.17-0.08-0.36-0.12-0.57-0.12s-0.41,0.04-0.58,0.12
		c-0.17,0.08-0.31,0.18-0.42,0.32c-0.11,0.13-0.2,0.29-0.26,0.46c-0.06,0.17-0.09,0.36-0.09,0.55c0,0.19,0.03,0.38,0.09,0.55
		c0.06,0.17,0.15,0.33,0.26,0.47c0.11,0.13,0.25,0.24,0.42,0.32c0.17,0.08,0.36,0.12,0.58,0.12s0.41-0.04,0.57-0.12
		c0.17-0.08,0.31-0.19,0.42-0.32c0.11-0.14,0.2-0.29,0.26-0.47S111.08,507.01,111.08,506.82z"/>
	<path class="st0" d="M117.09,506.82c0,0.31-0.05,0.6-0.17,0.86c-0.11,0.26-0.26,0.49-0.46,0.67c-0.19,0.19-0.43,0.34-0.69,0.44
		s-0.55,0.16-0.86,0.16s-0.59-0.05-0.86-0.16c-0.27-0.1-0.5-0.25-0.69-0.44s-0.34-0.41-0.45-0.67c-0.11-0.26-0.17-0.55-0.17-0.86
		c0-0.31,0.05-0.6,0.17-0.85c0.11-0.26,0.26-0.48,0.45-0.67c0.19-0.19,0.42-0.33,0.69-0.44c0.27-0.1,0.55-0.16,0.86-0.16
		s0.59,0.05,0.86,0.16s0.5,0.25,0.69,0.44c0.2,0.19,0.35,0.41,0.46,0.67C117.04,506.22,117.09,506.5,117.09,506.82z M116.26,506.82
		c0-0.19-0.03-0.38-0.09-0.55s-0.15-0.33-0.26-0.46s-0.25-0.24-0.42-0.32c-0.17-0.08-0.36-0.12-0.57-0.12s-0.41,0.04-0.58,0.12
		c-0.17,0.08-0.31,0.18-0.42,0.32c-0.11,0.13-0.2,0.29-0.26,0.46c-0.06,0.17-0.09,0.36-0.09,0.55c0,0.19,0.03,0.38,0.09,0.55
		c0.06,0.17,0.15,0.33,0.26,0.47c0.11,0.13,0.25,0.24,0.42,0.32c0.17,0.08,0.36,0.12,0.58,0.12s0.41-0.04,0.57-0.12
		c0.17-0.08,0.31-0.19,0.42-0.32c0.11-0.14,0.2-0.29,0.26-0.47S116.26,507.01,116.26,506.82z"/>
	<path class="st0" d="M119.01,508.84h-0.8v-6.42h0.8V508.84z"/>
	<path class="st0" d="M122.55,508.84h-0.84v-5.27h-1.93v-0.74h4.69v0.74h-1.93V508.84z"/>
	<path class="st0" d="M128.49,506.82c0,0.31-0.05,0.6-0.17,0.86c-0.11,0.26-0.26,0.49-0.46,0.67c-0.19,0.19-0.43,0.34-0.69,0.44
		s-0.55,0.16-0.86,0.16s-0.59-0.05-0.86-0.16c-0.27-0.1-0.5-0.25-0.69-0.44s-0.34-0.41-0.45-0.67c-0.11-0.26-0.17-0.55-0.17-0.86
		c0-0.31,0.05-0.6,0.17-0.85c0.11-0.26,0.26-0.48,0.45-0.67c0.19-0.19,0.42-0.33,0.69-0.44c0.27-0.1,0.55-0.16,0.86-0.16
		s0.59,0.05,0.86,0.16s0.5,0.25,0.69,0.44c0.2,0.19,0.35,0.41,0.46,0.67C128.44,506.22,128.49,506.5,128.49,506.82z M127.66,506.82
		c0-0.19-0.03-0.38-0.09-0.55s-0.15-0.33-0.26-0.46s-0.25-0.24-0.42-0.32c-0.17-0.08-0.36-0.12-0.57-0.12s-0.41,0.04-0.58,0.12
		c-0.17,0.08-0.31,0.18-0.42,0.32c-0.11,0.13-0.2,0.29-0.26,0.46c-0.06,0.17-0.09,0.36-0.09,0.55c0,0.19,0.03,0.38,0.09,0.55
		c0.06,0.17,0.15,0.33,0.26,0.47c0.11,0.13,0.25,0.24,0.42,0.32c0.17,0.08,0.36,0.12,0.58,0.12s0.41-0.04,0.57-0.12
		c0.17-0.08,0.31-0.19,0.42-0.32c0.11-0.14,0.2-0.29,0.26-0.47S127.66,507.01,127.66,506.82z"/>
	<path class="st0" d="M130.32,504.81c0.01,0.1,0.02,0.22,0.03,0.34s0.01,0.23,0.01,0.32h0.03c0.05-0.11,0.12-0.21,0.21-0.3
		c0.09-0.09,0.19-0.17,0.3-0.25c0.11-0.07,0.24-0.13,0.37-0.17c0.14-0.04,0.28-0.06,0.42-0.06c0.26,0,0.48,0.04,0.67,0.13
		s0.34,0.21,0.47,0.35c0.12,0.15,0.22,0.32,0.28,0.52c0.06,0.2,0.09,0.41,0.09,0.64v2.5h-0.8v-2.23c0-0.16-0.01-0.32-0.04-0.47
		s-0.07-0.28-0.14-0.39c-0.07-0.11-0.16-0.2-0.28-0.27c-0.12-0.07-0.27-0.1-0.46-0.1c-0.32,0-0.58,0.12-0.78,0.36
		c-0.2,0.24-0.3,0.56-0.3,0.96v2.14h-0.8v-3.16c0-0.11,0-0.25-0.01-0.42c0-0.17-0.01-0.32-0.03-0.45H130.32z"/>
	<path class="st0" d="M138.3,506.79c0,0.05,0,0.09,0,0.14c0,0.05,0,0.09-0.01,0.14h-3.2c0.01,0.17,0.04,0.33,0.11,0.48
		c0.07,0.15,0.17,0.28,0.29,0.39c0.12,0.11,0.26,0.2,0.41,0.26c0.16,0.06,0.32,0.09,0.5,0.09c0.27,0,0.51-0.06,0.7-0.18
		c0.2-0.12,0.35-0.26,0.47-0.43l0.56,0.45c-0.21,0.29-0.47,0.5-0.76,0.63c-0.29,0.13-0.62,0.2-0.97,0.2c-0.31,0-0.59-0.05-0.85-0.15
		c-0.26-0.1-0.48-0.25-0.67-0.43c-0.19-0.18-0.33-0.41-0.44-0.67c-0.11-0.26-0.16-0.55-0.16-0.87c0-0.31,0.05-0.6,0.16-0.86
		c0.1-0.26,0.25-0.49,0.44-0.67c0.19-0.19,0.41-0.33,0.66-0.44c0.25-0.1,0.53-0.16,0.83-0.16s0.56,0.05,0.8,0.14
		c0.24,0.1,0.45,0.23,0.61,0.42c0.17,0.18,0.3,0.4,0.39,0.66C138.25,506.18,138.3,506.47,138.3,506.79z M137.48,506.47
		c-0.01-0.16-0.03-0.31-0.08-0.45c-0.05-0.14-0.12-0.26-0.21-0.36c-0.09-0.1-0.21-0.18-0.35-0.24c-0.14-0.06-0.3-0.09-0.49-0.09
		c-0.17,0-0.33,0.03-0.48,0.09c-0.15,0.06-0.28,0.14-0.39,0.24s-0.2,0.22-0.27,0.36s-0.11,0.29-0.12,0.45H137.48z"/>
	<path class="st0" d="M139.33,504.65c0-0.27,0.05-0.52,0.15-0.75c0.1-0.23,0.24-0.44,0.42-0.61c0.18-0.17,0.38-0.31,0.62-0.41
		c0.24-0.1,0.49-0.15,0.75-0.15c0.27,0,0.52,0.05,0.75,0.15c0.23,0.1,0.44,0.24,0.62,0.41c0.18,0.17,0.31,0.38,0.42,0.61
		c0.1,0.24,0.15,0.49,0.15,0.75c0,0.27-0.05,0.51-0.15,0.75c-0.1,0.23-0.24,0.43-0.42,0.61s-0.38,0.31-0.62,0.41
		c-0.24,0.1-0.49,0.15-0.75,0.15c-0.27,0-0.52-0.05-0.75-0.15c-0.23-0.1-0.44-0.23-0.62-0.41c-0.17-0.17-0.31-0.38-0.42-0.61
		C139.38,505.17,139.33,504.92,139.33,504.65z M139.63,504.65c0,0.22,0.04,0.43,0.13,0.63s0.2,0.37,0.35,0.52
		c0.15,0.15,0.32,0.27,0.52,0.35s0.41,0.13,0.64,0.13c0.23,0,0.44-0.04,0.64-0.13c0.2-0.08,0.37-0.2,0.52-0.35
		c0.15-0.15,0.26-0.32,0.35-0.52s0.13-0.41,0.13-0.63c0-0.23-0.04-0.44-0.13-0.64s-0.2-0.37-0.35-0.52
		c-0.15-0.15-0.32-0.26-0.52-0.35c-0.2-0.08-0.41-0.13-0.64-0.13c-0.23,0-0.44,0.04-0.64,0.13s-0.37,0.2-0.52,0.35
		c-0.15,0.15-0.26,0.32-0.35,0.52S139.63,504.42,139.63,504.65z M141.73,505.71l-0.47-0.84h-0.31v0.84h-0.52v-2.17h0.93
		c0.1,0,0.2,0.01,0.3,0.03c0.1,0.02,0.18,0.06,0.26,0.11s0.14,0.12,0.19,0.21s0.07,0.2,0.07,0.33c0,0.15-0.04,0.27-0.12,0.37
		c-0.08,0.1-0.19,0.17-0.31,0.21l0.58,0.92H141.73z M141.35,504.5c0.08,0,0.15-0.03,0.22-0.08c0.06-0.05,0.1-0.12,0.1-0.2
		c0-0.09-0.04-0.16-0.11-0.2c-0.07-0.04-0.14-0.06-0.2-0.06h-0.4v0.53H141.35z"/>
	<path class="st0" d="M18.6,516.8c0,0.31-0.06,0.6-0.17,0.86c-0.11,0.26-0.26,0.49-0.46,0.67s-0.43,0.34-0.69,0.44
		s-0.55,0.16-0.86,0.16s-0.59-0.05-0.86-0.16c-0.27-0.1-0.5-0.25-0.69-0.44s-0.34-0.41-0.45-0.67c-0.11-0.26-0.17-0.55-0.17-0.86
		c0-0.31,0.06-0.6,0.17-0.85c0.11-0.26,0.26-0.48,0.45-0.67c0.19-0.19,0.42-0.33,0.69-0.44c0.27-0.1,0.55-0.16,0.86-0.16
		s0.59,0.05,0.86,0.16s0.5,0.25,0.69,0.44c0.2,0.19,0.35,0.41,0.46,0.67C18.55,516.21,18.6,516.49,18.6,516.8z M17.77,516.81
		c0-0.19-0.03-0.38-0.09-0.55s-0.15-0.33-0.26-0.46c-0.11-0.13-0.25-0.24-0.42-0.32s-0.36-0.12-0.57-0.12
		c-0.22,0-0.41,0.04-0.58,0.12s-0.31,0.18-0.42,0.32c-0.11,0.13-0.2,0.29-0.26,0.46s-0.09,0.36-0.09,0.55
		c0,0.19,0.03,0.38,0.09,0.55s0.15,0.33,0.26,0.47c0.11,0.13,0.25,0.24,0.42,0.32s0.36,0.12,0.58,0.12c0.22,0,0.41-0.04,0.57-0.12
		s0.31-0.19,0.42-0.32c0.11-0.14,0.2-0.29,0.26-0.47S17.77,517,17.77,516.81z"/>
	<path class="st0" d="M20.43,514.8c0.01,0.1,0.02,0.22,0.03,0.34c0.01,0.13,0.01,0.23,0.01,0.32h0.03c0.05-0.11,0.12-0.21,0.21-0.3
		c0.09-0.09,0.19-0.17,0.3-0.25c0.11-0.07,0.24-0.13,0.37-0.17c0.14-0.04,0.28-0.06,0.42-0.06c0.26,0,0.48,0.04,0.67,0.13
		c0.19,0.09,0.34,0.21,0.47,0.35c0.12,0.15,0.22,0.32,0.28,0.52c0.06,0.2,0.09,0.41,0.09,0.64v2.5h-0.8v-2.23
		c0-0.16-0.01-0.32-0.04-0.47c-0.03-0.15-0.07-0.28-0.14-0.39s-0.16-0.2-0.28-0.27c-0.12-0.07-0.27-0.1-0.46-0.1
		c-0.32,0-0.58,0.12-0.78,0.36c-0.2,0.24-0.3,0.56-0.3,0.96v2.14h-0.8v-3.16c0-0.11,0-0.25-0.01-0.42
		c-0.01-0.17-0.01-0.32-0.03-0.45H20.43z"/>
	<path class="st0" d="M27.6,515.41c0.1-0.2,0.26-0.37,0.49-0.51s0.49-0.21,0.78-0.21c0.26,0,0.48,0.04,0.67,0.13
		c0.19,0.09,0.34,0.21,0.47,0.35c0.12,0.15,0.22,0.32,0.28,0.52c0.06,0.2,0.09,0.41,0.09,0.64v2.5h-0.8v-2.23
		c0-0.16-0.01-0.32-0.04-0.47s-0.07-0.28-0.14-0.39s-0.16-0.2-0.28-0.27c-0.12-0.07-0.27-0.1-0.45-0.1c-0.32,0-0.58,0.12-0.78,0.36
		s-0.31,0.56-0.31,0.97v2.14h-0.8v-6.42h0.8v3H27.6z"/>
	<path class="st0" d="M32.66,513.35c0,0.15-0.05,0.27-0.16,0.37c-0.1,0.1-0.23,0.14-0.37,0.14s-0.27-0.05-0.37-0.15
		s-0.15-0.22-0.15-0.36c0-0.15,0.05-0.27,0.15-0.37c0.1-0.1,0.22-0.15,0.37-0.15s0.27,0.05,0.37,0.15
		C32.61,513.08,32.66,513.2,32.66,513.35z M32.53,518.82h-0.8v-4.02h0.8V518.82z"/>
	<path class="st0" d="M36.1,515.82c-0.09-0.15-0.22-0.27-0.38-0.36c-0.16-0.09-0.35-0.14-0.55-0.14c-0.09,0-0.18,0.01-0.27,0.03
		c-0.09,0.02-0.17,0.05-0.24,0.09c-0.07,0.04-0.13,0.1-0.17,0.16c-0.04,0.07-0.06,0.15-0.06,0.24c0,0.17,0.08,0.3,0.23,0.38
		s0.38,0.16,0.69,0.22c0.19,0.05,0.37,0.1,0.53,0.16c0.16,0.06,0.31,0.14,0.43,0.23c0.12,0.09,0.22,0.21,0.28,0.34
		c0.07,0.13,0.1,0.28,0.1,0.46c0,0.24-0.05,0.44-0.14,0.6c-0.09,0.16-0.21,0.3-0.36,0.4s-0.32,0.18-0.51,0.22
		c-0.19,0.05-0.39,0.07-0.59,0.07c-0.31,0-0.6-0.06-0.9-0.18c-0.29-0.12-0.53-0.3-0.73-0.54l0.57-0.48c0.11,0.16,0.26,0.29,0.45,0.4
		c0.19,0.11,0.4,0.16,0.62,0.16c0.1,0,0.2-0.01,0.29-0.03s0.18-0.05,0.25-0.1c0.08-0.04,0.14-0.1,0.18-0.18
		c0.05-0.07,0.07-0.17,0.07-0.28c0-0.19-0.09-0.33-0.27-0.42c-0.18-0.09-0.44-0.18-0.79-0.25c-0.14-0.03-0.27-0.08-0.41-0.12
		c-0.14-0.05-0.26-0.11-0.38-0.2s-0.21-0.19-0.28-0.32c-0.07-0.13-0.11-0.29-0.11-0.47c0-0.21,0.04-0.4,0.13-0.56
		s0.2-0.28,0.34-0.38c0.14-0.1,0.3-0.17,0.48-0.22s0.37-0.07,0.56-0.07c0.29,0,0.57,0.06,0.84,0.17c0.27,0.11,0.48,0.28,0.62,0.49
		L36.1,515.82z"/>
	<path class="st0" d="M42.32,516.22c0-0.3-0.09-0.52-0.27-0.67s-0.42-0.22-0.72-0.22c-0.23,0-0.44,0.04-0.64,0.13
		s-0.37,0.2-0.5,0.34l-0.42-0.51c0.2-0.19,0.44-0.33,0.73-0.44c0.29-0.11,0.59-0.16,0.92-0.16c0.29,0,0.54,0.04,0.75,0.12
		c0.21,0.08,0.39,0.19,0.52,0.33s0.24,0.31,0.31,0.5s0.1,0.4,0.1,0.62v1.76c0,0.14,0,0.28,0.01,0.43c0.01,0.15,0.02,0.27,0.05,0.37
		h-0.72c-0.05-0.19-0.07-0.38-0.07-0.58h-0.03c-0.15,0.21-0.33,0.38-0.56,0.5c-0.22,0.12-0.49,0.18-0.79,0.18
		c-0.16,0-0.32-0.02-0.5-0.06c-0.17-0.04-0.33-0.11-0.47-0.21c-0.14-0.1-0.26-0.22-0.35-0.38c-0.09-0.16-0.14-0.35-0.14-0.59
		c0-0.31,0.08-0.55,0.25-0.73c0.16-0.18,0.38-0.31,0.65-0.41c0.27-0.09,0.57-0.15,0.9-0.18s0.67-0.04,1.01-0.04V516.22z
		 M42.12,516.91c-0.2,0-0.4,0.01-0.62,0.03c-0.21,0.02-0.4,0.05-0.58,0.1c-0.17,0.05-0.32,0.13-0.43,0.23
		c-0.11,0.1-0.17,0.24-0.17,0.41c0,0.12,0.02,0.22,0.07,0.3c0.05,0.08,0.11,0.14,0.19,0.2c0.08,0.05,0.17,0.09,0.26,0.11
		c0.1,0.02,0.2,0.03,0.3,0.03c0.37,0,0.66-0.11,0.86-0.33c0.2-0.22,0.3-0.5,0.3-0.84v-0.21H42.12z"/>
	<path class="st0" d="M45.2,518.19v0.64h-0.77v-6.42h0.8v3h0.03c0.14-0.2,0.32-0.37,0.57-0.5s0.53-0.21,0.86-0.21
		c0.3,0,0.57,0.05,0.82,0.16s0.46,0.26,0.64,0.45s0.31,0.42,0.41,0.67s0.14,0.53,0.14,0.83c0,0.29-0.05,0.57-0.14,0.83
		c-0.1,0.26-0.23,0.49-0.41,0.68c-0.18,0.19-0.39,0.34-0.64,0.46c-0.25,0.11-0.53,0.17-0.84,0.17c-0.29,0-0.56-0.06-0.82-0.19
		c-0.26-0.13-0.47-0.31-0.63-0.56H45.2z M47.88,516.81c0-0.19-0.03-0.37-0.08-0.54s-0.14-0.33-0.25-0.47
		c-0.11-0.13-0.25-0.24-0.42-0.32s-0.36-0.12-0.58-0.12c-0.2,0-0.39,0.04-0.56,0.12c-0.17,0.08-0.31,0.19-0.43,0.32
		c-0.12,0.14-0.21,0.29-0.28,0.47c-0.07,0.17-0.1,0.36-0.1,0.55c0,0.19,0.03,0.38,0.1,0.55c0.06,0.17,0.16,0.33,0.28,0.46
		c0.12,0.13,0.26,0.24,0.43,0.32c0.17,0.08,0.35,0.12,0.56,0.12c0.22,0,0.41-0.04,0.58-0.12c0.17-0.08,0.31-0.19,0.42-0.33
		c0.11-0.14,0.2-0.29,0.25-0.47S47.88,516.99,47.88,516.81z"/>
	<path class="st0" d="M53.02,518.19c-0.15,0.24-0.36,0.43-0.62,0.56c-0.26,0.13-0.54,0.19-0.83,0.19c-0.31,0-0.59-0.06-0.84-0.17
		c-0.25-0.11-0.46-0.26-0.64-0.46c-0.18-0.19-0.31-0.42-0.41-0.68c-0.1-0.26-0.14-0.54-0.14-0.83c0-0.29,0.05-0.57,0.14-0.83
		s0.23-0.48,0.41-0.67c0.18-0.19,0.39-0.34,0.64-0.45s0.52-0.16,0.82-0.16c0.33,0,0.61,0.07,0.86,0.21s0.44,0.31,0.58,0.5h0.02v-3
		h0.8v6.42h-0.77v-0.64H53.02z M50.37,516.81c0,0.19,0.03,0.37,0.08,0.54s0.14,0.33,0.25,0.47s0.25,0.24,0.42,0.33
		c0.16,0.08,0.36,0.12,0.58,0.12c0.2,0,0.39-0.04,0.56-0.12c0.17-0.08,0.31-0.18,0.43-0.32c0.12-0.13,0.21-0.29,0.28-0.46
		c0.07-0.17,0.1-0.36,0.1-0.55c0-0.19-0.03-0.38-0.1-0.55c-0.06-0.17-0.16-0.33-0.28-0.47c-0.12-0.13-0.26-0.24-0.43-0.32
		c-0.17-0.08-0.35-0.12-0.56-0.12c-0.22,0-0.41,0.04-0.58,0.12c-0.16,0.08-0.3,0.19-0.42,0.32c-0.11,0.14-0.2,0.29-0.25,0.47
		S50.37,516.62,50.37,516.81z"/>
	<path class="st0" d="M59.28,516.8c0,0.31-0.06,0.6-0.17,0.86c-0.11,0.26-0.26,0.49-0.46,0.67s-0.43,0.34-0.69,0.44
		s-0.55,0.16-0.86,0.16s-0.59-0.05-0.86-0.16c-0.27-0.1-0.5-0.25-0.69-0.44s-0.34-0.41-0.45-0.67c-0.11-0.26-0.17-0.55-0.17-0.86
		c0-0.31,0.06-0.6,0.17-0.85c0.11-0.26,0.26-0.48,0.45-0.67c0.19-0.19,0.42-0.33,0.69-0.44c0.27-0.1,0.55-0.16,0.86-0.16
		s0.59,0.05,0.86,0.16s0.5,0.25,0.69,0.44c0.2,0.19,0.35,0.41,0.46,0.67C59.22,516.21,59.28,516.49,59.28,516.8z M58.44,516.81
		c0-0.19-0.03-0.38-0.09-0.55s-0.15-0.33-0.26-0.46c-0.11-0.13-0.25-0.24-0.42-0.32s-0.36-0.12-0.57-0.12
		c-0.22,0-0.41,0.04-0.58,0.12s-0.31,0.18-0.42,0.32c-0.11,0.13-0.2,0.29-0.26,0.46s-0.09,0.36-0.09,0.55
		c0,0.19,0.03,0.38,0.09,0.55s0.15,0.33,0.26,0.47c0.11,0.13,0.25,0.24,0.42,0.32s0.36,0.12,0.58,0.12c0.22,0,0.41-0.04,0.57-0.12
		s0.31-0.19,0.42-0.32c0.11-0.14,0.2-0.29,0.26-0.47S58.44,517,58.44,516.81z"/>
	<path class="st0" d="M61.65,514.91c0.22-0.15,0.49-0.22,0.79-0.22c0.27,0,0.52,0.06,0.73,0.19c0.22,0.12,0.39,0.33,0.51,0.62
		c0.14-0.26,0.33-0.46,0.57-0.6c0.24-0.14,0.51-0.21,0.8-0.21c0.26,0,0.48,0.04,0.67,0.13c0.19,0.09,0.34,0.21,0.47,0.35
		c0.12,0.15,0.22,0.32,0.28,0.52c0.06,0.2,0.09,0.41,0.09,0.64v2.5h-0.8v-2.23c0-0.16-0.01-0.32-0.04-0.47s-0.08-0.28-0.14-0.39
		c-0.07-0.11-0.16-0.2-0.27-0.27c-0.11-0.07-0.26-0.1-0.43-0.1c-0.18,0-0.34,0.04-0.47,0.11c-0.13,0.08-0.24,0.18-0.32,0.3
		c-0.08,0.12-0.14,0.26-0.18,0.41c-0.04,0.15-0.06,0.31-0.06,0.47v2.17h-0.8v-2.39c0-0.16-0.01-0.3-0.04-0.43
		c-0.03-0.13-0.08-0.24-0.14-0.33c-0.07-0.09-0.16-0.17-0.26-0.22s-0.24-0.08-0.4-0.08c-0.29,0-0.54,0.12-0.73,0.36
		s-0.29,0.56-0.29,0.96v2.14h-0.8v-3.16c0-0.11,0-0.25-0.01-0.42c-0.01-0.17-0.01-0.32-0.03-0.45h0.76c0.01,0.1,0.02,0.22,0.03,0.34
		c0.01,0.13,0.01,0.23,0.01,0.32h0.03C61.26,515.25,61.42,515.06,61.65,514.91z"/>
	<path class="st0" d="M71.67,516.78c0,0.05,0,0.09,0,0.14c0,0.05,0,0.09-0.01,0.14h-3.2c0.01,0.17,0.04,0.33,0.11,0.48
		c0.07,0.15,0.17,0.28,0.28,0.39c0.12,0.11,0.26,0.2,0.41,0.26c0.16,0.06,0.32,0.09,0.5,0.09c0.27,0,0.51-0.06,0.7-0.18
		c0.2-0.12,0.35-0.26,0.47-0.43l0.56,0.45c-0.22,0.29-0.47,0.5-0.76,0.63s-0.62,0.2-0.97,0.2c-0.31,0-0.59-0.05-0.85-0.15
		c-0.26-0.1-0.48-0.25-0.67-0.43c-0.19-0.18-0.33-0.41-0.44-0.67c-0.11-0.26-0.16-0.55-0.16-0.87c0-0.31,0.05-0.6,0.16-0.86
		c0.1-0.26,0.25-0.49,0.44-0.67c0.19-0.19,0.41-0.33,0.66-0.44c0.25-0.1,0.53-0.16,0.82-0.16s0.56,0.05,0.8,0.14
		c0.24,0.1,0.44,0.23,0.61,0.42c0.17,0.18,0.3,0.4,0.39,0.66C71.62,516.17,71.67,516.46,71.67,516.78z M70.85,516.46
		c-0.01-0.16-0.03-0.31-0.08-0.45c-0.05-0.14-0.12-0.26-0.21-0.36s-0.21-0.18-0.35-0.24c-0.14-0.06-0.3-0.09-0.49-0.09
		c-0.17,0-0.33,0.03-0.48,0.09c-0.15,0.06-0.28,0.14-0.39,0.24s-0.2,0.22-0.27,0.36s-0.11,0.29-0.12,0.45H70.85z"/>
	<path class="st0" d="M73.49,514.8c0.01,0.1,0.02,0.22,0.03,0.34c0.01,0.13,0.01,0.23,0.01,0.32h0.03c0.05-0.11,0.12-0.21,0.21-0.3
		c0.09-0.09,0.19-0.17,0.3-0.25c0.11-0.07,0.24-0.13,0.37-0.17c0.14-0.04,0.28-0.06,0.42-0.06c0.26,0,0.48,0.04,0.67,0.13
		c0.19,0.09,0.34,0.21,0.47,0.35c0.12,0.15,0.22,0.32,0.28,0.52c0.06,0.2,0.09,0.41,0.09,0.64v2.5h-0.8v-2.23
		c0-0.16-0.01-0.32-0.04-0.47c-0.03-0.15-0.07-0.28-0.14-0.39s-0.16-0.2-0.28-0.27c-0.12-0.07-0.27-0.1-0.46-0.1
		c-0.32,0-0.58,0.12-0.78,0.36c-0.2,0.24-0.3,0.56-0.3,0.96v2.14h-0.8v-3.16c0-0.11,0-0.25-0.01-0.42
		c-0.01-0.17-0.01-0.32-0.03-0.45H73.49z"/>
	<path class="st0" d="M78.7,518.31c0,0.15-0.05,0.28-0.16,0.39s-0.24,0.17-0.41,0.17c-0.16,0-0.29-0.05-0.4-0.17
		s-0.17-0.24-0.17-0.39c0-0.15,0.05-0.28,0.16-0.39c0.11-0.11,0.24-0.17,0.41-0.17s0.3,0.05,0.41,0.16S78.7,518.16,78.7,518.31z"/>
	<path class="st0" d="M82.67,518.82h-0.84v-6.01h1.93c0.29,0,0.56,0.03,0.82,0.09c0.26,0.06,0.49,0.15,0.68,0.28
		c0.2,0.13,0.35,0.3,0.46,0.51c0.11,0.21,0.17,0.47,0.17,0.78c0,0.44-0.14,0.8-0.41,1.07c-0.27,0.27-0.62,0.44-1.05,0.52l1.68,2.76
		H85.1l-1.53-2.67h-0.9V518.82z M82.67,515.44h0.97c0.2,0,0.38-0.02,0.55-0.05c0.17-0.03,0.32-0.09,0.45-0.17s0.23-0.18,0.3-0.3
		c0.07-0.12,0.11-0.27,0.11-0.45c0-0.18-0.04-0.33-0.11-0.45c-0.07-0.12-0.17-0.22-0.29-0.29c-0.12-0.07-0.26-0.13-0.43-0.16
		s-0.34-0.05-0.52-0.05h-1.03V515.44z"/>
	<path class="st0" d="M90.66,516.78c0,0.05,0,0.09,0,0.14c0,0.05,0,0.09-0.01,0.14h-3.2c0.01,0.17,0.04,0.33,0.12,0.48
		c0.07,0.15,0.17,0.28,0.28,0.39c0.12,0.11,0.26,0.2,0.41,0.26c0.16,0.06,0.32,0.09,0.5,0.09c0.27,0,0.51-0.06,0.7-0.18
		c0.2-0.12,0.35-0.26,0.47-0.43l0.56,0.45c-0.21,0.29-0.47,0.5-0.76,0.63s-0.62,0.2-0.97,0.2c-0.31,0-0.59-0.05-0.85-0.15
		c-0.26-0.1-0.48-0.25-0.67-0.43c-0.19-0.18-0.33-0.41-0.44-0.67c-0.11-0.26-0.16-0.55-0.16-0.87c0-0.31,0.05-0.6,0.16-0.86
		c0.1-0.26,0.25-0.49,0.44-0.67c0.19-0.19,0.41-0.33,0.66-0.44c0.25-0.1,0.53-0.16,0.82-0.16s0.56,0.05,0.8,0.14
		c0.24,0.1,0.45,0.23,0.61,0.42c0.17,0.18,0.3,0.4,0.39,0.66C90.61,516.17,90.66,516.46,90.66,516.78z M89.84,516.46
		c-0.01-0.16-0.03-0.31-0.08-0.45c-0.05-0.14-0.12-0.26-0.21-0.36s-0.21-0.18-0.35-0.24c-0.14-0.06-0.3-0.09-0.49-0.09
		c-0.17,0-0.33,0.03-0.48,0.09c-0.15,0.06-0.28,0.14-0.39,0.24s-0.2,0.22-0.27,0.36c-0.07,0.14-0.11,0.29-0.12,0.45H89.84z"/>
	<path class="st0" d="M93.93,515.82c-0.09-0.15-0.22-0.27-0.38-0.36c-0.16-0.09-0.35-0.14-0.55-0.14c-0.09,0-0.18,0.01-0.27,0.03
		c-0.09,0.02-0.17,0.05-0.24,0.09c-0.07,0.04-0.13,0.1-0.17,0.16c-0.04,0.07-0.06,0.15-0.06,0.24c0,0.17,0.08,0.3,0.23,0.38
		c0.15,0.08,0.38,0.16,0.69,0.22c0.19,0.05,0.37,0.1,0.54,0.16c0.16,0.06,0.31,0.14,0.43,0.23c0.12,0.09,0.22,0.21,0.28,0.34
		c0.07,0.13,0.1,0.28,0.1,0.46c0,0.24-0.04,0.44-0.14,0.6s-0.21,0.3-0.36,0.4c-0.15,0.1-0.32,0.18-0.51,0.22
		c-0.19,0.05-0.39,0.07-0.59,0.07c-0.31,0-0.6-0.06-0.9-0.18c-0.29-0.12-0.53-0.3-0.73-0.54l0.57-0.48c0.11,0.16,0.26,0.29,0.45,0.4
		s0.4,0.16,0.62,0.16c0.1,0,0.2-0.01,0.29-0.03c0.09-0.02,0.18-0.05,0.25-0.1s0.14-0.1,0.18-0.18c0.04-0.07,0.07-0.17,0.07-0.28
		c0-0.19-0.09-0.33-0.27-0.42c-0.18-0.09-0.44-0.18-0.79-0.25c-0.14-0.03-0.27-0.08-0.41-0.12s-0.26-0.11-0.38-0.2
		s-0.21-0.19-0.28-0.32c-0.07-0.13-0.11-0.29-0.11-0.47c0-0.21,0.04-0.4,0.13-0.56s0.2-0.28,0.34-0.38c0.14-0.1,0.3-0.17,0.48-0.22
		c0.18-0.05,0.37-0.07,0.56-0.07c0.29,0,0.57,0.06,0.84,0.17c0.27,0.11,0.48,0.28,0.62,0.49L93.93,515.82z"/>
	<path class="st0" d="M98.37,518.82c-0.01-0.1-0.02-0.22-0.03-0.34s-0.01-0.23-0.01-0.32h-0.02c-0.1,0.21-0.27,0.4-0.51,0.55
		c-0.24,0.15-0.51,0.22-0.8,0.22c-0.26,0-0.49-0.04-0.67-0.13s-0.35-0.2-0.47-0.35c-0.12-0.15-0.21-0.32-0.27-0.52
		c-0.06-0.2-0.09-0.41-0.09-0.64v-2.5h0.8v2.22c0,0.16,0.01,0.32,0.04,0.47c0.03,0.15,0.07,0.28,0.14,0.39
		c0.07,0.11,0.16,0.2,0.28,0.27c0.12,0.07,0.27,0.1,0.46,0.1c0.32,0,0.58-0.12,0.78-0.36s0.3-0.56,0.3-0.96v-2.14h0.8v3.16
		c0,0.11,0,0.25,0.01,0.42s0.01,0.32,0.03,0.45H98.37z"/>
	<path class="st0" d="M101.29,518.82h-0.8v-6.42h0.8V518.82z"/>
	<path class="st0" d="M104.65,515.45h-1.07v2.09c0,0.24,0.05,0.42,0.14,0.52c0.09,0.1,0.23,0.16,0.43,0.16
		c0.07,0,0.15-0.01,0.24-0.02s0.16-0.04,0.23-0.07l0.03,0.65c-0.1,0.03-0.2,0.06-0.32,0.08s-0.24,0.03-0.36,0.03
		c-0.38,0-0.67-0.11-0.87-0.31c-0.2-0.21-0.3-0.52-0.3-0.94v-2.18h-0.77v-0.65h0.77v-1.15h0.79v1.15h1.07V515.45z"/>
	<path class="st0" d="M107.64,515.82c-0.09-0.15-0.22-0.27-0.38-0.36c-0.16-0.09-0.35-0.14-0.55-0.14c-0.09,0-0.18,0.01-0.27,0.03
		c-0.09,0.02-0.17,0.05-0.24,0.09c-0.07,0.04-0.13,0.1-0.17,0.16c-0.04,0.07-0.06,0.15-0.06,0.24c0,0.17,0.08,0.3,0.23,0.38
		c0.15,0.08,0.38,0.16,0.69,0.22c0.19,0.05,0.37,0.1,0.54,0.16c0.16,0.06,0.31,0.14,0.43,0.23c0.12,0.09,0.22,0.21,0.28,0.34
		c0.07,0.13,0.1,0.28,0.1,0.46c0,0.24-0.04,0.44-0.14,0.6s-0.21,0.3-0.36,0.4c-0.15,0.1-0.32,0.18-0.51,0.22
		c-0.19,0.05-0.39,0.07-0.59,0.07c-0.31,0-0.6-0.06-0.9-0.18c-0.29-0.12-0.53-0.3-0.73-0.54l0.57-0.48c0.11,0.16,0.26,0.29,0.45,0.4
		s0.4,0.16,0.62,0.16c0.1,0,0.2-0.01,0.29-0.03c0.09-0.02,0.18-0.05,0.25-0.1s0.14-0.1,0.18-0.18c0.04-0.07,0.07-0.17,0.07-0.28
		c0-0.19-0.09-0.33-0.27-0.42c-0.18-0.09-0.44-0.18-0.79-0.25c-0.14-0.03-0.27-0.08-0.41-0.12s-0.26-0.11-0.38-0.2
		s-0.21-0.19-0.28-0.32c-0.07-0.13-0.11-0.29-0.11-0.47c0-0.21,0.04-0.4,0.13-0.56s0.2-0.28,0.34-0.38c0.14-0.1,0.3-0.17,0.48-0.22
		c0.18-0.05,0.37-0.07,0.56-0.07c0.29,0,0.57,0.06,0.84,0.17c0.27,0.11,0.48,0.28,0.62,0.49L107.64,515.82z"/>
	<path class="st0" d="M112.63,514.91c0.22-0.15,0.49-0.22,0.79-0.22c0.27,0,0.52,0.06,0.73,0.19c0.22,0.12,0.39,0.33,0.51,0.62
		c0.14-0.26,0.33-0.46,0.57-0.6c0.24-0.14,0.51-0.21,0.8-0.21c0.26,0,0.48,0.04,0.67,0.13s0.34,0.21,0.47,0.35
		c0.12,0.15,0.22,0.32,0.28,0.52c0.06,0.2,0.09,0.41,0.09,0.64v2.5h-0.8v-2.23c0-0.16-0.01-0.32-0.04-0.47
		c-0.03-0.15-0.08-0.28-0.14-0.39c-0.07-0.11-0.16-0.2-0.27-0.27c-0.11-0.07-0.26-0.1-0.43-0.1c-0.18,0-0.34,0.04-0.47,0.11
		s-0.24,0.18-0.32,0.3c-0.08,0.12-0.14,0.26-0.18,0.41c-0.04,0.15-0.06,0.31-0.06,0.47v2.17h-0.8v-2.39c0-0.16-0.01-0.3-0.04-0.43
		c-0.03-0.13-0.08-0.24-0.14-0.33c-0.07-0.09-0.16-0.17-0.26-0.22s-0.24-0.08-0.4-0.08c-0.29,0-0.54,0.12-0.73,0.36
		s-0.29,0.56-0.29,0.96v2.14h-0.8v-3.16c0-0.11,0-0.25-0.01-0.42c0-0.17-0.01-0.32-0.03-0.45h0.76c0.01,0.1,0.02,0.22,0.03,0.34
		s0.01,0.23,0.01,0.32h0.03C112.24,515.25,112.41,515.06,112.63,514.91z"/>
	<path class="st0" d="M121.39,516.22c0-0.3-0.09-0.52-0.27-0.67c-0.18-0.14-0.42-0.22-0.72-0.22c-0.23,0-0.44,0.04-0.64,0.13
		s-0.37,0.2-0.5,0.34l-0.42-0.51c0.2-0.19,0.44-0.33,0.73-0.44c0.29-0.11,0.59-0.16,0.92-0.16c0.29,0,0.54,0.04,0.75,0.12
		c0.21,0.08,0.39,0.19,0.52,0.33s0.24,0.31,0.31,0.5c0.07,0.19,0.1,0.4,0.1,0.62v1.76c0,0.14,0,0.28,0.01,0.43
		c0.01,0.15,0.02,0.27,0.05,0.37h-0.72c-0.05-0.19-0.07-0.38-0.07-0.58h-0.03c-0.15,0.21-0.33,0.38-0.56,0.5
		c-0.22,0.12-0.49,0.18-0.79,0.18c-0.16,0-0.32-0.02-0.5-0.06c-0.17-0.04-0.33-0.11-0.47-0.21c-0.14-0.1-0.26-0.22-0.35-0.38
		c-0.09-0.16-0.14-0.35-0.14-0.59c0-0.31,0.08-0.55,0.25-0.73c0.16-0.18,0.38-0.31,0.65-0.41c0.27-0.09,0.57-0.15,0.9-0.18
		s0.67-0.04,1.01-0.04V516.22z M121.2,516.91c-0.2,0-0.4,0.01-0.62,0.03c-0.21,0.02-0.4,0.05-0.58,0.1s-0.32,0.13-0.43,0.23
		c-0.11,0.1-0.17,0.24-0.17,0.41c0,0.12,0.02,0.22,0.07,0.3s0.11,0.14,0.19,0.2s0.17,0.09,0.26,0.11c0.1,0.02,0.2,0.03,0.3,0.03
		c0.37,0,0.66-0.11,0.86-0.33c0.2-0.22,0.3-0.5,0.3-0.84v-0.21H121.2z"/>
	<path class="st0" d="M125.02,517.96h0.02l1.11-3.16H127l-1.95,4.97c-0.07,0.17-0.14,0.32-0.22,0.45c-0.08,0.13-0.17,0.25-0.28,0.34
		c-0.11,0.09-0.23,0.17-0.38,0.22s-0.32,0.08-0.51,0.08c-0.08,0-0.17,0-0.26-0.01s-0.18-0.02-0.27-0.05l0.08-0.7
		c0.14,0.04,0.27,0.07,0.4,0.07c0.21,0,0.37-0.06,0.47-0.17s0.2-0.28,0.28-0.5l0.25-0.67l-1.72-4.02h0.89L125.02,517.96z"/>
	<path class="st0" d="M131.78,518.82h-0.87l-1.64-4.02h0.88l1.18,3.17h0.02l1.19-3.17h0.85L131.78,518.82z"/>
	<path class="st0" d="M136.67,516.22c0-0.3-0.09-0.52-0.27-0.67c-0.18-0.14-0.42-0.22-0.72-0.22c-0.23,0-0.44,0.04-0.64,0.13
		s-0.37,0.2-0.5,0.34l-0.42-0.51c0.2-0.19,0.44-0.33,0.73-0.44c0.29-0.11,0.59-0.16,0.92-0.16c0.29,0,0.54,0.04,0.75,0.12
		c0.21,0.08,0.39,0.19,0.52,0.33s0.24,0.31,0.31,0.5c0.07,0.19,0.1,0.4,0.1,0.62v1.76c0,0.14,0,0.28,0.01,0.43
		c0.01,0.15,0.02,0.27,0.05,0.37h-0.72c-0.05-0.19-0.07-0.38-0.07-0.58h-0.03c-0.15,0.21-0.33,0.38-0.56,0.5
		c-0.22,0.12-0.49,0.18-0.79,0.18c-0.16,0-0.32-0.02-0.5-0.06c-0.17-0.04-0.33-0.11-0.47-0.21c-0.14-0.1-0.26-0.22-0.35-0.38
		c-0.09-0.16-0.14-0.35-0.14-0.59c0-0.31,0.08-0.55,0.25-0.73c0.16-0.18,0.38-0.31,0.65-0.41c0.27-0.09,0.57-0.15,0.9-0.18
		s0.67-0.04,1.01-0.04V516.22z M136.48,516.91c-0.2,0-0.4,0.01-0.62,0.03c-0.21,0.02-0.4,0.05-0.58,0.1s-0.32,0.13-0.43,0.23
		c-0.11,0.1-0.17,0.24-0.17,0.41c0,0.12,0.02,0.22,0.07,0.3s0.11,0.14,0.19,0.2s0.17,0.09,0.26,0.11c0.1,0.02,0.2,0.03,0.3,0.03
		c0.37,0,0.66-0.11,0.86-0.33c0.2-0.22,0.3-0.5,0.3-0.84v-0.21H136.48z"/>
	<path class="st0" d="M138.76,515.25c0-0.17-0.01-0.32-0.03-0.45h0.76c0.01,0.1,0.02,0.22,0.03,0.35s0.01,0.24,0.01,0.33h0.03
		c0.11-0.24,0.28-0.43,0.5-0.57c0.22-0.14,0.46-0.22,0.73-0.22c0.12,0,0.23,0.01,0.31,0.03l-0.03,0.74
		c-0.11-0.03-0.24-0.04-0.37-0.04c-0.19,0-0.36,0.04-0.5,0.11c-0.14,0.07-0.26,0.17-0.35,0.28c-0.09,0.12-0.16,0.26-0.21,0.41
		c-0.05,0.16-0.07,0.32-0.07,0.49v2.11h-0.8v-3.16C138.77,515.56,138.77,515.42,138.76,515.25z"/>
	<path class="st0" d="M143.37,517.96h0.02l1.11-3.16h0.85l-1.95,4.97c-0.07,0.17-0.14,0.32-0.22,0.45
		c-0.08,0.13-0.17,0.25-0.28,0.34c-0.11,0.09-0.23,0.17-0.38,0.22s-0.32,0.08-0.51,0.08c-0.08,0-0.17,0-0.26-0.01
		s-0.18-0.02-0.27-0.05l0.08-0.7c0.14,0.04,0.27,0.07,0.4,0.07c0.21,0,0.37-0.06,0.47-0.17s0.2-0.28,0.28-0.5l0.25-0.67l-1.72-4.02
		h0.89L143.37,517.96z"/>
	<path class="st0" d="M146.8,518.31c0,0.15-0.05,0.28-0.16,0.39s-0.24,0.17-0.41,0.17c-0.16,0-0.29-0.05-0.4-0.17
		s-0.17-0.24-0.17-0.39c0-0.15,0.05-0.28,0.16-0.39s0.24-0.17,0.41-0.17s0.3,0.05,0.41,0.16S146.8,518.16,146.8,518.31z"/>
</g>
</svg>
