<?xml version="1.0" encoding="utf-8"?>
<!-- Generator: Adobe Illustrator 25.2.1, SVG Export Plug-In . SVG Version: 6.00 Build 0)  -->
<svg version="1.1" id="Layer_1" xmlns="http://www.w3.org/2000/svg" xmlns:xlink="http://www.w3.org/1999/xlink" x="0px" y="0px"
	 viewBox="0 0 160 600" style="enable-background:new 0 0 160 600;" xml:space="preserve">
<style type="text/css">
	.st0{fill:#FFFFFF;}
</style>
<g>
	<g>
		<g>
			<g>
				<path class="st0" d="M62.79,49.08c-2.14,0-3.16-1.55-3.16-3.03c0-1.72,1.24-3.09,3.2-3.09c0.66,0,1.35,0.2,1.89,0.66l-0.6,0.84
					c-0.37-0.29-0.77-0.4-1.25-0.4c-1.04,0-1.81,0.72-1.81,1.96c0,1.13,0.71,2.03,1.85,2.03c0.48,0,0.9-0.14,1.28-0.47l0.55,0.84
					C64.2,48.86,63.48,49.08,62.79,49.08"/>
				<path class="st0" d="M68.02,49.08c-1.79,0-3.1-1.34-3.1-3.09c0-1.8,1.44-3.03,3.1-3.03c1.66,0,3.11,1.22,3.11,3.02
					C71.13,47.73,69.82,49.08,68.02,49.08 M69.69,45.98c0-1.08-0.53-2.02-1.68-2.02c-1.12,0-1.68,0.94-1.68,2
					c0,1.1,0.52,2.09,1.68,2.09c1.16,0,1.68-0.97,1.68-2.09V45.98z"/>
				<path class="st0" d="M74.75,49.08c-1.79,0-3.1-1.34-3.1-3.09c0-1.8,1.44-3.03,3.1-3.03c1.66,0,3.11,1.22,3.11,3.02
					C77.86,47.73,76.55,49.08,74.75,49.08 M76.43,45.98c0-1.08-0.53-2.02-1.68-2.02c-1.12,0-1.68,0.94-1.68,2
					c0,1.1,0.52,2.09,1.68,2.09c1.16,0,1.68-0.97,1.68-2.09V45.98z"/>
				<polygon class="st0" points="78.56,48.93 78.56,40.34 79.9,41.08 79.9,48.93 				"/>
				<path class="st0" d="M82.99,49.11c-1.51,0-2.23-0.72-2.23-0.72l0.6-0.78c0,0,0.69,0.46,1.59,0.46c0.43,0,0.8-0.3,0.8-0.6
					s-0.13-0.55-0.53-0.76c-0.4-0.2-0.84-0.42-1.19-0.59c-0.35-0.17-1.12-0.68-1.12-1.69c0-1.02,1.04-1.58,2.1-1.58
					c1.01,0,1.79,0.66,1.79,0.66l-0.52,0.79c0,0-0.58-0.41-1.22-0.41s-0.77,0.41-0.77,0.58c0,0.17,0.06,0.43,0.47,0.65
					c0.41,0.22,0.83,0.44,1.44,0.78c0.6,0.34,0.94,0.91,0.94,1.56C85.13,48.1,84.5,49.11,82.99,49.11"/>
				<path class="st0" d="M88.75,49.08c-2.14,0-3.16-1.55-3.16-3.03c0-1.72,1.24-3.09,3.2-3.09c0.66,0,1.35,0.2,1.89,0.66l-0.6,0.84
					c-0.37-0.29-0.77-0.4-1.26-0.4c-1.04,0-1.81,0.72-1.81,1.96c0,1.13,0.71,2.03,1.85,2.03c0.48,0,0.9-0.14,1.28-0.47l0.55,0.84
					C90.16,48.86,89.43,49.08,88.75,49.08"/>
				<path class="st0" d="M95.35,48.25c0,0-0.68,0.83-1.95,0.83c-1.51,0-2.24-1.09-2.24-2.2v-3.8h1.34v3.74
					c0,0.65,0.51,1.19,1.29,1.19c0.69,0,1.36-0.82,1.36-0.82v-4.11h1.34v5.84L95.35,48.25z"/>
				<polygon class="st0" points="97.67,48.93 97.67,40.34 99.01,41.08 99.01,48.93 				"/>
				<path class="st0" d="M103.44,49.08c-1.18,0-1.86-0.66-1.86-0.66v2.91h-1.35v-8.37l1.35,0.71c0,0,0.72-0.73,1.93-0.73
					c1.27,0,2.85,0.97,2.85,3.14C106.36,48.25,104.8,49.08,103.44,49.08 M103.36,43.97c-1.15,0-1.81,1.07-1.81,1.07v2.21
					c0,0,0.76,0.85,1.86,0.85c1.28,0,1.56-1.52,1.56-2.05C104.96,45.51,104.84,43.97,103.36,43.97"/>
				<path class="st0" d="M109.88,49.09h-0.85c-1.06,0-1.42-1.02-1.42-1.69v-3.44h-1.06v-0.88h1.06V40.5h1.33v2.58h1.36v0.88h-1.35
					v3.12c0,0.35-0.06,0.9,0.53,0.9h0.97L109.88,49.09z"/>
				<path class="st0" d="M112.03,42.07c-0.48,0-0.88-0.4-0.88-0.88c0-0.48,0.4-0.88,0.88-0.88c0.48,0,0.88,0.4,0.88,0.88
					C112.91,41.68,112.51,42.07,112.03,42.07 M111.37,43.08h1.32v5.85h-1.32V43.08z"/>
				<path class="st0" d="M117.99,48.93v-3.74c0-0.65-0.51-1.19-1.29-1.19c-0.69,0-1.46,0.82-1.46,0.82v4.11h-1.34v-5.84l1.13,0.67
					c0,0,0.77-0.83,2.05-0.83c1.51,0,2.24,1.09,2.24,2.19v3.8H117.99z"/>
				<path class="st0" d="M123.42,51.66c-0.21,0-1.78-0.02-1.78-0.02l0.02-1.07h1.32c1.28,0,2-0.68,2-1.62v-0.53
					c0,0-0.7,0.66-1.88,0.66c-1.36,0-2.92-0.83-2.92-3c0-2.17,1.58-3.14,2.85-3.14c1.21,0,1.93,0.73,1.93,0.73l1.35-0.67v5.82
					C126.32,50.38,125.27,51.66,123.42,51.66 M125,45.03c0,0-0.66-1.07-1.81-1.07c-1.48,0-1.6,1.55-1.6,2.07
					c0,0.53,0.28,2.05,1.56,2.05c1.1,0,1.86-0.85,1.86-0.85V45.03z"/>
				<polygon class="st0" points="46.07,46.27 43.61,48.72 46.62,49.85 50.23,46.27 				"/>
				<polygon class="st0" points="50.58,41.29 48.13,38.85 46.98,41.84 50.58,45.42 				"/>
				<polygon class="st0" points="55.04,42.19 58.33,43.05 55.59,45.77 51.44,45.77 				"/>
				<polygon class="st0" points="54.82,50.34 53.88,53.54 48.75,48.44 50.83,46.38 				"/>
				<g>
					<path class="st0" d="M128.32,43.48c0,0.35-0.28,0.62-0.64,0.62c-0.36,0-0.64-0.28-0.64-0.62c0-0.35,0.28-0.62,0.64-0.62
						C128.04,42.86,128.32,43.13,128.32,43.48z M127.2,43.48c0,0.27,0.21,0.49,0.49,0.49c0.27,0,0.47-0.22,0.47-0.49
						c0-0.27-0.2-0.5-0.48-0.5C127.41,42.98,127.2,43.2,127.2,43.48z M127.58,43.8h-0.14v-0.62c0.06-0.01,0.14-0.02,0.24-0.02
						c0.12,0,0.17,0.02,0.21,0.05c0.04,0.03,0.06,0.07,0.06,0.13c0,0.08-0.06,0.12-0.13,0.15v0.01c0.06,0.02,0.09,0.07,0.11,0.15
						c0.02,0.09,0.03,0.13,0.05,0.15h-0.15c-0.02-0.02-0.03-0.08-0.05-0.15c-0.01-0.06-0.05-0.09-0.13-0.09h-0.07V43.8z
						 M127.59,43.45h0.07c0.08,0,0.14-0.03,0.14-0.09c0-0.06-0.04-0.09-0.13-0.09c-0.04,0-0.06,0-0.08,0.01V43.45z"/>
				</g>
			</g>
			<g>
				<polygon class="st0" points="47.64,53.37 47.64,49.55 48.4,48.79 50.58,50.96 50.58,51.69 				"/>
				<polygon class="st0" points="47.29,42.85 44.11,42.85 45.13,45.77 50.23,45.77 				"/>
				<polygon class="st0" points="58,49.19 54.37,49.19 51.44,46.27 56.53,46.27 				"/>
				<polygon class="st0" points="51.08,40.35 54.02,38.62 54.02,42.5 51.08,45.42 				"/>
				<g>
					<path class="st0" d="M56.25,50.55c0,0.24-0.19,0.43-0.44,0.43c-0.25,0-0.44-0.19-0.44-0.43c0-0.24,0.2-0.43,0.45-0.43
						C56.05,50.12,56.25,50.31,56.25,50.55z M55.48,50.55c0,0.19,0.14,0.34,0.34,0.34c0.19,0,0.33-0.15,0.33-0.34
						c0-0.19-0.14-0.34-0.33-0.34C55.62,50.21,55.48,50.36,55.48,50.55z M55.74,50.77h-0.1v-0.43c0.04-0.01,0.09-0.01,0.16-0.01
						c0.08,0,0.12,0.01,0.15,0.03c0.03,0.02,0.04,0.05,0.04,0.09c0,0.05-0.04,0.09-0.09,0.1v0.01c0.04,0.01,0.06,0.05,0.08,0.1
						c0.01,0.07,0.02,0.09,0.03,0.1h-0.1c-0.01-0.02-0.02-0.05-0.03-0.1c-0.01-0.04-0.03-0.07-0.09-0.07h-0.05V50.77z M55.74,50.53
						h0.05c0.06,0,0.1-0.02,0.1-0.06c0-0.04-0.03-0.07-0.09-0.07c-0.03,0-0.04,0-0.06,0.01V50.53z"/>
				</g>
			</g>
		</g>
	</g>
	<g>
		<path class="st0" d="M32.19,43.25h0.53v2.92h0.02c0.09-0.13,0.19-0.24,0.3-0.33c0.12-0.09,0.24-0.16,0.37-0.22
			c0.13-0.06,0.26-0.1,0.4-0.13c0.14-0.03,0.27-0.04,0.39-0.04c0.29,0,0.56,0.05,0.81,0.15c0.24,0.1,0.45,0.24,0.63,0.41
			c0.18,0.18,0.31,0.38,0.41,0.62c0.1,0.24,0.15,0.5,0.15,0.78c0,0.28-0.05,0.54-0.15,0.78c-0.1,0.24-0.24,0.45-0.41,0.62
			c-0.18,0.18-0.39,0.31-0.63,0.41c-0.24,0.1-0.51,0.15-0.81,0.15c-0.12,0-0.25-0.01-0.39-0.04c-0.14-0.03-0.27-0.07-0.4-0.13
			c-0.13-0.06-0.25-0.13-0.37-0.22c-0.12-0.09-0.22-0.2-0.3-0.33h-0.02v0.62h-0.53V43.25z M35.62,47.42c0-0.21-0.03-0.4-0.1-0.58
			c-0.07-0.18-0.16-0.34-0.29-0.47c-0.12-0.13-0.27-0.24-0.45-0.32c-0.17-0.08-0.37-0.12-0.59-0.12c-0.22,0-0.42,0.04-0.6,0.12
			c-0.18,0.08-0.34,0.18-0.47,0.32c-0.13,0.13-0.24,0.29-0.31,0.47c-0.07,0.18-0.11,0.38-0.11,0.58c0,0.21,0.04,0.4,0.11,0.58
			s0.18,0.34,0.31,0.47c0.13,0.13,0.29,0.24,0.47,0.32c0.18,0.08,0.38,0.12,0.6,0.12c0.22,0,0.42-0.04,0.59-0.12
			c0.17-0.08,0.32-0.18,0.45-0.32c0.12-0.13,0.22-0.29,0.29-0.47C35.59,47.82,35.62,47.63,35.62,47.42z"/>
		<path class="st0" d="M38.5,48.64l1.15-3.09h0.64l-1.88,4.71c-0.11,0.29-0.26,0.52-0.43,0.69c-0.17,0.17-0.42,0.26-0.75,0.26
			c-0.08,0-0.16,0-0.24-0.01c-0.08-0.01-0.16-0.02-0.24-0.05l0.06-0.51c0.11,0.06,0.25,0.09,0.4,0.09c0.19,0,0.33-0.06,0.44-0.18
			c0.11-0.12,0.2-0.28,0.28-0.5l0.27-0.72l-1.54-3.79h0.67L38.5,48.64z"/>
	</g>
	<g>
		<path class="st0" d="M42.65,31.64c-1.15,1-2.58,1.5-4.28,1.5c-2.22,0-3.96-0.72-5.24-2.16c-1.15-1.29-1.73-2.86-1.73-4.69
			c0-1.96,0.65-3.6,1.94-4.93c1.29-1.33,3.01-2,5.13-2c1.63,0,3.01,0.5,4.15,1.49l-1.33,1.86c-0.76-0.58-1.68-0.86-2.77-0.86
			c-1.17,0-2.12,0.4-2.86,1.18c-0.74,0.79-1.1,1.86-1.1,3.2c0,1.31,0.37,2.4,1.1,3.26c0.74,0.86,1.72,1.29,2.94,1.29
			c1.06,0,2.01-0.34,2.85-1.03L42.65,31.64z"/>
		<path class="st0" d="M56.49,26.16c0,2-0.65,3.66-1.96,4.99c-1.3,1.33-2.94,1.99-4.91,1.99c-1.97,0-3.6-0.66-4.89-1.99
			c-1.3-1.33-1.94-2.99-1.94-4.99c0-1.96,0.68-3.59,2.05-4.91c1.31-1.26,2.91-1.89,4.79-1.89c1.88,0,3.49,0.63,4.82,1.89
			C55.8,22.57,56.49,24.2,56.49,26.16z M53.32,26.16c0-1.27-0.3-2.32-0.91-3.15c-0.67-0.9-1.61-1.35-2.79-1.35s-2.11,0.45-2.77,1.35
			c-0.6,0.83-0.9,1.88-0.9,3.15c0,1.35,0.29,2.44,0.88,3.28c0.66,0.93,1.59,1.4,2.79,1.4c1.21,0,2.15-0.47,2.82-1.4
			C53.03,28.6,53.32,27.51,53.32,26.16z"/>
		<path class="st0" d="M71.2,26.16c0,2-0.65,3.66-1.96,4.99c-1.3,1.33-2.94,1.99-4.91,1.99c-1.97,0-3.6-0.66-4.89-1.99
			c-1.3-1.33-1.94-2.99-1.94-4.99c0-1.96,0.68-3.59,2.05-4.91c1.31-1.26,2.91-1.89,4.79-1.89c1.88,0,3.49,0.63,4.81,1.89
			C70.51,22.57,71.2,24.2,71.2,26.16z M68.03,26.16c0-1.27-0.3-2.32-0.9-3.15c-0.67-0.9-1.61-1.35-2.79-1.35
			c-1.19,0-2.11,0.45-2.77,1.35c-0.6,0.83-0.9,1.88-0.9,3.15c0,1.35,0.29,2.44,0.88,3.28c0.66,0.93,1.59,1.4,2.79,1.4
			c1.21,0,2.15-0.47,2.82-1.4C67.74,28.6,68.03,27.51,68.03,26.16z"/>
		<path class="st0" d="M75.72,32.85h-2.95V13.51l2.95,1.65V32.85z"/>
		<g>
			<g>
				<path class="st0" d="M98.28,26.16c0,2-0.65,3.66-1.96,4.99c-1.3,1.33-2.94,1.99-4.91,1.99c-1.97,0-3.6-0.66-4.89-1.99
					c-1.3-1.33-1.94-2.99-1.94-4.99c0-1.96,0.68-3.59,2.05-4.91c1.31-1.26,2.91-1.89,4.79-1.89c1.88,0,3.49,0.63,4.81,1.89
					C97.6,22.57,98.28,24.2,98.28,26.16z M95.11,26.16c0-1.27-0.3-2.32-0.9-3.15c-0.67-0.9-1.61-1.35-2.79-1.35
					c-1.19,0-2.11,0.45-2.77,1.35c-0.6,0.83-0.9,1.88-0.9,3.15c0,1.35,0.29,2.44,0.88,3.28c0.66,0.93,1.59,1.4,2.79,1.4
					c1.21,0,2.15-0.47,2.82-1.4C94.82,28.6,95.11,27.51,95.11,26.16z"/>
				<path class="st0" d="M111.71,32.85h-2.95v-8.4c0-0.75-0.26-1.39-0.78-1.9c-0.52-0.51-1.21-0.77-2.06-0.77
					c-0.94,0-2.01,0.61-3.22,1.83v9.24h-2.95V19.69l2.5,1.51c1.28-1.24,2.78-1.86,4.52-1.86c1.56,0,2.8,0.51,3.72,1.54
					c0.82,0.92,1.22,2.05,1.22,3.4V32.85z"/>
				<path class="st0" d="M126.13,26.88h-9.44c0.35,2.68,1.61,4.02,3.78,4.02c1.33,0,2.42-0.38,3.27-1.13l1.17,1.92
					c-1.13,1.04-2.64,1.57-4.52,1.57c-2.61,0-4.51-0.98-5.72-2.94c-0.74-1.21-1.12-2.45-1.12-3.73c0-1.57,0.3-2.93,0.9-4.08
					c1.08-2.11,3.01-3.16,5.77-3.16c2.73,0,4.53,1.25,5.4,3.75C126,24.16,126.16,25.42,126.13,26.88z M123.15,24.93
					c-0.11-2.32-1.1-3.48-2.98-3.48c-2.08,0-3.22,1.16-3.43,3.48H123.15z"/>
				<path class="st0" d="M82.1,30.69c-0.57,0-0.92-0.24-1.06-0.73c-0.07-0.2-0.11-0.63-0.11-1.3v-5.48h2.05v-1.97h-2.05v-3.14
					l-2.95-1.65v12.97c0,0.94,0.23,1.76,0.69,2.46c0.57,0.9,1.38,1.35,2.45,1.35h1.86l1.25-2.51H82.1z"/>
			</g>
		</g>
		<g>
			<path class="st0" d="M129.52,20.75c0,0.78-0.63,1.4-1.43,1.4c-0.8,0-1.44-0.62-1.44-1.4c0-0.78,0.64-1.39,1.45-1.39
				C128.89,19.36,129.52,19.97,129.52,20.75z M127.01,20.75c0,0.62,0.47,1.11,1.09,1.11c0.6,0.01,1.06-0.49,1.06-1.1
				c0-0.62-0.46-1.12-1.08-1.12C127.47,19.64,127.01,20.14,127.01,20.75z M127.87,21.47h-0.32v-1.39c0.13-0.02,0.31-0.04,0.54-0.04
				c0.26,0,0.38,0.04,0.48,0.11c0.09,0.06,0.14,0.16,0.14,0.3c0,0.17-0.13,0.28-0.29,0.33v0.02c0.14,0.04,0.2,0.15,0.25,0.34
				c0.04,0.21,0.08,0.29,0.1,0.34h-0.34c-0.04-0.05-0.07-0.17-0.11-0.34c-0.03-0.14-0.11-0.21-0.29-0.21h-0.15V21.47z M127.87,20.69
				h0.15c0.18,0,0.32-0.06,0.32-0.2c0-0.13-0.09-0.21-0.3-0.21c-0.09,0-0.14,0.01-0.18,0.02V20.69z"/>
		</g>
	</g>
</g>
</svg>
