<svg id="Layer_1" xmlns="http://www.w3.org/2000/svg" viewBox="0 0 300 600"><style>.st0{fill:#eaf5fb}</style><path class="st0" d="M65.06 85.65V81.4h2.04v3.87c0 2.01.56 2.82 1.97 2.82 1.44 0 2.01-.81 2.01-2.82v-3.66c0-1.65-.46-2.46-1.65-3.24l-1.87-1.2c-1.79-1.16-2.5-2.5-2.5-4.86v-3.13c0-2.68 1.44-4.19 3.94-4.19s3.94 1.51 3.94 4.19v3.13H70.9v-2.78c0-1.9-.53-2.64-1.87-2.64s-1.87.74-1.87 2.64v2.64c0 1.65.46 2.46 1.65 3.24l1.87 1.2c1.8 1.16 2.5 2.5 2.5 4.86v4.19c0 2.78-1.51 4.33-4.08 4.33-2.56-.01-4.04-1.55-4.04-4.34zM78.86 67.17H75.9v-1.83h8.03v1.83h-2.96v22.46h-2.11V67.17zM87.21 65.34h3.91c2.82 0 4.15 1.44 4.15 4.4v3.1c0 1.97-.63 3.17-1.9 3.73v.07c1.27.56 1.9 1.76 1.9 3.77v9.22h-2.11v-9.08c0-2.25-.63-2.92-2.64-2.92h-1.2v12h-2.11V65.34zm3.66 10.46c1.76 0 2.29-.67 2.29-2.92V70.1c0-2.25-.53-2.92-2.29-2.92h-1.55v8.62h1.55zM99.21 65.34h6.97v1.83h-4.86v8.48h4.22v1.83h-4.22V87.8h4.86v1.83h-6.97V65.34zM109.6 65.34h2.75l3.84 17.78h.07V65.34h1.9v24.29h-2.29l-4.29-20.03h-.07v20.03h-1.9V65.34zM122.13 86.18V69.36c0-2.78 1.51-4.37 4.05-4.37 2.57 0 4.01 1.58 4.01 4.37v2.68h-2.01v-2.29c0-2.04-.56-2.85-1.97-2.85-1.44 0-1.97.81-1.97 2.85v16.19c0 1.44.53 2.15 1.69 2.15 1.44 0 2.25-1.09 2.25-3.06v-6.97h-1.97v-1.83h4.08v13.41h-1.8v-1.73h-.11c-.56 1.34-1.58 2.08-3.03 2.08-2.02-.01-3.22-1.45-3.22-3.81zM136.22 67.17h-2.96v-1.83h8.03v1.83h-2.96v22.46h-2.11V67.17zM144.56 65.34h2.11v10.31h3.98V65.34h2.11v24.29h-2.11V77.49h-3.98v12.14h-2.11V65.34zM156.88 65.34h6.97v1.83H159v8.48h4.22v1.83H159V87.8h4.86v1.83h-6.97V65.34zM167.27 65.34h2.75l3.84 17.78h.07V65.34h1.9v24.29h-2.29l-4.29-20.03h-.07v20.03h-1.9V65.34zM180.76 89.63h-.84v-2.89h2.39v2.53l-1.55 3.91h-1.23l1.23-3.55zM194.34 67.17h-2.96v-1.83h8.03v1.83h-2.96v22.46h-2.11V67.17zM202.27 85.58V69.39c0-2.82 1.51-4.4 4.08-4.4 2.57 0 4.08 1.58 4.08 4.4v16.19c0 2.82-1.51 4.4-4.08 4.4-2.57 0-4.08-1.58-4.08-4.4zm6.05-.35V69.74c0-2.04-.56-2.85-1.97-2.85-1.44 0-1.97.81-1.97 2.85v15.49c0 2.04.53 2.85 1.97 2.85 1.41 0 1.97-.81 1.97-2.85zM214.41 65.34h2.75L221 83.12h.07V65.34h1.9v24.29h-2.29l-4.29-20.03h-.07v20.03h-1.9V65.34zM227.09 65.34h6.97v1.83h-4.86v8.48h4.22v1.83h-4.22V87.8h4.86v1.83h-6.97V65.34zM238.64 89.63h-.84v-2.89h2.39v2.53l-1.55 3.91h-1.23l1.23-3.55zM64.59 101.73h2.78l3.06 24.29h-2.15l-.7-6.02h-3.31l-.7 6.02h-2.04l3.06-24.29zm2.78 16.44l-1.41-13.1h-.07l-1.41 13.1h2.89zM73.74 101.73h2.75l3.84 17.78h.07v-17.78h1.9v24.29h-2.29l-4.29-20.03h-.07v20.03h-1.9v-24.29zM86.42 101.73h4.01c2.82 0 4.15 1.44 4.15 4.4v15.49c0 2.96-1.34 4.4-4.15 4.4h-4.01v-24.29zm3.76 22.45c1.76 0 2.29-.67 2.29-2.92v-14.78c0-2.25-.53-2.92-2.29-2.92h-1.65v20.63h1.65zM104.34 101.73h6.97v1.83h-4.86v8.84h4.22v1.83h-4.22v11.79h-2.11v-24.29zM114.58 101.73h2.11v24.29h-2.11v-24.29zM120.81 101.73h3.91c2.82 0 4.15 1.44 4.15 4.4v3.1c0 1.97-.63 3.17-1.9 3.73v.07c1.27.56 1.9 1.76 1.9 3.77v9.22h-2.11v-9.08c0-2.25-.63-2.92-2.64-2.92h-1.2v12h-2.11v-24.29zm3.66 10.45c1.76 0 2.29-.67 2.29-2.92v-2.78c0-2.25-.53-2.92-2.29-2.92h-1.55v8.62h1.55zM132.82 101.73h3.34l2.71 17.92h.07l2.71-17.92h3.49v24.29h-2.11V104.3h-.07l-3.27 21.72h-1.65l-3.27-21.72h-.07v21.72h-1.87v-24.29zM155.07 101.73h3.34l2.71 17.92h.07l2.71-17.92h3.48v24.29h-2.11V104.3h-.07l-3.27 21.72h-1.65l-3.27-21.72h-.07v21.72h-1.87v-24.29zM171.44 122.11v-20.38h2.11v20c0 1.97.49 2.75 1.9 2.75s1.9-.77 1.9-2.75v-20h2.04v20.38c0 2.71-1.48 4.26-3.98 4.26s-3.97-1.55-3.97-4.26zM183.06 122.04v-4.26h2.04v3.87c0 2.01.56 2.82 1.97 2.82 1.44 0 2.01-.81 2.01-2.82v-3.66c0-1.65-.46-2.46-1.65-3.24l-1.87-1.2c-1.8-1.16-2.5-2.5-2.5-4.86v-3.13c0-2.68 1.44-4.19 3.94-4.19s3.94 1.51 3.94 4.19v3.13h-2.04v-2.78c0-1.9-.53-2.64-1.87-2.64s-1.87.74-1.87 2.64v2.64c0 1.65.46 2.46 1.65 3.24l1.87 1.2c1.79 1.16 2.5 2.5 2.5 4.86v4.19c0 2.78-1.51 4.33-4.08 4.33-2.56 0-4.04-1.55-4.04-4.33zM194.71 122.18v-16.62c0-2.68 1.41-4.19 3.94-4.19 2.57 0 3.98 1.51 3.98 4.19v3.98h-2.01v-3.63c0-1.9-.56-2.64-1.9-2.64-1.37 0-1.9.74-1.9 2.64v15.91c0 1.9.53 2.64 1.9 2.64 1.34 0 1.9-.74 1.9-2.64v-4.89h2.01v5.25c0 2.68-1.41 4.19-3.98 4.19-2.53 0-3.94-1.52-3.94-4.19zM206.37 101.73h2.11v22.46h4.51v1.83h-6.62v-24.29zM216.26 101.73h6.97v1.83h-4.86v8.48h4.22v1.83h-4.22v10.31h4.86v1.83h-6.97v-24.28zM226.33 122.04v-4.26h2.04v3.87c0 2.01.56 2.82 1.97 2.82 1.44 0 2.01-.81 2.01-2.82v-3.66c0-1.65-.46-2.46-1.65-3.24l-1.87-1.2c-1.8-1.16-2.5-2.5-2.5-4.86v-3.13c0-2.68 1.44-4.19 3.94-4.19s3.94 1.51 3.94 4.19v3.13h-2.04v-2.78c0-1.9-.53-2.64-1.87-2.64s-1.87.74-1.87 2.64v2.64c0 1.65.46 2.46 1.65 3.24l1.87 1.2c1.79 1.16 2.5 2.5 2.5 4.86v4.19c0 2.78-1.51 4.33-4.08 4.33-2.56 0-4.04-1.55-4.04-4.33zM238.13 123.13h2.36v2.89h-2.36v-2.89z"/></svg>