<svg id="Layer_1" xmlns="http://www.w3.org/2000/svg" viewBox="0 0 300 250"><style>.st0{fill:#eaf5fb}.st1{fill:#002554}</style><path class="st0" d="M12.27 117.94h82.07v19.8H12.27z"/><path class="st1" d="M20.99 131.89v-6.68h1.62v5.27h2.58v1.41h-4.2zM26.33 131.89v-6.68h4.49v1.37h-2.93v1.25h2.77v1.29h-2.77v1.39h3.1v1.38h-4.66zM36.95 131.89l-.52-1.31h-2.58l-.49 1.31h-1.75l2.8-6.68h1.57l2.77 6.68h-1.8zm-1.79-4.9l-.85 2.29h1.68l-.83-2.29zM43.25 131.89l-1.44-2.65h-.55v2.65h-1.58v-6.68h2.55c1.28 0 2.56.49 2.56 2.02 0 .9-.53 1.54-1.39 1.8l1.74 2.86h-1.89zm-1.14-5.38h-.86v1.56h.76c.52 0 1.17-.13 1.17-.81.01-.63-.59-.75-1.07-.75zM50.55 131.89l-2.69-4.37h-.03l.04 4.37H46.3v-6.68h1.84l2.68 4.36h.03l-.04-4.36h1.57v6.68h-1.83zM62.92 131.89l.04-4.72h-.03l-1.74 4.72h-1.13l-1.69-4.72h-.03l.04 4.72h-1.52v-6.68h2.29l1.52 4.28h.04l1.45-4.28h2.33v6.68h-1.57zM69.57 132.07c-2.08 0-3.63-1.43-3.63-3.54 0-2.14 1.55-3.49 3.63-3.49 2.09 0 3.64 1.35 3.64 3.49 0 2.1-1.55 3.54-3.64 3.54zm0-5.59c-1.13 0-1.9.87-1.9 2.04 0 1.21.78 2.07 1.9 2.07s1.91-.87 1.91-2.07c0-1.17-.78-2.04-1.91-2.04zM78.23 131.89l-1.44-2.65h-.55v2.65h-1.58v-6.68h2.55c1.28 0 2.56.49 2.56 2.02 0 .9-.53 1.54-1.39 1.8l1.74 2.86h-1.89zm-1.15-5.38h-.86v1.56h.76c.52 0 1.17-.13 1.17-.81.01-.63-.58-.75-1.07-.75zM81.28 131.89v-6.68h4.49v1.37h-2.93v1.25h2.77v1.29h-2.77v1.39h3.1v1.38h-4.66z"/></svg>