<svg id="Layer_1" xmlns="http://www.w3.org/2000/svg" viewBox="0 0 300 600"><style>.st0{fill:#00a9e0}.st1{fill:#fff}</style><path class="st0" d="M83.69 480.94H215.6v32.13H83.69z"/><path class="st1" d="M94.13 503.36v-11.55h2.81v9.12h4.47v2.43h-7.28zM103.28 503.36v-11.55h7.76v2.37h-5.07v2.17h4.8v2.23h-4.8v2.4h5.37v2.38h-8.06zM121.57 503.36l-.9-2.27h-4.47l-.85 2.27h-3.03l4.84-11.55h2.71l4.8 11.55h-3.1zm-3.1-8.47l-1.47 3.96h2.9l-1.43-3.96zM132.38 503.36l-2.5-4.58h-.95v4.58h-2.74v-11.55h4.4c2.22 0 4.42.85 4.42 3.49 0 1.55-.91 2.66-2.4 3.12l3.02 4.94h-3.25zm-1.97-9.3h-1.48v2.69h1.32c.9 0 2.02-.23 2.02-1.4 0-1.08-1.03-1.29-1.86-1.29zM144.92 503.36l-4.65-7.55h-.05l.07 7.55h-2.71v-11.55h3.18l4.63 7.54h.05l-.06-7.54h2.71v11.55h-3.17zM166.15 503.36l.07-8.17h-.05l-3 8.17h-1.96l-2.92-8.17h-.05l.07 8.17h-2.63v-11.55h3.96l2.63 7.41h.07l2.51-7.41h4.03v11.55h-2.73zM177.57 503.67c-3.61 0-6.28-2.48-6.28-6.13 0-3.7 2.67-6.04 6.28-6.04 3.62 0 6.3 2.33 6.3 6.04-.01 3.65-2.68 6.13-6.3 6.13zm0-9.66c-1.96 0-3.29 1.5-3.29 3.52 0 2.09 1.35 3.59 3.29 3.59s3.31-1.5 3.31-3.59c0-2.02-1.36-3.52-3.31-3.52zM192.45 503.36l-2.5-4.58H189v4.58h-2.74v-11.55h4.4c2.22 0 4.42.85 4.42 3.49 0 1.55-.91 2.66-2.4 3.12l3.02 4.94h-3.25zm-1.97-9.3H189v2.69h1.32c.9 0 2.02-.23 2.02-1.4 0-1.08-1.03-1.29-1.86-1.29zM197.65 503.36v-11.55h7.76v2.37h-5.07v2.17h4.8v2.23h-4.8v2.4h5.37v2.38h-8.06z"/></svg>