<svg id="Layer_1" xmlns="http://www.w3.org/2000/svg" viewBox="0 0 300 600"><style>.st0{fill:#fff}</style><path class="st0" d="M63.31 533.41h-1.05l2.92-6.73h.85l2.89 6.73h-1.06l-.68-1.65h-3.19l-.68 1.65zm1-2.48h2.52l-1.25-3.15-1.27 3.15zM69.73 529.41c-.01-.19-.02-.36-.03-.5h.85c.01.11.02.25.03.39.01.15.01.27.01.37h.03c.13-.27.31-.48.56-.64.24-.16.52-.24.82-.24.14 0 .26.01.35.04l-.04.83a1.77 1.77 0 0 0-.41-.05c-.22 0-.4.04-.56.12-.16.08-.29.18-.39.32-.1.13-.18.29-.23.46-.05.17-.08.36-.08.55v2.37h-.89v-3.54c-.01-.13-.01-.29-.02-.48zM74.22 527.28c0 .17-.06.3-.17.41-.12.11-.26.16-.42.16-.16 0-.3-.06-.42-.17a.56.56 0 0 1-.17-.4c0-.17.06-.3.17-.41a.607.607 0 0 1 .84 0c.12.11.17.25.17.41zm-.14 6.13h-.89v-4.5h.89v4.5zM79.85 531.12v.15c0 .05 0 .1-.01.15h-3.58c.01.19.05.37.13.53.08.17.19.31.32.43s.29.22.46.29c.17.07.36.1.56.1.3 0 .57-.07.79-.2.22-.13.4-.29.52-.48l.63.5c-.24.32-.52.55-.85.71-.33.15-.69.23-1.09.23-.34 0-.66-.06-.95-.17-.29-.11-.54-.27-.75-.48s-.37-.45-.49-.75c-.12-.29-.18-.61-.18-.97 0-.35.06-.67.18-.96.12-.29.28-.55.49-.76s.46-.37.74-.49.59-.18.92-.18.63.05.9.16.5.26.69.46c.19.2.33.45.43.74.09.31.14.63.14.99zm-.91-.36c-.01-.18-.04-.34-.09-.5s-.13-.29-.24-.4-.23-.2-.39-.27-.34-.1-.55-.1c-.19 0-.37.03-.54.1-.17.07-.31.16-.44.27s-.22.25-.3.4c-.08.16-.12.32-.14.5h2.69zM82 533.41h-.9v-7.18h.9v7.18zM86.26 528.91l1.02 3.44h.02l1.07-3.44h.94l1.09 3.44h.02l1.02-3.44h.94l-1.49 4.5h-.93l-1.11-3.38h-.02l-1.1 3.38h-.93l-1.5-4.5h.96zM96.08 530.49c0-.34-.1-.58-.3-.75-.2-.16-.47-.24-.81-.24-.25 0-.49.05-.72.15-.23.1-.41.22-.57.38l-.48-.57c.22-.21.49-.37.81-.49s.66-.18 1.03-.18c.32 0 .6.05.84.14.24.09.43.22.58.38.15.16.27.34.34.56.08.21.11.45.11.69v1.97c0 .15 0 .31.01.48.01.17.03.31.05.41h-.81c-.05-.21-.08-.43-.08-.65h-.03c-.17.24-.37.43-.62.56-.25.13-.55.2-.89.2-.18 0-.36-.02-.56-.07-.19-.05-.37-.12-.53-.23-.16-.11-.29-.25-.39-.43-.1-.18-.16-.4-.16-.66 0-.34.09-.61.28-.81.18-.2.42-.35.72-.46.3-.1.63-.17 1.01-.2.37-.03.75-.05 1.13-.05v-.13zm-.22.77c-.22 0-.45.01-.69.03-.24.02-.45.06-.65.11-.19.06-.35.14-.48.26-.13.11-.19.27-.19.46 0 .13.03.24.08.33.05.09.12.16.21.22s.19.1.29.12c.11.02.22.03.33.03.42 0 .74-.12.96-.38.23-.25.34-.57.34-.95v-.24h-.2zM100.86 530.05c-.1-.16-.24-.3-.43-.4-.18-.1-.39-.16-.62-.16-.1 0-.2.01-.3.03-.1.02-.19.06-.27.1-.08.05-.14.11-.19.18-.05.07-.07.16-.07.27 0 .19.09.33.26.42.17.09.43.18.77.25.22.05.41.11.6.18.18.07.34.16.48.26a1.063 1.063 0 0 1 .43.89c0 .27-.05.49-.15.67-.1.18-.24.33-.4.45-.17.12-.36.2-.58.25a2.663 2.663 0 0 1-1.67-.12c-.32-.13-.6-.34-.81-.61l.64-.54c.12.18.29.33.5.45.21.12.44.18.7.18.11 0 .22-.01.33-.03s.2-.06.29-.11.15-.12.2-.2c.05-.08.08-.19.08-.31 0-.21-.1-.36-.3-.47-.2-.1-.49-.2-.88-.29-.15-.04-.31-.08-.46-.14s-.3-.13-.42-.22a.99.99 0 0 1-.31-.36c-.08-.14-.12-.32-.12-.53 0-.24.05-.45.15-.62s.23-.32.38-.43c.16-.11.34-.19.54-.25.2-.05.41-.08.63-.08.32 0 .64.06.94.19s.53.31.7.55l-.64.55zM107.23 529.64h-1.2v2.34c0 .27.05.47.15.58.1.12.26.17.48.17.08 0 .17-.01.27-.03.1-.02.18-.04.26-.08l.03.73c-.11.04-.23.07-.36.09-.13.02-.26.03-.4.03-.42 0-.75-.12-.97-.35-.22-.23-.34-.59-.34-1.05v-2.44h-.86v-.73h.86v-1.29h.88v1.29h1.2v.74zM108.14 529.41c-.01-.19-.02-.36-.03-.5h.85c.01.11.02.25.03.39.01.15.01.27.01.37h.03c.13-.27.31-.48.56-.64.24-.16.52-.24.82-.24.14 0 .26.01.35.04l-.04.83a1.77 1.77 0 0 0-.41-.05c-.22 0-.4.04-.56.12-.16.08-.29.18-.39.32-.1.13-.18.29-.23.46-.05.17-.08.36-.08.55v2.37h-.89v-3.54a6.11 6.11 0 0 1-.02-.48zM115.63 531.12v.15c0 .05 0 .1-.01.15h-3.58c.01.19.05.37.13.53.08.17.19.31.32.43s.29.22.46.29c.17.07.36.1.56.1.3 0 .57-.07.79-.2.22-.13.4-.29.52-.48l.63.5c-.24.32-.52.55-.85.71-.33.15-.69.23-1.09.23-.34 0-.66-.06-.95-.17-.29-.11-.54-.27-.75-.48s-.37-.45-.49-.75c-.12-.29-.18-.61-.18-.97 0-.35.06-.67.18-.96.12-.29.28-.55.49-.76s.46-.37.74-.49.59-.18.92-.18.63.05.9.16.5.26.69.46c.19.2.33.45.43.74.09.31.14.63.14.99zm-.92-.36c-.01-.18-.04-.34-.09-.5s-.13-.29-.24-.4-.23-.2-.39-.27-.34-.1-.55-.1c-.19 0-.37.03-.54.1-.17.07-.31.16-.44.27s-.22.25-.3.4c-.08.16-.12.32-.14.5h2.69zM119.61 530.49c0-.34-.1-.58-.3-.75-.2-.16-.47-.24-.81-.24-.25 0-.49.05-.72.15-.23.1-.41.22-.57.38l-.48-.57c.22-.21.49-.37.81-.49s.66-.18 1.03-.18c.32 0 .6.05.84.14.24.09.43.22.58.38.15.16.27.34.34.56.08.21.11.45.11.69v1.97c0 .15 0 .31.01.48.01.17.03.31.05.41h-.81c-.05-.21-.08-.43-.08-.65h-.03c-.17.24-.37.43-.62.56-.25.13-.55.2-.89.2-.18 0-.36-.02-.56-.07-.19-.05-.37-.12-.53-.23-.16-.11-.29-.25-.39-.43-.1-.18-.16-.4-.16-.66 0-.34.09-.61.28-.81.18-.2.42-.35.72-.46.3-.1.63-.17 1.01-.2.37-.03.75-.05 1.13-.05v-.13zm-.22.77c-.22 0-.45.01-.69.03-.24.02-.45.06-.65.11-.19.06-.35.14-.48.26-.13.11-.19.27-.19.46 0 .13.03.24.08.33.05.09.12.16.21.22s.19.1.29.12c.11.02.22.03.33.03.42 0 .74-.12.96-.38.23-.25.34-.57.34-.95v-.24h-.2zM124.06 529.64h-1.2v2.34c0 .27.05.47.15.58.1.12.26.17.48.17.08 0 .17-.01.27-.03.1-.02.18-.04.26-.08l.03.73c-.11.04-.23.07-.36.09-.13.02-.26.03-.4.03-.42 0-.75-.12-.97-.35-.22-.23-.34-.59-.34-1.05v-2.44h-.86v-.73h.86v-1.29h.88v1.29h1.2v.74zM129.19 531.12v.15c0 .05 0 .1-.01.15h-3.58c.01.19.05.37.13.53.08.17.19.31.32.43s.29.22.46.29c.17.07.36.1.56.1.3 0 .57-.07.79-.2.22-.13.4-.29.52-.48l.63.5c-.24.32-.52.55-.85.71-.33.15-.69.23-1.09.23-.34 0-.66-.06-.95-.17-.29-.11-.54-.27-.75-.48s-.37-.45-.49-.75c-.12-.29-.18-.61-.18-.97 0-.35.06-.67.18-.96.12-.29.28-.55.49-.76s.46-.37.74-.49.59-.18.92-.18.63.05.9.16.5.26.69.46c.19.2.33.45.43.74.09.31.14.63.14.99zm-.91-.36c-.01-.18-.04-.34-.09-.5s-.13-.29-.24-.4-.23-.2-.39-.27-.34-.1-.55-.1c-.19 0-.37.03-.54.1-.17.07-.31.16-.44.27s-.22.25-.3.4c-.08.16-.12.32-.14.5h2.69zM134.02 532.7c-.17.27-.4.48-.7.62s-.6.21-.93.21c-.35 0-.66-.06-.94-.18a1.93 1.93 0 0 1-.71-.51c-.2-.21-.35-.47-.46-.76-.11-.29-.16-.6-.16-.93 0-.33.05-.64.16-.93.11-.29.26-.54.46-.75.2-.22.44-.38.72-.5.28-.12.59-.18.92-.18.37 0 .69.08.96.23.27.16.49.34.65.57h.02v-3.35h.89v7.18h-.86v-.71h-.02zm-2.96-1.55c0 .21.03.41.09.61s.16.37.29.52c.13.15.28.27.47.36.18.09.4.14.65.14.23 0 .44-.04.62-.13.19-.09.35-.21.48-.36s.24-.32.31-.52.11-.4.11-.62-.04-.42-.11-.62-.18-.37-.31-.52c-.13-.15-.29-.27-.48-.36-.19-.09-.39-.13-.62-.13-.25 0-.46.04-.65.13-.18.09-.34.21-.47.36-.13.15-.22.33-.29.52-.06.21-.09.42-.09.62zM139.17 528.91l1.02 3.44h.02l1.07-3.44h.94l1.09 3.44h.02l1.02-3.44h.94l-1.49 4.5h-.93l-1.11-3.38h-.02l-1.1 3.38h-.93l-1.5-4.5h.96zM147.23 527.28c0 .17-.06.3-.17.41-.12.11-.26.16-.42.16-.16 0-.3-.06-.42-.17a.56.56 0 0 1-.17-.4c0-.17.06-.3.17-.41a.607.607 0 0 1 .84 0c.11.11.17.25.17.41zm-.14 6.13h-.89v-4.5h.89v4.5zM150.85 529.64h-1.2v2.34c0 .27.05.47.15.58.1.12.26.17.48.17.08 0 .17-.01.27-.03.1-.02.18-.04.26-.08l.03.73c-.11.04-.23.07-.36.09-.13.02-.26.03-.4.03-.42 0-.75-.12-.97-.35-.22-.23-.34-.59-.34-1.05v-2.44h-.86v-.73h.86v-1.29h.88v1.29h1.2v.74zM152.7 529.59c.11-.22.29-.41.55-.57.26-.16.55-.24.88-.24.29 0 .54.05.75.15.21.1.38.23.52.39.14.17.24.36.31.58.07.22.1.46.1.71v2.79h-.89v-2.5c0-.18-.02-.36-.04-.52-.03-.17-.08-.31-.16-.44a.811.811 0 0 0-.31-.3c-.13-.08-.3-.11-.51-.11-.36 0-.65.13-.87.41-.23.27-.34.63-.34 1.08v2.39h-.89v-7.18h.89v3.36h.01zM165.51 532.37c-.27.36-.61.65-1.04.88-.42.22-.93.34-1.53.34-.51 0-.99-.09-1.42-.26-.43-.17-.81-.42-1.12-.73s-.56-.69-.74-1.12a3.68 3.68 0 0 1-.27-1.43c0-.53.09-1.01.27-1.44.18-.43.43-.8.75-1.11.32-.31.7-.55 1.13-.72.44-.17.91-.26 1.43-.26.23 0 .46.02.69.07s.46.11.67.2.41.2.59.33.33.28.46.45l-.74.57c-.16-.23-.4-.42-.7-.57s-.62-.22-.97-.22c-.39 0-.75.07-1.06.21s-.58.34-.8.58-.39.53-.51.86-.18.67-.18 1.04c0 .38.06.73.18 1.06.12.33.29.62.5.86s.48.44.8.58c.31.14.66.21 1.05.21.38 0 .72-.08 1.04-.23.31-.15.57-.37.77-.67l.75.52zM170.87 531.15c0 .35-.06.67-.19.96-.12.29-.29.54-.51.75a2.3 2.3 0 0 1-.77.49c-.3.12-.62.18-.96.18-.34 0-.66-.06-.96-.18-.3-.12-.55-.28-.77-.49-.22-.21-.38-.46-.51-.75-.12-.29-.18-.61-.18-.96s.06-.67.18-.96a2.257 2.257 0 0 1 1.28-1.24c.3-.12.62-.18.96-.18.34 0 .66.06.96.18a2.257 2.257 0 0 1 1.28 1.24c.13.29.19.61.19.96zm-.93 0c0-.21-.03-.42-.1-.62s-.16-.37-.29-.52-.28-.27-.47-.36-.4-.13-.64-.13-.46.04-.64.13-.34.21-.47.36-.22.32-.29.52c-.07.2-.1.4-.1.62s.03.42.1.62.16.37.29.52c.13.15.28.27.47.36s.4.13.64.13.46-.04.64-.13.34-.21.47-.36c.13-.15.22-.33.29-.52.07-.2.1-.4.1-.62zM176.67 531.15c0 .35-.06.67-.19.96-.12.29-.29.54-.51.75a2.3 2.3 0 0 1-.77.49c-.3.12-.62.18-.96.18-.34 0-.66-.06-.96-.18-.3-.12-.55-.28-.77-.49-.22-.21-.38-.46-.51-.75-.12-.29-.18-.61-.18-.96s.06-.67.18-.96a2.257 2.257 0 0 1 1.28-1.24c.3-.12.62-.18.96-.18.34 0 .66.06.96.18a2.257 2.257 0 0 1 1.28 1.24c.13.29.19.61.19.96zm-.93 0c0-.21-.03-.42-.1-.62s-.16-.37-.29-.52-.28-.27-.47-.36-.4-.13-.64-.13-.46.04-.64.13-.34.21-.47.36-.22.32-.29.52c-.07.2-.1.4-.1.62s.03.42.1.62.16.37.29.52c.13.15.28.27.47.36s.4.13.64.13.46-.04.64-.13.34-.21.47-.36c.13-.15.22-.33.29-.52.06-.2.1-.4.1-.62zM178.82 533.41h-.89v-7.18h.89v7.18zM182.78 533.41h-.94v-5.9h-2.16v-.83h5.25v.83h-2.16v5.9zM189.43 531.15c0 .35-.06.67-.19.96-.12.29-.29.54-.51.75a2.3 2.3 0 0 1-.77.49c-.3.12-.62.18-.96.18-.34 0-.66-.06-.96-.18-.3-.12-.55-.28-.77-.49-.22-.21-.38-.46-.51-.75-.12-.29-.18-.61-.18-.96s.06-.67.18-.96a2.257 2.257 0 0 1 1.28-1.24c.3-.12.62-.18.96-.18.34 0 .66.06.96.18a2.257 2.257 0 0 1 1.28 1.24c.13.29.19.61.19.96zm-.93 0c0-.21-.03-.42-.1-.62s-.16-.37-.29-.52-.28-.27-.47-.36-.4-.13-.64-.13-.46.04-.64.13-.34.21-.47.36-.22.32-.29.52c-.07.2-.1.4-.1.62s.03.42.1.62.16.37.29.52c.13.15.28.27.47.36s.4.13.64.13.46-.04.64-.13.34-.21.47-.36c.13-.15.22-.33.29-.52.06-.2.1-.4.1-.62zM191.47 528.91c.01.11.02.24.03.38.01.14.01.26.01.36h.03c.06-.12.13-.23.23-.34.1-.1.21-.2.34-.28s.27-.14.42-.19a1.854 1.854 0 0 1 1.23.08c.21.1.38.23.52.39.14.17.24.36.31.58.07.22.1.46.1.71v2.79h-.89v-2.5c0-.18-.01-.36-.04-.52-.03-.17-.08-.31-.16-.44s-.18-.23-.31-.3-.3-.11-.51-.11c-.36 0-.65.13-.87.4-.22.27-.34.63-.34 1.08v2.39h-.89v-3.54c0-.12 0-.28-.01-.47-.01-.19-.02-.36-.03-.5h.83zM200.4 531.12v.15c0 .05 0 .1-.01.15h-3.58c.01.19.05.37.13.53.08.17.19.31.32.43s.29.22.46.29c.17.07.36.1.56.1.3 0 .57-.07.79-.2.22-.13.4-.29.52-.48l.63.5c-.24.32-.52.55-.85.71-.33.15-.69.23-1.09.23-.34 0-.66-.06-.95-.17-.29-.11-.54-.27-.75-.48s-.37-.45-.49-.75c-.12-.29-.18-.61-.18-.97 0-.35.06-.67.18-.96s.28-.55.49-.76a2.33 2.33 0 0 1 1.66-.67c.33 0 .63.05.9.16s.5.26.69.46c.19.2.33.45.43.74.09.31.14.63.14.99zm-.91-.36c-.01-.18-.04-.34-.09-.5s-.13-.29-.24-.4-.23-.2-.39-.27-.34-.1-.55-.1c-.19 0-.37.03-.54.1-.17.07-.31.16-.44.27a1.376 1.376 0 0 0-.44.9h2.69zM201.55 528.73c0-.3.06-.58.17-.84s.27-.49.47-.68c.2-.19.43-.35.69-.46s.54-.17.84-.17.58.06.84.17.49.27.69.46.35.42.47.68c.11.26.17.54.17.84s-.06.58-.17.84c-.11.26-.27.49-.47.68s-.43.35-.69.46c-.26.11-.54.17-.84.17s-.58-.05-.84-.17a2.14 2.14 0 0 1-.69-.46c-.2-.19-.35-.42-.47-.68s-.17-.55-.17-.84zm.35 0c0 .25.05.48.14.7s.22.42.39.58c.16.17.36.3.58.39a1.872 1.872 0 0 0 1.42 0c.22-.09.42-.23.58-.39.17-.17.29-.36.39-.58.1-.22.14-.46.14-.7 0-.25-.05-.49-.14-.71a1.65 1.65 0 0 0-.39-.58c-.16-.17-.36-.29-.58-.39a1.7 1.7 0 0 0-.71-.14c-.25 0-.49.05-.71.14-.22.09-.42.22-.58.39-.17.16-.29.36-.39.58s-.14.45-.14.71zm2.34 1.18l-.52-.94h-.34v.94h-.58v-2.43h1.05c.11 0 .22.01.33.04s.21.07.29.12c.09.06.16.13.21.23.05.1.08.22.08.37 0 .16-.05.3-.14.41s-.21.19-.35.24l.65 1.03h-.68zm-.41-1.35c.09 0 .17-.03.24-.09.07-.06.11-.13.11-.23s-.04-.17-.12-.22a.55.55 0 0 0-.23-.07h-.45v.6h.45zM214.28 531.15c0 .35-.06.67-.19.96-.12.29-.29.54-.51.75a2.3 2.3 0 0 1-.77.49c-.3.12-.62.18-.96.18-.34 0-.66-.06-.96-.18-.3-.12-.55-.28-.77-.49-.22-.21-.38-.46-.51-.75-.12-.29-.18-.61-.18-.96s.06-.67.18-.96a2.257 2.257 0 0 1 1.28-1.24c.3-.12.62-.18.96-.18.34 0 .66.06.96.18a2.257 2.257 0 0 1 1.28 1.24c.13.29.19.61.19.96zm-.93 0c0-.21-.03-.42-.1-.62s-.16-.37-.29-.52-.28-.27-.47-.36-.4-.13-.64-.13-.46.04-.64.13-.34.21-.47.36-.22.32-.29.52c-.07.2-.1.4-.1.62s.03.42.1.62.16.37.29.52c.13.15.28.27.47.36s.4.13.64.13.46-.04.64-.13.34-.21.47-.36c.13-.15.22-.33.29-.52.06-.2.1-.4.1-.62zM216.32 528.91c.01.11.02.24.03.38.01.14.01.26.01.36h.03c.06-.12.13-.23.23-.34.1-.1.21-.2.34-.28s.27-.14.42-.19a1.854 1.854 0 0 1 1.23.08c.21.1.38.23.52.39.14.17.24.36.31.58.07.22.1.46.1.71v2.79h-.89v-2.5c0-.18-.01-.36-.04-.52-.03-.17-.08-.31-.16-.44s-.18-.23-.31-.3-.3-.11-.51-.11c-.36 0-.65.13-.87.4-.22.27-.34.63-.34 1.08v2.39h-.89v-3.54c0-.12 0-.28-.01-.47-.01-.19-.02-.36-.03-.5h.83zM224.35 529.59c.11-.22.29-.41.55-.57.26-.16.55-.24.87-.24.29 0 .54.05.75.15.21.1.38.23.52.39s.24.36.31.58c.07.22.1.46.1.71v2.79h-.89v-2.5c0-.18-.01-.36-.04-.52s-.08-.31-.16-.44-.18-.23-.31-.3-.3-.11-.51-.11c-.36 0-.65.13-.87.41-.23.27-.34.63-.34 1.08v2.39h-.89v-7.18h.89v3.36h.02zM233.18 531.12v.15c0 .05 0 .1-.01.15h-3.58c.01.19.05.37.13.53.08.17.19.31.32.43s.29.22.46.29c.17.07.36.1.56.1.3 0 .57-.07.79-.2.22-.13.4-.29.52-.48l.63.5c-.24.32-.52.55-.85.71-.33.15-.69.23-1.09.23-.34 0-.66-.06-.95-.17-.29-.11-.54-.27-.75-.48s-.37-.45-.49-.75c-.12-.29-.18-.61-.18-.97 0-.35.06-.67.18-.96s.28-.55.49-.76a2.33 2.33 0 0 1 1.66-.67c.33 0 .63.05.9.16s.5.26.69.46c.19.2.33.45.43.74.09.31.14.63.14.99zm-.91-.36c-.01-.18-.04-.34-.09-.5s-.13-.29-.24-.4-.23-.2-.39-.27-.34-.1-.55-.1c-.19 0-.37.03-.54.1-.17.07-.31.16-.44.27a1.376 1.376 0 0 0-.44.9h2.69zM234.4 529.41c-.01-.19-.02-.36-.03-.5h.85c.01.11.02.25.03.39.01.15.01.27.01.37h.03c.13-.27.31-.48.56-.64.24-.16.52-.24.82-.24.14 0 .26.01.35.04l-.04.83a1.77 1.77 0 0 0-.41-.05c-.22 0-.4.04-.56.12s-.29.18-.39.32c-.1.13-.18.29-.23.46-.05.17-.08.36-.08.55v2.37h-.89v-3.54c-.01-.13-.01-.29-.02-.48zM63.39 540.5c0-.34-.1-.58-.3-.75-.2-.16-.47-.24-.81-.24-.25 0-.49.05-.72.15-.23.1-.41.22-.57.38l-.48-.57c.22-.21.49-.37.81-.49s.66-.18 1.03-.18c.32 0 .6.05.84.14.24.09.43.22.58.38.15.16.27.34.34.56.08.21.11.45.11.69v1.97c0 .15 0 .31.01.48.01.17.03.31.05.41h-.81c-.05-.21-.08-.43-.08-.65h.01c-.17.24-.37.43-.62.56-.25.13-.55.2-.89.2-.18 0-.36-.02-.56-.07-.19-.05-.37-.12-.53-.23-.16-.11-.29-.25-.39-.43-.1-.18-.16-.4-.16-.66 0-.34.09-.61.28-.81.18-.2.42-.35.72-.46.3-.1.63-.17 1.01-.2.37-.03.75-.05 1.13-.05v-.13zm-.22.77c-.22 0-.45.01-.69.03-.24.02-.45.06-.65.11-.19.06-.35.14-.48.26-.13.11-.19.27-.19.46 0 .13.03.24.08.33.05.09.12.16.21.22s.19.1.29.12c.11.02.22.03.33.03.42 0 .74-.12.96-.38.23-.25.34-.57.34-.95v-.24h-.2zM66.62 542.7v.71h-.86v-7.18h.89v3.35h.03c.15-.22.36-.41.63-.57.27-.16.59-.23.97-.23.33 0 .64.06.91.18s.51.29.71.5c.2.21.35.47.46.75.11.29.16.6.16.93a2.507 2.507 0 0 1-.61 1.69c-.2.22-.43.38-.71.51-.28.12-.59.18-.94.18a2.1 2.1 0 0 1-.92-.21c-.29-.14-.52-.35-.7-.62h-.02zm3-1.54c0-.21-.03-.41-.09-.61s-.16-.37-.29-.52c-.13-.15-.28-.27-.47-.36-.19-.09-.4-.13-.65-.13-.23 0-.44.04-.62.13-.19.09-.35.21-.48.36a1.71 1.71 0 0 0-.42 1.14c0 .22.04.42.11.62s.18.37.31.52c.13.15.29.27.48.36.19.09.39.13.62.13.25 0 .46-.05.65-.14.19-.09.34-.21.47-.36.13-.15.22-.33.29-.52.05-.21.09-.41.09-.62zM75.38 542.7c-.17.27-.4.48-.7.62s-.6.21-.93.21c-.35 0-.66-.06-.94-.18a1.93 1.93 0 0 1-.71-.51c-.2-.21-.35-.47-.46-.76-.11-.29-.16-.6-.16-.93 0-.33.05-.64.16-.93.11-.29.26-.54.46-.75.2-.22.44-.38.72-.5.28-.12.59-.18.92-.18.37 0 .69.08.96.23.27.16.49.34.65.57h.02v-3.35h.89v7.18h-.86v-.71h-.02zm-2.97-1.54c0 .21.03.41.09.61s.16.37.29.52c.13.15.28.27.47.36.18.09.4.14.65.14.23 0 .44-.04.62-.13.19-.09.35-.21.48-.36s.24-.32.31-.52.11-.4.11-.62-.04-.42-.11-.62-.18-.37-.31-.52c-.13-.15-.29-.27-.48-.36-.19-.09-.39-.13-.62-.13-.25 0-.46.04-.65.13-.18.09-.34.21-.47.36-.13.15-.22.33-.29.52-.06.21-.09.41-.09.62zM82.38 541.15c0 .35-.06.67-.19.96s-.29.54-.51.75a2.3 2.3 0 0 1-.77.49c-.3.12-.62.18-.96.18-.34 0-.66-.06-.96-.18-.3-.12-.55-.28-.77-.49-.22-.21-.38-.46-.51-.75s-.19-.61-.19-.96.06-.67.19-.96c.12-.29.29-.54.51-.75.22-.21.47-.37.77-.49s.62-.18.96-.18c.34 0 .66.06.96.18a2.257 2.257 0 0 1 1.28 1.24c.13.3.19.61.19.96zm-.93.01c0-.21-.03-.42-.1-.62s-.16-.37-.29-.52-.28-.27-.47-.36c-.19-.09-.4-.13-.64-.13s-.46.04-.64.13-.34.21-.47.36c-.13.15-.22.32-.29.52-.07.2-.1.4-.1.62s.03.42.1.62.16.37.29.52c.13.15.28.27.47.36s.4.13.64.13.46-.04.64-.13c.19-.09.34-.21.47-.36.13-.15.22-.33.29-.52.06-.2.1-.41.1-.62zM85.03 539.04c.25-.17.55-.25.89-.25.3 0 .58.07.82.21.24.14.44.37.57.69.15-.29.36-.51.64-.67s.57-.23.89-.23c.29 0 .54.05.75.15.21.1.38.23.52.39s.24.36.31.58c.07.22.1.46.1.71v2.79h-.89v-2.5c0-.18-.02-.36-.05-.52-.03-.17-.09-.31-.16-.44a.861.861 0 0 0-.3-.3c-.13-.08-.29-.11-.48-.11-.2 0-.38.04-.52.13-.15.09-.26.2-.36.33-.09.14-.16.29-.2.46-.04.17-.06.34-.06.52v2.43h-.89v-2.68c0-.18-.02-.34-.05-.48s-.09-.27-.16-.38a.877.877 0 0 0-.29-.25c-.12-.06-.27-.09-.45-.09-.33 0-.6.13-.82.4-.22.27-.33.63-.33 1.08v2.39h-.89v-3.54c0-.12 0-.28-.01-.47-.01-.19-.02-.36-.03-.5h.85c.01.11.02.24.03.38s.01.26.01.36h.03c.1-.22.28-.42.53-.59zM96.25 541.12v.15c0 .05 0 .1-.01.15h-3.58c.01.19.05.37.13.53.08.17.19.31.32.43s.29.22.46.29c.17.07.36.1.56.1.3 0 .57-.07.79-.2.22-.13.4-.29.52-.48l.63.5c-.24.32-.52.55-.85.71-.33.15-.69.23-1.09.23-.34 0-.66-.06-.95-.17-.29-.11-.54-.27-.75-.48s-.37-.45-.49-.75c-.12-.29-.18-.61-.18-.97 0-.35.06-.67.18-.96.12-.29.28-.55.49-.76s.46-.37.74-.49.59-.18.92-.18.63.05.9.16.5.26.69.46c.19.2.33.45.43.74.09.31.14.63.14.99zm-.91-.36c-.01-.18-.04-.34-.09-.5s-.13-.29-.24-.4-.23-.2-.39-.27-.34-.1-.55-.1c-.19 0-.37.03-.54.1-.17.07-.31.16-.44.27s-.22.25-.3.4c-.08.16-.12.32-.14.5h2.69zM98.29 538.91c.01.11.02.24.03.38s.01.26.01.36h.03c.06-.12.13-.23.23-.34.1-.1.21-.2.34-.28.13-.08.27-.14.42-.19a1.854 1.854 0 0 1 1.23.08c.21.1.38.23.52.39.14.17.24.36.31.58.07.22.1.46.1.71v2.79h-.89v-2.5c0-.18-.01-.36-.04-.52-.03-.17-.08-.31-.16-.44a.811.811 0 0 0-.31-.3c-.13-.08-.3-.11-.51-.11-.35 0-.64.13-.87.4-.23.27-.34.63-.34 1.08v2.39h-.89v-3.54c0-.12 0-.28-.01-.47-.01-.19-.02-.36-.03-.5h.83zM108.2 540.5c0-.34-.1-.58-.3-.75-.2-.16-.47-.24-.81-.24-.25 0-.49.05-.72.15-.23.1-.41.22-.57.38l-.48-.57c.22-.21.49-.37.81-.49s.66-.18 1.03-.18c.32 0 .6.05.84.14.24.09.43.22.58.38.15.16.27.34.34.56.08.21.11.45.11.69v1.97c0 .15 0 .31.01.48.01.17.03.31.05.41h-.81c-.05-.21-.08-.43-.08-.65h-.03c-.17.24-.37.43-.62.56-.25.13-.55.2-.89.2-.18 0-.36-.02-.56-.07-.19-.05-.37-.12-.53-.23-.16-.11-.29-.25-.39-.43-.1-.18-.16-.4-.16-.66 0-.34.09-.61.28-.81.18-.2.42-.35.72-.46.3-.1.63-.17 1.01-.2.37-.03.75-.05 1.13-.05v-.13zm-.22.77c-.22 0-.45.01-.69.03-.24.02-.45.06-.65.11-.19.06-.35.14-.48.26-.13.11-.19.27-.19.46 0 .13.03.24.08.33.05.09.12.16.21.22s.19.1.29.12c.11.02.22.03.33.03.42 0 .74-.12.96-.38.23-.25.34-.57.34-.95v-.24h-.2zM111.35 538.91c.01.11.02.24.03.38s.01.26.01.36h.03c.06-.12.13-.23.23-.34.1-.1.21-.2.34-.28.13-.08.27-.14.42-.19a1.854 1.854 0 0 1 1.23.08c.21.1.38.23.52.39.14.17.24.36.31.58.07.22.1.46.1.71v2.79h-.89v-2.5c0-.18-.01-.36-.04-.52-.03-.17-.08-.31-.16-.44a.811.811 0 0 0-.31-.3c-.13-.08-.3-.11-.51-.11-.35 0-.64.13-.87.4-.23.27-.34.63-.34 1.08v2.39h-.89v-3.54c0-.12 0-.28-.01-.47-.01-.19-.02-.36-.03-.5h.83zM119.67 542.7c-.17.27-.4.48-.7.62s-.6.21-.93.21c-.35 0-.66-.06-.94-.18a1.93 1.93 0 0 1-.71-.51c-.2-.21-.35-.47-.46-.76-.11-.29-.16-.6-.16-.93 0-.33.05-.64.16-.93.11-.29.26-.54.46-.75.2-.22.44-.38.72-.5.28-.12.59-.18.92-.18.37 0 .69.08.96.23.27.16.49.34.65.57h.02v-3.35h.89v7.18h-.86v-.71h-.02zm-2.97-1.54c0 .21.03.41.09.61s.16.37.29.52c.13.15.28.27.47.36.18.09.4.14.65.14.23 0 .44-.04.62-.13.19-.09.35-.21.48-.36s.24-.32.31-.52.11-.4.11-.62-.04-.42-.11-.62-.18-.37-.31-.52c-.13-.15-.29-.27-.48-.36-.19-.09-.39-.13-.62-.13-.25 0-.46.04-.65.13-.18.09-.34.21-.47.36-.13.15-.22.33-.29.52-.06.21-.09.41-.09.62zM125.37 542.7v.71h-.86v-7.18h.89v3.35h.03c.15-.22.36-.41.63-.57.27-.16.59-.23.97-.23.33 0 .64.06.91.18s.51.29.71.5c.2.21.35.47.46.75.11.29.16.6.16.93a2.507 2.507 0 0 1-.61 1.69c-.2.22-.43.38-.71.51-.28.12-.59.18-.94.18a2.1 2.1 0 0 1-.92-.21c-.29-.14-.52-.35-.7-.62h-.02zm2.99-1.54c0-.21-.03-.41-.09-.61s-.16-.37-.29-.52c-.13-.15-.28-.27-.47-.36-.19-.09-.4-.13-.65-.13-.23 0-.44.04-.62.13-.19.09-.35.21-.48.36a1.71 1.71 0 0 0-.42 1.14c0 .22.04.42.11.62s.18.37.31.52c.13.15.29.27.48.36.19.09.39.13.62.13.25 0 .46-.05.65-.14.19-.09.34-.21.47-.36.13-.15.22-.33.29-.52.06-.21.09-.41.09-.62zM133.7 543.41c-.01-.11-.02-.24-.03-.38s-.01-.26-.01-.36h-.02c-.11.24-.31.45-.57.61-.27.17-.57.25-.9.25-.29 0-.54-.05-.76-.14-.21-.1-.39-.23-.52-.39-.14-.17-.24-.36-.3-.58s-.1-.46-.1-.71v-2.79h.89v2.49c0 .18.01.36.04.53.03.17.08.32.16.44.08.13.18.23.31.3.13.08.3.11.51.11.36 0 .65-.13.87-.4.22-.27.33-.63.33-1.08v-2.39h.89v3.53c0 .12 0 .28.01.47.01.19.02.36.03.5h-.83zM138.26 539.64h-1.2v2.34c0 .27.05.47.15.58.1.12.26.17.48.17.08 0 .17-.01.27-.03.1-.02.18-.04.26-.08l.03.73c-.11.04-.23.07-.36.09-.13.02-.26.03-.4.03-.42 0-.75-.12-.97-.35-.22-.23-.34-.59-.34-1.05v-2.44h-.86v-.73h.86v-1.29h.88v1.29h1.2v.74zM141.25 539.64h-1.2v2.34c0 .27.05.47.15.58.1.12.26.17.48.17.08 0 .17-.01.27-.03.1-.02.18-.04.26-.08l.03.73c-.11.04-.23.07-.36.09-.13.02-.26.03-.4.03-.42 0-.75-.12-.97-.35-.22-.23-.34-.59-.34-1.05v-2.44h-.86v-.73h.86v-1.29h.88v1.29h1.2v.74zM146.73 541.15c0 .35-.06.67-.19.96s-.29.54-.51.75a2.3 2.3 0 0 1-.77.49c-.3.12-.62.18-.96.18-.34 0-.66-.06-.96-.18-.3-.12-.55-.28-.77-.49-.22-.21-.38-.46-.51-.75s-.19-.61-.19-.96.06-.67.19-.96c.12-.29.29-.54.51-.75.22-.21.47-.37.77-.49s.62-.18.96-.18c.34 0 .66.06.96.18a2.257 2.257 0 0 1 1.28 1.24c.13.3.19.61.19.96zm-.93.01c0-.21-.03-.42-.1-.62s-.16-.37-.29-.52-.28-.27-.47-.36c-.19-.09-.4-.13-.64-.13s-.46.04-.64.13-.34.21-.47.36c-.13.15-.22.32-.29.52-.07.2-.1.4-.1.62s.03.42.1.62.16.37.29.52c.13.15.28.27.47.36s.4.13.64.13.46-.04.64-.13c.19-.09.34-.21.47-.36.13-.15.22-.33.29-.52.06-.2.1-.41.1-.62zM151.12 540.05c-.09-.15-.24-.27-.43-.37-.19-.1-.39-.15-.61-.15-.23 0-.44.04-.62.13s-.33.21-.46.36-.22.32-.29.52c-.07.2-.1.4-.1.62 0 .21.03.42.1.62s.16.37.29.52a1.391 1.391 0 0 0 1.1.49c.23 0 .44-.04.62-.13.19-.09.34-.21.46-.36l.6.54c-.19.22-.43.39-.71.52-.28.12-.61.18-.97.18-.35 0-.67-.06-.96-.17a2.216 2.216 0 0 1-1.27-1.23c-.12-.29-.19-.62-.19-.98 0-.35.06-.68.18-.97.12-.29.29-.54.5-.75s.47-.37.77-.49c.29-.11.61-.17.96-.17.32 0 .63.06.94.19.31.13.56.31.75.55l-.66.53zM153.57 540.87h.03l1.89-1.96h1.2l-2.11 2.04 2.29 2.46h-1.24l-2.03-2.34h-.03v2.34h-.89v-7.18h.89v4.64zM160.04 540.05c-.1-.16-.24-.3-.43-.4s-.39-.16-.62-.16c-.1 0-.2.01-.3.03-.1.02-.19.06-.27.1-.08.05-.14.11-.19.18-.05.07-.07.16-.07.27 0 .19.08.33.26.42s.43.18.77.25c.22.05.42.11.6.18.18.07.34.16.48.26a1.063 1.063 0 0 1 .43.89c0 .27-.05.49-.15.67s-.24.33-.4.45-.36.2-.57.25a2.663 2.663 0 0 1-1.67-.12c-.32-.13-.6-.34-.81-.61l.64-.54c.12.18.29.33.5.45.21.12.44.18.7.18.11 0 .22-.01.33-.03s.2-.06.29-.11c.08-.05.15-.12.2-.2.05-.08.08-.19.08-.31 0-.21-.1-.36-.3-.47s-.49-.2-.88-.29c-.15-.04-.31-.08-.46-.14s-.3-.13-.42-.22-.23-.21-.31-.36-.12-.32-.12-.53c0-.24.05-.45.15-.62s.23-.32.38-.43c.16-.11.34-.19.54-.25.2-.05.41-.08.63-.08.32 0 .63.06.94.19s.53.31.7.55l-.65.55zM162.93 542.84c0 .17-.06.31-.18.44s-.27.19-.46.19a.61.61 0 0 1-.45-.18.604.604 0 0 1-.01-.87c.12-.12.27-.18.46-.18s.34.06.46.18c.12.11.18.25.18.42zM167.38 543.41h-.94v-6.73h2.16c.32 0 .63.03.92.1.29.07.55.17.77.32s.39.34.52.58c.13.24.19.53.19.87 0 .49-.15.89-.46 1.2-.3.3-.7.5-1.18.58l1.88 3.09h-1.14l-1.71-2.99h-1.01v2.98zm0-3.78h1.08c.22 0 .43-.02.62-.06.19-.04.36-.1.5-.19.14-.08.25-.2.34-.33.08-.14.12-.31.12-.51s-.04-.37-.12-.51a.872.872 0 0 0-.33-.33c-.14-.08-.3-.14-.48-.18-.18-.04-.38-.05-.58-.05h-1.15v2.16zM176.32 541.12v.15c0 .05 0 .1-.01.15h-3.58c.01.19.05.37.13.53.08.17.19.31.32.43s.29.22.46.29c.17.07.36.1.56.1.3 0 .57-.07.79-.2.22-.13.4-.29.52-.48l.63.5c-.24.32-.52.55-.85.71-.33.15-.69.23-1.09.23-.34 0-.66-.06-.95-.17-.29-.11-.54-.27-.75-.48s-.37-.45-.49-.75c-.12-.29-.18-.61-.18-.97 0-.35.06-.67.18-.96s.28-.55.49-.76a2.33 2.33 0 0 1 1.66-.67c.33 0 .63.05.9.16s.5.26.69.46c.19.2.33.45.43.74.09.31.14.63.14.99zm-.91-.36c-.01-.18-.04-.34-.09-.5s-.13-.29-.24-.4-.23-.2-.39-.27-.34-.1-.55-.1c-.19 0-.37.03-.54.1-.17.07-.31.16-.44.27a1.376 1.376 0 0 0-.44.9h2.69zM179.99 540.05c-.1-.16-.24-.3-.43-.4s-.39-.16-.62-.16c-.1 0-.2.01-.3.03-.1.02-.19.06-.27.1-.08.05-.14.11-.19.18-.05.07-.07.16-.07.27 0 .19.08.33.26.42s.43.18.77.25c.22.05.42.11.6.18.18.07.34.16.48.26a1.063 1.063 0 0 1 .43.89c0 .27-.05.49-.15.67s-.24.33-.4.45-.36.2-.57.25a2.663 2.663 0 0 1-1.67-.12c-.32-.13-.6-.34-.81-.61l.64-.54c.12.18.29.33.5.45.21.12.44.18.7.18.11 0 .22-.01.33-.03s.2-.06.29-.11c.08-.05.15-.12.2-.2.05-.08.08-.19.08-.31 0-.21-.1-.36-.3-.47s-.49-.2-.88-.29c-.15-.04-.31-.08-.46-.14s-.3-.13-.42-.22-.23-.21-.31-.36-.12-.32-.12-.53c0-.24.05-.45.15-.62s.23-.32.38-.43c.16-.11.34-.19.54-.25.2-.05.41-.08.63-.08.32 0 .63.06.94.19s.53.31.7.55l-.65.55zM184.95 543.41c-.01-.11-.02-.24-.03-.38-.01-.14-.01-.26-.01-.36h-.02c-.11.24-.31.45-.58.61-.27.17-.57.25-.9.25-.29 0-.54-.05-.76-.14-.21-.1-.39-.23-.52-.39a1.53 1.53 0 0 1-.3-.58c-.07-.22-.1-.46-.1-.71v-2.79h.89v2.49c0 .18.01.36.04.53s.08.32.16.44c.08.13.18.23.31.3.13.08.3.11.51.11.36 0 .65-.13.87-.4.22-.27.33-.63.33-1.08v-2.39h.89v3.53c0 .12 0 .28.01.47.01.19.02.36.03.5h-.82zM188.21 543.41h-.89v-7.18h.89v7.18zM191.98 539.64h-1.2v2.34c0 .27.05.47.15.58.1.12.26.17.49.17.08 0 .17-.01.27-.03.09-.02.18-.04.26-.08l.03.73c-.11.04-.23.07-.36.09-.13.02-.26.03-.4.03-.42 0-.75-.12-.97-.35s-.34-.59-.34-1.05v-2.44h-.87v-.73h.87v-1.29h.88v1.29h1.2v.74zM195.33 540.05c-.1-.16-.24-.3-.43-.4s-.39-.16-.62-.16c-.1 0-.2.01-.3.03-.1.02-.19.06-.27.1-.08.05-.14.11-.19.18-.05.07-.07.16-.07.27 0 .19.08.33.26.42s.43.18.77.25c.22.05.42.11.6.18.18.07.34.16.48.26a1.063 1.063 0 0 1 .43.89c0 .27-.05.49-.15.67s-.24.33-.4.45-.36.2-.57.25a2.663 2.663 0 0 1-1.67-.12c-.32-.13-.6-.34-.81-.61l.64-.54c.12.18.29.33.5.45.21.12.44.18.7.18.11 0 .22-.01.33-.03s.2-.06.29-.11c.08-.05.15-.12.2-.2.05-.08.08-.19.08-.31 0-.21-.1-.36-.3-.47s-.49-.2-.88-.29c-.15-.04-.31-.08-.46-.14s-.3-.13-.42-.22-.23-.21-.31-.36-.12-.32-.12-.53c0-.24.05-.45.15-.62s.23-.32.38-.43c.16-.11.34-.19.54-.25.2-.05.41-.08.63-.08.32 0 .63.06.94.19s.53.31.7.55l-.65.55zM200.91 539.04c.25-.17.55-.25.89-.25.3 0 .58.07.82.21.24.14.44.37.58.69.15-.29.36-.51.64-.67s.57-.23.89-.23c.29 0 .54.05.75.15.21.1.38.23.52.39.14.17.24.36.31.58.07.22.1.46.1.71v2.79h-.89v-2.5c0-.18-.02-.36-.05-.52-.03-.17-.09-.31-.16-.44s-.18-.23-.3-.3-.29-.11-.48-.11c-.2 0-.38.04-.52.13-.15.09-.26.2-.36.33-.09.14-.16.29-.2.46s-.06.34-.06.52v2.43h-.89v-2.68c0-.18-.02-.34-.05-.48-.03-.15-.09-.27-.16-.38s-.17-.19-.29-.25c-.12-.06-.27-.09-.45-.09-.33 0-.6.13-.82.4-.22.27-.33.63-.33 1.08v2.39h-.89v-3.54c0-.12 0-.28-.01-.47-.01-.19-.02-.36-.03-.5h.85c.01.11.02.24.03.38.01.14.01.26.01.36h.03c.09-.22.27-.42.52-.59zM210.73 540.5c0-.34-.1-.58-.3-.75-.2-.16-.47-.24-.81-.24-.25 0-.49.05-.72.15-.23.1-.41.22-.57.38l-.48-.57c.22-.21.49-.37.81-.49.32-.12.66-.18 1.03-.18.32 0 .6.05.84.14s.43.22.58.38c.15.16.27.34.34.56.08.21.11.45.11.69v1.97c0 .15 0 .31.01.48s.03.31.05.41h-.81c-.05-.21-.08-.43-.08-.65h-.03c-.16.24-.37.43-.62.56-.25.13-.55.2-.89.2-.18 0-.36-.02-.56-.07-.19-.05-.37-.12-.53-.23-.16-.11-.29-.25-.39-.43-.1-.18-.16-.4-.16-.66 0-.34.09-.61.28-.81.18-.2.42-.35.72-.46s.63-.17 1.01-.2c.37-.03.75-.05 1.13-.05v-.13zm-.22.77c-.22 0-.45.01-.69.03-.24.02-.45.06-.65.11-.19.06-.35.14-.48.26-.13.11-.19.27-.19.46 0 .13.03.24.08.33s.12.16.21.22.19.1.29.12c.11.02.22.03.33.03.42 0 .74-.12.96-.38.22-.25.34-.57.34-.95v-.24h-.2zM214.78 542.44h.02l1.25-3.53h.95l-2.19 5.57c-.08.19-.16.36-.25.51-.09.15-.19.28-.31.38-.12.1-.26.18-.42.24-.16.06-.35.08-.58.08-.09 0-.19 0-.29-.01-.1-.01-.2-.03-.3-.05l.08-.79c.15.05.3.08.45.08.23 0 .41-.06.52-.19s.22-.32.31-.56l.29-.75-1.93-4.5h1l1.4 3.52zM222.36 543.41h-.97l-1.83-4.5h.99l1.32 3.54h.02l1.33-3.54h.95l-1.81 4.5zM227.83 540.5c0-.34-.1-.58-.3-.75-.2-.16-.47-.24-.81-.24-.25 0-.49.05-.72.15-.23.1-.41.22-.57.38l-.48-.57c.22-.21.49-.37.81-.49.32-.12.66-.18 1.03-.18.32 0 .6.05.84.14s.43.22.58.38c.15.16.27.34.34.56.08.21.11.45.11.69v1.97c0 .15 0 .31.01.48s.03.31.05.41h-.81c-.05-.21-.08-.43-.08-.65h-.03c-.16.24-.37.43-.62.56-.25.13-.55.2-.89.2-.18 0-.36-.02-.56-.07-.19-.05-.37-.12-.53-.23-.16-.11-.29-.25-.39-.43-.1-.18-.16-.4-.16-.66 0-.34.09-.61.28-.81.18-.2.42-.35.72-.46s.63-.17 1.01-.2c.37-.03.75-.05 1.13-.05v-.13zm-.22.77c-.22 0-.45.01-.69.03-.24.02-.45.06-.65.11-.19.06-.35.14-.48.26-.13.11-.19.27-.19.46 0 .13.03.24.08.33s.12.16.21.22.19.1.29.12c.11.02.22.03.33.03.42 0 .74-.12.96-.38.22-.25.34-.57.34-.95v-.24h-.2zM230.17 539.41c-.01-.19-.02-.36-.03-.5h.85c.01.11.02.25.03.39.01.15.01.27.01.37h.03c.13-.27.31-.48.56-.64.24-.16.52-.24.82-.24.14 0 .26.01.35.04l-.04.83a1.77 1.77 0 0 0-.41-.05c-.22 0-.4.04-.56.12s-.29.18-.39.32c-.1.13-.18.29-.23.46-.05.17-.08.36-.08.55v2.37h-.89v-3.54a6.11 6.11 0 0 1-.02-.48zM235.33 542.44h.02l1.25-3.53h.95l-2.19 5.57c-.08.19-.16.36-.25.51-.09.15-.19.28-.31.38-.12.1-.26.18-.42.24-.16.06-.35.08-.58.08-.09 0-.19 0-.29-.01-.1-.01-.2-.03-.3-.05l.08-.79c.15.05.3.08.45.08.23 0 .41-.06.52-.19s.22-.32.31-.56l.29-.75-1.93-4.5h1l1.4 3.52zM239.17 542.84c0 .17-.06.31-.18.44s-.27.19-.46.19a.61.61 0 0 1-.45-.18.604.604 0 0 1-.01-.87c.12-.12.27-.18.46-.18s.34.06.46.18c.12.11.18.25.18.42z"/></svg>