<svg id="Layer_1" xmlns="http://www.w3.org/2000/svg" viewBox="0 0 300 600"><style>.st0{fill:#fff}</style><path class="st0" d="M133.27 48.94c-1.98 0-2.93-1.43-2.93-2.81 0-1.59 1.15-2.87 2.96-2.87.62 0 1.25.19 1.76.61l-.56.78c-.35-.27-.72-.37-1.16-.37-.96 0-1.68.67-1.68 1.81 0 1.05.66 1.88 1.71 1.88.45 0 .84-.13 1.19-.43l.51.78c-.49.42-1.16.62-1.8.62M138.11 48.94c-1.66 0-2.87-1.25-2.87-2.87 0-1.67 1.33-2.81 2.87-2.81s2.89 1.13 2.89 2.8c0 1.63-1.22 2.88-2.89 2.88m1.56-2.87c0-1-.49-1.87-1.55-1.87-1.04 0-1.55.87-1.55 1.86 0 1.02.48 1.93 1.55 1.93s1.55-.9 1.55-1.93v.01zM144.36 48.94c-1.66 0-2.87-1.25-2.87-2.87 0-1.67 1.33-2.81 2.87-2.81s2.89 1.13 2.89 2.8c-.01 1.63-1.23 2.88-2.89 2.88m1.55-2.87c0-1-.49-1.87-1.55-1.87-1.04 0-1.56.87-1.56 1.86 0 1.02.48 1.93 1.56 1.93 1.07 0 1.55-.9 1.55-1.93v.01zM147.89 48.8v-7.96l1.24.68v7.28zM151.99 48.97c-1.4 0-2.07-.67-2.07-.67l.56-.72s.64.42 1.48.42c.4 0 .74-.28.74-.56s-.12-.51-.49-.7c-.37-.19-.78-.39-1.11-.54-.32-.16-1.04-.63-1.04-1.57 0-.95.96-1.47 1.95-1.47.94 0 1.66.61 1.66.61l-.48.73s-.54-.38-1.13-.38-.72.38-.72.53c0 .16.06.4.44.6.38.2.77.41 1.33.72s.87.84.87 1.45c-.01.62-.59 1.55-1.99 1.55M157.33 48.94c-1.98 0-2.93-1.43-2.93-2.81 0-1.59 1.15-2.87 2.96-2.87.62 0 1.25.19 1.76.61l-.56.78c-.35-.27-.72-.37-1.16-.37-.96 0-1.68.67-1.68 1.81 0 1.05.66 1.88 1.71 1.88.45 0 .84-.13 1.19-.43l.51.78c-.49.42-1.16.62-1.8.62M163.45 48.17s-.63.77-1.81.77c-1.4 0-2.08-1.01-2.08-2.04v-3.52h1.24v3.47c0 .6.47 1.1 1.2 1.1.64 0 1.26-.76 1.26-.76v-3.81h1.24v5.42l-1.05-.63zM165.61 48.8v-7.96l1.24.68v7.28zM170.95 48.94c-1.1 0-1.72-.61-1.72-.61v2.7h-1.25v-7.76l1.25.66s.67-.68 1.79-.68c1.17 0 2.64.9 2.64 2.91 0 2.01-1.44 2.78-2.71 2.78m-.08-4.74c-1.06 0-1.68.99-1.68.99v2.05s.7.79 1.72.79c1.19 0 1.44-1.41 1.44-1.9.01-.5-.1-1.93-1.48-1.93M176.93 48.95h-.78c-.98 0-1.32-.95-1.32-1.57v-3.19h-.98v-.81h.98v-2.39h1.23v2.39h1.26v.81h-1.25v2.89c0 .32-.06.83.49.83h.89l-.52 1.04zM178.92 42.44c-.45 0-.82-.37-.82-.81 0-.44.37-.81.82-.81.45 0 .82.37.82.81-.01.45-.38.81-.82.81m-.62.94h1.22v5.43h-1.22v-5.43zM184.44 48.8v-3.47c0-.6-.47-1.1-1.2-1.1-.64 0-1.35.76-1.35.76v3.81h-1.24v-5.42l1.05.62s.72-.77 1.9-.77c1.4 0 2.08 1.01 2.08 2.03v3.53h-1.24zM189.48 51.33c-.19 0-1.65-.02-1.65-.02l.02-.99h1.22c1.19 0 1.86-.63 1.86-1.5v-.49s-.65.61-1.74.61c-1.26 0-2.71-.77-2.71-2.78s1.47-2.91 2.64-2.91c1.12 0 1.79.68 1.79.68l1.25-.62v5.39c0 1.45-.97 2.63-2.68 2.63m1.46-6.14s-.61-.99-1.68-.99c-1.38 0-1.49 1.43-1.49 1.92s.26 1.9 1.44 1.9c1.02 0 1.72-.79 1.72-.79v-2.04zM117.77 46.33l-2.29 2.28 2.8 1.04 3.34-3.32zM121.95 41.72l-2.27-2.26-1.07 2.76 3.34 3.32zM126.08 42.55l3.06.8-2.55 2.52h-3.85zM125.88 50.11l-.87 2.96-4.75-4.72 1.92-1.92zM194.01 43.74c0 .32-.26.58-.59.58-.33 0-.59-.26-.59-.58 0-.32.26-.57.6-.57.32 0 .58.25.58.57zm-1.03 0c0 .25.19.46.45.46.25 0 .44-.2.44-.45a.45.45 0 0 0-.45-.46c-.25 0-.44.2-.44.45zm.35.3h-.13v-.57c.05-.01.13-.02.22-.02.11 0 .16.02.2.05.04.02.06.07.06.12 0 .07-.05.11-.12.14v.01c.06.02.08.06.1.14.02.09.03.12.04.14h-.14c-.02-.02-.03-.07-.05-.14-.01-.06-.05-.09-.12-.09h-.06v.22zm.01-.32h.06c.07 0 .13-.02.13-.08 0-.05-.04-.09-.12-.09-.04 0-.06 0-.07.01v.16z"/><g><path class="st0" d="M119.22 52.92v-3.55l.71-.7 2.02 2.01v.68zM118.9 43.17h-2.95l.95 2.7h4.72zM128.83 49.04h-3.36l-2.73-2.71h4.73zM122.42 40.85l2.72-1.61v3.6l-2.72 2.7zM127.2 50.3c0 .22-.18.4-.41.4-.23 0-.41-.18-.41-.4 0-.22.18-.4.41-.4.23.01.41.18.41.4zm-.71 0c0 .18.13.32.31.32.17 0 .3-.14.3-.31 0-.18-.13-.32-.31-.32-.17 0-.3.14-.3.31zm.24.21h-.09v-.4c.04 0 .09-.01.15-.01.08 0 .11.01.14.03.02.02.04.05.04.08 0 .05-.04.08-.08.09.04.01.06.04.07.1.01.06.02.08.03.1h-.1a.295.295 0 0 1-.03-.1c-.01-.04-.03-.06-.08-.06h-.04v.17zm.01-.23h.04c.05 0 .09-.02.09-.06 0-.04-.03-.06-.09-.06h-.05v.12z"/></g><g><path class="st0" d="M104.9 43.54h.49v2.71h.02c.08-.12.17-.22.28-.3.11-.08.22-.15.34-.21s.24-.09.37-.12c.13-.02.25-.04.36-.04.27 0 .52.05.75.14.23.09.42.22.58.38.16.16.29.36.38.58.09.22.14.46.14.73s-.05.5-.14.73c-.09.22-.22.41-.38.58-.16.16-.36.29-.58.38-.23.09-.48.14-.75.14-.11 0-.23-.01-.36-.04-.13-.02-.25-.06-.37-.12-.12-.05-.23-.12-.34-.21-.11-.08-.2-.19-.28-.3h-.02v.58h-.49v-5.61zm3.18 3.86c0-.19-.03-.37-.09-.54-.06-.17-.15-.31-.26-.44-.11-.12-.25-.22-.41-.29-.16-.07-.34-.11-.55-.11a1.434 1.434 0 0 0-1 .4 1.349 1.349 0 0 0-.39.98c0 .19.03.37.1.54.07.17.17.31.29.44a1.434 1.434 0 0 0 1 .4c.21 0 .39-.04.55-.11a1.219 1.219 0 0 0 .67-.73c.06-.17.09-.35.09-.54zM110.75 48.53l1.06-2.86h.6l-1.74 4.37c-.1.27-.24.48-.4.64-.16.16-.39.24-.7.24-.07 0-.15 0-.23-.01-.08 0-.15-.02-.23-.04l.05-.47c.1.05.23.08.37.08.17 0 .31-.05.41-.16.1-.11.19-.26.26-.46l.25-.67-1.43-3.51h.62l1.11 2.85z"/></g><g><path class="st0" d="M114.6 32.77c-1.07.93-2.39 1.39-3.97 1.39-2.06 0-3.67-.67-4.86-2-1.07-1.2-1.6-2.65-1.6-4.35 0-1.82.6-3.34 1.8-4.57 1.2-1.23 2.79-1.85 4.76-1.85 1.51 0 2.79.46 3.85 1.38l-1.23 1.73c-.71-.53-1.56-.8-2.56-.8-1.09 0-1.97.37-2.65 1.1-.68.73-1.02 1.72-1.02 2.97 0 1.21.34 2.22 1.02 3.02.68.8 1.59 1.2 2.72 1.2.99 0 1.87-.32 2.64-.95l1.1 1.73zM127.43 27.69c0 1.85-.6 3.39-1.81 4.62s-2.73 1.85-4.55 1.85c-1.82 0-3.34-.62-4.54-1.85-1.2-1.23-1.8-2.77-1.8-4.62 0-1.82.63-3.33 1.9-4.55 1.22-1.17 2.7-1.75 4.44-1.75 1.74 0 3.23.58 4.46 1.75 1.26 1.22 1.9 2.74 1.9 4.55zm-2.94 0c0-1.18-.28-2.16-.84-2.92-.62-.83-1.49-1.25-2.59-1.25s-1.96.42-2.56 1.25c-.56.77-.84 1.74-.84 2.92 0 1.25.27 2.26.81 3.05.61.86 1.47 1.3 2.59 1.3 1.12 0 1.99-.43 2.61-1.3.55-.78.82-1.8.82-3.05zM141.06 27.69c0 1.85-.6 3.39-1.81 4.62s-2.72 1.85-4.55 1.85c-1.82 0-3.34-.62-4.54-1.85-1.2-1.23-1.8-2.77-1.8-4.62 0-1.82.63-3.33 1.9-4.55 1.22-1.17 2.7-1.75 4.44-1.75 1.74 0 3.23.58 4.46 1.75 1.27 1.22 1.9 2.74 1.9 4.55zm-2.93 0c0-1.18-.28-2.16-.84-2.92-.62-.83-1.49-1.25-2.59-1.25s-1.96.42-2.56 1.25c-.56.77-.84 1.74-.84 2.92 0 1.25.27 2.26.81 3.05.61.86 1.47 1.3 2.59 1.3 1.12 0 1.99-.43 2.61-1.3.55-.78.82-1.8.82-3.05zM145.25 33.89h-2.74V15.97l2.74 1.53v16.39zM166.17 27.69c0 1.85-.6 3.39-1.81 4.62s-2.72 1.85-4.55 1.85c-1.82 0-3.34-.62-4.54-1.85-1.2-1.23-1.8-2.77-1.8-4.62 0-1.82.63-3.33 1.9-4.55 1.22-1.17 2.7-1.75 4.44-1.75 1.74 0 3.23.58 4.46 1.75 1.26 1.22 1.9 2.74 1.9 4.55zm-2.94 0c0-1.18-.28-2.16-.84-2.92-.62-.83-1.49-1.25-2.59-1.25-1.1 0-1.96.42-2.56 1.25-.56.77-.84 1.74-.84 2.92 0 1.25.27 2.26.81 3.05.61.86 1.47 1.3 2.59 1.3 1.12 0 1.99-.43 2.61-1.3.55-.78.82-1.8.82-3.05zM178.62 33.89h-2.74V26.1c0-.7-.24-1.29-.73-1.76-.48-.47-1.12-.71-1.91-.71-.87 0-1.87.57-2.98 1.7v8.57h-2.74V21.7l2.32 1.4c1.18-1.15 2.58-1.73 4.19-1.73 1.45 0 2.6.48 3.45 1.43.76.85 1.13 1.9 1.13 3.15v7.94zM191.98 28.36h-8.75c.33 2.49 1.5 3.73 3.5 3.73 1.23 0 2.24-.35 3.03-1.05l1.08 1.78c-1.05.97-2.45 1.45-4.19 1.45-2.42 0-4.18-.91-5.3-2.73-.69-1.12-1.04-2.27-1.04-3.45 0-1.45.28-2.71.84-3.78 1-1.95 2.79-2.93 5.35-2.93 2.53 0 4.2 1.16 5.01 3.48.35.98.51 2.15.47 3.5zm-2.76-1.8c-.1-2.15-1.02-3.23-2.76-3.23-1.92 0-2.98 1.08-3.18 3.23h5.94zM151.17 31.89c-.53 0-.85-.23-.99-.68-.07-.18-.1-.58-.1-1.2v-5.08h1.9V23.1h-1.9v-2.91l-2.74-1.53v12.02c0 .87.21 1.63.64 2.28.53.83 1.28 1.25 2.27 1.25h1.73l1.16-2.33h-1.97z"/><g><path class="st0" d="M195.13 22.68c0 .72-.58 1.29-1.33 1.29-.74 0-1.33-.57-1.33-1.29 0-.72.59-1.29 1.34-1.29.73 0 1.32.57 1.32 1.29zm-2.33 0c0 .57.43 1.03 1.01 1.03.56.01.99-.46.99-1.02 0-.57-.43-1.04-1-1.04-.57 0-1 .46-1 1.03zm.79.66h-.3v-1.29c.12-.02.28-.04.5-.04.25 0 .36.04.44.1.08.06.13.15.13.27 0 .16-.12.26-.27.31v.02c.13.04.19.14.23.31.04.2.07.27.09.31h-.32c-.04-.05-.06-.16-.1-.31-.02-.13-.1-.2-.27-.2h-.14v.52zm.01-.72h.14c.17 0 .3-.05.3-.19 0-.12-.09-.2-.28-.2-.08 0-.13.01-.17.02v.37z"/></g></g></svg>