<?xml version="1.0" encoding="utf-8"?>
<!-- Generator: Adobe Illustrator 25.2.1, SVG Export Plug-In . SVG Version: 6.00 Build 0)  -->
<svg version="1.1" id="Layer_1" xmlns="http://www.w3.org/2000/svg" xmlns:xlink="http://www.w3.org/1999/xlink" x="0px" y="0px"
	 viewBox="0 0 500 281" style="enable-background:new 0 0 500 281;" xml:space="preserve">
<style type="text/css">
	.st0{fill:#EAF5FB;}
</style>
<g>
	<path class="st0" d="M21.8,95.79v-4.84h2.32v4.4c0,2.28,0.64,3.2,2.24,3.2c1.64,0,2.28-0.92,2.28-3.2v-4.16
		c0-1.88-0.52-2.8-1.88-3.68l-2.12-1.36c-2.04-1.32-2.84-2.84-2.84-5.53v-3.56c0-3.04,1.64-4.76,4.48-4.76s4.48,1.72,4.48,4.76v3.56
		h-2.32v-3.16c0-2.16-0.6-3-2.12-3s-2.12,0.84-2.12,3v3c0,1.88,0.52,2.8,1.88,3.68l2.12,1.36c2.04,1.32,2.84,2.84,2.84,5.53v4.76
		c0,3.16-1.72,4.92-4.64,4.92S21.8,98.95,21.8,95.79z"/>
	<path class="st0" d="M37.69,74.77h-3.36v-2.08h9.13v2.08h-3.36v25.54h-2.4V74.77z"/>
	<path class="st0" d="M47.38,72.69h4.44c3.2,0,4.72,1.64,4.72,5v3.52c0,2.24-0.72,3.6-2.16,4.24v0.08c1.44,0.64,2.16,2,2.16,4.28
		v10.49h-2.4V89.98c0-2.56-0.72-3.32-3-3.32h-1.36v13.65h-2.4V72.69z M51.54,84.58c2,0,2.6-0.76,2.6-3.32v-3.16
		c0-2.56-0.6-3.32-2.6-3.32h-1.76v9.81H51.54z"/>
	<path class="st0" d="M61.23,72.69h7.93v2.08h-5.53v9.65h4.8v2.08h-4.8v11.73h5.53v2.08h-7.93V72.69z"/>
	<path class="st0" d="M73.25,72.69h3.12l4.36,20.22h0.08V72.69h2.16v27.63h-2.6l-4.88-22.78h-0.08v22.78h-2.16V72.69z"/>
	<path class="st0" d="M87.7,96.39V77.25c0-3.16,1.72-4.96,4.6-4.96c2.92,0,4.56,1.8,4.56,4.96v3.04h-2.28v-2.6
		c0-2.32-0.64-3.24-2.24-3.24c-1.64,0-2.24,0.92-2.24,3.24v18.42c0,1.64,0.6,2.44,1.92,2.44c1.64,0,2.56-1.24,2.56-3.48v-7.93h-2.24
		v-2.08h4.64v15.25h-2.04v-1.96h-0.12c-0.64,1.52-1.8,2.36-3.44,2.36C89.06,100.71,87.7,99.07,87.7,96.39z"/>
	<path class="st0" d="M103.91,74.77h-3.36v-2.08h9.13v2.08h-3.36v25.54h-2.4V74.77z"/>
	<path class="st0" d="M113.6,72.69h2.4v11.73h4.52V72.69h2.4v27.63h-2.4V86.5h-4.52v13.81h-2.4V72.69z"/>
	<path class="st0" d="M127.82,72.69h7.93v2.08h-5.53v9.65h4.8v2.08h-4.8v11.73h5.53v2.08h-7.93V72.69z"/>
	<path class="st0" d="M139.83,72.69h3.12l4.36,20.22h0.08V72.69h2.16v27.63h-2.6l-4.88-22.78h-0.08v22.78h-2.16V72.69z"/>
	<path class="st0" d="M155.36,100.31h-0.96v-3.28h2.72v2.88l-1.76,4.44h-1.4L155.36,100.31z"/>
	<path class="st0" d="M171.22,74.77h-3.36v-2.08h9.13v2.08h-3.36v25.54h-2.4V74.77z"/>
	<path class="st0" d="M180.43,95.71V77.29c0-3.2,1.72-5,4.64-5s4.64,1.8,4.64,5v18.42c0,3.2-1.72,5-4.64,5
		S180.43,98.91,180.43,95.71z M187.31,95.31V77.69c0-2.32-0.64-3.24-2.24-3.24c-1.64,0-2.24,0.92-2.24,3.24v17.62
		c0,2.32,0.6,3.24,2.24,3.24C186.67,98.55,187.31,97.63,187.31,95.31z"/>
	<path class="st0" d="M194.44,72.69h3.12l4.36,20.22h0.08V72.69h2.16v27.63h-2.6l-4.88-22.78h-0.08v22.78h-2.16V72.69z"/>
	<path class="st0" d="M209.05,72.69h7.93v2.08h-5.53v9.65h4.8v2.08h-4.8v11.73h5.53v2.08h-7.93V72.69z"/>
	<path class="st0" d="M222.39,100.31h-0.96v-3.28h2.72v2.88l-1.76,4.44h-1.4L222.39,100.31z"/>
	<path class="st0" d="M26.4,111.73h3.16l3.48,27.63H30.6l-0.8-6.85h-3.76l-0.8,6.85h-2.32L26.4,111.73z M29.56,130.42l-1.6-14.89
		h-0.08l-1.6,14.89H29.56z"/>
	<path class="st0" d="M37.01,111.73h3.12l4.36,20.22h0.08v-20.22h2.16v27.63h-2.6l-4.88-22.78h-0.08v22.78h-2.16V111.73z"/>
	<path class="st0" d="M51.62,111.73h4.56c3.2,0,4.72,1.64,4.72,5v17.62c0,3.36-1.52,5-4.72,5h-4.56V111.73z M55.91,137.27
		c2,0,2.6-0.76,2.6-3.32v-16.82c0-2.56-0.6-3.32-2.6-3.32h-1.88v23.46H55.91z"/>
	<path class="st0" d="M72.4,111.73h7.93v2.08h-5.53v10.05h4.8v2.08h-4.8v13.41h-2.4V111.73z"/>
	<path class="st0" d="M84.26,111.73h2.4v27.63h-2.4V111.73z"/>
	<path class="st0" d="M91.54,111.73h4.44c3.2,0,4.72,1.64,4.72,5v3.52c0,2.24-0.72,3.6-2.16,4.24v0.08c1.44,0.64,2.16,2,2.16,4.28
		v10.49h-2.4v-10.33c0-2.56-0.72-3.32-3-3.32h-1.36v13.65h-2.4V111.73z M95.71,123.62c2,0,2.6-0.76,2.6-3.32v-3.16
		c0-2.56-0.6-3.32-2.6-3.32h-1.76v9.81H95.71z"/>
	<path class="st0" d="M105.4,111.73h3.8l3.08,20.38h0.08l3.08-20.38h3.96v27.63h-2.4v-24.7h-0.08l-3.72,24.7h-1.88l-3.72-24.7h-0.08
		v24.7h-2.12V111.73z"/>
	<path class="st0" d="M131.1,111.73h3.8l3.08,20.38h0.08l3.08-20.38h3.96v27.63h-2.4v-24.7h-0.08l-3.72,24.7h-1.88l-3.72-24.7h-0.08
		v24.7h-2.12V111.73z"/>
	<path class="st0" d="M149.92,134.91v-23.18h2.4v22.74c0,2.24,0.56,3.12,2.16,3.12s2.16-0.88,2.16-3.12v-22.74h2.32v23.18
		c0,3.08-1.68,4.84-4.52,4.84S149.92,137.99,149.92,134.91z"/>
	<path class="st0" d="M163.33,134.83v-4.84h2.32v4.4c0,2.28,0.64,3.2,2.24,3.2c1.64,0,2.28-0.92,2.28-3.2v-4.16
		c0-1.88-0.52-2.8-1.88-3.68l-2.12-1.36c-2.04-1.32-2.84-2.84-2.84-5.53v-3.56c0-3.04,1.64-4.76,4.48-4.76s4.48,1.72,4.48,4.76v3.56
		h-2.32v-3.16c0-2.16-0.6-3-2.12-3s-2.12,0.84-2.12,3v3c0,1.88,0.52,2.8,1.88,3.68l2.12,1.36c2.04,1.32,2.84,2.84,2.84,5.53v4.76
		c0,3.16-1.72,4.92-4.64,4.92S163.33,137.99,163.33,134.83z"/>
	<path class="st0" d="M176.78,134.99v-18.9c0-3.04,1.6-4.76,4.48-4.76c2.92,0,4.52,1.72,4.52,4.76v4.52h-2.28v-4.12
		c0-2.16-0.64-3-2.16-3c-1.56,0-2.16,0.84-2.16,3v18.1c0,2.16,0.6,3,2.16,3c1.52,0,2.16-0.84,2.16-3v-5.57h2.28v5.97
		c0,3.04-1.6,4.76-4.52,4.76C178.38,139.75,176.78,138.03,176.78,134.99z"/>
	<path class="st0" d="M190.24,111.73h2.4v25.54h5.12v2.08h-7.53V111.73z"/>
	<path class="st0" d="M201.69,111.73h7.93v2.08h-5.53v9.65h4.8v2.08h-4.8v11.73h5.53v2.08h-7.93V111.73z"/>
	<path class="st0" d="M213.34,134.83v-4.84h2.32v4.4c0,2.28,0.64,3.2,2.24,3.2c1.64,0,2.28-0.92,2.28-3.2v-4.16
		c0-1.88-0.52-2.8-1.88-3.68l-2.12-1.36c-2.04-1.32-2.84-2.84-2.84-5.53v-3.56c0-3.04,1.64-4.76,4.48-4.76s4.48,1.72,4.48,4.76v3.56
		h-2.32v-3.16c0-2.16-0.6-3-2.12-3s-2.12,0.84-2.12,3v3c0,1.88,0.52,2.8,1.88,3.68l2.12,1.36c2.04,1.32,2.84,2.84,2.84,5.53v4.76
		c0,3.16-1.72,4.92-4.64,4.92S213.34,137.99,213.34,134.83z"/>
	<path class="st0" d="M226.95,136.07h2.68v3.28h-2.68V136.07z"/>
</g>
</svg>
