<?xml version="1.0" encoding="utf-8"?>
<!-- Generator: Adobe Illustrator 25.2.1, SVG Export Plug-In . SVG Version: 6.00 Build 0)  -->
<svg version="1.1" id="Layer_1" xmlns="http://www.w3.org/2000/svg" xmlns:xlink="http://www.w3.org/1999/xlink" x="0px" y="0px"
	 viewBox="0 0 500 281" style="enable-background:new 0 0 500 281;" xml:space="preserve">
<style type="text/css">
	.st0{fill:#FFFFFF;}
</style>
<g>
	<path class="st0" d="M23.58,222.29h-0.94v-6.73h0.94V222.29z"/>
	<path class="st0" d="M27.29,222.29h-0.97l-1.84-4.51h0.99l1.32,3.55h0.02l1.33-3.55h0.95L27.29,222.29z"/>
	<path class="st0" d="M32.77,219.37c0-0.34-0.1-0.58-0.3-0.75c-0.2-0.16-0.47-0.24-0.81-0.24c-0.25,0-0.49,0.05-0.72,0.15
		c-0.23,0.1-0.41,0.22-0.57,0.38l-0.48-0.57c0.22-0.21,0.49-0.37,0.81-0.49s0.66-0.18,1.03-0.18c0.32,0,0.6,0.05,0.84,0.14
		s0.43,0.22,0.58,0.38c0.15,0.16,0.27,0.35,0.34,0.56c0.08,0.22,0.11,0.45,0.11,0.69v1.97c0,0.15,0,0.31,0.01,0.48
		c0.01,0.17,0.03,0.31,0.05,0.41h-0.81c-0.05-0.22-0.08-0.43-0.08-0.65h-0.03c-0.17,0.24-0.37,0.43-0.62,0.56
		c-0.25,0.13-0.55,0.2-0.89,0.2c-0.18,0-0.36-0.02-0.56-0.07s-0.37-0.12-0.53-0.23c-0.16-0.11-0.29-0.25-0.39-0.43
		s-0.16-0.4-0.16-0.66c0-0.34,0.09-0.61,0.28-0.81c0.18-0.2,0.42-0.35,0.72-0.46c0.3-0.1,0.63-0.17,1.01-0.2
		c0.37-0.03,0.75-0.05,1.13-0.05V219.37z M32.55,220.14c-0.22,0-0.45,0.01-0.69,0.03c-0.24,0.02-0.45,0.06-0.65,0.11
		c-0.19,0.06-0.35,0.14-0.48,0.26c-0.13,0.11-0.19,0.27-0.19,0.46c0,0.13,0.03,0.24,0.08,0.33s0.12,0.16,0.21,0.22
		c0.09,0.06,0.19,0.1,0.29,0.12c0.11,0.02,0.22,0.03,0.33,0.03c0.42,0,0.74-0.12,0.96-0.38c0.23-0.25,0.34-0.57,0.34-0.95v-0.24
		H32.55z"/>
	<path class="st0" d="M35.92,217.78c0.01,0.11,0.02,0.24,0.03,0.39s0.01,0.26,0.01,0.36h0.03c0.06-0.12,0.13-0.23,0.23-0.34
		s0.21-0.2,0.34-0.28c0.13-0.08,0.27-0.14,0.42-0.19c0.15-0.04,0.31-0.07,0.48-0.07c0.29,0,0.54,0.05,0.75,0.15
		c0.21,0.1,0.38,0.23,0.52,0.39c0.14,0.17,0.24,0.36,0.31,0.58s0.1,0.46,0.1,0.71v2.8h-0.89v-2.5c0-0.18-0.01-0.36-0.04-0.52
		c-0.03-0.16-0.08-0.31-0.16-0.44s-0.18-0.23-0.31-0.3s-0.3-0.11-0.51-0.11c-0.35,0-0.65,0.13-0.87,0.4s-0.34,0.63-0.34,1.08v2.4
		h-0.89v-3.54c0-0.12,0-0.28-0.01-0.47c-0.01-0.19-0.02-0.36-0.03-0.5H35.92z"/>
	<path class="st0" d="M43.36,217.78l1.02,3.44h0.02l1.07-3.44h0.94l1.09,3.44h0.02l1.02-3.44h0.94l-1.49,4.51h-0.93l-1.11-3.39
		h-0.02l-1.1,3.39h-0.93l-1.5-4.51H43.36z"/>
	<path class="st0" d="M53.18,219.37c0-0.34-0.1-0.58-0.3-0.75c-0.2-0.16-0.47-0.24-0.81-0.24c-0.25,0-0.49,0.05-0.72,0.15
		c-0.23,0.1-0.41,0.22-0.57,0.38l-0.48-0.57c0.22-0.21,0.49-0.37,0.81-0.49s0.66-0.18,1.03-0.18c0.32,0,0.6,0.05,0.84,0.14
		s0.43,0.22,0.58,0.38c0.15,0.16,0.27,0.35,0.34,0.56c0.08,0.22,0.11,0.45,0.11,0.69v1.97c0,0.15,0,0.31,0.01,0.48
		c0.01,0.17,0.03,0.31,0.05,0.41H53.3c-0.05-0.22-0.08-0.43-0.08-0.65h-0.03c-0.17,0.24-0.37,0.43-0.62,0.56
		c-0.25,0.13-0.55,0.2-0.89,0.2c-0.18,0-0.36-0.02-0.56-0.07s-0.37-0.12-0.53-0.23c-0.16-0.11-0.29-0.25-0.39-0.43
		s-0.16-0.4-0.16-0.66c0-0.34,0.09-0.61,0.28-0.81c0.18-0.2,0.42-0.35,0.72-0.46c0.3-0.1,0.63-0.17,1.01-0.2
		c0.37-0.03,0.75-0.05,1.13-0.05V219.37z M52.96,220.14c-0.22,0-0.45,0.01-0.69,0.03c-0.24,0.02-0.45,0.06-0.65,0.11
		c-0.19,0.06-0.35,0.14-0.48,0.26c-0.13,0.11-0.19,0.27-0.19,0.46c0,0.13,0.03,0.24,0.08,0.33s0.12,0.16,0.21,0.22
		c0.09,0.06,0.19,0.1,0.29,0.12c0.11,0.02,0.22,0.03,0.33,0.03c0.42,0,0.74-0.12,0.96-0.38c0.23-0.25,0.34-0.57,0.34-0.95v-0.24
		H52.96z"/>
	<path class="st0" d="M57.97,218.93c-0.1-0.17-0.24-0.3-0.43-0.4c-0.18-0.1-0.39-0.16-0.62-0.16c-0.1,0-0.2,0.01-0.3,0.03
		c-0.1,0.02-0.19,0.06-0.27,0.1c-0.08,0.05-0.14,0.11-0.19,0.18c-0.05,0.07-0.07,0.16-0.07,0.27c0,0.19,0.09,0.33,0.26,0.42
		c0.17,0.09,0.43,0.18,0.77,0.25c0.22,0.05,0.42,0.11,0.6,0.18c0.18,0.07,0.34,0.16,0.48,0.26c0.14,0.1,0.24,0.23,0.32,0.38
		s0.11,0.32,0.11,0.51c0,0.27-0.05,0.49-0.15,0.67s-0.24,0.33-0.4,0.45c-0.17,0.12-0.36,0.2-0.58,0.25
		c-0.22,0.05-0.44,0.08-0.67,0.08c-0.34,0-0.68-0.07-1-0.2c-0.33-0.13-0.6-0.34-0.81-0.61l0.64-0.54c0.12,0.18,0.29,0.33,0.5,0.45
		c0.21,0.12,0.45,0.18,0.7,0.18c0.11,0,0.22-0.01,0.33-0.03c0.1-0.02,0.2-0.06,0.29-0.11c0.09-0.05,0.15-0.12,0.2-0.2
		s0.08-0.19,0.08-0.31c0-0.21-0.1-0.37-0.3-0.47c-0.2-0.1-0.49-0.2-0.88-0.29c-0.15-0.04-0.31-0.08-0.46-0.14s-0.3-0.13-0.42-0.22
		c-0.13-0.09-0.23-0.21-0.31-0.36c-0.08-0.14-0.12-0.32-0.12-0.53c0-0.24,0.05-0.45,0.15-0.62c0.1-0.17,0.23-0.32,0.39-0.43
		c0.16-0.11,0.34-0.19,0.54-0.25c0.2-0.05,0.41-0.08,0.63-0.08c0.32,0,0.64,0.06,0.94,0.19c0.3,0.13,0.53,0.31,0.7,0.55
		L57.97,218.93z"/>
	<path class="st0" d="M64.34,218.52h-1.2v2.34c0,0.27,0.05,0.47,0.15,0.58c0.1,0.12,0.26,0.18,0.49,0.18c0.08,0,0.17-0.01,0.27-0.03
		s0.18-0.04,0.26-0.08l0.03,0.73c-0.11,0.04-0.23,0.07-0.36,0.09c-0.13,0.02-0.26,0.03-0.4,0.03c-0.42,0-0.75-0.12-0.97-0.35
		s-0.34-0.59-0.34-1.06v-2.44h-0.87v-0.73h0.87v-1.29h0.88v1.29h1.2V218.52z"/>
	<path class="st0" d="M65.25,218.29c-0.01-0.19-0.02-0.36-0.03-0.5h0.85c0.01,0.11,0.02,0.25,0.03,0.4
		c0.01,0.15,0.01,0.27,0.01,0.37h0.03c0.13-0.27,0.31-0.48,0.56-0.64c0.24-0.16,0.52-0.24,0.82-0.24c0.14,0,0.26,0.01,0.35,0.04
		l-0.04,0.83c-0.13-0.03-0.26-0.05-0.41-0.05c-0.22,0-0.4,0.04-0.56,0.12c-0.16,0.08-0.29,0.19-0.39,0.32
		c-0.1,0.13-0.18,0.29-0.23,0.46c-0.05,0.17-0.08,0.36-0.08,0.55v2.37h-0.89v-3.54C65.26,218.63,65.26,218.48,65.25,218.29z"/>
	<path class="st0" d="M72.74,220c0,0.05,0,0.1,0,0.15s0,0.1-0.01,0.15h-3.58c0.01,0.19,0.05,0.37,0.13,0.53
		c0.08,0.17,0.19,0.31,0.32,0.43c0.13,0.12,0.29,0.22,0.46,0.29s0.36,0.1,0.56,0.1c0.3,0,0.57-0.07,0.79-0.2
		c0.22-0.13,0.4-0.29,0.52-0.49l0.63,0.5c-0.24,0.32-0.52,0.55-0.85,0.71c-0.33,0.15-0.69,0.23-1.09,0.23
		c-0.34,0-0.66-0.06-0.95-0.17s-0.54-0.27-0.75-0.48c-0.21-0.21-0.37-0.46-0.49-0.75c-0.12-0.29-0.18-0.61-0.18-0.97
		c0-0.35,0.06-0.67,0.18-0.96c0.12-0.29,0.28-0.55,0.49-0.76c0.21-0.21,0.46-0.37,0.74-0.49c0.29-0.12,0.59-0.18,0.92-0.18
		s0.63,0.05,0.9,0.16c0.27,0.11,0.5,0.26,0.69,0.47c0.19,0.2,0.33,0.45,0.43,0.74C72.69,219.31,72.74,219.64,72.74,220z
		 M71.83,219.64c-0.01-0.18-0.04-0.34-0.09-0.5s-0.13-0.29-0.24-0.4c-0.1-0.11-0.23-0.2-0.39-0.27s-0.34-0.1-0.55-0.1
		c-0.19,0-0.37,0.03-0.54,0.1s-0.31,0.16-0.44,0.27s-0.23,0.25-0.3,0.4c-0.08,0.16-0.13,0.32-0.14,0.5H71.83z"/>
	<path class="st0" d="M76.73,219.37c0-0.34-0.1-0.58-0.3-0.75c-0.2-0.16-0.47-0.24-0.81-0.24c-0.25,0-0.49,0.05-0.72,0.15
		c-0.23,0.1-0.41,0.22-0.57,0.38l-0.48-0.57c0.22-0.21,0.49-0.37,0.81-0.49s0.66-0.18,1.03-0.18c0.32,0,0.6,0.05,0.84,0.14
		s0.43,0.22,0.58,0.38c0.15,0.16,0.27,0.35,0.34,0.56c0.08,0.22,0.11,0.45,0.11,0.69v1.97c0,0.15,0,0.31,0.01,0.48
		c0.01,0.17,0.03,0.31,0.05,0.41h-0.81c-0.05-0.22-0.08-0.43-0.08-0.65h-0.03c-0.17,0.24-0.37,0.43-0.62,0.56
		c-0.25,0.13-0.55,0.2-0.89,0.2c-0.18,0-0.36-0.02-0.56-0.07s-0.37-0.12-0.53-0.23c-0.16-0.11-0.29-0.25-0.39-0.43
		s-0.16-0.4-0.16-0.66c0-0.34,0.09-0.61,0.28-0.81c0.18-0.2,0.42-0.35,0.72-0.46c0.3-0.1,0.63-0.17,1.01-0.2
		c0.37-0.03,0.75-0.05,1.13-0.05V219.37z M76.51,220.14c-0.22,0-0.45,0.01-0.69,0.03c-0.24,0.02-0.45,0.06-0.65,0.11
		c-0.19,0.06-0.35,0.14-0.48,0.26c-0.13,0.11-0.19,0.27-0.19,0.46c0,0.13,0.03,0.24,0.08,0.33s0.12,0.16,0.21,0.22
		c0.09,0.06,0.19,0.1,0.29,0.12c0.11,0.02,0.22,0.03,0.33,0.03c0.42,0,0.74-0.12,0.96-0.38c0.23-0.25,0.34-0.57,0.34-0.95v-0.24
		H76.51z"/>
	<path class="st0" d="M81.19,218.52h-1.2v2.34c0,0.27,0.05,0.47,0.15,0.58c0.1,0.12,0.26,0.18,0.49,0.18c0.08,0,0.17-0.01,0.27-0.03
		s0.18-0.04,0.26-0.08l0.03,0.73c-0.11,0.04-0.23,0.07-0.36,0.09c-0.13,0.02-0.26,0.03-0.4,0.03c-0.42,0-0.75-0.12-0.97-0.35
		s-0.34-0.59-0.34-1.06v-2.44h-0.87v-0.73h0.87v-1.29h0.88v1.29h1.2V218.52z"/>
	<path class="st0" d="M86.32,220c0,0.05,0,0.1,0,0.15s0,0.1-0.01,0.15h-3.58c0.01,0.19,0.05,0.37,0.13,0.53
		c0.08,0.17,0.19,0.31,0.32,0.43c0.13,0.12,0.29,0.22,0.46,0.29s0.36,0.1,0.56,0.1c0.3,0,0.57-0.07,0.79-0.2
		c0.22-0.13,0.4-0.29,0.52-0.49l0.63,0.5c-0.24,0.32-0.52,0.55-0.85,0.71c-0.33,0.15-0.69,0.23-1.09,0.23
		c-0.34,0-0.66-0.06-0.95-0.17s-0.54-0.27-0.75-0.48c-0.21-0.21-0.37-0.46-0.49-0.75c-0.12-0.29-0.18-0.61-0.18-0.97
		c0-0.35,0.06-0.67,0.18-0.96c0.12-0.29,0.28-0.55,0.49-0.76c0.21-0.21,0.46-0.37,0.74-0.49c0.29-0.12,0.59-0.18,0.92-0.18
		s0.63,0.05,0.9,0.16c0.27,0.11,0.5,0.26,0.69,0.47c0.19,0.2,0.33,0.45,0.43,0.74C86.27,219.31,86.32,219.64,86.32,220z
		 M85.41,219.64c-0.01-0.18-0.04-0.34-0.09-0.5s-0.13-0.29-0.24-0.4c-0.1-0.11-0.23-0.2-0.39-0.27s-0.34-0.1-0.55-0.1
		c-0.19,0-0.37,0.03-0.54,0.1s-0.31,0.16-0.44,0.27s-0.23,0.25-0.3,0.4c-0.08,0.16-0.13,0.32-0.14,0.5H85.41z"/>
	<path class="st0" d="M91.15,221.58c-0.17,0.27-0.4,0.48-0.7,0.62c-0.29,0.14-0.6,0.21-0.93,0.21c-0.35,0-0.66-0.06-0.94-0.19
		c-0.28-0.12-0.52-0.29-0.71-0.51s-0.35-0.47-0.46-0.76c-0.11-0.29-0.16-0.6-0.16-0.93c0-0.33,0.05-0.64,0.16-0.93
		c0.11-0.29,0.26-0.54,0.46-0.76s0.44-0.38,0.72-0.5s0.59-0.18,0.92-0.18c0.37,0,0.69,0.08,0.96,0.23c0.27,0.16,0.49,0.34,0.65,0.57
		h0.02v-3.36h0.89v7.19h-0.87v-0.71H91.15z M88.19,220.03c0,0.21,0.03,0.41,0.1,0.61c0.06,0.2,0.16,0.37,0.29,0.52
		c0.13,0.15,0.28,0.27,0.47,0.37c0.18,0.09,0.4,0.14,0.65,0.14c0.23,0,0.44-0.04,0.62-0.13c0.19-0.09,0.35-0.21,0.48-0.36
		c0.13-0.15,0.24-0.32,0.31-0.52c0.07-0.2,0.11-0.4,0.11-0.62s-0.04-0.42-0.11-0.62c-0.07-0.2-0.18-0.37-0.31-0.52
		c-0.13-0.15-0.29-0.27-0.48-0.36s-0.39-0.13-0.62-0.13c-0.25,0-0.46,0.04-0.65,0.13c-0.18,0.09-0.34,0.21-0.47,0.36
		c-0.13,0.15-0.22,0.33-0.29,0.52C88.22,219.62,88.19,219.83,88.19,220.03z"/>
	<path class="st0" d="M96.31,217.78l1.02,3.44h0.02l1.07-3.44h0.94l1.09,3.44h0.02l1.02-3.44h0.94l-1.49,4.51h-0.93l-1.11-3.39
		h-0.02l-1.1,3.39h-0.93l-1.5-4.51H96.31z"/>
	<path class="st0" d="M104.37,216.16c0,0.17-0.06,0.3-0.17,0.41c-0.12,0.11-0.26,0.16-0.42,0.16c-0.16,0-0.3-0.06-0.42-0.17
		c-0.11-0.11-0.17-0.25-0.17-0.4c0-0.16,0.06-0.3,0.17-0.41c0.11-0.11,0.25-0.17,0.42-0.17c0.16,0,0.3,0.06,0.42,0.17
		C104.31,215.86,104.37,215.99,104.37,216.16z M104.23,222.29h-0.89v-4.51h0.89V222.29z"/>
	<path class="st0" d="M107.99,218.52h-1.2v2.34c0,0.27,0.05,0.47,0.15,0.58c0.1,0.12,0.26,0.18,0.49,0.18
		c0.08,0,0.17-0.01,0.27-0.03s0.18-0.04,0.26-0.08l0.03,0.73c-0.11,0.04-0.23,0.07-0.36,0.09c-0.13,0.02-0.26,0.03-0.4,0.03
		c-0.42,0-0.75-0.12-0.97-0.35s-0.34-0.59-0.34-1.06v-2.44h-0.87v-0.73h0.87v-1.29h0.88v1.29h1.2V218.52z"/>
	<path class="st0" d="M109.85,218.47c0.11-0.22,0.29-0.41,0.55-0.57c0.26-0.16,0.55-0.24,0.87-0.24c0.29,0,0.54,0.05,0.75,0.15
		c0.21,0.1,0.38,0.23,0.52,0.39c0.14,0.17,0.24,0.36,0.31,0.58c0.07,0.22,0.1,0.46,0.1,0.71v2.8h-0.89v-2.5
		c0-0.18-0.01-0.36-0.04-0.52c-0.03-0.17-0.08-0.31-0.16-0.44c-0.08-0.13-0.18-0.23-0.31-0.31c-0.13-0.08-0.3-0.11-0.51-0.11
		c-0.35,0-0.65,0.13-0.88,0.41c-0.23,0.27-0.34,0.63-0.34,1.08v2.39h-0.89v-7.19h0.89v3.37H109.85z"/>
	<path class="st0" d="M122.67,221.25c-0.27,0.36-0.61,0.65-1.04,0.88c-0.42,0.22-0.94,0.34-1.53,0.34c-0.51,0-0.99-0.09-1.42-0.26
		c-0.43-0.17-0.81-0.42-1.12-0.73c-0.31-0.31-0.56-0.69-0.74-1.12c-0.18-0.43-0.27-0.91-0.27-1.43c0-0.53,0.09-1.01,0.27-1.44
		s0.43-0.8,0.75-1.11c0.32-0.31,0.7-0.55,1.14-0.72c0.44-0.17,0.91-0.26,1.43-0.26c0.23,0,0.46,0.02,0.69,0.07
		c0.23,0.04,0.46,0.11,0.68,0.2s0.41,0.2,0.59,0.33c0.18,0.13,0.33,0.28,0.46,0.45l-0.74,0.57c-0.16-0.23-0.4-0.42-0.7-0.57
		c-0.3-0.15-0.63-0.22-0.97-0.22c-0.39,0-0.75,0.07-1.06,0.21c-0.31,0.14-0.58,0.34-0.8,0.58c-0.22,0.25-0.39,0.53-0.51,0.86
		s-0.18,0.67-0.18,1.04c0,0.38,0.06,0.74,0.18,1.07c0.12,0.33,0.29,0.62,0.5,0.86c0.22,0.24,0.49,0.44,0.8,0.58
		c0.31,0.14,0.66,0.21,1.05,0.21c0.38,0,0.73-0.08,1.04-0.23c0.31-0.15,0.57-0.37,0.77-0.67L122.67,221.25z"/>
	<path class="st0" d="M128.03,220.03c0,0.35-0.06,0.67-0.19,0.96c-0.12,0.29-0.29,0.54-0.51,0.76c-0.22,0.21-0.48,0.38-0.77,0.49
		c-0.3,0.12-0.62,0.18-0.96,0.18s-0.66-0.06-0.96-0.18c-0.3-0.12-0.55-0.28-0.77-0.49c-0.22-0.21-0.38-0.46-0.51-0.76
		c-0.12-0.29-0.19-0.61-0.19-0.96c0-0.35,0.06-0.67,0.19-0.96c0.12-0.29,0.29-0.54,0.51-0.75c0.22-0.21,0.47-0.37,0.77-0.49
		c0.3-0.12,0.62-0.18,0.96-0.18s0.66,0.06,0.96,0.18c0.3,0.12,0.56,0.28,0.77,0.49c0.22,0.21,0.39,0.46,0.51,0.75
		C127.97,219.36,128.03,219.68,128.03,220.03z M127.1,220.03c0-0.21-0.03-0.42-0.1-0.62c-0.07-0.2-0.16-0.37-0.29-0.52
		c-0.13-0.15-0.28-0.27-0.47-0.36s-0.4-0.13-0.64-0.13s-0.46,0.04-0.64,0.13s-0.34,0.21-0.47,0.36c-0.13,0.15-0.22,0.32-0.29,0.52
		c-0.07,0.2-0.1,0.4-0.1,0.62c0,0.22,0.03,0.42,0.1,0.62c0.07,0.2,0.16,0.37,0.29,0.52c0.13,0.15,0.28,0.27,0.47,0.36
		c0.19,0.09,0.4,0.13,0.64,0.13s0.46-0.04,0.64-0.13c0.19-0.09,0.34-0.21,0.47-0.36c0.13-0.15,0.22-0.33,0.29-0.52
		C127.06,220.45,127.1,220.25,127.1,220.03z"/>
	<path class="st0" d="M133.83,220.03c0,0.35-0.06,0.67-0.19,0.96c-0.12,0.29-0.29,0.54-0.51,0.76c-0.22,0.21-0.48,0.38-0.77,0.49
		c-0.3,0.12-0.62,0.18-0.96,0.18s-0.66-0.06-0.96-0.18c-0.3-0.12-0.55-0.28-0.77-0.49c-0.22-0.21-0.38-0.46-0.51-0.76
		c-0.12-0.29-0.19-0.61-0.19-0.96c0-0.35,0.06-0.67,0.19-0.96c0.12-0.29,0.29-0.54,0.51-0.75c0.22-0.21,0.47-0.37,0.77-0.49
		c0.3-0.12,0.62-0.18,0.96-0.18s0.66,0.06,0.96,0.18c0.3,0.12,0.56,0.28,0.77,0.49c0.22,0.21,0.39,0.46,0.51,0.75
		C133.77,219.36,133.83,219.68,133.83,220.03z M132.9,220.03c0-0.21-0.03-0.42-0.1-0.62c-0.07-0.2-0.16-0.37-0.29-0.52
		c-0.13-0.15-0.28-0.27-0.47-0.36s-0.4-0.13-0.64-0.13s-0.46,0.04-0.64,0.13s-0.34,0.21-0.47,0.36c-0.13,0.15-0.22,0.32-0.29,0.52
		c-0.07,0.2-0.1,0.4-0.1,0.62c0,0.22,0.03,0.42,0.1,0.62c0.07,0.2,0.16,0.37,0.29,0.52c0.13,0.15,0.28,0.27,0.47,0.36
		c0.19,0.09,0.4,0.13,0.64,0.13s0.46-0.04,0.64-0.13c0.19-0.09,0.34-0.21,0.47-0.36c0.13-0.15,0.22-0.33,0.29-0.52
		C132.86,220.45,132.9,220.25,132.9,220.03z"/>
	<path class="st0" d="M135.98,222.29h-0.89v-7.19h0.89V222.29z"/>
	<path class="st0" d="M139.94,222.29H139v-5.91h-2.16v-0.83h5.26v0.83h-2.16V222.29z"/>
	<path class="st0" d="M146.6,220.03c0,0.35-0.06,0.67-0.19,0.96c-0.12,0.29-0.29,0.54-0.51,0.76c-0.22,0.21-0.48,0.38-0.77,0.49
		c-0.3,0.12-0.62,0.18-0.96,0.18s-0.66-0.06-0.96-0.18c-0.3-0.12-0.55-0.28-0.77-0.49c-0.22-0.21-0.38-0.46-0.51-0.76
		c-0.12-0.29-0.19-0.61-0.19-0.96c0-0.35,0.06-0.67,0.19-0.96c0.12-0.29,0.29-0.54,0.51-0.75c0.22-0.21,0.47-0.37,0.77-0.49
		c0.3-0.12,0.62-0.18,0.96-0.18s0.66,0.06,0.96,0.18c0.3,0.12,0.56,0.28,0.77,0.49c0.22,0.21,0.39,0.46,0.51,0.75
		C146.54,219.36,146.6,219.68,146.6,220.03z M145.67,220.03c0-0.21-0.03-0.42-0.1-0.62c-0.07-0.2-0.16-0.37-0.29-0.52
		c-0.13-0.15-0.28-0.27-0.47-0.36s-0.4-0.13-0.64-0.13s-0.46,0.04-0.64,0.13s-0.34,0.21-0.47,0.36c-0.13,0.15-0.22,0.32-0.29,0.52
		c-0.07,0.2-0.1,0.4-0.1,0.62c0,0.22,0.03,0.42,0.1,0.62c0.07,0.2,0.16,0.37,0.29,0.52c0.13,0.15,0.28,0.27,0.47,0.36
		c0.19,0.09,0.4,0.13,0.64,0.13s0.46-0.04,0.64-0.13c0.19-0.09,0.34-0.21,0.47-0.36c0.13-0.15,0.22-0.33,0.29-0.52
		C145.63,220.45,145.67,220.25,145.67,220.03z"/>
	<path class="st0" d="M148.64,217.78c0.01,0.11,0.02,0.24,0.03,0.39s0.01,0.26,0.01,0.36h0.03c0.06-0.12,0.13-0.23,0.23-0.34
		s0.21-0.2,0.34-0.28c0.13-0.08,0.27-0.14,0.42-0.19c0.15-0.04,0.31-0.07,0.48-0.07c0.29,0,0.54,0.05,0.75,0.15
		c0.21,0.1,0.38,0.23,0.52,0.39c0.14,0.17,0.24,0.36,0.31,0.58s0.1,0.46,0.1,0.71v2.8h-0.89v-2.5c0-0.18-0.01-0.36-0.04-0.52
		c-0.03-0.16-0.08-0.31-0.16-0.44s-0.18-0.23-0.31-0.3s-0.3-0.11-0.51-0.11c-0.35,0-0.65,0.13-0.87,0.4s-0.34,0.63-0.34,1.08v2.4
		h-0.89v-3.54c0-0.12,0-0.28-0.01-0.47c-0.01-0.19-0.02-0.36-0.03-0.5H148.64z"/>
	<path class="st0" d="M157.58,220c0,0.05,0,0.1,0,0.15s0,0.1-0.01,0.15h-3.58c0.01,0.19,0.05,0.37,0.13,0.53
		c0.08,0.17,0.19,0.31,0.32,0.43c0.13,0.12,0.29,0.22,0.46,0.29s0.36,0.1,0.56,0.1c0.3,0,0.57-0.07,0.79-0.2
		c0.22-0.13,0.4-0.29,0.52-0.49l0.63,0.5c-0.24,0.32-0.52,0.55-0.85,0.71c-0.33,0.15-0.69,0.23-1.09,0.23
		c-0.34,0-0.66-0.06-0.95-0.17s-0.54-0.27-0.75-0.48c-0.21-0.21-0.37-0.46-0.49-0.75c-0.12-0.29-0.18-0.61-0.18-0.97
		c0-0.35,0.06-0.67,0.18-0.96c0.12-0.29,0.28-0.55,0.49-0.76c0.21-0.21,0.46-0.37,0.74-0.49c0.29-0.12,0.59-0.18,0.92-0.18
		s0.63,0.05,0.9,0.16c0.27,0.11,0.5,0.26,0.69,0.47c0.19,0.2,0.33,0.45,0.43,0.74C157.53,219.31,157.58,219.64,157.58,220z
		 M156.67,219.64c-0.01-0.18-0.04-0.34-0.09-0.5s-0.13-0.29-0.24-0.4c-0.1-0.11-0.23-0.2-0.39-0.27s-0.34-0.1-0.55-0.1
		c-0.19,0-0.37,0.03-0.54,0.1s-0.31,0.16-0.44,0.27s-0.23,0.25-0.3,0.4c-0.08,0.16-0.13,0.32-0.14,0.5H156.67z"/>
	<path class="st0" d="M158.35,217.6c0-0.3,0.06-0.58,0.17-0.84c0.11-0.26,0.27-0.49,0.47-0.68c0.2-0.19,0.43-0.35,0.69-0.46
		s0.54-0.17,0.84-0.17c0.3,0,0.58,0.06,0.84,0.17s0.49,0.27,0.69,0.46c0.2,0.19,0.35,0.42,0.47,0.68c0.11,0.26,0.17,0.54,0.17,0.84
		c0,0.3-0.06,0.58-0.17,0.84c-0.11,0.26-0.27,0.49-0.47,0.68c-0.2,0.19-0.43,0.34-0.69,0.46s-0.54,0.17-0.84,0.17
		c-0.3,0-0.58-0.05-0.84-0.17s-0.49-0.26-0.69-0.46c-0.2-0.19-0.35-0.42-0.47-0.68C158.41,218.18,158.35,217.9,158.35,217.6z
		 M158.69,217.6c0,0.25,0.05,0.48,0.14,0.7c0.1,0.22,0.23,0.42,0.39,0.58c0.16,0.17,0.36,0.3,0.58,0.39
		c0.22,0.09,0.46,0.14,0.71,0.14c0.25,0,0.49-0.05,0.71-0.14c0.22-0.09,0.42-0.23,0.58-0.39s0.29-0.36,0.39-0.58
		c0.09-0.22,0.14-0.46,0.14-0.7c0-0.25-0.05-0.49-0.14-0.71c-0.1-0.22-0.23-0.42-0.39-0.58s-0.36-0.29-0.58-0.39
		c-0.22-0.09-0.46-0.14-0.71-0.14c-0.25,0-0.49,0.05-0.71,0.14c-0.22,0.09-0.42,0.22-0.58,0.39c-0.17,0.17-0.29,0.36-0.39,0.58
		C158.74,217.11,158.69,217.35,158.69,217.6z M161.04,218.79l-0.52-0.94h-0.34v0.94h-0.58v-2.43h1.05c0.11,0,0.22,0.01,0.33,0.04
		s0.21,0.07,0.29,0.12c0.09,0.06,0.16,0.13,0.21,0.23s0.08,0.22,0.08,0.37c0,0.17-0.05,0.3-0.14,0.41
		c-0.09,0.11-0.21,0.19-0.35,0.24l0.65,1.03H161.04z M160.62,217.43c0.09,0,0.17-0.03,0.24-0.08c0.07-0.06,0.11-0.13,0.11-0.23
		c0-0.1-0.04-0.17-0.12-0.22s-0.16-0.07-0.23-0.07h-0.45v0.6H160.62z"/>
	<path class="st0" d="M27.16,230.04c0,0.35-0.06,0.67-0.19,0.96c-0.12,0.29-0.29,0.54-0.51,0.76c-0.22,0.21-0.48,0.38-0.77,0.49
		c-0.3,0.12-0.62,0.18-0.96,0.18s-0.66-0.06-0.96-0.18c-0.3-0.12-0.55-0.28-0.77-0.49c-0.22-0.21-0.38-0.46-0.51-0.76
		c-0.12-0.29-0.19-0.61-0.19-0.96c0-0.35,0.06-0.67,0.19-0.96c0.12-0.29,0.29-0.54,0.51-0.75c0.22-0.21,0.47-0.37,0.77-0.49
		c0.3-0.12,0.62-0.18,0.96-0.18s0.66,0.06,0.96,0.18c0.3,0.12,0.56,0.28,0.77,0.49c0.22,0.21,0.39,0.46,0.51,0.75
		C27.09,229.37,27.16,229.69,27.16,230.04z M26.22,230.04c0-0.21-0.03-0.42-0.1-0.62c-0.07-0.2-0.16-0.37-0.29-0.52
		c-0.13-0.15-0.28-0.27-0.47-0.36s-0.4-0.13-0.64-0.13s-0.46,0.04-0.64,0.13s-0.34,0.21-0.47,0.36c-0.13,0.15-0.22,0.32-0.29,0.52
		c-0.07,0.2-0.1,0.4-0.1,0.62c0,0.22,0.03,0.42,0.1,0.62c0.07,0.2,0.16,0.37,0.29,0.52c0.13,0.15,0.28,0.27,0.47,0.36
		c0.19,0.09,0.4,0.13,0.64,0.13s0.46-0.04,0.64-0.13c0.19-0.09,0.34-0.21,0.47-0.36c0.13-0.15,0.22-0.33,0.29-0.52
		C26.19,230.46,26.22,230.26,26.22,230.04z"/>
	<path class="st0" d="M29.2,227.79c0.01,0.11,0.02,0.24,0.03,0.39s0.01,0.26,0.01,0.36h0.03c0.06-0.12,0.13-0.23,0.23-0.34
		s0.21-0.2,0.34-0.28c0.13-0.08,0.27-0.14,0.42-0.19c0.15-0.04,0.31-0.07,0.48-0.07c0.29,0,0.54,0.05,0.75,0.15
		c0.21,0.1,0.38,0.23,0.52,0.39c0.14,0.17,0.24,0.36,0.31,0.58s0.1,0.46,0.1,0.71v2.8h-0.89v-2.5c0-0.18-0.01-0.36-0.04-0.52
		c-0.03-0.16-0.08-0.31-0.16-0.44s-0.18-0.23-0.31-0.3s-0.3-0.11-0.51-0.11c-0.35,0-0.65,0.13-0.87,0.4s-0.34,0.63-0.34,1.08v2.4
		h-0.89v-3.54c0-0.12,0-0.28-0.01-0.47c-0.01-0.19-0.02-0.36-0.03-0.5H29.2z"/>
	<path class="st0" d="M37.24,228.48c0.11-0.22,0.29-0.41,0.55-0.57c0.26-0.16,0.55-0.24,0.87-0.24c0.29,0,0.54,0.05,0.75,0.15
		c0.21,0.1,0.38,0.23,0.52,0.39c0.14,0.17,0.24,0.36,0.31,0.58c0.07,0.22,0.1,0.46,0.1,0.71v2.8h-0.89v-2.5
		c0-0.18-0.01-0.36-0.04-0.52c-0.03-0.17-0.08-0.31-0.16-0.44c-0.08-0.13-0.18-0.23-0.31-0.31c-0.13-0.08-0.3-0.11-0.51-0.11
		c-0.35,0-0.65,0.13-0.88,0.41c-0.23,0.27-0.34,0.63-0.34,1.08v2.39h-0.89v-7.19h0.89v3.37H37.24z"/>
	<path class="st0" d="M42.9,226.17c0,0.17-0.06,0.3-0.17,0.41c-0.12,0.11-0.26,0.16-0.42,0.16c-0.16,0-0.3-0.06-0.42-0.17
		c-0.11-0.11-0.17-0.25-0.17-0.4c0-0.16,0.06-0.3,0.17-0.41c0.11-0.11,0.25-0.17,0.42-0.17c0.16,0,0.3,0.06,0.42,0.17
		C42.84,225.87,42.9,226,42.9,226.17z M42.76,232.3h-0.89v-4.51h0.89V232.3z"/>
	<path class="st0" d="M46.75,228.94c-0.1-0.17-0.24-0.3-0.43-0.4c-0.18-0.1-0.39-0.16-0.62-0.16c-0.1,0-0.2,0.01-0.3,0.03
		c-0.1,0.02-0.19,0.06-0.27,0.1c-0.08,0.05-0.14,0.11-0.19,0.18c-0.05,0.07-0.07,0.16-0.07,0.27c0,0.19,0.09,0.33,0.26,0.42
		c0.17,0.09,0.43,0.18,0.77,0.25c0.22,0.05,0.42,0.11,0.6,0.18c0.18,0.07,0.34,0.16,0.48,0.26c0.14,0.1,0.24,0.23,0.32,0.38
		s0.11,0.32,0.11,0.51c0,0.27-0.05,0.49-0.15,0.67s-0.24,0.33-0.4,0.45c-0.17,0.12-0.36,0.2-0.58,0.25
		c-0.22,0.05-0.44,0.08-0.67,0.08c-0.34,0-0.68-0.07-1-0.2c-0.33-0.13-0.6-0.34-0.81-0.61l0.64-0.54c0.12,0.18,0.29,0.33,0.5,0.45
		c0.21,0.12,0.45,0.18,0.7,0.18c0.11,0,0.22-0.01,0.33-0.03c0.1-0.02,0.2-0.06,0.29-0.11c0.09-0.05,0.15-0.12,0.2-0.2
		s0.08-0.19,0.08-0.31c0-0.21-0.1-0.37-0.3-0.47c-0.2-0.1-0.49-0.2-0.88-0.29c-0.15-0.04-0.31-0.08-0.46-0.14s-0.3-0.13-0.42-0.22
		c-0.13-0.09-0.23-0.21-0.31-0.36c-0.08-0.14-0.12-0.32-0.12-0.53c0-0.24,0.05-0.45,0.15-0.62c0.1-0.17,0.23-0.32,0.39-0.43
		c0.16-0.11,0.34-0.19,0.54-0.25c0.2-0.05,0.41-0.08,0.63-0.08c0.32,0,0.64,0.06,0.94,0.19c0.3,0.13,0.53,0.31,0.7,0.55
		L46.75,228.94z"/>
	<path class="st0" d="M53.72,229.38c0-0.34-0.1-0.58-0.3-0.75c-0.2-0.16-0.47-0.24-0.81-0.24c-0.25,0-0.49,0.05-0.72,0.15
		c-0.23,0.1-0.41,0.22-0.57,0.38l-0.48-0.57c0.22-0.21,0.49-0.37,0.81-0.49s0.66-0.18,1.03-0.18c0.32,0,0.6,0.05,0.84,0.14
		s0.43,0.22,0.58,0.38c0.15,0.16,0.27,0.35,0.34,0.56c0.08,0.22,0.11,0.45,0.11,0.69v1.97c0,0.15,0,0.31,0.01,0.48
		c0.01,0.17,0.03,0.31,0.05,0.41h-0.81c-0.05-0.22-0.08-0.43-0.08-0.65h-0.03c-0.17,0.24-0.37,0.43-0.62,0.56
		c-0.25,0.13-0.55,0.2-0.89,0.2c-0.18,0-0.36-0.02-0.56-0.07s-0.37-0.12-0.53-0.23c-0.16-0.11-0.29-0.25-0.39-0.43
		s-0.16-0.4-0.16-0.66c0-0.34,0.09-0.61,0.28-0.81c0.18-0.2,0.42-0.35,0.72-0.46c0.3-0.1,0.63-0.17,1.01-0.2
		c0.37-0.03,0.75-0.05,1.13-0.05V229.38z M53.51,230.15c-0.22,0-0.45,0.01-0.69,0.03c-0.24,0.02-0.45,0.06-0.65,0.11
		c-0.19,0.06-0.35,0.14-0.48,0.26c-0.13,0.11-0.19,0.27-0.19,0.46c0,0.13,0.03,0.24,0.08,0.33s0.12,0.16,0.21,0.22
		c0.09,0.06,0.19,0.1,0.29,0.12c0.11,0.02,0.22,0.03,0.33,0.03c0.42,0,0.74-0.12,0.96-0.38c0.23-0.25,0.34-0.57,0.34-0.95v-0.24
		H53.51z"/>
	<path class="st0" d="M56.96,231.59v0.71h-0.87v-7.19h0.89v3.36h0.03c0.15-0.22,0.36-0.41,0.64-0.57c0.27-0.16,0.59-0.23,0.97-0.23
		c0.33,0,0.64,0.06,0.92,0.18c0.28,0.12,0.51,0.29,0.71,0.5s0.35,0.47,0.46,0.76c0.11,0.29,0.16,0.6,0.16,0.93
		c0,0.33-0.05,0.64-0.16,0.93c-0.11,0.29-0.26,0.54-0.46,0.76c-0.2,0.22-0.43,0.38-0.71,0.51c-0.28,0.12-0.59,0.19-0.94,0.19
		c-0.32,0-0.63-0.07-0.92-0.21c-0.29-0.14-0.52-0.35-0.7-0.62H56.96z M59.95,230.04c0-0.21-0.03-0.41-0.1-0.61
		c-0.06-0.2-0.16-0.37-0.29-0.52s-0.28-0.27-0.47-0.36s-0.4-0.13-0.65-0.13c-0.23,0-0.44,0.04-0.62,0.13
		c-0.19,0.09-0.35,0.21-0.48,0.36s-0.24,0.33-0.31,0.52s-0.11,0.4-0.11,0.62s0.04,0.42,0.11,0.62c0.07,0.2,0.18,0.37,0.31,0.52
		c0.13,0.15,0.29,0.27,0.48,0.36c0.19,0.09,0.39,0.13,0.62,0.13c0.25,0,0.46-0.05,0.65-0.14c0.19-0.09,0.34-0.21,0.47-0.37
		c0.13-0.15,0.22-0.33,0.29-0.52C59.92,230.45,59.95,230.25,59.95,230.04z"/>
	<path class="st0" d="M65.72,231.59c-0.17,0.27-0.4,0.48-0.7,0.62c-0.29,0.14-0.6,0.21-0.93,0.21c-0.35,0-0.66-0.06-0.94-0.19
		c-0.28-0.12-0.52-0.29-0.71-0.51s-0.35-0.47-0.46-0.76c-0.11-0.29-0.16-0.6-0.16-0.93c0-0.33,0.05-0.64,0.16-0.93
		c0.11-0.29,0.26-0.54,0.46-0.76s0.44-0.38,0.72-0.5s0.59-0.18,0.92-0.18c0.37,0,0.69,0.08,0.96,0.23c0.27,0.16,0.49,0.34,0.65,0.57
		h0.02v-3.36h0.89v7.19h-0.87v-0.71H65.72z M62.75,230.04c0,0.21,0.03,0.41,0.1,0.61c0.06,0.2,0.16,0.37,0.29,0.52
		c0.13,0.15,0.28,0.27,0.47,0.37c0.18,0.09,0.4,0.14,0.65,0.14c0.23,0,0.44-0.04,0.62-0.13c0.19-0.09,0.35-0.21,0.48-0.36
		c0.13-0.15,0.24-0.32,0.31-0.52c0.07-0.2,0.11-0.4,0.11-0.62s-0.04-0.42-0.11-0.62c-0.07-0.2-0.18-0.37-0.31-0.52
		c-0.13-0.15-0.29-0.27-0.48-0.36s-0.39-0.13-0.62-0.13c-0.25,0-0.46,0.04-0.65,0.13c-0.18,0.09-0.34,0.21-0.47,0.36
		c-0.13,0.15-0.22,0.33-0.29,0.52C62.78,229.63,62.75,229.83,62.75,230.04z"/>
	<path class="st0" d="M72.72,230.04c0,0.35-0.06,0.67-0.19,0.96c-0.12,0.29-0.29,0.54-0.51,0.76c-0.22,0.21-0.48,0.38-0.77,0.49
		c-0.3,0.12-0.62,0.18-0.96,0.18s-0.66-0.06-0.96-0.18c-0.3-0.12-0.55-0.28-0.77-0.49c-0.22-0.21-0.38-0.46-0.51-0.76
		c-0.12-0.29-0.19-0.61-0.19-0.96c0-0.35,0.06-0.67,0.19-0.96c0.12-0.29,0.29-0.54,0.51-0.75c0.22-0.21,0.47-0.37,0.77-0.49
		c0.3-0.12,0.62-0.18,0.96-0.18s0.66,0.06,0.96,0.18c0.3,0.12,0.56,0.28,0.77,0.49c0.22,0.21,0.39,0.46,0.51,0.75
		C72.66,229.37,72.72,229.69,72.72,230.04z M71.79,230.04c0-0.21-0.03-0.42-0.1-0.62c-0.07-0.2-0.16-0.37-0.29-0.52
		c-0.13-0.15-0.28-0.27-0.47-0.36s-0.4-0.13-0.64-0.13s-0.46,0.04-0.64,0.13s-0.34,0.21-0.47,0.36c-0.13,0.15-0.22,0.32-0.29,0.52
		c-0.07,0.2-0.1,0.4-0.1,0.62c0,0.22,0.03,0.42,0.1,0.62c0.07,0.2,0.16,0.37,0.29,0.52c0.13,0.15,0.28,0.27,0.47,0.36
		c0.19,0.09,0.4,0.13,0.64,0.13s0.46-0.04,0.64-0.13c0.19-0.09,0.34-0.21,0.47-0.36c0.13-0.15,0.22-0.33,0.29-0.52
		C71.76,230.46,71.79,230.26,71.79,230.04z"/>
	<path class="st0" d="M75.38,227.92c0.25-0.17,0.55-0.25,0.89-0.25c0.3,0,0.58,0.07,0.82,0.21s0.44,0.37,0.58,0.69
		c0.15-0.29,0.36-0.51,0.64-0.67c0.27-0.16,0.57-0.23,0.89-0.23c0.29,0,0.54,0.05,0.75,0.15c0.21,0.1,0.38,0.23,0.52,0.39
		c0.14,0.17,0.24,0.36,0.31,0.58c0.07,0.22,0.1,0.46,0.1,0.71v2.8h-0.89v-2.5c0-0.18-0.02-0.36-0.05-0.52
		c-0.03-0.16-0.09-0.31-0.16-0.44s-0.18-0.23-0.3-0.3c-0.13-0.08-0.29-0.11-0.48-0.11c-0.2,0-0.38,0.04-0.52,0.13
		c-0.15,0.08-0.27,0.2-0.36,0.33c-0.09,0.14-0.16,0.29-0.2,0.46c-0.04,0.17-0.06,0.35-0.06,0.52v2.43h-0.89v-2.68
		c0-0.18-0.02-0.34-0.05-0.49c-0.03-0.15-0.09-0.27-0.16-0.38c-0.08-0.1-0.17-0.19-0.29-0.25c-0.12-0.06-0.27-0.09-0.45-0.09
		c-0.33,0-0.6,0.13-0.82,0.4s-0.33,0.63-0.33,1.08v2.4h-0.89v-3.54c0-0.12,0-0.28-0.01-0.47c-0.01-0.19-0.02-0.36-0.03-0.5h0.85
		c0.01,0.11,0.02,0.24,0.03,0.39s0.01,0.26,0.01,0.36h0.03C74.95,228.29,75.13,228.09,75.38,227.92z"/>
	<path class="st0" d="M86.61,230.01c0,0.05,0,0.1,0,0.15s0,0.1-0.01,0.15h-3.58c0.01,0.19,0.05,0.37,0.13,0.53
		c0.08,0.17,0.19,0.31,0.32,0.43c0.13,0.12,0.29,0.22,0.46,0.29s0.36,0.1,0.56,0.1c0.3,0,0.57-0.07,0.79-0.2
		c0.22-0.13,0.4-0.29,0.52-0.49l0.63,0.5c-0.24,0.32-0.52,0.55-0.85,0.71c-0.33,0.15-0.69,0.23-1.09,0.23
		c-0.34,0-0.66-0.06-0.95-0.17s-0.54-0.27-0.75-0.48c-0.21-0.21-0.37-0.46-0.49-0.75c-0.12-0.29-0.18-0.61-0.18-0.97
		c0-0.35,0.06-0.67,0.18-0.96c0.12-0.29,0.28-0.55,0.49-0.76c0.21-0.21,0.46-0.37,0.74-0.49c0.29-0.12,0.59-0.18,0.92-0.18
		s0.63,0.05,0.9,0.16c0.27,0.11,0.5,0.26,0.69,0.47c0.19,0.2,0.33,0.45,0.43,0.74C86.56,229.32,86.61,229.65,86.61,230.01z
		 M85.69,229.65c-0.01-0.18-0.04-0.34-0.09-0.5s-0.13-0.29-0.24-0.4c-0.1-0.11-0.23-0.2-0.39-0.27s-0.34-0.1-0.55-0.1
		c-0.19,0-0.37,0.03-0.54,0.1s-0.31,0.16-0.44,0.27s-0.23,0.25-0.3,0.4c-0.08,0.16-0.13,0.32-0.14,0.5H85.69z"/>
	<path class="st0" d="M88.65,227.79c0.01,0.11,0.02,0.24,0.03,0.39s0.01,0.26,0.01,0.36h0.03c0.06-0.12,0.13-0.23,0.23-0.34
		s0.21-0.2,0.34-0.28c0.13-0.08,0.27-0.14,0.42-0.19c0.15-0.04,0.31-0.07,0.48-0.07c0.29,0,0.54,0.05,0.75,0.15
		c0.21,0.1,0.38,0.23,0.52,0.39c0.14,0.17,0.24,0.36,0.31,0.58s0.1,0.46,0.1,0.71v2.8h-0.89v-2.5c0-0.18-0.01-0.36-0.04-0.52
		c-0.03-0.16-0.08-0.31-0.16-0.44s-0.18-0.23-0.31-0.3s-0.3-0.11-0.51-0.11c-0.35,0-0.65,0.13-0.87,0.4s-0.34,0.63-0.34,1.08v2.4
		h-0.89v-3.54c0-0.12,0-0.28-0.01-0.47c-0.01-0.19-0.02-0.36-0.03-0.5H88.65z"/>
	<path class="st0" d="M94.48,231.73c0,0.17-0.06,0.31-0.18,0.44c-0.12,0.13-0.27,0.19-0.46,0.19c-0.18,0-0.33-0.06-0.45-0.18
		c-0.12-0.12-0.19-0.27-0.19-0.43c0-0.17,0.06-0.32,0.18-0.44c0.12-0.12,0.27-0.19,0.46-0.19c0.18,0,0.34,0.06,0.46,0.18
		C94.42,231.41,94.48,231.56,94.48,231.73z"/>
	<path class="st0" d="M98.93,232.3h-0.94v-6.73h2.16c0.32,0,0.63,0.03,0.92,0.1c0.29,0.07,0.55,0.17,0.77,0.32
		c0.22,0.15,0.39,0.34,0.52,0.58c0.13,0.24,0.19,0.53,0.19,0.87c0,0.5-0.15,0.89-0.46,1.2c-0.3,0.3-0.7,0.5-1.18,0.58l1.88,3.09
		h-1.14l-1.71-3h-1.01V232.3z M98.93,228.52h1.08c0.22,0,0.43-0.02,0.62-0.06c0.19-0.04,0.36-0.1,0.5-0.19
		c0.14-0.08,0.26-0.2,0.34-0.33c0.08-0.14,0.12-0.31,0.12-0.51c0-0.2-0.04-0.37-0.12-0.51c-0.08-0.14-0.19-0.25-0.33-0.33
		c-0.14-0.08-0.3-0.14-0.48-0.18c-0.18-0.03-0.38-0.05-0.58-0.05h-1.15V228.52z"/>
	<path class="st0" d="M107.88,230.01c0,0.05,0,0.1,0,0.15s0,0.1-0.01,0.15h-3.58c0.01,0.19,0.05,0.37,0.13,0.53
		c0.08,0.17,0.19,0.31,0.32,0.43c0.13,0.12,0.29,0.22,0.46,0.29s0.36,0.1,0.56,0.1c0.3,0,0.57-0.07,0.79-0.2
		c0.22-0.13,0.4-0.29,0.52-0.49l0.63,0.5c-0.24,0.32-0.52,0.55-0.85,0.71c-0.33,0.15-0.69,0.23-1.09,0.23
		c-0.34,0-0.66-0.06-0.95-0.17s-0.54-0.27-0.75-0.48c-0.21-0.21-0.37-0.46-0.49-0.75c-0.12-0.29-0.18-0.61-0.18-0.97
		c0-0.35,0.06-0.67,0.18-0.96c0.12-0.29,0.28-0.55,0.49-0.76c0.21-0.21,0.46-0.37,0.74-0.49c0.29-0.12,0.59-0.18,0.92-0.18
		s0.63,0.05,0.9,0.16c0.27,0.11,0.5,0.26,0.69,0.47c0.19,0.2,0.33,0.45,0.43,0.74C107.83,229.32,107.88,229.65,107.88,230.01z
		 M106.97,229.65c-0.01-0.18-0.04-0.34-0.09-0.5s-0.13-0.29-0.24-0.4c-0.1-0.11-0.23-0.2-0.39-0.27s-0.34-0.1-0.55-0.1
		c-0.19,0-0.37,0.03-0.54,0.1s-0.31,0.16-0.44,0.27s-0.23,0.25-0.3,0.4c-0.08,0.16-0.13,0.32-0.14,0.5H106.97z"/>
	<path class="st0" d="M111.55,228.94c-0.1-0.17-0.24-0.3-0.43-0.4c-0.18-0.1-0.39-0.16-0.62-0.16c-0.1,0-0.2,0.01-0.3,0.03
		c-0.1,0.02-0.19,0.06-0.27,0.1c-0.08,0.05-0.14,0.11-0.19,0.18c-0.05,0.07-0.07,0.16-0.07,0.27c0,0.19,0.09,0.33,0.26,0.42
		c0.17,0.09,0.43,0.18,0.77,0.25c0.22,0.05,0.42,0.11,0.6,0.18c0.18,0.07,0.34,0.16,0.48,0.26c0.14,0.1,0.24,0.23,0.32,0.38
		s0.11,0.32,0.11,0.51c0,0.27-0.05,0.49-0.15,0.67s-0.24,0.33-0.4,0.45c-0.17,0.12-0.36,0.2-0.58,0.25
		c-0.22,0.05-0.44,0.08-0.67,0.08c-0.34,0-0.68-0.07-1-0.2c-0.33-0.13-0.6-0.34-0.81-0.61l0.64-0.54c0.12,0.18,0.29,0.33,0.5,0.45
		c0.21,0.12,0.45,0.18,0.7,0.18c0.11,0,0.22-0.01,0.33-0.03c0.1-0.02,0.2-0.06,0.29-0.11c0.09-0.05,0.15-0.12,0.2-0.2
		s0.08-0.19,0.08-0.31c0-0.21-0.1-0.37-0.3-0.47c-0.2-0.1-0.49-0.2-0.88-0.29c-0.15-0.04-0.31-0.08-0.46-0.14s-0.3-0.13-0.42-0.22
		c-0.13-0.09-0.23-0.21-0.31-0.36c-0.08-0.14-0.12-0.32-0.12-0.53c0-0.24,0.05-0.45,0.15-0.62c0.1-0.17,0.23-0.32,0.39-0.43
		c0.16-0.11,0.34-0.19,0.54-0.25c0.2-0.05,0.41-0.08,0.63-0.08c0.32,0,0.64,0.06,0.94,0.19c0.3,0.13,0.53,0.31,0.7,0.55
		L111.55,228.94z"/>
	<path class="st0" d="M116.51,232.3c-0.01-0.11-0.02-0.24-0.03-0.38c-0.01-0.14-0.01-0.26-0.01-0.36h-0.02
		c-0.11,0.24-0.31,0.45-0.58,0.61c-0.27,0.17-0.57,0.25-0.9,0.25c-0.29,0-0.54-0.05-0.76-0.14c-0.21-0.1-0.39-0.23-0.52-0.4
		s-0.24-0.36-0.3-0.58c-0.07-0.22-0.1-0.46-0.1-0.71v-2.8h0.89v2.49c0,0.18,0.01,0.36,0.04,0.53c0.03,0.17,0.08,0.32,0.16,0.44
		s0.18,0.23,0.31,0.3c0.13,0.08,0.3,0.11,0.51,0.11c0.36,0,0.65-0.13,0.88-0.4c0.22-0.27,0.33-0.63,0.33-1.08v-2.4h0.89v3.54
		c0,0.12,0,0.28,0.01,0.47s0.02,0.36,0.03,0.5H116.51z"/>
	<path class="st0" d="M119.78,232.3h-0.89v-7.19h0.89V232.3z"/>
	<path class="st0" d="M123.55,228.53h-1.2v2.34c0,0.27,0.05,0.47,0.15,0.58c0.1,0.12,0.26,0.18,0.49,0.18
		c0.08,0,0.17-0.01,0.27-0.03s0.18-0.04,0.26-0.08l0.03,0.73c-0.11,0.04-0.23,0.07-0.36,0.09c-0.13,0.02-0.26,0.03-0.4,0.03
		c-0.42,0-0.75-0.12-0.97-0.35s-0.34-0.59-0.34-1.06v-2.44h-0.87v-0.73h0.87v-1.29h0.88v1.29h1.2V228.53z"/>
	<path class="st0" d="M126.91,228.94c-0.1-0.17-0.24-0.3-0.43-0.4c-0.18-0.1-0.39-0.16-0.62-0.16c-0.1,0-0.2,0.01-0.3,0.03
		c-0.1,0.02-0.19,0.06-0.27,0.1c-0.08,0.05-0.14,0.11-0.19,0.18c-0.05,0.07-0.07,0.16-0.07,0.27c0,0.19,0.09,0.33,0.26,0.42
		c0.17,0.09,0.43,0.18,0.77,0.25c0.22,0.05,0.42,0.11,0.6,0.18c0.18,0.07,0.34,0.16,0.48,0.26c0.14,0.1,0.24,0.23,0.32,0.38
		s0.11,0.32,0.11,0.51c0,0.27-0.05,0.49-0.15,0.67s-0.24,0.33-0.4,0.45c-0.17,0.12-0.36,0.2-0.58,0.25
		c-0.22,0.05-0.44,0.08-0.67,0.08c-0.34,0-0.68-0.07-1-0.2c-0.33-0.13-0.6-0.34-0.81-0.61l0.64-0.54c0.12,0.18,0.29,0.33,0.5,0.45
		c0.21,0.12,0.45,0.18,0.7,0.18c0.11,0,0.22-0.01,0.33-0.03c0.1-0.02,0.2-0.06,0.29-0.11c0.09-0.05,0.15-0.12,0.2-0.2
		s0.08-0.19,0.08-0.31c0-0.21-0.1-0.37-0.3-0.47c-0.2-0.1-0.49-0.2-0.88-0.29c-0.15-0.04-0.31-0.08-0.46-0.14s-0.3-0.13-0.42-0.22
		c-0.13-0.09-0.23-0.21-0.31-0.36c-0.08-0.14-0.12-0.32-0.12-0.53c0-0.24,0.05-0.45,0.15-0.62c0.1-0.17,0.23-0.32,0.39-0.43
		c0.16-0.11,0.34-0.19,0.54-0.25c0.2-0.05,0.41-0.08,0.63-0.08c0.32,0,0.64,0.06,0.94,0.19c0.3,0.13,0.53,0.31,0.7,0.55
		L126.91,228.94z"/>
	<path class="st0" d="M132.49,227.92c0.25-0.17,0.55-0.25,0.89-0.25c0.3,0,0.58,0.07,0.82,0.21s0.44,0.37,0.58,0.69
		c0.15-0.29,0.36-0.51,0.64-0.67c0.27-0.16,0.57-0.23,0.89-0.23c0.29,0,0.54,0.05,0.75,0.15c0.21,0.1,0.38,0.23,0.52,0.39
		c0.14,0.17,0.24,0.36,0.31,0.58c0.07,0.22,0.1,0.46,0.1,0.71v2.8h-0.89v-2.5c0-0.18-0.02-0.36-0.05-0.52
		c-0.03-0.16-0.09-0.31-0.16-0.44s-0.18-0.23-0.3-0.3c-0.13-0.08-0.29-0.11-0.48-0.11c-0.2,0-0.38,0.04-0.52,0.13
		c-0.15,0.08-0.27,0.2-0.36,0.33c-0.09,0.14-0.16,0.29-0.2,0.46c-0.04,0.17-0.06,0.35-0.06,0.52v2.43h-0.89v-2.68
		c0-0.18-0.02-0.34-0.05-0.49c-0.03-0.15-0.09-0.27-0.16-0.38c-0.08-0.1-0.17-0.19-0.29-0.25c-0.12-0.06-0.27-0.09-0.45-0.09
		c-0.33,0-0.6,0.13-0.82,0.4s-0.33,0.63-0.33,1.08v2.4h-0.89v-3.54c0-0.12,0-0.28-0.01-0.47c-0.01-0.19-0.02-0.36-0.03-0.5h0.85
		c0.01,0.11,0.02,0.24,0.03,0.39s0.01,0.26,0.01,0.36h0.03C132.06,228.29,132.24,228.09,132.49,227.92z"/>
	<path class="st0" d="M142.31,229.38c0-0.34-0.1-0.58-0.3-0.75c-0.2-0.16-0.47-0.24-0.81-0.24c-0.25,0-0.49,0.05-0.72,0.15
		c-0.23,0.1-0.41,0.22-0.57,0.38l-0.48-0.57c0.22-0.21,0.49-0.37,0.81-0.49s0.66-0.18,1.03-0.18c0.32,0,0.6,0.05,0.84,0.14
		s0.43,0.22,0.58,0.38c0.15,0.16,0.27,0.35,0.34,0.56c0.08,0.22,0.11,0.45,0.11,0.69v1.97c0,0.15,0,0.31,0.01,0.48
		c0.01,0.17,0.03,0.31,0.05,0.41h-0.81c-0.05-0.22-0.08-0.43-0.08-0.65h-0.03c-0.17,0.24-0.37,0.43-0.62,0.56
		c-0.25,0.13-0.55,0.2-0.89,0.2c-0.18,0-0.36-0.02-0.56-0.07s-0.37-0.12-0.53-0.23c-0.16-0.11-0.29-0.25-0.39-0.43
		s-0.16-0.4-0.16-0.66c0-0.34,0.09-0.61,0.28-0.81c0.18-0.2,0.42-0.35,0.72-0.46c0.3-0.1,0.63-0.17,1.01-0.2
		c0.37-0.03,0.75-0.05,1.13-0.05V229.38z M142.09,230.15c-0.22,0-0.45,0.01-0.69,0.03c-0.24,0.02-0.45,0.06-0.65,0.11
		c-0.19,0.06-0.35,0.14-0.48,0.26c-0.13,0.11-0.19,0.27-0.19,0.46c0,0.13,0.03,0.24,0.08,0.33s0.12,0.16,0.21,0.22
		c0.09,0.06,0.19,0.1,0.29,0.12c0.11,0.02,0.22,0.03,0.33,0.03c0.42,0,0.74-0.12,0.96-0.38c0.23-0.25,0.34-0.57,0.34-0.95v-0.24
		H142.09z"/>
	<path class="st0" d="M146.37,231.33h0.02l1.25-3.54h0.95l-2.19,5.57c-0.08,0.19-0.16,0.36-0.25,0.51
		c-0.09,0.15-0.19,0.28-0.31,0.38c-0.12,0.1-0.26,0.19-0.42,0.24c-0.16,0.06-0.35,0.09-0.58,0.09c-0.09,0-0.19,0-0.29-0.01
		c-0.1-0.01-0.2-0.03-0.3-0.05l0.09-0.79c0.15,0.05,0.3,0.08,0.45,0.08c0.23,0,0.41-0.07,0.52-0.2c0.11-0.13,0.22-0.32,0.31-0.56
		l0.29-0.75l-1.93-4.51h1L146.37,231.33z"/>
	<path class="st0" d="M153.95,232.3h-0.97l-1.84-4.51h0.99l1.32,3.55h0.02l1.33-3.55h0.95L153.95,232.3z"/>
	<path class="st0" d="M159.43,229.38c0-0.34-0.1-0.58-0.3-0.75c-0.2-0.16-0.47-0.24-0.81-0.24c-0.25,0-0.49,0.05-0.72,0.15
		c-0.23,0.1-0.41,0.22-0.57,0.38l-0.48-0.57c0.22-0.21,0.49-0.37,0.81-0.49s0.66-0.18,1.03-0.18c0.32,0,0.6,0.05,0.84,0.14
		s0.43,0.22,0.58,0.38c0.15,0.16,0.27,0.35,0.34,0.56c0.08,0.22,0.11,0.45,0.11,0.69v1.97c0,0.15,0,0.31,0.01,0.48
		c0.01,0.17,0.03,0.31,0.05,0.41h-0.81c-0.05-0.22-0.08-0.43-0.08-0.65h-0.03c-0.17,0.24-0.37,0.43-0.62,0.56
		c-0.25,0.13-0.55,0.2-0.89,0.2c-0.18,0-0.36-0.02-0.56-0.07s-0.37-0.12-0.53-0.23c-0.16-0.11-0.29-0.25-0.39-0.43
		s-0.16-0.4-0.16-0.66c0-0.34,0.09-0.61,0.28-0.81c0.18-0.2,0.42-0.35,0.72-0.46c0.3-0.1,0.63-0.17,1.01-0.2
		c0.37-0.03,0.75-0.05,1.13-0.05V229.38z M159.21,230.15c-0.22,0-0.45,0.01-0.69,0.03c-0.24,0.02-0.45,0.06-0.65,0.11
		c-0.19,0.06-0.35,0.14-0.48,0.26c-0.13,0.11-0.19,0.27-0.19,0.46c0,0.13,0.03,0.24,0.08,0.33s0.12,0.16,0.21,0.22
		c0.09,0.06,0.19,0.1,0.29,0.12c0.11,0.02,0.22,0.03,0.33,0.03c0.42,0,0.74-0.12,0.96-0.38c0.23-0.25,0.34-0.57,0.34-0.95v-0.24
		H159.21z"/>
	<path class="st0" d="M161.77,228.3c-0.01-0.19-0.02-0.36-0.03-0.5h0.85c0.01,0.11,0.02,0.25,0.03,0.4
		c0.01,0.15,0.01,0.27,0.01,0.37h0.03c0.13-0.27,0.31-0.48,0.56-0.64c0.24-0.16,0.52-0.24,0.82-0.24c0.14,0,0.26,0.01,0.35,0.04
		l-0.04,0.83c-0.13-0.03-0.26-0.05-0.41-0.05c-0.22,0-0.4,0.04-0.56,0.12c-0.16,0.08-0.29,0.19-0.39,0.32
		c-0.1,0.13-0.18,0.29-0.23,0.46c-0.05,0.17-0.08,0.36-0.08,0.55v2.37h-0.89v-3.54C161.78,228.64,161.77,228.49,161.77,228.3z"/>
	<path class="st0" d="M166.93,231.33h0.02l1.25-3.54h0.95l-2.19,5.57c-0.08,0.19-0.16,0.36-0.25,0.51
		c-0.09,0.15-0.19,0.28-0.31,0.38c-0.12,0.1-0.26,0.19-0.42,0.24c-0.16,0.06-0.35,0.09-0.58,0.09c-0.09,0-0.19,0-0.29-0.01
		c-0.1-0.01-0.2-0.03-0.3-0.05l0.09-0.79c0.15,0.05,0.3,0.08,0.45,0.08c0.23,0,0.41-0.07,0.52-0.2c0.11-0.13,0.22-0.32,0.31-0.56
		l0.29-0.75l-1.93-4.51h1L166.93,231.33z"/>
	<path class="st0" d="M170.77,231.73c0,0.17-0.06,0.31-0.18,0.44c-0.12,0.13-0.27,0.19-0.46,0.19c-0.18,0-0.33-0.06-0.45-0.18
		c-0.12-0.12-0.19-0.27-0.19-0.43c0-0.17,0.06-0.32,0.18-0.44c0.12-0.12,0.27-0.19,0.46-0.19c0.18,0,0.34,0.06,0.46,0.18
		C170.71,231.41,170.77,231.56,170.77,231.73z"/>
</g>
</svg>
