<?xml version="1.0" encoding="utf-8"?>
<!-- Generator: Adobe Illustrator 25.2.1, SVG Export Plug-In . SVG Version: 6.00 Build 0)  -->
<svg version="1.1" id="Layer_1" xmlns="http://www.w3.org/2000/svg" xmlns:xlink="http://www.w3.org/1999/xlink" x="0px" y="0px"
	 viewBox="0 0 500 281" style="enable-background:new 0 0 500 281;" xml:space="preserve">
<style type="text/css">
	.st0{fill:#FFFFFF;}
</style>
<g>
	<g>
		<g>
			<g>
				<path class="st0" d="M49.4,47.66c-1.88,0-2.79-1.36-2.79-2.67c0-1.51,1.09-2.73,2.82-2.73c0.58,0,1.19,0.18,1.67,0.58
					l-0.53,0.74c-0.33-0.25-0.68-0.35-1.11-0.35c-0.91,0-1.59,0.63-1.59,1.72c0,0.99,0.63,1.79,1.63,1.79c0.43,0,0.8-0.13,1.13-0.41
					l0.49,0.74C50.64,47.47,50.01,47.66,49.4,47.66"/>
				<path class="st0" d="M54,47.66c-1.57,0-2.73-1.18-2.73-2.73c0-1.59,1.27-2.67,2.73-2.67c1.47,0,2.74,1.08,2.74,2.66
					C56.75,46.48,55.59,47.66,54,47.66 M55.48,44.93c0-0.95-0.47-1.78-1.48-1.78c-0.99,0-1.48,0.82-1.48,1.77
					c0,0.97,0.46,1.84,1.48,1.84c1.02,0,1.48-0.86,1.48-1.84V44.93z"/>
				<path class="st0" d="M59.94,47.66c-1.57,0-2.73-1.18-2.73-2.73c0-1.59,1.27-2.67,2.73-2.67c1.47,0,2.74,1.08,2.74,2.66
					C62.68,46.48,61.52,47.66,59.94,47.66 M61.42,44.93c0-0.95-0.47-1.78-1.48-1.78c-0.99,0-1.48,0.82-1.48,1.77
					c0,0.97,0.46,1.84,1.48,1.84c1.02,0,1.48-0.86,1.48-1.84V44.93z"/>
				<polygon class="st0" points="63.3,47.53 63.3,39.96 64.48,40.61 64.48,47.53 				"/>
				<path class="st0" d="M67.2,47.69c-1.33,0-1.97-0.63-1.97-0.63l0.53-0.69c0,0,0.61,0.4,1.4,0.4c0.38,0,0.7-0.26,0.7-0.53
					c0-0.26-0.12-0.49-0.47-0.67c-0.35-0.18-0.74-0.37-1.05-0.52c-0.31-0.15-0.99-0.6-0.99-1.49c0-0.9,0.91-1.4,1.85-1.4
					c0.89,0,1.57,0.58,1.57,0.58l-0.46,0.7c0,0-0.51-0.36-1.07-0.36c-0.56,0-0.68,0.36-0.68,0.51c0,0.15,0.05,0.38,0.41,0.57
					c0.36,0.19,0.73,0.39,1.27,0.69c0.53,0.3,0.83,0.8,0.83,1.37C69.08,46.8,68.53,47.69,67.2,47.69"/>
				<path class="st0" d="M72.27,47.66c-1.88,0-2.79-1.36-2.79-2.67c0-1.51,1.1-2.73,2.82-2.73c0.58,0,1.19,0.18,1.67,0.58
					l-0.53,0.74c-0.33-0.25-0.68-0.35-1.11-0.35c-0.91,0-1.59,0.63-1.59,1.72c0,0.99,0.63,1.79,1.63,1.79c0.43,0,0.8-0.13,1.13-0.41
					l0.49,0.74C73.52,47.47,72.88,47.66,72.27,47.66"/>
				<path class="st0" d="M78.09,46.93c0,0-0.6,0.73-1.72,0.73c-1.33,0-1.98-0.96-1.98-1.93v-3.35h1.18v3.3
					c0,0.57,0.45,1.05,1.14,1.05c0.61,0,1.2-0.72,1.2-0.72v-3.63h1.18v5.15L78.09,46.93z"/>
				<polygon class="st0" points="80.14,47.53 80.14,39.96 81.32,40.61 81.32,47.53 				"/>
				<path class="st0" d="M85.22,47.66c-1.04,0-1.64-0.58-1.64-0.58v2.57H82.4v-7.38l1.19,0.62c0,0,0.64-0.64,1.7-0.64
					c1.12,0,2.51,0.86,2.51,2.77C87.8,46.93,86.43,47.66,85.22,47.66 M85.15,43.16c-1.01,0-1.59,0.94-1.59,0.94v1.95
					c0,0,0.67,0.75,1.64,0.75c1.13,0,1.37-1.34,1.37-1.81C86.56,44.52,86.46,43.16,85.15,43.16"/>
				<path class="st0" d="M90.9,47.67h-0.74c-0.94,0-1.25-0.9-1.25-1.49v-3.03h-0.94v-0.77h0.94V40.1h1.17v2.27h1.2v0.77h-1.19v2.75
					c0,0.31-0.05,0.79,0.47,0.79h0.85L90.9,47.67z"/>
				<path class="st0" d="M92.79,41.49c-0.43,0-0.78-0.35-0.78-0.77c0-0.42,0.35-0.77,0.78-0.77c0.43,0,0.78,0.35,0.78,0.77
					C93.57,41.14,93.22,41.49,92.79,41.49 M92.21,42.38h1.16v5.16h-1.16V42.38z"/>
				<path class="st0" d="M98.05,47.53v-3.3c0-0.57-0.45-1.05-1.14-1.05c-0.61,0-1.29,0.72-1.29,0.72v3.63h-1.18v-5.15l1,0.59
					c0,0,0.68-0.73,1.81-0.73c1.33,0,1.98,0.96,1.98,1.93v3.35H98.05z"/>
				<path class="st0" d="M102.83,49.93c-0.18,0-1.56-0.02-1.56-0.02l0.02-0.94h1.16c1.13,0,1.76-0.6,1.76-1.43v-0.47
					c0,0-0.62,0.58-1.66,0.58c-1.2,0-2.57-0.73-2.57-2.64c0-1.91,1.39-2.77,2.51-2.77c1.06,0,1.7,0.64,1.7,0.64l1.19-0.59v5.13
					C105.38,48.81,104.46,49.93,102.83,49.93 M104.23,44.1c0,0-0.58-0.94-1.59-0.94c-1.31,0-1.41,1.36-1.41,1.83
					c0,0.47,0.24,1.81,1.37,1.81c0.97,0,1.64-0.75,1.64-0.75V44.1z"/>
				<polygon class="st0" points="34.66,45.19 32.49,47.35 35.15,48.34 38.32,45.19 				"/>
				<polygon class="st0" points="38.64,40.8 36.48,38.65 35.46,41.28 38.64,44.44 				"/>
				<polygon class="st0" points="42.57,41.59 45.47,42.35 43.05,44.75 39.39,44.75 				"/>
				<polygon class="st0" points="42.37,48.78 41.54,51.59 37.03,47.1 38.86,45.28 				"/>
				<g>
					<path class="st0" d="M107.15,42.73c0,0.31-0.25,0.55-0.56,0.55c-0.31,0-0.56-0.24-0.56-0.55c0-0.31,0.25-0.54,0.57-0.54
						C106.9,42.18,107.15,42.42,107.15,42.73z M106.16,42.73c0,0.24,0.18,0.43,0.43,0.43c0.24,0,0.42-0.19,0.42-0.43
						c0-0.24-0.18-0.44-0.42-0.44C106.35,42.29,106.16,42.49,106.16,42.73z M106.5,43.01h-0.13v-0.54c0.05-0.01,0.12-0.02,0.21-0.02
						c0.1,0,0.15,0.02,0.19,0.04c0.03,0.02,0.06,0.06,0.06,0.12c0,0.07-0.05,0.11-0.11,0.13v0.01c0.05,0.02,0.08,0.06,0.1,0.13
						c0.02,0.08,0.03,0.11,0.04,0.13h-0.13c-0.02-0.02-0.03-0.07-0.04-0.13c-0.01-0.06-0.04-0.08-0.11-0.08h-0.06V43.01z
						 M106.5,42.7h0.06c0.07,0,0.13-0.02,0.13-0.08c0-0.05-0.04-0.08-0.12-0.08c-0.03,0-0.06,0-0.07,0.01V42.7z"/>
				</g>
			</g>
			<g>
				<polygon class="st0" points="36.05,51.45 36.05,48.07 36.71,47.41 38.63,49.32 38.63,49.96 				"/>
				<polygon class="st0" points="35.74,42.17 32.94,42.17 33.83,44.75 38.32,44.75 				"/>
				<polygon class="st0" points="45.18,47.76 41.98,47.76 39.39,45.19 43.88,45.19 				"/>
				<polygon class="st0" points="39.08,39.97 41.67,38.44 41.67,41.86 39.08,44.44 				"/>
				<g>
					<path class="st0" d="M43.63,48.96c0,0.21-0.17,0.38-0.39,0.38c-0.22,0-0.39-0.17-0.39-0.38c0-0.21,0.17-0.38,0.39-0.38
						C43.46,48.58,43.63,48.75,43.63,48.96z M42.95,48.96c0,0.17,0.13,0.3,0.3,0.3c0.16,0,0.29-0.13,0.29-0.3
						c0-0.17-0.12-0.3-0.29-0.3C43.08,48.66,42.95,48.79,42.95,48.96z M43.18,49.15H43.1v-0.38c0.03,0,0.08-0.01,0.15-0.01
						c0.07,0,0.1,0.01,0.13,0.03c0.02,0.02,0.04,0.04,0.04,0.08c0,0.05-0.03,0.08-0.08,0.09v0c0.04,0.01,0.06,0.04,0.07,0.09
						c0.01,0.06,0.02,0.08,0.03,0.09h-0.09c-0.01-0.01-0.02-0.05-0.03-0.09C43.3,49.02,43.27,49,43.23,49h-0.04V49.15z M43.19,48.94
						h0.04c0.05,0,0.09-0.02,0.09-0.06c0-0.03-0.03-0.06-0.08-0.06c-0.02,0-0.04,0-0.05,0V48.94z"/>
				</g>
			</g>
		</g>
	</g>
	<g>
		<path class="st0" d="M22.43,42.53h0.47v2.58h0.01c0.08-0.11,0.17-0.21,0.27-0.29c0.1-0.08,0.21-0.15,0.33-0.2
			c0.11-0.05,0.23-0.09,0.35-0.11c0.12-0.02,0.23-0.04,0.34-0.04c0.26,0,0.5,0.04,0.71,0.13c0.21,0.09,0.4,0.21,0.56,0.36
			c0.16,0.15,0.28,0.34,0.36,0.55c0.09,0.21,0.13,0.44,0.13,0.69c0,0.25-0.04,0.48-0.13,0.69c-0.09,0.21-0.21,0.39-0.36,0.55
			c-0.16,0.15-0.34,0.28-0.56,0.36c-0.22,0.09-0.45,0.13-0.71,0.13c-0.11,0-0.22-0.01-0.34-0.04c-0.12-0.02-0.24-0.06-0.35-0.11
			c-0.11-0.05-0.22-0.12-0.33-0.2c-0.1-0.08-0.19-0.18-0.27-0.29H22.9v0.55h-0.47V42.53z M25.45,46.2c0-0.18-0.03-0.35-0.09-0.51
			c-0.06-0.16-0.14-0.3-0.25-0.42c-0.11-0.12-0.24-0.21-0.39-0.28c-0.15-0.07-0.33-0.1-0.52-0.1s-0.37,0.03-0.53,0.1
			c-0.16,0.07-0.3,0.16-0.42,0.28c-0.12,0.12-0.21,0.26-0.28,0.42c-0.07,0.16-0.1,0.33-0.1,0.51c0,0.18,0.03,0.35,0.1,0.51
			c0.07,0.16,0.16,0.3,0.28,0.42c0.12,0.12,0.26,0.21,0.42,0.28c0.16,0.07,0.34,0.1,0.53,0.1s0.37-0.03,0.52-0.1
			c0.15-0.07,0.28-0.16,0.39-0.28c0.11-0.12,0.19-0.26,0.25-0.42C25.42,46.55,25.45,46.38,25.45,46.2z"/>
		<path class="st0" d="M27.99,47.28L29,44.55h0.57l-1.66,4.15c-0.1,0.25-0.23,0.45-0.38,0.61c-0.15,0.15-0.37,0.23-0.66,0.23
			c-0.07,0-0.14,0-0.22-0.01c-0.07,0-0.15-0.02-0.22-0.04l0.05-0.45c0.1,0.05,0.22,0.08,0.35,0.08c0.17,0,0.3-0.05,0.39-0.15
			c0.09-0.1,0.18-0.25,0.25-0.44l0.24-0.63l-1.36-3.34h0.59L27.99,47.28z"/>
	</g>
	<g>
		<path class="st0" d="M31.65,32.3c-1.02,0.88-2.27,1.32-3.77,1.32c-1.95,0-3.49-0.63-4.62-1.9c-1.02-1.14-1.52-2.52-1.52-4.13
			c0-1.73,0.57-3.18,1.71-4.35c1.14-1.17,2.65-1.76,4.52-1.76c1.44,0,2.66,0.44,3.66,1.31l-1.17,1.64
			c-0.67-0.51-1.48-0.76-2.44-0.76c-1.03,0-1.87,0.35-2.52,1.04c-0.65,0.7-0.97,1.64-0.97,2.82c0,1.15,0.32,2.11,0.97,2.87
			c0.65,0.76,1.51,1.14,2.59,1.14c0.94,0,1.77-0.3,2.51-0.9L31.65,32.3z"/>
		<path class="st0" d="M43.84,27.47c0,1.76-0.57,3.22-1.72,4.39c-1.15,1.17-2.59,1.76-4.33,1.76c-1.73,0-3.17-0.59-4.31-1.76
			c-1.14-1.17-1.71-2.64-1.71-4.39c0-1.73,0.6-3.17,1.81-4.32c1.16-1.11,2.56-1.66,4.22-1.66c1.66,0,3.07,0.55,4.24,1.66
			C43.24,24.3,43.84,25.74,43.84,27.47z M41.05,27.47c0-1.12-0.27-2.05-0.8-2.78c-0.59-0.79-1.41-1.19-2.46-1.19
			c-1.05,0-1.86,0.4-2.44,1.19c-0.53,0.73-0.8,1.65-0.8,2.78c0,1.19,0.26,2.15,0.77,2.89c0.58,0.82,1.4,1.23,2.46,1.23
			c1.06,0,1.89-0.41,2.49-1.23C40.8,29.62,41.05,28.65,41.05,27.47z"/>
		<path class="st0" d="M56.81,27.47c0,1.76-0.57,3.22-1.72,4.39c-1.15,1.17-2.59,1.76-4.33,1.76c-1.73,0-3.17-0.59-4.31-1.76
			c-1.14-1.17-1.71-2.64-1.71-4.39c0-1.73,0.6-3.17,1.81-4.32c1.16-1.11,2.56-1.66,4.22-1.66c1.66,0,3.07,0.55,4.24,1.66
			C56.21,24.3,56.81,25.74,56.81,27.47z M54.02,27.47c0-1.12-0.27-2.05-0.8-2.78c-0.59-0.79-1.41-1.19-2.46-1.19
			c-1.05,0-1.86,0.4-2.44,1.19c-0.53,0.73-0.8,1.65-0.8,2.78c0,1.19,0.26,2.15,0.77,2.89c0.58,0.82,1.4,1.23,2.46,1.23
			c1.06,0,1.89-0.41,2.49-1.23C53.76,29.62,54.02,28.65,54.02,27.47z"/>
		<path class="st0" d="M60.79,33.36h-2.6V16.32l2.6,1.45V33.36z"/>
		<g>
			<g>
				<path class="st0" d="M80.67,27.47c0,1.76-0.57,3.22-1.72,4.39c-1.15,1.17-2.59,1.76-4.33,1.76c-1.73,0-3.17-0.59-4.31-1.76
					c-1.14-1.17-1.71-2.64-1.71-4.39c0-1.73,0.6-3.17,1.81-4.32c1.16-1.11,2.56-1.66,4.22-1.66c1.66,0,3.07,0.55,4.24,1.66
					C80.07,24.3,80.67,25.74,80.67,27.47z M77.88,27.47c0-1.12-0.27-2.05-0.8-2.78c-0.59-0.79-1.41-1.19-2.46-1.19
					c-1.05,0-1.86,0.4-2.44,1.19c-0.53,0.73-0.8,1.65-0.8,2.78c0,1.19,0.26,2.15,0.77,2.89c0.58,0.82,1.4,1.23,2.46,1.23
					c1.06,0,1.89-0.41,2.49-1.23C77.63,29.62,77.88,28.65,77.88,27.47z"/>
				<path class="st0" d="M92.51,33.36h-2.6v-7.41c0-0.66-0.23-1.22-0.69-1.67c-0.46-0.45-1.07-0.68-1.82-0.68
					c-0.83,0-1.77,0.54-2.84,1.61v8.14h-2.6V21.77l2.2,1.33c1.12-1.09,2.45-1.64,3.99-1.64c1.38,0,2.47,0.45,3.28,1.36
					c0.72,0.81,1.08,1.81,1.08,3V33.36z"/>
				<path class="st0" d="M105.22,28.1H96.9c0.31,2.36,1.42,3.55,3.33,3.55c1.17,0,2.13-0.33,2.88-1l1.03,1.69
					c-1,0.92-2.33,1.38-3.99,1.38c-2.3,0-3.98-0.86-5.04-2.59c-0.66-1.06-0.98-2.16-0.98-3.28c0-1.38,0.27-2.58,0.8-3.59
					c0.95-1.86,2.65-2.78,5.09-2.78c2.41,0,3.99,1.1,4.76,3.31C105.1,25.7,105.25,26.81,105.22,28.1z M102.59,26.38
					c-0.09-2.05-0.97-3.07-2.63-3.07c-1.83,0-2.84,1.02-3.02,3.07H102.59z"/>
				<path class="st0" d="M66.42,31.45c-0.5,0-0.81-0.21-0.94-0.64c-0.06-0.17-0.09-0.56-0.09-1.14v-4.83h1.81V23.1h-1.81v-2.77
					l-2.6-1.45v11.43c0,0.83,0.2,1.55,0.61,2.17c0.5,0.79,1.22,1.19,2.16,1.19h1.64l1.1-2.21H66.42z"/>
			</g>
		</g>
		<g>
			<path class="st0" d="M108.2,22.7c0,0.69-0.56,1.23-1.26,1.23c-0.71,0-1.27-0.55-1.27-1.23c0-0.69,0.56-1.22,1.28-1.22
				C107.65,21.47,108.2,22.01,108.2,22.7z M105.99,22.7c0,0.54,0.41,0.98,0.96,0.98c0.53,0.01,0.94-0.43,0.94-0.97
				c0-0.54-0.41-0.98-0.95-0.98C106.4,21.72,105.99,22.16,105.99,22.7z M106.75,23.33h-0.28v-1.22c0.11-0.01,0.27-0.04,0.47-0.04
				c0.23,0,0.34,0.04,0.42,0.1c0.08,0.05,0.13,0.14,0.13,0.26c0,0.15-0.11,0.25-0.26,0.29v0.01c0.12,0.04,0.18,0.13,0.22,0.3
				c0.04,0.19,0.07,0.25,0.09,0.3h-0.3c-0.04-0.04-0.06-0.15-0.1-0.3c-0.02-0.13-0.1-0.19-0.26-0.19h-0.13V23.33z M106.76,22.65
				h0.13c0.16,0,0.29-0.05,0.29-0.18c0-0.11-0.08-0.19-0.26-0.19c-0.08,0-0.13,0.01-0.16,0.01V22.65z"/>
		</g>
	</g>
</g>
</svg>
