<?xml version="1.0" encoding="utf-8"?>
<!-- Generator: Adobe Illustrator 25.4.1, SVG Export Plug-In . SVG Version: 6.00 Build 0)  -->
<svg version="1.1" id="Layer_1" xmlns="http://www.w3.org/2000/svg" xmlns:xlink="http://www.w3.org/1999/xlink" x="0px" y="0px"
	 viewBox="0 0 728 90" style="enable-background:new 0 0 728 90;" xml:space="preserve">
<style type="text/css">
	.st0{fill:#00A9E0;}
</style>
<g>
	<path class="st0" d="M23.05,37.77v-4.24h2.03v3.85c0,2,0.56,2.8,1.96,2.8c1.44,0,2-0.81,2-2.8v-3.64c0-1.65-0.46-2.45-1.65-3.22
		l-1.86-1.19c-1.79-1.16-2.49-2.49-2.49-4.83v-3.12c0-2.66,1.44-4.17,3.92-4.17c2.49,0,3.92,1.51,3.92,4.17v3.12h-2.03v-2.77
		c0-1.89-0.53-2.63-1.86-2.63c-1.33,0-1.86,0.74-1.86,2.63v2.63c0,1.65,0.46,2.45,1.65,3.22l1.86,1.19
		c1.79,1.16,2.49,2.49,2.49,4.83v4.17c0,2.77-1.51,4.31-4.06,4.31C24.52,42.08,23.05,40.53,23.05,37.77z"/>
	<path class="st0" d="M35.56,19.37h-2.94v-1.82h7.99v1.82h-2.94v22.35h-2.1V19.37z"/>
	<path class="st0" d="M43.69,17.55h2.77l3.05,24.17h-2.14l-0.7-5.99h-3.29l-0.7,5.99h-2.03L43.69,17.55z M46.45,33.91l-1.4-13.03
		h-0.07l-1.4,13.03H46.45z"/>
	<path class="st0" d="M51.57,17.55h3.89c2.8,0,4.13,1.44,4.13,4.38v3.08c0,1.96-0.63,3.15-1.89,3.71v0.07
		c1.26,0.56,1.89,1.75,1.89,3.75v9.18h-2.1v-9.04c0-2.24-0.63-2.91-2.63-2.91h-1.19v11.95h-2.1V17.55z M55.21,27.96
		c1.75,0,2.28-0.67,2.28-2.91v-2.77c0-2.24-0.53-2.91-2.28-2.91h-1.54v8.58H55.21z"/>
	<path class="st0" d="M64.36,19.37h-2.94v-1.82h7.99v1.82h-2.94v22.35h-2.1V19.37z"/>
	<path class="st0" d="M75.22,17.55h2.14l1.82,19.58h0.07l2.1-19.58h2.1l2.1,19.58h0.07l1.82-19.58h1.96l-2.63,24.17h-2.42
		L82.4,23.68h-0.07l-1.96,18.04h-2.52L75.22,17.55z"/>
	<path class="st0" d="M91.51,17.55h2.1v24.17h-2.1V17.55z"/>
	<path class="st0" d="M98.59,19.37h-2.94v-1.82h7.99v1.82h-2.94v22.35h-2.1V19.37z"/>
	<path class="st0" d="M105.66,17.55h2.1v10.26h3.96V17.55h2.1v24.17h-2.1V29.64h-3.96v12.09h-2.1V17.55z"/>
	<path class="st0" d="M123.49,17.55h2.77l3.05,24.17h-2.14l-0.7-5.99h-3.29l-0.7,5.99h-2.03L123.49,17.55z M126.26,33.91l-1.4-13.03
		h-0.07l-1.4,13.03H126.26z"/>
	<path class="st0" d="M135.93,17.55h3.99c2.8,0,4.13,1.44,4.13,4.38v3.78c0,2.94-1.33,4.38-4.13,4.38h-1.89v11.63h-2.1V17.55z
		 M139.68,28.27c1.75,0,2.28-0.67,2.28-2.91v-3.08c0-2.24-0.53-2.91-2.28-2.91h-1.65v8.9H139.68z"/>
	<path class="st0" d="M146.34,17.55h2.1V39.9h4.48v1.82h-6.59V17.55z"/>
	<path class="st0" d="M157.3,17.55h2.77l3.05,24.17h-2.14l-0.7-5.99h-3.29l-0.7,5.99h-2.03L157.3,17.55z M160.07,33.91l-1.4-13.03
		h-0.07l-1.4,13.03H160.07z"/>
	<path class="st0" d="M165.18,17.55h2.73l3.82,17.69h0.07V17.55h1.89v24.17h-2.28l-4.27-19.93h-0.07v19.93h-1.89V17.55z"/>
	<path class="st0" d="M23.44,46.75h3.99c2.8,0,4.13,1.44,4.13,4.38v15.42c0,2.94-1.33,4.38-4.13,4.38h-3.99V46.75z M27.18,69.1
		c1.75,0,2.28-0.67,2.28-2.91V51.48c0-2.24-0.53-2.91-2.28-2.91h-1.65V69.1H27.18z"/>
	<path class="st0" d="M34.26,46.75h6.94v1.82h-4.83v8.44h4.2v1.82h-4.2V69.1h4.83v1.82h-6.94V46.75z"/>
	<path class="st0" d="M43.05,66.96v-4.24h2.03v3.85c0,2,0.56,2.8,1.96,2.8c1.44,0,2-0.81,2-2.8v-3.64c0-1.65-0.46-2.45-1.65-3.22
		l-1.86-1.19c-1.79-1.16-2.49-2.49-2.49-4.83v-3.12c0-2.66,1.44-4.17,3.92-4.17c2.49,0,3.92,1.51,3.92,4.17v3.12h-2.03v-2.77
		c0-1.89-0.53-2.63-1.86-2.63c-1.33,0-1.86,0.74-1.86,2.63v2.63c0,1.65,0.46,2.45,1.65,3.22l1.86,1.19
		c1.79,1.16,2.49,2.49,2.49,4.83v4.17c0,2.77-1.51,4.31-4.06,4.31S43.05,69.73,43.05,66.96z"/>
	<path class="st0" d="M53.56,46.75h2.1v24.17h-2.1V46.75z"/>
	<path class="st0" d="M58.4,67.49V50.74c0-2.77,1.51-4.34,4.03-4.34c2.56,0,3.99,1.58,3.99,4.34v2.66h-2v-2.28
		c0-2.03-0.56-2.84-1.96-2.84c-1.44,0-1.96,0.81-1.96,2.84v16.12c0,1.44,0.53,2.14,1.68,2.14c1.44,0,2.24-1.09,2.24-3.05v-6.94
		h-1.96v-1.82h4.06v13.35h-1.79V69.2h-0.11c-0.56,1.33-1.58,2.07-3.01,2.07C59.59,71.27,58.4,69.83,58.4,67.49z"/>
	<path class="st0" d="M69.16,46.75h2.73l3.82,17.69h0.07V46.75h1.89v24.17h-2.28l-4.27-19.93h-0.07v19.93h-1.89V46.75z"/>
	<path class="st0" d="M80.54,46.75h6.94v1.82h-4.83v8.44h4.2v1.82h-4.2V69.1h4.83v1.82h-6.94V46.75z"/>
	<path class="st0" d="M89.65,46.75h3.99c2.8,0,4.13,1.44,4.13,4.38v15.42c0,2.94-1.33,4.38-4.13,4.38h-3.99V46.75z M93.4,69.1
		c1.75,0,2.28-0.67,2.28-2.91V51.48c0-2.24-0.53-2.91-2.28-2.91h-1.65V69.1H93.4z"/>
	<path class="st0" d="M107.27,46.75h2.77l3.05,24.17h-2.14l-0.7-5.99h-3.29l-0.7,5.99h-2.03L107.27,46.75z M110.04,63.11l-1.4-13.03
		h-0.07l-1.4,13.03H110.04z"/>
	<path class="st0" d="M115.15,46.75h3.89c2.8,0,4.13,1.44,4.13,4.38v3.08c0,1.96-0.63,3.15-1.89,3.71v0.07
		c1.26,0.56,1.89,1.75,1.89,3.75v9.18h-2.1v-9.04c0-2.24-0.63-2.91-2.63-2.91h-1.19v11.95h-2.1V46.75z M118.8,57.15
		c1.75,0,2.28-0.67,2.28-2.91v-2.77c0-2.24-0.53-2.91-2.28-2.91h-1.54v8.58H118.8z"/>
	<path class="st0" d="M125.74,66.89V50.78c0-2.8,1.51-4.38,4.06-4.38c2.56,0,4.06,1.58,4.06,4.38v16.12c0,2.8-1.51,4.38-4.06,4.38
		C127.24,71.27,125.74,69.69,125.74,66.89z M131.76,66.54V51.13c0-2.03-0.56-2.84-1.96-2.84c-1.44,0-1.96,0.81-1.96,2.84v15.42
		c0,2.03,0.53,2.84,1.96,2.84C131.2,69.38,131.76,68.57,131.76,66.54z"/>
	<path class="st0" d="M136.53,67.03V46.75h2.1v19.9c0,1.96,0.49,2.73,1.89,2.73s1.89-0.77,1.89-2.73v-19.9h2.03v20.29
		c0,2.7-1.47,4.24-3.96,4.24S136.53,69.73,136.53,67.03z"/>
	<path class="st0" d="M147.25,46.75h2.73l3.82,17.69h0.07V46.75h1.89v24.17h-2.28l-4.27-19.93h-0.07v19.93h-1.89V46.75z"/>
	<path class="st0" d="M158.63,46.75h3.99c2.8,0,4.13,1.44,4.13,4.38v15.42c0,2.94-1.33,4.38-4.13,4.38h-3.99V46.75z M162.38,69.1
		c1.75,0,2.28-0.67,2.28-2.91V51.48c0-2.24-0.53-2.91-2.28-2.91h-1.65V69.1H162.38z"/>
	<path class="st0" d="M176.54,59.64l-3.4-12.89h2.17l2.31,9.56h0.07l2.31-9.56h2.03l-3.4,12.89v11.28h-2.1V59.64z"/>
	<path class="st0" d="M183.37,66.89V50.78c0-2.8,1.51-4.38,4.06-4.38c2.56,0,4.06,1.58,4.06,4.38v16.12c0,2.8-1.51,4.38-4.06,4.38
		C184.87,71.27,183.37,69.69,183.37,66.89z M189.39,66.54V51.13c0-2.03-0.56-2.84-1.96-2.84c-1.44,0-1.96,0.81-1.96,2.84v15.42
		c0,2.03,0.53,2.84,1.96,2.84C188.83,69.38,189.39,68.57,189.39,66.54z"/>
	<path class="st0" d="M194.16,67.03V46.75h2.1v19.9c0,1.96,0.49,2.73,1.89,2.73s1.89-0.77,1.89-2.73v-19.9h2.03v20.29
		c0,2.7-1.47,4.24-3.96,4.24S194.16,69.73,194.16,67.03z"/>
	<path class="st0" d="M204.81,68.05h2.35v2.87h-2.35V68.05z"/>
</g>
</svg>
