<?xml version="1.0" encoding="utf-8"?>
<!-- Generator: Adobe Illustrator 25.4.1, SVG Export Plug-In . SVG Version: 6.00 Build 0)  -->
<svg version="1.1" id="Layer_1" xmlns="http://www.w3.org/2000/svg" xmlns:xlink="http://www.w3.org/1999/xlink" x="0px" y="0px"
	 viewBox="0 0 728 90" style="enable-background:new 0 0 728 90;" xml:space="preserve">
<style type="text/css">
	.st0{fill:#BDD6E6;}
	.st1{fill:#00A9E0;}
</style>
<g>
	<path class="st0" d="M31.67,18.87v19.4c0,3.14-1.7,4.92-4.67,4.92c-2.94,0-4.63-1.78-4.63-4.92V35.5h2.36v2.32
		c0,2.32,0.66,3.23,2.23,3.23c1.57,0,2.27-0.91,2.27-3.23v-7.86h-0.08c-0.7,1.08-1.74,1.61-3.14,1.61c-2.36,0-3.72-1.61-3.72-4.38
		v-8.31c0-3.23,1.7-5.05,4.67-5.05C29.94,13.82,31.67,15.64,31.67,18.87z M24.72,19.2v7.74c0,1.7,0.62,2.48,1.9,2.48
		c1.61,0,2.61-1.32,2.61-3.56V19.2c0-2.32-0.66-3.23-2.27-3.23C25.34,15.97,24.72,16.88,24.72,19.2z"/>
	<path class="st0" d="M39.69,38.02V18.99c0-3.31,1.78-5.17,4.8-5.17s4.8,1.86,4.8,5.17v19.03c0,3.31-1.78,5.17-4.8,5.17
		S39.69,41.33,39.69,38.02z M46.81,37.61v-18.2c0-2.4-0.66-3.35-2.32-3.35c-1.7,0-2.32,0.95-2.32,3.35v18.2
		c0,2.4,0.62,3.35,2.32,3.35C46.15,40.96,46.81,40.01,46.81,37.61z"/>
	<path class="st0" d="M52.23,38.19V14.24h2.48v23.5c0,2.32,0.58,3.23,2.23,3.23s2.23-0.91,2.23-3.23v-23.5h2.4v23.95
		c0,3.19-1.74,5.01-4.67,5.01S52.23,41.37,52.23,38.19z"/>
	<path class="st0" d="M67.16,16.39h-3.48v-2.15h9.43v2.15h-3.47v26.39h-2.48V16.39z"/>
	<path class="st0" d="M80.31,38.02V18.99c0-3.31,1.78-5.17,4.8-5.17c3.02,0,4.8,1.86,4.8,5.17v19.03c0,3.31-1.78,5.17-4.8,5.17
		C82.09,43.19,80.31,41.33,80.31,38.02z M87.42,37.61v-18.2c0-2.4-0.66-3.35-2.32-3.35c-1.7,0-2.32,0.95-2.32,3.35v18.2
		c0,2.4,0.62,3.35,2.32,3.35C86.76,40.96,87.42,40.01,87.42,37.61z"/>
	<path class="st0" d="M92.92,14.24h8.19v2.15H95.4v10.38h4.96v2.15H95.4v13.86h-2.48V14.24z"/>
	<path class="st0" d="M111.12,17.05l-3.64,2.23v-2.32l4.55-2.81h1.53v28.63h-2.44V17.05z"/>
	<path class="st0" d="M116.58,38.15V18.87c0-3.23,1.7-5.05,4.67-5.05s4.67,1.82,4.67,5.05v19.28c0,3.23-1.7,5.05-4.67,5.05
		S116.58,41.37,116.58,38.15z M123.49,37.81V19.2c0-2.32-0.62-3.23-2.23-3.23s-2.23,0.91-2.23,3.23v18.62
		c0,2.32,0.62,3.23,2.23,3.23S123.49,40.13,123.49,37.81z"/>
	<path class="st1" d="M134.11,14.24h4.72c3.31,0,4.88,1.7,4.88,5.17v4.47c0,3.47-1.57,5.17-4.88,5.17h-2.23v13.73h-2.48V14.24z
		 M138.54,26.89c2.07,0,2.69-0.79,2.69-3.43v-3.64c0-2.65-0.62-3.43-2.69-3.43h-1.94v10.51H138.54z"/>
	<path class="st1" d="M147.6,14.24h3.27l3.6,28.54h-2.52l-0.83-7.07h-3.89l-0.83,7.07H144L147.6,14.24z M150.87,33.55l-1.65-15.39
		h-0.08l-1.65,15.39H150.87z"/>
	<path class="st1" d="M157.77,16.39h-3.48v-2.15h9.43v2.15h-3.47v26.39h-2.48V16.39z"/>
	<path class="st1" d="M165.92,14.24h2.48v28.54h-2.48V14.24z"/>
	<path class="st1" d="M171.59,14.24h8.19v2.15h-5.71v9.97h4.96v2.15h-4.96v12.12h5.71v2.15h-8.19V14.24z"/>
	<path class="st1" d="M182.13,14.24h3.23l4.51,20.89h0.08V14.24h2.23v28.54h-2.69l-5.05-23.54h-0.08v23.54h-2.23V14.24z"/>
	<path class="st1" d="M197.85,16.39h-3.48v-2.15h9.43v2.15h-3.47v26.39h-2.48V16.39z"/>
	<path class="st1" d="M205.54,38.1V33.1h2.4v4.55c0,2.36,0.66,3.31,2.32,3.31c1.7,0,2.36-0.95,2.36-3.31v-4.3
		c0-1.94-0.54-2.9-1.94-3.81l-2.19-1.41c-2.11-1.37-2.94-2.94-2.94-5.71v-3.68c0-3.14,1.7-4.92,4.63-4.92s4.63,1.78,4.63,4.92v3.68
		h-2.4v-3.27c0-2.23-0.62-3.1-2.19-3.1c-1.57,0-2.19,0.87-2.19,3.1v3.1c0,1.94,0.54,2.9,1.94,3.81l2.19,1.41
		c2.11,1.37,2.94,2.94,2.94,5.71v4.92c0,3.27-1.78,5.09-4.8,5.09C207.28,43.19,205.54,41.37,205.54,38.1z"/>
	<path class="st1" d="M222,14.24h2.52l2.15,23.12h0.08l2.48-23.12h2.48l2.48,23.12h0.08l2.15-23.12h2.32l-3.1,28.54h-2.85
		l-2.32-21.3h-0.08l-2.32,21.3h-2.98L222,14.24z"/>
	<path class="st1" d="M240.74,38.02V18.99c0-3.31,1.78-5.17,4.8-5.17s4.8,1.86,4.8,5.17v19.03c0,3.31-1.78,5.17-4.8,5.17
		S240.74,41.33,240.74,38.02z M247.85,37.61v-18.2c0-2.4-0.66-3.35-2.32-3.35c-1.7,0-2.32,0.95-2.32,3.35v18.2
		c0,2.4,0.62,3.35,2.32,3.35C247.19,40.96,247.85,40.01,247.85,37.61z"/>
	<path class="st1" d="M253.27,38.19V14.24h2.48v23.5c0,2.32,0.58,3.23,2.23,3.23s2.23-0.91,2.23-3.23v-23.5h2.4v23.95
		c0,3.19-1.74,5.01-4.67,5.01S253.27,41.37,253.27,38.19z"/>
	<path class="st1" d="M265.72,14.24h2.48v26.39h5.29v2.15h-7.78V14.24z"/>
	<path class="st1" d="M275.68,14.24h4.72c3.31,0,4.88,1.7,4.88,5.17v18.2c0,3.48-1.57,5.17-4.88,5.17h-4.72V14.24z M280.11,40.63
		c2.07,0,2.69-0.79,2.69-3.43V19.82c0-2.65-0.62-3.43-2.69-3.43h-1.94v24.24H280.11z"/>
</g>
</svg>
