<?xml version="1.0" encoding="utf-8"?>
<!-- Generator: Adobe Illustrator 25.4.1, SVG Export Plug-In . SVG Version: 6.00 Build 0)  -->
<svg version="1.1" id="Layer_1" xmlns="http://www.w3.org/2000/svg" xmlns:xlink="http://www.w3.org/1999/xlink" x="0px" y="0px"
	 viewBox="0 0 728 90" style="enable-background:new 0 0 728 90;" xml:space="preserve">
<style type="text/css">
	.st0{fill:#00A9E0;}
</style>
<g>
	<path class="st0" d="M25.83,20.61h-3.19v-1.97h8.66v1.97h-3.19v24.22h-2.28V20.61z"/>
	<path class="st0" d="M34.72,18.64h3l3.3,26.19H38.7l-0.76-6.49h-3.57l-0.76,6.49h-2.2L34.72,18.64z M37.72,36.37L36.2,22.24h-0.08
		L34.6,36.37H37.72z"/>
	<path class="st0" d="M43.33,18.64h2.28v24.22h4.86v1.97h-7.14V18.64z"/>
	<path class="st0" d="M59.96,44.83L55.1,31.62h-0.08v13.21h-2.28V18.64h2.28v12.22h0.08l4.75-12.22h2.32l-4.9,12.49l5.12,13.71
		H59.96z"/>
	<path class="st0" d="M71.96,20.61h-3.19v-1.97h8.66v1.97h-3.19v24.22h-2.28V20.61z"/>
	<path class="st0" d="M79.24,40.47V23c0-3.04,1.63-4.75,4.4-4.75s4.4,1.71,4.4,4.75v17.46c0,3.04-1.63,4.75-4.4,4.75
		S79.24,43.5,79.24,40.47z M85.77,40.09v-16.7c0-2.2-0.61-3.08-2.13-3.08c-1.56,0-2.13,0.87-2.13,3.08v16.7
		c0,2.2,0.57,3.08,2.13,3.08C85.17,43.16,85.77,42.29,85.77,40.09z"/>
	<path class="st0" d="M98.83,32.61l-3.68-13.97h2.35L100.01,29h0.08l2.51-10.36h2.2l-3.68,13.97v12.22h-2.28V32.61z"/>
	<path class="st0" d="M106.31,40.47V23c0-3.04,1.63-4.75,4.4-4.75s4.4,1.71,4.4,4.75v17.46c0,3.04-1.63,4.75-4.4,4.75
		S106.31,43.5,106.31,40.47z M112.84,40.09v-16.7c0-2.2-0.61-3.08-2.13-3.08c-1.56,0-2.13,0.87-2.13,3.08v16.7
		c0,2.2,0.57,3.08,2.13,3.08C112.23,43.16,112.84,42.29,112.84,40.09z"/>
	<path class="st0" d="M118.08,40.62V18.64h2.28V40.2c0,2.13,0.53,2.96,2.05,2.96s2.05-0.83,2.05-2.96V18.64h2.2v21.98
		c0,2.92-1.59,4.59-4.29,4.59S118.08,43.54,118.08,40.62z"/>
	<path class="st0" d="M129.77,18.64h4.21c3.04,0,4.48,1.56,4.48,4.75v3.34c0,2.13-0.68,3.42-2.05,4.02v0.08
		c1.37,0.61,2.05,1.9,2.05,4.06v9.95h-2.28v-9.79c0-2.43-0.68-3.15-2.85-3.15h-1.29v12.95h-2.28V18.64z M133.72,29.91
		c1.9,0,2.47-0.72,2.47-3.15v-3c0-2.43-0.57-3.15-2.47-3.15h-1.67v9.3H133.72z"/>
	<path class="st0" d="M146.47,18.64h4.33c3.04,0,4.48,1.56,4.48,4.75v4.1c0,3.19-1.44,4.75-4.48,4.75h-2.05v12.6h-2.28V18.64z
		 M150.54,30.25c1.9,0,2.47-0.72,2.47-3.15v-3.34c0-2.43-0.57-3.15-2.47-3.15h-1.78v9.64H150.54z"/>
	<path class="st0" d="M157.83,18.64h4.21c3.04,0,4.48,1.56,4.48,4.75v3.34c0,2.13-0.68,3.42-2.05,4.02v0.08
		c1.37,0.61,2.05,1.9,2.05,4.06v9.95h-2.28v-9.79c0-2.43-0.68-3.15-2.85-3.15h-1.29v12.95h-2.28V18.64z M161.77,29.91
		c1.9,0,2.47-0.72,2.47-3.15v-3c0-2.43-0.57-3.15-2.47-3.15h-1.67v9.3H161.77z"/>
	<path class="st0" d="M169.37,40.47V23c0-3.04,1.63-4.75,4.4-4.75c2.77,0,4.4,1.71,4.4,4.75v17.46c0,3.04-1.63,4.75-4.4,4.75
		C171,45.21,169.37,43.5,169.37,40.47z M175.9,40.09v-16.7c0-2.2-0.61-3.08-2.13-3.08c-1.56,0-2.13,0.87-2.13,3.08v16.7
		c0,2.2,0.57,3.08,2.13,3.08C175.29,43.16,175.9,42.29,175.9,40.09z"/>
	<path class="st0" d="M180.26,18.64h2.32l2.39,22.02h0.08l2.39-22.02h2.16l-3.15,26.19h-3.04L180.26,18.64z"/>
	<path class="st0" d="M191.95,18.64h2.28v26.19h-2.28V18.64z"/>
	<path class="st0" d="M197.42,18.64h4.33c3.04,0,4.48,1.56,4.48,4.75v16.7c0,3.19-1.44,4.75-4.48,4.75h-4.33V18.64z M201.48,42.86
		c1.9,0,2.47-0.72,2.47-3.15V23.76c0-2.43-0.57-3.15-2.47-3.15h-1.78v22.25H201.48z"/>
	<path class="st0" d="M209.23,18.64h7.52v1.97h-5.24v9.15h4.56v1.97h-4.56v11.12h5.24v1.97h-7.52V18.64z"/>
	<path class="st0" d="M219.17,18.64h4.21c3.04,0,4.48,1.56,4.48,4.75v3.34c0,2.13-0.68,3.42-2.05,4.02v0.08
		c1.37,0.61,2.05,1.9,2.05,4.06v9.95h-2.28v-9.79c0-2.43-0.68-3.15-2.85-3.15h-1.29v12.95h-2.28V18.64z M223.12,29.91
		c1.9,0,2.47-0.72,2.47-3.15v-3c0-2.43-0.57-3.15-2.47-3.15h-1.67v9.3H223.12z"/>
	<path class="st0" d="M238.31,18.64h3l3.3,26.19h-2.32l-0.76-6.49h-3.57l-0.76,6.49H235L238.31,18.64z M241.31,36.37l-1.52-14.12
		h-0.08l-1.52,14.12H241.31z"/>
	<path class="st0" d="M246.92,18.64h4.21c3.04,0,4.48,1.56,4.48,4.75v3.15c0,2.13-0.65,3.42-1.97,4.02v0.08
		c1.44,0.61,2.13,1.9,2.13,4.1v5.35c0,3.19-1.44,4.75-4.48,4.75h-4.37V18.64z M250.87,29.76c1.9,0,2.47-0.72,2.47-3.11v-2.89
		c0-2.43-0.57-3.15-2.47-3.15h-1.67v9.15H250.87z M251.02,42.86c1.9,0,2.47-0.72,2.47-3.15v-4.82c0-2.43-0.57-3.15-2.47-3.15h-1.82
		v11.12H251.02z"/>
	<path class="st0" d="M258.46,40.47V23c0-3.04,1.63-4.75,4.4-4.75c2.77,0,4.4,1.71,4.4,4.75v17.46c0,3.04-1.63,4.75-4.4,4.75
		C260.1,45.21,258.46,43.5,258.46,40.47z M264.99,40.09v-16.7c0-2.2-0.61-3.08-2.13-3.08c-1.56,0-2.13,0.87-2.13,3.08v16.7
		c0,2.2,0.57,3.08,2.13,3.08C264.39,43.16,264.99,42.29,264.99,40.09z"/>
	<path class="st0" d="M270.23,40.62V18.64h2.28V40.2c0,2.13,0.53,2.96,2.05,2.96s2.05-0.83,2.05-2.96V18.64h2.2v21.98
		c0,2.92-1.59,4.59-4.29,4.59S270.23,43.54,270.23,40.62z"/>
	<path class="st0" d="M284.2,20.61h-3.19v-1.97h8.66v1.97h-3.19v24.22h-2.28V20.61z"/>
	<path class="st0" d="M25.99,50.23h3l3.3,26.2h-2.32l-0.76-6.49h-3.57l-0.76,6.49h-2.2L25.99,50.23z M28.98,67.96l-1.52-14.12h-0.08
		l-1.52,14.12H28.98z"/>
	<path class="st0" d="M39.61,50.23h4.33c3.04,0,4.48,1.56,4.48,4.75v4.1c0,3.19-1.44,4.75-4.48,4.75h-2.05v12.6h-2.28V50.23z
		 M43.67,61.85c1.9,0,2.47-0.72,2.47-3.15v-3.34c0-2.43-0.57-3.15-2.47-3.15h-1.78v9.64H43.67z"/>
	<path class="st0" d="M50.96,50.23h7.52v1.97h-5.24v9.15h4.56v1.97h-4.56v11.12h5.24v1.97h-7.52V50.23z"/>
	<path class="st0" d="M60.91,50.23h4.21c3.04,0,4.48,1.56,4.48,4.75v3.34c0,2.13-0.68,3.42-2.05,4.02v0.08
		c1.37,0.61,2.05,1.9,2.05,4.06v9.95h-2.28v-9.79c0-2.43-0.68-3.15-2.85-3.15h-1.29v12.95h-2.28V50.23z M64.86,61.5
		c1.9,0,2.47-0.72,2.47-3.15v-3c0-2.43-0.57-3.15-2.47-3.15h-1.67v9.3H64.86z"/>
	<path class="st0" d="M72.18,72.13v-4.59h2.2v4.18c0,2.16,0.61,3.04,2.13,3.04c1.56,0,2.16-0.87,2.16-3.04v-3.95
		c0-1.79-0.49-2.66-1.78-3.49l-2.01-1.29c-1.94-1.25-2.7-2.7-2.7-5.24v-3.38c0-2.89,1.56-4.52,4.25-4.52c2.7,0,4.25,1.63,4.25,4.52
		v3.38h-2.2v-3c0-2.05-0.57-2.85-2.01-2.85c-1.44,0-2.01,0.8-2.01,2.85v2.85c0,1.78,0.49,2.66,1.78,3.49l2.01,1.29
		c1.94,1.25,2.7,2.7,2.7,5.24v4.52c0,3-1.63,4.67-4.4,4.67C73.78,76.8,72.18,75.13,72.18,72.13z"/>
	<path class="st0" d="M83.5,72.06V54.6c0-3.04,1.63-4.75,4.4-4.75c2.77,0,4.4,1.71,4.4,4.75v17.46c0,3.04-1.63,4.75-4.4,4.75
		C85.13,76.8,83.5,75.1,83.5,72.06z M90.03,71.68v-16.7c0-2.2-0.61-3.08-2.13-3.08c-1.56,0-2.13,0.87-2.13,3.08v16.7
		c0,2.2,0.57,3.07,2.13,3.07C89.42,74.75,90.03,73.88,90.03,71.68z"/>
	<path class="st0" d="M95.34,50.23h2.96l4.14,19.17h0.08V50.23h2.05v26.2h-2.47l-4.63-21.6h-0.08v21.6h-2.05V50.23z"/>
	<path class="st0" d="M110.19,50.23h3l3.3,26.2h-2.32l-0.76-6.49h-3.57l-0.76,6.49h-2.2L110.19,50.23z M113.18,67.96l-1.52-14.12
		h-0.08l-1.52,14.12H113.18z"/>
	<path class="st0" d="M118.8,50.23h2.28v24.22h4.86v1.97h-7.14V50.23z"/>
	<path class="st0" d="M128.22,50.23h2.28v26.2h-2.28V50.23z"/>
	<path class="st0" d="M132.85,74.64l6.19-22.44h-5.81v-1.97h8.2v1.78l-6.19,22.44h6.19v1.97h-8.58V74.64z"/>
	<path class="st0" d="M143.82,50.23h7.52v1.97h-5.24v9.15h4.56v1.97h-4.56v11.12h5.24v1.97h-7.52V50.23z"/>
	<path class="st0" d="M153.76,50.23h4.33c3.04,0,4.48,1.56,4.48,4.75v16.7c0,3.19-1.44,4.75-4.48,4.75h-4.33V50.23z M157.83,74.45
		c1.9,0,2.47-0.72,2.47-3.15V55.35c0-2.43-0.57-3.15-2.47-3.15h-1.78v22.25H157.83z"/>
	<path class="st0" d="M172.86,52.2h-3.19v-1.97h8.66v1.97h-3.19v24.22h-2.28V52.2z"/>
	<path class="st0" d="M180.6,50.23h4.21c3.04,0,4.48,1.56,4.48,4.75v3.34c0,2.13-0.68,3.42-2.05,4.02v0.08
		c1.37,0.61,2.05,1.9,2.05,4.06v9.95h-2.28v-9.79c0-2.43-0.68-3.15-2.85-3.15h-1.29v12.95h-2.28V50.23z M184.55,61.5
		c1.9,0,2.47-0.72,2.47-3.15v-3c0-2.43-0.57-3.15-2.47-3.15h-1.67v9.3H184.55z"/>
	<path class="st0" d="M192.3,50.23h7.52v1.97h-5.24v9.15h4.56v1.97h-4.56v11.12h5.24v1.97h-7.52V50.23z"/>
	<path class="st0" d="M204.78,50.23h3l3.3,26.2h-2.32l-0.76-6.49h-3.57l-0.76,6.49h-2.2L204.78,50.23z M207.78,67.96l-1.52-14.12
		h-0.08l-1.52,14.12H207.78z"/>
	<path class="st0" d="M214.39,52.2h-3.19v-1.97h8.66v1.97h-3.19v24.22h-2.28V52.2z"/>
	<path class="st0" d="M222.13,50.23h3.61l2.92,19.32h0.08l2.92-19.32h3.76v26.2h-2.28V53h-0.08l-3.53,23.42h-1.78L224.22,53h-0.08
		v23.42h-2.01V50.23z"/>
	<path class="st0" d="M238.61,50.23h7.52v1.97h-5.24v9.15h4.56v1.97h-4.56v11.12h5.24v1.97h-7.52V50.23z"/>
	<path class="st0" d="M248.55,50.23h2.96l4.14,19.17h0.08V50.23h2.05v26.2h-2.47l-4.63-21.6h-0.08v21.6h-2.05V50.23z"/>
	<path class="st0" d="M263.25,52.2h-3.19v-1.97h8.66v1.97h-3.19v24.22h-2.28V52.2z"/>
	<path class="st0" d="M276,50.23h4.33c3.04,0,4.48,1.56,4.48,4.75v4.1c0,3.19-1.44,4.75-4.48,4.75h-2.05v12.6H276V50.23z
		 M280.06,61.85c1.9,0,2.47-0.72,2.47-3.15v-3.34c0-2.43-0.57-3.15-2.47-3.15h-1.78v9.64H280.06z"/>
	<path class="st0" d="M287.35,50.23h2.28v24.22h4.86v1.97h-7.14V50.23z"/>
	<path class="st0" d="M299.31,50.23h3l3.3,26.2h-2.32l-0.76-6.49h-3.57l-0.76,6.49h-2.2L299.31,50.23z M302.31,67.96l-1.52-14.12
		h-0.08l-1.52,14.12H302.31z"/>
	<path class="st0" d="M307.93,50.23h2.96l4.14,19.17h0.08V50.23h2.05v26.2h-2.47l-4.63-21.6h-0.08v21.6h-2.05V50.23z"/>
	<path class="st0" d="M320.34,73.31h2.54v3.11h-2.54V73.31z"/>
</g>
</svg>
