<?xml version="1.0" encoding="utf-8"?>
<!-- Generator: Adobe Illustrator 25.4.1, SVG Export Plug-In . SVG Version: 6.00 Build 0)  -->
<svg version="1.1" id="Layer_1" xmlns="http://www.w3.org/2000/svg" xmlns:xlink="http://www.w3.org/1999/xlink" x="0px" y="0px"
	 viewBox="0 0 728 90" style="enable-background:new 0 0 728 90;" xml:space="preserve">
<style type="text/css">
	.st0{fill:#00A9E0;}
</style>
<g>
	<path class="st0" d="M22.13,49.88h3.05c2.2,0,3.24,1.13,3.24,3.44v2.42c0,1.54-0.49,2.48-1.48,2.92v0.05
		c0.99,0.44,1.48,1.38,1.48,2.94v7.2h-1.65v-7.09c0-1.76-0.5-2.28-2.06-2.28h-0.93v9.38h-1.65V49.88z M24.99,58.05
		c1.38,0,1.79-0.52,1.79-2.28V53.6c0-1.76-0.41-2.28-1.79-2.28h-1.21v6.74H24.99z"/>
	<path class="st0" d="M30.48,49.88h5.44v1.43h-3.79v6.63h3.3v1.43h-3.3v8.06h3.79v1.43h-5.44V49.88z"/>
	<path class="st0" d="M37.47,65.86V52.88c0-2.09,1.1-3.27,3.08-3.27c2.01,0,3.11,1.18,3.11,3.27v3.11h-1.57v-2.83
		c0-1.49-0.44-2.06-1.48-2.06c-1.07,0-1.48,0.58-1.48,2.06v12.43c0,1.49,0.41,2.06,1.48,2.06c1.04,0,1.48-0.58,1.48-2.06v-3.82h1.57
		v4.1c0,2.09-1.1,3.27-3.11,3.27C38.57,69.13,37.47,67.95,37.47,65.86z"/>
	<path class="st0" d="M45.44,65.69V53.05c0-2.2,1.18-3.44,3.19-3.44s3.19,1.24,3.19,3.44v12.65c0,2.2-1.18,3.44-3.19,3.44
		S45.44,67.89,45.44,65.69z M50.17,65.42v-12.1c0-1.59-0.44-2.23-1.54-2.23c-1.13,0-1.54,0.63-1.54,2.23v12.1
		c0,1.6,0.41,2.23,1.54,2.23C49.73,67.65,50.17,67.01,50.17,65.42z"/>
	<path class="st0" d="M53.91,49.88h2.61l2.12,14h0.05l2.12-14h2.72v18.97h-1.65V51.89h-0.05l-2.56,16.96h-1.29l-2.56-16.96h-0.06
		v16.96h-1.46V49.88z"/>
	<path class="st0" d="M65.73,49.88h2.61l2.12,14h0.05l2.12-14h2.72v18.97H73.7V51.89h-0.05l-2.56,16.96H69.8l-2.56-16.96h-0.06
		v16.96h-1.46V49.88z"/>
	<path class="st0" d="M77.55,49.88H83v1.43H79.2v6.63h3.3v1.43h-3.3v8.06H83v1.43h-5.44V49.88z"/>
	<path class="st0" d="M84.64,49.88h2.14l3,13.89h0.06V49.88h1.48v18.97h-1.79l-3.35-15.65h-0.05v15.65h-1.48V49.88z"/>
	<path class="st0" d="M93.52,49.88h3.13c2.2,0,3.24,1.13,3.24,3.44v12.1c0,2.31-1.04,3.44-3.24,3.44h-3.13V49.88z M96.47,67.43
		c1.38,0,1.79-0.52,1.79-2.28V53.6c0-1.76-0.41-2.28-1.79-2.28h-1.29v16.11H96.47z"/>
	<path class="st0" d="M105.37,65.86V52.88c0-2.09,1.1-3.27,3.08-3.27c2.01,0,3.11,1.18,3.11,3.27v3.11h-1.57v-2.83
		c0-1.49-0.44-2.06-1.48-2.06c-1.07,0-1.48,0.58-1.48,2.06v12.43c0,1.49,0.41,2.06,1.48,2.06c1.04,0,1.48-0.58,1.48-2.06v-3.82h1.57
		v4.1c0,2.09-1.1,3.27-3.11,3.27C106.47,69.13,105.37,67.95,105.37,65.86z"/>
	<path class="st0" d="M113.35,65.69V53.05c0-2.2,1.18-3.44,3.19-3.44s3.19,1.24,3.19,3.44v12.65c0,2.2-1.18,3.44-3.19,3.44
		S113.35,67.89,113.35,65.69z M118.07,65.42v-12.1c0-1.59-0.44-2.23-1.54-2.23c-1.13,0-1.54,0.63-1.54,2.23v12.1
		c0,1.6,0.41,2.23,1.54,2.23C117.63,67.65,118.07,67.01,118.07,65.42z"/>
	<path class="st0" d="M121.7,65.69V53.05c0-2.2,1.18-3.44,3.19-3.44s3.19,1.24,3.19,3.44v12.65c0,2.2-1.18,3.44-3.19,3.44
		S121.7,67.89,121.7,65.69z M126.43,65.42v-12.1c0-1.59-0.44-2.23-1.54-2.23c-1.13,0-1.54,0.63-1.54,2.23v12.1
		c0,1.6,0.41,2.23,1.54,2.23C125.99,67.65,126.43,67.01,126.43,65.42z"/>
	<path class="st0" d="M130.17,49.88h1.65v17.54h3.52v1.43h-5.17V49.88z"/>
	<path class="st0" d="M136.58,65.75v-3.33h1.59v3.03c0,1.57,0.44,2.2,1.54,2.2c1.13,0,1.57-0.63,1.57-2.2v-2.86
		c0-1.29-0.36-1.92-1.29-2.53l-1.46-0.93c-1.4-0.91-1.95-1.95-1.95-3.79v-2.45c0-2.09,1.13-3.27,3.08-3.27
		c1.95,0,3.08,1.18,3.08,3.27v2.45h-1.59v-2.17c0-1.49-0.41-2.06-1.46-2.06s-1.46,0.58-1.46,2.06v2.06c0,1.29,0.36,1.92,1.29,2.53
		l1.46,0.93c1.4,0.91,1.95,1.95,1.95,3.79v3.27c0,2.17-1.18,3.38-3.19,3.38C137.73,69.13,136.58,67.92,136.58,65.75z"/>
	<path class="st0" d="M144.66,65.86V52.88c0-2.09,1.1-3.27,3.08-3.27c2.01,0,3.11,1.18,3.11,3.27v3.11h-1.57v-2.83
		c0-1.49-0.44-2.06-1.48-2.06c-1.07,0-1.48,0.58-1.48,2.06v12.43c0,1.49,0.41,2.06,1.48,2.06c1.04,0,1.48-0.58,1.48-2.06v-3.82h1.57
		v4.1c0,2.09-1.1,3.27-3.11,3.27C145.76,69.13,144.66,67.95,144.66,65.86z"/>
	<path class="st0" d="M152.69,65.8V49.88h1.65V65.5c0,1.54,0.38,2.14,1.48,2.14c1.1,0,1.48-0.6,1.48-2.14V49.88h1.59V65.8
		c0,2.12-1.15,3.33-3.11,3.33C153.84,69.13,152.69,67.92,152.69,65.8z"/>
	<path class="st0" d="M161.04,49.88h1.65v17.54h3.52v1.43h-5.17V49.88z"/>
	<path class="st0" d="M167.75,49.88h3.13c2.2,0,3.24,1.13,3.24,3.44v2.97c0,2.31-1.04,3.44-3.24,3.44h-1.48v9.13h-1.65V49.88z
		 M170.69,58.3c1.38,0,1.79-0.52,1.79-2.28V53.6c0-1.76-0.41-2.28-1.79-2.28h-1.29v6.98H170.69z"/>
	<path class="st0" d="M177.51,51.31h-2.31v-1.43h6.27v1.43h-2.31v17.54h-1.65V51.31z"/>
	<path class="st0" d="M183.01,49.88h1.65v18.97h-1.65V49.88z"/>
	<path class="st0" d="M186.86,49.88H189l3,13.89h0.06V49.88h1.48v18.97h-1.79l-3.35-15.65h-0.05v15.65h-1.48V49.88z"/>
	<path class="st0" d="M195.63,66.16V53.02c0-2.17,1.18-3.41,3.16-3.41c2.01,0,3.13,1.24,3.13,3.41v2.09h-1.57v-1.79
		c0-1.59-0.44-2.23-1.54-2.23c-1.13,0-1.54,0.63-1.54,2.23v12.65c0,1.13,0.41,1.68,1.32,1.68c1.13,0,1.76-0.85,1.76-2.39v-5.44
		h-1.54v-1.43h3.19v10.48h-1.4v-1.35h-0.08c-0.44,1.04-1.24,1.62-2.36,1.62C196.56,69.13,195.63,68,195.63,66.16z"/>
	<path class="st0" d="M208.2,51.75c0,1.47-0.96,2.42-2.44,2.42c-1.48,0-2.44-0.96-2.44-2.42s0.96-2.42,2.44-2.42
		C207.24,49.32,208.2,50.28,208.2,51.75z M207.65,51.75c0-1.16-0.74-1.92-1.9-1.92s-1.9,0.76-1.9,1.92s0.75,1.92,1.9,1.92
		S207.65,52.91,207.65,51.75z M206.3,52.07l0.68,0.98h-0.64l-0.58-0.93h-0.4v0.93h-0.55v-2.62h1.13c0.57,0,0.98,0.33,0.98,0.85
		C206.92,51.69,206.68,51.97,206.3,52.07z M205.36,51.72h0.53c0.31,0,0.48-0.14,0.48-0.43s-0.17-0.43-0.48-0.43h-0.53V51.72z"/>
	<path class="st0" d="M214.91,51.31h-2.31v-1.43h6.27v1.43h-2.31v17.54h-1.65V51.31z"/>
	<path class="st0" d="M220.08,65.69V53.05c0-2.2,1.18-3.44,3.19-3.44s3.19,1.24,3.19,3.44v12.65c0,2.2-1.18,3.44-3.19,3.44
		S220.08,67.89,220.08,65.69z M224.81,65.42v-12.1c0-1.59-0.44-2.23-1.54-2.23c-1.13,0-1.54,0.63-1.54,2.23v12.1
		c0,1.6,0.41,2.23,1.54,2.23C224.37,67.65,224.81,67.01,224.81,65.42z"/>
	<path class="st0" d="M233.82,49.88H236l2.39,18.97h-1.68l-0.55-4.7h-2.58l-0.55,4.7h-1.59L233.82,49.88z M236,62.72l-1.1-10.23
		h-0.06l-1.1,10.23H236z"/>
	<path class="st0" d="M243.47,49.88h5.44v1.43h-3.79v6.9h3.3v1.43h-3.3v9.21h-1.65V49.88z"/>
	<path class="st0" d="M250.46,49.88h3.05c2.2,0,3.24,1.13,3.24,3.44v2.42c0,1.54-0.49,2.48-1.48,2.92v0.05
		c0.99,0.44,1.48,1.38,1.48,2.94v7.2h-1.65v-7.09c0-1.76-0.5-2.28-2.06-2.28h-0.93v9.38h-1.65V49.88z M253.31,58.05
		c1.38,0,1.79-0.52,1.79-2.28V53.6c0-1.76-0.41-2.28-1.79-2.28h-1.21v6.74H253.31z"/>
	<path class="st0" d="M258.81,49.88h1.65v18.97h-1.65V49.88z"/>
	<path class="st0" d="M262.66,49.88h5.44v1.43h-3.79v6.63h3.3v1.43h-3.3v8.06h3.79v1.43h-5.44V49.88z"/>
	<path class="st0" d="M269.75,49.88h2.14l3,13.89h0.06V49.88h1.48v18.97h-1.79l-3.35-15.65h-0.05v15.65h-1.48V49.88z"/>
	<path class="st0" d="M278.63,49.88h3.13c2.2,0,3.24,1.13,3.24,3.44v12.1c0,2.31-1.04,3.44-3.24,3.44h-3.13V49.88z M281.58,67.43
		c1.38,0,1.79-0.52,1.79-2.28V53.6c0-1.76-0.41-2.28-1.79-2.28h-1.29v16.11H281.58z"/>
	<path class="st0" d="M286.96,66.6h1.84v2.25h-1.84V66.6z"/>
	<path class="st0" d="M289.76,52.8l-1.38,0.87l-0.37-0.61l1.44-0.77l-1.44-0.75l0.37-0.61l1.38,0.87l-0.08-1.62h0.72l-0.08,1.62
		l1.38-0.87l0.37,0.61l-1.44,0.77l1.44,0.75l-0.37,0.61l-1.38-0.87l0.08,1.62h-0.72L289.76,52.8z"/>
</g>
</svg>
