<?xml version="1.0" encoding="utf-8"?>
<!-- Generator: Adobe Illustrator 25.4.1, SVG Export Plug-In . SVG Version: 6.00 Build 0)  -->
<svg version="1.1" id="Layer_1" xmlns="http://www.w3.org/2000/svg" xmlns:xlink="http://www.w3.org/1999/xlink" x="0px" y="0px"
	 viewBox="0 0 728 90" style="enable-background:new 0 0 728 90;" xml:space="preserve">
<style type="text/css">
	.st0{fill:#EAF5FB;}
	.st1{fill:#002457;}
</style>
<rect x="326" y="45.5" class="st0" width="124.46" height="25"/>
<g>
	<path class="st1" d="M340.59,55.81v1.6h3.1v1.52h-3.1v2.9h-1.96v-7.53h5.86v1.52H340.59z"/>
	<path class="st1" d="M347.58,61.83h-1.96v-7.53h1.96V61.83z"/>
	<path class="st1" d="M356.03,61.83h-2.18l-2.34-4.07l-0.57-1.14h-0.01l0.05,1.42v3.8h-1.74v-7.53h2.18l2.34,4.08l0.57,1.14h0.01
		l-0.05-1.42v-3.8h1.73V61.83z"/>
	<path class="st1" d="M364.54,58.06c0,2.41-1.29,3.77-3.65,3.77h-3.2v-7.53h3.2C363.25,54.29,364.54,55.65,364.54,58.06z
		 M362.53,58.06c0-1.51-0.56-2.28-1.84-2.28h-1.04v4.57h1.04C361.98,60.34,362.53,59.57,362.53,58.06z"/>
	<path class="st1" d="M373.21,60.13h-2.6l-0.52,1.7h-1.97l2.65-7.53h2.35l2.64,7.53h-2.02L373.21,60.13z M372.8,58.79l-0.55-1.8
		l-0.33-1.19h-0.02l-0.31,1.18l-0.56,1.81H372.8z"/>
	<path class="st1" d="M386,56.79c0,1.54-1.04,2.42-2.91,2.42h-1.5v2.61h-1.96v-7.53h3.46C384.96,54.29,386,55.17,386,56.79z
		 M384.03,56.77c0-0.66-0.38-0.99-1.24-0.99h-1.19v2h1.19C383.65,57.78,384.03,57.44,384.03,56.77z"/>
	<path class="st1" d="M390.36,59.08h-1.18v2.75h-1.93v-7.53h3.6c1.81,0,2.84,0.84,2.84,2.4c0,1.1-0.51,1.84-1.46,2.18l1.91,2.96
		h-2.17L390.36,59.08z M389.18,57.68h1.34c0.83,0,1.2-0.29,1.2-0.96c0-0.66-0.37-0.95-1.2-0.95h-1.34V57.68z"/>
	<path class="st1" d="M402.1,58.06c0,2.43-1.39,3.88-3.69,3.88s-3.7-1.45-3.7-3.88c0-2.43,1.4-3.88,3.7-3.88
		S402.1,55.63,402.1,58.06z M396.73,58.06c0,1.54,0.59,2.34,1.69,2.34c1.08,0,1.68-0.8,1.68-2.34s-0.59-2.34-1.68-2.34
		C397.32,55.72,396.73,56.52,396.73,58.06z"/>
	<path class="st1" d="M407.46,61.83h-2.31l-2.68-7.53h2.07l1.38,4.55l0.41,1.48l0.4-1.46l1.4-4.58h2L407.46,61.83z"/>
	<path class="st1" d="M412.99,61.83h-1.96v-7.53h1.96V61.83z"/>
	<path class="st1" d="M421.51,58.06c0,2.41-1.29,3.77-3.65,3.77h-3.2v-7.53h3.2C420.22,54.29,421.51,55.65,421.51,58.06z
		 M419.5,58.06c0-1.51-0.56-2.28-1.84-2.28h-1.04v4.57h1.04C418.94,60.34,419.5,59.57,419.5,58.06z"/>
	<path class="st1" d="M428.87,60.31v1.52h-6.02v-7.53h5.87v1.52h-3.9v1.53h3.1v1.43h-3.1v1.54H428.87z"/>
	<path class="st1" d="M433.15,59.08h-1.18v2.75h-1.93v-7.53h3.6c1.81,0,2.84,0.84,2.84,2.4c0,1.1-0.51,1.84-1.46,2.18l1.91,2.96
		h-2.17L433.15,59.08z M431.98,57.68h1.34c0.83,0,1.2-0.29,1.2-0.96c0-0.66-0.37-0.95-1.2-0.95h-1.34V57.68z"/>
</g>
</svg>
