<?xml version="1.0" encoding="utf-8"?>
<!-- Generator: Adobe Illustrator 25.4.1, SVG Export Plug-In . SVG Version: 6.00 Build 0)  -->
<svg version="1.1" id="Layer_1" xmlns="http://www.w3.org/2000/svg" xmlns:xlink="http://www.w3.org/1999/xlink" x="0px" y="0px"
	 viewBox="0 0 728 90" style="enable-background:new 0 0 728 90;" xml:space="preserve">
<style type="text/css">
	.st0{fill:#BDD6E6;}
</style>
<g>
	<path class="st0" d="M24.99,83.37l-0.31-0.69l-0.12-0.4l-0.29,0.37l-0.59,0.58l-0.35-0.36l0.6-0.58l0.38-0.28l-0.39-0.13
		l-0.68-0.33l0.24-0.45l0.68,0.32l0.36,0.24l0.04-0.45l0.16-0.76h0.54l-0.19,0.81l-0.16,0.43l0.44-0.15l0.79-0.16l0.03,0.5
		l-0.78,0.16l-0.46,0.03l0.23,0.36l0.31,0.68L24.99,83.37z"/>
	<path class="st0" d="M30.25,80.91l-0.14,0.57h-1.37l-0.82,3.55h-0.67l0.82-3.55h-1.39l0.14-0.57H30.25z"/>
	<path class="st0" d="M29.84,85.03l1.05-4.53h0.67l-0.47,2.06l-0.1,0.07c0.05-0.17,0.14-0.31,0.26-0.42
		c0.12-0.12,0.25-0.21,0.41-0.27s0.33-0.09,0.51-0.09c0.23,0,0.42,0.05,0.58,0.15c0.16,0.1,0.28,0.25,0.35,0.43
		c0.07,0.19,0.07,0.41,0.02,0.68l-0.45,1.92h-0.67l0.44-1.87c0.05-0.24,0.03-0.42-0.07-0.56c-0.1-0.13-0.26-0.2-0.47-0.2
		c-0.17,0-0.32,0.04-0.45,0.11c-0.13,0.08-0.24,0.18-0.33,0.33s-0.16,0.32-0.21,0.54l-0.38,1.66H29.84z"/>
	<path class="st0" d="M35.15,85.09c-0.3,0-0.55-0.06-0.76-0.18s-0.38-0.29-0.49-0.5c-0.12-0.21-0.17-0.45-0.17-0.72
		c0-0.33,0.07-0.64,0.2-0.92s0.33-0.5,0.58-0.67c0.25-0.17,0.56-0.25,0.92-0.25c0.27,0,0.5,0.05,0.69,0.16
		c0.19,0.11,0.34,0.26,0.44,0.45c0.1,0.19,0.15,0.42,0.15,0.68c0,0.08,0,0.17-0.02,0.26c-0.01,0.09-0.03,0.17-0.06,0.26H34.1v-0.51
		h2.16l-0.24,0.17c0.02-0.05,0.03-0.1,0.03-0.15c0-0.05,0.01-0.09,0.01-0.13c0-0.14-0.03-0.26-0.08-0.36
		c-0.05-0.1-0.13-0.18-0.23-0.23c-0.1-0.05-0.22-0.08-0.36-0.08c-0.19,0-0.35,0.04-0.48,0.12c-0.13,0.08-0.24,0.18-0.32,0.31
		c-0.08,0.13-0.14,0.28-0.17,0.43c-0.03,0.16-0.05,0.31-0.05,0.47c0,0.17,0.03,0.33,0.1,0.45c0.07,0.13,0.16,0.23,0.29,0.3
		c0.12,0.07,0.27,0.11,0.43,0.11c0.2,0,0.35-0.04,0.48-0.12c0.12-0.08,0.22-0.19,0.3-0.32l0.54,0.29c-0.08,0.14-0.19,0.26-0.33,0.37
		c-0.14,0.1-0.29,0.18-0.46,0.23C35.55,85.06,35.36,85.09,35.15,85.09z"/>
	<path class="st0" d="M38.79,86.34l1.02-4.44h0.59l-0.16,0.86l-0.07,0.04c0.05-0.2,0.13-0.37,0.25-0.51
		c0.11-0.14,0.26-0.25,0.42-0.33c0.17-0.08,0.35-0.11,0.54-0.11c0.21,0,0.4,0.05,0.57,0.16c0.17,0.1,0.3,0.25,0.4,0.45
		c0.1,0.2,0.15,0.44,0.15,0.71c0,0.26-0.04,0.51-0.12,0.74c-0.08,0.23-0.19,0.43-0.33,0.61s-0.31,0.31-0.5,0.41
		c-0.19,0.1-0.4,0.15-0.62,0.15c-0.2,0-0.37-0.04-0.53-0.11c-0.16-0.08-0.28-0.19-0.37-0.33c-0.09-0.15-0.14-0.32-0.16-0.53
		l0.11-0.1l-0.53,2.32H38.79z M40.85,84.55c0.14,0,0.27-0.03,0.39-0.1c0.12-0.07,0.23-0.17,0.32-0.29c0.09-0.12,0.16-0.27,0.21-0.43
		c0.05-0.16,0.07-0.33,0.07-0.52c0-0.18-0.03-0.33-0.09-0.45c-0.06-0.12-0.15-0.22-0.26-0.28s-0.24-0.1-0.38-0.1
		c-0.15,0-0.29,0.04-0.41,0.11c-0.12,0.07-0.23,0.17-0.32,0.29c-0.09,0.12-0.16,0.27-0.21,0.43c-0.05,0.17-0.07,0.34-0.07,0.53
		c0,0.24,0.06,0.44,0.19,0.58C40.42,84.48,40.61,84.55,40.85,84.55z"/>
	<path class="st0" d="M42.91,85.03l0.73-3.12h0.56l-0.1,0.84l-0.07-0.06c0.07-0.17,0.16-0.33,0.27-0.45
		c0.11-0.12,0.25-0.22,0.4-0.29c0.15-0.07,0.31-0.1,0.47-0.1c0.07,0,0.13,0,0.18,0.01c0.05,0.01,0.1,0.02,0.13,0.04l-0.18,0.6
		c-0.04-0.02-0.09-0.04-0.14-0.05c-0.05-0.01-0.12-0.02-0.2-0.02c-0.15,0-0.29,0.03-0.42,0.1c-0.13,0.07-0.25,0.17-0.35,0.32
		c-0.1,0.14-0.18,0.33-0.23,0.56l-0.37,1.62H42.91z"/>
	<path class="st0" d="M46.76,81.91l-0.72,3.12h-0.67l0.73-3.12H46.76z M46.61,81.38c-0.12,0-0.23-0.03-0.3-0.1
		c-0.08-0.07-0.11-0.16-0.1-0.28c0-0.15,0.05-0.26,0.14-0.34c0.09-0.08,0.2-0.12,0.33-0.12c0.13,0,0.23,0.03,0.3,0.1
		s0.11,0.15,0.1,0.27c-0.01,0.15-0.06,0.27-0.14,0.35S46.74,81.38,46.61,81.38z"/>
	<path class="st0" d="M47.01,85.03l0.73-3.12h0.59l-0.13,0.79l-0.06-0.04c0.09-0.27,0.24-0.47,0.46-0.6c0.22-0.13,0.46-0.2,0.72-0.2
		c0.22,0,0.41,0.05,0.57,0.15c0.16,0.1,0.27,0.25,0.33,0.44s0.06,0.42,0,0.69l-0.44,1.9h-0.67l0.44-1.86
		c0.06-0.24,0.04-0.43-0.05-0.57c-0.09-0.14-0.24-0.21-0.45-0.21c-0.17,0-0.31,0.04-0.44,0.11c-0.13,0.08-0.24,0.18-0.32,0.33
		c-0.09,0.14-0.16,0.32-0.21,0.54l-0.38,1.66H47.01z M51.19,85.03l0.43-1.86c0.05-0.24,0.04-0.43-0.06-0.57
		c-0.09-0.14-0.24-0.21-0.44-0.21c-0.17,0-0.32,0.04-0.45,0.11c-0.13,0.08-0.23,0.18-0.32,0.33c-0.09,0.14-0.16,0.32-0.21,0.54
		l-0.06-0.61c0.11-0.31,0.29-0.54,0.52-0.69s0.5-0.23,0.78-0.23c0.22,0,0.41,0.05,0.57,0.15c0.16,0.1,0.27,0.25,0.33,0.44
		c0.06,0.19,0.07,0.42,0,0.69l-0.44,1.9H51.19z"/>
	<path class="st0" d="M54.13,85.08c-0.23,0-0.43-0.05-0.61-0.17c-0.18-0.11-0.32-0.27-0.42-0.47c-0.1-0.2-0.15-0.44-0.15-0.71
		c0-0.25,0.04-0.5,0.12-0.72c0.08-0.23,0.19-0.43,0.32-0.61c0.14-0.18,0.31-0.32,0.5-0.42c0.19-0.1,0.4-0.15,0.63-0.15
		c0.17,0,0.33,0.03,0.47,0.09c0.14,0.06,0.26,0.14,0.35,0.26c0.1,0.11,0.16,0.25,0.19,0.41l0.16-0.69h0.67l-0.72,3.12h-0.59
		l0.11-0.58c-0.1,0.19-0.25,0.34-0.43,0.46C54.55,85.02,54.35,85.08,54.13,85.08z M54.36,84.55c0.13,0,0.26-0.04,0.38-0.11
		c0.12-0.07,0.22-0.17,0.31-0.29c0.09-0.12,0.16-0.27,0.21-0.43c0.05-0.16,0.08-0.34,0.08-0.51c0-0.17-0.03-0.31-0.09-0.43
		s-0.14-0.22-0.25-0.28c-0.11-0.07-0.23-0.1-0.38-0.1c-0.15,0-0.29,0.04-0.42,0.11c-0.12,0.07-0.23,0.17-0.32,0.29
		c-0.09,0.12-0.16,0.26-0.21,0.42c-0.05,0.16-0.07,0.33-0.07,0.5c0,0.18,0.03,0.33,0.09,0.46c0.06,0.12,0.14,0.22,0.26,0.29
		C54.06,84.51,54.2,84.55,54.36,84.55z"/>
	<path class="st0" d="M56.61,85.03l0.73-3.12h0.56l-0.1,0.84l-0.07-0.06c0.07-0.17,0.16-0.33,0.27-0.45
		c0.11-0.12,0.25-0.22,0.4-0.29c0.15-0.07,0.31-0.1,0.47-0.1c0.07,0,0.13,0,0.18,0.01c0.05,0.01,0.1,0.02,0.13,0.04L59,82.5
		c-0.04-0.02-0.09-0.04-0.14-0.05c-0.05-0.01-0.12-0.02-0.2-0.02c-0.15,0-0.29,0.03-0.42,0.1c-0.13,0.07-0.25,0.17-0.35,0.32
		c-0.1,0.14-0.18,0.33-0.23,0.56l-0.37,1.62H56.61z"/>
	<path class="st0" d="M59.07,86.37c-0.17,0-0.31-0.02-0.44-0.06c-0.12-0.04-0.23-0.09-0.31-0.16l0.23-0.52
		c0.14,0.13,0.31,0.19,0.49,0.19c0.12,0,0.24-0.03,0.33-0.1c0.1-0.07,0.19-0.17,0.28-0.31l0.24-0.39l-0.55-3.12h0.67l0.23,1.76
		l0.1,0.77l0.41-0.74l1.02-1.79h0.74l-2.26,3.63c-0.12,0.2-0.24,0.36-0.37,0.48s-0.26,0.21-0.4,0.27
		C59.37,86.34,59.22,86.37,59.07,86.37z"/>
	<path class="st0" d="M65.74,85.09c-0.31,0-0.57-0.06-0.78-0.19c-0.21-0.12-0.38-0.29-0.5-0.51c-0.12-0.21-0.17-0.45-0.17-0.71
		c0-0.35,0.07-0.67,0.21-0.94c0.14-0.27,0.33-0.49,0.58-0.65c0.25-0.16,0.54-0.24,0.88-0.24c0.31,0,0.57,0.06,0.78,0.19
		s0.38,0.29,0.49,0.51c0.11,0.21,0.17,0.45,0.17,0.71c0,0.35-0.07,0.66-0.2,0.93c-0.14,0.28-0.33,0.5-0.58,0.66
		C66.36,85.01,66.07,85.09,65.74,85.09z M65.75,84.56c0.14,0,0.27-0.03,0.38-0.1s0.22-0.16,0.31-0.28c0.09-0.12,0.16-0.26,0.21-0.42
		c0.05-0.16,0.07-0.33,0.07-0.52c0-0.17-0.03-0.31-0.08-0.44s-0.14-0.23-0.26-0.31c-0.12-0.08-0.27-0.12-0.45-0.12
		c-0.14,0-0.27,0.03-0.39,0.1c-0.12,0.07-0.23,0.16-0.31,0.28c-0.09,0.12-0.16,0.26-0.21,0.42c-0.05,0.16-0.08,0.33-0.08,0.52
		c0,0.16,0.03,0.3,0.09,0.44c0.06,0.13,0.15,0.24,0.27,0.32S65.57,84.56,65.75,84.56z"/>
	<path class="st0" d="M70.09,81.86c0.22,0,0.41,0.05,0.58,0.16s0.31,0.26,0.41,0.46c0.1,0.2,0.15,0.44,0.15,0.73
		c0,0.26-0.04,0.5-0.12,0.73c-0.08,0.23-0.19,0.43-0.33,0.6c-0.14,0.17-0.3,0.31-0.49,0.41c-0.19,0.1-0.4,0.15-0.62,0.15
		c-0.18,0-0.34-0.03-0.49-0.09c-0.15-0.06-0.26-0.15-0.36-0.27c-0.09-0.11-0.15-0.24-0.19-0.39l-0.17,0.69h-0.66l1.05-4.53h0.67
		l-0.44,1.91c0.1-0.16,0.24-0.29,0.42-0.4C69.67,81.91,69.87,81.86,70.09,81.86z M69.57,84.55c0.14,0,0.27-0.03,0.39-0.1
		c0.12-0.07,0.23-0.16,0.32-0.28c0.09-0.12,0.16-0.26,0.21-0.42c0.05-0.16,0.07-0.33,0.07-0.52c0-0.19-0.03-0.34-0.09-0.46
		c-0.06-0.12-0.15-0.22-0.26-0.28s-0.24-0.09-0.38-0.09c-0.15,0-0.29,0.04-0.41,0.11c-0.12,0.07-0.23,0.17-0.32,0.29
		c-0.09,0.12-0.16,0.27-0.2,0.43c-0.05,0.17-0.07,0.34-0.07,0.53c0,0.24,0.06,0.44,0.19,0.58C69.14,84.48,69.33,84.55,69.57,84.55z"
		/>
	<path class="st0" d="M71.2,86.37c-0.14,0-0.27-0.02-0.4-0.05s-0.24-0.09-0.32-0.17l0.19-0.53c0.06,0.05,0.12,0.08,0.2,0.12
		c0.07,0.03,0.15,0.05,0.22,0.05c0.12,0,0.22-0.03,0.29-0.1c0.07-0.07,0.13-0.19,0.17-0.38l0.8-3.41h0.67l-0.82,3.54
		c-0.08,0.33-0.2,0.56-0.38,0.71C71.64,86.3,71.43,86.37,71.2,86.37z M72.87,81.38c-0.12,0-0.23-0.03-0.3-0.1
		c-0.08-0.07-0.11-0.16-0.1-0.28c0-0.15,0.05-0.26,0.14-0.34c0.09-0.08,0.2-0.12,0.33-0.12c0.13,0,0.23,0.03,0.3,0.1
		s0.11,0.15,0.1,0.27c-0.01,0.15-0.06,0.27-0.14,0.35S73,81.38,72.87,81.38z"/>
	<path class="st0" d="M74.86,85.09c-0.3,0-0.55-0.06-0.76-0.18s-0.38-0.29-0.49-0.5c-0.12-0.21-0.17-0.45-0.17-0.72
		c0-0.33,0.07-0.64,0.2-0.92s0.33-0.5,0.58-0.67c0.25-0.17,0.56-0.25,0.92-0.25c0.27,0,0.5,0.05,0.69,0.16
		c0.19,0.11,0.34,0.26,0.44,0.45c0.1,0.19,0.15,0.42,0.15,0.68c0,0.08,0,0.17-0.02,0.26c-0.01,0.09-0.03,0.17-0.06,0.26h-2.52v-0.51
		h2.16l-0.24,0.17c0.02-0.05,0.03-0.1,0.03-0.15c0-0.05,0.01-0.09,0.01-0.13c0-0.14-0.03-0.26-0.08-0.36
		c-0.05-0.1-0.13-0.18-0.23-0.23c-0.1-0.05-0.22-0.08-0.36-0.08c-0.19,0-0.35,0.04-0.48,0.12c-0.13,0.08-0.24,0.18-0.32,0.31
		c-0.08,0.13-0.14,0.28-0.17,0.43c-0.03,0.16-0.05,0.31-0.05,0.47c0,0.17,0.03,0.33,0.1,0.45c0.07,0.13,0.16,0.23,0.29,0.3
		c0.12,0.07,0.27,0.11,0.43,0.11c0.2,0,0.35-0.04,0.48-0.12c0.12-0.08,0.22-0.19,0.3-0.32l0.54,0.29c-0.08,0.14-0.19,0.26-0.33,0.37
		c-0.14,0.1-0.29,0.18-0.46,0.23C75.26,85.06,75.07,85.09,74.86,85.09z"/>
	<path class="st0" d="M78.41,85.09c-0.3,0-0.56-0.06-0.77-0.19c-0.21-0.12-0.38-0.29-0.49-0.51c-0.11-0.21-0.17-0.45-0.17-0.71
		c0-0.35,0.07-0.67,0.21-0.94s0.34-0.49,0.59-0.65s0.55-0.24,0.89-0.24c0.25,0,0.47,0.04,0.66,0.13c0.19,0.08,0.34,0.21,0.46,0.36
		c0.11,0.15,0.18,0.33,0.21,0.52L79.32,83c-0.01-0.17-0.07-0.32-0.18-0.44c-0.11-0.12-0.28-0.18-0.5-0.18c-0.15,0-0.28,0.03-0.4,0.1
		c-0.12,0.07-0.23,0.16-0.32,0.28c-0.09,0.12-0.16,0.26-0.21,0.42s-0.07,0.33-0.07,0.52c0,0.17,0.03,0.32,0.09,0.45
		c0.06,0.13,0.15,0.23,0.27,0.31s0.27,0.11,0.44,0.11c0.15,0,0.28-0.04,0.41-0.12c0.13-0.08,0.22-0.2,0.27-0.35l0.62,0.22
		c-0.11,0.25-0.29,0.44-0.52,0.58C79,85.02,78.73,85.09,78.41,85.09z"/>
	<path class="st0" d="M80.39,82.43l0.12-0.53h2.22l-0.12,0.53H80.39z M81.54,85.08c-0.22,0-0.4-0.04-0.55-0.12
		c-0.15-0.08-0.26-0.2-0.32-0.36s-0.07-0.35-0.02-0.58l0.64-2.8l0.72-0.2l-0.71,3c-0.04,0.18-0.02,0.32,0.08,0.4
		c0.09,0.08,0.21,0.12,0.36,0.12c0.1,0,0.19-0.01,0.26-0.04s0.14-0.06,0.2-0.1l0.05,0.49c-0.11,0.07-0.22,0.11-0.33,0.14
		C81.79,85.07,81.67,85.08,81.54,85.08z"/>
	<path class="st0" d="M84.1,81.91l-0.72,3.12h-0.67l0.73-3.12H84.1z M83.95,81.38c-0.12,0-0.23-0.03-0.3-0.1
		c-0.08-0.07-0.11-0.16-0.1-0.28c0-0.15,0.05-0.26,0.14-0.34c0.09-0.08,0.2-0.12,0.33-0.12c0.13,0,0.23,0.03,0.3,0.1
		s0.11,0.15,0.1,0.27c-0.01,0.15-0.06,0.27-0.14,0.35S84.08,81.38,83.95,81.38z"/>
	<path class="st0" d="M87,81.91h0.74l-1.92,3.12h-0.73l-0.5-3.12h0.66l0.34,2.79l-0.15-0.03L87,81.91z"/>
	<path class="st0" d="M89.22,85.09c-0.3,0-0.55-0.06-0.76-0.18s-0.38-0.29-0.49-0.5c-0.12-0.21-0.17-0.45-0.17-0.72
		c0-0.33,0.07-0.64,0.2-0.92s0.33-0.5,0.58-0.67c0.25-0.17,0.56-0.25,0.92-0.25c0.27,0,0.5,0.05,0.69,0.16
		c0.19,0.11,0.34,0.26,0.44,0.45c0.1,0.19,0.15,0.42,0.15,0.68c0,0.08,0,0.17-0.02,0.26c-0.01,0.09-0.03,0.17-0.06,0.26h-2.52v-0.51
		h2.16l-0.24,0.17c0.02-0.05,0.03-0.1,0.03-0.15c0-0.05,0.01-0.09,0.01-0.13c0-0.14-0.03-0.26-0.08-0.36
		c-0.05-0.1-0.13-0.18-0.23-0.23c-0.1-0.05-0.22-0.08-0.36-0.08c-0.19,0-0.35,0.04-0.48,0.12c-0.13,0.08-0.24,0.18-0.32,0.31
		c-0.08,0.13-0.14,0.28-0.17,0.43c-0.03,0.16-0.05,0.31-0.05,0.47c0,0.17,0.03,0.33,0.1,0.45c0.07,0.13,0.16,0.23,0.29,0.3
		c0.12,0.07,0.27,0.11,0.43,0.11c0.2,0,0.35-0.04,0.48-0.12c0.12-0.08,0.22-0.19,0.3-0.32l0.54,0.29c-0.08,0.14-0.19,0.26-0.33,0.37
		c-0.14,0.1-0.29,0.18-0.46,0.23C89.61,85.06,89.42,85.09,89.22,85.09z"/>
	<path class="st0" d="M93.28,82.43l0.12-0.53h2.22l-0.12,0.53H93.28z M94.42,85.08c-0.22,0-0.4-0.04-0.55-0.12
		c-0.15-0.08-0.26-0.2-0.32-0.36s-0.07-0.35-0.02-0.58l0.64-2.8l0.72-0.2l-0.71,3c-0.04,0.18-0.02,0.32,0.08,0.4
		c0.09,0.08,0.21,0.12,0.36,0.12c0.1,0,0.19-0.01,0.26-0.04s0.14-0.06,0.2-0.1l0.05,0.49c-0.11,0.07-0.22,0.11-0.33,0.14
		C94.67,85.07,94.55,85.08,94.42,85.08z"/>
	<path class="st0" d="M97.24,85.09c-0.31,0-0.57-0.06-0.78-0.19c-0.21-0.12-0.38-0.29-0.5-0.51c-0.12-0.21-0.17-0.45-0.17-0.71
		c0-0.35,0.07-0.67,0.21-0.94c0.14-0.27,0.33-0.49,0.58-0.65c0.25-0.16,0.54-0.24,0.88-0.24c0.31,0,0.57,0.06,0.78,0.19
		s0.38,0.29,0.49,0.51c0.11,0.21,0.17,0.45,0.17,0.71c0,0.35-0.07,0.66-0.2,0.93c-0.14,0.28-0.33,0.5-0.58,0.66
		C97.87,85.01,97.58,85.09,97.24,85.09z M97.26,84.56c0.14,0,0.27-0.03,0.38-0.1s0.22-0.16,0.31-0.28c0.09-0.12,0.16-0.26,0.21-0.42
		c0.05-0.16,0.07-0.33,0.07-0.52c0-0.17-0.03-0.31-0.08-0.44s-0.14-0.23-0.26-0.31c-0.12-0.08-0.27-0.12-0.45-0.12
		c-0.14,0-0.27,0.03-0.39,0.1c-0.12,0.07-0.23,0.16-0.31,0.28c-0.09,0.12-0.16,0.26-0.21,0.42c-0.05,0.16-0.08,0.33-0.08,0.52
		c0,0.16,0.03,0.3,0.09,0.44c0.06,0.13,0.15,0.24,0.27,0.32S97.08,84.56,97.26,84.56z"/>
	<path class="st0" d="M102.88,85.09c-0.3,0-0.55-0.06-0.76-0.18s-0.38-0.29-0.49-0.5c-0.12-0.21-0.17-0.45-0.17-0.72
		c0-0.33,0.07-0.64,0.2-0.92s0.33-0.5,0.58-0.67c0.25-0.17,0.56-0.25,0.92-0.25c0.27,0,0.5,0.05,0.69,0.16
		c0.19,0.11,0.34,0.26,0.44,0.45c0.1,0.19,0.15,0.42,0.15,0.68c0,0.08,0,0.17-0.02,0.26c-0.01,0.09-0.03,0.17-0.06,0.26h-2.52v-0.51
		h2.16l-0.24,0.17c0.02-0.05,0.03-0.1,0.03-0.15c0-0.05,0.01-0.09,0.01-0.13c0-0.14-0.03-0.26-0.08-0.36
		c-0.05-0.1-0.13-0.18-0.23-0.23c-0.1-0.05-0.22-0.08-0.36-0.08c-0.19,0-0.35,0.04-0.48,0.12c-0.13,0.08-0.24,0.18-0.32,0.31
		c-0.08,0.13-0.14,0.28-0.17,0.43c-0.03,0.16-0.05,0.31-0.05,0.47c0,0.17,0.03,0.33,0.1,0.45c0.07,0.13,0.16,0.23,0.29,0.3
		c0.12,0.07,0.27,0.11,0.43,0.11c0.2,0,0.35-0.04,0.48-0.12c0.12-0.08,0.22-0.19,0.3-0.32l0.54,0.29c-0.08,0.14-0.19,0.26-0.33,0.37
		c-0.14,0.1-0.29,0.18-0.46,0.23C103.28,85.06,103.09,85.09,102.88,85.09z"/>
	<path class="st0" d="M107.4,81.91h0.74l-1.92,3.12h-0.73l-0.5-3.12h0.66l0.34,2.79l-0.15-0.03L107.4,81.91z"/>
	<path class="st0" d="M109.36,85.08c-0.23,0-0.43-0.05-0.61-0.17c-0.18-0.11-0.32-0.27-0.42-0.47c-0.1-0.2-0.15-0.44-0.15-0.71
		c0-0.25,0.04-0.5,0.12-0.72c0.08-0.23,0.19-0.43,0.32-0.61c0.14-0.18,0.31-0.32,0.5-0.42c0.19-0.1,0.4-0.15,0.63-0.15
		c0.17,0,0.33,0.03,0.47,0.09c0.14,0.06,0.26,0.14,0.35,0.26c0.1,0.11,0.16,0.25,0.19,0.41l0.16-0.69h0.67l-0.72,3.12h-0.59
		l0.11-0.58c-0.1,0.19-0.25,0.34-0.43,0.46C109.78,85.02,109.58,85.08,109.36,85.08z M109.59,84.55c0.13,0,0.26-0.04,0.38-0.11
		c0.12-0.07,0.22-0.17,0.31-0.29c0.09-0.12,0.16-0.27,0.21-0.43c0.05-0.16,0.08-0.34,0.08-0.51c0-0.17-0.03-0.31-0.09-0.43
		s-0.14-0.22-0.25-0.28c-0.11-0.07-0.23-0.1-0.38-0.1c-0.15,0-0.29,0.04-0.42,0.11c-0.12,0.07-0.23,0.17-0.32,0.29
		c-0.09,0.12-0.16,0.26-0.21,0.42c-0.05,0.16-0.07,0.33-0.07,0.5c0,0.18,0.03,0.33,0.09,0.46c0.06,0.12,0.14,0.22,0.26,0.29
		C109.29,84.51,109.43,84.55,109.59,84.55z"/>
	<path class="st0" d="M112.78,85.08c-0.31,0-0.53-0.09-0.66-0.27c-0.12-0.18-0.15-0.42-0.08-0.72l0.83-3.58h0.67l-0.83,3.59
		c-0.04,0.16-0.03,0.28,0.03,0.35c0.06,0.07,0.17,0.11,0.32,0.11c0.06,0,0.11,0,0.15-0.01c0.04,0,0.08-0.01,0.12-0.02l-0.14,0.49
		c-0.07,0.02-0.13,0.04-0.19,0.05S112.87,85.08,112.78,85.08z"/>
	<path class="st0" d="M114.96,85.08c-0.23,0-0.42-0.05-0.59-0.15c-0.17-0.1-0.29-0.24-0.36-0.43c-0.07-0.19-0.08-0.41-0.02-0.68
		l0.44-1.91h0.67l-0.43,1.86c-0.06,0.25-0.03,0.44,0.07,0.57c0.11,0.13,0.27,0.2,0.48,0.2c0.17,0,0.31-0.04,0.44-0.11
		c0.13-0.07,0.23-0.18,0.32-0.32c0.09-0.14,0.15-0.32,0.2-0.53l0.39-1.66h0.67l-0.72,3.12h-0.59l0.13-0.79l0.06,0.05
		c-0.08,0.26-0.23,0.46-0.44,0.59C115.46,85.01,115.23,85.08,114.96,85.08z"/>
	<path class="st0" d="M118.83,85.08c-0.23,0-0.43-0.05-0.61-0.17c-0.18-0.11-0.32-0.27-0.42-0.47c-0.1-0.2-0.15-0.44-0.15-0.71
		c0-0.25,0.04-0.5,0.12-0.72c0.08-0.23,0.19-0.43,0.32-0.61c0.14-0.18,0.31-0.32,0.5-0.42c0.19-0.1,0.4-0.15,0.63-0.15
		c0.17,0,0.33,0.03,0.47,0.09c0.14,0.06,0.26,0.14,0.35,0.26c0.1,0.11,0.16,0.25,0.19,0.41l0.16-0.69h0.67l-0.72,3.12h-0.59
		l0.11-0.58c-0.1,0.19-0.25,0.34-0.43,0.46C119.24,85.02,119.04,85.08,118.83,85.08z M119.06,84.55c0.13,0,0.26-0.04,0.38-0.11
		c0.12-0.07,0.22-0.17,0.31-0.29c0.09-0.12,0.16-0.27,0.21-0.43c0.05-0.16,0.08-0.34,0.08-0.51c0-0.17-0.03-0.31-0.09-0.43
		s-0.14-0.22-0.25-0.28c-0.11-0.07-0.23-0.1-0.38-0.1c-0.15,0-0.29,0.04-0.42,0.11c-0.12,0.07-0.23,0.17-0.32,0.29
		c-0.09,0.12-0.16,0.26-0.21,0.42c-0.05,0.16-0.07,0.33-0.07,0.5c0,0.18,0.03,0.33,0.09,0.46c0.06,0.12,0.14,0.22,0.26,0.29
		C118.76,84.51,118.9,84.55,119.06,84.55z"/>
	<path class="st0" d="M121.54,82.43l0.12-0.53h2.22l-0.12,0.53H121.54z M122.68,85.08c-0.22,0-0.4-0.04-0.55-0.12
		c-0.15-0.08-0.26-0.2-0.32-0.36s-0.07-0.35-0.02-0.58l0.64-2.8l0.72-0.2l-0.71,3c-0.04,0.18-0.02,0.32,0.08,0.4
		c0.09,0.08,0.21,0.12,0.36,0.12c0.1,0,0.19-0.01,0.26-0.04s0.14-0.06,0.2-0.1l0.05,0.49c-0.11,0.07-0.22,0.11-0.33,0.14
		C122.93,85.07,122.81,85.08,122.68,85.08z"/>
	<path class="st0" d="M125.48,85.09c-0.3,0-0.55-0.06-0.76-0.18s-0.38-0.29-0.49-0.5c-0.12-0.21-0.17-0.45-0.17-0.72
		c0-0.33,0.07-0.64,0.2-0.92s0.33-0.5,0.58-0.67c0.25-0.17,0.56-0.25,0.92-0.25c0.27,0,0.5,0.05,0.69,0.16
		c0.19,0.11,0.34,0.26,0.44,0.45c0.1,0.19,0.15,0.42,0.15,0.68c0,0.08,0,0.17-0.02,0.26c-0.01,0.09-0.03,0.17-0.06,0.26h-2.52v-0.51
		h2.16l-0.24,0.17c0.02-0.05,0.03-0.1,0.03-0.15c0-0.05,0.01-0.09,0.01-0.13c0-0.14-0.03-0.26-0.08-0.36
		c-0.05-0.1-0.13-0.18-0.23-0.23c-0.1-0.05-0.22-0.08-0.36-0.08c-0.19,0-0.35,0.04-0.48,0.12c-0.13,0.08-0.24,0.18-0.32,0.31
		c-0.08,0.13-0.14,0.28-0.17,0.43c-0.03,0.16-0.05,0.31-0.05,0.47c0,0.17,0.03,0.33,0.1,0.45c0.07,0.13,0.16,0.23,0.29,0.3
		c0.12,0.07,0.27,0.11,0.43,0.11c0.2,0,0.35-0.04,0.48-0.12c0.12-0.08,0.22-0.19,0.3-0.32l0.54,0.29c-0.08,0.14-0.19,0.26-0.33,0.37
		c-0.14,0.1-0.29,0.18-0.46,0.23C125.88,85.06,125.69,85.09,125.48,85.09z"/>
	<path class="st0" d="M131.04,85.09c-0.31,0-0.57-0.06-0.78-0.19c-0.21-0.12-0.38-0.29-0.5-0.51c-0.12-0.21-0.17-0.45-0.17-0.71
		c0-0.35,0.07-0.67,0.21-0.94c0.14-0.27,0.33-0.49,0.58-0.65c0.25-0.16,0.54-0.24,0.88-0.24c0.31,0,0.57,0.06,0.78,0.19
		s0.38,0.29,0.49,0.51c0.11,0.21,0.17,0.45,0.17,0.71c0,0.35-0.07,0.66-0.2,0.93c-0.14,0.28-0.33,0.5-0.58,0.66
		C131.67,85.01,131.37,85.09,131.04,85.09z M131.05,84.56c0.14,0,0.27-0.03,0.38-0.1s0.22-0.16,0.31-0.28
		c0.09-0.12,0.16-0.26,0.21-0.42c0.05-0.16,0.07-0.33,0.07-0.52c0-0.17-0.03-0.31-0.08-0.44s-0.14-0.23-0.26-0.31
		c-0.12-0.08-0.27-0.12-0.45-0.12c-0.14,0-0.27,0.03-0.39,0.1c-0.12,0.07-0.23,0.16-0.31,0.28c-0.09,0.12-0.16,0.26-0.21,0.42
		c-0.05,0.16-0.08,0.33-0.08,0.52c0,0.16,0.03,0.3,0.09,0.44c0.06,0.13,0.15,0.24,0.27,0.32S130.87,84.56,131.05,84.56z"/>
	<path class="st0" d="M135.63,81.91h0.74l-1.92,3.12h-0.73l-0.5-3.12h0.66l0.34,2.79l-0.15-0.03L135.63,81.91z"/>
	<path class="st0" d="M137.84,85.09c-0.3,0-0.55-0.06-0.76-0.18s-0.38-0.29-0.49-0.5c-0.12-0.21-0.17-0.45-0.17-0.72
		c0-0.33,0.07-0.64,0.2-0.92s0.33-0.5,0.58-0.67c0.25-0.17,0.56-0.25,0.92-0.25c0.27,0,0.5,0.05,0.69,0.16
		c0.19,0.11,0.34,0.26,0.44,0.45c0.1,0.19,0.15,0.42,0.15,0.68c0,0.08,0,0.17-0.02,0.26c-0.01,0.09-0.03,0.17-0.06,0.26h-2.52v-0.51
		h2.16l-0.24,0.17c0.02-0.05,0.03-0.1,0.03-0.15c0-0.05,0.01-0.09,0.01-0.13c0-0.14-0.03-0.26-0.08-0.36
		c-0.05-0.1-0.13-0.18-0.23-0.23c-0.1-0.05-0.22-0.08-0.36-0.08c-0.19,0-0.35,0.04-0.48,0.12c-0.13,0.08-0.24,0.18-0.32,0.31
		c-0.08,0.13-0.14,0.28-0.17,0.43c-0.03,0.16-0.05,0.31-0.05,0.47c0,0.17,0.03,0.33,0.1,0.45c0.07,0.13,0.16,0.23,0.29,0.3
		c0.12,0.07,0.27,0.11,0.43,0.11c0.2,0,0.35-0.04,0.48-0.12c0.12-0.08,0.22-0.19,0.3-0.32l0.54,0.29c-0.08,0.14-0.19,0.26-0.33,0.37
		c-0.14,0.1-0.29,0.18-0.46,0.23C138.24,85.06,138.05,85.09,137.84,85.09z"/>
	<path class="st0" d="M139.81,85.03l0.73-3.12h0.56l-0.1,0.84l-0.07-0.06c0.07-0.17,0.16-0.33,0.27-0.45
		c0.11-0.12,0.25-0.22,0.4-0.29c0.15-0.07,0.31-0.1,0.47-0.1c0.07,0,0.13,0,0.18,0.01c0.05,0.01,0.1,0.02,0.13,0.04l-0.18,0.6
		c-0.04-0.02-0.09-0.04-0.14-0.05c-0.05-0.01-0.12-0.02-0.2-0.02c-0.15,0-0.29,0.03-0.42,0.1c-0.13,0.07-0.25,0.17-0.35,0.32
		c-0.1,0.14-0.18,0.33-0.23,0.56l-0.37,1.62H139.81z"/>
	<path class="st0" d="M143.53,85.08c-0.23,0-0.43-0.05-0.61-0.17c-0.18-0.11-0.32-0.27-0.42-0.47c-0.1-0.2-0.15-0.44-0.15-0.71
		c0-0.25,0.04-0.5,0.12-0.72c0.08-0.23,0.19-0.43,0.32-0.61c0.14-0.18,0.31-0.32,0.5-0.42c0.19-0.1,0.4-0.15,0.63-0.15
		c0.17,0,0.33,0.03,0.47,0.09c0.14,0.06,0.26,0.14,0.35,0.26c0.1,0.11,0.16,0.25,0.19,0.41l0.16-0.69h0.67l-0.72,3.12h-0.59
		l0.11-0.58c-0.1,0.19-0.25,0.34-0.43,0.46C143.94,85.02,143.75,85.08,143.53,85.08z M143.76,84.55c0.13,0,0.26-0.04,0.38-0.11
		c0.12-0.07,0.22-0.17,0.31-0.29c0.09-0.12,0.16-0.27,0.21-0.43c0.05-0.16,0.08-0.34,0.08-0.51c0-0.17-0.03-0.31-0.09-0.43
		s-0.14-0.22-0.25-0.28c-0.11-0.07-0.23-0.1-0.38-0.1c-0.15,0-0.29,0.04-0.42,0.11c-0.12,0.07-0.23,0.17-0.32,0.29
		c-0.09,0.12-0.16,0.26-0.21,0.42c-0.05,0.16-0.07,0.33-0.07,0.5c0,0.18,0.03,0.33,0.09,0.46c0.06,0.12,0.14,0.22,0.26,0.29
		C143.46,84.51,143.6,84.55,143.76,84.55z"/>
	<path class="st0" d="M146.95,85.08c-0.31,0-0.53-0.09-0.66-0.27c-0.12-0.18-0.15-0.42-0.08-0.72l0.83-3.58h0.67l-0.83,3.59
		c-0.04,0.16-0.03,0.28,0.03,0.35c0.06,0.07,0.17,0.11,0.32,0.11c0.06,0,0.11,0,0.15-0.01c0.04,0,0.08-0.01,0.12-0.02l-0.14,0.49
		c-0.07,0.02-0.13,0.04-0.19,0.05S147.03,85.08,146.95,85.08z"/>
	<path class="st0" d="M148.86,85.08c-0.31,0-0.53-0.09-0.66-0.27c-0.12-0.18-0.15-0.42-0.08-0.72l0.83-3.58h0.67l-0.83,3.59
		c-0.04,0.16-0.03,0.28,0.03,0.35c0.06,0.07,0.17,0.11,0.32,0.11c0.06,0,0.11,0,0.15-0.01c0.04,0,0.08-0.01,0.12-0.02l-0.14,0.49
		c-0.07,0.02-0.13,0.04-0.19,0.05S148.95,85.08,148.86,85.08z"/>
	<path class="st0" d="M151.33,86.34l1.02-4.44h0.59l-0.16,0.86l-0.07,0.04c0.05-0.2,0.13-0.37,0.25-0.51
		c0.11-0.14,0.26-0.25,0.42-0.33c0.17-0.08,0.35-0.11,0.54-0.11c0.21,0,0.4,0.05,0.57,0.16c0.17,0.1,0.3,0.25,0.4,0.45
		c0.1,0.2,0.15,0.44,0.15,0.71c0,0.26-0.04,0.51-0.12,0.74c-0.08,0.23-0.19,0.43-0.33,0.61s-0.31,0.31-0.5,0.41
		c-0.19,0.1-0.4,0.15-0.62,0.15c-0.2,0-0.37-0.04-0.53-0.11c-0.16-0.08-0.28-0.19-0.37-0.33c-0.09-0.15-0.14-0.32-0.16-0.53
		l0.11-0.1l-0.53,2.32H151.33z M153.39,84.55c0.14,0,0.27-0.03,0.39-0.1c0.12-0.07,0.23-0.17,0.32-0.29
		c0.09-0.12,0.16-0.27,0.21-0.43c0.05-0.16,0.07-0.33,0.07-0.52c0-0.18-0.03-0.33-0.09-0.45c-0.06-0.12-0.15-0.22-0.26-0.28
		s-0.24-0.1-0.38-0.1c-0.15,0-0.29,0.04-0.41,0.11c-0.12,0.07-0.23,0.17-0.32,0.29c-0.09,0.12-0.16,0.27-0.21,0.43
		c-0.05,0.17-0.07,0.34-0.07,0.53c0,0.24,0.06,0.44,0.19,0.58C152.96,84.48,153.15,84.55,153.39,84.55z"/>
	<path class="st0" d="M156.79,85.08c-0.23,0-0.43-0.05-0.61-0.17c-0.18-0.11-0.32-0.27-0.42-0.47c-0.1-0.2-0.15-0.44-0.15-0.71
		c0-0.25,0.04-0.5,0.12-0.72c0.08-0.23,0.19-0.43,0.32-0.61c0.14-0.18,0.31-0.32,0.5-0.42c0.19-0.1,0.4-0.15,0.63-0.15
		c0.17,0,0.33,0.03,0.47,0.09c0.14,0.06,0.26,0.14,0.35,0.26c0.1,0.11,0.16,0.25,0.19,0.41l0.16-0.69h0.67l-0.72,3.12h-0.59
		l0.11-0.58c-0.1,0.19-0.25,0.34-0.43,0.46C157.21,85.02,157.01,85.08,156.79,85.08z M157.02,84.55c0.13,0,0.26-0.04,0.38-0.11
		c0.12-0.07,0.22-0.17,0.31-0.29c0.09-0.12,0.16-0.27,0.21-0.43c0.05-0.16,0.08-0.34,0.08-0.51c0-0.17-0.03-0.31-0.09-0.43
		s-0.14-0.22-0.25-0.28c-0.11-0.07-0.23-0.1-0.38-0.1c-0.15,0-0.29,0.04-0.42,0.11c-0.12,0.07-0.23,0.17-0.32,0.29
		c-0.09,0.12-0.16,0.26-0.21,0.42c-0.05,0.16-0.07,0.33-0.07,0.5c0,0.18,0.03,0.33,0.09,0.46c0.06,0.12,0.14,0.22,0.26,0.29
		C156.72,84.51,156.86,84.55,157.02,84.55z"/>
	<path class="st0" d="M159.5,82.43l0.12-0.53h2.22l-0.12,0.53H159.5z M160.65,85.08c-0.22,0-0.4-0.04-0.55-0.12
		c-0.15-0.08-0.26-0.2-0.32-0.36s-0.07-0.35-0.02-0.58l0.64-2.8l0.72-0.2l-0.71,3c-0.04,0.18-0.02,0.32,0.08,0.4
		c0.09,0.08,0.21,0.12,0.36,0.12c0.1,0,0.19-0.01,0.26-0.04s0.14-0.06,0.2-0.1l0.05,0.49c-0.11,0.07-0.22,0.11-0.33,0.14
		C160.9,85.07,160.77,85.08,160.65,85.08z"/>
	<path class="st0" d="M163.21,81.91l-0.72,3.12h-0.67l0.73-3.12H163.21z M163.06,81.38c-0.12,0-0.23-0.03-0.3-0.1
		c-0.08-0.07-0.11-0.16-0.1-0.28c0-0.15,0.05-0.26,0.14-0.34c0.09-0.08,0.2-0.12,0.33-0.12c0.13,0,0.23,0.03,0.3,0.1
		s0.11,0.15,0.1,0.27c-0.01,0.15-0.06,0.27-0.14,0.35S163.19,81.38,163.06,81.38z"/>
	<path class="st0" d="M165.06,85.09c-0.3,0-0.55-0.06-0.76-0.18s-0.38-0.29-0.49-0.5c-0.12-0.21-0.17-0.45-0.17-0.72
		c0-0.33,0.07-0.64,0.2-0.92s0.33-0.5,0.58-0.67c0.25-0.17,0.56-0.25,0.92-0.25c0.27,0,0.5,0.05,0.69,0.16
		c0.19,0.11,0.34,0.26,0.44,0.45c0.1,0.19,0.15,0.42,0.15,0.68c0,0.08,0,0.17-0.02,0.26c-0.01,0.09-0.03,0.17-0.06,0.26h-2.52v-0.51
		h2.16l-0.24,0.17c0.02-0.05,0.03-0.1,0.03-0.15c0-0.05,0.01-0.09,0.01-0.13c0-0.14-0.03-0.26-0.08-0.36
		c-0.05-0.1-0.13-0.18-0.23-0.23c-0.1-0.05-0.22-0.08-0.36-0.08c-0.19,0-0.35,0.04-0.48,0.12c-0.13,0.08-0.24,0.18-0.32,0.31
		c-0.08,0.13-0.14,0.28-0.17,0.43c-0.03,0.16-0.05,0.31-0.05,0.47c0,0.17,0.03,0.33,0.1,0.45c0.07,0.13,0.16,0.23,0.29,0.3
		c0.12,0.07,0.27,0.11,0.43,0.11c0.2,0,0.35-0.04,0.48-0.12c0.12-0.08,0.22-0.19,0.3-0.32l0.54,0.29c-0.08,0.14-0.19,0.26-0.33,0.37
		c-0.14,0.1-0.29,0.18-0.46,0.23C165.46,85.06,165.26,85.09,165.06,85.09z"/>
	<path class="st0" d="M167.02,85.03l0.73-3.12h0.59l-0.13,0.79l-0.06-0.04c0.09-0.27,0.24-0.47,0.46-0.6
		c0.22-0.13,0.46-0.2,0.73-0.2c0.23,0,0.43,0.05,0.59,0.15c0.16,0.1,0.28,0.25,0.34,0.44c0.07,0.19,0.07,0.42,0.01,0.69l-0.44,1.91
		h-0.67l0.44-1.87c0.05-0.24,0.03-0.42-0.07-0.56c-0.1-0.13-0.26-0.2-0.47-0.2c-0.17,0-0.32,0.04-0.45,0.11
		c-0.13,0.08-0.24,0.18-0.33,0.33s-0.16,0.32-0.21,0.54l-0.38,1.66H167.02z"/>
	<path class="st0" d="M170.94,82.43l0.12-0.53h2.22l-0.12,0.53H170.94z M172.08,85.08c-0.22,0-0.4-0.04-0.55-0.12
		c-0.15-0.08-0.26-0.2-0.32-0.36s-0.07-0.35-0.02-0.58l0.64-2.8l0.72-0.2l-0.71,3c-0.04,0.18-0.02,0.32,0.08,0.4
		c0.09,0.08,0.21,0.12,0.36,0.12c0.1,0,0.19-0.01,0.26-0.04s0.14-0.06,0.2-0.1l0.05,0.49c-0.11,0.07-0.22,0.11-0.33,0.14
		C172.34,85.07,172.21,85.08,172.08,85.08z"/>
	<path class="st0" d="M176.68,85.1c-0.24,0-0.46-0.04-0.65-0.11c-0.2-0.07-0.37-0.17-0.52-0.31c-0.15-0.13-0.26-0.29-0.34-0.47
		l0.51-0.31c0.09,0.21,0.22,0.38,0.38,0.49s0.37,0.17,0.61,0.17c0.19,0,0.34-0.04,0.44-0.11s0.16-0.17,0.16-0.3
		c0-0.09-0.03-0.17-0.09-0.22c-0.06-0.06-0.15-0.1-0.27-0.13l-0.5-0.15c-0.27-0.08-0.48-0.19-0.61-0.33
		c-0.13-0.15-0.2-0.32-0.2-0.52c0-0.19,0.05-0.35,0.15-0.5c0.1-0.14,0.24-0.26,0.43-0.34c0.19-0.08,0.41-0.12,0.66-0.12
		c0.3,0,0.57,0.06,0.81,0.19s0.4,0.31,0.51,0.54l-0.48,0.32c-0.05-0.11-0.11-0.2-0.19-0.28c-0.08-0.08-0.18-0.14-0.29-0.19
		c-0.11-0.05-0.23-0.07-0.37-0.07c-0.2,0-0.36,0.03-0.46,0.1c-0.1,0.07-0.15,0.16-0.15,0.28c0,0.1,0.04,0.18,0.12,0.24
		c0.08,0.05,0.17,0.1,0.28,0.13l0.61,0.18c0.22,0.06,0.39,0.16,0.51,0.3c0.12,0.14,0.18,0.29,0.18,0.48c0,0.21-0.05,0.4-0.16,0.55
		c-0.1,0.15-0.25,0.27-0.44,0.36C177.14,85.06,176.92,85.1,176.68,85.1z"/>
	<path class="st0" d="M179.71,85.08c-0.23,0-0.43-0.05-0.61-0.17c-0.18-0.11-0.32-0.27-0.42-0.47c-0.1-0.2-0.15-0.44-0.15-0.71
		c0-0.25,0.04-0.5,0.12-0.72c0.08-0.23,0.19-0.43,0.32-0.61c0.14-0.18,0.31-0.32,0.5-0.42c0.19-0.1,0.4-0.15,0.63-0.15
		c0.17,0,0.33,0.03,0.47,0.09c0.14,0.06,0.26,0.14,0.35,0.26c0.1,0.11,0.16,0.25,0.19,0.41l0.16-0.69h0.67l-0.72,3.12h-0.59
		l0.11-0.58c-0.1,0.19-0.25,0.34-0.43,0.46C180.12,85.02,179.92,85.08,179.71,85.08z M179.94,84.55c0.13,0,0.26-0.04,0.38-0.11
		c0.12-0.07,0.22-0.17,0.31-0.29c0.09-0.12,0.16-0.27,0.21-0.43c0.05-0.16,0.08-0.34,0.08-0.51c0-0.17-0.03-0.31-0.09-0.43
		s-0.14-0.22-0.25-0.28c-0.11-0.07-0.23-0.1-0.38-0.1c-0.15,0-0.29,0.04-0.42,0.11c-0.12,0.07-0.23,0.17-0.32,0.29
		c-0.09,0.12-0.16,0.26-0.21,0.42c-0.05,0.16-0.07,0.33-0.07,0.5c0,0.18,0.03,0.33,0.09,0.46c0.06,0.12,0.14,0.22,0.26,0.29
		C179.64,84.51,179.77,84.55,179.94,84.55z"/>
	<path class="st0" d="M182.42,82.43l0.12-0.53h2.22l-0.12,0.53H182.42z M183.56,85.08c-0.22,0-0.4-0.04-0.55-0.12
		c-0.15-0.08-0.26-0.2-0.32-0.36s-0.07-0.35-0.02-0.58l0.64-2.8l0.72-0.2l-0.71,3c-0.04,0.18-0.02,0.32,0.08,0.4
		c0.09,0.08,0.21,0.12,0.36,0.12c0.1,0,0.19-0.01,0.26-0.04s0.14-0.06,0.2-0.1l0.05,0.49c-0.11,0.07-0.22,0.11-0.33,0.14
		C183.81,85.07,183.69,85.08,183.56,85.08z"/>
	<path class="st0" d="M186.13,81.91l-0.72,3.12h-0.67l0.73-3.12H186.13z M185.97,81.38c-0.12,0-0.23-0.03-0.3-0.1
		c-0.08-0.07-0.11-0.16-0.1-0.28c0-0.15,0.05-0.26,0.14-0.34c0.09-0.08,0.2-0.12,0.33-0.12c0.13,0,0.23,0.03,0.3,0.1
		s0.11,0.15,0.1,0.27c-0.01,0.15-0.06,0.27-0.14,0.35S186.1,81.38,185.97,81.38z"/>
	<path class="st0" d="M187.81,85.1c-0.24,0-0.46-0.04-0.65-0.11c-0.2-0.07-0.37-0.17-0.52-0.31c-0.15-0.13-0.26-0.29-0.34-0.47
		l0.51-0.31c0.09,0.21,0.22,0.38,0.38,0.49s0.37,0.17,0.61,0.17c0.19,0,0.34-0.04,0.44-0.11s0.16-0.17,0.16-0.3
		c0-0.09-0.03-0.17-0.09-0.22c-0.06-0.06-0.15-0.1-0.27-0.13l-0.5-0.15c-0.27-0.08-0.48-0.19-0.61-0.33
		c-0.13-0.15-0.2-0.32-0.2-0.52c0-0.19,0.05-0.35,0.15-0.5c0.1-0.14,0.24-0.26,0.43-0.34c0.19-0.08,0.41-0.12,0.66-0.12
		c0.3,0,0.57,0.06,0.81,0.19s0.4,0.31,0.51,0.54l-0.48,0.32c-0.05-0.11-0.11-0.2-0.19-0.28c-0.08-0.08-0.18-0.14-0.29-0.19
		c-0.11-0.05-0.23-0.07-0.37-0.07c-0.2,0-0.36,0.03-0.46,0.1c-0.1,0.07-0.15,0.16-0.15,0.28c0,0.1,0.04,0.18,0.12,0.24
		c0.08,0.05,0.17,0.1,0.28,0.13l0.61,0.18c0.22,0.06,0.39,0.16,0.51,0.3c0.12,0.14,0.18,0.29,0.18,0.48c0,0.21-0.05,0.4-0.16,0.55
		c-0.1,0.15-0.25,0.27-0.44,0.36C188.28,85.06,188.06,85.1,187.81,85.1z"/>
	<path class="st0" d="M189.79,82.43l0.12-0.53h2.2l-0.12,0.53H189.79z M189.81,85.03l0.84-3.62c0.05-0.23,0.13-0.41,0.24-0.55
		c0.11-0.14,0.24-0.24,0.4-0.3s0.34-0.1,0.54-0.1c0.13,0,0.25,0.01,0.36,0.04c0.11,0.03,0.19,0.06,0.25,0.11l-0.19,0.49
		c-0.04-0.03-0.09-0.05-0.16-0.07c-0.07-0.02-0.14-0.03-0.22-0.03c-0.17,0-0.3,0.04-0.39,0.12c-0.09,0.08-0.16,0.21-0.2,0.41
		l-0.1,0.44l-0.03,0.17l-0.67,2.9H189.81z"/>
	<path class="st0" d="M193.33,85.08c-0.23,0-0.43-0.05-0.61-0.17c-0.18-0.11-0.32-0.27-0.42-0.47c-0.1-0.2-0.15-0.44-0.15-0.71
		c0-0.25,0.04-0.5,0.12-0.72c0.08-0.23,0.19-0.43,0.32-0.61c0.14-0.18,0.31-0.32,0.5-0.42c0.19-0.1,0.4-0.15,0.63-0.15
		c0.17,0,0.33,0.03,0.47,0.09c0.14,0.06,0.26,0.14,0.35,0.26c0.1,0.11,0.16,0.25,0.19,0.41l0.16-0.69h0.67l-0.72,3.12h-0.59
		l0.11-0.58c-0.1,0.19-0.25,0.34-0.43,0.46C193.75,85.02,193.55,85.08,193.33,85.08z M193.56,84.55c0.13,0,0.26-0.04,0.38-0.11
		c0.12-0.07,0.22-0.17,0.31-0.29c0.09-0.12,0.16-0.27,0.21-0.43c0.05-0.16,0.08-0.34,0.08-0.51c0-0.17-0.03-0.31-0.09-0.43
		s-0.14-0.22-0.25-0.28c-0.11-0.07-0.23-0.1-0.38-0.1c-0.15,0-0.29,0.04-0.42,0.11c-0.12,0.07-0.23,0.17-0.32,0.29
		c-0.09,0.12-0.16,0.26-0.21,0.42c-0.05,0.16-0.07,0.33-0.07,0.5c0,0.18,0.03,0.33,0.09,0.46c0.06,0.12,0.14,0.22,0.26,0.29
		C193.26,84.51,193.4,84.55,193.56,84.55z"/>
	<path class="st0" d="M197.42,85.09c-0.3,0-0.56-0.06-0.77-0.19c-0.21-0.12-0.38-0.29-0.49-0.51c-0.11-0.21-0.17-0.45-0.17-0.71
		c0-0.35,0.07-0.67,0.21-0.94s0.34-0.49,0.59-0.65s0.55-0.24,0.89-0.24c0.25,0,0.47,0.04,0.66,0.13c0.19,0.08,0.34,0.21,0.46,0.36
		c0.11,0.15,0.18,0.33,0.21,0.52L198.33,83c-0.01-0.17-0.07-0.32-0.18-0.44c-0.11-0.12-0.28-0.18-0.5-0.18
		c-0.15,0-0.28,0.03-0.4,0.1c-0.12,0.07-0.23,0.16-0.32,0.28c-0.09,0.12-0.16,0.26-0.21,0.42s-0.07,0.33-0.07,0.52
		c0,0.17,0.03,0.32,0.09,0.45c0.06,0.13,0.15,0.23,0.27,0.31s0.27,0.11,0.44,0.11c0.15,0,0.28-0.04,0.41-0.12
		c0.13-0.08,0.22-0.2,0.27-0.35l0.62,0.22c-0.11,0.25-0.29,0.44-0.52,0.58C198.01,85.02,197.73,85.09,197.42,85.09z"/>
	<path class="st0" d="M199.4,82.43l0.12-0.53h2.22l-0.12,0.53H199.4z M200.55,85.08c-0.22,0-0.4-0.04-0.55-0.12
		c-0.15-0.08-0.26-0.2-0.32-0.36s-0.07-0.35-0.02-0.58l0.64-2.8l0.72-0.2l-0.71,3c-0.04,0.18-0.02,0.32,0.08,0.4
		c0.09,0.08,0.21,0.12,0.36,0.12c0.1,0,0.19-0.01,0.26-0.04s0.14-0.06,0.2-0.1l0.05,0.49c-0.11,0.07-0.22,0.11-0.33,0.14
		C200.8,85.07,200.68,85.08,200.55,85.08z"/>
	<path class="st0" d="M203.11,81.91l-0.72,3.12h-0.67l0.73-3.12H203.11z M202.96,81.38c-0.12,0-0.23-0.03-0.3-0.1
		c-0.08-0.07-0.11-0.16-0.1-0.28c0-0.15,0.05-0.26,0.14-0.34c0.09-0.08,0.2-0.12,0.33-0.12c0.13,0,0.23,0.03,0.3,0.1
		s0.11,0.15,0.1,0.27c-0.01,0.15-0.06,0.27-0.14,0.35S203.09,81.38,202.96,81.38z"/>
	<path class="st0" d="M204.98,85.09c-0.31,0-0.57-0.06-0.78-0.19c-0.21-0.12-0.38-0.29-0.5-0.51c-0.12-0.21-0.17-0.45-0.17-0.71
		c0-0.35,0.07-0.67,0.21-0.94c0.14-0.27,0.33-0.49,0.58-0.65c0.25-0.16,0.54-0.24,0.88-0.24c0.31,0,0.57,0.06,0.78,0.19
		s0.38,0.29,0.49,0.51c0.11,0.21,0.17,0.45,0.17,0.71c0,0.35-0.07,0.66-0.2,0.93c-0.14,0.28-0.33,0.5-0.58,0.66
		C205.61,85.01,205.32,85.09,204.98,85.09z M205,84.56c0.14,0,0.27-0.03,0.38-0.1s0.22-0.16,0.31-0.28
		c0.09-0.12,0.16-0.26,0.21-0.42c0.05-0.16,0.07-0.33,0.07-0.52c0-0.17-0.03-0.31-0.08-0.44s-0.14-0.23-0.26-0.31
		c-0.12-0.08-0.27-0.12-0.45-0.12c-0.14,0-0.27,0.03-0.39,0.1c-0.12,0.07-0.23,0.16-0.31,0.28c-0.09,0.12-0.16,0.26-0.21,0.42
		c-0.05,0.16-0.08,0.33-0.08,0.52c0,0.16,0.03,0.3,0.09,0.44c0.06,0.13,0.15,0.24,0.27,0.32S204.82,84.56,205,84.56z"/>
	<path class="st0" d="M207.05,85.03l0.73-3.12h0.59l-0.13,0.79l-0.06-0.04c0.09-0.27,0.24-0.47,0.46-0.6
		c0.22-0.13,0.46-0.2,0.73-0.2c0.23,0,0.43,0.05,0.59,0.15c0.16,0.1,0.28,0.25,0.34,0.44c0.07,0.19,0.07,0.42,0.01,0.69l-0.44,1.91
		h-0.67l0.44-1.87c0.05-0.24,0.03-0.42-0.07-0.56c-0.1-0.13-0.26-0.2-0.47-0.2c-0.17,0-0.32,0.04-0.45,0.11
		c-0.13,0.08-0.24,0.18-0.33,0.33s-0.16,0.32-0.21,0.54l-0.38,1.66H207.05z"/>
	<path class="st0" d="M213.22,85.03l-0.29-3.12h0.65l0.17,2.42l1.25-2.42h0.66l0.26,2.46l1.25-2.46h0.71l-1.69,3.12h-0.73
		l-0.28-2.31l-1.22,2.31H213.22z"/>
	<path class="st0" d="M219.15,81.91l-0.72,3.12h-0.67l0.73-3.12H219.15z M218.99,81.38c-0.12,0-0.23-0.03-0.3-0.1
		c-0.08-0.07-0.11-0.16-0.1-0.28c0-0.15,0.05-0.26,0.14-0.34c0.09-0.08,0.2-0.12,0.33-0.12c0.13,0,0.23,0.03,0.3,0.1
		s0.11,0.15,0.1,0.27c-0.01,0.15-0.06,0.27-0.14,0.35S219.12,81.38,218.99,81.38z"/>
	<path class="st0" d="M219.61,82.43l0.12-0.53h2.22l-0.12,0.53H219.61z M220.76,85.08c-0.22,0-0.4-0.04-0.55-0.12
		c-0.15-0.08-0.26-0.2-0.32-0.36s-0.07-0.35-0.02-0.58l0.64-2.8l0.72-0.2l-0.71,3c-0.04,0.18-0.02,0.32,0.08,0.4
		c0.09,0.08,0.21,0.12,0.36,0.12c0.1,0,0.19-0.01,0.26-0.04s0.14-0.06,0.2-0.1l0.05,0.49c-0.11,0.07-0.22,0.11-0.33,0.14
		C221.01,85.07,220.89,85.08,220.76,85.08z"/>
	<path class="st0" d="M221.96,85.03l1.05-4.53h0.67l-0.47,2.06l-0.1,0.07c0.05-0.17,0.14-0.31,0.26-0.42
		c0.12-0.12,0.25-0.21,0.41-0.27s0.33-0.09,0.51-0.09c0.23,0,0.42,0.05,0.58,0.15c0.16,0.1,0.28,0.25,0.35,0.43
		c0.07,0.19,0.07,0.41,0.02,0.68l-0.45,1.92h-0.67l0.44-1.87c0.05-0.24,0.03-0.42-0.07-0.56c-0.1-0.13-0.26-0.2-0.47-0.2
		c-0.17,0-0.32,0.04-0.45,0.11c-0.13,0.08-0.24,0.18-0.33,0.33s-0.16,0.32-0.21,0.54l-0.38,1.66H221.96z"/>
	<path class="st0" d="M229.78,85.09c-0.33,0-0.63-0.07-0.9-0.2c-0.27-0.13-0.49-0.33-0.64-0.6c-0.16-0.26-0.24-0.59-0.24-0.97
		c0-0.32,0.05-0.63,0.14-0.92c0.09-0.29,0.23-0.56,0.41-0.79c0.18-0.23,0.41-0.42,0.68-0.56c0.27-0.14,0.58-0.21,0.93-0.21
		c0.27,0,0.52,0.04,0.73,0.13c0.21,0.09,0.39,0.22,0.54,0.4c0.15,0.18,0.25,0.4,0.32,0.67l-0.68,0.19c-0.05-0.29-0.16-0.5-0.32-0.63
		s-0.37-0.19-0.64-0.19c-0.23,0-0.44,0.05-0.62,0.17c-0.18,0.11-0.33,0.25-0.44,0.43c-0.12,0.18-0.21,0.37-0.27,0.59
		s-0.09,0.44-0.09,0.66c0,0.26,0.05,0.48,0.15,0.66c0.1,0.18,0.23,0.33,0.4,0.42c0.17,0.1,0.36,0.15,0.58,0.15
		c0.25,0,0.45-0.06,0.6-0.17s0.27-0.26,0.37-0.46l0.62,0.28c-0.17,0.28-0.39,0.51-0.65,0.68C230.52,85.01,230.18,85.09,229.78,85.09
		z"/>
	<path class="st0" d="M233.46,85.09c-0.31,0-0.57-0.06-0.78-0.19c-0.21-0.12-0.38-0.29-0.5-0.51c-0.12-0.21-0.17-0.45-0.17-0.71
		c0-0.35,0.07-0.67,0.21-0.94c0.14-0.27,0.33-0.49,0.58-0.65c0.25-0.16,0.54-0.24,0.88-0.24c0.31,0,0.57,0.06,0.78,0.19
		s0.38,0.29,0.49,0.51c0.11,0.21,0.17,0.45,0.17,0.71c0,0.35-0.07,0.66-0.2,0.93c-0.14,0.28-0.33,0.5-0.58,0.66
		C234.09,85.01,233.8,85.09,233.46,85.09z M233.48,84.56c0.14,0,0.27-0.03,0.38-0.1s0.22-0.16,0.31-0.28
		c0.09-0.12,0.16-0.26,0.21-0.42c0.05-0.16,0.07-0.33,0.07-0.52c0-0.17-0.03-0.31-0.08-0.44s-0.14-0.23-0.26-0.31
		c-0.12-0.08-0.27-0.12-0.45-0.12c-0.14,0-0.27,0.03-0.39,0.1c-0.12,0.07-0.23,0.16-0.31,0.28c-0.09,0.12-0.16,0.26-0.21,0.42
		c-0.05,0.16-0.08,0.33-0.08,0.52c0,0.16,0.03,0.3,0.09,0.44c0.06,0.13,0.15,0.24,0.27,0.32S233.3,84.56,233.48,84.56z"/>
	<path class="st0" d="M237.16,85.09c-0.31,0-0.57-0.06-0.78-0.19c-0.21-0.12-0.38-0.29-0.5-0.51c-0.12-0.21-0.17-0.45-0.17-0.71
		c0-0.35,0.07-0.67,0.21-0.94c0.14-0.27,0.33-0.49,0.58-0.65c0.25-0.16,0.54-0.24,0.88-0.24c0.31,0,0.57,0.06,0.78,0.19
		s0.38,0.29,0.49,0.51c0.11,0.21,0.17,0.45,0.17,0.71c0,0.35-0.07,0.66-0.2,0.93c-0.14,0.28-0.33,0.5-0.58,0.66
		C237.78,85.01,237.49,85.09,237.16,85.09z M237.17,84.56c0.14,0,0.27-0.03,0.38-0.1s0.22-0.16,0.31-0.28
		c0.09-0.12,0.16-0.26,0.21-0.42c0.05-0.16,0.07-0.33,0.07-0.52c0-0.17-0.03-0.31-0.08-0.44s-0.14-0.23-0.26-0.31
		c-0.12-0.08-0.27-0.12-0.45-0.12c-0.14,0-0.27,0.03-0.39,0.1c-0.12,0.07-0.23,0.16-0.31,0.28c-0.09,0.12-0.16,0.26-0.21,0.42
		c-0.05,0.16-0.08,0.33-0.08,0.52c0,0.16,0.03,0.3,0.09,0.44c0.06,0.13,0.15,0.24,0.27,0.32S236.99,84.56,237.17,84.56z"/>
	<path class="st0" d="M240.16,85.08c-0.31,0-0.53-0.09-0.66-0.27c-0.12-0.18-0.15-0.42-0.08-0.72l0.83-3.58h0.67l-0.83,3.59
		c-0.04,0.16-0.03,0.28,0.03,0.35c0.06,0.07,0.17,0.11,0.32,0.11c0.06,0,0.11,0,0.15-0.01c0.04,0,0.08-0.01,0.12-0.02l-0.14,0.49
		c-0.07,0.02-0.13,0.04-0.19,0.05S240.25,85.08,240.16,85.08z"/>
	<path class="st0" d="M243.09,85.09c-0.3,0-0.58-0.04-0.83-0.13s-0.47-0.22-0.65-0.39c-0.18-0.17-0.33-0.38-0.44-0.64l0.54-0.36
		c0.08,0.22,0.19,0.41,0.33,0.55c0.14,0.14,0.3,0.24,0.49,0.31c0.19,0.06,0.38,0.1,0.58,0.1c0.18,0,0.34-0.03,0.46-0.09
		c0.12-0.06,0.21-0.14,0.27-0.23c0.06-0.1,0.09-0.2,0.09-0.31c0-0.14-0.04-0.25-0.13-0.32c-0.09-0.08-0.22-0.14-0.39-0.19
		l-0.65-0.19c-0.21-0.06-0.39-0.14-0.53-0.25c-0.15-0.1-0.26-0.22-0.34-0.36c-0.08-0.14-0.12-0.3-0.12-0.47
		c0-0.24,0.06-0.46,0.19-0.65c0.13-0.19,0.31-0.34,0.54-0.45c0.23-0.11,0.5-0.16,0.82-0.16c0.41,0,0.76,0.08,1.03,0.24
		c0.28,0.16,0.49,0.41,0.63,0.73l-0.55,0.35c-0.06-0.2-0.15-0.35-0.27-0.46c-0.12-0.11-0.25-0.18-0.4-0.22
		c-0.15-0.04-0.3-0.06-0.47-0.06c-0.18,0-0.34,0.03-0.46,0.08c-0.12,0.05-0.21,0.12-0.27,0.22c-0.06,0.09-0.09,0.19-0.09,0.3
		c0,0.12,0.05,0.24,0.15,0.34c0.1,0.1,0.24,0.18,0.41,0.23l0.7,0.21c0.31,0.09,0.54,0.22,0.69,0.38c0.15,0.16,0.23,0.37,0.23,0.62
		c0,0.27-0.07,0.5-0.21,0.69s-0.33,0.34-0.56,0.45C243.64,85.03,243.38,85.09,243.09,85.09z"/>
	<path class="st0" d="M246.71,85.09c-0.3,0-0.56-0.06-0.77-0.19c-0.21-0.12-0.38-0.29-0.49-0.51c-0.11-0.21-0.17-0.45-0.17-0.71
		c0-0.35,0.07-0.67,0.21-0.94s0.34-0.49,0.59-0.65s0.55-0.24,0.89-0.24c0.25,0,0.47,0.04,0.66,0.13c0.19,0.08,0.34,0.21,0.46,0.36
		c0.11,0.15,0.18,0.33,0.21,0.52L247.62,83c-0.01-0.17-0.07-0.32-0.18-0.44c-0.11-0.12-0.28-0.18-0.5-0.18
		c-0.15,0-0.28,0.03-0.4,0.1c-0.12,0.07-0.23,0.16-0.32,0.28c-0.09,0.12-0.16,0.26-0.21,0.42s-0.07,0.33-0.07,0.52
		c0,0.17,0.03,0.32,0.09,0.45c0.06,0.13,0.15,0.23,0.27,0.31s0.27,0.11,0.44,0.11c0.15,0,0.28-0.04,0.41-0.12
		c0.13-0.08,0.22-0.2,0.27-0.35l0.62,0.22c-0.11,0.25-0.29,0.44-0.52,0.58C247.3,85.02,247.02,85.09,246.71,85.09z"/>
	<path class="st0" d="M249.65,85.08c-0.23,0-0.42-0.05-0.59-0.15c-0.17-0.1-0.29-0.24-0.36-0.43c-0.07-0.19-0.08-0.41-0.02-0.68
		l0.44-1.91h0.67l-0.43,1.86c-0.06,0.25-0.03,0.44,0.07,0.57c0.11,0.13,0.27,0.2,0.48,0.2c0.17,0,0.31-0.04,0.44-0.11
		c0.13-0.07,0.23-0.18,0.32-0.32c0.09-0.14,0.15-0.32,0.2-0.53l0.39-1.66h0.67l-0.72,3.12h-0.59l0.13-0.79l0.06,0.05
		c-0.08,0.26-0.23,0.46-0.44,0.59C250.16,85.01,249.92,85.08,249.65,85.08z"/>
	<path class="st0" d="M253.11,85.08c-0.31,0-0.53-0.09-0.66-0.27c-0.12-0.18-0.15-0.42-0.08-0.72l0.83-3.58h0.67l-0.83,3.59
		c-0.04,0.16-0.03,0.28,0.03,0.35c0.06,0.07,0.17,0.11,0.32,0.11c0.06,0,0.11,0,0.15-0.01c0.04,0,0.08-0.01,0.12-0.02l-0.14,0.49
		c-0.07,0.02-0.13,0.04-0.19,0.05S253.2,85.08,253.11,85.08z"/>
	<path class="st0" d="M253.79,86.34l1.02-4.44h0.59l-0.16,0.86l-0.07,0.04c0.05-0.2,0.13-0.37,0.25-0.51
		c0.11-0.14,0.26-0.25,0.42-0.33c0.17-0.08,0.35-0.11,0.54-0.11c0.21,0,0.4,0.05,0.57,0.16c0.17,0.1,0.3,0.25,0.4,0.45
		c0.1,0.2,0.15,0.44,0.15,0.71c0,0.26-0.04,0.51-0.12,0.74c-0.08,0.23-0.19,0.43-0.33,0.61s-0.31,0.31-0.5,0.41
		c-0.19,0.1-0.4,0.15-0.62,0.15c-0.2,0-0.37-0.04-0.53-0.11c-0.16-0.08-0.28-0.19-0.37-0.33c-0.09-0.15-0.14-0.32-0.16-0.53
		l0.11-0.1l-0.53,2.32H253.79z M255.85,84.55c0.14,0,0.27-0.03,0.39-0.1c0.12-0.07,0.23-0.17,0.32-0.29
		c0.09-0.12,0.16-0.27,0.21-0.43c0.05-0.16,0.07-0.33,0.07-0.52c0-0.18-0.03-0.33-0.09-0.45c-0.06-0.12-0.15-0.22-0.26-0.28
		s-0.24-0.1-0.38-0.1c-0.15,0-0.29,0.04-0.41,0.11c-0.12,0.07-0.23,0.17-0.32,0.29c-0.09,0.12-0.16,0.27-0.21,0.43
		c-0.05,0.17-0.07,0.34-0.07,0.53c0,0.24,0.06,0.44,0.19,0.58C255.42,84.48,255.61,84.55,255.85,84.55z"/>
	<path class="st0" d="M258.03,82.43l0.12-0.53h2.22l-0.12,0.53H258.03z M259.17,85.08c-0.22,0-0.4-0.04-0.55-0.12
		c-0.15-0.08-0.26-0.2-0.32-0.36s-0.07-0.35-0.02-0.58l0.64-2.8l0.72-0.2l-0.71,3c-0.04,0.18-0.02,0.32,0.08,0.4
		c0.09,0.08,0.21,0.12,0.36,0.12c0.1,0,0.19-0.01,0.26-0.04s0.14-0.06,0.2-0.1l0.05,0.49c-0.11,0.07-0.22,0.11-0.33,0.14
		C259.42,85.07,259.3,85.08,259.17,85.08z"/>
	<path class="st0" d="M261.74,81.91l-0.72,3.12h-0.67l0.73-3.12H261.74z M261.58,81.38c-0.12,0-0.23-0.03-0.3-0.1
		c-0.08-0.07-0.11-0.16-0.1-0.28c0-0.15,0.05-0.26,0.14-0.34c0.09-0.08,0.2-0.12,0.33-0.12c0.13,0,0.23,0.03,0.3,0.1
		s0.11,0.15,0.1,0.27c-0.01,0.15-0.06,0.27-0.14,0.35S261.72,81.38,261.58,81.38z"/>
	<path class="st0" d="M261.98,85.03l0.73-3.12h0.59l-0.13,0.79l-0.06-0.04c0.09-0.27,0.24-0.47,0.46-0.6
		c0.22-0.13,0.46-0.2,0.73-0.2c0.23,0,0.43,0.05,0.59,0.15c0.16,0.1,0.28,0.25,0.34,0.44c0.07,0.19,0.07,0.42,0.01,0.69l-0.44,1.91
		h-0.67l0.44-1.87c0.05-0.24,0.03-0.42-0.07-0.56c-0.1-0.13-0.26-0.2-0.47-0.2c-0.17,0-0.32,0.04-0.45,0.11
		c-0.13,0.08-0.24,0.18-0.33,0.33s-0.16,0.32-0.21,0.54l-0.38,1.66H261.98z"/>
	<path class="st0" d="M266.91,86.37c-0.18,0-0.35-0.02-0.51-0.07c-0.16-0.05-0.31-0.12-0.43-0.21c-0.12-0.09-0.22-0.2-0.3-0.33
		c-0.08-0.13-0.13-0.28-0.15-0.44l0.67-0.16c0.03,0.22,0.11,0.39,0.22,0.51c0.11,0.12,0.3,0.18,0.56,0.18c0.14,0,0.27-0.03,0.4-0.08
		c0.12-0.05,0.24-0.15,0.33-0.27c0.1-0.13,0.17-0.31,0.22-0.54l0.18-0.79l0.07-0.05c-0.06,0.25-0.19,0.46-0.39,0.61
		c-0.2,0.15-0.43,0.22-0.69,0.22c-0.23,0-0.44-0.06-0.62-0.17c-0.18-0.11-0.33-0.27-0.43-0.47c-0.11-0.2-0.16-0.42-0.16-0.67
		c0-0.26,0.04-0.5,0.12-0.71c0.08-0.22,0.19-0.41,0.33-0.57c0.14-0.16,0.3-0.29,0.5-0.38c0.19-0.09,0.4-0.13,0.63-0.13
		c0.2,0,0.37,0.04,0.52,0.12c0.15,0.08,0.28,0.19,0.37,0.34c0.09,0.15,0.14,0.33,0.15,0.54l-0.1,0.08l0.23-1.01h0.67l-0.72,3.07
		c-0.07,0.34-0.19,0.61-0.35,0.81s-0.34,0.35-0.57,0.44C267.43,86.33,267.18,86.37,266.91,86.37z M267.32,84.42
		c0.18,0,0.34-0.05,0.48-0.17s0.25-0.26,0.33-0.45c0.08-0.19,0.12-0.4,0.12-0.62c0-0.17-0.03-0.31-0.09-0.43
		c-0.06-0.12-0.14-0.21-0.25-0.28s-0.24-0.1-0.38-0.1c-0.2,0-0.37,0.05-0.52,0.16c-0.15,0.11-0.26,0.25-0.35,0.43
		c-0.08,0.18-0.12,0.39-0.12,0.62c0,0.24,0.07,0.44,0.2,0.59C266.88,84.35,267.07,84.42,267.32,84.42z"/>
	<path class="st0" d="M270.91,80.51c0.25,0,0.47,0.05,0.66,0.15c0.19,0.1,0.33,0.25,0.43,0.43c0.1,0.19,0.15,0.4,0.15,0.65
		s-0.05,0.47-0.15,0.65c-0.1,0.19-0.25,0.33-0.43,0.43c-0.19,0.1-0.41,0.15-0.66,0.15c-0.25,0-0.47-0.05-0.66-0.15
		c-0.19-0.1-0.33-0.25-0.44-0.43c-0.1-0.19-0.15-0.4-0.15-0.65s0.05-0.47,0.15-0.65c0.1-0.19,0.25-0.33,0.44-0.43
		C270.44,80.56,270.66,80.51,270.91,80.51z M270.91,80.77c-0.2,0-0.37,0.04-0.51,0.12c-0.15,0.08-0.26,0.19-0.34,0.34
		c-0.08,0.15-0.12,0.32-0.12,0.52s0.04,0.37,0.12,0.52c0.08,0.15,0.19,0.26,0.34,0.34c0.15,0.08,0.32,0.12,0.51,0.12
		c0.2,0,0.37-0.04,0.51-0.12c0.14-0.08,0.26-0.19,0.34-0.34c0.08-0.15,0.12-0.32,0.12-0.52s-0.04-0.37-0.12-0.52
		c-0.08-0.15-0.19-0.26-0.34-0.34C271.28,80.81,271.11,80.77,270.91,80.77z M270.71,81.08v1.34h-0.28v-1.34H270.71z M271.01,81.08
		c0.1,0,0.18,0.02,0.26,0.05s0.13,0.09,0.18,0.15c0.04,0.06,0.06,0.14,0.06,0.23c0,0.13-0.05,0.24-0.14,0.31
		c-0.09,0.08-0.22,0.12-0.37,0.12h-0.4v-0.2h0.38c0.08,0,0.14-0.02,0.18-0.05s0.06-0.09,0.06-0.17s-0.02-0.13-0.06-0.17
		c-0.04-0.04-0.1-0.05-0.18-0.05h-0.38v-0.22H271.01z M271.11,81.79l0.43,0.62h-0.33l-0.34-0.54L271.11,81.79z"/>
	<path class="st0" d="M275.36,86.22c-0.23-0.32-0.41-0.69-0.53-1.09c-0.12-0.41-0.18-0.82-0.18-1.24c0-0.36,0.05-0.71,0.14-1.05
		s0.23-0.67,0.4-0.97c0.18-0.31,0.39-0.58,0.65-0.84c0.26-0.25,0.55-0.47,0.87-0.65l0.26,0.37c-0.37,0.24-0.68,0.53-0.93,0.87
		s-0.44,0.71-0.57,1.11c-0.13,0.4-0.19,0.82-0.19,1.25c0,0.36,0.04,0.71,0.13,1.05c0.09,0.34,0.21,0.65,0.36,0.91L275.36,86.22z"/>
	<path class="st0" d="M276.41,85.03l0.73-3.12h0.59l-0.13,0.79l-0.06-0.04c0.09-0.27,0.24-0.47,0.46-0.6
		c0.22-0.13,0.46-0.2,0.73-0.2c0.23,0,0.43,0.05,0.59,0.15c0.16,0.1,0.28,0.25,0.34,0.44c0.07,0.19,0.07,0.42,0.01,0.69l-0.44,1.91
		h-0.67l0.44-1.87c0.05-0.24,0.03-0.42-0.07-0.56c-0.1-0.13-0.26-0.2-0.47-0.2c-0.17,0-0.32,0.04-0.45,0.11
		c-0.13,0.08-0.24,0.18-0.33,0.33s-0.16,0.32-0.21,0.54l-0.38,1.66H276.41z"/>
	<path class="st0" d="M283.38,83.47l-0.12,0.55h-2.97l0.12-0.55H283.38z M283.68,82.19l-0.12,0.55h-2.97l0.12-0.55H283.68z"/>
	<path class="st0" d="M284.56,85.03l0.63-2.74c0.03-0.13,0.06-0.25,0.09-0.35c0.03-0.1,0.06-0.21,0.09-0.31
		c-0.08,0.08-0.19,0.16-0.33,0.23c-0.14,0.07-0.28,0.14-0.42,0.19c-0.15,0.05-0.29,0.09-0.42,0.12l0.04-0.61
		c0.15-0.03,0.31-0.09,0.48-0.16c0.18-0.07,0.35-0.15,0.51-0.24c0.16-0.09,0.29-0.17,0.38-0.25h0.56l-0.96,4.12H284.56z"/>
	<path class="st0" d="M288.06,85.09c-0.3,0-0.56-0.07-0.77-0.2c-0.21-0.13-0.38-0.32-0.49-0.56c-0.11-0.24-0.17-0.52-0.17-0.84
		c0-0.14,0.01-0.28,0.02-0.42s0.04-0.28,0.07-0.42c0.06-0.25,0.14-0.48,0.24-0.7s0.23-0.41,0.38-0.58c0.15-0.17,0.33-0.3,0.53-0.39
		c0.2-0.09,0.43-0.14,0.69-0.14c0.29,0,0.53,0.07,0.74,0.2c0.2,0.13,0.36,0.32,0.47,0.55s0.17,0.51,0.17,0.83
		c0,0.14-0.01,0.28-0.02,0.42s-0.04,0.28-0.07,0.42c-0.06,0.25-0.14,0.48-0.24,0.71c-0.1,0.22-0.23,0.42-0.37,0.58
		c-0.15,0.17-0.32,0.3-0.51,0.39C288.52,85.04,288.3,85.09,288.06,85.09z M288.09,84.52c0.19,0,0.35-0.06,0.49-0.17
		c0.14-0.12,0.26-0.28,0.36-0.48c0.1-0.2,0.17-0.43,0.23-0.67c0.04-0.14,0.06-0.27,0.08-0.4s0.02-0.26,0.02-0.38
		c0-0.35-0.07-0.6-0.2-0.76s-0.32-0.24-0.55-0.24c-0.2,0-0.37,0.06-0.52,0.18c-0.15,0.12-0.28,0.28-0.38,0.48
		c-0.1,0.2-0.18,0.43-0.25,0.68c-0.03,0.13-0.05,0.27-0.07,0.4c-0.02,0.13-0.02,0.26-0.02,0.38c0,0.24,0.04,0.43,0.11,0.58
		c0.07,0.15,0.17,0.25,0.29,0.32S287.94,84.52,288.09,84.52z"/>
	<path class="st0" d="M292.06,85.09c-0.33,0-0.6-0.07-0.83-0.2c-0.22-0.13-0.39-0.32-0.5-0.56c-0.11-0.24-0.17-0.52-0.17-0.85
		c0-0.33,0.04-0.66,0.12-0.97s0.2-0.59,0.36-0.85c0.16-0.25,0.37-0.45,0.62-0.6c0.25-0.15,0.54-0.22,0.88-0.22
		c0.32,0,0.6,0.08,0.84,0.23c0.24,0.15,0.39,0.4,0.46,0.73l-0.62,0.22c-0.02-0.19-0.1-0.33-0.24-0.44c-0.14-0.1-0.29-0.16-0.48-0.16
		c-0.2,0-0.38,0.05-0.53,0.15c-0.15,0.1-0.28,0.23-0.38,0.39c-0.1,0.16-0.18,0.34-0.24,0.54c-0.06,0.2-0.1,0.4-0.13,0.6
		c0.07-0.21,0.22-0.38,0.42-0.49c0.21-0.11,0.43-0.17,0.67-0.17c0.37,0,0.66,0.1,0.87,0.31c0.21,0.21,0.32,0.49,0.32,0.83
		c0,0.28-0.06,0.54-0.18,0.77c-0.12,0.23-0.29,0.41-0.5,0.53C292.61,85.03,292.36,85.09,292.06,85.09z M292.07,84.53
		c0.17,0,0.31-0.04,0.43-0.12c0.11-0.08,0.2-0.18,0.26-0.31c0.06-0.13,0.09-0.27,0.09-0.42c0-0.2-0.07-0.37-0.2-0.5
		c-0.13-0.13-0.32-0.2-0.57-0.2c-0.17,0-0.32,0.04-0.44,0.12c-0.12,0.08-0.21,0.18-0.27,0.3c-0.06,0.12-0.09,0.26-0.09,0.4
		c0,0.12,0.02,0.22,0.06,0.31c0.04,0.09,0.1,0.17,0.17,0.23s0.16,0.11,0.25,0.14S291.96,84.53,292.07,84.53z"/>
	<path class="st0" d="M294.87,80.36c0.23,0.32,0.41,0.69,0.53,1.09c0.12,0.41,0.18,0.82,0.18,1.24c0,0.36-0.05,0.71-0.14,1.05
		s-0.23,0.67-0.4,0.97c-0.18,0.31-0.39,0.58-0.65,0.84c-0.26,0.25-0.55,0.47-0.87,0.65l-0.26-0.37c0.37-0.24,0.68-0.53,0.93-0.87
		c0.25-0.34,0.44-0.71,0.57-1.11s0.19-0.82,0.19-1.25c0-0.36-0.04-0.71-0.13-1.05c-0.09-0.34-0.21-0.65-0.36-0.91L294.87,80.36z"/>
	<path class="st0" d="M296.4,85.09c-0.12,0-0.23-0.04-0.31-0.1s-0.12-0.16-0.12-0.28c0-0.16,0.05-0.28,0.14-0.38
		s0.21-0.14,0.35-0.14c0.12,0,0.23,0.04,0.31,0.1s0.12,0.16,0.12,0.28c0,0.16-0.05,0.28-0.14,0.38
		C296.66,85.04,296.54,85.09,296.4,85.09z"/>
</g>
</svg>
