<?xml version="1.0" encoding="utf-8"?>
<!-- Generator: Adobe Illustrator 25.4.1, SVG Export Plug-In . SVG Version: 6.00 Build 0)  -->
<svg version="1.1" id="Layer_1" xmlns="http://www.w3.org/2000/svg" xmlns:xlink="http://www.w3.org/1999/xlink" x="0px" y="0px"
	 viewBox="0 0 728 90" style="enable-background:new 0 0 728 90;" xml:space="preserve">
<style type="text/css">
	.st0{fill:#FFFFFF;}
</style>
<g>
	<g>
		<g>
			<g>
				<path class="st0" d="M353.89,31.01c0,0.28-0.23,0.5-0.51,0.5c-0.29,0-0.52-0.22-0.52-0.5c0-0.28,0.23-0.5,0.52-0.5
					C353.67,30.51,353.89,30.73,353.89,31.01z M352.99,31.01c0,0.22,0.17,0.4,0.39,0.4c0.22,0,0.38-0.18,0.38-0.4
					c0-0.22-0.16-0.4-0.39-0.4C353.16,30.61,352.99,30.79,352.99,31.01z M353.3,31.27h-0.12v-0.5c0.05-0.01,0.11-0.02,0.19-0.02
					c0.09,0,0.14,0.02,0.17,0.04c0.03,0.02,0.05,0.06,0.05,0.11c0,0.06-0.05,0.1-0.1,0.12v0.01c0.05,0.02,0.07,0.05,0.09,0.12
					c0.02,0.08,0.03,0.1,0.04,0.12h-0.12c-0.02-0.02-0.02-0.06-0.04-0.12c-0.01-0.05-0.04-0.08-0.1-0.08h-0.05V31.27z M353.31,30.99
					h0.05c0.06,0,0.12-0.02,0.12-0.07c0-0.05-0.03-0.08-0.11-0.08c-0.03,0-0.05,0-0.06,0.01V30.99z"/>
			</g>
		</g>
	</g>
	<path class="st0" d="M361.38,29.27c-2.49,0-3.69-1.81-3.69-3.56c0-2.01,1.45-3.63,3.73-3.63c0.77,0,1.58,0.24,2.21,0.77l-0.7,0.98
		c-0.44-0.34-0.9-0.46-1.46-0.46c-1.21,0-2.11,0.84-2.11,2.29c0,1.32,0.83,2.38,2.15,2.38c0.56,0,1.06-0.17,1.49-0.55l0.65,0.98
		C363.03,29.01,362.18,29.27,361.38,29.27"/>
	<path class="st0" d="M367.47,29.27c-2.08,0-3.62-1.57-3.62-3.63c0-2.11,1.67-3.56,3.62-3.56c1.94,0,3.63,1.44,3.63,3.55
		C371.1,27.69,369.57,29.27,367.47,29.27 M369.43,25.64c0-1.27-0.62-2.36-1.96-2.36c-1.31,0-1.96,1.1-1.96,2.35
		c0,1.3,0.61,2.45,1.96,2.45c1.35,0,1.96-1.14,1.96-2.45V25.64z"/>
	<path class="st0" d="M375.32,29.27c-2.08,0-3.62-1.57-3.62-3.63c0-2.11,1.67-3.56,3.62-3.56c1.94,0,3.63,1.44,3.63,3.55
		C378.95,27.69,377.42,29.27,375.32,29.27 M377.28,25.64c0-1.27-0.62-2.36-1.96-2.36c-1.31,0-1.96,1.1-1.96,2.35
		c0,1.3,0.6,2.45,1.96,2.45c1.35,0,1.96-1.14,1.96-2.45V25.64z"/>
	<polygon class="st0" points="379.77,29.1 379.77,19.02 381.33,19.88 381.33,29.1 	"/>
	<path class="st0" d="M384.94,29.31c-1.76,0-2.6-0.85-2.6-0.85l0.7-0.91c0,0,0.8,0.54,1.86,0.54c0.51,0,0.93-0.35,0.93-0.7
		c0-0.35-0.16-0.65-0.62-0.89c-0.46-0.24-0.99-0.49-1.39-0.69c-0.41-0.2-1.31-0.8-1.31-1.99c0-1.2,1.21-1.86,2.45-1.86
		c1.18,0,2.08,0.77,2.08,0.77l-0.6,0.93c0,0-0.68-0.48-1.42-0.48c-0.75,0-0.9,0.48-0.9,0.67c0,0.2,0.07,0.51,0.55,0.76
		c0.48,0.25,0.97,0.52,1.67,0.92c0.7,0.39,1.1,1.07,1.1,1.83C387.43,28.13,386.69,29.31,384.94,29.31"/>
	<path class="st0" d="M391.65,29.27c-2.49,0-3.69-1.81-3.69-3.56c0-2.01,1.45-3.63,3.73-3.63c0.77,0,1.58,0.24,2.21,0.77l-0.7,0.98
		c-0.44-0.34-0.9-0.46-1.46-0.46c-1.21,0-2.11,0.84-2.11,2.29c0,1.32,0.83,2.38,2.15,2.38c0.56,0,1.06-0.17,1.49-0.55l0.65,0.98
		C393.29,29.01,392.45,29.27,391.65,29.27"/>
	<path class="st0" d="M399.35,28.3c0,0-0.79,0.97-2.28,0.97c-1.76,0-2.62-1.28-2.62-2.57v-4.46h1.56v4.39
		c0,0.76,0.59,1.39,1.51,1.39c0.8,0,1.59-0.96,1.59-0.96v-4.83h1.56v6.85L399.35,28.3z"/>
	<polygon class="st0" points="402.06,29.1 402.06,19.02 403.62,19.88 403.62,29.1 	"/>
	<path class="st0" d="M408.79,29.27c-1.38,0-2.17-0.77-2.17-0.77v3.42h-1.58v-9.82l1.58,0.83c0,0,0.84-0.86,2.25-0.86
		c1.48,0,3.32,1.14,3.32,3.69C412.19,28.3,410.38,29.27,408.79,29.27 M408.69,23.27c-1.34,0-2.11,1.25-2.11,1.25v2.59
		c0,0,0.89,1,2.17,1c1.49,0,1.81-1.79,1.81-2.41C410.56,25.09,410.42,23.27,408.69,23.27"/>
	<path class="st0" d="M416.3,29.28h-0.99c-1.24,0-1.66-1.2-1.66-1.98v-4.04h-1.24v-1.03h1.24v-3.03h1.55v3.03h1.59v1.03h-1.58v3.66
		c0,0.41-0.07,1.06,0.62,1.06h1.13L416.3,29.28z"/>
	<path class="st0" d="M418.81,21.05c-0.56,0-1.03-0.46-1.03-1.03c0-0.56,0.47-1.03,1.03-1.03c0.56,0,1.03,0.46,1.03,1.03
		C419.83,20.59,419.37,21.05,418.81,21.05 M418.03,22.23h1.53v6.87h-1.53V22.23z"/>
	<path class="st0" d="M425.76,29.1v-4.39c0-0.76-0.59-1.39-1.51-1.39c-0.8,0-1.7,0.96-1.7,0.96v4.83h-1.56v-6.85l1.32,0.79
		c0,0,0.9-0.97,2.39-0.97c1.76,0,2.62,1.28,2.62,2.57v4.46H425.76z"/>
	<path class="st0" d="M432.09,32.29c-0.24,0-2.07-0.03-2.07-0.03l0.03-1.25h1.54c1.49,0,2.34-0.8,2.34-1.9v-0.62
		c0,0-0.82,0.78-2.19,0.78c-1.59,0-3.41-0.97-3.41-3.52c0-2.55,1.84-3.69,3.32-3.69c1.41,0,2.25,0.86,2.25,0.86l1.58-0.79v6.82
		C435.47,30.8,434.24,32.29,432.09,32.29 M433.93,24.53c0,0-0.77-1.25-2.11-1.25c-1.73,0-1.87,1.81-1.87,2.43
		c0,0.62,0.32,2.41,1.81,2.41c1.28,0,2.17-1,2.17-1V24.53z"/>
	<polygon class="st0" points="343.71,34.31 343.71,29.82 344.59,28.94 347.13,31.48 347.13,32.33 	"/>
	<polygon class="st0" points="341.88,25.97 339,28.85 342.52,30.18 346.72,25.97 	"/>
	<polygon class="st0" points="343.3,21.96 339.59,21.96 340.78,25.39 346.72,25.39 	"/>
	<polygon class="st0" points="347.14,20.13 344.27,17.27 342.94,20.77 347.14,24.97 	"/>
	<polygon class="st0" points="355.79,29.4 351.56,29.4 348.14,25.97 354.07,25.97 	"/>
	<polygon class="st0" points="352.33,21.19 356.18,22.19 352.98,25.39 348.14,25.39 	"/>
	<polygon class="st0" points="347.72,19.04 351.14,17 351.14,21.55 347.72,24.97 	"/>
	<polygon class="st0" points="352.08,30.76 350.98,34.5 345,28.52 347.42,26.1 	"/>
	<g>
		<path class="st0" d="M437.8,22.7c0,0.41-0.33,0.73-0.74,0.73c-0.42,0-0.75-0.32-0.75-0.73c0-0.41,0.33-0.73,0.75-0.73
			C437.47,21.97,437.8,22.29,437.8,22.7z M436.5,22.7c0,0.32,0.24,0.58,0.57,0.58c0.31,0,0.55-0.26,0.55-0.58
			c0-0.32-0.24-0.58-0.56-0.58C436.74,22.12,436.5,22.38,436.5,22.7z M436.94,23.07h-0.17v-0.72c0.07-0.01,0.16-0.02,0.28-0.02
			c0.14,0,0.2,0.02,0.25,0.06c0.04,0.03,0.07,0.09,0.07,0.15c0,0.09-0.07,0.14-0.15,0.17v0.01c0.07,0.02,0.11,0.08,0.13,0.18
			c0.02,0.11,0.04,0.15,0.05,0.18h-0.18c-0.02-0.02-0.03-0.09-0.06-0.18c-0.01-0.07-0.06-0.11-0.15-0.11h-0.08V23.07z M436.95,22.67
			h0.08c0.09,0,0.17-0.03,0.17-0.11c0-0.07-0.05-0.11-0.15-0.11c-0.04,0-0.08,0-0.09,0.01V22.67z"/>
	</g>
</g>
</svg>
