<?xml version="1.0" encoding="utf-8"?>
<!-- Generator: Adobe Illustrator 25.4.1, SVG Export Plug-In . SVG Version: 6.00 Build 0)  -->
<svg version="1.1" id="Layer_1" xmlns="http://www.w3.org/2000/svg" xmlns:xlink="http://www.w3.org/1999/xlink" x="0px" y="0px"
	 viewBox="0 0 728 90" style="enable-background:new 0 0 728 90;" xml:space="preserve">
<style type="text/css">
	.st0{fill:#FFFFFF;}
</style>
<g>
	<g>
		<g>
			<g>
				<path class="st0" d="M353,31.11c0,0.28-0.23,0.51-0.52,0.51c-0.29,0-0.52-0.22-0.52-0.51c0-0.28,0.23-0.5,0.52-0.5
					C352.77,30.6,353,30.82,353,31.11z M352.09,31.11c0,0.22,0.17,0.4,0.39,0.4c0.22,0,0.38-0.18,0.38-0.4c0-0.22-0.17-0.4-0.39-0.4
					C352.26,30.7,352.09,30.88,352.09,31.11z M352.4,31.37h-0.12v-0.5c0.05-0.01,0.11-0.02,0.19-0.02c0.1,0,0.14,0.02,0.17,0.04
					c0.03,0.02,0.05,0.06,0.05,0.11c0,0.06-0.05,0.1-0.1,0.12v0.01c0.05,0.02,0.07,0.06,0.09,0.12c0.02,0.08,0.03,0.1,0.04,0.12
					h-0.12c-0.02-0.02-0.02-0.06-0.04-0.12c-0.01-0.05-0.04-0.08-0.1-0.08h-0.06V31.37z M352.41,31.08h0.05
					c0.06,0,0.12-0.02,0.12-0.07c0-0.05-0.03-0.08-0.11-0.08c-0.03,0-0.05,0-0.06,0.01V31.08z"/>
			</g>
		</g>
	</g>
	<path class="st0" d="M360.54,29.35c-2.51,0-3.71-1.83-3.71-3.58c0-2.03,1.46-3.66,3.76-3.66c0.78,0,1.59,0.24,2.23,0.78l-0.71,0.99
		c-0.44-0.34-0.91-0.47-1.47-0.47c-1.22,0-2.13,0.85-2.13,2.31c0,1.33,0.84,2.39,2.17,2.39c0.57,0,1.06-0.17,1.5-0.55l0.65,0.99
		C362.2,29.1,361.34,29.35,360.54,29.35"/>
	<path class="st0" d="M366.67,29.35c-2.1,0-3.64-1.58-3.64-3.66c0-2.13,1.69-3.58,3.64-3.58c1.96,0,3.66,1.45,3.66,3.57
		C370.33,27.77,368.78,29.35,366.67,29.35 M368.64,25.7c0-1.28-0.62-2.38-1.97-2.38c-1.32,0-1.97,1.1-1.97,2.36
		c0,1.3,0.61,2.47,1.97,2.47c1.36,0,1.97-1.15,1.97-2.47V25.7z"/>
	<path class="st0" d="M374.58,29.35c-2.1,0-3.64-1.58-3.64-3.66c0-2.13,1.69-3.58,3.64-3.58c1.96,0,3.66,1.45,3.66,3.57
		C378.24,27.77,376.69,29.35,374.58,29.35 M376.55,25.7c0-1.28-0.62-2.38-1.97-2.38c-1.32,0-1.97,1.1-1.97,2.36
		c0,1.3,0.61,2.47,1.97,2.47c1.36,0,1.97-1.15,1.97-2.47V25.7z"/>
	<polygon class="st0" points="379.06,29.18 379.06,19.04 380.63,19.9 380.63,29.18 	"/>
	<path class="st0" d="M384.26,29.4c-1.77,0-2.62-0.85-2.62-0.85l0.71-0.92c0,0,0.81,0.54,1.87,0.54c0.51,0,0.94-0.35,0.94-0.71
		c0-0.36-0.16-0.65-0.62-0.89c-0.47-0.24-0.99-0.5-1.4-0.69c-0.41-0.2-1.32-0.81-1.32-2c0-1.2,1.22-1.87,2.46-1.87
		c1.19,0,2.1,0.78,2.1,0.78l-0.61,0.94c0,0-0.68-0.48-1.43-0.48c-0.75,0-0.91,0.48-0.91,0.68c0,0.2,0.07,0.51,0.55,0.76
		c0.48,0.26,0.98,0.52,1.69,0.92c0.71,0.4,1.1,1.08,1.1,1.84C386.77,28.21,386.03,29.4,384.26,29.4"/>
	<path class="st0" d="M391.02,29.35c-2.51,0-3.71-1.83-3.71-3.58c0-2.03,1.46-3.66,3.76-3.66c0.78,0,1.59,0.24,2.22,0.78l-0.71,0.99
		c-0.44-0.34-0.91-0.47-1.47-0.47c-1.22,0-2.13,0.85-2.13,2.31c0,1.33,0.84,2.39,2.17,2.39c0.57,0,1.06-0.17,1.5-0.55l0.65,0.99
		C392.68,29.1,391.83,29.35,391.02,29.35"/>
	<path class="st0" d="M398.77,28.38c0,0-0.79,0.98-2.3,0.98c-1.77,0-2.64-1.29-2.64-2.59v-4.49h1.57v4.42c0,0.76,0.6,1.4,1.52,1.4
		c0.81,0,1.6-0.96,1.6-0.96v-4.86h1.57v6.9L398.77,28.38z"/>
	<polygon class="st0" points="401.51,29.18 401.51,19.04 403.08,19.9 403.08,29.18 	"/>
	<path class="st0" d="M408.28,29.35c-1.39,0-2.18-0.78-2.18-0.78v3.44h-1.59v-9.89l1.59,0.83c0,0,0.85-0.86,2.27-0.86
		c1.49,0,3.34,1.15,3.34,3.71C411.71,28.38,409.88,29.35,408.28,29.35 M408.18,23.32c-1.35,0-2.13,1.26-2.13,1.26v2.61
		c0,0,0.89,1.01,2.18,1.01c1.5,0,1.83-1.8,1.83-2.42C410.07,25.15,409.92,23.32,408.18,23.32"/>
	<path class="st0" d="M415.85,29.37h-0.99c-1.25,0-1.67-1.2-1.67-2V23.3h-1.25v-1.03h1.25v-3.05h1.56v3.05h1.6v1.03h-1.59v3.68
		c0,0.41-0.07,1.06,0.62,1.06h1.13L415.85,29.37z"/>
	<path class="st0" d="M418.37,21.08c-0.57,0-1.03-0.47-1.03-1.03c0-0.57,0.47-1.03,1.03-1.03c0.57,0,1.04,0.47,1.04,1.03
		C419.41,20.61,418.94,21.08,418.37,21.08 M417.59,22.27h1.55v6.92h-1.55V22.27z"/>
	<path class="st0" d="M425.37,29.18v-4.42c0-0.76-0.6-1.4-1.52-1.4c-0.81,0-1.72,0.96-1.72,0.96v4.86h-1.57v-6.9l1.33,0.79
		c0,0,0.91-0.98,2.41-0.98c1.77,0,2.64,1.29,2.64,2.59v4.49H425.37z"/>
	<path class="st0" d="M431.75,32.4c-0.24,0-2.09-0.03-2.09-0.03l0.03-1.26h1.55c1.5,0,2.35-0.81,2.35-1.91v-0.62
		c0,0-0.82,0.78-2.21,0.78c-1.6,0-3.43-0.98-3.43-3.55c0-2.56,1.86-3.71,3.35-3.71c1.42,0,2.27,0.86,2.27,0.86l1.59-0.79v6.87
		C435.15,30.9,433.92,32.4,431.75,32.4 M433.6,24.58c0,0-0.78-1.26-2.13-1.26c-1.74,0-1.88,1.83-1.88,2.45
		c0,0.62,0.33,2.42,1.83,2.42c1.29,0,2.18-1.01,2.18-1.01V24.58z"/>
	<polygon class="st0" points="342.74,34.43 342.74,29.91 343.63,29.02 346.19,31.58 346.19,32.44 	"/>
	<polygon class="st0" points="340.9,26.04 338,28.94 341.55,30.27 345.78,26.04 	"/>
	<polygon class="st0" points="342.33,22 338.59,22 339.79,25.45 345.78,25.45 	"/>
	<polygon class="st0" points="346.19,20.15 343.31,17.27 341.96,20.8 346.19,25.03 	"/>
	<polygon class="st0" points="354.91,29.49 350.65,29.49 347.2,26.04 353.18,26.04 	"/>
	<polygon class="st0" points="351.43,21.22 355.3,22.23 352.08,25.45 347.2,25.45 	"/>
	<polygon class="st0" points="346.78,19.05 350.23,17 350.23,21.58 346.78,25.03 	"/>
	<polygon class="st0" points="351.17,30.85 350.07,34.62 344.05,28.6 346.48,26.16 	"/>
	<g>
		<path class="st0" d="M437.5,22.74c0,0.41-0.33,0.73-0.75,0.73c-0.42,0-0.75-0.32-0.75-0.73c0-0.41,0.33-0.73,0.76-0.73
			C437.17,22.01,437.5,22.33,437.5,22.74z M436.19,22.74c0,0.32,0.25,0.58,0.57,0.58c0.32,0,0.56-0.26,0.56-0.58
			c0-0.32-0.24-0.59-0.57-0.59C436.43,22.16,436.19,22.42,436.19,22.74z M436.64,23.12h-0.17v-0.73c0.07-0.01,0.16-0.02,0.28-0.02
			c0.14,0,0.2,0.02,0.25,0.06c0.04,0.03,0.08,0.09,0.08,0.16c0,0.09-0.07,0.15-0.15,0.17v0.01c0.07,0.02,0.11,0.08,0.13,0.18
			c0.02,0.11,0.04,0.15,0.05,0.18h-0.18c-0.02-0.02-0.03-0.09-0.06-0.18c-0.01-0.07-0.06-0.11-0.15-0.11h-0.08V23.12z M436.64,22.71
			h0.08c0.09,0,0.17-0.03,0.17-0.11c0-0.07-0.05-0.11-0.16-0.11c-0.05,0-0.08,0.01-0.09,0.01V22.71z"/>
	</g>
</g>
</svg>
