<?xml version="1.0" encoding="utf-8"?>
<!-- Generator: Adobe Illustrator 25.2.1, SVG Export Plug-In . SVG Version: 6.00 Build 0)  -->
<svg version="1.1" id="Layer_1" xmlns="http://www.w3.org/2000/svg" xmlns:xlink="http://www.w3.org/1999/xlink" x="0px" y="0px"
	 viewBox="0 0 500 281" style="enable-background:new 0 0 500 281;" xml:space="preserve">
<style type="text/css">
	.st0{fill:#FFFFFF;}
</style>
<g>
	<path class="st0" d="M19.6,73.8h-2.64l0.16-2.32h2.64l0.79-11.08h-2.64l0.16-2.32h2.64l0.69-9.86h2.53l-0.69,9.86h3.9l0.69-9.86
		h2.48l-0.69,9.86h2.74l-0.16,2.32h-2.74l-0.79,11.08h2.8l-0.21,2.32h-2.74l-0.74,10.81H25.3l0.74-10.81h-3.9l-0.74,10.81h-2.53
		L19.6,73.8z M26.19,71.47l0.79-11.08h-3.9l-0.79,11.08H26.19z"/>
	<path class="st0" d="M40.65,51.8L36,54.65v-2.95l5.8-3.59h1.95v36.5h-3.11V51.8z"/>
	<path class="st0" d="M54.44,56.86h3.14l4.38,20.31h0.08V56.86h2.17v27.75H61.6l-4.91-22.89h-0.08v22.89h-2.17V56.86z"/>
	<path class="st0" d="M68.76,79.98v-18.5c0-3.22,1.73-5.03,4.67-5.03c2.94,0,4.67,1.81,4.67,5.03v18.5c0,3.22-1.73,5.03-4.67,5.03
		C70.49,85.01,68.76,83.2,68.76,79.98z M75.68,79.58v-17.7c0-2.33-0.64-3.26-2.25-3.26c-1.65,0-2.25,0.92-2.25,3.26v17.7
		c0,2.33,0.6,3.26,2.25,3.26C75.04,82.84,75.68,81.91,75.68,79.58z"/>
	<path class="st0" d="M82.64,56.86h3.14l4.38,20.31h0.08V56.86h2.17v27.75H89.8l-4.91-22.89h-0.08v22.89h-2.17V56.86z"/>
	<path class="st0" d="M96.67,80.06V75.2h2.33v4.42c0,2.29,0.64,3.22,2.25,3.22c1.65,0,2.29-0.92,2.29-3.22v-4.18
		c0-1.89-0.52-2.82-1.89-3.7l-2.13-1.37c-2.05-1.33-2.86-2.86-2.86-5.55v-3.58c0-3.06,1.65-4.79,4.5-4.79c2.86,0,4.5,1.73,4.5,4.79
		v3.58h-2.33v-3.18c0-2.17-0.6-3.02-2.13-3.02c-1.53,0-2.13,0.84-2.13,3.02v3.02c0,1.89,0.52,2.82,1.89,3.7l2.13,1.37
		c2.05,1.33,2.86,2.86,2.86,5.55v4.79c0,3.18-1.73,4.95-4.67,4.95C98.36,85.01,96.67,83.24,96.67,80.06z"/>
	<path class="st0" d="M110.07,80.14V56.86h2.41V79.7c0,2.25,0.56,3.14,2.17,3.14s2.17-0.88,2.17-3.14V56.86h2.33v23.29
		c0,3.1-1.69,4.87-4.54,4.87S110.07,83.24,110.07,80.14z"/>
	<path class="st0" d="M123.78,56.86h4.46c3.22,0,4.75,1.65,4.75,5.03v3.54c0,2.25-0.72,3.62-2.17,4.26v0.08
		c1.45,0.64,2.17,2.01,2.17,4.3v10.54h-2.41V74.23c0-2.57-0.72-3.34-3.02-3.34h-1.37v13.72h-2.41V56.86z M127.97,68.8
		c2.01,0,2.61-0.76,2.61-3.34v-3.18c0-2.57-0.6-3.34-2.61-3.34h-1.77v9.85H127.97z"/>
	<path class="st0" d="M137.34,80.67V61.44c0-3.18,1.73-4.99,4.63-4.99c2.94,0,4.59,1.81,4.59,4.99v3.06h-2.29v-2.61
		c0-2.33-0.64-3.26-2.25-3.26c-1.65,0-2.25,0.92-2.25,3.26v18.5c0,1.65,0.6,2.45,1.93,2.45c1.65,0,2.57-1.25,2.57-3.5v-7.96H142
		v-2.09h4.67v15.32h-2.05v-1.97h-0.12c-0.64,1.53-1.81,2.37-3.46,2.37C138.7,85.01,137.34,83.36,137.34,80.67z"/>
	<path class="st0" d="M151.09,56.86h2.41v27.75h-2.41V56.86z"/>
	<path class="st0" d="M158.05,80.22V61.24c0-3.06,1.61-4.79,4.5-4.79c2.94,0,4.54,1.73,4.54,4.79v4.55h-2.29v-4.14
		c0-2.17-0.64-3.02-2.17-3.02c-1.57,0-2.17,0.84-2.17,3.02v18.18c0,2.17,0.6,3.02,2.17,3.02c1.53,0,2.17-0.84,2.17-3.02v-5.59h2.29
		v5.99c0,3.06-1.61,4.79-4.54,4.79C159.66,85.01,158.05,83.28,158.05,80.22z"/>
	<path class="st0" d="M173.94,56.86h3.18l3.5,27.75h-2.45l-0.8-6.88h-3.78l-0.8,6.88h-2.33L173.94,56.86z M177.12,75.64l-1.61-14.96
		h-0.08l-1.61,14.96H177.12z"/>
	<path class="st0" d="M184.4,56.86h2.41v25.66h5.15v2.09h-7.56V56.86z"/>
	<path class="st0" d="M17.71,93.42h7.96v2.09h-5.55v10.1h4.83v2.09h-4.83v13.47h-2.41V93.42z"/>
	<path class="st0" d="M31.99,93.42h3.18l3.5,27.75h-2.45l-0.8-6.88h-3.78l-0.8,6.88h-2.33L31.99,93.42z M35.17,112.2l-1.61-14.96
		h-0.08l-1.61,14.96H35.17z"/>
	<path class="st0" d="M44.86,95.51h-3.38v-2.09h9.17v2.09h-3.38v25.66h-2.41V95.51z"/>
	<path class="st0" d="M61.03,93.42h4.46c3.22,0,4.75,1.65,4.75,5.03v3.54c0,2.25-0.72,3.62-2.17,4.26v0.08
		c1.45,0.64,2.17,2.01,2.17,4.3v10.54h-2.41V110.8c0-2.57-0.72-3.34-3.02-3.34h-1.37v13.72h-2.41V93.42z M65.21,105.37
		c2.01,0,2.61-0.76,2.61-3.34v-3.18c0-2.57-0.6-3.34-2.61-3.34h-1.77v9.85H65.21z"/>
	<path class="st0" d="M74.75,93.42h7.96v2.09h-5.55v9.69h4.83v2.09h-4.83v11.78h5.55v2.09h-7.96V93.42z"/>
	<path class="st0" d="M86.61,93.42h4.59c3.22,0,4.75,1.65,4.75,5.03v17.7c0,3.38-1.53,5.03-4.75,5.03h-4.59V93.42z M90.92,119.08
		c2.01,0,2.61-0.76,2.61-3.34V98.85c0-2.57-0.6-3.34-2.61-3.34h-1.89v23.57H90.92z"/>
	<path class="st0" d="M100.37,116.71V93.42h2.41v22.85c0,2.25,0.56,3.14,2.17,3.14s2.17-0.89,2.17-3.14V93.42h2.33v23.29
		c0,3.1-1.69,4.87-4.54,4.87S100.37,119.81,100.37,116.71z"/>
	<path class="st0" d="M113.92,116.79V97.8c0-3.06,1.61-4.79,4.5-4.79c2.94,0,4.54,1.73,4.54,4.79v4.54h-2.29v-4.14
		c0-2.17-0.64-3.02-2.17-3.02c-1.57,0-2.17,0.84-2.17,3.02v18.18c0,2.17,0.6,3.02,2.17,3.02c1.53,0,2.17-0.84,2.17-3.02v-5.59h2.29
		v5.99c0,3.06-1.61,4.79-4.54,4.79C115.53,121.58,113.92,119.85,113.92,116.79z"/>
	<path class="st0" d="M129.65,95.51h-3.38v-2.09h9.17v2.09h-3.38v25.66h-2.41V95.51z"/>
	<path class="st0" d="M139.18,93.42h2.41v27.75h-2.41V93.42z"/>
	<path class="st0" d="M146.14,116.55v-18.5c0-3.22,1.73-5.03,4.67-5.03c2.94,0,4.67,1.81,4.67,5.03v18.5c0,3.22-1.73,5.03-4.67,5.03
		C147.87,121.58,146.14,119.77,146.14,116.55z M153.06,116.15v-17.7c0-2.33-0.64-3.26-2.25-3.26c-1.65,0-2.25,0.92-2.25,3.26v17.7
		c0,2.33,0.6,3.26,2.25,3.26C152.41,119.4,153.06,118.48,153.06,116.15z"/>
	<path class="st0" d="M160.01,93.42h3.14l4.38,20.31h0.08V93.42h2.17v27.75h-2.61l-4.91-22.89h-0.08v22.89h-2.17V93.42z"/>
	<path class="st0" d="M20.13,132.08h-3.38v-2.09h9.17v2.09h-3.38v25.66h-2.41V132.08z"/>
	<path class="st0" d="M29.66,129.98h4.46c3.22,0,4.75,1.65,4.75,5.03v3.54c0,2.25-0.72,3.62-2.17,4.26v0.08
		c1.45,0.64,2.17,2.01,2.17,4.3v10.54h-2.41v-10.38c0-2.57-0.72-3.34-3.02-3.34h-1.37v13.72h-2.41V129.98z M33.84,141.93
		c2.01,0,2.61-0.76,2.61-3.34v-3.18c0-2.57-0.6-3.34-2.61-3.34h-1.77v9.85H33.84z"/>
	<path class="st0" d="M43.37,129.98h7.96v2.09h-5.55v9.69h4.83v2.09h-4.83v11.79h5.55v2.09h-7.96V129.98z"/>
	<path class="st0" d="M57.81,129.98h3.18l3.5,27.75h-2.45l-0.8-6.88h-3.78l-0.8,6.88h-2.33L57.81,129.98z M60.99,148.77l-1.61-14.96
		H59.3l-1.61,14.96H60.99z"/>
	<path class="st0" d="M70.68,132.08h-3.38v-2.09h9.17v2.09H73.1v25.66h-2.41V132.08z"/>
	<path class="st0" d="M80.22,129.98h3.82l3.1,20.47h0.08l3.1-20.47h3.98v27.75h-2.41v-24.82H91.8l-3.74,24.82h-1.89l-3.74-24.82
		h-0.08v24.82h-2.13V129.98z"/>
	<path class="st0" d="M99,129.98h7.96v2.09h-5.55v9.69h4.83v2.09h-4.83v11.79h5.55v2.09H99V129.98z"/>
	<path class="st0" d="M110.86,129.98H114l4.38,20.31h0.08v-20.31h2.17v27.75h-2.61l-4.91-22.89h-0.08v22.89h-2.17V129.98z"/>
	<path class="st0" d="M127.76,132.08h-3.38v-2.09h9.17v2.09h-3.38v25.66h-2.41V132.08z"/>
	<path class="st0" d="M136.48,154.44h2.69v3.3h-2.69V154.44z"/>
	<path class="st0" d="M140.46,132.01l-2.02,1.27l-0.54-0.89l2.11-1.13l-2.11-1.1l0.54-0.89l2.02,1.27l-0.12-2.37h1.06l-0.12,2.37
		l2.02-1.27l0.54,0.89l-2.11,1.13l2.11,1.1l-0.54,0.89l-2.02-1.27l0.12,2.37h-1.06L140.46,132.01z"/>
</g>
</svg>
