<?xml version="1.0" encoding="utf-8"?>
<!-- Generator: Adobe Illustrator 25.2.1, SVG Export Plug-In . SVG Version: 6.00 Build 0)  -->
<svg version="1.1" id="Layer_1" xmlns="http://www.w3.org/2000/svg" xmlns:xlink="http://www.w3.org/1999/xlink" x="0px" y="0px"
	 viewBox="0 0 500 281" style="enable-background:new 0 0 500 281;" xml:space="preserve">
<style type="text/css">
	.st0{fill:#EAF5FB;}
	.st1{fill:#002554;}
</style>
<rect x="17.18" y="171.69" class="st0" width="85.21" height="21.4"/>
<g>
	<path class="st1" d="M24.84,186.76v-7.22h1.75v5.7h2.79v1.52H24.84z"/>
	<path class="st1" d="M30.61,186.76v-7.22h4.85v1.48h-3.17v1.36h3v1.4h-3v1.5h3.35v1.49H30.61z"/>
	<path class="st1" d="M42.1,186.76l-0.56-1.42h-2.79l-0.53,1.42h-1.9l3.03-7.22h1.69l3,7.22H42.1z M40.16,181.47l-0.92,2.48h1.81
		L40.16,181.47z"/>
	<path class="st1" d="M48.91,186.76l-1.56-2.86h-0.59v2.86h-1.71v-7.22h2.75c1.39,0,2.76,0.53,2.76,2.18c0,0.97-0.57,1.66-1.5,1.95
		l1.89,3.09H48.91z M47.68,180.95h-0.93v1.68h0.83c0.56,0,1.26-0.14,1.26-0.88C48.84,181.09,48.2,180.95,47.68,180.95z"/>
	<path class="st1" d="M56.8,186.76l-2.91-4.72h-0.03l0.04,4.72h-1.69v-7.22h1.99l2.89,4.71h0.03l-0.04-4.71h1.69v7.22H56.8z"/>
	<path class="st1" d="M70.18,186.76l0.04-5.11h-0.03l-1.88,5.11h-1.22l-1.82-5.11h-0.03l0.04,5.11h-1.64v-7.22h2.48l1.64,4.63h0.04
		l1.57-4.63h2.52v7.22H70.18z"/>
	<path class="st1" d="M77.36,186.96c-2.25,0-3.92-1.55-3.92-3.83c0-2.31,1.67-3.77,3.92-3.77c2.26,0,3.93,1.46,3.93,3.77
		C81.3,185.41,79.63,186.96,77.36,186.96z M77.36,180.92c-1.22,0-2.06,0.94-2.06,2.2c0,1.3,0.85,2.24,2.06,2.24s2.07-0.94,2.07-2.24
		C79.43,181.86,78.59,180.92,77.36,180.92z"/>
	<path class="st1" d="M86.72,186.76l-1.56-2.86h-0.59v2.86h-1.71v-7.22h2.75c1.39,0,2.76,0.53,2.76,2.18c0,0.97-0.57,1.66-1.5,1.95
		l1.89,3.09H86.72z M85.49,180.95h-0.93v1.68h0.83c0.56,0,1.26-0.14,1.26-0.88C86.65,181.09,86.01,180.95,85.49,180.95z"/>
	<path class="st1" d="M90.03,186.76v-7.22h4.85v1.48h-3.17v1.36h3v1.4h-3v1.5h3.35v1.49H90.03z"/>
</g>
</svg>
