<?xml version="1.0" encoding="utf-8"?>
<!-- Generator: Adobe Illustrator 25.2.1, SVG Export Plug-In . SVG Version: 6.00 Build 0)  -->
<svg version="1.1" id="Layer_1" xmlns="http://www.w3.org/2000/svg" xmlns:xlink="http://www.w3.org/1999/xlink" x="0px" y="0px"
	 viewBox="0 0 500 281" style="enable-background:new 0 0 500 281;" xml:space="preserve">
<style type="text/css">
	.st0{fill:#FFFFFF;}
</style>
<g>
	<path class="st0" d="M17.03,206.96l0.2,0.55l-0.92,0.3l0.59,0.79l-0.46,0.35l-0.61-0.82l-0.61,0.82l-0.46-0.35l0.59-0.79l-0.92-0.3
		l0.2-0.55l0.92,0.3v-0.94h0.58v0.94L17.03,206.96z"/>
	<path class="st0" d="M22.38,210.65c-0.2,0.28-0.47,0.5-0.79,0.67c-0.32,0.17-0.71,0.26-1.17,0.26c-0.39,0-0.75-0.07-1.08-0.2
		c-0.33-0.13-0.62-0.32-0.85-0.56c-0.24-0.24-0.43-0.52-0.56-0.85c-0.14-0.33-0.2-0.7-0.2-1.09c0-0.4,0.07-0.77,0.21-1.1
		s0.33-0.61,0.57-0.85c0.24-0.23,0.53-0.42,0.87-0.55c0.33-0.13,0.7-0.2,1.09-0.2c0.17,0,0.35,0.02,0.53,0.05
		c0.18,0.03,0.35,0.08,0.51,0.15c0.16,0.07,0.31,0.15,0.45,0.25c0.14,0.1,0.25,0.21,0.35,0.34l-0.56,0.43
		c-0.13-0.17-0.3-0.32-0.53-0.43s-0.48-0.17-0.74-0.17c-0.3,0-0.57,0.05-0.81,0.16c-0.24,0.11-0.44,0.26-0.61,0.45
		s-0.3,0.41-0.39,0.66c-0.09,0.25-0.14,0.51-0.14,0.79c0,0.29,0.04,0.56,0.13,0.81s0.22,0.47,0.38,0.66
		c0.17,0.19,0.37,0.33,0.61,0.44c0.24,0.11,0.51,0.16,0.8,0.16c0.29,0,0.55-0.06,0.79-0.17c0.24-0.12,0.43-0.28,0.59-0.51
		L22.38,210.65z"/>
	<path class="st0" d="M26.32,209.73c0,0.27-0.05,0.51-0.14,0.73c-0.09,0.22-0.22,0.42-0.39,0.58c-0.17,0.16-0.36,0.29-0.59,0.38
		c-0.23,0.09-0.47,0.13-0.73,0.13c-0.26,0-0.5-0.04-0.73-0.13c-0.23-0.09-0.42-0.21-0.59-0.38c-0.16-0.16-0.29-0.35-0.39-0.58
		c-0.09-0.22-0.14-0.47-0.14-0.73s0.05-0.51,0.14-0.73s0.22-0.41,0.39-0.57c0.16-0.16,0.36-0.28,0.59-0.37
		c0.23-0.09,0.47-0.13,0.73-0.13c0.26,0,0.5,0.04,0.73,0.13c0.23,0.09,0.42,0.21,0.59,0.37c0.17,0.16,0.3,0.35,0.39,0.57
		S26.32,209.46,26.32,209.73z M25.61,209.73c0-0.16-0.03-0.32-0.08-0.47s-0.12-0.28-0.22-0.39c-0.1-0.11-0.22-0.2-0.36-0.27
		s-0.31-0.1-0.49-0.1s-0.35,0.03-0.49,0.1s-0.26,0.16-0.36,0.27c-0.1,0.11-0.17,0.24-0.22,0.39s-0.08,0.31-0.08,0.47
		c0,0.16,0.03,0.32,0.08,0.47s0.12,0.28,0.22,0.4c0.1,0.12,0.22,0.21,0.36,0.27s0.31,0.1,0.49,0.1s0.35-0.03,0.49-0.1
		s0.26-0.16,0.36-0.27c0.1-0.12,0.17-0.25,0.22-0.4S25.61,209.89,25.61,209.73z"/>
	<path class="st0" d="M30.6,209.73c0,0.27-0.05,0.51-0.14,0.73c-0.09,0.22-0.22,0.42-0.39,0.58c-0.17,0.16-0.36,0.29-0.59,0.38
		c-0.23,0.09-0.47,0.13-0.73,0.13c-0.26,0-0.5-0.04-0.73-0.13c-0.23-0.09-0.42-0.21-0.59-0.38c-0.16-0.16-0.29-0.35-0.39-0.58
		c-0.09-0.22-0.14-0.47-0.14-0.73s0.05-0.51,0.14-0.73s0.22-0.41,0.39-0.57c0.16-0.16,0.36-0.28,0.59-0.37
		c0.23-0.09,0.47-0.13,0.73-0.13c0.26,0,0.5,0.04,0.73,0.13c0.23,0.09,0.42,0.21,0.59,0.37c0.17,0.16,0.3,0.35,0.39,0.57
		S30.6,209.46,30.6,209.73z M29.89,209.73c0-0.16-0.03-0.32-0.08-0.47s-0.12-0.28-0.22-0.39c-0.1-0.11-0.22-0.2-0.36-0.27
		s-0.31-0.1-0.49-0.1s-0.35,0.03-0.49,0.1s-0.26,0.16-0.36,0.27c-0.1,0.11-0.17,0.24-0.22,0.39s-0.08,0.31-0.08,0.47
		c0,0.16,0.03,0.32,0.08,0.47s0.12,0.28,0.22,0.4c0.1,0.12,0.22,0.21,0.36,0.27s0.31,0.1,0.49,0.1s0.35-0.03,0.49-0.1
		s0.26-0.16,0.36-0.27c0.1-0.12,0.17-0.25,0.22-0.4S29.89,209.89,29.89,209.73z"/>
	<path class="st0" d="M32.09,211.45h-0.68v-5.48h0.68V211.45z"/>
	<path class="st0" d="M35.72,207.27c-0.1-0.14-0.24-0.25-0.41-0.34c-0.17-0.09-0.37-0.13-0.59-0.13c-0.12,0-0.23,0.02-0.35,0.05
		c-0.12,0.03-0.23,0.08-0.32,0.15s-0.18,0.16-0.24,0.26c-0.06,0.1-0.09,0.23-0.09,0.37c0,0.14,0.03,0.26,0.08,0.35
		c0.06,0.09,0.13,0.17,0.22,0.24s0.21,0.12,0.33,0.17c0.13,0.05,0.26,0.09,0.41,0.14c0.17,0.05,0.35,0.11,0.53,0.18
		c0.18,0.07,0.34,0.16,0.49,0.27c0.15,0.11,0.26,0.25,0.35,0.42s0.14,0.38,0.14,0.63c0,0.27-0.05,0.5-0.15,0.69
		c-0.1,0.2-0.23,0.36-0.4,0.49c-0.16,0.13-0.35,0.22-0.57,0.29s-0.44,0.09-0.66,0.09c-0.32,0-0.64-0.06-0.94-0.19
		c-0.3-0.13-0.55-0.31-0.75-0.56l0.56-0.47c0.12,0.18,0.28,0.32,0.49,0.43c0.2,0.11,0.42,0.17,0.66,0.17c0.12,0,0.24-0.02,0.36-0.05
		c0.12-0.03,0.23-0.09,0.33-0.16c0.1-0.07,0.18-0.16,0.24-0.27c0.06-0.11,0.09-0.24,0.09-0.39s-0.03-0.28-0.1-0.39
		c-0.07-0.1-0.15-0.19-0.26-0.26c-0.11-0.07-0.24-0.13-0.39-0.18s-0.3-0.1-0.47-0.16c-0.16-0.05-0.33-0.11-0.49-0.18
		c-0.16-0.07-0.3-0.16-0.43-0.27c-0.13-0.11-0.23-0.24-0.3-0.4c-0.08-0.16-0.12-0.36-0.12-0.59c0-0.26,0.05-0.48,0.16-0.66
		s0.24-0.34,0.41-0.46c0.17-0.12,0.35-0.21,0.57-0.26c0.21-0.06,0.42-0.08,0.63-0.08c0.3,0,0.58,0.05,0.84,0.16s0.47,0.25,0.63,0.43
		L35.72,207.27z"/>
	<path class="st0" d="M39.52,208.89c-0.07-0.11-0.18-0.2-0.33-0.28c-0.14-0.08-0.3-0.11-0.46-0.11c-0.18,0-0.34,0.03-0.48,0.1
		c-0.14,0.07-0.25,0.16-0.35,0.27c-0.1,0.11-0.17,0.25-0.22,0.39s-0.08,0.31-0.08,0.47c0,0.17,0.03,0.32,0.08,0.47
		c0.05,0.15,0.12,0.28,0.22,0.39s0.21,0.2,0.35,0.27c0.14,0.07,0.3,0.1,0.48,0.1c0.17,0,0.33-0.03,0.47-0.1
		c0.14-0.07,0.26-0.16,0.35-0.28l0.46,0.41c-0.15,0.17-0.33,0.3-0.54,0.4c-0.22,0.09-0.46,0.14-0.74,0.14
		c-0.27,0-0.51-0.04-0.74-0.13s-0.42-0.21-0.58-0.37c-0.16-0.16-0.29-0.35-0.39-0.57c-0.09-0.22-0.14-0.47-0.14-0.75
		c0-0.27,0.05-0.52,0.14-0.74c0.09-0.22,0.22-0.41,0.38-0.57c0.16-0.16,0.36-0.28,0.58-0.37s0.47-0.13,0.73-0.13
		c0.24,0,0.48,0.05,0.72,0.15c0.24,0.1,0.43,0.24,0.57,0.42L39.52,208.89z"/>
	<path class="st0" d="M42.96,211.45c-0.01-0.09-0.02-0.18-0.02-0.29c0-0.11-0.01-0.2-0.01-0.27h-0.01
		c-0.09,0.18-0.23,0.34-0.44,0.47c-0.21,0.13-0.43,0.19-0.68,0.19c-0.22,0-0.41-0.04-0.58-0.11c-0.16-0.07-0.29-0.17-0.4-0.3
		c-0.1-0.13-0.18-0.28-0.23-0.45c-0.05-0.17-0.08-0.35-0.08-0.54v-2.13h0.68v1.9c0,0.14,0.01,0.27,0.03,0.4
		c0.02,0.13,0.06,0.24,0.12,0.34c0.06,0.1,0.14,0.17,0.24,0.23c0.1,0.06,0.23,0.09,0.39,0.09c0.27,0,0.5-0.1,0.67-0.31
		c0.17-0.21,0.25-0.48,0.25-0.82v-1.83h0.68v2.7c0,0.09,0,0.21,0.01,0.36c0,0.14,0.01,0.27,0.02,0.38H42.96z"/>
	<path class="st0" d="M45.31,211.45h-0.68v-5.48h0.68V211.45z"/>
	<path class="st0" d="M47.04,213.19h-0.68v-5.17h0.67v0.54h0.02c0.11-0.18,0.27-0.33,0.49-0.45s0.46-0.18,0.75-0.18
		c0.26,0,0.49,0.05,0.7,0.14s0.39,0.22,0.54,0.38c0.15,0.16,0.27,0.36,0.35,0.58c0.08,0.22,0.12,0.46,0.12,0.71
		s-0.04,0.49-0.12,0.71c-0.08,0.22-0.2,0.42-0.35,0.58s-0.33,0.29-0.54,0.39c-0.21,0.09-0.45,0.14-0.72,0.14
		c-0.25,0-0.48-0.05-0.69-0.16c-0.22-0.11-0.39-0.26-0.51-0.45h-0.02V213.19z M49.3,209.73c0-0.16-0.02-0.31-0.07-0.46
		s-0.12-0.28-0.22-0.4s-0.22-0.21-0.36-0.28s-0.31-0.1-0.5-0.1c-0.17,0-0.33,0.03-0.48,0.1c-0.14,0.07-0.26,0.16-0.37,0.28
		s-0.18,0.25-0.24,0.4c-0.06,0.15-0.08,0.31-0.08,0.47c0,0.17,0.03,0.32,0.08,0.47c0.06,0.15,0.13,0.28,0.24,0.39
		s0.22,0.2,0.37,0.27c0.14,0.07,0.3,0.1,0.48,0.1c0.19,0,0.35-0.04,0.5-0.1c0.14-0.07,0.26-0.16,0.36-0.28s0.17-0.25,0.22-0.4
		S49.3,209.89,49.3,209.73z"/>
	<path class="st0" d="M52.49,208.57h-0.91v1.78c0,0.21,0.04,0.36,0.12,0.44c0.08,0.09,0.2,0.13,0.37,0.13c0.06,0,0.13-0.01,0.2-0.02
		c0.07-0.01,0.14-0.03,0.2-0.06l0.02,0.56c-0.08,0.03-0.17,0.05-0.27,0.07c-0.1,0.02-0.2,0.03-0.31,0.03
		c-0.32,0-0.57-0.09-0.74-0.27s-0.26-0.45-0.26-0.8v-1.86h-0.66v-0.56h0.66v-0.99h0.67v0.99h0.91V208.57z"/>
	<path class="st0" d="M53.84,206.78c0,0.13-0.04,0.23-0.13,0.31c-0.09,0.08-0.2,0.12-0.32,0.12s-0.23-0.04-0.32-0.13
		c-0.09-0.08-0.13-0.19-0.13-0.31c0-0.13,0.04-0.23,0.13-0.32c0.09-0.08,0.19-0.13,0.32-0.13s0.23,0.04,0.32,0.13
		C53.8,206.55,53.84,206.65,53.84,206.78z M53.73,211.45h-0.68v-3.43h0.68V211.45z"/>
	<path class="st0" d="M55.39,208.02c0.01,0.09,0.02,0.18,0.02,0.29c0,0.11,0.01,0.2,0.01,0.27h0.02c0.04-0.09,0.1-0.18,0.18-0.26
		c0.07-0.08,0.16-0.15,0.26-0.21s0.2-0.11,0.32-0.14c0.12-0.03,0.24-0.05,0.36-0.05c0.22,0,0.41,0.04,0.57,0.11
		c0.16,0.08,0.29,0.18,0.4,0.3c0.11,0.13,0.18,0.27,0.24,0.44s0.08,0.35,0.08,0.54v2.13h-0.68v-1.91c0-0.14-0.01-0.27-0.03-0.4
		c-0.02-0.12-0.06-0.24-0.12-0.33s-0.14-0.17-0.24-0.23c-0.1-0.06-0.23-0.09-0.39-0.09c-0.27,0-0.49,0.1-0.66,0.31
		s-0.26,0.48-0.26,0.82v1.83h-0.68v-2.7c0-0.09,0-0.21-0.01-0.36s-0.01-0.27-0.02-0.38H55.39z"/>
	<path class="st0" d="M59.12,212.04c0.15,0.17,0.34,0.3,0.56,0.41c0.22,0.1,0.46,0.15,0.69,0.15c0.23,0,0.42-0.03,0.57-0.1
		s0.28-0.15,0.37-0.27c0.09-0.11,0.16-0.25,0.2-0.4c0.04-0.16,0.06-0.32,0.06-0.5v-0.44h-0.01c-0.13,0.19-0.3,0.34-0.51,0.44
		c-0.22,0.1-0.45,0.15-0.7,0.15c-0.26,0-0.5-0.05-0.71-0.14s-0.4-0.22-0.55-0.38c-0.15-0.16-0.27-0.35-0.35-0.56
		s-0.12-0.45-0.12-0.69s0.04-0.48,0.12-0.7c0.08-0.22,0.2-0.41,0.35-0.57c0.15-0.16,0.33-0.29,0.54-0.38
		c0.21-0.09,0.45-0.14,0.71-0.14c0.25,0,0.48,0.05,0.71,0.16c0.22,0.11,0.4,0.27,0.53,0.49h0.01v-0.55h0.66v3.26
		c0,0.25-0.03,0.49-0.09,0.72s-0.17,0.43-0.32,0.61c-0.15,0.18-0.35,0.32-0.59,0.42c-0.24,0.11-0.54,0.16-0.9,0.16
		c-0.3,0-0.6-0.05-0.9-0.16s-0.56-0.26-0.78-0.46L59.12,212.04z M59.32,209.7c0,0.16,0.03,0.31,0.08,0.46
		c0.05,0.14,0.13,0.27,0.23,0.38c0.1,0.11,0.22,0.2,0.36,0.27c0.14,0.07,0.3,0.1,0.48,0.1c0.17,0,0.33-0.03,0.48-0.09
		c0.15-0.06,0.27-0.15,0.37-0.26c0.1-0.11,0.18-0.24,0.24-0.38c0.06-0.15,0.08-0.3,0.08-0.47c0-0.16-0.03-0.32-0.08-0.46
		c-0.06-0.14-0.14-0.27-0.24-0.38c-0.1-0.11-0.23-0.2-0.37-0.26s-0.3-0.1-0.48-0.1c-0.18,0-0.34,0.03-0.48,0.1s-0.26,0.15-0.36,0.26
		c-0.1,0.11-0.17,0.24-0.23,0.38S59.32,209.53,59.32,209.7z"/>
	<path class="st0" d="M63.22,207.88c0-0.23,0.04-0.44,0.13-0.64s0.21-0.37,0.35-0.52c0.15-0.15,0.32-0.26,0.53-0.35
		c0.2-0.09,0.41-0.13,0.64-0.13s0.44,0.04,0.64,0.13c0.2,0.09,0.38,0.2,0.53,0.35c0.15,0.15,0.27,0.32,0.35,0.52
		s0.13,0.41,0.13,0.64c0,0.23-0.04,0.44-0.13,0.64s-0.21,0.37-0.35,0.52c-0.15,0.15-0.33,0.26-0.53,0.35
		c-0.2,0.08-0.41,0.13-0.64,0.13s-0.44-0.04-0.64-0.13c-0.2-0.08-0.38-0.2-0.53-0.35c-0.15-0.15-0.27-0.32-0.35-0.52
		S63.22,208.11,63.22,207.88z M63.48,207.88c0,0.19,0.04,0.37,0.11,0.54c0.07,0.17,0.17,0.32,0.3,0.45c0.13,0.13,0.27,0.23,0.44,0.3
		s0.35,0.11,0.54,0.11s0.37-0.04,0.54-0.11s0.32-0.17,0.44-0.3c0.13-0.13,0.23-0.28,0.3-0.45s0.11-0.35,0.11-0.54
		c0-0.19-0.04-0.38-0.11-0.54s-0.17-0.32-0.3-0.44c-0.13-0.13-0.27-0.22-0.44-0.3c-0.17-0.07-0.35-0.11-0.54-0.11
		s-0.37,0.04-0.54,0.11c-0.17,0.07-0.32,0.17-0.44,0.3c-0.13,0.12-0.22,0.27-0.3,0.44C63.51,207.5,63.48,207.69,63.48,207.88z
		 M65.27,208.78l-0.4-0.72h-0.26v0.72h-0.44v-1.85h0.8c0.09,0,0.17,0.01,0.25,0.03c0.08,0.02,0.16,0.05,0.22,0.09
		c0.07,0.04,0.12,0.1,0.16,0.18c0.04,0.07,0.06,0.17,0.06,0.28c0,0.13-0.04,0.23-0.11,0.31c-0.07,0.08-0.16,0.14-0.26,0.18
		l0.49,0.78H65.27z M64.95,207.75c0.07,0,0.13-0.02,0.19-0.07c0.06-0.04,0.08-0.1,0.08-0.17c0-0.08-0.03-0.13-0.09-0.17
		c-0.06-0.03-0.12-0.05-0.17-0.05h-0.34v0.46H64.95z"/>
	<path class="st0" d="M69.95,206.78c0,0.13-0.04,0.23-0.13,0.31c-0.09,0.08-0.2,0.12-0.32,0.12s-0.23-0.04-0.32-0.13
		c-0.09-0.08-0.13-0.19-0.13-0.31c0-0.13,0.04-0.23,0.13-0.32c0.09-0.08,0.19-0.13,0.32-0.13s0.23,0.04,0.32,0.13
		C69.9,206.55,69.95,206.65,69.95,206.78z M69.84,211.45h-0.68v-3.43h0.68V211.45z"/>
	<path class="st0" d="M72.74,208.89c-0.08-0.12-0.19-0.23-0.33-0.31c-0.14-0.08-0.3-0.12-0.47-0.12c-0.08,0-0.15,0.01-0.23,0.03
		c-0.08,0.02-0.15,0.04-0.21,0.08s-0.11,0.08-0.15,0.14s-0.05,0.12-0.05,0.21c0,0.15,0.06,0.25,0.2,0.32
		c0.13,0.07,0.33,0.13,0.59,0.19c0.16,0.04,0.32,0.08,0.46,0.14c0.14,0.05,0.26,0.12,0.37,0.2c0.1,0.08,0.18,0.18,0.24,0.29
		c0.06,0.11,0.09,0.24,0.09,0.39c0,0.2-0.04,0.38-0.12,0.51c-0.08,0.14-0.18,0.25-0.31,0.34c-0.13,0.09-0.27,0.15-0.44,0.19
		c-0.16,0.04-0.33,0.06-0.51,0.06c-0.26,0-0.52-0.05-0.76-0.15c-0.25-0.1-0.46-0.26-0.62-0.46l0.49-0.41
		c0.09,0.13,0.22,0.25,0.38,0.34c0.16,0.09,0.34,0.14,0.53,0.14c0.09,0,0.17-0.01,0.25-0.03c0.08-0.02,0.15-0.04,0.22-0.08
		c0.07-0.04,0.12-0.09,0.16-0.15c0.04-0.06,0.06-0.14,0.06-0.24c0-0.16-0.08-0.28-0.23-0.36c-0.15-0.08-0.38-0.15-0.67-0.22
		c-0.12-0.03-0.23-0.06-0.35-0.1s-0.23-0.1-0.32-0.17c-0.1-0.07-0.18-0.16-0.24-0.27c-0.06-0.11-0.09-0.24-0.09-0.4
		c0-0.18,0.04-0.34,0.11-0.47c0.07-0.13,0.17-0.24,0.29-0.33c0.12-0.08,0.26-0.15,0.41-0.19c0.15-0.04,0.31-0.06,0.48-0.06
		c0.25,0,0.48,0.05,0.71,0.15s0.41,0.24,0.53,0.42L72.74,208.89z"/>
	<path class="st0" d="M77.3,208.57h-0.91v1.78c0,0.21,0.04,0.36,0.12,0.44c0.08,0.09,0.2,0.13,0.37,0.13c0.06,0,0.13-0.01,0.2-0.02
		c0.07-0.01,0.14-0.03,0.2-0.06l0.02,0.56c-0.08,0.03-0.17,0.05-0.27,0.07c-0.1,0.02-0.2,0.03-0.31,0.03
		c-0.32,0-0.57-0.09-0.74-0.27s-0.26-0.45-0.26-0.8v-1.86h-0.66v-0.56h0.66v-0.99h0.67v0.99h0.91V208.57z"/>
	<path class="st0" d="M78.57,208.54c0.08-0.17,0.22-0.31,0.42-0.43s0.42-0.18,0.67-0.18c0.22,0,0.41,0.04,0.57,0.11
		c0.16,0.08,0.29,0.18,0.4,0.3c0.11,0.13,0.19,0.27,0.24,0.44c0.05,0.17,0.08,0.35,0.08,0.54v2.13h-0.68v-1.9
		c0-0.14-0.01-0.27-0.03-0.4c-0.02-0.13-0.06-0.24-0.12-0.33c-0.06-0.1-0.14-0.17-0.24-0.23c-0.1-0.06-0.23-0.09-0.39-0.09
		c-0.27,0-0.49,0.1-0.67,0.31c-0.17,0.21-0.26,0.48-0.26,0.82v1.82h-0.68v-5.48h0.68v2.57H78.57z"/>
	<path class="st0" d="M85.16,209.71c0,0.04,0,0.08,0,0.12c0,0.04,0,0.08-0.01,0.12h-2.73c0,0.14,0.04,0.28,0.1,0.41
		c0.06,0.13,0.14,0.24,0.24,0.33c0.1,0.09,0.22,0.17,0.35,0.22s0.27,0.08,0.42,0.08c0.23,0,0.43-0.05,0.6-0.15
		c0.17-0.1,0.3-0.22,0.4-0.37l0.48,0.38c-0.18,0.24-0.4,0.42-0.65,0.54c-0.25,0.12-0.53,0.17-0.83,0.17c-0.26,0-0.5-0.04-0.72-0.13
		s-0.41-0.21-0.57-0.37c-0.16-0.16-0.29-0.35-0.38-0.57c-0.09-0.22-0.14-0.47-0.14-0.74c0-0.27,0.04-0.51,0.13-0.74
		s0.21-0.42,0.37-0.58c0.16-0.16,0.35-0.28,0.57-0.37c0.22-0.09,0.45-0.13,0.7-0.13c0.25,0,0.48,0.04,0.69,0.12
		c0.21,0.08,0.38,0.2,0.52,0.36c0.14,0.15,0.25,0.34,0.33,0.56C85.12,209.18,85.16,209.43,85.16,209.71z M84.46,209.43
		c0-0.14-0.03-0.26-0.07-0.38s-0.1-0.22-0.18-0.31s-0.18-0.16-0.3-0.21c-0.12-0.05-0.26-0.08-0.42-0.08c-0.15,0-0.28,0.03-0.41,0.08
		c-0.13,0.05-0.24,0.12-0.33,0.21s-0.17,0.19-0.23,0.31s-0.1,0.25-0.1,0.38H84.46z"/>
	<path class="st0" d="M89.3,208.57h-0.91v1.78c0,0.21,0.04,0.36,0.12,0.44c0.08,0.09,0.2,0.13,0.37,0.13c0.06,0,0.13-0.01,0.2-0.02
		c0.07-0.01,0.14-0.03,0.2-0.06l0.02,0.56c-0.08,0.03-0.17,0.05-0.27,0.07c-0.1,0.02-0.2,0.03-0.31,0.03
		c-0.32,0-0.57-0.09-0.74-0.27s-0.26-0.45-0.26-0.8v-1.86h-0.66v-0.56h0.66v-0.99h0.67v0.99h0.91V208.57z"/>
	<path class="st0" d="M89.85,208.4c0-0.14-0.01-0.27-0.02-0.38h0.65c0.01,0.09,0.02,0.19,0.02,0.3s0.01,0.21,0.01,0.28h0.02
		c0.1-0.2,0.24-0.37,0.42-0.49c0.19-0.12,0.39-0.19,0.63-0.19c0.11,0,0.2,0.01,0.27,0.03l-0.03,0.63c-0.1-0.02-0.2-0.04-0.31-0.04
		c-0.16,0-0.31,0.03-0.43,0.09s-0.22,0.14-0.3,0.24c-0.08,0.1-0.14,0.22-0.18,0.35s-0.06,0.27-0.06,0.42v1.8h-0.68v-2.7
		C89.86,208.66,89.86,208.54,89.85,208.4z"/>
	<path class="st0" d="M95.42,209.71c0,0.04,0,0.08,0,0.12c0,0.04,0,0.08-0.01,0.12h-2.73c0,0.14,0.04,0.28,0.1,0.41
		c0.06,0.13,0.14,0.24,0.24,0.33c0.1,0.09,0.22,0.17,0.35,0.22s0.27,0.08,0.42,0.08c0.23,0,0.43-0.05,0.6-0.15
		c0.17-0.1,0.3-0.22,0.4-0.37l0.48,0.38c-0.18,0.24-0.4,0.42-0.65,0.54c-0.25,0.12-0.53,0.17-0.83,0.17c-0.26,0-0.5-0.04-0.72-0.13
		s-0.41-0.21-0.57-0.37c-0.16-0.16-0.29-0.35-0.38-0.57c-0.09-0.22-0.14-0.47-0.14-0.74c0-0.27,0.04-0.51,0.13-0.74
		s0.21-0.42,0.37-0.58c0.16-0.16,0.35-0.28,0.57-0.37c0.22-0.09,0.45-0.13,0.7-0.13c0.25,0,0.48,0.04,0.69,0.12
		c0.21,0.08,0.38,0.2,0.52,0.36c0.14,0.15,0.25,0.34,0.33,0.56C95.38,209.18,95.42,209.43,95.42,209.71z M94.72,209.43
		c0-0.14-0.03-0.26-0.07-0.38s-0.1-0.22-0.18-0.31s-0.18-0.16-0.3-0.21c-0.12-0.05-0.26-0.08-0.42-0.08c-0.15,0-0.28,0.03-0.41,0.08
		c-0.13,0.05-0.24,0.12-0.33,0.21s-0.17,0.19-0.23,0.31s-0.1,0.25-0.1,0.38H94.72z"/>
	<path class="st0" d="M98.31,209.23c0-0.26-0.08-0.45-0.23-0.57c-0.15-0.12-0.36-0.18-0.62-0.18c-0.19,0-0.38,0.04-0.55,0.11
		c-0.17,0.08-0.31,0.17-0.43,0.29l-0.36-0.43c0.17-0.16,0.38-0.29,0.62-0.38s0.51-0.14,0.79-0.14c0.25,0,0.46,0.04,0.64,0.11
		s0.33,0.17,0.45,0.29c0.12,0.12,0.2,0.26,0.26,0.43c0.06,0.16,0.09,0.34,0.09,0.53v1.5c0,0.12,0,0.24,0.01,0.37
		s0.02,0.23,0.04,0.32H98.4c-0.04-0.16-0.06-0.33-0.06-0.49h-0.02c-0.13,0.18-0.28,0.33-0.47,0.43s-0.42,0.15-0.68,0.15
		c-0.14,0-0.28-0.02-0.42-0.05s-0.28-0.09-0.4-0.18c-0.12-0.08-0.22-0.19-0.3-0.33c-0.08-0.14-0.12-0.3-0.12-0.5
		c0-0.26,0.07-0.47,0.21-0.62s0.32-0.27,0.55-0.35s0.48-0.13,0.77-0.16c0.29-0.02,0.57-0.04,0.86-0.04V209.23z M98.14,209.81
		c-0.17,0-0.34,0.01-0.53,0.02s-0.35,0.04-0.49,0.09c-0.15,0.04-0.27,0.11-0.37,0.2s-0.15,0.2-0.15,0.35c0,0.1,0.02,0.19,0.06,0.25
		c0.04,0.07,0.1,0.12,0.16,0.17c0.07,0.04,0.14,0.07,0.22,0.09c0.08,0.02,0.17,0.03,0.25,0.03c0.32,0,0.56-0.1,0.74-0.29
		c0.17-0.19,0.26-0.43,0.26-0.72v-0.18H98.14z"/>
	<path class="st0" d="M101.56,208.57h-0.91v1.78c0,0.21,0.04,0.36,0.12,0.44c0.08,0.09,0.2,0.13,0.37,0.13
		c0.06,0,0.13-0.01,0.2-0.02c0.07-0.01,0.14-0.03,0.2-0.06l0.02,0.56c-0.08,0.03-0.17,0.05-0.27,0.07c-0.1,0.02-0.2,0.03-0.31,0.03
		c-0.32,0-0.57-0.09-0.74-0.27s-0.26-0.45-0.26-0.8v-1.86h-0.66v-0.56h0.66v-0.99h0.67v0.99h0.91V208.57z"/>
	<path class="st0" d="M103.21,208.11c0.19-0.13,0.42-0.19,0.68-0.19c0.23,0,0.44,0.05,0.63,0.16c0.19,0.11,0.33,0.28,0.44,0.53
		c0.12-0.22,0.28-0.39,0.49-0.51c0.21-0.12,0.44-0.18,0.68-0.18c0.22,0,0.41,0.04,0.57,0.11c0.16,0.08,0.29,0.18,0.4,0.3
		c0.11,0.13,0.18,0.27,0.24,0.44s0.08,0.35,0.08,0.54v2.13h-0.68v-1.91c0-0.14-0.01-0.27-0.04-0.4c-0.02-0.12-0.07-0.24-0.12-0.33
		c-0.06-0.1-0.14-0.17-0.23-0.23c-0.1-0.06-0.22-0.09-0.37-0.09c-0.15,0-0.29,0.03-0.4,0.1c-0.11,0.06-0.2,0.15-0.27,0.25
		c-0.07,0.1-0.12,0.22-0.15,0.35c-0.03,0.13-0.05,0.26-0.05,0.4v1.86h-0.68v-2.04c0-0.13-0.01-0.26-0.04-0.37
		c-0.02-0.11-0.07-0.21-0.12-0.29c-0.06-0.08-0.13-0.14-0.22-0.19s-0.21-0.07-0.34-0.07c-0.25,0-0.46,0.1-0.63,0.31
		s-0.25,0.48-0.25,0.82v1.83h-0.68v-2.7c0-0.09,0-0.21-0.01-0.36s-0.01-0.27-0.02-0.38h0.65c0.01,0.09,0.02,0.18,0.02,0.29
		c0,0.11,0.01,0.2,0.01,0.27h0.02C102.88,208.4,103.01,208.24,103.21,208.11z"/>
	<path class="st0" d="M111.61,209.71c0,0.04,0,0.08,0,0.12c0,0.04,0,0.08-0.01,0.12h-2.73c0,0.14,0.04,0.28,0.1,0.41
		c0.06,0.13,0.14,0.24,0.24,0.33c0.1,0.09,0.22,0.17,0.35,0.22s0.27,0.08,0.42,0.08c0.23,0,0.43-0.05,0.6-0.15
		c0.17-0.1,0.3-0.22,0.4-0.37l0.48,0.38c-0.18,0.24-0.4,0.42-0.65,0.54c-0.25,0.12-0.53,0.17-0.83,0.17c-0.26,0-0.5-0.04-0.72-0.13
		s-0.41-0.21-0.57-0.37c-0.16-0.16-0.29-0.35-0.38-0.57c-0.09-0.22-0.14-0.47-0.14-0.74c0-0.27,0.04-0.51,0.13-0.74
		s0.21-0.42,0.37-0.58c0.16-0.16,0.35-0.28,0.57-0.37c0.22-0.09,0.45-0.13,0.7-0.13c0.25,0,0.48,0.04,0.69,0.12
		c0.21,0.08,0.38,0.2,0.52,0.36c0.14,0.15,0.25,0.34,0.33,0.56C111.58,209.18,111.61,209.43,111.61,209.71z M110.92,209.43
		c0-0.14-0.03-0.26-0.07-0.38s-0.1-0.22-0.18-0.31s-0.18-0.16-0.3-0.21c-0.12-0.05-0.26-0.08-0.42-0.08c-0.15,0-0.28,0.03-0.41,0.08
		c-0.13,0.05-0.24,0.12-0.33,0.21s-0.17,0.19-0.23,0.31s-0.1,0.25-0.1,0.38H110.92z"/>
	<path class="st0" d="M113.03,208.02c0.01,0.09,0.02,0.18,0.02,0.29c0,0.11,0.01,0.2,0.01,0.27h0.02c0.04-0.09,0.1-0.18,0.18-0.26
		c0.07-0.08,0.16-0.15,0.26-0.21s0.2-0.11,0.32-0.14c0.12-0.03,0.24-0.05,0.36-0.05c0.22,0,0.41,0.04,0.57,0.11
		c0.16,0.08,0.29,0.18,0.4,0.3c0.11,0.13,0.18,0.27,0.24,0.44s0.08,0.35,0.08,0.54v2.13h-0.68v-1.91c0-0.14-0.01-0.27-0.03-0.4
		c-0.02-0.12-0.06-0.24-0.12-0.33s-0.14-0.17-0.24-0.23c-0.1-0.06-0.23-0.09-0.39-0.09c-0.27,0-0.49,0.1-0.66,0.31
		s-0.26,0.48-0.26,0.82v1.83h-0.68v-2.7c0-0.09,0-0.21-0.01-0.36s-0.01-0.27-0.02-0.38H113.03z"/>
	<path class="st0" d="M118.17,208.57h-0.91v1.78c0,0.21,0.04,0.36,0.12,0.44c0.08,0.09,0.2,0.13,0.37,0.13
		c0.06,0,0.13-0.01,0.2-0.02c0.07-0.01,0.14-0.03,0.2-0.06l0.02,0.56c-0.08,0.03-0.17,0.05-0.27,0.07c-0.1,0.02-0.2,0.03-0.31,0.03
		c-0.32,0-0.57-0.09-0.74-0.27s-0.26-0.45-0.26-0.8v-1.86h-0.66v-0.56h0.66v-0.99h0.67v0.99h0.91V208.57z"/>
	<path class="st0" d="M123.13,210.91c-0.13,0.21-0.31,0.37-0.53,0.48c-0.22,0.11-0.46,0.16-0.71,0.16c-0.27,0-0.5-0.05-0.72-0.14
		c-0.21-0.09-0.39-0.22-0.54-0.39c-0.15-0.16-0.27-0.36-0.35-0.58c-0.08-0.22-0.12-0.46-0.12-0.71s0.04-0.49,0.12-0.71
		c0.08-0.22,0.2-0.41,0.35-0.58c0.15-0.17,0.33-0.29,0.55-0.38c0.21-0.09,0.45-0.14,0.7-0.14c0.28,0,0.52,0.06,0.73,0.18
		s0.37,0.26,0.49,0.43h0.01v-2.56h0.68v5.48h-0.66v-0.54H123.13z M120.87,209.73c0,0.16,0.02,0.31,0.07,0.46s0.12,0.28,0.22,0.4
		c0.1,0.12,0.21,0.21,0.35,0.28s0.3,0.1,0.49,0.1c0.17,0,0.33-0.03,0.47-0.1c0.14-0.07,0.26-0.16,0.37-0.27s0.18-0.24,0.24-0.39
		c0.06-0.15,0.08-0.31,0.08-0.47s-0.03-0.32-0.08-0.47c-0.06-0.15-0.13-0.28-0.24-0.4c-0.1-0.12-0.22-0.21-0.37-0.27
		c-0.14-0.07-0.3-0.1-0.47-0.1c-0.19,0-0.35,0.03-0.49,0.1s-0.26,0.16-0.35,0.27c-0.1,0.12-0.17,0.25-0.22,0.4
		S120.87,209.57,120.87,209.73z"/>
	<path class="st0" d="M128.32,209.73c0,0.27-0.05,0.51-0.14,0.73c-0.09,0.22-0.22,0.42-0.39,0.58c-0.17,0.16-0.36,0.29-0.59,0.38
		c-0.23,0.09-0.47,0.13-0.73,0.13c-0.26,0-0.5-0.04-0.73-0.13c-0.23-0.09-0.42-0.21-0.59-0.38c-0.16-0.16-0.29-0.35-0.39-0.58
		c-0.09-0.22-0.14-0.47-0.14-0.73s0.05-0.51,0.14-0.73s0.22-0.41,0.39-0.57c0.16-0.16,0.36-0.28,0.59-0.37
		c0.23-0.09,0.47-0.13,0.73-0.13c0.26,0,0.5,0.04,0.73,0.13c0.23,0.09,0.42,0.21,0.59,0.37c0.17,0.16,0.3,0.35,0.39,0.57
		S128.32,209.46,128.32,209.73z M127.61,209.73c0-0.16-0.03-0.32-0.08-0.47s-0.12-0.28-0.22-0.39c-0.1-0.11-0.22-0.2-0.36-0.27
		s-0.31-0.1-0.49-0.1s-0.35,0.03-0.49,0.1s-0.26,0.16-0.36,0.27c-0.1,0.11-0.17,0.24-0.22,0.39s-0.08,0.31-0.08,0.47
		c0,0.16,0.03,0.32,0.08,0.47s0.12,0.28,0.22,0.4c0.1,0.12,0.22,0.21,0.36,0.27s0.31,0.1,0.49,0.1s0.35-0.03,0.49-0.1
		s0.26-0.16,0.36-0.27c0.1-0.12,0.17-0.25,0.22-0.4S127.61,209.89,127.61,209.73z"/>
	<path class="st0" d="M131.53,208.89c-0.07-0.11-0.18-0.2-0.33-0.28c-0.14-0.08-0.3-0.11-0.46-0.11c-0.18,0-0.34,0.03-0.48,0.1
		c-0.14,0.07-0.25,0.16-0.35,0.27c-0.1,0.11-0.17,0.25-0.22,0.39s-0.08,0.31-0.08,0.47c0,0.17,0.03,0.32,0.08,0.47
		c0.05,0.15,0.12,0.28,0.22,0.39s0.21,0.2,0.35,0.27c0.14,0.07,0.3,0.1,0.48,0.1c0.17,0,0.33-0.03,0.47-0.1
		c0.14-0.07,0.26-0.16,0.35-0.28l0.46,0.41c-0.15,0.17-0.33,0.3-0.54,0.4c-0.22,0.09-0.46,0.14-0.74,0.14
		c-0.27,0-0.51-0.04-0.74-0.13s-0.42-0.21-0.58-0.37c-0.16-0.16-0.29-0.35-0.39-0.57c-0.09-0.22-0.14-0.47-0.14-0.75
		c0-0.27,0.05-0.52,0.14-0.74c0.09-0.22,0.22-0.41,0.38-0.57c0.16-0.16,0.36-0.28,0.58-0.37s0.47-0.13,0.73-0.13
		c0.24,0,0.48,0.05,0.72,0.15c0.24,0.1,0.43,0.24,0.57,0.42L131.53,208.89z"/>
	<path class="st0" d="M134.24,208.57h-0.91v1.78c0,0.21,0.04,0.36,0.12,0.44c0.08,0.09,0.2,0.13,0.37,0.13
		c0.06,0,0.13-0.01,0.2-0.02c0.07-0.01,0.14-0.03,0.2-0.06l0.02,0.56c-0.08,0.03-0.17,0.05-0.27,0.07c-0.1,0.02-0.2,0.03-0.31,0.03
		c-0.32,0-0.57-0.09-0.74-0.27s-0.26-0.45-0.26-0.8v-1.86h-0.66v-0.56h0.66v-0.99h0.67v0.99h0.91V208.57z"/>
	<path class="st0" d="M138.27,209.73c0,0.27-0.05,0.51-0.14,0.73c-0.09,0.22-0.22,0.42-0.39,0.58c-0.17,0.16-0.36,0.29-0.59,0.38
		c-0.23,0.09-0.47,0.13-0.73,0.13c-0.26,0-0.5-0.04-0.73-0.13c-0.23-0.09-0.42-0.21-0.59-0.38c-0.16-0.16-0.29-0.35-0.39-0.58
		c-0.09-0.22-0.14-0.47-0.14-0.73s0.05-0.51,0.14-0.73s0.22-0.41,0.39-0.57c0.16-0.16,0.36-0.28,0.59-0.37
		c0.23-0.09,0.47-0.13,0.73-0.13c0.26,0,0.5,0.04,0.73,0.13c0.23,0.09,0.42,0.21,0.59,0.37c0.17,0.16,0.3,0.35,0.39,0.57
		S138.27,209.46,138.27,209.73z M137.56,209.73c0-0.16-0.03-0.32-0.08-0.47s-0.12-0.28-0.22-0.39c-0.1-0.11-0.22-0.2-0.36-0.27
		s-0.31-0.1-0.49-0.1s-0.35,0.03-0.49,0.1s-0.26,0.16-0.36,0.27c-0.1,0.11-0.17,0.24-0.22,0.39s-0.08,0.31-0.08,0.47
		c0,0.16,0.03,0.32,0.08,0.47s0.12,0.28,0.22,0.4c0.1,0.12,0.22,0.21,0.36,0.27s0.31,0.1,0.49,0.1s0.35-0.03,0.49-0.1
		s0.26-0.16,0.36-0.27c0.1-0.12,0.17-0.25,0.22-0.4S137.56,209.89,137.56,209.73z"/>
	<path class="st0" d="M139.06,208.4c0-0.14-0.01-0.27-0.02-0.38h0.65c0.01,0.09,0.02,0.19,0.02,0.3s0.01,0.21,0.01,0.28h0.02
		c0.1-0.2,0.24-0.37,0.42-0.49c0.19-0.12,0.39-0.19,0.63-0.19c0.11,0,0.2,0.01,0.27,0.03l-0.03,0.63c-0.1-0.02-0.2-0.04-0.31-0.04
		c-0.16,0-0.31,0.03-0.43,0.09s-0.22,0.14-0.3,0.24c-0.08,0.1-0.14,0.22-0.18,0.35s-0.06,0.27-0.06,0.42v1.8h-0.68v-2.7
		C139.07,208.66,139.07,208.54,139.06,208.4z"/>
	<path class="st0" d="M143.4,208.89c-0.08-0.12-0.19-0.23-0.33-0.31c-0.14-0.08-0.3-0.12-0.47-0.12c-0.08,0-0.15,0.01-0.23,0.03
		c-0.08,0.02-0.15,0.04-0.21,0.08s-0.11,0.08-0.15,0.14s-0.05,0.12-0.05,0.21c0,0.15,0.06,0.25,0.2,0.32
		c0.13,0.07,0.33,0.13,0.59,0.19c0.16,0.04,0.32,0.08,0.46,0.14c0.14,0.05,0.26,0.12,0.37,0.2c0.1,0.08,0.18,0.18,0.24,0.29
		c0.06,0.11,0.09,0.24,0.09,0.39c0,0.2-0.04,0.38-0.12,0.51c-0.08,0.14-0.18,0.25-0.31,0.34c-0.13,0.09-0.27,0.15-0.44,0.19
		c-0.16,0.04-0.33,0.06-0.51,0.06c-0.26,0-0.52-0.05-0.76-0.15c-0.25-0.1-0.46-0.26-0.62-0.46l0.49-0.41
		c0.09,0.13,0.22,0.25,0.38,0.34c0.16,0.09,0.34,0.14,0.53,0.14c0.09,0,0.17-0.01,0.25-0.03c0.08-0.02,0.15-0.04,0.22-0.08
		c0.07-0.04,0.12-0.09,0.16-0.15c0.04-0.06,0.06-0.14,0.06-0.24c0-0.16-0.08-0.28-0.23-0.36c-0.15-0.08-0.38-0.15-0.67-0.22
		c-0.12-0.03-0.23-0.06-0.35-0.1s-0.23-0.1-0.32-0.17c-0.1-0.07-0.18-0.16-0.24-0.27c-0.06-0.11-0.09-0.24-0.09-0.4
		c0-0.18,0.04-0.34,0.11-0.47c0.07-0.13,0.17-0.24,0.29-0.33c0.12-0.08,0.26-0.15,0.41-0.19c0.15-0.04,0.31-0.06,0.48-0.06
		c0.25,0,0.48,0.05,0.71,0.15s0.41,0.24,0.53,0.42L143.4,208.89z"/>
	<path class="st0" d="M148.71,211.45c-0.01-0.09-0.02-0.18-0.02-0.29c0-0.11-0.01-0.2-0.01-0.27h-0.01
		c-0.09,0.18-0.23,0.34-0.44,0.47c-0.21,0.13-0.43,0.19-0.68,0.19c-0.22,0-0.41-0.04-0.58-0.11c-0.16-0.07-0.29-0.17-0.4-0.3
		c-0.1-0.13-0.18-0.28-0.23-0.45c-0.05-0.17-0.08-0.35-0.08-0.54v-2.13h0.68v1.9c0,0.14,0.01,0.27,0.03,0.4
		c0.02,0.13,0.06,0.24,0.12,0.34c0.06,0.1,0.14,0.17,0.24,0.23c0.1,0.06,0.23,0.09,0.39,0.09c0.27,0,0.5-0.1,0.67-0.31
		c0.17-0.21,0.25-0.48,0.25-0.82v-1.83h0.68v2.7c0,0.09,0,0.21,0.01,0.36c0,0.14,0.01,0.27,0.02,0.38H148.71z"/>
	<path class="st0" d="M152.21,208.89c-0.08-0.12-0.19-0.23-0.33-0.31c-0.14-0.08-0.3-0.12-0.47-0.12c-0.08,0-0.15,0.01-0.23,0.03
		c-0.08,0.02-0.15,0.04-0.21,0.08s-0.11,0.08-0.15,0.14s-0.05,0.12-0.05,0.21c0,0.15,0.06,0.25,0.2,0.32
		c0.13,0.07,0.33,0.13,0.59,0.19c0.16,0.04,0.32,0.08,0.46,0.14c0.14,0.05,0.26,0.12,0.37,0.2c0.1,0.08,0.18,0.18,0.24,0.29
		c0.06,0.11,0.09,0.24,0.09,0.39c0,0.2-0.04,0.38-0.12,0.51c-0.08,0.14-0.18,0.25-0.31,0.34c-0.13,0.09-0.27,0.15-0.44,0.19
		c-0.16,0.04-0.33,0.06-0.51,0.06c-0.26,0-0.52-0.05-0.76-0.15c-0.25-0.1-0.46-0.26-0.62-0.46l0.49-0.41
		c0.09,0.13,0.22,0.25,0.38,0.34c0.16,0.09,0.34,0.14,0.53,0.14c0.09,0,0.17-0.01,0.25-0.03c0.08-0.02,0.15-0.04,0.22-0.08
		c0.07-0.04,0.12-0.09,0.16-0.15c0.04-0.06,0.06-0.14,0.06-0.24c0-0.16-0.08-0.28-0.23-0.36c-0.15-0.08-0.38-0.15-0.67-0.22
		c-0.12-0.03-0.23-0.06-0.35-0.1s-0.23-0.1-0.32-0.17c-0.1-0.07-0.18-0.16-0.24-0.27c-0.06-0.11-0.09-0.24-0.09-0.4
		c0-0.18,0.04-0.34,0.11-0.47c0.07-0.13,0.17-0.24,0.29-0.33c0.12-0.08,0.26-0.15,0.41-0.19c0.15-0.04,0.31-0.06,0.48-0.06
		c0.25,0,0.48,0.05,0.71,0.15s0.41,0.24,0.53,0.42L152.21,208.89z"/>
	<path class="st0" d="M156.64,209.71c0,0.04,0,0.08,0,0.12c0,0.04,0,0.08-0.01,0.12h-2.73c0,0.14,0.04,0.28,0.1,0.41
		c0.06,0.13,0.14,0.24,0.24,0.33c0.1,0.09,0.22,0.17,0.35,0.22s0.27,0.08,0.42,0.08c0.23,0,0.43-0.05,0.6-0.15
		c0.17-0.1,0.3-0.22,0.4-0.37l0.48,0.38c-0.18,0.24-0.4,0.42-0.65,0.54c-0.25,0.12-0.53,0.17-0.83,0.17c-0.26,0-0.5-0.04-0.72-0.13
		s-0.41-0.21-0.57-0.37c-0.16-0.16-0.29-0.35-0.38-0.57c-0.09-0.22-0.14-0.47-0.14-0.74c0-0.27,0.04-0.51,0.13-0.74
		s0.21-0.42,0.37-0.58c0.16-0.16,0.35-0.28,0.57-0.37c0.22-0.09,0.45-0.13,0.7-0.13c0.25,0,0.48,0.04,0.69,0.12
		c0.21,0.08,0.38,0.2,0.52,0.36c0.14,0.15,0.25,0.34,0.33,0.56C156.6,209.18,156.64,209.43,156.64,209.71z M155.95,209.43
		c0-0.14-0.03-0.26-0.07-0.38s-0.1-0.22-0.18-0.31s-0.18-0.16-0.3-0.21c-0.12-0.05-0.26-0.08-0.42-0.08c-0.15,0-0.28,0.03-0.41,0.08
		c-0.13,0.05-0.24,0.12-0.33,0.21s-0.17,0.19-0.23,0.31s-0.1,0.25-0.1,0.38H155.95z"/>
	<path class="st0" d="M160.19,208.11c0.19-0.13,0.42-0.19,0.68-0.19c0.23,0,0.44,0.05,0.63,0.16c0.19,0.11,0.33,0.28,0.44,0.53
		c0.12-0.22,0.28-0.39,0.49-0.51c0.21-0.12,0.44-0.18,0.68-0.18c0.22,0,0.41,0.04,0.57,0.11c0.16,0.08,0.29,0.18,0.4,0.3
		c0.11,0.13,0.18,0.27,0.24,0.44s0.08,0.35,0.08,0.54v2.13h-0.68v-1.91c0-0.14-0.01-0.27-0.04-0.4c-0.02-0.12-0.07-0.24-0.12-0.33
		c-0.06-0.1-0.14-0.17-0.23-0.23c-0.1-0.06-0.22-0.09-0.37-0.09c-0.15,0-0.29,0.03-0.4,0.1c-0.11,0.06-0.2,0.15-0.27,0.25
		c-0.07,0.1-0.12,0.22-0.15,0.35c-0.03,0.13-0.05,0.26-0.05,0.4v1.86h-0.68v-2.04c0-0.13-0.01-0.26-0.04-0.37
		c-0.02-0.11-0.07-0.21-0.12-0.29c-0.06-0.08-0.13-0.14-0.22-0.19s-0.21-0.07-0.34-0.07c-0.25,0-0.46,0.1-0.63,0.31
		s-0.25,0.48-0.25,0.82v1.83h-0.68v-2.7c0-0.09,0-0.21-0.01-0.36s-0.01-0.27-0.02-0.38h0.65c0.01,0.09,0.02,0.18,0.02,0.29
		c0,0.11,0.01,0.2,0.01,0.27h0.02C159.86,208.4,160,208.24,160.19,208.11z"/>
	<path class="st0" d="M168.87,209.73c0,0.27-0.05,0.51-0.14,0.73c-0.09,0.22-0.22,0.42-0.39,0.58c-0.17,0.16-0.36,0.29-0.59,0.38
		c-0.23,0.09-0.47,0.13-0.73,0.13c-0.26,0-0.5-0.04-0.73-0.13c-0.23-0.09-0.42-0.21-0.59-0.38c-0.16-0.16-0.29-0.35-0.39-0.58
		c-0.09-0.22-0.14-0.47-0.14-0.73s0.05-0.51,0.14-0.73s0.22-0.41,0.39-0.57c0.16-0.16,0.36-0.28,0.59-0.37
		c0.23-0.09,0.47-0.13,0.73-0.13c0.26,0,0.5,0.04,0.73,0.13c0.23,0.09,0.42,0.21,0.59,0.37c0.17,0.16,0.3,0.35,0.39,0.57
		S168.87,209.46,168.87,209.73z M168.16,209.73c0-0.16-0.03-0.32-0.08-0.47s-0.12-0.28-0.22-0.39c-0.1-0.11-0.22-0.2-0.36-0.27
		s-0.31-0.1-0.49-0.1s-0.35,0.03-0.49,0.1s-0.26,0.16-0.36,0.27c-0.1,0.11-0.17,0.24-0.22,0.39s-0.08,0.31-0.08,0.47
		c0,0.16,0.03,0.32,0.08,0.47s0.12,0.28,0.22,0.4c0.1,0.12,0.22,0.21,0.36,0.27s0.31,0.1,0.49,0.1s0.35-0.03,0.49-0.1
		s0.26-0.16,0.36-0.27c0.1-0.12,0.17-0.25,0.22-0.4S168.16,209.89,168.16,209.73z"/>
	<path class="st0" d="M171.52,208.89c-0.08-0.12-0.19-0.23-0.33-0.31c-0.14-0.08-0.3-0.12-0.47-0.12c-0.08,0-0.15,0.01-0.23,0.03
		c-0.08,0.02-0.15,0.04-0.21,0.08s-0.11,0.08-0.15,0.14s-0.05,0.12-0.05,0.21c0,0.15,0.06,0.25,0.2,0.32
		c0.13,0.07,0.33,0.13,0.59,0.19c0.16,0.04,0.32,0.08,0.46,0.14c0.14,0.05,0.26,0.12,0.37,0.2c0.1,0.08,0.18,0.18,0.24,0.29
		c0.06,0.11,0.09,0.24,0.09,0.39c0,0.2-0.04,0.38-0.12,0.51c-0.08,0.14-0.18,0.25-0.31,0.34c-0.13,0.09-0.27,0.15-0.44,0.19
		c-0.16,0.04-0.33,0.06-0.51,0.06c-0.26,0-0.52-0.05-0.76-0.15c-0.25-0.1-0.46-0.26-0.62-0.46l0.49-0.41
		c0.09,0.13,0.22,0.25,0.38,0.34c0.16,0.09,0.34,0.14,0.53,0.14c0.09,0,0.17-0.01,0.25-0.03c0.08-0.02,0.15-0.04,0.22-0.08
		c0.07-0.04,0.12-0.09,0.16-0.15c0.04-0.06,0.06-0.14,0.06-0.24c0-0.16-0.08-0.28-0.23-0.36c-0.15-0.08-0.38-0.15-0.67-0.22
		c-0.12-0.03-0.23-0.06-0.35-0.1s-0.23-0.1-0.32-0.17c-0.1-0.07-0.18-0.16-0.24-0.27c-0.06-0.11-0.09-0.24-0.09-0.4
		c0-0.18,0.04-0.34,0.11-0.47c0.07-0.13,0.17-0.24,0.29-0.33c0.12-0.08,0.26-0.15,0.41-0.19c0.15-0.04,0.31-0.06,0.48-0.06
		c0.25,0,0.48,0.05,0.71,0.15s0.41,0.24,0.53,0.42L171.52,208.89z"/>
	<path class="st0" d="M174.42,208.57h-0.91v1.78c0,0.21,0.04,0.36,0.12,0.44c0.08,0.09,0.2,0.13,0.37,0.13
		c0.06,0,0.13-0.01,0.2-0.02c0.07-0.01,0.14-0.03,0.2-0.06l0.02,0.56c-0.08,0.03-0.17,0.05-0.27,0.07c-0.1,0.02-0.2,0.03-0.31,0.03
		c-0.32,0-0.57-0.09-0.74-0.27s-0.26-0.45-0.26-0.8v-1.86h-0.66v-0.56h0.66v-0.99h0.67v0.99h0.91V208.57z"/>
	<path class="st0" d="M178.26,208.57h-0.8v2.88h-0.68v-2.88h-0.68v-0.56h0.68v-0.72c0-0.2,0.02-0.39,0.07-0.56
		c0.05-0.17,0.12-0.32,0.22-0.45c0.1-0.13,0.24-0.22,0.4-0.3c0.16-0.07,0.36-0.11,0.59-0.11c0.16,0,0.31,0.02,0.43,0.05l-0.08,0.59
		c-0.05-0.01-0.11-0.03-0.16-0.04c-0.05-0.01-0.11-0.01-0.18-0.01c-0.13,0-0.24,0.02-0.32,0.07s-0.14,0.11-0.18,0.18
		s-0.07,0.17-0.09,0.26c-0.01,0.1-0.02,0.2-0.02,0.31v0.72h0.8V208.57z"/>
	<path class="st0" d="M182.22,209.73c0,0.27-0.05,0.51-0.14,0.73c-0.09,0.22-0.22,0.42-0.39,0.58c-0.17,0.16-0.36,0.29-0.59,0.38
		c-0.23,0.09-0.47,0.13-0.73,0.13c-0.26,0-0.5-0.04-0.73-0.13c-0.23-0.09-0.42-0.21-0.59-0.38c-0.16-0.16-0.29-0.35-0.39-0.58
		c-0.09-0.22-0.14-0.47-0.14-0.73s0.05-0.51,0.14-0.73s0.22-0.41,0.39-0.57c0.16-0.16,0.36-0.28,0.59-0.37
		c0.23-0.09,0.47-0.13,0.73-0.13c0.26,0,0.5,0.04,0.73,0.13c0.23,0.09,0.42,0.21,0.59,0.37c0.17,0.16,0.3,0.35,0.39,0.57
		S182.22,209.46,182.22,209.73z M181.51,209.73c0-0.16-0.03-0.32-0.08-0.47s-0.12-0.28-0.22-0.39c-0.1-0.11-0.22-0.2-0.36-0.27
		s-0.31-0.1-0.49-0.1s-0.35,0.03-0.49,0.1s-0.26,0.16-0.36,0.27c-0.1,0.11-0.17,0.24-0.22,0.39s-0.08,0.31-0.08,0.47
		c0,0.16,0.03,0.32,0.08,0.47s0.12,0.28,0.22,0.4c0.1,0.12,0.22,0.21,0.36,0.27s0.31,0.1,0.49,0.1s0.35-0.03,0.49-0.1
		s0.26-0.16,0.36-0.27c0.1-0.12,0.17-0.25,0.22-0.4S181.51,209.89,181.51,209.73z"/>
	<path class="st0" d="M183.01,208.4c0-0.14-0.01-0.27-0.02-0.38h0.65c0.01,0.09,0.02,0.19,0.02,0.3s0.01,0.21,0.01,0.28h0.02
		c0.1-0.2,0.24-0.37,0.42-0.49c0.19-0.12,0.39-0.19,0.63-0.19c0.11,0,0.2,0.01,0.27,0.03l-0.03,0.63c-0.1-0.02-0.2-0.04-0.31-0.04
		c-0.16,0-0.31,0.03-0.43,0.09s-0.22,0.14-0.3,0.24c-0.08,0.1-0.14,0.22-0.18,0.35s-0.06,0.27-0.06,0.42v1.8h-0.68v-2.7
		C183.02,208.66,183.02,208.54,183.01,208.4z"/>
	<path class="st0" d="M187.78,208.02c0.01,0.09,0.02,0.18,0.02,0.29c0,0.11,0.01,0.2,0.01,0.27h0.02c0.04-0.09,0.1-0.18,0.18-0.26
		c0.07-0.08,0.16-0.15,0.26-0.21s0.2-0.11,0.32-0.14c0.12-0.03,0.24-0.05,0.36-0.05c0.22,0,0.41,0.04,0.57,0.11
		c0.16,0.08,0.29,0.18,0.4,0.3c0.11,0.13,0.18,0.27,0.24,0.44s0.08,0.35,0.08,0.54v2.13h-0.68v-1.91c0-0.14-0.01-0.27-0.03-0.4
		c-0.02-0.12-0.06-0.24-0.12-0.33s-0.14-0.17-0.24-0.23c-0.1-0.06-0.23-0.09-0.39-0.09c-0.27,0-0.49,0.1-0.66,0.31
		s-0.26,0.48-0.26,0.82v1.83h-0.68v-2.7c0-0.09,0-0.21-0.01-0.36s-0.01-0.27-0.02-0.38H187.78z"/>
	<path class="st0" d="M194.71,209.73c0,0.27-0.05,0.51-0.14,0.73c-0.09,0.22-0.22,0.42-0.39,0.58c-0.17,0.16-0.36,0.29-0.59,0.38
		c-0.23,0.09-0.47,0.13-0.73,0.13c-0.26,0-0.5-0.04-0.73-0.13c-0.23-0.09-0.42-0.21-0.59-0.38c-0.16-0.16-0.29-0.35-0.39-0.58
		c-0.09-0.22-0.14-0.47-0.14-0.73s0.05-0.51,0.14-0.73s0.22-0.41,0.39-0.57c0.16-0.16,0.36-0.28,0.59-0.37
		c0.23-0.09,0.47-0.13,0.73-0.13c0.26,0,0.5,0.04,0.73,0.13c0.23,0.09,0.42,0.21,0.59,0.37c0.17,0.16,0.3,0.35,0.39,0.57
		S194.71,209.46,194.71,209.73z M194,209.73c0-0.16-0.03-0.32-0.08-0.47s-0.12-0.28-0.22-0.39c-0.1-0.11-0.22-0.2-0.36-0.27
		s-0.31-0.1-0.49-0.1s-0.35,0.03-0.49,0.1s-0.26,0.16-0.36,0.27c-0.1,0.11-0.17,0.24-0.22,0.39s-0.08,0.31-0.08,0.47
		c0,0.16,0.03,0.32,0.08,0.47s0.12,0.28,0.22,0.4c0.1,0.12,0.22,0.21,0.36,0.27s0.31,0.1,0.49,0.1s0.35-0.03,0.49-0.1
		s0.26-0.16,0.36-0.27c0.1-0.12,0.17-0.25,0.22-0.4S194,209.89,194,209.73z"/>
	<path class="st0" d="M196.13,208.02c0.01,0.09,0.02,0.18,0.02,0.29c0,0.11,0.01,0.2,0.01,0.27h0.02c0.04-0.09,0.1-0.18,0.18-0.26
		c0.07-0.08,0.16-0.15,0.26-0.21s0.2-0.11,0.32-0.14c0.12-0.03,0.24-0.05,0.36-0.05c0.22,0,0.41,0.04,0.57,0.11
		c0.16,0.08,0.29,0.18,0.4,0.3c0.11,0.13,0.18,0.27,0.24,0.44s0.08,0.35,0.08,0.54v2.13h-0.68v-1.91c0-0.14-0.01-0.27-0.03-0.4
		c-0.02-0.12-0.06-0.24-0.12-0.33s-0.14-0.17-0.24-0.23c-0.1-0.06-0.23-0.09-0.39-0.09c-0.27,0-0.49,0.1-0.66,0.31
		s-0.26,0.48-0.26,0.82v1.83h-0.68v-2.7c0-0.09,0-0.21-0.01-0.36s-0.01-0.27-0.02-0.38H196.13z"/>
	<path class="st0" d="M201.44,208.89c-0.08-0.12-0.19-0.23-0.33-0.31c-0.14-0.08-0.3-0.12-0.47-0.12c-0.08,0-0.15,0.01-0.23,0.03
		c-0.08,0.02-0.15,0.04-0.21,0.08s-0.11,0.08-0.15,0.14s-0.05,0.12-0.05,0.21c0,0.15,0.06,0.25,0.2,0.32
		c0.13,0.07,0.33,0.13,0.59,0.19c0.16,0.04,0.32,0.08,0.46,0.14c0.14,0.05,0.26,0.12,0.37,0.2c0.1,0.08,0.18,0.18,0.24,0.29
		c0.06,0.11,0.09,0.24,0.09,0.39c0,0.2-0.04,0.38-0.12,0.51c-0.08,0.14-0.18,0.25-0.31,0.34c-0.13,0.09-0.27,0.15-0.44,0.19
		c-0.16,0.04-0.33,0.06-0.51,0.06c-0.26,0-0.52-0.05-0.76-0.15c-0.25-0.1-0.46-0.26-0.62-0.46l0.49-0.41
		c0.09,0.13,0.22,0.25,0.38,0.34c0.16,0.09,0.34,0.14,0.53,0.14c0.09,0,0.17-0.01,0.25-0.03c0.08-0.02,0.15-0.04,0.22-0.08
		c0.07-0.04,0.12-0.09,0.16-0.15c0.04-0.06,0.06-0.14,0.06-0.24c0-0.16-0.08-0.28-0.23-0.36c-0.15-0.08-0.38-0.15-0.67-0.22
		c-0.12-0.03-0.23-0.06-0.35-0.1s-0.23-0.1-0.32-0.17c-0.1-0.07-0.18-0.16-0.24-0.27c-0.06-0.11-0.09-0.24-0.09-0.4
		c0-0.18,0.04-0.34,0.11-0.47c0.07-0.13,0.17-0.24,0.29-0.33c0.12-0.08,0.26-0.15,0.41-0.19c0.15-0.04,0.31-0.06,0.48-0.06
		c0.25,0,0.48,0.05,0.71,0.15s0.41,0.24,0.53,0.42L201.44,208.89z"/>
	<path class="st0" d="M205.08,211.45c-0.01-0.09-0.02-0.18-0.02-0.29c0-0.11-0.01-0.2-0.01-0.27h-0.01
		c-0.09,0.18-0.23,0.34-0.44,0.47c-0.21,0.13-0.43,0.19-0.68,0.19c-0.22,0-0.41-0.04-0.58-0.11c-0.16-0.07-0.29-0.17-0.4-0.3
		c-0.1-0.13-0.18-0.28-0.23-0.45c-0.05-0.17-0.08-0.35-0.08-0.54v-2.13h0.68v1.9c0,0.14,0.01,0.27,0.03,0.4
		c0.02,0.13,0.06,0.24,0.12,0.34c0.06,0.1,0.14,0.17,0.24,0.23c0.1,0.06,0.23,0.09,0.39,0.09c0.27,0,0.5-0.1,0.67-0.31
		c0.17-0.21,0.25-0.48,0.25-0.82v-1.83h0.68v2.7c0,0.09,0,0.21,0.01,0.36c0,0.14,0.01,0.27,0.02,0.38H205.08z"/>
	<path class="st0" d="M206.72,208.4c0-0.14-0.01-0.27-0.02-0.38h0.65c0.01,0.09,0.02,0.19,0.02,0.3s0.01,0.21,0.01,0.28h0.02
		c0.1-0.2,0.24-0.37,0.42-0.49c0.19-0.12,0.39-0.19,0.63-0.19c0.11,0,0.2,0.01,0.27,0.03l-0.03,0.63c-0.1-0.02-0.2-0.04-0.31-0.04
		c-0.16,0-0.31,0.03-0.43,0.09s-0.22,0.14-0.3,0.24c-0.08,0.1-0.14,0.22-0.18,0.35s-0.06,0.27-0.06,0.42v1.8h-0.68v-2.7
		C206.73,208.66,206.73,208.54,206.72,208.4z"/>
	<path class="st0" d="M209.34,212.04c0.15,0.17,0.34,0.3,0.56,0.41c0.22,0.1,0.46,0.15,0.69,0.15c0.23,0,0.42-0.03,0.57-0.1
		s0.28-0.15,0.37-0.27c0.09-0.11,0.16-0.25,0.2-0.4c0.04-0.16,0.06-0.32,0.06-0.5v-0.44h-0.01c-0.13,0.19-0.3,0.34-0.51,0.44
		c-0.22,0.1-0.45,0.15-0.7,0.15c-0.26,0-0.5-0.05-0.71-0.14s-0.4-0.22-0.55-0.38c-0.15-0.16-0.27-0.35-0.35-0.56
		s-0.12-0.45-0.12-0.69s0.04-0.48,0.12-0.7c0.08-0.22,0.2-0.41,0.35-0.57c0.15-0.16,0.33-0.29,0.54-0.38
		c0.21-0.09,0.45-0.14,0.71-0.14c0.25,0,0.48,0.05,0.71,0.16c0.22,0.11,0.4,0.27,0.53,0.49h0.01v-0.55h0.66v3.26
		c0,0.25-0.03,0.49-0.09,0.72s-0.17,0.43-0.32,0.61c-0.15,0.18-0.35,0.32-0.59,0.42c-0.24,0.11-0.54,0.16-0.9,0.16
		c-0.3,0-0.6-0.05-0.9-0.16s-0.56-0.26-0.78-0.46L209.34,212.04z M209.55,209.7c0,0.16,0.03,0.31,0.08,0.46
		c0.05,0.14,0.13,0.27,0.23,0.38c0.1,0.11,0.22,0.2,0.36,0.27c0.14,0.07,0.3,0.1,0.48,0.1c0.17,0,0.33-0.03,0.48-0.09
		c0.15-0.06,0.27-0.15,0.37-0.26c0.1-0.11,0.18-0.24,0.24-0.38c0.06-0.15,0.08-0.3,0.08-0.47c0-0.16-0.03-0.32-0.08-0.46
		c-0.06-0.14-0.14-0.27-0.24-0.38c-0.1-0.11-0.23-0.2-0.37-0.26s-0.3-0.1-0.48-0.1c-0.18,0-0.34,0.03-0.48,0.1s-0.26,0.15-0.36,0.26
		c-0.1,0.11-0.17,0.24-0.23,0.38S209.55,209.53,209.55,209.7z"/>
	<path class="st0" d="M214.31,206.78c0,0.13-0.04,0.23-0.13,0.31c-0.09,0.08-0.2,0.12-0.32,0.12s-0.23-0.04-0.32-0.13
		c-0.09-0.08-0.13-0.19-0.13-0.31c0-0.13,0.04-0.23,0.13-0.32c0.09-0.08,0.19-0.13,0.32-0.13s0.23,0.04,0.32,0.13
		C214.26,206.55,214.31,206.65,214.31,206.78z M214.2,211.45h-0.68v-3.43h0.68V211.45z"/>
	<path class="st0" d="M217.65,208.89c-0.07-0.11-0.18-0.2-0.33-0.28c-0.14-0.08-0.3-0.11-0.46-0.11c-0.18,0-0.34,0.03-0.48,0.1
		c-0.14,0.07-0.25,0.16-0.35,0.27c-0.1,0.11-0.17,0.25-0.22,0.39s-0.08,0.31-0.08,0.47c0,0.17,0.03,0.32,0.08,0.47
		c0.05,0.15,0.12,0.28,0.22,0.39s0.21,0.2,0.35,0.27c0.14,0.07,0.3,0.1,0.48,0.1c0.17,0,0.33-0.03,0.47-0.1
		c0.14-0.07,0.26-0.16,0.35-0.28l0.46,0.41c-0.15,0.17-0.33,0.3-0.54,0.4c-0.22,0.09-0.46,0.14-0.74,0.14
		c-0.27,0-0.51-0.04-0.74-0.13s-0.42-0.21-0.58-0.37c-0.16-0.16-0.29-0.35-0.39-0.57c-0.09-0.22-0.14-0.47-0.14-0.75
		c0-0.27,0.05-0.52,0.14-0.74c0.09-0.22,0.22-0.41,0.38-0.57c0.16-0.16,0.36-0.28,0.58-0.37s0.47-0.13,0.73-0.13
		c0.24,0,0.48,0.05,0.72,0.15c0.24,0.1,0.43,0.24,0.57,0.42L217.65,208.89z"/>
	<path class="st0" d="M220.82,209.23c0-0.26-0.08-0.45-0.23-0.57c-0.15-0.12-0.36-0.18-0.62-0.18c-0.19,0-0.38,0.04-0.55,0.11
		c-0.17,0.08-0.31,0.17-0.43,0.29l-0.36-0.43c0.17-0.16,0.38-0.29,0.62-0.38s0.51-0.14,0.79-0.14c0.25,0,0.46,0.04,0.64,0.11
		s0.33,0.17,0.45,0.29c0.12,0.12,0.2,0.26,0.26,0.43c0.06,0.16,0.09,0.34,0.09,0.53v1.5c0,0.12,0,0.24,0.01,0.37
		s0.02,0.23,0.04,0.32h-0.62c-0.04-0.16-0.06-0.33-0.06-0.49h-0.02c-0.13,0.18-0.28,0.33-0.47,0.43s-0.42,0.15-0.68,0.15
		c-0.14,0-0.28-0.02-0.42-0.05s-0.28-0.09-0.4-0.18c-0.12-0.08-0.22-0.19-0.3-0.33c-0.08-0.14-0.12-0.3-0.12-0.5
		c0-0.26,0.07-0.47,0.21-0.62s0.32-0.27,0.55-0.35s0.48-0.13,0.77-0.16c0.29-0.02,0.57-0.04,0.86-0.04V209.23z M220.65,209.81
		c-0.17,0-0.34,0.01-0.53,0.02s-0.35,0.04-0.49,0.09c-0.15,0.04-0.27,0.11-0.37,0.2s-0.15,0.2-0.15,0.35c0,0.1,0.02,0.19,0.06,0.25
		c0.04,0.07,0.1,0.12,0.16,0.17c0.07,0.04,0.14,0.07,0.22,0.09c0.08,0.02,0.17,0.03,0.25,0.03c0.32,0,0.56-0.1,0.74-0.29
		c0.17-0.19,0.26-0.43,0.26-0.72v-0.18H220.65z"/>
	<path class="st0" d="M223.16,211.45h-0.68v-5.48h0.68V211.45z"/>
	<path class="st0" d="M20.04,217.07h-0.8v2.88h-0.68v-2.88h-0.68v-0.56h0.68v-0.72c0-0.2,0.02-0.39,0.07-0.56
		c0.05-0.17,0.12-0.32,0.22-0.45c0.1-0.13,0.24-0.22,0.4-0.3c0.16-0.07,0.36-0.11,0.59-0.11c0.16,0,0.31,0.02,0.43,0.05l-0.08,0.59
		c-0.05-0.01-0.11-0.03-0.16-0.04c-0.05-0.01-0.11-0.01-0.18-0.01c-0.13,0-0.24,0.02-0.32,0.07s-0.14,0.11-0.18,0.18
		s-0.07,0.17-0.09,0.26c-0.01,0.1-0.02,0.2-0.02,0.31v0.72h0.8V217.07z"/>
	<path class="st0" d="M22.66,217.72c0-0.26-0.08-0.45-0.23-0.57c-0.15-0.12-0.36-0.18-0.62-0.18c-0.19,0-0.38,0.04-0.55,0.11
		c-0.17,0.08-0.31,0.17-0.43,0.29l-0.36-0.43c0.17-0.16,0.38-0.29,0.62-0.38s0.51-0.14,0.79-0.14c0.25,0,0.46,0.04,0.64,0.11
		s0.33,0.17,0.45,0.29c0.12,0.12,0.2,0.26,0.26,0.43c0.06,0.16,0.09,0.34,0.09,0.53v1.5c0,0.12,0,0.24,0.01,0.37
		s0.02,0.23,0.04,0.32h-0.62c-0.04-0.16-0.06-0.33-0.06-0.49h-0.02c-0.13,0.18-0.28,0.33-0.47,0.43s-0.42,0.15-0.68,0.15
		c-0.14,0-0.28-0.02-0.42-0.05s-0.28-0.09-0.4-0.18c-0.12-0.08-0.22-0.19-0.3-0.33c-0.08-0.14-0.12-0.3-0.12-0.5
		c0-0.26,0.07-0.47,0.21-0.62s0.32-0.27,0.55-0.35s0.48-0.13,0.77-0.16c0.29-0.02,0.57-0.04,0.86-0.04V217.72z M22.49,218.31
		c-0.17,0-0.34,0.01-0.53,0.02s-0.35,0.04-0.49,0.09c-0.15,0.04-0.27,0.11-0.37,0.2s-0.15,0.2-0.15,0.35c0,0.1,0.02,0.19,0.06,0.25
		c0.04,0.07,0.1,0.12,0.16,0.17c0.07,0.04,0.14,0.07,0.22,0.09c0.08,0.02,0.17,0.03,0.25,0.03c0.32,0,0.56-0.1,0.74-0.29
		c0.17-0.19,0.26-0.43,0.26-0.72v-0.18H22.49z"/>
	<path class="st0" d="M25.91,217.07H25v1.78c0,0.21,0.04,0.36,0.12,0.44c0.08,0.09,0.2,0.13,0.37,0.13c0.06,0,0.13-0.01,0.2-0.02
		c0.07-0.01,0.14-0.03,0.2-0.06l0.02,0.56c-0.08,0.03-0.17,0.05-0.27,0.07c-0.1,0.02-0.2,0.03-0.31,0.03
		c-0.32,0-0.57-0.09-0.74-0.27s-0.26-0.45-0.26-0.8v-1.86h-0.66v-0.56h0.66v-0.99H25v0.99h0.91V217.07z"/>
	<path class="st0" d="M28.13,216.9c0-0.14-0.01-0.27-0.02-0.38h0.65c0.01,0.09,0.02,0.19,0.02,0.3s0.01,0.21,0.01,0.28h0.02
		c0.1-0.2,0.24-0.37,0.42-0.49c0.19-0.12,0.39-0.19,0.63-0.19c0.11,0,0.2,0.01,0.27,0.03l-0.03,0.63c-0.1-0.02-0.2-0.04-0.31-0.04
		c-0.16,0-0.31,0.03-0.43,0.09s-0.22,0.14-0.3,0.24c-0.08,0.1-0.14,0.22-0.18,0.35s-0.06,0.27-0.06,0.42v1.8h-0.68v-2.7
		C28.14,217.16,28.14,217.04,28.13,216.9z"/>
	<path class="st0" d="M33.7,218.2c0,0.04,0,0.08,0,0.12c0,0.04,0,0.08-0.01,0.12h-2.73c0,0.14,0.04,0.28,0.1,0.41
		c0.06,0.13,0.14,0.24,0.24,0.33c0.1,0.09,0.22,0.17,0.35,0.22s0.27,0.08,0.42,0.08c0.23,0,0.43-0.05,0.6-0.15
		c0.17-0.1,0.3-0.22,0.4-0.37l0.48,0.38c-0.18,0.24-0.4,0.42-0.65,0.54c-0.25,0.12-0.53,0.17-0.83,0.17c-0.26,0-0.5-0.04-0.72-0.13
		s-0.41-0.21-0.57-0.37c-0.16-0.16-0.29-0.35-0.38-0.57c-0.09-0.22-0.14-0.47-0.14-0.74c0-0.27,0.04-0.51,0.13-0.74
		s0.21-0.42,0.37-0.58c0.16-0.16,0.35-0.28,0.57-0.37c0.22-0.09,0.45-0.13,0.7-0.13c0.25,0,0.48,0.04,0.69,0.12
		c0.21,0.08,0.38,0.2,0.52,0.36c0.14,0.15,0.25,0.34,0.33,0.56C33.66,217.68,33.7,217.92,33.7,218.2z M33,217.92
		c0-0.14-0.03-0.26-0.07-0.38s-0.1-0.22-0.18-0.31s-0.18-0.16-0.3-0.21c-0.12-0.05-0.26-0.08-0.42-0.08c-0.15,0-0.28,0.03-0.41,0.08
		c-0.13,0.05-0.24,0.12-0.33,0.21s-0.17,0.19-0.23,0.31s-0.1,0.25-0.1,0.38H33z"/>
	<path class="st0" d="M37.23,219.4c-0.13,0.21-0.31,0.37-0.53,0.48c-0.22,0.11-0.46,0.16-0.71,0.16c-0.27,0-0.5-0.05-0.72-0.14
		c-0.21-0.09-0.39-0.22-0.54-0.39c-0.15-0.16-0.27-0.36-0.35-0.58c-0.08-0.22-0.12-0.46-0.12-0.71s0.04-0.49,0.12-0.71
		c0.08-0.22,0.2-0.41,0.35-0.58c0.15-0.17,0.33-0.29,0.55-0.38c0.21-0.09,0.45-0.14,0.7-0.14c0.28,0,0.52,0.06,0.73,0.18
		s0.37,0.26,0.49,0.43h0.01v-2.56h0.68v5.48h-0.66v-0.54H37.23z M34.97,218.23c0,0.16,0.02,0.31,0.07,0.46s0.12,0.28,0.22,0.4
		c0.1,0.12,0.21,0.21,0.35,0.28s0.3,0.1,0.49,0.1c0.17,0,0.33-0.03,0.47-0.1c0.14-0.07,0.26-0.16,0.37-0.27s0.18-0.24,0.24-0.39
		c0.06-0.15,0.08-0.31,0.08-0.47s-0.03-0.32-0.08-0.47c-0.06-0.15-0.13-0.28-0.24-0.4c-0.1-0.12-0.22-0.21-0.37-0.27
		c-0.14-0.07-0.3-0.1-0.47-0.1c-0.19,0-0.35,0.03-0.49,0.1s-0.26,0.16-0.35,0.27c-0.1,0.12-0.17,0.25-0.22,0.4
		S34.97,218.07,34.97,218.23z"/>
	<path class="st0" d="M41.37,219.95c-0.01-0.09-0.02-0.18-0.02-0.29c0-0.11-0.01-0.2-0.01-0.27h-0.01
		c-0.09,0.18-0.23,0.34-0.44,0.47c-0.21,0.13-0.43,0.19-0.68,0.19c-0.22,0-0.41-0.04-0.58-0.11c-0.16-0.07-0.29-0.17-0.4-0.3
		c-0.1-0.13-0.18-0.28-0.23-0.45c-0.05-0.17-0.08-0.35-0.08-0.54v-2.13h0.68v1.9c0,0.14,0.01,0.27,0.03,0.4
		c0.02,0.13,0.06,0.24,0.12,0.34c0.06,0.1,0.14,0.17,0.24,0.23c0.1,0.06,0.23,0.09,0.39,0.09c0.27,0,0.5-0.1,0.67-0.31
		c0.17-0.21,0.25-0.48,0.25-0.82v-1.83h0.68v2.7c0,0.09,0,0.21,0.01,0.36c0,0.14,0.01,0.27,0.02,0.38H41.37z"/>
	<path class="st0" d="M45.43,217.38c-0.07-0.11-0.18-0.2-0.33-0.28c-0.14-0.08-0.3-0.11-0.46-0.11c-0.18,0-0.34,0.03-0.48,0.1
		c-0.14,0.07-0.25,0.16-0.35,0.27c-0.1,0.11-0.17,0.25-0.22,0.39s-0.08,0.31-0.08,0.47c0,0.17,0.03,0.32,0.08,0.47
		c0.05,0.15,0.12,0.28,0.22,0.39s0.21,0.2,0.35,0.27c0.14,0.07,0.3,0.1,0.48,0.1c0.17,0,0.33-0.03,0.47-0.1
		c0.14-0.07,0.26-0.16,0.35-0.28l0.46,0.41c-0.15,0.17-0.33,0.3-0.54,0.4c-0.22,0.09-0.46,0.14-0.74,0.14
		c-0.27,0-0.51-0.04-0.74-0.13s-0.42-0.21-0.58-0.37c-0.16-0.16-0.29-0.35-0.39-0.57c-0.09-0.22-0.14-0.47-0.14-0.75
		c0-0.27,0.05-0.52,0.14-0.74c0.09-0.22,0.22-0.41,0.38-0.57c0.16-0.16,0.36-0.28,0.58-0.37s0.47-0.13,0.73-0.13
		c0.24,0,0.48,0.05,0.72,0.15c0.24,0.1,0.43,0.24,0.57,0.42L45.43,217.38z"/>
	<path class="st0" d="M48.14,217.07h-0.91v1.78c0,0.21,0.04,0.36,0.12,0.44c0.08,0.09,0.2,0.13,0.37,0.13c0.06,0,0.13-0.01,0.2-0.02
		c0.07-0.01,0.14-0.03,0.2-0.06l0.02,0.56c-0.08,0.03-0.17,0.05-0.27,0.07c-0.1,0.02-0.2,0.03-0.31,0.03
		c-0.32,0-0.57-0.09-0.74-0.27s-0.26-0.45-0.26-0.8v-1.86h-0.66v-0.56h0.66v-0.99h0.67v0.99h0.91V217.07z"/>
	<path class="st0" d="M49.49,215.27c0,0.13-0.04,0.23-0.13,0.31c-0.09,0.08-0.2,0.12-0.32,0.12s-0.23-0.04-0.32-0.13
		c-0.09-0.08-0.13-0.19-0.13-0.31c0-0.13,0.04-0.23,0.13-0.32c0.09-0.08,0.19-0.13,0.32-0.13s0.23,0.04,0.32,0.13
		C49.45,215.04,49.49,215.15,49.49,215.27z M49.38,219.95H48.7v-3.43h0.68V219.95z"/>
	<path class="st0" d="M53.91,218.22c0,0.27-0.05,0.51-0.14,0.73c-0.09,0.22-0.22,0.42-0.39,0.58c-0.17,0.16-0.36,0.29-0.59,0.38
		c-0.23,0.09-0.47,0.13-0.73,0.13c-0.26,0-0.5-0.04-0.73-0.13c-0.23-0.09-0.42-0.21-0.59-0.38c-0.16-0.16-0.29-0.35-0.39-0.58
		c-0.09-0.22-0.14-0.47-0.14-0.73s0.05-0.51,0.14-0.73s0.22-0.41,0.39-0.57c0.16-0.16,0.36-0.28,0.59-0.37
		c0.23-0.09,0.47-0.13,0.73-0.13c0.26,0,0.5,0.04,0.73,0.13c0.23,0.09,0.42,0.21,0.59,0.37c0.17,0.16,0.3,0.35,0.39,0.57
		S53.91,217.96,53.91,218.22z M53.19,218.23c0-0.16-0.03-0.32-0.08-0.47s-0.12-0.28-0.22-0.39c-0.1-0.11-0.22-0.2-0.36-0.27
		s-0.31-0.1-0.49-0.1s-0.35,0.03-0.49,0.1s-0.26,0.16-0.36,0.27c-0.1,0.11-0.17,0.24-0.22,0.39s-0.08,0.31-0.08,0.47
		c0,0.16,0.03,0.32,0.08,0.47s0.12,0.28,0.22,0.4c0.1,0.12,0.22,0.21,0.36,0.27s0.31,0.1,0.49,0.1s0.35-0.03,0.49-0.1
		s0.26-0.16,0.36-0.27c0.1-0.12,0.17-0.25,0.22-0.4S53.19,218.39,53.19,218.23z"/>
	<path class="st0" d="M55.32,216.51c0.01,0.09,0.02,0.18,0.02,0.29c0,0.11,0.01,0.2,0.01,0.27h0.02c0.04-0.09,0.1-0.18,0.18-0.26
		c0.07-0.08,0.16-0.15,0.26-0.21s0.2-0.11,0.32-0.14c0.12-0.03,0.24-0.05,0.36-0.05c0.22,0,0.41,0.04,0.57,0.11
		c0.16,0.08,0.29,0.18,0.4,0.3c0.11,0.13,0.18,0.27,0.24,0.44s0.08,0.35,0.08,0.54v2.13h-0.68v-1.91c0-0.14-0.01-0.27-0.03-0.4
		c-0.02-0.12-0.06-0.24-0.12-0.33s-0.14-0.17-0.24-0.23c-0.1-0.06-0.23-0.09-0.39-0.09c-0.27,0-0.49,0.1-0.66,0.31
		s-0.26,0.48-0.26,0.82v1.83H54.7v-2.7c0-0.09,0-0.21-0.01-0.36s-0.01-0.27-0.02-0.38H55.32z"/>
	<path class="st0" d="M59.62,219.51c0,0.12-0.05,0.24-0.14,0.33c-0.09,0.1-0.21,0.15-0.35,0.15c-0.14,0-0.25-0.05-0.34-0.14
		c-0.09-0.09-0.14-0.2-0.14-0.33c0-0.13,0.05-0.24,0.14-0.34c0.09-0.09,0.21-0.14,0.35-0.14s0.26,0.05,0.35,0.14
		C59.57,219.27,59.62,219.38,59.62,219.51z"/>
	<path class="st0" d="M62.08,219.95h-0.8l2.22-5.13h0.65l2.2,5.13h-0.81l-0.52-1.26h-2.44L62.08,219.95z M62.85,218.05h1.92
		l-0.96-2.41L62.85,218.05z"/>
	<path class="st0" d="M67.54,219.95h-0.68v-5.48h0.68V219.95z"/>
	<path class="st0" d="M69.27,219.95h-0.68v-5.48h0.68V219.95z"/>
	<path class="st0" d="M73.53,218.2c0,0.04,0,0.08,0,0.12c0,0.04,0,0.08-0.01,0.12h-2.73c0,0.14,0.04,0.28,0.1,0.41
		c0.06,0.13,0.14,0.24,0.24,0.33c0.1,0.09,0.22,0.17,0.35,0.22s0.27,0.08,0.42,0.08c0.23,0,0.43-0.05,0.6-0.15
		c0.17-0.1,0.3-0.22,0.4-0.37l0.48,0.38c-0.18,0.24-0.4,0.42-0.65,0.54c-0.25,0.12-0.53,0.17-0.83,0.17c-0.26,0-0.5-0.04-0.72-0.13
		s-0.41-0.21-0.57-0.37c-0.16-0.16-0.29-0.35-0.38-0.57c-0.09-0.22-0.14-0.47-0.14-0.74c0-0.27,0.04-0.51,0.13-0.74
		s0.21-0.42,0.37-0.58c0.16-0.16,0.35-0.28,0.57-0.37c0.22-0.09,0.45-0.13,0.7-0.13c0.25,0,0.48,0.04,0.69,0.12
		c0.21,0.08,0.38,0.2,0.52,0.36c0.14,0.15,0.25,0.34,0.33,0.56C73.49,217.68,73.53,217.92,73.53,218.2z M72.83,217.92
		c0-0.14-0.03-0.26-0.07-0.38s-0.1-0.22-0.18-0.31s-0.18-0.16-0.3-0.21c-0.12-0.05-0.26-0.08-0.42-0.08c-0.15,0-0.28,0.03-0.41,0.08
		c-0.13,0.05-0.24,0.12-0.33,0.21s-0.17,0.19-0.23,0.31s-0.1,0.25-0.1,0.38H72.83z"/>
	<path class="st0" d="M75.09,218.14l-1.25-1.63h0.84l0.84,1.18l0.85-1.18h0.8l-1.24,1.62l1.38,1.81h-0.85l-0.96-1.34l-0.97,1.34
		h-0.82L75.09,218.14z"/>
	<path class="st0" d="M79.95,217.72c0-0.26-0.08-0.45-0.23-0.57c-0.15-0.12-0.36-0.18-0.62-0.18c-0.19,0-0.38,0.04-0.55,0.11
		c-0.17,0.08-0.31,0.17-0.43,0.29l-0.36-0.43c0.17-0.16,0.38-0.29,0.62-0.38s0.51-0.14,0.79-0.14c0.25,0,0.46,0.04,0.64,0.11
		s0.33,0.17,0.45,0.29c0.12,0.12,0.2,0.26,0.26,0.43c0.06,0.16,0.09,0.34,0.09,0.53v1.5c0,0.12,0,0.24,0.01,0.37
		s0.02,0.23,0.04,0.32h-0.62c-0.04-0.16-0.06-0.33-0.06-0.49h-0.02c-0.13,0.18-0.28,0.33-0.47,0.43s-0.42,0.15-0.68,0.15
		c-0.14,0-0.28-0.02-0.42-0.05s-0.28-0.09-0.4-0.18c-0.12-0.08-0.22-0.19-0.3-0.33c-0.08-0.14-0.12-0.3-0.12-0.5
		c0-0.26,0.07-0.47,0.21-0.62s0.32-0.27,0.55-0.35s0.48-0.13,0.77-0.16c0.29-0.02,0.57-0.04,0.86-0.04V217.72z M79.78,218.31
		c-0.17,0-0.34,0.01-0.53,0.02s-0.35,0.04-0.49,0.09c-0.15,0.04-0.27,0.11-0.37,0.2s-0.15,0.2-0.15,0.35c0,0.1,0.02,0.19,0.06,0.25
		c0.04,0.07,0.1,0.12,0.16,0.17c0.07,0.04,0.14,0.07,0.22,0.09c0.08,0.02,0.17,0.03,0.25,0.03c0.32,0,0.56-0.1,0.74-0.29
		c0.17-0.19,0.26-0.43,0.26-0.72v-0.18H79.78z"/>
	<path class="st0" d="M83.51,216.51l0.77,2.62h0.01l0.82-2.62h0.72l0.83,2.62h0.01l0.78-2.62h0.72l-1.14,3.43h-0.71l-0.85-2.58
		h-0.01l-0.84,2.58h-0.71l-1.15-3.43H83.51z"/>
	<path class="st0" d="M90.85,217.72c0-0.26-0.08-0.45-0.23-0.57c-0.15-0.12-0.36-0.18-0.62-0.18c-0.19,0-0.38,0.04-0.55,0.11
		c-0.17,0.08-0.31,0.17-0.43,0.29l-0.36-0.43c0.17-0.16,0.38-0.29,0.62-0.38s0.51-0.14,0.79-0.14c0.25,0,0.46,0.04,0.64,0.11
		s0.33,0.17,0.45,0.29c0.12,0.12,0.2,0.26,0.26,0.43c0.06,0.16,0.09,0.34,0.09,0.53v1.5c0,0.12,0,0.24,0.01,0.37
		s0.02,0.23,0.04,0.32h-0.62c-0.04-0.16-0.06-0.33-0.06-0.49h-0.02c-0.13,0.18-0.28,0.33-0.47,0.43s-0.42,0.15-0.68,0.15
		c-0.14,0-0.28-0.02-0.42-0.05s-0.28-0.09-0.4-0.18c-0.12-0.08-0.22-0.19-0.3-0.33c-0.08-0.14-0.12-0.3-0.12-0.5
		c0-0.26,0.07-0.47,0.21-0.62s0.32-0.27,0.55-0.35s0.48-0.13,0.77-0.16c0.29-0.02,0.57-0.04,0.86-0.04V217.72z M90.69,218.31
		c-0.17,0-0.34,0.01-0.53,0.02s-0.35,0.04-0.49,0.09c-0.15,0.04-0.27,0.11-0.37,0.2s-0.15,0.2-0.15,0.35c0,0.1,0.02,0.19,0.06,0.25
		c0.04,0.07,0.1,0.12,0.16,0.17c0.07,0.04,0.14,0.07,0.22,0.09c0.08,0.02,0.17,0.03,0.25,0.03c0.32,0,0.56-0.1,0.74-0.29
		c0.17-0.19,0.26-0.43,0.26-0.72v-0.18H90.69z"/>
	<path class="st0" d="M94.35,217.38c-0.08-0.12-0.19-0.23-0.33-0.31c-0.14-0.08-0.3-0.12-0.47-0.12c-0.08,0-0.15,0.01-0.23,0.03
		c-0.08,0.02-0.15,0.04-0.21,0.08s-0.11,0.08-0.15,0.14s-0.05,0.12-0.05,0.21c0,0.15,0.06,0.25,0.2,0.32
		c0.13,0.07,0.33,0.13,0.59,0.19c0.16,0.04,0.32,0.08,0.46,0.14c0.14,0.05,0.26,0.12,0.37,0.2c0.1,0.08,0.18,0.18,0.24,0.29
		c0.06,0.11,0.09,0.24,0.09,0.39c0,0.2-0.04,0.38-0.12,0.51c-0.08,0.14-0.18,0.25-0.31,0.34c-0.13,0.09-0.27,0.15-0.44,0.19
		c-0.16,0.04-0.33,0.06-0.51,0.06c-0.26,0-0.52-0.05-0.76-0.15c-0.25-0.1-0.46-0.26-0.62-0.46l0.49-0.41
		c0.09,0.13,0.22,0.25,0.38,0.34c0.16,0.09,0.34,0.14,0.53,0.14c0.09,0,0.17-0.01,0.25-0.03c0.08-0.02,0.15-0.04,0.22-0.08
		c0.07-0.04,0.12-0.09,0.16-0.15c0.04-0.06,0.06-0.14,0.06-0.24c0-0.16-0.08-0.28-0.23-0.36c-0.15-0.08-0.38-0.15-0.67-0.22
		c-0.12-0.03-0.23-0.06-0.35-0.1s-0.23-0.1-0.32-0.17c-0.1-0.07-0.18-0.16-0.24-0.27c-0.06-0.11-0.09-0.24-0.09-0.4
		c0-0.18,0.04-0.34,0.11-0.47c0.07-0.13,0.17-0.24,0.29-0.33c0.12-0.08,0.26-0.15,0.41-0.19c0.15-0.04,0.31-0.06,0.48-0.06
		c0.25,0,0.48,0.05,0.71,0.15s0.41,0.24,0.53,0.42L94.35,217.38z"/>
	<path class="st0" d="M98.92,217.07H98v1.78c0,0.21,0.04,0.36,0.12,0.44c0.08,0.09,0.2,0.13,0.37,0.13c0.06,0,0.13-0.01,0.2-0.02
		c0.07-0.01,0.14-0.03,0.2-0.06l0.02,0.56c-0.08,0.03-0.17,0.05-0.27,0.07c-0.1,0.02-0.2,0.03-0.31,0.03
		c-0.32,0-0.57-0.09-0.74-0.27s-0.26-0.45-0.26-0.8v-1.86h-0.66v-0.56h0.66v-0.99H98v0.99h0.91V217.07z"/>
	<path class="st0" d="M99.47,216.9c0-0.14-0.01-0.27-0.02-0.38h0.65c0.01,0.09,0.02,0.19,0.02,0.3s0.01,0.21,0.01,0.28h0.02
		c0.1-0.2,0.24-0.37,0.42-0.49c0.19-0.12,0.39-0.19,0.63-0.19c0.11,0,0.2,0.01,0.27,0.03l-0.03,0.63c-0.1-0.02-0.2-0.04-0.31-0.04
		c-0.16,0-0.31,0.03-0.43,0.09s-0.22,0.14-0.3,0.24c-0.08,0.1-0.14,0.22-0.18,0.35s-0.06,0.27-0.06,0.42v1.8h-0.68v-2.7
		C99.48,217.16,99.47,217.04,99.47,216.9z"/>
	<path class="st0" d="M105.03,218.2c0,0.04,0,0.08,0,0.12c0,0.04,0,0.08-0.01,0.12h-2.73c0,0.14,0.04,0.28,0.1,0.41
		c0.06,0.13,0.14,0.24,0.24,0.33c0.1,0.09,0.22,0.17,0.35,0.22s0.27,0.08,0.42,0.08c0.23,0,0.43-0.05,0.6-0.15
		c0.17-0.1,0.3-0.22,0.4-0.37l0.48,0.38c-0.18,0.24-0.4,0.42-0.65,0.54c-0.25,0.12-0.53,0.17-0.83,0.17c-0.26,0-0.5-0.04-0.72-0.13
		s-0.41-0.21-0.57-0.37c-0.16-0.16-0.29-0.35-0.38-0.57c-0.09-0.22-0.14-0.47-0.14-0.74c0-0.27,0.04-0.51,0.13-0.74
		s0.21-0.42,0.37-0.58c0.16-0.16,0.35-0.28,0.57-0.37c0.22-0.09,0.45-0.13,0.7-0.13c0.25,0,0.48,0.04,0.69,0.12
		c0.21,0.08,0.38,0.2,0.52,0.36c0.14,0.15,0.25,0.34,0.33,0.56C104.99,217.68,105.03,217.92,105.03,218.2z M104.34,217.92
		c0-0.14-0.03-0.26-0.07-0.38s-0.1-0.22-0.18-0.31s-0.18-0.16-0.3-0.21c-0.12-0.05-0.26-0.08-0.42-0.08c-0.15,0-0.28,0.03-0.41,0.08
		c-0.13,0.05-0.24,0.12-0.33,0.21s-0.17,0.19-0.23,0.31s-0.1,0.25-0.1,0.38H104.34z"/>
	<path class="st0" d="M107.92,217.72c0-0.26-0.08-0.45-0.23-0.57c-0.15-0.12-0.36-0.18-0.62-0.18c-0.19,0-0.38,0.04-0.55,0.11
		c-0.17,0.08-0.31,0.17-0.43,0.29l-0.36-0.43c0.17-0.16,0.38-0.29,0.62-0.38s0.51-0.14,0.79-0.14c0.25,0,0.46,0.04,0.64,0.11
		s0.33,0.17,0.45,0.29c0.12,0.12,0.2,0.26,0.26,0.43c0.06,0.16,0.09,0.34,0.09,0.53v1.5c0,0.12,0,0.24,0.01,0.37
		s0.02,0.23,0.04,0.32h-0.62c-0.04-0.16-0.06-0.33-0.06-0.49h-0.02c-0.13,0.18-0.28,0.33-0.47,0.43s-0.42,0.15-0.68,0.15
		c-0.14,0-0.28-0.02-0.42-0.05s-0.28-0.09-0.4-0.18c-0.12-0.08-0.22-0.19-0.3-0.33c-0.08-0.14-0.12-0.3-0.12-0.5
		c0-0.26,0.07-0.47,0.21-0.62s0.32-0.27,0.55-0.35s0.48-0.13,0.77-0.16c0.29-0.02,0.57-0.04,0.86-0.04V217.72z M107.76,218.31
		c-0.17,0-0.34,0.01-0.53,0.02s-0.35,0.04-0.49,0.09c-0.15,0.04-0.27,0.11-0.37,0.2s-0.15,0.2-0.15,0.35c0,0.1,0.02,0.19,0.06,0.25
		c0.04,0.07,0.1,0.12,0.16,0.17c0.07,0.04,0.14,0.07,0.22,0.09c0.08,0.02,0.17,0.03,0.25,0.03c0.32,0,0.56-0.1,0.74-0.29
		c0.17-0.19,0.26-0.43,0.26-0.72v-0.18H107.76z"/>
	<path class="st0" d="M111.18,217.07h-0.91v1.78c0,0.21,0.04,0.36,0.12,0.44c0.08,0.09,0.2,0.13,0.37,0.13
		c0.06,0,0.13-0.01,0.2-0.02c0.07-0.01,0.14-0.03,0.2-0.06l0.02,0.56c-0.08,0.03-0.17,0.05-0.27,0.07c-0.1,0.02-0.2,0.03-0.31,0.03
		c-0.32,0-0.57-0.09-0.74-0.27s-0.26-0.45-0.26-0.8v-1.86h-0.66v-0.56h0.66v-0.99h0.67v0.99h0.91V217.07z"/>
	<path class="st0" d="M114.95,218.2c0,0.04,0,0.08,0,0.12c0,0.04,0,0.08-0.01,0.12h-2.73c0,0.14,0.04,0.28,0.1,0.41
		c0.06,0.13,0.14,0.24,0.24,0.33c0.1,0.09,0.22,0.17,0.35,0.22s0.27,0.08,0.42,0.08c0.23,0,0.43-0.05,0.6-0.15
		c0.17-0.1,0.3-0.22,0.4-0.37l0.48,0.38c-0.18,0.24-0.4,0.42-0.65,0.54c-0.25,0.12-0.53,0.17-0.83,0.17c-0.26,0-0.5-0.04-0.72-0.13
		s-0.41-0.21-0.57-0.37c-0.16-0.16-0.29-0.35-0.38-0.57c-0.09-0.22-0.14-0.47-0.14-0.74c0-0.27,0.04-0.51,0.13-0.74
		s0.21-0.42,0.37-0.58c0.16-0.16,0.35-0.28,0.57-0.37c0.22-0.09,0.45-0.13,0.7-0.13c0.25,0,0.48,0.04,0.69,0.12
		c0.21,0.08,0.38,0.2,0.52,0.36c0.14,0.15,0.25,0.34,0.33,0.56C114.91,217.68,114.95,217.92,114.95,218.2z M114.25,217.92
		c0-0.14-0.03-0.26-0.07-0.38s-0.1-0.22-0.18-0.31s-0.18-0.16-0.3-0.21c-0.12-0.05-0.26-0.08-0.42-0.08c-0.15,0-0.28,0.03-0.41,0.08
		c-0.13,0.05-0.24,0.12-0.33,0.21s-0.17,0.19-0.23,0.31s-0.1,0.25-0.1,0.38H114.25z"/>
	<path class="st0" d="M118.48,219.4c-0.13,0.21-0.31,0.37-0.53,0.48c-0.22,0.11-0.46,0.16-0.71,0.16c-0.27,0-0.5-0.05-0.72-0.14
		c-0.21-0.09-0.39-0.22-0.54-0.39c-0.15-0.16-0.27-0.36-0.35-0.58c-0.08-0.22-0.12-0.46-0.12-0.71s0.04-0.49,0.12-0.71
		c0.08-0.22,0.2-0.41,0.35-0.58c0.15-0.17,0.33-0.29,0.55-0.38c0.21-0.09,0.45-0.14,0.7-0.14c0.28,0,0.52,0.06,0.73,0.18
		s0.37,0.26,0.49,0.43h0.01v-2.56h0.68v5.48h-0.66v-0.54H118.48z M116.22,218.23c0,0.16,0.02,0.31,0.07,0.46s0.12,0.28,0.22,0.4
		c0.1,0.12,0.21,0.21,0.35,0.28s0.3,0.1,0.49,0.1c0.17,0,0.33-0.03,0.47-0.1c0.14-0.07,0.26-0.16,0.37-0.27s0.18-0.24,0.24-0.39
		c0.06-0.15,0.08-0.31,0.08-0.47s-0.03-0.32-0.08-0.47c-0.06-0.15-0.13-0.28-0.24-0.4c-0.1-0.12-0.22-0.21-0.37-0.27
		c-0.14-0.07-0.3-0.1-0.47-0.1c-0.19,0-0.35,0.03-0.49,0.1s-0.26,0.16-0.35,0.27c-0.1,0.12-0.17,0.25-0.22,0.4
		S116.22,218.07,116.22,218.23z"/>
	<path class="st0" d="M122.12,216.51l0.77,2.62h0.01l0.82-2.62h0.72l0.83,2.62h0.01l0.78-2.62h0.72l-1.14,3.43h-0.71l-0.85-2.58
		h-0.01l-0.84,2.58h-0.71l-1.15-3.43H122.12z"/>
	<path class="st0" d="M128.12,215.27c0,0.13-0.04,0.23-0.13,0.31c-0.09,0.08-0.2,0.12-0.32,0.12s-0.23-0.04-0.32-0.13
		c-0.09-0.08-0.13-0.19-0.13-0.31c0-0.13,0.04-0.23,0.13-0.32c0.09-0.08,0.19-0.13,0.32-0.13s0.23,0.04,0.32,0.13
		C128.08,215.04,128.12,215.15,128.12,215.27z M128.01,219.95h-0.68v-3.43h0.68V219.95z"/>
	<path class="st0" d="M130.74,217.07h-0.91v1.78c0,0.21,0.04,0.36,0.12,0.44c0.08,0.09,0.2,0.13,0.37,0.13
		c0.06,0,0.13-0.01,0.2-0.02c0.07-0.01,0.14-0.03,0.2-0.06l0.02,0.56c-0.08,0.03-0.17,0.05-0.27,0.07c-0.1,0.02-0.2,0.03-0.31,0.03
		c-0.32,0-0.57-0.09-0.74-0.27s-0.26-0.45-0.26-0.8v-1.86h-0.66v-0.56h0.66v-0.99h0.67v0.99h0.91V217.07z"/>
	<path class="st0" d="M132,217.03c0.08-0.17,0.22-0.31,0.42-0.43s0.42-0.18,0.67-0.18c0.22,0,0.41,0.04,0.57,0.11
		c0.16,0.08,0.29,0.18,0.4,0.3c0.11,0.13,0.19,0.27,0.24,0.44c0.05,0.17,0.08,0.35,0.08,0.54v2.13h-0.68v-1.9
		c0-0.14-0.01-0.27-0.03-0.4c-0.02-0.13-0.06-0.24-0.12-0.33c-0.06-0.1-0.14-0.17-0.24-0.23c-0.1-0.06-0.23-0.09-0.39-0.09
		c-0.27,0-0.49,0.1-0.67,0.31c-0.17,0.21-0.26,0.48-0.26,0.82v1.82h-0.68v-5.48h0.68v2.57H132z"/>
	<path class="st0" d="M141.48,219.15c-0.2,0.28-0.47,0.5-0.79,0.67c-0.32,0.17-0.71,0.26-1.17,0.26c-0.39,0-0.75-0.07-1.08-0.2
		c-0.33-0.13-0.62-0.32-0.85-0.56c-0.24-0.24-0.43-0.52-0.56-0.85c-0.14-0.33-0.2-0.7-0.2-1.09c0-0.4,0.07-0.77,0.21-1.1
		s0.33-0.61,0.57-0.85c0.24-0.23,0.53-0.42,0.87-0.55c0.33-0.13,0.7-0.2,1.09-0.2c0.17,0,0.35,0.02,0.53,0.05
		c0.18,0.03,0.35,0.08,0.51,0.15c0.16,0.07,0.31,0.15,0.45,0.25c0.14,0.1,0.25,0.21,0.35,0.34l-0.56,0.43
		c-0.13-0.17-0.3-0.32-0.53-0.43s-0.48-0.17-0.74-0.17c-0.3,0-0.57,0.05-0.81,0.16c-0.24,0.11-0.44,0.26-0.61,0.45
		s-0.3,0.41-0.39,0.66c-0.09,0.25-0.14,0.51-0.14,0.79c0,0.29,0.04,0.56,0.13,0.81s0.22,0.47,0.38,0.66
		c0.17,0.19,0.37,0.33,0.61,0.44c0.24,0.11,0.51,0.16,0.8,0.16c0.29,0,0.55-0.06,0.79-0.17c0.24-0.12,0.43-0.28,0.59-0.51
		L141.48,219.15z"/>
	<path class="st0" d="M145.42,218.22c0,0.27-0.05,0.51-0.14,0.73c-0.09,0.22-0.22,0.42-0.39,0.58c-0.17,0.16-0.36,0.29-0.59,0.38
		c-0.23,0.09-0.47,0.13-0.73,0.13c-0.26,0-0.5-0.04-0.73-0.13c-0.23-0.09-0.42-0.21-0.59-0.38c-0.16-0.16-0.29-0.35-0.39-0.58
		c-0.09-0.22-0.14-0.47-0.14-0.73s0.05-0.51,0.14-0.73s0.22-0.41,0.39-0.57c0.16-0.16,0.36-0.28,0.59-0.37
		c0.23-0.09,0.47-0.13,0.73-0.13c0.26,0,0.5,0.04,0.73,0.13c0.23,0.09,0.42,0.21,0.59,0.37c0.17,0.16,0.3,0.35,0.39,0.57
		S145.42,217.96,145.42,218.22z M144.71,218.23c0-0.16-0.03-0.32-0.08-0.47s-0.12-0.28-0.22-0.39c-0.1-0.11-0.22-0.2-0.36-0.27
		s-0.31-0.1-0.49-0.1s-0.35,0.03-0.49,0.1s-0.26,0.16-0.36,0.27c-0.1,0.11-0.17,0.24-0.22,0.39s-0.08,0.31-0.08,0.47
		c0,0.16,0.03,0.32,0.08,0.47s0.12,0.28,0.22,0.4c0.1,0.12,0.22,0.21,0.36,0.27s0.31,0.1,0.49,0.1s0.35-0.03,0.49-0.1
		s0.26-0.16,0.36-0.27c0.1-0.12,0.17-0.25,0.22-0.4S144.71,218.39,144.71,218.23z"/>
	<path class="st0" d="M149.7,218.22c0,0.27-0.05,0.51-0.14,0.73c-0.09,0.22-0.22,0.42-0.39,0.58c-0.17,0.16-0.36,0.29-0.59,0.38
		c-0.23,0.09-0.47,0.13-0.73,0.13c-0.26,0-0.5-0.04-0.73-0.13c-0.23-0.09-0.42-0.21-0.59-0.38c-0.16-0.16-0.29-0.35-0.39-0.58
		c-0.09-0.22-0.14-0.47-0.14-0.73s0.05-0.51,0.14-0.73s0.22-0.41,0.39-0.57c0.16-0.16,0.36-0.28,0.59-0.37
		c0.23-0.09,0.47-0.13,0.73-0.13c0.26,0,0.5,0.04,0.73,0.13c0.23,0.09,0.42,0.21,0.59,0.37c0.17,0.16,0.3,0.35,0.39,0.57
		S149.7,217.96,149.7,218.22z M148.99,218.23c0-0.16-0.03-0.32-0.08-0.47s-0.12-0.28-0.22-0.39c-0.1-0.11-0.22-0.2-0.36-0.27
		s-0.31-0.1-0.49-0.1s-0.35,0.03-0.49,0.1s-0.26,0.16-0.36,0.27c-0.1,0.11-0.17,0.24-0.22,0.39s-0.08,0.31-0.08,0.47
		c0,0.16,0.03,0.32,0.08,0.47s0.12,0.28,0.22,0.4c0.1,0.12,0.22,0.21,0.36,0.27s0.31,0.1,0.49,0.1s0.35-0.03,0.49-0.1
		s0.26-0.16,0.36-0.27c0.1-0.12,0.17-0.25,0.22-0.4S148.99,218.39,148.99,218.23z"/>
	<path class="st0" d="M151.19,219.95h-0.68v-5.48h0.68V219.95z"/>
	<path class="st0" d="M154.82,215.76c-0.1-0.14-0.24-0.25-0.41-0.34c-0.17-0.09-0.37-0.13-0.59-0.13c-0.12,0-0.23,0.02-0.35,0.05
		c-0.12,0.03-0.23,0.08-0.32,0.15s-0.18,0.16-0.24,0.26c-0.06,0.1-0.09,0.23-0.09,0.37c0,0.14,0.03,0.26,0.08,0.35
		c0.06,0.09,0.13,0.17,0.22,0.24s0.21,0.12,0.33,0.17c0.13,0.05,0.26,0.09,0.41,0.14c0.17,0.05,0.35,0.11,0.53,0.18
		c0.18,0.07,0.34,0.16,0.49,0.27c0.15,0.11,0.26,0.25,0.35,0.42s0.14,0.38,0.14,0.63c0,0.27-0.05,0.5-0.15,0.69
		c-0.1,0.2-0.23,0.36-0.4,0.49c-0.16,0.13-0.35,0.22-0.57,0.29s-0.44,0.09-0.66,0.09c-0.32,0-0.64-0.06-0.94-0.19
		c-0.3-0.13-0.55-0.31-0.75-0.56l0.56-0.47c0.12,0.18,0.28,0.32,0.49,0.43c0.2,0.11,0.42,0.17,0.66,0.17c0.12,0,0.24-0.02,0.36-0.05
		c0.12-0.03,0.23-0.09,0.33-0.16c0.1-0.07,0.18-0.16,0.24-0.27c0.06-0.11,0.09-0.24,0.09-0.39s-0.03-0.28-0.1-0.39
		c-0.07-0.1-0.15-0.19-0.26-0.26c-0.11-0.07-0.24-0.13-0.39-0.18s-0.3-0.1-0.47-0.16c-0.16-0.05-0.33-0.11-0.49-0.18
		c-0.16-0.07-0.3-0.16-0.43-0.27c-0.13-0.11-0.23-0.24-0.3-0.4c-0.08-0.16-0.12-0.36-0.12-0.59c0-0.26,0.05-0.48,0.16-0.66
		s0.24-0.34,0.41-0.46c0.17-0.12,0.35-0.21,0.57-0.26c0.21-0.06,0.42-0.08,0.63-0.08c0.3,0,0.58,0.05,0.84,0.16s0.47,0.25,0.63,0.43
		L154.82,215.76z"/>
	<path class="st0" d="M158.62,217.38c-0.07-0.11-0.18-0.2-0.33-0.28c-0.14-0.08-0.3-0.11-0.46-0.11c-0.18,0-0.34,0.03-0.48,0.1
		c-0.14,0.07-0.25,0.16-0.35,0.27c-0.1,0.11-0.17,0.25-0.22,0.39s-0.08,0.31-0.08,0.47c0,0.17,0.03,0.32,0.08,0.47
		c0.05,0.15,0.12,0.28,0.22,0.39s0.21,0.2,0.35,0.27c0.14,0.07,0.3,0.1,0.48,0.1c0.17,0,0.33-0.03,0.47-0.1
		c0.14-0.07,0.26-0.16,0.35-0.28l0.46,0.41c-0.15,0.17-0.33,0.3-0.54,0.4c-0.22,0.09-0.46,0.14-0.74,0.14
		c-0.27,0-0.51-0.04-0.74-0.13s-0.42-0.21-0.58-0.37c-0.16-0.16-0.29-0.35-0.39-0.57c-0.09-0.22-0.14-0.47-0.14-0.75
		c0-0.27,0.05-0.52,0.14-0.74c0.09-0.22,0.22-0.41,0.38-0.57c0.16-0.16,0.36-0.28,0.58-0.37s0.47-0.13,0.73-0.13
		c0.24,0,0.48,0.05,0.72,0.15c0.24,0.1,0.43,0.24,0.57,0.42L158.62,217.38z"/>
	<path class="st0" d="M162.07,219.95c-0.01-0.09-0.02-0.18-0.02-0.29c0-0.11-0.01-0.2-0.01-0.27h-0.01
		c-0.09,0.18-0.23,0.34-0.44,0.47c-0.21,0.13-0.43,0.19-0.68,0.19c-0.22,0-0.41-0.04-0.58-0.11c-0.16-0.07-0.29-0.17-0.4-0.3
		c-0.1-0.13-0.18-0.28-0.23-0.45c-0.05-0.17-0.08-0.35-0.08-0.54v-2.13h0.68v1.9c0,0.14,0.01,0.27,0.03,0.4
		c0.02,0.13,0.06,0.24,0.12,0.34c0.06,0.1,0.14,0.17,0.24,0.23c0.1,0.06,0.23,0.09,0.39,0.09c0.27,0,0.5-0.1,0.67-0.31
		c0.17-0.21,0.25-0.48,0.25-0.82v-1.83h0.68v2.7c0,0.09,0,0.21,0.01,0.36c0,0.14,0.01,0.27,0.02,0.38H162.07z"/>
	<path class="st0" d="M164.42,219.95h-0.68v-5.48h0.68V219.95z"/>
	<path class="st0" d="M166.14,221.69h-0.68v-5.17h0.67v0.54h0.02c0.11-0.18,0.27-0.33,0.49-0.45s0.46-0.18,0.75-0.18
		c0.26,0,0.49,0.05,0.7,0.14s0.39,0.22,0.54,0.38c0.15,0.16,0.27,0.36,0.35,0.58c0.08,0.22,0.12,0.46,0.12,0.71
		s-0.04,0.49-0.12,0.71c-0.08,0.22-0.2,0.42-0.35,0.58s-0.33,0.29-0.54,0.39c-0.21,0.09-0.45,0.14-0.72,0.14
		c-0.25,0-0.48-0.05-0.69-0.16c-0.22-0.11-0.39-0.26-0.51-0.45h-0.02V221.69z M168.4,218.22c0-0.16-0.02-0.31-0.07-0.46
		s-0.12-0.28-0.22-0.4s-0.22-0.21-0.36-0.28s-0.31-0.1-0.5-0.1c-0.17,0-0.33,0.03-0.48,0.1c-0.14,0.07-0.26,0.16-0.37,0.28
		s-0.18,0.25-0.24,0.4c-0.06,0.15-0.08,0.31-0.08,0.47c0,0.17,0.03,0.32,0.08,0.47c0.06,0.15,0.13,0.28,0.24,0.39
		s0.22,0.2,0.37,0.27c0.14,0.07,0.3,0.1,0.48,0.1c0.19,0,0.35-0.04,0.5-0.1c0.14-0.07,0.26-0.16,0.36-0.28s0.17-0.25,0.22-0.4
		S168.4,218.38,168.4,218.22z"/>
	<path class="st0" d="M171.59,217.07h-0.91v1.78c0,0.21,0.04,0.36,0.12,0.44c0.08,0.09,0.2,0.13,0.37,0.13
		c0.06,0,0.13-0.01,0.2-0.02c0.07-0.01,0.14-0.03,0.2-0.06l0.02,0.56c-0.08,0.03-0.17,0.05-0.27,0.07c-0.1,0.02-0.2,0.03-0.31,0.03
		c-0.32,0-0.57-0.09-0.74-0.27s-0.26-0.45-0.26-0.8v-1.86h-0.66v-0.56H170v-0.99h0.67v0.99h0.91V217.07z"/>
	<path class="st0" d="M172.95,215.27c0,0.13-0.04,0.23-0.13,0.31c-0.09,0.08-0.2,0.12-0.32,0.12s-0.23-0.04-0.32-0.13
		c-0.09-0.08-0.13-0.19-0.13-0.31c0-0.13,0.04-0.23,0.13-0.32c0.09-0.08,0.19-0.13,0.32-0.13s0.23,0.04,0.32,0.13
		C172.9,215.04,172.95,215.15,172.95,215.27z M172.84,219.95h-0.68v-3.43h0.68V219.95z"/>
	<path class="st0" d="M174.5,216.51c0.01,0.09,0.02,0.18,0.02,0.29c0,0.11,0.01,0.2,0.01,0.27h0.02c0.04-0.09,0.1-0.18,0.18-0.26
		c0.07-0.08,0.16-0.15,0.26-0.21s0.2-0.11,0.32-0.14c0.12-0.03,0.24-0.05,0.36-0.05c0.22,0,0.41,0.04,0.57,0.11
		c0.16,0.08,0.29,0.18,0.4,0.3c0.11,0.13,0.18,0.27,0.24,0.44s0.08,0.35,0.08,0.54v2.13h-0.68v-1.91c0-0.14-0.01-0.27-0.03-0.4
		c-0.02-0.12-0.06-0.24-0.12-0.33s-0.14-0.17-0.24-0.23c-0.1-0.06-0.23-0.09-0.39-0.09c-0.27,0-0.49,0.1-0.66,0.31
		s-0.26,0.48-0.26,0.82v1.83h-0.68v-2.7c0-0.09,0-0.21-0.01-0.36s-0.01-0.27-0.02-0.38H174.5z"/>
	<path class="st0" d="M178.22,220.53c0.15,0.17,0.34,0.3,0.56,0.41c0.22,0.1,0.46,0.15,0.69,0.15c0.23,0,0.42-0.03,0.57-0.1
		s0.28-0.15,0.37-0.27c0.09-0.11,0.16-0.25,0.2-0.4c0.04-0.16,0.06-0.32,0.06-0.5v-0.44h-0.01c-0.13,0.19-0.3,0.34-0.51,0.44
		c-0.22,0.1-0.45,0.15-0.7,0.15c-0.26,0-0.5-0.05-0.71-0.14s-0.4-0.22-0.55-0.38c-0.15-0.16-0.27-0.35-0.35-0.56
		s-0.12-0.45-0.12-0.69s0.04-0.48,0.12-0.7c0.08-0.22,0.2-0.41,0.35-0.57c0.15-0.16,0.33-0.29,0.54-0.38
		c0.21-0.09,0.45-0.14,0.71-0.14c0.25,0,0.48,0.05,0.71,0.16c0.22,0.11,0.4,0.27,0.53,0.49h0.01v-0.55h0.66v3.26
		c0,0.25-0.03,0.49-0.09,0.72s-0.17,0.43-0.32,0.61c-0.15,0.18-0.35,0.32-0.59,0.42c-0.24,0.11-0.54,0.16-0.9,0.16
		c-0.3,0-0.6-0.05-0.9-0.16s-0.56-0.26-0.78-0.46L178.22,220.53z M178.42,218.19c0,0.16,0.03,0.31,0.08,0.46
		c0.05,0.14,0.13,0.27,0.23,0.38c0.1,0.11,0.22,0.2,0.36,0.27c0.14,0.07,0.3,0.1,0.48,0.1c0.17,0,0.33-0.03,0.48-0.09
		c0.15-0.06,0.27-0.15,0.37-0.26c0.1-0.11,0.18-0.24,0.24-0.38c0.06-0.15,0.08-0.3,0.08-0.47c0-0.16-0.03-0.32-0.08-0.46
		c-0.06-0.14-0.14-0.27-0.24-0.38c-0.1-0.11-0.23-0.2-0.37-0.26s-0.3-0.1-0.48-0.1c-0.18,0-0.34,0.03-0.48,0.1s-0.26,0.15-0.36,0.26
		c-0.1,0.11-0.17,0.24-0.23,0.38S178.42,218.03,178.42,218.19z"/>
	<path class="st0" d="M184.81,219.31h2.68v0.64h-3.4v-5.13h3.29v0.63h-2.57v1.54h2.42v0.62h-2.42V219.31z"/>
	<path class="st0" d="M188.96,219.95h-0.68v-5.48h0.68V219.95z"/>
	<path class="st0" d="M190.8,215.27c0,0.13-0.04,0.23-0.13,0.31c-0.09,0.08-0.2,0.12-0.32,0.12s-0.23-0.04-0.32-0.13
		c-0.09-0.08-0.13-0.19-0.13-0.31c0-0.13,0.04-0.23,0.13-0.32c0.09-0.08,0.19-0.13,0.32-0.13s0.23,0.04,0.32,0.13
		C190.75,215.04,190.8,215.15,190.8,215.27z M190.69,219.95h-0.68v-3.43h0.68V219.95z"/>
	<path class="st0" d="M193.42,217.07h-0.91v1.78c0,0.21,0.04,0.36,0.12,0.44c0.08,0.09,0.2,0.13,0.37,0.13
		c0.06,0,0.13-0.01,0.2-0.02c0.07-0.01,0.14-0.03,0.2-0.06l0.02,0.56c-0.08,0.03-0.17,0.05-0.27,0.07c-0.1,0.02-0.2,0.03-0.31,0.03
		c-0.32,0-0.57-0.09-0.74-0.27s-0.26-0.45-0.26-0.8v-1.86h-0.66v-0.56h0.66v-0.99h0.67v0.99h0.91V217.07z"/>
	<path class="st0" d="M197.18,218.2c0,0.04,0,0.08,0,0.12c0,0.04,0,0.08-0.01,0.12h-2.73c0,0.14,0.04,0.28,0.1,0.41
		c0.06,0.13,0.14,0.24,0.24,0.33c0.1,0.09,0.22,0.17,0.35,0.22s0.27,0.08,0.42,0.08c0.23,0,0.43-0.05,0.6-0.15
		c0.17-0.1,0.3-0.22,0.4-0.37l0.48,0.38c-0.18,0.24-0.4,0.42-0.65,0.54c-0.25,0.12-0.53,0.17-0.83,0.17c-0.26,0-0.5-0.04-0.72-0.13
		s-0.41-0.21-0.57-0.37c-0.16-0.16-0.29-0.35-0.38-0.57c-0.09-0.22-0.14-0.47-0.14-0.74c0-0.27,0.04-0.51,0.13-0.74
		s0.21-0.42,0.37-0.58c0.16-0.16,0.35-0.28,0.57-0.37c0.22-0.09,0.45-0.13,0.7-0.13c0.25,0,0.48,0.04,0.69,0.12
		c0.21,0.08,0.38,0.2,0.52,0.36c0.14,0.15,0.25,0.34,0.33,0.56C197.14,217.68,197.18,217.92,197.18,218.2z M196.49,217.92
		c0-0.14-0.03-0.26-0.07-0.38s-0.1-0.22-0.18-0.31s-0.18-0.16-0.3-0.21c-0.12-0.05-0.26-0.08-0.42-0.08c-0.15,0-0.28,0.03-0.41,0.08
		c-0.13,0.05-0.24,0.12-0.33,0.21s-0.17,0.19-0.23,0.31s-0.1,0.25-0.1,0.38H196.49z"/>
	<path class="st0" d="M203.12,218.22c0,0.27-0.05,0.51-0.14,0.73c-0.09,0.22-0.22,0.42-0.39,0.58c-0.17,0.16-0.36,0.29-0.59,0.38
		c-0.23,0.09-0.47,0.13-0.73,0.13c-0.26,0-0.5-0.04-0.73-0.13c-0.23-0.09-0.42-0.21-0.59-0.38c-0.16-0.16-0.29-0.35-0.39-0.58
		c-0.09-0.22-0.14-0.47-0.14-0.73s0.05-0.51,0.14-0.73s0.22-0.41,0.39-0.57c0.16-0.16,0.36-0.28,0.59-0.37
		c0.23-0.09,0.47-0.13,0.73-0.13c0.26,0,0.5,0.04,0.73,0.13c0.23,0.09,0.42,0.21,0.59,0.37c0.17,0.16,0.3,0.35,0.39,0.57
		S203.12,217.96,203.12,218.22z M202.41,218.23c0-0.16-0.03-0.32-0.08-0.47s-0.12-0.28-0.22-0.39c-0.1-0.11-0.22-0.2-0.36-0.27
		s-0.31-0.1-0.49-0.1s-0.35,0.03-0.49,0.1s-0.26,0.16-0.36,0.27c-0.1,0.11-0.17,0.24-0.22,0.39s-0.08,0.31-0.08,0.47
		c0,0.16,0.03,0.32,0.08,0.47s0.12,0.28,0.22,0.4c0.1,0.12,0.22,0.21,0.36,0.27s0.31,0.1,0.49,0.1s0.35-0.03,0.49-0.1
		s0.26-0.16,0.36-0.27c0.1-0.12,0.17-0.25,0.22-0.4S202.41,218.39,202.41,218.23z"/>
	<path class="st0" d="M204.54,216.51c0.01,0.09,0.02,0.18,0.02,0.29c0,0.11,0.01,0.2,0.01,0.27h0.02c0.04-0.09,0.1-0.18,0.18-0.26
		c0.07-0.08,0.16-0.15,0.26-0.21s0.2-0.11,0.32-0.14c0.12-0.03,0.24-0.05,0.36-0.05c0.22,0,0.41,0.04,0.57,0.11
		c0.16,0.08,0.29,0.18,0.4,0.3c0.11,0.13,0.18,0.27,0.24,0.44s0.08,0.35,0.08,0.54v2.13h-0.68v-1.91c0-0.14-0.01-0.27-0.03-0.4
		c-0.02-0.12-0.06-0.24-0.12-0.33s-0.14-0.17-0.24-0.23c-0.1-0.06-0.23-0.09-0.39-0.09c-0.27,0-0.49,0.1-0.66,0.31
		s-0.26,0.48-0.26,0.82v1.83h-0.68v-2.7c0-0.09,0-0.21-0.01-0.36s-0.01-0.27-0.02-0.38H204.54z"/>
	<path class="st0" d="M210.37,217.03c0.08-0.17,0.22-0.31,0.42-0.43s0.42-0.18,0.67-0.18c0.22,0,0.41,0.04,0.57,0.11
		c0.16,0.08,0.29,0.18,0.4,0.3c0.11,0.13,0.19,0.27,0.24,0.44c0.05,0.17,0.08,0.35,0.08,0.54v2.13h-0.68v-1.9
		c0-0.14-0.01-0.27-0.03-0.4c-0.02-0.13-0.06-0.24-0.12-0.33c-0.06-0.1-0.14-0.17-0.24-0.23c-0.1-0.06-0.23-0.09-0.39-0.09
		c-0.27,0-0.49,0.1-0.67,0.31c-0.17,0.21-0.26,0.48-0.26,0.82v1.82h-0.68v-5.48h0.68v2.57H210.37z"/>
	<path class="st0" d="M216.96,218.2c0,0.04,0,0.08,0,0.12c0,0.04,0,0.08-0.01,0.12h-2.73c0,0.14,0.04,0.28,0.1,0.41
		c0.06,0.13,0.14,0.24,0.24,0.33c0.1,0.09,0.22,0.17,0.35,0.22s0.27,0.08,0.42,0.08c0.23,0,0.43-0.05,0.6-0.15
		c0.17-0.1,0.3-0.22,0.4-0.37l0.48,0.38c-0.18,0.24-0.4,0.42-0.65,0.54c-0.25,0.12-0.53,0.17-0.83,0.17c-0.26,0-0.5-0.04-0.72-0.13
		s-0.41-0.21-0.57-0.37c-0.16-0.16-0.29-0.35-0.38-0.57c-0.09-0.22-0.14-0.47-0.14-0.74c0-0.27,0.04-0.51,0.13-0.74
		s0.21-0.42,0.37-0.58c0.16-0.16,0.35-0.28,0.57-0.37c0.22-0.09,0.45-0.13,0.7-0.13c0.25,0,0.48,0.04,0.69,0.12
		c0.21,0.08,0.38,0.2,0.52,0.36c0.14,0.15,0.25,0.34,0.33,0.56C216.92,217.68,216.96,217.92,216.96,218.2z M216.26,217.92
		c0-0.14-0.03-0.26-0.07-0.38s-0.1-0.22-0.18-0.31s-0.18-0.16-0.3-0.21c-0.12-0.05-0.26-0.08-0.42-0.08c-0.15,0-0.28,0.03-0.41,0.08
		c-0.13,0.05-0.24,0.12-0.33,0.21s-0.17,0.19-0.23,0.31s-0.1,0.25-0.1,0.38H216.26z"/>
	<path class="st0" d="M217.75,216.9c0-0.14-0.01-0.27-0.02-0.38h0.65c0.01,0.09,0.02,0.19,0.02,0.3s0.01,0.21,0.01,0.28h0.02
		c0.1-0.2,0.24-0.37,0.42-0.49c0.19-0.12,0.39-0.19,0.63-0.19c0.11,0,0.2,0.01,0.27,0.03l-0.03,0.63c-0.1-0.02-0.2-0.04-0.31-0.04
		c-0.16,0-0.31,0.03-0.43,0.09s-0.22,0.14-0.3,0.24c-0.08,0.1-0.14,0.22-0.18,0.35s-0.06,0.27-0.06,0.42v1.8h-0.68v-2.7
		C217.76,217.16,217.75,217.04,217.75,216.9z"/>
	<path class="st0" d="M20.56,226.22c0-0.26-0.08-0.45-0.23-0.57c-0.15-0.12-0.36-0.18-0.62-0.18c-0.19,0-0.38,0.04-0.55,0.11
		c-0.17,0.08-0.31,0.17-0.43,0.29l-0.36-0.43c0.17-0.16,0.38-0.29,0.62-0.38s0.51-0.14,0.79-0.14c0.25,0,0.46,0.04,0.64,0.11
		s0.33,0.17,0.45,0.29c0.12,0.12,0.2,0.26,0.26,0.43c0.06,0.16,0.09,0.34,0.09,0.53v1.5c0,0.12,0,0.24,0.01,0.37
		s0.02,0.23,0.04,0.32h-0.62c-0.04-0.16-0.06-0.33-0.06-0.49h-0.02c-0.13,0.18-0.28,0.33-0.47,0.43s-0.42,0.15-0.68,0.15
		c-0.14,0-0.28-0.02-0.42-0.05s-0.28-0.09-0.4-0.18c-0.12-0.08-0.22-0.19-0.3-0.33c-0.08-0.14-0.12-0.3-0.12-0.5
		c0-0.26,0.07-0.47,0.21-0.62s0.32-0.27,0.55-0.35s0.48-0.13,0.77-0.16c0.29-0.02,0.57-0.04,0.86-0.04V226.22z M20.39,226.8
		c-0.17,0-0.34,0.01-0.53,0.02s-0.35,0.04-0.49,0.09c-0.15,0.04-0.27,0.11-0.37,0.2s-0.15,0.2-0.15,0.35c0,0.1,0.02,0.19,0.06,0.25
		c0.04,0.07,0.1,0.12,0.16,0.17c0.07,0.04,0.14,0.07,0.22,0.09c0.08,0.02,0.17,0.03,0.25,0.03c0.32,0,0.56-0.1,0.74-0.29
		c0.17-0.19,0.26-0.43,0.26-0.72v-0.18H20.39z"/>
	<path class="st0" d="M22.88,227.9v0.54h-0.66v-5.48h0.68v2.56h0.02c0.12-0.17,0.28-0.31,0.48-0.43s0.45-0.18,0.74-0.18
		c0.26,0,0.49,0.05,0.7,0.14c0.21,0.09,0.39,0.22,0.54,0.38c0.15,0.16,0.27,0.36,0.35,0.58c0.08,0.22,0.12,0.46,0.12,0.71
		s-0.04,0.49-0.12,0.71c-0.08,0.22-0.2,0.42-0.35,0.58s-0.33,0.29-0.54,0.39c-0.21,0.09-0.45,0.14-0.72,0.14
		c-0.25,0-0.48-0.05-0.7-0.16c-0.22-0.11-0.4-0.27-0.53-0.48H22.88z M25.16,226.72c0-0.16-0.02-0.31-0.07-0.46
		c-0.05-0.15-0.12-0.28-0.22-0.4c-0.1-0.12-0.22-0.21-0.36-0.27s-0.31-0.1-0.5-0.1c-0.17,0-0.33,0.03-0.47,0.1s-0.26,0.16-0.37,0.27
		c-0.1,0.12-0.18,0.25-0.24,0.4c-0.06,0.15-0.08,0.31-0.08,0.47s0.03,0.32,0.08,0.47c0.06,0.15,0.13,0.28,0.24,0.39
		c0.1,0.11,0.22,0.2,0.37,0.27s0.3,0.1,0.47,0.1c0.19,0,0.35-0.03,0.5-0.1s0.26-0.16,0.36-0.28c0.1-0.12,0.17-0.25,0.22-0.4
		C25.13,227.03,25.16,226.88,25.16,226.72z"/>
	<path class="st0" d="M29.41,227.9c-0.13,0.21-0.31,0.37-0.53,0.48c-0.22,0.11-0.46,0.16-0.71,0.16c-0.27,0-0.5-0.05-0.72-0.14
		c-0.21-0.09-0.39-0.22-0.54-0.39c-0.15-0.16-0.27-0.36-0.35-0.58c-0.08-0.22-0.12-0.46-0.12-0.71s0.04-0.49,0.12-0.71
		c0.08-0.22,0.2-0.41,0.35-0.58c0.15-0.17,0.33-0.29,0.55-0.38c0.21-0.09,0.45-0.14,0.7-0.14c0.28,0,0.52,0.06,0.73,0.18
		s0.37,0.26,0.49,0.43h0.01v-2.56h0.68v5.48h-0.66v-0.54H29.41z M27.14,226.72c0,0.16,0.02,0.31,0.07,0.46s0.12,0.28,0.22,0.4
		c0.1,0.12,0.21,0.21,0.35,0.28s0.3,0.1,0.49,0.1c0.17,0,0.33-0.03,0.47-0.1c0.14-0.07,0.26-0.16,0.37-0.27s0.18-0.24,0.24-0.39
		c0.06-0.15,0.08-0.31,0.08-0.47s-0.03-0.32-0.08-0.47c-0.06-0.15-0.13-0.28-0.24-0.4c-0.1-0.12-0.22-0.21-0.37-0.27
		c-0.14-0.07-0.3-0.1-0.47-0.1c-0.19,0-0.35,0.03-0.49,0.1s-0.26,0.16-0.35,0.27c-0.1,0.12-0.17,0.25-0.22,0.4
		S27.14,226.56,27.14,226.72z"/>
	<path class="st0" d="M34.6,226.72c0,0.27-0.05,0.51-0.14,0.73c-0.09,0.22-0.22,0.42-0.39,0.58c-0.17,0.16-0.36,0.29-0.59,0.38
		c-0.23,0.09-0.47,0.13-0.73,0.13c-0.26,0-0.5-0.04-0.73-0.13c-0.23-0.09-0.42-0.21-0.59-0.38c-0.16-0.16-0.29-0.35-0.39-0.58
		c-0.09-0.22-0.14-0.47-0.14-0.73s0.05-0.51,0.14-0.73s0.22-0.41,0.39-0.57c0.16-0.16,0.36-0.28,0.59-0.37
		c0.23-0.09,0.47-0.13,0.73-0.13c0.26,0,0.5,0.04,0.73,0.13c0.23,0.09,0.42,0.21,0.59,0.37c0.17,0.16,0.3,0.35,0.39,0.57
		S34.6,226.45,34.6,226.72z M33.89,226.72c0-0.16-0.03-0.32-0.08-0.47s-0.12-0.28-0.22-0.39c-0.1-0.11-0.22-0.2-0.36-0.27
		s-0.31-0.1-0.49-0.1s-0.35,0.03-0.49,0.1s-0.26,0.16-0.36,0.27c-0.1,0.11-0.17,0.24-0.22,0.39s-0.08,0.31-0.08,0.47
		c0,0.16,0.03,0.32,0.08,0.47s0.12,0.28,0.22,0.4c0.1,0.12,0.22,0.21,0.36,0.27s0.31,0.1,0.49,0.1s0.35-0.03,0.49-0.1
		s0.26-0.16,0.36-0.27c0.1-0.12,0.17-0.25,0.22-0.4S33.89,226.88,33.89,226.72z"/>
	<path class="st0" d="M36.48,225.11c0.19-0.13,0.42-0.19,0.68-0.19c0.23,0,0.44,0.05,0.63,0.16c0.19,0.11,0.33,0.28,0.44,0.53
		c0.12-0.22,0.28-0.39,0.49-0.51c0.21-0.12,0.44-0.18,0.68-0.18c0.22,0,0.41,0.04,0.57,0.11c0.16,0.08,0.29,0.18,0.4,0.3
		c0.11,0.13,0.18,0.27,0.24,0.44s0.08,0.35,0.08,0.54v2.13h-0.68v-1.91c0-0.14-0.01-0.27-0.04-0.4c-0.02-0.12-0.07-0.24-0.12-0.33
		c-0.06-0.1-0.14-0.17-0.23-0.23c-0.1-0.06-0.22-0.09-0.37-0.09c-0.15,0-0.29,0.03-0.4,0.1c-0.11,0.06-0.2,0.15-0.27,0.25
		c-0.07,0.1-0.12,0.22-0.15,0.35c-0.03,0.13-0.05,0.26-0.05,0.4v1.86h-0.68v-2.04c0-0.13-0.01-0.26-0.04-0.37
		c-0.02-0.11-0.07-0.21-0.12-0.29c-0.06-0.08-0.13-0.14-0.22-0.19s-0.21-0.07-0.34-0.07c-0.25,0-0.46,0.1-0.63,0.31
		s-0.25,0.48-0.25,0.82v1.83H35.4v-2.7c0-0.09,0-0.21-0.01-0.36s-0.01-0.27-0.02-0.38h0.65c0.01,0.09,0.02,0.18,0.02,0.29
		c0,0.11,0.01,0.2,0.01,0.27h0.02C36.15,225.39,36.29,225.23,36.48,225.11z"/>
	<path class="st0" d="M44.89,226.7c0,0.04,0,0.08,0,0.12c0,0.04,0,0.08-0.01,0.12h-2.73c0,0.14,0.04,0.28,0.1,0.41
		c0.06,0.13,0.14,0.24,0.24,0.33c0.1,0.09,0.22,0.17,0.35,0.22s0.27,0.08,0.42,0.08c0.23,0,0.43-0.05,0.6-0.15
		c0.17-0.1,0.3-0.22,0.4-0.37l0.48,0.38c-0.18,0.24-0.4,0.42-0.65,0.54c-0.25,0.12-0.53,0.17-0.83,0.17c-0.26,0-0.5-0.04-0.72-0.13
		s-0.41-0.21-0.57-0.37c-0.16-0.16-0.29-0.35-0.38-0.57c-0.09-0.22-0.14-0.47-0.14-0.74c0-0.27,0.04-0.51,0.13-0.74
		s0.21-0.42,0.37-0.58c0.16-0.16,0.35-0.28,0.57-0.37c0.22-0.09,0.45-0.13,0.7-0.13c0.25,0,0.48,0.04,0.69,0.12
		c0.21,0.08,0.38,0.2,0.52,0.36c0.14,0.15,0.25,0.34,0.33,0.56C44.85,226.17,44.89,226.42,44.89,226.7z M44.2,226.42
		c0-0.14-0.03-0.26-0.07-0.38s-0.1-0.22-0.18-0.31s-0.18-0.16-0.3-0.21c-0.12-0.05-0.26-0.08-0.42-0.08c-0.15,0-0.28,0.03-0.41,0.08
		c-0.13,0.05-0.24,0.12-0.33,0.21s-0.17,0.19-0.23,0.31s-0.1,0.25-0.1,0.38H44.2z"/>
	<path class="st0" d="M46.3,225.01c0.01,0.09,0.02,0.18,0.02,0.29c0,0.11,0.01,0.2,0.01,0.27h0.02c0.04-0.09,0.1-0.18,0.18-0.26
		c0.07-0.08,0.16-0.15,0.26-0.21s0.2-0.11,0.32-0.14c0.12-0.03,0.24-0.05,0.36-0.05c0.22,0,0.41,0.04,0.57,0.11
		c0.16,0.08,0.29,0.18,0.4,0.3c0.11,0.13,0.18,0.27,0.24,0.44s0.08,0.35,0.08,0.54v2.13h-0.68v-1.91c0-0.14-0.01-0.27-0.03-0.4
		c-0.02-0.12-0.06-0.24-0.12-0.33s-0.14-0.17-0.24-0.23c-0.1-0.06-0.23-0.09-0.39-0.09c-0.27,0-0.49,0.1-0.66,0.31
		s-0.26,0.48-0.26,0.82v1.83h-0.68v-2.7c0-0.09,0-0.21-0.01-0.36s-0.01-0.27-0.02-0.38H46.3z"/>
	<path class="st0" d="M50.6,228.01c0,0.12-0.05,0.24-0.14,0.33c-0.09,0.1-0.21,0.15-0.35,0.15c-0.14,0-0.25-0.05-0.34-0.14
		c-0.09-0.09-0.14-0.2-0.14-0.33c0-0.13,0.05-0.24,0.14-0.34c0.09-0.09,0.21-0.14,0.35-0.14s0.26,0.05,0.35,0.14
		C50.55,227.77,50.6,227.88,50.6,228.01z"/>
	<path class="st0" d="M53.7,228.44h-0.72v-5.13h1.65c0.25,0,0.48,0.03,0.7,0.08c0.22,0.05,0.42,0.13,0.58,0.24
		c0.17,0.11,0.3,0.26,0.4,0.44c0.1,0.18,0.15,0.4,0.15,0.66c0,0.38-0.12,0.68-0.35,0.91c-0.23,0.23-0.53,0.38-0.9,0.44l1.44,2.36
		h-0.87l-1.3-2.28H53.7V228.44z M53.7,225.56h0.83c0.17,0,0.33-0.01,0.47-0.04c0.15-0.03,0.27-0.08,0.38-0.14
		c0.11-0.07,0.19-0.15,0.26-0.25c0.06-0.1,0.09-0.23,0.09-0.39s-0.03-0.28-0.09-0.39c-0.06-0.1-0.15-0.19-0.25-0.25
		s-0.23-0.11-0.37-0.13c-0.14-0.03-0.29-0.04-0.44-0.04H53.7V225.56z"/>
	<path class="st0" d="M60.38,226.7c0,0.04,0,0.08,0,0.12c0,0.04,0,0.08-0.01,0.12h-2.73c0,0.14,0.04,0.28,0.1,0.41
		c0.06,0.13,0.14,0.24,0.24,0.33c0.1,0.09,0.22,0.17,0.35,0.22s0.27,0.08,0.42,0.08c0.23,0,0.43-0.05,0.6-0.15
		c0.17-0.1,0.3-0.22,0.4-0.37l0.48,0.38c-0.18,0.24-0.4,0.42-0.65,0.54c-0.25,0.12-0.53,0.17-0.83,0.17c-0.26,0-0.5-0.04-0.72-0.13
		s-0.41-0.21-0.57-0.37c-0.16-0.16-0.29-0.35-0.38-0.57c-0.09-0.22-0.14-0.47-0.14-0.74c0-0.27,0.04-0.51,0.13-0.74
		s0.21-0.42,0.37-0.58c0.16-0.16,0.35-0.28,0.57-0.37c0.22-0.09,0.45-0.13,0.7-0.13c0.25,0,0.48,0.04,0.69,0.12
		c0.21,0.08,0.38,0.2,0.52,0.36c0.14,0.15,0.25,0.34,0.33,0.56C60.34,226.17,60.38,226.42,60.38,226.7z M59.68,226.42
		c0-0.14-0.03-0.26-0.07-0.38s-0.1-0.22-0.18-0.31s-0.18-0.16-0.3-0.21c-0.12-0.05-0.26-0.08-0.42-0.08c-0.15,0-0.28,0.03-0.41,0.08
		c-0.13,0.05-0.24,0.12-0.33,0.21s-0.17,0.19-0.23,0.31s-0.1,0.25-0.1,0.38H59.68z"/>
	<path class="st0" d="M63.03,225.88c-0.08-0.12-0.19-0.23-0.33-0.31c-0.14-0.08-0.3-0.12-0.47-0.12c-0.08,0-0.15,0.01-0.23,0.03
		c-0.08,0.02-0.15,0.04-0.21,0.08s-0.11,0.08-0.15,0.14s-0.05,0.12-0.05,0.21c0,0.15,0.06,0.25,0.2,0.32
		c0.13,0.07,0.33,0.13,0.59,0.19c0.16,0.04,0.32,0.08,0.46,0.14c0.14,0.05,0.26,0.12,0.37,0.2c0.1,0.08,0.18,0.18,0.24,0.29
		c0.06,0.11,0.09,0.24,0.09,0.39c0,0.2-0.04,0.38-0.12,0.51c-0.08,0.14-0.18,0.25-0.31,0.34c-0.13,0.09-0.27,0.15-0.44,0.19
		c-0.16,0.04-0.33,0.06-0.51,0.06c-0.26,0-0.52-0.05-0.76-0.15c-0.25-0.1-0.46-0.26-0.62-0.46l0.49-0.41
		c0.09,0.13,0.22,0.25,0.38,0.34c0.16,0.09,0.34,0.14,0.53,0.14c0.09,0,0.17-0.01,0.25-0.03c0.08-0.02,0.15-0.04,0.22-0.08
		c0.07-0.04,0.12-0.09,0.16-0.15c0.04-0.06,0.06-0.14,0.06-0.24c0-0.16-0.08-0.28-0.23-0.36c-0.15-0.08-0.38-0.15-0.67-0.22
		c-0.12-0.03-0.23-0.06-0.35-0.1s-0.23-0.1-0.32-0.17c-0.1-0.07-0.18-0.16-0.24-0.27c-0.06-0.11-0.09-0.24-0.09-0.4
		c0-0.18,0.04-0.34,0.11-0.47c0.07-0.13,0.17-0.24,0.29-0.33c0.12-0.08,0.26-0.15,0.41-0.19c0.15-0.04,0.31-0.06,0.48-0.06
		c0.25,0,0.48,0.05,0.71,0.15s0.41,0.24,0.53,0.42L63.03,225.88z"/>
	<path class="st0" d="M66.67,228.44c-0.01-0.09-0.02-0.18-0.02-0.29c0-0.11-0.01-0.2-0.01-0.27h-0.01
		c-0.09,0.18-0.23,0.34-0.44,0.47c-0.21,0.13-0.43,0.19-0.68,0.19c-0.22,0-0.41-0.04-0.58-0.11c-0.16-0.07-0.29-0.17-0.4-0.3
		c-0.1-0.13-0.18-0.28-0.23-0.45c-0.05-0.17-0.08-0.35-0.08-0.54v-2.13h0.68v1.9c0,0.14,0.01,0.27,0.03,0.4
		c0.02,0.13,0.06,0.24,0.12,0.34c0.06,0.1,0.14,0.17,0.24,0.23c0.1,0.06,0.23,0.09,0.39,0.09c0.27,0,0.5-0.1,0.67-0.31
		c0.17-0.21,0.25-0.48,0.25-0.82v-1.83h0.68v2.7c0,0.09,0,0.21,0.01,0.36c0,0.14,0.01,0.27,0.02,0.38H66.67z"/>
	<path class="st0" d="M69.01,228.44h-0.68v-5.48h0.68V228.44z"/>
	<path class="st0" d="M71.74,225.57h-0.91v1.78c0,0.21,0.04,0.36,0.12,0.44c0.08,0.09,0.2,0.13,0.37,0.13c0.06,0,0.13-0.01,0.2-0.02
		c0.07-0.01,0.14-0.03,0.2-0.06l0.02,0.56c-0.08,0.03-0.17,0.05-0.27,0.07c-0.1,0.02-0.2,0.03-0.31,0.03
		c-0.32,0-0.57-0.09-0.74-0.27s-0.26-0.45-0.26-0.8v-1.86h-0.66v-0.56h0.66v-0.99h0.67v0.99h0.91V225.57z"/>
	<path class="st0" d="M74.15,225.88c-0.08-0.12-0.19-0.23-0.33-0.31c-0.14-0.08-0.3-0.12-0.47-0.12c-0.08,0-0.15,0.01-0.23,0.03
		c-0.08,0.02-0.15,0.04-0.21,0.08s-0.11,0.08-0.15,0.14s-0.05,0.12-0.05,0.21c0,0.15,0.06,0.25,0.2,0.32
		c0.13,0.07,0.33,0.13,0.59,0.19c0.16,0.04,0.32,0.08,0.46,0.14c0.14,0.05,0.26,0.12,0.37,0.2c0.1,0.08,0.18,0.18,0.24,0.29
		c0.06,0.11,0.09,0.24,0.09,0.39c0,0.2-0.04,0.38-0.12,0.51c-0.08,0.14-0.18,0.25-0.31,0.34c-0.13,0.09-0.27,0.15-0.44,0.19
		c-0.16,0.04-0.33,0.06-0.51,0.06c-0.26,0-0.52-0.05-0.76-0.15c-0.25-0.1-0.46-0.26-0.62-0.46l0.49-0.41
		c0.09,0.13,0.22,0.25,0.38,0.34c0.16,0.09,0.34,0.14,0.53,0.14c0.09,0,0.17-0.01,0.25-0.03c0.08-0.02,0.15-0.04,0.22-0.08
		c0.07-0.04,0.12-0.09,0.16-0.15c0.04-0.06,0.06-0.14,0.06-0.24c0-0.16-0.08-0.28-0.23-0.36c-0.15-0.08-0.38-0.15-0.67-0.22
		c-0.12-0.03-0.23-0.06-0.35-0.1s-0.23-0.1-0.32-0.17c-0.1-0.07-0.18-0.16-0.24-0.27c-0.06-0.11-0.09-0.24-0.09-0.4
		c0-0.18,0.04-0.34,0.11-0.47c0.07-0.13,0.17-0.24,0.29-0.33c0.12-0.08,0.26-0.15,0.41-0.19c0.15-0.04,0.31-0.06,0.48-0.06
		c0.25,0,0.48,0.05,0.71,0.15s0.41,0.24,0.53,0.42L74.15,225.88z"/>
	<path class="st0" d="M78.12,225.11c0.19-0.13,0.42-0.19,0.68-0.19c0.23,0,0.44,0.05,0.63,0.16c0.19,0.11,0.33,0.28,0.44,0.53
		c0.12-0.22,0.28-0.39,0.49-0.51c0.21-0.12,0.44-0.18,0.68-0.18c0.22,0,0.41,0.04,0.57,0.11c0.16,0.08,0.29,0.18,0.4,0.3
		c0.11,0.13,0.18,0.27,0.24,0.44s0.08,0.35,0.08,0.54v2.13h-0.68v-1.91c0-0.14-0.01-0.27-0.04-0.4c-0.02-0.12-0.07-0.24-0.12-0.33
		c-0.06-0.1-0.14-0.17-0.23-0.23c-0.1-0.06-0.22-0.09-0.37-0.09c-0.15,0-0.29,0.03-0.4,0.1c-0.11,0.06-0.2,0.15-0.27,0.25
		c-0.07,0.1-0.12,0.22-0.15,0.35c-0.03,0.13-0.05,0.26-0.05,0.4v1.86h-0.68v-2.04c0-0.13-0.01-0.26-0.04-0.37
		c-0.02-0.11-0.07-0.21-0.12-0.29c-0.06-0.08-0.13-0.14-0.22-0.19s-0.21-0.07-0.34-0.07c-0.25,0-0.46,0.1-0.63,0.31
		s-0.25,0.48-0.25,0.82v1.83h-0.68v-2.7c0-0.09,0-0.21-0.01-0.36s-0.01-0.27-0.02-0.38h0.65c0.01,0.09,0.02,0.18,0.02,0.29
		c0,0.11,0.01,0.2,0.01,0.27h0.02C77.79,225.39,77.93,225.23,78.12,225.11z"/>
	<path class="st0" d="M85.46,226.22c0-0.26-0.08-0.45-0.23-0.57c-0.15-0.12-0.36-0.18-0.62-0.18c-0.19,0-0.38,0.04-0.55,0.11
		c-0.17,0.08-0.31,0.17-0.43,0.29l-0.36-0.43c0.17-0.16,0.38-0.29,0.62-0.38s0.51-0.14,0.79-0.14c0.25,0,0.46,0.04,0.64,0.11
		s0.33,0.17,0.45,0.29c0.12,0.12,0.2,0.26,0.26,0.43c0.06,0.16,0.09,0.34,0.09,0.53v1.5c0,0.12,0,0.24,0.01,0.37
		s0.02,0.23,0.04,0.32h-0.62c-0.04-0.16-0.06-0.33-0.06-0.49h-0.02c-0.13,0.18-0.28,0.33-0.47,0.43s-0.42,0.15-0.68,0.15
		c-0.14,0-0.28-0.02-0.42-0.05s-0.28-0.09-0.4-0.18c-0.12-0.08-0.22-0.19-0.3-0.33c-0.08-0.14-0.12-0.3-0.12-0.5
		c0-0.26,0.07-0.47,0.21-0.62s0.32-0.27,0.55-0.35s0.48-0.13,0.77-0.16c0.29-0.02,0.57-0.04,0.86-0.04V226.22z M85.29,226.8
		c-0.17,0-0.34,0.01-0.53,0.02s-0.35,0.04-0.49,0.09c-0.15,0.04-0.27,0.11-0.37,0.2s-0.15,0.2-0.15,0.35c0,0.1,0.02,0.19,0.06,0.25
		c0.04,0.07,0.1,0.12,0.16,0.17c0.07,0.04,0.14,0.07,0.22,0.09c0.08,0.02,0.17,0.03,0.25,0.03c0.32,0,0.56-0.1,0.74-0.29
		c0.17-0.19,0.26-0.43,0.26-0.72v-0.18H85.29z"/>
	<path class="st0" d="M88.4,227.7h0.01l0.95-2.7h0.72l-1.67,4.25c-0.06,0.14-0.12,0.27-0.19,0.39c-0.07,0.11-0.15,0.21-0.24,0.29
		c-0.09,0.08-0.2,0.14-0.32,0.18c-0.12,0.04-0.27,0.07-0.44,0.07c-0.07,0-0.15,0-0.22-0.01c-0.07-0.01-0.15-0.02-0.23-0.04l0.07-0.6
		c0.12,0.04,0.23,0.06,0.34,0.06c0.18,0,0.31-0.05,0.4-0.15c0.09-0.1,0.17-0.24,0.24-0.42l0.22-0.57l-1.47-3.43h0.76L88.4,227.7z"/>
	<path class="st0" d="M93.89,228.44h-0.74l-1.4-3.43h0.75l1.01,2.7h0.01l1.01-2.7h0.72L93.89,228.44z"/>
	<path class="st0" d="M97.92,226.22c0-0.26-0.08-0.45-0.23-0.57c-0.15-0.12-0.36-0.18-0.62-0.18c-0.19,0-0.38,0.04-0.55,0.11
		c-0.17,0.08-0.31,0.17-0.43,0.29l-0.36-0.43c0.17-0.16,0.38-0.29,0.62-0.38s0.51-0.14,0.79-0.14c0.25,0,0.46,0.04,0.64,0.11
		s0.33,0.17,0.45,0.29c0.12,0.12,0.2,0.26,0.26,0.43c0.06,0.16,0.09,0.34,0.09,0.53v1.5c0,0.12,0,0.24,0.01,0.37
		s0.02,0.23,0.04,0.32h-0.62c-0.04-0.16-0.06-0.33-0.06-0.49h-0.02c-0.13,0.18-0.28,0.33-0.47,0.43s-0.42,0.15-0.68,0.15
		c-0.14,0-0.28-0.02-0.42-0.05s-0.28-0.09-0.4-0.18c-0.12-0.08-0.22-0.19-0.3-0.33c-0.08-0.14-0.12-0.3-0.12-0.5
		c0-0.26,0.07-0.47,0.21-0.62s0.32-0.27,0.55-0.35s0.48-0.13,0.77-0.16c0.29-0.02,0.57-0.04,0.86-0.04V226.22z M97.75,226.8
		c-0.17,0-0.34,0.01-0.53,0.02s-0.35,0.04-0.49,0.09c-0.15,0.04-0.27,0.11-0.37,0.2s-0.15,0.2-0.15,0.35c0,0.1,0.02,0.19,0.06,0.25
		c0.04,0.07,0.1,0.12,0.16,0.17c0.07,0.04,0.14,0.07,0.22,0.09c0.08,0.02,0.17,0.03,0.25,0.03c0.32,0,0.56-0.1,0.74-0.29
		c0.17-0.19,0.26-0.43,0.26-0.72v-0.18H97.75z"/>
	<path class="st0" d="M99.56,225.39c0-0.14-0.01-0.27-0.02-0.38h0.65c0.01,0.09,0.02,0.19,0.02,0.3s0.01,0.21,0.01,0.28h0.02
		c0.1-0.2,0.24-0.37,0.42-0.49c0.19-0.12,0.39-0.19,0.63-0.19c0.11,0,0.2,0.01,0.27,0.03l-0.03,0.63c-0.1-0.02-0.2-0.04-0.31-0.04
		c-0.16,0-0.31,0.03-0.43,0.09s-0.22,0.14-0.3,0.24c-0.08,0.1-0.14,0.22-0.18,0.35s-0.06,0.27-0.06,0.42v1.8h-0.68v-2.7
		C99.56,225.66,99.56,225.54,99.56,225.39z"/>
	<path class="st0" d="M103.35,227.7h0.01l0.95-2.7h0.72l-1.67,4.25c-0.06,0.14-0.12,0.27-0.19,0.39c-0.07,0.11-0.15,0.21-0.24,0.29
		c-0.09,0.08-0.2,0.14-0.32,0.18c-0.12,0.04-0.27,0.07-0.44,0.07c-0.07,0-0.15,0-0.22-0.01c-0.07-0.01-0.15-0.02-0.23-0.04l0.07-0.6
		c0.12,0.04,0.23,0.06,0.34,0.06c0.18,0,0.31-0.05,0.4-0.15c0.09-0.1,0.17-0.24,0.24-0.42l0.22-0.57l-1.47-3.43h0.76L103.35,227.7z"
		/>
	<path class="st0" d="M106.13,228.01c0,0.12-0.05,0.24-0.14,0.33c-0.09,0.1-0.21,0.15-0.35,0.15c-0.14,0-0.25-0.05-0.34-0.14
		c-0.09-0.09-0.14-0.2-0.14-0.33c0-0.13,0.05-0.24,0.14-0.34c0.09-0.09,0.21-0.14,0.35-0.14s0.26,0.05,0.35,0.14
		C106.08,227.77,106.13,227.88,106.13,228.01z"/>
</g>
</svg>
