<?xml version="1.0" encoding="utf-8"?>
<!-- Generator: Adobe Illustrator 25.2.1, SVG Export Plug-In . SVG Version: 6.00 Build 0)  -->
<svg version="1.1" id="Layer_1" xmlns="http://www.w3.org/2000/svg" xmlns:xlink="http://www.w3.org/1999/xlink" x="0px" y="0px"
	 viewBox="0 0 500 281" style="enable-background:new 0 0 500 281;" xml:space="preserve">
<style type="text/css">
	.st0{fill:#FFFFFF;}
</style>
<g>
	<g>
		<g>
			<g>
				<path class="st0" d="M32.18,33.35c0,0.31-0.25,0.55-0.56,0.55c-0.31,0-0.56-0.24-0.56-0.55c0-0.31,0.25-0.54,0.56-0.54
					C31.94,32.81,32.18,33.05,32.18,33.35z M31.2,33.35c0,0.24,0.18,0.44,0.43,0.44c0.24,0,0.41-0.19,0.41-0.43
					c0-0.24-0.18-0.44-0.42-0.44C31.38,32.92,31.2,33.12,31.2,33.35z M31.54,33.64h-0.13v-0.54c0.05-0.01,0.12-0.02,0.21-0.02
					c0.1,0,0.15,0.02,0.19,0.04c0.03,0.02,0.06,0.06,0.06,0.12c0,0.07-0.05,0.11-0.11,0.13v0.01c0.05,0.02,0.08,0.06,0.1,0.13
					c0.02,0.08,0.03,0.11,0.04,0.13h-0.13c-0.02-0.02-0.03-0.07-0.04-0.13c-0.01-0.06-0.04-0.08-0.11-0.08h-0.06V33.64z
					 M31.54,33.33h0.06c0.07,0,0.13-0.02,0.13-0.08c0-0.05-0.04-0.08-0.12-0.08c-0.03,0-0.06,0-0.07,0.01V33.33z"/>
			</g>
		</g>
	</g>
	<path class="st0" d="M40.33,31.46c-2.71,0-4.02-1.98-4.02-3.88c0-2.19,1.58-3.95,4.06-3.95c0.84,0,1.72,0.26,2.41,0.84l-0.77,1.07
		c-0.47-0.37-0.98-0.5-1.59-0.5c-1.32,0-2.3,0.92-2.3,2.5c0,1.44,0.9,2.59,2.34,2.59c0.61,0,1.15-0.18,1.63-0.6l0.7,1.07
		C42.13,31.18,41.21,31.46,40.33,31.46"/>
	<path class="st0" d="M46.97,31.46c-2.27,0-3.94-1.71-3.94-3.95c0-2.3,1.82-3.88,3.94-3.88c2.11,0,3.95,1.56,3.95,3.86
		C50.93,29.75,49.26,31.46,46.97,31.46 M49.1,27.51c0-1.38-0.68-2.57-2.13-2.57c-1.43,0-2.13,1.19-2.13,2.56
		c0,1.41,0.66,2.67,2.13,2.67c1.47,0,2.13-1.24,2.13-2.67V27.51z"/>
	<path class="st0" d="M55.52,31.46c-2.27,0-3.94-1.71-3.94-3.95c0-2.3,1.82-3.88,3.94-3.88c2.11,0,3.95,1.56,3.95,3.86
		C59.48,29.75,57.81,31.46,55.52,31.46 M57.65,27.51c0-1.38-0.67-2.57-2.13-2.57c-1.43,0-2.13,1.19-2.13,2.56
		c0,1.41,0.66,2.67,2.13,2.67c1.47,0,2.13-1.24,2.13-2.67V27.51z"/>
	<polygon class="st0" points="60.37,31.28 60.37,20.3 62.07,21.24 62.07,31.28 	"/>
	<path class="st0" d="M65.99,31.51c-1.92,0-2.84-0.92-2.84-0.92l0.77-1c0,0,0.87,0.58,2.02,0.58c0.55,0,1.01-0.38,1.01-0.77
		c0-0.38-0.17-0.71-0.68-0.97c-0.51-0.26-1.07-0.54-1.52-0.75c-0.44-0.22-1.42-0.87-1.42-2.16c0-1.3,1.32-2.02,2.67-2.02
		c1.29,0,2.27,0.84,2.27,0.84l-0.66,1.01c0,0-0.74-0.52-1.55-0.52c-0.81,0-0.98,0.52-0.98,0.74c0,0.21,0.08,0.55,0.6,0.83
		c0.52,0.28,1.06,0.57,1.82,1c0.77,0.43,1.2,1.16,1.2,1.99C68.7,30.22,67.91,31.51,65.99,31.51"/>
	<path class="st0" d="M73.3,31.46c-2.71,0-4.02-1.98-4.02-3.88c0-2.19,1.58-3.95,4.06-3.95c0.84,0,1.72,0.26,2.41,0.84l-0.77,1.07
		c-0.47-0.37-0.98-0.5-1.59-0.5c-1.32,0-2.3,0.92-2.3,2.5c0,1.44,0.9,2.59,2.34,2.59c0.61,0,1.15-0.18,1.62-0.6l0.7,1.07
		C75.1,31.18,74.18,31.46,73.3,31.46"/>
	<path class="st0" d="M81.69,30.4c0,0-0.86,1.06-2.48,1.06c-1.92,0-2.85-1.39-2.85-2.8V23.8h1.7v4.78c0,0.83,0.64,1.52,1.64,1.52
		c0.87,0,1.73-1.04,1.73-1.04V23.8h1.7v7.46L81.69,30.4z"/>
	<polygon class="st0" points="84.65,31.28 84.65,20.3 86.35,21.24 86.35,31.28 	"/>
	<path class="st0" d="M91.97,31.46c-1.5,0-2.36-0.84-2.36-0.84v3.72h-1.72v-10.7l1.72,0.9c0,0,0.92-0.93,2.45-0.93
		c1.61,0,3.62,1.24,3.62,4.01C95.68,30.4,93.7,31.46,91.97,31.46 M91.86,24.93c-1.46,0-2.3,1.36-2.3,1.36v2.82
		c0,0,0.97,1.09,2.36,1.09c1.63,0,1.98-1.95,1.98-2.62C93.9,26.91,93.75,24.93,91.86,24.93"/>
	<path class="st0" d="M100.16,31.48h-1.07c-1.35,0-1.81-1.3-1.81-2.16v-4.4h-1.35V23.8h1.35v-3.3h1.69v3.3h1.73v1.12h-1.72v3.98
		c0,0.45-0.08,1.15,0.67,1.15h1.23L100.16,31.48z"/>
	<path class="st0" d="M102.88,22.51c-0.61,0-1.12-0.5-1.12-1.12c0-0.61,0.51-1.12,1.12-1.12c0.61,0,1.12,0.5,1.12,1.12
		C104,22,103.5,22.51,102.88,22.51 M102.04,23.8h1.67v7.48h-1.67V23.8z"/>
	<path class="st0" d="M110.46,31.28v-4.78c0-0.83-0.64-1.52-1.64-1.52c-0.88,0-1.86,1.04-1.86,1.04v5.26h-1.7v-7.46l1.44,0.86
		c0,0,0.98-1.06,2.61-1.06c1.92,0,2.85,1.39,2.85,2.8v4.86H110.46z"/>
	<path class="st0" d="M117.35,34.75c-0.26,0-2.26-0.03-2.26-0.03l0.03-1.36h1.68c1.62,0,2.54-0.87,2.54-2.07v-0.67
		c0,0-0.89,0.85-2.39,0.85c-1.73,0-3.71-1.06-3.71-3.83c0-2.77,2.01-4.01,3.62-4.01c1.53,0,2.45,0.93,2.45,0.93l1.72-0.86v7.43
		C121.03,33.13,119.7,34.75,117.35,34.75 M119.36,26.3c0,0-0.84-1.36-2.3-1.36c-1.88,0-2.04,1.97-2.04,2.65
		c0,0.67,0.35,2.62,1.98,2.62c1.4,0,2.36-1.09,2.36-1.09V26.3z"/>
	<polygon class="st0" points="21.08,36.95 21.08,32.06 22.05,31.1 24.82,33.87 24.82,34.8 	"/>
	<polygon class="st0" points="19.09,27.87 15.96,31.01 19.79,32.45 24.37,27.87 	"/>
	<polygon class="st0" points="20.64,23.51 16.6,23.51 17.89,27.23 24.37,27.23 	"/>
	<polygon class="st0" points="24.82,21.51 21.7,18.39 20.25,22.21 24.82,26.78 	"/>
	<polygon class="st0" points="34.25,31.6 29.64,31.6 25.91,27.87 32.38,27.87 	"/>
	<polygon class="st0" points="30.48,22.66 34.67,23.75 31.19,27.24 25.91,27.24 	"/>
	<polygon class="st0" points="25.46,20.31 29.19,18.1 29.19,23.05 25.46,26.78 	"/>
	<polygon class="st0" points="30.21,33.08 29.01,37.16 22.5,30.65 25.14,28.01 	"/>
	<g>
		<path class="st0" d="M123.57,24.3c0,0.44-0.36,0.79-0.81,0.79c-0.45,0-0.81-0.35-0.81-0.79c0-0.44,0.36-0.79,0.82-0.79
			C123.22,23.51,123.57,23.86,123.57,24.3z M122.15,24.3c0,0.35,0.27,0.63,0.62,0.63c0.34,0,0.6-0.28,0.6-0.63
			c0-0.35-0.26-0.63-0.61-0.63C122.42,23.67,122.15,23.96,122.15,24.3z M122.64,24.71h-0.18v-0.79c0.07-0.01,0.17-0.02,0.3-0.02
			c0.15,0,0.22,0.02,0.27,0.06c0.05,0.03,0.08,0.09,0.08,0.17c0,0.1-0.07,0.16-0.16,0.19v0.01c0.08,0.02,0.11,0.09,0.14,0.19
			c0.02,0.12,0.04,0.17,0.06,0.19h-0.19c-0.02-0.03-0.04-0.1-0.06-0.19c-0.01-0.08-0.06-0.12-0.16-0.12h-0.09V24.71z M122.64,24.27
			h0.09c0.1,0,0.18-0.03,0.18-0.11c0-0.07-0.05-0.12-0.17-0.12c-0.05,0-0.08,0.01-0.1,0.01V24.27z"/>
	</g>
</g>
<g>
	<path class="st0" d="M128.25,23.06h5.3v1.24h-3.88v2.04h3.67v1.2h-3.67v2.26h4.08v1.27h-5.51V23.06z"/>
	<path class="st0" d="M137.86,23.06h1.42v6.74h3.4v1.27h-4.83V23.06z"/>
	<path class="st0" d="M146.35,23.06h1.42v8.01h-1.42V23.06z"/>
	<path class="st0" d="M153.87,24.31h-2.45v-1.24h6.33v1.24h-2.45v6.76h-1.42V24.31z"/>
	<path class="st0" d="M161.38,23.06h5.3v1.24h-3.88v2.04h3.67v1.2h-3.67v2.26h4.08v1.27h-5.51V23.06z"/>
</g>
</svg>
