<svg id="Layer_1" xmlns="http://www.w3.org/2000/svg" viewBox="0 0 160 600"><style>.st0{fill:#002554}</style><path class="st0" d="M37.92 54.4h6.59v1.73h-4.59v8.02h4v1.73h-4v9.76h4.59v1.73h-6.59V54.4zM47.91 54.4h2v21.24h4.26v1.73h-6.26V54.4zM57.43 54.4h2v22.97h-2V54.4zM63.49 54.4h3.16l2.56 16.95h.07l2.56-16.95h3.3v22.97h-2V56.83h-.07l-3.1 20.54h-1.56l-3.1-20.54h-.07v20.54h-1.76V54.4zM79.2 54.4h2v22.97h-2V54.4zM85.26 54.4h2.6l3.63 16.81h.07V54.4h1.8v22.97H91.2l-4.06-18.94h-.07v18.94h-1.8V54.4zM99.55 54.4h2.63l2.9 22.97h-2.03l-.67-5.69h-3.13l-.67 5.69h-1.93l2.9-22.97zm2.63 15.54l-1.33-12.39h-.07l-1.33 12.39h2.73zM109.23 56.13h-2.8V54.4h7.59v1.73h-2.8v21.24h-2V56.13zM117.29 54.4h6.59v1.73h-4.59v8.02h4v1.73h-4v9.76h4.59v1.73h-6.59V54.4zM19.6 103.58v-4.03h1.93v3.66c0 1.9.53 2.66 1.86 2.66 1.37 0 1.9-.77 1.9-2.66v-3.46c0-1.56-.43-2.33-1.56-3.06l-1.76-1.13c-1.7-1.1-2.36-2.36-2.36-4.59V88c0-2.53 1.36-3.96 3.73-3.96 2.36 0 3.73 1.43 3.73 3.96v2.96h-1.93v-2.63c0-1.8-.5-2.5-1.76-2.5s-1.76.7-1.76 2.5v2.5c0 1.56.43 2.33 1.56 3.06l1.76 1.13c1.7 1.1 2.36 2.36 2.36 4.59v3.96c0 2.63-1.43 4.1-3.86 4.1-2.44.01-3.84-1.46-3.84-4.09zM32.81 86.1h-2.8v-1.73h7.59v1.73h-2.8v21.24h-2V86.1zM40.8 103.65V84.37h2v18.91c0 1.86.47 2.6 1.8 2.6s1.8-.73 1.8-2.6V84.37h1.93v19.28c0 2.56-1.4 4.03-3.76 4.03-2.37 0-3.77-1.47-3.77-4.03zM52.32 84.37h3.7c2.66 0 3.93 1.36 3.93 4.16v2.76c0 1.86-.57 3-1.73 3.53v.07c1.27.53 1.86 1.66 1.86 3.6v4.69c0 2.8-1.27 4.16-3.93 4.16h-3.83V84.37zm3.46 9.76c1.67 0 2.16-.63 2.16-2.73v-2.53c0-2.13-.5-2.76-2.16-2.76h-1.46v8.02h1.46zm.14 11.48c1.66 0 2.16-.63 2.16-2.76v-4.23c0-2.13-.5-2.76-2.16-2.76h-1.6v9.76h1.6zM63.84 84.37h3.7c2.66 0 3.93 1.36 3.93 4.16v2.76c0 1.86-.57 3-1.73 3.53v.07c1.27.53 1.86 1.66 1.86 3.6v4.69c0 2.8-1.27 4.16-3.93 4.16h-3.83V84.37zm3.46 9.76c1.67 0 2.16-.63 2.16-2.73v-2.53c0-2.13-.5-2.76-2.16-2.76h-1.46v8.02h1.46zm.14 11.48c1.66 0 2.16-.63 2.16-2.76v-4.23c0-2.13-.5-2.76-2.16-2.76h-1.6v9.76h1.6zM75.23 103.52V88.2c0-2.66 1.43-4.16 3.86-4.16 2.43 0 3.86 1.5 3.86 4.16v15.32c0 2.66-1.43 4.16-3.86 4.16-2.43 0-3.86-1.5-3.86-4.16zm5.72-.34V88.53c0-1.93-.53-2.7-1.86-2.7-1.37 0-1.86.77-1.86 2.7v14.65c0 1.93.5 2.7 1.86 2.7 1.33 0 1.86-.77 1.86-2.7zM86.88 84.37h3.7c2.66 0 3.93 1.36 3.93 4.16v2.93c0 1.86-.6 3-1.8 3.53v.07c1.2.53 1.8 1.66 1.8 3.56v8.72h-2v-8.59c0-2.13-.6-2.76-2.5-2.76h-1.13v11.35h-2V84.37zm3.46 9.89c1.66 0 2.16-.63 2.16-2.76v-2.63c0-2.13-.5-2.76-2.16-2.76h-1.46v8.16h1.46zM98.4 84.37h2.6l3.63 16.81h.07V84.37h1.8v22.97h-2.16l-4.06-18.94h-.07v18.94h-1.8V84.37zM116.21 84.37h6.59v1.73h-4.59v8.36h4v1.73h-4v11.15h-2V84.37zM127.49 84.37h2.63l2.9 22.97h-2.03l-.67-5.69h-3.13l-.67 5.69h-1.93l2.9-22.97zm2.63 15.55l-1.33-12.39h-.07l-1.33 12.39h2.73zM137.18 86.1h-2.8v-1.73h7.59v1.73h-2.8v21.24h-2V86.1zM22.02 127.33h-1.19v-11.72h1.19v11.72zM34.14 125.59h.03v-9.98h1.19v11.72h-1.49l-6.82-10.08h-.03v10.08h-1.19v-11.72h1.49l6.82 9.98zM48.75 122.21l-.03-.03c-.35.27-1.08.43-1.67.43-2.04 0-3.58-1.47-3.58-3.61 0-2.19 1.61-3.69 3.81-3.69s3.81 1.51 3.81 3.69c0 1.21-.48 2.24-1.06 3.18l-3.2 5.15h-1.37l3.29-5.12zm-1.47-5.89c-1.54 0-2.62 1.16-2.62 2.68 0 1.51 1.01 2.65 2.62 2.65s2.62-1.14 2.62-2.65c-.01-1.52-1.08-2.68-2.62-2.68zM58.75 127.33h-1.31l5.07-11.72h1.16l5.03 11.72h-1.32l-1.29-3.08h-6.06l-1.28 3.08zm1.72-4.17h5.17l-2.58-6.23-2.59 6.23zM72.3 127.33h-1.19v-11.72h3.44c2.32 0 4.01.84 4.01 3.13 0 1.74-1.29 2.83-3 3.01l3.43 5.58h-1.46l-3.25-5.48H72.3v5.48zm0-6.51h2.07c1.9 0 3-.7 3-2.09 0-1.54-1.18-2.1-2.95-2.1H72.3v4.19zM82.91 126.27h6.28v1.06h-7.47v-11.72h7.27v1.06h-6.08v4.04h5.68v1.04h-5.68v4.52zM92.13 127.33h-1.31l5.07-11.72h1.16l5.03 11.72h-1.32l-1.29-3.08H93.4l-1.27 3.08zm1.72-4.17h5.17l-2.58-6.23-2.59 6.23zM110.17 117.49c-.5-.71-1.31-1.18-2.42-1.18-1.16 0-2.5.7-2.5 2.2 0 1.49 1.24 1.87 2.55 2.3 1.66.55 3.48 1.08 3.48 3.43s-1.97 3.38-3.82 3.38c-1.42 0-2.85-.58-3.69-1.74l1.03-.76c.51.83 1.46 1.47 2.68 1.47 1.21 0 2.6-.76 2.6-2.27 0-1.64-1.37-2.05-2.86-2.52-1.56-.48-3.15-1.16-3.15-3.28 0-2.27 2.02-3.23 3.74-3.23 1.57 0 2.75.66 3.31 1.42l-.95.78zM124.84 127.63c-3.49 0-6.11-2.6-6.11-6.16s2.62-6.16 6.11-6.16 6.11 2.6 6.11 6.16-2.62 6.16-6.11 6.16zm0-11.28c-3.01 0-4.85 2.38-4.85 5.12 0 2.73 1.84 5.1 4.85 5.1s4.85-2.37 4.85-5.1c0-2.73-1.84-5.12-4.85-5.12zM135.31 127.33h-1.19v-11.72h7.07v1.06h-5.88v4.07h5.46v1.04h-5.46v5.55zM40.97 147.31h-1.19v-10.66h-3.92v-1.06h9.04v1.06h-3.92v10.66zM47.34 135.59h1.19v5.08h6.39v-5.08h1.19v11.72h-1.19v-5.55h-6.39v5.55h-1.19v-11.72zM61.11 146.25h6.27v1.06h-7.47v-11.72h7.27v1.06H61.1v4.04h5.68v1.04H61.1v4.52zM75.25 135.59h3.49c1.79 0 3.77.65 3.77 3 0 1.23-.83 2.24-2.07 2.52v.03c1.52.17 2.65 1.23 2.65 2.93 0 1.95-1.67 3.25-4.37 3.25h-3.48v-11.73zm1.19 5.13h2.4c1.14 0 2.48-.5 2.48-2.05 0-1.49-1.27-2.05-2.81-2.05h-2.07v4.1zm0 5.57h2.22c1.72 0 3.23-.65 3.23-2.28 0-1.54-1.11-2.3-3.01-2.3h-2.43v4.58zM91.95 147.61c-3.49 0-6.11-2.6-6.11-6.16s2.62-6.16 6.11-6.16 6.11 2.6 6.11 6.16-2.62 6.16-6.11 6.16zm0-11.27c-3.01 0-4.85 2.38-4.85 5.12 0 2.73 1.84 5.1 4.85 5.1s4.85-2.37 4.85-5.1c0-2.74-1.84-5.12-4.85-5.12zM101.23 135.59h3.89c2.93 0 6.16 1.95 6.16 5.86s-3.23 5.86-6.16 5.86h-3.89v-11.72zm1.19 10.66h2.37c3.53 0 5.23-2.38 5.23-4.8s-1.71-4.8-5.23-4.8h-2.37v9.6zM117.88 147.31h-1.19v-5.05l-4.39-6.67h1.49l3.53 5.68 3.56-5.68h1.39l-4.39 6.67v5.05zM123.83 147.41c-.53 0-.89-.43-.89-.89s.36-.89.89-.89.89.43.89.89-.36.89-.89.89z"/></svg>