<svg id="Layer_1" xmlns="http://www.w3.org/2000/svg" viewBox="0 0 160 600"><style>.st0{fill:#eaf5fb}.st1{fill:#002554}</style><path class="st0" d="M25.46 369.63h112.08v28.15H25.46z"/><path class="st1" d="M35.82 389.14v-9.19h2.23v7.26h3.56v1.94h-5.79zM43.17 389.14v-9.19h6.18v1.88h-4.04v1.73h3.82v1.78h-3.82v1.91h4.27v1.9h-6.41zM57.81 389.14l-.71-1.81h-3.56l-.68 1.81h-2.42l3.86-9.19h2.16l3.82 9.19h-2.47zm-2.47-6.74l-1.17 3.16h2.31l-1.14-3.16zM66.48 389.14l-1.99-3.65h-.75v3.65h-2.18v-9.19h3.51c1.77 0 3.52.67 3.52 2.78 0 1.23-.73 2.12-1.91 2.48l2.4 3.94h-2.6zm-1.57-7.41h-1.18v2.14h1.05c.71 0 1.61-.18 1.61-1.12 0-.85-.81-1.02-1.48-1.02zM76.54 389.14l-3.7-6.01h-.04l.05 6.01h-2.16v-9.19h2.53l3.69 6h.04l-.05-6h2.16v9.19h-2.52zM93.58 389.14l.05-6.51h-.04l-2.39 6.51h-1.56l-2.33-6.51h-.04l.05 6.51h-2.09v-9.19h3.16l2.09 5.89h.05l2-5.89h3.21v9.19h-2.16zM102.74 389.38c-2.87 0-5-1.97-5-4.88 0-2.95 2.13-4.8 5-4.8 2.88 0 5.01 1.86 5.01 4.8 0 2.91-2.13 4.88-5.01 4.88zm0-7.68c-1.56 0-2.62 1.2-2.62 2.8 0 1.66 1.08 2.86 2.62 2.86 1.55 0 2.64-1.2 2.64-2.86-.01-1.61-1.08-2.8-2.64-2.8zM114.66 389.14l-1.99-3.65h-.75v3.65h-2.18v-9.19h3.51c1.77 0 3.52.67 3.52 2.78 0 1.23-.73 2.12-1.91 2.48l2.4 3.94h-2.6zm-1.57-7.41h-1.18v2.14h1.05c.71 0 1.61-.18 1.61-1.12 0-.85-.82-1.02-1.48-1.02zM118.87 389.14v-9.19h6.18v1.88h-4.04v1.73h3.82v1.78h-3.82v1.91h4.27v1.9h-6.41z"/></svg>