<svg id="Layer_1" xmlns="http://www.w3.org/2000/svg" viewBox="0 0 160 600"><style>.st0{fill:#fff}</style><path class="st0" d="M14.61 412.97h-.82v-5.84h1.87c.28 0 .55.03.8.09s.47.15.66.28c.19.13.34.29.45.5.11.21.16.46.16.75 0 .43-.13.77-.4 1.04-.26.26-.6.43-1.02.5l1.63 2.68h-.99l-1.48-2.6h-.87v2.6zm0-3.28h.94c.19 0 .37-.02.54-.05.17-.03.31-.09.43-.16a.806.806 0 0 0 .4-.73.87.87 0 0 0-.11-.44c-.07-.12-.17-.21-.28-.28s-.26-.12-.42-.15c-.16-.03-.33-.04-.5-.04h-1v1.85zM19.72 407.65c0 .14-.05.26-.15.35-.1.09-.22.14-.36.14-.14 0-.26-.05-.36-.14s-.15-.21-.15-.35c0-.14.05-.26.15-.36s.22-.14.36-.14c.14 0 .26.05.36.14.1.1.15.22.15.36zm-.13 5.32h-.77v-3.91h.77v3.91zM23.38 410.44c0-.29-.09-.51-.26-.65-.18-.14-.41-.21-.7-.21-.22 0-.43.04-.62.13-.2.08-.36.19-.49.33l-.41-.49c.19-.18.43-.32.71-.43.28-.1.58-.16.89-.16.28 0 .52.04.73.12a1.326 1.326 0 0 1 .81.82c.07.19.1.39.1.6v1.71c0 .13 0 .27.01.42.01.15.02.27.05.36h-.7c-.04-.19-.07-.37-.07-.56h-.02c-.14.21-.32.37-.54.49-.22.12-.47.17-.77.17a2.1 2.1 0 0 1-.48-.06c-.17-.04-.32-.11-.46-.2a1.093 1.093 0 0 1-.48-.94c0-.3.08-.53.24-.71.16-.17.37-.3.63-.39.26-.09.55-.15.87-.18.32-.03.65-.04.98-.04v-.13zm-.19.67c-.19 0-.39.01-.6.02s-.39.05-.56.1c-.17.05-.31.12-.42.22-.11.1-.17.23-.17.4a.52.52 0 0 0 .26.48c.08.05.16.08.26.1.09.02.19.03.29.03.36 0 .64-.11.84-.33.2-.22.29-.49.29-.82v-.21h-.19zM27.76 409.06l.88 2.98h.02l.93-2.98h.82l.95 2.98h.02l.88-2.98h.82l-1.29 3.91h-.81l-.98-2.94h-.02l-.96 2.94h-.81l-1.3-3.91h.85zM36.28 410.44c0-.29-.09-.51-.26-.65-.18-.14-.41-.21-.7-.21-.22 0-.43.04-.62.13-.2.08-.36.19-.49.33l-.41-.49c.19-.18.43-.32.71-.43.28-.1.58-.16.89-.16.28 0 .52.04.73.12a1.326 1.326 0 0 1 .81.82c.07.19.1.39.1.6v1.71c0 .13 0 .27.01.42.01.15.02.27.05.36h-.7c-.04-.19-.07-.37-.07-.56h-.02c-.14.21-.32.37-.54.49-.22.12-.47.17-.77.17a2.1 2.1 0 0 1-.48-.06c-.17-.04-.32-.11-.46-.2a1.093 1.093 0 0 1-.48-.94c0-.3.08-.53.24-.71.16-.17.37-.3.63-.39.26-.09.55-.15.87-.18.32-.03.65-.04.98-.04v-.13zm-.19.67c-.19 0-.39.01-.6.02s-.39.05-.56.1c-.17.05-.31.12-.42.22-.11.1-.17.23-.17.4a.52.52 0 0 0 .26.48c.08.05.16.08.26.1.09.02.19.03.29.03.36 0 .64-.11.84-.33.2-.22.29-.49.29-.82v-.21h-.19zM40.42 410.05a1.04 1.04 0 0 0-.37-.35 1.08 1.08 0 0 0-.54-.13c-.09 0-.18.01-.26.03a.69.69 0 0 0-.23.09c-.07.04-.12.09-.17.16-.04.06-.06.14-.06.23 0 .17.07.29.22.37.15.08.37.15.67.22.19.04.36.1.52.16.16.06.3.14.42.23s.21.2.28.33c.07.13.1.28.1.45 0 .23-.04.43-.13.58s-.2.29-.35.39c-.15.1-.31.17-.5.22-.19.04-.38.07-.58.07-.3 0-.59-.06-.87-.17-.28-.12-.52-.29-.7-.53l.55-.47c.1.15.25.28.43.39a1.26 1.26 0 0 0 .89.13c.09-.02.17-.05.25-.09s.13-.1.18-.17.07-.16.07-.27c0-.18-.09-.32-.26-.4-.17-.09-.43-.17-.76-.25-.13-.03-.27-.07-.4-.12s-.26-.11-.37-.19c-.11-.08-.2-.19-.27-.31s-.1-.28-.1-.46c0-.21.04-.39.13-.54.08-.15.2-.28.33-.37.14-.1.29-.17.47-.21a2.064 2.064 0 0 1 1.35.1c.26.11.46.27.61.48l-.55.4zM45.95 409.7h-1.04v2.03c0 .24.04.4.13.5.09.1.23.15.42.15.07 0 .15-.01.23-.02s.16-.04.22-.07l.02.63a1.983 1.983 0 0 1-.66.11c-.37 0-.65-.1-.85-.31-.19-.2-.29-.51-.29-.91v-2.12h-.75v-.63h.75v-1.12h.77v1.12h1.04v.64zM46.74 409.5c-.01-.17-.01-.31-.02-.44h.73c.01.1.02.21.02.34.01.13.01.24.01.32h.02c.11-.23.27-.42.48-.56s.45-.21.71-.21c.12 0 .22.01.31.03l-.03.72c-.11-.03-.23-.04-.35-.04-.19 0-.35.04-.49.1-.14.07-.25.16-.34.28s-.16.25-.2.4c-.04.15-.07.31-.07.47v2.05h-.77v-3.07c0-.09-.01-.23-.01-.39zM53.23 410.98v.13c0 .04 0 .09-.01.13h-3.11a1.195 1.195 0 0 0 .39.84 1.283 1.283 0 0 0 .88.34c.26 0 .49-.06.68-.17.19-.12.34-.25.45-.42l.54.44c-.21.28-.46.48-.74.61-.28.13-.6.2-.94.2-.3 0-.57-.05-.82-.15-.25-.1-.47-.24-.65-.42-.18-.18-.32-.39-.43-.65-.1-.25-.16-.53-.16-.84 0-.3.05-.58.15-.84.1-.25.24-.47.43-.65s.4-.32.64-.42c.25-.1.51-.15.8-.15.29 0 .55.05.78.14.23.09.43.23.59.4.16.18.29.39.38.64.11.25.15.53.15.84zm-.79-.31c-.01-.15-.03-.3-.08-.43s-.12-.25-.21-.35c-.09-.1-.2-.18-.34-.23s-.29-.09-.47-.09c-.16 0-.32.03-.47.09s-.27.14-.38.23c-.11.1-.2.22-.26.35-.07.13-.11.28-.12.43h2.33zM56.69 410.44c0-.29-.09-.51-.26-.65-.18-.14-.41-.21-.7-.21-.22 0-.43.04-.62.13-.2.08-.36.19-.49.33l-.41-.49c.19-.18.43-.32.71-.43.28-.1.58-.16.89-.16.28 0 .52.04.73.12a1.326 1.326 0 0 1 .81.82c.07.19.1.39.1.6v1.71c0 .13 0 .27.01.42.01.15.02.27.05.36h-.7c-.04-.19-.07-.37-.07-.56h-.04c-.14.21-.32.37-.54.49-.22.12-.47.17-.77.17a2.1 2.1 0 0 1-.48-.06c-.17-.04-.32-.11-.46-.2a1.093 1.093 0 0 1-.48-.94c0-.3.08-.53.24-.71.16-.17.37-.3.63-.39.26-.09.55-.15.87-.18.32-.03.65-.04.98-.04v-.13zm-.19.67c-.19 0-.39.01-.6.02s-.39.05-.56.1c-.17.05-.31.12-.42.22-.11.1-.17.23-.17.4a.52.52 0 0 0 .26.48c.08.05.16.08.26.1.09.02.19.03.29.03.36 0 .64-.11.84-.33.2-.22.29-.49.29-.82v-.21h-.19zM60.55 409.7h-1.04v2.03c0 .24.04.4.13.5.09.1.23.15.42.15.07 0 .15-.01.23-.02s.16-.04.22-.07l.02.63a1.983 1.983 0 0 1-.66.11c-.37 0-.65-.1-.85-.31-.19-.2-.29-.51-.29-.91v-2.12H58v-.63h.75v-1.12h.77v1.12h1.04v.64zM65 410.98v.13c0 .04 0 .09-.01.13h-3.11a1.195 1.195 0 0 0 .39.84 1.283 1.283 0 0 0 .88.34c.26 0 .49-.06.68-.17.19-.12.34-.25.45-.42l.54.44c-.21.28-.46.48-.74.61-.28.13-.6.2-.94.2-.3 0-.57-.05-.82-.15-.25-.1-.47-.24-.65-.42-.18-.18-.32-.39-.43-.65-.1-.25-.16-.53-.16-.84 0-.3.05-.58.15-.84.1-.25.24-.47.43-.65s.4-.32.64-.42c.25-.1.51-.15.8-.15.29 0 .55.05.78.14.23.09.43.23.59.4.16.18.29.39.38.64.11.25.15.53.15.84zm-.79-.31c-.01-.15-.03-.3-.08-.43s-.12-.25-.21-.35c-.09-.1-.2-.18-.34-.23s-.29-.09-.47-.09c-.16 0-.32.03-.47.09s-.27.14-.38.23c-.11.1-.2.22-.26.35-.07.13-.11.28-.12.43h2.33zM69.19 412.35c-.15.24-.35.42-.61.54-.26.12-.52.18-.8.18a2 2 0 0 1-.82-.16c-.24-.11-.45-.25-.62-.44a2.2 2.2 0 0 1-.4-.66 2.375 2.375 0 0 1 0-1.61c.09-.25.23-.47.4-.66.17-.19.38-.33.62-.44.24-.1.51-.16.8-.16.32 0 .6.07.83.2s.42.3.56.49h.02v-2.91h.77v6.23h-.75v-.62zm-2.57-1.34c0 .18.03.36.08.53.06.17.14.32.25.45.11.13.24.24.4.32.16.08.35.12.56.12.2 0 .38-.04.54-.12.16-.08.3-.18.42-.31s.21-.28.27-.45.09-.35.09-.53-.03-.36-.09-.53-.15-.32-.27-.45a1.18 1.18 0 0 0-.42-.31 1.19 1.19 0 0 0-.54-.12c-.21 0-.4.04-.56.12-.16.08-.29.18-.4.31-.11.13-.19.28-.25.45-.05.16-.08.34-.08.52zM73.66 409.06l.88 2.98h.02l.93-2.98h.82l.95 2.98h.02l.88-2.98h.82l-1.29 3.91h-.81l-.96-2.94h-.02l-.96 2.94h-.81l-1.3-3.91h.83zM80.65 407.65c0 .14-.05.26-.15.35-.1.09-.22.14-.36.14-.14 0-.26-.05-.36-.14s-.15-.21-.15-.35c0-.14.05-.26.15-.36s.22-.14.36-.14c.14 0 .26.05.36.14.1.1.15.22.15.36zm-.12 5.32h-.77v-3.91h.77v3.91zM83.79 409.7h-1.04v2.03c0 .24.04.4.13.5.09.1.23.15.42.15.07 0 .15-.01.23-.02a.71.71 0 0 0 .22-.07l.03.63a1.983 1.983 0 0 1-.66.11c-.37 0-.65-.1-.84-.31-.19-.2-.29-.51-.29-.91v-2.12h-.75v-.63h.75v-1.12h.77v1.12h1.04v.64zM85.4 409.65c.09-.19.25-.36.48-.49.22-.14.48-.21.76-.21.25 0 .47.04.65.13.18.08.33.2.45.34s.21.31.27.5c.06.19.09.4.09.62v2.42h-.78v-2.17c0-.16-.01-.31-.04-.45-.02-.14-.07-.27-.13-.38a.746.746 0 0 0-.27-.26c-.11-.07-.26-.1-.44-.1-.31 0-.56.12-.76.35-.2.23-.3.55-.3.94v2.07h-.77v-6.23h.77v2.92h.02zM96.51 412.06c-.23.31-.53.57-.9.76-.37.2-.81.29-1.33.29-.45 0-.86-.08-1.23-.23-.38-.15-.7-.36-.97-.63s-.49-.6-.64-.97c-.15-.38-.23-.79-.23-1.24 0-.46.08-.87.24-1.25.16-.38.37-.7.65-.96.28-.27.61-.47.99-.62.38-.15.79-.22 1.24-.22.2 0 .4.02.6.06.2.04.4.1.58.17.19.08.36.17.51.28s.29.24.4.39l-.64.49c-.14-.2-.34-.36-.61-.49-.26-.13-.54-.19-.84-.19-.34 0-.65.06-.92.19-.27.12-.5.29-.7.51-.19.21-.34.46-.45.75a2.731 2.731 0 0 0-.01 1.82c.1.29.25.54.44.75.19.21.42.38.69.5.27.12.57.18.91.18.33 0 .63-.07.9-.2s.49-.32.67-.58l.65.44zM101.16 411.01c0 .3-.05.58-.16.83s-.26.47-.45.66-.41.33-.67.43-.54.15-.83.15-.57-.05-.83-.15-.48-.25-.67-.43c-.19-.18-.33-.4-.44-.66-.11-.25-.16-.53-.16-.83 0-.3.05-.58.16-.83s.25-.46.44-.65c.19-.18.41-.32.67-.42s.54-.15.83-.15.57.05.83.15.48.24.67.42.34.4.45.65c.11.25.16.52.16.83zm-.81 0c0-.19-.03-.36-.09-.53-.06-.17-.14-.32-.25-.45s-.25-.23-.41-.31c-.16-.08-.35-.12-.56-.12a1.247 1.247 0 0 0-.97.43c-.11.13-.2.28-.25.45a1.595 1.595 0 0 0 0 1.06c.06.17.14.32.25.45.11.13.25.24.41.31.16.08.35.12.56.12a1.247 1.247 0 0 0 1.22-.88c.06-.16.09-.34.09-.53zM106.19 411.01c0 .3-.05.58-.16.83s-.26.47-.45.66-.41.33-.67.43-.54.15-.83.15-.57-.05-.83-.15-.48-.25-.67-.43-.33-.4-.44-.66-.16-.53-.16-.83c0-.3.05-.58.16-.83s.25-.46.44-.65.41-.32.67-.42.54-.15.83-.15.57.05.83.15.48.24.67.42.34.4.45.65.16.52.16.83zm-.81 0c0-.19-.03-.36-.09-.53-.06-.17-.14-.32-.25-.45s-.25-.23-.41-.31c-.16-.08-.35-.12-.56-.12a1.247 1.247 0 0 0-1.22.88 1.595 1.595 0 0 0 0 1.06c.06.17.14.32.25.45.11.13.25.24.41.31.16.08.35.12.56.12.21 0 .39-.04.56-.12.16-.08.3-.18.41-.31s.19-.28.25-.45c.06-.16.09-.34.09-.53zM108.05 412.97h-.78v-6.23h.78v6.23zM112.35 408.21c-.12-.16-.27-.29-.47-.39-.2-.1-.42-.15-.67-.15-.13 0-.27.02-.4.05-.13.04-.26.09-.37.17-.11.08-.2.18-.27.3s-.1.26-.1.42c0 .16.03.29.09.4s.15.2.25.27c.11.07.23.14.38.19.15.05.3.11.47.16.2.06.4.13.6.21.2.08.39.18.55.3.16.13.3.29.4.47.1.19.16.43.16.72 0 .3-.06.57-.17.79-.11.22-.26.41-.45.55-.19.15-.4.25-.65.33a2.722 2.722 0 0 1-1.82-.1 2 2 0 0 1-.85-.63l.63-.54c.14.2.32.37.55.49s.48.19.75.19a1.403 1.403 0 0 0 .79-.24c.11-.08.21-.19.28-.31.07-.12.11-.27.11-.45s-.04-.32-.11-.44-.17-.22-.3-.3-.27-.15-.44-.21c-.17-.06-.35-.12-.53-.18-.19-.05-.37-.12-.55-.2-.18-.08-.34-.18-.49-.31-.14-.12-.26-.28-.35-.46-.09-.18-.13-.41-.13-.68 0-.29.06-.54.18-.75.12-.21.27-.38.46-.52s.4-.24.64-.3.48-.09.72-.09c.34 0 .66.06.96.18.3.12.54.28.72.49l-.57.57zM116.83 410.05c-.08-.13-.21-.23-.37-.32a1.22 1.22 0 0 0-.53-.13c-.2 0-.38.04-.54.12-.16.08-.29.18-.4.31-.11.13-.19.28-.25.45-.06.17-.09.35-.09.54s.03.37.09.54.14.32.25.45c.11.13.24.23.4.31.16.08.34.12.54.12s.38-.04.54-.12c.16-.08.3-.18.4-.31l.52.47c-.16.19-.37.34-.62.45-.25.11-.53.16-.84.16-.3 0-.58-.05-.84-.15-.26-.1-.48-.24-.66-.42-.19-.18-.33-.39-.44-.65-.11-.25-.16-.54-.16-.85 0-.31.05-.59.16-.84s.25-.47.44-.65c.19-.18.41-.32.66-.42a2.19 2.19 0 0 1 1.65.02c.27.11.49.27.65.48l-.56.44zM120.92 412.97c-.01-.1-.02-.21-.02-.33 0-.12-.01-.23-.01-.31h-.02c-.1.21-.27.39-.5.53-.23.14-.49.22-.78.22-.25 0-.47-.04-.66-.12a1.277 1.277 0 0 1-.71-.85c-.05-.2-.09-.4-.09-.62v-2.42h.77v2.16c0 .16.01.31.04.46.02.15.07.27.14.38s.16.2.27.26c.12.07.26.1.45.1.31 0 .57-.12.76-.35.19-.23.29-.55.29-.94v-2.08h.78v3.07c0 .11 0 .24.01.4.01.17.01.31.03.44h-.75zM123.75 412.97h-.78v-6.23h.78v6.23zM125.88 414.95h-.78v-5.89h.76v.61h.02c.13-.21.31-.38.55-.51s.53-.2.85-.2c.29 0 .55.05.79.16s.44.25.62.44c.17.19.31.41.4.66a2.375 2.375 0 0 1 0 1.61c-.09.25-.22.47-.39.66s-.38.33-.62.44c-.24.11-.51.16-.81.16-.28 0-.54-.06-.79-.18s-.44-.29-.58-.51h-.02v2.55zm2.57-3.94c0-.18-.03-.36-.08-.53a1.41 1.41 0 0 0-.25-.45c-.11-.13-.25-.24-.41-.31-.16-.08-.35-.12-.56-.12-.2 0-.38.04-.54.12-.16.08-.3.18-.42.31s-.21.28-.27.45c-.06.17-.09.35-.09.54s.03.37.09.54.15.32.27.45a1.312 1.312 0 0 0 .96.43c.21 0 .4-.04.56-.12a1.298 1.298 0 0 0 .66-.77c.05-.19.08-.36.08-.54zM132.24 409.7h-1.04v2.03c0 .24.04.4.13.5.09.1.23.15.42.15.07 0 .15-.01.23-.02a.71.71 0 0 0 .22-.07l.03.63a1.983 1.983 0 0 1-.66.11c-.37 0-.65-.1-.84-.31-.19-.2-.29-.51-.29-.91v-2.12h-.75v-.63h.75v-1.12h.77v1.12h1.04v.64zM133.95 407.65c0 .14-.05.26-.15.35-.1.09-.22.14-.36.14-.14 0-.26-.05-.36-.14a.47.47 0 0 1-.15-.35c0-.14.05-.26.15-.36.1-.1.22-.14.36-.14.14 0 .26.05.36.14.1.1.15.22.15.36zm-.12 5.32h-.77v-3.91h.77v3.91zM135.88 409.06l.03.33c0 .12.01.23.01.31h.03c.05-.1.12-.2.2-.29.09-.09.18-.17.29-.24a1.462 1.462 0 0 1 .77-.22c.25 0 .47.04.65.13.18.08.33.2.45.34s.21.31.27.5c.06.19.09.4.09.62v2.42h-.78v-2.17c0-.16-.01-.31-.04-.45a1.15 1.15 0 0 0-.14-.38c-.07-.11-.16-.2-.27-.26s-.26-.1-.45-.1a.93.93 0 0 0-.75.35c-.2.23-.29.55-.29.94v2.08h-.78v-3.07c0-.11 0-.24-.01-.4-.01-.17-.01-.31-.02-.44h.74zM140.28 413.64c.17.19.38.35.64.46s.52.17.79.17c.26 0 .47-.04.65-.11.18-.07.32-.18.43-.3.11-.13.18-.28.23-.46s.07-.37.07-.57v-.5h-.02c-.14.22-.34.39-.58.5-.25.12-.51.17-.79.17-.3 0-.57-.05-.81-.16-.25-.1-.45-.25-.62-.43s-.3-.39-.4-.64-.14-.51-.14-.79.05-.54.14-.79c.09-.25.23-.46.4-.65.17-.18.38-.33.62-.44.24-.11.51-.16.81-.16.28 0 .55.06.8.18s.46.3.61.55h.02v-.63h.75v3.71c0 .29-.04.56-.11.82s-.19.49-.36.69c-.17.2-.39.36-.67.48s-.62.18-1.02.18c-.34 0-.68-.06-1.03-.19-.34-.12-.64-.3-.89-.52l.48-.57zm.23-2.67c0 .18.03.35.09.52.06.17.14.31.26.44.11.13.25.23.41.3.16.08.34.12.55.12.2 0 .38-.04.54-.11.17-.07.31-.17.42-.29s.21-.27.27-.44.09-.35.09-.54c0-.19-.03-.36-.09-.53-.06-.16-.15-.31-.27-.44-.12-.13-.26-.23-.42-.3s-.34-.11-.54-.11c-.21 0-.39.04-.55.11s-.3.17-.41.3c-.11.12-.2.27-.26.44s-.09.35-.09.53zM145.11 408.9c0-.26.05-.5.15-.73.1-.23.23-.43.4-.59.17-.17.37-.3.6-.4.23-.1.47-.15.73-.15s.5.05.73.15c.23.1.43.23.6.4.17.17.3.37.4.59s.15.47.15.73-.05.5-.15.73a1.866 1.866 0 0 1-1 .99c-.23.1-.47.14-.73.14s-.5-.05-.73-.14c-.23-.1-.43-.23-.6-.4-.17-.17-.31-.36-.4-.59a1.8 1.8 0 0 1-.15-.73zm.3 0c0 .21.04.42.12.61.08.19.2.36.34.51s.31.26.5.34.4.12.62.12c.22 0 .43-.04.62-.12a1.582 1.582 0 0 0 .96-1.46c0-.22-.04-.43-.12-.62-.08-.19-.2-.36-.34-.5s-.31-.26-.5-.34c-.19-.08-.4-.12-.62-.12-.22 0-.43.04-.62.12s-.36.2-.5.34-.26.31-.34.5-.12.4-.12.62zm2.03 1.03l-.45-.82h-.3v.82h-.5v-2.11h.91c.1 0 .2.01.29.03a.707.707 0 0 1 .44.31c.05.09.07.19.07.32 0 .14-.04.26-.12.35-.08.09-.18.16-.3.21l.56.89h-.6zm-.36-1.17c.08 0 .15-.02.21-.07s.1-.12.1-.2c0-.09-.04-.15-.11-.19a.414.414 0 0 0-.2-.06h-.39v.52h.39zM27.94 421.73h3.05v.73h-3.87v-5.84h3.74v.72h-2.93v1.75h2.75v.7h-2.75v1.94zM32.83 422.46h-.77v-6.23h.77v6.23zM35.09 417.14c0 .14-.05.26-.15.35-.1.09-.22.14-.36.14-.14 0-.26-.05-.36-.14s-.15-.21-.15-.35c0-.14.05-.26.15-.36s.22-.14.36-.14c.14 0 .26.05.36.14.1.1.15.22.15.36zm-.12 5.32h-.77v-3.91h.77v3.91zM38.23 419.19h-1.04v2.03c0 .24.04.4.13.5.09.1.23.15.42.15.07 0 .15-.01.23-.02s.16-.04.22-.07l.02.63a1.983 1.983 0 0 1-.66.11c-.37 0-.65-.1-.85-.31-.19-.2-.29-.51-.29-.91v-2.12h-.75v-.63h.75v-1.12h.77v1.12h1.04v.64zM42.68 420.47v.13c0 .04 0 .09-.01.13h-3.11a1.195 1.195 0 0 0 .39.84 1.283 1.283 0 0 0 .88.34c.26 0 .49-.06.68-.17.19-.12.34-.25.45-.42l.54.44c-.21.28-.46.48-.74.61-.28.13-.6.2-.94.2-.3 0-.57-.05-.82-.15-.25-.1-.47-.24-.65-.42-.18-.18-.32-.39-.43-.65-.1-.25-.16-.53-.16-.84 0-.3.05-.58.15-.84.1-.25.24-.47.43-.65s.4-.32.64-.42c.25-.1.51-.15.8-.15.29 0 .55.05.78.14.23.09.43.23.59.4.16.18.29.39.38.64.11.25.15.53.15.84zm-.79-.31c-.01-.15-.03-.3-.08-.43s-.12-.25-.21-.35c-.09-.1-.2-.18-.34-.23s-.29-.09-.47-.09c-.16 0-.32.03-.47.09s-.27.14-.38.23c-.11.1-.2.22-.26.35-.07.13-.11.28-.12.43h2.33zM49.77 420.5c0 .3-.05.58-.16.83s-.26.47-.45.66-.41.33-.67.43-.54.15-.83.15-.57-.05-.83-.15-.48-.25-.67-.43c-.19-.18-.33-.4-.44-.66-.11-.25-.16-.53-.16-.83 0-.3.05-.58.16-.83s.25-.46.44-.65c.19-.18.41-.32.67-.42s.54-.15.83-.15.57.05.83.15.48.24.67.42.34.4.45.65c.11.25.16.53.16.83zm-.81 0c0-.19-.03-.36-.09-.53-.06-.17-.14-.32-.25-.45s-.25-.23-.41-.31c-.16-.08-.35-.12-.56-.12a1.247 1.247 0 0 0-1.22.88 1.595 1.595 0 0 0 0 1.06c.06.17.14.32.25.45s.25.24.41.31c.16.08.35.12.56.12a1.247 1.247 0 0 0 1.22-.88c.06-.16.09-.34.09-.53zM51.54 418.55c.01.1.02.21.02.33.01.12.01.23.01.31h.02c.05-.1.12-.2.2-.29.09-.09.18-.17.29-.24a1.462 1.462 0 0 1 .77-.22c.25 0 .47.04.65.13.18.08.33.2.45.34s.21.31.27.5.09.4.09.62v2.42h-.77v-2.17c0-.16-.01-.31-.04-.45-.02-.14-.07-.27-.14-.38s-.16-.2-.27-.26-.26-.1-.45-.1a.93.93 0 0 0-.75.35c-.2.23-.29.55-.29.94v2.08h-.77v-3.07c0-.11 0-.24-.01-.4-.01-.17-.01-.31-.02-.44h.74zM58.51 419.15c.09-.19.25-.36.48-.49.23-.14.48-.21.76-.21.25 0 .47.04.65.13.18.08.33.2.45.34s.21.31.27.5.09.4.09.62v2.42h-.77v-2.17c0-.16-.01-.31-.04-.45-.02-.14-.07-.27-.14-.38s-.16-.2-.27-.26c-.11-.07-.26-.1-.44-.1-.31 0-.56.12-.76.35-.2.23-.3.55-.3.94v2.07h-.77v-6.23h.77v2.92h.02zM66.17 420.47v.13c0 .04 0 .09-.01.13h-3.11a1.195 1.195 0 0 0 .39.84 1.283 1.283 0 0 0 .88.34c.26 0 .49-.06.68-.17.19-.12.34-.25.45-.42l.54.44c-.21.28-.46.48-.74.61-.28.13-.6.2-.94.2-.3 0-.57-.05-.82-.15-.25-.1-.47-.24-.65-.42-.18-.18-.32-.39-.43-.65-.1-.25-.16-.53-.16-.84 0-.3.05-.58.15-.84.1-.25.24-.47.43-.65s.4-.32.64-.42c.25-.1.51-.15.8-.15.29 0 .55.05.78.14.23.09.43.23.59.4.16.18.29.39.38.64.1.25.15.53.15.84zm-.79-.31c-.01-.15-.03-.3-.08-.43s-.12-.25-.21-.35c-.09-.1-.2-.18-.34-.23s-.29-.09-.47-.09c-.16 0-.32.03-.47.09s-.27.14-.38.23c-.11.1-.2.22-.26.35-.07.13-.11.28-.12.43h2.33zM67.23 418.99c-.01-.17-.01-.31-.02-.44h.73c.01.1.02.21.02.34.01.13.01.24.01.32H68c.11-.23.27-.42.48-.56s.45-.21.71-.21c.12 0 .22.01.31.03l-.03.72c-.11-.03-.23-.04-.35-.04-.19 0-.35.04-.49.1-.14.07-.25.16-.34.28s-.16.25-.2.4c-.04.15-.07.31-.07.47v2.05h-.77v-3.07c-.01-.09-.01-.23-.02-.39zM73.07 422.46h-.77v-6.23h.77v6.23zM78.38 420.5c0 .3-.05.58-.16.83s-.26.47-.45.66-.41.33-.67.43-.54.15-.83.15-.57-.05-.83-.15-.48-.25-.67-.43c-.19-.18-.33-.4-.44-.66-.11-.25-.16-.53-.16-.83 0-.3.05-.58.16-.83s.25-.46.44-.65c.19-.18.41-.32.67-.42s.54-.15.83-.15.57.05.83.15.48.24.67.42.34.4.45.65c.11.25.16.53.16.83zm-.81 0c0-.19-.03-.36-.09-.53-.06-.17-.14-.32-.25-.45s-.25-.23-.41-.31c-.16-.08-.35-.12-.56-.12a1.247 1.247 0 0 0-1.22.88 1.595 1.595 0 0 0 0 1.06c.06.17.14.32.25.45s.25.24.41.31c.16.08.35.12.56.12a1.247 1.247 0 0 0 1.22-.88c.07-.16.09-.34.09-.53zM81.29 422.46h-.84l-1.59-3.91h.86l1.15 3.08h.02l1.15-3.08h.82l-1.57 3.91zM87.26 420.47v.13c0 .04 0 .09-.01.13h-3.11c.01.16.04.32.11.46s.16.27.28.38a1.283 1.283 0 0 0 .88.34c.26 0 .49-.06.68-.17.19-.12.34-.25.45-.42l.54.44c-.21.28-.46.48-.74.61-.28.13-.6.2-.94.2-.3 0-.57-.05-.82-.15-.25-.1-.47-.24-.65-.42-.18-.18-.32-.39-.43-.65-.1-.25-.16-.53-.16-.84 0-.3.05-.58.15-.84.1-.25.24-.47.43-.65s.4-.32.64-.42.51-.15.8-.15c.29 0 .55.05.78.14s.43.23.59.4c.16.18.29.39.38.64s.15.53.15.84zm-.79-.31c-.01-.15-.03-.3-.08-.43s-.12-.25-.21-.35c-.09-.1-.2-.18-.34-.23s-.29-.09-.47-.09c-.16 0-.32.03-.47.09s-.27.14-.38.23c-.11.1-.2.22-.26.35-.07.13-.11.28-.12.43h2.33zM91.2 419.15c.09-.19.25-.36.48-.49.22-.14.48-.21.76-.21.25 0 .47.04.65.13.18.08.33.2.45.34s.21.31.27.5c.06.19.09.4.09.62v2.42h-.78v-2.17c0-.16-.01-.31-.04-.45-.02-.14-.07-.27-.13-.38a.746.746 0 0 0-.27-.26c-.11-.07-.26-.1-.44-.1-.31 0-.56.12-.76.35-.2.23-.3.55-.3.94v2.07h-.77v-6.23h.77v2.92h.02zM97.64 419.93c0-.29-.09-.51-.26-.65-.18-.14-.41-.21-.7-.21-.22 0-.43.04-.62.13-.2.08-.36.19-.49.33l-.41-.49c.19-.18.43-.32.71-.43.28-.1.58-.16.89-.16.28 0 .52.04.73.12a1.326 1.326 0 0 1 .81.82c.07.19.1.39.1.6v1.71c0 .13 0 .27.01.42.01.15.02.27.05.36h-.7c-.04-.19-.07-.37-.07-.56h-.02c-.14.21-.32.37-.54.49s-.47.17-.77.17a2.1 2.1 0 0 1-.48-.06c-.17-.04-.32-.11-.46-.2a1.093 1.093 0 0 1-.48-.94c0-.3.08-.53.24-.71.16-.17.37-.3.63-.39.26-.09.55-.15.87-.18s.65-.04.98-.04v-.13zm-.19.67c-.19 0-.39.01-.6.02s-.39.05-.56.1c-.17.05-.31.12-.42.22-.11.1-.17.23-.17.4a.52.52 0 0 0 .26.48c.08.05.16.08.25.1.09.02.19.03.29.03.36 0 .64-.11.84-.33.2-.22.29-.49.29-.82v-.21h-.18zM100.38 418.55l.03.33c.01.12.01.23.01.31h.03c.05-.1.12-.2.2-.29.09-.09.18-.17.29-.24a1.462 1.462 0 0 1 .77-.22c.25 0 .47.04.65.13.18.08.33.2.45.34s.21.31.27.5.09.4.09.62v2.42h-.78v-2.17c0-.16-.01-.31-.04-.45-.02-.14-.07-.27-.14-.38s-.16-.2-.27-.26-.26-.1-.45-.1a.93.93 0 0 0-.75.35c-.2.23-.29.55-.29.94v2.08h-.77v-3.07c0-.11 0-.24-.01-.4-.01-.17-.01-.31-.02-.44h.73zM107.59 421.84c-.15.24-.35.42-.61.54-.26.12-.52.18-.8.18a2 2 0 0 1-.82-.16c-.24-.11-.45-.25-.62-.44s-.3-.41-.4-.66a2.375 2.375 0 0 1 0-1.61c.09-.25.23-.47.4-.66.17-.19.38-.33.62-.44s.51-.16.8-.16c.32 0 .6.07.83.2s.42.3.56.49h.02v-2.91h.78v6.23h-.75v-.62h-.01zm-2.57-1.34c0 .18.03.36.08.53.06.17.14.32.25.45.11.13.25.24.4.32.16.08.35.12.56.12.2 0 .38-.04.54-.12.16-.08.3-.18.42-.31s.21-.28.27-.45a1.595 1.595 0 0 0 0-1.06c-.06-.17-.15-.32-.27-.45a1.18 1.18 0 0 0-.42-.31 1.19 1.19 0 0 0-.54-.12c-.21 0-.4.04-.56.12-.16.08-.29.18-.4.31-.11.13-.19.28-.25.45-.06.17-.08.34-.08.52zM110.5 422.46h-.78v-6.23h.78v6.23zM115.5 420.47v.13c0 .04 0 .09-.01.13h-3.11c0 .16.04.32.11.46s.16.27.28.38a1.28 1.28 0 0 0 .88.34c.26 0 .49-.06.68-.17.19-.12.34-.25.45-.42l.54.44c-.21.28-.46.48-.74.61-.28.13-.6.2-.94.2-.3 0-.57-.05-.83-.15-.25-.1-.47-.24-.65-.42s-.32-.39-.43-.65c-.1-.25-.16-.53-.16-.84 0-.3.05-.58.15-.84.1-.25.24-.47.42-.65s.4-.32.64-.42.52-.15.8-.15.55.05.78.14.43.23.6.4c.16.18.29.39.38.64s.16.53.16.84zm-.79-.31c-.01-.15-.03-.3-.08-.43s-.12-.25-.21-.35c-.09-.1-.2-.18-.34-.23s-.29-.09-.47-.09c-.16 0-.32.03-.46.09-.15.06-.27.14-.38.23-.11.1-.2.22-.26.35-.07.13-.11.28-.12.43h2.32zM118.68 419.54a1.04 1.04 0 0 0-.37-.35 1.08 1.08 0 0 0-.54-.13 1.09 1.09 0 0 0-.5.12.41.41 0 0 0-.16.16c-.04.06-.06.14-.06.23 0 .17.07.29.22.37.15.08.37.15.67.22.19.04.36.1.52.16.16.06.3.14.42.23s.21.2.28.33c.07.13.1.28.1.45 0 .23-.04.43-.13.58s-.2.29-.35.39c-.15.1-.31.17-.5.22-.19.04-.38.07-.58.07-.3 0-.59-.06-.87-.17s-.52-.29-.71-.53l.55-.47c.1.15.25.28.43.39a1.26 1.26 0 0 0 .89.13c.09-.02.17-.05.25-.09s.13-.1.18-.17c.04-.07.07-.16.07-.27 0-.18-.09-.32-.26-.4s-.43-.17-.76-.25c-.13-.03-.26-.07-.4-.12s-.26-.11-.37-.19c-.11-.08-.2-.19-.27-.31s-.1-.28-.1-.46c0-.21.04-.39.13-.54.09-.15.2-.28.33-.37.14-.1.29-.17.47-.21a2.064 2.064 0 0 1 1.35.1c.26.11.46.27.61.48l-.54.4zM124.73 419.93c0-.29-.09-.51-.26-.65-.18-.14-.41-.21-.7-.21-.22 0-.43.04-.62.13s-.36.19-.49.33l-.41-.49c.19-.18.43-.32.71-.43.28-.1.58-.16.89-.16.28 0 .52.04.73.12a1.326 1.326 0 0 1 .81.82c.07.19.1.39.1.6v1.71c0 .13 0 .27.01.42.01.15.02.27.05.36h-.7c-.04-.19-.07-.37-.07-.56h-.02c-.14.21-.32.37-.54.49s-.47.17-.77.17a2.1 2.1 0 0 1-.48-.06c-.17-.04-.32-.11-.46-.2-.14-.09-.25-.22-.34-.37-.09-.15-.13-.34-.13-.57 0-.3.08-.53.24-.71.16-.17.37-.3.63-.39.26-.09.55-.15.87-.18s.65-.04.98-.04v-.13zm-.19.67c-.19 0-.39.01-.6.02-.21.02-.39.05-.56.1-.17.05-.31.12-.42.22-.11.1-.16.23-.16.4a.52.52 0 0 0 .26.48c.08.05.16.08.25.1.09.02.19.03.29.03.36 0 .64-.11.84-.33.2-.22.29-.49.29-.82v-.21h-.19zM127.46 418.55c.01.1.02.21.02.33.01.12.01.23.01.31h.02c.05-.1.12-.2.2-.29s.18-.17.29-.24a1.462 1.462 0 0 1 .77-.22c.25 0 .47.04.65.13.18.08.33.2.45.34s.21.31.27.5c.06.19.09.4.09.62v2.42h-.77v-2.17c0-.16-.01-.31-.04-.45a.965.965 0 0 0-.14-.38c-.07-.11-.16-.2-.27-.26s-.26-.1-.45-.1a.93.93 0 0 0-.75.35c-.2.23-.29.55-.29.94v2.08h-.77v-3.07c0-.11 0-.24-.01-.4-.01-.17-.01-.31-.03-.44h.75zM134.67 421.84c-.15.24-.35.42-.61.54-.25.12-.52.18-.8.18a2 2 0 0 1-.82-.16c-.24-.11-.45-.25-.62-.44a2.2 2.2 0 0 1-.4-.66 2.375 2.375 0 0 1 0-1.61c.09-.25.23-.47.4-.66.17-.19.38-.33.62-.44s.51-.16.8-.16c.32 0 .6.07.83.2s.42.3.56.49h.02v-2.91h.78v6.23h-.75v-.62h-.01zm-2.57-1.34c0 .18.03.36.08.53s.14.32.25.45c.11.13.25.24.4.32.16.08.35.12.56.12.2 0 .38-.04.54-.12.16-.08.3-.18.42-.31s.21-.28.27-.45.09-.35.09-.53-.03-.36-.09-.53-.15-.32-.27-.45a1.18 1.18 0 0 0-.42-.31 1.19 1.19 0 0 0-.54-.12c-.21 0-.4.04-.56.12-.16.08-.29.18-.4.31-.11.13-.19.28-.25.45s-.08.34-.08.52zM31.95 429.42c0-.29-.09-.51-.26-.65-.18-.14-.41-.21-.7-.21-.22 0-.43.04-.62.13-.2.08-.36.19-.49.33l-.41-.49c.19-.18.43-.32.71-.43.28-.1.58-.16.89-.16.28 0 .52.04.73.12a1.326 1.326 0 0 1 .81.82c.07.19.1.39.1.6v1.71c0 .13 0 .27.01.42.01.15.02.27.05.36h-.7c-.04-.19-.07-.37-.07-.56h-.02c-.14.21-.32.37-.54.49-.22.12-.47.17-.77.17a2.1 2.1 0 0 1-.48-.06c-.17-.04-.32-.11-.46-.2a1.093 1.093 0 0 1-.48-.94c0-.3.08-.53.24-.71.16-.17.37-.3.63-.39.26-.09.55-.15.87-.18.32-.03.65-.04.98-.04v-.13zm-.19.67c-.19 0-.39.01-.6.02s-.39.05-.56.1c-.17.05-.31.12-.42.22-.11.1-.17.23-.17.4a.52.52 0 0 0 .26.48c.08.05.16.08.26.1.09.02.19.03.29.03.36 0 .64-.11.84-.33.2-.22.29-.49.29-.82v-.21h-.19zM34.76 431.33v.62h-.75v-6.23h.77v2.91h.02c.13-.19.31-.36.55-.49s.52-.2.84-.2c.29 0 .55.05.79.16.24.1.44.25.62.44.17.19.31.41.4.66s.14.52.14.8c0 .29-.05.56-.14.81-.09.25-.23.47-.4.66s-.38.33-.62.44c-.24.11-.51.16-.81.16-.28 0-.55-.06-.8-.18s-.46-.3-.61-.54zm2.59-1.33c0-.18-.03-.36-.08-.53a1.41 1.41 0 0 0-.25-.45c-.11-.13-.25-.24-.41-.31-.16-.08-.35-.12-.56-.12-.2 0-.38.04-.54.12-.16.08-.3.18-.42.31s-.21.28-.27.45a1.595 1.595 0 0 0 0 1.06c.06.17.15.32.27.45a1.312 1.312 0 0 0 .96.43c.21 0 .4-.04.56-.12.16-.08.3-.18.41-.32.11-.13.19-.28.25-.45.06-.17.08-.34.08-.52zM42.35 431.33c-.15.24-.35.42-.61.54-.26.12-.52.18-.8.18a2 2 0 0 1-.82-.16c-.24-.11-.45-.25-.62-.44a2.2 2.2 0 0 1-.4-.66 2.375 2.375 0 0 1 0-1.61c.09-.25.23-.47.4-.66.17-.19.38-.33.62-.44.24-.1.51-.16.8-.16.32 0 .6.07.83.2s.42.3.56.49h.02v-2.91h.77v6.23h-.75v-.62zM39.78 430c0 .18.03.36.08.53.06.17.14.32.25.45.11.13.24.24.4.32.16.08.35.12.56.12.2 0 .38-.04.54-.12.16-.08.3-.18.42-.31s.21-.28.27-.45.09-.35.09-.53-.03-.36-.09-.53-.15-.32-.27-.45a1.18 1.18 0 0 0-.42-.31 1.19 1.19 0 0 0-.54-.12c-.21 0-.4.04-.56.12-.16.08-.29.18-.4.31-.11.13-.19.28-.25.45-.06.16-.08.33-.08.52zM48.42 429.99c0 .3-.05.58-.16.83s-.26.47-.45.66-.41.33-.67.43-.54.15-.83.15-.57-.05-.83-.15-.48-.25-.67-.43c-.19-.18-.33-.4-.44-.66-.11-.25-.16-.53-.16-.83 0-.3.05-.58.16-.83s.25-.46.44-.65c.19-.18.41-.32.67-.42s.54-.15.83-.15.57.05.83.15.48.24.67.42.34.4.45.65c.11.25.16.53.16.83zm-.8.01c0-.19-.03-.36-.09-.53-.06-.17-.14-.32-.25-.45s-.25-.23-.41-.31c-.16-.08-.35-.12-.56-.12a1.247 1.247 0 0 0-1.22.88c-.06.16-.09.34-.09.53s.03.36.09.53c.06.17.14.32.25.45s.25.24.41.31c.16.08.35.12.56.12a1.247 1.247 0 0 0 1.22-.88c.06-.17.09-.35.09-.53zM50.73 428.16c.22-.14.47-.22.77-.22.26 0 .5.06.71.18s.38.32.5.6c.13-.25.32-.45.55-.58.24-.13.49-.2.77-.2.25 0 .47.04.65.13.18.08.33.2.45.34s.21.31.27.5c.06.19.09.4.09.62v2.42h-.77v-2.17c0-.16-.01-.31-.04-.45s-.07-.27-.14-.38-.15-.2-.26-.26-.25-.1-.42-.1a.881.881 0 0 0-.76.4c-.08.12-.14.25-.17.4s-.05.3-.05.45v2.11h-.77v-2.33c0-.15-.01-.29-.04-.42-.03-.12-.07-.23-.14-.33s-.15-.16-.26-.21a.87.87 0 0 0-.39-.08c-.29 0-.52.12-.71.35-.19.23-.28.55-.28.94v2.08h-.79v-3.07c0-.11 0-.24-.01-.4-.01-.17-.01-.31-.02-.44h.73c.01.1.02.21.02.33.01.12.01.23.01.31h.02c.1-.2.26-.38.48-.52zM60.46 429.97v.13c0 .04 0 .09-.01.13h-3.11a1.195 1.195 0 0 0 .39.84 1.283 1.283 0 0 0 .88.34c.26 0 .49-.06.68-.17.19-.12.34-.25.45-.42l.54.44c-.21.28-.46.48-.74.61-.28.13-.6.2-.94.2-.3 0-.57-.05-.82-.15-.25-.1-.47-.24-.65-.42-.18-.18-.32-.39-.43-.65-.1-.25-.16-.53-.16-.84 0-.3.05-.58.15-.84.1-.25.24-.47.43-.65s.4-.32.64-.42c.25-.1.51-.15.8-.15.29 0 .55.05.78.14.23.09.43.23.59.4.16.18.29.39.38.64.1.24.15.52.15.84zm-.79-.32c-.01-.15-.03-.3-.08-.43s-.12-.25-.21-.35c-.09-.1-.2-.18-.34-.23s-.29-.09-.47-.09c-.16 0-.32.03-.47.09s-.27.14-.38.23c-.11.1-.2.22-.26.35-.07.13-.11.28-.12.43h2.33zM62.23 428.04c.01.1.02.21.02.33.01.12.01.23.01.31h.02c.05-.1.12-.2.2-.29.09-.09.18-.17.29-.24a1.462 1.462 0 0 1 .77-.22c.25 0 .47.04.65.13.18.08.33.2.45.34s.21.31.27.5.09.4.09.62v2.42h-.77v-2.17c0-.16-.01-.31-.04-.45-.02-.14-.07-.27-.14-.38s-.16-.2-.27-.26-.26-.1-.45-.1a.93.93 0 0 0-.75.35c-.2.23-.29.55-.29.94v2.08h-.77v-3.07c0-.11 0-.24-.01-.4-.01-.17-.01-.31-.02-.44h.74zM67.28 431.46c0 .14-.05.27-.16.38a.52.52 0 0 1-.4.16c-.15 0-.28-.05-.39-.16a.507.507 0 0 1-.16-.38c0-.15.05-.28.16-.38.1-.11.24-.16.4-.16.16 0 .29.05.4.16s.15.23.15.38zM71.14 431.95h-.82v-5.84h1.87c.28 0 .55.03.8.09s.47.15.66.28c.19.13.34.29.45.5.11.21.16.46.16.75 0 .43-.13.77-.4 1.04-.26.26-.6.43-1.02.5l1.63 2.68h-.97l-1.48-2.6h-.87v2.6zm0-3.28h.94c.19 0 .37-.02.54-.05.17-.03.31-.09.43-.16a.806.806 0 0 0 .4-.73.87.87 0 0 0-.11-.44c-.07-.12-.17-.21-.28-.28s-.26-.12-.42-.15c-.16-.03-.33-.04-.5-.04h-1v1.85zM78.9 429.97v.13c0 .04 0 .09-.01.13h-3.11a1.195 1.195 0 0 0 .39.84 1.283 1.283 0 0 0 .88.34c.26 0 .49-.06.68-.17.19-.12.34-.25.45-.42l.54.44c-.21.28-.46.48-.74.61-.28.13-.6.2-.94.2-.3 0-.57-.05-.82-.15-.25-.1-.47-.24-.65-.42-.18-.18-.32-.39-.43-.65-.1-.25-.16-.53-.16-.84 0-.3.05-.58.15-.84.1-.25.24-.47.43-.65s.4-.32.64-.42c.25-.1.51-.15.8-.15.29 0 .55.05.78.14.23.09.43.23.59.4.16.18.29.39.38.64.1.24.15.52.15.84zm-.79-.32c-.01-.15-.03-.3-.08-.43s-.12-.25-.21-.35c-.09-.1-.2-.18-.34-.23s-.29-.09-.47-.09c-.16 0-.32.03-.47.09s-.27.14-.38.23c-.11.1-.2.22-.26.35-.07.13-.11.28-.12.43h2.33zM82.08 429.04a1.04 1.04 0 0 0-.37-.35 1.08 1.08 0 0 0-.54-.13c-.09 0-.18.01-.26.03a.69.69 0 0 0-.23.09c-.07.04-.12.09-.17.16-.04.06-.06.14-.06.23 0 .17.07.29.22.37.15.08.37.15.67.22.19.04.36.1.52.16.16.06.3.14.42.23s.21.2.28.33c.07.13.1.28.1.45 0 .23-.04.43-.13.58s-.2.29-.35.39c-.15.1-.31.17-.5.22-.19.04-.38.07-.58.07-.3 0-.59-.06-.87-.17-.28-.12-.52-.29-.7-.53l.55-.47c.1.15.25.28.43.39a1.26 1.26 0 0 0 .89.13c.09-.02.17-.05.25-.09s.13-.1.18-.17c.04-.07.07-.16.07-.27 0-.18-.09-.32-.26-.4s-.43-.17-.76-.25c-.13-.03-.27-.07-.4-.12s-.26-.11-.37-.19c-.11-.08-.2-.19-.27-.31s-.1-.28-.1-.46c0-.21.04-.39.13-.54.08-.15.2-.28.33-.37.14-.1.29-.17.47-.21a2.064 2.064 0 0 1 1.35.1c.26.11.46.27.61.48l-.55.4zM86.38 431.95l-.03-.33c-.01-.12-.01-.23-.01-.31h-.02c-.1.21-.26.39-.5.53-.23.14-.49.22-.78.22-.25 0-.47-.04-.65-.12-.18-.08-.34-.2-.45-.34-.12-.14-.21-.31-.26-.51s-.09-.4-.09-.62v-2.42h.78v2.16c0 .16.01.31.04.46.02.15.07.27.14.38s.16.2.27.26.26.1.45.1c.31 0 .57-.12.76-.35.19-.23.29-.55.29-.94v-2.08h.77v3.07c0 .11 0 .24.01.4 0 .17.01.31.02.44h-.74zM89.22 431.95h-.77v-6.23h.77v6.23zM92.48 428.68h-1.04v2.03c0 .24.04.4.13.5.09.1.23.15.42.15.07 0 .15-.01.23-.02s.16-.04.22-.07l.02.63a1.983 1.983 0 0 1-.66.11c-.37 0-.65-.1-.85-.31-.19-.2-.29-.51-.29-.91v-2.12h-.75v-.63h.75v-1.12h.77v1.12h1.04v.64zM95.39 429.04a1.04 1.04 0 0 0-.37-.35 1.08 1.08 0 0 0-.54-.13c-.09 0-.18.01-.26.03a.637.637 0 0 0-.4.25c-.04.06-.06.14-.06.23 0 .17.07.29.22.37.15.08.37.15.67.22.19.04.36.1.52.16s.3.14.42.23.21.2.28.33.1.28.1.45c0 .23-.04.43-.13.58s-.2.29-.35.39c-.15.1-.31.17-.5.22-.19.04-.38.07-.58.07-.3 0-.59-.06-.87-.17s-.52-.29-.71-.53l.55-.47c.1.15.25.28.43.39a1.26 1.26 0 0 0 .89.13c.09-.02.17-.05.25-.09s.13-.1.18-.17.07-.16.07-.27c0-.18-.09-.32-.26-.4-.17-.09-.43-.17-.76-.25-.13-.03-.27-.07-.4-.12s-.26-.11-.37-.19-.2-.19-.27-.31a.921.921 0 0 1-.1-.46c0-.21.04-.39.13-.54.08-.15.2-.28.33-.37.14-.1.29-.17.47-.21a2.064 2.064 0 0 1 1.35.1c.26.11.46.27.61.48l-.54.4zM100.23 428.16c.22-.14.47-.22.77-.22.26 0 .5.06.71.18.21.12.38.32.5.6.13-.25.32-.45.55-.58s.49-.2.77-.2c.25 0 .47.04.65.13.18.08.33.2.45.34s.21.31.27.5c.06.19.09.4.09.62v2.42h-.78v-2.17c0-.16-.01-.31-.04-.45s-.07-.27-.14-.38-.15-.2-.26-.26-.25-.1-.42-.1a.881.881 0 0 0-.76.4 1.1 1.1 0 0 0-.17.4c-.04.15-.05.3-.05.45v2.11h-.77v-2.33c0-.15-.01-.29-.04-.42a.968.968 0 0 0-.14-.33.672.672 0 0 0-.26-.21.87.87 0 0 0-.39-.08c-.29 0-.52.12-.71.35-.19.23-.28.55-.28.94v2.08H99v-3.07c0-.11 0-.24-.01-.4-.01-.17-.01-.31-.03-.44h.73c.01.1.02.21.02.33 0 .12.01.23.01.31h.02c.12-.2.28-.38.49-.52zM108.75 429.42c0-.29-.09-.51-.26-.65-.18-.14-.41-.21-.7-.21-.22 0-.43.04-.62.13s-.36.19-.49.33l-.41-.49c.19-.18.43-.32.71-.43s.58-.16.89-.16c.28 0 .52.04.73.12a1.326 1.326 0 0 1 .81.82c.07.19.1.39.1.6v1.71c0 .13 0 .27.01.42.01.15.02.27.04.36h-.7c-.04-.19-.07-.37-.07-.56h-.02c-.14.21-.32.37-.54.49-.22.12-.47.17-.77.17-.15 0-.31-.02-.48-.06s-.32-.11-.46-.2a1.093 1.093 0 0 1-.48-.94c0-.3.08-.53.24-.71.16-.17.37-.3.63-.39.26-.09.55-.15.87-.18.32-.03.65-.04.98-.04v-.13zm-.19.67c-.19 0-.39.01-.6.02s-.39.05-.56.1c-.17.05-.31.12-.42.22-.11.1-.17.23-.17.4a.52.52 0 0 0 .26.48c.08.05.16.08.26.1.09.02.19.03.29.03.36 0 .64-.11.84-.33.2-.22.29-.49.29-.82v-.21h-.19zM112.27 431.11h.02l1.08-3.07h.82l-1.9 4.83c-.07.17-.14.31-.21.44-.08.13-.17.24-.27.33-.1.09-.23.16-.37.21-.14.05-.31.07-.5.07-.08 0-.17 0-.25-.01-.08-.01-.17-.02-.26-.04l.07-.68c.13.04.26.07.39.07.2 0 .35-.06.45-.17.1-.11.19-.27.27-.48l.25-.65-1.67-3.91h.87l1.21 3.06zM118.83 431.95h-.84l-1.59-3.91h.86l1.15 3.08h.02l1.15-3.08h.82l-1.57 3.91zM123.58 429.42c0-.29-.09-.51-.26-.65-.18-.14-.41-.21-.7-.21-.22 0-.43.04-.62.13-.2.08-.36.19-.49.33l-.41-.49c.19-.18.43-.32.71-.43.28-.1.58-.16.89-.16.28 0 .52.04.73.12a1.326 1.326 0 0 1 .81.82c.07.19.1.39.1.6v1.71c0 .13 0 .27.01.42.01.15.02.27.05.36h-.7c-.04-.19-.07-.37-.07-.56h-.02c-.14.21-.32.37-.54.49s-.47.17-.77.17a2.1 2.1 0 0 1-.48-.06c-.17-.04-.32-.11-.46-.2a1.093 1.093 0 0 1-.48-.94c0-.3.08-.53.24-.71.16-.17.37-.3.63-.39.26-.09.55-.15.87-.18s.65-.04.98-.04v-.13zm-.19.67c-.19 0-.39.01-.6.02s-.39.05-.56.1c-.17.05-.31.12-.42.22-.11.1-.17.23-.17.4a.52.52 0 0 0 .26.48c.08.05.16.08.25.1.09.02.19.03.29.03.36 0 .64-.11.84-.33.2-.22.29-.49.29-.82v-.21h-.18zM125.61 428.48c-.01-.17-.01-.31-.02-.44h.73c.01.1.02.21.03.34.01.13.01.24.01.32h.03c.11-.23.27-.42.48-.56.21-.14.45-.21.71-.21.12 0 .22.01.3.03l-.03.72c-.11-.03-.23-.04-.35-.04-.19 0-.35.04-.49.1-.14.07-.25.16-.34.28s-.16.25-.2.4c-.04.15-.07.31-.07.47v2.05h-.77v-3.07c-.01-.09-.01-.22-.02-.39zM130.09 431.11h.02l1.08-3.07h.82l-1.9 4.83c-.07.17-.14.31-.21.44-.08.13-.17.24-.27.33-.11.09-.23.16-.37.21-.14.05-.31.07-.5.07-.08 0-.17 0-.25-.01-.09-.01-.17-.02-.26-.04l.07-.68c.13.04.26.07.39.07.2 0 .36-.06.45-.17.1-.11.19-.27.27-.48l.25-.65-1.67-3.91h.87l1.21 3.06zM133.42 431.46c0 .14-.05.27-.16.38a.52.52 0 0 1-.4.16c-.15 0-.28-.05-.39-.16s-.16-.23-.16-.38.05-.28.16-.38c.1-.11.24-.16.4-.16s.29.05.4.16.15.23.15.38z"/></svg>