<svg id="Layer_1" xmlns="http://www.w3.org/2000/svg" viewBox="0 0 160 600"><style>.st0{fill:#00b4ef}.st1{fill:#0072bb}</style><path class="st0" d="M101.43 33.6h4.82v1.13h-3.53v1.85h3.34v1.09h-3.34v2.06h3.71v1.15h-5.01V33.6zM110.16 33.6h1.3v6.13h3.1v1.15h-4.39V33.6zM117.88 33.6h1.29v7.28h-1.29V33.6zM124.72 34.73h-2.23V33.6h5.76v1.13h-2.23v6.15h-1.3v-6.15zM131.55 33.6h4.82v1.13h-3.53v1.85h3.34v1.09h-3.34v2.06h3.71v1.15h-5.01V33.6z"/><g><path class="st0" d="M39.07 29.06c0 .34-.27.6-.61.6-.34 0-.62-.27-.62-.6 0-.34.27-.6.62-.6.34 0 .61.26.61.6zm-1.08 0a.466.466 0 1 0 .93 0c0-.27-.2-.48-.46-.48-.27 0-.47.22-.47.48zm.37.31h-.14v-.6c.05-.01.13-.02.23-.02.11 0 .16.02.21.05.04.03.06.07.06.13 0 .07-.05.12-.12.14v.01c.06.02.09.07.11.15.02.09.03.12.04.15h-.15c-.02-.02-.03-.07-.05-.15-.01-.06-.05-.09-.12-.09h-.07v.23zm0-.33h.07c.08 0 .14-.03.14-.09 0-.05-.04-.09-.13-.09-.04 0-.06 0-.08.01v.17z"/><path class="st1" d="M48.05 26.97c-2.99 0-4.42-2.18-4.42-4.27 0-2.41 1.74-4.36 4.47-4.36.93 0 1.89.29 2.65.93l-.85 1.18c-.52-.41-1.08-.55-1.75-.55-1.45 0-2.53 1.01-2.53 2.75 0 1.59 1 2.85 2.58 2.85.68 0 1.27-.2 1.79-.66l.78 1.18c-.74.65-1.76.95-2.72.95M55.36 26.97c-2.5 0-4.34-1.89-4.34-4.35 0-2.53 2.01-4.27 4.34-4.27s4.36 1.72 4.36 4.25c0 2.49-1.84 4.37-4.36 4.37m2.35-4.35c0-1.52-.74-2.83-2.35-2.83-1.57 0-2.35 1.32-2.35 2.82 0 1.55.73 2.94 2.35 2.94s2.35-1.37 2.35-2.94v.01zM64.78 26.97c-2.5 0-4.34-1.89-4.34-4.35 0-2.53 2.01-4.27 4.34-4.27s4.35 1.72 4.35 4.25c.01 2.49-1.83 4.37-4.35 4.37m2.35-4.35c0-1.52-.74-2.83-2.35-2.83-1.57 0-2.35 1.32-2.35 2.82 0 1.55.73 2.94 2.35 2.94s2.35-1.37 2.35-2.94v.01zM70.12 26.77V14.68l1.87 1.03v11.06zM76.31 27.03c-2.11 0-3.12-1.01-3.12-1.01l.85-1.1s.96.64 2.23.64c.61 0 1.12-.42 1.12-.84s-.19-.78-.74-1.06c-.56-.29-1.18-.59-1.67-.83s-1.57-.96-1.57-2.38c0-1.43 1.45-2.23 2.94-2.23 1.42 0 2.5.93 2.5.93l-.73 1.11s-.81-.57-1.71-.57c-.89 0-1.08.57-1.08.81 0 .24.08.61.66.91.57.3 1.16.63 2.01 1.1.84.47 1.32 1.28 1.32 2.19-.02.91-.9 2.33-3.01 2.33M84.36 26.97c-2.99 0-4.42-2.18-4.42-4.27 0-2.41 1.74-4.36 4.47-4.36.93 0 1.89.29 2.65.93l-.84 1.18c-.52-.41-1.08-.55-1.76-.55-1.45 0-2.53 1.01-2.53 2.75 0 1.59 1 2.85 2.58 2.85.68 0 1.27-.2 1.79-.66l.78 1.18c-.74.65-1.75.95-2.72.95M93.6 25.81s-.95 1.16-2.74 1.16c-2.11 0-3.14-1.53-3.14-3.09v-5.35h1.87v5.27c0 .91.71 1.67 1.81 1.67.96 0 1.91-1.15 1.91-1.15v-5.79h1.87v8.22l-1.58-.94zM96.86 26.77V14.68l1.87 1.03v11.06zM104.93 26.97c-1.65 0-2.6-.93-2.6-.93v4.1h-1.89V18.37l1.89.99s1.01-1.03 2.7-1.03c1.77 0 3.98 1.37 3.98 4.42 0 3.06-2.18 4.22-4.08 4.22m-.12-7.19c-1.6 0-2.53 1.5-2.53 1.5v3.11s1.06 1.2 2.6 1.2c1.79 0 2.18-2.15 2.18-2.89-.01-.74-.18-2.92-2.25-2.92M113.94 26.99h-1.18c-1.49 0-1.99-1.44-1.99-2.38v-4.85h-1.49v-1.23h1.49V14.9h1.86v3.63h1.91v1.23h-1.89v4.39c0 .49-.08 1.27.74 1.27h1.35l-.8 1.57zM116.95 17.11c-.67 0-1.23-.56-1.23-1.23a1.23 1.23 0 1 1 1.23 1.23m-.93 1.42h1.84v8.24h-1.84v-8.24zM125.29 26.77V21.5c0-.91-.71-1.67-1.81-1.67-.96 0-2.04 1.15-2.04 1.15v5.79h-1.87v-8.22l1.59.95s1.08-1.17 2.87-1.17c2.11 0 3.14 1.54 3.14 3.09v5.35h-1.88zM132.88 30.6c-.29 0-2.48-.03-2.48-.03l.03-1.5h1.84c1.79 0 2.8-.96 2.8-2.28v-.74s-.98.93-2.63.93c-1.91 0-4.09-1.17-4.09-4.22 0-3.06 2.21-4.42 3.99-4.42 1.69 0 2.7 1.03 2.7 1.03l1.89-.94v8.19c.01 2.19-1.46 3.98-4.05 3.98m2.22-9.31s-.93-1.5-2.53-1.5c-2.08 0-2.24 2.17-2.24 2.92 0 .74.39 2.89 2.18 2.89 1.54 0 2.6-1.2 2.6-1.2v-3.11z"/><path class="st0" d="M26.85 33.02v-5.38l1.05-1.06 3.06 3.05v1.02z"/><path class="st1" d="M24.65 23.02l-3.45 3.46 4.23 1.58 5.03-5.04z"/><path class="st0" d="M26.35 18.21h-4.44l1.42 4.11h7.13z"/><path class="st1" d="M30.96 16.01l-3.43-3.43-1.61 4.21 5.04 5.03z"/><path class="st0" d="M41.35 27.13h-5.08l-4.11-4.11h7.13z"/><path class="st1" d="M37.2 17.29l4.61 1.2-3.84 3.83h-5.81z"/><path class="st0" d="M31.66 14.7l4.11-2.44v5.46l-4.11 4.1z"/><path class="st1" d="M36.9 28.76l-1.32 4.49-7.17-7.17 2.9-2.91zM139.74 19.09c0 .49-.39.87-.89.87s-.9-.39-.9-.87c0-.49.4-.87.9-.87.49 0 .89.38.89.87zm-1.57 0c0 .39.29.69.68.69.38.01.66-.31.66-.69 0-.38-.29-.7-.67-.7a.69.69 0 0 0-.67.7zm.54.45h-.2v-.87c.08-.01.19-.03.33-.03.17 0 .24.03.3.07.05.04.09.1.09.19 0 .11-.08.17-.18.21v.01c.08.03.13.1.15.21.03.13.05.18.06.21h-.21c-.03-.03-.04-.11-.07-.21-.02-.09-.07-.13-.18-.13h-.1v.34zm0-.48h.1c.11 0 .2-.04.2-.13 0-.08-.06-.13-.19-.13-.05 0-.09.01-.11.01v.25z"/></g></svg>