<?xml version="1.0" encoding="utf-8"?>
<!-- Generator: Adobe Illustrator 25.4.1, SVG Export Plug-In . SVG Version: 6.00 Build 0)  -->
<svg version="1.1" id="Layer_1" xmlns="http://www.w3.org/2000/svg" xmlns:xlink="http://www.w3.org/1999/xlink" x="0px" y="0px"
	 viewBox="0 0 600 500" style="enable-background:new 0 0 600 500;" xml:space="preserve">
<style type="text/css">
	.st0{fill:#00A9E0;}
</style>
<g>
	<path class="st0" d="M135.7,78.87h-5.04v-3.12h13.68v3.12h-5.04v38.28h-3.6V78.87z"/>
	<path class="st0" d="M150.22,75.75h4.74l5.22,41.4h-3.66l-1.2-10.26h-5.64l-1.2,10.26H145L150.22,75.75z M154.96,103.77l-2.4-22.32
		h-0.12l-2.4,22.32H154.96z"/>
	<path class="st0" d="M164.32,75.75h3.6v38.28h7.68v3.12h-11.28V75.75z"/>
	<path class="st0" d="M191.08,117.15l-7.68-20.88h-0.12v20.88h-3.6v-41.4h3.6v19.32h0.12l7.5-19.32h3.66l-7.74,19.74l8.1,21.66
		H191.08z"/>
	<path class="st0" d="M211,78.87h-5.04v-3.12h13.68v3.12h-5.04v38.28H211V78.87z"/>
	<path class="st0" d="M223,110.25v-27.6c0-4.8,2.58-7.5,6.96-7.5s6.96,2.7,6.96,7.5v27.6c0,4.8-2.58,7.5-6.96,7.5
		S223,115.05,223,110.25z M233.32,109.65v-26.4c0-3.48-0.96-4.86-3.36-4.86c-2.46,0-3.36,1.38-3.36,4.86v26.4
		c0,3.48,0.9,4.86,3.36,4.86C232.36,114.51,233.32,113.13,233.32,109.65z"/>
	<path class="st0" d="M254.92,97.83l-5.82-22.08h3.72l3.96,16.38h0.12l3.96-16.38h3.48l-5.82,22.08v19.32h-3.6V97.83z"/>
	<path class="st0" d="M267.22,110.25v-27.6c0-4.8,2.58-7.5,6.96-7.5s6.96,2.7,6.96,7.5v27.6c0,4.8-2.58,7.5-6.96,7.5
		S267.22,115.05,267.22,110.25z M277.54,109.65v-26.4c0-3.48-0.96-4.86-3.36-4.86c-2.46,0-3.36,1.38-3.36,4.86v26.4
		c0,3.48,0.9,4.86,3.36,4.86C276.58,114.51,277.54,113.13,277.54,109.65z"/>
	<path class="st0" d="M286.3,110.49V75.75h3.6v34.08c0,3.36,0.84,4.68,3.24,4.68s3.24-1.32,3.24-4.68V75.75h3.48v34.74
		c0,4.62-2.52,7.26-6.78,7.26S286.3,115.11,286.3,110.49z"/>
	<path class="st0" d="M305.26,75.75h6.66c4.8,0,7.08,2.46,7.08,7.5v5.28c0,3.36-1.08,5.4-3.24,6.36v0.12c2.16,0.96,3.24,3,3.24,6.42
		v15.72h-3.6v-15.48c0-3.84-1.08-4.98-4.5-4.98h-2.04v20.46h-3.6V75.75z M311.5,93.57c3,0,3.9-1.14,3.9-4.98v-4.74
		c0-3.84-0.9-4.98-3.9-4.98h-2.64v14.7H311.5z"/>
	<path class="st0" d="M332.62,75.75h6.84c4.8,0,7.08,2.46,7.08,7.5v6.48c0,5.04-2.28,7.5-7.08,7.5h-3.24v19.92h-3.6V75.75z
		 M339.04,94.11c3,0,3.9-1.14,3.9-4.98v-5.28c0-3.84-0.9-4.98-3.9-4.98h-2.82v15.24H339.04z"/>
	<path class="st0" d="M351.04,75.75h6.66c4.8,0,7.08,2.46,7.08,7.5v5.28c0,3.36-1.08,5.4-3.24,6.36v0.12c2.16,0.96,3.24,3,3.24,6.42
		v15.72h-3.6v-15.48c0-3.84-1.08-4.98-4.5-4.98h-2.04v20.46h-3.6V75.75z M357.28,93.57c3,0,3.9-1.14,3.9-4.98v-4.74
		c0-3.84-0.9-4.98-3.9-4.98h-2.64v14.7H357.28z"/>
	<path class="st0" d="M369.76,110.25v-27.6c0-4.8,2.58-7.5,6.96-7.5s6.96,2.7,6.96,7.5v27.6c0,4.8-2.58,7.5-6.96,7.5
		S369.76,115.05,369.76,110.25z M380.08,109.65v-26.4c0-3.48-0.96-4.86-3.36-4.86c-2.46,0-3.36,1.38-3.36,4.86v26.4
		c0,3.48,0.9,4.86,3.36,4.86C379.12,114.51,380.08,113.13,380.08,109.65z"/>
	<path class="st0" d="M387.46,75.75h3.66l3.78,34.8h0.12l3.78-34.8h3.42l-4.98,41.4h-4.8L387.46,75.75z"/>
	<path class="st0" d="M406.42,75.75h3.6v41.4h-3.6V75.75z"/>
	<path class="st0" d="M415.54,75.75h6.84c4.8,0,7.08,2.46,7.08,7.5v26.4c0,5.04-2.28,7.5-7.08,7.5h-6.84V75.75z M421.96,114.03
		c3,0,3.9-1.14,3.9-4.98v-25.2c0-3.84-0.9-4.98-3.9-4.98h-2.82v35.16H421.96z"/>
	<path class="st0" d="M434.68,75.75h11.88v3.12h-8.28v14.46h7.2v3.12h-7.2v17.58h8.28v3.12h-11.88V75.75z"/>
	<path class="st0" d="M450.88,75.75h6.66c4.8,0,7.08,2.46,7.08,7.5v5.28c0,3.36-1.08,5.4-3.24,6.36v0.12c2.16,0.96,3.24,3,3.24,6.42
		v15.72h-3.6v-15.48c0-3.84-1.08-4.98-4.5-4.98h-2.04v20.46h-3.6V75.75z M457.12,93.57c3,0,3.9-1.14,3.9-4.98v-4.74
		c0-3.84-0.9-4.98-3.9-4.98h-2.64v14.7H457.12z"/>
	<path class="st0" d="M139.51,129.75h4.74l5.22,41.4h-3.66l-1.2-10.26h-5.64l-1.2,10.26h-3.48L139.51,129.75z M144.25,157.77
		l-2.4-22.32h-0.12l-2.4,22.32H144.25z"/>
	<path class="st0" d="M153.61,129.75h6.66c4.8,0,7.08,2.46,7.08,7.5v4.98c0,3.36-1.02,5.4-3.12,6.36v0.12
		c2.28,0.96,3.36,3,3.36,6.48v8.46c0,5.04-2.28,7.5-7.08,7.5h-6.9V129.75z M159.85,147.33c3,0,3.9-1.14,3.9-4.92v-4.56
		c0-3.84-0.9-4.98-3.9-4.98h-2.64v14.46H159.85z M160.09,168.03c3,0,3.9-1.14,3.9-4.98v-7.62c0-3.84-0.9-4.98-3.9-4.98h-2.88v17.58
		H160.09z"/>
	<path class="st0" d="M172.33,164.25v-27.6c0-4.8,2.58-7.5,6.96-7.5s6.96,2.7,6.96,7.5v27.6c0,4.8-2.58,7.5-6.96,7.5
		S172.33,169.05,172.33,164.25z M182.65,163.65v-26.4c0-3.48-0.96-4.86-3.36-4.86c-2.46,0-3.36,1.38-3.36,4.86v26.4
		c0,3.48,0.9,4.86,3.36,4.86C181.69,168.51,182.65,167.13,182.65,163.65z"/>
	<path class="st0" d="M191.41,164.49v-34.74h3.6v34.08c0,3.36,0.84,4.68,3.24,4.68s3.24-1.32,3.24-4.68v-34.08h3.48v34.74
		c0,4.62-2.52,7.26-6.78,7.26S191.41,169.11,191.41,164.49z"/>
	<path class="st0" d="M213.97,132.87h-5.04v-3.12h13.68v3.12h-5.04v38.28h-3.6V132.87z"/>
	<path class="st0" d="M238.93,129.75h4.74l5.22,41.4h-3.66l-1.2-10.26h-5.64l-1.2,10.26h-3.48L238.93,129.75z M243.67,157.77
		l-2.4-22.32h-0.12l-2.4,22.32H243.67z"/>
	<path class="st0" d="M261.43,129.75h6.84c4.8,0,7.08,2.46,7.08,7.5v6.48c0,5.04-2.28,7.5-7.08,7.5h-3.24v19.92h-3.6V129.75z
		 M267.85,148.11c3,0,3.9-1.14,3.9-4.98v-5.28c0-3.84-0.9-4.98-3.9-4.98h-2.82v15.24H267.85z"/>
	<path class="st0" d="M279.85,129.75h11.88v3.12h-8.28v14.46h7.2v3.12h-7.2v17.58h8.28v3.12h-11.88V129.75z"/>
	<path class="st0" d="M296.05,129.75h6.66c4.8,0,7.08,2.46,7.08,7.5v5.28c0,3.36-1.08,5.4-3.24,6.36v0.12
		c2.16,0.96,3.24,3,3.24,6.42v15.72h-3.6v-15.48c0-3.84-1.08-4.98-4.5-4.98h-2.04v20.46h-3.6V129.75z M302.29,147.57
		c3,0,3.9-1.14,3.9-4.98v-4.74c0-3.84-0.9-4.98-3.9-4.98h-2.64v14.7H302.29z"/>
	<path class="st0" d="M314.35,164.37v-7.26h3.48v6.6c0,3.42,0.96,4.8,3.36,4.8c2.46,0,3.42-1.38,3.42-4.8v-6.24
		c0-2.82-0.78-4.2-2.82-5.52l-3.18-2.04c-3.06-1.98-4.26-4.26-4.26-8.28v-5.34c0-4.56,2.46-7.14,6.72-7.14s6.72,2.58,6.72,7.14v5.34
		h-3.48v-4.74c0-3.24-0.9-4.5-3.18-4.5c-2.28,0-3.18,1.26-3.18,4.5v4.5c0,2.82,0.78,4.2,2.82,5.52l3.18,2.04
		c3.06,1.98,4.26,4.26,4.26,8.28v7.14c0,4.74-2.58,7.38-6.96,7.38S314.35,169.11,314.35,164.37z"/>
	<path class="st0" d="M332.71,164.25v-27.6c0-4.8,2.58-7.5,6.96-7.5s6.96,2.7,6.96,7.5v27.6c0,4.8-2.58,7.5-6.96,7.5
		S332.71,169.05,332.71,164.25z M343.03,163.65v-26.4c0-3.48-0.96-4.86-3.36-4.86c-2.46,0-3.36,1.38-3.36,4.86v26.4
		c0,3.48,0.9,4.86,3.36,4.86C342.07,168.51,343.03,167.13,343.03,163.65z"/>
	<path class="st0" d="M351.91,129.75h4.68l6.54,30.3h0.12v-30.3h3.24v41.4h-3.9l-7.32-34.14h-0.12v34.14h-3.24V129.75z"/>
	<path class="st0" d="M375.85,129.75h4.74l5.22,41.4h-3.66l-1.2-10.26h-5.64l-1.2,10.26h-3.48L375.85,129.75z M380.59,157.77
		l-2.4-22.32h-0.12l-2.4,22.32H380.59z"/>
	<path class="st0" d="M389.95,129.75h3.6v38.28h7.68v3.12h-11.28V129.75z"/>
	<path class="st0" d="M405.3,129.75h3.6v41.4h-3.6V129.75z"/>
	<path class="st0" d="M413.1,168.33l9.78-35.46h-9.18v-3.12h12.96v2.82l-9.78,35.46h9.78v3.12H413.1V168.33z"/>
	<path class="st0" d="M430.92,129.75h11.88v3.12h-8.28v14.46h7.2v3.12h-7.2v17.58h8.28v3.12h-11.88V129.75z"/>
	<path class="st0" d="M447.12,129.75h6.84c4.8,0,7.08,2.46,7.08,7.5v26.4c0,5.04-2.28,7.5-7.08,7.5h-6.84V129.75z M453.54,168.03
		c3,0,3.9-1.14,3.9-4.98v-25.2c0-3.84-0.9-4.98-3.9-4.98h-2.82v35.16H453.54z"/>
	<path class="st0" d="M178.09,186.87h-5.04v-3.12h13.68v3.12h-5.04v38.28h-3.6V186.87z"/>
	<path class="st0" d="M190.81,183.75h6.66c4.8,0,7.08,2.46,7.08,7.5v5.28c0,3.36-1.08,5.4-3.24,6.36v0.12
		c2.16,0.96,3.24,3,3.24,6.42v15.72h-3.6v-15.48c0-3.84-1.08-4.98-4.5-4.98h-2.04v20.46h-3.6V183.75z M197.05,201.57
		c3,0,3.9-1.14,3.9-4.98v-4.74c0-3.84-0.9-4.98-3.9-4.98h-2.64v14.7H197.05z"/>
	<path class="st0" d="M209.77,183.75h11.88v3.12h-8.28v14.46h7.2v3.12h-7.2v17.58h8.28v3.12h-11.88V183.75z"/>
	<path class="st0" d="M229.99,183.75h4.74l5.22,41.4h-3.66l-1.2-10.26h-5.64l-1.2,10.26h-3.48L229.99,183.75z M234.73,211.77
		l-2.4-22.32h-0.12l-2.4,22.32H234.73z"/>
	<path class="st0" d="M245.65,186.87h-5.04v-3.12h13.68v3.12h-5.04v38.28h-3.6V186.87z"/>
	<path class="st0" d="M258.37,183.75h5.7l4.62,30.54h0.12l4.62-30.54h5.94v41.4h-3.6v-37.02h-0.12l-5.58,37.02h-2.82l-5.58-37.02
		h-0.12v37.02h-3.18V183.75z"/>
	<path class="st0" d="M284.89,183.75h11.88v3.12h-8.28v14.46h7.2v3.12h-7.2v17.58h8.28v3.12h-11.88V183.75z"/>
	<path class="st0" d="M301.09,183.75h4.68l6.54,30.3h0.12v-30.3h3.24v41.4h-3.9l-7.32-34.14h-0.12v34.14h-3.24V183.75z"/>
	<path class="st0" d="M324.79,186.87h-5.04v-3.12h13.68v3.12h-5.04v38.28h-3.6V186.87z"/>
	<path class="st0" d="M345.91,183.75h6.84c4.8,0,7.08,2.46,7.08,7.5v6.48c0,5.04-2.28,7.5-7.08,7.5h-3.24v19.92h-3.6V183.75z
		 M352.33,202.11c3,0,3.9-1.14,3.9-4.98v-5.28c0-3.84-0.9-4.98-3.9-4.98h-2.82v15.24H352.33z"/>
	<path class="st0" d="M364.33,183.75h3.6v38.28h7.68v3.12h-11.28V183.75z"/>
	<path class="st0" d="M383.71,183.75h4.74l5.22,41.4h-3.66l-1.2-10.26h-5.64l-1.2,10.26h-3.48L383.71,183.75z M388.45,211.77
		l-2.4-22.32h-0.12l-2.4,22.32H388.45z"/>
	<path class="st0" d="M397.81,183.75h4.68l6.54,30.3h0.12v-30.3h3.24v41.4h-3.9l-7.32-34.14h-0.12v34.14h-3.24V183.75z"/>
	<path class="st0" d="M417.91,220.23h4.02v4.92h-4.02V220.23z"/>
</g>
</svg>
