<?xml version="1.0" encoding="utf-8"?>
<!-- Generator: Adobe Illustrator 25.4.1, SVG Export Plug-In . SVG Version: 6.00 Build 0)  -->
<svg version="1.1" id="Layer_1" xmlns="http://www.w3.org/2000/svg" xmlns:xlink="http://www.w3.org/1999/xlink" x="0px" y="0px"
	 viewBox="0 0 600 500" style="enable-background:new 0 0 600 500;" xml:space="preserve">
<style type="text/css">
	.st0{fill:#BDD6E6;}
	.st1{fill:#FFFFFF;}
</style>
<g>
	<path class="st0" d="M182.4,289.89l0.78,1.07l-0.69,0.5l-0.78-1.07l-0.36-0.68l-0.36,0.68l-0.77,1.07l-0.69-0.5l0.78-1.07
		l0.54-0.55l-0.76-0.14l-1.25-0.4l0.25-0.81l1.26,0.41l0.68,0.34l-0.1-0.76l-0.01-1.32h0.87l-0.01,1.32l-0.12,0.77l0.69-0.35
		l1.26-0.41l0.25,0.81l-1.25,0.4l-0.77,0.14L182.4,289.89z"/>
	<path class="st0" d="M190.36,288.37h-2.37v5.96h-1.12v-5.96h-2.37v-0.97h5.87V288.37z"/>
	<path class="st0" d="M195.97,290.93v3.4h-1.12v-3.04c0-1.04-0.48-1.39-1.12-1.39c-0.69,0-1.43,0.45-1.43,1.66v2.77h-1.12v-7.61
		h1.12v3.2c0.35-0.65,0.97-0.95,1.7-0.95C195.11,288.98,195.97,289.62,195.97,290.93z"/>
	<path class="st0" d="M202.11,292.13h-3.84c0.13,0.92,0.67,1.42,1.52,1.42c0.69,0,1.15-0.25,1.32-0.71l0.93,0.39
		c-0.38,0.78-1.1,1.22-2.26,1.22c-1.66,0-2.64-1.02-2.64-2.73c0-1.71,0.92-2.73,2.56-2.73c1.57,0,2.44,1.05,2.44,2.57
		C202.15,291.75,202.13,291.99,202.11,292.13z M198.28,291.27h2.82c-0.1-0.88-0.6-1.4-1.39-1.4
		C198.89,289.87,198.39,290.36,198.28,291.27z"/>
	<path class="st0" d="M211.7,291.7c0,1.72-0.9,2.74-2.33,2.74c-0.78,0-1.38-0.38-1.69-0.96v3.05h-1.12v-7.45h0.99l0.05,0.97
		c0.3-0.64,0.94-1.07,1.78-1.07C210.8,288.98,211.7,289.98,211.7,291.7z M210.57,291.71c0-1.14-0.55-1.83-1.45-1.83
		c-0.88,0-1.45,0.66-1.45,1.76v0.13c0,1.09,0.57,1.75,1.45,1.75C210.03,293.52,210.57,292.85,210.57,291.71z"/>
	<path class="st0" d="M216.23,289.08l-0.18,1.03c-0.15-0.08-0.38-0.14-0.66-0.14c-0.63,0-1.32,0.5-1.32,1.57v2.78h-1.12v-5.25h0.96
		l0.1,0.93c0.28-0.68,0.84-1.04,1.65-1.04C215.86,288.98,216.08,289.01,216.23,289.08z"/>
	<path class="st0" d="M216.89,287.5c0-0.44,0.27-0.69,0.76-0.69c0.48,0,0.75,0.25,0.75,0.69c0,0.44-0.26,0.7-0.75,0.7
		C217.17,288.2,216.89,287.94,216.89,287.5z M218.21,294.33h-1.12v-5.25h1.12V294.33z"/>
	<path class="st0" d="M228.01,290.93v3.4h-1.12v-3.22c0-0.86-0.46-1.21-1.08-1.21c-0.73,0-1.36,0.56-1.36,1.58v2.86h-1.12v-3.22
		c0-0.86-0.46-1.21-1.08-1.21c-0.63,0-1.36,0.46-1.36,1.64v2.79h-1.12v-5.25h1l0.05,0.87c0.37-0.66,1.02-0.98,1.7-0.98
		c0.75,0,1.45,0.34,1.76,1.05c0.35-0.71,1.11-1.05,1.82-1.05C227.09,288.98,228.02,289.6,228.01,290.93z"/>
	<path class="st0" d="M234.43,293.55l-0.07,0.76c-0.17,0.07-0.39,0.12-0.65,0.12c-0.57,0-0.96-0.21-1.07-0.79
		c-0.33,0.5-1,0.79-1.77,0.79c-0.99,0-1.71-0.46-1.71-1.38c0-0.81,0.67-1.41,2.05-1.65l1.33-0.24v-0.27c0-0.63-0.39-1.04-1.07-1.04
		c-0.65,0-1.13,0.28-1.35,0.94l-0.87-0.46c0.25-0.83,1.06-1.37,2.21-1.37c1.31,0,2.21,0.6,2.21,1.86v2.37c0,0.26,0.1,0.39,0.39,0.39
		C234.18,293.6,234.31,293.59,234.43,293.55z M232.53,292.59v-0.63l-1.14,0.23c-0.71,0.14-1.07,0.38-1.07,0.8
		c0,0.39,0.29,0.6,0.79,0.6C231.8,293.59,232.53,293.22,232.53,292.59z"/>
	<path class="st0" d="M238.56,289.08l-0.18,1.03c-0.15-0.08-0.38-0.14-0.66-0.14c-0.63,0-1.32,0.5-1.32,1.57v2.78h-1.12v-5.25h0.96
		l0.1,0.93c0.28-0.68,0.84-1.04,1.65-1.04C238.2,288.98,238.42,289.01,238.56,289.08z"/>
	<path class="st0" d="M241.84,294.95c-0.46,1.22-1,1.64-1.94,1.64c-0.55,0-0.92-0.13-1.24-0.42l0.33-0.86
		c0.24,0.29,0.54,0.38,0.86,0.38c0.39,0,0.68-0.15,0.91-0.76l0.23-0.57l-0.55-1.3l-1.64-3.98h1.26l1.15,3.3l0.3,0.99l0.36-1.08
		l1.09-3.2h1.17L241.84,294.95z"/>
	<path class="st0" d="M252.81,291.71c0,1.71-0.98,2.73-2.61,2.73s-2.61-1.02-2.61-2.73c0-1.71,0.98-2.73,2.61-2.73
		S252.81,290,252.81,291.71z M248.72,291.71c0,1.19,0.54,1.85,1.48,1.85c0.95,0,1.49-0.66,1.49-1.85c0-1.19-0.55-1.85-1.49-1.85
		C249.25,289.86,248.72,290.52,248.72,291.71z"/>
	<path class="st0" d="M259.19,291.72c0,1.71-0.89,2.72-2.32,2.72c-0.84,0-1.48-0.43-1.78-1.07l-0.05,0.97h-0.99v-7.61h1.12v3.21
		c0.31-0.58,0.91-0.96,1.69-0.96C258.28,288.98,259.19,290,259.19,291.72z M258.06,291.71c0-1.14-0.55-1.82-1.45-1.82
		c-0.88,0-1.45,0.66-1.45,1.75v0.13c0,1.1,0.57,1.76,1.45,1.76C257.52,293.53,258.06,292.85,258.06,291.71z"/>
	<path class="st0" d="M261.56,294.79c0,1.34-0.84,1.79-1.72,1.79c-0.47,0-0.87-0.14-1.15-0.35l0.2-0.9
		c0.19,0.16,0.47,0.29,0.81,0.29c0.45,0,0.75-0.24,0.75-0.95v-5.61h1.12V294.79z M261.75,287.5c0,0.42-0.29,0.7-0.75,0.7
		c-0.46,0-0.76-0.28-0.76-0.7s0.29-0.69,0.76-0.69C261.45,286.8,261.75,287.08,261.75,287.5z"/>
	<path class="st0" d="M267.74,292.13h-3.84c0.13,0.92,0.67,1.42,1.52,1.42c0.69,0,1.16-0.25,1.32-0.71l0.93,0.39
		c-0.38,0.78-1.1,1.22-2.26,1.22c-1.66,0-2.63-1.02-2.63-2.73c0-1.71,0.92-2.73,2.56-2.73c1.57,0,2.44,1.05,2.44,2.57
		C267.79,291.75,267.76,291.99,267.74,292.13z M263.91,291.27h2.82c-0.1-0.88-0.6-1.4-1.39-1.4
		C264.52,289.87,264.03,290.36,263.91,291.27z"/>
	<path class="st0" d="M273.57,290.45l-1.05,0.42c-0.18-0.65-0.58-1-1.23-1c-0.93,0-1.48,0.66-1.48,1.85c0,1.19,0.56,1.83,1.48,1.83
		c0.72,0,1.15-0.37,1.29-1.02l1.03,0.35c-0.29,0.96-1.08,1.56-2.3,1.56c-1.66,0-2.63-1.02-2.63-2.73c0-1.71,0.98-2.73,2.61-2.73
		C272.56,288.98,273.25,289.59,273.57,290.45z"/>
	<path class="st0" d="M278.12,293.98c-0.34,0.28-0.83,0.45-1.4,0.45c-0.9,0-1.6-0.41-1.61-1.49v-2.98h-1v-0.88h1v-1.23l1.12-0.31
		v1.54h1.84v0.88h-1.84v2.79c0,0.51,0.3,0.75,0.77,0.75c0.36,0,0.62-0.13,0.85-0.34L278.12,293.98z"/>
	<path class="st0" d="M278.77,287.5c0-0.44,0.27-0.69,0.76-0.69c0.48,0,0.75,0.25,0.75,0.69c0,0.44-0.26,0.7-0.75,0.7
		C279.04,288.2,278.77,287.94,278.77,287.5z M280.08,294.33h-1.12v-5.25h1.12V294.33z"/>
	<path class="st0" d="M286.25,289.08l-2.09,5.25h-1.23l-2.1-5.25h1.24l1.48,4.34l1.52-4.34H286.25z"/>
	<path class="st0" d="M291.62,292.13h-3.84c0.13,0.92,0.67,1.42,1.52,1.42c0.69,0,1.16-0.25,1.32-0.71l0.93,0.39
		c-0.38,0.78-1.1,1.22-2.26,1.22c-1.66,0-2.63-1.02-2.63-2.73c0-1.71,0.92-2.73,2.56-2.73c1.57,0,2.44,1.05,2.44,2.57
		C291.66,291.75,291.64,291.99,291.62,292.13z M287.79,291.27h2.82c-0.1-0.88-0.6-1.4-1.39-1.4
		C288.4,289.87,287.9,290.36,287.79,291.27z"/>
	<path class="st0" d="M299.3,293.98c-0.34,0.28-0.83,0.45-1.4,0.45c-0.9,0-1.6-0.41-1.61-1.49v-2.98h-1v-0.88h1v-1.23l1.12-0.31
		v1.54h1.84v0.88h-1.84v2.79c0,0.51,0.3,0.75,0.77,0.75c0.36,0,0.62-0.13,0.85-0.34L299.3,293.98z"/>
	<path class="st0" d="M305.06,291.71c0,1.71-0.98,2.73-2.61,2.73s-2.61-1.02-2.61-2.73c0-1.71,0.98-2.73,2.61-2.73
		S305.06,290,305.06,291.71z M300.97,291.71c0,1.19,0.54,1.85,1.48,1.85c0.95,0,1.49-0.66,1.49-1.85c0-1.19-0.55-1.85-1.49-1.85
		C301.5,289.86,300.97,290.52,300.97,291.71z"/>
	<path class="st0" d="M314.14,292.13h-3.84c0.13,0.92,0.67,1.42,1.52,1.42c0.69,0,1.15-0.25,1.32-0.71l0.93,0.39
		c-0.38,0.78-1.1,1.22-2.26,1.22c-1.66,0-2.64-1.02-2.64-2.73c0-1.71,0.92-2.73,2.56-2.73c1.57,0,2.44,1.05,2.44,2.57
		C314.19,291.75,314.16,291.99,314.14,292.13z M310.31,291.27h2.82c-0.1-0.88-0.6-1.4-1.38-1.4
		C310.92,289.87,310.43,290.36,310.31,291.27z"/>
	<path class="st0" d="M319.86,289.08l-2.09,5.25h-1.23l-2.1-5.25h1.24l1.48,4.34l1.52-4.34H319.86z"/>
	<path class="st0" d="M325.4,293.55l-0.07,0.76c-0.17,0.07-0.39,0.12-0.65,0.12c-0.57,0-0.96-0.21-1.07-0.79
		c-0.33,0.5-1,0.79-1.77,0.79c-0.99,0-1.71-0.46-1.71-1.38c0-0.81,0.67-1.41,2.05-1.65l1.33-0.24v-0.27c0-0.63-0.39-1.04-1.07-1.04
		c-0.65,0-1.13,0.28-1.35,0.94l-0.87-0.46c0.25-0.83,1.06-1.37,2.2-1.37c1.31,0,2.22,0.6,2.22,1.86v2.37c0,0.26,0.1,0.39,0.39,0.39
		C325.15,293.6,325.28,293.59,325.4,293.55z M323.5,292.59v-0.63l-1.14,0.23c-0.71,0.14-1.07,0.38-1.07,0.8
		c0,0.39,0.29,0.6,0.79,0.6C322.78,293.59,323.5,293.22,323.5,292.59z"/>
	<path class="st0" d="M327.34,292.8c0,0.51,0.13,0.69,0.55,0.69c0.26,0,0.42-0.03,0.69-0.14l-0.13,0.9
		c-0.23,0.12-0.57,0.18-0.87,0.18c-0.93,0-1.37-0.46-1.37-1.48v-6.24h1.12V292.8z"/>
	<path class="st0" d="M334.07,289.08v5.25h-1l-0.05-0.85c-0.36,0.66-1.01,0.96-1.86,0.96c-1.05,0-1.89-0.54-1.89-1.9v-3.45h1.12
		v3.16c0,0.98,0.42,1.27,1.08,1.27c0.8,0,1.47-0.48,1.47-1.6v-2.83H334.07z"/>
	<path class="st0" d="M340.53,293.55l-0.07,0.76c-0.17,0.07-0.39,0.12-0.65,0.12c-0.57,0-0.96-0.21-1.07-0.79
		c-0.33,0.5-1,0.79-1.77,0.79c-0.99,0-1.71-0.46-1.71-1.38c0-0.81,0.67-1.41,2.05-1.65l1.33-0.24v-0.27c0-0.63-0.39-1.04-1.07-1.04
		c-0.65,0-1.13,0.28-1.35,0.94l-0.87-0.46c0.25-0.83,1.06-1.37,2.21-1.37c1.31,0,2.21,0.6,2.21,1.86v2.37c0,0.26,0.1,0.39,0.39,0.39
		C340.28,293.6,340.41,293.59,340.53,293.55z M338.63,292.59v-0.63l-1.14,0.23c-0.71,0.14-1.07,0.38-1.07,0.8
		c0,0.39,0.29,0.6,0.79,0.6C337.91,293.59,338.63,293.22,338.63,292.59z"/>
	<path class="st0" d="M344.57,293.98c-0.34,0.28-0.83,0.45-1.4,0.45c-0.9,0-1.6-0.41-1.61-1.49v-2.98h-1v-0.88h1v-1.23l1.12-0.31
		v1.54h1.84v0.88h-1.84v2.79c0,0.51,0.3,0.75,0.77,0.75c0.36,0,0.62-0.13,0.85-0.34L344.57,293.98z"/>
	<path class="st0" d="M350.06,292.13h-3.84c0.13,0.92,0.67,1.42,1.52,1.42c0.69,0,1.16-0.25,1.32-0.71l0.93,0.39
		c-0.38,0.78-1.1,1.22-2.26,1.22c-1.66,0-2.63-1.02-2.63-2.73c0-1.71,0.92-2.73,2.56-2.73c1.57,0,2.44,1.05,2.44,2.57
		C350.11,291.75,350.08,291.99,350.06,292.13z M346.23,291.27h2.82c-0.1-0.88-0.6-1.4-1.39-1.4
		C346.84,289.87,346.35,290.36,346.23,291.27z"/>
	<path class="st0" d="M359.43,291.71c0,1.71-0.98,2.73-2.61,2.73s-2.61-1.02-2.61-2.73c0-1.71,0.98-2.73,2.61-2.73
		S359.43,290,359.43,291.71z M355.34,291.71c0,1.19,0.54,1.85,1.48,1.85c0.95,0,1.49-0.66,1.49-1.85c0-1.19-0.55-1.85-1.49-1.85
		C355.87,289.86,355.34,290.52,355.34,291.71z"/>
	<path class="st0" d="M365.26,289.08l-2.09,5.25h-1.23l-2.1-5.25h1.24l1.48,4.34l1.52-4.34H365.26z"/>
	<path class="st0" d="M370.62,292.13h-3.84c0.13,0.92,0.67,1.42,1.52,1.42c0.69,0,1.15-0.25,1.32-0.71l0.93,0.39
		c-0.38,0.78-1.1,1.22-2.26,1.22c-1.66,0-2.63-1.02-2.63-2.73c0-1.71,0.92-2.73,2.56-2.73c1.58,0,2.44,1.05,2.44,2.57
		C370.66,291.75,370.64,291.99,370.62,292.13z M366.79,291.27h2.82c-0.11-0.88-0.6-1.4-1.39-1.4
		C367.4,289.87,366.91,290.36,366.79,291.27z"/>
	<path class="st0" d="M375.15,289.08l-0.18,1.03c-0.15-0.08-0.38-0.14-0.66-0.14c-0.63,0-1.32,0.5-1.32,1.57v2.78h-1.12v-5.25h0.96
		l0.1,0.93c0.28-0.68,0.84-1.04,1.65-1.04C374.78,288.98,375,289.01,375.15,289.08z"/>
	<path class="st0" d="M380.81,293.55l-0.07,0.76c-0.17,0.07-0.39,0.12-0.65,0.12c-0.57,0-0.96-0.21-1.07-0.79
		c-0.33,0.5-1,0.79-1.77,0.79c-0.99,0-1.71-0.46-1.71-1.38c0-0.81,0.67-1.41,2.05-1.65l1.33-0.24v-0.27c0-0.63-0.39-1.04-1.07-1.04
		c-0.65,0-1.13,0.28-1.35,0.94l-0.87-0.46c0.25-0.83,1.06-1.37,2.2-1.37c1.31,0,2.22,0.6,2.22,1.86v2.37c0,0.26,0.1,0.39,0.39,0.39
		C380.56,293.6,380.69,293.59,380.81,293.55z M378.91,292.59v-0.63l-1.14,0.23c-0.71,0.14-1.07,0.38-1.07,0.8
		c0,0.39,0.29,0.6,0.79,0.6C378.18,293.59,378.91,293.22,378.91,292.59z"/>
	<path class="st0" d="M382.75,292.8c0,0.51,0.13,0.69,0.55,0.69c0.26,0,0.42-0.03,0.69-0.14l-0.13,0.9
		c-0.23,0.12-0.57,0.18-0.87,0.18c-0.93,0-1.37-0.46-1.37-1.48v-6.24h1.12V292.8z"/>
	<path class="st0" d="M385.82,292.8c0,0.51,0.13,0.69,0.55,0.69c0.26,0,0.42-0.03,0.69-0.14l-0.13,0.9
		c-0.23,0.12-0.57,0.18-0.87,0.18c-0.93,0-1.37-0.46-1.37-1.48v-6.24h1.12V292.8z"/>
	<path class="st0" d="M395.83,291.7c0,1.72-0.9,2.74-2.33,2.74c-0.78,0-1.38-0.38-1.69-0.96v3.05h-1.12v-7.45h0.99l0.05,0.97
		c0.3-0.64,0.95-1.07,1.79-1.07C394.94,288.98,395.83,289.98,395.83,291.7z M394.71,291.71c0-1.14-0.55-1.83-1.45-1.83
		c-0.88,0-1.45,0.66-1.45,1.76v0.13c0,1.09,0.57,1.75,1.45,1.75C394.16,293.52,394.71,292.85,394.71,291.71z"/>
	<path class="st0" d="M402,293.55l-0.07,0.76c-0.17,0.07-0.39,0.12-0.65,0.12c-0.57,0-0.96-0.21-1.07-0.79
		c-0.33,0.5-1,0.79-1.77,0.79c-0.99,0-1.71-0.46-1.71-1.38c0-0.81,0.67-1.41,2.05-1.65l1.33-0.24v-0.27c0-0.63-0.39-1.04-1.07-1.04
		c-0.65,0-1.13,0.28-1.35,0.94l-0.87-0.46c0.25-0.83,1.06-1.37,2.2-1.37c1.31,0,2.21,0.6,2.21,1.86v2.37c0,0.26,0.11,0.39,0.39,0.39
		C401.74,293.6,401.88,293.59,402,293.55z M400.1,292.59v-0.63l-1.14,0.23c-0.71,0.14-1.07,0.38-1.07,0.8c0,0.39,0.29,0.6,0.79,0.6
		C399.37,293.59,400.1,293.22,400.1,292.59z"/>
	<path class="st0" d="M406.04,293.98c-0.34,0.28-0.83,0.45-1.4,0.45c-0.9,0-1.6-0.41-1.61-1.49v-2.98h-1v-0.88h1v-1.23l1.12-0.31
		v1.54H406v0.88h-1.84v2.79c0,0.51,0.3,0.75,0.77,0.75c0.36,0,0.62-0.13,0.85-0.34L406.04,293.98z"/>
	<path class="st0" d="M406.69,287.5c0-0.44,0.27-0.69,0.76-0.69c0.48,0,0.75,0.25,0.75,0.69c0,0.44-0.26,0.7-0.75,0.7
		C406.96,288.2,406.69,287.94,406.69,287.5z M408,294.33h-1.12v-5.25H408V294.33z"/>
	<path class="st0" d="M414.2,292.13h-3.84c0.12,0.92,0.67,1.42,1.52,1.42c0.69,0,1.16-0.25,1.32-0.71l0.93,0.39
		c-0.38,0.78-1.1,1.22-2.26,1.22c-1.66,0-2.63-1.02-2.63-2.73c0-1.71,0.92-2.73,2.56-2.73c1.58,0,2.44,1.05,2.44,2.57
		C414.24,291.75,414.22,291.99,414.2,292.13z M410.37,291.27h2.82c-0.11-0.88-0.6-1.4-1.39-1.4
		C410.97,289.87,410.48,290.36,410.37,291.27z"/>
	<path class="st0" d="M420.23,290.93v3.4h-1.12v-3.04c0-1.04-0.48-1.39-1.12-1.39c-0.69,0-1.43,0.44-1.43,1.65v2.78h-1.12v-5.25h1
		l0.05,0.88c0.36-0.69,1.02-0.99,1.77-0.99C419.37,288.98,420.23,289.62,420.23,290.93z"/>
	<path class="st0" d="M425.07,293.98c-0.34,0.28-0.83,0.45-1.4,0.45c-0.9,0-1.6-0.41-1.61-1.49v-2.98h-1v-0.88h1v-1.23l1.12-0.31
		v1.54h1.84v0.88h-1.84v2.79c0,0.51,0.3,0.75,0.77,0.75c0.36,0,0.62-0.13,0.85-0.34L425.07,293.98z"/>
	<path class="st0" d="M200.56,304.33l0.76-0.65c0.27,0.63,0.89,0.87,1.63,0.87c0.75,0,1.12-0.27,1.12-0.63
		c0-0.33-0.3-0.51-1.22-0.69c-1.56-0.29-2.11-0.75-2.11-1.63c0-0.85,0.8-1.63,2.2-1.63c1.17,0,1.83,0.38,2.2,1.19l-0.8,0.59
		c-0.26-0.63-0.71-0.89-1.4-0.89c-0.65,0-1.09,0.31-1.09,0.64c0,0.38,0.3,0.58,1.29,0.76c1.5,0.27,2.04,0.72,2.04,1.6
		c0,0.92-0.84,1.58-2.29,1.58C201.88,305.44,201,305.1,200.56,304.33z"/>
	<path class="st0" d="M211.26,304.55l-0.07,0.76c-0.17,0.07-0.39,0.12-0.65,0.12c-0.57,0-0.96-0.21-1.07-0.79
		c-0.33,0.5-1,0.79-1.77,0.79c-0.99,0-1.71-0.46-1.71-1.38c0-0.81,0.67-1.41,2.05-1.65l1.33-0.24v-0.27c0-0.63-0.39-1.04-1.07-1.04
		c-0.65,0-1.13,0.28-1.35,0.94l-0.87-0.46c0.25-0.83,1.06-1.37,2.2-1.37c1.31,0,2.22,0.6,2.22,1.86v2.37c0,0.26,0.1,0.39,0.39,0.39
		C211.01,304.6,211.15,304.59,211.26,304.55z M209.36,303.59v-0.63l-1.14,0.23c-0.71,0.14-1.07,0.38-1.07,0.8
		c0,0.39,0.29,0.6,0.79,0.6C208.64,304.59,209.36,304.22,209.36,303.59z"/>
	<path class="st0" d="M215.31,304.98c-0.34,0.28-0.83,0.45-1.4,0.45c-0.9,0-1.6-0.41-1.61-1.49v-2.98h-1v-0.88h1v-1.23l1.12-0.31
		v1.54h1.84v0.88h-1.84v2.79c0,0.51,0.3,0.75,0.77,0.75c0.36,0,0.62-0.13,0.85-0.34L215.31,304.98z"/>
	<path class="st0" d="M215.96,298.5c0-0.44,0.27-0.69,0.76-0.69c0.48,0,0.75,0.25,0.75,0.69c0,0.44-0.26,0.7-0.75,0.7
		C216.23,299.2,215.96,298.94,215.96,298.5z M217.27,305.33h-1.12v-5.25h1.12V305.33z"/>
	<path class="st0" d="M218.37,304.33l0.76-0.65c0.27,0.63,0.89,0.87,1.63,0.87c0.75,0,1.12-0.27,1.12-0.63
		c0-0.33-0.3-0.51-1.22-0.69c-1.56-0.29-2.11-0.75-2.11-1.63c0-0.85,0.8-1.63,2.2-1.63c1.17,0,1.83,0.38,2.2,1.19l-0.8,0.59
		c-0.26-0.63-0.71-0.89-1.4-0.89c-0.65,0-1.09,0.31-1.09,0.64c0,0.38,0.3,0.58,1.29,0.76c1.5,0.27,2.04,0.72,2.04,1.6
		c0,0.92-0.84,1.58-2.29,1.58C219.7,305.44,218.82,305.1,218.37,304.33z"/>
	<path class="st0" d="M225.65,300.08h1.7v0.88h-1.67v4.37h-1.12v-4.37h-0.99v-0.88h0.99v-0.76c0-1.06,0.67-1.68,1.84-1.68
		c0.42,0,0.79,0.09,0.99,0.25l-0.21,0.82c-0.16-0.1-0.35-0.16-0.6-0.16c-0.59,0-0.92,0.25-0.92,0.85V300.08z"/>
	<path class="st0" d="M232.81,304.55l-0.07,0.76c-0.17,0.07-0.39,0.12-0.65,0.12c-0.57,0-0.96-0.21-1.07-0.79
		c-0.33,0.5-1,0.79-1.77,0.79c-0.99,0-1.71-0.46-1.71-1.38c0-0.81,0.67-1.41,2.05-1.65l1.33-0.24v-0.27c0-0.63-0.39-1.04-1.07-1.04
		c-0.65,0-1.13,0.28-1.35,0.94l-0.87-0.46c0.25-0.83,1.06-1.37,2.2-1.37c1.31,0,2.22,0.6,2.22,1.86v2.37c0,0.26,0.1,0.39,0.39,0.39
		C232.56,304.6,232.7,304.59,232.81,304.55z M230.91,303.59v-0.63l-1.14,0.23c-0.71,0.14-1.07,0.38-1.07,0.8
		c0,0.39,0.29,0.6,0.79,0.6C230.19,304.59,230.91,304.22,230.91,303.59z"/>
	<path class="st0" d="M238.24,301.45l-1.05,0.42c-0.18-0.65-0.58-1-1.23-1c-0.93,0-1.48,0.66-1.48,1.85c0,1.19,0.56,1.83,1.48,1.83
		c0.72,0,1.16-0.37,1.29-1.02l1.03,0.35c-0.29,0.96-1.08,1.56-2.3,1.56c-1.66,0-2.64-1.02-2.64-2.73c0-1.71,0.98-2.73,2.61-2.73
		C237.23,299.98,237.91,300.59,238.24,301.45z"/>
	<path class="st0" d="M242.79,304.98c-0.34,0.28-0.83,0.45-1.4,0.45c-0.9,0-1.6-0.41-1.61-1.49v-2.98h-1v-0.88h1v-1.23l1.12-0.31
		v1.54h1.84v0.88h-1.84v2.79c0,0.51,0.3,0.75,0.77,0.75c0.36,0,0.62-0.13,0.85-0.34L242.79,304.98z"/>
	<path class="st0" d="M243.44,298.5c0-0.44,0.27-0.69,0.76-0.69c0.48,0,0.75,0.25,0.75,0.69c0,0.44-0.26,0.7-0.75,0.7
		C243.71,299.2,243.44,298.94,243.44,298.5z M244.75,305.33h-1.12v-5.25h1.12V305.33z"/>
	<path class="st0" d="M251.22,302.71c0,1.71-0.98,2.73-2.61,2.73s-2.61-1.02-2.61-2.73c0-1.71,0.98-2.73,2.61-2.73
		S251.22,301,251.22,302.71z M247.12,302.71c0,1.19,0.54,1.85,1.48,1.85c0.94,0,1.49-0.66,1.49-1.85c0-1.19-0.55-1.85-1.49-1.85
		C247.66,300.86,247.12,301.52,247.12,302.71z"/>
	<path class="st0" d="M257.24,301.93v3.4h-1.12v-3.04c0-1.04-0.48-1.39-1.12-1.39c-0.69,0-1.43,0.44-1.43,1.65v2.78h-1.12v-5.25h1
		l0.05,0.88c0.36-0.69,1.02-0.99,1.77-0.99C256.38,299.98,257.24,300.62,257.24,301.93z"/>
	<path class="st0" d="M266.86,302.71c0,1.71-0.98,2.73-2.61,2.73s-2.61-1.02-2.61-2.73c0-1.71,0.98-2.73,2.61-2.73
		S266.86,301,266.86,302.71z M262.77,302.71c0,1.19,0.54,1.85,1.48,1.85c0.95,0,1.49-0.66,1.49-1.85c0-1.19-0.55-1.85-1.49-1.85
		C263.3,300.86,262.77,301.52,262.77,302.71z"/>
	<path class="st0" d="M269.51,300.08h1.7v0.88h-1.67v4.37h-1.12v-4.37h-0.99v-0.88h0.99v-0.76c0-1.06,0.67-1.68,1.84-1.68
		c0.42,0,0.79,0.09,0.99,0.25l-0.21,0.82c-0.16-0.1-0.35-0.16-0.6-0.16c-0.59,0-0.92,0.25-0.92,0.85V300.08z"/>
	<path class="st0" d="M279.24,300.08l-2.09,5.25h-1.23l-2.1-5.25h1.24l1.48,4.34l1.52-4.34H279.24z"/>
	<path class="st0" d="M279.8,298.5c0-0.44,0.27-0.69,0.76-0.69c0.48,0,0.75,0.25,0.75,0.69c0,0.44-0.26,0.7-0.75,0.7
		C280.07,299.2,279.8,298.94,279.8,298.5z M281.11,305.33h-1.12v-5.25h1.12V305.33z"/>
	<path class="st0" d="M282.21,304.33l0.76-0.65c0.27,0.63,0.89,0.87,1.63,0.87c0.75,0,1.12-0.27,1.12-0.63
		c0-0.33-0.3-0.51-1.22-0.69c-1.56-0.29-2.11-0.75-2.11-1.63c0-0.85,0.8-1.63,2.2-1.63c1.17,0,1.83,0.38,2.2,1.19l-0.8,0.59
		c-0.26-0.63-0.71-0.89-1.4-0.89c-0.65,0-1.09,0.31-1.09,0.64c0,0.38,0.3,0.58,1.29,0.76c1.5,0.27,2.04,0.72,2.04,1.6
		c0,0.92-0.84,1.58-2.29,1.58C283.54,305.44,282.65,305.1,282.21,304.33z"/>
	<path class="st0" d="M287.81,298.5c0-0.44,0.27-0.69,0.76-0.69c0.48,0,0.75,0.25,0.75,0.69c0,0.44-0.26,0.7-0.75,0.7
		C288.08,299.2,287.81,298.94,287.81,298.5z M289.12,305.33H288v-5.25h1.12V305.33z"/>
	<path class="st0" d="M295.81,302.72c0,1.71-0.89,2.72-2.32,2.72c-0.84,0-1.48-0.43-1.78-1.07l-0.05,0.97h-0.99v-7.61h1.12v3.21
		c0.31-0.58,0.91-0.96,1.69-0.96C294.91,299.98,295.81,301,295.81,302.72z M294.69,302.71c0-1.14-0.55-1.82-1.45-1.82
		c-0.88,0-1.45,0.66-1.45,1.75v0.13c0,1.1,0.57,1.76,1.45,1.76C294.14,304.53,294.69,303.85,294.69,302.71z"/>
	<path class="st0" d="M298.15,303.8c0,0.51,0.13,0.69,0.55,0.69c0.26,0,0.42-0.03,0.69-0.14l-0.13,0.9
		c-0.23,0.12-0.57,0.18-0.87,0.18c-0.93,0-1.36-0.46-1.36-1.48v-6.24h1.12V303.8z"/>
	<path class="st0" d="M304.78,303.13h-3.84c0.13,0.92,0.67,1.42,1.52,1.42c0.69,0,1.16-0.25,1.32-0.71l0.93,0.39
		c-0.38,0.78-1.1,1.22-2.26,1.22c-1.66,0-2.63-1.02-2.63-2.73c0-1.71,0.92-2.73,2.56-2.73c1.57,0,2.44,1.05,2.44,2.57
		C304.82,302.75,304.8,302.99,304.78,303.13z M300.94,302.27h2.82c-0.1-0.88-0.6-1.4-1.39-1.4
		C301.55,300.87,301.06,301.36,300.94,302.27z"/>
	<path class="st0" d="M310.54,300.08h1.7v0.88h-1.67v4.37h-1.12v-4.37h-0.99v-0.88h0.99v-0.76c0-1.06,0.67-1.68,1.84-1.68
		c0.42,0,0.79,0.09,0.99,0.25l-0.21,0.82c-0.16-0.1-0.35-0.16-0.6-0.16c-0.59,0-0.92,0.25-0.92,0.85V300.08z"/>
	<path class="st0" d="M317.7,304.55l-0.07,0.76c-0.17,0.07-0.39,0.12-0.65,0.12c-0.57,0-0.96-0.21-1.07-0.79
		c-0.33,0.5-1,0.79-1.77,0.79c-0.99,0-1.71-0.46-1.71-1.38c0-0.81,0.67-1.41,2.05-1.65l1.33-0.24v-0.27c0-0.63-0.39-1.04-1.07-1.04
		c-0.65,0-1.13,0.28-1.35,0.94l-0.87-0.46c0.25-0.83,1.06-1.37,2.2-1.37c1.31,0,2.22,0.6,2.22,1.86v2.37c0,0.26,0.1,0.39,0.39,0.39
		C317.45,304.6,317.59,304.59,317.7,304.55z M315.8,303.59v-0.63l-1.14,0.23c-0.71,0.14-1.07,0.38-1.07,0.8
		c0,0.39,0.29,0.6,0.79,0.6C315.08,304.59,315.8,304.22,315.8,303.59z"/>
	<path class="st0" d="M321.75,304.98c-0.34,0.28-0.83,0.45-1.4,0.45c-0.9,0-1.6-0.41-1.61-1.49v-2.98h-1v-0.88h1v-1.23l1.12-0.31
		v1.54h1.84v0.88h-1.84v2.79c0,0.51,0.3,0.75,0.77,0.75c0.36,0,0.62-0.13,0.85-0.34L321.75,304.98z"/>
	<path class="st0" d="M329.07,300.08l-0.18,1.03c-0.15-0.08-0.38-0.14-0.66-0.14c-0.63,0-1.32,0.5-1.32,1.57v2.78h-1.12v-5.25h0.96
		l0.1,0.93c0.28-0.68,0.84-1.04,1.65-1.04C328.71,299.98,328.93,300.01,329.07,300.08z"/>
	<path class="st0" d="M334.44,303.13h-3.84c0.13,0.92,0.67,1.42,1.52,1.42c0.69,0,1.15-0.25,1.32-0.71l0.93,0.39
		c-0.38,0.78-1.1,1.22-2.26,1.22c-1.66,0-2.63-1.02-2.63-2.73c0-1.71,0.92-2.73,2.56-2.73c1.58,0,2.44,1.05,2.44,2.57
		C334.48,302.75,334.46,302.99,334.44,303.13z M330.61,302.27h2.82c-0.11-0.88-0.6-1.4-1.39-1.4
		C331.22,300.87,330.72,301.36,330.61,302.27z"/>
	<path class="st0" d="M340.54,297.72v7.61h-0.99l-0.06-0.94c-0.3,0.62-0.95,1.05-1.77,1.05c-1.43,0-2.32-1.01-2.32-2.72
		c0-1.72,0.9-2.74,2.33-2.74c0.78,0,1.38,0.38,1.69,0.96v-3.21H340.54z M339.42,302.77v-0.13c0-1.09-0.57-1.75-1.45-1.75
		c-0.9,0-1.45,0.67-1.45,1.82c0,1.14,0.55,1.83,1.45,1.83C338.85,304.53,339.42,303.87,339.42,302.77z"/>
	<path class="st0" d="M346.83,300.08v5.25h-1l-0.05-0.85c-0.36,0.66-1.01,0.96-1.86,0.96c-1.05,0-1.89-0.54-1.89-1.9v-3.45h1.12
		v3.16c0,0.98,0.42,1.27,1.08,1.27c0.8,0,1.47-0.48,1.47-1.6v-2.83H346.83z"/>
	<path class="st0" d="M352.95,301.45l-1.05,0.42c-0.18-0.65-0.58-1-1.23-1c-0.93,0-1.48,0.66-1.48,1.85c0,1.19,0.56,1.83,1.48,1.83
		c0.72,0,1.16-0.37,1.29-1.02l1.03,0.35c-0.29,0.96-1.08,1.56-2.3,1.56c-1.66,0-2.63-1.02-2.63-2.73c0-1.71,0.98-2.73,2.61-2.73
		C351.94,299.98,352.62,300.59,352.95,301.45z"/>
	<path class="st0" d="M357.5,304.98c-0.34,0.28-0.83,0.45-1.4,0.45c-0.9,0-1.6-0.41-1.61-1.49v-2.98h-1v-0.88h1v-1.23l1.12-0.31
		v1.54h1.84v0.88h-1.84v2.79c0,0.51,0.3,0.75,0.77,0.75c0.36,0,0.62-0.13,0.85-0.34L357.5,304.98z"/>
	<path class="st0" d="M358.15,298.5c0-0.44,0.27-0.69,0.76-0.69c0.48,0,0.75,0.25,0.75,0.69c0,0.44-0.26,0.7-0.75,0.7
		C358.42,299.2,358.15,298.94,358.15,298.5z M359.46,305.33h-1.12v-5.25h1.12V305.33z"/>
	<path class="st0" d="M365.93,302.71c0,1.71-0.98,2.73-2.61,2.73s-2.61-1.02-2.61-2.73c0-1.71,0.98-2.73,2.61-2.73
		S365.93,301,365.93,302.71z M361.83,302.71c0,1.19,0.54,1.85,1.48,1.85c0.94,0,1.49-0.66,1.49-1.85c0-1.19-0.55-1.85-1.49-1.85
		C362.37,300.86,361.83,301.52,361.83,302.71z"/>
	<path class="st0" d="M371.96,301.93v3.4h-1.12v-3.04c0-1.04-0.48-1.39-1.12-1.39c-0.69,0-1.43,0.44-1.43,1.65v2.78h-1.12v-5.25h1
		l0.05,0.88c0.36-0.69,1.02-0.99,1.77-0.99C371.09,299.98,371.96,300.62,371.96,301.93z"/>
	<path class="st0" d="M374.8,304.67c0,0.46-0.3,0.77-0.79,0.77c-0.48,0-0.8-0.3-0.8-0.77s0.32-0.76,0.8-0.76
		C374.5,303.91,374.8,304.21,374.8,304.67z"/>
	<path class="st0" d="M381.99,298.08c-1.32,1.21-1.82,2.44-1.82,4.33c0,1.9,0.49,3.12,1.82,4.33l-0.59,0.59
		c-1.52-1.23-2.31-2.89-2.31-4.91c0-2.04,0.79-3.7,2.31-4.92L381.99,298.08z"/>
	<path class="st0" d="M387.39,301.93v3.4h-1.12v-3.04c0-1.04-0.48-1.39-1.12-1.39c-0.69,0-1.43,0.44-1.43,1.65v2.78h-1.12v-5.25h1
		l0.05,0.88c0.36-0.69,1.02-0.99,1.77-0.99C386.53,299.98,387.39,300.62,387.39,301.93z"/>
	<path class="st0" d="M393.68,301.49h-5v-0.92h5V301.49z M393.68,303.64h-5v-0.92h5V303.64z"/>
	<path class="st0" d="M400,301.88c0,2.37-0.99,3.56-2.75,3.56c-1.27,0-2.04-0.52-2.45-1.55l1.06-0.49c0.2,0.65,0.48,1.08,1.39,1.08
		c1.28,0,1.72-1.05,1.72-2.73v-0.12h-0.04c-0.21,0.88-1.07,1.19-1.85,1.19c-1.34,0-2.3-0.87-2.3-2.24c0-1.41,0.94-2.28,2.48-2.28
		C399.04,298.3,400,299.69,400,301.88z M395.91,300.59c0,0.79,0.49,1.27,1.35,1.27c0.81,0,1.35-0.51,1.35-1.27
		c0-0.79-0.55-1.3-1.35-1.3C396.4,299.28,395.91,299.77,395.91,300.59z"/>
	<path class="st0" d="M406.21,299.78l-0.99,0.47c-0.19-0.61-0.6-0.98-1.34-0.98c-1.02,0-1.71,1.13-1.71,2.67v0.19h0.04
		c0.23-0.81,1.06-1.17,1.83-1.17c1.38,0,2.31,0.86,2.31,2.21c0,1.39-0.95,2.26-2.47,2.26c-1.77,0-2.74-1.42-2.74-3.57
		c0-2.36,1.21-3.57,2.8-3.57C405.05,298.3,405.8,298.72,406.21,299.78z M402.52,303.17c0,0.79,0.54,1.3,1.35,1.3
		c0.86,0,1.35-0.48,1.35-1.3c0-0.79-0.49-1.27-1.35-1.27C403.06,301.9,402.52,302.41,402.52,303.17z"/>
	<path class="st0" d="M409.65,302.41c0,2.03-0.79,3.69-2.31,4.91l-0.59-0.59c1.32-1.21,1.82-2.43,1.82-4.33
		c0-1.9-0.49-3.13-1.82-4.33l0.59-0.59C408.86,298.72,409.65,300.38,409.65,302.41z"/>
	<path class="st1" d="M412.33,304.67c0,0.46-0.3,0.77-0.79,0.77c-0.48,0-0.8-0.3-0.8-0.77s0.32-0.76,0.8-0.76
		C412.02,303.91,412.33,304.21,412.33,304.67z"/>
</g>
</svg>
