<?xml version="1.0" encoding="utf-8"?>
<!-- Generator: Adobe Illustrator 25.2.1, SVG Export Plug-In . SVG Version: 6.00 Build 0)  -->
<svg version="1.1" id="Layer_1" xmlns="http://www.w3.org/2000/svg" xmlns:xlink="http://www.w3.org/1999/xlink" x="0px" y="0px"
	 viewBox="0 0 728 90" style="enable-background:new 0 0 728 90;" xml:space="preserve">
<style type="text/css">
	.st0{fill:#EAF5FB;}
</style>
<g>
	<path class="st0" d="M35.6,32.76V28.6h1.99v3.78c0,1.96,0.55,2.75,1.93,2.75c1.41,0,1.96-0.79,1.96-2.75v-3.58
		c0-1.62-0.45-2.41-1.62-3.16l-1.82-1.17c-1.75-1.13-2.44-2.44-2.44-4.75v-3.06c0-2.61,1.41-4.09,3.85-4.09s3.85,1.48,3.85,4.09
		v3.06h-1.99v-2.72c0-1.86-0.52-2.58-1.82-2.58c-1.31,0-1.82,0.72-1.82,2.58v2.58c0,1.62,0.45,2.41,1.62,3.16l1.82,1.17
		c1.75,1.14,2.44,2.44,2.44,4.75v4.09c0,2.72-1.48,4.23-3.99,4.23C37.05,36.99,35.6,35.48,35.6,32.76z"/>
	<path class="st0" d="M49.09,14.71H46.2v-1.79h7.84v1.79h-2.89v21.94h-2.06V14.71z"/>
	<path class="st0" d="M57.24,12.92h3.82c2.75,0,4.06,1.41,4.06,4.3v3.03c0,1.93-0.62,3.1-1.86,3.65v0.07
		c1.24,0.55,1.86,1.72,1.86,3.68v9.01h-2.06v-8.87c0-2.2-0.62-2.85-2.58-2.85H59.3v11.73h-2.06V12.92z M60.81,23.13
		c1.72,0,2.24-0.65,2.24-2.85v-2.72c0-2.2-0.52-2.85-2.24-2.85H59.3v8.43H60.81z"/>
	<path class="st0" d="M68.97,12.92h6.81v1.79h-4.75V23h4.13v1.79h-4.13v10.08h4.75v1.79h-6.81V12.92z"/>
	<path class="st0" d="M79.12,12.92h2.68l3.75,17.37h0.07V12.92h1.86v23.73h-2.24l-4.2-19.57h-0.07v19.57h-1.86V12.92z"/>
	<path class="st0" d="M91.36,33.28V16.84c0-2.72,1.48-4.26,3.96-4.26c2.51,0,3.92,1.55,3.92,4.26v2.61h-1.96v-2.24
		c0-2-0.55-2.79-1.93-2.79c-1.41,0-1.93,0.79-1.93,2.79v15.82c0,1.41,0.52,2.1,1.65,2.1c1.41,0,2.2-1.07,2.2-2.99v-6.81h-1.93v-1.79
		h3.99v13.1h-1.75v-1.69h-0.1c-0.55,1.31-1.55,2.03-2.96,2.03C92.53,36.99,91.36,35.58,91.36,33.28z"/>
	<path class="st0" d="M105.12,14.71h-2.89v-1.79h7.84v1.79h-2.89v21.94h-2.06V14.71z"/>
	<path class="st0" d="M113.27,12.92h2.06V23h3.89V12.92h2.06v23.73h-2.06V24.78h-3.89v11.87h-2.06V12.92z"/>
	<path class="st0" d="M125.31,12.92h6.81v1.79h-4.75V23h4.13v1.79h-4.13v10.08h4.75v1.79h-6.81V12.92z"/>
	<path class="st0" d="M135.46,12.92h2.68l3.75,17.37h0.07V12.92h1.86v23.73h-2.24l-4.2-19.57h-0.07v19.57h-1.86V12.92z"/>
	<path class="st0" d="M148.63,36.65h-0.83v-2.82h2.34v2.48l-1.51,3.82h-1.2L148.63,36.65z"/>
	<path class="st0" d="M161.91,14.71h-2.89v-1.79h7.84v1.79h-2.89v21.94h-2.06V14.71z"/>
	<path class="st0" d="M169.65,32.7V16.87c0-2.75,1.48-4.3,3.99-4.3s3.99,1.55,3.99,4.3V32.7c0,2.75-1.48,4.3-3.99,4.3
		S169.65,35.45,169.65,32.7z M175.56,32.35V17.22c0-2-0.55-2.79-1.93-2.79c-1.41,0-1.93,0.79-1.93,2.79v15.13
		c0,2,0.52,2.79,1.93,2.79C175.01,35.14,175.56,34.35,175.56,32.35z"/>
	<path class="st0" d="M181.52,12.92h2.68l3.75,17.37h0.07V12.92h1.86v23.73h-2.24l-4.2-19.57h-0.07v19.57h-1.86V12.92z"/>
	<path class="st0" d="M193.9,12.92h6.81v1.79h-4.75V23h4.13v1.79h-4.13v10.08h4.75v1.79h-6.81V12.92z"/>
	<path class="st0" d="M205.18,36.65h-0.83v-2.82h2.34v2.48l-1.51,3.82h-1.2L205.18,36.65z"/>
	<path class="st0" d="M38.87,46.46h2.72l2.99,23.73h-2.1l-0.69-5.88h-3.23l-0.69,5.88h-1.99L38.87,46.46z M41.59,62.52l-1.38-12.79
		h-0.07l-1.38,12.79H41.59z"/>
	<path class="st0" d="M47.81,46.46h2.68l3.75,17.37h0.07V46.46h1.86v23.73h-2.24l-4.2-19.57h-0.07v19.57h-1.86V46.46z"/>
	<path class="st0" d="M60.2,46.46h3.92c2.75,0,4.06,1.41,4.06,4.3v15.13c0,2.89-1.31,4.3-4.06,4.3H60.2V46.46z M63.88,68.4
		c1.72,0,2.24-0.65,2.24-2.86V51.1c0-2.2-0.52-2.85-2.24-2.85h-1.62V68.4H63.88z"/>
	<path class="st0" d="M77.7,46.46h6.81v1.79h-4.75v8.63h4.13v1.79h-4.13v11.52H77.7V46.46z"/>
	<path class="st0" d="M87.71,46.46h2.06v23.73h-2.06V46.46z"/>
	<path class="st0" d="M93.8,46.46h3.82c2.75,0,4.06,1.41,4.06,4.3v3.03c0,1.93-0.62,3.1-1.86,3.65v0.07
		c1.24,0.55,1.86,1.72,1.86,3.68v9.01h-2.06v-8.87c0-2.2-0.62-2.85-2.58-2.85h-1.17v11.73H93.8V46.46z M97.38,56.67
		c1.72,0,2.24-0.65,2.24-2.85V51.1c0-2.2-0.52-2.85-2.24-2.85h-1.51v8.43H97.38z"/>
	<path class="st0" d="M105.53,46.46h3.27l2.65,17.51h0.07l2.65-17.51h3.4v23.73h-2.06V48.97h-0.07l-3.2,21.22h-1.62l-3.2-21.22
		h-0.07v21.22h-1.82V46.46z"/>
	<path class="st0" d="M127.27,46.46h3.27l2.65,17.51h0.07l2.65-17.51h3.4v23.73h-2.06V48.97h-0.07l-3.2,21.22h-1.62l-3.2-21.22
		h-0.07v21.22h-1.82V46.46z"/>
	<path class="st0" d="M143.26,66.37V46.46h2.06v19.54c0,1.93,0.48,2.68,1.86,2.68c1.38,0,1.86-0.76,1.86-2.68V46.46h1.99v19.91
		c0,2.65-1.44,4.16-3.89,4.16C144.71,70.53,143.26,69.02,143.26,66.37z"/>
	<path class="st0" d="M154.62,66.3v-4.16h1.99v3.78c0,1.96,0.55,2.75,1.93,2.75c1.41,0,1.96-0.79,1.96-2.75v-3.58
		c0-1.62-0.45-2.41-1.62-3.16l-1.82-1.17c-1.75-1.13-2.44-2.44-2.44-4.75v-3.06c0-2.61,1.41-4.09,3.85-4.09s3.85,1.48,3.85,4.09
		v3.06h-1.99v-2.72c0-1.86-0.52-2.58-1.82-2.58c-1.31,0-1.82,0.72-1.82,2.58v2.58c0,1.62,0.45,2.41,1.62,3.16l1.82,1.17
		c1.75,1.13,2.44,2.44,2.44,4.75v4.09c0,2.72-1.48,4.23-3.99,4.23C156.06,70.53,154.62,69.02,154.62,66.3z"/>
	<path class="st0" d="M166,66.44V50.21c0-2.61,1.38-4.09,3.85-4.09c2.51,0,3.89,1.48,3.89,4.09v3.89h-1.96v-3.54
		c0-1.86-0.55-2.58-1.86-2.58c-1.34,0-1.86,0.72-1.86,2.58V66.1c0,1.86,0.52,2.58,1.86,2.58c1.31,0,1.86-0.72,1.86-2.58v-4.78h1.96
		v5.12c0,2.61-1.38,4.09-3.89,4.09C167.38,70.53,166,69.05,166,66.44z"/>
	<path class="st0" d="M177.39,46.46h2.06V68.4h4.4v1.79h-6.47V46.46z"/>
	<path class="st0" d="M187.05,46.46h6.81v1.79h-4.75v8.29h4.13v1.79h-4.13V68.4h4.75v1.79h-6.81V46.46z"/>
	<path class="st0" d="M196.89,66.3v-4.16h2v3.78c0,1.96,0.55,2.75,1.93,2.75c1.41,0,1.96-0.79,1.96-2.75v-3.58
		c0-1.62-0.45-2.41-1.62-3.16l-1.82-1.17c-1.75-1.13-2.44-2.44-2.44-4.75v-3.06c0-2.61,1.41-4.09,3.85-4.09s3.85,1.48,3.85,4.09
		v3.06h-1.99v-2.72c0-1.86-0.52-2.58-1.82-2.58c-1.31,0-1.82,0.72-1.82,2.58v2.58c0,1.62,0.45,2.41,1.62,3.16l1.82,1.17
		c1.75,1.13,2.44,2.44,2.44,4.75v4.09c0,2.72-1.48,4.23-3.99,4.23S196.89,69.02,196.89,66.3z"/>
	<path class="st0" d="M208.41,67.37h2.3v2.82h-2.3V67.37z"/>
</g>
</svg>
