<?xml version="1.0" encoding="utf-8"?>
<!-- Generator: Adobe Illustrator 25.2.1, SVG Export Plug-In . SVG Version: 6.00 Build 0)  -->
<svg version="1.1" id="Layer_1" xmlns="http://www.w3.org/2000/svg" xmlns:xlink="http://www.w3.org/1999/xlink" x="0px" y="0px"
	 viewBox="0 0 728 90" style="enable-background:new 0 0 728 90;" xml:space="preserve">
<style type="text/css">
	.st0{fill:#00A9E0;}
	.st1{fill:#FFFFFF;}
</style>
<rect x="456.7" y="54.3" class="st0" width="94.5" height="21.3"/>
<g>
	<path class="st1" d="M466.67,68.88v-7.21h1.75v5.69h2.79v1.52H466.67z"/>
	<path class="st1" d="M472.94,68.88v-7.21h4.84v1.48h-3.17v1.35h2.99v1.39h-2.99v1.5h3.35v1.49H472.94z"/>
	<path class="st1" d="M484.92,68.88l-0.56-1.42h-2.79l-0.53,1.42h-1.89l3.02-7.21h1.69l2.99,7.21H484.92z M482.98,63.6l-0.92,2.47
		h1.81L482.98,63.6z"/>
	<path class="st1" d="M492.22,68.88l-1.56-2.86h-0.59v2.86h-1.71v-7.21h2.75c1.38,0,2.76,0.53,2.76,2.18c0,0.97-0.57,1.66-1.5,1.94
		l1.88,3.08H492.22z M490.99,63.08h-0.93v1.68h0.82c0.56,0,1.26-0.14,1.26-0.88C492.15,63.21,491.51,63.08,490.99,63.08z"/>
	<path class="st1" d="M500.61,68.88l-2.9-4.71h-0.03l0.04,4.71h-1.69v-7.21h1.98l2.89,4.7h0.03l-0.04-4.7h1.69v7.21H500.61z"/>
	<path class="st1" d="M514.98,68.88l0.04-5.1h-0.03l-1.87,5.1h-1.22l-1.82-5.1h-0.03l0.04,5.1h-1.64v-7.21h2.47l1.64,4.62h0.04
		l1.57-4.62h2.51v7.21H514.98z"/>
	<path class="st1" d="M522.66,69.08c-2.25,0-3.92-1.55-3.92-3.83c0-2.31,1.67-3.77,3.92-3.77c2.26,0,3.93,1.46,3.93,3.77
		C526.59,67.53,524.92,69.08,522.66,69.08z M522.66,63.05c-1.22,0-2.06,0.94-2.06,2.2c0,1.3,0.84,2.24,2.06,2.24
		s2.07-0.94,2.07-2.24C524.72,63.99,523.88,63.05,522.66,63.05z"/>
	<path class="st1" d="M532.51,68.88l-1.56-2.86h-0.59v2.86h-1.71v-7.21h2.75c1.38,0,2.76,0.53,2.76,2.18c0,0.97-0.57,1.66-1.5,1.94
		l1.88,3.08H532.51z M531.28,63.08h-0.93v1.68h0.82c0.56,0,1.26-0.14,1.26-0.88C532.44,63.21,531.8,63.08,531.28,63.08z"/>
	<path class="st1" d="M536.32,68.88v-7.21h4.84v1.48h-3.17v1.35h2.99v1.39h-2.99v1.5h3.35v1.49H536.32z"/>
</g>
</svg>
