<?xml version="1.0" encoding="utf-8"?>
<!-- Generator: Adobe Illustrator 25.2.1, SVG Export Plug-In . SVG Version: 6.00 Build 0)  -->
<svg version="1.1" id="Layer_1" xmlns="http://www.w3.org/2000/svg" xmlns:xlink="http://www.w3.org/1999/xlink" x="0px" y="0px"
	 viewBox="0 0 728 90" style="enable-background:new 0 0 728 90;" xml:space="preserve">
<style type="text/css">
	.st0{fill:#FFFFFF;}
</style>
<g>
	<path class="st0" d="M36.73,83.96h-0.77v-5.49h0.77V83.96z"/>
	<path class="st0" d="M39.75,83.96h-0.79l-1.5-3.67h0.81l1.08,2.89h0.02l1.09-2.89h0.77L39.75,83.96z"/>
	<path class="st0" d="M44.22,81.58c0-0.27-0.08-0.48-0.25-0.61c-0.17-0.13-0.38-0.2-0.66-0.2c-0.21,0-0.4,0.04-0.58,0.12
		c-0.18,0.08-0.34,0.18-0.46,0.31l-0.39-0.46c0.18-0.17,0.4-0.3,0.66-0.4c0.26-0.1,0.54-0.15,0.84-0.15c0.26,0,0.49,0.04,0.69,0.11
		c0.19,0.08,0.35,0.18,0.48,0.31c0.12,0.13,0.22,0.28,0.28,0.46s0.09,0.36,0.09,0.57v1.6c0,0.12,0,0.25,0.01,0.39
		s0.02,0.25,0.04,0.34h-0.66c-0.04-0.18-0.06-0.35-0.06-0.53h-0.02c-0.13,0.2-0.3,0.35-0.51,0.46c-0.2,0.11-0.45,0.16-0.72,0.16
		c-0.14,0-0.3-0.02-0.45-0.06c-0.16-0.04-0.3-0.1-0.43-0.19c-0.13-0.09-0.24-0.2-0.32-0.35s-0.13-0.32-0.13-0.53
		c0-0.28,0.07-0.5,0.22-0.66s0.35-0.29,0.59-0.37c0.24-0.08,0.52-0.14,0.82-0.17c0.3-0.03,0.61-0.04,0.92-0.04V81.58z M44.04,82.2
		c-0.18,0-0.37,0.01-0.56,0.02s-0.37,0.05-0.53,0.09c-0.16,0.05-0.29,0.12-0.39,0.21s-0.15,0.22-0.15,0.37
		c0,0.11,0.02,0.2,0.07,0.27c0.04,0.07,0.1,0.13,0.17,0.18s0.15,0.08,0.24,0.1c0.09,0.02,0.18,0.03,0.27,0.03
		c0.34,0,0.6-0.1,0.79-0.31c0.18-0.2,0.28-0.46,0.28-0.77V82.2H44.04z"/>
	<path class="st0" d="M46.79,80.28c0.01,0.09,0.02,0.2,0.02,0.31c0.01,0.12,0.01,0.21,0.01,0.29h0.02c0.05-0.1,0.11-0.19,0.19-0.27
		c0.08-0.09,0.17-0.16,0.27-0.23c0.1-0.06,0.22-0.11,0.34-0.15c0.12-0.04,0.25-0.05,0.39-0.05c0.24,0,0.44,0.04,0.61,0.12
		s0.31,0.19,0.43,0.32c0.11,0.13,0.2,0.29,0.25,0.47c0.05,0.18,0.08,0.37,0.08,0.58v2.28h-0.73v-2.04c0-0.15-0.01-0.29-0.04-0.43
		c-0.02-0.13-0.07-0.25-0.13-0.36c-0.06-0.1-0.15-0.19-0.26-0.25c-0.11-0.06-0.25-0.09-0.42-0.09c-0.29,0-0.53,0.11-0.71,0.33
		c-0.18,0.22-0.27,0.51-0.27,0.88v1.95h-0.73v-2.88c0-0.1,0-0.22-0.01-0.38c-0.01-0.16-0.01-0.29-0.02-0.41H46.79z"/>
	<path class="st0" d="M52.85,80.28l0.83,2.81h0.02l0.88-2.81h0.77l0.89,2.81h0.02l0.83-2.81h0.77l-1.22,3.67h-0.76l-0.91-2.76h-0.02
		l-0.9,2.76h-0.76l-1.22-3.67H52.85z"/>
	<path class="st0" d="M60.85,81.58c0-0.27-0.08-0.48-0.25-0.61c-0.17-0.13-0.38-0.2-0.66-0.2c-0.21,0-0.4,0.04-0.58,0.12
		c-0.18,0.08-0.34,0.18-0.46,0.31l-0.39-0.46c0.18-0.17,0.4-0.3,0.66-0.4c0.26-0.1,0.54-0.15,0.84-0.15c0.26,0,0.49,0.04,0.69,0.11
		c0.19,0.08,0.35,0.18,0.48,0.31c0.12,0.13,0.22,0.28,0.28,0.46s0.09,0.36,0.09,0.57v1.6c0,0.12,0,0.25,0.01,0.39
		s0.02,0.25,0.04,0.34h-0.66c-0.04-0.18-0.06-0.35-0.06-0.53h-0.02c-0.13,0.2-0.3,0.35-0.51,0.46c-0.2,0.11-0.45,0.16-0.72,0.16
		c-0.14,0-0.3-0.02-0.45-0.06c-0.16-0.04-0.3-0.1-0.43-0.19c-0.13-0.09-0.24-0.2-0.32-0.35s-0.13-0.32-0.13-0.53
		c0-0.28,0.07-0.5,0.22-0.66s0.35-0.29,0.59-0.37c0.24-0.08,0.52-0.14,0.82-0.17c0.3-0.03,0.61-0.04,0.92-0.04V81.58z M60.68,82.2
		c-0.18,0-0.37,0.01-0.56,0.02s-0.37,0.05-0.53,0.09c-0.16,0.05-0.29,0.12-0.39,0.21s-0.15,0.22-0.15,0.37
		c0,0.11,0.02,0.2,0.07,0.27c0.04,0.07,0.1,0.13,0.17,0.18s0.15,0.08,0.24,0.1c0.09,0.02,0.18,0.03,0.27,0.03
		c0.34,0,0.6-0.1,0.79-0.31c0.18-0.2,0.28-0.46,0.28-0.77V82.2H60.68z"/>
	<path class="st0" d="M64.75,81.21c-0.08-0.13-0.2-0.24-0.35-0.33c-0.15-0.08-0.32-0.13-0.5-0.13c-0.08,0-0.17,0.01-0.25,0.03
		c-0.08,0.02-0.16,0.05-0.22,0.09c-0.06,0.04-0.12,0.09-0.16,0.15c-0.04,0.06-0.06,0.13-0.06,0.22c0,0.16,0.07,0.27,0.21,0.35
		c0.14,0.07,0.35,0.14,0.63,0.21c0.18,0.04,0.34,0.09,0.49,0.15s0.28,0.13,0.39,0.21c0.11,0.08,0.2,0.19,0.26,0.31
		c0.06,0.12,0.09,0.26,0.09,0.42c0,0.22-0.04,0.4-0.12,0.55c-0.08,0.15-0.19,0.27-0.33,0.37c-0.14,0.1-0.29,0.16-0.47,0.21
		c-0.18,0.04-0.36,0.06-0.54,0.06c-0.28,0-0.55-0.05-0.82-0.16c-0.27-0.11-0.49-0.27-0.66-0.5l0.52-0.44
		c0.1,0.14,0.23,0.27,0.41,0.36c0.17,0.1,0.36,0.15,0.57,0.15c0.09,0,0.18-0.01,0.27-0.03c0.08-0.02,0.16-0.05,0.23-0.09
		s0.12-0.1,0.17-0.16c0.04-0.07,0.06-0.15,0.06-0.26c0-0.17-0.08-0.3-0.24-0.38c-0.16-0.08-0.4-0.16-0.72-0.23
		c-0.12-0.03-0.25-0.07-0.38-0.11c-0.13-0.04-0.24-0.1-0.34-0.18c-0.1-0.08-0.19-0.17-0.25-0.29c-0.06-0.12-0.1-0.26-0.1-0.43
		c0-0.2,0.04-0.37,0.12-0.51c0.08-0.14,0.19-0.26,0.31-0.35c0.13-0.09,0.28-0.16,0.44-0.2s0.34-0.07,0.51-0.07
		c0.26,0,0.52,0.05,0.76,0.16c0.25,0.1,0.44,0.25,0.57,0.45L64.75,81.21z"/>
	<path class="st0" d="M69.94,80.88h-0.98v1.91c0,0.22,0.04,0.38,0.12,0.47c0.08,0.1,0.21,0.14,0.4,0.14c0.07,0,0.14-0.01,0.22-0.02
		c0.08-0.01,0.15-0.04,0.21-0.06l0.02,0.6c-0.09,0.03-0.18,0.06-0.29,0.07c-0.11,0.02-0.22,0.03-0.33,0.03
		c-0.35,0-0.61-0.09-0.79-0.29c-0.18-0.19-0.27-0.48-0.27-0.86v-1.99h-0.71v-0.6h0.71v-1.05h0.72v1.05h0.98V80.88z"/>
	<path class="st0" d="M70.69,80.69c-0.01-0.16-0.01-0.29-0.02-0.41h0.69c0.01,0.09,0.02,0.2,0.02,0.32c0.01,0.12,0.01,0.22,0.01,0.3
		h0.02c0.1-0.22,0.25-0.39,0.45-0.52c0.2-0.13,0.42-0.2,0.67-0.2c0.11,0,0.21,0.01,0.29,0.03l-0.03,0.67
		c-0.1-0.03-0.21-0.04-0.33-0.04c-0.18,0-0.33,0.03-0.46,0.1s-0.24,0.15-0.32,0.26c-0.08,0.11-0.15,0.23-0.19,0.38
		c-0.04,0.14-0.06,0.29-0.06,0.45v1.93H70.7v-2.88C70.7,80.97,70.69,80.85,70.69,80.69z"/>
	<path class="st0" d="M76.8,82.09c0,0.04,0,0.08,0,0.12c0,0.04,0,0.08-0.01,0.12h-2.92c0.01,0.15,0.04,0.3,0.1,0.44
		c0.06,0.14,0.15,0.25,0.26,0.35c0.11,0.1,0.23,0.18,0.38,0.24c0.14,0.06,0.29,0.08,0.45,0.08c0.25,0,0.46-0.05,0.64-0.16
		c0.18-0.11,0.32-0.24,0.43-0.4l0.51,0.41c-0.2,0.26-0.43,0.45-0.69,0.58s-0.56,0.18-0.89,0.18c-0.28,0-0.54-0.05-0.78-0.14
		c-0.24-0.09-0.44-0.22-0.61-0.39c-0.17-0.17-0.31-0.37-0.4-0.61c-0.1-0.24-0.15-0.5-0.15-0.79c0-0.28,0.05-0.55,0.14-0.79
		s0.23-0.45,0.4-0.62c0.17-0.17,0.37-0.3,0.61-0.4c0.23-0.1,0.48-0.14,0.75-0.14c0.27,0,0.51,0.04,0.73,0.13
		c0.22,0.09,0.41,0.21,0.56,0.38s0.27,0.37,0.35,0.6C76.75,81.53,76.8,81.79,76.8,82.09z M76.05,81.79c0-0.14-0.03-0.28-0.07-0.41
		c-0.04-0.13-0.11-0.24-0.19-0.33c-0.09-0.09-0.19-0.17-0.32-0.22c-0.13-0.05-0.28-0.08-0.45-0.08c-0.15,0-0.3,0.03-0.44,0.08
		c-0.14,0.05-0.26,0.13-0.36,0.22c-0.1,0.09-0.18,0.2-0.25,0.33c-0.06,0.13-0.1,0.26-0.11,0.41H76.05z"/>
	<path class="st0" d="M80.04,81.58c0-0.27-0.08-0.48-0.25-0.61c-0.17-0.13-0.38-0.2-0.66-0.2c-0.21,0-0.4,0.04-0.58,0.12
		c-0.18,0.08-0.34,0.18-0.46,0.31l-0.39-0.46c0.18-0.17,0.4-0.3,0.66-0.4c0.26-0.1,0.54-0.15,0.84-0.15c0.26,0,0.49,0.04,0.69,0.11
		c0.19,0.08,0.35,0.18,0.48,0.31c0.12,0.13,0.22,0.28,0.28,0.46s0.09,0.36,0.09,0.57v1.6c0,0.12,0,0.25,0.01,0.39
		s0.02,0.25,0.04,0.34h-0.66c-0.04-0.18-0.06-0.35-0.06-0.53h-0.02c-0.13,0.2-0.3,0.35-0.51,0.46c-0.2,0.11-0.45,0.16-0.72,0.16
		c-0.14,0-0.3-0.02-0.45-0.06c-0.16-0.04-0.3-0.1-0.43-0.19c-0.13-0.09-0.24-0.2-0.32-0.35s-0.13-0.32-0.13-0.53
		c0-0.28,0.07-0.5,0.22-0.66s0.35-0.29,0.59-0.37c0.24-0.08,0.52-0.14,0.82-0.17c0.3-0.03,0.61-0.04,0.92-0.04V81.58z M79.87,82.2
		c-0.18,0-0.37,0.01-0.56,0.02s-0.37,0.05-0.53,0.09c-0.16,0.05-0.29,0.12-0.39,0.21s-0.15,0.22-0.15,0.37
		c0,0.11,0.02,0.2,0.07,0.27c0.04,0.07,0.1,0.13,0.17,0.18s0.15,0.08,0.24,0.1c0.09,0.02,0.18,0.03,0.27,0.03
		c0.34,0,0.6-0.1,0.79-0.31c0.18-0.2,0.28-0.46,0.28-0.77V82.2H79.87z"/>
	<path class="st0" d="M83.68,80.88H82.7v1.91c0,0.22,0.04,0.38,0.12,0.47c0.08,0.1,0.21,0.14,0.4,0.14c0.07,0,0.14-0.01,0.22-0.02
		c0.08-0.01,0.15-0.04,0.21-0.06l0.02,0.6c-0.09,0.03-0.18,0.06-0.29,0.07c-0.11,0.02-0.22,0.03-0.33,0.03
		c-0.35,0-0.61-0.09-0.79-0.29c-0.18-0.19-0.27-0.48-0.27-0.86v-1.99h-0.71v-0.6h0.71v-1.05h0.72v1.05h0.98V80.88z"/>
	<path class="st0" d="M87.86,82.09c0,0.04,0,0.08,0,0.12c0,0.04,0,0.08-0.01,0.12h-2.92c0.01,0.15,0.04,0.3,0.1,0.44
		c0.06,0.14,0.15,0.25,0.26,0.35c0.11,0.1,0.23,0.18,0.38,0.24c0.14,0.06,0.29,0.08,0.45,0.08c0.25,0,0.46-0.05,0.64-0.16
		c0.18-0.11,0.32-0.24,0.43-0.4l0.51,0.41c-0.2,0.26-0.43,0.45-0.69,0.58s-0.56,0.18-0.89,0.18c-0.28,0-0.54-0.05-0.78-0.14
		c-0.24-0.09-0.44-0.22-0.61-0.39c-0.17-0.17-0.31-0.37-0.4-0.61c-0.1-0.24-0.15-0.5-0.15-0.79c0-0.28,0.05-0.55,0.14-0.79
		s0.23-0.45,0.4-0.62c0.17-0.17,0.37-0.3,0.61-0.4c0.23-0.1,0.48-0.14,0.75-0.14c0.27,0,0.51,0.04,0.73,0.13
		c0.22,0.09,0.41,0.21,0.56,0.38s0.27,0.37,0.35,0.6C87.82,81.53,87.86,81.79,87.86,82.09z M87.12,81.79c0-0.14-0.03-0.28-0.07-0.41
		c-0.04-0.13-0.11-0.24-0.19-0.33c-0.09-0.09-0.19-0.17-0.32-0.22c-0.13-0.05-0.28-0.08-0.45-0.08c-0.15,0-0.3,0.03-0.44,0.08
		c-0.14,0.05-0.26,0.13-0.36,0.22c-0.1,0.09-0.18,0.2-0.25,0.33c-0.06,0.13-0.1,0.26-0.11,0.41H87.12z"/>
	<path class="st0" d="M91.8,83.37c-0.14,0.22-0.33,0.39-0.57,0.51s-0.49,0.17-0.76,0.17c-0.28,0-0.54-0.05-0.77-0.15
		c-0.23-0.1-0.42-0.24-0.58-0.41s-0.28-0.38-0.37-0.62c-0.09-0.24-0.13-0.49-0.13-0.76s0.04-0.52,0.13-0.76
		c0.09-0.23,0.21-0.44,0.38-0.62c0.16-0.18,0.36-0.31,0.59-0.41c0.23-0.1,0.48-0.15,0.75-0.15c0.3,0,0.56,0.06,0.78,0.19
		c0.22,0.13,0.4,0.28,0.53,0.46h0.02V78.1h0.73v5.86h-0.71v-0.58H91.8z M89.38,82.11c0,0.17,0.03,0.33,0.08,0.5
		c0.05,0.16,0.13,0.3,0.23,0.42c0.1,0.12,0.23,0.22,0.38,0.3c0.15,0.07,0.33,0.11,0.53,0.11c0.19,0,0.35-0.04,0.51-0.11
		c0.15-0.07,0.28-0.17,0.39-0.29s0.19-0.26,0.25-0.42c0.06-0.16,0.09-0.33,0.09-0.5c0-0.17-0.03-0.34-0.09-0.5
		c-0.06-0.16-0.14-0.3-0.25-0.42c-0.11-0.12-0.24-0.22-0.39-0.29c-0.15-0.07-0.32-0.11-0.51-0.11c-0.2,0-0.38,0.04-0.53,0.11
		s-0.28,0.17-0.38,0.29c-0.1,0.12-0.18,0.26-0.23,0.42C89.41,81.78,89.38,81.94,89.38,82.11z"/>
	<path class="st0" d="M96,80.28l0.83,2.81h0.02l0.88-2.81h0.77l0.89,2.81h0.02l0.83-2.81h0.77l-1.22,3.67h-0.76l-0.91-2.76h-0.02
		l-0.9,2.76h-0.76l-1.22-3.67H96z"/>
	<path class="st0" d="M102.57,78.96c0,0.13-0.05,0.25-0.14,0.33s-0.21,0.13-0.34,0.13c-0.13,0-0.25-0.04-0.34-0.13
		c-0.09-0.09-0.14-0.2-0.14-0.33c0-0.13,0.05-0.25,0.14-0.34c0.09-0.09,0.21-0.14,0.34-0.14c0.13,0,0.25,0.05,0.34,0.14
		C102.53,78.71,102.57,78.82,102.57,78.96z M102.46,83.96h-0.73v-3.67h0.73V83.96z"/>
	<path class="st0" d="M105.53,80.88h-0.98v1.91c0,0.22,0.04,0.38,0.12,0.47c0.08,0.1,0.21,0.14,0.4,0.14c0.07,0,0.14-0.01,0.22-0.02
		c0.08-0.01,0.15-0.04,0.21-0.06l0.02,0.6c-0.09,0.03-0.18,0.06-0.29,0.07c-0.11,0.02-0.22,0.03-0.33,0.03
		c-0.35,0-0.61-0.09-0.79-0.29c-0.18-0.19-0.27-0.48-0.27-0.86v-1.99h-0.71v-0.6h0.71v-1.05h0.72v1.05h0.98V80.88z"/>
	<path class="st0" d="M107.04,80.84c0.09-0.18,0.24-0.34,0.45-0.46c0.21-0.13,0.45-0.19,0.71-0.19c0.24,0,0.44,0.04,0.61,0.12
		s0.31,0.19,0.43,0.32c0.11,0.13,0.2,0.29,0.25,0.47c0.05,0.18,0.08,0.37,0.08,0.58v2.28h-0.73v-2.04c0-0.15-0.01-0.29-0.03-0.43
		c-0.02-0.13-0.07-0.25-0.13-0.36s-0.15-0.19-0.25-0.25c-0.11-0.06-0.24-0.09-0.41-0.09c-0.29,0-0.53,0.11-0.71,0.33
		c-0.19,0.22-0.28,0.51-0.28,0.88v1.95h-0.73V78.1h0.73v2.74H107.04z"/>
	<path class="st0" d="M117.48,83.1c-0.22,0.29-0.5,0.53-0.84,0.72s-0.76,0.28-1.25,0.28c-0.42,0-0.8-0.07-1.16-0.21
		c-0.35-0.14-0.66-0.34-0.91-0.6c-0.26-0.26-0.46-0.56-0.6-0.92c-0.14-0.35-0.22-0.74-0.22-1.17c0-0.43,0.07-0.82,0.22-1.17
		c0.15-0.35,0.35-0.66,0.61-0.91c0.26-0.25,0.57-0.45,0.93-0.58c0.36-0.14,0.74-0.21,1.16-0.21c0.19,0,0.37,0.02,0.57,0.05
		c0.19,0.04,0.37,0.09,0.55,0.16s0.34,0.16,0.48,0.27c0.14,0.11,0.27,0.23,0.37,0.37l-0.6,0.47c-0.13-0.19-0.32-0.34-0.57-0.46
		c-0.25-0.12-0.51-0.18-0.79-0.18c-0.32,0-0.61,0.06-0.86,0.17c-0.26,0.12-0.47,0.28-0.66,0.48c-0.18,0.2-0.32,0.43-0.42,0.7
		c-0.1,0.27-0.15,0.55-0.15,0.85c0,0.31,0.05,0.6,0.14,0.87s0.23,0.5,0.41,0.7c0.18,0.2,0.4,0.36,0.65,0.47s0.54,0.17,0.86,0.17
		c0.31,0,0.59-0.06,0.84-0.19c0.25-0.12,0.46-0.3,0.63-0.54L117.48,83.1z"/>
	<path class="st0" d="M121.85,82.11c0,0.28-0.05,0.54-0.15,0.78c-0.1,0.24-0.24,0.44-0.42,0.62c-0.18,0.17-0.39,0.31-0.63,0.4
		c-0.24,0.1-0.5,0.14-0.78,0.14s-0.54-0.05-0.78-0.14c-0.24-0.09-0.45-0.23-0.63-0.4c-0.18-0.17-0.31-0.38-0.41-0.62
		c-0.1-0.24-0.15-0.5-0.15-0.78s0.05-0.54,0.15-0.78c0.1-0.24,0.24-0.44,0.41-0.61c0.18-0.17,0.38-0.3,0.63-0.4
		c0.24-0.1,0.5-0.14,0.78-0.14s0.54,0.05,0.78,0.14s0.45,0.23,0.63,0.4c0.18,0.17,0.32,0.37,0.42,0.61
		C121.8,81.57,121.85,81.83,121.85,82.11z M121.1,82.11c0-0.17-0.03-0.34-0.08-0.5c-0.05-0.16-0.13-0.3-0.24-0.42
		s-0.23-0.22-0.38-0.29s-0.33-0.11-0.52-0.11s-0.37,0.04-0.52,0.11s-0.28,0.17-0.38,0.29s-0.18,0.26-0.24,0.42
		c-0.05,0.16-0.08,0.33-0.08,0.5c0,0.18,0.03,0.34,0.08,0.5c0.05,0.16,0.13,0.3,0.24,0.42c0.1,0.12,0.23,0.22,0.38,0.29
		c0.15,0.07,0.33,0.11,0.52,0.11s0.37-0.04,0.52-0.11c0.15-0.07,0.28-0.17,0.38-0.29c0.1-0.12,0.18-0.27,0.24-0.42
		C121.07,82.46,121.1,82.29,121.1,82.11z"/>
	<path class="st0" d="M126.58,82.11c0,0.28-0.05,0.54-0.15,0.78c-0.1,0.24-0.24,0.44-0.42,0.62c-0.18,0.17-0.39,0.31-0.63,0.4
		c-0.24,0.1-0.5,0.14-0.78,0.14s-0.54-0.05-0.78-0.14c-0.24-0.09-0.45-0.23-0.63-0.4c-0.18-0.17-0.31-0.38-0.41-0.62
		c-0.1-0.24-0.15-0.5-0.15-0.78s0.05-0.54,0.15-0.78c0.1-0.24,0.24-0.44,0.41-0.61c0.18-0.17,0.38-0.3,0.63-0.4
		c0.24-0.1,0.5-0.14,0.78-0.14s0.54,0.05,0.78,0.14s0.45,0.23,0.63,0.4c0.18,0.17,0.32,0.37,0.42,0.61
		C126.53,81.57,126.58,81.83,126.58,82.11z M125.82,82.11c0-0.17-0.03-0.34-0.08-0.5c-0.05-0.16-0.13-0.3-0.24-0.42
		s-0.23-0.22-0.38-0.29s-0.33-0.11-0.52-0.11s-0.37,0.04-0.52,0.11s-0.28,0.17-0.38,0.29s-0.18,0.26-0.24,0.42
		c-0.05,0.16-0.08,0.33-0.08,0.5c0,0.18,0.03,0.34,0.08,0.5c0.05,0.16,0.13,0.3,0.24,0.42c0.1,0.12,0.23,0.22,0.38,0.29
		c0.15,0.07,0.33,0.11,0.52,0.11s0.37-0.04,0.52-0.11c0.15-0.07,0.28-0.17,0.38-0.29c0.1-0.12,0.18-0.27,0.24-0.42
		C125.8,82.46,125.82,82.29,125.82,82.11z"/>
	<path class="st0" d="M128.33,83.96h-0.73V78.1h0.73V83.96z"/>
	<path class="st0" d="M131.57,83.96h-0.77v-4.81h-1.76v-0.67h4.29v0.67h-1.76V83.96z"/>
	<path class="st0" d="M136.99,82.11c0,0.28-0.05,0.54-0.15,0.78c-0.1,0.24-0.24,0.44-0.42,0.62c-0.18,0.17-0.39,0.31-0.63,0.4
		c-0.24,0.1-0.5,0.14-0.78,0.14s-0.54-0.05-0.78-0.14c-0.24-0.09-0.45-0.23-0.63-0.4c-0.18-0.17-0.31-0.38-0.41-0.62
		c-0.1-0.24-0.15-0.5-0.15-0.78s0.05-0.54,0.15-0.78c0.1-0.24,0.24-0.44,0.41-0.61c0.18-0.17,0.38-0.3,0.63-0.4
		c0.24-0.1,0.5-0.14,0.78-0.14s0.54,0.05,0.78,0.14s0.45,0.23,0.63,0.4c0.18,0.17,0.32,0.37,0.42,0.61
		C136.94,81.57,136.99,81.83,136.99,82.11z M136.23,82.11c0-0.17-0.03-0.34-0.08-0.5c-0.05-0.16-0.13-0.3-0.24-0.42
		s-0.23-0.22-0.38-0.29s-0.33-0.11-0.52-0.11s-0.37,0.04-0.52,0.11s-0.28,0.17-0.38,0.29s-0.18,0.26-0.24,0.42
		c-0.05,0.16-0.08,0.33-0.08,0.5c0,0.18,0.03,0.34,0.08,0.5c0.05,0.16,0.13,0.3,0.24,0.42c0.1,0.12,0.23,0.22,0.38,0.29
		c0.15,0.07,0.33,0.11,0.52,0.11s0.37-0.04,0.52-0.11c0.15-0.07,0.28-0.17,0.38-0.29c0.1-0.12,0.18-0.27,0.24-0.42
		C136.2,82.46,136.23,82.29,136.23,82.11z"/>
	<path class="st0" d="M138.66,80.28c0.01,0.09,0.02,0.2,0.02,0.31c0.01,0.12,0.01,0.21,0.01,0.29h0.02c0.05-0.1,0.11-0.19,0.19-0.27
		c0.08-0.09,0.17-0.16,0.27-0.23c0.1-0.06,0.22-0.11,0.34-0.15c0.12-0.04,0.25-0.05,0.39-0.05c0.24,0,0.44,0.04,0.61,0.12
		s0.31,0.19,0.43,0.32c0.11,0.13,0.2,0.29,0.25,0.47c0.05,0.18,0.08,0.37,0.08,0.58v2.28h-0.73v-2.04c0-0.15-0.01-0.29-0.04-0.43
		c-0.02-0.13-0.07-0.25-0.13-0.36c-0.06-0.1-0.15-0.19-0.26-0.25c-0.11-0.06-0.25-0.09-0.42-0.09c-0.29,0-0.53,0.11-0.71,0.33
		c-0.18,0.22-0.27,0.51-0.27,0.88v1.95H138v-2.88c0-0.1,0-0.22-0.01-0.38c-0.01-0.16-0.01-0.29-0.02-0.41H138.66z"/>
	<path class="st0" d="M145.94,82.09c0,0.04,0,0.08,0,0.12c0,0.04,0,0.08-0.01,0.12h-2.92c0.01,0.15,0.04,0.3,0.1,0.44
		c0.06,0.14,0.15,0.25,0.26,0.35c0.11,0.1,0.23,0.18,0.38,0.24c0.14,0.06,0.29,0.08,0.45,0.08c0.25,0,0.46-0.05,0.64-0.16
		c0.18-0.11,0.32-0.24,0.43-0.4l0.51,0.41c-0.2,0.26-0.43,0.45-0.69,0.58s-0.56,0.18-0.89,0.18c-0.28,0-0.54-0.05-0.78-0.14
		c-0.24-0.09-0.44-0.22-0.61-0.39c-0.17-0.17-0.31-0.37-0.4-0.61c-0.1-0.24-0.15-0.5-0.15-0.79c0-0.28,0.05-0.55,0.14-0.79
		s0.23-0.45,0.4-0.62c0.17-0.17,0.37-0.3,0.61-0.4c0.23-0.1,0.48-0.14,0.75-0.14c0.27,0,0.51,0.04,0.73,0.13
		c0.22,0.09,0.41,0.21,0.56,0.38s0.27,0.37,0.35,0.6C145.9,81.53,145.94,81.79,145.94,82.09z M145.2,81.79
		c0-0.14-0.03-0.28-0.07-0.41c-0.04-0.13-0.11-0.24-0.19-0.33c-0.09-0.09-0.19-0.17-0.32-0.22c-0.13-0.05-0.28-0.08-0.45-0.08
		c-0.15,0-0.3,0.03-0.44,0.08c-0.14,0.05-0.26,0.13-0.36,0.22c-0.1,0.09-0.18,0.2-0.25,0.33c-0.06,0.13-0.1,0.26-0.11,0.41H145.2z"
		/>
	<path class="st0" d="M146.88,80.13c0-0.24,0.05-0.47,0.14-0.69c0.09-0.21,0.22-0.4,0.38-0.56c0.16-0.16,0.35-0.28,0.56-0.38
		s0.44-0.14,0.69-0.14c0.24,0,0.47,0.05,0.69,0.14s0.4,0.22,0.56,0.38c0.16,0.16,0.29,0.34,0.38,0.56c0.09,0.21,0.14,0.44,0.14,0.69
		c0,0.24-0.05,0.47-0.14,0.68c-0.09,0.21-0.22,0.4-0.38,0.55c-0.16,0.16-0.35,0.28-0.56,0.37c-0.21,0.09-0.44,0.14-0.69,0.14
		c-0.24,0-0.47-0.04-0.69-0.14c-0.21-0.09-0.4-0.21-0.56-0.37c-0.16-0.16-0.29-0.34-0.38-0.55
		C146.93,80.6,146.88,80.38,146.88,80.13z M147.16,80.13c0,0.2,0.04,0.39,0.12,0.57c0.08,0.18,0.18,0.34,0.32,0.48
		s0.29,0.24,0.47,0.32c0.18,0.08,0.37,0.12,0.58,0.12c0.21,0,0.4-0.04,0.58-0.12c0.18-0.08,0.34-0.18,0.47-0.32s0.24-0.3,0.32-0.48
		s0.12-0.37,0.12-0.57c0-0.21-0.04-0.4-0.12-0.58c-0.08-0.18-0.18-0.34-0.32-0.47c-0.13-0.13-0.29-0.24-0.47-0.32
		c-0.18-0.08-0.37-0.12-0.58-0.12c-0.21,0-0.4,0.04-0.58,0.12s-0.34,0.18-0.47,0.32c-0.13,0.13-0.24,0.29-0.32,0.47
		C147.2,79.73,147.16,79.93,147.16,80.13z M149.07,81.1l-0.43-0.77h-0.28v0.77h-0.47v-1.98h0.85c0.09,0,0.18,0.01,0.27,0.03
		s0.17,0.05,0.24,0.1c0.07,0.05,0.13,0.11,0.17,0.19c0.04,0.08,0.07,0.18,0.07,0.3c0,0.13-0.04,0.25-0.11,0.33
		c-0.07,0.09-0.17,0.15-0.28,0.19l0.53,0.84H149.07z M148.73,80c0.07,0,0.14-0.02,0.2-0.07c0.06-0.05,0.09-0.11,0.09-0.19
		c0-0.08-0.03-0.14-0.1-0.18s-0.13-0.05-0.19-0.05h-0.36V80H148.73z"/>
	<path class="st0" d="M157.26,82.11c0,0.28-0.05,0.54-0.15,0.78c-0.1,0.24-0.24,0.44-0.42,0.62c-0.18,0.17-0.39,0.31-0.63,0.4
		c-0.24,0.1-0.5,0.14-0.78,0.14s-0.54-0.05-0.78-0.14c-0.24-0.09-0.45-0.23-0.63-0.4c-0.18-0.17-0.31-0.38-0.41-0.62
		c-0.1-0.24-0.15-0.5-0.15-0.78s0.05-0.54,0.15-0.78c0.1-0.24,0.24-0.44,0.41-0.61c0.18-0.17,0.38-0.3,0.63-0.4
		c0.24-0.1,0.5-0.14,0.78-0.14s0.54,0.05,0.78,0.14s0.45,0.23,0.63,0.4c0.18,0.17,0.32,0.37,0.42,0.61
		C157.21,81.57,157.26,81.83,157.26,82.11z M156.5,82.11c0-0.17-0.03-0.34-0.08-0.5c-0.05-0.16-0.13-0.3-0.24-0.42
		s-0.23-0.22-0.38-0.29s-0.33-0.11-0.52-0.11s-0.37,0.04-0.52,0.11s-0.28,0.17-0.38,0.29s-0.18,0.26-0.24,0.42
		c-0.05,0.16-0.08,0.33-0.08,0.5c0,0.18,0.03,0.34,0.08,0.5c0.05,0.16,0.13,0.3,0.24,0.42c0.1,0.12,0.23,0.22,0.38,0.29
		c0.15,0.07,0.33,0.11,0.52,0.11s0.37-0.04,0.52-0.11c0.15-0.07,0.28-0.17,0.38-0.29c0.1-0.12,0.18-0.27,0.24-0.42
		C156.47,82.46,156.5,82.29,156.5,82.11z"/>
	<path class="st0" d="M158.92,80.28c0.01,0.09,0.02,0.2,0.02,0.31c0.01,0.12,0.01,0.21,0.01,0.29h0.02c0.05-0.1,0.11-0.19,0.19-0.27
		c0.08-0.09,0.17-0.16,0.27-0.23c0.1-0.06,0.22-0.11,0.34-0.15c0.12-0.04,0.25-0.05,0.39-0.05c0.24,0,0.44,0.04,0.61,0.12
		s0.31,0.19,0.43,0.32c0.11,0.13,0.2,0.29,0.25,0.47c0.05,0.18,0.08,0.37,0.08,0.58v2.28h-0.73v-2.04c0-0.15-0.01-0.29-0.04-0.43
		c-0.02-0.13-0.07-0.25-0.13-0.36c-0.06-0.1-0.15-0.19-0.26-0.25c-0.11-0.06-0.25-0.09-0.42-0.09c-0.29,0-0.53,0.11-0.71,0.33
		c-0.18,0.22-0.27,0.51-0.27,0.88v1.95h-0.73v-2.88c0-0.1,0-0.22-0.01-0.38c-0.01-0.16-0.01-0.29-0.02-0.41H158.92z"/>
	<path class="st0" d="M165.47,80.84c0.09-0.18,0.24-0.34,0.45-0.46c0.21-0.13,0.45-0.19,0.71-0.19c0.24,0,0.44,0.04,0.61,0.12
		s0.31,0.19,0.43,0.32c0.11,0.13,0.2,0.29,0.25,0.47c0.05,0.18,0.08,0.37,0.08,0.58v2.28h-0.73v-2.04c0-0.15-0.01-0.29-0.03-0.43
		c-0.02-0.13-0.07-0.25-0.13-0.36s-0.15-0.19-0.25-0.25c-0.11-0.06-0.24-0.09-0.41-0.09c-0.29,0-0.53,0.11-0.71,0.33
		c-0.19,0.22-0.28,0.51-0.28,0.88v1.95h-0.73V78.1h0.73v2.74H165.47z"/>
	<path class="st0" d="M170.09,78.96c0,0.13-0.05,0.25-0.14,0.33s-0.21,0.13-0.34,0.13c-0.13,0-0.25-0.04-0.34-0.13
		c-0.09-0.09-0.14-0.2-0.14-0.33c0-0.13,0.05-0.25,0.14-0.34c0.09-0.09,0.21-0.14,0.34-0.14c0.13,0,0.25,0.05,0.34,0.14
		C170.04,78.71,170.09,78.82,170.09,78.96z M169.97,83.96h-0.73v-3.67h0.73V83.96z"/>
	<path class="st0" d="M173.23,81.21c-0.08-0.13-0.2-0.24-0.35-0.33c-0.15-0.08-0.32-0.13-0.5-0.13c-0.08,0-0.17,0.01-0.25,0.03
		c-0.08,0.02-0.16,0.05-0.22,0.09c-0.06,0.04-0.12,0.09-0.16,0.15c-0.04,0.06-0.06,0.13-0.06,0.22c0,0.16,0.07,0.27,0.21,0.35
		c0.14,0.07,0.35,0.14,0.63,0.21c0.18,0.04,0.34,0.09,0.49,0.15s0.28,0.13,0.39,0.21c0.11,0.08,0.2,0.19,0.26,0.31
		c0.06,0.12,0.09,0.26,0.09,0.42c0,0.22-0.04,0.4-0.12,0.55c-0.08,0.15-0.19,0.27-0.33,0.37c-0.14,0.1-0.29,0.16-0.47,0.21
		c-0.18,0.04-0.36,0.06-0.54,0.06c-0.28,0-0.55-0.05-0.82-0.16c-0.27-0.11-0.49-0.27-0.66-0.5l0.52-0.44
		c0.1,0.14,0.23,0.27,0.41,0.36c0.17,0.1,0.36,0.15,0.57,0.15c0.09,0,0.18-0.01,0.27-0.03c0.08-0.02,0.16-0.05,0.23-0.09
		s0.12-0.1,0.17-0.16c0.04-0.07,0.06-0.15,0.06-0.26c0-0.17-0.08-0.3-0.24-0.38c-0.16-0.08-0.4-0.16-0.72-0.23
		c-0.12-0.03-0.25-0.07-0.38-0.11c-0.13-0.04-0.24-0.1-0.34-0.18c-0.1-0.08-0.19-0.17-0.25-0.29c-0.06-0.12-0.1-0.26-0.1-0.43
		c0-0.2,0.04-0.37,0.12-0.51c0.08-0.14,0.19-0.26,0.31-0.35c0.13-0.09,0.28-0.16,0.44-0.2s0.34-0.07,0.51-0.07
		c0.26,0,0.52,0.05,0.76,0.16c0.25,0.1,0.44,0.25,0.57,0.45L173.23,81.21z"/>
	<path class="st0" d="M178.91,81.58c0-0.27-0.08-0.48-0.25-0.61c-0.17-0.13-0.38-0.2-0.66-0.2c-0.21,0-0.4,0.04-0.58,0.12
		c-0.18,0.08-0.34,0.18-0.46,0.31l-0.39-0.46c0.18-0.17,0.4-0.3,0.66-0.4c0.26-0.1,0.54-0.15,0.84-0.15c0.26,0,0.49,0.04,0.69,0.11
		c0.19,0.08,0.35,0.18,0.48,0.31c0.12,0.13,0.22,0.28,0.28,0.46s0.09,0.36,0.09,0.57v1.6c0,0.12,0,0.25,0.01,0.39
		s0.02,0.25,0.04,0.34H179c-0.04-0.18-0.06-0.35-0.06-0.53h-0.02c-0.13,0.2-0.3,0.35-0.51,0.46c-0.2,0.11-0.45,0.16-0.72,0.16
		c-0.14,0-0.3-0.02-0.45-0.06c-0.16-0.04-0.3-0.1-0.43-0.19c-0.13-0.09-0.24-0.2-0.32-0.35s-0.13-0.32-0.13-0.53
		c0-0.28,0.07-0.5,0.22-0.66s0.35-0.29,0.59-0.37c0.24-0.08,0.52-0.14,0.82-0.17c0.3-0.03,0.61-0.04,0.92-0.04V81.58z M178.73,82.2
		c-0.18,0-0.37,0.01-0.56,0.02s-0.37,0.05-0.53,0.09c-0.16,0.05-0.29,0.12-0.39,0.21s-0.15,0.22-0.15,0.37
		c0,0.11,0.02,0.2,0.07,0.27c0.04,0.07,0.1,0.13,0.17,0.18s0.15,0.08,0.24,0.1c0.09,0.02,0.18,0.03,0.27,0.03
		c0.34,0,0.6-0.1,0.79-0.31c0.18-0.2,0.28-0.46,0.28-0.77V82.2H178.73z"/>
	<path class="st0" d="M181.55,83.37v0.58h-0.71V78.1h0.73v2.74h0.02c0.12-0.18,0.3-0.33,0.52-0.46c0.22-0.13,0.48-0.19,0.79-0.19
		c0.27,0,0.52,0.05,0.75,0.15c0.22,0.1,0.42,0.24,0.58,0.41c0.16,0.17,0.29,0.38,0.38,0.62c0.09,0.24,0.13,0.49,0.13,0.76
		s-0.04,0.52-0.13,0.76c-0.09,0.24-0.21,0.44-0.37,0.62s-0.35,0.31-0.58,0.41c-0.23,0.1-0.48,0.15-0.77,0.15
		c-0.26,0-0.51-0.06-0.75-0.17s-0.43-0.29-0.57-0.51H181.55z M183.99,82.11c0-0.17-0.03-0.33-0.08-0.49
		c-0.05-0.16-0.13-0.3-0.23-0.42c-0.1-0.12-0.23-0.22-0.38-0.29s-0.33-0.11-0.53-0.11c-0.19,0-0.36,0.04-0.51,0.11
		s-0.28,0.17-0.39,0.29c-0.11,0.12-0.19,0.26-0.25,0.42c-0.06,0.16-0.09,0.33-0.09,0.5c0,0.18,0.03,0.34,0.09,0.5
		c0.06,0.16,0.14,0.3,0.25,0.42c0.11,0.12,0.24,0.22,0.39,0.29c0.15,0.07,0.32,0.11,0.51,0.11c0.2,0,0.38-0.04,0.53-0.11
		c0.15-0.08,0.28-0.17,0.38-0.3c0.1-0.12,0.18-0.27,0.23-0.42C183.96,82.45,183.99,82.28,183.99,82.11z"/>
	<path class="st0" d="M188.68,83.37c-0.14,0.22-0.33,0.39-0.57,0.51s-0.49,0.17-0.76,0.17c-0.28,0-0.54-0.05-0.77-0.15
		c-0.23-0.1-0.42-0.24-0.58-0.41s-0.28-0.38-0.37-0.62c-0.09-0.24-0.13-0.49-0.13-0.76s0.04-0.52,0.13-0.76
		c0.09-0.23,0.21-0.44,0.38-0.62c0.16-0.18,0.36-0.31,0.59-0.41c0.23-0.1,0.48-0.15,0.75-0.15c0.3,0,0.56,0.06,0.78,0.19
		c0.22,0.13,0.4,0.28,0.53,0.46h0.02V78.1h0.73v5.86h-0.71v-0.58H188.68z M186.26,82.11c0,0.17,0.03,0.33,0.08,0.5
		c0.05,0.16,0.13,0.3,0.23,0.42c0.1,0.12,0.23,0.22,0.38,0.3c0.15,0.07,0.33,0.11,0.53,0.11c0.19,0,0.35-0.04,0.51-0.11
		c0.15-0.07,0.28-0.17,0.39-0.29s0.19-0.26,0.25-0.42c0.06-0.16,0.09-0.33,0.09-0.5c0-0.17-0.03-0.34-0.09-0.5
		c-0.06-0.16-0.14-0.3-0.25-0.42c-0.11-0.12-0.24-0.22-0.39-0.29c-0.15-0.07-0.32-0.11-0.51-0.11c-0.2,0-0.38,0.04-0.53,0.11
		s-0.28,0.17-0.38,0.29c-0.1,0.12-0.18,0.26-0.23,0.42C186.29,81.78,186.26,81.94,186.26,82.11z"/>
	<path class="st0" d="M194.39,82.11c0,0.28-0.05,0.54-0.15,0.78c-0.1,0.24-0.24,0.44-0.42,0.62c-0.18,0.17-0.39,0.31-0.63,0.4
		c-0.24,0.1-0.5,0.14-0.78,0.14s-0.54-0.05-0.78-0.14c-0.24-0.09-0.45-0.23-0.63-0.4c-0.18-0.17-0.31-0.38-0.41-0.62
		c-0.1-0.24-0.15-0.5-0.15-0.78s0.05-0.54,0.15-0.78c0.1-0.24,0.24-0.44,0.41-0.61c0.18-0.17,0.38-0.3,0.63-0.4
		c0.24-0.1,0.5-0.14,0.78-0.14s0.54,0.05,0.78,0.14s0.45,0.23,0.63,0.4c0.18,0.17,0.32,0.37,0.42,0.61
		C194.34,81.57,194.39,81.83,194.39,82.11z M193.64,82.11c0-0.17-0.03-0.34-0.08-0.5c-0.05-0.16-0.13-0.3-0.24-0.42
		s-0.23-0.22-0.38-0.29s-0.33-0.11-0.52-0.11s-0.37,0.04-0.52,0.11s-0.28,0.17-0.38,0.29s-0.18,0.26-0.24,0.42
		c-0.05,0.16-0.08,0.33-0.08,0.5c0,0.18,0.03,0.34,0.08,0.5c0.05,0.16,0.13,0.3,0.24,0.42c0.1,0.12,0.23,0.22,0.38,0.29
		c0.15,0.07,0.33,0.11,0.52,0.11s0.37-0.04,0.52-0.11c0.15-0.07,0.28-0.17,0.38-0.29c0.1-0.12,0.18-0.27,0.24-0.42
		C193.61,82.46,193.64,82.29,193.64,82.11z"/>
	<path class="st0" d="M196.56,80.39c0.2-0.14,0.45-0.21,0.73-0.21c0.25,0,0.47,0.06,0.67,0.17c0.2,0.11,0.36,0.3,0.47,0.57
		c0.12-0.24,0.3-0.42,0.52-0.55c0.22-0.13,0.46-0.19,0.73-0.19c0.24,0,0.44,0.04,0.61,0.12s0.31,0.19,0.43,0.32
		c0.11,0.13,0.2,0.29,0.25,0.47c0.05,0.18,0.08,0.37,0.08,0.58v2.28h-0.73v-2.04c0-0.15-0.01-0.29-0.04-0.43
		c-0.03-0.13-0.07-0.25-0.13-0.36c-0.06-0.1-0.14-0.19-0.25-0.25c-0.1-0.06-0.23-0.09-0.4-0.09c-0.17,0-0.31,0.04-0.43,0.1
		c-0.12,0.07-0.22,0.16-0.29,0.27c-0.08,0.11-0.13,0.24-0.16,0.38c-0.03,0.14-0.05,0.28-0.05,0.43v1.98h-0.73v-2.19
		c0-0.14-0.01-0.28-0.04-0.4c-0.03-0.12-0.07-0.22-0.13-0.31s-0.14-0.15-0.24-0.2c-0.1-0.05-0.22-0.07-0.36-0.07
		c-0.27,0-0.49,0.11-0.67,0.33c-0.18,0.22-0.27,0.51-0.27,0.88v1.95h-0.73v-2.88c0-0.1,0-0.22-0.01-0.38
		c-0.01-0.16-0.01-0.29-0.02-0.41h0.69c0.01,0.09,0.02,0.2,0.02,0.31c0.01,0.12,0.01,0.21,0.01,0.29h0.02
		C196.21,80.69,196.36,80.52,196.56,80.39z"/>
	<path class="st0" d="M205.71,82.09c0,0.04,0,0.08,0,0.12c0,0.04,0,0.08-0.01,0.12h-2.92c0.01,0.15,0.04,0.3,0.1,0.44
		c0.06,0.14,0.15,0.25,0.26,0.35c0.11,0.1,0.23,0.18,0.38,0.24c0.14,0.06,0.29,0.08,0.45,0.08c0.25,0,0.46-0.05,0.64-0.16
		c0.18-0.11,0.32-0.24,0.43-0.4l0.51,0.41c-0.2,0.26-0.43,0.45-0.69,0.58s-0.56,0.18-0.89,0.18c-0.28,0-0.54-0.05-0.78-0.14
		c-0.24-0.09-0.44-0.22-0.61-0.39c-0.17-0.17-0.31-0.37-0.4-0.61c-0.1-0.24-0.15-0.5-0.15-0.79c0-0.28,0.05-0.55,0.14-0.79
		s0.23-0.45,0.4-0.62c0.17-0.17,0.37-0.3,0.61-0.4c0.23-0.1,0.48-0.14,0.75-0.14c0.27,0,0.51,0.04,0.73,0.13
		c0.22,0.09,0.41,0.21,0.56,0.38s0.27,0.37,0.35,0.6C205.67,81.53,205.71,81.79,205.71,82.09z M204.97,81.79
		c0-0.14-0.03-0.28-0.07-0.41c-0.04-0.13-0.11-0.24-0.19-0.33c-0.09-0.09-0.19-0.17-0.32-0.22c-0.13-0.05-0.28-0.08-0.45-0.08
		c-0.15,0-0.3,0.03-0.44,0.08c-0.14,0.05-0.26,0.13-0.36,0.22c-0.1,0.09-0.18,0.2-0.25,0.33c-0.06,0.13-0.1,0.26-0.11,0.41H204.97z"
		/>
	<path class="st0" d="M207.38,80.28c0.01,0.09,0.02,0.2,0.02,0.31c0.01,0.12,0.01,0.21,0.01,0.29h0.02c0.05-0.1,0.11-0.19,0.19-0.27
		c0.08-0.09,0.17-0.16,0.27-0.23c0.1-0.06,0.22-0.11,0.34-0.15c0.12-0.04,0.25-0.05,0.39-0.05c0.24,0,0.44,0.04,0.61,0.12
		s0.31,0.19,0.43,0.32c0.11,0.13,0.2,0.29,0.25,0.47c0.05,0.18,0.08,0.37,0.08,0.58v2.28h-0.73v-2.04c0-0.15-0.01-0.29-0.04-0.43
		c-0.02-0.13-0.07-0.25-0.13-0.36c-0.06-0.1-0.15-0.19-0.26-0.25c-0.11-0.06-0.25-0.09-0.42-0.09c-0.29,0-0.53,0.11-0.71,0.33
		c-0.18,0.22-0.27,0.51-0.27,0.88v1.95h-0.73v-2.88c0-0.1,0-0.22-0.01-0.38c-0.01-0.16-0.01-0.29-0.02-0.41H207.38z"/>
	<path class="st0" d="M212.13,83.49c0,0.13-0.05,0.25-0.15,0.36S211.76,84,211.61,84c-0.14,0-0.27-0.05-0.37-0.15
		c-0.1-0.1-0.15-0.22-0.15-0.35c0-0.14,0.05-0.26,0.15-0.36c0.1-0.1,0.22-0.15,0.37-0.15s0.27,0.05,0.37,0.15
		C212.08,83.23,212.13,83.35,212.13,83.49z"/>
	<path class="st0" d="M215.75,83.96h-0.77v-5.49h1.76c0.26,0,0.51,0.03,0.75,0.08c0.24,0.05,0.45,0.14,0.62,0.26
		c0.18,0.12,0.32,0.28,0.42,0.47c0.1,0.19,0.16,0.43,0.16,0.71c0,0.4-0.12,0.73-0.37,0.98s-0.57,0.41-0.96,0.47l1.53,2.52h-0.93
		l-1.4-2.44h-0.82V83.96z M215.75,80.87h0.88c0.18,0,0.35-0.01,0.5-0.05c0.16-0.03,0.29-0.08,0.41-0.15
		c0.12-0.07,0.21-0.16,0.27-0.27c0.07-0.11,0.1-0.25,0.1-0.41s-0.03-0.3-0.1-0.42c-0.07-0.11-0.16-0.2-0.27-0.27
		c-0.11-0.07-0.24-0.11-0.39-0.14s-0.31-0.04-0.47-0.04h-0.94V80.87z"/>
	<path class="st0" d="M223.05,82.09c0,0.04,0,0.08,0,0.12c0,0.04,0,0.08-0.01,0.12h-2.92c0.01,0.15,0.04,0.3,0.1,0.44
		c0.06,0.14,0.15,0.25,0.26,0.35c0.11,0.1,0.23,0.18,0.38,0.24c0.14,0.06,0.29,0.08,0.45,0.08c0.25,0,0.46-0.05,0.64-0.16
		c0.18-0.11,0.32-0.24,0.43-0.4l0.51,0.41c-0.2,0.26-0.43,0.45-0.69,0.58s-0.56,0.18-0.89,0.18c-0.28,0-0.54-0.05-0.78-0.14
		c-0.24-0.09-0.44-0.22-0.61-0.39c-0.17-0.17-0.31-0.37-0.4-0.61c-0.1-0.24-0.15-0.5-0.15-0.79c0-0.28,0.05-0.55,0.14-0.79
		s0.23-0.45,0.4-0.62c0.17-0.17,0.37-0.3,0.61-0.4c0.23-0.1,0.48-0.14,0.75-0.14c0.27,0,0.51,0.04,0.73,0.13
		c0.22,0.09,0.41,0.21,0.56,0.38s0.27,0.37,0.35,0.6C223,81.53,223.05,81.79,223.05,82.09z M222.3,81.79c0-0.14-0.03-0.28-0.07-0.41
		c-0.04-0.13-0.11-0.24-0.19-0.33c-0.09-0.09-0.19-0.17-0.32-0.22c-0.13-0.05-0.28-0.08-0.45-0.08c-0.15,0-0.3,0.03-0.44,0.08
		c-0.14,0.05-0.26,0.13-0.36,0.22c-0.1,0.09-0.18,0.2-0.25,0.33c-0.06,0.13-0.1,0.26-0.11,0.41H222.3z"/>
	<path class="st0" d="M226.04,81.21c-0.08-0.13-0.2-0.24-0.35-0.33c-0.15-0.08-0.32-0.13-0.5-0.13c-0.08,0-0.17,0.01-0.25,0.03
		c-0.08,0.02-0.16,0.05-0.22,0.09c-0.06,0.04-0.12,0.09-0.16,0.15c-0.04,0.06-0.06,0.13-0.06,0.22c0,0.16,0.07,0.27,0.21,0.35
		c0.14,0.07,0.35,0.14,0.63,0.21c0.18,0.04,0.34,0.09,0.49,0.15s0.28,0.13,0.39,0.21c0.11,0.08,0.2,0.19,0.26,0.31
		c0.06,0.12,0.09,0.26,0.09,0.42c0,0.22-0.04,0.4-0.12,0.55c-0.08,0.15-0.19,0.27-0.33,0.37c-0.14,0.1-0.29,0.16-0.47,0.21
		c-0.18,0.04-0.36,0.06-0.54,0.06c-0.28,0-0.55-0.05-0.82-0.16c-0.27-0.11-0.49-0.27-0.66-0.5l0.52-0.44
		c0.1,0.14,0.23,0.27,0.41,0.36c0.17,0.1,0.36,0.15,0.57,0.15c0.09,0,0.18-0.01,0.27-0.03c0.08-0.02,0.16-0.05,0.23-0.09
		s0.12-0.1,0.17-0.16c0.04-0.07,0.06-0.15,0.06-0.26c0-0.17-0.08-0.3-0.24-0.38c-0.16-0.08-0.4-0.16-0.72-0.23
		c-0.12-0.03-0.25-0.07-0.38-0.11c-0.13-0.04-0.24-0.1-0.34-0.18c-0.1-0.08-0.19-0.17-0.25-0.29c-0.06-0.12-0.1-0.26-0.1-0.43
		c0-0.2,0.04-0.37,0.12-0.51c0.08-0.14,0.19-0.26,0.31-0.35c0.13-0.09,0.28-0.16,0.44-0.2s0.34-0.07,0.51-0.07
		c0.26,0,0.52,0.05,0.76,0.16c0.25,0.1,0.44,0.25,0.57,0.45L226.04,81.21z"/>
	<path class="st0" d="M230.08,83.96c-0.01-0.09-0.02-0.2-0.02-0.31c0-0.12-0.01-0.21-0.01-0.29h-0.02c-0.09,0.2-0.25,0.36-0.47,0.5
		c-0.22,0.14-0.46,0.21-0.73,0.21c-0.24,0-0.44-0.04-0.62-0.12c-0.17-0.08-0.32-0.18-0.43-0.32c-0.11-0.14-0.19-0.3-0.25-0.48
		s-0.08-0.38-0.08-0.58v-2.28h0.73v2.03c0,0.15,0.01,0.29,0.04,0.43c0.02,0.14,0.07,0.26,0.13,0.36s0.15,0.19,0.26,0.25
		s0.25,0.09,0.42,0.09c0.29,0,0.53-0.11,0.71-0.33c0.18-0.22,0.27-0.51,0.27-0.88v-1.95h0.73v2.88c0,0.1,0,0.22,0.01,0.38
		c0,0.16,0.01,0.29,0.02,0.41H230.08z"/>
	<path class="st0" d="M232.75,83.96h-0.73V78.1h0.73V83.96z"/>
	<path class="st0" d="M235.82,80.88h-0.98v1.91c0,0.22,0.04,0.38,0.12,0.47c0.08,0.1,0.21,0.14,0.4,0.14c0.07,0,0.14-0.01,0.22-0.02
		c0.08-0.01,0.15-0.04,0.21-0.06l0.02,0.6c-0.09,0.03-0.18,0.06-0.29,0.07c-0.11,0.02-0.22,0.03-0.33,0.03
		c-0.35,0-0.61-0.09-0.79-0.29c-0.18-0.19-0.27-0.48-0.27-0.86v-1.99h-0.71v-0.6h0.71v-1.05h0.72v1.05h0.98V80.88z"/>
	<path class="st0" d="M238.55,81.21c-0.08-0.13-0.2-0.24-0.35-0.33c-0.15-0.08-0.32-0.13-0.5-0.13c-0.08,0-0.17,0.01-0.25,0.03
		c-0.08,0.02-0.16,0.05-0.22,0.09c-0.06,0.04-0.12,0.09-0.16,0.15c-0.04,0.06-0.06,0.13-0.06,0.22c0,0.16,0.07,0.27,0.21,0.35
		c0.14,0.07,0.35,0.14,0.63,0.21c0.18,0.04,0.34,0.09,0.49,0.15s0.28,0.13,0.39,0.21c0.11,0.08,0.2,0.19,0.26,0.31
		c0.06,0.12,0.09,0.26,0.09,0.42c0,0.22-0.04,0.4-0.12,0.55c-0.08,0.15-0.19,0.27-0.33,0.37c-0.14,0.1-0.29,0.16-0.47,0.21
		c-0.18,0.04-0.36,0.06-0.54,0.06c-0.28,0-0.55-0.05-0.82-0.16c-0.27-0.11-0.49-0.27-0.66-0.5l0.52-0.44
		c0.1,0.14,0.23,0.27,0.41,0.36c0.17,0.1,0.36,0.15,0.57,0.15c0.09,0,0.18-0.01,0.27-0.03c0.08-0.02,0.16-0.05,0.23-0.09
		s0.12-0.1,0.17-0.16c0.04-0.07,0.06-0.15,0.06-0.26c0-0.17-0.08-0.3-0.24-0.38c-0.16-0.08-0.4-0.16-0.72-0.23
		c-0.12-0.03-0.25-0.07-0.38-0.11c-0.13-0.04-0.24-0.1-0.34-0.18c-0.1-0.08-0.19-0.17-0.25-0.29c-0.06-0.12-0.1-0.26-0.1-0.43
		c0-0.2,0.04-0.37,0.12-0.51c0.08-0.14,0.19-0.26,0.31-0.35c0.13-0.09,0.28-0.16,0.44-0.2s0.34-0.07,0.51-0.07
		c0.26,0,0.52,0.05,0.76,0.16c0.25,0.1,0.44,0.25,0.57,0.45L238.55,81.21z"/>
	<path class="st0" d="M243.11,80.39c0.2-0.14,0.45-0.21,0.73-0.21c0.25,0,0.47,0.06,0.67,0.17c0.2,0.11,0.36,0.3,0.47,0.57
		c0.12-0.24,0.3-0.42,0.52-0.55c0.22-0.13,0.46-0.19,0.73-0.19c0.24,0,0.44,0.04,0.61,0.12s0.31,0.19,0.43,0.32
		c0.11,0.13,0.2,0.29,0.25,0.47c0.05,0.18,0.08,0.37,0.08,0.58v2.28h-0.73v-2.04c0-0.15-0.01-0.29-0.04-0.43
		c-0.03-0.13-0.07-0.25-0.13-0.36c-0.06-0.1-0.14-0.19-0.25-0.25c-0.1-0.06-0.23-0.09-0.4-0.09c-0.17,0-0.31,0.04-0.43,0.1
		c-0.12,0.07-0.22,0.16-0.29,0.27c-0.08,0.11-0.13,0.24-0.16,0.38c-0.03,0.14-0.05,0.28-0.05,0.43v1.98h-0.73v-2.19
		c0-0.14-0.01-0.28-0.04-0.4c-0.03-0.12-0.07-0.22-0.13-0.31s-0.14-0.15-0.24-0.2c-0.1-0.05-0.22-0.07-0.36-0.07
		c-0.27,0-0.49,0.11-0.67,0.33c-0.18,0.22-0.27,0.51-0.27,0.88v1.95h-0.73v-2.88c0-0.1,0-0.22-0.01-0.38
		c-0.01-0.16-0.01-0.29-0.02-0.41h0.69c0.01,0.09,0.02,0.2,0.02,0.31c0.01,0.12,0.01,0.21,0.01,0.29h0.02
		C242.75,80.69,242.9,80.52,243.11,80.39z"/>
	<path class="st0" d="M251.11,81.58c0-0.27-0.08-0.48-0.25-0.61c-0.17-0.13-0.38-0.2-0.66-0.2c-0.21,0-0.4,0.04-0.58,0.12
		c-0.18,0.08-0.34,0.18-0.46,0.31l-0.39-0.46c0.18-0.17,0.4-0.3,0.66-0.4c0.26-0.1,0.54-0.15,0.84-0.15c0.26,0,0.49,0.04,0.69,0.11
		c0.19,0.08,0.35,0.18,0.48,0.31c0.12,0.13,0.22,0.28,0.28,0.46s0.09,0.36,0.09,0.57v1.6c0,0.12,0,0.25,0.01,0.39
		s0.02,0.25,0.04,0.34h-0.66c-0.04-0.18-0.06-0.35-0.06-0.53h-0.02c-0.13,0.2-0.3,0.35-0.51,0.46c-0.2,0.11-0.45,0.16-0.72,0.16
		c-0.14,0-0.3-0.02-0.45-0.06c-0.16-0.04-0.3-0.1-0.43-0.19c-0.13-0.09-0.24-0.2-0.32-0.35s-0.13-0.32-0.13-0.53
		c0-0.28,0.07-0.5,0.22-0.66s0.35-0.29,0.59-0.37c0.24-0.08,0.52-0.14,0.82-0.17c0.3-0.03,0.61-0.04,0.92-0.04V81.58z M250.93,82.2
		c-0.18,0-0.37,0.01-0.56,0.02s-0.37,0.05-0.53,0.09c-0.16,0.05-0.29,0.12-0.39,0.21s-0.15,0.22-0.15,0.37
		c0,0.11,0.02,0.2,0.07,0.27c0.04,0.07,0.1,0.13,0.17,0.18s0.15,0.08,0.24,0.1c0.09,0.02,0.18,0.03,0.27,0.03
		c0.34,0,0.6-0.1,0.79-0.31c0.18-0.2,0.28-0.46,0.28-0.77V82.2H250.93z"/>
	<path class="st0" d="M254.42,83.17h0.02l1.02-2.88h0.77l-1.78,4.54c-0.06,0.16-0.13,0.29-0.2,0.41c-0.07,0.12-0.16,0.23-0.26,0.31
		s-0.21,0.15-0.35,0.2c-0.13,0.05-0.29,0.07-0.47,0.07c-0.08,0-0.16,0-0.24-0.01s-0.16-0.02-0.24-0.04l0.07-0.64
		c0.12,0.04,0.25,0.06,0.36,0.06c0.19,0,0.33-0.05,0.43-0.16c0.09-0.11,0.18-0.26,0.26-0.45l0.23-0.61l-1.57-3.67h0.81L254.42,83.17
		z"/>
	<path class="st0" d="M260.59,83.96h-0.79l-1.5-3.67h0.81l1.08,2.89h0.02l1.09-2.89h0.77L260.59,83.96z"/>
	<path class="st0" d="M265.06,81.58c0-0.27-0.08-0.48-0.25-0.61c-0.17-0.13-0.38-0.2-0.66-0.2c-0.21,0-0.4,0.04-0.58,0.12
		c-0.18,0.08-0.34,0.18-0.46,0.31l-0.39-0.46c0.18-0.17,0.4-0.3,0.66-0.4c0.26-0.1,0.54-0.15,0.84-0.15c0.26,0,0.49,0.04,0.69,0.11
		c0.19,0.08,0.35,0.18,0.48,0.31c0.12,0.13,0.22,0.28,0.28,0.46s0.09,0.36,0.09,0.57v1.6c0,0.12,0,0.25,0.01,0.39
		s0.02,0.25,0.04,0.34h-0.66c-0.04-0.18-0.06-0.35-0.06-0.53h-0.02c-0.13,0.2-0.3,0.35-0.51,0.46c-0.2,0.11-0.45,0.16-0.72,0.16
		c-0.14,0-0.3-0.02-0.45-0.06c-0.16-0.04-0.3-0.1-0.43-0.19c-0.13-0.09-0.24-0.2-0.32-0.35s-0.13-0.32-0.13-0.53
		c0-0.28,0.07-0.5,0.22-0.66s0.35-0.29,0.59-0.37c0.24-0.08,0.52-0.14,0.82-0.17c0.3-0.03,0.61-0.04,0.92-0.04V81.58z M264.88,82.2
		c-0.18,0-0.37,0.01-0.56,0.02s-0.37,0.05-0.53,0.09c-0.16,0.05-0.29,0.12-0.39,0.21s-0.15,0.22-0.15,0.37
		c0,0.11,0.02,0.2,0.07,0.27c0.04,0.07,0.1,0.13,0.17,0.18s0.15,0.08,0.24,0.1c0.09,0.02,0.18,0.03,0.27,0.03
		c0.34,0,0.6-0.1,0.79-0.31c0.18-0.2,0.28-0.46,0.28-0.77V82.2H264.88z"/>
	<path class="st0" d="M266.96,80.69c-0.01-0.16-0.01-0.29-0.02-0.41h0.69c0.01,0.09,0.02,0.2,0.02,0.32
		c0.01,0.12,0.01,0.22,0.01,0.3h0.02c0.1-0.22,0.25-0.39,0.45-0.52c0.2-0.13,0.42-0.2,0.67-0.2c0.11,0,0.21,0.01,0.29,0.03
		l-0.03,0.67c-0.1-0.03-0.21-0.04-0.33-0.04c-0.18,0-0.33,0.03-0.46,0.1s-0.24,0.15-0.32,0.26c-0.08,0.11-0.15,0.23-0.19,0.38
		c-0.04,0.14-0.06,0.29-0.06,0.45v1.93h-0.73v-2.88C266.97,80.97,266.97,80.85,266.96,80.69z"/>
	<path class="st0" d="M271.17,83.17h0.02l1.02-2.88h0.77l-1.78,4.54c-0.06,0.16-0.13,0.29-0.2,0.41c-0.07,0.12-0.16,0.23-0.26,0.31
		s-0.21,0.15-0.35,0.2c-0.13,0.05-0.29,0.07-0.47,0.07c-0.08,0-0.16,0-0.24-0.01s-0.16-0.02-0.24-0.04l0.07-0.64
		c0.12,0.04,0.25,0.06,0.36,0.06c0.19,0,0.33-0.05,0.43-0.16c0.09-0.11,0.18-0.26,0.26-0.45l0.23-0.61l-1.57-3.67h0.81L271.17,83.17
		z"/>
	<path class="st0" d="M274.3,83.49c0,0.13-0.05,0.25-0.15,0.36S273.93,84,273.78,84c-0.14,0-0.27-0.05-0.37-0.15
		c-0.1-0.1-0.15-0.22-0.15-0.35c0-0.14,0.05-0.26,0.15-0.36c0.1-0.1,0.22-0.15,0.37-0.15s0.27,0.05,0.37,0.15
		C274.25,83.23,274.3,83.35,274.3,83.49z"/>
</g>
</svg>
