<?xml version="1.0" encoding="utf-8"?>
<!-- Generator: Adobe Illustrator 25.2.1, SVG Export Plug-In . SVG Version: 6.00 Build 0)  -->
<svg version="1.1" id="Layer_1" xmlns="http://www.w3.org/2000/svg" xmlns:xlink="http://www.w3.org/1999/xlink" x="0px" y="0px"
	 viewBox="0 0 728 90" style="enable-background:new 0 0 728 90;" xml:space="preserve">
<style type="text/css">
	.st0{fill:#FFFFFF;}
</style>
<g>
	<g>
		<g>
			<g>
				<path class="st0" d="M494.4,41.53c-1.85,0-2.74-1.34-2.74-2.63c0-1.49,1.08-2.68,2.77-2.68c0.58,0,1.17,0.18,1.64,0.57
					l-0.52,0.73c-0.32-0.25-0.67-0.34-1.09-0.34c-0.9,0-1.57,0.62-1.57,1.69c0,0.98,0.62,1.76,1.6,1.76c0.42,0,0.78-0.12,1.11-0.41
					l0.48,0.73C495.62,41.34,494.99,41.53,494.4,41.53"/>
				<path class="st0" d="M498.93,41.53c-1.55,0-2.69-1.16-2.69-2.68c0-1.56,1.24-2.63,2.69-2.63c1.44,0,2.7,1.06,2.7,2.62
					C501.62,40.37,500.48,41.53,498.93,41.53 M500.38,38.85c0-0.94-0.46-1.75-1.45-1.75c-0.97,0-1.45,0.81-1.45,1.74
					c0,0.96,0.45,1.81,1.45,1.81c1,0,1.45-0.84,1.45-1.81V38.85z"/>
				<path class="st0" d="M504.76,41.53c-1.55,0-2.69-1.16-2.69-2.68c0-1.56,1.24-2.63,2.69-2.63c1.44,0,2.7,1.06,2.7,2.62
					C507.46,40.37,506.32,41.53,504.76,41.53 M506.21,38.85c0-0.94-0.46-1.75-1.45-1.75c-0.97,0-1.45,0.81-1.45,1.74
					c0,0.96,0.45,1.81,1.45,1.81c1,0,1.45-0.84,1.45-1.81V38.85z"/>
				<polygon class="st0" points="508.06,41.41 508.06,33.96 509.22,34.6 509.22,41.41 				"/>
				<path class="st0" d="M511.9,41.56c-1.31,0-1.93-0.62-1.93-0.62l0.52-0.68c0,0,0.6,0.39,1.38,0.39c0.38,0,0.69-0.26,0.69-0.52
					c0-0.26-0.12-0.48-0.46-0.65c-0.35-0.18-0.73-0.36-1.04-0.51c-0.3-0.15-0.97-0.59-0.97-1.47c0-0.88,0.9-1.37,1.82-1.37
					c0.88,0,1.55,0.57,1.55,0.57l-0.45,0.69c0,0-0.5-0.35-1.06-0.35c-0.55,0-0.67,0.35-0.67,0.5c0,0.15,0.05,0.37,0.41,0.56
					c0.36,0.19,0.72,0.38,1.24,0.68c0.52,0.29,0.82,0.79,0.82,1.35C513.75,40.69,513.21,41.56,511.9,41.56"/>
				<path class="st0" d="M516.89,41.53c-1.85,0-2.74-1.34-2.74-2.63c0-1.49,1.08-2.68,2.77-2.68c0.58,0,1.17,0.18,1.64,0.57
					l-0.52,0.73c-0.32-0.25-0.67-0.34-1.09-0.34c-0.9,0-1.57,0.62-1.57,1.69c0,0.98,0.62,1.76,1.6,1.76c0.42,0,0.78-0.12,1.11-0.41
					l0.48,0.73C518.11,41.34,517.48,41.53,516.89,41.53"/>
				<path class="st0" d="M522.61,40.81c0,0-0.59,0.72-1.69,0.72c-1.31,0-1.94-0.95-1.94-1.9v-3.29h1.16v3.24
					c0,0.56,0.44,1.03,1.12,1.03c0.6,0,1.18-0.71,1.18-0.71v-3.57h1.16v5.06L522.61,40.81z"/>
				<polygon class="st0" points="524.62,41.41 524.62,33.96 525.79,34.6 525.79,41.41 				"/>
				<path class="st0" d="M529.62,41.53c-1.02,0-1.61-0.57-1.61-0.57v2.53h-1.17v-7.26l1.17,0.61c0,0,0.63-0.63,1.67-0.63
					c1.1,0,2.47,0.84,2.47,2.72C532.15,40.81,530.8,41.53,529.62,41.53 M529.55,37.1c-0.99,0-1.57,0.92-1.57,0.92v1.91
					c0,0,0.66,0.74,1.61,0.74c1.11,0,1.35-1.32,1.35-1.78C530.94,38.44,530.84,37.1,529.55,37.1"/>
				<path class="st0" d="M535.21,41.54h-0.73c-0.92,0-1.23-0.88-1.23-1.47v-2.98h-0.92v-0.76h0.92V34.1h1.15v2.24h1.18v0.76h-1.17
					v2.7c0,0.3-0.05,0.78,0.46,0.78h0.84L535.21,41.54z"/>
				<path class="st0" d="M537.07,35.46c-0.42,0-0.76-0.34-0.76-0.76c0-0.42,0.35-0.76,0.76-0.76c0.42,0,0.76,0.34,0.76,0.76
					C537.83,35.12,537.48,35.46,537.07,35.46 M536.49,36.33h1.14v5.07h-1.14V36.33z"/>
				<path class="st0" d="M542.23,41.41v-3.24c0-0.56-0.44-1.03-1.12-1.03c-0.6,0-1.27,0.71-1.27,0.71v3.57h-1.16v-5.06l0.98,0.58
					c0,0,0.67-0.72,1.78-0.72c1.31,0,1.94,0.95,1.94,1.9v3.3H542.23z"/>
				<path class="st0" d="M546.94,43.76c-0.18,0-1.54-0.02-1.54-0.02l0.02-0.93h1.14c1.11,0,1.74-0.59,1.74-1.4v-0.46
					c0,0-0.61,0.57-1.63,0.57c-1.18,0-2.53-0.72-2.53-2.6c0-1.88,1.37-2.72,2.47-2.72c1.05,0,1.67,0.63,1.67,0.63l1.17-0.58v5.04
					C549.45,42.66,548.54,43.76,546.94,43.76 M548.31,38.03c0,0-0.57-0.92-1.57-0.92c-1.29,0-1.39,1.34-1.39,1.8
					c0,0.46,0.24,1.78,1.35,1.78c0.95,0,1.61-0.74,1.61-0.74V38.03z"/>
				<polygon class="st0" points="479.91,39.1 477.77,41.22 480.39,42.2 483.51,39.1 				"/>
				<polygon class="st0" points="483.82,34.78 481.69,32.67 480.69,35.26 483.82,38.36 				"/>
				<polygon class="st0" points="487.68,35.56 490.53,36.3 488.16,38.67 484.56,38.67 				"/>
				<polygon class="st0" points="487.49,42.63 486.67,45.39 482.23,40.98 484.03,39.19 				"/>
				<g>
					<path class="st0" d="M551.18,36.68c0,0.3-0.24,0.54-0.55,0.54c-0.31,0-0.55-0.24-0.55-0.54c0-0.3,0.25-0.54,0.56-0.54
						C550.94,36.14,551.18,36.38,551.18,36.68z M550.21,36.68c0,0.24,0.18,0.43,0.42,0.43c0.23,0,0.41-0.19,0.41-0.42
						c0-0.24-0.18-0.43-0.42-0.43C550.39,36.25,550.21,36.44,550.21,36.68z M550.54,36.95h-0.12v-0.54
						c0.05-0.01,0.12-0.02,0.21-0.02c0.1,0,0.15,0.02,0.18,0.04c0.03,0.02,0.06,0.06,0.06,0.11c0,0.07-0.05,0.11-0.11,0.13v0.01
						c0.05,0.02,0.08,0.06,0.1,0.13c0.02,0.08,0.03,0.11,0.04,0.13h-0.13c-0.02-0.02-0.03-0.07-0.04-0.13
						c-0.01-0.06-0.04-0.08-0.11-0.08h-0.06V36.95z M550.55,36.65h0.06c0.07,0,0.12-0.02,0.12-0.08c0-0.05-0.04-0.08-0.11-0.08
						c-0.03,0-0.06,0-0.07,0.01V36.65z"/>
				</g>
			</g>
			<g>
				<polygon class="st0" points="481.27,45.25 481.27,41.94 481.92,41.29 483.81,43.16 483.81,43.79 				"/>
				<polygon class="st0" points="480.96,36.14 478.21,36.14 479.09,38.66 483.51,38.66 				"/>
				<polygon class="st0" points="490.25,41.63 487.1,41.63 484.56,39.1 488.97,39.1 				"/>
				<polygon class="st0" points="484.25,33.97 486.79,32.47 486.79,35.83 484.25,38.36 				"/>
				<g>
					<path class="st0" d="M488.73,42.81c0,0.21-0.17,0.37-0.38,0.37c-0.21,0-0.38-0.17-0.38-0.37c0-0.21,0.17-0.37,0.39-0.37
						C488.56,42.44,488.73,42.6,488.73,42.81z M488.06,42.81c0,0.16,0.12,0.3,0.29,0.3c0.16,0,0.28-0.13,0.28-0.29
						c0-0.16-0.12-0.3-0.29-0.3C488.18,42.51,488.06,42.64,488.06,42.81z M488.29,43h-0.09v-0.37c0.03,0,0.08-0.01,0.14-0.01
						c0.07,0,0.1,0.01,0.13,0.03c0.02,0.02,0.04,0.04,0.04,0.08c0,0.05-0.03,0.07-0.08,0.09v0c0.04,0.01,0.05,0.04,0.07,0.09
						c0.01,0.06,0.02,0.08,0.03,0.09h-0.09c-0.01-0.01-0.02-0.05-0.03-0.09c-0.01-0.04-0.03-0.06-0.08-0.06h-0.04V43z M488.29,42.79
						h0.04c0.05,0,0.09-0.02,0.09-0.05c0-0.03-0.02-0.06-0.08-0.06c-0.02,0-0.04,0-0.05,0V42.79z"/>
				</g>
			</g>
		</g>
	</g>
	<g>
		<path class="st0" d="M467.88,36.48h0.46v2.53h0.01c0.07-0.11,0.16-0.21,0.26-0.28c0.1-0.08,0.21-0.14,0.32-0.19
			c0.11-0.05,0.23-0.09,0.34-0.11c0.12-0.02,0.23-0.03,0.34-0.03c0.26,0,0.49,0.04,0.7,0.13c0.21,0.09,0.39,0.2,0.55,0.36
			c0.15,0.15,0.27,0.33,0.36,0.54c0.09,0.21,0.13,0.43,0.13,0.68c0,0.24-0.04,0.47-0.13,0.68c-0.09,0.21-0.21,0.39-0.36,0.54
			c-0.15,0.15-0.34,0.27-0.55,0.36c-0.21,0.09-0.44,0.13-0.7,0.13c-0.11,0-0.22-0.01-0.34-0.03c-0.12-0.02-0.23-0.06-0.34-0.11
			c-0.11-0.05-0.22-0.12-0.32-0.19c-0.1-0.08-0.19-0.17-0.26-0.28h-0.01v0.54h-0.46V36.48z M470.85,40.09
			c0-0.18-0.03-0.35-0.09-0.51c-0.06-0.16-0.14-0.29-0.25-0.41c-0.11-0.12-0.24-0.21-0.39-0.27c-0.15-0.07-0.32-0.1-0.51-0.1
			s-0.36,0.03-0.52,0.1c-0.16,0.07-0.29,0.16-0.41,0.27c-0.12,0.12-0.21,0.25-0.27,0.41c-0.06,0.16-0.1,0.33-0.1,0.51
			c0,0.18,0.03,0.35,0.1,0.51s0.16,0.29,0.27,0.41c0.12,0.12,0.25,0.21,0.41,0.27c0.16,0.07,0.33,0.1,0.52,0.1s0.36-0.03,0.51-0.1
			c0.15-0.07,0.28-0.16,0.39-0.27c0.11-0.12,0.19-0.25,0.25-0.41S470.85,40.27,470.85,40.09z"/>
		<path class="st0" d="M473.34,41.15l1-2.68h0.56l-1.63,4.08c-0.1,0.25-0.22,0.45-0.37,0.6c-0.15,0.15-0.37,0.22-0.65,0.22
			c-0.07,0-0.14,0-0.21-0.01c-0.07,0-0.14-0.02-0.21-0.04l0.05-0.44c0.1,0.05,0.21,0.08,0.35,0.08c0.16,0,0.29-0.05,0.38-0.15
			c0.09-0.1,0.17-0.24,0.24-0.43l0.24-0.62l-1.34-3.28h0.58L473.34,41.15z"/>
	</g>
	<g>
		<path class="st0" d="M476.95,26.42c-1,0.87-2.24,1.3-3.71,1.3c-1.92,0-3.44-0.62-4.54-1.87c-1-1.12-1.5-2.48-1.5-4.06
			c0-1.7,0.56-3.12,1.68-4.27c1.12-1.15,2.6-1.73,4.45-1.73c1.41,0,2.61,0.43,3.6,1.29l-1.15,1.61c-0.66-0.5-1.46-0.75-2.4-0.75
			c-1.01,0-1.84,0.34-2.48,1.03c-0.64,0.68-0.96,1.61-0.96,2.78c0,1.14,0.32,2.08,0.96,2.82c0.64,0.75,1.49,1.12,2.55,1.12
			c0.92,0,1.74-0.3,2.47-0.89L476.95,26.42z"/>
		<path class="st0" d="M488.93,21.67c0,1.73-0.56,3.17-1.69,4.32c-1.13,1.15-2.55,1.73-4.25,1.73c-1.71,0-3.12-0.58-4.24-1.73
			c-1.12-1.15-1.68-2.59-1.68-4.32c0-1.7,0.59-3.11,1.78-4.25c1.14-1.09,2.52-1.64,4.15-1.64c1.63,0,3.02,0.55,4.17,1.64
			C488.34,18.56,488.93,19.98,488.93,21.67z M486.19,21.67c0-1.1-0.26-2.01-0.78-2.73c-0.58-0.78-1.39-1.17-2.42-1.17
			c-1.03,0-1.83,0.39-2.4,1.17c-0.52,0.72-0.78,1.63-0.78,2.73c0,1.17,0.25,2.12,0.76,2.85c0.57,0.81,1.38,1.21,2.42,1.21
			c1.05,0,1.86-0.4,2.44-1.21C485.94,23.79,486.19,22.84,486.19,21.67z"/>
		<path class="st0" d="M501.68,21.67c0,1.73-0.56,3.17-1.69,4.32c-1.13,1.15-2.55,1.73-4.25,1.73c-1.71,0-3.12-0.58-4.24-1.73
			c-1.12-1.15-1.68-2.59-1.68-4.32c0-1.7,0.59-3.11,1.78-4.25c1.14-1.09,2.52-1.64,4.15-1.64c1.63,0,3.02,0.55,4.17,1.64
			C501.09,18.56,501.68,19.98,501.68,21.67z M498.94,21.67c0-1.1-0.26-2.01-0.78-2.73c-0.58-0.78-1.39-1.17-2.42-1.17
			c-1.03,0-1.83,0.39-2.4,1.17c-0.52,0.72-0.78,1.63-0.78,2.73c0,1.17,0.25,2.12,0.76,2.85c0.57,0.81,1.38,1.21,2.42,1.21
			c1.05,0,1.86-0.4,2.44-1.21C498.68,23.79,498.94,22.84,498.94,21.67z"/>
		<path class="st0" d="M505.6,27.46h-2.56V10.71l2.56,1.43V27.46z"/>
		<g>
			<g>
				<path class="st0" d="M525.15,21.67c0,1.73-0.56,3.17-1.69,4.32c-1.13,1.15-2.55,1.73-4.25,1.73c-1.71,0-3.12-0.58-4.24-1.73
					c-1.12-1.15-1.68-2.59-1.68-4.32c0-1.7,0.59-3.11,1.78-4.25c1.14-1.09,2.52-1.64,4.15-1.64c1.63,0,3.02,0.55,4.17,1.64
					C524.56,18.56,525.15,19.98,525.15,21.67z M522.4,21.67c0-1.1-0.26-2.01-0.78-2.73c-0.58-0.78-1.39-1.17-2.42-1.17
					c-1.03,0-1.83,0.39-2.4,1.17c-0.52,0.72-0.78,1.63-0.78,2.73c0,1.17,0.25,2.12,0.76,2.85c0.57,0.81,1.38,1.21,2.42,1.21
					c1.05,0,1.86-0.4,2.44-1.21C522.15,23.79,522.4,22.84,522.4,21.67z"/>
				<path class="st0" d="M536.79,27.46h-2.56v-7.28c0-0.65-0.23-1.2-0.68-1.65c-0.45-0.44-1.05-0.67-1.79-0.67
					c-0.81,0-1.74,0.53-2.79,1.59v8.01h-2.56v-11.4l2.17,1.31c1.11-1.08,2.41-1.62,3.92-1.62c1.35,0,2.43,0.45,3.23,1.33
					c0.71,0.8,1.06,1.78,1.06,2.95V27.46z"/>
				<path class="st0" d="M549.28,22.29h-8.18c0.31,2.32,1.4,3.49,3.27,3.49c1.15,0,2.1-0.33,2.84-0.98l1.01,1.66
					c-0.98,0.9-2.29,1.36-3.92,1.36c-2.26,0-3.91-0.85-4.96-2.55c-0.65-1.05-0.97-2.12-0.97-3.23c0-1.36,0.26-2.54,0.78-3.53
					c0.94-1.83,2.6-2.74,5-2.74c2.37,0,3.93,1.08,4.68,3.25C549.17,19.94,549.31,21.03,549.28,22.29z M546.7,20.61
					c-0.09-2.01-0.95-3.02-2.58-3.02c-1.8,0-2.79,1.01-2.97,3.02H546.7z"/>
				<path class="st0" d="M511.13,25.59c-0.49,0-0.8-0.21-0.92-0.63c-0.06-0.17-0.09-0.55-0.09-1.12v-4.75h1.78v-1.71h-1.78v-2.72
					l-2.56-1.43v11.24c0,0.81,0.2,1.52,0.6,2.13c0.49,0.78,1.2,1.17,2.12,1.17h1.61l1.08-2.18H511.13z"/>
			</g>
		</g>
		<g>
			<path class="st0" d="M552.22,16.98c0,0.67-0.55,1.21-1.24,1.21c-0.69,0-1.25-0.54-1.25-1.21c0-0.68,0.55-1.2,1.25-1.2
				C551.67,15.78,552.22,16.31,552.22,16.98z M550.04,16.98c0,0.54,0.41,0.96,0.94,0.96c0.52,0.01,0.92-0.43,0.92-0.95
				c0-0.54-0.4-0.97-0.94-0.97C550.45,16.02,550.04,16.46,550.04,16.98z M550.79,17.61h-0.28v-1.2c0.11-0.01,0.27-0.04,0.46-0.04
				c0.23,0,0.33,0.04,0.41,0.1c0.07,0.05,0.13,0.14,0.13,0.26c0,0.15-0.11,0.24-0.25,0.29v0.01c0.12,0.04,0.18,0.13,0.21,0.29
				c0.04,0.18,0.07,0.25,0.09,0.29h-0.3c-0.04-0.04-0.06-0.15-0.1-0.29c-0.02-0.12-0.1-0.18-0.25-0.18h-0.13V17.61z M550.8,16.93
				h0.13c0.16,0,0.28-0.05,0.28-0.18c0-0.11-0.08-0.18-0.26-0.18c-0.07,0-0.13,0.01-0.15,0.01V16.93z"/>
		</g>
	</g>
</g>
</svg>
