<?xml version="1.0" encoding="utf-8"?>
<!-- Generator: Adobe Illustrator 25.2.1, SVG Export Plug-In . SVG Version: 6.00 Build 0)  -->
<svg version="1.1" id="Layer_1" xmlns="http://www.w3.org/2000/svg" xmlns:xlink="http://www.w3.org/1999/xlink" x="0px" y="0px"
	 viewBox="0 0 300 600" style="enable-background:new 0 0 300 600;" xml:space="preserve">
<style type="text/css">
	.st0{fill:#FFFFFF;}
</style>
<g>
	<path class="st0" d="M57.79,73.75h-2.78l0.17-2.44h2.78l0.83-11.66h-2.78l0.17-2.44h2.78l0.72-10.39h2.67L61.62,57.2h4.11
		l0.72-10.39h2.61L68.34,57.2h2.89l-0.17,2.44h-2.89l-0.83,11.66h2.94l-0.22,2.44h-2.89L66.4,85.14h-2.61l0.78-11.39h-4.11
		l-0.78,11.39h-2.67L57.79,73.75z M64.73,71.31l0.83-11.66h-4.11l-0.83,11.66H64.73z"/>
	<path class="st0" d="M80.23,50.59l-4.89,3v-3.11l6.11-3.78h2.06v38.44h-3.28V50.59z"/>
	<path class="st0" d="M95.24,55.92h3.3l4.62,21.38h0.08V55.92h2.29v29.22h-2.75l-5.17-24.09h-0.08v24.09h-2.29V55.92z"/>
	<path class="st0" d="M110.53,80.27V60.79c0-3.39,1.82-5.29,4.91-5.29s4.91,1.91,4.91,5.29v19.48c0,3.39-1.82,5.29-4.91,5.29
		S110.53,83.66,110.53,80.27z M117.81,79.85V61.22c0-2.46-0.68-3.43-2.37-3.43c-1.74,0-2.37,0.97-2.37,3.43v18.63
		c0,2.46,0.63,3.43,2.37,3.43C117.14,83.28,117.81,82.3,117.81,79.85z"/>
	<path class="st0" d="M125.35,55.92h3.3l4.62,21.38h0.08V55.92h2.29v29.22h-2.75l-5.17-24.09h-0.08v24.09h-2.29V55.92z"/>
	<path class="st0" d="M140.35,80.35v-5.12h2.46v4.66c0,2.41,0.68,3.39,2.37,3.39c1.74,0,2.41-0.97,2.41-3.39v-4.4
		c0-1.99-0.55-2.96-1.99-3.9l-2.24-1.44c-2.16-1.4-3.01-3.01-3.01-5.84v-3.77c0-3.22,1.74-5.04,4.74-5.04s4.74,1.82,4.74,5.04v3.77
		h-2.46v-3.34c0-2.29-0.64-3.18-2.24-3.18c-1.61,0-2.24,0.89-2.24,3.18v3.18c0,1.99,0.55,2.96,1.99,3.9l2.24,1.44
		c2.16,1.4,3.01,3.01,3.01,5.84v5.04c0,3.35-1.82,5.21-4.91,5.21C142.12,85.56,140.35,83.7,140.35,80.35z"/>
	<path class="st0" d="M154.66,80.44V55.92h2.54v24.05c0,2.37,0.59,3.3,2.29,3.3s2.29-0.93,2.29-3.3V55.92h2.46v24.52
		c0,3.26-1.78,5.12-4.78,5.12C156.44,85.56,154.66,83.7,154.66,80.44z"/>
	<path class="st0" d="M169.31,55.92h4.7c3.39,0,5,1.74,5,5.29v3.73c0,2.37-0.76,3.81-2.29,4.49v0.08c1.52,0.68,2.29,2.12,2.29,4.53
		v11.09h-2.54V74.22c0-2.71-0.76-3.51-3.17-3.51h-1.44v14.44h-2.54V55.92z M173.72,68.5c2.12,0,2.75-0.8,2.75-3.51v-3.35
		c0-2.71-0.63-3.51-2.75-3.51h-1.86V68.5H173.72z"/>
	<path class="st0" d="M183.8,80.99V60.75c0-3.35,1.82-5.25,4.87-5.25c3.09,0,4.83,1.91,4.83,5.25v3.22h-2.41v-2.75
		c0-2.46-0.68-3.43-2.37-3.43c-1.74,0-2.37,0.97-2.37,3.43v19.48c0,1.74,0.63,2.58,2.03,2.58c1.74,0,2.71-1.31,2.71-3.68v-8.38
		h-2.37v-2.2h4.91v16.13h-2.16v-2.07h-0.13c-0.68,1.61-1.91,2.5-3.64,2.5C185.24,85.56,183.8,83.83,183.8,80.99z"/>
	<path class="st0" d="M198.49,55.92h2.54v29.22h-2.54V55.92z"/>
	<path class="st0" d="M206.03,80.52V60.54c0-3.22,1.69-5.04,4.74-5.04c3.09,0,4.78,1.82,4.78,5.04v4.79h-2.41v-4.36
		c0-2.29-0.68-3.18-2.29-3.18c-1.65,0-2.29,0.89-2.29,3.18V80.1c0,2.29,0.63,3.18,2.29,3.18c1.61,0,2.29-0.89,2.29-3.18v-5.89h2.41
		v6.31c0,3.22-1.69,5.04-4.78,5.04C207.72,85.56,206.03,83.74,206.03,80.52z"/>
	<path class="st0" d="M222.97,55.92h3.34L230,85.14h-2.58l-0.85-7.24h-3.98l-0.85,7.24h-2.46L222.97,55.92z M226.31,75.7
		l-1.69-15.75h-0.08l-1.69,15.75H226.31z"/>
	<path class="st0" d="M234.19,55.92h2.54v27.02h5.42v2.2h-7.96V55.92z"/>
	<path class="st0" d="M67.14,94.42h8.38v2.2h-5.84v10.63h5.08v2.2h-5.08v14.19h-2.54V94.42z"/>
	<path class="st0" d="M82.38,94.42h3.35l3.68,29.22h-2.58l-0.85-7.24H82l-0.85,7.24H78.7L82.38,94.42z M85.73,114.2l-1.69-15.75
		h-0.08l-1.69,15.75H85.73z"/>
	<path class="st0" d="M96.15,96.62h-3.56v-2.2h9.65v2.2h-3.56v27.02h-2.54V96.62z"/>
	<path class="st0" d="M113.59,94.42h4.7c3.39,0,5,1.74,5,5.29v3.73c0,2.37-0.76,3.81-2.29,4.49v0.08c1.52,0.68,2.29,2.12,2.29,4.53
		v11.09h-2.54v-10.92c0-2.71-0.76-3.51-3.18-3.51h-1.44v14.44h-2.54V94.42z M118,107c2.12,0,2.75-0.8,2.75-3.51v-3.35
		c0-2.71-0.64-3.51-2.75-3.51h-1.86V107H118z"/>
	<path class="st0" d="M128.25,94.42h8.38v2.2h-5.84v10.21h5.08v2.2h-5.08v12.41h5.84v2.2h-8.38V94.42z"/>
	<path class="st0" d="M140.95,94.42h4.83c3.39,0,5,1.74,5,5.29v18.63c0,3.56-1.61,5.29-5,5.29h-4.83V94.42z M145.48,121.44
		c2.12,0,2.75-0.8,2.75-3.51v-17.78c0-2.71-0.64-3.51-2.75-3.51h-1.99v24.81H145.48z"/>
	<path class="st0" d="M155.65,118.94V94.42h2.54v24.05c0,2.37,0.59,3.3,2.29,3.3s2.29-0.93,2.29-3.3V94.42h2.46v24.52
		c0,3.26-1.78,5.12-4.78,5.12C157.43,124.06,155.65,122.2,155.65,118.94z"/>
	<path class="st0" d="M170.13,119.02V99.04c0-3.22,1.69-5.04,4.74-5.04c3.09,0,4.78,1.82,4.78,5.04v4.79h-2.41v-4.36
		c0-2.29-0.68-3.18-2.29-3.18c-1.65,0-2.29,0.89-2.29,3.18v19.14c0,2.29,0.63,3.18,2.29,3.18c1.61,0,2.29-0.89,2.29-3.18v-5.89h2.41
		v6.31c0,3.22-1.69,5.04-4.78,5.04C171.82,124.06,170.13,122.24,170.13,119.02z"/>
	<path class="st0" d="M186.9,96.62h-3.56v-2.2H193v2.2h-3.56v27.02h-2.54V96.62z"/>
	<path class="st0" d="M197.15,94.42h2.54v29.22h-2.54V94.42z"/>
	<path class="st0" d="M204.69,118.77V99.29c0-3.39,1.82-5.29,4.91-5.29s4.91,1.91,4.91,5.29v19.48c0,3.39-1.82,5.29-4.91,5.29
		S204.69,122.16,204.69,118.77z M211.97,118.35V99.72c0-2.46-0.68-3.43-2.37-3.43c-1.74,0-2.37,0.97-2.37,3.43v18.63
		c0,2.46,0.63,3.43,2.37,3.43C211.29,121.78,211.97,120.8,211.97,118.35z"/>
	<path class="st0" d="M219.51,94.42h3.3l4.62,21.38h0.08V94.42h2.29v29.22h-2.75l-5.17-24.09h-0.08v24.09h-2.29V94.42z"/>
	<path class="st0" d="M84.18,135.12h-3.56v-2.2h9.65v2.2h-3.56v27.02h-2.54V135.12z"/>
	<path class="st0" d="M94.42,132.92h4.7c3.39,0,5,1.74,5,5.29v3.73c0,2.37-0.76,3.81-2.29,4.49v0.08c1.52,0.68,2.29,2.12,2.29,4.53
		v11.09h-2.54v-10.92c0-2.71-0.76-3.51-3.18-3.51h-1.44v14.44h-2.54V132.92z M98.83,145.5c2.12,0,2.75-0.8,2.75-3.51v-3.35
		c0-2.71-0.64-3.51-2.75-3.51h-1.86v10.37H98.83z"/>
	<path class="st0" d="M109.08,132.92h8.38v2.2h-5.84v10.21h5.08v2.2h-5.08v12.41h5.84v2.2h-8.38V132.92z"/>
	<path class="st0" d="M124.49,132.92h3.35l3.68,29.22h-2.58l-0.85-7.24h-3.98l-0.85,7.24h-2.46L124.49,132.92z M127.84,152.7
		l-1.69-15.75h-0.08l-1.69,15.75H127.84z"/>
	<path class="st0" d="M138.25,135.12h-3.56v-2.2h9.65v2.2h-3.56v27.02h-2.54V135.12z"/>
	<path class="st0" d="M148.5,132.92h4.02l3.26,21.55h0.08l3.26-21.55h4.19v29.22h-2.54v-26.13h-0.08l-3.94,26.13h-1.99l-3.94-26.13
		h-0.08v26.13h-2.24V132.92z"/>
	<path class="st0" d="M168.49,132.92h8.38v2.2h-5.84v10.21h5.08v2.2h-5.08v12.41h5.84v2.2h-8.38V132.92z"/>
	<path class="st0" d="M181.2,132.92h3.3l4.62,21.38h0.08v-21.38h2.29v29.22h-2.75l-5.17-24.09h-0.08v24.09h-2.29V132.92z"/>
	<path class="st0" d="M199.19,135.12h-3.56v-2.2h9.65v2.2h-3.56v27.02h-2.54V135.12z"/>
	<path class="st0" d="M208.6,158.67h2.84v3.47h-2.84V158.67z"/>
	<path class="st0" d="M212.99,135.05l-2.12,1.33l-0.57-0.94l2.22-1.19l-2.22-1.16l0.57-0.94l2.12,1.33l-0.12-2.49h1.11l-0.12,2.49
		l2.12-1.33l0.57,0.94l-2.22,1.19l2.22,1.16l-0.57,0.94l-2.12-1.33l0.12,2.49h-1.11L212.99,135.05z"/>
</g>
</svg>
