<?xml version="1.0" encoding="utf-8"?>
<!-- Generator: Adobe Illustrator 25.2.1, SVG Export Plug-In . SVG Version: 6.00 Build 0)  -->
<svg version="1.1" id="Layer_1" xmlns="http://www.w3.org/2000/svg" xmlns:xlink="http://www.w3.org/1999/xlink" x="0px" y="0px"
	 viewBox="0 0 300 600" style="enable-background:new 0 0 300 600;" xml:space="preserve">
<style type="text/css">
	.st0{fill:#EAF5FB;}
	.st1{fill:#002554;}
</style>
<rect x="95" y="440.47" class="st0" width="106.57" height="26.77"/>
<g>
	<path class="st1" d="M105.96,459.02v-8.74h2.12v6.9h3.38v1.84H105.96z"/>
	<path class="st1" d="M112.95,459.02v-8.74h5.88v1.79h-3.84v1.64h3.63v1.69h-3.63v1.81h4.06v1.8H112.95z"/>
	<path class="st1" d="M126.86,459.02l-0.68-1.72h-3.38l-0.64,1.72h-2.3l3.67-8.74h2.05l3.63,8.74H126.86z M124.52,452.61l-1.11,3
		h2.2L124.52,452.61z"/>
	<path class="st1" d="M135.11,459.02l-1.89-3.47h-0.72v3.47h-2.07v-8.74h3.33c1.68,0,3.35,0.64,3.35,2.64
		c0,1.17-0.69,2.01-1.81,2.36l2.28,3.74H135.11z M133.62,451.98h-1.12v2.04h1c0.68,0,1.53-0.17,1.53-1.06
		C135.03,452.14,134.25,451.98,133.62,451.98z"/>
	<path class="st1" d="M144.67,459.02l-3.52-5.72h-0.04l0.05,5.72h-2.05v-8.74h2.41l3.51,5.7h0.04l-0.05-5.7h2.05v8.74H144.67z"/>
	<path class="st1" d="M160.87,459.02l0.05-6.18h-0.04l-2.27,6.18h-1.48l-2.21-6.18h-0.04l0.05,6.18h-1.99v-8.74h3l1.99,5.6h0.05
		l1.9-5.6h3.05v8.74H160.87z"/>
	<path class="st1" d="M169.58,459.25c-2.73,0-4.75-1.88-4.75-4.64c0-2.8,2.02-4.57,4.75-4.57c2.74,0,4.77,1.77,4.77,4.57
		C174.35,457.38,172.32,459.25,169.58,459.25z M169.58,451.95c-1.48,0-2.49,1.14-2.49,2.67c0,1.58,1.02,2.72,2.49,2.72
		s2.51-1.14,2.51-2.72C172.09,453.08,171.06,451.95,169.58,451.95z"/>
	<path class="st1" d="M180.92,459.02l-1.89-3.47h-0.72v3.47h-2.07v-8.74h3.33c1.68,0,3.34,0.64,3.34,2.64
		c0,1.17-0.69,2.01-1.81,2.36l2.28,3.74H180.92z M179.43,451.98h-1.12v2.04h1c0.68,0,1.53-0.17,1.53-1.06
		C180.83,452.14,180.06,451.98,179.43,451.98z"/>
	<path class="st1" d="M184.92,459.02v-8.74h5.88v1.79h-3.84v1.64h3.63v1.69h-3.63v1.81h4.06v1.8H184.92z"/>
</g>
</svg>
