<?xml version="1.0" encoding="utf-8"?>
<!-- Generator: Adobe Illustrator 25.2.1, SVG Export Plug-In . SVG Version: 6.00 Build 0)  -->
<svg version="1.1" id="Layer_1" xmlns="http://www.w3.org/2000/svg" xmlns:xlink="http://www.w3.org/1999/xlink" x="0px" y="0px"
	 viewBox="0 0 300 600" style="enable-background:new 0 0 300 600;" xml:space="preserve">
<style type="text/css">
	.st0{fill:#FFFFFF;}
</style>
<g>
	<path class="st0" d="M42.73,480.01l0.24,0.68l-1.14,0.37l0.73,0.98l-0.58,0.43l-0.76-1.02l-0.76,1.02l-0.58-0.43l0.73-0.98
		l-1.14-0.37l0.24-0.68l1.14,0.37v-1.16h0.72v1.16L42.73,480.01z"/>
	<path class="st0" d="M49.55,484.6c-0.25,0.34-0.58,0.62-0.98,0.83s-0.88,0.32-1.45,0.32c-0.49,0-0.93-0.08-1.35-0.25
		c-0.41-0.16-0.77-0.4-1.06-0.69s-0.53-0.65-0.7-1.06c-0.17-0.41-0.25-0.86-0.25-1.35c0-0.5,0.09-0.95,0.26-1.36
		s0.41-0.76,0.71-1.05c0.3-0.29,0.66-0.52,1.08-0.68s0.86-0.24,1.35-0.24c0.22,0,0.44,0.02,0.66,0.06c0.22,0.04,0.44,0.1,0.64,0.19
		c0.2,0.08,0.39,0.19,0.56,0.31s0.31,0.27,0.43,0.43l-0.7,0.54c-0.16-0.22-0.38-0.39-0.66-0.54c-0.29-0.14-0.59-0.21-0.92-0.21
		c-0.37,0-0.71,0.07-1,0.2c-0.3,0.14-0.55,0.32-0.76,0.55c-0.21,0.23-0.37,0.51-0.49,0.81c-0.11,0.31-0.17,0.64-0.17,0.99
		c0,0.36,0.06,0.7,0.17,1.01c0.11,0.31,0.27,0.58,0.48,0.81c0.21,0.23,0.46,0.41,0.76,0.54c0.3,0.13,0.63,0.2,0.99,0.2
		c0.36,0,0.69-0.07,0.98-0.22c0.29-0.14,0.54-0.35,0.73-0.63L49.55,484.6z"/>
	<path class="st0" d="M54.62,483.45c0,0.33-0.06,0.63-0.18,0.91c-0.12,0.28-0.28,0.51-0.49,0.72s-0.45,0.36-0.73,0.47
		c-0.28,0.11-0.58,0.17-0.91,0.17c-0.32,0-0.63-0.06-0.91-0.17c-0.28-0.11-0.52-0.27-0.73-0.47s-0.36-0.44-0.48-0.72
		c-0.12-0.28-0.18-0.58-0.18-0.91s0.06-0.63,0.18-0.91c0.12-0.27,0.28-0.51,0.48-0.71s0.45-0.35,0.73-0.46
		c0.28-0.11,0.58-0.17,0.91-0.17c0.32,0,0.63,0.06,0.91,0.17c0.28,0.11,0.53,0.27,0.73,0.46s0.37,0.43,0.49,0.71
		C54.56,482.82,54.62,483.12,54.62,483.45z M53.74,483.45c0-0.2-0.03-0.4-0.09-0.58c-0.06-0.19-0.15-0.35-0.28-0.49
		s-0.27-0.25-0.45-0.34c-0.18-0.08-0.38-0.13-0.61-0.13c-0.23,0-0.43,0.04-0.61,0.13c-0.18,0.08-0.33,0.2-0.45,0.34
		c-0.12,0.14-0.21,0.3-0.28,0.49s-0.09,0.38-0.09,0.58c0,0.2,0.03,0.4,0.09,0.58c0.06,0.18,0.16,0.35,0.28,0.49
		c0.12,0.14,0.27,0.26,0.45,0.34c0.18,0.08,0.38,0.13,0.61,0.13c0.23,0,0.43-0.04,0.61-0.13c0.18-0.08,0.33-0.2,0.45-0.34
		s0.21-0.31,0.28-0.49C53.71,483.85,53.74,483.66,53.74,483.45z"/>
	<path class="st0" d="M60.11,483.45c0,0.33-0.06,0.63-0.18,0.91c-0.12,0.28-0.28,0.51-0.49,0.72s-0.45,0.36-0.73,0.47
		c-0.28,0.11-0.58,0.17-0.91,0.17c-0.32,0-0.63-0.06-0.91-0.17c-0.28-0.11-0.52-0.27-0.73-0.47s-0.36-0.44-0.48-0.72
		c-0.12-0.28-0.18-0.58-0.18-0.91s0.06-0.63,0.18-0.91c0.12-0.27,0.28-0.51,0.48-0.71s0.45-0.35,0.73-0.46
		c0.28-0.11,0.58-0.17,0.91-0.17c0.32,0,0.63,0.06,0.91,0.17c0.28,0.11,0.53,0.27,0.73,0.46s0.37,0.43,0.49,0.71
		C60.05,482.82,60.11,483.12,60.11,483.45z M59.23,483.45c0-0.2-0.03-0.4-0.09-0.58c-0.06-0.19-0.15-0.35-0.28-0.49
		s-0.27-0.25-0.45-0.34c-0.18-0.08-0.38-0.13-0.61-0.13c-0.23,0-0.43,0.04-0.61,0.13c-0.18,0.08-0.33,0.2-0.45,0.34
		c-0.12,0.14-0.21,0.3-0.28,0.49s-0.09,0.38-0.09,0.58c0,0.2,0.03,0.4,0.09,0.58c0.06,0.18,0.16,0.35,0.28,0.49
		c0.12,0.14,0.27,0.26,0.45,0.34c0.18,0.08,0.38,0.13,0.61,0.13c0.23,0,0.43-0.04,0.61-0.13c0.18-0.08,0.33-0.2,0.45-0.34
		s0.21-0.31,0.28-0.49C59.2,483.85,59.23,483.66,59.23,483.45z"/>
	<path class="st0" d="M62.15,485.59H61.3v-6.8h0.85V485.59z"/>
	<path class="st0" d="M66.84,480.4c-0.13-0.17-0.3-0.32-0.51-0.43c-0.22-0.11-0.46-0.17-0.73-0.17c-0.14,0-0.29,0.02-0.44,0.06
		c-0.15,0.04-0.28,0.1-0.4,0.19s-0.22,0.19-0.29,0.32c-0.07,0.13-0.11,0.28-0.11,0.46c0,0.17,0.03,0.32,0.1,0.44s0.16,0.22,0.28,0.3
		c0.12,0.08,0.25,0.15,0.41,0.21s0.33,0.12,0.51,0.18c0.22,0.07,0.43,0.14,0.66,0.22s0.42,0.2,0.6,0.33
		c0.18,0.14,0.33,0.31,0.44,0.52c0.11,0.21,0.17,0.47,0.17,0.79c0,0.33-0.06,0.62-0.18,0.86c-0.12,0.24-0.29,0.44-0.49,0.6
		s-0.44,0.28-0.71,0.36s-0.54,0.12-0.82,0.12c-0.4,0-0.79-0.08-1.17-0.23c-0.38-0.16-0.69-0.39-0.93-0.69l0.69-0.58
		c0.15,0.22,0.35,0.4,0.6,0.54c0.25,0.14,0.52,0.21,0.82,0.21c0.15,0,0.3-0.02,0.45-0.06s0.29-0.11,0.41-0.2
		c0.12-0.09,0.22-0.2,0.3-0.34c0.08-0.14,0.12-0.3,0.12-0.49c0-0.19-0.04-0.35-0.12-0.48c-0.08-0.13-0.19-0.24-0.33-0.33
		s-0.3-0.17-0.48-0.23c-0.18-0.06-0.38-0.13-0.58-0.19c-0.2-0.06-0.4-0.13-0.6-0.22c-0.2-0.09-0.38-0.2-0.53-0.33
		c-0.16-0.13-0.28-0.3-0.38-0.5c-0.1-0.2-0.14-0.44-0.14-0.74c0-0.32,0.06-0.59,0.19-0.82c0.13-0.23,0.3-0.42,0.5-0.57
		c0.21-0.15,0.44-0.26,0.7-0.33c0.26-0.07,0.52-0.1,0.79-0.1c0.37,0,0.72,0.07,1.04,0.2c0.32,0.13,0.58,0.31,0.78,0.53L66.84,480.4z
		"/>
	<path class="st0" d="M71.73,482.4c-0.09-0.14-0.22-0.25-0.4-0.35s-0.37-0.14-0.58-0.14c-0.22,0-0.42,0.04-0.59,0.13
		s-0.32,0.2-0.44,0.34c-0.12,0.14-0.21,0.3-0.27,0.49c-0.06,0.19-0.09,0.38-0.09,0.58s0.03,0.4,0.09,0.58
		c0.06,0.19,0.15,0.35,0.27,0.49c0.12,0.14,0.27,0.25,0.44,0.34c0.17,0.08,0.37,0.13,0.59,0.13c0.22,0,0.41-0.04,0.59-0.13
		c0.18-0.08,0.32-0.2,0.44-0.34l0.57,0.51c-0.18,0.21-0.4,0.37-0.67,0.49s-0.58,0.18-0.92,0.18c-0.33,0-0.63-0.05-0.91-0.16
		s-0.52-0.26-0.72-0.45c-0.2-0.2-0.36-0.43-0.48-0.71c-0.12-0.28-0.18-0.58-0.18-0.93c0-0.34,0.06-0.64,0.17-0.92
		c0.11-0.28,0.27-0.51,0.48-0.71c0.2-0.2,0.45-0.35,0.72-0.46c0.28-0.11,0.58-0.16,0.9-0.16c0.3,0,0.6,0.06,0.9,0.18
		s0.53,0.29,0.71,0.52L71.73,482.4z"/>
	<path class="st0" d="M76.2,485.59c-0.01-0.11-0.02-0.23-0.03-0.36s-0.01-0.25-0.01-0.34h-0.02c-0.11,0.23-0.29,0.42-0.54,0.58
		c-0.26,0.16-0.54,0.24-0.85,0.24c-0.28,0-0.51-0.04-0.72-0.13c-0.2-0.09-0.37-0.21-0.49-0.37c-0.13-0.16-0.23-0.34-0.29-0.55
		s-0.09-0.43-0.09-0.67v-2.65H74v2.36c0,0.17,0.01,0.34,0.04,0.5s0.08,0.3,0.15,0.42c0.07,0.12,0.17,0.22,0.3,0.29
		s0.29,0.11,0.49,0.11c0.34,0,0.62-0.13,0.83-0.38s0.31-0.6,0.31-1.02v-2.27h0.85v3.35c0,0.11,0,0.26,0.01,0.44
		c0.01,0.18,0.02,0.34,0.03,0.48H76.2z"/>
	<path class="st0" d="M79.29,485.59h-0.85v-6.8h0.85V485.59z"/>
	<path class="st0" d="M81.61,487.75h-0.85v-6.43h0.83v0.67h0.03c0.14-0.23,0.34-0.42,0.61-0.56c0.27-0.15,0.58-0.22,0.93-0.22
		c0.32,0,0.61,0.06,0.87,0.17c0.26,0.11,0.48,0.27,0.67,0.48c0.19,0.2,0.33,0.44,0.44,0.72c0.1,0.27,0.15,0.57,0.15,0.88
		c0,0.31-0.05,0.61-0.15,0.88c-0.1,0.28-0.25,0.52-0.43,0.72c-0.19,0.2-0.41,0.36-0.67,0.48c-0.26,0.12-0.56,0.18-0.89,0.18
		c-0.31,0-0.59-0.07-0.86-0.2c-0.27-0.13-0.48-0.32-0.64-0.56h-0.03V487.75z M84.42,483.45c0-0.2-0.03-0.39-0.09-0.58
		c-0.06-0.19-0.15-0.35-0.27-0.5c-0.12-0.14-0.27-0.26-0.45-0.34c-0.18-0.08-0.38-0.13-0.62-0.13c-0.22,0-0.41,0.04-0.59,0.13
		c-0.18,0.08-0.33,0.2-0.45,0.34c-0.13,0.14-0.22,0.31-0.29,0.5c-0.07,0.19-0.1,0.38-0.1,0.58s0.03,0.4,0.1,0.58
		c0.07,0.19,0.17,0.35,0.29,0.49c0.13,0.14,0.28,0.25,0.45,0.34c0.18,0.08,0.37,0.13,0.59,0.13c0.23,0,0.44-0.04,0.62-0.13
		c0.18-0.09,0.33-0.2,0.45-0.35c0.12-0.14,0.21-0.31,0.27-0.5C84.39,483.84,84.42,483.64,84.42,483.45z"/>
	<path class="st0" d="M88.56,482.02h-1.13v2.22c0,0.26,0.05,0.44,0.14,0.55c0.1,0.11,0.25,0.17,0.46,0.17
		c0.08,0,0.16-0.01,0.25-0.03s0.17-0.04,0.24-0.07l0.03,0.69c-0.1,0.04-0.21,0.06-0.34,0.08c-0.12,0.02-0.25,0.03-0.38,0.03
		c-0.4,0-0.71-0.11-0.92-0.33s-0.32-0.55-0.32-1v-2.31h-0.82v-0.69h0.82v-1.22h0.84v1.22h1.13V482.02z"/>
	<path class="st0" d="M90.42,479.78c0,0.16-0.06,0.29-0.17,0.39c-0.11,0.1-0.24,0.15-0.4,0.15c-0.15,0-0.29-0.05-0.39-0.16
		c-0.11-0.1-0.16-0.23-0.16-0.38c0-0.16,0.05-0.29,0.16-0.39c0.11-0.11,0.24-0.16,0.39-0.16c0.15,0,0.29,0.05,0.4,0.16
		C90.37,479.5,90.42,479.63,90.42,479.78z M90.29,485.59h-0.85v-4.27h0.85V485.59z"/>
	<path class="st0" d="M92.53,481.32c0.01,0.11,0.02,0.23,0.03,0.36s0.01,0.25,0.01,0.34h0.03c0.05-0.11,0.13-0.22,0.22-0.32
		c0.09-0.1,0.2-0.19,0.32-0.26c0.12-0.08,0.25-0.13,0.4-0.18s0.29-0.06,0.45-0.06c0.28,0,0.51,0.05,0.71,0.14
		c0.2,0.09,0.36,0.22,0.5,0.37s0.23,0.34,0.29,0.55s0.09,0.44,0.09,0.67v2.65h-0.85v-2.37c0-0.17-0.01-0.34-0.04-0.5
		c-0.03-0.16-0.08-0.29-0.15-0.41c-0.07-0.12-0.17-0.22-0.3-0.29c-0.13-0.07-0.29-0.11-0.49-0.11c-0.34,0-0.61,0.13-0.82,0.38
		c-0.21,0.25-0.32,0.59-0.32,1.02v2.27h-0.85v-3.35c0-0.11,0-0.26-0.01-0.44c-0.01-0.18-0.02-0.34-0.03-0.48H92.53z"/>
	<path class="st0" d="M97.34,486.32c0.19,0.21,0.42,0.38,0.7,0.5c0.28,0.13,0.57,0.19,0.86,0.19c0.28,0,0.52-0.04,0.71-0.12
		c0.19-0.08,0.35-0.19,0.46-0.33c0.12-0.14,0.2-0.31,0.25-0.5c0.05-0.19,0.08-0.4,0.08-0.62v-0.55h-0.02
		c-0.16,0.24-0.37,0.42-0.64,0.55s-0.56,0.19-0.86,0.19c-0.32,0-0.62-0.06-0.89-0.17s-0.49-0.27-0.68-0.47
		c-0.19-0.2-0.33-0.43-0.43-0.7c-0.1-0.27-0.15-0.55-0.15-0.86c0-0.31,0.05-0.59,0.15-0.86c0.1-0.27,0.25-0.5,0.43-0.71
		c0.19-0.2,0.41-0.36,0.67-0.48c0.26-0.12,0.56-0.18,0.88-0.18c0.31,0,0.6,0.07,0.88,0.2c0.28,0.13,0.5,0.33,0.66,0.6h0.02v-0.68
		h0.82v4.05c0,0.31-0.04,0.61-0.12,0.9c-0.08,0.29-0.21,0.54-0.4,0.76s-0.43,0.39-0.73,0.53c-0.3,0.13-0.67,0.2-1.12,0.2
		c-0.37,0-0.75-0.07-1.12-0.2c-0.38-0.13-0.7-0.33-0.97-0.57L97.34,486.32z M97.59,483.41c0,0.2,0.03,0.39,0.09,0.57
		c0.06,0.18,0.16,0.34,0.28,0.48s0.27,0.25,0.45,0.33c0.17,0.08,0.37,0.13,0.6,0.13c0.22,0,0.42-0.04,0.6-0.12
		c0.18-0.08,0.33-0.18,0.46-0.32s0.22-0.29,0.29-0.48c0.07-0.18,0.1-0.38,0.1-0.59c0-0.2-0.03-0.4-0.1-0.58s-0.17-0.34-0.3-0.48
		c-0.13-0.14-0.28-0.25-0.46-0.33s-0.37-0.12-0.59-0.12c-0.22,0-0.42,0.04-0.6,0.12c-0.17,0.08-0.32,0.19-0.45,0.32
		s-0.22,0.29-0.28,0.48C97.62,483.01,97.59,483.21,97.59,483.41z"/>
	<path class="st0" d="M102.61,481.15c0-0.28,0.05-0.55,0.16-0.8s0.25-0.46,0.44-0.65c0.19-0.18,0.4-0.33,0.65-0.44
		c0.25-0.11,0.51-0.16,0.8-0.16c0.28,0,0.55,0.05,0.8,0.16c0.25,0.11,0.47,0.25,0.65,0.44c0.19,0.18,0.33,0.4,0.44,0.65
		c0.11,0.25,0.16,0.51,0.16,0.8c0,0.28-0.05,0.55-0.16,0.79c-0.11,0.25-0.25,0.46-0.44,0.64c-0.19,0.18-0.4,0.33-0.65,0.43
		c-0.25,0.1-0.51,0.16-0.8,0.16c-0.28,0-0.55-0.05-0.8-0.16c-0.25-0.11-0.47-0.25-0.65-0.43c-0.19-0.18-0.33-0.4-0.44-0.64
		S102.61,481.43,102.61,481.15z M102.93,481.15c0,0.23,0.04,0.46,0.13,0.67c0.09,0.21,0.21,0.4,0.37,0.55
		c0.16,0.16,0.34,0.28,0.55,0.37s0.44,0.13,0.68,0.13c0.24,0,0.46-0.04,0.67-0.13s0.39-0.21,0.55-0.37
		c0.16-0.16,0.28-0.34,0.37-0.55c0.09-0.21,0.14-0.43,0.14-0.67c0-0.24-0.05-0.47-0.14-0.68s-0.21-0.39-0.37-0.55
		c-0.16-0.16-0.34-0.28-0.55-0.37s-0.44-0.13-0.67-0.13c-0.24,0-0.47,0.04-0.68,0.13s-0.39,0.21-0.55,0.37
		c-0.16,0.16-0.28,0.34-0.37,0.55S102.93,480.91,102.93,481.15z M105.16,482.28l-0.49-0.89h-0.32v0.89h-0.55v-2.3h0.99
		c0.11,0,0.21,0.01,0.31,0.04c0.1,0.02,0.2,0.06,0.28,0.12s0.15,0.13,0.2,0.22c0.05,0.09,0.08,0.21,0.08,0.35
		c0,0.16-0.04,0.29-0.13,0.39c-0.09,0.1-0.2,0.18-0.33,0.22l0.61,0.97H105.16z M104.76,480.99c0.08,0,0.16-0.03,0.23-0.08
		c0.07-0.05,0.1-0.13,0.1-0.22c0-0.1-0.04-0.16-0.12-0.21c-0.08-0.04-0.15-0.06-0.22-0.06h-0.42v0.57H104.76z"/>
	<path class="st0" d="M111.33,479.78c0,0.16-0.06,0.29-0.17,0.39c-0.11,0.1-0.24,0.15-0.4,0.15c-0.15,0-0.29-0.05-0.39-0.16
		c-0.11-0.1-0.16-0.23-0.16-0.38c0-0.16,0.05-0.29,0.16-0.39c0.11-0.11,0.24-0.16,0.39-0.16c0.15,0,0.29,0.05,0.4,0.16
		C111.28,479.5,111.33,479.63,111.33,479.78z M111.2,485.59h-0.85v-4.27h0.85V485.59z"/>
	<path class="st0" d="M114.98,482.4c-0.1-0.16-0.23-0.28-0.41-0.38c-0.17-0.1-0.37-0.15-0.58-0.15c-0.1,0-0.19,0.01-0.29,0.03
		c-0.1,0.02-0.18,0.05-0.26,0.1c-0.08,0.05-0.14,0.1-0.18,0.17c-0.04,0.07-0.07,0.15-0.07,0.26c0,0.18,0.08,0.31,0.24,0.4
		c0.16,0.09,0.4,0.17,0.73,0.24c0.2,0.05,0.39,0.1,0.57,0.17c0.17,0.07,0.33,0.15,0.45,0.25c0.13,0.1,0.23,0.22,0.3,0.36
		c0.07,0.14,0.11,0.3,0.11,0.49c0,0.25-0.05,0.46-0.14,0.64c-0.1,0.17-0.22,0.32-0.38,0.43s-0.34,0.19-0.54,0.24
		s-0.41,0.07-0.63,0.07c-0.32,0-0.64-0.06-0.95-0.19s-0.57-0.32-0.77-0.58l0.6-0.51c0.11,0.17,0.27,0.31,0.47,0.42
		c0.2,0.11,0.42,0.17,0.66,0.17c0.11,0,0.21-0.01,0.31-0.03c0.1-0.02,0.19-0.06,0.27-0.1c0.08-0.05,0.15-0.11,0.19-0.19
		c0.05-0.08,0.07-0.18,0.07-0.3c0-0.2-0.09-0.34-0.28-0.44s-0.47-0.19-0.83-0.27c-0.14-0.04-0.29-0.08-0.44-0.13
		c-0.15-0.05-0.28-0.12-0.4-0.21c-0.12-0.09-0.22-0.2-0.29-0.34c-0.07-0.14-0.11-0.3-0.11-0.5c0-0.23,0.05-0.42,0.14-0.59
		c0.09-0.16,0.21-0.3,0.36-0.4c0.15-0.11,0.32-0.18,0.51-0.23c0.19-0.05,0.39-0.08,0.59-0.08c0.31,0,0.6,0.06,0.89,0.18
		c0.28,0.12,0.51,0.29,0.66,0.52L114.98,482.4z"/>
	<path class="st0" d="M121.01,482.02h-1.13v2.22c0,0.26,0.05,0.44,0.14,0.55c0.1,0.11,0.25,0.17,0.46,0.17
		c0.08,0,0.16-0.01,0.25-0.03s0.17-0.04,0.24-0.07l0.03,0.69c-0.1,0.04-0.21,0.06-0.34,0.08c-0.12,0.02-0.25,0.03-0.38,0.03
		c-0.4,0-0.71-0.11-0.92-0.33s-0.32-0.55-0.32-1v-2.31h-0.82v-0.69h0.82v-1.22h0.84v1.22h1.13V482.02z"/>
	<path class="st0" d="M122.76,481.97c0.1-0.21,0.28-0.39,0.52-0.54c0.25-0.15,0.52-0.22,0.83-0.22c0.28,0,0.51,0.05,0.71,0.14
		c0.2,0.09,0.36,0.22,0.5,0.37s0.23,0.34,0.29,0.55s0.09,0.44,0.09,0.67v2.65h-0.85v-2.36c0-0.17-0.01-0.34-0.04-0.5
		s-0.08-0.29-0.15-0.42c-0.07-0.12-0.17-0.22-0.29-0.29s-0.28-0.11-0.48-0.11c-0.34,0-0.61,0.13-0.83,0.38
		c-0.22,0.25-0.32,0.6-0.32,1.02v2.26h-0.85v-6.8h0.85v3.19H122.76z"/>
	<path class="st0" d="M131.12,483.42c0,0.05,0,0.1,0,0.14c0,0.05,0,0.1-0.01,0.14h-3.39c0.01,0.18,0.05,0.35,0.12,0.5
		c0.07,0.16,0.18,0.29,0.3,0.41s0.27,0.21,0.44,0.27s0.34,0.1,0.53,0.1c0.29,0,0.54-0.06,0.75-0.19s0.38-0.28,0.5-0.46l0.59,0.48
		c-0.23,0.3-0.5,0.52-0.81,0.67c-0.31,0.14-0.65,0.21-1.03,0.21c-0.32,0-0.62-0.05-0.9-0.16s-0.51-0.26-0.71-0.45
		c-0.2-0.2-0.35-0.43-0.47-0.71c-0.11-0.28-0.17-0.58-0.17-0.92c0-0.33,0.06-0.63,0.17-0.91c0.11-0.28,0.27-0.52,0.46-0.72
		c0.2-0.2,0.43-0.35,0.7-0.46c0.27-0.11,0.56-0.17,0.88-0.17c0.31,0,0.6,0.05,0.85,0.15c0.26,0.1,0.47,0.25,0.65,0.44
		c0.18,0.19,0.31,0.42,0.41,0.7C131.07,482.77,131.12,483.08,131.12,483.42z M130.26,483.08c-0.01-0.17-0.03-0.33-0.09-0.47
		c-0.05-0.15-0.13-0.27-0.23-0.38c-0.1-0.11-0.22-0.19-0.37-0.26c-0.15-0.06-0.32-0.09-0.52-0.09c-0.18,0-0.35,0.03-0.51,0.09
		c-0.16,0.06-0.3,0.15-0.41,0.26c-0.12,0.11-0.21,0.24-0.29,0.38c-0.07,0.15-0.12,0.3-0.13,0.47H130.26z"/>
	<path class="st0" d="M136.63,482.02h-1.13v2.22c0,0.26,0.05,0.44,0.14,0.55c0.1,0.11,0.25,0.17,0.46,0.17
		c0.08,0,0.16-0.01,0.25-0.03s0.17-0.04,0.24-0.07l0.03,0.69c-0.1,0.04-0.21,0.06-0.34,0.08c-0.12,0.02-0.25,0.03-0.38,0.03
		c-0.4,0-0.71-0.11-0.92-0.33s-0.32-0.55-0.32-1v-2.31h-0.82v-0.69h0.82v-1.22h0.84v1.22h1.13V482.02z"/>
	<path class="st0" d="M137.49,481.8c-0.01-0.18-0.02-0.34-0.03-0.48h0.8c0.01,0.11,0.02,0.23,0.03,0.37
		c0.01,0.14,0.01,0.26,0.01,0.35h0.03c0.12-0.25,0.3-0.46,0.53-0.61c0.23-0.15,0.49-0.23,0.78-0.23c0.13,0,0.24,0.01,0.33,0.04
		l-0.04,0.78c-0.12-0.03-0.25-0.04-0.39-0.04c-0.2,0-0.38,0.04-0.53,0.11c-0.15,0.07-0.27,0.17-0.37,0.3
		c-0.1,0.13-0.17,0.27-0.22,0.44s-0.07,0.34-0.07,0.52v2.24h-0.85v-3.35C137.5,482.13,137.5,481.98,137.49,481.8z"/>
	<path class="st0" d="M144.59,483.42c0,0.05,0,0.1,0,0.14c0,0.05,0,0.1-0.01,0.14h-3.39c0.01,0.18,0.05,0.35,0.12,0.5
		c0.07,0.16,0.18,0.29,0.3,0.41s0.27,0.21,0.44,0.27s0.34,0.1,0.53,0.1c0.29,0,0.54-0.06,0.75-0.19s0.38-0.28,0.5-0.46l0.59,0.48
		c-0.23,0.3-0.5,0.52-0.81,0.67c-0.31,0.14-0.65,0.21-1.03,0.21c-0.32,0-0.62-0.05-0.9-0.16s-0.51-0.26-0.71-0.45
		c-0.2-0.2-0.35-0.43-0.47-0.71c-0.11-0.28-0.17-0.58-0.17-0.92c0-0.33,0.06-0.63,0.17-0.91c0.11-0.28,0.27-0.52,0.46-0.72
		c0.2-0.2,0.43-0.35,0.7-0.46c0.27-0.11,0.56-0.17,0.88-0.17c0.31,0,0.6,0.05,0.85,0.15c0.26,0.1,0.47,0.25,0.65,0.44
		c0.18,0.19,0.31,0.42,0.41,0.7C144.54,482.77,144.59,483.08,144.59,483.42z M143.72,483.08c-0.01-0.17-0.03-0.33-0.09-0.47
		c-0.05-0.15-0.13-0.27-0.23-0.38c-0.1-0.11-0.22-0.19-0.37-0.26c-0.15-0.06-0.32-0.09-0.52-0.09c-0.18,0-0.35,0.03-0.51,0.09
		c-0.16,0.06-0.3,0.15-0.41,0.26c-0.12,0.11-0.21,0.24-0.29,0.38c-0.07,0.15-0.12,0.3-0.13,0.47H143.72z"/>
	<path class="st0" d="M148.36,482.83c0-0.32-0.1-0.55-0.29-0.71c-0.19-0.15-0.45-0.23-0.77-0.23c-0.24,0-0.47,0.05-0.68,0.14
		s-0.39,0.21-0.54,0.36l-0.45-0.54c0.21-0.2,0.47-0.35,0.77-0.47c0.3-0.11,0.63-0.17,0.98-0.17c0.31,0,0.57,0.04,0.8,0.13
		c0.23,0.09,0.41,0.21,0.55,0.36c0.14,0.15,0.25,0.33,0.32,0.53c0.07,0.2,0.11,0.42,0.11,0.66v1.86c0,0.14,0,0.29,0.01,0.45
		s0.03,0.29,0.05,0.39h-0.76c-0.05-0.2-0.07-0.41-0.07-0.61h-0.03c-0.16,0.23-0.35,0.41-0.59,0.53c-0.24,0.13-0.52,0.19-0.84,0.19
		c-0.17,0-0.34-0.02-0.53-0.07c-0.18-0.04-0.35-0.12-0.5-0.22c-0.15-0.1-0.27-0.24-0.37-0.41s-0.15-0.38-0.15-0.62
		c0-0.32,0.09-0.58,0.26-0.77c0.17-0.19,0.4-0.33,0.68-0.43c0.28-0.1,0.6-0.16,0.95-0.19c0.35-0.03,0.71-0.05,1.07-0.05V482.83z
		 M148.15,483.55c-0.21,0-0.43,0.01-0.65,0.03c-0.23,0.02-0.43,0.05-0.61,0.11c-0.18,0.05-0.33,0.14-0.45,0.24
		c-0.12,0.11-0.18,0.25-0.18,0.43c0,0.13,0.03,0.23,0.08,0.31c0.05,0.08,0.12,0.15,0.2,0.21s0.18,0.09,0.28,0.11
		c0.1,0.02,0.21,0.03,0.31,0.03c0.4,0,0.7-0.12,0.91-0.36c0.21-0.24,0.32-0.54,0.32-0.9v-0.23H148.15z"/>
	<path class="st0" d="M152.58,482.02h-1.13v2.22c0,0.26,0.05,0.44,0.14,0.55c0.1,0.11,0.25,0.17,0.46,0.17
		c0.08,0,0.16-0.01,0.25-0.03s0.17-0.04,0.24-0.07l0.03,0.69c-0.1,0.04-0.21,0.06-0.34,0.08c-0.12,0.02-0.25,0.03-0.38,0.03
		c-0.4,0-0.71-0.11-0.92-0.33s-0.32-0.55-0.32-1v-2.31h-0.82v-0.69h0.82v-1.22h0.84v1.22h1.13V482.02z"/>
	<path class="st0" d="M154.8,481.44c0.24-0.16,0.52-0.24,0.84-0.24c0.29,0,0.55,0.07,0.78,0.2c0.23,0.13,0.41,0.35,0.54,0.66
		c0.14-0.28,0.34-0.49,0.6-0.63c0.26-0.15,0.54-0.22,0.85-0.22c0.28,0,0.51,0.05,0.71,0.14c0.2,0.09,0.36,0.22,0.49,0.37
		c0.13,0.16,0.23,0.34,0.29,0.55c0.06,0.21,0.09,0.44,0.09,0.67v2.65h-0.85v-2.37c0-0.17-0.01-0.34-0.04-0.5
		c-0.03-0.16-0.08-0.29-0.15-0.41c-0.07-0.12-0.17-0.22-0.29-0.29c-0.12-0.07-0.27-0.11-0.46-0.11c-0.19,0-0.36,0.04-0.5,0.12
		c-0.14,0.08-0.25,0.19-0.34,0.32s-0.15,0.27-0.19,0.44s-0.06,0.33-0.06,0.5v2.3h-0.85v-2.54c0-0.17-0.02-0.32-0.05-0.46
		c-0.03-0.14-0.08-0.26-0.15-0.36s-0.17-0.18-0.28-0.23c-0.11-0.06-0.25-0.08-0.42-0.08c-0.31,0-0.57,0.13-0.78,0.38
		c-0.21,0.25-0.31,0.59-0.31,1.02v2.27h-0.85v-3.35c0-0.11,0-0.26-0.01-0.44s-0.01-0.34-0.03-0.48h0.8
		c0.01,0.11,0.02,0.23,0.03,0.36c0.01,0.13,0.01,0.25,0.01,0.34h0.03C154.39,481.8,154.56,481.6,154.8,481.44z"/>
	<path class="st0" d="M165.42,483.42c0,0.05,0,0.1,0,0.14c0,0.05,0,0.1-0.01,0.14h-3.39c0.01,0.18,0.05,0.35,0.12,0.5
		s0.18,0.29,0.3,0.41s0.27,0.21,0.44,0.27s0.34,0.1,0.53,0.1c0.29,0,0.54-0.06,0.75-0.19s0.38-0.28,0.5-0.46l0.59,0.48
		c-0.23,0.3-0.5,0.52-0.81,0.67c-0.31,0.14-0.65,0.21-1.03,0.21c-0.32,0-0.62-0.05-0.9-0.16c-0.28-0.11-0.51-0.26-0.71-0.45
		c-0.2-0.2-0.35-0.43-0.47-0.71c-0.11-0.28-0.17-0.58-0.17-0.92c0-0.33,0.06-0.63,0.17-0.91c0.11-0.28,0.27-0.52,0.46-0.72
		s0.43-0.35,0.7-0.46c0.27-0.11,0.56-0.17,0.87-0.17c0.31,0,0.6,0.05,0.85,0.15c0.26,0.1,0.47,0.25,0.65,0.44
		c0.18,0.19,0.31,0.42,0.41,0.7C165.37,482.77,165.42,483.08,165.42,483.42z M164.56,483.08c-0.01-0.17-0.03-0.33-0.08-0.47
		s-0.13-0.27-0.23-0.38c-0.1-0.11-0.22-0.19-0.37-0.26c-0.15-0.06-0.32-0.09-0.52-0.09c-0.18,0-0.35,0.03-0.51,0.09
		c-0.16,0.06-0.3,0.15-0.41,0.26c-0.12,0.11-0.21,0.24-0.29,0.38s-0.12,0.3-0.13,0.47H164.56z"/>
	<path class="st0" d="M167.36,481.32c0.01,0.11,0.02,0.23,0.03,0.36c0.01,0.13,0.01,0.25,0.01,0.34h0.03
		c0.05-0.11,0.13-0.22,0.22-0.32c0.09-0.1,0.2-0.19,0.32-0.26s0.25-0.13,0.4-0.18c0.14-0.04,0.29-0.06,0.45-0.06
		c0.28,0,0.51,0.05,0.71,0.14c0.2,0.09,0.36,0.22,0.5,0.37c0.13,0.16,0.23,0.34,0.29,0.55c0.06,0.21,0.09,0.44,0.09,0.67v2.65h-0.85
		v-2.37c0-0.17-0.01-0.34-0.04-0.5c-0.03-0.16-0.08-0.29-0.15-0.41c-0.07-0.12-0.17-0.22-0.3-0.29c-0.13-0.07-0.29-0.11-0.49-0.11
		c-0.34,0-0.61,0.13-0.82,0.38c-0.21,0.25-0.32,0.59-0.32,1.02v2.27h-0.85v-3.35c0-0.11,0-0.26-0.01-0.44s-0.01-0.34-0.03-0.48
		H167.36z"/>
	<path class="st0" d="M173.92,482.02h-1.13v2.22c0,0.26,0.05,0.44,0.14,0.55c0.1,0.11,0.25,0.17,0.46,0.17
		c0.08,0,0.16-0.01,0.25-0.03s0.17-0.04,0.24-0.07l0.03,0.69c-0.1,0.04-0.21,0.06-0.34,0.08c-0.12,0.02-0.25,0.03-0.38,0.03
		c-0.4,0-0.71-0.11-0.92-0.33s-0.32-0.55-0.32-1v-2.31h-0.82v-0.69h0.82v-1.22h0.84v1.22h1.13V482.02z"/>
	<path class="st0" d="M180.44,484.91c-0.16,0.26-0.38,0.45-0.66,0.59c-0.28,0.14-0.57,0.2-0.88,0.2c-0.33,0-0.63-0.06-0.89-0.18
		c-0.26-0.12-0.49-0.28-0.67-0.48c-0.19-0.2-0.33-0.44-0.43-0.72c-0.1-0.28-0.15-0.57-0.15-0.88c0-0.31,0.05-0.6,0.15-0.88
		c0.1-0.27,0.25-0.51,0.44-0.72c0.19-0.2,0.42-0.36,0.68-0.48s0.55-0.17,0.87-0.17c0.35,0,0.65,0.07,0.91,0.22
		c0.26,0.15,0.46,0.33,0.61,0.54h0.02v-3.18h0.85v6.8h-0.82v-0.67H180.44z M177.63,483.45c0,0.2,0.03,0.39,0.09,0.57
		c0.06,0.19,0.15,0.35,0.27,0.49s0.27,0.26,0.44,0.35c0.17,0.09,0.38,0.13,0.61,0.13c0.22,0,0.41-0.04,0.59-0.13s0.33-0.2,0.46-0.34
		s0.22-0.3,0.29-0.49c0.07-0.19,0.1-0.38,0.1-0.58c0-0.2-0.03-0.4-0.1-0.58c-0.07-0.19-0.17-0.35-0.29-0.49s-0.28-0.26-0.46-0.34
		c-0.18-0.08-0.37-0.13-0.59-0.13c-0.23,0-0.44,0.04-0.61,0.13c-0.17,0.08-0.32,0.2-0.44,0.34s-0.21,0.31-0.27,0.49
		C177.66,483.06,177.63,483.25,177.63,483.45z"/>
	<path class="st0" d="M187.08,483.45c0,0.33-0.06,0.63-0.18,0.91c-0.12,0.28-0.28,0.51-0.49,0.72s-0.45,0.36-0.73,0.47
		c-0.28,0.11-0.58,0.17-0.91,0.17s-0.63-0.06-0.91-0.17c-0.28-0.11-0.53-0.27-0.73-0.47c-0.2-0.2-0.37-0.44-0.48-0.72
		c-0.12-0.28-0.18-0.58-0.18-0.91s0.06-0.63,0.18-0.91c0.12-0.27,0.28-0.51,0.48-0.71c0.2-0.2,0.45-0.35,0.73-0.46
		c0.28-0.11,0.58-0.17,0.91-0.17s0.63,0.06,0.91,0.17c0.28,0.11,0.53,0.27,0.73,0.46s0.37,0.43,0.49,0.71
		C187.02,482.82,187.08,483.12,187.08,483.45z M186.19,483.45c0-0.2-0.03-0.4-0.09-0.58s-0.16-0.35-0.28-0.49s-0.27-0.25-0.45-0.34
		c-0.18-0.08-0.38-0.13-0.61-0.13s-0.43,0.04-0.61,0.13c-0.18,0.08-0.33,0.2-0.45,0.34c-0.12,0.14-0.21,0.3-0.28,0.49
		c-0.06,0.19-0.09,0.38-0.09,0.58c0,0.2,0.03,0.4,0.09,0.58c0.06,0.18,0.15,0.35,0.28,0.49c0.12,0.14,0.27,0.26,0.45,0.34
		s0.38,0.13,0.61,0.13s0.43-0.04,0.61-0.13s0.33-0.2,0.45-0.34s0.21-0.31,0.28-0.49C186.16,483.85,186.19,483.66,186.19,483.45z"/>
	<path class="st0" d="M191.23,482.4c-0.09-0.14-0.22-0.25-0.41-0.35c-0.18-0.09-0.37-0.14-0.58-0.14c-0.22,0-0.42,0.04-0.59,0.13
		s-0.32,0.2-0.44,0.34c-0.12,0.14-0.21,0.3-0.27,0.49c-0.06,0.19-0.09,0.38-0.09,0.58s0.03,0.4,0.09,0.58
		c0.06,0.19,0.15,0.35,0.27,0.49c0.12,0.14,0.27,0.25,0.44,0.34c0.17,0.08,0.37,0.13,0.59,0.13c0.22,0,0.41-0.04,0.59-0.13
		c0.18-0.08,0.32-0.2,0.44-0.34l0.57,0.51c-0.18,0.21-0.41,0.37-0.67,0.49c-0.27,0.12-0.58,0.18-0.92,0.18
		c-0.33,0-0.63-0.05-0.91-0.16c-0.28-0.11-0.52-0.26-0.72-0.45c-0.2-0.2-0.37-0.43-0.48-0.71c-0.12-0.28-0.18-0.58-0.18-0.93
		c0-0.34,0.06-0.64,0.17-0.92c0.11-0.28,0.27-0.51,0.48-0.71c0.2-0.2,0.45-0.35,0.72-0.46c0.28-0.11,0.58-0.16,0.9-0.16
		c0.3,0,0.6,0.06,0.9,0.18c0.3,0.12,0.53,0.29,0.71,0.52L191.23,482.4z"/>
	<path class="st0" d="M194.78,482.02h-1.13v2.22c0,0.26,0.05,0.44,0.14,0.55c0.1,0.11,0.25,0.17,0.46,0.17
		c0.08,0,0.16-0.01,0.25-0.03s0.17-0.04,0.24-0.07l0.03,0.69c-0.1,0.04-0.21,0.06-0.34,0.08c-0.12,0.02-0.25,0.03-0.38,0.03
		c-0.4,0-0.71-0.11-0.92-0.33s-0.32-0.55-0.32-1v-2.31h-0.82v-0.69h0.82v-1.22h0.84v1.22h1.13V482.02z"/>
	<path class="st0" d="M199.97,483.45c0,0.33-0.06,0.63-0.18,0.91c-0.12,0.28-0.28,0.51-0.49,0.72s-0.45,0.36-0.73,0.47
		c-0.28,0.11-0.58,0.17-0.91,0.17s-0.63-0.06-0.91-0.17c-0.28-0.11-0.53-0.27-0.73-0.47c-0.2-0.2-0.37-0.44-0.48-0.72
		c-0.12-0.28-0.18-0.58-0.18-0.91s0.06-0.63,0.18-0.91c0.12-0.27,0.28-0.51,0.48-0.71c0.2-0.2,0.45-0.35,0.73-0.46
		c0.28-0.11,0.58-0.17,0.91-0.17s0.63,0.06,0.91,0.17c0.28,0.11,0.53,0.27,0.73,0.46s0.37,0.43,0.49,0.71
		C199.91,482.82,199.97,483.12,199.97,483.45z M199.09,483.45c0-0.2-0.03-0.4-0.09-0.58s-0.16-0.35-0.28-0.49s-0.27-0.25-0.45-0.34
		c-0.18-0.08-0.38-0.13-0.61-0.13s-0.43,0.04-0.61,0.13c-0.18,0.08-0.33,0.2-0.45,0.34c-0.12,0.14-0.21,0.3-0.28,0.49
		c-0.06,0.19-0.09,0.38-0.09,0.58c0,0.2,0.03,0.4,0.09,0.58c0.06,0.18,0.15,0.35,0.28,0.49c0.12,0.14,0.27,0.26,0.45,0.34
		s0.38,0.13,0.61,0.13s0.43-0.04,0.61-0.13s0.33-0.2,0.45-0.34s0.21-0.31,0.28-0.49C199.06,483.85,199.09,483.66,199.09,483.45z"/>
	<path class="st0" d="M201.13,481.8c-0.01-0.18-0.01-0.34-0.03-0.48h0.8c0.01,0.11,0.02,0.23,0.03,0.37
		c0.01,0.14,0.01,0.26,0.01,0.35h0.03c0.12-0.25,0.3-0.46,0.53-0.61c0.23-0.15,0.49-0.23,0.78-0.23c0.13,0,0.24,0.01,0.33,0.04
		l-0.04,0.78c-0.12-0.03-0.25-0.04-0.39-0.04c-0.2,0-0.38,0.04-0.53,0.11c-0.15,0.07-0.27,0.17-0.37,0.3
		c-0.1,0.13-0.17,0.27-0.22,0.44c-0.05,0.17-0.07,0.34-0.07,0.52v2.24h-0.85v-3.35C201.14,482.13,201.14,481.98,201.13,481.8z"/>
	<path class="st0" d="M206.71,482.4c-0.1-0.16-0.23-0.28-0.41-0.38c-0.17-0.1-0.37-0.15-0.58-0.15c-0.1,0-0.19,0.01-0.29,0.03
		c-0.1,0.02-0.18,0.05-0.26,0.1c-0.07,0.05-0.13,0.1-0.18,0.17c-0.04,0.07-0.07,0.15-0.07,0.26c0,0.18,0.08,0.31,0.24,0.4
		s0.41,0.17,0.73,0.24c0.2,0.05,0.39,0.1,0.57,0.17c0.17,0.07,0.33,0.15,0.45,0.25s0.23,0.22,0.3,0.36c0.07,0.14,0.11,0.3,0.11,0.49
		c0,0.25-0.05,0.46-0.14,0.64s-0.22,0.32-0.38,0.43c-0.16,0.11-0.34,0.19-0.54,0.24s-0.41,0.07-0.63,0.07
		c-0.32,0-0.64-0.06-0.95-0.19c-0.31-0.13-0.57-0.32-0.77-0.58l0.6-0.51c0.11,0.17,0.27,0.31,0.47,0.42
		c0.2,0.11,0.42,0.17,0.66,0.17c0.11,0,0.21-0.01,0.31-0.03c0.1-0.02,0.19-0.06,0.27-0.1s0.15-0.11,0.19-0.19s0.07-0.18,0.07-0.3
		c0-0.2-0.09-0.34-0.28-0.44c-0.19-0.1-0.47-0.19-0.83-0.27c-0.14-0.04-0.29-0.08-0.44-0.13c-0.15-0.05-0.28-0.12-0.4-0.21
		s-0.22-0.2-0.29-0.34c-0.08-0.14-0.11-0.3-0.11-0.5c0-0.23,0.05-0.42,0.14-0.59c0.09-0.16,0.21-0.3,0.36-0.4
		c0.15-0.11,0.32-0.18,0.51-0.23c0.19-0.05,0.39-0.08,0.59-0.08c0.31,0,0.6,0.06,0.89,0.18c0.29,0.12,0.51,0.29,0.66,0.52
		L206.71,482.4z"/>
	<path class="st0" d="M213.65,485.59c-0.01-0.11-0.02-0.23-0.03-0.36s-0.01-0.25-0.01-0.34h-0.02c-0.11,0.23-0.29,0.42-0.54,0.58
		c-0.25,0.16-0.54,0.24-0.85,0.24c-0.28,0-0.51-0.04-0.72-0.13c-0.2-0.09-0.37-0.21-0.5-0.37s-0.22-0.34-0.29-0.55
		c-0.06-0.21-0.09-0.43-0.09-0.67v-2.65h0.85v2.36c0,0.17,0.01,0.34,0.04,0.5c0.03,0.16,0.08,0.3,0.15,0.42
		c0.07,0.12,0.17,0.22,0.3,0.29s0.29,0.11,0.49,0.11c0.34,0,0.62-0.13,0.83-0.38s0.32-0.6,0.32-1.02v-2.27h0.85v3.35
		c0,0.11,0,0.26,0.01,0.44c0.01,0.18,0.01,0.34,0.03,0.48H213.65z"/>
	<path class="st0" d="M218.19,482.4c-0.1-0.16-0.23-0.28-0.41-0.38c-0.17-0.1-0.37-0.15-0.58-0.15c-0.1,0-0.19,0.01-0.29,0.03
		c-0.1,0.02-0.18,0.05-0.26,0.1c-0.07,0.05-0.13,0.1-0.18,0.17c-0.04,0.07-0.07,0.15-0.07,0.26c0,0.18,0.08,0.31,0.24,0.4
		s0.41,0.17,0.73,0.24c0.2,0.05,0.39,0.1,0.57,0.17c0.17,0.07,0.33,0.15,0.45,0.25s0.23,0.22,0.3,0.36c0.07,0.14,0.11,0.3,0.11,0.49
		c0,0.25-0.05,0.46-0.14,0.64s-0.22,0.32-0.38,0.43c-0.16,0.11-0.34,0.19-0.54,0.24s-0.41,0.07-0.63,0.07
		c-0.32,0-0.64-0.06-0.95-0.19c-0.31-0.13-0.57-0.32-0.77-0.58l0.6-0.51c0.11,0.17,0.27,0.31,0.47,0.42
		c0.2,0.11,0.42,0.17,0.66,0.17c0.11,0,0.21-0.01,0.31-0.03c0.1-0.02,0.19-0.06,0.27-0.1s0.15-0.11,0.19-0.19s0.07-0.18,0.07-0.3
		c0-0.2-0.09-0.34-0.28-0.44c-0.19-0.1-0.47-0.19-0.83-0.27c-0.14-0.04-0.29-0.08-0.44-0.13c-0.15-0.05-0.28-0.12-0.4-0.21
		s-0.22-0.2-0.29-0.34c-0.08-0.14-0.11-0.3-0.11-0.5c0-0.23,0.05-0.42,0.14-0.59c0.09-0.16,0.21-0.3,0.36-0.4
		c0.15-0.11,0.32-0.18,0.51-0.23c0.19-0.05,0.39-0.08,0.59-0.08c0.31,0,0.6,0.06,0.89,0.18c0.29,0.12,0.51,0.29,0.66,0.52
		L218.19,482.4z"/>
	<path class="st0" d="M223.87,483.42c0,0.05,0,0.1,0,0.14c0,0.05,0,0.1-0.01,0.14h-3.39c0.01,0.18,0.05,0.35,0.12,0.5
		s0.18,0.29,0.3,0.41s0.27,0.21,0.44,0.27s0.34,0.1,0.53,0.1c0.29,0,0.54-0.06,0.75-0.19s0.38-0.28,0.5-0.46l0.59,0.48
		c-0.23,0.3-0.5,0.52-0.81,0.67c-0.31,0.14-0.65,0.21-1.03,0.21c-0.32,0-0.62-0.05-0.9-0.16c-0.28-0.11-0.51-0.26-0.71-0.45
		c-0.2-0.2-0.35-0.43-0.47-0.71c-0.11-0.28-0.17-0.58-0.17-0.92c0-0.33,0.06-0.63,0.17-0.91c0.11-0.28,0.27-0.52,0.46-0.72
		s0.43-0.35,0.7-0.46c0.27-0.11,0.56-0.17,0.87-0.17c0.31,0,0.6,0.05,0.85,0.15c0.26,0.1,0.47,0.25,0.65,0.44
		c0.18,0.19,0.31,0.42,0.41,0.7C223.82,482.77,223.87,483.08,223.87,483.42z M223,483.08c-0.01-0.17-0.03-0.33-0.08-0.47
		s-0.13-0.27-0.23-0.38c-0.1-0.11-0.22-0.19-0.37-0.26c-0.15-0.06-0.32-0.09-0.52-0.09c-0.18,0-0.35,0.03-0.51,0.09
		c-0.16,0.06-0.3,0.15-0.41,0.26c-0.12,0.11-0.21,0.24-0.29,0.38s-0.12,0.3-0.13,0.47H223z"/>
	<path class="st0" d="M228.63,481.44c0.24-0.16,0.52-0.24,0.84-0.24c0.29,0,0.55,0.07,0.78,0.2c0.23,0.13,0.41,0.35,0.54,0.66
		c0.14-0.28,0.34-0.49,0.6-0.63c0.26-0.15,0.54-0.22,0.85-0.22c0.28,0,0.51,0.05,0.71,0.14c0.2,0.09,0.36,0.22,0.49,0.37
		c0.13,0.16,0.23,0.34,0.29,0.55c0.06,0.21,0.09,0.44,0.09,0.67v2.65h-0.85v-2.37c0-0.17-0.01-0.34-0.04-0.5
		c-0.03-0.16-0.08-0.29-0.15-0.41c-0.07-0.12-0.17-0.22-0.29-0.29c-0.12-0.07-0.27-0.11-0.46-0.11c-0.19,0-0.36,0.04-0.5,0.12
		c-0.14,0.08-0.25,0.19-0.34,0.32s-0.15,0.27-0.19,0.44s-0.06,0.33-0.06,0.5v2.3h-0.85v-2.54c0-0.17-0.02-0.32-0.05-0.46
		c-0.03-0.14-0.08-0.26-0.15-0.36s-0.17-0.18-0.28-0.23c-0.11-0.06-0.25-0.08-0.42-0.08c-0.31,0-0.57,0.13-0.78,0.38
		c-0.21,0.25-0.31,0.59-0.31,1.02v2.27h-0.85v-3.35c0-0.11,0-0.26-0.01-0.44s-0.01-0.34-0.03-0.48h0.8
		c0.01,0.11,0.02,0.23,0.03,0.36c0.01,0.13,0.01,0.25,0.01,0.34h0.03C228.22,481.8,228.4,481.6,228.63,481.44z"/>
	<path class="st0" d="M239.59,483.45c0,0.33-0.06,0.63-0.18,0.91c-0.12,0.28-0.28,0.51-0.49,0.72s-0.45,0.36-0.73,0.47
		c-0.28,0.11-0.58,0.17-0.91,0.17s-0.63-0.06-0.91-0.17c-0.28-0.11-0.53-0.27-0.73-0.47c-0.2-0.2-0.37-0.44-0.48-0.72
		c-0.12-0.28-0.18-0.58-0.18-0.91s0.06-0.63,0.18-0.91c0.12-0.27,0.28-0.51,0.48-0.71c0.2-0.2,0.45-0.35,0.73-0.46
		c0.28-0.11,0.58-0.17,0.91-0.17s0.63,0.06,0.91,0.17c0.28,0.11,0.53,0.27,0.73,0.46s0.37,0.43,0.49,0.71
		C239.53,482.82,239.59,483.12,239.59,483.45z M238.71,483.45c0-0.2-0.03-0.4-0.09-0.58s-0.16-0.35-0.28-0.49s-0.27-0.25-0.45-0.34
		c-0.18-0.08-0.38-0.13-0.61-0.13s-0.43,0.04-0.61,0.13c-0.18,0.08-0.33,0.2-0.45,0.34c-0.12,0.14-0.21,0.3-0.28,0.49
		c-0.06,0.19-0.09,0.38-0.09,0.58c0,0.2,0.03,0.4,0.09,0.58c0.06,0.18,0.15,0.35,0.28,0.49c0.12,0.14,0.27,0.26,0.45,0.34
		s0.38,0.13,0.61,0.13s0.43-0.04,0.61-0.13s0.33-0.2,0.45-0.34s0.21-0.31,0.28-0.49C238.68,483.85,238.71,483.66,238.71,483.45z"/>
	<path class="st0" d="M243.07,482.4c-0.1-0.16-0.23-0.28-0.41-0.38c-0.17-0.1-0.37-0.15-0.58-0.15c-0.1,0-0.19,0.01-0.29,0.03
		c-0.1,0.02-0.18,0.05-0.26,0.1c-0.07,0.05-0.13,0.1-0.18,0.17c-0.04,0.07-0.07,0.15-0.07,0.26c0,0.18,0.08,0.31,0.24,0.4
		s0.41,0.17,0.73,0.24c0.2,0.05,0.39,0.1,0.57,0.17c0.17,0.07,0.33,0.15,0.45,0.25s0.23,0.22,0.3,0.36c0.07,0.14,0.11,0.3,0.11,0.49
		c0,0.25-0.05,0.46-0.14,0.64s-0.22,0.32-0.38,0.43c-0.16,0.11-0.34,0.19-0.54,0.24s-0.41,0.07-0.63,0.07
		c-0.32,0-0.64-0.06-0.95-0.19c-0.31-0.13-0.57-0.32-0.77-0.58l0.6-0.51c0.11,0.17,0.27,0.31,0.47,0.42
		c0.2,0.11,0.42,0.17,0.66,0.17c0.11,0,0.21-0.01,0.31-0.03c0.1-0.02,0.19-0.06,0.27-0.1s0.15-0.11,0.19-0.19s0.07-0.18,0.07-0.3
		c0-0.2-0.09-0.34-0.28-0.44c-0.19-0.1-0.47-0.19-0.83-0.27c-0.14-0.04-0.29-0.08-0.44-0.13c-0.15-0.05-0.28-0.12-0.4-0.21
		s-0.22-0.2-0.29-0.34c-0.08-0.14-0.11-0.3-0.11-0.5c0-0.23,0.05-0.42,0.14-0.59c0.09-0.16,0.21-0.3,0.36-0.4
		c0.15-0.11,0.32-0.18,0.51-0.23c0.19-0.05,0.39-0.08,0.59-0.08c0.31,0,0.6,0.06,0.89,0.18c0.29,0.12,0.51,0.29,0.66,0.52
		L243.07,482.4z"/>
	<path class="st0" d="M246.85,482.02h-1.13v2.22c0,0.26,0.05,0.44,0.14,0.55c0.1,0.11,0.25,0.17,0.46,0.17
		c0.08,0,0.16-0.01,0.25-0.03s0.17-0.04,0.24-0.07l0.03,0.69c-0.1,0.04-0.21,0.06-0.34,0.08c-0.12,0.02-0.25,0.03-0.38,0.03
		c-0.4,0-0.71-0.11-0.92-0.33s-0.32-0.55-0.32-1v-2.31h-0.82v-0.69h0.82v-1.22h0.84v1.22h1.13V482.02z"/>
	<path class="st0" d="M251.98,482.02h-0.99v3.57h-0.85v-3.57h-0.85v-0.69h0.85v-0.89c0-0.25,0.03-0.48,0.08-0.7s0.15-0.4,0.28-0.55
		c0.13-0.16,0.29-0.28,0.5-0.37c0.2-0.09,0.45-0.13,0.73-0.13c0.2,0,0.38,0.02,0.53,0.06l-0.1,0.73c-0.07-0.02-0.13-0.03-0.2-0.04
		c-0.07-0.01-0.14-0.02-0.22-0.02c-0.16,0-0.29,0.03-0.39,0.08c-0.1,0.06-0.18,0.13-0.23,0.23c-0.05,0.1-0.09,0.21-0.11,0.33
		c-0.02,0.12-0.03,0.25-0.03,0.38v0.89h0.99V482.02z"/>
	<path class="st0" d="M257.08,483.45c0,0.33-0.06,0.63-0.18,0.91c-0.12,0.28-0.28,0.51-0.49,0.72s-0.45,0.36-0.73,0.47
		c-0.28,0.11-0.58,0.17-0.91,0.17s-0.63-0.06-0.91-0.17c-0.28-0.11-0.53-0.27-0.73-0.47c-0.2-0.2-0.37-0.44-0.48-0.72
		c-0.12-0.28-0.18-0.58-0.18-0.91s0.06-0.63,0.18-0.91c0.12-0.27,0.28-0.51,0.48-0.71c0.2-0.2,0.45-0.35,0.73-0.46
		c0.28-0.11,0.58-0.17,0.91-0.17s0.63,0.06,0.91,0.17c0.28,0.11,0.53,0.27,0.73,0.46s0.37,0.43,0.49,0.71
		C257.02,482.82,257.08,483.12,257.08,483.45z M256.2,483.45c0-0.2-0.03-0.4-0.09-0.58s-0.16-0.35-0.28-0.49s-0.27-0.25-0.45-0.34
		c-0.18-0.08-0.38-0.13-0.61-0.13s-0.43,0.04-0.61,0.13c-0.18,0.08-0.33,0.2-0.45,0.34c-0.12,0.14-0.21,0.3-0.28,0.49
		c-0.06,0.19-0.09,0.38-0.09,0.58c0,0.2,0.03,0.4,0.09,0.58c0.06,0.18,0.15,0.35,0.28,0.49c0.12,0.14,0.27,0.26,0.45,0.34
		s0.38,0.13,0.61,0.13s0.43-0.04,0.61-0.13s0.33-0.2,0.45-0.34s0.21-0.31,0.28-0.49C256.17,483.85,256.2,483.66,256.2,483.45z"/>
	<path class="st0" d="M258.24,481.8c-0.01-0.18-0.01-0.34-0.03-0.48h0.8c0.01,0.11,0.02,0.23,0.03,0.37
		c0.01,0.14,0.01,0.26,0.01,0.35h0.03c0.12-0.25,0.3-0.46,0.53-0.61c0.23-0.15,0.49-0.23,0.78-0.23c0.13,0,0.24,0.01,0.33,0.04
		l-0.04,0.78c-0.12-0.03-0.25-0.04-0.39-0.04c-0.2,0-0.38,0.04-0.53,0.11c-0.15,0.07-0.27,0.17-0.37,0.3
		c-0.1,0.13-0.17,0.27-0.22,0.44c-0.05,0.17-0.07,0.34-0.07,0.52v2.24h-0.85v-3.35C258.25,482.13,258.25,481.98,258.24,481.8z"/>
	<path class="st0" d="M49.2,492.32c0.01,0.11,0.02,0.23,0.03,0.36s0.01,0.25,0.01,0.34h0.03c0.05-0.11,0.13-0.22,0.22-0.32
		c0.09-0.1,0.2-0.19,0.32-0.26c0.12-0.08,0.25-0.13,0.4-0.18s0.29-0.06,0.45-0.06c0.28,0,0.51,0.05,0.71,0.14
		c0.2,0.09,0.36,0.22,0.5,0.37s0.23,0.34,0.29,0.55s0.09,0.44,0.09,0.67v2.65H51.4v-2.37c0-0.17-0.01-0.34-0.04-0.5
		c-0.03-0.16-0.08-0.29-0.15-0.41c-0.07-0.12-0.17-0.22-0.3-0.29c-0.13-0.07-0.29-0.11-0.49-0.11c-0.34,0-0.61,0.13-0.82,0.38
		c-0.21,0.25-0.32,0.59-0.32,1.02v2.27h-0.85v-3.35c0-0.11,0-0.26-0.01-0.44c-0.01-0.18-0.02-0.34-0.03-0.48H49.2z"/>
	<path class="st0" d="M57.99,494.45c0,0.33-0.06,0.63-0.18,0.91c-0.12,0.28-0.28,0.51-0.49,0.72s-0.45,0.36-0.73,0.47
		c-0.28,0.11-0.58,0.17-0.91,0.17c-0.32,0-0.63-0.06-0.91-0.17c-0.28-0.11-0.52-0.27-0.73-0.47s-0.36-0.44-0.48-0.72
		c-0.12-0.28-0.18-0.58-0.18-0.91s0.06-0.63,0.18-0.91c0.12-0.27,0.28-0.51,0.48-0.71s0.45-0.35,0.73-0.46
		c0.28-0.11,0.58-0.17,0.91-0.17c0.32,0,0.63,0.06,0.91,0.17c0.28,0.11,0.53,0.27,0.73,0.46s0.37,0.43,0.49,0.71
		C57.93,493.82,57.99,494.12,57.99,494.45z M57.11,494.45c0-0.2-0.03-0.4-0.09-0.58c-0.06-0.19-0.15-0.35-0.28-0.49
		s-0.27-0.25-0.45-0.34c-0.18-0.08-0.38-0.13-0.61-0.13c-0.23,0-0.43,0.04-0.61,0.13c-0.18,0.08-0.33,0.2-0.45,0.34
		c-0.12,0.14-0.21,0.3-0.28,0.49s-0.09,0.38-0.09,0.58c0,0.2,0.03,0.4,0.09,0.58c0.06,0.18,0.16,0.35,0.28,0.49
		c0.12,0.14,0.27,0.26,0.45,0.34c0.18,0.08,0.38,0.13,0.61,0.13c0.23,0,0.43-0.04,0.61-0.13c0.18-0.08,0.33-0.2,0.45-0.34
		s0.21-0.31,0.28-0.49C57.08,494.85,57.11,494.66,57.11,494.45z"/>
	<path class="st0" d="M59.93,492.32c0.01,0.11,0.02,0.23,0.03,0.36s0.01,0.25,0.01,0.34h0.03c0.05-0.11,0.13-0.22,0.22-0.32
		c0.09-0.1,0.2-0.19,0.32-0.26c0.12-0.08,0.25-0.13,0.4-0.18s0.29-0.06,0.45-0.06c0.28,0,0.51,0.05,0.71,0.14
		c0.2,0.09,0.36,0.22,0.5,0.37s0.23,0.34,0.29,0.55s0.09,0.44,0.09,0.67v2.65h-0.85v-2.37c0-0.17-0.01-0.34-0.04-0.5
		c-0.03-0.16-0.08-0.29-0.15-0.41c-0.07-0.12-0.17-0.22-0.3-0.29c-0.13-0.07-0.29-0.11-0.49-0.11c-0.34,0-0.61,0.13-0.82,0.38
		c-0.21,0.25-0.32,0.59-0.32,1.02v2.27h-0.85v-3.35c0-0.11,0-0.26-0.01-0.44c-0.01-0.18-0.02-0.34-0.03-0.48H59.93z"/>
	<path class="st0" d="M66.7,493.4c-0.1-0.16-0.23-0.28-0.41-0.38c-0.17-0.1-0.37-0.15-0.58-0.15c-0.1,0-0.19,0.01-0.29,0.03
		c-0.1,0.02-0.18,0.05-0.26,0.1c-0.08,0.05-0.14,0.1-0.18,0.17c-0.04,0.07-0.07,0.15-0.07,0.26c0,0.18,0.08,0.31,0.24,0.4
		c0.16,0.09,0.4,0.17,0.73,0.24c0.2,0.05,0.39,0.1,0.57,0.17c0.17,0.07,0.33,0.15,0.45,0.25c0.13,0.1,0.23,0.22,0.3,0.36
		c0.07,0.14,0.11,0.3,0.11,0.49c0,0.25-0.05,0.46-0.14,0.64c-0.1,0.17-0.22,0.32-0.38,0.43s-0.34,0.19-0.54,0.24
		s-0.41,0.07-0.63,0.07c-0.32,0-0.64-0.06-0.95-0.19s-0.57-0.32-0.77-0.58l0.6-0.51c0.11,0.17,0.27,0.31,0.47,0.42
		c0.2,0.11,0.42,0.17,0.66,0.17c0.11,0,0.21-0.01,0.31-0.03c0.1-0.02,0.19-0.06,0.27-0.1c0.08-0.05,0.15-0.11,0.19-0.19
		c0.05-0.08,0.07-0.18,0.07-0.3c0-0.2-0.09-0.34-0.28-0.44s-0.47-0.19-0.83-0.27c-0.14-0.04-0.29-0.08-0.44-0.13
		c-0.15-0.05-0.28-0.12-0.4-0.21c-0.12-0.09-0.22-0.2-0.29-0.34c-0.07-0.14-0.11-0.3-0.11-0.5c0-0.23,0.05-0.42,0.14-0.59
		c0.09-0.16,0.21-0.3,0.36-0.4c0.15-0.11,0.32-0.18,0.51-0.23c0.19-0.05,0.39-0.08,0.59-0.08c0.31,0,0.6,0.06,0.89,0.18
		c0.28,0.12,0.51,0.29,0.66,0.52L66.7,493.4z"/>
	<path class="st0" d="M71.4,496.59c-0.01-0.11-0.02-0.23-0.03-0.36s-0.01-0.25-0.01-0.34h-0.02c-0.11,0.23-0.29,0.42-0.54,0.58
		c-0.26,0.16-0.54,0.24-0.85,0.24c-0.28,0-0.51-0.04-0.72-0.13c-0.2-0.09-0.37-0.21-0.49-0.37c-0.13-0.16-0.23-0.34-0.29-0.55
		s-0.09-0.43-0.09-0.67v-2.65h0.85v2.36c0,0.17,0.01,0.34,0.04,0.5s0.08,0.3,0.15,0.42c0.07,0.12,0.17,0.22,0.3,0.29
		s0.29,0.11,0.49,0.11c0.34,0,0.62-0.13,0.83-0.38s0.31-0.6,0.31-1.02v-2.27h0.85v3.35c0,0.11,0,0.26,0.01,0.44
		c0.01,0.18,0.02,0.34,0.03,0.48H71.4z"/>
	<path class="st0" d="M73.63,492.8c-0.01-0.18-0.02-0.34-0.03-0.48h0.8c0.01,0.11,0.02,0.23,0.03,0.37
		c0.01,0.14,0.01,0.26,0.01,0.35h0.03c0.12-0.25,0.3-0.46,0.53-0.61c0.23-0.15,0.49-0.23,0.78-0.23c0.13,0,0.24,0.01,0.33,0.04
		l-0.04,0.78c-0.12-0.03-0.25-0.04-0.39-0.04c-0.2,0-0.38,0.04-0.53,0.11c-0.15,0.07-0.27,0.17-0.37,0.3
		c-0.1,0.13-0.17,0.27-0.22,0.44s-0.07,0.34-0.07,0.52v2.24h-0.85v-3.35C73.63,493.13,73.63,492.98,73.63,492.8z"/>
	<path class="st0" d="M77.06,497.32c0.19,0.21,0.42,0.38,0.7,0.5c0.28,0.13,0.57,0.19,0.86,0.19c0.28,0,0.52-0.04,0.71-0.12
		c0.19-0.08,0.35-0.19,0.46-0.33c0.12-0.14,0.2-0.31,0.25-0.5c0.05-0.19,0.08-0.4,0.08-0.62v-0.55H80.1
		c-0.16,0.24-0.37,0.42-0.64,0.55s-0.56,0.19-0.86,0.19c-0.32,0-0.62-0.06-0.89-0.17s-0.49-0.27-0.68-0.47
		c-0.19-0.2-0.33-0.43-0.43-0.7c-0.1-0.27-0.15-0.55-0.15-0.86c0-0.31,0.05-0.59,0.15-0.86c0.1-0.27,0.25-0.5,0.43-0.71
		c0.19-0.2,0.41-0.36,0.67-0.48c0.26-0.12,0.56-0.18,0.88-0.18c0.31,0,0.6,0.07,0.88,0.2c0.28,0.13,0.5,0.33,0.66,0.6h0.02v-0.68
		h0.82v4.05c0,0.31-0.04,0.61-0.12,0.9c-0.08,0.29-0.21,0.54-0.4,0.76s-0.43,0.39-0.73,0.53c-0.3,0.13-0.67,0.2-1.12,0.2
		c-0.37,0-0.75-0.07-1.12-0.2c-0.38-0.13-0.7-0.33-0.97-0.57L77.06,497.32z M77.31,494.41c0,0.2,0.03,0.39,0.09,0.57
		c0.06,0.18,0.16,0.34,0.28,0.48s0.27,0.25,0.45,0.33c0.17,0.08,0.37,0.13,0.6,0.13c0.22,0,0.42-0.04,0.6-0.12
		c0.18-0.08,0.33-0.18,0.46-0.32s0.22-0.29,0.29-0.48c0.07-0.18,0.1-0.38,0.1-0.59c0-0.2-0.03-0.4-0.1-0.58s-0.17-0.34-0.3-0.48
		c-0.13-0.14-0.28-0.25-0.46-0.33s-0.37-0.12-0.59-0.12c-0.22,0-0.42,0.04-0.6,0.12c-0.17,0.08-0.32,0.19-0.45,0.32
		s-0.22,0.29-0.28,0.48C77.35,494.01,77.31,494.21,77.31,494.41z"/>
	<path class="st0" d="M83.41,490.78c0,0.16-0.06,0.29-0.17,0.39c-0.11,0.1-0.24,0.15-0.4,0.15c-0.15,0-0.29-0.05-0.39-0.16
		c-0.11-0.1-0.16-0.23-0.16-0.38c0-0.16,0.05-0.29,0.16-0.39c0.11-0.11,0.24-0.16,0.39-0.16c0.15,0,0.29,0.05,0.4,0.16
		C83.35,490.5,83.41,490.63,83.41,490.78z M83.27,496.59h-0.85v-4.27h0.85V496.59z"/>
	<path class="st0" d="M87.74,493.4c-0.09-0.14-0.22-0.25-0.4-0.35s-0.37-0.14-0.58-0.14c-0.22,0-0.42,0.04-0.59,0.13
		s-0.32,0.2-0.44,0.34c-0.12,0.14-0.21,0.3-0.27,0.49c-0.06,0.19-0.09,0.38-0.09,0.58s0.03,0.4,0.09,0.58
		c0.06,0.19,0.15,0.35,0.27,0.49c0.12,0.14,0.27,0.25,0.44,0.34c0.17,0.08,0.37,0.13,0.59,0.13c0.22,0,0.41-0.04,0.59-0.13
		c0.18-0.08,0.32-0.2,0.44-0.34l0.57,0.51c-0.18,0.21-0.4,0.37-0.67,0.49s-0.58,0.18-0.92,0.18c-0.33,0-0.63-0.05-0.91-0.16
		s-0.52-0.26-0.72-0.45c-0.2-0.2-0.36-0.43-0.48-0.71c-0.12-0.28-0.18-0.58-0.18-0.93c0-0.34,0.06-0.64,0.17-0.92
		c0.11-0.28,0.27-0.51,0.48-0.71c0.2-0.2,0.45-0.35,0.72-0.46c0.28-0.11,0.58-0.16,0.9-0.16c0.3,0,0.6,0.06,0.9,0.18
		s0.53,0.29,0.71,0.52L87.74,493.4z"/>
	<path class="st0" d="M91.85,493.83c0-0.32-0.1-0.55-0.29-0.71c-0.19-0.15-0.45-0.23-0.77-0.23c-0.24,0-0.47,0.05-0.68,0.14
		s-0.39,0.21-0.54,0.36l-0.45-0.54c0.21-0.2,0.47-0.35,0.77-0.47c0.3-0.11,0.63-0.17,0.98-0.17c0.31,0,0.57,0.04,0.8,0.13
		c0.23,0.09,0.41,0.21,0.55,0.36c0.14,0.15,0.25,0.33,0.32,0.53c0.07,0.2,0.11,0.42,0.11,0.66v1.86c0,0.14,0,0.29,0.01,0.45
		s0.03,0.29,0.05,0.39h-0.76c-0.05-0.2-0.07-0.41-0.07-0.61h-0.03c-0.16,0.23-0.35,0.41-0.59,0.53c-0.24,0.13-0.52,0.19-0.84,0.19
		c-0.17,0-0.34-0.02-0.53-0.07c-0.18-0.04-0.35-0.12-0.5-0.22c-0.15-0.1-0.27-0.24-0.37-0.41s-0.15-0.38-0.15-0.62
		c0-0.32,0.09-0.58,0.26-0.77c0.17-0.19,0.4-0.33,0.68-0.43c0.28-0.1,0.6-0.16,0.95-0.19c0.35-0.03,0.71-0.05,1.07-0.05V493.83z
		 M91.64,494.55c-0.21,0-0.43,0.01-0.65,0.03c-0.23,0.02-0.43,0.05-0.61,0.11c-0.18,0.05-0.33,0.14-0.45,0.24
		c-0.12,0.11-0.18,0.25-0.18,0.43c0,0.13,0.03,0.23,0.08,0.31c0.05,0.08,0.12,0.15,0.2,0.21s0.18,0.09,0.28,0.11
		c0.1,0.02,0.21,0.03,0.31,0.03c0.4,0,0.7-0.12,0.91-0.36c0.21-0.24,0.32-0.54,0.32-0.9v-0.23H91.64z"/>
	<path class="st0" d="M94.94,496.59h-0.85v-6.8h0.85V496.59z"/>
	<path class="st0" d="M100.67,493.02h-0.99v3.57h-0.85v-3.57h-0.85v-0.69h0.85v-0.89c0-0.25,0.03-0.48,0.09-0.7s0.15-0.4,0.28-0.55
		c0.13-0.16,0.29-0.28,0.49-0.37c0.2-0.09,0.45-0.13,0.73-0.13c0.2,0,0.38,0.02,0.53,0.06l-0.1,0.73c-0.07-0.02-0.13-0.03-0.2-0.04
		s-0.14-0.02-0.23-0.02c-0.16,0-0.29,0.03-0.39,0.08c-0.1,0.06-0.18,0.13-0.23,0.23c-0.05,0.1-0.09,0.21-0.11,0.33
		s-0.03,0.25-0.03,0.38v0.89h0.99V493.02z"/>
	<path class="st0" d="M104.11,493.83c0-0.32-0.1-0.55-0.29-0.71c-0.19-0.15-0.45-0.23-0.77-0.23c-0.24,0-0.47,0.05-0.68,0.14
		s-0.39,0.21-0.54,0.36l-0.45-0.54c0.21-0.2,0.47-0.35,0.77-0.47c0.3-0.11,0.63-0.17,0.98-0.17c0.31,0,0.57,0.04,0.8,0.13
		c0.23,0.09,0.41,0.21,0.55,0.36c0.14,0.15,0.25,0.33,0.32,0.53c0.07,0.2,0.11,0.42,0.11,0.66v1.86c0,0.14,0,0.29,0.01,0.45
		s0.03,0.29,0.05,0.39h-0.76c-0.05-0.2-0.07-0.41-0.07-0.61h-0.03c-0.16,0.23-0.35,0.41-0.59,0.53c-0.24,0.13-0.52,0.19-0.84,0.19
		c-0.17,0-0.34-0.02-0.53-0.07c-0.18-0.04-0.35-0.12-0.5-0.22c-0.15-0.1-0.27-0.24-0.37-0.41s-0.15-0.38-0.15-0.62
		c0-0.32,0.09-0.58,0.26-0.77c0.17-0.19,0.4-0.33,0.68-0.43c0.28-0.1,0.6-0.16,0.95-0.19c0.35-0.03,0.71-0.05,1.07-0.05V493.83z
		 M103.9,494.55c-0.21,0-0.43,0.01-0.65,0.03c-0.23,0.02-0.43,0.05-0.61,0.11c-0.18,0.05-0.33,0.14-0.45,0.24
		c-0.12,0.11-0.18,0.25-0.18,0.43c0,0.13,0.03,0.23,0.08,0.31c0.05,0.08,0.12,0.15,0.2,0.21s0.18,0.09,0.28,0.11
		c0.1,0.02,0.21,0.03,0.31,0.03c0.4,0,0.7-0.12,0.91-0.36c0.21-0.24,0.32-0.54,0.32-0.9v-0.23H103.9z"/>
	<path class="st0" d="M108.33,493.02h-1.13v2.22c0,0.26,0.05,0.44,0.14,0.55c0.1,0.11,0.25,0.17,0.46,0.17
		c0.08,0,0.16-0.01,0.25-0.03s0.17-0.04,0.24-0.07l0.03,0.69c-0.1,0.04-0.21,0.06-0.34,0.08c-0.12,0.02-0.25,0.03-0.38,0.03
		c-0.4,0-0.71-0.11-0.92-0.33s-0.32-0.55-0.32-1v-2.31h-0.82v-0.69h0.82v-1.22h0.84v1.22h1.13V493.02z"/>
	<path class="st0" d="M111.44,492.8c-0.01-0.18-0.02-0.34-0.03-0.48h0.8c0.01,0.11,0.02,0.23,0.03,0.37
		c0.01,0.14,0.01,0.26,0.01,0.35h0.03c0.12-0.25,0.3-0.46,0.53-0.61c0.23-0.15,0.49-0.23,0.78-0.23c0.13,0,0.24,0.01,0.33,0.04
		l-0.04,0.78c-0.12-0.03-0.25-0.04-0.39-0.04c-0.2,0-0.38,0.04-0.53,0.11c-0.15,0.07-0.27,0.17-0.37,0.3
		c-0.1,0.13-0.17,0.27-0.22,0.44s-0.07,0.34-0.07,0.52v2.24h-0.85v-3.35C111.45,493.13,111.45,492.98,111.44,492.8z"/>
	<path class="st0" d="M118.53,494.42c0,0.05,0,0.1,0,0.14c0,0.05,0,0.1-0.01,0.14h-3.39c0.01,0.18,0.05,0.35,0.12,0.5
		c0.07,0.16,0.18,0.29,0.3,0.41s0.27,0.21,0.44,0.27s0.34,0.1,0.53,0.1c0.29,0,0.54-0.06,0.75-0.19s0.38-0.28,0.5-0.46l0.59,0.48
		c-0.23,0.3-0.5,0.52-0.81,0.67c-0.31,0.14-0.65,0.21-1.03,0.21c-0.32,0-0.62-0.05-0.9-0.16s-0.51-0.26-0.71-0.45
		c-0.2-0.2-0.35-0.43-0.47-0.71c-0.11-0.28-0.17-0.58-0.17-0.92c0-0.33,0.06-0.63,0.17-0.91c0.11-0.28,0.27-0.52,0.46-0.72
		c0.2-0.2,0.43-0.35,0.7-0.46c0.27-0.11,0.56-0.17,0.88-0.17c0.31,0,0.6,0.05,0.85,0.15c0.26,0.1,0.47,0.25,0.65,0.44
		c0.18,0.19,0.31,0.42,0.41,0.7C118.49,493.77,118.53,494.08,118.53,494.42z M117.67,494.08c-0.01-0.17-0.03-0.33-0.09-0.47
		c-0.05-0.15-0.13-0.27-0.23-0.38c-0.1-0.11-0.22-0.19-0.37-0.26c-0.15-0.06-0.32-0.09-0.52-0.09c-0.18,0-0.35,0.03-0.51,0.09
		c-0.16,0.06-0.3,0.15-0.41,0.26c-0.12,0.11-0.21,0.24-0.29,0.38c-0.07,0.15-0.12,0.3-0.13,0.47H117.67z"/>
	<path class="st0" d="M123.11,495.91c-0.16,0.26-0.38,0.45-0.66,0.59c-0.28,0.14-0.57,0.2-0.88,0.2c-0.33,0-0.63-0.06-0.89-0.18
		c-0.26-0.12-0.49-0.28-0.68-0.48s-0.33-0.44-0.43-0.72c-0.1-0.28-0.15-0.57-0.15-0.88c0-0.31,0.05-0.6,0.15-0.88
		c0.1-0.27,0.25-0.51,0.44-0.72c0.19-0.2,0.42-0.36,0.68-0.48s0.56-0.17,0.87-0.17c0.35,0,0.65,0.07,0.91,0.22
		c0.26,0.15,0.46,0.33,0.61,0.54h0.02v-3.18h0.85v6.8h-0.82v-0.67H123.11z M120.3,494.45c0,0.2,0.03,0.39,0.09,0.57
		c0.06,0.19,0.15,0.35,0.27,0.49c0.12,0.14,0.27,0.26,0.44,0.35c0.17,0.09,0.38,0.13,0.61,0.13c0.22,0,0.41-0.04,0.59-0.13
		c0.18-0.08,0.33-0.2,0.45-0.34s0.22-0.3,0.29-0.49c0.07-0.19,0.1-0.38,0.1-0.58c0-0.2-0.03-0.4-0.1-0.58
		c-0.07-0.19-0.17-0.35-0.29-0.49s-0.28-0.26-0.45-0.34c-0.18-0.08-0.37-0.13-0.59-0.13c-0.23,0-0.44,0.04-0.61,0.13
		c-0.17,0.08-0.32,0.2-0.44,0.34c-0.12,0.14-0.21,0.31-0.27,0.49S120.3,494.25,120.3,494.45z"/>
	<path class="st0" d="M128.43,496.59c-0.01-0.11-0.02-0.23-0.03-0.36s-0.01-0.25-0.01-0.34h-0.02c-0.11,0.23-0.29,0.42-0.54,0.58
		c-0.26,0.16-0.54,0.24-0.85,0.24c-0.28,0-0.51-0.04-0.72-0.13c-0.2-0.09-0.37-0.21-0.49-0.37c-0.13-0.16-0.23-0.34-0.29-0.55
		s-0.09-0.43-0.09-0.67v-2.65h0.85v2.36c0,0.17,0.01,0.34,0.04,0.5s0.08,0.3,0.15,0.42c0.07,0.12,0.17,0.22,0.3,0.29
		S127,496,127.2,496c0.34,0,0.62-0.13,0.83-0.38s0.31-0.6,0.31-1.02v-2.27h0.85v3.35c0,0.11,0,0.26,0.01,0.44
		c0.01,0.18,0.02,0.34,0.03,0.48H128.43z"/>
	<path class="st0" d="M133.65,493.4c-0.09-0.14-0.22-0.25-0.4-0.35s-0.37-0.14-0.58-0.14c-0.22,0-0.42,0.04-0.59,0.13
		s-0.32,0.2-0.44,0.34c-0.12,0.14-0.21,0.3-0.27,0.49c-0.06,0.19-0.09,0.38-0.09,0.58s0.03,0.4,0.09,0.58
		c0.06,0.19,0.15,0.35,0.27,0.49c0.12,0.14,0.27,0.25,0.44,0.34c0.17,0.08,0.37,0.13,0.59,0.13c0.22,0,0.41-0.04,0.59-0.13
		c0.18-0.08,0.32-0.2,0.44-0.34l0.57,0.51c-0.18,0.21-0.4,0.37-0.67,0.49s-0.58,0.18-0.92,0.18c-0.33,0-0.63-0.05-0.91-0.16
		s-0.52-0.26-0.72-0.45c-0.2-0.2-0.36-0.43-0.48-0.71c-0.12-0.28-0.18-0.58-0.18-0.93c0-0.34,0.06-0.64,0.17-0.92
		c0.11-0.28,0.27-0.51,0.48-0.71c0.2-0.2,0.45-0.35,0.72-0.46c0.28-0.11,0.58-0.16,0.9-0.16c0.3,0,0.6,0.06,0.9,0.18
		s0.53,0.29,0.71,0.52L133.65,493.4z"/>
	<path class="st0" d="M137.19,493.02h-1.13v2.22c0,0.26,0.05,0.44,0.14,0.55c0.1,0.11,0.25,0.17,0.46,0.17
		c0.08,0,0.16-0.01,0.25-0.03s0.17-0.04,0.24-0.07l0.03,0.69c-0.1,0.04-0.21,0.06-0.34,0.08c-0.12,0.02-0.25,0.03-0.38,0.03
		c-0.4,0-0.71-0.11-0.92-0.33s-0.32-0.55-0.32-1v-2.31h-0.82v-0.69h0.82v-1.22h0.84v1.22h1.13V493.02z"/>
	<path class="st0" d="M139.05,490.78c0,0.16-0.06,0.29-0.17,0.39c-0.11,0.1-0.24,0.15-0.4,0.15c-0.15,0-0.29-0.05-0.39-0.16
		c-0.11-0.1-0.16-0.23-0.16-0.38c0-0.16,0.05-0.29,0.16-0.39c0.11-0.11,0.24-0.16,0.39-0.16c0.15,0,0.29,0.05,0.4,0.16
		C139,490.5,139.05,490.63,139.05,490.78z M138.92,496.59h-0.85v-4.27h0.85V496.59z"/>
	<path class="st0" d="M144.72,494.45c0,0.33-0.06,0.63-0.18,0.91c-0.12,0.28-0.28,0.51-0.49,0.72s-0.45,0.36-0.73,0.47
		c-0.28,0.11-0.58,0.17-0.91,0.17c-0.32,0-0.63-0.06-0.91-0.17c-0.28-0.11-0.52-0.27-0.73-0.47s-0.36-0.44-0.48-0.72
		c-0.12-0.28-0.18-0.58-0.18-0.91s0.06-0.63,0.18-0.91c0.12-0.27,0.28-0.51,0.48-0.71s0.45-0.35,0.73-0.46
		c0.28-0.11,0.58-0.17,0.91-0.17c0.32,0,0.63,0.06,0.91,0.17c0.28,0.11,0.53,0.27,0.73,0.46s0.37,0.43,0.49,0.71
		C144.66,493.82,144.72,494.12,144.72,494.45z M143.83,494.45c0-0.2-0.03-0.4-0.09-0.58c-0.06-0.19-0.15-0.35-0.28-0.49
		s-0.27-0.25-0.45-0.34c-0.18-0.08-0.38-0.13-0.61-0.13c-0.23,0-0.43,0.04-0.61,0.13c-0.18,0.08-0.33,0.2-0.45,0.34
		c-0.12,0.14-0.21,0.3-0.28,0.49s-0.09,0.38-0.09,0.58c0,0.2,0.03,0.4,0.09,0.58c0.06,0.18,0.16,0.35,0.28,0.49
		c0.12,0.14,0.27,0.26,0.45,0.34c0.18,0.08,0.38,0.13,0.61,0.13c0.23,0,0.43-0.04,0.61-0.13c0.18-0.08,0.33-0.2,0.45-0.34
		s0.21-0.31,0.28-0.49C143.8,494.85,143.83,494.66,143.83,494.45z"/>
	<path class="st0" d="M146.65,492.32c0.01,0.11,0.02,0.23,0.03,0.36s0.01,0.25,0.01,0.34h0.03c0.05-0.11,0.13-0.22,0.22-0.32
		c0.09-0.1,0.2-0.19,0.32-0.26c0.12-0.08,0.25-0.13,0.4-0.18s0.29-0.06,0.45-0.06c0.28,0,0.51,0.05,0.71,0.14
		c0.2,0.09,0.36,0.22,0.5,0.37s0.23,0.34,0.29,0.55s0.09,0.44,0.09,0.67v2.65h-0.85v-2.37c0-0.17-0.01-0.34-0.04-0.5
		c-0.03-0.16-0.08-0.29-0.15-0.41c-0.07-0.12-0.17-0.22-0.3-0.29c-0.13-0.07-0.29-0.11-0.49-0.11c-0.34,0-0.61,0.13-0.82,0.38
		c-0.21,0.25-0.32,0.59-0.32,1.02v2.27h-0.85v-3.35c0-0.11,0-0.26-0.01-0.44c-0.01-0.18-0.02-0.34-0.03-0.48H146.65z"/>
	<path class="st0" d="M152.17,496.05c0,0.16-0.06,0.29-0.17,0.41s-0.26,0.18-0.43,0.18c-0.17,0-0.31-0.06-0.43-0.17
		c-0.12-0.12-0.18-0.25-0.18-0.41c0-0.16,0.06-0.3,0.17-0.42s0.26-0.18,0.43-0.18s0.32,0.06,0.43,0.17S152.17,495.89,152.17,496.05z
		"/>
	<path class="st0" d="M155.59,496.59h-0.99l2.76-6.37h0.81l2.74,6.37h-1.01l-0.65-1.57h-3.02L155.59,496.59z M156.54,494.24h2.38
		l-1.19-2.99L156.54,494.24z"/>
	<path class="st0" d="M162.54,496.59h-0.85v-6.8h0.85V496.59z"/>
	<path class="st0" d="M164.88,496.59h-0.85v-6.8h0.85V496.59z"/>
	<path class="st0" d="M170.35,494.42c0,0.05,0,0.1,0,0.14c0,0.05,0,0.1-0.01,0.14h-3.39c0.01,0.18,0.05,0.35,0.12,0.5
		s0.18,0.29,0.3,0.41s0.27,0.21,0.44,0.27s0.34,0.1,0.53,0.1c0.29,0,0.54-0.06,0.75-0.19s0.38-0.28,0.5-0.46l0.59,0.48
		c-0.23,0.3-0.5,0.52-0.81,0.67c-0.31,0.14-0.65,0.21-1.03,0.21c-0.32,0-0.62-0.05-0.9-0.16c-0.28-0.11-0.51-0.26-0.71-0.45
		c-0.2-0.2-0.35-0.43-0.47-0.71c-0.11-0.28-0.17-0.58-0.17-0.92c0-0.33,0.06-0.63,0.17-0.91c0.11-0.28,0.27-0.52,0.46-0.72
		s0.43-0.35,0.7-0.46c0.27-0.11,0.56-0.17,0.87-0.17c0.31,0,0.6,0.05,0.85,0.15c0.26,0.1,0.47,0.25,0.65,0.44
		c0.18,0.19,0.31,0.42,0.41,0.7C170.3,493.77,170.35,494.08,170.35,494.42z M169.48,494.08c-0.01-0.17-0.03-0.33-0.08-0.47
		s-0.13-0.27-0.23-0.38c-0.1-0.11-0.22-0.19-0.37-0.26c-0.15-0.06-0.32-0.09-0.52-0.09c-0.18,0-0.35,0.03-0.51,0.09
		c-0.16,0.06-0.3,0.15-0.41,0.26c-0.12,0.11-0.21,0.24-0.29,0.38s-0.12,0.3-0.13,0.47H169.48z"/>
	<path class="st0" d="M172.47,494.35l-1.56-2.02h1.04l1.04,1.47l1.05-1.47h0.99l-1.54,2.02l1.72,2.25h-1.05l-1.19-1.67l-1.21,1.67
		h-1.02L172.47,494.35z"/>
	<path class="st0" d="M178.68,493.83c0-0.32-0.1-0.55-0.29-0.71c-0.19-0.15-0.45-0.23-0.76-0.23c-0.24,0-0.47,0.05-0.68,0.14
		s-0.39,0.21-0.54,0.36l-0.45-0.54c0.21-0.2,0.47-0.35,0.77-0.47s0.63-0.17,0.98-0.17c0.31,0,0.57,0.04,0.8,0.13
		c0.22,0.09,0.41,0.21,0.55,0.36c0.14,0.15,0.25,0.33,0.32,0.53s0.11,0.42,0.11,0.66v1.86c0,0.14,0,0.29,0.01,0.45
		c0.01,0.16,0.03,0.29,0.05,0.39h-0.76c-0.05-0.2-0.07-0.41-0.07-0.61h-0.03c-0.16,0.23-0.35,0.41-0.59,0.53
		c-0.24,0.13-0.52,0.19-0.84,0.19c-0.17,0-0.34-0.02-0.53-0.07c-0.18-0.04-0.35-0.12-0.5-0.22c-0.15-0.1-0.27-0.24-0.37-0.41
		s-0.15-0.38-0.15-0.62c0-0.32,0.09-0.58,0.26-0.77c0.17-0.19,0.4-0.33,0.68-0.43c0.28-0.1,0.6-0.16,0.95-0.19
		c0.35-0.03,0.71-0.05,1.07-0.05V493.83z M178.47,494.55c-0.21,0-0.43,0.01-0.65,0.03c-0.22,0.02-0.43,0.05-0.61,0.11
		c-0.18,0.05-0.33,0.14-0.45,0.24c-0.12,0.11-0.18,0.25-0.18,0.43c0,0.13,0.03,0.23,0.08,0.31s0.12,0.15,0.2,0.21
		s0.18,0.09,0.28,0.11c0.1,0.02,0.21,0.03,0.32,0.03c0.4,0,0.7-0.12,0.91-0.36c0.21-0.24,0.32-0.54,0.32-0.9v-0.23H178.47z"/>
	<path class="st0" d="M183.47,492.32l0.96,3.26h0.02l1.02-3.26h0.89l1.04,3.26h0.02l0.96-3.26h0.89l-1.41,4.27h-0.88l-1.05-3.2
		h-0.02l-1.04,3.2h-0.88l-1.42-4.27H183.47z"/>
	<path class="st0" d="M192.77,493.83c0-0.32-0.1-0.55-0.29-0.71c-0.19-0.15-0.45-0.23-0.76-0.23c-0.24,0-0.47,0.05-0.68,0.14
		s-0.39,0.21-0.54,0.36l-0.45-0.54c0.21-0.2,0.47-0.35,0.77-0.47s0.63-0.17,0.98-0.17c0.31,0,0.57,0.04,0.8,0.13
		c0.22,0.09,0.41,0.21,0.55,0.36c0.14,0.15,0.25,0.33,0.32,0.53s0.11,0.42,0.11,0.66v1.86c0,0.14,0,0.29,0.01,0.45
		c0.01,0.16,0.03,0.29,0.05,0.39h-0.76c-0.05-0.2-0.07-0.41-0.07-0.61h-0.03c-0.16,0.23-0.35,0.41-0.59,0.53
		c-0.24,0.13-0.52,0.19-0.84,0.19c-0.17,0-0.34-0.02-0.53-0.07c-0.18-0.04-0.35-0.12-0.5-0.22c-0.15-0.1-0.27-0.24-0.37-0.41
		s-0.15-0.38-0.15-0.62c0-0.32,0.09-0.58,0.26-0.77c0.17-0.19,0.4-0.33,0.68-0.43c0.28-0.1,0.6-0.16,0.95-0.19
		c0.35-0.03,0.71-0.05,1.07-0.05V493.83z M192.56,494.55c-0.21,0-0.43,0.01-0.65,0.03c-0.22,0.02-0.43,0.05-0.61,0.11
		c-0.18,0.05-0.33,0.14-0.45,0.24c-0.12,0.11-0.18,0.25-0.18,0.43c0,0.13,0.03,0.23,0.08,0.31s0.12,0.15,0.2,0.21
		s0.18,0.09,0.28,0.11c0.1,0.02,0.21,0.03,0.32,0.03c0.4,0,0.7-0.12,0.91-0.36c0.21-0.24,0.32-0.54,0.32-0.9v-0.23H192.56z"/>
	<path class="st0" d="M197.29,493.4c-0.1-0.16-0.23-0.28-0.41-0.38c-0.17-0.1-0.37-0.15-0.58-0.15c-0.1,0-0.19,0.01-0.29,0.03
		c-0.1,0.02-0.18,0.05-0.26,0.1c-0.07,0.05-0.13,0.1-0.18,0.17c-0.04,0.07-0.07,0.15-0.07,0.26c0,0.18,0.08,0.31,0.24,0.4
		s0.41,0.17,0.73,0.24c0.2,0.05,0.39,0.1,0.57,0.17c0.17,0.07,0.33,0.15,0.45,0.25s0.23,0.22,0.3,0.36c0.07,0.14,0.11,0.3,0.11,0.49
		c0,0.25-0.05,0.46-0.14,0.64s-0.22,0.32-0.38,0.43c-0.16,0.11-0.34,0.19-0.54,0.24s-0.41,0.07-0.63,0.07
		c-0.32,0-0.64-0.06-0.95-0.19c-0.31-0.13-0.57-0.32-0.77-0.58l0.6-0.51c0.11,0.17,0.27,0.31,0.47,0.42
		c0.2,0.11,0.42,0.17,0.66,0.17c0.11,0,0.21-0.01,0.31-0.03c0.1-0.02,0.19-0.06,0.27-0.1s0.15-0.11,0.19-0.19s0.07-0.18,0.07-0.3
		c0-0.2-0.09-0.34-0.28-0.44c-0.19-0.1-0.47-0.19-0.83-0.27c-0.14-0.04-0.29-0.08-0.44-0.13c-0.15-0.05-0.28-0.12-0.4-0.21
		s-0.22-0.2-0.29-0.34c-0.08-0.14-0.11-0.3-0.11-0.5c0-0.23,0.05-0.42,0.14-0.59c0.09-0.16,0.21-0.3,0.36-0.4
		c0.15-0.11,0.32-0.18,0.51-0.23c0.19-0.05,0.39-0.08,0.59-0.08c0.31,0,0.6,0.06,0.89,0.18c0.29,0.12,0.51,0.29,0.66,0.52
		L197.29,493.4z"/>
	<path class="st0" d="M203.32,493.02h-1.13v2.22c0,0.26,0.05,0.44,0.14,0.55c0.1,0.11,0.25,0.17,0.46,0.17
		c0.08,0,0.16-0.01,0.25-0.03s0.17-0.04,0.24-0.07l0.03,0.69c-0.1,0.04-0.21,0.06-0.34,0.08c-0.12,0.02-0.25,0.03-0.38,0.03
		c-0.4,0-0.71-0.11-0.92-0.33s-0.32-0.55-0.32-1v-2.31h-0.82v-0.69h0.82v-1.22h0.84v1.22h1.13V493.02z"/>
	<path class="st0" d="M204.19,492.8c-0.01-0.18-0.01-0.34-0.03-0.48h0.8c0.01,0.11,0.02,0.23,0.03,0.37
		c0.01,0.14,0.01,0.26,0.01,0.35h0.03c0.12-0.25,0.3-0.46,0.53-0.61c0.23-0.15,0.49-0.23,0.78-0.23c0.13,0,0.24,0.01,0.33,0.04
		l-0.04,0.78c-0.12-0.03-0.25-0.04-0.39-0.04c-0.2,0-0.38,0.04-0.53,0.11c-0.15,0.07-0.27,0.17-0.37,0.3
		c-0.1,0.13-0.17,0.27-0.22,0.44c-0.05,0.17-0.07,0.34-0.07,0.52v2.24h-0.85v-3.35C204.2,493.13,204.19,492.98,204.19,492.8z"/>
	<path class="st0" d="M211.28,494.42c0,0.05,0,0.1,0,0.14c0,0.05,0,0.1-0.01,0.14h-3.39c0.01,0.18,0.05,0.35,0.12,0.5
		s0.18,0.29,0.3,0.41s0.27,0.21,0.44,0.27s0.34,0.1,0.53,0.1c0.29,0,0.54-0.06,0.75-0.19s0.38-0.28,0.5-0.46l0.59,0.48
		c-0.23,0.3-0.5,0.52-0.81,0.67c-0.31,0.14-0.65,0.21-1.03,0.21c-0.32,0-0.62-0.05-0.9-0.16c-0.28-0.11-0.51-0.26-0.71-0.45
		c-0.2-0.2-0.35-0.43-0.47-0.71c-0.11-0.28-0.17-0.58-0.17-0.92c0-0.33,0.06-0.63,0.17-0.91c0.11-0.28,0.27-0.52,0.46-0.72
		s0.43-0.35,0.7-0.46c0.27-0.11,0.56-0.17,0.87-0.17c0.31,0,0.6,0.05,0.85,0.15c0.26,0.1,0.47,0.25,0.65,0.44
		c0.18,0.19,0.31,0.42,0.41,0.7C211.23,493.77,211.28,494.08,211.28,494.42z M210.41,494.08c-0.01-0.17-0.03-0.33-0.08-0.47
		s-0.13-0.27-0.23-0.38c-0.1-0.11-0.22-0.19-0.37-0.26c-0.15-0.06-0.32-0.09-0.52-0.09c-0.18,0-0.35,0.03-0.51,0.09
		c-0.16,0.06-0.3,0.15-0.41,0.26c-0.12,0.11-0.21,0.24-0.29,0.38s-0.12,0.3-0.13,0.47H210.41z"/>
	<path class="st0" d="M215.05,493.83c0-0.32-0.1-0.55-0.29-0.71c-0.19-0.15-0.45-0.23-0.76-0.23c-0.24,0-0.47,0.05-0.68,0.14
		s-0.39,0.21-0.54,0.36l-0.45-0.54c0.21-0.2,0.47-0.35,0.77-0.47s0.63-0.17,0.98-0.17c0.31,0,0.57,0.04,0.8,0.13
		c0.22,0.09,0.41,0.21,0.55,0.36c0.14,0.15,0.25,0.33,0.32,0.53s0.11,0.42,0.11,0.66v1.86c0,0.14,0,0.29,0.01,0.45
		c0.01,0.16,0.03,0.29,0.05,0.39h-0.76c-0.05-0.2-0.07-0.41-0.07-0.61h-0.03c-0.16,0.23-0.35,0.41-0.59,0.53
		c-0.24,0.13-0.52,0.19-0.84,0.19c-0.17,0-0.34-0.02-0.53-0.07c-0.18-0.04-0.35-0.12-0.5-0.22c-0.15-0.1-0.27-0.24-0.37-0.41
		s-0.15-0.38-0.15-0.62c0-0.32,0.09-0.58,0.26-0.77c0.17-0.19,0.4-0.33,0.68-0.43c0.28-0.1,0.6-0.16,0.95-0.19
		c0.35-0.03,0.71-0.05,1.07-0.05V493.83z M214.84,494.55c-0.21,0-0.43,0.01-0.65,0.03c-0.22,0.02-0.43,0.05-0.61,0.11
		c-0.18,0.05-0.33,0.14-0.45,0.24c-0.12,0.11-0.18,0.25-0.18,0.43c0,0.13,0.03,0.23,0.08,0.31s0.12,0.15,0.2,0.21
		s0.18,0.09,0.28,0.11c0.1,0.02,0.21,0.03,0.32,0.03c0.4,0,0.7-0.12,0.91-0.36c0.21-0.24,0.32-0.54,0.32-0.9v-0.23H214.84z"/>
	<path class="st0" d="M219.27,493.02h-1.13v2.22c0,0.26,0.05,0.44,0.14,0.55c0.1,0.11,0.25,0.17,0.46,0.17
		c0.08,0,0.16-0.01,0.25-0.03s0.17-0.04,0.24-0.07l0.03,0.69c-0.1,0.04-0.21,0.06-0.34,0.08c-0.12,0.02-0.25,0.03-0.38,0.03
		c-0.4,0-0.71-0.11-0.92-0.33s-0.32-0.55-0.32-1v-2.31h-0.82v-0.69h0.82v-1.22h0.84v1.22h1.13V493.02z"/>
	<path class="st0" d="M224.13,494.42c0,0.05,0,0.1,0,0.14c0,0.05,0,0.1-0.01,0.14h-3.39c0.01,0.18,0.05,0.35,0.12,0.5
		s0.18,0.29,0.3,0.41s0.27,0.21,0.44,0.27s0.34,0.1,0.53,0.1c0.29,0,0.54-0.06,0.75-0.19s0.38-0.28,0.5-0.46l0.59,0.48
		c-0.23,0.3-0.5,0.52-0.81,0.67c-0.31,0.14-0.65,0.21-1.03,0.21c-0.32,0-0.62-0.05-0.9-0.16c-0.28-0.11-0.51-0.26-0.71-0.45
		c-0.2-0.2-0.35-0.43-0.47-0.71c-0.11-0.28-0.17-0.58-0.17-0.92c0-0.33,0.06-0.63,0.17-0.91c0.11-0.28,0.27-0.52,0.46-0.72
		s0.43-0.35,0.7-0.46c0.27-0.11,0.56-0.17,0.87-0.17c0.31,0,0.6,0.05,0.85,0.15c0.26,0.1,0.47,0.25,0.65,0.44
		c0.18,0.19,0.31,0.42,0.41,0.7C224.08,493.77,224.13,494.08,224.13,494.42z M223.27,494.08c-0.01-0.17-0.03-0.33-0.08-0.47
		s-0.13-0.27-0.23-0.38c-0.1-0.11-0.22-0.19-0.37-0.26c-0.15-0.06-0.32-0.09-0.52-0.09c-0.18,0-0.35,0.03-0.51,0.09
		c-0.16,0.06-0.3,0.15-0.41,0.26c-0.12,0.11-0.21,0.24-0.29,0.38s-0.12,0.3-0.13,0.47H223.27z"/>
	<path class="st0" d="M228.7,495.91c-0.16,0.26-0.38,0.45-0.66,0.59c-0.28,0.14-0.57,0.2-0.88,0.2c-0.33,0-0.63-0.06-0.89-0.18
		c-0.26-0.12-0.49-0.28-0.67-0.48c-0.19-0.2-0.33-0.44-0.43-0.72c-0.1-0.28-0.15-0.57-0.15-0.88c0-0.31,0.05-0.6,0.15-0.88
		c0.1-0.27,0.25-0.51,0.44-0.72c0.19-0.2,0.42-0.36,0.68-0.48s0.55-0.17,0.87-0.17c0.35,0,0.65,0.07,0.91,0.22
		c0.26,0.15,0.46,0.33,0.61,0.54h0.02v-3.18h0.85v6.8h-0.82v-0.67H228.7z M225.9,494.45c0,0.2,0.03,0.39,0.09,0.57
		c0.06,0.19,0.15,0.35,0.27,0.49s0.27,0.26,0.44,0.35c0.17,0.09,0.38,0.13,0.61,0.13c0.22,0,0.41-0.04,0.59-0.13s0.33-0.2,0.46-0.34
		s0.22-0.3,0.29-0.49c0.07-0.19,0.1-0.38,0.1-0.58c0-0.2-0.03-0.4-0.1-0.58c-0.07-0.19-0.17-0.35-0.29-0.49s-0.28-0.26-0.46-0.34
		c-0.18-0.08-0.37-0.13-0.59-0.13c-0.23,0-0.44,0.04-0.61,0.13c-0.17,0.08-0.32,0.2-0.44,0.34s-0.21,0.31-0.27,0.49
		C225.92,494.06,225.9,494.25,225.9,494.45z"/>
	<path class="st0" d="M233.58,492.32l0.96,3.26h0.02l1.02-3.26h0.89l1.04,3.26h0.02l0.96-3.26h0.89l-1.41,4.27h-0.88l-1.05-3.2
		h-0.02l-1.04,3.2h-0.88l-1.42-4.27H233.58z"/>
	<path class="st0" d="M241.21,490.78c0,0.16-0.05,0.29-0.17,0.39c-0.11,0.1-0.24,0.15-0.4,0.15c-0.15,0-0.29-0.05-0.39-0.16
		c-0.11-0.1-0.16-0.23-0.16-0.38c0-0.16,0.05-0.29,0.16-0.39c0.11-0.11,0.24-0.16,0.39-0.16c0.16,0,0.29,0.05,0.4,0.16
		C241.16,490.5,241.21,490.63,241.21,490.78z M241.08,496.59h-0.85v-4.27h0.85V496.59z"/>
	<path class="st0" d="M244.64,493.02h-1.13v2.22c0,0.26,0.05,0.44,0.14,0.55c0.1,0.11,0.25,0.17,0.46,0.17
		c0.08,0,0.16-0.01,0.25-0.03s0.17-0.04,0.24-0.07l0.03,0.69c-0.1,0.04-0.21,0.06-0.34,0.08c-0.12,0.02-0.25,0.03-0.38,0.03
		c-0.4,0-0.71-0.11-0.92-0.33s-0.32-0.55-0.32-1v-2.31h-0.82v-0.69h0.82v-1.22h0.84v1.22h1.13V493.02z"/>
	<path class="st0" d="M246.4,492.97c0.1-0.21,0.28-0.39,0.52-0.54c0.25-0.15,0.52-0.22,0.83-0.22c0.28,0,0.51,0.05,0.71,0.14
		c0.2,0.09,0.36,0.22,0.5,0.37s0.23,0.34,0.29,0.55c0.06,0.21,0.09,0.44,0.09,0.67v2.65h-0.85v-2.36c0-0.17-0.01-0.34-0.04-0.5
		c-0.03-0.16-0.08-0.29-0.15-0.42c-0.07-0.12-0.17-0.22-0.29-0.29s-0.28-0.11-0.48-0.11c-0.34,0-0.61,0.13-0.83,0.38
		c-0.22,0.25-0.32,0.6-0.32,1.02v2.26h-0.85v-6.8h0.85v3.19H246.4z"/>
	<path class="st0" d="M42.76,506.6c-0.25,0.34-0.58,0.62-0.98,0.83s-0.88,0.32-1.45,0.32c-0.49,0-0.93-0.08-1.35-0.25
		c-0.41-0.16-0.77-0.4-1.06-0.69s-0.53-0.65-0.7-1.06c-0.17-0.41-0.25-0.86-0.25-1.35c0-0.5,0.09-0.95,0.26-1.36
		s0.41-0.76,0.71-1.05c0.3-0.29,0.66-0.52,1.08-0.68s0.86-0.24,1.35-0.24c0.22,0,0.44,0.02,0.66,0.06c0.22,0.04,0.44,0.1,0.64,0.19
		c0.2,0.08,0.39,0.19,0.56,0.31s0.31,0.27,0.43,0.43l-0.7,0.54c-0.16-0.22-0.38-0.39-0.66-0.54c-0.29-0.14-0.59-0.21-0.92-0.21
		c-0.37,0-0.71,0.07-1,0.2c-0.3,0.14-0.55,0.32-0.76,0.55c-0.21,0.23-0.37,0.51-0.49,0.81c-0.11,0.31-0.17,0.64-0.17,0.99
		c0,0.36,0.06,0.7,0.17,1.01c0.11,0.31,0.27,0.58,0.48,0.81c0.21,0.23,0.46,0.41,0.76,0.54c0.3,0.13,0.63,0.2,0.99,0.2
		c0.36,0,0.69-0.07,0.98-0.22c0.29-0.14,0.54-0.35,0.73-0.63L42.76,506.6z"/>
	<path class="st0" d="M47.83,505.45c0,0.33-0.06,0.63-0.18,0.91c-0.12,0.28-0.28,0.51-0.49,0.72s-0.45,0.36-0.73,0.47
		c-0.28,0.11-0.58,0.17-0.91,0.17c-0.32,0-0.63-0.06-0.91-0.17c-0.28-0.11-0.52-0.27-0.73-0.47s-0.36-0.44-0.48-0.72
		c-0.12-0.28-0.18-0.58-0.18-0.91s0.06-0.63,0.18-0.91c0.12-0.27,0.28-0.51,0.48-0.71s0.45-0.35,0.73-0.46
		c0.28-0.11,0.58-0.17,0.91-0.17c0.32,0,0.63,0.06,0.91,0.17c0.28,0.11,0.53,0.27,0.73,0.46s0.37,0.43,0.49,0.71
		C47.77,504.82,47.83,505.12,47.83,505.45z M46.95,505.45c0-0.2-0.03-0.4-0.09-0.58c-0.06-0.19-0.15-0.35-0.28-0.49
		s-0.27-0.25-0.45-0.34c-0.18-0.08-0.38-0.13-0.61-0.13c-0.23,0-0.43,0.04-0.61,0.13c-0.18,0.08-0.33,0.2-0.45,0.34
		c-0.12,0.14-0.21,0.3-0.28,0.49s-0.09,0.38-0.09,0.58c0,0.2,0.03,0.4,0.09,0.58c0.06,0.18,0.16,0.35,0.28,0.49
		c0.12,0.14,0.27,0.26,0.45,0.34c0.18,0.08,0.38,0.13,0.61,0.13c0.23,0,0.43-0.04,0.61-0.13c0.18-0.08,0.33-0.2,0.45-0.34
		s0.21-0.31,0.28-0.49C46.92,505.85,46.95,505.66,46.95,505.45z"/>
	<path class="st0" d="M53.32,505.45c0,0.33-0.06,0.63-0.18,0.91c-0.12,0.28-0.28,0.51-0.49,0.72s-0.45,0.36-0.73,0.47
		c-0.28,0.11-0.58,0.17-0.91,0.17c-0.32,0-0.63-0.06-0.91-0.17c-0.28-0.11-0.52-0.27-0.73-0.47s-0.36-0.44-0.48-0.72
		c-0.12-0.28-0.18-0.58-0.18-0.91s0.06-0.63,0.18-0.91c0.12-0.27,0.28-0.51,0.48-0.71s0.45-0.35,0.73-0.46
		c0.28-0.11,0.58-0.17,0.91-0.17c0.32,0,0.63,0.06,0.91,0.17c0.28,0.11,0.53,0.27,0.73,0.46s0.37,0.43,0.49,0.71
		C53.26,504.82,53.32,505.12,53.32,505.45z M52.44,505.45c0-0.2-0.03-0.4-0.09-0.58c-0.06-0.19-0.15-0.35-0.28-0.49
		s-0.27-0.25-0.45-0.34c-0.18-0.08-0.38-0.13-0.61-0.13c-0.23,0-0.43,0.04-0.61,0.13c-0.18,0.08-0.33,0.2-0.45,0.34
		c-0.12,0.14-0.21,0.3-0.28,0.49s-0.09,0.38-0.09,0.58c0,0.2,0.03,0.4,0.09,0.58c0.06,0.18,0.16,0.35,0.28,0.49
		c0.12,0.14,0.27,0.26,0.45,0.34c0.18,0.08,0.38,0.13,0.61,0.13c0.23,0,0.43-0.04,0.61-0.13c0.18-0.08,0.33-0.2,0.45-0.34
		s0.21-0.31,0.28-0.49C52.41,505.85,52.44,505.66,52.44,505.45z"/>
	<path class="st0" d="M55.36,507.59h-0.85v-6.8h0.85V507.59z"/>
	<path class="st0" d="M60.04,502.4c-0.13-0.17-0.3-0.32-0.51-0.43c-0.22-0.11-0.46-0.17-0.73-0.17c-0.14,0-0.29,0.02-0.44,0.06
		c-0.15,0.04-0.28,0.1-0.4,0.19s-0.22,0.19-0.29,0.32c-0.07,0.13-0.11,0.28-0.11,0.46c0,0.17,0.03,0.32,0.1,0.44s0.16,0.22,0.28,0.3
		c0.12,0.08,0.25,0.15,0.41,0.21s0.33,0.12,0.51,0.18c0.22,0.07,0.43,0.14,0.66,0.22s0.42,0.2,0.6,0.33
		c0.18,0.14,0.33,0.31,0.44,0.52c0.11,0.21,0.17,0.47,0.17,0.79c0,0.33-0.06,0.62-0.18,0.86c-0.12,0.24-0.29,0.44-0.49,0.6
		s-0.44,0.28-0.71,0.36s-0.54,0.12-0.82,0.12c-0.4,0-0.79-0.08-1.17-0.23c-0.38-0.16-0.69-0.39-0.93-0.69l0.69-0.58
		c0.15,0.22,0.35,0.4,0.6,0.54c0.25,0.14,0.52,0.21,0.82,0.21c0.15,0,0.3-0.02,0.45-0.06s0.29-0.11,0.41-0.2
		c0.12-0.09,0.22-0.2,0.3-0.34c0.08-0.14,0.12-0.3,0.12-0.49c0-0.19-0.04-0.35-0.12-0.48c-0.08-0.13-0.19-0.24-0.33-0.33
		s-0.3-0.17-0.48-0.23c-0.18-0.06-0.38-0.13-0.58-0.19c-0.2-0.06-0.4-0.13-0.6-0.22c-0.2-0.09-0.38-0.2-0.53-0.33
		c-0.16-0.13-0.28-0.3-0.38-0.5c-0.1-0.2-0.14-0.44-0.14-0.74c0-0.32,0.06-0.59,0.19-0.82c0.13-0.23,0.3-0.42,0.5-0.57
		c0.21-0.15,0.44-0.26,0.7-0.33c0.26-0.07,0.52-0.1,0.79-0.1c0.37,0,0.72,0.07,1.04,0.2c0.32,0.13,0.58,0.31,0.78,0.53L60.04,502.4z
		"/>
	<path class="st0" d="M64.94,504.4c-0.09-0.14-0.22-0.25-0.4-0.35s-0.37-0.14-0.58-0.14c-0.22,0-0.42,0.04-0.59,0.13
		s-0.32,0.2-0.44,0.34c-0.12,0.14-0.21,0.3-0.27,0.49c-0.06,0.19-0.09,0.38-0.09,0.58s0.03,0.4,0.09,0.58
		c0.06,0.19,0.15,0.35,0.27,0.49c0.12,0.14,0.27,0.25,0.44,0.34c0.17,0.08,0.37,0.13,0.59,0.13c0.22,0,0.41-0.04,0.59-0.13
		c0.18-0.08,0.32-0.2,0.44-0.34l0.57,0.51c-0.18,0.21-0.4,0.37-0.67,0.49s-0.58,0.18-0.92,0.18c-0.33,0-0.63-0.05-0.91-0.16
		s-0.52-0.26-0.72-0.45c-0.2-0.2-0.36-0.43-0.48-0.71c-0.12-0.28-0.18-0.58-0.18-0.93c0-0.34,0.06-0.64,0.17-0.92
		c0.11-0.28,0.27-0.51,0.48-0.71c0.2-0.2,0.45-0.35,0.72-0.46c0.28-0.11,0.58-0.16,0.9-0.16c0.3,0,0.6,0.06,0.9,0.18
		s0.53,0.29,0.71,0.52L64.94,504.4z"/>
	<path class="st0" d="M69.4,507.59c-0.01-0.11-0.02-0.23-0.03-0.36s-0.01-0.25-0.01-0.34h-0.02c-0.11,0.23-0.29,0.42-0.54,0.58
		c-0.26,0.16-0.54,0.24-0.85,0.24c-0.28,0-0.51-0.04-0.72-0.13c-0.2-0.09-0.37-0.21-0.49-0.37c-0.13-0.16-0.23-0.34-0.29-0.55
		s-0.09-0.43-0.09-0.67v-2.65h0.85v2.36c0,0.17,0.01,0.34,0.04,0.5s0.08,0.3,0.15,0.42c0.07,0.12,0.17,0.22,0.3,0.29
		s0.29,0.11,0.49,0.11c0.34,0,0.62-0.13,0.83-0.38s0.31-0.6,0.31-1.02v-2.27h0.85v3.35c0,0.11,0,0.26,0.01,0.44
		c0.01,0.18,0.02,0.34,0.03,0.48H69.4z"/>
	<path class="st0" d="M72.5,507.59h-0.85v-6.8h0.85V507.59z"/>
	<path class="st0" d="M74.82,509.75h-0.85v-6.43h0.83v0.67h0.03c0.14-0.23,0.34-0.42,0.61-0.56c0.27-0.15,0.58-0.22,0.93-0.22
		c0.32,0,0.61,0.06,0.87,0.17c0.26,0.11,0.48,0.27,0.67,0.48c0.19,0.2,0.33,0.44,0.44,0.72c0.1,0.27,0.15,0.57,0.15,0.88
		c0,0.31-0.05,0.61-0.15,0.88c-0.1,0.28-0.25,0.52-0.43,0.72c-0.19,0.2-0.41,0.36-0.67,0.48c-0.26,0.12-0.56,0.18-0.89,0.18
		c-0.31,0-0.59-0.07-0.86-0.2c-0.27-0.13-0.48-0.32-0.64-0.56h-0.03V509.75z M77.63,505.45c0-0.2-0.03-0.39-0.09-0.58
		c-0.06-0.19-0.15-0.35-0.27-0.5c-0.12-0.14-0.27-0.26-0.45-0.34c-0.18-0.08-0.38-0.13-0.62-0.13c-0.22,0-0.41,0.04-0.59,0.13
		c-0.18,0.08-0.33,0.2-0.45,0.34c-0.13,0.14-0.22,0.31-0.29,0.5c-0.07,0.19-0.1,0.38-0.1,0.58s0.03,0.4,0.1,0.58
		c0.07,0.19,0.17,0.35,0.29,0.49c0.13,0.14,0.28,0.25,0.45,0.34c0.18,0.08,0.37,0.13,0.59,0.13c0.23,0,0.44-0.04,0.62-0.13
		c0.18-0.09,0.33-0.2,0.45-0.35c0.12-0.14,0.21-0.31,0.27-0.5C77.6,505.84,77.63,505.64,77.63,505.45z"/>
	<path class="st0" d="M81.77,504.02h-1.13v2.22c0,0.26,0.05,0.44,0.14,0.55c0.1,0.11,0.25,0.17,0.46,0.17
		c0.08,0,0.16-0.01,0.25-0.03s0.17-0.04,0.24-0.07l0.03,0.69c-0.1,0.04-0.21,0.06-0.34,0.08c-0.12,0.02-0.25,0.03-0.38,0.03
		c-0.4,0-0.71-0.11-0.92-0.33s-0.32-0.55-0.32-1v-2.31h-0.82v-0.69h0.82v-1.22h0.84v1.22h1.13V504.02z"/>
	<path class="st0" d="M83.63,501.78c0,0.16-0.06,0.29-0.17,0.39c-0.11,0.1-0.24,0.15-0.4,0.15c-0.15,0-0.29-0.05-0.39-0.16
		c-0.11-0.1-0.16-0.23-0.16-0.38c0-0.16,0.05-0.29,0.16-0.39c0.11-0.11,0.24-0.16,0.39-0.16c0.15,0,0.29,0.05,0.4,0.16
		C83.58,501.5,83.63,501.63,83.63,501.78z M83.5,507.59h-0.85v-4.27h0.85V507.59z"/>
	<path class="st0" d="M85.74,503.32c0.01,0.11,0.02,0.23,0.03,0.36s0.01,0.25,0.01,0.34h0.03c0.05-0.11,0.13-0.22,0.22-0.32
		c0.09-0.1,0.2-0.19,0.32-0.26c0.12-0.08,0.25-0.13,0.4-0.18s0.29-0.06,0.45-0.06c0.28,0,0.51,0.05,0.71,0.14
		c0.2,0.09,0.36,0.22,0.5,0.37s0.23,0.34,0.29,0.55s0.09,0.44,0.09,0.67v2.65h-0.85v-2.37c0-0.17-0.01-0.34-0.04-0.5
		c-0.03-0.16-0.08-0.29-0.15-0.41c-0.07-0.12-0.17-0.22-0.3-0.29c-0.13-0.07-0.29-0.11-0.49-0.11c-0.34,0-0.61,0.13-0.82,0.38
		c-0.21,0.25-0.32,0.59-0.32,1.02v2.27h-0.85v-3.35c0-0.11,0-0.26-0.01-0.44c-0.01-0.18-0.02-0.34-0.03-0.48H85.74z"/>
	<path class="st0" d="M90.55,508.32c0.19,0.21,0.42,0.38,0.7,0.5c0.28,0.13,0.57,0.19,0.86,0.19c0.28,0,0.52-0.04,0.71-0.12
		c0.19-0.08,0.35-0.19,0.46-0.33c0.12-0.14,0.2-0.31,0.25-0.5c0.05-0.19,0.08-0.4,0.08-0.62v-0.55h-0.02
		c-0.16,0.24-0.37,0.42-0.64,0.55s-0.56,0.19-0.86,0.19c-0.32,0-0.62-0.06-0.89-0.17s-0.49-0.27-0.68-0.47
		c-0.19-0.2-0.33-0.43-0.43-0.7c-0.1-0.27-0.15-0.55-0.15-0.86c0-0.31,0.05-0.59,0.15-0.86c0.1-0.27,0.25-0.5,0.43-0.71
		c0.19-0.2,0.41-0.36,0.67-0.48c0.26-0.12,0.56-0.18,0.88-0.18c0.31,0,0.6,0.07,0.88,0.2c0.28,0.13,0.5,0.33,0.66,0.6h0.02v-0.68
		h0.82v4.05c0,0.31-0.04,0.61-0.12,0.9c-0.08,0.29-0.21,0.54-0.4,0.76s-0.43,0.39-0.73,0.53c-0.3,0.13-0.67,0.2-1.12,0.2
		c-0.37,0-0.75-0.07-1.12-0.2c-0.38-0.13-0.7-0.33-0.97-0.57L90.55,508.32z M90.8,505.41c0,0.2,0.03,0.39,0.09,0.57
		c0.06,0.18,0.16,0.34,0.28,0.48s0.27,0.25,0.45,0.33c0.17,0.08,0.37,0.13,0.6,0.13c0.22,0,0.42-0.04,0.6-0.12
		c0.18-0.08,0.33-0.18,0.46-0.32s0.22-0.29,0.29-0.48c0.07-0.18,0.1-0.38,0.1-0.59c0-0.2-0.03-0.4-0.1-0.58s-0.17-0.34-0.3-0.48
		c-0.13-0.14-0.28-0.25-0.46-0.33s-0.37-0.12-0.59-0.12c-0.22,0-0.42,0.04-0.6,0.12c-0.17,0.08-0.32,0.19-0.45,0.32
		s-0.22,0.29-0.28,0.48C90.83,505.01,90.8,505.21,90.8,505.41z"/>
	<path class="st0" d="M99.09,506.8h3.33v0.79H98.2v-6.37h4.09V502h-3.19v1.91h3.01v0.76h-3.01V506.8z"/>
	<path class="st0" d="M104.42,507.59h-0.85v-6.8h0.85V507.59z"/>
	<path class="st0" d="M106.89,501.78c0,0.16-0.06,0.29-0.17,0.39c-0.11,0.1-0.24,0.15-0.4,0.15c-0.15,0-0.29-0.05-0.39-0.16
		c-0.11-0.1-0.16-0.23-0.16-0.38c0-0.16,0.05-0.29,0.16-0.39c0.11-0.11,0.24-0.16,0.39-0.16c0.15,0,0.29,0.05,0.4,0.16
		C106.83,501.5,106.89,501.63,106.89,501.78z M106.75,507.59h-0.85v-4.27h0.85V507.59z"/>
	<path class="st0" d="M110.32,504.02h-1.13v2.22c0,0.26,0.05,0.44,0.14,0.55c0.1,0.11,0.25,0.17,0.46,0.17
		c0.08,0,0.16-0.01,0.25-0.03s0.17-0.04,0.24-0.07l0.03,0.69c-0.1,0.04-0.21,0.06-0.34,0.08c-0.12,0.02-0.25,0.03-0.38,0.03
		c-0.4,0-0.71-0.11-0.92-0.33s-0.32-0.55-0.32-1v-2.31h-0.82v-0.69h0.82v-1.22h0.84v1.22h1.13V504.02z"/>
	<path class="st0" d="M115.18,505.42c0,0.05,0,0.1,0,0.14c0,0.05,0,0.1-0.01,0.14h-3.39c0.01,0.18,0.05,0.35,0.12,0.5
		c0.07,0.16,0.18,0.29,0.3,0.41s0.27,0.21,0.44,0.27s0.34,0.1,0.53,0.1c0.29,0,0.54-0.06,0.75-0.19s0.38-0.28,0.5-0.46l0.59,0.48
		c-0.23,0.3-0.5,0.52-0.81,0.67c-0.31,0.14-0.65,0.21-1.03,0.21c-0.32,0-0.62-0.05-0.9-0.16s-0.51-0.26-0.71-0.45
		c-0.2-0.2-0.35-0.43-0.47-0.71c-0.11-0.28-0.17-0.58-0.17-0.92c0-0.33,0.06-0.63,0.17-0.91c0.11-0.28,0.27-0.52,0.46-0.72
		c0.2-0.2,0.43-0.35,0.7-0.46c0.27-0.11,0.56-0.17,0.88-0.17c0.31,0,0.6,0.05,0.85,0.15c0.26,0.1,0.47,0.25,0.65,0.44
		c0.18,0.19,0.31,0.42,0.41,0.7C115.13,504.77,115.18,505.08,115.18,505.42z M114.31,505.08c-0.01-0.17-0.03-0.33-0.09-0.47
		c-0.05-0.15-0.13-0.27-0.23-0.38c-0.1-0.11-0.22-0.19-0.37-0.26c-0.15-0.06-0.32-0.09-0.52-0.09c-0.18,0-0.35,0.03-0.51,0.09
		c-0.16,0.06-0.3,0.15-0.41,0.26c-0.12,0.11-0.21,0.24-0.29,0.38c-0.07,0.15-0.12,0.3-0.13,0.47H114.31z"/>
	<path class="st0" d="M122.92,505.45c0,0.33-0.06,0.63-0.18,0.91c-0.12,0.28-0.28,0.51-0.49,0.72s-0.45,0.36-0.73,0.47
		c-0.28,0.11-0.58,0.17-0.91,0.17c-0.32,0-0.63-0.06-0.91-0.17c-0.28-0.11-0.52-0.27-0.73-0.47s-0.36-0.44-0.48-0.72
		c-0.12-0.28-0.18-0.58-0.18-0.91s0.06-0.63,0.18-0.91c0.12-0.27,0.28-0.51,0.48-0.71s0.45-0.35,0.73-0.46
		c0.28-0.11,0.58-0.17,0.91-0.17c0.32,0,0.63,0.06,0.91,0.17c0.28,0.11,0.53,0.27,0.73,0.46s0.37,0.43,0.49,0.71
		C122.86,504.82,122.92,505.12,122.92,505.45z M122.04,505.45c0-0.2-0.03-0.4-0.09-0.58c-0.06-0.19-0.15-0.35-0.28-0.49
		s-0.27-0.25-0.45-0.34c-0.18-0.08-0.38-0.13-0.61-0.13c-0.23,0-0.43,0.04-0.61,0.13c-0.18,0.08-0.33,0.2-0.45,0.34
		c-0.12,0.14-0.21,0.3-0.28,0.49s-0.09,0.38-0.09,0.58c0,0.2,0.03,0.4,0.09,0.58c0.06,0.18,0.16,0.35,0.28,0.49
		c0.12,0.14,0.27,0.26,0.45,0.34c0.18,0.08,0.38,0.13,0.61,0.13c0.23,0,0.43-0.04,0.61-0.13c0.18-0.08,0.33-0.2,0.45-0.34
		s0.21-0.31,0.28-0.49C122,505.85,122.04,505.66,122.04,505.45z"/>
	<path class="st0" d="M124.85,503.32c0.01,0.11,0.02,0.23,0.03,0.36s0.01,0.25,0.01,0.34h0.03c0.05-0.11,0.13-0.22,0.22-0.32
		c0.09-0.1,0.2-0.19,0.32-0.26c0.12-0.08,0.25-0.13,0.4-0.18s0.29-0.06,0.45-0.06c0.28,0,0.51,0.05,0.71,0.14
		c0.2,0.09,0.36,0.22,0.5,0.37s0.23,0.34,0.29,0.55s0.09,0.44,0.09,0.67v2.65h-0.85v-2.37c0-0.17-0.01-0.34-0.04-0.5
		c-0.03-0.16-0.08-0.29-0.15-0.41c-0.07-0.12-0.17-0.22-0.3-0.29c-0.13-0.07-0.29-0.11-0.49-0.11c-0.34,0-0.61,0.13-0.82,0.38
		c-0.21,0.25-0.32,0.59-0.32,1.02v2.27h-0.85v-3.35c0-0.11,0-0.26-0.01-0.44c-0.01-0.18-0.02-0.34-0.03-0.48H124.85z"/>
	<path class="st0" d="M132.46,503.97c0.1-0.21,0.28-0.39,0.52-0.54c0.25-0.15,0.52-0.22,0.83-0.22c0.28,0,0.51,0.05,0.71,0.14
		c0.2,0.09,0.36,0.22,0.5,0.37s0.23,0.34,0.29,0.55s0.09,0.44,0.09,0.67v2.65h-0.85v-2.36c0-0.17-0.01-0.34-0.04-0.5
		s-0.08-0.29-0.15-0.42c-0.07-0.12-0.17-0.22-0.29-0.29s-0.28-0.11-0.48-0.11c-0.34,0-0.61,0.13-0.83,0.38
		c-0.22,0.25-0.32,0.6-0.32,1.02v2.26h-0.85v-6.8h0.85v3.19H132.46z"/>
	<path class="st0" d="M140.82,505.42c0,0.05,0,0.1,0,0.14c0,0.05,0,0.1-0.01,0.14h-3.39c0.01,0.18,0.05,0.35,0.12,0.5
		c0.07,0.16,0.18,0.29,0.3,0.41s0.27,0.21,0.44,0.27s0.34,0.1,0.53,0.1c0.29,0,0.54-0.06,0.75-0.19s0.38-0.28,0.5-0.46l0.59,0.48
		c-0.23,0.3-0.5,0.52-0.81,0.67c-0.31,0.14-0.65,0.21-1.03,0.21c-0.32,0-0.62-0.05-0.9-0.16s-0.51-0.26-0.71-0.45
		c-0.2-0.2-0.35-0.43-0.47-0.71c-0.11-0.28-0.17-0.58-0.17-0.92c0-0.33,0.06-0.63,0.17-0.91c0.11-0.28,0.27-0.52,0.46-0.72
		c0.2-0.2,0.43-0.35,0.7-0.46c0.27-0.11,0.56-0.17,0.88-0.17c0.31,0,0.6,0.05,0.85,0.15c0.26,0.1,0.47,0.25,0.65,0.44
		c0.18,0.19,0.31,0.42,0.41,0.7C140.77,504.77,140.82,505.08,140.82,505.42z M139.96,505.08c-0.01-0.17-0.03-0.33-0.09-0.47
		c-0.05-0.15-0.13-0.27-0.23-0.38c-0.1-0.11-0.22-0.19-0.37-0.26c-0.15-0.06-0.32-0.09-0.52-0.09c-0.18,0-0.35,0.03-0.51,0.09
		c-0.16,0.06-0.3,0.15-0.41,0.26c-0.12,0.11-0.21,0.24-0.29,0.38c-0.07,0.15-0.12,0.3-0.13,0.47H139.96z"/>
	<path class="st0" d="M141.98,503.8c-0.01-0.18-0.02-0.34-0.03-0.48h0.8c0.01,0.11,0.02,0.23,0.03,0.37
		c0.01,0.14,0.01,0.26,0.01,0.35h0.03c0.12-0.25,0.3-0.46,0.53-0.61c0.23-0.15,0.49-0.23,0.78-0.23c0.13,0,0.24,0.01,0.33,0.04
		l-0.04,0.78c-0.12-0.03-0.25-0.04-0.39-0.04c-0.2,0-0.38,0.04-0.53,0.11c-0.15,0.07-0.27,0.17-0.37,0.3
		c-0.1,0.13-0.17,0.27-0.22,0.44s-0.07,0.34-0.07,0.52v2.24h-0.85v-3.35C141.99,504.13,141.99,503.98,141.98,503.8z"/>
	<path class="st0" d="M150.15,504.83c0-0.32-0.1-0.55-0.29-0.71c-0.19-0.15-0.45-0.23-0.77-0.23c-0.24,0-0.47,0.05-0.68,0.14
		s-0.39,0.21-0.54,0.36l-0.45-0.54c0.21-0.2,0.47-0.35,0.77-0.47c0.3-0.11,0.63-0.17,0.98-0.17c0.31,0,0.57,0.04,0.8,0.13
		c0.23,0.09,0.41,0.21,0.55,0.36c0.14,0.15,0.25,0.33,0.32,0.53c0.07,0.2,0.11,0.42,0.11,0.66v1.86c0,0.14,0,0.29,0.01,0.45
		s0.03,0.29,0.05,0.39h-0.77c-0.05-0.2-0.07-0.41-0.07-0.61h-0.03c-0.16,0.23-0.35,0.41-0.59,0.53c-0.24,0.13-0.52,0.19-0.84,0.19
		c-0.17,0-0.34-0.02-0.53-0.07c-0.18-0.04-0.35-0.12-0.5-0.22c-0.15-0.1-0.27-0.24-0.37-0.41s-0.15-0.38-0.15-0.62
		c0-0.32,0.09-0.58,0.26-0.77c0.17-0.19,0.4-0.33,0.68-0.43c0.28-0.1,0.6-0.16,0.95-0.19c0.35-0.03,0.71-0.05,1.07-0.05V504.83z
		 M149.94,505.55c-0.21,0-0.43,0.01-0.65,0.03c-0.23,0.02-0.43,0.05-0.61,0.11c-0.18,0.05-0.33,0.14-0.45,0.24
		c-0.12,0.11-0.18,0.25-0.18,0.43c0,0.13,0.03,0.23,0.08,0.31c0.05,0.08,0.12,0.15,0.2,0.21s0.18,0.09,0.28,0.11
		c0.1,0.02,0.21,0.03,0.31,0.03c0.4,0,0.7-0.12,0.91-0.36c0.21-0.24,0.32-0.54,0.32-0.9v-0.23H149.94z"/>
	<path class="st0" d="M153.21,506.91v0.67h-0.82v-6.8h0.85v3.18h0.03c0.14-0.21,0.34-0.39,0.6-0.54c0.26-0.15,0.56-0.22,0.92-0.22
		c0.32,0,0.61,0.06,0.87,0.17c0.26,0.11,0.48,0.27,0.67,0.48c0.19,0.2,0.33,0.44,0.44,0.72c0.1,0.27,0.15,0.57,0.15,0.88
		c0,0.31-0.05,0.61-0.15,0.88c-0.1,0.28-0.25,0.52-0.43,0.72s-0.41,0.36-0.67,0.48c-0.26,0.12-0.56,0.18-0.89,0.18
		c-0.31,0-0.6-0.07-0.87-0.2c-0.28-0.13-0.5-0.33-0.66-0.59H153.21z M156.05,505.45c0-0.2-0.03-0.39-0.09-0.57
		c-0.06-0.19-0.15-0.35-0.27-0.49s-0.27-0.26-0.45-0.34c-0.18-0.08-0.38-0.13-0.62-0.13c-0.22,0-0.41,0.04-0.59,0.13
		c-0.18,0.08-0.33,0.2-0.46,0.34s-0.22,0.31-0.29,0.49c-0.07,0.19-0.1,0.38-0.1,0.58c0,0.2,0.03,0.4,0.1,0.58
		c0.07,0.19,0.17,0.35,0.29,0.49s0.28,0.25,0.46,0.34s0.37,0.13,0.59,0.13c0.23,0,0.44-0.04,0.62-0.13c0.18-0.09,0.33-0.2,0.45-0.35
		s0.21-0.31,0.27-0.49C156.02,505.84,156.05,505.65,156.05,505.45z"/>
	<path class="st0" d="M161.5,506.91c-0.16,0.26-0.38,0.45-0.66,0.59c-0.28,0.14-0.57,0.2-0.88,0.2c-0.33,0-0.63-0.06-0.89-0.18
		c-0.26-0.12-0.49-0.28-0.67-0.48c-0.19-0.2-0.33-0.44-0.43-0.72c-0.1-0.28-0.15-0.57-0.15-0.88c0-0.31,0.05-0.6,0.15-0.88
		c0.1-0.27,0.25-0.51,0.44-0.72c0.19-0.2,0.42-0.36,0.68-0.48s0.55-0.17,0.87-0.17c0.35,0,0.65,0.07,0.91,0.22
		c0.26,0.15,0.46,0.33,0.61,0.54h0.02v-3.18h0.85v6.8h-0.82v-0.67H161.5z M158.69,505.45c0,0.2,0.03,0.39,0.09,0.57
		c0.06,0.19,0.15,0.35,0.27,0.49s0.27,0.26,0.44,0.35c0.17,0.09,0.38,0.13,0.61,0.13c0.22,0,0.41-0.04,0.59-0.13s0.33-0.2,0.46-0.34
		s0.22-0.3,0.29-0.49c0.07-0.19,0.1-0.38,0.1-0.58c0-0.2-0.03-0.4-0.1-0.58c-0.07-0.19-0.17-0.35-0.29-0.49s-0.28-0.26-0.46-0.34
		c-0.18-0.08-0.37-0.13-0.59-0.13c-0.23,0-0.44,0.04-0.61,0.13c-0.17,0.08-0.32,0.2-0.44,0.34s-0.21,0.31-0.27,0.49
		C158.72,505.06,158.69,505.25,158.69,505.45z"/>
	<path class="st0" d="M168.13,505.45c0,0.33-0.06,0.63-0.18,0.91c-0.12,0.28-0.28,0.51-0.49,0.72s-0.45,0.36-0.73,0.47
		c-0.28,0.11-0.58,0.17-0.91,0.17s-0.63-0.06-0.91-0.17c-0.28-0.11-0.53-0.27-0.73-0.47c-0.2-0.2-0.37-0.44-0.48-0.72
		c-0.12-0.28-0.18-0.58-0.18-0.91s0.06-0.63,0.18-0.91c0.12-0.27,0.28-0.51,0.48-0.71c0.2-0.2,0.45-0.35,0.73-0.46
		c0.28-0.11,0.58-0.17,0.91-0.17s0.63,0.06,0.91,0.17c0.28,0.11,0.53,0.27,0.73,0.46s0.37,0.43,0.49,0.71
		C168.07,504.82,168.13,505.12,168.13,505.45z M167.25,505.45c0-0.2-0.03-0.4-0.09-0.58s-0.16-0.35-0.28-0.49s-0.27-0.25-0.45-0.34
		c-0.18-0.08-0.38-0.13-0.61-0.13s-0.43,0.04-0.61,0.13c-0.18,0.08-0.33,0.2-0.45,0.34c-0.12,0.14-0.21,0.3-0.28,0.49
		c-0.06,0.19-0.09,0.38-0.09,0.58c0,0.2,0.03,0.4,0.09,0.58c0.06,0.18,0.15,0.35,0.28,0.49c0.12,0.14,0.27,0.26,0.45,0.34
		s0.38,0.13,0.61,0.13s0.43-0.04,0.61-0.13s0.33-0.2,0.45-0.34s0.21-0.31,0.28-0.49C167.22,505.85,167.25,505.66,167.25,505.45z"/>
	<path class="st0" d="M170.65,503.44c0.24-0.16,0.52-0.24,0.84-0.24c0.29,0,0.55,0.07,0.78,0.2c0.23,0.13,0.41,0.35,0.54,0.66
		c0.14-0.28,0.34-0.49,0.6-0.63c0.26-0.15,0.54-0.22,0.85-0.22c0.28,0,0.51,0.05,0.71,0.14c0.2,0.09,0.36,0.22,0.49,0.37
		c0.13,0.16,0.23,0.34,0.29,0.55c0.06,0.21,0.09,0.44,0.09,0.67v2.65h-0.85v-2.37c0-0.17-0.01-0.34-0.04-0.5
		c-0.03-0.16-0.08-0.29-0.15-0.41c-0.07-0.12-0.17-0.22-0.29-0.29c-0.12-0.07-0.27-0.11-0.46-0.11c-0.19,0-0.36,0.04-0.5,0.12
		c-0.14,0.08-0.25,0.19-0.34,0.32s-0.15,0.27-0.19,0.44s-0.06,0.33-0.06,0.5v2.3h-0.85v-2.54c0-0.17-0.02-0.32-0.05-0.46
		c-0.03-0.14-0.08-0.26-0.15-0.36s-0.17-0.18-0.28-0.23c-0.11-0.06-0.25-0.08-0.42-0.08c-0.31,0-0.57,0.13-0.78,0.38
		c-0.21,0.25-0.31,0.59-0.31,1.02v2.27h-0.85v-3.35c0-0.11,0-0.26-0.01-0.44s-0.01-0.34-0.03-0.48h0.8
		c0.01,0.11,0.02,0.23,0.03,0.36c0.01,0.13,0.01,0.25,0.01,0.34h0.03C170.24,503.8,170.41,503.6,170.65,503.44z"/>
	<path class="st0" d="M181.27,505.42c0,0.05,0,0.1,0,0.14c0,0.05,0,0.1-0.01,0.14h-3.39c0.01,0.18,0.05,0.35,0.12,0.5
		s0.18,0.29,0.3,0.41s0.27,0.21,0.44,0.27s0.34,0.1,0.53,0.1c0.29,0,0.54-0.06,0.75-0.19s0.38-0.28,0.5-0.46l0.59,0.48
		c-0.23,0.3-0.5,0.52-0.81,0.67c-0.31,0.14-0.65,0.21-1.03,0.21c-0.32,0-0.62-0.05-0.9-0.16c-0.28-0.11-0.51-0.26-0.71-0.45
		c-0.2-0.2-0.35-0.43-0.47-0.71c-0.11-0.28-0.17-0.58-0.17-0.92c0-0.33,0.06-0.63,0.17-0.91c0.11-0.28,0.27-0.52,0.46-0.72
		s0.43-0.35,0.7-0.46c0.27-0.11,0.56-0.17,0.87-0.17c0.31,0,0.6,0.05,0.85,0.15c0.26,0.1,0.47,0.25,0.65,0.44
		c0.18,0.19,0.31,0.42,0.41,0.7C181.23,504.77,181.27,505.08,181.27,505.42z M180.41,505.08c-0.01-0.17-0.03-0.33-0.08-0.47
		s-0.13-0.27-0.23-0.38c-0.1-0.11-0.22-0.19-0.37-0.26c-0.15-0.06-0.32-0.09-0.52-0.09c-0.18,0-0.35,0.03-0.51,0.09
		c-0.16,0.06-0.3,0.15-0.41,0.26c-0.12,0.11-0.21,0.24-0.29,0.38s-0.12,0.3-0.13,0.47H180.41z"/>
	<path class="st0" d="M183.21,503.32c0.01,0.11,0.02,0.23,0.03,0.36c0.01,0.13,0.01,0.25,0.01,0.34h0.03
		c0.05-0.11,0.13-0.22,0.22-0.32c0.09-0.1,0.2-0.19,0.32-0.26s0.25-0.13,0.4-0.18c0.14-0.04,0.29-0.06,0.45-0.06
		c0.28,0,0.51,0.05,0.71,0.14c0.2,0.09,0.36,0.22,0.5,0.37c0.13,0.16,0.23,0.34,0.29,0.55c0.06,0.21,0.09,0.44,0.09,0.67v2.65h-0.85
		v-2.37c0-0.17-0.01-0.34-0.04-0.5c-0.03-0.16-0.08-0.29-0.15-0.41c-0.07-0.12-0.17-0.22-0.3-0.29c-0.13-0.07-0.29-0.11-0.49-0.11
		c-0.34,0-0.61,0.13-0.82,0.38c-0.21,0.25-0.32,0.59-0.32,1.02v2.27h-0.85v-3.35c0-0.11,0-0.26-0.01-0.44s-0.01-0.34-0.03-0.48
		H183.21z"/>
	<path class="st0" d="M188.73,507.05c0,0.16-0.06,0.29-0.17,0.41c-0.11,0.12-0.26,0.18-0.43,0.18c-0.17,0-0.31-0.06-0.43-0.17
		c-0.12-0.12-0.17-0.25-0.17-0.41c0-0.16,0.06-0.3,0.17-0.42c0.11-0.12,0.26-0.18,0.43-0.18s0.32,0.06,0.43,0.17
		C188.67,506.75,188.73,506.89,188.73,507.05z"/>
	<path class="st0" d="M192.94,507.59h-0.89v-6.37h2.04c0.31,0,0.6,0.03,0.87,0.09c0.28,0.06,0.52,0.16,0.72,0.3
		c0.21,0.14,0.37,0.32,0.49,0.54c0.12,0.23,0.18,0.5,0.18,0.82c0,0.47-0.14,0.85-0.43,1.13s-0.66,0.47-1.12,0.55l1.78,2.92h-1.08
		l-1.62-2.83h-0.95V507.59z M192.94,504.01h1.03c0.21,0,0.4-0.02,0.58-0.05c0.18-0.04,0.34-0.09,0.47-0.18
		c0.14-0.08,0.24-0.19,0.32-0.32c0.08-0.13,0.12-0.29,0.12-0.48c0-0.19-0.04-0.35-0.12-0.48c-0.08-0.13-0.18-0.23-0.31-0.31
		c-0.13-0.08-0.28-0.13-0.46-0.17s-0.36-0.05-0.55-0.05h-1.09V504.01z"/>
	<path class="st0" d="M201.41,505.42c0,0.05,0,0.1,0,0.14c0,0.05,0,0.1-0.01,0.14h-3.39c0.01,0.18,0.05,0.35,0.12,0.5
		s0.18,0.29,0.3,0.41s0.27,0.21,0.44,0.27s0.34,0.1,0.53,0.1c0.29,0,0.54-0.06,0.75-0.19s0.38-0.28,0.5-0.46l0.59,0.48
		c-0.23,0.3-0.5,0.52-0.81,0.67c-0.31,0.14-0.65,0.21-1.03,0.21c-0.32,0-0.62-0.05-0.9-0.16c-0.28-0.11-0.51-0.26-0.71-0.45
		c-0.2-0.2-0.35-0.43-0.47-0.71c-0.11-0.28-0.17-0.58-0.17-0.92c0-0.33,0.06-0.63,0.17-0.91c0.11-0.28,0.27-0.52,0.46-0.72
		s0.43-0.35,0.7-0.46c0.27-0.11,0.56-0.17,0.87-0.17c0.31,0,0.6,0.05,0.85,0.15c0.26,0.1,0.47,0.25,0.65,0.44
		c0.18,0.19,0.31,0.42,0.41,0.7C201.36,504.77,201.41,505.08,201.41,505.42z M200.54,505.08c-0.01-0.17-0.03-0.33-0.08-0.47
		s-0.13-0.27-0.23-0.38c-0.1-0.11-0.22-0.19-0.37-0.26c-0.15-0.06-0.32-0.09-0.52-0.09c-0.18,0-0.35,0.03-0.51,0.09
		c-0.16,0.06-0.3,0.15-0.41,0.26c-0.12,0.11-0.21,0.24-0.29,0.38s-0.12,0.3-0.13,0.47H200.54z"/>
	<path class="st0" d="M204.88,504.4c-0.1-0.16-0.23-0.28-0.41-0.38c-0.17-0.1-0.37-0.15-0.58-0.15c-0.1,0-0.19,0.01-0.29,0.03
		c-0.1,0.02-0.18,0.05-0.26,0.1c-0.07,0.05-0.13,0.1-0.18,0.17c-0.04,0.07-0.07,0.15-0.07,0.26c0,0.18,0.08,0.31,0.24,0.4
		s0.41,0.17,0.73,0.24c0.2,0.05,0.39,0.1,0.57,0.17c0.17,0.07,0.33,0.15,0.45,0.25s0.23,0.22,0.3,0.36c0.07,0.14,0.11,0.3,0.11,0.49
		c0,0.25-0.05,0.46-0.14,0.64s-0.22,0.32-0.38,0.43c-0.16,0.11-0.34,0.19-0.54,0.24s-0.41,0.07-0.63,0.07
		c-0.32,0-0.64-0.06-0.95-0.19c-0.31-0.13-0.57-0.32-0.77-0.58l0.6-0.51c0.11,0.17,0.27,0.31,0.47,0.42
		c0.2,0.11,0.42,0.17,0.66,0.17c0.11,0,0.21-0.01,0.31-0.03c0.1-0.02,0.19-0.06,0.27-0.1s0.15-0.11,0.19-0.19s0.07-0.18,0.07-0.3
		c0-0.2-0.09-0.34-0.28-0.44c-0.19-0.1-0.47-0.19-0.83-0.27c-0.14-0.04-0.29-0.08-0.44-0.13c-0.15-0.05-0.28-0.12-0.4-0.21
		s-0.22-0.2-0.29-0.34c-0.08-0.14-0.11-0.3-0.11-0.5c0-0.23,0.05-0.42,0.14-0.59c0.09-0.16,0.21-0.3,0.36-0.4
		c0.15-0.11,0.32-0.18,0.51-0.23c0.19-0.05,0.39-0.08,0.59-0.08c0.31,0,0.6,0.06,0.89,0.18c0.29,0.12,0.51,0.29,0.66,0.52
		L204.88,504.4z"/>
	<path class="st0" d="M209.58,507.59c-0.01-0.11-0.02-0.23-0.03-0.36s-0.01-0.25-0.01-0.34h-0.02c-0.11,0.23-0.29,0.42-0.54,0.58
		c-0.25,0.16-0.54,0.24-0.85,0.24c-0.28,0-0.51-0.04-0.72-0.13c-0.2-0.09-0.37-0.21-0.5-0.37s-0.22-0.34-0.29-0.55
		c-0.06-0.21-0.09-0.43-0.09-0.67v-2.65h0.85v2.36c0,0.17,0.01,0.34,0.04,0.5c0.03,0.16,0.08,0.3,0.15,0.42
		c0.07,0.12,0.17,0.22,0.3,0.29s0.29,0.11,0.49,0.11c0.34,0,0.62-0.13,0.83-0.38s0.32-0.6,0.32-1.02v-2.27h0.85v3.35
		c0,0.11,0,0.26,0.01,0.44c0.01,0.18,0.01,0.34,0.03,0.48H209.58z"/>
	<path class="st0" d="M212.68,507.59h-0.85v-6.8h0.85V507.59z"/>
	<path class="st0" d="M216.24,504.02h-1.13v2.22c0,0.26,0.05,0.44,0.14,0.55c0.1,0.11,0.25,0.17,0.46,0.17
		c0.08,0,0.16-0.01,0.25-0.03s0.17-0.04,0.24-0.07l0.03,0.69c-0.1,0.04-0.21,0.06-0.34,0.08c-0.12,0.02-0.25,0.03-0.38,0.03
		c-0.4,0-0.71-0.11-0.92-0.33s-0.32-0.55-0.32-1v-2.31h-0.82v-0.69h0.82v-1.22h0.84v1.22h1.13V504.02z"/>
	<path class="st0" d="M219.42,504.4c-0.1-0.16-0.23-0.28-0.41-0.38c-0.17-0.1-0.37-0.15-0.58-0.15c-0.1,0-0.19,0.01-0.29,0.03
		c-0.1,0.02-0.18,0.05-0.26,0.1c-0.07,0.05-0.13,0.1-0.18,0.17c-0.04,0.07-0.07,0.15-0.07,0.26c0,0.18,0.08,0.31,0.24,0.4
		s0.41,0.17,0.73,0.24c0.2,0.05,0.39,0.1,0.57,0.17c0.17,0.07,0.33,0.15,0.45,0.25s0.23,0.22,0.3,0.36c0.07,0.14,0.11,0.3,0.11,0.49
		c0,0.25-0.05,0.46-0.14,0.64s-0.22,0.32-0.38,0.43c-0.16,0.11-0.34,0.19-0.54,0.24s-0.41,0.07-0.63,0.07
		c-0.32,0-0.64-0.06-0.95-0.19c-0.31-0.13-0.57-0.32-0.77-0.58l0.6-0.51c0.11,0.17,0.27,0.31,0.47,0.42
		c0.2,0.11,0.42,0.17,0.66,0.17c0.11,0,0.21-0.01,0.31-0.03c0.1-0.02,0.19-0.06,0.27-0.1s0.15-0.11,0.19-0.19s0.07-0.18,0.07-0.3
		c0-0.2-0.09-0.34-0.28-0.44c-0.19-0.1-0.47-0.19-0.83-0.27c-0.14-0.04-0.29-0.08-0.44-0.13c-0.15-0.05-0.28-0.12-0.4-0.21
		s-0.22-0.2-0.29-0.34c-0.08-0.14-0.11-0.3-0.11-0.5c0-0.23,0.05-0.42,0.14-0.59c0.09-0.16,0.21-0.3,0.36-0.4
		c0.15-0.11,0.32-0.18,0.51-0.23c0.19-0.05,0.39-0.08,0.59-0.08c0.31,0,0.6,0.06,0.89,0.18c0.29,0.12,0.51,0.29,0.66,0.52
		L219.42,504.4z"/>
	<path class="st0" d="M224.7,503.44c0.24-0.16,0.52-0.24,0.84-0.24c0.29,0,0.55,0.07,0.78,0.2c0.23,0.13,0.41,0.35,0.54,0.66
		c0.14-0.28,0.34-0.49,0.6-0.63c0.26-0.15,0.54-0.22,0.85-0.22c0.28,0,0.51,0.05,0.71,0.14c0.2,0.09,0.36,0.22,0.49,0.37
		c0.13,0.16,0.23,0.34,0.29,0.55c0.06,0.21,0.09,0.44,0.09,0.67v2.65h-0.85v-2.37c0-0.17-0.01-0.34-0.04-0.5
		c-0.03-0.16-0.08-0.29-0.15-0.41c-0.07-0.12-0.17-0.22-0.29-0.29c-0.12-0.07-0.27-0.11-0.46-0.11c-0.19,0-0.36,0.04-0.5,0.12
		c-0.14,0.08-0.25,0.19-0.34,0.32s-0.15,0.27-0.19,0.44s-0.06,0.33-0.06,0.5v2.3h-0.85v-2.54c0-0.17-0.02-0.32-0.05-0.46
		c-0.03-0.14-0.08-0.26-0.15-0.36s-0.17-0.18-0.28-0.23c-0.11-0.06-0.25-0.08-0.42-0.08c-0.31,0-0.57,0.13-0.78,0.38
		c-0.21,0.25-0.31,0.59-0.31,1.02v2.27h-0.85v-3.35c0-0.11,0-0.26-0.01-0.44s-0.01-0.34-0.03-0.48h0.8
		c0.01,0.11,0.02,0.23,0.03,0.36c0.01,0.13,0.01,0.25,0.01,0.34h0.03C224.29,503.8,224.47,503.6,224.7,503.44z"/>
	<path class="st0" d="M234,504.83c0-0.32-0.1-0.55-0.29-0.71c-0.19-0.15-0.45-0.23-0.76-0.23c-0.24,0-0.47,0.05-0.68,0.14
		s-0.39,0.21-0.54,0.36l-0.45-0.54c0.21-0.2,0.47-0.35,0.77-0.47s0.63-0.17,0.98-0.17c0.31,0,0.57,0.04,0.8,0.13
		c0.22,0.09,0.41,0.21,0.55,0.36c0.14,0.15,0.25,0.33,0.32,0.53s0.11,0.42,0.11,0.66v1.86c0,0.14,0,0.29,0.01,0.45
		c0.01,0.16,0.03,0.29,0.05,0.39h-0.76c-0.05-0.2-0.07-0.41-0.07-0.61h-0.03c-0.16,0.23-0.35,0.41-0.59,0.53
		c-0.24,0.13-0.52,0.19-0.84,0.19c-0.17,0-0.34-0.02-0.53-0.07c-0.18-0.04-0.35-0.12-0.5-0.22c-0.15-0.1-0.27-0.24-0.37-0.41
		s-0.15-0.38-0.15-0.62c0-0.32,0.09-0.58,0.26-0.77c0.17-0.19,0.4-0.33,0.68-0.43c0.28-0.1,0.6-0.16,0.95-0.19
		c0.35-0.03,0.71-0.05,1.07-0.05V504.83z M233.79,505.55c-0.21,0-0.43,0.01-0.65,0.03c-0.22,0.02-0.43,0.05-0.61,0.11
		c-0.18,0.05-0.33,0.14-0.45,0.24c-0.12,0.11-0.18,0.25-0.18,0.43c0,0.13,0.03,0.23,0.08,0.31s0.12,0.15,0.2,0.21
		s0.18,0.09,0.28,0.11c0.1,0.02,0.21,0.03,0.32,0.03c0.4,0,0.7-0.12,0.91-0.36c0.21-0.24,0.32-0.54,0.32-0.9v-0.23H233.79z"/>
	<path class="st0" d="M237.84,506.67h0.02l1.18-3.35h0.9l-2.07,5.27c-0.07,0.18-0.15,0.34-0.23,0.48c-0.08,0.14-0.18,0.26-0.3,0.36
		s-0.25,0.18-0.4,0.23s-0.33,0.08-0.54,0.08c-0.09,0-0.18,0-0.27-0.01c-0.09-0.01-0.19-0.03-0.28-0.05l0.08-0.75
		c0.14,0.05,0.29,0.07,0.42,0.07c0.22,0,0.39-0.06,0.5-0.18c0.11-0.12,0.21-0.3,0.3-0.53l0.27-0.71l-1.83-4.27h0.95L237.84,506.67z"
		/>
	<path class="st0" d="M245.01,507.59h-0.92l-1.74-4.27h0.94l1.25,3.36h0.02l1.26-3.36h0.9L245.01,507.59z"/>
	<path class="st0" d="M250.2,504.83c0-0.32-0.1-0.55-0.29-0.71c-0.19-0.15-0.45-0.23-0.76-0.23c-0.24,0-0.47,0.05-0.68,0.14
		s-0.39,0.21-0.54,0.36l-0.45-0.54c0.21-0.2,0.47-0.35,0.77-0.47s0.63-0.17,0.98-0.17c0.31,0,0.57,0.04,0.8,0.13
		c0.22,0.09,0.41,0.21,0.55,0.36c0.14,0.15,0.25,0.33,0.32,0.53s0.11,0.42,0.11,0.66v1.86c0,0.14,0,0.29,0.01,0.45
		c0.01,0.16,0.03,0.29,0.05,0.39h-0.76c-0.05-0.2-0.07-0.41-0.07-0.61h-0.03c-0.16,0.23-0.35,0.41-0.59,0.53
		c-0.24,0.13-0.52,0.19-0.84,0.19c-0.17,0-0.34-0.02-0.53-0.07c-0.18-0.04-0.35-0.12-0.5-0.22c-0.15-0.1-0.27-0.24-0.37-0.41
		s-0.15-0.38-0.15-0.62c0-0.32,0.09-0.58,0.26-0.77c0.17-0.19,0.4-0.33,0.68-0.43c0.28-0.1,0.6-0.16,0.95-0.19
		c0.35-0.03,0.71-0.05,1.07-0.05V504.83z M249.99,505.55c-0.21,0-0.43,0.01-0.65,0.03c-0.22,0.02-0.43,0.05-0.61,0.11
		c-0.18,0.05-0.33,0.14-0.45,0.24c-0.12,0.11-0.18,0.25-0.18,0.43c0,0.13,0.03,0.23,0.08,0.31s0.12,0.15,0.2,0.21
		s0.18,0.09,0.28,0.11c0.1,0.02,0.21,0.03,0.32,0.03c0.4,0,0.7-0.12,0.91-0.36c0.21-0.24,0.32-0.54,0.32-0.9v-0.23H249.99z"/>
	<path class="st0" d="M252.41,503.8c-0.01-0.18-0.01-0.34-0.03-0.48h0.8c0.01,0.11,0.02,0.23,0.03,0.37
		c0.01,0.14,0.01,0.26,0.01,0.35h0.03c0.12-0.25,0.3-0.46,0.53-0.61c0.23-0.15,0.49-0.23,0.78-0.23c0.13,0,0.24,0.01,0.33,0.04
		l-0.04,0.78c-0.12-0.03-0.25-0.04-0.39-0.04c-0.2,0-0.38,0.04-0.53,0.11c-0.15,0.07-0.27,0.17-0.37,0.3
		c-0.1,0.13-0.17,0.27-0.22,0.44c-0.05,0.17-0.07,0.34-0.07,0.52v2.24h-0.85v-3.35C252.42,504.13,252.42,503.98,252.41,503.8z"/>
	<path class="st0" d="M257.3,506.67h0.02l1.18-3.35h0.9l-2.07,5.27c-0.07,0.18-0.15,0.34-0.23,0.48c-0.08,0.14-0.18,0.26-0.3,0.36
		s-0.25,0.18-0.4,0.23s-0.33,0.08-0.54,0.08c-0.09,0-0.18,0-0.27-0.01c-0.09-0.01-0.19-0.03-0.28-0.05l0.08-0.75
		c0.14,0.05,0.29,0.07,0.42,0.07c0.22,0,0.39-0.06,0.5-0.18c0.11-0.12,0.21-0.3,0.3-0.53l0.27-0.71l-1.83-4.27h0.95L257.3,506.67z"
		/>
	<path class="st0" d="M260.94,507.05c0,0.16-0.06,0.29-0.17,0.41c-0.11,0.12-0.26,0.18-0.43,0.18c-0.17,0-0.31-0.06-0.43-0.17
		c-0.12-0.12-0.17-0.25-0.17-0.41c0-0.16,0.06-0.3,0.17-0.42c0.11-0.12,0.26-0.18,0.43-0.18s0.32,0.06,0.43,0.17
		C260.88,506.75,260.94,506.89,260.94,507.05z"/>
</g>
</svg>
