<?xml version="1.0" encoding="utf-8"?>
<!-- Generator: Adobe Illustrator 25.2.1, SVG Export Plug-In . SVG Version: 6.00 Build 0)  -->
<svg version="1.1" id="Layer_1" xmlns="http://www.w3.org/2000/svg" xmlns:xlink="http://www.w3.org/1999/xlink" x="0px" y="0px"
	 viewBox="0 0 300 600" style="enable-background:new 0 0 300 600;" xml:space="preserve">
<style type="text/css">
	.st0{fill:#FFFFFF;}
</style>
<g>
	<g>
		<g>
			<g>
				<path class="st0" d="M72.48,33.04c0,0.38-0.31,0.68-0.69,0.68c-0.39,0-0.7-0.3-0.7-0.68c0-0.38,0.31-0.68,0.7-0.68
					C72.17,32.37,72.48,32.66,72.48,33.04z M71.26,33.04c0,0.3,0.23,0.54,0.53,0.54c0.29,0,0.52-0.24,0.52-0.54
					c0-0.3-0.22-0.55-0.53-0.55C71.48,32.5,71.26,32.75,71.26,33.04z M71.67,33.4h-0.16v-0.68c0.06-0.01,0.15-0.02,0.26-0.02
					c0.13,0,0.19,0.02,0.23,0.05c0.04,0.03,0.07,0.08,0.07,0.14c0,0.08-0.06,0.14-0.14,0.16v0.01c0.07,0.02,0.1,0.07,0.12,0.17
					c0.02,0.1,0.04,0.14,0.05,0.17h-0.17c-0.02-0.02-0.03-0.08-0.05-0.17c-0.01-0.07-0.05-0.1-0.14-0.1h-0.07V33.4z M71.68,33.02
					h0.07c0.09,0,0.16-0.03,0.16-0.1c0-0.06-0.05-0.1-0.14-0.1c-0.04,0-0.07,0-0.09,0.01V33.02z"/>
			</g>
		</g>
	</g>
	<path class="st0" d="M82.63,30.68c-3.38,0-5-2.46-5-4.83c0-2.73,1.97-4.92,5.06-4.92c1.05,0,2.14,0.32,3,1.05l-0.96,1.33
		c-0.59-0.46-1.22-0.63-1.98-0.63c-1.64,0-2.86,1.14-2.86,3.11c0,1.79,1.13,3.23,2.92,3.23c0.76,0,1.43-0.23,2.02-0.75l0.88,1.34
		C84.87,30.34,83.72,30.68,82.63,30.68"/>
	<path class="st0" d="M90.9,30.68c-2.83,0-4.91-2.14-4.91-4.92c0-2.86,2.27-4.83,4.91-4.83c2.63,0,4.93,1.95,4.93,4.81
		C95.82,28.55,93.74,30.68,90.9,30.68 M93.55,25.76c0-1.72-0.84-3.21-2.65-3.21c-1.78,0-2.65,1.49-2.65,3.19
		c0,1.76,0.82,3.32,2.65,3.32c1.83,0,2.65-1.55,2.65-3.32V25.76z"/>
	<path class="st0" d="M101.55,30.68c-2.83,0-4.91-2.14-4.91-4.92c0-2.86,2.27-4.83,4.91-4.83c2.63,0,4.92,1.95,4.92,4.81
		C106.48,28.55,104.4,30.68,101.55,30.68 M104.2,25.76c0-1.72-0.84-3.21-2.65-3.21c-1.78,0-2.65,1.49-2.65,3.19
		c0,1.76,0.82,3.32,2.65,3.32c1.83,0,2.65-1.55,2.65-3.32V25.76z"/>
	<polygon class="st0" points="107.58,30.46 107.58,16.79 109.7,17.95 109.7,30.46 	"/>
	<path class="st0" d="M114.59,30.74c-2.39,0-3.53-1.15-3.53-1.15l0.96-1.24c0,0,1.09,0.73,2.52,0.73c0.69,0,1.26-0.48,1.26-0.95
		c0-0.48-0.21-0.88-0.84-1.2c-0.63-0.33-1.34-0.67-1.89-0.94c-0.55-0.27-1.77-1.09-1.77-2.7c0-1.62,1.64-2.52,3.32-2.52
		c1.6,0,2.83,1.05,2.83,1.05l-0.82,1.26c0,0-0.92-0.65-1.93-0.65c-1.01,0-1.22,0.65-1.22,0.92c0,0.27,0.1,0.69,0.74,1.03
		c0.65,0.34,1.32,0.71,2.27,1.24c0.95,0.53,1.49,1.45,1.49,2.48C117.97,29.14,116.98,30.74,114.59,30.74"/>
	<path class="st0" d="M123.7,30.68c-3.38,0-5-2.46-5-4.83c0-2.73,1.97-4.92,5.06-4.92c1.05,0,2.14,0.32,3,1.05l-0.95,1.33
		c-0.59-0.46-1.22-0.63-1.99-0.63c-1.64,0-2.86,1.14-2.86,3.11c0,1.79,1.13,3.23,2.92,3.23c0.76,0,1.43-0.23,2.02-0.75l0.88,1.34
		C125.93,30.34,124.78,30.68,123.7,30.68"/>
	<path class="st0" d="M134.14,29.37c0,0-1.07,1.32-3.09,1.32c-2.39,0-3.55-1.74-3.55-3.49v-6.05h2.12v5.96
		c0,1.03,0.8,1.89,2.04,1.89c1.09,0,2.16-1.3,2.16-1.3v-6.55h2.12v9.3L134.14,29.37z"/>
	<polygon class="st0" points="137.82,30.46 137.82,16.79 139.94,17.95 139.94,30.46 	"/>
	<path class="st0" d="M146.95,30.68c-1.87,0-2.94-1.05-2.94-1.05v4.64h-2.14V20.95l2.14,1.12c0,0,1.15-1.16,3.05-1.16
		c2.01,0,4.51,1.54,4.51,5C151.57,29.37,149.11,30.68,146.95,30.68 M146.82,22.55c-1.81,0-2.86,1.7-2.86,1.7v3.51
		c0,0,1.2,1.36,2.94,1.36c2.02,0,2.46-2.43,2.46-3.27C149.35,25.02,149.16,22.55,146.82,22.55"/>
	<path class="st0" d="M157.15,30.7h-1.34c-1.68,0-2.25-1.62-2.25-2.69v-5.48h-1.68v-1.39h1.68v-4.11h2.1v4.11h2.16v1.39h-2.14v4.96
		c0,0.55-0.1,1.43,0.84,1.43h1.53L157.15,30.7z"/>
	<path class="st0" d="M160.54,19.53c-0.76,0-1.39-0.63-1.39-1.39c0-0.77,0.63-1.39,1.39-1.39c0.76,0,1.39,0.63,1.39,1.39
		C161.94,18.9,161.31,19.53,160.54,19.53 M159.49,21.14h2.08v9.32h-2.08V21.14z"/>
	<path class="st0" d="M169.97,30.46V24.5c0-1.03-0.8-1.89-2.04-1.89c-1.09,0-2.31,1.3-2.31,1.3v6.55h-2.12v-9.3l1.79,1.07
		c0,0,1.22-1.32,3.25-1.32c2.39,0,3.55,1.74,3.55,3.49v6.05H169.97z"/>
	<path class="st0" d="M178.56,34.79c-0.32,0-2.81-0.04-2.81-0.04l0.04-1.7h2.09c2.02,0,3.17-1.09,3.17-2.58v-0.84
		c0,0-1.11,1.05-2.98,1.05c-2.16,0-4.62-1.32-4.62-4.78c0-3.46,2.5-5,4.51-5c1.91,0,3.05,1.16,3.05,1.16l2.14-1.07v9.26
		C183.15,32.76,181.49,34.79,178.56,34.79 M181.07,24.25c0,0-1.05-1.7-2.86-1.7c-2.35,0-2.54,2.46-2.54,3.3
		c0,0.84,0.44,3.27,2.46,3.27c1.74,0,2.94-1.36,2.94-1.36V24.25z"/>
	<polygon class="st0" points="58.65,37.52 58.65,31.43 59.85,30.23 63.3,33.69 63.3,34.84 	"/>
	<polygon class="st0" points="56.17,26.22 52.27,30.12 57.05,31.92 62.75,26.22 	"/>
	<polygon class="st0" points="58.1,20.78 53.07,20.78 54.68,25.42 62.75,25.42 	"/>
	<polygon class="st0" points="63.31,18.29 59.43,14.41 57.61,19.16 63.31,24.86 	"/>
	<polygon class="st0" points="75.05,30.86 69.31,30.86 64.66,26.22 72.72,26.22 	"/>
	<polygon class="st0" points="70.36,19.73 75.57,21.09 71.23,25.43 64.66,25.43 	"/>
	<polygon class="st0" points="64.1,16.8 68.75,14.04 68.75,20.21 64.1,24.86 	"/>
	<polygon class="st0" points="70.02,32.7 68.53,37.78 60.42,29.67 63.7,26.39 	"/>
	<g>
		<path class="st0" d="M186.31,21.77c0,0.55-0.44,0.99-1.01,0.99c-0.56,0-1.01-0.44-1.01-0.99c0-0.55,0.45-0.98,1.02-0.98
			C185.87,20.79,186.31,21.22,186.31,21.77z M184.54,21.77c0,0.44,0.33,0.79,0.77,0.79c0.42,0.01,0.75-0.35,0.75-0.78
			c0-0.44-0.32-0.79-0.76-0.79C184.87,20.99,184.54,21.34,184.54,21.77z M185.15,22.28h-0.23V21.3c0.09-0.01,0.22-0.03,0.38-0.03
			c0.19,0,0.27,0.03,0.34,0.08c0.06,0.04,0.1,0.12,0.1,0.21c0,0.12-0.09,0.2-0.2,0.23v0.01c0.1,0.03,0.14,0.11,0.17,0.24
			c0.03,0.15,0.05,0.21,0.07,0.24h-0.24c-0.03-0.03-0.05-0.12-0.08-0.24c-0.02-0.1-0.08-0.15-0.2-0.15h-0.11V22.28z M185.16,21.73
			h0.11c0.13,0,0.23-0.04,0.23-0.14c0-0.09-0.07-0.15-0.21-0.15c-0.06,0-0.1,0.01-0.13,0.01V21.73z"/>
	</g>
</g>
<g>
	<path class="st0" d="M192.13,20.23h6.61v1.55h-4.83v2.54h4.58v1.49h-4.58v2.82h5.08v1.58h-6.86V20.23z"/>
	<path class="st0" d="M204.1,20.23h1.77v8.39h4.24v1.58h-6.01V20.23z"/>
	<path class="st0" d="M214.68,20.23h1.77v9.97h-1.77V20.23z"/>
	<path class="st0" d="M224.04,21.78h-3.06v-1.55h7.89v1.55h-3.06v8.42h-1.77V21.78z"/>
	<path class="st0" d="M233.41,20.23h6.61v1.55h-4.83v2.54h4.58v1.49h-4.58v2.82h5.08v1.58h-6.86V20.23z"/>
</g>
</svg>
