<?xml version="1.0" encoding="utf-8"?>
<!-- Generator: Adobe Illustrator 25.2.1, SVG Export Plug-In . SVG Version: 6.00 Build 0)  -->
<svg version="1.1" id="Layer_1" xmlns="http://www.w3.org/2000/svg" xmlns:xlink="http://www.w3.org/1999/xlink" x="0px" y="0px"
	 viewBox="0 0 728 90" style="enable-background:new 0 0 728 90;" xml:space="preserve">
<style type="text/css">
	.st0{fill:#FFFFFF;}
</style>
<g>
	<path class="st0" d="M19.23,39.13h6.16v1.62H21.1v7.5h3.73v1.62H21.1v9.12h4.29v1.62h-6.16V39.13z"/>
	<path class="st0" d="M28.57,39.13h1.87v19.85h3.98v1.62h-5.85V39.13z"/>
	<path class="st0" d="M37.46,39.13h1.87V60.6h-1.87V39.13z"/>
	<path class="st0" d="M43.13,39.13h2.96l2.4,15.84h0.06l2.4-15.84h3.08V60.6h-1.87V41.4h-0.06l-2.89,19.2h-1.46l-2.89-19.2h-0.06
		v19.2h-1.65V39.13z"/>
	<path class="st0" d="M57.81,39.13h1.87V60.6h-1.87V39.13z"/>
	<path class="st0" d="M63.47,39.13h2.43l3.39,15.71h0.06V39.13h1.68V60.6h-2.02l-3.8-17.7h-0.06v17.7h-1.68V39.13z"/>
	<path class="st0" d="M76.82,39.13h2.46l2.71,21.47h-1.9l-0.62-5.32h-2.92l-0.62,5.32h-1.8L76.82,39.13z M79.28,53.66l-1.24-11.57
		h-0.06l-1.24,11.57H79.28z"/>
	<path class="st0" d="M85.87,40.75h-2.61v-1.62h7.09v1.62h-2.61V60.6h-1.87V40.75z"/>
	<path class="st0" d="M93.4,39.13h6.16v1.62h-4.29v7.5H99v1.62h-3.73v9.12h4.29v1.62H93.4V39.13z"/>
	<path class="st0" d="M107.68,57.08v-3.76h1.8v3.42c0,1.77,0.5,2.49,1.74,2.49c1.28,0,1.77-0.72,1.77-2.49V53.5
		c0-1.46-0.4-2.18-1.46-2.86l-1.65-1.06c-1.59-1.03-2.21-2.21-2.21-4.29v-2.77c0-2.36,1.28-3.7,3.48-3.7s3.48,1.34,3.48,3.7v2.77
		h-1.8v-2.46c0-1.68-0.47-2.33-1.65-2.33c-1.18,0-1.65,0.65-1.65,2.33v2.33c0,1.46,0.4,2.18,1.46,2.86l1.65,1.06
		c1.59,1.03,2.21,2.21,2.21,4.29v3.7c0,2.46-1.34,3.83-3.61,3.83C108.98,60.91,107.68,59.54,107.68,57.08z"/>
	<path class="st0" d="M120.03,40.75h-2.61v-1.62h7.09v1.62h-2.61V60.6h-1.87V40.75z"/>
	<path class="st0" d="M127.49,57.14V39.13h1.87V56.8c0,1.74,0.44,2.43,1.68,2.43c1.24,0,1.68-0.68,1.68-2.43V39.13h1.8v18.01
		c0,2.4-1.31,3.76-3.52,3.76C128.8,60.91,127.49,59.54,127.49,57.14z"/>
	<path class="st0" d="M138.26,39.13h3.45c2.49,0,3.67,1.28,3.67,3.89v2.58c0,1.74-0.53,2.8-1.62,3.3v0.06
		c1.18,0.5,1.74,1.56,1.74,3.36v4.39c0,2.61-1.18,3.89-3.67,3.89h-3.58V39.13z M141.49,48.25c1.56,0,2.02-0.59,2.02-2.55v-2.36
		c0-1.99-0.47-2.58-2.02-2.58h-1.37v7.5H141.49z M141.62,58.98c1.56,0,2.02-0.59,2.02-2.58v-3.95c0-1.99-0.47-2.58-2.02-2.58h-1.49
		v9.12H141.62z"/>
	<path class="st0" d="M149.02,39.13h3.45c2.49,0,3.67,1.28,3.67,3.89v2.58c0,1.74-0.53,2.8-1.62,3.3v0.06
		c1.18,0.5,1.74,1.56,1.74,3.36v4.39c0,2.61-1.18,3.89-3.67,3.89h-3.58V39.13z M152.26,48.25c1.56,0,2.02-0.59,2.02-2.55v-2.36
		c0-1.99-0.47-2.58-2.02-2.58h-1.37v7.5H152.26z M152.38,58.98c1.56,0,2.02-0.59,2.02-2.58v-3.95c0-1.99-0.47-2.58-2.02-2.58h-1.49
		v9.12H152.38z"/>
	<path class="st0" d="M159.66,57.02V42.71c0-2.49,1.34-3.89,3.61-3.89s3.61,1.4,3.61,3.89v14.31c0,2.49-1.34,3.89-3.61,3.89
		S159.66,59.51,159.66,57.02z M165.01,56.71V43.02c0-1.8-0.5-2.52-1.74-2.52c-1.28,0-1.74,0.72-1.74,2.52v13.69
		c0,1.8,0.47,2.52,1.74,2.52C164.52,59.23,165.01,58.51,165.01,56.71z"/>
	<path class="st0" d="M170.55,39.13H174c2.49,0,3.67,1.28,3.67,3.89v2.74c0,1.74-0.56,2.8-1.68,3.3v0.06
		c1.12,0.5,1.68,1.56,1.68,3.33v8.15h-1.87v-8.03c0-1.99-0.56-2.58-2.33-2.58h-1.06V60.6h-1.87V39.13z M173.79,48.37
		c1.56,0,2.02-0.59,2.02-2.58v-2.46c0-1.99-0.47-2.58-2.02-2.58h-1.37v7.62H173.79z"/>
	<path class="st0" d="M181.32,39.13h2.43l3.39,15.71h0.06V39.13h1.68V60.6h-2.02l-3.8-17.7H183v17.7h-1.68V39.13z"/>
	<path class="st0" d="M197.96,39.13h6.16v1.62h-4.29v7.81h3.73v1.62h-3.73V60.6h-1.87V39.13z"/>
	<path class="st0" d="M208.5,39.13h2.46l2.71,21.47h-1.9l-0.62-5.32h-2.92l-0.62,5.32h-1.8L208.5,39.13z M210.96,53.66l-1.24-11.57
		h-0.06l-1.24,11.57H210.96z"/>
	<path class="st0" d="M217.56,40.75h-2.61v-1.62h7.09v1.62h-2.61V60.6h-1.87V40.75z"/>
	<path class="st0" d="M20.53,77.75h-1.11V66.8h1.11V77.75z"/>
	<path class="st0" d="M31.85,76.13h0.03V66.8h1.11v10.95H31.6l-6.37-9.42H25.2v9.42h-1.11V66.8h1.39L31.85,76.13z"/>
	<path class="st0" d="M45.5,72.97l-0.03-0.03c-0.32,0.25-1.01,0.4-1.56,0.4c-1.9,0-3.34-1.38-3.34-3.37c0-2.04,1.5-3.45,3.56-3.45
		c2.06,0,3.56,1.41,3.56,3.45c0,1.13-0.45,2.09-0.99,2.97l-2.98,4.81h-1.28L45.5,72.97z M44.13,67.47c-1.44,0-2.44,1.08-2.44,2.51
		c0,1.41,0.94,2.47,2.44,2.47c1.5,0,2.44-1.07,2.44-2.47C46.57,68.55,45.57,67.47,44.13,67.47z"/>
	<path class="st0" d="M54.85,77.75h-1.22l4.73-10.95h1.08l4.7,10.95H62.9l-1.21-2.88h-5.66L54.85,77.75z M56.46,73.85h4.83
		l-2.41-5.81L56.46,73.85z"/>
	<path class="st0" d="M67.51,77.75H66.4V66.8h3.22c2.17,0,3.74,0.79,3.74,2.92c0,1.62-1.21,2.64-2.8,2.81l3.2,5.21H72.4l-3.03-5.12
		h-1.86V77.75z M67.51,71.67h1.93c1.78,0,2.8-0.65,2.8-1.95c0-1.44-1.1-1.96-2.75-1.96h-1.98V71.67z"/>
	<path class="st0" d="M77.43,76.76h5.86v0.99h-6.97V66.8h6.79v0.99h-5.68v3.77h5.3v0.97h-5.3V76.76z"/>
	<path class="st0" d="M86.04,77.75h-1.22l4.73-10.95h1.08l4.7,10.95H94.1l-1.21-2.88h-5.66L86.04,77.75z M87.65,73.85h4.83
		l-2.41-5.81L87.65,73.85z"/>
	<path class="st0" d="M102.9,68.57c-0.46-0.67-1.22-1.1-2.26-1.1c-1.08,0-2.34,0.65-2.34,2.06c0,1.39,1.16,1.75,2.38,2.15
		c1.55,0.51,3.25,1.01,3.25,3.2s-1.84,3.15-3.57,3.15c-1.33,0-2.66-0.54-3.45-1.62l0.96-0.71c0.48,0.77,1.36,1.38,2.51,1.38
		c1.13,0,2.43-0.71,2.43-2.12c0-1.53-1.28-1.92-2.68-2.35c-1.45-0.45-2.94-1.08-2.94-3.06c0-2.12,1.89-3.02,3.5-3.02
		c1.47,0,2.57,0.62,3.09,1.33L102.9,68.57z"/>
	<path class="st0" d="M116.6,78.03c-3.26,0-5.71-2.43-5.71-5.75c0-3.32,2.44-5.75,5.71-5.75c3.26,0,5.71,2.43,5.71,5.75
		C122.31,75.6,119.87,78.03,116.6,78.03z M116.6,67.5c-2.81,0-4.53,2.23-4.53,4.78s1.72,4.76,4.53,4.76c2.81,0,4.53-2.21,4.53-4.76
		S119.42,67.5,116.6,67.5z"/>
	<path class="st0" d="M133.05,76.13h0.03V66.8h1.11v10.95h-1.39l-6.37-9.42h-0.03v9.42h-1.11V66.8h1.39L133.05,76.13z"/>
	<path class="st0" d="M145.4,77.75h-1.11v-9.96h-3.67V66.8h8.44v0.99h-3.67V77.75z"/>
	<path class="st0" d="M151.36,66.8h1.11v4.75h5.97V66.8h1.11v10.95h-1.11v-5.18h-5.97v5.18h-1.11V66.8z"/>
	<path class="st0" d="M164.23,76.76h5.86v0.99h-6.97V66.8h6.79v0.99h-5.68v3.77h5.3v0.97h-5.3V76.76z"/>
	<path class="st0" d="M177.44,66.8h3.26c1.67,0,3.53,0.6,3.53,2.8c0,1.14-0.77,2.09-1.93,2.35v0.03c1.42,0.15,2.47,1.14,2.47,2.74
		c0,1.83-1.56,3.03-4.08,3.03h-3.25V66.8z M178.55,71.6h2.24c1.07,0,2.32-0.46,2.32-1.92c0-1.39-1.19-1.92-2.63-1.92h-1.93V71.6z
		 M178.55,76.79h2.07c1.61,0,3.02-0.6,3.02-2.13c0-1.44-1.04-2.15-2.81-2.15h-2.27V76.79z"/>
	<path class="st0" d="M193.04,78.03c-3.26,0-5.71-2.43-5.71-5.75c0-3.32,2.44-5.75,5.71-5.75c3.26,0,5.71,2.43,5.71,5.75
		C198.75,75.6,196.3,78.03,193.04,78.03z M193.04,67.5c-2.81,0-4.53,2.23-4.53,4.78s1.72,4.76,4.53,4.76c2.81,0,4.53-2.21,4.53-4.76
		S195.86,67.5,193.04,67.5z"/>
	<path class="st0" d="M201.72,66.8h3.63c2.74,0,5.75,1.83,5.75,5.47c0,3.65-3.02,5.47-5.75,5.47h-3.63V66.8z M202.83,76.76h2.21
		c3.29,0,4.89-2.23,4.89-4.48s-1.59-4.48-4.89-4.48h-2.21V76.76z"/>
	<path class="st0" d="M217.28,77.75h-1.11v-4.72l-4.1-6.23h1.39l3.29,5.3l3.32-5.3h1.3l-4.1,6.23V77.75z"/>
	<path class="st0" d="M222.83,77.84c-0.49,0-0.84-0.4-0.84-0.83s0.34-0.84,0.84-0.84s0.83,0.4,0.83,0.84S223.33,77.84,222.83,77.84z
		"/>
</g>
</svg>
