<?xml version="1.0" encoding="utf-8"?>
<!-- Generator: Adobe Illustrator 25.2.1, SVG Export Plug-In . SVG Version: 6.00 Build 0)  -->
<svg version="1.1" id="Layer_1" xmlns="http://www.w3.org/2000/svg" xmlns:xlink="http://www.w3.org/1999/xlink" x="0px" y="0px"
	 viewBox="0 0 728 90" style="enable-background:new 0 0 728 90;" xml:space="preserve">
<style type="text/css">
	.st0{fill:#EAF5FB;}
	.st1{fill:#002554;}
</style>
<rect x="394" y="8.5" class="st0" width="96.5" height="24.5"/>
<g>
	<path class="st1" d="M401.37,25.38v-8.49h2.06v6.7h3.29v1.79H401.37z"/>
	<path class="st1" d="M408.16,25.38v-8.49h5.71v1.74h-3.73v1.6h3.53v1.64h-3.53v1.76h3.95v1.75H408.16z"/>
	<path class="st1" d="M421.68,25.38l-0.66-1.67h-3.29l-0.62,1.67h-2.23l3.56-8.49h1.99l3.53,8.49H421.68z M419.4,19.15l-1.08,2.91
		h2.13L419.4,19.15z"/>
	<path class="st1" d="M429.7,25.38l-1.83-3.37h-0.7v3.37h-2.01v-8.49h3.24c1.63,0,3.25,0.62,3.25,2.57c0,1.14-0.67,1.96-1.76,2.29
		l2.22,3.63H429.7z M428.25,18.54h-1.09v1.98h0.97c0.66,0,1.49-0.17,1.49-1.03C429.62,18.7,428.86,18.54,428.25,18.54z"/>
	<path class="st1" d="M438.99,25.38l-3.42-5.55h-0.04l0.05,5.55h-1.99v-8.49h2.34l3.41,5.54h0.04l-0.05-5.54h1.99v8.49H438.99z"/>
	<path class="st1" d="M454.73,25.38l0.05-6.01h-0.04l-2.21,6.01h-1.44l-2.15-6.01h-0.04l0.05,6.01h-1.93v-8.49h2.91l1.93,5.44h0.05
		l1.85-5.44h2.96v8.49H454.73z"/>
	<path class="st1" d="M463.19,25.61c-2.65,0-4.62-1.82-4.62-4.51c0-2.72,1.97-4.44,4.62-4.44c2.66,0,4.63,1.72,4.63,4.44
		C467.82,23.78,465.85,25.61,463.19,25.61z M463.19,18.51c-1.44,0-2.42,1.1-2.42,2.59c0,1.54,1,2.64,2.42,2.64
		c1.43,0,2.43-1.1,2.43-2.64C465.63,19.61,464.63,18.51,463.19,18.51z"/>
	<path class="st1" d="M474.21,25.38l-1.83-3.37h-0.7v3.37h-2.01v-8.49h3.24c1.63,0,3.25,0.62,3.25,2.57c0,1.14-0.67,1.96-1.76,2.29
		l2.22,3.63H474.21z M472.75,18.54h-1.09v1.98h0.97c0.66,0,1.49-0.17,1.49-1.03C474.12,18.7,473.37,18.54,472.75,18.54z"/>
	<path class="st1" d="M478.1,25.38v-8.49h5.71v1.74h-3.73v1.6h3.53v1.64h-3.53v1.76h3.95v1.75H478.1z"/>
</g>
</svg>
