<?xml version="1.0" encoding="utf-8"?>
<!-- Generator: Adobe Illustrator 25.2.1, SVG Export Plug-In . SVG Version: 6.00 Build 0)  -->
<svg version="1.1" id="Layer_1" xmlns="http://www.w3.org/2000/svg" xmlns:xlink="http://www.w3.org/1999/xlink" x="0px" y="0px"
	 viewBox="0 0 728 90" style="enable-background:new 0 0 728 90;" xml:space="preserve">
<style type="text/css">
	.st0{fill:#FFFFFF;}
</style>
<g>
	<path class="st0" d="M417.21,49.68h-0.79v-5.66h1.82c0.27,0,0.53,0.03,0.78,0.08c0.25,0.06,0.46,0.15,0.64,0.27
		c0.18,0.12,0.33,0.28,0.44,0.48c0.11,0.2,0.16,0.44,0.16,0.73c0,0.42-0.13,0.75-0.38,1.01c-0.26,0.26-0.59,0.42-0.99,0.49l1.58,2.6
		h-0.96l-1.44-2.52h-0.85V49.68z M417.21,46.5h0.91c0.19,0,0.36-0.02,0.52-0.05c0.16-0.03,0.3-0.08,0.42-0.16s0.21-0.17,0.28-0.28
		c0.07-0.11,0.1-0.26,0.1-0.43c0-0.17-0.03-0.31-0.1-0.43s-0.16-0.21-0.28-0.28c-0.11-0.07-0.25-0.12-0.4-0.15
		c-0.15-0.03-0.32-0.04-0.49-0.04h-0.97V46.5z"/>
	<path class="st0" d="M422.17,44.52c0,0.14-0.05,0.25-0.15,0.34S421.81,45,421.67,45c-0.14,0-0.25-0.05-0.35-0.14
		c-0.09-0.09-0.14-0.21-0.14-0.34c0-0.14,0.05-0.25,0.14-0.35c0.1-0.09,0.21-0.14,0.35-0.14c0.14,0,0.25,0.05,0.35,0.14
		S422.17,44.38,422.17,44.52z M422.05,49.68h-0.75v-3.79h0.75V49.68z"/>
	<path class="st0" d="M425.73,47.22c0-0.28-0.08-0.49-0.26-0.63s-0.4-0.2-0.68-0.2c-0.21,0-0.42,0.04-0.6,0.12s-0.35,0.19-0.48,0.32
		l-0.4-0.48c0.19-0.18,0.42-0.31,0.68-0.42c0.27-0.1,0.56-0.15,0.87-0.15c0.27,0,0.51,0.04,0.71,0.12c0.2,0.08,0.36,0.18,0.49,0.32
		s0.22,0.29,0.29,0.47c0.06,0.18,0.1,0.38,0.1,0.58v1.66c0,0.13,0,0.26,0.01,0.4c0.01,0.14,0.02,0.26,0.04,0.35h-0.68
		c-0.04-0.18-0.06-0.36-0.06-0.54h-0.02c-0.14,0.2-0.31,0.36-0.52,0.47c-0.21,0.11-0.46,0.17-0.75,0.17c-0.15,0-0.31-0.02-0.47-0.06
		c-0.16-0.04-0.31-0.11-0.44-0.2c-0.13-0.09-0.24-0.21-0.33-0.36c-0.09-0.15-0.13-0.33-0.13-0.55c0-0.29,0.08-0.52,0.23-0.68
		c0.16-0.17,0.36-0.3,0.61-0.38s0.53-0.15,0.85-0.17c0.32-0.03,0.63-0.04,0.95-0.04V47.22z M425.54,47.87
		c-0.19,0-0.38,0.01-0.58,0.02c-0.2,0.02-0.38,0.05-0.54,0.1c-0.16,0.05-0.3,0.12-0.4,0.22c-0.11,0.1-0.16,0.22-0.16,0.38
		c0,0.11,0.02,0.21,0.07,0.28c0.04,0.07,0.11,0.14,0.18,0.18c0.08,0.05,0.16,0.08,0.25,0.1c0.09,0.02,0.18,0.03,0.28,0.03
		c0.35,0,0.62-0.11,0.81-0.32c0.19-0.21,0.28-0.48,0.28-0.8v-0.2H425.54z"/>
	<path class="st0" d="M429.98,45.89l0.86,2.9h0.02l0.9-2.9h0.79l0.92,2.9h0.02l0.86-2.9h0.79l-1.26,3.79h-0.78l-0.94-2.85h-0.02
		l-0.93,2.85h-0.78l-1.26-3.79H429.98z"/>
	<path class="st0" d="M438.25,47.22c0-0.28-0.08-0.49-0.26-0.63s-0.4-0.2-0.68-0.2c-0.21,0-0.42,0.04-0.6,0.12s-0.35,0.19-0.48,0.32
		l-0.4-0.48c0.19-0.18,0.42-0.31,0.68-0.42c0.27-0.1,0.56-0.15,0.87-0.15c0.27,0,0.51,0.04,0.71,0.12c0.2,0.08,0.36,0.18,0.49,0.32
		s0.22,0.29,0.29,0.47c0.06,0.18,0.1,0.38,0.1,0.58v1.66c0,0.13,0,0.26,0.01,0.4c0.01,0.14,0.02,0.26,0.04,0.35h-0.68
		c-0.04-0.18-0.06-0.36-0.06-0.54h-0.02c-0.14,0.2-0.31,0.36-0.52,0.47c-0.21,0.11-0.46,0.17-0.75,0.17c-0.15,0-0.31-0.02-0.47-0.06
		c-0.16-0.04-0.31-0.11-0.44-0.2c-0.13-0.09-0.24-0.21-0.33-0.36c-0.09-0.15-0.13-0.33-0.13-0.55c0-0.29,0.08-0.52,0.23-0.68
		c0.16-0.17,0.36-0.3,0.61-0.38s0.53-0.15,0.85-0.17c0.32-0.03,0.63-0.04,0.95-0.04V47.22z M438.06,47.87
		c-0.19,0-0.38,0.01-0.58,0.02c-0.2,0.02-0.38,0.05-0.54,0.1c-0.16,0.05-0.3,0.12-0.4,0.22c-0.11,0.1-0.16,0.22-0.16,0.38
		c0,0.11,0.02,0.21,0.07,0.28c0.04,0.07,0.11,0.14,0.18,0.18c0.08,0.05,0.16,0.08,0.25,0.1c0.09,0.02,0.18,0.03,0.28,0.03
		c0.35,0,0.62-0.11,0.81-0.32c0.19-0.21,0.28-0.48,0.28-0.8v-0.2H438.06z"/>
	<path class="st0" d="M442.27,46.85c-0.09-0.14-0.21-0.25-0.36-0.34s-0.33-0.13-0.52-0.13c-0.09,0-0.17,0.01-0.26,0.03
		c-0.08,0.02-0.16,0.05-0.23,0.09c-0.07,0.04-0.12,0.09-0.16,0.15c-0.04,0.06-0.06,0.14-0.06,0.23c0,0.16,0.07,0.28,0.22,0.36
		c0.14,0.08,0.36,0.15,0.65,0.21c0.18,0.04,0.35,0.09,0.5,0.15c0.15,0.06,0.29,0.13,0.4,0.22c0.12,0.09,0.2,0.19,0.27,0.32
		c0.06,0.12,0.1,0.27,0.1,0.43c0,0.22-0.04,0.41-0.13,0.57c-0.09,0.15-0.2,0.28-0.34,0.38c-0.14,0.1-0.3,0.17-0.48,0.21
		s-0.37,0.06-0.56,0.06c-0.29,0-0.57-0.06-0.84-0.17c-0.27-0.11-0.5-0.28-0.68-0.51l0.54-0.46c0.1,0.15,0.24,0.28,0.42,0.38
		c0.18,0.1,0.38,0.15,0.59,0.15c0.1,0,0.19-0.01,0.28-0.03s0.17-0.05,0.24-0.09c0.07-0.04,0.13-0.1,0.17-0.17
		c0.04-0.07,0.06-0.16,0.06-0.26c0-0.18-0.08-0.31-0.25-0.39c-0.17-0.08-0.42-0.17-0.74-0.24c-0.13-0.03-0.26-0.07-0.39-0.12
		c-0.13-0.05-0.25-0.11-0.36-0.19c-0.11-0.08-0.19-0.18-0.26-0.3s-0.1-0.27-0.1-0.44c0-0.2,0.04-0.38,0.12-0.52
		c0.08-0.15,0.19-0.27,0.32-0.36c0.13-0.09,0.29-0.16,0.46-0.21c0.17-0.04,0.35-0.07,0.53-0.07c0.27,0,0.54,0.05,0.79,0.16
		c0.25,0.11,0.45,0.26,0.59,0.46L442.27,46.85z"/>
	<path class="st0" d="M447.63,46.5h-1.01v1.97c0,0.23,0.04,0.39,0.13,0.49c0.08,0.1,0.22,0.15,0.41,0.15c0.07,0,0.14-0.01,0.22-0.02
		s0.15-0.04,0.22-0.07l0.02,0.62c-0.09,0.03-0.19,0.06-0.3,0.08s-0.22,0.03-0.34,0.03c-0.36,0-0.63-0.1-0.82-0.3
		c-0.19-0.2-0.28-0.49-0.28-0.89V46.5h-0.73v-0.62h0.73V44.8h0.74v1.09h1.01V46.5z"/>
	<path class="st0" d="M448.4,46.31c0-0.16-0.01-0.3-0.02-0.42h0.71c0.01,0.1,0.02,0.21,0.02,0.33c0.01,0.12,0.01,0.23,0.01,0.31
		h0.02c0.11-0.22,0.26-0.4,0.47-0.54c0.21-0.14,0.44-0.2,0.69-0.2c0.12,0,0.22,0.01,0.3,0.03l-0.03,0.7
		c-0.11-0.03-0.22-0.04-0.34-0.04c-0.18,0-0.34,0.03-0.47,0.1c-0.13,0.07-0.24,0.16-0.33,0.27s-0.15,0.24-0.2,0.39
		s-0.06,0.3-0.06,0.46v1.99h-0.75v-2.98C448.41,46.6,448.4,46.47,448.4,46.31z"/>
	<path class="st0" d="M454.7,47.75c0,0.04,0,0.08,0,0.13s0,0.08-0.01,0.13h-3.02c0,0.16,0.04,0.31,0.11,0.45
		c0.07,0.14,0.16,0.26,0.27,0.37s0.24,0.18,0.39,0.24c0.15,0.06,0.3,0.09,0.47,0.09c0.26,0,0.48-0.06,0.66-0.17
		c0.19-0.11,0.33-0.25,0.44-0.41l0.53,0.42c-0.2,0.27-0.44,0.47-0.72,0.59c-0.28,0.13-0.58,0.19-0.92,0.19
		c-0.29,0-0.55-0.05-0.8-0.14c-0.25-0.1-0.46-0.23-0.63-0.4c-0.18-0.17-0.31-0.38-0.42-0.63c-0.1-0.25-0.15-0.52-0.15-0.82
		c0-0.29,0.05-0.56,0.15-0.81c0.1-0.25,0.24-0.46,0.41-0.64c0.18-0.18,0.38-0.31,0.63-0.41c0.24-0.1,0.5-0.15,0.78-0.15
		c0.28,0,0.53,0.05,0.76,0.14c0.23,0.09,0.42,0.22,0.58,0.39c0.16,0.17,0.28,0.38,0.36,0.62C454.66,47.18,454.7,47.45,454.7,47.75z
		 M453.93,47.45c0-0.15-0.03-0.29-0.08-0.42c-0.04-0.13-0.11-0.24-0.2-0.34c-0.09-0.1-0.2-0.17-0.33-0.23
		c-0.13-0.06-0.28-0.08-0.46-0.08c-0.16,0-0.31,0.03-0.45,0.08c-0.14,0.06-0.26,0.13-0.37,0.23c-0.1,0.1-0.19,0.21-0.26,0.34
		c-0.07,0.13-0.11,0.27-0.12,0.42H453.93z"/>
	<path class="st0" d="M458.05,47.22c0-0.28-0.08-0.49-0.26-0.63s-0.4-0.2-0.68-0.2c-0.21,0-0.42,0.04-0.6,0.12s-0.35,0.19-0.48,0.32
		l-0.4-0.48c0.19-0.18,0.42-0.31,0.68-0.42c0.27-0.1,0.56-0.15,0.87-0.15c0.27,0,0.51,0.04,0.71,0.12c0.2,0.08,0.36,0.18,0.49,0.32
		s0.22,0.29,0.29,0.47c0.06,0.18,0.1,0.38,0.1,0.58v1.66c0,0.13,0,0.26,0.01,0.4c0.01,0.14,0.02,0.26,0.04,0.35h-0.68
		c-0.04-0.18-0.06-0.36-0.06-0.54h-0.02c-0.14,0.2-0.31,0.36-0.52,0.47c-0.21,0.11-0.46,0.17-0.75,0.17c-0.15,0-0.31-0.02-0.47-0.06
		c-0.16-0.04-0.31-0.11-0.44-0.2c-0.13-0.09-0.24-0.21-0.33-0.36c-0.09-0.15-0.13-0.33-0.13-0.55c0-0.29,0.08-0.52,0.23-0.68
		c0.16-0.17,0.36-0.3,0.61-0.38s0.53-0.15,0.85-0.17c0.32-0.03,0.63-0.04,0.95-0.04V47.22z M457.87,47.87
		c-0.19,0-0.38,0.01-0.58,0.02c-0.2,0.02-0.38,0.05-0.54,0.1c-0.16,0.05-0.3,0.12-0.4,0.22c-0.11,0.1-0.16,0.22-0.16,0.38
		c0,0.11,0.02,0.21,0.07,0.28c0.04,0.07,0.11,0.14,0.18,0.18c0.08,0.05,0.16,0.08,0.25,0.1c0.09,0.02,0.18,0.03,0.28,0.03
		c0.35,0,0.62-0.11,0.81-0.32c0.19-0.21,0.28-0.48,0.28-0.8v-0.2H457.87z"/>
	<path class="st0" d="M461.81,46.5h-1.01v1.97c0,0.23,0.04,0.39,0.13,0.49c0.08,0.1,0.22,0.15,0.41,0.15c0.07,0,0.14-0.01,0.22-0.02
		s0.15-0.04,0.22-0.07l0.02,0.62c-0.09,0.03-0.19,0.06-0.3,0.08s-0.22,0.03-0.34,0.03c-0.36,0-0.63-0.1-0.82-0.3
		c-0.19-0.2-0.28-0.49-0.28-0.89V46.5h-0.73v-0.62h0.73V44.8h0.74v1.09h1.01V46.5z"/>
	<path class="st0" d="M466.13,47.75c0,0.04,0,0.08,0,0.13s0,0.08-0.01,0.13h-3.02c0,0.16,0.04,0.31,0.11,0.45
		c0.07,0.14,0.16,0.26,0.27,0.37s0.24,0.18,0.39,0.24c0.15,0.06,0.3,0.09,0.47,0.09c0.26,0,0.48-0.06,0.66-0.17
		c0.19-0.11,0.33-0.25,0.44-0.41l0.53,0.42c-0.2,0.27-0.44,0.47-0.72,0.59c-0.28,0.13-0.58,0.19-0.92,0.19
		c-0.29,0-0.55-0.05-0.8-0.14c-0.25-0.1-0.46-0.23-0.63-0.4c-0.18-0.17-0.31-0.38-0.42-0.63c-0.1-0.25-0.15-0.52-0.15-0.82
		c0-0.29,0.05-0.56,0.15-0.81c0.1-0.25,0.24-0.46,0.41-0.64c0.18-0.18,0.38-0.31,0.63-0.41c0.24-0.1,0.5-0.15,0.78-0.15
		c0.28,0,0.53,0.05,0.76,0.14c0.23,0.09,0.42,0.22,0.58,0.39c0.16,0.17,0.28,0.38,0.36,0.62C466.08,47.18,466.13,47.45,466.13,47.75
		z M465.36,47.45c0-0.15-0.03-0.29-0.08-0.42c-0.04-0.13-0.11-0.24-0.2-0.34c-0.09-0.1-0.2-0.17-0.33-0.23
		c-0.13-0.06-0.28-0.08-0.46-0.08c-0.16,0-0.31,0.03-0.45,0.08c-0.14,0.06-0.26,0.13-0.37,0.23c-0.1,0.1-0.19,0.21-0.26,0.34
		c-0.07,0.13-0.11,0.27-0.12,0.42H465.36z"/>
	<path class="st0" d="M470.19,49.08c-0.14,0.23-0.34,0.4-0.59,0.52s-0.51,0.18-0.78,0.18c-0.29,0-0.56-0.05-0.79-0.16
		c-0.23-0.1-0.43-0.25-0.6-0.43c-0.17-0.18-0.29-0.39-0.38-0.64c-0.09-0.25-0.14-0.51-0.14-0.78s0.05-0.54,0.14-0.78
		c0.09-0.24,0.22-0.46,0.39-0.64c0.17-0.18,0.37-0.32,0.6-0.42c0.24-0.1,0.49-0.15,0.78-0.15c0.31,0,0.58,0.07,0.81,0.2
		c0.23,0.13,0.41,0.29,0.54,0.48h0.02v-2.82h0.75v6.05h-0.73v-0.6H470.19z M467.69,47.78c0,0.18,0.03,0.35,0.08,0.51
		s0.13,0.31,0.24,0.44c0.11,0.13,0.24,0.23,0.39,0.31c0.16,0.08,0.34,0.12,0.54,0.12c0.19,0,0.37-0.04,0.52-0.11s0.29-0.17,0.4-0.3
		c0.11-0.12,0.2-0.27,0.26-0.43c0.06-0.17,0.09-0.34,0.09-0.52s-0.03-0.35-0.09-0.52c-0.06-0.17-0.15-0.31-0.26-0.44
		c-0.11-0.13-0.25-0.23-0.4-0.3c-0.16-0.07-0.33-0.11-0.52-0.11c-0.21,0-0.39,0.04-0.54,0.11c-0.15,0.08-0.29,0.18-0.39,0.3
		c-0.11,0.13-0.19,0.27-0.24,0.44C467.72,47.43,467.69,47.61,467.69,47.78z"/>
	<path class="st0" d="M474.53,45.89l0.86,2.9h0.02l0.9-2.9h0.79l0.92,2.9h0.02l0.86-2.9h0.79l-1.26,3.79h-0.78l-0.94-2.85h-0.02
		l-0.93,2.85h-0.78l-1.26-3.79H474.53z"/>
	<path class="st0" d="M481.31,44.52c0,0.14-0.05,0.25-0.15,0.34S480.95,45,480.81,45c-0.14,0-0.25-0.05-0.35-0.14
		c-0.09-0.09-0.14-0.21-0.14-0.34c0-0.14,0.05-0.25,0.14-0.35c0.1-0.09,0.21-0.14,0.35-0.14c0.14,0,0.25,0.05,0.35,0.14
		S481.31,44.38,481.31,44.52z M481.19,49.68h-0.75v-3.79h0.75V49.68z"/>
	<path class="st0" d="M484.36,46.5h-1.01v1.97c0,0.23,0.04,0.39,0.13,0.49c0.08,0.1,0.22,0.15,0.41,0.15c0.07,0,0.14-0.01,0.22-0.02
		s0.15-0.04,0.22-0.07l0.02,0.62c-0.09,0.03-0.19,0.06-0.3,0.08s-0.22,0.03-0.34,0.03c-0.36,0-0.63-0.1-0.82-0.3
		c-0.19-0.2-0.28-0.49-0.28-0.89V46.5h-0.73v-0.62h0.73V44.8h0.74v1.09h1.01V46.5z"/>
	<path class="st0" d="M485.92,46.46c0.09-0.19,0.25-0.35,0.46-0.48c0.22-0.13,0.46-0.2,0.74-0.2c0.25,0,0.46,0.04,0.63,0.12
		c0.18,0.08,0.32,0.19,0.44,0.33s0.2,0.3,0.26,0.49s0.08,0.39,0.08,0.6v2.35h-0.75v-2.1c0-0.15-0.01-0.3-0.04-0.44
		c-0.02-0.14-0.07-0.26-0.13-0.37c-0.06-0.11-0.15-0.19-0.26-0.26c-0.11-0.06-0.25-0.1-0.43-0.1c-0.3,0-0.54,0.11-0.74,0.34
		c-0.19,0.23-0.29,0.53-0.29,0.91v2.01h-0.75v-6.05h0.75v2.83H485.92z"/>
	<path class="st0" d="M393.9,58.05c-0.22,0.3-0.51,0.55-0.87,0.74c-0.36,0.19-0.79,0.28-1.29,0.28c-0.43,0-0.83-0.07-1.2-0.22
		c-0.37-0.15-0.68-0.35-0.94-0.62c-0.26-0.26-0.47-0.58-0.62-0.94s-0.22-0.77-0.22-1.2c0-0.44,0.08-0.85,0.23-1.21
		s0.36-0.68,0.63-0.94s0.59-0.46,0.96-0.6c0.37-0.14,0.77-0.22,1.2-0.22c0.19,0,0.39,0.02,0.58,0.06s0.39,0.09,0.57,0.17
		c0.18,0.08,0.35,0.17,0.5,0.28c0.15,0.11,0.28,0.24,0.38,0.38l-0.62,0.48c-0.14-0.19-0.33-0.35-0.59-0.48
		c-0.25-0.12-0.53-0.19-0.82-0.19c-0.33,0-0.63,0.06-0.89,0.18c-0.26,0.12-0.49,0.28-0.68,0.49s-0.33,0.45-0.43,0.72
		s-0.15,0.57-0.15,0.88c0,0.32,0.05,0.62,0.15,0.9s0.24,0.52,0.42,0.72s0.41,0.37,0.67,0.48c0.26,0.12,0.56,0.18,0.88,0.18
		c0.32,0,0.61-0.06,0.87-0.19c0.26-0.13,0.48-0.31,0.65-0.56L393.9,58.05z"/>
	<path class="st0" d="M398.42,57.03c0,0.29-0.05,0.56-0.16,0.81c-0.1,0.25-0.25,0.46-0.43,0.64c-0.18,0.18-0.4,0.32-0.65,0.42
		s-0.52,0.15-0.81,0.15c-0.29,0-0.56-0.05-0.81-0.15s-0.47-0.24-0.65-0.42c-0.18-0.18-0.32-0.39-0.43-0.64
		c-0.1-0.25-0.16-0.51-0.16-0.81c0-0.29,0.05-0.56,0.16-0.8c0.1-0.24,0.25-0.45,0.43-0.63c0.18-0.18,0.4-0.31,0.65-0.41
		s0.52-0.15,0.81-0.15c0.29,0,0.56,0.05,0.81,0.15s0.47,0.24,0.65,0.41c0.18,0.18,0.33,0.39,0.43,0.63
		C398.36,56.47,398.42,56.73,398.42,57.03z M397.63,57.03c0-0.18-0.03-0.35-0.08-0.52c-0.06-0.16-0.14-0.31-0.25-0.43
		s-0.24-0.22-0.4-0.3c-0.16-0.07-0.34-0.11-0.54-0.11c-0.2,0-0.38,0.04-0.54,0.11c-0.16,0.07-0.29,0.17-0.4,0.3
		c-0.11,0.12-0.19,0.27-0.25,0.43c-0.06,0.17-0.08,0.34-0.08,0.52c0,0.18,0.03,0.35,0.08,0.52c0.06,0.17,0.14,0.31,0.25,0.44
		c0.11,0.13,0.24,0.23,0.4,0.3c0.16,0.07,0.34,0.11,0.54,0.11c0.2,0,0.38-0.04,0.54-0.11c0.16-0.07,0.29-0.18,0.4-0.3
		c0.11-0.13,0.19-0.27,0.25-0.44C397.6,57.38,397.63,57.21,397.63,57.03z"/>
	<path class="st0" d="M403.3,57.03c0,0.29-0.05,0.56-0.16,0.81c-0.1,0.25-0.25,0.46-0.43,0.64c-0.18,0.18-0.4,0.32-0.65,0.42
		s-0.52,0.15-0.81,0.15c-0.29,0-0.56-0.05-0.81-0.15s-0.47-0.24-0.65-0.42c-0.18-0.18-0.32-0.39-0.43-0.64
		c-0.1-0.25-0.16-0.51-0.16-0.81c0-0.29,0.05-0.56,0.16-0.8c0.1-0.24,0.25-0.45,0.43-0.63c0.18-0.18,0.4-0.31,0.65-0.41
		s0.52-0.15,0.81-0.15c0.29,0,0.56,0.05,0.81,0.15s0.47,0.24,0.65,0.41c0.18,0.18,0.33,0.39,0.43,0.63
		C403.24,56.47,403.3,56.73,403.3,57.03z M402.51,57.03c0-0.18-0.03-0.35-0.08-0.52c-0.06-0.16-0.14-0.31-0.25-0.43
		s-0.24-0.22-0.4-0.3c-0.16-0.07-0.34-0.11-0.54-0.11c-0.2,0-0.38,0.04-0.54,0.11c-0.16,0.07-0.29,0.17-0.4,0.3
		c-0.11,0.12-0.19,0.27-0.25,0.43c-0.06,0.17-0.08,0.34-0.08,0.52c0,0.18,0.03,0.35,0.08,0.52c0.06,0.17,0.14,0.31,0.25,0.44
		c0.11,0.13,0.24,0.23,0.4,0.3c0.16,0.07,0.34,0.11,0.54,0.11c0.2,0,0.38-0.04,0.54-0.11c0.16-0.07,0.29-0.18,0.4-0.3
		c0.11-0.13,0.19-0.27,0.25-0.44C402.48,57.38,402.51,57.21,402.51,57.03z"/>
	<path class="st0" d="M405.1,58.93h-0.75v-6.05h0.75V58.93z"/>
	<path class="st0" d="M409.27,54.31c-0.11-0.15-0.26-0.28-0.46-0.38c-0.19-0.1-0.41-0.15-0.65-0.15c-0.13,0-0.26,0.02-0.39,0.05
		c-0.13,0.03-0.25,0.09-0.36,0.17c-0.11,0.08-0.19,0.17-0.26,0.29c-0.07,0.11-0.1,0.25-0.1,0.41c0,0.15,0.03,0.28,0.09,0.39
		c0.06,0.1,0.14,0.19,0.25,0.26c0.1,0.07,0.23,0.13,0.37,0.18s0.29,0.1,0.45,0.16c0.19,0.06,0.39,0.13,0.58,0.2
		c0.2,0.08,0.38,0.17,0.54,0.3c0.16,0.12,0.29,0.28,0.39,0.46c0.1,0.18,0.15,0.42,0.15,0.7c0,0.29-0.05,0.55-0.16,0.76
		c-0.11,0.22-0.25,0.39-0.44,0.54c-0.18,0.14-0.39,0.25-0.63,0.32s-0.48,0.1-0.73,0.1c-0.36,0-0.7-0.07-1.04-0.21
		c-0.33-0.14-0.61-0.34-0.83-0.62l0.62-0.52c0.13,0.2,0.31,0.36,0.54,0.48c0.22,0.12,0.47,0.18,0.73,0.18c0.13,0,0.27-0.02,0.4-0.06
		c0.13-0.04,0.25-0.1,0.36-0.18c0.11-0.08,0.2-0.18,0.27-0.3s0.1-0.26,0.1-0.44s-0.04-0.31-0.11-0.43
		c-0.07-0.12-0.17-0.21-0.29-0.29c-0.12-0.08-0.27-0.15-0.43-0.2c-0.16-0.06-0.33-0.11-0.52-0.17c-0.18-0.05-0.36-0.12-0.54-0.2
		c-0.18-0.08-0.33-0.18-0.47-0.3s-0.25-0.27-0.34-0.44s-0.13-0.39-0.13-0.66c0-0.28,0.06-0.52,0.17-0.73s0.26-0.37,0.45-0.5
		c0.18-0.13,0.39-0.23,0.62-0.29c0.23-0.06,0.46-0.09,0.7-0.09c0.33,0,0.64,0.06,0.93,0.18s0.52,0.27,0.7,0.47L409.27,54.31z"/>
	<path class="st0" d="M413.62,56.1c-0.08-0.12-0.2-0.23-0.36-0.31c-0.16-0.08-0.33-0.12-0.51-0.12c-0.2,0-0.37,0.04-0.52,0.11
		c-0.15,0.08-0.28,0.17-0.39,0.3c-0.11,0.12-0.19,0.27-0.24,0.44c-0.06,0.17-0.08,0.34-0.08,0.52c0,0.18,0.03,0.36,0.08,0.52
		c0.06,0.17,0.14,0.31,0.24,0.44c0.11,0.13,0.24,0.23,0.39,0.3c0.15,0.07,0.33,0.11,0.53,0.11c0.19,0,0.37-0.04,0.52-0.11
		c0.16-0.08,0.29-0.18,0.39-0.3l0.5,0.46c-0.16,0.19-0.36,0.33-0.6,0.44c-0.24,0.1-0.51,0.16-0.82,0.16c-0.29,0-0.56-0.05-0.81-0.14
		s-0.46-0.23-0.64-0.4c-0.18-0.17-0.32-0.38-0.43-0.63c-0.1-0.25-0.16-0.52-0.16-0.82c0-0.3,0.05-0.57,0.15-0.82
		s0.24-0.46,0.42-0.63c0.18-0.18,0.4-0.31,0.64-0.41s0.52-0.14,0.8-0.14c0.27,0,0.53,0.05,0.8,0.16c0.26,0.11,0.47,0.26,0.63,0.46
		L413.62,56.1z"/>
	<path class="st0" d="M417.59,58.93c-0.01-0.1-0.02-0.2-0.02-0.32s-0.01-0.22-0.01-0.3h-0.02c-0.1,0.2-0.26,0.38-0.48,0.52
		c-0.23,0.14-0.48,0.21-0.76,0.21c-0.25,0-0.46-0.04-0.64-0.12c-0.18-0.08-0.33-0.19-0.44-0.33c-0.12-0.14-0.2-0.31-0.26-0.49
		c-0.06-0.19-0.08-0.39-0.08-0.6v-2.35h0.75v2.1c0,0.16,0.01,0.3,0.04,0.44c0.02,0.14,0.07,0.27,0.13,0.37
		c0.06,0.11,0.15,0.19,0.26,0.26c0.11,0.06,0.26,0.1,0.43,0.1c0.3,0,0.55-0.11,0.74-0.34s0.28-0.53,0.28-0.91v-2.02h0.75v2.98
		c0,0.1,0,0.23,0.01,0.39c0.01,0.16,0.01,0.3,0.02,0.42H417.59z"/>
	<path class="st0" d="M420.34,58.93h-0.75v-6.05h0.75V58.93z"/>
	<path class="st0" d="M422.41,60.85h-0.75v-5.71h0.74v0.59h0.02c0.12-0.2,0.3-0.37,0.54-0.5c0.24-0.13,0.51-0.2,0.83-0.2
		c0.28,0,0.54,0.05,0.77,0.15s0.43,0.24,0.6,0.42c0.17,0.18,0.3,0.39,0.39,0.64c0.09,0.24,0.14,0.5,0.14,0.78s-0.04,0.54-0.14,0.78
		s-0.22,0.46-0.38,0.64c-0.17,0.18-0.37,0.32-0.6,0.43c-0.23,0.1-0.5,0.16-0.79,0.16c-0.27,0-0.53-0.06-0.77-0.18
		c-0.24-0.12-0.43-0.28-0.57-0.5h-0.02V60.85z M424.9,57.03c0-0.18-0.03-0.35-0.08-0.51c-0.05-0.17-0.13-0.31-0.24-0.44
		c-0.11-0.13-0.24-0.23-0.4-0.3c-0.16-0.07-0.34-0.11-0.55-0.11c-0.19,0-0.37,0.04-0.52,0.11c-0.16,0.08-0.29,0.18-0.4,0.3
		c-0.11,0.13-0.2,0.28-0.26,0.44c-0.06,0.17-0.09,0.34-0.09,0.52c0,0.18,0.03,0.36,0.09,0.52c0.06,0.17,0.15,0.31,0.26,0.44
		c0.11,0.13,0.25,0.23,0.4,0.3c0.16,0.07,0.33,0.11,0.52,0.11c0.21,0,0.39-0.04,0.55-0.12c0.16-0.08,0.29-0.18,0.4-0.31
		s0.19-0.27,0.24-0.44C424.88,57.37,424.9,57.2,424.9,57.03z"/>
	<path class="st0" d="M428.58,55.75h-1.01v1.97c0,0.23,0.04,0.39,0.13,0.49c0.08,0.1,0.22,0.15,0.41,0.15
		c0.07,0,0.14-0.01,0.22-0.02s0.15-0.04,0.22-0.07l0.02,0.62c-0.09,0.03-0.19,0.06-0.3,0.08S428.05,59,427.94,59
		c-0.36,0-0.63-0.1-0.82-0.3c-0.19-0.2-0.28-0.49-0.28-0.89v-2.06h-0.73v-0.62h0.73v-1.09h0.74v1.09h1.01V55.75z"/>
	<path class="st0" d="M430.24,53.77c0,0.14-0.05,0.25-0.15,0.34c-0.1,0.09-0.22,0.14-0.35,0.14c-0.14,0-0.25-0.05-0.35-0.14
		c-0.09-0.09-0.14-0.21-0.14-0.34c0-0.14,0.05-0.25,0.14-0.35c0.1-0.09,0.21-0.14,0.35-0.14c0.14,0,0.25,0.05,0.35,0.14
		C430.19,53.52,430.24,53.63,430.24,53.77z M430.12,58.93h-0.75v-3.79h0.75V58.93z"/>
	<path class="st0" d="M432.11,55.14c0.01,0.1,0.02,0.2,0.02,0.32c0.01,0.12,0.01,0.22,0.01,0.3h0.02c0.05-0.1,0.11-0.2,0.2-0.28
		s0.18-0.17,0.28-0.23c0.11-0.07,0.22-0.12,0.35-0.16s0.26-0.06,0.4-0.06c0.25,0,0.46,0.04,0.63,0.12c0.18,0.08,0.32,0.19,0.44,0.33
		c0.12,0.14,0.2,0.3,0.26,0.49c0.06,0.19,0.08,0.39,0.08,0.6v2.35h-0.75v-2.1c0-0.16-0.01-0.3-0.04-0.44
		c-0.02-0.14-0.07-0.26-0.13-0.37c-0.06-0.11-0.15-0.19-0.26-0.26c-0.11-0.06-0.26-0.1-0.43-0.1c-0.3,0-0.54,0.11-0.73,0.34
		s-0.28,0.53-0.28,0.91v2.02h-0.75v-2.98c0-0.1,0-0.23-0.01-0.39c0-0.16-0.01-0.3-0.02-0.42H432.11z"/>
	<path class="st0" d="M436.38,59.58c0.17,0.19,0.37,0.34,0.62,0.45c0.25,0.11,0.5,0.17,0.76,0.17c0.25,0,0.46-0.04,0.63-0.11
		c0.17-0.07,0.31-0.17,0.41-0.3c0.1-0.13,0.18-0.27,0.22-0.44c0.05-0.17,0.07-0.35,0.07-0.55v-0.49h-0.02
		c-0.14,0.21-0.33,0.38-0.57,0.49c-0.24,0.11-0.5,0.17-0.77,0.17c-0.29,0-0.55-0.05-0.79-0.15s-0.44-0.24-0.6-0.42
		s-0.29-0.38-0.38-0.62s-0.14-0.49-0.14-0.76c0-0.27,0.04-0.53,0.14-0.77c0.09-0.24,0.22-0.45,0.38-0.63
		c0.17-0.18,0.37-0.32,0.6-0.42c0.24-0.1,0.5-0.16,0.78-0.16c0.27,0,0.53,0.06,0.78,0.18s0.44,0.3,0.59,0.54h0.02v-0.61h0.73v3.6
		c0,0.28-0.04,0.54-0.1,0.8c-0.07,0.25-0.19,0.48-0.35,0.67c-0.17,0.19-0.38,0.35-0.65,0.47c-0.27,0.12-0.6,0.18-0.99,0.18
		c-0.33,0-0.66-0.06-1-0.18c-0.33-0.12-0.62-0.29-0.86-0.51L436.38,59.58z M436.61,57c0,0.18,0.03,0.34,0.08,0.5
		c0.06,0.16,0.14,0.3,0.25,0.42s0.24,0.22,0.4,0.3c0.16,0.07,0.33,0.11,0.53,0.11c0.19,0,0.37-0.04,0.53-0.1
		c0.16-0.07,0.3-0.16,0.41-0.28s0.2-0.26,0.26-0.42c0.06-0.16,0.09-0.34,0.09-0.52c0-0.18-0.03-0.35-0.09-0.51s-0.15-0.3-0.26-0.42
		c-0.12-0.12-0.25-0.22-0.41-0.29c-0.16-0.07-0.33-0.11-0.53-0.11c-0.2,0-0.37,0.04-0.53,0.11s-0.29,0.17-0.4,0.29
		s-0.19,0.26-0.25,0.42C436.64,56.64,436.61,56.81,436.61,57z"/>
	<path class="st0" d="M441.07,54.99c0-0.25,0.05-0.49,0.14-0.71c0.1-0.22,0.23-0.41,0.39-0.58c0.17-0.16,0.36-0.29,0.58-0.39
		c0.22-0.1,0.46-0.14,0.71-0.14c0.25,0,0.49,0.05,0.71,0.14c0.22,0.1,0.41,0.23,0.58,0.39c0.17,0.16,0.3,0.35,0.39,0.58
		c0.1,0.22,0.14,0.46,0.14,0.71c0,0.25-0.05,0.49-0.14,0.7s-0.23,0.41-0.39,0.57c-0.17,0.16-0.36,0.29-0.58,0.38
		c-0.22,0.09-0.46,0.14-0.71,0.14c-0.25,0-0.49-0.05-0.71-0.14c-0.22-0.09-0.42-0.22-0.58-0.38c-0.17-0.16-0.3-0.35-0.39-0.57
		C441.12,55.47,441.07,55.24,441.07,54.99z M441.36,54.99c0,0.21,0.04,0.41,0.12,0.59c0.08,0.19,0.19,0.35,0.33,0.49
		c0.14,0.14,0.3,0.25,0.49,0.33s0.39,0.12,0.6,0.12c0.21,0,0.41-0.04,0.6-0.12s0.35-0.19,0.49-0.33c0.14-0.14,0.25-0.3,0.33-0.49
		c0.08-0.19,0.12-0.38,0.12-0.59c0-0.21-0.04-0.41-0.12-0.6s-0.19-0.35-0.33-0.49s-0.3-0.25-0.49-0.33s-0.39-0.12-0.6-0.12
		c-0.21,0-0.41,0.04-0.6,0.12s-0.35,0.19-0.49,0.33s-0.25,0.3-0.33,0.49S441.36,54.77,441.36,54.99z M443.34,55.99l-0.44-0.79h-0.29
		v0.79h-0.49v-2.05H443c0.1,0,0.19,0.01,0.28,0.03s0.17,0.06,0.25,0.1c0.07,0.05,0.13,0.11,0.18,0.2c0.04,0.08,0.07,0.19,0.07,0.31
		c0,0.14-0.04,0.25-0.12,0.34s-0.17,0.16-0.29,0.2l0.54,0.86H443.34z M442.98,54.84c0.07,0,0.14-0.02,0.2-0.07
		c0.06-0.05,0.09-0.11,0.09-0.19c0-0.09-0.04-0.15-0.1-0.18s-0.13-0.06-0.19-0.06h-0.38v0.5H442.98z"/>
	<path class="st0" d="M448.78,58.23h2.96v0.7h-3.75v-5.66h3.63v0.7h-2.84v1.7h2.67v0.68h-2.67V58.23z"/>
	<path class="st0" d="M453.52,58.93h-0.75v-6.05h0.75V58.93z"/>
	<path class="st0" d="M455.71,53.77c0,0.14-0.05,0.25-0.15,0.34c-0.1,0.09-0.22,0.14-0.35,0.14c-0.14,0-0.25-0.05-0.35-0.14
		c-0.09-0.09-0.14-0.21-0.14-0.34c0-0.14,0.05-0.25,0.14-0.35c0.1-0.09,0.21-0.14,0.35-0.14c0.14,0,0.25,0.05,0.35,0.14
		C455.66,53.52,455.71,53.63,455.71,53.77z M455.59,58.93h-0.75v-3.79h0.75V58.93z"/>
	<path class="st0" d="M458.76,55.75h-1.01v1.97c0,0.23,0.04,0.39,0.13,0.49c0.08,0.1,0.22,0.15,0.41,0.15
		c0.07,0,0.14-0.01,0.22-0.02s0.15-0.04,0.22-0.07l0.02,0.62c-0.09,0.03-0.19,0.06-0.3,0.08S458.23,59,458.11,59
		c-0.36,0-0.63-0.1-0.82-0.3c-0.19-0.2-0.28-0.49-0.28-0.89v-2.06h-0.73v-0.62h0.73v-1.09h0.74v1.09h1.01V55.75z"/>
	<path class="st0" d="M463.08,57c0,0.04,0,0.08,0,0.13s0,0.08-0.01,0.13h-3.02c0,0.16,0.04,0.31,0.11,0.45
		c0.07,0.14,0.16,0.26,0.27,0.37s0.24,0.18,0.39,0.24c0.15,0.06,0.3,0.09,0.47,0.09c0.26,0,0.48-0.06,0.66-0.17
		c0.19-0.11,0.33-0.25,0.44-0.41l0.53,0.42c-0.2,0.27-0.44,0.47-0.72,0.59c-0.28,0.13-0.58,0.19-0.92,0.19
		c-0.29,0-0.55-0.05-0.8-0.14c-0.25-0.1-0.46-0.23-0.63-0.4c-0.18-0.17-0.31-0.38-0.42-0.63c-0.1-0.25-0.15-0.52-0.15-0.82
		c0-0.29,0.05-0.56,0.15-0.81c0.1-0.25,0.24-0.46,0.41-0.64c0.18-0.18,0.38-0.31,0.63-0.41c0.24-0.1,0.5-0.15,0.78-0.15
		c0.28,0,0.53,0.05,0.76,0.14c0.23,0.09,0.42,0.22,0.58,0.39c0.16,0.17,0.28,0.38,0.36,0.62C463.04,56.43,463.08,56.7,463.08,57z
		 M462.31,56.7c0-0.15-0.03-0.29-0.08-0.42c-0.04-0.13-0.11-0.24-0.2-0.34c-0.09-0.1-0.2-0.17-0.33-0.23
		c-0.13-0.06-0.28-0.08-0.46-0.08c-0.16,0-0.31,0.03-0.45,0.08c-0.14,0.06-0.26,0.13-0.37,0.23c-0.1,0.1-0.19,0.21-0.26,0.34
		c-0.07,0.13-0.11,0.27-0.12,0.42H462.31z"/>
	<path class="st0" d="M469.96,57.03c0,0.29-0.05,0.56-0.16,0.81c-0.1,0.25-0.25,0.46-0.43,0.64c-0.18,0.18-0.4,0.32-0.65,0.42
		s-0.52,0.15-0.81,0.15c-0.29,0-0.56-0.05-0.81-0.15s-0.47-0.24-0.65-0.42c-0.18-0.18-0.32-0.39-0.43-0.64
		c-0.1-0.25-0.16-0.51-0.16-0.81c0-0.29,0.05-0.56,0.16-0.8c0.1-0.24,0.25-0.45,0.43-0.63c0.18-0.18,0.4-0.31,0.65-0.41
		s0.52-0.15,0.81-0.15c0.29,0,0.56,0.05,0.81,0.15s0.47,0.24,0.65,0.41c0.18,0.18,0.33,0.39,0.43,0.63
		C469.91,56.47,469.96,56.73,469.96,57.03z M469.18,57.03c0-0.18-0.03-0.35-0.08-0.52c-0.06-0.16-0.14-0.31-0.25-0.43
		s-0.24-0.22-0.4-0.3c-0.16-0.07-0.34-0.11-0.54-0.11c-0.2,0-0.38,0.04-0.54,0.11c-0.16,0.07-0.29,0.17-0.4,0.3
		c-0.11,0.12-0.19,0.27-0.25,0.43c-0.06,0.17-0.08,0.34-0.08,0.52c0,0.18,0.03,0.35,0.08,0.52c0.06,0.17,0.14,0.31,0.25,0.44
		c0.11,0.13,0.24,0.23,0.4,0.3c0.16,0.07,0.34,0.11,0.54,0.11c0.2,0,0.38-0.04,0.54-0.11c0.16-0.07,0.29-0.18,0.4-0.3
		c0.11-0.13,0.19-0.27,0.25-0.44C469.15,57.38,469.18,57.21,469.18,57.03z"/>
	<path class="st0" d="M471.68,55.14c0.01,0.1,0.02,0.2,0.02,0.32c0.01,0.12,0.01,0.22,0.01,0.3h0.02c0.05-0.1,0.11-0.2,0.2-0.28
		s0.18-0.17,0.28-0.23c0.11-0.07,0.22-0.12,0.35-0.16s0.26-0.06,0.4-0.06c0.25,0,0.46,0.04,0.63,0.12c0.18,0.08,0.32,0.19,0.44,0.33
		c0.12,0.14,0.2,0.3,0.26,0.49c0.06,0.19,0.08,0.39,0.08,0.6v2.35h-0.75v-2.1c0-0.16-0.01-0.3-0.04-0.44
		c-0.02-0.14-0.07-0.26-0.13-0.37c-0.06-0.11-0.15-0.19-0.26-0.26c-0.11-0.06-0.26-0.1-0.43-0.1c-0.3,0-0.54,0.11-0.73,0.34
		s-0.28,0.53-0.28,0.91v2.02H471v-2.98c0-0.1,0-0.23-0.01-0.39c0-0.16-0.01-0.3-0.02-0.42H471.68z"/>
	<path class="st0" d="M478.44,55.71c0.09-0.19,0.25-0.35,0.46-0.48c0.22-0.13,0.46-0.2,0.74-0.2c0.25,0,0.46,0.04,0.63,0.12
		c0.18,0.08,0.32,0.19,0.44,0.33c0.12,0.14,0.2,0.3,0.26,0.49s0.08,0.39,0.08,0.6v2.35h-0.75v-2.1c0-0.15-0.01-0.3-0.04-0.44
		c-0.02-0.14-0.07-0.26-0.13-0.37c-0.06-0.11-0.15-0.19-0.26-0.26c-0.11-0.06-0.25-0.1-0.43-0.1c-0.3,0-0.54,0.11-0.74,0.34
		c-0.19,0.23-0.29,0.53-0.29,0.91v2.01h-0.75v-6.05h0.75v2.83H478.44z"/>
	<path class="st0" d="M485.87,57c0,0.04,0,0.08,0,0.13s0,0.08-0.01,0.13h-3.02c0,0.16,0.04,0.31,0.11,0.45
		c0.07,0.14,0.16,0.26,0.27,0.37s0.24,0.18,0.39,0.24c0.15,0.06,0.3,0.09,0.47,0.09c0.26,0,0.48-0.06,0.66-0.17
		c0.19-0.11,0.33-0.25,0.44-0.41l0.53,0.42c-0.2,0.27-0.44,0.47-0.72,0.59c-0.28,0.13-0.58,0.19-0.92,0.19
		c-0.29,0-0.55-0.05-0.8-0.14c-0.25-0.1-0.46-0.23-0.63-0.4c-0.18-0.17-0.31-0.38-0.42-0.63c-0.1-0.25-0.15-0.52-0.15-0.82
		c0-0.29,0.05-0.56,0.15-0.81c0.1-0.25,0.24-0.46,0.41-0.64c0.18-0.18,0.38-0.31,0.63-0.41c0.24-0.1,0.5-0.15,0.78-0.15
		c0.28,0,0.53,0.05,0.76,0.14c0.23,0.09,0.42,0.22,0.58,0.39c0.16,0.17,0.28,0.38,0.36,0.62C485.83,56.43,485.87,56.7,485.87,57z
		 M485.1,56.7c0-0.15-0.03-0.29-0.08-0.42c-0.04-0.13-0.11-0.24-0.2-0.34c-0.09-0.1-0.2-0.17-0.33-0.23
		c-0.13-0.06-0.28-0.08-0.46-0.08c-0.16,0-0.31,0.03-0.45,0.08c-0.14,0.06-0.26,0.13-0.37,0.23c-0.1,0.1-0.19,0.21-0.26,0.34
		c-0.07,0.13-0.11,0.27-0.12,0.42H485.1z"/>
	<path class="st0" d="M486.9,55.56c0-0.16-0.01-0.3-0.02-0.42h0.71c0.01,0.1,0.02,0.21,0.02,0.33c0.01,0.12,0.01,0.23,0.01,0.31
		h0.02c0.11-0.22,0.26-0.4,0.47-0.54c0.21-0.14,0.44-0.2,0.69-0.2c0.12,0,0.22,0.01,0.3,0.03l-0.03,0.7
		c-0.11-0.03-0.22-0.04-0.34-0.04c-0.18,0-0.34,0.03-0.47,0.1c-0.13,0.07-0.24,0.16-0.33,0.27s-0.15,0.24-0.2,0.39
		s-0.06,0.3-0.06,0.46v1.99h-0.75v-2.98C486.91,55.85,486.91,55.72,486.9,55.56z"/>
	<path class="st0" d="M388.41,68.18h-0.75v-6.05h0.75V68.18z"/>
	<path class="st0" d="M393.56,66.28c0,0.29-0.05,0.56-0.16,0.81c-0.1,0.25-0.25,0.46-0.43,0.64c-0.18,0.18-0.4,0.32-0.65,0.42
		s-0.52,0.15-0.81,0.15c-0.29,0-0.56-0.05-0.81-0.15s-0.47-0.24-0.65-0.42c-0.18-0.18-0.32-0.39-0.43-0.64
		c-0.1-0.25-0.16-0.51-0.16-0.81c0-0.29,0.05-0.56,0.16-0.8c0.1-0.24,0.25-0.45,0.43-0.63c0.18-0.18,0.4-0.31,0.65-0.41
		s0.52-0.15,0.81-0.15c0.29,0,0.56,0.05,0.81,0.15s0.47,0.24,0.65,0.41c0.18,0.18,0.33,0.39,0.43,0.63
		C393.51,65.72,393.56,65.98,393.56,66.28z M392.78,66.28c0-0.18-0.03-0.35-0.08-0.52c-0.06-0.16-0.14-0.31-0.25-0.43
		s-0.24-0.22-0.4-0.3c-0.16-0.07-0.34-0.11-0.54-0.11c-0.2,0-0.38,0.04-0.54,0.11c-0.16,0.07-0.29,0.17-0.4,0.3
		c-0.11,0.12-0.19,0.27-0.25,0.43c-0.06,0.17-0.08,0.34-0.08,0.52c0,0.18,0.03,0.35,0.08,0.52c0.06,0.17,0.14,0.31,0.25,0.44
		c0.11,0.13,0.24,0.23,0.4,0.3c0.16,0.07,0.34,0.11,0.54,0.11c0.2,0,0.38-0.04,0.54-0.11c0.16-0.07,0.29-0.18,0.4-0.3
		c0.11-0.13,0.19-0.27,0.25-0.44C392.75,66.63,392.78,66.46,392.78,66.28z"/>
	<path class="st0" d="M396.38,68.18h-0.82l-1.54-3.79h0.83l1.11,2.98h0.02l1.12-2.98h0.8L396.38,68.18z"/>
	<path class="st0" d="M402.18,66.25c0,0.04,0,0.08,0,0.13s0,0.08-0.01,0.13h-3.02c0,0.16,0.04,0.31,0.11,0.45
		c0.07,0.14,0.16,0.26,0.27,0.37s0.24,0.18,0.39,0.24c0.15,0.06,0.3,0.09,0.47,0.09c0.26,0,0.48-0.06,0.66-0.17
		c0.19-0.11,0.33-0.25,0.44-0.41l0.53,0.42c-0.2,0.27-0.44,0.47-0.72,0.59c-0.28,0.13-0.58,0.19-0.92,0.19
		c-0.29,0-0.55-0.05-0.8-0.14c-0.25-0.1-0.46-0.23-0.63-0.4c-0.18-0.17-0.31-0.38-0.42-0.63c-0.1-0.25-0.15-0.52-0.15-0.82
		c0-0.29,0.05-0.56,0.15-0.81c0.1-0.25,0.24-0.46,0.41-0.64c0.18-0.18,0.38-0.31,0.63-0.41c0.24-0.1,0.5-0.15,0.78-0.15
		c0.28,0,0.53,0.05,0.76,0.14c0.23,0.09,0.42,0.22,0.58,0.39c0.16,0.17,0.28,0.38,0.36,0.62C402.13,65.68,402.18,65.95,402.18,66.25
		z M401.41,65.95c0-0.15-0.03-0.29-0.08-0.42c-0.04-0.13-0.11-0.24-0.2-0.34c-0.09-0.1-0.2-0.17-0.33-0.23
		c-0.13-0.06-0.28-0.08-0.46-0.08c-0.16,0-0.31,0.03-0.45,0.08c-0.14,0.06-0.26,0.13-0.37,0.23c-0.1,0.1-0.19,0.21-0.26,0.34
		c-0.07,0.13-0.11,0.27-0.12,0.42H401.41z"/>
	<path class="st0" d="M406,64.96c0.09-0.19,0.25-0.35,0.46-0.48c0.22-0.13,0.46-0.2,0.74-0.2c0.25,0,0.46,0.04,0.63,0.12
		c0.18,0.08,0.32,0.19,0.44,0.33c0.12,0.14,0.2,0.3,0.26,0.49s0.08,0.39,0.08,0.6v2.35h-0.75v-2.1c0-0.15-0.01-0.3-0.04-0.44
		c-0.02-0.14-0.07-0.26-0.13-0.37c-0.06-0.11-0.15-0.19-0.26-0.26c-0.11-0.06-0.25-0.1-0.43-0.1c-0.3,0-0.54,0.11-0.74,0.34
		c-0.19,0.23-0.29,0.53-0.29,0.91v2.01h-0.75v-6.05h0.75v2.83H406z"/>
	<path class="st0" d="M412.25,65.72c0-0.28-0.08-0.49-0.26-0.63s-0.4-0.2-0.68-0.2c-0.21,0-0.42,0.04-0.6,0.12s-0.35,0.19-0.48,0.32
		l-0.4-0.48c0.19-0.18,0.42-0.31,0.68-0.42c0.27-0.1,0.56-0.15,0.87-0.15c0.27,0,0.51,0.04,0.71,0.12c0.2,0.08,0.36,0.18,0.49,0.32
		c0.13,0.13,0.22,0.29,0.29,0.47c0.06,0.18,0.1,0.38,0.1,0.58v1.66c0,0.13,0,0.26,0.01,0.4c0.01,0.14,0.02,0.26,0.04,0.35h-0.68
		c-0.04-0.18-0.06-0.36-0.06-0.54h-0.02c-0.14,0.2-0.31,0.36-0.52,0.47c-0.21,0.11-0.46,0.17-0.75,0.17c-0.15,0-0.31-0.02-0.47-0.06
		c-0.16-0.04-0.31-0.11-0.44-0.2c-0.13-0.09-0.24-0.21-0.33-0.36c-0.09-0.15-0.13-0.33-0.13-0.55c0-0.29,0.08-0.52,0.23-0.68
		c0.16-0.17,0.36-0.3,0.61-0.38s0.53-0.15,0.85-0.17c0.32-0.03,0.63-0.04,0.95-0.04V65.72z M412.06,66.37
		c-0.19,0-0.38,0.01-0.58,0.02c-0.2,0.02-0.38,0.05-0.54,0.1c-0.16,0.05-0.3,0.12-0.4,0.22c-0.11,0.1-0.16,0.22-0.16,0.38
		c0,0.11,0.02,0.21,0.07,0.28c0.04,0.07,0.11,0.14,0.18,0.18c0.08,0.05,0.16,0.08,0.25,0.1c0.09,0.02,0.18,0.03,0.28,0.03
		c0.35,0,0.62-0.11,0.81-0.32c0.19-0.21,0.28-0.48,0.28-0.8v-0.2H412.06z"/>
	<path class="st0" d="M414.9,64.39c0.01,0.1,0.02,0.2,0.02,0.32c0.01,0.12,0.01,0.22,0.01,0.3h0.02c0.05-0.1,0.11-0.2,0.2-0.28
		s0.18-0.17,0.28-0.23c0.11-0.07,0.22-0.12,0.35-0.16s0.26-0.06,0.4-0.06c0.25,0,0.46,0.04,0.63,0.12c0.18,0.08,0.32,0.19,0.44,0.33
		c0.12,0.14,0.2,0.3,0.26,0.49c0.06,0.19,0.08,0.39,0.08,0.6v2.35h-0.75v-2.1c0-0.16-0.01-0.3-0.04-0.44
		c-0.02-0.14-0.07-0.26-0.13-0.37c-0.06-0.11-0.15-0.19-0.26-0.26c-0.11-0.06-0.26-0.1-0.43-0.1c-0.3,0-0.54,0.11-0.73,0.34
		s-0.28,0.53-0.28,0.91v2.02h-0.75v-2.98c0-0.1,0-0.23-0.01-0.39c0-0.16-0.01-0.3-0.02-0.42H414.9z"/>
	<path class="st0" d="M421.9,67.58c-0.14,0.23-0.34,0.4-0.59,0.52s-0.51,0.18-0.78,0.18c-0.29,0-0.56-0.05-0.79-0.16
		c-0.23-0.1-0.43-0.25-0.6-0.43c-0.17-0.18-0.29-0.39-0.38-0.64c-0.09-0.25-0.14-0.51-0.14-0.78s0.05-0.54,0.14-0.78
		c0.09-0.24,0.22-0.46,0.39-0.64c0.17-0.18,0.37-0.32,0.6-0.42c0.24-0.1,0.49-0.15,0.78-0.15c0.31,0,0.58,0.07,0.81,0.2
		c0.23,0.13,0.41,0.29,0.54,0.48h0.02v-2.82h0.75v6.05h-0.73v-0.6H421.9z M419.41,66.28c0,0.18,0.03,0.35,0.08,0.51
		s0.13,0.31,0.24,0.44c0.11,0.13,0.24,0.23,0.39,0.31c0.16,0.08,0.34,0.12,0.54,0.12c0.19,0,0.37-0.04,0.52-0.11s0.29-0.17,0.4-0.3
		c0.11-0.12,0.2-0.27,0.26-0.43c0.06-0.17,0.09-0.34,0.09-0.52s-0.03-0.35-0.09-0.52c-0.06-0.17-0.15-0.31-0.26-0.44
		c-0.11-0.13-0.25-0.23-0.4-0.3s-0.33-0.11-0.52-0.11c-0.21,0-0.39,0.04-0.54,0.11c-0.15,0.07-0.29,0.18-0.39,0.3
		c-0.11,0.13-0.19,0.27-0.24,0.44C419.43,65.93,419.41,66.11,419.41,66.28z"/>
	<path class="st0" d="M424.73,68.18h-0.75v-6.05h0.75V68.18z"/>
	<path class="st0" d="M429.58,66.25c0,0.04,0,0.08,0,0.13s0,0.08-0.01,0.13h-3.02c0,0.16,0.04,0.31,0.11,0.45
		c0.07,0.14,0.16,0.26,0.27,0.37s0.24,0.18,0.39,0.24c0.15,0.06,0.3,0.09,0.47,0.09c0.26,0,0.48-0.06,0.66-0.17
		c0.19-0.11,0.33-0.25,0.44-0.41l0.53,0.42c-0.2,0.27-0.44,0.47-0.72,0.59c-0.28,0.13-0.58,0.19-0.92,0.19
		c-0.29,0-0.55-0.05-0.8-0.14c-0.25-0.1-0.46-0.23-0.63-0.4c-0.18-0.17-0.31-0.38-0.42-0.63c-0.1-0.25-0.15-0.52-0.15-0.82
		c0-0.29,0.05-0.56,0.15-0.81c0.1-0.25,0.24-0.46,0.41-0.64c0.18-0.18,0.38-0.31,0.63-0.41c0.24-0.1,0.5-0.15,0.78-0.15
		c0.28,0,0.53,0.05,0.76,0.14c0.23,0.09,0.42,0.22,0.58,0.39c0.16,0.17,0.28,0.38,0.36,0.62C429.54,65.68,429.58,65.95,429.58,66.25
		z M428.82,65.95c0-0.15-0.03-0.29-0.08-0.42c-0.04-0.13-0.11-0.24-0.2-0.34c-0.09-0.1-0.2-0.17-0.33-0.23
		c-0.13-0.06-0.28-0.08-0.46-0.08c-0.16,0-0.31,0.03-0.45,0.08c-0.14,0.06-0.26,0.13-0.37,0.23c-0.1,0.1-0.19,0.21-0.26,0.34
		c-0.07,0.13-0.11,0.27-0.12,0.42H428.82z"/>
	<path class="st0" d="M432.67,65.35c-0.09-0.14-0.21-0.25-0.36-0.34s-0.33-0.13-0.52-0.13c-0.09,0-0.17,0.01-0.26,0.03
		c-0.08,0.02-0.16,0.05-0.23,0.09c-0.07,0.04-0.12,0.09-0.16,0.15s-0.06,0.14-0.06,0.23c0,0.16,0.07,0.28,0.22,0.36
		c0.14,0.08,0.36,0.15,0.65,0.21c0.18,0.04,0.35,0.09,0.5,0.15c0.15,0.06,0.29,0.13,0.4,0.22c0.12,0.09,0.2,0.19,0.27,0.32
		c0.06,0.12,0.1,0.27,0.1,0.43c0,0.22-0.04,0.41-0.13,0.57c-0.09,0.15-0.2,0.28-0.34,0.38c-0.14,0.1-0.3,0.17-0.48,0.21
		s-0.37,0.06-0.56,0.06c-0.29,0-0.57-0.06-0.84-0.17c-0.27-0.11-0.5-0.28-0.68-0.51l0.54-0.46c0.1,0.15,0.24,0.28,0.42,0.38
		c0.18,0.1,0.38,0.15,0.59,0.15c0.1,0,0.19-0.01,0.28-0.03s0.17-0.05,0.24-0.09c0.07-0.04,0.13-0.1,0.17-0.17
		c0.04-0.07,0.06-0.16,0.06-0.26c0-0.18-0.08-0.31-0.25-0.39c-0.17-0.08-0.42-0.17-0.74-0.24c-0.13-0.03-0.26-0.07-0.39-0.12
		c-0.13-0.05-0.25-0.11-0.36-0.19c-0.11-0.08-0.19-0.18-0.26-0.3s-0.1-0.27-0.1-0.44c0-0.2,0.04-0.38,0.12-0.52
		c0.08-0.15,0.19-0.27,0.32-0.36c0.13-0.09,0.29-0.16,0.46-0.21c0.17-0.04,0.35-0.07,0.53-0.07c0.27,0,0.54,0.05,0.79,0.16
		c0.25,0.11,0.45,0.26,0.59,0.46L432.67,65.35z"/>
	<path class="st0" d="M438.54,65.72c0-0.28-0.08-0.49-0.26-0.63s-0.4-0.2-0.68-0.2c-0.21,0-0.42,0.04-0.6,0.12s-0.35,0.19-0.48,0.32
		l-0.4-0.48c0.19-0.18,0.42-0.31,0.68-0.42c0.27-0.1,0.56-0.15,0.87-0.15c0.27,0,0.51,0.04,0.71,0.12c0.2,0.08,0.36,0.18,0.49,0.32
		c0.13,0.13,0.22,0.29,0.29,0.47c0.06,0.18,0.1,0.38,0.1,0.58v1.66c0,0.13,0,0.26,0.01,0.4c0.01,0.14,0.02,0.26,0.04,0.35h-0.68
		c-0.04-0.18-0.06-0.36-0.06-0.54h-0.02c-0.14,0.2-0.31,0.36-0.52,0.47c-0.21,0.11-0.46,0.17-0.75,0.17c-0.15,0-0.31-0.02-0.47-0.06
		c-0.16-0.04-0.31-0.11-0.44-0.2c-0.13-0.09-0.24-0.21-0.33-0.36c-0.09-0.15-0.13-0.33-0.13-0.55c0-0.29,0.08-0.52,0.23-0.68
		c0.16-0.17,0.36-0.3,0.61-0.38s0.53-0.15,0.85-0.17c0.32-0.03,0.63-0.04,0.95-0.04V65.72z M438.35,66.37
		c-0.19,0-0.38,0.01-0.58,0.02c-0.2,0.02-0.38,0.05-0.54,0.1c-0.16,0.05-0.3,0.12-0.4,0.22c-0.11,0.1-0.16,0.22-0.16,0.38
		c0,0.11,0.02,0.21,0.07,0.28c0.04,0.07,0.11,0.14,0.18,0.18c0.08,0.05,0.16,0.08,0.25,0.1c0.09,0.02,0.18,0.03,0.28,0.03
		c0.35,0,0.62-0.11,0.81-0.32c0.19-0.21,0.28-0.48,0.28-0.8v-0.2H438.35z"/>
	<path class="st0" d="M441.19,64.39c0.01,0.1,0.02,0.2,0.02,0.32c0.01,0.12,0.01,0.22,0.01,0.3h0.02c0.05-0.1,0.11-0.2,0.2-0.28
		s0.18-0.17,0.28-0.23c0.11-0.07,0.22-0.12,0.35-0.16s0.26-0.06,0.4-0.06c0.25,0,0.46,0.04,0.63,0.12c0.18,0.08,0.32,0.19,0.44,0.33
		c0.12,0.14,0.2,0.3,0.26,0.49c0.06,0.19,0.08,0.39,0.08,0.6v2.35h-0.75v-2.1c0-0.16-0.01-0.3-0.04-0.44
		c-0.02-0.14-0.07-0.26-0.13-0.37c-0.06-0.11-0.15-0.19-0.26-0.26c-0.11-0.06-0.26-0.1-0.43-0.1c-0.3,0-0.54,0.11-0.73,0.34
		s-0.28,0.53-0.28,0.91v2.02h-0.75v-2.98c0-0.1,0-0.23-0.01-0.39c0-0.16-0.01-0.3-0.02-0.42H441.19z"/>
	<path class="st0" d="M448.19,67.58c-0.14,0.23-0.34,0.4-0.59,0.52s-0.51,0.18-0.78,0.18c-0.29,0-0.56-0.05-0.79-0.16
		c-0.23-0.1-0.43-0.25-0.6-0.43c-0.17-0.18-0.29-0.39-0.38-0.64c-0.09-0.25-0.14-0.51-0.14-0.78s0.05-0.54,0.14-0.78
		c0.09-0.24,0.22-0.46,0.39-0.64c0.17-0.18,0.37-0.32,0.6-0.42c0.24-0.1,0.49-0.15,0.78-0.15c0.31,0,0.58,0.07,0.81,0.2
		c0.23,0.13,0.41,0.29,0.54,0.48h0.02v-2.82h0.75v6.05h-0.73v-0.6H448.19z M445.7,66.28c0,0.18,0.03,0.35,0.08,0.51
		s0.13,0.31,0.24,0.44c0.11,0.13,0.24,0.23,0.39,0.31c0.16,0.08,0.34,0.12,0.54,0.12c0.19,0,0.37-0.04,0.52-0.11s0.29-0.17,0.4-0.3
		c0.11-0.12,0.2-0.27,0.26-0.43c0.06-0.17,0.09-0.34,0.09-0.52s-0.03-0.35-0.09-0.52c-0.06-0.17-0.15-0.31-0.26-0.44
		c-0.11-0.13-0.25-0.23-0.4-0.3s-0.33-0.11-0.52-0.11c-0.21,0-0.39,0.04-0.54,0.11c-0.15,0.07-0.29,0.18-0.39,0.3
		c-0.11,0.13-0.19,0.27-0.24,0.44C445.72,65.93,445.7,66.11,445.7,66.28z"/>
	<path class="st0" d="M454.61,65.72c0-0.28-0.08-0.49-0.26-0.63s-0.4-0.2-0.68-0.2c-0.21,0-0.42,0.04-0.6,0.12s-0.35,0.19-0.48,0.32
		l-0.4-0.48c0.19-0.18,0.42-0.31,0.68-0.42c0.27-0.1,0.56-0.15,0.87-0.15c0.27,0,0.51,0.04,0.71,0.12c0.2,0.08,0.36,0.18,0.49,0.32
		c0.13,0.13,0.22,0.29,0.29,0.47c0.06,0.18,0.1,0.38,0.1,0.58v1.66c0,0.13,0,0.26,0.01,0.4c0.01,0.14,0.02,0.26,0.04,0.35h-0.68
		c-0.04-0.18-0.06-0.36-0.06-0.54h-0.02c-0.14,0.2-0.31,0.36-0.52,0.47c-0.21,0.11-0.46,0.17-0.75,0.17c-0.15,0-0.31-0.02-0.47-0.06
		c-0.16-0.04-0.31-0.11-0.44-0.2c-0.13-0.09-0.24-0.21-0.33-0.36c-0.09-0.15-0.13-0.33-0.13-0.55c0-0.29,0.08-0.52,0.23-0.68
		c0.16-0.17,0.36-0.3,0.61-0.38s0.53-0.15,0.85-0.17c0.32-0.03,0.63-0.04,0.95-0.04V65.72z M454.42,66.37
		c-0.19,0-0.38,0.01-0.58,0.02c-0.2,0.02-0.38,0.05-0.54,0.1c-0.16,0.05-0.3,0.12-0.4,0.22c-0.11,0.1-0.16,0.22-0.16,0.38
		c0,0.11,0.02,0.21,0.07,0.28c0.04,0.07,0.11,0.14,0.18,0.18c0.08,0.05,0.16,0.08,0.25,0.1c0.09,0.02,0.18,0.03,0.28,0.03
		c0.35,0,0.62-0.11,0.81-0.32c0.19-0.21,0.28-0.48,0.28-0.8v-0.2H454.42z"/>
	<path class="st0" d="M457.33,67.58v0.6h-0.73v-6.05h0.75v2.82h0.02c0.13-0.19,0.31-0.35,0.53-0.48s0.5-0.2,0.81-0.2
		c0.28,0,0.54,0.05,0.77,0.15s0.43,0.24,0.6,0.42c0.17,0.18,0.3,0.39,0.39,0.64c0.09,0.24,0.14,0.5,0.14,0.78s-0.04,0.54-0.14,0.78
		c-0.09,0.25-0.22,0.46-0.38,0.64c-0.17,0.18-0.36,0.32-0.6,0.43c-0.23,0.1-0.5,0.16-0.79,0.16c-0.27,0-0.53-0.06-0.77-0.18
		c-0.24-0.12-0.44-0.29-0.59-0.52H457.33z M459.85,66.28c0-0.17-0.03-0.35-0.08-0.51c-0.05-0.17-0.13-0.31-0.24-0.44
		c-0.11-0.13-0.24-0.23-0.4-0.3s-0.34-0.11-0.55-0.11c-0.19,0-0.37,0.04-0.52,0.11s-0.29,0.18-0.4,0.3
		c-0.11,0.13-0.2,0.27-0.26,0.44c-0.06,0.16-0.09,0.34-0.09,0.52s0.03,0.35,0.09,0.52c0.06,0.16,0.15,0.31,0.26,0.43
		c0.11,0.12,0.25,0.22,0.4,0.3s0.33,0.11,0.52,0.11c0.21,0,0.39-0.04,0.55-0.12s0.29-0.18,0.4-0.31c0.11-0.13,0.19-0.27,0.24-0.44
		C459.82,66.63,459.85,66.46,459.85,66.28z"/>
	<path class="st0" d="M464.7,67.58c-0.14,0.23-0.34,0.4-0.59,0.52s-0.51,0.18-0.78,0.18c-0.29,0-0.56-0.05-0.79-0.16
		c-0.23-0.1-0.43-0.25-0.6-0.43c-0.17-0.18-0.29-0.39-0.38-0.64c-0.09-0.25-0.14-0.51-0.14-0.78s0.05-0.54,0.14-0.78
		c0.09-0.24,0.22-0.46,0.39-0.64c0.17-0.18,0.37-0.32,0.6-0.42c0.24-0.1,0.49-0.15,0.78-0.15c0.31,0,0.58,0.07,0.81,0.2
		c0.23,0.13,0.41,0.29,0.54,0.48h0.02v-2.82h0.75v6.05h-0.73v-0.6H464.7z M462.2,66.28c0,0.18,0.03,0.35,0.08,0.51
		s0.13,0.31,0.24,0.44c0.11,0.13,0.24,0.23,0.39,0.31c0.16,0.08,0.34,0.12,0.54,0.12c0.19,0,0.37-0.04,0.52-0.11s0.29-0.17,0.4-0.3
		c0.11-0.12,0.2-0.27,0.26-0.43c0.06-0.17,0.09-0.34,0.09-0.52s-0.03-0.35-0.09-0.52c-0.06-0.17-0.15-0.31-0.26-0.44
		c-0.11-0.13-0.25-0.23-0.4-0.3s-0.33-0.11-0.52-0.11c-0.21,0-0.39,0.04-0.54,0.11c-0.15,0.07-0.29,0.18-0.39,0.3
		c-0.11,0.13-0.19,0.27-0.24,0.44C462.23,65.93,462.2,66.11,462.2,66.28z"/>
	<path class="st0" d="M470.59,66.28c0,0.29-0.05,0.56-0.16,0.81c-0.1,0.25-0.25,0.46-0.43,0.64c-0.18,0.18-0.4,0.32-0.65,0.42
		s-0.52,0.15-0.81,0.15c-0.29,0-0.56-0.05-0.81-0.15s-0.47-0.24-0.65-0.42c-0.18-0.18-0.32-0.39-0.43-0.64
		c-0.1-0.25-0.16-0.51-0.16-0.81c0-0.29,0.05-0.56,0.16-0.8c0.1-0.24,0.25-0.45,0.43-0.63c0.18-0.18,0.4-0.31,0.65-0.41
		s0.52-0.15,0.81-0.15c0.29,0,0.56,0.05,0.81,0.15s0.47,0.24,0.65,0.41c0.18,0.18,0.33,0.39,0.43,0.63
		C470.54,65.72,470.59,65.98,470.59,66.28z M469.81,66.28c0-0.18-0.03-0.35-0.08-0.52c-0.06-0.16-0.14-0.31-0.25-0.43
		s-0.24-0.22-0.4-0.3c-0.16-0.07-0.34-0.11-0.54-0.11c-0.2,0-0.38,0.04-0.54,0.11c-0.16,0.07-0.29,0.17-0.4,0.3
		c-0.11,0.12-0.19,0.27-0.25,0.43c-0.06,0.17-0.08,0.34-0.08,0.52c0,0.18,0.03,0.35,0.08,0.52c0.06,0.17,0.14,0.31,0.25,0.44
		c0.11,0.13,0.24,0.23,0.4,0.3c0.16,0.07,0.34,0.11,0.54,0.11c0.2,0,0.38-0.04,0.54-0.11c0.16-0.07,0.29-0.18,0.4-0.3
		c0.11-0.13,0.19-0.27,0.25-0.44C469.78,66.63,469.81,66.46,469.81,66.28z"/>
	<path class="st0" d="M472.83,64.5c0.21-0.14,0.46-0.21,0.75-0.21c0.26,0,0.49,0.06,0.69,0.18s0.37,0.31,0.48,0.58
		c0.13-0.25,0.31-0.43,0.54-0.56s0.48-0.2,0.75-0.2c0.25,0,0.46,0.04,0.63,0.12c0.18,0.08,0.32,0.19,0.44,0.33
		c0.12,0.14,0.2,0.3,0.26,0.49c0.06,0.19,0.08,0.39,0.08,0.6v2.35h-0.75v-2.1c0-0.16-0.01-0.3-0.04-0.44
		c-0.03-0.14-0.07-0.26-0.14-0.37c-0.06-0.11-0.15-0.19-0.26-0.26s-0.24-0.1-0.41-0.1c-0.17,0-0.32,0.04-0.44,0.11
		c-0.12,0.07-0.22,0.17-0.3,0.28s-0.13,0.24-0.17,0.39c-0.03,0.14-0.05,0.29-0.05,0.44v2.05h-0.75v-2.26c0-0.15-0.01-0.29-0.04-0.41
		s-0.07-0.23-0.14-0.32c-0.06-0.09-0.15-0.16-0.25-0.21c-0.1-0.05-0.23-0.08-0.38-0.08c-0.28,0-0.51,0.11-0.69,0.34
		c-0.18,0.23-0.28,0.53-0.28,0.91v2.02h-0.75v-2.98c0-0.1,0-0.23-0.01-0.39c0-0.16-0.01-0.3-0.02-0.42h0.71
		c0.01,0.1,0.02,0.2,0.02,0.32c0.01,0.12,0.01,0.22,0.01,0.3h0.02C472.46,64.81,472.62,64.64,472.83,64.5z"/>
	<path class="st0" d="M482.27,66.25c0,0.04,0,0.08,0,0.13s0,0.08-0.01,0.13h-3.02c0,0.16,0.04,0.31,0.11,0.45
		c0.07,0.14,0.16,0.26,0.27,0.37s0.24,0.18,0.39,0.24c0.15,0.06,0.3,0.09,0.47,0.09c0.26,0,0.48-0.06,0.66-0.17
		c0.19-0.11,0.33-0.25,0.44-0.41l0.53,0.42c-0.2,0.27-0.44,0.47-0.72,0.59c-0.28,0.13-0.58,0.19-0.92,0.19
		c-0.29,0-0.55-0.05-0.8-0.14c-0.25-0.1-0.46-0.23-0.63-0.4c-0.18-0.17-0.31-0.38-0.42-0.63c-0.1-0.25-0.15-0.52-0.15-0.82
		c0-0.29,0.05-0.56,0.15-0.81c0.1-0.25,0.24-0.46,0.41-0.64c0.18-0.18,0.38-0.31,0.63-0.41c0.24-0.1,0.5-0.15,0.78-0.15
		c0.28,0,0.53,0.05,0.76,0.14c0.23,0.09,0.42,0.22,0.58,0.39c0.16,0.17,0.28,0.38,0.36,0.62C482.23,65.68,482.27,65.95,482.27,66.25
		z M481.5,65.95c0-0.15-0.03-0.29-0.08-0.42c-0.04-0.13-0.11-0.24-0.2-0.34c-0.09-0.1-0.2-0.17-0.33-0.23
		c-0.13-0.06-0.28-0.08-0.46-0.08c-0.16,0-0.31,0.03-0.45,0.08c-0.14,0.06-0.26,0.13-0.37,0.23c-0.1,0.1-0.19,0.21-0.26,0.34
		c-0.07,0.13-0.11,0.27-0.12,0.42H481.5z"/>
	<path class="st0" d="M483.99,64.39c0.01,0.1,0.02,0.2,0.02,0.32c0.01,0.12,0.01,0.22,0.01,0.3h0.02c0.05-0.1,0.11-0.2,0.2-0.28
		s0.18-0.17,0.28-0.23c0.11-0.07,0.22-0.12,0.35-0.16s0.26-0.06,0.4-0.06c0.25,0,0.46,0.04,0.63,0.12c0.18,0.08,0.32,0.19,0.44,0.33
		c0.12,0.14,0.2,0.3,0.26,0.49c0.06,0.19,0.08,0.39,0.08,0.6v2.35h-0.75v-2.1c0-0.16-0.01-0.3-0.04-0.44
		c-0.02-0.14-0.07-0.26-0.13-0.37c-0.06-0.11-0.15-0.19-0.26-0.26c-0.11-0.06-0.26-0.1-0.43-0.1c-0.3,0-0.54,0.11-0.73,0.34
		s-0.28,0.53-0.28,0.91v2.02h-0.75v-2.98c0-0.1,0-0.23-0.01-0.39c0-0.16-0.01-0.3-0.02-0.42H483.99z"/>
	<path class="st0" d="M488.9,67.7c0,0.14-0.05,0.26-0.15,0.37c-0.1,0.11-0.23,0.16-0.38,0.16c-0.15,0-0.28-0.05-0.38-0.16
		c-0.1-0.1-0.16-0.22-0.16-0.36c0-0.14,0.05-0.27,0.15-0.37c0.1-0.1,0.23-0.16,0.38-0.16c0.15,0,0.28,0.05,0.38,0.15
		C488.84,67.43,488.9,67.56,488.9,67.7z"/>
	<path class="st0" d="M428.46,77.43h-0.79v-5.66h1.82c0.27,0,0.53,0.03,0.78,0.08c0.25,0.06,0.46,0.15,0.64,0.27
		c0.18,0.12,0.33,0.28,0.44,0.48c0.11,0.2,0.16,0.44,0.16,0.73c0,0.42-0.13,0.75-0.38,1.01s-0.59,0.42-0.99,0.49l1.58,2.6h-0.96
		l-1.44-2.52h-0.85V77.43z M428.46,74.25h0.91c0.19,0,0.36-0.02,0.52-0.05c0.16-0.03,0.3-0.08,0.42-0.16
		c0.12-0.07,0.21-0.17,0.28-0.28s0.1-0.26,0.1-0.43s-0.03-0.31-0.1-0.43c-0.07-0.11-0.16-0.21-0.28-0.28
		c-0.11-0.07-0.25-0.12-0.4-0.15c-0.15-0.03-0.32-0.04-0.49-0.04h-0.97V74.25z"/>
	<path class="st0" d="M435.98,75.5c0,0.04,0,0.08,0,0.13s0,0.08-0.01,0.13h-3.02c0,0.16,0.04,0.31,0.11,0.45
		c0.07,0.14,0.16,0.26,0.27,0.37s0.24,0.18,0.39,0.24c0.15,0.06,0.3,0.09,0.47,0.09c0.26,0,0.48-0.06,0.66-0.17
		c0.19-0.11,0.33-0.25,0.44-0.41l0.53,0.42c-0.2,0.27-0.44,0.47-0.72,0.59c-0.28,0.13-0.58,0.19-0.92,0.19
		c-0.29,0-0.55-0.05-0.8-0.14c-0.25-0.1-0.46-0.23-0.63-0.4c-0.18-0.17-0.31-0.38-0.42-0.63c-0.1-0.25-0.15-0.52-0.15-0.82
		c0-0.29,0.05-0.56,0.15-0.81c0.1-0.25,0.24-0.46,0.41-0.64c0.18-0.18,0.38-0.31,0.63-0.41c0.24-0.1,0.5-0.15,0.78-0.15
		c0.28,0,0.53,0.05,0.76,0.14c0.23,0.09,0.42,0.22,0.58,0.39c0.16,0.17,0.28,0.38,0.36,0.62C435.94,74.93,435.98,75.2,435.98,75.5z
		 M435.21,75.2c0-0.15-0.03-0.29-0.08-0.42c-0.04-0.13-0.11-0.24-0.2-0.34c-0.09-0.1-0.2-0.17-0.33-0.23
		c-0.13-0.06-0.28-0.08-0.46-0.08c-0.16,0-0.31,0.03-0.45,0.08c-0.14,0.06-0.26,0.13-0.37,0.23c-0.1,0.1-0.19,0.21-0.26,0.34
		c-0.07,0.13-0.11,0.27-0.12,0.42H435.21z"/>
	<path class="st0" d="M439.07,74.6c-0.09-0.14-0.21-0.25-0.36-0.34s-0.33-0.13-0.52-0.13c-0.09,0-0.17,0.01-0.26,0.03
		c-0.08,0.02-0.16,0.05-0.23,0.09c-0.07,0.04-0.12,0.09-0.16,0.15s-0.06,0.14-0.06,0.23c0,0.16,0.07,0.28,0.22,0.36
		c0.14,0.08,0.36,0.15,0.65,0.21c0.18,0.04,0.35,0.09,0.5,0.15c0.15,0.06,0.29,0.13,0.4,0.22c0.12,0.09,0.2,0.19,0.27,0.32
		c0.06,0.12,0.1,0.27,0.1,0.43c0,0.22-0.04,0.41-0.13,0.57c-0.09,0.15-0.2,0.28-0.34,0.38c-0.14,0.1-0.3,0.17-0.48,0.21
		s-0.37,0.06-0.56,0.06c-0.29,0-0.57-0.06-0.84-0.17c-0.27-0.11-0.5-0.28-0.68-0.51l0.54-0.46c0.1,0.15,0.24,0.28,0.42,0.38
		c0.18,0.1,0.38,0.15,0.59,0.15c0.1,0,0.19-0.01,0.28-0.03s0.17-0.05,0.24-0.09c0.07-0.04,0.13-0.1,0.17-0.17
		c0.04-0.07,0.06-0.16,0.06-0.26c0-0.18-0.08-0.31-0.25-0.39c-0.17-0.08-0.42-0.17-0.74-0.24c-0.13-0.03-0.26-0.07-0.39-0.12
		c-0.13-0.05-0.25-0.11-0.36-0.19c-0.11-0.08-0.19-0.18-0.26-0.3s-0.1-0.27-0.1-0.44c0-0.2,0.04-0.38,0.12-0.52
		c0.08-0.15,0.19-0.27,0.32-0.36c0.13-0.09,0.29-0.16,0.46-0.21c0.17-0.04,0.35-0.07,0.53-0.07c0.27,0,0.54,0.05,0.79,0.16
		c0.25,0.11,0.45,0.26,0.59,0.46L439.07,74.6z"/>
	<path class="st0" d="M443.25,77.43c-0.01-0.1-0.02-0.2-0.02-0.32s-0.01-0.22-0.01-0.3h-0.02c-0.1,0.2-0.26,0.38-0.48,0.52
		c-0.23,0.14-0.48,0.21-0.76,0.21c-0.25,0-0.46-0.04-0.64-0.12c-0.18-0.08-0.33-0.19-0.44-0.33c-0.12-0.14-0.2-0.31-0.26-0.49
		c-0.06-0.19-0.08-0.39-0.08-0.6v-2.35h0.75v2.1c0,0.16,0.01,0.3,0.04,0.44c0.02,0.14,0.07,0.27,0.13,0.37
		c0.06,0.11,0.15,0.19,0.26,0.26c0.11,0.06,0.26,0.1,0.43,0.1c0.3,0,0.55-0.11,0.74-0.34s0.28-0.53,0.28-0.91v-2.02h0.75v2.98
		c0,0.1,0,0.23,0.01,0.39c0.01,0.16,0.01,0.3,0.02,0.42H443.25z"/>
	<path class="st0" d="M446,77.43h-0.75v-6.05H446V77.43z"/>
	<path class="st0" d="M449.17,74.25h-1.01v1.97c0,0.23,0.04,0.39,0.13,0.49c0.08,0.1,0.22,0.15,0.41,0.15
		c0.07,0,0.14-0.01,0.22-0.02s0.15-0.04,0.22-0.07l0.02,0.62c-0.09,0.03-0.19,0.06-0.3,0.08s-0.22,0.03-0.34,0.03
		c-0.36,0-0.63-0.1-0.82-0.3c-0.19-0.2-0.28-0.49-0.28-0.89v-2.06h-0.73v-0.62h0.73v-1.09h0.74v1.09h1.01V74.25z"/>
	<path class="st0" d="M451.99,74.6c-0.09-0.14-0.21-0.25-0.36-0.34s-0.33-0.13-0.52-0.13c-0.09,0-0.17,0.01-0.26,0.03
		c-0.08,0.02-0.16,0.05-0.23,0.09c-0.07,0.04-0.12,0.09-0.16,0.15s-0.06,0.14-0.06,0.23c0,0.16,0.07,0.28,0.22,0.36
		c0.14,0.08,0.36,0.15,0.65,0.21c0.18,0.04,0.35,0.09,0.5,0.15c0.15,0.06,0.29,0.13,0.4,0.22c0.12,0.09,0.2,0.19,0.27,0.32
		c0.06,0.12,0.1,0.27,0.1,0.43c0,0.22-0.04,0.41-0.13,0.57c-0.09,0.15-0.2,0.28-0.34,0.38c-0.14,0.1-0.3,0.17-0.48,0.21
		s-0.37,0.06-0.56,0.06c-0.29,0-0.57-0.06-0.84-0.17c-0.27-0.11-0.5-0.28-0.68-0.51l0.54-0.46c0.1,0.15,0.24,0.28,0.42,0.38
		c0.18,0.1,0.38,0.15,0.59,0.15c0.1,0,0.19-0.01,0.28-0.03s0.17-0.05,0.24-0.09c0.07-0.04,0.13-0.1,0.17-0.17
		c0.04-0.07,0.06-0.16,0.06-0.26c0-0.18-0.08-0.31-0.25-0.39c-0.17-0.08-0.42-0.17-0.74-0.24c-0.13-0.03-0.26-0.07-0.39-0.12
		c-0.13-0.05-0.25-0.11-0.36-0.19c-0.11-0.08-0.19-0.18-0.26-0.3s-0.1-0.27-0.1-0.44c0-0.2,0.04-0.38,0.12-0.52
		c0.08-0.15,0.19-0.27,0.32-0.36c0.13-0.09,0.29-0.16,0.46-0.21c0.17-0.04,0.35-0.07,0.53-0.07c0.27,0,0.54,0.05,0.79,0.16
		c0.25,0.11,0.45,0.26,0.59,0.46L451.99,74.6z"/>
	<path class="st0" d="M456.69,73.75c0.21-0.14,0.46-0.21,0.75-0.21c0.26,0,0.49,0.06,0.69,0.18s0.37,0.31,0.48,0.58
		c0.13-0.25,0.31-0.43,0.54-0.56s0.48-0.2,0.75-0.2c0.25,0,0.46,0.04,0.63,0.12c0.18,0.08,0.32,0.19,0.44,0.33
		c0.12,0.14,0.2,0.3,0.26,0.49c0.06,0.19,0.08,0.39,0.08,0.6v2.35h-0.75v-2.1c0-0.16-0.01-0.3-0.04-0.44
		c-0.03-0.14-0.07-0.26-0.14-0.37c-0.06-0.11-0.15-0.19-0.26-0.26s-0.24-0.1-0.41-0.1c-0.17,0-0.32,0.04-0.44,0.11
		c-0.12,0.07-0.22,0.17-0.3,0.28s-0.13,0.24-0.17,0.39c-0.03,0.14-0.05,0.29-0.05,0.44v2.05h-0.75v-2.26c0-0.15-0.01-0.29-0.04-0.41
		s-0.07-0.23-0.14-0.32c-0.06-0.09-0.15-0.16-0.25-0.21c-0.1-0.05-0.23-0.08-0.38-0.08c-0.28,0-0.51,0.11-0.69,0.34
		c-0.18,0.23-0.28,0.53-0.28,0.91v2.02h-0.75v-2.98c0-0.1,0-0.23-0.01-0.39c0-0.16-0.01-0.3-0.02-0.42h0.71
		c0.01,0.1,0.02,0.2,0.02,0.32c0.01,0.12,0.01,0.22,0.01,0.3h0.02C456.33,74.06,456.48,73.89,456.69,73.75z"/>
	<path class="st0" d="M464.95,74.97c0-0.28-0.08-0.49-0.26-0.63s-0.4-0.2-0.68-0.2c-0.21,0-0.42,0.04-0.6,0.12s-0.35,0.19-0.48,0.32
		l-0.4-0.48c0.19-0.18,0.42-0.31,0.68-0.42c0.27-0.1,0.56-0.15,0.87-0.15c0.27,0,0.51,0.04,0.71,0.12c0.2,0.08,0.36,0.18,0.49,0.32
		c0.13,0.13,0.22,0.29,0.29,0.47c0.06,0.18,0.1,0.38,0.1,0.58v1.66c0,0.13,0,0.26,0.01,0.4c0.01,0.14,0.02,0.26,0.04,0.35h-0.68
		c-0.04-0.18-0.06-0.36-0.06-0.54h-0.02c-0.14,0.2-0.31,0.36-0.52,0.47c-0.21,0.11-0.46,0.17-0.75,0.17c-0.15,0-0.31-0.02-0.47-0.06
		c-0.16-0.04-0.31-0.11-0.44-0.2c-0.13-0.09-0.24-0.21-0.33-0.36c-0.09-0.15-0.13-0.33-0.13-0.55c0-0.29,0.08-0.52,0.23-0.68
		c0.16-0.17,0.36-0.3,0.61-0.38s0.53-0.15,0.85-0.17c0.32-0.03,0.63-0.04,0.95-0.04V74.97z M464.77,75.62
		c-0.19,0-0.38,0.01-0.58,0.02c-0.2,0.02-0.38,0.05-0.54,0.1c-0.16,0.05-0.3,0.12-0.4,0.22c-0.11,0.1-0.16,0.22-0.16,0.38
		c0,0.11,0.02,0.21,0.07,0.28c0.04,0.07,0.11,0.14,0.18,0.18c0.08,0.05,0.16,0.08,0.25,0.1c0.09,0.02,0.18,0.03,0.28,0.03
		c0.35,0,0.62-0.11,0.81-0.32c0.19-0.21,0.28-0.48,0.28-0.8v-0.2H464.77z"/>
	<path class="st0" d="M468.37,76.61h0.02l1.05-2.98h0.8l-1.84,4.69c-0.06,0.16-0.13,0.3-0.21,0.43c-0.08,0.12-0.16,0.23-0.26,0.32
		c-0.1,0.09-0.22,0.16-0.36,0.2c-0.14,0.05-0.3,0.07-0.48,0.07c-0.08,0-0.16,0-0.24-0.01c-0.08-0.01-0.17-0.02-0.25-0.04l0.07-0.66
		c0.13,0.04,0.25,0.06,0.38,0.06c0.2,0,0.34-0.05,0.44-0.16c0.1-0.11,0.18-0.26,0.26-0.47l0.24-0.63l-1.62-3.79h0.84L468.37,76.61z"
		/>
	<path class="st0" d="M474.74,77.43h-0.82l-1.54-3.79h0.83l1.11,2.98h0.02l1.12-2.98h0.8L474.74,77.43z"/>
	<path class="st0" d="M479.35,74.97c0-0.28-0.08-0.49-0.26-0.63s-0.4-0.2-0.68-0.2c-0.21,0-0.42,0.04-0.6,0.12s-0.35,0.19-0.48,0.32
		l-0.4-0.48c0.19-0.18,0.42-0.31,0.68-0.42c0.27-0.1,0.56-0.15,0.87-0.15c0.27,0,0.51,0.04,0.71,0.12c0.2,0.08,0.36,0.18,0.49,0.32
		c0.13,0.13,0.22,0.29,0.29,0.47c0.06,0.18,0.1,0.38,0.1,0.58v1.66c0,0.13,0,0.26,0.01,0.4c0.01,0.14,0.02,0.26,0.04,0.35h-0.68
		c-0.04-0.18-0.06-0.36-0.06-0.54h-0.02c-0.14,0.2-0.31,0.36-0.52,0.47c-0.21,0.11-0.46,0.17-0.75,0.17c-0.15,0-0.31-0.02-0.47-0.06
		c-0.16-0.04-0.31-0.11-0.44-0.2c-0.13-0.09-0.24-0.21-0.33-0.36c-0.09-0.15-0.13-0.33-0.13-0.55c0-0.29,0.08-0.52,0.23-0.68
		c0.16-0.17,0.36-0.3,0.61-0.38s0.53-0.15,0.85-0.17c0.32-0.03,0.63-0.04,0.95-0.04V74.97z M479.17,75.62
		c-0.19,0-0.38,0.01-0.58,0.02c-0.2,0.02-0.38,0.05-0.54,0.1c-0.16,0.05-0.3,0.12-0.4,0.22c-0.11,0.1-0.16,0.22-0.16,0.38
		c0,0.11,0.02,0.21,0.07,0.28c0.04,0.07,0.11,0.14,0.18,0.18c0.08,0.05,0.16,0.08,0.25,0.1c0.09,0.02,0.18,0.03,0.28,0.03
		c0.35,0,0.62-0.11,0.81-0.32c0.19-0.21,0.28-0.48,0.28-0.8v-0.2H479.17z"/>
	<path class="st0" d="M481.32,74.06c0-0.16-0.01-0.3-0.02-0.42h0.71c0.01,0.1,0.02,0.21,0.02,0.33c0.01,0.12,0.01,0.23,0.01,0.31
		h0.02c0.11-0.22,0.26-0.4,0.47-0.54c0.21-0.14,0.44-0.2,0.69-0.2c0.12,0,0.22,0.01,0.3,0.03l-0.03,0.7
		c-0.11-0.03-0.22-0.04-0.34-0.04c-0.18,0-0.34,0.03-0.47,0.1c-0.13,0.07-0.24,0.16-0.33,0.27s-0.15,0.24-0.2,0.39
		s-0.06,0.3-0.06,0.46v1.99h-0.75v-2.98C481.33,74.35,481.32,74.22,481.32,74.06z"/>
	<path class="st0" d="M485.66,76.61h0.02l1.05-2.98h0.8l-1.84,4.69c-0.06,0.16-0.13,0.3-0.21,0.43c-0.08,0.12-0.16,0.23-0.26,0.32
		c-0.1,0.09-0.22,0.16-0.36,0.2c-0.14,0.05-0.3,0.07-0.48,0.07c-0.08,0-0.16,0-0.24-0.01c-0.08-0.01-0.17-0.02-0.25-0.04l0.07-0.66
		c0.13,0.04,0.25,0.06,0.38,0.06c0.2,0,0.34-0.05,0.44-0.16c0.1-0.11,0.18-0.26,0.26-0.47l0.24-0.63l-1.62-3.79h0.84L485.66,76.61z"
		/>
	<path class="st0" d="M488.89,76.95c0,0.14-0.05,0.26-0.15,0.37c-0.1,0.11-0.23,0.16-0.38,0.16c-0.15,0-0.28-0.05-0.38-0.16
		c-0.1-0.1-0.16-0.22-0.16-0.36c0-0.14,0.05-0.27,0.15-0.37c0.1-0.1,0.23-0.16,0.38-0.16c0.15,0,0.28,0.05,0.38,0.15
		C488.84,76.68,488.89,76.81,488.89,76.95z"/>
</g>
</svg>
