<?xml version="1.0" encoding="utf-8"?>
<!-- Generator: Adobe Illustrator 25.2.1, SVG Export Plug-In . SVG Version: 6.00 Build 0)  -->
<svg version="1.1" id="Layer_1" xmlns="http://www.w3.org/2000/svg" xmlns:xlink="http://www.w3.org/1999/xlink" x="0px" y="0px"
	 viewBox="0 0 728 90" style="enable-background:new 0 0 728 90;" xml:space="preserve">
<style type="text/css">
	.st0{fill:#FFFFFF;}
</style>
<g>
	<path class="st0" d="M120.89,20.04h3.81v0.9h-4.82v-7.28h4.67v0.89h-3.65v2.18h3.43v0.87h-3.43V20.04z"/>
	<path class="st0" d="M129.54,20.04h3.25v0.9h-4.27v-7.28h1.02V20.04z"/>
	<path class="st0" d="M137.27,20.95h-1.02v-7.28h1.02V20.95z"/>
	<path class="st0" d="M144.06,20.95h-1.02v-6.39h-2.33v-0.89h5.69v0.89h-2.33V20.95z"/>
	<path class="st0" d="M150.84,20.04h3.81v0.9h-4.82v-7.28h4.67v0.89h-3.65v2.18h3.43v0.87h-3.43V20.04z"/>
</g>
<g>
	<g>
		<g>
			<g>
				<path class="st0" d="M32.4,23.02c0,0.28-0.22,0.5-0.51,0.5c-0.28,0-0.51-0.22-0.51-0.5c0-0.28,0.23-0.5,0.51-0.5
					C32.17,22.53,32.4,22.75,32.4,23.02z M31.51,23.02c0,0.22,0.17,0.4,0.39,0.4c0.21,0,0.38-0.18,0.38-0.39
					c0-0.22-0.16-0.4-0.38-0.4C31.67,22.63,31.51,22.81,31.51,23.02z M31.81,23.28H31.7v-0.5c0.04-0.01,0.11-0.01,0.19-0.01
					c0.09,0,0.14,0.01,0.17,0.04c0.03,0.02,0.05,0.06,0.05,0.11c0,0.06-0.05,0.1-0.1,0.12v0.01c0.05,0.01,0.07,0.05,0.09,0.12
					c0.02,0.08,0.03,0.1,0.04,0.12h-0.12c-0.02-0.02-0.02-0.06-0.04-0.12c-0.01-0.05-0.04-0.08-0.1-0.08h-0.05V23.28z M31.81,23
					h0.05c0.06,0,0.12-0.02,0.12-0.07c0-0.05-0.03-0.08-0.11-0.08c-0.03,0-0.05,0-0.06,0.01V23z"/>
			</g>
		</g>
	</g>
	<path class="st0" d="M39.81,21.3c-2.47,0-3.65-1.8-3.65-3.53c0-1.99,1.44-3.6,3.69-3.6c0.77,0,1.56,0.24,2.19,0.77l-0.7,0.97
		c-0.43-0.33-0.89-0.46-1.45-0.46c-1.2,0-2.09,0.84-2.09,2.27c0,1.31,0.82,2.36,2.13,2.36c0.56,0,1.05-0.17,1.48-0.54l0.64,0.98
		C41.45,21.05,40.61,21.3,39.81,21.3"/>
	<path class="st0" d="M45.85,21.3c-2.06,0-3.58-1.56-3.58-3.6c0-2.09,1.66-3.53,3.58-3.53c1.92,0,3.6,1.42,3.6,3.51
		C49.45,19.74,47.93,21.3,45.85,21.3 M47.79,17.7c0-1.25-0.61-2.34-1.94-2.34c-1.3,0-1.94,1.09-1.94,2.33c0,1.28,0.6,2.43,1.94,2.43
		c1.34,0,1.94-1.13,1.94-2.43V17.7z"/>
	<path class="st0" d="M53.63,21.3c-2.06,0-3.58-1.56-3.58-3.6c0-2.09,1.66-3.53,3.58-3.53c1.92,0,3.6,1.42,3.6,3.51
		C57.23,19.74,55.71,21.3,53.63,21.3 M55.57,17.7c0-1.25-0.61-2.34-1.94-2.34c-1.3,0-1.94,1.09-1.94,2.33c0,1.28,0.6,2.43,1.94,2.43
		c1.34,0,1.94-1.13,1.94-2.43V17.7z"/>
	<polygon class="st0" points="58.04,21.13 58.04,11.15 59.59,12 59.59,21.13 	"/>
	<path class="st0" d="M63.16,21.34c-1.74,0-2.58-0.84-2.58-0.84l0.7-0.91c0,0,0.79,0.53,1.84,0.53c0.5,0,0.92-0.35,0.92-0.7
		c0-0.35-0.15-0.64-0.61-0.88c-0.46-0.24-0.98-0.49-1.38-0.68c-0.4-0.2-1.3-0.8-1.3-1.97c0-1.18,1.2-1.84,2.42-1.84
		c1.17,0,2.06,0.77,2.06,0.77l-0.6,0.92c0,0-0.67-0.47-1.41-0.47c-0.74,0-0.89,0.47-0.89,0.67c0,0.19,0.07,0.5,0.54,0.75
		c0.47,0.25,0.96,0.52,1.66,0.91c0.7,0.39,1.09,1.06,1.09,1.81C65.62,20.17,64.9,21.34,63.16,21.34"/>
	<path class="st0" d="M69.81,21.3c-2.47,0-3.65-1.8-3.65-3.53c0-1.99,1.44-3.6,3.7-3.6c0.77,0,1.56,0.24,2.19,0.77l-0.7,0.97
		c-0.43-0.33-0.89-0.46-1.45-0.46c-1.2,0-2.09,0.84-2.09,2.27c0,1.31,0.82,2.36,2.13,2.36c0.56,0,1.05-0.17,1.48-0.54l0.64,0.98
		C71.44,21.05,70.6,21.3,69.81,21.3"/>
	<path class="st0" d="M77.43,20.34c0,0-0.78,0.96-2.26,0.96c-1.74,0-2.59-1.27-2.59-2.55v-4.42h1.55v4.35
		c0,0.75,0.59,1.38,1.49,1.38c0.8,0,1.58-0.95,1.58-0.95v-4.78h1.55v6.79L77.43,20.34z"/>
	<polygon class="st0" points="80.13,21.13 80.13,11.15 81.67,12 81.67,21.13 	"/>
	<path class="st0" d="M86.79,21.3c-1.37,0-2.15-0.77-2.15-0.77v3.39h-1.56v-9.73l1.56,0.82c0,0,0.84-0.85,2.23-0.85
		c1.46,0,3.29,1.13,3.29,3.65C90.17,20.34,88.37,21.3,86.79,21.3 M86.69,15.36c-1.32,0-2.09,1.24-2.09,1.24v2.56
		c0,0,0.88,0.99,2.15,0.99c1.48,0,1.8-1.77,1.8-2.39C88.55,17.16,88.41,15.36,86.69,15.36"/>
	<path class="st0" d="M94.24,21.32h-0.98c-1.23,0-1.65-1.19-1.65-1.97v-4h-1.23v-1.02h1.23v-3h1.53v3h1.58v1.02h-1.56v3.63
		c0,0.41-0.07,1.05,0.61,1.05h1.12L94.24,21.32z"/>
	<path class="st0" d="M96.72,13.16c-0.56,0-1.02-0.46-1.02-1.02c0-0.56,0.46-1.02,1.02-1.02c0.56,0,1.02,0.46,1.02,1.02
		C97.74,12.7,97.28,13.16,96.72,13.16 M95.95,14.33h1.52v6.8h-1.52V14.33z"/>
	<path class="st0" d="M103.61,21.13v-4.35c0-0.75-0.59-1.38-1.49-1.38c-0.8,0-1.69,0.95-1.69,0.95v4.78h-1.55v-6.79l1.31,0.78
		c0,0,0.89-0.96,2.37-0.96c1.74,0,2.59,1.27,2.59,2.55v4.42H103.61z"/>
	<path class="st0" d="M109.88,24.3c-0.24,0-2.05-0.03-2.05-0.03l0.03-1.24h1.52c1.48,0,2.31-0.8,2.31-1.88v-0.61
		c0,0-0.81,0.77-2.17,0.77c-1.58,0-3.37-0.96-3.37-3.49c0-2.52,1.83-3.65,3.29-3.65c1.39,0,2.23,0.85,2.23,0.85l1.56-0.78v6.76
		C113.23,22.82,112.02,24.3,109.88,24.3 M111.71,16.6c0,0-0.77-1.24-2.09-1.24c-1.71,0-1.85,1.8-1.85,2.41
		c0,0.61,0.32,2.39,1.8,2.39c1.27,0,2.15-0.99,2.15-0.99V16.6z"/>
	<polygon class="st0" points="22.3,26.29 22.3,21.85 23.17,20.97 25.7,23.49 25.7,24.34 	"/>
	<polygon class="st0" points="20.49,18.04 17.64,20.89 21.13,22.2 25.29,18.04 	"/>
	<polygon class="st0" points="21.9,14.06 18.22,14.06 19.4,17.46 25.29,17.46 	"/>
	<polygon class="st0" points="25.7,12.25 22.87,9.41 21.54,12.89 25.7,17.05 	"/>
	<polygon class="st0" points="34.28,21.43 30.08,21.43 26.69,18.04 32.58,18.04 	"/>
	<polygon class="st0" points="30.85,13.3 34.66,14.29 31.49,17.46 26.69,17.46 	"/>
	<polygon class="st0" points="26.28,11.16 29.67,9.14 29.67,13.65 26.28,17.05 	"/>
	<polygon class="st0" points="30.6,22.78 29.51,26.49 23.59,20.56 25.99,18.16 	"/>
	<g>
		<path class="st0" d="M115.54,14.79c0,0.4-0.32,0.72-0.74,0.72c-0.41,0-0.74-0.32-0.74-0.72c0-0.4,0.33-0.72,0.74-0.72
			C115.22,14.07,115.54,14.39,115.54,14.79z M114.25,14.79c0,0.32,0.24,0.57,0.56,0.57c0.31,0,0.55-0.26,0.55-0.57
			c0-0.32-0.24-0.58-0.56-0.58C114.49,14.22,114.25,14.48,114.25,14.79z M114.69,15.16h-0.17v-0.72c0.07-0.01,0.16-0.02,0.27-0.02
			c0.14,0,0.2,0.02,0.25,0.06c0.04,0.03,0.07,0.08,0.07,0.15c0,0.09-0.07,0.14-0.15,0.17v0.01c0.07,0.02,0.1,0.08,0.13,0.17
			c0.02,0.11,0.04,0.15,0.05,0.18h-0.18c-0.02-0.02-0.03-0.09-0.06-0.18c-0.01-0.07-0.06-0.11-0.15-0.11h-0.08V15.16z M114.7,14.76
			h0.08c0.09,0,0.17-0.03,0.17-0.1c0-0.06-0.05-0.11-0.15-0.11c-0.04,0-0.07,0-0.09,0.01V14.76z"/>
	</g>
</g>
</svg>
