<svg id="Layer_1" xmlns="http://www.w3.org/2000/svg" viewBox="0 0 500 281"><style>.st0{fill:#fff}</style><path class="st0" d="M19.6 73.8h-2.64l.16-2.32h2.64l.79-11.08h-2.64l.16-2.32h2.64l.69-9.86h2.53l-.69 9.86h3.9l.69-9.86h2.48l-.69 9.86h2.74l-.16 2.32h-2.74l-.79 11.08h2.8l-.21 2.32h-2.74l-.74 10.81H25.3l.74-10.81h-3.9l-.74 10.81h-2.53l.73-10.81zm6.59-2.33l.79-11.08h-3.9l-.79 11.08h3.9zM40.65 51.8L36 54.65V51.7l5.8-3.59h1.95v36.5h-3.11V51.8zM54.44 56.86h3.14l4.38 20.31h.08V56.86h2.17v27.75H61.6l-4.91-22.89h-.08v22.89h-2.17V56.86zM68.76 79.98v-18.5c0-3.22 1.73-5.03 4.67-5.03s4.67 1.81 4.67 5.03v18.5c0 3.22-1.73 5.03-4.67 5.03s-4.67-1.81-4.67-5.03zm6.92-.4v-17.7c0-2.33-.64-3.26-2.25-3.26-1.65 0-2.25.92-2.25 3.26v17.7c0 2.33.6 3.26 2.25 3.26 1.61 0 2.25-.93 2.25-3.26zM82.64 56.86h3.14l4.38 20.31h.08V56.86h2.17v27.75H89.8l-4.91-22.89h-.08v22.89h-2.17V56.86zM96.67 80.06V75.2H99v4.42c0 2.29.64 3.22 2.25 3.22 1.65 0 2.29-.92 2.29-3.22v-4.18c0-1.89-.52-2.82-1.89-3.7l-2.13-1.37c-2.05-1.33-2.86-2.86-2.86-5.55v-3.58c0-3.06 1.65-4.79 4.5-4.79 2.86 0 4.5 1.73 4.5 4.79v3.58h-2.33v-3.18c0-2.17-.6-3.02-2.13-3.02-1.53 0-2.13.84-2.13 3.02v3.02c0 1.89.52 2.82 1.89 3.7l2.13 1.37c2.05 1.33 2.86 2.86 2.86 5.55v4.79c0 3.18-1.73 4.95-4.67 4.95-2.92-.01-4.61-1.78-4.61-4.96zM110.07 80.14V56.86h2.41V79.7c0 2.25.56 3.14 2.17 3.14s2.17-.88 2.17-3.14V56.86h2.33v23.29c0 3.1-1.69 4.87-4.54 4.87s-4.54-1.78-4.54-4.88zM123.78 56.86h4.46c3.22 0 4.75 1.65 4.75 5.03v3.54c0 2.25-.72 3.62-2.17 4.26v.08c1.45.64 2.17 2.01 2.17 4.3v10.54h-2.41V74.23c0-2.57-.72-3.34-3.02-3.34h-1.37v13.72h-2.41V56.86zm4.19 11.94c2.01 0 2.61-.76 2.61-3.34v-3.18c0-2.57-.6-3.34-2.61-3.34h-1.77v9.85h1.77zM137.34 80.67V61.44c0-3.18 1.73-4.99 4.63-4.99 2.94 0 4.59 1.81 4.59 4.99v3.06h-2.29v-2.61c0-2.33-.64-3.26-2.25-3.26-1.65 0-2.25.92-2.25 3.26v18.5c0 1.65.6 2.45 1.93 2.45 1.65 0 2.57-1.25 2.57-3.5v-7.96H142v-2.09h4.67v15.32h-2.05v-1.97h-.12c-.64 1.53-1.81 2.37-3.46 2.37-2.34 0-3.7-1.65-3.7-4.34zM151.09 56.86h2.41v27.75h-2.41V56.86zM158.05 80.22V61.24c0-3.06 1.61-4.79 4.5-4.79 2.94 0 4.54 1.73 4.54 4.79v4.55h-2.29v-4.14c0-2.17-.64-3.02-2.17-3.02-1.57 0-2.17.84-2.17 3.02v18.18c0 2.17.6 3.02 2.17 3.02 1.53 0 2.17-.84 2.17-3.02v-5.59h2.29v5.99c0 3.06-1.61 4.79-4.54 4.79-2.89-.01-4.5-1.74-4.5-4.8zM173.94 56.86h3.18l3.5 27.75h-2.45l-.8-6.88h-3.78l-.8 6.88h-2.33l3.48-27.75zm3.18 18.78l-1.61-14.96h-.08l-1.61 14.96h3.3zM184.4 56.86h2.41v25.66h5.15v2.09h-7.56V56.86zM17.71 93.42h7.96v2.09h-5.55v10.1h4.83v2.09h-4.83v13.47h-2.41V93.42zM31.99 93.42h3.18l3.5 27.75h-2.45l-.8-6.88h-3.78l-.8 6.88h-2.33l3.48-27.75zm3.18 18.78l-1.61-14.96h-.08l-1.61 14.96h3.3zM44.86 95.51h-3.38v-2.09h9.17v2.09h-3.38v25.66h-2.41V95.51zM61.03 93.42h4.46c3.22 0 4.75 1.65 4.75 5.03v3.54c0 2.25-.72 3.62-2.17 4.26v.08c1.45.64 2.17 2.01 2.17 4.3v10.54h-2.41V110.8c0-2.57-.72-3.34-3.02-3.34h-1.37v13.72h-2.41V93.42zm4.18 11.95c2.01 0 2.61-.76 2.61-3.34v-3.18c0-2.57-.6-3.34-2.61-3.34h-1.77v9.85h1.77zM74.75 93.42h7.96v2.09h-5.55v9.69h4.83v2.09h-4.83v11.78h5.55v2.09h-7.96V93.42zM86.61 93.42h4.59c3.22 0 4.75 1.65 4.75 5.03v17.7c0 3.38-1.53 5.03-4.75 5.03h-4.59V93.42zm4.31 25.66c2.01 0 2.61-.76 2.61-3.34V98.85c0-2.57-.6-3.34-2.61-3.34h-1.89v23.57h1.89zM100.37 116.71V93.42h2.41v22.85c0 2.25.56 3.14 2.17 3.14s2.17-.89 2.17-3.14V93.42h2.33v23.29c0 3.1-1.69 4.87-4.54 4.87s-4.54-1.77-4.54-4.87zM113.92 116.79V97.8c0-3.06 1.61-4.79 4.5-4.79 2.94 0 4.54 1.73 4.54 4.79v4.54h-2.29V98.2c0-2.17-.64-3.02-2.17-3.02-1.57 0-2.17.84-2.17 3.02v18.18c0 2.17.6 3.02 2.17 3.02 1.53 0 2.17-.84 2.17-3.02v-5.59h2.29v5.99c0 3.06-1.61 4.79-4.54 4.79-2.89.01-4.5-1.72-4.5-4.78zM129.65 95.51h-3.38v-2.09h9.17v2.09h-3.38v25.66h-2.41V95.51zM139.18 93.42h2.41v27.75h-2.41V93.42zM146.14 116.55v-18.5c0-3.22 1.73-5.03 4.67-5.03s4.67 1.81 4.67 5.03v18.5c0 3.22-1.73 5.03-4.67 5.03s-4.67-1.81-4.67-5.03zm6.92-.4v-17.7c0-2.33-.64-3.26-2.25-3.26-1.65 0-2.25.92-2.25 3.26v17.7c0 2.33.6 3.26 2.25 3.26 1.6-.01 2.25-.93 2.25-3.26zM160.01 93.42h3.14l4.38 20.31h.08V93.42h2.17v27.75h-2.61l-4.91-22.89h-.08v22.89h-2.17V93.42zM20.13 132.08h-3.38v-2.09h9.17v2.09h-3.38v25.66h-2.41v-25.66zM29.66 129.98h4.46c3.22 0 4.75 1.65 4.75 5.03v3.54c0 2.25-.72 3.62-2.17 4.26v.08c1.45.64 2.17 2.01 2.17 4.3v10.54h-2.41v-10.38c0-2.57-.72-3.34-3.02-3.34h-1.37v13.72h-2.41v-27.75zm4.18 11.95c2.01 0 2.61-.76 2.61-3.34v-3.18c0-2.57-.6-3.34-2.61-3.34h-1.77v9.85h1.77zM43.37 129.98h7.96v2.09h-5.55v9.69h4.83v2.09h-4.83v11.79h5.55v2.09h-7.96v-27.75zM57.81 129.98h3.18l3.5 27.75h-2.45l-.8-6.88h-3.78l-.8 6.88h-2.33l3.48-27.75zm3.18 18.79l-1.61-14.96h-.08l-1.61 14.96h3.3zM70.68 132.08H67.3v-2.09h9.17v2.09H73.1v25.66h-2.41v-25.66zM80.22 129.98h3.82l3.1 20.47h.08l3.1-20.47h3.98v27.75h-2.41v-24.82h-.09l-3.74 24.82h-1.89l-3.74-24.82h-.08v24.82h-2.13v-27.75zM99 129.98h7.96v2.09h-5.55v9.69h4.83v2.09h-4.83v11.79h5.55v2.09H99v-27.75zM110.86 129.98H114l4.38 20.31h.08v-20.31h2.17v27.75h-2.61l-4.91-22.89h-.08v22.89h-2.17v-27.75zM127.76 132.08h-3.38v-2.09h9.17v2.09h-3.38v25.66h-2.41v-25.66zM136.48 154.44h2.69v3.3h-2.69v-3.3zM140.46 132.01l-2.02 1.27-.54-.89 2.11-1.13-2.11-1.1.54-.89 2.02 1.27-.12-2.37h1.06l-.12 2.37 2.02-1.27.54.89-2.11 1.13 2.11 1.1-.54.89-2.02-1.27.12 2.37h-1.06l.12-2.37z"/></svg>