<svg id="Layer_1" xmlns="http://www.w3.org/2000/svg" viewBox="0 0 500 281"><style>.st0{fill:#eaf5fb}.st1{fill:#002554}</style><path class="st0" d="M17.18 171.69h85.21v21.4H17.18z"/><path class="st1" d="M24.84 186.76v-7.22h1.75v5.7h2.79v1.52h-4.54zM30.61 186.76v-7.22h4.85v1.48h-3.17v1.36h3v1.4h-3v1.5h3.35v1.49h-5.03zM42.1 186.76l-.56-1.42h-2.79l-.53 1.42h-1.9l3.03-7.22h1.69l3 7.22H42.1zm-1.94-5.29l-.92 2.48h1.81l-.89-2.48zM48.91 186.76l-1.56-2.86h-.59v2.86h-1.71v-7.22h2.75c1.39 0 2.76.53 2.76 2.18 0 .97-.57 1.66-1.5 1.95l1.89 3.09h-2.04zm-1.23-5.81h-.93v1.68h.83c.56 0 1.26-.14 1.26-.88 0-.66-.64-.8-1.16-.8zM56.8 186.76l-2.91-4.72h-.03l.04 4.72h-1.69v-7.22h1.99l2.89 4.71h.03l-.04-4.71h1.69v7.22H56.8zM70.18 186.76l.04-5.11h-.03l-1.88 5.11h-1.22l-1.82-5.11h-.03l.04 5.11h-1.64v-7.22h2.48l1.64 4.63h.04l1.57-4.63h2.52v7.22h-1.71zM77.36 186.96c-2.25 0-3.92-1.55-3.92-3.83 0-2.31 1.67-3.77 3.92-3.77 2.26 0 3.93 1.46 3.93 3.77.01 2.28-1.66 3.83-3.93 3.83zm0-6.04c-1.22 0-2.06.94-2.06 2.2 0 1.3.85 2.24 2.06 2.24s2.07-.94 2.07-2.24c0-1.26-.84-2.2-2.07-2.2zM86.72 186.76l-1.56-2.86h-.59v2.86h-1.71v-7.22h2.75c1.39 0 2.76.53 2.76 2.18 0 .97-.57 1.66-1.5 1.95l1.89 3.09h-2.04zm-1.23-5.81h-.93v1.68h.83c.56 0 1.26-.14 1.26-.88 0-.66-.64-.8-1.16-.8zM90.03 186.76v-7.22h4.85v1.48h-3.17v1.36h3v1.4h-3v1.5h3.35v1.49h-5.03z"/></svg>