<svg id="Layer_1" xmlns="http://www.w3.org/2000/svg" viewBox="0 0 500 281"><style>.st0{fill:#fff}</style><path class="st0" d="M17.03 206.96l.2.55-.92.3.59.79-.46.35-.61-.82-.61.82-.46-.35.59-.79-.92-.3.2-.55.92.3v-.94h.58v.94l.9-.3zM22.38 210.65c-.2.28-.47.5-.79.67-.32.17-.71.26-1.17.26-.39 0-.75-.07-1.08-.2-.33-.13-.62-.32-.85-.56a2.47 2.47 0 0 1-.56-.85c-.14-.33-.2-.7-.2-1.09 0-.4.07-.77.21-1.1s.33-.61.57-.85c.24-.23.53-.42.87-.55a2.976 2.976 0 0 1 1.62-.15c.18.03.35.08.51.15.16.07.31.15.45.25s.25.21.35.34l-.56.43c-.13-.17-.3-.32-.53-.43s-.48-.17-.74-.17c-.3 0-.57.05-.81.16-.24.11-.44.26-.61.45s-.3.41-.39.66c-.09.25-.14.51-.14.79 0 .29.04.56.13.81s.22.47.38.66c.17.19.37.33.61.44.24.11.51.16.8.16.29 0 .55-.06.79-.17.24-.12.43-.28.59-.51l.55.4zM26.32 209.73c0 .27-.05.51-.14.73-.09.22-.22.42-.39.58-.17.16-.36.29-.59.38-.23.09-.47.13-.73.13s-.5-.04-.73-.13c-.23-.09-.42-.21-.59-.38-.16-.16-.29-.35-.39-.58-.09-.22-.14-.47-.14-.73s.05-.51.14-.73.22-.41.39-.57c.16-.16.36-.28.59-.37.23-.09.47-.13.73-.13s.5.04.73.13c.23.09.42.21.59.37.17.16.3.35.39.57s.14.46.14.73zm-.71 0c0-.16-.03-.32-.08-.47s-.12-.28-.22-.39c-.1-.11-.22-.2-.36-.27s-.31-.1-.49-.1-.35.03-.49.1-.26.16-.36.27c-.1.11-.17.24-.22.39s-.08.31-.08.47c0 .16.03.32.08.47s.12.28.22.4.22.21.36.27.31.1.49.1.35-.03.49-.1.26-.16.36-.27c.1-.12.17-.25.22-.4s.08-.31.08-.47zM30.6 209.73c0 .27-.05.51-.14.73-.09.22-.22.42-.39.58-.17.16-.36.29-.59.38-.23.09-.47.13-.73.13s-.5-.04-.73-.13c-.23-.09-.42-.21-.59-.38-.16-.16-.29-.35-.39-.58-.09-.22-.14-.47-.14-.73s.05-.51.14-.73.22-.41.39-.57c.16-.16.36-.28.59-.37.23-.09.47-.13.73-.13s.5.04.73.13c.23.09.42.21.59.37.17.16.3.35.39.57s.14.46.14.73zm-.71 0c0-.16-.03-.32-.08-.47s-.12-.28-.22-.39c-.1-.11-.22-.2-.36-.27s-.31-.1-.49-.1-.35.03-.49.1-.26.16-.36.27c-.1.11-.17.24-.22.39s-.08.31-.08.47c0 .16.03.32.08.47s.12.28.22.4.22.21.36.27.31.1.49.1.35-.03.49-.1.26-.16.36-.27c.1-.12.17-.25.22-.4s.08-.31.08-.47zM32.09 211.45h-.68v-5.48h.68v5.48zM35.72 207.27c-.1-.14-.24-.25-.41-.34a1.25 1.25 0 0 0-.59-.13c-.12 0-.23.02-.35.05-.12.03-.23.08-.32.15s-.18.16-.24.26-.09.23-.09.37c0 .14.03.26.08.35.06.09.13.17.22.24s.21.12.33.17c.13.05.26.09.41.14.17.05.35.11.53.18.18.07.34.16.49.27.15.11.26.25.35.42s.14.38.14.63c0 .27-.05.5-.15.69-.1.2-.23.36-.4.49-.16.13-.35.22-.57.29s-.44.09-.66.09c-.32 0-.64-.06-.94-.19-.3-.13-.55-.31-.75-.56l.56-.47c.12.18.28.32.49.43a1.35 1.35 0 0 0 1.02.12c.12-.03.23-.09.33-.16s.18-.16.24-.27c.06-.11.09-.24.09-.39s-.03-.28-.1-.39a.92.92 0 0 0-.26-.26c-.11-.07-.24-.13-.39-.18s-.3-.1-.47-.16c-.16-.05-.33-.11-.49-.18-.16-.07-.3-.16-.43-.27-.13-.11-.23-.24-.3-.4a1.32 1.32 0 0 1-.12-.59c0-.26.05-.48.16-.66a1.51 1.51 0 0 1 .98-.72c.21-.06.42-.08.63-.08.3 0 .58.05.84.16s.47.25.63.43l-.49.47zM39.52 208.89a.846.846 0 0 0-.33-.28.92.92 0 0 0-.46-.11c-.18 0-.34.03-.48.1-.14.07-.25.16-.35.27-.1.11-.17.25-.22.39s-.08.31-.08.47c0 .17.03.32.08.47.05.15.12.28.22.39s.21.2.35.27c.14.07.3.1.48.1.17 0 .33-.03.47-.1.14-.07.26-.16.35-.28l.46.41c-.15.17-.33.3-.54.4-.22.09-.46.14-.74.14-.27 0-.51-.04-.74-.13s-.42-.21-.58-.37c-.16-.16-.29-.35-.39-.57-.09-.22-.14-.47-.14-.75 0-.27.05-.52.14-.74.09-.22.22-.41.38-.57.16-.16.36-.28.58-.37a1.933 1.933 0 0 1 1.45.02c.24.1.43.24.57.42l-.48.42zM42.96 211.45c-.01-.09-.02-.18-.02-.29 0-.11-.01-.2-.01-.27h-.01c-.09.18-.23.34-.44.47-.21.13-.43.19-.68.19a1.5 1.5 0 0 1-.58-.11c-.16-.07-.29-.17-.4-.3-.1-.13-.18-.28-.23-.45-.05-.17-.08-.35-.08-.54v-2.13h.68v1.9c0 .14.01.27.03.4.02.13.06.24.12.34.06.1.14.17.24.23.1.06.23.09.39.09.27 0 .5-.1.67-.31.17-.21.25-.48.25-.82v-1.83h.68v2.7c0 .09 0 .21.01.36 0 .14.01.27.02.38h-.64zM45.31 211.45h-.68v-5.48h.68v5.48zM47.04 213.19h-.68v-5.17h.67v.54h.02c.11-.18.27-.33.49-.45s.46-.18.75-.18c.26 0 .49.05.7.14s.39.22.54.38c.15.16.27.36.35.58.08.22.12.46.12.71s-.04.49-.12.71c-.08.22-.2.42-.35.58s-.33.29-.54.39c-.21.09-.45.14-.72.14-.25 0-.48-.05-.69-.16-.22-.11-.39-.26-.51-.45h-.02v2.24zm2.26-3.46c0-.16-.02-.31-.07-.46s-.12-.28-.22-.4-.22-.21-.36-.28-.31-.1-.5-.1c-.17 0-.33.03-.48.1-.14.07-.26.16-.37.28s-.18.25-.24.4c-.06.15-.08.31-.08.47 0 .17.03.32.08.47.06.15.13.28.24.39s.22.2.37.27c.14.07.3.1.48.1.19 0 .35-.04.5-.1.14-.07.26-.16.36-.28s.17-.25.22-.4.07-.3.07-.46zM52.49 208.57h-.91v1.78c0 .21.04.36.12.44.08.09.2.13.37.13.06 0 .13-.01.2-.02s.14-.03.2-.06l.02.56c-.08.03-.17.05-.27.07-.1.02-.2.03-.31.03-.32 0-.57-.09-.74-.27s-.26-.45-.26-.8v-1.86h-.66v-.56h.66v-.99h.67v.99h.91v.56zM53.84 206.78c0 .13-.04.23-.13.31-.09.08-.2.12-.32.12s-.23-.04-.32-.13a.401.401 0 0 1-.13-.31c0-.13.04-.23.13-.32.09-.08.19-.13.32-.13s.23.04.32.13c.09.1.13.2.13.33zm-.11 4.67h-.68v-3.43h.68v3.43zM55.39 208.02c.01.09.02.18.02.29 0 .11.01.2.01.27h.02c.04-.09.1-.18.18-.26.07-.08.16-.15.26-.21s.2-.11.32-.14c.12-.03.24-.05.36-.05.22 0 .41.04.57.11.16.08.29.18.4.3.11.13.18.27.24.44s.08.35.08.54v2.13h-.68v-1.91c0-.14-.01-.27-.03-.4-.02-.12-.06-.24-.12-.33s-.14-.17-.24-.23a.75.75 0 0 0-.39-.09c-.27 0-.49.1-.66.31s-.26.48-.26.82v1.83h-.68v-2.7c0-.09 0-.21-.01-.36s-.01-.27-.02-.38h.63zM59.12 212.04c.15.17.34.3.56.41.22.1.46.15.69.15.23 0 .42-.03.57-.1s.28-.15.37-.27c.09-.11.16-.25.2-.4.04-.16.06-.32.06-.5v-.44h-.01c-.13.19-.3.34-.51.44a1.798 1.798 0 0 1-1.41.01 1.642 1.642 0 0 1-.9-.94c-.08-.21-.12-.45-.12-.69s.04-.48.12-.7a1.655 1.655 0 0 1 .89-.95c.21-.09.45-.14.71-.14.25 0 .48.05.71.16.22.11.4.27.53.49h.01v-.55h.66v3.26c0 .25-.03.49-.09.72s-.17.43-.32.61-.35.32-.59.42c-.24.11-.54.16-.9.16-.3 0-.6-.05-.9-.16s-.56-.26-.78-.46l.45-.53zm.2-2.34c0 .16.03.31.08.46.05.14.13.27.23.38.1.11.22.2.36.27.14.07.3.1.48.1.17 0 .33-.03.48-.09.15-.06.27-.15.37-.26.1-.11.18-.24.24-.38.06-.15.08-.3.08-.47 0-.16-.03-.32-.08-.46a1.36 1.36 0 0 0-.24-.38c-.1-.11-.23-.2-.37-.26s-.3-.1-.48-.1-.34.03-.48.1-.26.15-.36.26c-.1.11-.17.24-.23.38s-.08.28-.08.45zM63.22 207.88c0-.23.04-.44.13-.64s.21-.37.35-.52c.15-.15.32-.26.53-.35.2-.09.41-.13.64-.13s.44.04.64.13.38.2.53.35c.15.15.27.32.35.52s.13.41.13.64c0 .23-.04.44-.13.64s-.21.37-.35.52a1.7 1.7 0 0 1-1.17.48c-.23 0-.44-.04-.64-.13-.2-.08-.38-.2-.53-.35-.15-.15-.27-.32-.35-.52s-.13-.41-.13-.64zm.26 0a1.408 1.408 0 0 0 .41.99c.13.13.27.23.44.3s.35.11.54.11.37-.04.54-.11.32-.17.44-.3a1.408 1.408 0 0 0 .41-.99 1.37 1.37 0 0 0-.41-.98c-.13-.13-.27-.22-.44-.3-.17-.07-.35-.11-.54-.11s-.37.04-.54.11c-.17.07-.32.17-.44.3-.13.12-.22.27-.3.44-.08.16-.11.35-.11.54zm1.79.9l-.4-.72h-.26v.72h-.44v-1.85h.8c.09 0 .17.01.25.03.08.02.16.05.22.09.07.04.12.1.16.18.04.07.06.17.06.28 0 .13-.04.23-.11.31-.07.08-.16.14-.26.18l.49.78h-.51zm-.32-1.03c.07 0 .13-.02.19-.07.06-.04.08-.1.08-.17 0-.08-.03-.13-.09-.17a.406.406 0 0 0-.17-.05h-.34v.46h.33zM69.95 206.78c0 .13-.04.23-.13.31-.09.08-.2.12-.32.12s-.23-.04-.32-.13a.401.401 0 0 1-.13-.31c0-.13.04-.23.13-.32.09-.08.19-.13.32-.13s.23.04.32.13c.08.1.13.2.13.33zm-.11 4.67h-.68v-3.43h.68v3.43zM72.74 208.89a.94.94 0 0 0-1.03-.4c-.08.02-.15.04-.21.08s-.11.08-.15.14-.05.12-.05.21c0 .15.06.25.2.32.13.07.33.13.59.19.16.04.32.08.46.14.14.05.26.12.37.2.1.08.18.18.24.29.06.11.09.24.09.39a.987.987 0 0 1-.43.85c-.13.09-.27.15-.44.19-.16.04-.33.06-.51.06-.26 0-.52-.05-.76-.15-.25-.1-.46-.26-.62-.46l.49-.41c.09.13.22.25.38.34a1.076 1.076 0 0 0 1 .03c.07-.04.12-.09.16-.15.04-.06.06-.14.06-.24 0-.16-.08-.28-.23-.36-.15-.08-.38-.15-.67-.22-.12-.03-.23-.06-.35-.1s-.23-.1-.32-.17a.78.78 0 0 1-.24-.27.816.816 0 0 1-.09-.4c0-.18.04-.34.11-.47.07-.13.17-.24.29-.33.12-.08.26-.15.41-.19.15-.04.31-.06.48-.06.25 0 .48.05.71.15s.41.24.53.42l-.47.38zM77.3 208.57h-.91v1.78c0 .21.04.36.12.44.08.09.2.13.37.13.06 0 .13-.01.2-.02s.14-.03.2-.06l.02.56c-.08.03-.17.05-.27.07-.1.02-.2.03-.31.03-.32 0-.57-.09-.74-.27s-.26-.45-.26-.8v-1.86h-.66v-.56h.66v-.99h.67v.99h.91v.56zM78.57 208.54c.08-.17.22-.31.42-.43s.42-.18.67-.18c.22 0 .41.04.57.11.16.08.29.18.4.3.11.13.19.27.24.44.05.17.08.35.08.54v2.13h-.68v-1.9c0-.14-.01-.27-.03-.4a.81.81 0 0 0-.12-.33.662.662 0 0 0-.24-.23.75.75 0 0 0-.39-.09c-.27 0-.49.1-.67.31-.17.21-.26.48-.26.82v1.82h-.68v-5.48h.68v2.57h.01zM85.16 209.71v.12c0 .04 0 .08-.01.12h-2.73c0 .14.04.28.1.41.06.13.14.24.24.33.1.09.22.17.35.22s.27.08.42.08a1.162 1.162 0 0 0 1-.52l.48.38c-.18.24-.4.42-.65.54-.25.12-.53.17-.83.17-.26 0-.5-.04-.72-.13a1.701 1.701 0 0 1-.95-.94c-.09-.22-.14-.47-.14-.74s.04-.51.13-.74.21-.42.37-.58c.16-.16.35-.28.57-.37.22-.09.45-.13.7-.13.25 0 .48.04.69.12.21.08.38.2.52.36.14.15.25.34.33.56.09.21.13.46.13.74zm-.7-.28c0-.14-.03-.26-.07-.38s-.1-.22-.18-.31-.18-.16-.3-.21a1.109 1.109 0 0 0-.83 0c-.13.05-.24.12-.33.21s-.17.19-.23.31-.1.25-.1.38h2.04zM89.3 208.57h-.91v1.78c0 .21.04.36.12.44.08.09.2.13.37.13.06 0 .13-.01.2-.02s.14-.03.2-.06l.02.56c-.08.03-.17.05-.27.07-.1.02-.2.03-.31.03-.32 0-.57-.09-.74-.27s-.26-.45-.26-.8v-1.86h-.66v-.56h.66v-.99h.67v.99h.91v.56zM89.85 208.4c0-.14-.01-.27-.02-.38h.65c.01.09.02.19.02.3s.01.21.01.28h.02c.1-.2.24-.37.42-.49.19-.12.39-.19.63-.19.11 0 .2.01.27.03l-.03.63c-.1-.02-.2-.04-.31-.04-.16 0-.31.03-.43.09s-.22.14-.3.24c-.08.1-.14.22-.18.35s-.06.27-.06.42v1.8h-.68v-2.7c0-.08 0-.2-.01-.34zM95.42 209.71v.12c0 .04 0 .08-.01.12h-2.73c0 .14.04.28.1.41.06.13.14.24.24.33.1.09.22.17.35.22s.27.08.42.08a1.162 1.162 0 0 0 1-.52l.48.38c-.18.24-.4.42-.65.54-.25.12-.53.17-.83.17-.26 0-.5-.04-.72-.13a1.701 1.701 0 0 1-.95-.94c-.09-.22-.14-.47-.14-.74s.04-.51.13-.74.21-.42.37-.58c.16-.16.35-.28.57-.37.22-.09.45-.13.7-.13.25 0 .48.04.69.12.21.08.38.2.52.36.14.15.25.34.33.56.09.21.13.46.13.74zm-.7-.28c0-.14-.03-.26-.07-.38s-.1-.22-.18-.31-.18-.16-.3-.21a1.109 1.109 0 0 0-.83 0c-.13.05-.24.12-.33.21s-.17.19-.23.31-.1.25-.1.38h2.04zM98.31 209.23c0-.26-.08-.45-.23-.57-.15-.12-.36-.18-.62-.18-.19 0-.38.04-.55.11-.17.08-.31.17-.43.29l-.36-.43c.17-.16.38-.29.62-.38s.51-.14.79-.14c.25 0 .46.04.64.11s.33.17.45.29c.12.12.2.26.26.43.06.16.09.34.09.53v1.5c0 .12 0 .24.01.37s.02.23.04.32h-.62c-.04-.16-.06-.33-.06-.49h-.02c-.13.18-.28.33-.47.43s-.42.15-.68.15c-.14 0-.28-.02-.42-.05s-.28-.09-.4-.18a.96.96 0 0 1-.42-.83c0-.26.07-.47.21-.62s.32-.27.55-.35.48-.13.77-.16c.29-.02.57-.04.86-.04v-.11zm-.17.58c-.17 0-.34.01-.53.02s-.35.04-.49.09c-.15.04-.27.11-.37.2s-.15.2-.15.35c0 .1.02.19.06.25.04.07.1.12.16.17.07.04.14.07.22.09.08.02.17.03.25.03.32 0 .56-.1.74-.29.17-.19.26-.43.26-.72v-.18h-.15zM101.56 208.57h-.91v1.78c0 .21.04.36.12.44.08.09.2.13.37.13.06 0 .13-.01.2-.02s.14-.03.2-.06l.02.56c-.08.03-.17.05-.27.07-.1.02-.2.03-.31.03-.32 0-.57-.09-.74-.27s-.26-.45-.26-.8v-1.86h-.66v-.56h.66v-.99h.67v.99h.91v.56zM103.21 208.11c.19-.13.42-.19.68-.19.23 0 .44.05.63.16s.33.28.44.53c.12-.22.28-.39.49-.51.21-.12.44-.18.68-.18.22 0 .41.04.57.11.16.08.29.18.4.3.11.13.18.27.24.44s.08.35.08.54v2.13h-.68v-1.91c0-.14-.01-.27-.04-.4-.02-.12-.07-.24-.12-.33a.722.722 0 0 0-.23-.23.7.7 0 0 0-.37-.09c-.15 0-.29.03-.4.1-.11.06-.2.15-.27.25s-.12.22-.15.35c-.03.13-.05.26-.05.4v1.86h-.68v-2.04c0-.13-.01-.26-.04-.37a.844.844 0 0 0-.12-.29c-.06-.08-.13-.14-.22-.19s-.21-.07-.34-.07c-.25 0-.46.1-.63.31s-.25.48-.25.82v1.83h-.68v-2.7c0-.09 0-.21-.01-.36s-.01-.27-.02-.38h.65c.01.09.02.18.02.29 0 .11.01.2.01.27h.02c.06-.16.19-.32.39-.45zM111.61 209.71v.12c0 .04 0 .08-.01.12h-2.73c0 .14.04.28.1.41.06.13.14.24.24.33.1.09.22.17.35.22s.27.08.42.08a1.162 1.162 0 0 0 1-.52l.48.38c-.18.24-.4.42-.65.54-.25.12-.53.17-.83.17-.26 0-.5-.04-.72-.13a1.701 1.701 0 0 1-.95-.94c-.09-.22-.14-.47-.14-.74s.04-.51.13-.74.21-.42.37-.58c.16-.16.35-.28.57-.37.22-.09.45-.13.7-.13.25 0 .48.04.69.12.21.08.38.2.52.36.14.15.25.34.33.56.1.21.13.46.13.74zm-.69-.28c0-.14-.03-.26-.07-.38s-.1-.22-.18-.31-.18-.16-.3-.21a1.109 1.109 0 0 0-.83 0c-.13.05-.24.12-.33.21s-.17.19-.23.31-.1.25-.1.38h2.04zM113.03 208.02c.01.09.02.18.02.29 0 .11.01.2.01.27h.02c.04-.09.1-.18.18-.26.07-.08.16-.15.26-.21s.2-.11.32-.14c.12-.03.24-.05.36-.05.22 0 .41.04.57.11.16.08.29.18.4.3.11.13.18.27.24.44s.08.35.08.54v2.13h-.68v-1.91c0-.14-.01-.27-.03-.4-.02-.12-.06-.24-.12-.33s-.14-.17-.24-.23a.75.75 0 0 0-.39-.09c-.27 0-.49.1-.66.31s-.26.48-.26.82v1.83h-.68v-2.7c0-.09 0-.21-.01-.36s-.01-.27-.02-.38h.63zM118.17 208.57h-.91v1.78c0 .21.04.36.12.44.08.09.2.13.37.13.06 0 .13-.01.2-.02s.14-.03.2-.06l.02.56c-.08.03-.17.05-.27.07-.1.02-.2.03-.31.03-.32 0-.57-.09-.74-.27s-.26-.45-.26-.8v-1.86h-.66v-.56h.66v-.99h.67v.99h.91v.56zM123.13 210.91c-.13.21-.31.37-.53.48-.22.11-.46.16-.71.16-.27 0-.5-.05-.72-.14-.21-.09-.39-.22-.54-.39-.15-.16-.27-.36-.35-.58-.08-.22-.12-.46-.12-.71s.04-.49.12-.71c.08-.22.2-.41.35-.58.15-.17.33-.29.55-.38.21-.09.45-.14.7-.14a1.477 1.477 0 0 1 1.22.61h.01v-2.56h.68v5.48h-.66v-.54zm-2.26-1.18c0 .16.02.31.07.46s.12.28.22.4.21.21.35.28.3.1.49.1c.17 0 .33-.03.47-.1.14-.07.26-.16.37-.27s.18-.24.24-.39c.06-.15.08-.31.08-.47s-.03-.32-.08-.47c-.06-.15-.13-.28-.24-.4a.912.912 0 0 0-.37-.27c-.14-.07-.3-.1-.47-.1-.19 0-.35.03-.49.1s-.26.16-.35.27c-.1.12-.17.25-.22.4s-.07.3-.07.46zM128.32 209.73c0 .27-.05.51-.14.73-.09.22-.22.42-.39.58-.17.16-.36.29-.59.38-.23.09-.47.13-.73.13s-.5-.04-.73-.13c-.23-.09-.42-.21-.59-.38-.16-.16-.29-.35-.39-.58-.09-.22-.14-.47-.14-.73s.05-.51.14-.73.22-.41.39-.57c.16-.16.36-.28.59-.37.23-.09.47-.13.73-.13s.5.04.73.13c.23.09.42.21.59.37.17.16.3.35.39.57s.14.46.14.73zm-.71 0c0-.16-.03-.32-.08-.47s-.12-.28-.22-.39c-.1-.11-.22-.2-.36-.27s-.31-.1-.49-.1-.35.03-.49.1-.26.16-.36.27c-.1.11-.17.24-.22.39s-.08.31-.08.47c0 .16.03.32.08.47s.12.28.22.4.22.21.36.27.31.1.49.1.35-.03.49-.1.26-.16.36-.27c.1-.12.17-.25.22-.4s.08-.31.08-.47zM131.53 208.89a.846.846 0 0 0-.33-.28.92.92 0 0 0-.46-.11c-.18 0-.34.03-.48.1-.14.07-.25.16-.35.27-.1.11-.17.25-.22.39s-.08.31-.08.47c0 .17.03.32.08.47.05.15.12.28.22.39s.21.2.35.27c.14.07.3.1.48.1.17 0 .33-.03.47-.1.14-.07.26-.16.35-.28l.46.41c-.15.17-.33.3-.54.4-.22.09-.46.14-.74.14-.27 0-.51-.04-.74-.13s-.42-.21-.58-.37c-.16-.16-.29-.35-.39-.57-.09-.22-.14-.47-.14-.75 0-.27.05-.52.14-.74.09-.22.22-.41.38-.57.16-.16.36-.28.58-.37a1.933 1.933 0 0 1 1.45.02c.24.1.43.24.57.42l-.48.42z"/><path class="st0" d="M134.24 208.57h-.91v1.78c0 .21.04.36.12.44.08.09.2.13.37.13.06 0 .13-.01.2-.02s.14-.03.2-.06l.02.56c-.08.03-.17.05-.27.07-.1.02-.2.03-.31.03-.32 0-.57-.09-.74-.27s-.26-.45-.26-.8v-1.86H132v-.56h.66v-.99h.67v.99h.91v.56zM138.27 209.73c0 .27-.05.51-.14.73-.09.22-.22.42-.39.58-.17.16-.36.29-.59.38-.23.09-.47.13-.73.13s-.5-.04-.73-.13c-.23-.09-.42-.21-.59-.38-.16-.16-.29-.35-.39-.58-.09-.22-.14-.47-.14-.73s.05-.51.14-.73.22-.41.39-.57c.16-.16.36-.28.59-.37.23-.09.47-.13.73-.13s.5.04.73.13c.23.09.42.21.59.37.17.16.3.35.39.57s.14.46.14.73zm-.71 0c0-.16-.03-.32-.08-.47s-.12-.28-.22-.39c-.1-.11-.22-.2-.36-.27s-.31-.1-.49-.1-.35.03-.49.1-.26.16-.36.27c-.1.11-.17.24-.22.39s-.08.31-.08.47c0 .16.03.32.08.47s.12.28.22.4.22.21.36.27.31.1.49.1.35-.03.49-.1.26-.16.36-.27c.1-.12.17-.25.22-.4s.08-.31.08-.47zM139.06 208.4c0-.14-.01-.27-.02-.38h.65c.01.09.02.19.02.3s.01.21.01.28h.02c.1-.2.24-.37.42-.49.19-.12.39-.19.63-.19.11 0 .2.01.27.03l-.03.63c-.1-.02-.2-.04-.31-.04-.16 0-.31.03-.43.09s-.22.14-.3.24c-.08.1-.14.22-.18.35s-.06.27-.06.42v1.8h-.68v-2.7c0-.08 0-.2-.01-.34zM143.4 208.89a.94.94 0 0 0-1.03-.4c-.08.02-.15.04-.21.08s-.11.08-.15.14-.05.12-.05.21c0 .15.06.25.2.32.13.07.33.13.59.19.16.04.32.08.46.14.14.05.26.12.37.2.1.08.18.18.24.29.06.11.09.24.09.39a.987.987 0 0 1-.43.85c-.13.09-.27.15-.44.19-.16.04-.33.06-.51.06-.26 0-.52-.05-.76-.15-.25-.1-.46-.26-.62-.46l.49-.41c.09.13.22.25.38.34a1.076 1.076 0 0 0 1 .03c.07-.04.12-.09.16-.15.04-.06.06-.14.06-.24 0-.16-.08-.28-.23-.36-.15-.08-.38-.15-.67-.22-.12-.03-.23-.06-.35-.1s-.23-.1-.32-.17a.78.78 0 0 1-.24-.27.816.816 0 0 1-.09-.4c0-.18.04-.34.11-.47.07-.13.17-.24.29-.33.12-.08.26-.15.41-.19.15-.04.31-.06.48-.06.25 0 .48.05.71.15s.41.24.53.42l-.47.38zM148.71 211.45c-.01-.09-.02-.18-.02-.29 0-.11-.01-.2-.01-.27h-.01c-.09.18-.23.34-.44.47-.21.13-.43.19-.68.19a1.5 1.5 0 0 1-.58-.11c-.16-.07-.29-.17-.4-.3-.1-.13-.18-.28-.23-.45-.05-.17-.08-.35-.08-.54v-2.13h.68v1.9c0 .14.01.27.03.4.02.13.06.24.12.34.06.1.14.17.24.23.1.06.23.09.39.09.27 0 .5-.1.67-.31.17-.21.25-.48.25-.82v-1.83h.68v2.7c0 .09 0 .21.01.36 0 .14.01.27.02.38h-.64zM152.21 208.89a.94.94 0 0 0-1.03-.4c-.08.02-.15.04-.21.08s-.11.08-.15.14-.05.12-.05.21c0 .15.06.25.2.32.13.07.33.13.59.19.16.04.32.08.46.14.14.05.26.12.37.2.1.08.18.18.24.29.06.11.09.24.09.39a.987.987 0 0 1-.43.85c-.13.09-.27.15-.44.19-.16.04-.33.06-.51.06-.26 0-.52-.05-.76-.15-.25-.1-.46-.26-.62-.46l.49-.41c.09.13.22.25.38.34a1.076 1.076 0 0 0 1 .03c.07-.04.12-.09.16-.15.04-.06.06-.14.06-.24 0-.16-.08-.28-.23-.36-.15-.08-.38-.15-.67-.22-.12-.03-.23-.06-.35-.1s-.23-.1-.32-.17a.78.78 0 0 1-.24-.27.816.816 0 0 1-.09-.4c0-.18.04-.34.11-.47.07-.13.17-.24.29-.33.12-.08.26-.15.41-.19.15-.04.31-.06.48-.06.25 0 .48.05.71.15s.41.24.53.42l-.47.38zM156.64 209.71v.12c0 .04 0 .08-.01.12h-2.73c0 .14.04.28.1.41.06.13.14.24.24.33.1.09.22.17.35.22s.27.08.42.08a1.162 1.162 0 0 0 1-.52l.48.38c-.18.24-.4.42-.65.54-.25.12-.53.17-.83.17-.26 0-.5-.04-.72-.13a1.701 1.701 0 0 1-.95-.94c-.09-.22-.14-.47-.14-.74s.04-.51.13-.74.21-.42.37-.58c.16-.16.35-.28.57-.37.22-.09.45-.13.7-.13.25 0 .48.04.69.12.21.08.38.2.52.36.14.15.25.34.33.56.09.21.13.46.13.74zm-.69-.28c0-.14-.03-.26-.07-.38s-.1-.22-.18-.31-.18-.16-.3-.21a1.109 1.109 0 0 0-.83 0c-.13.05-.24.12-.33.21s-.17.19-.23.31-.1.25-.1.38h2.04zM160.19 208.11c.19-.13.42-.19.68-.19.23 0 .44.05.63.16s.33.28.44.53c.12-.22.28-.39.49-.51.21-.12.44-.18.68-.18.22 0 .41.04.57.11.16.08.29.18.4.3.11.13.18.27.24.44s.08.35.08.54v2.13h-.68v-1.91c0-.14-.01-.27-.04-.4-.02-.12-.07-.24-.12-.33a.722.722 0 0 0-.23-.23.7.7 0 0 0-.37-.09c-.15 0-.29.03-.4.1-.11.06-.2.15-.27.25s-.12.22-.15.35c-.03.13-.05.26-.05.4v1.86h-.68v-2.04c0-.13-.01-.26-.04-.37a.844.844 0 0 0-.12-.29c-.06-.08-.13-.14-.22-.19s-.21-.07-.34-.07c-.25 0-.46.1-.63.31s-.25.48-.25.82v1.83h-.68v-2.7c0-.09 0-.21-.01-.36s-.01-.27-.02-.38h.65c.01.09.02.18.02.29 0 .11.01.2.01.27h.02c.06-.16.2-.32.39-.45zM168.87 209.73c0 .27-.05.51-.14.73-.09.22-.22.42-.39.58-.17.16-.36.29-.59.38-.23.09-.47.13-.73.13s-.5-.04-.73-.13c-.23-.09-.42-.21-.59-.38-.16-.16-.29-.35-.39-.58-.09-.22-.14-.47-.14-.73s.05-.51.14-.73.22-.41.39-.57c.16-.16.36-.28.59-.37.23-.09.47-.13.73-.13s.5.04.73.13c.23.09.42.21.59.37.17.16.3.35.39.57s.14.46.14.73zm-.71 0c0-.16-.03-.32-.08-.47s-.12-.28-.22-.39c-.1-.11-.22-.2-.36-.27s-.31-.1-.49-.1-.35.03-.49.1-.26.16-.36.27c-.1.11-.17.24-.22.39s-.08.31-.08.47c0 .16.03.32.08.47s.12.28.22.4.22.21.36.27.31.1.49.1.35-.03.49-.1.26-.16.36-.27c.1-.12.17-.25.22-.4s.08-.31.08-.47zM171.52 208.89a.94.94 0 0 0-1.03-.4c-.08.02-.15.04-.21.08s-.11.08-.15.14-.05.12-.05.21c0 .15.06.25.2.32.13.07.33.13.59.19.16.04.32.08.46.14.14.05.26.12.37.2.1.08.18.18.24.29.06.11.09.24.09.39a.987.987 0 0 1-.43.85c-.13.09-.27.15-.44.19-.16.04-.33.06-.51.06-.26 0-.52-.05-.76-.15-.25-.1-.46-.26-.62-.46l.49-.41c.09.13.22.25.38.34a1.076 1.076 0 0 0 1 .03c.07-.04.12-.09.16-.15.04-.06.06-.14.06-.24 0-.16-.08-.28-.23-.36-.15-.08-.38-.15-.67-.22-.12-.03-.23-.06-.35-.1s-.23-.1-.32-.17a.78.78 0 0 1-.24-.27.816.816 0 0 1-.09-.4c0-.18.04-.34.11-.47.07-.13.17-.24.29-.33.12-.08.26-.15.41-.19.15-.04.31-.06.48-.06.25 0 .48.05.71.15s.41.24.53.42l-.47.38zM174.42 208.57h-.91v1.78c0 .21.04.36.12.44.08.09.2.13.37.13.06 0 .13-.01.2-.02s.14-.03.2-.06l.02.56c-.08.03-.17.05-.27.07-.1.02-.2.03-.31.03-.32 0-.57-.09-.74-.27s-.26-.45-.26-.8v-1.86h-.66v-.56h.66v-.99h.67v.99h.91v.56zM178.26 208.57h-.8v2.88h-.68v-2.88h-.68v-.56h.68v-.72c0-.2.02-.39.07-.56.05-.17.12-.32.22-.45s.24-.22.4-.3c.16-.07.36-.11.59-.11.16 0 .31.02.43.05l-.08.59c-.05-.01-.11-.03-.16-.04-.05-.01-.11-.01-.18-.01-.13 0-.24.02-.32.07s-.14.11-.18.18-.07.17-.09.26c-.01.1-.02.2-.02.31v.72h.8v.57zM182.22 209.73c0 .27-.05.51-.14.73-.09.22-.22.42-.39.58-.17.16-.36.29-.59.38-.23.09-.47.13-.73.13s-.5-.04-.73-.13c-.23-.09-.42-.21-.59-.38-.16-.16-.29-.35-.39-.58-.09-.22-.14-.47-.14-.73s.05-.51.14-.73.22-.41.39-.57c.16-.16.36-.28.59-.37.23-.09.47-.13.73-.13s.5.04.73.13c.23.09.42.21.59.37.17.16.3.35.39.57s.14.46.14.73zm-.71 0c0-.16-.03-.32-.08-.47s-.12-.28-.22-.39c-.1-.11-.22-.2-.36-.27s-.31-.1-.49-.1-.35.03-.49.1-.26.16-.36.27c-.1.11-.17.24-.22.39s-.08.31-.08.47c0 .16.03.32.08.47s.12.28.22.4.22.21.36.27.31.1.49.1.35-.03.49-.1.26-.16.36-.27c.1-.12.17-.25.22-.4s.08-.31.08-.47zM183.01 208.4c0-.14-.01-.27-.02-.38h.65c.01.09.02.19.02.3s.01.21.01.28h.02c.1-.2.24-.37.42-.49.19-.12.39-.19.63-.19.11 0 .2.01.27.03l-.03.63c-.1-.02-.2-.04-.31-.04-.16 0-.31.03-.43.09s-.22.14-.3.24c-.08.1-.14.22-.18.35s-.06.27-.06.42v1.8h-.68v-2.7c0-.08 0-.2-.01-.34zM187.78 208.02c.01.09.02.18.02.29 0 .11.01.2.01.27h.02c.04-.09.1-.18.18-.26.07-.08.16-.15.26-.21s.2-.11.32-.14c.12-.03.24-.05.36-.05.22 0 .41.04.57.11.16.08.29.18.4.3.11.13.18.27.24.44s.08.35.08.54v2.13h-.68v-1.91c0-.14-.01-.27-.03-.4-.02-.12-.06-.24-.12-.33s-.14-.17-.24-.23a.75.75 0 0 0-.39-.09c-.27 0-.49.1-.66.31s-.26.48-.26.82v1.83h-.68v-2.7c0-.09 0-.21-.01-.36s-.01-.27-.02-.38h.63zM194.71 209.73c0 .27-.05.51-.14.73-.09.22-.22.42-.39.58-.17.16-.36.29-.59.38-.23.09-.47.13-.73.13s-.5-.04-.73-.13c-.23-.09-.42-.21-.59-.38-.16-.16-.29-.35-.39-.58-.09-.22-.14-.47-.14-.73s.05-.51.14-.73.22-.41.39-.57c.16-.16.36-.28.59-.37.23-.09.47-.13.73-.13s.5.04.73.13c.23.09.42.21.59.37.17.16.3.35.39.57s.14.46.14.73zm-.71 0c0-.16-.03-.32-.08-.47s-.12-.28-.22-.39c-.1-.11-.22-.2-.36-.27s-.31-.1-.49-.1-.35.03-.49.1-.26.16-.36.27c-.1.11-.17.24-.22.39s-.08.31-.08.47c0 .16.03.32.08.47s.12.28.22.4.22.21.36.27.31.1.49.1.35-.03.49-.1.26-.16.36-.27c.1-.12.17-.25.22-.4s.08-.31.08-.47zM196.13 208.02c.01.09.02.18.02.29 0 .11.01.2.01.27h.02c.04-.09.1-.18.18-.26.07-.08.16-.15.26-.21s.2-.11.32-.14c.12-.03.24-.05.36-.05.22 0 .41.04.57.11.16.08.29.18.4.3.11.13.18.27.24.44s.08.35.08.54v2.13h-.68v-1.91c0-.14-.01-.27-.03-.4-.02-.12-.06-.24-.12-.33s-.14-.17-.24-.23a.75.75 0 0 0-.39-.09c-.27 0-.49.1-.66.31s-.26.48-.26.82v1.83h-.68v-2.7c0-.09 0-.21-.01-.36s-.01-.27-.02-.38h.63zM201.44 208.89a.94.94 0 0 0-1.03-.4c-.08.02-.15.04-.21.08s-.11.08-.15.14-.05.12-.05.21c0 .15.06.25.2.32.13.07.33.13.59.19.16.04.32.08.46.14.14.05.26.12.37.2.1.08.18.18.24.29.06.11.09.24.09.39a.987.987 0 0 1-.43.85c-.13.09-.27.15-.44.19-.16.04-.33.06-.51.06-.26 0-.52-.05-.76-.15-.25-.1-.46-.26-.62-.46l.49-.41c.09.13.22.25.38.34a1.076 1.076 0 0 0 1 .03c.07-.04.12-.09.16-.15.04-.06.06-.14.06-.24 0-.16-.08-.28-.23-.36-.15-.08-.38-.15-.67-.22-.12-.03-.23-.06-.35-.1s-.23-.1-.32-.17a.78.78 0 0 1-.24-.27.816.816 0 0 1-.09-.4c0-.18.04-.34.11-.47.07-.13.17-.24.29-.33.12-.08.26-.15.41-.19.15-.04.31-.06.48-.06.25 0 .48.05.71.15s.41.24.53.42l-.47.38zM205.08 211.45c-.01-.09-.02-.18-.02-.29 0-.11-.01-.2-.01-.27h-.01c-.09.18-.23.34-.44.47-.21.13-.43.19-.68.19a1.5 1.5 0 0 1-.58-.11c-.16-.07-.29-.17-.4-.3-.1-.13-.18-.28-.23-.45-.05-.17-.08-.35-.08-.54v-2.13h.68v1.9c0 .14.01.27.03.4.02.13.06.24.12.34.06.1.14.17.24.23.1.06.23.09.39.09.27 0 .5-.1.67-.31.17-.21.25-.48.25-.82v-1.83h.68v2.7c0 .09 0 .21.01.36 0 .14.01.27.02.38h-.64zM206.72 208.4c0-.14-.01-.27-.02-.38h.65c.01.09.02.19.02.3s.01.21.01.28h.02c.1-.2.24-.37.42-.49.19-.12.39-.19.63-.19.11 0 .2.01.27.03l-.03.63c-.1-.02-.2-.04-.31-.04-.16 0-.31.03-.43.09s-.22.14-.3.24c-.08.1-.14.22-.18.35s-.06.27-.06.42v1.8h-.68v-2.7c0-.08 0-.2-.01-.34zM209.34 212.04c.15.17.34.3.56.41.22.1.46.15.69.15.23 0 .42-.03.57-.1s.28-.15.37-.27c.09-.11.16-.25.2-.4.04-.16.06-.32.06-.5v-.44h-.01c-.13.19-.3.34-.51.44a1.798 1.798 0 0 1-1.41.01 1.642 1.642 0 0 1-.9-.94c-.08-.21-.12-.45-.12-.69s.04-.48.12-.7a1.655 1.655 0 0 1 .89-.95c.21-.09.45-.14.71-.14.25 0 .48.05.71.16.22.11.4.27.53.49h.01v-.55h.66v3.26c0 .25-.03.49-.09.72s-.17.43-.32.61-.35.32-.59.42c-.24.11-.54.16-.9.16-.3 0-.6-.05-.9-.16s-.56-.26-.78-.46l.45-.53zm.21-2.34c0 .16.03.31.08.46.05.14.13.27.23.38.1.11.22.2.36.27.14.07.3.1.48.1.17 0 .33-.03.48-.09.15-.06.27-.15.37-.26.1-.11.18-.24.24-.38.06-.15.08-.3.08-.47 0-.16-.03-.32-.08-.46a1.36 1.36 0 0 0-.24-.38c-.1-.11-.23-.2-.37-.26s-.3-.1-.48-.1-.34.03-.48.1-.26.15-.36.26c-.1.11-.17.24-.23.38s-.08.28-.08.45zM214.31 206.78c0 .13-.04.23-.13.31-.09.08-.2.12-.32.12s-.23-.04-.32-.13a.401.401 0 0 1-.13-.31c0-.13.04-.23.13-.32.09-.08.19-.13.32-.13s.23.04.32.13c.08.1.13.2.13.33zm-.11 4.67h-.68v-3.43h.68v3.43zM217.65 208.89a.846.846 0 0 0-.33-.28.92.92 0 0 0-.46-.11c-.18 0-.34.03-.48.1-.14.07-.25.16-.35.27-.1.11-.17.25-.22.39s-.08.31-.08.47c0 .17.03.32.08.47.05.15.12.28.22.39s.21.2.35.27c.14.07.3.1.48.1.17 0 .33-.03.47-.1.14-.07.26-.16.35-.28l.46.41c-.15.17-.33.3-.54.4-.22.09-.46.14-.74.14-.27 0-.51-.04-.74-.13s-.42-.21-.58-.37c-.16-.16-.29-.35-.39-.57-.09-.22-.14-.47-.14-.75 0-.27.05-.52.14-.74.09-.22.22-.41.38-.57.16-.16.36-.28.58-.37a1.933 1.933 0 0 1 1.45.02c.24.1.43.24.57.42l-.48.42zM220.82 209.23c0-.26-.08-.45-.23-.57-.15-.12-.36-.18-.62-.18-.19 0-.38.04-.55.11-.17.08-.31.17-.43.29l-.36-.43c.17-.16.38-.29.62-.38s.51-.14.79-.14c.25 0 .46.04.64.11s.33.17.45.29c.12.12.2.26.26.43.06.16.09.34.09.53v1.5c0 .12 0 .24.01.37s.02.23.04.32h-.62c-.04-.16-.06-.33-.06-.49h-.02c-.13.18-.28.33-.47.43s-.42.15-.68.15c-.14 0-.28-.02-.42-.05s-.28-.09-.4-.18a.96.96 0 0 1-.42-.83c0-.26.07-.47.21-.62s.32-.27.55-.35.48-.13.77-.16c.29-.02.57-.04.86-.04v-.11zm-.17.58c-.17 0-.34.01-.53.02s-.35.04-.49.09c-.15.04-.27.11-.37.2s-.15.2-.15.35c0 .1.02.19.06.25.04.07.1.12.16.17.07.04.14.07.22.09.08.02.17.03.25.03.32 0 .56-.1.74-.29.17-.19.26-.43.26-.72v-.18h-.15zM223.16 211.45h-.68v-5.48h.68v5.48zM20.04 217.07h-.8v2.88h-.68v-2.88h-.68v-.56h.68v-.72c0-.2.02-.39.07-.56.05-.17.12-.32.22-.45s.24-.22.4-.3c.16-.07.36-.11.59-.11.16 0 .31.02.43.05l-.08.59c-.05-.01-.11-.03-.16-.04-.05-.01-.11-.01-.18-.01-.13 0-.24.02-.32.07s-.14.11-.18.18-.07.17-.09.26c-.01.1-.02.2-.02.31v.72h.8v.57zM22.66 217.72c0-.26-.08-.45-.23-.57-.15-.12-.36-.18-.62-.18-.19 0-.38.04-.55.11-.17.08-.31.17-.43.29l-.36-.43c.17-.16.38-.29.62-.38s.51-.14.79-.14c.25 0 .46.04.64.11s.33.17.45.29c.12.12.2.26.26.43.06.16.09.34.09.53v1.5c0 .12 0 .24.01.37s.02.23.04.32h-.62c-.04-.16-.06-.33-.06-.49h-.02c-.13.18-.28.33-.47.43s-.42.15-.68.15c-.14 0-.28-.02-.42-.05s-.28-.09-.4-.18a.96.96 0 0 1-.42-.83c0-.26.07-.47.21-.62s.32-.27.55-.35.48-.13.77-.16c.29-.02.57-.04.86-.04v-.11zm-.17.59c-.17 0-.34.01-.53.02s-.35.04-.49.09c-.15.04-.27.11-.37.2s-.15.2-.15.35c0 .1.02.19.06.25.04.07.1.12.16.17.07.04.14.07.22.09.08.02.17.03.25.03.32 0 .56-.1.74-.29.17-.19.26-.43.26-.72v-.18h-.15zM25.91 217.07H25v1.78c0 .21.04.36.12.44.08.09.2.13.37.13.06 0 .13-.01.2-.02s.14-.03.2-.06l.02.56c-.08.03-.17.05-.27.07-.1.02-.2.03-.31.03-.32 0-.57-.09-.74-.27s-.26-.45-.26-.8v-1.86h-.66v-.56h.66v-.99H25v.99h.91v.56zM28.13 216.9c0-.14-.01-.27-.02-.38h.65c.01.09.02.19.02.3s.01.21.01.28h.02c.1-.2.24-.37.42-.49.19-.12.39-.19.63-.19.11 0 .2.01.27.03l-.03.63c-.1-.02-.2-.04-.31-.04-.16 0-.31.03-.43.09s-.22.14-.3.24c-.08.1-.14.22-.18.35s-.06.27-.06.42v1.8h-.68v-2.7c0-.08 0-.2-.01-.34zM33.7 218.2v.12c0 .04 0 .08-.01.12h-2.73c0 .14.04.28.1.41.06.13.14.24.24.33.1.09.22.17.35.22s.27.08.42.08a1.162 1.162 0 0 0 1-.52l.48.38c-.18.24-.4.42-.65.54-.25.12-.53.17-.83.17-.26 0-.5-.04-.72-.13a1.701 1.701 0 0 1-.95-.94c-.09-.22-.14-.47-.14-.74s.04-.51.13-.74.21-.42.37-.58c.16-.16.35-.28.57-.37.22-.09.45-.13.7-.13.25 0 .48.04.69.12.21.08.38.2.52.36.14.15.25.34.33.56.09.22.13.46.13.74zm-.7-.28c0-.14-.03-.26-.07-.38s-.1-.22-.18-.31-.18-.16-.3-.21a1.109 1.109 0 0 0-.83 0c-.13.05-.24.12-.33.21s-.17.19-.23.31-.1.25-.1.38H33zM37.23 219.4c-.13.21-.31.37-.53.48-.22.11-.46.16-.71.16-.27 0-.5-.05-.72-.14-.21-.09-.39-.22-.54-.39-.15-.16-.27-.36-.35-.58-.08-.22-.12-.46-.12-.71s.04-.49.12-.71c.08-.22.2-.41.35-.58.15-.17.33-.29.55-.38.21-.09.45-.14.7-.14a1.477 1.477 0 0 1 1.22.61h.01v-2.56h.68v5.48h-.66v-.54zm-2.26-1.17c0 .16.02.31.07.46s.12.28.22.4.21.21.35.28.3.1.49.1c.17 0 .33-.03.47-.1.14-.07.26-.16.37-.27s.18-.24.24-.39c.06-.15.08-.31.08-.47s-.03-.32-.08-.47c-.06-.15-.13-.28-.24-.4a.912.912 0 0 0-.37-.27c-.14-.07-.3-.1-.47-.1-.19 0-.35.03-.49.1s-.26.16-.35.27c-.1.12-.17.25-.22.4s-.07.3-.07.46zM41.37 219.95c-.01-.09-.02-.18-.02-.29 0-.11-.01-.2-.01-.27h-.01c-.09.18-.23.34-.44.47-.21.13-.43.19-.68.19a1.5 1.5 0 0 1-.58-.11c-.16-.07-.29-.17-.4-.3-.1-.13-.18-.28-.23-.45-.05-.17-.08-.35-.08-.54v-2.13h.68v1.9c0 .14.01.27.03.4.02.13.06.24.12.34.06.1.14.17.24.23.1.06.23.09.39.09.27 0 .5-.1.67-.31.17-.21.25-.48.25-.82v-1.83h.68v2.7c0 .09 0 .21.01.36 0 .14.01.27.02.38h-.64zM45.43 217.38a.846.846 0 0 0-.33-.28.92.92 0 0 0-.46-.11c-.18 0-.34.03-.48.1-.14.07-.25.16-.35.27-.1.11-.17.25-.22.39s-.08.31-.08.47c0 .17.03.32.08.47.05.15.12.28.22.39s.21.2.35.27c.14.07.3.1.48.1.17 0 .33-.03.47-.1.14-.07.26-.16.35-.28l.46.41c-.15.17-.33.3-.54.4-.22.09-.46.14-.74.14-.27 0-.51-.04-.74-.13s-.42-.21-.58-.37c-.16-.16-.29-.35-.39-.57-.09-.22-.14-.47-.14-.75 0-.27.05-.52.14-.74.09-.22.22-.41.38-.57.16-.16.36-.28.58-.37a1.933 1.933 0 0 1 1.45.02c.24.1.43.24.57.42l-.48.42z"/><path class="st0" d="M48.14 217.07h-.91v1.78c0 .21.04.36.12.44.08.09.2.13.37.13.06 0 .13-.01.2-.02s.14-.03.2-.06l.02.56c-.08.03-.17.05-.27.07-.1.02-.2.03-.31.03-.32 0-.57-.09-.74-.27s-.26-.45-.26-.8v-1.86h-.66v-.56h.66v-.99h.67v.99h.91v.56zM49.49 215.27c0 .13-.04.23-.13.31-.09.08-.2.12-.32.12s-.23-.04-.32-.13a.401.401 0 0 1-.13-.31c0-.13.04-.23.13-.32.09-.08.19-.13.32-.13s.23.04.32.13c.09.1.13.21.13.33zm-.11 4.68h-.68v-3.43h.68v3.43zM53.91 218.22c0 .27-.05.51-.14.73-.09.22-.22.42-.39.58-.17.16-.36.29-.59.38-.23.09-.47.13-.73.13s-.5-.04-.73-.13c-.23-.09-.42-.21-.59-.38-.16-.16-.29-.35-.39-.58-.09-.22-.14-.47-.14-.73s.05-.51.14-.73.22-.41.39-.57c.16-.16.36-.28.59-.37.23-.09.47-.13.73-.13s.5.04.73.13c.23.09.42.21.59.37.17.16.3.35.39.57s.14.47.14.73zm-.72.01c0-.16-.03-.32-.08-.47s-.12-.28-.22-.39c-.1-.11-.22-.2-.36-.27s-.31-.1-.49-.1-.35.03-.49.1-.26.16-.36.27c-.1.11-.17.24-.22.39s-.08.31-.08.47c0 .16.03.32.08.47s.12.28.22.4.22.21.36.27.31.1.49.1.35-.03.49-.1.26-.16.36-.27c.1-.12.17-.25.22-.4s.08-.31.08-.47zM55.32 216.51c.01.09.02.18.02.29 0 .11.01.2.01.27h.02c.04-.09.1-.18.18-.26.07-.08.16-.15.26-.21s.2-.11.32-.14c.12-.03.24-.05.36-.05.22 0 .41.04.57.11.16.08.29.18.4.3.11.13.18.27.24.44s.08.35.08.54v2.13h-.68v-1.91c0-.14-.01-.27-.03-.4-.02-.12-.06-.24-.12-.33s-.14-.17-.24-.23a.75.75 0 0 0-.39-.09c-.27 0-.49.1-.66.31s-.26.48-.26.82v1.83h-.7v-2.7c0-.09 0-.21-.01-.36s-.01-.27-.02-.38h.65zM59.62 219.51c0 .12-.05.24-.14.33-.09.1-.21.15-.35.15a.46.46 0 0 1-.34-.14.453.453 0 0 1-.14-.33c0-.13.05-.24.14-.34.09-.09.21-.14.35-.14s.26.05.35.14c.08.09.13.2.13.33zM62.08 219.95h-.8l2.22-5.13h.65l2.2 5.13h-.81l-.52-1.26h-2.44l-.5 1.26zm.77-1.9h1.92l-.96-2.41-.96 2.41zM67.54 219.95h-.68v-5.48h.68v5.48zM69.27 219.95h-.68v-5.48h.68v5.48zM73.53 218.2v.12c0 .04 0 .08-.01.12h-2.73c0 .14.04.28.1.41.06.13.14.24.24.33.1.09.22.17.35.22s.27.08.42.08a1.162 1.162 0 0 0 1-.52l.48.38c-.18.24-.4.42-.65.54-.25.12-.53.17-.83.17-.26 0-.5-.04-.72-.13a1.701 1.701 0 0 1-.95-.94c-.09-.22-.14-.47-.14-.74s.04-.51.13-.74.21-.42.37-.58c.16-.16.35-.28.57-.37.22-.09.45-.13.7-.13.25 0 .48.04.69.12.21.08.38.2.52.36.14.15.25.34.33.56.09.22.13.46.13.74zm-.7-.28c0-.14-.03-.26-.07-.38s-.1-.22-.18-.31-.18-.16-.3-.21a1.109 1.109 0 0 0-.83 0c-.13.05-.24.12-.33.21s-.17.19-.23.31-.1.25-.1.38h2.04zM75.09 218.14l-1.25-1.63h.84l.84 1.18.85-1.18h.8l-1.24 1.62 1.38 1.81h-.85l-.96-1.34-.97 1.34h-.82l1.38-1.8zM79.95 217.72c0-.26-.08-.45-.23-.57-.15-.12-.36-.18-.62-.18-.19 0-.38.04-.55.11-.17.08-.31.17-.43.29l-.36-.43c.17-.16.38-.29.62-.38s.51-.14.79-.14c.25 0 .46.04.64.11s.33.17.45.29c.12.12.2.26.26.43.06.16.09.34.09.53v1.5c0 .12 0 .24.01.37s.02.23.04.32h-.62c-.04-.16-.06-.33-.06-.49h-.02c-.13.18-.28.33-.47.43s-.42.15-.68.15c-.14 0-.28-.02-.42-.05s-.28-.09-.4-.18a.96.96 0 0 1-.42-.83c0-.26.07-.47.21-.62s.32-.27.55-.35.48-.13.77-.16c.29-.02.57-.04.86-.04v-.11zm-.17.59c-.17 0-.34.01-.53.02s-.35.04-.49.09c-.15.04-.27.11-.37.2s-.15.2-.15.35c0 .1.02.19.06.25.04.07.1.12.16.17.07.04.14.07.22.09.08.02.17.03.25.03.32 0 .56-.1.74-.29.17-.19.26-.43.26-.72v-.18h-.15zM83.51 216.51l.77 2.62h.01l.82-2.62h.72l.83 2.62h.01l.78-2.62h.72l-1.14 3.43h-.71l-.85-2.58h-.01l-.84 2.58h-.71l-1.15-3.43h.75zM90.85 217.72c0-.26-.08-.45-.23-.57-.15-.12-.36-.18-.62-.18-.19 0-.38.04-.55.11-.17.08-.31.17-.43.29l-.36-.43c.17-.16.38-.29.62-.38s.51-.14.79-.14c.25 0 .46.04.64.11s.33.17.45.29c.12.12.2.26.26.43.06.16.09.34.09.53v1.5c0 .12 0 .24.01.37s.02.23.04.32h-.62c-.04-.16-.06-.33-.06-.49h-.02c-.13.18-.28.33-.47.43s-.42.15-.68.15c-.14 0-.28-.02-.42-.05s-.28-.09-.4-.18a.96.96 0 0 1-.42-.83c0-.26.07-.47.21-.62s.32-.27.55-.35.48-.13.77-.16c.29-.02.57-.04.86-.04v-.11zm-.16.59c-.17 0-.34.01-.53.02s-.35.04-.49.09c-.15.04-.27.11-.37.2s-.15.2-.15.35c0 .1.02.19.06.25.04.07.1.12.16.17.07.04.14.07.22.09.08.02.17.03.25.03.32 0 .56-.1.74-.29.17-.19.26-.43.26-.72v-.18h-.15zM94.35 217.38a.94.94 0 0 0-1.03-.4c-.08.02-.15.04-.21.08s-.11.08-.15.14-.05.12-.05.21c0 .15.06.25.2.32.13.07.33.13.59.19.16.04.32.08.46.14.14.05.26.12.37.2.1.08.18.18.24.29.06.11.09.24.09.39a.987.987 0 0 1-.43.85c-.13.09-.27.15-.44.19-.16.04-.33.06-.51.06-.26 0-.52-.05-.76-.15-.25-.1-.46-.26-.62-.46l.49-.41c.09.13.22.25.38.34a1.076 1.076 0 0 0 1 .03c.07-.04.12-.09.16-.15.04-.06.06-.14.06-.24 0-.16-.08-.28-.23-.36-.15-.08-.38-.15-.67-.22-.12-.03-.23-.06-.35-.1s-.23-.1-.32-.17a.78.78 0 0 1-.24-.27.816.816 0 0 1-.09-.4c0-.18.04-.34.11-.47.07-.13.17-.24.29-.33.12-.08.26-.15.41-.19.15-.04.31-.06.48-.06.25 0 .48.05.71.15s.41.24.53.42l-.47.38zM98.92 217.07H98v1.78c0 .21.04.36.12.44.08.09.2.13.37.13.06 0 .13-.01.2-.02s.14-.03.2-.06l.02.56c-.08.03-.17.05-.27.07-.1.02-.2.03-.31.03-.32 0-.57-.09-.74-.27s-.26-.45-.26-.8v-1.86h-.66v-.56h.66v-.99H98v.99h.91v.56zM99.47 216.9c0-.14-.01-.27-.02-.38h.65c.01.09.02.19.02.3s.01.21.01.28h.02c.1-.2.24-.37.42-.49.19-.12.39-.19.63-.19.11 0 .2.01.27.03l-.03.63c-.1-.02-.2-.04-.31-.04-.16 0-.31.03-.43.09s-.22.14-.3.24c-.08.1-.14.22-.18.35s-.06.27-.06.42v1.8h-.68v-2.7c0-.08-.01-.2-.01-.34zM105.03 218.2v.12c0 .04 0 .08-.01.12h-2.73c0 .14.04.28.1.41.06.13.14.24.24.33.1.09.22.17.35.22s.27.08.42.08a1.162 1.162 0 0 0 1-.52l.48.38c-.18.24-.4.42-.65.54-.25.12-.53.17-.83.17-.26 0-.5-.04-.72-.13a1.701 1.701 0 0 1-.95-.94c-.09-.22-.14-.47-.14-.74s.04-.51.13-.74.21-.42.37-.58c.16-.16.35-.28.57-.37.22-.09.45-.13.7-.13.25 0 .48.04.69.12.21.08.38.2.52.36.14.15.25.34.33.56.09.22.13.46.13.74zm-.69-.28c0-.14-.03-.26-.07-.38s-.1-.22-.18-.31-.18-.16-.3-.21a1.109 1.109 0 0 0-.83 0c-.13.05-.24.12-.33.21s-.17.19-.23.31-.1.25-.1.38h2.04zM107.92 217.72c0-.26-.08-.45-.23-.57-.15-.12-.36-.18-.62-.18-.19 0-.38.04-.55.11-.17.08-.31.17-.43.29l-.36-.43c.17-.16.38-.29.62-.38s.51-.14.79-.14c.25 0 .46.04.64.11s.33.17.45.29c.12.12.2.26.26.43.06.16.09.34.09.53v1.5c0 .12 0 .24.01.37s.02.23.04.32h-.62c-.04-.16-.06-.33-.06-.49h-.02c-.13.18-.28.33-.47.43s-.42.15-.68.15c-.14 0-.28-.02-.42-.05s-.28-.09-.4-.18a.96.96 0 0 1-.42-.83c0-.26.07-.47.21-.62s.32-.27.55-.35.48-.13.77-.16c.29-.02.57-.04.86-.04v-.11zm-.16.59c-.17 0-.34.01-.53.02s-.35.04-.49.09c-.15.04-.27.11-.37.2s-.15.2-.15.35c0 .1.02.19.06.25.04.07.1.12.16.17.07.04.14.07.22.09.08.02.17.03.25.03.32 0 .56-.1.74-.29.17-.19.26-.43.26-.72v-.18h-.15zM111.18 217.07h-.91v1.78c0 .21.04.36.12.44.08.09.2.13.37.13.06 0 .13-.01.2-.02s.14-.03.2-.06l.02.56c-.08.03-.17.05-.27.07-.1.02-.2.03-.31.03-.32 0-.57-.09-.74-.27s-.26-.45-.26-.8v-1.86h-.66v-.56h.66v-.99h.67v.99h.91v.56zM114.95 218.2v.12c0 .04 0 .08-.01.12h-2.73c0 .14.04.28.1.41.06.13.14.24.24.33.1.09.22.17.35.22s.27.08.42.08a1.162 1.162 0 0 0 1-.52l.48.38c-.18.24-.4.42-.65.54-.25.12-.53.17-.83.17-.26 0-.5-.04-.72-.13a1.701 1.701 0 0 1-.95-.94c-.09-.22-.14-.47-.14-.74s.04-.51.13-.74.21-.42.37-.58c.16-.16.35-.28.57-.37.22-.09.45-.13.7-.13.25 0 .48.04.69.12.21.08.38.2.52.36.14.15.25.34.33.56.09.22.13.46.13.74zm-.7-.28c0-.14-.03-.26-.07-.38s-.1-.22-.18-.31-.18-.16-.3-.21a1.109 1.109 0 0 0-.83 0c-.13.05-.24.12-.33.21s-.17.19-.23.31-.1.25-.1.38h2.04zM118.48 219.4c-.13.21-.31.37-.53.48-.22.11-.46.16-.71.16-.27 0-.5-.05-.72-.14-.21-.09-.39-.22-.54-.39-.15-.16-.27-.36-.35-.58-.08-.22-.12-.46-.12-.71s.04-.49.12-.71c.08-.22.2-.41.35-.58.15-.17.33-.29.55-.38.21-.09.45-.14.7-.14a1.477 1.477 0 0 1 1.22.61h.01v-2.56h.68v5.48h-.66v-.54zm-2.26-1.17c0 .16.02.31.07.46s.12.28.22.4.21.21.35.28.3.1.49.1c.17 0 .33-.03.47-.1.14-.07.26-.16.37-.27s.18-.24.24-.39c.06-.15.08-.31.08-.47s-.03-.32-.08-.47c-.06-.15-.13-.28-.24-.4a.912.912 0 0 0-.37-.27c-.14-.07-.3-.1-.47-.1-.19 0-.35.03-.49.1s-.26.16-.35.27c-.1.12-.17.25-.22.4s-.07.3-.07.46zM122.12 216.51l.77 2.62h.01l.82-2.62h.72l.83 2.62h.01l.78-2.62h.72l-1.14 3.43h-.71l-.85-2.58h-.01l-.84 2.58h-.71l-1.15-3.43h.75zM128.12 215.27c0 .13-.04.23-.13.31-.09.08-.2.12-.32.12s-.23-.04-.32-.13a.401.401 0 0 1-.13-.31c0-.13.04-.23.13-.32.09-.08.19-.13.32-.13s.23.04.32.13c.09.1.13.21.13.33zm-.11 4.68h-.68v-3.43h.68v3.43zM130.74 217.07h-.91v1.78c0 .21.04.36.12.44.08.09.2.13.37.13.06 0 .13-.01.2-.02s.14-.03.2-.06l.02.56c-.08.03-.17.05-.27.07-.1.02-.2.03-.31.03-.32 0-.57-.09-.74-.27s-.26-.45-.26-.8v-1.86h-.66v-.56h.66v-.99h.67v.99h.91v.56zM132 217.03c.08-.17.22-.31.42-.43s.42-.18.67-.18c.22 0 .41.04.57.11.16.08.29.18.4.3.11.13.19.27.24.44.05.17.08.35.08.54v2.13h-.68v-1.9c0-.14-.01-.27-.03-.4a.81.81 0 0 0-.12-.33.662.662 0 0 0-.24-.23.75.75 0 0 0-.39-.09c-.27 0-.49.1-.67.31-.17.21-.26.48-.26.82v1.82h-.68v-5.48h.68v2.57h.01zM141.48 219.15c-.2.28-.47.5-.79.67-.32.17-.71.26-1.17.26-.39 0-.75-.07-1.08-.2-.33-.13-.62-.32-.85-.56a2.47 2.47 0 0 1-.56-.85c-.14-.33-.2-.7-.2-1.09 0-.4.07-.77.21-1.1s.33-.61.57-.85c.24-.23.53-.42.87-.55a2.976 2.976 0 0 1 1.62-.15c.18.03.35.08.51.15.16.07.31.15.45.25s.25.21.35.34l-.56.43c-.13-.17-.3-.32-.53-.43s-.48-.17-.74-.17c-.3 0-.57.05-.81.16-.24.11-.44.26-.61.45s-.3.41-.39.66c-.09.25-.14.51-.14.79 0 .29.04.56.13.81s.22.47.38.66c.17.19.37.33.61.44.24.11.51.16.8.16.29 0 .55-.06.79-.17.24-.12.43-.28.59-.51l.55.4zM145.42 218.22c0 .27-.05.51-.14.73-.09.22-.22.42-.39.58-.17.16-.36.29-.59.38-.23.09-.47.13-.73.13s-.5-.04-.73-.13c-.23-.09-.42-.21-.59-.38-.16-.16-.29-.35-.39-.58-.09-.22-.14-.47-.14-.73s.05-.51.14-.73.22-.41.39-.57c.16-.16.36-.28.59-.37.23-.09.47-.13.73-.13s.5.04.73.13c.23.09.42.21.59.37.17.16.3.35.39.57s.14.47.14.73zm-.71.01c0-.16-.03-.32-.08-.47s-.12-.28-.22-.39c-.1-.11-.22-.2-.36-.27s-.31-.1-.49-.1-.35.03-.49.1-.26.16-.36.27c-.1.11-.17.24-.22.39s-.08.31-.08.47c0 .16.03.32.08.47s.12.28.22.4.22.21.36.27.31.1.49.1.35-.03.49-.1.26-.16.36-.27c.1-.12.17-.25.22-.4s.08-.31.08-.47zM149.7 218.22c0 .27-.05.51-.14.73-.09.22-.22.42-.39.58-.17.16-.36.29-.59.38-.23.09-.47.13-.73.13s-.5-.04-.73-.13c-.23-.09-.42-.21-.59-.38-.16-.16-.29-.35-.39-.58-.09-.22-.14-.47-.14-.73s.05-.51.14-.73.22-.41.39-.57c.16-.16.36-.28.59-.37.23-.09.47-.13.73-.13s.5.04.73.13c.23.09.42.21.59.37.17.16.3.35.39.57s.14.47.14.73zm-.71.01c0-.16-.03-.32-.08-.47s-.12-.28-.22-.39c-.1-.11-.22-.2-.36-.27s-.31-.1-.49-.1-.35.03-.49.1-.26.16-.36.27c-.1.11-.17.24-.22.39s-.08.31-.08.47c0 .16.03.32.08.47s.12.28.22.4.22.21.36.27.31.1.49.1.35-.03.49-.1.26-.16.36-.27c.1-.12.17-.25.22-.4s.08-.31.08-.47zM151.19 219.95h-.68v-5.48h.68v5.48zM154.82 215.76c-.1-.14-.24-.25-.41-.34a1.25 1.25 0 0 0-.59-.13c-.12 0-.23.02-.35.05-.12.03-.23.08-.32.15s-.18.16-.24.26-.09.23-.09.37c0 .14.03.26.08.35.06.09.13.17.22.24s.21.12.33.17c.13.05.26.09.41.14.17.05.35.11.53.18.18.07.34.16.49.27.15.11.26.25.35.42s.14.38.14.63c0 .27-.05.5-.15.69-.1.2-.23.36-.4.49-.16.13-.35.22-.57.29s-.44.09-.66.09c-.32 0-.64-.06-.94-.19-.3-.13-.55-.31-.75-.56l.56-.47c.12.18.28.32.49.43a1.35 1.35 0 0 0 1.02.12c.12-.03.23-.09.33-.16s.18-.16.24-.27c.06-.11.09-.24.09-.39s-.03-.28-.1-.39a.92.92 0 0 0-.26-.26c-.11-.07-.24-.13-.39-.18s-.3-.1-.47-.16c-.16-.05-.33-.11-.49-.18-.16-.07-.3-.16-.43-.27-.13-.11-.23-.24-.3-.4a1.32 1.32 0 0 1-.12-.59c0-.26.05-.48.16-.66a1.51 1.51 0 0 1 .98-.72c.21-.06.42-.08.63-.08.3 0 .58.05.84.16s.47.25.63.43l-.49.47zM158.62 217.38a.846.846 0 0 0-.33-.28.92.92 0 0 0-.46-.11c-.18 0-.34.03-.48.1-.14.07-.25.16-.35.27-.1.11-.17.25-.22.39s-.08.31-.08.47c0 .17.03.32.08.47.05.15.12.28.22.39s.21.2.35.27c.14.07.3.1.48.1.17 0 .33-.03.47-.1.14-.07.26-.16.35-.28l.46.41c-.15.17-.33.3-.54.4-.22.09-.46.14-.74.14-.27 0-.51-.04-.74-.13s-.42-.21-.58-.37c-.16-.16-.29-.35-.39-.57-.09-.22-.14-.47-.14-.75 0-.27.05-.52.14-.74.09-.22.22-.41.38-.57.16-.16.36-.28.58-.37a1.933 1.933 0 0 1 1.45.02c.24.1.43.24.57.42l-.48.42zM162.07 219.95c-.01-.09-.02-.18-.02-.29 0-.11-.01-.2-.01-.27h-.01c-.09.18-.23.34-.44.47-.21.13-.43.19-.68.19a1.5 1.5 0 0 1-.58-.11c-.16-.07-.29-.17-.4-.3-.1-.13-.18-.28-.23-.45-.05-.17-.08-.35-.08-.54v-2.13h.68v1.9c0 .14.01.27.03.4.02.13.06.24.12.34.06.1.14.17.24.23.1.06.23.09.39.09.27 0 .5-.1.67-.31.17-.21.25-.48.25-.82v-1.83h.68v2.7c0 .09 0 .21.01.36 0 .14.01.27.02.38h-.64zM164.42 219.95h-.68v-5.48h.68v5.48zM166.14 221.69h-.68v-5.17h.67v.54h.02c.11-.18.27-.33.49-.45s.46-.18.75-.18c.26 0 .49.05.7.14s.39.22.54.38c.15.16.27.36.35.58.08.22.12.46.12.71s-.04.49-.12.71c-.08.22-.2.42-.35.58s-.33.29-.54.39c-.21.09-.45.14-.72.14-.25 0-.48-.05-.69-.16-.22-.11-.39-.26-.51-.45h-.02v2.24zm2.26-3.47c0-.16-.02-.31-.07-.46s-.12-.28-.22-.4-.22-.21-.36-.28-.31-.1-.5-.1c-.17 0-.33.03-.48.1-.14.07-.26.16-.37.28s-.18.25-.24.4c-.06.15-.08.31-.08.47 0 .17.03.32.08.47.06.15.13.28.24.39s.22.2.37.27c.14.07.3.1.48.1.19 0 .35-.04.5-.1.14-.07.26-.16.36-.28s.17-.25.22-.4.07-.3.07-.46zM171.59 217.07h-.91v1.78c0 .21.04.36.12.44.08.09.2.13.37.13.06 0 .13-.01.2-.02s.14-.03.2-.06l.02.56c-.08.03-.17.05-.27.07-.1.02-.2.03-.31.03-.32 0-.57-.09-.74-.27s-.26-.45-.26-.8v-1.86h-.66v-.56h.65v-.99h.67v.99h.91v.56zM172.95 215.27c0 .13-.04.23-.13.31-.09.08-.2.12-.32.12s-.23-.04-.32-.13a.401.401 0 0 1-.13-.31c0-.13.04-.23.13-.32.09-.08.19-.13.32-.13s.23.04.32.13c.08.1.13.21.13.33zm-.11 4.68h-.68v-3.43h.68v3.43zM174.5 216.51c.01.09.02.18.02.29 0 .11.01.2.01.27h.02c.04-.09.1-.18.18-.26.07-.08.16-.15.26-.21s.2-.11.32-.14c.12-.03.24-.05.36-.05.22 0 .41.04.57.11.16.08.29.18.4.3.11.13.18.27.24.44s.08.35.08.54v2.13h-.68v-1.91c0-.14-.01-.27-.03-.4-.02-.12-.06-.24-.12-.33s-.14-.17-.24-.23a.75.75 0 0 0-.39-.09c-.27 0-.49.1-.66.31s-.26.48-.26.82v1.83h-.68v-2.7c0-.09 0-.21-.01-.36s-.01-.27-.02-.38h.63zM178.22 220.53c.15.17.34.3.56.41.22.1.46.15.69.15.23 0 .42-.03.57-.1s.28-.15.37-.27c.09-.11.16-.25.2-.4.04-.16.06-.32.06-.5v-.44h-.01c-.13.19-.3.34-.51.44a1.798 1.798 0 0 1-1.41.01 1.642 1.642 0 0 1-.9-.94c-.08-.21-.12-.45-.12-.69s.04-.48.12-.7a1.655 1.655 0 0 1 .89-.95c.21-.09.45-.14.71-.14.25 0 .48.05.71.16.22.11.4.27.53.49h.01v-.55h.66v3.26c0 .25-.03.49-.09.72s-.17.43-.32.61-.35.32-.59.42c-.24.11-.54.16-.9.16-.3 0-.6-.05-.9-.16s-.56-.26-.78-.46l.45-.53zm.2-2.34c0 .16.03.31.08.46.05.14.13.27.23.38.1.11.22.2.36.27.14.07.3.1.48.1.17 0 .33-.03.48-.09.15-.06.27-.15.37-.26.1-.11.18-.24.24-.38.06-.15.08-.3.08-.47 0-.16-.03-.32-.08-.46a1.36 1.36 0 0 0-.24-.38c-.1-.11-.23-.2-.37-.26s-.3-.1-.48-.1-.34.03-.48.1-.26.15-.36.26c-.1.11-.17.24-.23.38s-.08.29-.08.45zM184.81 219.31h2.68v.64h-3.4v-5.13h3.29v.63h-2.57v1.54h2.42v.62h-2.42v1.7zM188.96 219.95h-.68v-5.48h.68v5.48zM190.8 215.27c0 .13-.04.23-.13.31-.09.08-.2.12-.32.12s-.23-.04-.32-.13a.401.401 0 0 1-.13-.31c0-.13.04-.23.13-.32.09-.08.19-.13.32-.13s.23.04.32.13c.08.1.13.21.13.33zm-.11 4.68h-.68v-3.43h.68v3.43zM193.42 217.07h-.91v1.78c0 .21.04.36.12.44.08.09.2.13.37.13.06 0 .13-.01.2-.02s.14-.03.2-.06l.02.56c-.08.03-.17.05-.27.07-.1.02-.2.03-.31.03-.32 0-.57-.09-.74-.27s-.26-.45-.26-.8v-1.86h-.66v-.56h.66v-.99h.67v.99h.91v.56zM197.18 218.2v.12c0 .04 0 .08-.01.12h-2.73c0 .14.04.28.1.41.06.13.14.24.24.33.1.09.22.17.35.22s.27.08.42.08a1.162 1.162 0 0 0 1-.52l.48.38c-.18.24-.4.42-.65.54-.25.12-.53.17-.83.17-.26 0-.5-.04-.72-.13a1.701 1.701 0 0 1-.95-.94c-.09-.22-.14-.47-.14-.74s.04-.51.13-.74.21-.42.37-.58c.16-.16.35-.28.57-.37.22-.09.45-.13.7-.13.25 0 .48.04.69.12.21.08.38.2.52.36.14.15.25.34.33.56.09.22.13.46.13.74zm-.69-.28c0-.14-.03-.26-.07-.38s-.1-.22-.18-.31-.18-.16-.3-.21a1.109 1.109 0 0 0-.83 0c-.13.05-.24.12-.33.21s-.17.19-.23.31-.1.25-.1.38h2.04zM203.12 218.22c0 .27-.05.51-.14.73-.09.22-.22.42-.39.58-.17.16-.36.29-.59.38-.23.09-.47.13-.73.13s-.5-.04-.73-.13c-.23-.09-.42-.21-.59-.38-.16-.16-.29-.35-.39-.58-.09-.22-.14-.47-.14-.73s.05-.51.14-.73.22-.41.39-.57c.16-.16.36-.28.59-.37.23-.09.47-.13.73-.13s.5.04.73.13c.23.09.42.21.59.37.17.16.3.35.39.57s.14.47.14.73zm-.71.01c0-.16-.03-.32-.08-.47s-.12-.28-.22-.39c-.1-.11-.22-.2-.36-.27s-.31-.1-.49-.1-.35.03-.49.1-.26.16-.36.27c-.1.11-.17.24-.22.39s-.08.31-.08.47c0 .16.03.32.08.47s.12.28.22.4.22.21.36.27.31.1.49.1.35-.03.49-.1.26-.16.36-.27c.1-.12.17-.25.22-.4s.08-.31.08-.47zM204.54 216.51c.01.09.02.18.02.29 0 .11.01.2.01.27h.02c.04-.09.1-.18.18-.26.07-.08.16-.15.26-.21s.2-.11.32-.14c.12-.03.24-.05.36-.05.22 0 .41.04.57.11.16.08.29.18.4.3.11.13.18.27.24.44s.08.35.08.54v2.13h-.68v-1.91c0-.14-.01-.27-.03-.4-.02-.12-.06-.24-.12-.33s-.14-.17-.24-.23a.75.75 0 0 0-.39-.09c-.27 0-.49.1-.66.31s-.26.48-.26.82v1.83h-.68v-2.7c0-.09 0-.21-.01-.36s-.01-.27-.02-.38h.63zM210.37 217.03c.08-.17.22-.31.42-.43s.42-.18.67-.18c.22 0 .41.04.57.11.16.08.29.18.4.3.11.13.19.27.24.44.05.17.08.35.08.54v2.13h-.68v-1.9c0-.14-.01-.27-.03-.4a.81.81 0 0 0-.12-.33.662.662 0 0 0-.24-.23.75.75 0 0 0-.39-.09c-.27 0-.49.1-.67.31-.17.21-.26.48-.26.82v1.82h-.68v-5.48h.68v2.57h.01zM216.96 218.2v.12c0 .04 0 .08-.01.12h-2.73c0 .14.04.28.1.41.06.13.14.24.24.33.1.09.22.17.35.22s.27.08.42.08a1.162 1.162 0 0 0 1-.52l.48.38c-.18.24-.4.42-.65.54-.25.12-.53.17-.83.17-.26 0-.5-.04-.72-.13a1.701 1.701 0 0 1-.95-.94c-.09-.22-.14-.47-.14-.74s.04-.51.13-.74.21-.42.37-.58c.16-.16.35-.28.57-.37.22-.09.45-.13.7-.13.25 0 .48.04.69.12.21.08.38.2.52.36.14.15.25.34.33.56.09.22.13.46.13.74zm-.7-.28c0-.14-.03-.26-.07-.38s-.1-.22-.18-.31-.18-.16-.3-.21a1.109 1.109 0 0 0-.83 0c-.13.05-.24.12-.33.21s-.17.19-.23.31-.1.25-.1.38h2.04zM217.75 216.9c0-.14-.01-.27-.02-.38h.65c.01.09.02.19.02.3s.01.21.01.28h.02c.1-.2.24-.37.42-.49.19-.12.39-.19.63-.19.11 0 .2.01.27.03l-.03.63c-.1-.02-.2-.04-.31-.04-.16 0-.31.03-.43.09s-.22.14-.3.24c-.08.1-.14.22-.18.35s-.06.27-.06.42v1.8h-.68v-2.7c0-.08-.01-.2-.01-.34zM20.56 226.22c0-.26-.08-.45-.23-.57-.15-.12-.36-.18-.62-.18-.19 0-.38.04-.55.11-.17.08-.31.17-.43.29l-.36-.43c.17-.16.38-.29.62-.38s.51-.14.79-.14c.25 0 .46.04.64.11s.33.17.45.29c.12.12.2.26.26.43.06.16.09.34.09.53v1.5c0 .12 0 .24.01.37s.02.23.04.32h-.62c-.04-.16-.06-.33-.06-.49h-.02c-.13.18-.28.33-.47.43s-.42.15-.68.15c-.14 0-.28-.02-.42-.05s-.28-.09-.4-.18a.96.96 0 0 1-.42-.83c0-.26.07-.47.21-.62s.32-.27.55-.35.48-.13.77-.16c.29-.02.57-.04.86-.04v-.11zm-.17.58c-.17 0-.34.01-.53.02s-.35.04-.49.09c-.15.04-.27.11-.37.2s-.15.2-.15.35c0 .1.02.19.06.25.04.07.1.12.16.17.07.04.14.07.22.09.08.02.17.03.25.03.32 0 .56-.1.74-.29.17-.19.26-.43.26-.72v-.18h-.15zM22.88 227.9v.54h-.66v-5.48h.68v2.56h.02c.12-.17.28-.31.48-.43s.45-.18.74-.18c.26 0 .49.05.7.14.21.09.39.22.54.38.15.16.27.36.35.58.08.22.12.46.12.71s-.04.49-.12.71c-.08.22-.2.42-.35.58s-.33.29-.54.39c-.21.09-.45.14-.72.14-.25 0-.48-.05-.7-.16-.22-.11-.4-.27-.53-.48h-.01zm2.28-1.18c0-.16-.02-.31-.07-.46-.05-.15-.12-.28-.22-.4s-.22-.21-.36-.27-.31-.1-.5-.1c-.17 0-.33.03-.47.1s-.26.16-.37.27c-.1.12-.18.25-.24.4-.06.15-.08.31-.08.47s.03.32.08.47c.06.15.13.28.24.39.1.11.22.2.37.27s.3.1.47.1c.19 0 .35-.03.5-.1s.26-.16.36-.28c.1-.12.17-.25.22-.4.04-.15.07-.3.07-.46zM29.41 227.9c-.13.21-.31.37-.53.48-.22.11-.46.16-.71.16-.27 0-.5-.05-.72-.14-.21-.09-.39-.22-.54-.39-.15-.16-.27-.36-.35-.58-.08-.22-.12-.46-.12-.71s.04-.49.12-.71c.08-.22.2-.41.35-.58.15-.17.33-.29.55-.38.21-.09.45-.14.7-.14a1.477 1.477 0 0 1 1.22.61h.01v-2.56h.68v5.48h-.66v-.54zm-2.27-1.18c0 .16.02.31.07.46s.12.28.22.4.21.21.35.28.3.1.49.1c.17 0 .33-.03.47-.1.14-.07.26-.16.37-.27s.18-.24.24-.39c.06-.15.08-.31.08-.47s-.03-.32-.08-.47c-.06-.15-.13-.28-.24-.4a.912.912 0 0 0-.37-.27c-.14-.07-.3-.1-.47-.1-.19 0-.35.03-.49.1s-.26.16-.35.27c-.1.12-.17.25-.22.4s-.07.3-.07.46zM34.6 226.72c0 .27-.05.51-.14.73-.09.22-.22.42-.39.58-.17.16-.36.29-.59.38-.23.09-.47.13-.73.13s-.5-.04-.73-.13c-.23-.09-.42-.21-.59-.38-.16-.16-.29-.35-.39-.58-.09-.22-.14-.47-.14-.73s.05-.51.14-.73.22-.41.39-.57c.16-.16.36-.28.59-.37.23-.09.47-.13.73-.13s.5.04.73.13c.23.09.42.21.59.37.17.16.3.35.39.57s.14.46.14.73zm-.71 0c0-.16-.03-.32-.08-.47s-.12-.28-.22-.39c-.1-.11-.22-.2-.36-.27s-.31-.1-.49-.1-.35.03-.49.1-.26.16-.36.27c-.1.11-.17.24-.22.39s-.08.31-.08.47c0 .16.03.32.08.47s.12.28.22.4.22.21.36.27.31.1.49.1.35-.03.49-.1.26-.16.36-.27c.1-.12.17-.25.22-.4s.08-.31.08-.47zM36.48 225.11c.19-.13.42-.19.68-.19.23 0 .44.05.63.16s.33.28.44.53c.12-.22.28-.39.49-.51.21-.12.44-.18.68-.18.22 0 .41.04.57.11.16.08.29.18.4.3.11.13.18.27.24.44s.08.35.08.54v2.13h-.68v-1.91c0-.14-.01-.27-.04-.4-.02-.12-.07-.24-.12-.33a.722.722 0 0 0-.23-.23.7.7 0 0 0-.37-.09c-.15 0-.29.03-.4.1-.11.06-.2.15-.27.25s-.12.22-.15.35c-.03.13-.05.26-.05.4v1.86h-.68v-2.04c0-.13-.01-.26-.04-.37a.844.844 0 0 0-.12-.29c-.06-.08-.13-.14-.22-.19s-.21-.07-.34-.07c-.25 0-.46.1-.63.31s-.25.48-.25.82v1.83h-.7v-2.7c0-.09 0-.21-.01-.36s-.01-.27-.02-.38h.65c.01.09.02.18.02.29 0 .11.01.2.01.27h.02c.08-.17.22-.33.41-.45zM44.89 226.7v.12c0 .04 0 .08-.01.12h-2.73c0 .14.04.28.1.41.06.13.14.24.24.33.1.09.22.17.35.22s.27.08.42.08a1.162 1.162 0 0 0 1-.52l.48.38c-.18.24-.4.42-.65.54-.25.12-.53.17-.83.17-.26 0-.5-.04-.72-.13a1.701 1.701 0 0 1-.95-.94c-.09-.22-.14-.47-.14-.74s.04-.51.13-.74.21-.42.37-.58c.16-.16.35-.28.57-.37.22-.09.45-.13.7-.13.25 0 .48.04.69.12.21.08.38.2.52.36.14.15.25.34.33.56.09.21.13.46.13.74zm-.69-.28c0-.14-.03-.26-.07-.38s-.1-.22-.18-.31-.18-.16-.3-.21a1.109 1.109 0 0 0-.83 0c-.13.05-.24.12-.33.21s-.17.19-.23.31-.1.25-.1.38h2.04zM46.3 225.01c.01.09.02.18.02.29 0 .11.01.2.01.27h.02c.04-.09.1-.18.18-.26.07-.08.16-.15.26-.21s.2-.11.32-.14c.12-.03.24-.05.36-.05.22 0 .41.04.57.11.16.08.29.18.4.3.11.13.18.27.24.44s.08.35.08.54v2.13h-.68v-1.91c0-.14-.01-.27-.03-.4-.02-.12-.06-.24-.12-.33s-.14-.17-.24-.23a.75.75 0 0 0-.39-.09c-.27 0-.49.1-.66.31s-.26.48-.26.82v1.83h-.68v-2.7c0-.09 0-.21-.01-.36s-.01-.27-.02-.38h.63zM50.6 228.01c0 .12-.05.24-.14.33-.09.1-.21.15-.35.15a.46.46 0 0 1-.34-.14.453.453 0 0 1-.14-.33c0-.13.05-.24.14-.34.09-.09.21-.14.35-.14s.26.05.35.14c.08.09.13.2.13.33zM53.7 228.44h-.72v-5.13h1.65c.25 0 .48.03.7.08.22.05.42.13.58.24.17.11.3.26.4.44.1.18.15.4.15.66 0 .38-.12.68-.35.91a1.6 1.6 0 0 1-.9.44l1.44 2.36h-.87l-1.3-2.28h-.78v2.28zm0-2.88h.83c.17 0 .33-.01.47-.04.15-.03.27-.08.38-.14.11-.07.19-.15.26-.25.06-.1.09-.23.09-.39s-.03-.28-.09-.39c-.06-.1-.15-.19-.25-.25s-.23-.11-.37-.13a2.12 2.12 0 0 0-.44-.04h-.88v1.63zM60.38 226.7v.12c0 .04 0 .08-.01.12h-2.73c0 .14.04.28.1.41.06.13.14.24.24.33.1.09.22.17.35.22s.27.08.42.08a1.162 1.162 0 0 0 1-.52l.48.38c-.18.24-.4.42-.65.54-.25.12-.53.17-.83.17-.26 0-.5-.04-.72-.13a1.701 1.701 0 0 1-.95-.94c-.09-.22-.14-.47-.14-.74s.04-.51.13-.74.21-.42.37-.58c.16-.16.35-.28.57-.37.22-.09.45-.13.7-.13.25 0 .48.04.69.12.21.08.38.2.52.36.14.15.25.34.33.56.09.21.13.46.13.74zm-.7-.28c0-.14-.03-.26-.07-.38s-.1-.22-.18-.31-.18-.16-.3-.21a1.109 1.109 0 0 0-.83 0c-.13.05-.24.12-.33.21s-.17.19-.23.31-.1.25-.1.38h2.04zM63.03 225.88a.94.94 0 0 0-1.03-.4c-.08.02-.15.04-.21.08s-.11.08-.15.14-.05.12-.05.21c0 .15.06.25.2.32.13.07.33.13.59.19.16.04.32.08.46.14.14.05.26.12.37.2.1.08.18.18.24.29.06.11.09.24.09.39a.987.987 0 0 1-.43.85c-.13.09-.27.15-.44.19-.16.04-.33.06-.51.06-.26 0-.52-.05-.76-.15-.25-.1-.46-.26-.62-.46l.49-.41c.09.13.22.25.38.34a1.076 1.076 0 0 0 1 .03c.07-.04.12-.09.16-.15.04-.06.06-.14.06-.24 0-.16-.08-.28-.23-.36-.15-.08-.38-.15-.67-.22-.12-.03-.23-.06-.35-.1s-.23-.1-.32-.17a.78.78 0 0 1-.24-.27.816.816 0 0 1-.09-.4c0-.18.04-.34.11-.47.07-.13.17-.24.29-.33.12-.08.26-.15.41-.19.15-.04.31-.06.48-.06.25 0 .48.05.71.15s.41.24.53.42l-.47.38zM66.67 228.44c-.01-.09-.02-.18-.02-.29 0-.11-.01-.2-.01-.27h-.01c-.09.18-.23.34-.44.47-.21.13-.43.19-.68.19a1.5 1.5 0 0 1-.58-.11c-.16-.07-.29-.17-.4-.3-.1-.13-.18-.28-.23-.45-.05-.17-.08-.35-.08-.54v-2.13h.68v1.9c0 .14.01.27.03.4.02.13.06.24.12.34.06.1.14.17.24.23.1.06.23.09.39.09.27 0 .5-.1.67-.31.17-.21.25-.48.25-.82v-1.83h.68v2.7c0 .09 0 .21.01.36 0 .14.01.27.02.38h-.64zM69.01 228.44h-.68v-5.48h.68v5.48zM71.74 225.57h-.91v1.78c0 .21.04.36.12.44.08.09.2.13.37.13.06 0 .13-.01.2-.02s.14-.03.2-.06l.02.56c-.08.03-.17.05-.27.07-.1.02-.2.03-.31.03-.32 0-.57-.09-.74-.27s-.26-.45-.26-.8v-1.86h-.66v-.56h.66v-.99h.67v.99h.91v.56zM74.15 225.88a.94.94 0 0 0-1.03-.4c-.08.02-.15.04-.21.08s-.11.08-.15.14-.05.12-.05.21c0 .15.06.25.2.32.13.07.33.13.59.19.16.04.32.08.46.14.14.05.26.12.37.2.1.08.18.18.24.29.06.11.09.24.09.39a.987.987 0 0 1-.43.85c-.13.09-.27.15-.44.19-.16.04-.33.06-.51.06-.26 0-.52-.05-.76-.15-.25-.1-.46-.26-.62-.46l.49-.41c.09.13.22.25.38.34a1.076 1.076 0 0 0 1 .03c.07-.04.12-.09.16-.15.04-.06.06-.14.06-.24 0-.16-.08-.28-.23-.36-.15-.08-.38-.15-.67-.22-.12-.03-.23-.06-.35-.1s-.23-.1-.32-.17a.78.78 0 0 1-.24-.27.816.816 0 0 1-.09-.4c0-.18.04-.34.11-.47.07-.13.17-.24.29-.33.12-.08.26-.15.41-.19.15-.04.31-.06.48-.06.25 0 .48.05.71.15s.41.24.53.42l-.47.38zM78.12 225.11c.19-.13.42-.19.68-.19.23 0 .44.05.63.16s.33.28.44.53c.12-.22.28-.39.49-.51.21-.12.44-.18.68-.18.22 0 .41.04.57.11.16.08.29.18.4.3.11.13.18.27.24.44s.08.35.08.54v2.13h-.68v-1.91c0-.14-.01-.27-.04-.4-.02-.12-.07-.24-.12-.33a.722.722 0 0 0-.23-.23.7.7 0 0 0-.37-.09c-.15 0-.29.03-.4.1-.11.06-.2.15-.27.25s-.12.22-.15.35c-.03.13-.05.26-.05.4v1.86h-.68v-2.04c0-.13-.01-.26-.04-.37a.844.844 0 0 0-.12-.29c-.06-.08-.13-.14-.22-.19s-.21-.07-.34-.07c-.25 0-.46.1-.63.31s-.25.48-.25.82v1.83h-.68v-2.7c0-.09 0-.21-.01-.36s-.01-.27-.02-.38h.65c.01.09.02.18.02.29 0 .11.01.2.01.27h.02c.06-.17.2-.33.39-.45zM85.46 226.22c0-.26-.08-.45-.23-.57-.15-.12-.36-.18-.62-.18-.19 0-.38.04-.55.11-.17.08-.31.17-.43.29l-.36-.43c.17-.16.38-.29.62-.38s.51-.14.79-.14c.25 0 .46.04.64.11s.33.17.45.29c.12.12.2.26.26.43.06.16.09.34.09.53v1.5c0 .12 0 .24.01.37s.02.23.04.32h-.62c-.04-.16-.06-.33-.06-.49h-.02c-.13.18-.28.33-.47.43s-.42.15-.68.15c-.14 0-.28-.02-.42-.05s-.28-.09-.4-.18a.96.96 0 0 1-.42-.83c0-.26.07-.47.21-.62s.32-.27.55-.35.48-.13.77-.16c.29-.02.57-.04.86-.04v-.11zm-.17.58c-.17 0-.34.01-.53.02s-.35.04-.49.09c-.15.04-.27.11-.37.2s-.15.2-.15.35c0 .1.02.19.06.25.04.07.1.12.16.17.07.04.14.07.22.09.08.02.17.03.25.03.32 0 .56-.1.74-.29.17-.19.26-.43.26-.72v-.18h-.15zM88.4 227.7h.01l.95-2.7h.72l-1.67 4.25c-.06.14-.12.27-.19.39-.07.11-.15.21-.24.29-.09.08-.2.14-.32.18-.12.04-.27.07-.44.07-.07 0-.15 0-.22-.01s-.15-.02-.23-.04l.07-.6c.12.04.23.06.34.06.18 0 .31-.05.4-.15.09-.1.17-.24.24-.42l.22-.57-1.47-3.43h.76l1.07 2.68zM93.89 228.44h-.74l-1.4-3.43h.75l1.01 2.7h.01l1.01-2.7h.72l-1.36 3.43zM97.92 226.22c0-.26-.08-.45-.23-.57-.15-.12-.36-.18-.62-.18-.19 0-.38.04-.55.11-.17.08-.31.17-.43.29l-.36-.43c.17-.16.38-.29.62-.38s.51-.14.79-.14c.25 0 .46.04.64.11s.33.17.45.29c.12.12.2.26.26.43.06.16.09.34.09.53v1.5c0 .12 0 .24.01.37s.02.23.04.32h-.62c-.04-.16-.06-.33-.06-.49h-.02c-.13.18-.28.33-.47.43s-.42.15-.68.15c-.14 0-.28-.02-.42-.05s-.28-.09-.4-.18a.96.96 0 0 1-.42-.83c0-.26.07-.47.21-.62s.32-.27.55-.35.48-.13.77-.16c.29-.02.57-.04.86-.04v-.11zm-.17.58c-.17 0-.34.01-.53.02s-.35.04-.49.09c-.15.04-.27.11-.37.2s-.15.2-.15.35c0 .1.02.19.06.25.04.07.1.12.16.17.07.04.14.07.22.09.08.02.17.03.25.03.32 0 .56-.1.74-.29.17-.19.26-.43.26-.72v-.18h-.15zM99.56 225.39c0-.14-.01-.27-.02-.38h.65c.01.09.02.19.02.3s.01.21.01.28h.02c.1-.2.24-.37.42-.49.19-.12.39-.19.63-.19.11 0 .2.01.27.03l-.03.63c-.1-.02-.2-.04-.31-.04-.16 0-.31.03-.43.09s-.22.14-.3.24c-.08.1-.14.22-.18.35s-.06.27-.06.42v1.8h-.68v-2.7c-.01-.07-.01-.19-.01-.34z"/><path class="st0" d="M103.35 227.7h.01l.95-2.7h.72l-1.67 4.25c-.06.14-.12.27-.19.39-.07.11-.15.21-.24.29-.09.08-.2.14-.32.18-.12.04-.27.07-.44.07-.07 0-.15 0-.22-.01s-.15-.02-.23-.04l.07-.6c.12.04.23.06.34.06.18 0 .31-.05.4-.15.09-.1.17-.24.24-.42l.22-.57-1.47-3.43h.76l1.07 2.68zM106.13 228.01c0 .12-.05.24-.14.33-.09.1-.21.15-.35.15a.46.46 0 0 1-.34-.14.453.453 0 0 1-.14-.33c0-.13.05-.24.14-.34.09-.09.21-.14.35-.14s.26.05.35.14c.08.09.13.2.13.33z"/></svg>