<svg id="Layer_1" xmlns="http://www.w3.org/2000/svg" viewBox="0 0 500 281"><style>.st0{fill:#fff}</style><path class="st0" d="M32.18 33.35c0 .31-.25.55-.56.55a.55.55 0 0 1-.56-.55c0-.31.25-.54.56-.54.32 0 .56.24.56.54zm-.98 0c0 .24.18.44.43.44.24 0 .41-.19.41-.43s-.18-.44-.42-.44-.42.2-.42.43zm.34.29h-.13v-.54c.05-.01.12-.02.21-.02.1 0 .15.02.19.04.03.02.06.06.06.12 0 .07-.05.11-.11.13v.01c.05.02.08.06.1.13.02.08.03.11.04.13h-.13c-.02-.02-.03-.07-.04-.13-.01-.06-.04-.08-.11-.08h-.06v.21zm0-.31h.06c.07 0 .13-.02.13-.08 0-.05-.04-.08-.12-.08-.03 0-.06 0-.07.01v.15zM40.33 31.46c-2.71 0-4.02-1.98-4.02-3.88 0-2.19 1.58-3.95 4.06-3.95.84 0 1.72.26 2.41.84l-.77 1.07c-.47-.37-.98-.5-1.59-.5-1.32 0-2.3.92-2.3 2.5 0 1.44.9 2.59 2.34 2.59.61 0 1.15-.18 1.63-.6l.7 1.07c-.66.58-1.58.86-2.46.86M46.97 31.46c-2.27 0-3.94-1.71-3.94-3.95 0-2.3 1.82-3.88 3.94-3.88 2.11 0 3.95 1.56 3.95 3.86.01 2.26-1.66 3.97-3.95 3.97m2.13-3.95c0-1.38-.68-2.57-2.13-2.57-1.43 0-2.13 1.19-2.13 2.56 0 1.41.66 2.67 2.13 2.67 1.47 0 2.13-1.24 2.13-2.67v.01zM55.52 31.46c-2.27 0-3.94-1.71-3.94-3.95 0-2.3 1.82-3.88 3.94-3.88 2.11 0 3.95 1.56 3.95 3.86.01 2.26-1.66 3.97-3.95 3.97m2.13-3.95c0-1.38-.67-2.57-2.13-2.57-1.43 0-2.13 1.19-2.13 2.56 0 1.41.66 2.67 2.13 2.67 1.47 0 2.13-1.24 2.13-2.67v.01zM60.37 31.28V20.3l1.7.94v10.04zM65.99 31.51c-1.92 0-2.84-.92-2.84-.92l.77-1s.87.58 2.02.58c.55 0 1.01-.38 1.01-.77 0-.38-.17-.71-.68-.97s-1.07-.54-1.52-.75c-.44-.22-1.42-.87-1.42-2.16 0-1.3 1.32-2.02 2.67-2.02 1.29 0 2.27.84 2.27.84l-.66 1.01s-.74-.52-1.55-.52-.98.52-.98.74c0 .21.08.55.6.83.52.28 1.06.57 1.82 1 .77.43 1.2 1.16 1.2 1.99 0 .83-.79 2.12-2.71 2.12M73.3 31.46c-2.71 0-4.02-1.98-4.02-3.88 0-2.19 1.58-3.95 4.06-3.95.84 0 1.72.26 2.41.84l-.77 1.07c-.47-.37-.98-.5-1.59-.5-1.32 0-2.3.92-2.3 2.5 0 1.44.9 2.59 2.34 2.59.61 0 1.15-.18 1.62-.6l.7 1.07c-.65.58-1.57.86-2.45.86M81.69 30.4s-.86 1.06-2.48 1.06c-1.92 0-2.85-1.39-2.85-2.8V23.8h1.7v4.78c0 .83.64 1.52 1.64 1.52.87 0 1.73-1.04 1.73-1.04V23.8h1.7v7.46l-1.44-.86zM84.65 31.28V20.3l1.7.94v10.04zM91.97 31.46c-1.5 0-2.36-.84-2.36-.84v3.72h-1.72v-10.7l1.72.9s.92-.93 2.45-.93c1.61 0 3.62 1.24 3.62 4.01 0 2.78-1.98 3.84-3.71 3.84m-.11-6.53c-1.46 0-2.3 1.36-2.3 1.36v2.82s.97 1.09 2.36 1.09c1.63 0 1.98-1.95 1.98-2.62 0-.67-.15-2.65-2.04-2.65M100.16 31.48h-1.07c-1.35 0-1.81-1.3-1.81-2.16v-4.4h-1.35V23.8h1.35v-3.3h1.69v3.3h1.73v1.12h-1.72v3.98c0 .45-.08 1.15.67 1.15h1.23l-.72 1.43zM102.88 22.51c-.61 0-1.12-.5-1.12-1.12 0-.61.51-1.12 1.12-1.12.61 0 1.12.5 1.12 1.12 0 .61-.5 1.12-1.12 1.12m-.84 1.29h1.67v7.48h-1.67V23.8zM110.46 31.28V26.5c0-.83-.64-1.52-1.64-1.52-.88 0-1.86 1.04-1.86 1.04v5.26h-1.7v-7.46l1.44.86s.98-1.06 2.61-1.06c1.92 0 2.85 1.39 2.85 2.8v4.86h-1.7zM117.35 34.75c-.26 0-2.26-.03-2.26-.03l.03-1.36h1.68c1.62 0 2.54-.87 2.54-2.07v-.67s-.89.85-2.39.85c-1.73 0-3.71-1.06-3.71-3.83s2.01-4.01 3.62-4.01c1.53 0 2.45.93 2.45.93l1.72-.86v7.43c0 2-1.33 3.62-3.68 3.62m2.01-8.45s-.84-1.36-2.3-1.36c-1.88 0-2.04 1.97-2.04 2.65 0 .67.35 2.62 1.98 2.62 1.4 0 2.36-1.09 2.36-1.09V26.3zM21.08 36.95v-4.89l.97-.96 2.77 2.77v.93zM19.09 27.87l-3.13 3.14 3.83 1.44 4.58-4.58zM20.64 23.51H16.6l1.29 3.72h6.48zM24.82 21.51l-3.12-3.12-1.45 3.82 4.57 4.57zM34.25 31.6h-4.61l-3.73-3.73h6.47zM30.48 22.66l4.19 1.09-3.48 3.49h-5.28zM25.46 20.31l3.73-2.21v4.95l-3.73 3.73zM30.21 33.08l-1.2 4.08-6.51-6.51 2.64-2.64zM123.57 24.3c0 .44-.36.79-.81.79-.45 0-.81-.35-.81-.79 0-.44.36-.79.82-.79.45 0 .8.35.8.79zm-1.42 0c0 .35.27.63.62.63.34 0 .6-.28.6-.63s-.26-.63-.61-.63c-.34 0-.61.29-.61.63zm.49.41h-.18v-.79c.07-.01.17-.02.3-.02.15 0 .22.02.27.06.05.03.08.09.08.17 0 .1-.07.16-.16.19v.01c.08.02.11.09.14.19.02.12.04.17.06.19h-.19a.702.702 0 0 1-.06-.19c-.01-.08-.06-.12-.16-.12h-.09v.31zm0-.44h.09c.1 0 .18-.03.18-.11 0-.07-.05-.12-.17-.12-.05 0-.08.01-.1.01v.22z"/><g><path class="st0" d="M128.25 23.06h5.3v1.24h-3.88v2.04h3.67v1.2h-3.67v2.26h4.08v1.27h-5.51v-8.01zM137.86 23.06h1.42v6.74h3.4v1.27h-4.83v-8.01zM146.35 23.06h1.42v8.01h-1.42v-8.01zM153.87 24.31h-2.45v-1.24h6.33v1.24h-2.45v6.76h-1.42v-6.76zM161.38 23.06h5.3v1.24h-3.88v2.04h3.67v1.2h-3.67v2.26h4.08v1.27h-5.51v-8.01z"/></g></svg>