<svg id="Layer_1" xmlns="http://www.w3.org/2000/svg" viewBox="0 0 500 281"><style>.st0{fill:#00a9e0}.st1{fill:#fff}</style><path class="st0" d="M21.57 156.9h112.21v24.33H21.57z"/><path class="st1" d="M33.83 173.74v-8.35h2.03v6.59h3.23v1.76h-5.26zM41.09 173.74v-8.35h5.61v1.71h-3.67v1.57h3.47v1.62h-3.47v1.73h3.88v1.72h-5.82zM54.97 173.74l-.65-1.64h-3.23l-.61 1.64h-2.19l3.5-8.35h1.96l3.47 8.35h-2.25zm-2.24-6.12l-1.06 2.87h2.1l-1.04-2.87zM63.44 173.74l-1.8-3.31h-.68v3.31h-1.98v-8.35h3.19c1.6 0 3.2.61 3.2 2.52 0 1.12-.66 1.92-1.73 2.25l2.18 3.57h-2.38zm-1.43-6.72h-1.07v1.95h.96c.65 0 1.46-.17 1.46-1.01-.01-.79-.75-.94-1.35-.94zM73.15 173.74l-3.36-5.46h-.04l.05 5.46h-1.96v-8.35h2.3l3.35 5.45h.04l-.05-5.45h1.96v8.35h-2.29zM89.8 173.74l.05-5.91h-.04l-2.17 5.91h-1.42l-2.11-5.91h-.04l.05 5.91h-1.9v-8.35h2.87l1.9 5.35h.05l1.82-5.35h2.91v8.35H89.8zM98.7 173.97c-2.61 0-4.54-1.79-4.54-4.43 0-2.68 1.93-4.36 4.54-4.36 2.62 0 4.55 1.69 4.55 4.36 0 2.63-1.93 4.43-4.55 4.43zm0-6.99c-1.42 0-2.38 1.08-2.38 2.55 0 1.51.98 2.59 2.38 2.59s2.39-1.08 2.39-2.59c0-1.46-.98-2.55-2.39-2.55zM110.11 173.74l-1.8-3.31h-.68v3.31h-1.98v-8.35h3.19c1.6 0 3.2.61 3.2 2.52 0 1.12-.66 1.92-1.73 2.25l2.18 3.57h-2.38zm-1.42-6.72h-1.07v1.95h.96c.65 0 1.46-.17 1.46-1.01-.01-.79-.75-.94-1.35-.94zM114.52 173.74v-8.35h5.61v1.71h-3.67v1.57h3.47v1.62h-3.47v1.73h3.88v1.72h-5.82z"/></svg>