<svg id="Layer_1" xmlns="http://www.w3.org/2000/svg" viewBox="0 0 500 281"><style>.st0{fill:#fff}</style><path class="st0" d="M48.9 47.56c-1.88 0-2.79-1.36-2.79-2.67 0-1.51 1.09-2.73 2.82-2.73.58 0 1.19.18 1.67.58l-.53.74c-.33-.25-.68-.35-1.11-.35-.91 0-1.59.63-1.59 1.72 0 .99.63 1.79 1.63 1.79.43 0 .8-.13 1.13-.41l.49.74c-.48.4-1.11.59-1.72.59M53.5 47.56c-1.57 0-2.73-1.18-2.73-2.73 0-1.59 1.27-2.67 2.73-2.67 1.47 0 2.74 1.08 2.74 2.66.01 1.56-1.15 2.74-2.74 2.74m1.48-2.72c0-.95-.47-1.78-1.48-1.78-.99 0-1.48.82-1.48 1.77 0 .97.46 1.84 1.48 1.84s1.48-.86 1.48-1.84v.01zM59.44 47.56c-1.57 0-2.73-1.18-2.73-2.73 0-1.59 1.27-2.67 2.73-2.67 1.47 0 2.74 1.08 2.74 2.66 0 1.56-1.16 2.74-2.74 2.74m1.48-2.72c0-.95-.47-1.78-1.48-1.78-.99 0-1.48.82-1.48 1.77 0 .97.46 1.84 1.48 1.84s1.48-.86 1.48-1.84v.01zM62.8 47.44v-7.57l1.18.64v6.93zM66.7 47.6c-1.33 0-1.97-.63-1.97-.63l.53-.69s.61.4 1.4.4c.38 0 .7-.26.7-.53s-.12-.49-.47-.67c-.35-.18-.74-.37-1.05-.52-.31-.15-.99-.6-.99-1.49 0-.9.91-1.4 1.85-1.4.89 0 1.57.58 1.57.58l-.46.7s-.51-.36-1.07-.36-.68.36-.68.51c0 .15.05.38.41.57.36.19.73.39 1.27.69.53.3.83.8.83 1.37s-.54 1.47-1.87 1.47M71.77 47.56c-1.88 0-2.79-1.36-2.79-2.67 0-1.51 1.1-2.73 2.82-2.73.58 0 1.19.18 1.67.58l-.53.74c-.33-.25-.68-.35-1.11-.35-.91 0-1.59.63-1.59 1.72 0 .99.63 1.79 1.63 1.79.43 0 .8-.13 1.13-.41l.49.74c-.47.4-1.11.59-1.72.59M77.59 46.83s-.6.73-1.72.73c-1.33 0-1.98-.96-1.98-1.93v-3.35h1.18v3.3c0 .57.45 1.05 1.14 1.05.61 0 1.2-.72 1.2-.72v-3.63h1.18v5.15l-1-.6zM79.64 47.44v-7.57l1.18.64v6.93zM84.72 47.56c-1.04 0-1.64-.58-1.64-.58v2.57H81.9v-7.38l1.19.62s.64-.64 1.7-.64c1.12 0 2.51.86 2.51 2.77 0 1.91-1.37 2.64-2.58 2.64m-.07-4.5c-1.01 0-1.59.94-1.59.94v1.95s.67.75 1.64.75c1.13 0 1.37-1.34 1.37-1.81-.01-.47-.11-1.83-1.42-1.83M90.4 47.57h-.74c-.94 0-1.25-.9-1.25-1.49v-3.03h-.94v-.77h.94v-2.27h1.17v2.27h1.2v.77h-1.19v2.75c0 .31-.05.79.47.79h.85l-.51.98zM92.29 41.39c-.43 0-.78-.35-.78-.77 0-.42.35-.77.78-.77.43 0 .78.35.78.77 0 .42-.35.77-.78.77m-.58.89h1.16v5.16h-1.16v-5.16zM97.55 47.44v-3.3c0-.57-.45-1.05-1.14-1.05-.61 0-1.29.72-1.29.72v3.63h-1.18v-5.15l1 .59s.68-.73 1.81-.73c1.33 0 1.98.96 1.98 1.93v3.35h-1.18zM102.33 49.84c-.18 0-1.56-.02-1.56-.02l.02-.94h1.16c1.13 0 1.76-.6 1.76-1.43v-.47s-.62.58-1.66.58c-1.2 0-2.57-.73-2.57-2.64 0-1.91 1.39-2.77 2.51-2.77 1.06 0 1.7.64 1.7.64l1.19-.59v5.13c0 1.39-.92 2.51-2.55 2.51m1.4-5.84s-.58-.94-1.59-.94c-1.31 0-1.41 1.36-1.41 1.83s.24 1.81 1.37 1.81c.97 0 1.64-.75 1.64-.75V44zM34.16 45.09l-2.17 2.16 2.66 1 3.17-3.16zM38.14 40.7l-2.16-2.15-1.02 2.63 3.18 3.16zM42.07 41.5l2.9.75-2.42 2.4h-3.66zM41.87 48.68l-.83 2.81L36.53 47l1.83-1.82zM106.65 42.63c0 .31-.25.55-.56.55a.55.55 0 0 1-.56-.55c0-.31.25-.54.57-.54.3-.01.55.23.55.54zm-.99 0c0 .24.18.43.43.43.24 0 .42-.19.42-.43s-.18-.44-.42-.44-.43.2-.43.44zm.34.28h-.13v-.54c.05-.01.12-.02.21-.02.1 0 .15.02.19.04.03.02.06.06.06.12 0 .07-.05.11-.11.13v.01c.05.02.08.06.1.13.02.08.03.11.04.13h-.13c-.02-.02-.03-.07-.04-.13-.01-.06-.04-.08-.11-.08H106v.21zm0-.3h.06c.07 0 .13-.02.13-.08 0-.05-.04-.08-.12-.08-.03 0-.06 0-.07.01v.15z"/><g><path class="st0" d="M35.55 51.35v-3.37l.66-.66 1.92 1.91v.64zM35.24 42.08h-2.8l.89 2.57h4.49zM44.68 47.66h-3.2l-2.59-2.57h4.49zM38.58 39.88l2.59-1.53v3.42l-2.59 2.57zM43.13 48.86c0 .21-.17.38-.39.38s-.39-.17-.39-.38.17-.38.39-.38c.22.01.39.17.39.38zm-.68 0c0 .17.13.3.3.3.16 0 .29-.13.29-.3 0-.17-.12-.3-.29-.3a.3.3 0 0 0-.3.3zm.23.2h-.08v-.38c.03 0 .08-.01.15-.01.07 0 .1.01.13.03.02.02.04.04.04.08 0 .05-.03.08-.08.09.04.01.06.04.07.09.01.06.02.08.03.09h-.09a.302.302 0 0 1-.03-.09c-.01-.04-.03-.06-.08-.06h-.04v.16zm.01-.21h.04c.05 0 .09-.02.09-.06 0-.03-.03-.06-.08-.06h-.05v.12z"/></g><g><path class="st0" d="M21.93 42.43h.47v2.58h.01c.08-.11.17-.21.27-.29.1-.08.21-.15.33-.2.11-.05.23-.09.35-.11.12-.02.23-.04.34-.04.26 0 .5.04.71.13.21.09.4.21.56.36.16.15.28.34.36.55.09.21.13.44.13.69a1.731 1.731 0 0 1-.49 1.24c-.16.15-.34.28-.56.36a1.831 1.831 0 0 1-1.4-.02c-.11-.05-.22-.12-.33-.2-.1-.08-.19-.18-.27-.29h-.01v.55h-.47v-5.31zm3.02 3.67c0-.18-.03-.35-.09-.51-.06-.16-.14-.3-.25-.42-.11-.12-.24-.21-.39-.28-.15-.07-.33-.1-.52-.1a1.317 1.317 0 0 0-.95.38c-.12.12-.21.26-.28.42-.07.16-.1.33-.1.51s.03.35.1.51c.07.16.16.3.28.42a1.317 1.317 0 0 0 .95.38c.19 0 .37-.03.52-.1.15-.07.28-.16.39-.28.11-.12.19-.26.25-.42.06-.15.09-.32.09-.51zM27.49 47.18l1.01-2.72h.57l-1.66 4.15c-.1.25-.23.45-.38.61-.15.15-.37.23-.66.23-.07 0-.14 0-.22-.01a.85.85 0 0 1-.22-.04l.05-.45c.1.05.22.08.35.08.17 0 .3-.05.39-.15.09-.1.18-.25.25-.44l.24-.63-1.36-3.34h.59l1.05 2.71z"/></g><g><path class="st0" d="M31.15 32.2c-1.02.88-2.27 1.32-3.77 1.32-1.95 0-3.49-.63-4.62-1.9-1.02-1.14-1.52-2.52-1.52-4.13 0-1.73.57-3.18 1.71-4.35 1.14-1.17 2.65-1.76 4.52-1.76 1.44 0 2.66.44 3.66 1.31l-1.17 1.64c-.67-.51-1.48-.76-2.44-.76-1.03 0-1.87.35-2.52 1.04-.65.7-.97 1.64-.97 2.82 0 1.15.32 2.11.97 2.87.65.76 1.51 1.14 2.59 1.14.94 0 1.77-.3 2.51-.9l1.05 1.66zM43.34 27.37c0 1.76-.57 3.22-1.72 4.39-1.15 1.17-2.59 1.76-4.33 1.76-1.73 0-3.17-.59-4.31-1.76-1.14-1.17-1.71-2.64-1.71-4.39 0-1.73.6-3.17 1.81-4.32 1.16-1.11 2.56-1.66 4.22-1.66 1.66 0 3.07.55 4.24 1.66 1.2 1.15 1.8 2.59 1.8 4.32zm-2.79 0c0-1.12-.27-2.05-.8-2.78-.59-.79-1.41-1.19-2.46-1.19s-1.86.4-2.44 1.19c-.53.73-.8 1.65-.8 2.78 0 1.19.26 2.15.77 2.89.58.82 1.4 1.23 2.46 1.23s1.89-.41 2.49-1.23c.53-.74.78-1.7.78-2.89zM56.31 27.37c0 1.76-.57 3.22-1.72 4.39-1.15 1.17-2.59 1.76-4.33 1.76-1.73 0-3.17-.59-4.31-1.76-1.14-1.17-1.71-2.64-1.71-4.39 0-1.73.6-3.17 1.81-4.32 1.16-1.11 2.56-1.66 4.22-1.66 1.66 0 3.07.55 4.24 1.66 1.2 1.15 1.8 2.59 1.8 4.32zm-2.79 0c0-1.12-.27-2.05-.8-2.78-.59-.79-1.41-1.19-2.46-1.19s-1.86.4-2.44 1.19c-.53.73-.8 1.65-.8 2.78 0 1.19.26 2.15.77 2.89.58.82 1.4 1.23 2.46 1.23s1.89-.41 2.49-1.23c.52-.74.78-1.7.78-2.89zM60.29 33.26h-2.6V16.22l2.6 1.45v15.59zM80.17 27.37c0 1.76-.57 3.22-1.72 4.39-1.15 1.17-2.59 1.76-4.33 1.76-1.73 0-3.17-.59-4.31-1.76-1.14-1.17-1.71-2.64-1.71-4.39 0-1.73.6-3.17 1.81-4.32 1.16-1.11 2.56-1.66 4.22-1.66 1.66 0 3.07.55 4.24 1.66 1.2 1.15 1.8 2.59 1.8 4.32zm-2.79 0c0-1.12-.27-2.05-.8-2.78-.59-.79-1.41-1.19-2.46-1.19s-1.86.4-2.44 1.19c-.53.73-.8 1.65-.8 2.78 0 1.19.26 2.15.77 2.89.58.82 1.4 1.23 2.46 1.23s1.89-.41 2.49-1.23c.53-.74.78-1.7.78-2.89zM92.01 33.26h-2.6v-7.41c0-.66-.23-1.22-.69-1.67-.46-.45-1.07-.68-1.82-.68-.83 0-1.77.54-2.84 1.61v8.14h-2.6V21.67l2.2 1.33c1.12-1.09 2.45-1.64 3.99-1.64 1.38 0 2.47.45 3.28 1.36.72.81 1.08 1.81 1.08 3v7.54zM104.72 28H96.4c.31 2.36 1.42 3.55 3.33 3.55 1.17 0 2.13-.33 2.88-1l1.03 1.69c-1 .92-2.33 1.38-3.99 1.38-2.3 0-3.98-.86-5.04-2.59-.66-1.06-.98-2.16-.98-3.28 0-1.38.27-2.58.8-3.59.95-1.86 2.65-2.78 5.09-2.78 2.41 0 3.99 1.1 4.76 3.31.32.91.47 2.03.44 3.31zm-2.63-1.71c-.09-2.05-.97-3.07-2.63-3.07-1.83 0-2.84 1.02-3.02 3.07h5.65zM65.92 31.36c-.5 0-.81-.21-.94-.64-.06-.17-.09-.56-.09-1.14v-4.83h1.81V23h-1.81v-2.77l-2.6-1.45v11.43c0 .83.2 1.55.61 2.17.5.79 1.22 1.19 2.16 1.19h1.64l1.1-2.21h-1.88z"/><g><path class="st0" d="M107.7 22.6c0 .69-.56 1.23-1.26 1.23-.71 0-1.27-.55-1.27-1.23 0-.69.56-1.22 1.28-1.22.7 0 1.25.53 1.25 1.22zm-2.21 0c0 .54.41.98.96.98.53.01.94-.43.94-.97s-.41-.98-.95-.98c-.54-.01-.95.43-.95.97zm.76.63h-.28v-1.22c.11-.01.27-.04.47-.04.23 0 .34.04.42.1.08.05.13.14.13.26 0 .15-.11.25-.26.29v.01c.12.04.18.13.22.3.04.19.07.25.09.3h-.3c-.04-.04-.06-.15-.1-.3-.02-.13-.1-.19-.26-.19h-.13v.49zm.01-.68h.13c.16 0 .29-.05.29-.18 0-.11-.08-.19-.26-.19-.08 0-.13.01-.16.01v.36z"/></g></g></svg>