<svg id="Layer_1" xmlns="http://www.w3.org/2000/svg" viewBox="0 0 300 600"><style>.st0{fill:#eaf5fb}</style><path class="st0" d="M65.12 90.26v-4.44h2.13v4.03c0 2.09.59 2.93 2.05 2.93 1.5 0 2.09-.84 2.09-2.93v-3.81c0-1.72-.48-2.57-1.72-3.37l-1.94-1.25c-1.87-1.21-2.6-2.6-2.6-5.06V73.1c0-2.79 1.5-4.36 4.11-4.36 2.6 0 4.11 1.58 4.11 4.36v3.26h-2.13v-2.9c0-1.98-.55-2.75-1.94-2.75s-1.94.77-1.94 2.75v2.75c0 1.72.48 2.57 1.72 3.37L71 80.83c1.87 1.21 2.6 2.6 2.6 5.06v4.36c0 2.9-1.58 4.51-4.25 4.51-2.69.01-4.23-1.61-4.23-4.5zM79.49 71.01h-3.08V69.1h8.36v1.91h-3.08V94.4h-2.2V71.01zM88.19 69.1h4.07c2.93 0 4.33 1.5 4.33 4.58v3.23c0 2.05-.66 3.3-1.98 3.89v.07c1.32.59 1.98 1.83 1.98 3.92v9.61h-2.2v-9.46c0-2.35-.66-3.04-2.75-3.04h-1.25v12.5h-2.2V69.1zM92 79.99c1.83 0 2.38-.7 2.38-3.04v-2.9c0-2.35-.55-3.04-2.38-3.04h-1.61v8.98H92zM100.69 69.1h7.26v1.91h-5.06v8.84h4.4v1.91h-4.4V92.5h5.06v1.91h-7.26V69.1zM111.51 69.1h2.86l4 18.52h.07V69.1h1.98v25.3h-2.38l-4.47-20.86h-.07V94.4h-1.98V69.1zM124.56 90.81V73.28c0-2.9 1.58-4.55 4.22-4.55 2.68 0 4.18 1.65 4.18 4.55v2.79h-2.09v-2.38c0-2.13-.59-2.97-2.05-2.97-1.5 0-2.05.84-2.05 2.97v16.87c0 1.5.55 2.24 1.76 2.24 1.5 0 2.35-1.14 2.35-3.19v-7.26h-2.05v-1.91h4.25V94.4h-1.87v-1.8h-.11c-.59 1.39-1.65 2.16-3.15 2.16-2.14.01-3.39-1.5-3.39-3.95zM139.23 71.01h-3.08V69.1h8.36v1.91h-3.08V94.4h-2.2V71.01zM147.92 69.1h2.2v10.74h4.14V69.1h2.2v25.3h-2.2V81.75h-4.14V94.4h-2.2V69.1zM160.76 69.1h7.26v1.91h-5.06v8.84h4.4v1.91h-4.4V92.5h5.06v1.91h-7.26V69.1zM171.58 69.1h2.86l4 18.52h.07V69.1h1.98v25.3h-2.38l-4.47-20.86h-.07V94.4h-1.98V69.1zM185.62 94.4h-.88v-3.01h2.49v2.64l-1.61 4.07h-1.28l1.28-3.7zM199.78 71.01h-3.08V69.1h8.36v1.91h-3.08V94.4h-2.2V71.01zM208.03 90.18V73.32c0-2.93 1.58-4.58 4.25-4.58s4.25 1.65 4.25 4.58v16.87c0 2.93-1.58 4.58-4.25 4.58s-4.25-1.65-4.25-4.59zm6.3-.36V73.68c0-2.13-.59-2.97-2.05-2.97-1.5 0-2.05.84-2.05 2.97v16.13c0 2.13.55 2.97 2.05 2.97 1.47.01 2.05-.84 2.05-2.96zM220.68 69.1h2.86l4 18.52h.07V69.1h1.98v25.3h-2.38l-4.47-20.86h-.07V94.4h-1.98V69.1zM233.88 69.1h7.26v1.91h-5.06v8.84h4.4v1.91h-4.4V92.5h5.06v1.91h-7.26V69.1zM245.91 94.4h-.88v-3.01h2.49v2.64l-1.61 4.07h-1.28l1.28-3.7zM64.63 106.99h2.9l3.19 25.3h-2.24l-.73-6.27H64.3l-.73 6.27h-2.13l3.19-25.3zm2.89 17.13l-1.47-13.64h-.07l-1.47 13.64h3.01zM74.16 106.99h2.86l4 18.52h.07v-18.52h1.98v25.3h-2.38l-4.47-20.86h-.07v20.86h-1.98v-25.3zM87.36 106.99h4.18c2.93 0 4.33 1.5 4.33 4.58v16.13c0 3.08-1.39 4.58-4.33 4.58h-4.18v-25.29zm3.92 23.4c1.83 0 2.38-.7 2.38-3.04v-15.4c0-2.35-.55-3.04-2.38-3.04h-1.72v21.49h1.72zM106.03 106.99h7.26v1.91h-5.06v9.2h4.4v1.91h-4.4v12.28h-2.2v-25.3zM116.7 106.99h2.2v25.3h-2.2v-25.3zM123.19 106.99h4.07c2.93 0 4.33 1.5 4.33 4.58v3.23c0 2.05-.66 3.3-1.98 3.89v.07c1.32.59 1.98 1.83 1.98 3.92v9.61h-2.2v-9.46c0-2.35-.66-3.04-2.75-3.04h-1.25v12.5h-2.2v-25.3zm3.81 10.89c1.83 0 2.38-.7 2.38-3.04v-2.9c0-2.35-.55-3.04-2.38-3.04h-1.61v8.98H127zM135.69 106.99h3.48l2.82 18.66h.07l2.82-18.66h3.63v25.3h-2.2v-22.62h-.07l-3.41 22.62h-1.72l-3.41-22.62h-.07v22.62h-1.94v-25.3zM158.87 106.99h3.48l2.82 18.66h.07l2.82-18.66h3.63v25.3h-2.2v-22.62h-.07l-3.41 22.62h-1.72l-3.41-22.62h-.07v22.62h-1.94v-25.3zM175.92 128.22v-21.23h2.2v20.83c0 2.05.51 2.86 1.98 2.86s1.98-.81 1.98-2.86v-20.83h2.13v21.23c0 2.82-1.54 4.44-4.14 4.44s-4.15-1.61-4.15-4.44zM188.02 128.15v-4.44h2.13v4.03c0 2.09.59 2.93 2.05 2.93 1.5 0 2.09-.84 2.09-2.93v-3.81c0-1.72-.48-2.57-1.72-3.37l-1.94-1.25c-1.87-1.21-2.6-2.6-2.6-5.06v-3.26c0-2.79 1.5-4.36 4.11-4.36 2.6 0 4.11 1.58 4.11 4.36v3.26h-2.13v-2.9c0-1.98-.55-2.75-1.94-2.75s-1.94.77-1.94 2.75v2.75c0 1.72.48 2.57 1.72 3.37l1.94 1.25c1.87 1.21 2.6 2.6 2.6 5.06v4.36c0 2.9-1.58 4.51-4.25 4.51s-4.23-1.6-4.23-4.5zM200.16 128.3v-17.31c0-2.79 1.47-4.36 4.11-4.36 2.68 0 4.14 1.58 4.14 4.36v4.14h-2.09v-3.78c0-1.98-.59-2.75-1.98-2.75-1.43 0-1.98.77-1.98 2.75v16.57c0 1.98.55 2.75 1.98 2.75 1.39 0 1.98-.77 1.98-2.75v-5.1h2.09v5.46c0 2.79-1.47 4.36-4.14 4.36-2.64.02-4.11-1.56-4.11-4.34zM212.3 106.99h2.2v23.39h4.69v1.91h-6.89v-25.3zM222.6 106.99h7.26v1.91h-5.06v8.84h4.4v1.91h-4.4v10.74h5.06v1.91h-7.26v-25.31zM233.09 128.15v-4.44h2.13v4.03c0 2.09.59 2.93 2.05 2.93 1.5 0 2.09-.84 2.09-2.93v-3.81c0-1.72-.48-2.57-1.72-3.37l-1.94-1.25c-1.87-1.21-2.6-2.6-2.6-5.06v-3.26c0-2.79 1.5-4.36 4.11-4.36 2.6 0 4.11 1.58 4.11 4.36v3.26h-2.13v-2.9c0-1.98-.55-2.75-1.94-2.75s-1.94.77-1.94 2.75v2.75c0 1.72.48 2.57 1.72 3.37l1.94 1.25c1.87 1.21 2.6 2.6 2.6 5.06v4.36c0 2.9-1.58 4.51-4.25 4.51s-4.23-1.6-4.23-4.5zM245.37 129.29h2.46v3.01h-2.46v-3.01z"/></svg>