<svg id="Layer_1" xmlns="http://www.w3.org/2000/svg" viewBox="0 0 300 600"><style>.st0{fill:#00a9e0}.st1{fill:#fff}</style><path class="st0" d="M87.13 485.13h132.18v32.42H87.13z"/><path class="st1" d="M96.92 507.44v-12.02h2.92v9.49h4.65v2.53h-7.57zM106.11 507.44v-12.02h8.08v2.46h-5.28v2.26h4.99v2.33h-4.99v2.5h5.59v2.48h-8.39zM124.82 507.44l-.93-2.36h-4.65l-.88 2.36h-3.16l5.04-12.02h2.82l4.99 12.02h-3.23zm-3.22-8.81l-1.53 4.13h3.02l-1.49-4.13zM135.75 507.44l-2.6-4.77h-.99v4.77h-2.85v-12.02h4.59c2.31 0 4.6.88 4.6 3.63 0 1.61-.95 2.77-2.5 3.24l3.14 5.15h-3.39zm-2.06-9.68h-1.55v2.8h1.38c.93 0 2.11-.24 2.11-1.46 0-1.12-1.07-1.34-1.94-1.34zM148.47 507.44l-4.84-7.86h-.05l.07 7.86h-2.82v-12.02h3.31l4.82 7.85h.05l-.07-7.85h2.82v12.02h-3.29zM169.9 507.44l.07-8.51h-.05l-3.12 8.51h-2.04l-3.04-8.51h-.05l.07 8.51H159v-12.02h4.13l2.73 7.71h.07l2.62-7.71h4.2v12.02h-2.85zM181.45 507.77c-3.75 0-6.54-2.58-6.54-6.38 0-3.86 2.79-6.28 6.54-6.28 3.77 0 6.56 2.43 6.56 6.28-.01 3.79-2.79 6.38-6.56 6.38zm0-10.06c-2.04 0-3.43 1.56-3.43 3.67 0 2.17 1.41 3.74 3.43 3.74s3.45-1.56 3.45-3.74c-.01-2.11-1.41-3.67-3.45-3.67zM196.61 507.44l-2.6-4.77h-.99v4.77h-2.85v-12.02h4.58c2.31 0 4.6.88 4.6 3.63 0 1.61-.95 2.77-2.5 3.24l3.14 5.15h-3.38zm-2.05-9.68h-1.54v2.8h1.38c.93 0 2.11-.24 2.11-1.46-.01-1.12-1.09-1.34-1.95-1.34zM201.69 507.44v-12.02h8.08v2.46h-5.28v2.26h4.99v2.33h-4.99v2.5h5.59v2.48h-8.39z"/></svg>