<svg id="Layer_1" xmlns="http://www.w3.org/2000/svg" viewBox="0 0 300 600"><style>.st0{fill:#fff}</style><path class="st0" d="M66.45 536.74h-.98v-7.01h.98v7.01zM70.31 536.74H69.3l-1.91-4.69h1.03l1.38 3.69h.02l1.39-3.69h.99l-1.89 4.69zM76.01 533.71c0-.35-.11-.61-.32-.78-.21-.17-.49-.25-.84-.25a1.931 1.931 0 0 0-1.34.54l-.49-.59c.23-.22.51-.39.85-.51.33-.12.69-.19 1.07-.19.34 0 .63.05.88.14s.45.23.61.39c.16.17.28.36.36.58.08.22.12.46.12.72v2.05c0 .16 0 .33.01.5s.03.32.05.43h-.84c-.05-.22-.08-.45-.08-.67h-.03c-.17.25-.39.45-.65.58s-.57.21-.93.21c-.19 0-.38-.03-.58-.07-.2-.05-.38-.13-.55-.24s-.3-.26-.41-.45-.16-.41-.16-.68c0-.36.1-.64.29-.85.19-.21.44-.37.75-.47.31-.11.66-.18 1.05-.21s.78-.05 1.18-.05v-.13zm-.23.8c-.23 0-.47.01-.72.03-.25.02-.47.06-.67.12-.2.06-.37.15-.5.27-.13.12-.2.28-.2.48 0 .14.03.25.08.35.06.09.13.17.22.23s.19.1.31.12c.11.02.23.04.35.04.44 0 .77-.13 1-.39.23-.26.35-.59.35-.98v-.25h-.22zM79.3 532.05c.01.12.02.25.03.4.01.15.01.27.01.37h.03c.06-.13.14-.24.24-.35a2 2 0 0 1 .35-.29c.13-.08.28-.15.44-.19.16-.05.32-.07.49-.07.3 0 .56.05.78.15.22.1.4.24.54.41s.25.37.32.6c.07.23.1.48.1.74v2.91h-.93v-2.6c0-.19-.01-.37-.04-.54-.03-.17-.08-.32-.16-.46s-.19-.24-.33-.32-.32-.12-.53-.12c-.37 0-.67.14-.91.42-.23.28-.35.65-.35 1.12v2.49h-.93v-3.68c0-.12 0-.29-.01-.49s-.02-.37-.03-.52h.89zM87.03 532.05l1.06 3.58h.02l1.12-3.58h.98l1.14 3.58h.02l1.06-3.58h.98l-1.55 4.69h-.97l-1.16-3.52h-.02l-1.15 3.52h-.97l-1.56-4.69h1zM97.26 533.71c0-.35-.11-.61-.32-.78-.21-.17-.49-.25-.84-.25a1.931 1.931 0 0 0-1.34.54l-.49-.59c.23-.22.51-.39.85-.51.33-.12.69-.19 1.07-.19.34 0 .63.05.88.14s.45.23.61.39c.16.17.28.36.36.58.08.22.12.46.12.72v2.05c0 .16 0 .33.01.5s.03.32.05.43h-.84c-.05-.22-.08-.45-.08-.67h-.03c-.17.25-.39.45-.65.58s-.57.21-.93.21c-.19 0-.38-.03-.58-.07-.2-.05-.38-.13-.55-.24s-.3-.26-.41-.45-.16-.41-.16-.68c0-.36.1-.64.29-.85.19-.21.44-.37.75-.47.31-.11.66-.18 1.05-.21s.78-.05 1.18-.05v-.13zm-.23.8c-.23 0-.47.01-.72.03-.25.02-.47.06-.67.12-.2.06-.37.15-.5.27-.13.12-.2.28-.2.48 0 .14.03.25.08.35.06.09.13.17.22.23s.19.1.31.12c.11.02.23.04.35.04.44 0 .77-.13 1-.39.23-.26.35-.59.35-.98v-.25h-.22zM102.24 533.24a1.268 1.268 0 0 0-1.09-.58c-.11 0-.21.01-.32.04-.11.02-.2.06-.28.11-.08.05-.15.11-.2.19-.05.08-.07.17-.07.28 0 .2.09.34.27.44s.45.18.8.26c.22.05.43.12.62.19s.36.16.5.27c.14.11.25.24.33.39s.12.33.12.53c0 .28-.05.51-.16.7s-.25.35-.42.47c-.18.12-.37.21-.6.26-.22.05-.46.08-.69.08-.36 0-.7-.07-1.04-.21s-.62-.35-.85-.63l.66-.56c.13.18.3.34.52.46s.46.19.73.19c.12 0 .23-.01.34-.04s.21-.06.3-.11.16-.12.21-.21.08-.2.08-.33c0-.22-.1-.38-.31-.48s-.51-.21-.92-.3c-.16-.04-.32-.09-.48-.14-.16-.06-.31-.13-.44-.23s-.24-.22-.32-.37-.12-.33-.12-.55c0-.25.05-.47.15-.65.1-.18.24-.33.4-.45.16-.12.35-.2.56-.26.21-.06.43-.08.65-.08.34 0 .66.07.98.2.31.13.56.32.73.57l-.64.55zM108.87 532.81h-1.25v2.44c0 .28.05.49.16.61s.27.18.5.18c.09 0 .18-.01.28-.03.1-.02.19-.05.27-.08l.03.76c-.11.04-.24.07-.37.09-.14.02-.28.03-.42.03-.44 0-.78-.12-1.01-.37-.23-.24-.35-.61-.35-1.1v-2.54h-.9v-.76h.9v-1.35h.92v1.35h1.25v.77zM109.82 532.58c-.01-.2-.02-.37-.03-.52h.88c.01.12.02.26.03.41.01.16.01.28.01.38h.03c.13-.28.32-.5.58-.67s.54-.25.86-.25c.15 0 .27.01.37.04l-.04.86a1.88 1.88 0 0 0-.43-.05c-.22 0-.42.04-.58.12-.17.08-.3.19-.41.33s-.19.3-.24.48-.08.37-.08.57v2.46h-.93v-3.68c-.01-.12-.02-.29-.02-.48zM117.62 534.36v.16c0 .05 0 .11-.01.16h-3.73c.01.2.05.38.13.55.08.17.19.33.33.45a1.575 1.575 0 0 0 1.06.41c.32 0 .59-.07.82-.21s.41-.31.54-.5l.65.53c-.25.33-.55.58-.89.73-.34.16-.72.24-1.13.24-.36 0-.69-.06-.99-.18-.3-.12-.56-.29-.78-.5-.22-.21-.39-.47-.51-.78-.13-.3-.19-.64-.19-1.01 0-.36.06-.7.18-1 .12-.31.29-.57.51-.79s.48-.39.77-.51c.3-.12.62-.18.96-.18s.66.06.94.17c.28.11.52.27.71.48.19.21.35.47.45.77.12.29.18.63.18 1.01zm-.95-.38c-.01-.18-.04-.36-.09-.52-.06-.16-.14-.3-.25-.42-.11-.12-.24-.21-.41-.28s-.35-.1-.57-.1c-.2 0-.38.04-.56.1s-.33.16-.46.28c-.13.12-.23.26-.32.42-.08.16-.13.33-.14.52h2.8zM121.76 533.71c0-.35-.11-.61-.32-.78-.21-.17-.49-.25-.84-.25a1.931 1.931 0 0 0-1.34.54l-.49-.59c.23-.22.51-.39.85-.51.33-.12.69-.19 1.07-.19.34 0 .63.05.88.14s.45.23.61.39c.16.17.28.36.36.58.08.22.12.46.12.72v2.05c0 .16 0 .33.01.5s.03.32.05.43h-.84c-.05-.22-.08-.45-.08-.67h-.03c-.17.25-.39.45-.65.58s-.57.21-.93.21c-.19 0-.38-.03-.58-.07-.2-.05-.38-.13-.55-.24s-.3-.26-.41-.45-.16-.41-.16-.68c0-.36.1-.64.29-.85.19-.21.44-.37.75-.47.31-.11.66-.18 1.05-.21s.78-.05 1.18-.05v-.13zm-.22.8c-.23 0-.47.01-.72.03-.25.02-.47.06-.67.12-.2.06-.37.15-.5.27-.13.12-.2.28-.2.48 0 .14.03.25.08.35.06.09.13.17.22.23s.19.1.31.12c.11.02.23.04.35.04.44 0 .77-.13 1-.39.23-.26.35-.59.35-.98v-.25h-.22zM126.41 532.81h-1.25v2.44c0 .28.05.49.16.61s.27.18.5.18c.09 0 .18-.01.28-.03.1-.02.19-.05.27-.08l.03.76c-.11.04-.24.07-.37.09-.14.02-.28.03-.42.03-.44 0-.78-.12-1.01-.37-.23-.24-.35-.61-.35-1.1v-2.54h-.9v-.76h.9v-1.35h.92v1.35h1.25v.77zM131.75 534.36v.16c0 .05 0 .11-.01.16h-3.73c.01.2.05.38.13.55.08.17.19.33.33.45a1.575 1.575 0 0 0 1.06.41c.32 0 .59-.07.82-.21s.41-.31.54-.5l.65.53c-.25.33-.55.58-.89.73-.34.16-.72.24-1.13.24-.36 0-.69-.06-.99-.18-.3-.12-.56-.29-.78-.5-.22-.21-.39-.47-.51-.78-.13-.3-.19-.64-.19-1.01 0-.36.06-.7.18-1 .12-.31.29-.57.51-.79s.48-.39.77-.51c.3-.12.62-.18.96-.18s.66.06.94.17c.28.11.52.27.71.48.19.21.35.47.45.77.13.29.18.63.18 1.01zm-.95-.38c-.01-.18-.04-.36-.09-.52-.06-.16-.14-.3-.25-.42-.11-.12-.24-.21-.41-.28s-.35-.1-.57-.1c-.2 0-.38.04-.56.1s-.33.16-.46.28c-.13.12-.23.26-.32.42-.08.16-.13.33-.14.52h2.8zM136.78 536c-.18.28-.42.5-.73.65s-.63.22-.96.22c-.36 0-.69-.06-.98-.19-.29-.13-.54-.3-.74-.53-.2-.22-.36-.49-.48-.79a2.826 2.826 0 0 1 0-1.93c.11-.3.27-.56.48-.79s.46-.4.75-.52.61-.19.96-.19c.38 0 .72.08 1 .24.28.16.51.36.67.59h.02v-3.49h.93v7.48h-.9V536h-.02zm-3.09-1.61c0 .22.03.43.1.63s.17.38.3.54c.13.16.29.28.49.38.19.09.42.14.67.14.24 0 .45-.05.65-.14.19-.09.36-.22.5-.37.14-.16.25-.33.32-.54.08-.2.11-.42.11-.64s-.04-.44-.11-.64c-.08-.2-.18-.38-.32-.54a1.7 1.7 0 0 0-.5-.38c-.19-.09-.41-.14-.65-.14-.26 0-.48.05-.67.14-.19.09-.35.22-.49.38-.13.16-.23.34-.3.54-.07.21-.1.43-.1.64zM142.14 532.05l1.06 3.58h.02l1.12-3.58h.98l1.14 3.58h.02l1.06-3.58h.98l-1.55 4.69H146l-1.16-3.52h-.02l-1.15 3.52h-.97l-1.56-4.69h1zM150.54 530.36a.595.595 0 0 1-.62.6c-.17 0-.31-.06-.43-.17s-.18-.26-.18-.42c0-.17.06-.31.18-.43s.26-.17.43-.17c.17 0 .32.06.44.17.11.1.18.25.18.42zm-.15 6.38h-.93v-4.69h.93v4.69zM154.31 532.81h-1.25v2.44c0 .28.05.49.16.61s.27.18.5.18c.09 0 .18-.01.28-.03.1-.02.19-.05.27-.08l.03.76c-.11.04-.24.07-.37.09-.14.02-.28.03-.42.03-.44 0-.78-.12-1.01-.37-.23-.24-.35-.61-.35-1.1v-2.54h-.9v-.76h.9v-1.35h.92v1.35h1.25v.77zM156.24 532.76c.11-.23.3-.43.57-.59s.57-.25.91-.25c.3 0 .56.05.78.15.22.1.4.24.54.41.15.17.25.37.32.6.07.23.1.48.1.74v2.91h-.93v-2.6c0-.19-.02-.37-.04-.55s-.08-.32-.16-.46a.979.979 0 0 0-.32-.32c-.13-.08-.31-.12-.53-.12-.37 0-.67.14-.91.42-.24.28-.36.66-.36 1.13v2.49h-.93v-7.48h.93v3.5h.03zM169.58 535.65c-.28.38-.64.68-1.08.92-.44.23-.97.35-1.59.35-.53 0-1.03-.09-1.48-.27-.45-.18-.84-.44-1.17-.76-.33-.33-.58-.72-.77-1.17-.19-.45-.28-.95-.28-1.49 0-.55.09-1.05.28-1.5.19-.45.45-.84.78-1.16s.73-.57 1.18-.75c.46-.18.95-.27 1.49-.27.24 0 .48.02.72.07s.48.12.7.21.43.21.61.34c.18.13.34.29.48.47l-.77.59c-.17-.24-.41-.43-.73-.59s-.65-.23-1.01-.23c-.41 0-.78.07-1.1.22-.33.15-.61.35-.84.61-.23.26-.41.56-.53.9-.13.34-.19.7-.19 1.08 0 .4.06.77.18 1.11.12.34.3.64.52.9.23.25.5.45.83.6.33.14.69.22 1.09.22.4 0 .76-.08 1.08-.24s.59-.39.8-.69l.8.53zM175.16 534.39c0 .36-.06.7-.19 1-.13.3-.31.57-.53.79-.23.22-.5.39-.81.51-.31.12-.64.18-1 .18s-.69-.06-1-.18c-.31-.12-.58-.29-.8-.51-.22-.22-.4-.48-.53-.79-.13-.3-.19-.64-.19-1s.06-.69.19-1c.13-.3.31-.56.53-.78.22-.22.49-.39.8-.51.31-.12.64-.18 1-.18s.69.06 1 .18c.31.12.58.29.81.51s.41.48.53.78c.12.3.19.63.19 1zm-.97 0c0-.22-.03-.44-.1-.64s-.17-.38-.3-.54c-.13-.16-.3-.28-.49-.37-.2-.09-.42-.14-.67-.14s-.47.05-.67.14c-.2.09-.36.21-.49.37-.13.15-.23.33-.3.54-.07.2-.1.42-.1.64s.03.44.1.64.17.38.3.54c.13.16.3.28.49.38.2.09.42.14.67.14s.47-.05.67-.14c.2-.09.36-.22.49-.38s.23-.34.3-.54c.06-.2.1-.41.1-.64zM181.2 534.39c0 .36-.06.7-.19 1-.13.3-.31.57-.53.79-.23.22-.5.39-.81.51-.31.12-.64.18-1 .18s-.69-.06-1-.18c-.31-.12-.58-.29-.8-.51-.22-.22-.4-.48-.53-.79-.13-.3-.19-.64-.19-1s.06-.69.19-1c.13-.3.31-.56.53-.78.22-.22.49-.39.8-.51.31-.12.64-.18 1-.18s.69.06 1 .18c.31.12.58.29.81.51s.41.48.53.78c.12.3.19.63.19 1zm-.97 0c0-.22-.03-.44-.1-.64s-.17-.38-.3-.54c-.13-.16-.3-.28-.49-.37-.2-.09-.42-.14-.67-.14s-.47.05-.67.14c-.2.09-.36.21-.49.37-.13.15-.23.33-.3.54-.07.2-.1.42-.1.64s.03.44.1.64.17.38.3.54c.13.16.3.28.49.38.2.09.42.14.67.14s.47-.05.67-.14c.2-.09.36-.22.49-.38s.23-.34.3-.54c.06-.2.1-.41.1-.64zM183.43 536.74h-.93v-7.48h.93v7.48zM187.56 536.74h-.98v-6.15h-2.25v-.86h5.47v.86h-2.25v6.15zM194.49 534.39c0 .36-.06.7-.19 1-.13.3-.31.57-.53.79-.23.22-.5.39-.81.51-.31.12-.64.18-1 .18s-.69-.06-1-.18c-.31-.12-.58-.29-.8-.51-.22-.22-.4-.48-.53-.79-.13-.3-.19-.64-.19-1s.06-.69.19-1c.13-.3.31-.56.53-.78.22-.22.49-.39.8-.51.31-.12.64-.18 1-.18s.69.06 1 .18c.31.12.58.29.81.51s.41.48.53.78c.12.3.19.63.19 1zm-.97 0c0-.22-.03-.44-.1-.64s-.17-.38-.3-.54c-.13-.16-.3-.28-.49-.37-.2-.09-.42-.14-.67-.14s-.47.05-.67.14c-.2.09-.36.21-.49.37-.13.15-.23.33-.3.54-.07.2-.1.42-.1.64s.03.44.1.64.17.38.3.54c.13.16.3.28.49.38.2.09.42.14.67.14s.47-.05.67-.14c.2-.09.36-.22.49-.38s.23-.34.3-.54c.06-.2.1-.41.1-.64zM196.62 532.05c.01.12.02.25.03.4.01.15.01.27.01.37h.03c.06-.13.14-.24.24-.35a2 2 0 0 1 .35-.29c.13-.08.28-.15.44-.19.16-.05.32-.07.5-.07.3 0 .56.05.78.15.22.1.4.24.54.41s.25.37.32.6c.07.23.1.48.1.74v2.91h-.93v-2.6c0-.19-.01-.37-.04-.54-.03-.17-.08-.32-.16-.46s-.19-.24-.33-.32-.32-.12-.53-.12c-.37 0-.67.14-.91.42s-.35.65-.35 1.12v2.49h-.93v-3.68c0-.12 0-.29-.01-.49s-.02-.37-.03-.52h.88zM205.92 534.36v.16c0 .05 0 .11-.01.16h-3.73c.01.2.05.38.13.55.08.17.19.33.33.45a1.575 1.575 0 0 0 1.06.41c.32 0 .59-.07.82-.21.23-.14.41-.31.54-.5l.65.53c-.25.33-.55.58-.89.73-.34.16-.72.24-1.13.24-.36 0-.69-.06-.99-.18-.3-.12-.56-.29-.78-.5-.22-.21-.39-.47-.51-.78-.12-.3-.19-.64-.19-1.01 0-.36.06-.7.18-1 .12-.31.29-.57.51-.79.22-.22.48-.39.77-.51s.62-.18.96-.18.66.06.94.17.52.27.71.48c.2.21.35.47.45.77.13.29.18.63.18 1.01zm-.95-.38c-.01-.18-.04-.36-.09-.52-.06-.16-.14-.3-.25-.42-.11-.12-.24-.21-.41-.28-.16-.07-.35-.1-.57-.1-.2 0-.38.04-.56.1s-.33.16-.46.28c-.13.12-.23.26-.32.42-.08.16-.13.33-.14.52h2.8zM207.12 531.86a2.2 2.2 0 0 1 .67-1.59c.2-.2.44-.36.72-.48.27-.12.57-.18.88-.18.31 0 .6.06.88.18.27.12.51.28.72.48a2.2 2.2 0 0 1 .67 1.59 2.2 2.2 0 0 1-.67 1.58c-.21.2-.44.36-.72.48-.27.12-.57.17-.88.17-.31 0-.6-.06-.88-.17-.27-.12-.51-.27-.72-.48a2.2 2.2 0 0 1-.67-1.58zm.35 0a1.927 1.927 0 0 0 1.16 1.75c.23.1.48.15.74.15s.51-.05.74-.15a1.938 1.938 0 0 0 1.01-1.02c.1-.23.15-.48.15-.73 0-.26-.05-.51-.15-.74-.1-.23-.23-.43-.41-.6-.17-.17-.37-.31-.6-.41-.23-.1-.48-.15-.74-.15s-.51.05-.74.15c-.23.1-.43.23-.6.41-.17.17-.31.37-.41.6-.1.23-.15.48-.15.74zm2.45 1.24l-.54-.98h-.36v.98h-.6v-2.53h1.09a1.2 1.2 0 0 1 .66.17c.1.06.17.14.22.24.06.1.08.23.08.38 0 .17-.05.31-.14.42-.1.11-.22.2-.36.25l.67 1.07h-.72zm-.44-1.41c.09 0 .18-.03.25-.09.08-.06.11-.14.11-.24 0-.11-.04-.18-.13-.23a.495.495 0 0 0-.24-.07h-.46v.62h.47zM220.37 534.39c0 .36-.06.7-.19 1-.13.3-.31.57-.53.79-.23.22-.5.39-.81.51-.31.12-.64.18-1 .18s-.69-.06-1-.18c-.31-.12-.58-.29-.8-.51-.22-.22-.4-.48-.53-.79-.13-.3-.19-.64-.19-1s.06-.69.19-1c.13-.3.31-.56.53-.78.22-.22.49-.39.8-.51.31-.12.64-.18 1-.18s.69.06 1 .18c.31.12.58.29.81.51s.41.48.53.78c.12.3.19.63.19 1zm-.97 0c0-.22-.03-.44-.1-.64s-.17-.38-.3-.54c-.13-.16-.3-.28-.49-.37-.2-.09-.42-.14-.67-.14s-.47.05-.67.14c-.2.09-.36.21-.49.37-.13.15-.23.33-.3.54-.07.2-.1.42-.1.64s.03.44.1.64.17.38.3.54c.13.16.3.28.49.38.2.09.42.14.67.14s.47-.05.67-.14c.2-.09.36-.22.49-.38s.23-.34.3-.54c.06-.2.1-.41.1-.64zM222.5 532.05c.01.12.02.25.03.4.01.15.01.27.01.37h.03c.06-.13.14-.24.24-.35a2 2 0 0 1 .35-.29c.13-.08.28-.15.44-.19.16-.05.32-.07.5-.07.3 0 .56.05.78.15.22.1.4.24.54.41s.25.37.32.6c.07.23.1.48.1.74v2.91h-.93v-2.6c0-.19-.01-.37-.04-.54-.03-.17-.08-.32-.16-.46s-.19-.24-.33-.32-.32-.12-.53-.12c-.37 0-.67.14-.91.42s-.35.65-.35 1.12v2.49h-.93v-3.68c0-.12 0-.29-.01-.49s-.02-.37-.03-.52h.88zM230.86 532.76c.11-.23.3-.43.57-.59s.57-.25.91-.25c.3 0 .56.05.78.15.22.1.4.24.54.41.15.17.25.37.32.6.07.23.1.48.1.74v2.91h-.93v-2.6c0-.19-.02-.37-.04-.55s-.08-.32-.16-.46a.979.979 0 0 0-.32-.32c-.13-.08-.31-.12-.53-.12-.37 0-.67.14-.91.42-.24.28-.36.66-.36 1.13v2.49h-.93v-7.48h.93v3.5h.03zM236.76 530.36a.595.595 0 0 1-.62.6c-.17 0-.31-.06-.43-.17s-.18-.26-.18-.42c0-.17.06-.31.18-.43s.26-.17.43-.17c.17 0 .32.06.44.17.12.1.18.25.18.42zm-.15 6.38h-.93v-4.69h.93v4.69zM240.77 533.24a1.268 1.268 0 0 0-1.09-.58c-.11 0-.21.01-.32.04s-.2.06-.28.11c-.08.05-.15.11-.2.19-.05.08-.07.17-.07.28 0 .2.09.34.27.44.18.1.45.18.8.26.22.05.43.12.62.19s.36.16.5.27c.14.11.25.24.33.39s.12.33.12.53c0 .28-.05.51-.16.7-.11.19-.25.35-.42.47s-.38.21-.6.26c-.22.05-.46.08-.69.08-.36 0-.7-.07-1.04-.21s-.62-.35-.85-.63l.66-.56c.12.18.3.34.52.46a1.497 1.497 0 0 0 1.07.15c.11-.02.21-.06.3-.11s.16-.12.21-.21.08-.2.08-.33c0-.22-.1-.38-.31-.48s-.51-.21-.92-.3c-.16-.04-.32-.09-.48-.14-.16-.06-.31-.13-.44-.23s-.24-.22-.32-.37c-.08-.15-.12-.33-.12-.55 0-.25.05-.47.15-.65s.24-.33.4-.45.35-.2.56-.26c.21-.06.43-.08.65-.08.34 0 .66.07.97.2s.56.32.73.57l-.63.55zM94.01 544.12c0-.35-.11-.61-.32-.78-.21-.17-.49-.25-.84-.25a1.931 1.931 0 0 0-1.34.54l-.49-.59c.23-.22.51-.39.85-.51.33-.12.69-.19 1.07-.19.34 0 .63.05.88.14s.45.23.61.39c.16.17.28.36.36.58.08.22.12.46.12.72v2.05c0 .16 0 .33.01.5s.03.32.05.43h-.84c-.05-.22-.08-.45-.08-.67h-.03c-.17.25-.39.45-.65.58s-.57.21-.93.21c-.19 0-.38-.03-.58-.07-.2-.05-.38-.13-.55-.24s-.3-.26-.41-.45-.16-.41-.16-.68c0-.36.1-.64.29-.85.19-.21.44-.37.75-.47.31-.11.66-.18 1.05-.21s.78-.05 1.18-.05v-.13zm-.23.8c-.23 0-.47.01-.72.03-.25.02-.47.06-.67.12-.2.06-.37.15-.5.27-.13.12-.2.28-.2.48 0 .14.03.25.08.35.06.09.13.17.22.23s.19.1.31.12c.11.02.23.04.35.04.44 0 .77-.13 1-.39.23-.26.35-.59.35-.98v-.25h-.22zM97.37 546.42v.74h-.9v-7.48h.93v3.49h.03c.16-.23.38-.43.66-.59.28-.16.62-.24 1.01-.24.35 0 .67.06.95.19.29.12.53.3.74.52s.37.49.48.79a2.826 2.826 0 0 1 0 1.93c-.11.3-.27.57-.47.79s-.45.4-.74.53-.62.19-.98.19c-.34 0-.65-.07-.96-.22-.3-.15-.55-.37-.73-.65h-.02zm3.12-1.61c0-.22-.03-.43-.1-.63s-.17-.38-.3-.54c-.13-.16-.3-.28-.49-.38-.19-.09-.42-.14-.68-.14-.24 0-.45.05-.65.14a1.644 1.644 0 0 0-.82.92c-.08.2-.11.42-.11.64s.04.44.11.64.18.38.32.54a1.513 1.513 0 0 0 1.15.51c.26 0 .48-.05.68-.14.19-.1.36-.22.49-.38s.23-.34.3-.54.1-.42.1-.64zM106.49 546.42c-.18.28-.42.5-.73.65s-.63.22-.96.22c-.36 0-.69-.06-.98-.19-.29-.13-.54-.3-.74-.53-.2-.22-.36-.49-.48-.79a2.826 2.826 0 0 1 0-1.93c.11-.3.27-.56.48-.79s.46-.4.75-.52.61-.19.96-.19c.38 0 .72.08 1 .24.28.16.51.36.67.59h.02v-3.49h.93v7.48h-.9v-.74h-.02zm-3.09-1.61c0 .22.03.43.1.63s.17.38.3.54c.13.16.29.28.49.38.19.09.42.14.67.14.24 0 .45-.05.65-.14.19-.09.36-.22.5-.37.14-.16.25-.33.32-.54.08-.2.11-.42.11-.64s-.04-.44-.11-.64c-.08-.2-.18-.38-.32-.54a1.7 1.7 0 0 0-.5-.38c-.19-.09-.41-.14-.65-.14-.26 0-.48.05-.67.14-.19.09-.35.22-.49.38-.13.16-.23.34-.3.54-.07.21-.1.42-.1.64zM113.78 544.81c0 .36-.06.7-.19 1-.13.3-.31.57-.53.79-.23.22-.5.39-.81.51s-.64.18-1 .18-.69-.06-1-.18-.58-.29-.8-.51c-.22-.22-.4-.48-.53-.79-.13-.3-.19-.64-.19-1s.06-.69.19-1c.13-.3.31-.56.53-.78s.49-.39.8-.51.64-.18 1-.18.69.06 1 .18.58.29.81.51c.23.22.41.48.53.78.13.3.19.63.19 1zm-.97 0c0-.22-.03-.44-.1-.64s-.17-.38-.3-.54c-.13-.16-.3-.28-.49-.37-.2-.09-.42-.14-.67-.14s-.48.05-.67.14c-.2.09-.36.21-.49.37-.13.15-.23.33-.3.54-.07.2-.1.42-.1.64s.03.44.1.64.17.38.3.54c.13.16.3.28.49.38.2.09.42.14.67.14s.48-.05.67-.14c.19-.09.36-.22.49-.38s.23-.34.3-.54c.07-.2.1-.42.1-.64zM116.55 542.6c.26-.17.57-.26.93-.26.32 0 .6.07.86.22.25.15.45.39.6.72.16-.3.38-.54.66-.7.28-.16.59-.24.93-.24.3 0 .56.05.78.15.22.1.4.24.54.41.15.17.25.37.32.6.07.23.1.48.1.74v2.91h-.93v-2.6c0-.19-.02-.37-.05-.54-.03-.17-.09-.32-.17-.46s-.19-.24-.32-.32-.3-.12-.5-.12a1.03 1.03 0 0 0-.91.48c-.1.14-.16.3-.21.48-.04.18-.06.36-.06.54v2.53h-.93v-2.79c0-.18-.02-.35-.05-.5a.987.987 0 0 0-.17-.39.88.88 0 0 0-.31-.26c-.12-.06-.28-.09-.46-.09-.34 0-.63.14-.86.42-.23.28-.34.65-.34 1.12v2.49h-.93v-3.68c0-.12 0-.29-.01-.49s-.02-.37-.03-.52h.88c.01.12.02.25.03.4.01.15.01.27.01.37h.03c.12-.23.31-.44.57-.62zM128.23 544.78v.16c0 .05 0 .11-.01.16h-3.73c.01.2.05.38.13.55.08.17.19.33.33.45a1.575 1.575 0 0 0 1.06.41c.32 0 .59-.07.82-.21s.41-.31.54-.5l.65.53c-.25.33-.55.58-.89.73-.34.16-.72.24-1.13.24-.36 0-.69-.06-.99-.18-.3-.12-.56-.29-.78-.5-.22-.21-.39-.47-.51-.78-.13-.3-.19-.64-.19-1.01 0-.36.06-.7.18-1 .12-.31.29-.57.51-.79s.48-.39.77-.51c.3-.12.62-.18.96-.18s.66.06.94.17c.28.11.52.27.71.48.19.21.35.47.45.77.13.29.18.63.18 1.01zm-.95-.38c-.01-.18-.04-.36-.09-.52-.06-.16-.14-.3-.25-.42-.11-.12-.24-.21-.41-.28s-.35-.1-.57-.1c-.2 0-.38.04-.56.1s-.33.16-.46.28c-.13.12-.23.26-.32.42-.08.16-.13.33-.14.52h2.8zM130.36 542.47c.01.12.02.25.03.4.01.15.01.27.01.37h.03c.06-.13.14-.24.24-.35a2 2 0 0 1 .35-.29c.13-.08.28-.15.44-.19.16-.05.32-.07.49-.07.3 0 .56.05.78.15.22.1.4.24.54.41s.25.37.32.6c.07.23.1.48.1.74v2.91h-.93v-2.6c0-.19-.01-.37-.04-.54-.03-.17-.08-.32-.16-.46s-.19-.24-.33-.32-.32-.12-.53-.12c-.37 0-.67.14-.91.42-.23.28-.35.65-.35 1.12v2.49h-.93v-3.68c0-.12 0-.29-.01-.49s-.02-.37-.03-.52h.89zM136.43 546.57c0 .17-.06.32-.19.46s-.28.2-.48.2c-.18 0-.34-.06-.47-.19a.613.613 0 0 1-.19-.45c0-.18.06-.33.19-.46s.28-.19.48-.19a.633.633 0 0 1 .66.63zM141.06 547.16h-.98v-7.01h2.25c.34 0 .66.03.96.1.3.07.57.18.8.33.23.15.41.35.54.6.13.25.2.55.2.91 0 .51-.16.93-.48 1.25-.32.32-.73.52-1.23.6l1.96 3.22h-1.19l-1.78-3.12h-1.05v3.12zm0-3.94h1.13c.23 0 .45-.02.64-.06.2-.04.37-.1.52-.19s.27-.2.35-.35c.09-.14.13-.32.13-.53s-.04-.39-.13-.53-.2-.26-.34-.34c-.14-.09-.31-.15-.5-.18s-.39-.05-.6-.05h-1.2v2.23zM150.37 544.78v.16c0 .05 0 .11-.01.16h-3.73c.01.2.05.38.13.55.08.17.19.33.33.45a1.575 1.575 0 0 0 1.06.41c.32 0 .59-.07.82-.21.23-.14.41-.31.54-.5l.65.53c-.25.33-.55.58-.89.73-.34.16-.72.24-1.13.24-.36 0-.69-.06-.99-.18-.3-.12-.56-.29-.78-.5-.22-.21-.39-.47-.51-.78-.13-.3-.19-.64-.19-1.01 0-.36.06-.7.18-1 .12-.31.29-.57.51-.79.22-.22.48-.39.77-.51s.62-.18.96-.18.66.06.94.17.52.27.71.48c.2.21.35.47.45.77.13.29.18.63.18 1.01zm-.95-.38c-.01-.18-.04-.36-.09-.52-.06-.16-.14-.3-.25-.42-.11-.12-.24-.21-.41-.28-.16-.07-.35-.1-.57-.1-.2 0-.38.04-.56.1s-.33.16-.46.28c-.13.12-.23.26-.32.42-.08.16-.13.33-.14.52h2.8zM154.19 543.66a1.268 1.268 0 0 0-1.09-.58c-.11 0-.21.01-.32.04s-.2.06-.28.11c-.08.05-.15.11-.2.19-.05.08-.07.17-.07.28 0 .2.09.34.27.44.18.1.45.18.8.26.22.05.43.12.62.19s.36.16.5.27c.14.11.25.24.33.39s.12.33.12.53c0 .28-.05.51-.16.7-.11.19-.25.35-.42.47s-.38.21-.6.26c-.22.05-.46.08-.69.08-.36 0-.7-.07-1.04-.21s-.62-.35-.85-.63l.66-.56c.12.18.3.34.52.46a1.497 1.497 0 0 0 1.07.15c.11-.02.21-.06.3-.11s.16-.12.21-.21.08-.2.08-.33c0-.22-.1-.38-.31-.48s-.51-.21-.92-.3c-.16-.04-.32-.09-.48-.14-.16-.06-.31-.13-.44-.23s-.24-.22-.32-.37c-.08-.15-.12-.33-.12-.55 0-.25.05-.47.15-.65s.24-.33.4-.45.35-.2.56-.26c.21-.06.43-.08.65-.08.34 0 .66.07.97.2s.56.32.73.57l-.63.55zM159.36 547.16c-.01-.12-.02-.25-.03-.4-.01-.15-.01-.27-.01-.37h-.02c-.12.25-.32.46-.6.64s-.59.26-.94.26c-.3 0-.57-.05-.79-.15-.22-.1-.4-.24-.54-.41s-.25-.38-.32-.61c-.07-.23-.1-.48-.1-.74v-2.91h.93v2.59c0 .19.01.38.04.55.03.17.08.33.16.46s.19.24.33.32c.14.08.32.12.54.12.38 0 .68-.14.91-.42.23-.28.35-.65.35-1.12v-2.49h.93v3.68c0 .13 0 .29.01.49s.02.37.03.52h-.88zM162.76 547.16h-.93v-7.48h.93v7.48zM166.68 543.23h-1.25v2.44c0 .28.05.49.16.61s.27.18.5.18c.09 0 .18-.01.28-.03.1-.02.19-.05.27-.08l.03.76c-.11.04-.24.07-.37.09-.14.02-.28.03-.42.03-.44 0-.78-.12-1.01-.37-.23-.24-.35-.61-.35-1.1v-2.54h-.9v-.76h.9v-1.35h.92v1.35h1.25v.77zM170.17 543.66a1.268 1.268 0 0 0-1.09-.58c-.11 0-.21.01-.32.04s-.2.06-.28.11c-.08.05-.15.11-.2.19-.05.08-.07.17-.07.28 0 .2.09.34.27.44.18.1.45.18.8.26.22.05.43.12.62.19s.36.16.5.27c.14.11.25.24.33.39s.12.33.12.53c0 .28-.05.51-.16.7-.11.19-.25.35-.42.47s-.38.21-.6.26c-.22.05-.46.08-.69.08-.36 0-.7-.07-1.04-.21s-.62-.35-.85-.63l.66-.56c.12.18.3.34.52.46a1.497 1.497 0 0 0 1.07.15c.11-.02.21-.06.3-.11s.16-.12.21-.21.08-.2.08-.33c0-.22-.1-.38-.31-.48s-.51-.21-.92-.3c-.16-.04-.32-.09-.48-.14-.16-.06-.31-.13-.44-.23s-.24-.22-.32-.37c-.08-.15-.12-.33-.12-.55 0-.25.05-.47.15-.65s.24-.33.4-.45.35-.2.56-.26c.21-.06.43-.08.65-.08.34 0 .66.07.97.2s.56.32.73.57l-.63.55zM175.99 542.6c.26-.17.57-.26.93-.26.32 0 .6.07.86.22.25.15.45.39.6.72.16-.3.38-.54.66-.7.28-.16.59-.24.93-.24.3 0 .56.05.78.15.22.1.4.24.54.41.15.17.25.37.32.6.07.23.1.48.1.74v2.91h-.93v-2.6c0-.19-.02-.37-.05-.54-.03-.17-.09-.32-.17-.46s-.18-.24-.32-.32-.3-.12-.5-.12a1.03 1.03 0 0 0-.91.48c-.1.14-.17.3-.21.48-.04.18-.06.36-.06.54v2.53h-.93v-2.79c0-.18-.02-.35-.05-.5a.987.987 0 0 0-.17-.39.88.88 0 0 0-.31-.26c-.12-.06-.28-.09-.46-.09-.34 0-.63.14-.86.42s-.34.65-.34 1.12v2.49h-.93v-3.68c0-.12 0-.29-.01-.49s-.02-.37-.03-.52h.88c.01.12.02.25.03.4.01.15.01.27.01.37h.03c.12-.23.31-.44.57-.62zM186.21 544.12c0-.35-.11-.61-.32-.78-.21-.17-.49-.25-.84-.25a1.931 1.931 0 0 0-1.34.54l-.5-.59c.23-.22.51-.39.85-.51.33-.12.69-.19 1.07-.19.34 0 .63.05.88.14s.45.23.61.39.28.36.36.58c.08.22.12.46.12.72v2.05c0 .16 0 .33.01.5s.03.32.05.43h-.84c-.05-.22-.08-.45-.08-.67h-.03c-.17.25-.39.45-.65.58s-.57.21-.93.21c-.18 0-.38-.03-.58-.07-.2-.05-.38-.13-.55-.24s-.3-.26-.41-.45c-.11-.18-.16-.41-.16-.68 0-.36.1-.64.29-.85.19-.21.44-.37.75-.47.31-.11.66-.18 1.05-.21s.78-.05 1.18-.05v-.13zm-.23.8c-.23 0-.47.01-.72.03-.25.02-.47.06-.67.12-.2.06-.37.15-.5.27-.13.12-.2.28-.2.48 0 .14.03.25.08.35.06.09.13.17.22.23s.2.1.31.12c.11.02.23.04.35.04.44 0 .77-.13 1-.39s.35-.59.35-.98v-.25h-.22zM190.43 546.15h.02l1.3-3.68h.99l-2.28 5.8c-.08.2-.17.37-.26.53s-.2.29-.33.4c-.13.11-.27.19-.44.25-.17.06-.37.09-.6.09-.1 0-.2 0-.3-.01-.1-.01-.21-.03-.31-.05l.09-.82c.16.05.31.08.47.08.24 0 .42-.07.54-.2.12-.14.23-.33.33-.58l.3-.78-2.01-4.69h1.04l1.45 3.66zM198.32 547.16h-1.01l-1.91-4.69h1.03l1.38 3.69h.02l1.39-3.69h.99l-1.89 4.69zM204.02 544.12c0-.35-.11-.61-.32-.78-.21-.17-.49-.25-.84-.25a1.931 1.931 0 0 0-1.34.54l-.5-.59c.23-.22.51-.39.85-.51.33-.12.69-.19 1.07-.19.34 0 .63.05.88.14s.45.23.61.39.28.36.36.58c.08.22.12.46.12.72v2.05c0 .16 0 .33.01.5s.03.32.05.43h-.84c-.05-.22-.08-.45-.08-.67h-.03c-.17.25-.39.45-.65.58s-.57.21-.93.21c-.18 0-.38-.03-.58-.07-.2-.05-.38-.13-.55-.24s-.3-.26-.41-.45c-.11-.18-.16-.41-.16-.68 0-.36.1-.64.29-.85.19-.21.44-.37.75-.47.31-.11.66-.18 1.05-.21s.78-.05 1.18-.05v-.13zm-.22.8c-.23 0-.47.01-.72.03-.25.02-.47.06-.67.12-.2.06-.37.15-.5.27-.13.12-.2.28-.2.48 0 .14.03.25.08.35.06.09.13.17.22.23s.2.1.31.12c.11.02.23.04.35.04.44 0 .77-.13 1-.39s.35-.59.35-.98v-.25h-.22zM206.46 542.99c-.01-.2-.02-.37-.03-.52h.88c.01.12.02.26.03.41.01.16.01.28.01.38h.03c.13-.28.33-.5.58-.67s.54-.25.86-.25c.14 0 .27.01.37.04l-.04.86a1.86 1.86 0 0 0-.42-.05c-.22 0-.42.04-.58.12-.17.08-.3.19-.41.33-.11.14-.19.3-.24.48s-.08.37-.08.57v2.46h-.93v-3.68c-.02-.12-.03-.28-.03-.48zM211.83 546.15h.02l1.3-3.68h.99l-2.28 5.8c-.08.2-.17.37-.26.53s-.2.29-.33.4c-.13.11-.27.19-.44.25-.17.06-.37.09-.6.09-.1 0-.2 0-.3-.01-.1-.01-.21-.03-.31-.05l.09-.82c.16.05.31.08.47.08.24 0 .42-.07.54-.2.12-.14.23-.33.33-.58l.3-.78-2.01-4.69h1.04l1.45 3.66zM215.83 546.57c0 .17-.06.32-.19.46s-.28.2-.47.2c-.19 0-.34-.06-.47-.19s-.19-.28-.19-.45c0-.18.06-.33.19-.46s.28-.19.48-.19c.19 0 .35.06.47.19.12.11.18.26.18.44z"/></svg>