<svg id="Layer_1" xmlns="http://www.w3.org/2000/svg" viewBox="0 0 300 600"><style>.st0{fill:#fff}</style><path class="st0" d="M136.16 50.97c-2.06 0-3.05-1.49-3.05-2.93 0-1.66 1.2-2.99 3.09-2.99.64 0 1.3.2 1.83.64l-.58.81c-.36-.28-.75-.38-1.21-.38-1 0-1.75.7-1.75 1.89 0 1.09.69 1.96 1.78 1.96.47 0 .87-.14 1.23-.45l.54.81c-.51.43-1.21.64-1.88.64M141.21 50.97c-1.72 0-2.99-1.3-2.99-2.99 0-1.74 1.39-2.93 2.99-2.93 1.61 0 3.01 1.18 3.01 2.92-.01 1.7-1.28 3-3.01 3m1.62-2.99c0-1.04-.51-1.95-1.62-1.95-1.08 0-1.62.9-1.62 1.93 0 1.07.5 2.02 1.62 2.02s1.62-.94 1.62-2.02v.02zM147.71 50.97c-1.72 0-2.99-1.3-2.99-2.99 0-1.74 1.39-2.93 2.99-2.93 1.61 0 3.01 1.18 3.01 2.92-.01 1.7-1.28 3-3.01 3m1.62-2.99c0-1.04-.51-1.95-1.62-1.95-1.08 0-1.62.9-1.62 1.93 0 1.07.5 2.02 1.62 2.02s1.62-.94 1.62-2.02v.02zM151.39 50.83v-8.29l1.29.7v7.59zM155.67 51c-1.46 0-2.16-.69-2.16-.69l.58-.75s.66.44 1.54.44c.42 0 .77-.29.77-.58s-.13-.53-.51-.73c-.38-.2-.82-.41-1.15-.57-.34-.16-1.08-.66-1.08-1.63 0-.98 1-1.53 2.03-1.53.98 0 1.72.64 1.72.64l-.5.76s-.56-.39-1.18-.39-.75.39-.75.56c0 .16.06.42.45.63.4.21.8.43 1.39.75.58.32.91.88.91 1.51 0 .61-.61 1.58-2.06 1.58M161.22 50.97c-2.06 0-3.05-1.49-3.05-2.93 0-1.66 1.2-2.99 3.09-2.99.64 0 1.3.2 1.83.64l-.58.81c-.36-.28-.75-.38-1.21-.38-1 0-1.75.7-1.75 1.89 0 1.09.69 1.96 1.78 1.96.47 0 .87-.14 1.24-.45l.54.81c-.53.43-1.22.64-1.89.64M167.59 50.17s-.65.8-1.89.8c-1.46 0-2.17-1.05-2.17-2.12v-3.67h1.29v3.61c0 .63.49 1.15 1.25 1.15.66 0 1.32-.79 1.32-.79v-3.97h1.29v5.64l-1.09-.65zM169.84 50.83v-8.29l1.3.7v7.59zM175.41 50.97c-1.14 0-1.79-.64-1.79-.64v2.81h-1.3v-8.08l1.3.68s.7-.71 1.86-.71c1.22 0 2.75.94 2.75 3.03 0 2.11-1.5 2.91-2.82 2.91m-.08-4.93c-1.11 0-1.75 1.03-1.75 1.03v2.13s.73.82 1.79.82c1.23 0 1.5-1.47 1.5-1.98.01-.51-.11-2-1.54-2M181.63 50.98h-.82c-1.03 0-1.37-.98-1.37-1.63v-3.32h-1.03v-.85h1.03v-2.49h1.28v2.49h1.32v.85h-1.3v3.01c0 .34-.06.87.51.87h.93l-.55 1.07zM183.71 44.21a.85.85 0 1 1 .85-.85c0 .46-.39.85-.85.85m-.65.97h1.27v5.65h-1.27v-5.65zM189.46 50.83v-3.61c0-.63-.49-1.15-1.25-1.15-.66 0-1.41.79-1.41.79v3.97h-1.29v-5.64l1.1.65s.75-.8 1.98-.8c1.46 0 2.17 1.05 2.17 2.12v3.67h-1.3zM194.7 53.46c-.2 0-1.71-.02-1.71-.02l.02-1.03h1.27c1.23 0 1.93-.66 1.93-1.56v-.51s-.68.64-1.82.64c-1.32 0-2.82-.8-2.82-2.9 0-2.1 1.53-3.03 2.75-3.03 1.16 0 1.86.71 1.86.71l1.3-.65v5.62c.02 1.5-.99 2.73-2.78 2.73m1.53-6.39s-.64-1.03-1.75-1.03c-1.43 0-1.55 1.49-1.55 2s.27 1.98 1.5 1.98c1.06 0 1.79-.82 1.79-.82v-2.13zM120.02 48.26l-2.38 2.37 2.91 1.09 3.48-3.46zM124.37 43.45L122 41.1l-1.1 2.88 3.47 3.46zM128.68 44.32l3.18.83-2.65 2.63h-4.01zM128.47 52.19l-.91 3.09-4.95-4.92 2-2zM199.43 45.56c0 .33-.27.6-.61.6-.34 0-.62-.27-.62-.6 0-.33.27-.6.62-.6.34.01.61.27.61.6zm-1.08 0a.466.466 0 1 0 .93.01c0-.27-.2-.48-.46-.48-.27 0-.47.21-.47.47zm.37.31h-.14v-.6c.05-.01.13-.02.23-.02.11 0 .16.02.21.05.04.03.06.07.06.13 0 .07-.05.12-.12.14v.01c.06.02.09.07.11.15.02.09.03.12.04.15h-.15c-.02-.02-.03-.07-.05-.15-.01-.06-.05-.09-.12-.09h-.07v.23zm0-.33h.07c.08 0 .14-.03.14-.09 0-.05-.04-.09-.13-.09-.04 0-.06 0-.08.01v.17z"/><g><path class="st0" d="M121.53 55.12v-3.7l.73-.72 2.11 2.09v.7zM121.19 44.96h-3.06l.98 2.82h4.92zM131.54 51.08h-3.51l-2.83-2.82h4.92zM124.86 42.55l2.83-1.68v3.75l-2.83 2.82zM129.84 52.39c0 .23-.19.42-.43.42s-.43-.18-.43-.42c0-.23.19-.41.43-.41.25 0 .43.18.43.41zm-.74 0c0 .18.14.33.32.33s.32-.15.32-.33c0-.18-.14-.33-.32-.33s-.32.15-.32.33zm.25.22h-.1v-.41c.04 0 .09-.01.16-.01.08 0 .11.01.14.03.03.02.04.05.04.09 0 .05-.04.08-.09.1.04.01.06.05.07.1.01.06.02.09.03.1h-.1a.295.295 0 0 1-.03-.1c-.01-.04-.03-.06-.09-.06h-.05v.16zm.01-.24h.05c.05 0 .1-.02.1-.06 0-.04-.03-.06-.09-.06h-.05v.12z"/></g><g><path class="st0" d="M106.62 45.35h.51v2.82h.02a1.475 1.475 0 0 1 .65-.54c.12-.06.25-.1.38-.12.13-.03.26-.04.38-.04.28 0 .54.05.78.14.24.1.44.23.61.4.17.17.3.37.4.6.1.23.14.48.14.76 0 .27-.05.52-.14.76-.1.23-.23.43-.4.6-.17.17-.37.3-.61.4-.24.1-.5.14-.78.14-.12 0-.24-.01-.38-.04-.13-.03-.26-.07-.38-.12a2.32 2.32 0 0 1-.36-.22c-.11-.09-.21-.19-.29-.32h-.02v.6h-.51v-5.82zm3.31 4.02c0-.2-.03-.39-.1-.56-.06-.17-.16-.33-.28-.45-.12-.13-.26-.23-.43-.3-.17-.07-.36-.11-.57-.11a1.465 1.465 0 0 0-1.04.41c-.13.13-.23.28-.3.45a1.471 1.471 0 0 0 0 1.12c.07.17.17.33.3.45.13.13.28.23.46.3a1.575 1.575 0 0 0 1.15 0c.17-.07.31-.18.43-.3a1.467 1.467 0 0 0 .38-1.01zM112.7 50.55l1.11-2.98h.62l-1.81 4.55c-.11.28-.25.5-.42.66-.17.16-.41.25-.72.25-.08 0-.16 0-.24-.01-.08-.01-.16-.02-.24-.05l.05-.49c.11.06.24.08.39.08.18 0 .32-.06.43-.17.1-.11.19-.27.27-.48l.26-.69-1.49-3.65h.64l1.15 2.98z"/></g><g><path class="st0" d="M116.72 34.14c-1.11.97-2.49 1.45-4.13 1.45-2.14 0-3.83-.69-5.06-2.08-1.11-1.25-1.67-2.76-1.67-4.53 0-1.89.62-3.48 1.87-4.76 1.25-1.28 2.9-1.93 4.96-1.93 1.57 0 2.91.48 4.01 1.43l-1.28 1.8c-.74-.56-1.63-.83-2.67-.83-1.13 0-2.05.38-2.76 1.14-.71.76-1.07 1.79-1.07 3.09 0 1.27.36 2.31 1.07 3.15.71.83 1.66 1.25 2.84 1.25 1.03 0 1.94-.33 2.75-.99l1.14 1.81zM130.08 28.85c0 1.93-.63 3.53-1.89 4.82-1.26 1.28-2.84 1.92-4.74 1.92-1.9 0-3.48-.64-4.73-1.92-1.25-1.28-1.88-2.89-1.88-4.82 0-1.89.66-3.47 1.98-4.74 1.27-1.21 2.81-1.82 4.62-1.82 1.82 0 3.37.61 4.65 1.82 1.33 1.27 1.99 2.84 1.99 4.74zm-3.06 0c0-1.23-.29-2.24-.87-3.04-.65-.87-1.55-1.3-2.7-1.3s-2.04.43-2.67 1.3c-.58.8-.87 1.81-.87 3.04 0 1.3.28 2.36.85 3.17.63.9 1.53 1.35 2.7 1.35 1.16 0 2.07-.45 2.72-1.35.56-.82.84-1.87.84-3.17zM144.28 28.85c0 1.93-.63 3.53-1.89 4.82-1.26 1.28-2.84 1.92-4.74 1.92-1.9 0-3.48-.64-4.73-1.92-1.25-1.28-1.88-2.89-1.88-4.82 0-1.89.66-3.47 1.98-4.74 1.27-1.21 2.81-1.82 4.62-1.82 1.82 0 3.37.61 4.65 1.82 1.33 1.27 1.99 2.84 1.99 4.74zm-3.06 0c0-1.23-.29-2.24-.87-3.04-.65-.87-1.55-1.3-2.7-1.3-1.15 0-2.04.43-2.67 1.3-.58.8-.87 1.81-.87 3.04 0 1.3.28 2.36.85 3.17.63.9 1.53 1.35 2.7 1.35 1.16 0 2.07-.45 2.72-1.35.56-.82.84-1.87.84-3.17zM148.64 35.3h-2.85V16.63l2.85 1.59V35.3zM170.43 28.85c0 1.93-.63 3.53-1.89 4.82-1.26 1.28-2.84 1.92-4.74 1.92-1.9 0-3.48-.64-4.73-1.92-1.25-1.28-1.88-2.89-1.88-4.82 0-1.89.66-3.47 1.98-4.74 1.27-1.21 2.81-1.82 4.62-1.82 1.82 0 3.37.61 4.65 1.82 1.33 1.27 1.99 2.84 1.99 4.74zm-3.06 0c0-1.23-.29-2.24-.87-3.04-.65-.87-1.55-1.3-2.7-1.3-1.15 0-2.04.43-2.67 1.3-.58.8-.87 1.81-.87 3.04 0 1.3.28 2.36.85 3.17.63.9 1.53 1.35 2.7 1.35 1.16 0 2.07-.45 2.72-1.35.56-.82.84-1.87.84-3.17zM183.4 35.3h-2.85v-8.12c0-.73-.25-1.34-.76-1.83-.5-.49-1.17-.74-1.99-.74-.91 0-1.94.59-3.11 1.77v8.92h-2.85V22.6l2.41 1.46c1.23-1.2 2.69-1.8 4.37-1.8 1.51 0 2.71.5 3.6 1.49.79.89 1.18 1.98 1.18 3.29v8.26zM197.32 29.54h-9.12c.34 2.59 1.56 3.88 3.65 3.88 1.28 0 2.34-.36 3.16-1.1l1.13 1.85c-1.1 1.01-2.55 1.51-4.37 1.51-2.52 0-4.36-.95-5.52-2.84-.72-1.16-1.08-2.36-1.08-3.6 0-1.51.29-2.83.87-3.94 1.04-2.03 2.9-3.05 5.57-3.05 2.64 0 4.37 1.21 5.21 3.62.37 1.04.53 2.26.5 3.67zm-2.88-1.88c-.1-2.24-1.06-3.36-2.88-3.36-2 0-3.11 1.12-3.31 3.36h6.19zM154.81 33.21c-.55 0-.89-.23-1.03-.7-.07-.19-.1-.61-.1-1.25v-5.29h1.98v-1.9h-1.98v-3.03l-2.85-1.59v12.52c0 .9.22 1.69.67 2.37.55.87 1.34 1.3 2.36 1.3h1.8l1.21-2.42h-2.06z"/><g><path class="st0" d="M200.59 23.62c0 .75-.61 1.35-1.38 1.35-.77 0-1.39-.6-1.39-1.35 0-.75.62-1.34 1.4-1.34.76 0 1.37.59 1.37 1.34zm-2.43 0c0 .6.45 1.07 1.05 1.07.58.01 1.03-.47 1.03-1.06 0-.6-.44-1.08-1.04-1.08-.58 0-1.04.48-1.04 1.07zm.83.69h-.31v-1.34c.12-.02.3-.04.52-.04.26 0 .37.04.46.11.08.06.14.16.14.29 0 .16-.12.27-.28.32v.02c.13.04.2.15.24.33.04.2.07.28.1.33h-.33c-.04-.05-.07-.16-.11-.33-.02-.14-.11-.2-.28-.2h-.15v.51zm.01-.75h.15c.17 0 .31-.06.31-.2 0-.12-.09-.2-.29-.2-.08 0-.14.01-.17.02v.38z"/></g></g></svg>