<?xml version="1.0" encoding="utf-8"?>
<!-- Generator: Adobe Illustrator 25.2.1, SVG Export Plug-In . SVG Version: 6.00 Build 0)  -->
<svg version="1.1" id="Layer_1" xmlns="http://www.w3.org/2000/svg" xmlns:xlink="http://www.w3.org/1999/xlink" x="0px" y="0px"
	 viewBox="0 0 160 600" style="enable-background:new 0 0 160 600;" xml:space="preserve">
<style type="text/css">
	.st0{fill:#EAF5FB;}
</style>
<g>
	<path class="st0" d="M29.36,85.75v-3.6h1.73v3.28c0,1.7,0.48,2.38,1.67,2.38c1.22,0,1.7-0.69,1.7-2.38v-3.1
		c0-1.4-0.39-2.08-1.4-2.74l-1.58-1.01c-1.52-0.98-2.11-2.11-2.11-4.11v-2.65c0-2.26,1.22-3.54,3.34-3.54s3.34,1.28,3.34,3.54v2.65
		h-1.73V72.1c0-1.61-0.45-2.23-1.58-2.23s-1.58,0.63-1.58,2.23v2.23c0,1.4,0.39,2.08,1.4,2.74l1.58,1.01
		c1.52,0.98,2.11,2.11,2.11,4.11v3.54c0,2.35-1.28,3.66-3.46,3.66S29.36,88.1,29.36,85.75z"/>
	<path class="st0" d="M41.19,70.11h-2.5v-1.55h6.79v1.55h-2.5v19h-1.79V70.11z"/>
	<path class="st0" d="M48.39,68.56h3.31c2.38,0,3.51,1.22,3.51,3.72v2.62c0,1.67-0.54,2.68-1.61,3.16v0.06
		c1.07,0.48,1.61,1.49,1.61,3.19v7.8h-1.79v-7.68c0-1.91-0.54-2.47-2.23-2.47h-1.01v10.16h-1.79V68.56z M51.49,77.41
		c1.49,0,1.94-0.57,1.94-2.47v-2.35c0-1.91-0.45-2.47-1.94-2.47h-1.31v7.3H51.49z"/>
	<path class="st0" d="M58.7,68.56h5.9v1.55h-4.11v7.18h3.57v1.55h-3.57v8.73h4.11v1.55h-5.9V68.56z"/>
	<path class="st0" d="M67.63,68.56h2.32L73.2,83.6h0.06V68.56h1.61v20.55h-1.94L69.3,72.16h-0.06v16.95h-1.61V68.56z"/>
	<path class="st0" d="M78.38,86.19V71.96c0-2.35,1.28-3.69,3.43-3.69c2.17,0,3.4,1.34,3.4,3.69v2.26h-1.7v-1.94
		c0-1.73-0.48-2.41-1.67-2.41c-1.22,0-1.67,0.69-1.67,2.41v13.7c0,1.22,0.45,1.82,1.43,1.82c1.22,0,1.91-0.92,1.91-2.59v-5.9h-1.67
		v-1.55h3.46v11.35h-1.52v-1.46h-0.09c-0.48,1.13-1.34,1.76-2.56,1.76C79.4,89.41,78.38,88.19,78.38,86.19z"/>
	<path class="st0" d="M90.44,70.11h-2.5v-1.55h6.79v1.55h-2.5v19h-1.79V70.11z"/>
	<path class="st0" d="M97.65,68.56h1.79v8.73h3.37v-8.73h1.79v20.55h-1.79V78.84h-3.37v10.28h-1.79V68.56z"/>
	<path class="st0" d="M108.22,68.56h5.9v1.55h-4.11v7.18h3.57v1.55h-3.57v8.73h4.11v1.55h-5.9V68.56z"/>
	<path class="st0" d="M117.16,68.56h2.32l3.25,15.04h0.06V68.56h1.61v20.55h-1.94l-3.63-16.95h-0.06v16.95h-1.61V68.56z"/>
	<path class="st0" d="M128.71,89.11H128v-2.44h2.03v2.14l-1.31,3.31h-1.04L128.71,89.11z"/>
	<path class="st0" d="M42.71,100.88h-2.5v-1.55h6.79v1.55h-2.5v19h-1.79V100.88z"/>
	<path class="st0" d="M49.26,116.46v-13.7c0-2.38,1.28-3.72,3.46-3.72s3.46,1.34,3.46,3.72v13.7c0,2.38-1.28,3.72-3.46,3.72
		S49.26,118.84,49.26,116.46z M54.38,116.16v-13.11c0-1.73-0.48-2.41-1.67-2.41c-1.22,0-1.67,0.69-1.67,2.41v13.11
		c0,1.73,0.45,2.41,1.67,2.41C53.9,118.57,54.38,117.89,54.38,116.16z"/>
	<path class="st0" d="M59.38,99.33h2.32l3.25,15.04h0.06V99.33h1.61v20.55h-1.94l-3.63-16.95h-0.06v16.95h-1.61V99.33z"/>
	<path class="st0" d="M69.95,99.33h5.9v1.55h-4.11v7.18h3.57v1.55h-3.57v8.73h4.11v1.55h-5.9V99.33z"/>
	<path class="st0" d="M79.57,119.89h-0.71v-2.44h2.03v2.14l-1.31,3.31h-1.04L79.57,119.89z"/>
	<path class="st0" d="M90.89,99.33h2.35l2.59,20.55h-1.82l-0.6-5.09h-2.8l-0.6,5.09H88.3L90.89,99.33z M93.24,113.24l-1.19-11.08
		h-0.06l-1.19,11.08H93.24z"/>
	<path class="st0" d="M98.48,99.33h2.32l3.25,15.04h0.06V99.33h1.61v20.55h-1.94l-3.63-16.95h-0.06v16.95h-1.61V99.33z"/>
	<path class="st0" d="M109.06,99.33h3.39c2.38,0,3.52,1.22,3.52,3.72v13.11c0,2.5-1.13,3.72-3.52,3.72h-3.39V99.33z M112.24,118.34
		c1.49,0,1.94-0.57,1.94-2.47v-12.51c0-1.91-0.45-2.47-1.94-2.47h-1.4v17.45H112.24z"/>
	<path class="st0" d="M22.28,130.11h5.9v1.55h-4.11v7.48h3.57v1.55h-3.57v9.98h-1.79V130.11z"/>
	<path class="st0" d="M30.79,130.11h1.79v20.55h-1.79V130.11z"/>
	<path class="st0" d="M35.92,130.11h3.31c2.38,0,3.51,1.22,3.51,3.72v2.62c0,1.67-0.54,2.68-1.61,3.16v0.06
		c1.07,0.48,1.61,1.49,1.61,3.19v7.8h-1.79v-7.68c0-1.91-0.54-2.47-2.23-2.47H37.7v10.16h-1.79V130.11z M39.01,138.95
		c1.49,0,1.94-0.57,1.94-2.47v-2.35c0-1.91-0.45-2.47-1.94-2.47H37.7v7.3H39.01z"/>
	<path class="st0" d="M45.92,130.11h2.83l2.29,15.16h0.06l2.29-15.16h2.95v20.55h-1.79v-18.38H54.5l-2.77,18.38h-1.4l-2.77-18.38
		H47.5v18.38h-1.58V130.11z"/>
	<path class="st0" d="M64.45,130.11h2.83l2.29,15.16h0.06l2.29-15.16h2.95v20.55h-1.79v-18.38h-0.06l-2.77,18.38h-1.4l-2.77-18.38
		h-0.06v18.38h-1.58V130.11z"/>
	<path class="st0" d="M78.14,147.35v-17.25h1.79v16.92c0,1.67,0.42,2.32,1.61,2.32s1.61-0.66,1.61-2.32v-16.92h1.73v17.25
		c0,2.29-1.25,3.6-3.37,3.6C79.4,150.96,78.14,149.65,78.14,147.35z"/>
	<path class="st0" d="M87.82,147.29v-3.6h1.73v3.28c0,1.7,0.48,2.38,1.67,2.38c1.22,0,1.7-0.69,1.7-2.38v-3.1
		c0-1.4-0.39-2.08-1.4-2.74l-1.58-1.01c-1.52-0.98-2.11-2.11-2.11-4.11v-2.65c0-2.26,1.22-3.54,3.34-3.54s3.34,1.28,3.34,3.54V136
		h-1.73v-2.35c0-1.61-0.45-2.23-1.58-2.23c-1.13,0-1.58,0.63-1.58,2.23v2.23c0,1.4,0.39,2.08,1.4,2.74l1.58,1.01
		c1.52,0.98,2.11,2.11,2.11,4.11v3.54c0,2.35-1.28,3.66-3.46,3.66C89.07,150.96,87.82,149.65,87.82,147.29z"/>
	<path class="st0" d="M97.53,147.41v-14.06c0-2.26,1.19-3.54,3.34-3.54c2.17,0,3.37,1.28,3.37,3.54v3.37h-1.7v-3.07
		c0-1.61-0.48-2.23-1.61-2.23c-1.16,0-1.61,0.63-1.61,2.23v13.46c0,1.61,0.45,2.23,1.61,2.23c1.13,0,1.61-0.63,1.61-2.23v-4.14h1.7
		v4.44c0,2.26-1.19,3.54-3.37,3.54C98.72,150.96,97.53,149.68,97.53,147.41z"/>
	<path class="st0" d="M107.24,130.11h1.79v19h3.81v1.55h-5.6V130.11z"/>
	<path class="st0" d="M115.46,130.11h5.9v1.55h-4.11v7.18h3.57v1.55h-3.57v8.73h4.11v1.55h-5.9V130.11z"/>
	<path class="st0" d="M123.83,147.29v-3.6h1.73v3.28c0,1.7,0.48,2.38,1.67,2.38c1.22,0,1.7-0.69,1.7-2.38v-3.1
		c0-1.4-0.39-2.08-1.4-2.74l-1.58-1.01c-1.52-0.98-2.12-2.11-2.12-4.11v-2.65c0-2.26,1.22-3.54,3.34-3.54s3.34,1.28,3.34,3.54V136
		h-1.73v-2.35c0-1.61-0.45-2.23-1.58-2.23c-1.13,0-1.58,0.63-1.58,2.23v2.23c0,1.4,0.39,2.08,1.4,2.74l1.58,1.01
		c1.52,0.98,2.12,2.11,2.12,4.11v3.54c0,2.35-1.28,3.66-3.46,3.66C125.08,150.96,123.83,149.65,123.83,147.29z"/>
	<path class="st0" d="M133.66,148.22h2v2.44h-2V148.22z"/>
</g>
</svg>
