<?xml version="1.0" encoding="utf-8"?>
<!-- Generator: Adobe Illustrator 25.2.1, SVG Export Plug-In . SVG Version: 6.00 Build 0)  -->
<svg version="1.1" id="Layer_1" xmlns="http://www.w3.org/2000/svg" xmlns:xlink="http://www.w3.org/1999/xlink" x="0px" y="0px"
	 viewBox="0 0 160 600" style="enable-background:new 0 0 160 600;" xml:space="preserve">
<style type="text/css">
	.st0{fill:#00A9E0;}
	.st1{fill:#FFFFFF;}
</style>
<rect x="24.47" y="453.19" class="st0" width="111.14" height="27.07"/>
<g>
	<path class="st1" d="M33.23,472.08v-9.72h2.36v7.68h3.76v2.05H33.23z"/>
	<path class="st1" d="M40.94,472.08v-9.72h6.54v1.99h-4.27v1.83h4.04v1.88h-4.04v2.02h4.52v2H40.94z"/>
	<path class="st1" d="M56.35,472.08l-0.76-1.91h-3.76l-0.71,1.91h-2.55l4.08-9.72h2.28l4.04,9.72H56.35z M53.74,464.96l-1.24,3.34
		h2.44L53.74,464.96z"/>
	<path class="st1" d="M65.46,472.08l-2.1-3.86h-0.8v3.86h-2.31v-9.72h3.71c1.87,0,3.72,0.71,3.72,2.94c0,1.3-0.77,2.24-2.02,2.62
		l2.54,4.16H65.46z M63.8,464.25h-1.25v2.27h1.11c0.76,0,1.7-0.19,1.7-1.18C65.37,464.43,64.5,464.25,63.8,464.25z"/>
	<path class="st1" d="M76.03,472.08l-3.91-6.36h-0.04l0.06,6.36h-2.28v-9.72h2.68l3.9,6.34h0.04l-0.05-6.34h2.28v9.72H76.03z"/>
	<path class="st1" d="M93.91,472.08l0.05-6.88h-0.04l-2.53,6.88h-1.65l-2.46-6.88h-0.04l0.06,6.88H85.1v-9.72h3.34l2.21,6.23h0.05
		l2.12-6.23h3.39v9.72H93.91z"/>
	<path class="st1" d="M103.53,472.34c-3.04,0-5.29-2.09-5.29-5.16c0-3.12,2.25-5.08,5.29-5.08c3.05,0,5.3,1.96,5.3,5.08
		C108.83,470.26,106.58,472.34,103.53,472.34z M103.53,464.21c-1.65,0-2.77,1.26-2.77,2.97c0,1.76,1.14,3.02,2.77,3.02
		c1.63,0,2.79-1.26,2.79-3.02C106.32,465.48,105.18,464.21,103.53,464.21z"/>
	<path class="st1" d="M116.08,472.08l-2.1-3.86h-0.8v3.86h-2.31v-9.72h3.71c1.87,0,3.72,0.71,3.72,2.94c0,1.3-0.77,2.24-2.02,2.62
		l2.54,4.16H116.08z M114.41,464.25h-1.25v2.27h1.11c0.75,0,1.7-0.19,1.7-1.18C115.98,464.43,115.11,464.25,114.41,464.25z"/>
	<path class="st1" d="M120.46,472.08v-9.72H127v1.99h-4.27v1.83h4.04v1.88h-4.04v2.02h4.52v2H120.46z"/>
</g>
</svg>
