<?xml version="1.0" encoding="utf-8"?>
<!-- Generator: Adobe Illustrator 25.2.1, SVG Export Plug-In . SVG Version: 6.00 Build 0)  -->
<svg version="1.1" id="Layer_1" xmlns="http://www.w3.org/2000/svg" xmlns:xlink="http://www.w3.org/1999/xlink" x="0px" y="0px"
	 viewBox="0 0 160 600" style="enable-background:new 0 0 160 600;" xml:space="preserve">
<style type="text/css">
	.st0{fill:#FFFFFF;}
</style>
<g>
	<path class="st0" d="M19.62,498.48h-0.87l2.44-5.62h0.71l2.41,5.62h-0.89l-0.57-1.38h-2.67L19.62,498.48z M20.47,496.41h2.1
		l-1.05-2.64L20.47,496.41z"/>
	<path class="st0" d="M24.99,495.14c-0.01-0.16-0.01-0.3-0.02-0.42h0.71c0.01,0.1,0.02,0.21,0.02,0.33c0,0.12,0.01,0.23,0.01,0.31
		h0.02c0.11-0.22,0.26-0.4,0.46-0.54c0.2-0.13,0.43-0.2,0.69-0.2c0.12,0,0.21,0.01,0.29,0.03l-0.03,0.69
		c-0.11-0.03-0.22-0.04-0.34-0.04c-0.18,0-0.34,0.03-0.47,0.1c-0.13,0.07-0.24,0.15-0.33,0.27s-0.15,0.24-0.19,0.38
		c-0.04,0.15-0.06,0.3-0.06,0.46v1.98H25v-2.95C25,495.43,25,495.3,24.99,495.14z"/>
	<path class="st0" d="M28.75,493.36c0,0.14-0.05,0.25-0.15,0.34c-0.1,0.09-0.21,0.14-0.35,0.14s-0.25-0.05-0.35-0.14
		c-0.09-0.09-0.14-0.21-0.14-0.34c0-0.14,0.05-0.25,0.14-0.35c0.09-0.09,0.21-0.14,0.35-0.14s0.25,0.05,0.35,0.14
		S28.75,493.22,28.75,493.36z M28.63,498.48h-0.75v-3.76h0.75V498.48z"/>
	<path class="st0" d="M33.45,496.57c0,0.04,0,0.08,0,0.13c0,0.04,0,0.08-0.01,0.13h-2.99c0,0.16,0.04,0.31,0.11,0.45
		c0.07,0.14,0.15,0.26,0.27,0.36s0.24,0.18,0.39,0.24c0.15,0.06,0.3,0.09,0.46,0.09c0.25,0,0.47-0.06,0.66-0.17
		c0.19-0.11,0.33-0.25,0.44-0.4l0.52,0.42c-0.2,0.27-0.44,0.46-0.71,0.59c-0.27,0.13-0.58,0.19-0.91,0.19
		c-0.29,0-0.55-0.05-0.79-0.14c-0.24-0.09-0.45-0.23-0.63-0.4s-0.31-0.38-0.41-0.62c-0.1-0.24-0.15-0.51-0.15-0.81
		c0-0.29,0.05-0.56,0.15-0.81s0.23-0.46,0.41-0.63s0.38-0.31,0.62-0.41c0.24-0.1,0.5-0.15,0.77-0.15s0.53,0.04,0.75,0.13
		c0.23,0.09,0.42,0.22,0.57,0.39c0.16,0.17,0.28,0.38,0.36,0.62C33.41,496,33.45,496.27,33.45,496.57z M32.69,496.27
		c-0.01-0.15-0.03-0.29-0.08-0.42c-0.05-0.13-0.11-0.24-0.2-0.34c-0.09-0.1-0.2-0.17-0.33-0.23s-0.28-0.08-0.46-0.08
		c-0.16,0-0.31,0.03-0.45,0.08s-0.26,0.13-0.37,0.23c-0.1,0.09-0.19,0.21-0.25,0.34c-0.07,0.13-0.1,0.27-0.11,0.42H32.69z"/>
	<path class="st0" d="M35.25,498.48H34.5v-6h0.75V498.48z"/>
	<path class="st0" d="M38.81,494.72l0.85,2.88h0.02l0.9-2.88h0.79l0.91,2.88h0.02l0.85-2.88h0.79l-1.25,3.76H41.9l-0.93-2.83h-0.02
		l-0.92,2.83h-0.78L38,494.72H38.81z"/>
	<path class="st0" d="M47.02,496.04c0-0.28-0.08-0.49-0.25-0.62s-0.39-0.2-0.67-0.2c-0.21,0-0.41,0.04-0.6,0.12
		c-0.19,0.08-0.35,0.19-0.47,0.31l-0.4-0.48c0.19-0.17,0.41-0.31,0.68-0.41c0.27-0.1,0.55-0.15,0.86-0.15c0.27,0,0.5,0.04,0.7,0.12
		c0.2,0.08,0.36,0.18,0.49,0.31c0.13,0.13,0.22,0.29,0.29,0.47c0.06,0.18,0.1,0.37,0.1,0.58v1.64c0,0.13,0,0.26,0.01,0.4
		c0.01,0.14,0.02,0.26,0.04,0.35h-0.67c-0.04-0.18-0.06-0.36-0.06-0.54h-0.02c-0.14,0.2-0.31,0.36-0.52,0.47
		c-0.21,0.11-0.46,0.17-0.74,0.17c-0.15,0-0.3-0.02-0.46-0.06c-0.16-0.04-0.31-0.1-0.44-0.2c-0.13-0.09-0.24-0.21-0.33-0.36
		c-0.09-0.15-0.13-0.33-0.13-0.55c0-0.29,0.08-0.51,0.23-0.68c0.15-0.17,0.35-0.29,0.6-0.38c0.25-0.09,0.53-0.14,0.84-0.17
		s0.63-0.04,0.94-0.04V496.04z M46.83,496.69c-0.19,0-0.38,0.01-0.58,0.02c-0.2,0.02-0.38,0.05-0.54,0.09s-0.29,0.12-0.4,0.21
		c-0.11,0.09-0.16,0.22-0.16,0.38c0,0.11,0.02,0.2,0.07,0.28s0.1,0.13,0.18,0.18c0.07,0.05,0.16,0.08,0.25,0.1
		c0.09,0.02,0.18,0.03,0.28,0.03c0.35,0,0.62-0.1,0.81-0.31c0.19-0.21,0.28-0.47,0.28-0.79v-0.2H46.83z"/>
	<path class="st0" d="M51.01,495.67c-0.08-0.14-0.2-0.25-0.36-0.34c-0.15-0.09-0.33-0.13-0.52-0.13c-0.08,0-0.17,0.01-0.25,0.03
		c-0.08,0.02-0.16,0.05-0.23,0.09c-0.07,0.04-0.12,0.09-0.16,0.15c-0.04,0.06-0.06,0.14-0.06,0.23c0,0.16,0.07,0.28,0.21,0.35
		c0.14,0.08,0.36,0.15,0.64,0.21c0.18,0.04,0.35,0.09,0.5,0.15c0.15,0.06,0.29,0.13,0.4,0.22c0.11,0.09,0.2,0.19,0.27,0.31
		c0.06,0.12,0.1,0.27,0.1,0.43c0,0.22-0.04,0.41-0.13,0.56s-0.2,0.28-0.34,0.38c-0.14,0.1-0.3,0.17-0.48,0.21
		c-0.18,0.04-0.37,0.06-0.56,0.06c-0.29,0-0.56-0.06-0.84-0.17c-0.27-0.11-0.5-0.28-0.68-0.51l0.53-0.45
		c0.1,0.15,0.24,0.27,0.42,0.37c0.18,0.1,0.37,0.15,0.58,0.15c0.1,0,0.19-0.01,0.27-0.03s0.17-0.05,0.24-0.09
		c0.07-0.04,0.13-0.1,0.17-0.17c0.04-0.07,0.06-0.16,0.06-0.26c0-0.17-0.08-0.3-0.25-0.39c-0.17-0.08-0.41-0.16-0.73-0.24
		c-0.13-0.03-0.26-0.07-0.39-0.12s-0.25-0.11-0.35-0.19s-0.19-0.18-0.26-0.3c-0.07-0.12-0.1-0.27-0.1-0.44
		c0-0.2,0.04-0.38,0.12-0.52c0.08-0.15,0.19-0.26,0.32-0.36s0.28-0.16,0.45-0.21s0.34-0.07,0.52-0.07c0.27,0,0.53,0.05,0.78,0.16
		c0.25,0.11,0.45,0.26,0.58,0.46L51.01,495.67z"/>
	<path class="st0" d="M56.33,495.33h-1v1.96c0,0.23,0.04,0.39,0.13,0.49c0.08,0.1,0.22,0.15,0.4,0.15c0.07,0,0.14-0.01,0.22-0.02
		c0.08-0.01,0.15-0.04,0.21-0.07l0.02,0.61c-0.09,0.03-0.19,0.06-0.3,0.08c-0.11,0.02-0.22,0.03-0.34,0.03
		c-0.35,0-0.63-0.1-0.81-0.29c-0.19-0.2-0.28-0.49-0.28-0.88v-2.04h-0.72v-0.61h0.72v-1.08h0.74v1.08h1V495.33z"/>
	<path class="st0" d="M57.09,495.14c-0.01-0.16-0.01-0.3-0.02-0.42h0.71c0.01,0.1,0.02,0.21,0.02,0.33c0,0.12,0.01,0.23,0.01,0.31
		h0.02c0.11-0.22,0.26-0.4,0.46-0.54c0.2-0.13,0.43-0.2,0.69-0.2c0.12,0,0.21,0.01,0.29,0.03l-0.03,0.69
		c-0.11-0.03-0.22-0.04-0.34-0.04c-0.18,0-0.34,0.03-0.47,0.1c-0.13,0.07-0.24,0.15-0.33,0.27s-0.15,0.24-0.19,0.38
		c-0.04,0.15-0.06,0.3-0.06,0.46v1.98H57.1v-2.95C57.1,495.43,57.1,495.3,57.09,495.14z"/>
	<path class="st0" d="M63.35,496.57c0,0.04,0,0.08,0,0.13c0,0.04,0,0.08-0.01,0.13h-2.99c0,0.16,0.04,0.31,0.11,0.45
		c0.07,0.14,0.15,0.26,0.27,0.36s0.24,0.18,0.39,0.24c0.15,0.06,0.3,0.09,0.46,0.09c0.25,0,0.47-0.06,0.66-0.17
		c0.19-0.11,0.33-0.25,0.44-0.4l0.52,0.42c-0.2,0.27-0.44,0.46-0.71,0.59c-0.27,0.13-0.58,0.19-0.91,0.19
		c-0.29,0-0.55-0.05-0.79-0.14c-0.24-0.09-0.45-0.23-0.63-0.4s-0.31-0.38-0.41-0.62c-0.1-0.24-0.15-0.51-0.15-0.81
		c0-0.29,0.05-0.56,0.15-0.81s0.23-0.46,0.41-0.63s0.38-0.31,0.62-0.41c0.24-0.1,0.5-0.15,0.77-0.15s0.53,0.04,0.75,0.13
		c0.23,0.09,0.42,0.22,0.57,0.39c0.16,0.17,0.28,0.38,0.36,0.62C63.31,496,63.35,496.27,63.35,496.57z M62.59,496.27
		c-0.01-0.15-0.03-0.29-0.08-0.42c-0.05-0.13-0.11-0.24-0.2-0.34c-0.09-0.1-0.2-0.17-0.33-0.23s-0.28-0.08-0.46-0.08
		c-0.16,0-0.31,0.03-0.45,0.08s-0.26,0.13-0.37,0.23c-0.1,0.09-0.19,0.21-0.25,0.34c-0.07,0.13-0.1,0.27-0.11,0.42H62.59z"/>
	<path class="st0" d="M66.68,496.04c0-0.28-0.08-0.49-0.25-0.62s-0.39-0.2-0.67-0.2c-0.21,0-0.41,0.04-0.6,0.12
		c-0.19,0.08-0.35,0.19-0.47,0.31l-0.4-0.48c0.19-0.17,0.41-0.31,0.68-0.41c0.27-0.1,0.55-0.15,0.86-0.15c0.27,0,0.5,0.04,0.7,0.12
		c0.2,0.08,0.36,0.18,0.49,0.31c0.13,0.13,0.22,0.29,0.29,0.47c0.06,0.18,0.1,0.37,0.1,0.58v1.64c0,0.13,0,0.26,0.01,0.4
		c0.01,0.14,0.02,0.26,0.04,0.35h-0.67c-0.04-0.18-0.06-0.36-0.06-0.54h-0.02c-0.14,0.2-0.31,0.36-0.52,0.47
		c-0.21,0.11-0.46,0.17-0.74,0.17c-0.15,0-0.3-0.02-0.46-0.06c-0.16-0.04-0.31-0.1-0.44-0.2c-0.13-0.09-0.24-0.21-0.33-0.36
		c-0.09-0.15-0.13-0.33-0.13-0.55c0-0.29,0.08-0.51,0.23-0.68c0.15-0.17,0.35-0.29,0.6-0.38c0.25-0.09,0.53-0.14,0.84-0.17
		s0.63-0.04,0.94-0.04V496.04z M66.5,496.69c-0.19,0-0.38,0.01-0.58,0.02c-0.2,0.02-0.38,0.05-0.54,0.09s-0.29,0.12-0.4,0.21
		c-0.11,0.09-0.16,0.22-0.16,0.38c0,0.11,0.02,0.2,0.07,0.28s0.1,0.13,0.18,0.18c0.07,0.05,0.16,0.08,0.25,0.1
		c0.09,0.02,0.18,0.03,0.28,0.03c0.35,0,0.62-0.1,0.81-0.31c0.19-0.21,0.28-0.47,0.28-0.79v-0.2H66.5z"/>
	<path class="st0" d="M70.4,495.33h-1v1.96c0,0.23,0.04,0.39,0.13,0.49c0.08,0.1,0.22,0.15,0.4,0.15c0.07,0,0.14-0.01,0.22-0.02
		c0.08-0.01,0.15-0.04,0.21-0.07l0.02,0.61c-0.09,0.03-0.19,0.06-0.3,0.08c-0.11,0.02-0.22,0.03-0.34,0.03
		c-0.35,0-0.63-0.1-0.81-0.29c-0.19-0.2-0.28-0.49-0.28-0.88v-2.04h-0.72v-0.61h0.72v-1.08h0.74v1.08h1V495.33z"/>
	<path class="st0" d="M74.69,496.57c0,0.04,0,0.08,0,0.13c0,0.04,0,0.08-0.01,0.13h-2.99c0,0.16,0.04,0.31,0.11,0.45
		c0.07,0.14,0.15,0.26,0.27,0.36s0.24,0.18,0.39,0.24c0.15,0.06,0.3,0.09,0.46,0.09c0.25,0,0.47-0.06,0.66-0.17
		c0.19-0.11,0.33-0.25,0.44-0.4l0.52,0.42c-0.2,0.27-0.44,0.46-0.71,0.59c-0.27,0.13-0.58,0.19-0.91,0.19
		c-0.29,0-0.55-0.05-0.79-0.14c-0.24-0.09-0.45-0.23-0.63-0.4s-0.31-0.38-0.41-0.62c-0.1-0.24-0.15-0.51-0.15-0.81
		c0-0.29,0.05-0.56,0.15-0.81s0.23-0.46,0.41-0.63s0.38-0.31,0.62-0.41c0.24-0.1,0.5-0.15,0.77-0.15s0.53,0.04,0.75,0.13
		c0.23,0.09,0.42,0.22,0.57,0.39c0.16,0.17,0.28,0.38,0.36,0.62C74.65,496,74.69,496.27,74.69,496.57z M73.93,496.27
		c-0.01-0.15-0.03-0.29-0.08-0.42c-0.05-0.13-0.11-0.24-0.2-0.34c-0.09-0.1-0.2-0.17-0.33-0.23s-0.28-0.08-0.46-0.08
		c-0.16,0-0.31,0.03-0.45,0.08s-0.26,0.13-0.37,0.23c-0.1,0.09-0.19,0.21-0.25,0.34c-0.07,0.13-0.1,0.27-0.11,0.42H73.93z"/>
	<path class="st0" d="M78.73,497.89c-0.14,0.23-0.34,0.4-0.58,0.52s-0.5,0.18-0.77,0.18c-0.29,0-0.55-0.05-0.79-0.16
		s-0.43-0.25-0.6-0.42s-0.29-0.39-0.38-0.64c-0.09-0.24-0.13-0.5-0.13-0.78c0-0.28,0.04-0.53,0.13-0.77
		c0.09-0.24,0.22-0.45,0.39-0.63c0.17-0.18,0.37-0.32,0.6-0.42s0.49-0.15,0.77-0.15c0.31,0,0.57,0.06,0.8,0.19
		c0.23,0.13,0.41,0.29,0.54,0.47h0.02v-2.8h0.75v6h-0.72v-0.6H78.73z M76.25,496.6c0,0.17,0.03,0.34,0.08,0.51
		c0.05,0.16,0.13,0.31,0.24,0.44c0.11,0.13,0.24,0.23,0.39,0.3c0.15,0.08,0.33,0.11,0.54,0.11c0.19,0,0.36-0.04,0.52-0.11
		c0.16-0.07,0.29-0.17,0.4-0.3s0.2-0.27,0.26-0.43c0.06-0.16,0.09-0.33,0.09-0.51s-0.03-0.35-0.09-0.51
		c-0.06-0.16-0.15-0.31-0.26-0.44s-0.25-0.23-0.4-0.3c-0.16-0.07-0.33-0.11-0.52-0.11c-0.21,0-0.39,0.04-0.54,0.11
		c-0.15,0.07-0.28,0.17-0.39,0.3s-0.19,0.27-0.24,0.44C76.27,496.25,76.25,496.42,76.25,496.6z"/>
	<path class="st0" d="M83.03,494.72l0.85,2.88h0.02l0.9-2.88h0.79l0.91,2.88h0.02l0.85-2.88h0.79l-1.25,3.76h-0.78l-0.93-2.83h-0.02
		l-0.92,2.83h-0.78l-1.25-3.76H83.03z"/>
	<path class="st0" d="M89.77,493.36c0,0.14-0.05,0.25-0.15,0.34c-0.1,0.09-0.21,0.14-0.35,0.14s-0.25-0.05-0.35-0.14
		c-0.09-0.09-0.14-0.21-0.14-0.34c0-0.14,0.05-0.25,0.14-0.35s0.21-0.14,0.35-0.14s0.25,0.05,0.35,0.14
		C89.72,493.11,89.77,493.22,89.77,493.36z M89.65,498.48H88.9v-3.76h0.75V498.48z"/>
	<path class="st0" d="M92.79,495.33h-1v1.96c0,0.23,0.04,0.39,0.13,0.49s0.22,0.15,0.41,0.15c0.07,0,0.14-0.01,0.22-0.02
		c0.08-0.01,0.15-0.04,0.21-0.07l0.02,0.61c-0.09,0.03-0.19,0.06-0.3,0.08s-0.22,0.03-0.34,0.03c-0.36,0-0.63-0.1-0.81-0.29
		c-0.19-0.2-0.28-0.49-0.28-0.88v-2.04h-0.72v-0.61h0.72v-1.08h0.74v1.08h1V495.33z"/>
	<path class="st0" d="M94.34,495.29c0.09-0.19,0.24-0.34,0.46-0.48c0.22-0.13,0.46-0.2,0.73-0.2c0.24,0,0.45,0.04,0.63,0.12
		s0.32,0.19,0.44,0.33s0.2,0.3,0.26,0.48c0.05,0.19,0.08,0.38,0.08,0.6v2.33h-0.75v-2.09c0-0.15-0.01-0.3-0.04-0.44
		c-0.02-0.14-0.07-0.26-0.13-0.37s-0.15-0.19-0.26-0.25s-0.25-0.1-0.42-0.1c-0.3,0-0.54,0.11-0.73,0.34s-0.29,0.53-0.29,0.9v2h-0.75
		v-6h0.75v2.81H94.34z"/>
	<path class="st0" d="M105.04,497.61c-0.22,0.3-0.51,0.55-0.87,0.74c-0.35,0.19-0.78,0.28-1.28,0.28c-0.43,0-0.83-0.07-1.19-0.22
		s-0.67-0.35-0.94-0.61c-0.26-0.26-0.47-0.58-0.62-0.94s-0.22-0.76-0.22-1.2c0-0.44,0.08-0.84,0.23-1.2
		c0.15-0.36,0.36-0.67,0.63-0.93s0.58-0.46,0.95-0.6c0.37-0.14,0.76-0.21,1.19-0.21c0.19,0,0.38,0.02,0.58,0.06s0.38,0.09,0.56,0.17
		c0.18,0.07,0.34,0.17,0.49,0.27c0.15,0.11,0.28,0.23,0.38,0.38l-0.62,0.48c-0.14-0.19-0.33-0.35-0.58-0.47
		c-0.25-0.12-0.52-0.19-0.81-0.19c-0.33,0-0.62,0.06-0.88,0.18c-0.26,0.12-0.49,0.28-0.67,0.49c-0.19,0.21-0.33,0.45-0.43,0.72
		c-0.1,0.27-0.15,0.56-0.15,0.87c0,0.32,0.05,0.61,0.15,0.89c0.1,0.28,0.24,0.51,0.42,0.72s0.41,0.36,0.67,0.48
		c0.26,0.12,0.55,0.17,0.88,0.17c0.32,0,0.61-0.06,0.87-0.19c0.26-0.13,0.47-0.31,0.64-0.56L105.04,497.61z"/>
	<path class="st0" d="M109.52,496.59c0,0.29-0.05,0.56-0.15,0.8c-0.1,0.24-0.25,0.45-0.43,0.63c-0.18,0.18-0.4,0.32-0.65,0.41
		c-0.25,0.1-0.52,0.15-0.8,0.15c-0.29,0-0.55-0.05-0.8-0.15c-0.25-0.1-0.46-0.24-0.64-0.41c-0.18-0.18-0.32-0.39-0.42-0.63
		s-0.15-0.51-0.15-0.8c0-0.29,0.05-0.56,0.15-0.8c0.1-0.24,0.25-0.45,0.42-0.62c0.18-0.17,0.39-0.31,0.64-0.41s0.52-0.15,0.8-0.15
		c0.29,0,0.55,0.05,0.8,0.15c0.25,0.1,0.46,0.23,0.65,0.41c0.18,0.17,0.33,0.38,0.43,0.62C109.47,496.04,109.52,496.3,109.52,496.59
		z M108.75,496.6c0-0.18-0.03-0.35-0.08-0.51c-0.06-0.16-0.14-0.31-0.24-0.43s-0.24-0.22-0.39-0.3c-0.16-0.07-0.34-0.11-0.54-0.11
		c-0.2,0-0.38,0.04-0.54,0.11c-0.16,0.07-0.29,0.17-0.39,0.3s-0.19,0.27-0.24,0.43c-0.06,0.16-0.08,0.33-0.08,0.51
		c0,0.18,0.03,0.35,0.08,0.51c0.06,0.16,0.14,0.31,0.24,0.44c0.11,0.13,0.24,0.23,0.39,0.3c0.16,0.07,0.34,0.11,0.54,0.11
		c0.2,0,0.38-0.04,0.54-0.11c0.16-0.07,0.29-0.17,0.39-0.3c0.11-0.13,0.19-0.27,0.24-0.44C108.72,496.95,108.75,496.78,108.75,496.6
		z"/>
	<path class="st0" d="M114.37,496.59c0,0.29-0.05,0.56-0.15,0.8c-0.1,0.24-0.25,0.45-0.43,0.63c-0.18,0.18-0.4,0.32-0.65,0.41
		c-0.25,0.1-0.52,0.15-0.8,0.15c-0.29,0-0.55-0.05-0.8-0.15c-0.25-0.1-0.46-0.24-0.64-0.41c-0.18-0.18-0.32-0.39-0.42-0.63
		s-0.15-0.51-0.15-0.8c0-0.29,0.05-0.56,0.15-0.8c0.1-0.24,0.25-0.45,0.42-0.62c0.18-0.17,0.39-0.31,0.64-0.41s0.52-0.15,0.8-0.15
		c0.29,0,0.55,0.05,0.8,0.15c0.25,0.1,0.46,0.23,0.65,0.41c0.18,0.17,0.33,0.38,0.43,0.62C114.32,496.04,114.37,496.3,114.37,496.59
		z M113.59,496.6c0-0.18-0.03-0.35-0.08-0.51c-0.06-0.16-0.14-0.31-0.24-0.43s-0.24-0.22-0.39-0.3c-0.16-0.07-0.34-0.11-0.54-0.11
		c-0.2,0-0.38,0.04-0.54,0.11c-0.16,0.07-0.29,0.17-0.39,0.3s-0.19,0.27-0.24,0.43c-0.06,0.16-0.08,0.33-0.08,0.51
		c0,0.18,0.03,0.35,0.08,0.51c0.06,0.16,0.14,0.31,0.24,0.44c0.11,0.13,0.24,0.23,0.39,0.3c0.16,0.07,0.34,0.11,0.54,0.11
		c0.2,0,0.38-0.04,0.54-0.11c0.16-0.07,0.29-0.17,0.39-0.3c0.11-0.13,0.19-0.27,0.24-0.44C113.56,496.95,113.59,496.78,113.59,496.6
		z"/>
	<path class="st0" d="M116.16,498.48h-0.75v-6h0.75V498.48z"/>
	<path class="st0" d="M119.47,498.48h-0.79v-4.93h-1.8v-0.69h4.39v0.69h-1.8V498.48z"/>
	<path class="st0" d="M125.03,496.59c0,0.29-0.05,0.56-0.15,0.8c-0.1,0.24-0.25,0.45-0.43,0.63c-0.18,0.18-0.4,0.32-0.65,0.41
		c-0.25,0.1-0.52,0.15-0.8,0.15c-0.29,0-0.55-0.05-0.8-0.15c-0.25-0.1-0.46-0.24-0.64-0.41c-0.18-0.18-0.32-0.39-0.42-0.63
		s-0.15-0.51-0.15-0.8c0-0.29,0.05-0.56,0.15-0.8c0.1-0.24,0.25-0.45,0.42-0.62c0.18-0.17,0.39-0.31,0.64-0.41s0.52-0.15,0.8-0.15
		c0.29,0,0.55,0.05,0.8,0.15c0.25,0.1,0.46,0.23,0.65,0.41c0.18,0.17,0.33,0.38,0.43,0.62C124.98,496.04,125.03,496.3,125.03,496.59
		z M124.25,496.6c0-0.18-0.03-0.35-0.08-0.51c-0.06-0.16-0.14-0.31-0.24-0.43s-0.24-0.22-0.39-0.3c-0.16-0.07-0.34-0.11-0.54-0.11
		c-0.2,0-0.38,0.04-0.54,0.11c-0.16,0.07-0.29,0.17-0.39,0.3s-0.19,0.27-0.24,0.43c-0.06,0.16-0.08,0.33-0.08,0.51
		c0,0.18,0.03,0.35,0.08,0.51c0.06,0.16,0.14,0.31,0.24,0.44c0.11,0.13,0.24,0.23,0.39,0.3c0.16,0.07,0.34,0.11,0.54,0.11
		c0.2,0,0.38-0.04,0.54-0.11c0.16-0.07,0.29-0.17,0.39-0.3c0.11-0.13,0.19-0.27,0.24-0.44C124.23,496.95,124.25,496.78,124.25,496.6
		z"/>
	<path class="st0" d="M126.74,494.72c0.01,0.1,0.02,0.2,0.02,0.32c0.01,0.12,0.01,0.22,0.01,0.3h0.02c0.05-0.1,0.11-0.2,0.19-0.28
		c0.08-0.09,0.18-0.16,0.28-0.23c0.11-0.07,0.22-0.12,0.35-0.15s0.26-0.06,0.4-0.06c0.24,0,0.45,0.04,0.63,0.12s0.32,0.19,0.44,0.33
		s0.2,0.3,0.26,0.48s0.08,0.38,0.08,0.6v2.33h-0.75v-2.09c0-0.15-0.01-0.3-0.04-0.44c-0.02-0.14-0.07-0.26-0.13-0.37
		c-0.06-0.11-0.15-0.19-0.26-0.25s-0.25-0.1-0.43-0.1c-0.3,0-0.54,0.11-0.73,0.34c-0.19,0.22-0.28,0.53-0.28,0.9v2h-0.75v-2.95
		c0-0.1,0-0.23-0.01-0.39c-0.01-0.16-0.01-0.3-0.02-0.42H126.74z"/>
	<path class="st0" d="M134.21,496.57c0,0.04,0,0.08,0,0.13c0,0.04,0,0.08-0.01,0.13h-2.99c0.01,0.16,0.04,0.31,0.11,0.45
		c0.07,0.14,0.16,0.26,0.27,0.36c0.11,0.1,0.24,0.18,0.38,0.24c0.15,0.06,0.3,0.09,0.46,0.09c0.25,0,0.47-0.06,0.66-0.17
		c0.18-0.11,0.33-0.25,0.44-0.4l0.52,0.42c-0.2,0.27-0.44,0.46-0.71,0.59s-0.58,0.19-0.91,0.19c-0.29,0-0.55-0.05-0.79-0.14
		c-0.24-0.09-0.45-0.23-0.63-0.4s-0.31-0.38-0.41-0.62c-0.1-0.24-0.15-0.51-0.15-0.81c0-0.29,0.05-0.56,0.15-0.81
		c0.1-0.25,0.24-0.46,0.41-0.63s0.38-0.31,0.62-0.41c0.24-0.1,0.5-0.15,0.77-0.15c0.28,0,0.53,0.04,0.75,0.13s0.42,0.22,0.57,0.39
		c0.16,0.17,0.28,0.38,0.36,0.62C134.16,496,134.21,496.27,134.21,496.57z M133.44,496.27c-0.01-0.15-0.03-0.29-0.08-0.42
		s-0.11-0.24-0.2-0.34c-0.09-0.1-0.2-0.17-0.33-0.23c-0.13-0.06-0.28-0.08-0.46-0.08c-0.16,0-0.31,0.03-0.45,0.08
		c-0.14,0.06-0.26,0.13-0.37,0.23c-0.1,0.09-0.19,0.21-0.25,0.34s-0.1,0.27-0.12,0.42H133.44z"/>
	<path class="st0" d="M135.17,494.57c0-0.25,0.05-0.48,0.14-0.7c0.09-0.22,0.22-0.41,0.39-0.57c0.16-0.16,0.36-0.29,0.58-0.39
		c0.22-0.09,0.45-0.14,0.7-0.14c0.25,0,0.48,0.05,0.7,0.14c0.22,0.1,0.41,0.22,0.58,0.39c0.16,0.16,0.29,0.35,0.39,0.57
		c0.1,0.22,0.14,0.45,0.14,0.7s-0.05,0.48-0.14,0.7c-0.09,0.22-0.22,0.41-0.39,0.57s-0.36,0.29-0.58,0.38s-0.45,0.14-0.7,0.14
		c-0.25,0-0.48-0.05-0.7-0.14s-0.41-0.22-0.58-0.38s-0.29-0.35-0.39-0.57C135.21,495.05,135.17,494.82,135.17,494.57z
		 M135.45,494.57c0,0.21,0.04,0.4,0.12,0.59c0.08,0.18,0.19,0.35,0.33,0.49c0.14,0.14,0.3,0.25,0.48,0.33
		c0.18,0.08,0.38,0.12,0.6,0.12c0.21,0,0.41-0.04,0.6-0.12c0.18-0.08,0.35-0.19,0.48-0.33c0.14-0.14,0.25-0.3,0.33-0.49
		c0.08-0.19,0.12-0.38,0.12-0.59c0-0.21-0.04-0.41-0.12-0.6s-0.19-0.35-0.33-0.48s-0.3-0.25-0.48-0.33
		c-0.19-0.08-0.38-0.12-0.6-0.12c-0.21,0-0.41,0.04-0.6,0.12c-0.19,0.08-0.35,0.19-0.48,0.33s-0.25,0.3-0.33,0.48
		C135.49,494.16,135.45,494.36,135.45,494.57z M137.42,495.56l-0.44-0.79h-0.29v0.79h-0.48v-2.03h0.87c0.1,0,0.19,0.01,0.28,0.03
		s0.17,0.06,0.25,0.1s0.13,0.11,0.18,0.19s0.07,0.18,0.07,0.31c0,0.14-0.04,0.25-0.12,0.34c-0.08,0.09-0.17,0.16-0.29,0.2l0.54,0.86
		H137.42z M137.07,494.42c0.07,0,0.14-0.02,0.2-0.07c0.06-0.05,0.09-0.11,0.09-0.19c0-0.08-0.03-0.15-0.1-0.18
		c-0.07-0.04-0.13-0.06-0.19-0.06h-0.37v0.5H137.07z"/>
	<path class="st0" d="M27.52,505.53c0,0.29-0.05,0.56-0.15,0.8c-0.1,0.24-0.25,0.45-0.43,0.63c-0.18,0.18-0.4,0.32-0.65,0.41
		c-0.25,0.1-0.52,0.15-0.8,0.15c-0.29,0-0.55-0.05-0.8-0.15c-0.25-0.1-0.46-0.24-0.64-0.41c-0.18-0.18-0.32-0.39-0.43-0.63
		c-0.1-0.24-0.15-0.51-0.15-0.8c0-0.29,0.05-0.56,0.15-0.8c0.1-0.24,0.25-0.45,0.43-0.62c0.18-0.17,0.39-0.31,0.64-0.41
		c0.25-0.1,0.52-0.15,0.8-0.15c0.29,0,0.55,0.05,0.8,0.15c0.25,0.1,0.46,0.23,0.65,0.41s0.33,0.38,0.43,0.62
		C27.47,504.97,27.52,505.24,27.52,505.53z M26.74,505.53c0-0.18-0.03-0.35-0.08-0.51c-0.06-0.16-0.14-0.31-0.24-0.43
		c-0.11-0.12-0.24-0.22-0.39-0.3c-0.16-0.07-0.34-0.11-0.54-0.11c-0.2,0-0.38,0.04-0.54,0.11c-0.16,0.07-0.29,0.17-0.39,0.3
		c-0.11,0.12-0.19,0.27-0.24,0.43c-0.06,0.16-0.08,0.33-0.08,0.51c0,0.18,0.03,0.35,0.08,0.51c0.06,0.16,0.14,0.31,0.24,0.44
		c0.11,0.13,0.24,0.23,0.39,0.3s0.34,0.11,0.54,0.11c0.2,0,0.38-0.04,0.54-0.11s0.29-0.17,0.39-0.3c0.11-0.13,0.19-0.27,0.24-0.44
		C26.72,505.88,26.74,505.71,26.74,505.53z"/>
	<path class="st0" d="M29.23,503.65c0.01,0.1,0.02,0.2,0.02,0.32c0,0.12,0.01,0.22,0.01,0.3h0.02c0.05-0.1,0.11-0.2,0.19-0.28
		c0.08-0.09,0.18-0.16,0.28-0.23c0.11-0.07,0.22-0.12,0.35-0.15c0.13-0.04,0.26-0.06,0.4-0.06c0.24,0,0.45,0.04,0.63,0.12
		c0.17,0.08,0.32,0.19,0.44,0.33c0.12,0.14,0.2,0.3,0.26,0.48c0.06,0.19,0.08,0.38,0.08,0.6v2.33h-0.75v-2.09
		c0-0.15-0.01-0.3-0.04-0.44s-0.07-0.26-0.13-0.37c-0.06-0.11-0.15-0.19-0.26-0.25s-0.25-0.1-0.43-0.1c-0.3,0-0.54,0.11-0.73,0.34
		c-0.19,0.22-0.28,0.53-0.28,0.9v2h-0.75v-2.95c0-0.1,0-0.23-0.01-0.39c-0.01-0.16-0.01-0.3-0.02-0.42H29.23z"/>
	<path class="st0" d="M35.94,504.23c0.09-0.19,0.24-0.34,0.46-0.48c0.22-0.13,0.46-0.2,0.73-0.2c0.24,0,0.45,0.04,0.63,0.12
		s0.32,0.19,0.44,0.33c0.12,0.14,0.2,0.3,0.26,0.48s0.08,0.38,0.08,0.6v2.33h-0.75v-2.09c0-0.15-0.01-0.3-0.04-0.44
		c-0.02-0.14-0.07-0.26-0.13-0.37c-0.06-0.11-0.15-0.19-0.26-0.25c-0.11-0.06-0.25-0.1-0.42-0.1c-0.3,0-0.54,0.11-0.73,0.34
		c-0.19,0.23-0.29,0.53-0.29,0.9v2h-0.75v-6h0.75v2.81H35.94z"/>
	<path class="st0" d="M43.32,505.5c0,0.04,0,0.08,0,0.13c0,0.04,0,0.08-0.01,0.13h-2.99c0,0.16,0.04,0.31,0.11,0.45
		c0.07,0.14,0.15,0.26,0.27,0.36s0.24,0.18,0.39,0.24c0.15,0.06,0.3,0.09,0.46,0.09c0.25,0,0.47-0.06,0.66-0.17
		c0.19-0.11,0.33-0.25,0.44-0.4l0.52,0.42c-0.2,0.27-0.44,0.46-0.71,0.59c-0.27,0.13-0.58,0.19-0.91,0.19
		c-0.29,0-0.55-0.05-0.79-0.14c-0.24-0.09-0.45-0.23-0.63-0.4s-0.31-0.38-0.41-0.62c-0.1-0.24-0.15-0.51-0.15-0.81
		c0-0.29,0.05-0.56,0.15-0.81s0.23-0.46,0.41-0.63s0.38-0.31,0.62-0.41c0.24-0.1,0.5-0.15,0.77-0.15s0.53,0.04,0.75,0.13
		c0.23,0.09,0.42,0.22,0.57,0.39c0.16,0.17,0.28,0.38,0.36,0.62C43.28,504.93,43.32,505.2,43.32,505.5z M42.56,505.2
		c-0.01-0.15-0.03-0.29-0.08-0.42c-0.05-0.13-0.11-0.24-0.2-0.34c-0.09-0.1-0.2-0.17-0.33-0.23s-0.28-0.08-0.46-0.08
		c-0.16,0-0.31,0.03-0.45,0.08s-0.26,0.13-0.37,0.23c-0.1,0.09-0.19,0.21-0.25,0.34c-0.07,0.13-0.1,0.27-0.11,0.42H42.56z"/>
	<path class="st0" d="M44.34,504.07c-0.01-0.16-0.01-0.3-0.02-0.42h0.71c0.01,0.1,0.02,0.21,0.02,0.33c0,0.12,0.01,0.23,0.01,0.31
		h0.02c0.11-0.22,0.26-0.4,0.46-0.54c0.2-0.13,0.43-0.2,0.69-0.2c0.12,0,0.21,0.01,0.29,0.03l-0.03,0.69
		c-0.11-0.03-0.22-0.04-0.34-0.04c-0.18,0-0.34,0.03-0.47,0.1c-0.13,0.07-0.24,0.15-0.33,0.27s-0.15,0.24-0.19,0.38
		c-0.04,0.15-0.06,0.3-0.06,0.46v1.98h-0.75v-2.95C44.35,504.36,44.35,504.23,44.34,504.07z"/>
	<path class="st0" d="M51.55,504.98c0-0.28-0.08-0.49-0.25-0.62s-0.39-0.2-0.67-0.2c-0.21,0-0.41,0.04-0.6,0.12
		c-0.19,0.08-0.35,0.19-0.47,0.31l-0.4-0.48c0.19-0.17,0.41-0.31,0.68-0.41c0.27-0.1,0.55-0.15,0.86-0.15c0.27,0,0.5,0.04,0.7,0.12
		c0.2,0.08,0.36,0.18,0.49,0.31c0.13,0.13,0.22,0.29,0.29,0.47c0.06,0.18,0.1,0.37,0.1,0.58v1.64c0,0.13,0,0.26,0.01,0.4
		c0.01,0.14,0.02,0.26,0.04,0.35h-0.67c-0.04-0.18-0.06-0.36-0.06-0.54h-0.02c-0.14,0.2-0.31,0.36-0.52,0.47
		c-0.21,0.11-0.46,0.17-0.74,0.17c-0.15,0-0.3-0.02-0.46-0.06c-0.16-0.04-0.31-0.1-0.44-0.2c-0.13-0.09-0.24-0.21-0.33-0.36
		c-0.09-0.15-0.13-0.33-0.13-0.55c0-0.29,0.08-0.51,0.23-0.68c0.15-0.17,0.35-0.29,0.6-0.38c0.25-0.09,0.53-0.14,0.84-0.17
		s0.63-0.04,0.94-0.04V504.98z M51.37,505.62c-0.19,0-0.38,0.01-0.58,0.02c-0.2,0.02-0.38,0.05-0.54,0.09s-0.29,0.12-0.4,0.21
		c-0.11,0.09-0.16,0.22-0.16,0.38c0,0.11,0.02,0.2,0.07,0.28s0.1,0.13,0.18,0.18c0.07,0.05,0.16,0.08,0.25,0.1
		c0.09,0.02,0.18,0.03,0.28,0.03c0.35,0,0.62-0.1,0.81-0.31c0.19-0.21,0.28-0.47,0.28-0.79v-0.2H51.37z"/>
	<path class="st0" d="M54.25,506.82v0.6h-0.72v-6h0.75v2.8h0.02c0.13-0.19,0.3-0.34,0.53-0.47c0.23-0.13,0.5-0.19,0.81-0.19
		c0.28,0,0.54,0.05,0.76,0.15c0.23,0.1,0.43,0.24,0.59,0.42c0.17,0.18,0.29,0.39,0.38,0.63c0.09,0.24,0.13,0.5,0.13,0.77
		c0,0.27-0.04,0.53-0.13,0.78c-0.09,0.24-0.22,0.46-0.38,0.64s-0.36,0.32-0.59,0.42s-0.49,0.16-0.78,0.16
		c-0.27,0-0.53-0.06-0.77-0.18s-0.44-0.29-0.59-0.52H54.25z M56.76,505.53c0-0.17-0.03-0.34-0.08-0.51
		c-0.05-0.16-0.13-0.31-0.24-0.44s-0.24-0.23-0.39-0.3c-0.16-0.07-0.34-0.11-0.54-0.11c-0.19,0-0.36,0.04-0.52,0.11
		c-0.16,0.07-0.29,0.17-0.4,0.3s-0.2,0.27-0.26,0.44c-0.06,0.16-0.09,0.33-0.09,0.51s0.03,0.35,0.09,0.51
		c0.06,0.16,0.15,0.31,0.26,0.43s0.24,0.22,0.4,0.3s0.33,0.11,0.52,0.11c0.21,0,0.39-0.04,0.54-0.11c0.16-0.08,0.29-0.18,0.39-0.3
		c0.11-0.13,0.19-0.27,0.24-0.44C56.73,505.88,56.76,505.71,56.76,505.53z"/>
	<path class="st0" d="M61.57,506.82c-0.14,0.23-0.34,0.4-0.58,0.52s-0.5,0.18-0.77,0.18c-0.29,0-0.55-0.05-0.79-0.16
		s-0.43-0.25-0.6-0.42s-0.29-0.39-0.38-0.64c-0.09-0.24-0.13-0.5-0.13-0.78c0-0.28,0.04-0.53,0.13-0.77
		c0.09-0.24,0.22-0.45,0.39-0.63c0.17-0.18,0.37-0.32,0.6-0.42s0.49-0.15,0.77-0.15c0.31,0,0.57,0.06,0.8,0.19
		c0.23,0.13,0.41,0.29,0.54,0.47h0.02v-2.8h0.75v6h-0.72v-0.6H61.57z M59.09,505.53c0,0.17,0.03,0.34,0.08,0.51
		c0.05,0.16,0.13,0.31,0.24,0.44c0.11,0.13,0.24,0.23,0.39,0.3c0.15,0.08,0.33,0.11,0.54,0.11c0.19,0,0.36-0.04,0.52-0.11
		c0.16-0.07,0.29-0.17,0.4-0.3s0.2-0.27,0.26-0.43c0.06-0.16,0.09-0.33,0.09-0.51s-0.03-0.35-0.09-0.51
		c-0.06-0.16-0.15-0.31-0.26-0.44s-0.25-0.23-0.4-0.3c-0.16-0.07-0.33-0.11-0.52-0.11c-0.21,0-0.39,0.04-0.54,0.11
		c-0.15,0.07-0.28,0.17-0.39,0.3s-0.19,0.27-0.24,0.44C59.12,505.19,59.09,505.36,59.09,505.53z"/>
	<path class="st0" d="M67.42,505.53c0,0.29-0.05,0.56-0.15,0.8c-0.1,0.24-0.25,0.45-0.43,0.63c-0.18,0.18-0.4,0.32-0.65,0.41
		c-0.25,0.1-0.52,0.15-0.8,0.15c-0.29,0-0.55-0.05-0.8-0.15c-0.25-0.1-0.46-0.24-0.64-0.41c-0.18-0.18-0.32-0.39-0.43-0.63
		c-0.1-0.24-0.15-0.51-0.15-0.8c0-0.29,0.05-0.56,0.15-0.8c0.1-0.24,0.25-0.45,0.43-0.62c0.18-0.17,0.39-0.31,0.64-0.41
		c0.25-0.1,0.52-0.15,0.8-0.15c0.29,0,0.55,0.05,0.8,0.15c0.25,0.1,0.46,0.23,0.65,0.41s0.33,0.38,0.43,0.62
		C67.37,504.97,67.42,505.24,67.42,505.53z M66.64,505.53c0-0.18-0.03-0.35-0.08-0.51c-0.06-0.16-0.14-0.31-0.24-0.43
		c-0.11-0.12-0.24-0.22-0.39-0.3c-0.16-0.07-0.34-0.11-0.54-0.11c-0.2,0-0.38,0.04-0.54,0.11c-0.16,0.07-0.29,0.17-0.39,0.3
		c-0.11,0.12-0.19,0.27-0.24,0.43c-0.06,0.16-0.08,0.33-0.08,0.51c0,0.18,0.03,0.35,0.08,0.51c0.06,0.16,0.14,0.31,0.24,0.44
		c0.11,0.13,0.24,0.23,0.39,0.3s0.34,0.11,0.54,0.11c0.2,0,0.38-0.04,0.54-0.11s0.29-0.17,0.39-0.3c0.11-0.13,0.19-0.27,0.24-0.44
		C66.62,505.88,66.64,505.71,66.64,505.53z"/>
	<path class="st0" d="M69.64,503.76c0.21-0.14,0.46-0.21,0.74-0.21c0.25,0,0.48,0.06,0.69,0.17c0.2,0.12,0.36,0.31,0.48,0.58
		c0.13-0.24,0.3-0.43,0.53-0.56s0.48-0.19,0.75-0.19c0.24,0,0.45,0.04,0.63,0.12s0.32,0.19,0.44,0.33c0.12,0.14,0.2,0.3,0.26,0.48
		s0.08,0.38,0.08,0.6v2.33h-0.75v-2.09c0-0.15-0.01-0.3-0.04-0.44c-0.03-0.14-0.07-0.26-0.14-0.37c-0.06-0.11-0.15-0.19-0.25-0.25
		s-0.24-0.1-0.41-0.1c-0.17,0-0.31,0.04-0.44,0.11c-0.12,0.07-0.22,0.16-0.3,0.28c-0.08,0.11-0.13,0.24-0.17,0.39
		c-0.03,0.14-0.05,0.29-0.05,0.44v2.03h-0.75v-2.24c0-0.15-0.01-0.28-0.04-0.41c-0.03-0.12-0.07-0.23-0.13-0.31
		c-0.06-0.09-0.15-0.16-0.25-0.21c-0.1-0.05-0.23-0.08-0.37-0.08c-0.28,0-0.5,0.11-0.69,0.34c-0.18,0.22-0.27,0.53-0.27,0.9v2h-0.75
		v-2.95c0-0.1,0-0.23-0.01-0.39c-0.01-0.16-0.01-0.3-0.02-0.42h0.71c0.01,0.1,0.02,0.2,0.02,0.32c0,0.12,0.01,0.22,0.01,0.3h0.02
		C69.28,504.07,69.43,503.9,69.64,503.76z"/>
	<path class="st0" d="M79.02,505.5c0,0.04,0,0.08,0,0.13c0,0.04,0,0.08-0.01,0.13h-2.99c0,0.16,0.04,0.31,0.11,0.45
		c0.07,0.14,0.15,0.26,0.27,0.36s0.24,0.18,0.39,0.24c0.15,0.06,0.3,0.09,0.46,0.09c0.25,0,0.47-0.06,0.66-0.17
		c0.19-0.11,0.33-0.25,0.44-0.4l0.52,0.42c-0.2,0.27-0.44,0.46-0.71,0.59c-0.27,0.13-0.58,0.19-0.91,0.19
		c-0.29,0-0.55-0.05-0.79-0.14c-0.24-0.09-0.45-0.23-0.63-0.4s-0.31-0.38-0.41-0.62c-0.1-0.24-0.15-0.51-0.15-0.81
		c0-0.29,0.05-0.56,0.15-0.81s0.23-0.46,0.41-0.63s0.38-0.31,0.62-0.41c0.24-0.1,0.5-0.15,0.77-0.15s0.53,0.04,0.75,0.13
		c0.23,0.09,0.42,0.22,0.57,0.39c0.16,0.17,0.28,0.38,0.36,0.62C78.97,504.93,79.02,505.2,79.02,505.5z M78.25,505.2
		c-0.01-0.15-0.03-0.29-0.08-0.42c-0.05-0.13-0.11-0.24-0.2-0.34c-0.09-0.1-0.2-0.17-0.33-0.23s-0.28-0.08-0.46-0.08
		c-0.16,0-0.31,0.03-0.45,0.08s-0.26,0.13-0.37,0.23c-0.1,0.09-0.19,0.21-0.25,0.34c-0.07,0.13-0.1,0.27-0.11,0.42H78.25z"/>
	<path class="st0" d="M80.72,503.65c0.01,0.1,0.02,0.2,0.02,0.32c0,0.12,0.01,0.22,0.01,0.3h0.02c0.05-0.1,0.11-0.2,0.19-0.28
		c0.08-0.09,0.18-0.16,0.28-0.23s0.22-0.12,0.35-0.15s0.26-0.06,0.4-0.06c0.24,0,0.45,0.04,0.63,0.12c0.17,0.08,0.32,0.19,0.44,0.33
		c0.12,0.14,0.2,0.3,0.26,0.48c0.06,0.19,0.08,0.38,0.08,0.6v2.33h-0.75v-2.09c0-0.15-0.01-0.3-0.04-0.44
		c-0.03-0.14-0.07-0.26-0.13-0.37c-0.06-0.11-0.15-0.19-0.26-0.25s-0.25-0.1-0.43-0.1c-0.3,0-0.54,0.11-0.73,0.34
		c-0.19,0.22-0.28,0.53-0.28,0.9v2h-0.75v-2.95c0-0.1,0-0.23-0.01-0.39c-0.01-0.16-0.01-0.3-0.02-0.42H80.72z"/>
	<path class="st0" d="M89,504.98c0-0.28-0.08-0.49-0.25-0.62c-0.17-0.13-0.39-0.2-0.67-0.2c-0.21,0-0.41,0.04-0.6,0.12
		c-0.19,0.08-0.34,0.19-0.47,0.31l-0.4-0.48c0.18-0.17,0.41-0.31,0.68-0.41s0.55-0.15,0.86-0.15c0.27,0,0.5,0.04,0.7,0.12
		c0.2,0.08,0.36,0.18,0.49,0.31c0.13,0.13,0.22,0.29,0.29,0.47c0.06,0.18,0.1,0.37,0.1,0.58v1.64c0,0.13,0,0.26,0.01,0.4
		c0.01,0.14,0.02,0.26,0.04,0.35h-0.68c-0.04-0.18-0.06-0.36-0.06-0.54h-0.02c-0.14,0.2-0.31,0.36-0.52,0.47s-0.46,0.17-0.74,0.17
		c-0.15,0-0.3-0.02-0.46-0.06c-0.16-0.04-0.31-0.1-0.44-0.2c-0.13-0.09-0.24-0.21-0.33-0.36c-0.09-0.15-0.13-0.33-0.13-0.55
		c0-0.29,0.08-0.51,0.23-0.68s0.35-0.29,0.6-0.38c0.25-0.09,0.53-0.14,0.84-0.17s0.63-0.04,0.95-0.04V504.98z M88.82,505.62
		c-0.19,0-0.38,0.01-0.58,0.02c-0.2,0.02-0.38,0.05-0.54,0.09s-0.29,0.12-0.4,0.21c-0.11,0.09-0.16,0.22-0.16,0.38
		c0,0.11,0.02,0.2,0.07,0.28s0.1,0.13,0.18,0.18c0.07,0.05,0.16,0.08,0.25,0.1s0.18,0.03,0.28,0.03c0.35,0,0.62-0.1,0.81-0.31
		c0.19-0.21,0.28-0.47,0.28-0.79v-0.2H88.82z"/>
	<path class="st0" d="M91.64,503.65c0.01,0.1,0.02,0.2,0.02,0.32c0.01,0.12,0.01,0.22,0.01,0.3h0.02c0.05-0.1,0.11-0.2,0.19-0.28
		c0.08-0.09,0.18-0.16,0.28-0.23c0.11-0.07,0.22-0.12,0.35-0.15s0.26-0.06,0.4-0.06c0.24,0,0.45,0.04,0.63,0.12s0.32,0.19,0.44,0.33
		s0.2,0.3,0.26,0.48s0.08,0.38,0.08,0.6v2.33h-0.75v-2.09c0-0.15-0.01-0.3-0.04-0.44c-0.02-0.14-0.07-0.26-0.13-0.37
		c-0.06-0.11-0.15-0.19-0.26-0.25s-0.25-0.1-0.43-0.1c-0.3,0-0.54,0.11-0.73,0.34c-0.19,0.22-0.28,0.53-0.28,0.9v2h-0.75v-2.95
		c0-0.1,0-0.23-0.01-0.39c-0.01-0.16-0.01-0.3-0.02-0.42H91.64z"/>
	<path class="st0" d="M98.58,506.82c-0.14,0.23-0.34,0.4-0.58,0.52s-0.5,0.18-0.77,0.18c-0.29,0-0.55-0.05-0.79-0.16
		s-0.43-0.25-0.6-0.42s-0.29-0.39-0.38-0.64c-0.09-0.24-0.14-0.5-0.14-0.78c0-0.28,0.04-0.53,0.14-0.77
		c0.09-0.24,0.22-0.45,0.38-0.63s0.37-0.32,0.6-0.42s0.49-0.15,0.77-0.15c0.31,0,0.57,0.06,0.8,0.19s0.41,0.29,0.54,0.47h0.02v-2.8
		h0.75v6H98.6v-0.6H98.58z M96.11,505.53c0,0.17,0.03,0.34,0.08,0.51c0.05,0.16,0.13,0.31,0.24,0.44c0.11,0.13,0.24,0.23,0.39,0.3
		c0.15,0.08,0.33,0.11,0.54,0.11c0.19,0,0.36-0.04,0.52-0.11s0.29-0.17,0.4-0.3c0.11-0.12,0.2-0.27,0.26-0.43
		c0.06-0.16,0.09-0.33,0.09-0.51s-0.03-0.35-0.09-0.51c-0.06-0.16-0.15-0.31-0.26-0.44c-0.11-0.13-0.25-0.23-0.4-0.3
		c-0.16-0.07-0.33-0.11-0.52-0.11c-0.21,0-0.39,0.04-0.54,0.11c-0.15,0.07-0.28,0.17-0.39,0.3c-0.11,0.13-0.19,0.27-0.24,0.44
		C96.13,505.19,96.11,505.36,96.11,505.53z"/>
	<path class="st0" d="M103.35,506.82v0.6h-0.72v-6h0.75v2.8h0.02c0.13-0.19,0.3-0.34,0.53-0.47c0.23-0.13,0.5-0.19,0.81-0.19
		c0.28,0,0.53,0.05,0.76,0.15c0.23,0.1,0.43,0.24,0.59,0.42s0.29,0.39,0.38,0.63c0.09,0.24,0.13,0.5,0.13,0.77
		c0,0.27-0.04,0.53-0.13,0.78c-0.09,0.24-0.22,0.46-0.38,0.64s-0.36,0.32-0.59,0.42s-0.49,0.16-0.79,0.16
		c-0.27,0-0.53-0.06-0.77-0.18c-0.24-0.12-0.44-0.29-0.59-0.52H103.35z M105.85,505.53c0-0.17-0.03-0.34-0.08-0.51
		c-0.05-0.16-0.13-0.31-0.24-0.44c-0.11-0.13-0.24-0.23-0.39-0.3c-0.16-0.07-0.34-0.11-0.54-0.11c-0.19,0-0.36,0.04-0.52,0.11
		c-0.16,0.07-0.29,0.17-0.4,0.3c-0.11,0.13-0.2,0.27-0.26,0.44c-0.06,0.16-0.09,0.33-0.09,0.51s0.03,0.35,0.09,0.51
		c0.06,0.16,0.15,0.31,0.26,0.43c0.11,0.12,0.25,0.22,0.4,0.3s0.33,0.11,0.52,0.11c0.21,0,0.39-0.04,0.54-0.11
		c0.16-0.08,0.29-0.18,0.39-0.3c0.11-0.13,0.19-0.27,0.24-0.44C105.82,505.88,105.85,505.71,105.85,505.53z"/>
	<path class="st0" d="M110.31,507.42c-0.01-0.1-0.02-0.2-0.02-0.32c0-0.12-0.01-0.22-0.01-0.3h-0.02c-0.09,0.2-0.26,0.37-0.48,0.51
		c-0.22,0.14-0.48,0.21-0.75,0.21c-0.24,0-0.45-0.04-0.63-0.12c-0.18-0.08-0.32-0.19-0.44-0.33c-0.11-0.14-0.2-0.3-0.25-0.49
		c-0.06-0.19-0.08-0.38-0.08-0.6v-2.33h0.75v2.08c0,0.15,0.01,0.3,0.04,0.44c0.02,0.14,0.07,0.26,0.13,0.37
		c0.06,0.11,0.15,0.19,0.26,0.25s0.25,0.09,0.43,0.09c0.3,0,0.54-0.11,0.73-0.34c0.19-0.23,0.28-0.53,0.28-0.9v-2h0.75v2.96
		c0,0.1,0,0.23,0.01,0.39c0.01,0.16,0.01,0.3,0.02,0.42H110.31z"/>
	<path class="st0" d="M114.13,504.26h-1v1.96c0,0.23,0.04,0.39,0.13,0.49s0.22,0.15,0.41,0.15c0.07,0,0.14-0.01,0.22-0.02
		c0.08-0.01,0.15-0.04,0.21-0.07l0.02,0.61c-0.09,0.03-0.19,0.06-0.3,0.08s-0.22,0.03-0.34,0.03c-0.36,0-0.63-0.1-0.81-0.29
		c-0.19-0.2-0.28-0.49-0.28-0.88v-2.04h-0.72v-0.61h0.72v-1.08h0.74v1.08h1V504.26z"/>
	<path class="st0" d="M116.62,504.26h-1v1.96c0,0.23,0.04,0.39,0.13,0.49s0.22,0.15,0.41,0.15c0.07,0,0.14-0.01,0.22-0.02
		c0.08-0.01,0.15-0.04,0.21-0.07l0.02,0.61c-0.09,0.03-0.19,0.06-0.3,0.08s-0.22,0.03-0.34,0.03c-0.36,0-0.63-0.1-0.81-0.29
		c-0.19-0.2-0.28-0.49-0.28-0.88v-2.04h-0.72v-0.61h0.72v-1.08h0.74v1.08h1V504.26z"/>
	<path class="st0" d="M121.2,505.53c0,0.29-0.05,0.56-0.15,0.8c-0.1,0.24-0.25,0.45-0.43,0.63c-0.18,0.18-0.4,0.32-0.65,0.41
		c-0.25,0.1-0.52,0.15-0.8,0.15c-0.29,0-0.55-0.05-0.8-0.15c-0.25-0.1-0.46-0.24-0.64-0.41c-0.18-0.18-0.32-0.39-0.42-0.63
		s-0.15-0.51-0.15-0.8c0-0.29,0.05-0.56,0.15-0.8c0.1-0.24,0.25-0.45,0.42-0.62c0.18-0.17,0.39-0.31,0.64-0.41s0.52-0.15,0.8-0.15
		c0.29,0,0.55,0.05,0.8,0.15c0.25,0.1,0.46,0.23,0.65,0.41c0.18,0.17,0.33,0.38,0.43,0.62C121.15,504.97,121.2,505.24,121.2,505.53z
		 M120.42,505.53c0-0.18-0.03-0.35-0.08-0.51c-0.06-0.16-0.14-0.31-0.24-0.43s-0.24-0.22-0.39-0.3c-0.16-0.07-0.34-0.11-0.54-0.11
		c-0.2,0-0.38,0.04-0.54,0.11c-0.16,0.07-0.29,0.17-0.39,0.3s-0.19,0.27-0.24,0.43c-0.06,0.16-0.08,0.33-0.08,0.51
		c0,0.18,0.03,0.35,0.08,0.51c0.06,0.16,0.14,0.31,0.24,0.44c0.11,0.13,0.24,0.23,0.39,0.3c0.16,0.07,0.34,0.11,0.54,0.11
		c0.2,0,0.38-0.04,0.54-0.11c0.16-0.07,0.29-0.17,0.39-0.3c0.11-0.13,0.19-0.27,0.24-0.44C120.4,505.88,120.42,505.71,120.42,505.53
		z"/>
	<path class="st0" d="M124.87,504.61c-0.08-0.12-0.2-0.22-0.36-0.31c-0.16-0.08-0.33-0.12-0.51-0.12c-0.2,0-0.37,0.04-0.52,0.11
		c-0.15,0.07-0.28,0.17-0.39,0.3c-0.11,0.12-0.19,0.27-0.24,0.43s-0.08,0.34-0.08,0.52c0,0.18,0.03,0.35,0.08,0.52
		s0.14,0.31,0.24,0.43c0.11,0.12,0.24,0.22,0.39,0.3c0.15,0.07,0.33,0.11,0.52,0.11c0.19,0,0.36-0.04,0.52-0.11
		c0.16-0.07,0.28-0.17,0.38-0.3l0.5,0.45c-0.16,0.19-0.36,0.33-0.6,0.43s-0.51,0.16-0.81,0.16c-0.29,0-0.56-0.05-0.81-0.14
		c-0.25-0.09-0.46-0.23-0.64-0.4c-0.18-0.17-0.32-0.38-0.42-0.62c-0.1-0.24-0.15-0.52-0.15-0.82c0-0.3,0.05-0.57,0.15-0.81
		c0.1-0.24,0.24-0.45,0.42-0.63s0.39-0.31,0.64-0.41s0.51-0.14,0.8-0.14c0.26,0,0.53,0.05,0.79,0.16c0.26,0.11,0.47,0.26,0.62,0.46
		L124.87,504.61z"/>
	<path class="st0" d="M126.92,505.29h0.02l1.58-1.64h1l-1.76,1.71l1.91,2.06h-1.03l-1.7-1.95h-0.02v1.95h-0.75v-6h0.75V505.29z"/>
	<path class="st0" d="M132.33,504.61c-0.08-0.14-0.2-0.25-0.36-0.34c-0.15-0.09-0.33-0.13-0.52-0.13c-0.08,0-0.17,0.01-0.25,0.03
		c-0.08,0.02-0.16,0.05-0.23,0.09c-0.07,0.04-0.12,0.09-0.16,0.15c-0.04,0.06-0.06,0.14-0.06,0.23c0,0.16,0.07,0.28,0.21,0.35
		c0.14,0.08,0.36,0.15,0.64,0.21c0.18,0.04,0.35,0.09,0.5,0.15c0.15,0.06,0.29,0.13,0.4,0.22c0.11,0.09,0.2,0.19,0.27,0.31
		c0.06,0.12,0.1,0.27,0.1,0.43c0,0.22-0.04,0.41-0.13,0.56c-0.08,0.15-0.2,0.28-0.34,0.38c-0.14,0.1-0.3,0.17-0.48,0.21
		c-0.18,0.04-0.37,0.06-0.56,0.06c-0.29,0-0.57-0.06-0.84-0.17c-0.27-0.11-0.5-0.28-0.68-0.51l0.53-0.45
		c0.1,0.15,0.24,0.27,0.42,0.37c0.18,0.1,0.37,0.15,0.58,0.15c0.1,0,0.19-0.01,0.27-0.03c0.09-0.02,0.17-0.05,0.24-0.09
		c0.07-0.04,0.13-0.1,0.17-0.17c0.04-0.07,0.06-0.16,0.06-0.26c0-0.17-0.08-0.3-0.25-0.39s-0.41-0.16-0.73-0.24
		c-0.13-0.03-0.26-0.07-0.38-0.12c-0.13-0.04-0.25-0.11-0.35-0.19c-0.11-0.08-0.19-0.18-0.26-0.3c-0.07-0.12-0.1-0.27-0.1-0.44
		c0-0.2,0.04-0.38,0.12-0.52s0.19-0.26,0.32-0.36c0.13-0.09,0.28-0.16,0.45-0.21c0.17-0.04,0.34-0.07,0.52-0.07
		c0.27,0,0.53,0.05,0.78,0.16c0.25,0.11,0.45,0.26,0.58,0.46L132.33,504.61z"/>
	<path class="st0" d="M134.74,506.94c0,0.14-0.05,0.26-0.15,0.37c-0.1,0.11-0.23,0.16-0.38,0.16c-0.15,0-0.27-0.05-0.38-0.16
		s-0.16-0.22-0.16-0.36c0-0.14,0.05-0.27,0.15-0.37s0.23-0.16,0.38-0.16s0.28,0.05,0.38,0.15
		C134.69,506.68,134.74,506.8,134.74,506.94z"/>
	<path class="st0" d="M49.64,516.35h-0.79v-5.62h1.8c0.27,0,0.53,0.03,0.77,0.08c0.24,0.06,0.46,0.14,0.64,0.27
		c0.18,0.12,0.33,0.28,0.43,0.48s0.16,0.44,0.16,0.73c0,0.41-0.13,0.75-0.38,1c-0.25,0.25-0.58,0.42-0.98,0.48l1.57,2.58h-0.95
		l-1.43-2.5h-0.84V516.35z M49.64,513.19h0.91c0.19,0,0.36-0.02,0.52-0.05c0.16-0.03,0.3-0.08,0.42-0.16s0.21-0.16,0.28-0.28
		c0.07-0.11,0.1-0.25,0.1-0.42c0-0.17-0.03-0.31-0.1-0.42c-0.07-0.11-0.16-0.21-0.27-0.27c-0.11-0.07-0.25-0.12-0.4-0.15
		c-0.15-0.03-0.31-0.04-0.48-0.04h-0.96V513.19z"/>
	<path class="st0" d="M57.11,514.44c0,0.04,0,0.08,0,0.13c0,0.04,0,0.08-0.01,0.13h-2.99c0,0.16,0.04,0.31,0.11,0.45
		c0.07,0.14,0.15,0.26,0.27,0.36s0.24,0.18,0.39,0.24c0.15,0.06,0.3,0.09,0.46,0.09c0.25,0,0.47-0.06,0.66-0.17
		c0.19-0.11,0.33-0.25,0.44-0.4l0.52,0.42c-0.2,0.27-0.44,0.46-0.71,0.59c-0.27,0.13-0.58,0.19-0.91,0.19
		c-0.29,0-0.55-0.05-0.79-0.14c-0.24-0.09-0.45-0.23-0.63-0.4s-0.31-0.38-0.41-0.62c-0.1-0.24-0.15-0.51-0.15-0.81
		c0-0.29,0.05-0.56,0.15-0.81s0.23-0.46,0.41-0.63s0.38-0.31,0.62-0.41c0.24-0.1,0.5-0.15,0.77-0.15s0.53,0.04,0.75,0.13
		c0.23,0.09,0.42,0.22,0.57,0.39c0.16,0.17,0.28,0.38,0.36,0.62C57.07,513.87,57.11,514.14,57.11,514.44z M56.35,514.14
		c-0.01-0.15-0.03-0.29-0.08-0.42c-0.05-0.13-0.11-0.24-0.2-0.34c-0.09-0.1-0.2-0.17-0.33-0.23s-0.28-0.08-0.46-0.08
		c-0.16,0-0.31,0.03-0.45,0.08s-0.26,0.13-0.37,0.23c-0.1,0.09-0.19,0.21-0.25,0.34c-0.07,0.13-0.1,0.27-0.11,0.42H56.35z"/>
	<path class="st0" d="M60.18,513.54c-0.08-0.14-0.2-0.25-0.36-0.34c-0.15-0.09-0.33-0.13-0.52-0.13c-0.08,0-0.17,0.01-0.25,0.03
		c-0.08,0.02-0.16,0.05-0.23,0.09c-0.07,0.04-0.12,0.09-0.16,0.15c-0.04,0.06-0.06,0.14-0.06,0.23c0,0.16,0.07,0.28,0.21,0.35
		c0.14,0.08,0.36,0.15,0.64,0.21c0.18,0.04,0.35,0.09,0.5,0.15c0.15,0.06,0.29,0.13,0.4,0.22c0.11,0.09,0.2,0.19,0.27,0.31
		c0.06,0.12,0.1,0.27,0.1,0.43c0,0.22-0.04,0.41-0.13,0.56s-0.2,0.28-0.34,0.38c-0.14,0.1-0.3,0.17-0.48,0.21
		c-0.18,0.04-0.37,0.06-0.56,0.06c-0.29,0-0.56-0.06-0.84-0.17c-0.27-0.11-0.5-0.28-0.68-0.51l0.53-0.45
		c0.1,0.15,0.24,0.27,0.42,0.37c0.18,0.1,0.37,0.15,0.58,0.15c0.1,0,0.19-0.01,0.27-0.03s0.17-0.05,0.24-0.09
		c0.07-0.04,0.13-0.1,0.17-0.17c0.04-0.07,0.06-0.16,0.06-0.26c0-0.17-0.08-0.3-0.25-0.39c-0.17-0.08-0.41-0.16-0.73-0.24
		c-0.13-0.03-0.26-0.07-0.39-0.12s-0.25-0.11-0.35-0.19s-0.19-0.18-0.26-0.3c-0.07-0.12-0.1-0.27-0.1-0.44
		c0-0.2,0.04-0.38,0.12-0.52c0.08-0.15,0.19-0.26,0.32-0.36s0.28-0.16,0.45-0.21s0.34-0.07,0.52-0.07c0.27,0,0.53,0.05,0.78,0.16
		c0.25,0.11,0.45,0.26,0.58,0.46L60.18,513.54z"/>
	<path class="st0" d="M64.32,516.35c-0.01-0.1-0.02-0.2-0.02-0.32s-0.01-0.22-0.01-0.3h-0.02c-0.1,0.2-0.26,0.37-0.48,0.51
		c-0.23,0.14-0.48,0.21-0.75,0.21c-0.24,0-0.45-0.04-0.63-0.12c-0.18-0.08-0.32-0.19-0.44-0.33c-0.11-0.14-0.2-0.3-0.25-0.49
		s-0.08-0.38-0.08-0.6v-2.33h0.75v2.08c0,0.15,0.01,0.3,0.04,0.44c0.02,0.14,0.07,0.26,0.13,0.37c0.06,0.11,0.15,0.19,0.26,0.25
		c0.11,0.06,0.25,0.09,0.43,0.09c0.3,0,0.54-0.11,0.73-0.34c0.19-0.23,0.28-0.53,0.28-0.9v-2H65v2.96c0,0.1,0,0.23,0.01,0.39
		c0,0.16,0.01,0.3,0.02,0.42H64.32z"/>
	<path class="st0" d="M67.06,516.35h-0.75v-6h0.75V516.35z"/>
	<path class="st0" d="M70.2,513.2h-1v1.96c0,0.23,0.04,0.39,0.13,0.49c0.08,0.1,0.22,0.15,0.4,0.15c0.07,0,0.14-0.01,0.22-0.02
		c0.08-0.01,0.15-0.04,0.21-0.07l0.02,0.61c-0.09,0.03-0.19,0.06-0.3,0.08c-0.11,0.02-0.22,0.03-0.34,0.03
		c-0.35,0-0.63-0.1-0.81-0.29c-0.19-0.2-0.28-0.49-0.28-0.88v-2.04h-0.72v-0.61h0.72v-1.08h0.74v1.08h1V513.2z"/>
	<path class="st0" d="M73,513.54c-0.08-0.14-0.2-0.25-0.36-0.34c-0.15-0.09-0.33-0.13-0.52-0.13c-0.08,0-0.17,0.01-0.25,0.03
		c-0.08,0.02-0.16,0.05-0.23,0.09c-0.07,0.04-0.12,0.09-0.16,0.15c-0.04,0.06-0.06,0.14-0.06,0.23c0,0.16,0.07,0.28,0.21,0.35
		c0.14,0.08,0.36,0.15,0.64,0.21c0.18,0.04,0.35,0.09,0.5,0.15c0.15,0.06,0.29,0.13,0.4,0.22c0.11,0.09,0.2,0.19,0.27,0.31
		c0.06,0.12,0.1,0.27,0.1,0.43c0,0.22-0.04,0.41-0.13,0.56s-0.2,0.28-0.34,0.38c-0.14,0.1-0.3,0.17-0.48,0.21
		c-0.18,0.04-0.37,0.06-0.56,0.06c-0.29,0-0.56-0.06-0.84-0.17c-0.27-0.11-0.5-0.28-0.68-0.51l0.53-0.45
		c0.1,0.15,0.24,0.27,0.42,0.37c0.18,0.1,0.37,0.15,0.58,0.15c0.1,0,0.19-0.01,0.27-0.03s0.17-0.05,0.24-0.09
		c0.07-0.04,0.13-0.1,0.17-0.17c0.04-0.07,0.06-0.16,0.06-0.26c0-0.17-0.08-0.3-0.25-0.39c-0.17-0.08-0.41-0.16-0.73-0.24
		c-0.13-0.03-0.26-0.07-0.39-0.12s-0.25-0.11-0.35-0.19s-0.19-0.18-0.26-0.3c-0.07-0.12-0.1-0.27-0.1-0.44
		c0-0.2,0.04-0.38,0.12-0.52c0.08-0.15,0.19-0.26,0.32-0.36s0.28-0.16,0.45-0.21s0.34-0.07,0.52-0.07c0.27,0,0.53,0.05,0.78,0.16
		c0.25,0.11,0.45,0.26,0.58,0.46L73,513.54z"/>
	<path class="st0" d="M77.67,512.7c0.21-0.14,0.46-0.21,0.74-0.21c0.25,0,0.48,0.06,0.69,0.17c0.2,0.12,0.36,0.31,0.48,0.58
		c0.13-0.24,0.3-0.43,0.53-0.56s0.48-0.19,0.75-0.19c0.24,0,0.45,0.04,0.63,0.12c0.17,0.08,0.32,0.19,0.44,0.33
		c0.12,0.14,0.2,0.3,0.26,0.48c0.05,0.19,0.08,0.38,0.08,0.6v2.33h-0.75v-2.09c0-0.15-0.01-0.3-0.04-0.44
		c-0.03-0.14-0.07-0.26-0.14-0.37c-0.06-0.11-0.15-0.19-0.25-0.25c-0.11-0.06-0.24-0.1-0.41-0.1c-0.17,0-0.31,0.04-0.44,0.11
		c-0.12,0.07-0.22,0.16-0.3,0.28c-0.08,0.11-0.13,0.24-0.17,0.39c-0.03,0.14-0.05,0.29-0.05,0.44v2.03h-0.75v-2.24
		c0-0.15-0.01-0.28-0.04-0.41c-0.03-0.12-0.07-0.23-0.13-0.31c-0.06-0.09-0.15-0.16-0.25-0.21c-0.1-0.05-0.23-0.08-0.37-0.08
		c-0.28,0-0.5,0.11-0.69,0.34c-0.18,0.22-0.27,0.53-0.27,0.9v2h-0.75v-2.95c0-0.1,0-0.23-0.01-0.39c-0.01-0.16-0.01-0.3-0.02-0.42
		h0.71c0.01,0.1,0.02,0.2,0.02,0.32c0,0.12,0.01,0.22,0.01,0.3h0.02C77.31,513.01,77.46,512.84,77.67,512.7z"/>
	<path class="st0" d="M85.87,513.91c0-0.28-0.08-0.49-0.25-0.62c-0.17-0.13-0.39-0.2-0.67-0.2c-0.21,0-0.41,0.04-0.6,0.12
		c-0.19,0.08-0.34,0.19-0.47,0.31l-0.4-0.48c0.18-0.17,0.41-0.31,0.68-0.41s0.55-0.15,0.86-0.15c0.27,0,0.5,0.04,0.7,0.12
		c0.2,0.08,0.36,0.18,0.49,0.31c0.13,0.13,0.22,0.29,0.29,0.47c0.06,0.18,0.1,0.37,0.1,0.58v1.64c0,0.13,0,0.26,0.01,0.4
		c0.01,0.14,0.02,0.26,0.04,0.35h-0.68c-0.04-0.18-0.06-0.36-0.06-0.54h-0.02c-0.14,0.2-0.31,0.36-0.52,0.47s-0.46,0.17-0.74,0.17
		c-0.15,0-0.3-0.02-0.46-0.06c-0.16-0.04-0.31-0.1-0.44-0.2c-0.13-0.09-0.24-0.21-0.33-0.36c-0.09-0.15-0.13-0.33-0.13-0.55
		c0-0.29,0.08-0.51,0.23-0.68s0.35-0.29,0.6-0.38c0.25-0.09,0.53-0.14,0.84-0.17s0.63-0.04,0.95-0.04V513.91z M85.69,514.56
		c-0.19,0-0.38,0.01-0.58,0.02c-0.2,0.02-0.38,0.05-0.54,0.09s-0.29,0.12-0.4,0.21c-0.11,0.09-0.16,0.22-0.16,0.38
		c0,0.11,0.02,0.2,0.07,0.28s0.1,0.13,0.18,0.18c0.07,0.05,0.16,0.08,0.25,0.1s0.18,0.03,0.28,0.03c0.35,0,0.62-0.1,0.81-0.31
		c0.19-0.21,0.28-0.47,0.28-0.79v-0.2H85.69z"/>
	<path class="st0" d="M89.26,515.54h0.02l1.04-2.96h0.79l-1.83,4.65c-0.06,0.16-0.13,0.3-0.21,0.42c-0.07,0.12-0.16,0.23-0.26,0.32
		c-0.1,0.09-0.22,0.16-0.35,0.2c-0.13,0.05-0.29,0.07-0.48,0.07c-0.08,0-0.16,0-0.24-0.01c-0.08-0.01-0.17-0.02-0.25-0.04l0.07-0.66
		c0.13,0.04,0.25,0.06,0.37,0.06c0.2,0,0.34-0.05,0.44-0.16c0.09-0.11,0.18-0.26,0.26-0.46l0.24-0.63l-1.61-3.76h0.83L89.26,515.54z
		"/>
	<path class="st0" d="M95.59,516.35h-0.81l-1.53-3.76h0.83l1.1,2.96h0.02l1.11-2.96h0.79L95.59,516.35z"/>
	<path class="st0" d="M100.17,513.91c0-0.28-0.08-0.49-0.25-0.62c-0.17-0.13-0.39-0.2-0.67-0.2c-0.21,0-0.41,0.04-0.6,0.12
		c-0.19,0.08-0.34,0.19-0.47,0.31l-0.4-0.48c0.18-0.17,0.41-0.31,0.68-0.41s0.55-0.15,0.86-0.15c0.27,0,0.5,0.04,0.7,0.12
		c0.2,0.08,0.36,0.18,0.49,0.31c0.13,0.13,0.22,0.29,0.29,0.47c0.06,0.18,0.1,0.37,0.1,0.58v1.64c0,0.13,0,0.26,0.01,0.4
		c0.01,0.14,0.02,0.26,0.04,0.35h-0.68c-0.04-0.18-0.06-0.36-0.06-0.54h-0.02c-0.14,0.2-0.31,0.36-0.52,0.47s-0.46,0.17-0.74,0.17
		c-0.15,0-0.3-0.02-0.46-0.06c-0.16-0.04-0.31-0.1-0.44-0.2c-0.13-0.09-0.24-0.21-0.33-0.36c-0.09-0.15-0.13-0.33-0.13-0.55
		c0-0.29,0.08-0.51,0.23-0.68s0.35-0.29,0.6-0.38c0.25-0.09,0.53-0.14,0.84-0.17s0.63-0.04,0.95-0.04V513.91z M99.98,514.56
		c-0.19,0-0.38,0.01-0.58,0.02c-0.2,0.02-0.38,0.05-0.54,0.09s-0.29,0.12-0.4,0.21c-0.11,0.09-0.16,0.22-0.16,0.38
		c0,0.11,0.02,0.2,0.07,0.28s0.1,0.13,0.18,0.18c0.07,0.05,0.16,0.08,0.25,0.1s0.18,0.03,0.28,0.03c0.35,0,0.62-0.1,0.81-0.31
		c0.19-0.21,0.28-0.47,0.28-0.79v-0.2H99.98z"/>
	<path class="st0" d="M102.12,513.01c-0.01-0.16-0.01-0.3-0.02-0.42h0.71c0.01,0.1,0.02,0.21,0.02,0.33
		c0.01,0.12,0.01,0.23,0.01,0.31h0.02c0.11-0.22,0.26-0.4,0.46-0.54c0.2-0.13,0.43-0.2,0.69-0.2c0.12,0,0.21,0.01,0.29,0.03
		l-0.03,0.69c-0.11-0.03-0.22-0.04-0.34-0.04c-0.18,0-0.34,0.03-0.47,0.1c-0.13,0.07-0.24,0.15-0.33,0.27
		c-0.09,0.11-0.15,0.24-0.19,0.38c-0.04,0.15-0.06,0.3-0.06,0.46v1.98h-0.75v-2.95C102.13,513.3,102.12,513.17,102.12,513.01z"/>
	<path class="st0" d="M106.43,515.54h0.02l1.04-2.96h0.79l-1.83,4.65c-0.06,0.16-0.13,0.3-0.21,0.42c-0.07,0.12-0.16,0.23-0.26,0.32
		c-0.1,0.09-0.22,0.16-0.35,0.2c-0.13,0.05-0.29,0.07-0.48,0.07c-0.08,0-0.16,0-0.24-0.01c-0.08-0.01-0.17-0.02-0.25-0.04l0.07-0.66
		c0.13,0.04,0.25,0.06,0.37,0.06c0.2,0,0.34-0.05,0.44-0.16c0.09-0.11,0.18-0.26,0.26-0.46l0.24-0.63l-1.61-3.76h0.83L106.43,515.54
		z"/>
	<path class="st0" d="M109.64,515.88c0,0.14-0.05,0.26-0.15,0.37c-0.1,0.11-0.23,0.16-0.38,0.16c-0.15,0-0.27-0.05-0.38-0.16
		s-0.16-0.22-0.16-0.36c0-0.14,0.05-0.27,0.15-0.37s0.23-0.16,0.38-0.16s0.28,0.05,0.38,0.15
		C109.59,515.61,109.64,515.73,109.64,515.88z"/>
</g>
</svg>
