<?xml version="1.0" encoding="utf-8"?>
<!-- Generator: Adobe Illustrator 25.2.1, SVG Export Plug-In . SVG Version: 6.00 Build 0)  -->
<svg version="1.1" id="Layer_1" xmlns="http://www.w3.org/2000/svg" xmlns:xlink="http://www.w3.org/1999/xlink" x="0px" y="0px"
	 viewBox="0 0 160 600" style="enable-background:new 0 0 160 600;" xml:space="preserve">
<style type="text/css">
	.st0{fill:#FFFFFF;}
</style>
<g>
	<g>
		<g>
			<g>
				<path class="st0" d="M61.88,47.79c-2.12,0-3.14-1.54-3.14-3.02c0-1.71,1.24-3.08,3.18-3.08c0.66,0,1.34,0.2,1.88,0.66l-0.6,0.83
					c-0.37-0.29-0.77-0.39-1.25-0.39c-1.03,0-1.8,0.72-1.8,1.94c0,1.12,0.71,2.02,1.83,2.02c0.48,0,0.9-0.14,1.27-0.47l0.55,0.83
					C63.28,47.58,62.56,47.79,61.88,47.79"/>
				<path class="st0" d="M67.07,47.79c-1.78,0-3.08-1.34-3.08-3.08c0-1.79,1.43-3.02,3.08-3.02c1.65,0,3.09,1.22,3.09,3
					C70.17,46.46,68.86,47.79,67.07,47.79 M68.74,44.72c0-1.07-0.53-2-1.67-2c-1.12,0-1.67,0.93-1.67,1.99
					c0,1.1,0.52,2.07,1.67,2.07c1.15,0,1.67-0.97,1.67-2.07V44.72z"/>
				<path class="st0" d="M73.76,47.79c-1.78,0-3.08-1.34-3.08-3.08c0-1.79,1.43-3.02,3.08-3.02c1.65,0,3.09,1.22,3.09,3
					C76.86,46.46,75.55,47.79,73.76,47.79 M75.43,44.72c0-1.07-0.53-2-1.67-2c-1.12,0-1.67,0.93-1.67,1.99
					c0,1.1,0.52,2.07,1.67,2.07c1.15,0,1.67-0.97,1.67-2.07V44.72z"/>
				<polygon class="st0" points="77.55,47.65 77.55,39.11 78.89,39.84 78.89,47.65 				"/>
				<path class="st0" d="M81.96,47.83c-1.5,0-2.22-0.72-2.22-0.72l0.6-0.78c0,0,0.68,0.45,1.58,0.45c0.43,0,0.79-0.3,0.79-0.6
					c0-0.3-0.13-0.55-0.53-0.75c-0.4-0.2-0.84-0.42-1.19-0.58c-0.35-0.17-1.12-0.68-1.12-1.68c0-1.01,1.03-1.57,2.09-1.57
					c1.01,0,1.77,0.66,1.77,0.66l-0.52,0.79c0,0-0.58-0.41-1.21-0.41c-0.64,0-0.77,0.41-0.77,0.57c0,0.17,0.06,0.43,0.47,0.64
					c0.41,0.21,0.83,0.44,1.43,0.78c0.6,0.33,0.94,0.91,0.94,1.55S83.45,47.83,81.96,47.83"/>
				<path class="st0" d="M87.68,47.79c-2.12,0-3.14-1.54-3.14-3.02c0-1.71,1.24-3.08,3.18-3.08c0.66,0,1.34,0.2,1.88,0.66L89,43.19
					c-0.37-0.29-0.77-0.39-1.25-0.39c-1.03,0-1.8,0.72-1.8,1.94c0,1.12,0.71,2.02,1.83,2.02c0.48,0,0.9-0.14,1.27-0.47l0.55,0.83
					C89.08,47.58,88.36,47.79,87.68,47.79"/>
				<path class="st0" d="M94.24,46.97c0,0-0.67,0.82-1.94,0.82c-1.5,0-2.23-1.09-2.23-2.18v-3.78h1.33v3.72
					c0,0.64,0.5,1.18,1.28,1.18c0.68,0,1.36-0.81,1.36-0.81v-4.09h1.33v5.81L94.24,46.97z"/>
				<polygon class="st0" points="96.55,47.65 96.55,39.11 97.88,39.84 97.88,47.65 				"/>
				<path class="st0" d="M102.28,47.79c-1.17,0-1.85-0.66-1.85-0.66v2.9h-1.34v-8.32l1.34,0.7c0,0,0.72-0.73,1.92-0.73
					c1.26,0,2.83,0.97,2.83,3.12C105.19,46.97,103.64,47.79,102.28,47.79 M102.2,42.71c-1.14,0-1.8,1.06-1.8,1.06v2.19
					c0,0,0.76,0.85,1.85,0.85c1.27,0,1.55-1.51,1.55-2.04C103.8,44.25,103.68,42.71,102.2,42.71"/>
				<path class="st0" d="M108.69,47.8h-0.84c-1.06,0-1.42-1.01-1.42-1.68V42.7h-1.06v-0.87h1.06v-2.56h1.32v2.56h1.36v0.87h-1.34
					v3.1c0,0.35-0.06,0.89,0.53,0.89h0.96L108.69,47.8z"/>
				<path class="st0" d="M110.82,40.83c-0.48,0-0.88-0.39-0.88-0.87c0-0.48,0.4-0.87,0.88-0.87c0.48,0,0.88,0.39,0.88,0.87
					C111.7,40.43,111.3,40.83,110.82,40.83 M110.16,41.83h1.31v5.82h-1.31V41.83z"/>
				<path class="st0" d="M116.75,47.65v-3.72c0-0.64-0.5-1.18-1.28-1.18c-0.68,0-1.45,0.81-1.45,0.81v4.09h-1.33v-5.81l1.13,0.67
					c0,0,0.77-0.82,2.04-0.82c1.5,0,2.23,1.09,2.23,2.18v3.78H116.75z"/>
				<path class="st0" d="M122.15,50.36c-0.2,0-1.77-0.02-1.77-0.02l0.02-1.06h1.31c1.27,0,1.99-0.68,1.99-1.61v-0.52
					c0,0-0.7,0.66-1.87,0.66c-1.36,0-2.9-0.82-2.9-2.98c0-2.16,1.57-3.12,2.83-3.12c1.2,0,1.92,0.73,1.92,0.73l1.34-0.67v5.78
					C125.02,49.09,123.98,50.36,122.15,50.36 M123.72,43.77c0,0-0.66-1.06-1.8-1.06c-1.48,0-1.59,1.54-1.59,2.06
					c0,0.52,0.28,2.04,1.55,2.04c1.09,0,1.85-0.85,1.85-0.85V43.77z"/>
				<polygon class="st0" points="45.26,45 42.81,47.44 45.81,48.56 49.39,45 				"/>
				<polygon class="st0" points="49.74,40.05 47.3,37.63 46.16,40.59 49.74,44.15 				"/>
				<polygon class="st0" points="54.17,40.95 57.44,41.8 54.72,44.51 50.59,44.51 				"/>
				<polygon class="st0" points="53.95,49.05 53.02,52.22 47.92,47.16 49.99,45.11 				"/>
				<g>
					<path class="st0" d="M127.01,42.22c0,0.34-0.28,0.62-0.63,0.62c-0.35,0-0.64-0.27-0.64-0.62c0-0.34,0.28-0.61,0.64-0.61
						C126.73,41.61,127.01,41.88,127.01,42.22z M125.9,42.22c0,0.27,0.21,0.49,0.48,0.49c0.27,0,0.47-0.22,0.47-0.49
						c0-0.27-0.2-0.49-0.48-0.49C126.11,41.73,125.9,41.95,125.9,42.22z M126.28,42.54h-0.14v-0.61c0.06-0.01,0.14-0.02,0.24-0.02
						c0.12,0,0.17,0.02,0.21,0.05c0.04,0.03,0.06,0.07,0.06,0.13c0,0.07-0.06,0.12-0.13,0.15v0.01c0.06,0.02,0.09,0.07,0.11,0.15
						c0.02,0.09,0.03,0.13,0.05,0.15h-0.15c-0.02-0.02-0.03-0.07-0.05-0.15c-0.01-0.06-0.05-0.09-0.13-0.09h-0.07V42.54z
						 M126.29,42.2h0.07c0.08,0,0.14-0.03,0.14-0.09c0-0.06-0.04-0.09-0.13-0.09c-0.04,0-0.06,0-0.08,0.01V42.2z"/>
				</g>
			</g>
			<g>
				<polygon class="st0" points="46.82,52.06 46.82,48.26 47.57,47.51 49.73,49.67 49.73,50.39 				"/>
				<polygon class="st0" points="46.47,41.6 43.31,41.6 44.32,44.5 49.39,44.5 				"/>
				<polygon class="st0" points="57.12,47.9 53.51,47.9 50.59,45 55.65,45 				"/>
				<polygon class="st0" points="50.24,39.12 53.16,37.4 53.16,41.25 50.24,44.15 				"/>
				<g>
					<path class="st0" d="M55.37,49.26c0,0.24-0.19,0.43-0.44,0.43c-0.25,0-0.44-0.19-0.44-0.43c0-0.24,0.2-0.42,0.44-0.42
						C55.18,48.83,55.37,49.02,55.37,49.26z M54.6,49.26c0,0.19,0.14,0.34,0.33,0.34c0.18,0,0.33-0.15,0.33-0.34
						c0-0.19-0.14-0.34-0.33-0.34C54.75,48.92,54.6,49.07,54.6,49.26z M54.87,49.48h-0.1v-0.43c0.04-0.01,0.09-0.01,0.16-0.01
						c0.08,0,0.12,0.01,0.15,0.03c0.03,0.02,0.04,0.05,0.04,0.09c0,0.05-0.04,0.09-0.09,0.1v0.01c0.04,0.01,0.06,0.05,0.08,0.1
						c0.01,0.06,0.02,0.09,0.03,0.1h-0.1c-0.01-0.02-0.02-0.05-0.03-0.1c-0.01-0.04-0.03-0.06-0.09-0.06h-0.05V49.48z M54.87,49.24
						h0.05c0.06,0,0.1-0.02,0.1-0.06c0-0.04-0.03-0.06-0.09-0.06c-0.03,0-0.04,0-0.05,0.01V49.24z"/>
				</g>
			</g>
		</g>
	</g>
	<g>
		<path class="st0" d="M31.46,42h0.53v2.91H32c0.08-0.13,0.19-0.24,0.3-0.33c0.12-0.09,0.24-0.16,0.37-0.22s0.26-0.1,0.4-0.13
			c0.14-0.03,0.26-0.04,0.39-0.04c0.29,0,0.56,0.05,0.8,0.15c0.24,0.1,0.45,0.23,0.63,0.41c0.18,0.17,0.31,0.38,0.41,0.62
			c0.1,0.24,0.15,0.5,0.15,0.78c0,0.28-0.05,0.54-0.15,0.78c-0.1,0.24-0.24,0.44-0.41,0.62c-0.18,0.17-0.38,0.31-0.63,0.41
			c-0.24,0.1-0.51,0.15-0.8,0.15c-0.12,0-0.25-0.01-0.39-0.04c-0.14-0.03-0.27-0.07-0.4-0.13c-0.13-0.06-0.25-0.13-0.37-0.22
			c-0.12-0.09-0.22-0.2-0.3-0.33h-0.02V48h-0.53V42z M34.87,46.14c0-0.21-0.03-0.4-0.1-0.58c-0.07-0.18-0.16-0.34-0.28-0.47
			c-0.12-0.13-0.27-0.24-0.44-0.31c-0.17-0.08-0.37-0.12-0.59-0.12s-0.42,0.04-0.6,0.12c-0.18,0.08-0.34,0.18-0.47,0.31
			c-0.13,0.13-0.24,0.29-0.31,0.47c-0.07,0.18-0.11,0.37-0.11,0.58c0,0.21,0.04,0.4,0.11,0.58s0.18,0.34,0.31,0.47
			c0.13,0.13,0.29,0.24,0.47,0.31c0.18,0.08,0.38,0.12,0.6,0.12s0.41-0.04,0.59-0.12c0.17-0.08,0.32-0.18,0.44-0.31
			c0.12-0.13,0.22-0.29,0.28-0.47S34.87,46.35,34.87,46.14z"/>
		<path class="st0" d="M37.73,47.36l1.14-3.07h0.64l-1.87,4.68c-0.11,0.29-0.25,0.51-0.43,0.68c-0.17,0.17-0.42,0.25-0.75,0.25
			c-0.08,0-0.16,0-0.24-0.01c-0.08-0.01-0.16-0.02-0.24-0.05l0.06-0.51c0.11,0.06,0.24,0.09,0.4,0.09c0.19,0,0.33-0.06,0.44-0.17
			c0.11-0.12,0.2-0.28,0.28-0.49l0.27-0.71l-1.53-3.76h0.66L37.73,47.36z"/>
	</g>
	<g>
		<path class="st0" d="M41.86,30.46c-1.15,0.99-2.56,1.49-4.26,1.49c-2.2,0-3.94-0.71-5.21-2.14c-1.15-1.29-1.72-2.84-1.72-4.66
			c0-1.95,0.64-3.58,1.93-4.9c1.29-1.32,2.99-1.98,5.1-1.98c1.62,0,3,0.49,4.12,1.48l-1.32,1.85c-0.76-0.57-1.67-0.86-2.75-0.86
			c-1.16,0-2.11,0.39-2.84,1.18c-0.73,0.79-1.1,1.85-1.1,3.19c0,1.3,0.37,2.38,1.1,3.24c0.73,0.86,1.71,1.28,2.92,1.28
			c1.06,0,2-0.34,2.83-1.02L41.86,30.46z"/>
		<path class="st0" d="M55.61,25.01c0,1.98-0.65,3.64-1.94,4.96c-1.3,1.32-2.92,1.98-4.88,1.98c-1.96,0-3.58-0.66-4.86-1.98
			c-1.29-1.32-1.93-2.97-1.93-4.96c0-1.95,0.68-3.57,2.04-4.88c1.3-1.25,2.89-1.88,4.76-1.88c1.87,0,3.46,0.63,4.79,1.88
			C54.93,21.44,55.61,23.07,55.61,25.01z M52.46,25.01c0-1.27-0.3-2.31-0.9-3.13c-0.67-0.89-1.6-1.34-2.78-1.34
			c-1.18,0-2.1,0.45-2.75,1.34c-0.6,0.82-0.9,1.86-0.9,3.13c0,1.34,0.29,2.43,0.87,3.27c0.65,0.93,1.58,1.39,2.78,1.39
			c1.2,0,2.13-0.46,2.8-1.39C52.17,27.44,52.46,26.35,52.46,25.01z"/>
		<path class="st0" d="M70.23,25.01c0,1.98-0.65,3.64-1.94,4.96c-1.3,1.32-2.92,1.98-4.88,1.98c-1.96,0-3.58-0.66-4.86-1.98
			c-1.29-1.32-1.93-2.97-1.93-4.96c0-1.95,0.68-3.57,2.04-4.88c1.3-1.25,2.89-1.88,4.76-1.88c1.87,0,3.46,0.63,4.79,1.88
			C69.55,21.44,70.23,23.07,70.23,25.01z M67.09,25.01c0-1.27-0.3-2.31-0.9-3.13c-0.67-0.89-1.6-1.34-2.78-1.34s-2.1,0.45-2.75,1.34
			c-0.6,0.82-0.9,1.86-0.9,3.13c0,1.34,0.29,2.43,0.87,3.27c0.65,0.93,1.58,1.39,2.78,1.39c1.2,0,2.13-0.46,2.8-1.39
			C66.79,27.44,67.09,26.35,67.09,25.01z"/>
		<path class="st0" d="M74.73,31.66h-2.94V12.44l2.94,1.64V31.66z"/>
		<g>
			<g>
				<path class="st0" d="M97.15,25.01c0,1.98-0.65,3.64-1.94,4.96c-1.3,1.32-2.92,1.98-4.88,1.98c-1.96,0-3.58-0.66-4.86-1.98
					c-1.29-1.32-1.93-2.97-1.93-4.96c0-1.95,0.68-3.57,2.04-4.88c1.3-1.25,2.89-1.88,4.76-1.88c1.87,0,3.46,0.63,4.79,1.88
					C96.47,21.44,97.15,23.07,97.15,25.01z M94.01,25.01c0-1.27-0.3-2.31-0.9-3.13c-0.67-0.89-1.6-1.34-2.78-1.34
					c-1.18,0-2.1,0.45-2.75,1.34c-0.6,0.82-0.9,1.86-0.9,3.13c0,1.34,0.29,2.43,0.87,3.27c0.65,0.93,1.58,1.39,2.78,1.39
					c1.2,0,2.13-0.46,2.8-1.39C93.71,27.44,94.01,26.35,94.01,25.01z"/>
				<path class="st0" d="M110.51,31.66h-2.94V23.3c0-0.75-0.26-1.38-0.78-1.89c-0.52-0.51-1.2-0.76-2.05-0.76
					c-0.93,0-2,0.61-3.2,1.82v9.19h-2.94V18.58l2.49,1.5c1.27-1.24,2.77-1.85,4.49-1.85c1.55,0,2.79,0.51,3.7,1.53
					c0.81,0.91,1.22,2.04,1.22,3.38V31.66z"/>
				<path class="st0" d="M124.84,25.72h-9.39c0.35,2.67,1.6,4,3.76,4c1.32,0,2.41-0.38,3.25-1.13l1.16,1.91
					c-1.13,1.04-2.63,1.56-4.49,1.56c-2.59,0-4.49-0.98-5.69-2.93c-0.74-1.2-1.11-2.43-1.11-3.7c0-1.56,0.3-2.91,0.9-4.05
					c1.08-2.09,2.99-3.14,5.74-3.14c2.71,0,4.5,1.24,5.37,3.73C124.7,23.02,124.87,24.28,124.84,25.72z M121.88,23.79
					c-0.11-2.31-1.09-3.46-2.96-3.46c-2.06,0-3.2,1.15-3.41,3.46H121.88z"/>
				<path class="st0" d="M81.07,29.51c-0.56,0-0.92-0.24-1.06-0.72c-0.07-0.2-0.11-0.63-0.11-1.29v-5.45h2.04v-1.96h-2.04v-3.12
					l-2.93-1.64v12.89c0,0.93,0.23,1.74,0.69,2.44c0.56,0.89,1.38,1.34,2.43,1.34h1.85l1.24-2.5H81.07z"/>
			</g>
		</g>
		<g>
			<path class="st0" d="M128.21,19.64c0,0.77-0.63,1.39-1.42,1.39c-0.8,0-1.43-0.61-1.43-1.39c0-0.77,0.63-1.38,1.44-1.38
				C127.58,18.25,128.21,18.86,128.21,19.64z M125.71,19.64c0,0.61,0.47,1.1,1.08,1.1c0.6,0.01,1.06-0.49,1.06-1.09
				c0-0.61-0.46-1.11-1.08-1.11C126.17,18.53,125.71,19.03,125.71,19.64z M126.56,20.35h-0.32v-1.38c0.13-0.02,0.3-0.04,0.53-0.04
				c0.26,0,0.38,0.04,0.47,0.11c0.08,0.06,0.14,0.16,0.14,0.29c0,0.17-0.13,0.28-0.29,0.33v0.02c0.14,0.04,0.2,0.15,0.25,0.34
				c0.04,0.21,0.08,0.29,0.1,0.34h-0.34c-0.04-0.05-0.07-0.17-0.11-0.34c-0.03-0.14-0.11-0.21-0.29-0.21h-0.15V20.35z M126.57,19.58
				h0.15c0.18,0,0.32-0.06,0.32-0.2c0-0.13-0.09-0.21-0.3-0.21c-0.08,0-0.14,0.01-0.18,0.02V19.58z"/>
		</g>
	</g>
</g>
</svg>
