<svg id="Layer_1" xmlns="http://www.w3.org/2000/svg" viewBox="0 0 300 250"><style>.st0{fill:#eaf5fb}</style><path class="st0" d="M14.28 93.99v-3.48h1.67v3.16c0 1.64.46 2.3 1.61 2.3 1.18 0 1.64-.66 1.64-2.3v-2.99c0-1.35-.37-2.01-1.35-2.64l-1.52-.98c-1.47-.95-2.04-2.04-2.04-3.96v-2.56c0-2.18 1.18-3.42 3.22-3.42s3.22 1.24 3.22 3.42v2.56h-1.67v-2.27c0-1.55-.43-2.15-1.52-2.15s-1.54.6-1.54 2.15v2.15c0 1.35.37 2.01 1.35 2.64l1.52.98c1.47.95 2.04 2.04 2.04 3.96v3.42c0 2.27-1.24 3.53-3.33 3.53-2.1.01-3.3-1.25-3.3-3.52zM25.68 78.9h-2.41v-1.49h6.55v1.49H27.4v18.33h-1.72V78.9zM32.63 77.41h3.19c2.3 0 3.39 1.18 3.39 3.59v2.53c0 1.61-.52 2.59-1.55 3.05v.06c1.03.46 1.55 1.44 1.55 3.07v7.53h-1.72v-7.41c0-1.84-.52-2.38-2.15-2.38h-.98v9.8h-1.72V77.41zm2.99 8.53c1.44 0 1.87-.55 1.87-2.38v-2.27c0-1.84-.43-2.38-1.87-2.38h-1.26v7.04h1.26zM42.57 77.41h5.69v1.49h-3.97v6.92h3.45v1.49h-3.45v8.42h3.97v1.49h-5.69V77.41zM51.19 77.41h2.24l3.13 14.51h.06V77.41h1.55v19.83H56.3l-3.5-16.35h-.06v16.35h-1.55V77.41zM61.56 94.42V80.68c0-2.27 1.24-3.56 3.3-3.56 2.1 0 3.28 1.29 3.28 3.56v2.18H66.5V81c0-1.67-.46-2.33-1.61-2.33-1.18 0-1.61.66-1.61 2.33v13.22c0 1.18.43 1.75 1.38 1.75 1.18 0 1.84-.89 1.84-2.5v-5.69h-1.61v-1.49h3.33v10.95h-1.47v-1.41h-.09c-.46 1.09-1.29 1.69-2.47 1.69-1.66 0-2.63-1.18-2.63-3.1zM73.19 78.9h-2.41v-1.49h6.55v1.49h-2.41v18.33H73.2V78.9zM80.14 77.41h1.72v8.42h3.25v-8.42h1.72v19.83h-1.72v-9.91h-3.25v9.91h-1.72V77.41zM90.34 77.41h5.69v1.49h-3.97v6.92h3.45v1.49h-3.45v8.42h3.97v1.49h-5.69V77.41zM98.96 77.41h2.24l3.13 14.51h.06V77.41h1.55v19.83h-1.87l-3.51-16.35h-.06v16.35h-1.55V77.41zM110.1 97.23h-.69v-2.36h1.95v2.07l-1.26 3.19h-1.01l1.01-2.9zM121.48 78.9h-2.41v-1.49h6.55v1.49h-2.41v18.33h-1.72V78.9zM128.08 93.93V80.71c0-2.3 1.24-3.59 3.33-3.59s3.33 1.29 3.33 3.59v13.22c0 2.3-1.24 3.59-3.33 3.59s-3.33-1.29-3.33-3.59zm4.95-.29V81c0-1.67-.46-2.33-1.61-2.33-1.18 0-1.61.66-1.61 2.33v12.64c0 1.67.43 2.33 1.61 2.33 1.15 0 1.61-.66 1.61-2.33zM138.14 77.41h2.24l3.13 14.51h.06V77.41h1.55v19.83h-1.87l-3.51-16.35h-.06v16.35h-1.55V77.41zM148.62 77.41h5.69v1.49h-3.97v6.92h3.45v1.49h-3.45v8.42h3.97v1.49h-5.69V77.41zM158.19 97.23h-.69v-2.36h1.95v2.07l-1.26 3.19h-1.01l1.01-2.9zM16.43 104.89h2.27l2.5 19.83h-1.75l-.57-4.91h-2.7l-.57 4.91h-1.67l2.49-19.83zm2.27 13.41l-1.15-10.69h-.06l-1.15 10.69h2.36zM24.04 104.89h2.24l3.13 14.51h.06v-14.51h1.55v19.83h-1.87l-3.51-16.35h-.06v16.35h-1.55v-19.83zM34.53 104.89h3.28c2.3 0 3.39 1.18 3.39 3.59v12.64c0 2.41-1.09 3.59-3.39 3.59h-3.28v-19.82zm3.07 18.33c1.44 0 1.87-.55 1.87-2.38v-12.07c0-1.84-.43-2.38-1.87-2.38h-1.35v16.84h1.35zM49.44 104.89h5.69v1.49h-3.97v7.21h3.45v1.49h-3.45v9.63h-1.72v-19.82zM57.94 104.89h1.72v19.83h-1.72v-19.83zM63.17 104.89h3.19c2.3 0 3.39 1.18 3.39 3.59v2.53c0 1.61-.52 2.59-1.55 3.05v.06c1.03.46 1.55 1.44 1.55 3.07v7.53h-1.72v-7.41c0-1.84-.52-2.38-2.15-2.38h-.98v9.8h-1.72v-19.84zm2.98 8.53c1.44 0 1.87-.55 1.87-2.38v-2.27c0-1.84-.43-2.38-1.87-2.38h-1.26v7.04h1.26zM73.11 104.89h2.73l2.21 14.62h.06l2.21-14.62h2.84v19.83h-1.72v-17.73h-.06l-2.67 17.73h-1.35l-2.67-17.73h-.06v17.73h-1.52v-19.83zM91.55 104.89h2.73l2.21 14.62h.06l2.21-14.62h2.84v19.83h-1.72v-17.73h-.06l-2.67 17.73H95.8l-2.67-17.73h-.06v17.73h-1.52v-19.83zM105.05 121.52v-16.64h1.72v16.32c0 1.61.4 2.24 1.55 2.24s1.55-.63 1.55-2.24v-16.32h1.67v16.64c0 2.21-1.21 3.48-3.25 3.48s-3.24-1.27-3.24-3.48zM114.67 121.46v-3.48h1.67v3.16c0 1.64.46 2.3 1.61 2.3 1.18 0 1.64-.66 1.64-2.3v-2.99c0-1.35-.37-2.01-1.35-2.64l-1.52-.98c-1.47-.95-2.04-2.04-2.04-3.96v-2.56c0-2.18 1.18-3.42 3.22-3.42s3.22 1.24 3.22 3.42v2.56h-1.67v-2.27c0-1.55-.43-2.15-1.52-2.15s-1.52.6-1.52 2.15v2.16c0 1.35.37 2.01 1.35 2.64l1.52.98c1.47.95 2.04 2.04 2.04 3.96v3.42c0 2.27-1.24 3.53-3.33 3.53-2.11.01-3.32-1.26-3.32-3.53zM124.32 121.58v-13.56c0-2.18 1.15-3.42 3.22-3.42 2.1 0 3.25 1.24 3.25 3.42v3.25h-1.64v-2.96c0-1.55-.46-2.15-1.55-2.15-1.12 0-1.55.6-1.55 2.15v12.99c0 1.55.43 2.15 1.55 2.15 1.09 0 1.55-.6 1.55-2.15v-3.99h1.64v4.28c0 2.18-1.15 3.42-3.25 3.42-2.07-.01-3.22-1.25-3.22-3.43zM133.97 104.89h1.72v18.33h3.68v1.49h-5.4v-19.82zM142.19 104.89h5.69v1.49h-3.97v6.92h3.45v1.49h-3.45v8.42h3.97v1.49h-5.69v-19.81zM150.55 121.46v-3.48h1.67v3.16c0 1.64.46 2.3 1.61 2.3 1.18 0 1.64-.66 1.64-2.3v-2.99c0-1.35-.37-2.01-1.35-2.64l-1.52-.98c-1.47-.95-2.04-2.04-2.04-3.96v-2.56c0-2.18 1.18-3.42 3.22-3.42s3.22 1.24 3.22 3.42v2.56h-1.67v-2.27c0-1.55-.43-2.15-1.52-2.15s-1.52.6-1.52 2.15v2.16c0 1.35.37 2.01 1.35 2.64l1.52.98c1.47.95 2.04 2.04 2.04 3.96v3.42c0 2.27-1.24 3.53-3.33 3.53s-3.32-1.26-3.32-3.53zM159.17 122.35h1.93v2.36h-1.93v-2.36z"/></svg>