<svg id="Layer_1" xmlns="http://www.w3.org/2000/svg" viewBox="0 0 300 250"><style>.st0{fill:#fff}</style><path class="st0" d="M14.15 194.1h-.82l2.3-5.31h.67l2.28 5.31h-.84l-.54-1.3h-2.52l-.53 1.3zm.79-1.95h1.99l-.99-2.49-1 2.49zM19.21 190.95c-.01-.15-.01-.28-.02-.4h.67c.01.09.02.19.02.31s.01.21.01.29h.02c.1-.21.25-.38.44-.51s.41-.19.65-.19c.11 0 .2.01.28.03l-.03.65c-.1-.02-.21-.04-.32-.04-.17 0-.32.03-.44.09a.95.95 0 0 0-.31.25c-.08.1-.14.23-.18.36-.04.14-.06.28-.06.43v1.87h-.7v-2.79c-.02-.08-.02-.2-.03-.35zM22.76 189.27c0 .13-.05.24-.14.32-.09.09-.2.13-.33.13a.445.445 0 0 1-.46-.45.445.445 0 0 1 .46-.46c.13 0 .24.04.33.13.09.09.14.2.14.33zm-.12 4.83h-.7v-3.55h.7v3.55zM27.19 192.3v.12c0 .04 0 .08-.01.12h-2.83a1.072 1.072 0 0 0 .35.76c.1.09.23.17.36.23.14.05.28.08.44.08.24 0 .45-.05.62-.16.17-.1.31-.23.41-.38l.49.4c-.19.25-.41.44-.67.56s-.54.18-.86.18c-.27 0-.52-.04-.75-.13-.23-.09-.43-.22-.59-.38s-.29-.36-.39-.59c-.1-.23-.14-.48-.14-.76 0-.27.05-.53.14-.76.09-.23.22-.43.39-.6a1.84 1.84 0 0 1 1.32-.53c.26 0 .5.04.71.13.21.08.39.21.54.37.15.16.26.35.34.58s.13.47.13.76zm-.72-.29c-.01-.14-.03-.27-.07-.39-.04-.12-.1-.23-.19-.32s-.19-.16-.31-.21a1.162 1.162 0 0 0-.85 0 1.076 1.076 0 0 0-.58.53c-.06.12-.1.25-.11.39h2.11zM28.89 194.1h-.7v-5.67h.7v5.67zM32.25 190.55l.8 2.71h.02l.85-2.71h.74l.86 2.71h.01l.8-2.71h.74l-1.18 3.55h-.73l-.88-2.67h-.02l-.87 2.67h-.73l-1.18-3.55h.77zM39.99 191.8c0-.26-.08-.46-.24-.59-.16-.13-.37-.19-.64-.19-.2 0-.39.04-.57.12s-.33.18-.45.3l-.37-.45c.17-.17.39-.29.64-.39.25-.09.52-.14.81-.14.25 0 .48.04.66.11.19.07.34.17.46.3.12.12.21.27.27.44.06.17.09.35.09.55v1.55c0 .12 0 .25.01.38s.02.24.04.33h-.64a2.22 2.22 0 0 1-.06-.51c-.13.19-.29.34-.49.44-.2.1-.43.16-.7.16-.14 0-.29-.02-.44-.06-.15-.04-.29-.1-.42-.18s-.23-.2-.31-.34-.12-.31-.12-.52c0-.27.07-.48.22-.64.15-.16.33-.28.57-.36.23-.08.5-.14.79-.16.29-.02.59-.04.89-.04v-.11zm-.17.61c-.18 0-.36.01-.54.02-.19.01-.36.04-.51.09s-.28.11-.38.2-.15.21-.15.36c0 .11.02.19.06.26s.1.13.17.17.15.08.23.09c.08.02.17.03.26.03.33 0 .58-.1.76-.3.18-.2.27-.45.27-.75v-.19h-.17zM43.76 191.45a.876.876 0 0 0-.34-.32.988.988 0 0 0-.49-.12c-.08 0-.16.01-.24.03-.08.02-.15.04-.21.08s-.11.08-.15.14a.37.37 0 0 0-.06.21c0 .15.07.26.2.33s.34.14.61.2c.17.04.33.09.47.14.14.06.27.12.38.21.11.08.19.18.25.3s.09.25.09.41c0 .21-.04.39-.12.53a1.15 1.15 0 0 1-.77.56c-.17.04-.34.06-.52.06-.27 0-.53-.05-.79-.16s-.47-.26-.64-.48l.5-.43c.1.14.23.26.39.35a1.124 1.124 0 0 0 .81.11c.08-.02.16-.05.22-.09a.41.41 0 0 0 .16-.16c.04-.06.06-.15.06-.25 0-.17-.08-.29-.24-.37-.16-.08-.39-.15-.69-.22-.12-.03-.24-.07-.36-.11-.12-.04-.23-.1-.33-.18a.814.814 0 0 1-.24-.28.871.871 0 0 1-.09-.42c0-.19.04-.35.12-.49.08-.14.18-.25.3-.34.12-.09.27-.15.43-.2.16-.04.32-.06.49-.06.25 0 .5.05.74.15.24.1.42.25.55.43l-.49.44zM48.78 191.13h-.94v1.84c0 .21.04.37.12.46.08.09.21.14.38.14.06 0 .13-.01.21-.02.07-.01.14-.03.2-.06l.02.58c-.08.03-.18.05-.28.07-.1.02-.21.03-.32.03-.33 0-.59-.09-.77-.28-.18-.18-.27-.46-.27-.83v-1.93h-.68v-.58h.68v-1.02h.7v1.02h.94v.58zM49.5 190.95c-.01-.15-.01-.28-.02-.4h.67c.01.09.02.19.02.31s.01.21.01.29h.02c.1-.21.25-.38.44-.51s.41-.19.65-.19c.11 0 .2.01.28.03l-.03.65c-.1-.02-.21-.04-.32-.04-.17 0-.32.03-.44.09a.95.95 0 0 0-.31.25c-.08.1-.14.23-.18.36-.04.14-.06.28-.06.43v1.87h-.7v-2.79c-.02-.08-.02-.2-.03-.35zM55.41 192.3v.12c0 .04 0 .08-.01.12h-2.83a1.072 1.072 0 0 0 .35.76c.1.09.23.17.36.23.14.05.28.08.44.08.24 0 .45-.05.62-.16.17-.1.31-.23.41-.38l.49.4c-.19.25-.41.44-.67.56s-.54.18-.86.18c-.27 0-.52-.04-.75-.13-.23-.09-.43-.22-.59-.38s-.29-.36-.39-.59c-.1-.23-.14-.48-.14-.76 0-.27.05-.53.14-.76.09-.23.22-.43.39-.6a1.84 1.84 0 0 1 1.32-.53c.26 0 .5.04.71.13.21.08.39.21.54.37.15.16.26.35.34.58s.13.47.13.76zm-.72-.29c-.01-.14-.03-.27-.07-.39-.04-.12-.1-.23-.19-.32s-.19-.16-.31-.21a1.162 1.162 0 0 0-.85 0 1.076 1.076 0 0 0-.58.53c-.06.12-.1.25-.11.39h2.11zM58.55 191.8c0-.26-.08-.46-.24-.59-.16-.13-.37-.19-.64-.19-.2 0-.39.04-.57.12s-.33.18-.45.3l-.37-.45c.17-.17.39-.29.64-.39.25-.09.52-.14.81-.14.25 0 .48.04.66.11.19.07.34.17.46.3.12.12.21.27.27.44.06.17.09.35.09.55v1.55c0 .12 0 .25.01.38s.02.24.04.33h-.64a2.22 2.22 0 0 1-.06-.51h-.02c-.13.19-.29.34-.49.44-.2.1-.43.16-.7.16-.14 0-.29-.02-.44-.06-.15-.04-.29-.1-.42-.18s-.23-.2-.31-.34-.12-.31-.12-.52c0-.27.07-.48.22-.64.15-.16.33-.28.57-.36.23-.08.5-.14.79-.16.29-.02.59-.04.89-.04v-.11zm-.17.61c-.18 0-.36.01-.54.02-.19.01-.36.04-.51.09s-.28.11-.38.2-.15.21-.15.36c0 .11.02.19.06.26s.1.13.17.17.15.08.23.09c.08.02.17.03.26.03.33 0 .58-.1.76-.3.18-.2.27-.45.27-.75v-.19h-.17zM62.06 191.13h-.94v1.84c0 .21.04.37.12.46.08.09.21.14.38.14.06 0 .13-.01.21-.02.07-.01.14-.03.2-.06l.02.58c-.08.03-.18.05-.28.07-.1.02-.21.03-.32.03-.33 0-.59-.09-.77-.28-.18-.18-.27-.46-.27-.83v-1.93h-.68v-.58h.68v-1.02h.7v1.02h.94v.58zM66.11 192.3v.12c0 .04 0 .08-.01.12h-2.83a1.072 1.072 0 0 0 .35.76c.1.09.23.17.36.23.14.05.28.08.44.08.24 0 .45-.05.62-.16.17-.1.31-.23.41-.38l.49.4c-.19.25-.41.44-.67.56s-.54.18-.86.18c-.27 0-.52-.04-.75-.13-.23-.09-.43-.22-.59-.38s-.29-.36-.39-.59c-.1-.23-.14-.48-.14-.76 0-.27.05-.53.14-.76.09-.23.22-.43.39-.6a1.84 1.84 0 0 1 1.32-.53c.26 0 .5.04.71.13.21.08.39.21.54.37.15.16.26.35.34.58s.13.47.13.76zm-.72-.29c-.01-.14-.03-.27-.07-.39-.04-.12-.1-.23-.19-.32s-.19-.16-.31-.21a1.162 1.162 0 0 0-.85 0 1.076 1.076 0 0 0-.58.53c-.06.12-.1.25-.11.39h2.11zM69.92 193.54c-.13.21-.32.38-.55.49a1.78 1.78 0 0 1-1.47.02c-.22-.1-.41-.23-.56-.4-.16-.17-.27-.37-.36-.6-.08-.23-.13-.47-.13-.73s.04-.5.13-.73c.08-.23.21-.43.36-.6a1.73 1.73 0 0 1 1.3-.54c.29 0 .54.06.76.18s.38.27.51.45h.02v-2.65h.7v5.67h-.68v-.56h-.03zm-2.34-1.21c0 .16.02.32.08.48.05.15.12.29.22.41s.22.22.37.29.31.11.51.11a1.173 1.173 0 0 0 1.11-.8 1.372 1.372 0 0 0 0-.98c-.06-.15-.14-.29-.24-.41a1.131 1.131 0 0 0-.87-.38c-.19 0-.36.04-.51.1-.15.07-.27.17-.37.28-.1.12-.17.26-.22.41-.06.16-.08.32-.08.49zM73.98 190.55l.8 2.71h.02l.85-2.71h.74l.86 2.71h.01l.8-2.71h.74l-1.18 3.55h-.73l-.88-2.67H76l-.87 2.67h-.73l-1.18-3.55h.76zM80.33 189.27c0 .13-.05.24-.14.32-.09.09-.2.13-.33.13a.445.445 0 0 1-.46-.45.445.445 0 0 1 .46-.46c.13 0 .24.04.33.13.09.09.14.2.14.33zm-.11 4.83h-.7v-3.55h.7v3.55zM83.19 191.13h-.94v1.84c0 .21.04.37.12.46.08.09.21.14.38.14.06 0 .13-.01.21-.02.07-.01.14-.03.2-.06l.02.58c-.08.03-.18.05-.28.07-.1.02-.21.03-.32.03-.33 0-.59-.09-.77-.28-.18-.18-.27-.46-.27-.83v-1.93h-.68v-.58h.68v-1.02h.7v1.02h.94v.58zM84.65 191.09c.08-.17.23-.32.43-.45.21-.12.43-.19.69-.19.23 0 .43.04.59.12.16.08.3.18.41.31s.19.28.24.46c.05.18.08.36.08.56v2.2h-.7v-1.97c0-.15-.01-.28-.03-.41a.857.857 0 0 0-.12-.34.69.69 0 0 0-.24-.24.79.79 0 0 0-.4-.09c-.28 0-.51.11-.69.32s-.27.5-.27.85v1.89h-.7v-5.67h.7v2.65h.01zM94.75 193.28c-.21.28-.48.52-.82.69-.33.18-.74.27-1.21.27-.4 0-.78-.07-1.12-.21-.34-.14-.64-.33-.88-.58-.25-.25-.44-.54-.58-.88-.14-.34-.21-.72-.21-1.13 0-.42.07-.79.21-1.14.14-.34.34-.63.59-.88.25-.24.55-.43.9-.57s.72-.2 1.12-.2c.18 0 .36.02.55.05.18.04.36.09.53.16s.32.16.46.26.26.22.36.36l-.58.45c-.13-.18-.31-.33-.55-.45s-.49-.18-.77-.18c-.31 0-.59.06-.84.17-.25.11-.46.27-.63.46-.17.2-.31.42-.4.68a2.552 2.552 0 0 0 0 1.66c.09.26.22.49.4.68s.38.34.63.45c.25.11.52.17.83.17.3 0 .57-.06.82-.18.24-.12.45-.29.61-.52l.58.41zM98.98 192.32a1.909 1.909 0 0 1-.55 1.36c-.17.17-.38.3-.61.39a2.136 2.136 0 0 1-1.52 0 1.77 1.77 0 0 1-.61-.39 1.91 1.91 0 0 1-.55-1.36 1.866 1.866 0 0 1 .55-1.34c.17-.17.37-.29.61-.39s.49-.14.76-.14.52.05.76.14.44.22.61.39.31.36.4.59c.1.22.15.48.15.75zm-.74.01c0-.17-.03-.33-.08-.49s-.13-.29-.23-.41-.22-.21-.37-.28c-.15-.07-.32-.1-.51-.1s-.36.04-.51.1c-.15.07-.27.16-.37.28s-.18.25-.23.41-.08.32-.08.49c0 .17.03.33.08.49s.13.29.23.41.22.21.37.28c.15.07.32.11.51.11s.36-.04.51-.11c.15-.07.27-.16.37-.28.1-.12.18-.26.23-.41s.08-.33.08-.49zM103.55 192.32a1.909 1.909 0 0 1-.55 1.36c-.17.17-.38.3-.61.39a2.136 2.136 0 0 1-1.52 0 1.77 1.77 0 0 1-.61-.39 1.91 1.91 0 0 1-.55-1.36 1.866 1.866 0 0 1 .55-1.34c.17-.17.37-.29.61-.39s.49-.14.76-.14.52.05.76.14.44.22.61.39.31.36.4.59c.1.22.15.48.15.75zm-.74.01c0-.17-.03-.33-.08-.49s-.13-.29-.23-.41-.22-.21-.37-.28c-.15-.07-.32-.1-.51-.1s-.36.04-.51.1c-.15.07-.27.16-.37.28s-.18.25-.23.41-.08.32-.08.49c0 .17.03.33.08.49s.13.29.23.41.22.21.37.28c.15.07.32.11.51.11s.36-.04.51-.11c.15-.07.27-.16.37-.28.1-.12.18-.26.23-.41s.08-.33.08-.49zM105.24 194.1h-.7v-5.67h.7v5.67zM108.37 194.1h-.74v-4.65h-1.7v-.65h4.14v.65h-1.7v4.65zM113.61 192.32a1.909 1.909 0 0 1-.55 1.36c-.17.17-.38.3-.61.39a2.136 2.136 0 0 1-1.52 0 1.77 1.77 0 0 1-.61-.39 1.91 1.91 0 0 1-.55-1.36 1.866 1.866 0 0 1 .55-1.34c.17-.17.37-.29.61-.39s.49-.14.76-.14.52.05.76.14.44.22.61.39.31.36.4.59c.1.22.15.48.15.75zm-.73.01c0-.17-.03-.33-.08-.49s-.13-.29-.23-.41-.22-.21-.37-.28c-.15-.07-.32-.1-.51-.1s-.36.04-.51.1c-.15.07-.27.16-.37.28s-.18.25-.23.41-.08.32-.08.49c0 .17.03.33.08.49s.13.29.23.41.22.21.37.28c.15.07.32.11.51.11s.36-.04.51-.11c.15-.07.27-.16.37-.28.1-.12.18-.26.23-.41s.08-.33.08-.49zM115.22 190.55c.01.09.02.19.02.3 0 .11.01.21.01.28h.02c.04-.09.11-.18.18-.27.08-.08.17-.16.27-.22s.21-.11.33-.15c.12-.04.24-.05.38-.05.23 0 .43.04.59.12s.3.18.41.31.19.28.24.46c.05.18.08.36.08.56v2.2h-.7v-1.97c0-.14-.01-.28-.03-.41s-.06-.25-.12-.34-.14-.18-.25-.24a.79.79 0 0 0-.4-.09c-.28 0-.51.11-.69.32-.18.21-.27.5-.27.85v1.89h-.7v-2.79c0-.09 0-.22-.01-.37s-.01-.28-.02-.4h.66zM122.27 192.3v.12c0 .04 0 .08-.01.12h-2.83a1.072 1.072 0 0 0 .35.76c.1.09.23.17.36.23.14.05.28.08.44.08.24 0 .45-.05.62-.16.17-.1.31-.23.41-.38l.49.4c-.19.25-.41.44-.67.56s-.54.18-.86.18c-.27 0-.52-.04-.75-.13-.23-.09-.43-.22-.59-.38s-.29-.36-.39-.59c-.1-.23-.14-.48-.14-.76 0-.27.05-.53.14-.76.09-.23.22-.43.39-.6a1.84 1.84 0 0 1 1.32-.53c.26 0 .5.04.71.13.21.08.39.21.54.37.15.16.26.35.34.58s.13.47.13.76zm-.72-.29c-.01-.14-.03-.27-.07-.39-.04-.12-.1-.23-.19-.32s-.19-.16-.31-.21a1.162 1.162 0 0 0-.85 0 1.076 1.076 0 0 0-.58.53c-.06.12-.1.25-.11.39h2.11zM123.17 190.41c0-.23.04-.46.13-.66s.21-.39.37-.54.34-.27.54-.36c.21-.09.43-.13.66-.13s.46.04.66.13a1.702 1.702 0 0 1 .91.9c.09.21.13.43.13.66s-.04.45-.13.66-.21.38-.37.54-.34.27-.54.36c-.21.09-.43.13-.66.13s-.46-.04-.66-.13a1.702 1.702 0 0 1-.91-.9c-.09-.21-.13-.43-.13-.66zm.27 0c0 .19.04.38.11.55.07.17.18.33.31.46s.28.24.46.31.36.11.56.11.39-.04.56-.11a1.436 1.436 0 0 0 .88-1.32c0-.2-.04-.39-.11-.56-.08-.17-.18-.33-.31-.46s-.28-.23-.46-.31c-.17-.08-.36-.11-.56-.11s-.39.04-.56.11a1.436 1.436 0 0 0-.88 1.33zm1.85.94l-.41-.74h-.27v.74h-.46v-1.92h.82c.09 0 .18.01.26.03.08.02.16.05.23.1.07.04.13.11.17.18s.06.17.06.29c0 .13-.04.24-.11.32-.07.08-.16.15-.27.19l.51.81h-.53zm-.33-1.07c.07 0 .13-.02.19-.07.06-.04.09-.11.09-.18 0-.08-.03-.14-.1-.17s-.12-.05-.18-.05h-.35v.47h.35zM133.21 192.32a1.909 1.909 0 0 1-.55 1.36c-.17.17-.38.3-.61.39a2.136 2.136 0 0 1-1.52 0 1.77 1.77 0 0 1-.61-.39 1.91 1.91 0 0 1-.55-1.36 1.866 1.866 0 0 1 .55-1.34c.17-.17.37-.29.61-.39s.49-.14.76-.14.52.05.76.14.44.22.61.39.31.36.4.59c.1.22.15.48.15.75zm-.74.01c0-.17-.03-.33-.08-.49s-.13-.29-.23-.41-.22-.21-.37-.28c-.15-.07-.32-.1-.51-.1s-.36.04-.51.1c-.15.07-.27.16-.37.28s-.18.25-.23.41-.08.32-.08.49c0 .17.03.33.08.49s.13.29.23.41.22.21.37.28c.15.07.32.11.51.11s.36-.04.51-.11c.15-.07.27-.16.37-.28.1-.12.18-.26.23-.41s.08-.33.08-.49zM134.82 190.55c.01.09.02.19.02.3 0 .11.01.21.01.28h.02c.04-.09.11-.18.18-.27.08-.08.17-.16.27-.22s.21-.11.33-.15c.12-.04.24-.05.38-.05.23 0 .43.04.59.12s.3.18.41.31.19.28.24.46c.05.18.08.36.08.56v2.2h-.7v-1.97c0-.14-.01-.28-.03-.41s-.06-.25-.12-.34-.14-.18-.25-.24a.79.79 0 0 0-.4-.09c-.28 0-.51.11-.69.32-.18.21-.27.5-.27.85v1.89h-.7v-2.79c0-.09 0-.22-.01-.37s-.01-.28-.02-.4h.66zM141.15 191.09c.08-.17.23-.32.43-.45.21-.12.43-.19.69-.19.23 0 .43.04.59.12.16.08.3.18.41.31s.19.28.24.46c.05.18.08.36.08.56v2.2h-.7v-1.97c0-.15-.01-.28-.03-.41a.857.857 0 0 0-.12-.34.69.69 0 0 0-.24-.24.79.79 0 0 0-.4-.09c-.28 0-.51.11-.69.32s-.27.5-.27.85v1.89h-.7v-5.67h.7v2.65h.01zM148.11 192.3v.12c0 .04 0 .08-.01.12h-2.83a1.072 1.072 0 0 0 .35.76c.1.09.23.17.36.23.14.05.28.08.44.08.24 0 .45-.05.62-.16.17-.1.31-.23.41-.38l.49.4c-.19.25-.41.44-.67.56s-.54.18-.86.18c-.27 0-.52-.04-.75-.13-.23-.09-.43-.22-.59-.38s-.29-.36-.39-.59c-.1-.23-.14-.48-.14-.76 0-.27.05-.53.14-.76.09-.23.22-.43.39-.6a1.84 1.84 0 0 1 1.32-.53c.26 0 .5.04.71.13.21.08.39.21.54.37.15.16.26.35.34.58s.13.47.13.76zm-.72-.29c-.01-.14-.03-.27-.07-.39-.04-.12-.1-.23-.19-.32s-.19-.16-.31-.21a1.162 1.162 0 0 0-.85 0 1.076 1.076 0 0 0-.58.53c-.06.12-.1.25-.11.39h2.11zM149.08 190.95c-.01-.15-.01-.28-.02-.4h.67c.01.09.02.19.02.31s.01.21.01.29h.02c.1-.21.25-.38.44-.51s.41-.19.65-.19c.11 0 .2.01.28.03l-.03.65c-.1-.02-.21-.04-.32-.04-.17 0-.32.03-.44.09a.95.95 0 0 0-.31.25c-.08.1-.14.23-.18.36-.04.14-.06.28-.06.43v1.87h-.7v-2.79c-.02-.08-.03-.2-.03-.35zM16.1 200.15c0-.26-.08-.46-.24-.59-.16-.13-.37-.19-.64-.19-.2 0-.39.04-.57.12s-.33.18-.45.3l-.37-.45c.17-.17.39-.29.64-.39.25-.09.52-.14.81-.14.25 0 .48.04.66.11.19.07.34.17.46.3.12.12.21.27.27.44.06.17.09.35.09.55v1.55c0 .12 0 .25.01.38s.02.24.04.33h-.64a2.22 2.22 0 0 1-.06-.51h-.02c-.13.19-.29.34-.49.44-.2.1-.43.16-.7.16-.14 0-.29-.02-.44-.06-.15-.04-.29-.1-.42-.18s-.23-.2-.31-.34-.12-.31-.12-.52c0-.27.07-.48.22-.64.15-.16.33-.28.57-.36.23-.08.5-.14.79-.16.29-.02.59-.04.89-.04v-.11zm-.17.6c-.18 0-.36.01-.54.02-.19.01-.36.04-.51.09s-.28.11-.38.2-.15.21-.15.36c0 .11.02.19.06.26s.1.13.17.17.15.08.23.09c.08.02.17.03.26.03.33 0 .58-.1.76-.3.18-.2.27-.45.27-.75v-.19h-.17zM18.65 201.89v.56h-.68v-5.67h.7v2.65h.02c.12-.17.29-.32.5-.45s.47-.18.76-.18c.26 0 .5.05.72.14s.4.23.56.4c.16.17.28.37.36.6.08.23.13.47.13.73s-.04.5-.13.73c-.08.23-.2.43-.36.6-.15.17-.34.3-.56.4a1.78 1.78 0 0 1-1.47-.02 1.37 1.37 0 0 1-.55-.49zm2.36-1.22c0-.17-.03-.32-.08-.48s-.12-.29-.22-.41-.22-.21-.37-.28c-.15-.07-.32-.1-.51-.1-.18 0-.34.04-.49.1-.15.07-.27.17-.38.28-.1.12-.19.26-.24.41a1.372 1.372 0 0 0 0 .98c.06.15.14.29.24.41.1.12.23.21.38.28.15.07.31.11.49.11.19 0 .37-.04.51-.11s.27-.17.37-.29c.1-.12.17-.26.22-.41s.08-.33.08-.49zM25.55 201.89c-.13.21-.32.38-.55.49a1.78 1.78 0 0 1-1.47.02c-.22-.1-.41-.23-.56-.4-.16-.17-.27-.37-.36-.6-.08-.23-.13-.47-.13-.73s.04-.5.13-.73c.08-.23.21-.43.36-.6a1.73 1.73 0 0 1 1.3-.54c.29 0 .54.06.76.18s.38.27.51.45h.02v-2.65h.7v5.67h-.68v-.56h-.03zm-2.34-1.22c0 .16.02.32.08.48.05.15.12.29.22.41s.22.22.37.29.31.11.51.11a1.173 1.173 0 0 0 1.11-.8 1.372 1.372 0 0 0 0-.98c-.06-.15-.14-.29-.24-.41a1.131 1.131 0 0 0-.87-.38c-.19 0-.36.04-.51.1-.15.07-.27.17-.37.28-.1.12-.17.26-.22.41-.05.16-.08.32-.08.49zM31.07 200.67a1.909 1.909 0 0 1-.55 1.36c-.17.17-.38.3-.61.39a2.136 2.136 0 0 1-1.52 0 1.77 1.77 0 0 1-.61-.39 1.91 1.91 0 0 1-.55-1.36 1.866 1.866 0 0 1 .55-1.34c.17-.17.37-.29.61-.39s.49-.14.76-.14.52.05.76.14.44.22.61.39.31.36.4.59c.11.22.15.47.15.75zm-.73 0c0-.17-.03-.33-.08-.49s-.13-.29-.23-.41-.22-.21-.37-.28c-.15-.07-.32-.1-.51-.1s-.36.04-.51.1c-.15.07-.27.16-.37.28s-.18.25-.23.41-.08.32-.08.49c0 .17.03.33.08.49s.13.29.23.41.22.21.37.28c.15.07.32.11.51.11s.36-.04.51-.11c.15-.07.27-.16.37-.28.1-.12.18-.26.23-.41s.08-.32.08-.49zM33.17 199c.2-.13.43-.2.7-.2.24 0 .46.05.65.17.19.11.34.29.45.55.12-.23.29-.41.5-.53s.45-.18.7-.18c.23 0 .43.04.59.12s.3.18.41.31.19.28.24.46c.05.18.08.36.08.56v2.2h-.7v-1.97c0-.14-.01-.28-.04-.41-.03-.13-.07-.25-.13-.34a.69.69 0 0 0-.24-.24.737.737 0 0 0-.38-.09c-.16 0-.3.03-.41.1-.12.07-.21.15-.28.26s-.12.23-.16.36c-.03.13-.05.27-.05.41v1.92h-.7v-2.11c0-.14-.01-.27-.04-.38a.91.91 0 0 0-.13-.3.74.74 0 0 0-.23-.2.728.728 0 0 0-.35-.07.81.81 0 0 0-.65.32c-.17.21-.26.5-.26.85v1.89h-.7v-2.79c0-.09 0-.22-.01-.37s-.01-.28-.02-.4h.67c.01.09.02.19.02.3 0 .11.01.21.01.28h.02c.1-.19.24-.35.44-.48zM42.02 200.64v.12c0 .04 0 .08-.01.12h-2.83a1.072 1.072 0 0 0 .35.76c.1.09.23.17.36.23.14.05.28.08.44.08.24 0 .45-.05.62-.16.17-.1.31-.23.41-.38l.49.4c-.19.25-.41.44-.67.56s-.54.18-.86.18c-.27 0-.52-.04-.75-.13-.23-.09-.43-.22-.59-.38s-.29-.36-.39-.59c-.1-.23-.14-.48-.14-.76 0-.27.05-.53.14-.76.09-.23.22-.43.39-.6a1.84 1.84 0 0 1 1.32-.53c.26 0 .5.04.71.13.21.08.39.21.54.37.15.16.26.35.34.58s.13.48.13.76zm-.72-.28c-.01-.14-.03-.27-.07-.39-.04-.12-.1-.23-.19-.32s-.19-.16-.31-.21a1.162 1.162 0 0 0-.85 0 1.076 1.076 0 0 0-.58.53c-.06.12-.1.25-.11.39h2.11zM43.63 198.9c.01.09.02.19.02.3 0 .11.01.21.01.28h.02c.04-.09.11-.18.18-.27.08-.08.17-.16.27-.22s.21-.11.33-.15c.12-.04.24-.05.38-.05.23 0 .43.04.59.12s.3.18.41.31.19.28.24.46c.05.18.08.36.08.56v2.2h-.7v-1.97c0-.14-.01-.28-.03-.41s-.06-.25-.12-.34-.14-.18-.25-.24a.79.79 0 0 0-.4-.09c-.28 0-.51.11-.69.32-.18.21-.27.5-.27.85v1.89H43v-2.79c0-.09 0-.22-.01-.37s-.01-.28-.02-.4h.66zM51.44 200.15c0-.26-.08-.46-.24-.59-.16-.13-.37-.19-.64-.19-.2 0-.39.04-.57.12s-.33.18-.45.3l-.37-.45c.17-.17.39-.29.64-.39.25-.09.52-.14.81-.14.25 0 .48.04.66.11.19.07.34.17.46.3.12.12.21.27.27.44.06.17.09.35.09.55v1.55c0 .12 0 .25.01.38s.02.24.04.33h-.64a2.22 2.22 0 0 1-.06-.51h-.02c-.13.19-.29.34-.49.44-.2.1-.43.16-.7.16-.14 0-.29-.02-.44-.06-.15-.04-.29-.1-.42-.18s-.23-.2-.31-.34-.12-.31-.12-.52c0-.27.07-.48.22-.64.15-.16.33-.28.57-.36.23-.08.5-.14.79-.16.29-.02.59-.04.89-.04v-.11zm-.18.6c-.18 0-.36.01-.54.02-.19.01-.36.04-.51.09s-.28.11-.38.2-.15.21-.15.36c0 .11.02.19.06.26s.1.13.17.17.15.08.23.09c.08.02.17.03.26.03.33 0 .58-.1.76-.3.18-.2.27-.45.27-.75v-.19h-.17zM53.92 198.9c.01.09.02.19.02.3 0 .11.01.21.01.28h.02c.04-.09.11-.18.18-.27.08-.08.17-.16.27-.22s.21-.11.33-.15c.12-.04.24-.05.38-.05.23 0 .43.04.59.12s.3.18.41.31.19.28.24.46c.05.18.08.36.08.56v2.2h-.7v-1.97c0-.14-.01-.28-.03-.41s-.06-.25-.12-.34-.14-.18-.25-.24a.79.79 0 0 0-.4-.09c-.28 0-.51.11-.69.32-.18.21-.27.5-.27.85v1.89h-.7v-2.79c0-.09 0-.22-.01-.37s-.01-.28-.02-.4h.66zM60.48 201.89c-.13.21-.32.38-.55.49a1.78 1.78 0 0 1-1.47.02c-.22-.1-.41-.23-.56-.4-.16-.17-.27-.37-.36-.6-.08-.23-.13-.47-.13-.73s.04-.5.13-.73c.08-.23.21-.43.36-.6a1.73 1.73 0 0 1 1.3-.54c.29 0 .54.06.76.18s.38.27.51.45h.02v-2.65h.7v5.67h-.69v-.56h-.02zm-2.34-1.22c0 .16.02.32.08.48.05.15.12.29.22.41s.22.22.37.29.31.11.51.11a1.173 1.173 0 0 0 1.11-.8 1.372 1.372 0 0 0 0-.98c-.06-.15-.14-.29-.24-.41a1.131 1.131 0 0 0-.87-.38c-.19 0-.36.04-.51.1-.15.07-.27.17-.37.28-.1.12-.17.26-.22.41-.05.16-.08.32-.08.49zM64.98 201.89v.56h-.68v-5.67h.7v2.65h.02c.12-.17.29-.32.5-.45s.47-.18.76-.18c.26 0 .5.05.72.14s.4.23.56.4c.16.17.28.37.36.6.08.23.13.47.13.73s-.04.5-.13.73c-.08.23-.2.43-.36.6-.15.17-.34.3-.56.4a1.78 1.78 0 0 1-1.47-.02 1.37 1.37 0 0 1-.55-.49zm2.36-1.22c0-.17-.03-.32-.08-.48s-.12-.29-.22-.41-.22-.21-.37-.28c-.15-.07-.32-.1-.51-.1-.18 0-.34.04-.49.1-.15.07-.27.17-.38.28-.1.12-.19.26-.24.41a1.372 1.372 0 0 0 0 .98c.06.15.14.29.24.41.1.12.23.21.38.28.15.07.31.11.49.11.19 0 .37-.04.51-.11s.27-.17.37-.29c.1-.12.17-.26.22-.41s.08-.33.08-.49zM71.55 202.45c-.01-.09-.02-.19-.02-.3s-.01-.21-.01-.28h-.02c-.09.19-.24.35-.45.48-.21.13-.45.2-.71.2-.23 0-.43-.04-.6-.11a1.171 1.171 0 0 1-.65-.77c-.05-.17-.08-.36-.08-.56v-2.2h.7v1.96c0 .15.01.28.03.42.02.13.06.25.12.35.06.1.14.18.25.24.1.06.24.09.4.09.28 0 .51-.11.69-.32.17-.21.26-.5.26-.85v-1.89h.7v2.79c0 .1 0 .22.01.37 0 .15.01.28.02.4h-.64zM75.15 199.47h-.95v1.84c0 .21.04.37.12.46.08.09.21.14.38.14.06 0 .13-.01.21-.02.07-.01.14-.03.2-.06l.02.58c-.08.03-.18.05-.28.07-.1.02-.21.03-.32.03-.33 0-.59-.09-.77-.28-.18-.18-.27-.46-.27-.83v-1.93h-.68v-.58h.68v-1.02h.7v1.02h.94v.58zM77.5 199.47h-.94v1.84c0 .21.04.37.12.46.08.09.21.14.38.14.06 0 .13-.01.21-.02.07-.01.14-.03.2-.06l.02.58c-.08.03-.18.05-.28.07-.1.02-.21.03-.32.03-.33 0-.59-.09-.77-.28-.18-.18-.27-.46-.27-.83v-1.93h-.68v-.58h.68v-1.02h.7v1.02h.94v.58zM81.82 200.67a1.909 1.909 0 0 1-.55 1.36c-.17.17-.38.3-.61.39a2.136 2.136 0 0 1-1.52 0 1.77 1.77 0 0 1-.61-.39 1.91 1.91 0 0 1-.55-1.36 1.866 1.866 0 0 1 .55-1.34c.17-.17.37-.29.61-.39s.49-.14.76-.14.52.05.76.14.44.22.61.39.31.36.4.59c.1.22.15.47.15.75zm-.73 0c0-.17-.03-.33-.08-.49s-.13-.29-.23-.41-.22-.21-.37-.28c-.15-.07-.32-.1-.51-.1s-.36.04-.51.1c-.15.07-.27.16-.37.28s-.18.25-.23.41-.08.32-.08.49c0 .17.03.33.08.49s.13.29.23.41.22.21.37.28c.15.07.32.11.51.11s.36-.04.51-.11c.15-.07.27-.16.37-.28.1-.12.18-.26.23-.41s.08-.32.08-.49zM85.28 199.8c-.07-.12-.19-.21-.34-.29s-.31-.12-.48-.12a1.095 1.095 0 0 0-.85.39c-.1.12-.18.25-.23.41-.05.15-.08.32-.08.49s.03.33.08.49c.05.16.13.29.23.41s.22.21.37.28a1.136 1.136 0 0 0 .98 0c.15-.07.27-.17.36-.28l.47.43c-.15.17-.34.31-.56.41-.22.1-.48.15-.76.15-.27 0-.53-.04-.76-.13s-.43-.22-.6-.38c-.17-.16-.3-.36-.4-.59-.1-.23-.15-.49-.15-.77s.05-.53.14-.76c.09-.23.23-.43.4-.59.17-.16.37-.29.6-.38s.48-.13.75-.13c.25 0 .5.05.75.15.25.1.44.25.59.43l-.51.38zM87.22 200.44h.02l1.49-1.54h.94l-1.66 1.61 1.81 1.94h-.97l-1.6-1.84h-.02v1.84h-.7v-5.67h.7v3.66zM92.32 199.8a.876.876 0 0 0-.34-.32.988.988 0 0 0-.49-.12c-.08 0-.16.01-.24.03-.08.02-.15.04-.21.08s-.11.08-.15.14a.37.37 0 0 0-.06.21c0 .15.07.26.2.33s.34.14.61.2c.17.04.33.09.47.14.14.06.27.12.38.21.11.08.19.18.25.3s.09.25.09.41c0 .21-.04.39-.12.53a1.15 1.15 0 0 1-.77.56c-.17.04-.34.06-.52.06-.27 0-.53-.05-.79-.16s-.47-.26-.64-.48l.5-.43c.1.14.23.26.39.35a1.124 1.124 0 0 0 .81.11c.08-.02.16-.05.22-.09a.41.41 0 0 0 .16-.16c.04-.06.06-.15.06-.25 0-.17-.08-.29-.24-.37-.16-.08-.39-.15-.69-.22-.12-.03-.24-.07-.36-.11-.12-.04-.23-.1-.33-.18a.814.814 0 0 1-.24-.28.871.871 0 0 1-.09-.42c0-.19.04-.35.12-.49.08-.14.18-.25.3-.34.12-.09.27-.15.43-.2.16-.04.32-.06.49-.06.25 0 .5.05.74.15.24.1.42.25.55.43l-.49.44zM94.6 202a.494.494 0 0 1-.5.49c-.14 0-.26-.05-.36-.15-.1-.1-.15-.21-.15-.34 0-.13.05-.25.14-.35.1-.1.21-.15.36-.15s.26.05.36.14c.1.11.15.22.15.36zM98.11 202.45h-.74v-5.31h1.7c.25 0 .5.03.73.08.23.05.43.14.6.25.17.11.31.27.41.45s.15.42.15.69c0 .39-.12.7-.36.94s-.55.39-.93.46l1.48 2.44h-.9l-1.35-2.36h-.79v2.36zm0-2.98h.85c.17 0 .34-.01.49-.04s.28-.08.39-.15.2-.15.27-.26.1-.24.1-.4-.03-.29-.1-.4-.15-.19-.26-.26c-.11-.07-.23-.11-.38-.14-.14-.03-.3-.04-.46-.04h-.91v1.69zM105.16 200.64v.12c0 .04 0 .08-.01.12h-2.83a1.072 1.072 0 0 0 .35.76c.1.09.23.17.36.23.14.05.28.08.44.08.24 0 .45-.05.62-.16.17-.1.31-.23.41-.38l.49.4c-.19.25-.41.44-.67.56s-.54.18-.86.18c-.27 0-.52-.04-.75-.13-.23-.09-.43-.22-.59-.38s-.29-.36-.39-.59c-.1-.23-.14-.48-.14-.76 0-.27.05-.53.14-.76.09-.23.22-.43.39-.6a1.84 1.84 0 0 1 1.32-.53c.26 0 .5.04.71.13.21.08.39.21.54.37.15.16.26.35.34.58s.13.48.13.76zm-.72-.28c-.01-.14-.03-.27-.07-.39-.04-.12-.1-.23-.19-.32s-.19-.16-.31-.21a1.162 1.162 0 0 0-.85 0 1.076 1.076 0 0 0-.58.53c-.06.12-.1.25-.11.39h2.11zM108.05 199.8a.876.876 0 0 0-.34-.32.988.988 0 0 0-.49-.12c-.08 0-.16.01-.24.03-.08.02-.15.04-.21.08s-.11.08-.15.14a.37.37 0 0 0-.06.21c0 .15.07.26.2.33s.34.14.61.2c.17.04.33.09.47.14.14.06.27.12.38.21.11.08.19.18.25.3s.09.25.09.41c0 .21-.04.39-.12.53a1.15 1.15 0 0 1-.77.56c-.17.04-.34.06-.52.06-.27 0-.53-.05-.79-.16s-.47-.26-.64-.48l.5-.43c.1.14.23.26.39.35a1.124 1.124 0 0 0 .81.11c.08-.02.16-.05.22-.09a.41.41 0 0 0 .16-.16c.04-.06.06-.15.06-.25 0-.17-.08-.29-.24-.37-.16-.08-.39-.15-.69-.22-.12-.03-.24-.07-.36-.11-.12-.04-.23-.1-.33-.18a.814.814 0 0 1-.24-.28.871.871 0 0 1-.09-.42c0-.19.04-.35.12-.49.08-.14.18-.25.3-.34.12-.09.27-.15.43-.2.16-.04.32-.06.49-.06.25 0 .5.05.74.15.24.1.42.25.55.43l-.49.44zM111.96 202.45c-.01-.09-.02-.19-.02-.3s-.01-.21-.01-.28h-.02c-.09.19-.24.35-.45.48-.21.13-.45.2-.71.2-.23 0-.43-.04-.6-.11a1.171 1.171 0 0 1-.65-.77c-.05-.17-.08-.36-.08-.56v-2.2h.7v1.96c0 .15.01.28.03.42.02.13.06.25.12.35.06.1.14.18.25.24.1.06.24.09.4.09.28 0 .51-.11.69-.32.17-.21.26-.5.26-.85v-1.89h.7v2.79c0 .1 0 .22.01.37 0 .15.01.28.02.4h-.64zM114.54 202.45h-.7v-5.67h.7v5.67zM117.51 199.47h-.94v1.84c0 .21.04.37.12.46.08.09.21.14.38.14.06 0 .13-.01.21-.02.07-.01.14-.03.2-.06l.02.58c-.08.03-.18.05-.28.07-.1.02-.21.03-.32.03-.33 0-.59-.09-.77-.28-.18-.18-.27-.46-.27-.83v-1.93h-.68v-.58h.68v-1.02h.7v1.02h.94v.58zM120.15 199.8a.876.876 0 0 0-.34-.32.988.988 0 0 0-.49-.12c-.08 0-.16.01-.24.03-.08.02-.15.04-.21.08s-.11.08-.15.14a.37.37 0 0 0-.06.21c0 .15.07.26.2.33s.34.14.61.2c.17.04.33.09.47.14.14.06.27.12.38.21.11.08.19.18.25.3s.09.25.09.41c0 .21-.04.39-.12.53a1.15 1.15 0 0 1-.77.56c-.17.04-.34.06-.52.06-.27 0-.53-.05-.79-.16s-.47-.26-.64-.48l.5-.43c.1.14.23.26.39.35a1.124 1.124 0 0 0 .81.11c.08-.02.16-.05.22-.09a.41.41 0 0 0 .16-.16c.04-.06.06-.15.06-.25 0-.17-.08-.29-.24-.37-.16-.08-.39-.15-.69-.22-.12-.03-.24-.07-.36-.11-.12-.04-.23-.1-.33-.18a.814.814 0 0 1-.24-.28.871.871 0 0 1-.09-.42c0-.19.04-.35.12-.49.08-.14.18-.25.3-.34.12-.09.27-.15.43-.2.16-.04.32-.06.49-.06.25 0 .5.05.74.15.24.1.42.25.55.43l-.49.44zM124.55 199c.2-.13.43-.2.7-.2.24 0 .46.05.65.17.19.11.34.29.45.55.12-.23.29-.41.5-.53s.45-.18.7-.18c.23 0 .43.04.59.12s.3.18.41.31.19.28.24.46c.05.18.08.36.08.56v2.2h-.7v-1.97c0-.14-.01-.28-.04-.41-.03-.13-.07-.25-.13-.34a.69.69 0 0 0-.24-.24.737.737 0 0 0-.38-.09c-.16 0-.3.03-.41.1-.12.07-.21.15-.28.26s-.12.23-.16.36c-.03.13-.05.27-.05.41v1.92h-.7v-2.11c0-.14-.01-.27-.04-.38a.91.91 0 0 0-.13-.3.74.74 0 0 0-.23-.2.728.728 0 0 0-.35-.07.81.81 0 0 0-.65.32c-.17.21-.26.5-.26.85v1.89h-.7v-2.79c0-.09 0-.22-.01-.37s-.01-.28-.02-.4h.67c.01.09.02.19.02.3 0 .11.01.21.01.28h.02c.1-.19.25-.35.44-.48zM132.29 200.15c0-.26-.08-.46-.24-.59-.16-.13-.37-.19-.64-.19-.2 0-.39.04-.57.12s-.33.18-.45.3l-.37-.45c.17-.17.39-.29.64-.39.25-.09.52-.14.81-.14.25 0 .48.04.66.11.19.07.34.17.46.3.12.12.21.27.27.44.06.17.09.35.09.55v1.55c0 .12 0 .25.01.38s.02.24.04.33h-.64a2.22 2.22 0 0 1-.06-.51h-.02c-.13.19-.29.34-.49.44-.2.1-.43.16-.7.16-.14 0-.29-.02-.44-.06-.15-.04-.29-.1-.42-.18s-.23-.2-.31-.34-.12-.31-.12-.52c0-.27.07-.48.22-.64.15-.16.33-.28.57-.36.23-.08.5-.14.79-.16.29-.02.59-.04.89-.04v-.11zm-.17.6c-.18 0-.36.01-.54.02-.19.01-.36.04-.51.09s-.28.11-.38.2-.15.21-.15.36c0 .11.02.19.06.26s.1.13.17.17.15.08.23.09c.08.02.17.03.26.03.33 0 .58-.1.76-.3.18-.2.27-.45.27-.75v-.19h-.17zM135.49 201.68h.01l.98-2.79h.75l-1.72 4.39c-.06.15-.12.28-.19.4s-.15.22-.25.3-.21.15-.33.19-.28.07-.45.07c-.08 0-.15 0-.23-.01-.08-.01-.16-.02-.24-.04l.07-.62c.12.04.24.06.35.06.18 0 .32-.05.41-.15s.17-.25.25-.44l.23-.59-1.52-3.55h.79l1.09 2.78zM141.46 202.45h-.76l-1.45-3.55h.78l1.04 2.79h.01l1.05-2.79h.75l-1.42 3.55zM145.78 200.15c0-.26-.08-.46-.24-.59-.16-.13-.37-.19-.64-.19-.2 0-.39.04-.57.12s-.33.18-.45.3l-.37-.45c.17-.17.39-.29.64-.39.25-.09.52-.14.81-.14.25 0 .48.04.66.11.19.07.34.17.46.3.12.12.21.27.27.44.06.17.09.35.09.55v1.55c0 .12 0 .25.01.38s.02.24.04.33h-.64a2.22 2.22 0 0 1-.06-.51h-.02c-.13.19-.29.34-.49.44-.2.1-.43.16-.7.16-.14 0-.29-.02-.44-.06-.15-.04-.29-.1-.42-.18s-.23-.2-.31-.34-.12-.31-.12-.52c0-.27.07-.48.22-.64.15-.16.33-.28.57-.36.23-.08.5-.14.79-.16.29-.02.59-.04.89-.04v-.11zm-.17.6c-.18 0-.36.01-.54.02-.19.01-.36.04-.51.09s-.28.11-.38.2-.15.21-.15.36c0 .11.02.19.06.26s.1.13.17.17.15.08.23.09c.08.02.17.03.26.03.33 0 .58-.1.76-.3.18-.2.27-.45.27-.75v-.19h-.17zM147.62 199.29c-.01-.15-.01-.28-.02-.4h.67c.01.09.02.19.02.31s.01.21.01.29h.02c.1-.21.25-.38.44-.51s.41-.19.65-.19c.11 0 .2.01.28.03l-.03.65c-.1-.02-.21-.04-.32-.04-.17 0-.32.03-.44.09a.95.95 0 0 0-.31.25c-.08.1-.14.23-.18.36-.04.14-.06.28-.06.43v1.87h-.7v-2.79c-.02-.07-.02-.2-.03-.35zM151.69 201.68h.01l.98-2.79h.75l-1.72 4.39c-.06.15-.12.28-.19.4s-.15.22-.25.3-.21.15-.33.19-.28.07-.45.07c-.08 0-.15 0-.23-.01-.08-.01-.16-.02-.24-.04l.07-.62c.12.04.24.06.35.06.18 0 .32-.05.41-.15s.17-.25.25-.44l.22-.59-1.52-3.55h.79l1.1 2.78zM154.72 202c0 .13-.05.24-.14.34a.46.46 0 0 1-.36.15c-.14 0-.26-.05-.36-.15-.1-.1-.15-.21-.15-.34 0-.13.05-.25.14-.35.09-.1.21-.15.36-.15.14 0 .26.05.36.14.1.11.15.22.15.36z"/></svg>