<svg id="Layer_1" xmlns="http://www.w3.org/2000/svg" viewBox="0 0 160 600"><style>.st0{fill:#eaf5fb}</style><path class="st0" d="M31.16 87.26v-3.62h1.74v3.29c0 1.71.48 2.4 1.68 2.4 1.23 0 1.71-.69 1.71-2.4v-3.11c0-1.41-.39-2.1-1.41-2.76l-1.59-1.02c-1.53-.99-2.13-2.13-2.13-4.13v-2.67c0-2.28 1.23-3.56 3.35-3.56 2.13 0 3.35 1.29 3.35 3.56v2.67h-1.74v-2.37c0-1.62-.45-2.25-1.59-2.25s-1.59.63-1.59 2.25v2.25c0 1.41.39 2.1 1.41 2.76l1.59 1.02c1.53.99 2.13 2.13 2.13 4.13v3.56c0 2.37-1.29 3.68-3.47 3.68s-3.44-1.31-3.44-3.68zM43.06 71.53h-2.52v-1.56h6.83v1.56h-2.52v19.11h-1.8V71.53zM50.31 69.98h3.32c2.4 0 3.53 1.23 3.53 3.74v2.64c0 1.68-.54 2.7-1.62 3.17v.06c1.08.48 1.62 1.5 1.62 3.21v7.85h-1.8v-7.73c0-1.92-.54-2.49-2.25-2.49H52.1v10.21h-1.8V69.98zm3.11 8.89c1.5 0 1.95-.57 1.95-2.49v-2.37c0-1.92-.45-2.49-1.95-2.49H52.1v7.34h1.32zM60.67 69.98h5.93v1.56h-4.13v7.22h3.59v1.56h-3.59v8.78h4.13v1.56h-5.93V69.98zM69.66 69.98H72l3.26 15.13h.06V69.98h1.62v20.67h-1.95L71.34 73.6h-.06v17.04h-1.62V69.98zM80.48 87.71V73.39c0-2.37 1.29-3.71 3.44-3.71 2.19 0 3.42 1.35 3.42 3.71v2.28h-1.71v-1.95c0-1.74-.48-2.43-1.68-2.43-1.23 0-1.68.69-1.68 2.43V87.5c0 1.23.45 1.83 1.44 1.83 1.23 0 1.92-.93 1.92-2.61v-5.93h-1.68v-1.56h3.47v11.41H85.9v-1.47h-.09c-.48 1.14-1.35 1.77-2.58 1.77-1.74 0-2.75-1.22-2.75-3.23zM92.61 71.53h-2.52v-1.56h6.83v1.56H94.4v19.11h-1.8V71.53zM99.86 69.98h1.8v8.78h3.38v-8.78h1.8v20.67h-1.8V80.31h-3.38v10.33h-1.8V69.98zM110.49 69.98h5.93v1.56h-4.13v7.22h3.59v1.56h-3.59v8.78h4.13v1.56h-5.93V69.98zM119.48 69.98h2.34l3.26 15.13h.06V69.98h1.62v20.67h-1.95l-3.65-17.04h-.06v17.04h-1.62V69.98zM131.1 90.64h-.72v-2.46h2.04v2.16l-1.32 3.32h-1.05l1.05-3.02zM44.58 102.49h-2.52v-1.56h6.83v1.56h-2.52v19.11h-1.8v-19.11zM51.18 118.16v-13.78c0-2.4 1.29-3.74 3.47-3.74 2.19 0 3.47 1.35 3.47 3.74v13.78c0 2.4-1.29 3.74-3.47 3.74-2.19 0-3.47-1.35-3.47-3.74zm5.15-.3v-13.18c0-1.74-.48-2.43-1.68-2.43-1.23 0-1.68.69-1.68 2.43v13.18c0 1.74.45 2.43 1.68 2.43 1.2 0 1.68-.69 1.68-2.43zM61.36 100.94h2.34l3.26 15.13h.06v-15.13h1.62v20.67h-1.95l-3.65-17.04h-.06v17.04h-1.62v-20.67zM72 100.94h5.93v1.56H73.8v7.22h3.59v1.56H73.8v8.78h4.13v1.56H72v-20.68zM81.67 121.6h-.72v-2.46h2.04v2.16l-1.32 3.32h-1.05l1.05-3.02zM93.06 100.94h2.37l2.61 20.67H96.2l-.6-5.12h-2.82l-.6 5.12h-1.74l2.62-20.67zm2.36 13.98l-1.2-11.14h-.06l-1.2 11.14h2.46zM100.7 100.94h2.34l3.26 15.13h.06v-15.13h1.62v20.67h-1.95l-3.65-17.04h-.06v17.04h-1.62v-20.67zM111.33 100.94h3.41c2.4 0 3.53 1.23 3.53 3.74v13.18c0 2.52-1.14 3.74-3.53 3.74h-3.41v-20.66zm3.21 19.11c1.5 0 1.95-.57 1.95-2.49v-12.58c0-1.92-.45-2.49-1.95-2.49h-1.41v17.55h1.41zM24.03 131.89h5.93v1.56h-4.13v7.52h3.59v1.56h-3.59v10.03h-1.8v-20.67zM32.6 131.89h1.8v20.67h-1.8v-20.67zM37.75 131.89h3.32c2.4 0 3.53 1.23 3.53 3.74v2.64c0 1.68-.54 2.7-1.62 3.17v.06c1.08.48 1.62 1.5 1.62 3.21v7.85h-1.8v-7.73c0-1.92-.54-2.49-2.25-2.49h-1.02v10.21h-1.8v-20.66zm3.12 8.9c1.5 0 1.95-.57 1.95-2.49v-2.37c0-1.92-.45-2.49-1.95-2.49h-1.32v7.34h1.32zM47.82 131.89h2.85l2.31 15.25h.06l2.31-15.25h2.97v20.67h-1.8v-18.48h-.06l-2.79 18.48h-1.41l-2.79-18.48h-.06v18.48h-1.59v-20.67zM66.46 131.89h2.85l2.31 15.25h.06l2.31-15.25h2.97v20.67h-1.8v-18.48h-.06l-2.79 18.48H70.9l-2.79-18.48h-.06v18.48h-1.59v-20.67zM80.24 149.24V131.9h1.8v17.01c0 1.68.42 2.34 1.62 2.34s1.62-.66 1.62-2.34V131.9H87v17.34c0 2.31-1.26 3.62-3.38 3.62-2.13 0-3.38-1.32-3.38-3.62zM89.97 149.18v-3.62h1.74v3.29c0 1.71.48 2.4 1.68 2.4 1.23 0 1.71-.69 1.71-2.4v-3.11c0-1.41-.39-2.1-1.41-2.76l-1.59-1.02c-1.53-.99-2.13-2.13-2.13-4.13v-2.67c0-2.28 1.23-3.56 3.35-3.56 2.13 0 3.36 1.29 3.36 3.56v2.67h-1.74v-2.37c0-1.62-.45-2.25-1.59-2.25-1.14 0-1.59.63-1.59 2.25v2.25c0 1.41.39 2.1 1.41 2.76l1.59 1.02c1.53.99 2.13 2.13 2.13 4.13v3.56c0 2.37-1.29 3.68-3.47 3.68s-3.45-1.32-3.45-3.68zM99.74 149.3v-14.14c0-2.28 1.2-3.56 3.35-3.56 2.19 0 3.38 1.29 3.38 3.56v3.38h-1.71v-3.08c0-1.62-.48-2.25-1.62-2.25-1.17 0-1.62.63-1.62 2.25V149c0 1.62.45 2.25 1.62 2.25 1.14 0 1.62-.63 1.62-2.25v-4.16h1.71v4.46c0 2.28-1.2 3.56-3.38 3.56-2.15 0-3.35-1.29-3.35-3.56zM109.51 131.89h1.8V151h3.83v1.56h-5.63v-20.67zM117.78 131.89h5.93v1.56h-4.13v7.22h3.59v1.56h-3.59V151h4.13v1.56h-5.93v-20.67zM126.19 149.18v-3.62h1.74v3.29c0 1.71.48 2.4 1.68 2.4 1.23 0 1.71-.69 1.71-2.4v-3.11c0-1.41-.39-2.1-1.41-2.76l-1.59-1.02c-1.53-.99-2.13-2.13-2.13-4.13v-2.67c0-2.28 1.23-3.56 3.35-3.56 2.13 0 3.36 1.29 3.36 3.56v2.67h-1.74v-2.37c0-1.62-.45-2.25-1.59-2.25-1.14 0-1.59.63-1.59 2.25v2.25c0 1.41.39 2.1 1.41 2.76l1.59 1.02c1.53.99 2.13 2.13 2.13 4.13v3.56c0 2.37-1.29 3.68-3.47 3.68s-3.45-1.32-3.45-3.68zM136.08 150.1h2.01v2.46h-2.01v-2.46z"/></svg>