<svg id="Layer_1" xmlns="http://www.w3.org/2000/svg" viewBox="0 0 300 250"><style>.st0{fill:#fff}</style><path class="st0" d="M13.52 51.61h-1.86l.11-1.64h1.86l.56-7.81h-1.86l.11-1.64h1.86l.48-6.96h1.79l-.48 6.96h2.75l.48-6.96h1.75l-.48 6.96h1.93l-.11 1.64h-1.93l-.56 7.81h1.97l-.15 1.64h-1.93l-.52 7.63h-1.75l.52-7.63h-2.75l-.52 7.63H13l.52-7.63zm4.65-1.63l.56-7.81h-2.75l-.56 7.81h2.75zM28.36 36.1l-3.27 2.01v-2.08l4.09-2.53h1.38v25.74h-2.19V36.1zM38.09 39.67h2.21L43.39 54h.06V39.67h1.53v19.57h-1.84L39.68 43.1h-.06v16.14h-1.53V39.67zM48.19 55.98V42.93c0-2.27 1.22-3.55 3.29-3.55 2.07 0 3.29 1.28 3.29 3.55v13.05c0 2.27-1.22 3.55-3.29 3.55-2.07-.01-3.29-1.28-3.29-3.55zm4.88-.29V43.21c0-1.65-.45-2.3-1.59-2.3-1.16 0-1.59.65-1.59 2.3v12.48c0 1.65.43 2.3 1.59 2.3 1.14 0 1.59-.65 1.59-2.3zM57.98 39.67h2.21L63.28 54h.06V39.67h1.53v19.57h-1.84L59.57 43.1h-.06v16.14h-1.53V39.67zM67.88 56.03V52.6h1.65v3.12c0 1.62.45 2.27 1.59 2.27 1.16 0 1.62-.65 1.62-2.27v-2.95c0-1.33-.37-1.99-1.33-2.61l-1.5-.96c-1.45-.94-2.01-2.01-2.01-3.91v-2.52c0-2.16 1.16-3.38 3.18-3.38 2.01 0 3.18 1.22 3.18 3.38v2.52h-1.65v-2.24c0-1.53-.43-2.13-1.5-2.13-1.08 0-1.5.6-1.5 2.13v2.13c0 1.33.37 1.99 1.33 2.61l1.5.96c1.45.94 2.01 2.01 2.01 3.91v3.38c0 2.24-1.22 3.49-3.29 3.49-2.09-.01-3.28-1.26-3.28-3.5zM77.32 56.09V39.67h1.7v16.11c0 1.59.4 2.21 1.53 2.21s1.53-.62 1.53-2.21V39.67h1.65v16.42c0 2.18-1.19 3.43-3.21 3.43-2.01 0-3.2-1.25-3.2-3.43zM86.99 39.67h3.15c2.27 0 3.35 1.16 3.35 3.55v2.5c0 1.59-.51 2.55-1.53 3.01v.06c1.02.45 1.53 1.42 1.53 3.04v7.43h-1.7v-7.32c0-1.82-.51-2.35-2.13-2.35h-.96v9.67H87V39.67zm2.95 8.42c1.42 0 1.84-.54 1.84-2.35V43.5c0-1.82-.43-2.35-1.84-2.35H88.7v6.95h1.24zM96.55 56.46V42.9c0-2.24 1.22-3.52 3.26-3.52 2.07 0 3.23 1.28 3.23 3.52v2.16h-1.62v-1.84c0-1.65-.45-2.3-1.59-2.3-1.16 0-1.59.65-1.59 2.3v13.05c0 1.16.43 1.73 1.36 1.73 1.16 0 1.82-.88 1.82-2.47v-5.62h-1.59v-1.48h3.29v10.81h-1.45v-1.39h-.08c-.45 1.08-1.28 1.67-2.44 1.67-1.63 0-2.6-1.16-2.6-3.06zM106.25 39.67h1.7v19.57h-1.7V39.67zM111.16 56.15V42.76c0-2.16 1.13-3.38 3.18-3.38 2.07 0 3.21 1.22 3.21 3.38v3.21h-1.62v-2.92c0-1.53-.45-2.13-1.53-2.13-1.11 0-1.53.6-1.53 2.13v12.82c0 1.53.43 2.13 1.53 2.13 1.08 0 1.53-.6 1.53-2.13v-3.94h1.62v4.23c0 2.16-1.13 3.38-3.21 3.38-2.05-.02-3.18-1.24-3.18-3.39zM122.36 39.67h2.24l2.47 19.57h-1.73l-.57-4.85h-2.67l-.57 4.85h-1.65l2.48-19.57zm2.24 13.24l-1.13-10.55h-.06l-1.13 10.55h2.32zM129.74 39.67h1.7v18.1h3.63v1.48h-5.33V39.67zM12.19 65.45h5.62v1.48H13.9v7.12h3.4v1.48h-3.4v9.5h-1.7V65.45zM22.26 65.45h2.24l2.47 19.57h-1.73l-.57-4.85H22l-.57 4.85h-1.65l2.48-19.57zM24.5 78.7l-1.13-10.55h-.06L22.18 78.7h2.32zM31.34 66.93h-2.38v-1.48h6.47v1.48h-2.38v18.1h-1.7v-18.1zM42.74 65.45h3.15c2.27 0 3.35 1.16 3.35 3.55v2.5c0 1.59-.51 2.55-1.53 3.01v.06c1.02.45 1.53 1.42 1.53 3.04v7.43h-1.7v-7.32c0-1.82-.51-2.35-2.13-2.35h-.96v9.67h-1.7V65.45zm2.95 8.43c1.42 0 1.84-.54 1.84-2.35v-2.24c0-1.82-.43-2.35-1.84-2.35h-1.25v6.95h1.25zM52.41 65.45h5.62v1.48h-3.91v6.84h3.4v1.48h-3.4v8.31h3.91v1.48h-5.62V65.45zM60.78 65.45h3.23c2.27 0 3.35 1.16 3.35 3.55v12.48c0 2.38-1.08 3.55-3.35 3.55h-3.23V65.45zm3.04 18.1c1.42 0 1.84-.54 1.84-2.35V69.28c0-1.82-.43-2.35-1.84-2.35h-1.33v16.62h1.33zM70.48 81.88V65.45h1.7v16.11c0 1.59.4 2.21 1.53 2.21s1.53-.62 1.53-2.21V65.45h1.65v16.42c0 2.18-1.19 3.43-3.21 3.43-2.01.01-3.2-1.24-3.2-3.42zM80.04 81.93V68.54c0-2.16 1.13-3.38 3.18-3.38 2.07 0 3.21 1.22 3.21 3.38v3.21H84.8v-2.92c0-1.53-.45-2.13-1.53-2.13-1.11 0-1.53.6-1.53 2.13v12.82c0 1.53.43 2.13 1.53 2.13 1.08 0 1.53-.6 1.53-2.13v-3.94h1.62v4.23c0 2.16-1.13 3.38-3.21 3.38-2.04-.01-3.17-1.23-3.17-3.39zM91.13 66.93h-2.38v-1.48h6.47v1.48h-2.38v18.1h-1.7v-18.1zM97.85 65.45h1.7v19.57h-1.7V65.45zM102.76 81.76V68.71c0-2.27 1.22-3.55 3.29-3.55 2.07 0 3.29 1.28 3.29 3.55v13.05c0 2.27-1.22 3.55-3.29 3.55-2.07 0-3.29-1.28-3.29-3.55zm4.88-.28V69c0-1.65-.45-2.3-1.59-2.3-1.16 0-1.59.65-1.59 2.3v12.48c0 1.65.43 2.3 1.59 2.3 1.13 0 1.59-.66 1.59-2.3zM112.54 65.45h2.21l3.09 14.33h.06V65.45h1.53v19.57h-1.84l-3.46-16.14h-.06v16.14h-1.53V65.45zM13.9 92.71h-2.38v-1.48h6.47v1.48H15.6v18.1h-1.7v-18.1zM20.62 91.24h3.15c2.27 0 3.35 1.16 3.35 3.55v2.5c0 1.59-.51 2.55-1.53 3.01v.06c1.02.45 1.53 1.42 1.53 3.04v7.43h-1.7v-7.32c0-1.82-.51-2.35-2.13-2.35h-.96v9.67h-1.7V91.24zm2.95 8.42c1.42 0 1.84-.54 1.84-2.35v-2.24c0-1.82-.43-2.35-1.84-2.35h-1.25v6.95h1.25zM30.29 91.24h5.62v1.48H32v6.84h3.4v1.48H32v8.31h3.91v1.48h-5.62V91.24zM40.47 91.24h2.24l2.47 19.57h-1.73l-.57-4.85h-2.67l-.57 4.85H38l2.47-19.57zm2.24 13.25l-1.13-10.55h-.06l-1.13 10.55h2.32zM49.55 92.71h-2.38v-1.48h6.47v1.48h-2.38v18.1h-1.7v-18.1zM56.27 91.24h2.69l2.18 14.44h.06l2.18-14.44h2.81v19.57h-1.7v-17.5h-.06l-2.64 17.5h-1.33l-2.64-17.5h-.06v17.5h-1.5V91.24zM69.52 91.24h5.62v1.48h-3.91v6.84h3.4v1.48h-3.4v8.31h3.91v1.48h-5.62V91.24zM77.88 91.24h2.21l3.09 14.33h.06V91.24h1.53v19.57h-1.84l-3.46-16.14h-.06v16.14h-1.53V91.24zM89.8 92.71h-2.38v-1.48h6.47v1.48H91.5v18.1h-1.7v-18.1zM95.95 108.48h1.9v2.33h-1.9v-2.33zM98.75 92.67l-1.42.89-.38-.63 1.49-.79-1.49-.78.38-.63 1.42.89-.08-1.67h.74l-.08 1.67 1.42-.89.38.63-1.49.79 1.49.78-.38.63-1.42-.89.08 1.67h-.74l.08-1.67z"/></svg>