<svg id="Layer_1" xmlns="http://www.w3.org/2000/svg" viewBox="0 0 160 600"><style>.st0{fill:#00a9e0}.st1{fill:#fff}</style><path class="st0" d="M24.55 461.89h111.81v27.23H24.55z"/><path class="st1" d="M33.4 480.9v-9.79h2.38v7.73h3.79v2.06H33.4zM41.15 480.9v-9.79h6.58v2h-4.3v1.84h4.06v1.89h-4.06v2.03h4.55v2.02h-6.83zM56.66 480.9l-.76-1.92h-3.79l-.72 1.92h-2.57l4.11-9.79h2.29l4.06 9.79h-2.62zm-2.63-7.17l-1.24 3.36h2.46l-1.22-3.36zM65.82 480.9l-2.12-3.88h-.8v3.88h-2.32v-9.79h3.73c1.88 0 3.75.72 3.75 2.96 0 1.31-.77 2.25-2.03 2.64l2.56 4.19h-2.77zm-1.67-7.88h-1.26v2.28h1.12c.76 0 1.71-.19 1.71-1.19.01-.91-.86-1.09-1.57-1.09zM76.45 480.9l-3.94-6.4h-.04l.06 6.4h-2.29v-9.79h2.7l3.93 6.39h.04l-.06-6.39h2.29v9.79h-2.69zM94.45 480.9l.05-6.93h-.04l-2.54 6.93h-1.66l-2.47-6.93h-.04l.06 6.93h-2.23v-9.79h3.36l2.23 6.28h.05l2.13-6.28h3.42v9.79h-2.32zM104.12 481.16c-3.05 0-5.32-2.1-5.32-5.2 0-3.14 2.27-5.12 5.32-5.12 3.07 0 5.34 1.98 5.34 5.12 0 3.1-2.27 5.2-5.34 5.2zm0-8.18c-1.66 0-2.79 1.27-2.79 2.99 0 1.77 1.15 3.04 2.79 3.04 1.65 0 2.81-1.27 2.81-3.04 0-1.72-1.15-2.99-2.81-2.99zM116.74 480.9l-2.12-3.88h-.8v3.88h-2.32v-9.79h3.73c1.88 0 3.75.72 3.75 2.96 0 1.31-.77 2.25-2.03 2.64l2.56 4.19h-2.77zm-1.67-7.88h-1.26v2.28h1.12c.76 0 1.71-.19 1.71-1.19.01-.91-.87-1.09-1.57-1.09zM121.15 480.9v-9.79h6.58v2h-4.3v1.84h4.06v1.89h-4.06v2.03h4.55v2.02h-6.83z"/></svg>