<svg id="Layer_1" xmlns="http://www.w3.org/2000/svg" viewBox="0 0 160 600"><style>.st0{fill:#fff}</style><path class="st0" d="M18.68 508.84h-.84v-6.01h.84v6.01zM21.99 508.84h-.87l-1.64-4.02h.88l1.18 3.17h.02l1.19-3.17h.85l-1.61 4.02zM26.88 506.23c0-.3-.09-.52-.27-.67s-.42-.22-.72-.22c-.23 0-.44.04-.64.13s-.37.2-.5.34l-.42-.51c.2-.19.44-.33.73-.44.29-.11.59-.16.92-.16.29 0 .54.04.75.12.21.08.39.19.52.33s.24.31.31.5.1.4.1.62v1.76c0 .14 0 .28.01.43.01.15.02.27.05.37H27c-.05-.19-.07-.38-.07-.58h-.03c-.15.21-.33.38-.56.5-.22.12-.49.18-.79.18-.16 0-.32-.02-.5-.06a1.33 1.33 0 0 1-.47-.21c-.14-.1-.26-.22-.35-.38a1.17 1.17 0 0 1-.14-.59c0-.31.08-.55.25-.73.16-.18.38-.31.65-.41.27-.09.57-.15.9-.18s.67-.04 1.01-.04v-.1zm-.19.69c-.2 0-.4.01-.62.03-.21.02-.4.05-.58.1-.17.05-.32.13-.43.23-.11.1-.17.24-.17.41 0 .12.02.22.07.3.05.08.11.14.19.2.08.05.17.09.26.11.1.02.2.03.3.03.37 0 .66-.11.86-.33.2-.22.3-.5.3-.84v-.21h-.18zM29.7 504.81c.01.1.02.22.03.34.01.13.01.23.01.32h.03c.05-.11.12-.21.21-.3s.19-.17.3-.25c.11-.07.24-.13.37-.17.14-.04.28-.06.42-.06.26 0 .48.04.67.13.19.09.34.21.47.35.12.15.22.32.28.52.06.2.09.41.09.64v2.5h-.8v-2.23c0-.16-.01-.32-.04-.47-.03-.15-.07-.28-.14-.39s-.16-.2-.28-.27c-.12-.07-.27-.1-.46-.1-.32 0-.58.12-.78.36-.2.24-.3.56-.3.96v2.14h-.8v-3.16c0-.11 0-.25-.01-.42-.01-.17-.01-.32-.03-.45h.76zM36.34 504.81l.91 3.07h.02l.96-3.07h.84l.98 3.07h.02l.91-3.07h.84l-1.33 4.02h-.83l-.99-3.02h-.02l-.98 3.02h-.83l-1.34-4.02h.84zM45.11 506.23c0-.3-.09-.52-.27-.67s-.42-.22-.72-.22c-.23 0-.44.04-.64.13s-.37.2-.5.34l-.42-.51c.2-.19.44-.33.73-.44.29-.11.59-.16.92-.16.29 0 .54.04.75.12.21.08.39.19.52.33s.24.31.31.5.1.4.1.62v1.76c0 .14 0 .28.01.43.01.15.02.27.05.37h-.72c-.05-.19-.07-.38-.07-.58h-.03c-.15.21-.33.38-.56.5-.22.12-.49.18-.79.18-.16 0-.32-.02-.5-.06a1.33 1.33 0 0 1-.47-.21c-.14-.1-.26-.22-.35-.38a1.17 1.17 0 0 1-.14-.59c0-.31.08-.55.25-.73.16-.18.38-.31.65-.41.27-.09.57-.15.9-.18s.67-.04 1.01-.04v-.1zm-.2.69c-.2 0-.4.01-.62.03-.21.02-.4.05-.58.1-.17.05-.32.13-.43.23-.11.1-.17.24-.17.41 0 .12.02.22.07.3.05.08.11.14.19.2.08.05.17.09.26.11.1.02.2.03.3.03.37 0 .66-.11.86-.33.2-.22.3-.5.3-.84v-.21h-.18zM49.38 505.83c-.09-.15-.22-.27-.38-.36-.16-.09-.35-.14-.55-.14-.09 0-.18.01-.27.03-.09.02-.17.05-.24.09-.07.04-.13.1-.17.16-.04.07-.06.15-.06.24 0 .17.08.3.23.38s.38.16.69.22c.19.05.37.1.53.16.16.06.31.14.43.23s.22.21.28.34c.07.13.1.28.1.46 0 .24-.05.44-.14.6-.09.16-.21.3-.36.4s-.32.18-.51.22c-.19.05-.39.07-.59.07-.31 0-.6-.06-.9-.18-.29-.12-.53-.3-.73-.54l.57-.48c.11.16.26.29.45.4.19.11.4.16.62.16.1 0 .2-.01.29-.03s.18-.05.25-.1c.08-.04.14-.1.18-.18.05-.07.07-.17.07-.28 0-.19-.09-.33-.27-.42-.18-.09-.44-.18-.79-.25-.14-.03-.27-.08-.41-.12-.14-.05-.26-.11-.38-.2s-.21-.19-.28-.32a.989.989 0 0 1-.11-.47c0-.21.04-.4.13-.56s.2-.28.34-.38c.14-.1.3-.17.48-.22s.37-.07.56-.07c.29 0 .57.06.84.17.27.11.48.28.62.49l-.52.48zM55.06 505.47h-1.07v2.09c0 .24.05.42.14.52.09.1.23.16.43.16.07 0 .15-.01.24-.02.08-.02.16-.04.23-.07l.03.65c-.1.03-.2.06-.32.08-.12.02-.24.03-.36.03-.38 0-.67-.11-.87-.31-.2-.21-.3-.52-.3-.94v-2.18h-.77v-.65h.77v-1.15H54v1.15h1.07v.64zM55.88 505.26c-.01-.17-.01-.32-.03-.45h.76c.01.1.02.22.03.35.01.13.01.24.01.33h.03c.11-.24.28-.43.5-.57.22-.14.46-.22.73-.22.12 0 .23.01.31.03l-.03.74a1.4 1.4 0 0 0-.37-.04c-.19 0-.36.04-.5.11s-.26.17-.35.28a1.444 1.444 0 0 0-.28.9v2.11h-.8v-3.16c-.01-.1-.01-.24-.01-.41zM62.56 506.79v.14c0 .05 0 .09-.01.14h-3.2c.01.17.04.33.11.48.07.15.17.28.28.39.12.11.26.2.41.26.16.06.32.09.5.09.27 0 .51-.06.7-.18.2-.12.35-.26.47-.43l.56.45c-.22.29-.47.5-.76.63s-.62.2-.97.2c-.31 0-.59-.05-.85-.15-.26-.1-.48-.25-.67-.43-.19-.18-.33-.41-.44-.67-.11-.26-.16-.55-.16-.87 0-.31.05-.6.16-.86.1-.26.25-.49.44-.67.19-.19.41-.33.66-.44a2.276 2.276 0 0 1 1.62-.02c.24.1.44.23.61.42.17.18.3.4.39.66.11.25.15.54.15.86zm-.81-.32c-.01-.16-.03-.31-.08-.45s-.12-.26-.21-.36-.21-.18-.35-.24c-.14-.06-.3-.09-.49-.09a1.28 1.28 0 0 0-.87.33 1.216 1.216 0 0 0-.39.81h2.39zM66.12 506.23c0-.3-.09-.52-.27-.67s-.42-.22-.72-.22c-.23 0-.44.04-.64.13s-.37.2-.5.34l-.42-.51c.2-.19.44-.33.73-.44.29-.11.59-.16.92-.16.29 0 .54.04.75.12.21.08.39.19.52.33s.24.31.31.5.1.4.1.62v1.76c0 .14 0 .28.01.43.01.15.02.27.05.37h-.72c-.05-.19-.07-.38-.07-.58h-.03c-.15.21-.33.38-.56.5-.22.12-.49.18-.79.18-.16 0-.32-.02-.5-.06a1.33 1.33 0 0 1-.47-.21c-.14-.1-.26-.22-.35-.38a1.17 1.17 0 0 1-.14-.59c0-.31.08-.55.25-.73.16-.18.38-.31.65-.41.27-.09.57-.15.9-.18s.67-.04 1.01-.04v-.1zm-.19.69c-.2 0-.4.01-.62.03-.21.02-.4.05-.58.1-.17.05-.32.13-.43.23-.11.1-.17.24-.17.41 0 .12.02.22.07.3.05.08.11.14.19.2.08.05.17.09.26.11.1.02.2.03.3.03.37 0 .66-.11.86-.33.2-.22.3-.5.3-.84v-.21h-.18zM70.1 505.47h-1.07v2.09c0 .24.05.42.14.52.09.1.23.16.43.16.07 0 .15-.01.24-.02.08-.02.16-.04.23-.07l.03.65c-.1.03-.2.06-.32.08-.12.02-.24.03-.36.03-.38 0-.67-.11-.87-.31-.2-.21-.3-.52-.3-.94v-2.18h-.77v-.65h.77v-1.15h.79v1.15h1.07v.64zM74.69 506.79v.14c0 .05 0 .09-.01.14h-3.2c.01.17.04.33.11.48.07.15.17.28.28.39.12.11.26.2.41.26.16.06.32.09.5.09.27 0 .51-.06.7-.18.2-.12.35-.26.47-.43l.56.45c-.22.29-.47.5-.76.63s-.62.2-.97.2c-.31 0-.59-.05-.85-.15-.26-.1-.48-.25-.67-.43-.19-.18-.33-.41-.44-.67-.11-.26-.16-.55-.16-.87 0-.31.05-.6.16-.86.1-.26.25-.49.44-.67.19-.19.41-.33.66-.44a2.276 2.276 0 0 1 1.62-.02c.24.1.44.23.61.42.17.18.3.4.39.66.1.25.15.54.15.86zm-.82-.32c-.01-.16-.03-.31-.08-.45s-.12-.26-.21-.36-.21-.18-.35-.24c-.14-.06-.3-.09-.49-.09a1.28 1.28 0 0 0-.87.33 1.216 1.216 0 0 0-.39.81h2.39zM79 508.2c-.15.24-.36.43-.62.56-.26.13-.54.19-.83.19-.31 0-.59-.06-.84-.17-.25-.11-.46-.26-.64-.46-.18-.19-.31-.42-.41-.68-.1-.26-.14-.54-.14-.83 0-.29.05-.57.14-.83s.23-.48.41-.67c.18-.19.39-.34.64-.45s.52-.16.82-.16c.33 0 .61.07.86.21s.44.31.58.5h.02v-3h.8v6.42h-.77v-.64H79zm-2.65-1.38c0 .19.03.37.08.54s.14.33.25.47.25.24.42.33c.16.08.36.12.58.12a1.31 1.31 0 0 0 .99-.44c.12-.13.21-.29.28-.46.07-.17.1-.36.1-.55 0-.19-.03-.38-.1-.55a1.382 1.382 0 0 0-.71-.79c-.17-.08-.35-.12-.56-.12-.22 0-.41.04-.58.12-.16.08-.3.19-.42.32-.11.14-.2.29-.25.47s-.08.35-.08.54zM83.6 504.81l.91 3.07h.02l.96-3.07h.84l.98 3.07h.02l.91-3.07h.84l-1.33 4.02h-.85l-.99-3.02h-.02l-.98 3.02h-.83l-1.34-4.02h.86zM90.8 503.36c0 .15-.05.27-.16.37-.1.1-.23.14-.38.14s-.27-.05-.37-.15c-.1-.1-.15-.22-.15-.36 0-.15.05-.27.15-.37.1-.1.22-.15.37-.15s.27.05.38.15c.11.1.16.22.16.37zm-.13 5.48h-.8v-4.02h.8v4.02zM94.03 505.47h-1.07v2.09c0 .24.05.42.14.52.09.1.23.16.43.16.07 0 .15-.01.24-.02s.16-.04.23-.07l.03.65c-.1.03-.2.06-.32.08s-.24.03-.36.03c-.38 0-.67-.11-.87-.31-.2-.21-.3-.52-.3-.94v-2.18h-.78v-.65h.77v-1.15h.79v1.15h1.07v.64zM95.69 505.42c.1-.2.26-.37.49-.51s.49-.21.78-.21c.26 0 .48.04.67.13.19.09.34.21.47.35.12.15.22.32.28.52.06.2.09.41.09.64v2.5h-.8v-2.23c0-.16-.01-.32-.04-.47s-.07-.28-.14-.39c-.07-.11-.16-.2-.28-.27s-.27-.1-.45-.1c-.32 0-.58.12-.78.36-.2.24-.3.56-.3.97v2.14h-.8v-6.42h.8v3h.01zM107.13 507.9c-.24.32-.55.58-.93.79s-.83.3-1.37.3c-.46 0-.88-.08-1.27-.23-.39-.16-.72-.37-1-.65s-.5-.61-.66-1c-.16-.39-.24-.81-.24-1.28s.08-.9.24-1.29c.16-.39.38-.72.67-.99.29-.27.62-.49 1.01-.64a3.497 3.497 0 0 1 1.89-.17c.21.04.41.1.6.18s.37.18.53.29.29.25.41.4l-.66.51c-.15-.2-.35-.37-.62-.5s-.56-.2-.87-.2c-.35 0-.67.06-.95.19-.28.13-.52.3-.72.52s-.35.48-.46.77c-.11.29-.16.6-.16.93 0 .34.05.66.16.95s.25.55.45.77c.2.22.43.39.71.51.28.12.59.19.94.19.34 0 .65-.07.92-.2s.51-.33.69-.59l.69.44zM111.92 506.82c0 .31-.05.6-.17.86-.11.26-.26.49-.46.67-.19.19-.43.34-.69.44s-.55.16-.86.16-.59-.05-.86-.16c-.27-.1-.5-.25-.69-.44s-.34-.41-.45-.67c-.11-.26-.17-.55-.17-.86 0-.31.05-.6.17-.85.11-.26.26-.48.45-.67.19-.19.42-.33.69-.44.27-.1.55-.16.86-.16s.59.05.86.16a2.04 2.04 0 0 1 1.15 1.11c.11.25.17.53.17.85zm-.84 0c0-.19-.03-.38-.09-.55s-.15-.33-.26-.46-.25-.24-.42-.32c-.17-.08-.36-.12-.57-.12s-.41.04-.58.12c-.17.08-.31.18-.42.32-.11.13-.2.29-.26.46-.06.17-.09.36-.09.55 0 .19.03.38.09.55.06.17.15.33.26.47.11.13.25.24.42.32.17.08.36.12.58.12a1.261 1.261 0 0 0 .99-.44c.11-.14.2-.29.26-.47s.09-.36.09-.55zM117.09 506.82c0 .31-.05.6-.17.86-.11.26-.26.49-.46.67-.19.19-.43.34-.69.44s-.55.16-.86.16-.59-.05-.86-.16c-.27-.1-.5-.25-.69-.44s-.34-.41-.45-.67c-.11-.26-.17-.55-.17-.86 0-.31.05-.6.17-.85.11-.26.26-.48.45-.67.19-.19.42-.33.69-.44.27-.1.55-.16.86-.16s.59.05.86.16a2.04 2.04 0 0 1 1.15 1.11c.12.25.17.53.17.85zm-.83 0c0-.19-.03-.38-.09-.55s-.15-.33-.26-.46-.25-.24-.42-.32c-.17-.08-.36-.12-.57-.12s-.41.04-.58.12c-.17.08-.31.18-.42.32-.11.13-.2.29-.26.46-.06.17-.09.36-.09.55 0 .19.03.38.09.55.06.17.15.33.26.47.11.13.25.24.42.32.17.08.36.12.58.12a1.261 1.261 0 0 0 .99-.44c.11-.14.2-.29.26-.47s.09-.36.09-.55zM119.01 508.84h-.8v-6.42h.8v6.42zM122.55 508.84h-.84v-5.27h-1.93v-.74h4.69v.74h-1.93v5.27zM128.49 506.82c0 .31-.05.6-.17.86-.11.26-.26.49-.46.67-.19.19-.43.34-.69.44s-.55.16-.86.16-.59-.05-.86-.16c-.27-.1-.5-.25-.69-.44s-.34-.41-.45-.67c-.11-.26-.17-.55-.17-.86 0-.31.05-.6.17-.85.11-.26.26-.48.45-.67.19-.19.42-.33.69-.44.27-.1.55-.16.86-.16s.59.05.86.16a2.04 2.04 0 0 1 1.15 1.11c.12.25.17.53.17.85zm-.83 0c0-.19-.03-.38-.09-.55s-.15-.33-.26-.46-.25-.24-.42-.32c-.17-.08-.36-.12-.57-.12s-.41.04-.58.12c-.17.08-.31.18-.42.32-.11.13-.2.29-.26.46-.06.17-.09.36-.09.55 0 .19.03.38.09.55.06.17.15.33.26.47.11.13.25.24.42.32.17.08.36.12.58.12a1.261 1.261 0 0 0 .99-.44c.11-.14.2-.29.26-.47s.09-.36.09-.55zM130.32 504.81c.01.1.02.22.03.34s.01.23.01.32h.03c.05-.11.12-.21.21-.3s.19-.17.3-.25c.11-.07.24-.13.37-.17.14-.04.28-.06.42-.06.26 0 .48.04.67.13s.34.21.47.35c.12.15.22.32.28.52.06.2.09.41.09.64v2.5h-.8v-2.23c0-.16-.01-.32-.04-.47s-.07-.28-.14-.39a.806.806 0 0 0-.28-.27c-.12-.07-.27-.1-.46-.1-.32 0-.58.12-.78.36-.2.24-.3.56-.3.96v2.14h-.8v-3.16c0-.11 0-.25-.01-.42 0-.17-.01-.32-.03-.45h.76zM138.3 506.79v.14c0 .05 0 .09-.01.14h-3.2c.01.17.04.33.11.48.07.15.17.28.29.39.12.11.26.2.41.26.16.06.32.09.5.09.27 0 .51-.06.7-.18.2-.12.35-.26.47-.43l.56.45c-.21.29-.47.5-.76.63-.29.13-.62.2-.97.2-.31 0-.59-.05-.85-.15-.26-.1-.48-.25-.67-.43-.19-.18-.33-.41-.44-.67-.11-.26-.16-.55-.16-.87 0-.31.05-.6.16-.86.1-.26.25-.49.44-.67.19-.19.41-.33.66-.44.25-.1.53-.16.83-.16s.56.05.8.14c.24.1.45.23.61.42.17.18.3.4.39.66.08.25.13.54.13.86zm-.82-.32c-.01-.16-.03-.31-.08-.45s-.12-.26-.21-.36a.99.99 0 0 0-.35-.24c-.14-.06-.3-.09-.49-.09a1.28 1.28 0 0 0-.87.33 1.216 1.216 0 0 0-.39.81h2.39zM139.33 504.65a1.86 1.86 0 0 1 .57-1.36c.18-.17.38-.31.62-.41.24-.1.49-.15.75-.15.27 0 .52.05.75.15.23.1.44.24.62.41.18.17.31.38.42.61.1.24.15.49.15.75 0 .27-.05.51-.15.75a1.958 1.958 0 0 1-1.79 1.17 1.97 1.97 0 0 1-1.37-.56c-.17-.17-.31-.38-.42-.61-.1-.23-.15-.48-.15-.75zm.3 0c0 .22.04.43.13.63s.2.37.35.52c.15.15.32.27.52.35s.41.13.64.13c.23 0 .44-.04.64-.13.2-.08.37-.2.52-.35.15-.15.26-.32.35-.52s.13-.41.13-.63c0-.23-.04-.44-.13-.64s-.2-.37-.35-.52a1.7 1.7 0 0 0-.52-.35 1.7 1.7 0 0 0-.64-.13c-.23 0-.44.04-.64.13s-.37.2-.52.35c-.15.15-.26.32-.35.52s-.13.41-.13.64zm2.1 1.06l-.47-.84h-.31v.84h-.52v-2.17h.93c.1 0 .2.01.3.03.1.02.18.06.26.11s.14.12.19.21.07.2.07.33c0 .15-.04.27-.12.37-.08.1-.19.17-.31.21l.58.92h-.6zm-.38-1.21c.08 0 .15-.03.22-.08.06-.05.1-.12.1-.2a.22.22 0 0 0-.11-.2.414.414 0 0 0-.2-.06h-.4v.53h.39zM18.6 516.8c0 .31-.06.6-.17.86-.11.26-.26.49-.46.67s-.43.34-.69.44-.55.16-.86.16-.59-.05-.86-.16c-.27-.1-.5-.25-.69-.44s-.34-.41-.45-.67c-.11-.26-.17-.55-.17-.86 0-.31.06-.6.17-.85.11-.26.26-.48.45-.67.19-.19.42-.33.69-.44.27-.1.55-.16.86-.16s.59.05.86.16a2.04 2.04 0 0 1 1.15 1.11c.12.26.17.54.17.85zm-.83.01c0-.19-.03-.38-.09-.55s-.15-.33-.26-.46c-.11-.13-.25-.24-.42-.32s-.36-.12-.57-.12c-.22 0-.41.04-.58.12s-.31.18-.42.32c-.11.13-.2.29-.26.46s-.09.36-.09.55c0 .19.03.38.09.55s.15.33.26.47c.11.13.25.24.42.32s.36.12.58.12a1.261 1.261 0 0 0 .99-.44c.11-.14.2-.29.26-.47s.09-.36.09-.55zM20.43 514.8c.01.1.02.22.03.34.01.13.01.23.01.32h.03c.05-.11.12-.21.21-.3s.19-.17.3-.25c.11-.07.24-.13.37-.17.14-.04.28-.06.42-.06.26 0 .48.04.67.13.19.09.34.21.47.35.12.15.22.32.28.52.06.2.09.41.09.64v2.5h-.8v-2.23c0-.16-.01-.32-.04-.47-.03-.15-.07-.28-.14-.39s-.16-.2-.28-.27c-.12-.07-.27-.1-.46-.1-.32 0-.58.12-.78.36-.2.24-.3.56-.3.96v2.14h-.8v-3.16c0-.11 0-.25-.01-.42-.01-.17-.01-.32-.03-.45h.76zM27.6 515.41c.1-.2.26-.37.49-.51s.49-.21.78-.21c.26 0 .48.04.67.13.19.09.34.21.47.35.12.15.22.32.28.52.06.2.09.41.09.64v2.5h-.8v-2.23c0-.16-.01-.32-.04-.47s-.07-.28-.14-.39-.16-.2-.28-.27a.882.882 0 0 0-.45-.1c-.32 0-.58.12-.78.36s-.31.56-.31.97v2.14h-.8v-6.42h.8v3h.02zM32.66 513.35c0 .15-.05.27-.16.37-.1.1-.23.14-.37.14a.514.514 0 0 1-.37-.88c.1-.1.22-.15.37-.15s.27.05.37.15c.11.1.16.22.16.37zm-.13 5.47h-.8v-4.02h.8v4.02zM36.1 515.82c-.09-.15-.22-.27-.38-.36-.16-.09-.35-.14-.55-.14-.09 0-.18.01-.27.03-.09.02-.17.05-.24.09-.07.04-.13.1-.17.16-.04.07-.06.15-.06.24 0 .17.08.3.23.38s.38.16.69.22c.19.05.37.1.53.16.16.06.31.14.43.23s.22.21.28.34c.07.13.1.28.1.46 0 .24-.05.44-.14.6-.09.16-.21.3-.36.4s-.32.18-.51.22c-.19.05-.39.07-.59.07-.31 0-.6-.06-.9-.18-.29-.12-.53-.3-.73-.54l.57-.48c.11.16.26.29.45.4.19.11.4.16.62.16.1 0 .2-.01.29-.03s.18-.05.25-.1c.08-.04.14-.1.18-.18.05-.07.07-.17.07-.28 0-.19-.09-.33-.27-.42-.18-.09-.44-.18-.79-.25-.14-.03-.27-.08-.41-.12-.14-.05-.26-.11-.38-.2s-.21-.19-.28-.32a.989.989 0 0 1-.11-.47c0-.21.04-.4.13-.56s.2-.28.34-.38c.14-.1.3-.17.48-.22s.37-.07.56-.07c.29 0 .57.06.84.17.27.11.48.28.62.49l-.52.48zM42.32 516.22c0-.3-.09-.52-.27-.67s-.42-.22-.72-.22c-.23 0-.44.04-.64.13s-.37.2-.5.34l-.42-.51c.2-.19.44-.33.73-.44.29-.11.59-.16.92-.16.29 0 .54.04.75.12.21.08.39.19.52.33s.24.31.31.5.1.4.1.62v1.76c0 .14 0 .28.01.43.01.15.02.27.05.37h-.72c-.05-.19-.07-.38-.07-.58h-.03c-.15.21-.33.38-.56.5-.22.12-.49.18-.79.18-.16 0-.32-.02-.5-.06a1.33 1.33 0 0 1-.47-.21c-.14-.1-.26-.22-.35-.38a1.17 1.17 0 0 1-.14-.59c0-.31.08-.55.25-.73.16-.18.38-.31.65-.41.27-.09.57-.15.9-.18s.67-.04 1.01-.04v-.1zm-.2.69c-.2 0-.4.01-.62.03-.21.02-.4.05-.58.1-.17.05-.32.13-.43.23-.11.1-.17.24-.17.41 0 .12.02.22.07.3.05.08.11.14.19.2.08.05.17.09.26.11.1.02.2.03.3.03.37 0 .66-.11.86-.33.2-.22.3-.5.3-.84v-.21h-.18zM45.2 518.19v.64h-.77v-6.42h.8v3h.03c.14-.2.32-.37.57-.5s.53-.21.86-.21c.3 0 .57.05.82.16s.46.26.64.45.31.42.41.67.14.53.14.83c0 .29-.05.57-.14.83-.1.26-.23.49-.41.68-.18.19-.39.34-.64.46-.25.11-.53.17-.84.17-.29 0-.56-.06-.82-.19-.26-.13-.47-.31-.63-.56h-.02zm2.68-1.38c0-.19-.03-.37-.08-.54s-.14-.33-.25-.47c-.11-.13-.25-.24-.42-.32s-.36-.12-.58-.12a1.31 1.31 0 0 0-.99.44c-.12.14-.21.29-.28.47-.07.17-.1.36-.1.55 0 .19.03.38.1.55.06.17.16.33.28.46.12.13.26.24.43.32.17.08.35.12.56.12.22 0 .41-.04.58-.12.17-.08.31-.19.42-.33.11-.14.2-.29.25-.47s.08-.36.08-.54zM53.02 518.19c-.15.24-.36.43-.62.56-.26.13-.54.19-.83.19-.31 0-.59-.06-.84-.17-.25-.11-.46-.26-.64-.46-.18-.19-.31-.42-.41-.68-.1-.26-.14-.54-.14-.83 0-.29.05-.57.14-.83s.23-.48.41-.67c.18-.19.39-.34.64-.45s.52-.16.82-.16c.33 0 .61.07.86.21s.44.31.58.5h.02v-3h.8v6.42h-.77v-.64h-.02zm-2.65-1.38c0 .19.03.37.08.54s.14.33.25.47.25.24.42.33c.16.08.36.12.58.12a1.31 1.31 0 0 0 .99-.44c.12-.13.21-.29.28-.46.07-.17.1-.36.1-.55 0-.19-.03-.38-.1-.55a1.382 1.382 0 0 0-.71-.79c-.17-.08-.35-.12-.56-.12-.22 0-.41.04-.58.12-.16.08-.3.19-.42.32-.11.14-.2.29-.25.47s-.08.35-.08.54zM59.28 516.8c0 .31-.06.6-.17.86-.11.26-.26.49-.46.67s-.43.34-.69.44-.55.16-.86.16-.59-.05-.86-.16c-.27-.1-.5-.25-.69-.44s-.34-.41-.45-.67c-.11-.26-.17-.55-.17-.86 0-.31.06-.6.17-.85.11-.26.26-.48.45-.67.19-.19.42-.33.69-.44.27-.1.55-.16.86-.16s.59.05.86.16a2.04 2.04 0 0 1 1.15 1.11c.11.26.17.54.17.85zm-.84.01c0-.19-.03-.38-.09-.55s-.15-.33-.26-.46c-.11-.13-.25-.24-.42-.32s-.36-.12-.57-.12c-.22 0-.41.04-.58.12s-.31.18-.42.32c-.11.13-.2.29-.26.46s-.09.36-.09.55c0 .19.03.38.09.55s.15.33.26.47c.11.13.25.24.42.32s.36.12.58.12a1.261 1.261 0 0 0 .99-.44c.11-.14.2-.29.26-.47s.09-.36.09-.55zM61.65 514.91c.22-.15.49-.22.79-.22.27 0 .52.06.73.19.22.12.39.33.51.62.14-.26.33-.46.57-.6.24-.14.51-.21.8-.21.26 0 .48.04.67.13.19.09.34.21.47.35.12.15.22.32.28.52.06.2.09.41.09.64v2.5h-.8v-2.23c0-.16-.01-.32-.04-.47s-.08-.28-.14-.39a.87.87 0 0 0-.27-.27.806.806 0 0 0-.43-.1c-.18 0-.34.04-.47.11-.13.08-.24.18-.32.3-.08.12-.14.26-.18.41-.04.15-.06.31-.06.47v2.17h-.8v-2.39c0-.16-.01-.3-.04-.43a.996.996 0 0 0-.14-.33c-.07-.09-.16-.17-.26-.22s-.24-.08-.4-.08c-.29 0-.54.12-.73.36s-.29.56-.29.96v2.14h-.8v-3.16c0-.11 0-.25-.01-.42-.01-.17-.01-.32-.03-.45h.76c.01.1.02.22.03.34.01.13.01.23.01.32h.03c.08-.22.24-.41.47-.56zM71.67 516.78v.14c0 .05 0 .09-.01.14h-3.2c.01.17.04.33.11.48.07.15.17.28.28.39.12.11.26.2.41.26.16.06.32.09.5.09.27 0 .51-.06.7-.18.2-.12.35-.26.47-.43l.56.45c-.22.29-.47.5-.76.63s-.62.2-.97.2c-.31 0-.59-.05-.85-.15-.26-.1-.48-.25-.67-.43-.19-.18-.33-.41-.44-.67-.11-.26-.16-.55-.16-.87 0-.31.05-.6.16-.86.1-.26.25-.49.44-.67.19-.19.41-.33.66-.44a2.276 2.276 0 0 1 1.62-.02c.24.1.44.23.61.42.17.18.3.4.39.66.1.25.15.54.15.86zm-.82-.32c-.01-.16-.03-.31-.08-.45s-.12-.26-.21-.36-.21-.18-.35-.24c-.14-.06-.3-.09-.49-.09a1.28 1.28 0 0 0-.87.33 1.216 1.216 0 0 0-.39.81h2.39zM73.49 514.8c.01.1.02.22.03.34.01.13.01.23.01.32h.03c.05-.11.12-.21.21-.3s.19-.17.3-.25c.11-.07.24-.13.37-.17.14-.04.28-.06.42-.06.26 0 .48.04.67.13.19.09.34.21.47.35.12.15.22.32.28.52.06.2.09.41.09.64v2.5h-.8v-2.23c0-.16-.01-.32-.04-.47-.03-.15-.07-.28-.14-.39s-.16-.2-.28-.27c-.12-.07-.27-.1-.46-.1-.32 0-.58.12-.78.36-.2.24-.3.56-.3.96v2.14h-.8v-3.16c0-.11 0-.25-.01-.42-.01-.17-.01-.32-.03-.45h.76zM78.7 518.31c0 .15-.05.28-.16.39s-.24.17-.41.17c-.16 0-.29-.05-.4-.17s-.17-.24-.17-.39c0-.15.05-.28.16-.39.11-.11.24-.17.41-.17s.3.05.41.16.16.25.16.4zM82.67 518.82h-.84v-6.01h1.93c.29 0 .56.03.82.09.26.06.49.15.68.28.2.13.35.3.46.51.11.21.17.47.17.78 0 .44-.14.8-.41 1.07-.27.27-.62.44-1.05.52l1.68 2.76H85.1l-1.53-2.67h-.9v2.67zm0-3.38h.97c.2 0 .38-.02.55-.05.17-.03.32-.09.45-.17s.23-.18.3-.3c.07-.12.11-.27.11-.45s-.04-.33-.11-.45a.806.806 0 0 0-.29-.29c-.12-.07-.26-.13-.43-.16s-.34-.05-.52-.05h-1.03v1.92zM90.66 516.78v.14c0 .05 0 .09-.01.14h-3.2c.01.17.04.33.12.48.07.15.17.28.28.39.12.11.26.2.41.26.16.06.32.09.5.09.27 0 .51-.06.7-.18.2-.12.35-.26.47-.43l.56.45c-.21.29-.47.5-.76.63s-.62.2-.97.2c-.31 0-.59-.05-.85-.15-.26-.1-.48-.25-.67-.43-.19-.18-.33-.41-.44-.67-.11-.26-.16-.55-.16-.87 0-.31.05-.6.16-.86.1-.26.25-.49.44-.67.19-.19.41-.33.66-.44a2.276 2.276 0 0 1 1.62-.02c.24.1.45.23.61.42.17.18.3.4.39.66.09.25.14.54.14.86zm-.82-.32c-.01-.16-.03-.31-.08-.45s-.12-.26-.21-.36-.21-.18-.35-.24c-.14-.06-.3-.09-.49-.09a1.28 1.28 0 0 0-.87.33 1.216 1.216 0 0 0-.39.81h2.39zM93.93 515.82c-.09-.15-.22-.27-.38-.36-.16-.09-.35-.14-.55-.14-.09 0-.18.01-.27.03-.09.02-.17.05-.24.09-.07.04-.13.1-.17.16-.04.07-.06.15-.06.24 0 .17.08.3.23.38.15.08.38.16.69.22.19.05.37.1.54.16.16.06.31.14.43.23s.22.21.28.34c.07.13.1.28.1.46 0 .24-.04.44-.14.6s-.21.3-.36.4c-.15.1-.32.18-.51.22-.19.05-.39.07-.59.07-.31 0-.6-.06-.9-.18-.29-.12-.53-.3-.73-.54l.57-.48c.11.16.26.29.45.4s.4.16.62.16c.1 0 .2-.01.29-.03.09-.02.18-.05.25-.1s.14-.1.18-.18c.04-.07.07-.17.07-.28 0-.19-.09-.33-.27-.42-.18-.09-.44-.18-.79-.25-.14-.03-.27-.08-.41-.12s-.26-.11-.38-.2-.21-.19-.28-.32a.989.989 0 0 1-.11-.47c0-.21.04-.4.13-.56s.2-.28.34-.38c.14-.1.3-.17.48-.22a2.211 2.211 0 0 1 1.4.1c.27.11.48.28.62.49l-.53.48zM98.37 518.82c-.01-.1-.02-.22-.03-.34s-.01-.23-.01-.32h-.02c-.1.21-.27.4-.51.55-.24.15-.51.22-.8.22-.26 0-.49-.04-.67-.13s-.35-.2-.47-.35c-.12-.15-.21-.32-.27-.52a2.2 2.2 0 0 1-.09-.64v-2.5h.8v2.22c0 .16.01.32.04.47.03.15.07.28.14.39.07.11.16.2.28.27.12.07.27.1.46.1.32 0 .58-.12.78-.36s.3-.56.3-.96v-2.14h.8v3.16c0 .11 0 .25.01.42s.01.32.03.45h-.77zM101.29 518.82h-.8v-6.42h.8v6.42zM104.65 515.45h-1.07v2.09c0 .24.05.42.14.52.09.1.23.16.43.16.07 0 .15-.01.24-.02s.16-.04.23-.07l.03.65c-.1.03-.2.06-.32.08s-.24.03-.36.03c-.38 0-.67-.11-.87-.31-.2-.21-.3-.52-.3-.94v-2.18h-.77v-.65h.77v-1.15h.79v1.15h1.07v.64zM107.64 515.82c-.09-.15-.22-.27-.38-.36-.16-.09-.35-.14-.55-.14-.09 0-.18.01-.27.03-.09.02-.17.05-.24.09-.07.04-.13.1-.17.16-.04.07-.06.15-.06.24 0 .17.08.3.23.38.15.08.38.16.69.22.19.05.37.1.54.16.16.06.31.14.43.23s.22.21.28.34c.07.13.1.28.1.46 0 .24-.04.44-.14.6s-.21.3-.36.4c-.15.1-.32.18-.51.22-.19.05-.39.07-.59.07-.31 0-.6-.06-.9-.18-.29-.12-.53-.3-.73-.54l.57-.48c.11.16.26.29.45.4s.4.16.62.16c.1 0 .2-.01.29-.03.09-.02.18-.05.25-.1s.14-.1.18-.18c.04-.07.07-.17.07-.28 0-.19-.09-.33-.27-.42-.18-.09-.44-.18-.79-.25-.14-.03-.27-.08-.41-.12s-.26-.11-.38-.2-.21-.19-.28-.32a.989.989 0 0 1-.11-.47c0-.21.04-.4.13-.56s.2-.28.34-.38c.14-.1.3-.17.48-.22a2.211 2.211 0 0 1 1.4.1c.27.11.48.28.62.49l-.53.48zM112.63 514.91c.22-.15.49-.22.79-.22.27 0 .52.06.73.19.22.12.39.33.51.62.14-.26.33-.46.57-.6.24-.14.51-.21.8-.21.26 0 .48.04.67.13s.34.21.47.35c.12.15.22.32.28.52.06.2.09.41.09.64v2.5h-.8v-2.23c0-.16-.01-.32-.04-.47-.03-.15-.08-.28-.14-.39a.87.87 0 0 0-.27-.27.806.806 0 0 0-.43-.1c-.18 0-.34.04-.47.11s-.24.18-.32.3c-.08.12-.14.26-.18.41-.04.15-.06.31-.06.47v2.17h-.8v-2.39c0-.16-.01-.3-.04-.43a.996.996 0 0 0-.14-.33c-.07-.09-.16-.17-.26-.22s-.24-.08-.4-.08c-.29 0-.54.12-.73.36s-.29.56-.29.96v2.14h-.8v-3.16c0-.11 0-.25-.01-.42 0-.17-.01-.32-.03-.45h.76c.01.1.02.22.03.34s.01.23.01.32h.03c.08-.22.25-.41.47-.56zM121.39 516.22c0-.3-.09-.52-.27-.67-.18-.14-.42-.22-.72-.22-.23 0-.44.04-.64.13s-.37.2-.5.34l-.42-.51c.2-.19.44-.33.73-.44.29-.11.59-.16.92-.16.29 0 .54.04.75.12.21.08.39.19.52.33s.24.31.31.5.1.4.1.62v1.76c0 .14 0 .28.01.43.01.15.02.27.05.37h-.72c-.05-.19-.07-.38-.07-.58h-.03c-.15.21-.33.38-.56.5-.22.12-.49.18-.79.18-.16 0-.32-.02-.5-.06a1.33 1.33 0 0 1-.47-.21c-.14-.1-.26-.22-.35-.38a1.17 1.17 0 0 1-.14-.59c0-.31.08-.55.25-.73.16-.18.38-.31.65-.41.27-.09.57-.15.9-.18s.67-.04 1.01-.04v-.1zm-.19.69c-.2 0-.4.01-.62.03-.21.02-.4.05-.58.1s-.32.13-.43.23c-.11.1-.17.24-.17.41 0 .12.02.22.07.3s.11.14.19.2.17.09.26.11c.1.02.2.03.3.03.37 0 .66-.11.86-.33.2-.22.3-.5.3-.84v-.21h-.18zM125.02 517.96h.02l1.11-3.16h.85l-1.95 4.97c-.07.17-.14.32-.22.45-.08.13-.17.25-.28.34-.11.09-.23.17-.38.22s-.32.08-.51.08c-.08 0-.17 0-.26-.01s-.18-.02-.27-.05l.08-.7c.14.04.27.07.4.07.21 0 .37-.06.47-.17s.2-.28.28-.5l.25-.67-1.72-4.02h.89l1.24 3.15zM131.78 518.82h-.87l-1.64-4.02h.88l1.18 3.17h.02l1.19-3.17h.85l-1.61 4.02zM136.67 516.22c0-.3-.09-.52-.27-.67-.18-.14-.42-.22-.72-.22-.23 0-.44.04-.64.13s-.37.2-.5.34l-.42-.51c.2-.19.44-.33.73-.44.29-.11.59-.16.92-.16.29 0 .54.04.75.12.21.08.39.19.52.33s.24.31.31.5.1.4.1.62v1.76c0 .14 0 .28.01.43.01.15.02.27.05.37h-.72c-.05-.19-.07-.38-.07-.58h-.03c-.15.21-.33.38-.56.5-.22.12-.49.18-.79.18-.16 0-.32-.02-.5-.06a1.33 1.33 0 0 1-.47-.21c-.14-.1-.26-.22-.35-.38a1.17 1.17 0 0 1-.14-.59c0-.31.08-.55.25-.73.16-.18.38-.31.65-.41.27-.09.57-.15.9-.18s.67-.04 1.01-.04v-.1zm-.19.69c-.2 0-.4.01-.62.03-.21.02-.4.05-.58.1s-.32.13-.43.23c-.11.1-.17.24-.17.41 0 .12.02.22.07.3s.11.14.19.2.17.09.26.11c.1.02.2.03.3.03.37 0 .66-.11.86-.33.2-.22.3-.5.3-.84v-.21h-.18zM138.76 515.25c0-.17-.01-.32-.03-.45h.76c.01.1.02.22.03.35s.01.24.01.33h.03c.11-.24.28-.43.5-.57.22-.14.46-.22.73-.22.12 0 .23.01.31.03l-.03.74c-.11-.03-.24-.04-.37-.04-.19 0-.36.04-.5.11s-.26.17-.35.28a1.444 1.444 0 0 0-.28.9v2.11h-.8v-3.16c0-.1 0-.24-.01-.41zM143.37 517.96h.02l1.11-3.16h.85l-1.95 4.97c-.07.17-.14.32-.22.45-.08.13-.17.25-.28.34-.11.09-.23.17-.38.22s-.32.08-.51.08c-.08 0-.17 0-.26-.01s-.18-.02-.27-.05l.08-.7c.14.04.27.07.4.07.21 0 .37-.06.47-.17s.2-.28.28-.5l.25-.67-1.72-4.02h.89l1.24 3.15zM146.8 518.31c0 .15-.05.28-.16.39s-.24.17-.41.17c-.16 0-.29-.05-.4-.17s-.17-.24-.17-.39c0-.15.05-.28.16-.39s.24-.17.41-.17.3.05.41.16.16.25.16.4z"/></svg>