<svg id="Layer_1" xmlns="http://www.w3.org/2000/svg" viewBox="0 0 160 600"><style>.st0{fill:#fff}</style><path class="st0" d="M62.79 49.08c-2.14 0-3.16-1.55-3.16-3.03 0-1.72 1.24-3.09 3.2-3.09.66 0 1.35.2 1.89.66l-.6.84c-.37-.29-.77-.4-1.25-.4-1.04 0-1.81.72-1.81 1.96 0 1.13.71 2.03 1.85 2.03.48 0 .9-.14 1.28-.47l.55.84c-.54.44-1.26.66-1.95.66M68.02 49.08c-1.79 0-3.1-1.34-3.1-3.09 0-1.8 1.44-3.03 3.1-3.03 1.66 0 3.11 1.22 3.11 3.02 0 1.75-1.31 3.1-3.11 3.1m1.67-3.1c0-1.08-.53-2.02-1.68-2.02-1.12 0-1.68.94-1.68 2 0 1.1.52 2.09 1.68 2.09s1.68-.97 1.68-2.09v.02zM74.75 49.08c-1.79 0-3.1-1.34-3.1-3.09 0-1.8 1.44-3.03 3.1-3.03 1.66 0 3.11 1.22 3.11 3.02 0 1.75-1.31 3.1-3.11 3.1m1.68-3.1c0-1.08-.53-2.02-1.68-2.02-1.12 0-1.68.94-1.68 2 0 1.1.52 2.09 1.68 2.09s1.68-.97 1.68-2.09v.02zM78.56 48.93v-8.59l1.34.74v7.85zM82.99 49.11c-1.51 0-2.23-.72-2.23-.72l.6-.78s.69.46 1.59.46c.43 0 .8-.3.8-.6s-.13-.55-.53-.76c-.4-.2-.84-.42-1.19-.59-.35-.17-1.12-.68-1.12-1.69 0-1.02 1.04-1.58 2.1-1.58 1.01 0 1.79.66 1.79.66l-.52.79s-.58-.41-1.22-.41-.77.41-.77.58c0 .17.06.43.47.65.41.22.83.44 1.44.78.6.34.94.91.94 1.56-.01.64-.64 1.65-2.15 1.65M88.75 49.08c-2.14 0-3.16-1.55-3.16-3.03 0-1.72 1.24-3.09 3.2-3.09.66 0 1.35.2 1.89.66l-.6.84c-.37-.29-.77-.4-1.26-.4-1.04 0-1.81.72-1.81 1.96 0 1.13.71 2.03 1.85 2.03.48 0 .9-.14 1.28-.47l.55.84c-.53.44-1.26.66-1.94.66M95.35 48.25s-.68.83-1.95.83c-1.51 0-2.24-1.09-2.24-2.2v-3.8h1.34v3.74c0 .65.51 1.19 1.29 1.19.69 0 1.36-.82 1.36-.82v-4.11h1.34v5.84l-1.14-.67zM97.67 48.93v-8.59l1.34.74v7.85zM103.44 49.08c-1.18 0-1.86-.66-1.86-.66v2.91h-1.35v-8.37l1.35.71s.72-.73 1.93-.73c1.27 0 2.85.97 2.85 3.14s-1.56 3-2.92 3m-.08-5.11c-1.15 0-1.81 1.07-1.81 1.07v2.21s.76.85 1.86.85c1.28 0 1.56-1.52 1.56-2.05-.01-.54-.13-2.08-1.61-2.08M109.88 49.09h-.85c-1.06 0-1.42-1.02-1.42-1.69v-3.44h-1.06v-.88h1.06V40.5h1.33v2.58h1.36v.88h-1.35v3.12c0 .35-.06.9.53.9h.97l-.57 1.11zM112.03 42.07c-.48 0-.88-.4-.88-.88s.4-.88.88-.88.88.4.88.88c0 .49-.4.88-.88.88m-.66 1.01h1.32v5.85h-1.32v-5.85zM117.99 48.93v-3.74c0-.65-.51-1.19-1.29-1.19-.69 0-1.46.82-1.46.82v4.11h-1.34v-5.84l1.13.67s.77-.83 2.05-.83c1.51 0 2.24 1.09 2.24 2.19v3.8h-1.33zM123.42 51.66c-.21 0-1.78-.02-1.78-.02l.02-1.07h1.32c1.28 0 2-.68 2-1.62v-.53s-.7.66-1.88.66c-1.36 0-2.92-.83-2.92-3s1.58-3.14 2.85-3.14c1.21 0 1.93.73 1.93.73l1.35-.67v5.82c.01 1.56-1.04 2.84-2.89 2.84m1.58-6.63s-.66-1.07-1.81-1.07c-1.48 0-1.6 1.55-1.6 2.07 0 .53.28 2.05 1.56 2.05 1.1 0 1.86-.85 1.86-.85v-2.2zM46.07 46.27l-2.46 2.45 3.01 1.13 3.61-3.58zM50.58 41.29l-2.45-2.44-1.15 2.99 3.6 3.58zM55.04 42.19l3.29.86-2.74 2.72h-4.15zM54.82 50.34l-.94 3.2-5.13-5.1 2.08-2.06zM128.32 43.48c0 .35-.28.62-.64.62s-.64-.28-.64-.62c0-.35.28-.62.64-.62s.64.27.64.62zm-1.12 0c0 .27.21.49.49.49.27 0 .47-.22.47-.49s-.2-.5-.48-.5c-.27 0-.48.22-.48.5zm.38.32h-.14v-.62c.06-.01.14-.02.24-.02.12 0 .17.02.21.05.04.03.06.07.06.13 0 .08-.06.12-.13.15v.01c.06.02.09.07.11.15.02.09.03.13.05.15h-.15c-.02-.02-.03-.08-.05-.15-.01-.06-.05-.09-.13-.09h-.07v.24zm.01-.35h.07c.08 0 .14-.03.14-.09s-.04-.09-.13-.09c-.04 0-.06 0-.08.01v.17z"/><g><path class="st0" d="M47.64 53.37v-3.82l.76-.76 2.18 2.17v.73zM47.29 42.85h-3.18l1.02 2.92h5.1zM58 49.19h-3.63l-2.93-2.92h5.09zM51.08 40.35l2.94-1.73v3.88l-2.94 2.92zM56.25 50.55c0 .24-.19.43-.44.43a.43.43 0 0 1-.44-.43c0-.24.2-.43.45-.43.23 0 .43.19.43.43zm-.77 0c0 .19.14.34.34.34.19 0 .33-.15.33-.34 0-.19-.14-.34-.33-.34-.2 0-.34.15-.34.34zm.26.22h-.1v-.43c.04-.01.09-.01.16-.01.08 0 .12.01.15.03.03.02.04.05.04.09 0 .05-.04.09-.09.1v.01c.04.01.06.05.08.1.01.07.02.09.03.1h-.1a.405.405 0 0 1-.03-.1c-.01-.04-.03-.07-.09-.07h-.05v.18zm0-.24h.05c.06 0 .1-.02.1-.06 0-.04-.03-.07-.09-.07-.03 0-.04 0-.06.01v.12z"/></g><g><path class="st0" d="M32.19 43.25h.53v2.92h.02c.09-.13.19-.24.3-.33a1.87 1.87 0 0 1 1.16-.39c.29 0 .56.05.81.15.24.1.45.24.63.41.18.18.31.38.41.62.1.24.15.5.15.78s-.05.54-.15.78c-.1.24-.24.45-.41.62-.18.18-.39.31-.63.41-.24.1-.51.15-.81.15a1.87 1.87 0 0 1-1.16-.39c-.12-.09-.22-.2-.3-.33h-.02v.62h-.53v-6.02zm3.43 4.17c0-.21-.03-.4-.1-.58a1.33 1.33 0 0 0-.29-.47 1.382 1.382 0 0 0-1.04-.44c-.22 0-.42.04-.6.12a1.4 1.4 0 0 0-.47.32c-.13.13-.24.29-.31.47s-.11.38-.11.58c0 .21.04.4.11.58s.18.34.31.47c.13.13.29.24.47.32.18.08.38.12.6.12a1.382 1.382 0 0 0 1.04-.44 1.49 1.49 0 0 0 .39-1.05zM38.5 48.64l1.15-3.09h.64l-1.88 4.71c-.11.29-.26.52-.43.69-.17.17-.42.26-.75.26-.08 0-.16 0-.24-.01-.08-.01-.16-.02-.24-.05l.06-.51c.11.06.25.09.4.09.19 0 .33-.06.44-.18.11-.12.2-.28.28-.5l.27-.72-1.54-3.79h.67l1.17 3.1z"/></g><g><path class="st0" d="M42.65 31.64c-1.15 1-2.58 1.5-4.28 1.5-2.22 0-3.96-.72-5.24-2.16-1.15-1.29-1.73-2.86-1.73-4.69 0-1.96.65-3.6 1.94-4.93 1.29-1.33 3.01-2 5.13-2 1.63 0 3.01.5 4.15 1.49l-1.33 1.86c-.76-.58-1.68-.86-2.77-.86-1.17 0-2.12.4-2.86 1.18-.74.79-1.1 1.86-1.1 3.2 0 1.31.37 2.4 1.1 3.26.74.86 1.72 1.29 2.94 1.29 1.06 0 2.01-.34 2.85-1.03l1.2 1.89zM56.49 26.16c0 2-.65 3.66-1.96 4.99-1.3 1.33-2.94 1.99-4.91 1.99-1.97 0-3.6-.66-4.89-1.99-1.3-1.33-1.94-2.99-1.94-4.99 0-1.96.68-3.59 2.05-4.91 1.31-1.26 2.91-1.89 4.79-1.89s3.49.63 4.82 1.89c1.35 1.32 2.04 2.95 2.04 4.91zm-3.17 0c0-1.27-.3-2.32-.91-3.15-.67-.9-1.61-1.35-2.79-1.35s-2.11.45-2.77 1.35c-.6.83-.9 1.88-.9 3.15 0 1.35.29 2.44.88 3.28.66.93 1.59 1.4 2.79 1.4 1.21 0 2.15-.47 2.82-1.4.59-.84.88-1.93.88-3.28zM71.2 26.16c0 2-.65 3.66-1.96 4.99-1.3 1.33-2.94 1.99-4.91 1.99-1.97 0-3.6-.66-4.89-1.99-1.3-1.33-1.94-2.99-1.94-4.99 0-1.96.68-3.59 2.05-4.91 1.31-1.26 2.91-1.89 4.79-1.89s3.49.63 4.81 1.89c1.36 1.32 2.05 2.95 2.05 4.91zm-3.17 0c0-1.27-.3-2.32-.9-3.15-.67-.9-1.61-1.35-2.79-1.35-1.19 0-2.11.45-2.77 1.35-.6.83-.9 1.88-.9 3.15 0 1.35.29 2.44.88 3.28.66.93 1.59 1.4 2.79 1.4 1.21 0 2.15-.47 2.82-1.4.58-.84.87-1.93.87-3.28zM75.72 32.85h-2.95V13.51l2.95 1.65v17.69zM98.28 26.16c0 2-.65 3.66-1.96 4.99-1.3 1.33-2.94 1.99-4.91 1.99-1.97 0-3.6-.66-4.89-1.99-1.3-1.33-1.94-2.99-1.94-4.99 0-1.96.68-3.59 2.05-4.91 1.31-1.26 2.91-1.89 4.79-1.89s3.49.63 4.81 1.89c1.37 1.32 2.05 2.95 2.05 4.91zm-3.17 0c0-1.27-.3-2.32-.9-3.15-.67-.9-1.61-1.35-2.79-1.35-1.19 0-2.11.45-2.77 1.35-.6.83-.9 1.88-.9 3.15 0 1.35.29 2.44.88 3.28.66.93 1.59 1.4 2.79 1.4 1.21 0 2.15-.47 2.82-1.4.58-.84.87-1.93.87-3.28zM111.71 32.85h-2.95v-8.4c0-.75-.26-1.39-.78-1.9s-1.21-.77-2.06-.77c-.94 0-2.01.61-3.22 1.83v9.24h-2.95V19.69l2.5 1.51c1.28-1.24 2.78-1.86 4.52-1.86 1.56 0 2.8.51 3.72 1.54.82.92 1.22 2.05 1.22 3.4v8.57zM126.13 26.88h-9.44c.35 2.68 1.61 4.02 3.78 4.02 1.33 0 2.42-.38 3.27-1.13l1.17 1.92c-1.13 1.04-2.64 1.57-4.52 1.57-2.61 0-4.51-.98-5.72-2.94-.74-1.21-1.12-2.45-1.12-3.73 0-1.57.3-2.93.9-4.08 1.08-2.11 3.01-3.16 5.77-3.16 2.73 0 4.53 1.25 5.4 3.75.38 1.06.54 2.32.51 3.78zm-2.98-1.95c-.11-2.32-1.1-3.48-2.98-3.48-2.08 0-3.22 1.16-3.43 3.48h6.41zM82.1 30.69c-.57 0-.92-.24-1.06-.73-.07-.2-.11-.63-.11-1.3v-5.48h2.05v-1.97h-2.05v-3.14l-2.95-1.65v12.97c0 .94.23 1.76.69 2.46.57.9 1.38 1.35 2.45 1.35h1.86l1.25-2.51H82.1z"/><g><path class="st0" d="M129.52 20.75c0 .78-.63 1.4-1.43 1.4-.8 0-1.44-.62-1.44-1.4 0-.78.64-1.39 1.45-1.39.79 0 1.42.61 1.42 1.39zm-2.51 0c0 .62.47 1.11 1.09 1.11.6.01 1.06-.49 1.06-1.1 0-.62-.46-1.12-1.08-1.12-.61 0-1.07.5-1.07 1.11zm.86.72h-.32v-1.39c.13-.02.31-.04.54-.04.26 0 .38.04.48.11.09.06.14.16.14.3 0 .17-.13.28-.29.33v.02c.14.04.2.15.25.34.04.21.08.29.1.34h-.34c-.04-.05-.07-.17-.11-.34-.03-.14-.11-.21-.29-.21h-.15v.54zm0-.78h.15c.18 0 .32-.06.32-.2 0-.13-.09-.21-.3-.21-.09 0-.14.01-.18.02v.39z"/></g></g></svg>