<svg id="Layer_1" xmlns="http://www.w3.org/2000/svg" viewBox="0 0 970 250"><style>.st0{fill:#eaf5fb}</style><path class="st0" d="M33.25 117.64v-6.29h3.01v5.72c0 2.96.83 4.16 2.91 4.16 2.13 0 2.96-1.19 2.96-4.16v-5.4c0-2.44-.68-3.64-2.44-4.78l-2.75-1.77c-2.65-1.71-3.69-3.69-3.69-7.17v-4.62c0-3.95 2.13-6.18 5.82-6.18s5.82 2.23 5.82 6.18v4.62h-3.01v-4.1c0-2.81-.78-3.9-2.75-3.9s-2.75 1.09-2.75 3.9v3.9c0 2.44.68 3.64 2.44 4.78l2.75 1.77c2.65 1.71 3.69 3.69 3.69 7.17v6.18c0 4.1-2.23 6.39-6.03 6.39s-5.98-2.29-5.98-6.4zM54.13 90.37h-4.36v-2.7h11.85v2.7h-4.36v33.15h-3.12V90.37zM66.96 87.66h5.77c4.16 0 6.13 2.13 6.13 6.49v4.57c0 2.91-.94 4.68-2.81 5.51v.1c1.87.83 2.81 2.6 2.81 5.56v13.61h-3.12v-13.4c0-3.33-.94-4.31-3.9-4.31h-1.77v17.72h-3.12V87.66zm5.41 15.43c2.6 0 3.38-.99 3.38-4.31v-4.1c0-3.33-.78-4.31-3.38-4.31h-2.29v12.73h2.29zM85.2 87.66h10.29v2.7h-7.17v12.52h6.23v2.7h-6.23v15.22h7.17v2.7H85.2V87.66zM101.04 87.66h4.05l5.66 26.24h.1V87.66h2.81v35.85h-3.38l-6.34-29.56h-.1v29.56h-2.81V87.66zM120.06 118.42V93.59c0-4.1 2.23-6.44 5.98-6.44 3.79 0 5.92 2.34 5.92 6.44v3.95H129v-3.38c0-3.01-.83-4.21-2.91-4.21-2.13 0-2.91 1.19-2.91 4.21v23.9c0 2.13.78 3.17 2.49 3.17 2.13 0 3.33-1.61 3.33-4.52v-10.29h-2.91v-2.7h6.03v19.8h-2.65v-2.55h-.16c-.83 1.97-2.34 3.07-4.47 3.07-3.02-.01-4.78-2.14-4.78-5.62zM141.36 90.37H137v-2.7h11.85v2.7h-4.36v33.15h-3.12V90.37zM154.19 87.66h3.12v15.22h5.87V87.66h3.12v35.85h-3.12v-17.92h-5.87v17.92h-3.12V87.66zM172.89 87.66h10.29v2.7h-7.17v12.52h6.23v2.7h-6.23v15.22h7.17v2.7h-10.29V87.66zM188.73 87.66h4.05l5.66 26.24h.1V87.66h2.81v35.85h-3.38l-6.34-29.56h-.1v29.56h-2.81V87.66zM209.15 123.51h-1.25v-4.26h3.53v3.74l-2.29 5.77h-1.82l1.83-5.25zM230.24 90.37h-4.36v-2.7h11.85v2.7h-4.36v33.15h-3.12V90.37zM242.45 117.54v-23.9c0-4.16 2.23-6.49 6.03-6.49s6.03 2.34 6.03 6.49v23.9c0 4.16-2.23 6.49-6.03 6.49s-6.03-2.33-6.03-6.49zm8.94-.52V94.16c0-3.01-.83-4.21-2.91-4.21-2.13 0-2.91 1.19-2.91 4.21v22.86c0 3.01.78 4.21 2.91 4.21 2.07 0 2.91-1.2 2.91-4.21zM260.89 87.66h4.05l5.66 26.24h.1V87.66h2.81v35.85h-3.38l-6.34-29.56h-.1v29.56h-2.81V87.66zM280.11 87.66h10.29v2.7h-7.17v12.52h6.23v2.7h-6.23v15.22h7.17v2.7h-10.29V87.66zM297.67 123.51h-1.25v-4.26h3.53v3.74l-2.29 5.77h-1.82l1.83-5.25zM39.22 138.32h4.1l4.52 35.85h-3.17l-1.04-8.88h-4.88l-1.04 8.88H34.7l4.52-35.85zm4.11 24.26l-2.08-19.33h-.1l-2.08 19.33h4.26zM53.25 138.32h4.05l5.66 26.24h.1v-26.24h2.81v35.85H62.5l-6.34-29.56h-.1v29.56h-2.81v-35.85zM72.47 138.32h5.92c4.16 0 6.13 2.13 6.13 6.49v22.86c0 4.36-1.97 6.49-6.13 6.49h-5.92v-35.84zm5.56 33.14c2.6 0 3.38-.99 3.38-4.31v-21.82c0-3.33-.78-4.31-3.38-4.31h-2.44v30.45h2.44zM99.95 138.32h10.29v2.7h-7.17v13.04h6.23v2.7h-6.23v17.41h-3.12v-35.85zM115.59 138.32h3.12v35.85h-3.12v-35.85zM125.3 138.32h5.77c4.16 0 6.13 2.13 6.13 6.49v4.57c0 2.91-.94 4.68-2.81 5.51v.1c1.87.83 2.81 2.6 2.81 5.56v13.61h-3.12v-13.4c0-3.33-.94-4.31-3.9-4.31h-1.77v17.72h-3.12v-35.85zm5.41 15.43c2.6 0 3.38-.99 3.38-4.31v-4.1c0-3.33-.78-4.31-3.38-4.31h-2.29v12.73h2.29zM143.54 138.32h4.94l4 26.45h.1l4-26.45h5.14v35.85h-3.12v-32.06h-.1l-4.83 32.06h-2.44l-4.83-32.06h-.1v32.06h-2.75v-35.85zM177.41 138.32h4.94l4 26.45h.1l4-26.45h5.14v35.85h-3.12v-32.06h-.1l-4.83 32.06h-2.44l-4.83-32.06h-.1v32.06h-2.75v-35.85zM202.08 168.4v-30.08h3.12v29.51c0 2.91.73 4.05 2.81 4.05s2.81-1.14 2.81-4.05v-29.51h3.01v30.08c0 4-2.18 6.29-5.87 6.29s-5.88-2.29-5.88-6.29zM219.75 168.29V162h3.01v5.72c0 2.96.83 4.16 2.91 4.16 2.13 0 2.96-1.2 2.96-4.16v-5.4c0-2.44-.68-3.64-2.44-4.78l-2.75-1.77c-2.65-1.71-3.69-3.69-3.69-7.17v-4.62c0-3.95 2.13-6.18 5.82-6.18s5.82 2.23 5.82 6.18v4.62h-3.01v-4.1c0-2.81-.78-3.9-2.75-3.9s-2.75 1.09-2.75 3.9v3.9c0 2.44.68 3.64 2.44 4.78l2.75 1.77c2.65 1.71 3.69 3.69 3.69 7.17v6.18c0 4.1-2.23 6.39-6.03 6.39s-5.98-2.29-5.98-6.4zM237.46 168.5v-24.52c0-3.95 2.08-6.18 5.82-6.18 3.79 0 5.87 2.23 5.87 6.18v5.87h-2.96v-5.35c0-2.81-.83-3.9-2.81-3.9-2.03 0-2.81 1.09-2.81 3.9v23.48c0 2.81.78 3.9 2.81 3.9 1.97 0 2.81-1.09 2.81-3.9v-7.22h2.96v7.74c0 3.95-2.08 6.18-5.87 6.18-3.74.01-5.82-2.23-5.82-6.18zM255.18 138.32h3.12v33.15h6.65v2.7h-9.77v-35.85zM270.29 138.32h10.29v2.7h-7.17v12.52h6.23v2.7h-6.23v15.22h7.17v2.7h-10.29v-35.84zM285.67 168.29V162h3.01v5.72c0 2.96.83 4.16 2.91 4.16 2.13 0 2.96-1.2 2.96-4.16v-5.4c0-2.44-.68-3.64-2.44-4.78l-2.75-1.77c-2.65-1.71-3.69-3.69-3.69-7.17v-4.62c0-3.95 2.13-6.18 5.82-6.18s5.82 2.23 5.82 6.18v4.62h-3.01v-4.1c0-2.81-.78-3.9-2.75-3.9s-2.75 1.09-2.75 3.9v3.9c0 2.44.68 3.64 2.44 4.78l2.75 1.77c2.65 1.71 3.69 3.69 3.69 7.17v6.18c0 4.1-2.23 6.39-6.03 6.39s-5.98-2.29-5.98-6.4zM303.59 169.91h3.48v4.26h-3.48v-4.26z"/></svg>