<svg id="Layer_1" xmlns="http://www.w3.org/2000/svg" viewBox="0 0 970 250"><style>.st0{fill:#00a9e0}.st1{fill:#fff}</style><path class="st0" d="M33.54 200.8h157.35v35.47H33.54z"/><path class="st1" d="M50.14 225.08v-11.99h2.91v9.47h4.64v2.52h-7.55zM60.58 225.08v-11.99h8.06v2.46h-5.27v2.25h4.98v2.32h-4.98v2.49h5.57v2.47h-8.36zM80.52 225.08l-.93-2.35h-4.64l-.88 2.35h-3.15l5.03-11.99h2.81l4.98 11.99h-3.22zm-3.22-8.79l-1.52 4.12h3.01l-1.49-4.12zM92.69 225.08l-2.59-4.76h-.98v4.76h-2.85v-11.99h4.57c2.3 0 4.59.88 4.59 3.62 0 1.61-.95 2.76-2.49 3.24l3.13 5.13h-3.38zm-2.05-9.65H89.1v2.79h1.37c.93 0 2.1-.24 2.1-1.46 0-1.11-1.07-1.33-1.93-1.33zM106.65 225.08l-4.83-7.84h-.05l.07 7.84h-2.81v-11.99h3.3l4.81 7.82h.05l-.07-7.82h2.81v11.99h-3.28zM130.57 225.08l.07-8.49h-.05l-3.12 8.49h-2.03l-3.03-8.49h-.05l.07 8.49h-2.73v-11.99h4.12l2.73 7.69h.07l2.61-7.69h4.18v11.99h-2.84zM143.37 225.4c-3.74 0-6.52-2.58-6.52-6.37 0-3.84 2.78-6.27 6.52-6.27 3.76 0 6.54 2.42 6.54 6.27 0 3.8-2.78 6.37-6.54 6.37zm0-10.02c-2.03 0-3.42 1.56-3.42 3.66 0 2.17 1.41 3.73 3.42 3.73s3.44-1.56 3.44-3.73c0-2.11-1.41-3.66-3.44-3.66zM159.77 225.08l-2.59-4.76h-.98v4.76h-2.85v-11.99h4.57c2.3 0 4.59.88 4.59 3.62 0 1.61-.95 2.76-2.49 3.24l3.13 5.13h-3.38zm-2.05-9.65h-1.54v2.79h1.37c.93 0 2.1-.24 2.1-1.46 0-1.11-1.06-1.33-1.93-1.33zM166.11 225.08v-11.99h8.06v2.46h-5.27v2.25h4.98v2.32h-4.98v2.49h5.57v2.47h-8.36z"/></svg>