<svg id="Layer_1" xmlns="http://www.w3.org/2000/svg" viewBox="0 0 970 250"><style>.st0{fill:#eaf5fb}.st1{fill:#002554}</style><path class="st0" d="M36.34 168.15h106.48v26.74H36.34z"/><path class="st1" d="M45.92 186.98v-9.02h2.19v7.12h3.49v1.9h-5.68zM53.13 186.98v-9.02h6.06v1.85h-3.96v1.69h3.75v1.75h-3.75v1.87h4.19v1.86h-6.29zM67.48 186.98l-.7-1.77h-3.49l-.66 1.77h-2.37l3.78-9.02h2.11l3.75 9.02h-2.42zm-2.42-6.61l-1.15 3.1h2.27l-1.12-3.1zM75.99 186.98l-1.95-3.58h-.74v3.58h-2.14v-9.02h3.44c1.73 0 3.45.66 3.45 2.73 0 1.21-.71 2.08-1.87 2.43l2.36 3.86h-2.55zm-1.54-7.26h-1.16v2.1h1.03c.7 0 1.58-.18 1.58-1.1 0-.83-.8-1-1.45-1zM85.85 186.98l-3.63-5.9h-.04l.05 5.9h-2.11v-9.02h2.48l3.62 5.89h.04l-.05-5.89h2.11v9.02h-2.47zM102.57 186.98l.05-6.38h-.04l-2.34 6.38h-1.53l-2.28-6.38h-.04l.05 6.38h-2.05v-9.02h3.1l2.05 5.78h.05l1.96-5.78h3.15v9.02h-2.13zM111.55 187.23c-2.82 0-4.91-1.94-4.91-4.79 0-2.89 2.09-4.71 4.91-4.71 2.83 0 4.92 1.82 4.92 4.71 0 2.85-2.09 4.79-4.92 4.79zm0-7.55c-1.53 0-2.57 1.17-2.57 2.75 0 1.63 1.06 2.8 2.57 2.8s2.59-1.17 2.59-2.8c0-1.57-1.06-2.75-2.59-2.75zM123.24 186.98l-1.95-3.58h-.74v3.58h-2.14v-9.02h3.44c1.73 0 3.45.66 3.45 2.73 0 1.21-.71 2.08-1.87 2.43l2.36 3.86h-2.55zm-1.54-7.26h-1.16v2.1h1.03c.7 0 1.58-.18 1.58-1.1.01-.83-.8-1-1.45-1zM127.37 186.98v-9.02h6.06v1.85h-3.96v1.69h3.75v1.75h-3.75v1.87h4.19v1.86h-6.29z"/></svg>