<svg id="Layer_1" xmlns="http://www.w3.org/2000/svg" viewBox="0 0 970 250"><style>.st0{fill:#fff}</style><path class="st0" d="M654.76 195.97h-1.32l3.68-8.49h1.08l3.64 8.49h-1.34l-.86-2.09h-4.03l-.85 2.09zm1.27-3.13h3.18l-1.58-3.98-1.6 3.98zM662.87 190.92c-.01-.24-.02-.45-.04-.64h1.07a8.218 8.218 0 0 1 .05.96h.04c.16-.34.39-.61.7-.81.31-.2.65-.31 1.04-.31.18 0 .32.02.44.05l-.05 1.04a2.12 2.12 0 0 0-.52-.06c-.27 0-.51.05-.71.15-.2.1-.37.23-.5.4s-.23.36-.29.58c-.06.22-.1.45-.1.69v2.99h-1.13v-4.46c.01-.14 0-.34 0-.58zM668.54 188.24c0 .21-.07.38-.22.52s-.32.2-.53.2-.38-.07-.52-.21a.694.694 0 0 1-.21-.51.717.717 0 0 1 .73-.73c.2 0 .38.07.53.21.14.14.22.31.22.52zm-.18 7.73h-1.13v-5.68h1.13v5.68zM675.63 193.08v.19c0 .06 0 .13-.01.19h-4.52c.01.24.06.46.16.67s.23.39.4.55c.17.15.36.28.58.36.22.09.45.13.7.13.38 0 .71-.08 1-.25.28-.17.5-.37.66-.61l.79.64c-.3.4-.66.7-1.07.89-.41.19-.87.29-1.37.29-.43 0-.83-.07-1.2-.22a2.77 2.77 0 0 1-.95-.61c-.26-.26-.47-.57-.62-.94s-.23-.78-.23-1.22c0-.44.07-.85.22-1.22s.35-.69.62-.95.58-.47.94-.62c.36-.15.75-.22 1.17-.22.42 0 .79.07 1.13.2.34.14.63.33.87.59s.42.57.55.93c.12.37.18.77.18 1.23zm-1.15-.46c-.01-.22-.05-.43-.11-.63-.07-.2-.17-.37-.3-.51-.13-.14-.3-.26-.49-.34-.2-.08-.42-.13-.69-.13-.24 0-.47.04-.68.13s-.4.2-.55.34c-.16.14-.28.31-.38.51-.1.2-.16.41-.17.63h3.37zM678.34 195.97h-1.13v-9.06h1.13v9.06zM683.73 190.29l1.28 4.34h.02l1.35-4.34h1.19l1.38 4.34h.02l1.28-4.34h1.19l-1.88 5.68h-1.17l-1.4-4.27h-.02l-1.39 4.27h-1.17l-1.89-5.68h1.21zM696.11 192.29c0-.42-.13-.74-.38-.94-.26-.2-.6-.31-1.02-.31-.32 0-.62.06-.91.19-.28.12-.52.28-.71.47l-.6-.72c.28-.26.62-.47 1.03-.62.4-.15.84-.23 1.3-.23.41 0 .76.06 1.06.17.3.12.54.27.74.47.19.2.33.44.43.71.1.27.14.56.14.88v2.48c0 .19.01.39.02.61.01.21.03.39.07.52h-1.02c-.06-.27-.1-.54-.1-.82h-.04c-.21.3-.47.54-.79.71-.32.17-.69.25-1.12.25-.22 0-.46-.03-.7-.09-.24-.06-.47-.16-.67-.29-.2-.14-.37-.32-.5-.54s-.2-.5-.2-.83c0-.43.12-.77.35-1.03.23-.25.54-.44.91-.58.38-.13.8-.22 1.27-.26s.95-.06 1.43-.06v-.14zm-.28.97c-.28 0-.57.01-.87.04-.3.02-.57.07-.82.14-.24.07-.45.18-.61.32-.16.14-.24.34-.24.58 0 .17.03.31.1.42.07.11.16.2.27.28.11.07.24.12.37.15s.28.04.42.04c.53 0 .93-.16 1.22-.47.28-.32.43-.71.43-1.19v-.3h-.27zM702.14 191.73c-.13-.21-.31-.38-.54-.51-.23-.13-.49-.2-.78-.2-.13 0-.26.01-.38.04s-.24.07-.34.13c-.1.06-.18.14-.24.23s-.09.21-.09.34c0 .24.11.42.32.53.22.12.54.22.97.32.27.06.52.14.76.23.23.09.43.2.61.33s.31.29.4.47c.1.18.14.4.14.65 0 .34-.06.62-.19.85s-.3.42-.51.57c-.21.15-.45.25-.73.32-.27.06-.55.1-.84.1-.43 0-.85-.08-1.26-.25-.41-.17-.75-.42-1.03-.77l.8-.68c.15.22.36.41.63.56.27.15.56.23.88.23.14 0 .28-.01.41-.04.13-.03.25-.07.36-.14.11-.06.19-.15.26-.25.06-.1.1-.24.1-.4 0-.26-.13-.46-.38-.59s-.62-.25-1.11-.36c-.19-.05-.39-.11-.58-.17-.2-.07-.37-.16-.53-.28-.16-.12-.29-.27-.39-.45-.1-.18-.15-.4-.15-.67 0-.3.06-.56.19-.79.12-.22.29-.4.49-.54s.43-.24.68-.31c.26-.07.52-.1.79-.1a3 3 0 0 1 1.18.24c.38.16.67.39.88.7l-.78.66zM710.17 191.21h-1.51v2.95c0 .34.06.59.19.74s.33.22.61.22c.1 0 .22-.01.34-.03.12-.02.23-.06.32-.1l.04.92a2.962 2.962 0 0 1-.96.15c-.54 0-.95-.15-1.23-.44-.28-.3-.43-.74-.43-1.33v-3.08h-1.09v-.92h1.09v-1.63h1.12v1.63h1.51v.92zM711.32 190.92c-.01-.24-.02-.45-.04-.64h1.07a8.218 8.218 0 0 1 .05.96h.04c.16-.34.39-.61.7-.81.31-.2.65-.31 1.04-.31.18 0 .32.02.44.05l-.05 1.04a2.12 2.12 0 0 0-.52-.06c-.27 0-.51.05-.71.15-.2.1-.37.23-.5.4s-.23.36-.29.58c-.06.22-.1.45-.1.69v2.99h-1.13v-4.46c.02-.14.01-.34 0-.58zM720.77 193.08v.19c0 .06 0 .13-.01.19h-4.52c.01.24.06.46.16.67s.23.39.4.55c.17.15.36.28.58.36.22.09.45.13.7.13.38 0 .71-.08 1-.25.28-.17.5-.37.66-.61l.79.64c-.3.4-.66.7-1.07.89-.41.19-.87.29-1.37.29-.43 0-.83-.07-1.2-.22a2.77 2.77 0 0 1-.95-.61c-.26-.26-.47-.57-.62-.94s-.23-.78-.23-1.22c0-.44.07-.85.22-1.22s.35-.69.62-.95.58-.47.94-.62c.36-.15.75-.22 1.17-.22.42 0 .79.07 1.13.2.34.14.63.33.87.59s.42.57.55.93c.12.37.18.77.18 1.23zm-1.15-.46c-.01-.22-.05-.43-.11-.63-.07-.2-.17-.37-.3-.51-.13-.14-.3-.26-.49-.34-.2-.08-.42-.13-.69-.13-.24 0-.47.04-.68.13s-.4.2-.55.34c-.16.14-.28.31-.38.51-.1.2-.16.41-.17.63h3.37zM725.79 192.29c0-.42-.13-.74-.38-.94-.26-.2-.6-.31-1.02-.31-.32 0-.62.06-.91.19-.28.12-.52.28-.71.47l-.6-.72c.28-.26.62-.47 1.03-.62.4-.15.84-.23 1.3-.23.41 0 .76.06 1.06.17.3.12.54.27.74.47.19.2.33.44.43.71.1.27.14.56.14.88v2.48c0 .19.01.39.02.61.01.21.03.39.07.52h-1.02c-.06-.27-.1-.54-.1-.82h-.04c-.21.3-.47.54-.79.71-.32.17-.69.25-1.12.25-.22 0-.46-.03-.7-.09-.24-.06-.47-.16-.67-.29-.2-.14-.37-.32-.5-.54s-.2-.5-.2-.83c0-.43.12-.77.35-1.03.23-.25.54-.44.91-.58.38-.13.8-.22 1.27-.26s.95-.06 1.43-.06v-.14zm-.27.97c-.28 0-.57.01-.87.04-.3.02-.57.07-.82.14-.24.07-.45.18-.61.32-.16.14-.24.34-.24.58 0 .17.03.31.1.42.07.11.16.2.27.28.11.07.24.12.37.15s.28.04.42.04c.53 0 .93-.16 1.22-.47.28-.32.43-.71.43-1.19v-.3h-.27zM731.42 191.21h-1.51v2.95c0 .34.06.59.19.74s.33.22.61.22c.1 0 .22-.01.34-.03.12-.02.23-.06.32-.1l.04.92a2.962 2.962 0 0 1-.96.15c-.54 0-.95-.15-1.23-.44-.28-.3-.43-.74-.43-1.33v-3.08h-1.09v-.92h1.09v-1.63h1.12v1.63h1.51v.92zM737.89 193.08v.19c0 .06 0 .13-.01.19h-4.52c.01.24.06.46.16.67s.23.39.4.55c.17.15.36.28.58.36.22.09.45.13.7.13.38 0 .71-.08 1-.25.28-.17.5-.37.66-.61l.79.64c-.3.4-.66.7-1.07.89-.41.19-.87.29-1.37.29-.43 0-.83-.07-1.2-.22a2.77 2.77 0 0 1-.95-.61c-.26-.26-.47-.57-.62-.94s-.23-.78-.23-1.22c0-.44.07-.85.22-1.22s.35-.69.62-.95.58-.47.94-.62c.36-.15.75-.22 1.17-.22.42 0 .79.07 1.13.2.34.14.63.33.87.59s.42.57.55.93c.12.37.18.77.18 1.23zm-1.15-.46c-.01-.22-.05-.43-.11-.63-.07-.2-.17-.37-.3-.51-.13-.14-.3-.26-.49-.34-.2-.08-.42-.13-.69-.13-.24 0-.47.04-.68.13s-.4.2-.55.34c-.16.14-.28.31-.38.51-.1.2-.16.41-.17.63h3.37zM743.98 195.07c-.22.34-.51.61-.88.79-.37.18-.76.27-1.17.27-.44 0-.84-.08-1.19-.23-.35-.16-.65-.37-.9-.64s-.44-.59-.58-.96c-.14-.37-.2-.76-.2-1.17 0-.42.07-.8.2-1.17.14-.36.33-.68.58-.95.25-.27.55-.48.91-.63.35-.15.74-.23 1.16-.23.46 0 .87.1 1.21.29.34.2.62.43.82.71h.02v-4.23h1.13v9.06H744v-.9h-.02zm-3.74-1.95c0 .26.04.52.12.77s.2.47.36.66c.16.19.36.34.59.46.23.12.5.17.82.17a1.865 1.865 0 0 0 1.4-.62c.17-.19.3-.4.39-.65s.14-.51.14-.78-.05-.53-.14-.78-.22-.47-.39-.66-.37-.34-.61-.45c-.24-.11-.5-.17-.79-.17-.31 0-.58.06-.82.17-.23.11-.43.26-.59.45-.16.19-.28.41-.36.66s-.12.51-.12.77zM750.48 190.29l1.28 4.34h.02l1.35-4.34h1.19l1.38 4.34h.02l1.28-4.34h1.19l-1.88 5.68h-1.17l-1.4-4.27h-.02l-1.39 4.27h-1.17l-1.89-5.68h1.21zM760.65 188.24c0 .21-.07.38-.22.52s-.32.2-.53.2-.38-.07-.52-.21a.694.694 0 0 1-.21-.51.717.717 0 0 1 .73-.73c.2 0 .38.07.53.21.14.14.22.31.22.52zm-.18 7.73h-1.13v-5.68h1.13v5.68zM765.21 191.21h-1.51v2.95c0 .34.06.59.19.74s.33.22.61.22c.1 0 .22-.01.34-.03.12-.02.23-.06.32-.1l.04.92a2.962 2.962 0 0 1-.96.15c-.54 0-.95-.15-1.23-.44-.28-.3-.43-.74-.43-1.33v-3.08h-1.09v-.92h1.09v-1.63h1.12v1.63h1.51v.92zM767.55 191.15c.14-.28.37-.52.7-.72.33-.2.7-.3 1.1-.3.37 0 .68.06.95.19s.48.29.66.5.31.45.39.73c.08.28.13.58.13.9v3.52h-1.13v-3.15c0-.23-.02-.45-.05-.66-.04-.21-.1-.39-.2-.55s-.23-.29-.39-.38c-.16-.1-.38-.14-.64-.14-.45 0-.81.17-1.1.51-.29.34-.43.8-.43 1.36v3.02h-1.13v-9.06h1.13v4.24h.01zM682.59 207.64c-.34.46-.77.83-1.31 1.11-.54.28-1.18.43-1.93.43-.65 0-1.25-.11-1.79-.33-.55-.22-1.02-.53-1.42-.92s-.71-.87-.93-1.42c-.22-.55-.34-1.15-.34-1.8 0-.66.11-1.27.34-1.82.23-.55.54-1.01.95-1.4.4-.39.88-.69 1.43-.91.55-.22 1.15-.32 1.8-.32.29 0 .58.03.88.08.3.06.58.14.85.25.27.11.52.25.74.41.22.16.42.35.58.57l-.93.72c-.21-.29-.5-.53-.88-.71-.38-.19-.79-.28-1.23-.28-.5 0-.94.09-1.34.27-.4.18-.73.42-1.01.74-.28.31-.5.67-.65 1.08a3.8 3.8 0 0 0-.23 1.31c0 .48.07.93.22 1.34.15.42.36.78.63 1.08.28.31.61.55 1.01.73s.84.26 1.32.26c.48 0 .92-.1 1.31-.29s.72-.47.97-.84l.96.66zM689.35 206.1c0 .44-.08.84-.23 1.21-.16.37-.37.69-.65.95-.28.27-.6.48-.98.62-.38.15-.78.22-1.21.22s-.83-.07-1.21-.22-.7-.36-.97-.62-.49-.58-.64-.95a3 3 0 0 1-.23-1.21c0-.44.08-.84.23-1.21.16-.36.37-.68.64-.94s.6-.47.97-.62c.38-.15.78-.22 1.21-.22s.83.07 1.21.22.7.35.98.62c.28.26.49.58.65.94.15.37.23.77.23 1.21zm-1.18.01c0-.27-.04-.53-.13-.78-.08-.25-.21-.46-.37-.65s-.36-.34-.59-.45c-.24-.11-.51-.17-.81-.17s-.58.06-.81.17c-.24.11-.44.26-.6.45s-.28.4-.37.65c-.08.25-.13.51-.13.78s.04.53.13.78c.08.25.21.47.37.66s.36.34.6.45c.24.11.51.17.81.17s.58-.06.81-.17c.24-.11.43-.26.59-.45s.28-.41.37-.66c.09-.25.13-.51.13-.78zM696.66 206.1c0 .44-.08.84-.23 1.21-.16.37-.37.69-.65.95-.28.27-.6.48-.98.62-.38.15-.78.22-1.21.22s-.83-.07-1.21-.22-.7-.36-.97-.62-.49-.58-.64-.95a3 3 0 0 1-.23-1.21c0-.44.08-.84.23-1.21.16-.36.37-.68.64-.94s.6-.47.97-.62c.38-.15.78-.22 1.21-.22s.83.07 1.21.22.7.35.98.62c.28.26.49.58.65.94.15.37.23.77.23 1.21zm-1.17.01c0-.27-.04-.53-.13-.78-.08-.25-.21-.46-.37-.65s-.36-.34-.59-.45c-.24-.11-.51-.17-.81-.17s-.58.06-.81.17c-.24.11-.44.26-.6.45s-.28.4-.37.65c-.08.25-.13.51-.13.78s.04.53.13.78c.08.25.21.47.37.66s.36.34.6.45c.24.11.51.17.81.17s.58-.06.81-.17c.24-.11.43-.26.59-.45s.28-.41.37-.66c.09-.25.13-.51.13-.78zM699.37 208.96h-1.13v-9.06h1.13v9.06zM704.37 208.96h-1.19v-7.45h-2.72v-1.04h6.63v1.04h-2.72v7.45zM712.76 206.1c0 .44-.08.84-.23 1.21-.16.37-.37.69-.65.95-.28.27-.6.48-.98.62-.38.15-.78.22-1.21.22s-.83-.07-1.21-.22-.7-.36-.97-.62-.49-.58-.64-.95a3 3 0 0 1-.23-1.21c0-.44.08-.84.23-1.21.16-.36.37-.68.64-.94s.6-.47.97-.62c.38-.15.78-.22 1.21-.22s.83.07 1.21.22.7.35.98.62c.28.26.49.58.65.94.15.37.23.77.23 1.21zm-1.17.01c0-.27-.04-.53-.13-.78-.08-.25-.21-.46-.37-.65s-.36-.34-.59-.45c-.24-.11-.51-.17-.81-.17s-.58.06-.81.17c-.24.11-.44.26-.6.45s-.28.4-.37.65c-.08.25-.13.51-.13.78s.04.53.13.78c.08.25.21.47.37.66s.36.34.6.45c.24.11.51.17.81.17s.58-.06.81-.17c.24-.11.43-.26.59-.45s.28-.41.37-.66c.08-.25.13-.51.13-.78zM715.34 203.27c.02.14.03.31.04.49.01.18.01.33.01.45h.04c.07-.15.17-.29.29-.43.12-.13.27-.25.42-.35.16-.1.34-.18.53-.23.19-.06.39-.08.6-.08.37 0 .68.06.95.19s.48.29.66.5.31.45.39.73c.08.28.13.58.13.9v3.52h-1.13v-3.15c0-.23-.02-.45-.05-.66s-.1-.39-.2-.55c-.1-.16-.23-.29-.4-.38-.17-.1-.38-.14-.65-.14-.45 0-.81.17-1.1.51-.28.34-.43.79-.43 1.36v3.02h-1.13v-4.46c0-.15 0-.35-.01-.59s-.02-.45-.04-.64h1.08zM726.61 206.07v.19c0 .06 0 .13-.01.19h-4.52c.01.24.06.46.16.67s.23.39.4.55c.17.15.36.28.58.36.22.09.45.13.7.13.38 0 .71-.08 1-.25.28-.17.5-.37.66-.61l.79.64c-.3.4-.66.7-1.07.89-.41.19-.87.29-1.37.29-.43 0-.83-.07-1.2-.22a2.77 2.77 0 0 1-.95-.61c-.26-.26-.47-.57-.62-.94s-.23-.78-.23-1.22c0-.44.07-.85.22-1.22s.35-.69.62-.95.58-.47.94-.62c.36-.15.75-.22 1.17-.22.42 0 .79.07 1.13.2.34.14.63.33.87.59s.42.57.55.93c.11.36.18.77.18 1.23zm-1.15-.46c-.01-.22-.05-.43-.11-.63-.07-.2-.17-.37-.3-.51-.13-.14-.3-.26-.49-.34-.2-.08-.42-.13-.69-.13-.24 0-.47.04-.68.13s-.4.2-.55.34c-.16.14-.28.31-.38.51-.1.2-.16.41-.17.63h3.37zM727.58 203.05c0-.38.07-.73.22-1.06.14-.33.34-.62.59-.86.25-.24.54-.44.87-.58.33-.14.69-.22 1.06-.22s.73.07 1.06.22a2.743 2.743 0 0 1 1.46 1.44c.14.33.22.69.22 1.06s-.07.73-.22 1.05c-.14.33-.34.61-.59.86-.25.24-.54.44-.87.58-.33.14-.68.21-1.06.21s-.73-.07-1.06-.21a2.743 2.743 0 0 1-1.46-1.44c-.15-.33-.22-.68-.22-1.05zm.43 0c0 .31.06.61.18.89s.28.53.49.74.45.38.73.5c.28.12.58.18.9.18a2.26 2.26 0 0 0 1.63-.68c.21-.21.37-.46.49-.74.12-.28.18-.58.18-.89a2.287 2.287 0 0 0-2.3-2.3 2.287 2.287 0 0 0-2.3 2.3zm2.96 1.49l-.66-1.19h-.43v1.19h-.73v-3.07h1.32c.14 0 .28.02.42.05.14.03.26.08.37.16.11.07.2.17.27.29.07.12.1.28.1.46 0 .21-.06.38-.17.52-.12.14-.26.24-.44.3l.82 1.29h-.87zm-.53-1.71c.11 0 .21-.04.31-.11.09-.07.14-.17.14-.29 0-.13-.05-.22-.16-.28-.1-.06-.2-.08-.29-.08h-.56v.76h.56zM743.63 206.1c0 .44-.08.84-.23 1.21-.16.37-.37.69-.65.95-.28.27-.6.48-.98.62-.38.15-.78.22-1.21.22s-.83-.07-1.21-.22-.7-.36-.97-.62-.49-.58-.64-.95a3 3 0 0 1-.23-1.21c0-.44.08-.84.23-1.21.16-.36.37-.68.64-.94s.6-.47.97-.62c.38-.15.78-.22 1.21-.22s.83.07 1.21.22.7.35.98.62c.28.26.49.58.65.94.15.37.23.77.23 1.21zm-1.17.01c0-.27-.04-.53-.13-.78-.08-.25-.21-.46-.37-.65s-.36-.34-.59-.45c-.24-.11-.51-.17-.81-.17s-.58.06-.81.17c-.24.11-.44.26-.6.45s-.28.4-.37.65c-.08.25-.13.51-.13.78s.04.53.13.78c.08.25.21.47.37.66s.36.34.6.45c.24.11.51.17.81.17s.58-.06.81-.17c.24-.11.43-.26.59-.45s.28-.41.37-.66c.09-.25.13-.51.13-.78zM746.21 203.27c.02.14.03.31.04.49.01.18.01.33.01.45h.04c.07-.15.17-.29.29-.43.12-.13.27-.25.42-.35.16-.1.34-.18.53-.23.19-.06.39-.08.6-.08.37 0 .68.06.95.19s.48.29.66.5.31.45.39.73c.08.28.13.58.13.9v3.52h-1.13v-3.15c0-.23-.02-.45-.05-.66s-.1-.39-.2-.55c-.1-.16-.23-.29-.4-.38-.17-.1-.38-.14-.65-.14-.45 0-.81.17-1.1.51-.28.34-.43.79-.43 1.36v3.02h-1.13v-4.46c0-.15 0-.35-.01-.59s-.02-.45-.04-.64h1.08zM756.34 204.14c.14-.28.37-.52.7-.72.33-.2.7-.3 1.1-.3.37 0 .68.06.95.19s.48.29.66.5.31.45.39.73c.08.28.13.58.13.9v3.52h-1.13v-3.15c0-.23-.02-.45-.05-.66-.04-.21-.1-.39-.2-.55s-.23-.29-.39-.38c-.16-.1-.38-.14-.64-.14-.45 0-.81.17-1.1.51-.29.34-.43.8-.43 1.36v3.02h-1.13v-9.06h1.13v4.24h.01zM767.48 206.07v.19c0 .06 0 .13-.01.19h-4.52c.01.24.06.46.16.67s.23.39.4.55c.17.15.36.28.58.36.22.09.45.13.7.13.38 0 .71-.08 1-.25.28-.17.5-.37.66-.61l.79.64c-.3.4-.66.7-1.07.89-.41.19-.87.29-1.37.29-.43 0-.83-.07-1.2-.22a2.77 2.77 0 0 1-.95-.61c-.26-.26-.47-.57-.62-.94s-.23-.78-.23-1.22c0-.44.07-.85.22-1.22s.35-.69.62-.95.58-.47.94-.62c.36-.15.75-.22 1.17-.22.42 0 .79.07 1.13.2.34.14.63.33.87.59s.42.57.55.93c.11.36.18.77.18 1.23zm-1.15-.46c-.01-.22-.05-.43-.11-.63-.07-.2-.17-.37-.3-.51-.13-.14-.3-.26-.49-.34-.2-.08-.42-.13-.69-.13-.24 0-.47.04-.68.13s-.4.2-.55.34c-.16.14-.28.31-.38.51-.1.2-.16.41-.17.63h3.37zM769.02 203.91c-.01-.24-.02-.45-.04-.64h1.07a8.218 8.218 0 0 1 .05.96h.04c.16-.34.39-.61.7-.81.31-.2.65-.31 1.04-.31.18 0 .32.02.44.05l-.05 1.04a2.12 2.12 0 0 0-.52-.06c-.27 0-.51.05-.71.15-.2.1-.37.23-.5.4s-.23.36-.29.58c-.06.22-.1.45-.1.69v2.99h-1.13v-4.46c.01-.14.01-.34 0-.58zM646.43 218.26c0-.42-.13-.74-.38-.94-.26-.2-.6-.31-1.02-.31-.32 0-.62.06-.91.19-.28.12-.52.28-.71.47l-.6-.72c.28-.26.62-.47 1.03-.62.4-.15.84-.23 1.3-.23.41 0 .76.06 1.06.17.3.12.54.27.74.47.19.2.33.44.43.71.1.27.14.56.14.88v2.48c0 .19.01.39.02.61.01.21.03.39.07.52h-1.02c-.06-.27-.1-.54-.1-.82h-.04c-.21.3-.47.54-.79.71-.32.17-.69.25-1.12.25-.22 0-.46-.03-.7-.09-.24-.06-.47-.16-.67-.29-.2-.14-.37-.32-.5-.54s-.2-.5-.2-.83c0-.43.12-.77.35-1.03.23-.25.54-.44.91-.58.38-.13.8-.22 1.27-.26s.95-.06 1.43-.06v-.14zm-.27.98c-.28 0-.57.01-.87.04-.3.02-.57.07-.82.14-.24.07-.45.18-.61.32-.16.14-.24.34-.24.58 0 .17.03.31.1.42.07.11.16.2.27.28.11.07.24.12.37.15s.28.04.42.04c.53 0 .93-.16 1.22-.47.28-.32.43-.71.43-1.19v-.3h-.27zM650.51 221.05v.9h-1.09v-9.06h1.13v4.23h.04c.19-.28.46-.52.8-.71.34-.2.75-.29 1.22-.29.42 0 .81.08 1.15.23.35.15.65.36.9.63s.44.59.58.95c.14.36.2.75.2 1.17 0 .42-.07.81-.2 1.17-.13.37-.33.69-.57.96-.25.27-.55.49-.9.64-.35.16-.75.23-1.18.23-.41 0-.79-.09-1.16-.27-.37-.18-.66-.44-.88-.79h-.04zm3.77-1.95c0-.26-.04-.52-.12-.76-.08-.25-.2-.47-.36-.66s-.36-.34-.59-.45c-.24-.11-.51-.17-.82-.17a1.865 1.865 0 0 0-1.4.62c-.17.19-.3.41-.39.66s-.14.51-.14.78.05.53.14.78a1.944 1.944 0 0 0 1 1.1c.24.11.5.17.79.17.31 0 .59-.06.82-.17.24-.12.43-.27.59-.46s.28-.41.36-.66c.08-.26.12-.52.12-.78zM661.55 221.05c-.22.34-.51.61-.88.79-.37.18-.76.27-1.17.27-.44 0-.84-.08-1.19-.23-.35-.16-.65-.37-.9-.64s-.44-.59-.58-.96c-.14-.37-.2-.76-.2-1.17 0-.42.07-.8.2-1.17.14-.36.33-.68.58-.95.25-.27.55-.48.91-.63.35-.15.74-.23 1.16-.23.46 0 .87.1 1.21.29.34.2.62.43.82.71h.02v-4.23h1.13v9.06h-1.09v-.9h-.02zm-3.74-1.95c0 .26.04.52.12.77s.2.47.36.66c.16.19.36.34.59.46.23.12.5.17.82.17a1.865 1.865 0 0 0 1.4-.62c.17-.19.3-.4.39-.65s.14-.51.14-.78-.05-.53-.14-.78-.22-.47-.39-.66-.37-.34-.61-.45c-.24-.11-.5-.17-.79-.17-.31 0-.58.06-.82.17-.23.11-.43.26-.59.45-.16.19-.28.41-.36.66s-.12.5-.12.77zM670.38 219.09c0 .44-.08.84-.23 1.21-.16.37-.37.69-.65.95-.28.27-.6.48-.98.62-.38.15-.78.22-1.21.22s-.83-.07-1.21-.22-.7-.36-.97-.62-.49-.58-.64-.95a3 3 0 0 1-.23-1.21c0-.44.08-.84.23-1.21.16-.36.37-.68.64-.94s.6-.47.97-.62c.38-.15.78-.22 1.21-.22s.83.07 1.21.22.7.35.98.62c.28.26.49.58.65.94a3 3 0 0 1 .23 1.21zm-1.17.01c0-.27-.04-.53-.13-.78-.08-.25-.21-.46-.37-.65s-.36-.34-.59-.45c-.24-.11-.51-.17-.81-.17s-.58.06-.81.17c-.24.11-.44.26-.6.45s-.28.4-.37.65c-.08.25-.13.51-.13.78s.04.53.13.78c.08.25.21.47.37.66s.36.34.6.45c.24.11.51.17.81.17s.58-.06.81-.17c.24-.11.43-.26.59-.45s.28-.41.37-.66c.09-.25.13-.51.13-.78zM673.73 216.42c.32-.21.69-.32 1.12-.32.38 0 .73.09 1.04.26.31.18.55.47.73.88.19-.37.46-.65.8-.85.34-.2.72-.29 1.13-.29.37 0 .68.06.95.19.26.12.48.29.66.5s.31.45.39.73c.08.28.13.58.13.9v3.52h-1.13v-3.15c0-.23-.02-.45-.06-.66s-.11-.39-.2-.55c-.1-.16-.22-.29-.38-.38-.16-.1-.36-.14-.61-.14-.26 0-.48.05-.66.16-.18.11-.33.25-.45.42s-.2.37-.25.58-.08.44-.08.66v3.07h-1.13v-3.38c0-.22-.02-.43-.06-.61s-.11-.34-.2-.47c-.1-.13-.22-.24-.37-.31-.15-.08-.34-.11-.56-.11-.42 0-.76.17-1.04.51s-.41.79-.41 1.36v3.02h-1.13v-4.46c0-.15 0-.35-.01-.59s-.02-.45-.04-.64h1.07c.02.14.03.31.04.49.01.18.01.33.01.45h.04c.12-.32.35-.57.66-.79zM687.89 219.06v.19c0 .06 0 .13-.01.19h-4.52c.01.24.06.46.16.67s.23.39.4.55c.17.15.36.28.58.36.22.09.45.13.7.13.38 0 .71-.08 1-.25.28-.17.5-.37.66-.61l.79.64c-.3.4-.66.7-1.07.89-.41.19-.87.29-1.37.29-.43 0-.83-.07-1.2-.22a2.77 2.77 0 0 1-.95-.61c-.26-.26-.47-.57-.62-.94s-.23-.78-.23-1.22c0-.44.07-.85.22-1.22s.35-.69.62-.95.58-.47.94-.62c.36-.15.75-.22 1.17-.22.42 0 .79.07 1.13.2.34.14.63.33.87.59s.42.57.55.93c.11.36.18.77.18 1.23zm-1.15-.46c-.01-.22-.05-.43-.11-.63-.07-.2-.17-.37-.3-.51-.13-.14-.3-.26-.49-.34-.2-.08-.42-.13-.69-.13-.24 0-.47.04-.68.13s-.4.2-.55.34c-.16.14-.28.31-.38.51-.1.2-.16.41-.17.63h3.37zM690.46 216.26c.02.14.03.31.04.49.01.18.01.33.01.45h.04c.07-.15.17-.29.29-.43.12-.13.27-.25.42-.35.16-.1.34-.18.53-.23.19-.06.39-.08.6-.08.37 0 .68.06.95.19s.48.29.66.5.31.45.39.73c.08.28.13.58.13.9v3.52h-1.13v-3.15c0-.23-.02-.45-.05-.66s-.1-.39-.2-.55c-.1-.16-.23-.29-.4-.38-.17-.1-.38-.14-.65-.14-.45 0-.81.17-1.1.51-.28.34-.43.79-.43 1.36v3.02h-1.13v-4.46c0-.15 0-.35-.01-.59s-.02-.45-.04-.64h1.08zM702.96 218.26c0-.42-.13-.74-.38-.94-.26-.2-.6-.31-1.02-.31-.32 0-.62.06-.91.19-.28.12-.52.28-.71.47l-.6-.72c.28-.26.62-.47 1.03-.62.4-.15.84-.23 1.3-.23.41 0 .76.06 1.06.17.3.12.54.27.74.47.19.2.33.44.43.71.1.27.14.56.14.88v2.48c0 .19.01.39.02.61.01.21.03.39.07.52h-1.02c-.06-.27-.1-.54-.1-.82h-.04c-.21.3-.47.54-.79.71-.32.17-.69.25-1.12.25-.22 0-.46-.03-.7-.09-.24-.06-.47-.16-.67-.29-.2-.14-.37-.32-.5-.54s-.2-.5-.2-.83c0-.43.12-.77.35-1.03.23-.25.54-.44.91-.58.38-.13.8-.22 1.27-.26s.95-.06 1.43-.06v-.14zm-.28.98c-.28 0-.57.01-.87.04-.3.02-.57.07-.82.14-.24.07-.45.18-.61.32-.16.14-.24.34-.24.58 0 .17.03.31.1.42.07.11.16.2.27.28.11.07.24.12.37.15s.28.04.42.04c.53 0 .93-.16 1.22-.47.28-.32.43-.71.43-1.19v-.3h-.27zM706.94 216.26c.02.14.03.31.04.49.01.18.01.33.01.45h.04c.07-.15.17-.29.29-.43.12-.13.27-.25.42-.35.16-.1.34-.18.53-.23.19-.06.39-.08.6-.08.37 0 .68.06.95.19s.48.29.66.5.31.45.39.73c.08.28.13.58.13.9v3.52h-1.13v-3.15c0-.23-.02-.45-.05-.66s-.1-.39-.2-.55c-.1-.16-.23-.29-.4-.38-.17-.1-.38-.14-.65-.14-.45 0-.81.17-1.1.51-.28.34-.43.79-.43 1.36v3.02h-1.13v-4.46c0-.15 0-.35-.01-.59s-.02-.45-.04-.64h1.08zM717.43 221.05c-.22.34-.51.61-.88.79-.37.18-.76.27-1.17.27-.44 0-.84-.08-1.19-.23-.35-.16-.65-.37-.9-.64s-.44-.59-.58-.96c-.14-.37-.2-.76-.2-1.17 0-.42.07-.8.2-1.17.14-.36.33-.68.58-.95.25-.27.55-.48.91-.63.35-.15.74-.23 1.16-.23.46 0 .87.1 1.21.29.34.2.62.43.82.71h.02v-4.23h1.13v9.06h-1.09v-.9h-.02zm-3.74-1.95c0 .26.04.52.12.77s.2.47.36.66c.16.19.36.34.59.46.23.12.5.17.82.17a1.865 1.865 0 0 0 1.4-.62c.17-.19.3-.4.39-.65s.14-.51.14-.78-.05-.53-.14-.78-.22-.47-.39-.66-.37-.34-.61-.45c-.24-.11-.5-.17-.79-.17-.31 0-.58.06-.82.17-.23.11-.43.26-.59.45-.16.19-.28.41-.36.66s-.12.5-.12.77zM724.62 221.05v.9h-1.09v-9.06h1.13v4.23h.04c.19-.28.46-.52.8-.71.34-.2.75-.29 1.22-.29.42 0 .81.08 1.15.23.35.15.65.36.9.63s.44.59.58.95c.14.36.2.75.2 1.17 0 .42-.07.81-.2 1.17-.13.37-.33.69-.57.96-.25.27-.55.49-.9.64-.35.16-.75.23-1.18.23-.41 0-.79-.09-1.16-.27-.37-.18-.66-.44-.88-.79h-.04zm3.78-1.95c0-.26-.04-.52-.12-.76-.08-.25-.2-.47-.36-.66s-.36-.34-.59-.45c-.24-.11-.51-.17-.82-.17a1.865 1.865 0 0 0-1.4.62c-.17.19-.3.41-.39.66s-.14.51-.14.78.05.53.14.78a1.944 1.944 0 0 0 1 1.1c.24.11.5.17.79.17.31 0 .59-.06.82-.17.24-.12.43-.27.59-.46s.28-.41.36-.66c.08-.26.12-.52.12-.78zM735.13 221.95c-.02-.14-.03-.31-.04-.49s-.01-.33-.01-.45h-.02c-.14.3-.39.56-.73.77-.34.21-.72.32-1.13.32-.37 0-.69-.06-.95-.18-.27-.12-.49-.29-.66-.5s-.3-.46-.38-.74a3.26 3.26 0 0 1-.13-.9v-3.52h1.13v3.14c0 .23.02.45.05.67.04.21.1.4.2.56.1.16.23.29.4.38.17.1.38.14.65.14.46 0 .82-.17 1.1-.51.28-.34.42-.79.42-1.36v-3.02h1.13v4.46a13.52 13.52 0 0 0 .05 1.23h-1.08zM740.89 217.19h-1.51v2.95c0 .34.06.59.19.74s.33.22.61.22c.1 0 .22-.01.34-.03.12-.02.23-.06.32-.1l.04.92a2.962 2.962 0 0 1-.96.15c-.54 0-.95-.15-1.23-.44-.28-.3-.43-.74-.43-1.33v-3.08h-1.09v-.92h1.09v-1.63h1.12v1.63h1.51v.92zM744.65 217.19h-1.51v2.95c0 .34.06.59.19.74s.33.22.61.22c.1 0 .22-.01.34-.03.12-.02.23-.06.32-.1l.04.92a2.962 2.962 0 0 1-.96.15c-.54 0-.95-.15-1.23-.44-.28-.3-.43-.74-.43-1.33v-3.08h-1.09v-.92h1.09v-1.63h1.12v1.63h1.51v.92zM751.57 219.09c0 .44-.08.84-.23 1.21-.16.37-.37.69-.65.95-.28.27-.6.48-.98.62-.38.15-.78.22-1.21.22s-.83-.07-1.21-.22-.7-.36-.97-.62-.49-.58-.64-.95a3 3 0 0 1-.23-1.21c0-.44.08-.84.23-1.21.16-.36.37-.68.64-.94s.6-.47.97-.62c.38-.15.78-.22 1.21-.22s.83.07 1.21.22.7.35.98.62c.28.26.49.58.65.94.15.37.23.77.23 1.21zm-1.17.01c0-.27-.04-.53-.13-.78-.08-.25-.21-.46-.37-.65s-.36-.34-.59-.45c-.24-.11-.51-.17-.81-.17s-.58.06-.81.17c-.24.11-.44.26-.6.45s-.28.4-.37.65c-.08.25-.13.51-.13.78s.04.53.13.78c.08.25.21.47.37.66s.36.34.6.45c.24.11.51.17.81.17s.58-.06.81-.17c.24-.11.43-.26.59-.45s.28-.41.37-.66c.08-.25.13-.51.13-.78zM757.11 217.7c-.12-.18-.3-.34-.54-.46-.24-.12-.5-.19-.77-.19-.3 0-.56.06-.79.17-.23.11-.42.26-.58.45-.16.19-.28.41-.37.65-.08.25-.13.51-.13.78s.04.53.13.78c.08.25.21.47.37.65.16.19.36.34.59.45s.5.17.79.17c.29 0 .55-.06.79-.17.24-.11.43-.26.58-.46l.75.68c-.24.28-.54.5-.9.65-.36.16-.77.23-1.22.23-.44 0-.84-.07-1.22-.22a2.812 2.812 0 0 1-1.6-1.55c-.16-.37-.23-.78-.23-1.24 0-.45.08-.85.23-1.22.15-.37.36-.68.64-.95.27-.26.59-.47.96-.61s.77-.22 1.21-.22c.4 0 .8.08 1.19.24s.71.39.94.7l-.82.69zM760.2 218.73h.04l2.39-2.47h1.51l-2.66 2.58 2.89 3.11h-1.56l-2.57-2.95h-.04v2.95h-1.13v-9.06h1.13v5.84zM768.37 217.7c-.13-.21-.31-.38-.54-.51-.23-.13-.49-.2-.78-.2-.13 0-.26.01-.38.04s-.24.07-.34.13c-.1.06-.18.14-.24.23s-.09.21-.09.34c0 .24.11.42.32.53.22.12.54.22.97.32.27.06.52.14.76.23.23.09.43.2.61.33s.31.29.4.47c.1.18.14.4.14.65 0 .34-.06.62-.19.85s-.3.42-.51.57c-.21.15-.45.25-.73.32-.27.06-.55.1-.84.1-.43 0-.85-.08-1.26-.25-.41-.17-.75-.42-1.03-.77l.8-.68c.15.22.36.41.63.56.27.15.56.23.88.23.14 0 .28-.01.41-.04.13-.03.25-.07.36-.14.11-.06.19-.15.26-.25.06-.1.1-.24.1-.4 0-.26-.13-.46-.38-.59s-.62-.25-1.11-.36c-.19-.05-.39-.11-.58-.17-.2-.07-.37-.16-.53-.28-.16-.12-.29-.27-.39-.45-.1-.18-.15-.4-.15-.67 0-.3.06-.56.19-.79.12-.22.29-.4.49-.54s.43-.24.68-.31c.26-.07.52-.1.79-.1a3 3 0 0 1 1.18.24c.38.16.67.39.88.7l-.78.66zM772.01 221.23c0 .21-.08.39-.23.55-.15.16-.34.24-.58.24a.81.81 0 0 1-.57-.23.735.735 0 0 1-.23-.54c0-.22.08-.4.23-.56.15-.16.34-.23.58-.23.23 0 .42.08.58.23.14.14.22.32.22.54zM681.44 234.93h-1.19v-8.49h2.72c.41 0 .79.04 1.16.13.37.08.69.22.97.4.28.18.49.43.65.73.16.3.24.67.24 1.1 0 .62-.19 1.13-.58 1.51s-.88.63-1.49.73l2.37 3.9h-1.44l-2.16-3.78h-1.27v3.77zm0-4.77h1.37c.28 0 .54-.02.78-.07s.45-.13.63-.23c.18-.11.32-.25.43-.42.1-.17.16-.39.16-.64s-.05-.47-.16-.64c-.1-.17-.24-.31-.41-.41-.17-.1-.37-.18-.61-.22-.23-.04-.48-.07-.73-.07h-1.45v2.7zM692.72 232.04v.19c0 .06 0 .13-.01.19h-4.52c.01.24.06.46.16.67s.23.39.4.55c.17.15.36.28.58.36.22.09.45.13.7.13.38 0 .71-.08 1-.25.28-.17.5-.37.66-.61l.79.64c-.3.4-.66.7-1.07.89-.41.19-.87.29-1.37.29-.43 0-.83-.07-1.2-.22a2.77 2.77 0 0 1-.95-.61c-.26-.26-.47-.57-.62-.94s-.23-.78-.23-1.22c0-.44.07-.85.22-1.22s.35-.69.62-.95.58-.47.94-.62c.36-.15.75-.22 1.17-.22.42 0 .79.07 1.13.2.34.14.63.33.87.59s.42.57.55.93c.11.37.18.78.18 1.23zm-1.15-.45c-.01-.22-.05-.43-.11-.63-.07-.2-.17-.37-.3-.51-.13-.14-.3-.26-.49-.34-.2-.08-.42-.13-.69-.13-.24 0-.47.04-.68.13s-.4.2-.55.34c-.16.14-.28.31-.38.51-.1.2-.16.41-.17.63h3.37zM697.34 230.69c-.13-.21-.31-.38-.54-.51-.23-.13-.49-.2-.78-.2-.13 0-.26.01-.38.04s-.24.07-.34.13c-.1.06-.18.14-.24.23s-.09.21-.09.34c0 .24.11.42.32.53.22.12.54.22.97.32.27.06.52.14.76.23.23.09.43.2.61.33s.31.29.4.47c.1.18.14.4.14.65 0 .34-.06.62-.19.85s-.3.42-.51.57c-.21.15-.45.25-.73.32-.27.06-.55.1-.84.1-.43 0-.85-.08-1.26-.25-.41-.17-.75-.42-1.03-.77l.8-.68c.15.22.36.41.63.56.27.15.56.23.88.23.14 0 .28-.01.41-.04.13-.03.25-.07.36-.14.11-.06.19-.15.26-.25.06-.1.1-.24.1-.4 0-.26-.13-.46-.38-.59s-.62-.25-1.11-.36c-.19-.05-.39-.11-.58-.17-.2-.07-.37-.16-.53-.28-.16-.12-.29-.27-.39-.45-.1-.18-.15-.4-.15-.67 0-.3.06-.56.19-.79.12-.22.29-.4.49-.54s.43-.24.68-.31c.26-.07.52-.1.79-.1a3 3 0 0 1 1.18.24c.38.16.67.39.88.7l-.78.66zM703.6 234.93c-.02-.14-.03-.31-.04-.49s-.01-.33-.01-.45h-.02c-.14.3-.39.56-.73.77-.34.21-.72.32-1.13.32-.37 0-.69-.06-.95-.18-.27-.12-.49-.29-.66-.5s-.3-.46-.38-.74a3.26 3.26 0 0 1-.13-.9v-3.52h1.13v3.14c0 .23.02.45.05.67.04.21.1.4.2.56.1.16.23.29.4.38.17.1.38.14.65.14.46 0 .82-.17 1.1-.51.28-.34.42-.79.42-1.36v-3.02h1.13v4.46a13.52 13.52 0 0 0 .05 1.23h-1.08zM707.73 234.93h-1.13v-9.06h1.13v9.06zM712.48 230.17h-1.51v2.95c0 .34.06.59.19.74s.33.22.61.22c.1 0 .22-.01.34-.03.12-.02.23-.06.32-.1l.04.92a2.962 2.962 0 0 1-.96.15c-.54 0-.95-.15-1.23-.44-.28-.3-.43-.74-.43-1.33v-3.08h-1.09v-.92h1.09v-1.63h1.12v1.63h1.51v.92zM716.71 230.69c-.13-.21-.31-.38-.54-.51-.23-.13-.49-.2-.78-.2-.13 0-.26.01-.38.04s-.24.07-.34.13c-.1.06-.18.14-.24.23s-.09.21-.09.34c0 .24.11.42.32.53.22.12.54.22.97.32.27.06.52.14.76.23.23.09.43.2.61.33s.31.29.4.47c.1.18.14.4.14.65 0 .34-.06.62-.19.85s-.3.42-.51.57c-.21.15-.45.25-.73.32-.27.06-.55.1-.84.1-.43 0-.85-.08-1.26-.25-.41-.17-.75-.42-1.03-.77l.8-.68c.15.22.36.41.63.56.27.15.56.23.88.23.14 0 .28-.01.41-.04.13-.03.25-.07.36-.14.11-.06.19-.15.26-.25.06-.1.1-.24.1-.4 0-.26-.13-.46-.38-.59s-.62-.25-1.11-.36c-.19-.05-.39-.11-.58-.17-.2-.07-.37-.16-.53-.28-.16-.12-.29-.27-.39-.45-.1-.18-.15-.4-.15-.67 0-.3.06-.56.19-.79.12-.22.29-.4.49-.54s.43-.24.68-.31c.26-.07.52-.1.79-.1a3 3 0 0 1 1.18.24c.38.16.67.39.88.7l-.78.66zM723.75 229.41c.32-.21.69-.32 1.12-.32.38 0 .73.09 1.04.26.31.18.55.47.73.88.19-.37.46-.65.8-.85.34-.2.72-.29 1.13-.29.37 0 .68.06.95.19.26.12.48.29.66.5s.31.45.39.73c.08.28.13.58.13.9v3.52h-1.13v-3.15c0-.23-.02-.45-.06-.66s-.11-.39-.2-.55c-.1-.16-.22-.29-.38-.38-.16-.1-.36-.14-.61-.14-.26 0-.48.05-.66.16-.18.11-.33.25-.45.42s-.2.37-.25.58-.08.44-.08.66v3.07h-1.13v-3.38c0-.22-.02-.43-.06-.61s-.11-.34-.2-.47c-.1-.13-.22-.24-.37-.31-.15-.08-.34-.11-.56-.11-.42 0-.76.17-1.04.51s-.41.79-.41 1.36v3.02h-1.13v-4.46c0-.15 0-.35-.01-.59s-.02-.45-.04-.64H723c.02.14.03.31.04.49.01.18.01.33.01.45h.04c.12-.32.34-.58.66-.79zM736.13 231.25c0-.42-.13-.74-.38-.94-.26-.2-.6-.31-1.02-.31-.32 0-.62.06-.91.19-.28.12-.52.28-.71.47l-.6-.72c.28-.26.62-.47 1.03-.62.4-.15.84-.23 1.3-.23.41 0 .76.06 1.06.17.3.12.54.27.74.47.19.2.33.44.43.71.1.27.14.56.14.88v2.48c0 .19.01.39.02.61.01.21.03.39.07.52h-1.02c-.06-.27-.1-.54-.1-.82h-.04c-.21.3-.47.54-.79.71-.32.17-.69.25-1.12.25-.22 0-.46-.03-.7-.09-.24-.06-.47-.16-.67-.29-.2-.14-.37-.32-.5-.54s-.2-.5-.2-.83c0-.43.12-.77.35-1.03.23-.25.54-.44.91-.58.38-.13.8-.22 1.27-.26s.95-.06 1.43-.06v-.14zm-.28.97c-.28 0-.57.01-.87.04-.3.02-.57.07-.82.14-.24.07-.45.18-.61.32-.16.14-.24.34-.24.58 0 .17.03.31.1.42.07.11.16.2.27.28.11.07.24.12.37.15s.28.04.42.04c.53 0 .93-.16 1.22-.47.28-.32.43-.71.43-1.19v-.3h-.27zM741.25 233.71h.02l1.57-4.46h1.2l-2.76 7.03c-.1.24-.2.45-.31.64-.11.19-.24.35-.4.48-.15.13-.33.23-.53.31-.2.07-.45.11-.72.11-.12 0-.24-.01-.37-.02s-.25-.03-.38-.07l.11-1c.19.06.38.1.56.1.3 0 .52-.08.66-.25.14-.16.28-.4.4-.7l.36-.95-2.43-5.68h1.26l1.76 4.46zM750.8 234.93h-1.22l-2.31-5.68h1.25l1.67 4.47h.02l1.68-4.47h1.2l-2.29 5.68zM757.71 231.25c0-.42-.13-.74-.38-.94-.26-.2-.6-.31-1.02-.31-.32 0-.62.06-.91.19-.28.12-.52.28-.71.47l-.6-.72c.28-.26.62-.47 1.03-.62.4-.15.84-.23 1.3-.23.41 0 .76.06 1.06.17.3.12.54.27.74.47.19.2.33.44.43.71.1.27.14.56.14.88v2.48c0 .19.01.39.02.61.01.21.03.39.07.52h-1.02c-.06-.27-.1-.54-.1-.82h-.04c-.21.3-.47.54-.79.71-.32.17-.69.25-1.12.25-.22 0-.46-.03-.7-.09-.24-.06-.47-.16-.67-.29-.2-.14-.37-.32-.5-.54s-.2-.5-.2-.83c0-.43.12-.77.35-1.03.23-.25.54-.44.91-.58.38-.13.8-.22 1.27-.26s.95-.06 1.43-.06v-.14zm-.28.97c-.28 0-.57.01-.87.04-.3.02-.57.07-.82.14-.24.07-.45.18-.61.32-.16.14-.24.34-.24.58 0 .17.03.31.1.42.07.11.16.2.27.28.11.07.24.12.37.15s.28.04.42.04c.53 0 .93-.16 1.22-.47.28-.32.43-.71.43-1.19v-.3h-.27zM760.66 229.89c-.01-.24-.02-.45-.04-.64h1.07a8.218 8.218 0 0 1 .05.96h.04c.16-.34.39-.61.7-.81.31-.2.65-.31 1.04-.31.18 0 .32.02.44.05l-.05 1.04a2.12 2.12 0 0 0-.52-.06c-.27 0-.51.05-.71.15-.2.1-.37.23-.5.4s-.23.36-.29.58c-.06.22-.1.45-.1.69v2.99h-1.13v-4.46c.01-.15.01-.35 0-.58zM767.17 233.71h.02l1.57-4.46h1.2l-2.76 7.03c-.1.24-.2.45-.31.64-.11.19-.24.35-.4.48-.15.13-.33.23-.53.31-.2.07-.45.11-.72.11-.12 0-.24-.01-.37-.02s-.25-.03-.38-.07l.11-1c.19.06.38.1.56.1.3 0 .52-.08.66-.25.14-.16.28-.4.4-.7l.36-.95-2.43-5.68h1.26l1.76 4.46zM772.01 234.21c0 .21-.08.39-.23.55-.15.16-.34.24-.58.24a.81.81 0 0 1-.57-.23.735.735 0 0 1-.23-.54c0-.22.08-.4.23-.56.15-.16.34-.23.58-.23.23 0 .42.08.58.23.14.14.22.33.22.54z"/></svg>