<svg id="Layer_1" xmlns="http://www.w3.org/2000/svg" viewBox="0 0 970 250"><style>.st0{fill:#fff}</style><path class="st0" d="M72.95 60.37c-2.67 0-3.95-1.93-3.95-3.79 0-2.14 1.55-3.87 3.99-3.87.83 0 1.69.25 2.37.82l-.75 1.05c-.47-.36-.96-.49-1.57-.49-1.3 0-2.26.9-2.26 2.44 0 1.41.89 2.53 2.31 2.53.6 0 1.13-.18 1.6-.58l.69 1.05c-.67.57-1.58.84-2.43.84M79.47 60.37c-2.23 0-3.87-1.68-3.87-3.87 0-2.25 1.79-3.79 3.87-3.79s3.89 1.53 3.89 3.78c0 2.2-1.64 3.88-3.89 3.88m2.1-3.87c0-1.35-.66-2.52-2.1-2.52-1.4 0-2.1 1.17-2.1 2.5 0 1.38.65 2.61 2.1 2.61 1.45 0 2.1-1.21 2.1-2.61v.02zM87.88 60.37c-2.23 0-3.87-1.68-3.87-3.87 0-2.25 1.79-3.79 3.87-3.79s3.89 1.53 3.89 3.78c0 2.2-1.64 3.88-3.89 3.88m2.1-3.87c0-1.35-.66-2.52-2.09-2.52-1.4 0-2.1 1.17-2.1 2.5 0 1.38.65 2.61 2.1 2.61 1.45 0 2.09-1.21 2.09-2.61v.02zM92.65 60.19V49.46l1.67.91v9.82zM98.18 60.41c-1.88 0-2.79-.9-2.79-.9l.75-.97s.86.57 1.99.57c.54 0 1-.37 1-.75 0-.37-.17-.69-.66-.94-.5-.25-1.06-.52-1.49-.73-.44-.21-1.4-.85-1.4-2.11 0-1.27 1.3-1.98 2.62-1.98 1.27 0 2.23.82 2.23.82l-.65.99s-.72-.51-1.52-.51-.96.51-.96.72c0 .21.08.54.59.81s1.04.55 1.79.97c.75.42 1.18 1.14 1.18 1.95s-.8 2.06-2.68 2.06M105.37 60.37c-2.67 0-3.95-1.93-3.95-3.79 0-2.14 1.55-3.87 3.99-3.87.83 0 1.69.25 2.37.82l-.75 1.05c-.47-.36-.96-.49-1.57-.49-1.3 0-2.26.9-2.26 2.44 0 1.41.89 2.53 2.31 2.53.6 0 1.13-.18 1.6-.58l.69 1.05c-.67.57-1.57.84-2.43.84M113.61 59.33s-.84 1.03-2.44 1.03c-1.88 0-2.8-1.36-2.8-2.74v-4.75h1.67v4.68c0 .81.63 1.48 1.61 1.48.86 0 1.7-1.02 1.7-1.02v-5.14h1.67v7.3l-1.41-.84zM116.52 60.19V49.46l1.67.91v9.82zM123.73 60.37c-1.48 0-2.32-.82-2.32-.82v3.64h-1.69V52.72l1.69.88s.9-.91 2.41-.91c1.58 0 3.56 1.21 3.56 3.93-.01 2.71-1.95 3.75-3.65 3.75m-.11-6.39c-1.43 0-2.26 1.33-2.26 1.33v2.76s.95 1.06 2.32 1.06c1.6 0 1.94-1.9 1.94-2.56.01-.65-.14-2.59-2-2.59M131.78 60.38h-1.06c-1.33 0-1.78-1.27-1.78-2.11v-4.3h-1.33v-1.09h1.33v-3.22h1.66v3.22h1.7v1.09h-1.69v3.9c0 .43-.08 1.12.66 1.12h1.21l-.7 1.39zM134.46 51.61c-.6 0-1.1-.49-1.1-1.09a1.101 1.101 0 0 1 2.2 0c0 .6-.5 1.09-1.1 1.09m-.83 1.26h1.64v7.31h-1.64v-7.31zM141.9 60.19v-4.68c0-.81-.63-1.48-1.61-1.48-.86 0-1.82 1.02-1.82 1.02v5.14h-1.67v-7.3l1.42.84s.96-1.03 2.56-1.03c1.88 0 2.8 1.36 2.8 2.74v4.75h-1.68zM148.69 63.59c-.26 0-2.22-.03-2.22-.03l.03-1.33h1.65c1.6 0 2.5-.85 2.5-2.02v-.66s-.87.82-2.35.82c-1.7 0-3.65-1.03-3.65-3.75 0-2.71 1.97-3.93 3.56-3.93 1.51 0 2.41.91 2.41.91l1.69-.84v7.27c-.01 1.97-1.32 3.56-3.62 3.56m1.97-8.27s-.83-1.33-2.26-1.33c-1.85 0-2 1.93-2 2.59 0 .66.35 2.56 1.94 2.56 1.37 0 2.32-1.06 2.32-1.06v-2.76zM52.06 56.86l-3.08 3.06 3.77 1.41 4.5-4.47zM57.69 50.64l-3.06-3.05-1.44 3.73 4.5 4.47zM63.26 51.77l4.11 1.06-3.42 3.41h-5.19zM62.99 61.95l-1.18 3.99-6.4-6.37L58 56.99zM154.8 53.37c0 .43-.35.78-.8.78-.44 0-.8-.34-.8-.78 0-.43.35-.77.8-.77.45 0 .8.34.8.77zm-1.39 0c0 .34.26.62.61.62.34 0 .59-.27.59-.61 0-.34-.26-.62-.6-.62-.34-.01-.6.27-.6.61zm.48.4h-.18V53c.07-.01.17-.02.3-.02.15 0 .21.02.27.06.05.03.08.09.08.16 0 .09-.07.15-.16.18v.01c.08.02.11.08.14.19.02.12.04.16.06.19h-.19a.593.593 0 0 1-.06-.19c-.01-.08-.06-.12-.16-.12h-.08v.31zm0-.43h.08c.1 0 .18-.03.18-.11 0-.07-.05-.12-.17-.12-.05 0-.08 0-.1.01v.22z"/><g><path class="st0" d="M54.02 65.73v-4.78l.94-.94 2.72 2.71v.91zM53.58 52.59h-3.97l1.27 3.65h6.37zM66.96 60.51h-4.53l-3.67-3.65h6.36zM58.32 49.47l3.66-2.17v4.85l-3.66 3.64zM64.77 62.21c0 .3-.24.54-.55.54a.54.54 0 0 1-.55-.54c0-.3.25-.53.56-.53.3-.01.54.23.54.53zm-.97 0c0 .24.18.43.42.43.23 0 .41-.19.41-.42 0-.24-.18-.43-.42-.43-.23-.01-.41.18-.41.42zm.33.27h-.12v-.53c.05-.01.12-.02.21-.02.1 0 .15.02.18.04s.06.06.06.11c0 .07-.05.11-.11.13v.01c.05.02.08.06.09.13.02.08.03.11.04.13h-.13c-.02-.02-.03-.07-.04-.13-.01-.06-.04-.08-.11-.08h-.06v.21zm.01-.3h.06c.07 0 .12-.02.12-.08 0-.05-.04-.08-.11-.08-.03 0-.06 0-.07.01v.15z"/></g><g><path class="st0" d="M34.72 53.09h.66v3.65h.02c.11-.16.23-.3.38-.41a2.24 2.24 0 0 1 .96-.44 2.749 2.749 0 0 1 1.5.13c.3.12.57.29.79.51.22.22.39.48.52.78.12.3.19.62.19.98s-.06.68-.19.98a2.32 2.32 0 0 1-1.31 1.29 2.711 2.711 0 0 1-1.5.13 2.24 2.24 0 0 1-.96-.44c-.15-.11-.27-.25-.38-.41h-.02v.78h-.66v-7.53zM39 58.3c0-.26-.04-.5-.13-.73-.08-.23-.2-.42-.36-.59-.15-.17-.34-.3-.56-.39-.22-.1-.46-.14-.74-.14-.27 0-.52.05-.75.14-.23.1-.42.23-.59.39-.17.17-.3.36-.39.59a1.976 1.976 0 0 0 0 1.46c.09.23.22.42.39.59.17.17.36.3.59.39.23.1.48.14.75.14s.52-.05.74-.14c.22-.1.4-.23.56-.39A1.945 1.945 0 0 0 39 58.3zM42.59 59.82l1.43-3.86h.8l-2.35 5.89c-.14.36-.32.64-.54.86-.22.21-.53.32-.94.32-.1 0-.2 0-.31-.01-.1-.01-.21-.03-.31-.06l.07-.64c.14.07.31.11.5.11.23 0 .42-.07.55-.22.13-.15.25-.35.35-.62l.34-.9-1.93-4.73h.83l1.51 3.86z"/></g><g><path class="st0" d="M47.79 38.59c-1.44 1.25-3.22 1.87-5.35 1.87-2.77 0-4.95-.9-6.55-2.69-1.44-1.62-2.16-3.57-2.16-5.86 0-2.45.81-4.5 2.43-6.16 1.62-1.66 3.76-2.49 6.41-2.49 2.04 0 3.77.62 5.18 1.86l-1.66 2.33c-.95-.72-2.1-1.08-3.46-1.08-1.46 0-2.65.49-3.57 1.48-.92.99-1.38 2.32-1.38 4 0 1.64.46 2.99 1.38 4.07.92 1.08 2.14 1.61 3.67 1.61 1.33 0 2.51-.43 3.56-1.28l1.5 2.34zM65.07 31.74c0 2.49-.81 4.57-2.44 6.23-1.63 1.66-3.67 2.49-6.13 2.49s-4.5-.83-6.11-2.49c-1.62-1.66-2.43-3.74-2.43-6.23 0-2.45.85-4.49 2.56-6.13 1.64-1.57 3.63-2.36 5.98-2.36 2.35 0 4.35.79 6.02 2.36 1.7 1.64 2.55 3.68 2.55 6.13zm-3.96 0c0-1.59-.38-2.9-1.13-3.94-.84-1.12-2.01-1.68-3.49-1.68-1.48 0-2.64.56-3.46 1.68-.75 1.03-1.13 2.34-1.13 3.94 0 1.68.37 3.05 1.1 4.1.82 1.17 1.98 1.75 3.49 1.75 1.51 0 2.68-.58 3.52-1.75.74-1.05 1.1-2.42 1.1-4.1zM83.45 31.74c0 2.49-.81 4.57-2.44 6.23-1.63 1.66-3.67 2.49-6.13 2.49s-4.5-.83-6.11-2.49c-1.62-1.66-2.43-3.74-2.43-6.23 0-2.45.85-4.49 2.56-6.13 1.64-1.57 3.63-2.36 5.98-2.36 2.35 0 4.35.79 6.02 2.36 1.69 1.64 2.55 3.68 2.55 6.13zm-3.96 0c0-1.59-.38-2.9-1.13-3.94-.84-1.12-2.01-1.68-3.49-1.68-1.48 0-2.64.56-3.46 1.68-.75 1.03-1.13 2.34-1.13 3.94 0 1.68.37 3.05 1.1 4.1.82 1.17 1.98 1.75 3.49 1.75 1.51 0 2.68-.58 3.52-1.75.73-1.05 1.1-2.42 1.1-4.1zM89.09 40.09H85.4V15.93l3.69 2.06v22.1zM117.28 31.74c0 2.49-.81 4.57-2.44 6.23-1.63 1.66-3.67 2.49-6.13 2.49s-4.5-.83-6.11-2.49c-1.62-1.66-2.43-3.74-2.43-6.23 0-2.45.85-4.49 2.56-6.13 1.64-1.57 3.63-2.36 5.98-2.36 2.35 0 4.35.79 6.02 2.36 1.69 1.64 2.55 3.68 2.55 6.13zm-3.96 0c0-1.59-.38-2.9-1.13-3.94-.84-1.12-2.01-1.68-3.49-1.68s-2.64.56-3.46 1.68c-.75 1.03-1.13 2.34-1.13 3.94 0 1.68.37 3.05 1.1 4.1.82 1.17 1.98 1.75 3.49 1.75 1.51 0 2.68-.58 3.52-1.75.74-1.05 1.1-2.42 1.1-4.1zM134.06 40.09h-3.69v-10.5c0-.94-.33-1.73-.98-2.37-.65-.64-1.51-.96-2.57-.96-1.17 0-2.51.76-4.02 2.29v11.54h-3.69V23.66l3.12 1.89c1.59-1.55 3.48-2.33 5.65-2.33 1.95 0 3.5.64 4.65 1.92 1.02 1.15 1.53 2.56 1.53 4.25v10.7zM152.07 32.63h-11.8c.44 3.35 2.02 5.03 4.72 5.03 1.66 0 3.02-.47 4.09-1.42l1.46 2.4c-1.42 1.3-3.3 1.96-5.65 1.96-3.26 0-5.64-1.23-7.15-3.68-.93-1.51-1.4-3.06-1.4-4.66 0-1.96.38-3.66 1.13-5.09 1.35-2.63 3.76-3.95 7.21-3.95 3.41 0 5.66 1.56 6.75 4.69.47 1.33.68 2.9.64 4.72zm-3.72-2.42c-.13-2.9-1.37-4.35-3.72-4.35-2.59 0-4.02 1.45-4.29 4.35h8.01zM97.07 37.39c-.71 0-1.15-.3-1.33-.91-.09-.25-.13-.79-.13-1.62v-6.85h2.57v-2.46h-2.57v-3.92l-3.69-2.06v16.2c0 1.17.29 2.19.86 3.07.71 1.12 1.73 1.69 3.06 1.69h2.33l1.56-3.14h-2.66z"/><g><path class="st0" d="M156.3 24.98c0 .97-.79 1.74-1.79 1.74s-1.8-.77-1.8-1.74.8-1.73 1.81-1.73c1 0 1.78.76 1.78 1.73zm-3.14 0c0 .77.58 1.38 1.36 1.38.75.01 1.33-.61 1.33-1.38 0-.77-.57-1.4-1.35-1.4-.75.01-1.34.64-1.34 1.4zm1.08.9h-.4v-1.73c.16-.02.38-.05.67-.05.33 0 .48.05.6.14.11.07.18.2.18.37 0 .21-.16.35-.36.41v.02c.17.05.26.19.31.42.05.26.1.36.13.42h-.43c-.05-.06-.09-.21-.14-.42-.03-.18-.14-.26-.36-.26h-.19v.68zm.01-.97h.19c.22 0 .4-.07.4-.25 0-.16-.12-.26-.37-.26-.11 0-.18.01-.22.02v.49z"/></g></g></svg>