<svg id="Layer_1" xmlns="http://www.w3.org/2000/svg" viewBox="0 0 970 250"><style>.st0{fill:#fff}</style><path class="st0" d="M60 35.3c0 .44-.35.79-.8.79-.45 0-.8-.35-.8-.79 0-.44.36-.78.81-.78.44 0 .79.34.79.78zm-1.4 0c0 .35.26.62.61.62.34 0 .6-.28.6-.62 0-.35-.26-.63-.61-.63-.34.01-.6.29-.6.63zm.48.4h-.18v-.78c.07-.01.17-.02.3-.02.15 0 .21.02.27.06.05.03.08.09.08.17 0 .1-.07.16-.16.19v.01c.08.02.11.09.14.19.02.12.04.16.06.19h-.19a.702.702 0 0 1-.06-.19c-.01-.08-.06-.12-.16-.12h-.09v.3zm0-.43h.09c.1 0 .18-.03.18-.11 0-.07-.05-.12-.17-.12-.05 0-.08 0-.1.01v.22zM71.7 32.58c-3.89 0-5.76-2.84-5.76-5.56 0-3.14 2.26-5.67 5.83-5.67 1.21 0 2.46.37 3.45 1.21l-1.1 1.54c-.68-.53-1.41-.72-2.28-.72-1.89 0-3.3 1.32-3.3 3.58 0 2.07 1.3 3.71 3.36 3.71.88 0 1.65-.27 2.33-.86l1.01 1.54c-.97.84-2.29 1.23-3.54 1.23M81.22 32.58c-3.25 0-5.65-2.46-5.65-5.67 0-3.3 2.62-5.56 5.65-5.56 3.03 0 5.67 2.24 5.67 5.54 0 3.23-2.4 5.69-5.67 5.69m3.05-5.67c0-1.98-.97-3.69-3.06-3.69-2.05 0-3.06 1.71-3.06 3.67 0 2.02.95 3.83 3.06 3.83 2.11 0 3.06-1.78 3.06-3.83v.02zM93.48 32.58c-3.25 0-5.65-2.46-5.65-5.67 0-3.3 2.62-5.56 5.65-5.56 3.03 0 5.67 2.24 5.67 5.54 0 3.23-2.39 5.69-5.67 5.69m3.06-5.67c0-1.98-.97-3.69-3.06-3.69-2.05 0-3.06 1.71-3.06 3.67 0 2.02.95 3.83 3.06 3.83 2.11 0 3.06-1.78 3.06-3.83v.02zM100.43 32.32V16.58l2.44 1.34v14.4zM108.5 32.65c-2.75 0-4.07-1.32-4.07-1.32l1.1-1.43s1.25.84 2.9.84c.79 0 1.45-.55 1.45-1.1s-.24-1.01-.97-1.38c-.73-.38-1.54-.77-2.18-1.08-.64-.31-2.04-1.25-2.04-3.1 0-1.87 1.89-2.9 3.82-2.9 1.85 0 3.25 1.21 3.25 1.21l-.95 1.45s-1.06-.75-2.22-.75c-1.16 0-1.41.75-1.41 1.05 0 .31.11.79.86 1.19.75.4 1.52.81 2.62 1.43 1.1.61 1.71 1.67 1.71 2.86.02 1.18-1.12 3.03-3.87 3.03M118.98 32.58c-3.89 0-5.76-2.84-5.76-5.56 0-3.14 2.26-5.67 5.83-5.67 1.21 0 2.46.37 3.45 1.21l-1.1 1.54c-.68-.53-1.41-.72-2.29-.72-1.89 0-3.3 1.32-3.3 3.58 0 2.07 1.3 3.71 3.36 3.71.88 0 1.65-.27 2.33-.86l1.01 1.54c-.95.84-2.27 1.23-3.53 1.23M131.01 31.07s-1.23 1.52-3.56 1.52c-2.75 0-4.09-2-4.09-4.02V21.6h2.44v6.86c0 1.19.93 2.17 2.35 2.17 1.25 0 2.48-1.49 2.48-1.49V21.6h2.44v10.7l-2.06-1.23zM135.25 32.32V16.58l2.44 1.34v14.4zM145.76 32.58c-2.15 0-3.39-1.21-3.39-1.21v5.34h-2.46V21.37l2.46 1.29s1.32-1.34 3.52-1.34c2.31 0 5.19 1.78 5.19 5.76 0 3.99-2.83 5.5-5.32 5.5m-.15-9.36c-2.09 0-3.3 1.96-3.3 1.96v4.04s1.39 1.56 3.39 1.56c2.33 0 2.84-2.79 2.84-3.76-.01-.97-.23-3.8-2.93-3.8M157.5 32.61h-1.54c-1.94 0-2.59-1.87-2.59-3.1V23.2h-1.94v-1.6h1.94v-4.73h2.42v4.73h2.48v1.6h-2.46v5.72c0 .64-.11 1.65.97 1.65h1.76l-1.04 2.04zM161.41 19.74c-.88 0-1.6-.72-1.6-1.6 0-.88.73-1.6 1.6-1.6.88 0 1.61.72 1.61 1.6 0 .88-.73 1.6-1.61 1.6m-1.21 1.85h2.4v10.73h-2.4V21.59zM172.27 32.32v-6.86c0-1.19-.92-2.17-2.35-2.17-1.26 0-2.66 1.49-2.66 1.49v7.54h-2.44V21.61l2.07 1.23s1.41-1.52 3.74-1.52c2.75 0 4.09 2 4.09 4.02v6.97h-2.45zM182.17 37.31c-.37 0-3.24-.04-3.24-.04l.04-1.96h2.4c2.33 0 3.65-1.25 3.65-2.97v-.97s-1.27 1.21-3.43 1.21c-2.48 0-5.32-1.52-5.32-5.5s2.88-5.76 5.19-5.76c2.2 0 3.52 1.34 3.52 1.34l2.46-1.23V32.1c0 2.88-1.91 5.21-5.27 5.21m2.88-12.13s-1.21-1.96-3.3-1.96c-2.7 0-2.92 2.83-2.92 3.8 0 .97.5 3.76 2.84 3.76 2 0 3.39-1.56 3.39-1.56v-4.04zM44.09 40.46v-7.02l1.37-1.37 3.98 3.97v1.33zM41.23 27.44l-4.5 4.49 5.5 2.07 6.57-6.56zM43.44 21.17h-5.78l1.85 5.35h9.29zM49.44 18.31l-4.47-4.47-2.09 5.48 6.56 6.56zM62.97 32.79h-6.62l-5.34-5.35h9.27zM57.57 19.97l6 1.56-5 5h-7.56zM50.36 16.6l5.35-3.18v7.11l-5.35 5.35zM57.17 34.91l-1.72 5.85-9.34-9.34 3.79-3.79zM191.09 22.32c0 .63-.51 1.14-1.16 1.14-.65 0-1.17-.5-1.17-1.14 0-.64.52-1.13 1.17-1.13.65 0 1.16.49 1.16 1.13zm-2.04 0c0 .5.38.9.89.9.49.01.86-.4.86-.9s-.37-.91-.88-.91c-.49.01-.87.41-.87.91zm.7.59h-.26v-1.13c.1-.01.25-.03.43-.03.22 0 .31.03.39.09.07.05.12.13.12.24 0 .14-.1.23-.23.27v.01c.11.03.16.13.2.28.03.17.06.24.08.28h-.28c-.03-.04-.05-.14-.09-.28-.02-.12-.09-.17-.23-.17h-.12v.44zm.01-.64h.12c.15 0 .26-.05.26-.16 0-.1-.08-.17-.24-.17-.07 0-.12.01-.15.01v.32z"/><g><path class="st0" d="M197.79 20.54h7.61v1.78h-5.56v2.92h5.27v1.72h-5.27v3.24h5.86v1.82h-7.9V20.54zM211.58 20.54h2.04v9.67h4.88v1.82h-6.93V20.54zM223.76 20.54h2.04v11.48h-2.04V20.54zM234.54 22.32h-3.52v-1.78h9.08v1.78h-3.52v9.7h-2.04v-9.7zM245.32 20.54h7.61v1.78h-5.56v2.92h5.27v1.72h-5.27v3.24h5.86v1.82h-7.9V20.54z"/></g></svg>