<?xml version="1.0" encoding="utf-8"?>
<!-- Generator: Adobe Illustrator 25.4.1, SVG Export Plug-In . SVG Version: 6.00 Build 0)  -->
<svg version="1.1" id="Layer_1" xmlns="http://www.w3.org/2000/svg" xmlns:xlink="http://www.w3.org/1999/xlink" x="0px" y="0px"
	 viewBox="0 0 970 250" style="enable-background:new 0 0 970 250;" xml:space="preserve">
<style type="text/css">
	.st0{fill:#B7D7E8;}
	.st1{fill:#00ABE6;}
</style>
<g>
	<path class="st0" d="M47.14,80.96v21.35c0,3.46-1.87,5.42-5.14,5.42c-3.23,0-5.1-1.96-5.1-5.42v-3.05h2.59v2.55
		c0,2.55,0.73,3.55,2.46,3.55c1.73,0,2.5-1,2.5-3.55v-8.65h-0.09c-0.77,1.18-1.91,1.78-3.46,1.78c-2.59,0-4.1-1.78-4.1-4.82v-9.15
		c0-3.55,1.87-5.55,5.14-5.55C45.23,75.41,47.14,77.41,47.14,80.96z M39.5,81.33v8.51c0,1.87,0.68,2.73,2.09,2.73
		c1.77,0,2.87-1.46,2.87-3.91v-7.33c0-2.55-0.73-3.55-2.5-3.55C40.18,77.78,39.5,78.78,39.5,81.33z"/>
	<path class="st0" d="M56.43,102.04V81.1c0-3.64,1.96-5.69,5.28-5.69c3.32,0,5.28,2.05,5.28,5.69v20.94c0,3.64-1.96,5.69-5.28,5.69
		C58.39,107.73,56.43,105.68,56.43,102.04z M64.26,101.58V81.55c0-2.64-0.73-3.69-2.55-3.69c-1.87,0-2.55,1.05-2.55,3.69v20.03
		c0,2.64,0.68,3.69,2.55,3.69C63.53,105.27,64.26,104.22,64.26,101.58z"/>
	<path class="st0" d="M70.45,102.22V75.86h2.73v25.85c0,2.55,0.64,3.55,2.46,3.55c1.82,0,2.46-1,2.46-3.55V75.86h2.64v26.35
		c0,3.5-1.91,5.51-5.14,5.51C72.36,107.73,70.45,105.72,70.45,102.22z"/>
	<path class="st0" d="M87.11,78.23h-3.82v-2.37h10.38v2.37h-3.82v29.04h-2.73V78.23z"/>
	<path class="st0" d="M102.03,102.04V81.1c0-3.64,1.96-5.69,5.28-5.69c3.32,0,5.28,2.05,5.28,5.69v20.94c0,3.64-1.96,5.69-5.28,5.69
		C103.99,107.73,102.03,105.68,102.03,102.04z M109.86,101.58V81.55c0-2.64-0.73-3.69-2.55-3.69c-1.87,0-2.55,1.05-2.55,3.69v20.03
		c0,2.64,0.68,3.69,2.55,3.69C109.13,105.27,109.86,104.22,109.86,101.58z"/>
	<path class="st0" d="M116.14,75.86h9.01v2.37h-6.28v11.42h5.46v2.37h-5.46v15.25h-2.73V75.86z"/>
	<path class="st0" d="M136.62,78.96l-4.01,2.46v-2.55l5.01-3.09h1.68v31.5h-2.69V78.96z"/>
	<path class="st0" d="M142.86,102.17V80.96c0-3.55,1.87-5.55,5.14-5.55s5.14,2,5.14,5.55v21.21c0,3.55-1.87,5.55-5.14,5.55
		S142.86,105.72,142.86,102.17z M150.46,101.81V81.33c0-2.55-0.68-3.55-2.46-3.55c-1.78,0-2.46,1-2.46,3.55v20.48
		c0,2.55,0.68,3.55,2.46,3.55C149.78,105.36,150.46,104.36,150.46,101.81z"/>
	<path class="st1" d="M162.61,75.86h5.19c3.64,0,5.37,1.87,5.37,5.69v4.92c0,3.82-1.73,5.69-5.37,5.69h-2.46v15.11h-2.73V75.86z
		 M167.48,89.79c2.28,0,2.96-0.86,2.96-3.78v-4.01c0-2.91-0.68-3.78-2.96-3.78h-2.14v11.56H167.48z"/>
	<path class="st1" d="M177.68,75.86h3.6l3.96,31.41h-2.78l-0.91-7.78h-4.28l-0.91,7.78h-2.64L177.68,75.86z M181.27,97.12
		l-1.82-16.93h-0.09l-1.82,16.93H181.27z"/>
	<path class="st1" d="M189.1,78.23h-3.82v-2.37h10.38v2.37h-3.82v29.04h-2.73V78.23z"/>
	<path class="st1" d="M198.3,75.86h2.73v31.41h-2.73V75.86z"/>
	<path class="st1" d="M204.76,75.86h9.01v2.37h-6.28V89.2h5.46v2.37h-5.46v13.34h6.28v2.37h-9.01V75.86z"/>
	<path class="st1" d="M216.59,75.86h3.55l4.96,22.99h0.09V75.86h2.46v31.41h-2.96l-5.55-25.9h-0.09v25.9h-2.46V75.86z"/>
	<path class="st1" d="M234.12,78.23h-3.82v-2.37h10.38v2.37h-3.82v29.04h-2.73V78.23z"/>
	<path class="st1" d="M242.81,102.13v-5.51h2.64v5.01c0,2.59,0.73,3.64,2.55,3.64c1.87,0,2.59-1.05,2.59-3.64v-4.73
		c0-2.14-0.59-3.19-2.14-4.19l-2.41-1.55c-2.32-1.5-3.23-3.23-3.23-6.28v-4.05c0-3.46,1.87-5.42,5.1-5.42c3.23,0,5.1,1.96,5.1,5.42
		v4.05h-2.64v-3.6c0-2.46-0.68-3.41-2.41-3.41c-1.73,0-2.41,0.96-2.41,3.41v3.41c0,2.14,0.59,3.19,2.14,4.19l2.41,1.55
		c2.32,1.5,3.23,3.23,3.23,6.28v5.42c0,3.6-1.96,5.6-5.28,5.6S242.81,105.72,242.81,102.13z"/>
	<path class="st1" d="M262.38,75.86h5.05c3.64,0,5.37,1.87,5.37,5.69v4.01c0,2.55-0.82,4.1-2.46,4.82v0.09
		c1.64,0.73,2.46,2.28,2.46,4.87v11.93h-2.73V95.53c0-2.91-0.82-3.78-3.41-3.78h-1.55v15.52h-2.73V75.86z M267.11,89.38
		c2.28,0,2.96-0.86,2.96-3.78v-3.6c0-2.91-0.68-3.78-2.96-3.78h-2v11.15H267.11z"/>
	<path class="st1" d="M276.31,75.86h9.01v2.37h-6.28V89.2h5.46v2.37h-5.46v13.34h6.28v2.37h-9.01V75.86z"/>
	<path class="st1" d="M288.14,75.86h5.19c3.64,0,5.37,1.87,5.37,5.69v4.92c0,3.82-1.73,5.69-5.37,5.69h-2.46v15.11h-2.73V75.86z
		 M293.01,89.79c2.28,0,2.96-0.86,2.96-3.78v-4.01c0-2.91-0.68-3.78-2.96-3.78h-2.14v11.56H293.01z"/>
	<path class="st1" d="M301.48,102.04V81.1c0-3.64,1.96-5.69,5.28-5.69s5.28,2.05,5.28,5.69v20.94c0,3.64-1.96,5.69-5.28,5.69
		S301.48,105.68,301.48,102.04z M309.31,101.58V81.55c0-2.64-0.73-3.69-2.55-3.69c-1.87,0-2.55,1.05-2.55,3.69v20.03
		c0,2.64,0.68,3.69,2.55,3.69C308.58,105.27,309.31,104.22,309.31,101.58z"/>
	<path class="st1" d="M315.59,75.86h5.05c3.64,0,5.37,1.87,5.37,5.69v4.01c0,2.55-0.82,4.1-2.46,4.82v0.09
		c1.64,0.73,2.46,2.28,2.46,4.87v11.93h-2.73V95.53c0-2.91-0.82-3.78-3.41-3.78h-1.55v15.52h-2.73V75.86z M320.32,89.38
		c2.28,0,2.96-0.86,2.96-3.78v-3.6c0-2.91-0.68-3.78-2.96-3.78h-2v11.15H320.32z"/>
	<path class="st1" d="M332.2,78.23h-3.82v-2.37h10.38v2.37h-3.82v29.04h-2.73V78.23z"/>
	<path class="st1" d="M341.4,75.86h9.01v2.37h-6.28V89.2h5.46v2.37h-5.46v13.34h6.28v2.37h-9.01V75.86z"/>
	<path class="st1" d="M353.23,75.86h5.19c3.64,0,5.37,1.87,5.37,5.69v20.03c0,3.82-1.73,5.69-5.37,5.69h-5.19V75.86z M358.1,104.9
		c2.28,0,2.96-0.87,2.96-3.78V82.01c0-2.91-0.68-3.78-2.96-3.78h-2.14v26.67H358.1z"/>
	<path class="st1" d="M373.21,75.86h5.05c3.64,0,5.37,1.87,5.37,5.69v3.78c0,2.55-0.77,4.1-2.37,4.82v0.09
		c1.73,0.73,2.55,2.28,2.55,4.92v6.42c0,3.82-1.73,5.69-5.37,5.69h-5.23V75.86z M377.94,89.2c2.28,0,2.96-0.86,2.96-3.73v-3.46
		c0-2.91-0.68-3.78-2.96-3.78h-2V89.2H377.94z M378.13,104.9c2.28,0,2.96-0.87,2.96-3.78v-5.78c0-2.91-0.68-3.78-2.96-3.78h-2.19
		v13.34H378.13z"/>
	<path class="st1" d="M387.14,75.86h9.01v2.37h-6.28V89.2h5.46v2.37h-5.46v13.34h6.28v2.37h-9.01V75.86z"/>
	<path class="st1" d="M398.97,75.86h2.73v31.41h-2.73V75.86z"/>
	<path class="st1" d="M405.44,75.86h3.55l4.96,22.99h0.09V75.86h2.46v31.41h-2.96l-5.55-25.9h-0.09v25.9h-2.46V75.86z"/>
	<path class="st1" d="M420.05,102.81V81.05c0-3.6,1.96-5.64,5.23-5.64c3.32,0,5.19,2.05,5.19,5.64v3.46h-2.59v-2.96
		c0-2.64-0.73-3.69-2.55-3.69c-1.87,0-2.55,1.05-2.55,3.69v20.94c0,1.87,0.68,2.78,2.19,2.78c1.87,0,2.91-1.41,2.91-3.96V92.3h-2.55
		v-2.37h5.28v17.34h-2.32v-2.23h-0.14c-0.73,1.73-2.05,2.69-3.91,2.69C421.59,107.73,420.05,105.86,420.05,102.81z"/>
	<path class="st1" d="M39.27,121.64h1.09v3.73h-3.1v-3.28l2-5.05h1.59L39.27,121.64z M44.64,121.64h1.09v3.73h-3.1v-3.28l2-5.05
		h1.59L44.64,121.64z"/>
	<path class="st1" d="M48.92,143.31v-5.51h2.64v5.01c0,2.59,0.73,3.64,2.55,3.64c1.87,0,2.59-1.05,2.59-3.64v-4.73
		c0-2.14-0.59-3.19-2.14-4.19l-2.41-1.55c-2.32-1.5-3.23-3.23-3.23-6.28v-4.05c0-3.46,1.87-5.42,5.1-5.42c3.23,0,5.1,1.96,5.1,5.42
		v4.05h-2.64v-3.6c0-2.46-0.68-3.41-2.41-3.41c-1.73,0-2.41,0.96-2.41,3.41v3.41c0,2.14,0.59,3.19,2.14,4.19l2.41,1.55
		c2.32,1.5,3.23,3.23,3.23,6.28v5.42c0,3.6-1.96,5.6-5.28,5.6S48.92,146.9,48.92,143.31z"/>
	<path class="st1" d="M65.49,117.05h3.6l3.96,31.41h-2.78l-0.91-7.78h-4.28l-0.91,7.78h-2.64L65.49,117.05z M69.08,138.3
		l-1.82-16.93h-0.09l-1.82,16.93H69.08z"/>
	<path class="st1" d="M76.91,119.41h-3.82v-2.37h10.38v2.37h-3.82v29.04h-2.73V119.41z"/>
	<path class="st1" d="M86.1,117.05h2.73v31.41H86.1V117.05z"/>
	<path class="st1" d="M92.07,143.31v-5.51h2.64v5.01c0,2.59,0.73,3.64,2.55,3.64c1.87,0,2.59-1.05,2.59-3.64v-4.73
		c0-2.14-0.59-3.19-2.14-4.19l-2.41-1.55c-2.32-1.5-3.23-3.23-3.23-6.28v-4.05c0-3.46,1.87-5.42,5.1-5.42c3.23,0,5.1,1.96,5.1,5.42
		v4.05h-2.64v-3.6c0-2.46-0.68-3.41-2.41-3.41c-1.73,0-2.41,0.96-2.41,3.41v3.41c0,2.14,0.59,3.19,2.14,4.19l2.41,1.55
		c2.32,1.5,3.23,3.23,3.23,6.28v5.42c0,3.6-1.96,5.6-5.28,5.6S92.07,146.9,92.07,143.31z"/>
	<path class="st1" d="M105.72,117.05h9.01v2.37h-6.28v11.42h5.46v2.37h-5.46v15.25h-2.73V117.05z"/>
	<path class="st1" d="M117.37,117.05h2.73v31.41h-2.73V117.05z"/>
	<path class="st1" d="M123.84,117.05h9.01v2.37h-6.28v10.97h5.46v2.37h-5.46v13.34h6.28v2.37h-9.01V117.05z"/>
	<path class="st1" d="M135.67,117.05h5.19c3.64,0,5.37,1.87,5.37,5.69v20.03c0,3.82-1.73,5.69-5.37,5.69h-5.19V117.05z
		 M140.54,146.08c2.28,0,2.96-0.86,2.96-3.78v-19.12c0-2.91-0.68-3.78-2.96-3.78h-2.14v26.67H140.54z"/>
	<path class="st1" d="M150.78,120.78h-1.09v-3.73h3.1v3.28l-2,5.05h-1.59L150.78,120.78z M156.15,120.78h-1.09v-3.73h3.09v3.28
		l-2,5.05h-1.59L156.15,120.78z"/>
	<path class="st1" d="M167.62,143.22v-20.94c0-3.64,1.96-5.69,5.28-5.69c3.32,0,5.28,2.05,5.28,5.69v20.94
		c0,3.64-1.96,5.69-5.28,5.69C169.58,148.91,167.62,146.86,167.62,143.22z M175.45,142.76v-20.03c0-2.64-0.73-3.69-2.55-3.69
		c-1.87,0-2.55,1.05-2.55,3.69v20.03c0,2.64,0.68,3.69,2.55,3.69C174.72,146.45,175.45,145.4,175.45,142.76z"/>
	<path class="st1" d="M181.73,117.05h5.05c3.64,0,5.37,1.87,5.37,5.69v4.01c0,2.55-0.82,4.1-2.46,4.83v0.09
		c1.64,0.73,2.46,2.28,2.46,4.87v11.93h-2.73v-11.74c0-2.91-0.82-3.78-3.41-3.78h-1.55v15.52h-2.73V117.05z M186.46,130.56
		c2.28,0,2.96-0.87,2.96-3.78v-3.6c0-2.91-0.68-3.78-2.96-3.78h-2v11.15H186.46z"/>
	<path class="st1" d="M203.58,121.64h1.09v3.73h-3.1v-3.28l2-5.05h1.59L203.58,121.64z M208.95,121.64h1.09v3.73h-3.1v-3.28l2-5.05
		h1.59L208.95,121.64z"/>
	<path class="st1" d="M213.18,117.05h2.78l2.87,26.4h0.09l2.87-26.4h2.59l-3.78,31.41h-3.64L213.18,117.05z"/>
	<path class="st1" d="M227.11,117.05h9.01v2.37h-6.28v10.97h5.46v2.37h-5.46v13.34h6.28v2.37h-9.01V117.05z"/>
	<path class="st1" d="M238.94,117.05H244c3.64,0,5.37,1.87,5.37,5.69v4.01c0,2.55-0.82,4.1-2.46,4.83v0.09
		c1.64,0.73,2.46,2.28,2.46,4.87v11.93h-2.73v-11.74c0-2.91-0.82-3.78-3.41-3.78h-1.55v15.52h-2.73V117.05z M243.68,130.56
		c2.28,0,2.96-0.87,2.96-3.78v-3.6c0-2.91-0.68-3.78-2.96-3.78h-2v11.15H243.68z"/>
	<path class="st1" d="M255.6,133.8l-4.42-16.75h2.82l3,12.43h0.09l3-12.43h2.64l-4.42,16.75v14.66h-2.73V133.8z"/>
	<path class="st1" d="M270.76,143.31v-5.51h2.64v5.01c0,2.59,0.73,3.64,2.55,3.64c1.87,0,2.59-1.05,2.59-3.64v-4.73
		c0-2.14-0.59-3.19-2.14-4.19l-2.41-1.55c-2.32-1.5-3.23-3.23-3.23-6.28v-4.05c0-3.46,1.87-5.42,5.1-5.42c3.23,0,5.1,1.96,5.1,5.42
		v4.05h-2.64v-3.6c0-2.46-0.68-3.41-2.41-3.41c-1.73,0-2.41,0.96-2.41,3.41v3.41c0,2.14,0.59,3.19,2.14,4.19l2.41,1.55
		c2.32,1.5,3.23,3.23,3.23,6.28v5.42c0,3.6-1.96,5.6-5.28,5.6S270.76,146.9,270.76,143.31z"/>
	<path class="st1" d="M287.33,117.05h3.6l3.96,31.41h-2.78l-0.91-7.78h-4.28l-0.91,7.78h-2.64L287.33,117.05z M290.92,138.3
		l-1.82-16.93h-0.09l-1.82,16.93H290.92z"/>
	<path class="st1" d="M298.75,119.41h-3.82v-2.37h10.38v2.37h-3.82v29.04h-2.73V119.41z"/>
	<path class="st1" d="M307.94,117.05h2.73v31.41h-2.73V117.05z"/>
	<path class="st1" d="M313.91,143.31v-5.51h2.64v5.01c0,2.59,0.73,3.64,2.55,3.64c1.87,0,2.59-1.05,2.59-3.64v-4.73
		c0-2.14-0.59-3.19-2.14-4.19l-2.41-1.55c-2.32-1.5-3.23-3.23-3.23-6.28v-4.05c0-3.46,1.87-5.42,5.1-5.42c3.23,0,5.1,1.96,5.1,5.42
		v4.05h-2.64v-3.6c0-2.46-0.68-3.41-2.41-3.41c-1.73,0-2.41,0.96-2.41,3.41v3.41c0,2.14,0.59,3.19,2.14,4.19l2.41,1.55
		c2.32,1.5,3.23,3.23,3.23,6.28v5.42c0,3.6-1.96,5.6-5.28,5.6S313.91,146.9,313.91,143.31z"/>
	<path class="st1" d="M327.56,117.05h9.01v2.37h-6.28v11.42h5.46v2.37h-5.46v15.25h-2.73V117.05z"/>
	<path class="st1" d="M339.21,117.05h2.73v31.41h-2.73V117.05z"/>
	<path class="st1" d="M345.67,117.05h9.01v2.37h-6.28v10.97h5.46v2.37h-5.46v13.34h6.28v2.37h-9.01V117.05z"/>
	<path class="st1" d="M357.51,117.05h5.19c3.64,0,5.37,1.87,5.37,5.69v20.03c0,3.82-1.73,5.69-5.37,5.69h-5.19V117.05z
		 M362.38,146.08c2.28,0,2.96-0.86,2.96-3.78v-19.12c0-2.91-0.68-3.78-2.96-3.78h-2.14v26.67H362.38z"/>
	<path class="st1" d="M372.62,120.78h-1.09v-3.73h3.1v3.28l-2,5.05h-1.59L372.62,120.78z M377.99,120.78h-1.09v-3.73h3.09v3.28
		l-2,5.05h-1.59L377.99,120.78z"/>
	<path class="st1" d="M383.27,117.05h2.78l2.37,25.44h0.09l2.73-25.44h2.73l2.73,25.44h0.09l2.37-25.44h2.55l-3.41,31.41h-3.14
		l-2.55-23.44h-0.09l-2.55,23.44h-3.28L383.27,117.05z"/>
	<path class="st1" d="M404.43,117.05h2.73v31.41h-2.73V117.05z"/>
	<path class="st1" d="M413.63,119.41h-3.82v-2.37h10.38v2.37h-3.82v29.04h-2.73V119.41z"/>
	<path class="st1" d="M422.82,117.05h2.73v13.34h5.14v-13.34h2.73v31.41h-2.73v-15.7h-5.14v15.7h-2.73V117.05z"/>
	<path class="st1" d="M40,160.59h-3.82v-2.37h10.38v2.37h-3.82v29.04H40V160.59z"/>
	<path class="st1" d="M49.19,158.23h2.73v13.34h5.14v-13.34h2.73v31.41h-2.73v-15.7h-5.14v15.7h-2.73V158.23z"/>
	<path class="st1" d="M63.53,158.23h9.01v2.37h-6.28v10.97h5.46v2.37h-5.46v13.34h6.28v2.37h-9.01V158.23z"/>
	<path class="st1" d="M75.36,158.23h2.73v31.41h-2.73V158.23z"/>
	<path class="st1" d="M81.83,158.23h5.05c3.64,0,5.37,1.87,5.37,5.69v4c0,2.55-0.82,4.1-2.46,4.83v0.09
		c1.64,0.73,2.46,2.28,2.46,4.87v11.93h-2.73v-11.74c0-2.91-0.82-3.78-3.41-3.78h-1.55v15.52h-2.73V158.23z M86.56,171.75
		c2.28,0,2.96-0.87,2.96-3.78v-3.6c0-2.91-0.68-3.78-2.96-3.78h-2v11.15H86.56z"/>
	<path class="st1" d="M101.49,184.67v-21.48c0-3.46,1.82-5.42,5.1-5.42c3.32,0,5.14,1.96,5.14,5.42v5.14h-2.59v-4.69
		c0-2.46-0.73-3.41-2.46-3.41c-1.78,0-2.46,0.96-2.46,3.41v20.57c0,2.46,0.68,3.41,2.46,3.41c1.73,0,2.46-0.96,2.46-3.41v-6.33h2.59
		v6.78c0,3.46-1.82,5.42-5.14,5.42C103.31,190.09,101.49,188.13,101.49,184.67z"/>
	<path class="st1" d="M114.78,184.4v-20.94c0-3.64,1.96-5.69,5.28-5.69s5.28,2.05,5.28,5.69v20.94c0,3.64-1.96,5.69-5.28,5.69
		S114.78,188.04,114.78,184.4z M122.61,183.94v-20.03c0-2.64-0.73-3.69-2.55-3.69c-1.87,0-2.55,1.05-2.55,3.69v20.03
		c0,2.64,0.68,3.69,2.55,3.69C121.88,187.63,122.61,186.58,122.61,183.94z"/>
	<path class="st1" d="M128.71,184.4v-20.94c0-3.64,1.96-5.69,5.28-5.69s5.28,2.05,5.28,5.69v20.94c0,3.64-1.96,5.69-5.28,5.69
		S128.71,188.04,128.71,184.4z M136.54,183.94v-20.03c0-2.64-0.73-3.69-2.55-3.69c-1.87,0-2.55,1.05-2.55,3.69v20.03
		c0,2.64,0.68,3.69,2.55,3.69C135.81,187.63,136.54,186.58,136.54,183.94z"/>
	<path class="st1" d="M142.82,158.23h2.73v29.04h5.83v2.37h-8.56V158.23z"/>
	<path class="st1" d="M153.51,184.49v-5.51h2.64v5.01c0,2.59,0.73,3.64,2.55,3.64c1.87,0,2.59-1.05,2.59-3.64v-4.73
		c0-2.14-0.59-3.19-2.14-4.19l-2.41-1.55c-2.32-1.5-3.23-3.23-3.23-6.28v-4.05c0-3.46,1.87-5.42,5.1-5.42c3.23,0,5.1,1.96,5.1,5.42
		v4.05h-2.64v-3.6c0-2.46-0.68-3.41-2.41-3.41c-1.73,0-2.41,0.96-2.41,3.41v3.41c0,2.14,0.59,3.19,2.14,4.19l2.41,1.55
		c2.32,1.5,3.23,3.23,3.23,6.28v5.42c0,3.6-1.96,5.6-5.28,5.6S153.51,188.09,153.51,184.49z"/>
	<path class="st1" d="M166.98,184.67v-21.48c0-3.46,1.82-5.42,5.1-5.42c3.32,0,5.14,1.96,5.14,5.42v5.14h-2.59v-4.69
		c0-2.46-0.73-3.41-2.46-3.41c-1.77,0-2.46,0.96-2.46,3.41v20.57c0,2.46,0.68,3.41,2.46,3.41c1.73,0,2.46-0.96,2.46-3.41v-6.33h2.59
		v6.78c0,3.46-1.82,5.42-5.14,5.42C168.8,190.09,166.98,188.13,166.98,184.67z"/>
	<path class="st1" d="M180.37,184.58v-26.35h2.73v25.85c0,2.55,0.64,3.55,2.46,3.55c1.82,0,2.46-1,2.46-3.55v-25.85h2.64v26.35
		c0,3.5-1.91,5.51-5.14,5.51C182.28,190.09,180.37,188.09,180.37,184.58z"/>
	<path class="st1" d="M194.29,158.23h2.73v29.04h5.83v2.37h-8.56V158.23z"/>
	<path class="st1" d="M205.49,158.23h5.19c3.64,0,5.37,1.87,5.37,5.69v4.92c0,3.82-1.73,5.69-5.37,5.69h-2.46v15.11h-2.73V158.23z
		 M210.36,172.16c2.28,0,2.96-0.87,2.96-3.78v-4c0-2.91-0.68-3.78-2.96-3.78h-2.14v11.56H210.36z"/>
	<path class="st1" d="M221.74,160.59h-3.82v-2.37h10.38v2.37h-3.82v29.04h-2.73V160.59z"/>
	<path class="st1" d="M230.93,158.23h2.73v31.41h-2.73V158.23z"/>
	<path class="st1" d="M237.4,158.23h3.55l4.96,22.99H246v-22.99h2.46v31.41h-2.96l-5.55-25.9h-0.09v25.9h-2.46V158.23z"/>
	<path class="st1" d="M252.01,185.17v-21.76c0-3.6,1.96-5.64,5.23-5.64c3.32,0,5.19,2.05,5.19,5.64v3.46h-2.59v-2.96
		c0-2.64-0.73-3.69-2.55-3.69c-1.87,0-2.55,1.05-2.55,3.69v20.94c0,1.87,0.68,2.78,2.19,2.78c1.87,0,2.91-1.41,2.91-3.96v-9.01
		h-2.55v-2.37h5.28v17.34h-2.32v-2.23h-0.14c-0.73,1.73-2.05,2.69-3.91,2.69C253.55,190.09,252.01,188.22,252.01,185.17z"/>
	<path class="st1" d="M269.04,158.02c0.82,0,1.63,0.21,2.41,0.63s1.4,1.03,1.83,1.82c0.44,0.79,0.66,1.61,0.66,2.46
		c0,0.85-0.22,1.66-0.65,2.44c-0.43,0.78-1.04,1.39-1.81,1.82s-1.59,0.65-2.44,0.65c-0.85,0-1.66-0.22-2.44-0.65
		s-1.38-1.04-1.82-1.82s-0.65-1.59-0.65-2.44c0-0.85,0.22-1.67,0.66-2.46c0.44-0.79,1.05-1.39,1.84-1.82
		C267.41,158.23,268.22,158.02,269.04,158.02z M269.04,158.84c-0.69,0-1.36,0.18-2.01,0.53c-0.65,0.35-1.16,0.86-1.53,1.52
		s-0.55,1.34-0.55,2.05c0,0.71,0.18,1.38,0.54,2.03c0.36,0.65,0.87,1.15,1.52,1.51c0.65,0.36,1.33,0.54,2.04,0.54
		c0.71,0,1.39-0.18,2.04-0.54c0.65-0.36,1.16-0.87,1.52-1.51c0.36-0.65,0.54-1.33,0.54-2.03c0-0.71-0.18-1.39-0.55-2.05
		s-0.88-1.16-1.53-1.52C270.4,159.01,269.73,158.84,269.04,158.84z M266.89,165.65v-5.28h1.81c0.62,0,1.07,0.05,1.35,0.15
		c0.28,0.1,0.5,0.27,0.66,0.51c0.16,0.24,0.25,0.5,0.25,0.77c0,0.39-0.14,0.72-0.41,1.01s-0.64,0.45-1.1,0.48
		c0.19,0.08,0.34,0.17,0.45,0.28c0.21,0.21,0.47,0.56,0.78,1.05l0.64,1.03h-1.04l-0.47-0.83c-0.37-0.65-0.67-1.06-0.89-1.23
		c-0.16-0.12-0.38-0.18-0.68-0.18h-0.5v2.24H266.89z M267.74,162.67h1.03c0.49,0,0.83-0.07,1.01-0.22c0.18-0.15,0.27-0.34,0.27-0.58
		c0-0.16-0.04-0.3-0.13-0.42c-0.09-0.12-0.21-0.22-0.36-0.28c-0.15-0.06-0.44-0.09-0.86-0.09h-0.97V162.67z"/>
	<path class="st1" d="M284.44,160.59h-3.82v-2.37H291v2.37h-3.82v29.04h-2.73V160.59z"/>
	<path class="st1" d="M293.63,158.23h5.05c3.64,0,5.37,1.87,5.37,5.69v4c0,2.55-0.82,4.1-2.46,4.83v0.09
		c1.64,0.73,2.46,2.28,2.46,4.87v11.93h-2.73v-11.74c0-2.91-0.82-3.78-3.41-3.78h-1.55v15.52h-2.73V158.23z M298.37,171.75
		c2.28,0,2.96-0.87,2.96-3.78v-3.6c0-2.91-0.68-3.78-2.96-3.78h-2v11.15H298.37z"/>
	<path class="st1" d="M307.56,158.23h9.01v2.37h-6.28v10.97h5.46v2.37h-5.46v13.34h6.28v2.37h-9.01V158.23z"/>
	<path class="st1" d="M322.45,158.23h3.6l3.96,31.41h-2.78l-0.91-7.78h-4.28l-0.91,7.78h-2.64L322.45,158.23z M326.04,179.48
		l-1.82-16.93h-0.09l-1.82,16.93H326.04z"/>
	<path class="st1" d="M333.87,160.59h-3.82v-2.37h10.38v2.37h-3.82v29.04h-2.73V160.59z"/>
	<path class="st1" d="M343.06,158.23h4.32l3.5,23.17h0.09l3.5-23.17h4.51v31.41h-2.73v-28.08h-0.09l-4.23,28.08h-2.14l-4.23-28.08
		h-0.09v28.08h-2.41V158.23z"/>
	<path class="st1" d="M362.73,158.23h9.01v2.37h-6.28v10.97h5.46v2.37h-5.46v13.34h6.28v2.37h-9.01V158.23z"/>
	<path class="st1" d="M374.56,158.23h3.55l4.96,22.99h0.09v-22.99h2.46v31.41h-2.96l-5.55-25.9h-0.09v25.9h-2.46V158.23z"/>
	<path class="st1" d="M392.08,160.59h-3.82v-2.37h10.38v2.37h-3.82v29.04h-2.73V160.59z"/>
	<path class="st1" d="M398.55,185.9h3.05v3.73h-3.05V185.9z"/>
	<path class="st1" d="M404.18,160.52l-2.28,1.43l-0.61-1.01l2.39-1.27l-2.39-1.25l0.61-1.01l2.28,1.43l-0.13-2.68h1.19l-0.13,2.68
		l2.28-1.43l0.61,1.01l-2.39,1.27l2.39,1.25l-0.61,1.01l-2.28-1.43l0.13,2.68h-1.19L404.18,160.52z"/>
</g>
</svg>
