<?xml version="1.0" encoding="utf-8"?>
<!-- Generator: Adobe Illustrator 25.4.1, SVG Export Plug-In . SVG Version: 6.00 Build 0)  -->
<svg version="1.1" id="Layer_1" xmlns="http://www.w3.org/2000/svg" xmlns:xlink="http://www.w3.org/1999/xlink" x="0px" y="0px"
	 viewBox="0 0 970 250" style="enable-background:new 0 0 970 250;" xml:space="preserve">
<style type="text/css">
	.st0{fill:#FFFFFF;}
</style>
<g>
	<path class="st0" d="M40.5,204.09l0.64,0.88l-0.57,0.42l-0.64-0.88l-0.29-0.56l-0.29,0.56l-0.63,0.88l-0.57-0.42l0.64-0.88
		l0.44-0.45l-0.62-0.11l-1.03-0.33l0.21-0.67l1.04,0.34l0.56,0.28l-0.09-0.62l-0.01-1.09h0.72l-0.01,1.09l-0.1,0.63l0.57-0.29
		l1.04-0.34l0.21,0.67l-1.03,0.33l-0.63,0.11L40.5,204.09z"/>
	<path class="st0" d="M45.52,206.25h-2.41l-0.55,1.5h-0.95l2.16-5.72h1.11l2.16,5.72h-0.98L45.52,206.25z M45.24,205.5l-0.66-1.84
		l-0.26-0.82h-0.03l-0.24,0.81l-0.68,1.85H45.24z"/>
	<path class="st0" d="M47.48,206.93l0.62-0.54c0.23,0.52,0.74,0.72,1.34,0.72c0.62,0,0.93-0.23,0.93-0.52
		c0-0.27-0.25-0.42-1.01-0.57c-1.29-0.24-1.74-0.62-1.74-1.34c0-0.7,0.66-1.34,1.82-1.34c0.96,0,1.51,0.31,1.82,0.98l-0.66,0.49
		c-0.22-0.52-0.59-0.74-1.15-0.74c-0.54,0-0.9,0.26-0.9,0.53c0,0.31,0.25,0.48,1.07,0.62c1.24,0.22,1.68,0.6,1.68,1.32
		c0,0.76-0.69,1.31-1.89,1.31C48.57,207.84,47.84,207.56,47.48,206.93z"/>
	<path class="st0" d="M54.79,206.93l0.62-0.54c0.23,0.52,0.74,0.72,1.34,0.72c0.62,0,0.93-0.23,0.93-0.52
		c0-0.27-0.25-0.42-1.01-0.57c-1.29-0.24-1.74-0.62-1.74-1.34c0-0.7,0.66-1.34,1.82-1.34c0.96,0,1.51,0.31,1.82,0.98l-0.66,0.49
		c-0.22-0.52-0.59-0.74-1.15-0.74c-0.54,0-0.9,0.26-0.9,0.53c0,0.31,0.25,0.48,1.07,0.62c1.24,0.22,1.68,0.6,1.68,1.32
		c0,0.76-0.69,1.31-1.89,1.31C55.89,207.84,55.16,207.56,54.79,206.93z"/>
	<path class="st0" d="M63.66,204.95v2.81h-0.93v-2.51c0-0.86-0.4-1.14-0.93-1.14c-0.57,0-1.18,0.37-1.18,1.37v2.29H59.7v-6.28h0.93
		v2.64c0.29-0.54,0.8-0.78,1.4-0.78C62.95,203.33,63.66,203.86,63.66,204.95z"/>
	<path class="st0" d="M69.09,205.59c0,1.41-0.81,2.25-2.16,2.25s-2.16-0.84-2.16-2.25c0-1.41,0.81-2.25,2.16-2.25
		S69.09,204.17,69.09,205.59z M65.71,205.59c0,0.98,0.44,1.53,1.22,1.53c0.78,0,1.23-0.55,1.23-1.53s-0.45-1.53-1.23-1.53
		C66.15,204.06,65.71,204.61,65.71,205.59z"/>
	<path class="st0" d="M76.69,203.42l-1.45,4.33h-1.01l-1.09-3.28l-1.04,3.28h-1.01l-1.45-4.33h1.01l0.98,3.46l1.08-3.46h0.92
		l1.08,3.46l0.98-3.46H76.69z"/>
	<path class="st0" d="M81.57,204.95v2.81h-0.93v-2.51c0-0.86-0.4-1.14-0.93-1.14c-0.57,0-1.18,0.36-1.18,1.36v2.3h-0.93v-4.33h0.82
		l0.04,0.73c0.29-0.57,0.84-0.81,1.46-0.81C80.86,203.33,81.57,203.86,81.57,204.95z"/>
	<path class="st0" d="M85.55,202.11c0-0.36,0.23-0.57,0.62-0.57c0.4,0,0.62,0.21,0.62,0.57c0,0.36-0.22,0.58-0.62,0.58
		C85.78,202.69,85.55,202.48,85.55,202.11z M86.64,207.75h-0.93v-4.33h0.93V207.75z"/>
	<path class="st0" d="M92,204.95v2.81h-0.93v-2.51c0-0.86-0.4-1.14-0.93-1.14c-0.57,0-1.18,0.36-1.18,1.36v2.3h-0.93v-4.33h0.82
		l0.04,0.73c0.29-0.57,0.84-0.81,1.46-0.81C91.29,203.33,92,203.86,92,204.95z"/>
	<path class="st0" d="M100.21,207.11l-0.06,0.62c-0.14,0.06-0.32,0.1-0.54,0.1c-0.47,0-0.79-0.17-0.88-0.65
		c-0.27,0.42-0.82,0.65-1.46,0.65c-0.81,0-1.41-0.38-1.41-1.14c0-0.67,0.55-1.16,1.69-1.36l1.1-0.2v-0.23
		c0-0.52-0.32-0.86-0.88-0.86c-0.54,0-0.94,0.23-1.12,0.78l-0.72-0.38c0.21-0.69,0.88-1.13,1.82-1.13c1.08,0,1.83,0.49,1.83,1.53
		v1.96c0,0.22,0.09,0.32,0.32,0.32C100,207.15,100.11,207.14,100.21,207.11z M98.64,206.32v-0.52l-0.94,0.19
		c-0.59,0.11-0.88,0.31-0.88,0.66c0,0.32,0.24,0.49,0.65,0.49C98.04,207.14,98.64,206.83,98.64,206.32z"/>
	<path class="st0" d="M107.44,204.55l-0.87,0.35c-0.15-0.54-0.48-0.82-1.01-0.82c-0.77,0-1.22,0.55-1.22,1.53s0.46,1.51,1.22,1.51
		c0.6,0,0.95-0.3,1.07-0.84l0.85,0.29c-0.24,0.79-0.89,1.29-1.9,1.29c-1.37,0-2.18-0.84-2.18-2.25c0-1.41,0.81-2.25,2.16-2.25
		C106.6,203.33,107.17,203.84,107.44,204.55z"/>
	<path class="st0" d="M109.41,206.49c0,0.42,0.1,0.57,0.45,0.57c0.22,0,0.35-0.03,0.57-0.11l-0.1,0.75
		c-0.19,0.1-0.47,0.15-0.72,0.15c-0.77,0-1.13-0.38-1.13-1.22v-5.15h0.93V206.49z"/>
	<path class="st0" d="M111.02,202.11c0-0.36,0.23-0.57,0.62-0.57c0.4,0,0.62,0.21,0.62,0.57c0,0.36-0.22,0.58-0.62,0.58
		C111.24,202.69,111.02,202.48,111.02,202.11z M112.1,207.75h-0.93v-4.33h0.93V207.75z"/>
	<path class="st0" d="M117.47,204.95v2.81h-0.93v-2.51c0-0.86-0.4-1.14-0.93-1.14c-0.57,0-1.18,0.36-1.18,1.36v2.3h-0.93v-4.33h0.82
		l0.04,0.73c0.29-0.57,0.84-0.81,1.46-0.81C116.76,203.33,117.47,203.86,117.47,204.95z"/>
	<path class="st0" d="M118.67,202.11c0-0.36,0.23-0.57,0.62-0.57c0.4,0,0.62,0.21,0.62,0.57c0,0.36-0.22,0.58-0.62,0.58
		C118.9,202.69,118.67,202.48,118.67,202.11z M119.76,207.75h-0.93v-4.33h0.93V207.75z"/>
	<path class="st0" d="M124.95,204.55l-0.87,0.35c-0.15-0.54-0.48-0.82-1.01-0.82c-0.77,0-1.22,0.55-1.22,1.53s0.46,1.51,1.22,1.51
		c0.6,0,0.95-0.3,1.07-0.84l0.85,0.29c-0.24,0.79-0.89,1.29-1.9,1.29c-1.37,0-2.18-0.84-2.18-2.25c0-1.41,0.81-2.25,2.16-2.25
		C124.12,203.33,124.68,203.84,124.95,204.55z"/>
	<path class="st0" d="M130.09,207.11l-0.06,0.62c-0.14,0.06-0.32,0.1-0.54,0.1c-0.47,0-0.79-0.17-0.88-0.65
		c-0.27,0.42-0.82,0.65-1.46,0.65c-0.81,0-1.41-0.38-1.41-1.14c0-0.67,0.55-1.16,1.69-1.36l1.1-0.2v-0.23
		c0-0.52-0.32-0.86-0.88-0.86c-0.54,0-0.94,0.23-1.12,0.78l-0.72-0.38c0.21-0.69,0.88-1.13,1.82-1.13c1.08,0,1.83,0.49,1.83,1.53
		v1.96c0,0.22,0.09,0.32,0.32,0.32C129.88,207.15,130,207.14,130.09,207.11z M128.52,206.32v-0.52l-0.94,0.19
		c-0.59,0.11-0.88,0.31-0.88,0.66c0,0.32,0.24,0.49,0.65,0.49C127.92,207.14,128.52,206.83,128.52,206.32z"/>
	<path class="st0" d="M131.83,206.49c0,0.42,0.1,0.57,0.45,0.57c0.22,0,0.35-0.03,0.57-0.11l-0.1,0.75
		c-0.19,0.1-0.47,0.15-0.72,0.15c-0.77,0-1.13-0.38-1.13-1.22v-5.15h0.93V206.49z"/>
	<path class="st0" d="M135.74,206.93l0.62-0.54c0.23,0.52,0.74,0.72,1.34,0.72c0.62,0,0.93-0.23,0.93-0.52
		c0-0.27-0.25-0.42-1.01-0.57c-1.29-0.24-1.74-0.62-1.74-1.34c0-0.7,0.66-1.34,1.82-1.34c0.96,0,1.51,0.31,1.82,0.98l-0.66,0.49
		c-0.22-0.52-0.59-0.74-1.15-0.74c-0.54,0-0.9,0.26-0.9,0.53c0,0.31,0.25,0.48,1.07,0.62c1.24,0.22,1.68,0.6,1.68,1.32
		c0,0.76-0.69,1.31-1.89,1.31C136.84,207.84,136.11,207.56,135.74,206.93z"/>
	<path class="st0" d="M143.46,207.47c-0.28,0.23-0.68,0.37-1.15,0.37c-0.75,0-1.32-0.34-1.33-1.23v-2.46h-0.82v-0.73h0.82v-1.01
		l0.93-0.26v1.27h1.52v0.73h-1.52v2.31c0,0.42,0.25,0.62,0.63,0.62c0.29,0,0.51-0.1,0.7-0.28L143.46,207.47z"/>
	<path class="st0" d="M148.21,203.42v4.33h-0.82l-0.04-0.7c-0.29,0.55-0.83,0.79-1.53,0.79c-0.87,0-1.56-0.44-1.56-1.57v-2.85h0.93
		v2.61c0,0.81,0.35,1.05,0.89,1.05c0.66,0,1.21-0.4,1.21-1.32v-2.34H148.21z"/>
	<path class="st0" d="M153.62,201.47v6.28h-0.81l-0.05-0.78c-0.25,0.51-0.78,0.87-1.46,0.87c-1.18,0-1.92-0.83-1.92-2.25
		c0-1.42,0.75-2.26,1.92-2.26c0.64,0,1.14,0.31,1.4,0.79v-2.65H153.62z M152.69,205.64v-0.1c0-0.9-0.47-1.45-1.2-1.45
		c-0.75,0-1.2,0.55-1.2,1.5c0,0.95,0.45,1.51,1.2,1.51C152.22,207.1,152.69,206.55,152.69,205.64z"/>
	<path class="st0" d="M157.02,208.27c-0.38,1-0.82,1.35-1.6,1.35c-0.45,0-0.76-0.1-1.02-0.35l0.27-0.71
		c0.2,0.24,0.44,0.31,0.71,0.31c0.32,0,0.56-0.12,0.75-0.62l0.19-0.47l-0.45-1.08l-1.35-3.29h1.04l0.95,2.72l0.25,0.82l0.29-0.89
		l0.9-2.64h0.96L157.02,208.27z"/>
	<path class="st0" d="M166.11,205.93h-3.17c0.1,0.76,0.55,1.17,1.26,1.17c0.57,0,0.95-0.21,1.09-0.59l0.77,0.32
		c-0.31,0.64-0.91,1.01-1.86,1.01c-1.37,0-2.18-0.84-2.18-2.25c0-1.41,0.76-2.25,2.11-2.25c1.3,0,2.01,0.87,2.01,2.12
		C166.15,205.62,166.13,205.82,166.11,205.93z M162.95,205.22h2.33c-0.09-0.73-0.49-1.15-1.14-1.15
		C163.45,204.07,163.04,204.48,162.95,205.22z"/>
	<path class="st0" d="M170.96,203.42l-1.72,4.33h-1.01l-1.73-4.33h1.02l1.22,3.58l1.26-3.58H170.96z"/>
	<path class="st0" d="M175.67,207.11l-0.06,0.62c-0.14,0.06-0.32,0.1-0.54,0.1c-0.47,0-0.79-0.17-0.88-0.65
		c-0.27,0.42-0.82,0.65-1.46,0.65c-0.81,0-1.41-0.38-1.41-1.14c0-0.67,0.55-1.16,1.69-1.36l1.1-0.2v-0.23
		c0-0.52-0.32-0.86-0.88-0.86c-0.54,0-0.94,0.23-1.12,0.78l-0.72-0.38c0.21-0.69,0.88-1.13,1.82-1.13c1.08,0,1.83,0.49,1.83,1.53
		v1.96c0,0.22,0.09,0.32,0.32,0.32C175.46,207.15,175.57,207.14,175.67,207.11z M174.1,206.32v-0.52l-0.94,0.19
		c-0.59,0.11-0.88,0.31-0.88,0.66c0,0.32,0.24,0.49,0.65,0.49C173.5,207.14,174.1,206.83,174.1,206.32z"/>
	<path class="st0" d="M177.4,206.49c0,0.42,0.1,0.57,0.45,0.57c0.22,0,0.35-0.03,0.57-0.11l-0.1,0.75c-0.19,0.1-0.47,0.15-0.72,0.15
		c-0.77,0-1.13-0.38-1.13-1.22v-5.15h0.93V206.49z"/>
	<path class="st0" d="M183.09,203.42v4.33h-0.82l-0.04-0.7c-0.29,0.55-0.83,0.79-1.53,0.79c-0.87,0-1.56-0.44-1.56-1.57v-2.85h0.93
		v2.61c0,0.81,0.35,1.05,0.89,1.05c0.66,0,1.21-0.4,1.21-1.32v-2.34H183.09z"/>
	<path class="st0" d="M188.55,207.11l-0.06,0.62c-0.14,0.06-0.32,0.1-0.54,0.1c-0.47,0-0.79-0.17-0.88-0.65
		c-0.27,0.42-0.82,0.65-1.46,0.65c-0.81,0-1.41-0.38-1.41-1.14c0-0.67,0.55-1.16,1.69-1.36l1.1-0.2v-0.23
		c0-0.52-0.32-0.86-0.88-0.86c-0.54,0-0.94,0.23-1.12,0.78l-0.72-0.38c0.21-0.69,0.88-1.13,1.82-1.13c1.08,0,1.83,0.49,1.83,1.53
		v1.96c0,0.22,0.09,0.32,0.32,0.32C188.34,207.15,188.46,207.14,188.55,207.11z M186.98,206.32v-0.52l-0.94,0.19
		c-0.59,0.11-0.88,0.31-0.88,0.66c0,0.32,0.24,0.49,0.65,0.49C186.38,207.14,186.98,206.83,186.98,206.32z"/>
	<path class="st0" d="M192.02,207.47c-0.28,0.23-0.68,0.37-1.15,0.37c-0.75,0-1.32-0.34-1.33-1.23v-2.46h-0.82v-0.73h0.82v-1.01
		l0.93-0.26v1.27h1.52v0.73h-1.52v2.31c0,0.42,0.25,0.62,0.63,0.62c0.29,0,0.51-0.1,0.7-0.28L192.02,207.47z"/>
	<path class="st0" d="M192.69,202.11c0-0.36,0.23-0.57,0.62-0.57c0.4,0,0.62,0.21,0.62,0.57c0,0.36-0.22,0.58-0.62,0.58
		C192.91,202.69,192.69,202.48,192.69,202.11z M193.77,207.75h-0.93v-4.33h0.93V207.75z"/>
	<path class="st0" d="M199.14,204.95v2.81h-0.93v-2.51c0-0.86-0.4-1.14-0.93-1.14c-0.57,0-1.18,0.36-1.18,1.36v2.3h-0.93v-4.33H196
		l0.04,0.73c0.29-0.57,0.84-0.81,1.46-0.81C198.42,203.33,199.14,203.86,199.14,204.95z"/>
	<path class="st0" d="M204.41,208.19c0,0.9-0.97,1.43-2.23,1.43c-1.43,0-2.06-0.47-2.06-1.11c0-0.39,0.28-0.7,0.77-0.83
		c-0.34-0.16-0.61-0.42-0.61-0.82c0-0.45,0.27-0.73,0.68-0.87c-0.43-0.25-0.67-0.67-0.67-1.19c0-0.88,0.75-1.46,1.88-1.46
		c0.33,0,0.62,0.05,0.88,0.14c0.16-0.62,0.56-0.98,1.27-0.96l0.16,0.72c-0.56-0.02-0.89,0.15-1.02,0.44c0.38,0.26,0.6,0.65,0.6,1.13
		c0,0.88-0.75,1.46-1.88,1.46c-0.27,0-0.5-0.03-0.72-0.08c-0.29,0.07-0.42,0.22-0.42,0.48c0,0.27,0.21,0.42,0.54,0.42h1.45
		C203.9,207.08,204.41,207.49,204.41,208.19z M203.61,208.29c0-0.28-0.18-0.44-0.75-0.44h-1.17c-0.53,0-0.78,0.17-0.78,0.46
		c0,0.38,0.44,0.62,1.36,0.62C203.15,208.92,203.61,208.63,203.61,208.29z M201.24,204.8c0,0.49,0.4,0.82,0.93,0.82
		c0.54,0,0.94-0.33,0.94-0.82c0-0.49-0.4-0.82-0.94-0.82C201.64,203.98,201.24,204.31,201.24,204.8z"/>
	<path class="st0" d="M212.1,205.59c0,1.41-0.81,2.25-2.16,2.25s-2.16-0.84-2.16-2.25c0-1.41,0.81-2.25,2.16-2.25
		S212.1,204.17,212.1,205.59z M208.72,205.59c0,0.98,0.44,1.53,1.22,1.53c0.78,0,1.23-0.55,1.23-1.53s-0.45-1.53-1.23-1.53
		C209.16,204.06,208.72,204.61,208.72,205.59z"/>
	<path class="st0" d="M217.04,203.42l-1.72,4.33h-1.01l-1.73-4.33h1.02l1.22,3.58l1.26-3.58H217.04z"/>
	<path class="st0" d="M221.6,205.93h-3.17c0.1,0.76,0.55,1.17,1.26,1.17c0.57,0,0.95-0.21,1.09-0.59l0.77,0.32
		c-0.31,0.64-0.91,1.01-1.86,1.01c-1.37,0-2.18-0.84-2.18-2.25c0-1.41,0.76-2.25,2.12-2.25c1.3,0,2.01,0.87,2.01,2.12
		C221.63,205.62,221.62,205.82,221.6,205.93z M218.44,205.22h2.33c-0.09-0.73-0.49-1.15-1.14-1.15
		C218.94,204.07,218.53,204.48,218.44,205.22z"/>
	<path class="st0" d="M225.47,203.42l-0.15,0.85c-0.12-0.07-0.31-0.11-0.55-0.11c-0.52,0-1.09,0.42-1.09,1.3v2.3h-0.93v-4.33h0.79
		l0.09,0.77c0.23-0.56,0.69-0.86,1.36-0.86C225.16,203.33,225.34,203.36,225.47,203.42z"/>
	<path class="st0" d="M230.27,207.11l-0.06,0.62c-0.14,0.06-0.32,0.1-0.54,0.1c-0.47,0-0.79-0.17-0.88-0.65
		c-0.27,0.42-0.82,0.65-1.46,0.65c-0.81,0-1.41-0.38-1.41-1.14c0-0.67,0.55-1.16,1.69-1.36l1.1-0.2v-0.23
		c0-0.52-0.32-0.86-0.88-0.86c-0.54,0-0.94,0.23-1.12,0.78l-0.72-0.38c0.21-0.69,0.88-1.13,1.82-1.13c1.08,0,1.83,0.49,1.83,1.53
		v1.96c0,0.22,0.09,0.32,0.32,0.32C230.06,207.15,230.17,207.14,230.27,207.11z M228.7,206.32v-0.52l-0.94,0.19
		c-0.59,0.11-0.88,0.31-0.88,0.66c0,0.32,0.24,0.49,0.65,0.49C228.1,207.14,228.7,206.83,228.7,206.32z"/>
	<path class="st0" d="M232,206.49c0,0.42,0.1,0.57,0.45,0.57c0.22,0,0.35-0.03,0.57-0.11l-0.1,0.75c-0.19,0.1-0.47,0.15-0.72,0.15
		c-0.77,0-1.13-0.38-1.13-1.22v-5.15H232V206.49z"/>
	<path class="st0" d="M234.67,206.49c0,0.42,0.1,0.57,0.45,0.57c0.22,0,0.35-0.03,0.57-0.11l-0.1,0.75
		c-0.19,0.1-0.47,0.15-0.72,0.15c-0.77,0-1.13-0.38-1.13-1.22v-5.15h0.93V206.49z"/>
	<path class="st0" d="M243.2,205.58c0,1.42-0.75,2.26-1.92,2.26c-0.64,0-1.14-0.31-1.4-0.79v2.52h-0.93v-6.15h0.81l0.04,0.8
		c0.25-0.53,0.78-0.88,1.47-0.88C242.46,203.33,243.2,204.17,243.2,205.58z M242.27,205.59c0-0.94-0.45-1.51-1.2-1.51
		c-0.73,0-1.2,0.55-1.2,1.46v0.1c0,0.9,0.47,1.45,1.2,1.45C241.82,207.09,242.27,206.53,242.27,205.59z"/>
	<path class="st0" d="M248.41,207.11l-0.06,0.62c-0.14,0.06-0.32,0.1-0.54,0.1c-0.47,0-0.79-0.17-0.88-0.65
		c-0.27,0.42-0.82,0.65-1.46,0.65c-0.81,0-1.41-0.38-1.41-1.14c0-0.67,0.55-1.16,1.69-1.36l1.1-0.2v-0.23
		c0-0.52-0.32-0.86-0.88-0.86c-0.54,0-0.94,0.23-1.12,0.78l-0.72-0.38c0.21-0.69,0.88-1.13,1.82-1.13c1.08,0,1.83,0.49,1.83,1.53
		v1.96c0,0.22,0.09,0.32,0.32,0.32C248.21,207.15,248.32,207.14,248.41,207.11z M246.85,206.32v-0.52l-0.94,0.19
		c-0.59,0.11-0.88,0.31-0.88,0.66c0,0.32,0.24,0.49,0.65,0.49C246.25,207.14,246.85,206.83,246.85,206.32z"/>
	<path class="st0" d="M251.88,207.47c-0.28,0.23-0.68,0.37-1.15,0.37c-0.75,0-1.32-0.34-1.33-1.23v-2.46h-0.82v-0.73h0.82v-1.01
		l0.93-0.26v1.27h1.52v0.73h-1.52v2.31c0,0.42,0.25,0.62,0.63,0.62c0.29,0,0.51-0.1,0.7-0.28L251.88,207.47z"/>
	<path class="st0" d="M252.55,202.11c0-0.36,0.23-0.57,0.62-0.57c0.4,0,0.62,0.21,0.62,0.57c0,0.36-0.22,0.58-0.62,0.58
		C252.78,202.69,252.55,202.48,252.55,202.11z M253.63,207.75h-0.93v-4.33h0.93V207.75z"/>
	<path class="st0" d="M258.88,205.93h-3.17c0.1,0.76,0.55,1.17,1.26,1.17c0.57,0,0.95-0.21,1.09-0.59l0.77,0.32
		c-0.31,0.64-0.91,1.01-1.86,1.01c-1.37,0-2.18-0.84-2.18-2.25c0-1.41,0.76-2.25,2.12-2.25c1.3,0,2.01,0.87,2.01,2.12
		C258.91,205.62,258.9,205.82,258.88,205.93z M255.72,205.22h2.33c-0.09-0.73-0.49-1.15-1.14-1.15
		C256.22,204.07,255.81,204.48,255.72,205.22z"/>
	<path class="st0" d="M263.99,204.95v2.81h-0.93v-2.51c0-0.86-0.4-1.14-0.93-1.14c-0.57,0-1.18,0.36-1.18,1.36v2.3h-0.93v-4.33h0.82
		l0.04,0.73c0.29-0.57,0.84-0.81,1.46-0.81C263.28,203.33,263.99,203.86,263.99,204.95z"/>
	<path class="st0" d="M268.11,207.47c-0.28,0.23-0.68,0.37-1.15,0.37c-0.75,0-1.32-0.34-1.33-1.23v-2.46h-0.82v-0.73h0.82v-1.01
		l0.93-0.26v1.27h1.52v0.73h-1.52v2.31c0,0.42,0.25,0.62,0.63,0.62c0.29,0,0.51-0.1,0.7-0.28L268.11,207.47z"/>
	<path class="st0" d="M271.35,206.93l0.62-0.54c0.23,0.52,0.74,0.72,1.34,0.72c0.62,0,0.93-0.23,0.93-0.52
		c0-0.27-0.25-0.42-1.01-0.57c-1.29-0.24-1.74-0.62-1.74-1.34c0-0.7,0.66-1.34,1.82-1.34c0.96,0,1.51,0.31,1.82,0.98l-0.66,0.49
		c-0.22-0.52-0.59-0.74-1.15-0.74c-0.54,0-0.9,0.26-0.9,0.53c0,0.31,0.25,0.48,1.07,0.62c1.24,0.22,1.68,0.6,1.68,1.32
		c0,0.76-0.69,1.31-1.89,1.31C272.44,207.84,271.71,207.56,271.35,206.93z"/>
	<path class="st0" d="M280.32,207.11l-0.06,0.62c-0.14,0.06-0.32,0.1-0.54,0.1c-0.47,0-0.79-0.17-0.88-0.65
		c-0.27,0.42-0.82,0.65-1.46,0.65c-0.81,0-1.41-0.38-1.41-1.14c0-0.67,0.55-1.16,1.69-1.36l1.1-0.2v-0.23
		c0-0.52-0.32-0.86-0.88-0.86c-0.54,0-0.94,0.23-1.12,0.78l-0.72-0.38c0.21-0.69,0.88-1.13,1.82-1.13c1.08,0,1.83,0.49,1.83,1.53
		v1.96c0,0.22,0.09,0.32,0.32,0.32C280.11,207.15,280.22,207.14,280.32,207.11z M278.75,206.32v-0.52l-0.94,0.19
		c-0.59,0.11-0.88,0.31-0.88,0.66c0,0.32,0.24,0.49,0.65,0.49C278.15,207.14,278.75,206.83,278.75,206.32z"/>
	<path class="st0" d="M283.79,207.47c-0.28,0.23-0.68,0.37-1.15,0.37c-0.75,0-1.32-0.34-1.33-1.23v-2.46h-0.82v-0.73h0.82v-1.01
		l0.93-0.26v1.27h1.52v0.73h-1.52v2.31c0,0.42,0.25,0.62,0.63,0.62c0.29,0,0.51-0.1,0.7-0.28L283.79,207.47z"/>
	<path class="st0" d="M284.46,202.11c0-0.36,0.23-0.57,0.62-0.57c0.4,0,0.62,0.21,0.62,0.57c0,0.36-0.22,0.58-0.62,0.58
		C284.68,202.69,284.46,202.48,284.46,202.11z M285.54,207.75h-0.93v-4.33h0.93V207.75z"/>
	<path class="st0" d="M286.58,206.93l0.62-0.54c0.23,0.52,0.74,0.72,1.34,0.72c0.62,0,0.93-0.23,0.93-0.52
		c0-0.27-0.25-0.42-1.01-0.57c-1.29-0.24-1.74-0.62-1.74-1.34c0-0.7,0.66-1.34,1.82-1.34c0.96,0,1.51,0.31,1.82,0.98l-0.66,0.49
		c-0.22-0.52-0.59-0.74-1.15-0.74c-0.54,0-0.9,0.26-0.9,0.53c0,0.31,0.25,0.48,1.07,0.62c1.24,0.22,1.68,0.6,1.68,1.32
		c0,0.76-0.69,1.31-1.89,1.31C287.67,207.84,286.94,207.56,286.58,206.93z"/>
	<path class="st0" d="M292.72,203.42h1.4v0.73h-1.38v3.61h-0.93v-3.61H291v-0.73h0.81v-0.62c0-0.88,0.55-1.39,1.52-1.39
		c0.35,0,0.65,0.08,0.81,0.21l-0.17,0.68c-0.13-0.09-0.29-0.13-0.49-0.13c-0.49,0-0.76,0.21-0.76,0.7V203.42z"/>
	<path class="st0" d="M298.76,207.11l-0.06,0.62c-0.14,0.06-0.32,0.1-0.54,0.1c-0.47,0-0.79-0.17-0.88-0.65
		c-0.27,0.42-0.82,0.65-1.46,0.65c-0.81,0-1.41-0.38-1.41-1.14c0-0.67,0.55-1.16,1.69-1.36l1.1-0.2v-0.23
		c0-0.52-0.32-0.86-0.88-0.86c-0.54,0-0.94,0.23-1.12,0.78l-0.72-0.38c0.21-0.69,0.88-1.13,1.82-1.13c1.08,0,1.83,0.49,1.83,1.53
		v1.96c0,0.22,0.09,0.32,0.32,0.32C298.55,207.15,298.66,207.14,298.76,207.11z M297.19,206.32v-0.52l-0.94,0.19
		c-0.59,0.11-0.88,0.31-0.88,0.66c0,0.32,0.24,0.49,0.65,0.49C296.59,207.14,297.19,206.83,297.19,206.32z"/>
	<path class="st0" d="M303.37,204.55l-0.87,0.35c-0.15-0.54-0.48-0.82-1.01-0.82c-0.77,0-1.22,0.55-1.22,1.53s0.46,1.51,1.22,1.51
		c0.6,0,0.95-0.3,1.07-0.84l0.85,0.29c-0.24,0.79-0.89,1.29-1.9,1.29c-1.37,0-2.18-0.84-2.18-2.25c0-1.41,0.81-2.25,2.16-2.25
		C302.54,203.33,303.1,203.84,303.37,204.55z"/>
	<path class="st0" d="M307.26,207.47c-0.28,0.23-0.68,0.37-1.15,0.37c-0.75,0-1.32-0.34-1.33-1.23v-2.46h-0.82v-0.73h0.82v-1.01
		l0.93-0.26v1.27h1.52v0.73h-1.52v2.31c0,0.42,0.25,0.62,0.63,0.62c0.29,0,0.51-0.1,0.7-0.28L307.26,207.47z"/>
	<path class="st0" d="M307.92,202.11c0-0.36,0.23-0.57,0.62-0.57c0.4,0,0.62,0.21,0.62,0.57c0,0.36-0.22,0.58-0.62,0.58
		C308.15,202.69,307.92,202.48,307.92,202.11z M309.01,207.75h-0.93v-4.33h0.93V207.75z"/>
	<path class="st0" d="M314.48,205.59c0,1.41-0.81,2.25-2.16,2.25s-2.16-0.84-2.16-2.25c0-1.41,0.81-2.25,2.16-2.25
		S314.48,204.17,314.48,205.59z M311.1,205.59c0,0.98,0.44,1.53,1.22,1.53c0.78,0,1.23-0.55,1.23-1.53s-0.45-1.53-1.23-1.53
		C311.54,204.06,311.1,204.61,311.1,205.59z"/>
	<path class="st0" d="M319.58,204.95v2.81h-0.93v-2.51c0-0.86-0.4-1.14-0.93-1.14c-0.57,0-1.18,0.36-1.18,1.36v2.3h-0.93v-4.33h0.82
		l0.04,0.73c0.29-0.57,0.84-0.81,1.46-0.81C318.87,203.33,319.58,203.86,319.58,204.95z"/>
	<path class="st0" d="M330.12,203.42l-1.45,4.33h-1.01l-1.09-3.28l-1.04,3.28h-1.01l-1.45-4.33h1.01l0.98,3.46l1.08-3.46h0.92
		l1.08,3.46l0.98-3.46H330.12z"/>
	<path class="st0" d="M330.88,202.11c0-0.36,0.23-0.57,0.62-0.57c0.4,0,0.62,0.21,0.62,0.57c0,0.36-0.22,0.58-0.62,0.58
		C331.11,202.69,330.88,202.48,330.88,202.11z M331.96,207.75h-0.93v-4.33h0.93V207.75z"/>
	<path class="st0" d="M336.18,207.47c-0.28,0.23-0.68,0.37-1.15,0.37c-0.75,0-1.32-0.34-1.33-1.23v-2.46h-0.82v-0.73h0.82v-1.01
		l0.93-0.26v1.27h1.52v0.73h-1.52v2.31c0,0.42,0.25,0.62,0.63,0.62c0.29,0,0.51-0.1,0.7-0.28L336.18,207.47z"/>
	<path class="st0" d="M341,204.95v2.81h-0.93v-2.51c0-0.86-0.4-1.14-0.93-1.14c-0.57,0-1.18,0.37-1.18,1.37v2.29h-0.93v-6.28h0.93
		v2.64c0.29-0.54,0.8-0.78,1.4-0.78C340.29,203.33,341,203.86,341,204.95z"/>
	<path class="st0" d="M40.36,217.81c-1.66,0-2.7-1.13-2.7-2.95c0-1.82,1.05-2.95,2.69-2.95c1.14,0,1.94,0.48,2.29,1.4l-0.88,0.39
		c-0.23-0.68-0.65-0.99-1.36-0.99c-1.07,0-1.77,0.78-1.77,2.14c0,1.35,0.65,2.14,1.73,2.14c0.73,0,1.26-0.36,1.47-1.09l0.88,0.29
		C42.37,217.26,41.48,217.81,40.36,217.81z"/>
	<path class="st0" d="M47.81,215.56c0,1.41-0.81,2.25-2.16,2.25s-2.16-0.84-2.16-2.25c0-1.41,0.81-2.25,2.16-2.25
		S47.81,214.15,47.81,215.56z M44.42,215.56c0,0.98,0.44,1.53,1.22,1.53c0.78,0,1.23-0.55,1.23-1.53s-0.45-1.53-1.23-1.53
		C44.87,214.03,44.42,214.58,44.42,215.56z"/>
	<path class="st0" d="M53.02,215.56c0,1.41-0.81,2.25-2.16,2.25s-2.16-0.84-2.16-2.25c0-1.41,0.81-2.25,2.16-2.25
		S53.02,214.15,53.02,215.56z M49.64,215.56c0,0.98,0.44,1.53,1.22,1.53c0.78,0,1.23-0.55,1.23-1.53s-0.45-1.53-1.23-1.53
		C50.08,214.03,49.64,214.58,49.64,215.56z"/>
	<path class="st0" d="M55.06,216.46c0,0.42,0.1,0.57,0.45,0.57c0.22,0,0.35-0.03,0.57-0.11l-0.1,0.75c-0.19,0.1-0.47,0.15-0.72,0.15
		c-0.77,0-1.13-0.38-1.13-1.22v-5.15h0.93V216.46z"/>
	<path class="st0" d="M61.19,213.08l-0.7,0.63c-0.32-0.68-0.76-0.99-1.58-0.99s-1.26,0.36-1.26,0.85c0,0.46,0.36,0.7,1.46,0.9
		c1.53,0.27,2.1,0.75,2.1,1.66c0,1.02-0.93,1.67-2.28,1.67c-1.25,0-2.02-0.45-2.46-1.16l0.65-0.65c0.37,0.69,0.94,1,1.8,1
		c0.81,0,1.32-0.29,1.32-0.81c0-0.41-0.35-0.64-1.42-0.84c-1.57-0.29-2.15-0.77-2.15-1.68c0-0.97,0.83-1.75,2.23-1.75
		C59.96,211.92,60.69,212.3,61.19,213.08z"/>
	<path class="st0" d="M66.13,214.52l-0.87,0.35c-0.15-0.54-0.48-0.82-1.01-0.82c-0.77,0-1.22,0.55-1.22,1.53s0.46,1.51,1.22,1.51
		c0.6,0,0.95-0.3,1.07-0.84l0.85,0.29c-0.24,0.79-0.89,1.29-1.9,1.29c-1.37,0-2.18-0.84-2.18-2.25c0-1.41,0.81-2.25,2.16-2.25
		C65.3,213.3,65.86,213.81,66.13,214.52z"/>
	<path class="st0" d="M71.14,213.39v4.33h-0.82l-0.04-0.7c-0.29,0.55-0.83,0.79-1.53,0.79c-0.87,0-1.56-0.44-1.56-1.57v-2.85h0.93
		V216c0,0.81,0.35,1.05,0.89,1.05c0.66,0,1.21-0.4,1.21-1.32v-2.34H71.14z"/>
	<path class="st0" d="M73.43,216.46c0,0.42,0.1,0.57,0.45,0.57c0.22,0,0.35-0.03,0.57-0.11l-0.1,0.75c-0.19,0.1-0.47,0.15-0.72,0.15
		c-0.77,0-1.13-0.38-1.13-1.22v-5.15h0.93V216.46z"/>
	<path class="st0" d="M79.44,215.55c0,1.42-0.75,2.26-1.92,2.26c-0.64,0-1.14-0.31-1.4-0.79v2.52h-0.93v-6.15h0.81l0.04,0.8
		c0.25-0.53,0.78-0.88,1.47-0.88C78.71,213.3,79.44,214.14,79.44,215.55z M78.51,215.56c0-0.94-0.45-1.51-1.2-1.51
		c-0.73,0-1.2,0.55-1.2,1.46v0.1c0,0.9,0.47,1.45,1.2,1.45C78.06,217.06,78.51,216.5,78.51,215.56z"/>
	<path class="st0" d="M83.35,217.44c-0.28,0.23-0.68,0.37-1.15,0.37c-0.75,0-1.32-0.34-1.33-1.23v-2.46h-0.82v-0.73h0.82v-1.01
		l0.93-0.26v1.27h1.52v0.73H81.8v2.31c0,0.42,0.25,0.62,0.63,0.62c0.29,0,0.51-0.1,0.7-0.28L83.35,217.44z"/>
	<path class="st0" d="M84.02,212.08c0-0.36,0.23-0.57,0.62-0.57c0.4,0,0.62,0.21,0.62,0.57c0,0.36-0.22,0.58-0.62,0.58
		C84.25,212.66,84.02,212.45,84.02,212.08z M85.1,217.72h-0.93v-4.33h0.93V217.72z"/>
	<path class="st0" d="M90.47,214.92v2.81h-0.93v-2.51c0-0.86-0.4-1.14-0.93-1.14c-0.57,0-1.18,0.36-1.18,1.36v2.3h-0.93v-4.33h0.82
		l0.04,0.73c0.29-0.57,0.84-0.81,1.46-0.81C89.76,213.3,90.47,213.83,90.47,214.92z"/>
	<path class="st0" d="M95.74,218.16c0,0.9-0.97,1.43-2.23,1.43c-1.43,0-2.06-0.47-2.06-1.11c0-0.39,0.28-0.7,0.77-0.83
		c-0.34-0.16-0.61-0.42-0.61-0.82c0-0.45,0.27-0.73,0.68-0.87c-0.43-0.25-0.67-0.67-0.67-1.19c0-0.88,0.75-1.46,1.88-1.46
		c0.33,0,0.62,0.05,0.88,0.14c0.16-0.62,0.56-0.98,1.27-0.96l0.16,0.72c-0.56-0.02-0.89,0.15-1.02,0.44c0.38,0.26,0.6,0.65,0.6,1.13
		c0,0.88-0.75,1.46-1.88,1.46c-0.27,0-0.5-0.03-0.72-0.08c-0.29,0.07-0.42,0.22-0.42,0.48c0,0.27,0.21,0.42,0.54,0.42h1.45
		C95.23,217.05,95.74,217.46,95.74,218.16z M94.94,218.26c0-0.28-0.18-0.44-0.75-0.44h-1.17c-0.53,0-0.78,0.17-0.78,0.46
		c0,0.38,0.44,0.62,1.36,0.62C94.48,218.89,94.94,218.6,94.94,218.26z M92.58,214.77c0,0.49,0.4,0.82,0.93,0.82
		c0.54,0,0.94-0.33,0.94-0.82c0-0.49-0.4-0.82-0.94-0.82C92.98,213.95,92.58,214.28,92.58,214.77z"/>
	<path class="st0" d="M99.64,213.17c0,1.04-0.68,1.72-1.73,1.72c-1.05,0-1.73-0.68-1.73-1.72c0-1.04,0.68-1.72,1.73-1.72
		C98.96,211.45,99.64,212.13,99.64,213.17z M99.25,213.17c0-0.82-0.53-1.36-1.34-1.36c-0.82,0-1.35,0.54-1.35,1.36
		s0.53,1.36,1.35,1.36C98.73,214.53,99.25,213.99,99.25,213.17z M98.29,213.4l0.48,0.7h-0.45l-0.41-0.66h-0.28v0.66h-0.39v-1.86h0.8
		c0.4,0,0.69,0.24,0.69,0.6C98.73,213.13,98.56,213.33,98.29,213.4z M97.62,213.16H98c0.22,0,0.34-0.1,0.34-0.3s-0.12-0.3-0.34-0.3
		h-0.37V213.16z"/>
	<path class="st0" d="M107.48,215.56c0,1.41-0.81,2.25-2.16,2.25s-2.16-0.84-2.16-2.25c0-1.41,0.81-2.25,2.16-2.25
		S107.48,214.15,107.48,215.56z M104.1,215.56c0,0.98,0.44,1.53,1.22,1.53c0.78,0,1.23-0.55,1.23-1.53s-0.45-1.53-1.23-1.53
		C104.54,214.03,104.1,214.58,104.1,215.56z"/>
	<path class="st0" d="M112.59,214.92v2.81h-0.93v-2.51c0-0.86-0.4-1.14-0.93-1.14c-0.57,0-1.18,0.36-1.18,1.36v2.3h-0.93v-4.33h0.82
		l0.04,0.73c0.29-0.57,0.84-0.81,1.46-0.81C111.88,213.3,112.59,213.83,112.59,214.92z"/>
	<path class="st0" d="M120.79,217.08l-0.06,0.62c-0.14,0.06-0.32,0.1-0.54,0.1c-0.47,0-0.79-0.17-0.88-0.65
		c-0.27,0.42-0.82,0.65-1.46,0.65c-0.81,0-1.41-0.38-1.41-1.14c0-0.67,0.55-1.16,1.69-1.36l1.1-0.2v-0.23
		c0-0.52-0.32-0.86-0.88-0.86c-0.54,0-0.94,0.23-1.12,0.78l-0.72-0.38c0.21-0.69,0.88-1.13,1.82-1.13c1.08,0,1.83,0.49,1.83,1.53
		v1.96c0,0.22,0.09,0.32,0.32,0.32C120.58,217.12,120.69,217.11,120.79,217.08z M119.22,216.29v-0.52l-0.94,0.19
		c-0.59,0.11-0.88,0.31-0.88,0.66c0,0.32,0.24,0.49,0.65,0.49C118.62,217.11,119.22,216.81,119.22,216.29z"/>
	<path class="st0" d="M125.32,212.84v0.55h1.4v0.73h-1.38v3.61h-0.93v-3.61h-0.81v-0.73h0.81v-0.62c0-0.88,0.55-1.39,1.52-1.39
		c0.35,0,0.65,0.08,0.81,0.21l-0.17,0.68c-0.13-0.09-0.29-0.13-0.49-0.13C125.6,212.13,125.32,212.34,125.32,212.84z M128.64,212.08
		c0,0.36-0.22,0.58-0.62,0.58c-0.4,0-0.62-0.22-0.62-0.58c0-0.36,0.23-0.57,0.62-0.57C128.42,211.51,128.64,211.72,128.64,212.08z
		 M127.56,213.39h0.93v4.33h-0.93V213.39z"/>
	<path class="st0" d="M133.71,213.39l-1.72,4.33h-1.01l-1.73-4.33h1.02l1.22,3.58l1.26-3.58H133.71z"/>
	<path class="st0" d="M138.27,215.9h-3.17c0.1,0.76,0.55,1.17,1.26,1.17c0.57,0,0.95-0.21,1.09-0.59l0.77,0.32
		c-0.31,0.64-0.91,1.01-1.86,1.01c-1.37,0-2.18-0.84-2.18-2.25c0-1.41,0.76-2.25,2.11-2.25c1.3,0,2.01,0.87,2.01,2.12
		C138.31,215.59,138.29,215.79,138.27,215.9z M135.11,215.19h2.33c-0.09-0.73-0.49-1.15-1.14-1.15
		C135.61,214.04,135.21,214.45,135.11,215.19z"/>
	<path class="st0" d="M146.45,215.55c0,1.42-0.75,2.26-1.92,2.26c-0.64,0-1.14-0.31-1.4-0.79v2.52h-0.93v-6.15h0.81l0.04,0.8
		c0.25-0.53,0.78-0.88,1.47-0.88C145.71,213.3,146.45,214.14,146.45,215.55z M145.52,215.56c0-0.94-0.45-1.51-1.2-1.51
		c-0.73,0-1.2,0.55-1.2,1.46v0.1c0,0.9,0.47,1.45,1.2,1.45C145.07,217.06,145.52,216.5,145.52,215.56z"/>
	<path class="st0" d="M151.68,215.56c0,1.41-0.81,2.25-2.16,2.25s-2.16-0.84-2.16-2.25c0-1.41,0.81-2.25,2.16-2.25
		S151.68,214.15,151.68,215.56z M148.3,215.56c0,0.98,0.44,1.53,1.22,1.53c0.78,0,1.23-0.55,1.23-1.53s-0.45-1.53-1.23-1.53
		C148.74,214.03,148.3,214.58,148.3,215.56z"/>
	<path class="st0" d="M152.67,212.08c0-0.36,0.23-0.57,0.62-0.57c0.4,0,0.62,0.21,0.62,0.57c0,0.36-0.22,0.58-0.62,0.58
		C152.89,212.66,152.67,212.45,152.67,212.08z M153.75,217.72h-0.93v-4.33h0.93V217.72z"/>
	<path class="st0" d="M159.12,214.92v2.81h-0.93v-2.51c0-0.86-0.4-1.14-0.93-1.14c-0.57,0-1.18,0.36-1.18,1.36v2.3h-0.93v-4.33h0.82
		l0.04,0.73c0.29-0.57,0.84-0.81,1.46-0.81C158.41,213.3,159.12,213.83,159.12,214.92z"/>
	<path class="st0" d="M163.23,217.44c-0.28,0.23-0.68,0.37-1.15,0.37c-0.75,0-1.32-0.34-1.33-1.23v-2.46h-0.82v-0.73h0.82v-1.01
		l0.93-0.26v1.27h1.52v0.73h-1.52v2.31c0,0.42,0.25,0.62,0.63,0.62c0.29,0,0.51-0.1,0.7-0.28L163.23,217.44z"/>
	<path class="st0" d="M166.47,216.9l0.62-0.54c0.23,0.52,0.74,0.72,1.34,0.72c0.62,0,0.93-0.23,0.93-0.52
		c0-0.27-0.25-0.42-1.01-0.57c-1.29-0.24-1.74-0.62-1.74-1.34c0-0.7,0.66-1.34,1.82-1.34c0.96,0,1.51,0.31,1.82,0.98l-0.66,0.49
		c-0.22-0.52-0.59-0.74-1.15-0.74c-0.54,0-0.9,0.26-0.9,0.53c0,0.31,0.25,0.48,1.07,0.62c1.24,0.22,1.68,0.6,1.68,1.32
		c0,0.76-0.69,1.31-1.89,1.31C167.56,217.81,166.83,217.53,166.47,216.9z"/>
	<path class="st0" d="M175.16,214.52l-0.87,0.35c-0.15-0.54-0.48-0.82-1.01-0.82c-0.77,0-1.22,0.55-1.22,1.53s0.46,1.51,1.22,1.51
		c0.6,0,0.95-0.3,1.07-0.84l0.85,0.29c-0.24,0.79-0.89,1.29-1.9,1.29c-1.37,0-2.18-0.84-2.18-2.25c0-1.41,0.81-2.25,2.16-2.25
		C174.32,213.3,174.89,213.81,175.16,214.52z"/>
	<path class="st0" d="M180.3,217.08l-0.06,0.62c-0.14,0.06-0.32,0.1-0.54,0.1c-0.47,0-0.79-0.17-0.88-0.65
		c-0.27,0.42-0.82,0.65-1.46,0.65c-0.81,0-1.41-0.38-1.41-1.14c0-0.67,0.55-1.16,1.69-1.36l1.1-0.2v-0.23
		c0-0.52-0.32-0.86-0.88-0.86c-0.54,0-0.94,0.23-1.12,0.78l-0.72-0.38c0.21-0.69,0.88-1.13,1.82-1.13c1.08,0,1.83,0.49,1.83,1.53
		v1.96c0,0.22,0.09,0.32,0.32,0.32C180.09,217.12,180.2,217.11,180.3,217.08z M178.73,216.29v-0.52l-0.94,0.19
		c-0.59,0.11-0.88,0.31-0.88,0.66c0,0.32,0.24,0.49,0.65,0.49C178.13,217.11,178.73,216.81,178.73,216.29z"/>
	<path class="st0" d="M182.03,216.46c0,0.42,0.1,0.57,0.45,0.57c0.22,0,0.35-0.03,0.57-0.11l-0.1,0.75
		c-0.19,0.1-0.47,0.15-0.72,0.15c-0.77,0-1.13-0.38-1.13-1.22v-5.15h0.93V216.46z"/>
	<path class="st0" d="M187.63,215.9h-3.17c0.1,0.76,0.55,1.17,1.26,1.17c0.57,0,0.95-0.21,1.09-0.59l0.77,0.32
		c-0.31,0.64-0.91,1.01-1.86,1.01c-1.37,0-2.18-0.84-2.18-2.25c0-1.41,0.76-2.25,2.12-2.25c1.3,0,2.01,0.87,2.01,2.12
		C187.67,215.59,187.65,215.79,187.63,215.9z M184.47,215.19h2.33c-0.09-0.73-0.49-1.15-1.14-1.15
		C184.97,214.04,184.56,214.45,184.47,215.19z"/>
	<path class="st0" d="M193.78,211.74c-1.09,1-1.5,2.01-1.5,3.58c0,1.57,0.41,2.57,1.5,3.57l-0.49,0.49
		c-1.26-1.01-1.91-2.38-1.91-4.06c0-1.68,0.65-3.05,1.91-4.07L193.78,211.74z"/>
	<path class="st0" d="M198.36,214.92v2.81h-0.93v-2.51c0-0.86-0.4-1.14-0.93-1.14c-0.57,0-1.18,0.36-1.18,1.36v2.3h-0.93v-4.33h0.82
		l0.04,0.73c0.29-0.57,0.84-0.81,1.46-0.81C197.65,213.3,198.36,213.83,198.36,214.92z"/>
	<path class="st0" d="M203.69,214.55h-4.13v-0.76h4.13V214.55z M203.69,216.33h-4.13v-0.76h4.13V216.33z"/>
	<path class="st0" d="M207.01,212v5.72h-0.91v-4.23c0-0.14,0.01-0.29,0.02-0.46c-0.4,0.38-0.93,0.68-1.45,0.79l-0.17-0.81
		c0.46-0.06,1.43-0.58,1.73-1.01H207.01z"/>
	<path class="st0" d="M208.3,214.86c0-1.92,0.75-2.95,2.2-2.95c1.45,0,2.21,1.02,2.21,2.95c0,1.92-0.76,2.95-2.21,2.95
		C209.05,217.81,208.3,216.79,208.3,214.86z M211.77,214.86c0-1.44-0.43-2.16-1.27-2.16s-1.26,0.72-1.26,2.16s0.42,2.16,1.26,2.16
		S211.77,216.3,211.77,214.86z"/>
	<path class="st0" d="M217.93,213.14l-0.81,0.39c-0.16-0.5-0.49-0.81-1.11-0.81c-0.84,0-1.41,0.94-1.41,2.2v0.16h0.03
		c0.19-0.67,0.88-0.96,1.51-0.96c1.14,0,1.91,0.71,1.91,1.83c0,1.14-0.78,1.86-2.04,1.86c-1.46,0-2.26-1.17-2.26-2.95
		c0-1.95,1-2.95,2.31-2.95C216.98,211.92,217.59,212.26,217.93,213.14z M214.89,215.94c0,0.65,0.44,1.07,1.12,1.07
		c0.71,0,1.12-0.4,1.12-1.07c0-0.65-0.41-1.05-1.12-1.05C215.33,214.89,214.89,215.32,214.89,215.94z"/>
	<path class="st0" d="M220.91,215.32c0,1.67-0.65,3.04-1.91,4.06l-0.49-0.49c1.09-1,1.5-2,1.5-3.57c0-1.57-0.41-2.58-1.5-3.58
		l0.49-0.49C220.26,212.26,220.91,213.63,220.91,215.32z"/>
	<path class="st0" d="M223.25,217.18c0,0.38-0.25,0.63-0.65,0.63c-0.4,0-0.66-0.25-0.66-0.63c0-0.38,0.26-0.62,0.66-0.62
		C222.99,216.55,223.25,216.8,223.25,217.18z"/>
</g>
</svg>
