<svg id="Layer_1" xmlns="http://www.w3.org/2000/svg" viewBox="0 0 970 250"><style>.st0{fill:#fff}</style><path class="st0" d="M40.02 88.53h-3.33l.2-2.93h3.33l1-13.98h-3.33l.2-2.93h3.33l.87-12.45h3.2l-.87 12.45h4.93l.87-12.45h3.13l-.87 12.45h3.46l-.2 2.93h-3.46l-1 13.98H55l-.27 2.93h-3.46l-.93 13.65h-3.13l.93-13.65h-4.93l-.93 13.65h-3.2l.94-13.65zm8.32-2.93l1-13.98h-4.93l-1 13.98h4.93zM66.59 60.76l-5.86 3.6v-3.73l7.33-4.53h2.46v46.08h-3.93V60.76zM84.01 67.14h3.96l5.54 25.64h.1V67.14h2.74v35.04h-3.3l-6.2-28.89h-.1v28.89h-2.74V67.14zM102.08 96.34V72.98c0-4.06 2.18-6.35 5.89-6.35s5.89 2.29 5.89 6.35v23.36c0 4.06-2.18 6.35-5.89 6.35s-5.89-2.29-5.89-6.35zm8.74-.51V73.48c0-2.95-.81-4.11-2.84-4.11-2.08 0-2.84 1.17-2.84 4.11v22.34c0 2.95.76 4.11 2.84 4.11 2.03.01 2.84-1.16 2.84-4.1zM119.6 67.14h3.96l5.54 25.64h.1V67.14h2.74v35.04h-3.3l-6.2-28.89h-.1v28.89h-2.74V67.14zM137.32 96.44V90.3h2.95v5.59c0 2.89.81 4.06 2.84 4.06 2.08 0 2.89-1.17 2.89-4.06V90.6c0-2.39-.66-3.55-2.39-4.67l-2.69-1.73c-2.59-1.68-3.61-3.61-3.61-7.01v-4.52c0-3.86 2.08-6.04 5.69-6.04s5.69 2.18 5.69 6.04v4.52h-2.95v-4.01c0-2.74-.76-3.81-2.69-3.81s-2.69 1.07-2.69 3.81v3.81c0 2.39.66 3.55 2.39 4.67l2.69 1.73c2.59 1.68 3.61 3.61 3.61 7.01v6.04c0 4.01-2.18 6.25-5.89 6.25s-5.84-2.24-5.84-6.25zM154.23 96.54v-29.4h3.05v28.84c0 2.84.71 3.96 2.74 3.96s2.74-1.12 2.74-3.96V67.14h2.95v29.4c0 3.91-2.13 6.14-5.74 6.14s-5.74-2.23-5.74-6.14zM171.55 67.14h5.64c4.06 0 5.99 2.08 5.99 6.35v4.47c0 2.84-.91 4.57-2.74 5.38v.1c1.83.81 2.74 2.54 2.74 5.43v13.3h-3.05v-13.1c0-3.25-.91-4.21-3.81-4.21h-1.73v17.32h-3.05V67.14zm5.28 15.08c2.54 0 3.3-.96 3.3-4.21V74c0-3.25-.76-4.21-3.3-4.21h-2.23v12.44h2.23zM188.66 97.2V72.93c0-4.01 2.18-6.3 5.84-6.3 3.71 0 5.79 2.29 5.79 6.3v3.86h-2.89v-3.3c0-2.95-.81-4.11-2.84-4.11-2.08 0-2.84 1.17-2.84 4.11v23.36c0 2.08.76 3.1 2.44 3.1 2.08 0 3.25-1.57 3.25-4.42V85.47h-2.84v-2.64h5.89v19.35h-2.59v-2.49h-.15c-.81 1.93-2.29 3-4.37 3-2.96-.01-4.69-2.09-4.69-5.49zM206.03 67.14h3.05v35.04h-3.05V67.14zM214.81 96.64V72.67c0-3.86 2.03-6.04 5.69-6.04 3.71 0 5.74 2.18 5.74 6.04v5.74h-2.89v-5.23c0-2.74-.81-3.81-2.74-3.81-1.98 0-2.74 1.07-2.74 3.81v22.95c0 2.74.76 3.81 2.74 3.81 1.93 0 2.74-1.07 2.74-3.81v-7.06h2.89v7.57c0 3.86-2.03 6.04-5.74 6.04-3.66 0-5.69-2.18-5.69-6.04zM234.87 67.14h4.01l4.42 35.04h-3.1l-1.02-8.68h-4.77l-1.02 8.68h-2.95l4.43-35.04zm4.01 23.71l-2.03-18.89h-.1l-2.03 18.89h4.16zM248.07 67.14h3.05v32.4h6.5v2.64h-9.55V67.14zM37.64 113.3h10.05v2.64h-7.01v12.75h6.09v2.64h-6.09v17.01h-3.05V113.3zM55.66 113.3h4.01l4.42 35.04H61l-1.02-8.68h-4.77l-1.02 8.68h-2.95l4.42-35.04zm4.02 23.71l-2.03-18.89h-.1l-2.03 18.89h4.16zM71.91 115.94h-4.27v-2.64h11.58v2.64h-4.27v32.4H71.9v-32.4zM92.32 113.3h5.64c4.06 0 5.99 2.08 5.99 6.35v4.47c0 2.84-.91 4.57-2.74 5.38v.1c1.83.81 2.74 2.54 2.74 5.43v13.3h-3.05v-13.1c0-3.25-.91-4.21-3.81-4.21h-1.73v17.32h-3.05V113.3zm5.29 15.08c2.54 0 3.3-.96 3.3-4.21v-4.01c0-3.25-.76-4.21-3.3-4.21h-2.23v12.44h2.23zM109.64 113.3h10.05v2.64h-7.01v12.24h6.09v2.64h-6.09v14.88h7.01v2.64h-10.05V113.3zM124.62 113.3h5.79c4.06 0 5.99 2.08 5.99 6.35v22.34c0 4.27-1.93 6.35-5.99 6.35h-5.79V113.3zm5.43 32.4c2.54 0 3.3-.96 3.3-4.21v-21.33c0-3.25-.76-4.21-3.3-4.21h-2.39v29.76h2.39zM141.99 142.7v-29.4h3.05v28.84c0 2.84.71 3.96 2.74 3.96s2.74-1.12 2.74-3.96V113.3h2.95v29.4c0 3.91-2.13 6.14-5.74 6.14s-5.74-2.23-5.74-6.14zM159.1 142.8v-23.97c0-3.86 2.03-6.04 5.69-6.04 3.71 0 5.74 2.18 5.74 6.04v5.74h-2.89v-5.23c0-2.74-.81-3.81-2.74-3.81-1.98 0-2.74 1.07-2.74 3.81v22.95c0 2.74.76 3.81 2.74 3.81 1.93 0 2.74-1.07 2.74-3.81v-7.06h2.89v7.57c0 3.86-2.03 6.04-5.74 6.04-3.66.01-5.69-2.18-5.69-6.04zM178.95 115.94h-4.27v-2.64h11.58v2.64H182v32.4h-3.05v-32.4zM190.99 113.3h3.05v35.04h-3.05V113.3zM199.77 142.5v-23.36c0-4.06 2.18-6.35 5.89-6.35s5.89 2.29 5.89 6.35v23.36c0 4.06-2.18 6.35-5.89 6.35s-5.89-2.29-5.89-6.35zm8.73-.51v-22.34c0-2.95-.81-4.11-2.84-4.11-2.08 0-2.84 1.17-2.84 4.11v22.34c0 2.95.76 4.11 2.84 4.11 2.03 0 2.84-1.16 2.84-4.11zM217.29 113.3h3.96l5.54 25.64h.1V113.3h2.74v35.04h-3.3l-6.2-28.89h-.1v28.89h-2.74V113.3zM246.99 115.94h-4.27v-2.64h11.58v2.64h-4.27v32.4h-3.05v-32.4zM259.03 113.3h5.64c4.06 0 5.99 2.08 5.99 6.35v4.47c0 2.84-.91 4.57-2.74 5.38v.1c1.83.81 2.74 2.54 2.74 5.43v13.3h-3.05v-13.1c0-3.25-.91-4.21-3.81-4.21h-1.73v17.32h-3.05V113.3zm5.28 15.08c2.54 0 3.3-.96 3.3-4.21v-4.01c0-3.25-.76-4.21-3.3-4.21h-2.23v12.44h2.23zM276.34 113.3h10.05v2.64h-7.01v12.24h6.09v2.64h-6.09v14.88h7.01v2.64h-10.05V113.3zM294.57 113.3h4.01l4.42 35.04h-3.1l-1.02-8.68h-4.77l-1.02 8.68h-2.95l4.43-35.04zm4.01 23.71l-2.03-18.89h-.1l-2.03 18.89h4.16zM310.82 115.94h-4.27v-2.64h11.58v2.64h-4.27v32.4h-3.05v-32.4zM322.85 113.3h4.82l3.91 25.85h.1l3.91-25.85h5.03v35.04h-3.05v-31.33h-.1l-4.72 31.33h-2.39l-4.72-31.33h-.1v31.33h-2.69V113.3zM346.57 113.3h10.05v2.64h-7.01v12.24h6.09v2.64h-6.09v14.88h7.01v2.64h-10.05V113.3zM361.55 113.3h3.96l5.54 25.64h.1V113.3h2.74v35.04h-3.3l-6.2-28.89h-.1v28.89h-2.74V113.3zM382.87 115.94h-4.27v-2.64h11.58v2.64h-4.27v32.4h-3.05v-32.4zM393.89 144.17h3.4v4.16h-3.4v-4.16zM398.91 115.86l-2.55 1.6-.68-1.12 2.66-1.42-2.66-1.39.68-1.12 2.55 1.6-.15-2.99h1.33l-.15 2.99 2.55-1.6.68 1.12-2.66 1.42 2.66 1.39-.68 1.12-2.55-1.6.15 2.99h-1.33l.15-2.99z"/></svg>