<svg id="Layer_1" xmlns="http://www.w3.org/2000/svg" viewBox="0 0 970 250"><style>.st0{fill:#fff}</style><path class="st0" d="M35.79 216.11l.31.87-1.46.47.93 1.25-.74.55-.97-1.3-.96 1.3-.74-.55.93-1.25-1.46-.47.31-.87 1.46.47v-1.48h.92v1.48l1.47-.47zM44.27 221.97c-.32.44-.74.79-1.25 1.06s-1.13.41-1.85.41c-.62 0-1.19-.11-1.72-.32-.52-.21-.98-.51-1.36-.88-.38-.38-.68-.83-.89-1.36-.21-.52-.32-1.1-.32-1.73 0-.64.11-1.22.33-1.74.22-.52.52-.97.91-1.34.39-.37.84-.66 1.37-.87.53-.21 1.1-.31 1.72-.31.28 0 .56.03.84.08.28.05.56.13.82.24s.5.24.71.4.4.34.55.55l-.9.69c-.2-.28-.48-.5-.84-.68-.36-.18-.76-.27-1.18-.27-.47 0-.9.09-1.28.26s-.7.41-.97.71-.48.65-.62 1.04-.22.81-.22 1.26c0 .46.07.89.21 1.29.14.4.34.75.61 1.04s.59.53.97.69c.38.17.8.25 1.27.25.46 0 .88-.09 1.25-.28.38-.18.69-.45.93-.8l.91.61zM50.52 220.5c0 .42-.07.81-.22 1.16a2.773 2.773 0 0 1-1.56 1.51c-.36.14-.75.21-1.16.21-.41 0-.8-.07-1.16-.21-.36-.14-.67-.34-.93-.6-.26-.26-.47-.56-.61-.91-.15-.35-.22-.74-.22-1.16 0-.42.07-.81.22-1.16.15-.35.35-.65.61-.9s.57-.45.93-.59c.36-.14.75-.21 1.16-.21.41 0 .8.07 1.16.21.36.14.67.34.94.59.26.25.47.55.62.9s.22.74.22 1.16zm-1.12 0c0-.26-.04-.51-.12-.74-.08-.24-.2-.45-.35-.62-.15-.18-.34-.32-.57-.43-.23-.11-.49-.16-.78-.16-.29 0-.55.05-.78.16-.23.11-.42.25-.57.43-.15.18-.27.39-.35.62a2.356 2.356 0 0 0 0 1.49c.08.24.2.45.35.63.15.18.34.33.57.44.23.11.49.16.78.16.29 0 .55-.05.78-.16.23-.11.42-.25.57-.44.15-.18.27-.39.35-.63.08-.24.12-.49.12-.75zM57.3 220.5c0 .42-.07.81-.22 1.16a2.773 2.773 0 0 1-1.56 1.51c-.36.14-.75.21-1.16.21-.41 0-.8-.07-1.16-.21-.36-.14-.67-.34-.93-.6-.26-.26-.47-.56-.61-.91-.15-.35-.22-.74-.22-1.16 0-.42.07-.81.22-1.16.15-.35.35-.65.61-.9s.57-.45.93-.59c.36-.14.75-.21 1.16-.21.41 0 .8.07 1.16.21.36.14.67.34.94.59.26.25.47.55.62.9s.22.74.22 1.16zm-1.12 0c0-.26-.04-.51-.12-.74-.08-.24-.2-.45-.35-.62-.15-.18-.34-.32-.57-.43-.23-.11-.49-.16-.78-.16-.29 0-.55.05-.78.16-.23.11-.42.25-.57.43-.15.18-.27.39-.35.62a2.356 2.356 0 0 0 0 1.49c.08.24.2.45.35.63.15.18.34.33.57.44.23.11.49.16.78.16.29 0 .55-.05.78-.16.23-.11.42-.25.57-.44.15-.18.27-.39.35-.63.08-.24.12-.49.12-.75zM59.67 223.23h-1.08v-8.69h1.08v8.69zM65.43 216.6c-.16-.22-.38-.4-.65-.55s-.59-.21-.93-.21c-.18 0-.37.03-.56.08-.19.05-.36.13-.51.24s-.28.25-.37.41c-.1.17-.14.36-.14.59 0 .22.04.41.13.56.09.15.21.28.36.38.15.1.33.19.53.26s.42.15.65.22c.28.08.56.18.84.29.28.11.54.25.77.42s.42.4.56.66c.15.26.22.6.22 1.01 0 .42-.08.79-.24 1.1-.16.31-.37.57-.63.77-.26.2-.56.35-.9.45s-.69.15-1.05.15c-.51 0-1.01-.1-1.49-.3-.48-.2-.88-.49-1.19-.88l.88-.75c.19.28.45.51.77.69.32.18.67.26 1.05.26.19 0 .38-.03.57-.08.19-.05.37-.14.52-.25a1.224 1.224 0 0 0 .54-1.06c0-.25-.05-.45-.16-.62-.1-.16-.24-.3-.42-.42s-.38-.21-.61-.29c-.23-.08-.48-.16-.74-.25-.26-.08-.52-.17-.77-.28-.25-.11-.48-.25-.68-.43-.2-.17-.36-.38-.48-.64-.12-.25-.18-.57-.18-.94 0-.41.08-.75.25-1.04.16-.29.38-.53.64-.72.26-.19.56-.33.9-.42.33-.09.67-.13 1.01-.13.48 0 .92.08 1.33.25.41.17.75.4 1 .68l-.82.79zM71.45 219.17c-.11-.18-.29-.32-.52-.44-.23-.12-.48-.18-.74-.18-.28 0-.53.05-.75.16-.22.11-.4.25-.56.43-.15.18-.27.39-.35.63-.08.24-.12.49-.12.75s.04.51.12.75c.08.24.2.45.35.63.15.18.34.32.56.43s.48.16.76.16.53-.05.75-.16c.23-.11.41-.25.56-.44l.72.65c-.23.27-.52.48-.86.63-.34.15-.74.22-1.17.22a3.2 3.2 0 0 1-1.17-.21 2.72 2.72 0 0 1-.92-.58c-.26-.25-.47-.55-.61-.9a2.99 2.99 0 0 1-.22-1.18c0-.43.07-.82.22-1.17s.35-.65.61-.91c.26-.25.57-.45.92-.59a3.093 3.093 0 0 1 2.29.02c.38.15.68.38.9.67l-.77.63zM76.92 223.23c-.02-.14-.03-.29-.03-.47-.01-.17-.01-.32-.01-.43h-.02c-.14.29-.37.54-.7.74s-.69.3-1.09.3c-.35 0-.66-.06-.91-.17-.26-.11-.47-.27-.63-.48s-.29-.44-.37-.71a3.03 3.03 0 0 1-.12-.86v-3.38h1.08v3.01c0 .22.02.43.05.64.03.2.1.38.19.53.09.15.22.28.38.37.16.09.37.14.62.14.44 0 .79-.16 1.06-.49.27-.33.4-.76.4-1.3v-2.9h1.08v4.27c0 .15 0 .33.01.56.01.23.02.43.03.61h-1.02zM80.64 223.23h-1.08v-8.69h1.08v8.69zM83.37 225.99h-1.08v-8.2h1.06v.85h.03c.18-.29.43-.53.77-.72.34-.19.74-.28 1.19-.28.4 0 .77.07 1.11.22s.62.35.86.61.43.57.56.91a3.277 3.277 0 0 1 0 2.25c-.13.36-.31.66-.55.92-.24.26-.52.47-.86.62-.34.15-.71.22-1.13.22-.39 0-.76-.08-1.1-.25-.34-.17-.62-.41-.81-.71h-.03v3.56zm3.59-5.49c0-.25-.04-.5-.11-.74s-.19-.45-.34-.63c-.15-.18-.34-.33-.57-.44-.23-.11-.49-.16-.79-.16-.28 0-.53.05-.75.16-.23.11-.42.25-.58.44-.16.18-.29.4-.37.63-.09.24-.13.49-.13.75s.04.51.13.75.21.45.37.63.35.32.58.43c.23.11.48.16.75.16.3 0 .56-.05.79-.17s.42-.26.57-.44.27-.39.34-.63.11-.49.11-.74zM92.01 218.67h-1.45v2.83c0 .33.06.56.18.71.12.14.32.21.59.21.1 0 .21-.01.32-.03.12-.02.22-.05.31-.09l.03.88c-.13.05-.27.08-.43.11-.16.03-.32.04-.49.04-.51 0-.91-.14-1.18-.42s-.41-.71-.41-1.28v-2.95h-1.05v-.88h1.05v-1.56h1.07v1.56H92v.87zM94.16 215.82c0 .2-.07.36-.21.49-.14.13-.31.2-.51.2s-.36-.07-.5-.2-.21-.3-.21-.49c0-.2.07-.37.21-.5s.3-.2.5-.2.37.07.51.2.21.3.21.5zm-.17 7.41h-1.08v-5.45h1.08v5.45zM96.62 217.79c.02.14.03.29.03.46.01.17.01.32.01.43h.03c.07-.15.16-.28.28-.41.12-.13.25-.24.41-.33a2.124 2.124 0 0 1 1.08-.3c.35 0 .66.06.91.18s.46.28.63.48c.17.2.29.43.37.7.08.27.12.56.12.86v3.38h-1.08v-3.02c0-.22-.02-.43-.05-.63-.03-.2-.1-.38-.19-.53s-.22-.28-.38-.37c-.16-.09-.37-.14-.62-.14-.43 0-.78.16-1.05.49-.27.33-.41.76-.41 1.3v2.9h-1.08v-4.27c0-.15 0-.33-.01-.56-.01-.23-.02-.43-.03-.61h1.03zM102.53 224.16c.24.27.53.48.89.64.36.16.72.24 1.1.24.36 0 .66-.05.91-.16s.44-.25.59-.42c.15-.18.26-.39.32-.64s.1-.51.1-.79v-.7h-.02c-.2.31-.47.54-.82.7s-.71.24-1.1.24c-.41 0-.79-.07-1.13-.22s-.63-.34-.87-.6-.42-.55-.55-.89c-.13-.34-.2-.71-.2-1.1s.06-.76.2-1.1c.13-.34.31-.64.55-.9s.52-.46.86-.61.71-.22 1.13-.22c.39 0 .76.08 1.12.25.36.17.64.42.84.77h.02v-.87h1.05v5.17c0 .4-.05.78-.15 1.14-.1.36-.27.69-.51.97s-.55.5-.93.67c-.38.17-.86.25-1.43.25-.47 0-.95-.09-1.43-.26s-.89-.42-1.24-.73l.7-.83zm.32-3.71c0 .25.04.49.12.72.08.23.2.43.36.61.16.18.35.32.57.43.22.11.48.16.76.16s.53-.05.76-.15.43-.24.59-.41c.16-.17.29-.38.37-.61.09-.23.13-.48.13-.75 0-.26-.04-.51-.13-.74-.09-.23-.22-.43-.38-.61s-.36-.32-.59-.42c-.23-.1-.48-.15-.75-.15-.28 0-.54.05-.76.15a1.701 1.701 0 0 0-.93 1.02c-.08.25-.12.49-.12.75zM109.03 217.57c0-.36.07-.7.21-1.02.14-.32.33-.59.56-.83.24-.23.52-.42.83-.56s.66-.21 1.02-.21.7.07 1.02.21.6.32.83.56c.24.23.42.51.56.83.14.32.21.66.21 1.02s-.07.7-.21 1.01c-.14.31-.33.59-.56.82-.24.23-.52.42-.83.55s-.66.2-1.02.2-.7-.07-1.02-.2-.6-.32-.83-.55-.43-.51-.56-.82c-.14-.31-.21-.65-.21-1.01zm.41 0a2.223 2.223 0 0 0 1.34 2.04 2.274 2.274 0 0 0 1.72 0c.27-.12.5-.27.7-.48a2.223 2.223 0 0 0 .47-2.42c-.11-.27-.27-.5-.47-.7s-.43-.36-.7-.47c-.27-.12-.56-.17-.86-.17-.31 0-.59.06-.86.17-.27.11-.5.27-.7.47s-.36.43-.47.7c-.11.26-.17.55-.17.86zm2.84 1.43l-.63-1.14h-.41V219h-.7v-2.94h1.26c.14 0 .27.02.4.05s.25.08.36.15c.11.07.19.16.26.28.07.12.1.27.1.44 0 .2-.06.36-.17.49-.11.13-.25.23-.42.29l.78 1.24h-.83zm-.5-1.64c.11 0 .2-.03.29-.1.09-.07.13-.16.13-.28 0-.12-.05-.21-.15-.26a.63.63 0 0 0-.28-.08h-.54v.72h.55zM119.71 215.82c0 .2-.07.36-.21.49-.14.13-.31.2-.51.2s-.36-.07-.5-.2-.21-.3-.21-.49c0-.2.07-.37.21-.5s.3-.2.5-.2.37.07.51.2.21.3.21.5zm-.18 7.41h-1.08v-5.45h1.08v5.45zM124.13 219.17c-.12-.2-.3-.36-.52-.49-.22-.13-.47-.19-.75-.19-.12 0-.25.01-.37.04s-.23.07-.33.13-.17.13-.23.22-.09.2-.09.33c0 .23.1.4.31.51.21.11.52.21.93.3.26.06.5.13.72.22s.42.19.58.32c.16.13.29.28.38.45.09.18.14.38.14.62 0 .32-.06.59-.18.82-.12.22-.29.4-.49.55-.2.14-.44.24-.7.3-.26.06-.53.09-.8.09-.41 0-.82-.08-1.21-.24s-.72-.41-.98-.74l.77-.66c.15.21.35.39.6.54.26.15.54.22.84.22.14 0 .27-.01.4-.04s.24-.07.34-.13c.1-.06.19-.14.25-.24.06-.1.09-.23.09-.38 0-.25-.12-.44-.36-.56-.24-.12-.6-.24-1.06-.34-.18-.05-.37-.1-.56-.17-.19-.07-.36-.16-.51-.27-.15-.11-.28-.26-.37-.43-.1-.17-.14-.38-.14-.64a1.487 1.487 0 0 1 .65-1.27c.2-.14.41-.23.65-.3s.5-.1.76-.1c.39 0 .77.08 1.13.23.36.15.65.38.84.67l-.73.63zM131.37 218.67h-1.45v2.83c0 .33.06.56.18.71.12.14.32.21.59.21.1 0 .21-.01.32-.03.12-.02.22-.05.31-.09l.03.88c-.13.05-.27.08-.43.11-.16.03-.32.04-.49.04-.51 0-.91-.14-1.18-.42s-.41-.71-.41-1.28v-2.95h-1.05v-.88h1.05v-1.56h1.07v1.56h1.45v.87zM133.38 218.61c.13-.27.35-.5.67-.69s.67-.29 1.06-.29c.35 0 .66.06.91.18s.46.28.63.48c.17.2.29.43.37.7.08.27.12.56.12.86v3.38h-1.08v-3.02c0-.22-.02-.43-.05-.63-.03-.2-.1-.38-.19-.53-.09-.15-.22-.28-.37-.37-.16-.09-.36-.14-.61-.14-.43 0-.78.16-1.06.49-.28.33-.41.76-.41 1.31v2.89h-1.08v-8.69h1.08v4.07h.01zM143.82 220.46v.18c0 .06 0 .12-.01.18h-4.33c.01.23.06.44.15.64s.22.38.39.53c.16.15.35.26.56.35.21.08.43.12.67.12.37 0 .69-.08.95-.24.27-.16.48-.36.63-.59l.76.61c-.29.39-.63.67-1.03.85s-.83.27-1.32.27c-.41 0-.8-.07-1.15-.21-.35-.14-.66-.33-.91-.58-.25-.25-.45-.55-.6-.9a2.94 2.94 0 0 1-.22-1.17c0-.42.07-.81.21-1.17s.34-.66.59-.91c.25-.25.55-.45.9-.59.35-.14.72-.21 1.12-.21.4 0 .76.07 1.09.2.33.13.6.32.83.56s.4.54.52.89c.14.36.2.76.2 1.19zm-1.1-.43c-.01-.21-.04-.42-.11-.6-.06-.19-.16-.35-.29-.49a1.33 1.33 0 0 0-.47-.33 1.69 1.69 0 0 0-.66-.12c-.23 0-.45.04-.65.12a1.694 1.694 0 0 0-1.07 1.42h3.25zM150.4 218.67h-1.45v2.83c0 .33.06.56.18.71.12.14.32.21.59.21.1 0 .21-.01.32-.03.12-.02.22-.05.31-.09l.03.88c-.13.05-.27.08-.43.11-.16.03-.32.04-.49.04-.51 0-.91-.14-1.18-.42s-.41-.71-.41-1.28v-2.95h-1.05v-.88h1.05v-1.56h1.07v1.56h1.45v.87zM151.27 218.4c-.01-.23-.02-.43-.03-.61h1.02c.02.14.03.3.03.48.01.18.01.33.01.44h.03c.15-.32.38-.58.67-.78s.63-.29.99-.29c.17 0 .31.02.43.05l-.05 1c-.15-.04-.32-.06-.49-.06-.26 0-.49.05-.68.14-.19.1-.35.22-.48.38s-.22.35-.28.56c-.06.21-.09.43-.09.66v2.86h-1.08v-4.27c.01-.15.01-.33 0-.56zM160.09 220.46v.18c0 .06 0 .12-.01.18h-4.33c.01.23.06.44.15.64s.22.38.39.53c.16.15.35.26.56.35.21.08.43.12.67.12.37 0 .69-.08.95-.24.27-.16.48-.36.63-.59l.76.61c-.29.39-.63.67-1.03.85s-.83.27-1.32.27c-.41 0-.8-.07-1.15-.21-.35-.14-.66-.33-.91-.58-.25-.25-.45-.55-.6-.9a2.94 2.94 0 0 1-.22-1.17c0-.42.07-.81.21-1.17s.34-.66.59-.91c.25-.25.55-.45.9-.59.35-.14.72-.21 1.12-.21.4 0 .76.07 1.09.2.33.13.6.32.83.56s.4.54.52.89c.14.36.2.76.2 1.19zm-1.1-.43c-.01-.21-.04-.42-.11-.6-.06-.19-.16-.35-.29-.49a1.33 1.33 0 0 0-.47-.33 1.69 1.69 0 0 0-.66-.12c-.23 0-.45.04-.65.12a1.694 1.694 0 0 0-1.07 1.42h3.25zM164.68 219.71c0-.41-.12-.71-.37-.9s-.57-.29-.98-.29c-.31 0-.6.06-.87.18s-.5.27-.68.45l-.57-.69c.27-.25.6-.45.98-.6s.8-.22 1.25-.22c.39 0 .73.06 1.02.17.29.11.52.26.71.45.18.19.32.42.41.68.09.26.14.54.14.84v2.38c0 .18.01.38.02.58.01.2.03.37.06.5h-.98c-.06-.26-.09-.52-.09-.78h-.03c-.2.29-.45.52-.75.68-.3.16-.66.24-1.07.24-.21 0-.44-.03-.67-.09-.23-.06-.45-.15-.64-.28-.19-.13-.35-.3-.48-.52-.13-.21-.19-.48-.19-.79 0-.41.11-.74.33-.98s.51-.42.87-.55c.36-.13.77-.21 1.22-.25.45-.04.91-.06 1.37-.06v-.15zm-.27.93c-.27 0-.55.01-.83.03-.29.02-.55.07-.78.14-.23.07-.43.17-.58.31s-.23.32-.23.55c0 .16.03.29.1.4.06.11.15.2.26.26.11.07.23.12.36.14.13.03.26.04.4.04.51 0 .89-.15 1.17-.45s.41-.68.41-1.14v-.29h-.28zM169.84 218.67h-1.45v2.83c0 .33.06.56.18.71.12.14.32.21.59.21.1 0 .21-.01.32-.03.12-.02.22-.05.31-.09l.03.88c-.13.05-.27.08-.43.11-.16.03-.32.04-.49.04-.51 0-.91-.14-1.18-.42s-.41-.71-.41-1.28v-2.95h-1.05v-.88h1.05v-1.56h1.07v1.56h1.45v.87zM172.44 217.94c.3-.2.66-.3 1.07-.3.37 0 .7.08.99.25.29.17.53.45.7.84.18-.35.44-.62.77-.81.33-.19.69-.28 1.08-.28.35 0 .65.06.91.18.25.12.46.28.63.48.17.2.29.43.37.7.08.27.12.56.12.86v3.38H178v-3.02c0-.22-.02-.43-.06-.63-.04-.2-.1-.38-.2-.53s-.21-.28-.37-.37c-.15-.09-.35-.14-.59-.14-.25 0-.46.05-.63.16-.18.1-.32.24-.43.4s-.19.35-.24.56c-.05.21-.07.42-.07.63v2.94h-1.08V220c0-.21-.02-.41-.06-.59-.04-.18-.1-.33-.2-.45a.882.882 0 0 0-.36-.3c-.15-.07-.33-.11-.54-.11-.4 0-.73.16-.99.49-.26.33-.4.76-.4 1.3v2.9h-1.08v-4.27c0-.15 0-.33-.01-.56-.01-.23-.02-.43-.03-.61h1.02c.02.14.03.29.03.46.01.17.01.32.01.43h.03c.17-.3.39-.54.69-.75zM185.77 220.46v.18c0 .06 0 .12-.01.18h-4.33c.01.23.06.44.15.64s.22.38.39.53c.16.15.35.26.56.35.21.08.43.12.67.12.37 0 .69-.08.95-.24.27-.16.48-.36.63-.59l.76.61c-.29.39-.63.67-1.03.85s-.83.27-1.32.27c-.41 0-.8-.07-1.15-.21-.35-.14-.66-.33-.91-.58-.25-.25-.45-.55-.6-.9a2.94 2.94 0 0 1-.22-1.17c0-.42.07-.81.21-1.17s.34-.66.59-.91c.25-.25.55-.45.9-.59.35-.14.72-.21 1.12-.21.4 0 .76.07 1.09.2.33.13.6.32.83.56s.4.54.52.89c.14.36.2.76.2 1.19zm-1.1-.43c-.01-.21-.04-.42-.11-.6-.06-.19-.16-.35-.29-.49a1.33 1.33 0 0 0-.47-.33 1.69 1.69 0 0 0-.66-.12c-.23 0-.45.04-.65.12a1.694 1.694 0 0 0-1.07 1.42h3.25zM188.02 217.79c.02.14.03.29.03.46.01.17.01.32.01.43h.03c.07-.15.16-.28.28-.41.12-.13.25-.24.41-.33a2.124 2.124 0 0 1 1.08-.3c.35 0 .66.06.91.18s.46.28.63.48c.17.2.29.43.37.7.08.27.12.56.12.86v3.38h-1.08v-3.02c0-.22-.02-.43-.05-.63-.03-.2-.1-.38-.19-.53s-.22-.28-.38-.37c-.16-.09-.37-.14-.62-.14-.43 0-.78.16-1.05.49-.27.33-.41.76-.41 1.3v2.9h-1.08v-4.27c0-.15 0-.33-.01-.56-.01-.23-.02-.43-.03-.61h1.03zM196.16 218.67h-1.45v2.83c0 .33.06.56.18.71.12.14.32.21.59.21.1 0 .21-.01.32-.03.12-.02.22-.05.31-.09l.03.88c-.13.05-.27.08-.43.11-.16.03-.32.04-.49.04-.51 0-.91-.14-1.18-.42s-.41-.71-.41-1.28v-2.95h-1.05v-.88h1.05v-1.56h1.07v1.56h1.45v.87zM204.03 222.37c-.21.33-.49.58-.84.75-.36.17-.73.26-1.12.26-.42 0-.8-.08-1.14-.22-.34-.15-.62-.35-.86-.62-.24-.26-.42-.57-.55-.92s-.2-.73-.2-1.13.06-.77.2-1.12c.13-.35.32-.65.56-.91.24-.26.53-.46.87-.61s.71-.22 1.11-.22c.44 0 .83.09 1.16.28.33.19.59.42.78.68h.02v-4.06h1.08v8.69h-1.05v-.86h-.02zm-3.58-1.87c0 .25.04.5.12.73.08.24.19.45.34.63.15.18.34.33.56.44.22.11.48.17.78.17.28 0 .53-.05.75-.16.23-.11.42-.25.58-.43.16-.18.29-.39.37-.62.09-.24.13-.49.13-.75s-.04-.51-.13-.74c-.09-.24-.21-.45-.37-.63a1.712 1.712 0 0 0-1.33-.6c-.3 0-.56.05-.78.16-.22.11-.41.25-.56.44-.15.18-.27.39-.34.63-.08.24-.12.48-.12.73zM212.27 220.5c0 .42-.07.81-.22 1.16a2.773 2.773 0 0 1-1.56 1.51c-.36.14-.75.21-1.16.21-.41 0-.8-.07-1.16-.21-.36-.14-.67-.34-.93-.6-.26-.26-.47-.56-.61-.91-.15-.35-.22-.74-.22-1.16 0-.42.07-.81.22-1.16.15-.35.35-.65.61-.9s.57-.45.93-.59c.36-.14.75-.21 1.16-.21.41 0 .8.07 1.16.21.36.14.67.34.94.59.26.25.47.55.62.9s.22.74.22 1.16zm-1.12 0c0-.26-.04-.51-.12-.74-.08-.24-.2-.45-.35-.62-.15-.18-.34-.32-.57-.43-.23-.11-.49-.16-.78-.16-.29 0-.55.05-.78.16-.23.11-.42.25-.57.43-.15.18-.27.39-.35.62a2.356 2.356 0 0 0 0 1.49c.08.24.2.45.35.63.15.18.34.33.57.44.23.11.49.16.78.16.29 0 .55-.05.78-.16.23-.11.42-.25.57-.44.15-.18.27-.39.35-.63.08-.24.12-.49.12-.75zM217.35 219.17c-.11-.18-.29-.32-.52-.44-.23-.12-.48-.18-.74-.18-.28 0-.53.05-.75.16-.22.11-.4.25-.56.43-.15.18-.27.39-.35.63-.08.24-.12.49-.12.75s.04.51.12.75c.08.24.2.45.35.63.15.18.34.32.56.43s.48.16.76.16.53-.05.75-.16c.23-.11.41-.25.56-.44l.72.65c-.23.27-.52.48-.86.63-.34.15-.74.22-1.17.22a3.2 3.2 0 0 1-1.17-.21 2.72 2.72 0 0 1-.92-.58c-.26-.25-.47-.55-.61-.9a2.99 2.99 0 0 1-.22-1.18c0-.43.07-.82.22-1.17s.35-.65.61-.91c.26-.25.57-.45.92-.59a3.093 3.093 0 0 1 2.29.02c.38.15.68.38.9.67l-.77.63z"/><path class="st0" d="M221.65 218.67h-1.45v2.83c0 .33.06.56.18.71.12.14.32.21.59.21.1 0 .21-.01.32-.03.12-.02.22-.05.31-.09l.03.88c-.13.05-.27.08-.43.11-.16.03-.32.04-.49.04-.51 0-.91-.14-1.18-.42s-.41-.71-.41-1.28v-2.95h-1.05v-.88h1.05v-1.56h1.07v1.56h1.45v.87zM228.05 220.5c0 .42-.07.81-.22 1.16a2.773 2.773 0 0 1-1.56 1.51c-.36.14-.75.21-1.16.21-.41 0-.8-.07-1.16-.21-.36-.14-.67-.34-.93-.6-.26-.26-.47-.56-.61-.91-.15-.35-.22-.74-.22-1.16 0-.42.07-.81.22-1.16.15-.35.35-.65.61-.9s.57-.45.93-.59c.36-.14.75-.21 1.16-.21.41 0 .8.07 1.16.21.36.14.67.34.94.59.26.25.47.55.62.9s.22.74.22 1.16zm-1.13 0c0-.26-.04-.51-.12-.74-.08-.24-.2-.45-.35-.62-.15-.18-.34-.32-.57-.43-.23-.11-.49-.16-.78-.16-.29 0-.55.05-.78.16-.23.11-.42.25-.57.43-.15.18-.27.39-.35.62a2.356 2.356 0 0 0 0 1.49c.08.24.2.45.35.63.15.18.34.33.57.44.23.11.49.16.78.16.29 0 .55-.05.78-.16.23-.11.42-.25.57-.44.15-.18.27-.39.35-.63.08-.24.12-.49.12-.75zM229.3 218.4c-.01-.23-.02-.43-.03-.61h1.02c.02.14.03.3.03.48.01.18.01.33.01.44h.03c.15-.32.38-.58.67-.78s.63-.29.99-.29c.17 0 .31.02.43.05l-.05 1c-.15-.04-.32-.06-.49-.06-.26 0-.49.05-.68.14-.19.1-.35.22-.48.38s-.22.35-.28.56c-.06.21-.09.43-.09.66v2.86h-1.08v-4.27c.01-.15.01-.33 0-.56zM236.18 219.17c-.12-.2-.3-.36-.52-.49-.22-.13-.47-.19-.75-.19-.12 0-.25.01-.37.04s-.23.07-.33.13-.17.13-.23.22-.09.2-.09.33c0 .23.1.4.31.51.21.11.52.21.93.3.26.06.5.13.72.22s.42.19.58.32c.16.13.29.28.38.45.09.18.14.38.14.62 0 .32-.06.59-.18.82-.12.22-.29.4-.49.55-.2.14-.44.24-.7.3-.26.06-.53.09-.8.09-.41 0-.82-.08-1.21-.24s-.72-.41-.98-.74l.77-.66c.15.21.35.39.6.54.26.15.54.22.84.22.14 0 .27-.01.4-.04s.24-.07.34-.13c.1-.06.19-.14.25-.24.06-.1.09-.23.09-.38 0-.25-.12-.44-.36-.56-.24-.12-.6-.24-1.06-.34-.18-.05-.37-.1-.56-.17-.19-.07-.36-.16-.51-.27-.15-.11-.28-.26-.37-.43-.1-.17-.14-.38-.14-.64a1.487 1.487 0 0 1 .65-1.27c.2-.14.41-.23.65-.3s.5-.1.76-.1c.39 0 .77.08 1.13.23.36.15.65.38.84.67l-.73.63zM244.59 223.23c-.02-.14-.03-.29-.03-.47-.01-.17-.01-.32-.01-.43h-.02c-.14.29-.37.54-.7.74s-.69.3-1.09.3c-.35 0-.66-.06-.91-.17-.26-.11-.47-.27-.63-.48s-.29-.44-.37-.71a3.03 3.03 0 0 1-.12-.86v-3.38h1.08v3.01c0 .22.02.43.05.64.03.2.1.38.19.53.09.15.22.28.38.37.16.09.37.14.62.14.44 0 .79-.16 1.06-.49.27-.33.4-.76.4-1.3v-2.9h1.08v4.27c0 .15 0 .33.01.56.01.23.02.43.03.61h-1.02zM250.16 219.17c-.12-.2-.3-.36-.52-.49-.22-.13-.47-.19-.75-.19-.12 0-.25.01-.37.04s-.23.07-.33.13-.17.13-.23.22-.09.2-.09.33c0 .23.1.4.31.51.21.11.52.21.93.3.26.06.5.13.72.22s.42.19.58.32c.16.13.29.28.38.45.09.18.14.38.14.62 0 .32-.06.59-.18.82-.12.22-.29.4-.49.55-.2.14-.44.24-.7.3-.26.06-.53.09-.8.09-.41 0-.82-.08-1.21-.24s-.72-.41-.98-.74l.77-.66c.15.21.35.39.6.54.26.15.54.22.84.22.14 0 .27-.01.4-.04s.24-.07.34-.13c.1-.06.19-.14.25-.24.06-.1.09-.23.09-.38 0-.25-.12-.44-.36-.56-.24-.12-.6-.24-1.06-.34-.18-.05-.37-.1-.56-.17-.19-.07-.36-.16-.51-.27-.15-.11-.28-.26-.37-.43-.1-.17-.14-.38-.14-.64a1.487 1.487 0 0 1 .65-1.27c.2-.14.41-.23.65-.3s.5-.1.76-.1c.39 0 .77.08 1.13.23.36.15.65.38.84.67l-.73.63zM257.18 220.46v.18c0 .06 0 .12-.01.18h-4.33c.01.23.06.44.15.64s.22.38.39.53c.16.15.35.26.56.35.21.08.43.12.67.12.37 0 .69-.08.95-.24.27-.16.48-.36.63-.59l.76.61c-.29.39-.63.67-1.03.85s-.83.27-1.32.27c-.41 0-.8-.07-1.15-.21-.35-.14-.66-.33-.91-.58-.25-.25-.45-.55-.6-.9a2.94 2.94 0 0 1-.22-1.17c0-.42.07-.81.21-1.17s.34-.66.59-.91c.25-.25.55-.45.9-.59.35-.14.72-.21 1.12-.21.4 0 .76.07 1.09.2.33.13.6.32.83.56s.4.54.52.89c.13.36.2.76.2 1.19zm-1.11-.43c-.01-.21-.04-.42-.11-.6-.06-.19-.16-.35-.29-.49a1.33 1.33 0 0 0-.47-.33 1.69 1.69 0 0 0-.66-.12c-.23 0-.45.04-.65.12a1.694 1.694 0 0 0-1.07 1.42h3.25zM262.8 217.94c.3-.2.66-.3 1.07-.3.37 0 .7.08.99.25.29.17.53.45.7.84.18-.35.44-.62.77-.81.33-.19.69-.28 1.08-.28.35 0 .65.06.91.18.25.12.46.28.63.48.17.2.29.43.37.7.08.27.12.56.12.86v3.38h-1.08v-3.02c0-.22-.02-.43-.06-.63-.04-.2-.1-.38-.2-.53s-.21-.28-.37-.37c-.15-.09-.35-.14-.59-.14-.25 0-.46.05-.63.16-.18.1-.32.24-.43.4s-.19.35-.24.56c-.05.21-.07.42-.07.63v2.94h-1.08V220c0-.21-.02-.41-.06-.59-.04-.18-.1-.33-.2-.45a.882.882 0 0 0-.36-.3c-.15-.07-.33-.11-.54-.11-.4 0-.73.16-.99.49-.26.33-.4.76-.4 1.3v2.9h-1.08v-4.27c0-.15 0-.33-.01-.56-.01-.23-.02-.43-.03-.61h1.02c.02.14.03.29.03.46.01.17.01.32.01.43h.03c.17-.3.39-.54.69-.75zM276.56 220.5c0 .42-.07.81-.22 1.16a2.773 2.773 0 0 1-1.56 1.51c-.36.14-.75.21-1.16.21-.41 0-.8-.07-1.16-.21-.36-.14-.67-.34-.93-.6-.26-.26-.47-.56-.61-.91-.15-.35-.22-.74-.22-1.16 0-.42.07-.81.22-1.16.15-.35.35-.65.61-.9s.57-.45.93-.59c.36-.14.75-.21 1.16-.21.41 0 .8.07 1.16.21.36.14.67.34.94.59.26.25.47.55.62.9s.22.74.22 1.16zm-1.13 0c0-.26-.04-.51-.12-.74-.08-.24-.2-.45-.35-.62-.15-.18-.34-.32-.57-.43-.23-.11-.49-.16-.78-.16-.29 0-.55.05-.78.16-.23.11-.42.25-.57.43-.15.18-.27.39-.35.62a2.356 2.356 0 0 0 0 1.49c.08.24.2.45.35.63.15.18.34.33.57.44.23.11.49.16.78.16.29 0 .55-.05.78-.16.23-.11.42-.25.57-.44.15-.18.27-.39.35-.63.08-.24.12-.49.12-.75zM280.77 219.17c-.12-.2-.3-.36-.52-.49-.22-.13-.47-.19-.75-.19-.12 0-.25.01-.37.04s-.23.07-.33.13-.17.13-.23.22-.09.2-.09.33c0 .23.1.4.31.51.21.11.52.21.93.3.26.06.5.13.72.22s.42.19.58.32c.16.13.29.28.38.45.09.18.14.38.14.62 0 .32-.06.59-.18.82-.12.22-.29.4-.49.55-.2.14-.44.24-.7.3-.26.06-.53.09-.8.09-.41 0-.82-.08-1.21-.24s-.72-.41-.98-.74l.77-.66c.15.21.35.39.6.54.26.15.54.22.84.22.14 0 .27-.01.4-.04s.24-.07.34-.13c.1-.06.19-.14.25-.24.06-.1.09-.23.09-.38 0-.25-.12-.44-.36-.56-.24-.12-.6-.24-1.06-.34-.18-.05-.37-.1-.56-.17-.19-.07-.36-.16-.51-.27-.15-.11-.28-.26-.37-.43-.1-.17-.14-.38-.14-.64a1.487 1.487 0 0 1 .65-1.27c.2-.14.41-.23.65-.3s.5-.1.76-.1c.39 0 .77.08 1.13.23.36.15.65.38.84.67l-.73.63zM285.36 218.67h-1.45v2.83c0 .33.06.56.18.71.12.14.32.21.59.21.1 0 .21-.01.32-.03.12-.02.22-.05.31-.09l.03.88c-.13.05-.27.08-.43.11-.16.03-.32.04-.49.04-.51 0-.91-.14-1.18-.42s-.41-.71-.41-1.28v-2.95h-1.05v-.88h1.05v-1.56h1.07v1.56h1.45v.87zM291.45 218.67h-1.26v4.56h-1.08v-4.56h-1.08v-.88h1.08v-1.14c0-.32.04-.62.11-.89s.19-.51.36-.71c.17-.2.38-.36.63-.47.26-.12.57-.17.94-.17.26 0 .49.03.68.08l-.13.93-.25-.06c-.08-.02-.18-.02-.29-.02-.21 0-.37.04-.5.11s-.22.17-.29.29c-.07.12-.11.26-.14.42s-.03.32-.03.49v1.14h1.26v.88zM297.74 220.5c0 .42-.07.81-.22 1.16a2.773 2.773 0 0 1-1.56 1.51c-.36.14-.75.21-1.16.21-.41 0-.8-.07-1.16-.21-.36-.14-.67-.34-.93-.6-.26-.26-.47-.56-.61-.91-.15-.35-.22-.74-.22-1.16 0-.42.07-.81.22-1.16.15-.35.35-.65.61-.9s.57-.45.93-.59c.36-.14.75-.21 1.16-.21.41 0 .8.07 1.16.21.36.14.67.34.94.59.26.25.47.55.62.9s.22.74.22 1.16zm-1.13 0c0-.26-.04-.51-.12-.74-.08-.24-.2-.45-.35-.62-.15-.18-.34-.32-.57-.43-.23-.11-.49-.16-.78-.16-.29 0-.55.05-.78.16-.23.11-.42.25-.57.43-.15.18-.27.39-.35.62a2.356 2.356 0 0 0 0 1.49c.08.24.2.45.35.63.15.18.34.33.57.44.23.11.49.16.78.16.29 0 .55-.05.78-.16.23-.11.42-.25.57-.44.15-.18.27-.39.35-.63.08-.24.12-.49.12-.75zM298.99 218.4c-.01-.23-.02-.43-.03-.61h1.02c.02.14.03.3.03.48.01.18.01.33.01.44h.03c.15-.32.38-.58.67-.78s.63-.29.99-.29c.17 0 .31.02.43.05l-.05 1c-.15-.04-.32-.06-.49-.06-.26 0-.49.05-.68.14-.19.1-.35.22-.48.38s-.22.35-.28.56c-.06.21-.09.43-.09.66v2.86H299v-4.27c0-.15 0-.33-.01-.56zM306.55 217.79c.02.14.03.29.03.46.01.17.01.32.01.43h.03c.07-.15.16-.28.28-.41.12-.13.25-.24.41-.33a2.124 2.124 0 0 1 1.08-.3c.35 0 .66.06.91.18s.46.28.63.48c.17.2.29.43.37.7.08.27.12.56.12.86v3.38h-1.08v-3.02c0-.22-.02-.43-.05-.63-.03-.2-.1-.38-.19-.53s-.22-.28-.38-.37c-.16-.09-.37-.14-.62-.14-.43 0-.78.16-1.05.49-.27.33-.41.76-.41 1.3v2.9h-1.08v-4.27c0-.15 0-.33-.01-.56-.01-.23-.02-.43-.03-.61h1.03zM317.55 220.5c0 .42-.07.81-.22 1.16a2.773 2.773 0 0 1-1.56 1.51c-.36.14-.75.21-1.16.21-.41 0-.8-.07-1.16-.21-.36-.14-.67-.34-.93-.6-.26-.26-.47-.56-.61-.91-.15-.35-.22-.74-.22-1.16 0-.42.07-.81.22-1.16.15-.35.35-.65.61-.9s.57-.45.93-.59c.36-.14.75-.21 1.16-.21.41 0 .8.07 1.16.21.36.14.67.34.94.59.26.25.47.55.62.9s.22.74.22 1.16zm-1.13 0c0-.26-.04-.51-.12-.74-.08-.24-.2-.45-.35-.62-.15-.18-.34-.32-.57-.43-.23-.11-.49-.16-.78-.16-.29 0-.55.05-.78.16-.23.11-.42.25-.57.43-.15.18-.27.39-.35.62a2.356 2.356 0 0 0 0 1.49c.08.24.2.45.35.63.15.18.34.33.57.44.23.11.49.16.78.16.29 0 .55-.05.78-.16.23-.11.42-.25.57-.44.15-.18.27-.39.35-.63.08-.24.12-.49.12-.75zM319.79 217.79c.02.14.03.29.03.46.01.17.01.32.01.43h.03c.07-.15.16-.28.28-.41.12-.13.25-.24.41-.33a2.124 2.124 0 0 1 1.08-.3c.35 0 .66.06.91.18s.46.28.63.48c.17.2.29.43.37.7.08.27.12.56.12.86v3.38h-1.08v-3.02c0-.22-.02-.43-.05-.63-.03-.2-.1-.38-.19-.53s-.22-.28-.38-.37c-.16-.09-.37-.14-.62-.14-.43 0-.78.16-1.05.49-.27.33-.41.76-.41 1.3v2.9h-1.08v-4.27c0-.15 0-.33-.01-.56-.01-.23-.02-.43-.03-.61h1.03zM328.21 219.17c-.12-.2-.3-.36-.52-.49-.22-.13-.47-.19-.75-.19-.12 0-.25.01-.37.04s-.23.07-.33.13-.17.13-.23.22-.09.2-.09.33c0 .23.1.4.31.51.21.11.52.21.93.3.26.06.5.13.72.22s.42.19.58.32c.16.13.29.28.38.45.09.18.14.38.14.62 0 .32-.06.59-.18.82-.12.22-.29.4-.49.55-.2.14-.44.24-.7.3-.26.06-.53.09-.8.09-.41 0-.82-.08-1.21-.24s-.72-.41-.98-.74l.77-.66c.15.21.35.39.6.54.26.15.54.22.84.22.14 0 .27-.01.4-.04s.24-.07.34-.13c.1-.06.19-.14.25-.24.06-.1.09-.23.09-.38 0-.25-.12-.44-.36-.56-.24-.12-.6-.24-1.06-.34-.18-.05-.37-.1-.56-.17-.19-.07-.36-.16-.51-.27-.15-.11-.28-.26-.37-.43-.1-.17-.14-.38-.14-.64a1.487 1.487 0 0 1 .65-1.27c.2-.14.41-.23.65-.3s.5-.1.76-.1c.39 0 .77.08 1.13.23.36.15.65.38.84.67l-.73.63zM333.98 223.23c-.02-.14-.03-.29-.03-.47-.01-.17-.01-.32-.01-.43h-.02c-.14.29-.37.54-.7.74s-.69.3-1.09.3c-.35 0-.66-.06-.91-.17-.26-.11-.47-.27-.63-.48s-.29-.44-.37-.71a3.03 3.03 0 0 1-.12-.86v-3.38h1.08v3.01c0 .22.02.43.05.64.03.2.1.38.19.53.09.15.22.28.38.37.16.09.37.14.62.14.44 0 .79-.16 1.06-.49.27-.33.4-.76.4-1.3v-2.9h1.08v4.27c0 .15 0 .33.01.56.01.23.02.43.03.61h-1.02zM336.59 218.4c-.01-.23-.02-.43-.03-.61h1.02c.02.14.03.3.03.48.01.18.01.33.01.44h.03c.15-.32.38-.58.67-.78s.63-.29.99-.29c.17 0 .31.02.43.05l-.05 1c-.15-.04-.32-.06-.49-.06-.26 0-.49.05-.68.14-.19.1-.35.22-.48.38s-.22.35-.28.56c-.06.21-.09.43-.09.66v2.86h-1.08v-4.27c.01-.15 0-.33 0-.56zM340.75 224.16c.24.27.53.48.89.64.36.16.72.24 1.1.24.36 0 .66-.05.91-.16s.44-.25.59-.42c.15-.18.26-.39.32-.64s.1-.51.1-.79v-.7h-.02c-.2.31-.47.54-.82.7s-.71.24-1.1.24c-.41 0-.79-.07-1.13-.22s-.63-.34-.87-.6-.42-.55-.55-.89c-.13-.34-.2-.71-.2-1.1s.06-.76.2-1.1c.13-.34.31-.64.55-.9s.52-.46.86-.61.71-.22 1.13-.22c.39 0 .76.08 1.12.25.36.17.64.42.84.77h.02v-.87h1.05v5.17c0 .4-.05.78-.15 1.14-.1.36-.27.69-.51.97s-.55.5-.93.67c-.38.17-.86.25-1.43.25-.47 0-.95-.09-1.43-.26s-.89-.42-1.24-.73l.7-.83zm.32-3.71c0 .25.04.49.12.72.08.23.2.43.36.61.16.18.35.32.57.43.22.11.48.16.76.16s.53-.05.76-.15.43-.24.59-.41c.16-.17.29-.38.37-.61.09-.23.13-.48.13-.75 0-.26-.04-.51-.13-.74-.09-.23-.22-.43-.38-.61s-.36-.32-.59-.42c-.23-.1-.48-.15-.75-.15-.28 0-.54.05-.76.15a1.701 1.701 0 0 0-.93 1.02c-.08.25-.12.49-.12.75zM348.62 215.82c0 .2-.07.36-.21.49-.14.13-.31.2-.51.2s-.36-.07-.5-.2-.21-.3-.21-.49c0-.2.07-.37.21-.5s.3-.2.5-.2.37.07.51.2.21.3.21.5zm-.18 7.41h-1.08v-5.45h1.08v5.45zM353.91 219.17c-.11-.18-.29-.32-.52-.44-.23-.12-.48-.18-.74-.18-.28 0-.53.05-.75.16-.22.11-.4.25-.56.43-.15.18-.27.39-.35.63-.08.24-.12.49-.12.75s.04.51.12.75c.08.24.2.45.35.63.15.18.34.32.56.43s.48.16.76.16.53-.05.75-.16c.23-.11.41-.25.56-.44l.72.65c-.23.27-.52.48-.86.63-.34.15-.74.22-1.17.22a3.2 3.2 0 0 1-1.17-.21 2.72 2.72 0 0 1-.92-.58c-.26-.25-.47-.55-.61-.9a2.99 2.99 0 0 1-.22-1.18c0-.43.07-.82.22-1.17s.35-.65.61-.91c.26-.25.57-.45.92-.59a3.093 3.093 0 0 1 2.29.02c.38.15.68.38.9.67l-.77.63zM358.94 219.71c0-.41-.12-.71-.37-.9s-.57-.29-.98-.29c-.31 0-.6.06-.87.18s-.5.27-.68.45l-.57-.69c.27-.25.6-.45.98-.6s.8-.22 1.25-.22c.39 0 .73.06 1.02.17.29.11.52.26.71.45.18.19.32.42.41.68.09.26.14.54.14.84v2.38c0 .18.01.38.02.58.01.2.03.37.06.5h-.98c-.06-.26-.09-.52-.09-.78h-.03c-.2.29-.45.52-.75.68-.3.16-.66.24-1.07.24-.21 0-.44-.03-.67-.09-.23-.06-.45-.15-.64-.28-.19-.13-.35-.3-.48-.52-.13-.21-.19-.48-.19-.79 0-.41.11-.74.33-.98s.51-.42.87-.55c.36-.13.77-.21 1.22-.25.45-.04.91-.06 1.37-.06v-.15zm-.27.93c-.27 0-.55.01-.83.03-.29.02-.55.07-.78.14-.23.07-.43.17-.58.31s-.23.32-.23.55c0 .16.03.29.1.4.06.11.15.2.26.26.11.07.23.12.36.14.13.03.26.04.4.04.51 0 .89-.15 1.17-.45s.41-.68.41-1.14v-.29h-.28zM362.65 223.23h-1.08v-8.69h1.08v8.69zM369.51 218.67h-1.26v4.56h-1.08v-4.56h-1.08v-.88h1.08v-1.14c0-.32.04-.62.11-.89s.19-.51.36-.71c.17-.2.38-.36.63-.47.26-.12.57-.17.94-.17.26 0 .49.03.68.08l-.13.93-.25-.06c-.08-.02-.18-.02-.29-.02-.21 0-.37.04-.5.11s-.22.17-.29.29c-.07.12-.11.26-.14.42s-.03.32-.03.49v1.14h1.26v.88zM373.67 219.71c0-.41-.12-.71-.37-.9s-.57-.29-.98-.29c-.31 0-.6.06-.87.18s-.5.27-.68.45l-.57-.69c.27-.25.6-.45.98-.6s.8-.22 1.25-.22c.39 0 .73.06 1.02.17.29.11.52.26.71.45.18.19.32.42.41.68.09.26.14.54.14.84v2.38c0 .18.01.38.02.58.01.2.03.37.06.5h-.98c-.06-.26-.09-.52-.09-.78h-.03c-.2.29-.45.52-.75.68-.3.16-.66.24-1.07.24-.21 0-.44-.03-.67-.09-.23-.06-.45-.15-.64-.28-.19-.13-.35-.3-.48-.52-.13-.21-.19-.48-.19-.79 0-.41.11-.74.33-.98s.51-.42.87-.55c.36-.13.77-.21 1.22-.25.45-.04.91-.06 1.37-.06v-.15zm-.27.93c-.27 0-.55.01-.83.03-.29.02-.55.07-.78.14-.23.07-.43.17-.58.31s-.23.32-.23.55c0 .16.03.29.1.4.06.11.15.2.26.26.11.07.23.12.36.14.13.03.26.04.4.04.51 0 .89-.15 1.17-.45s.41-.68.41-1.14v-.29h-.28zM378.83 218.67h-1.45v2.83c0 .33.06.56.18.71.12.14.32.21.59.21.1 0 .21-.01.32-.03.12-.02.22-.05.31-.09l.03.88c-.13.05-.27.08-.43.11-.16.03-.32.04-.49.04-.51 0-.91-.14-1.18-.42s-.41-.71-.41-1.28v-2.95h-1.05v-.88h1.05v-1.56h1.07v1.56h1.45v.87zM382.34 218.4c-.01-.23-.02-.43-.03-.61h1.02c.02.14.03.3.03.48.01.18.01.33.01.44h.03c.15-.32.38-.58.67-.78s.63-.29.99-.29c.17 0 .31.02.43.05l-.05 1c-.15-.04-.32-.06-.49-.06-.26 0-.49.05-.68.14-.19.1-.35.22-.48.38s-.22.35-.28.56c-.06.21-.09.43-.09.66v2.86h-1.08v-4.27c.01-.15.01-.33 0-.56zM391.17 220.46v.18c0 .06 0 .12-.01.18h-4.33c.01.23.06.44.15.64s.22.38.39.53c.16.15.35.26.56.35.21.08.43.12.67.12.37 0 .69-.08.95-.24.27-.16.48-.36.63-.59l.76.61c-.29.39-.63.67-1.03.85s-.83.27-1.32.27c-.41 0-.8-.07-1.15-.21-.35-.14-.66-.33-.91-.58-.25-.25-.45-.55-.6-.9a2.94 2.94 0 0 1-.22-1.17c0-.42.07-.81.21-1.17s.34-.66.59-.91c.25-.25.55-.45.9-.59.35-.14.72-.21 1.12-.21.4 0 .76.07 1.09.2.33.13.6.32.83.56s.4.54.52.89c.13.36.2.76.2 1.19zm-1.11-.43c-.01-.21-.04-.42-.11-.6-.06-.19-.16-.35-.29-.49a1.33 1.33 0 0 0-.47-.33 1.69 1.69 0 0 0-.66-.12c-.23 0-.45.04-.65.12a1.694 1.694 0 0 0-1.07 1.42h3.25zM396.77 222.37c-.21.33-.49.58-.84.75-.36.17-.73.26-1.12.26-.42 0-.8-.08-1.14-.22-.34-.15-.62-.35-.86-.62-.24-.26-.42-.57-.55-.92s-.2-.73-.2-1.13.06-.77.2-1.12c.13-.35.32-.65.56-.91.24-.26.53-.46.87-.61s.71-.22 1.11-.22c.44 0 .83.09 1.16.28.33.19.59.42.78.68h.02v-4.06h1.08v8.69h-1.05v-.86h-.02zm-3.58-1.87c0 .25.04.5.12.73.08.24.19.45.34.63.15.18.34.33.56.44.22.11.48.17.78.17.28 0 .53-.05.75-.16.23-.11.42-.25.58-.43.16-.18.29-.39.37-.62.09-.24.13-.49.13-.75s-.04-.51-.13-.74c-.09-.24-.21-.45-.37-.63a1.712 1.712 0 0 0-1.33-.6c-.3 0-.56.05-.78.16-.22.11-.41.25-.56.44-.15.18-.27.39-.34.63-.08.24-.12.48-.12.73zM403.33 223.23c-.02-.14-.03-.29-.03-.47-.01-.17-.01-.32-.01-.43h-.02c-.14.29-.37.54-.7.74s-.69.3-1.09.3c-.35 0-.66-.06-.91-.17-.26-.11-.47-.27-.63-.48s-.29-.44-.37-.71a3.03 3.03 0 0 1-.12-.86v-3.38h1.08v3.01c0 .22.02.43.05.64.03.2.1.38.19.53.09.15.22.28.38.37.16.09.37.14.62.14.44 0 .79-.16 1.06-.49.27-.33.4-.76.4-1.3v-2.9h1.08v4.27c0 .15 0 .33.01.56.01.23.02.43.03.61h-1.02zM409.77 219.17c-.11-.18-.29-.32-.52-.44-.23-.12-.48-.18-.74-.18-.28 0-.53.05-.75.16-.22.11-.4.25-.56.43-.15.18-.27.39-.35.63-.08.24-.12.49-.12.75s.04.51.12.75c.08.24.2.45.35.63.15.18.34.32.56.43s.48.16.76.16.53-.05.75-.16c.23-.11.41-.25.56-.44l.72.65c-.23.27-.52.48-.86.63-.34.15-.74.22-1.17.22a3.2 3.2 0 0 1-1.17-.21 2.72 2.72 0 0 1-.92-.58c-.26-.25-.47-.55-.61-.9a2.99 2.99 0 0 1-.22-1.18c0-.43.07-.82.22-1.17s.35-.65.61-.91c.26-.25.57-.45.92-.59a3.093 3.093 0 0 1 2.29.02c.38.15.68.38.9.67l-.77.63z"/><path class="st0" d="M414.07 218.67h-1.45v2.83c0 .33.06.56.18.71.12.14.32.21.59.21.1 0 .21-.01.32-.03.12-.02.22-.05.31-.09l.03.88c-.13.05-.27.08-.43.11-.16.03-.32.04-.49.04-.51 0-.91-.14-1.18-.42s-.41-.71-.41-1.28v-2.95h-1.05v-.88h1.05v-1.56h1.07v1.56h1.45v.87zM416.22 215.82c0 .2-.07.36-.21.49-.14.13-.31.2-.51.2s-.36-.07-.5-.2-.21-.3-.21-.49c0-.2.07-.37.21-.5s.3-.2.5-.2.37.07.51.2.21.3.21.5zm-.18 7.41h-1.08v-5.45h1.08v5.45zM423.21 220.5c0 .42-.07.81-.22 1.16a2.773 2.773 0 0 1-1.56 1.51c-.36.14-.75.21-1.16.21-.41 0-.8-.07-1.16-.21-.36-.14-.67-.34-.93-.6-.26-.26-.47-.56-.61-.91-.15-.35-.22-.74-.22-1.16 0-.42.07-.81.22-1.16.15-.35.35-.65.61-.9s.57-.45.93-.59c.36-.14.75-.21 1.16-.21.41 0 .8.07 1.16.21.36.14.67.34.94.59.26.25.47.55.62.9s.22.74.22 1.16zm-1.12 0c0-.26-.04-.51-.12-.74-.08-.24-.2-.45-.35-.62-.15-.18-.34-.32-.57-.43-.23-.11-.49-.16-.78-.16-.29 0-.55.05-.78.16-.23.11-.42.25-.57.43-.15.18-.27.39-.35.62a2.356 2.356 0 0 0 0 1.49c.08.24.2.45.35.63.15.18.34.33.57.44.23.11.49.16.78.16.29 0 .55-.05.78-.16.23-.11.42-.25.57-.44.15-.18.27-.39.35-.63.08-.24.12-.49.12-.75zM425.45 217.79c.02.14.03.29.03.46.01.17.01.32.01.43h.03c.07-.15.16-.28.28-.41.12-.13.25-.24.41-.33a2.124 2.124 0 0 1 1.08-.3c.35 0 .66.06.91.18s.46.28.63.48c.17.2.29.43.37.7.08.27.12.56.12.86v3.38h-1.08v-3.02c0-.22-.02-.43-.05-.63-.03-.2-.1-.38-.19-.53s-.22-.28-.38-.37c-.16-.09-.37-.14-.62-.14-.43 0-.78.16-1.05.49-.27.33-.41.76-.41 1.3v2.9h-1.08v-4.27c0-.15 0-.33-.01-.56-.01-.23-.02-.43-.03-.61h1.03zM432.27 222.54c0 .2-.07.38-.22.53s-.33.23-.55.23c-.21 0-.4-.08-.55-.22a.704.704 0 0 1-.22-.52c0-.21.07-.38.22-.53.15-.15.33-.22.55-.22s.41.07.55.22.22.31.22.51zM37.72 237.22h-1.26l3.53-8.14h1.03l3.49 8.14h-1.29l-.83-2h-3.86l-.81 2zm1.22-3h3.04l-1.52-3.81-1.52 3.81zM46.37 237.22h-1.08v-8.69h1.08v8.69zM49.13 237.22h-1.08v-8.69h1.08v8.69zM55.88 234.45v.18c0 .06 0 .12-.01.18h-4.33c.01.23.06.44.15.64s.22.38.39.53c.16.15.35.26.56.35.21.08.43.12.67.12.37 0 .69-.08.95-.24.27-.16.48-.36.63-.59l.76.61c-.29.39-.63.67-1.03.85s-.83.27-1.32.27c-.41 0-.8-.07-1.15-.21-.35-.14-.66-.33-.91-.58-.25-.25-.45-.55-.6-.9a2.94 2.94 0 0 1-.22-1.17c0-.42.07-.81.21-1.17s.34-.66.59-.91c.25-.25.55-.45.9-.59.35-.14.72-.21 1.12-.21.4 0 .76.07 1.09.2.33.13.6.32.83.56s.4.54.52.89c.13.36.2.76.2 1.19zm-1.11-.43c-.01-.21-.04-.42-.11-.6-.06-.19-.16-.35-.29-.49a1.33 1.33 0 0 0-.47-.33 1.69 1.69 0 0 0-.66-.12c-.23 0-.45.04-.65.12a1.694 1.694 0 0 0-1.07 1.42h3.25zM58.36 234.36l-1.99-2.58h1.33l1.33 1.87 1.34-1.87h1.26l-1.96 2.57 2.19 2.87h-1.34L59 235.09l-1.54 2.13h-1.3l2.2-2.86zM66.06 233.7c0-.41-.12-.71-.37-.9s-.57-.29-.98-.29c-.31 0-.6.06-.87.18s-.5.27-.68.45l-.57-.69c.27-.25.6-.45.98-.6s.8-.22 1.25-.22c.39 0 .73.06 1.02.17.29.11.52.26.71.45.18.19.32.42.41.68.09.26.14.54.14.84v2.38c0 .18.01.38.02.58.01.2.03.37.06.5h-.98c-.06-.26-.09-.52-.09-.78h-.03c-.2.29-.45.52-.75.68-.3.16-.66.24-1.07.24-.21 0-.44-.03-.67-.09-.23-.06-.45-.15-.64-.28-.19-.13-.35-.3-.48-.52-.13-.21-.19-.48-.19-.79 0-.41.11-.74.33-.98s.51-.42.87-.55c.36-.13.77-.21 1.22-.25.45-.04.91-.06 1.37-.06v-.15zm-.27.93c-.27 0-.55.01-.83.03-.29.02-.55.07-.78.14-.23.07-.43.17-.58.31s-.23.32-.23.55c0 .16.03.29.1.4.06.11.15.2.26.26.11.07.23.12.36.14.13.03.26.04.4.04.51 0 .89-.15 1.17-.45s.41-.68.41-1.14v-.29h-.28zM71.71 231.78l1.23 4.16h.02l1.3-4.16h1.14l1.32 4.16h.02l1.23-4.16h1.14l-1.8 5.45h-1.13l-1.34-4.09h-.02l-1.33 4.09h-1.13l-1.82-5.45h1.17zM83.35 233.7c0-.41-.12-.71-.37-.9s-.57-.29-.98-.29c-.31 0-.6.06-.87.18s-.5.27-.68.45l-.57-.69c.27-.25.6-.45.98-.6s.8-.22 1.25-.22c.39 0 .73.06 1.02.17.29.11.52.26.71.45.18.19.32.42.41.68.09.26.14.54.14.84v2.38c0 .18.01.38.02.58.01.2.03.37.06.5h-.98c-.06-.26-.09-.52-.09-.78h-.03c-.2.29-.45.52-.75.68-.3.16-.66.24-1.07.24-.21 0-.44-.03-.67-.09-.23-.06-.45-.15-.64-.28-.19-.13-.35-.3-.48-.52-.13-.21-.19-.48-.19-.79 0-.41.11-.74.33-.98s.51-.42.87-.55c.36-.13.77-.21 1.22-.25.45-.04.91-.06 1.37-.06v-.15zm-.26.93c-.27 0-.55.01-.83.03-.29.02-.55.07-.78.14-.23.07-.43.17-.58.31s-.23.32-.23.55c0 .16.03.29.1.4.06.11.15.2.26.26.11.07.23.12.36.14.13.03.26.04.4.04.51 0 .89-.15 1.17-.45s.41-.68.41-1.14v-.29h-.28zM88.9 233.16c-.12-.2-.3-.36-.52-.49-.22-.13-.47-.19-.75-.19-.12 0-.25.01-.37.04s-.23.07-.33.13-.17.13-.23.22-.09.2-.09.33c0 .23.1.4.31.51.21.11.52.21.93.3.26.06.5.13.72.22s.42.19.58.32c.16.13.29.28.38.45.09.18.14.38.14.62 0 .32-.06.59-.18.82-.12.22-.29.4-.49.55-.2.14-.44.24-.7.3-.26.06-.53.09-.8.09-.41 0-.82-.08-1.21-.24s-.72-.41-.98-.74l.77-.66c.15.21.35.39.6.54.26.15.54.22.84.22.14 0 .27-.01.4-.04s.24-.07.34-.13c.1-.06.19-.14.25-.24.06-.1.09-.23.09-.38 0-.25-.12-.44-.36-.56-.24-.12-.6-.24-1.06-.34-.18-.05-.37-.1-.56-.17-.19-.07-.36-.16-.51-.27-.15-.11-.28-.26-.37-.43-.1-.17-.14-.38-.14-.64a1.487 1.487 0 0 1 .65-1.27c.2-.14.41-.23.65-.3s.5-.1.76-.1c.39 0 .77.08 1.13.23.36.15.65.38.84.67l-.73.63zM96.14 232.66h-1.45v2.83c0 .33.06.56.18.71.12.14.32.21.59.21.1 0 .21-.01.32-.03.12-.02.22-.05.31-.09l.03.88c-.13.05-.27.08-.43.11-.16.03-.32.04-.49.04-.51 0-.91-.14-1.18-.42s-.41-.71-.41-1.28v-2.95h-1.05v-.88h1.05v-1.56h1.07v1.56h1.45v.87zM97.01 232.38c-.01-.23-.02-.43-.03-.61H98c.02.14.03.3.03.48.01.18.01.33.01.44h.03c.15-.32.38-.58.67-.78s.63-.29.99-.29c.17 0 .31.02.43.05l-.05 1c-.15-.04-.32-.06-.49-.06-.26 0-.49.05-.68.14-.19.1-.35.22-.48.38s-.22.35-.28.56c-.06.21-.09.43-.09.66v2.86h-1.08v-4.27c.01-.14.01-.32 0-.56zM105.84 234.45v.18c0 .06 0 .12-.01.18h-4.33c.01.23.06.44.15.64s.22.38.39.53c.16.15.35.26.56.35.21.08.43.12.67.12.37 0 .69-.08.95-.24.27-.16.48-.36.63-.59l.76.61c-.29.39-.63.67-1.03.85s-.83.27-1.32.27c-.41 0-.8-.07-1.15-.21-.35-.14-.66-.33-.91-.58-.25-.25-.45-.55-.6-.9a2.94 2.94 0 0 1-.22-1.17c0-.42.07-.81.21-1.17s.34-.66.59-.91c.25-.25.55-.45.9-.59.35-.14.72-.21 1.12-.21.4 0 .76.07 1.09.2.33.13.6.32.83.56s.4.54.52.89c.14.36.2.76.2 1.19zm-1.11-.43c-.01-.21-.04-.42-.11-.6-.06-.19-.16-.35-.29-.49a1.33 1.33 0 0 0-.47-.33 1.69 1.69 0 0 0-.66-.12c-.23 0-.45.04-.65.12a1.694 1.694 0 0 0-1.07 1.42h3.25zM110.42 233.7c0-.41-.12-.71-.37-.9s-.57-.29-.98-.29c-.31 0-.6.06-.87.18s-.5.27-.68.45l-.57-.69c.27-.25.6-.45.98-.6s.8-.22 1.25-.22c.39 0 .73.06 1.02.17.29.11.52.26.71.45.18.19.32.42.41.68.09.26.14.54.14.84v2.38c0 .18.01.38.02.58.01.2.03.37.06.5h-.98c-.06-.26-.09-.52-.09-.78h-.03c-.2.29-.45.52-.75.68-.3.16-.66.24-1.07.24-.21 0-.44-.03-.67-.09-.23-.06-.45-.15-.64-.28-.19-.13-.35-.3-.48-.52-.13-.21-.19-.48-.19-.79 0-.41.11-.74.33-.98s.51-.42.87-.55c.36-.13.77-.21 1.22-.25.45-.04.91-.06 1.37-.06v-.15zm-.26.93c-.27 0-.55.01-.83.03-.29.02-.55.07-.78.14-.23.07-.43.17-.58.31s-.23.32-.23.55c0 .16.03.29.1.4.06.11.15.2.26.26.11.07.23.12.36.14.13.03.26.04.4.04.51 0 .89-.15 1.17-.45s.41-.68.41-1.14v-.29h-.28zM115.58 232.66h-1.45v2.83c0 .33.06.56.18.71.12.14.32.21.59.21.1 0 .21-.01.32-.03.12-.02.22-.05.31-.09l.03.88c-.13.05-.27.08-.43.11-.16.03-.32.04-.49.04-.51 0-.91-.14-1.18-.42s-.41-.71-.41-1.28v-2.95H112v-.88h1.05v-1.56h1.07v1.56h1.45v.87zM121.56 234.45v.18c0 .06 0 .12-.01.18h-4.33c.01.23.06.44.15.64s.22.38.39.53c.16.15.35.26.56.35.21.08.43.12.67.12.37 0 .69-.08.95-.24.27-.16.48-.36.63-.59l.76.61c-.29.39-.63.67-1.03.85s-.83.27-1.32.27c-.41 0-.8-.07-1.15-.21-.35-.14-.66-.33-.91-.58-.25-.25-.45-.55-.6-.9a2.94 2.94 0 0 1-.22-1.17c0-.42.07-.81.21-1.17s.34-.66.59-.91c.25-.25.55-.45.9-.59.35-.14.72-.21 1.12-.21.4 0 .76.07 1.09.2.33.13.6.32.83.56s.4.54.52.89c.14.36.2.76.2 1.19zm-1.11-.43c-.01-.21-.04-.42-.11-.6-.06-.19-.16-.35-.29-.49a1.33 1.33 0 0 0-.47-.33 1.69 1.69 0 0 0-.66-.12c-.23 0-.45.04-.65.12a1.694 1.694 0 0 0-1.07 1.42h3.25zM127.16 236.36c-.21.33-.49.58-.84.75-.36.17-.73.26-1.12.26-.42 0-.8-.08-1.14-.22-.34-.15-.62-.35-.86-.62-.24-.26-.42-.57-.55-.92s-.2-.73-.2-1.13.06-.77.2-1.12c.13-.35.32-.65.56-.91.24-.26.53-.46.87-.61s.71-.22 1.11-.22c.44 0 .83.09 1.16.28.33.19.59.42.78.68h.02v-4.06h1.08v8.69h-1.05v-.86h-.02zm-3.58-1.87c0 .25.04.5.12.73.08.24.19.45.34.63.15.18.34.33.56.44.22.11.48.17.78.17.28 0 .53-.05.75-.16.23-.11.42-.25.58-.43.16-.18.29-.39.37-.62.09-.24.13-.49.13-.75s-.04-.51-.13-.74c-.09-.24-.21-.45-.37-.63a1.712 1.712 0 0 0-1.33-.6c-.3 0-.56.05-.78.16-.22.11-.41.25-.56.44-.15.18-.27.39-.34.63-.08.24-.12.48-.12.73zM132.93 231.78l1.23 4.16h.02l1.3-4.16h1.14l1.32 4.16h.02l1.23-4.16h1.14l-1.8 5.45h-1.13l-1.34-4.09h-.02l-1.33 4.09h-1.13l-1.82-5.45h1.17zM142.45 229.81c0 .2-.07.36-.21.49-.14.13-.31.2-.51.2s-.36-.07-.5-.2-.21-.3-.21-.49c0-.2.07-.37.21-.5s.3-.2.5-.2.37.07.51.2.21.3.21.5zm-.18 7.41h-1.08v-5.45h1.08v5.45zM146.59 232.66h-1.45v2.83c0 .33.06.56.18.71.12.14.32.21.59.21.1 0 .21-.01.32-.03.12-.02.22-.05.31-.09l.03.88c-.13.05-.27.08-.43.11-.16.03-.32.04-.49.04-.51 0-.91-.14-1.18-.42s-.41-.71-.41-1.28v-2.95h-1.05v-.88h1.05v-1.56h1.07v1.56h1.45v.87zM148.6 232.6c.13-.27.35-.5.67-.69s.67-.29 1.06-.29c.35 0 .66.06.91.18s.46.28.63.48c.17.2.29.43.37.7.08.27.12.56.12.86v3.38h-1.08v-3.02c0-.22-.02-.43-.05-.63-.03-.2-.1-.38-.19-.53-.09-.15-.22-.28-.37-.37-.16-.09-.36-.14-.61-.14-.43 0-.78.16-1.06.49-.28.33-.41.76-.41 1.31v2.89h-1.08v-8.69h1.08v4.07h.01zM163.63 235.96c-.32.44-.74.79-1.25 1.06s-1.13.41-1.85.41c-.62 0-1.19-.11-1.72-.32-.52-.21-.98-.51-1.36-.88-.38-.38-.68-.83-.89-1.36-.21-.52-.32-1.1-.32-1.73 0-.64.11-1.22.33-1.74.22-.52.52-.97.91-1.34.39-.37.84-.66 1.37-.87.53-.21 1.1-.31 1.72-.31.28 0 .56.03.84.08.28.05.56.13.82.24s.5.24.71.4.4.34.55.55l-.9.69c-.2-.28-.48-.5-.84-.68-.36-.18-.76-.27-1.18-.27-.47 0-.9.09-1.28.26s-.7.41-.97.71-.48.65-.62 1.04-.22.81-.22 1.26c0 .46.07.89.21 1.29.14.4.34.75.61 1.04s.59.53.97.69c.38.17.8.25 1.27.25.46 0 .88-.09 1.25-.28.38-.18.69-.45.93-.8l.91.61zM169.89 234.49c0 .42-.07.81-.22 1.16a2.773 2.773 0 0 1-1.56 1.51c-.36.14-.75.21-1.16.21-.41 0-.8-.07-1.16-.21-.36-.14-.67-.34-.93-.6-.26-.26-.47-.56-.61-.91-.15-.35-.22-.74-.22-1.16 0-.42.07-.81.22-1.16.15-.35.35-.65.61-.9s.57-.45.93-.59c.36-.14.75-.21 1.16-.21.41 0 .8.07 1.16.21.36.14.67.34.94.59.26.25.47.55.62.9s.22.74.22 1.16zm-1.13 0c0-.26-.04-.51-.12-.74-.08-.24-.2-.45-.35-.62-.15-.18-.34-.32-.57-.43-.23-.11-.49-.16-.78-.16-.29 0-.55.05-.78.16-.23.11-.42.25-.57.43-.15.18-.27.39-.35.62a2.356 2.356 0 0 0 0 1.49c.08.24.2.45.35.63.15.18.34.33.57.44.23.11.49.16.78.16.29 0 .55-.05.78-.16.23-.11.42-.25.57-.44.15-.18.27-.39.35-.63.08-.24.12-.49.12-.75zM176.67 234.49c0 .42-.07.81-.22 1.16a2.773 2.773 0 0 1-1.56 1.51c-.36.14-.75.21-1.16.21-.41 0-.8-.07-1.16-.21-.36-.14-.67-.34-.93-.6-.26-.26-.47-.56-.61-.91-.15-.35-.22-.74-.22-1.16 0-.42.07-.81.22-1.16.15-.35.35-.65.61-.9s.57-.45.93-.59c.36-.14.75-.21 1.16-.21.41 0 .8.07 1.16.21.36.14.67.34.94.59.26.25.47.55.62.9s.22.74.22 1.16zm-1.13 0c0-.26-.04-.51-.12-.74-.08-.24-.2-.45-.35-.62-.15-.18-.34-.32-.57-.43-.23-.11-.49-.16-.78-.16-.29 0-.55.05-.78.16-.23.11-.42.25-.57.43-.15.18-.27.39-.35.62a2.356 2.356 0 0 0 0 1.49c.08.24.2.45.35.63.15.18.34.33.57.44.23.11.49.16.78.16.29 0 .55-.05.78-.16.23-.11.42-.25.57-.44.15-.18.27-.39.35-.63.08-.24.12-.49.12-.75zM179.03 237.22h-1.08v-8.69h1.08v8.69zM184.79 230.59c-.16-.22-.38-.4-.65-.55s-.59-.21-.93-.21c-.18 0-.37.03-.56.08-.19.05-.36.13-.51.24s-.28.25-.37.41c-.1.17-.14.36-.14.59 0 .22.04.41.13.56.09.15.21.28.36.38.15.1.33.19.53.26s.42.15.65.22c.28.08.56.18.84.29.28.11.54.25.77.42s.42.4.56.66c.15.26.22.6.22 1.01 0 .42-.08.79-.24 1.1-.16.31-.37.57-.63.77-.26.2-.56.35-.9.45s-.69.15-1.05.15c-.51 0-1.01-.1-1.49-.3-.48-.2-.88-.49-1.19-.88l.88-.75c.19.28.45.51.77.69.32.18.67.26 1.05.26.19 0 .38-.03.57-.08.19-.05.37-.14.52-.25a1.224 1.224 0 0 0 .54-1.06c0-.25-.05-.45-.16-.62-.1-.16-.24-.3-.42-.42s-.38-.21-.61-.29c-.23-.08-.48-.16-.74-.25-.26-.08-.52-.17-.77-.28-.25-.11-.48-.25-.68-.43-.2-.17-.36-.38-.48-.64-.12-.25-.18-.57-.18-.94 0-.41.08-.75.25-1.04.16-.29.38-.53.64-.72.26-.19.56-.33.9-.42.33-.09.67-.13 1.01-.13.48 0 .92.08 1.33.25.41.17.75.4 1 .68l-.82.79zM190.81 233.16c-.11-.18-.29-.32-.52-.44-.23-.12-.48-.18-.74-.18-.28 0-.53.05-.75.16-.22.11-.4.25-.56.43-.15.18-.27.39-.35.63-.08.24-.12.49-.12.75s.04.51.12.75c.08.24.2.45.35.63.15.18.34.32.56.43s.48.16.76.16.53-.05.75-.16c.23-.11.41-.25.56-.44l.72.65c-.23.27-.52.48-.86.63-.34.15-.74.22-1.17.22a3.2 3.2 0 0 1-1.17-.21 2.72 2.72 0 0 1-.92-.58c-.26-.25-.47-.55-.61-.9a2.99 2.99 0 0 1-.22-1.18c0-.43.07-.82.22-1.17s.35-.65.61-.91c.26-.25.57-.45.92-.59a3.093 3.093 0 0 1 2.29.02c.38.15.68.38.9.67l-.77.63zM196.28 237.22c-.02-.14-.03-.29-.03-.47-.01-.17-.01-.32-.01-.43h-.02c-.14.29-.37.54-.7.74s-.69.3-1.09.3c-.35 0-.66-.06-.91-.17-.26-.11-.47-.27-.63-.48s-.29-.44-.37-.71a3.03 3.03 0 0 1-.12-.86v-3.38h1.08v3.01c0 .22.02.43.05.64.03.2.1.38.19.53.09.15.22.28.38.37.16.09.37.14.62.14.44 0 .79-.16 1.06-.49.27-.33.4-.76.4-1.3v-2.9h1.08v4.27c0 .15 0 .33.01.56.01.23.02.43.03.61h-1.02zM200 237.22h-1.08v-8.69H200v8.69zM202.74 239.98h-1.08v-8.2h1.06v.85h.03c.18-.29.43-.53.77-.72.34-.19.74-.28 1.19-.28.4 0 .77.07 1.11.22s.62.35.86.61.43.57.56.91a3.277 3.277 0 0 1 0 2.25c-.13.36-.31.66-.55.92-.24.26-.52.47-.86.62-.34.15-.71.22-1.13.22-.39 0-.76-.08-1.1-.25-.34-.17-.62-.41-.81-.71h-.03v3.56zm3.58-5.49c0-.25-.04-.5-.11-.74s-.19-.45-.34-.63c-.15-.18-.34-.33-.57-.44-.23-.11-.49-.16-.79-.16-.28 0-.53.05-.75.16-.23.11-.42.25-.58.44-.16.18-.29.4-.37.63-.09.24-.13.49-.13.75s.04.51.13.75.21.45.37.63.35.32.58.43c.23.11.48.16.75.16.3 0 .56-.05.79-.17s.42-.26.57-.44.27-.39.34-.63.11-.49.11-.74zM211.38 232.66h-1.45v2.83c0 .33.06.56.18.71.12.14.32.21.59.21.1 0 .21-.01.32-.03.12-.02.22-.05.31-.09l.03.88c-.13.05-.27.08-.43.11-.16.03-.32.04-.49.04-.51 0-.91-.14-1.18-.42s-.41-.71-.41-1.28v-2.95h-1.05v-.88h1.05v-1.56h1.07v1.56h1.45v.87zM213.53 229.81c0 .2-.07.36-.21.49-.14.13-.31.2-.51.2s-.36-.07-.5-.2-.21-.3-.21-.49c0-.2.07-.37.21-.5s.3-.2.5-.2.37.07.51.2.21.3.21.5zm-.18 7.41h-1.08v-5.45h1.08v5.45zM215.98 231.78c.02.14.03.29.03.46.01.17.01.32.01.43h.03c.07-.15.16-.28.28-.41.12-.13.25-.24.41-.33a2.124 2.124 0 0 1 1.08-.3c.35 0 .66.06.91.18s.46.28.63.48c.17.2.29.43.37.7.08.27.12.56.12.86v3.38h-1.08v-3.02c0-.22-.02-.43-.05-.63-.03-.2-.1-.38-.19-.53s-.22-.28-.38-.37c-.16-.09-.37-.14-.62-.14-.43 0-.78.16-1.05.49-.27.33-.41.76-.41 1.3v2.9h-1.08v-4.27c0-.15 0-.33-.01-.56-.01-.23-.02-.43-.03-.61h1.03zM221.89 238.15c.24.27.53.48.89.64.36.16.72.24 1.1.24.36 0 .66-.05.91-.16s.44-.25.59-.42c.15-.18.26-.39.32-.64s.1-.51.1-.79v-.7h-.02c-.2.31-.47.54-.82.7s-.71.24-1.1.24c-.41 0-.79-.07-1.13-.22s-.63-.34-.87-.6-.42-.55-.55-.89c-.13-.34-.2-.71-.2-1.1s.06-.76.2-1.1c.13-.34.31-.64.55-.9s.52-.46.86-.61.71-.22 1.13-.22c.39 0 .76.08 1.12.25.36.17.64.42.84.77h.02v-.87h1.05v5.17c0 .4-.05.78-.15 1.14-.1.36-.27.69-.51.97s-.55.5-.93.67c-.38.17-.86.25-1.43.25-.47 0-.95-.09-1.43-.26s-.89-.42-1.24-.73l.7-.83zm.32-3.71c0 .25.04.49.12.72.08.23.2.43.36.61.16.18.35.32.57.43.22.11.48.16.76.16s.53-.05.76-.15.43-.24.59-.41c.16-.17.29-.38.37-.61.09-.23.13-.48.13-.75 0-.26-.04-.51-.13-.74-.09-.23-.22-.43-.38-.61s-.36-.32-.59-.42c-.23-.1-.48-.15-.75-.15-.28 0-.54.05-.76.15a1.701 1.701 0 0 0-.93 1.02c-.08.24-.12.49-.12.75zM232.34 236.21h4.25v1.01h-5.39v-8.14h5.22v1h-4.08v2.44h3.84v.98h-3.84v2.71zM238.92 237.22h-1.08v-8.69h1.08v8.69zM241.84 229.81c0 .2-.07.36-.21.49-.14.13-.31.2-.51.2s-.36-.07-.5-.2-.21-.3-.21-.49c0-.2.07-.37.21-.5s.3-.2.5-.2.37.07.51.2.21.3.21.5zm-.17 7.41h-1.08v-5.45h1.08v5.45zM245.99 232.66h-1.45v2.83c0 .33.06.56.18.71.12.14.32.21.59.21.1 0 .21-.01.32-.03.12-.02.22-.05.31-.09l.03.88c-.13.05-.27.08-.43.11-.16.03-.32.04-.49.04-.51 0-.91-.14-1.18-.42s-.41-.71-.41-1.28v-2.95h-1.05v-.88h1.05v-1.56h1.07v1.56h1.45v.87zM251.96 234.45v.18c0 .06 0 .12-.01.18h-4.33c.01.23.06.44.15.64s.22.38.39.53c.16.15.35.26.56.35.21.08.43.12.67.12.37 0 .69-.08.95-.24.27-.16.48-.36.63-.59l.76.61c-.29.39-.63.67-1.03.85s-.83.27-1.32.27c-.41 0-.8-.07-1.15-.21-.35-.14-.66-.33-.91-.58-.25-.25-.45-.55-.6-.9a2.94 2.94 0 0 1-.22-1.17c0-.42.07-.81.21-1.17s.34-.66.59-.91c.25-.25.55-.45.9-.59.35-.14.72-.21 1.12-.21.4 0 .76.07 1.09.2.33.13.6.32.83.56s.4.54.52.89c.14.36.2.76.2 1.19zm-1.1-.43c-.01-.21-.04-.42-.11-.6-.06-.19-.16-.35-.29-.49a1.33 1.33 0 0 0-.47-.33 1.69 1.69 0 0 0-.66-.12c-.23 0-.45.04-.65.12a1.694 1.694 0 0 0-1.07 1.42h3.25zM261.38 234.49c0 .42-.07.81-.22 1.16a2.773 2.773 0 0 1-1.56 1.51c-.36.14-.75.21-1.16.21-.41 0-.8-.07-1.16-.21-.36-.14-.67-.34-.93-.6-.26-.26-.47-.56-.61-.91-.15-.35-.22-.74-.22-1.16 0-.42.07-.81.22-1.16.15-.35.35-.65.61-.9s.57-.45.93-.59c.36-.14.75-.21 1.16-.21.41 0 .8.07 1.16.21.36.14.67.34.94.59.26.25.47.55.62.9s.22.74.22 1.16zm-1.12 0c0-.26-.04-.51-.12-.74-.08-.24-.2-.45-.35-.62-.15-.18-.34-.32-.57-.43-.23-.11-.49-.16-.78-.16-.29 0-.55.05-.78.16-.23.11-.42.25-.57.43-.15.18-.27.39-.35.62a2.356 2.356 0 0 0 0 1.49c.08.24.2.45.35.63.15.18.34.33.57.44.23.11.49.16.78.16.29 0 .55-.05.78-.16.23-.11.42-.25.57-.44.15-.18.27-.39.35-.63.08-.24.12-.49.12-.75zM263.62 231.78c.02.14.03.29.03.46.01.17.01.32.01.43h.03c.07-.15.16-.28.28-.41.12-.13.25-.24.41-.33a2.124 2.124 0 0 1 1.08-.3c.35 0 .66.06.91.18s.46.28.63.48c.17.2.29.43.37.7.08.27.12.56.12.86v3.38h-1.08v-3.02c0-.22-.02-.43-.05-.63-.03-.2-.1-.38-.19-.53s-.22-.28-.38-.37c-.16-.09-.37-.14-.62-.14-.43 0-.78.16-1.05.49-.27.33-.41.76-.41 1.3v2.9h-1.08v-4.27c0-.15 0-.33-.01-.56-.01-.23-.02-.43-.03-.61h1.03zM272.87 232.6c.13-.27.35-.5.67-.69s.67-.29 1.06-.29c.35 0 .66.06.91.18s.46.28.63.48c.17.2.29.43.37.7.08.27.12.56.12.86v3.38h-1.08v-3.02c0-.22-.02-.43-.05-.63-.03-.2-.1-.38-.19-.53-.09-.15-.22-.28-.37-.37-.16-.09-.36-.14-.61-.14-.43 0-.78.16-1.06.49-.28.33-.41.76-.41 1.31v2.89h-1.08v-8.69h1.08v4.07h.01zM283.32 234.45v.18c0 .06 0 .12-.01.18h-4.33c.01.23.06.44.15.64s.22.38.39.53c.16.15.35.26.56.35.21.08.43.12.67.12.37 0 .69-.08.95-.24.27-.16.48-.36.63-.59l.76.61c-.29.39-.63.67-1.03.85s-.83.27-1.32.27c-.41 0-.8-.07-1.15-.21-.35-.14-.66-.33-.91-.58-.25-.25-.45-.55-.6-.9a2.94 2.94 0 0 1-.22-1.17c0-.42.07-.81.21-1.17s.34-.66.59-.91c.25-.25.55-.45.9-.59.35-.14.72-.21 1.12-.21.4 0 .76.07 1.09.2.33.13.6.32.83.56s.4.54.52.89c.14.36.2.76.2 1.19zm-1.1-.43c-.01-.21-.04-.42-.11-.6-.06-.19-.16-.35-.29-.49a1.33 1.33 0 0 0-.47-.33 1.69 1.69 0 0 0-.66-.12c-.23 0-.45.04-.65.12a1.694 1.694 0 0 0-1.07 1.42h3.25zM284.57 232.38c-.01-.23-.02-.43-.03-.61h1.02c.02.14.03.3.03.48.01.18.01.33.01.44h.03c.15-.32.38-.58.67-.78s.63-.29.99-.29c.17 0 .31.02.43.05l-.05 1c-.15-.04-.32-.06-.49-.06-.26 0-.49.05-.68.14-.19.1-.35.22-.48.38s-.22.35-.28.56c-.06.21-.09.43-.09.66v2.86h-1.08v-4.27c.01-.14.01-.32 0-.56zM294.54 233.7c0-.41-.12-.71-.37-.9s-.57-.29-.98-.29c-.31 0-.6.06-.87.18s-.5.27-.68.45l-.57-.69c.27-.25.6-.45.98-.6s.8-.22 1.25-.22c.39 0 .73.06 1.02.17.29.11.52.26.71.45.18.19.32.42.41.68.09.26.14.54.14.84v2.38c0 .18.01.38.02.58.01.2.03.37.06.5h-.98c-.06-.26-.09-.52-.09-.78h-.03c-.2.29-.45.52-.75.68-.3.16-.66.24-1.07.24-.21 0-.44-.03-.67-.09-.23-.06-.45-.15-.64-.28-.19-.13-.35-.3-.48-.52-.13-.21-.19-.48-.19-.79 0-.41.11-.74.33-.98s.51-.42.87-.55c.36-.13.77-.21 1.22-.25.45-.04.91-.06 1.37-.06v-.15zm-.26.93c-.27 0-.55.01-.83.03-.29.02-.55.07-.78.14-.23.07-.43.17-.58.31s-.23.32-.23.55c0 .16.03.29.1.4.06.11.15.2.26.26.11.07.23.12.36.14.13.03.26.04.4.04.51 0 .89-.15 1.17-.45s.41-.68.41-1.14v-.29h-.28zM298.22 236.36v.86h-1.05v-8.69h1.08v4.06h.03c.18-.27.44-.5.77-.68.33-.19.72-.28 1.17-.28.41 0 .77.07 1.11.22s.62.35.86.61.43.57.56.91c.13.35.2.72.2 1.12s-.06.77-.2 1.13c-.13.35-.31.66-.55.92-.24.26-.52.47-.86.62-.34.15-.71.22-1.13.22-.39 0-.76-.09-1.11-.26-.35-.17-.63-.42-.85-.75h-.03zm3.62-1.87c0-.25-.04-.5-.12-.73-.08-.24-.19-.45-.34-.63-.15-.18-.34-.33-.57-.44-.23-.11-.49-.16-.79-.16-.28 0-.53.05-.75.16-.23.11-.42.25-.58.44-.16.18-.29.39-.37.63-.09.24-.13.48-.13.74s.04.51.13.75.21.44.37.62.35.32.58.43c.23.11.48.16.75.16.3 0 .56-.05.79-.17.23-.11.42-.26.57-.44.15-.18.27-.39.34-.63.08-.23.12-.47.12-.73zM308.57 236.36c-.21.33-.49.58-.84.75-.36.17-.73.26-1.12.26-.42 0-.8-.08-1.14-.22-.34-.15-.62-.35-.86-.62-.24-.26-.42-.57-.55-.92s-.2-.73-.2-1.13.06-.77.2-1.12c.13-.35.32-.65.56-.91.24-.26.53-.46.87-.61s.71-.22 1.11-.22c.44 0 .83.09 1.16.28.33.19.59.42.78.68h.02v-4.06h1.08v8.69h-1.05v-.86h-.02zm-3.58-1.87c0 .25.04.5.12.73.08.24.19.45.34.63.15.18.34.33.56.44.22.11.48.17.78.17.28 0 .53-.05.75-.16.23-.11.42-.25.58-.43.16-.18.29-.39.37-.62.09-.24.13-.49.13-.75s-.04-.51-.13-.74c-.09-.24-.21-.45-.37-.63a1.712 1.712 0 0 0-1.33-.6c-.3 0-.56.05-.78.16-.22.11-.41.25-.56.44-.15.18-.27.39-.34.63-.08.24-.12.48-.12.73zM316.81 234.49c0 .42-.07.81-.22 1.16a2.773 2.773 0 0 1-1.56 1.51c-.36.14-.75.21-1.16.21-.41 0-.8-.07-1.16-.21-.36-.14-.67-.34-.93-.6-.26-.26-.47-.56-.61-.91-.15-.35-.22-.74-.22-1.16 0-.42.07-.81.22-1.16.15-.35.35-.65.61-.9s.57-.45.93-.59c.36-.14.75-.21 1.16-.21.41 0 .8.07 1.16.21.36.14.67.34.94.59.26.25.47.55.62.9s.22.74.22 1.16zm-1.12 0c0-.26-.04-.51-.12-.74-.08-.24-.2-.45-.35-.62-.15-.18-.34-.32-.57-.43-.23-.11-.49-.16-.78-.16-.29 0-.55.05-.78.16-.23.11-.42.25-.57.43-.15.18-.27.39-.35.62a2.356 2.356 0 0 0 0 1.49c.08.24.2.45.35.63.15.18.34.33.57.44.23.11.49.16.78.16.29 0 .55-.05.78-.16.23-.11.42-.25.57-.44.15-.18.27-.39.35-.63.08-.24.12-.49.12-.75zM319.79 231.93c.3-.2.66-.3 1.07-.3.37 0 .7.08.99.25.29.17.53.45.7.84.18-.35.44-.62.77-.81.33-.19.69-.28 1.08-.28.35 0 .65.06.91.18.25.12.46.28.63.48.17.2.29.43.37.7.08.27.12.56.12.86v3.38h-1.08v-3.02c0-.22-.02-.43-.06-.63-.04-.2-.1-.38-.2-.53s-.21-.28-.37-.37c-.15-.09-.35-.14-.59-.14-.25 0-.46.05-.63.16-.18.1-.32.24-.43.4s-.19.35-.24.56c-.05.21-.07.42-.07.63v2.94h-1.08v-3.24c0-.21-.02-.41-.06-.59-.04-.18-.1-.33-.2-.45a.882.882 0 0 0-.36-.3c-.15-.07-.33-.11-.54-.11-.4 0-.73.16-.99.49-.26.33-.4.76-.4 1.3v2.9h-1.08v-4.27c0-.15 0-.33-.01-.56-.01-.23-.02-.43-.03-.61h1.02c.02.14.03.29.03.46.01.17.01.32.01.43h.03c.17-.3.39-.55.69-.75zM333.13 234.45v.18c0 .06 0 .12-.01.18h-4.33c.01.23.06.44.15.64s.22.38.39.53c.16.15.35.26.56.35.21.08.43.12.67.12.37 0 .69-.08.95-.24.27-.16.48-.36.63-.59l.76.61c-.29.39-.63.67-1.03.85s-.83.27-1.32.27c-.41 0-.8-.07-1.15-.21-.35-.14-.66-.33-.91-.58-.25-.25-.45-.55-.6-.9a2.94 2.94 0 0 1-.22-1.17c0-.42.07-.81.21-1.17s.34-.66.59-.91c.25-.25.55-.45.9-.59.35-.14.72-.21 1.12-.21.4 0 .76.07 1.09.2.33.13.6.32.83.56s.4.54.52.89c.14.36.2.76.2 1.19zm-1.1-.43c-.01-.21-.04-.42-.11-.6-.06-.19-.16-.35-.29-.49a1.33 1.33 0 0 0-.47-.33 1.69 1.69 0 0 0-.66-.12c-.23 0-.45.04-.65.12a1.694 1.694 0 0 0-1.07 1.42h3.25zM335.37 231.78c.02.14.03.29.03.46.01.17.01.32.01.43h.03c.07-.15.16-.28.28-.41.12-.13.25-.24.41-.33a2.124 2.124 0 0 1 1.08-.3c.35 0 .66.06.91.18s.46.28.63.48c.17.2.29.43.37.7.08.27.12.56.12.86v3.38h-1.08v-3.02c0-.22-.02-.43-.05-.63-.03-.2-.1-.38-.19-.53s-.22-.28-.38-.37c-.16-.09-.37-.14-.62-.14-.43 0-.78.16-1.05.49-.27.33-.41.76-.41 1.3v2.9h-1.08v-4.27c0-.15 0-.33-.01-.56-.01-.23-.02-.43-.03-.61h1.03zM342.18 236.53c0 .2-.07.38-.22.53s-.33.23-.55.23c-.21 0-.4-.08-.55-.22a.704.704 0 0 1-.22-.52c0-.21.07-.38.22-.53.15-.15.33-.22.55-.22s.41.07.55.22.22.31.22.51zM347.1 237.22h-1.14v-8.14h2.61c.39 0 .76.04 1.11.12.35.08.66.21.93.38.26.18.47.41.63.7s.23.64.23 1.05c0 .6-.18 1.08-.55 1.45-.37.37-.84.6-1.42.7l2.28 3.73h-1.38l-2.07-3.62h-1.22v3.63zm0-4.57h1.31c.27 0 .52-.02.75-.07s.43-.12.6-.22.31-.24.41-.4c.1-.16.15-.37.15-.61s-.05-.45-.15-.62c-.1-.16-.23-.3-.4-.4-.17-.1-.36-.17-.58-.21-.22-.04-.46-.06-.7-.06h-1.39v2.59zM357.68 234.45v.18c0 .06 0 .12-.01.18h-4.33c.01.23.06.44.15.64s.22.38.39.53c.16.15.35.26.56.35.21.08.43.12.67.12.37 0 .69-.08.95-.24.27-.16.48-.36.63-.59l.76.61c-.29.39-.63.67-1.03.85s-.83.27-1.32.27c-.41 0-.8-.07-1.15-.21-.35-.14-.66-.33-.91-.58-.25-.25-.45-.55-.6-.9a2.94 2.94 0 0 1-.22-1.17c0-.42.07-.81.21-1.17s.34-.66.59-.91c.25-.25.55-.45.9-.59.35-.14.72-.21 1.12-.21.4 0 .76.07 1.09.2.33.13.6.32.83.56s.4.54.52.89c.14.36.2.76.2 1.19zm-1.1-.43c-.01-.21-.04-.42-.11-.6-.06-.19-.16-.35-.29-.49a1.33 1.33 0 0 0-.47-.33 1.69 1.69 0 0 0-.66-.12c-.23 0-.45.04-.65.12a1.694 1.694 0 0 0-1.07 1.42h3.25zM361.89 233.16c-.12-.2-.3-.36-.52-.49-.22-.13-.47-.19-.75-.19-.12 0-.25.01-.37.04s-.23.07-.33.13-.17.13-.23.22-.09.2-.09.33c0 .23.1.4.31.51.21.11.52.21.93.3.26.06.5.13.72.22s.42.19.58.32c.16.13.29.28.38.45.09.18.14.38.14.62 0 .32-.06.59-.18.82-.12.22-.29.4-.49.55-.2.14-.44.24-.7.3-.26.06-.53.09-.8.09-.41 0-.82-.08-1.21-.24s-.72-.41-.98-.74l.77-.66c.15.21.35.39.6.54.26.15.54.22.84.22.14 0 .27-.01.4-.04s.24-.07.34-.13c.1-.06.19-.14.25-.24.06-.1.09-.23.09-.38 0-.25-.12-.44-.36-.56-.24-.12-.6-.24-1.06-.34-.18-.05-.37-.1-.56-.17-.19-.07-.36-.16-.51-.27-.15-.11-.28-.26-.37-.43-.1-.17-.14-.38-.14-.64a1.487 1.487 0 0 1 .65-1.27c.2-.14.41-.23.65-.3s.5-.1.76-.1c.39 0 .77.08 1.13.23.36.15.65.38.84.67l-.73.63zM367.66 237.22c-.02-.14-.03-.29-.03-.47-.01-.17-.01-.32-.01-.43h-.02c-.14.29-.37.54-.7.74s-.69.3-1.09.3c-.35 0-.66-.06-.91-.17-.26-.11-.47-.27-.63-.48s-.29-.44-.37-.71a3.03 3.03 0 0 1-.12-.86v-3.38h1.08v3.01c0 .22.02.43.05.64.03.2.1.38.19.53.09.15.22.28.38.37.16.09.37.14.62.14.44 0 .79-.16 1.06-.49.27-.33.4-.76.4-1.3v-2.9h1.08v4.27c0 .15 0 .33.01.56.01.23.02.43.03.61h-1.02zM371.38 237.22h-1.08v-8.69h1.08v8.69zM375.7 232.66h-1.45v2.83c0 .33.06.56.18.71.12.14.32.21.59.21.1 0 .21-.01.32-.03.12-.02.22-.05.31-.09l.03.88c-.13.05-.27.08-.43.11-.16.03-.32.04-.49.04-.51 0-.91-.14-1.18-.42s-.41-.71-.41-1.28v-2.95h-1.05v-.88h1.05v-1.56h1.07v1.56h1.45v.87zM379.53 233.16c-.12-.2-.3-.36-.52-.49-.22-.13-.47-.19-.75-.19-.12 0-.25.01-.37.04s-.23.07-.33.13-.17.13-.23.22-.09.2-.09.33c0 .23.1.4.31.51.21.11.52.21.93.3.26.06.5.13.72.22s.42.19.58.32c.16.13.29.28.38.45.09.18.14.38.14.62 0 .32-.06.59-.18.82-.12.22-.29.4-.49.55-.2.14-.44.24-.7.3-.26.06-.53.09-.8.09-.41 0-.82-.08-1.21-.24s-.72-.41-.98-.74l.77-.66c.15.21.35.39.6.54.26.15.54.22.84.22.14 0 .27-.01.4-.04s.24-.07.34-.13c.1-.06.19-.14.25-.24.06-.1.09-.23.09-.38 0-.25-.12-.44-.36-.56-.24-.12-.6-.24-1.06-.34-.18-.05-.37-.1-.56-.17-.19-.07-.36-.16-.51-.27-.15-.11-.28-.26-.37-.43-.1-.17-.14-.38-.14-.64a1.487 1.487 0 0 1 .65-1.27c.2-.14.41-.23.65-.3s.5-.1.76-.1c.39 0 .77.08 1.13.23.36.15.65.38.84.67l-.73.63zM385.82 231.93c.3-.2.66-.3 1.07-.3.37 0 .7.08.99.25.29.17.53.45.7.84.18-.35.44-.62.77-.81.33-.19.69-.28 1.08-.28.35 0 .65.06.91.18.25.12.46.28.63.48.17.2.29.43.37.7.08.27.12.56.12.86v3.38h-1.08v-3.02c0-.22-.02-.43-.06-.63-.04-.2-.1-.38-.2-.53s-.21-.28-.37-.37c-.15-.09-.35-.14-.59-.14-.25 0-.46.05-.63.16-.18.1-.32.24-.43.4s-.19.35-.24.56c-.05.21-.07.42-.07.63v2.94h-1.08v-3.24c0-.21-.02-.41-.06-.59-.04-.18-.1-.33-.2-.45a.882.882 0 0 0-.36-.3c-.15-.07-.33-.11-.54-.11-.4 0-.73.16-.99.49-.26.33-.4.76-.4 1.3v2.9h-1.08v-4.27c0-.15 0-.33-.01-.56-.01-.23-.02-.43-.03-.61h1.02c.02.14.03.29.03.46.01.17.01.32.01.43h.03c.17-.3.39-.55.69-.75zM397.45 233.7c0-.41-.12-.71-.37-.9s-.57-.29-.98-.29c-.31 0-.6.06-.87.18s-.5.27-.68.45l-.57-.69c.27-.25.6-.45.98-.6s.8-.22 1.25-.22c.39 0 .73.06 1.02.17.29.11.52.26.71.45.18.19.32.42.41.68.09.26.14.54.14.84v2.38c0 .18.01.38.02.58.01.2.03.37.06.5h-.98c-.06-.26-.09-.52-.09-.78h-.03c-.2.29-.45.52-.75.68-.3.16-.66.24-1.07.24-.21 0-.44-.03-.67-.09-.23-.06-.45-.15-.64-.28-.19-.13-.35-.3-.48-.52-.13-.21-.19-.48-.19-.79 0-.41.11-.74.33-.98s.51-.42.87-.55c.36-.13.77-.21 1.22-.25.45-.04.91-.06 1.37-.06v-.15zm-.26.93c-.27 0-.55.01-.83.03-.29.02-.55.07-.78.14-.23.07-.43.17-.58.31s-.23.32-.23.55c0 .16.03.29.1.4.06.11.15.2.26.26.11.07.23.12.36.14.13.03.26.04.4.04.51 0 .89-.15 1.17-.45s.41-.68.41-1.14v-.29h-.28zM402.13 236.05h.02l1.51-4.27h1.15l-2.64 6.73c-.09.23-.19.43-.3.61-.11.18-.23.33-.38.46s-.32.22-.51.29-.43.1-.7.1c-.11 0-.23-.01-.35-.02-.12-.01-.24-.03-.36-.06l.1-.95c.18.06.36.09.54.09.28 0 .49-.08.63-.24.14-.16.26-.38.38-.67l.34-.91-2.33-5.45h1.21l1.69 4.29zM410.83 237.22h-1.17l-2.22-5.45h1.19l1.6 4.29h.02l1.61-4.29h1.15l-2.18 5.45zM417.21 233.7c0-.41-.12-.71-.37-.9s-.57-.29-.98-.29c-.31 0-.6.06-.87.18s-.5.27-.68.45l-.57-.69c.27-.25.6-.45.98-.6s.8-.22 1.25-.22c.39 0 .73.06 1.02.17.29.11.52.26.71.45.18.19.32.42.41.68.09.26.14.54.14.84v2.38c0 .18.01.38.02.58.01.2.03.37.06.5h-.98c-.06-.26-.09-.52-.09-.78h-.03c-.2.29-.45.52-.75.68-.3.16-.66.24-1.07.24-.21 0-.44-.03-.67-.09-.23-.06-.45-.15-.64-.28-.19-.13-.35-.3-.48-.52-.13-.21-.19-.48-.19-.79 0-.41.11-.74.33-.98s.51-.42.87-.55c.36-.13.77-.21 1.22-.25.45-.04.91-.06 1.37-.06v-.15zm-.26.93c-.27 0-.55.01-.83.03-.29.02-.55.07-.78.14-.23.07-.43.17-.58.31s-.23.32-.23.55c0 .16.03.29.1.4.06.11.15.2.26.26.11.07.23.12.36.14.13.03.26.04.4.04.51 0 .89-.15 1.17-.45s.41-.68.41-1.14v-.29h-.28zM419.81 232.38c-.01-.23-.02-.43-.03-.61h1.02c.02.14.03.3.03.48.01.18.01.33.01.44h.03c.15-.32.38-.58.67-.78s.63-.29.99-.29c.17 0 .31.02.43.05l-.05 1c-.15-.04-.32-.06-.49-.06-.26 0-.49.05-.68.14-.19.1-.35.22-.48.38s-.22.35-.28.56c-.06.21-.09.43-.09.66v2.86h-1.08v-4.27c.01-.14.01-.32 0-.56z"/><path class="st0" d="M425.82 236.05h.02l1.51-4.27h1.15l-2.64 6.73c-.09.23-.19.43-.3.61-.11.18-.23.33-.38.46s-.32.22-.51.29-.43.1-.7.1c-.11 0-.23-.01-.35-.02-.12-.01-.24-.03-.36-.06l.1-.95c.18.06.36.09.54.09.28 0 .49-.08.63-.24.14-.16.26-.38.38-.67l.34-.91-2.33-5.45h1.21l1.69 4.29zM430.23 236.53c0 .2-.07.38-.22.53s-.33.23-.55.23c-.21 0-.4-.08-.55-.22a.704.704 0 0 1-.22-.52c0-.21.07-.38.22-.53.15-.15.33-.22.55-.22s.41.07.55.22.22.31.22.51z"/></svg>