<svg id="Layer_1" xmlns="http://www.w3.org/2000/svg" viewBox="0 0 728 90"><style>.st0{fill:#fff}</style><path class="st0" d="M15.07 39.79h1.26c1.24 0 1.73-.33 1.73-1.65V21.82h-.71c-3.88 0-4.7 2.69-5.39 6.92h-.38l.36-7.34h14.59l.3 7.34h-.38c-.66-4.23-1.51-6.92-5.39-6.92h-.71v16.32c0 1.32.47 1.65 1.73 1.65h1.24v.41h-8.24v-.41zM26.08 37.87c0-2.34 2.09-3.57 7.25-4.78v-.8c0-2.64-1.04-3.55-2.69-3.55-1.48 0-2.75.63-2.75 1.13 0 .08.03.11.14.11.55 0 1.15.52 1.15 1.21 0 .71-.55 1.26-1.24 1.26-.71 0-1.24-.52-1.24-1.32 0-1.43 1.51-2.78 4.45-2.78 2.2 0 4.12.8 4.12 4.04v5.63c0 1.15.33 1.51.71 1.51.66 0 .93-.69.96-2.2h.38c-.06 2.61-.96 3.11-2.09 3.11-1.07 0-2.06-.6-1.92-2.58h-.05c-.52 1.43-2.17 2.64-4.09 2.64-1.74.01-3.09-.87-3.09-2.63zm7.26-2.36v-1.98c-4.2.85-4.97 2.31-4.97 3.88 0 1.24.66 2.14 1.92 2.14 1.35 0 3.05-.99 3.05-4.04zM37.68 39.82h.11c1.24 0 1.51-.33 1.51-1.65V23.42c0-1.32-.27-1.65-1.51-1.65h-.22v-.38l3.68-.41v17.2c0 1.32.27 1.65 1.48 1.65h.22v.38h-5.28v-.39zM43.73 39.82h.14c1.21 0 1.48-.3 1.48-1.54V23.33c0-1.26-.27-1.57-1.48-1.57h-.25v-.38l3.68-.41V35.4l4.15-4.45c.55-.58.71-.85.71-1.21 0-.41-.49-.66-1.4-.71v-.3h4.84v.3c-1.59.17-1.98.55-3 1.57l-2.25 2.31c0-.03 3.98 5.61 3.98 5.61.63.88.88 1.24 1.98 1.32v.38H51.2v-.36c.88-.08 1.18-.33 1.18-.63 0-.17-.05-.3-.36-.74l-2.97-4.26-1.76 1.76v2.31c0 1.24.27 1.54 1.51 1.54h.17v.38h-5.25v-.4zM64.42 37.05v-7.92h-1.87v-.33c1.76-.3 3.22-1.51 3.49-5.06h.36v4.95h3.71v.44H66.4v8.05c0 1.73.63 2.58 1.87 2.58 1.13 0 2.03-1.24 2.14-3.66h.38c0 2.8-1.24 4.45-3.22 4.45-1.95.01-3.15-1.11-3.15-3.5zM71.59 34.44c0-3.57 2.8-6.13 5.39-6.13 2.58 0 5.36 2.5 5.36 6.07 0 3.49-2.78 6.24-5.36 6.24-2.59 0-5.39-2.69-5.39-6.18zm8.43.02c0-3.19-.82-5.77-3.05-5.77s-3.05 2.53-3.05 5.72c0 3.16.77 5.83 3.05 5.83s3.05-2.62 3.05-5.78zM89.36 43.86c0-.85.58-1.46 1.4-1.46.66 0 1.13.58 1.13 1.15 0 .5-.19.77-.38.96-.17.17-.3.25-.3.47 0 .28.3.47.71.47 1.26 0 2.12-1.73 2.91-3.66l.36-.85-4.12-10c-.49-1.24-.88-1.79-2.01-1.87v-.36h5.52v.36c-.96.08-1.4.38-1.43.82-.03.41.11.88.33 1.46l2.72 7.2 2.47-6.49c.25-.63.52-1.4.52-1.92 0-.71-.47-.99-1.51-1.07v-.36h4.07v.36c-1.21.08-1.51.74-1.95 1.87l-4.42 10.83c-1.37 3.38-2.42 4.15-3.71 4.15-1.51 0-2.31-.93-2.31-2.06zM101.51 34.44c0-3.57 2.8-6.13 5.39-6.13 2.58 0 5.36 2.5 5.36 6.07 0 3.49-2.78 6.24-5.36 6.24-2.59 0-5.39-2.69-5.39-6.18zm8.44.02c0-3.19-.82-5.77-3.05-5.77s-3.05 2.53-3.05 5.72c0 3.16.77 5.83 3.05 5.83s3.05-2.62 3.05-5.78zM114.59 36.58v-5.94c0-1.21-.27-1.57-1.48-1.57h-.25v-.36l3.68-.22v8.57c0 1.95.74 2.72 2.03 2.72 1.7 0 3.41-2.42 3.41-4.73v-4.4c0-1.26-.27-1.59-1.48-1.59h-.55v-.36l4.01-.22v9.62c0 1.24.3 1.59 1.51 1.59h.19v.36l-3.65.41.14-3.41h-.05c-.71 1.87-2.31 3.41-4.18 3.41-2.18.02-3.33-1.24-3.33-3.88zM126.24 39.82h.19c1.21 0 1.48-.3 1.48-1.54v-7.69c0-1.24-.33-1.54-1.48-1.54h-.19v-.33l3.65-.22-.19 4.64h.06c.85-3 2.23-4.78 4.04-4.78 1.4 0 2.2.83 2.2 1.79 0 1.07-.6 1.62-1.37 1.62-.69 0-1.24-.44-1.24-1.13 0-.6.33-.88.58-1.1.14-.11.22-.19.22-.33 0-.22-.27-.28-.6-.28-1.98 0-3.66 3.9-3.66 6.07v3.27c0 1.24.27 1.54 1.48 1.54h.63v.38h-5.8v-.37zM142.23 45.43h.33c1.21 0 1.48-.3 1.48-1.57V30.64c0-1.26-.27-1.57-1.48-1.57h-.19v-.36l3.57-.22-.08 2.8h.06c.88-1.7 2.06-2.88 3.85-2.88 2.25 0 4.81 2.34 4.81 6.02 0 3.63-2.5 6.05-4.92 6.05-1.87 0-3.02-1.29-3.76-2.97h-.03s.11 1.7.11 3.44v2.91c0 1.26.27 1.57 1.48 1.57h.63v.38h-5.85v-.38zm10.03-10.94c0-2.86-.66-5.63-2.78-5.63-1.35 0-3.55 1.59-3.55 5.61 0 2.83 1.51 5.58 3.49 5.58 2.13-.01 2.84-2.59 2.84-5.56zM155.59 39.82h.19c1.21 0 1.48-.3 1.48-1.54v-7.69c0-1.24-.33-1.54-1.48-1.54h-.19v-.33l3.65-.22-.19 4.64h.06c.85-3 2.23-4.78 4.04-4.78 1.4 0 2.2.83 2.2 1.79 0 1.07-.6 1.62-1.37 1.62-.69 0-1.24-.44-1.24-1.13 0-.6.33-.88.58-1.1.14-.11.22-.19.22-.33 0-.22-.27-.28-.6-.28-1.98 0-3.66 3.9-3.66 6.07v3.27c0 1.24.27 1.54 1.48 1.54h.63v.38h-5.8v-.37zM165.64 34.44c0-3.57 2.8-6.13 5.39-6.13 2.58 0 5.36 2.5 5.36 6.07 0 3.49-2.78 6.24-5.36 6.24-2.59 0-5.39-2.69-5.39-6.18zm8.44.02c0-3.19-.82-5.77-3.05-5.77s-3.05 2.53-3.05 5.72c0 3.16.77 5.83 3.05 5.83s3.05-2.62 3.05-5.78zM178.42 30.86c-.52-1.24-.85-1.7-1.98-1.79v-.36h5.5v.36c-1.1.08-1.4.36-1.43.8-.03.41.11.93.3 1.43l2.64 7.01 2.45-6.32c.25-.66.52-1.35.52-1.87 0-.71-.47-.96-1.51-1.04v-.36h3.96v.36c-1.13.08-1.48.71-1.92 1.79l-4.07 9.89h-.38l-4.08-9.9zM189.14 39.82h.22c1.21 0 1.48-.3 1.48-1.54v-7.64c0-1.26-.27-1.57-1.48-1.57h-.22v-.36l3.66-.22v9.78c0 1.24.27 1.54 1.48 1.54h.22v.38h-5.36v-.37zm.9-15.72c0-.82.69-1.51 1.51-1.51s1.51.69 1.51 1.51c0 .82-.69 1.51-1.51 1.51s-1.51-.68-1.51-1.51zM195.51 34.46c0-3.41 2.17-6.05 4.84-6.05 1.65 0 2.94 1.15 3.79 2.83h.08c-.06-.77-.08-2.42-.08-4.15v-3.74c0-1.26-.3-1.57-1.51-1.57h-.69v-.38l4.15-.41v17.15c0 1.24.25 1.59 1.46 1.59h.22v.38l-3.63.41.11-3.08h-.08c-.91 1.68-2.06 3.02-3.93 3.02-2.28.02-4.73-2.26-4.73-6zm8.63-.02c0-4.09-2.28-5.61-3.46-5.61-2.25 0-2.86 2.56-2.86 5.55 0 3.05.74 5.66 2.83 5.66 1.43 0 3.49-1.98 3.49-5.6zM208.59 34.52c0-3.71 2.58-6.21 5.33-6.21 2.2 0 4.73 1.7 4.73 5.25 0 .08-.03.69-.06.82h-7.75c0 3.02 1.21 5.36 3.57 5.36 2.12 0 3.19-1.07 4.09-2.39l.3.22c-1.02 1.7-2.61 3.05-5 3.05-3.15 0-5.21-2.34-5.21-6.1zm6.38-.58c1.1 0 1.4-.36 1.4-1.24 0-2.2-.77-3.99-2.53-3.99-1.92 0-2.91 2.06-3 5.22h4.13zM219.75 39.82h.19c1.21 0 1.48-.3 1.48-1.54v-7.69c0-1.24-.33-1.54-1.48-1.54h-.19v-.33l3.65-.22-.19 4.64h.06c.85-3 2.23-4.78 4.04-4.78 1.4 0 2.2.83 2.2 1.79 0 1.07-.6 1.62-1.37 1.62-.69 0-1.24-.44-1.24-1.13 0-.6.33-.88.58-1.1.14-.11.22-.19.22-.33 0-.22-.27-.28-.6-.28-1.98 0-3.66 3.9-3.66 6.07v3.27c0 1.24.27 1.54 1.48 1.54h.63v.38h-5.8v-.37zM236.31 37.87c0-2.34 2.09-3.57 7.25-4.78v-.8c0-2.64-1.04-3.55-2.69-3.55-1.48 0-2.75.63-2.75 1.13 0 .08.03.11.14.11.55 0 1.15.52 1.15 1.21 0 .71-.55 1.26-1.24 1.26-.71 0-1.24-.52-1.24-1.32 0-1.43 1.51-2.78 4.45-2.78 2.2 0 4.12.8 4.12 4.04v5.63c0 1.15.33 1.51.71 1.51.66 0 .93-.69.96-2.2h.38c-.05 2.61-.96 3.11-2.09 3.11-1.07 0-2.06-.6-1.92-2.58h-.05c-.52 1.43-2.17 2.64-4.09 2.64-1.74.01-3.09-.87-3.09-2.63zm7.26-2.36v-1.98c-4.2.85-4.97 2.31-4.97 3.88 0 1.24.66 2.14 1.92 2.14 1.35 0 3.05-.99 3.05-4.04zM249.17 35.53v-12.2c0-1.26-.27-1.57-1.48-1.57h-.47v-.38l3.87-.41v5.96c0 2.12-.08 4.31-.08 4.31h.06c1.04-1.81 2.12-2.83 3.9-2.83 2.39 0 4.73 2.58 4.73 5.99 0 3.79-2.53 6.07-4.81 6.07-1.87 0-2.86-1.04-3.79-2.72h-.05l-1.87 2.94h-.36c.27-1.55.35-3.48.35-5.16zm8.22-1.07c0-3.02-.71-5.61-2.75-5.61-1.87 0-3.57 2.28-3.57 5.58 0 3.08 1.54 5.61 3.52 5.61 1.62 0 2.8-1.54 2.8-5.58zM261.02 34.44c0-3.57 2.8-6.13 5.39-6.13 2.58 0 5.36 2.5 5.36 6.07 0 3.49-2.78 6.24-5.36 6.24-2.59 0-5.39-2.69-5.39-6.18zm8.43.02c0-3.19-.82-5.77-3.05-5.77s-3.05 2.53-3.05 5.72c0 3.16.77 5.83 3.05 5.83s3.05-2.62 3.05-5.78zM274.1 36.58v-5.94c0-1.21-.27-1.57-1.48-1.57h-.25v-.36l3.68-.22v8.57c0 1.95.74 2.72 2.03 2.72 1.7 0 3.41-2.42 3.41-4.73v-4.4c0-1.26-.27-1.59-1.48-1.59h-.55v-.36l4.01-.22v9.62c0 1.24.3 1.59 1.51 1.59h.19v.36l-3.65.41.14-3.41h-.05c-.71 1.87-2.31 3.41-4.18 3.41-2.18.02-3.33-1.24-3.33-3.88zM287.23 37.05v-7.92h-1.87v-.33c1.76-.3 3.22-1.51 3.49-5.06h.36v4.95h3.71v.44h-3.71v8.05c0 1.73.63 2.58 1.87 2.58 1.13 0 2.03-1.24 2.14-3.66h.38c0 2.8-1.24 4.45-3.22 4.45-1.94.01-3.15-1.11-3.15-3.5zM300.64 37.87c0-2.34 2.09-3.57 7.25-4.78v-.8c0-2.64-1.04-3.55-2.69-3.55-1.48 0-2.75.63-2.75 1.13 0 .08.03.11.14.11.55 0 1.15.52 1.15 1.21 0 .71-.55 1.26-1.24 1.26-.71 0-1.24-.52-1.24-1.32 0-1.43 1.51-2.78 4.45-2.78 2.2 0 4.12.8 4.12 4.04v5.63c0 1.15.33 1.51.71 1.51.66 0 .93-.69.96-2.2h.38c-.06 2.61-.96 3.11-2.09 3.11-1.07 0-2.06-.6-1.92-2.58h-.05c-.52 1.43-2.17 2.64-4.09 2.64-1.75.01-3.09-.87-3.09-2.63zm7.25-2.36v-1.98c-4.2.85-4.97 2.31-4.97 3.88 0 1.24.66 2.14 1.92 2.14 1.35 0 3.05-.99 3.05-4.04zM11.03 70.41h.33c1.21 0 1.48-.3 1.48-1.57V55.62c0-1.26-.27-1.57-1.48-1.57h-.19v-.35l3.57-.22-.08 2.8h.06c.88-1.7 2.06-2.88 3.85-2.88 2.25 0 4.81 2.34 4.81 6.02 0 3.63-2.5 6.05-4.92 6.05-1.87 0-3.02-1.29-3.76-2.97h-.03s.11 1.7.11 3.44v2.91c0 1.26.27 1.57 1.48 1.57h.63v.38h-5.85v-.39zm10.03-10.94c0-2.86-.66-5.63-2.78-5.63-1.35 0-3.55 1.59-3.55 5.61 0 2.83 1.51 5.58 3.49 5.58 2.12-.01 2.84-2.59 2.84-5.56zM24.68 59.5c0-3.71 2.58-6.21 5.33-6.21 2.2 0 4.73 1.7 4.73 5.25 0 .08-.03.69-.06.82h-7.75c0 3.02 1.21 5.36 3.57 5.36 2.12 0 3.19-1.07 4.09-2.39l.3.22c-1.02 1.7-2.61 3.05-5 3.05-3.14 0-5.21-2.34-5.21-6.1zm6.38-.58c1.1 0 1.4-.36 1.4-1.24 0-2.2-.77-3.99-2.53-3.99-1.92 0-2.91 2.06-3 5.22h4.13zM35.84 64.8h.19c1.21 0 1.48-.3 1.48-1.54v-7.69c0-1.24-.33-1.54-1.48-1.54h-.19v-.33l3.65-.22-.19 4.64h.06c.85-3 2.23-4.78 4.04-4.78 1.4 0 2.2.83 2.2 1.79 0 1.07-.6 1.62-1.37 1.62-.69 0-1.24-.44-1.24-1.13 0-.6.33-.88.58-1.1.14-.11.22-.19.22-.33 0-.22-.27-.28-.6-.28-1.98 0-3.66 3.9-3.66 6.07v3.27c0 1.24.27 1.54 1.48 1.54h.63v.38h-5.8v-.37zM47.6 64.5c-.41 0-.77.33-.99.93h-.27v-4.67h.25c.47 2.69 2.67 4.31 4.84 4.31 1.62 0 2.78-.93 2.78-2.23 0-1.24-.85-1.7-3.63-2.5-2.42-.69-4.09-1.32-4.09-3.71 0-1.98 1.48-3.21 3.57-3.21 1.59 0 2.31.71 3.16.71.44 0 .8-.22.99-.69h.27v4.18h-.25c-.44-2.25-2.01-3.82-4.31-3.82-1.26 0-2.28.82-2.28 2.03 0 1.29 1.07 1.7 3.38 2.31 3 .8 4.34 1.65 4.34 3.82 0 2.2-1.68 3.49-4.04 3.49-1.71.01-3.06-.95-3.72-.95zM56.72 59.42c0-3.57 2.8-6.13 5.39-6.13 2.58 0 5.36 2.5 5.36 6.07 0 3.49-2.78 6.24-5.36 6.24-2.58 0-5.39-2.69-5.39-6.18zm8.44.02c0-3.19-.82-5.77-3.05-5.77s-3.05 2.53-3.05 5.72c0 3.16.77 5.83 3.05 5.83s3.05-2.62 3.05-5.78zM68.48 64.8h.19c1.21 0 1.48-.3 1.48-1.54V55.6c0-1.24-.27-1.57-1.48-1.57h-.19v-.33l3.65-.22-.13 3.38h.05c.74-2.23 2.47-3.41 4.26-3.41 2.23 0 3.24 1.37 3.24 4.09v5.72c0 1.24.27 1.54 1.51 1.54h.06v.38h-5.3v-.38h.27c1.24 0 1.51-.3 1.51-1.54v-6.4c0-1.92-.82-2.53-1.92-2.53-2.01 0-3.52 2.01-3.52 4.45v4.48c0 1.24.27 1.54 1.48 1.54h.27v.38h-5.44v-.38zM81.86 62.85c0-2.34 2.09-3.57 7.25-4.78v-.8c0-2.64-1.04-3.55-2.69-3.55-1.48 0-2.75.63-2.75 1.13 0 .08.03.11.14.11.55 0 1.15.52 1.15 1.21 0 .71-.55 1.26-1.24 1.26-.71 0-1.24-.52-1.24-1.32 0-1.43 1.51-2.78 4.45-2.78 2.2 0 4.12.8 4.12 4.04V63c0 1.15.33 1.51.71 1.51.66 0 .93-.69.96-2.2h.38c-.05 2.61-.96 3.11-2.09 3.11-1.07 0-2.06-.6-1.92-2.58h-.05c-.52 1.43-2.17 2.64-4.09 2.64-1.74.01-3.09-.87-3.09-2.63zm7.26-2.36v-1.98c-4.2.85-4.97 2.31-4.97 3.88 0 1.24.66 2.14 1.92 2.14 1.35 0 3.05-.99 3.05-4.04zM93.46 64.8h.11c1.24 0 1.51-.33 1.51-1.65V48.4c0-1.32-.27-1.65-1.51-1.65h-.22v-.38l3.68-.41v17.2c0 1.32.27 1.65 1.48 1.65h.22v.38h-5.28v-.39zM99.45 64.8h.22c1.21 0 1.48-.3 1.48-1.54v-7.64c0-1.26-.27-1.57-1.48-1.57h-.22v-.35l3.66-.22v9.78c0 1.24.27 1.54 1.48 1.54h.22v.38h-5.36v-.38zm.91-15.72c0-.83.69-1.51 1.51-1.51s1.51.69 1.51 1.51c0 .82-.69 1.51-1.51 1.51s-1.51-.68-1.51-1.51zM105.63 64.91l7.53-10.86h-2.47c-2.56 0-3.57 1.29-4.29 4.18h-.27l.3-4.53h9.01v.22l-7.56 10.91h3.13c2.89 0 3.79-1.7 4.29-4.42h.27l-.3 4.78h-9.65v-.28zM116.84 59.5c0-3.71 2.58-6.21 5.33-6.21 2.2 0 4.73 1.7 4.73 5.25 0 .08-.03.69-.06.82h-7.75c0 3.02 1.21 5.36 3.57 5.36 2.12 0 3.19-1.07 4.09-2.39l.3.22c-1.02 1.7-2.61 3.05-5 3.05-3.15 0-5.21-2.34-5.21-6.1zm6.38-.58c1.1 0 1.4-.36 1.4-1.24 0-2.2-.77-3.99-2.53-3.99-1.92 0-2.91 2.06-3 5.22h4.13zM128.3 59.44c0-3.41 2.17-6.05 4.84-6.05 1.65 0 2.94 1.15 3.79 2.83h.08c-.06-.77-.08-2.42-.08-4.15v-3.74c0-1.26-.3-1.57-1.51-1.57h-.69v-.38l4.15-.41v17.15c0 1.24.25 1.59 1.46 1.59h.22v.38l-3.63.41.11-3.08h-.08c-.91 1.68-2.06 3.02-3.93 3.02-2.28.02-4.73-2.26-4.73-6zm8.63-.02c0-4.09-2.28-5.61-3.46-5.61-2.25 0-2.86 2.56-2.86 5.55 0 3.05.74 5.66 2.83 5.66 1.43 0 3.49-1.98 3.49-5.6zM148.85 62.03v-7.92h-1.87v-.33c1.76-.3 3.22-1.51 3.49-5.06h.36v4.95h3.71v.44h-3.71v8.05c0 1.73.63 2.58 1.87 2.58 1.13 0 2.03-1.24 2.14-3.66h.38c0 2.8-1.24 4.45-3.22 4.45-1.94.01-3.15-1.11-3.15-3.5zM155.72 64.8h.19c1.21 0 1.48-.3 1.48-1.54v-7.69c0-1.24-.33-1.54-1.48-1.54h-.19v-.33l3.65-.22-.19 4.64h.06c.85-3 2.23-4.78 4.04-4.78 1.4 0 2.2.83 2.2 1.79 0 1.07-.6 1.62-1.37 1.62-.69 0-1.24-.44-1.24-1.13 0-.6.33-.88.58-1.1.14-.11.22-.19.22-.33 0-.22-.27-.28-.6-.28-1.98 0-3.66 3.9-3.66 6.07v3.27c0 1.24.27 1.54 1.48 1.54h.63v.38h-5.8v-.37zM165.78 59.5c0-3.71 2.58-6.21 5.33-6.21 2.2 0 4.73 1.7 4.73 5.25 0 .08-.03.69-.06.82h-7.75c0 3.02 1.21 5.36 3.57 5.36 2.12 0 3.19-1.07 4.09-2.39l.3.22c-1.02 1.7-2.61 3.05-5 3.05-3.15 0-5.21-2.34-5.21-6.1zm6.38-.58c1.1 0 1.4-.36 1.4-1.24 0-2.2-.77-3.99-2.53-3.99-1.92 0-2.91 2.06-3 5.22h4.13zM177.18 62.85c0-2.34 2.09-3.57 7.25-4.78v-.8c0-2.64-1.04-3.55-2.69-3.55-1.48 0-2.75.63-2.75 1.13 0 .08.03.11.14.11.55 0 1.15.52 1.15 1.21 0 .71-.55 1.26-1.24 1.26-.71 0-1.24-.52-1.24-1.32 0-1.43 1.51-2.78 4.45-2.78 2.2 0 4.12.8 4.12 4.04V63c0 1.15.33 1.51.71 1.51.66 0 .93-.69.96-2.2h.38c-.05 2.61-.96 3.11-2.09 3.11-1.07 0-2.06-.6-1.92-2.58h-.05c-.52 1.43-2.17 2.64-4.09 2.64-1.74.01-3.09-.87-3.09-2.63zm7.26-2.36v-1.98c-4.2.85-4.97 2.31-4.97 3.88 0 1.24.66 2.14 1.92 2.14 1.34 0 3.05-.99 3.05-4.04zM189.99 62.03v-7.92h-1.87v-.33c1.76-.3 3.22-1.51 3.49-5.06h.36v4.95h3.71v.44h-3.71v8.05c0 1.73.63 2.58 1.87 2.58 1.13 0 2.03-1.24 2.14-3.66h.38c0 2.8-1.24 4.45-3.22 4.45-1.94.01-3.15-1.11-3.15-3.5zM196.86 64.8h.19c1.21 0 1.48-.3 1.48-1.54V55.6c0-1.24-.27-1.57-1.48-1.57h-.19v-.33l3.65-.22-.14 3.38h.05c.71-2.14 2.39-3.41 4.18-3.41 2.09 0 2.91 1.32 3.13 3.11.85-1.92 2.36-3.11 4.09-3.11 2.23 0 3.16 1.37 3.16 4.09v5.72c0 1.24.27 1.54 1.51 1.54h.05v.38h-5.3v-.38h.27c1.24 0 1.51-.3 1.51-1.54v-6.4c0-1.92-.74-2.53-1.84-2.53-2.01 0-3.44 2.2-3.44 4.45v4.48c0 1.24.27 1.54 1.51 1.54h.25v.38H204v-.38h.27c1.24 0 1.51-.3 1.51-1.54v-6.4c0-1.92-.74-2.53-1.84-2.53-1.98 0-3.44 2.12-3.44 4.45v4.48c0 1.24.27 1.54 1.48 1.54h.27v.38h-5.44v-.38zM217.36 59.5c0-3.71 2.58-6.21 5.33-6.21 2.2 0 4.73 1.7 4.73 5.25 0 .08-.03.69-.06.82h-7.75c0 3.02 1.21 5.36 3.57 5.36 2.12 0 3.19-1.07 4.09-2.39l.3.22c-1.02 1.7-2.61 3.05-5 3.05-3.15 0-5.21-2.34-5.21-6.1zm6.37-.58c1.1 0 1.4-.36 1.4-1.24 0-2.2-.77-3.99-2.53-3.99-1.92 0-2.91 2.06-3 5.22h4.13zM228.51 64.8h.19c1.21 0 1.48-.3 1.48-1.54V55.6c0-1.24-.27-1.57-1.48-1.57h-.19v-.33l3.65-.22-.14 3.38h.05c.74-2.23 2.47-3.41 4.26-3.41 2.23 0 3.24 1.37 3.24 4.09v5.72c0 1.24.27 1.54 1.51 1.54h.06v.38h-5.3v-.38h.27c1.24 0 1.51-.3 1.51-1.54v-6.4c0-1.92-.82-2.53-1.92-2.53-2.01 0-3.52 2.01-3.52 4.45v4.48c0 1.24.27 1.54 1.48 1.54h.27v.38h-5.44v-.38zM243.13 62.03v-7.92h-1.87v-.33c1.76-.3 3.22-1.51 3.49-5.06h.36v4.95h3.71v.44h-3.71v8.05c0 1.73.63 2.58 1.87 2.58 1.13 0 2.03-1.24 2.14-3.66h.38c0 2.8-1.24 4.45-3.22 4.45-1.94.01-3.15-1.11-3.15-3.5zM255.96 70.41h.33c1.21 0 1.48-.3 1.48-1.57V55.62c0-1.26-.27-1.57-1.48-1.57h-.19v-.35l3.57-.22-.08 2.8h.06c.88-1.7 2.06-2.88 3.85-2.88 2.25 0 4.81 2.34 4.81 6.02 0 3.63-2.5 6.05-4.92 6.05-1.87 0-3.02-1.29-3.76-2.97h-.03s.11 1.7.11 3.44v2.91c0 1.26.27 1.57 1.48 1.57h.63v.38h-5.85v-.39zm10.03-10.94c0-2.86-.66-5.63-2.78-5.63-1.35 0-3.55 1.59-3.55 5.61 0 2.83 1.51 5.58 3.49 5.58 2.13-.01 2.84-2.59 2.84-5.56zM269.31 64.8h.11c1.24 0 1.51-.33 1.51-1.65V48.4c0-1.32-.27-1.65-1.51-1.65h-.22v-.38l3.68-.41v17.2c0 1.32.27 1.65 1.48 1.65h.22v.38h-5.28v-.39zM275.5 62.85c0-2.34 2.09-3.57 7.25-4.78v-.8c0-2.64-1.04-3.55-2.69-3.55-1.48 0-2.75.63-2.75 1.13 0 .08.03.11.14.11.55 0 1.15.52 1.15 1.21 0 .71-.55 1.26-1.24 1.26-.71 0-1.24-.52-1.24-1.32 0-1.43 1.51-2.78 4.45-2.78 2.2 0 4.12.8 4.12 4.04V63c0 1.15.33 1.51.71 1.51.66 0 .93-.69.96-2.2h.38c-.06 2.61-.96 3.11-2.09 3.11-1.07 0-2.06-.6-1.92-2.58h-.05c-.52 1.43-2.17 2.64-4.09 2.64-1.75.01-3.09-.87-3.09-2.63zm7.25-2.36v-1.98c-4.2.85-4.97 2.31-4.97 3.88 0 1.24.66 2.14 1.92 2.14 1.35 0 3.05-.99 3.05-4.04zM287.09 64.8h.19c1.21 0 1.48-.3 1.48-1.54V55.6c0-1.24-.27-1.57-1.48-1.57h-.19v-.33l3.65-.22-.14 3.38h.05c.74-2.23 2.47-3.41 4.26-3.41 2.23 0 3.24 1.37 3.24 4.09v5.72c0 1.24.27 1.54 1.51 1.54h.06v.38h-5.3v-.38h.27c1.24 0 1.51-.3 1.51-1.54v-6.4c0-1.92-.82-2.53-1.92-2.53-2.01 0-3.52 2.01-3.52 4.45v4.48c0 1.24.27 1.54 1.48 1.54h.27v.38h-5.44v-.38zM301.22 63.81c0-.88.69-1.57 1.57-1.57s1.57.69 1.57 1.57c0 .88-.69 1.57-1.57 1.57s-1.57-.69-1.57-1.57z"/></svg>