<svg id="Layer_1" xmlns="http://www.w3.org/2000/svg" viewBox="0 0 728 90"><style>.st0{fill:#fff}</style><path class="st0" d="M26.98 40.3c-.52-.27-.88-.49-1.32-.49s-.8.55-1.04 1.68h-.36l-.19-7.44h.41c.96 5.19 4.45 7.03 7.2 7.03 2.09 0 3.68-1.43 3.68-3.74 0-2.5-2.17-3.49-5.03-4.37-2.91-.91-6.1-1.76-6.1-5.74 0-2.88 2.2-5.08 5-5.08 1.54 0 2.69.44 3.82 1.24.36.25.63.47 1.1.47.44 0 .74-.44 1.1-1.68h.36l.19 7.39h-.41c-1.07-5.16-3.82-7-6.1-7-2.2 0-3.63 1.65-3.63 3.63 0 1.95.71 3.1 4.94 4.31 3.93 1.13 6.04 2.42 6.04 5.79 0 3.19-2.25 5.22-5.08 5.22-2.33-.01-3.62-.73-4.58-1.22zM39.29 38.04v-7.91h-1.87v-.33c1.76-.3 3.21-1.51 3.49-5.05h.36v4.94h3.71v.44h-3.71v8.05c0 1.73.63 2.58 1.87 2.58 1.13 0 2.03-1.24 2.14-3.65h.38c0 2.8-1.24 4.45-3.21 4.45-1.95 0-3.16-1.13-3.16-3.52zM46.41 38.87c0-2.33 2.09-3.57 7.25-4.78v-.8c0-2.64-1.04-3.54-2.69-3.54-1.48 0-2.75.63-2.75 1.13 0 .08.03.11.14.11.55 0 1.15.52 1.15 1.21 0 .71-.55 1.26-1.24 1.26-.71 0-1.24-.52-1.24-1.32 0-1.43 1.51-2.77 4.45-2.77 2.2 0 4.12.8 4.12 4.04v5.63c0 1.15.33 1.51.71 1.51.66 0 .93-.69.96-2.2h.38c-.06 2.61-.96 3.1-2.09 3.1-1.07 0-2.06-.6-1.92-2.58h-.04c-.52 1.43-2.17 2.64-4.09 2.64-1.76 0-3.1-.88-3.1-2.64zm7.25-2.36v-1.98c-4.2.85-4.97 2.31-4.97 3.87 0 1.24.66 2.14 1.92 2.14 1.34 0 3.05-.98 3.05-4.03zM58 40.82h.19c1.21 0 1.48-.3 1.48-1.54v-7.69c0-1.24-.33-1.54-1.48-1.54H58v-.33l3.65-.22-.19 4.64h.05c.85-2.99 2.22-4.78 4.04-4.78 1.4 0 2.2.82 2.2 1.79 0 1.07-.6 1.62-1.37 1.62-.69 0-1.24-.44-1.24-1.13 0-.6.33-.88.58-1.1.14-.11.22-.19.22-.33 0-.22-.27-.27-.6-.27-1.98 0-3.65 3.9-3.65 6.07v3.27c0 1.24.27 1.54 1.48 1.54h.63v.38H58v-.38zM69.84 38.04v-7.91h-1.87v-.33c1.76-.3 3.21-1.51 3.49-5.05h.36v4.94h3.71v.44h-3.71v8.05c0 1.73.63 2.58 1.87 2.58 1.13 0 2.03-1.24 2.14-3.65h.38c0 2.8-1.24 4.45-3.21 4.45-1.95 0-3.16-1.13-3.16-3.52zM84.51 31.89c-.47-1.18-.91-1.73-2-1.81v-.36h5.33v.36c-.96.08-1.37.36-1.4.8-.03.36.08.77.3 1.37l2.47 7.06 2.25-5.82-.63-1.92c-.3-.96-.6-1.32-1.7-1.48v-.36h5.08v.36c-.93.08-1.43.36-1.46.8-.03.36.11.77.3 1.4l2.17 6.92L97.39 33c.25-.71.44-1.35.44-1.87 0-.71-.49-.96-1.51-1.04v-.36h3.96v.36c-1.1.08-1.46.74-1.87 1.81l-3.74 9.86h-.38l-2.55-7.53-3.1 7.53h-.36l-3.77-9.87zM100.55 40.82h.22c1.21 0 1.48-.3 1.48-1.54v-7.64c0-1.26-.27-1.57-1.48-1.57h-.22v-.36l3.65-.22v9.78c0 1.24.27 1.54 1.48 1.54h.22v.38h-5.36v-.37zm.91-15.71c0-.82.69-1.51 1.51-1.51.82 0 1.51.69 1.51 1.51 0 .82-.69 1.51-1.51 1.51-.82 0-1.51-.69-1.51-1.51zM108.11 38.04v-7.91h-1.87v-.33c1.76-.3 3.21-1.51 3.49-5.05h.36v4.94h3.71v.44h-3.71v8.05c0 1.73.63 2.58 1.87 2.58 1.13 0 2.03-1.24 2.14-3.65h.38c0 2.8-1.24 4.45-3.21 4.45-1.95 0-3.16-1.13-3.16-3.52zM114.76 40.82h.19c1.13 0 1.48-.27 1.48-1.54V24.37c0-1.26-.27-1.59-1.48-1.59h-.25v-.38l3.65-.41v7.28l-.14 3.63h.06c.66-1.98 2.25-3.41 4.26-3.41 2.23 0 3.24 1.37 3.24 4.09v5.71c0 1.24.27 1.54 1.51 1.54h.05v.38h-5.3v-.38h.27c1.24 0 1.51-.3 1.51-1.54v-6.4c0-1.92-.82-2.53-1.92-2.53-2.01 0-3.52 2.03-3.52 4.42v4.5c0 1.24.27 1.54 1.48 1.54h.27v.38h-5.38v-.38zM134.4 38.87c0-2.33 2.09-3.57 7.25-4.78v-.8c0-2.64-1.04-3.54-2.69-3.54-1.48 0-2.75.63-2.75 1.13 0 .08.03.11.14.11.55 0 1.15.52 1.15 1.21 0 .71-.55 1.26-1.24 1.26-.71 0-1.24-.52-1.24-1.32 0-1.43 1.51-2.77 4.45-2.77 2.2 0 4.12.8 4.12 4.04v5.63c0 1.15.33 1.51.71 1.51.66 0 .93-.69.96-2.2h.38c-.05 2.61-.96 3.1-2.09 3.1-1.07 0-2.06-.6-1.92-2.58h-.06c-.52 1.43-2.17 2.64-4.09 2.64-1.73 0-3.08-.88-3.08-2.64zm7.25-2.36v-1.98c-4.2.85-4.97 2.31-4.97 3.87 0 1.24.66 2.14 1.92 2.14 1.35 0 3.05-.98 3.05-4.03zM151.96 46.42h.33c1.21 0 1.48-.3 1.48-1.57v-13.2c0-1.26-.27-1.57-1.48-1.57h-.19v-.36l3.57-.22-.08 2.8h.06c.88-1.7 2.06-2.88 3.85-2.88 2.25 0 4.81 2.33 4.81 6.01 0 3.63-2.5 6.04-4.92 6.04-1.87 0-3.02-1.29-3.76-2.97h-.03s.11 1.7.11 3.43v2.91c0 1.26.27 1.57 1.48 1.57h.63v.38h-5.85v-.37zm10.02-10.93c0-2.86-.66-5.63-2.77-5.63-1.35 0-3.54 1.59-3.54 5.6 0 2.83 1.51 5.58 3.49 5.58 2.11 0 2.82-2.58 2.82-5.55zM165.31 40.82h.11c1.24 0 1.51-.33 1.51-1.65V24.42c0-1.32-.27-1.65-1.51-1.65h-.22v-.38l3.68-.41v17.19c0 1.32.27 1.65 1.48 1.65h.22v.38h-5.27v-.38zM171.49 38.87c0-2.33 2.09-3.57 7.25-4.78v-.8c0-2.64-1.04-3.54-2.69-3.54-1.48 0-2.75.63-2.75 1.13 0 .08.03.11.14.11.55 0 1.15.52 1.15 1.21 0 .71-.55 1.26-1.24 1.26-.71 0-1.24-.52-1.24-1.32 0-1.43 1.51-2.77 4.45-2.77 2.2 0 4.12.8 4.12 4.04v5.63c0 1.15.33 1.51.71 1.51.66 0 .93-.69.96-2.2h.38c-.06 2.61-.96 3.1-2.09 3.1-1.07 0-2.06-.6-1.92-2.58h-.05c-.52 1.43-2.17 2.64-4.09 2.64-1.75 0-3.09-.88-3.09-2.64zm7.25-2.36v-1.98c-4.2.85-4.97 2.31-4.97 3.87 0 1.24.66 2.14 1.92 2.14 1.35 0 3.05-.98 3.05-4.03zM183.08 40.82h.19c1.21 0 1.48-.3 1.48-1.54v-7.66c0-1.24-.27-1.57-1.48-1.57h-.19v-.33l3.65-.22-.14 3.38h.06c.74-2.22 2.47-3.41 4.26-3.41 2.22 0 3.24 1.37 3.24 4.09v5.71c0 1.24.27 1.54 1.51 1.54h.05v.38h-5.3v-.38h.27c1.24 0 1.51-.3 1.51-1.54v-6.4c0-1.92-.82-2.53-1.92-2.53-2 0-3.52 2-3.52 4.45v4.48c0 1.24.27 1.54 1.48 1.54h.27v.38h-5.44v-.37zM23.66 60.44c0-3.41 2.17-6.04 4.83-6.04 1.65 0 2.94 1.15 3.79 2.83h.08c-.05-.77-.08-2.42-.08-4.15v-3.74c0-1.26-.3-1.57-1.51-1.57h-.69v-.38l4.15-.41v17.14c0 1.24.25 1.59 1.46 1.59h.22v.38l-3.63.41.11-3.08h-.08c-.91 1.68-2.06 3.02-3.93 3.02-2.28.01-4.72-2.27-4.72-6zm8.62-.03c0-4.09-2.28-5.6-3.46-5.6-2.25 0-2.86 2.55-2.86 5.55 0 3.05.74 5.66 2.83 5.66 1.43-.01 3.49-1.98 3.49-5.61zM36.74 60.49c0-3.71 2.58-6.21 5.33-6.21 2.2 0 4.72 1.7 4.72 5.25 0 .08-.03.69-.06.82h-7.75c0 3.02 1.21 5.36 3.57 5.36 2.11 0 3.19-1.07 4.09-2.39l.3.22c-1.02 1.7-2.61 3.05-5 3.05-3.14 0-5.2-2.33-5.2-6.1zm6.37-.57c1.1 0 1.4-.36 1.4-1.24 0-2.2-.77-3.98-2.53-3.98-1.92 0-2.91 2.06-2.99 5.22h4.12zM49.9 65.49c-.41 0-.77.33-.99.93h-.27v-4.67h.25c.47 2.69 2.66 4.31 4.83 4.31 1.62 0 2.77-.93 2.77-2.22 0-1.24-.85-1.7-3.63-2.5-2.42-.69-4.09-1.32-4.09-3.71 0-1.98 1.48-3.21 3.57-3.21 1.59 0 2.31.71 3.16.71.44 0 .8-.22.99-.69h.27v4.17h-.25c-.44-2.25-2-3.82-4.31-3.82-1.26 0-2.28.82-2.28 2.03 0 1.29 1.07 1.7 3.38 2.31 2.99.8 4.34 1.65 4.34 3.82 0 2.2-1.68 3.49-4.04 3.49-1.7.01-3.05-.95-3.7-.95zM58.77 65.79h.22c1.21 0 1.48-.3 1.48-1.54v-7.63c0-1.26-.27-1.57-1.48-1.57h-.22v-.35l3.65-.22v9.78c0 1.24.27 1.54 1.48 1.54h.22v.38h-5.36v-.39zm.91-15.71c0-.82.69-1.51 1.51-1.51.82 0 1.51.69 1.51 1.51s-.69 1.51-1.51 1.51c-.83 0-1.51-.68-1.51-1.51zM64.62 69.14c0-1.54 1.59-2.86 4.45-2.88-1.92-.22-3.54-.69-3.54-1.92 0-.96.91-1.59 1.95-2.23-1.15-.74-2.03-2.09-2.03-3.54 0-2.53 2.09-4.28 4.67-4.28 1.4 0 2.53.41 3.52 1.46.38-.63 1.02-1.46 1.95-1.46.82 0 1.46.52 1.46 1.35 0 .58-.41 1.1-1.02 1.1s-.93-.52-.93-1.07c0-.36-.06-.55-.27-.55-.27 0-.58.33-.88.91.55.82.82 1.67.82 2.55 0 2.5-2.09 4.31-4.64 4.31-.77 0-1.65-.27-2.28-.58-.58.36-.99.74-.99 1.32 0 .58.82.99 3.65 1.02 2.5.03 5.6.49 5.6 3.38 0 2.33-2.64 3.82-6.02 3.82-3-.01-5.47-.89-5.47-2.71zm10.49-.46c0-1.29-1.4-2.22-4.83-2.22-3.16 0-4.04 1.46-4.04 2.66 0 1.76 2.22 2.33 4.01 2.33 2.75 0 4.86-1.23 4.86-2.77zm-2.55-10.11c0-1.73-.47-3.93-2.44-3.93-2 0-2.44 2.2-2.44 3.93s.44 3.93 2.44 3.93c1.97 0 2.44-2.2 2.44-3.93zM77.4 65.79h.19c1.21 0 1.48-.3 1.48-1.54v-7.66c0-1.24-.27-1.57-1.48-1.57h-.19v-.32l3.65-.22-.14 3.38h.06c.74-2.22 2.47-3.41 4.26-3.41 2.22 0 3.24 1.37 3.24 4.09v5.71c0 1.24.27 1.54 1.51 1.54h.05v.38h-5.3v-.38H85c1.24 0 1.51-.3 1.51-1.54v-6.4c0-1.92-.82-2.53-1.92-2.53-2 0-3.52 2-3.52 4.45v4.48c0 1.24.27 1.54 1.48 1.54h.27v.38H77.4v-.38zM90.83 60.49c0-3.71 2.58-6.21 5.33-6.21 2.2 0 4.72 1.7 4.72 5.25 0 .08-.03.69-.06.82h-7.75c0 3.02 1.21 5.36 3.57 5.36 2.11 0 3.19-1.07 4.09-2.39l.3.22c-1.02 1.7-2.61 3.05-5 3.05-3.14 0-5.2-2.33-5.2-6.1zm6.37-.57c1.1 0 1.4-.36 1.4-1.24 0-2.2-.77-3.98-2.53-3.98-1.92 0-2.91 2.06-2.99 5.22h4.12zM102.29 60.44c0-3.41 2.17-6.04 4.83-6.04 1.65 0 2.94 1.15 3.79 2.83h.08c-.05-.77-.08-2.42-.08-4.15v-3.74c0-1.26-.3-1.57-1.51-1.57h-.69v-.38l4.15-.41v17.14c0 1.24.25 1.59 1.46 1.59h.22v.38l-3.63.41.11-3.08h-.08c-.91 1.68-2.06 3.02-3.93 3.02-2.28.01-4.72-2.27-4.72-6zm8.62-.03c0-4.09-2.28-5.6-3.46-5.6-2.25 0-2.86 2.55-2.86 5.55 0 3.05.74 5.66 2.83 5.66 1.43-.01 3.49-1.98 3.49-5.61zM121.6 63.84c0-2.33 2.09-3.57 7.25-4.78v-.8c0-2.64-1.04-3.54-2.69-3.54-1.48 0-2.75.63-2.75 1.13 0 .08.03.11.14.11.55 0 1.15.52 1.15 1.21 0 .71-.55 1.26-1.24 1.26-.71 0-1.24-.52-1.24-1.32 0-1.43 1.51-2.77 4.45-2.77 2.2 0 4.12.8 4.12 4.04v5.63c0 1.15.33 1.51.71 1.51.66 0 .93-.69.96-2.2h.38c-.05 2.61-.96 3.1-2.09 3.1-1.07 0-2.06-.6-1.92-2.58h-.06c-.52 1.43-2.17 2.64-4.09 2.64-1.73 0-3.08-.88-3.08-2.64zm7.25-2.36V59.5c-4.2.85-4.97 2.31-4.97 3.87 0 1.24.66 2.14 1.92 2.14 1.35.01 3.05-.98 3.05-4.03zM133.19 65.79h.19c1.21 0 1.48-.3 1.48-1.54v-7.69c0-1.24-.33-1.54-1.48-1.54h-.19v-.32l3.65-.22-.19 4.64h.05c.85-2.99 2.23-4.78 4.04-4.78 1.4 0 2.2.82 2.2 1.79 0 1.07-.6 1.62-1.37 1.62-.69 0-1.24-.44-1.24-1.13 0-.6.33-.88.58-1.1.14-.11.22-.19.22-.33 0-.22-.27-.27-.6-.27-1.98 0-3.65 3.9-3.65 6.07v3.27c0 1.24.27 1.54 1.48 1.54h.63v.38h-5.8v-.39zM143.25 60.41c0-3.57 2.8-6.12 5.38-6.12s5.36 2.5 5.36 6.07c0 3.49-2.77 6.24-5.36 6.24s-5.38-2.7-5.38-6.19zm8.43.03c0-3.19-.82-5.77-3.05-5.77s-3.05 2.53-3.05 5.71c0 3.16.77 5.82 3.05 5.82s3.05-2.6 3.05-5.76zM156.32 62.55v-5.93c0-1.21-.27-1.57-1.48-1.57h-.25v-.35l3.68-.22v8.57c0 1.95.74 2.72 2.03 2.72 1.7 0 3.41-2.42 3.41-4.72v-4.39c0-1.26-.27-1.59-1.48-1.59h-.55v-.37l4.01-.22v9.61c0 1.24.3 1.59 1.51 1.59h.19v.36l-3.65.41.14-3.41h-.05c-.71 1.87-2.31 3.41-4.17 3.41-2.18 0-3.34-1.26-3.34-3.9zM167.97 65.79h.19c1.21 0 1.48-.3 1.48-1.54v-7.66c0-1.24-.27-1.57-1.48-1.57h-.19v-.32l3.65-.22-.14 3.38h.06c.74-2.22 2.47-3.41 4.26-3.41 2.23 0 3.24 1.37 3.24 4.09v5.71c0 1.24.27 1.54 1.51 1.54h.05v.38h-5.3v-.38h.27c1.24 0 1.51-.3 1.51-1.54v-6.4c0-1.92-.82-2.53-1.92-2.53-2.01 0-3.52 2-3.52 4.45v4.48c0 1.24.27 1.54 1.48 1.54h.27v.38h-5.44v-.38zM181.41 60.44c0-3.41 2.17-6.04 4.83-6.04 1.65 0 2.94 1.15 3.79 2.83h.08c-.05-.77-.08-2.42-.08-4.15v-3.74c0-1.26-.3-1.57-1.51-1.57h-.69v-.38l4.15-.41v17.14c0 1.24.25 1.59 1.46 1.59h.22v.38l-3.63.41.11-3.08h-.08c-.91 1.68-2.06 3.02-3.93 3.02-2.28.01-4.72-2.27-4.72-6zm8.62-.03c0-4.09-2.28-5.6-3.46-5.6-2.25 0-2.86 2.55-2.86 5.55 0 3.05.74 5.66 2.83 5.66 1.43-.01 3.49-1.98 3.49-5.61zM200.2 69.83c0-.85.58-1.46 1.4-1.46.66 0 1.13.58 1.13 1.15 0 .49-.19.77-.38.96-.16.16-.3.25-.3.47 0 .27.3.47.71.47 1.26 0 2.11-1.73 2.91-3.65l.36-.85-4.12-10c-.49-1.24-.88-1.79-2-1.87v-.35h5.52v.36c-.96.08-1.4.38-1.43.82-.03.41.11.88.33 1.46l2.72 7.2 2.47-6.48c.25-.63.52-1.4.52-1.92 0-.71-.47-.99-1.51-1.07v-.37h4.07v.36c-1.21.08-1.51.74-1.95 1.87l-4.42 10.82c-1.37 3.38-2.42 4.15-3.71 4.15-1.52-.01-2.32-.94-2.32-2.07zM212.34 60.41c0-3.57 2.8-6.12 5.38-6.12s5.36 2.5 5.36 6.07c0 3.49-2.77 6.24-5.36 6.24s-5.38-2.7-5.38-6.19zm8.43.03c0-3.19-.82-5.77-3.05-5.77s-3.05 2.53-3.05 5.71c0 3.16.77 5.82 3.05 5.82s3.05-2.6 3.05-5.76zM225.42 62.55v-5.93c0-1.21-.27-1.57-1.48-1.57h-.25v-.35l3.68-.22v8.57c0 1.95.74 2.72 2.03 2.72 1.7 0 3.41-2.42 3.41-4.72v-4.39c0-1.26-.27-1.59-1.48-1.59h-.55v-.37l4.01-.22v9.61c0 1.24.3 1.59 1.51 1.59h.19v.36l-3.65.41.14-3.41h-.06c-.71 1.87-2.31 3.41-4.17 3.41-2.18 0-3.33-1.26-3.33-3.9zM238.06 64.81c0-.88.69-1.57 1.57-1.57s1.57.69 1.57 1.57-.69 1.57-1.57 1.57-1.57-.7-1.57-1.57z"/></svg>