<svg id="Layer_1" xmlns="http://www.w3.org/2000/svg" viewBox="0 0 728 90"><style>.st0{fill:#fff}</style><path class="st0" d="M25.04 30.79c0-.91.55-1.65 1.43-1.65.88 0 1.43.63 1.43 1.48 0 .58-.27.93-.69 1.24-.22.16-.44.28-.44.44-.03.58.96.85 1.73.85 3.74 0 4.59-4.31 4.45-9.34-.77 1.46-2.12 2.36-3.55 2.36-2.89 0-4.84-1.95-4.84-5.36 0-3.52 2.47-5.83 5.3-5.83 3.44 0 5.5 3.22 5.5 8.44 0 5.72-2.89 10.14-6.84 10.14-2.27.01-3.48-1.48-3.48-2.77zm7.95-10.14c0-2.69-.88-5.3-3.05-5.3-2.14 0-2.91 2.69-2.91 5.39 0 2.94.74 4.97 2.78 4.97 1.86 0 3.18-2.37 3.18-5.06zM43.4 27.44c0-3.57 2.8-6.13 5.39-6.13 2.58 0 5.36 2.5 5.36 6.07 0 3.49-2.78 6.24-5.36 6.24-2.58 0-5.39-2.69-5.39-6.18zm8.44.03c0-3.19-.82-5.77-3.05-5.77s-3.05 2.53-3.05 5.72c0 3.16.77 5.83 3.05 5.83 2.28-.01 3.05-2.62 3.05-5.78zM56.49 29.58v-5.94c0-1.21-.27-1.57-1.48-1.57h-.25v-.36l3.68-.22v8.57c0 1.95.74 2.72 2.03 2.72 1.7 0 3.41-2.42 3.41-4.73v-4.4c0-1.26-.27-1.59-1.48-1.59h-.55v-.36l4.01-.22v9.62c0 1.24.3 1.59 1.51 1.59h.19v.36l-3.66.41.14-3.41h-.05c-.71 1.87-2.31 3.41-4.18 3.41-2.17.02-3.32-1.24-3.32-3.88zM69.62 30.05v-7.92h-1.87v-.33c1.76-.3 3.22-1.51 3.49-5.06h.36v4.95h3.71v.44H71.6v8.05c0 1.73.63 2.58 1.87 2.58 1.13 0 2.03-1.24 2.14-3.66H76c0 2.8-1.24 4.45-3.22 4.45-1.95.02-3.16-1.11-3.16-3.5zM83.09 27.44c0-3.57 2.8-6.13 5.39-6.13 2.58 0 5.36 2.5 5.36 6.07 0 3.49-2.78 6.24-5.36 6.24-2.58 0-5.39-2.69-5.39-6.18zm8.44.03c0-3.19-.82-5.77-3.05-5.77s-3.05 2.53-3.05 5.72c0 3.16.77 5.83 3.05 5.83 2.28-.01 3.05-2.62 3.05-5.78zM95.19 32.83h.22c1.21 0 1.48-.3 1.48-1.54v-9.15h-1.7v-.41h1.7v-1.9c0-3.13 1.48-5.8 4.45-5.8 1.65 0 2.56.93 2.56 2.12 0 .91-.6 1.43-1.35 1.43-.74 0-1.21-.47-1.21-1.18 0-.47.22-.8.44-1.02.16-.16.3-.3.3-.47 0-.28-.38-.55-.91-.55-1.87 0-2.31 1.98-2.31 4.7v2.67h2.8v.41h-2.8v9.15c0 1.24.28 1.54 1.48 1.54h.52v.39h-5.69v-.39zM109.18 32.8h1.02c1.18 0 1.65-.33 1.65-1.57V18.86c0-1.24-.47-1.57-1.65-1.57h-1.02v-.41c3-.22 4.07-1.04 4.53-2.01h.33v16.35c0 1.24.44 1.57 1.62 1.57h.8v.41h-7.28v-.4zM118.05 24.31c0-5.66 3-9.32 6.07-9.32s5.96 3.66 5.96 9.32-3 9.34-6.05 9.34c-3.06 0-5.98-3.68-5.98-9.34zm9.48 0c0-5.91-1.21-8.93-3.49-8.93-2.34 0-3.44 3.02-3.44 8.93s1.21 8.96 3.52 8.96c2.32-.01 3.41-3.06 3.41-8.96zM137.46 38.43h.33c1.21 0 1.48-.3 1.48-1.57V23.65c0-1.26-.27-1.57-1.48-1.57h-.19v-.36l3.57-.22-.08 2.8h.05c.88-1.7 2.06-2.89 3.85-2.89 2.25 0 4.81 2.34 4.81 6.02 0 3.63-2.5 6.05-4.92 6.05-1.87 0-3.02-1.29-3.76-2.97h-.03s.11 1.7.11 3.44v2.91c0 1.26.27 1.57 1.48 1.57h.63v.38h-5.85v-.38zm10.03-10.94c0-2.86-.66-5.63-2.78-5.63-1.35 0-3.55 1.59-3.55 5.61 0 2.83 1.51 5.58 3.49 5.58 2.12 0 2.84-2.59 2.84-5.56zM151.06 30.87c0-2.34 2.09-3.57 7.26-4.78v-.8c0-2.64-1.04-3.55-2.69-3.55-1.48 0-2.75.63-2.75 1.13 0 .08.03.11.14.11.55 0 1.15.52 1.15 1.21 0 .71-.55 1.26-1.24 1.26-.71 0-1.24-.52-1.24-1.32 0-1.43 1.51-2.78 4.45-2.78 2.2 0 4.12.8 4.12 4.04v5.63c0 1.15.33 1.51.71 1.51.66 0 .93-.69.96-2.2h.38c-.05 2.61-.96 3.11-2.09 3.11-1.07 0-2.06-.6-1.92-2.58h-.06c-.52 1.43-2.17 2.64-4.09 2.64-1.74.01-3.09-.87-3.09-2.63zm7.26-2.36v-1.98c-4.2.85-4.97 2.31-4.97 3.87 0 1.24.66 2.14 1.92 2.14 1.34.01 3.05-.98 3.05-4.03zM163.87 30.05v-7.92H162v-.33c1.76-.3 3.22-1.51 3.49-5.06h.36v4.95h3.71v.44h-3.71v8.05c0 1.73.63 2.58 1.87 2.58 1.13 0 2.03-1.24 2.14-3.66h.38c0 2.8-1.24 4.45-3.22 4.45-1.94.02-3.15-1.11-3.15-3.5zM170.8 32.83h.22c1.21 0 1.48-.3 1.48-1.54v-7.64c0-1.26-.27-1.57-1.48-1.57h-.22v-.36l3.66-.22v9.78c0 1.24.28 1.54 1.48 1.54h.22v.39h-5.36v-.38zm.9-15.72c0-.82.69-1.51 1.51-1.51.82 0 1.51.69 1.51 1.51s-.69 1.51-1.51 1.51c-.82 0-1.51-.69-1.51-1.51zM177.17 27.52c0-3.71 2.58-6.21 5.33-6.21 2.2 0 4.73 1.7 4.73 5.25 0 .08-.03.69-.06.82h-7.75c0 3.02 1.21 5.36 3.57 5.36 2.12 0 3.19-1.07 4.09-2.39l.3.22c-1.02 1.7-2.61 3.05-5 3.05-3.15 0-5.21-2.33-5.21-6.1zm6.38-.58c1.1 0 1.4-.36 1.4-1.24 0-2.2-.77-3.98-2.53-3.98-1.92 0-2.91 2.06-3 5.22h4.13zM188.33 32.83h.19c1.21 0 1.48-.3 1.48-1.54v-7.67c0-1.24-.27-1.57-1.48-1.57h-.19v-.33l3.65-.22-.14 3.38h.05c.74-2.23 2.47-3.41 4.26-3.41 2.23 0 3.24 1.37 3.24 4.1v5.72c0 1.24.27 1.54 1.51 1.54h.06v.39h-5.3v-.39h.27c1.24 0 1.51-.3 1.51-1.54v-6.4c0-1.92-.82-2.53-1.92-2.53-2.01 0-3.52 2.01-3.52 4.45v4.48c0 1.24.27 1.54 1.48 1.54h.27v.39h-5.44v-.39zM202.96 30.05v-7.92h-1.87v-.33c1.76-.3 3.22-1.51 3.49-5.06h.36v4.95h3.71v.44h-3.71v8.05c0 1.73.63 2.58 1.87 2.58 1.13 0 2.03-1.24 2.14-3.66h.38c0 2.8-1.24 4.45-3.22 4.45-1.95.02-3.15-1.11-3.15-3.5zM211.83 32.52c-.41 0-.77.33-.99.93h-.27v-4.67h.25c.47 2.69 2.67 4.31 4.84 4.31 1.62 0 2.78-.93 2.78-2.23 0-1.24-.85-1.7-3.63-2.5-2.42-.69-4.1-1.32-4.1-3.71 0-1.98 1.48-3.22 3.57-3.22 1.59 0 2.31.71 3.16.71.44 0 .8-.22.99-.69h.27v4.18h-.25c-.44-2.25-2.01-3.82-4.31-3.82-1.26 0-2.28.82-2.28 2.03 0 1.29 1.07 1.7 3.38 2.31 3 .8 4.34 1.65 4.34 3.82 0 2.2-1.68 3.49-4.04 3.49-1.7.02-3.05-.94-3.71-.94zM226.95 32.83h.19c1.21 0 1.48-.3 1.48-1.54v-7.7c0-1.24-.33-1.54-1.48-1.54h-.19v-.33l3.65-.22-.19 4.64h.06c.85-3 2.23-4.78 4.04-4.78 1.4 0 2.2.82 2.2 1.79 0 1.07-.6 1.62-1.37 1.62-.69 0-1.24-.44-1.24-1.13 0-.6.33-.88.58-1.1.14-.11.22-.19.22-.33 0-.22-.27-.27-.6-.27-1.98 0-3.65 3.9-3.65 6.07v3.27c0 1.24.27 1.54 1.48 1.54h.63v.39h-5.8v-.38zM237.01 27.52c0-3.71 2.58-6.21 5.33-6.21 2.2 0 4.73 1.7 4.73 5.25 0 .08-.03.69-.06.82h-7.75c0 3.02 1.21 5.36 3.57 5.36 2.12 0 3.19-1.07 4.09-2.39l.3.22c-1.02 1.7-2.61 3.05-5 3.05-3.15 0-5.21-2.33-5.21-6.1zm6.37-.58c1.1 0 1.4-.36 1.4-1.24 0-2.2-.77-3.98-2.53-3.98-1.92 0-2.91 2.06-3 5.22h4.13zM247.84 38.43h.33c1.21 0 1.48-.3 1.48-1.57V23.65c0-1.26-.27-1.57-1.48-1.57h-.19v-.36l3.57-.22-.08 2.8h.06c.88-1.7 2.06-2.89 3.85-2.89 2.25 0 4.81 2.34 4.81 6.02 0 3.63-2.5 6.05-4.92 6.05-1.87 0-3.02-1.29-3.76-2.97h-.03s.11 1.7.11 3.44v2.91c0 1.26.27 1.57 1.48 1.57h.63v.38h-5.85v-.38zm10.03-10.94c0-2.86-.66-5.63-2.78-5.63-1.35 0-3.55 1.59-3.55 5.61 0 2.83 1.51 5.58 3.49 5.58 2.12 0 2.84-2.59 2.84-5.56zM261.5 27.44c0-3.57 2.8-6.13 5.39-6.13s5.36 2.5 5.36 6.07c0 3.49-2.78 6.24-5.36 6.24s-5.39-2.69-5.39-6.18zm8.44.03c0-3.19-.82-5.77-3.05-5.77s-3.05 2.53-3.05 5.72c0 3.16.77 5.83 3.05 5.83s3.05-2.62 3.05-5.78zM273.26 32.83h.19c1.21 0 1.48-.3 1.48-1.54v-7.7c0-1.24-.33-1.54-1.48-1.54h-.19v-.33l3.66-.22-.19 4.64h.05c.85-3 2.23-4.78 4.04-4.78 1.4 0 2.2.82 2.2 1.79 0 1.07-.6 1.62-1.37 1.62-.69 0-1.24-.44-1.24-1.13 0-.6.33-.88.58-1.1.14-.11.22-.19.22-.33 0-.22-.27-.27-.6-.27-1.98 0-3.66 3.9-3.66 6.07v3.27c0 1.24.27 1.54 1.48 1.54h.63v.39h-5.8v-.38zM285.11 30.05v-7.92h-1.87v-.33c1.76-.3 3.22-1.51 3.49-5.06h.36v4.95h3.71v.44h-3.71v8.05c0 1.73.63 2.58 1.87 2.58 1.13 0 2.03-1.24 2.14-3.66h.39c0 2.8-1.24 4.45-3.22 4.45-1.95.02-3.16-1.11-3.16-3.5zM292.28 27.52c0-3.71 2.58-6.21 5.33-6.21 2.2 0 4.73 1.7 4.73 5.25 0 .08-.03.69-.06.82h-7.75c0 3.02 1.21 5.36 3.57 5.36 2.12 0 3.19-1.07 4.09-2.39l.3.22c-1.02 1.7-2.61 3.05-5 3.05-3.15 0-5.21-2.33-5.21-6.1zm6.38-.58c1.1 0 1.4-.36 1.4-1.24 0-2.2-.77-3.98-2.53-3.98-1.92 0-2.91 2.06-3 5.22h4.13zM303.74 27.47c0-3.41 2.17-6.05 4.84-6.05 1.65 0 2.94 1.15 3.79 2.83h.08c-.05-.77-.08-2.42-.08-4.15v-3.74c0-1.26-.3-1.57-1.51-1.57h-.69v-.38l4.15-.41v17.15c0 1.24.25 1.59 1.46 1.59h.22v.39l-3.63.41.11-3.08h-.08c-.91 1.68-2.06 3.02-3.93 3.02-2.28 0-4.73-2.28-4.73-6.01zm8.63-.03c0-4.09-2.28-5.61-3.46-5.61-2.25 0-2.86 2.56-2.86 5.55 0 3.05.74 5.66 2.83 5.66 1.43.01 3.49-1.97 3.49-5.6zM24 57.81h.19c1.21 0 1.48-.3 1.48-1.54V48.6c0-1.24-.27-1.57-1.48-1.57H24v-.33l3.66-.22-.14 3.38h.05c.74-2.23 2.47-3.41 4.26-3.41 2.23 0 3.24 1.37 3.24 4.1v5.72c0 1.24.27 1.54 1.51 1.54h.06v.39h-5.3v-.39h.27c1.24 0 1.51-.3 1.51-1.54v-6.4c0-1.92-.82-2.53-1.92-2.53-2.01 0-3.52 2.01-3.52 4.45v4.48c0 1.24.27 1.54 1.48 1.54h.27v.39H24v-.39zM37.44 52.43c0-3.57 2.8-6.13 5.39-6.13 2.58 0 5.36 2.5 5.36 6.07 0 3.49-2.78 6.24-5.36 6.24-2.59 0-5.39-2.69-5.39-6.18zm8.44.02c0-3.19-.82-5.77-3.05-5.77s-3.05 2.53-3.05 5.72c0 3.16.77 5.83 3.05 5.83 2.28-.01 3.05-2.62 3.05-5.78zM50.69 55.04v-7.91h-1.87v-.33c1.76-.3 3.22-1.51 3.49-5.06h.36v4.95h3.71v.44h-3.71v8.05c0 1.73.63 2.58 1.87 2.58 1.13 0 2.03-1.24 2.14-3.66h.38c0 2.8-1.24 4.45-3.22 4.45-1.94 0-3.15-1.12-3.15-3.51zM57.61 57.81h.22c1.21 0 1.48-.3 1.48-1.54v-7.64c0-1.26-.27-1.57-1.48-1.57h-.22v-.36l3.66-.22v9.78c0 1.24.28 1.54 1.48 1.54h.22v.39h-5.36v-.38zm.91-15.72c0-.82.69-1.51 1.51-1.51.82 0 1.51.69 1.51 1.51 0 .82-.69 1.51-1.51 1.51-.82 0-1.51-.68-1.51-1.51zM63.99 52.51c0-3.38 2.72-6.21 5.94-6.21 2.14 0 3.71 1.48 3.71 3.08 0 .93-.6 1.51-1.37 1.51-.74 0-1.26-.63-1.26-1.29 0-.58.36-1.1.99-1.26.33-.08.58.05.58-.16 0-.49-.96-1.43-2.69-1.43-2.47 0-3.49 2.34-3.49 5.63 0 3.02 1.21 5.3 3.71 5.3 1.65 0 2.75-.88 3.57-1.98l.27.19c-.93 1.57-2.64 2.72-4.75 2.72-2.76 0-5.21-2.36-5.21-6.1zM74.74 52.51c0-3.71 2.58-6.21 5.33-6.21 2.2 0 4.73 1.7 4.73 5.25 0 .08-.03.69-.05.82H77c0 3.02 1.21 5.36 3.57 5.36 2.12 0 3.19-1.07 4.1-2.39l.3.22c-1.02 1.7-2.61 3.05-5 3.05-3.17 0-5.23-2.34-5.23-6.1zm6.37-.58c1.1 0 1.4-.36 1.4-1.24 0-2.2-.77-3.98-2.53-3.98-1.92 0-2.91 2.06-3 5.22h4.13zM86.14 55.86c0-2.34 2.09-3.57 7.26-4.78v-.8c0-2.64-1.04-3.55-2.69-3.55-1.48 0-2.75.63-2.75 1.13 0 .08.03.11.14.11.55 0 1.15.52 1.15 1.21 0 .71-.55 1.26-1.24 1.26-.71 0-1.24-.52-1.24-1.32 0-1.43 1.51-2.78 4.45-2.78 2.2 0 4.12.8 4.12 4.04v5.63c0 1.15.33 1.51.71 1.51.66 0 .93-.69.96-2.2h.38c-.05 2.61-.96 3.11-2.09 3.11-1.07 0-2.06-.6-1.92-2.58h-.06c-.52 1.43-2.17 2.64-4.09 2.64-1.74.01-3.09-.87-3.09-2.63zm7.26-2.36v-1.98c-4.2.85-4.97 2.31-4.97 3.87 0 1.24.66 2.14 1.92 2.14 1.35.01 3.05-.98 3.05-4.03zM99.01 53.53v-12.2c0-1.26-.27-1.57-1.48-1.57h-.47v-.38l3.87-.41v5.96c0 2.12-.08 4.31-.08 4.31h.05c1.04-1.81 2.12-2.83 3.9-2.83 2.39 0 4.73 2.58 4.73 5.99 0 3.79-2.53 6.07-4.81 6.07-1.87 0-2.86-1.04-3.79-2.72h-.06L99 58.69h-.36c.28-1.56.37-3.49.37-5.16zm8.21-1.08c0-3.02-.71-5.61-2.75-5.61-1.87 0-3.57 2.28-3.57 5.58 0 3.08 1.54 5.61 3.52 5.61 1.62 0 2.8-1.54 2.8-5.58zM110.55 57.81h.11c1.24 0 1.51-.33 1.51-1.65V41.41c0-1.32-.27-1.65-1.51-1.65h-.22v-.38l3.68-.41v17.2c0 1.32.28 1.65 1.48 1.65h.22v.39h-5.28v-.4zM116.79 52.51c0-3.71 2.58-6.21 5.33-6.21 2.2 0 4.73 1.7 4.73 5.25 0 .08-.03.69-.05.82h-7.75c0 3.02 1.21 5.36 3.57 5.36 2.12 0 3.19-1.07 4.1-2.39l.3.22c-1.02 1.7-2.61 3.05-5 3.05-3.17 0-5.23-2.34-5.23-6.1zm6.38-.58c1.1 0 1.4-.36 1.4-1.24 0-2.2-.77-3.98-2.53-3.98-1.92 0-2.91 2.06-3 5.22h4.13zM134.57 57.81h.22c1.21 0 1.48-.3 1.48-1.54v-9.15h-1.7v-.41h1.7v-1.9c0-3.13 1.48-5.8 4.45-5.8 1.65 0 2.56.93 2.56 2.12 0 .91-.6 1.43-1.35 1.43-.74 0-1.21-.47-1.21-1.18 0-.47.22-.8.44-1.02.16-.16.3-.3.3-.47 0-.28-.38-.55-.91-.55-1.87 0-2.31 1.98-2.31 4.7v2.67h2.8v.41h-2.8v9.15c0 1.24.28 1.54 1.48 1.54h.52v.39h-5.69v-.39zM141.69 55.86c0-2.34 2.09-3.57 7.26-4.78v-.8c0-2.64-1.04-3.55-2.69-3.55-1.48 0-2.75.63-2.75 1.13 0 .08.03.11.14.11.55 0 1.15.52 1.15 1.21 0 .71-.55 1.26-1.24 1.26-.71 0-1.24-.52-1.24-1.32 0-1.43 1.51-2.78 4.45-2.78 2.2 0 4.12.8 4.12 4.04v5.63c0 1.15.33 1.51.71 1.51.66 0 .93-.69.96-2.2h.38c-.05 2.61-.96 3.11-2.09 3.11-1.07 0-2.06-.6-1.92-2.58h-.06c-.52 1.43-2.17 2.64-4.09 2.64-1.74.01-3.09-.87-3.09-2.63zm7.26-2.36v-1.98c-4.2.85-4.97 2.31-4.97 3.87 0 1.24.66 2.14 1.92 2.14 1.34.01 3.05-.98 3.05-4.03zM154.5 55.04v-7.91h-1.87v-.33c1.76-.3 3.22-1.51 3.49-5.06h.36v4.95h3.71v.44h-3.71v8.05c0 1.73.63 2.58 1.87 2.58 1.13 0 2.03-1.24 2.14-3.66h.38c0 2.8-1.24 4.45-3.22 4.45-1.94 0-3.15-1.12-3.15-3.51zM167.67 57.81h.19c1.21 0 1.48-.3 1.48-1.54v-7.7c0-1.24-.33-1.54-1.48-1.54h-.19v-.33l3.66-.22-.19 4.64h.05c.85-3 2.23-4.78 4.04-4.78 1.4 0 2.2.82 2.2 1.79 0 1.07-.6 1.62-1.37 1.62-.69 0-1.24-.44-1.24-1.13 0-.6.33-.88.58-1.1.14-.11.22-.19.22-.33 0-.22-.27-.27-.6-.27-1.98 0-3.66 3.9-3.66 6.07v3.27c0 1.24.27 1.54 1.48 1.54h.63v.39h-5.8v-.38zM177.72 52.51c0-3.71 2.58-6.21 5.33-6.21 2.2 0 4.73 1.7 4.73 5.25 0 .08-.03.69-.05.82h-7.75c0 3.02 1.21 5.36 3.57 5.36 2.12 0 3.19-1.07 4.1-2.39l.3.22c-1.02 1.7-2.61 3.05-5 3.05-3.16 0-5.23-2.34-5.23-6.1zm6.38-.58c1.1 0 1.4-.36 1.4-1.24 0-2.2-.77-3.98-2.53-3.98-1.92 0-2.91 2.06-3 5.22h4.13zM189.19 52.45c0-3.41 2.17-6.05 4.84-6.05 1.65 0 2.94 1.15 3.79 2.83h.08c-.06-.77-.08-2.42-.08-4.15v-3.74c0-1.26-.3-1.57-1.51-1.57h-.69v-.37l4.15-.41v17.15c0 1.24.25 1.59 1.46 1.59h.22v.39l-3.63.41.11-3.08h-.08c-.91 1.68-2.06 3.02-3.93 3.02-2.29 0-4.73-2.28-4.73-6.02zm8.63-.02c0-4.09-2.28-5.61-3.46-5.61-2.25 0-2.86 2.56-2.86 5.55 0 3.05.74 5.66 2.83 5.66 1.42 0 3.49-1.98 3.49-5.6zM203.29 54.57v-5.94c0-1.21-.27-1.57-1.48-1.57h-.25v-.36l3.68-.22v8.57c0 1.95.74 2.72 2.03 2.72 1.7 0 3.41-2.42 3.41-4.73v-4.4c0-1.26-.27-1.59-1.48-1.59h-.55v-.36l4.01-.22v9.62c0 1.24.3 1.59 1.51 1.59h.19v.36l-3.65.41.14-3.41h-.05c-.71 1.87-2.31 3.41-4.18 3.41-2.18.02-3.33-1.24-3.33-3.88zM215.24 52.51c0-3.38 2.72-6.21 5.94-6.21 2.14 0 3.71 1.48 3.71 3.08 0 .93-.6 1.51-1.37 1.51-.74 0-1.26-.63-1.26-1.29 0-.58.36-1.1.99-1.26.33-.08.58.05.58-.16 0-.49-.96-1.43-2.69-1.43-2.47 0-3.49 2.34-3.49 5.63 0 3.02 1.21 5.3 3.71 5.3 1.65 0 2.75-.88 3.57-1.98l.27.19c-.93 1.57-2.64 2.72-4.75 2.72-2.76 0-5.21-2.36-5.21-6.1zM227.44 55.04v-7.91h-1.87v-.33c1.76-.3 3.22-1.51 3.49-5.06h.36v4.95h3.71v.44h-3.71v8.05c0 1.73.63 2.58 1.87 2.58 1.13 0 2.03-1.24 2.14-3.66h.38c0 2.8-1.24 4.45-3.22 4.45-1.94 0-3.15-1.12-3.15-3.51zM234.37 57.81h.22c1.21 0 1.48-.3 1.48-1.54v-7.64c0-1.26-.27-1.57-1.48-1.57h-.22v-.36l3.66-.22v9.78c0 1.24.27 1.54 1.48 1.54h.22v.39h-5.36v-.38zm.91-15.72c0-.82.69-1.51 1.51-1.51.82 0 1.51.69 1.51 1.51 0 .82-.69 1.51-1.51 1.51-.83 0-1.51-.68-1.51-1.51zM240.75 52.43c0-3.57 2.8-6.13 5.39-6.13s5.36 2.5 5.36 6.07c0 3.49-2.78 6.24-5.36 6.24s-5.39-2.69-5.39-6.18zm8.43.02c0-3.19-.82-5.77-3.05-5.77s-3.05 2.53-3.05 5.72c0 3.16.77 5.83 3.05 5.83s3.05-2.62 3.05-5.78zM252.51 57.81h.19c1.21 0 1.48-.3 1.48-1.54V48.6c0-1.24-.27-1.57-1.48-1.57h-.19v-.33l3.66-.22-.14 3.38h.06c.74-2.23 2.47-3.41 4.26-3.41 2.23 0 3.24 1.37 3.24 4.1v5.72c0 1.24.27 1.54 1.51 1.54h.06v.39h-5.3v-.39h.27c1.24 0 1.51-.3 1.51-1.54v-6.4c0-1.92-.82-2.53-1.92-2.53-2.01 0-3.52 2.01-3.52 4.45v4.48c0 1.24.27 1.54 1.48 1.54h.27v.39h-5.44v-.39zM266.64 56.82c0-.88.69-1.57 1.57-1.57s1.57.69 1.57 1.57-.69 1.57-1.57 1.57-1.57-.69-1.57-1.57zM269.37 42.85c.27-.35.98-1.01 1.41-1.62-.72-.24-1.67-.35-2.08-.48-.43-.13-.62-.34-.58-.48.05-.16.32-.22.75-.06.42.16 1.25.61 1.97.83 0-.75-.19-1.68-.19-2.13 0-.43.13-.69.29-.69.16 0 .29.26.29.69 0 .45-.19 1.38-.19 2.13.72-.22 1.55-.69 1.97-.83.4-.14.72-.11.75.06.03.14-.14.35-.58.48-.42.13-1.36.24-2.08.48.45.61 1.14 1.27 1.41 1.62.26.32.3.64.18.74-.11.08-.38-.03-.64-.4s-.66-1.22-1.11-1.83c-.45.61-.85 1.46-1.11 1.83-.24.34-.51.48-.62.4-.14-.09-.1-.41.16-.74z"/></svg>