<svg id="Layer_1" xmlns="http://www.w3.org/2000/svg" viewBox="0 0 728 90"><style>.st0{fill:#eaf5fb}.st1{fill:#002457}</style><path class="st0" d="M352 45h130.09v23.31H352z"/><path class="st1" d="M362.99 54.74v1.83h3.56v1.74h-3.56v3.32h-2.25V53h6.71v1.74h-4.46zM370.99 61.63h-2.25V53h2.25v8.63zM380.68 61.63h-2.5l-2.68-4.67-.65-1.31h-.01l.05 1.62v4.35h-1.99V53h2.5l2.68 4.67.65 1.31h.01l-.05-1.62V53h1.99v8.63zM390.44 57.32c0 2.76-1.48 4.32-4.18 4.32h-3.66V53h3.66c2.7 0 4.18 1.56 4.18 4.32zm-2.3 0c0-1.73-.64-2.62-2.11-2.62h-1.19v5.23h1.19c1.47 0 2.11-.89 2.11-2.61zM400.38 59.68h-2.98l-.6 1.95h-2.26l3.03-8.63h2.69l3.02 8.63h-2.31l-.59-1.95zm-.47-1.53l-.63-2.07-.38-1.36h-.03l-.35 1.35-.64 2.08h2.03zM415.05 55.86c0 1.76-1.19 2.77-3.33 2.77H410v2.99h-2.25V53h3.96c2.15 0 3.34 1.01 3.34 2.86zm-2.26-.02c0-.76-.43-1.14-1.43-1.14H410v2.29h1.36c.99 0 1.43-.38 1.43-1.15zM420.04 58.48h-1.35v3.15h-2.21V53h4.12c2.08 0 3.26.97 3.26 2.75 0 1.26-.59 2.11-1.67 2.5l2.18 3.39h-2.48l-1.85-3.16zm-1.34-1.6h1.53c.96 0 1.37-.33 1.37-1.1 0-.76-.42-1.08-1.37-1.08h-1.53v2.18zM433.5 57.32c0 2.79-1.59 4.45-4.22 4.45s-4.24-1.66-4.24-4.45 1.61-4.45 4.24-4.45 4.22 1.66 4.22 4.45zm-6.16 0c0 1.77.68 2.68 1.94 2.68 1.24 0 1.92-.92 1.92-2.68s-.68-2.68-1.92-2.68c-1.26-.01-1.94.91-1.94 2.68zM439.65 61.63h-2.64L433.94 53h2.37l1.58 5.22.47 1.7.46-1.67 1.61-5.24h2.29l-3.07 8.62zM446 61.63h-2.25V53H446v8.63zM455.75 57.32c0 2.76-1.48 4.32-4.18 4.32h-3.66V53h3.66c2.71 0 4.18 1.56 4.18 4.32zm-2.3 0c0-1.73-.64-2.62-2.11-2.62h-1.19v5.23h1.19c1.47 0 2.11-.89 2.11-2.61zM464.19 59.89v1.74h-6.89V53h6.72v1.74h-4.47v1.75h3.56v1.63h-3.56v1.77h4.64zM469.11 58.48h-1.35v3.15h-2.21V53h4.12c2.08 0 3.26.97 3.26 2.75 0 1.26-.59 2.11-1.67 2.5l2.18 3.39h-2.48l-1.85-3.16zm-1.35-1.6h1.53c.96 0 1.37-.33 1.37-1.1 0-.76-.42-1.08-1.37-1.08h-1.53v2.18z"/></svg>