<svg id="Layer_1" xmlns="http://www.w3.org/2000/svg" viewBox="0 0 728 90"><style>.st0{fill:#bdd6e6}</style><path class="st0" d="M26.78 70.22l-.34-.77-.14-.45-.33.41-.66.65-.39-.4.67-.65.42-.31-.44-.15-.76-.36.27-.5.76.36.4.27.04-.5.18-.85h.6l-.22.91-.18.48.49-.17.89-.17.04.56-.87.17-.51.04.25.41.35.76-.52.26zM32.71 67.46l-.15.64h-1.54l-.92 3.97h-.76l.92-3.97H28.7l.15-.64h3.86zM32.29 72.07L33.47 67h.75l-.53 2.3-.11.08a1.238 1.238 0 0 1 .75-.78c.18-.07.36-.11.57-.11.25 0 .47.06.65.17.18.11.31.28.39.49.08.21.08.46.02.76l-.5 2.15h-.75l.49-2.1c.06-.27.03-.47-.08-.63s-.29-.23-.53-.23c-.19 0-.35.04-.5.13-.15.08-.27.21-.37.37-.1.16-.18.36-.24.61l-.43 1.85h-.76zM38.27 72.13c-.33 0-.62-.07-.85-.21s-.42-.32-.55-.55c-.13-.24-.2-.51-.2-.8 0-.37.07-.71.22-1.03.15-.31.37-.56.65-.75s.63-.28 1.03-.28c.3 0 .56.06.77.18s.38.29.49.51.17.47.17.76c0 .09-.01.19-.02.29-.01.1-.03.2-.07.29H37.1v-.57h2.41l-.27.2c.02-.06.03-.11.04-.16 0-.05.01-.1.01-.15 0-.15-.03-.29-.09-.4a.594.594 0 0 0-.26-.26.816.816 0 0 0-.4-.09c-.21 0-.39.04-.54.13-.15.09-.26.2-.35.35-.09.15-.15.31-.19.49-.04.18-.06.35-.06.52 0 .2.04.37.12.51.08.14.18.25.32.33s.3.12.49.12c.22 0 .4-.05.54-.14.14-.09.25-.21.33-.36l.6.32c-.09.16-.22.29-.37.41-.15.11-.32.2-.52.26s-.4.08-.64.08zM42.41 73.54l1.15-4.97h.66l-.17.96-.08.05c.06-.22.15-.42.28-.57.13-.16.29-.28.48-.36.19-.08.39-.13.61-.13.24 0 .45.06.64.17s.34.29.45.51c.11.22.16.49.16.8 0 .29-.04.57-.13.83s-.21.49-.37.68c-.16.2-.34.35-.56.46-.21.11-.44.17-.7.17-.22 0-.42-.04-.59-.13a1.02 1.02 0 0 1-.42-.38c-.1-.17-.16-.36-.17-.59l.12-.11-.59 2.6h-.77zm2.31-2c.15 0 .3-.04.43-.12.14-.08.25-.18.36-.33.1-.14.18-.3.24-.48s.08-.37.08-.58c0-.2-.03-.37-.1-.51a.672.672 0 0 0-.29-.31.858.858 0 0 0-.43-.11c-.17 0-.32.04-.45.12-.14.08-.25.19-.35.33-.1.14-.18.3-.23.49-.05.19-.08.39-.08.59 0 .27.07.49.21.65.14.18.34.26.61.26zM47.07 72.07l.81-3.5h.63l-.11.94-.08-.07c.07-.2.18-.36.3-.5s.28-.25.44-.33c.17-.08.34-.12.52-.12.07 0 .14 0 .2.01s.11.03.15.05l-.2.67c-.05-.02-.1-.04-.16-.05-.06-.01-.13-.02-.22-.02-.17 0-.33.04-.48.12-.15.08-.28.2-.39.35s-.2.37-.26.62l-.42 1.81h-.73zM51.42 68.57l-.81 3.5h-.75l.81-3.5h.75zm-.18-.58c-.14 0-.25-.04-.34-.11a.374.374 0 0 1-.11-.31c0-.16.06-.29.15-.38.1-.09.22-.13.37-.13.14 0 .26.04.34.11.08.07.12.17.12.3-.01.17-.06.3-.16.39-.09.08-.22.13-.37.13zM51.72 72.07l.81-3.5h.66l-.15.88-.07-.05c.1-.3.27-.52.51-.68.24-.15.51-.23.81-.23.25 0 .46.06.64.17.18.11.3.28.37.49s.07.47 0 .78l-.5 2.13h-.75l.49-2.08c.06-.27.05-.48-.06-.64-.1-.15-.27-.23-.5-.23-.19 0-.35.04-.5.13s-.26.21-.36.37-.17.36-.23.61l-.43 1.85h-.74zm4.68 0l.48-2.08c.06-.27.04-.48-.06-.64-.1-.15-.27-.23-.49-.23a.91.91 0 0 0-.5.13c-.14.08-.26.21-.36.37-.1.16-.17.36-.23.61l-.07-.68c.13-.35.32-.6.58-.78.26-.17.56-.26.88-.26.25 0 .46.06.64.17s.3.28.37.49c.07.21.07.47 0 .78l-.5 2.13h-.74zM59.73 72.13c-.26 0-.49-.06-.69-.19-.2-.12-.36-.3-.47-.52-.11-.22-.17-.49-.17-.79a2.455 2.455 0 0 1 .49-1.49c.15-.2.34-.35.56-.47.22-.11.45-.17.71-.17.19 0 .37.03.52.1s.29.16.4.29c.11.13.18.28.22.46l.18-.78h.75l-.81 3.5h-.66l.12-.65c-.12.21-.28.39-.48.51-.2.13-.42.2-.67.2zm.26-.6c.15 0 .29-.04.42-.12.13-.08.25-.19.35-.33a1.9 1.9 0 0 0 .33-1.07c0-.19-.03-.35-.1-.49a.795.795 0 0 0-.28-.32.82.82 0 0 0-.42-.11.94.94 0 0 0-.47.12c-.14.08-.26.19-.36.33-.1.14-.18.3-.23.48-.06.18-.08.37-.08.56 0 .2.03.37.1.51.06.14.16.25.29.32.12.09.27.12.45.12zM62.55 72.07l.81-3.5h.63l-.11.94-.08-.07c.07-.2.18-.36.3-.5s.28-.25.44-.33c.17-.08.34-.12.52-.12.07 0 .14 0 .2.01s.11.03.15.05l-.2.67c-.05-.02-.1-.04-.16-.05-.06-.01-.13-.02-.22-.02-.17 0-.33.04-.48.12-.15.08-.28.2-.39.35s-.2.37-.26.62l-.42 1.81h-.73zM65.34 73.58c-.19 0-.35-.02-.49-.06a.985.985 0 0 1-.34-.17l.26-.58c.16.14.34.22.55.22.14 0 .26-.04.37-.11.11-.08.22-.19.32-.35l.27-.44-.62-3.5h.75l.25 1.97.11.87.46-.83 1.14-2.01h.83l-2.53 4.06c-.14.22-.27.41-.42.54-.14.14-.29.24-.44.3-.14.05-.3.09-.47.09zM72.87 72.13c-.35 0-.64-.07-.88-.21a1.46 1.46 0 0 1-.56-.57c-.13-.24-.2-.5-.2-.79 0-.4.08-.75.23-1.06s.37-.55.65-.73c.28-.18.61-.27.98-.27.34 0 .64.07.88.21.24.14.42.33.55.57.13.24.19.5.19.8 0 .39-.08.74-.23 1.05-.15.31-.37.56-.65.74s-.58.26-.96.26zm.02-.58c.15 0 .3-.04.43-.11s.25-.18.35-.31c.1-.14.18-.29.23-.47s.08-.37.08-.58c0-.19-.03-.35-.09-.5s-.16-.26-.29-.35-.3-.13-.5-.13c-.15 0-.3.04-.43.11s-.25.18-.35.31c-.1.13-.17.29-.23.47s-.08.37-.08.58c0 .18.03.34.1.49.06.15.16.27.3.35.11.09.28.14.48.14zM77.78 68.52c.24 0 .46.06.65.17.19.12.35.29.46.51.11.22.16.5.16.82 0 .29-.04.56-.13.82-.09.25-.21.48-.37.67-.16.2-.34.35-.55.46a1.479 1.479 0 0 1-1.25.06c-.16-.07-.3-.17-.4-.3-.1-.13-.17-.27-.21-.44l-.19.77h-.73L76.4 67h.75l-.5 2.13c.11-.18.27-.33.47-.44s.41-.17.66-.17zm-.58 3.02c.15 0 .3-.04.43-.12.14-.08.25-.18.36-.32.1-.13.18-.29.24-.48.06-.18.08-.38.08-.58 0-.21-.04-.38-.1-.52a.727.727 0 0 0-.29-.31.816.816 0 0 0-.42-.1c-.17 0-.32.04-.46.12-.14.08-.26.19-.36.33s-.18.3-.23.49c-.05.19-.08.39-.08.59 0 .27.07.49.21.65.14.17.35.25.62.25zM79.06 73.58c-.15 0-.3-.02-.45-.06a.74.74 0 0 1-.35-.19l.22-.59c.07.05.14.09.22.13s.16.05.25.05c.14 0 .24-.04.32-.11.08-.07.14-.22.19-.43l.9-3.81h.75l-.92 3.96c-.08.36-.23.63-.43.79-.21.17-.44.26-.7.26zm1.87-5.59c-.14 0-.25-.04-.34-.11a.374.374 0 0 1-.11-.31c0-.16.06-.29.15-.38.1-.09.22-.13.37-.13.14 0 .26.04.34.11.08.07.12.17.12.3-.01.17-.06.3-.16.39-.1.08-.23.13-.37.13zM83.2 72.13c-.33 0-.62-.07-.85-.21s-.42-.33-.55-.56c-.13-.24-.2-.51-.2-.8 0-.37.07-.71.22-1.03.15-.31.37-.56.65-.75s.63-.28 1.03-.28c.3 0 .56.06.77.18s.38.29.49.51.17.47.17.76c0 .09-.01.19-.02.29-.01.1-.03.2-.07.29h-2.82v-.57h2.41l-.27.2c.02-.06.03-.11.04-.16 0-.05.01-.1.01-.15 0-.15-.03-.29-.09-.4a.594.594 0 0 0-.26-.26.816.816 0 0 0-.4-.09c-.21 0-.39.04-.54.13-.15.09-.26.2-.35.35-.09.15-.15.31-.19.49-.04.18-.06.35-.06.52 0 .2.04.37.12.51.08.14.18.25.32.33s.3.12.49.12c.22 0 .4-.05.54-.14.14-.09.25-.21.33-.36l.6.32c-.09.16-.22.29-.37.41-.15.11-.32.2-.52.26s-.4.09-.63.09zM87.21 72.13c-.34 0-.62-.07-.86-.21-.24-.14-.42-.33-.55-.57-.13-.24-.19-.51-.19-.8 0-.4.08-.75.23-1.05.16-.3.38-.55.66-.72.28-.18.61-.27 1-.27.28 0 .53.05.74.14.21.1.38.23.51.4s.21.37.23.59l-.75.15a.8.8 0 0 0-.2-.5c-.12-.13-.31-.2-.56-.2-.16 0-.31.04-.45.12-.14.08-.25.18-.35.31s-.18.29-.23.47-.08.37-.08.58c0 .19.04.35.1.5.07.15.17.26.3.35.13.08.3.13.49.13.16 0 .32-.05.46-.14s.25-.22.31-.4l.7.25c-.13.28-.32.5-.59.65s-.57.22-.92.22zM89.46 69.16l.13-.59h2.48l-.13.59h-2.48zm1.28 2.97c-.24 0-.45-.04-.62-.14a.779.779 0 0 1-.36-.4c-.07-.18-.08-.39-.02-.64l.72-3.13.8-.22-.79 3.37c-.05.21-.02.35.08.44s.24.14.4.14a.847.847 0 0 0 .51-.15l.06.55c-.12.07-.25.13-.37.15-.13.01-.27.03-.41.03zM93.65 68.57l-.81 3.5h-.75l.81-3.5h.75zm-.17-.58c-.14 0-.25-.04-.34-.11a.374.374 0 0 1-.11-.31c0-.16.06-.29.15-.38.1-.09.22-.13.37-.13.14 0 .26.04.34.11.08.07.12.17.12.3-.01.17-.06.3-.16.39-.1.08-.23.13-.37.13zM96.92 68.57h.83l-2.15 3.5h-.82l-.56-3.5h.74l.38 3.12-.17-.03 1.75-3.09zM99.44 72.13c-.33 0-.62-.07-.85-.21s-.42-.33-.55-.56c-.13-.24-.2-.51-.2-.8 0-.37.07-.71.22-1.03.15-.31.37-.56.65-.75s.63-.28 1.03-.28c.3 0 .56.06.77.18s.38.29.49.51.17.47.17.76c0 .09-.01.19-.02.29-.01.1-.03.2-.07.29h-2.82v-.57h2.41l-.27.2c.02-.06.03-.11.04-.16 0-.05.01-.1.01-.15 0-.15-.03-.29-.09-.4a.594.594 0 0 0-.26-.26.816.816 0 0 0-.4-.09c-.21 0-.39.04-.54.13-.15.09-.26.2-.35.35-.09.15-.15.31-.19.49-.04.18-.06.35-.06.52 0 .2.04.37.12.51.08.14.18.25.32.33s.3.12.49.12c.22 0 .4-.05.54-.14.14-.09.25-.21.33-.36l.6.32c-.09.16-.22.29-.37.41-.15.11-.32.2-.52.26s-.39.09-.63.09zM104.43 72.07l-.32-3.5h.73l.19 2.71 1.4-2.71h.74l.29 2.75 1.4-2.75h.8l-1.9 3.5h-.82l-.31-2.59-1.36 2.59h-.84zM111.06 72.13c-.26 0-.49-.06-.69-.19-.2-.12-.36-.3-.47-.52-.11-.22-.17-.49-.17-.79a2.455 2.455 0 0 1 .49-1.49c.15-.2.34-.35.56-.47.22-.11.45-.17.71-.17.19 0 .37.03.52.1s.29.16.4.29c.11.13.18.28.22.46l.18-.78h.75l-.81 3.5h-.66l.12-.65c-.12.21-.28.39-.48.51-.2.13-.42.2-.67.2zm.26-.6c.15 0 .29-.04.42-.12.13-.08.25-.19.35-.33a1.9 1.9 0 0 0 .33-1.07c0-.19-.03-.35-.1-.49a.795.795 0 0 0-.28-.32.82.82 0 0 0-.42-.11.94.94 0 0 0-.47.12c-.14.08-.26.19-.36.33-.1.14-.18.3-.23.48-.06.18-.08.37-.08.56 0 .2.03.37.1.51.06.14.16.25.29.32.12.09.27.12.45.12zM115.49 72.15c-.27 0-.51-.04-.73-.12-.22-.08-.41-.19-.58-.34-.16-.15-.29-.32-.38-.52l.57-.34c.1.24.24.42.43.55s.42.19.68.19c.21 0 .38-.04.5-.13.12-.08.18-.2.18-.34 0-.1-.03-.19-.1-.25a.839.839 0 0 0-.3-.15l-.56-.17c-.31-.08-.54-.21-.68-.37a.841.841 0 0 1-.22-.58c0-.21.06-.4.17-.56.11-.16.27-.29.48-.38.21-.09.46-.14.74-.14.34 0 .64.07.9.21.26.14.45.34.57.61l-.54.36c-.05-.12-.12-.23-.22-.31s-.2-.16-.33-.21a1.07 1.07 0 0 0-.41-.08c-.23 0-.4.04-.51.12s-.17.18-.17.31c0 .12.04.21.13.27.09.06.19.11.31.15l.68.2c.24.07.43.18.57.33.14.15.2.33.2.54 0 .24-.06.44-.17.62-.12.17-.28.31-.49.4-.2.08-.44.13-.72.13zM119.86 69.16l.13-.59h2.48l-.13.59h-2.48zm1.28 2.97c-.24 0-.45-.04-.62-.14a.779.779 0 0 1-.36-.4c-.07-.18-.08-.39-.02-.64l.72-3.13.8-.22-.79 3.37c-.05.21-.02.35.08.44s.24.14.4.14a.847.847 0 0 0 .51-.15l.06.55c-.12.07-.25.13-.37.15-.13.01-.26.03-.41.03zM124.34 72.13c-.35 0-.64-.07-.88-.21a1.46 1.46 0 0 1-.56-.57c-.13-.24-.2-.5-.2-.79 0-.4.08-.75.23-1.06s.37-.55.65-.73c.28-.18.61-.27.98-.27.34 0 .64.07.88.21.24.14.42.33.55.57.13.24.19.5.19.8 0 .39-.08.74-.23 1.05-.15.31-.37.56-.65.74s-.59.26-.96.26zm.01-.58c.15 0 .3-.04.43-.11s.25-.18.35-.31c.1-.14.18-.29.23-.47s.08-.37.08-.58c0-.19-.03-.35-.09-.5s-.16-.26-.29-.35-.3-.13-.5-.13c-.15 0-.3.04-.43.11s-.25.18-.35.31c-.1.13-.17.29-.23.47s-.08.37-.08.58c0 .18.03.34.1.49.06.15.16.27.3.35.12.09.28.14.48.14zM130.73 72.13c-.33 0-.62-.07-.85-.21s-.42-.33-.55-.56c-.13-.24-.2-.51-.2-.8 0-.37.07-.71.22-1.03.15-.31.37-.56.65-.75s.63-.28 1.03-.28c.3 0 .56.06.77.18s.38.29.49.51.17.47.17.76c0 .09-.01.19-.02.29-.01.1-.03.2-.07.29h-2.82v-.57h2.41l-.27.2c.02-.06.03-.11.04-.16 0-.05.01-.1.01-.15 0-.15-.03-.29-.09-.4a.594.594 0 0 0-.26-.26.816.816 0 0 0-.4-.09c-.21 0-.39.04-.54.13-.15.09-.26.2-.35.35-.09.15-.15.31-.19.49-.04.18-.06.35-.06.52 0 .2.04.37.12.51.08.14.18.25.32.33s.3.12.49.12c.22 0 .4-.05.54-.14.14-.09.25-.21.33-.36l.6.32c-.09.16-.22.29-.37.41-.15.11-.32.2-.52.26s-.4.09-.63.09zM135.82 68.57h.83l-2.15 3.5h-.82l-.56-3.5h.74l.38 3.12-.17-.03 1.75-3.09zM138.05 72.13c-.26 0-.49-.06-.69-.19-.2-.12-.36-.3-.47-.52-.11-.22-.17-.49-.17-.79a2.455 2.455 0 0 1 .49-1.49c.15-.2.34-.35.56-.47.22-.11.45-.17.71-.17.19 0 .37.03.52.1s.29.16.4.29c.11.13.18.28.22.46l.18-.78h.75l-.81 3.5h-.66l.12-.65c-.12.21-.28.39-.48.51-.2.13-.43.2-.67.2zm.26-.6c.15 0 .29-.04.42-.12.13-.08.25-.19.35-.33a1.9 1.9 0 0 0 .33-1.07c0-.19-.03-.35-.1-.49a.795.795 0 0 0-.28-.32.82.82 0 0 0-.42-.11.94.94 0 0 0-.47.12c-.14.08-.26.19-.36.33-.1.14-.18.3-.23.48-.06.18-.08.37-.08.56 0 .2.03.37.1.51.06.14.16.25.29.32.12.09.27.12.45.12zM141.91 72.13c-.35 0-.59-.1-.73-.31s-.17-.48-.09-.81l.93-4.01h.75l-.93 4.02c-.05.18-.04.31.03.4.07.08.19.12.36.12.07 0 .12 0 .17-.01.05 0 .09-.01.13-.02l-.16.55c-.07.03-.15.05-.21.06-.07 0-.15.01-.25.01zM144.39 72.13c-.25 0-.47-.06-.66-.17-.19-.11-.32-.27-.41-.48s-.09-.46-.02-.76l.5-2.14h.75l-.48 2.08c-.07.28-.04.49.08.64.12.15.3.22.54.22.19 0 .35-.04.49-.12.14-.08.26-.2.36-.36.1-.16.17-.36.22-.6l.43-1.85h.75l-.81 3.5h-.66l.15-.88.07.06c-.09.29-.26.51-.49.66-.24.12-.51.2-.81.2zM148.76 72.13c-.26 0-.49-.06-.69-.19-.2-.12-.36-.3-.47-.52-.11-.22-.17-.49-.17-.79a2.455 2.455 0 0 1 .49-1.49c.15-.2.34-.35.56-.47.22-.11.45-.17.71-.17.19 0 .37.03.52.1s.29.16.4.29c.11.13.18.28.22.46l.18-.78h.75l-.81 3.5h-.66l.12-.65c-.12.21-.28.39-.48.51-.21.13-.43.2-.67.2zm.26-.6c.15 0 .29-.04.42-.12.13-.08.25-.19.35-.33a1.9 1.9 0 0 0 .33-1.07c0-.19-.03-.35-.1-.49a.795.795 0 0 0-.28-.32.82.82 0 0 0-.42-.11.94.94 0 0 0-.47.12c-.14.08-.26.19-.36.33-.1.14-.18.3-.23.48-.06.18-.08.37-.08.56 0 .2.03.37.1.51.06.14.16.25.29.32.11.09.26.12.45.12zM151.83 69.16l.13-.59h2.48l-.13.59h-2.48zm1.28 2.97c-.24 0-.45-.04-.62-.14a.779.779 0 0 1-.36-.4c-.07-.18-.08-.39-.02-.64l.72-3.13.8-.22-.79 3.37c-.05.21-.02.35.08.44s.24.14.4.14a.847.847 0 0 0 .51-.15l.06.55c-.12.07-.25.13-.37.15-.13.01-.27.03-.41.03zM156.28 72.13c-.33 0-.62-.07-.85-.21s-.42-.33-.55-.56c-.13-.24-.2-.51-.2-.8 0-.37.07-.71.22-1.03.15-.31.37-.56.65-.75s.63-.28 1.03-.28c.3 0 .56.06.77.18s.38.29.49.51.17.47.17.76c0 .09-.01.19-.02.29-.01.1-.03.2-.07.29h-2.82v-.57h2.41l-.27.2c.02-.06.03-.11.04-.16 0-.05.01-.1.01-.15 0-.15-.03-.29-.09-.4a.594.594 0 0 0-.26-.26.816.816 0 0 0-.4-.09c-.21 0-.39.04-.54.13-.15.09-.26.2-.35.35-.09.15-.15.31-.19.49-.04.18-.06.35-.06.52 0 .2.04.37.12.51.08.14.18.25.32.33s.3.12.49.12c.22 0 .4-.05.54-.14.14-.09.25-.21.33-.36l.6.32c-.09.16-.22.29-.37.41-.15.11-.32.2-.52.26s-.4.09-.63.09zM162.57 72.13c-.35 0-.64-.07-.88-.21a1.46 1.46 0 0 1-.56-.57c-.13-.24-.2-.5-.2-.79 0-.4.08-.75.23-1.06s.37-.55.65-.73c.28-.18.61-.27.98-.27.34 0 .64.07.88.21.24.14.42.33.55.57.13.24.19.5.19.8 0 .39-.08.74-.23 1.05-.15.31-.37.56-.65.74s-.58.26-.96.26zm.02-.58c.15 0 .3-.04.43-.11s.25-.18.35-.31c.1-.14.18-.29.23-.47s.08-.37.08-.58c0-.19-.03-.35-.09-.5s-.16-.26-.29-.35-.3-.13-.5-.13c-.15 0-.3.04-.43.11s-.25.18-.35.31c-.1.13-.17.29-.23.47s-.08.37-.08.58c0 .18.03.34.1.49.06.15.16.27.3.35.11.09.28.14.48.14zM167.74 68.57h.83l-2.15 3.5h-.82l-.56-3.5h.74l.38 3.12-.17-.03 1.75-3.09zM170.26 72.13c-.33 0-.62-.07-.85-.21s-.42-.33-.55-.56c-.13-.24-.2-.51-.2-.8 0-.37.07-.71.22-1.03.15-.31.37-.56.65-.75s.63-.28 1.03-.28c.3 0 .56.06.77.18s.38.29.49.51.17.47.17.76c0 .09-.01.19-.02.29-.01.1-.03.2-.07.29h-2.82v-.57h2.41l-.27.2c.02-.06.03-.11.04-.16 0-.05.01-.1.01-.15 0-.15-.03-.29-.09-.4a.594.594 0 0 0-.26-.26.816.816 0 0 0-.4-.09c-.21 0-.39.04-.54.13-.15.09-.26.2-.35.35-.09.15-.15.31-.19.49-.04.18-.06.35-.06.52 0 .2.04.37.12.51.08.14.18.25.32.33s.3.12.49.12c.22 0 .4-.05.54-.14.14-.09.25-.21.33-.36l.6.32c-.09.16-.22.29-.37.41-.15.11-.32.2-.52.26s-.4.09-.63.09zM172.49 72.07l.81-3.5h.63l-.11.94-.08-.07c.07-.2.18-.36.3-.5s.28-.25.44-.33c.17-.08.34-.12.52-.12.07 0 .14 0 .2.01s.11.03.15.05l-.2.67c-.05-.02-.1-.04-.16-.05-.06-.01-.13-.02-.22-.02-.17 0-.33.04-.48.12-.15.08-.28.2-.39.35s-.2.37-.26.62l-.42 1.81h-.73zM176.7 72.13c-.26 0-.49-.06-.69-.19-.2-.12-.36-.3-.47-.52-.11-.22-.17-.49-.17-.79a2.455 2.455 0 0 1 .49-1.49c.15-.2.34-.35.56-.47.22-.11.45-.17.71-.17.19 0 .37.03.52.1s.29.16.4.29c.11.13.18.28.22.46l.18-.78h.75l-.81 3.5h-.66l.12-.65c-.12.21-.28.39-.48.51-.21.13-.43.2-.67.2zm.26-.6c.15 0 .29-.04.42-.12.13-.08.25-.19.35-.33a1.9 1.9 0 0 0 .33-1.07c0-.19-.03-.35-.1-.49a.795.795 0 0 0-.28-.32.82.82 0 0 0-.42-.11.94.94 0 0 0-.47.12c-.14.08-.26.19-.36.33-.1.14-.18.3-.23.48-.06.18-.08.37-.08.56 0 .2.03.37.1.51.06.14.16.25.29.32.11.09.26.12.45.12zM180.56 72.13c-.35 0-.59-.1-.73-.31s-.17-.48-.09-.81l.93-4.01h.75l-.93 4.02c-.05.18-.04.31.03.4.07.08.19.12.36.12.07 0 .12 0 .17-.01.05 0 .09-.01.13-.02l-.16.55c-.07.03-.15.05-.21.06-.07 0-.15.01-.25.01zM182.73 72.13c-.35 0-.59-.1-.73-.31s-.17-.48-.09-.81l.93-4.01h.75l-.93 4.02c-.05.18-.04.31.03.4.07.08.19.12.36.12.07 0 .12 0 .17-.01.05 0 .09-.01.13-.02l-.16.55c-.07.03-.15.05-.21.06-.06 0-.15.01-.25.01zM185.57 73.54l1.15-4.97h.66l-.17.96-.08.05c.06-.22.15-.42.28-.57.13-.16.29-.28.48-.36.19-.08.39-.13.61-.13.24 0 .45.06.64.17s.34.29.45.51c.11.22.16.49.16.8 0 .29-.04.57-.13.83s-.21.49-.37.68c-.16.2-.34.35-.56.46-.21.11-.44.17-.7.17-.22 0-.42-.04-.59-.13a1.02 1.02 0 0 1-.42-.38c-.1-.17-.16-.36-.17-.59l.12-.11-.59 2.6h-.77zm2.31-2c.15 0 .3-.04.43-.12.14-.08.25-.18.36-.33.1-.14.18-.3.24-.48s.08-.37.08-.58c0-.2-.03-.37-.1-.51a.672.672 0 0 0-.29-.31.858.858 0 0 0-.43-.11c-.17 0-.32.04-.45.12-.14.08-.25.19-.35.33-.1.14-.18.3-.23.49-.05.19-.08.39-.08.59 0 .27.07.49.21.65.13.18.34.26.61.26zM191.72 72.13c-.26 0-.49-.06-.69-.19-.2-.12-.36-.3-.47-.52-.11-.22-.17-.49-.17-.79a2.455 2.455 0 0 1 .49-1.49c.15-.2.34-.35.56-.47.22-.11.45-.17.71-.17.19 0 .37.03.52.1s.29.16.4.29c.11.13.18.28.22.46l.18-.78h.75l-.81 3.5h-.66l.12-.65c-.12.21-.28.39-.48.51-.2.13-.42.2-.67.2zm.26-.6c.15 0 .29-.04.42-.12.13-.08.25-.19.35-.33a1.9 1.9 0 0 0 .33-1.07c0-.19-.03-.35-.1-.49a.795.795 0 0 0-.28-.32.82.82 0 0 0-.42-.11.94.94 0 0 0-.47.12c-.14.08-.26.19-.36.33-.1.14-.18.3-.23.48-.06.18-.08.37-.08.56 0 .2.03.37.1.51.06.14.16.25.29.32.12.09.27.12.45.12zM194.8 69.16l.13-.59h2.48l-.13.59h-2.48zm1.28 2.97c-.24 0-.45-.04-.62-.14a.779.779 0 0 1-.36-.4c-.07-.18-.08-.39-.02-.64l.72-3.13.8-.22-.79 3.37c-.05.21-.02.35.08.44s.24.14.4.14a.847.847 0 0 0 .51-.15l.06.55c-.12.07-.25.13-.37.15-.13.01-.27.03-.41.03zM198.99 68.57l-.81 3.5h-.75l.81-3.5h.75zm-.18-.58c-.14 0-.25-.04-.34-.11a.374.374 0 0 1-.11-.31c0-.16.06-.29.15-.38.1-.09.22-.13.37-.13.14 0 .26.04.34.11.08.07.12.17.12.3-.01.17-.06.3-.16.39-.1.08-.22.13-.37.13zM201.08 72.13c-.33 0-.62-.07-.85-.21s-.42-.33-.55-.56c-.13-.24-.2-.51-.2-.8 0-.37.07-.71.22-1.03.15-.31.37-.56.65-.75s.63-.28 1.03-.28c.3 0 .56.06.77.18s.38.29.49.51.17.47.17.76c0 .09-.01.19-.02.29-.01.1-.03.2-.07.29h-2.82v-.57h2.41l-.27.2c.02-.06.03-.11.04-.16 0-.05.01-.1.01-.15 0-.15-.03-.29-.09-.4a.594.594 0 0 0-.26-.26.816.816 0 0 0-.4-.09c-.21 0-.39.04-.54.13-.15.09-.26.2-.35.35-.09.15-.15.31-.19.49-.04.18-.06.35-.06.52 0 .2.04.37.12.51.08.14.18.25.32.33s.3.12.49.12c.22 0 .4-.05.54-.14.14-.09.25-.21.33-.36l.6.32c-.09.16-.22.29-.37.41-.15.11-.32.2-.52.26s-.39.09-.63.09zM203.32 72.07l.81-3.5h.66l-.15.88-.07-.05c.1-.3.27-.52.52-.68.25-.15.52-.23.82-.23.26 0 .48.06.67.17.18.11.31.28.38.49.07.21.08.47.01.77l-.5 2.13h-.75l.49-2.1c.06-.27.03-.47-.08-.63s-.29-.23-.53-.23c-.19 0-.35.04-.5.13-.15.08-.27.21-.37.37-.1.16-.18.36-.24.61l-.43 1.85h-.74zM207.74 69.16l.13-.59h2.48l-.13.59h-2.48zm1.28 2.97c-.24 0-.45-.04-.62-.14a.779.779 0 0 1-.36-.4c-.07-.18-.08-.39-.02-.64l.72-3.13.8-.22-.79 3.37c-.05.21-.02.35.08.44s.24.14.4.14a.847.847 0 0 0 .51-.15l.06.55c-.12.07-.25.13-.37.15-.12.01-.26.03-.41.03zM214.24 72.15c-.27 0-.51-.04-.73-.12-.22-.08-.41-.19-.58-.34-.16-.15-.29-.32-.38-.52l.57-.34c.1.24.24.42.43.55s.42.19.68.19c.21 0 .38-.04.5-.13.12-.08.18-.2.18-.34 0-.1-.03-.19-.1-.25a.839.839 0 0 0-.3-.15l-.56-.17c-.31-.08-.54-.21-.68-.37a.841.841 0 0 1-.22-.58c0-.21.06-.4.17-.56.11-.16.27-.29.48-.38.21-.09.46-.14.74-.14.34 0 .64.07.9.21.26.14.45.34.57.61l-.54.36c-.05-.12-.12-.23-.22-.31s-.2-.16-.33-.21a1.07 1.07 0 0 0-.41-.08c-.23 0-.4.04-.51.12s-.17.18-.17.31c0 .12.04.21.13.27.09.06.19.11.31.15l.68.2c.24.07.43.18.57.33.14.15.2.33.2.54 0 .24-.06.44-.17.62-.12.17-.28.31-.49.4-.21.08-.45.13-.72.13zM217.66 72.13c-.26 0-.49-.06-.69-.19-.2-.12-.36-.3-.47-.52-.11-.22-.17-.49-.17-.79a2.455 2.455 0 0 1 .49-1.49c.15-.2.34-.35.56-.47.22-.11.45-.17.71-.17.19 0 .37.03.52.1s.29.16.4.29c.11.13.18.28.22.46l.18-.78h.75l-.81 3.5h-.66l.12-.65c-.12.21-.28.39-.48.51-.2.13-.42.2-.67.2zm.26-.6c.15 0 .29-.04.42-.12.13-.08.25-.19.35-.33a1.9 1.9 0 0 0 .33-1.07c0-.19-.03-.35-.1-.49a.795.795 0 0 0-.28-.32.82.82 0 0 0-.42-.11.94.94 0 0 0-.47.12c-.14.08-.26.19-.36.33-.1.14-.18.3-.23.48-.06.18-.08.37-.08.56 0 .2.03.37.1.51.06.14.16.25.29.32.12.09.27.12.45.12zM220.74 69.16l.13-.59h2.48l-.13.59h-2.48zm1.28 2.97c-.24 0-.45-.04-.62-.14a.779.779 0 0 1-.36-.4c-.07-.18-.08-.39-.02-.64l.72-3.13.8-.22-.79 3.37c-.05.21-.02.35.08.44s.24.14.4.14a.847.847 0 0 0 .51-.15l.06.55c-.12.07-.25.13-.37.15-.13.01-.27.03-.41.03zM224.93 68.57l-.81 3.5h-.75l.81-3.5h.75zm-.18-.58c-.14 0-.25-.04-.34-.11a.374.374 0 0 1-.11-.31c0-.16.06-.29.15-.38.1-.09.22-.13.37-.13.14 0 .26.04.34.11.08.07.12.17.12.3-.01.17-.06.3-.16.39-.1.08-.22.13-.37.13zM226.85 72.15c-.27 0-.51-.04-.73-.12-.22-.08-.41-.19-.58-.34-.16-.15-.29-.32-.38-.52l.57-.34c.1.24.24.42.43.55s.42.19.68.19c.21 0 .38-.04.5-.13.12-.08.18-.2.18-.34 0-.1-.03-.19-.1-.25a.839.839 0 0 0-.3-.15l-.56-.17c-.31-.08-.54-.21-.68-.37a.841.841 0 0 1-.22-.58c0-.21.06-.4.17-.56.11-.16.27-.29.48-.38.21-.09.46-.14.74-.14.34 0 .64.07.9.21.26.14.45.34.57.61l-.54.36c-.05-.12-.12-.23-.22-.31s-.2-.16-.33-.21a1.07 1.07 0 0 0-.41-.08c-.23 0-.4.04-.51.12s-.17.18-.17.31c0 .12.04.21.13.27.09.06.19.11.31.15l.68.2c.24.07.43.18.57.33.14.15.2.33.2.54 0 .24-.06.44-.17.62-.12.17-.28.31-.49.4-.2.08-.45.13-.72.13zM229.1 69.16l.14-.59h2.46l-.14.59h-2.46zm.02 2.91l.94-4.06c.06-.26.15-.46.27-.62.12-.15.27-.27.44-.34s.38-.11.61-.11c.14 0 .28.02.4.05.12.03.21.07.28.12l-.21.55c-.04-.03-.1-.05-.17-.08s-.16-.04-.25-.04c-.19 0-.34.04-.44.13-.1.09-.18.24-.22.46l-.11.5-.03.19-.75 3.25h-.76zM233.1 72.13c-.26 0-.49-.06-.69-.19-.2-.12-.36-.3-.47-.52-.11-.22-.17-.49-.17-.79a2.455 2.455 0 0 1 .49-1.49c.15-.2.34-.35.56-.47.22-.11.45-.17.71-.17.19 0 .37.03.52.1s.29.16.4.29c.11.13.18.28.22.46l.18-.78h.75l-.81 3.5h-.66l.12-.65c-.12.21-.28.39-.48.51-.21.13-.43.2-.67.2zm.26-.6c.15 0 .29-.04.42-.12.13-.08.25-.19.35-.33a1.9 1.9 0 0 0 .33-1.07c0-.19-.03-.35-.1-.49a.795.795 0 0 0-.28-.32.82.82 0 0 0-.42-.11.94.94 0 0 0-.47.12c-.14.08-.26.19-.36.33-.1.14-.18.3-.23.48-.06.18-.08.37-.08.56 0 .2.03.37.1.51.06.14.16.25.29.32.11.09.26.12.45.12zM237.71 72.13c-.34 0-.62-.07-.86-.21-.24-.14-.42-.33-.55-.57-.13-.24-.19-.51-.19-.8 0-.4.08-.75.23-1.05.16-.3.38-.55.66-.72.28-.18.61-.27 1-.27.28 0 .53.05.74.14.21.1.38.23.51.4s.21.37.23.59l-.75.15a.8.8 0 0 0-.2-.5c-.12-.13-.31-.2-.56-.2-.16 0-.31.04-.45.12-.14.08-.25.18-.35.31s-.18.29-.23.47-.08.37-.08.58c0 .19.04.35.1.5.07.15.17.26.3.35.13.08.3.13.49.13.16 0 .32-.05.46-.14s.25-.22.31-.4l.7.25c-.13.28-.32.5-.59.65s-.57.22-.92.22zM239.97 69.16l.13-.59h2.48l-.13.59h-2.48zm1.28 2.97c-.24 0-.45-.04-.62-.14a.779.779 0 0 1-.36-.4c-.07-.18-.08-.39-.02-.64l.72-3.13.8-.22-.79 3.37c-.05.21-.02.35.08.44s.24.14.4.14a.847.847 0 0 0 .51-.15l.06.55c-.12.07-.25.13-.37.15-.13.01-.27.03-.41.03zM244.16 68.57l-.81 3.5h-.75l.81-3.5h.75zm-.18-.58c-.14 0-.25-.04-.34-.11a.374.374 0 0 1-.11-.31c0-.16.06-.29.15-.38.1-.09.22-.13.37-.13.14 0 .26.04.34.11.08.07.12.17.12.3-.01.17-.06.3-.16.39-.09.08-.22.13-.37.13zM246.28 72.13c-.35 0-.64-.07-.88-.21a1.46 1.46 0 0 1-.56-.57c-.13-.24-.2-.5-.2-.79 0-.4.08-.75.23-1.06s.37-.55.65-.73c.28-.18.61-.27.98-.27.34 0 .64.07.88.21.24.14.42.33.55.57.13.24.19.5.19.8 0 .39-.08.74-.23 1.05-.15.31-.37.56-.65.74s-.58.26-.96.26zm.02-.58c.15 0 .3-.04.43-.11s.25-.18.35-.31c.1-.14.18-.29.23-.47s.08-.37.08-.58c0-.19-.03-.35-.09-.5s-.16-.26-.29-.35-.3-.13-.5-.13c-.15 0-.3.04-.43.11s-.25.18-.35.31c-.1.13-.17.29-.23.47s-.08.37-.08.58c0 .18.03.34.1.49.06.15.16.27.3.35.11.09.28.14.48.14zM248.63 72.07l.81-3.5h.66l-.15.88-.07-.05c.1-.3.27-.52.52-.68.25-.15.52-.23.82-.23.26 0 .48.06.67.17.18.11.31.28.38.49.07.21.08.47.01.77l-.5 2.13h-.75l.49-2.1c.06-.27.03-.47-.08-.63s-.29-.23-.53-.23c-.19 0-.35.04-.5.13-.15.08-.27.21-.37.37-.1.16-.18.36-.24.61l-.43 1.85h-.74zM24.82 81.07l-.32-3.5h.73l.19 2.71 1.4-2.71h.74l.29 2.75 1.4-2.75h.8l-1.9 3.5h-.82l-.31-2.59-1.36 2.59h-.84zM31.49 77.57l-.81 3.5h-.75l.81-3.5h.75zm-.17-.59c-.14 0-.25-.04-.34-.11a.374.374 0 0 1-.11-.31c0-.16.06-.29.15-.38.1-.09.22-.13.37-.13.14 0 .26.04.34.11.08.07.12.17.12.3-.01.17-.06.3-.16.39-.1.09-.22.13-.37.13zM32.05 78.16l.13-.59h2.48l-.13.59h-2.48zm1.28 2.96c-.24 0-.45-.04-.62-.14a.779.779 0 0 1-.36-.4c-.07-.18-.08-.39-.02-.64l.72-3.13.8-.22-.79 3.37c-.05.21-.02.35.08.44s.24.14.4.14a.847.847 0 0 0 .51-.15l.06.55c-.12.07-.25.13-.37.15-.13.02-.26.03-.41.03zM34.71 81.07L35.89 76h.75l-.53 2.3-.11.08a1.238 1.238 0 0 1 .75-.78c.18-.07.36-.11.57-.11.25 0 .47.06.65.17.18.11.31.28.39.49.08.21.08.46.02.76l-.5 2.15h-.75l.49-2.1c.06-.27.03-.47-.08-.63s-.29-.23-.53-.23c-.19 0-.35.04-.5.13-.15.08-.27.21-.37.37-.1.16-.18.36-.24.61l-.43 1.85h-.76zM43.55 81.14c-.37 0-.7-.08-1.01-.23s-.54-.38-.72-.67-.27-.66-.27-1.09c0-.36.05-.7.15-1.03.1-.33.26-.62.46-.88.21-.26.46-.47.76-.62.3-.15.65-.23 1.04-.23.31 0 .58.05.82.15.24.1.44.25.61.45.16.2.28.45.36.76l-.76.22c-.06-.33-.18-.56-.36-.71s-.42-.22-.71-.22c-.26 0-.49.06-.69.19-.2.12-.36.29-.5.48s-.23.42-.3.66c-.07.25-.1.49-.1.74 0 .29.05.54.16.74.11.21.26.36.45.48.19.11.41.17.65.17.28 0 .51-.06.67-.19s.3-.3.42-.51l.7.31c-.19.32-.43.57-.73.76-.29.17-.66.27-1.1.27zM47.7 81.13c-.35 0-.64-.07-.88-.21a1.46 1.46 0 0 1-.56-.57c-.13-.24-.2-.5-.2-.79 0-.4.08-.75.23-1.06s.37-.55.65-.73c.28-.18.61-.27.98-.27.34 0 .64.07.88.21.24.14.42.33.55.57.13.24.19.5.19.8 0 .39-.08.74-.23 1.05-.15.31-.37.56-.65.74s-.59.26-.96.26zm.02-.59c.15 0 .3-.04.43-.11s.25-.18.35-.31c.1-.14.18-.29.23-.47s.08-.37.08-.58c0-.19-.03-.35-.09-.5s-.16-.26-.29-.35-.3-.13-.5-.13c-.15 0-.3.04-.43.11s-.25.18-.35.31c-.1.13-.17.29-.23.47s-.08.37-.08.58c0 .18.03.34.1.49.06.15.16.27.3.35.11.1.28.14.48.14zM51.87 81.13c-.35 0-.64-.07-.88-.21a1.46 1.46 0 0 1-.56-.57c-.13-.24-.2-.5-.2-.79 0-.4.08-.75.23-1.06s.37-.55.65-.73c.28-.18.61-.27.98-.27.34 0 .64.07.88.21.24.14.42.33.55.57.13.24.19.5.19.8 0 .39-.08.74-.23 1.05-.15.31-.37.56-.65.74s-.59.26-.96.26zm.02-.59c.15 0 .3-.04.43-.11s.25-.18.35-.31c.1-.14.18-.29.23-.47s.08-.37.08-.58c0-.19-.03-.35-.09-.5s-.16-.26-.29-.35-.3-.13-.5-.13c-.15 0-.3.04-.43.11s-.25.18-.35.31c-.1.13-.17.29-.23.47s-.08.37-.08.58c0 .18.03.34.1.49.06.15.16.27.3.35.11.1.27.14.48.14zM55.27 81.12c-.35 0-.59-.1-.73-.31s-.17-.48-.09-.81l.93-4.01h.75l-.93 4.02c-.05.18-.04.31.03.4.07.08.19.12.36.12.07 0 .12 0 .17-.01.05 0 .09-.01.13-.02l-.16.55c-.07.03-.15.05-.21.06-.07.01-.15.01-.25.01zM58.59 81.13c-.34 0-.65-.05-.93-.15-.28-.1-.53-.25-.73-.44s-.37-.43-.49-.71l.61-.41c.09.25.21.46.37.61s.34.27.55.34.43.11.65.11c.21 0 .38-.03.51-.1a.71.71 0 0 0 .3-.26c.07-.11.1-.22.1-.34a.46.46 0 0 0-.15-.36c-.1-.09-.25-.16-.44-.21l-.72-.21c-.23-.07-.43-.16-.6-.28s-.29-.25-.38-.41c-.09-.16-.14-.33-.14-.53 0-.27.07-.51.22-.73.14-.21.35-.38.61-.5s.56-.18.91-.18c.46 0 .85.09 1.16.27.31.18.54.46.7.82l-.62.39c-.07-.22-.17-.4-.3-.51-.13-.12-.28-.2-.45-.25-.17-.05-.34-.07-.52-.07-.21 0-.38.03-.51.09s-.24.14-.31.24c-.07.1-.1.21-.1.34 0 .14.06.27.17.38.11.11.26.2.45.25l.78.24c.35.1.6.25.77.43.17.18.26.41.26.69 0 .3-.08.56-.23.77s-.36.38-.63.5-.55.18-.87.18zM62.67 81.13c-.34 0-.62-.07-.86-.21-.24-.14-.42-.33-.55-.57-.13-.24-.19-.51-.19-.8 0-.4.08-.75.23-1.05.16-.3.38-.55.66-.72.28-.18.61-.27 1-.27.28 0 .53.05.74.14.21.1.38.23.51.4s.21.37.23.59l-.75.15a.8.8 0 0 0-.2-.5c-.12-.13-.31-.2-.56-.2-.16 0-.31.04-.45.12-.14.08-.25.18-.35.31s-.18.29-.23.47-.08.37-.08.58c0 .19.04.35.1.5.07.15.17.26.3.35.13.08.3.13.49.13.16 0 .32-.05.46-.14s.25-.22.31-.4l.7.25c-.13.28-.32.5-.59.65s-.57.22-.92.22zM66 81.12c-.25 0-.47-.06-.66-.17-.19-.11-.32-.27-.41-.48s-.09-.46-.02-.76l.5-2.14h.75l-.48 2.08c-.07.28-.04.49.08.64.12.15.3.22.54.22.19 0 .35-.04.49-.12.14-.08.26-.2.36-.36.1-.16.17-.36.22-.6l.43-1.85h.75l-.81 3.5h-.66l.15-.88.07.06c-.09.29-.26.51-.49.66-.24.13-.51.2-.81.2zM69.91 81.12c-.35 0-.59-.1-.73-.31s-.17-.48-.09-.81l.93-4.01h.75l-.93 4.02c-.05.18-.04.31.03.4.07.08.19.12.36.12.07 0 .12 0 .17-.01.05 0 .09-.01.13-.02l-.16.55c-.07.03-.15.05-.21.06-.07.01-.15.01-.25.01zM70.7 82.54l1.15-4.97h.66l-.17.96-.08.05c.06-.22.15-.42.28-.57.13-.16.29-.28.48-.36.19-.08.39-.13.61-.13.24 0 .45.06.64.17s.34.29.45.51c.11.22.16.49.16.8 0 .29-.04.57-.13.83s-.21.49-.37.68c-.16.2-.34.35-.56.46-.21.11-.44.17-.7.17-.22 0-.42-.04-.59-.13a1.02 1.02 0 0 1-.42-.38c-.1-.17-.16-.36-.17-.59l.12-.11-.59 2.6h-.77zm2.31-2c.15 0 .3-.04.43-.12.14-.08.25-.18.36-.33.1-.14.18-.3.24-.48s.08-.37.08-.58c0-.2-.03-.37-.1-.51a.672.672 0 0 0-.29-.31.858.858 0 0 0-.43-.11c-.17 0-.32.04-.45.12-.14.08-.25.19-.35.33-.1.14-.18.3-.23.49-.05.19-.08.39-.08.59 0 .27.07.49.21.65.14.17.34.26.61.26zM75.49 78.16l.13-.59h2.48l-.13.59h-2.48zm1.28 2.96c-.24 0-.45-.04-.62-.14a.779.779 0 0 1-.36-.4c-.07-.18-.08-.39-.02-.64l.72-3.13.8-.22-.79 3.37c-.05.21-.02.35.08.44s.24.14.4.14a.847.847 0 0 0 .51-.15l.06.55c-.12.07-.25.13-.37.15-.13.02-.27.03-.41.03zM79.68 77.57l-.81 3.5h-.75l.81-3.5h.75zm-.18-.59c-.14 0-.25-.04-.34-.11a.374.374 0 0 1-.11-.31c0-.16.06-.29.15-.38.1-.09.22-.13.37-.13.14 0 .26.04.34.11.08.07.12.17.12.3-.01.17-.06.3-.16.39-.09.09-.22.13-.37.13zM79.99 81.07l.81-3.5h.66l-.15.88-.07-.05c.1-.3.27-.52.52-.68.25-.15.52-.23.82-.23.26 0 .48.06.67.17.18.11.31.28.38.49.07.21.08.47.01.77l-.5 2.13h-.75l.49-2.1c.06-.27.03-.47-.08-.63s-.29-.23-.53-.23c-.19 0-.35.04-.5.13-.15.08-.27.21-.37.37-.1.16-.18.36-.24.61l-.43 1.85h-.74zM85.53 82.57c-.2 0-.39-.03-.57-.08-.18-.05-.34-.13-.48-.23a1.205 1.205 0 0 1-.5-.86l.75-.18c.04.24.12.43.25.57.13.14.33.21.62.21.16 0 .31-.03.45-.09s.26-.16.37-.3.19-.34.25-.61l.2-.89.08-.06c-.07.29-.21.51-.43.68s-.48.25-.78.25c-.26 0-.49-.06-.7-.19s-.37-.3-.49-.53c-.12-.22-.18-.48-.18-.75 0-.29.04-.56.13-.8s.21-.46.36-.64c.16-.18.34-.33.56-.43.21-.1.45-.15.71-.15.22 0 .42.04.59.13.17.09.31.21.42.38.1.17.16.37.16.61l-.11.09.26-1.13h.75l-.8 3.44c-.08.38-.21.68-.39.91-.17.23-.39.39-.63.5-.26.1-.54.15-.85.15zm.47-2.18c.2 0 .38-.06.54-.19.16-.12.28-.29.37-.5.09-.21.14-.44.14-.7 0-.19-.03-.35-.1-.48a.766.766 0 0 0-.28-.31.858.858 0 0 0-.43-.11c-.22 0-.42.06-.58.18s-.29.28-.39.49c-.09.21-.14.44-.14.7 0 .27.08.49.23.67.14.16.36.25.64.25zM91.28 76.38c.49 0 .91.1 1.27.29.36.2.64.47.83.83.2.36.29.78.29 1.26s-.1.9-.29 1.26c-.2.36-.47.63-.83.83-.36.2-.78.29-1.27.29-.48 0-.91-.1-1.27-.29-.36-.2-.64-.47-.84-.83-.2-.36-.29-.78-.29-1.26s.1-.9.29-1.26c.2-.36.47-.63.84-.83.36-.19.78-.29 1.27-.29zm0 .5c-.38 0-.71.08-.99.23-.28.15-.5.37-.65.65-.15.28-.23.61-.23 1s.08.71.23 1c.15.28.37.5.65.65.28.15.61.23.99.23a2 2 0 0 0 .98-.23c.28-.15.49-.37.65-.65.15-.28.23-.61.23-1s-.08-.71-.23-1c-.15-.28-.37-.5-.65-.65-.28-.16-.6-.23-.98-.23zm-.39.59v2.57h-.54v-2.57h.54zm.57 0c.19 0 .35.04.5.1.14.07.26.17.34.29s.12.27.12.44c0 .26-.09.46-.27.61-.18.15-.42.22-.71.22h-.76v-.39h.73c.15 0 .26-.03.35-.1.08-.07.12-.17.12-.32s-.04-.25-.12-.32c-.08-.07-.2-.1-.35-.1h-.73v-.43h.78zm.2 1.38l.82 1.2h-.63l-.64-1.04.45-.16zM97.42 82.4c-.26-.36-.45-.77-.59-1.22s-.21-.92-.21-1.39c0-.4.05-.79.16-1.18s.26-.75.45-1.09a4.35 4.35 0 0 1 1.7-1.67l.29.41a4.097 4.097 0 0 0-1.69 2.23c-.15.46-.21.92-.21 1.4 0 .4.05.79.15 1.18.1.38.23.72.41 1.02l-.46.31zM98.64 81.07l.81-3.5h.66l-.15.88-.07-.05c.1-.3.27-.52.52-.68.25-.15.52-.23.82-.23.26 0 .48.06.67.17.18.11.31.28.38.49.07.21.08.47.01.77l-.5 2.13h-.75l.49-2.1c.06-.27.03-.47-.08-.63s-.29-.23-.53-.23c-.19 0-.35.04-.5.13-.15.08-.27.21-.37.37-.1.16-.18.36-.24.61l-.43 1.85h-.74zM106.48 79.32l-.14.62h-3.33l.14-.62h3.33zm.33-1.43l-.14.62h-3.33l.14-.62h3.33zM107.83 81.07l.71-3.06c.04-.14.07-.27.1-.39s.07-.23.1-.35c-.09.09-.22.17-.37.26a3.478 3.478 0 0 1-.95.34l.05-.69a4.982 4.982 0 0 0 1.11-.45c.18-.1.32-.19.42-.28h.63l-1.07 4.62h-.73zM111.78 81.13c-.34 0-.62-.07-.86-.22s-.42-.36-.55-.62c-.13-.27-.19-.58-.19-.94 0-.16.01-.32.03-.48.02-.16.04-.32.08-.47.06-.28.15-.54.27-.79.11-.25.26-.46.43-.65.17-.19.37-.33.6-.43s.49-.15.77-.15c.32 0 .6.07.83.22.23.15.4.35.53.62s.19.58.19.93c0 .16-.01.32-.03.47s-.04.31-.08.47c-.07.28-.16.54-.27.79s-.25.46-.42.65-.36.33-.57.44c-.24.11-.48.16-.76.16zm.04-.64c.21 0 .39-.07.55-.2.16-.13.29-.31.4-.54.11-.23.19-.48.26-.75.04-.15.07-.3.09-.45.02-.15.02-.29.02-.42 0-.39-.08-.68-.23-.85-.15-.18-.36-.27-.62-.27-.22 0-.41.07-.58.2s-.31.31-.42.54c-.11.23-.21.48-.28.77-.03.15-.06.3-.08.44-.02.15-.03.29-.03.42 0 .27.04.48.12.65.08.17.19.29.33.36.15.07.31.1.47.1zM116.3 81.14c-.37 0-.68-.08-.93-.22-.25-.15-.44-.36-.56-.63-.13-.27-.19-.59-.19-.95 0-.37.04-.73.13-1.08.09-.35.22-.67.41-.95.18-.28.41-.51.69-.67.28-.17.61-.25.99-.25.36 0 .67.09.94.26.27.17.44.44.51.81l-.7.25a.73.73 0 0 0-.27-.49.838.838 0 0 0-.54-.18c-.22 0-.42.06-.59.17-.17.11-.31.26-.43.44-.11.18-.21.38-.27.6-.07.22-.12.45-.14.68.08-.24.24-.42.48-.55.23-.13.48-.19.76-.19.41 0 .74.12.98.35s.36.54.36.93c0 .32-.07.6-.2.86-.13.25-.32.45-.56.6s-.54.21-.87.21zm.01-.63c.19 0 .35-.04.48-.13s.23-.2.29-.35c.06-.14.1-.3.1-.48 0-.22-.07-.41-.22-.56-.15-.15-.36-.22-.64-.22-.19 0-.35.04-.49.13s-.24.2-.3.34c-.07.14-.1.29-.1.44 0 .13.02.25.07.35a.785.785 0 0 0 .47.42c.1.03.21.06.34.06zM119.48 75.84c.26.36.45.77.59 1.22s.21.92.21 1.39c0 .4-.05.79-.16 1.18-.1.38-.26.75-.45 1.09-.2.34-.44.65-.72.94-.29.28-.61.53-.98.73l-.29-.41a4.097 4.097 0 0 0 1.69-2.23c.15-.46.21-.92.21-1.4 0-.4-.05-.79-.15-1.18-.1-.38-.23-.72-.41-1.02l.46-.31zM121.23 81.13c-.14 0-.25-.04-.34-.12s-.13-.18-.13-.32c0-.18.05-.32.16-.42.1-.1.24-.15.4-.15.14 0 .25.04.34.12.09.08.13.18.13.32 0 .18-.05.32-.15.42s-.25.15-.41.15z"/></svg>