<svg id="Layer_1" xmlns="http://www.w3.org/2000/svg" viewBox="0 0 728 90"><style>.st0{fill:#fff}</style><path class="st0" d="M368.72 29.61c0 .35-.28.63-.64.63s-.65-.28-.65-.63.29-.63.65-.63c.36 0 .64.28.64.63zm-1.13 0a.485.485 0 1 0 .97 0c0-.28-.21-.51-.49-.51a.5.5 0 0 0-.48.51zm.39.32h-.15v-.63c.06-.01.14-.02.24-.02.12 0 .17.02.21.05.04.03.07.07.07.13 0 .08-.06.13-.13.15v.01c.06.02.09.07.11.15.02.1.03.13.05.15h-.15c-.02-.02-.03-.08-.05-.15-.01-.07-.05-.1-.13-.1h-.07v.26zm0-.35h.07c.08 0 .15-.03.15-.09s-.04-.1-.13-.1c-.04 0-.07 0-.08.01v.18zM378.13 27.42c-3.13 0-4.64-2.28-4.64-4.47 0-2.53 1.82-4.56 4.69-4.56.97 0 1.98.3 2.78.97l-.89 1.24c-.55-.42-1.13-.58-1.84-.58-1.52 0-2.65 1.06-2.65 2.88 0 1.66 1.04 2.99 2.71 2.99.71 0 1.33-.21 1.88-.69l.81 1.24c-.78.66-1.84.98-2.85.98M385.79 27.42c-2.62 0-4.55-1.98-4.55-4.56 0-2.65 2.1-4.47 4.55-4.47 2.44 0 4.56 1.8 4.56 4.46.01 2.59-1.92 4.57-4.56 4.57m2.46-4.56c0-1.59-.78-2.97-2.46-2.97-1.65 0-2.46 1.38-2.46 2.95 0 1.63.76 3.08 2.46 3.08s2.46-1.44 2.46-3.08v.02zM395.67 27.42c-2.62 0-4.55-1.98-4.55-4.56 0-2.65 2.11-4.47 4.55-4.47s4.56 1.8 4.56 4.46c0 2.59-1.93 4.57-4.56 4.57m2.45-4.56c0-1.59-.78-2.97-2.46-2.97-1.65 0-2.46 1.38-2.46 2.95 0 1.63.76 3.08 2.46 3.08s2.46-1.44 2.46-3.08v.02zM401.26 27.21V14.54l1.96 1.08v11.59zM407.75 27.48c-2.21 0-3.27-1.06-3.27-1.06l.89-1.15s1.01.67 2.33.67c.64 0 1.17-.44 1.17-.88s-.2-.82-.78-1.11c-.58-.3-1.24-.62-1.75-.87s-1.64-1.01-1.64-2.5c0-1.5 1.52-2.33 3.08-2.33 1.49 0 2.62.97 2.62.97l-.76 1.17s-.85-.6-1.79-.6c-.94 0-1.13.6-1.13.85s.09.64.69.95c.6.32 1.22.66 2.11 1.15.88.49 1.38 1.34 1.38 2.3-.02.95-.94 2.44-3.15 2.44M416.19 27.42c-3.13 0-4.64-2.28-4.64-4.47 0-2.53 1.82-4.56 4.69-4.56.97 0 1.98.3 2.78.97l-.88 1.24c-.55-.42-1.13-.58-1.84-.58-1.52 0-2.65 1.06-2.65 2.88 0 1.66 1.04 2.99 2.71 2.99.71 0 1.33-.21 1.87-.69l.81 1.24c-.78.66-1.85.98-2.85.98M425.86 26.2s-.99 1.22-2.87 1.22c-2.21 0-3.29-1.61-3.29-3.24v-5.61h1.96v5.52c0 .95.74 1.75 1.89 1.75 1.01 0 2-1.2 2-1.2v-6.07h1.96v8.61l-1.65-.98zM429.28 27.21V14.54l1.96 1.08v11.59zM437.73 27.42c-1.73 0-2.72-.97-2.72-.97v4.3h-1.98V18.4l1.98 1.04s1.06-1.08 2.83-1.08c1.86 0 4.17 1.43 4.17 4.63 0 3.21-2.28 4.43-4.28 4.43m-.12-7.53c-1.68 0-2.65 1.57-2.65 1.57v3.25s1.11 1.26 2.72 1.26c1.88 0 2.28-2.25 2.28-3.03 0-.77-.18-3.05-2.35-3.05M447.18 27.44h-1.24c-1.56 0-2.09-1.5-2.09-2.49v-5.08h-1.56v-1.29h1.56v-3.81h1.94v3.81h2v1.29h-1.98v4.6c0 .51-.09 1.33.78 1.33h1.42l-.83 1.64zM450.33 17.09c-.71 0-1.29-.58-1.29-1.29 0-.71.59-1.29 1.29-1.29.71 0 1.29.58 1.29 1.29 0 .71-.58 1.29-1.29 1.29m-.97 1.49h1.93v8.63h-1.93v-8.63zM459.07 27.21v-5.52c0-.95-.74-1.75-1.89-1.75-1.01 0-2.14 1.2-2.14 1.2v6.07h-1.96V18.6l1.66.99s1.13-1.22 3.01-1.22c2.21 0 3.29 1.61 3.29 3.24v5.61h-1.97zM467.03 31.22c-.3 0-2.6-.03-2.6-.03l.03-1.57h1.93c1.87 0 2.94-1.01 2.94-2.39v-.78s-1.03.98-2.76.98c-2 0-4.28-1.22-4.28-4.43 0-3.2 2.32-4.63 4.18-4.63 1.77 0 2.83 1.08 2.83 1.08l1.98-.99v8.58c0 2.31-1.54 4.18-4.25 4.18m2.32-9.76s-.97-1.57-2.65-1.57c-2.18 0-2.35 2.28-2.35 3.06 0 .78.41 3.03 2.28 3.03 1.61 0 2.72-1.26 2.72-1.26v-3.26zM355.92 33.76v-5.64l1.1-1.11 3.2 3.19v1.08zM353.62 23.28L350 26.9l4.43 1.66 5.28-5.28zM355.4 18.24h-4.66l1.49 4.3h7.48zM360.23 15.94l-3.6-3.6-1.68 4.41 5.28 5.28zM371.11 27.59h-5.32l-4.31-4.31h7.47zM366.76 17.27l4.83 1.26-4.02 4.02h-6.09zM360.96 14.56l4.31-2.56v5.72l-4.31 4.31zM366.44 29.29L365.06 34l-7.51-7.52 3.04-3.04zM474.21 19.16c0 .51-.41.91-.93.91s-.94-.4-.94-.91.42-.91.94-.91.93.4.93.91zm-1.64 0c0 .4.31.73.71.73.39.01.69-.32.69-.72 0-.4-.3-.73-.71-.73-.39 0-.69.32-.69.72zm.56.47h-.21v-.91c.08-.01.2-.03.35-.03.17 0 .25.03.31.07.06.04.09.11.09.19 0 .11-.08.18-.19.22v.01c.09.03.13.1.16.22.03.14.05.19.07.22h-.22c-.03-.03-.04-.11-.07-.22-.02-.09-.07-.14-.19-.14h-.1v.37zm.01-.51h.1c.12 0 .21-.04.21-.13 0-.08-.06-.14-.19-.14-.06 0-.09.01-.12.01v.26z"/></svg>