<?xml version="1.0" encoding="utf-8"?>
<!-- Generator: Adobe Illustrator 25.4.1, SVG Export Plug-In . SVG Version: 6.00 Build 0)  -->
<svg version="1.1" id="Layer_1" xmlns="http://www.w3.org/2000/svg" xmlns:xlink="http://www.w3.org/1999/xlink" x="0px" y="0px"
	 viewBox="0 0 300 600" style="enable-background:new 0 0 300 600;" xml:space="preserve">
<style type="text/css">
	.st0{fill:#00A9E0;}
</style>
<g>
	<path class="st0" d="M80.78,118.39H76.8v-2.47h10.81v2.47h-3.98v30.26h-2.85V118.39z"/>
	<path class="st0" d="M91.55,115.92h3.75l4.13,32.72h-2.89l-0.95-8.11h-4.46l-0.95,8.11h-2.75L91.55,115.92z M95.29,138.07
		l-1.9-17.64H93.3l-1.9,17.64H95.29z"/>
	<path class="st0" d="M101.98,115.92h2.85v30.26h6.07v2.47h-8.92V115.92z"/>
	<path class="st0" d="M122.42,148.64l-6.07-16.5h-0.09v16.5h-2.85v-32.72h2.85v15.27h0.09l5.93-15.27h2.89l-6.12,15.6l6.4,17.12
		H122.42z"/>
	<path class="st0" d="M136.74,118.39h-3.98v-2.47h10.81v2.47h-3.98v30.26h-2.85V118.39z"/>
	<path class="st0" d="M145.51,143.19v-21.82c0-3.79,2.04-5.93,5.5-5.93c3.46,0,5.5,2.13,5.5,5.93v21.82c0,3.79-2.04,5.93-5.5,5.93
		C147.55,149.12,145.51,146.98,145.51,143.19z M153.67,142.71v-20.87c0-2.75-0.76-3.84-2.66-3.84c-1.94,0-2.66,1.09-2.66,3.84v20.87
		c0,2.75,0.71,3.84,2.66,3.84C152.91,146.56,153.67,145.47,153.67,142.71z"/>
	<path class="st0" d="M169.32,133.37l-4.6-17.45h2.94l3.13,12.95h0.09l3.13-12.95h2.75l-4.6,17.45v15.27h-2.84V133.37z"/>
	<path class="st0" d="M178.33,143.19v-21.82c0-3.79,2.04-5.93,5.5-5.93s5.5,2.13,5.5,5.93v21.82c0,3.79-2.04,5.93-5.5,5.93
		S178.33,146.98,178.33,143.19z M186.48,142.71v-20.87c0-2.75-0.76-3.84-2.66-3.84c-1.94,0-2.66,1.09-2.66,3.84v20.87
		c0,2.75,0.71,3.84,2.66,3.84C185.72,146.56,186.48,145.47,186.48,142.71z"/>
	<path class="st0" d="M192.69,143.38v-27.46h2.85v26.94c0,2.66,0.66,3.7,2.56,3.7c1.9,0,2.56-1.04,2.56-3.7v-26.94h2.75v27.46
		c0,3.65-1.99,5.74-5.36,5.74C194.69,149.12,192.69,147.03,192.69,143.38z"/>
	<path class="st0" d="M206.97,115.92h5.26c3.79,0,5.6,1.94,5.6,5.93v4.17c0,2.66-0.85,4.27-2.56,5.03v0.09
		c1.71,0.76,2.56,2.37,2.56,5.07v12.43h-2.85v-12.24c0-3.04-0.85-3.94-3.56-3.94h-1.61v16.17h-2.85V115.92z M211.9,130.01
		c2.37,0,3.08-0.9,3.08-3.94v-3.75c0-3.04-0.71-3.94-3.08-3.94h-2.09v11.62H211.9z"/>
	<path class="st0" d="M51.37,158.35h5.41c3.79,0,5.6,1.94,5.6,5.93v5.12c0,3.98-1.8,5.93-5.6,5.93h-2.56v15.75h-2.85V158.35z
		 M56.44,172.86c2.37,0,3.08-0.9,3.08-3.94v-4.17c0-3.04-0.71-3.94-3.08-3.94h-2.23v12.05H56.44z"/>
	<path class="st0" d="M65.21,158.35h5.26c3.79,0,5.6,1.94,5.6,5.93v4.17c0,2.66-0.85,4.27-2.56,5.03v0.09
		c1.71,0.76,2.56,2.37,2.56,5.07v12.43h-2.85v-12.24c0-3.04-0.85-3.94-3.56-3.94h-1.61v16.17h-2.85V158.35z M70.15,172.44
		c2.37,0,3.08-0.9,3.08-3.94v-3.75c0-3.04-0.71-3.94-3.08-3.94h-2.09v11.62H70.15z"/>
	<path class="st0" d="M79.3,185.62V163.8c0-3.79,2.04-5.93,5.5-5.93s5.5,2.13,5.5,5.93v21.82c0,3.79-2.04,5.93-5.5,5.93
		S79.3,189.41,79.3,185.62z M87.45,185.15v-20.87c0-2.75-0.76-3.84-2.66-3.84c-1.94,0-2.66,1.09-2.66,3.84v20.87
		c0,2.75,0.71,3.84,2.66,3.84C86.7,188.99,87.45,187.9,87.45,185.15z"/>
	<path class="st0" d="M92.58,158.35h2.89l2.99,27.51h0.09l2.99-27.51h2.7l-3.94,32.72h-3.79L92.58,158.35z"/>
	<path class="st0" d="M106.85,158.35h2.85v32.72h-2.85V158.35z"/>
	<path class="st0" d="M113.35,158.35h5.41c3.79,0,5.6,1.94,5.6,5.93v20.87c0,3.98-1.8,5.93-5.6,5.93h-5.41V158.35z M118.42,188.61
		c2.37,0,3.08-0.9,3.08-3.94v-19.92c0-3.04-0.71-3.94-3.08-3.94h-2.23v27.79H118.42z"/>
	<path class="st0" d="M127.76,158.35h9.39v2.47h-6.54v11.43h5.69v2.47h-5.69v13.9h6.54v2.47h-9.39V158.35z"/>
	<path class="st0" d="M139.85,158.35h5.26c3.79,0,5.6,1.94,5.6,5.93v4.17c0,2.66-0.85,4.27-2.56,5.03v0.09
		c1.71,0.76,2.56,2.37,2.56,5.07v12.43h-2.85v-12.24c0-3.04-0.85-3.94-3.56-3.94h-1.61v16.17h-2.85V158.35z M144.79,172.44
		c2.37,0,3.08-0.9,3.08-3.94v-3.75c0-3.04-0.71-3.94-3.08-3.94h-2.09v11.62H144.79z"/>
	<path class="st0" d="M163.09,158.35h3.75l4.13,32.72h-2.89l-0.95-8.11h-4.46l-0.95,8.11h-2.75L163.09,158.35z M166.84,180.5
		l-1.9-17.64h-0.09l-1.9,17.64H166.84z"/>
	<path class="st0" d="M173.52,158.35h5.26c3.79,0,5.6,1.94,5.6,5.93v3.94c0,2.66-0.81,4.27-2.47,5.03v0.09
		c1.8,0.76,2.66,2.37,2.66,5.12v6.69c0,3.98-1.8,5.93-5.6,5.93h-5.45V158.35z M178.45,172.25c2.37,0,3.08-0.9,3.08-3.89v-3.6
		c0-3.04-0.71-3.94-3.08-3.94h-2.09v11.43H178.45z M178.64,188.61c2.37,0,3.08-0.9,3.08-3.94v-6.02c0-3.04-0.71-3.94-3.08-3.94
		h-2.28v13.9H178.64z"/>
	<path class="st0" d="M187.61,185.62V163.8c0-3.79,2.04-5.93,5.5-5.93s5.5,2.13,5.5,5.93v21.82c0,3.79-2.04,5.93-5.5,5.93
		S187.61,189.41,187.61,185.62z M195.76,185.15v-20.87c0-2.75-0.76-3.84-2.66-3.84c-1.94,0-2.66,1.09-2.66,3.84v20.87
		c0,2.75,0.71,3.84,2.66,3.84C195,188.99,195.76,187.9,195.76,185.15z"/>
	<path class="st0" d="M201.97,185.81v-27.46h2.85v26.94c0,2.66,0.66,3.7,2.56,3.7c1.9,0,2.56-1.04,2.56-3.7v-26.94h2.75v27.46
		c0,3.65-1.99,5.74-5.36,5.74C203.97,191.55,201.97,189.46,201.97,185.81z"/>
	<path class="st0" d="M219.09,160.82h-3.98v-2.47h10.81v2.47h-3.98v30.26h-2.85V160.82z"/>
	<path class="st0" d="M237.4,158.35h3.75l4.12,32.72h-2.89l-0.95-8.11h-4.46l-0.95,8.11h-2.75L237.4,158.35z M241.14,180.5
		l-1.9-17.64h-0.09l-1.9,17.64H241.14z"/>
	<path class="st0" d="M72.93,200.78h5.41c3.79,0,5.6,1.94,5.6,5.93v5.12c0,3.98-1.8,5.93-5.6,5.93h-2.56v15.75h-2.85V200.78z
		 M78,215.29c2.37,0,3.08-0.9,3.08-3.94v-4.17c0-3.04-0.71-3.94-3.08-3.94h-2.23v12.05H78z"/>
	<path class="st0" d="M86.78,200.78h9.39v2.47h-6.54v11.43h5.69v2.47h-5.69v13.9h6.54v2.47h-9.39V200.78z"/>
	<path class="st0" d="M98.87,200.78h5.26c3.79,0,5.6,1.94,5.6,5.93v4.17c0,2.66-0.85,4.27-2.56,5.03V216
		c1.71,0.76,2.56,2.37,2.56,5.08v12.42h-2.85v-12.24c0-3.04-0.85-3.94-3.56-3.94h-1.61v16.17h-2.85V200.78z M103.8,214.87
		c2.37,0,3.08-0.9,3.08-3.94v-3.75c0-3.04-0.71-3.94-3.08-3.94h-2.09v11.62H103.8z"/>
	<path class="st0" d="M112.62,228.14v-5.74h2.75v5.22c0,2.7,0.76,3.79,2.66,3.79c1.94,0,2.7-1.09,2.7-3.79v-4.93
		c0-2.23-0.62-3.32-2.23-4.36l-2.51-1.61c-2.42-1.57-3.37-3.37-3.37-6.54v-4.22c0-3.6,1.94-5.64,5.31-5.64s5.31,2.04,5.31,5.64v4.22
		h-2.75v-3.75c0-2.56-0.71-3.56-2.51-3.56s-2.51,1-2.51,3.56v3.56c0,2.23,0.62,3.32,2.23,4.36l2.51,1.61
		c2.42,1.56,3.37,3.37,3.37,6.54v5.64c0,3.75-2.04,5.83-5.5,5.83S112.62,231.89,112.62,228.14z"/>
	<path class="st0" d="M126.42,228.05v-21.81c0-3.79,2.04-5.93,5.5-5.93s5.5,2.13,5.5,5.93v21.81c0,3.79-2.04,5.93-5.5,5.93
		S126.42,231.84,126.42,228.05z M134.58,227.58v-20.87c0-2.75-0.76-3.84-2.66-3.84c-1.94,0-2.66,1.09-2.66,3.84v20.87
		c0,2.75,0.71,3.84,2.66,3.84C133.82,231.42,134.58,230.33,134.58,227.58z"/>
	<path class="st0" d="M140.88,200.78h3.7l5.17,23.95h0.1v-23.95h2.56v32.72h-3.08l-5.79-26.98h-0.09v26.98h-2.56V200.78z"/>
	<path class="st0" d="M159.09,200.78h3.75l4.13,32.72h-2.89l-0.95-8.11h-4.46l-0.95,8.11h-2.75L159.09,200.78z M162.84,222.93
		l-1.9-17.64h-0.09l-1.9,17.64H162.84z"/>
	<path class="st0" d="M169.52,200.78h2.85v30.26h6.07v2.47h-8.92V200.78z"/>
	<path class="st0" d="M180.95,200.78h2.85v32.72h-2.85V200.78z"/>
	<path class="st0" d="M186.41,231.27l7.73-28.03h-7.26v-2.47h10.24v2.23l-7.73,28.03h7.73v2.47h-10.72V231.27z"/>
	<path class="st0" d="M199.78,200.78h9.39v2.47h-6.54v11.43h5.69v2.47h-5.69v13.9h6.54v2.47h-9.39V200.78z"/>
	<path class="st0" d="M211.87,200.78h5.41c3.79,0,5.6,1.94,5.6,5.93v20.87c0,3.98-1.8,5.93-5.6,5.93h-5.41V200.78z M216.94,231.04
		c2.37,0,3.08-0.9,3.08-3.94v-19.92c0-3.04-0.71-3.94-3.08-3.94h-2.23v27.79H216.94z"/>
	<path class="st0" d="M57.84,245.68h-3.98v-2.47h10.81v2.47h-3.98v30.26h-2.85V245.68z"/>
	<path class="st0" d="M67.18,243.21h5.26c3.79,0,5.6,1.94,5.6,5.93v4.17c0,2.66-0.85,4.27-2.56,5.03v0.09
		c1.71,0.76,2.56,2.37,2.56,5.08v12.42h-2.85V263.7c0-3.04-0.85-3.94-3.56-3.94h-1.61v16.17h-2.85V243.21z M72.11,257.29
		c2.37,0,3.08-0.9,3.08-3.94v-3.75c0-3.04-0.71-3.94-3.08-3.94h-2.09v11.62H72.11z"/>
	<path class="st0" d="M81.45,243.21h9.39v2.47H84.3v11.43h5.69v2.47H84.3v13.9h6.54v2.47h-9.39V243.21z"/>
	<path class="st0" d="M96.72,243.21h3.75l4.13,32.72h-2.89l-0.95-8.11h-4.46l-0.95,8.11h-2.75L96.72,243.21z M100.47,265.36
		l-1.9-17.64h-0.09l-1.9,17.64H100.47z"/>
	<path class="st0" d="M108.39,245.68h-3.98v-2.47h10.81v2.47h-3.98v30.26h-2.85V245.68z"/>
	<path class="st0" d="M117.73,243.21h4.51l3.65,24.14h0.09l3.65-24.14h4.69v32.72h-2.85v-29.26h-0.09l-4.41,29.26h-2.23l-4.41-29.26
		h-0.09v29.26h-2.51V243.21z"/>
	<path class="st0" d="M137.98,243.21h9.39v2.47h-6.54v11.43h5.69v2.47h-5.69v13.9h6.54v2.47h-9.39V243.21z"/>
	<path class="st0" d="M150.07,243.21h3.7l5.17,23.95h0.09v-23.95h2.56v32.72h-3.08l-5.79-26.98h-0.1v26.98h-2.56V243.21z"/>
	<path class="st0" d="M168.09,245.68h-3.98v-2.47h10.81v2.47h-3.98v30.26h-2.85V245.68z"/>
	<path class="st0" d="M183.36,243.21h5.41c3.79,0,5.6,1.94,5.6,5.93v5.12c0,3.98-1.8,5.93-5.6,5.93h-2.56v15.75h-2.85V243.21z
		 M188.43,257.72c2.37,0,3.08-0.9,3.08-3.94v-4.17c0-3.04-0.71-3.94-3.08-3.94h-2.23v12.05H188.43z"/>
	<path class="st0" d="M197.2,243.21h2.85v30.26h6.07v2.47h-8.92V243.21z"/>
	<path class="st0" d="M211.81,243.21h3.75l4.12,32.72h-2.89l-0.95-8.11h-4.46l-0.95,8.11h-2.75L211.81,243.21z M215.56,265.36
		l-1.9-17.64h-0.09l-1.9,17.64H215.56z"/>
	<path class="st0" d="M222.24,243.21h3.7l5.17,23.95h0.09v-23.95h2.56v32.72h-3.08l-5.79-26.98h-0.1v26.98h-2.56V243.21z"/>
	<path class="st0" d="M237.42,272.04h3.18v3.89h-3.18V272.04z"/>
</g>
</svg>
