<?xml version="1.0" encoding="utf-8"?>
<!-- Generator: Adobe Illustrator 25.4.1, SVG Export Plug-In . SVG Version: 6.00 Build 0)  -->
<svg version="1.1" id="Layer_1" xmlns="http://www.w3.org/2000/svg" xmlns:xlink="http://www.w3.org/1999/xlink" x="0px" y="0px"
	 viewBox="0 0 300 600" style="enable-background:new 0 0 300 600;" xml:space="preserve">
<style type="text/css">
	.st0{fill:#BDD6E6;}
	.st1{fill:#00A9E0;}
</style>
<g>
	<path class="st0" d="M97.61,121.22v22.21c0,3.6-1.94,5.63-5.35,5.63c-3.36,0-5.3-2.04-5.3-5.63v-3.17h2.7v2.65
		c0,2.65,0.76,3.69,2.56,3.69c1.8,0,2.6-1.04,2.6-3.69v-9h-0.09c-0.81,1.23-1.99,1.85-3.6,1.85c-2.7,0-4.26-1.85-4.26-5.02v-9.52
		c0-3.69,1.94-5.78,5.35-5.78C95.63,115.44,97.61,117.53,97.61,121.22z M89.66,121.6v8.85c0,1.94,0.71,2.84,2.18,2.84
		c1.85,0,2.98-1.52,2.98-4.07v-7.62c0-2.65-0.76-3.69-2.6-3.69C90.37,117.9,89.66,118.95,89.66,121.6z"/>
	<path class="st0" d="M107.27,143.14v-21.78c0-3.79,2.04-5.92,5.49-5.92s5.49,2.13,5.49,5.92v21.78c0,3.79-2.04,5.92-5.49,5.92
		S107.27,146.93,107.27,143.14z M115.41,142.67v-20.83c0-2.75-0.76-3.84-2.65-3.84c-1.94,0-2.65,1.09-2.65,3.84v20.83
		c0,2.75,0.71,3.83,2.65,3.83C114.66,146.5,115.41,145.41,115.41,142.67z"/>
	<path class="st0" d="M121.85,143.33v-27.41h2.84v26.89c0,2.65,0.66,3.69,2.56,3.69s2.56-1.04,2.56-3.69v-26.89h2.75v27.41
		c0,3.65-1.99,5.73-5.35,5.73S121.85,146.98,121.85,143.33z"/>
	<path class="st0" d="M139.18,118.38h-3.98v-2.46H146v2.46h-3.98v30.21h-2.84V118.38z"/>
	<path class="st0" d="M154.71,143.14v-21.78c0-3.79,2.04-5.92,5.49-5.92s5.49,2.13,5.49,5.92v21.78c0,3.79-2.04,5.92-5.49,5.92
		S154.71,146.93,154.71,143.14z M162.85,142.67v-20.83c0-2.75-0.76-3.84-2.65-3.84c-1.94,0-2.65,1.09-2.65,3.84v20.83
		c0,2.75,0.71,3.83,2.65,3.83C162.09,146.5,162.85,145.41,162.85,142.67z"/>
	<path class="st0" d="M169.38,115.92h9.38v2.46h-6.53v11.88h5.68v2.46h-5.68v15.86h-2.84V115.92z"/>
	<path class="st0" d="M190.69,119.14l-4.17,2.56v-2.65l5.21-3.22h1.75v32.76h-2.79V119.14z"/>
	<path class="st0" d="M197.17,143.28v-22.06c0-3.69,1.94-5.78,5.35-5.78s5.35,2.08,5.35,5.78v22.06c0,3.69-1.94,5.78-5.35,5.78
		S197.17,146.98,197.17,143.28z M205.08,142.9V121.6c0-2.65-0.71-3.69-2.56-3.69s-2.56,1.04-2.56,3.69v21.31
		c0,2.65,0.71,3.69,2.56,3.69S205.08,145.56,205.08,142.9z"/>
	<path class="st1" d="M35.27,158.27h5.4c3.79,0,5.59,1.94,5.59,5.92v5.11c0,3.98-1.8,5.92-5.59,5.92h-2.56v15.72h-2.84V158.27z
		 M40.34,172.76c2.37,0,3.08-0.9,3.08-3.93v-4.17c0-3.03-0.71-3.93-3.08-3.93h-2.23v12.03H40.34z"/>
	<path class="st1" d="M50.94,158.27h3.74l4.12,32.67h-2.89l-0.95-8.1h-4.45l-0.95,8.1h-2.75L50.94,158.27z M54.68,180.39
		l-1.89-17.61h-0.09l-1.89,17.61H54.68z"/>
	<path class="st1" d="M62.82,160.74h-3.98v-2.46h10.8v2.46h-3.98v30.21h-2.84V160.74z"/>
	<path class="st1" d="M72.39,158.27h2.84v32.67h-2.84V158.27z"/>
	<path class="st1" d="M79.11,158.27h9.38v2.46h-6.53v11.41h5.68v2.46h-5.68v13.87h6.53v2.46h-9.38V158.27z"/>
	<path class="st1" d="M91.42,158.27h3.69l5.16,23.91h0.09v-23.91h2.56v32.67h-3.08L94.07,164h-0.09v26.94h-2.56V158.27z"/>
	<path class="st1" d="M109.65,160.74h-3.98v-2.46h10.8v2.46h-3.98v30.21h-2.84V160.74z"/>
	<path class="st1" d="M118.69,185.59v-5.73h2.75v5.21c0,2.7,0.76,3.79,2.65,3.79c1.94,0,2.7-1.09,2.7-3.79v-4.92
		c0-2.23-0.62-3.31-2.23-4.36l-2.51-1.61c-2.42-1.56-3.36-3.36-3.36-6.53v-4.21c0-3.6,1.94-5.63,5.3-5.63c3.36,0,5.3,2.04,5.3,5.63
		v4.21h-2.75v-3.74c0-2.56-0.71-3.55-2.51-3.55c-1.8,0-2.51,0.99-2.51,3.55v3.55c0,2.23,0.62,3.31,2.23,4.36l2.51,1.61
		c2.41,1.56,3.36,3.36,3.36,6.53v5.63c0,3.74-2.04,5.82-5.49,5.82C120.68,191.42,118.69,189.33,118.69,185.59z"/>
	<path class="st1" d="M139.04,158.27h3.69l5.16,23.91h0.09v-23.91h2.56v32.67h-3.08L141.69,164h-0.09v26.94h-2.56V158.27z"/>
	<path class="st1" d="M154.24,185.5v-21.78c0-3.79,2.04-5.92,5.49-5.92s5.49,2.13,5.49,5.92v21.78c0,3.79-2.04,5.92-5.49,5.92
		S154.24,189.29,154.24,185.5z M162.38,185.03v-20.83c0-2.75-0.76-3.84-2.65-3.84c-1.94,0-2.65,1.09-2.65,3.84v20.83
		c0,2.75,0.71,3.84,2.65,3.84C161.62,188.86,162.38,187.77,162.38,185.03z"/>
	<path class="st1" d="M171.38,160.74h-3.98v-2.46h10.8v2.46h-3.98v30.21h-2.84V160.74z"/>
	<path class="st1" d="M180.94,158.27h2.84v32.67h-2.84V158.27z"/>
	<path class="st1" d="M187.47,185.78v-22.35c0-3.6,1.89-5.63,5.3-5.63c3.46,0,5.35,2.04,5.35,5.63v5.35h-2.7v-4.88
		c0-2.56-0.76-3.55-2.56-3.55c-1.85,0-2.56,0.99-2.56,3.55v21.4c0,2.56,0.71,3.55,2.56,3.55c1.8,0,2.56-0.99,2.56-3.55v-6.58h2.7
		v7.05c0,3.6-1.89,5.63-5.35,5.63C189.37,191.42,187.47,189.38,187.47,185.78z"/>
	<path class="st1" d="M201.49,158.27h9.38v2.46h-6.53v11.41h5.68v2.46h-5.68v13.87h6.53v2.46h-9.38V158.27z"/>
	<path class="st1" d="M213.79,158.27h5.4c3.79,0,5.59,1.94,5.59,5.92v20.83c0,3.98-1.8,5.92-5.59,5.92h-5.4V158.27z M218.86,188.48
		c2.37,0,3.08-0.9,3.08-3.93v-19.89c0-3.03-0.71-3.93-3.08-3.93h-2.23v27.75H218.86z"/>
	<path class="st1" d="M237.61,158.27h3.74l4.12,32.67h-2.89l-0.95-8.1h-4.45l-0.95,8.1h-2.75L237.61,158.27z M241.35,180.39
		l-1.89-17.61h-0.09l-1.89,17.61H241.35z"/>
	<path class="st1" d="M248.26,158.27h3.69l5.16,23.91h0.09v-23.91h2.56v32.67h-3.08L250.91,164h-0.09v26.94h-2.56V158.27z"/>
	<path class="st1" d="M45.37,241h2.84v32.67h-2.84V241z"/>
	<path class="st1" d="M52.09,241h3.69l5.16,23.91h0.09V241h2.56v32.67h-3.08l-5.78-26.94h-0.09v26.94h-2.56V241z"/>
	<path class="st1" d="M73.63,241h2.84v13.87h5.35V241h2.84v32.67h-2.84v-16.33h-5.35v16.33h-2.84V241z"/>
	<path class="st1" d="M88.35,268.22v-21.78c0-3.79,2.04-5.92,5.49-5.92s5.49,2.13,5.49,5.92v21.78c0,3.79-2.04,5.92-5.49,5.92
		S88.35,272.01,88.35,268.22z M96.5,267.75v-20.83c0-2.75-0.76-3.83-2.65-3.83c-1.94,0-2.65,1.09-2.65,3.83v20.83
		c0,2.75,0.71,3.84,2.65,3.84C95.74,271.59,96.5,270.5,96.5,267.75z"/>
	<path class="st1" d="M101.85,241h2.89l2.46,26.47h0.09l2.84-26.47h2.84l2.84,26.47h0.09l2.46-26.47h2.65l-3.55,32.67h-3.27
		l-2.65-24.38h-0.09l-2.65,24.38h-3.41L101.85,241z"/>
	<path class="st1" d="M128.97,241h2.89l2.46,26.47h0.09l2.84-26.47h2.84l2.84,26.47h0.09L145.5,241h2.65l-3.55,32.67h-3.27
		l-2.65-24.38h-0.09l-2.65,24.38h-3.41L128.97,241z"/>
	<path class="st1" d="M150.99,241h9.37v2.46h-6.53v11.41h5.68v2.46h-5.68v13.87h6.53v2.46h-9.37V241z"/>
	<path class="st1" d="M163.3,241h2.84v30.21h6.06v2.46h-8.9V241z"/>
	<path class="st1" d="M174.94,241h2.84v30.21h6.06v2.46h-8.9V241z"/>
	<path class="st1" d="M195.58,243.46h-3.98V241h10.8v2.46h-3.98v30.21h-2.84V243.46z"/>
	<path class="st1" d="M205.14,241h2.84v13.87h5.35V241h2.84v32.67h-2.84v-16.33h-5.35v16.33h-2.84V241z"/>
	<path class="st1" d="M220.06,241h9.38v2.46h-6.53v11.41h5.68v2.46h-5.68v13.87h6.53v2.46h-9.38V241z"/>
	<path class="st1" d="M232.37,241h2.84v32.67h-2.84V241z"/>
	<path class="st1" d="M239.09,241h5.26c3.79,0,5.59,1.94,5.59,5.92v4.17c0,2.65-0.85,4.26-2.56,5.02v0.09
		c1.7,0.76,2.56,2.37,2.56,5.07v12.41h-2.84v-12.22c0-3.03-0.85-3.93-3.55-3.93h-1.61v16.15h-2.84V241z M244.01,255.06
		c2.37,0,3.08-0.9,3.08-3.93v-3.74c0-3.03-0.71-3.93-3.08-3.93h-2.08v11.6H244.01z"/>
	<path class="st1" d="M53.92,310.87v-22.35c0-3.6,1.89-5.63,5.3-5.63c3.46,0,5.35,2.04,5.35,5.63v5.35h-2.7v-4.88
		c0-2.56-0.76-3.55-2.56-3.55c-1.85,0-2.56,0.99-2.56,3.55v21.4c0,2.56,0.71,3.55,2.56,3.55c1.8,0,2.56-0.99,2.56-3.55v-6.58h2.7
		v7.05c0,3.6-1.89,5.63-5.35,5.63C55.81,316.5,53.92,314.47,53.92,310.87z"/>
	<path class="st1" d="M67.93,283.36h2.84v30.21h6.06v2.46h-8.9V283.36z"/>
	<path class="st1" d="M79.01,310.58V288.8c0-3.79,2.04-5.92,5.49-5.92c3.46,0,5.49,2.13,5.49,5.92v21.78c0,3.79-2.04,5.92-5.49,5.92
		C81.05,316.5,79.01,314.37,79.01,310.58z M87.15,310.11v-20.83c0-2.75-0.76-3.83-2.65-3.83c-1.94,0-2.65,1.09-2.65,3.83v20.83
		c0,2.75,0.71,3.84,2.65,3.84C86.4,313.95,87.15,312.86,87.15,310.11z"/>
	<path class="st1" d="M96.15,285.82h-3.98v-2.46h10.8v2.46h-3.98v30.21h-2.84V285.82z"/>
	<path class="st1" d="M105.71,283.36h2.84v13.87h5.35v-13.87h2.84v32.67h-2.84v-16.33h-5.35v16.33h-2.84V283.36z"/>
	<path class="st1" d="M120.62,283.36H130v2.46h-6.53v11.41h5.68v2.46h-5.68v13.87H130v2.46h-9.38V283.36z"/>
	<path class="st1" d="M132.51,310.68v-5.73h2.75v5.21c0,2.7,0.76,3.79,2.65,3.79c1.94,0,2.7-1.09,2.7-3.79v-4.92
		c0-2.23-0.62-3.31-2.23-4.36l-2.51-1.61c-2.42-1.56-3.36-3.36-3.36-6.53v-4.21c0-3.6,1.94-5.63,5.3-5.63c3.36,0,5.3,2.04,5.3,5.63
		v4.21h-2.75v-3.74c0-2.56-0.71-3.55-2.51-3.55c-1.8,0-2.51,0.99-2.51,3.55v3.55c0,2.23,0.62,3.31,2.23,4.36l2.51,1.61
		c2.41,1.56,3.36,3.36,3.36,6.53v5.63c0,3.74-2.04,5.82-5.49,5.82C134.49,316.5,132.51,314.42,132.51,310.68z"/>
	<path class="st1" d="M152.86,283.36h9.38v2.46h-6.53v11.88h5.68v2.46h-5.68v15.86h-2.84V283.36z"/>
	<path class="st1" d="M164.98,283.36h2.84v32.67h-2.84V283.36z"/>
	<path class="st1" d="M174.54,285.82h-3.98v-2.46h10.8v2.46h-3.98v30.21h-2.84V285.82z"/>
	<path class="st1" d="M190.07,310.58V288.8c0-3.79,2.04-5.92,5.49-5.92s5.49,2.13,5.49,5.92v21.78c0,3.79-2.04,5.92-5.49,5.92
		S190.07,314.37,190.07,310.58z M198.22,310.11v-20.83c0-2.75-0.76-3.83-2.65-3.83c-1.94,0-2.65,1.09-2.65,3.83v20.83
		c0,2.75,0.71,3.84,2.65,3.84C197.46,313.95,198.22,312.86,198.22,310.11z"/>
	<path class="st1" d="M203.56,283.36h2.89l2.98,27.46h0.09l2.98-27.46h2.7l-3.93,32.67h-3.79L203.56,283.36z"/>
	<path class="st1" d="M218.05,283.36h9.38v2.46h-6.53v11.41h5.68v2.46h-5.68v13.87h6.53v2.46h-9.38V283.36z"/>
	<path class="st1" d="M230.36,283.36h5.26c3.79,0,5.59,1.94,5.59,5.92v4.17c0,2.65-0.85,4.26-2.56,5.02v0.09
		c1.7,0.76,2.56,2.37,2.56,5.07v12.41h-2.84v-12.22c0-3.03-0.85-3.93-3.55-3.93h-1.61v16.15h-2.84V283.36z M235.28,297.42
		c2.37,0,3.08-0.9,3.08-3.93v-3.74c0-3.03-0.71-3.93-3.08-3.93h-2.08v11.6H235.28z"/>
	<path class="st1" d="M64.19,328.18h-3.98v-2.46h10.8v2.46h-3.98v30.21h-2.84V328.18z"/>
	<path class="st1" d="M73.75,325.72h5.26c3.79,0,5.59,1.94,5.59,5.92v4.17c0,2.65-0.85,4.26-2.56,5.02v0.09
		c1.7,0.76,2.56,2.37,2.56,5.07v12.41h-2.84v-12.22c0-3.03-0.85-3.93-3.55-3.93H76.6v16.15h-2.84V325.72z M78.68,339.78
		c2.37,0,3.08-0.9,3.08-3.93v-3.74c0-3.03-0.71-3.93-3.08-3.93H76.6v11.6H78.68z"/>
	<path class="st1" d="M88.24,325.72h9.38v2.46h-6.53v11.41h5.68v2.46h-5.68v13.87h6.53v2.46h-9.38V325.72z"/>
	<path class="st1" d="M103.72,325.72h3.74l4.12,32.67h-2.89l-0.95-8.1h-4.45l-0.95,8.1H99.6L103.72,325.72z M107.46,347.83
		l-1.89-17.61h-0.09l-1.89,17.61H107.46z"/>
	<path class="st1" d="M115.6,328.18h-3.98v-2.46h10.8v2.46h-3.98v30.21h-2.84V328.18z"/>
	<path class="st1" d="M125.17,325.72h9.38v2.46h-6.53v11.41h5.68v2.46h-5.68v13.87h6.53v2.46h-9.38V325.72z"/>
	<path class="st1" d="M137.48,325.72h5.4c3.79,0,5.59,1.94,5.59,5.92v20.83c0,3.98-1.8,5.92-5.59,5.92h-5.4V325.72z M142.54,355.92
		c2.37,0,3.08-0.9,3.08-3.93v-19.89c0-3.03-0.71-3.93-3.08-3.93h-2.23v27.75H142.54z"/>
	<path class="st1" d="M161.29,325.72h3.74l4.12,32.67h-2.89l-0.95-8.1h-4.45l-0.95,8.1h-2.75L161.29,325.72z M165.03,347.83
		l-1.89-17.61h-0.09l-1.89,17.61H165.03z"/>
	<path class="st1" d="M171.94,325.72h5.26c3.79,0,5.59,1.94,5.59,5.92v4.17c0,2.65-0.85,4.26-2.56,5.02v0.09
		c1.7,0.76,2.56,2.37,2.56,5.07v12.41h-2.84v-12.22c0-3.03-0.85-3.93-3.55-3.93h-1.61v16.15h-2.84V325.72z M176.86,339.78
		c2.37,0,3.08-0.9,3.08-3.93v-3.74c0-3.03-0.71-3.93-3.08-3.93h-2.08v11.6H176.86z"/>
	<path class="st1" d="M186.43,325.72h9.38v2.46h-6.53v11.41h5.68v2.46h-5.68v13.87h6.53v2.46h-9.38V325.72z"/>
	<path class="st1" d="M201.91,325.72h3.74l4.12,32.67h-2.89l-0.95-8.1h-4.45l-0.95,8.1h-2.75L201.91,325.72z M205.65,347.83
		l-1.89-17.61h-0.09l-1.89,17.61H205.65z"/>
	<path class="st1" d="M212.04,353.04v-5.73h2.75v5.21c0,2.7,0.76,3.79,2.65,3.79c1.94,0,2.7-1.09,2.7-3.79v-4.92
		c0-2.23-0.62-3.31-2.22-4.36l-2.51-1.61c-2.42-1.56-3.36-3.36-3.36-6.53v-4.21c0-3.6,1.94-5.63,5.3-5.63c3.36,0,5.3,2.04,5.3,5.63
		v4.21h-2.75v-3.74c0-2.56-0.71-3.55-2.51-3.55c-1.8,0-2.51,0.99-2.51,3.55v3.55c0,2.23,0.62,3.31,2.22,4.36l2.51,1.61
		c2.42,1.56,3.36,3.36,3.36,6.53v5.63c0,3.74-2.04,5.82-5.49,5.82C214.03,358.86,212.04,356.78,212.04,353.04z"/>
	<path class="st1" d="M226.24,354.5h3.17v3.88h-3.17V354.5z"/>
	<path class="st1" d="M231.15,328.1l-2.37,1.49l-0.63-1.05l2.48-1.33l-2.48-1.3l0.63-1.05l2.37,1.49l-0.14-2.79h1.24l-0.14,2.79
		l2.37-1.49l0.63,1.05l-2.48,1.33l2.48,1.3l-0.63,1.05l-2.37-1.49l0.14,2.79h-1.24L231.15,328.1z"/>
</g>
<g>
	<path class="st0" d="M57.44,216.92c0.85-1.69,1.78-3.3,2.97-4.66c0.08-0.08,0.25-0.25,0.34-0.34c0.34-0.17,0.68-0.08,1.02,0.17
		c0.25,0.25,0.42,0.68,0.25,1.02c-0.08,0.08-0.17,0.25-0.25,0.34c-1.78,2.54-3.9,6.44-3.98,9.07c0,0.59,0.25,0.76,0.68,0.68
		c0.68-0.17,1.27-0.51,1.78-0.85c2.63-1.95,5-4.15,7.2-6.35c1.86,0.17,1.52,1.27,0.93,1.78c-2.37,2.2-4.49,4.41-6.95,6.18
		c-0.76,0.51-1.61,0.93-2.63,1.1c-1.44,0.17-2.63-0.76-2.8-2.2C55.74,220.73,56.67,218.7,57.44,216.92z M63.11,208.62
		c-0.51,0-0.93-0.42-1.02-0.85c0-0.51,0.42-0.93,1.02-0.93c0.42,0,0.76,0.34,0.85,0.76C64.04,208.2,63.62,208.62,63.11,208.62z"/>
	<path class="st0" d="M97.68,217.77c-2.37,2.37-4.74,4.83-7.29,6.95c-1.27,1.1-3.64,3.05-5.25,3.3c-1.36,0.25-2.2-0.85-2.12-2.12
		c0.17-3.47,2.03-5.93,3.64-8.81c-1.95,1.02-4.07,2.8-5.76,4.15c-1.86,1.36-4.15,3.64-6.01,4.32c-1.19,0.42-2.12-0.42-2.03-1.61
		c0.25-1.27,0.68-2.46,1.27-3.73c0.76-1.69,1.61-3.39,2.2-5.25c0.08-0.42,0.34-0.93,0.34-1.69c-1.61,0.85-2.97,1.86-4.24,3.3
		c-2.71,2.71-4.91,5.76-7.03,8.9c-0.68,1.02-1.36,1.95-2.03,2.96c-0.42,0.68-0.85,0.93-1.61,0.59c-0.34-0.17-0.51-0.51-0.51-0.85
		c0-0.76,0.51-1.61,0.85-2.37c1.52-3.05,3.22-6.1,4.91-9.15c1.36-2.46,2.71-5,4.24-7.96c0.25-0.51,0.59-0.68,1.02-0.59
		c0.68,0.17,0.76,0.93,0.51,1.53c-1.1,2.8-2.54,5.25-4.07,8.22c1.69-1.86,3.47-3.81,5.76-5.59c1.36-1.02,3.9-1.61,4.07,0.93
		c0.17,2.71-2.71,8.39-3.73,10.25c1.36-0.85,2.88-2.03,4.41-3.3c2.37-1.95,6.44-5,7.88-5.51c1.02-0.34,1.86,0.34,1.78,1.44
		c0,1.19-0.76,2.29-1.36,3.39c-0.93,1.78-1.78,3.56-2.37,5.42c-0.08,0.42-0.25,0.76-0.25,1.36c0.42-0.17,0.76-0.34,1.02-0.51
		c0.93-0.68,1.95-1.36,2.8-2.12c2.88-2.37,5.34-5.08,8.13-7.62C98.78,216.58,97.85,217.6,97.68,217.77z"/>
	<path class="st0" d="M110.13,209.89c1.61-0.17,3.73,0.59,4.24,3.05c0.34,1.86-0.34,3.81-1.1,5.34c2.29,0,4.66-0.93,6.86-2.03
		c0.17-0.08,0.42-0.25,0.42-0.25c1.52,0.25,1.1,1.52,0.51,1.86c-2.96,1.44-5.59,2.29-8.39,2.29c-0.42,0.08-0.68,0.17-0.93,0.59
		c-1.52,2.2-3.3,4.24-5.51,5.76c-2.12,1.53-4.49,2.46-6.95,2.03c-1.69-0.34-2.71-1.61-2.63-3.39c0.17-2.12,1.52-3.9,3.13-5
		c3.47-2.2,7.03-2.03,10.84-1.78c0.25,0,0.42-0.08,0.59-0.34c0.76-1.52,2.29-6.1-0.34-6.18c-4.41,0.34-8.81,4.58-11.35,7.71
		c-5,6.27-8.98,13.13-12.45,19.99c-0.85,1.69-1.69,3.47-2.63,5.17c-0.51,0.85-0.76,0.85-1.27,0.68c-0.76-0.42-0.59-0.93-0.42-1.52
		c2.12-4.58,4.24-9.06,6.52-13.55c2.03-3.81,3.98-7.71,6.01-11.52c1.27-2.29,2.29-4.32,3.39-5.93c0.25-0.42,0.76-0.34,1.1-0.17
		c0.42,0.25,0.59,0.51,0.34,1.02c-1.02,1.95-1.95,3.9-2.88,5.59C100.64,214.97,105.13,210.65,110.13,209.89z M104.37,220.14
		c-2.8,0.59-5.25,2.37-5.85,4.91c-0.17,0.85,0.25,1.53,1.19,1.69c2.12,0.17,3.98-0.68,5.59-1.86c1.61-1.27,3.05-2.46,4.49-4.66
		C107.76,220.06,106.06,219.89,104.37,220.14z"/>
	<path class="st0" d="M119.03,224.97c-0.59,0.93-0.76,1.44-1.44,1.78c-0.59,0.17-1.27-0.25-1.36-0.85c-0.17-0.59,0.34-1.69,0.85-2.8
		c2.2-4.57,3.98-8.13,5.93-11.52c0.17-0.34,0.42-0.51,0.85-0.51c0.51,0.08,0.93,0.68,0.76,1.19s-0.17,0.59-0.42,1.19
		c0.93-0.34,1.78,0.17,1.95,1.02c0.34,1.61-0.34,4.57,2.37,4.83c1.95,0.25,4.32-1.44,6.61-2.96c0.17-0.17,0.51-0.34,0.51-0.34
		c1.61,0.17,1.78,1.27,0.76,1.95c-2.29,1.69-5.08,3.73-8.3,3.3c-2.96-0.51-3.81-2.54-3.81-4.91
		C122.24,219.38,121.48,220.57,119.03,224.97z"/>
	<path class="st0" d="M141.22,218.7c2.37-0.25,5.34-1.44,6.95-2.71c1.78,0.42,1.1,1.52,0.68,1.86c-1.02,0.76-2.2,1.44-3.39,1.86
		c-2.12,0.68-4.32,1.1-5.93,0.93c0.34,0.68,0.51,2.2,0.08,3.39c-0.76,2.12-2.2,3.64-4.58,3.9c-3.05,0.17-3.9-2.71-3.3-5.08
		c1.1-4.07,4.66-8.64,8.05-10.17c1.36-0.59,2.63-0.17,2.63,1.52c0,1.78-2.03,3.73-2.97,4.49
		C139.95,218.79,140.63,218.79,141.22,218.7z M137.15,220.73c-1.1,0.85-2.12,1.69-3.3,2.37c-0.17,0.08-0.25,0.17-0.25,0.34
		c-0.17,0.51-0.25,1.1-0.17,1.69c0.17,1.02,0.76,1.36,1.61,1.19c1.69-0.42,2.54-1.78,2.88-3.39c0.17-0.93-0.08-1.61-0.51-2.29
		C137.24,220.65,137.24,220.65,137.15,220.73z M139.87,214.97c-1.61,1.1-2.96,2.54-3.98,4.24
		C137.58,217.77,138.85,216.5,139.87,214.97z"/>
	<path class="st0" d="M163.5,218.96c-1.44,1.44-3.98,3.3-6.1,3.39c-1.78,0.08-3.05-0.93-3.13-2.88c-1.86,2.12-4.41,5.85-6.44,7.54
		c-0.42,0.34-0.85,0.59-1.36,0.59c-0.93,0.08-1.61-0.51-1.78-1.36c-0.25-1.27,0.59-3.9,1.36-5.76c1.36-3.22,3.13-6.44,4.83-9.4
		c0.34-0.51,0.85-0.85,1.27-0.59c0.34,0.17,0.59,0.59,0.42,0.93c-2.12,4.07-3.13,6.02-4.74,9.57c-0.51,1.1-1.44,3.64-1.44,4.91
		c2.63-2.2,5.76-6.78,8.39-10.25c0.42-0.42,1.02-1.02,1.69-0.68c0.76,0.42,0.51,1.36,0.25,2.03c-0.17,0.51-0.85,3.22,0.17,3.64
		c0.93,0.42,4.74-1.61,7.12-4.66C165.87,216.33,164.94,217.51,163.5,218.96z"/>
	<path class="st0" d="M171.29,210.06c1.1,0,1.78,0.93,1.61,1.95c-1.02,3.05-3.98,5.34-6.61,6.52c-0.51,0.25-1.1,0.42-1.61,0.42
		c-0.25,0-0.34,0.08-0.42,0.25c-0.51,1.1-0.93,2.46-0.85,3.39c0.17,2.29,3.05,0.59,3.98,0c3.13-2.37,8.13-6.61,8.13-6.61
		c1.78,0.17,1.36,1.36,0.76,1.78c-2.71,2.29-5.34,4.74-8.05,6.52c-1.44,0.93-2.96,1.53-4.49,1.27c-1.19-0.25-2.03-1.36-2.2-2.71
		c-0.25-2.2,1.19-5.59,3.22-7.96C166.55,212.86,169.26,210.06,171.29,210.06z M165.79,216.84c2.03-1.19,3.81-2.63,5-4.66
		C169.52,212.52,165.96,215.82,165.79,216.84z"/>
	<path class="st0" d="M205.77,217.77c-2.37,2.37-4.74,4.83-7.29,6.95c-1.27,1.1-3.64,3.05-5.25,3.3c-1.36,0.25-2.2-0.85-2.12-2.12
		c0.17-3.47,2.03-5.93,3.64-8.81c-1.95,1.02-4.07,2.8-5.76,4.15c-1.86,1.36-4.15,3.64-6.01,4.32c-1.19,0.42-2.12-0.42-2.03-1.61
		c0.25-1.27,0.68-2.46,1.27-3.73c0.76-1.69,1.61-3.39,2.2-5.25c0.08-0.42,0.34-0.93,0.34-1.69c-1.61,0.85-2.96,1.86-4.24,3.3
		c-2.71,2.71-4.91,5.76-7.03,8.9c-0.68,1.02-1.36,1.95-2.03,2.96c-0.42,0.68-0.85,0.93-1.61,0.59c-0.34-0.17-0.51-0.51-0.51-0.85
		c0-0.76,0.51-1.61,0.85-2.37c1.52-3.05,3.22-6.1,4.91-9.15c1.36-2.46,2.71-5,4.24-7.96c0.25-0.51,0.59-0.68,1.02-0.59
		c0.68,0.17,0.76,0.93,0.51,1.53c-1.1,2.8-2.54,5.25-4.07,8.22c1.69-1.86,3.47-3.81,5.76-5.59c1.36-1.02,3.9-1.61,4.07,0.93
		c0.17,2.71-2.71,8.39-3.73,10.25c1.36-0.85,2.88-2.03,4.41-3.3c2.37-1.95,6.44-5,7.88-5.51c1.02-0.34,1.86,0.34,1.78,1.44
		c0,1.19-0.76,2.29-1.36,3.39c-0.93,1.78-1.78,3.56-2.37,5.42c-0.08,0.42-0.25,0.76-0.25,1.36c0.42-0.17,0.76-0.34,1.02-0.51
		c0.93-0.68,1.95-1.36,2.79-2.12c2.88-2.37,5.34-5.08,8.13-7.62C206.88,216.58,205.94,217.6,205.77,217.77z"/>
	<path class="st0" d="M212.21,210.06c1.1,0,1.78,0.93,1.61,1.95c-1.02,3.05-3.98,5.34-6.61,6.52c-0.51,0.25-1.1,0.42-1.61,0.42
		c-0.25,0-0.34,0.08-0.42,0.25c-0.51,1.1-0.93,2.46-0.85,3.39c0.17,2.29,3.05,0.59,3.98,0c3.13-2.37,8.13-6.61,8.13-6.61
		c1.78,0.17,1.36,1.36,0.76,1.78c-2.71,2.29-5.34,4.74-8.05,6.52c-1.44,0.93-2.96,1.53-4.49,1.27c-1.19-0.25-2.03-1.36-2.2-2.71
		c-0.25-2.2,1.19-5.59,3.22-7.96C207.47,212.86,210.18,210.06,212.21,210.06z M206.7,216.84c2.03-1.19,3.81-2.63,5-4.66
		C210.43,212.52,206.87,215.82,206.7,216.84z"/>
	<path class="st0" d="M219.83,216.33c0.34-0.34,0.93-0.85,1.61-1.1c1.1-0.34,2.03,0.34,1.86,1.53c-0.34,2.46-0.76,6.01-0.59,7.37
		c0.76-0.17,4.57-3.98,6.52-5.93c0.68-0.68,1.44-1.52,2.12-2.2c1.86,0.17,1.27,1.44,0.85,1.86c-1.1,1.19-1.53,1.61-2.63,2.79
		c-2.03,1.95-4.74,5.08-6.52,5.34c-1.02,0.17-1.78-0.34-2.12-1.36c-0.59-1.36-0.08-4.83,0.34-6.95c-0.68,0.59-2.8,2.63-3.9,3.9
		c-1.19,1.44-2.37,2.8-3.64,4.24c-0.68,0.59-0.93,0.68-1.36,0.42c-0.93-0.51-0.34-1.78,0.08-2.63c2.12-4.24,4.41-8.56,6.61-12.79
		c0.17-0.42,0.51-0.68,0.85-0.59c0.42,0.08,0.76,0.51,0.76,0.93c-1.19,2.88-2.37,5.34-3.73,7.96
		C218.05,218.02,218.99,217.09,219.83,216.33z"/>
	<path class="st0" d="M246.18,199.56c3.05,0,5.08,0.08,7.12,0.25c0.85,0.08,1.78,0.42,1.44,1.36c-0.51,1.02-1.27,0.51-2.03,0.51
		c-2.46-0.08-4.91-0.17-7.37-0.25c-0.34,0-0.51,0.08-0.76,0.42c-2.03,2.88-4.58,5.59-7.2,7.62c-0.25,0.17-0.51,0.42-0.68,0.76
		c-5.59,9.83-10.5,19.48-13.89,29.57c-0.17,0.34-0.17,0.68-0.17,1.1c0,0.42-0.17,0.68-0.51,0.85s-0.68,0.08-1.02-0.25
		c-0.51-0.68-0.34-1.44-0.17-2.12c3.3-10.17,8.05-19.23,12.79-27.7c2.29-3.98,4.24-7.12,6.1-10.25c-4.91,0-8.73,0.17-12.54,0.17
		c-0.76,0.17-2.37-0.42-1.61-1.53c0.51-0.68,2.2-0.17,2.79-0.17c4.24-0.08,8.22-0.34,12.28-0.34c0.25,0,0.42-0.08,0.68-0.34
		c1.1-1.61,3.22-5.51,5.17-5.59c1.19,0.08,1.44,0.85,1.27,1.69C247.54,196.67,246.86,198.2,246.18,199.56z M241.95,201.59
		c-0.25,0.42-0.51,0.85-0.93,1.78c0.51-0.59,1.02-1.36,1.52-1.86C242.11,201.42,242.11,201.42,241.95,201.59z M244.06,199.47
		c0.34-0.51,0.68-1.27,0.93-1.86c-0.59,0.68-1.02,1.27-1.44,1.86C243.81,199.56,243.89,199.47,244.06,199.47z"/>
</g>
</svg>
