<?xml version="1.0" encoding="utf-8"?>
<!-- Generator: Adobe Illustrator 25.4.1, SVG Export Plug-In . SVG Version: 6.00 Build 0)  -->
<svg version="1.1" id="Layer_1" xmlns="http://www.w3.org/2000/svg" xmlns:xlink="http://www.w3.org/1999/xlink" x="0px" y="0px"
	 viewBox="0 0 300 600" style="enable-background:new 0 0 300 600;" xml:space="preserve">
<style type="text/css">
	.st0{fill:#FFFFFF;}
	.st1{fill:#002554;}
</style>
<g>
	<rect x="64.75" y="309.5" class="st0" width="170.5" height="34.04"/>
	<g>
		<path class="st1" d="M84.93,323.42v2.15h4.03v2.08h-4.03v4.05h-2.49v-10.42h6.86v2.15H84.93z"/>
		<path class="st1" d="M91.43,331.69v-10.42h2.53v10.42H91.43z"/>
		<path class="st1" d="M103.25,331.69l-4.2-6.82h-0.04l0.06,6.82h-2.44v-10.42h2.87l4.18,6.8h0.04l-0.06-6.8h2.44v10.42H103.25z"/>
		<path class="st1" d="M112.66,331.69h-3.89v-10.42h3.77c2.96,0,5.96,1.24,5.96,5.18C118.5,330.12,115.53,331.69,112.66,331.69z
			 M112.48,323.42h-1.25v6.1h1.19c1.8,0,3.46-0.74,3.46-3.06C115.88,324.11,114.22,323.42,112.48,323.42z"/>
		<path class="st1" d="M131.67,331.69l-0.81-2.05h-4.04l-0.77,2.05h-2.74l4.37-10.42h2.44l4.33,10.42H131.67z M128.88,324.05
			l-1.33,3.58h2.62L128.88,324.05z"/>
		<path class="st1" d="M143.55,327.76h-1.25v3.93h-2.52v-10.42h3.83c2.28,0,4.08,0.82,4.08,3.21
			C147.69,326.89,145.73,327.76,143.55,327.76z M143.4,323.3h-1.1v2.46h1.06c0.94,0,1.81-0.28,1.81-1.27
			C145.17,323.49,144.3,323.3,143.4,323.3z"/>
		<path class="st1" d="M155.29,331.69l-2.25-4.14h-0.85v4.14h-2.47v-10.42h3.98c2,0,3.99,0.77,3.99,3.15c0,1.4-0.82,2.4-2.17,2.81
			l2.72,4.46H155.29z M153.51,323.3h-1.34v2.43h1.19c0.81,0,1.83-0.21,1.83-1.27C155.19,323.49,154.26,323.3,153.51,323.3z"/>
		<path class="st1" d="M165.17,331.97c-3.25,0-5.67-2.24-5.67-5.54c0-3.34,2.42-5.45,5.67-5.45c3.27,0,5.68,2.11,5.68,5.45
			C170.85,329.74,168.44,331.97,165.17,331.97z M165.17,323.26c-1.77,0-2.97,1.35-2.97,3.18c0,1.88,1.22,3.24,2.97,3.24
			c1.75,0,2.99-1.35,2.99-3.24C168.16,324.61,166.94,323.26,165.17,323.26z"/>
		<path class="st1" d="M178.02,331.69h-2.52l-3.95-10.42h2.83l2.42,7.39h0.06l2.4-7.39h2.78L178.02,331.69z"/>
		<path class="st1" d="M183.4,331.69v-10.42h2.53v10.42H183.4z"/>
		<path class="st1" d="M192.48,331.69h-3.89v-10.42h3.77c2.96,0,5.96,1.24,5.96,5.18C198.33,330.12,195.36,331.69,192.48,331.69z
			 M192.31,323.42h-1.25v6.1h1.19c1.8,0,3.46-0.74,3.46-3.06C195.71,324.11,194.04,323.42,192.31,323.42z"/>
		<path class="st1" d="M200.5,331.69v-10.42h7.01v2.13h-4.58v1.96h4.33v2.02h-4.33v2.17h4.84v2.15H200.5z"/>
		<path class="st1" d="M215.53,331.69l-2.25-4.14h-0.85v4.14h-2.47v-10.42h3.98c2,0,3.99,0.77,3.99,3.15c0,1.4-0.82,2.4-2.17,2.81
			l2.72,4.46H215.53z M213.75,323.3h-1.34v2.43h1.19c0.81,0,1.83-0.21,1.83-1.27C215.43,323.49,214.5,323.3,213.75,323.3z"/>
	</g>
</g>
</svg>
