<?xml version="1.0" encoding="utf-8"?>
<!-- Generator: Adobe Illustrator 25.4.1, SVG Export Plug-In . SVG Version: 6.00 Build 0)  -->
<svg version="1.1" id="Layer_1" xmlns="http://www.w3.org/2000/svg" xmlns:xlink="http://www.w3.org/1999/xlink" x="0px" y="0px"
	 viewBox="0 0 300 600" style="enable-background:new 0 0 300 600;" xml:space="preserve">
<style type="text/css">
	.st0{fill:#BDD6E6;}
</style>
<g>
	<path class="st0" d="M36.46,364.87l0.7,0.97l-0.63,0.46l-0.7-0.97l-0.32-0.62l-0.32,0.62l-0.69,0.97l-0.63-0.46l0.7-0.97l0.48-0.49
		l-0.68-0.12l-1.13-0.36l0.23-0.73l1.14,0.37l0.62,0.3l-0.09-0.68l-0.01-1.2h0.79l-0.01,1.2l-0.1,0.69l0.63-0.31l1.14-0.37
		l0.23,0.73l-1.13,0.36l-0.69,0.12L36.46,364.87z"/>
	<path class="st0" d="M43.84,363.49H41.7v5.39h-1.02v-5.39h-2.15v-0.87h5.31V363.49z"/>
	<path class="st0" d="M49.1,365.8v3.08h-1.02v-2.75c0-0.94-0.44-1.25-1.02-1.25c-0.63,0-1.29,0.41-1.29,1.5v2.51h-1.02V362h1.02
		v2.89c0.31-0.59,0.87-0.85,1.54-0.85C48.32,364.04,49.1,364.62,49.1,365.8z"/>
	<path class="st0" d="M54.84,366.89h-3.47c0.11,0.83,0.61,1.28,1.38,1.28c0.63,0,1.04-0.23,1.2-0.65l0.84,0.35
		c-0.34,0.7-1,1.1-2.04,1.1c-1.5,0-2.38-0.92-2.38-2.47s0.83-2.47,2.32-2.47c1.42,0,2.2,0.95,2.2,2.33
		C54.88,366.54,54.86,366.76,54.84,366.89z M51.37,366.11h2.55c-0.09-0.8-0.54-1.26-1.25-1.26
		C51.93,364.85,51.48,365.29,51.37,366.11z"/>
	<path class="st0" d="M63.88,366.5c0,1.56-0.82,2.48-2.11,2.48c-0.7,0-1.24-0.34-1.53-0.86v2.76h-1.02v-6.74h0.89l0.05,0.87
		c0.27-0.58,0.85-0.97,1.61-0.97C63.08,364.04,63.88,364.95,63.88,366.5z M62.87,366.51c0-1.03-0.49-1.65-1.31-1.65
		c-0.8,0-1.31,0.6-1.31,1.59v0.11c0,0.99,0.51,1.58,1.31,1.58C62.37,368.15,62.87,367.54,62.87,366.51z"/>
	<path class="st0" d="M68.17,364.13l-0.16,0.93c-0.13-0.08-0.34-0.12-0.6-0.12c-0.57,0-1.2,0.46-1.2,1.42v2.51H65.2v-4.75h0.86
		l0.09,0.84c0.26-0.62,0.76-0.94,1.49-0.94C67.84,364.04,68.04,364.07,68.17,364.13z"/>
	<path class="st0" d="M68.96,362.7c0-0.4,0.25-0.63,0.68-0.63s0.67,0.23,0.67,0.63s-0.24,0.64-0.67,0.64S68.96,363.1,68.96,362.7z
		 M70.14,368.88h-1.02v-4.75h1.02V368.88z"/>
	<path class="st0" d="M79.2,365.8v3.08h-1.02v-2.91c0-0.78-0.42-1.09-0.98-1.09c-0.66,0-1.23,0.5-1.23,1.42v2.58h-1.02v-2.91
		c0-0.78-0.42-1.09-0.98-1.09c-0.57,0-1.23,0.42-1.23,1.48v2.52h-1.02v-4.75h0.9l0.05,0.79c0.33-0.6,0.92-0.88,1.54-0.88
		c0.67,0,1.31,0.3,1.59,0.95c0.31-0.65,1.01-0.95,1.64-0.95C78.36,364.04,79.21,364.6,79.2,365.8z"/>
	<path class="st0" d="M85.19,368.18l-0.07,0.68c-0.15,0.07-0.35,0.11-0.59,0.11c-0.51,0-0.86-0.19-0.97-0.71
		c-0.29,0.46-0.9,0.71-1.6,0.71c-0.89,0-1.55-0.42-1.55-1.24c0-0.73,0.61-1.27,1.85-1.49l1.21-0.22v-0.25
		c0-0.57-0.35-0.94-0.97-0.94c-0.59,0-1.03,0.26-1.22,0.85l-0.79-0.42c0.23-0.75,0.96-1.23,1.99-1.23c1.19,0,2,0.54,2,1.68v2.14
		c0,0.24,0.1,0.35,0.35,0.35C84.96,368.22,85.08,368.21,85.19,368.18z M83.47,367.3v-0.57l-1.03,0.21
		c-0.65,0.12-0.97,0.34-0.97,0.72c0,0.35,0.27,0.54,0.71,0.54C82.81,368.21,83.47,367.87,83.47,367.3z"/>
	<path class="st0" d="M89.11,364.13l-0.16,0.93c-0.13-0.08-0.34-0.12-0.6-0.12c-0.57,0-1.2,0.46-1.2,1.42v2.51h-1.02v-4.75h0.86
		l0.1,0.84c0.26-0.62,0.76-0.94,1.49-0.94C88.78,364.04,88.98,364.07,89.11,364.13z"/>
	<path class="st0" d="M92.26,369.44c-0.42,1.1-0.9,1.48-1.76,1.48c-0.49,0-0.83-0.11-1.12-0.38l0.29-0.78
		c0.22,0.27,0.48,0.34,0.78,0.34c0.35,0,0.62-0.13,0.83-0.68l0.21-0.51L91,367.73l-1.48-3.6h1.14l1.04,2.98l0.27,0.89l0.32-0.98
		l0.99-2.89h1.05L92.26,369.44z"/>
	<path class="st0" d="M102.56,366.51c0,1.55-0.88,2.47-2.36,2.47c-1.48,0-2.36-0.92-2.36-2.47s0.88-2.47,2.36-2.47
		C101.68,364.04,102.56,364.96,102.56,366.51z M98.86,366.51c0,1.07,0.48,1.67,1.34,1.67c0.85,0,1.35-0.6,1.35-1.67
		c0-1.07-0.49-1.67-1.35-1.67C99.34,364.84,98.86,365.43,98.86,366.51z"/>
	<path class="st0" d="M108.51,366.52c0,1.55-0.81,2.46-2.1,2.46c-0.76,0-1.34-0.39-1.61-0.97l-0.05,0.87h-0.89V362h1.02v2.9
		c0.28-0.52,0.83-0.86,1.53-0.86C107.69,364.04,108.51,364.96,108.51,366.52z M107.5,366.51c0-1.03-0.49-1.64-1.31-1.64
		c-0.8,0-1.31,0.6-1.31,1.58v0.11c0,1,0.51,1.59,1.31,1.59C107,368.16,107.5,367.54,107.5,366.51z"/>
	<path class="st0" d="M110.84,369.3c0,1.21-0.76,1.62-1.56,1.62c-0.43,0-0.79-0.12-1.04-0.31l0.18-0.82
		c0.17,0.14,0.43,0.27,0.73,0.27c0.41,0,0.67-0.22,0.67-0.85v-5.07h1.02V369.3z M111.02,362.7c0,0.38-0.27,0.64-0.67,0.64
		c-0.42,0-0.68-0.26-0.68-0.64s0.27-0.63,0.68-0.63C110.75,362.08,111.02,362.32,111.02,362.7z"/>
	<path class="st0" d="M116.62,366.89h-3.47c0.11,0.83,0.61,1.28,1.38,1.28c0.63,0,1.04-0.23,1.2-0.65l0.84,0.35
		c-0.34,0.7-1,1.1-2.04,1.1c-1.5,0-2.38-0.92-2.38-2.47s0.83-2.47,2.32-2.47c1.42,0,2.2,0.95,2.2,2.33
		C116.66,366.54,116.64,366.76,116.62,366.89z M113.16,366.11h2.55c-0.09-0.8-0.54-1.26-1.25-1.26
		C113.71,364.85,113.26,365.29,113.16,366.11z"/>
	<path class="st0" d="M122.08,365.37l-0.95,0.38c-0.16-0.59-0.52-0.9-1.11-0.9c-0.84,0-1.34,0.6-1.34,1.67s0.5,1.65,1.34,1.65
		c0.66,0,1.04-0.33,1.17-0.92l0.93,0.31c-0.27,0.86-0.98,1.41-2.08,1.41c-1.5,0-2.38-0.92-2.38-2.47s0.88-2.47,2.36-2.47
		C121.17,364.04,121.79,364.59,122.08,365.37z"/>
	<path class="st0" d="M126.38,368.57c-0.3,0.26-0.75,0.41-1.26,0.41c-0.82,0-1.44-0.37-1.45-1.35v-2.7h-0.9v-0.8h0.9v-1.11
		l1.02-0.29v1.4h1.66v0.8h-1.66v2.52c0,0.46,0.28,0.67,0.69,0.67c0.32,0,0.56-0.11,0.77-0.3L126.38,368.57z"/>
	<path class="st0" d="M127.16,362.7c0-0.4,0.25-0.63,0.68-0.63c0.44,0,0.67,0.23,0.67,0.63s-0.24,0.64-0.67,0.64
		C127.4,363.34,127.16,363.1,127.16,362.7z M128.34,368.88h-1.02v-4.75h1.02V368.88z"/>
	<path class="st0" d="M134.11,364.13l-1.89,4.75h-1.11l-1.9-4.75h1.12l1.34,3.92l1.38-3.92H134.11z"/>
	<path class="st0" d="M139.15,366.89h-3.47c0.11,0.83,0.61,1.28,1.38,1.28c0.63,0,1.04-0.23,1.2-0.65l0.84,0.35
		c-0.34,0.7-1,1.1-2.04,1.1c-1.5,0-2.38-0.92-2.38-2.47s0.83-2.47,2.32-2.47c1.42,0,2.2,0.95,2.2,2.33
		C139.19,366.54,139.17,366.76,139.15,366.89z M135.69,366.11h2.55c-0.09-0.8-0.54-1.26-1.25-1.26
		C136.24,364.85,135.79,365.29,135.69,366.11z"/>
	<path class="st0" d="M146.47,368.57c-0.3,0.26-0.75,0.41-1.26,0.41c-0.82,0-1.44-0.37-1.45-1.35v-2.7h-0.9v-0.8h0.9v-1.11
		l1.02-0.29v1.4h1.66v0.8h-1.66v2.52c0,0.46,0.28,0.67,0.69,0.67c0.32,0,0.56-0.11,0.77-0.3L146.47,368.57z"/>
	<path class="st0" d="M151.87,366.51c0,1.55-0.88,2.47-2.36,2.47s-2.36-0.92-2.36-2.47s0.88-2.47,2.36-2.47
		S151.87,364.96,151.87,366.51z M148.17,366.51c0,1.07,0.48,1.67,1.34,1.67c0.85,0,1.35-0.6,1.35-1.67c0-1.07-0.49-1.67-1.35-1.67
		C148.65,364.84,148.17,365.43,148.17,366.51z"/>
	<path class="st0" d="M160.45,366.89h-3.47c0.11,0.83,0.61,1.28,1.38,1.28c0.63,0,1.04-0.23,1.2-0.65l0.84,0.35
		c-0.34,0.7-1,1.1-2.04,1.1c-1.5,0-2.38-0.92-2.38-2.47s0.83-2.47,2.32-2.47c1.42,0,2.2,0.95,2.2,2.33
		C160.49,366.54,160.47,366.76,160.45,366.89z M156.99,366.11h2.55c-0.09-0.8-0.54-1.26-1.25-1.26
		C157.54,364.85,157.09,365.29,156.99,366.11z"/>
	<path class="st0" d="M165.81,364.13l-1.89,4.75h-1.11l-1.9-4.75h1.12l1.34,3.92l1.38-3.92H165.81z"/>
	<path class="st0" d="M171.01,368.18l-0.07,0.68c-0.15,0.07-0.35,0.11-0.59,0.11c-0.51,0-0.86-0.19-0.97-0.71
		c-0.29,0.46-0.9,0.71-1.6,0.71c-0.89,0-1.55-0.42-1.55-1.24c0-0.73,0.61-1.27,1.85-1.49l1.21-0.22v-0.25
		c0-0.57-0.35-0.94-0.97-0.94c-0.59,0-1.02,0.26-1.22,0.85l-0.79-0.42c0.23-0.75,0.96-1.23,1.99-1.23c1.19,0,2,0.54,2,1.68v2.14
		c0,0.24,0.09,0.35,0.35,0.35C170.78,368.22,170.9,368.21,171.01,368.18z M169.29,367.3v-0.57l-1.04,0.21
		c-0.65,0.12-0.97,0.34-0.97,0.72c0,0.35,0.27,0.54,0.71,0.54C168.63,368.21,169.29,367.87,169.29,367.3z"/>
	<path class="st0" d="M172.95,367.49c0,0.46,0.11,0.63,0.49,0.63c0.24,0,0.38-0.03,0.63-0.12l-0.11,0.82
		c-0.21,0.1-0.51,0.16-0.79,0.16c-0.84,0-1.23-0.42-1.23-1.34V362h1.01V367.49z"/>
	<path class="st0" d="M179.23,364.13v4.75h-0.9l-0.05-0.77c-0.32,0.6-0.91,0.86-1.68,0.86c-0.95,0-1.71-0.48-1.71-1.72v-3.12h1.02
		v2.86c0,0.88,0.38,1.15,0.98,1.15c0.72,0,1.33-0.44,1.33-1.44v-2.56H179.23z"/>
	<path class="st0" d="M185.25,368.18l-0.07,0.68c-0.15,0.07-0.35,0.11-0.59,0.11c-0.51,0-0.86-0.19-0.97-0.71
		c-0.29,0.46-0.9,0.71-1.6,0.71c-0.89,0-1.55-0.42-1.55-1.24c0-0.73,0.61-1.27,1.85-1.49l1.21-0.22v-0.25
		c0-0.57-0.35-0.94-0.97-0.94c-0.59,0-1.02,0.26-1.22,0.85l-0.79-0.42c0.23-0.75,0.96-1.23,1.99-1.23c1.19,0,2,0.54,2,1.68v2.14
		c0,0.24,0.09,0.35,0.35,0.35C185.02,368.22,185.15,368.21,185.25,368.18z M183.53,367.3v-0.57l-1.04,0.21
		c-0.65,0.12-0.97,0.34-0.97,0.72c0,0.35,0.27,0.54,0.71,0.54C182.88,368.21,183.53,367.87,183.53,367.3z"/>
	<path class="st0" d="M189.1,368.57c-0.3,0.26-0.75,0.41-1.26,0.41c-0.82,0-1.44-0.37-1.45-1.35v-2.7h-0.9v-0.8h0.9v-1.11l1.02-0.29
		v1.4h1.66v0.8h-1.66v2.52c0,0.46,0.28,0.67,0.69,0.67c0.32,0,0.56-0.11,0.77-0.3L189.1,368.57z"/>
	<path class="st0" d="M194.25,366.89h-3.47c0.11,0.83,0.61,1.28,1.38,1.28c0.63,0,1.04-0.23,1.2-0.65l0.84,0.35
		c-0.34,0.7-1,1.1-2.04,1.1c-1.5,0-2.38-0.92-2.38-2.47s0.83-2.47,2.32-2.47c1.42,0,2.2,0.95,2.2,2.33
		C194.29,366.54,194.27,366.76,194.25,366.89z M190.78,366.11h2.55c-0.09-0.8-0.54-1.26-1.25-1.26
		C191.33,364.85,190.89,365.29,190.78,366.11z"/>
	<path class="st0" d="M203.09,366.51c0,1.55-0.88,2.47-2.36,2.47s-2.36-0.92-2.36-2.47s0.88-2.47,2.36-2.47
		S203.09,364.96,203.09,366.51z M199.39,366.51c0,1.07,0.48,1.67,1.34,1.67c0.85,0,1.35-0.6,1.35-1.67c0-1.07-0.49-1.67-1.35-1.67
		C199.88,364.84,199.39,365.43,199.39,366.51z"/>
	<path class="st0" d="M208.55,364.13l-1.89,4.75h-1.11l-1.9-4.75h1.12l1.34,3.92l1.38-3.92H208.55z"/>
	<path class="st0" d="M213.59,366.89h-3.47c0.11,0.83,0.61,1.28,1.38,1.28c0.63,0,1.04-0.23,1.2-0.65l0.84,0.35
		c-0.34,0.7-1,1.1-2.04,1.1c-1.5,0-2.38-0.92-2.38-2.47s0.83-2.47,2.32-2.47c1.42,0,2.2,0.95,2.2,2.33
		C213.62,366.54,213.61,366.76,213.59,366.89z M210.12,366.11h2.55c-0.09-0.8-0.54-1.26-1.25-1.26
		C210.67,364.85,210.23,365.29,210.12,366.11z"/>
	<path class="st0" d="M217.87,364.13l-0.16,0.93c-0.13-0.08-0.34-0.12-0.6-0.12c-0.57,0-1.2,0.46-1.2,1.42v2.51h-1.02v-4.75h0.86
		l0.09,0.84c0.26-0.62,0.76-0.94,1.49-0.94C217.53,364.04,217.73,364.07,217.87,364.13z"/>
	<path class="st0" d="M223.17,368.18l-0.07,0.68c-0.15,0.07-0.35,0.11-0.59,0.11c-0.51,0-0.86-0.19-0.97-0.71
		c-0.29,0.46-0.9,0.71-1.6,0.71c-0.89,0-1.55-0.42-1.55-1.24c0-0.73,0.61-1.27,1.85-1.49l1.21-0.22v-0.25
		c0-0.57-0.35-0.94-0.97-0.94c-0.59,0-1.02,0.26-1.22,0.85l-0.79-0.42c0.23-0.75,0.96-1.23,1.99-1.23c1.19,0,2,0.54,2,1.68v2.14
		c0,0.24,0.09,0.35,0.35,0.35C222.94,368.22,223.07,368.21,223.17,368.18z M221.45,367.3v-0.57l-1.04,0.21
		c-0.65,0.12-0.97,0.34-0.97,0.72c0,0.35,0.27,0.54,0.71,0.54C220.8,368.21,221.45,367.87,221.45,367.3z"/>
	<path class="st0" d="M225.12,367.49c0,0.46,0.11,0.63,0.49,0.63c0.24,0,0.38-0.03,0.63-0.12l-0.11,0.82
		c-0.21,0.1-0.51,0.16-0.79,0.16c-0.84,0-1.23-0.42-1.23-1.34V362h1.01V367.49z"/>
	<path class="st0" d="M228.08,367.49c0,0.46,0.11,0.63,0.49,0.63c0.24,0,0.38-0.03,0.63-0.12l-0.11,0.82
		c-0.21,0.1-0.51,0.16-0.79,0.16c-0.84,0-1.23-0.42-1.23-1.34V362h1.01V367.49z"/>
	<path class="st0" d="M237.51,366.5c0,1.56-0.82,2.48-2.11,2.48c-0.7,0-1.24-0.34-1.53-0.86v2.76h-1.02v-6.74h0.89l0.05,0.87
		c0.28-0.58,0.85-0.97,1.61-0.97C236.7,364.04,237.51,364.95,237.51,366.5z M236.5,366.51c0-1.03-0.49-1.65-1.31-1.65
		c-0.8,0-1.31,0.6-1.31,1.59v0.11c0,0.99,0.51,1.58,1.31,1.58C236,368.15,236.5,367.54,236.5,366.51z"/>
	<path class="st0" d="M243.27,368.18l-0.07,0.68c-0.15,0.07-0.35,0.11-0.59,0.11c-0.51,0-0.86-0.19-0.97-0.71
		c-0.29,0.46-0.9,0.71-1.6,0.71c-0.89,0-1.55-0.42-1.55-1.24c0-0.73,0.61-1.27,1.85-1.49l1.21-0.22v-0.25
		c0-0.57-0.35-0.94-0.97-0.94c-0.59,0-1.02,0.26-1.22,0.85l-0.79-0.42c0.23-0.75,0.96-1.23,1.99-1.23c1.19,0,2,0.54,2,1.68v2.14
		c0,0.24,0.09,0.35,0.35,0.35C243.04,368.22,243.17,368.21,243.27,368.18z M241.55,367.3v-0.57l-1.04,0.21
		c-0.65,0.12-0.97,0.34-0.97,0.72c0,0.35,0.27,0.54,0.71,0.54C240.9,368.21,241.55,367.87,241.55,367.3z"/>
	<path class="st0" d="M247.11,368.57c-0.3,0.26-0.75,0.41-1.26,0.41c-0.82,0-1.44-0.37-1.45-1.35v-2.7h-0.9v-0.8h0.9v-1.11
		l1.02-0.29v1.4h1.66v0.8h-1.66v2.52c0,0.46,0.28,0.67,0.69,0.67c0.32,0,0.56-0.11,0.77-0.3L247.11,368.57z"/>
	<path class="st0" d="M247.89,362.7c0-0.4,0.25-0.63,0.68-0.63c0.44,0,0.67,0.23,0.67,0.63s-0.24,0.64-0.67,0.64
		C248.14,363.34,247.89,363.1,247.89,362.7z M249.08,368.88h-1.02v-4.75h1.02V368.88z"/>
	<path class="st0" d="M254.87,366.89h-3.47c0.11,0.83,0.61,1.28,1.38,1.28c0.63,0,1.04-0.23,1.2-0.65l0.84,0.35
		c-0.34,0.7-1,1.1-2.04,1.1c-1.5,0-2.38-0.92-2.38-2.47s0.83-2.47,2.32-2.47c1.42,0,2.2,0.95,2.2,2.33
		C254.9,366.54,254.88,366.76,254.87,366.89z M251.4,366.11h2.55c-0.09-0.8-0.54-1.26-1.25-1.26
		C251.95,364.85,251.51,365.29,251.4,366.11z"/>
	<path class="st0" d="M260.51,365.8v3.08h-1.02v-2.75c0-0.94-0.44-1.25-1.02-1.25c-0.63,0-1.29,0.4-1.29,1.49v2.51h-1.02v-4.75h0.9
		l0.05,0.8c0.32-0.63,0.92-0.89,1.6-0.89C259.73,364.04,260.51,364.62,260.51,365.8z"/>
	<path class="st0" d="M265.07,368.57c-0.3,0.26-0.75,0.41-1.26,0.41c-0.82,0-1.44-0.37-1.45-1.35v-2.7h-0.9v-0.8h0.9v-1.11
		l1.02-0.29v1.4h1.66v0.8h-1.66v2.52c0,0.46,0.28,0.67,0.69,0.67c0.32,0,0.56-0.11,0.77-0.3L265.07,368.57z"/>
	<path class="st0" d="M54.36,379.47l0.68-0.59c0.25,0.57,0.81,0.79,1.47,0.79c0.67,0,1.02-0.25,1.02-0.57c0-0.29-0.28-0.47-1.1-0.63
		c-1.41-0.27-1.91-0.67-1.91-1.47c0-0.77,0.72-1.47,1.99-1.47c1.05,0,1.65,0.34,1.99,1.07l-0.72,0.53
		c-0.24-0.57-0.65-0.81-1.26-0.81c-0.59,0-0.99,0.28-0.99,0.58c0,0.34,0.28,0.52,1.17,0.68c1.36,0.25,1.84,0.66,1.84,1.44
		c0,0.83-0.76,1.43-2.07,1.43C55.56,380.46,54.76,380.16,54.36,379.47z"/>
	<path class="st0" d="M64.23,379.67l-0.07,0.68c-0.15,0.07-0.35,0.11-0.59,0.11c-0.51,0-0.86-0.19-0.97-0.71
		c-0.29,0.46-0.9,0.71-1.6,0.71c-0.89,0-1.55-0.42-1.55-1.24c0-0.73,0.61-1.27,1.85-1.49l1.21-0.22v-0.25
		c0-0.57-0.35-0.94-0.97-0.94c-0.59,0-1.03,0.26-1.22,0.85l-0.79-0.42c0.23-0.75,0.96-1.23,1.99-1.23c1.19,0,2,0.54,2,1.68v2.14
		c0,0.24,0.09,0.35,0.35,0.35C64.01,379.7,64.13,379.69,64.23,379.67z M62.52,378.79v-0.57l-1.03,0.21
		c-0.65,0.12-0.97,0.34-0.97,0.72c0,0.35,0.27,0.54,0.71,0.54C61.86,379.69,62.52,379.36,62.52,378.79z"/>
	<path class="st0" d="M68.08,380.05c-0.3,0.26-0.75,0.41-1.26,0.41c-0.82,0-1.44-0.37-1.45-1.35v-2.7h-0.9v-0.8h0.9v-1.11l1.02-0.29
		v1.4h1.66v0.8h-1.66v2.52c0,0.46,0.27,0.67,0.69,0.67c0.32,0,0.56-0.11,0.77-0.3L68.08,380.05z"/>
	<path class="st0" d="M68.85,374.19c0-0.4,0.25-0.63,0.68-0.63s0.67,0.23,0.67,0.63s-0.24,0.64-0.67,0.64S68.85,374.59,68.85,374.19
		z M70.04,380.37h-1.02v-4.75h1.02V380.37z"/>
	<path class="st0" d="M71.23,379.47l0.68-0.59c0.25,0.57,0.81,0.79,1.47,0.79c0.67,0,1.02-0.25,1.02-0.57c0-0.29-0.28-0.47-1.1-0.63
		c-1.41-0.27-1.91-0.67-1.91-1.47c0-0.77,0.72-1.47,1.99-1.47c1.05,0,1.65,0.34,1.99,1.07l-0.72,0.53
		c-0.24-0.57-0.65-0.81-1.26-0.81c-0.59,0-0.99,0.28-0.99,0.58c0,0.34,0.28,0.52,1.17,0.68c1.36,0.25,1.84,0.66,1.84,1.44
		c0,0.83-0.76,1.43-2.07,1.43C72.42,380.46,71.63,380.16,71.23,379.47z"/>
	<path class="st0" d="M77.99,375.62h1.54v0.8h-1.51v3.95h-1.02v-3.95h-0.89v-0.8h0.89v-0.68c0-0.96,0.61-1.52,1.66-1.52
		c0.38,0,0.71,0.08,0.89,0.23l-0.19,0.74c-0.14-0.09-0.31-0.14-0.54-0.14c-0.53,0-0.84,0.23-0.84,0.77V375.62z"/>
	<path class="st0" d="M84.66,379.67l-0.07,0.68c-0.15,0.07-0.35,0.11-0.59,0.11c-0.51,0-0.86-0.19-0.97-0.71
		c-0.29,0.46-0.9,0.71-1.6,0.71c-0.89,0-1.55-0.42-1.55-1.24c0-0.73,0.61-1.27,1.85-1.49l1.21-0.22v-0.25
		c0-0.57-0.35-0.94-0.97-0.94c-0.59,0-1.03,0.26-1.22,0.85l-0.79-0.42c0.23-0.75,0.96-1.23,1.99-1.23c1.19,0,2,0.54,2,1.68v2.14
		c0,0.24,0.1,0.35,0.35,0.35C84.43,379.7,84.55,379.69,84.66,379.67z M82.94,378.79v-0.57l-1.03,0.21
		c-0.65,0.12-0.97,0.34-0.97,0.72c0,0.35,0.27,0.54,0.71,0.54C82.28,379.69,82.94,379.36,82.94,378.79z"/>
	<path class="st0" d="M89.75,376.86l-0.95,0.38c-0.16-0.59-0.52-0.9-1.11-0.9c-0.84,0-1.34,0.6-1.34,1.67s0.5,1.65,1.34,1.65
		c0.65,0,1.04-0.33,1.17-0.92l0.93,0.31c-0.27,0.86-0.98,1.41-2.08,1.41c-1.5,0-2.38-0.92-2.38-2.47s0.88-2.47,2.36-2.47
		C88.84,375.53,89.46,376.08,89.75,376.86z"/>
	<path class="st0" d="M94.05,380.05c-0.3,0.26-0.75,0.41-1.26,0.41c-0.82,0-1.44-0.37-1.45-1.35v-2.7h-0.9v-0.8h0.9v-1.11l1.02-0.29
		v1.4h1.66v0.8h-1.66v2.52c0,0.46,0.27,0.67,0.69,0.67c0.32,0,0.56-0.11,0.77-0.3L94.05,380.05z"/>
	<path class="st0" d="M94.83,374.19c0-0.4,0.25-0.63,0.68-0.63s0.67,0.23,0.67,0.63s-0.24,0.64-0.67,0.64S94.83,374.59,94.83,374.19
		z M96.01,380.37H95v-4.75h1.02V380.37z"/>
	<path class="st0" d="M102.05,377.99c0,1.55-0.88,2.47-2.36,2.47c-1.48,0-2.36-0.92-2.36-2.47s0.88-2.47,2.36-2.47
		C101.17,375.53,102.05,376.45,102.05,377.99z M98.35,377.99c0,1.07,0.48,1.67,1.34,1.67c0.85,0,1.35-0.6,1.35-1.67
		c0-1.07-0.49-1.67-1.35-1.67C98.83,376.32,98.35,376.92,98.35,377.99z"/>
	<path class="st0" d="M107.69,377.29v3.08h-1.02v-2.75c0-0.94-0.44-1.25-1.02-1.25c-0.63,0-1.29,0.4-1.29,1.49v2.51h-1.02v-4.75h0.9
		l0.05,0.8c0.32-0.63,0.92-0.89,1.6-0.89C106.91,375.53,107.69,376.11,107.69,377.29z"/>
	<path class="st0" d="M119.31,375.62l-1.58,4.75h-1.11l-1.2-3.59l-1.14,3.59h-1.11l-1.58-4.75h1.1l1.07,3.79l1.19-3.79h1.01
		l1.19,3.79l1.07-3.79H119.31z"/>
	<path class="st0" d="M120.19,374.19c0-0.4,0.25-0.63,0.68-0.63c0.44,0,0.67,0.23,0.67,0.63s-0.24,0.64-0.67,0.64
		C120.44,374.82,120.19,374.59,120.19,374.19z M121.38,380.37h-1.02v-4.75h1.02V380.37z"/>
	<path class="st0" d="M126.04,380.05c-0.3,0.26-0.75,0.41-1.26,0.41c-0.82,0-1.44-0.37-1.45-1.35v-2.7h-0.9v-0.8h0.9v-1.11
		l1.02-0.29v1.4H126v0.8h-1.66v2.52c0,0.46,0.28,0.67,0.69,0.67c0.32,0,0.56-0.11,0.77-0.3L126.04,380.05z"/>
	<path class="st0" d="M131.36,377.29v3.08h-1.02v-2.75c0-0.94-0.44-1.25-1.02-1.25c-0.63,0-1.29,0.41-1.29,1.5v2.51h-1.02v-6.88
		h1.02v2.89c0.31-0.59,0.87-0.85,1.54-0.85C130.58,375.53,131.36,376.11,131.36,377.29z"/>
	<path class="st0" d="M138.72,380.46c-1.81,0-2.95-1.23-2.95-3.23s1.15-3.23,2.94-3.23c1.24,0,2.13,0.52,2.5,1.54l-0.96,0.43
		c-0.25-0.74-0.71-1.08-1.49-1.08c-1.17,0-1.94,0.85-1.94,2.34c0,1.48,0.71,2.34,1.9,2.34c0.8,0,1.38-0.4,1.61-1.2l0.97,0.32
		C140.93,379.85,139.95,380.46,138.72,380.46z"/>
	<path class="st0" d="M146.92,377.99c0,1.55-0.88,2.47-2.36,2.47s-2.36-0.92-2.36-2.47s0.88-2.47,2.36-2.47
		S146.92,376.45,146.92,377.99z M143.22,377.99c0,1.07,0.48,1.67,1.34,1.67c0.85,0,1.35-0.6,1.35-1.67c0-1.07-0.49-1.67-1.35-1.67
		C143.71,376.32,143.22,376.92,143.22,377.99z"/>
	<path class="st0" d="M152.67,377.99c0,1.55-0.88,2.47-2.36,2.47c-1.48,0-2.36-0.92-2.36-2.47s0.88-2.47,2.36-2.47
		C151.79,375.53,152.67,376.45,152.67,377.99z M148.97,377.99c0,1.07,0.48,1.67,1.34,1.67c0.85,0,1.35-0.6,1.35-1.67
		c0-1.07-0.49-1.67-1.35-1.67C149.46,376.32,148.97,376.92,148.97,377.99z"/>
	<path class="st0" d="M154.96,378.98c0,0.46,0.11,0.63,0.49,0.63c0.24,0,0.38-0.03,0.63-0.12l-0.11,0.82
		c-0.21,0.1-0.51,0.16-0.79,0.16c-0.84,0-1.23-0.42-1.23-1.34v-5.64h1.01V378.98z"/>
	<path class="st0" d="M161.72,375.28l-0.77,0.69c-0.35-0.75-0.84-1.08-1.73-1.08c-0.89,0-1.38,0.4-1.38,0.93
		c0,0.5,0.39,0.77,1.6,0.99c1.68,0.29,2.3,0.82,2.3,1.82c0,1.12-1.02,1.83-2.5,1.83c-1.37,0-2.21-0.49-2.7-1.27l0.71-0.71
		c0.41,0.76,1.03,1.1,1.97,1.1c0.89,0,1.44-0.31,1.44-0.89c0-0.45-0.38-0.7-1.56-0.92c-1.72-0.32-2.35-0.84-2.35-1.84
		c0-1.06,0.91-1.92,2.44-1.92C160.37,374.01,161.17,374.43,161.72,375.28z"/>
	<path class="st0" d="M167.17,376.86l-0.95,0.38c-0.16-0.59-0.52-0.9-1.11-0.9c-0.84,0-1.34,0.6-1.34,1.67s0.5,1.65,1.34,1.65
		c0.65,0,1.04-0.33,1.17-0.92l0.93,0.31c-0.27,0.86-0.98,1.41-2.08,1.41c-1.5,0-2.38-0.92-2.38-2.47s0.88-2.47,2.36-2.47
		C166.26,375.53,166.88,376.08,167.17,376.86z"/>
	<path class="st0" d="M172.69,375.62v4.75h-0.9l-0.05-0.77c-0.32,0.6-0.91,0.86-1.68,0.86c-0.95,0-1.71-0.48-1.71-1.72v-3.12h1.02
		v2.86c0,0.88,0.38,1.15,0.98,1.15c0.72,0,1.33-0.44,1.33-1.44v-2.56H172.69z"/>
	<path class="st0" d="M175.26,378.98c0,0.46,0.11,0.63,0.49,0.63c0.24,0,0.38-0.03,0.63-0.12l-0.11,0.82
		c-0.21,0.1-0.51,0.16-0.79,0.16c-0.84,0-1.23-0.42-1.23-1.34v-5.64h1.02V378.98z"/>
	<path class="st0" d="M181.88,377.99c0,1.56-0.82,2.48-2.11,2.48c-0.7,0-1.24-0.34-1.53-0.86v2.76h-1.02v-6.74h0.89l0.05,0.87
		c0.28-0.58,0.85-0.97,1.61-0.97C181.07,375.53,181.88,376.44,181.88,377.99z M180.87,377.99c0-1.03-0.49-1.65-1.31-1.65
		c-0.8,0-1.31,0.6-1.31,1.59v0.11c0,0.99,0.51,1.58,1.31,1.58C180.37,379.64,180.87,379.03,180.87,377.99z"/>
	<path class="st0" d="M186.21,380.05c-0.3,0.26-0.75,0.41-1.26,0.41c-0.82,0-1.44-0.37-1.45-1.35v-2.7h-0.9v-0.8h0.9v-1.11
		l1.02-0.29v1.4h1.66v0.8h-1.66v2.52c0,0.46,0.28,0.67,0.69,0.67c0.32,0,0.56-0.11,0.77-0.3L186.21,380.05z"/>
	<path class="st0" d="M186.99,374.19c0-0.4,0.25-0.63,0.68-0.63c0.44,0,0.67,0.23,0.67,0.63s-0.24,0.64-0.67,0.64
		C187.23,374.82,186.99,374.59,186.99,374.19z M188.17,380.37h-1.02v-4.75h1.02V380.37z"/>
	<path class="st0" d="M194.09,377.29v3.08h-1.02v-2.75c0-0.94-0.44-1.25-1.02-1.25c-0.63,0-1.29,0.4-1.29,1.49v2.51h-1.02v-4.75h0.9
		l0.05,0.8c0.32-0.63,0.92-0.89,1.6-0.89C193.32,375.53,194.09,376.11,194.09,377.29z"/>
	<path class="st0" d="M199.91,380.84c0,0.99-1.06,1.57-2.44,1.57c-1.57,0-2.26-0.51-2.26-1.21c0-0.43,0.3-0.77,0.84-0.91
		c-0.37-0.17-0.66-0.47-0.66-0.9c0-0.49,0.29-0.8,0.74-0.95c-0.47-0.27-0.73-0.73-0.73-1.3c0-0.97,0.83-1.6,2.06-1.6
		c0.36,0,0.68,0.06,0.96,0.15c0.17-0.67,0.62-1.07,1.4-1.05l0.17,0.79c-0.62-0.02-0.98,0.16-1.12,0.48
		c0.42,0.29,0.65,0.71,0.65,1.23c0,0.97-0.82,1.6-2.06,1.6c-0.29,0-0.55-0.03-0.79-0.08c-0.32,0.08-0.46,0.25-0.46,0.52
		c0,0.29,0.23,0.46,0.59,0.46h1.58C199.35,379.63,199.91,380.08,199.91,380.84z M199.04,380.96c0-0.3-0.2-0.48-0.83-0.48h-1.28
		c-0.58,0-0.85,0.19-0.85,0.5c0,0.42,0.48,0.67,1.49,0.67C198.54,381.65,199.04,381.33,199.04,380.96z M196.45,377.13
		c0,0.54,0.44,0.9,1.02,0.9c0.59,0,1.03-0.36,1.03-0.9c0-0.53-0.44-0.89-1.03-0.89C196.88,376.24,196.45,376.6,196.45,377.13z"/>
	<path class="st0" d="M204.23,375.38c0,1.14-0.75,1.88-1.9,1.88s-1.9-0.74-1.9-1.88c0-1.14,0.75-1.88,1.9-1.88
		S204.23,374.24,204.23,375.38z M203.8,375.38c0-0.9-0.58-1.49-1.47-1.49s-1.48,0.59-1.48,1.49c0,0.9,0.58,1.49,1.48,1.49
		S203.8,376.28,203.8,375.38z M202.75,375.63l0.53,0.76h-0.5l-0.45-0.73h-0.31v0.73h-0.43v-2.04h0.88c0.44,0,0.76,0.26,0.76,0.66
		C203.23,375.33,203.05,375.55,202.75,375.63z M202.02,375.36h0.41c0.24,0,0.37-0.11,0.37-0.33c0-0.23-0.13-0.33-0.37-0.33h-0.41
		V375.36z"/>
	<path class="st0" d="M210.86,373.81c-1.2,1.09-1.64,2.2-1.64,3.92s0.45,2.82,1.64,3.91l-0.53,0.53c-1.38-1.11-2.09-2.61-2.09-4.44
		c0-1.84,0.71-3.34,2.09-4.45L210.86,373.81z"/>
	<path class="st0" d="M215.93,377.29v3.08h-1.02v-2.75c0-0.94-0.44-1.25-1.02-1.25c-0.63,0-1.29,0.4-1.29,1.49v2.51h-1.02v-4.75h0.9
		l0.05,0.8c0.32-0.63,0.92-0.89,1.6-0.89C215.15,375.53,215.93,376.11,215.93,377.29z"/>
	<path class="st0" d="M221.8,376.89h-4.52v-0.83h4.52V376.89z M221.8,378.84h-4.52V378h4.52V378.84z"/>
	<path class="st0" d="M225.48,374.1v6.26h-1v-4.63c0-0.15,0.01-0.32,0.02-0.5c-0.44,0.42-1.02,0.74-1.58,0.86l-0.19-0.88
		c0.5-0.07,1.57-0.64,1.9-1.11H225.48z"/>
	<path class="st0" d="M226.94,377.24c0-2.11,0.83-3.23,2.41-3.23s2.42,1.12,2.42,3.23c0,2.11-0.83,3.23-2.42,3.23
		S226.94,379.34,226.94,377.24z M230.74,377.24c0-1.58-0.47-2.36-1.39-2.36s-1.38,0.79-1.38,2.36c0,1.58,0.47,2.36,1.38,2.36
		S230.74,378.81,230.74,377.24z"/>
	<path class="st0" d="M237.54,375.35l-0.89,0.43c-0.17-0.55-0.54-0.88-1.21-0.88c-0.92,0-1.55,1.03-1.55,2.41v0.17h0.04
		c0.21-0.73,0.96-1.05,1.65-1.05c1.24,0,2.09,0.78,2.09,2c0,1.25-0.85,2.04-2.23,2.04c-1.6,0-2.48-1.28-2.48-3.23
		c0-2.14,1.09-3.23,2.53-3.23C236.49,374.01,237.17,374.39,237.54,375.35z M234.2,378.41c0,0.71,0.48,1.18,1.22,1.18
		c0.78,0,1.22-0.44,1.22-1.18c0-0.71-0.45-1.15-1.22-1.15C234.69,377.26,234.2,377.73,234.2,378.41z"/>
	<path class="st0" d="M240.84,377.73c0,1.83-0.71,3.33-2.09,4.44l-0.53-0.53c1.2-1.09,1.64-2.19,1.64-3.91s-0.45-2.83-1.64-3.92
		l0.53-0.53C240.12,374.39,240.84,375.89,240.84,377.73z"/>
	<path class="st0" d="M243.45,379.77c0,0.42-0.27,0.69-0.71,0.69c-0.44,0-0.72-0.28-0.72-0.69c0-0.42,0.28-0.68,0.72-0.68
		C243.17,379.09,243.45,379.35,243.45,379.77z"/>
</g>
</svg>
