<?xml version="1.0" encoding="utf-8"?>
<!-- Generator: Adobe Illustrator 25.4.1, SVG Export Plug-In . SVG Version: 6.00 Build 0)  -->
<svg version="1.1" id="Layer_1" xmlns="http://www.w3.org/2000/svg" xmlns:xlink="http://www.w3.org/1999/xlink" x="0px" y="0px"
	 viewBox="0 0 300 600" style="enable-background:new 0 0 300 600;" xml:space="preserve">
<style type="text/css">
	.st0{fill:#FFFFFF;}
</style>
<g>
	<g>
		<g>
			<g>
				<path class="st0" d="M105.01,68.63c-4.01,0-5.93-2.9-5.93-5.7c0-3.22,2.33-5.81,6-5.81c1.25,0,2.54,0.38,3.56,1.24l-1.13,1.58
					c-0.7-0.54-1.45-0.74-2.36-0.74c-1.95,0-3.4,1.35-3.4,3.67c0,2.12,1.34,3.81,3.46,3.81c0.91,0,1.7-0.27,2.4-0.88l1.04,1.58
					C107.66,68.22,106.31,68.63,105.01,68.63"/>
				<path class="st0" d="M114.82,68.63c-3.35,0-5.82-2.52-5.82-5.81c0-3.38,2.69-5.7,5.82-5.7c3.12,0,5.84,2.3,5.84,5.67
					C120.66,66.11,118.2,68.63,114.82,68.63 M117.97,62.82c0-2.03-1-3.78-3.15-3.78c-2.11,0-3.15,1.76-3.15,3.76
					c0,2.07,0.97,3.92,3.15,3.92c2.17,0,3.15-1.82,3.15-3.92V62.82z"/>
				<path class="st0" d="M127.46,68.63c-3.35,0-5.82-2.52-5.82-5.81c0-3.38,2.69-5.7,5.82-5.7c3.13,0,5.84,2.3,5.84,5.67
					C133.3,66.11,130.83,68.63,127.46,68.63 M130.61,62.82c0-2.03-1-3.78-3.15-3.78c-2.11,0-3.15,1.76-3.15,3.76
					c0,2.07,0.97,3.92,3.15,3.92c2.17,0,3.15-1.82,3.15-3.92V62.82z"/>
				<polygon class="st0" points="134.61,68.36 134.61,52.24 137.13,53.61 137.13,68.36 				"/>
				<path class="st0" d="M142.93,68.7c-2.83,0-4.19-1.35-4.19-1.35l1.13-1.46c0,0,1.29,0.86,2.99,0.86c0.82,0,1.5-0.56,1.5-1.13
					c0-0.56-0.25-1.04-1-1.42c-0.75-0.38-1.59-0.79-2.24-1.1c-0.66-0.32-2.11-1.28-2.11-3.17c0-1.91,1.95-2.97,3.94-2.97
					c1.9,0,3.35,1.24,3.35,1.24l-0.97,1.49c0,0-1.09-0.77-2.29-0.77c-1.2,0-1.45,0.77-1.45,1.08c0,0.32,0.11,0.81,0.88,1.22
					c0.77,0.4,1.56,0.83,2.7,1.46c1.13,0.63,1.77,1.71,1.77,2.93C146.93,66.81,145.76,68.7,142.93,68.7"/>
				<path class="st0" d="M153.73,68.63c-4.01,0-5.93-2.9-5.93-5.7c0-3.22,2.33-5.81,6-5.81c1.25,0,2.54,0.38,3.56,1.24l-1.13,1.58
					c-0.7-0.54-1.45-0.74-2.36-0.74c-1.95,0-3.4,1.35-3.4,3.67c0,2.12,1.34,3.81,3.46,3.81c0.91,0,1.7-0.27,2.4-0.88l1.04,1.58
					C156.38,68.22,155.02,68.63,153.73,68.63"/>
				<path class="st0" d="M166.12,67.07c0,0-1.27,1.55-3.67,1.55c-2.83,0-4.21-2.05-4.21-4.12v-7.14h2.51v7.02
					c0,1.22,0.95,2.23,2.42,2.23c1.29,0,2.56-1.53,2.56-1.53v-7.72h2.51v10.96L166.12,67.07z"/>
				<polygon class="st0" points="170.49,68.36 170.49,52.24 173,53.61 173,68.36 				"/>
				<path class="st0" d="M181.31,68.63c-2.22,0-3.49-1.24-3.49-1.24v5.47h-2.54V57.15l2.54,1.33c0,0,1.36-1.37,3.62-1.37
					c2.38,0,5.34,1.82,5.34,5.9C186.79,67.07,183.87,68.63,181.31,68.63 M181.15,59.04c-2.15,0-3.4,2-3.4,2v4.14
					c0,0,1.43,1.6,3.49,1.6c2.4,0,2.92-2.86,2.92-3.85C184.16,61.94,183.94,59.04,181.15,59.04"/>
				<path class="st0" d="M193.41,68.65h-1.59c-1.99,0-2.67-1.91-2.67-3.17v-6.46h-1.99v-1.64h1.99v-4.84h2.49v4.84h2.56v1.64h-2.54
					v5.85c0,0.65-0.11,1.69,1,1.69h1.81L193.41,68.65z"/>
				<path class="st0" d="M197.44,55.48c-0.91,0-1.65-0.74-1.65-1.64c0-0.9,0.75-1.64,1.65-1.64c0.91,0,1.65,0.74,1.65,1.64
					C199.09,54.74,198.34,55.48,197.44,55.48 M196.19,57.37h2.47v10.99h-2.47V57.37z"/>
				<path class="st0" d="M208.62,68.36v-7.02c0-1.22-0.95-2.23-2.42-2.23c-1.29,0-2.74,1.53-2.74,1.53v7.72h-2.51V57.39l2.13,1.26
					c0,0,1.45-1.55,3.85-1.55c2.83,0,4.21,2.05,4.21,4.12v7.14H208.62z"/>
				<path class="st0" d="M218.81,73.47c-0.39,0-3.33-0.05-3.33-0.05l0.04-2H218c2.4,0,3.76-1.28,3.76-3.04v-0.99
					c0,0-1.31,1.24-3.53,1.24c-2.56,0-5.48-1.55-5.48-5.63c0-4.08,2.97-5.9,5.35-5.9c2.26,0,3.62,1.37,3.62,1.37l2.54-1.26v10.92
					C224.25,71.08,222.28,73.47,218.81,73.47 M221.78,61.04c0,0-1.24-2-3.4-2c-2.79,0-3.01,2.9-3.01,3.89
					c0,0.99,0.52,3.85,2.92,3.85c2.06,0,3.49-1.6,3.49-1.6V61.04z"/>
				<polygon class="st0" points="73.63,63.36 69,67.96 74.67,70.08 81.43,63.36 				"/>
				<polygon class="st0" points="82.09,54.01 77.49,49.43 75.33,55.04 82.09,61.76 				"/>
				<polygon class="st0" points="90.46,55.71 96.64,57.31 91.5,62.43 83.7,62.43 				"/>
				<polygon class="st0" points="90.05,71.01 88.28,77 78.66,67.43 82.56,63.56 				"/>
				<g>
					<path class="st0" d="M228.01,58.12c0,0.65-0.53,1.17-1.19,1.17c-0.67,0-1.2-0.52-1.2-1.17c0-0.65,0.53-1.16,1.21-1.16
						C227.48,56.96,228.01,57.47,228.01,58.12z M225.91,58.12c0,0.52,0.39,0.93,0.91,0.93c0.5,0.01,0.89-0.41,0.89-0.92
						c0-0.52-0.38-0.93-0.9-0.93C226.3,57.19,225.91,57.61,225.91,58.12z M226.63,58.72h-0.27v-1.16c0.11-0.01,0.26-0.04,0.45-0.04
						c0.22,0,0.32,0.04,0.4,0.09c0.07,0.05,0.12,0.13,0.12,0.25c0,0.14-0.11,0.23-0.24,0.28v0.01c0.11,0.04,0.17,0.13,0.21,0.28
						c0.04,0.18,0.06,0.24,0.09,0.28h-0.28c-0.04-0.04-0.06-0.14-0.09-0.28c-0.02-0.12-0.09-0.18-0.24-0.18h-0.13V58.72z
						 M226.63,58.07h0.13c0.15,0,0.27-0.05,0.27-0.17c0-0.11-0.08-0.18-0.25-0.18c-0.07,0-0.12,0.01-0.15,0.01V58.07z"/>
				</g>
			</g>
			<g>
				<polygon class="st0" points="76.57,76.69 76.57,69.51 77.99,68.1 82.08,72.17 82.08,73.53 				"/>
				<polygon class="st0" points="75.91,56.94 69.95,56.94 71.86,62.42 81.43,62.42 				"/>
				<polygon class="st0" points="96.02,68.84 89.21,68.84 83.7,63.36 93.26,63.36 				"/>
				<polygon class="st0" points="83.03,52.26 88.55,49 88.55,56.28 83.03,61.76 				"/>
				<g>
					<path class="st0" d="M92.73,71.39c0,0.45-0.36,0.81-0.83,0.81c-0.46,0-0.83-0.36-0.83-0.81c0-0.45,0.37-0.8,0.84-0.8
						C92.37,70.59,92.73,70.94,92.73,71.39z M91.28,71.39c0,0.36,0.27,0.64,0.63,0.64c0.35,0,0.62-0.28,0.62-0.64
						c0-0.36-0.27-0.65-0.63-0.65C91.55,70.75,91.28,71.04,91.28,71.39z M91.78,71.81h-0.19v-0.8c0.07-0.01,0.18-0.02,0.31-0.02
						c0.15,0,0.22,0.02,0.28,0.06c0.05,0.03,0.08,0.09,0.08,0.17c0,0.1-0.07,0.16-0.17,0.19v0.01c0.08,0.02,0.12,0.09,0.14,0.2
						c0.02,0.12,0.04,0.17,0.06,0.2h-0.2c-0.02-0.03-0.04-0.1-0.06-0.2c-0.01-0.08-0.06-0.12-0.17-0.12h-0.09V71.81z M91.78,71.36
						h0.09c0.1,0,0.19-0.03,0.19-0.12c0-0.07-0.05-0.12-0.17-0.12c-0.05,0-0.08,0-0.1,0.01V71.36z"/>
				</g>
			</g>
		</g>
	</g>
</g>
</svg>
