<svg id="Layer_1" xmlns="http://www.w3.org/2000/svg" viewBox="0 0 300 600"><style>.st0{fill:#bdd6e6}.st1{fill:#00a9e0}</style><path class="st0" d="M97.61 121.22v22.21c0 3.6-1.94 5.63-5.35 5.63-3.36 0-5.3-2.04-5.3-5.63v-3.17h2.7v2.65c0 2.65.76 3.69 2.56 3.69s2.6-1.04 2.6-3.69v-9h-.09c-.81 1.23-1.99 1.85-3.6 1.85-2.7 0-4.26-1.85-4.26-5.02v-9.52c0-3.69 1.94-5.78 5.35-5.78 3.41 0 5.39 2.09 5.39 5.78zm-7.95.38v8.85c0 1.94.71 2.84 2.18 2.84 1.85 0 2.98-1.52 2.98-4.07v-7.62c0-2.65-.76-3.69-2.6-3.69-1.85-.01-2.56 1.04-2.56 3.69zM107.27 143.14v-21.78c0-3.79 2.04-5.92 5.49-5.92s5.49 2.13 5.49 5.92v21.78c0 3.79-2.04 5.92-5.49 5.92s-5.49-2.13-5.49-5.92zm8.14-.47v-20.83c0-2.75-.76-3.84-2.65-3.84-1.94 0-2.65 1.09-2.65 3.84v20.83c0 2.75.71 3.83 2.65 3.83 1.9 0 2.65-1.09 2.65-3.83zM121.85 143.33v-27.41h2.84v26.89c0 2.65.66 3.69 2.56 3.69s2.56-1.04 2.56-3.69v-26.89h2.75v27.41c0 3.65-1.99 5.73-5.35 5.73s-5.36-2.08-5.36-5.73zM139.18 118.38h-3.98v-2.46H146v2.46h-3.98v30.21h-2.84v-30.21zM154.71 143.14v-21.78c0-3.79 2.04-5.92 5.49-5.92s5.49 2.13 5.49 5.92v21.78c0 3.79-2.04 5.92-5.49 5.92s-5.49-2.13-5.49-5.92zm8.14-.47v-20.83c0-2.75-.76-3.84-2.65-3.84-1.94 0-2.65 1.09-2.65 3.84v20.83c0 2.75.71 3.83 2.65 3.83 1.89 0 2.65-1.09 2.65-3.83zM169.38 115.92h9.38v2.46h-6.53v11.88h5.68v2.46h-5.68v15.86h-2.84v-32.66zM190.69 119.14l-4.17 2.56v-2.65l5.21-3.22h1.75v32.76h-2.79v-29.45zM197.17 143.28v-22.06c0-3.69 1.94-5.78 5.35-5.78s5.35 2.08 5.35 5.78v22.06c0 3.69-1.94 5.78-5.35 5.78s-5.35-2.08-5.35-5.78zm7.91-.38v-21.3c0-2.65-.71-3.69-2.56-3.69s-2.56 1.04-2.56 3.69v21.31c0 2.65.71 3.69 2.56 3.69s2.56-1.04 2.56-3.7z"/><path class="st1" d="M35.27 158.27h5.4c3.79 0 5.59 1.94 5.59 5.92v5.11c0 3.98-1.8 5.92-5.59 5.92h-2.56v15.72h-2.84v-32.67zm5.07 14.49c2.37 0 3.08-.9 3.08-3.93v-4.17c0-3.03-.71-3.93-3.08-3.93h-2.23v12.03h2.23zM50.94 158.27h3.74l4.12 32.67h-2.89l-.95-8.1h-4.45l-.95 8.1h-2.75l4.13-32.67zm3.74 22.12l-1.89-17.61h-.09l-1.89 17.61h3.87zM62.82 160.74h-3.98v-2.46h10.8v2.46h-3.98v30.21h-2.84v-30.21zM72.39 158.27h2.84v32.67h-2.84v-32.67zM79.11 158.27h9.38v2.46h-6.53v11.41h5.68v2.46h-5.68v13.87h6.53v2.46h-9.38v-32.66zM91.42 158.27h3.69l5.16 23.91h.09v-23.91h2.56v32.67h-3.08L94.07 164h-.09v26.94h-2.56v-32.67zM109.65 160.74h-3.98v-2.46h10.8v2.46h-3.98v30.21h-2.84v-30.21zM118.69 185.59v-5.73h2.75v5.21c0 2.7.76 3.79 2.65 3.79 1.94 0 2.7-1.09 2.7-3.79v-4.92c0-2.23-.62-3.31-2.23-4.36l-2.51-1.61c-2.42-1.56-3.36-3.36-3.36-6.53v-4.21c0-3.6 1.94-5.63 5.3-5.63s5.3 2.04 5.3 5.63v4.21h-2.75v-3.74c0-2.56-.71-3.55-2.51-3.55-1.8 0-2.51.99-2.51 3.55v3.55c0 2.23.62 3.31 2.23 4.36l2.51 1.61c2.41 1.56 3.36 3.36 3.36 6.53v5.63c0 3.74-2.04 5.82-5.49 5.82-3.45.01-5.44-2.08-5.44-5.82zM139.04 158.27h3.69l5.16 23.91h.09v-23.91h2.56v32.67h-3.08L141.69 164h-.09v26.94h-2.56v-32.67zM154.24 185.5v-21.78c0-3.79 2.04-5.92 5.49-5.92s5.49 2.13 5.49 5.92v21.78c0 3.79-2.04 5.92-5.49 5.92s-5.49-2.13-5.49-5.92zm8.14-.47V164.2c0-2.75-.76-3.84-2.65-3.84-1.94 0-2.65 1.09-2.65 3.84v20.83c0 2.75.71 3.84 2.65 3.84 1.89-.01 2.65-1.1 2.65-3.84zM171.38 160.74h-3.98v-2.46h10.8v2.46h-3.98v30.21h-2.84v-30.21zM180.94 158.27h2.84v32.67h-2.84v-32.67zM187.47 185.78v-22.35c0-3.6 1.89-5.63 5.3-5.63 3.46 0 5.35 2.04 5.35 5.63v5.35h-2.7v-4.88c0-2.56-.76-3.55-2.56-3.55-1.85 0-2.56.99-2.56 3.55v21.4c0 2.56.71 3.55 2.56 3.55 1.8 0 2.56-.99 2.56-3.55v-6.58h2.7v7.05c0 3.6-1.89 5.63-5.35 5.63-3.4.02-5.3-2.02-5.3-5.62zM201.49 158.27h9.38v2.46h-6.53v11.41h5.68v2.46h-5.68v13.87h6.53v2.46h-9.38v-32.66zM213.79 158.27h5.4c3.79 0 5.59 1.94 5.59 5.92v20.83c0 3.98-1.8 5.92-5.59 5.92h-5.4v-32.67zm5.07 30.21c2.37 0 3.08-.9 3.08-3.93v-19.89c0-3.03-.71-3.93-3.08-3.93h-2.23v27.75h2.23zM237.61 158.27h3.74l4.12 32.67h-2.89l-.95-8.1h-4.45l-.95 8.1h-2.75l4.13-32.67zm3.74 22.12l-1.89-17.61h-.09l-1.89 17.61h3.87zM248.26 158.27h3.69l5.16 23.91h.09v-23.91h2.56v32.67h-3.08L250.91 164h-.09v26.94h-2.56v-32.67zM45.37 241h2.84v32.67h-2.84V241zM52.09 241h3.69l5.16 23.91h.09V241h2.56v32.67h-3.08l-5.78-26.94h-.09v26.94h-2.56V241zM73.63 241h2.84v13.87h5.35V241h2.84v32.67h-2.84v-16.33h-5.35v16.33h-2.84V241zM88.35 268.22v-21.78c0-3.79 2.04-5.92 5.49-5.92s5.49 2.13 5.49 5.92v21.78c0 3.79-2.04 5.92-5.49 5.92s-5.49-2.13-5.49-5.92zm8.15-.47v-20.83c0-2.75-.76-3.83-2.65-3.83-1.94 0-2.65 1.09-2.65 3.83v20.83c0 2.75.71 3.84 2.65 3.84 1.89 0 2.65-1.09 2.65-3.84zM101.85 241h2.89l2.46 26.47h.09l2.84-26.47h2.84l2.84 26.47h.09l2.46-26.47h2.65l-3.55 32.67h-3.27l-2.65-24.38h-.09l-2.65 24.38h-3.41L101.85 241zM128.97 241h2.89l2.46 26.47h.09l2.84-26.47h2.84l2.84 26.47h.09L145.5 241h2.65l-3.55 32.67h-3.27l-2.65-24.38h-.09l-2.65 24.38h-3.41L128.97 241zM150.99 241h9.37v2.46h-6.53v11.41h5.68v2.46h-5.68v13.87h6.53v2.46h-9.37V241zM163.3 241h2.84v30.21h6.06v2.46h-8.9V241zM174.94 241h2.84v30.21h6.06v2.46h-8.9V241zM195.58 243.46h-3.98V241h10.8v2.46h-3.98v30.21h-2.84v-30.21zM205.14 241h2.84v13.87h5.35V241h2.84v32.67h-2.84v-16.33h-5.35v16.33h-2.84V241zM220.06 241h9.38v2.46h-6.53v11.41h5.68v2.46h-5.68v13.87h6.53v2.46h-9.38V241zM232.37 241h2.84v32.67h-2.84V241zM239.09 241h5.26c3.79 0 5.59 1.94 5.59 5.92v4.17c0 2.65-.85 4.26-2.56 5.02v.09c1.7.76 2.56 2.37 2.56 5.07v12.41h-2.84v-12.22c0-3.03-.85-3.93-3.55-3.93h-1.61v16.15h-2.84V241zm4.92 14.06c2.37 0 3.08-.9 3.08-3.93v-3.74c0-3.03-.71-3.93-3.08-3.93h-2.08v11.6h2.08zM53.92 310.87v-22.35c0-3.6 1.89-5.63 5.3-5.63 3.46 0 5.35 2.04 5.35 5.63v5.35h-2.7v-4.88c0-2.56-.76-3.55-2.56-3.55-1.85 0-2.56.99-2.56 3.55v21.4c0 2.56.71 3.55 2.56 3.55 1.8 0 2.56-.99 2.56-3.55v-6.58h2.7v7.05c0 3.6-1.89 5.63-5.35 5.63-3.41.01-5.3-2.02-5.3-5.62zM67.93 283.36h2.84v30.21h6.06v2.46h-8.9v-32.67zM79.01 310.58V288.8c0-3.79 2.04-5.92 5.49-5.92 3.46 0 5.49 2.13 5.49 5.92v21.78c0 3.79-2.04 5.92-5.49 5.92s-5.49-2.13-5.49-5.92zm8.14-.47v-20.83c0-2.75-.76-3.83-2.65-3.83-1.94 0-2.65 1.09-2.65 3.83v20.83c0 2.75.71 3.84 2.65 3.84 1.9 0 2.65-1.09 2.65-3.84zM96.15 285.82h-3.98v-2.46h10.8v2.46h-3.98v30.21h-2.84v-30.21zM105.71 283.36h2.84v13.87h5.35v-13.87h2.84v32.67h-2.84V299.7h-5.35v16.33h-2.84v-32.67zM120.62 283.36H130v2.46h-6.53v11.41h5.68v2.46h-5.68v13.87H130v2.46h-9.38v-32.66zM132.51 310.68v-5.73h2.75v5.21c0 2.7.76 3.79 2.65 3.79 1.94 0 2.7-1.09 2.7-3.79v-4.92c0-2.23-.62-3.31-2.23-4.36l-2.51-1.61c-2.42-1.56-3.36-3.36-3.36-6.53v-4.21c0-3.6 1.94-5.63 5.3-5.63s5.3 2.04 5.3 5.63v4.21h-2.75V289c0-2.56-.71-3.55-2.51-3.55-1.8 0-2.51.99-2.51 3.55v3.55c0 2.23.62 3.31 2.23 4.36l2.51 1.61c2.41 1.56 3.36 3.36 3.36 6.53v5.63c0 3.74-2.04 5.82-5.49 5.82-3.46 0-5.44-2.08-5.44-5.82zM152.86 283.36h9.38v2.46h-6.53v11.88h5.68v2.46h-5.68v15.86h-2.84v-32.66zM164.98 283.36h2.84v32.67h-2.84v-32.67zM174.54 285.82h-3.98v-2.46h10.8v2.46h-3.98v30.21h-2.84v-30.21zM190.07 310.58V288.8c0-3.79 2.04-5.92 5.49-5.92s5.49 2.13 5.49 5.92v21.78c0 3.79-2.04 5.92-5.49 5.92s-5.49-2.13-5.49-5.92zm8.15-.47v-20.83c0-2.75-.76-3.83-2.65-3.83-1.94 0-2.65 1.09-2.65 3.83v20.83c0 2.75.71 3.84 2.65 3.84 1.89 0 2.65-1.09 2.65-3.84zM203.56 283.36h2.89l2.98 27.46h.09l2.98-27.46h2.7l-3.93 32.67h-3.79l-3.92-32.67zM218.05 283.36h9.38v2.46h-6.53v11.41h5.68v2.46h-5.68v13.87h6.53v2.46h-9.38v-32.66zM230.36 283.36h5.26c3.79 0 5.59 1.94 5.59 5.92v4.17c0 2.65-.85 4.26-2.56 5.02v.09c1.7.76 2.56 2.37 2.56 5.07v12.41h-2.84v-12.22c0-3.03-.85-3.93-3.55-3.93h-1.61v16.15h-2.84v-32.68zm4.92 14.06c2.37 0 3.08-.9 3.08-3.93v-3.74c0-3.03-.71-3.93-3.08-3.93h-2.08v11.6h2.08zM64.19 328.18h-3.98v-2.46h10.8v2.46h-3.98v30.21h-2.84v-30.21zM73.75 325.72h5.26c3.79 0 5.59 1.94 5.59 5.92v4.17c0 2.65-.85 4.26-2.56 5.02v.09c1.7.76 2.56 2.37 2.56 5.07v12.41h-2.84v-12.22c0-3.03-.85-3.93-3.55-3.93H76.6v16.15h-2.84v-32.68zm4.93 14.06c2.37 0 3.08-.9 3.08-3.93v-3.74c0-3.03-.71-3.93-3.08-3.93H76.6v11.6h2.08zM88.24 325.72h9.38v2.46h-6.53v11.41h5.68v2.46h-5.68v13.87h6.53v2.46h-9.38v-32.66zM103.72 325.72h3.74l4.12 32.67h-2.89l-.95-8.1h-4.45l-.95 8.1H99.6l4.12-32.67zm3.74 22.11l-1.89-17.61h-.09l-1.89 17.61h3.87zM115.6 328.18h-3.98v-2.46h10.8v2.46h-3.98v30.21h-2.84v-30.21zM125.17 325.72h9.38v2.46h-6.53v11.41h5.68v2.46h-5.68v13.87h6.53v2.46h-9.38v-32.66zM137.48 325.72h5.4c3.79 0 5.59 1.94 5.59 5.92v20.83c0 3.98-1.8 5.92-5.59 5.92h-5.4v-32.67zm5.06 30.2c2.37 0 3.08-.9 3.08-3.93V332.1c0-3.03-.71-3.93-3.08-3.93h-2.23v27.75h2.23zM161.29 325.72h3.74l4.12 32.67h-2.89l-.95-8.1h-4.45l-.95 8.1h-2.75l4.13-32.67zm3.74 22.11l-1.89-17.61h-.09l-1.89 17.61h3.87zM171.94 325.72h5.26c3.79 0 5.59 1.94 5.59 5.92v4.17c0 2.65-.85 4.26-2.56 5.02v.09c1.7.76 2.56 2.37 2.56 5.07v12.41h-2.84v-12.22c0-3.03-.85-3.93-3.55-3.93h-1.61v16.15h-2.84v-32.68zm4.92 14.06c2.37 0 3.08-.9 3.08-3.93v-3.74c0-3.03-.71-3.93-3.08-3.93h-2.08v11.6h2.08zM186.43 325.72h9.38v2.46h-6.53v11.41h5.68v2.46h-5.68v13.87h6.53v2.46h-9.38v-32.66zM201.91 325.72h3.74l4.12 32.67h-2.89l-.95-8.1h-4.45l-.95 8.1h-2.75l4.13-32.67zm3.74 22.11l-1.89-17.61h-.09l-1.89 17.61h3.87zM212.04 353.04v-5.73h2.75v5.21c0 2.7.76 3.79 2.65 3.79 1.94 0 2.7-1.09 2.7-3.79v-4.92c0-2.23-.62-3.31-2.22-4.36l-2.51-1.61c-2.42-1.56-3.36-3.36-3.36-6.53v-4.21c0-3.6 1.94-5.63 5.3-5.63s5.3 2.04 5.3 5.63v4.21h-2.75v-3.74c0-2.56-.71-3.55-2.51-3.55-1.8 0-2.51.99-2.51 3.55v3.55c0 2.23.62 3.31 2.22 4.36l2.51 1.61c2.42 1.56 3.36 3.36 3.36 6.53v5.63c0 3.74-2.04 5.82-5.49 5.82s-5.44-2.08-5.44-5.82zM226.24 354.5h3.17v3.88h-3.17v-3.88zM231.15 328.1l-2.37 1.49-.63-1.05 2.48-1.33-2.48-1.3.63-1.05 2.37 1.49-.14-2.79h1.24l-.14 2.79 2.37-1.49.63 1.05-2.48 1.33 2.48 1.3-.63 1.05-2.37-1.49.14 2.79h-1.24l.14-2.79z"/><g><path class="st0" d="M57.44 216.92c.85-1.69 1.78-3.3 2.97-4.66l.34-.34c.34-.17.68-.08 1.02.17.25.25.42.68.25 1.02-.08.08-.17.25-.25.34-1.78 2.54-3.9 6.44-3.98 9.07 0 .59.25.76.68.68.68-.17 1.27-.51 1.78-.85 2.63-1.95 5-4.15 7.2-6.35 1.86.17 1.52 1.27.93 1.78-2.37 2.2-4.49 4.41-6.95 6.18-.76.51-1.61.93-2.63 1.1-1.44.17-2.63-.76-2.8-2.2-.26-2.13.67-4.16 1.44-5.94zm5.67-8.3c-.51 0-.93-.42-1.02-.85 0-.51.42-.93 1.02-.93.42 0 .76.34.85.76.08.6-.34 1.02-.85 1.02z"/><path class="st0" d="M97.68 217.77c-2.37 2.37-4.74 4.83-7.29 6.95-1.27 1.1-3.64 3.05-5.25 3.3-1.36.25-2.2-.85-2.12-2.12.17-3.47 2.03-5.93 3.64-8.81-1.95 1.02-4.07 2.8-5.76 4.15-1.86 1.36-4.15 3.64-6.01 4.32-1.19.42-2.12-.42-2.03-1.61.25-1.27.68-2.46 1.27-3.73.76-1.69 1.61-3.39 2.2-5.25.08-.42.34-.93.34-1.69-1.61.85-2.97 1.86-4.24 3.3-2.71 2.71-4.91 5.76-7.03 8.9-.68 1.02-1.36 1.95-2.03 2.96-.42.68-.85.93-1.61.59a.935.935 0 0 1-.51-.85c0-.76.51-1.61.85-2.37 1.52-3.05 3.22-6.1 4.91-9.15 1.36-2.46 2.71-5 4.24-7.96.25-.51.59-.68 1.02-.59.68.17.76.93.51 1.53-1.1 2.8-2.54 5.25-4.07 8.22 1.69-1.86 3.47-3.81 5.76-5.59 1.36-1.02 3.9-1.61 4.07.93.17 2.71-2.71 8.39-3.73 10.25 1.36-.85 2.88-2.03 4.41-3.3 2.37-1.95 6.44-5 7.88-5.51 1.02-.34 1.86.34 1.78 1.44 0 1.19-.76 2.29-1.36 3.39-.93 1.78-1.78 3.56-2.37 5.42-.08.42-.25.76-.25 1.36.42-.17.76-.34 1.02-.51.93-.68 1.95-1.36 2.8-2.12 2.88-2.37 5.34-5.08 8.13-7.62 1.93.58 1 1.6.83 1.77z"/><path class="st0" d="M110.13 209.89c1.61-.17 3.73.59 4.24 3.05.34 1.86-.34 3.81-1.1 5.34 2.29 0 4.66-.93 6.86-2.03.17-.08.42-.25.42-.25 1.52.25 1.1 1.52.51 1.86-2.96 1.44-5.59 2.29-8.39 2.29-.42.08-.68.17-.93.59-1.52 2.2-3.3 4.24-5.51 5.76-2.12 1.53-4.49 2.46-6.95 2.03-1.69-.34-2.71-1.61-2.63-3.39.17-2.12 1.52-3.9 3.13-5 3.47-2.2 7.03-2.03 10.84-1.78.25 0 .42-.08.59-.34.76-1.52 2.29-6.1-.34-6.18-4.41.34-8.81 4.58-11.35 7.71-5 6.27-8.98 13.13-12.45 19.99-.85 1.69-1.69 3.47-2.63 5.17-.51.85-.76.85-1.27.68-.76-.42-.59-.93-.42-1.52 2.12-4.58 4.24-9.06 6.52-13.55 2.03-3.81 3.98-7.71 6.01-11.52 1.27-2.29 2.29-4.32 3.39-5.93.25-.42.76-.34 1.1-.17.42.25.59.51.34 1.02-1.02 1.95-1.95 3.9-2.88 5.59 3.41-4.34 7.9-8.66 12.9-9.42zm-5.76 10.25c-2.8.59-5.25 2.37-5.85 4.91-.17.85.25 1.53 1.19 1.69 2.12.17 3.98-.68 5.59-1.86 1.61-1.27 3.05-2.46 4.49-4.66-2.03-.16-3.73-.33-5.42-.08z"/><path class="st0" d="M119.03 224.97c-.59.93-.76 1.44-1.44 1.78-.59.17-1.27-.25-1.36-.85-.17-.59.34-1.69.85-2.8 2.2-4.57 3.98-8.13 5.93-11.52.17-.34.42-.51.85-.51.51.08.93.68.76 1.19s-.17.59-.42 1.19c.93-.34 1.78.17 1.95 1.02.34 1.61-.34 4.57 2.37 4.83 1.95.25 4.32-1.44 6.61-2.96.17-.17.51-.34.51-.34 1.61.17 1.78 1.27.76 1.95-2.29 1.69-5.08 3.73-8.3 3.3-2.96-.51-3.81-2.54-3.81-4.91-2.05 3.04-2.81 4.23-5.26 8.63z"/><path class="st0" d="M141.22 218.7c2.37-.25 5.34-1.44 6.95-2.71 1.78.42 1.1 1.52.68 1.86-1.02.76-2.2 1.44-3.39 1.86-2.12.68-4.32 1.1-5.93.93.34.68.51 2.2.08 3.39-.76 2.12-2.2 3.64-4.58 3.9-3.05.17-3.9-2.71-3.3-5.08 1.1-4.07 4.66-8.64 8.05-10.17 1.36-.59 2.63-.17 2.63 1.52 0 1.78-2.03 3.73-2.97 4.49.51.1 1.19.1 1.78.01zm-4.07 2.03c-1.1.85-2.12 1.69-3.3 2.37-.17.08-.25.17-.25.34-.17.51-.25 1.1-.17 1.69.17 1.02.76 1.36 1.61 1.19 1.69-.42 2.54-1.78 2.88-3.39.17-.93-.08-1.61-.51-2.29-.17.01-.17.01-.26.09zm2.72-5.76c-1.61 1.1-2.96 2.54-3.98 4.24 1.69-1.44 2.96-2.71 3.98-4.24z"/><path class="st0" d="M163.5 218.96c-1.44 1.44-3.98 3.3-6.1 3.39-1.78.08-3.05-.93-3.13-2.88-1.86 2.12-4.41 5.85-6.44 7.54-.42.34-.85.59-1.36.59-.93.08-1.61-.51-1.78-1.36-.25-1.27.59-3.9 1.36-5.76 1.36-3.22 3.13-6.44 4.83-9.4.34-.51.85-.85 1.27-.59.34.17.59.59.42.93-2.12 4.07-3.13 6.02-4.74 9.57-.51 1.1-1.44 3.64-1.44 4.91 2.63-2.2 5.76-6.78 8.39-10.25.42-.42 1.02-1.02 1.69-.68.76.42.51 1.36.25 2.03-.17.51-.85 3.22.17 3.64.93.42 4.74-1.61 7.12-4.66 1.86.35.93 1.53-.51 2.98z"/><path class="st0" d="M171.29 210.06c1.1 0 1.78.93 1.61 1.95-1.02 3.05-3.98 5.34-6.61 6.52-.51.25-1.1.42-1.61.42-.25 0-.34.08-.42.25-.51 1.1-.93 2.46-.85 3.39.17 2.29 3.05.59 3.98 0 3.13-2.37 8.13-6.61 8.13-6.61 1.78.17 1.36 1.36.76 1.78-2.71 2.29-5.34 4.74-8.05 6.52-1.44.93-2.96 1.53-4.49 1.27-1.19-.25-2.03-1.36-2.2-2.71-.25-2.2 1.19-5.59 3.22-7.96 1.79-2.02 4.5-4.82 6.53-4.82zm-5.5 6.78c2.03-1.19 3.81-2.63 5-4.66-1.27.34-4.83 3.64-5 4.66z"/><path class="st0" d="M205.77 217.77c-2.37 2.37-4.74 4.83-7.29 6.95-1.27 1.1-3.64 3.05-5.25 3.3-1.36.25-2.2-.85-2.12-2.12.17-3.47 2.03-5.93 3.64-8.81-1.95 1.02-4.07 2.8-5.76 4.15-1.86 1.36-4.15 3.64-6.01 4.32-1.19.42-2.12-.42-2.03-1.61.25-1.27.68-2.46 1.27-3.73.76-1.69 1.61-3.39 2.2-5.25.08-.42.34-.93.34-1.69-1.61.85-2.96 1.86-4.24 3.3-2.71 2.71-4.91 5.76-7.03 8.9-.68 1.02-1.36 1.95-2.03 2.96-.42.68-.85.93-1.61.59a.935.935 0 0 1-.51-.85c0-.76.51-1.61.85-2.37 1.52-3.05 3.22-6.1 4.91-9.15 1.36-2.46 2.71-5 4.24-7.96.25-.51.59-.68 1.02-.59.68.17.76.93.51 1.53-1.1 2.8-2.54 5.25-4.07 8.22 1.69-1.86 3.47-3.81 5.76-5.59 1.36-1.02 3.9-1.61 4.07.93.17 2.71-2.71 8.39-3.73 10.25 1.36-.85 2.88-2.03 4.41-3.3 2.37-1.95 6.44-5 7.88-5.51 1.02-.34 1.86.34 1.78 1.44 0 1.19-.76 2.29-1.36 3.39-.93 1.78-1.78 3.56-2.37 5.42-.08.42-.25.76-.25 1.36.42-.17.76-.34 1.02-.51.93-.68 1.95-1.36 2.79-2.12 2.88-2.37 5.34-5.08 8.13-7.62 1.95.58 1.01 1.6.84 1.77z"/><path class="st0" d="M212.21 210.06c1.1 0 1.78.93 1.61 1.95-1.02 3.05-3.98 5.34-6.61 6.52-.51.25-1.1.42-1.61.42-.25 0-.34.08-.42.25-.51 1.1-.93 2.46-.85 3.39.17 2.29 3.05.59 3.98 0 3.13-2.37 8.13-6.61 8.13-6.61 1.78.17 1.36 1.36.76 1.78-2.71 2.29-5.34 4.74-8.05 6.52-1.44.93-2.96 1.53-4.49 1.27-1.19-.25-2.03-1.36-2.2-2.71-.25-2.2 1.19-5.59 3.22-7.96 1.79-2.02 4.5-4.82 6.53-4.82zm-5.51 6.78c2.03-1.19 3.81-2.63 5-4.66-1.27.34-4.83 3.64-5 4.66z"/><path class="st0" d="M219.83 216.33c.34-.34.93-.85 1.61-1.1 1.1-.34 2.03.34 1.86 1.53-.34 2.46-.76 6.01-.59 7.37.76-.17 4.57-3.98 6.52-5.93.68-.68 1.44-1.52 2.12-2.2 1.86.17 1.27 1.44.85 1.86-1.1 1.19-1.53 1.61-2.63 2.79-2.03 1.95-4.74 5.08-6.52 5.34-1.02.17-1.78-.34-2.12-1.36-.59-1.36-.08-4.83.34-6.95-.68.59-2.8 2.63-3.9 3.9-1.19 1.44-2.37 2.8-3.64 4.24-.68.59-.93.68-1.36.42-.93-.51-.34-1.78.08-2.63 2.12-4.24 4.41-8.56 6.61-12.79.17-.42.51-.68.85-.59.42.08.76.51.76.93-1.19 2.88-2.37 5.34-3.73 7.96 1.11-1.1 2.05-2.03 2.89-2.79z"/><path class="st0" d="M246.18 199.56c3.05 0 5.08.08 7.12.25.85.08 1.78.42 1.44 1.36-.51 1.02-1.27.51-2.03.51-2.46-.08-4.91-.17-7.37-.25-.34 0-.51.08-.76.42-2.03 2.88-4.58 5.59-7.2 7.62-.25.17-.51.42-.68.76-5.59 9.83-10.5 19.48-13.89 29.57-.17.34-.17.68-.17 1.1 0 .42-.17.68-.51.85s-.68.08-1.02-.25c-.51-.68-.34-1.44-.17-2.12 3.3-10.17 8.05-19.23 12.79-27.7 2.29-3.98 4.24-7.12 6.1-10.25-4.91 0-8.73.17-12.54.17-.76.17-2.37-.42-1.61-1.53.51-.68 2.2-.17 2.79-.17 4.24-.08 8.22-.34 12.28-.34.25 0 .42-.08.68-.34 1.1-1.61 3.22-5.51 5.17-5.59 1.19.08 1.44.85 1.27 1.69-.33 1.35-1.01 2.88-1.69 4.24zm-4.23 2.03c-.25.42-.51.85-.93 1.78.51-.59 1.02-1.36 1.52-1.86-.43-.09-.43-.09-.59.08zm2.11-2.12c.34-.51.68-1.27.93-1.86-.59.68-1.02 1.27-1.44 1.86.26.09.34 0 .51 0z"/></g></svg>