<svg id="Layer_1" xmlns="http://www.w3.org/2000/svg" viewBox="0 0 300 600"><style>.st0{fill:#00a9e0}</style><path class="st0" d="M80.78 118.39H76.8v-2.47h10.81v2.47h-3.98v30.26h-2.85v-30.26zM91.55 115.92h3.75l4.13 32.72h-2.89l-.95-8.11h-4.46l-.95 8.11h-2.75l4.12-32.72zm3.74 22.15l-1.9-17.64h-.09l-1.9 17.64h3.89zM101.98 115.92h2.85v30.26h6.07v2.47h-8.92v-32.73zM122.42 148.64l-6.07-16.5h-.09v16.5h-2.85v-32.72h2.85v15.27h.09l5.93-15.27h2.89l-6.12 15.6 6.4 17.12h-3.03zM136.74 118.39h-3.98v-2.47h10.81v2.47h-3.98v30.26h-2.85v-30.26zM145.51 143.19v-21.82c0-3.79 2.04-5.93 5.5-5.93s5.5 2.13 5.5 5.93v21.82c0 3.79-2.04 5.93-5.5 5.93s-5.5-2.14-5.5-5.93zm8.16-.48v-20.87c0-2.75-.76-3.84-2.66-3.84-1.94 0-2.66 1.09-2.66 3.84v20.87c0 2.75.71 3.84 2.66 3.84 1.9.01 2.66-1.08 2.66-3.84zM169.32 133.37l-4.6-17.45h2.94l3.13 12.95h.09l3.13-12.95h2.75l-4.6 17.45v15.27h-2.84v-15.27zM178.33 143.19v-21.82c0-3.79 2.04-5.93 5.5-5.93s5.5 2.13 5.5 5.93v21.82c0 3.79-2.04 5.93-5.5 5.93s-5.5-2.14-5.5-5.93zm8.15-.48v-20.87c0-2.75-.76-3.84-2.66-3.84-1.94 0-2.66 1.09-2.66 3.84v20.87c0 2.75.71 3.84 2.66 3.84 1.9.01 2.66-1.08 2.66-3.84zM192.69 143.38v-27.46h2.85v26.94c0 2.66.66 3.7 2.56 3.7s2.56-1.04 2.56-3.7v-26.94h2.75v27.46c0 3.65-1.99 5.74-5.36 5.74-3.36 0-5.36-2.09-5.36-5.74zM206.97 115.92h5.26c3.79 0 5.6 1.94 5.6 5.93v4.17c0 2.66-.85 4.27-2.56 5.03v.09c1.71.76 2.56 2.37 2.56 5.07v12.43h-2.85V136.4c0-3.04-.85-3.94-3.56-3.94h-1.61v16.17h-2.85v-32.71zm4.93 14.09c2.37 0 3.08-.9 3.08-3.94v-3.75c0-3.04-.71-3.94-3.08-3.94h-2.09V130h2.09zM51.37 158.35h5.41c3.79 0 5.6 1.94 5.6 5.93v5.12c0 3.98-1.8 5.93-5.6 5.93h-2.56v15.75h-2.85v-32.73zm5.07 14.51c2.37 0 3.08-.9 3.08-3.94v-4.17c0-3.04-.71-3.94-3.08-3.94h-2.23v12.05h2.23zM65.21 158.35h5.26c3.79 0 5.6 1.94 5.6 5.93v4.17c0 2.66-.85 4.27-2.56 5.03v.09c1.71.76 2.56 2.37 2.56 5.07v12.43h-2.85v-12.24c0-3.04-.85-3.94-3.56-3.94h-1.61v16.17H65.2v-32.71zm4.94 14.09c2.37 0 3.08-.9 3.08-3.94v-3.75c0-3.04-.71-3.94-3.08-3.94h-2.09v11.62h2.09zM79.3 185.62V163.8c0-3.79 2.04-5.93 5.5-5.93s5.5 2.13 5.5 5.93v21.82c0 3.79-2.04 5.93-5.5 5.93s-5.5-2.14-5.5-5.93zm8.15-.47v-20.87c0-2.75-.76-3.84-2.66-3.84-1.94 0-2.66 1.09-2.66 3.84v20.87c0 2.75.71 3.84 2.66 3.84 1.91 0 2.66-1.09 2.66-3.84zM92.58 158.35h2.89l2.99 27.51h.09l2.99-27.51h2.7l-3.94 32.72h-3.79l-3.93-32.72zM106.85 158.35h2.85v32.72h-2.85v-32.72zM113.35 158.35h5.41c3.79 0 5.6 1.94 5.6 5.93v20.87c0 3.98-1.8 5.93-5.6 5.93h-5.41v-32.73zm5.07 30.26c2.37 0 3.08-.9 3.08-3.94v-19.92c0-3.04-.71-3.94-3.08-3.94h-2.23v27.79h2.23zM127.76 158.35h9.39v2.47h-6.54v11.43h5.69v2.47h-5.69v13.9h6.54v2.47h-9.39v-32.74zM139.85 158.35h5.26c3.79 0 5.6 1.94 5.6 5.93v4.17c0 2.66-.85 4.27-2.56 5.03v.09c1.71.76 2.56 2.37 2.56 5.07v12.43h-2.85v-12.24c0-3.04-.85-3.94-3.56-3.94h-1.61v16.17h-2.85v-32.71zm4.94 14.09c2.37 0 3.08-.9 3.08-3.94v-3.75c0-3.04-.71-3.94-3.08-3.94h-2.09v11.62h2.09zM163.09 158.35h3.75l4.13 32.72h-2.89l-.95-8.11h-4.46l-.95 8.11h-2.75l4.12-32.72zm3.75 22.15l-1.9-17.64h-.09l-1.9 17.64h3.89zM173.52 158.35h5.26c3.79 0 5.6 1.94 5.6 5.93v3.94c0 2.66-.81 4.27-2.47 5.03v.09c1.8.76 2.66 2.37 2.66 5.12v6.69c0 3.98-1.8 5.93-5.6 5.93h-5.45v-32.73zm4.93 13.9c2.37 0 3.08-.9 3.08-3.89v-3.6c0-3.04-.71-3.94-3.08-3.94h-2.09v11.43h2.09zm.19 16.36c2.37 0 3.08-.9 3.08-3.94v-6.02c0-3.04-.71-3.94-3.08-3.94h-2.28v13.9h2.28zM187.61 185.62V163.8c0-3.79 2.04-5.93 5.5-5.93s5.5 2.13 5.5 5.93v21.82c0 3.79-2.04 5.93-5.5 5.93s-5.5-2.14-5.5-5.93zm8.15-.47v-20.87c0-2.75-.76-3.84-2.66-3.84-1.94 0-2.66 1.09-2.66 3.84v20.87c0 2.75.71 3.84 2.66 3.84 1.9 0 2.66-1.09 2.66-3.84zM201.97 185.81v-27.46h2.85v26.94c0 2.66.66 3.7 2.56 3.7s2.56-1.04 2.56-3.7v-26.94h2.75v27.46c0 3.65-1.99 5.74-5.36 5.74-3.36 0-5.36-2.09-5.36-5.74zM219.09 160.82h-3.98v-2.47h10.81v2.47h-3.98v30.26h-2.85v-30.26zM237.4 158.35h3.75l4.12 32.72h-2.89l-.95-8.11h-4.46l-.95 8.11h-2.75l4.13-32.72zm3.74 22.15l-1.9-17.64h-.09l-1.9 17.64h3.89zM72.93 200.78h5.41c3.79 0 5.6 1.94 5.6 5.93v5.12c0 3.98-1.8 5.93-5.6 5.93h-2.56v15.75h-2.85v-32.73zM78 215.29c2.37 0 3.08-.9 3.08-3.94v-4.17c0-3.04-.71-3.94-3.08-3.94h-2.23v12.05H78zM86.78 200.78h9.39v2.47h-6.54v11.43h5.69v2.47h-5.69v13.9h6.54v2.47h-9.39v-32.74zM98.87 200.78h5.26c3.79 0 5.6 1.94 5.6 5.93v4.17c0 2.66-.85 4.27-2.56 5.03v.09c1.71.76 2.56 2.37 2.56 5.08v12.42h-2.85v-12.24c0-3.04-.85-3.94-3.56-3.94h-1.61v16.17h-2.85v-32.71zm4.93 14.09c2.37 0 3.08-.9 3.08-3.94v-3.75c0-3.04-.71-3.94-3.08-3.94h-2.09v11.62h2.09zM112.62 228.14v-5.74h2.75v5.22c0 2.7.76 3.79 2.66 3.79 1.94 0 2.7-1.09 2.7-3.79v-4.93c0-2.23-.62-3.32-2.23-4.36l-2.51-1.61c-2.42-1.57-3.37-3.37-3.37-6.54v-4.22c0-3.6 1.94-5.64 5.31-5.64s5.31 2.04 5.31 5.64v4.22h-2.75v-3.75c0-2.56-.71-3.56-2.51-3.56s-2.51 1-2.51 3.56v3.56c0 2.23.62 3.32 2.23 4.36l2.51 1.61c2.42 1.56 3.37 3.37 3.37 6.54v5.64c0 3.75-2.04 5.83-5.5 5.83s-5.46-2.08-5.46-5.83zM126.42 228.05v-21.81c0-3.79 2.04-5.93 5.5-5.93s5.5 2.13 5.5 5.93v21.81c0 3.79-2.04 5.93-5.5 5.93s-5.5-2.14-5.5-5.93zm8.16-.47v-20.87c0-2.75-.76-3.84-2.66-3.84-1.94 0-2.66 1.09-2.66 3.84v20.87c0 2.75.71 3.84 2.66 3.84 1.9 0 2.66-1.09 2.66-3.84zM140.88 200.78h3.7l5.17 23.95h.1v-23.95h2.56v32.72h-3.08l-5.79-26.98h-.09v26.98h-2.56v-32.72zM159.09 200.78h3.75l4.13 32.72h-2.89l-.95-8.11h-4.46l-.95 8.11h-2.75l4.12-32.72zm3.75 22.15l-1.9-17.64h-.09l-1.9 17.64h3.89zM169.52 200.78h2.85v30.26h6.07v2.47h-8.92v-32.73zM180.95 200.78h2.85v32.72h-2.85v-32.72zM186.41 231.27l7.73-28.03h-7.26v-2.47h10.24V203l-7.73 28.03h7.73v2.47H186.4v-2.23zM199.78 200.78h9.39v2.47h-6.54v11.43h5.69v2.47h-5.69v13.9h6.54v2.47h-9.39v-32.74zM211.87 200.78h5.41c3.79 0 5.6 1.94 5.6 5.93v20.87c0 3.98-1.8 5.93-5.6 5.93h-5.41v-32.73zm5.07 30.26c2.37 0 3.08-.9 3.08-3.94v-19.92c0-3.04-.71-3.94-3.08-3.94h-2.23v27.79h2.23zM57.84 245.68h-3.98v-2.47h10.81v2.47h-3.98v30.26h-2.85v-30.26zM67.18 243.21h5.26c3.79 0 5.6 1.94 5.6 5.93v4.17c0 2.66-.85 4.27-2.56 5.03v.09c1.71.76 2.56 2.37 2.56 5.08v12.42h-2.85V263.7c0-3.04-.85-3.94-3.56-3.94h-1.61v16.17h-2.85v-32.72zm4.93 14.08c2.37 0 3.08-.9 3.08-3.94v-3.75c0-3.04-.71-3.94-3.08-3.94h-2.09v11.62h2.09zM81.45 243.21h9.39v2.47H84.3v11.43h5.69v2.47H84.3v13.9h6.54v2.47h-9.39v-32.74zM96.72 243.21h3.75l4.13 32.72h-2.89l-.95-8.11H96.3l-.95 8.11H92.6l4.12-32.72zm3.75 22.15l-1.9-17.64h-.09l-1.9 17.64h3.89zM108.39 245.68h-3.98v-2.47h10.81v2.47h-3.98v30.26h-2.85v-30.26zM117.73 243.21h4.51l3.65 24.14h.09l3.65-24.14h4.69v32.72h-2.85v-29.26h-.09l-4.41 29.26h-2.23l-4.41-29.26h-.09v29.26h-2.51v-32.72zM137.98 243.21h9.39v2.47h-6.54v11.43h5.69v2.47h-5.69v13.9h6.54v2.47h-9.39v-32.74zM150.07 243.21h3.7l5.17 23.95h.09v-23.95h2.56v32.72h-3.08l-5.79-26.98h-.1v26.98h-2.56v-32.72zM168.09 245.68h-3.98v-2.47h10.81v2.47h-3.98v30.26h-2.85v-30.26zM183.36 243.21h5.41c3.79 0 5.6 1.94 5.6 5.93v5.12c0 3.98-1.8 5.93-5.6 5.93h-2.56v15.75h-2.85v-32.73zm5.07 14.51c2.37 0 3.08-.9 3.08-3.94v-4.17c0-3.04-.71-3.94-3.08-3.94h-2.23v12.05h2.23zM197.2 243.21h2.85v30.26h6.07v2.47h-8.92v-32.73zM211.81 243.21h3.75l4.12 32.72h-2.89l-.95-8.11h-4.46l-.95 8.11h-2.75l4.13-32.72zm3.75 22.15l-1.9-17.64h-.09l-1.9 17.64h3.89zM222.24 243.21h3.7l5.17 23.95h.09v-23.95h2.56v32.72h-3.08l-5.79-26.98h-.1v26.98h-2.56v-32.72zM237.42 272.04h3.18v3.89h-3.18v-3.89z"/></svg>