<svg id="Layer_1" xmlns="http://www.w3.org/2000/svg" viewBox="0 0 300 600"><style>.st0{fill:#fff}.st1{fill:#002554}</style><path class="st0" d="M64.75 309.5h170.5v34.04H64.75z"/><path class="st1" d="M84.93 323.42v2.15h4.03v2.08h-4.03v4.05h-2.49v-10.42h6.86v2.15h-4.37zM91.43 331.69v-10.42h2.53v10.42h-2.53zM103.25 331.69l-4.2-6.82h-.04l.06 6.82h-2.44v-10.42h2.87l4.18 6.8h.04l-.06-6.8h2.44v10.42h-2.85zM112.66 331.69h-3.89v-10.42h3.77c2.96 0 5.96 1.24 5.96 5.18 0 3.67-2.97 5.24-5.84 5.24zm-.18-8.27h-1.25v6.1h1.19c1.8 0 3.46-.74 3.46-3.06 0-2.35-1.66-3.04-3.4-3.04zM131.67 331.69l-.81-2.05h-4.04l-.77 2.05h-2.74l4.37-10.42h2.44l4.33 10.42h-2.78zm-2.79-7.64l-1.33 3.58h2.62l-1.29-3.58zM143.55 327.76h-1.25v3.93h-2.52v-10.42h3.83c2.28 0 4.08.82 4.08 3.21 0 2.41-1.96 3.28-4.14 3.28zm-.15-4.46h-1.1v2.46h1.06c.94 0 1.81-.28 1.81-1.27 0-1-.87-1.19-1.77-1.19zM155.29 331.69l-2.25-4.14h-.85v4.14h-2.47v-10.42h3.98c2 0 3.99.77 3.99 3.15 0 1.4-.82 2.4-2.17 2.81l2.72 4.46h-2.95zm-1.78-8.39h-1.34v2.43h1.19c.81 0 1.83-.21 1.83-1.27 0-.97-.93-1.16-1.68-1.16zM165.17 331.97c-3.25 0-5.67-2.24-5.67-5.54 0-3.34 2.42-5.45 5.67-5.45 3.27 0 5.68 2.11 5.68 5.45 0 3.31-2.41 5.54-5.68 5.54zm0-8.71c-1.77 0-2.97 1.35-2.97 3.18 0 1.88 1.22 3.24 2.97 3.24 1.75 0 2.99-1.35 2.99-3.24 0-1.83-1.22-3.18-2.99-3.18zM178.02 331.69h-2.52l-3.95-10.42h2.83l2.42 7.39h.06l2.4-7.39h2.78l-4.02 10.42zM183.4 331.69v-10.42h2.53v10.42h-2.53zM192.48 331.69h-3.89v-10.42h3.77c2.96 0 5.96 1.24 5.96 5.18.01 3.67-2.96 5.24-5.84 5.24zm-.17-8.27h-1.25v6.1h1.19c1.8 0 3.46-.74 3.46-3.06 0-2.35-1.67-3.04-3.4-3.04zM200.5 331.69v-10.42h7.01v2.13h-4.58v1.96h4.33v2.02h-4.33v2.17h4.84v2.15h-7.27zM215.53 331.69l-2.25-4.14h-.85v4.14h-2.47v-10.42h3.98c2 0 3.99.77 3.99 3.15 0 1.4-.82 2.4-2.17 2.81l2.72 4.46h-2.95zm-1.78-8.39h-1.34v2.43h1.19c.81 0 1.83-.21 1.83-1.27 0-.97-.93-1.16-1.68-1.16z"/></svg>