<svg id="Layer_1" xmlns="http://www.w3.org/2000/svg" viewBox="0 0 300 600"><style>.st0{fill:#bdd6e6}</style><path class="st0" d="M36.46 364.87l.7.97-.63.46-.7-.97-.32-.62-.32.62-.69.97-.63-.46.7-.97.48-.49-.68-.12-1.13-.36.23-.73 1.14.37.62.3-.09-.68-.01-1.2h.79l-.01 1.2-.1.69.63-.31 1.14-.37.23.73-1.13.36-.69.12.47.49zM43.84 363.49H41.7v5.39h-1.02v-5.39h-2.15v-.87h5.31v.87zM49.1 365.8v3.08h-1.02v-2.75c0-.94-.44-1.25-1.02-1.25-.63 0-1.29.41-1.29 1.5v2.51h-1.02V362h1.02v2.89c.31-.59.87-.85 1.54-.85 1.01 0 1.79.58 1.79 1.76zM54.84 366.89h-3.47c.11.83.61 1.28 1.38 1.28.63 0 1.04-.23 1.2-.65l.84.35c-.34.7-1 1.1-2.04 1.1-1.5 0-2.38-.92-2.38-2.47s.83-2.47 2.32-2.47c1.42 0 2.2.95 2.2 2.33-.01.18-.03.4-.05.53zm-3.47-.78h2.55c-.09-.8-.54-1.26-1.25-1.26-.74 0-1.19.44-1.3 1.26zM63.88 366.5c0 1.56-.82 2.48-2.11 2.48-.7 0-1.24-.34-1.53-.86v2.76h-1.02v-6.74h.89l.05.87c.27-.58.85-.97 1.61-.97 1.31 0 2.11.91 2.11 2.46zm-1.01.01c0-1.03-.49-1.65-1.31-1.65-.8 0-1.31.6-1.31 1.59v.11c0 .99.51 1.58 1.31 1.58.81.01 1.31-.6 1.31-1.63zM68.17 364.13l-.16.93c-.13-.08-.34-.12-.6-.12-.57 0-1.2.46-1.2 1.42v2.51H65.2v-4.75h.86l.09.84c.26-.62.76-.94 1.49-.94.2.02.4.05.53.11zM68.96 362.7c0-.4.25-.63.68-.63s.67.23.67.63-.24.64-.67.64-.68-.24-.68-.64zm1.18 6.18h-1.02v-4.75h1.02v4.75zM79.2 365.8v3.08h-1.02v-2.91c0-.78-.42-1.09-.98-1.09-.66 0-1.23.5-1.23 1.42v2.58h-1.02v-2.91c0-.78-.42-1.09-.98-1.09-.57 0-1.23.42-1.23 1.48v2.52h-1.02v-4.75h.9l.05.79c.33-.6.92-.88 1.54-.88.67 0 1.31.3 1.59.95.31-.65 1.01-.95 1.64-.95.92 0 1.77.56 1.76 1.76zM85.19 368.18l-.07.68c-.15.07-.35.11-.59.11-.51 0-.86-.19-.97-.71-.29.46-.9.71-1.6.71-.89 0-1.55-.42-1.55-1.24 0-.73.61-1.27 1.85-1.49l1.21-.22v-.25c0-.57-.35-.94-.97-.94-.59 0-1.03.26-1.22.85l-.79-.42c.23-.75.96-1.23 1.99-1.23 1.19 0 2 .54 2 1.68v2.14c0 .24.1.35.35.35.13.02.25.01.36-.02zm-1.72-.88v-.57l-1.03.21c-.65.12-.97.34-.97.72 0 .35.27.54.71.54.63.01 1.29-.33 1.29-.9zM89.11 364.13l-.16.93c-.13-.08-.34-.12-.6-.12-.57 0-1.2.46-1.2 1.42v2.51h-1.02v-4.75h.86l.1.84c.26-.62.76-.94 1.49-.94.2.02.4.05.53.11zM92.26 369.44c-.42 1.1-.9 1.48-1.76 1.48-.49 0-.83-.11-1.12-.38l.29-.78c.22.27.48.34.78.34.35 0 .62-.13.83-.68l.21-.51-.49-1.18-1.48-3.6h1.14l1.04 2.98.27.89.32-.98.99-2.89h1.05l-2.07 5.31zM102.56 366.51c0 1.55-.88 2.47-2.36 2.47s-2.36-.92-2.36-2.47.88-2.47 2.36-2.47 2.36.92 2.36 2.47zm-3.7 0c0 1.07.48 1.67 1.34 1.67.85 0 1.35-.6 1.35-1.67 0-1.07-.49-1.67-1.35-1.67-.86 0-1.34.59-1.34 1.67zM108.51 366.52c0 1.55-.81 2.46-2.1 2.46-.76 0-1.34-.39-1.61-.97l-.05.87h-.89V362h1.02v2.9c.28-.52.83-.86 1.53-.86 1.28 0 2.1.92 2.1 2.48zm-1.01-.01c0-1.03-.49-1.64-1.31-1.64-.8 0-1.31.6-1.31 1.58v.11c0 1 .51 1.59 1.31 1.59.81.01 1.31-.61 1.31-1.64zM110.84 369.3c0 1.21-.76 1.62-1.56 1.62-.43 0-.79-.12-1.04-.31l.18-.82c.17.14.43.27.73.27.41 0 .67-.22.67-.85v-5.07h1.02v5.16zm.18-6.6c0 .38-.27.64-.67.64-.42 0-.68-.26-.68-.64s.27-.63.68-.63c.4.01.67.25.67.63zM116.62 366.89h-3.47c.11.83.61 1.28 1.38 1.28.63 0 1.04-.23 1.2-.65l.84.35c-.34.7-1 1.1-2.04 1.1-1.5 0-2.38-.92-2.38-2.47s.83-2.47 2.32-2.47c1.42 0 2.2.95 2.2 2.33-.01.18-.03.4-.05.53zm-3.46-.78h2.55c-.09-.8-.54-1.26-1.25-1.26-.75 0-1.2.44-1.3 1.26zM122.08 365.37l-.95.38c-.16-.59-.52-.9-1.11-.9-.84 0-1.34.6-1.34 1.67s.5 1.65 1.34 1.65c.66 0 1.04-.33 1.17-.92l.93.31c-.27.86-.98 1.41-2.08 1.41-1.5 0-2.38-.92-2.38-2.47s.88-2.47 2.36-2.47c1.15.01 1.77.56 2.06 1.34zM126.38 368.57c-.3.26-.75.41-1.26.41-.82 0-1.44-.37-1.45-1.35v-2.7h-.9v-.8h.9v-1.11l1.02-.29v1.4h1.66v.8h-1.66v2.52c0 .46.28.67.69.67.32 0 .56-.11.77-.3l.23.75zM127.16 362.7c0-.4.25-.63.68-.63.44 0 .67.23.67.63s-.24.64-.67.64c-.44 0-.68-.24-.68-.64zm1.18 6.18h-1.02v-4.75h1.02v4.75zM134.11 364.13l-1.89 4.75h-1.11l-1.9-4.75h1.12l1.34 3.92 1.38-3.92h1.06zM139.15 366.89h-3.47c.11.83.61 1.28 1.38 1.28.63 0 1.04-.23 1.2-.65l.84.35c-.34.7-1 1.1-2.04 1.1-1.5 0-2.38-.92-2.38-2.47s.83-2.47 2.32-2.47c1.42 0 2.2.95 2.2 2.33-.01.18-.03.4-.05.53zm-3.46-.78h2.55c-.09-.8-.54-1.26-1.25-1.26-.75 0-1.2.44-1.3 1.26zM146.47 368.57c-.3.26-.75.41-1.26.41-.82 0-1.44-.37-1.45-1.35v-2.7h-.9v-.8h.9v-1.11l1.02-.29v1.4h1.66v.8h-1.66v2.52c0 .46.28.67.69.67.32 0 .56-.11.77-.3l.23.75zM151.87 366.51c0 1.55-.88 2.47-2.36 2.47s-2.36-.92-2.36-2.47.88-2.47 2.36-2.47 2.36.92 2.36 2.47zm-3.7 0c0 1.07.48 1.67 1.34 1.67.85 0 1.35-.6 1.35-1.67 0-1.07-.49-1.67-1.35-1.67-.86 0-1.34.59-1.34 1.67zM160.45 366.89h-3.47c.11.83.61 1.28 1.38 1.28.63 0 1.04-.23 1.2-.65l.84.35c-.34.7-1 1.1-2.04 1.1-1.5 0-2.38-.92-2.38-2.47s.83-2.47 2.32-2.47c1.42 0 2.2.95 2.2 2.33-.01.18-.03.4-.05.53zm-3.46-.78h2.55c-.09-.8-.54-1.26-1.25-1.26-.75 0-1.2.44-1.3 1.26zM165.81 364.13l-1.89 4.75h-1.11l-1.9-4.75h1.12l1.34 3.92 1.38-3.92h1.06zM171.01 368.18l-.07.68c-.15.07-.35.11-.59.11-.51 0-.86-.19-.97-.71-.29.46-.9.71-1.6.71-.89 0-1.55-.42-1.55-1.24 0-.73.61-1.27 1.85-1.49l1.21-.22v-.25c0-.57-.35-.94-.97-.94-.59 0-1.02.26-1.22.85l-.79-.42c.23-.75.96-1.23 1.99-1.23 1.19 0 2 .54 2 1.68v2.14c0 .24.09.35.35.35.13.02.25.01.36-.02zm-1.72-.88v-.57l-1.04.21c-.65.12-.97.34-.97.72 0 .35.27.54.71.54.64.01 1.3-.33 1.3-.9zM172.95 367.49c0 .46.11.63.49.63.24 0 .38-.03.63-.12l-.11.82c-.21.1-.51.16-.79.16-.84 0-1.23-.42-1.23-1.34V362h1.01v5.49zM179.23 364.13v4.75h-.9l-.05-.77c-.32.6-.91.86-1.68.86-.95 0-1.71-.48-1.71-1.72v-3.12h1.02v2.86c0 .88.38 1.15.98 1.15.72 0 1.33-.44 1.33-1.44v-2.56h1.01zM185.25 368.18l-.07.68c-.15.07-.35.11-.59.11-.51 0-.86-.19-.97-.71-.29.46-.9.71-1.6.71-.89 0-1.55-.42-1.55-1.24 0-.73.61-1.27 1.85-1.49l1.21-.22v-.25c0-.57-.35-.94-.97-.94-.59 0-1.02.26-1.22.85l-.79-.42c.23-.75.96-1.23 1.99-1.23 1.19 0 2 .54 2 1.68v2.14c0 .24.09.35.35.35.13.02.26.01.36-.02zm-1.72-.88v-.57l-1.04.21c-.65.12-.97.34-.97.72 0 .35.27.54.71.54.65.01 1.3-.33 1.3-.9zM189.1 368.57c-.3.26-.75.41-1.26.41-.82 0-1.44-.37-1.45-1.35v-2.7h-.9v-.8h.9v-1.11l1.02-.29v1.4h1.66v.8h-1.66v2.52c0 .46.28.67.69.67.32 0 .56-.11.77-.3l.23.75zM194.25 366.89h-3.47c.11.83.61 1.28 1.38 1.28.63 0 1.04-.23 1.2-.65l.84.35c-.34.7-1 1.1-2.04 1.1-1.5 0-2.38-.92-2.38-2.47s.83-2.47 2.32-2.47c1.42 0 2.2.95 2.2 2.33-.01.18-.03.4-.05.53zm-3.47-.78h2.55c-.09-.8-.54-1.26-1.25-1.26-.75 0-1.19.44-1.3 1.26zM203.09 366.51c0 1.55-.88 2.47-2.36 2.47s-2.36-.92-2.36-2.47.88-2.47 2.36-2.47 2.36.92 2.36 2.47zm-3.7 0c0 1.07.48 1.67 1.34 1.67.85 0 1.35-.6 1.35-1.67 0-1.07-.49-1.67-1.35-1.67-.85 0-1.34.59-1.34 1.67zM208.55 364.13l-1.89 4.75h-1.11l-1.9-4.75h1.12l1.34 3.92 1.38-3.92h1.06zM213.59 366.89h-3.47c.11.83.61 1.28 1.38 1.28.63 0 1.04-.23 1.2-.65l.84.35c-.34.7-1 1.1-2.04 1.1-1.5 0-2.38-.92-2.38-2.47s.83-2.47 2.32-2.47c1.42 0 2.2.95 2.2 2.33-.02.18-.03.4-.05.53zm-3.47-.78h2.55c-.09-.8-.54-1.26-1.25-1.26-.75 0-1.19.44-1.3 1.26zM217.87 364.13l-.16.93c-.13-.08-.34-.12-.6-.12-.57 0-1.2.46-1.2 1.42v2.51h-1.02v-4.75h.86l.09.84c.26-.62.76-.94 1.49-.94.2.02.4.05.54.11zM223.17 368.18l-.07.68c-.15.07-.35.11-.59.11-.51 0-.86-.19-.97-.71-.29.46-.9.71-1.6.71-.89 0-1.55-.42-1.55-1.24 0-.73.61-1.27 1.85-1.49l1.21-.22v-.25c0-.57-.35-.94-.97-.94-.59 0-1.02.26-1.22.85l-.79-.42c.23-.75.96-1.23 1.99-1.23 1.19 0 2 .54 2 1.68v2.14c0 .24.09.35.35.35.13.02.26.01.36-.02zm-1.72-.88v-.57l-1.04.21c-.65.12-.97.34-.97.72 0 .35.27.54.71.54.65.01 1.3-.33 1.3-.9zM225.12 367.49c0 .46.11.63.49.63.24 0 .38-.03.63-.12l-.11.82c-.21.1-.51.16-.79.16-.84 0-1.23-.42-1.23-1.34V362h1.01v5.49zM228.08 367.49c0 .46.11.63.49.63.24 0 .38-.03.63-.12l-.11.82c-.21.1-.51.16-.79.16-.84 0-1.23-.42-1.23-1.34V362h1.01v5.49zM237.51 366.5c0 1.56-.82 2.48-2.11 2.48-.7 0-1.24-.34-1.53-.86v2.76h-1.02v-6.74h.89l.05.87c.28-.58.85-.97 1.61-.97 1.3 0 2.11.91 2.11 2.46zm-1.01.01c0-1.03-.49-1.65-1.31-1.65-.8 0-1.31.6-1.31 1.59v.11c0 .99.51 1.58 1.31 1.58.81.01 1.31-.6 1.31-1.63zM243.27 368.18l-.07.68c-.15.07-.35.11-.59.11-.51 0-.86-.19-.97-.71-.29.46-.9.71-1.6.71-.89 0-1.55-.42-1.55-1.24 0-.73.61-1.27 1.85-1.49l1.21-.22v-.25c0-.57-.35-.94-.97-.94-.59 0-1.02.26-1.22.85l-.79-.42c.23-.75.96-1.23 1.99-1.23 1.19 0 2 .54 2 1.68v2.14c0 .24.09.35.35.35.13.02.26.01.36-.02zm-1.72-.88v-.57l-1.04.21c-.65.12-.97.34-.97.72 0 .35.27.54.71.54.65.01 1.3-.33 1.3-.9zM247.11 368.57c-.3.26-.75.41-1.26.41-.82 0-1.44-.37-1.45-1.35v-2.7h-.9v-.8h.9v-1.11l1.02-.29v1.4h1.66v.8h-1.66v2.52c0 .46.28.67.69.67.32 0 .56-.11.77-.3l.23.75zM247.89 362.7c0-.4.25-.63.68-.63.44 0 .67.23.67.63s-.24.64-.67.64c-.43 0-.68-.24-.68-.64zm1.19 6.18h-1.02v-4.75h1.02v4.75zM254.87 366.89h-3.47c.11.83.61 1.28 1.38 1.28.63 0 1.04-.23 1.2-.65l.84.35c-.34.7-1 1.1-2.04 1.1-1.5 0-2.38-.92-2.38-2.47s.83-2.47 2.32-2.47c1.42 0 2.2.95 2.2 2.33-.02.18-.04.4-.05.53zm-3.47-.78h2.55c-.09-.8-.54-1.26-1.25-1.26-.75 0-1.19.44-1.3 1.26zM260.51 365.8v3.08h-1.02v-2.75c0-.94-.44-1.25-1.02-1.25-.63 0-1.29.4-1.29 1.49v2.51h-1.02v-4.75h.9l.05.8c.32-.63.92-.89 1.6-.89 1.02 0 1.8.58 1.8 1.76zM265.07 368.57c-.3.26-.75.41-1.26.41-.82 0-1.44-.37-1.45-1.35v-2.7h-.9v-.8h.9v-1.11l1.02-.29v1.4h1.66v.8h-1.66v2.52c0 .46.28.67.69.67.32 0 .56-.11.77-.3l.23.75zM54.36 379.47l.68-.59c.25.57.81.79 1.47.79.67 0 1.02-.25 1.02-.57 0-.29-.28-.47-1.1-.63-1.41-.27-1.91-.67-1.91-1.47 0-.77.72-1.47 1.99-1.47 1.05 0 1.65.34 1.99 1.07l-.72.53c-.24-.57-.65-.81-1.26-.81-.59 0-.99.28-.99.58 0 .34.28.52 1.17.68 1.36.25 1.84.66 1.84 1.44 0 .83-.76 1.43-2.07 1.43-.91.01-1.71-.29-2.11-.98zM64.23 379.67l-.07.68c-.15.07-.35.11-.59.11-.51 0-.86-.19-.97-.71-.29.46-.9.71-1.6.71-.89 0-1.55-.42-1.55-1.24 0-.73.61-1.27 1.85-1.49l1.21-.22v-.25c0-.57-.35-.94-.97-.94-.59 0-1.03.26-1.22.85l-.79-.42c.23-.75.96-1.23 1.99-1.23 1.19 0 2 .54 2 1.68v2.14c0 .24.09.35.35.35.14.01.26 0 .36-.02zm-1.71-.88v-.57l-1.03.21c-.65.12-.97.34-.97.72 0 .35.27.54.71.54.63 0 1.29-.33 1.29-.9zM68.08 380.05c-.3.26-.75.41-1.26.41-.82 0-1.44-.37-1.45-1.35v-2.7h-.9v-.8h.9v-1.11l1.02-.29v1.4h1.66v.8h-1.66v2.52c0 .46.27.67.69.67.32 0 .56-.11.77-.3l.23.75zM68.85 374.19c0-.4.25-.63.68-.63s.67.23.67.63-.24.64-.67.64-.68-.24-.68-.64zm1.19 6.18h-1.02v-4.75h1.02v4.75zM71.23 379.47l.68-.59c.25.57.81.79 1.47.79.67 0 1.02-.25 1.02-.57 0-.29-.28-.47-1.1-.63-1.41-.27-1.91-.67-1.91-1.47 0-.77.72-1.47 1.99-1.47 1.05 0 1.65.34 1.99 1.07l-.72.53c-.24-.57-.65-.81-1.26-.81-.59 0-.99.28-.99.58 0 .34.28.52 1.17.68 1.36.25 1.84.66 1.84 1.44 0 .83-.76 1.43-2.07 1.43-.92.01-1.71-.29-2.11-.98zM77.99 375.62h1.54v.8h-1.51v3.95H77v-3.95h-.89v-.8H77v-.68c0-.96.61-1.52 1.66-1.52.38 0 .71.08.89.23l-.19.74a.96.96 0 0 0-.54-.14c-.53 0-.84.23-.84.77v.6zM84.66 379.67l-.07.68c-.15.07-.35.11-.59.11-.51 0-.86-.19-.97-.71-.29.46-.9.71-1.6.71-.89 0-1.55-.42-1.55-1.24 0-.73.61-1.27 1.85-1.49l1.21-.22v-.25c0-.57-.35-.94-.97-.94-.59 0-1.03.26-1.22.85l-.79-.42c.23-.75.96-1.23 1.99-1.23 1.19 0 2 .54 2 1.68v2.14c0 .24.1.35.35.35.13.01.25 0 .36-.02zm-1.72-.88v-.57l-1.03.21c-.65.12-.97.34-.97.72 0 .35.27.54.71.54.63 0 1.29-.33 1.29-.9zM89.75 376.86l-.95.38c-.16-.59-.52-.9-1.11-.9-.84 0-1.34.6-1.34 1.67s.5 1.65 1.34 1.65c.65 0 1.04-.33 1.17-.92l.93.31c-.27.86-.98 1.41-2.08 1.41-1.5 0-2.38-.92-2.38-2.47s.88-2.47 2.36-2.47c1.15.01 1.77.56 2.06 1.34zM94.05 380.05c-.3.26-.75.41-1.26.41-.82 0-1.44-.37-1.45-1.35v-2.7h-.9v-.8h.9v-1.11l1.02-.29v1.4h1.66v.8h-1.66v2.52c0 .46.27.67.69.67.32 0 .56-.11.77-.3l.23.75zM94.83 374.19c0-.4.25-.63.68-.63s.67.23.67.63-.24.64-.67.64-.68-.24-.68-.64zm1.18 6.18H95v-4.75h1.02v4.75zM102.05 377.99c0 1.55-.88 2.47-2.36 2.47s-2.36-.92-2.36-2.47.88-2.47 2.36-2.47c1.48.01 2.36.93 2.36 2.47zm-3.7 0c0 1.07.48 1.67 1.34 1.67.85 0 1.35-.6 1.35-1.67 0-1.07-.49-1.67-1.35-1.67-.86 0-1.34.6-1.34 1.67zM107.69 377.29v3.08h-1.02v-2.75c0-.94-.44-1.25-1.02-1.25-.63 0-1.29.4-1.29 1.49v2.51h-1.02v-4.75h.9l.05.8c.32-.63.92-.89 1.6-.89 1.02 0 1.8.58 1.8 1.76zM119.31 375.62l-1.58 4.75h-1.11l-1.2-3.59-1.14 3.59h-1.11l-1.58-4.75h1.1l1.07 3.79 1.19-3.79h1.01l1.19 3.79 1.07-3.79h1.09zM120.19 374.19c0-.4.25-.63.68-.63.44 0 .67.23.67.63s-.24.64-.67.64c-.43-.01-.68-.24-.68-.64zm1.19 6.18h-1.02v-4.75h1.02v4.75zM126.04 380.05c-.3.26-.75.41-1.26.41-.82 0-1.44-.37-1.45-1.35v-2.7h-.9v-.8h.9v-1.11l1.02-.29v1.4H126v.8h-1.66v2.52c0 .46.28.67.69.67.32 0 .56-.11.77-.3l.24.75zM131.36 377.29v3.08h-1.02v-2.75c0-.94-.44-1.25-1.02-1.25-.63 0-1.29.41-1.29 1.5v2.51h-1.02v-6.88h1.02v2.89c.31-.59.87-.85 1.54-.85 1.01-.01 1.79.57 1.79 1.75zM138.72 380.46c-1.81 0-2.95-1.23-2.95-3.23s1.15-3.23 2.94-3.23c1.24 0 2.13.52 2.5 1.54l-.96.43c-.25-.74-.71-1.08-1.49-1.08-1.17 0-1.94.85-1.94 2.34 0 1.48.71 2.34 1.9 2.34.8 0 1.38-.4 1.61-1.2l.97.32c-.37 1.16-1.35 1.77-2.58 1.77zM146.92 377.99c0 1.55-.88 2.47-2.36 2.47s-2.36-.92-2.36-2.47.88-2.47 2.36-2.47 2.36.93 2.36 2.47zm-3.7 0c0 1.07.48 1.67 1.34 1.67.85 0 1.35-.6 1.35-1.67 0-1.07-.49-1.67-1.35-1.67-.85 0-1.34.6-1.34 1.67zM152.67 377.99c0 1.55-.88 2.47-2.36 2.47s-2.36-.92-2.36-2.47.88-2.47 2.36-2.47c1.48.01 2.36.93 2.36 2.47zm-3.7 0c0 1.07.48 1.67 1.34 1.67.85 0 1.35-.6 1.35-1.67 0-1.07-.49-1.67-1.35-1.67-.85 0-1.34.6-1.34 1.67zM154.96 378.98c0 .46.11.63.49.63.24 0 .38-.03.63-.12l-.11.82c-.21.1-.51.16-.79.16-.84 0-1.23-.42-1.23-1.34v-5.64h1.01v5.49zM161.72 375.28l-.77.69c-.35-.75-.84-1.08-1.73-1.08s-1.38.4-1.38.93c0 .5.39.77 1.6.99 1.68.29 2.3.82 2.3 1.82 0 1.12-1.02 1.83-2.5 1.83-1.37 0-2.21-.49-2.7-1.27l.71-.71c.41.76 1.03 1.1 1.97 1.1.89 0 1.44-.31 1.44-.89 0-.45-.38-.7-1.56-.92-1.72-.32-2.35-.84-2.35-1.84 0-1.06.91-1.92 2.44-1.92 1.18 0 1.98.42 2.53 1.27zM167.17 376.86l-.95.38c-.16-.59-.52-.9-1.11-.9-.84 0-1.34.6-1.34 1.67s.5 1.65 1.34 1.65c.65 0 1.04-.33 1.17-.92l.93.31c-.27.86-.98 1.41-2.08 1.41-1.5 0-2.38-.92-2.38-2.47s.88-2.47 2.36-2.47c1.15.01 1.77.56 2.06 1.34zM172.69 375.62v4.75h-.9l-.05-.77c-.32.6-.91.86-1.68.86-.95 0-1.71-.48-1.71-1.72v-3.12h1.02v2.86c0 .88.38 1.15.98 1.15.72 0 1.33-.44 1.33-1.44v-2.56h1.01zM175.26 378.98c0 .46.11.63.49.63.24 0 .38-.03.63-.12l-.11.82c-.21.1-.51.16-.79.16-.84 0-1.23-.42-1.23-1.34v-5.64h1.02v5.49zM181.88 377.99c0 1.56-.82 2.48-2.11 2.48-.7 0-1.24-.34-1.53-.86v2.76h-1.02v-6.74h.89l.05.87c.28-.58.85-.97 1.61-.97 1.3 0 2.11.91 2.11 2.46zm-1.01 0c0-1.03-.49-1.65-1.31-1.65-.8 0-1.31.6-1.31 1.59v.11c0 .99.51 1.58 1.31 1.58.81.02 1.31-.59 1.31-1.63zM186.21 380.05c-.3.26-.75.41-1.26.41-.82 0-1.44-.37-1.45-1.35v-2.7h-.9v-.8h.9v-1.11l1.02-.29v1.4h1.66v.8h-1.66v2.52c0 .46.28.67.69.67.32 0 .56-.11.77-.3l.23.75zM186.99 374.19c0-.4.25-.63.68-.63.44 0 .67.23.67.63s-.24.64-.67.64c-.44-.01-.68-.24-.68-.64zm1.18 6.18h-1.02v-4.75h1.02v4.75zM194.09 377.29v3.08h-1.02v-2.75c0-.94-.44-1.25-1.02-1.25-.63 0-1.29.4-1.29 1.49v2.51h-1.02v-4.75h.9l.05.8c.32-.63.92-.89 1.6-.89 1.03 0 1.8.58 1.8 1.76zM199.91 380.84c0 .99-1.06 1.57-2.44 1.57-1.57 0-2.26-.51-2.26-1.21 0-.43.3-.77.84-.91-.37-.17-.66-.47-.66-.9 0-.49.29-.8.74-.95-.47-.27-.73-.73-.73-1.3 0-.97.83-1.6 2.06-1.6.36 0 .68.06.96.15.17-.67.62-1.07 1.4-1.05l.17.79c-.62-.02-.98.16-1.12.48.42.29.65.71.65 1.23 0 .97-.82 1.6-2.06 1.6-.29 0-.55-.03-.79-.08-.32.08-.46.25-.46.52 0 .29.23.46.59.46h1.58c.97-.01 1.53.44 1.53 1.2zm-.87.12c0-.3-.2-.48-.83-.48h-1.28c-.58 0-.85.19-.85.5 0 .42.48.67 1.49.67.97 0 1.47-.32 1.47-.69zm-2.59-3.83c0 .54.44.9 1.02.9.59 0 1.03-.36 1.03-.9 0-.53-.44-.89-1.03-.89-.59 0-1.02.36-1.02.89zM204.23 375.38c0 1.14-.75 1.88-1.9 1.88s-1.9-.74-1.9-1.88.75-1.88 1.9-1.88 1.9.74 1.9 1.88zm-.43 0c0-.9-.58-1.49-1.47-1.49s-1.48.59-1.48 1.49.58 1.49 1.48 1.49 1.47-.59 1.47-1.49zm-1.05.25l.53.76h-.5l-.45-.73h-.31v.73h-.43v-2.04h.88c.44 0 .76.26.76.66 0 .32-.18.54-.48.62zm-.73-.27h.41c.24 0 .37-.11.37-.33 0-.23-.13-.33-.37-.33h-.41v.66zM210.86 373.81c-1.2 1.09-1.64 2.2-1.64 3.92s.45 2.82 1.64 3.91l-.53.53c-1.38-1.11-2.09-2.61-2.09-4.44 0-1.84.71-3.34 2.09-4.45l.53.53zM215.93 377.29v3.08h-1.02v-2.75c0-.94-.44-1.25-1.02-1.25-.63 0-1.29.4-1.29 1.49v2.51h-1.02v-4.75h.9l.05.8c.32-.63.92-.89 1.6-.89 1.02 0 1.8.58 1.8 1.76zM221.8 376.89h-4.52v-.83h4.52v.83zm0 1.95h-4.52V378h4.52v.84zM225.48 374.1v6.26h-1v-4.63c0-.15.01-.32.02-.5-.44.42-1.02.74-1.58.86l-.19-.88c.5-.07 1.57-.64 1.9-1.11h.85zM226.94 377.24c0-2.11.83-3.23 2.41-3.23s2.42 1.12 2.42 3.23-.83 3.23-2.42 3.23-2.41-1.13-2.41-3.23zm3.8 0c0-1.58-.47-2.36-1.39-2.36s-1.38.79-1.38 2.36c0 1.58.47 2.36 1.38 2.36s1.39-.79 1.39-2.36zM237.54 375.35l-.89.43c-.17-.55-.54-.88-1.21-.88-.92 0-1.55 1.03-1.55 2.41v.17h.04c.21-.73.96-1.05 1.65-1.05 1.24 0 2.09.78 2.09 2 0 1.25-.85 2.04-2.23 2.04-1.6 0-2.48-1.28-2.48-3.23 0-2.14 1.09-3.23 2.53-3.23 1 0 1.68.38 2.05 1.34zm-3.34 3.06c0 .71.48 1.18 1.22 1.18.78 0 1.22-.44 1.22-1.18 0-.71-.45-1.15-1.22-1.15-.73 0-1.22.47-1.22 1.15zM240.84 377.73c0 1.83-.71 3.33-2.09 4.44l-.53-.53c1.2-1.09 1.64-2.19 1.64-3.91s-.45-2.83-1.64-3.92l.53-.53c1.37 1.11 2.09 2.61 2.09 4.45zM243.45 379.77c0 .42-.27.69-.71.69-.44 0-.72-.28-.72-.69 0-.42.28-.68.72-.68.43 0 .71.26.71.68z"/></svg>