<svg id="Layer_1" xmlns="http://www.w3.org/2000/svg" viewBox="0 0 300 600"><style>.st0{fill:#fff}</style><path class="st0" d="M105.01 68.63c-4.01 0-5.93-2.9-5.93-5.7 0-3.22 2.33-5.81 6-5.81 1.25 0 2.54.38 3.56 1.24l-1.13 1.58c-.7-.54-1.45-.74-2.36-.74-1.95 0-3.4 1.35-3.4 3.67 0 2.12 1.34 3.81 3.46 3.81.91 0 1.7-.27 2.4-.88l1.04 1.58c-.99.84-2.34 1.25-3.64 1.25M114.82 68.63c-3.35 0-5.82-2.52-5.82-5.81 0-3.38 2.69-5.7 5.82-5.7 3.12 0 5.84 2.3 5.84 5.67 0 3.32-2.46 5.84-5.84 5.84m3.15-5.81c0-2.03-1-3.78-3.15-3.78-2.11 0-3.15 1.76-3.15 3.76 0 2.07.97 3.92 3.15 3.92 2.17 0 3.15-1.82 3.15-3.92v.02zM127.46 68.63c-3.35 0-5.82-2.52-5.82-5.81 0-3.38 2.69-5.7 5.82-5.7 3.13 0 5.84 2.3 5.84 5.67 0 3.32-2.47 5.84-5.84 5.84m3.15-5.81c0-2.03-1-3.78-3.15-3.78-2.11 0-3.15 1.76-3.15 3.76 0 2.07.97 3.92 3.15 3.92 2.17 0 3.15-1.82 3.15-3.92v.02zM134.61 68.36V52.24l2.52 1.37v14.75zM142.93 68.7c-2.83 0-4.19-1.35-4.19-1.35l1.13-1.46s1.29.86 2.99.86c.82 0 1.5-.56 1.5-1.13 0-.56-.25-1.04-1-1.42-.75-.38-1.59-.79-2.24-1.1-.66-.32-2.11-1.28-2.11-3.17 0-1.91 1.95-2.97 3.94-2.97 1.9 0 3.35 1.24 3.35 1.24l-.97 1.49s-1.09-.77-2.29-.77-1.45.77-1.45 1.08c0 .32.11.81.88 1.22.77.4 1.56.83 2.7 1.46 1.13.63 1.77 1.71 1.77 2.93-.01 1.2-1.18 3.09-4.01 3.09M153.73 68.63c-4.01 0-5.93-2.9-5.93-5.7 0-3.22 2.33-5.81 6-5.81 1.25 0 2.54.38 3.56 1.24l-1.13 1.58c-.7-.54-1.45-.74-2.36-.74-1.95 0-3.4 1.35-3.4 3.67 0 2.12 1.34 3.81 3.46 3.81.91 0 1.7-.27 2.4-.88l1.04 1.58c-.99.84-2.35 1.25-3.64 1.25M166.12 67.07s-1.27 1.55-3.67 1.55c-2.83 0-4.21-2.05-4.21-4.12v-7.14h2.51v7.02c0 1.22.95 2.23 2.42 2.23 1.29 0 2.56-1.53 2.56-1.53v-7.72h2.51v10.96l-2.12-1.25zM170.49 68.36V52.24l2.51 1.37v14.75zM181.31 68.63c-2.22 0-3.49-1.24-3.49-1.24v5.47h-2.54V57.15l2.54 1.33s1.36-1.37 3.62-1.37c2.38 0 5.34 1.82 5.34 5.9.01 4.06-2.91 5.62-5.47 5.62m-.16-9.59c-2.15 0-3.4 2-3.4 2v4.14s1.43 1.6 3.49 1.6c2.4 0 2.92-2.86 2.92-3.85 0-.99-.22-3.89-3.01-3.89M193.41 68.65h-1.59c-1.99 0-2.67-1.91-2.67-3.17v-6.46h-1.99v-1.64h1.99v-4.84h2.49v4.84h2.56v1.64h-2.54v5.85c0 .65-.11 1.69 1 1.69h1.81l-1.06 2.09zM197.44 55.48c-.91 0-1.65-.74-1.65-1.64a1.65 1.65 0 1 1 3.3 0c0 .9-.75 1.64-1.65 1.64m-1.25 1.89h2.47v10.99h-2.47V57.37zM208.62 68.36v-7.02c0-1.22-.95-2.23-2.42-2.23-1.29 0-2.74 1.53-2.74 1.53v7.72h-2.51V57.39l2.13 1.26s1.45-1.55 3.85-1.55c2.83 0 4.21 2.05 4.21 4.12v7.14h-2.52zM218.81 73.47c-.39 0-3.33-.05-3.33-.05l.04-2H218c2.4 0 3.76-1.28 3.76-3.04v-.99s-1.31 1.24-3.53 1.24c-2.56 0-5.48-1.55-5.48-5.63s2.97-5.9 5.35-5.9c2.26 0 3.62 1.37 3.62 1.37l2.54-1.26v10.92c-.01 2.95-1.98 5.34-5.45 5.34m2.97-12.43s-1.24-2-3.4-2c-2.79 0-3.01 2.9-3.01 3.89 0 .99.52 3.85 2.92 3.85 2.06 0 3.49-1.6 3.49-1.6v-4.14zM73.63 63.36L69 67.96l5.67 2.12 6.76-6.72zM82.09 54.01l-4.6-4.58-2.16 5.61 6.76 6.72zM90.46 55.71l6.18 1.6-5.14 5.12h-7.8zM90.05 71.01L88.28 77l-9.62-9.57 3.9-3.87zM228.01 58.12c0 .65-.53 1.17-1.19 1.17-.67 0-1.2-.52-1.2-1.17 0-.65.53-1.16 1.21-1.16.65 0 1.18.51 1.18 1.16zm-2.1 0c0 .52.39.93.91.93.5.01.89-.41.89-.92 0-.52-.38-.93-.9-.93-.51-.01-.9.41-.9.92zm.72.6h-.27v-1.16c.11-.01.26-.04.45-.04.22 0 .32.04.4.09.07.05.12.13.12.25 0 .14-.11.23-.24.28v.01c.11.04.17.13.21.28.04.18.06.24.09.28h-.28c-.04-.04-.06-.14-.09-.28-.02-.12-.09-.18-.24-.18h-.13v.47zm0-.65h.13c.15 0 .27-.05.27-.17 0-.11-.08-.18-.25-.18-.07 0-.12.01-.15.01v.34z"/><g><path class="st0" d="M76.57 76.69v-7.18l1.42-1.41 4.09 4.07v1.36zM75.91 56.94h-5.96l1.91 5.48h9.57zM96.02 68.84h-6.81l-5.51-5.48h9.56zM83.03 52.26L88.55 49v7.28l-5.52 5.48zM92.73 71.39c0 .45-.36.81-.83.81-.46 0-.83-.36-.83-.81 0-.45.37-.8.84-.8a.8.8 0 0 1 .82.8zm-1.45 0c0 .36.27.64.63.64.35 0 .62-.28.62-.64s-.27-.65-.63-.65c-.35.01-.62.3-.62.65zm.5.42h-.19v-.8c.07-.01.18-.02.31-.02.15 0 .22.02.28.06.05.03.08.09.08.17 0 .1-.07.16-.17.19v.01c.08.02.12.09.14.2.02.12.04.17.06.2h-.2a.685.685 0 0 1-.06-.2c-.01-.08-.06-.12-.17-.12h-.09v.31zm0-.45h.09c.1 0 .19-.03.19-.12 0-.07-.05-.12-.17-.12-.05 0-.08 0-.1.01v.23z"/></g></svg>