<?xml version="1.0" encoding="utf-8"?>
<!-- Generator: Adobe Illustrator 25.2.1, SVG Export Plug-In . SVG Version: 6.00 Build 0)  -->
<svg version="1.1" id="Layer_1" xmlns="http://www.w3.org/2000/svg" xmlns:xlink="http://www.w3.org/1999/xlink" x="0px" y="0px"
	 viewBox="0 0 970 250" style="enable-background:new 0 0 970 250;" xml:space="preserve">
<style type="text/css">
	.st0{fill:#EAF5FB;}
</style>
<g>
	<path class="st0" d="M33.25,117.64v-6.29h3.01v5.72c0,2.96,0.83,4.16,2.91,4.16c2.13,0,2.96-1.19,2.96-4.16v-5.4
		c0-2.44-0.68-3.64-2.44-4.78l-2.75-1.77c-2.65-1.71-3.69-3.69-3.69-7.17v-4.62c0-3.95,2.13-6.18,5.82-6.18s5.82,2.23,5.82,6.18
		v4.62h-3.01v-4.1c0-2.81-0.78-3.9-2.75-3.9c-1.97,0-2.75,1.09-2.75,3.9v3.9c0,2.44,0.68,3.64,2.44,4.78l2.75,1.77
		c2.65,1.71,3.69,3.69,3.69,7.17v6.18c0,4.1-2.23,6.39-6.03,6.39S33.25,121.75,33.25,117.64z"/>
	<path class="st0" d="M54.13,90.37h-4.36v-2.7h11.85v2.7h-4.36v33.15h-3.12V90.37z"/>
	<path class="st0" d="M66.96,87.66h5.77c4.16,0,6.13,2.13,6.13,6.49v4.57c0,2.91-0.94,4.68-2.81,5.51v0.1
		c1.87,0.83,2.81,2.6,2.81,5.56v13.61h-3.12v-13.4c0-3.33-0.94-4.31-3.9-4.31h-1.77v17.72h-3.12V87.66z M72.37,103.09
		c2.6,0,3.38-0.99,3.38-4.31v-4.1c0-3.33-0.78-4.31-3.38-4.31h-2.29v12.73H72.37z"/>
	<path class="st0" d="M85.2,87.66h10.29v2.7h-7.17v12.52h6.23v2.7h-6.23v15.22h7.17v2.7H85.2V87.66z"/>
	<path class="st0" d="M101.04,87.66h4.05l5.66,26.24h0.1V87.66h2.81v35.85h-3.38l-6.34-29.56h-0.1v29.56h-2.81V87.66z"/>
	<path class="st0" d="M120.06,118.42V93.59c0-4.1,2.23-6.44,5.98-6.44c3.79,0,5.92,2.34,5.92,6.44v3.95h-2.96v-3.38
		c0-3.01-0.83-4.21-2.91-4.21c-2.13,0-2.91,1.19-2.91,4.21v23.9c0,2.13,0.78,3.17,2.49,3.17c2.13,0,3.33-1.61,3.33-4.52v-10.29
		h-2.91v-2.7h6.03v19.8h-2.65v-2.55h-0.16c-0.83,1.97-2.34,3.07-4.47,3.07C121.82,124.03,120.06,121.9,120.06,118.42z"/>
	<path class="st0" d="M141.36,90.37h-4.36v-2.7h11.85v2.7h-4.36v33.15h-3.12V90.37z"/>
	<path class="st0" d="M154.19,87.66h3.12v15.22h5.87V87.66h3.12v35.85h-3.12v-17.92h-5.87v17.92h-3.12V87.66z"/>
	<path class="st0" d="M172.89,87.66h10.29v2.7h-7.17v12.52h6.23v2.7h-6.23v15.22h7.17v2.7h-10.29V87.66z"/>
	<path class="st0" d="M188.73,87.66h4.05l5.66,26.24h0.1V87.66h2.81v35.85h-3.38l-6.34-29.56h-0.1v29.56h-2.81V87.66z"/>
	<path class="st0" d="M209.15,123.51h-1.25v-4.26h3.53v3.74l-2.29,5.77h-1.82L209.15,123.51z"/>
	<path class="st0" d="M230.24,90.37h-4.36v-2.7h11.85v2.7h-4.36v33.15h-3.12V90.37z"/>
	<path class="st0" d="M242.45,117.54v-23.9c0-4.16,2.23-6.49,6.03-6.49s6.03,2.34,6.03,6.49v23.9c0,4.16-2.23,6.49-6.03,6.49
		S242.45,121.7,242.45,117.54z M251.39,117.02V94.16c0-3.01-0.83-4.21-2.91-4.21c-2.13,0-2.91,1.19-2.91,4.21v22.86
		c0,3.01,0.78,4.21,2.91,4.21C250.55,121.23,251.39,120.03,251.39,117.02z"/>
	<path class="st0" d="M260.89,87.66h4.05l5.66,26.24h0.1V87.66h2.81v35.85h-3.38l-6.34-29.56h-0.1v29.56h-2.81V87.66z"/>
	<path class="st0" d="M280.11,87.66h10.29v2.7h-7.17v12.52h6.23v2.7h-6.23v15.22h7.17v2.7h-10.29V87.66z"/>
	<path class="st0" d="M297.67,123.51h-1.25v-4.26h3.53v3.74l-2.29,5.77h-1.82L297.67,123.51z"/>
	<path class="st0" d="M39.22,138.32h4.1l4.52,35.85h-3.17l-1.04-8.88h-4.88l-1.04,8.88H34.7L39.22,138.32z M43.33,162.58
		l-2.08-19.33h-0.1l-2.08,19.33H43.33z"/>
	<path class="st0" d="M53.25,138.32h4.05l5.66,26.24h0.1v-26.24h2.81v35.85H62.5l-6.34-29.56h-0.1v29.56h-2.81V138.32z"/>
	<path class="st0" d="M72.47,138.32h5.92c4.16,0,6.13,2.13,6.13,6.49v22.86c0,4.36-1.97,6.49-6.13,6.49h-5.92V138.32z M78.03,171.46
		c2.6,0,3.38-0.99,3.38-4.31v-21.82c0-3.33-0.78-4.31-3.38-4.31h-2.44v30.45H78.03z"/>
	<path class="st0" d="M99.95,138.32h10.29v2.7h-7.17v13.04h6.23v2.7h-6.23v17.41h-3.12V138.32z"/>
	<path class="st0" d="M115.59,138.32h3.12v35.85h-3.12V138.32z"/>
	<path class="st0" d="M125.3,138.32h5.77c4.16,0,6.13,2.13,6.13,6.49v4.57c0,2.91-0.94,4.68-2.81,5.51v0.1
		c1.87,0.83,2.81,2.6,2.81,5.56v13.61h-3.12v-13.4c0-3.33-0.94-4.31-3.9-4.31h-1.77v17.72h-3.12V138.32z M130.71,153.75
		c2.6,0,3.38-0.99,3.38-4.31v-4.1c0-3.33-0.78-4.31-3.38-4.31h-2.29v12.73H130.71z"/>
	<path class="st0" d="M143.54,138.32h4.94l4,26.45h0.1l4-26.45h5.14v35.85h-3.12v-32.06h-0.1l-4.83,32.06h-2.44l-4.83-32.06h-0.1
		v32.06h-2.75V138.32z"/>
	<path class="st0" d="M177.41,138.32h4.94l4,26.45h0.1l4-26.45h5.14v35.85h-3.12v-32.06h-0.1l-4.83,32.06h-2.44l-4.83-32.06h-0.1
		v32.06h-2.75V138.32z"/>
	<path class="st0" d="M202.08,168.4v-30.08h3.12v29.51c0,2.91,0.73,4.05,2.81,4.05s2.81-1.14,2.81-4.05v-29.51h3.01v30.08
		c0,4-2.18,6.29-5.87,6.29S202.08,172.4,202.08,168.4z"/>
	<path class="st0" d="M219.75,168.29v-6.29h3.01v5.72c0,2.96,0.83,4.16,2.91,4.16c2.13,0,2.96-1.2,2.96-4.16v-5.4
		c0-2.44-0.68-3.64-2.44-4.78l-2.75-1.77c-2.65-1.71-3.69-3.69-3.69-7.17v-4.62c0-3.95,2.13-6.18,5.82-6.18s5.82,2.23,5.82,6.18
		v4.62h-3.01v-4.1c0-2.81-0.78-3.9-2.75-3.9c-1.97,0-2.75,1.09-2.75,3.9v3.9c0,2.44,0.68,3.64,2.44,4.78l2.75,1.77
		c2.65,1.71,3.69,3.69,3.69,7.17v6.18c0,4.1-2.23,6.39-6.03,6.39S219.75,172.4,219.75,168.29z"/>
	<path class="st0" d="M237.46,168.5v-24.52c0-3.95,2.08-6.18,5.82-6.18c3.79,0,5.87,2.23,5.87,6.18v5.87h-2.96v-5.35
		c0-2.81-0.83-3.9-2.81-3.9c-2.03,0-2.81,1.09-2.81,3.9v23.48c0,2.81,0.78,3.9,2.81,3.9c1.97,0,2.81-1.09,2.81-3.9v-7.22h2.96v7.74
		c0,3.95-2.08,6.18-5.87,6.18C239.54,174.69,237.46,172.45,237.46,168.5z"/>
	<path class="st0" d="M255.18,138.32h3.12v33.15h6.65v2.7h-9.77V138.32z"/>
	<path class="st0" d="M270.29,138.32h10.29v2.7h-7.17v12.52h6.23v2.7h-6.23v15.22h7.17v2.7h-10.29V138.32z"/>
	<path class="st0" d="M285.67,168.29v-6.29h3.01v5.72c0,2.96,0.83,4.16,2.91,4.16c2.13,0,2.96-1.2,2.96-4.16v-5.4
		c0-2.44-0.68-3.64-2.44-4.78l-2.75-1.77c-2.65-1.71-3.69-3.69-3.69-7.17v-4.62c0-3.95,2.13-6.18,5.82-6.18s5.82,2.23,5.82,6.18
		v4.62h-3.01v-4.1c0-2.81-0.78-3.9-2.75-3.9c-1.97,0-2.75,1.09-2.75,3.9v3.9c0,2.44,0.68,3.64,2.44,4.78l2.75,1.77
		c2.65,1.71,3.69,3.69,3.69,7.17v6.18c0,4.1-2.23,6.39-6.03,6.39S285.67,172.4,285.67,168.29z"/>
	<path class="st0" d="M303.59,169.91h3.48v4.26h-3.48V169.91z"/>
</g>
</svg>
