<?xml version="1.0" encoding="utf-8"?>
<!-- Generator: Adobe Illustrator 25.2.1, SVG Export Plug-In . SVG Version: 6.00 Build 0)  -->
<svg version="1.1" id="Layer_1" xmlns="http://www.w3.org/2000/svg" xmlns:xlink="http://www.w3.org/1999/xlink" x="0px" y="0px"
	 viewBox="0 0 970 250" style="enable-background:new 0 0 970 250;" xml:space="preserve">
<style type="text/css">
	.st0{fill:#00A9E0;}
	.st1{fill:#FFFFFF;}
</style>
<rect x="33.54" y="200.8" class="st0" width="157.35" height="35.47"/>
<g>
	<path class="st1" d="M50.14,225.08v-11.99h2.91v9.47h4.64v2.52H50.14z"/>
	<path class="st1" d="M60.58,225.08v-11.99h8.06v2.46h-5.27v2.25h4.98v2.32h-4.98v2.49h5.57v2.47H60.58z"/>
	<path class="st1" d="M80.52,225.08l-0.93-2.35h-4.64l-0.88,2.35h-3.15l5.03-11.99h2.81l4.98,11.99H80.52z M77.3,216.29l-1.52,4.12
		h3.01L77.3,216.29z"/>
	<path class="st1" d="M92.69,225.08l-2.59-4.76h-0.98v4.76h-2.85v-11.99h4.57c2.3,0,4.59,0.88,4.59,3.62c0,1.61-0.95,2.76-2.49,3.24
		l3.13,5.13H92.69z M90.64,215.43H89.1v2.79h1.37c0.93,0,2.1-0.24,2.1-1.46C92.57,215.65,91.5,215.43,90.64,215.43z"/>
	<path class="st1" d="M106.65,225.08l-4.83-7.84h-0.05l0.07,7.84h-2.81v-11.99h3.3l4.81,7.82h0.05l-0.07-7.82h2.81v11.99H106.65z"/>
	<path class="st1" d="M130.57,225.08l0.07-8.49h-0.05l-3.12,8.49h-2.03l-3.03-8.49h-0.05l0.07,8.49h-2.73v-11.99h4.12l2.73,7.69
		h0.07l2.61-7.69h4.18v11.99H130.57z"/>
	<path class="st1" d="M143.37,225.4c-3.74,0-6.52-2.58-6.52-6.37c0-3.84,2.78-6.27,6.52-6.27c3.76,0,6.54,2.42,6.54,6.27
		C149.91,222.83,147.13,225.4,143.37,225.4z M143.37,215.38c-2.03,0-3.42,1.56-3.42,3.66c0,2.17,1.41,3.73,3.42,3.73
		s3.44-1.56,3.44-3.73C146.81,216.93,145.4,215.38,143.37,215.38z"/>
	<path class="st1" d="M159.77,225.08l-2.59-4.76h-0.98v4.76h-2.85v-11.99h4.57c2.3,0,4.59,0.88,4.59,3.62
		c0,1.61-0.95,2.76-2.49,3.24l3.13,5.13H159.77z M157.72,215.43h-1.54v2.79h1.37c0.93,0,2.1-0.24,2.1-1.46
		C159.65,215.65,158.59,215.43,157.72,215.43z"/>
	<path class="st1" d="M166.11,225.08v-11.99h8.06v2.46h-5.27v2.25h4.98v2.32h-4.98v2.49h5.57v2.47H166.11z"/>
</g>
</svg>
