<?xml version="1.0" encoding="utf-8"?>
<!-- Generator: Adobe Illustrator 25.2.1, SVG Export Plug-In . SVG Version: 6.00 Build 0)  -->
<svg version="1.1" id="Layer_1" xmlns="http://www.w3.org/2000/svg" xmlns:xlink="http://www.w3.org/1999/xlink" x="0px" y="0px"
	 viewBox="0 0 970 250" style="enable-background:new 0 0 970 250;" xml:space="preserve">
<style type="text/css">
	.st0{fill:#FFFFFF;}
</style>
<g>
	<path class="st0" d="M654.76,195.97h-1.32l3.68-8.49h1.08l3.64,8.49h-1.34l-0.86-2.09h-4.03L654.76,195.97z M656.03,192.84h3.18
		l-1.58-3.98L656.03,192.84z"/>
	<path class="st0" d="M662.87,190.92c-0.01-0.24-0.02-0.45-0.04-0.64h1.07c0.02,0.14,0.03,0.31,0.04,0.5
		c0.01,0.19,0.01,0.34,0.01,0.46h0.04c0.16-0.34,0.39-0.61,0.7-0.81c0.31-0.2,0.65-0.31,1.04-0.31c0.18,0,0.32,0.02,0.44,0.05
		l-0.05,1.04c-0.16-0.04-0.33-0.06-0.52-0.06c-0.27,0-0.51,0.05-0.71,0.15c-0.2,0.1-0.37,0.23-0.5,0.4s-0.23,0.36-0.29,0.58
		c-0.06,0.22-0.1,0.45-0.1,0.69v2.99h-1.13v-4.46C662.88,191.36,662.87,191.16,662.87,190.92z"/>
	<path class="st0" d="M668.54,188.24c0,0.21-0.07,0.38-0.22,0.52c-0.15,0.14-0.32,0.2-0.53,0.2s-0.38-0.07-0.52-0.21
		c-0.14-0.14-0.21-0.31-0.21-0.51c0-0.21,0.07-0.38,0.21-0.52s0.32-0.21,0.52-0.21s0.38,0.07,0.53,0.21
		C668.46,187.86,668.54,188.03,668.54,188.24z M668.36,195.97h-1.13v-5.68h1.13V195.97z"/>
	<path class="st0" d="M675.63,193.08c0,0.06,0,0.13,0,0.19c0,0.06,0,0.13-0.01,0.19h-4.52c0.01,0.24,0.06,0.46,0.16,0.67
		s0.23,0.39,0.4,0.55c0.17,0.15,0.36,0.28,0.58,0.36c0.22,0.09,0.45,0.13,0.7,0.13c0.38,0,0.71-0.08,1-0.25
		c0.28-0.17,0.5-0.37,0.66-0.61l0.79,0.64c-0.3,0.4-0.66,0.7-1.07,0.89c-0.41,0.19-0.87,0.29-1.37,0.29c-0.43,0-0.83-0.07-1.2-0.22
		c-0.37-0.14-0.68-0.35-0.95-0.61c-0.26-0.26-0.47-0.57-0.62-0.94s-0.23-0.78-0.23-1.22c0-0.44,0.07-0.85,0.22-1.22
		c0.15-0.37,0.35-0.69,0.62-0.95s0.58-0.47,0.94-0.62c0.36-0.15,0.75-0.22,1.17-0.22c0.42,0,0.79,0.07,1.13,0.2
		c0.34,0.14,0.63,0.33,0.87,0.59s0.42,0.57,0.55,0.93C675.57,192.22,675.63,192.62,675.63,193.08z M674.48,192.62
		c-0.01-0.22-0.05-0.43-0.11-0.63c-0.07-0.2-0.17-0.37-0.3-0.51c-0.13-0.14-0.3-0.26-0.49-0.34c-0.2-0.08-0.42-0.13-0.69-0.13
		c-0.24,0-0.47,0.04-0.68,0.13s-0.4,0.2-0.55,0.34c-0.16,0.14-0.28,0.31-0.38,0.51c-0.1,0.2-0.16,0.41-0.17,0.63H674.48z"/>
	<path class="st0" d="M678.34,195.97h-1.13v-9.06h1.13V195.97z"/>
	<path class="st0" d="M683.73,190.29l1.28,4.34h0.02l1.35-4.34h1.19l1.38,4.34h0.02l1.28-4.34h1.19l-1.88,5.68h-1.17l-1.4-4.27
		h-0.02l-1.39,4.27h-1.17l-1.89-5.68H683.73z"/>
	<path class="st0" d="M696.11,192.29c0-0.42-0.13-0.74-0.38-0.94c-0.26-0.2-0.6-0.31-1.02-0.31c-0.32,0-0.62,0.06-0.91,0.19
		c-0.28,0.12-0.52,0.28-0.71,0.47l-0.6-0.72c0.28-0.26,0.62-0.47,1.03-0.62c0.4-0.15,0.84-0.23,1.3-0.23c0.41,0,0.76,0.06,1.06,0.17
		c0.3,0.12,0.54,0.27,0.74,0.47c0.19,0.2,0.33,0.44,0.43,0.71c0.1,0.27,0.14,0.56,0.14,0.88v2.48c0,0.19,0.01,0.39,0.02,0.61
		c0.01,0.21,0.03,0.39,0.07,0.52h-1.02c-0.06-0.27-0.1-0.54-0.1-0.82h-0.04c-0.21,0.3-0.47,0.54-0.79,0.71
		c-0.32,0.17-0.69,0.25-1.12,0.25c-0.22,0-0.46-0.03-0.7-0.09c-0.24-0.06-0.47-0.16-0.67-0.29c-0.2-0.14-0.37-0.32-0.5-0.54
		s-0.2-0.5-0.2-0.83c0-0.43,0.12-0.77,0.35-1.03c0.23-0.25,0.54-0.44,0.91-0.58c0.38-0.13,0.8-0.22,1.27-0.26s0.95-0.06,1.43-0.06
		V192.29z M695.83,193.26c-0.28,0-0.57,0.01-0.87,0.04c-0.3,0.02-0.57,0.07-0.82,0.14c-0.24,0.07-0.45,0.18-0.61,0.32
		c-0.16,0.14-0.24,0.34-0.24,0.58c0,0.17,0.03,0.31,0.1,0.42c0.07,0.11,0.16,0.2,0.27,0.28c0.11,0.07,0.24,0.12,0.37,0.15
		s0.28,0.04,0.42,0.04c0.53,0,0.93-0.16,1.22-0.47c0.28-0.32,0.43-0.71,0.43-1.19v-0.3H695.83z"/>
	<path class="st0" d="M702.14,191.73c-0.13-0.21-0.31-0.38-0.54-0.51c-0.23-0.13-0.49-0.2-0.78-0.2c-0.13,0-0.26,0.01-0.38,0.04
		s-0.24,0.07-0.34,0.13c-0.1,0.06-0.18,0.14-0.24,0.23c-0.06,0.09-0.09,0.21-0.09,0.34c0,0.24,0.11,0.42,0.32,0.53
		c0.22,0.12,0.54,0.22,0.97,0.32c0.27,0.06,0.52,0.14,0.76,0.23c0.23,0.09,0.43,0.2,0.61,0.33s0.31,0.29,0.4,0.47
		c0.1,0.18,0.14,0.4,0.14,0.65c0,0.34-0.06,0.62-0.19,0.85s-0.3,0.42-0.51,0.57c-0.21,0.15-0.45,0.25-0.73,0.32
		c-0.27,0.06-0.55,0.1-0.84,0.1c-0.43,0-0.85-0.08-1.26-0.25c-0.41-0.17-0.75-0.42-1.03-0.77l0.8-0.68
		c0.15,0.22,0.36,0.41,0.63,0.56c0.27,0.15,0.56,0.23,0.88,0.23c0.14,0,0.28-0.01,0.41-0.04c0.13-0.03,0.25-0.07,0.36-0.14
		c0.11-0.06,0.19-0.15,0.26-0.25c0.06-0.1,0.1-0.24,0.1-0.4c0-0.26-0.13-0.46-0.38-0.59s-0.62-0.25-1.11-0.36
		c-0.19-0.05-0.39-0.11-0.58-0.17c-0.2-0.07-0.37-0.16-0.53-0.28c-0.16-0.12-0.29-0.27-0.39-0.45c-0.1-0.18-0.15-0.4-0.15-0.67
		c0-0.3,0.06-0.56,0.19-0.79c0.12-0.22,0.29-0.4,0.49-0.54c0.2-0.14,0.43-0.24,0.68-0.31c0.26-0.07,0.52-0.1,0.79-0.1
		c0.41,0,0.8,0.08,1.18,0.24c0.38,0.16,0.67,0.39,0.88,0.7L702.14,191.73z"/>
	<path class="st0" d="M710.17,191.21h-1.51v2.95c0,0.34,0.06,0.59,0.19,0.74s0.33,0.22,0.61,0.22c0.1,0,0.22-0.01,0.34-0.03
		c0.12-0.02,0.23-0.06,0.32-0.1l0.04,0.92c-0.14,0.05-0.29,0.08-0.45,0.11s-0.33,0.04-0.51,0.04c-0.54,0-0.95-0.15-1.23-0.44
		c-0.28-0.3-0.43-0.74-0.43-1.33v-3.08h-1.09v-0.92h1.09v-1.63h1.12v1.63h1.51V191.21z"/>
	<path class="st0" d="M711.32,190.92c-0.01-0.24-0.02-0.45-0.04-0.64h1.07c0.02,0.14,0.03,0.31,0.04,0.5
		c0.01,0.19,0.01,0.34,0.01,0.46h0.04c0.16-0.34,0.39-0.61,0.7-0.81c0.31-0.2,0.65-0.31,1.04-0.31c0.18,0,0.32,0.02,0.44,0.05
		l-0.05,1.04c-0.16-0.04-0.33-0.06-0.52-0.06c-0.27,0-0.51,0.05-0.71,0.15c-0.2,0.1-0.37,0.23-0.5,0.4s-0.23,0.36-0.29,0.58
		c-0.06,0.22-0.1,0.45-0.1,0.69v2.99h-1.13v-4.46C711.34,191.36,711.33,191.16,711.32,190.92z"/>
	<path class="st0" d="M720.77,193.08c0,0.06,0,0.13,0,0.19c0,0.06,0,0.13-0.01,0.19h-4.52c0.01,0.24,0.06,0.46,0.16,0.67
		s0.23,0.39,0.4,0.55c0.17,0.15,0.36,0.28,0.58,0.36c0.22,0.09,0.45,0.13,0.7,0.13c0.38,0,0.71-0.08,1-0.25
		c0.28-0.17,0.5-0.37,0.66-0.61l0.79,0.64c-0.3,0.4-0.66,0.7-1.07,0.89c-0.41,0.19-0.87,0.29-1.37,0.29c-0.43,0-0.83-0.07-1.2-0.22
		c-0.37-0.14-0.68-0.35-0.95-0.61c-0.26-0.26-0.47-0.57-0.62-0.94s-0.23-0.78-0.23-1.22c0-0.44,0.07-0.85,0.22-1.22
		c0.15-0.37,0.35-0.69,0.62-0.95s0.58-0.47,0.94-0.62c0.36-0.15,0.75-0.22,1.17-0.22c0.42,0,0.79,0.07,1.13,0.2
		c0.34,0.14,0.63,0.33,0.87,0.59s0.42,0.57,0.55,0.93C720.71,192.22,720.77,192.62,720.77,193.08z M719.62,192.62
		c-0.01-0.22-0.05-0.43-0.11-0.63c-0.07-0.2-0.17-0.37-0.3-0.51c-0.13-0.14-0.3-0.26-0.49-0.34c-0.2-0.08-0.42-0.13-0.69-0.13
		c-0.24,0-0.47,0.04-0.68,0.13s-0.4,0.2-0.55,0.34c-0.16,0.14-0.28,0.31-0.38,0.51c-0.1,0.2-0.16,0.41-0.17,0.63H719.62z"/>
	<path class="st0" d="M725.79,192.29c0-0.42-0.13-0.74-0.38-0.94c-0.26-0.2-0.6-0.31-1.02-0.31c-0.32,0-0.62,0.06-0.91,0.19
		c-0.28,0.12-0.52,0.28-0.71,0.47l-0.6-0.72c0.28-0.26,0.62-0.47,1.03-0.62c0.4-0.15,0.84-0.23,1.3-0.23c0.41,0,0.76,0.06,1.06,0.17
		c0.3,0.12,0.54,0.27,0.74,0.47c0.19,0.2,0.33,0.44,0.43,0.71c0.1,0.27,0.14,0.56,0.14,0.88v2.48c0,0.19,0.01,0.39,0.02,0.61
		c0.01,0.21,0.03,0.39,0.07,0.52h-1.02c-0.06-0.27-0.1-0.54-0.1-0.82h-0.04c-0.21,0.3-0.47,0.54-0.79,0.71
		c-0.32,0.17-0.69,0.25-1.12,0.25c-0.22,0-0.46-0.03-0.7-0.09c-0.24-0.06-0.47-0.16-0.67-0.29c-0.2-0.14-0.37-0.32-0.5-0.54
		s-0.2-0.5-0.2-0.83c0-0.43,0.12-0.77,0.35-1.03c0.23-0.25,0.54-0.44,0.91-0.58c0.38-0.13,0.8-0.22,1.27-0.26s0.95-0.06,1.43-0.06
		V192.29z M725.52,193.26c-0.28,0-0.57,0.01-0.87,0.04c-0.3,0.02-0.57,0.07-0.82,0.14c-0.24,0.07-0.45,0.18-0.61,0.32
		c-0.16,0.14-0.24,0.34-0.24,0.58c0,0.17,0.03,0.31,0.1,0.42c0.07,0.11,0.16,0.2,0.27,0.28c0.11,0.07,0.24,0.12,0.37,0.15
		s0.28,0.04,0.42,0.04c0.53,0,0.93-0.16,1.22-0.47c0.28-0.32,0.43-0.71,0.43-1.19v-0.3H725.52z"/>
	<path class="st0" d="M731.42,191.21h-1.51v2.95c0,0.34,0.06,0.59,0.19,0.74s0.33,0.22,0.61,0.22c0.1,0,0.22-0.01,0.34-0.03
		c0.12-0.02,0.23-0.06,0.32-0.1l0.04,0.92c-0.14,0.05-0.29,0.08-0.45,0.11s-0.33,0.04-0.51,0.04c-0.54,0-0.95-0.15-1.23-0.44
		c-0.28-0.3-0.43-0.74-0.43-1.33v-3.08h-1.09v-0.92h1.09v-1.63h1.12v1.63h1.51V191.21z"/>
	<path class="st0" d="M737.89,193.08c0,0.06,0,0.13,0,0.19c0,0.06,0,0.13-0.01,0.19h-4.52c0.01,0.24,0.06,0.46,0.16,0.67
		s0.23,0.39,0.4,0.55c0.17,0.15,0.36,0.28,0.58,0.36c0.22,0.09,0.45,0.13,0.7,0.13c0.38,0,0.71-0.08,1-0.25
		c0.28-0.17,0.5-0.37,0.66-0.61l0.79,0.64c-0.3,0.4-0.66,0.7-1.07,0.89c-0.41,0.19-0.87,0.29-1.37,0.29c-0.43,0-0.83-0.07-1.2-0.22
		c-0.37-0.14-0.68-0.35-0.95-0.61c-0.26-0.26-0.47-0.57-0.62-0.94s-0.23-0.78-0.23-1.22c0-0.44,0.07-0.85,0.22-1.22
		c0.15-0.37,0.35-0.69,0.62-0.95s0.58-0.47,0.94-0.62c0.36-0.15,0.75-0.22,1.17-0.22c0.42,0,0.79,0.07,1.13,0.2
		c0.34,0.14,0.63,0.33,0.87,0.59s0.42,0.57,0.55,0.93C737.83,192.22,737.89,192.62,737.89,193.08z M736.74,192.62
		c-0.01-0.22-0.05-0.43-0.11-0.63c-0.07-0.2-0.17-0.37-0.3-0.51c-0.13-0.14-0.3-0.26-0.49-0.34c-0.2-0.08-0.42-0.13-0.69-0.13
		c-0.24,0-0.47,0.04-0.68,0.13s-0.4,0.2-0.55,0.34c-0.16,0.14-0.28,0.31-0.38,0.51c-0.1,0.2-0.16,0.41-0.17,0.63H736.74z"/>
	<path class="st0" d="M743.98,195.07c-0.22,0.34-0.51,0.61-0.88,0.79c-0.37,0.18-0.76,0.27-1.17,0.27c-0.44,0-0.84-0.08-1.19-0.23
		c-0.35-0.16-0.65-0.37-0.9-0.64c-0.25-0.27-0.44-0.59-0.58-0.96c-0.14-0.37-0.2-0.76-0.2-1.17c0-0.42,0.07-0.8,0.2-1.17
		c0.14-0.36,0.33-0.68,0.58-0.95c0.25-0.27,0.55-0.48,0.91-0.63c0.35-0.15,0.74-0.23,1.16-0.23c0.46,0,0.87,0.1,1.21,0.29
		c0.34,0.2,0.62,0.43,0.82,0.71h0.02v-4.23h1.13v9.06H744v-0.9H743.98z M740.24,193.12c0,0.26,0.04,0.52,0.12,0.77
		s0.2,0.47,0.36,0.66c0.16,0.19,0.36,0.34,0.59,0.46c0.23,0.12,0.5,0.17,0.82,0.17c0.29,0,0.55-0.06,0.79-0.17
		c0.24-0.11,0.44-0.26,0.61-0.45c0.17-0.19,0.3-0.4,0.39-0.65s0.14-0.51,0.14-0.78c0-0.27-0.05-0.53-0.14-0.78s-0.22-0.47-0.39-0.66
		s-0.37-0.34-0.61-0.45c-0.24-0.11-0.5-0.17-0.79-0.17c-0.31,0-0.58,0.06-0.82,0.17c-0.23,0.11-0.43,0.26-0.59,0.45
		c-0.16,0.19-0.28,0.41-0.36,0.66S740.24,192.86,740.24,193.12z"/>
	<path class="st0" d="M750.48,190.29l1.28,4.34h0.02l1.35-4.34h1.19l1.38,4.34h0.02l1.28-4.34h1.19l-1.88,5.68h-1.17l-1.4-4.27
		h-0.02l-1.39,4.27h-1.17l-1.89-5.68H750.48z"/>
	<path class="st0" d="M760.65,188.24c0,0.21-0.07,0.38-0.22,0.52c-0.15,0.14-0.32,0.2-0.53,0.2s-0.38-0.07-0.52-0.21
		c-0.14-0.14-0.21-0.31-0.21-0.51c0-0.21,0.07-0.38,0.21-0.52s0.32-0.21,0.52-0.21s0.38,0.07,0.53,0.21
		C760.57,187.86,760.65,188.03,760.65,188.24z M760.47,195.97h-1.13v-5.68h1.13V195.97z"/>
	<path class="st0" d="M765.21,191.21h-1.51v2.95c0,0.34,0.06,0.59,0.19,0.74s0.33,0.22,0.61,0.22c0.1,0,0.22-0.01,0.34-0.03
		c0.12-0.02,0.23-0.06,0.32-0.1l0.04,0.92c-0.14,0.05-0.29,0.08-0.45,0.11s-0.33,0.04-0.51,0.04c-0.54,0-0.95-0.15-1.23-0.44
		c-0.28-0.3-0.43-0.74-0.43-1.33v-3.08h-1.09v-0.92h1.09v-1.63h1.12v1.63h1.51V191.21z"/>
	<path class="st0" d="M767.55,191.15c0.14-0.28,0.37-0.52,0.7-0.72c0.33-0.2,0.7-0.3,1.1-0.3c0.37,0,0.68,0.06,0.95,0.19
		s0.48,0.29,0.66,0.5s0.31,0.45,0.39,0.73c0.08,0.28,0.13,0.58,0.13,0.9v3.52h-1.13v-3.15c0-0.23-0.02-0.45-0.05-0.66
		c-0.04-0.21-0.1-0.39-0.2-0.55s-0.23-0.29-0.39-0.38c-0.16-0.1-0.38-0.14-0.64-0.14c-0.45,0-0.81,0.17-1.1,0.51
		c-0.29,0.34-0.43,0.8-0.43,1.36v3.02h-1.13v-9.06h1.13v4.24H767.55z"/>
	<path class="st0" d="M682.59,207.64c-0.34,0.46-0.77,0.83-1.31,1.11c-0.54,0.28-1.18,0.43-1.93,0.43c-0.65,0-1.25-0.11-1.79-0.33
		c-0.55-0.22-1.02-0.53-1.42-0.92s-0.71-0.87-0.93-1.42c-0.22-0.55-0.34-1.15-0.34-1.8c0-0.66,0.11-1.27,0.34-1.82
		c0.23-0.55,0.54-1.01,0.95-1.4c0.4-0.39,0.88-0.69,1.43-0.91c0.55-0.22,1.15-0.32,1.8-0.32c0.29,0,0.58,0.03,0.88,0.08
		c0.3,0.06,0.58,0.14,0.85,0.25c0.27,0.11,0.52,0.25,0.74,0.41c0.22,0.16,0.42,0.35,0.58,0.57l-0.93,0.72
		c-0.21-0.29-0.5-0.53-0.88-0.71c-0.38-0.19-0.79-0.28-1.23-0.28c-0.5,0-0.94,0.09-1.34,0.27c-0.4,0.18-0.73,0.42-1.01,0.74
		c-0.28,0.31-0.5,0.67-0.65,1.08c-0.15,0.41-0.23,0.85-0.23,1.31c0,0.48,0.07,0.93,0.22,1.34c0.15,0.42,0.36,0.78,0.63,1.08
		c0.28,0.31,0.61,0.55,1.01,0.73s0.84,0.26,1.32,0.26c0.48,0,0.92-0.1,1.31-0.29s0.72-0.47,0.97-0.84L682.59,207.64z"/>
	<path class="st0" d="M689.35,206.1c0,0.44-0.08,0.84-0.23,1.21c-0.16,0.37-0.37,0.69-0.65,0.95c-0.28,0.27-0.6,0.48-0.98,0.62
		c-0.38,0.15-0.78,0.22-1.21,0.22s-0.83-0.07-1.21-0.22c-0.38-0.15-0.7-0.36-0.97-0.62s-0.49-0.58-0.64-0.95
		c-0.16-0.37-0.23-0.77-0.23-1.21s0.08-0.84,0.23-1.21c0.16-0.36,0.37-0.68,0.64-0.94s0.6-0.47,0.97-0.62
		c0.38-0.15,0.78-0.22,1.21-0.22s0.83,0.07,1.21,0.22c0.38,0.15,0.7,0.35,0.98,0.62c0.28,0.26,0.49,0.58,0.65,0.94
		C689.27,205.26,689.35,205.66,689.35,206.1z M688.17,206.11c0-0.27-0.04-0.53-0.13-0.78c-0.08-0.25-0.21-0.46-0.37-0.65
		s-0.36-0.34-0.59-0.45c-0.24-0.11-0.51-0.17-0.81-0.17s-0.58,0.06-0.81,0.17c-0.24,0.11-0.44,0.26-0.6,0.45s-0.28,0.4-0.37,0.65
		c-0.08,0.25-0.13,0.51-0.13,0.78c0,0.27,0.04,0.53,0.13,0.78c0.08,0.25,0.21,0.47,0.37,0.66s0.36,0.34,0.6,0.45
		c0.24,0.11,0.51,0.17,0.81,0.17s0.58-0.06,0.81-0.17c0.24-0.11,0.43-0.26,0.59-0.45s0.28-0.41,0.37-0.66
		C688.13,206.64,688.17,206.38,688.17,206.11z"/>
	<path class="st0" d="M696.66,206.1c0,0.44-0.08,0.84-0.23,1.21c-0.16,0.37-0.37,0.69-0.65,0.95c-0.28,0.27-0.6,0.48-0.98,0.62
		c-0.38,0.15-0.78,0.22-1.21,0.22s-0.83-0.07-1.21-0.22c-0.38-0.15-0.7-0.36-0.97-0.62s-0.49-0.58-0.64-0.95
		c-0.16-0.37-0.23-0.77-0.23-1.21s0.08-0.84,0.23-1.21c0.16-0.36,0.37-0.68,0.64-0.94s0.6-0.47,0.97-0.62
		c0.38-0.15,0.78-0.22,1.21-0.22s0.83,0.07,1.21,0.22c0.38,0.15,0.7,0.35,0.98,0.62c0.28,0.26,0.49,0.58,0.65,0.94
		C696.58,205.26,696.66,205.66,696.66,206.1z M695.49,206.11c0-0.27-0.04-0.53-0.13-0.78c-0.08-0.25-0.21-0.46-0.37-0.65
		s-0.36-0.34-0.59-0.45c-0.24-0.11-0.51-0.17-0.81-0.17s-0.58,0.06-0.81,0.17c-0.24,0.11-0.44,0.26-0.6,0.45s-0.28,0.4-0.37,0.65
		c-0.08,0.25-0.13,0.51-0.13,0.78c0,0.27,0.04,0.53,0.13,0.78c0.08,0.25,0.21,0.47,0.37,0.66s0.36,0.34,0.6,0.45
		c0.24,0.11,0.51,0.17,0.81,0.17s0.58-0.06,0.81-0.17c0.24-0.11,0.43-0.26,0.59-0.45s0.28-0.41,0.37-0.66
		C695.45,206.64,695.49,206.38,695.49,206.11z"/>
	<path class="st0" d="M699.37,208.96h-1.13v-9.06h1.13V208.96z"/>
	<path class="st0" d="M704.37,208.96h-1.19v-7.45h-2.72v-1.04h6.63v1.04h-2.72V208.96z"/>
	<path class="st0" d="M712.76,206.1c0,0.44-0.08,0.84-0.23,1.21c-0.16,0.37-0.37,0.69-0.65,0.95c-0.28,0.27-0.6,0.48-0.98,0.62
		c-0.38,0.15-0.78,0.22-1.21,0.22s-0.83-0.07-1.21-0.22c-0.38-0.15-0.7-0.36-0.97-0.62s-0.49-0.58-0.64-0.95
		c-0.16-0.37-0.23-0.77-0.23-1.21s0.08-0.84,0.23-1.21c0.16-0.36,0.37-0.68,0.64-0.94s0.6-0.47,0.97-0.62
		c0.38-0.15,0.78-0.22,1.21-0.22s0.83,0.07,1.21,0.22c0.38,0.15,0.7,0.35,0.98,0.62c0.28,0.26,0.49,0.58,0.65,0.94
		C712.68,205.26,712.76,205.66,712.76,206.1z M711.59,206.11c0-0.27-0.04-0.53-0.13-0.78c-0.08-0.25-0.21-0.46-0.37-0.65
		s-0.36-0.34-0.59-0.45c-0.24-0.11-0.51-0.17-0.81-0.17s-0.58,0.06-0.81,0.17c-0.24,0.11-0.44,0.26-0.6,0.45s-0.28,0.4-0.37,0.65
		c-0.08,0.25-0.13,0.51-0.13,0.78c0,0.27,0.04,0.53,0.13,0.78c0.08,0.25,0.21,0.47,0.37,0.66s0.36,0.34,0.6,0.45
		c0.24,0.11,0.51,0.17,0.81,0.17s0.58-0.06,0.81-0.17c0.24-0.11,0.43-0.26,0.59-0.45s0.28-0.41,0.37-0.66
		C711.54,206.64,711.59,206.38,711.59,206.11z"/>
	<path class="st0" d="M715.34,203.27c0.02,0.14,0.03,0.31,0.04,0.49c0.01,0.18,0.01,0.33,0.01,0.45h0.04
		c0.07-0.15,0.17-0.29,0.29-0.43c0.12-0.13,0.27-0.25,0.42-0.35c0.16-0.1,0.34-0.18,0.53-0.23c0.19-0.06,0.39-0.08,0.6-0.08
		c0.37,0,0.68,0.06,0.95,0.19s0.48,0.29,0.66,0.5s0.31,0.45,0.39,0.73c0.08,0.28,0.13,0.58,0.13,0.9v3.52h-1.13v-3.15
		c0-0.23-0.02-0.45-0.05-0.66s-0.1-0.39-0.2-0.55c-0.1-0.16-0.23-0.29-0.4-0.38c-0.17-0.1-0.38-0.14-0.65-0.14
		c-0.45,0-0.81,0.17-1.1,0.51c-0.28,0.34-0.43,0.79-0.43,1.36v3.02h-1.13v-4.46c0-0.15,0-0.35-0.01-0.59
		c-0.01-0.24-0.02-0.45-0.04-0.64H715.34z"/>
	<path class="st0" d="M726.61,206.07c0,0.06,0,0.13,0,0.19c0,0.06,0,0.13-0.01,0.19h-4.52c0.01,0.24,0.06,0.46,0.16,0.67
		s0.23,0.39,0.4,0.55c0.17,0.15,0.36,0.28,0.58,0.36c0.22,0.09,0.45,0.13,0.7,0.13c0.38,0,0.71-0.08,1-0.25
		c0.28-0.17,0.5-0.37,0.66-0.61l0.79,0.64c-0.3,0.4-0.66,0.7-1.07,0.89c-0.41,0.19-0.87,0.29-1.37,0.29c-0.43,0-0.83-0.07-1.2-0.22
		c-0.37-0.14-0.68-0.35-0.95-0.61c-0.26-0.26-0.47-0.57-0.62-0.94s-0.23-0.78-0.23-1.22c0-0.44,0.07-0.85,0.22-1.22
		c0.15-0.37,0.35-0.69,0.62-0.95s0.58-0.47,0.94-0.62c0.36-0.15,0.75-0.22,1.17-0.22c0.42,0,0.79,0.07,1.13,0.2
		c0.34,0.14,0.63,0.33,0.87,0.59s0.42,0.57,0.55,0.93C726.54,205.2,726.61,205.61,726.61,206.07z M725.46,205.61
		c-0.01-0.22-0.05-0.43-0.11-0.63c-0.07-0.2-0.17-0.37-0.3-0.51c-0.13-0.14-0.3-0.26-0.49-0.34c-0.2-0.08-0.42-0.13-0.69-0.13
		c-0.24,0-0.47,0.04-0.68,0.13s-0.4,0.2-0.55,0.34c-0.16,0.14-0.28,0.31-0.38,0.51c-0.1,0.2-0.16,0.41-0.17,0.63H725.46z"/>
	<path class="st0" d="M727.58,203.05c0-0.38,0.07-0.73,0.22-1.06c0.14-0.33,0.34-0.62,0.59-0.86c0.25-0.24,0.54-0.44,0.87-0.58
		c0.33-0.14,0.69-0.22,1.06-0.22s0.73,0.07,1.06,0.22c0.33,0.14,0.62,0.34,0.87,0.58c0.25,0.24,0.44,0.53,0.59,0.86
		c0.14,0.33,0.22,0.69,0.22,1.06s-0.07,0.73-0.22,1.05c-0.14,0.33-0.34,0.61-0.59,0.86c-0.25,0.24-0.54,0.44-0.87,0.58
		c-0.33,0.14-0.68,0.21-1.06,0.21s-0.73-0.07-1.06-0.21c-0.33-0.14-0.62-0.33-0.87-0.58c-0.25-0.24-0.44-0.53-0.59-0.86
		C727.65,203.77,727.58,203.42,727.58,203.05z M728.01,203.05c0,0.31,0.06,0.61,0.18,0.89c0.12,0.28,0.28,0.53,0.49,0.74
		s0.45,0.38,0.73,0.5c0.28,0.12,0.58,0.18,0.9,0.18c0.32,0,0.62-0.06,0.9-0.18c0.28-0.12,0.52-0.29,0.73-0.5
		c0.21-0.21,0.37-0.46,0.49-0.74c0.12-0.28,0.18-0.58,0.18-0.89c0-0.32-0.06-0.62-0.18-0.9c-0.12-0.28-0.28-0.52-0.49-0.73
		c-0.21-0.21-0.45-0.37-0.73-0.49c-0.28-0.12-0.58-0.18-0.9-0.18c-0.32,0-0.62,0.06-0.9,0.18c-0.28,0.12-0.52,0.28-0.73,0.49
		s-0.37,0.45-0.49,0.73C728.07,202.43,728.01,202.73,728.01,203.05z M730.97,204.54l-0.66-1.19h-0.43v1.19h-0.73v-3.07h1.32
		c0.14,0,0.28,0.02,0.42,0.05c0.14,0.03,0.26,0.08,0.37,0.16c0.11,0.07,0.2,0.17,0.27,0.29c0.07,0.12,0.1,0.28,0.1,0.46
		c0,0.21-0.06,0.38-0.17,0.52c-0.12,0.14-0.26,0.24-0.44,0.3l0.82,1.29H730.97z M730.44,202.83c0.11,0,0.21-0.04,0.31-0.11
		c0.09-0.07,0.14-0.17,0.14-0.29c0-0.13-0.05-0.22-0.16-0.28c-0.1-0.06-0.2-0.08-0.29-0.08h-0.56v0.76H730.44z"/>
	<path class="st0" d="M743.63,206.1c0,0.44-0.08,0.84-0.23,1.21c-0.16,0.37-0.37,0.69-0.65,0.95c-0.28,0.27-0.6,0.48-0.98,0.62
		c-0.38,0.15-0.78,0.22-1.21,0.22s-0.83-0.07-1.21-0.22c-0.38-0.15-0.7-0.36-0.97-0.62s-0.49-0.58-0.64-0.95
		c-0.16-0.37-0.23-0.77-0.23-1.21s0.08-0.84,0.23-1.21c0.16-0.36,0.37-0.68,0.64-0.94s0.6-0.47,0.97-0.62
		c0.38-0.15,0.78-0.22,1.21-0.22s0.83,0.07,1.21,0.22c0.38,0.15,0.7,0.35,0.98,0.62c0.28,0.26,0.49,0.58,0.65,0.94
		C743.55,205.26,743.63,205.66,743.63,206.1z M742.46,206.11c0-0.27-0.04-0.53-0.13-0.78c-0.08-0.25-0.21-0.46-0.37-0.65
		s-0.36-0.34-0.59-0.45c-0.24-0.11-0.51-0.17-0.81-0.17s-0.58,0.06-0.81,0.17c-0.24,0.11-0.44,0.26-0.6,0.45s-0.28,0.4-0.37,0.65
		c-0.08,0.25-0.13,0.51-0.13,0.78c0,0.27,0.04,0.53,0.13,0.78c0.08,0.25,0.21,0.47,0.37,0.66s0.36,0.34,0.6,0.45
		c0.24,0.11,0.51,0.17,0.81,0.17s0.58-0.06,0.81-0.17c0.24-0.11,0.43-0.26,0.59-0.45s0.28-0.41,0.37-0.66
		C742.42,206.64,742.46,206.38,742.46,206.11z"/>
	<path class="st0" d="M746.21,203.27c0.02,0.14,0.03,0.31,0.04,0.49c0.01,0.18,0.01,0.33,0.01,0.45h0.04
		c0.07-0.15,0.17-0.29,0.29-0.43c0.12-0.13,0.27-0.25,0.42-0.35c0.16-0.1,0.34-0.18,0.53-0.23c0.19-0.06,0.39-0.08,0.6-0.08
		c0.37,0,0.68,0.06,0.95,0.19s0.48,0.29,0.66,0.5s0.31,0.45,0.39,0.73c0.08,0.28,0.13,0.58,0.13,0.9v3.52h-1.13v-3.15
		c0-0.23-0.02-0.45-0.05-0.66s-0.1-0.39-0.2-0.55c-0.1-0.16-0.23-0.29-0.4-0.38c-0.17-0.1-0.38-0.14-0.65-0.14
		c-0.45,0-0.81,0.17-1.1,0.51c-0.28,0.34-0.43,0.79-0.43,1.36v3.02h-1.13v-4.46c0-0.15,0-0.35-0.01-0.59
		c-0.01-0.24-0.02-0.45-0.04-0.64H746.21z"/>
	<path class="st0" d="M756.34,204.14c0.14-0.28,0.37-0.52,0.7-0.72c0.33-0.2,0.7-0.3,1.1-0.3c0.37,0,0.68,0.06,0.95,0.19
		s0.48,0.29,0.66,0.5s0.31,0.45,0.39,0.73c0.08,0.28,0.13,0.58,0.13,0.9v3.52h-1.13v-3.15c0-0.23-0.02-0.45-0.05-0.66
		c-0.04-0.21-0.1-0.39-0.2-0.55s-0.23-0.29-0.39-0.38c-0.16-0.1-0.38-0.14-0.64-0.14c-0.45,0-0.81,0.17-1.1,0.51
		c-0.29,0.34-0.43,0.8-0.43,1.36v3.02h-1.13v-9.06h1.13v4.24H756.34z"/>
	<path class="st0" d="M767.48,206.07c0,0.06,0,0.13,0,0.19c0,0.06,0,0.13-0.01,0.19h-4.52c0.01,0.24,0.06,0.46,0.16,0.67
		s0.23,0.39,0.4,0.55c0.17,0.15,0.36,0.28,0.58,0.36c0.22,0.09,0.45,0.13,0.7,0.13c0.38,0,0.71-0.08,1-0.25
		c0.28-0.17,0.5-0.37,0.66-0.61l0.79,0.64c-0.3,0.4-0.66,0.7-1.07,0.89c-0.41,0.19-0.87,0.29-1.37,0.29c-0.43,0-0.83-0.07-1.2-0.22
		c-0.37-0.14-0.68-0.35-0.95-0.61c-0.26-0.26-0.47-0.57-0.62-0.94s-0.23-0.78-0.23-1.22c0-0.44,0.07-0.85,0.22-1.22
		c0.15-0.37,0.35-0.69,0.62-0.95s0.58-0.47,0.94-0.62c0.36-0.15,0.75-0.22,1.17-0.22c0.42,0,0.79,0.07,1.13,0.2
		c0.34,0.14,0.63,0.33,0.87,0.59s0.42,0.57,0.55,0.93C767.41,205.2,767.48,205.61,767.48,206.07z M766.33,205.61
		c-0.01-0.22-0.05-0.43-0.11-0.63c-0.07-0.2-0.17-0.37-0.3-0.51c-0.13-0.14-0.3-0.26-0.49-0.34c-0.2-0.08-0.42-0.13-0.69-0.13
		c-0.24,0-0.47,0.04-0.68,0.13s-0.4,0.2-0.55,0.34c-0.16,0.14-0.28,0.31-0.38,0.51c-0.1,0.2-0.16,0.41-0.17,0.63H766.33z"/>
	<path class="st0" d="M769.02,203.91c-0.01-0.24-0.02-0.45-0.04-0.64h1.07c0.02,0.14,0.03,0.31,0.04,0.5
		c0.01,0.19,0.01,0.34,0.01,0.46h0.04c0.16-0.34,0.39-0.61,0.7-0.81c0.31-0.2,0.65-0.31,1.04-0.31c0.18,0,0.32,0.02,0.44,0.05
		l-0.05,1.04c-0.16-0.04-0.33-0.06-0.52-0.06c-0.27,0-0.51,0.05-0.71,0.15c-0.2,0.1-0.37,0.23-0.5,0.4s-0.23,0.36-0.29,0.58
		c-0.06,0.22-0.1,0.45-0.1,0.69v2.99h-1.13v-4.46C769.03,204.35,769.03,204.15,769.02,203.91z"/>
	<path class="st0" d="M646.43,218.26c0-0.42-0.13-0.74-0.38-0.94c-0.26-0.2-0.6-0.31-1.02-0.31c-0.32,0-0.62,0.06-0.91,0.19
		c-0.28,0.12-0.52,0.28-0.71,0.47l-0.6-0.72c0.28-0.26,0.62-0.47,1.03-0.62c0.4-0.15,0.84-0.23,1.3-0.23c0.41,0,0.76,0.06,1.06,0.17
		c0.3,0.12,0.54,0.27,0.74,0.47c0.19,0.2,0.33,0.44,0.43,0.71c0.1,0.27,0.14,0.56,0.14,0.88v2.48c0,0.19,0.01,0.39,0.02,0.61
		c0.01,0.21,0.03,0.39,0.07,0.52h-1.02c-0.06-0.27-0.1-0.54-0.1-0.82h-0.04c-0.21,0.3-0.47,0.54-0.79,0.71
		c-0.32,0.17-0.69,0.25-1.12,0.25c-0.22,0-0.46-0.03-0.7-0.09c-0.24-0.06-0.47-0.16-0.67-0.29c-0.2-0.14-0.37-0.32-0.5-0.54
		s-0.2-0.5-0.2-0.83c0-0.43,0.12-0.77,0.35-1.03c0.23-0.25,0.54-0.44,0.91-0.58c0.38-0.13,0.8-0.22,1.27-0.26s0.95-0.06,1.43-0.06
		V218.26z M646.16,219.24c-0.28,0-0.57,0.01-0.87,0.04c-0.3,0.02-0.57,0.07-0.82,0.14c-0.24,0.07-0.45,0.18-0.61,0.32
		c-0.16,0.14-0.24,0.34-0.24,0.58c0,0.17,0.03,0.31,0.1,0.42c0.07,0.11,0.16,0.2,0.27,0.28c0.11,0.07,0.24,0.12,0.37,0.15
		s0.28,0.04,0.42,0.04c0.53,0,0.93-0.16,1.22-0.47c0.28-0.32,0.43-0.71,0.43-1.19v-0.3H646.16z"/>
	<path class="st0" d="M650.51,221.05v0.9h-1.09v-9.06h1.13v4.23h0.04c0.19-0.28,0.46-0.52,0.8-0.71c0.34-0.2,0.75-0.29,1.22-0.29
		c0.42,0,0.81,0.08,1.15,0.23c0.35,0.15,0.65,0.36,0.9,0.63c0.25,0.27,0.44,0.59,0.58,0.95c0.14,0.36,0.2,0.75,0.2,1.17
		c0,0.42-0.07,0.81-0.2,1.17c-0.13,0.37-0.33,0.69-0.57,0.96c-0.25,0.27-0.55,0.49-0.9,0.64c-0.35,0.16-0.75,0.23-1.18,0.23
		c-0.41,0-0.79-0.09-1.16-0.27c-0.37-0.18-0.66-0.44-0.88-0.79H650.51z M654.28,219.1c0-0.26-0.04-0.52-0.12-0.76
		c-0.08-0.25-0.2-0.47-0.36-0.66s-0.36-0.34-0.59-0.45c-0.24-0.11-0.51-0.17-0.82-0.17c-0.29,0-0.55,0.06-0.79,0.17
		c-0.24,0.11-0.44,0.26-0.61,0.45c-0.17,0.19-0.3,0.41-0.39,0.66s-0.14,0.51-0.14,0.78c0,0.27,0.05,0.53,0.14,0.78
		s0.22,0.46,0.39,0.65c0.17,0.19,0.37,0.34,0.61,0.45c0.24,0.11,0.5,0.17,0.79,0.17c0.31,0,0.59-0.06,0.82-0.17
		c0.24-0.12,0.43-0.27,0.59-0.46s0.28-0.41,0.36-0.66C654.24,219.62,654.28,219.36,654.28,219.1z"/>
	<path class="st0" d="M661.55,221.05c-0.22,0.34-0.51,0.61-0.88,0.79c-0.37,0.18-0.76,0.27-1.17,0.27c-0.44,0-0.84-0.08-1.19-0.23
		c-0.35-0.16-0.65-0.37-0.9-0.64c-0.25-0.27-0.44-0.59-0.58-0.96c-0.14-0.37-0.2-0.76-0.2-1.17c0-0.42,0.07-0.8,0.2-1.17
		c0.14-0.36,0.33-0.68,0.58-0.95c0.25-0.27,0.55-0.48,0.91-0.63c0.35-0.15,0.74-0.23,1.16-0.23c0.46,0,0.87,0.1,1.21,0.29
		c0.34,0.2,0.62,0.43,0.82,0.71h0.02v-4.23h1.13v9.06h-1.09v-0.9H661.55z M657.81,219.1c0,0.26,0.04,0.52,0.12,0.77
		s0.2,0.47,0.36,0.66c0.16,0.19,0.36,0.34,0.59,0.46c0.23,0.12,0.5,0.17,0.82,0.17c0.29,0,0.55-0.06,0.79-0.17
		c0.24-0.11,0.44-0.26,0.61-0.45c0.17-0.19,0.3-0.4,0.39-0.65s0.14-0.51,0.14-0.78c0-0.27-0.05-0.53-0.14-0.78s-0.22-0.47-0.39-0.66
		s-0.37-0.34-0.61-0.45c-0.24-0.11-0.5-0.17-0.79-0.17c-0.31,0-0.58,0.06-0.82,0.17c-0.23,0.11-0.43,0.26-0.59,0.45
		c-0.16,0.19-0.28,0.41-0.36,0.66S657.81,218.83,657.81,219.1z"/>
	<path class="st0" d="M670.38,219.09c0,0.44-0.08,0.84-0.23,1.21c-0.16,0.37-0.37,0.69-0.65,0.95c-0.28,0.27-0.6,0.48-0.98,0.62
		c-0.38,0.15-0.78,0.22-1.21,0.22s-0.83-0.07-1.21-0.22c-0.38-0.15-0.7-0.36-0.97-0.62s-0.49-0.58-0.64-0.95
		c-0.16-0.37-0.23-0.77-0.23-1.21s0.08-0.84,0.23-1.21c0.16-0.36,0.37-0.68,0.64-0.94s0.6-0.47,0.97-0.62
		c0.38-0.15,0.78-0.22,1.21-0.22s0.83,0.07,1.21,0.22c0.38,0.15,0.7,0.35,0.98,0.62c0.28,0.26,0.49,0.58,0.65,0.94
		C670.31,218.25,670.38,218.65,670.38,219.09z M669.21,219.1c0-0.27-0.04-0.53-0.13-0.78c-0.08-0.25-0.21-0.46-0.37-0.65
		s-0.36-0.34-0.59-0.45c-0.24-0.11-0.51-0.17-0.81-0.17s-0.58,0.06-0.81,0.17c-0.24,0.11-0.44,0.26-0.6,0.45s-0.28,0.4-0.37,0.65
		c-0.08,0.25-0.13,0.51-0.13,0.78c0,0.27,0.04,0.53,0.13,0.78c0.08,0.25,0.21,0.47,0.37,0.66s0.36,0.34,0.6,0.45
		c0.24,0.11,0.51,0.17,0.81,0.17s0.58-0.06,0.81-0.17c0.24-0.11,0.43-0.26,0.59-0.45s0.28-0.41,0.37-0.66
		C669.17,219.63,669.21,219.37,669.21,219.1z"/>
	<path class="st0" d="M673.73,216.42c0.32-0.21,0.69-0.32,1.12-0.32c0.38,0,0.73,0.09,1.04,0.26c0.31,0.18,0.55,0.47,0.73,0.88
		c0.19-0.37,0.46-0.65,0.8-0.85c0.34-0.2,0.72-0.29,1.13-0.29c0.37,0,0.68,0.06,0.95,0.19c0.26,0.12,0.48,0.29,0.66,0.5
		s0.31,0.45,0.39,0.73c0.08,0.28,0.13,0.58,0.13,0.9v3.52h-1.13v-3.15c0-0.23-0.02-0.45-0.06-0.66s-0.11-0.39-0.2-0.55
		c-0.1-0.16-0.22-0.29-0.38-0.38c-0.16-0.1-0.36-0.14-0.61-0.14c-0.26,0-0.48,0.05-0.66,0.16c-0.18,0.11-0.33,0.25-0.45,0.42
		s-0.2,0.37-0.25,0.58s-0.08,0.44-0.08,0.66v3.07h-1.13v-3.38c0-0.22-0.02-0.43-0.06-0.61s-0.11-0.34-0.2-0.47
		c-0.1-0.13-0.22-0.24-0.37-0.31c-0.15-0.08-0.34-0.11-0.56-0.11c-0.42,0-0.76,0.17-1.04,0.51s-0.41,0.79-0.41,1.36v3.02h-1.13
		v-4.46c0-0.15,0-0.35-0.01-0.59c-0.01-0.24-0.02-0.45-0.04-0.64h1.07c0.02,0.14,0.03,0.31,0.04,0.49c0.01,0.18,0.01,0.33,0.01,0.45
		h0.04C673.19,216.89,673.42,216.64,673.73,216.42z"/>
	<path class="st0" d="M687.89,219.06c0,0.06,0,0.13,0,0.19c0,0.06,0,0.13-0.01,0.19h-4.52c0.01,0.24,0.06,0.46,0.16,0.67
		s0.23,0.39,0.4,0.55c0.17,0.15,0.36,0.28,0.58,0.36c0.22,0.09,0.45,0.13,0.7,0.13c0.38,0,0.71-0.08,1-0.25
		c0.28-0.17,0.5-0.37,0.66-0.61l0.79,0.64c-0.3,0.4-0.66,0.7-1.07,0.89c-0.41,0.19-0.87,0.29-1.37,0.29c-0.43,0-0.83-0.07-1.2-0.22
		c-0.37-0.14-0.68-0.35-0.95-0.61c-0.26-0.26-0.47-0.57-0.62-0.94s-0.23-0.78-0.23-1.22c0-0.44,0.07-0.85,0.22-1.22
		c0.15-0.37,0.35-0.69,0.62-0.95s0.58-0.47,0.94-0.62c0.36-0.15,0.75-0.22,1.17-0.22c0.42,0,0.79,0.07,1.13,0.2
		c0.34,0.14,0.63,0.33,0.87,0.59s0.42,0.57,0.55,0.93C687.82,218.19,687.89,218.6,687.89,219.06z M686.74,218.6
		c-0.01-0.22-0.05-0.43-0.11-0.63c-0.07-0.2-0.17-0.37-0.3-0.51c-0.13-0.14-0.3-0.26-0.49-0.34c-0.2-0.08-0.42-0.13-0.69-0.13
		c-0.24,0-0.47,0.04-0.68,0.13s-0.4,0.2-0.55,0.34c-0.16,0.14-0.28,0.31-0.38,0.51c-0.1,0.2-0.16,0.41-0.17,0.63H686.74z"/>
	<path class="st0" d="M690.46,216.26c0.02,0.14,0.03,0.31,0.04,0.49c0.01,0.18,0.01,0.33,0.01,0.45h0.04
		c0.07-0.15,0.17-0.29,0.29-0.43c0.12-0.13,0.27-0.25,0.42-0.35c0.16-0.1,0.34-0.18,0.53-0.23c0.19-0.06,0.39-0.08,0.6-0.08
		c0.37,0,0.68,0.06,0.95,0.19s0.48,0.29,0.66,0.5s0.31,0.45,0.39,0.73c0.08,0.28,0.13,0.58,0.13,0.9v3.52h-1.13v-3.15
		c0-0.23-0.02-0.45-0.05-0.66s-0.1-0.39-0.2-0.55c-0.1-0.16-0.23-0.29-0.4-0.38c-0.17-0.1-0.38-0.14-0.65-0.14
		c-0.45,0-0.81,0.17-1.1,0.51c-0.28,0.34-0.43,0.79-0.43,1.36v3.02h-1.13v-4.46c0-0.15,0-0.35-0.01-0.59
		c-0.01-0.24-0.02-0.45-0.04-0.64H690.46z"/>
	<path class="st0" d="M702.96,218.26c0-0.42-0.13-0.74-0.38-0.94c-0.26-0.2-0.6-0.31-1.02-0.31c-0.32,0-0.62,0.06-0.91,0.19
		c-0.28,0.12-0.52,0.28-0.71,0.47l-0.6-0.72c0.28-0.26,0.62-0.47,1.03-0.62c0.4-0.15,0.84-0.23,1.3-0.23c0.41,0,0.76,0.06,1.06,0.17
		c0.3,0.12,0.54,0.27,0.74,0.47c0.19,0.2,0.33,0.44,0.43,0.71c0.1,0.27,0.14,0.56,0.14,0.88v2.48c0,0.19,0.01,0.39,0.02,0.61
		c0.01,0.21,0.03,0.39,0.07,0.52h-1.02c-0.06-0.27-0.1-0.54-0.1-0.82h-0.04c-0.21,0.3-0.47,0.54-0.79,0.71
		c-0.32,0.17-0.69,0.25-1.12,0.25c-0.22,0-0.46-0.03-0.7-0.09c-0.24-0.06-0.47-0.16-0.67-0.29c-0.2-0.14-0.37-0.32-0.5-0.54
		s-0.2-0.5-0.2-0.83c0-0.43,0.12-0.77,0.35-1.03c0.23-0.25,0.54-0.44,0.91-0.58c0.38-0.13,0.8-0.22,1.27-0.26s0.95-0.06,1.43-0.06
		V218.26z M702.68,219.24c-0.28,0-0.57,0.01-0.87,0.04c-0.3,0.02-0.57,0.07-0.82,0.14c-0.24,0.07-0.45,0.18-0.61,0.32
		c-0.16,0.14-0.24,0.34-0.24,0.58c0,0.17,0.03,0.31,0.1,0.42c0.07,0.11,0.16,0.2,0.27,0.28c0.11,0.07,0.24,0.12,0.37,0.15
		s0.28,0.04,0.42,0.04c0.53,0,0.93-0.16,1.22-0.47c0.28-0.32,0.43-0.71,0.43-1.19v-0.3H702.68z"/>
	<path class="st0" d="M706.94,216.26c0.02,0.14,0.03,0.31,0.04,0.49c0.01,0.18,0.01,0.33,0.01,0.45h0.04
		c0.07-0.15,0.17-0.29,0.29-0.43c0.12-0.13,0.27-0.25,0.42-0.35c0.16-0.1,0.34-0.18,0.53-0.23c0.19-0.06,0.39-0.08,0.6-0.08
		c0.37,0,0.68,0.06,0.95,0.19s0.48,0.29,0.66,0.5s0.31,0.45,0.39,0.73c0.08,0.28,0.13,0.58,0.13,0.9v3.52h-1.13v-3.15
		c0-0.23-0.02-0.45-0.05-0.66s-0.1-0.39-0.2-0.55c-0.1-0.16-0.23-0.29-0.4-0.38c-0.17-0.1-0.38-0.14-0.65-0.14
		c-0.45,0-0.81,0.17-1.1,0.51c-0.28,0.34-0.43,0.79-0.43,1.36v3.02h-1.13v-4.46c0-0.15,0-0.35-0.01-0.59
		c-0.01-0.24-0.02-0.45-0.04-0.64H706.94z"/>
	<path class="st0" d="M717.43,221.05c-0.22,0.34-0.51,0.61-0.88,0.79c-0.37,0.18-0.76,0.27-1.17,0.27c-0.44,0-0.84-0.08-1.19-0.23
		c-0.35-0.16-0.65-0.37-0.9-0.64c-0.25-0.27-0.44-0.59-0.58-0.96c-0.14-0.37-0.2-0.76-0.2-1.17c0-0.42,0.07-0.8,0.2-1.17
		c0.14-0.36,0.33-0.68,0.58-0.95c0.25-0.27,0.55-0.48,0.91-0.63c0.35-0.15,0.74-0.23,1.16-0.23c0.46,0,0.87,0.1,1.21,0.29
		c0.34,0.2,0.62,0.43,0.82,0.71h0.02v-4.23h1.13v9.06h-1.09v-0.9H717.43z M713.69,219.1c0,0.26,0.04,0.52,0.12,0.77
		s0.2,0.47,0.36,0.66c0.16,0.19,0.36,0.34,0.59,0.46c0.23,0.12,0.5,0.17,0.82,0.17c0.29,0,0.55-0.06,0.79-0.17
		c0.24-0.11,0.44-0.26,0.61-0.45c0.17-0.19,0.3-0.4,0.39-0.65s0.14-0.51,0.14-0.78c0-0.27-0.05-0.53-0.14-0.78s-0.22-0.47-0.39-0.66
		s-0.37-0.34-0.61-0.45c-0.24-0.11-0.5-0.17-0.79-0.17c-0.31,0-0.58,0.06-0.82,0.17c-0.23,0.11-0.43,0.26-0.59,0.45
		c-0.16,0.19-0.28,0.41-0.36,0.66S713.69,218.83,713.69,219.1z"/>
	<path class="st0" d="M724.62,221.05v0.9h-1.09v-9.06h1.13v4.23h0.04c0.19-0.28,0.46-0.52,0.8-0.71c0.34-0.2,0.75-0.29,1.22-0.29
		c0.42,0,0.81,0.08,1.15,0.23c0.35,0.15,0.65,0.36,0.9,0.63c0.25,0.27,0.44,0.59,0.58,0.95c0.14,0.36,0.2,0.75,0.2,1.17
		c0,0.42-0.07,0.81-0.2,1.17c-0.13,0.37-0.33,0.69-0.57,0.96c-0.25,0.27-0.55,0.49-0.9,0.64c-0.35,0.16-0.75,0.23-1.18,0.23
		c-0.41,0-0.79-0.09-1.16-0.27c-0.37-0.18-0.66-0.44-0.88-0.79H724.62z M728.4,219.1c0-0.26-0.04-0.52-0.12-0.76
		c-0.08-0.25-0.2-0.47-0.36-0.66s-0.36-0.34-0.59-0.45c-0.24-0.11-0.51-0.17-0.82-0.17c-0.29,0-0.55,0.06-0.79,0.17
		c-0.24,0.11-0.44,0.26-0.61,0.45c-0.17,0.19-0.3,0.41-0.39,0.66s-0.14,0.51-0.14,0.78c0,0.27,0.05,0.53,0.14,0.78
		s0.22,0.46,0.39,0.65c0.17,0.19,0.37,0.34,0.61,0.45c0.24,0.11,0.5,0.17,0.79,0.17c0.31,0,0.59-0.06,0.82-0.17
		c0.24-0.12,0.43-0.27,0.59-0.46s0.28-0.41,0.36-0.66C728.36,219.62,728.4,219.36,728.4,219.1z"/>
	<path class="st0" d="M735.13,221.95c-0.02-0.14-0.03-0.31-0.04-0.49s-0.01-0.33-0.01-0.45h-0.02c-0.14,0.3-0.39,0.56-0.73,0.77
		c-0.34,0.21-0.72,0.32-1.13,0.32c-0.37,0-0.69-0.06-0.95-0.18c-0.27-0.12-0.49-0.29-0.66-0.5s-0.3-0.46-0.38-0.74
		c-0.08-0.28-0.13-0.58-0.13-0.9v-3.52h1.13v3.14c0,0.23,0.02,0.45,0.05,0.67c0.04,0.21,0.1,0.4,0.2,0.56
		c0.1,0.16,0.23,0.29,0.4,0.38c0.17,0.1,0.38,0.14,0.65,0.14c0.46,0,0.82-0.17,1.1-0.51c0.28-0.34,0.42-0.79,0.42-1.36v-3.02h1.13
		v4.46c0,0.15,0,0.35,0.01,0.59c0.01,0.24,0.02,0.45,0.04,0.64H735.13z"/>
	<path class="st0" d="M740.89,217.19h-1.51v2.95c0,0.34,0.06,0.59,0.19,0.74s0.33,0.22,0.61,0.22c0.1,0,0.22-0.01,0.34-0.03
		c0.12-0.02,0.23-0.06,0.32-0.1l0.04,0.92c-0.14,0.05-0.29,0.08-0.45,0.11s-0.33,0.04-0.51,0.04c-0.54,0-0.95-0.15-1.23-0.44
		c-0.28-0.3-0.43-0.74-0.43-1.33v-3.08h-1.09v-0.92h1.09v-1.63h1.12v1.63h1.51V217.19z"/>
	<path class="st0" d="M744.65,217.19h-1.51v2.95c0,0.34,0.06,0.59,0.19,0.74s0.33,0.22,0.61,0.22c0.1,0,0.22-0.01,0.34-0.03
		c0.12-0.02,0.23-0.06,0.32-0.1l0.04,0.92c-0.14,0.05-0.29,0.08-0.45,0.11s-0.33,0.04-0.51,0.04c-0.54,0-0.95-0.15-1.23-0.44
		c-0.28-0.3-0.43-0.74-0.43-1.33v-3.08h-1.09v-0.92h1.09v-1.63h1.12v1.63h1.51V217.19z"/>
	<path class="st0" d="M751.57,219.09c0,0.44-0.08,0.84-0.23,1.21c-0.16,0.37-0.37,0.69-0.65,0.95c-0.28,0.27-0.6,0.48-0.98,0.62
		c-0.38,0.15-0.78,0.22-1.21,0.22s-0.83-0.07-1.21-0.22c-0.38-0.15-0.7-0.36-0.97-0.62s-0.49-0.58-0.64-0.95
		c-0.16-0.37-0.23-0.77-0.23-1.21s0.08-0.84,0.23-1.21c0.16-0.36,0.37-0.68,0.64-0.94s0.6-0.47,0.97-0.62
		c0.38-0.15,0.78-0.22,1.21-0.22s0.83,0.07,1.21,0.22c0.38,0.15,0.7,0.35,0.98,0.62c0.28,0.26,0.49,0.58,0.65,0.94
		C751.49,218.25,751.57,218.65,751.57,219.09z M750.4,219.1c0-0.27-0.04-0.53-0.13-0.78c-0.08-0.25-0.21-0.46-0.37-0.65
		s-0.36-0.34-0.59-0.45c-0.24-0.11-0.51-0.17-0.81-0.17s-0.58,0.06-0.81,0.17c-0.24,0.11-0.44,0.26-0.6,0.45s-0.28,0.4-0.37,0.65
		c-0.08,0.25-0.13,0.51-0.13,0.78c0,0.27,0.04,0.53,0.13,0.78c0.08,0.25,0.21,0.47,0.37,0.66s0.36,0.34,0.6,0.45
		c0.24,0.11,0.51,0.17,0.81,0.17s0.58-0.06,0.81-0.17c0.24-0.11,0.43-0.26,0.59-0.45s0.28-0.41,0.37-0.66
		C750.35,219.63,750.4,219.37,750.4,219.1z"/>
	<path class="st0" d="M757.11,217.7c-0.12-0.18-0.3-0.34-0.54-0.46c-0.24-0.12-0.5-0.19-0.77-0.19c-0.3,0-0.56,0.06-0.79,0.17
		c-0.23,0.11-0.42,0.26-0.58,0.45c-0.16,0.19-0.28,0.41-0.37,0.65c-0.08,0.25-0.13,0.51-0.13,0.78c0,0.27,0.04,0.53,0.13,0.78
		c0.08,0.25,0.21,0.47,0.37,0.65c0.16,0.19,0.36,0.34,0.59,0.45s0.5,0.17,0.79,0.17c0.29,0,0.55-0.06,0.79-0.17
		c0.24-0.11,0.43-0.26,0.58-0.46l0.75,0.68c-0.24,0.28-0.54,0.5-0.9,0.65c-0.36,0.16-0.77,0.23-1.22,0.23
		c-0.44,0-0.84-0.07-1.22-0.22c-0.37-0.14-0.69-0.35-0.96-0.61s-0.49-0.57-0.64-0.94c-0.16-0.37-0.23-0.78-0.23-1.24
		c0-0.45,0.08-0.85,0.23-1.22c0.15-0.37,0.36-0.68,0.64-0.95c0.27-0.26,0.59-0.47,0.96-0.61c0.37-0.14,0.77-0.22,1.21-0.22
		c0.4,0,0.8,0.08,1.19,0.24s0.71,0.39,0.94,0.7L757.11,217.7z"/>
	<path class="st0" d="M760.2,218.73h0.04l2.39-2.47h1.51l-2.66,2.58l2.89,3.11h-1.56l-2.57-2.95h-0.04v2.95h-1.13v-9.06h1.13V218.73
		z"/>
	<path class="st0" d="M768.37,217.7c-0.13-0.21-0.31-0.38-0.54-0.51c-0.23-0.13-0.49-0.2-0.78-0.2c-0.13,0-0.26,0.01-0.38,0.04
		s-0.24,0.07-0.34,0.13c-0.1,0.06-0.18,0.14-0.24,0.23c-0.06,0.09-0.09,0.21-0.09,0.34c0,0.24,0.11,0.42,0.32,0.53
		c0.22,0.12,0.54,0.22,0.97,0.32c0.27,0.06,0.52,0.14,0.76,0.23c0.23,0.09,0.43,0.2,0.61,0.33s0.31,0.29,0.4,0.47
		c0.1,0.18,0.14,0.4,0.14,0.65c0,0.34-0.06,0.62-0.19,0.85s-0.3,0.42-0.51,0.57c-0.21,0.15-0.45,0.25-0.73,0.32
		c-0.27,0.06-0.55,0.1-0.84,0.1c-0.43,0-0.85-0.08-1.26-0.25c-0.41-0.17-0.75-0.42-1.03-0.77l0.8-0.68
		c0.15,0.22,0.36,0.41,0.63,0.56c0.27,0.15,0.56,0.23,0.88,0.23c0.14,0,0.28-0.01,0.41-0.04c0.13-0.03,0.25-0.07,0.36-0.14
		c0.11-0.06,0.19-0.15,0.26-0.25c0.06-0.1,0.1-0.24,0.1-0.4c0-0.26-0.13-0.46-0.38-0.59s-0.62-0.25-1.11-0.36
		c-0.19-0.05-0.39-0.11-0.58-0.17c-0.2-0.07-0.37-0.16-0.53-0.28c-0.16-0.12-0.29-0.27-0.39-0.45c-0.1-0.18-0.15-0.4-0.15-0.67
		c0-0.3,0.06-0.56,0.19-0.79c0.12-0.22,0.29-0.4,0.49-0.54c0.2-0.14,0.43-0.24,0.68-0.31c0.26-0.07,0.52-0.1,0.79-0.1
		c0.41,0,0.8,0.08,1.18,0.24c0.38,0.16,0.67,0.39,0.88,0.7L768.37,217.7z"/>
	<path class="st0" d="M772.01,221.23c0,0.21-0.08,0.39-0.23,0.55c-0.15,0.16-0.34,0.24-0.58,0.24c-0.22,0-0.41-0.08-0.57-0.23
		c-0.16-0.16-0.23-0.34-0.23-0.54c0-0.22,0.08-0.4,0.23-0.56c0.15-0.16,0.34-0.23,0.58-0.23c0.23,0,0.42,0.08,0.58,0.23
		C771.93,220.83,772.01,221.01,772.01,221.23z"/>
	<path class="st0" d="M681.44,234.93h-1.19v-8.49h2.72c0.41,0,0.79,0.04,1.16,0.13c0.37,0.08,0.69,0.22,0.97,0.4
		c0.28,0.18,0.49,0.43,0.65,0.73c0.16,0.3,0.24,0.67,0.24,1.1c0,0.62-0.19,1.13-0.58,1.51s-0.88,0.63-1.49,0.73l2.37,3.9h-1.44
		l-2.16-3.78h-1.27V234.93z M681.44,230.16h1.37c0.28,0,0.54-0.02,0.78-0.07c0.24-0.05,0.45-0.13,0.63-0.23
		c0.18-0.11,0.32-0.25,0.43-0.42c0.1-0.17,0.16-0.39,0.16-0.64c0-0.25-0.05-0.47-0.16-0.64c-0.1-0.17-0.24-0.31-0.41-0.41
		c-0.17-0.1-0.37-0.18-0.61-0.22c-0.23-0.04-0.48-0.07-0.73-0.07h-1.45V230.16z"/>
	<path class="st0" d="M692.72,232.04c0,0.06,0,0.13,0,0.19c0,0.06,0,0.13-0.01,0.19h-4.52c0.01,0.24,0.06,0.46,0.16,0.67
		s0.23,0.39,0.4,0.55c0.17,0.15,0.36,0.28,0.58,0.36c0.22,0.09,0.45,0.13,0.7,0.13c0.38,0,0.71-0.08,1-0.25
		c0.28-0.17,0.5-0.37,0.66-0.61l0.79,0.64c-0.3,0.4-0.66,0.7-1.07,0.89c-0.41,0.19-0.87,0.29-1.37,0.29c-0.43,0-0.83-0.07-1.2-0.22
		c-0.37-0.14-0.68-0.35-0.95-0.61c-0.26-0.26-0.47-0.57-0.62-0.94s-0.23-0.78-0.23-1.22c0-0.44,0.07-0.85,0.22-1.22
		c0.15-0.37,0.35-0.69,0.62-0.95s0.58-0.47,0.94-0.62c0.36-0.15,0.75-0.22,1.17-0.22c0.42,0,0.79,0.07,1.13,0.2
		c0.34,0.14,0.63,0.33,0.87,0.59s0.42,0.57,0.55,0.93C692.65,231.18,692.72,231.59,692.72,232.04z M691.57,231.59
		c-0.01-0.22-0.05-0.43-0.11-0.63c-0.07-0.2-0.17-0.37-0.3-0.51c-0.13-0.14-0.3-0.26-0.49-0.34c-0.2-0.08-0.42-0.13-0.69-0.13
		c-0.24,0-0.47,0.04-0.68,0.13s-0.4,0.2-0.55,0.34c-0.16,0.14-0.28,0.31-0.38,0.51c-0.1,0.2-0.16,0.41-0.17,0.63H691.57z"/>
	<path class="st0" d="M697.34,230.69c-0.13-0.21-0.31-0.38-0.54-0.51c-0.23-0.13-0.49-0.2-0.78-0.2c-0.13,0-0.26,0.01-0.38,0.04
		s-0.24,0.07-0.34,0.13c-0.1,0.06-0.18,0.14-0.24,0.23c-0.06,0.09-0.09,0.21-0.09,0.34c0,0.24,0.11,0.42,0.32,0.53
		c0.22,0.12,0.54,0.22,0.97,0.32c0.27,0.06,0.52,0.14,0.76,0.23c0.23,0.09,0.43,0.2,0.61,0.33s0.31,0.29,0.4,0.47
		c0.1,0.18,0.14,0.4,0.14,0.65c0,0.34-0.06,0.62-0.19,0.85s-0.3,0.42-0.51,0.57c-0.21,0.15-0.45,0.25-0.73,0.32
		c-0.27,0.06-0.55,0.1-0.84,0.1c-0.43,0-0.85-0.08-1.26-0.25c-0.41-0.17-0.75-0.42-1.03-0.77l0.8-0.68
		c0.15,0.22,0.36,0.41,0.63,0.56c0.27,0.15,0.56,0.23,0.88,0.23c0.14,0,0.28-0.01,0.41-0.04c0.13-0.03,0.25-0.07,0.36-0.14
		c0.11-0.06,0.19-0.15,0.26-0.25c0.06-0.1,0.1-0.24,0.1-0.4c0-0.26-0.13-0.46-0.38-0.59s-0.62-0.25-1.11-0.36
		c-0.19-0.05-0.39-0.11-0.58-0.17c-0.2-0.07-0.37-0.16-0.53-0.28c-0.16-0.12-0.29-0.27-0.39-0.45c-0.1-0.18-0.15-0.4-0.15-0.67
		c0-0.3,0.06-0.56,0.19-0.79c0.12-0.22,0.29-0.4,0.49-0.54c0.2-0.14,0.43-0.24,0.68-0.31c0.26-0.07,0.52-0.1,0.79-0.1
		c0.41,0,0.8,0.08,1.18,0.24c0.38,0.16,0.67,0.39,0.88,0.7L697.34,230.69z"/>
	<path class="st0" d="M703.6,234.93c-0.02-0.14-0.03-0.31-0.04-0.49s-0.01-0.33-0.01-0.45h-0.02c-0.14,0.3-0.39,0.56-0.73,0.77
		c-0.34,0.21-0.72,0.32-1.13,0.32c-0.37,0-0.69-0.06-0.95-0.18c-0.27-0.12-0.49-0.29-0.66-0.5s-0.3-0.46-0.38-0.74
		c-0.08-0.28-0.13-0.58-0.13-0.9v-3.52h1.13v3.14c0,0.23,0.02,0.45,0.05,0.67c0.04,0.21,0.1,0.4,0.2,0.56
		c0.1,0.16,0.23,0.29,0.4,0.38c0.17,0.1,0.38,0.14,0.65,0.14c0.46,0,0.82-0.17,1.1-0.51c0.28-0.34,0.42-0.79,0.42-1.36v-3.02h1.13
		v4.46c0,0.15,0,0.35,0.01,0.59c0.01,0.24,0.02,0.45,0.04,0.64H703.6z"/>
	<path class="st0" d="M707.73,234.93h-1.13v-9.06h1.13V234.93z"/>
	<path class="st0" d="M712.48,230.17h-1.51v2.95c0,0.34,0.06,0.59,0.19,0.74s0.33,0.22,0.61,0.22c0.1,0,0.22-0.01,0.34-0.03
		c0.12-0.02,0.23-0.06,0.32-0.1l0.04,0.92c-0.14,0.05-0.29,0.08-0.45,0.11s-0.33,0.04-0.51,0.04c-0.54,0-0.95-0.15-1.23-0.44
		c-0.28-0.3-0.43-0.74-0.43-1.33v-3.08h-1.09v-0.92h1.09v-1.63h1.12v1.63h1.51V230.17z"/>
	<path class="st0" d="M716.71,230.69c-0.13-0.21-0.31-0.38-0.54-0.51c-0.23-0.13-0.49-0.2-0.78-0.2c-0.13,0-0.26,0.01-0.38,0.04
		s-0.24,0.07-0.34,0.13c-0.1,0.06-0.18,0.14-0.24,0.23c-0.06,0.09-0.09,0.21-0.09,0.34c0,0.24,0.11,0.42,0.32,0.53
		c0.22,0.12,0.54,0.22,0.97,0.32c0.27,0.06,0.52,0.14,0.76,0.23c0.23,0.09,0.43,0.2,0.61,0.33s0.31,0.29,0.4,0.47
		c0.1,0.18,0.14,0.4,0.14,0.65c0,0.34-0.06,0.62-0.19,0.85s-0.3,0.42-0.51,0.57c-0.21,0.15-0.45,0.25-0.73,0.32
		c-0.27,0.06-0.55,0.1-0.84,0.1c-0.43,0-0.85-0.08-1.26-0.25c-0.41-0.17-0.75-0.42-1.03-0.77l0.8-0.68
		c0.15,0.22,0.36,0.41,0.63,0.56c0.27,0.15,0.56,0.23,0.88,0.23c0.14,0,0.28-0.01,0.41-0.04c0.13-0.03,0.25-0.07,0.36-0.14
		c0.11-0.06,0.19-0.15,0.26-0.25c0.06-0.1,0.1-0.24,0.1-0.4c0-0.26-0.13-0.46-0.38-0.59s-0.62-0.25-1.11-0.36
		c-0.19-0.05-0.39-0.11-0.58-0.17c-0.2-0.07-0.37-0.16-0.53-0.28c-0.16-0.12-0.29-0.27-0.39-0.45c-0.1-0.18-0.15-0.4-0.15-0.67
		c0-0.3,0.06-0.56,0.19-0.79c0.12-0.22,0.29-0.4,0.49-0.54c0.2-0.14,0.43-0.24,0.68-0.31c0.26-0.07,0.52-0.1,0.79-0.1
		c0.41,0,0.8,0.08,1.18,0.24c0.38,0.16,0.67,0.39,0.88,0.7L716.71,230.69z"/>
	<path class="st0" d="M723.75,229.41c0.32-0.21,0.69-0.32,1.12-0.32c0.38,0,0.73,0.09,1.04,0.26c0.31,0.18,0.55,0.47,0.73,0.88
		c0.19-0.37,0.46-0.65,0.8-0.85c0.34-0.2,0.72-0.29,1.13-0.29c0.37,0,0.68,0.06,0.95,0.19c0.26,0.12,0.48,0.29,0.66,0.5
		s0.31,0.45,0.39,0.73c0.08,0.28,0.13,0.58,0.13,0.9v3.52h-1.13v-3.15c0-0.23-0.02-0.45-0.06-0.66s-0.11-0.39-0.2-0.55
		c-0.1-0.16-0.22-0.29-0.38-0.38c-0.16-0.1-0.36-0.14-0.61-0.14c-0.26,0-0.48,0.05-0.66,0.16c-0.18,0.11-0.33,0.25-0.45,0.42
		s-0.2,0.37-0.25,0.58s-0.08,0.44-0.08,0.66v3.07h-1.13v-3.38c0-0.22-0.02-0.43-0.06-0.61s-0.11-0.34-0.2-0.47
		c-0.1-0.13-0.22-0.24-0.37-0.31c-0.15-0.08-0.34-0.11-0.56-0.11c-0.42,0-0.76,0.17-1.04,0.51s-0.41,0.79-0.41,1.36v3.02h-1.13
		v-4.46c0-0.15,0-0.35-0.01-0.59c-0.01-0.24-0.02-0.45-0.04-0.64h1.07c0.02,0.14,0.03,0.31,0.04,0.49c0.01,0.18,0.01,0.33,0.01,0.45
		h0.04C723.21,229.88,723.43,229.62,723.75,229.41z"/>
	<path class="st0" d="M736.13,231.25c0-0.42-0.13-0.74-0.38-0.94c-0.26-0.2-0.6-0.31-1.02-0.31c-0.32,0-0.62,0.06-0.91,0.19
		c-0.28,0.12-0.52,0.28-0.71,0.47l-0.6-0.72c0.28-0.26,0.62-0.47,1.03-0.62c0.4-0.15,0.84-0.23,1.3-0.23c0.41,0,0.76,0.06,1.06,0.17
		c0.3,0.12,0.54,0.27,0.74,0.47c0.19,0.2,0.33,0.44,0.43,0.71c0.1,0.27,0.14,0.56,0.14,0.88v2.48c0,0.19,0.01,0.39,0.02,0.61
		c0.01,0.21,0.03,0.39,0.07,0.52h-1.02c-0.06-0.27-0.1-0.54-0.1-0.82h-0.04c-0.21,0.3-0.47,0.54-0.79,0.71
		c-0.32,0.17-0.69,0.25-1.12,0.25c-0.22,0-0.46-0.03-0.7-0.09c-0.24-0.06-0.47-0.16-0.67-0.29c-0.2-0.14-0.37-0.32-0.5-0.54
		s-0.2-0.5-0.2-0.83c0-0.43,0.12-0.77,0.35-1.03c0.23-0.25,0.54-0.44,0.91-0.58c0.38-0.13,0.8-0.22,1.27-0.26s0.95-0.06,1.43-0.06
		V231.25z M735.85,232.22c-0.28,0-0.57,0.01-0.87,0.04c-0.3,0.02-0.57,0.07-0.82,0.14c-0.24,0.07-0.45,0.18-0.61,0.32
		c-0.16,0.14-0.24,0.34-0.24,0.58c0,0.17,0.03,0.31,0.1,0.42c0.07,0.11,0.16,0.2,0.27,0.28c0.11,0.07,0.24,0.12,0.37,0.15
		s0.28,0.04,0.42,0.04c0.53,0,0.93-0.16,1.22-0.47c0.28-0.32,0.43-0.71,0.43-1.19v-0.3H735.85z"/>
	<path class="st0" d="M741.25,233.71h0.02l1.57-4.46h1.2l-2.76,7.03c-0.1,0.24-0.2,0.45-0.31,0.64c-0.11,0.19-0.24,0.35-0.4,0.48
		c-0.15,0.13-0.33,0.23-0.53,0.31c-0.2,0.07-0.45,0.11-0.72,0.11c-0.12,0-0.24-0.01-0.37-0.02s-0.25-0.03-0.38-0.07l0.11-1
		c0.19,0.06,0.38,0.1,0.56,0.1c0.3,0,0.52-0.08,0.66-0.25c0.14-0.16,0.28-0.4,0.4-0.7l0.36-0.95l-2.43-5.68h1.26L741.25,233.71z"/>
	<path class="st0" d="M750.8,234.93h-1.22l-2.31-5.68h1.25l1.67,4.47h0.02l1.68-4.47h1.2L750.8,234.93z"/>
	<path class="st0" d="M757.71,231.25c0-0.42-0.13-0.74-0.38-0.94c-0.26-0.2-0.6-0.31-1.02-0.31c-0.32,0-0.62,0.06-0.91,0.19
		c-0.28,0.12-0.52,0.28-0.71,0.47l-0.6-0.72c0.28-0.26,0.62-0.47,1.03-0.62c0.4-0.15,0.84-0.23,1.3-0.23c0.41,0,0.76,0.06,1.06,0.17
		c0.3,0.12,0.54,0.27,0.74,0.47c0.19,0.2,0.33,0.44,0.43,0.71c0.1,0.27,0.14,0.56,0.14,0.88v2.48c0,0.19,0.01,0.39,0.02,0.61
		c0.01,0.21,0.03,0.39,0.07,0.52h-1.02c-0.06-0.27-0.1-0.54-0.1-0.82h-0.04c-0.21,0.3-0.47,0.54-0.79,0.71
		c-0.32,0.17-0.69,0.25-1.12,0.25c-0.22,0-0.46-0.03-0.7-0.09c-0.24-0.06-0.47-0.16-0.67-0.29c-0.2-0.14-0.37-0.32-0.5-0.54
		s-0.2-0.5-0.2-0.83c0-0.43,0.12-0.77,0.35-1.03c0.23-0.25,0.54-0.44,0.91-0.58c0.38-0.13,0.8-0.22,1.27-0.26s0.95-0.06,1.43-0.06
		V231.25z M757.43,232.22c-0.28,0-0.57,0.01-0.87,0.04c-0.3,0.02-0.57,0.07-0.82,0.14c-0.24,0.07-0.45,0.18-0.61,0.32
		c-0.16,0.14-0.24,0.34-0.24,0.58c0,0.17,0.03,0.31,0.1,0.42c0.07,0.11,0.16,0.2,0.27,0.28c0.11,0.07,0.24,0.12,0.37,0.15
		s0.28,0.04,0.42,0.04c0.53,0,0.93-0.16,1.22-0.47c0.28-0.32,0.43-0.71,0.43-1.19v-0.3H757.43z"/>
	<path class="st0" d="M760.66,229.89c-0.01-0.24-0.02-0.45-0.04-0.64h1.07c0.02,0.14,0.03,0.31,0.04,0.5
		c0.01,0.19,0.01,0.34,0.01,0.46h0.04c0.16-0.34,0.39-0.61,0.7-0.81c0.31-0.2,0.65-0.31,1.04-0.31c0.18,0,0.32,0.02,0.44,0.05
		l-0.05,1.04c-0.16-0.04-0.33-0.06-0.52-0.06c-0.27,0-0.51,0.05-0.71,0.15c-0.2,0.1-0.37,0.23-0.5,0.4s-0.23,0.36-0.29,0.58
		c-0.06,0.22-0.1,0.45-0.1,0.69v2.99h-1.13v-4.46C760.67,230.32,760.67,230.12,760.66,229.89z"/>
	<path class="st0" d="M767.17,233.71h0.02l1.57-4.46h1.2l-2.76,7.03c-0.1,0.24-0.2,0.45-0.31,0.64c-0.11,0.19-0.24,0.35-0.4,0.48
		c-0.15,0.13-0.33,0.23-0.53,0.31c-0.2,0.07-0.45,0.11-0.72,0.11c-0.12,0-0.24-0.01-0.37-0.02s-0.25-0.03-0.38-0.07l0.11-1
		c0.19,0.06,0.38,0.1,0.56,0.1c0.3,0,0.52-0.08,0.66-0.25c0.14-0.16,0.28-0.4,0.4-0.7l0.36-0.95l-2.43-5.68h1.26L767.17,233.71z"/>
	<path class="st0" d="M772.01,234.21c0,0.21-0.08,0.39-0.23,0.55c-0.15,0.16-0.34,0.24-0.58,0.24c-0.22,0-0.41-0.08-0.57-0.23
		c-0.16-0.16-0.23-0.34-0.23-0.54c0-0.22,0.08-0.4,0.23-0.56c0.15-0.16,0.34-0.23,0.58-0.23c0.23,0,0.42,0.08,0.58,0.23
		C771.93,233.81,772.01,234,772.01,234.21z"/>
</g>
</svg>
