<?xml version="1.0" encoding="utf-8"?>
<!-- Generator: Adobe Illustrator 25.2.1, SVG Export Plug-In . SVG Version: 6.00 Build 0)  -->
<svg version="1.1" id="Layer_1" xmlns="http://www.w3.org/2000/svg" xmlns:xlink="http://www.w3.org/1999/xlink" x="0px" y="0px"
	 viewBox="0 0 970 250" style="enable-background:new 0 0 970 250;" xml:space="preserve">
<style type="text/css">
	.st0{fill:#FFFFFF;}
</style>
<g>
	<g>
		<g>
			<g>
				<path class="st0" d="M72.95,60.37c-2.67,0-3.95-1.93-3.95-3.79c0-2.14,1.55-3.87,3.99-3.87c0.83,0,1.69,0.25,2.37,0.82
					l-0.75,1.05c-0.47-0.36-0.96-0.49-1.57-0.49c-1.3,0-2.26,0.9-2.26,2.44c0,1.41,0.89,2.53,2.31,2.53c0.6,0,1.13-0.18,1.6-0.58
					l0.69,1.05C74.71,60.1,73.8,60.37,72.95,60.37"/>
				<path class="st0" d="M79.47,60.37c-2.23,0-3.87-1.68-3.87-3.87c0-2.25,1.79-3.79,3.87-3.79c2.08,0,3.89,1.53,3.89,3.78
					C83.36,58.69,81.72,60.37,79.47,60.37 M81.57,56.5c0-1.35-0.66-2.52-2.1-2.52c-1.4,0-2.1,1.17-2.1,2.5
					c0,1.38,0.65,2.61,2.1,2.61c1.45,0,2.1-1.21,2.1-2.61V56.5z"/>
				<path class="st0" d="M87.88,60.37c-2.23,0-3.87-1.68-3.87-3.87c0-2.25,1.79-3.79,3.87-3.79c2.08,0,3.89,1.53,3.89,3.78
					C91.77,58.69,90.13,60.37,87.88,60.37 M89.98,56.5c0-1.35-0.66-2.52-2.09-2.52c-1.4,0-2.1,1.17-2.1,2.5
					c0,1.38,0.65,2.61,2.1,2.61c1.45,0,2.09-1.21,2.09-2.61V56.5z"/>
				<polygon class="st0" points="92.65,60.19 92.65,49.46 94.32,50.37 94.32,60.19 				"/>
				<path class="st0" d="M98.18,60.41c-1.88,0-2.79-0.9-2.79-0.9l0.75-0.97c0,0,0.86,0.57,1.99,0.57c0.54,0,1-0.37,1-0.75
					c0-0.37-0.17-0.69-0.66-0.94c-0.5-0.25-1.06-0.52-1.49-0.73c-0.44-0.21-1.4-0.85-1.4-2.11c0-1.27,1.3-1.98,2.62-1.98
					c1.27,0,2.23,0.82,2.23,0.82l-0.65,0.99c0,0-0.72-0.51-1.52-0.51c-0.8,0-0.96,0.51-0.96,0.72c0,0.21,0.08,0.54,0.59,0.81
					c0.51,0.27,1.04,0.55,1.79,0.97c0.75,0.42,1.18,1.14,1.18,1.95S100.06,60.41,98.18,60.41"/>
				<path class="st0" d="M105.37,60.37c-2.67,0-3.95-1.93-3.95-3.79c0-2.14,1.55-3.87,3.99-3.87c0.83,0,1.69,0.25,2.37,0.82
					l-0.75,1.05c-0.47-0.36-0.96-0.49-1.57-0.49c-1.3,0-2.26,0.9-2.26,2.44c0,1.41,0.89,2.53,2.31,2.53c0.6,0,1.13-0.18,1.6-0.58
					l0.69,1.05C107.13,60.1,106.23,60.37,105.37,60.37"/>
				<path class="st0" d="M113.61,59.33c0,0-0.84,1.03-2.44,1.03c-1.88,0-2.8-1.36-2.8-2.74v-4.75h1.67v4.68
					c0,0.81,0.63,1.48,1.61,1.48c0.86,0,1.7-1.02,1.7-1.02v-5.14h1.67v7.3L113.61,59.33z"/>
				<polygon class="st0" points="116.52,60.19 116.52,49.46 118.19,50.37 118.19,60.19 				"/>
				<path class="st0" d="M123.73,60.37c-1.48,0-2.32-0.82-2.32-0.82v3.64h-1.69V52.72l1.69,0.88c0,0,0.9-0.91,2.41-0.91
					c1.58,0,3.56,1.21,3.56,3.93C127.37,59.33,125.43,60.37,123.73,60.37 M123.62,53.98c-1.43,0-2.26,1.33-2.26,1.33v2.76
					c0,0,0.95,1.06,2.32,1.06c1.6,0,1.94-1.9,1.94-2.56C125.63,55.92,125.48,53.98,123.62,53.98"/>
				<path class="st0" d="M131.78,60.38h-1.06c-1.33,0-1.78-1.27-1.78-2.11v-4.3h-1.33v-1.09h1.33v-3.22h1.66v3.22h1.7v1.09h-1.69
					v3.9c0,0.43-0.08,1.12,0.66,1.12h1.21L131.78,60.38z"/>
				<path class="st0" d="M134.46,51.61c-0.6,0-1.1-0.49-1.1-1.09c0-0.6,0.5-1.09,1.1-1.09s1.1,0.49,1.1,1.09
					C135.56,51.12,135.06,51.61,134.46,51.61 M133.63,52.87h1.64v7.31h-1.64V52.87z"/>
				<path class="st0" d="M141.9,60.19v-4.68c0-0.81-0.63-1.48-1.61-1.48c-0.86,0-1.82,1.02-1.82,1.02v5.14h-1.67v-7.3l1.42,0.84
					c0,0,0.96-1.03,2.56-1.03c1.88,0,2.8,1.36,2.8,2.74v4.75H141.9z"/>
				<path class="st0" d="M148.69,63.59c-0.26,0-2.22-0.03-2.22-0.03l0.03-1.33h1.65c1.6,0,2.5-0.85,2.5-2.02v-0.66
					c0,0-0.87,0.82-2.35,0.82c-1.7,0-3.65-1.03-3.65-3.75c0-2.71,1.97-3.93,3.56-3.93c1.51,0,2.41,0.91,2.41,0.91l1.69-0.84v7.27
					C152.3,62,150.99,63.59,148.69,63.59 M150.66,55.32c0,0-0.83-1.33-2.26-1.33c-1.85,0-2,1.93-2,2.59c0,0.66,0.35,2.56,1.94,2.56
					c1.37,0,2.32-1.06,2.32-1.06V55.32z"/>
				<polygon class="st0" points="52.06,56.86 48.98,59.92 52.75,61.33 57.25,56.86 				"/>
				<polygon class="st0" points="57.69,50.64 54.63,47.59 53.19,51.32 57.69,55.79 				"/>
				<polygon class="st0" points="63.26,51.77 67.37,52.83 63.95,56.24 58.76,56.24 				"/>
				<polygon class="st0" points="62.99,61.95 61.81,65.94 55.41,59.57 58,56.99 				"/>
				<g>
					<path class="st0" d="M154.8,53.37c0,0.43-0.35,0.78-0.8,0.78c-0.44,0-0.8-0.34-0.8-0.78c0-0.43,0.35-0.77,0.8-0.77
						C154.45,52.6,154.8,52.94,154.8,53.37z M153.41,53.37c0,0.34,0.26,0.62,0.61,0.62c0.34,0,0.59-0.27,0.59-0.61
						c0-0.34-0.26-0.62-0.6-0.62C153.67,52.75,153.41,53.03,153.41,53.37z M153.89,53.77h-0.18V53c0.07-0.01,0.17-0.02,0.3-0.02
						c0.15,0,0.21,0.02,0.27,0.06c0.05,0.03,0.08,0.09,0.08,0.16c0,0.09-0.07,0.15-0.16,0.18v0.01c0.08,0.02,0.11,0.08,0.14,0.19
						c0.02,0.12,0.04,0.16,0.06,0.19h-0.19c-0.02-0.03-0.04-0.09-0.06-0.19c-0.01-0.08-0.06-0.12-0.16-0.12h-0.08V53.77z
						 M153.89,53.34h0.08c0.1,0,0.18-0.03,0.18-0.11c0-0.07-0.05-0.12-0.17-0.12c-0.05,0-0.08,0-0.1,0.01V53.34z"/>
				</g>
			</g>
			<g>
				<polygon class="st0" points="54.02,65.73 54.02,60.95 54.96,60.01 57.68,62.72 57.68,63.63 				"/>
				<polygon class="st0" points="53.58,52.59 49.61,52.59 50.88,56.24 57.25,56.24 				"/>
				<polygon class="st0" points="66.96,60.51 62.43,60.51 58.76,56.86 65.12,56.86 				"/>
				<polygon class="st0" points="58.32,49.47 61.98,47.3 61.98,52.15 58.32,55.79 				"/>
				<g>
					<path class="st0" d="M64.77,62.21c0,0.3-0.24,0.54-0.55,0.54c-0.31,0-0.55-0.24-0.55-0.54c0-0.3,0.25-0.53,0.56-0.53
						C64.53,61.67,64.77,61.91,64.77,62.21z M63.8,62.21c0,0.24,0.18,0.43,0.42,0.43c0.23,0,0.41-0.19,0.41-0.42
						c0-0.24-0.18-0.43-0.42-0.43C63.98,61.78,63.8,61.97,63.8,62.21z M64.13,62.48h-0.12v-0.53c0.05-0.01,0.12-0.02,0.21-0.02
						c0.1,0,0.15,0.02,0.18,0.04c0.03,0.02,0.06,0.06,0.06,0.11c0,0.07-0.05,0.11-0.11,0.13v0.01c0.05,0.02,0.08,0.06,0.09,0.13
						c0.02,0.08,0.03,0.11,0.04,0.13h-0.13c-0.02-0.02-0.03-0.07-0.04-0.13c-0.01-0.06-0.04-0.08-0.11-0.08h-0.06V62.48z
						 M64.14,62.18h0.06c0.07,0,0.12-0.02,0.12-0.08c0-0.05-0.04-0.08-0.11-0.08c-0.03,0-0.06,0-0.07,0.01V62.18z"/>
				</g>
			</g>
		</g>
	</g>
	<g>
		<path class="st0" d="M34.72,53.09h0.66v3.65h0.02c0.11-0.16,0.23-0.3,0.38-0.41c0.15-0.11,0.3-0.21,0.46-0.28
			c0.16-0.07,0.33-0.13,0.5-0.16c0.17-0.03,0.33-0.05,0.49-0.05c0.37,0,0.7,0.06,1.01,0.18c0.3,0.12,0.57,0.29,0.79,0.51
			c0.22,0.22,0.39,0.48,0.52,0.78c0.12,0.3,0.19,0.62,0.19,0.98s-0.06,0.68-0.19,0.98c-0.12,0.3-0.3,0.56-0.52,0.78
			c-0.22,0.22-0.48,0.39-0.79,0.51c-0.3,0.12-0.64,0.18-1.01,0.18c-0.15,0-0.32-0.02-0.49-0.05c-0.17-0.03-0.34-0.09-0.5-0.16
			c-0.16-0.07-0.31-0.17-0.46-0.28c-0.15-0.11-0.27-0.25-0.38-0.41h-0.02v0.78h-0.66V53.09z M39,58.3c0-0.26-0.04-0.5-0.13-0.73
			c-0.08-0.23-0.2-0.42-0.36-0.59c-0.15-0.17-0.34-0.3-0.56-0.39c-0.22-0.1-0.46-0.14-0.74-0.14c-0.27,0-0.52,0.05-0.75,0.14
			c-0.23,0.1-0.42,0.23-0.59,0.39c-0.17,0.17-0.3,0.36-0.39,0.59c-0.09,0.23-0.14,0.47-0.14,0.73c0,0.26,0.05,0.5,0.14,0.73
			c0.09,0.23,0.22,0.42,0.39,0.59c0.17,0.17,0.36,0.3,0.59,0.39c0.23,0.1,0.48,0.14,0.75,0.14c0.27,0,0.52-0.05,0.74-0.14
			c0.22-0.1,0.4-0.23,0.56-0.39c0.15-0.17,0.27-0.36,0.36-0.59C38.96,58.8,39,58.56,39,58.3z"/>
		<path class="st0" d="M42.59,59.82l1.43-3.86h0.8l-2.35,5.89c-0.14,0.36-0.32,0.64-0.54,0.86c-0.22,0.21-0.53,0.32-0.94,0.32
			c-0.1,0-0.2,0-0.31-0.01c-0.1-0.01-0.21-0.03-0.31-0.06l0.07-0.64c0.14,0.07,0.31,0.11,0.5,0.11c0.23,0,0.42-0.07,0.55-0.22
			c0.13-0.15,0.25-0.35,0.35-0.62l0.34-0.9l-1.93-4.73h0.83L42.59,59.82z"/>
	</g>
	<g>
		<path class="st0" d="M47.79,38.59c-1.44,1.25-3.22,1.87-5.35,1.87c-2.77,0-4.95-0.9-6.55-2.69c-1.44-1.62-2.16-3.57-2.16-5.86
			c0-2.45,0.81-4.5,2.43-6.16c1.62-1.66,3.76-2.49,6.41-2.49c2.04,0,3.77,0.62,5.18,1.86l-1.66,2.33c-0.95-0.72-2.1-1.08-3.46-1.08
			c-1.46,0-2.65,0.49-3.57,1.48c-0.92,0.99-1.38,2.32-1.38,4c0,1.64,0.46,2.99,1.38,4.07c0.92,1.08,2.14,1.61,3.67,1.61
			c1.33,0,2.51-0.43,3.56-1.28L47.79,38.59z"/>
		<path class="st0" d="M65.07,31.74c0,2.49-0.81,4.57-2.44,6.23c-1.63,1.66-3.67,2.49-6.13,2.49c-2.46,0-4.5-0.83-6.11-2.49
			c-1.62-1.66-2.43-3.74-2.43-6.23c0-2.45,0.85-4.49,2.56-6.13c1.64-1.57,3.63-2.36,5.98-2.36c2.35,0,4.35,0.79,6.02,2.36
			C64.22,27.25,65.07,29.29,65.07,31.74z M61.11,31.74c0-1.59-0.38-2.9-1.13-3.94c-0.84-1.12-2.01-1.68-3.49-1.68
			c-1.48,0-2.64,0.56-3.46,1.68c-0.75,1.03-1.13,2.34-1.13,3.94c0,1.68,0.37,3.05,1.1,4.1c0.82,1.17,1.98,1.75,3.49,1.75
			c1.51,0,2.68-0.58,3.52-1.75C60.75,34.79,61.11,33.42,61.11,31.74z"/>
		<path class="st0" d="M83.45,31.74c0,2.49-0.81,4.57-2.44,6.23c-1.63,1.66-3.67,2.49-6.13,2.49c-2.46,0-4.5-0.83-6.11-2.49
			c-1.62-1.66-2.43-3.74-2.43-6.23c0-2.45,0.85-4.49,2.56-6.13c1.64-1.57,3.63-2.36,5.98-2.36c2.35,0,4.35,0.79,6.02,2.36
			C82.59,27.25,83.45,29.29,83.45,31.74z M79.49,31.74c0-1.59-0.38-2.9-1.13-3.94c-0.84-1.12-2.01-1.68-3.49-1.68
			c-1.48,0-2.64,0.56-3.46,1.68c-0.75,1.03-1.13,2.34-1.13,3.94c0,1.68,0.37,3.05,1.1,4.1c0.82,1.17,1.98,1.75,3.49,1.75
			c1.51,0,2.68-0.58,3.52-1.75C79.12,34.79,79.49,33.42,79.49,31.74z"/>
		<path class="st0" d="M89.09,40.09h-3.69V15.93l3.69,2.06V40.09z"/>
		<g>
			<g>
				<path class="st0" d="M117.28,31.74c0,2.49-0.81,4.57-2.44,6.23c-1.63,1.66-3.67,2.49-6.13,2.49c-2.46,0-4.5-0.83-6.11-2.49
					c-1.62-1.66-2.43-3.74-2.43-6.23c0-2.45,0.85-4.49,2.56-6.13c1.64-1.57,3.63-2.36,5.98-2.36c2.35,0,4.35,0.79,6.02,2.36
					C116.42,27.25,117.28,29.29,117.28,31.74z M113.32,31.74c0-1.59-0.38-2.9-1.13-3.94c-0.84-1.12-2.01-1.68-3.49-1.68
					s-2.64,0.56-3.46,1.68c-0.75,1.03-1.13,2.34-1.13,3.94c0,1.68,0.37,3.05,1.1,4.1c0.82,1.17,1.98,1.75,3.49,1.75
					c1.51,0,2.68-0.58,3.52-1.75C112.96,34.79,113.32,33.42,113.32,31.74z"/>
				<path class="st0" d="M134.06,40.09h-3.69v-10.5c0-0.94-0.33-1.73-0.98-2.37c-0.65-0.64-1.51-0.96-2.57-0.96
					c-1.17,0-2.51,0.76-4.02,2.29v11.54h-3.69V23.66l3.12,1.89c1.59-1.55,3.48-2.33,5.65-2.33c1.95,0,3.5,0.64,4.65,1.92
					c1.02,1.15,1.53,2.56,1.53,4.25V40.09z"/>
				<path class="st0" d="M152.07,32.63h-11.8c0.44,3.35,2.02,5.03,4.72,5.03c1.66,0,3.02-0.47,4.09-1.42l1.46,2.4
					c-1.42,1.3-3.3,1.96-5.65,1.96c-3.26,0-5.64-1.23-7.15-3.68c-0.93-1.51-1.4-3.06-1.4-4.66c0-1.96,0.38-3.66,1.13-5.09
					c1.35-2.63,3.76-3.95,7.21-3.95c3.41,0,5.66,1.56,6.75,4.69C151.9,29.24,152.11,30.81,152.07,32.63z M148.35,30.21
					c-0.13-2.9-1.37-4.35-3.72-4.35c-2.59,0-4.02,1.45-4.29,4.35H148.35z"/>
				<path class="st0" d="M97.07,37.39c-0.71,0-1.15-0.3-1.33-0.91c-0.09-0.25-0.13-0.79-0.13-1.62v-6.85h2.57v-2.46h-2.57v-3.92
					l-3.69-2.06v16.2c0,1.17,0.29,2.19,0.86,3.07c0.71,1.12,1.73,1.69,3.06,1.69h2.33l1.56-3.14H97.07z"/>
			</g>
		</g>
		<g>
			<path class="st0" d="M156.3,24.98c0,0.97-0.79,1.74-1.79,1.74c-1,0-1.8-0.77-1.8-1.74c0-0.97,0.8-1.73,1.81-1.73
				C155.52,23.25,156.3,24.01,156.3,24.98z M153.16,24.98c0,0.77,0.58,1.38,1.36,1.38c0.75,0.01,1.33-0.61,1.33-1.38
				c0-0.77-0.57-1.4-1.35-1.4C153.75,23.59,153.16,24.22,153.16,24.98z M154.24,25.88h-0.4v-1.73c0.16-0.02,0.38-0.05,0.67-0.05
				c0.33,0,0.48,0.05,0.6,0.14c0.11,0.07,0.18,0.2,0.18,0.37c0,0.21-0.16,0.35-0.36,0.41v0.02c0.17,0.05,0.26,0.19,0.31,0.42
				c0.05,0.26,0.1,0.36,0.13,0.42h-0.43c-0.05-0.06-0.09-0.21-0.14-0.42c-0.03-0.18-0.14-0.26-0.36-0.26h-0.19V25.88z M154.25,24.91
				h0.19c0.22,0,0.4-0.07,0.4-0.25c0-0.16-0.12-0.26-0.37-0.26c-0.11,0-0.18,0.01-0.22,0.02V24.91z"/>
		</g>
	</g>
</g>
</svg>
