<?xml version="1.0" encoding="utf-8"?>
<!-- Generator: Adobe Illustrator 25.4.1, SVG Export Plug-In . SVG Version: 6.00 Build 0)  -->
<svg version="1.1" id="Layer_1" xmlns="http://www.w3.org/2000/svg" xmlns:xlink="http://www.w3.org/1999/xlink" x="0px" y="0px"
	 viewBox="0 0 300 600" style="enable-background:new 0 0 300 600;" xml:space="preserve">
<style type="text/css">
	.st0{fill:#FFFFFF;}
</style>
<g>
	<path class="st0" d="M20.17,83.41h1.61c1.57,0,2.2-0.42,2.2-2.1V60.55h-0.91c-4.93,0-5.98,3.43-6.85,8.81h-0.49l0.45-9.33h18.56
		l0.38,9.33h-0.49c-0.84-5.38-1.92-8.81-6.85-8.81h-0.91v20.76c0,1.68,0.59,2.1,2.2,2.1h1.57v0.52H20.17V83.41z"/>
	<path class="st0" d="M34.37,80.97c0-2.97,2.66-4.54,9.23-6.08v-1.01c0-3.36-1.33-4.51-3.43-4.51c-1.89,0-3.5,0.8-3.5,1.43
		c0,0.1,0.04,0.14,0.17,0.14c0.7,0,1.47,0.66,1.47,1.54c0,0.91-0.7,1.61-1.57,1.61c-0.91,0-1.57-0.66-1.57-1.68
		c0-1.82,1.92-3.53,5.66-3.53c2.8,0,5.24,1.01,5.24,5.14v7.17c0,1.47,0.42,1.92,0.91,1.92c0.84,0,1.19-0.87,1.22-2.8h0.49
		c-0.07,3.32-1.22,3.95-2.66,3.95c-1.36,0-2.62-0.77-2.45-3.29h-0.07c-0.66,1.82-2.76,3.36-5.21,3.36
		C36.08,84.32,34.37,83.2,34.37,80.97z M43.6,77.96v-2.52c-5.35,1.08-6.33,2.94-6.33,4.93c0,1.57,0.84,2.73,2.45,2.73
		C41.43,83.1,43.6,81.84,43.6,77.96z"/>
	<path class="st0" d="M49.3,83.45h0.14c1.57,0,1.92-0.42,1.92-2.1V62.58c0-1.68-0.35-2.1-1.92-2.1h-0.28v-0.49l4.68-0.52v21.88
		c0,1.68,0.35,2.1,1.89,2.1h0.28v0.49H49.3V83.45z"/>
	<path class="st0" d="M57.16,83.45h0.17c1.54,0,1.89-0.38,1.89-1.96V62.47c0-1.61-0.35-1.99-1.89-1.99h-0.31v-0.49l4.68-0.52v18.35
		l5.28-5.66c0.7-0.73,0.91-1.08,0.91-1.54c0-0.52-0.63-0.84-1.78-0.91v-0.38h6.15v0.38c-2.03,0.21-2.52,0.7-3.81,1.99l-2.87,2.94
		c0-0.04,5.07,7.13,5.07,7.13c0.8,1.12,1.12,1.57,2.52,1.68v0.49h-6.5v-0.45c1.12-0.1,1.5-0.42,1.5-0.8c0-0.21-0.07-0.38-0.45-0.94
		l-3.78-5.42l-2.24,2.24v2.94c0,1.57,0.35,1.96,1.92,1.96h0.21v0.49h-6.68V83.45z"/>
	<path class="st0" d="M83.84,79.92V69.85h-2.38v-0.42c2.24-0.38,4.09-1.92,4.44-6.43h0.45v6.29h4.72v0.56h-4.72v10.24
		c0,2.2,0.8,3.29,2.38,3.29c1.43,0,2.59-1.57,2.73-4.65h0.49c0,3.57-1.57,5.66-4.09,5.66C85.37,84.39,83.84,82.96,83.84,79.92z"/>
	<path class="st0" d="M93.14,76.6c0-4.54,3.57-7.8,6.85-7.8c3.29,0,6.82,3.18,6.82,7.73c0,4.44-3.53,7.94-6.82,7.94
		C96.7,84.46,93.14,81.04,93.14,76.6z M103.87,76.63c0-4.06-1.05-7.34-3.88-7.34s-3.88,3.22-3.88,7.27c0,4.02,0.98,7.41,3.88,7.41
		C102.89,83.97,103.87,80.65,103.87,76.63z"/>
	<path class="st0" d="M116.1,88.59c0-1.08,0.73-1.85,1.78-1.85c0.84,0,1.43,0.73,1.43,1.47c0,0.63-0.24,0.98-0.49,1.22
		c-0.21,0.21-0.38,0.31-0.38,0.59c0,0.35,0.38,0.59,0.91,0.59c1.61,0,2.69-2.2,3.71-4.65l0.45-1.08l-5.24-12.72
		c-0.63-1.57-1.12-2.27-2.55-2.38v-0.45h7.03v0.45c-1.22,0.1-1.78,0.49-1.82,1.05c-0.04,0.52,0.14,1.12,0.42,1.85l3.46,9.16
		l3.15-8.25c0.31-0.8,0.66-1.78,0.66-2.45c0-0.91-0.59-1.26-1.92-1.36v-0.45h5.17v0.45c-1.54,0.1-1.92,0.94-2.48,2.38l-5.63,13.77
		c-1.75,4.3-3.08,5.28-4.72,5.28C117.12,91.21,116.1,90.02,116.1,88.59z"/>
	<path class="st0" d="M131.73,76.6c0-4.54,3.57-7.8,6.85-7.8c3.29,0,6.82,3.18,6.82,7.73c0,4.44-3.53,7.94-6.82,7.94
		C135.3,84.46,131.73,81.04,131.73,76.6z M142.46,76.63c0-4.06-1.05-7.34-3.88-7.34s-3.88,3.22-3.88,7.27
		c0,4.02,0.98,7.41,3.88,7.41C141.48,83.97,142.46,80.65,142.46,76.63z"/>
	<path class="st0" d="M148.55,79.32v-7.55c0-1.54-0.35-1.99-1.89-1.99h-0.31v-0.45l4.68-0.28v10.91c0,2.48,0.94,3.46,2.59,3.46
		c2.17,0,4.33-3.08,4.33-6.01v-5.59c0-1.61-0.35-2.03-1.89-2.03h-0.7v-0.45l5.1-0.28v12.24c0,1.57,0.38,2.03,1.92,2.03h0.24v0.45
		l-4.65,0.52l0.17-4.33h-0.07c-0.91,2.38-2.94,4.33-5.31,4.33C150.02,84.29,148.55,82.68,148.55,79.32z"/>
	<path class="st0" d="M163.54,83.45h0.25c1.54,0,1.89-0.38,1.89-1.96V71.7c0-1.57-0.42-1.96-1.89-1.96h-0.25v-0.42l4.65-0.28
		l-0.24,5.91h0.07c1.08-3.81,2.83-6.08,5.14-6.08c1.78,0,2.8,1.05,2.8,2.27c0,1.36-0.77,2.06-1.75,2.06c-0.87,0-1.57-0.56-1.57-1.43
		c0-0.77,0.42-1.12,0.73-1.4c0.17-0.14,0.28-0.25,0.28-0.42c0-0.28-0.35-0.35-0.77-0.35c-2.52,0-4.65,4.96-4.65,7.73v4.16
		c0,1.57,0.35,1.96,1.89,1.96h0.8v0.49h-7.38V83.45z"/>
	<path class="st0" d="M15.04,123.54h0.42c1.54,0,1.89-0.38,1.89-1.99v-16.81c0-1.61-0.35-1.99-1.89-1.99h-0.24v-0.45l4.54-0.28
		l-0.1,3.57h0.07c1.12-2.17,2.62-3.67,4.89-3.67c2.87,0,6.12,2.97,6.12,7.66c0,4.61-3.18,7.69-6.26,7.69
		c-2.38,0-3.85-1.64-4.79-3.78h-0.04c0,0,0.14,2.17,0.14,4.37v3.71c0,1.61,0.35,1.99,1.89,1.99h0.8v0.49h-7.45V123.54z
		 M27.79,109.63c0-3.64-0.84-7.17-3.53-7.17c-1.71,0-4.51,2.03-4.51,7.13c0,3.6,1.92,7.1,4.44,7.1
		C26.89,116.69,27.79,113.4,27.79,109.63z"/>
	<path class="st0" d="M32.2,116.41h0.24c1.54,0,1.89-0.38,1.89-1.96v-9.79c0-1.57-0.42-1.96-1.89-1.96H32.2v-0.42l4.65-0.28
		l-0.24,5.91h0.07c1.08-3.81,2.83-6.08,5.14-6.08c1.78,0,2.8,1.05,2.8,2.27c0,1.36-0.77,2.06-1.75,2.06c-0.87,0-1.57-0.56-1.57-1.43
		c0-0.77,0.42-1.12,0.73-1.4c0.17-0.14,0.28-0.25,0.28-0.42c0-0.28-0.35-0.35-0.77-0.35c-2.52,0-4.65,4.96-4.65,7.73v4.16
		c0,1.57,0.35,1.96,1.89,1.96h0.8v0.49H32.2V116.41z"/>
	<path class="st0" d="M45.17,109.56c0-4.54,3.57-7.8,6.85-7.8c3.29,0,6.82,3.18,6.82,7.73c0,4.44-3.53,7.94-6.82,7.94
		C48.74,117.42,45.17,114,45.17,109.56z M55.9,109.59c0-4.06-1.05-7.34-3.88-7.34s-3.88,3.22-3.88,7.27c0,4.02,0.98,7.41,3.88,7.41
		C54.92,116.94,55.9,113.61,55.9,109.59z"/>
	<path class="st0" d="M61.6,105.01c-0.66-1.57-1.08-2.17-2.52-2.27v-0.45h6.99v0.45c-1.4,0.1-1.78,0.45-1.82,1.01
		c-0.04,0.52,0.14,1.19,0.38,1.82l3.36,8.91l3.11-8.04c0.31-0.84,0.66-1.71,0.66-2.38c0-0.91-0.59-1.22-1.92-1.33v-0.45h5.03v0.45
		c-1.43,0.1-1.89,0.91-2.45,2.27l-5.17,12.58h-0.49L61.6,105.01z"/>
	<path class="st0" d="M75.41,116.41h0.28c1.54,0,1.89-0.38,1.89-1.96v-9.72c0-1.61-0.35-1.99-1.89-1.99h-0.28v-0.45l4.65-0.28v12.44
		c0,1.57,0.35,1.96,1.89,1.96h0.28v0.49h-6.82V116.41z M76.56,96.41c0-1.05,0.87-1.92,1.92-1.92s1.92,0.87,1.92,1.92
		s-0.87,1.92-1.92,1.92S76.56,97.46,76.56,96.41z"/>
	<path class="st0" d="M83.7,109.59c0-4.33,2.76-7.69,6.15-7.69c2.1,0,3.74,1.47,4.82,3.6h0.1c-0.07-0.98-0.1-3.08-0.1-5.28v-4.75
		c0-1.61-0.38-1.99-1.92-1.99h-0.87v-0.49l5.28-0.52v21.81c0,1.57,0.31,2.03,1.85,2.03h0.28v0.49l-4.61,0.52l0.14-3.92h-0.1
		c-1.15,2.13-2.62,3.85-5,3.85C86.81,117.25,83.7,114.35,83.7,109.59z M94.67,109.56c0-5.21-2.9-7.13-4.4-7.13
		c-2.87,0-3.64,3.25-3.64,7.06c0,3.88,0.94,7.2,3.6,7.2C92.05,116.69,94.67,114.17,94.67,109.56z"/>
	<path class="st0" d="M100.51,109.66c0-4.72,3.29-7.9,6.78-7.9c2.8,0,6.01,2.17,6.01,6.68c0,0.1-0.04,0.87-0.07,1.05h-9.86
		c0,3.85,1.54,6.82,4.54,6.82c2.69,0,4.06-1.36,5.21-3.04l0.38,0.28c-1.29,2.17-3.32,3.88-6.36,3.88
		C103.13,117.42,100.51,114.45,100.51,109.66z M108.62,108.93c1.4,0,1.78-0.45,1.78-1.57c0-2.8-0.98-5.07-3.22-5.07
		c-2.45,0-3.71,2.62-3.81,6.64H108.62z"/>
	<path class="st0" d="M114.88,116.41h0.24c1.54,0,1.89-0.38,1.89-1.96v-9.79c0-1.57-0.42-1.96-1.89-1.96h-0.24v-0.42l4.65-0.28
		l-0.24,5.91h0.07c1.08-3.81,2.83-6.08,5.14-6.08c1.78,0,2.8,1.05,2.8,2.27c0,1.36-0.77,2.06-1.75,2.06c-0.87,0-1.57-0.56-1.57-1.43
		c0-0.77,0.42-1.12,0.73-1.4c0.17-0.14,0.28-0.25,0.28-0.42c0-0.28-0.35-0.35-0.77-0.35c-2.52,0-4.65,4.96-4.65,7.73v4.16
		c0,1.57,0.35,1.96,1.89,1.96h0.8v0.49h-7.38V116.41z"/>
	<path class="st0" d="M136.31,113.93c0-2.97,2.66-4.54,9.23-6.08v-1.01c0-3.36-1.33-4.51-3.43-4.51c-1.89,0-3.5,0.8-3.5,1.43
		c0,0.1,0.04,0.14,0.17,0.14c0.7,0,1.47,0.66,1.47,1.54c0,0.91-0.7,1.61-1.57,1.61c-0.91,0-1.57-0.66-1.57-1.68
		c0-1.82,1.92-3.53,5.66-3.53c2.8,0,5.24,1.01,5.24,5.14v7.17c0,1.47,0.42,1.92,0.91,1.92c0.84,0,1.19-0.87,1.22-2.8h0.49
		c-0.07,3.32-1.22,3.95-2.66,3.95c-1.36,0-2.62-0.77-2.45-3.29h-0.07c-0.66,1.82-2.76,3.36-5.21,3.36
		C138.02,117.28,136.31,116.17,136.31,113.93z M145.54,110.92v-2.52c-5.35,1.08-6.33,2.94-6.33,4.93c0,1.57,0.84,2.73,2.45,2.73
		C143.37,116.06,145.54,114.8,145.54,110.92z"/>
	<path class="st0" d="M152.85,110.96V95.44c0-1.61-0.35-1.99-1.89-1.99h-0.59v-0.49l4.93-0.52v7.59c0,2.69-0.11,5.49-0.11,5.49h0.07
		c1.33-2.31,2.69-3.6,4.96-3.6c3.04,0,6.01,3.29,6.01,7.62c0,4.82-3.22,7.73-6.12,7.73c-2.38,0-3.64-1.33-4.82-3.46h-0.07
		l-2.38,3.74h-0.45C152.74,115.54,152.85,113.09,152.85,110.96z M163.3,109.59c0-3.85-0.91-7.13-3.5-7.13c-2.38,0-4.54,2.9-4.54,7.1
		c0,3.92,1.96,7.13,4.47,7.13C161.8,116.69,163.3,114.73,163.3,109.59z"/>
	<path class="st0" d="M168.09,109.56c0-4.54,3.57-7.8,6.85-7.8s6.82,3.18,6.82,7.73c0,4.44-3.53,7.94-6.82,7.94
		S168.09,114,168.09,109.56z M178.82,109.59c0-4.06-1.05-7.34-3.88-7.34c-2.83,0-3.88,3.22-3.88,7.27c0,4.02,0.98,7.41,3.88,7.41
		S178.82,113.61,178.82,109.59z"/>
	<path class="st0" d="M184.91,112.29v-7.55c0-1.54-0.35-1.99-1.89-1.99h-0.32v-0.45l4.68-0.28v10.91c0,2.48,0.94,3.46,2.59,3.46
		c2.17,0,4.33-3.08,4.33-6.01v-5.59c0-1.61-0.35-2.03-1.89-2.03h-0.7v-0.45l5.1-0.28v12.24c0,1.57,0.38,2.03,1.92,2.03h0.25v0.45
		l-4.65,0.52l0.17-4.33h-0.07c-0.91,2.38-2.94,4.33-5.31,4.33C186.37,117.25,184.91,115.64,184.91,112.29z"/>
	<path class="st0" d="M201.79,112.88v-10.07h-2.38v-0.42c2.24-0.38,4.09-1.92,4.44-6.43h0.46v6.29h4.72v0.56h-4.72v10.24
		c0,2.2,0.8,3.29,2.38,3.29c1.43,0,2.59-1.57,2.73-4.65h0.49c0,3.57-1.57,5.66-4.09,5.66C203.33,117.35,201.79,115.92,201.79,112.88
		z"/>
	<path class="st0" d="M219.2,113.93c0-2.97,2.66-4.54,9.23-6.08v-1.01c0-3.36-1.33-4.51-3.43-4.51c-1.89,0-3.5,0.8-3.5,1.43
		c0,0.1,0.04,0.14,0.17,0.14c0.7,0,1.47,0.66,1.47,1.54c0,0.91-0.7,1.61-1.57,1.61c-0.91,0-1.57-0.66-1.57-1.68
		c0-1.82,1.92-3.53,5.66-3.53c2.8,0,5.24,1.01,5.24,5.14v7.17c0,1.47,0.42,1.92,0.91,1.92c0.84,0,1.19-0.87,1.22-2.8h0.49
		c-0.07,3.32-1.22,3.95-2.66,3.95c-1.36,0-2.62-0.77-2.45-3.29h-0.07c-0.66,1.82-2.76,3.36-5.21,3.36
		C220.92,117.28,219.2,116.17,219.2,113.93z M228.43,110.92v-2.52c-5.35,1.08-6.33,2.94-6.33,4.93c0,1.57,0.84,2.73,2.45,2.73
		C226.26,116.06,228.43,114.8,228.43,110.92z"/>
	<path class="st0" d="M15.04,156.5h0.42c1.54,0,1.89-0.38,1.89-1.99V137.7c0-1.61-0.35-1.99-1.89-1.99h-0.24v-0.45l4.54-0.28
		l-0.1,3.57h0.07c1.12-2.17,2.62-3.67,4.89-3.67c2.87,0,6.12,2.97,6.12,7.66c0,4.61-3.18,7.69-6.26,7.69
		c-2.38,0-3.85-1.64-4.79-3.78h-0.04c0,0,0.14,2.17,0.14,4.37v3.71c0,1.61,0.35,1.99,1.89,1.99h0.8v0.49h-7.45V156.5z M27.79,142.59
		c0-3.64-0.84-7.17-3.53-7.17c-1.71,0-4.51,2.03-4.51,7.13c0,3.6,1.92,7.1,4.44,7.1C26.89,149.65,27.79,146.37,27.79,142.59z"/>
	<path class="st0" d="M32.58,142.63c0-4.72,3.29-7.9,6.78-7.9c2.8,0,6.01,2.17,6.01,6.68c0,0.1-0.04,0.87-0.07,1.05h-9.86
		c0,3.85,1.54,6.82,4.54,6.82c2.69,0,4.06-1.36,5.21-3.04l0.38,0.28c-1.29,2.17-3.32,3.88-6.36,3.88
		C35.21,150.39,32.58,147.42,32.58,142.63z M40.7,141.89c1.4,0,1.78-0.45,1.78-1.57c0-2.8-0.98-5.07-3.22-5.07
		c-2.45,0-3.71,2.62-3.81,6.64H40.7z"/>
	<path class="st0" d="M46.95,149.37h0.24c1.54,0,1.89-0.38,1.89-1.96v-9.79c0-1.57-0.42-1.96-1.89-1.96h-0.24v-0.42l4.65-0.28
		l-0.24,5.91h0.07c1.08-3.81,2.83-6.08,5.14-6.08c1.78,0,2.8,1.05,2.8,2.27c0,1.36-0.77,2.06-1.75,2.06c-0.87,0-1.57-0.56-1.57-1.43
		c0-0.77,0.42-1.12,0.73-1.4c0.17-0.14,0.28-0.25,0.28-0.42c0-0.28-0.35-0.35-0.77-0.35c-2.52,0-4.65,4.96-4.65,7.73v4.16
		c0,1.57,0.35,1.96,1.89,1.96h0.8v0.49h-7.38V149.37z"/>
	<path class="st0" d="M62.09,148.99c-0.52,0-0.98,0.42-1.26,1.19h-0.35v-5.94h0.31c0.59,3.43,3.39,5.49,6.15,5.49
		c2.06,0,3.53-1.19,3.53-2.83c0-1.57-1.08-2.17-4.61-3.18c-3.08-0.87-5.21-1.68-5.21-4.72c0-2.52,1.89-4.09,4.54-4.09
		c2.03,0,2.94,0.91,4.02,0.91c0.56,0,1.01-0.28,1.26-0.87h0.35v5.31h-0.31c-0.56-2.87-2.55-4.86-5.49-4.86
		c-1.61,0-2.9,1.05-2.9,2.59c0,1.64,1.36,2.17,4.3,2.94c3.81,1.01,5.52,2.1,5.52,4.86c0,2.8-2.13,4.44-5.14,4.44
		C64.64,150.21,62.93,148.99,62.09,148.99z"/>
	<path class="st0" d="M73.87,142.52c0-4.54,3.57-7.8,6.85-7.8c3.29,0,6.82,3.18,6.82,7.73c0,4.44-3.53,7.94-6.82,7.94
		C77.44,150.39,73.87,146.96,73.87,142.52z M84.6,142.56c0-4.06-1.05-7.34-3.88-7.34s-3.88,3.22-3.88,7.27
		c0,4.02,0.98,7.41,3.88,7.41C83.63,149.9,84.6,146.58,84.6,142.56z"/>
	<path class="st0" d="M89.01,149.37h0.24c1.54,0,1.89-0.38,1.89-1.96v-9.75c0-1.57-0.35-1.99-1.89-1.99h-0.24v-0.42l4.65-0.28
		l-0.17,4.3h0.07c0.94-2.83,3.15-4.33,5.42-4.33c2.83,0,4.12,1.75,4.12,5.21v7.27c0,1.57,0.35,1.96,1.92,1.96h0.07v0.49h-6.75v-0.49
		h0.35c1.57,0,1.92-0.38,1.92-1.96v-8.15c0-2.45-1.05-3.22-2.45-3.22c-2.55,0-4.47,2.55-4.47,5.66v5.7c0,1.57,0.35,1.96,1.89,1.96
		h0.35v0.49h-6.92V149.37z"/>
	<path class="st0" d="M106.21,146.89c0-2.97,2.66-4.54,9.23-6.08v-1.01c0-3.36-1.33-4.51-3.43-4.51c-1.89,0-3.5,0.8-3.5,1.43
		c0,0.1,0.04,0.14,0.17,0.14c0.7,0,1.47,0.66,1.47,1.54c0,0.91-0.7,1.61-1.57,1.61c-0.91,0-1.57-0.66-1.57-1.68
		c0-1.82,1.92-3.53,5.66-3.53c2.8,0,5.24,1.01,5.24,5.14v7.17c0,1.47,0.42,1.92,0.91,1.92c0.84,0,1.19-0.87,1.22-2.8h0.49
		c-0.07,3.32-1.22,3.95-2.66,3.95c-1.36,0-2.62-0.77-2.45-3.29h-0.07c-0.66,1.82-2.76,3.36-5.21,3.36
		C107.92,150.25,106.21,149.13,106.21,146.89z M115.44,143.88v-2.52c-5.35,1.08-6.33,2.94-6.33,4.93c0,1.57,0.84,2.73,2.45,2.73
		C113.27,149.02,115.44,147.77,115.44,143.88z"/>
	<path class="st0" d="M121.14,149.37h0.14c1.57,0,1.92-0.42,1.92-2.1V128.5c0-1.68-0.35-2.1-1.92-2.1H121v-0.49l4.68-0.52v21.88
		c0,1.68,0.35,2.1,1.89,2.1h0.28v0.49h-6.71V149.37z"/>
	<path class="st0" d="M128.94,149.37h0.28c1.54,0,1.89-0.38,1.89-1.96v-9.72c0-1.61-0.35-1.99-1.89-1.99h-0.28v-0.45l4.65-0.28
		v12.44c0,1.57,0.35,1.96,1.89,1.96h0.28v0.49h-6.82V149.37z M130.09,129.38c0-1.05,0.87-1.92,1.92-1.92s1.92,0.87,1.92,1.92
		s-0.87,1.92-1.92,1.92S130.09,130.43,130.09,129.38z"/>
	<path class="st0" d="M136.98,149.51l9.58-13.81h-3.15c-3.25,0-4.54,1.64-5.45,5.31h-0.35l0.38-5.77h11.47v0.28l-9.61,13.88h3.98
		c3.67,0,4.82-2.17,5.45-5.63h0.35l-0.38,6.08h-12.27V149.51z"/>
	<path class="st0" d="M151.41,142.63c0-4.72,3.29-7.9,6.78-7.9c2.8,0,6.01,2.17,6.01,6.68c0,0.1-0.04,0.87-0.07,1.05h-9.86
		c0,3.85,1.54,6.82,4.54,6.82c2.69,0,4.05-1.36,5.21-3.04l0.38,0.28c-1.29,2.17-3.32,3.88-6.36,3.88
		C154.04,150.39,151.41,147.42,151.41,142.63z M159.52,141.89c1.4,0,1.78-0.45,1.78-1.57c0-2.8-0.98-5.07-3.22-5.07
		c-2.45,0-3.71,2.62-3.81,6.64H159.52z"/>
	<path class="st0" d="M166.17,142.56c0-4.33,2.76-7.69,6.15-7.69c2.1,0,3.74,1.47,4.82,3.6h0.11c-0.07-0.98-0.11-3.08-0.11-5.28
		v-4.75c0-1.61-0.38-1.99-1.92-1.99h-0.87v-0.49l5.28-0.52v21.81c0,1.57,0.31,2.03,1.85,2.03h0.28v0.49l-4.62,0.52l0.14-3.92h-0.11
		c-1.15,2.13-2.62,3.85-5,3.85C169.28,150.21,166.17,147.31,166.17,142.56z M177.14,142.52c0-5.21-2.9-7.13-4.4-7.13
		c-2.87,0-3.64,3.25-3.64,7.06c0,3.88,0.94,7.2,3.6,7.2C174.52,149.65,177.14,147.14,177.14,142.52z"/>
	<path class="st0" d="M17.34,178.81v-10.07h-2.38v-0.42c2.24-0.38,4.09-1.92,4.44-6.43h0.45v6.29h4.72v0.56h-4.72v10.24
		c0,2.2,0.8,3.29,2.38,3.29c1.43,0,2.59-1.57,2.73-4.65h0.49c0,3.57-1.57,5.66-4.09,5.66C18.88,183.28,17.34,181.85,17.34,178.81z"
		/>
	<path class="st0" d="M26.26,182.34h0.24c1.54,0,1.89-0.38,1.89-1.96v-9.79c0-1.57-0.42-1.96-1.89-1.96h-0.24v-0.42l4.65-0.28
		l-0.24,5.91h0.07c1.08-3.81,2.83-6.08,5.14-6.08c1.78,0,2.8,1.05,2.8,2.27c0,1.36-0.77,2.06-1.75,2.06c-0.87,0-1.57-0.56-1.57-1.43
		c0-0.77,0.42-1.12,0.73-1.4c0.17-0.14,0.28-0.25,0.28-0.42c0-0.28-0.35-0.35-0.77-0.35c-2.52,0-4.65,4.96-4.65,7.73v4.16
		c0,1.57,0.35,1.96,1.89,1.96h0.8v0.49h-7.38V182.34z"/>
	<path class="st0" d="M39.23,175.59c0-4.72,3.29-7.9,6.78-7.9c2.8,0,6.01,2.17,6.01,6.68c0,0.1-0.04,0.87-0.07,1.05h-9.86
		c0,3.85,1.54,6.82,4.54,6.82c2.69,0,4.06-1.36,5.21-3.04l0.38,0.28c-1.29,2.17-3.32,3.88-6.36,3.88
		C41.85,183.35,39.23,180.38,39.23,175.59z M47.34,174.86c1.4,0,1.78-0.45,1.78-1.57c0-2.8-0.98-5.07-3.22-5.07
		c-2.45,0-3.71,2.62-3.81,6.64H47.34z"/>
	<path class="st0" d="M53.91,179.85c0-2.97,2.66-4.54,9.23-6.08v-1.01c0-3.36-1.33-4.51-3.43-4.51c-1.89,0-3.5,0.8-3.5,1.43
		c0,0.1,0.04,0.14,0.17,0.14c0.7,0,1.47,0.66,1.47,1.54c0,0.91-0.7,1.61-1.57,1.61c-0.91,0-1.57-0.66-1.57-1.68
		c0-1.82,1.92-3.53,5.66-3.53c2.8,0,5.24,1.01,5.24,5.14v7.17c0,1.47,0.42,1.92,0.91,1.92c0.84,0,1.19-0.87,1.22-2.8h0.49
		c-0.07,3.32-1.22,3.95-2.66,3.95c-1.36,0-2.62-0.77-2.45-3.29h-0.07c-0.66,1.82-2.76,3.36-5.21,3.36
		C55.62,183.21,53.91,182.09,53.91,179.85z M63.14,176.85v-2.52c-5.35,1.08-6.33,2.94-6.33,4.93c0,1.57,0.84,2.73,2.45,2.73
		C60.97,181.99,63.14,180.73,63.14,176.85z"/>
	<path class="st0" d="M70.38,178.81v-10.07H68v-0.42c2.24-0.38,4.09-1.92,4.44-6.43h0.45v6.29h4.72v0.56h-4.72v10.24
		c0,2.2,0.8,3.29,2.38,3.29c1.43,0,2.59-1.57,2.73-4.65h0.49c0,3.57-1.57,5.66-4.09,5.66C71.91,183.28,70.38,181.85,70.38,178.81z"
		/>
	<path class="st0" d="M79.29,182.34h0.24c1.54,0,1.89-0.38,1.89-1.96v-9.75c0-1.57-0.35-1.99-1.89-1.99h-0.24v-0.42l4.65-0.28
		l-0.17,4.3h0.07c0.91-2.73,3.04-4.33,5.31-4.33c2.66,0,3.71,1.68,3.99,3.95c1.08-2.45,3.01-3.95,5.21-3.95
		c2.83,0,4.02,1.75,4.02,5.21v7.27c0,1.57,0.35,1.96,1.92,1.96h0.07v0.49h-6.75v-0.49h0.35c1.57,0,1.92-0.38,1.92-1.96v-8.15
		c0-2.45-0.94-3.22-2.34-3.22c-2.55,0-4.37,2.8-4.37,5.66v5.7c0,1.57,0.35,1.96,1.92,1.96h0.31v0.49h-6.99v-0.49h0.35
		c1.57,0,1.92-0.38,1.92-1.96v-8.15c0-2.45-0.94-3.22-2.34-3.22c-2.52,0-4.37,2.69-4.37,5.66v5.7c0,1.57,0.35,1.96,1.89,1.96h0.35
		v0.49h-6.92V182.34z"/>
	<path class="st0" d="M105.55,175.59c0-4.72,3.29-7.9,6.78-7.9c2.8,0,6.01,2.17,6.01,6.68c0,0.1-0.04,0.87-0.07,1.05h-9.86
		c0,3.85,1.54,6.82,4.54,6.82c2.69,0,4.06-1.36,5.21-3.04l0.38,0.28c-1.29,2.17-3.32,3.88-6.36,3.88
		C108.17,183.35,105.55,180.38,105.55,175.59z M113.66,174.86c1.4,0,1.78-0.45,1.78-1.57c0-2.8-0.98-5.07-3.22-5.07
		c-2.45,0-3.71,2.62-3.81,6.64H113.66z"/>
	<path class="st0" d="M119.91,182.34h0.24c1.54,0,1.89-0.38,1.89-1.96v-9.75c0-1.57-0.35-1.99-1.89-1.99h-0.24v-0.42l4.65-0.28
		l-0.17,4.3h0.07c0.94-2.83,3.15-4.33,5.42-4.33c2.83,0,4.12,1.75,4.12,5.21v7.27c0,1.57,0.35,1.96,1.92,1.96h0.07v0.49h-6.75v-0.49
		h0.35c1.57,0,1.92-0.38,1.92-1.96v-8.15c0-2.45-1.05-3.22-2.45-3.22c-2.55,0-4.47,2.55-4.47,5.66v5.7c0,1.57,0.35,1.96,1.89,1.96
		h0.35v0.49h-6.92V182.34z"/>
	<path class="st0" d="M138.69,178.81v-10.07h-2.38v-0.42c2.24-0.38,4.09-1.92,4.44-6.43h0.45v6.29h4.72v0.56h-4.72v10.24
		c0,2.2,0.8,3.29,2.38,3.29c1.43,0,2.59-1.57,2.73-4.65h0.49c0,3.57-1.57,5.66-4.09,5.66C140.23,183.28,138.69,181.85,138.69,178.81
		z"/>
	<path class="st0" d="M155.36,189.47h0.42c1.54,0,1.89-0.38,1.89-1.99v-16.81c0-1.61-0.35-1.99-1.89-1.99h-0.24v-0.45l4.54-0.28
		l-0.1,3.57h0.07c1.12-2.17,2.62-3.67,4.89-3.67c2.87,0,6.12,2.97,6.12,7.66c0,4.61-3.18,7.69-6.26,7.69
		c-2.38,0-3.85-1.64-4.79-3.78h-0.04c0,0,0.14,2.17,0.14,4.37v3.71c0,1.61,0.35,1.99,1.89,1.99h0.8v0.49h-7.45V189.47z
		 M168.12,175.55c0-3.64-0.84-7.17-3.53-7.17c-1.71,0-4.51,2.03-4.51,7.13c0,3.6,1.92,7.1,4.44,7.1
		C167.21,182.62,168.12,179.33,168.12,175.55z"/>
	<path class="st0" d="M172.53,182.34h0.14c1.57,0,1.92-0.42,1.92-2.1v-18.77c0-1.68-0.35-2.1-1.92-2.1h-0.28v-0.49l4.68-0.52v21.88
		c0,1.68,0.35,2.1,1.89,2.1h0.28v0.49h-6.71V182.34z"/>
	<path class="st0" d="M180.57,179.85c0-2.97,2.66-4.54,9.23-6.08v-1.01c0-3.36-1.33-4.51-3.43-4.51c-1.89,0-3.5,0.8-3.5,1.43
		c0,0.1,0.04,0.14,0.17,0.14c0.7,0,1.47,0.66,1.47,1.54c0,0.91-0.7,1.61-1.57,1.61c-0.91,0-1.57-0.66-1.57-1.68
		c0-1.82,1.92-3.53,5.66-3.53c2.8,0,5.24,1.01,5.24,5.14v7.17c0,1.47,0.42,1.92,0.91,1.92c0.84,0,1.19-0.87,1.22-2.8h0.49
		c-0.07,3.32-1.22,3.95-2.66,3.95c-1.36,0-2.62-0.77-2.45-3.29h-0.07c-0.66,1.82-2.76,3.36-5.21,3.36
		C182.28,183.21,180.57,182.09,180.57,179.85z M189.8,176.85v-2.52c-5.35,1.08-6.33,2.94-6.33,4.93c0,1.57,0.84,2.73,2.45,2.73
		C187.63,181.99,189.8,180.73,189.8,176.85z"/>
	<path class="st0" d="M195.5,182.34h0.25c1.54,0,1.89-0.38,1.89-1.96v-9.75c0-1.57-0.35-1.99-1.89-1.99h-0.25v-0.42l4.65-0.28
		l-0.17,4.3h0.07c0.94-2.83,3.15-4.33,5.42-4.33c2.83,0,4.12,1.75,4.12,5.21v7.27c0,1.57,0.35,1.96,1.92,1.96h0.07v0.49h-6.75v-0.49
		h0.35c1.57,0,1.92-0.38,1.92-1.96v-8.15c0-2.45-1.05-3.22-2.45-3.22c-2.55,0-4.47,2.55-4.47,5.66v5.7c0,1.57,0.35,1.96,1.89,1.96
		h0.35v0.49h-6.92V182.34z"/>
	<path class="st0" d="M213.64,181.08c0-1.12,0.87-1.99,1.99-1.99c1.12,0,1.99,0.87,1.99,1.99s-0.87,1.99-1.99,1.99
		C214.51,183.07,213.64,182.2,213.64,181.08z"/>
</g>
</svg>
