<?xml version="1.0" encoding="utf-8"?>
<!-- Generator: Adobe Illustrator 25.4.1, SVG Export Plug-In . SVG Version: 6.00 Build 0)  -->
<svg version="1.1" id="Layer_1" xmlns="http://www.w3.org/2000/svg" xmlns:xlink="http://www.w3.org/1999/xlink" x="0px" y="0px"
	 viewBox="0 0 300 600" style="enable-background:new 0 0 300 600;" xml:space="preserve">
<style type="text/css">
	.st0{fill:#FFFFFF;}
</style>
<g>
	<path class="st0" d="M16.75,80.34c0-1.15,0.7-2.1,1.82-2.1c1.12,0,1.82,0.8,1.82,1.89c0,0.73-0.35,1.19-0.87,1.57
		c-0.28,0.21-0.56,0.35-0.56,0.56c-0.04,0.73,1.22,1.08,2.2,1.08c4.76,0,5.84-5.49,5.67-11.89c-0.98,1.85-2.69,3.01-4.51,3.01
		c-3.67,0-6.16-2.48-6.16-6.82c0-4.48,3.15-7.42,6.75-7.42c4.37,0,7,4.09,7,10.74c0,7.28-3.67,12.91-8.71,12.91
		C18.29,83.87,16.75,81.98,16.75,80.34z M26.86,67.43c0-3.43-1.12-6.75-3.88-6.75c-2.73,0-3.71,3.43-3.71,6.86
		c0,3.74,0.94,6.33,3.53,6.33C25.18,73.87,26.86,70.86,26.86,67.43z"/>
	<path class="st0" d="M40.46,76.07c0-4.55,3.57-7.8,6.86-7.8c3.29,0,6.82,3.18,6.82,7.73c0,4.44-3.53,7.94-6.82,7.94
		C44.03,83.94,40.46,80.51,40.46,76.07z M51.2,76.11c0-4.06-1.05-7.35-3.88-7.35c-2.83,0-3.88,3.22-3.88,7.28
		c0,4.02,0.98,7.42,3.88,7.42C50.22,83.45,51.2,80.13,51.2,76.11z"/>
	<path class="st0" d="M57.29,78.8v-7.56c0-1.54-0.35-1.99-1.89-1.99h-0.31v-0.45l4.69-0.28v10.91c0,2.48,0.94,3.46,2.59,3.46
		c2.17,0,4.34-3.08,4.34-6.02v-5.6c0-1.61-0.35-2.03-1.89-2.03h-0.7v-0.45l5.11-0.28v12.24c0,1.57,0.38,2.03,1.92,2.03h0.24v0.45
		l-4.65,0.52l0.17-4.34h-0.07c-0.91,2.38-2.94,4.34-5.32,4.34C58.75,83.77,57.29,82.16,57.29,78.8z"/>
	<path class="st0" d="M74.18,79.39V69.32H71.8V68.9c2.24-0.38,4.09-1.92,4.44-6.44h0.45v6.3h4.72v0.56H76.7v10.25
		c0,2.2,0.8,3.29,2.38,3.29c1.43,0,2.59-1.57,2.73-4.65h0.49c0,3.57-1.57,5.67-4.09,5.67C75.72,83.87,74.18,82.44,74.18,79.39z"/>
	<path class="st0" d="M91.67,76.07c0-4.55,3.57-7.8,6.86-7.8c3.29,0,6.82,3.18,6.82,7.73c0,4.44-3.53,7.94-6.82,7.94
		C95.23,83.94,91.67,80.51,91.67,76.07z M102.4,76.11c0-4.06-1.05-7.35-3.88-7.35c-2.83,0-3.88,3.22-3.88,7.28
		c0,4.02,0.98,7.42,3.88,7.42C101.43,83.45,102.4,80.13,102.4,76.11z"/>
	<path class="st0" d="M107.23,82.93h0.28c1.54,0,1.89-0.38,1.89-1.96V69.32h-2.17v-0.52h2.17v-2.41c0-3.99,1.89-7.38,5.67-7.38
		c2.1,0,3.25,1.19,3.25,2.69c0,1.15-0.77,1.82-1.71,1.82c-0.94,0-1.54-0.59-1.54-1.5c0-0.59,0.28-1.01,0.56-1.29
		c0.21-0.21,0.38-0.38,0.38-0.59c0-0.35-0.49-0.7-1.15-0.7c-2.38,0-2.94,2.52-2.94,5.98v3.39h3.57v0.52h-3.57v11.65
		c0,1.57,0.35,1.96,1.89,1.96h0.66v0.49h-7.24V82.93z"/>
	<path class="st0" d="M125.38,82.89h1.29c1.5,0,2.1-0.42,2.1-1.99V65.16c0-1.57-0.59-1.99-2.1-1.99h-1.29v-0.52
		c3.81-0.28,5.18-1.33,5.77-2.55h0.42V80.9c0,1.57,0.56,1.99,2.06,1.99h1.01v0.52h-9.27V82.89z"/>
	<path class="st0" d="M136.85,72.08c0-7.21,3.81-11.86,7.73-11.86c3.92,0,7.59,4.65,7.59,11.86c0,7.21-3.81,11.89-7.7,11.89
		C140.56,83.98,136.85,79.29,136.85,72.08z M148.92,72.08c0-7.52-1.54-11.37-4.44-11.37c-2.97,0-4.37,3.85-4.37,11.37
		c0,7.52,1.54,11.4,4.48,11.4C147.52,83.49,148.92,79.6,148.92,72.08z"/>
	<path class="st0" d="M15,123.04h0.42c1.54,0,1.89-0.38,1.89-1.99v-16.83c0-1.61-0.35-1.99-1.89-1.99h-0.24v-0.45l4.55-0.28
		l-0.1,3.57h0.07c1.12-2.17,2.62-3.67,4.9-3.67c2.87,0,6.12,2.97,6.12,7.66c0,4.62-3.18,7.7-6.26,7.7c-2.38,0-3.85-1.64-4.79-3.78
		h-0.03c0,0,0.14,2.17,0.14,4.37v3.71c0,1.61,0.35,1.99,1.89,1.99h0.8v0.49H15V123.04z M27.77,109.12c0-3.64-0.84-7.17-3.53-7.17
		c-1.71,0-4.51,2.03-4.51,7.14c0,3.6,1.92,7.1,4.44,7.1C26.86,116.18,27.77,112.9,27.77,109.12z"/>
	<path class="st0" d="M32.49,113.42c0-2.97,2.66-4.55,9.23-6.09v-1.01c0-3.36-1.33-4.51-3.43-4.51c-1.89,0-3.5,0.8-3.5,1.43
		c0,0.1,0.03,0.14,0.17,0.14c0.7,0,1.47,0.66,1.47,1.54c0,0.91-0.7,1.61-1.57,1.61c-0.91,0-1.57-0.66-1.57-1.68
		c0-1.82,1.92-3.53,5.67-3.53c2.8,0,5.25,1.01,5.25,5.14v7.17c0,1.47,0.42,1.92,0.91,1.92c0.84,0,1.19-0.87,1.22-2.8h0.49
		c-0.07,3.32-1.22,3.95-2.66,3.95c-1.36,0-2.62-0.77-2.45-3.29h-0.07c-0.66,1.82-2.76,3.36-5.21,3.36
		C34.2,116.78,32.49,115.66,32.49,113.42z M41.72,110.41v-2.52c-5.35,1.08-6.33,2.94-6.33,4.93c0,1.57,0.84,2.73,2.45,2.73
		C39.55,115.55,41.72,114.29,41.72,110.41z"/>
	<path class="st0" d="M48.96,112.37V102.3h-2.38v-0.42c2.24-0.38,4.09-1.92,4.44-6.44h0.45v6.3h4.72v0.56h-4.72v10.25
		c0,2.2,0.8,3.29,2.38,3.29c1.43,0,2.59-1.57,2.73-4.65h0.49c0,3.57-1.57,5.67-4.09,5.67C50.5,116.85,48.96,115.41,48.96,112.37z"/>
	<path class="st0" d="M57.95,115.9h0.28c1.54,0,1.89-0.38,1.89-1.96v-9.72c0-1.61-0.35-1.99-1.89-1.99h-0.28v-0.45l4.65-0.28v12.45
		c0,1.57,0.35,1.96,1.89,1.96h0.28v0.49h-6.82V115.9z M59.1,95.9c0-1.05,0.87-1.92,1.92-1.92c1.05,0,1.92,0.87,1.92,1.92
		s-0.87,1.92-1.92,1.92C59.98,97.82,59.1,96.94,59.1,95.9z"/>
	<path class="st0" d="M66.24,109.15c0-4.72,3.29-7.91,6.79-7.91c2.8,0,6.02,2.17,6.02,6.68c0,0.1-0.04,0.87-0.07,1.05h-9.86
		c0,3.85,1.54,6.82,4.55,6.82c2.69,0,4.06-1.36,5.21-3.04l0.38,0.28c-1.29,2.17-3.32,3.88-6.37,3.88
		C68.86,116.92,66.24,113.94,66.24,109.15z M74.35,108.42c1.4,0,1.78-0.45,1.78-1.57c0-2.8-0.98-5.07-3.22-5.07
		c-2.45,0-3.71,2.62-3.81,6.65H74.35z"/>
	<path class="st0" d="M80.61,115.9h0.24c1.54,0,1.89-0.38,1.89-1.96v-9.76c0-1.57-0.35-1.99-1.89-1.99h-0.24v-0.42l4.65-0.28
		l-0.18,4.3h0.07c0.94-2.83,3.15-4.34,5.42-4.34c2.83,0,4.13,1.75,4.13,5.21v7.28c0,1.57,0.35,1.96,1.92,1.96h0.07v0.49h-6.75v-0.49
		h0.35c1.57,0,1.92-0.38,1.92-1.96v-8.15c0-2.45-1.05-3.22-2.45-3.22c-2.55,0-4.48,2.55-4.48,5.67v5.7c0,1.57,0.35,1.96,1.89,1.96
		h0.35v0.49h-6.93V115.9z"/>
	<path class="st0" d="M99.4,112.37V102.3h-2.38v-0.42c2.24-0.38,4.09-1.92,4.44-6.44h0.45v6.3h4.72v0.56h-4.72v10.25
		c0,2.2,0.8,3.29,2.38,3.29c1.43,0,2.59-1.57,2.73-4.65h0.49c0,3.57-1.57,5.67-4.09,5.67C100.94,116.85,99.4,115.41,99.4,112.37z"/>
	<path class="st0" d="M110.87,115.52c-0.52,0-0.98,0.42-1.26,1.19h-0.35v-5.95h0.31c0.59,3.43,3.39,5.49,6.16,5.49
		c2.06,0,3.53-1.19,3.53-2.83c0-1.57-1.08-2.17-4.62-3.18c-3.08-0.87-5.21-1.68-5.21-4.72c0-2.52,1.89-4.09,4.55-4.09
		c2.03,0,2.94,0.91,4.02,0.91c0.56,0,1.01-0.28,1.26-0.87h0.35v5.32h-0.31c-0.56-2.87-2.55-4.86-5.49-4.86
		c-1.61,0-2.9,1.05-2.9,2.59c0,1.64,1.36,2.17,4.3,2.94c3.81,1.01,5.53,2.1,5.53,4.86c0,2.8-2.13,4.44-5.14,4.44
		C113.42,116.74,111.71,115.52,110.87,115.52z"/>
	<path class="st0" d="M130.45,115.9h0.24c1.54,0,1.89-0.38,1.89-1.96v-9.79c0-1.57-0.42-1.96-1.89-1.96h-0.24v-0.42l4.65-0.28
		l-0.24,5.91h0.07c1.08-3.81,2.83-6.09,5.14-6.09c1.78,0,2.8,1.05,2.8,2.27c0,1.36-0.77,2.06-1.75,2.06c-0.87,0-1.57-0.56-1.57-1.43
		c0-0.77,0.42-1.12,0.73-1.4c0.17-0.14,0.28-0.24,0.28-0.42c0-0.28-0.35-0.35-0.77-0.35c-2.52,0-4.65,4.97-4.65,7.73v4.16
		c0,1.57,0.35,1.96,1.89,1.96h0.8v0.49h-7.38V115.9z"/>
	<path class="st0" d="M143.43,109.15c0-4.72,3.29-7.91,6.79-7.91c2.8,0,6.02,2.17,6.02,6.68c0,0.1-0.03,0.87-0.07,1.05h-9.86
		c0,3.85,1.54,6.82,4.55,6.82c2.69,0,4.06-1.36,5.21-3.04l0.38,0.28c-1.29,2.17-3.32,3.88-6.37,3.88
		C146.05,116.92,143.43,113.94,143.43,109.15z M151.55,108.42c1.4,0,1.78-0.45,1.78-1.57c0-2.8-0.98-5.07-3.22-5.07
		c-2.45,0-3.71,2.62-3.81,6.65H151.55z"/>
	<path class="st0" d="M157.38,123.04h0.42c1.54,0,1.89-0.38,1.89-1.99v-16.83c0-1.61-0.35-1.99-1.89-1.99h-0.24v-0.45l4.55-0.28
		l-0.1,3.57h0.07c1.12-2.17,2.62-3.67,4.9-3.67c2.87,0,6.12,2.97,6.12,7.66c0,4.62-3.18,7.7-6.26,7.7c-2.38,0-3.85-1.64-4.79-3.78
		H162c0,0,0.14,2.17,0.14,4.37v3.71c0,1.61,0.35,1.99,1.89,1.99h0.8v0.49h-7.45V123.04z M170.15,109.12c0-3.64-0.84-7.17-3.53-7.17
		c-1.71,0-4.51,2.03-4.51,7.14c0,3.6,1.92,7.1,4.44,7.1C169.24,116.18,170.15,112.9,170.15,109.12z"/>
	<path class="st0" d="M174.94,109.05c0-4.55,3.57-7.8,6.86-7.8c3.29,0,6.82,3.18,6.82,7.73c0,4.44-3.53,7.94-6.82,7.94
		C178.51,116.92,174.94,113.49,174.94,109.05z M185.68,109.08c0-4.06-1.05-7.35-3.88-7.35c-2.83,0-3.88,3.22-3.88,7.28
		c0,4.02,0.98,7.42,3.88,7.42S185.68,113.11,185.68,109.08z"/>
	<path class="st0" d="M190.09,115.9h0.24c1.54,0,1.89-0.38,1.89-1.96v-9.79c0-1.57-0.42-1.96-1.89-1.96h-0.24v-0.42l4.65-0.28
		l-0.24,5.91h0.07c1.08-3.81,2.83-6.09,5.14-6.09c1.78,0,2.8,1.05,2.8,2.27c0,1.36-0.77,2.06-1.75,2.06c-0.87,0-1.57-0.56-1.57-1.43
		c0-0.77,0.42-1.12,0.73-1.4c0.18-0.14,0.28-0.24,0.28-0.42c0-0.28-0.35-0.35-0.77-0.35c-2.52,0-4.65,4.97-4.65,7.73v4.16
		c0,1.57,0.35,1.96,1.89,1.96h0.8v0.49h-7.38V115.9z"/>
	<path class="st0" d="M205.34,112.37V102.3h-2.38v-0.42c2.24-0.38,4.09-1.92,4.44-6.44h0.45v6.3h4.72v0.56h-4.72v10.25
		c0,2.2,0.8,3.29,2.38,3.29c1.43,0,2.59-1.57,2.73-4.65h0.49c0,3.57-1.57,5.67-4.09,5.67C206.88,116.85,205.34,115.41,205.34,112.37
		z"/>
	<path class="st0" d="M214.64,109.15c0-4.72,3.29-7.91,6.79-7.91c2.8,0,6.02,2.17,6.02,6.68c0,0.1-0.04,0.87-0.07,1.05h-9.86
		c0,3.85,1.54,6.82,4.55,6.82c2.69,0,4.06-1.36,5.21-3.04l0.38,0.28c-1.29,2.17-3.32,3.88-6.37,3.88
		C217.26,116.92,214.64,113.94,214.64,109.15z M222.75,108.42c1.4,0,1.78-0.45,1.78-1.57c0-2.8-0.98-5.07-3.22-5.07
		c-2.45,0-3.71,2.62-3.81,6.65H222.75z"/>
	<path class="st0" d="M229.4,109.08c0-4.34,2.76-7.7,6.16-7.7c2.1,0,3.74,1.47,4.83,3.6h0.1c-0.07-0.98-0.1-3.08-0.1-5.28v-4.76
		c0-1.61-0.38-1.99-1.92-1.99h-0.87v-0.49l5.28-0.52v21.83c0,1.57,0.31,2.03,1.85,2.03H245v0.49l-4.62,0.52l0.14-3.92h-0.1
		c-1.15,2.13-2.62,3.85-5,3.85C232.51,116.74,229.4,113.84,229.4,109.08z M240.38,109.05c0-5.21-2.9-7.14-4.41-7.14
		c-2.87,0-3.64,3.25-3.64,7.07c0,3.88,0.94,7.21,3.6,7.21C237.76,116.18,240.38,113.67,240.38,109.05z"/>
	<path class="st0" d="M15.42,148.88h0.24c1.54,0,1.89-0.38,1.89-1.96v-9.76c0-1.57-0.35-1.99-1.89-1.99h-0.24v-0.42l4.65-0.28
		l-0.17,4.3h0.07c0.94-2.83,3.15-4.34,5.42-4.34c2.83,0,4.13,1.75,4.13,5.21v7.28c0,1.57,0.35,1.96,1.92,1.96h0.07v0.49h-6.75v-0.49
		h0.35c1.57,0,1.92-0.38,1.92-1.96v-8.15c0-2.45-1.05-3.22-2.45-3.22c-2.55,0-4.48,2.55-4.48,5.67v5.7c0,1.57,0.35,1.96,1.89,1.96
		h0.35v0.49h-6.93V148.88z"/>
	<path class="st0" d="M32.7,142.03c0-4.55,3.57-7.8,6.86-7.8c3.29,0,6.82,3.18,6.82,7.73c0,4.44-3.53,7.94-6.82,7.94
		C36.27,149.9,32.7,146.47,32.7,142.03z M43.44,142.06c0-4.06-1.05-7.35-3.88-7.35c-2.83,0-3.88,3.22-3.88,7.28
		c0,4.02,0.98,7.42,3.88,7.42C42.46,149.41,43.44,146.08,43.44,142.06z"/>
	<path class="st0" d="M49.73,145.35v-10.07h-2.38v-0.42c2.24-0.38,4.09-1.92,4.44-6.44h0.45v6.3h4.72v0.56h-4.72v10.25
		c0,2.2,0.8,3.29,2.38,3.29c1.43,0,2.59-1.57,2.73-4.65h0.49c0,3.57-1.57,5.67-4.09,5.67C51.27,149.83,49.73,148.39,49.73,145.35z"
		/>
	<path class="st0" d="M58.72,148.88H59c1.54,0,1.89-0.38,1.89-1.96v-9.72c0-1.61-0.35-1.99-1.89-1.99h-0.28v-0.45l4.65-0.28v12.45
		c0,1.57,0.35,1.96,1.89,1.96h0.28v0.49h-6.82V148.88z M59.87,128.87c0-1.05,0.87-1.92,1.92-1.92c1.05,0,1.92,0.87,1.92,1.92
		c0,1.05-0.87,1.92-1.92,1.92C60.75,130.8,59.87,129.92,59.87,128.87z"/>
	<path class="st0" d="M67.01,142.13c0-4.3,3.46-7.91,7.56-7.91c2.73,0,4.72,1.89,4.72,3.92c0,1.19-0.77,1.92-1.75,1.92
		c-0.94,0-1.61-0.8-1.61-1.64c0-0.73,0.45-1.4,1.26-1.61c0.42-0.1,0.73,0.07,0.73-0.21c0-0.63-1.22-1.82-3.43-1.82
		c-3.15,0-4.44,2.97-4.44,7.17c0,3.85,1.54,6.75,4.72,6.75c2.1,0,3.5-1.12,4.55-2.52l0.35,0.24c-1.19,1.99-3.36,3.46-6.05,3.46
		C70.12,149.9,67.01,146.89,67.01,142.13z"/>
	<path class="st0" d="M80.86,142.13c0-4.72,3.29-7.91,6.79-7.91c2.8,0,6.02,2.17,6.02,6.68c0,0.1-0.04,0.87-0.07,1.05h-9.86
		c0,3.85,1.54,6.82,4.55,6.82c2.69,0,4.06-1.36,5.21-3.04l0.38,0.28c-1.29,2.17-3.32,3.88-6.37,3.88
		C83.48,149.9,80.86,146.92,80.86,142.13z M88.97,141.4c1.4,0,1.78-0.45,1.78-1.57c0-2.8-0.98-5.07-3.22-5.07
		c-2.45,0-3.71,2.62-3.81,6.65H88.97z"/>
	<path class="st0" d="M95.55,146.4c0-2.97,2.66-4.55,9.23-6.09v-1.01c0-3.36-1.33-4.51-3.43-4.51c-1.89,0-3.5,0.8-3.5,1.43
		c0,0.1,0.03,0.14,0.17,0.14c0.7,0,1.47,0.66,1.47,1.54c0,0.91-0.7,1.61-1.57,1.61c-0.91,0-1.57-0.66-1.57-1.68
		c0-1.82,1.92-3.53,5.67-3.53c2.8,0,5.25,1.01,5.25,5.14v7.17c0,1.47,0.42,1.92,0.91,1.92c0.84,0,1.19-0.87,1.22-2.8h0.49
		c-0.07,3.32-1.22,3.95-2.66,3.95c-1.36,0-2.62-0.77-2.45-3.29h-0.07c-0.66,1.82-2.76,3.36-5.21,3.36
		C97.26,149.76,95.55,148.64,95.55,146.4z M104.78,143.39v-2.52c-5.35,1.08-6.33,2.94-6.33,4.93c0,1.57,0.84,2.73,2.45,2.73
		C102.61,148.53,104.78,147.27,104.78,143.39z"/>
	<path class="st0" d="M112.09,143.42v-15.53c0-1.61-0.35-1.99-1.89-1.99h-0.59v-0.49l4.93-0.52v7.59c0,2.69-0.1,5.49-0.1,5.49h0.07
		c1.33-2.31,2.69-3.6,4.97-3.6c3.04,0,6.02,3.29,6.02,7.63c0,4.83-3.22,7.73-6.12,7.73c-2.38,0-3.64-1.33-4.83-3.46h-0.07
		l-2.38,3.74h-0.45C111.99,148.01,112.09,145.56,112.09,143.42z M122.55,142.06c0-3.85-0.91-7.14-3.5-7.14
		c-2.38,0-4.55,2.9-4.55,7.1c0,3.92,1.96,7.14,4.48,7.14C121.05,149.16,122.55,147.2,122.55,142.06z"/>
	<path class="st0" d="M126.96,148.88h0.14c1.57,0,1.92-0.42,1.92-2.1V128c0-1.68-0.35-2.1-1.92-2.1h-0.28v-0.49l4.69-0.52v21.9
		c0,1.68,0.35,2.1,1.89,2.1h0.28v0.49h-6.72V148.88z"/>
	<path class="st0" d="M135.07,142.13c0-4.72,3.29-7.91,6.79-7.91c2.8,0,6.02,2.17,6.02,6.68c0,0.1-0.03,0.87-0.07,1.05h-9.86
		c0,3.85,1.54,6.82,4.55,6.82c2.69,0,4.06-1.36,5.21-3.04l0.38,0.28c-1.29,2.17-3.32,3.88-6.37,3.88
		C137.69,149.9,135.07,146.92,135.07,142.13z M143.19,141.4c1.4,0,1.78-0.45,1.78-1.57c0-2.8-0.98-5.07-3.22-5.07
		c-2.45,0-3.71,2.62-3.81,6.65H143.19z"/>
	<path class="st0" d="M158.05,148.88h0.28c1.54,0,1.89-0.38,1.89-1.96v-11.65h-2.17v-0.52h2.17v-2.41c0-3.99,1.89-7.38,5.67-7.38
		c2.1,0,3.25,1.19,3.25,2.69c0,1.15-0.77,1.82-1.71,1.82c-0.94,0-1.54-0.59-1.54-1.5c0-0.59,0.28-1.01,0.56-1.29
		c0.21-0.21,0.38-0.38,0.38-0.59c0-0.35-0.49-0.7-1.15-0.7c-2.38,0-2.94,2.52-2.94,5.98v3.39h3.57v0.52h-3.57v11.65
		c0,1.57,0.35,1.96,1.89,1.96h0.66v0.49h-7.24V148.88z"/>
	<path class="st0" d="M167.28,146.4c0-2.97,2.66-4.55,9.23-6.09v-1.01c0-3.36-1.33-4.51-3.43-4.51c-1.89,0-3.5,0.8-3.5,1.43
		c0,0.1,0.03,0.14,0.17,0.14c0.7,0,1.47,0.66,1.47,1.54c0,0.91-0.7,1.61-1.57,1.61c-0.91,0-1.57-0.66-1.57-1.68
		c0-1.82,1.92-3.53,5.67-3.53c2.8,0,5.25,1.01,5.25,5.14v7.17c0,1.47,0.42,1.92,0.91,1.92c0.84,0,1.19-0.87,1.22-2.8h0.49
		c-0.07,3.32-1.22,3.95-2.66,3.95c-1.36,0-2.62-0.77-2.45-3.29h-0.07c-0.66,1.82-2.76,3.36-5.21,3.36
		C169,149.76,167.28,148.64,167.28,146.4z M176.52,143.39v-2.52c-5.35,1.08-6.33,2.94-6.33,4.93c0,1.57,0.84,2.73,2.45,2.73
		C174.35,148.53,176.52,147.27,176.52,143.39z"/>
	<path class="st0" d="M183.76,145.35v-10.07h-2.38v-0.42c2.24-0.38,4.09-1.92,4.44-6.44h0.45v6.3H191v0.56h-4.72v10.25
		c0,2.2,0.8,3.29,2.38,3.29c1.43,0,2.59-1.57,2.73-4.65h0.49c0,3.57-1.57,5.67-4.09,5.67C185.3,149.83,183.76,148.39,183.76,145.35z
		"/>
	<path class="st0" d="M15.42,181.86h0.24c1.54,0,1.89-0.38,1.89-1.96v-9.79c0-1.57-0.42-1.96-1.89-1.96h-0.24v-0.42l4.65-0.28
		l-0.24,5.91h0.07c1.08-3.81,2.83-6.09,5.14-6.09c1.78,0,2.8,1.05,2.8,2.27c0,1.36-0.77,2.06-1.75,2.06c-0.87,0-1.57-0.56-1.57-1.43
		c0-0.77,0.42-1.12,0.73-1.4c0.17-0.14,0.28-0.24,0.28-0.42c0-0.28-0.35-0.35-0.77-0.35c-2.52,0-4.65,4.97-4.65,7.73v4.16
		c0,1.57,0.35,1.96,1.89,1.96h0.8v0.49h-7.38V181.86z"/>
	<path class="st0" d="M28.4,175.11c0-4.72,3.29-7.91,6.79-7.91c2.8,0,6.02,2.17,6.02,6.68c0,0.1-0.03,0.87-0.07,1.05h-9.86
		c0,3.85,1.54,6.82,4.55,6.82c2.69,0,4.06-1.36,5.21-3.04l0.38,0.28c-1.29,2.17-3.32,3.88-6.37,3.88
		C31.02,182.87,28.4,179.9,28.4,175.11z M36.51,174.37c1.4,0,1.78-0.45,1.78-1.57c0-2.8-0.98-5.07-3.22-5.07
		c-2.45,0-3.71,2.62-3.81,6.65H36.51z"/>
	<path class="st0" d="M43.16,175.04c0-4.34,2.76-7.7,6.16-7.7c2.1,0,3.74,1.47,4.83,3.6h0.1c-0.07-0.98-0.1-3.08-0.1-5.28v-4.76
		c0-1.61-0.38-1.99-1.92-1.99h-0.87v-0.49l5.28-0.52v21.83c0,1.57,0.31,2.03,1.85,2.03h0.28v0.49l-4.62,0.53l0.14-3.92h-0.1
		c-1.15,2.13-2.62,3.85-5,3.85C46.27,182.7,43.16,179.79,43.16,175.04z M54.14,175c0-5.21-2.9-7.14-4.41-7.14
		c-2.87,0-3.64,3.25-3.64,7.07c0,3.88,0.94,7.21,3.6,7.21C51.52,182.14,54.14,179.62,54.14,175z"/>
	<path class="st0" d="M61.27,177.73v-7.56c0-1.54-0.35-1.99-1.89-1.99h-0.31v-0.45l4.69-0.28v10.91c0,2.48,0.94,3.46,2.59,3.46
		c2.17,0,4.34-3.08,4.34-6.02v-5.6c0-1.61-0.35-2.03-1.89-2.03h-0.7v-0.45l5.11-0.28v12.24c0,1.57,0.38,2.03,1.92,2.03h0.24v0.45
		l-4.65,0.52l0.17-4.34h-0.07c-0.91,2.38-2.94,4.34-5.32,4.34C62.74,182.7,61.27,181.09,61.27,177.73z"/>
	<path class="st0" d="M76.66,175.11c0-4.3,3.46-7.91,7.56-7.91c2.73,0,4.72,1.89,4.72,3.92c0,1.19-0.77,1.92-1.75,1.92
		c-0.94,0-1.61-0.8-1.61-1.64c0-0.73,0.45-1.4,1.26-1.61c0.42-0.11,0.73,0.07,0.73-0.21c0-0.63-1.22-1.82-3.43-1.82
		c-3.15,0-4.44,2.97-4.44,7.17c0,3.85,1.54,6.75,4.72,6.75c2.1,0,3.5-1.12,4.55-2.52l0.35,0.24c-1.19,1.99-3.36,3.46-6.05,3.46
		C79.78,182.87,76.66,179.87,76.66,175.11z"/>
	<path class="st0" d="M92.37,178.33v-10.07h-2.38v-0.42c2.24-0.38,4.09-1.92,4.44-6.44h0.45v6.3h4.72v0.56h-4.72v10.25
		c0,2.2,0.8,3.29,2.38,3.29c1.43,0,2.59-1.57,2.73-4.65h0.49c0,3.57-1.57,5.67-4.09,5.67C93.91,182.8,92.37,181.37,92.37,178.33z"/>
	<path class="st0" d="M101.35,181.86h0.28c1.54,0,1.89-0.38,1.89-1.96v-9.72c0-1.61-0.35-1.99-1.89-1.99h-0.28v-0.45l4.65-0.28
		v12.45c0,1.57,0.35,1.96,1.89,1.96h0.28v0.49h-6.82V181.86z M102.51,161.85c0-1.05,0.87-1.92,1.92-1.92s1.92,0.87,1.92,1.92
		c0,1.05-0.87,1.92-1.92,1.92S102.51,162.9,102.51,161.85z"/>
	<path class="st0" d="M109.64,175c0-4.55,3.57-7.8,6.86-7.8s6.82,3.18,6.82,7.73c0,4.44-3.53,7.94-6.82,7.94
		S109.64,179.45,109.64,175z M120.38,175.04c0-4.06-1.05-7.35-3.88-7.35c-2.83,0-3.88,3.22-3.88,7.28c0,4.02,0.98,7.42,3.88,7.42
		S120.38,179.06,120.38,175.04z"/>
	<path class="st0" d="M124.79,181.86h0.24c1.54,0,1.89-0.38,1.89-1.96v-9.76c0-1.57-0.35-1.99-1.89-1.99h-0.24v-0.42l4.65-0.28
		l-0.17,4.3h0.07c0.94-2.83,3.15-4.34,5.42-4.34c2.83,0,4.13,1.75,4.13,5.21v7.28c0,1.57,0.35,1.96,1.92,1.96h0.07v0.49h-6.75v-0.49
		h0.35c1.57,0,1.92-0.38,1.92-1.96v-8.15c0-2.45-1.05-3.22-2.45-3.22c-2.55,0-4.48,2.55-4.48,5.67v5.7c0,1.57,0.35,1.96,1.89,1.96
		h0.35v0.49h-6.93V181.86z"/>
	<path class="st0" d="M142.94,180.6c0-1.12,0.87-1.99,1.99-1.99s1.99,0.87,1.99,1.99s-0.87,1.99-1.99,1.99
		S142.94,181.72,142.94,180.6z"/>
	<path class="st0" d="M145.19,162.7c0.35-0.45,1.24-1.29,1.79-2.06c-0.92-0.31-2.12-0.45-2.65-0.61c-0.55-0.16-0.8-0.43-0.73-0.61
		c0.06-0.2,0.41-0.29,0.96-0.08c0.53,0.2,1.59,0.78,2.51,1.06c0-0.96-0.24-2.14-0.24-2.71c0-0.55,0.16-0.88,0.37-0.88
		s0.37,0.33,0.37,0.88c0,0.57-0.24,1.75-0.24,2.71c0.92-0.28,1.98-0.88,2.51-1.06c0.51-0.18,0.92-0.14,0.96,0.08
		c0.04,0.18-0.18,0.45-0.73,0.61c-0.53,0.16-1.73,0.31-2.65,0.61c0.57,0.77,1.45,1.61,1.79,2.06c0.33,0.41,0.39,0.82,0.22,0.94
		c-0.14,0.1-0.49-0.04-0.82-0.51c-0.33-0.47-0.84-1.55-1.41-2.33c-0.57,0.77-1.08,1.86-1.41,2.33c-0.31,0.43-0.65,0.61-0.8,0.51
		C144.8,163.51,144.87,163.1,145.19,162.7z"/>
</g>
</svg>
