<?xml version="1.0" encoding="utf-8"?>
<!-- Generator: Adobe Illustrator 25.4.1, SVG Export Plug-In . SVG Version: 6.00 Build 0)  -->
<svg version="1.1" id="Layer_1" xmlns="http://www.w3.org/2000/svg" xmlns:xlink="http://www.w3.org/1999/xlink" x="0px" y="0px"
	 viewBox="0 0 300 600" style="enable-background:new 0 0 300 600;" xml:space="preserve">
<style type="text/css">
	.st0{fill:#FFFFFF;}
</style>
<g>
	<path class="st0" d="M19.39,79.26h1.36c1.33,0,1.87-0.36,1.87-1.78v-17.6h-0.77c-4.18,0-5.07,2.9-5.81,7.47h-0.42l0.39-7.91h15.73
		l0.33,7.91h-0.42c-0.71-4.56-1.63-7.47-5.81-7.47h-0.77v17.6c0,1.42,0.5,1.78,1.87,1.78h1.33v0.44h-8.89V79.26z"/>
	<path class="st0" d="M31.41,77.19c0-2.52,2.25-3.85,7.82-5.16v-0.86c0-2.84-1.13-3.82-2.9-3.82c-1.6,0-2.96,0.68-2.96,1.21
		c0,0.09,0.03,0.12,0.15,0.12c0.59,0,1.24,0.56,1.24,1.3c0,0.77-0.59,1.36-1.33,1.36c-0.77,0-1.33-0.56-1.33-1.42
		c0-1.54,1.63-2.99,4.8-2.99c2.37,0,4.44,0.86,4.44,4.36v6.07c0,1.24,0.36,1.63,0.77,1.63c0.71,0,1.01-0.74,1.04-2.37h0.42
		c-0.06,2.81-1.04,3.35-2.25,3.35c-1.16,0-2.22-0.65-2.07-2.79h-0.06c-0.56,1.54-2.34,2.84-4.42,2.84
		C32.86,80.03,31.41,79.09,31.41,77.19z M39.24,74.64v-2.13c-4.53,0.92-5.36,2.49-5.36,4.18c0,1.33,0.71,2.31,2.07,2.31
		C37.4,79,39.24,77.93,39.24,74.64z"/>
	<path class="st0" d="M44.06,79.29h0.12c1.33,0,1.63-0.36,1.63-1.78V61.6c0-1.42-0.3-1.78-1.63-1.78h-0.24v-0.42l3.97-0.44v18.55
		c0,1.42,0.3,1.78,1.6,1.78h0.24v0.42h-5.69V79.29z"/>
	<path class="st0" d="M50.73,79.29h0.15c1.3,0,1.6-0.33,1.6-1.66V61.51c0-1.36-0.3-1.69-1.6-1.69h-0.27v-0.42l3.97-0.44v15.56
		l4.47-4.8c0.59-0.62,0.77-0.92,0.77-1.3c0-0.44-0.53-0.71-1.51-0.77v-0.33h5.22v0.33c-1.72,0.18-2.13,0.59-3.23,1.69l-2.43,2.49
		c0-0.03,4.3,6.04,4.3,6.04c0.68,0.95,0.95,1.33,2.13,1.42v0.42h-5.51v-0.39c0.95-0.09,1.27-0.36,1.27-0.68
		c0-0.18-0.06-0.33-0.39-0.8l-3.2-4.59l-1.9,1.9v2.49c0,1.33,0.3,1.66,1.63,1.66h0.18v0.42h-5.66V79.29z"/>
	<path class="st0" d="M73.33,76.3v-8.53h-2.02v-0.36c1.9-0.33,3.47-1.63,3.76-5.45h0.39v5.33h4v0.47h-4v8.68
		c0,1.87,0.68,2.79,2.01,2.79c1.21,0,2.19-1.33,2.31-3.94h0.42c0,3.02-1.33,4.8-3.47,4.8C74.64,80.09,73.33,78.88,73.33,76.3z"/>
	<path class="st0" d="M81.21,73.48c0-3.85,3.02-6.61,5.81-6.61c2.79,0,5.78,2.7,5.78,6.55c0,3.76-2.99,6.73-5.78,6.73
		C84.23,80.15,81.21,77.25,81.21,73.48z M90.31,73.51c0-3.44-0.89-6.22-3.29-6.22c-2.4,0-3.29,2.73-3.29,6.16
		c0,3.41,0.83,6.28,3.29,6.28S90.31,76.92,90.31,73.51z"/>
	<path class="st0" d="M100.67,83.65c0-0.92,0.62-1.57,1.51-1.57c0.71,0,1.21,0.62,1.21,1.24c0,0.53-0.21,0.83-0.41,1.04
		c-0.18,0.18-0.33,0.27-0.33,0.5c0,0.3,0.33,0.5,0.77,0.5c1.36,0,2.28-1.87,3.14-3.94l0.39-0.92l-4.44-10.79
		c-0.53-1.33-0.95-1.93-2.16-2.01v-0.39h5.96v0.39c-1.04,0.09-1.51,0.41-1.54,0.89c-0.03,0.44,0.12,0.95,0.36,1.57l2.93,7.76
		l2.67-6.99c0.27-0.68,0.56-1.51,0.56-2.07c0-0.77-0.5-1.07-1.63-1.16v-0.39h4.39v0.39c-1.3,0.09-1.63,0.8-2.1,2.01l-4.77,11.68
		c-1.48,3.65-2.61,4.47-4,4.47C101.53,85.87,100.67,84.86,100.67,83.65z"/>
	<path class="st0" d="M113.92,73.48c0-3.85,3.02-6.61,5.81-6.61c2.79,0,5.78,2.7,5.78,6.55c0,3.76-2.99,6.73-5.78,6.73
		C116.94,80.15,113.92,77.25,113.92,73.48z M123.02,73.51c0-3.44-0.89-6.22-3.29-6.22c-2.4,0-3.29,2.73-3.29,6.16
		c0,3.41,0.83,6.28,3.29,6.28S123.02,76.92,123.02,73.51z"/>
	<path class="st0" d="M128.17,75.8v-6.4c0-1.3-0.3-1.69-1.6-1.69h-0.27v-0.39l3.97-0.24v9.25c0,2.1,0.8,2.93,2.19,2.93
		c1.84,0,3.67-2.61,3.67-5.1v-4.74c0-1.36-0.3-1.72-1.6-1.72h-0.59v-0.39l4.33-0.24v10.37c0,1.33,0.33,1.72,1.63,1.72h0.21v0.39
		L136.17,80l0.15-3.67h-0.06c-0.77,2.01-2.49,3.67-4.5,3.67C129.41,80,128.17,78.64,128.17,75.8z"/>
	<path class="st0" d="M140.88,79.29h0.21c1.3,0,1.6-0.33,1.6-1.66v-8.3c0-1.33-0.36-1.66-1.6-1.66h-0.21v-0.36l3.94-0.24l-0.21,5.01
		h0.06c0.92-3.23,2.4-5.16,4.36-5.16c1.51,0,2.37,0.89,2.37,1.93c0,1.16-0.65,1.75-1.48,1.75c-0.74,0-1.33-0.47-1.33-1.21
		c0-0.65,0.36-0.95,0.62-1.19c0.15-0.12,0.24-0.21,0.24-0.36c0-0.24-0.3-0.3-0.65-0.3c-2.13,0-3.94,4.21-3.94,6.55v3.53
		c0,1.33,0.3,1.66,1.6,1.66h0.68v0.42h-6.25V79.29z"/>
	<path class="st0" d="M15.03,113.27h0.36c1.3,0,1.6-0.33,1.6-1.69V97.33c0-1.36-0.3-1.69-1.6-1.69h-0.21v-0.39l3.85-0.24l-0.09,3.02
		H19c0.95-1.84,2.22-3.11,4.15-3.11c2.43,0,5.19,2.52,5.19,6.49c0,3.91-2.7,6.52-5.3,6.52c-2.01,0-3.26-1.39-4.06-3.2h-0.03
		c0,0,0.12,1.84,0.12,3.7v3.14c0,1.36,0.3,1.69,1.6,1.69h0.68v0.41h-6.31V113.27z M25.85,101.48c0-3.08-0.71-6.07-2.99-6.07
		c-1.45,0-3.82,1.72-3.82,6.04c0,3.05,1.63,6.02,3.76,6.02C25.08,107.46,25.85,104.68,25.85,101.48z"/>
	<path class="st0" d="M29.58,107.23h0.21c1.3,0,1.6-0.33,1.6-1.66v-8.3c0-1.33-0.36-1.66-1.6-1.66h-0.21v-0.36l3.94-0.24l-0.21,5.01
		h0.06c0.92-3.23,2.4-5.16,4.36-5.16c1.51,0,2.37,0.89,2.37,1.93c0,1.16-0.65,1.75-1.48,1.75c-0.74,0-1.33-0.47-1.33-1.21
		c0-0.65,0.36-0.95,0.62-1.19c0.15-0.12,0.24-0.21,0.24-0.36c0-0.24-0.3-0.3-0.65-0.3c-2.13,0-3.94,4.21-3.94,6.55v3.53
		c0,1.33,0.3,1.66,1.6,1.66h0.68v0.42h-6.25V107.23z"/>
	<path class="st0" d="M40.57,101.42c0-3.85,3.02-6.61,5.81-6.61c2.79,0,5.78,2.7,5.78,6.55c0,3.76-2.99,6.73-5.78,6.73
		C43.59,108.08,40.57,105.18,40.57,101.42z M49.66,101.45c0-3.44-0.89-6.22-3.29-6.22c-2.4,0-3.29,2.73-3.29,6.16
		c0,3.41,0.83,6.28,3.29,6.28S49.66,104.85,49.66,101.45z"/>
	<path class="st0" d="M54.49,97.56c-0.56-1.33-0.92-1.84-2.13-1.93v-0.39h5.93v0.39c-1.19,0.09-1.51,0.39-1.54,0.86
		c-0.03,0.44,0.12,1.01,0.33,1.54l2.84,7.56l2.64-6.82c0.27-0.71,0.56-1.45,0.56-2.01c0-0.77-0.5-1.04-1.63-1.13v-0.39h4.27v0.39
		c-1.21,0.09-1.6,0.77-2.07,1.93l-4.39,10.67h-0.41L54.49,97.56z"/>
	<path class="st0" d="M66.19,107.23h0.24c1.3,0,1.6-0.33,1.6-1.66v-8.24c0-1.36-0.3-1.69-1.6-1.69h-0.24v-0.39l3.94-0.24v10.55
		c0,1.33,0.3,1.66,1.6,1.66h0.24v0.42h-5.78V107.23z M67.17,90.28c0-0.89,0.74-1.63,1.63-1.63c0.89,0,1.63,0.74,1.63,1.63
		c0,0.89-0.74,1.63-1.63,1.63C67.91,91.91,67.17,91.16,67.17,90.28z"/>
	<path class="st0" d="M73.21,101.45c0-3.67,2.34-6.52,5.21-6.52c1.78,0,3.17,1.24,4.09,3.05h0.09c-0.06-0.83-0.09-2.61-0.09-4.47
		v-4.03c0-1.36-0.33-1.69-1.63-1.69h-0.74v-0.41l4.47-0.44v18.49c0,1.33,0.27,1.72,1.57,1.72h0.24v0.42L82.52,108l0.12-3.32h-0.09
		c-0.98,1.81-2.22,3.26-4.24,3.26C75.85,107.94,73.21,105.48,73.21,101.45z M82.52,101.42c0-4.42-2.46-6.05-3.73-6.05
		c-2.43,0-3.08,2.76-3.08,5.99c0,3.29,0.8,6.1,3.05,6.1C80.29,107.46,82.52,105.33,82.52,101.42z"/>
	<path class="st0" d="M87.46,101.51c0-4,2.79-6.7,5.75-6.7c2.37,0,5.1,1.84,5.1,5.66c0,0.09-0.03,0.74-0.06,0.89h-8.36
		c0,3.26,1.3,5.78,3.85,5.78c2.28,0,3.44-1.16,4.42-2.58l0.33,0.24c-1.1,1.84-2.81,3.29-5.39,3.29
		C89.68,108.08,87.46,105.57,87.46,101.51z M94.34,100.88c1.19,0,1.51-0.39,1.51-1.33c0-2.37-0.83-4.3-2.73-4.3
		c-2.07,0-3.14,2.22-3.23,5.63H94.34z"/>
	<path class="st0" d="M99.64,107.23h0.21c1.3,0,1.6-0.33,1.6-1.66v-8.3c0-1.33-0.36-1.66-1.6-1.66h-0.21v-0.36l3.94-0.24l-0.21,5.01
		h0.06c0.92-3.23,2.4-5.16,4.36-5.16c1.51,0,2.37,0.89,2.37,1.93c0,1.16-0.65,1.75-1.48,1.75c-0.74,0-1.33-0.47-1.33-1.21
		c0-0.65,0.36-0.95,0.62-1.19c0.15-0.12,0.24-0.21,0.24-0.36c0-0.24-0.3-0.3-0.65-0.3c-2.13,0-3.94,4.21-3.94,6.55v3.53
		c0,1.33,0.3,1.66,1.6,1.66h0.68v0.42h-6.25V107.23z"/>
	<path class="st0" d="M117.8,105.12c0-2.52,2.25-3.85,7.82-5.16v-0.86c0-2.84-1.13-3.82-2.9-3.82c-1.6,0-2.96,0.68-2.96,1.21
		c0,0.09,0.03,0.12,0.15,0.12c0.59,0,1.24,0.56,1.24,1.3c0,0.77-0.59,1.36-1.33,1.36c-0.77,0-1.33-0.56-1.33-1.42
		c0-1.54,1.63-2.99,4.8-2.99c2.37,0,4.44,0.86,4.44,4.36v6.07c0,1.24,0.36,1.63,0.77,1.63c0.71,0,1.01-0.74,1.04-2.37h0.42
		c-0.06,2.81-1.04,3.35-2.25,3.35c-1.16,0-2.22-0.65-2.07-2.79h-0.06c-0.56,1.54-2.34,2.84-4.42,2.84
		C119.25,107.97,117.8,107.02,117.8,105.12z M125.62,102.57v-2.13c-4.53,0.92-5.36,2.49-5.36,4.18c0,1.33,0.71,2.31,2.07,2.31
		C123.78,106.93,125.62,105.86,125.62,102.57z"/>
	<path class="st0" d="M131.81,102.6V89.45c0-1.36-0.3-1.69-1.6-1.69h-0.5v-0.42l4.18-0.44v6.43c0,2.28-0.09,4.65-0.09,4.65h0.06
		c1.13-1.96,2.28-3.05,4.21-3.05c2.58,0,5.1,2.79,5.1,6.46c0,4.09-2.73,6.55-5.19,6.55c-2.02,0-3.08-1.13-4.09-2.93h-0.06
		l-2.01,3.17h-0.39C131.72,106.48,131.81,104.41,131.81,102.6z M140.67,101.45c0-3.26-0.77-6.04-2.96-6.04
		c-2.01,0-3.85,2.46-3.85,6.02c0,3.32,1.66,6.04,3.79,6.04C139.4,107.46,140.67,105.8,140.67,101.45z"/>
	<path class="st0" d="M144.73,101.42c0-3.85,3.02-6.61,5.81-6.61c2.79,0,5.78,2.7,5.78,6.55c0,3.76-2.99,6.73-5.78,6.73
		C147.75,108.08,144.73,105.18,144.73,101.42z M153.82,101.45c0-3.44-0.89-6.22-3.29-6.22s-3.29,2.73-3.29,6.16
		c0,3.41,0.83,6.28,3.29,6.28S153.82,104.85,153.82,101.45z"/>
	<path class="st0" d="M158.98,103.73v-6.4c0-1.3-0.3-1.69-1.6-1.69h-0.27v-0.39l3.97-0.24v9.25c0,2.1,0.8,2.93,2.19,2.93
		c1.84,0,3.67-2.61,3.67-5.1v-4.74c0-1.36-0.3-1.72-1.6-1.72h-0.59v-0.39l4.33-0.24v10.37c0,1.33,0.33,1.72,1.63,1.72h0.21v0.39
		l-3.94,0.44l0.15-3.67h-0.06c-0.77,2.01-2.49,3.67-4.5,3.67C160.22,107.94,158.98,106.57,158.98,103.73z"/>
	<path class="st0" d="M173.29,104.23V95.7h-2.01v-0.36c1.9-0.33,3.47-1.63,3.76-5.45h0.39v5.33h4v0.47h-4v8.68
		c0,1.87,0.68,2.79,2.01,2.79c1.21,0,2.19-1.33,2.31-3.94h0.42c0,3.02-1.33,4.8-3.47,4.8C174.59,108.03,173.29,106.81,173.29,104.23
		z"/>
	<path class="st0" d="M188.04,105.12c0-2.52,2.25-3.85,7.82-5.16v-0.86c0-2.84-1.13-3.82-2.9-3.82c-1.6,0-2.96,0.68-2.96,1.21
		c0,0.09,0.03,0.12,0.15,0.12c0.59,0,1.24,0.56,1.24,1.3c0,0.77-0.59,1.36-1.33,1.36c-0.77,0-1.33-0.56-1.33-1.42
		c0-1.54,1.63-2.99,4.8-2.99c2.37,0,4.45,0.86,4.45,4.36v6.07c0,1.24,0.36,1.63,0.77,1.63c0.71,0,1.01-0.74,1.04-2.37h0.42
		c-0.06,2.81-1.04,3.35-2.25,3.35c-1.16,0-2.22-0.65-2.07-2.79h-0.06c-0.56,1.54-2.34,2.84-4.42,2.84
		C189.49,107.97,188.04,107.02,188.04,105.12z M195.86,102.57v-2.13c-4.53,0.92-5.36,2.49-5.36,4.18c0,1.33,0.71,2.31,2.07,2.31
		C194.02,106.93,195.86,105.86,195.86,102.57z"/>
	<path class="st0" d="M15.03,141.2h0.36c1.3,0,1.6-0.33,1.6-1.69v-14.25c0-1.36-0.3-1.69-1.6-1.69h-0.21v-0.39l3.85-0.24l-0.09,3.02
		H19c0.95-1.84,2.22-3.11,4.15-3.11c2.43,0,5.19,2.52,5.19,6.49c0,3.91-2.7,6.52-5.3,6.52c-2.01,0-3.26-1.39-4.06-3.2h-0.03
		c0,0,0.12,1.84,0.12,3.7v3.14c0,1.36,0.3,1.69,1.6,1.69h0.68v0.41h-6.31V141.2z M25.85,129.41c0-3.08-0.71-6.07-2.99-6.07
		c-1.45,0-3.82,1.72-3.82,6.04c0,3.05,1.63,6.02,3.76,6.02C25.08,135.39,25.85,132.61,25.85,129.41z"/>
	<path class="st0" d="M29.9,129.44c0-4,2.79-6.7,5.75-6.7c2.37,0,5.1,1.84,5.1,5.66c0,0.09-0.03,0.74-0.06,0.89h-8.36
		c0,3.26,1.3,5.78,3.85,5.78c2.28,0,3.44-1.16,4.42-2.58l0.33,0.24c-1.1,1.84-2.81,3.29-5.39,3.29
		C32.12,136.02,29.9,133.5,29.9,129.44z M36.78,128.82c1.19,0,1.51-0.39,1.51-1.33c0-2.37-0.83-4.3-2.73-4.3
		c-2.07,0-3.14,2.22-3.23,5.63H36.78z"/>
	<path class="st0" d="M42.08,135.16h0.21c1.3,0,1.6-0.33,1.6-1.66v-8.3c0-1.33-0.36-1.66-1.6-1.66h-0.21v-0.36l3.94-0.24l-0.21,5.01
		h0.06c0.92-3.23,2.4-5.16,4.36-5.16c1.51,0,2.37,0.89,2.37,1.93c0,1.16-0.65,1.75-1.48,1.75c-0.74,0-1.33-0.47-1.33-1.21
		c0-0.65,0.36-0.95,0.62-1.19c0.15-0.12,0.24-0.21,0.24-0.36c0-0.24-0.3-0.3-0.65-0.3c-2.13,0-3.94,4.21-3.94,6.55v3.53
		c0,1.33,0.3,1.66,1.6,1.66h0.68v0.42h-6.25V135.16z"/>
	<path class="st0" d="M54.91,134.83c-0.44,0-0.83,0.36-1.07,1.01h-0.3v-5.04h0.27c0.5,2.9,2.87,4.65,5.22,4.65
		c1.75,0,2.99-1.01,2.99-2.4c0-1.33-0.92-1.84-3.91-2.7c-2.61-0.74-4.42-1.42-4.42-4c0-2.13,1.6-3.47,3.85-3.47
		c1.72,0,2.49,0.77,3.41,0.77c0.47,0,0.86-0.24,1.07-0.74h0.3v4.5h-0.27c-0.47-2.43-2.16-4.12-4.65-4.12
		c-1.36,0-2.46,0.89-2.46,2.19c0,1.39,1.16,1.84,3.64,2.49c3.23,0.86,4.68,1.78,4.68,4.12c0,2.37-1.81,3.76-4.36,3.76
		C57.07,135.87,55.62,134.83,54.91,134.83z"/>
	<path class="st0" d="M64.89,129.35c0-3.85,3.02-6.61,5.81-6.61c2.79,0,5.78,2.7,5.78,6.55c0,3.76-2.99,6.73-5.78,6.73
		C67.91,136.02,64.89,133.11,64.89,129.35z M73.99,129.38c0-3.44-0.89-6.22-3.29-6.22c-2.4,0-3.29,2.73-3.29,6.16
		c0,3.41,0.83,6.28,3.29,6.28S73.99,132.79,73.99,129.38z"/>
	<path class="st0" d="M77.72,135.16h0.21c1.3,0,1.6-0.33,1.6-1.66v-8.27c0-1.33-0.3-1.69-1.6-1.69h-0.21v-0.36l3.94-0.24l-0.15,3.65
		h0.06c0.8-2.4,2.67-3.67,4.59-3.67c2.4,0,3.5,1.48,3.5,4.42v6.16c0,1.33,0.3,1.66,1.63,1.66h0.06v0.42h-5.72v-0.42h0.3
		c1.33,0,1.63-0.33,1.63-1.66v-6.9c0-2.07-0.89-2.73-2.07-2.73c-2.16,0-3.79,2.16-3.79,4.8v4.83c0,1.33,0.3,1.66,1.6,1.66h0.3v0.42
		h-5.87V135.16z"/>
	<path class="st0" d="M92.29,133.05c0-2.52,2.25-3.85,7.82-5.16v-0.86c0-2.84-1.13-3.82-2.9-3.82c-1.6,0-2.96,0.68-2.96,1.22
		c0,0.09,0.03,0.12,0.15,0.12c0.59,0,1.24,0.56,1.24,1.3c0,0.77-0.59,1.36-1.33,1.36c-0.77,0-1.33-0.56-1.33-1.42
		c0-1.54,1.63-2.99,4.8-2.99c2.37,0,4.44,0.86,4.44,4.36v6.07c0,1.24,0.36,1.63,0.77,1.63c0.71,0,1.01-0.74,1.04-2.37h0.42
		c-0.06,2.82-1.04,3.35-2.25,3.35c-1.16,0-2.22-0.65-2.07-2.79h-0.06c-0.56,1.54-2.34,2.84-4.42,2.84
		C93.74,135.9,92.29,134.95,92.29,133.05z M100.12,130.5v-2.13c-4.53,0.92-5.36,2.49-5.36,4.18c0,1.33,0.71,2.31,2.07,2.31
		C98.28,134.86,100.12,133.79,100.12,130.5z"/>
	<path class="st0" d="M104.94,135.16h0.12c1.33,0,1.63-0.36,1.63-1.78v-15.91c0-1.42-0.3-1.78-1.63-1.78h-0.24v-0.42l3.97-0.44
		v18.55c0,1.42,0.3,1.78,1.6,1.78h0.24v0.42h-5.69V135.16z"/>
	<path class="st0" d="M111.55,135.16h0.24c1.3,0,1.6-0.33,1.6-1.66v-8.24c0-1.36-0.3-1.69-1.6-1.69h-0.24v-0.39l3.94-0.24v10.55
		c0,1.33,0.3,1.66,1.6,1.66h0.24v0.42h-5.78V135.16z M112.53,118.21c0-0.89,0.74-1.63,1.63-1.63c0.89,0,1.63,0.74,1.63,1.63
		s-0.74,1.63-1.63,1.63C113.27,119.84,112.53,119.1,112.53,118.21z"/>
	<path class="st0" d="M118.36,135.28l8.12-11.7h-2.67c-2.76,0-3.85,1.39-4.62,4.5h-0.3l0.33-4.89h9.72v0.24l-8.15,11.76h3.38
		c3.11,0,4.09-1.84,4.62-4.77h0.3l-0.33,5.16h-10.4V135.28z"/>
	<path class="st0" d="M130.6,129.44c0-4,2.79-6.7,5.75-6.7c2.37,0,5.1,1.84,5.1,5.66c0,0.09-0.03,0.74-0.06,0.89h-8.36
		c0,3.26,1.3,5.78,3.85,5.78c2.28,0,3.44-1.16,4.42-2.58l0.33,0.24c-1.1,1.84-2.81,3.29-5.39,3.29
		C132.82,136.02,130.6,133.5,130.6,129.44z M137.47,128.82c1.19,0,1.51-0.39,1.51-1.33c0-2.37-0.83-4.3-2.73-4.3
		c-2.07,0-3.14,2.22-3.23,5.63H137.47z"/>
	<path class="st0" d="M143.1,129.38c0-3.67,2.34-6.52,5.21-6.52c1.78,0,3.17,1.24,4.09,3.05h0.09c-0.06-0.83-0.09-2.61-0.09-4.47
		v-4.03c0-1.36-0.33-1.69-1.63-1.69h-0.74v-0.41l4.47-0.44v18.49c0,1.33,0.27,1.72,1.57,1.72h0.24v0.42l-3.91,0.44l0.12-3.32h-0.09
		c-0.98,1.81-2.22,3.26-4.24,3.26C145.74,135.87,143.1,133.41,143.1,129.38z M152.4,129.35c0-4.42-2.46-6.05-3.73-6.05
		c-2.43,0-3.08,2.76-3.08,5.99c0,3.29,0.8,6.1,3.05,6.1C150.18,135.39,152.4,133.26,152.4,129.35z"/>
	<path class="st0" d="M16.99,160.1v-8.53h-2.02v-0.36c1.9-0.33,3.47-1.63,3.76-5.45h0.39v5.33h4v0.47h-4v8.68
		c0,1.87,0.68,2.79,2.01,2.79c1.21,0,2.19-1.33,2.31-3.94h0.42c0,3.02-1.33,4.8-3.47,4.8C18.29,163.89,16.99,162.68,16.99,160.1z"/>
	<path class="st0" d="M24.54,163.09h0.21c1.3,0,1.6-0.33,1.6-1.66v-8.3c0-1.33-0.36-1.66-1.6-1.66h-0.21v-0.36l3.94-0.24l-0.21,5.01
		h0.06c0.92-3.23,2.4-5.16,4.36-5.16c1.51,0,2.37,0.89,2.37,1.93c0,1.16-0.65,1.75-1.48,1.75c-0.74,0-1.33-0.47-1.33-1.21
		c0-0.65,0.36-0.95,0.62-1.19c0.15-0.12,0.24-0.21,0.24-0.36c0-0.24-0.3-0.3-0.65-0.3c-2.13,0-3.94,4.21-3.94,6.55v3.53
		c0,1.33,0.3,1.66,1.6,1.66h0.68v0.42h-6.25V163.09z"/>
	<path class="st0" d="M35.53,157.37c0-4,2.79-6.7,5.75-6.7c2.37,0,5.1,1.84,5.1,5.66c0,0.09-0.03,0.74-0.06,0.89h-8.36
		c0,3.26,1.3,5.78,3.85,5.78c2.28,0,3.44-1.16,4.42-2.58l0.33,0.24c-1.1,1.84-2.81,3.29-5.39,3.29
		C37.75,163.95,35.53,161.43,35.53,157.37z M42.41,156.75c1.19,0,1.51-0.39,1.51-1.33c0-2.37-0.83-4.3-2.73-4.3
		c-2.07,0-3.14,2.22-3.23,5.63H42.41z"/>
	<path class="st0" d="M47.97,160.99c0-2.52,2.25-3.85,7.82-5.16v-0.86c0-2.84-1.13-3.82-2.9-3.82c-1.6,0-2.96,0.68-2.96,1.22
		c0,0.09,0.03,0.12,0.15,0.12c0.59,0,1.24,0.56,1.24,1.3c0,0.77-0.59,1.36-1.33,1.36c-0.77,0-1.33-0.56-1.33-1.42
		c0-1.54,1.63-2.99,4.8-2.99c2.37,0,4.44,0.86,4.44,4.36v6.07c0,1.24,0.36,1.63,0.77,1.63c0.71,0,1.01-0.74,1.04-2.37h0.42
		c-0.06,2.82-1.04,3.35-2.25,3.35c-1.16,0-2.22-0.65-2.07-2.79h-0.06c-0.56,1.54-2.34,2.84-4.42,2.84
		C49.42,163.83,47.97,162.88,47.97,160.99z M55.8,158.44v-2.13c-4.53,0.92-5.36,2.49-5.36,4.18c0,1.33,0.71,2.31,2.07,2.31
		C53.96,162.79,55.8,161.73,55.8,158.44z"/>
	<path class="st0" d="M61.93,160.1v-8.53h-2.02v-0.36c1.9-0.33,3.47-1.63,3.76-5.45h0.39v5.33h4v0.47h-4v8.68
		c0,1.87,0.68,2.79,2.01,2.79c1.22,0,2.19-1.33,2.31-3.94h0.42c0,3.02-1.33,4.8-3.47,4.8C63.23,163.89,61.93,162.68,61.93,160.1z"/>
	<path class="st0" d="M69.48,163.09h0.21c1.3,0,1.6-0.33,1.6-1.66v-8.27c0-1.33-0.3-1.69-1.6-1.69h-0.21v-0.36l3.94-0.24l-0.15,3.65
		h0.06c0.77-2.31,2.58-3.67,4.5-3.67c2.25,0,3.14,1.42,3.38,3.35c0.92-2.07,2.55-3.35,4.42-3.35c2.4,0,3.41,1.48,3.41,4.42v6.16
		c0,1.33,0.3,1.66,1.63,1.66h0.06v0.42h-5.72v-0.42h0.3c1.33,0,1.63-0.33,1.63-1.66v-6.9c0-2.07-0.8-2.73-1.99-2.73
		c-2.16,0-3.7,2.37-3.7,4.8v4.83c0,1.33,0.3,1.66,1.63,1.66h0.27v0.42h-5.93v-0.42h0.3c1.33,0,1.63-0.33,1.63-1.66v-6.9
		c0-2.07-0.8-2.73-1.99-2.73c-2.13,0-3.7,2.28-3.7,4.8v4.83c0,1.33,0.3,1.66,1.6,1.66h0.3v0.42h-5.87V163.09z"/>
	<path class="st0" d="M91.73,157.37c0-4,2.79-6.7,5.75-6.7c2.37,0,5.1,1.84,5.1,5.66c0,0.09-0.03,0.74-0.06,0.89h-8.36
		c0,3.26,1.3,5.78,3.85,5.78c2.28,0,3.44-1.16,4.42-2.58l0.33,0.24c-1.1,1.84-2.81,3.29-5.39,3.29
		C93.95,163.95,91.73,161.43,91.73,157.37z M98.6,156.75c1.19,0,1.51-0.39,1.51-1.33c0-2.37-0.83-4.3-2.73-4.3
		c-2.07,0-3.14,2.22-3.23,5.63H98.6z"/>
	<path class="st0" d="M103.9,163.09h0.21c1.3,0,1.6-0.33,1.6-1.66v-8.27c0-1.33-0.3-1.69-1.6-1.69h-0.21v-0.36l3.94-0.24l-0.15,3.65
		h0.06c0.8-2.4,2.67-3.67,4.59-3.67c2.4,0,3.5,1.48,3.5,4.42v6.16c0,1.33,0.3,1.66,1.63,1.66h0.06v0.42h-5.72v-0.42h0.3
		c1.33,0,1.63-0.33,1.63-1.66v-6.9c0-2.07-0.89-2.73-2.07-2.73c-2.16,0-3.79,2.16-3.79,4.8v4.83c0,1.33,0.3,1.66,1.6,1.66h0.3v0.42
		h-5.87V163.09z"/>
	<path class="st0" d="M119.81,160.1v-8.53h-2.02v-0.36c1.9-0.33,3.47-1.63,3.76-5.45h0.39v5.33h4v0.47h-4v8.68
		c0,1.87,0.68,2.79,2.01,2.79c1.22,0,2.19-1.33,2.31-3.94h0.42c0,3.02-1.33,4.8-3.47,4.8C121.12,163.89,119.81,162.68,119.81,160.1z
		"/>
	<path class="st0" d="M133.94,169.14h0.36c1.3,0,1.6-0.33,1.6-1.69v-14.25c0-1.36-0.3-1.69-1.6-1.69h-0.21v-0.39l3.85-0.24
		l-0.09,3.02h0.06c0.95-1.84,2.22-3.11,4.15-3.11c2.43,0,5.19,2.52,5.19,6.49c0,3.91-2.7,6.52-5.3,6.52c-2.01,0-3.26-1.39-4.06-3.2
		h-0.03c0,0,0.12,1.84,0.12,3.7v3.14c0,1.36,0.3,1.69,1.6,1.69h0.68v0.41h-6.31V169.14z M144.76,157.34c0-3.08-0.71-6.07-2.99-6.07
		c-1.45,0-3.82,1.72-3.82,6.04c0,3.05,1.63,6.02,3.76,6.02C143.99,163.33,144.76,160.54,144.76,157.34z"/>
	<path class="st0" d="M148.49,163.09h0.12c1.33,0,1.63-0.36,1.63-1.78V145.4c0-1.42-0.3-1.78-1.63-1.78h-0.24v-0.42l3.97-0.44v18.55
		c0,1.42,0.3,1.78,1.6,1.78h0.24v0.42h-5.69V163.09z"/>
	<path class="st0" d="M155.3,160.99c0-2.52,2.25-3.85,7.82-5.16v-0.86c0-2.84-1.13-3.82-2.9-3.82c-1.6,0-2.96,0.68-2.96,1.22
		c0,0.09,0.03,0.12,0.15,0.12c0.59,0,1.24,0.56,1.24,1.3c0,0.77-0.59,1.36-1.33,1.36c-0.77,0-1.33-0.56-1.33-1.42
		c0-1.54,1.63-2.99,4.8-2.99c2.37,0,4.45,0.86,4.45,4.36v6.07c0,1.24,0.36,1.63,0.77,1.63c0.71,0,1.01-0.74,1.04-2.37h0.42
		c-0.06,2.82-1.04,3.35-2.25,3.35c-1.16,0-2.22-0.65-2.07-2.79h-0.06c-0.56,1.54-2.34,2.84-4.42,2.84
		C156.75,163.83,155.3,162.88,155.3,160.99z M163.13,158.44v-2.13c-4.53,0.92-5.36,2.49-5.36,4.18c0,1.33,0.71,2.31,2.07,2.31
		C161.29,162.79,163.13,161.73,163.13,158.44z"/>
	<path class="st0" d="M167.95,163.09h0.21c1.3,0,1.6-0.33,1.6-1.66v-8.27c0-1.33-0.3-1.69-1.6-1.69h-0.21v-0.36l3.94-0.24
		l-0.15,3.65h0.06c0.8-2.4,2.67-3.67,4.59-3.67c2.4,0,3.5,1.48,3.5,4.42v6.16c0,1.33,0.3,1.66,1.63,1.66h0.06v0.42h-5.72v-0.42h0.3
		c1.33,0,1.63-0.33,1.63-1.66v-6.9c0-2.07-0.89-2.73-2.07-2.73c-2.16,0-3.79,2.16-3.79,4.8v4.83c0,1.33,0.3,1.66,1.6,1.66h0.3v0.42
		h-5.87V163.09z"/>
	<path class="st0" d="M183.33,162.02c0-0.95,0.74-1.69,1.69-1.69s1.69,0.74,1.69,1.69s-0.74,1.69-1.69,1.69
		S183.33,162.97,183.33,162.02z"/>
</g>
</svg>
