<?xml version="1.0" encoding="utf-8"?>
<!-- Generator: Adobe Illustrator 25.4.1, SVG Export Plug-In . SVG Version: 6.00 Build 0)  -->
<svg version="1.1" id="Layer_1" xmlns="http://www.w3.org/2000/svg" xmlns:xlink="http://www.w3.org/1999/xlink" x="0px" y="0px"
	 viewBox="0 0 300 600" style="enable-background:new 0 0 300 600;" xml:space="preserve">
<style type="text/css">
	.st0{fill:#EDF0F5;}
	.st1{fill:#002554;}
</style>
<rect x="15" y="205" class="st0" width="158.09" height="28.58"/>
<g>
	<path class="st1" d="M31.69,216.1v2h3.75v1.93h-3.75v3.76h-2.31v-9.69h6.38v2H31.69z"/>
	<path class="st1" d="M37.87,223.8v-9.69h2.35v9.69H37.87z"/>
	<path class="st1" d="M49,223.8l-3.9-6.34h-0.04l0.05,6.34h-2.27v-9.69h2.67l3.89,6.32h0.04l-0.05-6.32h2.27v9.69H49z"/>
	<path class="st1" d="M57.89,223.8h-3.61v-9.69h3.5c2.75,0,5.54,1.15,5.54,4.82C63.32,222.33,60.56,223.8,57.89,223.8z M57.72,216.1
		h-1.16v5.67h1.11c1.67,0,3.22-0.68,3.22-2.85C60.88,216.75,59.34,216.1,57.72,216.1z"/>
	<path class="st1" d="M75.85,223.8l-0.75-1.9h-3.75l-0.71,1.9h-2.55l4.06-9.69h2.27l4.02,9.69H75.85z M73.25,216.69l-1.23,3.33h2.44
		L73.25,216.69z"/>
	<path class="st1" d="M87.17,220.14h-1.16v3.65h-2.34v-9.69h3.56c2.12,0,3.79,0.77,3.79,2.98
		C91.01,219.33,89.19,220.14,87.17,220.14z M87.03,215.99h-1.03v2.29h0.99c0.88,0,1.68-0.26,1.68-1.18
		C88.67,216.17,87.87,215.99,87.03,215.99z"/>
	<path class="st1" d="M98.23,223.8l-2.09-3.85h-0.79v3.85h-2.3v-9.69h3.7c1.86,0,3.71,0.71,3.71,2.93c0,1.3-0.77,2.23-2.01,2.61
		l2.53,4.15H98.23z M96.57,215.99h-1.25v2.26h1.11c0.75,0,1.7-0.19,1.7-1.18C98.13,216.17,97.27,215.99,96.57,215.99z"/>
	<path class="st1" d="M107.55,224.06c-3.02,0-5.27-2.08-5.27-5.15c0-3.11,2.24-5.06,5.27-5.06c3.04,0,5.28,1.96,5.28,5.06
		C112.84,221.98,110.59,224.06,107.55,224.06z M107.55,215.95c-1.64,0-2.76,1.26-2.76,2.96c0,1.75,1.14,3.01,2.76,3.01
		c1.63,0,2.78-1.26,2.78-3.01C110.33,217.21,109.19,215.95,107.55,215.95z"/>
	<path class="st1" d="M119.64,223.8h-2.34l-3.67-9.69h2.63l2.24,6.87h0.05l2.23-6.87h2.59L119.64,223.8z"/>
	<path class="st1" d="M124.79,223.8v-9.69h2.35v9.69H124.79z"/>
	<path class="st1" d="M133.37,223.8h-3.61v-9.69h3.5c2.75,0,5.54,1.15,5.54,4.82C138.8,222.33,136.04,223.8,133.37,223.8z
		 M133.21,216.1h-1.16v5.67h1.11c1.67,0,3.22-0.68,3.22-2.85C136.37,216.75,134.82,216.1,133.21,216.1z"/>
	<path class="st1" d="M140.97,223.8v-9.69h6.52v1.98h-4.26v1.82h4.02v1.88h-4.02v2.01h4.5v2H140.97z"/>
	<path class="st1" d="M155.08,223.8l-2.09-3.85h-0.79v3.85h-2.3v-9.69h3.7c1.86,0,3.71,0.71,3.71,2.93c0,1.3-0.77,2.23-2.01,2.61
		l2.53,4.15H155.08z M153.43,215.99h-1.25v2.26h1.11c0.75,0,1.7-0.19,1.7-1.18C154.99,216.17,154.12,215.99,153.43,215.99z"/>
</g>
</svg>
