<?xml version="1.0" encoding="utf-8"?>
<!-- Generator: Adobe Illustrator 25.4.1, SVG Export Plug-In . SVG Version: 6.00 Build 0)  -->
<svg version="1.1" id="Layer_1" xmlns="http://www.w3.org/2000/svg" xmlns:xlink="http://www.w3.org/1999/xlink" x="0px" y="0px"
	 viewBox="0 0 300 600" style="enable-background:new 0 0 300 600;" xml:space="preserve">
<style type="text/css">
	.st0{fill:#EDF0F5;}
	.st1{fill:#002554;}
</style>
<rect x="15" y="205" class="st0" width="163" height="29.47"/>
<g>
	<path class="st1" d="M32.2,216.45v2.06h3.87v1.99H32.2v3.88h-2.39v-9.99h6.58v2.06H32.2z"/>
	<path class="st1" d="M38.58,224.38v-9.99h2.43v9.99H38.58z"/>
	<path class="st1" d="M50.06,224.38l-4.02-6.54h-0.04l0.06,6.54h-2.34v-9.99h2.75l4.01,6.52h0.04l-0.06-6.52h2.34v9.99H50.06z"/>
	<path class="st1" d="M59.22,224.38h-3.73v-9.99h3.61c2.84,0,5.72,1.19,5.72,4.97C64.82,222.87,61.97,224.38,59.22,224.38z
		 M59.05,216.45h-1.2v5.84h1.14c1.72,0,3.32-0.71,3.32-2.94C62.31,217.11,60.71,216.45,59.05,216.45z"/>
	<path class="st1" d="M77.74,224.38l-0.78-1.96h-3.87l-0.73,1.96h-2.63l4.19-9.99h2.34l4.15,9.99H77.74z M75.06,217.05l-1.27,3.43
		h2.51L75.06,217.05z"/>
	<path class="st1" d="M89.41,220.61h-1.2v3.77H85.8v-9.99h3.67c2.19,0,3.91,0.79,3.91,3.08C93.38,219.78,91.5,220.61,89.41,220.61z
		 M89.27,216.33h-1.06v2.36h1.02c0.9,0,1.74-0.27,1.74-1.21C90.96,216.52,90.13,216.33,89.27,216.33z"/>
	<path class="st1" d="M100.81,224.38l-2.16-3.97h-0.82v3.97h-2.37v-9.99h3.81c1.92,0,3.82,0.73,3.82,3.02c0,1.34-0.79,2.3-2.07,2.7
		l2.61,4.28H100.81z M99.11,216.33h-1.28v2.33h1.14c0.78,0,1.75-0.2,1.75-1.21C100.72,216.52,99.83,216.33,99.11,216.33z"/>
	<path class="st1" d="M110.43,224.65c-3.12,0-5.43-2.15-5.43-5.31c0-3.2,2.31-5.22,5.43-5.22c3.13,0,5.45,2.02,5.45,5.22
		C115.87,222.5,113.56,224.65,110.43,224.65z M110.43,216.29c-1.69,0-2.85,1.3-2.85,3.05c0,1.81,1.17,3.11,2.85,3.11
		s2.87-1.3,2.87-3.11C113.29,217.59,112.12,216.29,110.43,216.29z"/>
	<path class="st1" d="M122.89,224.38h-2.41l-3.78-9.99h2.71l2.32,7.09h0.06l2.3-7.09h2.67L122.89,224.38z"/>
	<path class="st1" d="M128.2,224.38v-9.99h2.43v9.99H128.2z"/>
	<path class="st1" d="M137.05,224.38h-3.73v-9.99h3.61c2.84,0,5.72,1.19,5.72,4.97C142.65,222.87,139.8,224.38,137.05,224.38z
		 M136.88,216.45h-1.2v5.84h1.14c1.72,0,3.32-0.71,3.32-2.94C140.14,217.11,138.54,216.45,136.88,216.45z"/>
	<path class="st1" d="M144.88,224.38v-9.99h6.72v2.05h-4.39v1.88h4.15v1.93h-4.15v2.08h4.64v2.06H144.88z"/>
	<path class="st1" d="M159.43,224.38l-2.16-3.97h-0.82v3.97h-2.37v-9.99h3.81c1.92,0,3.83,0.73,3.83,3.02c0,1.34-0.79,2.3-2.07,2.7
		l2.61,4.28H159.43z M157.72,216.33h-1.28v2.33h1.14c0.78,0,1.75-0.2,1.75-1.21C159.33,216.52,158.44,216.33,157.72,216.33z"/>
</g>
</svg>
