<?xml version="1.0" encoding="utf-8"?>
<!-- Generator: Adobe Illustrator 25.4.1, SVG Export Plug-In . SVG Version: 6.00 Build 0)  -->
<svg version="1.1" id="Layer_1" xmlns="http://www.w3.org/2000/svg" xmlns:xlink="http://www.w3.org/1999/xlink" x="0px" y="0px"
	 viewBox="0 0 300 600" style="enable-background:new 0 0 300 600;" xml:space="preserve">
<style type="text/css">
	.st0{fill:#FFFFFF;}
</style>
<g>
	<path class="st0" d="M22.09,279.68h-4.43l-1.04,2.66h-1.24l3.8-9.58h1.41l3.79,9.58h-1.26L22.09,279.68z M21.66,278.6l-1.32-3.4
		l-0.46-1.33h-0.03l-0.43,1.29l-1.33,3.44H21.66z"/>
	<path class="st0" d="M27.27,280.4c0,0.74,0.19,0.97,0.8,0.97c0.4,0,0.65-0.04,1.08-0.2l-0.19,1.12c-0.31,0.13-0.71,0.2-1.1,0.2
		c-1.2,0-1.78-0.62-1.78-1.95v-8.79h1.18V280.4z"/>
	<path class="st0" d="M31.8,280.4c0,0.74,0.19,0.97,0.8,0.97c0.4,0,0.65-0.04,1.08-0.2l-0.19,1.12c-0.31,0.13-0.71,0.2-1.1,0.2
		c-1.2,0-1.78-0.62-1.78-1.95v-8.79h1.18V280.4z"/>
	<path class="st0" d="M41.5,279.15h-5.58c0.15,1.47,1.05,2.32,2.41,2.32c1.08,0,1.82-0.38,2.09-1.07l0.99,0.51
		c-0.56,0.99-1.48,1.58-3.08,1.58c-2.23,0-3.58-1.42-3.58-3.77s1.26-3.77,3.49-3.77c2.15,0,3.32,1.52,3.32,3.4
		C41.56,278.67,41.53,278.94,41.5,279.15z M35.93,278.12h4.48c-0.16-1.33-0.92-2.16-2.18-2.16
		C36.92,275.96,36.11,276.75,35.93,278.12z"/>
	<path class="st0" d="M48.1,282.34l-2.04-2.8l-2.1,2.8h-1.38l2.84-3.66l-2.66-3.6h1.48l1.95,2.68l1.92-2.68h1.39l-2.68,3.56
		l2.72,3.7H48.1z"/>
	<path class="st0" d="M57.92,281.43l-0.07,0.91c-0.21,0.07-0.52,0.15-0.89,0.15c-0.73,0-1.2-0.26-1.33-1.07
		c-0.47,0.68-1.44,1.07-2.38,1.07c-1.39,0-2.52-0.64-2.52-1.95c0-1.09,0.98-1.94,2.89-2.26l1.97-0.32v-0.41
		c0-0.96-0.62-1.6-1.73-1.6c-0.98,0-1.72,0.46-2.12,1.38l-0.87-0.62c0.38-1.07,1.55-1.77,2.99-1.77c1.69,0,2.92,0.78,2.92,2.47v3.57
		c0,0.35,0.15,0.52,0.56,0.52C57.52,281.5,57.74,281.47,57.92,281.43z M55.58,279.9v-1l-1.66,0.3c-1.3,0.23-1.97,0.65-1.97,1.33
		c0,0.61,0.5,0.93,1.35,0.93C54.48,281.47,55.58,280.86,55.58,279.9z"/>
	<path class="st0" d="M74.76,275.08l-2.58,7.26H71l-2.09-5.78l-1.97,5.78h-1.18l-2.58-7.26h1.32l1.87,5.91l2.01-5.91h1.18l2.01,5.91
		l1.86-5.91H74.76z"/>
	<path class="st0" d="M83.19,281.43l-0.07,0.91c-0.21,0.07-0.52,0.15-0.89,0.15c-0.73,0-1.2-0.26-1.33-1.07
		c-0.47,0.68-1.44,1.07-2.38,1.07c-1.39,0-2.52-0.64-2.52-1.95c0-1.09,0.98-1.94,2.89-2.26l1.97-0.32v-0.41
		c0-0.96-0.62-1.6-1.73-1.6c-0.98,0-1.72,0.46-2.12,1.38l-0.87-0.62c0.38-1.07,1.55-1.77,2.99-1.77c1.69,0,2.92,0.78,2.92,2.47v3.57
		c0,0.35,0.15,0.52,0.56,0.52C82.79,281.5,83.01,281.47,83.19,281.43z M80.85,279.9v-1l-1.66,0.3c-1.3,0.23-1.97,0.65-1.97,1.33
		c0,0.61,0.5,0.93,1.35,0.93C79.75,281.47,80.85,280.86,80.85,279.9z"/>
	<path class="st0" d="M84.24,280.84l0.96-0.65c0.36,0.88,1.27,1.28,2.34,1.28c1.21,0,1.79-0.48,1.79-1.07
		c0-0.54-0.46-0.86-1.94-1.12c-2.1-0.38-2.87-0.94-2.87-2.16c0-1.18,1.11-2.18,2.92-2.18c1.58,0,2.52,0.55,2.93,1.74l-1.01,0.58
		c-0.33-0.96-0.99-1.31-1.92-1.31c-0.99,0-1.73,0.52-1.73,1.06c0,0.62,0.49,0.94,2,1.19c2.07,0.33,2.81,0.94,2.81,2.13
		c0,1.26-1.2,2.15-3.09,2.15C86.06,282.49,84.8,281.96,84.24,280.84z"/>
	<path class="st0" d="M101.99,281.83c-0.46,0.41-1.1,0.65-1.91,0.65c-1.1,0-2.04-0.54-2.06-1.95v-4.45h-1.48v-1h1.48v-1.74
		l1.18-0.32v2.06h2.74v1h-2.74v4.25c0,0.71,0.46,1.06,1.11,1.06c0.53,0,0.92-0.2,1.26-0.54L101.99,281.83z"/>
	<path class="st0" d="M107.97,275.08l-0.24,1.13c-0.22-0.12-0.55-0.19-0.93-0.19c-0.89,0-1.95,0.77-1.95,2.39v3.92h-1.18v-7.26h0.96
		l0.16,1.19c0.41-0.89,1.21-1.33,2.37-1.33C107.41,274.94,107.75,274.97,107.97,275.08z"/>
	<path class="st0" d="M115.76,279.15h-5.58c0.15,1.47,1.05,2.32,2.41,2.32c1.08,0,1.82-0.38,2.09-1.07l0.99,0.51
		c-0.56,0.99-1.48,1.58-3.08,1.58c-2.23,0-3.58-1.42-3.58-3.77s1.26-3.77,3.49-3.77c2.15,0,3.32,1.52,3.32,3.4
		C115.82,278.67,115.79,278.94,115.76,279.15z M110.19,278.12h4.48c-0.16-1.33-0.92-2.16-2.18-2.16
		C111.18,275.96,110.37,276.75,110.19,278.12z"/>
	<path class="st0" d="M124.73,281.43l-0.07,0.91c-0.21,0.07-0.52,0.15-0.89,0.15c-0.73,0-1.2-0.26-1.33-1.07
		c-0.47,0.68-1.44,1.07-2.38,1.07c-1.39,0-2.52-0.64-2.52-1.95c0-1.09,0.98-1.94,2.89-2.26l1.97-0.32v-0.41
		c0-0.96-0.62-1.6-1.73-1.6c-0.98,0-1.72,0.46-2.12,1.38l-0.87-0.62c0.38-1.07,1.55-1.77,2.99-1.77c1.69,0,2.92,0.78,2.92,2.47v3.57
		c0,0.35,0.15,0.52,0.56,0.52C124.33,281.5,124.55,281.47,124.73,281.43z M122.39,279.9v-1l-1.66,0.3c-1.3,0.23-1.97,0.65-1.97,1.33
		c0,0.61,0.5,0.93,1.35,0.93C121.3,281.47,122.39,280.86,122.39,279.9z"/>
	<path class="st0" d="M130.68,281.83c-0.46,0.41-1.1,0.65-1.91,0.65c-1.1,0-2.04-0.54-2.06-1.95v-4.45h-1.48v-1h1.48v-1.74
		l1.18-0.32v2.06h2.74v1h-2.74v4.25c0,0.71,0.46,1.06,1.11,1.06c0.53,0,0.92-0.2,1.26-0.54L130.68,281.83z"/>
	<path class="st0" d="M138.65,279.15h-5.58c0.15,1.47,1.05,2.32,2.41,2.32c1.08,0,1.82-0.38,2.09-1.07l0.99,0.51
		c-0.56,0.99-1.48,1.58-3.08,1.58c-2.23,0-3.58-1.42-3.58-3.77s1.26-3.77,3.49-3.77c2.15,0,3.32,1.52,3.32,3.4
		C138.71,278.67,138.68,278.94,138.65,279.15z M133.08,278.12h4.48c-0.16-1.33-0.92-2.16-2.18-2.16
		C134.07,275.96,133.26,276.75,133.08,278.12z"/>
	<path class="st0" d="M147.53,271.75v10.59h-1.04l-0.07-1.26c-0.43,0.83-1.36,1.41-2.53,1.41c-2.06,0-3.37-1.41-3.37-3.77
		s1.32-3.77,3.37-3.77c1.11,0,2,0.52,2.46,1.28v-4.47H147.53z M146.34,278.8v-0.17c0-1.64-0.92-2.67-2.32-2.67
		c-1.45,0-2.32,1.07-2.32,2.76s0.87,2.76,2.32,2.76C145.43,281.47,146.34,280.44,146.34,278.8z"/>
	<path class="st0" d="M27.12,292.36l-2.58,7.26h-1.18l-2.09-5.78l-1.97,5.78h-1.18l-2.58-7.26h1.32l1.87,5.91l2.01-5.91h1.18
		l2.01,5.91l1.86-5.91H27.12z"/>
	<path class="st0" d="M28.75,290.09c0-0.52,0.35-0.87,0.89-0.87c0.53,0,0.89,0.35,0.89,0.87s-0.35,0.87-0.89,0.87
		C29.11,290.96,28.75,290.62,28.75,290.09z M30.23,299.61h-1.18v-7.26h1.18V299.61z"/>
	<path class="st0" d="M37.52,299.1c-0.46,0.41-1.1,0.65-1.91,0.65c-1.1,0-2.04-0.54-2.06-1.95v-4.45h-1.48v-1h1.48v-1.74l1.18-0.32
		v2.06h2.74v1h-2.74v4.25c0,0.71,0.46,1.06,1.11,1.06c0.53,0,0.92-0.2,1.26-0.54L37.52,299.1z"/>
	<path class="st0" d="M45.67,294.97v4.64h-1.18v-4.24c0-1.61-0.8-2.15-1.82-2.15c-1.08,0-2.29,0.68-2.29,2.54v3.85h-1.18v-10.59
		h1.18v4.43c0.52-0.87,1.41-1.23,2.41-1.23C44.37,292.21,45.67,293.1,45.67,294.97z"/>
	<path class="st0" d="M57.56,299.76c-2.78,0-4.53-1.9-4.53-4.93c0-3.03,1.78-4.93,4.5-4.93c1.89,0,3.17,0.78,3.79,2.24l-1.17,0.54
		c-0.43-1.1-1.23-1.68-2.53-1.68c-2,0-3.34,1.42-3.34,3.84c0,2.41,1.26,3.85,3.29,3.85c1.3,0,2.32-0.65,2.75-1.94l1.18,0.44
		C60.88,298.8,59.4,299.76,57.56,299.76z"/>
	<path class="st0" d="M70.26,295.98c0,2.35-1.35,3.77-3.58,3.77s-3.58-1.42-3.58-3.77s1.35-3.77,3.58-3.77
		S70.26,293.63,70.26,295.98z M64.28,295.98c0,1.73,0.9,2.77,2.4,2.77s2.4-1.04,2.4-2.77s-0.9-2.77-2.4-2.77
		S64.28,294.26,64.28,295.98z"/>
	<path class="st0" d="M79.26,295.98c0,2.35-1.35,3.77-3.58,3.77s-3.58-1.42-3.58-3.77s1.35-3.77,3.58-3.77
		S79.26,293.63,79.26,295.98z M73.28,295.98c0,1.73,0.9,2.77,2.4,2.77s2.4-1.04,2.4-2.77s-0.9-2.77-2.4-2.77
		S73.28,294.26,73.28,295.98z"/>
	<path class="st0" d="M82.68,297.67c0,0.74,0.19,0.97,0.8,0.97c0.4,0,0.65-0.04,1.08-0.2l-0.19,1.12c-0.31,0.13-0.71,0.2-1.1,0.2
		c-1.2,0-1.78-0.62-1.78-1.95v-8.79h1.18V297.67z"/>
	<path class="st0" d="M93.22,291.92l-1.02,0.81c-0.59-1.26-1.3-1.76-2.74-1.76c-1.55,0-2.41,0.71-2.41,1.62
		c0,0.9,0.65,1.35,2.71,1.7c2.62,0.44,3.55,1.25,3.55,2.73c0,1.64-1.5,2.73-3.77,2.73c-2.07,0-3.43-0.89-4.11-2.08l1.02-0.81
		c0.52,1.1,1.52,1.8,3.12,1.8c1.51,0,2.52-0.55,2.52-1.58c0-0.83-0.64-1.31-2.69-1.65c-2.63-0.45-3.58-1.23-3.58-2.7
		c0-1.54,1.38-2.84,3.64-2.84C91.24,289.89,92.47,290.59,93.22,291.92z"/>
	<path class="st0" d="M101.77,294.14l-1.12,0.52c-0.31-0.93-0.95-1.44-1.97-1.44c-1.48,0-2.37,1.03-2.37,2.76s0.89,2.76,2.37,2.76
		c1.15,0,1.85-0.54,2.07-1.49l1.1,0.38c-0.5,1.33-1.57,2.13-3.14,2.13c-2.23,0-3.58-1.42-3.58-3.77s1.35-3.77,3.58-3.77
		C100.23,292.21,101.22,292.95,101.77,294.14z"/>
	<path class="st0" d="M110.34,292.36v7.26h-1.04l-0.07-1.1c-0.52,0.87-1.47,1.25-2.65,1.25c-1.47,0-2.72-0.74-2.72-2.66v-4.75h1.18
		v4.44c0,1.5,0.68,1.94,1.75,1.94c1.26,0,2.37-0.73,2.37-2.44v-3.95H110.34z"/>
	<path class="st0" d="M114.22,297.67c0,0.74,0.19,0.97,0.8,0.97c0.4,0,0.65-0.04,1.08-0.2l-0.19,1.12c-0.31,0.13-0.71,0.2-1.1,0.2
		c-1.2,0-1.78-0.62-1.78-1.95v-8.79h1.18V297.67z"/>
	<path class="st0" d="M124.64,295.98c0,2.37-1.32,3.77-3.37,3.77c-1.11,0-2-0.52-2.46-1.28v4.18h-1.18v-10.3h1.04l0.07,1.26
		c0.43-0.83,1.36-1.41,2.53-1.41C123.32,292.21,124.64,293.62,124.64,295.98z M123.46,295.98c0-1.68-0.87-2.76-2.32-2.76
		c-1.41,0-2.32,1.03-2.32,2.67v0.17c0,1.64,0.92,2.67,2.32,2.67C122.58,298.74,123.46,297.67,123.46,295.98z"/>
	<path class="st0" d="M131.35,299.1c-0.46,0.41-1.1,0.65-1.91,0.65c-1.1,0-2.04-0.54-2.06-1.95v-4.45h-1.48v-1h1.48v-1.74l1.18-0.32
		v2.06h2.74v1h-2.74v4.25c0,0.71,0.46,1.06,1.11,1.06c0.53,0,0.92-0.2,1.26-0.54L131.35,299.1z"/>
	<path class="st0" d="M132.72,290.09c0-0.52,0.35-0.87,0.89-0.87c0.53,0,0.89,0.35,0.89,0.87s-0.35,0.87-0.89,0.87
		C133.08,290.96,132.72,290.62,132.72,290.09z M134.2,299.61h-1.18v-7.26h1.18V299.61z"/>
	<path class="st0" d="M143.44,294.97v4.64h-1.18v-4.24c0-1.61-0.8-2.15-1.82-2.15c-1.08,0-2.29,0.67-2.29,2.52v3.86h-1.18v-7.26
		h1.04l0.07,1.13c0.52-0.91,1.47-1.28,2.49-1.28C142.14,292.21,143.44,293.1,143.44,294.97z"/>
	<path class="st0" d="M152.49,300.41c0,1.44-1.66,2.32-3.66,2.32c-2.34,0-3.4-0.83-3.4-1.92c0-0.67,0.49-1.19,1.3-1.41
		c-0.56-0.26-1.01-0.7-1.01-1.33c0-0.75,0.46-1.2,1.11-1.42c-0.71-0.44-1.08-1.15-1.08-1.99c0-1.44,1.26-2.45,3.03-2.45
		c0.56,0,1.07,0.1,1.51,0.29c0.28-1,0.98-1.48,2.09-1.48l0.27,1.02c-0.99,0-1.55,0.28-1.76,0.8c0.59,0.43,0.93,1.07,0.93,1.83
		c0,1.44-1.26,2.45-3.03,2.45c-0.43,0-0.81-0.04-1.14-0.13c-0.59,0.13-0.83,0.42-0.83,0.92c0,0.51,0.4,0.78,0.98,0.78h2.46
		C151.66,298.68,152.49,299.37,152.49,300.41z M151.39,300.54c0-0.52-0.36-0.86-1.47-0.86h-1.98c-0.93,0-1.42,0.35-1.42,0.9
		c0,0.71,0.81,1.17,2.44,1.17C150.53,301.76,151.39,301.18,151.39,300.54z M146.98,294.66c0,0.9,0.78,1.51,1.81,1.51
		c1.02,0,1.81-0.61,1.81-1.51s-0.78-1.51-1.81-1.51C147.77,293.16,146.98,293.76,146.98,294.66z"/>
	<path class="st0" d="M159.37,291.99c0,1.74-1.16,2.88-2.95,2.88c-1.8,0-2.95-1.13-2.95-2.88c0-1.74,1.16-2.87,2.95-2.87
		C158.21,289.12,159.37,290.25,159.37,291.99z M158.76,291.99c0-1.41-0.92-2.32-2.34-2.32s-2.34,0.91-2.34,2.32
		c0,1.41,0.92,2.33,2.34,2.33S158.76,293.4,158.76,291.99z M157.05,292.39l0.85,1.18h-0.66l-0.77-1.13h-0.59v1.13h-0.58v-3.13h1.31
		c0.72,0,1.21,0.38,1.21,1C157.82,291.92,157.52,292.26,157.05,292.39z M155.88,292.01h0.73c0.41,0,0.64-0.19,0.64-0.57
		c0-0.38-0.22-0.57-0.64-0.57h-0.73V292.01z"/>
	<path class="st0" d="M173.08,295.98c0,2.35-1.35,3.77-3.58,3.77c-2.23,0-3.58-1.42-3.58-3.77s1.35-3.77,3.58-3.77
		C171.73,292.21,173.08,293.63,173.08,295.98z M167.1,295.98c0,1.73,0.9,2.77,2.4,2.77c1.5,0,2.4-1.04,2.4-2.77s-0.9-2.77-2.4-2.77
		C168,293.21,167.1,294.26,167.1,295.98z"/>
	<path class="st0" d="M181.86,294.97v4.64h-1.18v-4.24c0-1.61-0.8-2.15-1.82-2.15c-1.08,0-2.29,0.67-2.29,2.52v3.86h-1.18v-7.26
		h1.04l0.07,1.13c0.52-0.91,1.47-1.28,2.49-1.28C180.56,292.21,181.86,293.1,181.86,294.97z"/>
	<path class="st0" d="M22.86,312.24v4.64h-1.18v-4.24c0-1.61-0.8-2.15-1.82-2.15c-1.08,0-2.29,0.68-2.29,2.54v3.85h-1.18v-10.59
		h1.18v4.43c0.52-0.87,1.41-1.23,2.41-1.23C21.56,309.48,22.86,310.37,22.86,312.24z"/>
	<path class="st0" d="M31.83,313.69h-5.58c0.15,1.47,1.05,2.32,2.41,2.32c1.08,0,1.82-0.38,2.09-1.07l0.99,0.51
		c-0.56,0.99-1.48,1.58-3.08,1.58c-2.23,0-3.58-1.42-3.58-3.77s1.26-3.77,3.49-3.77c2.15,0,3.32,1.52,3.32,3.4
		C31.89,313.21,31.86,313.49,31.83,313.69z M26.27,312.66h4.48c-0.16-1.33-0.92-2.16-2.18-2.16
		C27.26,310.5,26.44,311.3,26.27,312.66z"/>
	<path class="st0" d="M38.45,309.63l-0.24,1.13c-0.22-0.12-0.55-0.19-0.93-0.19c-0.89,0-1.95,0.77-1.95,2.39v3.92h-1.18v-7.26h0.96
		l0.16,1.19c0.41-0.89,1.21-1.33,2.37-1.33C37.89,309.48,38.23,309.51,38.45,309.63z"/>
	<path class="st0" d="M51.55,315.97l-0.07,0.91c-0.21,0.07-0.52,0.15-0.89,0.15c-0.73,0-1.2-0.26-1.33-1.07
		c-0.47,0.68-1.44,1.07-2.38,1.07c-1.39,0-2.52-0.64-2.52-1.95c0-1.09,0.98-1.94,2.89-2.26l1.97-0.32v-0.41
		c0-0.96-0.62-1.6-1.73-1.6c-0.98,0-1.72,0.46-2.12,1.38l-0.87-0.62c0.38-1.07,1.55-1.77,2.99-1.77c1.69,0,2.92,0.78,2.92,2.47v3.57
		c0,0.35,0.15,0.52,0.56,0.52C51.15,316.04,51.37,316.01,51.55,315.97z M49.21,314.45v-1l-1.66,0.3c-1.3,0.23-1.97,0.65-1.97,1.33
		c0,0.61,0.5,0.93,1.35,0.93C48.12,316.01,49.21,315.4,49.21,314.45z"/>
	<path class="st0" d="M60.28,313.26c0,2.37-1.32,3.77-3.37,3.77c-1.17,0-2.1-0.58-2.53-1.41l-0.07,1.26h-1.04v-10.59h1.18v4.47
		c0.46-0.75,1.35-1.28,2.46-1.28C58.97,309.48,60.28,310.89,60.28,313.26z M59.1,313.26c0-1.68-0.87-2.76-2.32-2.76
		c-1.41,0-2.32,1.03-2.32,2.67v0.17c0,1.64,0.92,2.67,2.32,2.67C58.23,316.01,59.1,314.94,59.1,313.26z"/>
	<path class="st0" d="M69.17,306.29v10.59h-1.04l-0.07-1.26c-0.43,0.83-1.36,1.41-2.53,1.41c-2.06,0-3.37-1.41-3.37-3.77
		s1.32-3.77,3.37-3.77c1.11,0,2,0.52,2.46,1.28v-4.47H69.17z M67.98,313.34v-0.17c0-1.64-0.92-2.67-2.32-2.67
		c-1.45,0-2.32,1.07-2.32,2.76s0.87,2.76,2.32,2.76C67.07,316.01,67.98,314.98,67.98,313.34z"/>
	<path class="st0" d="M78.63,313.26c0,2.35-1.35,3.77-3.58,3.77s-3.58-1.42-3.58-3.77s1.35-3.77,3.58-3.77
		S78.63,310.91,78.63,313.26z M72.65,313.26c0,1.73,0.9,2.77,2.4,2.77s2.4-1.04,2.4-2.77s-0.9-2.77-2.4-2.77
		S72.65,311.53,72.65,313.26z"/>
	<path class="st0" d="M92.35,312.24v4.64h-1.18v-4.53c0-1.32-0.77-1.86-1.75-1.86c-1.15,0-2.19,0.86-2.19,2.41v3.98h-1.18v-4.53
		c0-1.32-0.77-1.86-1.75-1.86c-0.98,0-2.19,0.71-2.19,2.51v3.87h-1.18v-7.26h1.04l0.07,1.13c0.53-0.88,1.45-1.28,2.37-1.28
		c1.04,0,2.06,0.45,2.55,1.42c0.46-0.99,1.64-1.42,2.58-1.42C90.94,309.48,92.35,310.33,92.35,312.24z"/>
	<path class="st0" d="M101.32,313.69h-5.58c0.15,1.47,1.05,2.32,2.41,2.32c1.08,0,1.82-0.38,2.09-1.07l0.99,0.51
		c-0.56,0.99-1.48,1.58-3.08,1.58c-2.23,0-3.58-1.42-3.58-3.77s1.26-3.77,3.49-3.77c2.15,0,3.32,1.52,3.32,3.4
		C101.38,313.21,101.35,313.49,101.32,313.69z M95.76,312.66h4.48c-0.16-1.33-0.92-2.16-2.18-2.16
		C96.75,310.5,95.93,311.3,95.76,312.66z"/>
	<path class="st0" d="M110.12,312.24v4.64h-1.18v-4.24c0-1.61-0.8-2.15-1.82-2.15c-1.08,0-2.29,0.67-2.29,2.52v3.86h-1.18v-7.26
		h1.04l0.07,1.13c0.52-0.91,1.47-1.28,2.49-1.28C108.81,309.48,110.12,310.37,110.12,312.24z"/>
	<path class="st0" d="M114.35,316.09c0,0.57-0.38,0.94-0.96,0.94c-0.58,0-0.96-0.38-0.96-0.94c0-0.57,0.38-0.94,0.96-0.94
		C113.97,315.14,114.35,315.52,114.35,316.09z"/>
	<path class="st0" d="M125.53,312.91h-2.34v3.98h-1.18v-9.58h3.7c1.98,0,3.3,1.07,3.3,2.8c0,1.36-0.83,2.32-2.16,2.67l2.75,4.11
		h-1.41L125.53,312.91z M123.19,311.82h2.5c1.39,0,2.07-0.57,2.07-1.71s-0.68-1.71-2.07-1.71h-2.5V311.82z"/>
	<path class="st0" d="M137.67,313.69h-5.58c0.15,1.47,1.05,2.32,2.41,2.32c1.08,0,1.82-0.38,2.09-1.07l0.99,0.51
		c-0.56,0.99-1.48,1.58-3.08,1.58c-2.23,0-3.58-1.42-3.58-3.77s1.26-3.77,3.49-3.77c2.15,0,3.32,1.52,3.32,3.4
		C137.73,313.21,137.7,313.49,137.67,313.69z M132.1,312.66h4.48c-0.16-1.33-0.92-2.16-2.18-2.16
		C133.09,310.5,132.28,311.3,132.1,312.66z"/>
	<path class="st0" d="M139.31,315.39l0.96-0.65c0.36,0.88,1.27,1.28,2.34,1.28c1.21,0,1.79-0.48,1.79-1.07
		c0-0.54-0.46-0.86-1.94-1.12c-2.1-0.38-2.87-0.94-2.87-2.16c0-1.18,1.11-2.18,2.92-2.18c1.58,0,2.52,0.55,2.93,1.74l-1.01,0.58
		c-0.33-0.96-0.99-1.31-1.92-1.31c-0.99,0-1.73,0.52-1.73,1.06c0,0.62,0.49,0.94,2,1.19c2.07,0.33,2.81,0.94,2.81,2.13
		c0,1.26-1.2,2.15-3.09,2.15C141.13,317.03,139.87,316.51,139.31,315.39z"/>
	<path class="st0" d="M154.19,309.63v7.26h-1.04l-0.07-1.1c-0.52,0.87-1.46,1.25-2.65,1.25c-1.47,0-2.72-0.74-2.72-2.66v-4.75h1.18
		v4.44c0,1.5,0.68,1.94,1.75,1.94c1.26,0,2.37-0.73,2.37-2.44v-3.95H154.19z"/>
	<path class="st0" d="M158.07,314.94c0,0.74,0.19,0.97,0.8,0.97c0.4,0,0.65-0.04,1.08-0.2l-0.19,1.12c-0.31,0.13-0.71,0.2-1.09,0.2
		c-1.2,0-1.78-0.62-1.78-1.95v-8.79h1.18V314.94z"/>
	<path class="st0" d="M165.71,316.38c-0.46,0.41-1.09,0.65-1.91,0.65c-1.09,0-2.04-0.54-2.06-1.95v-4.45h-1.48v-1h1.48v-1.74
		l1.18-0.32v2.06h2.74v1h-2.74v4.25c0,0.71,0.46,1.06,1.11,1.06c0.53,0,0.92-0.2,1.26-0.54L165.71,316.38z"/>
	<path class="st0" d="M166.71,315.39l0.96-0.65c0.35,0.88,1.27,1.28,2.34,1.28c1.21,0,1.79-0.48,1.79-1.07
		c0-0.54-0.46-0.86-1.94-1.12c-2.1-0.38-2.87-0.94-2.87-2.16c0-1.18,1.11-2.18,2.92-2.18c1.58,0,2.52,0.55,2.93,1.74l-1.01,0.58
		c-0.33-0.96-0.99-1.31-1.92-1.31c-0.99,0-1.73,0.52-1.73,1.06c0,0.62,0.49,0.94,2,1.19c2.07,0.33,2.81,0.94,2.81,2.13
		c0,1.26-1.2,2.15-3.09,2.15C168.54,317.03,167.28,316.51,166.71,315.39z"/>
	<path class="st0" d="M27.8,329.51v4.64h-1.18v-4.53c0-1.32-0.77-1.86-1.75-1.86c-1.15,0-2.19,0.86-2.19,2.41v3.98H21.5v-4.53
		c0-1.32-0.77-1.86-1.75-1.86c-0.98,0-2.19,0.71-2.19,2.51v3.87h-1.18v-7.26h1.04l0.07,1.13c0.53-0.88,1.45-1.28,2.37-1.28
		c1.04,0,2.06,0.45,2.55,1.42c0.46-0.99,1.64-1.42,2.58-1.42C26.4,326.76,27.8,327.6,27.8,329.51z"/>
	<path class="st0" d="M37.15,333.24l-0.07,0.91c-0.21,0.07-0.52,0.15-0.89,0.15c-0.73,0-1.2-0.26-1.33-1.07
		c-0.47,0.68-1.44,1.07-2.38,1.07c-1.39,0-2.52-0.64-2.52-1.95c0-1.09,0.98-1.94,2.89-2.26l1.97-0.32v-0.41
		c0-0.96-0.62-1.6-1.73-1.6c-0.98,0-1.72,0.46-2.12,1.38l-0.87-0.62c0.38-1.07,1.55-1.77,2.99-1.77c1.69,0,2.92,0.78,2.92,2.47v3.57
		c0,0.35,0.15,0.52,0.56,0.52C36.75,333.31,36.97,333.29,37.15,333.24z M34.81,331.72v-1l-1.66,0.3c-1.3,0.23-1.97,0.65-1.97,1.33
		c0,0.61,0.5,0.93,1.35,0.93C33.71,333.29,34.81,332.68,34.81,331.72z"/>
	<path class="st0" d="M41.25,335.38c-0.58,1.42-1.24,1.9-2.34,1.9c-0.74,0-1.21-0.17-1.63-0.61l0.41-0.99
		c0.34,0.46,0.78,0.58,1.2,0.58c0.52,0,0.98-0.22,1.35-1.18l0.38-0.94l-3.09-7.24h1.35l1.85,4.73l0.46,1.29l0.53-1.44l1.73-4.59
		h1.27L41.25,335.38z"/>
	<path class="st0" d="M56.81,326.9l-3.08,7.26h-1.18l-3.08-7.26h1.35l2.34,6.08l2.41-6.08H56.81z"/>
	<path class="st0" d="M64.83,333.24l-0.07,0.91c-0.21,0.07-0.52,0.15-0.89,0.15c-0.73,0-1.2-0.26-1.33-1.07
		c-0.47,0.68-1.44,1.07-2.38,1.07c-1.39,0-2.52-0.64-2.52-1.95c0-1.09,0.98-1.94,2.89-2.26l1.97-0.32v-0.41
		c0-0.96-0.62-1.6-1.73-1.6c-0.98,0-1.72,0.46-2.12,1.38l-0.87-0.62c0.38-1.07,1.55-1.77,2.99-1.77c1.69,0,2.92,0.78,2.92,2.47v3.57
		c0,0.35,0.15,0.52,0.56,0.52C64.43,333.31,64.65,333.29,64.83,333.24z M62.49,331.72v-1l-1.66,0.3c-1.3,0.23-1.97,0.65-1.97,1.33
		c0,0.61,0.5,0.93,1.35,0.93C61.4,333.29,62.49,332.68,62.49,331.72z"/>
	<path class="st0" d="M70.86,326.9l-0.24,1.13c-0.22-0.12-0.55-0.19-0.93-0.19c-0.89,0-1.95,0.77-1.95,2.39v3.92h-1.18v-7.26h0.96
		l0.16,1.19c0.41-0.89,1.21-1.33,2.37-1.33C70.29,326.76,70.63,326.78,70.86,326.9z"/>
	<path class="st0" d="M75.4,335.38c-0.58,1.42-1.24,1.9-2.34,1.9c-0.74,0-1.21-0.17-1.63-0.61l0.41-0.99
		c0.34,0.46,0.78,0.58,1.2,0.58c0.52,0,0.98-0.22,1.35-1.18l0.38-0.94l-3.09-7.24h1.35l1.85,4.73l0.46,1.29l0.53-1.44l1.73-4.59
		h1.27L75.4,335.38z"/>
	<path class="st0" d="M80.97,333.36c0,0.57-0.38,0.94-0.96,0.94c-0.58,0-0.96-0.38-0.96-0.94c0-0.57,0.38-0.94,0.96-0.94
		C80.58,332.42,80.97,332.79,80.97,333.36z"/>
</g>
</svg>
