<?xml version="1.0" encoding="utf-8"?>
<!-- Generator: Adobe Illustrator 25.4.1, SVG Export Plug-In . SVG Version: 6.00 Build 0)  -->
<svg version="1.1" id="Layer_1" xmlns="http://www.w3.org/2000/svg" xmlns:xlink="http://www.w3.org/1999/xlink" x="0px" y="0px"
	 viewBox="0 0 300 600" style="enable-background:new 0 0 300 600;" xml:space="preserve">
<style type="text/css">
	.st0{fill:#FFFFFF;}
</style>
<g>
	<path class="st0" d="M19.31,277.45h-2.69l-0.63,1.61h-0.75l2.31-5.82h0.85l2.3,5.82h-0.76L19.31,277.45z M19.04,276.79l-0.8-2.06
		l-0.28-0.81h-0.02l-0.26,0.79l-0.81,2.09H19.04z"/>
	<path class="st0" d="M22.45,277.88c0,0.45,0.12,0.59,0.49,0.59c0.24,0,0.4-0.03,0.66-0.12l-0.12,0.68
		c-0.19,0.08-0.43,0.12-0.67,0.12c-0.73,0-1.08-0.38-1.08-1.18v-5.34h0.72V277.88z"/>
	<path class="st0" d="M25.21,277.88c0,0.45,0.12,0.59,0.49,0.59c0.24,0,0.4-0.03,0.66-0.12l-0.12,0.68
		c-0.19,0.08-0.43,0.12-0.67,0.12c-0.73,0-1.08-0.38-1.08-1.18v-5.34h0.72V277.88z"/>
	<path class="st0" d="M31.09,277.13h-3.39c0.09,0.89,0.64,1.41,1.46,1.41c0.66,0,1.11-0.23,1.27-0.65l0.6,0.31
		c-0.34,0.6-0.9,0.96-1.87,0.96c-1.36,0-2.17-0.86-2.17-2.29c0-1.43,0.76-2.29,2.12-2.29c1.3,0,2.01,0.93,2.01,2.06
		C31.13,276.83,31.11,277,31.09,277.13z M27.72,276.5h2.72c-0.1-0.81-0.56-1.31-1.32-1.31C28.32,275.19,27.82,275.67,27.72,276.5z"
		/>
	<path class="st0" d="M35.11,279.07l-1.24-1.7l-1.28,1.7h-0.84l1.73-2.22l-1.62-2.19h0.9l1.19,1.63l1.17-1.63h0.84l-1.63,2.16
		l1.65,2.25H35.11z"/>
	<path class="st0" d="M41.07,278.51l-0.04,0.56c-0.13,0.04-0.31,0.09-0.54,0.09c-0.44,0-0.73-0.16-0.81-0.65
		c-0.29,0.41-0.87,0.65-1.45,0.65c-0.84,0-1.53-0.39-1.53-1.18c0-0.66,0.59-1.18,1.75-1.38l1.2-0.19v-0.25
		c0-0.58-0.38-0.97-1.05-0.97c-0.59,0-1.04,0.28-1.29,0.84l-0.53-0.38c0.23-0.65,0.94-1.08,1.82-1.08c1.02,0,1.77,0.48,1.77,1.5
		v2.17c0,0.21,0.09,0.32,0.34,0.32C40.82,278.55,40.96,278.54,41.07,278.51z M39.65,277.58v-0.61l-1.01,0.19
		c-0.79,0.14-1.2,0.4-1.2,0.81c0,0.37,0.31,0.56,0.82,0.56C38.98,278.54,39.65,278.17,39.65,277.58z"/>
	<path class="st0" d="M51.3,274.66l-1.56,4.41h-0.72l-1.27-3.51l-1.2,3.51h-0.72l-1.56-4.41h0.8l1.13,3.59l1.22-3.59h0.72l1.22,3.59
		l1.13-3.59H51.3z"/>
	<path class="st0" d="M56.42,278.51l-0.04,0.56c-0.13,0.04-0.31,0.09-0.54,0.09c-0.44,0-0.73-0.16-0.81-0.65
		c-0.29,0.41-0.87,0.65-1.45,0.65c-0.84,0-1.53-0.39-1.53-1.18c0-0.66,0.59-1.18,1.75-1.38l1.2-0.19v-0.25
		c0-0.58-0.38-0.97-1.05-0.97c-0.59,0-1.04,0.28-1.29,0.84l-0.53-0.38c0.23-0.65,0.94-1.08,1.82-1.08c1.02,0,1.77,0.48,1.77,1.5
		v2.17c0,0.21,0.09,0.32,0.34,0.32C56.18,278.55,56.31,278.54,56.42,278.51z M55,277.58v-0.61l-1.01,0.19
		c-0.79,0.14-1.2,0.4-1.2,0.81c0,0.37,0.31,0.56,0.82,0.56C54.33,278.54,55,278.17,55,277.58z"/>
	<path class="st0" d="M57.06,278.16l0.58-0.4c0.22,0.54,0.77,0.78,1.42,0.78c0.74,0,1.09-0.29,1.09-0.65c0-0.33-0.28-0.52-1.18-0.68
		c-1.28-0.23-1.74-0.57-1.74-1.31c0-0.71,0.67-1.32,1.77-1.32c0.96,0,1.53,0.34,1.78,1.06l-0.61,0.35c-0.2-0.58-0.6-0.79-1.17-0.79
		c-0.6,0-1.05,0.32-1.05,0.64c0,0.38,0.3,0.57,1.21,0.72c1.26,0.2,1.71,0.57,1.71,1.3c0,0.77-0.73,1.31-1.88,1.31
		C58.16,279.15,57.4,278.84,57.06,278.16z"/>
	<path class="st0" d="M67.84,278.76c-0.28,0.25-0.67,0.4-1.16,0.4c-0.67,0-1.24-0.33-1.25-1.18v-2.71h-0.9v-0.61h0.9v-1.06
		l0.72-0.19v1.25h1.66v0.61h-1.66v2.58c0,0.43,0.28,0.64,0.67,0.64c0.32,0,0.56-0.12,0.76-0.33L67.84,278.76z"/>
	<path class="st0" d="M71.47,274.66l-0.14,0.69c-0.14-0.07-0.33-0.11-0.57-0.11c-0.54,0-1.19,0.47-1.19,1.46v2.38h-0.72v-4.41h0.58
		l0.1,0.72c0.25-0.54,0.74-0.81,1.44-0.81C71.13,274.57,71.34,274.59,71.47,274.66z"/>
	<path class="st0" d="M76.2,277.13h-3.39c0.09,0.89,0.64,1.41,1.46,1.41c0.66,0,1.11-0.23,1.27-0.65l0.6,0.31
		c-0.34,0.6-0.9,0.96-1.87,0.96c-1.36,0-2.17-0.86-2.17-2.29c0-1.43,0.76-2.29,2.12-2.29c1.3,0,2.01,0.93,2.01,2.06
		C76.24,276.83,76.22,277,76.2,277.13z M72.82,276.5h2.72c-0.1-0.81-0.56-1.31-1.32-1.31C73.42,275.19,72.93,275.67,72.82,276.5z"/>
	<path class="st0" d="M81.65,278.51l-0.04,0.56c-0.13,0.04-0.31,0.09-0.54,0.09c-0.44,0-0.73-0.16-0.81-0.65
		c-0.29,0.41-0.87,0.65-1.45,0.65c-0.84,0-1.53-0.39-1.53-1.18c0-0.66,0.59-1.18,1.75-1.38l1.2-0.19v-0.25
		c0-0.58-0.38-0.97-1.05-0.97c-0.59,0-1.04,0.28-1.29,0.84l-0.53-0.38c0.23-0.65,0.94-1.08,1.82-1.08c1.02,0,1.77,0.48,1.77,1.5
		v2.17c0,0.21,0.09,0.32,0.34,0.32C81.41,278.55,81.54,278.54,81.65,278.51z M80.23,277.58v-0.61l-1.01,0.19
		c-0.79,0.14-1.2,0.4-1.2,0.81c0,0.37,0.31,0.56,0.82,0.56C79.57,278.54,80.23,278.17,80.23,277.58z"/>
	<path class="st0" d="M85.27,278.76c-0.28,0.25-0.67,0.4-1.16,0.4c-0.67,0-1.24-0.33-1.25-1.18v-2.71h-0.9v-0.61h0.9v-1.06
		l0.72-0.19v1.25h1.66v0.61h-1.66v2.58c0,0.43,0.28,0.64,0.67,0.64c0.32,0,0.56-0.12,0.76-0.33L85.27,278.76z"/>
	<path class="st0" d="M90.1,277.13h-3.39c0.09,0.89,0.64,1.41,1.47,1.41c0.66,0,1.1-0.23,1.27-0.65l0.6,0.31
		c-0.34,0.6-0.9,0.96-1.87,0.96c-1.36,0-2.18-0.86-2.18-2.29c0-1.43,0.76-2.29,2.12-2.29c1.3,0,2.01,0.93,2.01,2.06
		C90.14,276.83,90.12,277,90.1,277.13z M86.73,276.5h2.72c-0.1-0.81-0.56-1.31-1.32-1.31C87.33,275.19,86.83,275.67,86.73,276.5z"/>
	<path class="st0" d="M95.5,272.63v6.44h-0.63l-0.04-0.77c-0.26,0.5-0.83,0.86-1.54,0.86c-1.25,0-2.05-0.86-2.05-2.29
		c0-1.44,0.8-2.29,2.05-2.29c0.67,0,1.21,0.32,1.49,0.78v-2.72H95.5z M94.78,276.91v-0.11c0-1-0.56-1.62-1.41-1.62
		c-0.88,0-1.41,0.65-1.41,1.68c0,1.02,0.53,1.68,1.41,1.68C94.22,278.54,94.78,277.91,94.78,276.91z"/>
	<path class="st0" d="M22.36,285.15l-1.56,4.41h-0.72l-1.27-3.51l-1.2,3.51H16.9l-1.56-4.41h0.8l1.13,3.59l1.22-3.59h0.72l1.22,3.59
		l1.13-3.59H22.36z"/>
	<path class="st0" d="M23.35,283.77c0-0.32,0.22-0.53,0.54-0.53s0.54,0.21,0.54,0.53s-0.22,0.53-0.54,0.53
		S23.35,284.09,23.35,283.77z M24.25,289.56h-0.72v-4.41h0.72V289.56z"/>
	<path class="st0" d="M28.68,289.25c-0.28,0.25-0.67,0.4-1.16,0.4c-0.67,0-1.24-0.33-1.25-1.18v-2.71h-0.9v-0.61h0.9v-1.06
		l0.72-0.19v1.25h1.66v0.61h-1.66v2.58c0,0.43,0.28,0.64,0.67,0.64c0.32,0,0.56-0.12,0.76-0.33L28.68,289.25z"/>
	<path class="st0" d="M33.63,286.74v2.82h-0.72v-2.58c0-0.98-0.49-1.31-1.11-1.31c-0.66,0-1.39,0.41-1.39,1.54v2.34h-0.72v-6.44
		h0.72v2.69c0.31-0.53,0.85-0.75,1.47-0.75C32.84,285.06,33.63,285.6,33.63,286.74z"/>
	<path class="st0" d="M40.85,289.65c-1.69,0-2.75-1.16-2.75-3s1.08-3,2.73-3c1.15,0,1.92,0.48,2.3,1.36l-0.71,0.33
		c-0.26-0.67-0.75-1.02-1.54-1.02c-1.21,0-2.03,0.86-2.03,2.34c0,1.46,0.76,2.34,2,2.34c0.79,0,1.41-0.4,1.67-1.18l0.72,0.26
		C42.87,289.06,41.97,289.65,40.85,289.65z"/>
	<path class="st0" d="M48.57,287.35c0,1.43-0.82,2.29-2.18,2.29c-1.36,0-2.17-0.86-2.17-2.29s0.82-2.29,2.17-2.29
		C47.75,285.06,48.57,285.92,48.57,287.35z M44.94,287.35c0,1.05,0.55,1.68,1.46,1.68c0.91,0,1.46-0.63,1.46-1.68
		c0-1.05-0.55-1.68-1.46-1.68C45.48,285.67,44.94,286.3,44.94,287.35z"/>
	<path class="st0" d="M54.03,287.35c0,1.43-0.82,2.29-2.18,2.29c-1.36,0-2.17-0.86-2.17-2.29s0.82-2.29,2.17-2.29
		C53.22,285.06,54.03,285.92,54.03,287.35z M50.4,287.35c0,1.05,0.55,1.68,1.46,1.68c0.91,0,1.46-0.63,1.46-1.68
		c0-1.05-0.55-1.68-1.46-1.68C50.95,285.67,50.4,286.3,50.4,287.35z"/>
	<path class="st0" d="M56.11,288.38c0,0.45,0.12,0.59,0.49,0.59c0.24,0,0.4-0.03,0.66-0.12l-0.12,0.68
		c-0.19,0.08-0.43,0.12-0.67,0.12c-0.73,0-1.08-0.38-1.08-1.18v-5.34h0.72V288.38z"/>
	<path class="st0" d="M62.52,284.88l-0.62,0.49c-0.36-0.77-0.79-1.07-1.66-1.07c-0.94,0-1.46,0.43-1.46,0.99
		c0,0.55,0.4,0.82,1.65,1.03c1.59,0.26,2.16,0.76,2.16,1.66c0,1-0.91,1.66-2.29,1.66c-1.26,0-2.08-0.54-2.5-1.26l0.62-0.49
		c0.31,0.67,0.93,1.09,1.9,1.09c0.92,0,1.53-0.33,1.53-0.96c0-0.5-0.39-0.79-1.64-1.01c-1.6-0.27-2.17-0.75-2.17-1.64
		c0-0.93,0.84-1.73,2.21-1.73C61.31,283.65,62.06,284.07,62.52,284.88z"/>
	<path class="st0" d="M67.7,286.23l-0.68,0.32c-0.19-0.56-0.58-0.87-1.2-0.87c-0.9,0-1.44,0.63-1.44,1.68
		c0,1.05,0.54,1.68,1.44,1.68c0.7,0,1.12-0.33,1.26-0.91l0.67,0.23c-0.31,0.81-0.95,1.3-1.91,1.3c-1.36,0-2.18-0.86-2.18-2.29
		s0.82-2.29,2.18-2.29C66.77,285.06,67.37,285.51,67.7,286.23z"/>
	<path class="st0" d="M72.91,285.15v4.41h-0.63l-0.04-0.67c-0.31,0.53-0.89,0.76-1.61,0.76c-0.89,0-1.65-0.45-1.65-1.61v-2.88h0.72
		v2.7c0,0.91,0.41,1.18,1.06,1.18c0.76,0,1.44-0.44,1.44-1.48v-2.4H72.91z"/>
	<path class="st0" d="M75.27,288.38c0,0.45,0.12,0.59,0.49,0.59c0.24,0,0.4-0.03,0.66-0.12l-0.12,0.68
		c-0.19,0.08-0.43,0.12-0.67,0.12c-0.73,0-1.08-0.38-1.08-1.18v-5.34h0.72V288.38z"/>
	<path class="st0" d="M81.6,287.35c0,1.44-0.8,2.29-2.05,2.29c-0.67,0-1.21-0.32-1.49-0.78v2.54h-0.72v-6.26h0.63l0.04,0.77
		c0.26-0.5,0.83-0.86,1.54-0.86C80.8,285.06,81.6,285.92,81.6,287.35z M80.88,287.35c0-1.02-0.53-1.68-1.41-1.68
		c-0.85,0-1.41,0.63-1.41,1.62v0.11c0,1,0.56,1.62,1.41,1.62C80.35,289.03,80.88,288.38,80.88,287.35z"/>
	<path class="st0" d="M85.67,289.25c-0.28,0.25-0.67,0.4-1.16,0.4c-0.67,0-1.24-0.33-1.25-1.18v-2.71h-0.9v-0.61h0.9v-1.06
		l0.72-0.19v1.25h1.66v0.61h-1.66v2.58c0,0.43,0.28,0.64,0.67,0.64c0.32,0,0.56-0.12,0.76-0.33L85.67,289.25z"/>
	<path class="st0" d="M86.51,283.77c0-0.32,0.22-0.53,0.54-0.53s0.54,0.21,0.54,0.53s-0.22,0.53-0.54,0.53
		S86.51,284.09,86.51,283.77z M87.41,289.56h-0.72v-4.41h0.72V289.56z"/>
	<path class="st0" d="M93.02,286.74v2.82H92.3v-2.58c0-0.98-0.49-1.31-1.11-1.31c-0.66,0-1.39,0.41-1.39,1.53v2.35h-0.72v-4.41h0.63
		l0.04,0.69c0.31-0.56,0.89-0.78,1.51-0.78C92.23,285.06,93.02,285.6,93.02,286.74z"/>
	<path class="st0" d="M98.51,290.04c0,0.87-1.01,1.41-2.22,1.41c-1.42,0-2.07-0.5-2.07-1.16c0-0.41,0.3-0.72,0.79-0.86
		c-0.34-0.16-0.61-0.42-0.61-0.81c0-0.46,0.28-0.73,0.67-0.86c-0.43-0.26-0.66-0.7-0.66-1.21c0-0.87,0.76-1.49,1.84-1.49
		c0.34,0,0.65,0.06,0.92,0.18c0.17-0.61,0.59-0.9,1.27-0.9l0.16,0.62c-0.6,0-0.94,0.17-1.07,0.49c0.36,0.26,0.57,0.65,0.57,1.11
		c0,0.87-0.76,1.49-1.84,1.49c-0.26,0-0.49-0.03-0.69-0.08c-0.36,0.08-0.5,0.26-0.5,0.56c0,0.31,0.24,0.48,0.59,0.48h1.49
		C98.01,288.99,98.51,289.41,98.51,290.04z M97.85,290.12c0-0.32-0.22-0.52-0.89-0.52h-1.2c-0.57,0-0.86,0.21-0.86,0.55
		c0,0.43,0.49,0.71,1.48,0.71C97.33,290.86,97.85,290.51,97.85,290.12z M95.17,286.55c0,0.55,0.48,0.92,1.1,0.92s1.1-0.37,1.1-0.92
		s-0.48-0.92-1.1-0.92S95.17,286,95.17,286.55z"/>
	<path class="st0" d="M102.7,284.93c0,1.06-0.7,1.75-1.79,1.75s-1.8-0.69-1.8-1.75c0-1.06,0.7-1.75,1.8-1.75
		S102.7,283.87,102.7,284.93z M102.32,284.93c0-0.86-0.56-1.41-1.42-1.41c-0.87,0-1.42,0.56-1.42,1.41c0,0.86,0.56,1.41,1.42,1.41
		C101.77,286.34,102.32,285.78,102.32,284.93z M101.29,285.17l0.51,0.72h-0.4l-0.47-0.69h-0.36v0.69h-0.35v-1.9h0.8
		c0.44,0,0.73,0.23,0.73,0.61C101.76,284.88,101.57,285.09,101.29,285.17z M100.58,284.94h0.44c0.25,0,0.39-0.11,0.39-0.34
		s-0.14-0.34-0.39-0.34h-0.44V284.94z"/>
	<path class="st0" d="M111.02,287.35c0,1.43-0.82,2.29-2.18,2.29c-1.36,0-2.17-0.86-2.17-2.29s0.82-2.29,2.17-2.29
		C110.21,285.06,111.02,285.92,111.02,287.35z M107.39,287.35c0,1.05,0.55,1.68,1.46,1.68c0.91,0,1.46-0.63,1.46-1.68
		c0-1.05-0.55-1.68-1.46-1.68C107.94,285.67,107.39,286.3,107.39,287.35z"/>
	<path class="st0" d="M116.36,286.74v2.82h-0.72v-2.58c0-0.98-0.49-1.31-1.11-1.31c-0.66,0-1.39,0.41-1.39,1.53v2.35h-0.72v-4.41
		h0.63l0.04,0.69c0.31-0.56,0.89-0.78,1.51-0.78C115.56,285.06,116.36,285.6,116.36,286.74z"/>
	<path class="st0" d="M19.77,297.23v2.82h-0.72v-2.58c0-0.98-0.49-1.31-1.11-1.31c-0.66,0-1.39,0.41-1.39,1.54v2.34h-0.72v-6.44
		h0.72v2.69c0.31-0.53,0.85-0.75,1.46-0.75C18.98,295.55,19.77,296.09,19.77,297.23z"/>
	<path class="st0" d="M25.22,298.11h-3.39c0.09,0.89,0.64,1.41,1.47,1.41c0.66,0,1.1-0.23,1.27-0.65l0.6,0.31
		c-0.34,0.6-0.9,0.96-1.87,0.96c-1.36,0-2.18-0.86-2.18-2.29c0-1.43,0.76-2.29,2.12-2.29c1.3,0,2.01,0.93,2.01,2.06
		C25.26,297.82,25.24,297.99,25.22,298.11z M21.84,297.48h2.72c-0.1-0.81-0.56-1.31-1.32-1.31
		C22.44,296.17,21.95,296.65,21.84,297.48z"/>
	<path class="st0" d="M29.24,295.64l-0.14,0.69c-0.14-0.07-0.33-0.11-0.57-0.11c-0.54,0-1.19,0.47-1.19,1.46v2.38h-0.72v-4.41h0.58
		l0.1,0.72c0.25-0.54,0.74-0.81,1.44-0.81C28.9,295.55,29.11,295.57,29.24,295.64z"/>
	<path class="st0" d="M37.2,299.49l-0.04,0.56c-0.13,0.04-0.31,0.09-0.54,0.09c-0.44,0-0.73-0.16-0.81-0.65
		c-0.29,0.41-0.87,0.65-1.45,0.65c-0.84,0-1.53-0.39-1.53-1.18c0-0.66,0.59-1.18,1.75-1.38l1.2-0.19v-0.25
		c0-0.58-0.38-0.97-1.05-0.97c-0.59,0-1.04,0.28-1.29,0.84l-0.53-0.38c0.23-0.65,0.94-1.08,1.82-1.08c1.02,0,1.77,0.48,1.77,1.5
		v2.17c0,0.21,0.09,0.32,0.34,0.32C36.96,299.54,37.09,299.52,37.2,299.49z M35.78,298.57v-0.61l-1.01,0.19
		c-0.79,0.14-1.2,0.4-1.2,0.81c0,0.37,0.31,0.56,0.82,0.56C35.11,299.52,35.78,299.15,35.78,298.57z"/>
	<path class="st0" d="M42.5,297.84c0,1.44-0.8,2.29-2.05,2.29c-0.71,0-1.28-0.35-1.54-0.86l-0.04,0.77h-0.63v-6.44h0.72v2.72
		c0.28-0.46,0.82-0.78,1.49-0.78C41.71,295.55,42.5,296.41,42.5,297.84z M41.79,297.84c0-1.02-0.53-1.68-1.41-1.68
		c-0.85,0-1.41,0.63-1.41,1.62v0.11c0,1,0.56,1.62,1.41,1.62C41.26,299.52,41.79,298.87,41.79,297.84z"/>
	<path class="st0" d="M47.9,293.61v6.44h-0.63l-0.04-0.77c-0.26,0.5-0.83,0.86-1.54,0.86c-1.25,0-2.05-0.86-2.05-2.29
		c0-1.44,0.8-2.29,2.05-2.29c0.67,0,1.21,0.32,1.49,0.78v-2.72H47.9z M47.18,297.9v-0.11c0-1-0.56-1.62-1.41-1.62
		c-0.88,0-1.41,0.65-1.41,1.68c0,1.02,0.53,1.68,1.41,1.68C46.62,299.52,47.18,298.89,47.18,297.9z"/>
	<path class="st0" d="M53.65,297.84c0,1.43-0.82,2.29-2.17,2.29c-1.36,0-2.18-0.86-2.18-2.29c0-1.43,0.82-2.29,2.18-2.29
		C52.83,295.55,53.65,296.42,53.65,297.84z M50.02,297.84c0,1.05,0.55,1.68,1.46,1.68c0.91,0,1.46-0.63,1.46-1.68
		c0-1.05-0.55-1.68-1.46-1.68C50.56,296.16,50.02,296.79,50.02,297.84z"/>
	<path class="st0" d="M61.98,297.23v2.82h-0.72v-2.75c0-0.8-0.47-1.13-1.06-1.13c-0.7,0-1.33,0.52-1.33,1.46v2.42h-0.72v-2.75
		c0-0.8-0.47-1.13-1.06-1.13c-0.59,0-1.33,0.43-1.33,1.53v2.35h-0.72v-4.41h0.63l0.04,0.69c0.32-0.54,0.88-0.78,1.44-0.78
		c0.63,0,1.25,0.27,1.55,0.86c0.28-0.6,1-0.86,1.56-0.86C61.13,295.55,61.98,296.06,61.98,297.23z"/>
	<path class="st0" d="M67.43,298.11h-3.39c0.09,0.89,0.64,1.41,1.47,1.41c0.66,0,1.1-0.23,1.27-0.65l0.6,0.31
		c-0.34,0.6-0.9,0.96-1.87,0.96c-1.36,0-2.18-0.86-2.18-2.29c0-1.43,0.76-2.29,2.12-2.29c1.3,0,2.01,0.93,2.01,2.06
		C67.47,297.82,67.45,297.99,67.43,298.11z M64.05,297.48h2.72c-0.1-0.81-0.56-1.31-1.32-1.31
		C64.66,296.17,64.16,296.65,64.05,297.48z"/>
	<path class="st0" d="M72.78,297.23v2.82h-0.72v-2.58c0-0.98-0.49-1.31-1.11-1.31c-0.66,0-1.39,0.41-1.39,1.53v2.35h-0.72v-4.41
		h0.63l0.04,0.69c0.31-0.56,0.89-0.78,1.51-0.78C71.98,295.55,72.78,296.09,72.78,297.23z"/>
	<path class="st0" d="M75.35,299.56c0,0.34-0.23,0.57-0.58,0.57s-0.58-0.23-0.58-0.57c0-0.34,0.23-0.57,0.58-0.57
		S75.35,299.22,75.35,299.56z"/>
	<path class="st0" d="M82.14,297.63h-1.42v2.42H80v-5.82h2.25c1.2,0,2,0.65,2,1.7c0,0.83-0.5,1.41-1.31,1.62l1.67,2.5h-0.85
		L82.14,297.63z M80.72,296.97h1.52c0.84,0,1.26-0.34,1.26-1.04s-0.41-1.04-1.26-1.04h-1.52V296.97z"/>
	<path class="st0" d="M89.51,298.11h-3.39c0.09,0.89,0.64,1.41,1.46,1.41c0.66,0,1.11-0.23,1.27-0.65l0.6,0.31
		c-0.34,0.6-0.9,0.96-1.87,0.96c-1.36,0-2.17-0.86-2.17-2.29c0-1.43,0.76-2.29,2.12-2.29c1.3,0,2.01,0.93,2.01,2.06
		C89.55,297.82,89.53,297.99,89.51,298.11z M86.13,297.48h2.72c-0.1-0.81-0.56-1.31-1.32-1.31
		C86.73,296.17,86.24,296.65,86.13,297.48z"/>
	<path class="st0" d="M90.51,299.14l0.58-0.4c0.22,0.54,0.77,0.78,1.42,0.78c0.74,0,1.09-0.29,1.09-0.65c0-0.33-0.28-0.52-1.18-0.68
		c-1.28-0.23-1.74-0.57-1.74-1.31c0-0.71,0.67-1.32,1.77-1.32c0.96,0,1.53,0.34,1.78,1.06l-0.61,0.35c-0.2-0.58-0.6-0.79-1.17-0.79
		c-0.6,0-1.05,0.32-1.05,0.64c0,0.38,0.3,0.57,1.21,0.72c1.26,0.2,1.71,0.57,1.71,1.3c0,0.77-0.73,1.31-1.88,1.31
		C91.62,300.14,90.85,299.82,90.51,299.14z"/>
	<path class="st0" d="M99.55,295.64v4.41h-0.63l-0.04-0.67c-0.31,0.53-0.89,0.76-1.61,0.76c-0.89,0-1.65-0.45-1.65-1.61v-2.88h0.72
		v2.7c0,0.91,0.41,1.18,1.06,1.18c0.76,0,1.44-0.44,1.44-1.48v-2.4H99.55z"/>
	<path class="st0" d="M101.9,298.87c0,0.45,0.12,0.59,0.49,0.59c0.24,0,0.4-0.03,0.66-0.12l-0.12,0.68
		c-0.19,0.08-0.43,0.12-0.67,0.12c-0.73,0-1.08-0.38-1.08-1.18v-5.34h0.72V298.87z"/>
	<path class="st0" d="M106.54,299.74c-0.28,0.25-0.67,0.4-1.16,0.4c-0.67,0-1.24-0.33-1.25-1.18v-2.71h-0.9v-0.61h0.9v-1.06
		l0.72-0.19v1.25h1.66v0.61h-1.66v2.58c0,0.43,0.28,0.64,0.67,0.64c0.32,0,0.56-0.12,0.76-0.33L106.54,299.74z"/>
	<path class="st0" d="M107.16,299.14l0.58-0.4c0.22,0.54,0.77,0.78,1.42,0.78c0.74,0,1.09-0.29,1.09-0.65
		c0-0.33-0.28-0.52-1.18-0.68c-1.28-0.23-1.74-0.57-1.74-1.31c0-0.71,0.67-1.32,1.77-1.32c0.96,0,1.53,0.34,1.78,1.06l-0.61,0.35
		c-0.2-0.58-0.6-0.79-1.17-0.79c-0.6,0-1.05,0.32-1.05,0.64c0,0.38,0.3,0.57,1.21,0.72c1.26,0.2,1.71,0.57,1.71,1.3
		c0,0.77-0.73,1.31-1.88,1.31C108.26,300.14,107.5,299.82,107.16,299.14z"/>
	<path class="st0" d="M22.77,307.72v2.82h-0.72v-2.75c0-0.8-0.47-1.13-1.06-1.13c-0.7,0-1.33,0.52-1.33,1.46v2.42h-0.72v-2.75
		c0-0.8-0.47-1.13-1.06-1.13c-0.59,0-1.33,0.43-1.33,1.53v2.35h-0.72v-4.41h0.63l0.04,0.69c0.32-0.54,0.88-0.78,1.44-0.78
		c0.63,0,1.25,0.27,1.55,0.86c0.28-0.6,1-0.86,1.56-0.86C21.92,306.04,22.77,306.55,22.77,307.72z"/>
	<path class="st0" d="M28.45,309.99l-0.04,0.56c-0.13,0.04-0.31,0.09-0.54,0.09c-0.44,0-0.73-0.16-0.81-0.65
		c-0.29,0.41-0.87,0.65-1.45,0.65c-0.84,0-1.53-0.39-1.53-1.18c0-0.66,0.59-1.18,1.75-1.38l1.2-0.19v-0.25
		c0-0.58-0.38-0.97-1.05-0.97c-0.59,0-1.04,0.28-1.29,0.84l-0.53-0.38c0.23-0.65,0.94-1.08,1.82-1.08c1.02,0,1.77,0.48,1.77,1.5
		v2.17c0,0.21,0.09,0.32,0.34,0.32C28.21,310.03,28.34,310.01,28.45,309.99z M27.03,309.06v-0.61l-1.01,0.18
		c-0.79,0.14-1.2,0.4-1.2,0.81c0,0.37,0.31,0.56,0.82,0.56C26.37,310.01,27.03,309.64,27.03,309.06z"/>
	<path class="st0" d="M30.94,311.28c-0.35,0.86-0.75,1.16-1.42,1.16c-0.45,0-0.74-0.11-0.99-0.37l0.25-0.6
		c0.21,0.28,0.48,0.35,0.73,0.35c0.31,0,0.59-0.13,0.82-0.71l0.23-0.57l-1.88-4.4h0.82l1.12,2.88l0.28,0.78l0.32-0.87l1.05-2.79
		h0.77L30.94,311.28z"/>
	<path class="st0" d="M40.39,306.13l-1.87,4.41H37.8l-1.87-4.41h0.82l1.42,3.7l1.46-3.7H40.39z"/>
	<path class="st0" d="M45.27,309.99l-0.04,0.56c-0.13,0.04-0.31,0.09-0.54,0.09c-0.44,0-0.73-0.16-0.81-0.65
		c-0.29,0.41-0.87,0.65-1.45,0.65c-0.84,0-1.53-0.39-1.53-1.18c0-0.66,0.59-1.18,1.75-1.38l1.2-0.19v-0.25
		c0-0.58-0.38-0.97-1.05-0.97c-0.59,0-1.04,0.28-1.29,0.84l-0.53-0.38c0.23-0.65,0.94-1.08,1.82-1.08c1.02,0,1.77,0.48,1.77,1.5
		v2.17c0,0.21,0.09,0.32,0.34,0.32C45.02,310.03,45.16,310.01,45.27,309.99z M43.85,309.06v-0.61l-1.01,0.18
		c-0.79,0.14-1.2,0.4-1.2,0.81c0,0.37,0.31,0.56,0.82,0.56C43.18,310.01,43.85,309.64,43.85,309.06z"/>
	<path class="st0" d="M48.93,306.13l-0.14,0.69c-0.14-0.07-0.33-0.12-0.57-0.12c-0.54,0-1.19,0.47-1.19,1.46v2.38h-0.72v-4.41h0.58
		l0.1,0.72c0.25-0.54,0.74-0.81,1.44-0.81C48.59,306.04,48.79,306.06,48.93,306.13z"/>
	<path class="st0" d="M51.69,311.28c-0.35,0.86-0.75,1.16-1.42,1.16c-0.45,0-0.74-0.11-0.99-0.37l0.25-0.6
		c0.21,0.28,0.48,0.35,0.73,0.35c0.31,0,0.59-0.13,0.82-0.71l0.23-0.57l-1.88-4.4h0.82l1.12,2.88l0.28,0.78l0.32-0.87l1.05-2.79
		h0.77L51.69,311.28z"/>
	<path class="st0" d="M55.07,310.06c0,0.34-0.23,0.57-0.58,0.57s-0.58-0.23-0.58-0.57c0-0.34,0.23-0.57,0.58-0.57
		S55.07,309.71,55.07,310.06z"/>
</g>
</svg>
