<?xml version="1.0" encoding="utf-8"?>
<!-- Generator: Adobe Illustrator 25.4.1, SVG Export Plug-In . SVG Version: 6.00 Build 0)  -->
<svg version="1.1" id="Layer_1" xmlns="http://www.w3.org/2000/svg" xmlns:xlink="http://www.w3.org/1999/xlink" x="0px" y="0px"
	 viewBox="0 0 300 600" style="enable-background:new 0 0 300 600;" xml:space="preserve">
<style type="text/css">
	.st0{fill:#FFFFFF;}
</style>
<g>
	<path class="st0" d="M18.98,211.1l-0.49-1.1l-0.2-0.64l-0.47,0.59l-0.95,0.93l-0.56-0.57l0.96-0.93l0.6-0.45l-0.63-0.21l-1.09-0.52
		l0.39-0.72l1.09,0.52l0.57,0.38l0.06-0.72l0.26-1.21h0.86l-0.31,1.3l-0.26,0.69l0.7-0.24l1.27-0.25l0.05,0.8L19.58,209l-0.73,0.05
		l0.36,0.58l0.5,1.09L18.98,211.1z"/>
	<path class="st0" d="M27.45,207.15l-0.22,0.92h-2.2l-1.31,5.68h-1.08l1.31-5.68h-2.23l0.22-0.92H27.45z"/>
	<path class="st0" d="M26.85,213.75l1.68-7.25h1.07l-0.76,3.29l-0.16,0.12c0.09-0.27,0.22-0.49,0.41-0.68
		c0.19-0.19,0.41-0.33,0.66-0.43s0.52-0.15,0.81-0.15c0.36,0,0.67,0.08,0.93,0.24c0.26,0.16,0.44,0.4,0.55,0.69
		c0.11,0.3,0.12,0.66,0.03,1.09l-0.72,3.07h-1.07l0.7-3c0.09-0.38,0.05-0.68-0.11-0.9c-0.16-0.22-0.41-0.32-0.76-0.32
		c-0.27,0-0.5,0.06-0.71,0.18s-0.38,0.29-0.52,0.52s-0.25,0.52-0.34,0.87l-0.61,2.65H26.85z"/>
	<path class="st0" d="M35.4,213.84c-0.47,0-0.88-0.1-1.22-0.29c-0.34-0.2-0.6-0.46-0.79-0.8c-0.19-0.34-0.28-0.72-0.28-1.15
		c0-0.53,0.11-1.02,0.32-1.46c0.21-0.44,0.52-0.8,0.93-1.06s0.9-0.4,1.47-0.4c0.43,0,0.79,0.09,1.1,0.26
		c0.31,0.17,0.54,0.42,0.7,0.73s0.24,0.67,0.24,1.08c0,0.13-0.01,0.27-0.03,0.41c-0.02,0.14-0.05,0.28-0.09,0.42h-4.03v-0.82h3.45
		l-0.39,0.28c0.03-0.08,0.04-0.16,0.05-0.24c0.01-0.08,0.01-0.15,0.01-0.21c0-0.22-0.04-0.41-0.12-0.57
		c-0.08-0.16-0.2-0.28-0.36-0.37c-0.16-0.09-0.35-0.13-0.57-0.13c-0.3,0-0.56,0.06-0.77,0.19c-0.21,0.12-0.38,0.29-0.5,0.5
		s-0.22,0.44-0.27,0.69s-0.08,0.5-0.08,0.75c0,0.28,0.06,0.52,0.17,0.72c0.11,0.2,0.26,0.36,0.46,0.48s0.43,0.17,0.69,0.17
		c0.31,0,0.57-0.07,0.77-0.2s0.35-0.3,0.48-0.51l0.86,0.46c-0.13,0.23-0.31,0.42-0.52,0.58c-0.22,0.16-0.46,0.29-0.74,0.38
		C36.04,213.8,35.73,213.84,35.4,213.84z"/>
	<path class="st0" d="M41.32,215.85l1.64-7.1h0.95l-0.25,1.37l-0.12,0.07c0.08-0.32,0.21-0.59,0.39-0.82
		c0.18-0.23,0.41-0.4,0.68-0.52s0.56-0.18,0.86-0.18c0.34,0,0.65,0.08,0.92,0.25c0.27,0.17,0.48,0.41,0.64,0.73
		c0.16,0.32,0.24,0.7,0.24,1.15c0,0.42-0.06,0.81-0.19,1.18c-0.13,0.37-0.3,0.69-0.53,0.98c-0.23,0.28-0.49,0.5-0.79,0.66
		c-0.3,0.16-0.63,0.24-0.99,0.24c-0.31,0-0.6-0.06-0.85-0.18c-0.25-0.12-0.45-0.3-0.59-0.53c-0.15-0.24-0.23-0.52-0.25-0.85
		l0.17-0.16l-0.85,3.72H41.32z M44.62,212.99c0.22,0,0.43-0.06,0.62-0.17c0.19-0.11,0.36-0.27,0.51-0.46
		c0.15-0.2,0.26-0.43,0.34-0.69c0.08-0.26,0.12-0.53,0.12-0.82c0-0.29-0.05-0.53-0.15-0.73s-0.23-0.35-0.41-0.45
		c-0.18-0.1-0.38-0.16-0.61-0.16c-0.24,0-0.46,0.06-0.65,0.17c-0.19,0.11-0.36,0.27-0.5,0.46c-0.14,0.2-0.25,0.43-0.33,0.7
		s-0.11,0.55-0.11,0.85c0,0.39,0.1,0.7,0.3,0.94C43.94,212.87,44.23,212.99,44.62,212.99z"/>
	<path class="st0" d="M47.96,213.75l1.16-5h0.9l-0.16,1.35l-0.11-0.1c0.11-0.28,0.25-0.52,0.44-0.72c0.18-0.2,0.4-0.35,0.63-0.47
		c0.24-0.11,0.49-0.16,0.75-0.16c0.11,0,0.2,0.01,0.28,0.02c0.08,0.01,0.16,0.04,0.22,0.07l-0.29,0.96
		c-0.07-0.03-0.14-0.06-0.23-0.08s-0.19-0.02-0.31-0.02c-0.24,0-0.47,0.06-0.68,0.17c-0.21,0.11-0.4,0.28-0.56,0.5
		c-0.16,0.23-0.28,0.52-0.37,0.89l-0.6,2.59H47.96z"/>
	<path class="st0" d="M54.18,208.75l-1.16,5h-1.07l1.16-5H54.18z M53.93,207.91c-0.2,0-0.36-0.05-0.48-0.16
		c-0.12-0.11-0.17-0.25-0.16-0.44c0.01-0.23,0.08-0.41,0.22-0.54s0.32-0.19,0.53-0.19c0.21,0,0.37,0.05,0.48,0.15
		c0.12,0.1,0.17,0.25,0.17,0.42c-0.01,0.25-0.09,0.43-0.23,0.56C54.32,207.85,54.15,207.91,53.93,207.91z"/>
	<path class="st0" d="M54.62,213.75l1.16-5h0.94l-0.21,1.26l-0.1-0.07c0.14-0.43,0.38-0.75,0.73-0.96c0.35-0.22,0.73-0.32,1.16-0.32
		c0.35,0,0.66,0.08,0.91,0.24c0.25,0.16,0.43,0.4,0.53,0.71s0.1,0.68,0,1.11l-0.71,3.04h-1.07l0.7-2.98
		c0.09-0.39,0.06-0.69-0.08-0.91c-0.15-0.22-0.39-0.33-0.71-0.33c-0.27,0-0.5,0.06-0.71,0.18s-0.38,0.29-0.51,0.52
		c-0.14,0.23-0.25,0.52-0.33,0.87l-0.61,2.65H54.62z M61.31,213.75l0.69-2.98c0.09-0.39,0.06-0.69-0.09-0.91
		c-0.15-0.22-0.38-0.33-0.7-0.33c-0.27,0-0.51,0.06-0.71,0.18c-0.2,0.12-0.38,0.29-0.52,0.52c-0.14,0.23-0.25,0.52-0.33,0.87
		l-0.1-0.97c0.18-0.49,0.46-0.86,0.83-1.11c0.38-0.25,0.79-0.37,1.25-0.37c0.35,0,0.66,0.08,0.91,0.24c0.25,0.16,0.43,0.4,0.53,0.71
		c0.1,0.31,0.11,0.68,0.01,1.11l-0.71,3.04H61.31z"/>
	<path class="st0" d="M66.07,213.83c-0.37,0-0.69-0.09-0.98-0.27c-0.29-0.18-0.51-0.42-0.67-0.74c-0.16-0.32-0.24-0.7-0.24-1.13
		c0-0.41,0.06-0.79,0.19-1.16c0.12-0.37,0.3-0.69,0.52-0.97c0.22-0.28,0.49-0.5,0.8-0.67s0.65-0.24,1.01-0.24
		c0.27,0,0.52,0.05,0.75,0.14c0.22,0.09,0.41,0.23,0.56,0.41c0.15,0.18,0.26,0.4,0.31,0.66l0.26-1.11h1.07l-1.16,5h-0.95l0.17-0.93
		c-0.17,0.31-0.39,0.55-0.68,0.73C66.74,213.74,66.42,213.83,66.07,213.83z M66.44,212.98c0.21,0,0.42-0.06,0.6-0.17
		s0.36-0.27,0.5-0.47c0.14-0.2,0.26-0.43,0.34-0.69c0.08-0.26,0.12-0.54,0.12-0.83c0-0.27-0.05-0.5-0.15-0.69s-0.23-0.35-0.4-0.46
		c-0.17-0.11-0.37-0.16-0.6-0.16c-0.25,0-0.47,0.06-0.67,0.17s-0.37,0.27-0.51,0.46c-0.14,0.2-0.25,0.42-0.33,0.68
		c-0.08,0.26-0.12,0.52-0.12,0.81c0,0.29,0.05,0.53,0.14,0.73c0.09,0.2,0.23,0.35,0.41,0.46C65.96,212.93,66.18,212.98,66.44,212.98
		z"/>
	<path class="st0" d="M70.09,213.75l1.16-5h0.9l-0.16,1.35l-0.11-0.1c0.11-0.28,0.25-0.52,0.44-0.72c0.18-0.2,0.4-0.35,0.63-0.47
		c0.24-0.11,0.49-0.16,0.75-0.16c0.11,0,0.2,0.01,0.28,0.02c0.08,0.01,0.16,0.04,0.22,0.07l-0.29,0.96
		c-0.07-0.03-0.14-0.06-0.23-0.08s-0.19-0.02-0.31-0.02c-0.24,0-0.47,0.06-0.68,0.17c-0.21,0.11-0.4,0.28-0.56,0.5
		c-0.16,0.23-0.28,0.52-0.37,0.89l-0.6,2.59H70.09z"/>
	<path class="st0" d="M74.08,215.9c-0.27,0-0.5-0.03-0.7-0.09c-0.2-0.06-0.36-0.14-0.49-0.25l0.37-0.83
		c0.23,0.21,0.49,0.31,0.79,0.31c0.2,0,0.38-0.05,0.54-0.16c0.16-0.11,0.31-0.27,0.45-0.5l0.39-0.63l-0.88-5h1.07l0.36,2.81
		l0.16,1.24l0.66-1.18l1.63-2.87h1.18L76,214.56c-0.19,0.32-0.39,0.58-0.59,0.77c-0.2,0.2-0.42,0.34-0.64,0.43
		C74.55,215.85,74.32,215.9,74.08,215.9z"/>
	<path class="st0" d="M84.85,213.84c-0.49,0-0.91-0.1-1.25-0.3c-0.34-0.2-0.61-0.47-0.79-0.81c-0.19-0.34-0.28-0.72-0.28-1.13
		c0-0.57,0.11-1.07,0.33-1.51c0.22-0.44,0.53-0.79,0.93-1.04c0.4-0.25,0.86-0.38,1.4-0.38c0.49,0,0.91,0.1,1.25,0.3
		c0.34,0.2,0.6,0.47,0.78,0.81c0.18,0.34,0.27,0.72,0.27,1.14c0,0.55-0.11,1.05-0.32,1.5c-0.22,0.44-0.53,0.79-0.93,1.05
		C85.85,213.71,85.38,213.84,84.85,213.84z M84.87,213c0.22,0,0.42-0.05,0.61-0.16c0.19-0.11,0.36-0.26,0.5-0.45
		c0.14-0.19,0.25-0.42,0.33-0.67c0.08-0.26,0.11-0.53,0.11-0.82c0-0.27-0.04-0.5-0.13-0.71c-0.09-0.21-0.23-0.37-0.42-0.5
		c-0.19-0.12-0.43-0.19-0.72-0.19c-0.22,0-0.43,0.05-0.62,0.16s-0.36,0.25-0.5,0.44s-0.25,0.41-0.33,0.67
		c-0.08,0.26-0.12,0.54-0.12,0.83c0,0.25,0.05,0.49,0.14,0.7c0.09,0.21,0.23,0.38,0.42,0.5C84.34,212.94,84.58,213,84.87,213z"/>
	<path class="st0" d="M91.86,208.67c0.35,0,0.66,0.08,0.93,0.25c0.28,0.17,0.49,0.41,0.65,0.73c0.16,0.32,0.24,0.71,0.24,1.17
		c0,0.41-0.06,0.8-0.19,1.17c-0.13,0.36-0.3,0.68-0.52,0.96c-0.22,0.28-0.49,0.5-0.79,0.66c-0.3,0.16-0.64,0.24-1,0.24
		c-0.29,0-0.55-0.05-0.78-0.15c-0.23-0.1-0.42-0.24-0.57-0.43c-0.15-0.18-0.25-0.39-0.3-0.62l-0.27,1.1h-1.05l1.68-7.25h1.07
		l-0.71,3.05c0.16-0.26,0.38-0.47,0.67-0.64C91.2,208.75,91.51,208.67,91.86,208.67z M91.03,212.99c0.22,0,0.43-0.06,0.62-0.17
		c0.19-0.11,0.36-0.26,0.51-0.46s0.26-0.42,0.34-0.68c0.08-0.26,0.12-0.54,0.12-0.83c0-0.3-0.05-0.55-0.15-0.74
		c-0.1-0.2-0.24-0.35-0.42-0.45c-0.18-0.1-0.38-0.15-0.6-0.15c-0.24,0-0.46,0.06-0.65,0.17c-0.2,0.11-0.37,0.27-0.51,0.46
		c-0.14,0.2-0.25,0.43-0.33,0.7s-0.11,0.55-0.11,0.85c0,0.39,0.1,0.7,0.3,0.94C90.35,212.87,90.64,212.99,91.03,212.99z"/>
	<path class="st0" d="M93.7,215.9c-0.22,0-0.44-0.03-0.65-0.08c-0.21-0.06-0.38-0.15-0.5-0.27l0.31-0.84
		c0.09,0.07,0.2,0.13,0.31,0.19c0.12,0.05,0.23,0.07,0.35,0.07c0.19,0,0.35-0.05,0.46-0.16c0.11-0.11,0.2-0.31,0.27-0.61l1.28-5.45
		h1.07l-1.31,5.66c-0.12,0.52-0.32,0.9-0.61,1.14C94.39,215.78,94.06,215.9,93.7,215.9z M96.36,207.91c-0.2,0-0.36-0.05-0.48-0.16
		c-0.12-0.11-0.17-0.25-0.16-0.44c0.01-0.23,0.08-0.41,0.22-0.54s0.32-0.19,0.53-0.19c0.21,0,0.37,0.05,0.48,0.15
		c0.12,0.1,0.17,0.25,0.17,0.42c-0.01,0.25-0.09,0.43-0.23,0.56C96.75,207.85,96.57,207.91,96.36,207.91z"/>
	<path class="st0" d="M99.61,213.84c-0.47,0-0.88-0.1-1.22-0.29c-0.34-0.2-0.6-0.46-0.79-0.8c-0.19-0.34-0.28-0.72-0.28-1.15
		c0-0.53,0.11-1.02,0.32-1.46c0.21-0.44,0.52-0.8,0.93-1.06s0.9-0.4,1.47-0.4c0.43,0,0.79,0.09,1.1,0.26
		c0.31,0.17,0.54,0.42,0.7,0.73s0.24,0.67,0.24,1.08c0,0.13-0.01,0.27-0.03,0.41c-0.02,0.14-0.05,0.28-0.09,0.42h-4.03v-0.82h3.45
		l-0.39,0.28c0.03-0.08,0.04-0.16,0.05-0.24c0.01-0.08,0.01-0.15,0.01-0.21c0-0.22-0.04-0.41-0.12-0.57
		c-0.08-0.16-0.2-0.28-0.36-0.37c-0.16-0.09-0.35-0.13-0.57-0.13c-0.3,0-0.56,0.06-0.77,0.19c-0.21,0.12-0.38,0.29-0.5,0.5
		s-0.22,0.44-0.27,0.69s-0.08,0.5-0.08,0.75c0,0.28,0.06,0.52,0.17,0.72c0.11,0.2,0.26,0.36,0.46,0.48s0.43,0.17,0.69,0.17
		c0.31,0,0.57-0.07,0.77-0.2s0.35-0.3,0.48-0.51l0.86,0.46c-0.13,0.23-0.31,0.42-0.52,0.58c-0.22,0.16-0.46,0.29-0.74,0.38
		C100.25,213.8,99.94,213.84,99.61,213.84z"/>
	<path class="st0" d="M105.34,213.84c-0.48,0-0.89-0.1-1.23-0.3c-0.34-0.2-0.61-0.47-0.79-0.81c-0.18-0.34-0.27-0.73-0.27-1.15
		c0-0.57,0.11-1.07,0.33-1.5c0.22-0.44,0.54-0.78,0.94-1.04c0.4-0.25,0.88-0.38,1.42-0.38c0.4,0,0.75,0.07,1.05,0.21
		s0.55,0.33,0.73,0.57c0.18,0.25,0.29,0.53,0.33,0.84l-1.07,0.22c-0.01-0.28-0.11-0.52-0.29-0.71s-0.44-0.29-0.8-0.29
		c-0.23,0-0.45,0.06-0.64,0.17s-0.36,0.26-0.5,0.45c-0.14,0.19-0.25,0.41-0.33,0.67c-0.08,0.26-0.11,0.53-0.11,0.83
		c0,0.27,0.05,0.5,0.15,0.71s0.25,0.38,0.44,0.5c0.19,0.12,0.42,0.18,0.7,0.18c0.23,0,0.45-0.06,0.66-0.19s0.35-0.32,0.44-0.56
		l1,0.35c-0.18,0.4-0.46,0.71-0.84,0.92C106.28,213.73,105.84,213.84,105.34,213.84z"/>
	<path class="st0" d="M108.56,209.59l0.19-0.84h3.55l-0.19,0.84H108.56z M110.39,213.83c-0.35,0-0.64-0.06-0.88-0.19
		c-0.24-0.13-0.42-0.32-0.52-0.58s-0.11-0.56-0.03-0.92l1.03-4.48l1.15-0.32l-1.13,4.81c-0.07,0.29-0.03,0.5,0.12,0.63
		c0.15,0.13,0.34,0.19,0.57,0.19c0.16,0,0.3-0.02,0.42-0.06c0.12-0.04,0.22-0.09,0.31-0.16l0.08,0.79
		c-0.17,0.11-0.35,0.18-0.53,0.22C110.79,213.81,110.59,213.83,110.39,213.83z"/>
	<path class="st0" d="M114.54,208.75l-1.16,5h-1.07l1.16-5H114.54z M114.29,207.91c-0.2,0-0.36-0.05-0.48-0.16
		c-0.12-0.11-0.17-0.25-0.16-0.44c0.01-0.23,0.08-0.41,0.22-0.54s0.32-0.19,0.53-0.19c0.21,0,0.37,0.05,0.48,0.15
		c0.12,0.1,0.17,0.25,0.17,0.42c-0.01,0.25-0.09,0.43-0.23,0.56C114.68,207.85,114.51,207.91,114.29,207.91z"/>
	<path class="st0" d="M119.22,208.75h1.19l-3.07,5h-1.17l-0.8-5h1.06l0.55,4.46l-0.24-0.04L119.22,208.75z"/>
	<path class="st0" d="M122.82,213.84c-0.47,0-0.88-0.1-1.22-0.29c-0.34-0.2-0.6-0.46-0.79-0.8c-0.19-0.34-0.28-0.72-0.28-1.15
		c0-0.53,0.11-1.02,0.32-1.46c0.21-0.44,0.52-0.8,0.93-1.06s0.9-0.4,1.47-0.4c0.43,0,0.79,0.09,1.1,0.26
		c0.31,0.17,0.54,0.42,0.7,0.73s0.24,0.67,0.24,1.08c0,0.13-0.01,0.27-0.03,0.41c-0.02,0.14-0.05,0.28-0.09,0.42h-4.03v-0.82h3.45
		l-0.39,0.28c0.03-0.08,0.04-0.16,0.05-0.24c0.01-0.08,0.01-0.15,0.01-0.21c0-0.22-0.04-0.41-0.12-0.57
		c-0.08-0.16-0.2-0.28-0.36-0.37c-0.16-0.09-0.35-0.13-0.57-0.13c-0.3,0-0.56,0.06-0.77,0.19c-0.21,0.12-0.38,0.29-0.5,0.5
		s-0.22,0.44-0.27,0.69s-0.08,0.5-0.08,0.75c0,0.28,0.06,0.52,0.17,0.72c0.11,0.2,0.26,0.36,0.46,0.48s0.43,0.17,0.69,0.17
		c0.31,0,0.57-0.07,0.77-0.2s0.35-0.3,0.48-0.51l0.86,0.46c-0.13,0.23-0.31,0.42-0.52,0.58c-0.22,0.16-0.46,0.29-0.74,0.38
		C123.46,213.8,123.16,213.84,122.82,213.84z"/>
	<path class="st0" d="M16.17,225.75l-0.46-5h1.04l0.27,3.88l2-3.88h1.06l0.42,3.93l2-3.93h1.14l-2.71,5h-1.17l-0.45-3.7l-1.95,3.7
		H16.17z"/>
	<path class="st0" d="M25.65,225.83c-0.37,0-0.69-0.09-0.98-0.27c-0.29-0.18-0.51-0.42-0.67-0.74c-0.16-0.32-0.24-0.7-0.24-1.13
		c0-0.41,0.06-0.79,0.19-1.16c0.12-0.37,0.3-0.69,0.52-0.97c0.22-0.28,0.49-0.5,0.8-0.67s0.65-0.24,1.01-0.24
		c0.27,0,0.52,0.05,0.75,0.14c0.22,0.09,0.41,0.23,0.56,0.41c0.15,0.18,0.26,0.4,0.31,0.66l0.26-1.11h1.07l-1.16,5h-0.95l0.17-0.93
		c-0.17,0.31-0.39,0.55-0.68,0.73C26.31,225.74,26,225.83,25.65,225.83z M26.02,224.98c0.21,0,0.42-0.06,0.6-0.17
		s0.36-0.27,0.5-0.47c0.14-0.2,0.26-0.43,0.34-0.69c0.08-0.26,0.12-0.54,0.12-0.83c0-0.27-0.05-0.5-0.15-0.69s-0.23-0.35-0.4-0.46
		c-0.17-0.11-0.37-0.16-0.6-0.16c-0.25,0-0.47,0.06-0.67,0.17s-0.37,0.27-0.51,0.46c-0.14,0.2-0.25,0.42-0.33,0.68
		c-0.08,0.26-0.12,0.52-0.12,0.81c0,0.29,0.05,0.53,0.14,0.73c0.09,0.2,0.23,0.35,0.41,0.46C25.54,224.92,25.76,224.98,26.02,224.98
		z"/>
	<path class="st0" d="M31.98,225.86c-0.38,0-0.73-0.06-1.04-0.17c-0.32-0.11-0.59-0.28-0.83-0.49s-0.42-0.46-0.55-0.75l0.81-0.49
		c0.14,0.34,0.34,0.6,0.61,0.78c0.27,0.18,0.6,0.27,0.98,0.27c0.31,0,0.54-0.06,0.71-0.18c0.17-0.12,0.25-0.28,0.25-0.48
		c0-0.15-0.05-0.27-0.14-0.35c-0.09-0.09-0.24-0.16-0.43-0.22l-0.8-0.24c-0.44-0.12-0.76-0.3-0.97-0.54
		c-0.21-0.24-0.31-0.51-0.31-0.82c0-0.3,0.08-0.56,0.24-0.79s0.39-0.41,0.69-0.54s0.65-0.2,1.06-0.2c0.49,0,0.92,0.1,1.29,0.3
		c0.37,0.2,0.65,0.49,0.82,0.87l-0.77,0.52c-0.07-0.17-0.18-0.32-0.31-0.45s-0.29-0.23-0.46-0.3c-0.18-0.07-0.37-0.11-0.58-0.11
		c-0.33,0-0.57,0.06-0.73,0.17c-0.16,0.11-0.24,0.26-0.24,0.44c0,0.17,0.06,0.29,0.19,0.38c0.13,0.09,0.28,0.16,0.45,0.21l0.97,0.29
		c0.35,0.1,0.62,0.26,0.81,0.48c0.19,0.22,0.29,0.47,0.29,0.77c0,0.34-0.08,0.63-0.25,0.88c-0.17,0.25-0.4,0.44-0.7,0.57
		C32.72,225.79,32.37,225.86,31.98,225.86z"/>
	<path class="st0" d="M38.23,221.59l0.19-0.84h3.55l-0.19,0.84H38.23z M40.06,225.83c-0.35,0-0.64-0.06-0.88-0.19
		c-0.24-0.13-0.42-0.32-0.52-0.58s-0.11-0.56-0.03-0.92l1.03-4.48l1.15-0.32l-1.13,4.81c-0.07,0.29-0.03,0.5,0.12,0.63
		c0.15,0.13,0.34,0.19,0.57,0.19c0.16,0,0.3-0.02,0.42-0.06c0.12-0.04,0.22-0.09,0.31-0.16l0.08,0.79
		c-0.17,0.11-0.35,0.18-0.53,0.22C40.46,225.81,40.26,225.83,40.06,225.83z"/>
	<path class="st0" d="M44.63,225.84c-0.49,0-0.91-0.1-1.25-0.3c-0.34-0.2-0.61-0.47-0.79-0.81c-0.19-0.34-0.28-0.72-0.28-1.13
		c0-0.57,0.11-1.07,0.33-1.51c0.22-0.44,0.53-0.79,0.93-1.04c0.4-0.25,0.86-0.38,1.4-0.38c0.49,0,0.91,0.1,1.25,0.3
		c0.34,0.2,0.6,0.47,0.78,0.81c0.18,0.34,0.27,0.72,0.27,1.14c0,0.55-0.11,1.05-0.32,1.5c-0.22,0.44-0.53,0.79-0.93,1.05
		C45.62,225.71,45.16,225.84,44.63,225.84z M44.65,225c0.22,0,0.42-0.05,0.61-0.16c0.19-0.11,0.36-0.26,0.5-0.45
		c0.14-0.19,0.25-0.42,0.33-0.67c0.08-0.26,0.11-0.53,0.11-0.82c0-0.27-0.04-0.5-0.13-0.71c-0.09-0.21-0.23-0.37-0.42-0.5
		c-0.19-0.12-0.43-0.19-0.72-0.19c-0.22,0-0.43,0.05-0.62,0.16s-0.36,0.25-0.5,0.44s-0.25,0.41-0.33,0.67
		c-0.08,0.26-0.12,0.54-0.12,0.83c0,0.25,0.05,0.49,0.14,0.7c0.09,0.21,0.23,0.38,0.42,0.5C44.12,224.94,44.36,225,44.65,225z"/>
	<path class="st0" d="M53.75,225.84c-0.47,0-0.88-0.1-1.22-0.29c-0.34-0.2-0.6-0.46-0.79-0.8c-0.19-0.34-0.28-0.72-0.28-1.15
		c0-0.53,0.11-1.02,0.32-1.46c0.21-0.44,0.52-0.8,0.93-1.06s0.9-0.4,1.47-0.4c0.43,0,0.79,0.09,1.1,0.26
		c0.31,0.17,0.54,0.42,0.7,0.73s0.24,0.67,0.24,1.08c0,0.13-0.01,0.27-0.03,0.41c-0.02,0.14-0.05,0.28-0.09,0.42h-4.03v-0.82h3.45
		l-0.39,0.28c0.03-0.08,0.04-0.16,0.05-0.24c0.01-0.08,0.01-0.15,0.01-0.21c0-0.22-0.04-0.41-0.12-0.57
		c-0.08-0.16-0.2-0.28-0.36-0.37c-0.16-0.09-0.35-0.13-0.57-0.13c-0.3,0-0.56,0.06-0.77,0.19c-0.21,0.12-0.38,0.29-0.5,0.5
		s-0.22,0.44-0.27,0.69s-0.08,0.5-0.08,0.75c0,0.28,0.06,0.52,0.17,0.72c0.11,0.2,0.26,0.36,0.46,0.48s0.43,0.17,0.69,0.17
		c0.31,0,0.57-0.07,0.77-0.2s0.35-0.3,0.48-0.51l0.86,0.46c-0.13,0.23-0.31,0.42-0.52,0.58c-0.22,0.16-0.46,0.29-0.74,0.38
		C54.39,225.79,54.09,225.84,53.75,225.84z"/>
	<path class="st0" d="M61.03,220.75h1.19l-3.07,5h-1.17l-0.8-5h1.06l0.55,4.46l-0.24-0.04L61.03,220.75z"/>
	<path class="st0" d="M64.22,225.83c-0.37,0-0.69-0.09-0.98-0.27c-0.29-0.18-0.51-0.42-0.67-0.74c-0.16-0.32-0.24-0.7-0.24-1.13
		c0-0.41,0.06-0.79,0.19-1.16c0.12-0.37,0.3-0.69,0.52-0.97c0.22-0.28,0.49-0.5,0.8-0.67s0.65-0.24,1.01-0.24
		c0.27,0,0.52,0.05,0.75,0.14c0.22,0.09,0.41,0.23,0.56,0.41c0.15,0.18,0.26,0.4,0.31,0.66l0.26-1.11h1.07l-1.16,5h-0.95l0.17-0.93
		c-0.17,0.31-0.39,0.55-0.68,0.73C64.89,225.74,64.57,225.83,64.22,225.83z M64.59,224.98c0.21,0,0.42-0.06,0.6-0.17
		s0.36-0.27,0.5-0.47c0.14-0.2,0.26-0.43,0.34-0.69c0.08-0.26,0.12-0.54,0.12-0.83c0-0.27-0.05-0.5-0.15-0.69s-0.23-0.35-0.4-0.46
		c-0.17-0.11-0.37-0.16-0.6-0.16c-0.25,0-0.47,0.06-0.67,0.17s-0.37,0.27-0.51,0.46c-0.14,0.2-0.25,0.42-0.33,0.68
		c-0.08,0.26-0.12,0.52-0.12,0.81c0,0.29,0.05,0.53,0.14,0.73c0.09,0.2,0.23,0.35,0.41,0.46C64.11,224.92,64.33,224.98,64.59,224.98
		z"/>
	<path class="st0" d="M69.74,225.83c-0.5,0-0.85-0.15-1.05-0.44s-0.24-0.68-0.13-1.16l1.33-5.73h1.07l-1.33,5.74
		c-0.07,0.26-0.05,0.45,0.05,0.56s0.27,0.17,0.52,0.17c0.09,0,0.17,0,0.25-0.01c0.07-0.01,0.13-0.02,0.19-0.03l-0.23,0.78
		c-0.11,0.04-0.21,0.07-0.31,0.08C70,225.82,69.88,225.83,69.74,225.83z"/>
	<path class="st0" d="M73.28,225.83c-0.36,0-0.68-0.08-0.94-0.24c-0.27-0.16-0.46-0.39-0.58-0.69c-0.12-0.3-0.12-0.66-0.02-1.09
		l0.71-3.06h1.07l-0.69,2.97c-0.09,0.4-0.06,0.71,0.11,0.92s0.42,0.31,0.77,0.31c0.27,0,0.5-0.06,0.7-0.18
		c0.2-0.12,0.38-0.29,0.52-0.52s0.25-0.52,0.32-0.85l0.62-2.65h1.07l-1.16,5h-0.95l0.21-1.26l0.1,0.08
		c-0.13,0.42-0.37,0.73-0.71,0.94S73.71,225.83,73.28,225.83z"/>
	<path class="st0" d="M79.52,225.83c-0.37,0-0.69-0.09-0.98-0.27c-0.29-0.18-0.51-0.42-0.67-0.74c-0.16-0.32-0.24-0.7-0.24-1.13
		c0-0.41,0.06-0.79,0.19-1.16c0.12-0.37,0.3-0.69,0.52-0.97c0.22-0.28,0.49-0.5,0.8-0.67s0.65-0.24,1.01-0.24
		c0.27,0,0.52,0.05,0.75,0.14c0.22,0.09,0.41,0.23,0.56,0.41c0.15,0.18,0.26,0.4,0.31,0.66l0.26-1.11h1.07l-1.16,5h-0.95l0.17-0.93
		c-0.17,0.31-0.39,0.55-0.68,0.73C80.18,225.74,79.87,225.83,79.52,225.83z M79.89,224.98c0.21,0,0.42-0.06,0.6-0.17
		s0.36-0.27,0.5-0.47c0.14-0.2,0.26-0.43,0.34-0.69c0.08-0.26,0.12-0.54,0.12-0.83c0-0.27-0.05-0.5-0.15-0.69s-0.23-0.35-0.4-0.46
		c-0.17-0.11-0.37-0.16-0.6-0.16c-0.25,0-0.47,0.06-0.67,0.17s-0.37,0.27-0.51,0.46c-0.14,0.2-0.25,0.42-0.33,0.68
		c-0.08,0.26-0.12,0.52-0.12,0.81c0,0.29,0.05,0.53,0.14,0.73c0.09,0.2,0.23,0.35,0.41,0.46C79.41,224.92,79.63,224.98,79.89,224.98
		z"/>
	<path class="st0" d="M83.91,221.59l0.19-0.84h3.55l-0.19,0.84H83.91z M85.74,225.83c-0.35,0-0.64-0.06-0.88-0.19
		c-0.24-0.13-0.42-0.32-0.52-0.58s-0.11-0.56-0.03-0.92l1.03-4.48l1.15-0.32l-1.13,4.81c-0.07,0.29-0.03,0.5,0.12,0.63
		c0.15,0.13,0.34,0.19,0.57,0.19c0.16,0,0.3-0.02,0.42-0.06c0.12-0.04,0.22-0.09,0.31-0.16l0.08,0.79
		c-0.17,0.11-0.35,0.18-0.53,0.22C86.14,225.81,85.94,225.83,85.74,225.83z"/>
	<path class="st0" d="M90.27,225.84c-0.47,0-0.88-0.1-1.22-0.29c-0.34-0.2-0.6-0.46-0.79-0.8c-0.19-0.34-0.28-0.72-0.28-1.15
		c0-0.53,0.11-1.02,0.32-1.46c0.21-0.44,0.52-0.8,0.93-1.06s0.9-0.4,1.47-0.4c0.43,0,0.79,0.09,1.1,0.26
		c0.31,0.17,0.54,0.42,0.7,0.73s0.24,0.67,0.24,1.08c0,0.13-0.01,0.27-0.03,0.41c-0.02,0.14-0.05,0.28-0.09,0.42h-4.03v-0.82h3.45
		l-0.39,0.28c0.03-0.08,0.04-0.16,0.05-0.24c0.01-0.08,0.01-0.15,0.01-0.21c0-0.22-0.04-0.41-0.12-0.57
		c-0.08-0.16-0.2-0.28-0.36-0.37c-0.16-0.09-0.35-0.13-0.57-0.13c-0.3,0-0.56,0.06-0.77,0.19c-0.21,0.12-0.38,0.29-0.5,0.5
		s-0.22,0.44-0.27,0.69s-0.08,0.5-0.08,0.75c0,0.28,0.06,0.52,0.17,0.72c0.11,0.2,0.26,0.36,0.46,0.48s0.43,0.17,0.69,0.17
		c0.31,0,0.57-0.07,0.77-0.2s0.35-0.3,0.48-0.51l0.86,0.46c-0.13,0.23-0.31,0.42-0.52,0.58c-0.22,0.16-0.46,0.29-0.74,0.38
		C90.91,225.79,90.6,225.84,90.27,225.84z"/>
	<path class="st0" d="M99.27,225.84c-0.49,0-0.91-0.1-1.25-0.3c-0.34-0.2-0.61-0.47-0.79-0.81c-0.19-0.34-0.28-0.72-0.28-1.13
		c0-0.57,0.11-1.07,0.33-1.51c0.22-0.44,0.53-0.79,0.93-1.04c0.4-0.25,0.86-0.38,1.4-0.38c0.49,0,0.91,0.1,1.25,0.3
		c0.34,0.2,0.6,0.47,0.78,0.81c0.18,0.34,0.27,0.72,0.27,1.14c0,0.55-0.11,1.05-0.32,1.5c-0.22,0.44-0.53,0.79-0.93,1.05
		C100.27,225.71,99.8,225.84,99.27,225.84z M99.29,225c0.22,0,0.42-0.05,0.61-0.16c0.19-0.11,0.36-0.26,0.5-0.45
		c0.14-0.19,0.25-0.42,0.33-0.67c0.08-0.26,0.11-0.53,0.11-0.82c0-0.27-0.04-0.5-0.13-0.71c-0.09-0.21-0.23-0.37-0.42-0.5
		c-0.19-0.12-0.43-0.19-0.72-0.19c-0.22,0-0.43,0.05-0.62,0.16s-0.36,0.25-0.5,0.44s-0.25,0.41-0.33,0.67
		c-0.08,0.26-0.12,0.54-0.12,0.83c0,0.25,0.05,0.49,0.14,0.7c0.09,0.21,0.23,0.38,0.42,0.5C98.76,224.94,99,225,99.29,225z"/>
	<path class="st0" d="M106.65,220.75h1.19l-3.07,5h-1.17l-0.8-5h1.06l0.55,4.46l-0.24-0.04L106.65,220.75z"/>
	<path class="st0" d="M110.25,225.84c-0.47,0-0.88-0.1-1.22-0.29c-0.34-0.2-0.6-0.46-0.79-0.8c-0.19-0.34-0.28-0.72-0.28-1.15
		c0-0.53,0.11-1.02,0.32-1.46c0.21-0.44,0.52-0.8,0.93-1.06s0.9-0.4,1.47-0.4c0.43,0,0.79,0.09,1.1,0.26
		c0.31,0.17,0.54,0.42,0.7,0.73s0.24,0.67,0.24,1.08c0,0.13-0.01,0.27-0.03,0.41c-0.02,0.14-0.05,0.28-0.09,0.42h-4.03v-0.82h3.45
		l-0.39,0.28c0.03-0.08,0.04-0.16,0.05-0.24c0.01-0.08,0.01-0.15,0.01-0.21c0-0.22-0.04-0.41-0.12-0.57
		c-0.08-0.16-0.2-0.28-0.36-0.37c-0.16-0.09-0.35-0.13-0.57-0.13c-0.3,0-0.56,0.06-0.77,0.19c-0.21,0.12-0.38,0.29-0.5,0.5
		s-0.22,0.44-0.27,0.69s-0.08,0.5-0.08,0.75c0,0.28,0.06,0.52,0.17,0.72c0.11,0.2,0.26,0.36,0.46,0.48s0.43,0.17,0.69,0.17
		c0.31,0,0.57-0.07,0.77-0.2s0.35-0.3,0.48-0.51l0.86,0.46c-0.13,0.23-0.31,0.42-0.52,0.58c-0.22,0.16-0.46,0.29-0.74,0.38
		C110.89,225.79,110.59,225.84,110.25,225.84z"/>
	<path class="st0" d="M113.44,225.75l1.16-5h0.9l-0.16,1.35l-0.11-0.1c0.11-0.28,0.25-0.52,0.44-0.72c0.18-0.2,0.4-0.35,0.63-0.47
		c0.24-0.11,0.49-0.16,0.75-0.16c0.11,0,0.2,0.01,0.28,0.02c0.08,0.01,0.16,0.04,0.22,0.07l-0.29,0.96
		c-0.07-0.03-0.14-0.06-0.23-0.08s-0.19-0.02-0.31-0.02c-0.24,0-0.47,0.06-0.68,0.17c-0.21,0.11-0.4,0.28-0.56,0.5
		c-0.16,0.23-0.28,0.52-0.37,0.89l-0.6,2.59H113.44z"/>
	<path class="st0" d="M119.45,225.83c-0.37,0-0.69-0.09-0.98-0.27c-0.29-0.18-0.51-0.42-0.67-0.74c-0.16-0.32-0.24-0.7-0.24-1.13
		c0-0.41,0.06-0.79,0.19-1.16c0.12-0.37,0.3-0.69,0.52-0.97c0.22-0.28,0.49-0.5,0.8-0.67s0.65-0.24,1.01-0.24
		c0.27,0,0.52,0.05,0.75,0.14c0.22,0.09,0.41,0.23,0.56,0.41c0.15,0.18,0.26,0.4,0.31,0.66l0.26-1.11h1.07l-1.16,5h-0.95l0.17-0.93
		c-0.17,0.31-0.39,0.55-0.68,0.73C120.12,225.74,119.8,225.83,119.45,225.83z M119.82,224.98c0.21,0,0.42-0.06,0.6-0.17
		s0.36-0.27,0.5-0.47c0.14-0.2,0.26-0.43,0.34-0.69c0.08-0.26,0.12-0.54,0.12-0.83c0-0.27-0.05-0.5-0.15-0.69s-0.23-0.35-0.4-0.46
		c-0.17-0.11-0.37-0.16-0.6-0.16c-0.25,0-0.47,0.06-0.67,0.17s-0.37,0.27-0.51,0.46c-0.14,0.2-0.25,0.42-0.33,0.68
		c-0.08,0.26-0.12,0.52-0.12,0.81c0,0.29,0.05,0.53,0.14,0.73c0.09,0.2,0.23,0.35,0.41,0.46
		C119.34,224.92,119.56,224.98,119.82,224.98z"/>
	<path class="st0" d="M124.97,225.83c-0.5,0-0.85-0.15-1.05-0.44s-0.24-0.68-0.13-1.16l1.33-5.73h1.07l-1.33,5.74
		c-0.07,0.26-0.05,0.45,0.05,0.56s0.27,0.17,0.52,0.17c0.09,0,0.17,0,0.25-0.01c0.07-0.01,0.13-0.02,0.19-0.03l-0.23,0.78
		c-0.11,0.04-0.21,0.07-0.31,0.08C125.23,225.82,125.11,225.83,124.97,225.83z"/>
	<path class="st0" d="M128.08,225.83c-0.5,0-0.85-0.15-1.05-0.44s-0.24-0.68-0.13-1.16l1.33-5.73h1.07l-1.33,5.74
		c-0.07,0.26-0.05,0.45,0.05,0.56s0.27,0.17,0.52,0.17c0.09,0,0.17,0,0.25-0.01c0.07-0.01,0.13-0.02,0.19-0.03l-0.23,0.78
		c-0.11,0.04-0.21,0.07-0.31,0.08C128.34,225.82,128.22,225.83,128.08,225.83z"/>
	<path class="st0" d="M14.74,239.85l1.64-7.1h0.95l-0.25,1.37l-0.12,0.07c0.08-0.32,0.21-0.59,0.39-0.82
		c0.18-0.23,0.41-0.4,0.68-0.52s0.56-0.18,0.86-0.18c0.34,0,0.65,0.08,0.92,0.25c0.27,0.17,0.48,0.41,0.64,0.73
		c0.16,0.32,0.24,0.7,0.24,1.15c0,0.42-0.06,0.81-0.19,1.18c-0.13,0.37-0.3,0.69-0.53,0.98c-0.23,0.28-0.49,0.5-0.79,0.66
		c-0.3,0.16-0.63,0.24-0.99,0.24c-0.31,0-0.6-0.06-0.85-0.18c-0.25-0.12-0.45-0.3-0.59-0.53c-0.15-0.24-0.23-0.52-0.25-0.85
		l0.17-0.16l-0.85,3.72H14.74z M18.04,236.99c0.22,0,0.43-0.06,0.62-0.17c0.19-0.11,0.36-0.27,0.51-0.46
		c0.15-0.2,0.26-0.43,0.34-0.69c0.08-0.26,0.12-0.53,0.12-0.82c0-0.29-0.05-0.53-0.15-0.73s-0.23-0.35-0.41-0.45
		c-0.18-0.1-0.38-0.16-0.61-0.16c-0.24,0-0.46,0.06-0.65,0.17c-0.19,0.11-0.36,0.27-0.5,0.46c-0.14,0.2-0.25,0.43-0.33,0.7
		s-0.11,0.55-0.11,0.85c0,0.39,0.1,0.7,0.3,0.94C17.36,236.87,17.65,236.99,18.04,236.99z"/>
	<path class="st0" d="M23.54,237.83c-0.37,0-0.69-0.09-0.98-0.27c-0.29-0.18-0.51-0.42-0.67-0.74c-0.16-0.32-0.24-0.7-0.24-1.13
		c0-0.41,0.06-0.79,0.19-1.16c0.12-0.37,0.3-0.69,0.52-0.97c0.22-0.28,0.49-0.5,0.8-0.67s0.65-0.24,1.01-0.24
		c0.27,0,0.52,0.05,0.75,0.14c0.22,0.09,0.41,0.23,0.56,0.41c0.15,0.18,0.26,0.4,0.31,0.66l0.26-1.11h1.07l-1.16,5h-0.95l0.17-0.93
		c-0.17,0.31-0.39,0.55-0.68,0.73C24.2,237.73,23.89,237.83,23.54,237.83z M23.91,236.98c0.21,0,0.42-0.06,0.6-0.17
		s0.36-0.27,0.5-0.47c0.14-0.2,0.26-0.43,0.34-0.69c0.08-0.26,0.12-0.54,0.12-0.83c0-0.27-0.05-0.5-0.15-0.69s-0.23-0.35-0.4-0.46
		c-0.17-0.11-0.37-0.16-0.6-0.16c-0.25,0-0.47,0.06-0.67,0.17s-0.37,0.27-0.51,0.46c-0.14,0.2-0.25,0.42-0.33,0.68
		c-0.08,0.26-0.12,0.52-0.12,0.81c0,0.29,0.05,0.53,0.14,0.73c0.09,0.2,0.23,0.35,0.41,0.46C23.43,236.92,23.65,236.98,23.91,236.98
		z"/>
	<path class="st0" d="M27.93,233.59l0.19-0.84h3.55l-0.19,0.84H27.93z M29.76,237.83c-0.35,0-0.64-0.06-0.88-0.19
		c-0.24-0.13-0.42-0.32-0.52-0.58s-0.11-0.56-0.03-0.92l1.03-4.48l1.15-0.32l-1.13,4.81c-0.07,0.29-0.03,0.5,0.12,0.63
		c0.15,0.13,0.34,0.19,0.57,0.19c0.16,0,0.3-0.02,0.42-0.06c0.12-0.04,0.22-0.09,0.31-0.16l0.08,0.79
		c-0.17,0.11-0.35,0.18-0.53,0.22C30.16,237.81,29.96,237.83,29.76,237.83z"/>
	<path class="st0" d="M33.92,232.75l-1.16,5h-1.07l1.16-5H33.92z M33.67,231.91c-0.2,0-0.36-0.05-0.48-0.16
		c-0.12-0.11-0.17-0.25-0.16-0.44c0.01-0.23,0.08-0.41,0.22-0.54s0.32-0.19,0.53-0.19c0.21,0,0.37,0.05,0.48,0.15
		c0.12,0.1,0.17,0.25,0.17,0.42c-0.01,0.25-0.09,0.43-0.23,0.56C34.06,231.84,33.88,231.91,33.67,231.91z"/>
	<path class="st0" d="M36.92,237.84c-0.47,0-0.88-0.1-1.22-0.29c-0.34-0.2-0.6-0.46-0.79-0.8c-0.19-0.34-0.28-0.72-0.28-1.15
		c0-0.53,0.11-1.02,0.32-1.46c0.21-0.44,0.52-0.8,0.93-1.06s0.9-0.4,1.47-0.4c0.43,0,0.79,0.09,1.1,0.26
		c0.31,0.17,0.54,0.42,0.7,0.73s0.24,0.67,0.24,1.08c0,0.13-0.01,0.27-0.03,0.41c-0.02,0.14-0.05,0.28-0.09,0.42h-4.03v-0.82h3.45
		l-0.39,0.28c0.03-0.08,0.04-0.16,0.05-0.24c0.01-0.08,0.01-0.15,0.01-0.21c0-0.22-0.04-0.41-0.12-0.57
		c-0.08-0.16-0.2-0.28-0.36-0.37c-0.16-0.09-0.35-0.13-0.57-0.13c-0.3,0-0.56,0.06-0.77,0.19c-0.21,0.12-0.38,0.29-0.5,0.5
		s-0.22,0.44-0.27,0.69s-0.08,0.5-0.08,0.75c0,0.28,0.06,0.52,0.17,0.72c0.11,0.2,0.26,0.36,0.46,0.48S36.73,237,37,237
		c0.31,0,0.57-0.07,0.77-0.2s0.35-0.3,0.48-0.51l0.86,0.46c-0.13,0.23-0.31,0.42-0.52,0.58c-0.22,0.16-0.46,0.29-0.74,0.38
		C37.55,237.79,37.25,237.84,36.92,237.84z"/>
	<path class="st0" d="M40.1,237.75l1.16-5h0.94L42,234.01l-0.1-0.07c0.14-0.43,0.39-0.75,0.74-0.96c0.35-0.22,0.74-0.32,1.17-0.32
		c0.37,0,0.69,0.08,0.95,0.24c0.26,0.16,0.44,0.4,0.55,0.7c0.11,0.3,0.11,0.67,0.01,1.1l-0.71,3.05h-1.07l0.7-3
		c0.09-0.38,0.05-0.68-0.11-0.9c-0.16-0.22-0.41-0.32-0.76-0.32c-0.27,0-0.5,0.06-0.71,0.18s-0.38,0.29-0.52,0.52
		s-0.25,0.52-0.34,0.87l-0.61,2.65H40.1z"/>
	<path class="st0" d="M46.43,233.59l0.19-0.84h3.55l-0.19,0.84H46.43z M48.26,237.83c-0.35,0-0.64-0.06-0.88-0.19
		c-0.24-0.13-0.42-0.32-0.52-0.58s-0.11-0.56-0.03-0.92l1.03-4.48l1.15-0.32l-1.13,4.81c-0.07,0.29-0.03,0.5,0.12,0.63
		c0.15,0.13,0.34,0.19,0.57,0.19c0.16,0,0.3-0.02,0.42-0.06c0.12-0.04,0.22-0.09,0.31-0.16l0.08,0.79
		c-0.17,0.11-0.35,0.18-0.53,0.22C48.67,237.81,48.47,237.83,48.26,237.83z"/>
	<path class="st0" d="M55.71,237.86c-0.38,0-0.73-0.06-1.04-0.17c-0.32-0.11-0.59-0.28-0.83-0.49s-0.42-0.46-0.55-0.75l0.81-0.49
		c0.14,0.34,0.34,0.6,0.61,0.78c0.27,0.18,0.6,0.27,0.98,0.27c0.31,0,0.54-0.06,0.71-0.18c0.17-0.12,0.25-0.28,0.25-0.48
		c0-0.15-0.05-0.27-0.14-0.35c-0.09-0.09-0.24-0.16-0.43-0.22l-0.8-0.24c-0.44-0.12-0.76-0.3-0.97-0.54
		c-0.21-0.24-0.31-0.51-0.31-0.82c0-0.3,0.08-0.56,0.24-0.79s0.39-0.41,0.69-0.54s0.65-0.2,1.06-0.2c0.49,0,0.92,0.1,1.29,0.3
		c0.37,0.2,0.65,0.49,0.82,0.87l-0.77,0.52c-0.07-0.17-0.18-0.32-0.31-0.45s-0.29-0.23-0.46-0.3c-0.18-0.07-0.37-0.11-0.58-0.11
		c-0.33,0-0.57,0.06-0.73,0.17c-0.16,0.11-0.24,0.26-0.24,0.44c0,0.17,0.06,0.29,0.19,0.38c0.13,0.09,0.28,0.16,0.45,0.21l0.97,0.29
		c0.35,0.1,0.62,0.26,0.81,0.48c0.19,0.22,0.29,0.47,0.29,0.77c0,0.34-0.08,0.63-0.25,0.88c-0.17,0.25-0.4,0.44-0.7,0.57
		C56.45,237.79,56.11,237.86,55.71,237.86z"/>
	<path class="st0" d="M60.61,237.83c-0.37,0-0.69-0.09-0.98-0.27c-0.29-0.18-0.51-0.42-0.67-0.74c-0.16-0.32-0.24-0.7-0.24-1.13
		c0-0.41,0.06-0.79,0.19-1.16c0.12-0.37,0.3-0.69,0.52-0.97c0.22-0.28,0.49-0.5,0.8-0.67s0.65-0.24,1.01-0.24
		c0.27,0,0.52,0.05,0.75,0.14c0.22,0.09,0.41,0.23,0.56,0.41c0.15,0.18,0.26,0.4,0.31,0.66l0.26-1.11h1.07l-1.16,5h-0.95l0.17-0.93
		c-0.17,0.31-0.39,0.55-0.68,0.73C61.28,237.73,60.96,237.83,60.61,237.83z M60.98,236.98c0.21,0,0.42-0.06,0.6-0.17
		s0.36-0.27,0.5-0.47c0.14-0.2,0.26-0.43,0.34-0.69c0.08-0.26,0.12-0.54,0.12-0.83c0-0.27-0.05-0.5-0.15-0.69s-0.23-0.35-0.4-0.46
		c-0.17-0.11-0.37-0.16-0.6-0.16c-0.25,0-0.47,0.06-0.67,0.17s-0.37,0.27-0.51,0.46c-0.14,0.2-0.25,0.42-0.33,0.68
		c-0.08,0.26-0.12,0.52-0.12,0.81c0,0.29,0.05,0.53,0.14,0.73c0.09,0.2,0.23,0.35,0.41,0.46C60.5,236.92,60.72,236.98,60.98,236.98z
		"/>
	<path class="st0" d="M65,233.59l0.19-0.84h3.55l-0.19,0.84H65z M66.83,237.83c-0.35,0-0.64-0.06-0.88-0.19
		c-0.24-0.13-0.42-0.32-0.52-0.58s-0.11-0.56-0.03-0.92l1.03-4.48l1.15-0.32l-1.13,4.81c-0.07,0.29-0.03,0.5,0.12,0.63
		c0.15,0.13,0.34,0.19,0.57,0.19c0.16,0,0.3-0.02,0.42-0.06c0.12-0.04,0.22-0.09,0.31-0.16l0.08,0.79
		c-0.17,0.11-0.35,0.18-0.53,0.22C67.23,237.81,67.04,237.83,66.83,237.83z"/>
	<path class="st0" d="M70.99,232.75l-1.16,5h-1.07l1.16-5H70.99z M70.74,231.91c-0.2,0-0.36-0.05-0.48-0.16
		c-0.12-0.11-0.17-0.25-0.16-0.44c0.01-0.23,0.08-0.41,0.22-0.54s0.32-0.19,0.53-0.19c0.21,0,0.37,0.05,0.48,0.15
		c0.12,0.1,0.17,0.25,0.17,0.42c-0.01,0.25-0.09,0.43-0.23,0.56C71.13,231.84,70.95,231.91,70.74,231.91z"/>
	<path class="st0" d="M73.74,237.86c-0.38,0-0.73-0.06-1.04-0.17c-0.32-0.11-0.59-0.28-0.83-0.49s-0.42-0.46-0.55-0.75l0.81-0.49
		c0.14,0.34,0.34,0.6,0.61,0.78c0.27,0.18,0.6,0.27,0.98,0.27c0.31,0,0.54-0.06,0.71-0.18c0.17-0.12,0.25-0.28,0.25-0.48
		c0-0.15-0.05-0.27-0.14-0.35c-0.09-0.09-0.24-0.16-0.43-0.22l-0.8-0.24c-0.44-0.12-0.76-0.3-0.97-0.54
		c-0.21-0.24-0.31-0.51-0.31-0.82c0-0.3,0.08-0.56,0.24-0.79s0.39-0.41,0.69-0.54s0.65-0.2,1.06-0.2c0.49,0,0.92,0.1,1.29,0.3
		c0.37,0.2,0.65,0.49,0.82,0.87l-0.77,0.52c-0.07-0.17-0.18-0.32-0.31-0.45s-0.29-0.23-0.46-0.3c-0.18-0.07-0.37-0.11-0.58-0.11
		c-0.33,0-0.57,0.06-0.73,0.17c-0.16,0.11-0.24,0.26-0.24,0.44c0,0.17,0.06,0.29,0.19,0.38c0.13,0.09,0.28,0.16,0.45,0.21l0.97,0.29
		c0.35,0.1,0.62,0.26,0.81,0.48c0.19,0.22,0.29,0.47,0.29,0.77c0,0.34-0.08,0.63-0.25,0.88c-0.17,0.25-0.4,0.44-0.7,0.57
		C74.48,237.79,74.13,237.86,73.74,237.86z"/>
	<path class="st0" d="M76.96,233.59l0.2-0.84h3.52l-0.2,0.84H76.96z M76.98,237.75l1.34-5.8c0.09-0.37,0.21-0.66,0.38-0.88
		c0.17-0.22,0.38-0.38,0.63-0.48c0.25-0.1,0.54-0.15,0.87-0.15c0.21,0,0.4,0.02,0.57,0.06s0.31,0.1,0.4,0.17l-0.3,0.78
		c-0.06-0.04-0.14-0.08-0.25-0.11c-0.11-0.03-0.23-0.05-0.36-0.05c-0.27,0-0.48,0.06-0.63,0.19c-0.15,0.12-0.25,0.34-0.32,0.65
		l-0.16,0.71l-0.04,0.27l-1.07,4.64H76.98z"/>
	<path class="st0" d="M82.67,237.83c-0.37,0-0.69-0.09-0.98-0.27c-0.29-0.18-0.51-0.42-0.67-0.74c-0.16-0.32-0.24-0.7-0.24-1.13
		c0-0.41,0.06-0.79,0.19-1.16c0.12-0.37,0.3-0.69,0.52-0.97c0.22-0.28,0.49-0.5,0.8-0.67s0.65-0.24,1.01-0.24
		c0.27,0,0.52,0.05,0.75,0.14c0.22,0.09,0.41,0.23,0.56,0.41c0.15,0.18,0.26,0.4,0.31,0.66l0.26-1.11h1.07l-1.16,5h-0.95l0.17-0.93
		c-0.17,0.31-0.39,0.55-0.68,0.73C83.33,237.73,83.02,237.83,82.67,237.83z M83.04,236.98c0.21,0,0.42-0.06,0.6-0.17
		s0.36-0.27,0.5-0.47c0.14-0.2,0.26-0.43,0.34-0.69c0.08-0.26,0.12-0.54,0.12-0.83c0-0.27-0.05-0.5-0.15-0.69s-0.23-0.35-0.4-0.46
		c-0.17-0.11-0.37-0.16-0.6-0.16c-0.25,0-0.47,0.06-0.67,0.17s-0.37,0.27-0.51,0.46c-0.14,0.2-0.25,0.42-0.33,0.68
		c-0.08,0.26-0.12,0.52-0.12,0.81c0,0.29,0.05,0.53,0.14,0.73c0.09,0.2,0.23,0.35,0.41,0.46C82.56,236.92,82.78,236.98,83.04,236.98
		z"/>
	<path class="st0" d="M89.27,237.84c-0.48,0-0.89-0.1-1.23-0.3c-0.34-0.2-0.61-0.47-0.79-0.81c-0.18-0.34-0.27-0.73-0.27-1.15
		c0-0.57,0.11-1.07,0.33-1.5c0.22-0.44,0.54-0.78,0.94-1.04c0.4-0.25,0.88-0.38,1.42-0.38c0.4,0,0.75,0.07,1.05,0.21
		s0.55,0.33,0.73,0.57c0.18,0.25,0.29,0.53,0.33,0.84l-1.07,0.22c-0.01-0.28-0.11-0.52-0.29-0.71s-0.44-0.29-0.8-0.29
		c-0.23,0-0.45,0.06-0.64,0.17s-0.36,0.26-0.5,0.45c-0.14,0.19-0.25,0.41-0.33,0.67c-0.08,0.26-0.11,0.53-0.11,0.83
		c0,0.27,0.05,0.5,0.15,0.71s0.25,0.38,0.44,0.5c0.19,0.12,0.42,0.18,0.7,0.18c0.23,0,0.45-0.06,0.66-0.19s0.35-0.32,0.44-0.56
		l1,0.35c-0.18,0.4-0.46,0.71-0.84,0.92C90.21,237.73,89.77,237.84,89.27,237.84z"/>
	<path class="st0" d="M92.49,233.59l0.19-0.84h3.55l-0.19,0.84H92.49z M94.32,237.83c-0.35,0-0.64-0.06-0.88-0.19
		c-0.24-0.13-0.42-0.32-0.52-0.58s-0.11-0.56-0.03-0.92l1.03-4.48l1.15-0.32l-1.13,4.81c-0.07,0.29-0.03,0.5,0.12,0.63
		c0.15,0.13,0.34,0.19,0.57,0.19c0.16,0,0.3-0.02,0.42-0.06c0.12-0.04,0.22-0.09,0.31-0.16l0.08,0.79
		c-0.17,0.11-0.35,0.18-0.53,0.22C94.72,237.81,94.52,237.83,94.32,237.83z"/>
	<path class="st0" d="M98.48,232.75l-1.16,5h-1.07l1.16-5H98.48z M98.23,231.91c-0.2,0-0.36-0.05-0.48-0.16
		c-0.12-0.11-0.17-0.25-0.16-0.44c0.01-0.23,0.08-0.41,0.22-0.54s0.32-0.19,0.53-0.19c0.21,0,0.37,0.05,0.48,0.15
		c0.12,0.1,0.17,0.25,0.17,0.42c-0.01,0.25-0.09,0.43-0.23,0.56C98.62,231.84,98.44,231.91,98.23,231.91z"/>
	<path class="st0" d="M101.52,237.84c-0.49,0-0.91-0.1-1.25-0.3c-0.34-0.2-0.61-0.47-0.79-0.81c-0.19-0.34-0.28-0.72-0.28-1.13
		c0-0.57,0.11-1.07,0.33-1.51c0.22-0.44,0.53-0.79,0.93-1.04c0.4-0.25,0.86-0.38,1.4-0.38c0.49,0,0.91,0.1,1.25,0.3
		c0.34,0.2,0.6,0.47,0.78,0.81c0.18,0.34,0.27,0.72,0.27,1.14c0,0.55-0.11,1.05-0.32,1.5c-0.22,0.44-0.53,0.79-0.93,1.05
		C102.52,237.71,102.05,237.84,101.52,237.84z M101.54,237c0.22,0,0.42-0.05,0.61-0.16c0.19-0.11,0.36-0.26,0.5-0.45
		c0.14-0.19,0.25-0.42,0.33-0.67c0.08-0.26,0.11-0.53,0.11-0.82c0-0.27-0.04-0.5-0.13-0.71c-0.09-0.21-0.23-0.37-0.42-0.5
		c-0.19-0.12-0.43-0.19-0.72-0.19c-0.22,0-0.43,0.05-0.62,0.16s-0.36,0.25-0.5,0.44s-0.25,0.41-0.33,0.67
		c-0.08,0.26-0.12,0.54-0.12,0.83c0,0.25,0.05,0.49,0.14,0.7c0.09,0.21,0.23,0.38,0.42,0.5C101.01,236.93,101.25,237,101.54,237z"/>
	<path class="st0" d="M104.87,237.75l1.16-5h0.94l-0.21,1.26l-0.1-0.07c0.14-0.43,0.39-0.75,0.74-0.96
		c0.35-0.22,0.74-0.32,1.17-0.32c0.37,0,0.69,0.08,0.95,0.24c0.26,0.16,0.44,0.4,0.55,0.7c0.11,0.3,0.11,0.67,0.01,1.1l-0.71,3.05
		h-1.07l0.7-3c0.09-0.38,0.05-0.68-0.11-0.9c-0.16-0.22-0.41-0.32-0.76-0.32c-0.27,0-0.5,0.06-0.71,0.18s-0.38,0.29-0.52,0.52
		s-0.25,0.52-0.34,0.87l-0.61,2.65H104.87z"/>
	<path class="st0" d="M114.84,237.75l-0.46-5h1.04l0.27,3.88l2-3.88h1.06l0.42,3.93l2-3.93h1.14l-2.71,5h-1.17l-0.45-3.7l-1.95,3.7
		H114.84z"/>
	<path class="st0" d="M124.38,232.75l-1.16,5h-1.07l1.16-5H124.38z M124.13,231.91c-0.2,0-0.36-0.05-0.48-0.16
		c-0.12-0.11-0.17-0.25-0.16-0.44c0.01-0.23,0.08-0.41,0.22-0.54s0.32-0.19,0.53-0.19c0.21,0,0.37,0.05,0.48,0.15
		c0.12,0.1,0.17,0.25,0.17,0.42c-0.01,0.25-0.09,0.43-0.23,0.56C124.52,231.84,124.35,231.91,124.13,231.91z"/>
	<path class="st0" d="M125.18,233.59l0.19-0.84h3.55l-0.19,0.84H125.18z M127.01,237.83c-0.35,0-0.64-0.06-0.88-0.19
		c-0.24-0.13-0.42-0.32-0.52-0.58s-0.11-0.56-0.03-0.92l1.03-4.48l1.15-0.32l-1.13,4.81c-0.07,0.29-0.03,0.5,0.12,0.63
		c0.15,0.13,0.34,0.19,0.57,0.19c0.16,0,0.3-0.02,0.42-0.06c0.12-0.04,0.22-0.09,0.31-0.16l0.08,0.79
		c-0.17,0.11-0.35,0.18-0.53,0.22C127.41,237.81,127.22,237.83,127.01,237.83z"/>
	<path class="st0" d="M128.98,237.75l1.68-7.25h1.07l-0.76,3.29l-0.16,0.12c0.09-0.27,0.22-0.49,0.41-0.68
		c0.19-0.19,0.41-0.33,0.66-0.43s0.52-0.15,0.81-0.15c0.36,0,0.67,0.08,0.93,0.24c0.26,0.16,0.44,0.4,0.55,0.69
		c0.11,0.3,0.12,0.66,0.03,1.09l-0.72,3.07h-1.07l0.7-3c0.09-0.38,0.05-0.68-0.11-0.9c-0.16-0.22-0.41-0.32-0.76-0.32
		c-0.27,0-0.5,0.06-0.71,0.18s-0.38,0.29-0.52,0.52s-0.25,0.52-0.34,0.87l-0.61,2.65H128.98z"/>
	<path class="st0" d="M18.61,249.84c-0.53,0-1.01-0.11-1.44-0.33c-0.43-0.22-0.78-0.54-1.03-0.96c-0.25-0.42-0.38-0.94-0.38-1.55
		c0-0.51,0.07-1,0.22-1.47c0.15-0.47,0.37-0.89,0.66-1.27c0.29-0.37,0.66-0.67,1.08-0.89c0.43-0.22,0.92-0.33,1.48-0.33
		c0.44,0,0.83,0.07,1.17,0.22c0.34,0.14,0.63,0.36,0.86,0.64s0.4,0.65,0.51,1.08l-1.09,0.31c-0.09-0.47-0.26-0.8-0.51-1.01
		c-0.25-0.21-0.59-0.31-1.02-0.31c-0.37,0-0.7,0.09-0.98,0.26c-0.28,0.18-0.52,0.41-0.71,0.69c-0.19,0.28-0.33,0.6-0.43,0.95
		c-0.1,0.35-0.15,0.7-0.15,1.05c0,0.41,0.08,0.77,0.23,1.06c0.16,0.29,0.37,0.52,0.65,0.68s0.58,0.24,0.93,0.24
		c0.41,0,0.73-0.09,0.96-0.27c0.24-0.18,0.43-0.42,0.59-0.73l1,0.44c-0.27,0.45-0.62,0.81-1.04,1.08
		C19.78,249.71,19.25,249.84,18.61,249.84z"/>
	<path class="st0" d="M24.55,249.83c-0.49,0-0.91-0.1-1.25-0.3c-0.34-0.2-0.61-0.47-0.79-0.81c-0.19-0.34-0.28-0.72-0.28-1.13
		c0-0.57,0.11-1.07,0.33-1.51c0.22-0.44,0.53-0.79,0.93-1.04c0.4-0.25,0.86-0.38,1.4-0.38c0.49,0,0.91,0.1,1.25,0.3
		c0.34,0.2,0.6,0.47,0.78,0.81c0.18,0.34,0.27,0.72,0.27,1.14c0,0.55-0.11,1.05-0.32,1.5c-0.22,0.44-0.53,0.79-0.93,1.05
		C25.55,249.71,25.08,249.83,24.55,249.83z M24.57,248.99c0.22,0,0.42-0.05,0.61-0.16c0.19-0.11,0.36-0.26,0.5-0.45
		c0.14-0.19,0.25-0.42,0.33-0.67c0.08-0.26,0.11-0.53,0.11-0.82c0-0.27-0.04-0.5-0.13-0.71c-0.09-0.21-0.23-0.37-0.42-0.5
		c-0.19-0.12-0.43-0.19-0.72-0.19c-0.22,0-0.43,0.05-0.62,0.16s-0.36,0.25-0.5,0.44s-0.25,0.41-0.33,0.67
		c-0.08,0.26-0.12,0.54-0.12,0.83c0,0.25,0.05,0.49,0.14,0.7c0.09,0.21,0.23,0.38,0.42,0.5C24.04,248.93,24.28,248.99,24.57,248.99z
		"/>
	<path class="st0" d="M30.51,249.83c-0.49,0-0.91-0.1-1.25-0.3c-0.34-0.2-0.61-0.47-0.79-0.81c-0.19-0.34-0.28-0.72-0.28-1.13
		c0-0.57,0.11-1.07,0.33-1.51c0.22-0.44,0.53-0.79,0.93-1.04c0.4-0.25,0.86-0.38,1.4-0.38c0.49,0,0.91,0.1,1.25,0.3
		c0.34,0.2,0.6,0.47,0.78,0.81c0.18,0.34,0.27,0.72,0.27,1.14c0,0.55-0.11,1.05-0.32,1.5c-0.22,0.44-0.53,0.79-0.93,1.05
		C31.51,249.71,31.04,249.83,30.51,249.83z M30.53,248.99c0.22,0,0.42-0.05,0.61-0.16c0.19-0.11,0.36-0.26,0.5-0.45
		c0.14-0.19,0.25-0.42,0.33-0.67c0.08-0.26,0.11-0.53,0.11-0.82c0-0.27-0.04-0.5-0.13-0.71c-0.09-0.21-0.23-0.37-0.42-0.5
		c-0.19-0.12-0.43-0.19-0.72-0.19c-0.22,0-0.43,0.05-0.62,0.16s-0.36,0.25-0.5,0.44s-0.25,0.41-0.33,0.67
		c-0.08,0.26-0.12,0.54-0.12,0.83c0,0.25,0.05,0.49,0.14,0.7c0.09,0.21,0.23,0.38,0.42,0.5C30,248.93,30.24,248.99,30.53,248.99z"/>
	<path class="st0" d="M35.37,249.82c-0.5,0-0.85-0.15-1.05-0.44s-0.24-0.68-0.13-1.16l1.33-5.73h1.07l-1.33,5.74
		c-0.07,0.26-0.05,0.45,0.05,0.56s0.27,0.17,0.52,0.17c0.09,0,0.17,0,0.25-0.01c0.07-0.01,0.13-0.02,0.19-0.03l-0.23,0.78
		c-0.11,0.04-0.21,0.07-0.31,0.08C35.62,249.82,35.51,249.82,35.37,249.82z"/>
	<path class="st0" d="M40.11,249.83c-0.48,0-0.92-0.07-1.32-0.21c-0.4-0.14-0.75-0.35-1.04-0.62c-0.29-0.27-0.53-0.61-0.7-1.02
		l0.87-0.58c0.13,0.36,0.3,0.65,0.53,0.88c0.23,0.22,0.49,0.39,0.79,0.49c0.3,0.1,0.61,0.15,0.93,0.15c0.29,0,0.54-0.05,0.73-0.15
		c0.19-0.1,0.34-0.22,0.44-0.37s0.15-0.32,0.15-0.49c0-0.22-0.07-0.39-0.21-0.51c-0.14-0.12-0.35-0.23-0.62-0.31l-1.04-0.3
		c-0.33-0.1-0.62-0.23-0.85-0.4c-0.24-0.16-0.42-0.36-0.55-0.58c-0.13-0.22-0.19-0.47-0.19-0.75c0-0.39,0.1-0.73,0.31-1.04
		s0.5-0.55,0.87-0.72c0.37-0.17,0.8-0.26,1.3-0.26c0.66,0,1.21,0.13,1.65,0.39c0.44,0.26,0.78,0.65,1,1.17l-0.88,0.56
		c-0.1-0.32-0.25-0.56-0.44-0.73s-0.4-0.29-0.64-0.35c-0.24-0.07-0.48-0.1-0.75-0.1c-0.29,0-0.54,0.04-0.73,0.12
		c-0.2,0.08-0.34,0.2-0.44,0.35c-0.1,0.15-0.15,0.31-0.15,0.48c0,0.2,0.08,0.38,0.24,0.54c0.16,0.16,0.38,0.28,0.65,0.36l1.12,0.34
		c0.49,0.15,0.86,0.35,1.1,0.61c0.24,0.26,0.36,0.59,0.36,0.98c0,0.43-0.11,0.79-0.33,1.1s-0.52,0.55-0.89,0.72
		C40.98,249.75,40.57,249.83,40.11,249.83z"/>
	<path class="st0" d="M45.95,249.83c-0.48,0-0.89-0.1-1.23-0.3c-0.34-0.2-0.61-0.47-0.79-0.81c-0.18-0.34-0.27-0.73-0.27-1.15
		c0-0.57,0.11-1.07,0.33-1.5c0.22-0.44,0.54-0.78,0.94-1.04c0.4-0.25,0.88-0.38,1.42-0.38c0.4,0,0.75,0.07,1.05,0.21
		s0.55,0.33,0.73,0.57c0.18,0.25,0.29,0.53,0.33,0.84l-1.07,0.22c-0.01-0.28-0.11-0.52-0.29-0.71s-0.44-0.29-0.8-0.29
		c-0.23,0-0.45,0.06-0.64,0.17s-0.36,0.26-0.5,0.45c-0.14,0.19-0.25,0.41-0.33,0.67c-0.08,0.26-0.11,0.53-0.11,0.83
		c0,0.27,0.05,0.5,0.15,0.71s0.25,0.38,0.44,0.5c0.19,0.12,0.42,0.18,0.7,0.18c0.23,0,0.45-0.06,0.66-0.19s0.35-0.32,0.44-0.56
		l1,0.35c-0.18,0.4-0.46,0.71-0.84,0.92C46.88,249.73,46.44,249.83,45.95,249.83z"/>
	<path class="st0" d="M50.7,249.82c-0.36,0-0.68-0.08-0.94-0.24c-0.27-0.16-0.46-0.39-0.58-0.69c-0.12-0.3-0.12-0.66-0.02-1.09
		l0.71-3.06h1.07l-0.69,2.97c-0.09,0.4-0.06,0.71,0.11,0.92s0.42,0.31,0.77,0.31c0.27,0,0.5-0.06,0.7-0.18
		c0.2-0.12,0.38-0.29,0.52-0.52s0.25-0.52,0.32-0.85l0.62-2.65h1.07l-1.16,5h-0.95l0.21-1.26l0.1,0.08
		c-0.13,0.42-0.37,0.73-0.71,0.94S51.13,249.82,50.7,249.82z"/>
	<path class="st0" d="M56.29,249.82c-0.5,0-0.85-0.15-1.05-0.44s-0.24-0.68-0.13-1.16l1.33-5.73h1.07l-1.33,5.74
		c-0.07,0.26-0.05,0.45,0.05,0.56s0.27,0.17,0.52,0.17c0.09,0,0.17,0,0.25-0.01c0.07-0.01,0.13-0.02,0.19-0.03l-0.23,0.78
		c-0.11,0.04-0.21,0.07-0.31,0.08C56.55,249.82,56.43,249.82,56.29,249.82z"/>
	<path class="st0" d="M57.42,251.84l1.64-7.1h0.95l-0.25,1.37l-0.12,0.07c0.08-0.32,0.21-0.59,0.39-0.82
		c0.18-0.23,0.41-0.4,0.68-0.52s0.56-0.18,0.86-0.18c0.34,0,0.65,0.08,0.92,0.25c0.27,0.17,0.48,0.41,0.64,0.73
		c0.16,0.32,0.24,0.7,0.24,1.15c0,0.42-0.06,0.81-0.19,1.18c-0.13,0.37-0.3,0.69-0.53,0.98c-0.23,0.28-0.49,0.5-0.79,0.66
		c-0.3,0.16-0.63,0.24-0.99,0.24c-0.31,0-0.6-0.06-0.85-0.18c-0.25-0.12-0.45-0.3-0.59-0.53c-0.15-0.24-0.23-0.52-0.25-0.85
		l0.17-0.16l-0.85,3.72H57.42z M60.72,248.98c0.22,0,0.43-0.06,0.62-0.17c0.19-0.11,0.36-0.27,0.51-0.46
		c0.15-0.2,0.26-0.43,0.34-0.69c0.08-0.26,0.12-0.53,0.12-0.82c0-0.29-0.05-0.53-0.15-0.73s-0.23-0.35-0.41-0.45
		c-0.18-0.1-0.38-0.16-0.61-0.16c-0.24,0-0.46,0.06-0.65,0.17c-0.19,0.11-0.36,0.27-0.5,0.46c-0.14,0.2-0.25,0.43-0.33,0.7
		s-0.11,0.55-0.11,0.85c0,0.39,0.1,0.7,0.3,0.94C60.04,248.87,60.34,248.98,60.72,248.98z"/>
	<path class="st0" d="M64.26,245.58l0.19-0.84H68l-0.19,0.84H64.26z M66.09,249.82c-0.35,0-0.64-0.06-0.88-0.19
		c-0.24-0.13-0.42-0.32-0.52-0.58s-0.11-0.56-0.03-0.92l1.03-4.48l1.15-0.32l-1.13,4.81c-0.07,0.29-0.03,0.5,0.12,0.63
		c0.15,0.13,0.34,0.19,0.57,0.19c0.16,0,0.3-0.02,0.42-0.06c0.12-0.04,0.22-0.09,0.31-0.16l0.08,0.79
		c-0.17,0.11-0.35,0.18-0.53,0.22C66.49,249.8,66.3,249.82,66.09,249.82z"/>
	<path class="st0" d="M70.25,244.74l-1.16,5h-1.07l1.16-5H70.25z M70,243.9c-0.2,0-0.36-0.05-0.48-0.16
		c-0.12-0.11-0.17-0.25-0.16-0.44c0.01-0.23,0.08-0.41,0.22-0.54s0.32-0.19,0.53-0.19c0.21,0,0.37,0.05,0.48,0.15
		c0.12,0.1,0.17,0.25,0.17,0.42c-0.01,0.25-0.09,0.43-0.23,0.56C70.39,243.84,70.21,243.9,70,243.9z"/>
	<path class="st0" d="M70.69,249.74l1.16-5h0.94L72.58,246l-0.1-0.07c0.14-0.43,0.39-0.75,0.74-0.96c0.35-0.22,0.74-0.32,1.17-0.32
		c0.37,0,0.69,0.08,0.95,0.24c0.26,0.16,0.44,0.4,0.55,0.7c0.11,0.3,0.11,0.67,0.01,1.1l-0.71,3.05h-1.07l0.7-3
		c0.09-0.38,0.05-0.68-0.11-0.9c-0.16-0.22-0.41-0.32-0.76-0.32c-0.27,0-0.5,0.06-0.71,0.18s-0.38,0.29-0.52,0.52
		s-0.25,0.52-0.34,0.87l-0.61,2.65H70.69z"/>
	<path class="st0" d="M78.62,251.89c-0.29,0-0.56-0.04-0.82-0.12s-0.49-0.19-0.69-0.33c-0.2-0.14-0.36-0.32-0.48-0.52
		c-0.12-0.21-0.2-0.44-0.23-0.7l1.07-0.26c0.05,0.35,0.17,0.62,0.35,0.81c0.18,0.2,0.48,0.29,0.9,0.29c0.23,0,0.44-0.04,0.64-0.13
		c0.2-0.09,0.38-0.23,0.53-0.43c0.15-0.2,0.27-0.49,0.35-0.87l0.28-1.27l0.12-0.08c-0.1,0.41-0.31,0.73-0.62,0.97
		c-0.31,0.24-0.68,0.36-1.11,0.36c-0.37,0-0.71-0.09-1-0.27c-0.29-0.18-0.52-0.43-0.69-0.75c-0.17-0.32-0.25-0.68-0.25-1.08
		c0-0.41,0.06-0.79,0.19-1.14c0.12-0.35,0.3-0.65,0.52-0.92c0.22-0.26,0.49-0.47,0.79-0.61c0.31-0.14,0.64-0.21,1.01-0.21
		c0.31,0,0.59,0.06,0.84,0.18c0.25,0.12,0.44,0.3,0.59,0.54c0.15,0.24,0.23,0.52,0.23,0.86l-0.16,0.13l0.37-1.62h1.07l-1.15,4.92
		c-0.12,0.54-0.31,0.97-0.56,1.29s-0.55,0.56-0.9,0.71C79.46,251.82,79.06,251.89,78.62,251.89z M79.28,248.77
		c0.29,0,0.54-0.09,0.76-0.27c0.22-0.18,0.4-0.42,0.54-0.71c0.13-0.3,0.2-0.63,0.2-1c0-0.27-0.05-0.49-0.14-0.68
		c-0.09-0.19-0.23-0.34-0.41-0.45c-0.18-0.11-0.38-0.16-0.61-0.16c-0.32,0-0.6,0.08-0.83,0.25c-0.24,0.17-0.42,0.4-0.55,0.69
		c-0.13,0.29-0.2,0.63-0.2,1c0,0.39,0.11,0.7,0.33,0.95C78.57,248.65,78.88,248.77,79.28,248.77z"/>
	<path class="st0" d="M87.61,251.64c-0.37-0.51-0.65-1.1-0.84-1.75c-0.2-0.65-0.29-1.32-0.29-1.99c0-0.57,0.07-1.13,0.22-1.68
		s0.37-1.07,0.65-1.56c0.28-0.49,0.62-0.94,1.04-1.34c0.41-0.4,0.87-0.75,1.39-1.04l0.41,0.59c-0.59,0.39-1.09,0.85-1.5,1.39
		c-0.4,0.54-0.71,1.14-0.91,1.78c-0.2,0.64-0.31,1.31-0.31,2c0,0.57,0.07,1.13,0.21,1.68c0.14,0.55,0.33,1.03,0.58,1.46
		L87.61,251.64z"/>
	<path class="st0" d="M89.35,249.74l1.16-5h0.94L91.24,246l-0.1-0.07c0.14-0.43,0.39-0.75,0.74-0.96c0.35-0.22,0.74-0.32,1.17-0.32
		c0.37,0,0.69,0.08,0.95,0.24c0.26,0.16,0.44,0.4,0.55,0.7c0.11,0.3,0.11,0.67,0.01,1.1l-0.71,3.05h-1.07l0.7-3
		c0.09-0.38,0.05-0.68-0.11-0.9c-0.16-0.22-0.41-0.32-0.76-0.32c-0.27,0-0.5,0.06-0.71,0.18s-0.38,0.29-0.52,0.52
		s-0.25,0.52-0.34,0.87l-0.61,2.65H89.35z"/>
	<path class="st0" d="M100.56,247.25l-0.2,0.88H95.6l0.2-0.88H100.56z M101.03,245.2l-0.2,0.88h-4.76l0.2-0.88H101.03z"/>
	<path class="st0" d="M102.49,249.74l1.01-4.38c0.05-0.21,0.1-0.39,0.15-0.56c0.05-0.16,0.1-0.33,0.15-0.49
		c-0.13,0.13-0.31,0.25-0.52,0.36c-0.22,0.12-0.44,0.22-0.68,0.31c-0.24,0.09-0.46,0.15-0.68,0.19l0.07-0.98
		c0.23-0.05,0.49-0.14,0.77-0.25c0.28-0.12,0.55-0.25,0.81-0.39c0.26-0.14,0.46-0.28,0.6-0.4h0.9l-1.53,6.6H102.49z"/>
	<path class="st0" d="M108.14,249.83c-0.48,0-0.89-0.11-1.23-0.32c-0.34-0.21-0.6-0.51-0.79-0.89c-0.18-0.38-0.27-0.83-0.27-1.34
		c0-0.23,0.01-0.45,0.04-0.68c0.03-0.23,0.06-0.45,0.11-0.67c0.09-0.4,0.22-0.77,0.38-1.12c0.16-0.35,0.37-0.66,0.61-0.92
		s0.53-0.47,0.85-0.62s0.69-0.22,1.1-0.22c0.46,0,0.85,0.1,1.18,0.31c0.33,0.21,0.58,0.5,0.75,0.89c0.18,0.38,0.26,0.82,0.26,1.33
		c0,0.23-0.01,0.45-0.04,0.67c-0.03,0.22-0.06,0.44-0.11,0.67c-0.09,0.4-0.22,0.78-0.38,1.13c-0.16,0.35-0.36,0.66-0.6,0.93
		s-0.51,0.48-0.82,0.63S108.53,249.83,108.14,249.83z M108.2,248.92c0.3,0,0.56-0.09,0.79-0.28c0.23-0.19,0.42-0.44,0.58-0.77
		c0.16-0.33,0.28-0.69,0.36-1.08c0.06-0.22,0.1-0.44,0.12-0.65s0.04-0.41,0.04-0.6c0-0.56-0.11-0.97-0.33-1.22
		c-0.22-0.25-0.51-0.38-0.88-0.38c-0.31,0-0.59,0.1-0.83,0.29c-0.24,0.19-0.44,0.45-0.6,0.77c-0.16,0.32-0.3,0.69-0.4,1.09
		c-0.05,0.21-0.08,0.42-0.11,0.63c-0.03,0.21-0.04,0.41-0.04,0.6c0,0.38,0.06,0.69,0.17,0.92c0.11,0.24,0.27,0.41,0.47,0.51
		C107.74,248.87,107.96,248.92,108.2,248.92z"/>
	<path class="st0" d="M114.59,249.84c-0.53,0-0.97-0.11-1.32-0.32c-0.36-0.21-0.62-0.51-0.81-0.9c-0.18-0.39-0.27-0.84-0.27-1.36
		c0-0.53,0.06-1.05,0.19-1.55c0.13-0.5,0.32-0.95,0.58-1.35c0.26-0.4,0.59-0.72,0.99-0.96c0.4-0.24,0.87-0.35,1.41-0.35
		c0.51,0,0.96,0.12,1.34,0.37c0.38,0.25,0.62,0.63,0.73,1.16l-1,0.35c-0.04-0.3-0.17-0.53-0.39-0.7c-0.22-0.17-0.47-0.25-0.76-0.25
		c-0.32,0-0.6,0.08-0.84,0.24c-0.24,0.16-0.45,0.37-0.61,0.63c-0.16,0.26-0.29,0.55-0.39,0.86c-0.1,0.32-0.17,0.64-0.21,0.96
		c0.12-0.34,0.35-0.6,0.68-0.78c0.33-0.18,0.69-0.27,1.08-0.27c0.59,0,1.05,0.17,1.4,0.5c0.34,0.33,0.51,0.78,0.51,1.33
		c0,0.45-0.09,0.86-0.28,1.22c-0.19,0.36-0.46,0.65-0.8,0.85S115.07,249.84,114.59,249.84z M114.6,248.94c0.27,0,0.5-0.06,0.69-0.19
		c0.18-0.12,0.32-0.29,0.42-0.5c0.09-0.21,0.14-0.43,0.14-0.68c0-0.32-0.1-0.58-0.31-0.79s-0.52-0.31-0.92-0.31
		c-0.27,0-0.51,0.06-0.7,0.19s-0.34,0.28-0.43,0.48c-0.1,0.2-0.15,0.41-0.15,0.63c0,0.19,0.03,0.35,0.09,0.5
		c0.06,0.14,0.15,0.27,0.27,0.37c0.12,0.1,0.25,0.18,0.41,0.23C114.26,248.92,114.42,248.94,114.6,248.94z"/>
	<path class="st0" d="M119.14,242.27c0.37,0.51,0.65,1.1,0.84,1.75c0.2,0.65,0.29,1.32,0.29,1.99c0,0.57-0.08,1.13-0.23,1.68
		c-0.15,0.55-0.36,1.07-0.65,1.56c-0.28,0.49-0.62,0.94-1.03,1.34c-0.41,0.4-0.88,0.75-1.39,1.04l-0.41-0.59
		c0.59-0.39,1.09-0.85,1.49-1.4c0.4-0.54,0.71-1.14,0.91-1.78c0.2-0.64,0.3-1.31,0.3-2c0-0.57-0.07-1.13-0.21-1.68
		c-0.14-0.55-0.33-1.03-0.58-1.46L119.14,242.27z"/>
	<path class="st0" d="M121.63,249.83c-0.2,0-0.36-0.05-0.49-0.17c-0.13-0.11-0.19-0.26-0.19-0.45c0-0.25,0.07-0.45,0.22-0.6
		c0.15-0.15,0.34-0.22,0.56-0.22c0.2,0,0.36,0.05,0.49,0.16c0.13,0.11,0.19,0.26,0.19,0.46c0,0.25-0.07,0.45-0.22,0.6
		S121.87,249.83,121.63,249.83z"/>
</g>
</svg>
