<?xml version="1.0" encoding="utf-8"?>
<!-- Generator: Adobe Illustrator 25.4.1, SVG Export Plug-In . SVG Version: 6.00 Build 0)  -->
<svg version="1.1" id="Layer_1" xmlns="http://www.w3.org/2000/svg" xmlns:xlink="http://www.w3.org/1999/xlink" x="0px" y="0px"
	 viewBox="0 0 300 600" style="enable-background:new 0 0 300 600;" xml:space="preserve">
<style type="text/css">
	.st0{fill:#FFFFFF;}
</style>
<g>
	<g>
		<g>
			<g>
				<path class="st0" d="M45.87,33.82c-3.44,0-5.09-2.49-5.09-4.88c0-2.76,2-4.98,5.14-4.98c1.07,0,2.17,0.33,3.05,1.06L48,26.38
					c-0.6-0.46-1.24-0.64-2.02-0.64c-1.67,0-2.91,1.16-2.91,3.15c0,1.81,1.15,3.26,2.97,3.26c0.78,0,1.46-0.23,2.06-0.75l0.89,1.35
					C48.14,33.48,46.98,33.82,45.87,33.82"/>
				<path class="st0" d="M54.28,33.82c-2.87,0-4.99-2.16-4.99-4.98c0-2.89,2.31-4.88,4.99-4.88c2.68,0,5.01,1.97,5.01,4.86
					C59.28,31.66,57.17,33.82,54.28,33.82 M56.97,28.85c0-1.74-0.85-3.24-2.7-3.24c-1.81,0-2.7,1.51-2.7,3.22
					c0,1.78,0.83,3.36,2.7,3.36c1.86,0,2.7-1.56,2.7-3.36V28.85z"/>
				<path class="st0" d="M65.11,33.82c-2.87,0-4.99-2.16-4.99-4.98c0-2.89,2.31-4.88,4.99-4.88c2.68,0,5.01,1.97,5.01,4.86
					C70.11,31.66,68,33.82,65.11,33.82 M67.8,28.85c0-1.74-0.85-3.24-2.7-3.24c-1.81,0-2.7,1.51-2.7,3.22c0,1.78,0.84,3.36,2.7,3.36
					c1.86,0,2.7-1.56,2.7-3.36V28.85z"/>
				<polygon class="st0" points="71.24,33.59 71.24,19.78 73.4,20.95 73.4,33.59 				"/>
				<path class="st0" d="M78.36,33.88c-2.43,0-3.59-1.16-3.59-1.16l0.97-1.25c0,0,1.11,0.73,2.56,0.73c0.7,0,1.28-0.48,1.28-0.96
					c0-0.48-0.21-0.89-0.85-1.22c-0.64-0.33-1.36-0.68-1.92-0.95c-0.56-0.27-1.81-1.1-1.81-2.72c0-1.64,1.67-2.55,3.38-2.55
					c1.63,0,2.87,1.06,2.87,1.06l-0.83,1.27c0,0-0.93-0.66-1.96-0.66s-1.24,0.66-1.24,0.93c0,0.27,0.1,0.7,0.76,1.04
					c0.66,0.35,1.34,0.71,2.31,1.25c0.97,0.54,1.51,1.47,1.51,2.51S80.79,33.88,78.36,33.88"/>
				<path class="st0" d="M87.62,33.82c-3.44,0-5.09-2.49-5.09-4.88c0-2.76,2-4.98,5.14-4.98c1.07,0,2.17,0.33,3.05,1.06l-0.97,1.35
					c-0.6-0.46-1.24-0.64-2.02-0.64c-1.67,0-2.91,1.16-2.91,3.15c0,1.81,1.15,3.26,2.97,3.26c0.78,0,1.46-0.23,2.06-0.75l0.89,1.35
					C89.89,33.48,88.73,33.82,87.62,33.82"/>
				<path class="st0" d="M98.24,32.49c0,0-1.09,1.33-3.14,1.33c-2.43,0-3.61-1.76-3.61-3.53v-6.12h2.15v6.02
					c0,1.04,0.82,1.91,2.08,1.91c1.11,0,2.19-1.31,2.19-1.31v-6.62h2.15v9.4L98.24,32.49z"/>
				<polygon class="st0" points="101.99,33.59 101.99,19.78 104.14,20.95 104.14,33.59 				"/>
				<path class="st0" d="M111.27,33.82c-1.9,0-2.99-1.06-2.99-1.06v4.69h-2.17V23.98l2.17,1.14c0,0,1.16-1.18,3.11-1.18
					c2.04,0,4.58,1.56,4.58,5.06C115.96,32.49,113.46,33.82,111.27,33.82 M111.13,25.6c-1.84,0-2.91,1.72-2.91,1.72v3.55
					c0,0,1.22,1.37,2.99,1.37c2.06,0,2.5-2.45,2.5-3.3C113.71,28.09,113.52,25.6,111.13,25.6"/>
				<path class="st0" d="M121.63,33.84h-1.36c-1.71,0-2.29-1.64-2.29-2.72v-5.54h-1.71v-1.41h1.71v-4.15h2.14v4.15h2.19v1.41h-2.17
					v5.02c0,0.56-0.1,1.45,0.85,1.45h1.55L121.63,33.84z"/>
				<path class="st0" d="M125.09,22.55c-0.78,0-1.42-0.64-1.42-1.41c0-0.77,0.64-1.41,1.42-1.41s1.42,0.64,1.42,1.41
					C126.5,21.92,125.86,22.55,125.09,22.55 M124.02,24.18h2.12v9.42h-2.12V24.18z"/>
				<path class="st0" d="M134.68,33.59v-6.02c0-1.04-0.82-1.91-2.08-1.91c-1.11,0-2.35,1.31-2.35,1.31v6.62h-2.15v-9.4l1.82,1.08
					c0,0,1.24-1.33,3.3-1.33c2.43,0,3.61,1.76,3.61,3.53v6.12H134.68z"/>
				<path class="st0" d="M143.41,37.97c-0.33,0-2.86-0.04-2.86-0.04l0.04-1.72h2.12c2.06,0,3.22-1.1,3.22-2.61v-0.85
					c0,0-1.13,1.06-3.03,1.06c-2.19,0-4.7-1.33-4.7-4.83c0-3.49,2.54-5.06,4.58-5.06c1.94,0,3.11,1.18,3.11,1.18l2.17-1.08v9.36
					C148.07,35.93,146.38,37.97,143.41,37.97 M145.96,27.32c0,0-1.07-1.72-2.91-1.72c-2.39,0-2.58,2.49-2.58,3.34
					c0,0.85,0.45,3.3,2.5,3.3c1.77,0,2.99-1.37,2.99-1.37V27.32z"/>
				<polygon class="st0" points="18.97,29.31 15,33.25 19.86,35.07 25.65,29.31 				"/>
				<polygon class="st0" points="26.22,21.3 22.28,17.37 20.43,22.18 26.22,27.94 				"/>
				<polygon class="st0" points="33.39,22.75 38.69,24.12 34.28,28.51 27.6,28.51 				"/>
				<polygon class="st0" points="33.04,35.86 31.53,41 23.28,32.8 26.62,29.48 				"/>
				<g>
					<path class="st0" d="M151.29,24.81c0,0.56-0.45,1-1.02,1c-0.57,0-1.03-0.44-1.03-1c0-0.56,0.46-0.99,1.04-0.99
						C150.84,23.82,151.29,24.26,151.29,24.81z M149.49,24.81c0,0.44,0.33,0.79,0.78,0.79c0.43,0.01,0.76-0.35,0.76-0.79
						c0-0.44-0.33-0.8-0.77-0.8C149.83,24.02,149.49,24.38,149.49,24.81z M150.11,25.33h-0.23v-0.99c0.09-0.01,0.22-0.03,0.38-0.03
						c0.19,0,0.27,0.03,0.34,0.08c0.06,0.04,0.1,0.12,0.1,0.21c0,0.12-0.09,0.2-0.21,0.24v0.01c0.1,0.03,0.15,0.11,0.18,0.24
						c0.03,0.15,0.05,0.21,0.07,0.24h-0.24c-0.03-0.04-0.05-0.12-0.08-0.24c-0.02-0.1-0.08-0.15-0.21-0.15h-0.11V25.33z
						 M150.11,24.77h0.11c0.13,0,0.23-0.04,0.23-0.15c0-0.09-0.07-0.15-0.21-0.15c-0.06,0-0.1,0.01-0.13,0.01V24.77z"/>
				</g>
			</g>
			<g>
				<polygon class="st0" points="21.49,40.74 21.49,34.58 22.71,33.37 26.22,36.86 26.22,38.03 				"/>
				<polygon class="st0" points="20.93,23.81 15.81,23.81 17.45,28.5 25.65,28.5 				"/>
				<polygon class="st0" points="38.16,34 32.32,34 27.6,29.31 35.79,29.31 				"/>
				<polygon class="st0" points="27.03,19.79 31.75,17 31.75,23.24 27.03,27.94 				"/>
				<g>
					<path class="st0" d="M35.34,36.19c0,0.39-0.31,0.69-0.71,0.69c-0.4,0-0.71-0.31-0.71-0.69c0-0.39,0.32-0.69,0.72-0.69
						C35.03,35.51,35.34,35.81,35.34,36.19z M34.1,36.19c0,0.31,0.23,0.55,0.54,0.55c0.3,0,0.53-0.24,0.53-0.55
						c0-0.31-0.23-0.55-0.54-0.55C34.33,35.65,34.1,35.89,34.1,36.19z M34.52,36.55h-0.16v-0.69c0.06-0.01,0.15-0.02,0.27-0.02
						c0.13,0,0.19,0.02,0.24,0.05c0.04,0.03,0.07,0.08,0.07,0.15c0,0.08-0.06,0.14-0.14,0.16v0.01c0.07,0.02,0.1,0.08,0.12,0.17
						c0.02,0.1,0.04,0.14,0.05,0.17H34.8c-0.02-0.02-0.03-0.08-0.06-0.17c-0.01-0.07-0.05-0.1-0.14-0.1h-0.08V36.55z M34.53,36.17
						h0.08c0.09,0,0.16-0.03,0.16-0.1c0-0.06-0.05-0.1-0.15-0.1c-0.04,0-0.07,0-0.09,0.01V36.17z"/>
				</g>
			</g>
		</g>
	</g>
</g>
</svg>
