<svg id="Layer_1" xmlns="http://www.w3.org/2000/svg" viewBox="0 0 160 600"><style>.st0{fill:#eaf5fb}</style><path class="st0" d="M29.36 85.75v-3.6h1.73v3.28c0 1.7.48 2.38 1.67 2.38 1.22 0 1.7-.69 1.7-2.38v-3.1c0-1.4-.39-2.08-1.4-2.74l-1.58-1.01c-1.52-.98-2.11-2.11-2.11-4.11v-2.65c0-2.26 1.22-3.54 3.34-3.54s3.34 1.28 3.34 3.54v2.65h-1.73V72.1c0-1.61-.45-2.23-1.58-2.23s-1.58.63-1.58 2.23v2.23c0 1.4.39 2.08 1.4 2.74l1.58 1.01c1.52.98 2.11 2.11 2.11 4.11v3.54c0 2.35-1.28 3.66-3.46 3.66s-3.43-1.29-3.43-3.64zM41.19 70.11h-2.5v-1.55h6.79v1.55h-2.5v19h-1.79v-19zM48.39 68.56h3.31c2.38 0 3.51 1.22 3.51 3.72v2.62c0 1.67-.54 2.68-1.61 3.16v.06c1.07.48 1.61 1.49 1.61 3.19v7.8h-1.79v-7.68c0-1.91-.54-2.47-2.23-2.47h-1.01v10.16h-1.79V68.56zm3.1 8.85c1.49 0 1.94-.57 1.94-2.47v-2.35c0-1.91-.45-2.47-1.94-2.47h-1.31v7.3h1.31zM58.7 68.56h5.9v1.55h-4.11v7.18h3.57v1.55h-3.57v8.73h4.11v1.55h-5.9V68.56zM67.63 68.56h2.32L73.2 83.6h.06V68.56h1.61v20.55h-1.94L69.3 72.16h-.06v16.95h-1.61V68.56zM78.38 86.19V71.96c0-2.35 1.28-3.69 3.43-3.69 2.17 0 3.4 1.34 3.4 3.69v2.26h-1.7v-1.94c0-1.73-.48-2.41-1.67-2.41-1.22 0-1.67.69-1.67 2.41v13.7c0 1.22.45 1.82 1.43 1.82 1.22 0 1.91-.92 1.91-2.59v-5.9h-1.67v-1.55h3.46v11.35h-1.52v-1.46h-.09c-.48 1.13-1.34 1.76-2.56 1.76-1.73 0-2.75-1.22-2.75-3.22zM90.44 70.11h-2.5v-1.55h6.79v1.55h-2.5v19h-1.79v-19zM97.65 68.56h1.79v8.73h3.37v-8.73h1.79v20.55h-1.79V78.84h-3.37v10.28h-1.79V68.56zM108.22 68.56h5.9v1.55h-4.11v7.18h3.57v1.55h-3.57v8.73h4.11v1.55h-5.9V68.56zM117.16 68.56h2.32l3.25 15.04h.06V68.56h1.61v20.55h-1.94l-3.63-16.95h-.06v16.95h-1.61V68.56zM128.71 89.11H128v-2.44h2.03v2.14l-1.31 3.31h-1.04l1.03-3.01zM42.71 100.88h-2.5v-1.55H47v1.55h-2.5v19h-1.79v-19zM49.26 116.46v-13.7c0-2.38 1.28-3.72 3.46-3.72s3.46 1.34 3.46 3.72v13.7c0 2.38-1.28 3.72-3.46 3.72s-3.46-1.34-3.46-3.72zm5.12-.3v-13.11c0-1.73-.48-2.41-1.67-2.41-1.22 0-1.67.69-1.67 2.41v13.11c0 1.73.45 2.41 1.67 2.41 1.19 0 1.67-.68 1.67-2.41zM59.38 99.33h2.32l3.25 15.04h.06V99.33h1.61v20.55h-1.94l-3.63-16.95h-.06v16.95h-1.61V99.33zM69.95 99.33h5.9v1.55h-4.11v7.18h3.57v1.55h-3.57v8.73h4.11v1.55h-5.9V99.33zM79.57 119.89h-.71v-2.44h2.03v2.14l-1.31 3.31h-1.04l1.03-3.01zM90.89 99.33h2.35l2.59 20.55h-1.82l-.6-5.09h-2.8l-.6 5.09H88.3l2.59-20.55zm2.35 13.91l-1.19-11.08h-.06l-1.19 11.08h2.44zM98.48 99.33h2.32l3.25 15.04h.06V99.33h1.61v20.55h-1.94l-3.63-16.95h-.06v16.95h-1.61V99.33zM109.06 99.33h3.39c2.38 0 3.52 1.22 3.52 3.72v13.11c0 2.5-1.13 3.72-3.52 3.72h-3.39V99.33zm3.18 19.01c1.49 0 1.94-.57 1.94-2.47v-12.51c0-1.91-.45-2.47-1.94-2.47h-1.4v17.45h1.4zM22.28 130.11h5.9v1.55h-4.11v7.48h3.57v1.55h-3.57v9.98h-1.79v-20.56zM30.79 130.11h1.79v20.55h-1.79v-20.55zM35.92 130.11h3.31c2.38 0 3.51 1.22 3.51 3.72v2.62c0 1.67-.54 2.68-1.61 3.16v.06c1.07.48 1.61 1.49 1.61 3.19v7.8h-1.79v-7.68c0-1.91-.54-2.47-2.23-2.47H37.7v10.16h-1.79v-20.56zm3.09 8.84c1.49 0 1.94-.57 1.94-2.47v-2.35c0-1.91-.45-2.47-1.94-2.47H37.7v7.3h1.31zM45.92 130.11h2.83l2.29 15.16h.06l2.29-15.16h2.95v20.55h-1.79v-18.38h-.05l-2.77 18.38h-1.4l-2.77-18.38h-.06v18.38h-1.58v-20.55zM64.45 130.11h2.83l2.29 15.16h.06l2.29-15.16h2.95v20.55h-1.79v-18.38h-.06l-2.77 18.38h-1.4l-2.77-18.38h-.06v18.38h-1.58v-20.55zM78.14 147.35V130.1h1.79v16.92c0 1.67.42 2.32 1.61 2.32s1.61-.66 1.61-2.32V130.1h1.73v17.25c0 2.29-1.25 3.6-3.37 3.6-2.11.01-3.37-1.3-3.37-3.6zM87.82 147.29v-3.6h1.73v3.28c0 1.7.48 2.38 1.67 2.38 1.22 0 1.7-.69 1.7-2.38v-3.1c0-1.4-.39-2.08-1.4-2.74l-1.58-1.01c-1.52-.98-2.11-2.11-2.11-4.11v-2.65c0-2.26 1.22-3.54 3.34-3.54s3.34 1.28 3.34 3.54V136h-1.73v-2.35c0-1.61-.45-2.23-1.58-2.23-1.13 0-1.58.63-1.58 2.23v2.23c0 1.4.39 2.08 1.4 2.74l1.58 1.01c1.52.98 2.11 2.11 2.11 4.11v3.54c0 2.35-1.28 3.66-3.46 3.66-2.18.02-3.43-1.29-3.43-3.65zM97.53 147.41v-14.06c0-2.26 1.19-3.54 3.34-3.54 2.17 0 3.37 1.28 3.37 3.54v3.37h-1.7v-3.07c0-1.61-.48-2.23-1.61-2.23-1.16 0-1.61.63-1.61 2.23v13.46c0 1.61.45 2.23 1.61 2.23 1.13 0 1.61-.63 1.61-2.23v-4.14h1.7v4.44c0 2.26-1.19 3.54-3.37 3.54-2.15.01-3.34-1.27-3.34-3.54zM107.24 130.11h1.79v19h3.81v1.55h-5.6v-20.55zM115.46 130.11h5.9v1.55h-4.11v7.18h3.57v1.55h-3.57v8.73h4.11v1.55h-5.9v-20.56zM123.83 147.29v-3.6h1.73v3.28c0 1.7.48 2.38 1.67 2.38 1.22 0 1.7-.69 1.7-2.38v-3.1c0-1.4-.39-2.08-1.4-2.74l-1.58-1.01c-1.52-.98-2.12-2.11-2.12-4.11v-2.65c0-2.26 1.22-3.54 3.34-3.54s3.34 1.28 3.34 3.54V136h-1.73v-2.35c0-1.61-.45-2.23-1.58-2.23-1.13 0-1.58.63-1.58 2.23v2.23c0 1.4.39 2.08 1.4 2.74l1.58 1.01c1.52.98 2.12 2.11 2.12 4.11v3.54c0 2.35-1.28 3.66-3.46 3.66-2.18.02-3.43-1.29-3.43-3.65zM133.66 148.22h2v2.44h-2v-2.44z"/></svg>