<svg id="Layer_1" xmlns="http://www.w3.org/2000/svg" viewBox="0 0 160 600"><style>.st0{fill:#00a9e0}.st1{fill:#fff}</style><path class="st0" d="M24.47 453.19h111.14v27.07H24.47z"/><path class="st1" d="M33.23 472.08v-9.72h2.36v7.68h3.76v2.05h-6.12zM40.94 472.08v-9.72h6.54v1.99h-4.27v1.83h4.04v1.88h-4.04v2.02h4.52v2h-6.79zM56.35 472.08l-.76-1.91h-3.76l-.71 1.91h-2.55l4.08-9.72h2.28l4.04 9.72h-2.62zm-2.61-7.12l-1.24 3.34h2.44l-1.2-3.34zM65.46 472.08l-2.1-3.86h-.8v3.86h-2.31v-9.72h3.71c1.87 0 3.72.71 3.72 2.94 0 1.3-.77 2.24-2.02 2.62l2.54 4.16h-2.74zm-1.66-7.83h-1.25v2.27h1.11c.76 0 1.7-.19 1.7-1.18.01-.91-.86-1.09-1.56-1.09zM76.03 472.08l-3.91-6.36h-.04l.06 6.36h-2.28v-9.72h2.68l3.9 6.34h.04l-.05-6.34h2.28v9.72h-2.68zM93.91 472.08l.05-6.88h-.04l-2.53 6.88h-1.65l-2.46-6.88h-.04l.06 6.88h-2.2v-9.72h3.34l2.21 6.23h.05l2.12-6.23h3.39v9.72h-2.3zM103.53 472.34c-3.04 0-5.29-2.09-5.29-5.16 0-3.12 2.25-5.08 5.29-5.08 3.05 0 5.3 1.96 5.3 5.08 0 3.08-2.25 5.16-5.3 5.16zm0-8.13c-1.65 0-2.77 1.26-2.77 2.97 0 1.76 1.14 3.02 2.77 3.02 1.63 0 2.79-1.26 2.79-3.02 0-1.7-1.14-2.97-2.79-2.97zM116.08 472.08l-2.1-3.86h-.8v3.86h-2.31v-9.72h3.71c1.87 0 3.72.71 3.72 2.94 0 1.3-.77 2.24-2.02 2.62l2.54 4.16h-2.74zm-1.67-7.83h-1.25v2.27h1.11c.75 0 1.7-.19 1.7-1.18.01-.91-.86-1.09-1.56-1.09zM120.46 472.08v-9.72H127v1.99h-4.27v1.83h4.04v1.88h-4.04v2.02h4.52v2h-6.79z"/></svg>