<svg id="Layer_1" xmlns="http://www.w3.org/2000/svg" viewBox="0 0 160 600"><style>.st0{fill:#fff}</style><path class="st0" d="M19.62 498.48h-.87l2.44-5.62h.71l2.41 5.62h-.89l-.57-1.38h-2.67l-.56 1.38zm.85-2.07h2.1l-1.05-2.64-1.05 2.64zM24.99 495.14c-.01-.16-.01-.3-.02-.42h.71c.01.1.02.21.02.33 0 .12.01.23.01.31h.02c.11-.22.26-.4.46-.54.2-.13.43-.2.69-.2.12 0 .21.01.29.03l-.03.69c-.11-.03-.22-.04-.34-.04a.958.958 0 0 0-.8.37c-.09.12-.15.24-.19.38-.04.15-.06.3-.06.46v1.98H25v-2.95c0-.11 0-.24-.01-.4zM28.75 493.36c0 .14-.05.25-.15.34-.1.09-.21.14-.35.14s-.25-.05-.35-.14a.476.476 0 0 1-.14-.34.5.5 0 0 1 .14-.35c.09-.09.21-.14.35-.14s.25.05.35.14.15.21.15.35zm-.12 5.12h-.75v-3.76h.75v3.76zM33.45 496.57v.13c0 .04 0 .08-.01.13h-2.99c0 .16.04.31.11.45s.15.26.27.36.24.18.39.24a1.296 1.296 0 0 0 1.12-.08c.19-.11.33-.25.44-.4l.52.42c-.2.27-.44.46-.71.59-.27.13-.58.19-.91.19-.29 0-.55-.05-.79-.14-.24-.09-.45-.23-.63-.4s-.31-.38-.41-.62c-.1-.24-.15-.51-.15-.81 0-.29.05-.56.15-.81s.23-.46.41-.63.38-.31.62-.41c.24-.1.5-.15.77-.15s.53.04.75.13c.23.09.42.22.57.39.16.17.28.38.36.62.08.23.12.5.12.8zm-.76-.3c-.01-.15-.03-.29-.08-.42s-.11-.24-.2-.34c-.09-.1-.2-.17-.33-.23s-.28-.08-.46-.08c-.16 0-.31.03-.45.08s-.26.13-.37.23c-.1.09-.19.21-.25.34-.07.13-.1.27-.11.42h2.25zM35.25 498.48h-.75v-6h.75v6zM38.81 494.72l.85 2.88h.02l.9-2.88h.79l.91 2.88h.02l.85-2.88h.79l-1.25 3.76h-.79l-.93-2.83h-.02l-.92 2.83h-.78L38 494.72h.81zM47.02 496.04c0-.28-.08-.49-.25-.62s-.39-.2-.67-.2a1.53 1.53 0 0 0-1.07.43l-.4-.48c.19-.17.41-.31.68-.41.27-.1.55-.15.86-.15.27 0 .5.04.7.12.2.08.36.18.49.31s.22.29.29.47c.06.18.1.37.1.58v1.64c0 .13 0 .26.01.4s.02.26.04.35h-.67c-.04-.18-.06-.36-.06-.54h-.02c-.14.2-.31.36-.52.47-.21.11-.46.17-.74.17-.15 0-.3-.02-.46-.06-.16-.04-.31-.1-.44-.2-.13-.09-.24-.21-.33-.36-.09-.15-.13-.33-.13-.55 0-.29.08-.51.23-.68.15-.17.35-.29.6-.38.25-.09.53-.14.84-.17s.63-.04.94-.04v-.1zm-.19.65c-.19 0-.38.01-.58.02-.2.02-.38.05-.54.09s-.29.12-.4.21c-.11.09-.16.22-.16.38 0 .11.02.2.07.28s.1.13.18.18c.07.05.16.08.25.1.09.02.18.03.28.03.35 0 .62-.1.81-.31.19-.21.28-.47.28-.79v-.2h-.19zM51.01 495.67a.911.911 0 0 0-.36-.34c-.15-.09-.33-.13-.52-.13-.08 0-.17.01-.25.03-.08.02-.16.05-.23.09a.414.414 0 0 0-.22.38c0 .16.07.28.21.35.14.08.36.15.64.21.18.04.35.09.5.15.15.06.29.13.4.22.11.09.2.19.27.31.06.12.1.27.1.43 0 .22-.04.41-.13.56s-.2.28-.34.38c-.14.1-.3.17-.48.21-.18.04-.37.06-.56.06-.29 0-.56-.06-.84-.17-.27-.11-.5-.28-.68-.51l.53-.45c.1.15.24.27.42.37.18.1.37.15.58.15.1 0 .19-.01.27-.03s.17-.05.24-.09c.07-.04.13-.1.17-.17.04-.07.06-.16.06-.26 0-.17-.08-.3-.25-.39a4.13 4.13 0 0 0-.73-.24c-.13-.03-.26-.07-.39-.12s-.25-.11-.35-.19-.19-.18-.26-.3a.868.868 0 0 1-.1-.44c0-.2.04-.38.12-.52.08-.15.19-.26.32-.36s.28-.16.45-.21.34-.07.52-.07c.27 0 .53.05.78.16s.45.26.58.46l-.47.47zM56.33 495.33h-1v1.96c0 .23.04.39.13.49.08.1.22.15.4.15.07 0 .14-.01.22-.02a.65.65 0 0 0 .21-.07l.02.61a1.87 1.87 0 0 1-.64.11c-.35 0-.63-.1-.81-.29-.19-.2-.28-.49-.28-.88v-2.04h-.72v-.61h.72v-1.08h.74v1.08h1v.59zM57.09 495.14c-.01-.16-.01-.3-.02-.42h.71c.01.1.02.21.02.33 0 .12.01.23.01.31h.02c.11-.22.26-.4.46-.54.2-.13.43-.2.69-.2.12 0 .21.01.29.03l-.03.69c-.11-.03-.22-.04-.34-.04a.958.958 0 0 0-.8.37c-.09.12-.15.24-.19.38-.04.15-.06.3-.06.46v1.98h-.75v-2.95c0-.11 0-.24-.01-.4zM63.35 496.57v.13c0 .04 0 .08-.01.13h-2.99c0 .16.04.31.11.45s.15.26.27.36.24.18.39.24a1.296 1.296 0 0 0 1.12-.08c.19-.11.33-.25.44-.4l.52.42c-.2.27-.44.46-.71.59-.27.13-.58.19-.91.19-.29 0-.55-.05-.79-.14-.24-.09-.45-.23-.63-.4s-.31-.38-.41-.62c-.1-.24-.15-.51-.15-.81 0-.29.05-.56.15-.81s.23-.46.41-.63.38-.31.62-.41c.24-.1.5-.15.77-.15s.53.04.75.13c.23.09.42.22.57.39.16.17.28.38.36.62.08.23.12.5.12.8zm-.76-.3c-.01-.15-.03-.29-.08-.42s-.11-.24-.2-.34c-.09-.1-.2-.17-.33-.23s-.28-.08-.46-.08c-.16 0-.31.03-.45.08s-.26.13-.37.23c-.1.09-.19.21-.25.34-.07.13-.1.27-.11.42h2.25zM66.68 496.04c0-.28-.08-.49-.25-.62s-.39-.2-.67-.2a1.53 1.53 0 0 0-1.07.43l-.4-.48c.19-.17.41-.31.68-.41.27-.1.55-.15.86-.15.27 0 .5.04.7.12.2.08.36.18.49.31s.22.29.29.47c.06.18.1.37.1.58v1.64c0 .13 0 .26.01.4s.02.26.04.35h-.67c-.04-.18-.06-.36-.06-.54h-.02c-.14.2-.31.36-.52.47-.21.11-.46.17-.74.17-.15 0-.3-.02-.46-.06-.16-.04-.31-.1-.44-.2-.13-.09-.24-.21-.33-.36-.09-.15-.13-.33-.13-.55 0-.29.08-.51.23-.68.15-.17.35-.29.6-.38.25-.09.53-.14.84-.17s.63-.04.94-.04v-.1zm-.18.65c-.19 0-.38.01-.58.02-.2.02-.38.05-.54.09s-.29.12-.4.21c-.11.09-.16.22-.16.38 0 .11.02.2.07.28s.1.13.18.18c.07.05.16.08.25.1.09.02.18.03.28.03.35 0 .62-.1.81-.31.19-.21.28-.47.28-.79v-.2h-.19zM70.4 495.33h-1v1.96c0 .23.04.39.13.49.08.1.22.15.4.15.07 0 .14-.01.22-.02a.65.65 0 0 0 .21-.07l.02.61a1.87 1.87 0 0 1-.64.11c-.35 0-.63-.1-.81-.29-.19-.2-.28-.49-.28-.88v-2.04h-.72v-.61h.72v-1.08h.74v1.08h1v.59zM74.69 496.57v.13c0 .04 0 .08-.01.13h-2.99c0 .16.04.31.11.45s.15.26.27.36.24.18.39.24a1.296 1.296 0 0 0 1.12-.08c.19-.11.33-.25.44-.4l.52.42c-.2.27-.44.46-.71.59-.27.13-.58.19-.91.19-.29 0-.55-.05-.79-.14-.24-.09-.45-.23-.63-.4s-.31-.38-.41-.62c-.1-.24-.15-.51-.15-.81 0-.29.05-.56.15-.81s.23-.46.41-.63.38-.31.62-.41c.24-.1.5-.15.77-.15s.53.04.75.13c.23.09.42.22.57.39.16.17.28.38.36.62.08.23.12.5.12.8zm-.76-.3c-.01-.15-.03-.29-.08-.42s-.11-.24-.2-.34c-.09-.1-.2-.17-.33-.23s-.28-.08-.46-.08c-.16 0-.31.03-.45.08s-.26.13-.37.23c-.1.09-.19.21-.25.34-.07.13-.1.27-.11.42h2.25zM78.73 497.89c-.14.23-.34.4-.58.52s-.5.18-.77.18c-.29 0-.55-.05-.79-.16s-.43-.25-.6-.42-.29-.39-.38-.64c-.09-.24-.13-.5-.13-.78s.04-.53.13-.77.22-.45.39-.63.37-.32.6-.42.49-.15.77-.15c.31 0 .57.06.8.19.23.13.41.29.54.47h.02v-2.8h.75v6h-.72v-.6h-.03zm-2.48-1.29c0 .17.03.34.08.51.05.16.13.31.24.44.11.13.24.23.39.3.15.08.33.11.54.11.19 0 .36-.04.52-.11.16-.07.29-.17.4-.3s.2-.27.26-.43c.06-.16.09-.33.09-.51a1.44 1.44 0 0 0-.35-.95 1.17 1.17 0 0 0-.4-.3c-.16-.07-.33-.11-.52-.11-.21 0-.39.04-.54.11-.15.07-.28.17-.39.3s-.19.27-.24.44c-.06.15-.08.32-.08.5zM83.03 494.72l.85 2.88h.02l.9-2.88h.79l.91 2.88h.02l.85-2.88h.79l-1.25 3.76h-.78l-.93-2.83h-.02l-.92 2.83h-.78l-1.25-3.76h.8zM89.77 493.36c0 .14-.05.25-.15.34-.1.09-.21.14-.35.14s-.25-.05-.35-.14a.476.476 0 0 1-.14-.34c0-.14.05-.25.14-.35s.21-.14.35-.14.25.05.35.14c.1.1.15.21.15.35zm-.12 5.12h-.75v-3.76h.75v3.76zM92.79 495.33h-1v1.96c0 .23.04.39.13.49s.22.15.41.15c.07 0 .14-.01.22-.02a.65.65 0 0 0 .21-.07l.02.61a1.87 1.87 0 0 1-.64.11c-.36 0-.63-.1-.81-.29-.19-.2-.28-.49-.28-.88v-2.04h-.72v-.61h.72v-1.08h.74v1.08h1v.59zM94.34 495.29c.09-.19.24-.34.46-.48.22-.13.46-.2.73-.2.24 0 .45.04.63.12s.32.19.44.33.2.3.26.48c.05.19.08.38.08.6v2.33h-.75v-2.09c0-.15-.01-.3-.04-.44-.02-.14-.07-.26-.13-.37s-.15-.19-.26-.25-.25-.1-.42-.1c-.3 0-.54.11-.73.34s-.29.53-.29.9v2h-.75v-6h.75v2.81h.02zM105.04 497.61c-.22.3-.51.55-.87.74-.35.19-.78.28-1.28.28-.43 0-.83-.07-1.19-.22s-.67-.35-.94-.61c-.26-.26-.47-.58-.62-.94s-.22-.76-.22-1.2c0-.44.08-.84.23-1.2a2.746 2.746 0 0 1 1.58-1.53c.37-.14.76-.21 1.19-.21.19 0 .38.02.58.06s.38.09.56.17c.18.07.34.17.49.27.15.11.28.23.38.38l-.62.48c-.14-.19-.33-.35-.58-.47-.25-.12-.52-.19-.81-.19-.33 0-.62.06-.88.18s-.49.28-.67.49c-.19.21-.33.45-.43.72-.1.27-.15.56-.15.87 0 .32.05.61.15.89.1.28.24.51.42.72s.41.36.67.48c.26.12.55.17.88.17.32 0 .61-.06.87-.19s.47-.31.64-.56l.62.42zM109.52 496.59c0 .29-.05.56-.15.8-.1.24-.25.45-.43.63s-.4.32-.65.41c-.25.1-.52.15-.8.15-.29 0-.55-.05-.8-.15-.25-.1-.46-.24-.64-.41-.18-.18-.32-.39-.42-.63s-.15-.51-.15-.8c0-.29.05-.56.15-.8.1-.24.25-.45.42-.62.18-.17.39-.31.64-.41s.52-.15.8-.15a2.11 2.11 0 0 1 1.45.56c.18.17.33.38.43.62.1.25.15.51.15.8zm-.77.01c0-.18-.03-.35-.08-.51-.06-.16-.14-.31-.24-.43s-.24-.22-.39-.3c-.16-.07-.34-.11-.54-.11s-.38.04-.54.11c-.16.07-.29.17-.39.3s-.19.27-.24.43c-.06.16-.08.33-.08.51s.03.35.08.51c.06.16.14.31.24.44.11.13.24.23.39.3.16.07.34.11.54.11s.38-.04.54-.11c.16-.07.29-.17.39-.3.11-.13.19-.27.24-.44.05-.16.08-.33.08-.51zM114.37 496.59c0 .29-.05.56-.15.8-.1.24-.25.45-.43.63s-.4.32-.65.41c-.25.1-.52.15-.8.15-.29 0-.55-.05-.8-.15-.25-.1-.46-.24-.64-.41-.18-.18-.32-.39-.42-.63s-.15-.51-.15-.8c0-.29.05-.56.15-.8.1-.24.25-.45.42-.62.18-.17.39-.31.64-.41s.52-.15.8-.15a2.11 2.11 0 0 1 1.45.56c.18.17.33.38.43.62.1.25.15.51.15.8zm-.78.01c0-.18-.03-.35-.08-.51-.06-.16-.14-.31-.24-.43s-.24-.22-.39-.3c-.16-.07-.34-.11-.54-.11s-.38.04-.54.11c-.16.07-.29.17-.39.3s-.19.27-.24.43c-.06.16-.08.33-.08.51s.03.35.08.51c.06.16.14.31.24.44.11.13.24.23.39.3.16.07.34.11.54.11s.38-.04.54-.11c.16-.07.29-.17.39-.3.11-.13.19-.27.24-.44.05-.16.08-.33.08-.51zM116.16 498.48h-.75v-6h.75v6zM119.47 498.48h-.79v-4.93h-1.8v-.69h4.39v.69h-1.8v4.93zM125.03 496.59c0 .29-.05.56-.15.8-.1.24-.25.45-.43.63s-.4.32-.65.41c-.25.1-.52.15-.8.15-.29 0-.55-.05-.8-.15-.25-.1-.46-.24-.64-.41-.18-.18-.32-.39-.42-.63s-.15-.51-.15-.8c0-.29.05-.56.15-.8.1-.24.25-.45.42-.62.18-.17.39-.31.64-.41s.52-.15.8-.15a2.11 2.11 0 0 1 1.45.56c.18.17.33.38.43.62.1.25.15.51.15.8zm-.78.01c0-.18-.03-.35-.08-.51-.06-.16-.14-.31-.24-.43s-.24-.22-.39-.3c-.16-.07-.34-.11-.54-.11s-.38.04-.54.11c-.16.07-.29.17-.39.3s-.19.27-.24.43c-.06.16-.08.33-.08.51s.03.35.08.51c.06.16.14.31.24.44.11.13.24.23.39.3.16.07.34.11.54.11s.38-.04.54-.11c.16-.07.29-.17.39-.3.11-.13.19-.27.24-.44.06-.16.08-.33.08-.51zM126.74 494.72c.01.1.02.2.02.32.01.12.01.22.01.3h.02c.05-.1.11-.2.19-.28.08-.09.18-.16.28-.23.11-.07.22-.12.35-.15s.26-.06.4-.06c.24 0 .45.04.63.12s.32.19.44.33.2.3.26.48.08.38.08.6v2.33h-.75v-2.09c0-.15-.01-.3-.04-.44-.02-.14-.07-.26-.13-.37-.06-.11-.15-.19-.26-.25s-.25-.1-.43-.1c-.3 0-.54.11-.73.34-.19.22-.28.53-.28.9v2h-.75v-2.95c0-.1 0-.23-.01-.39s-.01-.3-.02-.42h.72zM134.21 496.57v.13c0 .04 0 .08-.01.13h-2.99a1.147 1.147 0 0 0 .38.81c.11.1.24.18.38.24a1.296 1.296 0 0 0 1.12-.08c.18-.11.33-.25.44-.4l.52.42c-.2.27-.44.46-.71.59s-.58.19-.91.19c-.29 0-.55-.05-.79-.14-.24-.09-.45-.23-.63-.4s-.31-.38-.41-.62c-.1-.24-.15-.51-.15-.81 0-.29.05-.56.15-.81.1-.25.24-.46.41-.63s.38-.31.62-.41c.24-.1.5-.15.77-.15.28 0 .53.04.75.13s.42.22.57.39c.16.17.28.38.36.62.08.23.13.5.13.8zm-.77-.3c-.01-.15-.03-.29-.08-.42s-.11-.24-.2-.34c-.09-.1-.2-.17-.33-.23s-.28-.08-.46-.08c-.16 0-.31.03-.45.08-.14.06-.26.13-.37.23-.1.09-.19.21-.25.34s-.1.27-.12.42h2.26zM135.17 494.57c0-.25.05-.48.14-.7.09-.22.22-.41.39-.57.16-.16.36-.29.58-.39a1.822 1.822 0 0 1 1.4 0c.22.1.41.22.58.39.16.16.29.35.39.57.1.22.14.45.14.7s-.05.48-.14.7c-.09.22-.22.41-.39.57s-.36.29-.58.38a1.822 1.822 0 0 1-1.4 0c-.22-.09-.41-.22-.58-.38s-.29-.35-.39-.57c-.1-.22-.14-.45-.14-.7zm.28 0c0 .21.04.4.12.59a1.582 1.582 0 0 0 .81.82c.18.08.38.12.6.12.21 0 .41-.04.6-.12.18-.08.35-.19.48-.33.14-.14.25-.3.33-.49a1.53 1.53 0 0 0 0-1.19c-.08-.19-.19-.35-.33-.48s-.3-.25-.48-.33c-.19-.08-.38-.12-.6-.12-.21 0-.41.04-.6.12-.19.08-.35.19-.48.33s-.25.3-.33.48c-.08.19-.12.39-.12.6zm1.97.99l-.44-.79h-.29v.79h-.48v-2.03h.87c.1 0 .19.01.28.03s.17.06.25.1.13.11.18.19.07.18.07.31c0 .14-.04.25-.12.34a.66.66 0 0 1-.29.2l.54.86h-.57zm-.35-1.14c.07 0 .14-.02.2-.07s.09-.11.09-.19-.03-.15-.1-.18a.38.38 0 0 0-.19-.06h-.37v.5h.37zM27.52 505.53c0 .29-.05.56-.15.8-.1.24-.25.45-.43.63s-.4.32-.65.41c-.25.1-.52.15-.8.15-.29 0-.55-.05-.8-.15-.25-.1-.46-.24-.64-.41-.18-.18-.32-.39-.43-.63-.1-.24-.15-.51-.15-.8 0-.29.05-.56.15-.8.1-.24.25-.45.43-.62.18-.17.39-.31.64-.41.25-.1.52-.15.8-.15a2.11 2.11 0 0 1 1.45.56c.19.18.33.38.43.62.1.24.15.51.15.8zm-.78 0c0-.18-.03-.35-.08-.51-.06-.16-.14-.31-.24-.43-.11-.12-.24-.22-.39-.3-.16-.07-.34-.11-.54-.11s-.38.04-.54.11c-.16.07-.29.17-.39.3-.11.12-.19.27-.24.43-.06.16-.08.33-.08.51s.03.35.08.51c.06.16.14.31.24.44.11.13.24.23.39.3s.34.11.54.11.38-.04.54-.11.29-.17.39-.3c.11-.13.19-.27.24-.44.06-.16.08-.33.08-.51zM29.23 503.65c.01.1.02.2.02.32s.01.22.01.3h.02c.05-.1.11-.2.19-.28.08-.09.18-.16.28-.23.11-.07.22-.12.35-.15.13-.04.26-.06.4-.06.24 0 .45.04.63.12.17.08.32.19.44.33s.2.3.26.48c.06.19.08.38.08.6v2.33h-.75v-2.09c0-.15-.01-.3-.04-.44s-.07-.26-.13-.37c-.06-.11-.15-.19-.26-.25s-.25-.1-.43-.1c-.3 0-.54.11-.73.34-.19.22-.28.53-.28.9v2h-.75v-2.95c0-.1 0-.23-.01-.39s-.01-.3-.02-.42h.72zM35.94 504.23c.09-.19.24-.34.46-.48.22-.13.46-.2.73-.2.24 0 .45.04.63.12s.32.19.44.33.2.3.26.48.08.38.08.6v2.33h-.75v-2.09c0-.15-.01-.3-.04-.44-.02-.14-.07-.26-.13-.37a.627.627 0 0 0-.26-.25.868.868 0 0 0-.42-.1c-.3 0-.54.11-.73.34-.19.23-.29.53-.29.9v2h-.75v-6h.75v2.81h.02zM43.32 505.5v.13c0 .04 0 .08-.01.13h-2.99c0 .16.04.31.11.45s.15.26.27.36.24.18.39.24a1.296 1.296 0 0 0 1.12-.08c.19-.11.33-.25.44-.4l.52.42c-.2.27-.44.46-.71.59-.27.13-.58.19-.91.19-.29 0-.55-.05-.79-.14-.24-.09-.45-.23-.63-.4s-.31-.38-.41-.62c-.1-.24-.15-.51-.15-.81 0-.29.05-.56.15-.81s.23-.46.41-.63.38-.31.62-.41c.24-.1.5-.15.77-.15s.53.04.75.13c.23.09.42.22.57.39.16.17.28.38.36.62.08.23.12.5.12.8zm-.76-.3c-.01-.15-.03-.29-.08-.42s-.11-.24-.2-.34c-.09-.1-.2-.17-.33-.23s-.28-.08-.46-.08c-.16 0-.31.03-.45.08s-.26.13-.37.23c-.1.09-.19.21-.25.34-.07.13-.1.27-.11.42h2.25zM44.34 504.07c-.01-.16-.01-.3-.02-.42h.71c.01.1.02.21.02.33 0 .12.01.23.01.31h.02c.11-.22.26-.4.46-.54.2-.13.43-.2.69-.2.12 0 .21.01.29.03l-.03.69c-.11-.03-.22-.04-.34-.04a.958.958 0 0 0-.8.37c-.09.12-.15.24-.19.38-.04.15-.06.3-.06.46v1.98h-.75v-2.95c0-.11 0-.24-.01-.4zM51.55 504.98c0-.28-.08-.49-.25-.62s-.39-.2-.67-.2a1.53 1.53 0 0 0-1.07.43l-.4-.48c.19-.17.41-.31.68-.41.27-.1.55-.15.86-.15.27 0 .5.04.7.12.2.08.36.18.49.31s.22.29.29.47c.06.18.1.37.1.58v1.64c0 .13 0 .26.01.4s.02.26.04.35h-.67c-.04-.18-.06-.36-.06-.54h-.02c-.14.2-.31.36-.52.47-.21.11-.46.17-.74.17-.15 0-.3-.02-.46-.06-.16-.04-.31-.1-.44-.2-.13-.09-.24-.21-.33-.36-.09-.15-.13-.33-.13-.55 0-.29.08-.51.23-.68.15-.17.35-.29.6-.38.25-.09.53-.14.84-.17s.63-.04.94-.04v-.1zm-.18.64c-.19 0-.38.01-.58.02-.2.02-.38.05-.54.09s-.29.12-.4.21c-.11.09-.16.22-.16.38 0 .11.02.2.07.28s.1.13.18.18c.07.05.16.08.25.1.09.02.18.03.28.03.35 0 .62-.1.81-.31.19-.21.28-.47.28-.79v-.2h-.19zM54.25 506.82v.6h-.72v-6h.75v2.8h.02c.13-.19.3-.34.53-.47.23-.13.5-.19.81-.19.28 0 .54.05.76.15.23.1.43.24.59.42.17.18.29.39.38.63.09.24.13.5.13.77s-.04.53-.13.78c-.09.24-.22.46-.38.64s-.36.32-.59.42-.49.16-.78.16c-.27 0-.53-.06-.77-.18s-.44-.29-.59-.52h-.01zm2.51-1.29c0-.17-.03-.34-.08-.51-.05-.16-.13-.31-.24-.44s-.24-.23-.39-.3a1.335 1.335 0 0 0-1.06 0c-.16.07-.29.17-.4.3s-.2.27-.26.44c-.06.16-.09.33-.09.51s.03.35.09.51c.06.16.15.31.26.43s.24.22.4.3.33.11.52.11c.21 0 .39-.04.54-.11a1.193 1.193 0 0 0 .63-.74c.05-.15.08-.32.08-.5zM61.57 506.82c-.14.23-.34.4-.58.52s-.5.18-.77.18c-.29 0-.55-.05-.79-.16s-.43-.25-.6-.42-.29-.39-.38-.64c-.09-.24-.13-.5-.13-.78s.04-.53.13-.77.22-.45.39-.63.37-.32.6-.42.49-.15.77-.15c.31 0 .57.06.8.19.23.13.41.29.54.47h.02v-2.8h.75v6h-.72v-.6h-.03zm-2.48-1.29c0 .17.03.34.08.51.05.16.13.31.24.44.11.13.24.23.39.3.15.08.33.11.54.11.19 0 .36-.04.52-.11.16-.07.29-.17.4-.3s.2-.27.26-.43c.06-.16.09-.33.09-.51a1.44 1.44 0 0 0-.35-.95 1.17 1.17 0 0 0-.4-.3c-.16-.07-.33-.11-.52-.11-.21 0-.39.04-.54.11-.15.07-.28.17-.39.3s-.19.27-.24.44c-.05.16-.08.33-.08.5zM67.42 505.53c0 .29-.05.56-.15.8-.1.24-.25.45-.43.63s-.4.32-.65.41c-.25.1-.52.15-.8.15-.29 0-.55-.05-.8-.15-.25-.1-.46-.24-.64-.41-.18-.18-.32-.39-.43-.63-.1-.24-.15-.51-.15-.8 0-.29.05-.56.15-.8.1-.24.25-.45.43-.62.18-.17.39-.31.64-.41.25-.1.52-.15.8-.15a2.11 2.11 0 0 1 1.45.56c.19.18.33.38.43.62.1.24.15.51.15.8zm-.78 0c0-.18-.03-.35-.08-.51-.06-.16-.14-.31-.24-.43-.11-.12-.24-.22-.39-.3-.16-.07-.34-.11-.54-.11s-.38.04-.54.11c-.16.07-.29.17-.39.3-.11.12-.19.27-.24.43-.06.16-.08.33-.08.51s.03.35.08.51c.06.16.14.31.24.44.11.13.24.23.39.3s.34.11.54.11.38-.04.54-.11.29-.17.39-.3c.11-.13.19-.27.24-.44.06-.16.08-.33.08-.51zM69.64 503.76c.21-.14.46-.21.74-.21.25 0 .48.06.69.17.2.12.36.31.48.58.13-.24.3-.43.53-.56s.48-.19.75-.19c.24 0 .45.04.63.12s.32.19.44.33.2.3.26.48.08.38.08.6v2.33h-.75v-2.09c0-.15-.01-.3-.04-.44s-.07-.26-.14-.37c-.06-.11-.15-.19-.25-.25s-.24-.1-.41-.1c-.17 0-.31.04-.44.11-.12.07-.22.16-.3.28-.08.11-.13.24-.17.39-.03.14-.05.29-.05.44v2.03h-.75v-2.24c0-.15-.01-.28-.04-.41a.879.879 0 0 0-.13-.31.641.641 0 0 0-.25-.21.841.841 0 0 0-.37-.08c-.28 0-.5.11-.69.34-.18.22-.27.53-.27.9v2h-.75v-2.95c0-.1 0-.23-.01-.39s-.01-.3-.02-.42h.71c.01.1.02.2.02.32s.01.22.01.3h.02c.11-.19.26-.36.47-.5zM79.02 505.5v.13c0 .04 0 .08-.01.13h-2.99c0 .16.04.31.11.45s.15.26.27.36.24.18.39.24a1.296 1.296 0 0 0 1.12-.08c.19-.11.33-.25.44-.4l.52.42c-.2.27-.44.46-.71.59-.27.13-.58.19-.91.19-.29 0-.55-.05-.79-.14-.24-.09-.45-.23-.63-.4s-.31-.38-.41-.62c-.1-.24-.15-.51-.15-.81 0-.29.05-.56.15-.81s.23-.46.41-.63.38-.31.62-.41c.24-.1.5-.15.77-.15s.53.04.75.13c.23.09.42.22.57.39.16.17.28.38.36.62.07.23.12.5.12.8zm-.77-.3c-.01-.15-.03-.29-.08-.42s-.11-.24-.2-.34c-.09-.1-.2-.17-.33-.23s-.28-.08-.46-.08c-.16 0-.31.03-.45.08s-.26.13-.37.23c-.1.09-.19.21-.25.34-.07.13-.1.27-.11.42h2.25zM80.72 503.65c.01.1.02.2.02.32s.01.22.01.3h.02c.05-.1.11-.2.19-.28.08-.09.18-.16.28-.23s.22-.12.35-.15.26-.06.4-.06c.24 0 .45.04.63.12.17.08.32.19.44.33s.2.3.26.48c.06.19.08.38.08.6v2.33h-.75v-2.09c0-.15-.01-.3-.04-.44s-.07-.26-.13-.37c-.06-.11-.15-.19-.26-.25s-.25-.1-.43-.1c-.3 0-.54.11-.73.34-.19.22-.28.53-.28.9v2h-.75v-2.95c0-.1 0-.23-.01-.39s-.01-.3-.02-.42h.72zM89 504.98c0-.28-.08-.49-.25-.62-.17-.13-.39-.2-.67-.2a1.53 1.53 0 0 0-1.07.43l-.4-.48c.18-.17.41-.31.68-.41s.55-.15.86-.15c.27 0 .5.04.7.12.2.08.36.18.49.31s.22.29.29.47c.06.18.1.37.1.58v1.64c0 .13 0 .26.01.4s.02.26.04.35h-.68c-.04-.18-.06-.36-.06-.54h-.02c-.14.2-.31.36-.52.47s-.46.17-.74.17c-.15 0-.3-.02-.46-.06-.16-.04-.31-.1-.44-.2-.13-.09-.24-.21-.33-.36-.09-.15-.13-.33-.13-.55 0-.29.08-.51.23-.68s.35-.29.6-.38c.25-.09.53-.14.84-.17s.63-.04.95-.04v-.1zm-.18.64c-.19 0-.38.01-.58.02-.2.02-.38.05-.54.09s-.29.12-.4.21c-.11.09-.16.22-.16.38 0 .11.02.2.07.28s.1.13.18.18c.07.05.16.08.25.1s.18.03.28.03c.35 0 .62-.1.81-.31.19-.21.28-.47.28-.79v-.2h-.19zM91.64 503.65c.01.1.02.2.02.32.01.12.01.22.01.3h.02c.05-.1.11-.2.19-.28.08-.09.18-.16.28-.23.11-.07.22-.12.35-.15s.26-.06.4-.06c.24 0 .45.04.63.12s.32.19.44.33.2.3.26.48.08.38.08.6v2.33h-.75v-2.09c0-.15-.01-.3-.04-.44-.02-.14-.07-.26-.13-.37-.06-.11-.15-.19-.26-.25s-.25-.1-.43-.1c-.3 0-.54.11-.73.34-.19.22-.28.53-.28.9v2h-.75v-2.95c0-.1 0-.23-.01-.39s-.01-.3-.02-.42h.72zM98.58 506.82c-.14.23-.34.4-.58.52s-.5.18-.77.18c-.29 0-.55-.05-.79-.16s-.43-.25-.6-.42-.29-.39-.38-.64c-.09-.24-.14-.5-.14-.78s.04-.53.14-.77c.09-.24.22-.45.38-.63s.37-.32.6-.42.49-.15.77-.15c.31 0 .57.06.8.19s.41.29.54.47h.02v-2.8h.75v6h-.72v-.6h-.02zm-2.47-1.29c0 .17.03.34.08.51.05.16.13.31.24.44.11.13.24.23.39.3.15.08.33.11.54.11.19 0 .36-.04.52-.11s.29-.17.4-.3c.11-.12.2-.27.26-.43.06-.16.09-.33.09-.51a1.44 1.44 0 0 0-.35-.95 1.17 1.17 0 0 0-.4-.3c-.16-.07-.33-.11-.52-.11-.21 0-.39.04-.54.11-.15.07-.28.17-.39.3-.11.13-.19.27-.24.44-.06.16-.08.33-.08.5zM103.35 506.82v.6h-.72v-6h.75v2.8h.02c.13-.19.3-.34.53-.47.23-.13.5-.19.81-.19.28 0 .53.05.76.15.23.1.43.24.59.42s.29.39.38.63c.09.24.13.5.13.77s-.04.53-.13.78c-.09.24-.22.46-.38.64s-.36.32-.59.42-.49.16-.79.16c-.27 0-.53-.06-.77-.18s-.44-.29-.59-.52zm2.5-1.29c0-.17-.03-.34-.08-.51-.05-.16-.13-.31-.24-.44-.11-.13-.24-.23-.39-.3a1.335 1.335 0 0 0-1.06 0c-.16.07-.29.17-.4.3a1.44 1.44 0 0 0-.35.95c0 .18.03.35.09.51.06.16.15.31.26.43.11.12.25.22.4.3s.33.11.52.11c.21 0 .39-.04.54-.11a1.193 1.193 0 0 0 .63-.74c.05-.15.08-.32.08-.5zM110.31 507.42c-.01-.1-.02-.2-.02-.32s-.01-.22-.01-.3h-.02c-.09.2-.26.37-.48.51-.22.14-.48.21-.75.21-.24 0-.45-.04-.63-.12-.18-.08-.32-.19-.44-.33-.11-.14-.2-.3-.25-.49-.06-.19-.08-.38-.08-.6v-2.33h.75v2.08c0 .15.01.3.04.44.02.14.07.26.13.37.06.11.15.19.26.25s.25.09.43.09c.3 0 .54-.11.73-.34.19-.23.28-.53.28-.9v-2h.75v2.96c0 .1 0 .23.01.39s.01.3.02.42h-.72zM114.13 504.26h-1v1.96c0 .23.04.39.13.49s.22.15.41.15c.07 0 .14-.01.22-.02a.65.65 0 0 0 .21-.07l.02.61a1.87 1.87 0 0 1-.64.11c-.36 0-.63-.1-.81-.29-.19-.2-.28-.49-.28-.88v-2.04h-.72v-.61h.72v-1.08h.74v1.08h1v.59zM116.62 504.26h-1v1.96c0 .23.04.39.13.49s.22.15.41.15c.07 0 .14-.01.22-.02a.65.65 0 0 0 .21-.07l.02.61a1.87 1.87 0 0 1-.64.11c-.36 0-.63-.1-.81-.29-.19-.2-.28-.49-.28-.88v-2.04h-.72v-.61h.72v-1.08h.74v1.08h1v.59zM121.2 505.53c0 .29-.05.56-.15.8-.1.24-.25.45-.43.63s-.4.32-.65.41c-.25.1-.52.15-.8.15-.29 0-.55-.05-.8-.15-.25-.1-.46-.24-.64-.41-.18-.18-.32-.39-.42-.63s-.15-.51-.15-.8c0-.29.05-.56.15-.8.1-.24.25-.45.42-.62.18-.17.39-.31.64-.41s.52-.15.8-.15a2.11 2.11 0 0 1 1.45.56c.18.17.33.38.43.62.1.24.15.51.15.8zm-.78 0c0-.18-.03-.35-.08-.51-.06-.16-.14-.31-.24-.43s-.24-.22-.39-.3c-.16-.07-.34-.11-.54-.11s-.38.04-.54.11c-.16.07-.29.17-.39.3s-.19.27-.24.43c-.06.16-.08.33-.08.51s.03.35.08.51c.06.16.14.31.24.44.11.13.24.23.39.3.16.07.34.11.54.11s.38-.04.54-.11c.16-.07.29-.17.39-.3.11-.13.19-.27.24-.44.06-.16.08-.33.08-.51zM124.87 504.61c-.08-.12-.2-.22-.36-.31-.16-.08-.33-.12-.51-.12-.2 0-.37.04-.52.11-.15.07-.28.17-.39.3-.11.12-.19.27-.24.43s-.08.34-.08.52.03.35.08.52.14.31.24.43c.11.12.24.22.39.3a1.274 1.274 0 0 0 1.04 0c.16-.07.28-.17.38-.3l.5.45c-.16.19-.36.33-.6.43s-.51.16-.81.16c-.29 0-.56-.05-.81-.14a1.828 1.828 0 0 1-1.06-1.02c-.1-.24-.15-.52-.15-.82 0-.3.05-.57.15-.81a1.851 1.851 0 0 1 1.06-1.04c.25-.1.51-.14.8-.14.26 0 .53.05.79.16s.47.26.62.46l-.52.43zM126.92 505.29h.02l1.58-1.64h1l-1.76 1.71 1.91 2.06h-1.03l-1.7-1.95h-.02v1.95h-.75v-6h.75v3.87zM132.33 504.61a.911.911 0 0 0-.36-.34c-.15-.09-.33-.13-.52-.13-.08 0-.17.01-.25.03-.08.02-.16.05-.23.09a.414.414 0 0 0-.22.38c0 .16.07.28.21.35.14.08.36.15.64.21.18.04.35.09.5.15.15.06.29.13.4.22.11.09.2.19.27.31.06.12.1.27.1.43 0 .22-.04.41-.13.56-.08.15-.2.28-.34.38-.14.1-.3.17-.48.21-.18.04-.37.06-.56.06-.29 0-.57-.06-.84-.17-.27-.11-.5-.28-.68-.51l.53-.45c.1.15.24.27.42.37.18.1.37.15.58.15.1 0 .19-.01.27-.03.09-.02.17-.05.24-.09.07-.04.13-.1.17-.17.04-.07.06-.16.06-.26 0-.17-.08-.3-.25-.39s-.41-.16-.73-.24c-.13-.03-.26-.07-.38-.12-.13-.04-.25-.11-.35-.19a.868.868 0 0 1-.36-.74c0-.2.04-.38.12-.52s.19-.26.32-.36c.13-.09.28-.16.45-.21.17-.04.34-.07.52-.07.27 0 .53.05.78.16s.45.26.58.46l-.48.47zM134.74 506.94c0 .14-.05.26-.15.37-.1.11-.23.16-.38.16s-.27-.05-.38-.16-.16-.22-.16-.36a.529.529 0 0 1 .53-.53c.15 0 .28.05.38.15a.5.5 0 0 1 .16.37zM49.64 516.35h-.79v-5.62h1.8c.27 0 .53.03.77.08.24.06.46.14.64.27.18.12.33.28.43.48s.16.44.16.73c0 .41-.13.75-.38 1s-.58.42-.98.48l1.57 2.58h-.95l-1.43-2.5h-.84v2.5zm0-3.16h.91c.19 0 .36-.02.52-.05.16-.03.3-.08.42-.16s.21-.16.28-.28c.07-.11.1-.25.1-.42a.77.77 0 0 0-.1-.42.775.775 0 0 0-.27-.27c-.11-.07-.25-.12-.4-.15-.15-.03-.31-.04-.48-.04h-.96v1.79zM57.11 514.44v.13c0 .04 0 .08-.01.13h-2.99c0 .16.04.31.11.45s.15.26.27.36.24.18.39.24a1.296 1.296 0 0 0 1.12-.08c.19-.11.33-.25.44-.4l.52.42c-.2.27-.44.46-.71.59-.27.13-.58.19-.91.19-.29 0-.55-.05-.79-.14-.24-.09-.45-.23-.63-.4s-.31-.38-.41-.62c-.1-.24-.15-.51-.15-.81 0-.29.05-.56.15-.81s.23-.46.41-.63.38-.31.62-.41c.24-.1.5-.15.77-.15s.53.04.75.13c.23.09.42.22.57.39.16.17.28.38.36.62.08.23.12.5.12.8zm-.76-.3c-.01-.15-.03-.29-.08-.42s-.11-.24-.2-.34c-.09-.1-.2-.17-.33-.23s-.28-.08-.46-.08c-.16 0-.31.03-.45.08s-.26.13-.37.23c-.1.09-.19.21-.25.34-.07.13-.1.27-.11.42h2.25zM60.18 513.54a.911.911 0 0 0-.36-.34c-.15-.09-.33-.13-.52-.13-.08 0-.17.01-.25.03-.08.02-.16.05-.23.09a.414.414 0 0 0-.22.38c0 .16.07.28.21.35.14.08.36.15.64.21.18.04.35.09.5.15.15.06.29.13.4.22.11.09.2.19.27.31.06.12.1.27.1.43 0 .22-.04.41-.13.56s-.2.28-.34.38c-.14.1-.3.17-.48.21-.18.04-.37.06-.56.06-.29 0-.56-.06-.84-.17-.27-.11-.5-.28-.68-.51l.53-.45c.1.15.24.27.42.37.18.1.37.15.58.15.1 0 .19-.01.27-.03s.17-.05.24-.09c.07-.04.13-.1.17-.17.04-.07.06-.16.06-.26 0-.17-.08-.3-.25-.39a4.13 4.13 0 0 0-.73-.24c-.13-.03-.26-.07-.39-.12s-.25-.11-.35-.19-.19-.18-.26-.3a.868.868 0 0 1-.1-.44c0-.2.04-.38.12-.52.08-.15.19-.26.32-.36s.28-.16.45-.21.34-.07.52-.07c.27 0 .53.05.78.16s.45.26.58.46l-.47.47zM64.32 516.35c-.01-.1-.02-.2-.02-.32s-.01-.22-.01-.3h-.02c-.1.2-.26.37-.48.51-.23.14-.48.21-.75.21-.24 0-.45-.04-.63-.12-.18-.08-.32-.19-.44-.33-.11-.14-.2-.3-.25-.49s-.08-.38-.08-.6v-2.33h.75v2.08c0 .15.01.3.04.44.02.14.07.26.13.37.06.11.15.19.26.25.11.06.25.09.43.09.3 0 .54-.11.73-.34.19-.23.28-.53.28-.9v-2H65v2.96c0 .1 0 .23.01.39 0 .16.01.3.02.42h-.71zM67.06 516.35h-.75v-6h.75v6zM70.2 513.2h-1v1.96c0 .23.04.39.13.49.08.1.22.15.4.15.07 0 .14-.01.22-.02a.65.65 0 0 0 .21-.07l.02.61a1.87 1.87 0 0 1-.64.11c-.35 0-.63-.1-.81-.29-.19-.2-.28-.49-.28-.88v-2.04h-.72v-.61h.72v-1.08h.74v1.08h1v.59zM73 513.54a.911.911 0 0 0-.36-.34c-.15-.09-.33-.13-.52-.13-.08 0-.17.01-.25.03-.08.02-.16.05-.23.09a.414.414 0 0 0-.22.38c0 .16.07.28.21.35.14.08.36.15.64.21.18.04.35.09.5.15.15.06.29.13.4.22.11.09.2.19.27.31.06.12.1.27.1.43 0 .22-.04.41-.13.56s-.2.28-.34.38c-.14.1-.3.17-.48.21-.18.04-.37.06-.56.06-.29 0-.56-.06-.84-.17-.27-.11-.5-.28-.68-.51l.53-.45c.1.15.24.27.42.37.18.1.37.15.58.15.1 0 .19-.01.27-.03s.17-.05.24-.09c.07-.04.13-.1.17-.17.04-.07.06-.16.06-.26 0-.17-.08-.3-.25-.39a4.13 4.13 0 0 0-.73-.24c-.13-.03-.26-.07-.39-.12s-.25-.11-.35-.19-.19-.18-.26-.3a.868.868 0 0 1-.1-.44c0-.2.04-.38.12-.52.08-.15.19-.26.32-.36s.28-.16.45-.21.34-.07.52-.07c.27 0 .53.05.78.16s.45.26.58.46l-.47.47zM77.67 512.7c.21-.14.46-.21.74-.21.25 0 .48.06.69.17.2.12.36.31.48.58.13-.24.3-.43.53-.56s.48-.19.75-.19c.24 0 .45.04.63.12.17.08.32.19.44.33s.2.3.26.48c.05.19.08.38.08.6v2.33h-.75v-2.09c0-.15-.01-.3-.04-.44s-.07-.26-.14-.37a.667.667 0 0 0-.25-.25.827.827 0 0 0-.41-.1c-.17 0-.31.04-.44.11-.12.07-.22.16-.3.28-.08.11-.13.24-.17.39-.03.14-.05.29-.05.44v2.03h-.75v-2.24c0-.15-.01-.28-.04-.41a.879.879 0 0 0-.13-.31.641.641 0 0 0-.25-.21.841.841 0 0 0-.37-.08c-.28 0-.5.11-.69.34-.18.22-.27.53-.27.9v2h-.75v-2.95c0-.1 0-.23-.01-.39s-.01-.3-.02-.42h.71c.01.1.02.2.02.32s.01.22.01.3h.02c.11-.19.26-.36.47-.5zM85.87 513.91c0-.28-.08-.49-.25-.62-.17-.13-.39-.2-.67-.2a1.53 1.53 0 0 0-1.07.43l-.4-.48c.18-.17.41-.31.68-.41s.55-.15.86-.15c.27 0 .5.04.7.12.2.08.36.18.49.31s.22.29.29.47c.06.18.1.37.1.58v1.64c0 .13 0 .26.01.4s.02.26.04.35h-.68c-.04-.18-.06-.36-.06-.54h-.02c-.14.2-.31.36-.52.47s-.46.17-.74.17c-.15 0-.3-.02-.46-.06-.16-.04-.31-.1-.44-.2-.13-.09-.24-.21-.33-.36-.09-.15-.13-.33-.13-.55 0-.29.08-.51.23-.68s.35-.29.6-.38c.25-.09.53-.14.84-.17s.63-.04.95-.04v-.1zm-.18.65c-.19 0-.38.01-.58.02-.2.02-.38.05-.54.09s-.29.12-.4.21c-.11.09-.16.22-.16.38 0 .11.02.2.07.28s.1.13.18.18c.07.05.16.08.25.1s.18.03.28.03c.35 0 .62-.1.81-.31.19-.21.28-.47.28-.79v-.2h-.19zM89.26 515.54h.02l1.04-2.96h.79l-1.83 4.65c-.06.16-.13.3-.21.42-.07.12-.16.23-.26.32a.94.94 0 0 1-.35.2c-.13.05-.29.07-.48.07-.08 0-.16 0-.24-.01-.08-.01-.17-.02-.25-.04l.07-.66c.13.04.25.06.37.06.2 0 .34-.05.44-.16.09-.11.18-.26.26-.46l.24-.63-1.61-3.76h.83l1.17 2.96zM95.59 516.35h-.81l-1.53-3.76h.83l1.1 2.96h.02l1.11-2.96h.79l-1.51 3.76zM100.17 513.91c0-.28-.08-.49-.25-.62-.17-.13-.39-.2-.67-.2a1.53 1.53 0 0 0-1.07.43l-.4-.48c.18-.17.41-.31.68-.41s.55-.15.86-.15c.27 0 .5.04.7.12.2.08.36.18.49.31s.22.29.29.47c.06.18.1.37.1.58v1.64c0 .13 0 .26.01.4s.02.26.04.35h-.68c-.04-.18-.06-.36-.06-.54h-.02c-.14.2-.31.36-.52.47s-.46.17-.74.17c-.15 0-.3-.02-.46-.06-.16-.04-.31-.1-.44-.2-.13-.09-.24-.21-.33-.36-.09-.15-.13-.33-.13-.55 0-.29.08-.51.23-.68s.35-.29.6-.38c.25-.09.53-.14.84-.17s.63-.04.95-.04v-.1zm-.19.65c-.19 0-.38.01-.58.02-.2.02-.38.05-.54.09s-.29.12-.4.21c-.11.09-.16.22-.16.38 0 .11.02.2.07.28s.1.13.18.18c.07.05.16.08.25.1s.18.03.28.03c.35 0 .62-.1.81-.31.19-.21.28-.47.28-.79v-.2h-.19zM102.12 513.01c-.01-.16-.01-.3-.02-.42h.71c.01.1.02.21.02.33.01.12.01.23.01.31h.02c.11-.22.26-.4.46-.54.2-.13.43-.2.69-.2.12 0 .21.01.29.03l-.03.69c-.11-.03-.22-.04-.34-.04a.958.958 0 0 0-.8.37c-.09.11-.15.24-.19.38-.04.15-.06.3-.06.46v1.98h-.75v-2.95c0-.11-.01-.24-.01-.4zM106.43 515.54h.02l1.04-2.96h.79l-1.83 4.65c-.06.16-.13.3-.21.42-.07.12-.16.23-.26.32a.94.94 0 0 1-.35.2c-.13.05-.29.07-.48.07-.08 0-.16 0-.24-.01-.08-.01-.17-.02-.25-.04l.07-.66c.13.04.25.06.37.06.2 0 .34-.05.44-.16.09-.11.18-.26.26-.46l.24-.63-1.61-3.76h.83l1.17 2.96zM109.64 515.88c0 .14-.05.26-.15.37-.1.11-.23.16-.38.16s-.27-.05-.38-.16-.16-.22-.16-.36a.529.529 0 0 1 .53-.53c.15 0 .28.05.38.15.11.1.16.22.16.37z"/></svg>