<svg id="Layer_1" xmlns="http://www.w3.org/2000/svg" viewBox="0 0 160 600"><style>.st0{fill:#fff}</style><path class="st0" d="M61.88 47.79c-2.12 0-3.14-1.54-3.14-3.02 0-1.71 1.24-3.08 3.18-3.08.66 0 1.34.2 1.88.66l-.6.83c-.37-.29-.77-.39-1.25-.39-1.03 0-1.8.72-1.8 1.94 0 1.12.71 2.02 1.83 2.02.48 0 .9-.14 1.27-.47l.55.83c-.52.47-1.24.68-1.92.68M67.07 47.79c-1.78 0-3.08-1.34-3.08-3.08 0-1.79 1.43-3.02 3.08-3.02 1.65 0 3.09 1.22 3.09 3 .01 1.77-1.3 3.1-3.09 3.1m1.67-3.07c0-1.07-.53-2-1.67-2-1.12 0-1.67.93-1.67 1.99 0 1.1.52 2.07 1.67 2.07s1.67-.97 1.67-2.07v.01zM73.76 47.79c-1.78 0-3.08-1.34-3.08-3.08 0-1.79 1.43-3.02 3.08-3.02 1.65 0 3.09 1.22 3.09 3 .01 1.77-1.3 3.1-3.09 3.1m1.67-3.07c0-1.07-.53-2-1.67-2-1.12 0-1.67.93-1.67 1.99 0 1.1.52 2.07 1.67 2.07s1.67-.97 1.67-2.07v.01zM77.55 47.65v-8.54l1.34.73v7.81zM81.96 47.83c-1.5 0-2.22-.72-2.22-.72l.6-.78s.68.45 1.58.45c.43 0 .79-.3.79-.6s-.13-.55-.53-.75c-.4-.2-.84-.42-1.19-.58-.35-.17-1.12-.68-1.12-1.68 0-1.01 1.03-1.57 2.09-1.57 1.01 0 1.77.66 1.77.66l-.52.79s-.58-.41-1.21-.41c-.64 0-.77.41-.77.57 0 .17.06.43.47.64.41.21.83.44 1.43.78.6.33.94.91.94 1.55s-.62 1.65-2.11 1.65M87.68 47.79c-2.12 0-3.14-1.54-3.14-3.02 0-1.71 1.24-3.08 3.18-3.08.66 0 1.34.2 1.88.66l-.6.84c-.37-.29-.77-.39-1.25-.39-1.03 0-1.8.72-1.8 1.94 0 1.12.71 2.02 1.83 2.02.48 0 .9-.14 1.27-.47l.55.83c-.52.46-1.24.67-1.92.67M94.24 46.97s-.67.82-1.94.82c-1.5 0-2.23-1.09-2.23-2.18v-3.78h1.33v3.72c0 .64.5 1.18 1.28 1.18.68 0 1.36-.81 1.36-.81v-4.09h1.33v5.81l-1.13-.67zM96.55 47.65v-8.54l1.33.73v7.81zM102.28 47.79c-1.17 0-1.85-.66-1.85-.66v2.9h-1.34v-8.32l1.34.7s.72-.73 1.92-.73c1.26 0 2.83.97 2.83 3.12.01 2.17-1.54 2.99-2.9 2.99m-.08-5.08c-1.14 0-1.8 1.06-1.8 1.06v2.19s.76.85 1.85.85c1.27 0 1.55-1.51 1.55-2.04 0-.52-.12-2.06-1.6-2.06M108.69 47.8h-.84c-1.06 0-1.42-1.01-1.42-1.68V42.7h-1.06v-.87h1.06v-2.56h1.32v2.56h1.36v.87h-1.34v3.1c0 .35-.06.89.53.89h.96l-.57 1.11zM110.82 40.83a.88.88 0 0 1-.88-.87c0-.48.4-.87.88-.87s.88.39.88.87c0 .47-.4.87-.88.87m-.66 1h1.31v5.82h-1.31v-5.82zM116.75 47.65v-3.72c0-.64-.5-1.18-1.28-1.18-.68 0-1.45.81-1.45.81v4.09h-1.33v-5.81l1.13.67s.77-.82 2.04-.82c1.5 0 2.23 1.09 2.23 2.18v3.78h-1.34zM122.15 50.36c-.2 0-1.77-.02-1.77-.02l.02-1.06h1.31c1.27 0 1.99-.68 1.99-1.61v-.52s-.7.66-1.87.66c-1.36 0-2.9-.82-2.9-2.98s1.57-3.12 2.83-3.12c1.2 0 1.92.73 1.92.73l1.34-.67v5.78c0 1.54-1.04 2.81-2.87 2.81m1.57-6.59s-.66-1.06-1.8-1.06c-1.48 0-1.59 1.54-1.59 2.06s.28 2.04 1.55 2.04c1.09 0 1.85-.85 1.85-.85v-2.19zM45.26 45l-2.45 2.44 3 1.12L49.39 45zM49.74 40.05l-2.44-2.42-1.14 2.96 3.58 3.56zM54.17 40.95l3.27.85-2.72 2.71h-4.13zM53.95 49.05l-.93 3.17-5.1-5.06 2.07-2.05zM127.01 42.22c0 .34-.28.62-.63.62s-.64-.27-.64-.62c0-.34.28-.61.64-.61.35 0 .63.27.63.61zm-1.11 0a.474.474 0 1 0 .95 0c0-.27-.2-.49-.48-.49a.48.48 0 0 0-.47.49zm.38.32h-.14v-.61c.06-.01.14-.02.24-.02.12 0 .17.02.21.05.04.03.06.07.06.13 0 .07-.06.12-.13.15v.01c.06.02.09.07.11.15.02.09.03.13.05.15h-.15c-.02-.02-.03-.07-.05-.15-.01-.06-.05-.09-.13-.09h-.07v.23zm.01-.34h.07c.08 0 .14-.03.14-.09s-.04-.09-.13-.09c-.04 0-.06 0-.08.01v.17z"/><g><path class="st0" d="M46.82 52.06v-3.8l.75-.75 2.16 2.16v.72zM46.47 41.6h-3.16l1.01 2.9h5.07zM57.12 47.9h-3.61L50.59 45h5.06zM50.24 39.12l2.92-1.72v3.85l-2.92 2.9zM55.37 49.26c0 .24-.19.43-.44.43a.43.43 0 0 1-.44-.43c0-.24.2-.42.44-.42.25-.01.44.18.44.42zm-.77 0c0 .19.14.34.33.34.18 0 .33-.15.33-.34 0-.19-.14-.34-.33-.34-.18 0-.33.15-.33.34zm.27.22h-.1v-.43c.04-.01.09-.01.16-.01.08 0 .12.01.15.03.03.02.04.05.04.09 0 .05-.04.09-.09.1v.01c.04.01.06.05.08.1.01.06.02.09.03.1h-.1a.405.405 0 0 1-.03-.1c-.01-.04-.03-.06-.09-.06h-.05v.17zm0-.24h.05c.06 0 .1-.02.1-.06 0-.04-.03-.06-.09-.06-.03 0-.04 0-.05.01v.11z"/></g><g><path class="st0" d="M31.46 42h.53v2.91H32c.08-.13.19-.24.3-.33a1.87 1.87 0 0 1 1.16-.39c.29 0 .56.05.8.15.24.1.45.23.63.41.18.17.31.38.41.62.1.24.15.5.15.78s-.05.54-.15.78c-.1.24-.24.44-.41.62-.18.17-.38.31-.63.41a2.073 2.073 0 0 1-1.19.11 1.87 1.87 0 0 1-.77-.35c-.12-.09-.22-.2-.3-.33h-.02V48h-.53v-6zm3.41 4.14a1.572 1.572 0 0 0-.38-1.05c-.12-.13-.27-.24-.44-.31-.17-.08-.37-.12-.59-.12s-.42.04-.6.12c-.18.08-.34.18-.47.31-.13.13-.24.29-.31.47a1.575 1.575 0 0 0 0 1.16c.07.18.18.34.31.47.13.13.29.24.47.31.18.08.38.12.6.12s.41-.04.59-.12c.17-.08.32-.18.44-.31s.22-.29.28-.47.1-.37.1-.58zM37.73 47.36l1.14-3.07h.64l-1.87 4.68c-.11.29-.25.51-.43.68-.17.17-.42.25-.75.25-.08 0-.16 0-.24-.01-.08-.01-.16-.02-.24-.05l.06-.51c.11.06.24.09.4.09.19 0 .33-.06.44-.17.11-.12.2-.28.28-.49l.27-.71-1.53-3.76h.66l1.17 3.07z"/></g><g><path class="st0" d="M41.86 30.46c-1.15.99-2.56 1.49-4.26 1.49-2.2 0-3.94-.71-5.21-2.14-1.15-1.29-1.72-2.84-1.72-4.66 0-1.95.64-3.58 1.93-4.9 1.29-1.32 2.99-1.98 5.1-1.98 1.62 0 3 .49 4.12 1.48L40.5 21.6c-.76-.57-1.67-.86-2.75-.86-1.16 0-2.11.39-2.84 1.18-.73.79-1.1 1.85-1.1 3.19 0 1.3.37 2.38 1.1 3.24.73.86 1.71 1.28 2.92 1.28 1.06 0 2-.34 2.83-1.02l1.2 1.85zM55.61 25.01c0 1.98-.65 3.64-1.94 4.96-1.3 1.32-2.92 1.98-4.88 1.98s-3.58-.66-4.86-1.98C42.64 28.65 42 27 42 25.01c0-1.95.68-3.57 2.04-4.88 1.3-1.25 2.89-1.88 4.76-1.88 1.87 0 3.46.63 4.79 1.88 1.34 1.31 2.02 2.94 2.02 4.88zm-3.15 0c0-1.27-.3-2.31-.9-3.13-.67-.89-1.6-1.34-2.78-1.34-1.18 0-2.1.45-2.75 1.34-.6.82-.9 1.86-.9 3.13 0 1.34.29 2.43.87 3.27.65.93 1.58 1.39 2.78 1.39 1.2 0 2.13-.46 2.8-1.39.59-.84.88-1.93.88-3.27zM70.23 25.01c0 1.98-.65 3.64-1.94 4.96-1.3 1.32-2.92 1.98-4.88 1.98s-3.58-.66-4.86-1.98c-1.29-1.32-1.93-2.97-1.93-4.96 0-1.95.68-3.57 2.04-4.88 1.3-1.25 2.89-1.88 4.76-1.88 1.87 0 3.46.63 4.79 1.88 1.34 1.31 2.02 2.94 2.02 4.88zm-3.14 0c0-1.27-.3-2.31-.9-3.13-.67-.89-1.6-1.34-2.78-1.34s-2.1.45-2.75 1.34c-.6.82-.9 1.86-.9 3.13 0 1.34.29 2.43.87 3.27.65.93 1.58 1.39 2.78 1.39 1.2 0 2.13-.46 2.8-1.39.58-.84.88-1.93.88-3.27zM74.73 31.66h-2.94V12.44l2.94 1.64v17.58zM97.15 25.01c0 1.98-.65 3.64-1.94 4.96-1.3 1.32-2.92 1.98-4.88 1.98s-3.58-.66-4.86-1.98c-1.29-1.32-1.93-2.97-1.93-4.96 0-1.95.68-3.57 2.04-4.88 1.3-1.25 2.89-1.88 4.76-1.88 1.87 0 3.46.63 4.79 1.88 1.34 1.31 2.02 2.94 2.02 4.88zm-3.14 0c0-1.27-.3-2.31-.9-3.13-.67-.89-1.6-1.34-2.78-1.34-1.18 0-2.1.45-2.75 1.34-.6.82-.9 1.86-.9 3.13 0 1.34.29 2.43.87 3.27.65.93 1.58 1.39 2.78 1.39 1.2 0 2.13-.46 2.8-1.39.58-.84.88-1.93.88-3.27zM110.51 31.66h-2.94V23.3c0-.75-.26-1.38-.78-1.89s-1.2-.76-2.05-.76c-.93 0-2 .61-3.2 1.82v9.19H98.6V18.58l2.49 1.5c1.27-1.24 2.77-1.85 4.49-1.85 1.55 0 2.79.51 3.7 1.53.81.91 1.22 2.04 1.22 3.38v8.52zM124.84 25.72h-9.39c.35 2.67 1.6 4 3.76 4 1.32 0 2.41-.38 3.25-1.13l1.16 1.91c-1.13 1.04-2.63 1.56-4.49 1.56-2.59 0-4.49-.98-5.69-2.93-.74-1.2-1.11-2.43-1.11-3.7 0-1.56.3-2.91.9-4.05 1.08-2.09 2.99-3.14 5.74-3.14 2.71 0 4.5 1.24 5.37 3.73.36 1.05.53 2.31.5 3.75zm-2.96-1.93c-.11-2.31-1.09-3.46-2.96-3.46-2.06 0-3.2 1.15-3.41 3.46h6.37zM81.07 29.51c-.56 0-.92-.24-1.06-.72-.07-.2-.11-.63-.11-1.29v-5.45h2.04v-1.96H79.9v-3.12l-2.93-1.64v12.89c0 .93.23 1.74.69 2.44.56.89 1.38 1.34 2.43 1.34h1.85l1.24-2.5h-2.11z"/><g><path class="st0" d="M128.21 19.64c0 .77-.63 1.39-1.42 1.39-.8 0-1.43-.61-1.43-1.39 0-.77.63-1.38 1.44-1.38.78-.01 1.41.6 1.41 1.38zm-2.5 0c0 .61.47 1.1 1.08 1.1.6.01 1.06-.49 1.06-1.09 0-.61-.46-1.11-1.08-1.11-.6-.01-1.06.49-1.06 1.1zm.85.71h-.32v-1.38c.13-.02.3-.04.53-.04.26 0 .38.04.47.11.08.06.14.16.14.29 0 .17-.13.28-.29.33v.02c.14.04.2.15.25.34.04.21.08.29.1.34h-.34c-.04-.05-.07-.17-.11-.34-.03-.14-.11-.21-.29-.21h-.15v.54zm.01-.77h.15c.18 0 .32-.06.32-.2 0-.13-.09-.21-.3-.21-.08 0-.14.01-.18.02v.39z"/></g></g></svg>