<?xml version="1.0" encoding="utf-8"?>
<!-- Generator: Adobe Illustrator 25.2.1, SVG Export Plug-In . SVG Version: 6.00 Build 0)  -->
<svg version="1.1" id="Layer_1" xmlns="http://www.w3.org/2000/svg" xmlns:xlink="http://www.w3.org/1999/xlink" x="0px" y="0px"
	 viewBox="0 0 728 90" style="enable-background:new 0 0 728 90;" xml:space="preserve">
<style type="text/css">
	.st0{fill:#EAF5FB;}
</style>
<g>
	<path class="st0" d="M37.79,31.77v-4.16h2v3.79c0,1.96,0.55,2.75,1.93,2.75c1.41,0,1.96-0.79,1.96-2.75v-3.58
		c0-1.62-0.45-2.41-1.62-3.17l-1.82-1.17c-1.75-1.14-2.44-2.44-2.44-4.75v-3.06c0-2.62,1.41-4.09,3.85-4.09
		c2.44,0,3.85,1.48,3.85,4.09v3.06h-2v-2.72c0-1.86-0.52-2.58-1.82-2.58s-1.82,0.72-1.82,2.58v2.58c0,1.62,0.45,2.41,1.62,3.17
		l1.82,1.17c1.75,1.14,2.44,2.44,2.44,4.75v4.09c0,2.72-1.48,4.23-3.99,4.23S37.79,34.49,37.79,31.77z"/>
	<path class="st0" d="M51.28,13.71h-2.89v-1.79h7.85v1.79h-2.89v21.95h-2.06V13.71z"/>
	<path class="st0" d="M59.43,11.92h3.82c2.75,0,4.06,1.41,4.06,4.3v3.03c0,1.93-0.62,3.1-1.86,3.65v0.07
		c1.24,0.55,1.86,1.72,1.86,3.68v9.02h-2.06v-8.88c0-2.2-0.62-2.86-2.58-2.86H61.5v11.73h-2.06V11.92z M63.01,22.14
		c1.72,0,2.24-0.65,2.24-2.86v-2.72c0-2.2-0.52-2.86-2.24-2.86H61.5v8.43H63.01z"/>
	<path class="st0" d="M71.16,11.92h6.81v1.79h-4.75V22h4.13v1.79h-4.13v10.08h4.75v1.79h-6.81V11.92z"/>
	<path class="st0" d="M81.31,11.92H84l3.75,17.38h0.07V11.92h1.86v23.74h-2.24l-4.2-19.58h-0.07v19.58h-1.86V11.92z"/>
	<path class="st0" d="M93.56,32.29V15.84c0-2.72,1.48-4.27,3.96-4.27c2.51,0,3.92,1.55,3.92,4.27v2.62h-1.96v-2.24
		c0-2-0.55-2.79-1.93-2.79c-1.41,0-1.93,0.79-1.93,2.79v15.83c0,1.41,0.52,2.1,1.65,2.1c1.41,0,2.2-1.07,2.2-2.99v-6.81h-1.93v-1.79
		h3.99v13.11h-1.75v-1.69h-0.1c-0.55,1.31-1.55,2.03-2.96,2.03C94.73,36.01,93.56,34.6,93.56,32.29z"/>
	<path class="st0" d="M107.32,13.71h-2.89v-1.79h7.85v1.79h-2.89v21.95h-2.06V13.71z"/>
	<path class="st0" d="M115.48,11.92h2.06V22h3.89V11.92h2.06v23.74h-2.06V23.79h-3.89v11.87h-2.06V11.92z"/>
	<path class="st0" d="M127.52,11.92h6.81v1.79h-4.75V22h4.13v1.79h-4.13v10.08h4.75v1.79h-6.81V11.92z"/>
	<path class="st0" d="M137.67,11.92h2.68l3.75,17.38h0.07V11.92h1.86v23.74h-2.24l-4.2-19.58h-0.07v19.58h-1.86V11.92z"/>
	<path class="st0" d="M150.85,35.66h-0.83v-2.82h2.34v2.48l-1.51,3.82h-1.2L150.85,35.66z"/>
	<path class="st0" d="M164.13,13.71h-2.89v-1.79h7.85v1.79h-2.89v21.95h-2.06V13.71z"/>
	<path class="st0" d="M171.87,31.71V15.88c0-2.75,1.48-4.3,3.99-4.3s3.99,1.55,3.99,4.3v15.83c0,2.75-1.48,4.3-3.99,4.3
		S171.87,34.46,171.87,31.71z M177.79,31.36V16.22c0-2-0.55-2.79-1.93-2.79c-1.41,0-1.93,0.79-1.93,2.79v15.14
		c0,2,0.52,2.79,1.93,2.79C177.24,34.15,177.79,33.36,177.79,31.36z"/>
	<path class="st0" d="M183.74,11.92h2.68l3.75,17.38h0.07V11.92h1.86v23.74h-2.24l-4.2-19.58h-0.07v19.58h-1.86V11.92z"/>
	<path class="st0" d="M196.13,11.92h6.81v1.79h-4.75V22h4.13v1.79h-4.13v10.08h4.75v1.79h-6.81V11.92z"/>
	<path class="st0" d="M207.41,35.66h-0.83v-2.82h2.34v2.48l-1.51,3.82h-1.2L207.41,35.66z"/>
	<path class="st0" d="M41.06,45.47h2.72l2.99,23.74h-2.1l-0.69-5.88h-3.23l-0.69,5.88h-2L41.06,45.47z M43.78,61.54l-1.38-12.8
		h-0.07l-1.38,12.8H43.78z"/>
	<path class="st0" d="M50,45.47h2.68l3.75,17.38h0.07V45.47h1.86v23.74h-2.24l-4.2-19.58h-0.07v19.58H50V45.47z"/>
	<path class="st0" d="M62.39,45.47h3.92c2.75,0,4.06,1.41,4.06,4.3v15.14c0,2.89-1.31,4.3-4.06,4.3h-3.92V45.47z M66.07,67.42
		c1.72,0,2.24-0.65,2.24-2.86V50.11c0-2.2-0.52-2.86-2.24-2.86h-1.62v20.16H66.07z"/>
	<path class="st0" d="M79.9,45.47h6.81v1.79h-4.75v8.64h4.13v1.79h-4.13v11.53H79.9V45.47z"/>
	<path class="st0" d="M89.92,45.47h2.06v23.74h-2.06V45.47z"/>
	<path class="st0" d="M96,45.47h3.82c2.75,0,4.06,1.41,4.06,4.3v3.03c0,1.93-0.62,3.1-1.86,3.65v0.07c1.24,0.55,1.86,1.72,1.86,3.68
		v9.01h-2.06v-8.88c0-2.2-0.62-2.86-2.58-2.86h-1.17v11.73H96V45.47z M99.58,55.69c1.72,0,2.24-0.65,2.24-2.86v-2.72
		c0-2.2-0.52-2.86-2.24-2.86h-1.51v8.43H99.58z"/>
	<path class="st0" d="M107.74,45.47h3.27l2.65,17.51h0.07l2.65-17.51h3.41v23.74h-2.06V47.98h-0.07l-3.2,21.23h-1.62l-3.2-21.23
		h-0.07v21.23h-1.82V45.47z"/>
	<path class="st0" d="M129.48,45.47h3.27l2.65,17.51h0.07l2.65-17.51h3.41v23.74h-2.06V47.98h-0.07l-3.2,21.23h-1.62l-3.2-21.23
		h-0.07v21.23h-1.82V45.47z"/>
	<path class="st0" d="M145.48,65.39V45.47h2.06v19.54c0,1.93,0.48,2.68,1.86,2.68c1.38,0,1.86-0.76,1.86-2.68V45.47h2v19.92
		c0,2.65-1.44,4.16-3.89,4.16C146.93,69.55,145.48,68.04,145.48,65.39z"/>
	<path class="st0" d="M156.83,65.32v-4.16h2v3.79c0,1.96,0.55,2.75,1.93,2.75c1.41,0,1.96-0.79,1.96-2.75v-3.58
		c0-1.62-0.45-2.41-1.62-3.17l-1.82-1.17c-1.75-1.14-2.44-2.44-2.44-4.75v-3.06c0-2.62,1.41-4.09,3.85-4.09
		c2.44,0,3.85,1.48,3.85,4.09v3.06h-2v-2.72c0-1.86-0.52-2.58-1.82-2.58s-1.82,0.72-1.82,2.58v2.58c0,1.62,0.45,2.41,1.62,3.17
		l1.82,1.17c1.75,1.13,2.44,2.44,2.44,4.75v4.09c0,2.72-1.48,4.23-3.99,4.23S156.83,68.04,156.83,65.32z"/>
	<path class="st0" d="M168.22,65.46V49.22c0-2.62,1.38-4.09,3.85-4.09c2.51,0,3.89,1.48,3.89,4.09v3.89H174v-3.54
		c0-1.86-0.55-2.58-1.86-2.58c-1.34,0-1.86,0.72-1.86,2.58v15.55c0,1.86,0.52,2.58,1.86,2.58c1.31,0,1.86-0.72,1.86-2.58v-4.78h1.96
		v5.13c0,2.62-1.38,4.09-3.89,4.09C169.6,69.55,168.22,68.07,168.22,65.46z"/>
	<path class="st0" d="M179.61,45.47h2.06v21.95h4.4v1.79h-6.47V45.47z"/>
	<path class="st0" d="M189.28,45.47h6.81v1.79h-4.75v8.29h4.13v1.79h-4.13v10.08h4.75v1.79h-6.81V45.47z"/>
	<path class="st0" d="M199.12,65.32v-4.16h2v3.79c0,1.96,0.55,2.75,1.93,2.75c1.41,0,1.96-0.79,1.96-2.75v-3.58
		c0-1.62-0.45-2.41-1.62-3.17l-1.82-1.17c-1.75-1.14-2.44-2.44-2.44-4.75v-3.06c0-2.62,1.41-4.09,3.85-4.09
		c2.44,0,3.85,1.48,3.85,4.09v3.06h-2v-2.72c0-1.86-0.52-2.58-1.82-2.58s-1.82,0.72-1.82,2.58v2.58c0,1.62,0.45,2.41,1.62,3.17
		l1.82,1.17c1.75,1.13,2.44,2.44,2.44,4.75v4.09c0,2.72-1.48,4.23-3.99,4.23S199.12,68.04,199.12,65.32z"/>
	<path class="st0" d="M210.64,66.39h2.31v2.82h-2.31V66.39z"/>
</g>
</svg>
