<?xml version="1.0" encoding="utf-8"?>
<!-- Generator: Adobe Illustrator 25.2.1, SVG Export Plug-In . SVG Version: 6.00 Build 0)  -->
<svg version="1.1" id="Layer_1" xmlns="http://www.w3.org/2000/svg" xmlns:xlink="http://www.w3.org/1999/xlink" x="0px" y="0px"
	 viewBox="0 0 728 90" style="enable-background:new 0 0 728 90;" xml:space="preserve">
<style type="text/css">
	.st0{fill:#00A9E0;}
	.st1{fill:#FFFFFF;}
</style>
<rect x="458.99" y="53.32" class="st0" width="94.52" height="21.31"/>
<g>
	<path class="st1" d="M468.96,67.9V60.7h1.75v5.69h2.79v1.52H468.96z"/>
	<path class="st1" d="M475.23,67.9V60.7h4.84v1.48h-3.17v1.35h2.99v1.39h-2.99v1.5h3.35v1.49H475.23z"/>
	<path class="st1" d="M487.21,67.9l-0.56-1.42h-2.79l-0.53,1.42h-1.89l3.02-7.21h1.69l2.99,7.21H487.21z M485.28,62.62l-0.92,2.47
		h1.81L485.28,62.62z"/>
	<path class="st1" d="M494.52,67.9l-1.56-2.86h-0.59v2.86h-1.71V60.7h2.75c1.38,0,2.76,0.53,2.76,2.18c0,0.97-0.57,1.66-1.5,1.94
		l1.88,3.08H494.52z M493.29,62.1h-0.93v1.68h0.82c0.56,0,1.26-0.14,1.26-0.88C494.45,62.23,493.81,62.1,493.29,62.1z"/>
	<path class="st1" d="M502.91,67.9l-2.9-4.71h-0.03l0.04,4.71h-1.69V60.7h1.98l2.89,4.7h0.03l-0.04-4.7h1.69v7.21H502.91z"/>
	<path class="st1" d="M517.28,67.9l0.04-5.1h-0.03l-1.87,5.1h-1.22l-1.82-5.1h-0.03l0.04,5.1h-1.64V60.7h2.47l1.64,4.62h0.04
		l1.57-4.62h2.51v7.21H517.28z"/>
	<path class="st1" d="M524.96,68.1c-2.25,0-3.92-1.55-3.92-3.83c0-2.31,1.67-3.77,3.92-3.77c2.26,0,3.93,1.46,3.93,3.77
		C528.89,66.55,527.22,68.1,524.96,68.1z M524.96,62.07c-1.22,0-2.06,0.94-2.06,2.2c0,1.3,0.84,2.24,2.06,2.24
		c1.21,0,2.07-0.94,2.07-2.24C527.03,63.01,526.19,62.07,524.96,62.07z"/>
	<path class="st1" d="M534.82,67.9l-1.56-2.86h-0.59v2.86h-1.71V60.7h2.75c1.38,0,2.76,0.53,2.76,2.18c0,0.97-0.57,1.66-1.5,1.94
		l1.88,3.08H534.82z M533.59,62.1h-0.93v1.68h0.82c0.56,0,1.26-0.14,1.26-0.88C534.75,62.23,534.1,62.1,533.59,62.1z"/>
	<path class="st1" d="M538.62,67.9V60.7h4.84v1.48h-3.17v1.35h2.99v1.39h-2.99v1.5h3.35v1.49H538.62z"/>
</g>
</svg>
