<?xml version="1.0" encoding="utf-8"?>
<!-- Generator: Adobe Illustrator 25.2.1, SVG Export Plug-In . SVG Version: 6.00 Build 0)  -->
<svg version="1.1" id="Layer_1" xmlns="http://www.w3.org/2000/svg" xmlns:xlink="http://www.w3.org/1999/xlink" x="0px" y="0px"
	 viewBox="0 0 728 90" style="enable-background:new 0 0 728 90;" xml:space="preserve">
<style type="text/css">
	.st0{fill:#FFFFFF;}
</style>
<g>
	<path class="st0" d="M38.99,82.26h-0.75l2.09-4.82h0.61l2.07,4.82h-0.76l-0.49-1.18h-2.29L38.99,82.26z M39.71,80.48h1.8l-0.9-2.26
		L39.71,80.48z"/>
	<path class="st0" d="M43.59,79.4c0-0.14-0.01-0.26-0.02-0.36h0.6c0.01,0.08,0.02,0.18,0.02,0.28s0.01,0.19,0.01,0.26h0.02
		c0.09-0.19,0.22-0.34,0.4-0.46c0.17-0.12,0.37-0.17,0.59-0.17c0.1,0,0.18,0.01,0.25,0.03l-0.03,0.59
		c-0.09-0.02-0.19-0.03-0.29-0.03c-0.15,0-0.29,0.03-0.4,0.08c-0.11,0.06-0.21,0.13-0.28,0.23c-0.07,0.1-0.13,0.21-0.17,0.33
		c-0.04,0.12-0.05,0.25-0.05,0.39v1.69H43.6v-2.53C43.6,79.64,43.6,79.53,43.59,79.4z"/>
	<path class="st0" d="M46.81,77.87c0,0.12-0.04,0.21-0.12,0.29c-0.08,0.08-0.18,0.12-0.3,0.12s-0.22-0.04-0.3-0.12
		c-0.08-0.08-0.12-0.18-0.12-0.29c0-0.12,0.04-0.22,0.12-0.3c0.08-0.08,0.18-0.12,0.3-0.12s0.22,0.04,0.3,0.12
		C46.77,77.66,46.81,77.75,46.81,77.87z M46.71,82.26h-0.64v-3.22h0.64V82.26z"/>
	<path class="st0" d="M50.84,80.62c0,0.04,0,0.07,0,0.11s0,0.07-0.01,0.11h-2.56c0,0.14,0.04,0.26,0.09,0.38s0.13,0.22,0.23,0.31
		s0.21,0.16,0.33,0.21c0.12,0.05,0.26,0.07,0.4,0.07c0.22,0,0.41-0.05,0.56-0.14c0.16-0.09,0.28-0.21,0.37-0.35l0.45,0.36
		c-0.17,0.23-0.38,0.4-0.61,0.5c-0.23,0.11-0.49,0.16-0.78,0.16c-0.25,0-0.47-0.04-0.68-0.12c-0.21-0.08-0.39-0.2-0.54-0.34
		c-0.15-0.15-0.27-0.33-0.35-0.53c-0.09-0.21-0.13-0.44-0.13-0.69c0-0.25,0.04-0.48,0.13-0.69c0.08-0.21,0.2-0.39,0.35-0.54
		c0.15-0.15,0.33-0.27,0.53-0.35c0.2-0.08,0.42-0.13,0.66-0.13s0.45,0.04,0.64,0.12c0.19,0.08,0.36,0.19,0.49,0.33
		c0.13,0.14,0.24,0.32,0.31,0.53C50.8,80.13,50.84,80.36,50.84,80.62z M50.18,80.36c0-0.13-0.03-0.25-0.06-0.36
		c-0.04-0.11-0.1-0.21-0.17-0.29c-0.07-0.08-0.17-0.15-0.28-0.19c-0.11-0.05-0.24-0.07-0.39-0.07c-0.14,0-0.26,0.02-0.38,0.07
		c-0.12,0.05-0.22,0.11-0.31,0.19c-0.09,0.08-0.16,0.18-0.22,0.29s-0.09,0.23-0.1,0.36H50.18z"/>
	<path class="st0" d="M52.37,82.26h-0.64v-5.14h0.64V82.26z"/>
	<path class="st0" d="M55.43,79.04l0.73,2.46h0.01l0.77-2.46h0.67l0.78,2.46h0.01l0.73-2.46h0.67l-1.07,3.22h-0.67l-0.8-2.42h-0.01
		l-0.79,2.42h-0.67l-1.07-3.22H55.43z"/>
	<path class="st0" d="M62.45,80.17c0-0.24-0.07-0.42-0.22-0.53s-0.34-0.17-0.58-0.17c-0.18,0-0.35,0.04-0.51,0.11
		s-0.3,0.16-0.4,0.27l-0.34-0.41c0.16-0.15,0.35-0.27,0.58-0.35c0.23-0.09,0.47-0.13,0.74-0.13c0.23,0,0.43,0.03,0.6,0.1
		s0.31,0.16,0.42,0.27s0.19,0.25,0.24,0.4c0.05,0.15,0.08,0.32,0.08,0.5v1.41c0,0.11,0,0.22,0.01,0.34s0.02,0.22,0.04,0.3h-0.58
		c-0.04-0.15-0.05-0.31-0.05-0.46h-0.02c-0.12,0.17-0.27,0.31-0.45,0.4c-0.18,0.1-0.39,0.14-0.64,0.14c-0.13,0-0.26-0.02-0.4-0.05
		c-0.14-0.03-0.26-0.09-0.38-0.17c-0.11-0.08-0.21-0.18-0.28-0.31c-0.08-0.13-0.11-0.28-0.11-0.47c0-0.25,0.07-0.44,0.2-0.58
		c0.13-0.14,0.3-0.25,0.52-0.33c0.21-0.08,0.45-0.12,0.72-0.15s0.54-0.03,0.81-0.03V80.17z M62.3,80.72c-0.16,0-0.32,0.01-0.49,0.02
		c-0.17,0.01-0.32,0.04-0.46,0.08c-0.14,0.04-0.25,0.1-0.34,0.18c-0.09,0.08-0.14,0.19-0.14,0.33c0,0.09,0.02,0.17,0.06,0.24
		s0.09,0.12,0.15,0.16s0.13,0.07,0.21,0.08c0.08,0.02,0.16,0.02,0.24,0.02c0.3,0,0.53-0.09,0.69-0.27c0.16-0.18,0.24-0.4,0.24-0.68
		v-0.17H62.3z"/>
	<path class="st0" d="M65.87,79.85c-0.07-0.12-0.17-0.21-0.31-0.29c-0.13-0.07-0.28-0.11-0.44-0.11c-0.07,0-0.15,0.01-0.22,0.02
		c-0.07,0.02-0.14,0.04-0.19,0.07c-0.06,0.03-0.1,0.08-0.14,0.13c-0.03,0.05-0.05,0.12-0.05,0.19c0,0.14,0.06,0.24,0.18,0.3
		c0.12,0.07,0.31,0.13,0.55,0.18c0.15,0.04,0.3,0.08,0.43,0.13s0.25,0.11,0.34,0.19c0.1,0.07,0.17,0.16,0.23,0.27
		c0.05,0.1,0.08,0.23,0.08,0.37c0,0.19-0.04,0.35-0.11,0.48c-0.07,0.13-0.17,0.24-0.29,0.32c-0.12,0.08-0.26,0.14-0.41,0.18
		c-0.15,0.04-0.31,0.05-0.48,0.05c-0.25,0-0.48-0.05-0.72-0.14c-0.23-0.09-0.43-0.24-0.58-0.43l0.46-0.39
		c0.09,0.13,0.21,0.23,0.36,0.32s0.32,0.13,0.5,0.13c0.08,0,0.16-0.01,0.23-0.02s0.14-0.04,0.2-0.08s0.11-0.08,0.15-0.14
		c0.04-0.06,0.05-0.13,0.05-0.22c0-0.15-0.07-0.26-0.21-0.33c-0.14-0.07-0.35-0.14-0.63-0.2c-0.11-0.03-0.22-0.06-0.33-0.1
		c-0.11-0.04-0.21-0.09-0.3-0.16c-0.09-0.07-0.16-0.15-0.22-0.25c-0.06-0.1-0.09-0.23-0.09-0.38c0-0.17,0.04-0.32,0.11-0.45
		s0.16-0.23,0.28-0.31c0.11-0.08,0.24-0.14,0.39-0.18c0.15-0.04,0.29-0.06,0.45-0.06c0.23,0,0.45,0.05,0.67,0.14
		c0.22,0.09,0.38,0.22,0.5,0.39L65.87,79.85z"/>
	<path class="st0" d="M70.43,79.56h-0.86v1.67c0,0.19,0.04,0.33,0.11,0.42c0.07,0.08,0.19,0.12,0.35,0.12
		c0.06,0,0.12-0.01,0.19-0.02c0.07-0.01,0.13-0.03,0.18-0.06l0.02,0.52c-0.08,0.03-0.16,0.05-0.25,0.06
		c-0.09,0.02-0.19,0.02-0.29,0.02c-0.3,0-0.54-0.08-0.7-0.25c-0.16-0.17-0.24-0.42-0.24-0.75v-1.75h-0.62v-0.52h0.62v-0.93h0.63
		v0.93h0.86V79.56z"/>
	<path class="st0" d="M71.08,79.4c0-0.14-0.01-0.26-0.02-0.36h0.6c0.01,0.08,0.02,0.18,0.02,0.28s0.01,0.19,0.01,0.26h0.02
		c0.09-0.19,0.22-0.34,0.4-0.46c0.17-0.12,0.37-0.17,0.59-0.17c0.1,0,0.18,0.01,0.25,0.03l-0.03,0.59
		c-0.09-0.02-0.19-0.03-0.29-0.03c-0.15,0-0.29,0.03-0.4,0.08c-0.11,0.06-0.21,0.13-0.28,0.23c-0.07,0.1-0.13,0.21-0.17,0.33
		c-0.04,0.12-0.05,0.25-0.05,0.39v1.69h-0.64v-2.53C71.09,79.64,71.09,79.53,71.08,79.4z"/>
	<path class="st0" d="M76.44,80.62c0,0.04,0,0.07,0,0.11s0,0.07-0.01,0.11h-2.56c0,0.14,0.04,0.26,0.09,0.38s0.13,0.22,0.23,0.31
		s0.21,0.16,0.33,0.21c0.12,0.05,0.26,0.07,0.4,0.07c0.22,0,0.41-0.05,0.56-0.14c0.16-0.09,0.28-0.21,0.37-0.35l0.45,0.36
		c-0.17,0.23-0.38,0.4-0.61,0.5c-0.23,0.11-0.49,0.16-0.78,0.16c-0.25,0-0.47-0.04-0.68-0.12c-0.21-0.08-0.39-0.2-0.54-0.34
		c-0.15-0.15-0.27-0.33-0.35-0.53c-0.09-0.21-0.13-0.44-0.13-0.69c0-0.25,0.04-0.48,0.13-0.69c0.08-0.21,0.2-0.39,0.35-0.54
		c0.15-0.15,0.33-0.27,0.53-0.35c0.2-0.08,0.42-0.13,0.66-0.13s0.45,0.04,0.64,0.12c0.19,0.08,0.36,0.19,0.49,0.33
		c0.13,0.14,0.24,0.32,0.31,0.53C76.41,80.13,76.44,80.36,76.44,80.62z M75.79,80.36c0-0.13-0.03-0.25-0.06-0.36
		c-0.04-0.11-0.1-0.21-0.17-0.29c-0.07-0.08-0.17-0.15-0.28-0.19c-0.11-0.05-0.24-0.07-0.39-0.07c-0.14,0-0.26,0.02-0.38,0.07
		c-0.12,0.05-0.22,0.11-0.31,0.19c-0.09,0.08-0.16,0.18-0.22,0.29s-0.09,0.23-0.1,0.36H75.79z"/>
	<path class="st0" d="M79.29,80.17c0-0.24-0.07-0.42-0.22-0.53s-0.34-0.17-0.58-0.17c-0.18,0-0.35,0.04-0.51,0.11
		s-0.3,0.16-0.4,0.27l-0.34-0.41c0.16-0.15,0.35-0.27,0.58-0.35c0.23-0.09,0.47-0.13,0.74-0.13c0.23,0,0.43,0.03,0.6,0.1
		s0.31,0.16,0.42,0.27s0.19,0.25,0.24,0.4c0.05,0.15,0.08,0.32,0.08,0.5v1.41c0,0.11,0,0.22,0.01,0.34s0.02,0.22,0.04,0.3h-0.58
		c-0.04-0.15-0.05-0.31-0.05-0.46H79.3c-0.12,0.17-0.27,0.31-0.45,0.4c-0.18,0.1-0.39,0.14-0.64,0.14c-0.13,0-0.26-0.02-0.4-0.05
		c-0.14-0.03-0.26-0.09-0.38-0.17c-0.11-0.08-0.21-0.18-0.28-0.31c-0.08-0.13-0.11-0.28-0.11-0.47c0-0.25,0.07-0.44,0.2-0.58
		c0.13-0.14,0.3-0.25,0.52-0.33c0.21-0.08,0.45-0.12,0.72-0.15s0.54-0.03,0.81-0.03V80.17z M79.14,80.72
		c-0.16,0-0.32,0.01-0.49,0.02c-0.17,0.01-0.32,0.04-0.46,0.08c-0.14,0.04-0.25,0.1-0.34,0.18c-0.09,0.08-0.14,0.19-0.14,0.33
		c0,0.09,0.02,0.17,0.06,0.24s0.09,0.12,0.15,0.16s0.13,0.07,0.21,0.08c0.08,0.02,0.16,0.02,0.24,0.02c0.3,0,0.53-0.09,0.69-0.27
		c0.16-0.18,0.24-0.4,0.24-0.68v-0.17H79.14z"/>
	<path class="st0" d="M82.48,79.56h-0.86v1.67c0,0.19,0.04,0.33,0.11,0.42c0.07,0.08,0.19,0.12,0.35,0.12
		c0.06,0,0.12-0.01,0.19-0.02c0.07-0.01,0.13-0.03,0.18-0.06l0.02,0.52c-0.08,0.03-0.16,0.05-0.25,0.06
		c-0.09,0.02-0.19,0.02-0.29,0.02c-0.3,0-0.54-0.08-0.7-0.25C81.08,81.89,81,81.64,81,81.31v-1.75h-0.62v-0.52H81v-0.93h0.63v0.93
		h0.86V79.56z"/>
	<path class="st0" d="M86.16,80.62c0,0.04,0,0.07,0,0.11s0,0.07-0.01,0.11h-2.56c0,0.14,0.04,0.26,0.09,0.38s0.13,0.22,0.23,0.31
		s0.21,0.16,0.33,0.21c0.12,0.05,0.26,0.07,0.4,0.07c0.22,0,0.41-0.05,0.56-0.14c0.16-0.09,0.28-0.21,0.37-0.35l0.45,0.36
		c-0.17,0.23-0.38,0.4-0.61,0.5c-0.23,0.11-0.49,0.16-0.78,0.16c-0.25,0-0.47-0.04-0.68-0.12c-0.21-0.08-0.39-0.2-0.54-0.34
		c-0.15-0.15-0.27-0.33-0.35-0.53c-0.09-0.21-0.13-0.44-0.13-0.69c0-0.25,0.04-0.48,0.13-0.69c0.08-0.21,0.2-0.39,0.35-0.54
		c0.15-0.15,0.33-0.27,0.53-0.35c0.2-0.08,0.42-0.13,0.66-0.13s0.45,0.04,0.64,0.12c0.19,0.08,0.36,0.19,0.49,0.33
		c0.13,0.14,0.24,0.32,0.31,0.53C86.12,80.13,86.16,80.36,86.16,80.62z M85.5,80.36c0-0.13-0.03-0.25-0.06-0.36
		c-0.04-0.11-0.1-0.21-0.17-0.29c-0.07-0.08-0.17-0.15-0.28-0.19c-0.11-0.05-0.24-0.07-0.39-0.07c-0.14,0-0.26,0.02-0.38,0.07
		c-0.12,0.05-0.22,0.11-0.31,0.19c-0.09,0.08-0.16,0.18-0.22,0.29s-0.09,0.23-0.1,0.36H85.5z"/>
	<path class="st0" d="M89.61,81.75c-0.12,0.19-0.29,0.34-0.5,0.45c-0.21,0.1-0.43,0.15-0.66,0.15c-0.25,0-0.47-0.04-0.67-0.13
		c-0.2-0.09-0.37-0.21-0.51-0.36s-0.25-0.33-0.33-0.54s-0.12-0.43-0.12-0.67c0-0.24,0.04-0.46,0.12-0.66
		c0.08-0.21,0.19-0.39,0.33-0.54c0.14-0.15,0.31-0.27,0.51-0.36c0.2-0.09,0.42-0.13,0.66-0.13c0.26,0,0.49,0.06,0.69,0.17
		c0.19,0.11,0.35,0.25,0.46,0.4h0.01v-2.4h0.64v5.14h-0.62v-0.51H89.61z M87.49,80.64c0,0.15,0.02,0.29,0.07,0.43
		c0.05,0.14,0.11,0.26,0.2,0.37s0.2,0.2,0.33,0.26c0.13,0.07,0.29,0.1,0.46,0.1c0.16,0,0.31-0.03,0.45-0.09s0.25-0.15,0.34-0.25
		c0.1-0.11,0.17-0.23,0.22-0.37c0.05-0.14,0.08-0.29,0.08-0.44c0-0.15-0.03-0.3-0.08-0.44c-0.05-0.14-0.13-0.26-0.22-0.37
		c-0.1-0.11-0.21-0.2-0.34-0.26c-0.13-0.06-0.28-0.1-0.45-0.1c-0.18,0-0.33,0.03-0.46,0.1c-0.13,0.06-0.24,0.15-0.33,0.26
		c-0.09,0.11-0.16,0.23-0.2,0.37C87.51,80.35,87.49,80.5,87.49,80.64z"/>
	<path class="st0" d="M93.3,79.04l0.73,2.46h0.01l0.77-2.46h0.67l0.78,2.46h0.01l0.73-2.46h0.67l-1.07,3.22h-0.67l-0.8-2.42h-0.01
		l-0.79,2.42h-0.67l-1.07-3.22H93.3z"/>
	<path class="st0" d="M99.07,77.87c0,0.12-0.04,0.21-0.12,0.29c-0.08,0.08-0.18,0.12-0.3,0.12s-0.22-0.04-0.3-0.12
		c-0.08-0.08-0.12-0.18-0.12-0.29c0-0.12,0.04-0.22,0.12-0.3c0.08-0.08,0.18-0.12,0.3-0.12s0.22,0.04,0.3,0.12
		C99.03,77.66,99.07,77.75,99.07,77.87z M98.97,82.26h-0.64v-3.22h0.64V82.26z"/>
	<path class="st0" d="M101.66,79.56h-0.86v1.67c0,0.19,0.04,0.33,0.11,0.42c0.07,0.08,0.19,0.12,0.35,0.12
		c0.06,0,0.12-0.01,0.19-0.02c0.07-0.01,0.13-0.03,0.18-0.06l0.02,0.52c-0.08,0.03-0.16,0.05-0.25,0.06
		c-0.09,0.02-0.19,0.02-0.29,0.02c-0.3,0-0.54-0.08-0.7-0.25c-0.16-0.17-0.24-0.42-0.24-0.75v-1.75h-0.62v-0.52h0.62v-0.93h0.63
		v0.93h0.86V79.56z"/>
	<path class="st0" d="M102.98,79.53c0.08-0.16,0.21-0.29,0.39-0.41s0.39-0.17,0.63-0.17c0.21,0,0.39,0.04,0.54,0.11
		c0.15,0.07,0.27,0.16,0.37,0.28c0.1,0.12,0.17,0.26,0.22,0.42c0.05,0.16,0.07,0.33,0.07,0.51v2h-0.64v-1.79
		c0-0.13-0.01-0.26-0.03-0.38c-0.02-0.12-0.06-0.22-0.11-0.31c-0.05-0.09-0.13-0.16-0.22-0.22c-0.09-0.05-0.21-0.08-0.36-0.08
		c-0.25,0-0.46,0.1-0.63,0.29s-0.24,0.45-0.24,0.77v1.71h-0.64v-5.14h0.64v2.41H102.98z"/>
	<path class="st0" d="M112.15,81.51c-0.19,0.26-0.44,0.47-0.74,0.63s-0.67,0.24-1.1,0.24c-0.37,0-0.71-0.06-1.02-0.19
		c-0.31-0.12-0.58-0.3-0.8-0.52c-0.22-0.22-0.4-0.49-0.53-0.8c-0.13-0.31-0.19-0.65-0.19-1.02c0-0.38,0.06-0.72,0.19-1.03
		c0.13-0.31,0.31-0.58,0.54-0.8c0.23-0.22,0.5-0.39,0.81-0.51c0.31-0.12,0.65-0.18,1.02-0.18c0.16,0,0.33,0.02,0.5,0.05
		c0.17,0.03,0.33,0.08,0.48,0.14s0.29,0.14,0.42,0.23c0.13,0.09,0.24,0.2,0.33,0.32l-0.53,0.41c-0.12-0.16-0.28-0.3-0.5-0.41
		s-0.45-0.16-0.7-0.16c-0.28,0-0.53,0.05-0.76,0.15c-0.22,0.1-0.42,0.24-0.57,0.42c-0.16,0.18-0.28,0.38-0.37,0.62
		c-0.09,0.23-0.13,0.48-0.13,0.74c0,0.27,0.04,0.53,0.13,0.76c0.08,0.24,0.2,0.44,0.36,0.62s0.35,0.31,0.57,0.41
		s0.48,0.15,0.75,0.15c0.27,0,0.52-0.05,0.74-0.16c0.22-0.11,0.41-0.27,0.55-0.48L112.15,81.51z"/>
	<path class="st0" d="M115.99,80.64c0,0.25-0.04,0.48-0.13,0.69c-0.09,0.21-0.21,0.39-0.37,0.54c-0.16,0.15-0.34,0.27-0.55,0.35
		c-0.21,0.08-0.44,0.13-0.69,0.13c-0.25,0-0.47-0.04-0.69-0.13c-0.21-0.08-0.4-0.2-0.55-0.35c-0.15-0.15-0.28-0.33-0.36-0.54
		c-0.09-0.21-0.13-0.44-0.13-0.69c0-0.25,0.04-0.48,0.13-0.68c0.09-0.21,0.21-0.38,0.36-0.53c0.15-0.15,0.34-0.27,0.55-0.35
		c0.21-0.08,0.44-0.13,0.69-0.13c0.24,0,0.47,0.04,0.69,0.13c0.21,0.08,0.4,0.2,0.55,0.35c0.16,0.15,0.28,0.33,0.37,0.53
		C115.95,80.16,115.99,80.39,115.99,80.64z M115.32,80.64c0-0.15-0.02-0.3-0.07-0.44c-0.05-0.14-0.12-0.26-0.21-0.37
		c-0.09-0.11-0.2-0.19-0.34-0.25c-0.13-0.06-0.29-0.1-0.46-0.1c-0.17,0-0.33,0.03-0.46,0.1c-0.13,0.06-0.25,0.15-0.34,0.25
		c-0.09,0.11-0.16,0.23-0.21,0.37c-0.05,0.14-0.07,0.29-0.07,0.44c0,0.15,0.02,0.3,0.07,0.44c0.05,0.14,0.12,0.26,0.21,0.37
		c0.09,0.11,0.2,0.19,0.34,0.26s0.29,0.09,0.46,0.09c0.17,0,0.33-0.03,0.46-0.09s0.25-0.15,0.34-0.26c0.09-0.11,0.16-0.23,0.21-0.37
		C115.3,80.95,115.32,80.8,115.32,80.64z"/>
	<path class="st0" d="M120.14,80.64c0,0.25-0.04,0.48-0.13,0.69c-0.09,0.21-0.21,0.39-0.37,0.54c-0.16,0.15-0.34,0.27-0.55,0.35
		c-0.21,0.08-0.44,0.13-0.69,0.13c-0.25,0-0.47-0.04-0.69-0.13c-0.21-0.08-0.4-0.2-0.55-0.35c-0.15-0.15-0.28-0.33-0.36-0.54
		c-0.09-0.21-0.13-0.44-0.13-0.69c0-0.25,0.04-0.48,0.13-0.68c0.09-0.21,0.21-0.38,0.36-0.53c0.15-0.15,0.34-0.27,0.55-0.35
		c0.21-0.08,0.44-0.13,0.69-0.13c0.24,0,0.47,0.04,0.69,0.13c0.21,0.08,0.4,0.2,0.55,0.35c0.16,0.15,0.28,0.33,0.37,0.53
		C120.09,80.16,120.14,80.39,120.14,80.64z M119.47,80.64c0-0.15-0.02-0.3-0.07-0.44c-0.05-0.14-0.12-0.26-0.21-0.37
		c-0.09-0.11-0.2-0.19-0.34-0.25c-0.13-0.06-0.29-0.1-0.46-0.1c-0.17,0-0.33,0.03-0.46,0.1c-0.13,0.06-0.25,0.15-0.34,0.25
		c-0.09,0.11-0.16,0.23-0.21,0.37c-0.05,0.14-0.07,0.29-0.07,0.44c0,0.15,0.02,0.3,0.07,0.44c0.05,0.14,0.12,0.26,0.21,0.37
		c0.09,0.11,0.2,0.19,0.34,0.26s0.29,0.09,0.46,0.09c0.17,0,0.33-0.03,0.46-0.09s0.25-0.15,0.34-0.26c0.09-0.11,0.16-0.23,0.21-0.37
		C119.45,80.95,119.47,80.8,119.47,80.64z"/>
	<path class="st0" d="M121.68,82.26h-0.64v-5.14h0.64V82.26z"/>
	<path class="st0" d="M124.51,82.26h-0.67v-4.22h-1.54v-0.59h3.76v0.59h-1.54V82.26z"/>
	<path class="st0" d="M129.27,80.64c0,0.25-0.04,0.48-0.13,0.69c-0.09,0.21-0.21,0.39-0.37,0.54c-0.16,0.15-0.34,0.27-0.55,0.35
		c-0.21,0.08-0.44,0.13-0.69,0.13c-0.25,0-0.47-0.04-0.69-0.13c-0.21-0.08-0.4-0.2-0.55-0.35c-0.15-0.15-0.28-0.33-0.36-0.54
		c-0.09-0.21-0.13-0.44-0.13-0.69c0-0.25,0.04-0.48,0.13-0.68c0.09-0.21,0.21-0.38,0.36-0.53c0.15-0.15,0.34-0.27,0.55-0.35
		c0.21-0.08,0.44-0.13,0.69-0.13c0.24,0,0.47,0.04,0.69,0.13c0.21,0.08,0.4,0.2,0.55,0.35c0.16,0.15,0.28,0.33,0.37,0.53
		C129.23,80.16,129.27,80.39,129.27,80.64z M128.61,80.64c0-0.15-0.02-0.3-0.07-0.44c-0.05-0.14-0.12-0.26-0.21-0.37
		c-0.09-0.11-0.2-0.19-0.34-0.25c-0.13-0.06-0.29-0.1-0.46-0.1c-0.17,0-0.33,0.03-0.46,0.1c-0.13,0.06-0.25,0.15-0.34,0.25
		c-0.09,0.11-0.16,0.23-0.21,0.37c-0.05,0.14-0.07,0.29-0.07,0.44c0,0.15,0.02,0.3,0.07,0.44c0.05,0.14,0.12,0.26,0.21,0.37
		c0.09,0.11,0.2,0.19,0.34,0.26s0.29,0.09,0.46,0.09c0.17,0,0.33-0.03,0.46-0.09s0.25-0.15,0.34-0.26c0.09-0.11,0.16-0.23,0.21-0.37
		C128.58,80.95,128.61,80.8,128.61,80.64z"/>
	<path class="st0" d="M130.73,79.04c0.01,0.08,0.02,0.17,0.02,0.28c0,0.1,0.01,0.19,0.01,0.25h0.02c0.04-0.09,0.1-0.17,0.17-0.24
		c0.07-0.08,0.15-0.14,0.24-0.2c0.09-0.06,0.19-0.1,0.3-0.13c0.11-0.03,0.22-0.05,0.34-0.05c0.21,0,0.39,0.04,0.54,0.11
		c0.15,0.07,0.27,0.16,0.37,0.28c0.1,0.12,0.17,0.26,0.22,0.42c0.05,0.16,0.07,0.33,0.07,0.51v2h-0.64v-1.79
		c0-0.13-0.01-0.26-0.03-0.37c-0.02-0.12-0.06-0.22-0.11-0.31c-0.05-0.09-0.13-0.16-0.22-0.22s-0.22-0.08-0.37-0.08
		c-0.25,0-0.46,0.1-0.62,0.29c-0.16,0.19-0.24,0.45-0.24,0.77v1.71h-0.64v-2.53c0-0.09,0-0.2-0.01-0.33c0-0.14-0.01-0.26-0.02-0.36
		H130.73z"/>
	<path class="st0" d="M137.13,80.62c0,0.04,0,0.07,0,0.11s0,0.07-0.01,0.11h-2.56c0,0.14,0.04,0.26,0.09,0.38s0.13,0.22,0.23,0.31
		s0.21,0.16,0.33,0.21c0.12,0.05,0.26,0.07,0.4,0.07c0.22,0,0.41-0.05,0.56-0.14c0.16-0.09,0.28-0.21,0.37-0.35l0.45,0.36
		c-0.17,0.23-0.38,0.4-0.61,0.5c-0.23,0.11-0.49,0.16-0.78,0.16c-0.25,0-0.47-0.04-0.68-0.12c-0.21-0.08-0.39-0.2-0.54-0.34
		c-0.15-0.15-0.27-0.33-0.35-0.53c-0.09-0.21-0.13-0.44-0.13-0.69c0-0.25,0.04-0.48,0.13-0.69c0.08-0.21,0.2-0.39,0.35-0.54
		c0.15-0.15,0.33-0.27,0.53-0.35c0.2-0.08,0.42-0.13,0.66-0.13s0.45,0.04,0.64,0.12c0.19,0.08,0.36,0.19,0.49,0.33
		c0.13,0.14,0.24,0.32,0.31,0.53C137.09,80.13,137.13,80.36,137.13,80.62z M136.48,80.36c0-0.13-0.03-0.25-0.06-0.36
		c-0.04-0.11-0.1-0.21-0.17-0.29c-0.07-0.08-0.17-0.15-0.28-0.19c-0.11-0.05-0.24-0.07-0.39-0.07c-0.14,0-0.26,0.02-0.38,0.07
		c-0.12,0.05-0.22,0.11-0.31,0.19c-0.09,0.08-0.16,0.18-0.22,0.29s-0.09,0.23-0.1,0.36H136.48z"/>
	<path class="st0" d="M137.68,78.91c0-0.21,0.04-0.41,0.12-0.6s0.19-0.35,0.33-0.49c0.14-0.14,0.31-0.25,0.49-0.33
		c0.19-0.08,0.39-0.12,0.6-0.12c0.21,0,0.41,0.04,0.6,0.12c0.19,0.08,0.35,0.19,0.49,0.33c0.14,0.14,0.25,0.3,0.33,0.49
		s0.12,0.39,0.12,0.6c0,0.21-0.04,0.41-0.12,0.6c-0.08,0.19-0.19,0.35-0.33,0.49c-0.14,0.14-0.31,0.25-0.49,0.33
		c-0.19,0.08-0.39,0.12-0.6,0.12c-0.21,0-0.41-0.04-0.6-0.12c-0.19-0.08-0.35-0.19-0.49-0.33c-0.14-0.14-0.25-0.3-0.33-0.49
		C137.72,79.32,137.68,79.12,137.68,78.91z M137.92,78.91c0,0.18,0.03,0.34,0.1,0.5c0.07,0.16,0.16,0.3,0.28,0.42
		c0.12,0.12,0.26,0.21,0.42,0.28s0.33,0.1,0.51,0.1c0.18,0,0.35-0.03,0.51-0.1c0.16-0.07,0.3-0.16,0.41-0.28
		c0.12-0.12,0.21-0.26,0.28-0.42c0.07-0.16,0.1-0.33,0.1-0.5c0-0.18-0.03-0.35-0.1-0.51c-0.07-0.16-0.16-0.3-0.28-0.42
		c-0.12-0.12-0.26-0.21-0.41-0.28c-0.16-0.07-0.33-0.1-0.51-0.1c-0.18,0-0.35,0.03-0.51,0.1c-0.16,0.07-0.3,0.16-0.42,0.28
		c-0.12,0.12-0.21,0.26-0.28,0.42C137.96,78.56,137.92,78.73,137.92,78.91z M139.6,79.76l-0.37-0.67h-0.25v0.67h-0.41v-1.74h0.75
		c0.08,0,0.16,0.01,0.24,0.03c0.08,0.02,0.15,0.05,0.21,0.09c0.06,0.04,0.11,0.1,0.15,0.17s0.06,0.16,0.06,0.26
		c0,0.12-0.03,0.22-0.1,0.29c-0.07,0.08-0.15,0.13-0.25,0.17l0.46,0.73H139.6z M139.31,78.78c0.06,0,0.12-0.02,0.17-0.06
		c0.05-0.04,0.08-0.09,0.08-0.16c0-0.07-0.03-0.12-0.09-0.16c-0.06-0.03-0.11-0.05-0.16-0.05h-0.32v0.43H139.31z"/>
	<path class="st0" d="M146.79,80.64c0,0.25-0.04,0.48-0.13,0.69c-0.09,0.21-0.21,0.39-0.37,0.54c-0.16,0.15-0.34,0.27-0.55,0.35
		c-0.21,0.08-0.44,0.13-0.69,0.13c-0.25,0-0.47-0.04-0.69-0.13c-0.21-0.08-0.4-0.2-0.55-0.35c-0.15-0.15-0.28-0.33-0.36-0.54
		c-0.09-0.21-0.13-0.44-0.13-0.69c0-0.25,0.04-0.48,0.13-0.68c0.09-0.21,0.21-0.38,0.36-0.53c0.15-0.15,0.34-0.27,0.55-0.35
		c0.21-0.08,0.44-0.13,0.69-0.13c0.24,0,0.47,0.04,0.69,0.13c0.21,0.08,0.4,0.2,0.55,0.35c0.16,0.15,0.28,0.33,0.37,0.53
		C146.74,80.16,146.79,80.39,146.79,80.64z M146.12,80.64c0-0.15-0.02-0.3-0.07-0.44c-0.05-0.14-0.12-0.26-0.21-0.37
		c-0.09-0.11-0.2-0.19-0.34-0.25c-0.13-0.06-0.29-0.1-0.46-0.1c-0.17,0-0.33,0.03-0.46,0.1c-0.13,0.06-0.25,0.15-0.34,0.25
		c-0.09,0.11-0.16,0.23-0.21,0.37c-0.05,0.14-0.07,0.29-0.07,0.44c0,0.15,0.02,0.3,0.07,0.44c0.05,0.14,0.12,0.26,0.21,0.37
		c0.09,0.11,0.2,0.19,0.34,0.26s0.29,0.09,0.46,0.09c0.17,0,0.33-0.03,0.46-0.09s0.25-0.15,0.34-0.26c0.09-0.11,0.16-0.23,0.21-0.37
		C146.1,80.95,146.12,80.8,146.12,80.64z"/>
	<path class="st0" d="M148.25,79.04c0.01,0.08,0.02,0.17,0.02,0.28c0,0.1,0.01,0.19,0.01,0.25h0.02c0.04-0.09,0.1-0.17,0.17-0.24
		c0.07-0.08,0.15-0.14,0.24-0.2c0.09-0.06,0.19-0.1,0.3-0.13c0.11-0.03,0.22-0.05,0.34-0.05c0.21,0,0.39,0.04,0.54,0.11
		c0.15,0.07,0.27,0.16,0.37,0.28c0.1,0.12,0.17,0.26,0.22,0.42c0.05,0.16,0.07,0.33,0.07,0.51v2h-0.64v-1.79
		c0-0.13-0.01-0.26-0.03-0.37c-0.02-0.12-0.06-0.22-0.11-0.31c-0.05-0.09-0.13-0.16-0.22-0.22s-0.22-0.08-0.37-0.08
		c-0.25,0-0.46,0.1-0.62,0.29c-0.16,0.19-0.24,0.45-0.24,0.77v1.71h-0.64v-2.53c0-0.09,0-0.2-0.01-0.33c0-0.14-0.01-0.26-0.02-0.36
		H148.25z"/>
	<path class="st0" d="M154,79.53c0.08-0.16,0.21-0.29,0.39-0.41s0.39-0.17,0.63-0.17c0.21,0,0.39,0.04,0.54,0.11
		c0.15,0.07,0.27,0.16,0.37,0.28c0.1,0.12,0.17,0.26,0.22,0.42c0.05,0.16,0.07,0.33,0.07,0.51v2h-0.64v-1.79
		c0-0.13-0.01-0.26-0.03-0.38c-0.02-0.12-0.06-0.22-0.11-0.31c-0.05-0.09-0.13-0.16-0.22-0.22c-0.09-0.05-0.21-0.08-0.36-0.08
		c-0.25,0-0.46,0.1-0.63,0.29s-0.24,0.45-0.24,0.77v1.71h-0.64v-5.14h0.64v2.41H154z"/>
	<path class="st0" d="M160.31,80.62c0,0.04,0,0.07,0,0.11s0,0.07-0.01,0.11h-2.56c0,0.14,0.04,0.26,0.09,0.38s0.13,0.22,0.23,0.31
		s0.21,0.16,0.33,0.21c0.12,0.05,0.26,0.07,0.4,0.07c0.22,0,0.41-0.05,0.56-0.14c0.16-0.09,0.28-0.21,0.37-0.35l0.45,0.36
		c-0.17,0.23-0.38,0.4-0.61,0.5c-0.23,0.11-0.49,0.16-0.78,0.16c-0.25,0-0.47-0.04-0.68-0.12c-0.21-0.08-0.39-0.2-0.54-0.34
		c-0.15-0.15-0.27-0.33-0.35-0.53c-0.09-0.21-0.13-0.44-0.13-0.69c0-0.25,0.04-0.48,0.13-0.69c0.08-0.21,0.2-0.39,0.35-0.54
		c0.15-0.15,0.33-0.27,0.53-0.35c0.2-0.08,0.42-0.13,0.66-0.13s0.45,0.04,0.64,0.12c0.19,0.08,0.36,0.19,0.49,0.33
		c0.13,0.14,0.24,0.32,0.31,0.53C160.28,80.13,160.31,80.36,160.31,80.62z M159.66,80.36c0-0.13-0.03-0.25-0.06-0.36
		c-0.04-0.11-0.1-0.21-0.17-0.29c-0.07-0.08-0.17-0.15-0.28-0.19c-0.11-0.05-0.24-0.07-0.39-0.07c-0.14,0-0.26,0.02-0.38,0.07
		c-0.12,0.05-0.22,0.11-0.31,0.19c-0.09,0.08-0.16,0.18-0.22,0.29s-0.09,0.23-0.1,0.36H159.66z"/>
	<path class="st0" d="M161.19,79.4c0-0.14-0.01-0.26-0.02-0.36h0.6c0.01,0.08,0.02,0.18,0.02,0.28s0.01,0.19,0.01,0.26h0.02
		c0.09-0.19,0.22-0.34,0.4-0.46c0.17-0.12,0.37-0.17,0.59-0.17c0.1,0,0.18,0.01,0.25,0.03l-0.03,0.59
		c-0.09-0.02-0.19-0.03-0.29-0.03c-0.15,0-0.29,0.03-0.4,0.08c-0.11,0.06-0.21,0.13-0.28,0.23c-0.07,0.1-0.13,0.21-0.17,0.33
		c-0.04,0.12-0.05,0.25-0.05,0.39v1.69h-0.64v-2.53C161.2,79.64,161.2,79.53,161.19,79.4z"/>
	<path class="st0" d="M167.37,80.17c0-0.24-0.07-0.42-0.22-0.53s-0.34-0.17-0.58-0.17c-0.18,0-0.35,0.04-0.51,0.11
		s-0.3,0.16-0.4,0.27l-0.34-0.41c0.16-0.15,0.35-0.27,0.58-0.35c0.23-0.09,0.47-0.13,0.74-0.13c0.23,0,0.43,0.03,0.6,0.1
		s0.31,0.16,0.42,0.27s0.19,0.25,0.24,0.4c0.05,0.15,0.08,0.32,0.08,0.5v1.41c0,0.11,0,0.22,0.01,0.34s0.02,0.22,0.04,0.3h-0.58
		c-0.04-0.15-0.05-0.31-0.05-0.46h-0.02c-0.12,0.17-0.27,0.31-0.45,0.4c-0.18,0.1-0.39,0.14-0.64,0.14c-0.13,0-0.26-0.02-0.4-0.05
		c-0.14-0.03-0.26-0.09-0.38-0.17c-0.11-0.08-0.21-0.18-0.28-0.31c-0.08-0.13-0.11-0.28-0.11-0.47c0-0.25,0.07-0.44,0.2-0.58
		c0.13-0.14,0.3-0.25,0.52-0.33c0.21-0.08,0.45-0.12,0.72-0.15s0.54-0.03,0.81-0.03V80.17z M167.21,80.72
		c-0.16,0-0.32,0.01-0.49,0.02c-0.17,0.01-0.32,0.04-0.46,0.08c-0.14,0.04-0.25,0.1-0.34,0.18c-0.09,0.08-0.14,0.19-0.14,0.33
		c0,0.09,0.02,0.17,0.06,0.24s0.09,0.12,0.15,0.16s0.13,0.07,0.21,0.08c0.08,0.02,0.16,0.02,0.24,0.02c0.3,0,0.53-0.09,0.69-0.27
		c0.16-0.18,0.24-0.4,0.24-0.68v-0.17H167.21z"/>
	<path class="st0" d="M169.68,81.75v0.51h-0.62v-5.14h0.64v2.4h0.02c0.11-0.16,0.26-0.29,0.45-0.4c0.19-0.11,0.43-0.17,0.69-0.17
		c0.24,0,0.46,0.04,0.65,0.13c0.2,0.09,0.37,0.21,0.51,0.36c0.14,0.15,0.25,0.33,0.33,0.54c0.08,0.21,0.12,0.43,0.12,0.66
		c0,0.24-0.04,0.46-0.12,0.67c-0.08,0.21-0.19,0.39-0.33,0.54c-0.14,0.15-0.31,0.28-0.51,0.36c-0.2,0.09-0.42,0.13-0.67,0.13
		c-0.23,0-0.45-0.05-0.66-0.15c-0.21-0.1-0.38-0.25-0.5-0.45H169.68z M171.82,80.64c0-0.15-0.02-0.29-0.07-0.43
		c-0.05-0.14-0.11-0.26-0.2-0.37c-0.09-0.11-0.2-0.2-0.34-0.26c-0.13-0.06-0.29-0.1-0.47-0.1c-0.16,0-0.31,0.03-0.45,0.1
		c-0.13,0.06-0.25,0.15-0.34,0.26c-0.1,0.11-0.17,0.23-0.22,0.37c-0.05,0.14-0.08,0.29-0.08,0.44c0,0.15,0.03,0.3,0.08,0.44
		c0.05,0.14,0.13,0.26,0.22,0.37s0.21,0.19,0.34,0.25s0.28,0.09,0.45,0.09c0.18,0,0.33-0.03,0.47-0.1s0.25-0.15,0.34-0.26
		c0.09-0.11,0.16-0.23,0.2-0.37C171.8,80.94,171.82,80.79,171.82,80.64z"/>
	<path class="st0" d="M175.95,81.75c-0.12,0.19-0.29,0.34-0.5,0.45c-0.21,0.1-0.43,0.15-0.66,0.15c-0.25,0-0.47-0.04-0.67-0.13
		c-0.2-0.09-0.37-0.21-0.51-0.36s-0.25-0.33-0.33-0.54s-0.12-0.43-0.12-0.67c0-0.24,0.04-0.46,0.12-0.66
		c0.08-0.21,0.19-0.39,0.33-0.54c0.14-0.15,0.31-0.27,0.51-0.36c0.2-0.09,0.42-0.13,0.66-0.13c0.26,0,0.49,0.06,0.69,0.17
		c0.19,0.11,0.35,0.25,0.46,0.4h0.01v-2.4h0.64v5.14h-0.62v-0.51H175.95z M173.82,80.64c0,0.15,0.02,0.29,0.07,0.43
		c0.05,0.14,0.11,0.26,0.2,0.37s0.2,0.2,0.33,0.26c0.13,0.07,0.29,0.1,0.46,0.1c0.16,0,0.31-0.03,0.45-0.09s0.25-0.15,0.34-0.25
		c0.1-0.11,0.17-0.23,0.22-0.37c0.05-0.14,0.08-0.29,0.08-0.44c0-0.15-0.03-0.3-0.08-0.44c-0.05-0.14-0.13-0.26-0.22-0.37
		c-0.1-0.11-0.21-0.2-0.34-0.26c-0.13-0.06-0.28-0.1-0.45-0.1c-0.18,0-0.33,0.03-0.46,0.1c-0.13,0.06-0.24,0.15-0.33,0.26
		c-0.09,0.11-0.16,0.23-0.2,0.37C173.85,80.35,173.82,80.5,173.82,80.64z"/>
	<path class="st0" d="M180.96,80.64c0,0.25-0.04,0.48-0.13,0.69c-0.09,0.21-0.21,0.39-0.37,0.54c-0.16,0.15-0.34,0.27-0.55,0.35
		c-0.21,0.08-0.44,0.13-0.69,0.13c-0.25,0-0.47-0.04-0.69-0.13c-0.21-0.08-0.4-0.2-0.55-0.35c-0.15-0.15-0.28-0.33-0.36-0.54
		c-0.09-0.21-0.13-0.44-0.13-0.69c0-0.25,0.04-0.48,0.13-0.68c0.09-0.21,0.21-0.38,0.36-0.53c0.15-0.15,0.34-0.27,0.55-0.35
		c0.21-0.08,0.44-0.13,0.69-0.13c0.24,0,0.47,0.04,0.69,0.13c0.21,0.08,0.4,0.2,0.55,0.35c0.16,0.15,0.28,0.33,0.37,0.53
		C180.91,80.16,180.96,80.39,180.96,80.64z M180.29,80.64c0-0.15-0.02-0.3-0.07-0.44c-0.05-0.14-0.12-0.26-0.21-0.37
		c-0.09-0.11-0.2-0.19-0.34-0.25c-0.13-0.06-0.29-0.1-0.46-0.1c-0.17,0-0.33,0.03-0.46,0.1c-0.13,0.06-0.25,0.15-0.34,0.25
		c-0.09,0.11-0.16,0.23-0.21,0.37c-0.05,0.14-0.07,0.29-0.07,0.44c0,0.15,0.02,0.3,0.07,0.44c0.05,0.14,0.12,0.26,0.21,0.37
		c0.09,0.11,0.2,0.19,0.34,0.26s0.29,0.09,0.46,0.09c0.17,0,0.33-0.03,0.46-0.09s0.25-0.15,0.34-0.26c0.09-0.11,0.16-0.23,0.21-0.37
		C180.27,80.95,180.29,80.8,180.29,80.64z"/>
	<path class="st0" d="M182.86,79.13c0.18-0.12,0.39-0.18,0.64-0.18c0.22,0,0.41,0.05,0.59,0.15c0.17,0.1,0.31,0.27,0.41,0.5
		c0.11-0.21,0.26-0.37,0.46-0.48s0.41-0.17,0.64-0.17c0.21,0,0.39,0.04,0.54,0.11c0.15,0.07,0.27,0.16,0.37,0.28
		s0.17,0.26,0.22,0.42c0.05,0.16,0.07,0.33,0.07,0.51v2h-0.64v-1.79c0-0.13-0.01-0.26-0.03-0.37c-0.02-0.12-0.06-0.22-0.12-0.31
		c-0.05-0.09-0.13-0.16-0.22-0.22c-0.09-0.05-0.21-0.08-0.35-0.08c-0.15,0-0.27,0.03-0.37,0.09c-0.1,0.06-0.19,0.14-0.25,0.24
		c-0.07,0.1-0.11,0.21-0.14,0.33s-0.04,0.25-0.04,0.37v1.74h-0.64v-1.92c0-0.13-0.01-0.24-0.03-0.35c-0.02-0.1-0.06-0.19-0.12-0.27
		c-0.05-0.08-0.12-0.13-0.21-0.18c-0.09-0.04-0.19-0.06-0.32-0.06c-0.24,0-0.43,0.1-0.59,0.29c-0.16,0.19-0.23,0.45-0.23,0.77v1.71
		h-0.64v-2.53c0-0.09,0-0.2-0.01-0.33c0-0.14-0.01-0.26-0.02-0.36h0.6c0.01,0.08,0.02,0.17,0.02,0.28c0,0.1,0.01,0.19,0.01,0.25
		h0.02C182.55,79.39,182.68,79.25,182.86,79.13z"/>
	<path class="st0" d="M190.89,80.62c0,0.04,0,0.07,0,0.11s0,0.07-0.01,0.11h-2.56c0,0.14,0.04,0.26,0.09,0.38s0.13,0.22,0.23,0.31
		s0.21,0.16,0.33,0.21c0.12,0.05,0.26,0.07,0.4,0.07c0.22,0,0.41-0.05,0.56-0.14c0.16-0.09,0.28-0.21,0.37-0.35l0.45,0.36
		c-0.17,0.23-0.38,0.4-0.61,0.5c-0.23,0.11-0.49,0.16-0.78,0.16c-0.25,0-0.47-0.04-0.68-0.12c-0.21-0.08-0.39-0.2-0.54-0.34
		c-0.15-0.15-0.27-0.33-0.35-0.53c-0.09-0.21-0.13-0.44-0.13-0.69c0-0.25,0.04-0.48,0.13-0.69c0.08-0.21,0.2-0.39,0.35-0.54
		c0.15-0.15,0.33-0.27,0.53-0.35c0.2-0.08,0.42-0.13,0.66-0.13s0.45,0.04,0.64,0.12c0.19,0.08,0.36,0.19,0.49,0.33
		c0.13,0.14,0.24,0.32,0.31,0.53C190.85,80.13,190.89,80.36,190.89,80.62z M190.24,80.36c0-0.13-0.03-0.25-0.06-0.36
		c-0.04-0.11-0.1-0.21-0.17-0.29c-0.07-0.08-0.17-0.15-0.28-0.19c-0.11-0.05-0.24-0.07-0.39-0.07c-0.14,0-0.26,0.02-0.38,0.07
		c-0.12,0.05-0.22,0.11-0.31,0.19c-0.09,0.08-0.16,0.18-0.22,0.29s-0.09,0.23-0.1,0.36H190.24z"/>
	<path class="st0" d="M192.35,79.04c0.01,0.08,0.02,0.17,0.02,0.28c0,0.1,0.01,0.19,0.01,0.25h0.02c0.04-0.09,0.1-0.17,0.17-0.24
		c0.07-0.08,0.15-0.14,0.24-0.2c0.09-0.06,0.19-0.1,0.3-0.13c0.11-0.03,0.22-0.05,0.34-0.05c0.21,0,0.39,0.04,0.54,0.11
		c0.15,0.07,0.27,0.16,0.37,0.28c0.1,0.12,0.17,0.26,0.22,0.42c0.05,0.16,0.07,0.33,0.07,0.51v2h-0.64v-1.79
		c0-0.13-0.01-0.26-0.03-0.37c-0.02-0.12-0.06-0.22-0.11-0.31c-0.05-0.09-0.13-0.16-0.22-0.22s-0.22-0.08-0.37-0.08
		c-0.25,0-0.46,0.1-0.62,0.29c-0.16,0.19-0.24,0.45-0.24,0.77v1.71h-0.64v-2.53c0-0.09,0-0.2-0.01-0.33c0-0.14-0.01-0.26-0.02-0.36
		H192.35z"/>
	<path class="st0" d="M199.44,80.17c0-0.24-0.07-0.42-0.22-0.53s-0.34-0.17-0.58-0.17c-0.18,0-0.35,0.04-0.51,0.11
		s-0.3,0.16-0.4,0.27l-0.34-0.41c0.16-0.15,0.35-0.27,0.58-0.35c0.23-0.09,0.47-0.13,0.74-0.13c0.23,0,0.43,0.03,0.6,0.1
		s0.31,0.16,0.42,0.27s0.19,0.25,0.24,0.4c0.05,0.15,0.08,0.32,0.08,0.5v1.41c0,0.11,0,0.22,0.01,0.34s0.02,0.22,0.04,0.3h-0.58
		c-0.04-0.15-0.05-0.31-0.05-0.46h-0.02c-0.12,0.17-0.27,0.31-0.45,0.4c-0.18,0.1-0.39,0.14-0.64,0.14c-0.13,0-0.26-0.02-0.4-0.05
		c-0.14-0.03-0.26-0.09-0.38-0.17c-0.11-0.08-0.21-0.18-0.28-0.31c-0.08-0.13-0.11-0.28-0.11-0.47c0-0.25,0.07-0.44,0.2-0.58
		c0.13-0.14,0.3-0.25,0.52-0.33c0.21-0.08,0.45-0.12,0.72-0.15s0.54-0.03,0.81-0.03V80.17z M199.28,80.72
		c-0.16,0-0.32,0.01-0.49,0.02c-0.17,0.01-0.32,0.04-0.46,0.08c-0.14,0.04-0.25,0.1-0.34,0.18c-0.09,0.08-0.14,0.19-0.14,0.33
		c0,0.09,0.02,0.17,0.06,0.24s0.09,0.12,0.15,0.16s0.13,0.07,0.21,0.08c0.08,0.02,0.16,0.02,0.24,0.02c0.3,0,0.53-0.09,0.69-0.27
		c0.16-0.18,0.24-0.4,0.24-0.68v-0.17H199.28z"/>
	<path class="st0" d="M201.7,79.04c0.01,0.08,0.02,0.17,0.02,0.28c0,0.1,0.01,0.19,0.01,0.25h0.02c0.04-0.09,0.1-0.17,0.17-0.24
		c0.07-0.08,0.15-0.14,0.24-0.2c0.09-0.06,0.19-0.1,0.3-0.13c0.11-0.03,0.22-0.05,0.34-0.05c0.21,0,0.39,0.04,0.54,0.11
		c0.15,0.07,0.27,0.16,0.37,0.28c0.1,0.12,0.17,0.26,0.22,0.42c0.05,0.16,0.07,0.33,0.07,0.51v2h-0.64v-1.79
		c0-0.13-0.01-0.26-0.03-0.37c-0.02-0.12-0.06-0.22-0.11-0.31c-0.05-0.09-0.13-0.16-0.22-0.22s-0.22-0.08-0.37-0.08
		c-0.25,0-0.46,0.1-0.62,0.29c-0.16,0.19-0.24,0.45-0.24,0.77v1.71h-0.64v-2.53c0-0.09,0-0.2-0.01-0.33c0-0.14-0.01-0.26-0.02-0.36
		H201.7z"/>
	<path class="st0" d="M207.65,81.75c-0.12,0.19-0.29,0.34-0.5,0.45c-0.21,0.1-0.43,0.15-0.66,0.15c-0.25,0-0.47-0.04-0.67-0.13
		c-0.2-0.09-0.37-0.21-0.51-0.36s-0.25-0.33-0.33-0.54s-0.12-0.43-0.12-0.67c0-0.24,0.04-0.46,0.12-0.66
		c0.08-0.21,0.19-0.39,0.33-0.54c0.14-0.15,0.31-0.27,0.51-0.36c0.2-0.09,0.42-0.13,0.66-0.13c0.26,0,0.49,0.06,0.69,0.17
		c0.19,0.11,0.35,0.25,0.46,0.4h0.01v-2.4h0.64v5.14h-0.62v-0.51H207.65z M205.53,80.64c0,0.15,0.02,0.29,0.07,0.43
		c0.05,0.14,0.11,0.26,0.2,0.37s0.2,0.2,0.33,0.26c0.13,0.07,0.29,0.1,0.46,0.1c0.16,0,0.31-0.03,0.45-0.09s0.25-0.15,0.34-0.25
		c0.1-0.11,0.17-0.23,0.22-0.37c0.05-0.14,0.08-0.29,0.08-0.44c0-0.15-0.03-0.3-0.08-0.44c-0.05-0.14-0.13-0.26-0.22-0.37
		c-0.1-0.11-0.21-0.2-0.34-0.26c-0.13-0.06-0.28-0.1-0.45-0.1c-0.18,0-0.33,0.03-0.46,0.1c-0.13,0.06-0.24,0.15-0.33,0.26
		c-0.09,0.11-0.16,0.23-0.2,0.37C205.55,80.35,205.53,80.5,205.53,80.64z"/>
	<path class="st0" d="M211.73,81.75v0.51h-0.62v-5.14h0.64v2.4h0.02c0.11-0.16,0.26-0.29,0.45-0.4c0.19-0.11,0.43-0.17,0.69-0.17
		c0.24,0,0.46,0.04,0.65,0.13c0.2,0.09,0.37,0.21,0.51,0.36c0.14,0.15,0.25,0.33,0.33,0.54c0.08,0.21,0.12,0.43,0.12,0.66
		c0,0.24-0.04,0.46-0.12,0.67c-0.08,0.21-0.19,0.39-0.33,0.54c-0.14,0.15-0.31,0.28-0.51,0.36c-0.2,0.09-0.42,0.13-0.67,0.13
		c-0.23,0-0.45-0.05-0.66-0.15c-0.21-0.1-0.38-0.25-0.5-0.45H211.73z M213.87,80.64c0-0.15-0.02-0.29-0.07-0.43
		c-0.05-0.14-0.11-0.26-0.2-0.37c-0.09-0.11-0.2-0.2-0.34-0.26c-0.13-0.06-0.29-0.1-0.47-0.1c-0.16,0-0.31,0.03-0.45,0.1
		c-0.13,0.06-0.25,0.15-0.34,0.26c-0.1,0.11-0.17,0.23-0.22,0.37c-0.05,0.14-0.08,0.29-0.08,0.44c0,0.15,0.03,0.3,0.08,0.44
		c0.05,0.14,0.13,0.26,0.22,0.37s0.21,0.19,0.34,0.25s0.28,0.09,0.45,0.09c0.18,0,0.33-0.03,0.47-0.1s0.25-0.15,0.34-0.26
		c0.09-0.11,0.16-0.23,0.2-0.37C213.85,80.94,213.87,80.79,213.87,80.64z"/>
	<path class="st0" d="M217.69,82.26c-0.01-0.08-0.02-0.17-0.02-0.28c0-0.1-0.01-0.19-0.01-0.25h-0.01
		c-0.08,0.17-0.22,0.32-0.41,0.44c-0.19,0.12-0.41,0.18-0.64,0.18c-0.21,0-0.39-0.03-0.54-0.1s-0.28-0.16-0.37-0.28
		c-0.1-0.12-0.17-0.26-0.22-0.42c-0.05-0.16-0.07-0.33-0.07-0.51v-2h0.64v1.78c0,0.13,0.01,0.26,0.03,0.38
		c0.02,0.12,0.06,0.23,0.11,0.32c0.05,0.09,0.13,0.16,0.22,0.22c0.1,0.05,0.22,0.08,0.37,0.08c0.26,0,0.47-0.1,0.63-0.29
		c0.16-0.19,0.24-0.45,0.24-0.77v-1.71h0.64v2.53c0,0.09,0,0.2,0.01,0.33c0,0.14,0.01,0.26,0.02,0.36H217.69z"/>
	<path class="st0" d="M220.96,79.56h-0.86v1.67c0,0.19,0.04,0.33,0.11,0.42c0.07,0.08,0.19,0.12,0.35,0.12
		c0.06,0,0.12-0.01,0.19-0.02c0.07-0.01,0.13-0.03,0.18-0.06l0.02,0.52c-0.08,0.03-0.16,0.05-0.25,0.06
		c-0.09,0.02-0.19,0.02-0.29,0.02c-0.3,0-0.54-0.08-0.7-0.25c-0.16-0.17-0.24-0.42-0.24-0.75v-1.75h-0.62v-0.52h0.62v-0.93h0.63
		v0.93h0.86V79.56z"/>
	<path class="st0" d="M223.09,79.56h-0.86v1.67c0,0.19,0.04,0.33,0.11,0.42c0.07,0.08,0.19,0.12,0.35,0.12
		c0.06,0,0.12-0.01,0.19-0.02c0.07-0.01,0.13-0.03,0.18-0.06l0.02,0.52c-0.08,0.03-0.16,0.05-0.25,0.06
		c-0.09,0.02-0.19,0.02-0.29,0.02c-0.3,0-0.54-0.08-0.7-0.25c-0.16-0.17-0.24-0.42-0.24-0.75v-1.75h-0.62v-0.52h0.62v-0.93h0.63
		v0.93h0.86V79.56z"/>
	<path class="st0" d="M227.02,80.64c0,0.25-0.04,0.48-0.13,0.69c-0.09,0.21-0.21,0.39-0.37,0.54c-0.16,0.15-0.34,0.27-0.55,0.35
		c-0.21,0.08-0.44,0.13-0.69,0.13c-0.25,0-0.47-0.04-0.69-0.13c-0.21-0.08-0.4-0.2-0.55-0.35c-0.15-0.15-0.28-0.33-0.36-0.54
		c-0.09-0.21-0.13-0.44-0.13-0.69c0-0.25,0.04-0.48,0.13-0.68c0.09-0.21,0.21-0.38,0.36-0.53c0.15-0.15,0.34-0.27,0.55-0.35
		c0.21-0.08,0.44-0.13,0.69-0.13c0.24,0,0.47,0.04,0.69,0.13c0.21,0.08,0.4,0.2,0.55,0.35c0.16,0.15,0.28,0.33,0.37,0.53
		C226.97,80.16,227.02,80.39,227.02,80.64z M226.35,80.64c0-0.15-0.02-0.3-0.07-0.44c-0.05-0.14-0.12-0.26-0.21-0.37
		c-0.09-0.11-0.2-0.19-0.34-0.25c-0.13-0.06-0.29-0.1-0.46-0.1c-0.17,0-0.33,0.03-0.46,0.1c-0.13,0.06-0.25,0.15-0.34,0.25
		c-0.09,0.11-0.16,0.23-0.21,0.37c-0.05,0.14-0.07,0.29-0.07,0.44c0,0.15,0.02,0.3,0.07,0.44c0.05,0.14,0.12,0.26,0.21,0.37
		c0.09,0.11,0.2,0.19,0.34,0.26s0.29,0.09,0.46,0.09c0.17,0,0.33-0.03,0.46-0.09s0.25-0.15,0.34-0.26c0.09-0.11,0.16-0.23,0.21-0.37
		C226.33,80.95,226.35,80.8,226.35,80.64z"/>
	<path class="st0" d="M230.16,79.85c-0.07-0.1-0.17-0.19-0.31-0.26c-0.14-0.07-0.28-0.11-0.44-0.11c-0.17,0-0.32,0.03-0.45,0.1
		c-0.13,0.06-0.24,0.15-0.33,0.25c-0.09,0.11-0.16,0.23-0.21,0.37c-0.05,0.14-0.07,0.29-0.07,0.44c0,0.15,0.02,0.3,0.07,0.44
		c0.05,0.14,0.12,0.26,0.21,0.37c0.09,0.11,0.2,0.19,0.33,0.25s0.28,0.09,0.45,0.09c0.16,0,0.31-0.03,0.45-0.09s0.24-0.15,0.33-0.26
		l0.43,0.39c-0.14,0.16-0.31,0.28-0.51,0.37c-0.2,0.09-0.44,0.13-0.69,0.13c-0.25,0-0.48-0.04-0.69-0.12
		c-0.21-0.08-0.39-0.2-0.55-0.34c-0.15-0.15-0.28-0.33-0.36-0.53c-0.09-0.21-0.13-0.44-0.13-0.7c0-0.25,0.04-0.48,0.13-0.69
		s0.21-0.39,0.36-0.54c0.15-0.15,0.34-0.27,0.55-0.35c0.21-0.08,0.44-0.12,0.68-0.12c0.23,0,0.45,0.05,0.68,0.14
		c0.22,0.09,0.4,0.22,0.53,0.39L230.16,79.85z"/>
	<path class="st0" d="M231.92,80.44h0.02l1.35-1.4h0.86l-1.51,1.46l1.64,1.76h-0.88l-1.46-1.67h-0.02v1.67h-0.64v-5.14h0.64V80.44z"
		/>
	<path class="st0" d="M236.55,79.85c-0.07-0.12-0.17-0.21-0.31-0.29c-0.13-0.07-0.28-0.11-0.44-0.11c-0.07,0-0.15,0.01-0.22,0.02
		c-0.07,0.02-0.14,0.04-0.19,0.07c-0.06,0.03-0.1,0.08-0.14,0.13c-0.03,0.05-0.05,0.12-0.05,0.19c0,0.14,0.06,0.24,0.18,0.3
		c0.12,0.07,0.31,0.13,0.55,0.18c0.15,0.04,0.3,0.08,0.43,0.13s0.25,0.11,0.34,0.19c0.1,0.07,0.17,0.16,0.23,0.27
		c0.05,0.1,0.08,0.23,0.08,0.37c0,0.19-0.04,0.35-0.11,0.48c-0.07,0.13-0.17,0.24-0.29,0.32c-0.12,0.08-0.26,0.14-0.41,0.18
		c-0.15,0.04-0.31,0.05-0.48,0.05c-0.25,0-0.48-0.05-0.72-0.14c-0.23-0.09-0.43-0.24-0.58-0.43l0.46-0.39
		c0.09,0.13,0.21,0.23,0.36,0.32s0.32,0.13,0.5,0.13c0.08,0,0.16-0.01,0.23-0.02s0.14-0.04,0.2-0.08s0.11-0.08,0.15-0.14
		c0.04-0.06,0.05-0.13,0.05-0.22c0-0.15-0.07-0.26-0.21-0.33c-0.14-0.07-0.35-0.14-0.63-0.2c-0.11-0.03-0.22-0.06-0.33-0.1
		c-0.11-0.04-0.21-0.09-0.3-0.16c-0.09-0.07-0.16-0.15-0.22-0.25c-0.06-0.1-0.09-0.23-0.09-0.38c0-0.17,0.04-0.32,0.11-0.45
		s0.16-0.23,0.28-0.31c0.11-0.08,0.24-0.14,0.39-0.18c0.15-0.04,0.29-0.06,0.45-0.06c0.23,0,0.45,0.05,0.67,0.14
		c0.22,0.09,0.38,0.22,0.5,0.39L236.55,79.85z"/>
	<path class="st0" d="M238.61,81.85c0,0.12-0.04,0.22-0.13,0.31c-0.09,0.09-0.2,0.14-0.33,0.14c-0.13,0-0.23-0.04-0.32-0.13
		s-0.13-0.19-0.13-0.31c0-0.12,0.04-0.23,0.13-0.32c0.09-0.09,0.19-0.13,0.33-0.13c0.13,0,0.24,0.04,0.33,0.13
		C238.57,81.62,238.61,81.73,238.61,81.85z"/>
	<path class="st0" d="M241.8,82.26h-0.67v-4.82h1.54c0.23,0,0.45,0.02,0.66,0.07s0.39,0.12,0.55,0.23c0.16,0.1,0.28,0.24,0.37,0.41
		c0.09,0.17,0.14,0.38,0.14,0.62c0,0.35-0.11,0.64-0.33,0.86c-0.22,0.22-0.5,0.36-0.84,0.41l1.35,2.21h-0.82l-1.22-2.14h-0.72V82.26
		z M241.8,79.55h0.78c0.16,0,0.31-0.01,0.44-0.04c0.14-0.03,0.26-0.07,0.36-0.13c0.1-0.06,0.18-0.14,0.24-0.24
		c0.06-0.1,0.09-0.22,0.09-0.36s-0.03-0.27-0.09-0.36c-0.06-0.1-0.14-0.18-0.23-0.23c-0.1-0.06-0.21-0.1-0.34-0.13
		c-0.13-0.02-0.27-0.04-0.41-0.04h-0.82V79.55z"/>
	<path class="st0" d="M248.2,80.62c0,0.04,0,0.07,0,0.11s0,0.07-0.01,0.11h-2.56c0,0.14,0.04,0.26,0.09,0.38s0.13,0.22,0.23,0.31
		s0.21,0.16,0.33,0.21c0.12,0.05,0.26,0.07,0.4,0.07c0.22,0,0.41-0.05,0.56-0.14c0.16-0.09,0.28-0.21,0.37-0.35l0.45,0.36
		c-0.17,0.23-0.38,0.4-0.61,0.5c-0.23,0.11-0.49,0.16-0.78,0.16c-0.25,0-0.47-0.04-0.68-0.12c-0.21-0.08-0.39-0.2-0.54-0.34
		c-0.15-0.15-0.27-0.33-0.35-0.53c-0.09-0.21-0.13-0.44-0.13-0.69c0-0.25,0.04-0.48,0.13-0.69c0.08-0.21,0.2-0.39,0.35-0.54
		c0.15-0.15,0.33-0.27,0.53-0.35c0.2-0.08,0.42-0.13,0.66-0.13s0.45,0.04,0.64,0.12c0.19,0.08,0.36,0.19,0.49,0.33
		c0.13,0.14,0.24,0.32,0.31,0.53C248.16,80.13,248.2,80.36,248.2,80.62z M247.55,80.36c0-0.13-0.03-0.25-0.06-0.36
		c-0.04-0.11-0.1-0.21-0.17-0.29c-0.07-0.08-0.17-0.15-0.28-0.19c-0.11-0.05-0.24-0.07-0.39-0.07c-0.14,0-0.26,0.02-0.38,0.07
		c-0.12,0.05-0.22,0.11-0.31,0.19c-0.09,0.08-0.16,0.18-0.22,0.29s-0.09,0.23-0.1,0.36H247.55z"/>
	<path class="st0" d="M250.82,79.85c-0.07-0.12-0.17-0.21-0.31-0.29c-0.13-0.07-0.28-0.11-0.44-0.11c-0.07,0-0.15,0.01-0.22,0.02
		c-0.07,0.02-0.14,0.04-0.19,0.07c-0.06,0.03-0.1,0.08-0.14,0.13c-0.03,0.05-0.05,0.12-0.05,0.19c0,0.14,0.06,0.24,0.18,0.3
		c0.12,0.07,0.31,0.13,0.55,0.18c0.15,0.04,0.3,0.08,0.43,0.13s0.25,0.11,0.34,0.19c0.1,0.07,0.17,0.16,0.23,0.27
		c0.05,0.1,0.08,0.23,0.08,0.37c0,0.19-0.04,0.35-0.11,0.48c-0.07,0.13-0.17,0.24-0.29,0.32c-0.12,0.08-0.26,0.14-0.41,0.18
		c-0.15,0.04-0.31,0.05-0.48,0.05c-0.25,0-0.48-0.05-0.72-0.14c-0.23-0.09-0.43-0.24-0.58-0.43l0.46-0.39
		c0.09,0.13,0.21,0.23,0.36,0.32s0.32,0.13,0.5,0.13c0.08,0,0.16-0.01,0.23-0.02s0.14-0.04,0.2-0.08s0.11-0.08,0.15-0.14
		c0.04-0.06,0.05-0.13,0.05-0.22c0-0.15-0.07-0.26-0.21-0.33c-0.14-0.07-0.35-0.14-0.63-0.2c-0.11-0.03-0.22-0.06-0.33-0.1
		c-0.11-0.04-0.21-0.09-0.3-0.16c-0.09-0.07-0.16-0.15-0.22-0.25c-0.06-0.1-0.09-0.23-0.09-0.38c0-0.17,0.04-0.32,0.11-0.45
		s0.16-0.23,0.28-0.31c0.11-0.08,0.24-0.14,0.39-0.18c0.15-0.04,0.29-0.06,0.45-0.06c0.23,0,0.45,0.05,0.67,0.14
		c0.22,0.09,0.38,0.22,0.5,0.39L250.82,79.85z"/>
	<path class="st0" d="M254.37,82.26c-0.01-0.08-0.02-0.17-0.02-0.28c0-0.1-0.01-0.19-0.01-0.25h-0.01
		c-0.08,0.17-0.22,0.32-0.41,0.44c-0.19,0.12-0.41,0.18-0.64,0.18c-0.21,0-0.39-0.03-0.54-0.1s-0.28-0.16-0.37-0.28
		c-0.1-0.12-0.17-0.26-0.22-0.42c-0.05-0.16-0.07-0.33-0.07-0.51v-2h0.64v1.78c0,0.13,0.01,0.26,0.03,0.38
		c0.02,0.12,0.06,0.23,0.11,0.32c0.05,0.09,0.13,0.16,0.22,0.22c0.1,0.05,0.22,0.08,0.37,0.08c0.26,0,0.47-0.1,0.63-0.29
		c0.16-0.19,0.24-0.45,0.24-0.77v-1.71h0.64v2.53c0,0.09,0,0.2,0.01,0.33c0,0.14,0.01,0.26,0.02,0.36H254.37z"/>
	<path class="st0" d="M256.71,82.26h-0.64v-5.14h0.64V82.26z"/>
	<path class="st0" d="M259.41,79.56h-0.86v1.67c0,0.19,0.04,0.33,0.11,0.42c0.07,0.08,0.19,0.12,0.35,0.12
		c0.06,0,0.12-0.01,0.19-0.02c0.07-0.01,0.13-0.03,0.18-0.06l0.02,0.52c-0.08,0.03-0.16,0.05-0.25,0.06
		c-0.09,0.02-0.19,0.02-0.29,0.02c-0.3,0-0.54-0.08-0.7-0.25c-0.16-0.17-0.24-0.42-0.24-0.75v-1.75h-0.62v-0.52h0.62v-0.93h0.63
		v0.93h0.86V79.56z"/>
	<path class="st0" d="M261.81,79.85c-0.07-0.12-0.17-0.21-0.31-0.29c-0.13-0.07-0.28-0.11-0.44-0.11c-0.07,0-0.15,0.01-0.22,0.02
		c-0.07,0.02-0.14,0.04-0.19,0.07c-0.06,0.03-0.1,0.08-0.14,0.13c-0.03,0.05-0.05,0.12-0.05,0.19c0,0.14,0.06,0.24,0.18,0.3
		c0.12,0.07,0.31,0.13,0.55,0.18c0.15,0.04,0.3,0.08,0.43,0.13s0.25,0.11,0.34,0.19c0.1,0.07,0.17,0.16,0.23,0.27
		c0.05,0.1,0.08,0.23,0.08,0.37c0,0.19-0.04,0.35-0.11,0.48c-0.07,0.13-0.17,0.24-0.29,0.32c-0.12,0.08-0.26,0.14-0.41,0.18
		c-0.15,0.04-0.31,0.05-0.48,0.05c-0.25,0-0.48-0.05-0.72-0.14c-0.23-0.09-0.43-0.24-0.58-0.43l0.46-0.39
		c0.09,0.13,0.21,0.23,0.36,0.32s0.32,0.13,0.5,0.13c0.08,0,0.16-0.01,0.23-0.02s0.14-0.04,0.2-0.08s0.11-0.08,0.15-0.14
		c0.04-0.06,0.05-0.13,0.05-0.22c0-0.15-0.07-0.26-0.21-0.33c-0.14-0.07-0.35-0.14-0.63-0.2c-0.11-0.03-0.22-0.06-0.33-0.1
		c-0.11-0.04-0.21-0.09-0.3-0.16c-0.09-0.07-0.16-0.15-0.22-0.25c-0.06-0.1-0.09-0.23-0.09-0.38c0-0.17,0.04-0.32,0.11-0.45
		s0.16-0.23,0.28-0.31c0.11-0.08,0.24-0.14,0.39-0.18c0.15-0.04,0.29-0.06,0.45-0.06c0.23,0,0.45,0.05,0.67,0.14
		c0.22,0.09,0.38,0.22,0.5,0.39L261.81,79.85z"/>
	<path class="st0" d="M265.8,79.13c0.18-0.12,0.39-0.18,0.64-0.18c0.22,0,0.41,0.05,0.59,0.15c0.17,0.1,0.31,0.27,0.41,0.5
		c0.11-0.21,0.26-0.37,0.46-0.48s0.41-0.17,0.64-0.17c0.21,0,0.39,0.04,0.54,0.11c0.15,0.07,0.27,0.16,0.37,0.28
		s0.17,0.26,0.22,0.42c0.05,0.16,0.07,0.33,0.07,0.51v2h-0.64v-1.79c0-0.13-0.01-0.26-0.03-0.37c-0.02-0.12-0.06-0.22-0.12-0.31
		c-0.05-0.09-0.13-0.16-0.22-0.22c-0.09-0.05-0.21-0.08-0.35-0.08c-0.15,0-0.27,0.03-0.37,0.09c-0.1,0.06-0.19,0.14-0.25,0.24
		c-0.07,0.1-0.11,0.21-0.14,0.33s-0.04,0.25-0.04,0.37v1.74h-0.64v-1.92c0-0.13-0.01-0.24-0.03-0.35c-0.02-0.1-0.06-0.19-0.12-0.27
		c-0.05-0.08-0.12-0.13-0.21-0.18c-0.09-0.04-0.19-0.06-0.32-0.06c-0.24,0-0.43,0.1-0.59,0.29c-0.16,0.19-0.23,0.45-0.23,0.77v1.71
		h-0.64v-2.53c0-0.09,0-0.2-0.01-0.33c0-0.14-0.01-0.26-0.02-0.36h0.6c0.01,0.08,0.02,0.17,0.02,0.28c0,0.1,0.01,0.19,0.01,0.25
		h0.02C265.5,79.39,265.63,79.25,265.8,79.13z"/>
	<path class="st0" d="M272.83,80.17c0-0.24-0.07-0.42-0.22-0.53s-0.34-0.17-0.58-0.17c-0.18,0-0.35,0.04-0.51,0.11
		s-0.3,0.16-0.4,0.27l-0.34-0.41c0.16-0.15,0.35-0.27,0.58-0.35c0.23-0.09,0.47-0.13,0.74-0.13c0.23,0,0.43,0.03,0.6,0.1
		s0.31,0.16,0.42,0.27s0.19,0.25,0.24,0.4c0.05,0.15,0.08,0.32,0.08,0.5v1.41c0,0.11,0,0.22,0.01,0.34s0.02,0.22,0.04,0.3h-0.58
		c-0.04-0.15-0.05-0.31-0.05-0.46h-0.02c-0.12,0.17-0.27,0.31-0.45,0.4c-0.18,0.1-0.39,0.14-0.64,0.14c-0.13,0-0.26-0.02-0.4-0.05
		c-0.14-0.03-0.26-0.09-0.38-0.17c-0.11-0.08-0.21-0.18-0.28-0.31c-0.08-0.13-0.11-0.28-0.11-0.47c0-0.25,0.07-0.44,0.2-0.58
		c0.13-0.14,0.3-0.25,0.52-0.33c0.21-0.08,0.45-0.12,0.72-0.15s0.54-0.03,0.81-0.03V80.17z M272.67,80.72
		c-0.16,0-0.32,0.01-0.49,0.02c-0.17,0.01-0.32,0.04-0.46,0.08c-0.14,0.04-0.25,0.1-0.34,0.18c-0.09,0.08-0.14,0.19-0.14,0.33
		c0,0.09,0.02,0.17,0.06,0.24s0.09,0.12,0.15,0.16s0.13,0.07,0.21,0.08c0.08,0.02,0.16,0.02,0.24,0.02c0.3,0,0.53-0.09,0.69-0.27
		c0.16-0.18,0.24-0.4,0.24-0.68v-0.17H272.67z"/>
	<path class="st0" d="M275.73,81.57h0.01l0.89-2.53h0.68l-1.56,3.99c-0.05,0.14-0.11,0.26-0.18,0.36s-0.14,0.2-0.22,0.27
		c-0.09,0.08-0.19,0.13-0.3,0.17s-0.25,0.06-0.41,0.06c-0.07,0-0.14,0-0.21-0.01s-0.14-0.02-0.21-0.04l0.06-0.56
		c0.11,0.04,0.22,0.05,0.32,0.05c0.17,0,0.29-0.05,0.37-0.14c0.08-0.09,0.16-0.23,0.22-0.4l0.2-0.54l-1.38-3.22h0.71L275.73,81.57z"
		/>
	<path class="st0" d="M281.15,82.26h-0.69l-1.31-3.22h0.71l0.95,2.54h0.01l0.95-2.54h0.68L281.15,82.26z"/>
	<path class="st0" d="M285.07,80.17c0-0.24-0.07-0.42-0.22-0.53s-0.34-0.17-0.58-0.17c-0.18,0-0.35,0.04-0.51,0.11
		s-0.3,0.16-0.4,0.27l-0.34-0.41c0.16-0.15,0.35-0.27,0.58-0.35c0.23-0.09,0.47-0.13,0.74-0.13c0.23,0,0.43,0.03,0.6,0.1
		s0.31,0.16,0.42,0.27s0.19,0.25,0.24,0.4c0.05,0.15,0.08,0.32,0.08,0.5v1.41c0,0.11,0,0.22,0.01,0.34s0.02,0.22,0.04,0.3h-0.58
		c-0.04-0.15-0.05-0.31-0.05-0.46h-0.02c-0.12,0.17-0.27,0.31-0.45,0.4c-0.18,0.1-0.39,0.14-0.64,0.14c-0.13,0-0.26-0.02-0.4-0.05
		c-0.14-0.03-0.26-0.09-0.38-0.17c-0.11-0.08-0.21-0.18-0.28-0.31c-0.08-0.13-0.11-0.28-0.11-0.47c0-0.25,0.07-0.44,0.2-0.58
		c0.13-0.14,0.3-0.25,0.52-0.33c0.21-0.08,0.45-0.12,0.72-0.15s0.54-0.03,0.81-0.03V80.17z M284.91,80.72
		c-0.16,0-0.32,0.01-0.49,0.02c-0.17,0.01-0.32,0.04-0.46,0.08c-0.14,0.04-0.25,0.1-0.34,0.18c-0.09,0.08-0.14,0.19-0.14,0.33
		c0,0.09,0.02,0.17,0.06,0.24s0.09,0.12,0.15,0.16s0.13,0.07,0.21,0.08c0.08,0.02,0.16,0.02,0.24,0.02c0.3,0,0.53-0.09,0.69-0.27
		c0.16-0.18,0.24-0.4,0.24-0.68v-0.17H284.91z"/>
	<path class="st0" d="M286.74,79.4c0-0.14-0.01-0.26-0.02-0.36h0.6c0.01,0.08,0.02,0.18,0.02,0.28s0.01,0.19,0.01,0.26h0.02
		c0.09-0.19,0.22-0.34,0.4-0.46c0.17-0.12,0.37-0.17,0.59-0.17c0.1,0,0.18,0.01,0.25,0.03l-0.03,0.59
		c-0.09-0.02-0.19-0.03-0.29-0.03c-0.15,0-0.29,0.03-0.4,0.08c-0.11,0.06-0.21,0.13-0.28,0.23c-0.07,0.1-0.13,0.21-0.17,0.33
		c-0.04,0.12-0.05,0.25-0.05,0.39v1.69h-0.64v-2.53C286.75,79.64,286.75,79.53,286.74,79.4z"/>
	<path class="st0" d="M290.44,81.57h0.01l0.89-2.53h0.68l-1.56,3.99c-0.05,0.14-0.11,0.26-0.18,0.36s-0.14,0.2-0.22,0.27
		c-0.09,0.08-0.19,0.13-0.3,0.17s-0.25,0.06-0.41,0.06c-0.07,0-0.14,0-0.21-0.01s-0.14-0.02-0.21-0.04l0.06-0.56
		c0.11,0.04,0.22,0.05,0.32,0.05c0.17,0,0.29-0.05,0.37-0.14c0.08-0.09,0.16-0.23,0.22-0.4l0.2-0.54l-1.38-3.22h0.71L290.44,81.57z"
		/>
	<path class="st0" d="M293.19,81.85c0,0.12-0.04,0.22-0.13,0.31c-0.09,0.09-0.2,0.14-0.33,0.14c-0.13,0-0.23-0.04-0.32-0.13
		s-0.13-0.19-0.13-0.31c0-0.12,0.04-0.23,0.13-0.32c0.09-0.09,0.19-0.13,0.33-0.13c0.13,0,0.24,0.04,0.33,0.13
		C293.14,81.62,293.19,81.73,293.19,81.85z"/>
</g>
</svg>
