<?xml version="1.0" encoding="utf-8"?>
<!-- Generator: Adobe Illustrator 25.2.1, SVG Export Plug-In . SVG Version: 6.00 Build 0)  -->
<svg version="1.1" id="Layer_1" xmlns="http://www.w3.org/2000/svg" xmlns:xlink="http://www.w3.org/1999/xlink" x="0px" y="0px"
	 viewBox="0 0 728 90" style="enable-background:new 0 0 728 90;" xml:space="preserve">
<style type="text/css">
	.st0{fill:#FFFFFF;}
</style>
<g>
	<g>
		<g>
			<g>
				<path class="st0" d="M496.7,40.54c-1.85,0-2.74-1.34-2.74-2.63c0-1.49,1.08-2.68,2.77-2.68c0.58,0,1.17,0.18,1.64,0.57
					l-0.52,0.73c-0.32-0.25-0.67-0.34-1.09-0.34c-0.9,0-1.57,0.62-1.57,1.69c0,0.98,0.62,1.76,1.6,1.76c0.42,0,0.78-0.12,1.11-0.41
					l0.48,0.73C497.92,40.36,497.29,40.54,496.7,40.54"/>
				<path class="st0" d="M501.23,40.54c-1.55,0-2.69-1.16-2.69-2.68c0-1.56,1.24-2.63,2.69-2.63c1.44,0,2.7,1.06,2.7,2.62
					C503.92,39.38,502.78,40.54,501.23,40.54 M502.68,37.86c0-0.94-0.46-1.75-1.45-1.75c-0.97,0-1.45,0.81-1.45,1.74
					c0,0.96,0.45,1.81,1.45,1.81c1,0,1.45-0.84,1.45-1.81V37.86z"/>
				<path class="st0" d="M507.06,40.54c-1.55,0-2.69-1.16-2.69-2.68c0-1.56,1.24-2.63,2.69-2.63c1.44,0,2.7,1.06,2.7,2.62
					C509.76,39.38,508.62,40.54,507.06,40.54 M508.52,37.86c0-0.94-0.46-1.75-1.45-1.75c-0.97,0-1.45,0.81-1.45,1.74
					c0,0.96,0.45,1.81,1.45,1.81c1,0,1.45-0.84,1.45-1.81V37.86z"/>
				<polygon class="st0" points="510.37,40.42 510.37,32.97 511.53,33.61 511.53,40.42 				"/>
				<path class="st0" d="M514.2,40.57c-1.31,0-1.93-0.62-1.93-0.62l0.52-0.68c0,0,0.6,0.4,1.38,0.4c0.38,0,0.69-0.26,0.69-0.52
					c0-0.26-0.12-0.48-0.46-0.65c-0.35-0.18-0.73-0.36-1.04-0.51c-0.3-0.15-0.97-0.59-0.97-1.47c0-0.88,0.9-1.37,1.82-1.37
					c0.88,0,1.55,0.57,1.55,0.57l-0.45,0.69c0,0-0.5-0.35-1.06-0.35s-0.67,0.35-0.67,0.5c0,0.15,0.05,0.37,0.41,0.56
					c0.36,0.19,0.72,0.38,1.24,0.68c0.52,0.29,0.82,0.79,0.82,1.35C516.06,39.7,515.51,40.57,514.2,40.57"/>
				<path class="st0" d="M519.19,40.54c-1.85,0-2.74-1.34-2.74-2.63c0-1.49,1.08-2.68,2.77-2.68c0.58,0,1.17,0.18,1.64,0.57
					l-0.52,0.73c-0.32-0.25-0.67-0.34-1.09-0.34c-0.9,0-1.57,0.62-1.57,1.69c0,0.98,0.62,1.76,1.6,1.76c0.42,0,0.78-0.12,1.11-0.41
					l0.48,0.73C520.42,40.36,519.79,40.54,519.19,40.54"/>
				<path class="st0" d="M524.91,39.83c0,0-0.59,0.72-1.69,0.72c-1.31,0-1.95-0.95-1.95-1.9v-3.3h1.16v3.24
					c0,0.56,0.44,1.03,1.12,1.03c0.6,0,1.18-0.71,1.18-0.71v-3.57h1.16v5.06L524.91,39.83z"/>
				<polygon class="st0" points="526.93,40.42 526.93,32.97 528.09,33.61 528.09,40.42 				"/>
				<path class="st0" d="M531.93,40.54c-1.02,0-1.61-0.57-1.61-0.57v2.53h-1.17v-7.26l1.17,0.61c0,0,0.63-0.63,1.67-0.63
					c1.1,0,2.47,0.84,2.47,2.72C534.46,39.83,533.11,40.54,531.93,40.54 M531.86,36.11c-0.99,0-1.57,0.93-1.57,0.93v1.91
					c0,0,0.66,0.74,1.61,0.74c1.11,0,1.35-1.32,1.35-1.78C533.25,37.46,533.14,36.11,531.86,36.11"/>
				<path class="st0" d="M537.52,40.55h-0.73c-0.92,0-1.23-0.88-1.23-1.47V36.1h-0.92v-0.76h0.92v-2.24h1.15v2.24h1.18v0.76h-1.17
					v2.7c0,0.3-0.05,0.78,0.46,0.78h0.84L537.52,40.55z"/>
				<path class="st0" d="M539.38,34.47c-0.42,0-0.76-0.34-0.76-0.76c0-0.42,0.35-0.76,0.76-0.76s0.76,0.34,0.76,0.76
					C540.14,34.13,539.79,34.47,539.38,34.47 M538.8,35.34h1.14v5.07h-1.14V35.34z"/>
				<path class="st0" d="M544.54,40.42v-3.24c0-0.56-0.44-1.03-1.12-1.03c-0.6,0-1.27,0.71-1.27,0.71v3.57H541v-5.06l0.98,0.58
					c0,0,0.67-0.72,1.78-0.72c1.31,0,1.95,0.95,1.95,1.9v3.3H544.54z"/>
				<path class="st0" d="M549.25,42.78c-0.18,0-1.54-0.02-1.54-0.02l0.02-0.93h1.14c1.11,0,1.74-0.59,1.74-1.4v-0.46
					c0,0-0.61,0.57-1.63,0.57c-1.18,0-2.53-0.72-2.53-2.6c0-1.88,1.37-2.72,2.47-2.72c1.05,0,1.67,0.63,1.67,0.63l1.17-0.58v5.04
					C551.76,41.68,550.85,42.78,549.25,42.78 M550.62,37.04c0,0-0.57-0.93-1.57-0.93c-1.29,0-1.39,1.34-1.39,1.8
					c0,0.46,0.24,1.78,1.35,1.78c0.95,0,1.61-0.74,1.61-0.74V37.04z"/>
				<polygon class="st0" points="482.2,38.11 480.07,40.24 482.68,41.21 485.8,38.11 				"/>
				<polygon class="st0" points="486.11,33.79 483.99,31.68 482.99,34.27 486.11,37.37 				"/>
				<polygon class="st0" points="489.98,34.58 492.83,35.32 490.45,37.68 486.86,37.68 				"/>
				<polygon class="st0" points="489.79,41.64 488.97,44.41 484.53,39.99 486.33,38.2 				"/>
				<g>
					<path class="st0" d="M553.49,35.69c0,0.3-0.24,0.54-0.55,0.54c-0.31,0-0.55-0.24-0.55-0.54c0-0.3,0.25-0.54,0.56-0.54
						C553.25,35.15,553.49,35.39,553.49,35.69z M552.52,35.69c0,0.24,0.18,0.43,0.42,0.43c0.23,0,0.41-0.19,0.41-0.42
						c0-0.24-0.18-0.43-0.42-0.43C552.7,35.26,552.52,35.45,552.52,35.69z M552.86,35.97h-0.12v-0.54c0.05-0.01,0.12-0.02,0.21-0.02
						c0.1,0,0.15,0.02,0.18,0.04c0.03,0.02,0.06,0.06,0.06,0.11c0,0.07-0.05,0.11-0.11,0.13v0.01c0.05,0.02,0.08,0.06,0.1,0.13
						c0.02,0.08,0.03,0.11,0.04,0.13h-0.13c-0.02-0.02-0.03-0.07-0.04-0.13c-0.01-0.06-0.04-0.08-0.11-0.08h-0.06V35.97z
						 M552.86,35.67h0.06c0.07,0,0.13-0.02,0.13-0.08c0-0.05-0.04-0.08-0.11-0.08c-0.03,0-0.06,0-0.07,0.01V35.67z"/>
				</g>
			</g>
			<g>
				<polygon class="st0" points="483.56,44.27 483.56,40.95 484.22,40.3 486.11,42.18 486.11,42.81 				"/>
				<polygon class="st0" points="483.26,35.15 480.51,35.15 481.39,37.68 485.8,37.68 				"/>
				<polygon class="st0" points="492.55,40.64 489.4,40.64 486.86,38.11 491.27,38.11 				"/>
				<polygon class="st0" points="486.55,32.98 489.09,31.48 489.09,34.84 486.55,37.37 				"/>
				<g>
					<path class="st0" d="M491.02,41.82c0,0.21-0.17,0.37-0.38,0.37c-0.21,0-0.38-0.17-0.38-0.37c0-0.21,0.17-0.37,0.39-0.37
						C490.86,41.45,491.02,41.61,491.02,41.82z M490.35,41.82c0,0.16,0.12,0.3,0.29,0.3c0.16,0,0.28-0.13,0.28-0.29
						c0-0.16-0.12-0.3-0.29-0.3C490.48,41.52,490.35,41.66,490.35,41.82z M490.58,42.01h-0.09v-0.37c0.03,0,0.08-0.01,0.14-0.01
						c0.07,0,0.1,0.01,0.13,0.03c0.02,0.02,0.04,0.04,0.04,0.08c0,0.05-0.03,0.07-0.08,0.09v0c0.04,0.01,0.05,0.04,0.07,0.09
						c0.01,0.06,0.02,0.08,0.03,0.09h-0.09c-0.01-0.01-0.02-0.05-0.03-0.09c-0.01-0.04-0.03-0.06-0.08-0.06h-0.04V42.01z
						 M490.59,41.8h0.04c0.05,0,0.09-0.02,0.09-0.05c0-0.03-0.02-0.06-0.08-0.06c-0.02,0-0.04,0-0.05,0V41.8z"/>
				</g>
			</g>
		</g>
	</g>
	<g>
		<path class="st0" d="M470.17,35.49h0.46v2.53h0.01c0.07-0.11,0.16-0.21,0.26-0.28c0.1-0.08,0.21-0.14,0.32-0.19
			s0.23-0.09,0.34-0.11c0.12-0.02,0.23-0.03,0.34-0.03c0.26,0,0.49,0.04,0.7,0.13c0.21,0.09,0.39,0.2,0.55,0.36
			c0.15,0.15,0.27,0.33,0.36,0.54c0.09,0.21,0.13,0.43,0.13,0.68s-0.04,0.47-0.13,0.68c-0.09,0.21-0.21,0.39-0.36,0.54
			c-0.15,0.15-0.34,0.27-0.55,0.36c-0.21,0.09-0.44,0.13-0.7,0.13c-0.11,0-0.22-0.01-0.34-0.03c-0.12-0.02-0.23-0.06-0.34-0.11
			c-0.11-0.05-0.22-0.12-0.32-0.19c-0.1-0.08-0.19-0.17-0.26-0.28h-0.01v0.54h-0.46V35.49z M473.15,39.11
			c0-0.18-0.03-0.35-0.09-0.51c-0.06-0.16-0.14-0.29-0.25-0.41c-0.11-0.12-0.24-0.21-0.39-0.27c-0.15-0.07-0.32-0.1-0.51-0.1
			s-0.36,0.03-0.52,0.1c-0.16,0.07-0.29,0.16-0.41,0.27c-0.12,0.12-0.21,0.25-0.27,0.41c-0.06,0.16-0.1,0.33-0.1,0.51
			c0,0.18,0.03,0.35,0.1,0.51c0.06,0.16,0.16,0.29,0.27,0.41c0.12,0.12,0.25,0.21,0.41,0.27c0.16,0.07,0.33,0.1,0.52,0.1
			s0.36-0.03,0.51-0.1c0.15-0.07,0.28-0.16,0.39-0.27c0.11-0.12,0.19-0.25,0.25-0.41C473.12,39.46,473.15,39.29,473.15,39.11z"/>
		<path class="st0" d="M475.64,40.17l1-2.68h0.56l-1.63,4.08c-0.1,0.25-0.22,0.45-0.37,0.6c-0.15,0.15-0.37,0.22-0.65,0.22
			c-0.07,0-0.14,0-0.21-0.01c-0.07,0-0.14-0.02-0.21-0.04l0.05-0.44c0.1,0.05,0.21,0.08,0.35,0.08c0.16,0,0.29-0.05,0.38-0.15
			c0.09-0.1,0.17-0.24,0.24-0.43l0.24-0.62l-1.34-3.28h0.58L475.64,40.17z"/>
	</g>
	<g>
		<path class="st0" d="M479.24,25.43c-1,0.87-2.24,1.3-3.71,1.3c-1.92,0-3.44-0.62-4.54-1.87c-1-1.12-1.5-2.48-1.5-4.07
			c0-1.7,0.56-3.12,1.68-4.28c1.12-1.15,2.61-1.73,4.45-1.73c1.41,0,2.61,0.43,3.6,1.29l-1.15,1.62c-0.66-0.5-1.46-0.75-2.4-0.75
			c-1.01,0-1.84,0.34-2.48,1.03c-0.64,0.68-0.96,1.61-0.96,2.78c0,1.14,0.32,2.08,0.96,2.82c0.64,0.75,1.49,1.12,2.55,1.12
			c0.92,0,1.74-0.3,2.47-0.89L479.24,25.43z"/>
		<path class="st0" d="M491.23,20.68c0,1.73-0.56,3.17-1.69,4.32c-1.13,1.15-2.55,1.73-4.25,1.73c-1.71,0-3.12-0.58-4.24-1.73
			c-1.12-1.15-1.68-2.59-1.68-4.32c0-1.7,0.59-3.11,1.78-4.25c1.14-1.09,2.52-1.64,4.15-1.64c1.63,0,3.02,0.55,4.17,1.64
			C490.64,17.57,491.23,18.98,491.23,20.68z M488.49,20.68c0-1.1-0.26-2.02-0.78-2.73c-0.58-0.78-1.39-1.17-2.42-1.17
			s-1.83,0.39-2.4,1.17c-0.52,0.72-0.78,1.63-0.78,2.73c0,1.17,0.25,2.12,0.76,2.85c0.57,0.81,1.38,1.21,2.42,1.21
			c1.05,0,1.86-0.4,2.44-1.21C488.23,22.8,488.49,21.85,488.49,20.68z"/>
		<path class="st0" d="M503.98,20.68c0,1.73-0.56,3.17-1.69,4.32c-1.13,1.15-2.55,1.73-4.25,1.73c-1.71,0-3.12-0.58-4.24-1.73
			c-1.12-1.15-1.68-2.59-1.68-4.32c0-1.7,0.59-3.11,1.78-4.25c1.14-1.09,2.52-1.64,4.15-1.64c1.63,0,3.02,0.55,4.17,1.64
			C503.39,17.57,503.98,18.98,503.98,20.68z M501.24,20.68c0-1.1-0.26-2.02-0.78-2.73c-0.58-0.78-1.39-1.17-2.42-1.17
			s-1.83,0.39-2.4,1.17c-0.52,0.72-0.78,1.63-0.78,2.73c0,1.17,0.25,2.12,0.76,2.85c0.57,0.81,1.38,1.21,2.42,1.21
			c1.05,0,1.86-0.4,2.44-1.21C500.98,22.8,501.24,21.85,501.24,20.68z"/>
		<path class="st0" d="M507.9,26.47h-2.56V9.71l2.56,1.43V26.47z"/>
		<g>
			<g>
				<path class="st0" d="M527.46,20.68c0,1.73-0.57,3.17-1.69,4.32c-1.13,1.15-2.55,1.73-4.25,1.73c-1.71,0-3.12-0.58-4.24-1.73
					c-1.12-1.15-1.68-2.59-1.68-4.32c0-1.7,0.59-3.11,1.78-4.25c1.14-1.09,2.52-1.64,4.15-1.64c1.63,0,3.02,0.55,4.17,1.64
					C526.86,17.57,527.46,18.98,527.46,20.68z M524.71,20.68c0-1.1-0.26-2.02-0.78-2.73c-0.58-0.78-1.39-1.17-2.42-1.17
					c-1.03,0-1.83,0.39-2.4,1.17c-0.52,0.72-0.78,1.63-0.78,2.73c0,1.17,0.25,2.12,0.76,2.85c0.57,0.81,1.38,1.21,2.42,1.21
					c1.05,0,1.86-0.4,2.44-1.21C524.46,22.8,524.71,21.85,524.71,20.68z"/>
				<path class="st0" d="M539.1,26.47h-2.56v-7.29c0-0.65-0.23-1.2-0.68-1.65c-0.45-0.44-1.05-0.67-1.79-0.67
					c-0.82,0-1.74,0.53-2.79,1.59v8.01h-2.56v-11.4l2.17,1.31c1.11-1.08,2.41-1.62,3.92-1.62c1.35,0,2.43,0.45,3.23,1.33
					c0.71,0.8,1.06,1.78,1.06,2.95V26.47z"/>
				<path class="st0" d="M551.6,21.3h-8.19c0.31,2.33,1.4,3.49,3.27,3.49c1.15,0,2.1-0.33,2.84-0.98l1.01,1.66
					c-0.98,0.91-2.29,1.36-3.92,1.36c-2.26,0-3.91-0.85-4.96-2.55c-0.65-1.05-0.97-2.12-0.97-3.23c0-1.36,0.26-2.54,0.78-3.53
					c0.94-1.83,2.61-2.74,5-2.74c2.37,0,3.93,1.08,4.68,3.25C551.48,18.95,551.63,20.04,551.6,21.3z M549.01,19.62
					c-0.09-2.01-0.95-3.02-2.58-3.02c-1.8,0-2.79,1.01-2.97,3.02H549.01z"/>
				<path class="st0" d="M513.44,24.6c-0.49,0-0.8-0.21-0.92-0.63c-0.06-0.17-0.09-0.55-0.09-1.12v-4.75h1.78v-1.71h-1.78v-2.72
					l-2.56-1.43v11.24c0,0.81,0.2,1.52,0.6,2.13c0.49,0.78,1.2,1.17,2.12,1.17h1.61l1.08-2.18H513.44z"/>
			</g>
		</g>
		<g>
			<path class="st0" d="M554.53,15.99c0,0.67-0.55,1.21-1.24,1.21c-0.69,0-1.25-0.54-1.25-1.21c0-0.68,0.55-1.2,1.25-1.2
				C553.99,14.79,554.53,15.32,554.53,15.99z M552.36,15.99c0,0.54,0.41,0.96,0.95,0.96c0.52,0.01,0.92-0.43,0.92-0.95
				c0-0.54-0.4-0.97-0.94-0.97C552.76,15.03,552.36,15.46,552.36,15.99z M553.1,16.61h-0.28v-1.2c0.11-0.01,0.27-0.04,0.46-0.04
				c0.23,0,0.33,0.04,0.41,0.1c0.07,0.05,0.13,0.14,0.13,0.26c0,0.15-0.11,0.24-0.25,0.29v0.01c0.12,0.04,0.18,0.13,0.21,0.29
				c0.04,0.18,0.07,0.25,0.09,0.29h-0.3c-0.04-0.04-0.06-0.15-0.1-0.29c-0.02-0.12-0.1-0.18-0.25-0.18h-0.13V16.61z M553.11,15.94
				h0.13c0.16,0,0.28-0.05,0.28-0.18c0-0.11-0.08-0.18-0.26-0.18c-0.07,0-0.13,0.01-0.16,0.01V15.94z"/>
		</g>
	</g>
</g>
</svg>
